G75*
G70*
%OFA0B0*%
%FSLAX24Y24*%
%IPPOS*%
%LPD*%
%AMOC8*
5,1,8,0,0,1.08239X$1,22.5*
%
%ADD10C,0.1340*%
%ADD11C,0.0720*%
%ADD12C,0.0820*%
%ADD13R,0.2521X0.2206*%
%ADD14R,0.0710X0.0474*%
%ADD15R,0.0631X0.1261*%
%ADD16R,0.0470X0.0200*%
%ADD17R,0.0474X0.0513*%
%ADD18C,0.0867*%
%ADD19R,0.0659X0.0580*%
%ADD20R,0.0631X0.0552*%
%ADD21C,0.0820*%
%ADD22R,0.0328X0.0407*%
D10*
X032240Y003883D03*
X052740Y005883D03*
X052740Y016883D03*
X032740Y022883D03*
D11*
X036140Y023203D02*
X036140Y022563D01*
X037140Y022563D02*
X037140Y023203D01*
X038140Y023203D02*
X038140Y022563D01*
X039140Y022563D02*
X039140Y023203D01*
X040140Y023203D02*
X040140Y022563D01*
X041140Y022563D02*
X041140Y023203D01*
X042140Y023203D02*
X042140Y022563D01*
X043140Y022563D02*
X043140Y023203D01*
X044740Y023203D02*
X044740Y022563D01*
X045740Y022563D02*
X045740Y023203D01*
X046740Y023203D02*
X046740Y022563D01*
X047740Y022563D02*
X047740Y023203D01*
X048740Y023203D02*
X048740Y022563D01*
X049740Y022563D02*
X049740Y023203D01*
X050740Y023203D02*
X050740Y022563D01*
X051740Y022563D02*
X051740Y023203D01*
X051740Y004203D02*
X051740Y003563D01*
X050740Y003563D02*
X050740Y004203D01*
X049740Y004203D02*
X049740Y003563D01*
X048740Y003563D02*
X048740Y004203D01*
X047740Y004203D02*
X047740Y003563D01*
X046740Y003563D02*
X046740Y004203D01*
X044740Y004203D02*
X044740Y003563D01*
X043740Y003563D02*
X043740Y004203D01*
X042740Y004203D02*
X042740Y003563D01*
X041740Y003563D02*
X041740Y004203D01*
X040740Y004203D02*
X040740Y003563D01*
X039740Y003563D02*
X039740Y004203D01*
D12*
X054640Y007383D03*
X055640Y007383D03*
X056640Y007383D03*
X056640Y008383D03*
X055640Y008383D03*
X054640Y008383D03*
X054640Y009383D03*
X055640Y009383D03*
X056640Y009383D03*
X056640Y010383D03*
X055640Y010383D03*
X054640Y010383D03*
X054640Y011383D03*
X055640Y011383D03*
X056640Y011383D03*
X056640Y012383D03*
X055640Y012383D03*
X054640Y012383D03*
X054640Y013383D03*
X055640Y013383D03*
X056640Y013383D03*
X056640Y014383D03*
X055640Y014383D03*
X054640Y014383D03*
X054640Y015383D03*
X055640Y015383D03*
X056640Y015383D03*
X056640Y016383D03*
X055640Y016383D03*
X054640Y016383D03*
X054640Y017383D03*
X055640Y017383D03*
X056640Y017383D03*
X056640Y018383D03*
X055640Y018383D03*
X054640Y018383D03*
X061640Y018383D03*
X062640Y018383D03*
X063640Y018383D03*
X063640Y017383D03*
X062640Y017383D03*
X061640Y017383D03*
X061640Y016383D03*
X062640Y016383D03*
X063640Y016383D03*
X063640Y015383D03*
X062640Y015383D03*
X061640Y015383D03*
X061640Y014383D03*
X062640Y014383D03*
X063640Y014383D03*
X063640Y013383D03*
X062640Y013383D03*
X061640Y013383D03*
X061640Y012383D03*
X062640Y012383D03*
X063640Y012383D03*
X063640Y011383D03*
X062640Y011383D03*
X061640Y011383D03*
X061640Y010383D03*
X062640Y010383D03*
X063640Y010383D03*
X063640Y009383D03*
X062640Y009383D03*
X061640Y009383D03*
X061640Y008383D03*
X062640Y008383D03*
X063640Y008383D03*
X063640Y007383D03*
X062640Y007383D03*
X061640Y007383D03*
D13*
X030256Y013483D03*
D14*
X033130Y012586D03*
X033130Y014381D03*
D15*
X031640Y018238D03*
X028440Y018238D03*
X028440Y020128D03*
X031640Y020128D03*
D16*
X047791Y017435D03*
X047791Y017179D03*
X047791Y016923D03*
X047791Y016667D03*
X047791Y016411D03*
X047791Y016155D03*
X047791Y015899D03*
X047791Y015644D03*
X047791Y015388D03*
X047791Y015132D03*
X050089Y015132D03*
X050089Y015388D03*
X050089Y015644D03*
X050089Y015899D03*
X050089Y016155D03*
X050089Y016411D03*
X050089Y016667D03*
X050089Y016923D03*
X050089Y017179D03*
X050089Y017435D03*
X050089Y011335D03*
X050089Y011079D03*
X050089Y010823D03*
X050089Y010567D03*
X050089Y010311D03*
X050089Y010055D03*
X050089Y009799D03*
X050089Y009544D03*
X050089Y009288D03*
X050089Y009032D03*
X047791Y009032D03*
X047791Y009288D03*
X047791Y009544D03*
X047791Y009799D03*
X047791Y010055D03*
X047791Y010311D03*
X047791Y010567D03*
X047791Y010823D03*
X047791Y011079D03*
X047791Y011335D03*
D17*
X047140Y009118D03*
X047140Y008449D03*
X050740Y008449D03*
X050740Y009118D03*
X050740Y014549D03*
X050740Y015218D03*
X047140Y015218D03*
X047140Y014549D03*
X030040Y021949D03*
X030040Y022618D03*
D18*
X031273Y008861D02*
X031273Y008074D01*
X028793Y008074D02*
X028793Y008861D01*
X029698Y006499D02*
X030486Y006499D01*
D19*
X033140Y006587D03*
X033140Y008280D03*
D20*
X028440Y021693D03*
X028440Y022874D03*
D21*
X028570Y003783D02*
X029310Y003783D01*
X029310Y004783D02*
X028570Y004783D01*
D22*
X059787Y012383D03*
X060693Y012383D03*
X060693Y017383D03*
X059787Y017383D03*
X059787Y018383D03*
X060693Y018383D03*
M02*
