G75*
%MOIN*%
%OFA0B0*%
%FSLAX24Y24*%
%IPPOS*%
%LPD*%
%AMOC8*
5,1,8,0,0,1.08239X$1,22.5*
%
%ADD10C,0.0120*%
%ADD11C,0.0070*%
%ADD12C,0.0100*%
%ADD13C,0.0060*%
%ADD14C,0.0080*%
%ADD15R,0.0300X0.0340*%
%ADD16C,0.0040*%
%ADD17R,0.0300X0.0180*%
%ADD18R,0.0180X0.0300*%
D10*
X055140Y005883D02*
X057640Y005883D01*
X057640Y006883D01*
X060640Y006883D01*
X060640Y005883D01*
X063140Y005883D01*
X063140Y006883D01*
X060640Y005883D02*
X060640Y005383D01*
X057640Y005383D01*
X057640Y005883D01*
X055140Y005883D02*
X055140Y006883D01*
X055140Y018883D02*
X056140Y019883D01*
X062140Y019883D01*
X063140Y018883D01*
X052140Y021383D02*
X051790Y021033D01*
X051440Y021383D01*
X052140Y021383D01*
X051990Y021333D02*
X051790Y021133D01*
X051640Y021283D01*
X051840Y021283D01*
X051790Y021233D02*
X051790Y021183D01*
X051590Y021333D02*
X051990Y021333D01*
X051090Y021033D02*
X050740Y021383D01*
X050390Y021033D01*
X051090Y021033D01*
X050940Y021083D02*
X050640Y021083D01*
X050790Y021183D01*
X050740Y021283D02*
X050940Y021083D01*
X050740Y021283D02*
X050540Y021083D01*
X049740Y020883D02*
X049290Y020433D01*
X046090Y020433D01*
X041890Y020433D02*
X038690Y020433D01*
X038240Y020883D01*
X035340Y022083D02*
X035342Y022103D01*
X035348Y022121D01*
X035357Y022139D01*
X035369Y022154D01*
X035384Y022166D01*
X035402Y022175D01*
X035420Y022181D01*
X035440Y022183D01*
X035460Y022181D01*
X035478Y022175D01*
X035496Y022166D01*
X035511Y022154D01*
X035523Y022139D01*
X035532Y022121D01*
X035538Y022103D01*
X035540Y022083D01*
X035538Y022063D01*
X035532Y022045D01*
X035523Y022027D01*
X035511Y022012D01*
X035496Y022000D01*
X035478Y021991D01*
X035460Y021985D01*
X035440Y021983D01*
X035420Y021985D01*
X035402Y021991D01*
X035384Y022000D01*
X035369Y022012D01*
X035357Y022027D01*
X035348Y022045D01*
X035342Y022063D01*
X035340Y022083D01*
D11*
X035836Y022085D02*
X035836Y021758D01*
X036327Y021758D01*
X036327Y021569D02*
X036327Y021242D01*
X035836Y021242D01*
X035836Y021569D01*
X036082Y021406D02*
X036082Y021242D01*
X036082Y021054D02*
X036163Y020972D01*
X036163Y020727D01*
X036163Y020890D02*
X036327Y021054D01*
X036082Y021054D02*
X035918Y021054D01*
X035836Y020972D01*
X035836Y020727D01*
X036327Y020727D01*
X036327Y020538D02*
X036000Y020538D01*
X035836Y020374D01*
X036000Y020211D01*
X036327Y020211D01*
X036082Y020211D02*
X036082Y020538D01*
X036882Y020798D02*
X036964Y020717D01*
X037291Y020717D01*
X037372Y020798D01*
X037372Y020962D01*
X037291Y021044D01*
X037127Y021044D01*
X037127Y020880D01*
X036964Y021044D02*
X036882Y020962D01*
X036882Y020798D01*
X036882Y021232D02*
X037372Y021559D01*
X036882Y021559D01*
X036882Y021748D02*
X036882Y021993D01*
X036964Y022075D01*
X037291Y022075D01*
X037372Y021993D01*
X037372Y021748D01*
X036882Y021748D01*
X036082Y021758D02*
X036082Y021921D01*
X037875Y021948D02*
X037875Y021784D01*
X037956Y021703D01*
X038120Y021866D02*
X038120Y021948D01*
X038202Y022030D01*
X038283Y022030D01*
X038365Y021948D01*
X038365Y021784D01*
X038283Y021703D01*
X038365Y021514D02*
X038365Y021187D01*
X038365Y021351D02*
X037875Y021351D01*
X038038Y021187D01*
X037372Y021232D02*
X036882Y021232D01*
X038875Y021351D02*
X039365Y021351D01*
X039365Y021514D02*
X039365Y021187D01*
X039038Y021187D02*
X038875Y021351D01*
X038956Y021703D02*
X038875Y021784D01*
X038875Y021948D01*
X038956Y022030D01*
X039038Y022030D01*
X039365Y021703D01*
X039365Y022030D01*
X039875Y021866D02*
X040365Y021866D01*
X040365Y021703D02*
X040365Y022030D01*
X040038Y021703D02*
X039875Y021866D01*
X040875Y021784D02*
X040875Y021948D01*
X040956Y022030D01*
X041283Y021703D01*
X041365Y021784D01*
X041365Y021948D01*
X041283Y022030D01*
X040956Y022030D01*
X040875Y021784D02*
X040956Y021703D01*
X041283Y021703D01*
X041365Y021514D02*
X041365Y021187D01*
X041365Y021351D02*
X040875Y021351D01*
X041038Y021187D01*
X040365Y021187D02*
X040365Y021514D01*
X040365Y021351D02*
X039875Y021351D01*
X040038Y021187D01*
X041875Y021784D02*
X041956Y021703D01*
X042038Y021703D01*
X042120Y021784D01*
X042120Y022030D01*
X042283Y022030D02*
X041956Y022030D01*
X041875Y021948D01*
X041875Y021784D01*
X042283Y021703D02*
X042365Y021784D01*
X042365Y021948D01*
X042283Y022030D01*
X042875Y021948D02*
X042956Y022030D01*
X043038Y022030D01*
X043120Y021948D01*
X043120Y021784D01*
X043038Y021703D01*
X042956Y021703D01*
X042875Y021784D01*
X042875Y021948D01*
X043120Y021948D02*
X043202Y022030D01*
X043283Y022030D01*
X043365Y021948D01*
X043365Y021784D01*
X043283Y021703D01*
X043202Y021703D01*
X043120Y021784D01*
X044475Y021703D02*
X044475Y022030D01*
X044556Y022030D01*
X044883Y021703D01*
X044965Y021703D01*
X045475Y022030D02*
X045556Y021866D01*
X045720Y021703D01*
X045720Y021948D01*
X045802Y022030D01*
X045883Y022030D01*
X045965Y021948D01*
X045965Y021784D01*
X045883Y021703D01*
X045720Y021703D01*
X046475Y021703D02*
X046720Y021703D01*
X046638Y021866D01*
X046638Y021948D01*
X046720Y022030D01*
X046883Y022030D01*
X046965Y021948D01*
X046965Y021784D01*
X046883Y021703D01*
X046475Y021703D02*
X046475Y022030D01*
X047475Y021948D02*
X047720Y021703D01*
X047720Y022030D01*
X047965Y021948D02*
X047475Y021948D01*
X048475Y021948D02*
X048475Y021784D01*
X048556Y021703D01*
X048720Y021866D02*
X048720Y021948D01*
X048802Y022030D01*
X048883Y022030D01*
X048965Y021948D01*
X048965Y021784D01*
X048883Y021703D01*
X048720Y021948D02*
X048638Y022030D01*
X048556Y022030D01*
X048475Y021948D01*
X049475Y021948D02*
X049475Y021784D01*
X049556Y021703D01*
X049475Y021948D02*
X049556Y022030D01*
X049638Y022030D01*
X049965Y021703D01*
X049965Y022030D01*
X050475Y021866D02*
X050638Y021703D01*
X050475Y021866D02*
X050965Y021866D01*
X050965Y021703D02*
X050965Y022030D01*
X051475Y021948D02*
X051556Y022030D01*
X051883Y021703D01*
X051965Y021784D01*
X051965Y021948D01*
X051883Y022030D01*
X051556Y022030D01*
X051475Y021948D02*
X051475Y021784D01*
X051556Y021703D01*
X051883Y021703D01*
X038120Y021948D02*
X038038Y022030D01*
X037956Y022030D01*
X037875Y021948D01*
X039514Y007208D02*
X039514Y006881D01*
X039514Y007044D02*
X040005Y007044D01*
X040005Y006692D02*
X040005Y006365D01*
X039514Y006365D01*
X039514Y006692D01*
X039760Y006529D02*
X039760Y006365D01*
X039841Y006177D02*
X039923Y006177D01*
X040005Y006095D01*
X040005Y005931D01*
X039923Y005850D01*
X039760Y005931D02*
X039760Y006095D01*
X039841Y006177D01*
X039596Y006177D02*
X039514Y006095D01*
X039514Y005931D01*
X039596Y005850D01*
X039678Y005850D01*
X039760Y005931D01*
X040005Y005661D02*
X040005Y005334D01*
X039514Y005334D01*
X039514Y005661D01*
X039760Y005497D02*
X039760Y005334D01*
X039760Y005145D02*
X039841Y005063D01*
X039841Y004818D01*
X039841Y004982D02*
X040005Y005145D01*
X039760Y005145D02*
X039596Y005145D01*
X039514Y005063D01*
X039514Y004818D01*
X040005Y004818D01*
X040514Y004900D02*
X040514Y005063D01*
X040596Y005145D01*
X040678Y005145D01*
X040760Y005063D01*
X040841Y005145D01*
X040923Y005145D01*
X041005Y005063D01*
X041005Y004900D01*
X040923Y004818D01*
X040760Y004982D02*
X040760Y005063D01*
X040841Y005334D02*
X040514Y005334D01*
X040514Y005661D02*
X040841Y005661D01*
X041005Y005497D01*
X040841Y005334D01*
X040514Y004900D02*
X040596Y004818D01*
X041514Y004818D02*
X041760Y004818D01*
X041678Y004982D01*
X041678Y005063D01*
X041760Y005145D01*
X041923Y005145D01*
X042005Y005063D01*
X042005Y004900D01*
X041923Y004818D01*
X041514Y004818D02*
X041514Y005145D01*
X041514Y005334D02*
X041841Y005334D01*
X042005Y005497D01*
X041841Y005661D01*
X041514Y005661D01*
X041005Y005931D02*
X040923Y005850D01*
X041005Y005931D02*
X041005Y006095D01*
X040923Y006176D01*
X040841Y006176D01*
X040760Y006095D01*
X040760Y006013D01*
X040760Y006095D02*
X040678Y006176D01*
X040596Y006176D01*
X040514Y006095D01*
X040514Y005931D01*
X040596Y005850D01*
X042515Y005850D02*
X042515Y006096D01*
X042597Y006177D01*
X042924Y006177D01*
X043005Y006096D01*
X043005Y005850D01*
X042515Y005850D01*
X042515Y005662D02*
X043005Y005662D01*
X042515Y005335D01*
X043005Y005335D01*
X042924Y005146D02*
X042760Y005146D01*
X042760Y004983D01*
X042597Y005146D02*
X042515Y005064D01*
X042515Y004901D01*
X042597Y004819D01*
X042924Y004819D01*
X043005Y004901D01*
X043005Y005064D01*
X042924Y005146D01*
X043515Y005064D02*
X043515Y004900D01*
X043596Y004818D01*
X043923Y004818D01*
X044005Y004900D01*
X044005Y005064D01*
X043923Y005145D01*
X043760Y005145D01*
X043760Y004982D01*
X043596Y005145D02*
X043515Y005064D01*
X043515Y005334D02*
X044005Y005661D01*
X043515Y005661D01*
X043515Y005850D02*
X043515Y006095D01*
X043596Y006177D01*
X043923Y006177D01*
X044005Y006095D01*
X044005Y005850D01*
X043515Y005850D01*
X044515Y006004D02*
X045005Y006004D01*
X044515Y005678D01*
X045005Y005678D01*
X045005Y005497D02*
X045005Y005334D01*
X045005Y005415D02*
X044515Y005415D01*
X044515Y005334D02*
X044515Y005497D01*
X044515Y005145D02*
X044842Y005145D01*
X045005Y004982D01*
X044842Y004818D01*
X044515Y004818D01*
X046514Y004982D02*
X046678Y005146D01*
X047005Y005146D01*
X046923Y005334D02*
X046596Y005661D01*
X046923Y005661D01*
X047005Y005579D01*
X047005Y005416D01*
X046923Y005334D01*
X046596Y005334D01*
X046514Y005416D01*
X046514Y005579D01*
X046596Y005661D01*
X046759Y005146D02*
X046759Y004819D01*
X046678Y004819D02*
X047005Y004819D01*
X046678Y004819D02*
X046514Y004982D01*
X047514Y004982D02*
X047678Y004818D01*
X048005Y004818D01*
X047759Y004818D02*
X047759Y005145D01*
X047678Y005145D02*
X048005Y005145D01*
X048005Y005334D02*
X048005Y005661D01*
X048005Y005497D02*
X047514Y005497D01*
X047678Y005334D01*
X047678Y005145D02*
X047514Y004982D01*
X048515Y004982D02*
X048678Y004818D01*
X049005Y004818D01*
X048760Y004818D02*
X048760Y005145D01*
X048678Y005145D02*
X049005Y005145D01*
X049005Y005334D02*
X048678Y005661D01*
X048596Y005661D01*
X048515Y005579D01*
X048515Y005416D01*
X048596Y005334D01*
X048678Y005145D02*
X048515Y004982D01*
X049005Y005334D02*
X049005Y005661D01*
X049515Y005579D02*
X049515Y005416D01*
X049596Y005334D01*
X049923Y005334D01*
X050005Y005416D01*
X050005Y005579D01*
X049923Y005661D01*
X049596Y005661D02*
X049515Y005579D01*
X049515Y005145D02*
X050005Y005145D01*
X049515Y004818D01*
X050005Y004818D01*
X050515Y004818D02*
X051005Y005145D01*
X050515Y005145D01*
X050596Y005334D02*
X050923Y005334D01*
X051005Y005416D01*
X051005Y005579D01*
X050923Y005661D01*
X050596Y005661D02*
X050515Y005579D01*
X050515Y005416D01*
X050596Y005334D01*
X051515Y005416D02*
X051596Y005334D01*
X051923Y005334D01*
X052005Y005416D01*
X052005Y005579D01*
X051923Y005661D01*
X051596Y005661D02*
X051515Y005579D01*
X051515Y005416D01*
X051515Y005145D02*
X052005Y005145D01*
X051515Y004818D01*
X052005Y004818D01*
X051005Y004818D02*
X050515Y004818D01*
X044005Y005334D02*
X043515Y005334D01*
D12*
X043621Y006833D02*
X043621Y007394D01*
X043901Y007394D01*
X043995Y007300D01*
X043995Y007114D01*
X043901Y007020D01*
X043621Y007020D01*
X043808Y007020D02*
X043995Y006833D01*
X043387Y006833D02*
X043013Y006833D01*
X043013Y007394D01*
X043387Y007394D01*
X043200Y007114D02*
X043013Y007114D01*
X042779Y007394D02*
X042779Y006833D01*
X042592Y007020D01*
X042405Y006833D01*
X042405Y007394D01*
X042171Y007300D02*
X042078Y007394D01*
X041891Y007394D01*
X041798Y007300D01*
X041798Y006927D01*
X041891Y006833D01*
X042078Y006833D01*
X042171Y006927D01*
X042171Y007300D01*
X041564Y007300D02*
X041470Y007394D01*
X041190Y007394D01*
X041190Y006833D01*
X041190Y007020D02*
X041470Y007020D01*
X041564Y007114D01*
X041564Y007300D01*
X046690Y007207D02*
X046690Y006833D01*
X046690Y007114D02*
X047064Y007114D01*
X047064Y007207D02*
X047064Y006833D01*
X047298Y006833D02*
X047298Y007394D01*
X047671Y006833D01*
X047671Y007394D01*
X047905Y007207D02*
X048092Y007394D01*
X048279Y007207D01*
X048279Y006833D01*
X048513Y006833D02*
X048887Y006833D01*
X049121Y006927D02*
X049214Y006833D01*
X049401Y006833D01*
X049495Y006927D01*
X049495Y007300D01*
X049401Y007394D01*
X049214Y007394D01*
X049121Y007300D01*
X049121Y006927D01*
X049729Y006927D02*
X049729Y007300D01*
X049822Y007394D01*
X050009Y007394D01*
X050102Y007300D01*
X050102Y007114D02*
X049915Y007114D01*
X050102Y007114D02*
X050102Y006927D01*
X050009Y006833D01*
X049822Y006833D01*
X049729Y006927D01*
X050944Y006833D02*
X051131Y006833D01*
X051037Y006833D02*
X051037Y007394D01*
X050944Y007394D02*
X051131Y007394D01*
X051349Y007394D02*
X051723Y006833D01*
X051723Y007394D01*
X051349Y007394D02*
X051349Y006833D01*
X048513Y006833D02*
X048513Y007394D01*
X048279Y007114D02*
X047905Y007114D01*
X047905Y007207D02*
X047905Y006833D01*
X047064Y007207D02*
X046877Y007394D01*
X046690Y007207D01*
X045819Y020219D02*
X045445Y020219D01*
X045445Y020780D01*
X045211Y020593D02*
X045025Y020780D01*
X044838Y020593D01*
X044838Y020219D01*
X044838Y020499D02*
X045211Y020499D01*
X045211Y020593D02*
X045211Y020219D01*
X044417Y020219D02*
X044417Y020780D01*
X044230Y020780D02*
X044604Y020780D01*
X044012Y020780D02*
X043825Y020780D01*
X043918Y020780D02*
X043918Y020219D01*
X043825Y020219D02*
X044012Y020219D01*
X043591Y020313D02*
X043591Y020499D01*
X043404Y020499D01*
X043217Y020313D02*
X043217Y020686D01*
X043311Y020780D01*
X043497Y020780D01*
X043591Y020686D01*
X043591Y020313D02*
X043497Y020219D01*
X043311Y020219D01*
X043217Y020313D01*
X042999Y020219D02*
X042812Y020219D01*
X042905Y020219D02*
X042905Y020780D01*
X042812Y020780D02*
X042999Y020780D01*
X042578Y020686D02*
X042485Y020780D01*
X042204Y020780D01*
X042204Y020219D01*
X042485Y020219D01*
X042578Y020313D01*
X042578Y020686D01*
D13*
X042870Y020044D02*
X042997Y020044D01*
X042870Y020044D02*
X042870Y019663D01*
X042997Y019663D01*
X043140Y019790D02*
X043394Y019790D01*
X043394Y019917D02*
X043330Y019917D01*
X043140Y019917D01*
X043203Y020044D02*
X043203Y019663D01*
X043330Y019663D02*
X043330Y020044D01*
X043545Y019917D02*
X043799Y019917D01*
X043799Y019790D02*
X043545Y019790D01*
X043950Y019790D02*
X044141Y019790D01*
X044204Y019853D01*
X044204Y019980D01*
X044141Y020044D01*
X043950Y020044D01*
X043950Y019663D01*
X044356Y019663D02*
X044356Y020044D01*
X044609Y020044D02*
X044609Y019663D01*
X044482Y019790D01*
X044356Y019663D01*
X044761Y019663D02*
X044761Y020044D01*
X044887Y019917D01*
X045014Y020044D01*
X045014Y019663D01*
X045166Y019663D02*
X045293Y019663D01*
X045293Y020044D01*
X045166Y020044D01*
X045706Y021263D02*
X045706Y021453D01*
X045706Y021517D01*
X045833Y021517D02*
X045833Y021263D01*
X045960Y021327D02*
X045580Y021327D01*
X045580Y021453D02*
X045960Y021453D01*
X046530Y021453D02*
X046910Y021453D01*
X046910Y021327D02*
X046530Y021327D01*
X046656Y021263D02*
X046656Y021453D01*
X046656Y021517D01*
X046783Y021517D02*
X046783Y021263D01*
X048530Y021327D02*
X048910Y021327D01*
X048910Y021453D02*
X048530Y021453D01*
X048656Y021453D02*
X048656Y021517D01*
X048656Y021453D02*
X048656Y021263D01*
X048783Y021263D02*
X048783Y021517D01*
X050508Y020867D02*
X051008Y020534D01*
X051008Y020867D02*
X050508Y020534D01*
X050508Y020352D02*
X050508Y020018D01*
X050508Y020185D02*
X051008Y020185D01*
X051510Y020264D02*
X051593Y020347D01*
X051760Y020347D01*
X051843Y020264D01*
X051843Y020013D01*
X052010Y020013D02*
X051510Y020013D01*
X051510Y020264D01*
X051510Y020529D02*
X052010Y020863D01*
X052010Y020529D02*
X051510Y020863D01*
X052010Y020347D02*
X051843Y020180D01*
X051990Y022383D02*
X051490Y022383D01*
X051240Y022633D01*
X050990Y022383D01*
X050490Y022383D01*
X050240Y022633D01*
X050240Y023133D01*
X050490Y023383D01*
X050990Y023383D01*
X051240Y023133D01*
X051490Y023383D01*
X051990Y023383D01*
X052240Y023133D01*
X052240Y022633D01*
X051990Y022383D01*
X051240Y022633D02*
X051240Y023133D01*
X050240Y023133D02*
X049990Y023383D01*
X049490Y023383D01*
X049240Y023133D01*
X048990Y023383D01*
X048490Y023383D01*
X048240Y023133D01*
X047990Y023383D01*
X047490Y023383D01*
X047240Y023133D01*
X047240Y022633D01*
X047490Y022383D01*
X047990Y022383D01*
X048240Y022633D01*
X048240Y023133D01*
X047240Y023133D02*
X046990Y023383D01*
X046490Y023383D01*
X046240Y023133D01*
X045990Y023383D01*
X045490Y023383D01*
X045240Y023133D01*
X044990Y023383D01*
X044490Y023383D01*
X044240Y023133D01*
X044240Y022633D01*
X044490Y022383D01*
X044990Y022383D01*
X045240Y022633D01*
X045240Y023133D01*
X046240Y023133D02*
X046240Y022633D01*
X045990Y022383D01*
X045490Y022383D01*
X045240Y022633D01*
X046240Y022633D02*
X046490Y022383D01*
X046990Y022383D01*
X047240Y022633D01*
X048240Y022633D02*
X048490Y022383D01*
X048990Y022383D01*
X049240Y022633D01*
X049240Y023133D01*
X049240Y022633D02*
X049490Y022383D01*
X049990Y022383D01*
X050240Y022633D01*
X043640Y022633D02*
X043390Y022383D01*
X042890Y022383D01*
X042640Y022633D01*
X042390Y022383D01*
X041890Y022383D01*
X041640Y022633D01*
X041640Y023133D01*
X041890Y023383D01*
X042390Y023383D01*
X042640Y023133D01*
X042890Y023383D01*
X043390Y023383D01*
X043640Y023133D01*
X043640Y022633D01*
X042640Y022633D02*
X042640Y023133D01*
X041640Y023133D02*
X041390Y023383D01*
X040890Y023383D01*
X040640Y023133D01*
X040390Y023383D01*
X039890Y023383D01*
X039640Y023133D01*
X039390Y023383D01*
X038890Y023383D01*
X038640Y023133D01*
X038640Y022633D01*
X038890Y022383D01*
X039390Y022383D01*
X039640Y022633D01*
X039640Y023133D01*
X038640Y023133D02*
X038390Y023383D01*
X037890Y023383D01*
X037640Y023133D01*
X037390Y023383D01*
X036890Y023383D01*
X036640Y023133D01*
X036390Y023383D01*
X035890Y023383D01*
X035640Y023133D01*
X035640Y022633D01*
X035890Y022383D01*
X036390Y022383D01*
X036640Y022633D01*
X036640Y023133D01*
X037640Y023133D02*
X037640Y022633D01*
X037390Y022383D01*
X036890Y022383D01*
X036640Y022633D01*
X037640Y022633D02*
X037890Y022383D01*
X038390Y022383D01*
X038640Y022633D01*
X039640Y022633D02*
X039890Y022383D01*
X040390Y022383D01*
X040640Y022633D01*
X040640Y023133D01*
X040640Y022633D02*
X040890Y022383D01*
X041390Y022383D01*
X041640Y022633D01*
X040233Y021017D02*
X040233Y020763D01*
X040106Y020763D02*
X040106Y020953D01*
X040106Y021017D01*
X039980Y020953D02*
X040360Y020953D01*
X040360Y020827D02*
X039980Y020827D01*
X039360Y020827D02*
X038980Y020827D01*
X038980Y020953D02*
X039360Y020953D01*
X039233Y021017D02*
X039233Y020763D01*
X039106Y020763D02*
X039106Y020953D01*
X039106Y021017D01*
X027660Y021847D02*
X027604Y021790D01*
X027490Y021790D01*
X027433Y021847D01*
X027433Y022017D01*
X027320Y022017D02*
X027660Y022017D01*
X027660Y021847D01*
X027433Y021903D02*
X027320Y021790D01*
X027320Y022158D02*
X027660Y022158D01*
X027660Y022385D02*
X027320Y022385D01*
X027433Y022272D01*
X027320Y022158D01*
X027490Y022526D02*
X027433Y022583D01*
X027433Y022753D01*
X027320Y022753D02*
X027660Y022753D01*
X027660Y022583D01*
X027604Y022526D01*
X027490Y022526D01*
X048041Y017529D02*
X049839Y017529D01*
X049240Y015387D02*
X049242Y015413D01*
X049248Y015439D01*
X049257Y015463D01*
X049270Y015486D01*
X049286Y015507D01*
X049305Y015525D01*
X049326Y015541D01*
X049350Y015553D01*
X049374Y015561D01*
X049400Y015566D01*
X049427Y015567D01*
X049453Y015564D01*
X049478Y015557D01*
X049502Y015547D01*
X049525Y015533D01*
X049545Y015517D01*
X049562Y015497D01*
X049577Y015475D01*
X049588Y015451D01*
X049596Y015426D01*
X049600Y015400D01*
X049600Y015374D01*
X049596Y015348D01*
X049588Y015323D01*
X049577Y015299D01*
X049562Y015277D01*
X049545Y015257D01*
X049525Y015241D01*
X049502Y015227D01*
X049478Y015217D01*
X049453Y015210D01*
X049427Y015207D01*
X049400Y015208D01*
X049374Y015213D01*
X049350Y015221D01*
X049326Y015233D01*
X049305Y015249D01*
X049286Y015267D01*
X049270Y015288D01*
X049257Y015311D01*
X049248Y015335D01*
X049242Y015361D01*
X049240Y015387D01*
X049839Y015037D02*
X048041Y015037D01*
X048041Y011429D02*
X049839Y011429D01*
X049240Y009287D02*
X049242Y009313D01*
X049248Y009339D01*
X049257Y009363D01*
X049270Y009386D01*
X049286Y009407D01*
X049305Y009425D01*
X049326Y009441D01*
X049350Y009453D01*
X049374Y009461D01*
X049400Y009466D01*
X049427Y009467D01*
X049453Y009464D01*
X049478Y009457D01*
X049502Y009447D01*
X049525Y009433D01*
X049545Y009417D01*
X049562Y009397D01*
X049577Y009375D01*
X049588Y009351D01*
X049596Y009326D01*
X049600Y009300D01*
X049600Y009274D01*
X049596Y009248D01*
X049588Y009223D01*
X049577Y009199D01*
X049562Y009177D01*
X049545Y009157D01*
X049525Y009141D01*
X049502Y009127D01*
X049478Y009117D01*
X049453Y009110D01*
X049427Y009107D01*
X049400Y009108D01*
X049374Y009113D01*
X049350Y009121D01*
X049326Y009133D01*
X049305Y009149D01*
X049286Y009167D01*
X049270Y009188D01*
X049257Y009211D01*
X049248Y009235D01*
X049242Y009261D01*
X049240Y009287D01*
X049839Y008937D02*
X048041Y008937D01*
X032510Y008985D02*
X032283Y008985D01*
X032170Y008872D01*
X032283Y008758D01*
X032510Y008758D01*
X032340Y008617D02*
X032340Y008390D01*
X032397Y008248D02*
X032510Y008135D01*
X032170Y008135D01*
X032170Y008248D02*
X032170Y008022D01*
X032227Y007880D02*
X032170Y007823D01*
X032170Y007710D01*
X032227Y007653D01*
X032340Y007653D01*
X032397Y007710D01*
X032397Y007767D01*
X032340Y007880D01*
X032510Y007880D01*
X032510Y007653D01*
X032510Y007512D02*
X032283Y007512D01*
X032170Y007398D01*
X032283Y007285D01*
X032510Y007285D01*
X032510Y006775D02*
X032510Y006605D01*
X032454Y006548D01*
X032227Y006548D01*
X032170Y006605D01*
X032170Y006775D01*
X032510Y006775D01*
X032454Y006407D02*
X032227Y006407D01*
X032170Y006350D01*
X032170Y006237D01*
X032227Y006180D01*
X032454Y006180D02*
X032510Y006237D01*
X032510Y006350D01*
X032454Y006407D01*
X039240Y004133D02*
X039490Y004383D01*
X039990Y004383D01*
X040240Y004133D01*
X040490Y004383D01*
X040990Y004383D01*
X041240Y004133D01*
X041240Y003633D01*
X040990Y003383D01*
X040490Y003383D01*
X040240Y003633D01*
X039990Y003383D01*
X039490Y003383D01*
X039240Y003633D01*
X039240Y004133D01*
X040240Y004133D02*
X040240Y003633D01*
X041240Y003633D02*
X041490Y003383D01*
X041990Y003383D01*
X042240Y003633D01*
X042490Y003383D01*
X042990Y003383D01*
X043240Y003633D01*
X043490Y003383D01*
X043990Y003383D01*
X044240Y003633D01*
X044490Y003383D01*
X044990Y003383D01*
X045240Y003633D01*
X045240Y004133D01*
X044990Y004383D01*
X044490Y004383D01*
X044240Y004133D01*
X044240Y003633D01*
X043240Y003633D02*
X043240Y004133D01*
X043490Y004383D01*
X043990Y004383D01*
X044240Y004133D01*
X043240Y004133D02*
X042990Y004383D01*
X042490Y004383D01*
X042240Y004133D01*
X042240Y003633D01*
X042240Y004133D02*
X041990Y004383D01*
X041490Y004383D01*
X041240Y004133D01*
X046240Y004133D02*
X046240Y003633D01*
X046490Y003383D01*
X046990Y003383D01*
X047240Y003633D01*
X047490Y003383D01*
X047990Y003383D01*
X048240Y003633D01*
X048240Y004133D01*
X047990Y004383D01*
X047490Y004383D01*
X047240Y004133D01*
X047240Y003633D01*
X048240Y003633D02*
X048490Y003383D01*
X048990Y003383D01*
X049240Y003633D01*
X049490Y003383D01*
X049990Y003383D01*
X050240Y003633D01*
X050490Y003383D01*
X050990Y003383D01*
X051240Y003633D01*
X051490Y003383D01*
X051990Y003383D01*
X052240Y003633D01*
X052240Y004133D01*
X051990Y004383D01*
X051490Y004383D01*
X051240Y004133D01*
X051240Y003633D01*
X050240Y003633D02*
X050240Y004133D01*
X050490Y004383D01*
X050990Y004383D01*
X051240Y004133D01*
X050240Y004133D02*
X049990Y004383D01*
X049490Y004383D01*
X049240Y004133D01*
X049240Y003633D01*
X049240Y004133D02*
X048990Y004383D01*
X048490Y004383D01*
X048240Y004133D01*
X047240Y004133D02*
X046990Y004383D01*
X046490Y004383D01*
X046240Y004133D01*
X032510Y009126D02*
X032454Y009126D01*
X032227Y009353D01*
X032170Y009353D01*
X032510Y009353D02*
X032510Y009126D01*
D14*
X027060Y005816D02*
X027060Y005804D01*
X027060Y005816D02*
X029305Y005816D01*
X027060Y005816D02*
X027060Y009556D01*
X031234Y009556D01*
X031234Y009044D01*
X032969Y008339D02*
X033146Y008339D01*
X032969Y008339D02*
X032969Y006528D01*
X033146Y006528D01*
X033146Y007040D02*
X033934Y007040D01*
X033934Y006528D02*
X034111Y006528D01*
X034111Y008339D01*
X033934Y008339D01*
X031234Y007194D02*
X031234Y005816D01*
X030919Y005816D01*
X030871Y005064D02*
X030871Y004994D01*
X030871Y004854D02*
X030871Y004573D01*
X030801Y004573D02*
X030941Y004573D01*
X031108Y004573D02*
X031108Y004854D01*
X031318Y004854D01*
X031388Y004784D01*
X031388Y004573D01*
X030871Y004854D02*
X030801Y004854D01*
X030621Y004713D02*
X030621Y004994D01*
X030621Y004713D02*
X030481Y004573D01*
X030340Y004713D01*
X030340Y004994D01*
X030160Y004784D02*
X029880Y004784D01*
X030020Y004924D02*
X030020Y004643D01*
X030100Y003994D02*
X030030Y003924D01*
X030030Y003643D01*
X030100Y003573D01*
X030240Y003573D01*
X030310Y003643D01*
X030310Y003784D01*
X030170Y003784D01*
X030310Y003924D02*
X030240Y003994D01*
X030100Y003994D01*
X030490Y003994D02*
X030771Y003573D01*
X030771Y003994D01*
X030951Y003994D02*
X031161Y003994D01*
X031231Y003924D01*
X031231Y003643D01*
X031161Y003573D01*
X030951Y003573D01*
X030951Y003994D01*
X030490Y003994D02*
X030490Y003573D01*
X055140Y006883D02*
X055140Y018883D01*
X056140Y018883D01*
X056140Y006883D01*
X055140Y006883D01*
X062140Y006883D02*
X062140Y018883D01*
X063140Y018883D01*
X063140Y006883D01*
X062140Y006883D01*
X059194Y012127D02*
X059037Y012127D01*
X059037Y012639D01*
X058486Y012639D01*
X059037Y012639D02*
X059194Y012639D01*
X059037Y012127D02*
X058486Y012127D01*
X058486Y017127D02*
X059037Y017127D01*
X059037Y017639D01*
X058486Y017639D01*
X058486Y018127D02*
X059037Y018127D01*
X059037Y018639D01*
X058486Y018639D01*
X059037Y018639D02*
X059194Y018639D01*
X059194Y018127D02*
X059037Y018127D01*
X059037Y017639D02*
X059194Y017639D01*
X059194Y017127D02*
X059037Y017127D01*
X032090Y014773D02*
X032090Y012193D01*
X029730Y012193D01*
X029730Y014773D02*
X032090Y014773D01*
X028834Y021338D02*
X028046Y021338D01*
X028046Y021890D01*
X028164Y022165D02*
X028440Y022165D01*
X028204Y022401D01*
X028676Y022401D01*
X028440Y022165D01*
X028716Y022165D01*
X028834Y021890D02*
X028834Y021338D01*
X028834Y022677D02*
X028834Y023228D01*
X028046Y023228D01*
X028046Y022677D01*
D15*
X032280Y013483D03*
D16*
X032250Y017904D02*
X032014Y017904D01*
X032250Y017904D02*
X032920Y018573D01*
X032920Y020463D01*
X032014Y020463D01*
X031266Y020463D02*
X030360Y020463D01*
X030360Y018573D01*
X031030Y017904D01*
X031266Y017904D01*
X029720Y018573D02*
X029050Y017904D01*
X028814Y017904D01*
X028066Y017904D02*
X027830Y017904D01*
X027160Y018573D01*
X027160Y020463D01*
X028066Y020463D01*
X028814Y020463D02*
X029720Y020463D01*
X029720Y018573D01*
X028066Y018022D02*
X028002Y018044D01*
X027939Y018071D01*
X027877Y018101D01*
X027818Y018134D01*
X027760Y018170D01*
X027704Y018210D01*
X027651Y018253D01*
X027600Y018298D01*
X027552Y018346D01*
X027507Y018397D01*
X027464Y018451D01*
X027425Y018507D01*
X027388Y018564D01*
X027355Y018624D01*
X027326Y018686D01*
X027300Y018749D01*
X027277Y018813D01*
X027258Y018879D01*
X027243Y018946D01*
X027232Y019013D01*
X027224Y019081D01*
X027220Y019149D01*
X027220Y019217D01*
X027224Y019285D01*
X027232Y019353D01*
X027243Y019420D01*
X027258Y019487D01*
X027277Y019553D01*
X027300Y019617D01*
X027326Y019680D01*
X027355Y019742D01*
X027388Y019802D01*
X027425Y019859D01*
X027464Y019915D01*
X027507Y019969D01*
X027552Y020020D01*
X027600Y020068D01*
X027651Y020113D01*
X027704Y020156D01*
X027760Y020196D01*
X027818Y020232D01*
X027877Y020265D01*
X027939Y020295D01*
X028002Y020322D01*
X028066Y020344D01*
X028814Y020344D02*
X028878Y020322D01*
X028941Y020295D01*
X029003Y020265D01*
X029062Y020232D01*
X029120Y020196D01*
X029176Y020156D01*
X029229Y020113D01*
X029280Y020068D01*
X029328Y020020D01*
X029373Y019969D01*
X029416Y019915D01*
X029455Y019859D01*
X029492Y019802D01*
X029525Y019742D01*
X029554Y019680D01*
X029580Y019617D01*
X029603Y019553D01*
X029622Y019487D01*
X029637Y019420D01*
X029648Y019353D01*
X029656Y019285D01*
X029660Y019217D01*
X029660Y019149D01*
X029656Y019081D01*
X029648Y019013D01*
X029637Y018946D01*
X029622Y018879D01*
X029603Y018813D01*
X029580Y018749D01*
X029554Y018686D01*
X029525Y018624D01*
X029492Y018564D01*
X029455Y018507D01*
X029416Y018451D01*
X029373Y018397D01*
X029328Y018346D01*
X029280Y018298D01*
X029229Y018253D01*
X029176Y018210D01*
X029120Y018170D01*
X029062Y018134D01*
X029003Y018101D01*
X028941Y018071D01*
X028878Y018044D01*
X028814Y018022D01*
X032014Y018022D02*
X032078Y018044D01*
X032141Y018071D01*
X032203Y018101D01*
X032262Y018134D01*
X032320Y018170D01*
X032376Y018210D01*
X032429Y018253D01*
X032480Y018298D01*
X032528Y018346D01*
X032573Y018397D01*
X032616Y018451D01*
X032655Y018507D01*
X032692Y018564D01*
X032725Y018624D01*
X032754Y018686D01*
X032780Y018749D01*
X032803Y018813D01*
X032822Y018879D01*
X032837Y018946D01*
X032848Y019013D01*
X032856Y019081D01*
X032860Y019149D01*
X032860Y019217D01*
X032856Y019285D01*
X032848Y019353D01*
X032837Y019420D01*
X032822Y019487D01*
X032803Y019553D01*
X032780Y019617D01*
X032754Y019680D01*
X032725Y019742D01*
X032692Y019802D01*
X032655Y019859D01*
X032616Y019915D01*
X032573Y019969D01*
X032528Y020020D01*
X032480Y020068D01*
X032429Y020113D01*
X032376Y020156D01*
X032320Y020196D01*
X032262Y020232D01*
X032203Y020265D01*
X032141Y020295D01*
X032078Y020322D01*
X032014Y020344D01*
X031266Y020344D02*
X031202Y020322D01*
X031139Y020295D01*
X031077Y020265D01*
X031018Y020232D01*
X030960Y020196D01*
X030904Y020156D01*
X030851Y020113D01*
X030800Y020068D01*
X030752Y020020D01*
X030707Y019969D01*
X030664Y019915D01*
X030625Y019859D01*
X030588Y019802D01*
X030555Y019742D01*
X030526Y019680D01*
X030500Y019617D01*
X030477Y019553D01*
X030458Y019487D01*
X030443Y019420D01*
X030432Y019353D01*
X030424Y019285D01*
X030420Y019217D01*
X030420Y019149D01*
X030424Y019081D01*
X030432Y019013D01*
X030443Y018946D01*
X030458Y018879D01*
X030477Y018813D01*
X030500Y018749D01*
X030526Y018686D01*
X030555Y018624D01*
X030588Y018564D01*
X030625Y018507D01*
X030664Y018451D01*
X030707Y018397D01*
X030752Y018346D01*
X030800Y018298D01*
X030851Y018253D01*
X030904Y018210D01*
X030960Y018170D01*
X031018Y018134D01*
X031077Y018101D01*
X031139Y018071D01*
X031202Y018044D01*
X031266Y018022D01*
D17*
X030040Y022283D03*
D18*
X060340Y018383D03*
X060340Y017383D03*
X060340Y012383D03*
M02*
