G75*
G70*
%OFA0B0*%
%FSLAX24Y24*%
%IPPOS*%
%LPD*%
%AMOC8*
5,1,8,0,0,1.08239X$1,22.5*
%
%ADD10C,0.0120*%
%ADD11C,0.0060*%
%ADD12C,0.0080*%
%ADD13R,0.0300X0.0340*%
%ADD14C,0.0040*%
%ADD15R,0.0300X0.0180*%
D10*
X029800Y003550D02*
X032300Y003550D01*
X032300Y004550D01*
X035300Y004550D01*
X035300Y003550D01*
X037800Y003550D01*
X037800Y004550D01*
X035300Y003550D02*
X035300Y003050D01*
X032300Y003050D01*
X032300Y003550D01*
X029800Y003550D02*
X029800Y004550D01*
X029800Y016550D02*
X030800Y017550D01*
X036800Y017550D01*
X037800Y016550D01*
X010000Y019750D02*
X010002Y019770D01*
X010008Y019788D01*
X010017Y019806D01*
X010029Y019821D01*
X010044Y019833D01*
X010062Y019842D01*
X010080Y019848D01*
X010100Y019850D01*
X010120Y019848D01*
X010138Y019842D01*
X010156Y019833D01*
X010171Y019821D01*
X010183Y019806D01*
X010192Y019788D01*
X010198Y019770D01*
X010200Y019750D01*
X010198Y019730D01*
X010192Y019712D01*
X010183Y019694D01*
X010171Y019679D01*
X010156Y019667D01*
X010138Y019658D01*
X010120Y019652D01*
X010100Y019650D01*
X010080Y019652D01*
X010062Y019658D01*
X010044Y019667D01*
X010029Y019679D01*
X010017Y019694D01*
X010008Y019712D01*
X010002Y019730D01*
X010000Y019750D01*
D11*
X010550Y020050D02*
X010300Y020300D01*
X010300Y020800D01*
X010550Y021050D01*
X011050Y021050D01*
X011300Y020800D01*
X011550Y021050D01*
X012050Y021050D01*
X012300Y020800D01*
X012550Y021050D01*
X013050Y021050D01*
X013300Y020800D01*
X013550Y021050D01*
X014050Y021050D01*
X014300Y020800D01*
X014550Y021050D01*
X015050Y021050D01*
X015300Y020800D01*
X015550Y021050D01*
X016050Y021050D01*
X016300Y020800D01*
X016550Y021050D01*
X017050Y021050D01*
X017300Y020800D01*
X017550Y021050D01*
X018050Y021050D01*
X018300Y020800D01*
X018300Y020300D01*
X018050Y020050D01*
X017550Y020050D01*
X017300Y020300D01*
X017050Y020050D01*
X016550Y020050D01*
X016300Y020300D01*
X016300Y020800D01*
X017300Y020800D02*
X017300Y020300D01*
X016300Y020300D02*
X016050Y020050D01*
X015550Y020050D01*
X015300Y020300D01*
X015050Y020050D01*
X014550Y020050D01*
X014300Y020300D01*
X014050Y020050D01*
X013550Y020050D01*
X013300Y020300D01*
X013300Y020800D01*
X012300Y020800D02*
X012300Y020300D01*
X012050Y020050D01*
X011550Y020050D01*
X011300Y020300D01*
X011050Y020050D01*
X010550Y020050D01*
X011300Y020300D02*
X011300Y020800D01*
X012300Y020300D02*
X012550Y020050D01*
X013050Y020050D01*
X013300Y020300D01*
X014300Y020300D02*
X014300Y020800D01*
X015300Y020800D02*
X015300Y020300D01*
X018900Y020300D02*
X018900Y020800D01*
X019150Y021050D01*
X019650Y021050D01*
X019900Y020800D01*
X020150Y021050D01*
X020650Y021050D01*
X020900Y020800D01*
X021150Y021050D01*
X021650Y021050D01*
X021900Y020800D01*
X022150Y021050D01*
X022650Y021050D01*
X022900Y020800D01*
X023150Y021050D01*
X023650Y021050D01*
X023900Y020800D01*
X024150Y021050D01*
X024650Y021050D01*
X024900Y020800D01*
X025150Y021050D01*
X025650Y021050D01*
X025900Y020800D01*
X026150Y021050D01*
X026650Y021050D01*
X026900Y020800D01*
X026900Y020300D01*
X026650Y020050D01*
X026150Y020050D01*
X025900Y020300D01*
X025650Y020050D01*
X025150Y020050D01*
X024900Y020300D01*
X024900Y020800D01*
X025900Y020800D02*
X025900Y020300D01*
X024900Y020300D02*
X024650Y020050D01*
X024150Y020050D01*
X023900Y020300D01*
X023650Y020050D01*
X023150Y020050D01*
X022900Y020300D01*
X022650Y020050D01*
X022150Y020050D01*
X021900Y020300D01*
X021900Y020800D01*
X020900Y020800D02*
X020900Y020300D01*
X020650Y020050D01*
X020150Y020050D01*
X019900Y020300D01*
X019650Y020050D01*
X019150Y020050D01*
X018900Y020300D01*
X019900Y020300D02*
X019900Y020800D01*
X020900Y020300D02*
X021150Y020050D01*
X021650Y020050D01*
X021900Y020300D01*
X022900Y020300D02*
X022900Y020800D01*
X023900Y020800D02*
X023900Y020300D01*
X024499Y015196D02*
X022701Y015196D01*
X023900Y013054D02*
X023902Y013080D01*
X023908Y013106D01*
X023917Y013130D01*
X023930Y013153D01*
X023946Y013174D01*
X023965Y013192D01*
X023986Y013208D01*
X024010Y013220D01*
X024034Y013228D01*
X024060Y013233D01*
X024087Y013234D01*
X024113Y013231D01*
X024138Y013224D01*
X024162Y013214D01*
X024185Y013200D01*
X024205Y013184D01*
X024222Y013164D01*
X024237Y013142D01*
X024248Y013118D01*
X024256Y013093D01*
X024260Y013067D01*
X024260Y013041D01*
X024256Y013015D01*
X024248Y012990D01*
X024237Y012966D01*
X024222Y012944D01*
X024205Y012924D01*
X024185Y012908D01*
X024162Y012894D01*
X024138Y012884D01*
X024113Y012877D01*
X024087Y012874D01*
X024060Y012875D01*
X024034Y012880D01*
X024010Y012888D01*
X023986Y012900D01*
X023965Y012916D01*
X023946Y012934D01*
X023930Y012955D01*
X023917Y012978D01*
X023908Y013002D01*
X023902Y013028D01*
X023900Y013054D01*
X024499Y012704D02*
X022701Y012704D01*
X022701Y009096D02*
X024499Y009096D01*
X023900Y006954D02*
X023902Y006980D01*
X023908Y007006D01*
X023917Y007030D01*
X023930Y007053D01*
X023946Y007074D01*
X023965Y007092D01*
X023986Y007108D01*
X024010Y007120D01*
X024034Y007128D01*
X024060Y007133D01*
X024087Y007134D01*
X024113Y007131D01*
X024138Y007124D01*
X024162Y007114D01*
X024185Y007100D01*
X024205Y007084D01*
X024222Y007064D01*
X024237Y007042D01*
X024248Y007018D01*
X024256Y006993D01*
X024260Y006967D01*
X024260Y006941D01*
X024256Y006915D01*
X024248Y006890D01*
X024237Y006866D01*
X024222Y006844D01*
X024205Y006824D01*
X024185Y006808D01*
X024162Y006794D01*
X024138Y006784D01*
X024113Y006777D01*
X024087Y006774D01*
X024060Y006775D01*
X024034Y006780D01*
X024010Y006788D01*
X023986Y006800D01*
X023965Y006816D01*
X023946Y006834D01*
X023930Y006855D01*
X023917Y006878D01*
X023908Y006902D01*
X023902Y006928D01*
X023900Y006954D01*
X024499Y006604D02*
X022701Y006604D01*
X022650Y002050D02*
X022150Y002050D01*
X021900Y001800D01*
X021900Y001300D01*
X022150Y001050D01*
X022650Y001050D01*
X022900Y001300D01*
X022900Y001800D01*
X022650Y002050D01*
X022900Y001800D02*
X023150Y002050D01*
X023650Y002050D01*
X023900Y001800D01*
X024150Y002050D01*
X024650Y002050D01*
X024900Y001800D01*
X025150Y002050D01*
X025650Y002050D01*
X025900Y001800D01*
X026150Y002050D01*
X026650Y002050D01*
X026900Y001800D01*
X026900Y001300D01*
X026650Y001050D01*
X026150Y001050D01*
X025900Y001300D01*
X025650Y001050D01*
X025150Y001050D01*
X024900Y001300D01*
X024650Y001050D01*
X024150Y001050D01*
X023900Y001300D01*
X023650Y001050D01*
X023150Y001050D01*
X022900Y001300D01*
X023900Y001300D02*
X023900Y001800D01*
X024900Y001800D02*
X024900Y001300D01*
X025900Y001300D02*
X025900Y001800D01*
X021900Y001800D02*
X021650Y002050D01*
X021150Y002050D01*
X020900Y001800D01*
X020900Y001300D01*
X021150Y001050D01*
X021650Y001050D01*
X021900Y001300D01*
X019900Y001300D02*
X019650Y001050D01*
X019150Y001050D01*
X018900Y001300D01*
X018650Y001050D01*
X018150Y001050D01*
X017900Y001300D01*
X017650Y001050D01*
X017150Y001050D01*
X016900Y001300D01*
X016650Y001050D01*
X016150Y001050D01*
X015900Y001300D01*
X015650Y001050D01*
X015150Y001050D01*
X014900Y001300D01*
X014650Y001050D01*
X014150Y001050D01*
X013900Y001300D01*
X013900Y001800D01*
X014150Y002050D01*
X014650Y002050D01*
X014900Y001800D01*
X015150Y002050D01*
X015650Y002050D01*
X015900Y001800D01*
X015900Y001300D01*
X016900Y001300D02*
X016900Y001800D01*
X017150Y002050D01*
X017650Y002050D01*
X017900Y001800D01*
X018150Y002050D01*
X018650Y002050D01*
X018900Y001800D01*
X019150Y002050D01*
X019650Y002050D01*
X019900Y001800D01*
X019900Y001300D01*
X018900Y001300D02*
X018900Y001800D01*
X017900Y001800D02*
X017900Y001300D01*
X016900Y001800D02*
X016650Y002050D01*
X016150Y002050D01*
X015900Y001800D01*
X014900Y001800D02*
X014900Y001300D01*
D12*
X001720Y003477D02*
X001720Y003496D01*
X001720Y003477D02*
X001720Y006823D01*
X003063Y006823D01*
X003807Y006823D02*
X005500Y006823D01*
X007129Y005856D02*
X007306Y005856D01*
X007129Y005856D02*
X007129Y004044D01*
X007306Y004044D01*
X008094Y004044D02*
X008271Y004044D01*
X008271Y005856D01*
X008094Y005856D01*
X008094Y005344D02*
X007306Y005344D01*
X005894Y005248D02*
X005894Y003477D01*
X001720Y003477D01*
X004390Y009860D02*
X006750Y009860D01*
X006750Y012440D01*
X004390Y012440D01*
X002794Y019005D02*
X002006Y019005D01*
X002006Y019556D01*
X002124Y019832D02*
X002400Y019832D01*
X002164Y020068D01*
X002636Y020068D01*
X002400Y019832D01*
X002676Y019832D01*
X002794Y019556D02*
X002794Y019005D01*
X002794Y020344D02*
X002794Y020895D01*
X002006Y020895D01*
X002006Y020344D01*
X029800Y016300D02*
X029800Y015800D01*
X030050Y015550D01*
X029800Y015300D01*
X029800Y014800D01*
X030050Y014550D01*
X029800Y014300D01*
X029800Y013800D01*
X030050Y013550D01*
X029800Y013300D01*
X029800Y012800D01*
X030050Y012550D01*
X029800Y012300D01*
X029800Y011800D01*
X030050Y011550D01*
X029800Y011300D01*
X029800Y010800D01*
X030050Y010550D01*
X029800Y010300D01*
X029800Y009800D01*
X030050Y009550D01*
X029800Y009300D01*
X029800Y008800D01*
X030050Y008550D01*
X029800Y008300D01*
X029800Y007800D01*
X030050Y007550D01*
X029800Y007300D01*
X029800Y006800D01*
X030050Y006550D01*
X029800Y006300D01*
X029800Y005800D01*
X030050Y005550D01*
X029800Y005300D01*
X029800Y004800D01*
X030050Y004550D01*
X030550Y004550D01*
X030800Y004800D01*
X030800Y005300D01*
X030550Y005550D01*
X030800Y005800D01*
X030800Y006300D01*
X030550Y006550D01*
X030800Y006800D01*
X030800Y007300D01*
X030550Y007550D01*
X030800Y007800D01*
X030800Y008300D01*
X030550Y008550D01*
X030800Y008800D01*
X030800Y009300D01*
X030550Y009550D01*
X030800Y009800D01*
X030800Y010300D01*
X030550Y010550D01*
X030800Y010800D01*
X030800Y011300D01*
X030550Y011550D01*
X030800Y011800D01*
X030800Y012300D01*
X030550Y012550D01*
X030800Y012800D01*
X030800Y013300D01*
X030550Y013550D01*
X030800Y013800D01*
X030800Y014300D01*
X030550Y014550D01*
X030800Y014800D01*
X030800Y015300D01*
X030550Y015550D01*
X030800Y015800D01*
X030800Y016300D01*
X030550Y016550D01*
X030050Y016550D01*
X029800Y016300D01*
X036800Y016300D02*
X036800Y015800D01*
X037050Y015550D01*
X036800Y015300D01*
X036800Y014800D01*
X037050Y014550D01*
X036800Y014300D01*
X036800Y013800D01*
X037050Y013550D01*
X036800Y013300D01*
X036800Y012800D01*
X037050Y012550D01*
X036800Y012300D01*
X036800Y011800D01*
X037050Y011550D01*
X036800Y011300D01*
X036800Y010800D01*
X037050Y010550D01*
X036800Y010300D01*
X036800Y009800D01*
X037050Y009550D01*
X036800Y009300D01*
X036800Y008800D01*
X037050Y008550D01*
X036800Y008300D01*
X036800Y007800D01*
X037050Y007550D01*
X036800Y007300D01*
X036800Y006800D01*
X037050Y006550D01*
X036800Y006300D01*
X036800Y005800D01*
X037050Y005550D01*
X036800Y005300D01*
X036800Y004800D01*
X037050Y004550D01*
X037550Y004550D01*
X037800Y004800D01*
X037800Y005300D01*
X037550Y005550D01*
X037800Y005800D01*
X037800Y006300D01*
X037550Y006550D01*
X037800Y006800D01*
X037800Y007300D01*
X037550Y007550D01*
X037800Y007800D01*
X037800Y008300D01*
X037550Y008550D01*
X037800Y008800D01*
X037800Y009300D01*
X037550Y009550D01*
X037800Y009800D01*
X037800Y010300D01*
X037550Y010550D01*
X037800Y010800D01*
X037800Y011300D01*
X037550Y011550D01*
X037800Y011800D01*
X037800Y012300D01*
X037550Y012550D01*
X037800Y012800D01*
X037800Y013300D01*
X037550Y013550D01*
X037800Y013800D01*
X037800Y014300D01*
X037550Y014550D01*
X037800Y014800D01*
X037800Y015300D01*
X037550Y015550D01*
X037800Y015800D01*
X037800Y016300D01*
X037550Y016550D01*
X037050Y016550D01*
X036800Y016300D01*
D13*
X006940Y011150D03*
D14*
X006910Y015570D02*
X006674Y015570D01*
X006910Y015570D02*
X007580Y016240D01*
X007580Y018130D01*
X006674Y018130D01*
X005926Y018130D02*
X005020Y018130D01*
X005020Y016240D01*
X005690Y015570D01*
X005926Y015570D01*
X004380Y016240D02*
X003710Y015570D01*
X003474Y015570D01*
X002726Y015570D02*
X002490Y015570D01*
X001820Y016240D01*
X001820Y018130D01*
X002726Y018130D01*
X003474Y018130D02*
X004380Y018130D01*
X004380Y016240D01*
X002726Y015689D02*
X002662Y015711D01*
X002599Y015738D01*
X002537Y015768D01*
X002478Y015801D01*
X002420Y015837D01*
X002364Y015877D01*
X002311Y015920D01*
X002260Y015965D01*
X002212Y016013D01*
X002167Y016064D01*
X002124Y016118D01*
X002085Y016174D01*
X002048Y016231D01*
X002015Y016291D01*
X001986Y016353D01*
X001960Y016416D01*
X001937Y016480D01*
X001918Y016546D01*
X001903Y016613D01*
X001892Y016680D01*
X001884Y016748D01*
X001880Y016816D01*
X001880Y016884D01*
X001884Y016952D01*
X001892Y017020D01*
X001903Y017087D01*
X001918Y017154D01*
X001937Y017220D01*
X001960Y017284D01*
X001986Y017347D01*
X002015Y017409D01*
X002048Y017469D01*
X002085Y017526D01*
X002124Y017582D01*
X002167Y017636D01*
X002212Y017687D01*
X002260Y017735D01*
X002311Y017780D01*
X002364Y017823D01*
X002420Y017863D01*
X002478Y017899D01*
X002537Y017932D01*
X002599Y017962D01*
X002662Y017989D01*
X002726Y018011D01*
X003474Y018011D02*
X003538Y017989D01*
X003601Y017962D01*
X003663Y017932D01*
X003722Y017899D01*
X003780Y017863D01*
X003836Y017823D01*
X003889Y017780D01*
X003940Y017735D01*
X003988Y017687D01*
X004033Y017636D01*
X004076Y017582D01*
X004115Y017526D01*
X004152Y017469D01*
X004185Y017409D01*
X004214Y017347D01*
X004240Y017284D01*
X004263Y017220D01*
X004282Y017154D01*
X004297Y017087D01*
X004308Y017020D01*
X004316Y016952D01*
X004320Y016884D01*
X004320Y016816D01*
X004316Y016748D01*
X004308Y016680D01*
X004297Y016613D01*
X004282Y016546D01*
X004263Y016480D01*
X004240Y016416D01*
X004214Y016353D01*
X004185Y016291D01*
X004152Y016231D01*
X004115Y016174D01*
X004076Y016118D01*
X004033Y016064D01*
X003988Y016013D01*
X003940Y015965D01*
X003889Y015920D01*
X003836Y015877D01*
X003780Y015837D01*
X003722Y015801D01*
X003663Y015768D01*
X003601Y015738D01*
X003538Y015711D01*
X003474Y015689D01*
X006674Y015689D02*
X006738Y015711D01*
X006801Y015738D01*
X006863Y015768D01*
X006922Y015801D01*
X006980Y015837D01*
X007036Y015877D01*
X007089Y015920D01*
X007140Y015965D01*
X007188Y016013D01*
X007233Y016064D01*
X007276Y016118D01*
X007315Y016174D01*
X007352Y016231D01*
X007385Y016291D01*
X007414Y016353D01*
X007440Y016416D01*
X007463Y016480D01*
X007482Y016546D01*
X007497Y016613D01*
X007508Y016680D01*
X007516Y016748D01*
X007520Y016816D01*
X007520Y016884D01*
X007516Y016952D01*
X007508Y017020D01*
X007497Y017087D01*
X007482Y017154D01*
X007463Y017220D01*
X007440Y017284D01*
X007414Y017347D01*
X007385Y017409D01*
X007352Y017469D01*
X007315Y017526D01*
X007276Y017582D01*
X007233Y017636D01*
X007188Y017687D01*
X007140Y017735D01*
X007089Y017780D01*
X007036Y017823D01*
X006980Y017863D01*
X006922Y017899D01*
X006863Y017932D01*
X006801Y017962D01*
X006738Y017989D01*
X006674Y018011D01*
X005926Y018011D02*
X005862Y017989D01*
X005799Y017962D01*
X005737Y017932D01*
X005678Y017899D01*
X005620Y017863D01*
X005564Y017823D01*
X005511Y017780D01*
X005460Y017735D01*
X005412Y017687D01*
X005367Y017636D01*
X005324Y017582D01*
X005285Y017526D01*
X005248Y017469D01*
X005215Y017409D01*
X005186Y017347D01*
X005160Y017284D01*
X005137Y017220D01*
X005118Y017154D01*
X005103Y017087D01*
X005092Y017020D01*
X005084Y016952D01*
X005080Y016884D01*
X005080Y016816D01*
X005084Y016748D01*
X005092Y016680D01*
X005103Y016613D01*
X005118Y016546D01*
X005137Y016480D01*
X005160Y016416D01*
X005186Y016353D01*
X005215Y016291D01*
X005248Y016231D01*
X005285Y016174D01*
X005324Y016118D01*
X005367Y016064D01*
X005412Y016013D01*
X005460Y015965D01*
X005511Y015920D01*
X005564Y015877D01*
X005620Y015837D01*
X005678Y015801D01*
X005737Y015768D01*
X005799Y015738D01*
X005862Y015711D01*
X005926Y015689D01*
D15*
X004700Y019950D03*
M02*
