G75*
G70*
%OFA0B0*%
%FSLAX24Y24*%
%IPPOS*%
%LPD*%
%AMOC8*
5,1,8,0,0,1.08239X$1,22.5*
%
%ADD10C,0.0000*%
D10*
X001400Y000550D02*
X001400Y021550D01*
X026800Y021550D01*
X027400Y020950D01*
X027400Y019350D01*
X028400Y018350D01*
X037300Y018350D01*
X038300Y017350D01*
X038300Y002550D01*
X037300Y001550D01*
X028400Y001550D01*
X027400Y000550D01*
X001400Y000550D01*
X006270Y001550D02*
X006272Y001600D01*
X006278Y001650D01*
X006288Y001699D01*
X006302Y001747D01*
X006319Y001794D01*
X006340Y001839D01*
X006365Y001883D01*
X006393Y001924D01*
X006425Y001963D01*
X006459Y002000D01*
X006496Y002034D01*
X006536Y002064D01*
X006578Y002091D01*
X006622Y002115D01*
X006668Y002136D01*
X006715Y002152D01*
X006763Y002165D01*
X006813Y002174D01*
X006862Y002179D01*
X006913Y002180D01*
X006963Y002177D01*
X007012Y002170D01*
X007061Y002159D01*
X007109Y002144D01*
X007155Y002126D01*
X007200Y002104D01*
X007243Y002078D01*
X007284Y002049D01*
X007323Y002017D01*
X007359Y001982D01*
X007391Y001944D01*
X007421Y001904D01*
X007448Y001861D01*
X007471Y001817D01*
X007490Y001771D01*
X007506Y001723D01*
X007518Y001674D01*
X007526Y001625D01*
X007530Y001575D01*
X007530Y001525D01*
X007526Y001475D01*
X007518Y001426D01*
X007506Y001377D01*
X007490Y001329D01*
X007471Y001283D01*
X007448Y001239D01*
X007421Y001196D01*
X007391Y001156D01*
X007359Y001118D01*
X007323Y001083D01*
X007284Y001051D01*
X007243Y001022D01*
X007200Y000996D01*
X007155Y000974D01*
X007109Y000956D01*
X007061Y000941D01*
X007012Y000930D01*
X006963Y000923D01*
X006913Y000920D01*
X006862Y000921D01*
X006813Y000926D01*
X006763Y000935D01*
X006715Y000948D01*
X006668Y000964D01*
X006622Y000985D01*
X006578Y001009D01*
X006536Y001036D01*
X006496Y001066D01*
X006459Y001100D01*
X006425Y001137D01*
X006393Y001176D01*
X006365Y001217D01*
X006340Y001261D01*
X006319Y001306D01*
X006302Y001353D01*
X006288Y001401D01*
X006278Y001450D01*
X006272Y001500D01*
X006270Y001550D01*
X005185Y003969D02*
X004319Y003969D01*
X004122Y004166D02*
X004124Y004192D01*
X004129Y004217D01*
X004137Y004241D01*
X004148Y004265D01*
X004163Y004286D01*
X004180Y004305D01*
X004199Y004322D01*
X004221Y004337D01*
X004244Y004348D01*
X004268Y004356D01*
X004293Y004361D01*
X004319Y004363D01*
X005185Y004363D01*
X005211Y004361D01*
X005236Y004356D01*
X005260Y004348D01*
X005284Y004337D01*
X005305Y004322D01*
X005324Y004305D01*
X005341Y004286D01*
X005356Y004265D01*
X005367Y004241D01*
X005375Y004217D01*
X005380Y004192D01*
X005382Y004166D01*
X005380Y004140D01*
X005375Y004115D01*
X005367Y004091D01*
X005356Y004067D01*
X005341Y004046D01*
X005324Y004027D01*
X005305Y004010D01*
X005284Y003995D01*
X005260Y003984D01*
X005236Y003976D01*
X005211Y003971D01*
X005185Y003969D01*
X004319Y003969D02*
X004293Y003971D01*
X004268Y003976D01*
X004244Y003984D01*
X004221Y003995D01*
X004199Y004010D01*
X004180Y004027D01*
X004163Y004046D01*
X004148Y004068D01*
X004137Y004091D01*
X004129Y004115D01*
X004124Y004140D01*
X004122Y004166D01*
X005933Y005504D02*
X005933Y006764D01*
X005907Y006762D01*
X005882Y006757D01*
X005858Y006749D01*
X005835Y006738D01*
X005813Y006723D01*
X005794Y006706D01*
X005777Y006687D01*
X005762Y006666D01*
X005751Y006642D01*
X005743Y006618D01*
X005738Y006593D01*
X005736Y006567D01*
X005736Y005701D01*
X005738Y005675D01*
X005743Y005650D01*
X005751Y005626D01*
X005762Y005603D01*
X005777Y005581D01*
X005794Y005562D01*
X005813Y005545D01*
X005835Y005530D01*
X005858Y005519D01*
X005882Y005511D01*
X005907Y005506D01*
X005933Y005504D01*
X005959Y005506D01*
X005984Y005511D01*
X006008Y005519D01*
X006032Y005530D01*
X006053Y005545D01*
X006072Y005562D01*
X006089Y005581D01*
X006104Y005603D01*
X006115Y005626D01*
X006123Y005650D01*
X006128Y005675D01*
X006130Y005701D01*
X006130Y006567D01*
X006128Y006593D01*
X006123Y006618D01*
X006115Y006642D01*
X006104Y006666D01*
X006089Y006687D01*
X006072Y006706D01*
X006053Y006723D01*
X006032Y006738D01*
X006008Y006749D01*
X005984Y006757D01*
X005959Y006762D01*
X005933Y006764D01*
X003650Y006567D02*
X003650Y005701D01*
X003453Y005504D02*
X003427Y005506D01*
X003402Y005511D01*
X003378Y005519D01*
X003354Y005530D01*
X003333Y005545D01*
X003314Y005562D01*
X003297Y005581D01*
X003282Y005603D01*
X003271Y005626D01*
X003263Y005650D01*
X003258Y005675D01*
X003256Y005701D01*
X003256Y006567D01*
X003258Y006593D01*
X003263Y006618D01*
X003271Y006642D01*
X003282Y006666D01*
X003297Y006687D01*
X003314Y006706D01*
X003333Y006723D01*
X003355Y006738D01*
X003378Y006749D01*
X003402Y006757D01*
X003427Y006762D01*
X003453Y006764D01*
X003479Y006762D01*
X003504Y006757D01*
X003528Y006749D01*
X003552Y006738D01*
X003573Y006723D01*
X003592Y006706D01*
X003609Y006687D01*
X003624Y006666D01*
X003635Y006642D01*
X003643Y006618D01*
X003648Y006593D01*
X003650Y006567D01*
X003650Y005701D02*
X003648Y005675D01*
X003643Y005650D01*
X003635Y005626D01*
X003624Y005603D01*
X003609Y005581D01*
X003592Y005562D01*
X003573Y005545D01*
X003552Y005530D01*
X003528Y005519D01*
X003504Y005511D01*
X003479Y005506D01*
X003453Y005504D01*
X026770Y003550D02*
X026772Y003600D01*
X026778Y003650D01*
X026788Y003699D01*
X026802Y003747D01*
X026819Y003794D01*
X026840Y003839D01*
X026865Y003883D01*
X026893Y003924D01*
X026925Y003963D01*
X026959Y004000D01*
X026996Y004034D01*
X027036Y004064D01*
X027078Y004091D01*
X027122Y004115D01*
X027168Y004136D01*
X027215Y004152D01*
X027263Y004165D01*
X027313Y004174D01*
X027362Y004179D01*
X027413Y004180D01*
X027463Y004177D01*
X027512Y004170D01*
X027561Y004159D01*
X027609Y004144D01*
X027655Y004126D01*
X027700Y004104D01*
X027743Y004078D01*
X027784Y004049D01*
X027823Y004017D01*
X027859Y003982D01*
X027891Y003944D01*
X027921Y003904D01*
X027948Y003861D01*
X027971Y003817D01*
X027990Y003771D01*
X028006Y003723D01*
X028018Y003674D01*
X028026Y003625D01*
X028030Y003575D01*
X028030Y003525D01*
X028026Y003475D01*
X028018Y003426D01*
X028006Y003377D01*
X027990Y003329D01*
X027971Y003283D01*
X027948Y003239D01*
X027921Y003196D01*
X027891Y003156D01*
X027859Y003118D01*
X027823Y003083D01*
X027784Y003051D01*
X027743Y003022D01*
X027700Y002996D01*
X027655Y002974D01*
X027609Y002956D01*
X027561Y002941D01*
X027512Y002930D01*
X027463Y002923D01*
X027413Y002920D01*
X027362Y002921D01*
X027313Y002926D01*
X027263Y002935D01*
X027215Y002948D01*
X027168Y002964D01*
X027122Y002985D01*
X027078Y003009D01*
X027036Y003036D01*
X026996Y003066D01*
X026959Y003100D01*
X026925Y003137D01*
X026893Y003176D01*
X026865Y003217D01*
X026840Y003261D01*
X026819Y003306D01*
X026802Y003353D01*
X026788Y003401D01*
X026778Y003450D01*
X026772Y003500D01*
X026770Y003550D01*
X026770Y014550D02*
X026772Y014600D01*
X026778Y014650D01*
X026788Y014699D01*
X026802Y014747D01*
X026819Y014794D01*
X026840Y014839D01*
X026865Y014883D01*
X026893Y014924D01*
X026925Y014963D01*
X026959Y015000D01*
X026996Y015034D01*
X027036Y015064D01*
X027078Y015091D01*
X027122Y015115D01*
X027168Y015136D01*
X027215Y015152D01*
X027263Y015165D01*
X027313Y015174D01*
X027362Y015179D01*
X027413Y015180D01*
X027463Y015177D01*
X027512Y015170D01*
X027561Y015159D01*
X027609Y015144D01*
X027655Y015126D01*
X027700Y015104D01*
X027743Y015078D01*
X027784Y015049D01*
X027823Y015017D01*
X027859Y014982D01*
X027891Y014944D01*
X027921Y014904D01*
X027948Y014861D01*
X027971Y014817D01*
X027990Y014771D01*
X028006Y014723D01*
X028018Y014674D01*
X028026Y014625D01*
X028030Y014575D01*
X028030Y014525D01*
X028026Y014475D01*
X028018Y014426D01*
X028006Y014377D01*
X027990Y014329D01*
X027971Y014283D01*
X027948Y014239D01*
X027921Y014196D01*
X027891Y014156D01*
X027859Y014118D01*
X027823Y014083D01*
X027784Y014051D01*
X027743Y014022D01*
X027700Y013996D01*
X027655Y013974D01*
X027609Y013956D01*
X027561Y013941D01*
X027512Y013930D01*
X027463Y013923D01*
X027413Y013920D01*
X027362Y013921D01*
X027313Y013926D01*
X027263Y013935D01*
X027215Y013948D01*
X027168Y013964D01*
X027122Y013985D01*
X027078Y014009D01*
X027036Y014036D01*
X026996Y014066D01*
X026959Y014100D01*
X026925Y014137D01*
X026893Y014176D01*
X026865Y014217D01*
X026840Y014261D01*
X026819Y014306D01*
X026802Y014353D01*
X026788Y014401D01*
X026778Y014450D01*
X026772Y014500D01*
X026770Y014550D01*
X006770Y020550D02*
X006772Y020600D01*
X006778Y020650D01*
X006788Y020699D01*
X006802Y020747D01*
X006819Y020794D01*
X006840Y020839D01*
X006865Y020883D01*
X006893Y020924D01*
X006925Y020963D01*
X006959Y021000D01*
X006996Y021034D01*
X007036Y021064D01*
X007078Y021091D01*
X007122Y021115D01*
X007168Y021136D01*
X007215Y021152D01*
X007263Y021165D01*
X007313Y021174D01*
X007362Y021179D01*
X007413Y021180D01*
X007463Y021177D01*
X007512Y021170D01*
X007561Y021159D01*
X007609Y021144D01*
X007655Y021126D01*
X007700Y021104D01*
X007743Y021078D01*
X007784Y021049D01*
X007823Y021017D01*
X007859Y020982D01*
X007891Y020944D01*
X007921Y020904D01*
X007948Y020861D01*
X007971Y020817D01*
X007990Y020771D01*
X008006Y020723D01*
X008018Y020674D01*
X008026Y020625D01*
X008030Y020575D01*
X008030Y020525D01*
X008026Y020475D01*
X008018Y020426D01*
X008006Y020377D01*
X007990Y020329D01*
X007971Y020283D01*
X007948Y020239D01*
X007921Y020196D01*
X007891Y020156D01*
X007859Y020118D01*
X007823Y020083D01*
X007784Y020051D01*
X007743Y020022D01*
X007700Y019996D01*
X007655Y019974D01*
X007609Y019956D01*
X007561Y019941D01*
X007512Y019930D01*
X007463Y019923D01*
X007413Y019920D01*
X007362Y019921D01*
X007313Y019926D01*
X007263Y019935D01*
X007215Y019948D01*
X007168Y019964D01*
X007122Y019985D01*
X007078Y020009D01*
X007036Y020036D01*
X006996Y020066D01*
X006959Y020100D01*
X006925Y020137D01*
X006893Y020176D01*
X006865Y020217D01*
X006840Y020261D01*
X006819Y020306D01*
X006802Y020353D01*
X006788Y020401D01*
X006778Y020450D01*
X006772Y020500D01*
X006770Y020550D01*
M02*
