%
M48
M72
T01C0.0236
T02C0.0276
T03C0.0394
T04C0.0400
T05C0.0440
T06C0.1260
%
T01
X8400Y1550
X10400Y1550
X12400Y1550
X13700Y4350
X20400Y1550
X21050Y3900
X24200Y4650
X25400Y5650
X23400Y6050
X21900Y6050
X24950Y9600
X27900Y11950
X25900Y12250
X24100Y12250
X21300Y12250
X17400Y11250
X16400Y12550
X17400Y15550
X21900Y17550
X24400Y17550
X27400Y17550
X32400Y13550
X32400Y11550
X33900Y6150
X35400Y2550
X37400Y2550
X18600Y18850
X9200Y20550
X5900Y20550
X5400Y14050
X6400Y14050
X6400Y13050
X5400Y13050
X4400Y13050
X3400Y13050
X2400Y13050
X2400Y14050
X3400Y14050
X4400Y14050
X3400Y12050
X2400Y12050
X2400Y11050
X3400Y11050
X3400Y10050
X2400Y10050
X2400Y9050
X3400Y9050
X4400Y9050
X5400Y9050
X6400Y9050
X6400Y8050
X5400Y8050
X4400Y8050
X3400Y8050
X2400Y8050
T02
X19150Y8250
X20200Y7750
X21400Y7150
X21800Y9550
X23350Y9950
X26400Y10450
X27500Y8550
X27500Y6450
X33700Y5050
X24700Y16300
X28500Y16850
T03
X5933Y6134
X3453Y6134
X4752Y4166
T04
X14400Y1550
X15400Y1550
X16400Y1550
X17400Y1550
X18400Y1550
X19400Y1550
X21400Y1550
X22400Y1550
X23400Y1550
X24400Y1550
X25400Y1550
X26400Y1550
X29300Y5050
X30300Y5050
X30300Y6050
X29300Y6050
X29300Y7050
X30300Y7050
X30300Y8050
X29300Y8050
X29300Y9050
X30300Y9050
X30300Y10050
X29300Y10050
X29300Y11050
X30300Y11050
X30300Y12050
X29300Y12050
X29300Y13050
X30300Y13050
X30300Y14050
X29300Y14050
X29300Y15050
X30300Y15050
X30300Y16050
X29300Y16050
X36300Y16050
X37300Y16050
X37300Y15050
X36300Y15050
X36300Y14050
X37300Y14050
X37300Y13050
X36300Y13050
X36300Y12050
X37300Y12050
X37300Y11050
X36300Y11050
X36300Y10050
X37300Y10050
X37300Y9050
X36300Y9050
X36300Y8050
X37300Y8050
X37300Y7050
X36300Y7050
X36300Y6050
X37300Y6050
X37300Y5050
X36300Y5050
X26400Y20550
X25400Y20550
X24400Y20550
X23400Y20550
X22400Y20550
X21400Y20550
X20400Y20550
X19400Y20550
X17800Y20550
X16800Y20550
X15800Y20550
X14800Y20550
X13800Y20550
X12800Y20550
X11800Y20550
X10800Y20550
T05
X2600Y1450
X2600Y2450
T06
X6900Y1550
X27400Y3550
X27400Y14550
X7400Y20550
M30
