G75*
G70*
%OFA0B0*%
%FSLAX24Y24*%
%IPPOS*%
%LPD*%
%AMOC8*
5,1,8,0,0,1.08239X$1,22.5*
%
%ADD10C,0.1340*%
%ADD11C,0.0720*%
%ADD12C,0.0820*%
%ADD13C,0.0867*%
%ADD14C,0.0820*%
%ADD15C,0.0556*%
%ADD16C,0.0840*%
D10*
X006900Y001550D03*
X027400Y003550D03*
X027400Y014550D03*
X007400Y020550D03*
D11*
X010800Y020870D02*
X010800Y020230D01*
X011800Y020230D02*
X011800Y020870D01*
X012800Y020870D02*
X012800Y020230D01*
X013800Y020230D02*
X013800Y020870D01*
X014800Y020870D02*
X014800Y020230D01*
X015800Y020230D02*
X015800Y020870D01*
X016800Y020870D02*
X016800Y020230D01*
X017800Y020230D02*
X017800Y020870D01*
X019400Y020870D02*
X019400Y020230D01*
X020400Y020230D02*
X020400Y020870D01*
X021400Y020870D02*
X021400Y020230D01*
X022400Y020230D02*
X022400Y020870D01*
X023400Y020870D02*
X023400Y020230D01*
X024400Y020230D02*
X024400Y020870D01*
X025400Y020870D02*
X025400Y020230D01*
X026400Y020230D02*
X026400Y020870D01*
X026400Y001870D02*
X026400Y001230D01*
X025400Y001230D02*
X025400Y001870D01*
X024400Y001870D02*
X024400Y001230D01*
X023400Y001230D02*
X023400Y001870D01*
X022400Y001870D02*
X022400Y001230D01*
X021400Y001230D02*
X021400Y001870D01*
X019400Y001870D02*
X019400Y001230D01*
X018400Y001230D02*
X018400Y001870D01*
X017400Y001870D02*
X017400Y001230D01*
X016400Y001230D02*
X016400Y001870D01*
X015400Y001870D02*
X015400Y001230D01*
X014400Y001230D02*
X014400Y001870D01*
D12*
X029300Y005050D03*
X030300Y005050D03*
X030300Y006050D03*
X029300Y006050D03*
X029300Y007050D03*
X030300Y007050D03*
X030300Y008050D03*
X029300Y008050D03*
X029300Y009050D03*
X030300Y009050D03*
X030300Y010050D03*
X029300Y010050D03*
X029300Y011050D03*
X030300Y011050D03*
X030300Y012050D03*
X029300Y012050D03*
X029300Y013050D03*
X030300Y013050D03*
X030300Y014050D03*
X029300Y014050D03*
X029300Y015050D03*
X030300Y015050D03*
X030300Y016050D03*
X029300Y016050D03*
X036300Y016050D03*
X037300Y016050D03*
X037300Y015050D03*
X036300Y015050D03*
X036300Y014050D03*
X037300Y014050D03*
X037300Y013050D03*
X036300Y013050D03*
X036300Y012050D03*
X037300Y012050D03*
X037300Y011050D03*
X036300Y011050D03*
X036300Y010050D03*
X037300Y010050D03*
X037300Y009050D03*
X036300Y009050D03*
X036300Y008050D03*
X037300Y008050D03*
X037300Y007050D03*
X036300Y007050D03*
X036300Y006050D03*
X037300Y006050D03*
X037300Y005050D03*
X036300Y005050D03*
D13*
X005933Y005741D02*
X005933Y006528D01*
X003453Y006528D02*
X003453Y005741D01*
X004358Y004166D02*
X005146Y004166D01*
D14*
X002970Y001450D02*
X002230Y001450D01*
X002230Y002450D02*
X002970Y002450D01*
D15*
X019150Y008250D03*
X020200Y007750D03*
X021400Y007150D03*
X021800Y009550D03*
X023350Y009950D03*
X026400Y010450D03*
X027500Y008550D03*
X027500Y006450D03*
X024700Y016300D03*
X028500Y016850D03*
D16*
X033700Y005050D03*
M02*
