G75*
%MOIN*%
%OFA0B0*%
%FSLAX24Y24*%
%IPPOS*%
%LPD*%
%AMOC8*
5,1,8,0,0,1.08239X$1,22.5*
%
%ADD10C,0.0640*%
%ADD11C,0.0740*%
%ADD12R,0.2441X0.2126*%
%ADD13R,0.0630X0.0394*%
%ADD14R,0.0551X0.1181*%
%ADD15R,0.0390X0.0120*%
%ADD16R,0.0394X0.0433*%
%ADD17R,0.0579X0.0500*%
%ADD18R,0.0551X0.0472*%
%ADD19C,0.0740*%
%ADD20R,0.0248X0.0327*%
%ADD21R,0.0433X0.0394*%
%ADD22C,0.0787*%
%ADD23C,0.0120*%
%ADD24C,0.0357*%
%ADD25C,0.0760*%
%ADD26C,0.0160*%
%ADD27C,0.0436*%
%ADD28C,0.0500*%
%ADD29C,0.0760*%
%ADD30C,0.0660*%
D10*
X039740Y003563D02*
X039740Y004203D01*
X040740Y004203D02*
X040740Y003563D01*
X041740Y003563D02*
X041740Y004203D01*
X042740Y004203D02*
X042740Y003563D01*
X043740Y003563D02*
X043740Y004203D01*
X044740Y004203D02*
X044740Y003563D01*
X046740Y003563D02*
X046740Y004203D01*
X047740Y004203D02*
X047740Y003563D01*
X048740Y003563D02*
X048740Y004203D01*
X049740Y004203D02*
X049740Y003563D01*
X050740Y003563D02*
X050740Y004203D01*
X051740Y004203D02*
X051740Y003563D01*
X051740Y022563D02*
X051740Y023203D01*
X050740Y023203D02*
X050740Y022563D01*
X049740Y022563D02*
X049740Y023203D01*
X048740Y023203D02*
X048740Y022563D01*
X047740Y022563D02*
X047740Y023203D01*
X046740Y023203D02*
X046740Y022563D01*
X045740Y022563D02*
X045740Y023203D01*
X044740Y023203D02*
X044740Y022563D01*
X043140Y022563D02*
X043140Y023203D01*
X042140Y023203D02*
X042140Y022563D01*
X041140Y022563D02*
X041140Y023203D01*
X040140Y023203D02*
X040140Y022563D01*
X039140Y022563D02*
X039140Y023203D01*
X038140Y023203D02*
X038140Y022563D01*
X037140Y022563D02*
X037140Y023203D01*
X036140Y023203D02*
X036140Y022563D01*
D11*
X054640Y018383D03*
X055640Y018383D03*
X056640Y018383D03*
X056640Y017383D03*
X055640Y017383D03*
X054640Y017383D03*
X054640Y016383D03*
X055640Y016383D03*
X056640Y016383D03*
X056640Y015383D03*
X055640Y015383D03*
X054640Y015383D03*
X054640Y014383D03*
X055640Y014383D03*
X056640Y014383D03*
X056640Y013383D03*
X055640Y013383D03*
X054640Y013383D03*
X054640Y012383D03*
X055640Y012383D03*
X056640Y012383D03*
X056640Y011383D03*
X055640Y011383D03*
X054640Y011383D03*
X054640Y010383D03*
X055640Y010383D03*
X056640Y010383D03*
X056640Y009383D03*
X055640Y009383D03*
X054640Y009383D03*
X054640Y008383D03*
X055640Y008383D03*
X056640Y008383D03*
X056640Y007383D03*
X055640Y007383D03*
X054640Y007383D03*
X061640Y007383D03*
X062640Y007383D03*
X063640Y007383D03*
X063640Y008383D03*
X062640Y008383D03*
X061640Y008383D03*
X061640Y009383D03*
X062640Y009383D03*
X063640Y009383D03*
X063640Y010383D03*
X062640Y010383D03*
X061640Y010383D03*
X061640Y011383D03*
X062640Y011383D03*
X063640Y011383D03*
X063640Y012383D03*
X062640Y012383D03*
X061640Y012383D03*
X061640Y013383D03*
X062640Y013383D03*
X063640Y013383D03*
X063640Y014383D03*
X062640Y014383D03*
X061640Y014383D03*
X061640Y015383D03*
X062640Y015383D03*
X063640Y015383D03*
X063640Y016383D03*
X062640Y016383D03*
X061640Y016383D03*
X061640Y017383D03*
X062640Y017383D03*
X063640Y017383D03*
X063640Y018383D03*
X062640Y018383D03*
X061640Y018383D03*
D12*
X030256Y013483D03*
D13*
X033130Y012586D03*
X033130Y014381D03*
D14*
X031640Y018238D03*
X028440Y018238D03*
X028440Y020128D03*
X031640Y020128D03*
D15*
X047791Y017435D03*
X047791Y017179D03*
X047791Y016923D03*
X047791Y016667D03*
X047791Y016411D03*
X047791Y016155D03*
X047791Y015899D03*
X047791Y015644D03*
X047791Y015388D03*
X047791Y015132D03*
X050089Y015132D03*
X050089Y015388D03*
X050089Y015644D03*
X050089Y015899D03*
X050089Y016155D03*
X050089Y016411D03*
X050089Y016667D03*
X050089Y016923D03*
X050089Y017179D03*
X050089Y017435D03*
X050089Y011335D03*
X050089Y011079D03*
X050089Y010823D03*
X050089Y010567D03*
X050089Y010311D03*
X050089Y010055D03*
X050089Y009799D03*
X050089Y009544D03*
X050089Y009288D03*
X050089Y009032D03*
X047791Y009032D03*
X047791Y009288D03*
X047791Y009544D03*
X047791Y009799D03*
X047791Y010055D03*
X047791Y010311D03*
X047791Y010567D03*
X047791Y010823D03*
X047791Y011079D03*
X047791Y011335D03*
D16*
X047140Y009118D03*
X047140Y008449D03*
X050740Y008449D03*
X050740Y009118D03*
X050740Y014549D03*
X050740Y015218D03*
X047140Y015218D03*
X047140Y014549D03*
X030040Y021949D03*
X030040Y022618D03*
D17*
X033540Y008280D03*
X033540Y006587D03*
D18*
X028440Y021693D03*
X028440Y022874D03*
D19*
X028570Y004783D02*
X029310Y004783D01*
X029310Y003783D02*
X028570Y003783D01*
D20*
X058387Y012383D03*
X059293Y012383D03*
X059293Y017383D03*
X058387Y017383D03*
X058387Y018383D03*
X059293Y018383D03*
D21*
X060005Y018383D03*
X060675Y018383D03*
X060675Y017383D03*
X060005Y017383D03*
X060005Y012383D03*
X060675Y012383D03*
D22*
X031273Y008461D02*
X031273Y007674D01*
X028793Y007674D02*
X028793Y008461D01*
X029698Y006099D02*
X030486Y006099D01*
D23*
X026900Y003950D02*
X026900Y009583D01*
X032523Y009583D01*
X032640Y009700D01*
X032640Y017266D01*
X032523Y017383D01*
X028830Y017383D01*
X028830Y017564D01*
X028856Y017590D01*
X028856Y018343D01*
X030260Y019747D01*
X030260Y021592D01*
X030295Y021592D01*
X030377Y021674D01*
X030377Y022223D01*
X030317Y022283D01*
X030377Y022343D01*
X030377Y022893D01*
X030295Y022975D01*
X029995Y022975D01*
X029875Y023094D01*
X028856Y023094D01*
X028856Y023168D01*
X028774Y023250D01*
X028106Y023250D01*
X028024Y023168D01*
X028024Y022580D01*
X028106Y022498D01*
X028774Y022498D01*
X028856Y022580D01*
X028856Y022654D01*
X029693Y022654D01*
X029703Y022644D01*
X029703Y022343D01*
X029763Y022283D01*
X029703Y022223D01*
X029703Y021674D01*
X029785Y021592D01*
X029820Y021592D01*
X029820Y019930D01*
X028817Y018926D01*
X028774Y018969D01*
X028106Y018969D01*
X028024Y018887D01*
X028024Y017590D01*
X028050Y017564D01*
X028050Y017383D01*
X026900Y017383D01*
X026900Y022817D01*
X027806Y023723D01*
X052074Y023723D01*
X052580Y023217D01*
X052580Y021617D01*
X052674Y021523D01*
X053580Y020617D01*
X053674Y020523D01*
X055189Y020523D01*
X055205Y019383D01*
X054091Y019383D01*
X054021Y019454D01*
X053903Y019502D01*
X053777Y019502D01*
X053659Y019454D01*
X053570Y019364D01*
X053521Y019247D01*
X053521Y019120D01*
X053570Y019003D01*
X053659Y018913D01*
X053777Y018865D01*
X053903Y018865D01*
X054021Y018913D01*
X054091Y018983D01*
X055210Y018983D01*
X055215Y018679D01*
X055208Y018672D01*
X055140Y018509D01*
X055072Y018672D01*
X054929Y018816D01*
X054741Y018893D01*
X054539Y018893D01*
X054351Y018816D01*
X054208Y018672D01*
X054171Y018583D01*
X051257Y018583D01*
X051140Y018466D01*
X050657Y017983D01*
X050540Y017866D01*
X050540Y017266D01*
X050424Y017150D01*
X050424Y017297D01*
X050414Y017307D01*
X050424Y017317D01*
X050424Y017553D01*
X050342Y017635D01*
X049836Y017635D01*
X049834Y017633D01*
X049657Y017633D01*
X049640Y017616D01*
X049640Y018100D01*
X049890Y018350D01*
X049977Y018315D01*
X050103Y018315D01*
X050221Y018363D01*
X050310Y018453D01*
X050359Y018570D01*
X050359Y018697D01*
X050310Y018814D01*
X050221Y018904D01*
X050103Y018952D01*
X049977Y018952D01*
X049859Y018904D01*
X049770Y018814D01*
X049757Y018783D01*
X049690Y018716D01*
X049290Y018316D01*
X049290Y021250D01*
X049940Y021900D01*
X049940Y022148D01*
X050001Y022173D01*
X050130Y022303D01*
X050200Y022472D01*
X050200Y023295D01*
X050130Y023464D01*
X050001Y023593D01*
X049831Y023663D01*
X049648Y023663D01*
X049479Y023593D01*
X049350Y023464D01*
X049280Y023295D01*
X049280Y022472D01*
X049350Y022303D01*
X049479Y022173D01*
X049540Y022148D01*
X049540Y022066D01*
X049007Y021533D01*
X048940Y021466D01*
X048940Y022148D01*
X049001Y022173D01*
X049130Y022303D01*
X049200Y022472D01*
X049200Y023295D01*
X049130Y023464D01*
X049001Y023593D01*
X048831Y023663D01*
X048648Y023663D01*
X048479Y023593D01*
X048350Y023464D01*
X048280Y023295D01*
X048280Y022472D01*
X048350Y022303D01*
X048479Y022173D01*
X048540Y022148D01*
X048540Y017466D01*
X048197Y017123D01*
X048126Y017123D01*
X048126Y017297D01*
X048135Y017313D01*
X048146Y017354D01*
X048146Y017435D01*
X048146Y017516D01*
X048135Y017557D01*
X048114Y017593D01*
X048085Y017623D01*
X048048Y017644D01*
X048007Y017655D01*
X047791Y017655D01*
X047575Y017655D01*
X047535Y017644D01*
X047498Y017623D01*
X047468Y017593D01*
X047447Y017557D01*
X047436Y017516D01*
X047436Y017435D01*
X047791Y017435D01*
X047791Y017435D01*
X047436Y017435D01*
X047436Y017354D01*
X047447Y017313D01*
X047456Y017297D01*
X047456Y017061D01*
X047466Y017051D01*
X047456Y017041D01*
X047456Y016867D01*
X047289Y016867D01*
X046940Y017216D01*
X046940Y022148D01*
X047001Y022173D01*
X047130Y022303D01*
X047200Y022472D01*
X047200Y023295D01*
X047130Y023464D01*
X047001Y023593D01*
X046831Y023663D01*
X046648Y023663D01*
X046479Y023593D01*
X046350Y023464D01*
X046280Y023295D01*
X046280Y022472D01*
X046350Y022303D01*
X046479Y022173D01*
X046540Y022148D01*
X046540Y017050D01*
X047006Y016584D01*
X047123Y016467D01*
X047456Y016467D01*
X047456Y016293D01*
X047466Y016283D01*
X047456Y016273D01*
X047456Y016099D01*
X047307Y016099D01*
X044940Y018466D01*
X044940Y022148D01*
X045001Y022173D01*
X045130Y022303D01*
X045200Y022472D01*
X045200Y023295D01*
X045130Y023464D01*
X045001Y023593D01*
X044831Y023663D01*
X044648Y023663D01*
X044479Y023593D01*
X044350Y023464D01*
X044280Y023295D01*
X044280Y022472D01*
X044350Y022303D01*
X044479Y022173D01*
X044540Y022148D01*
X044540Y018366D01*
X043340Y019566D01*
X043340Y022148D01*
X043401Y022173D01*
X043530Y022303D01*
X043600Y022472D01*
X043600Y023295D01*
X043530Y023464D01*
X043401Y023593D01*
X043231Y023663D01*
X043048Y023663D01*
X042879Y023593D01*
X042750Y023464D01*
X042680Y023295D01*
X042680Y022472D01*
X042750Y022303D01*
X042879Y022173D01*
X042940Y022148D01*
X042940Y019400D01*
X046826Y015515D01*
X046803Y015493D01*
X046803Y014943D01*
X046850Y014896D01*
X046845Y014893D01*
X046815Y014863D01*
X046794Y014827D01*
X046783Y014786D01*
X046783Y014587D01*
X047102Y014587D01*
X047102Y014510D01*
X047178Y014510D01*
X047178Y014172D01*
X047358Y014172D01*
X047399Y014183D01*
X047435Y014204D01*
X047465Y014234D01*
X047486Y014270D01*
X047497Y014311D01*
X047497Y014510D01*
X047178Y014510D01*
X047178Y014587D01*
X047497Y014587D01*
X047497Y014786D01*
X047486Y014827D01*
X047465Y014863D01*
X047435Y014893D01*
X047430Y014896D01*
X047477Y014943D01*
X047477Y014993D01*
X047538Y014932D01*
X047590Y014932D01*
X047590Y014316D01*
X047357Y014083D01*
X046123Y014083D01*
X042340Y017866D01*
X042340Y022148D01*
X042401Y022173D01*
X042530Y022303D01*
X042600Y022472D01*
X042600Y023295D01*
X042530Y023464D01*
X042401Y023593D01*
X042231Y023663D01*
X042048Y023663D01*
X041879Y023593D01*
X041750Y023464D01*
X041680Y023295D01*
X041680Y022472D01*
X041750Y022303D01*
X041879Y022173D01*
X041940Y022148D01*
X041940Y017700D01*
X042057Y017583D01*
X045840Y013800D01*
X045957Y013683D01*
X047523Y013683D01*
X047640Y013800D01*
X047640Y013800D01*
X047873Y014033D01*
X047990Y014150D01*
X047990Y014932D01*
X048044Y014932D01*
X048126Y015014D01*
X048126Y015183D01*
X048157Y015183D01*
X048240Y015100D01*
X048240Y013266D01*
X047176Y012202D01*
X047077Y012202D01*
X046959Y012154D01*
X046870Y012064D01*
X046821Y011947D01*
X046821Y011820D01*
X046870Y011703D01*
X046959Y011613D01*
X047077Y011565D01*
X047203Y011565D01*
X047321Y011613D01*
X047410Y011703D01*
X047459Y011820D01*
X047459Y011919D01*
X048523Y012983D01*
X048640Y013100D01*
X048640Y015266D01*
X048440Y015466D01*
X048323Y015583D01*
X048126Y015583D01*
X048126Y015762D01*
X048116Y015772D01*
X048126Y015781D01*
X048126Y015955D01*
X048879Y015955D01*
X048790Y015866D01*
X048790Y014200D01*
X049557Y013433D01*
X052307Y013433D01*
X053780Y011960D01*
X053780Y011533D01*
X050343Y011533D01*
X050342Y011535D01*
X049836Y011535D01*
X049754Y011453D01*
X049754Y011217D01*
X049764Y011207D01*
X049754Y011197D01*
X049754Y010961D01*
X049764Y010951D01*
X049754Y010941D01*
X049754Y010705D01*
X049764Y010695D01*
X049754Y010685D01*
X049754Y010449D01*
X049764Y010439D01*
X049754Y010429D01*
X049754Y010193D01*
X049764Y010183D01*
X049754Y010173D01*
X049754Y009937D01*
X049764Y009927D01*
X049754Y009917D01*
X049754Y009681D01*
X049764Y009672D01*
X049754Y009662D01*
X049754Y009602D01*
X049690Y009666D01*
X049690Y011600D01*
X049723Y011633D01*
X050181Y011633D01*
X050227Y011615D01*
X050353Y011615D01*
X050471Y011663D01*
X050560Y011753D01*
X050609Y011870D01*
X050609Y011997D01*
X050560Y012114D01*
X050491Y012183D01*
X051423Y012183D01*
X051704Y012465D01*
X051803Y012465D01*
X051921Y012513D01*
X052010Y012603D01*
X052059Y012720D01*
X052059Y012847D01*
X052010Y012964D01*
X051921Y013054D01*
X051803Y013102D01*
X051677Y013102D01*
X051559Y013054D01*
X051470Y012964D01*
X051421Y012847D01*
X051421Y012747D01*
X051257Y012583D01*
X049557Y012583D01*
X049440Y012466D01*
X048890Y011916D01*
X048890Y012033D01*
X048960Y012103D01*
X049009Y012220D01*
X049009Y012347D01*
X048960Y012464D01*
X048871Y012554D01*
X048753Y012602D01*
X048627Y012602D01*
X048509Y012554D01*
X048420Y012464D01*
X048371Y012347D01*
X048371Y012220D01*
X048420Y012103D01*
X048490Y012033D01*
X048490Y010216D01*
X048273Y009999D01*
X048126Y009999D01*
X048126Y010173D01*
X048116Y010183D01*
X048126Y010193D01*
X048126Y010429D01*
X048116Y010439D01*
X048126Y010449D01*
X048126Y010685D01*
X048116Y010695D01*
X048126Y010705D01*
X048126Y010941D01*
X048116Y010951D01*
X048126Y010961D01*
X048126Y011197D01*
X048135Y011213D01*
X048146Y011254D01*
X048146Y011335D01*
X048146Y011416D01*
X048135Y011457D01*
X048114Y011493D01*
X048085Y011523D01*
X048048Y011544D01*
X048007Y011555D01*
X047791Y011555D01*
X047575Y011555D01*
X047535Y011544D01*
X047498Y011523D01*
X047468Y011493D01*
X047447Y011457D01*
X047436Y011416D01*
X047436Y011335D01*
X047791Y011335D01*
X047791Y011335D01*
X047436Y011335D01*
X047436Y011254D01*
X047447Y011213D01*
X047456Y011197D01*
X047456Y011023D01*
X047083Y011023D01*
X041340Y016766D01*
X041340Y022148D01*
X041401Y022173D01*
X041530Y022303D01*
X041600Y022472D01*
X041600Y023295D01*
X041530Y023464D01*
X041401Y023593D01*
X041231Y023663D01*
X041048Y023663D01*
X040879Y023593D01*
X040750Y023464D01*
X040680Y023295D01*
X040680Y022472D01*
X040750Y022303D01*
X040879Y022173D01*
X040940Y022148D01*
X040940Y016600D01*
X046773Y010767D01*
X046539Y010767D01*
X045759Y011547D01*
X045759Y011647D01*
X045710Y011764D01*
X045621Y011854D01*
X045503Y011902D01*
X045377Y011902D01*
X045259Y011854D01*
X045170Y011764D01*
X045121Y011647D01*
X045121Y011520D01*
X045170Y011403D01*
X045259Y011313D01*
X045377Y011265D01*
X045476Y011265D01*
X045488Y011252D01*
X045427Y011252D01*
X045309Y011204D01*
X045220Y011114D01*
X045171Y010997D01*
X045171Y010870D01*
X045220Y010753D01*
X045309Y010663D01*
X045425Y010615D01*
X045785Y010255D01*
X045551Y010255D01*
X040340Y015466D01*
X040340Y022148D01*
X040401Y022173D01*
X040530Y022303D01*
X040600Y022472D01*
X040600Y023295D01*
X040530Y023464D01*
X040401Y023593D01*
X040231Y023663D01*
X040048Y023663D01*
X039879Y023593D01*
X039750Y023464D01*
X039680Y023295D01*
X039680Y022472D01*
X039750Y022303D01*
X039879Y022173D01*
X039940Y022148D01*
X039940Y015300D01*
X045385Y009855D01*
X047456Y009855D01*
X047456Y009681D01*
X047466Y009672D01*
X047456Y009662D01*
X047456Y009502D01*
X047453Y009503D01*
X047422Y009488D01*
X047387Y009488D01*
X047374Y009475D01*
X046885Y009475D01*
X046803Y009393D01*
X046803Y009318D01*
X046729Y009318D01*
X046710Y009364D01*
X046621Y009454D01*
X046503Y009502D01*
X046377Y009502D01*
X046259Y009454D01*
X046170Y009364D01*
X046121Y009247D01*
X046121Y009120D01*
X046170Y009003D01*
X046220Y008953D01*
X046220Y006508D01*
X046209Y006504D01*
X046120Y006414D01*
X046071Y006297D01*
X046071Y006170D01*
X046120Y006053D01*
X046209Y005963D01*
X046327Y005915D01*
X046453Y005915D01*
X046571Y005963D01*
X046660Y006053D01*
X046709Y006170D01*
X046709Y006297D01*
X046660Y006414D01*
X046660Y008918D01*
X046803Y008918D01*
X046803Y008843D01*
X046850Y008796D01*
X046845Y008793D01*
X046815Y008763D01*
X046794Y008727D01*
X046783Y008686D01*
X046783Y008487D01*
X047102Y008487D01*
X047102Y008410D01*
X047178Y008410D01*
X047178Y008072D01*
X047358Y008072D01*
X047399Y008083D01*
X047435Y008104D01*
X047465Y008134D01*
X047486Y008170D01*
X047497Y008211D01*
X047497Y008410D01*
X047178Y008410D01*
X047178Y008487D01*
X047497Y008487D01*
X047497Y008686D01*
X047486Y008727D01*
X047465Y008763D01*
X047435Y008793D01*
X047430Y008796D01*
X047477Y008843D01*
X047477Y008893D01*
X047538Y008832D01*
X048009Y008832D01*
X048421Y008419D01*
X048421Y008320D01*
X048470Y008203D01*
X048559Y008113D01*
X048677Y008065D01*
X048803Y008065D01*
X048921Y008113D01*
X049010Y008203D01*
X049059Y008320D01*
X049059Y008447D01*
X049010Y008564D01*
X048921Y008654D01*
X048803Y008702D01*
X048704Y008702D01*
X048174Y009232D01*
X048126Y009232D01*
X048126Y009344D01*
X048833Y009344D01*
X049073Y009583D01*
X049190Y009700D01*
X049190Y011650D01*
X049290Y011750D01*
X049290Y009500D01*
X049407Y009383D01*
X049482Y009308D01*
X049457Y009283D01*
X049340Y009166D01*
X049340Y007234D01*
X049270Y007164D01*
X049221Y007047D01*
X049221Y006920D01*
X049270Y006803D01*
X049359Y006713D01*
X049477Y006665D01*
X049603Y006665D01*
X049721Y006713D01*
X049810Y006803D01*
X049859Y006920D01*
X049859Y007047D01*
X049810Y007164D01*
X049740Y007234D01*
X049740Y009000D01*
X049754Y009014D01*
X049754Y008914D01*
X049836Y008832D01*
X049889Y008832D01*
X049889Y005352D01*
X050540Y004700D01*
X050598Y004642D01*
X050479Y004593D01*
X050350Y004464D01*
X050280Y004295D01*
X050280Y003472D01*
X050350Y003303D01*
X050479Y003173D01*
X050648Y003103D01*
X050831Y003103D01*
X051001Y003173D01*
X051130Y003303D01*
X051200Y003472D01*
X051200Y004295D01*
X051130Y004464D01*
X051011Y004583D01*
X051469Y004583D01*
X051350Y004464D01*
X051280Y004295D01*
X051280Y003472D01*
X051350Y003303D01*
X051479Y003173D01*
X051648Y003103D01*
X051831Y003103D01*
X052001Y003173D01*
X052130Y003303D01*
X052200Y003472D01*
X052200Y004295D01*
X052130Y004464D01*
X052011Y004583D01*
X052157Y004583D01*
X052540Y004200D01*
X052657Y004083D01*
X057423Y004083D01*
X059223Y005883D01*
X059340Y006000D01*
X059340Y007048D01*
X059445Y006942D01*
X059637Y006863D01*
X061743Y006863D01*
X061935Y006942D01*
X062081Y007089D01*
X062145Y007245D01*
X062208Y007094D01*
X062351Y006951D01*
X062539Y006873D01*
X062741Y006873D01*
X062929Y006951D01*
X063072Y007094D01*
X063140Y007258D01*
X063208Y007094D01*
X063351Y006951D01*
X063539Y006873D01*
X063741Y006873D01*
X063929Y006951D01*
X064072Y007094D01*
X064150Y007282D01*
X064150Y007485D01*
X064072Y007672D01*
X063929Y007816D01*
X063788Y007874D01*
X063843Y007892D01*
X063918Y007930D01*
X063985Y007979D01*
X064480Y007979D01*
X064480Y008097D02*
X064087Y008097D01*
X064093Y008106D02*
X064131Y008180D01*
X064157Y008259D01*
X064170Y008342D01*
X064170Y008343D01*
X063680Y008343D01*
X063680Y008423D01*
X064170Y008423D01*
X064170Y008425D01*
X064157Y008507D01*
X064131Y008587D01*
X064093Y008661D01*
X064044Y008729D01*
X063985Y008788D01*
X063918Y008837D01*
X063843Y008875D01*
X063788Y008893D01*
X063929Y008951D01*
X064072Y009094D01*
X064150Y009282D01*
X064150Y009485D01*
X064072Y009672D01*
X063929Y009816D01*
X063766Y009883D01*
X063929Y009951D01*
X064072Y010094D01*
X064150Y010282D01*
X064150Y010485D01*
X064072Y010672D01*
X063929Y010816D01*
X063766Y010883D01*
X063929Y010951D01*
X064072Y011094D01*
X064150Y011282D01*
X064150Y011485D01*
X064072Y011672D01*
X063929Y011816D01*
X063766Y011883D01*
X063929Y011951D01*
X064072Y012094D01*
X064150Y012282D01*
X064150Y012485D01*
X064072Y012672D01*
X063929Y012816D01*
X063766Y012883D01*
X063929Y012951D01*
X064072Y013094D01*
X064150Y013282D01*
X064150Y013485D01*
X064072Y013672D01*
X063929Y013816D01*
X063766Y013883D01*
X063929Y013951D01*
X064072Y014094D01*
X064150Y014282D01*
X064150Y014485D01*
X064072Y014672D01*
X063929Y014816D01*
X063766Y014883D01*
X063929Y014951D01*
X064072Y015094D01*
X064150Y015282D01*
X064150Y015485D01*
X064072Y015672D01*
X063929Y015816D01*
X063766Y015883D01*
X063929Y015951D01*
X064072Y016094D01*
X064150Y016282D01*
X064150Y016485D01*
X064072Y016672D01*
X063929Y016816D01*
X063766Y016883D01*
X063766Y016883D01*
X064480Y016883D01*
X064480Y004950D01*
X063574Y004043D01*
X053674Y004043D01*
X053580Y003950D01*
X052200Y003950D01*
X052200Y004068D02*
X063599Y004068D01*
X063717Y004187D02*
X057526Y004187D01*
X057645Y004305D02*
X063836Y004305D01*
X063954Y004424D02*
X057763Y004424D01*
X057882Y004542D02*
X064073Y004542D01*
X064191Y004661D02*
X058000Y004661D01*
X058119Y004779D02*
X064310Y004779D01*
X064428Y004898D02*
X058237Y004898D01*
X058356Y005016D02*
X064480Y005016D01*
X064480Y005135D02*
X058474Y005135D01*
X058593Y005253D02*
X064480Y005253D01*
X064480Y005372D02*
X058711Y005372D01*
X058830Y005490D02*
X064480Y005490D01*
X064480Y005609D02*
X058948Y005609D01*
X059067Y005727D02*
X064480Y005727D01*
X064480Y005846D02*
X059185Y005846D01*
X059304Y005964D02*
X064480Y005964D01*
X064480Y006083D02*
X059340Y006083D01*
X059340Y006201D02*
X064480Y006201D01*
X064480Y006320D02*
X059340Y006320D01*
X059340Y006438D02*
X064480Y006438D01*
X064480Y006557D02*
X059340Y006557D01*
X059340Y006675D02*
X064480Y006675D01*
X064480Y006794D02*
X059340Y006794D01*
X059340Y006912D02*
X059518Y006912D01*
X059357Y007031D02*
X059340Y007031D01*
X058340Y007031D02*
X058140Y007031D01*
X058140Y007149D02*
X058340Y007149D01*
X058340Y007268D02*
X058140Y007268D01*
X058140Y007386D02*
X058340Y007386D01*
X058340Y007505D02*
X058140Y007505D01*
X058140Y007623D02*
X058340Y007623D01*
X058340Y007742D02*
X058140Y007742D01*
X058140Y007860D02*
X058340Y007860D01*
X058340Y007979D02*
X058140Y007979D01*
X058140Y008097D02*
X058340Y008097D01*
X058340Y008216D02*
X058140Y008216D01*
X058140Y008334D02*
X058340Y008334D01*
X058340Y008453D02*
X058140Y008453D01*
X058140Y008571D02*
X058340Y008571D01*
X058340Y008690D02*
X058140Y008690D01*
X058140Y008808D02*
X058340Y008808D01*
X058340Y008927D02*
X058140Y008927D01*
X058140Y009045D02*
X058340Y009045D01*
X058340Y009164D02*
X058140Y009164D01*
X058140Y009282D02*
X058340Y009282D01*
X058340Y009401D02*
X058140Y009401D01*
X058140Y009519D02*
X058340Y009519D01*
X058340Y009638D02*
X058140Y009638D01*
X058140Y009756D02*
X058340Y009756D01*
X058340Y009875D02*
X058140Y009875D01*
X058140Y009993D02*
X058367Y009993D01*
X058340Y009966D02*
X058340Y006366D01*
X057057Y005083D01*
X055123Y005083D01*
X054323Y005883D01*
X057423Y005883D01*
X058023Y006483D01*
X058140Y006600D01*
X058140Y012117D01*
X058165Y012092D01*
X058201Y012071D01*
X058242Y012060D01*
X058385Y012060D01*
X058385Y012381D01*
X058389Y012381D01*
X058389Y012060D01*
X058532Y012060D01*
X058573Y012071D01*
X058610Y012092D01*
X058639Y012122D01*
X058660Y012158D01*
X058671Y012199D01*
X058671Y012381D01*
X058389Y012381D01*
X058389Y012385D01*
X058671Y012385D01*
X058671Y012568D01*
X058660Y012608D01*
X058639Y012645D01*
X058610Y012675D01*
X058573Y012696D01*
X058532Y012707D01*
X058389Y012707D01*
X058389Y012385D01*
X058385Y012385D01*
X058385Y012707D01*
X058242Y012707D01*
X058201Y012696D01*
X058165Y012675D01*
X058140Y012650D01*
X058140Y013000D01*
X058323Y013183D01*
X061171Y013183D01*
X061204Y013103D01*
X060149Y013103D01*
X060020Y012974D01*
X059785Y012740D01*
X059785Y012720D01*
X059731Y012720D01*
X059649Y012638D01*
X059649Y012603D01*
X059557Y012603D01*
X059557Y012605D01*
X059475Y012687D01*
X059111Y012687D01*
X059029Y012605D01*
X059029Y012162D01*
X059111Y012080D01*
X059475Y012080D01*
X059557Y012162D01*
X059557Y012163D01*
X059649Y012163D01*
X059649Y012128D01*
X059731Y012046D01*
X060280Y012046D01*
X060340Y012107D01*
X060400Y012046D01*
X060475Y012046D01*
X060475Y011969D01*
X060470Y011964D01*
X060421Y011847D01*
X060421Y011720D01*
X060470Y011603D01*
X060489Y011583D01*
X059957Y011583D01*
X059840Y011466D01*
X058340Y009966D01*
X058486Y010112D02*
X058140Y010112D01*
X058140Y010230D02*
X058604Y010230D01*
X058723Y010349D02*
X058140Y010349D01*
X058140Y010467D02*
X058841Y010467D01*
X058960Y010586D02*
X058140Y010586D01*
X058140Y010704D02*
X059078Y010704D01*
X059197Y010823D02*
X058140Y010823D01*
X058140Y010941D02*
X059315Y010941D01*
X059434Y011060D02*
X058140Y011060D01*
X058140Y011178D02*
X059552Y011178D01*
X059671Y011297D02*
X058140Y011297D01*
X058140Y011415D02*
X059789Y011415D01*
X059908Y011534D02*
X058140Y011534D01*
X058140Y011652D02*
X060449Y011652D01*
X060421Y011771D02*
X058140Y011771D01*
X058140Y011889D02*
X060439Y011889D01*
X060475Y012008D02*
X058140Y012008D01*
X058385Y012126D02*
X058389Y012126D01*
X058385Y012245D02*
X058389Y012245D01*
X058385Y012363D02*
X058389Y012363D01*
X058385Y012482D02*
X058389Y012482D01*
X058385Y012600D02*
X058389Y012600D01*
X058663Y012600D02*
X059029Y012600D01*
X059029Y012482D02*
X058671Y012482D01*
X058671Y012363D02*
X059029Y012363D01*
X059029Y012245D02*
X058671Y012245D01*
X058642Y012126D02*
X059064Y012126D01*
X059521Y012126D02*
X059651Y012126D01*
X060675Y012383D02*
X060675Y011849D01*
X060740Y011783D01*
X060040Y011383D02*
X061640Y011383D01*
X061171Y011183D02*
X061208Y011094D01*
X061351Y010951D01*
X061514Y010883D01*
X061351Y010816D01*
X061208Y010672D01*
X061171Y010583D01*
X059957Y010583D01*
X059840Y010466D01*
X058740Y009366D01*
X058740Y009800D01*
X060123Y011183D01*
X061171Y011183D01*
X061173Y011178D02*
X060118Y011178D01*
X059999Y011060D02*
X061242Y011060D01*
X061374Y010941D02*
X059881Y010941D01*
X059762Y010823D02*
X061368Y010823D01*
X061240Y010704D02*
X059644Y010704D01*
X059525Y010586D02*
X061172Y010586D01*
X061640Y010383D02*
X060040Y010383D01*
X058840Y009183D01*
X058840Y006183D01*
X057240Y004583D01*
X052840Y004583D01*
X052340Y005083D01*
X051540Y005083D01*
X051140Y005483D01*
X051140Y009383D01*
X050980Y009544D01*
X050089Y009544D01*
X050089Y009799D02*
X052424Y009799D01*
X052740Y009483D01*
X052740Y007183D01*
X055040Y004883D01*
X057140Y004883D01*
X058540Y006283D01*
X058540Y009883D01*
X060040Y011383D01*
X063780Y011889D02*
X064480Y011889D01*
X064480Y011771D02*
X063974Y011771D01*
X064081Y011652D02*
X064480Y011652D01*
X064480Y011534D02*
X064130Y011534D01*
X064150Y011415D02*
X064480Y011415D01*
X064480Y011297D02*
X064150Y011297D01*
X064107Y011178D02*
X064480Y011178D01*
X064480Y011060D02*
X064038Y011060D01*
X063906Y010941D02*
X064480Y010941D01*
X064480Y010823D02*
X063912Y010823D01*
X064040Y010704D02*
X064480Y010704D01*
X064480Y010586D02*
X064108Y010586D01*
X064150Y010467D02*
X064480Y010467D01*
X064480Y010349D02*
X064150Y010349D01*
X064129Y010230D02*
X064480Y010230D01*
X064480Y010112D02*
X064080Y010112D01*
X063971Y009993D02*
X064480Y009993D01*
X064480Y009875D02*
X063786Y009875D01*
X063988Y009756D02*
X064480Y009756D01*
X064480Y009638D02*
X064087Y009638D01*
X064136Y009519D02*
X064480Y009519D01*
X064480Y009401D02*
X064150Y009401D01*
X064150Y009282D02*
X064480Y009282D01*
X064480Y009164D02*
X064101Y009164D01*
X064023Y009045D02*
X064480Y009045D01*
X064480Y008927D02*
X063871Y008927D01*
X063957Y008808D02*
X064480Y008808D01*
X064480Y008690D02*
X064072Y008690D01*
X064136Y008571D02*
X064480Y008571D01*
X064480Y008453D02*
X064166Y008453D01*
X064169Y008334D02*
X064480Y008334D01*
X064480Y008216D02*
X064143Y008216D01*
X064093Y008106D02*
X064044Y008038D01*
X063985Y007979D01*
X063821Y007860D02*
X064480Y007860D01*
X064480Y007742D02*
X064003Y007742D01*
X064093Y007623D02*
X064480Y007623D01*
X064480Y007505D02*
X064142Y007505D01*
X064150Y007386D02*
X064480Y007386D01*
X064480Y007268D02*
X064144Y007268D01*
X064095Y007149D02*
X064480Y007149D01*
X064480Y007031D02*
X064009Y007031D01*
X063836Y006912D02*
X064480Y006912D01*
X063444Y006912D02*
X062836Y006912D01*
X063009Y007031D02*
X063271Y007031D01*
X063185Y007149D02*
X063095Y007149D01*
X062444Y006912D02*
X061862Y006912D01*
X062023Y007031D02*
X062271Y007031D01*
X062185Y007149D02*
X062106Y007149D01*
X061415Y007903D02*
X059637Y007903D01*
X059445Y007824D01*
X059340Y007719D01*
X059340Y008400D01*
X060123Y009183D01*
X060923Y009183D01*
X061171Y009183D01*
X061208Y009094D01*
X061351Y008951D01*
X061492Y008893D01*
X061437Y008875D01*
X061362Y008837D01*
X061295Y008788D01*
X061236Y008729D01*
X061187Y008661D01*
X061149Y008587D01*
X061123Y008507D01*
X061110Y008425D01*
X061110Y008423D01*
X061600Y008423D01*
X061600Y008343D01*
X061110Y008343D01*
X061110Y008342D01*
X061123Y008259D01*
X061149Y008180D01*
X061187Y008106D01*
X061236Y008038D01*
X061295Y007979D01*
X059340Y007979D01*
X059340Y008097D02*
X061193Y008097D01*
X061137Y008216D02*
X059340Y008216D01*
X059340Y008334D02*
X061111Y008334D01*
X061114Y008453D02*
X059392Y008453D01*
X059511Y008571D02*
X061144Y008571D01*
X061208Y008690D02*
X059629Y008690D01*
X059748Y008808D02*
X061323Y008808D01*
X061409Y008927D02*
X059866Y008927D01*
X059985Y009045D02*
X061257Y009045D01*
X061179Y009164D02*
X060103Y009164D01*
X060040Y009383D02*
X060840Y009383D01*
X060940Y009383D01*
X061640Y009383D01*
X061171Y009583D02*
X061208Y009672D01*
X061351Y009816D01*
X061514Y009883D01*
X061351Y009951D01*
X061208Y010094D01*
X061171Y010183D01*
X060123Y010183D01*
X059040Y009100D01*
X059040Y008666D01*
X059840Y009466D01*
X059957Y009583D01*
X061171Y009583D01*
X061193Y009638D02*
X059577Y009638D01*
X059459Y009519D02*
X059893Y009519D01*
X059775Y009401D02*
X059340Y009401D01*
X059222Y009282D02*
X059656Y009282D01*
X059538Y009164D02*
X059103Y009164D01*
X059040Y009045D02*
X059419Y009045D01*
X059301Y008927D02*
X059040Y008927D01*
X059040Y008808D02*
X059182Y008808D01*
X059064Y008690D02*
X059040Y008690D01*
X059140Y008483D02*
X060040Y009383D01*
X059696Y009756D02*
X061292Y009756D01*
X061494Y009875D02*
X059814Y009875D01*
X059933Y009993D02*
X061309Y009993D01*
X061200Y010112D02*
X060051Y010112D01*
X059723Y010349D02*
X059288Y010349D01*
X059170Y010230D02*
X059604Y010230D01*
X059486Y010112D02*
X059051Y010112D01*
X058933Y009993D02*
X059367Y009993D01*
X059249Y009875D02*
X058814Y009875D01*
X058740Y009756D02*
X059130Y009756D01*
X059012Y009638D02*
X058740Y009638D01*
X058740Y009519D02*
X058893Y009519D01*
X058775Y009401D02*
X058740Y009401D01*
X055680Y009893D02*
X055600Y009893D01*
X055600Y010343D01*
X055680Y010343D01*
X055680Y009893D01*
X055680Y009993D02*
X055600Y009993D01*
X055600Y010112D02*
X055680Y010112D01*
X055680Y010230D02*
X055600Y010230D01*
X055600Y010343D02*
X054680Y010343D01*
X054680Y010423D01*
X055110Y010423D01*
X055600Y010423D01*
X055600Y010343D01*
X055600Y010349D02*
X054680Y010349D01*
X055600Y010423D02*
X055600Y010873D01*
X055680Y010873D01*
X055680Y010423D01*
X056600Y010423D01*
X056600Y010343D01*
X056170Y010343D01*
X055680Y010343D01*
X055680Y010423D01*
X055600Y010423D01*
X055600Y010467D02*
X055680Y010467D01*
X055680Y010349D02*
X056600Y010349D01*
X055680Y010586D02*
X055600Y010586D01*
X055600Y010704D02*
X055680Y010704D01*
X055680Y010823D02*
X055600Y010823D01*
X053980Y011333D02*
X050090Y011333D01*
X050089Y011335D01*
X050343Y011534D02*
X053780Y011534D01*
X053780Y011652D02*
X050445Y011652D01*
X050568Y011771D02*
X053780Y011771D01*
X053780Y011889D02*
X050609Y011889D01*
X050604Y012008D02*
X053733Y012008D01*
X053614Y012126D02*
X050548Y012126D01*
X050290Y011933D02*
X050190Y011833D01*
X049640Y011833D01*
X049490Y011683D01*
X049490Y009583D01*
X049786Y009288D01*
X050089Y009288D01*
X050570Y009288D01*
X050740Y009118D01*
X050705Y009118D01*
X050540Y009283D01*
X049740Y009283D01*
X049540Y009083D01*
X049540Y006983D01*
X049629Y006675D02*
X049889Y006675D01*
X049889Y006557D02*
X046660Y006557D01*
X046660Y006675D02*
X049451Y006675D01*
X049279Y006794D02*
X046660Y006794D01*
X046660Y006912D02*
X049224Y006912D01*
X049221Y007031D02*
X046660Y007031D01*
X046660Y007149D02*
X049264Y007149D01*
X049340Y007268D02*
X046660Y007268D01*
X046660Y007386D02*
X049340Y007386D01*
X049340Y007505D02*
X046660Y007505D01*
X046660Y007623D02*
X049340Y007623D01*
X049340Y007742D02*
X046660Y007742D01*
X046660Y007860D02*
X049340Y007860D01*
X049340Y007979D02*
X046660Y007979D01*
X046660Y008097D02*
X046857Y008097D01*
X046845Y008104D02*
X046881Y008083D01*
X046922Y008072D01*
X047102Y008072D01*
X047102Y008410D01*
X046783Y008410D01*
X046783Y008211D01*
X046794Y008170D01*
X046815Y008134D01*
X046845Y008104D01*
X046783Y008216D02*
X046660Y008216D01*
X046660Y008334D02*
X046783Y008334D01*
X046660Y008453D02*
X047102Y008453D01*
X047140Y008449D02*
X047140Y007983D01*
X047102Y008097D02*
X047178Y008097D01*
X047178Y008216D02*
X047102Y008216D01*
X047102Y008334D02*
X047178Y008334D01*
X047178Y008453D02*
X048388Y008453D01*
X048421Y008334D02*
X047497Y008334D01*
X047497Y008216D02*
X048464Y008216D01*
X048598Y008097D02*
X047423Y008097D01*
X048092Y009032D02*
X048740Y008383D01*
X048882Y008097D02*
X049340Y008097D01*
X049340Y008216D02*
X049016Y008216D01*
X049059Y008334D02*
X049340Y008334D01*
X049340Y008453D02*
X049056Y008453D01*
X049003Y008571D02*
X049340Y008571D01*
X049340Y008690D02*
X048833Y008690D01*
X048598Y008808D02*
X049340Y008808D01*
X049340Y008927D02*
X048479Y008927D01*
X048361Y009045D02*
X049340Y009045D01*
X049340Y009164D02*
X048242Y009164D01*
X048126Y009282D02*
X049456Y009282D01*
X049390Y009401D02*
X048890Y009401D01*
X049009Y009519D02*
X049290Y009519D01*
X049290Y009638D02*
X049127Y009638D01*
X049190Y009756D02*
X049290Y009756D01*
X049290Y009875D02*
X049190Y009875D01*
X049190Y009993D02*
X049290Y009993D01*
X049290Y010112D02*
X049190Y010112D01*
X049190Y010230D02*
X049290Y010230D01*
X049290Y010349D02*
X049190Y010349D01*
X049190Y010467D02*
X049290Y010467D01*
X049290Y010586D02*
X049190Y010586D01*
X049190Y010704D02*
X049290Y010704D01*
X049290Y010823D02*
X049190Y010823D01*
X049190Y010941D02*
X049290Y010941D01*
X049290Y011060D02*
X049190Y011060D01*
X049190Y011178D02*
X049290Y011178D01*
X049290Y011297D02*
X049190Y011297D01*
X049190Y011415D02*
X049290Y011415D01*
X049290Y011534D02*
X049190Y011534D01*
X049192Y011652D02*
X049290Y011652D01*
X048990Y011733D02*
X049640Y012383D01*
X051340Y012383D01*
X051740Y012783D01*
X051610Y013074D02*
X048614Y013074D01*
X048640Y013193D02*
X052548Y013193D01*
X052666Y013074D02*
X051870Y013074D01*
X052014Y012956D02*
X052785Y012956D01*
X052903Y012837D02*
X052059Y012837D01*
X052058Y012719D02*
X053022Y012719D01*
X053140Y012600D02*
X052008Y012600D01*
X051845Y012482D02*
X053259Y012482D01*
X053377Y012363D02*
X051603Y012363D01*
X051484Y012245D02*
X053496Y012245D01*
X053980Y012043D02*
X053980Y011333D01*
X053980Y009043D01*
X054640Y008383D01*
X052540Y008334D02*
X051340Y008334D01*
X051340Y008216D02*
X052540Y008216D01*
X052540Y008097D02*
X051340Y008097D01*
X051340Y007979D02*
X052540Y007979D01*
X052540Y007860D02*
X051340Y007860D01*
X051340Y007742D02*
X052540Y007742D01*
X052540Y007623D02*
X051340Y007623D01*
X051340Y007505D02*
X052540Y007505D01*
X052540Y007386D02*
X051340Y007386D01*
X051340Y007268D02*
X052540Y007268D01*
X052540Y007149D02*
X051340Y007149D01*
X051340Y007031D02*
X052610Y007031D01*
X052540Y007100D02*
X053017Y006624D01*
X052897Y006673D01*
X052583Y006673D01*
X052293Y006553D01*
X052070Y006331D01*
X051950Y006040D01*
X051950Y005726D01*
X052070Y005436D01*
X052223Y005283D01*
X051623Y005283D01*
X051340Y005566D01*
X051340Y009466D01*
X051223Y009583D01*
X051207Y009599D01*
X052341Y009599D01*
X052540Y009400D01*
X052540Y007100D01*
X052728Y006912D02*
X051340Y006912D01*
X051340Y006794D02*
X052847Y006794D01*
X052965Y006675D02*
X051340Y006675D01*
X051340Y006557D02*
X052302Y006557D01*
X052178Y006438D02*
X051340Y006438D01*
X051340Y006320D02*
X052066Y006320D01*
X052017Y006201D02*
X051340Y006201D01*
X051340Y006083D02*
X051968Y006083D01*
X051950Y005964D02*
X051340Y005964D01*
X051340Y005846D02*
X051950Y005846D01*
X051950Y005727D02*
X051340Y005727D01*
X051340Y005609D02*
X051999Y005609D01*
X052048Y005490D02*
X051416Y005490D01*
X051534Y005372D02*
X052134Y005372D01*
X052613Y005093D02*
X052897Y005093D01*
X053187Y005214D01*
X053410Y005436D01*
X053530Y005726D01*
X053530Y006040D01*
X053480Y006160D01*
X054840Y004800D01*
X054857Y004783D01*
X052923Y004783D01*
X052613Y005093D01*
X052690Y005016D02*
X054624Y005016D01*
X054743Y004898D02*
X052808Y004898D01*
X052997Y005135D02*
X054506Y005135D01*
X054387Y005253D02*
X053227Y005253D01*
X053346Y005372D02*
X054269Y005372D01*
X054150Y005490D02*
X053432Y005490D01*
X053481Y005609D02*
X054032Y005609D01*
X053913Y005727D02*
X053530Y005727D01*
X053530Y005846D02*
X053795Y005846D01*
X053676Y005964D02*
X053530Y005964D01*
X053512Y006083D02*
X053558Y006083D01*
X054240Y006083D02*
X057340Y006083D01*
X057940Y006683D01*
X057940Y013083D01*
X058240Y013383D01*
X061640Y013383D01*
X061171Y013583D02*
X061208Y013672D01*
X061351Y013816D01*
X061514Y013883D01*
X061351Y013951D01*
X061208Y014094D01*
X061171Y014183D01*
X058023Y014183D01*
X057840Y014000D01*
X057840Y013266D01*
X058040Y013466D01*
X058157Y013583D01*
X061171Y013583D01*
X061205Y013667D02*
X057840Y013667D01*
X057840Y013785D02*
X061321Y013785D01*
X061465Y013904D02*
X057840Y013904D01*
X057862Y014022D02*
X061280Y014022D01*
X061188Y014141D02*
X057980Y014141D01*
X057940Y014383D02*
X057640Y014083D01*
X057640Y006883D01*
X057140Y006383D01*
X054340Y006383D01*
X053340Y007383D01*
X053340Y009783D01*
X052812Y010311D01*
X050089Y010311D01*
X050089Y010055D02*
X052668Y010055D01*
X053040Y009683D01*
X053040Y007283D01*
X054240Y006083D01*
X054360Y005846D02*
X057820Y005846D01*
X057938Y005964D02*
X057504Y005964D01*
X057622Y006083D02*
X058057Y006083D01*
X058175Y006201D02*
X057741Y006201D01*
X057859Y006320D02*
X058294Y006320D01*
X058340Y006438D02*
X057978Y006438D01*
X058096Y006557D02*
X058340Y006557D01*
X058340Y006675D02*
X058140Y006675D01*
X058140Y006794D02*
X058340Y006794D01*
X058340Y006912D02*
X058140Y006912D01*
X057340Y006983D02*
X057040Y006683D01*
X054440Y006683D01*
X053640Y007483D01*
X053640Y009883D01*
X052956Y010567D01*
X050089Y010567D01*
X050089Y010823D02*
X053450Y010823D01*
X053460Y010822D01*
X053470Y010818D01*
X053478Y010811D01*
X053485Y010803D01*
X053489Y010793D01*
X053490Y010783D01*
X049835Y011534D02*
X049690Y011534D01*
X049690Y011415D02*
X049754Y011415D01*
X049754Y011297D02*
X049690Y011297D01*
X049690Y011178D02*
X049754Y011178D01*
X049754Y011060D02*
X049690Y011060D01*
X049690Y010941D02*
X049754Y010941D01*
X049754Y010823D02*
X049690Y010823D01*
X049690Y010704D02*
X049754Y010704D01*
X049754Y010586D02*
X049690Y010586D01*
X049690Y010467D02*
X049754Y010467D01*
X049754Y010349D02*
X049690Y010349D01*
X049690Y010230D02*
X049754Y010230D01*
X049754Y010112D02*
X049690Y010112D01*
X049690Y009993D02*
X049754Y009993D01*
X049754Y009875D02*
X049690Y009875D01*
X049690Y009756D02*
X049754Y009756D01*
X049754Y009638D02*
X049718Y009638D01*
X048990Y009783D02*
X048990Y011733D01*
X048982Y012008D02*
X048890Y012008D01*
X048970Y012126D02*
X049100Y012126D01*
X049009Y012245D02*
X049219Y012245D01*
X049337Y012363D02*
X049002Y012363D01*
X048942Y012482D02*
X049456Y012482D01*
X048758Y012600D02*
X051274Y012600D01*
X051393Y012719D02*
X048258Y012719D01*
X048140Y012600D02*
X048622Y012600D01*
X048438Y012482D02*
X048021Y012482D01*
X047903Y012363D02*
X048378Y012363D01*
X048371Y012245D02*
X047784Y012245D01*
X047666Y012126D02*
X048410Y012126D01*
X048490Y012008D02*
X047547Y012008D01*
X047459Y011889D02*
X048490Y011889D01*
X048490Y011771D02*
X047438Y011771D01*
X047360Y011652D02*
X048490Y011652D01*
X048490Y011534D02*
X048066Y011534D01*
X048146Y011415D02*
X048490Y011415D01*
X048490Y011297D02*
X048146Y011297D01*
X048146Y011335D02*
X047791Y011335D01*
X047791Y011555D01*
X047791Y011335D01*
X047791Y011335D01*
X048146Y011335D01*
X048126Y011197D02*
X048126Y011197D01*
X048126Y011178D02*
X048490Y011178D01*
X048490Y011060D02*
X048126Y011060D01*
X048126Y010941D02*
X048490Y010941D01*
X048490Y010823D02*
X048126Y010823D01*
X048126Y010704D02*
X048490Y010704D01*
X048490Y010586D02*
X048126Y010586D01*
X048126Y010467D02*
X048490Y010467D01*
X048490Y010349D02*
X048126Y010349D01*
X048126Y010230D02*
X048490Y010230D01*
X048386Y010112D02*
X048126Y010112D01*
X047791Y010055D02*
X045468Y010055D01*
X040140Y015383D01*
X040140Y022883D01*
X040600Y022910D02*
X040680Y022910D01*
X040680Y023028D02*
X040600Y023028D01*
X040600Y023147D02*
X040680Y023147D01*
X040680Y023265D02*
X040600Y023265D01*
X040563Y023384D02*
X040717Y023384D01*
X040789Y023502D02*
X040491Y023502D01*
X040334Y023621D02*
X040946Y023621D01*
X041334Y023621D02*
X041946Y023621D01*
X041789Y023502D02*
X041491Y023502D01*
X041563Y023384D02*
X041717Y023384D01*
X041680Y023265D02*
X041600Y023265D01*
X041600Y023147D02*
X041680Y023147D01*
X041680Y023028D02*
X041600Y023028D01*
X041600Y022910D02*
X041680Y022910D01*
X041680Y022791D02*
X041600Y022791D01*
X041600Y022673D02*
X041680Y022673D01*
X041680Y022554D02*
X041600Y022554D01*
X041585Y022436D02*
X041695Y022436D01*
X041744Y022317D02*
X041536Y022317D01*
X041426Y022199D02*
X041854Y022199D01*
X041940Y022080D02*
X041340Y022080D01*
X041340Y021962D02*
X041940Y021962D01*
X041940Y021843D02*
X041340Y021843D01*
X041340Y021725D02*
X041940Y021725D01*
X041940Y021606D02*
X041340Y021606D01*
X041340Y021488D02*
X041940Y021488D01*
X041940Y021369D02*
X041340Y021369D01*
X041340Y021251D02*
X041940Y021251D01*
X041940Y021132D02*
X041340Y021132D01*
X041340Y021014D02*
X041940Y021014D01*
X041940Y020895D02*
X041340Y020895D01*
X041340Y020777D02*
X041940Y020777D01*
X041940Y020658D02*
X041340Y020658D01*
X041340Y020540D02*
X041940Y020540D01*
X041940Y020421D02*
X041340Y020421D01*
X041340Y020303D02*
X041940Y020303D01*
X041940Y020184D02*
X041340Y020184D01*
X041340Y020066D02*
X041940Y020066D01*
X041940Y019947D02*
X041340Y019947D01*
X041340Y019829D02*
X041940Y019829D01*
X041940Y019710D02*
X041340Y019710D01*
X041340Y019592D02*
X041940Y019592D01*
X041940Y019473D02*
X041340Y019473D01*
X041340Y019355D02*
X041940Y019355D01*
X041940Y019236D02*
X041340Y019236D01*
X041340Y019118D02*
X041940Y019118D01*
X041940Y018999D02*
X041340Y018999D01*
X041340Y018881D02*
X041940Y018881D01*
X041940Y018762D02*
X041340Y018762D01*
X041340Y018644D02*
X041940Y018644D01*
X041940Y018525D02*
X041340Y018525D01*
X041340Y018407D02*
X041940Y018407D01*
X041940Y018288D02*
X041340Y018288D01*
X041340Y018170D02*
X041940Y018170D01*
X041940Y018051D02*
X041340Y018051D01*
X041340Y017933D02*
X041940Y017933D01*
X041940Y017814D02*
X041340Y017814D01*
X041340Y017696D02*
X041945Y017696D01*
X042057Y017583D02*
X042057Y017583D01*
X042063Y017577D02*
X041340Y017577D01*
X041340Y017459D02*
X042182Y017459D01*
X042300Y017340D02*
X041340Y017340D01*
X041340Y017222D02*
X042419Y017222D01*
X042537Y017103D02*
X041340Y017103D01*
X041340Y016985D02*
X042656Y016985D01*
X042774Y016866D02*
X041340Y016866D01*
X041358Y016748D02*
X042893Y016748D01*
X043011Y016629D02*
X041477Y016629D01*
X041595Y016511D02*
X043130Y016511D01*
X043248Y016392D02*
X041714Y016392D01*
X041832Y016274D02*
X043367Y016274D01*
X043485Y016155D02*
X041951Y016155D01*
X042069Y016037D02*
X043604Y016037D01*
X043722Y015918D02*
X042188Y015918D01*
X042306Y015800D02*
X043841Y015800D01*
X043959Y015681D02*
X042425Y015681D01*
X042543Y015563D02*
X044078Y015563D01*
X044196Y015444D02*
X042662Y015444D01*
X042780Y015326D02*
X044315Y015326D01*
X044433Y015207D02*
X042899Y015207D01*
X043017Y015089D02*
X044552Y015089D01*
X044670Y014970D02*
X043136Y014970D01*
X043254Y014852D02*
X044789Y014852D01*
X044907Y014733D02*
X043373Y014733D01*
X043491Y014615D02*
X045026Y014615D01*
X045144Y014496D02*
X043610Y014496D01*
X043728Y014378D02*
X045263Y014378D01*
X045381Y014259D02*
X043847Y014259D01*
X043965Y014141D02*
X045500Y014141D01*
X045618Y014022D02*
X044084Y014022D01*
X044202Y013904D02*
X045737Y013904D01*
X045840Y013800D02*
X045840Y013800D01*
X045855Y013785D02*
X044321Y013785D01*
X044439Y013667D02*
X048240Y013667D01*
X048240Y013785D02*
X047625Y013785D01*
X047743Y013904D02*
X048240Y013904D01*
X048240Y014022D02*
X047862Y014022D01*
X047873Y014033D02*
X047873Y014033D01*
X047980Y014141D02*
X048240Y014141D01*
X048240Y014259D02*
X047990Y014259D01*
X047990Y014378D02*
X048240Y014378D01*
X048240Y014496D02*
X047990Y014496D01*
X047990Y014615D02*
X048240Y014615D01*
X048240Y014733D02*
X047990Y014733D01*
X047990Y014852D02*
X048240Y014852D01*
X048240Y014970D02*
X048083Y014970D01*
X048126Y015089D02*
X048240Y015089D01*
X048440Y015183D02*
X048240Y015383D01*
X047796Y015383D01*
X047791Y015388D01*
X047310Y015388D01*
X047140Y015218D01*
X046803Y015207D02*
X044999Y015207D01*
X045117Y015089D02*
X046803Y015089D01*
X046803Y014970D02*
X045236Y014970D01*
X045354Y014852D02*
X046808Y014852D01*
X046783Y014733D02*
X045473Y014733D01*
X045591Y014615D02*
X046783Y014615D01*
X046783Y014510D02*
X046783Y014311D01*
X046794Y014270D01*
X046815Y014234D01*
X046845Y014204D01*
X046881Y014183D01*
X046922Y014172D01*
X047102Y014172D01*
X047102Y014510D01*
X046783Y014510D01*
X046783Y014496D02*
X045710Y014496D01*
X045828Y014378D02*
X046783Y014378D01*
X046800Y014259D02*
X045947Y014259D01*
X046065Y014141D02*
X047415Y014141D01*
X047480Y014259D02*
X047533Y014259D01*
X047497Y014378D02*
X047590Y014378D01*
X047590Y014496D02*
X047497Y014496D01*
X047497Y014615D02*
X047590Y014615D01*
X047590Y014733D02*
X047497Y014733D01*
X047472Y014852D02*
X047590Y014852D01*
X047500Y014970D02*
X047477Y014970D01*
X047790Y015133D02*
X047790Y014233D01*
X047440Y013883D01*
X046040Y013883D01*
X042140Y017783D01*
X042140Y022883D01*
X042600Y022910D02*
X042680Y022910D01*
X042680Y023028D02*
X042600Y023028D01*
X042600Y023147D02*
X042680Y023147D01*
X042680Y023265D02*
X042600Y023265D01*
X042563Y023384D02*
X042717Y023384D01*
X042789Y023502D02*
X042491Y023502D01*
X042334Y023621D02*
X042946Y023621D01*
X043334Y023621D02*
X044546Y023621D01*
X044389Y023502D02*
X043491Y023502D01*
X043563Y023384D02*
X044317Y023384D01*
X044280Y023265D02*
X043600Y023265D01*
X043600Y023147D02*
X044280Y023147D01*
X044280Y023028D02*
X043600Y023028D01*
X043600Y022910D02*
X044280Y022910D01*
X044280Y022791D02*
X043600Y022791D01*
X043600Y022673D02*
X044280Y022673D01*
X044280Y022554D02*
X043600Y022554D01*
X043585Y022436D02*
X044295Y022436D01*
X044344Y022317D02*
X043536Y022317D01*
X043426Y022199D02*
X044454Y022199D01*
X044540Y022080D02*
X043340Y022080D01*
X043340Y021962D02*
X044540Y021962D01*
X044540Y021843D02*
X043340Y021843D01*
X043340Y021725D02*
X044540Y021725D01*
X044540Y021606D02*
X043340Y021606D01*
X043340Y021488D02*
X044540Y021488D01*
X044540Y021369D02*
X043340Y021369D01*
X043340Y021251D02*
X044540Y021251D01*
X044540Y021132D02*
X043340Y021132D01*
X043340Y021014D02*
X044540Y021014D01*
X044540Y020895D02*
X043340Y020895D01*
X043340Y020777D02*
X044540Y020777D01*
X044540Y020658D02*
X043340Y020658D01*
X043340Y020540D02*
X044540Y020540D01*
X044540Y020421D02*
X043340Y020421D01*
X043340Y020303D02*
X044540Y020303D01*
X044540Y020184D02*
X043340Y020184D01*
X043340Y020066D02*
X044540Y020066D01*
X044540Y019947D02*
X043340Y019947D01*
X043340Y019829D02*
X044540Y019829D01*
X044540Y019710D02*
X043340Y019710D01*
X043340Y019592D02*
X044540Y019592D01*
X044540Y019473D02*
X043433Y019473D01*
X043551Y019355D02*
X044540Y019355D01*
X044540Y019236D02*
X043670Y019236D01*
X043788Y019118D02*
X044540Y019118D01*
X044540Y018999D02*
X043907Y018999D01*
X044025Y018881D02*
X044540Y018881D01*
X044540Y018762D02*
X044144Y018762D01*
X044262Y018644D02*
X044540Y018644D01*
X044540Y018525D02*
X044381Y018525D01*
X044499Y018407D02*
X044540Y018407D01*
X044740Y018383D02*
X047224Y015899D01*
X047791Y015899D01*
X047791Y015644D02*
X046980Y015644D01*
X043140Y019483D01*
X043140Y022883D01*
X042680Y022791D02*
X042600Y022791D01*
X042600Y022673D02*
X042680Y022673D01*
X042680Y022554D02*
X042600Y022554D01*
X042585Y022436D02*
X042695Y022436D01*
X042744Y022317D02*
X042536Y022317D01*
X042426Y022199D02*
X042854Y022199D01*
X042940Y022080D02*
X042340Y022080D01*
X042340Y021962D02*
X042940Y021962D01*
X042940Y021843D02*
X042340Y021843D01*
X042340Y021725D02*
X042940Y021725D01*
X042940Y021606D02*
X042340Y021606D01*
X042340Y021488D02*
X042940Y021488D01*
X042940Y021369D02*
X042340Y021369D01*
X042340Y021251D02*
X042940Y021251D01*
X042940Y021132D02*
X042340Y021132D01*
X042340Y021014D02*
X042940Y021014D01*
X042940Y020895D02*
X042340Y020895D01*
X042340Y020777D02*
X042940Y020777D01*
X042940Y020658D02*
X042340Y020658D01*
X042340Y020540D02*
X042940Y020540D01*
X042940Y020421D02*
X042340Y020421D01*
X042340Y020303D02*
X042940Y020303D01*
X042940Y020184D02*
X042340Y020184D01*
X042340Y020066D02*
X042940Y020066D01*
X042940Y019947D02*
X042340Y019947D01*
X042340Y019829D02*
X042940Y019829D01*
X042940Y019710D02*
X042340Y019710D01*
X042340Y019592D02*
X042940Y019592D01*
X042940Y019473D02*
X042340Y019473D01*
X042340Y019355D02*
X042986Y019355D01*
X043104Y019236D02*
X042340Y019236D01*
X042340Y019118D02*
X043223Y019118D01*
X043341Y018999D02*
X042340Y018999D01*
X042340Y018881D02*
X043460Y018881D01*
X043578Y018762D02*
X042340Y018762D01*
X042340Y018644D02*
X043697Y018644D01*
X043815Y018525D02*
X042340Y018525D01*
X042340Y018407D02*
X043934Y018407D01*
X044052Y018288D02*
X042340Y018288D01*
X042340Y018170D02*
X044171Y018170D01*
X044289Y018051D02*
X042340Y018051D01*
X042340Y017933D02*
X044408Y017933D01*
X044526Y017814D02*
X042392Y017814D01*
X042510Y017696D02*
X044645Y017696D01*
X044763Y017577D02*
X042629Y017577D01*
X042747Y017459D02*
X044882Y017459D01*
X045000Y017340D02*
X042866Y017340D01*
X042984Y017222D02*
X045119Y017222D01*
X045237Y017103D02*
X043103Y017103D01*
X043221Y016985D02*
X045356Y016985D01*
X045474Y016866D02*
X043340Y016866D01*
X043458Y016748D02*
X045593Y016748D01*
X045711Y016629D02*
X043577Y016629D01*
X043695Y016511D02*
X045830Y016511D01*
X045948Y016392D02*
X043814Y016392D01*
X043932Y016274D02*
X046067Y016274D01*
X046185Y016155D02*
X044051Y016155D01*
X044169Y016037D02*
X046304Y016037D01*
X046422Y015918D02*
X044288Y015918D01*
X044406Y015800D02*
X046541Y015800D01*
X046659Y015681D02*
X044525Y015681D01*
X044643Y015563D02*
X046778Y015563D01*
X046803Y015444D02*
X044762Y015444D01*
X044880Y015326D02*
X046803Y015326D01*
X047790Y015133D02*
X047791Y015132D01*
X048440Y015183D02*
X048440Y013183D01*
X047140Y011883D01*
X046920Y011652D02*
X046454Y011652D01*
X046572Y011534D02*
X047517Y011534D01*
X047436Y011415D02*
X046691Y011415D01*
X046809Y011297D02*
X047436Y011297D01*
X047456Y011197D02*
X047456Y011197D01*
X047456Y011178D02*
X046928Y011178D01*
X047046Y011060D02*
X047456Y011060D01*
X047791Y010823D02*
X047000Y010823D01*
X041140Y016683D01*
X041140Y022883D01*
X040680Y022791D02*
X040600Y022791D01*
X040600Y022673D02*
X040680Y022673D01*
X040680Y022554D02*
X040600Y022554D01*
X040585Y022436D02*
X040695Y022436D01*
X040744Y022317D02*
X040536Y022317D01*
X040426Y022199D02*
X040854Y022199D01*
X040940Y022080D02*
X040340Y022080D01*
X040340Y021962D02*
X040940Y021962D01*
X040940Y021843D02*
X040340Y021843D01*
X040340Y021725D02*
X040940Y021725D01*
X040940Y021606D02*
X040340Y021606D01*
X040340Y021488D02*
X040940Y021488D01*
X040940Y021369D02*
X040340Y021369D01*
X040340Y021251D02*
X040940Y021251D01*
X040940Y021132D02*
X040340Y021132D01*
X040340Y021014D02*
X040940Y021014D01*
X040940Y020895D02*
X040340Y020895D01*
X040340Y020777D02*
X040940Y020777D01*
X040940Y020658D02*
X040340Y020658D01*
X040340Y020540D02*
X040940Y020540D01*
X040940Y020421D02*
X040340Y020421D01*
X040340Y020303D02*
X040940Y020303D01*
X040940Y020184D02*
X040340Y020184D01*
X040340Y020066D02*
X040940Y020066D01*
X040940Y019947D02*
X040340Y019947D01*
X040340Y019829D02*
X040940Y019829D01*
X040940Y019710D02*
X040340Y019710D01*
X040340Y019592D02*
X040940Y019592D01*
X040940Y019473D02*
X040340Y019473D01*
X040340Y019355D02*
X040940Y019355D01*
X040940Y019236D02*
X040340Y019236D01*
X040340Y019118D02*
X040940Y019118D01*
X040940Y018999D02*
X040340Y018999D01*
X040340Y018881D02*
X040940Y018881D01*
X040940Y018762D02*
X040340Y018762D01*
X040340Y018644D02*
X040940Y018644D01*
X040940Y018525D02*
X040340Y018525D01*
X040340Y018407D02*
X040940Y018407D01*
X040940Y018288D02*
X040340Y018288D01*
X040340Y018170D02*
X040940Y018170D01*
X040940Y018051D02*
X040340Y018051D01*
X040340Y017933D02*
X040940Y017933D01*
X040940Y017814D02*
X040340Y017814D01*
X040340Y017696D02*
X040940Y017696D01*
X040940Y017577D02*
X040340Y017577D01*
X040340Y017459D02*
X040940Y017459D01*
X040940Y017340D02*
X040340Y017340D01*
X040340Y017222D02*
X040940Y017222D01*
X040940Y017103D02*
X040340Y017103D01*
X040340Y016985D02*
X040940Y016985D01*
X040940Y016866D02*
X040340Y016866D01*
X040340Y016748D02*
X040940Y016748D01*
X040940Y016629D02*
X040340Y016629D01*
X040340Y016511D02*
X041030Y016511D01*
X041148Y016392D02*
X040340Y016392D01*
X040340Y016274D02*
X041267Y016274D01*
X041385Y016155D02*
X040340Y016155D01*
X040340Y016037D02*
X041504Y016037D01*
X041622Y015918D02*
X040340Y015918D01*
X040340Y015800D02*
X041741Y015800D01*
X041859Y015681D02*
X040340Y015681D01*
X040340Y015563D02*
X041978Y015563D01*
X042096Y015444D02*
X040362Y015444D01*
X040480Y015326D02*
X042215Y015326D01*
X042333Y015207D02*
X040599Y015207D01*
X040717Y015089D02*
X042452Y015089D01*
X042570Y014970D02*
X040836Y014970D01*
X040954Y014852D02*
X042689Y014852D01*
X042807Y014733D02*
X041073Y014733D01*
X041191Y014615D02*
X042926Y014615D01*
X043044Y014496D02*
X041310Y014496D01*
X041428Y014378D02*
X043163Y014378D01*
X043281Y014259D02*
X041547Y014259D01*
X041665Y014141D02*
X043400Y014141D01*
X043518Y014022D02*
X041784Y014022D01*
X041902Y013904D02*
X043637Y013904D01*
X043755Y013785D02*
X042021Y013785D01*
X042139Y013667D02*
X043874Y013667D01*
X043992Y013548D02*
X042258Y013548D01*
X042376Y013430D02*
X044111Y013430D01*
X044229Y013311D02*
X042495Y013311D01*
X042613Y013193D02*
X044348Y013193D01*
X044466Y013074D02*
X042732Y013074D01*
X042850Y012956D02*
X044585Y012956D01*
X044703Y012837D02*
X042969Y012837D01*
X043087Y012719D02*
X044822Y012719D01*
X044940Y012600D02*
X043206Y012600D01*
X043324Y012482D02*
X045059Y012482D01*
X045177Y012363D02*
X043443Y012363D01*
X043561Y012245D02*
X045296Y012245D01*
X045414Y012126D02*
X043680Y012126D01*
X043798Y012008D02*
X045533Y012008D01*
X045534Y011889D02*
X045651Y011889D01*
X045703Y011771D02*
X045770Y011771D01*
X045756Y011652D02*
X045888Y011652D01*
X045772Y011534D02*
X046007Y011534D01*
X045891Y011415D02*
X046125Y011415D01*
X046009Y011297D02*
X046244Y011297D01*
X046128Y011178D02*
X046362Y011178D01*
X046246Y011060D02*
X046481Y011060D01*
X046365Y010941D02*
X046599Y010941D01*
X046483Y010823D02*
X046718Y010823D01*
X046456Y010567D02*
X045440Y011583D01*
X045299Y011297D02*
X044509Y011297D01*
X044391Y011415D02*
X045165Y011415D01*
X045121Y011534D02*
X044272Y011534D01*
X044154Y011652D02*
X045124Y011652D01*
X045177Y011771D02*
X044035Y011771D01*
X043917Y011889D02*
X045346Y011889D01*
X045980Y012126D02*
X046932Y012126D01*
X046847Y012008D02*
X046098Y012008D01*
X046217Y011889D02*
X046821Y011889D01*
X046842Y011771D02*
X046335Y011771D01*
X047791Y011534D02*
X047791Y011534D01*
X047791Y011415D02*
X047791Y011415D01*
X047791Y011335D02*
X047791Y011335D01*
X046012Y010311D02*
X045490Y010833D01*
X045490Y010933D01*
X045268Y010704D02*
X045102Y010704D01*
X045191Y010823D02*
X044983Y010823D01*
X044865Y010941D02*
X045171Y010941D01*
X045197Y011060D02*
X044746Y011060D01*
X044628Y011178D02*
X045284Y011178D01*
X044418Y010823D02*
X035030Y010823D01*
X035030Y010941D02*
X044299Y010941D01*
X044181Y011060D02*
X035030Y011060D01*
X035030Y011178D02*
X044062Y011178D01*
X043944Y011297D02*
X035030Y011297D01*
X035030Y011415D02*
X043825Y011415D01*
X043707Y011534D02*
X035030Y011534D01*
X035030Y011652D02*
X043588Y011652D01*
X043470Y011771D02*
X035030Y011771D01*
X035030Y011889D02*
X043351Y011889D01*
X043233Y012008D02*
X035030Y012008D01*
X035030Y012126D02*
X043114Y012126D01*
X042996Y012245D02*
X035030Y012245D01*
X035030Y012363D02*
X042877Y012363D01*
X042759Y012482D02*
X035030Y012482D01*
X035030Y012600D02*
X042640Y012600D01*
X042522Y012719D02*
X035030Y012719D01*
X035030Y012837D02*
X042403Y012837D01*
X042285Y012956D02*
X035030Y012956D01*
X035030Y013074D02*
X042166Y013074D01*
X042048Y013193D02*
X035030Y013193D01*
X035030Y013311D02*
X041929Y013311D01*
X041811Y013430D02*
X035030Y013430D01*
X035030Y013548D02*
X041692Y013548D01*
X041574Y013667D02*
X035030Y013667D01*
X035030Y013761D02*
X034971Y013904D01*
X041337Y013904D01*
X041455Y013785D02*
X035020Y013785D01*
X035030Y013761D02*
X035030Y006977D01*
X036782Y006977D01*
X038109Y008304D01*
X038219Y008414D01*
X038362Y008473D01*
X043018Y008473D01*
X043161Y008414D01*
X044961Y006614D01*
X045071Y006504D01*
X045130Y006361D01*
X045130Y004464D01*
X045200Y004295D01*
X045200Y003472D01*
X045130Y003303D01*
X045001Y003173D01*
X044831Y003103D01*
X044648Y003103D01*
X044479Y003173D01*
X044350Y003303D01*
X044280Y003472D01*
X044280Y004295D01*
X044350Y004464D01*
X044350Y006122D01*
X042778Y007693D01*
X038602Y007693D01*
X037164Y006256D01*
X037021Y006197D01*
X033193Y006197D01*
X033111Y006279D01*
X033111Y006895D01*
X033193Y006977D01*
X034250Y006977D01*
X034250Y013522D01*
X033781Y013991D01*
X033052Y013991D01*
X032924Y014044D01*
X032757Y014044D01*
X032675Y014126D01*
X032675Y014636D01*
X032740Y014701D01*
X032740Y017582D01*
X032478Y017843D01*
X032056Y017843D01*
X032056Y017590D01*
X031974Y017508D01*
X031306Y017508D01*
X031224Y017590D01*
X031224Y018887D01*
X031306Y018969D01*
X031974Y018969D01*
X032056Y018887D01*
X032056Y018623D01*
X032718Y018623D01*
X032861Y018564D01*
X032971Y018454D01*
X033460Y017964D01*
X033520Y017821D01*
X033520Y014771D01*
X034020Y014771D01*
X034163Y014712D01*
X034861Y014014D01*
X034971Y013904D01*
X034853Y014022D02*
X041218Y014022D01*
X041100Y014141D02*
X034734Y014141D01*
X034616Y014259D02*
X040981Y014259D01*
X040863Y014378D02*
X034497Y014378D01*
X034379Y014496D02*
X040744Y014496D01*
X040626Y014615D02*
X034260Y014615D01*
X034111Y014733D02*
X040507Y014733D01*
X040389Y014852D02*
X033520Y014852D01*
X033520Y014970D02*
X040270Y014970D01*
X040152Y015089D02*
X033520Y015089D01*
X033520Y015207D02*
X040033Y015207D01*
X039940Y015326D02*
X033520Y015326D01*
X033520Y015444D02*
X039940Y015444D01*
X039940Y015563D02*
X033520Y015563D01*
X033520Y015681D02*
X039940Y015681D01*
X039940Y015800D02*
X033520Y015800D01*
X033520Y015918D02*
X039940Y015918D01*
X039940Y016037D02*
X033520Y016037D01*
X033520Y016155D02*
X039940Y016155D01*
X039940Y016274D02*
X033520Y016274D01*
X033520Y016392D02*
X039940Y016392D01*
X039940Y016511D02*
X033520Y016511D01*
X033520Y016629D02*
X039940Y016629D01*
X039940Y016748D02*
X033520Y016748D01*
X033520Y016866D02*
X039940Y016866D01*
X039940Y016985D02*
X033520Y016985D01*
X033520Y017103D02*
X039940Y017103D01*
X039940Y017222D02*
X033520Y017222D01*
X033520Y017340D02*
X039940Y017340D01*
X039940Y017459D02*
X033520Y017459D01*
X033520Y017577D02*
X039940Y017577D01*
X039940Y017696D02*
X033520Y017696D01*
X033520Y017814D02*
X039940Y017814D01*
X039940Y017933D02*
X033473Y017933D01*
X033374Y018051D02*
X039940Y018051D01*
X039940Y018170D02*
X033255Y018170D01*
X033137Y018288D02*
X039940Y018288D01*
X039940Y018407D02*
X033018Y018407D01*
X032900Y018525D02*
X039940Y018525D01*
X039940Y018644D02*
X032056Y018644D01*
X032056Y018762D02*
X039940Y018762D01*
X039940Y018881D02*
X032056Y018881D01*
X031224Y018881D02*
X029394Y018881D01*
X029512Y018999D02*
X039940Y018999D01*
X039940Y019118D02*
X029631Y019118D01*
X029749Y019236D02*
X039940Y019236D01*
X039940Y019355D02*
X029868Y019355D01*
X029986Y019473D02*
X031217Y019473D01*
X031215Y019476D02*
X031236Y019439D01*
X031266Y019410D01*
X031303Y019389D01*
X031343Y019378D01*
X031580Y019378D01*
X031580Y020068D01*
X031700Y020068D01*
X031700Y019378D01*
X031937Y019378D01*
X031977Y019389D01*
X032014Y019410D01*
X032044Y019439D01*
X032065Y019476D01*
X032076Y019517D01*
X032076Y020068D01*
X031700Y020068D01*
X031700Y020188D01*
X032076Y020188D01*
X032076Y020740D01*
X032065Y020781D01*
X032044Y020817D01*
X032014Y020847D01*
X031977Y020868D01*
X031937Y020879D01*
X031700Y020879D01*
X031700Y020188D01*
X031580Y020188D01*
X031580Y020068D01*
X031204Y020068D01*
X031204Y019517D01*
X031215Y019476D01*
X031204Y019592D02*
X030105Y019592D01*
X030223Y019710D02*
X031204Y019710D01*
X031204Y019829D02*
X030260Y019829D01*
X030260Y019947D02*
X031204Y019947D01*
X031204Y020066D02*
X030260Y020066D01*
X030260Y020184D02*
X031580Y020184D01*
X031580Y020188D02*
X031204Y020188D01*
X031204Y020740D01*
X031215Y020781D01*
X031236Y020817D01*
X031266Y020847D01*
X031303Y020868D01*
X031343Y020879D01*
X031580Y020879D01*
X031580Y020188D01*
X031580Y020303D02*
X031700Y020303D01*
X031700Y020421D02*
X031580Y020421D01*
X031580Y020540D02*
X031700Y020540D01*
X031700Y020658D02*
X031580Y020658D01*
X031580Y020777D02*
X031700Y020777D01*
X032066Y020777D02*
X039940Y020777D01*
X039940Y020895D02*
X030260Y020895D01*
X030260Y020777D02*
X031214Y020777D01*
X031204Y020658D02*
X030260Y020658D01*
X030260Y020540D02*
X031204Y020540D01*
X031204Y020421D02*
X030260Y020421D01*
X030260Y020303D02*
X031204Y020303D01*
X031580Y020066D02*
X031700Y020066D01*
X031700Y020184D02*
X039940Y020184D01*
X039940Y020066D02*
X032076Y020066D01*
X032076Y019947D02*
X039940Y019947D01*
X039940Y019829D02*
X032076Y019829D01*
X032076Y019710D02*
X039940Y019710D01*
X039940Y019592D02*
X032076Y019592D01*
X032063Y019473D02*
X039940Y019473D01*
X039940Y020303D02*
X032076Y020303D01*
X032076Y020421D02*
X039940Y020421D01*
X039940Y020540D02*
X032076Y020540D01*
X032076Y020658D02*
X039940Y020658D01*
X039940Y021014D02*
X030260Y021014D01*
X030260Y021132D02*
X039940Y021132D01*
X039940Y021251D02*
X030260Y021251D01*
X030260Y021369D02*
X039940Y021369D01*
X039940Y021488D02*
X030260Y021488D01*
X030309Y021606D02*
X039940Y021606D01*
X039940Y021725D02*
X030377Y021725D01*
X030377Y021843D02*
X039940Y021843D01*
X039940Y021962D02*
X030377Y021962D01*
X030377Y022080D02*
X039940Y022080D01*
X039854Y022199D02*
X039426Y022199D01*
X039401Y022173D02*
X039530Y022303D01*
X039600Y022472D01*
X039600Y023295D01*
X039530Y023464D01*
X039401Y023593D01*
X039231Y023663D01*
X039048Y023663D01*
X038879Y023593D01*
X038750Y023464D01*
X038680Y023295D01*
X038680Y022472D01*
X038750Y022303D01*
X038879Y022173D01*
X039048Y022103D01*
X039231Y022103D01*
X039401Y022173D01*
X039536Y022317D02*
X039744Y022317D01*
X039695Y022436D02*
X039585Y022436D01*
X039600Y022554D02*
X039680Y022554D01*
X039680Y022673D02*
X039600Y022673D01*
X039600Y022791D02*
X039680Y022791D01*
X039680Y022910D02*
X039600Y022910D01*
X039600Y023028D02*
X039680Y023028D01*
X039680Y023147D02*
X039600Y023147D01*
X039600Y023265D02*
X039680Y023265D01*
X039717Y023384D02*
X039563Y023384D01*
X039491Y023502D02*
X039789Y023502D01*
X039946Y023621D02*
X039334Y023621D01*
X038946Y023621D02*
X038334Y023621D01*
X038401Y023593D02*
X038231Y023663D01*
X038048Y023663D01*
X037879Y023593D01*
X037750Y023464D01*
X037680Y023295D01*
X037680Y022472D01*
X037750Y022303D01*
X037879Y022173D01*
X038048Y022103D01*
X038231Y022103D01*
X038401Y022173D01*
X038530Y022303D01*
X038600Y022472D01*
X038600Y023295D01*
X038530Y023464D01*
X038401Y023593D01*
X038491Y023502D02*
X038789Y023502D01*
X038717Y023384D02*
X038563Y023384D01*
X038600Y023265D02*
X038680Y023265D01*
X038680Y023147D02*
X038600Y023147D01*
X038600Y023028D02*
X038680Y023028D01*
X038680Y022910D02*
X038600Y022910D01*
X038600Y022791D02*
X038680Y022791D01*
X038680Y022673D02*
X038600Y022673D01*
X038600Y022554D02*
X038680Y022554D01*
X038695Y022436D02*
X038585Y022436D01*
X038536Y022317D02*
X038744Y022317D01*
X038854Y022199D02*
X038426Y022199D01*
X037854Y022199D02*
X037454Y022199D01*
X037453Y022197D02*
X037506Y022251D01*
X037551Y022312D01*
X037585Y022379D01*
X037608Y022451D01*
X037620Y022526D01*
X037620Y022843D01*
X037180Y022843D01*
X037180Y022084D01*
X037252Y022095D01*
X037324Y022118D01*
X037392Y022153D01*
X037453Y022197D01*
X037553Y022317D02*
X037744Y022317D01*
X037695Y022436D02*
X037603Y022436D01*
X037620Y022554D02*
X037680Y022554D01*
X037680Y022673D02*
X037620Y022673D01*
X037620Y022791D02*
X037680Y022791D01*
X037680Y022910D02*
X037180Y022910D01*
X037180Y022923D02*
X037620Y022923D01*
X037620Y023241D01*
X037608Y023316D01*
X037585Y023388D01*
X037551Y023455D01*
X037506Y023516D01*
X037453Y023569D01*
X037392Y023614D01*
X037324Y023648D01*
X037252Y023672D01*
X037180Y023683D01*
X037180Y022923D01*
X037180Y022843D01*
X037100Y022843D01*
X037100Y022084D01*
X037028Y022095D01*
X036956Y022118D01*
X036888Y022153D01*
X036827Y022197D01*
X036774Y022251D01*
X036729Y022312D01*
X036695Y022379D01*
X036672Y022451D01*
X036660Y022526D01*
X036660Y022843D01*
X037100Y022843D01*
X037100Y022923D01*
X036660Y022923D01*
X036660Y023241D01*
X036672Y023316D01*
X036695Y023388D01*
X036729Y023455D01*
X036774Y023516D01*
X036827Y023569D01*
X036888Y023614D01*
X036956Y023648D01*
X037028Y023672D01*
X037100Y023683D01*
X037100Y022923D01*
X037180Y022923D01*
X037100Y022910D02*
X036600Y022910D01*
X036600Y023028D02*
X036660Y023028D01*
X036660Y023147D02*
X036600Y023147D01*
X036600Y023265D02*
X036664Y023265D01*
X036600Y023295D02*
X036530Y023464D01*
X036401Y023593D01*
X036231Y023663D01*
X036048Y023663D01*
X035879Y023593D01*
X035750Y023464D01*
X035680Y023295D01*
X035680Y022472D01*
X035750Y022303D01*
X035879Y022173D01*
X036048Y022103D01*
X036231Y022103D01*
X036401Y022173D01*
X036530Y022303D01*
X036600Y022472D01*
X036600Y023295D01*
X036563Y023384D02*
X036694Y023384D01*
X036764Y023502D02*
X036491Y023502D01*
X036334Y023621D02*
X036902Y023621D01*
X037100Y023621D02*
X037180Y023621D01*
X037180Y023502D02*
X037100Y023502D01*
X037100Y023384D02*
X037180Y023384D01*
X037180Y023265D02*
X037100Y023265D01*
X037100Y023147D02*
X037180Y023147D01*
X037180Y023028D02*
X037100Y023028D01*
X037100Y022791D02*
X037180Y022791D01*
X037180Y022673D02*
X037100Y022673D01*
X037100Y022554D02*
X037180Y022554D01*
X037180Y022436D02*
X037100Y022436D01*
X037100Y022317D02*
X037180Y022317D01*
X037180Y022199D02*
X037100Y022199D01*
X036826Y022199D02*
X036426Y022199D01*
X036536Y022317D02*
X036727Y022317D01*
X036677Y022436D02*
X036585Y022436D01*
X036600Y022554D02*
X036660Y022554D01*
X036660Y022673D02*
X036600Y022673D01*
X036600Y022791D02*
X036660Y022791D01*
X035680Y022791D02*
X033530Y022791D01*
X033530Y022726D02*
X033410Y022436D01*
X033187Y022214D01*
X032897Y022093D01*
X032583Y022093D01*
X032293Y022214D01*
X032070Y022436D01*
X031950Y022726D01*
X031950Y023040D01*
X032070Y023331D01*
X032293Y023553D01*
X032583Y023673D01*
X032897Y023673D01*
X033187Y023553D01*
X033410Y023331D01*
X033530Y023040D01*
X033530Y022726D01*
X033508Y022673D02*
X035680Y022673D01*
X035680Y022554D02*
X033459Y022554D01*
X033410Y022436D02*
X035695Y022436D01*
X035744Y022317D02*
X033291Y022317D01*
X033152Y022199D02*
X035854Y022199D01*
X035680Y022910D02*
X033530Y022910D01*
X033530Y023028D02*
X035680Y023028D01*
X035680Y023147D02*
X033486Y023147D01*
X033437Y023265D02*
X035680Y023265D01*
X035717Y023384D02*
X033357Y023384D01*
X033238Y023502D02*
X035789Y023502D01*
X035946Y023621D02*
X033024Y023621D01*
X032456Y023621D02*
X027704Y023621D01*
X027585Y023502D02*
X032242Y023502D01*
X032123Y023384D02*
X027467Y023384D01*
X027348Y023265D02*
X032043Y023265D01*
X031994Y023147D02*
X028856Y023147D01*
X028024Y023147D02*
X027230Y023147D01*
X027111Y023028D02*
X028024Y023028D01*
X028024Y022910D02*
X026993Y022910D01*
X026900Y022791D02*
X028024Y022791D01*
X028024Y022673D02*
X026900Y022673D01*
X026900Y022554D02*
X028050Y022554D01*
X028830Y022554D02*
X029703Y022554D01*
X029703Y022436D02*
X026900Y022436D01*
X026900Y022317D02*
X029729Y022317D01*
X029703Y022199D02*
X026900Y022199D01*
X026900Y022080D02*
X028111Y022080D01*
X028103Y022078D02*
X028066Y022057D01*
X028036Y022027D01*
X028015Y021991D01*
X028004Y021950D01*
X028004Y021751D01*
X028382Y021751D01*
X028382Y022089D01*
X028143Y022089D01*
X028103Y022078D01*
X028008Y021962D02*
X026900Y021962D01*
X026900Y021843D02*
X028004Y021843D01*
X028004Y021635D02*
X028004Y021435D01*
X028015Y021395D01*
X028036Y021358D01*
X028066Y021329D01*
X028103Y021307D01*
X028143Y021297D01*
X028382Y021297D01*
X028382Y021635D01*
X028004Y021635D01*
X028004Y021606D02*
X026900Y021606D01*
X026900Y021488D02*
X028004Y021488D01*
X028030Y021369D02*
X026900Y021369D01*
X026900Y021251D02*
X029820Y021251D01*
X029820Y021369D02*
X028850Y021369D01*
X028844Y021358D02*
X028865Y021395D01*
X028876Y021435D01*
X028876Y021635D01*
X028498Y021635D01*
X028498Y021751D01*
X028382Y021751D01*
X028382Y021635D01*
X028498Y021635D01*
X028498Y021297D01*
X028737Y021297D01*
X028777Y021307D01*
X028814Y021329D01*
X028844Y021358D01*
X028876Y021488D02*
X029820Y021488D01*
X029771Y021606D02*
X028876Y021606D01*
X028876Y021751D02*
X028876Y021950D01*
X028865Y021991D01*
X028844Y022027D01*
X028814Y022057D01*
X028777Y022078D01*
X028737Y022089D01*
X028498Y022089D01*
X028498Y021751D01*
X028876Y021751D01*
X028876Y021843D02*
X029703Y021843D01*
X029703Y021725D02*
X028498Y021725D01*
X028382Y021725D02*
X026900Y021725D01*
X026900Y021132D02*
X029820Y021132D01*
X029820Y021014D02*
X026900Y021014D01*
X026900Y020895D02*
X029820Y020895D01*
X029820Y020777D02*
X028866Y020777D01*
X028865Y020781D02*
X028844Y020817D01*
X028814Y020847D01*
X028777Y020868D01*
X028737Y020879D01*
X028500Y020879D01*
X028500Y020188D01*
X028876Y020188D01*
X028876Y020740D01*
X028865Y020781D01*
X028876Y020658D02*
X029820Y020658D01*
X029820Y020540D02*
X028876Y020540D01*
X028876Y020421D02*
X029820Y020421D01*
X029820Y020303D02*
X028876Y020303D01*
X028876Y020068D02*
X028876Y019517D01*
X028865Y019476D01*
X028844Y019439D01*
X028814Y019410D01*
X028777Y019389D01*
X028737Y019378D01*
X028500Y019378D01*
X028500Y020068D01*
X028380Y020068D01*
X028380Y019378D01*
X028143Y019378D01*
X028103Y019389D01*
X028066Y019410D01*
X028036Y019439D01*
X028015Y019476D01*
X028004Y019517D01*
X028004Y020068D01*
X028380Y020068D01*
X028380Y020188D01*
X028004Y020188D01*
X028004Y020740D01*
X028015Y020781D01*
X028036Y020817D01*
X028066Y020847D01*
X028103Y020868D01*
X028143Y020879D01*
X028380Y020879D01*
X028380Y020188D01*
X028500Y020188D01*
X028500Y020068D01*
X028876Y020068D01*
X028876Y020066D02*
X029820Y020066D01*
X029820Y020184D02*
X028500Y020184D01*
X028500Y020066D02*
X028380Y020066D01*
X028380Y020184D02*
X026900Y020184D01*
X026900Y020066D02*
X028004Y020066D01*
X028004Y019947D02*
X026900Y019947D01*
X026900Y019829D02*
X028004Y019829D01*
X028004Y019710D02*
X026900Y019710D01*
X026900Y019592D02*
X028004Y019592D01*
X028017Y019473D02*
X026900Y019473D01*
X026900Y019355D02*
X029245Y019355D01*
X029127Y019236D02*
X026900Y019236D01*
X026900Y019118D02*
X029008Y019118D01*
X028890Y018999D02*
X026900Y018999D01*
X026900Y018881D02*
X028024Y018881D01*
X028024Y018762D02*
X026900Y018762D01*
X026900Y018644D02*
X028024Y018644D01*
X028024Y018525D02*
X026900Y018525D01*
X026900Y018407D02*
X028024Y018407D01*
X028024Y018288D02*
X026900Y018288D01*
X026900Y018170D02*
X028024Y018170D01*
X028024Y018051D02*
X026900Y018051D01*
X026900Y017933D02*
X028024Y017933D01*
X028024Y017814D02*
X026900Y017814D01*
X026900Y017696D02*
X028024Y017696D01*
X028037Y017577D02*
X026900Y017577D01*
X026900Y017459D02*
X028050Y017459D01*
X028830Y017459D02*
X032740Y017459D01*
X032740Y017577D02*
X032043Y017577D01*
X032056Y017696D02*
X032626Y017696D01*
X032507Y017814D02*
X032056Y017814D01*
X032566Y017340D02*
X032740Y017340D01*
X032740Y017222D02*
X032640Y017222D01*
X032640Y017103D02*
X032740Y017103D01*
X032740Y016985D02*
X032640Y016985D01*
X032640Y016866D02*
X032740Y016866D01*
X032740Y016748D02*
X032640Y016748D01*
X032640Y016629D02*
X032740Y016629D01*
X032740Y016511D02*
X032640Y016511D01*
X032640Y016392D02*
X032740Y016392D01*
X032740Y016274D02*
X032640Y016274D01*
X032640Y016155D02*
X032740Y016155D01*
X032740Y016037D02*
X032640Y016037D01*
X032640Y015918D02*
X032740Y015918D01*
X032740Y015800D02*
X032640Y015800D01*
X032640Y015681D02*
X032740Y015681D01*
X032740Y015563D02*
X032640Y015563D01*
X032640Y015444D02*
X032740Y015444D01*
X032740Y015326D02*
X032640Y015326D01*
X032640Y015207D02*
X032740Y015207D01*
X032740Y015089D02*
X032640Y015089D01*
X032640Y014970D02*
X032740Y014970D01*
X032740Y014852D02*
X032640Y014852D01*
X032640Y014733D02*
X032740Y014733D01*
X032675Y014615D02*
X032640Y014615D01*
X032640Y014496D02*
X032675Y014496D01*
X032675Y014378D02*
X032640Y014378D01*
X032640Y014259D02*
X032675Y014259D01*
X032675Y014141D02*
X032640Y014141D01*
X032640Y014022D02*
X032976Y014022D01*
X032640Y013904D02*
X033868Y013904D01*
X033986Y013785D02*
X032640Y013785D01*
X032640Y013667D02*
X034105Y013667D01*
X034223Y013548D02*
X032640Y013548D01*
X032640Y013430D02*
X034250Y013430D01*
X034250Y013311D02*
X032640Y013311D01*
X032640Y013193D02*
X034250Y013193D01*
X034250Y013074D02*
X032640Y013074D01*
X032640Y012956D02*
X034250Y012956D01*
X034250Y012837D02*
X033596Y012837D01*
X033594Y012844D02*
X033573Y012881D01*
X033543Y012911D01*
X033506Y012932D01*
X033466Y012943D01*
X033168Y012943D01*
X033168Y012624D01*
X033091Y012624D01*
X033091Y012547D01*
X032655Y012547D01*
X032655Y012368D01*
X032666Y012327D01*
X032687Y012291D01*
X032717Y012261D01*
X032753Y012240D01*
X032794Y012229D01*
X033091Y012229D01*
X033091Y012547D01*
X033168Y012547D01*
X033168Y012229D01*
X033466Y012229D01*
X033506Y012240D01*
X033543Y012261D01*
X033573Y012291D01*
X033594Y012327D01*
X033605Y012368D01*
X033605Y012547D01*
X033168Y012547D01*
X033168Y012624D01*
X033605Y012624D01*
X033605Y012804D01*
X033594Y012844D01*
X033605Y012719D02*
X034250Y012719D01*
X034250Y012600D02*
X033168Y012600D01*
X033091Y012600D02*
X032640Y012600D01*
X032655Y012624D02*
X032655Y012804D01*
X032666Y012844D01*
X032687Y012881D01*
X032717Y012911D01*
X032753Y012932D01*
X032794Y012943D01*
X033091Y012943D01*
X033091Y012624D01*
X032655Y012624D01*
X032655Y012719D02*
X032640Y012719D01*
X032640Y012837D02*
X032664Y012837D01*
X032440Y012837D02*
X026900Y012837D01*
X026900Y012719D02*
X032440Y012719D01*
X032440Y012600D02*
X026900Y012600D01*
X026900Y012482D02*
X032440Y012482D01*
X032440Y012363D02*
X026900Y012363D01*
X026900Y012245D02*
X032440Y012245D01*
X032440Y012126D02*
X026900Y012126D01*
X026900Y012008D02*
X032440Y012008D01*
X032440Y011889D02*
X026900Y011889D01*
X026900Y011771D02*
X032440Y011771D01*
X032440Y011652D02*
X026900Y011652D01*
X026900Y011534D02*
X032440Y011534D01*
X032440Y011415D02*
X026900Y011415D01*
X026900Y011297D02*
X032440Y011297D01*
X032440Y011178D02*
X026900Y011178D01*
X026900Y011060D02*
X032440Y011060D01*
X032440Y010941D02*
X026900Y010941D01*
X026900Y010823D02*
X032440Y010823D01*
X032440Y010704D02*
X026900Y010704D01*
X026900Y010586D02*
X032440Y010586D01*
X032440Y010467D02*
X026900Y010467D01*
X026900Y010349D02*
X032440Y010349D01*
X032440Y010230D02*
X026900Y010230D01*
X026900Y010112D02*
X032440Y010112D01*
X032440Y009993D02*
X026900Y009993D01*
X026900Y009875D02*
X032440Y009875D01*
X032440Y009783D02*
X026900Y009783D01*
X026900Y017183D01*
X032440Y017183D01*
X032440Y009783D01*
X032577Y009638D02*
X034250Y009638D01*
X034250Y009756D02*
X032640Y009756D01*
X032640Y009875D02*
X034250Y009875D01*
X034250Y009993D02*
X032640Y009993D01*
X032640Y010112D02*
X034250Y010112D01*
X034250Y010230D02*
X032640Y010230D01*
X032640Y010349D02*
X034250Y010349D01*
X034250Y010467D02*
X032640Y010467D01*
X032640Y010586D02*
X034250Y010586D01*
X034250Y010704D02*
X032640Y010704D01*
X032640Y010823D02*
X034250Y010823D01*
X034250Y010941D02*
X032640Y010941D01*
X032640Y011060D02*
X034250Y011060D01*
X034250Y011178D02*
X032640Y011178D01*
X032640Y011297D02*
X034250Y011297D01*
X034250Y011415D02*
X032640Y011415D01*
X032640Y011534D02*
X034250Y011534D01*
X034250Y011652D02*
X032640Y011652D01*
X032640Y011771D02*
X034250Y011771D01*
X034250Y011889D02*
X032640Y011889D01*
X032640Y012008D02*
X034250Y012008D01*
X034250Y012126D02*
X032640Y012126D01*
X032640Y012245D02*
X032744Y012245D01*
X032656Y012363D02*
X032640Y012363D01*
X032640Y012482D02*
X032655Y012482D01*
X033091Y012482D02*
X033168Y012482D01*
X033168Y012363D02*
X033091Y012363D01*
X033091Y012245D02*
X033168Y012245D01*
X033515Y012245D02*
X034250Y012245D01*
X034250Y012363D02*
X033604Y012363D01*
X033605Y012482D02*
X034250Y012482D01*
X033168Y012719D02*
X033091Y012719D01*
X033091Y012837D02*
X033168Y012837D01*
X032440Y012956D02*
X026900Y012956D01*
X026900Y013074D02*
X032440Y013074D01*
X032440Y013193D02*
X026900Y013193D01*
X026900Y013311D02*
X032440Y013311D01*
X032440Y013430D02*
X026900Y013430D01*
X026900Y013548D02*
X032440Y013548D01*
X032440Y013667D02*
X026900Y013667D01*
X026900Y013785D02*
X032440Y013785D01*
X032440Y013904D02*
X026900Y013904D01*
X026900Y014022D02*
X032440Y014022D01*
X032440Y014141D02*
X026900Y014141D01*
X026900Y014259D02*
X032440Y014259D01*
X032440Y014378D02*
X026900Y014378D01*
X026900Y014496D02*
X032440Y014496D01*
X032440Y014615D02*
X026900Y014615D01*
X026900Y014733D02*
X032440Y014733D01*
X032440Y014852D02*
X026900Y014852D01*
X026900Y014970D02*
X032440Y014970D01*
X032440Y015089D02*
X026900Y015089D01*
X026900Y015207D02*
X032440Y015207D01*
X032440Y015326D02*
X026900Y015326D01*
X026900Y015444D02*
X032440Y015444D01*
X032440Y015563D02*
X026900Y015563D01*
X026900Y015681D02*
X032440Y015681D01*
X032440Y015800D02*
X026900Y015800D01*
X026900Y015918D02*
X032440Y015918D01*
X032440Y016037D02*
X026900Y016037D01*
X026900Y016155D02*
X032440Y016155D01*
X032440Y016274D02*
X026900Y016274D01*
X026900Y016392D02*
X032440Y016392D01*
X032440Y016511D02*
X026900Y016511D01*
X026900Y016629D02*
X032440Y016629D01*
X032440Y016748D02*
X026900Y016748D01*
X026900Y016866D02*
X032440Y016866D01*
X032440Y016985D02*
X026900Y016985D01*
X026900Y017103D02*
X032440Y017103D01*
X031237Y017577D02*
X028843Y017577D01*
X028856Y017696D02*
X031224Y017696D01*
X031224Y017814D02*
X028856Y017814D01*
X028856Y017933D02*
X031224Y017933D01*
X031224Y018051D02*
X028856Y018051D01*
X028856Y018170D02*
X031224Y018170D01*
X031224Y018288D02*
X028856Y018288D01*
X028920Y018407D02*
X031224Y018407D01*
X031224Y018525D02*
X029038Y018525D01*
X029157Y018644D02*
X031224Y018644D01*
X031224Y018762D02*
X029275Y018762D01*
X029364Y019473D02*
X028863Y019473D01*
X028876Y019592D02*
X029482Y019592D01*
X029601Y019710D02*
X028876Y019710D01*
X028876Y019829D02*
X029719Y019829D01*
X029820Y019947D02*
X028876Y019947D01*
X028500Y019947D02*
X028380Y019947D01*
X028380Y019829D02*
X028500Y019829D01*
X028500Y019710D02*
X028380Y019710D01*
X028380Y019592D02*
X028500Y019592D01*
X028500Y019473D02*
X028380Y019473D01*
X031580Y019473D02*
X031700Y019473D01*
X031700Y019592D02*
X031580Y019592D01*
X031580Y019710D02*
X031700Y019710D01*
X031700Y019829D02*
X031580Y019829D01*
X031580Y019947D02*
X031700Y019947D01*
X028500Y020303D02*
X028380Y020303D01*
X028380Y020421D02*
X028500Y020421D01*
X028500Y020540D02*
X028380Y020540D01*
X028380Y020658D02*
X028500Y020658D01*
X028500Y020777D02*
X028380Y020777D01*
X028014Y020777D02*
X026900Y020777D01*
X026900Y020658D02*
X028004Y020658D01*
X028004Y020540D02*
X026900Y020540D01*
X026900Y020421D02*
X028004Y020421D01*
X028004Y020303D02*
X026900Y020303D01*
X028382Y021369D02*
X028498Y021369D01*
X028498Y021488D02*
X028382Y021488D01*
X028382Y021606D02*
X028498Y021606D01*
X028498Y021843D02*
X028382Y021843D01*
X028382Y021962D02*
X028498Y021962D01*
X028498Y022080D02*
X028382Y022080D01*
X028769Y022080D02*
X029703Y022080D01*
X029703Y021962D02*
X028872Y021962D01*
X030351Y022317D02*
X032189Y022317D01*
X032070Y022436D02*
X030377Y022436D01*
X030377Y022554D02*
X032021Y022554D01*
X031972Y022673D02*
X030377Y022673D01*
X030377Y022791D02*
X031950Y022791D01*
X031950Y022910D02*
X030359Y022910D01*
X029941Y023028D02*
X031950Y023028D01*
X032328Y022199D02*
X030377Y022199D01*
X037378Y023621D02*
X037946Y023621D01*
X037789Y023502D02*
X037516Y023502D01*
X037586Y023384D02*
X037717Y023384D01*
X037680Y023265D02*
X037616Y023265D01*
X037620Y023147D02*
X037680Y023147D01*
X037680Y023028D02*
X037620Y023028D01*
X044740Y022883D02*
X044740Y018383D01*
X044940Y018525D02*
X046540Y018525D01*
X046540Y018407D02*
X044999Y018407D01*
X045118Y018288D02*
X046540Y018288D01*
X046540Y018170D02*
X045236Y018170D01*
X045355Y018051D02*
X046540Y018051D01*
X046540Y017933D02*
X045473Y017933D01*
X045592Y017814D02*
X046540Y017814D01*
X046540Y017696D02*
X045710Y017696D01*
X045829Y017577D02*
X046540Y017577D01*
X046540Y017459D02*
X045947Y017459D01*
X046066Y017340D02*
X046540Y017340D01*
X046540Y017222D02*
X046184Y017222D01*
X046303Y017103D02*
X046540Y017103D01*
X046606Y016985D02*
X046421Y016985D01*
X046540Y016866D02*
X046724Y016866D01*
X046658Y016748D02*
X046843Y016748D01*
X046777Y016629D02*
X046961Y016629D01*
X046895Y016511D02*
X047080Y016511D01*
X047014Y016392D02*
X047456Y016392D01*
X047457Y016274D02*
X047132Y016274D01*
X047251Y016155D02*
X047456Y016155D01*
X047791Y016155D02*
X048918Y016155D01*
X049440Y016677D01*
X049440Y018183D01*
X049890Y018633D01*
X050040Y018633D01*
X050264Y018407D02*
X051081Y018407D01*
X051140Y018466D02*
X051140Y018466D01*
X051199Y018525D02*
X050340Y018525D01*
X050359Y018644D02*
X054196Y018644D01*
X054298Y018762D02*
X050332Y018762D01*
X050243Y018881D02*
X053737Y018881D01*
X053573Y018999D02*
X049290Y018999D01*
X049290Y018881D02*
X049837Y018881D01*
X049736Y018762D02*
X049290Y018762D01*
X049290Y018644D02*
X049618Y018644D01*
X049499Y018525D02*
X049290Y018525D01*
X049290Y018407D02*
X049381Y018407D01*
X049709Y018170D02*
X050844Y018170D01*
X050962Y018288D02*
X049828Y018288D01*
X049640Y018051D02*
X050725Y018051D01*
X050657Y017983D02*
X050657Y017983D01*
X050607Y017933D02*
X049640Y017933D01*
X049640Y017814D02*
X050540Y017814D01*
X050540Y017696D02*
X049640Y017696D01*
X049740Y017433D02*
X049690Y017383D01*
X049690Y016483D01*
X048990Y015783D01*
X048990Y014283D01*
X049640Y013633D01*
X052390Y013633D01*
X053980Y012043D01*
X054240Y012383D02*
X054640Y012383D01*
X054240Y012383D02*
X052740Y013883D01*
X050540Y013883D01*
X050089Y014335D01*
X050089Y015132D01*
X050084Y015383D02*
X050089Y015388D01*
X050570Y015388D01*
X050740Y015218D01*
X051077Y015207D02*
X051133Y015207D01*
X051077Y015264D02*
X051440Y014900D01*
X051557Y014783D01*
X053257Y014783D01*
X053740Y014300D01*
X053740Y013700D01*
X054130Y013310D01*
X054130Y013282D01*
X054208Y013094D01*
X054351Y012951D01*
X054514Y012883D01*
X054351Y012816D01*
X054221Y012685D01*
X052823Y014083D01*
X050623Y014083D01*
X050534Y014172D01*
X050702Y014172D01*
X050702Y014510D01*
X050778Y014510D01*
X050778Y014172D01*
X050958Y014172D01*
X050999Y014183D01*
X051035Y014204D01*
X051065Y014234D01*
X051086Y014270D01*
X051097Y014311D01*
X051097Y014510D01*
X050778Y014510D01*
X050778Y014587D01*
X051097Y014587D01*
X051097Y014786D01*
X051086Y014827D01*
X051065Y014863D01*
X051035Y014893D01*
X051030Y014896D01*
X051077Y014943D01*
X051077Y015264D01*
X051077Y015089D02*
X051252Y015089D01*
X051370Y014970D02*
X051077Y014970D01*
X051072Y014852D02*
X051489Y014852D01*
X051640Y014983D02*
X053340Y014983D01*
X053940Y014383D01*
X053940Y013783D01*
X054340Y013383D01*
X054640Y013383D01*
X054167Y013193D02*
X053713Y013193D01*
X053595Y013311D02*
X054129Y013311D01*
X054011Y013430D02*
X053476Y013430D01*
X053358Y013548D02*
X053892Y013548D01*
X053774Y013667D02*
X053239Y013667D01*
X053121Y013785D02*
X053740Y013785D01*
X053740Y013904D02*
X053002Y013904D01*
X052884Y014022D02*
X053740Y014022D01*
X053740Y014141D02*
X050565Y014141D01*
X050702Y014259D02*
X050778Y014259D01*
X050778Y014378D02*
X050702Y014378D01*
X050702Y014496D02*
X050778Y014496D01*
X050702Y014510D02*
X050383Y014510D01*
X050383Y014323D01*
X050289Y014417D01*
X050289Y014932D01*
X050342Y014932D01*
X050403Y014993D01*
X050403Y014943D01*
X050450Y014896D01*
X050445Y014893D01*
X050415Y014863D01*
X050394Y014827D01*
X050383Y014786D01*
X050383Y014587D01*
X050702Y014587D01*
X050702Y014510D01*
X050383Y014496D02*
X050289Y014496D01*
X050289Y014615D02*
X050383Y014615D01*
X050383Y014733D02*
X050289Y014733D01*
X050289Y014852D02*
X050408Y014852D01*
X050403Y014970D02*
X050380Y014970D01*
X051097Y014733D02*
X053307Y014733D01*
X053426Y014615D02*
X051097Y014615D01*
X051097Y014496D02*
X053544Y014496D01*
X053663Y014378D02*
X051097Y014378D01*
X051080Y014259D02*
X053740Y014259D01*
X054640Y014383D02*
X053740Y015283D01*
X051740Y015283D01*
X051124Y015899D01*
X050089Y015899D01*
X050089Y015644D02*
X050980Y015644D01*
X051640Y014983D01*
X051840Y015583D02*
X054440Y015583D01*
X054640Y015383D01*
X054140Y015883D02*
X054640Y016383D01*
X054167Y016193D02*
X054057Y016083D01*
X052223Y016083D01*
X051812Y016494D01*
X051695Y016611D01*
X050951Y016611D01*
X051223Y016883D01*
X051340Y017000D01*
X051340Y017500D01*
X051623Y017783D01*
X053957Y017783D01*
X054167Y017574D01*
X054130Y017485D01*
X054130Y017282D01*
X054208Y017094D01*
X054351Y016951D01*
X054514Y016883D01*
X054351Y016816D01*
X054208Y016672D01*
X054130Y016485D01*
X054130Y016282D01*
X054167Y016193D01*
X054129Y016155D02*
X053047Y016155D01*
X053187Y016214D02*
X052897Y016093D01*
X052583Y016093D01*
X052293Y016214D01*
X052070Y016436D01*
X051950Y016726D01*
X051950Y017040D01*
X052070Y017331D01*
X052293Y017553D01*
X052583Y017673D01*
X052897Y017673D01*
X053187Y017553D01*
X053410Y017331D01*
X053530Y017040D01*
X053530Y016726D01*
X053410Y016436D01*
X053187Y016214D01*
X053248Y016274D02*
X054133Y016274D01*
X054130Y016392D02*
X053366Y016392D01*
X053441Y016511D02*
X054141Y016511D01*
X054190Y016629D02*
X053490Y016629D01*
X053530Y016748D02*
X054283Y016748D01*
X054473Y016866D02*
X053530Y016866D01*
X053530Y016985D02*
X054317Y016985D01*
X054204Y017103D02*
X053504Y017103D01*
X053455Y017222D02*
X054155Y017222D01*
X054130Y017340D02*
X053400Y017340D01*
X053282Y017459D02*
X054130Y017459D01*
X054163Y017577D02*
X053129Y017577D01*
X052351Y017577D02*
X051417Y017577D01*
X051340Y017459D02*
X052198Y017459D01*
X052080Y017340D02*
X051340Y017340D01*
X051340Y017222D02*
X052025Y017222D01*
X051976Y017103D02*
X051340Y017103D01*
X051324Y016985D02*
X051950Y016985D01*
X051950Y016866D02*
X051206Y016866D01*
X051087Y016748D02*
X051950Y016748D01*
X051990Y016629D02*
X050969Y016629D01*
X050724Y016667D02*
X051140Y017083D01*
X051140Y017583D01*
X051540Y017983D01*
X054040Y017983D01*
X054640Y017383D01*
X054045Y017696D02*
X051535Y017696D01*
X051340Y018383D02*
X050740Y017783D01*
X050740Y017183D01*
X050480Y016923D01*
X050089Y016923D01*
X050089Y016667D02*
X050724Y016667D01*
X050089Y016411D02*
X051612Y016411D01*
X052140Y015883D01*
X054140Y015883D01*
X052433Y016155D02*
X052151Y016155D01*
X052232Y016274D02*
X052032Y016274D01*
X052114Y016392D02*
X051914Y016392D01*
X051795Y016511D02*
X052039Y016511D01*
X051268Y016155D02*
X050089Y016155D01*
X051268Y016155D02*
X051840Y015583D01*
X050084Y015383D02*
X049740Y015383D01*
X049440Y015083D01*
X049440Y014583D01*
X048790Y014615D02*
X048640Y014615D01*
X048640Y014733D02*
X048790Y014733D01*
X048790Y014852D02*
X048640Y014852D01*
X048640Y014970D02*
X048790Y014970D01*
X048790Y015089D02*
X048640Y015089D01*
X048640Y015207D02*
X048790Y015207D01*
X048790Y015326D02*
X048580Y015326D01*
X048462Y015444D02*
X048790Y015444D01*
X048790Y015563D02*
X048343Y015563D01*
X048126Y015681D02*
X048790Y015681D01*
X048790Y015800D02*
X048126Y015800D01*
X048126Y015918D02*
X048842Y015918D01*
X048218Y016411D02*
X047791Y016411D01*
X047791Y016667D02*
X047206Y016667D01*
X046740Y017133D01*
X046740Y022883D01*
X047200Y022910D02*
X047280Y022910D01*
X047280Y023028D02*
X047200Y023028D01*
X047200Y023147D02*
X047280Y023147D01*
X047280Y023265D02*
X047200Y023265D01*
X047280Y023295D02*
X047280Y022472D01*
X047350Y022303D01*
X047479Y022173D01*
X047648Y022103D01*
X047831Y022103D01*
X048001Y022173D01*
X048130Y022303D01*
X048200Y022472D01*
X048200Y023295D01*
X048130Y023464D01*
X048001Y023593D01*
X047831Y023663D01*
X047648Y023663D01*
X047479Y023593D01*
X047350Y023464D01*
X047280Y023295D01*
X047317Y023384D02*
X047163Y023384D01*
X047091Y023502D02*
X047389Y023502D01*
X047546Y023621D02*
X046934Y023621D01*
X046546Y023621D02*
X045934Y023621D01*
X046001Y023593D02*
X045831Y023663D01*
X045648Y023663D01*
X045479Y023593D01*
X045350Y023464D01*
X045280Y023295D01*
X045280Y022472D01*
X045350Y022303D01*
X045479Y022173D01*
X045648Y022103D01*
X045831Y022103D01*
X046001Y022173D01*
X046130Y022303D01*
X046200Y022472D01*
X046200Y023295D01*
X046130Y023464D01*
X046001Y023593D01*
X046091Y023502D02*
X046389Y023502D01*
X046317Y023384D02*
X046163Y023384D01*
X046200Y023265D02*
X046280Y023265D01*
X046280Y023147D02*
X046200Y023147D01*
X046200Y023028D02*
X046280Y023028D01*
X046280Y022910D02*
X046200Y022910D01*
X046200Y022791D02*
X046280Y022791D01*
X046280Y022673D02*
X046200Y022673D01*
X046200Y022554D02*
X046280Y022554D01*
X046295Y022436D02*
X046185Y022436D01*
X046136Y022317D02*
X046344Y022317D01*
X046454Y022199D02*
X046026Y022199D01*
X046540Y022080D02*
X044940Y022080D01*
X044940Y021962D02*
X046540Y021962D01*
X046540Y021843D02*
X044940Y021843D01*
X044940Y021725D02*
X046540Y021725D01*
X046540Y021606D02*
X044940Y021606D01*
X044940Y021488D02*
X046540Y021488D01*
X046540Y021369D02*
X044940Y021369D01*
X044940Y021251D02*
X046540Y021251D01*
X046540Y021132D02*
X044940Y021132D01*
X044940Y021014D02*
X046540Y021014D01*
X046540Y020895D02*
X044940Y020895D01*
X044940Y020777D02*
X046540Y020777D01*
X046540Y020658D02*
X044940Y020658D01*
X044940Y020540D02*
X046540Y020540D01*
X046540Y020421D02*
X044940Y020421D01*
X044940Y020303D02*
X046540Y020303D01*
X046540Y020184D02*
X044940Y020184D01*
X044940Y020066D02*
X046540Y020066D01*
X046540Y019947D02*
X044940Y019947D01*
X044940Y019829D02*
X046540Y019829D01*
X046540Y019710D02*
X044940Y019710D01*
X044940Y019592D02*
X046540Y019592D01*
X046540Y019473D02*
X044940Y019473D01*
X044940Y019355D02*
X046540Y019355D01*
X046540Y019236D02*
X044940Y019236D01*
X044940Y019118D02*
X046540Y019118D01*
X046540Y018999D02*
X044940Y018999D01*
X044940Y018881D02*
X046540Y018881D01*
X046540Y018762D02*
X044940Y018762D01*
X044940Y018644D02*
X046540Y018644D01*
X046940Y018644D02*
X048540Y018644D01*
X048540Y018762D02*
X046940Y018762D01*
X046940Y018881D02*
X048540Y018881D01*
X048540Y018999D02*
X046940Y018999D01*
X046940Y019118D02*
X048540Y019118D01*
X048540Y019236D02*
X046940Y019236D01*
X046940Y019355D02*
X048540Y019355D01*
X048540Y019473D02*
X046940Y019473D01*
X046940Y019592D02*
X048540Y019592D01*
X048540Y019710D02*
X046940Y019710D01*
X046940Y019829D02*
X048540Y019829D01*
X048540Y019947D02*
X046940Y019947D01*
X046940Y020066D02*
X048540Y020066D01*
X048540Y020184D02*
X046940Y020184D01*
X046940Y020303D02*
X048540Y020303D01*
X048540Y020421D02*
X046940Y020421D01*
X046940Y020540D02*
X048540Y020540D01*
X048540Y020658D02*
X046940Y020658D01*
X046940Y020777D02*
X048540Y020777D01*
X048540Y020895D02*
X046940Y020895D01*
X046940Y021014D02*
X048540Y021014D01*
X048540Y021132D02*
X046940Y021132D01*
X046940Y021251D02*
X048540Y021251D01*
X048540Y021369D02*
X046940Y021369D01*
X046940Y021488D02*
X048540Y021488D01*
X048540Y021606D02*
X046940Y021606D01*
X046940Y021725D02*
X048540Y021725D01*
X048540Y021843D02*
X046940Y021843D01*
X046940Y021962D02*
X048540Y021962D01*
X048540Y022080D02*
X046940Y022080D01*
X047026Y022199D02*
X047454Y022199D01*
X047344Y022317D02*
X047136Y022317D01*
X047185Y022436D02*
X047295Y022436D01*
X047280Y022554D02*
X047200Y022554D01*
X047200Y022673D02*
X047280Y022673D01*
X047280Y022791D02*
X047200Y022791D01*
X048200Y022791D02*
X048280Y022791D01*
X048280Y022673D02*
X048200Y022673D01*
X048200Y022554D02*
X048280Y022554D01*
X048295Y022436D02*
X048185Y022436D01*
X048136Y022317D02*
X048344Y022317D01*
X048454Y022199D02*
X048026Y022199D01*
X048940Y022080D02*
X049540Y022080D01*
X049454Y022199D02*
X049026Y022199D01*
X049136Y022317D02*
X049344Y022317D01*
X049295Y022436D02*
X049185Y022436D01*
X049200Y022554D02*
X049280Y022554D01*
X049280Y022673D02*
X049200Y022673D01*
X049200Y022791D02*
X049280Y022791D01*
X049280Y022910D02*
X049200Y022910D01*
X049200Y023028D02*
X049280Y023028D01*
X049280Y023147D02*
X049200Y023147D01*
X049200Y023265D02*
X049280Y023265D01*
X049317Y023384D02*
X049163Y023384D01*
X049091Y023502D02*
X049389Y023502D01*
X049546Y023621D02*
X048934Y023621D01*
X048546Y023621D02*
X047934Y023621D01*
X048091Y023502D02*
X048389Y023502D01*
X048317Y023384D02*
X048163Y023384D01*
X048200Y023265D02*
X048280Y023265D01*
X048280Y023147D02*
X048200Y023147D01*
X048200Y023028D02*
X048280Y023028D01*
X048280Y022910D02*
X048200Y022910D01*
X048740Y022883D02*
X048740Y017383D01*
X048280Y016923D01*
X047791Y016923D01*
X047456Y016985D02*
X047171Y016985D01*
X047053Y017103D02*
X047456Y017103D01*
X047456Y017222D02*
X046940Y017222D01*
X046940Y017340D02*
X047440Y017340D01*
X047456Y017297D02*
X047456Y017297D01*
X047436Y017459D02*
X046940Y017459D01*
X046940Y017577D02*
X047459Y017577D01*
X047791Y017577D02*
X047791Y017577D01*
X047791Y017655D02*
X047791Y017435D01*
X047791Y017435D01*
X047791Y017655D01*
X047791Y017459D02*
X047791Y017459D01*
X047791Y017435D02*
X048146Y017435D01*
X047791Y017435D01*
X047791Y017435D01*
X048146Y017459D02*
X048533Y017459D01*
X048540Y017577D02*
X048123Y017577D01*
X048143Y017340D02*
X048414Y017340D01*
X048296Y017222D02*
X048126Y017222D01*
X048126Y017297D02*
X048126Y017297D01*
X048218Y016411D02*
X049090Y017283D01*
X049090Y021333D01*
X049740Y021983D01*
X049740Y022883D01*
X050200Y022910D02*
X050280Y022910D01*
X050280Y023028D02*
X050200Y023028D01*
X050200Y023147D02*
X050280Y023147D01*
X050280Y023265D02*
X050200Y023265D01*
X050280Y023295D02*
X050280Y022472D01*
X050350Y022303D01*
X050479Y022173D01*
X050648Y022103D01*
X050831Y022103D01*
X051001Y022173D01*
X051130Y022303D01*
X051200Y022472D01*
X051200Y023295D01*
X051130Y023464D01*
X051001Y023593D01*
X050831Y023663D01*
X050648Y023663D01*
X050479Y023593D01*
X050350Y023464D01*
X050280Y023295D01*
X050317Y023384D02*
X050163Y023384D01*
X050091Y023502D02*
X050389Y023502D01*
X050546Y023621D02*
X049934Y023621D01*
X050934Y023621D02*
X051546Y023621D01*
X051479Y023593D02*
X051350Y023464D01*
X051280Y023295D01*
X051280Y022472D01*
X051350Y022303D01*
X051479Y022173D01*
X051648Y022103D01*
X051831Y022103D01*
X052001Y022173D01*
X052130Y022303D01*
X052200Y022472D01*
X052200Y023295D01*
X052130Y023464D01*
X052001Y023593D01*
X051831Y023663D01*
X051648Y023663D01*
X051479Y023593D01*
X051389Y023502D02*
X051091Y023502D01*
X051163Y023384D02*
X051317Y023384D01*
X051280Y023265D02*
X051200Y023265D01*
X051200Y023147D02*
X051280Y023147D01*
X051280Y023028D02*
X051200Y023028D01*
X051200Y022910D02*
X051280Y022910D01*
X051280Y022791D02*
X051200Y022791D01*
X051200Y022673D02*
X051280Y022673D01*
X051280Y022554D02*
X051200Y022554D01*
X051185Y022436D02*
X051295Y022436D01*
X051344Y022317D02*
X051136Y022317D01*
X051026Y022199D02*
X051454Y022199D01*
X052026Y022199D02*
X052580Y022199D01*
X052580Y022317D02*
X052136Y022317D01*
X052185Y022436D02*
X052580Y022436D01*
X052580Y022554D02*
X052200Y022554D01*
X052200Y022673D02*
X052580Y022673D01*
X052580Y022791D02*
X052200Y022791D01*
X052200Y022910D02*
X052580Y022910D01*
X052580Y023028D02*
X052200Y023028D01*
X052200Y023147D02*
X052580Y023147D01*
X052532Y023265D02*
X052200Y023265D01*
X052163Y023384D02*
X052413Y023384D01*
X052295Y023502D02*
X052091Y023502D01*
X052176Y023621D02*
X051934Y023621D01*
X050280Y022791D02*
X050200Y022791D01*
X050200Y022673D02*
X050280Y022673D01*
X050280Y022554D02*
X050200Y022554D01*
X050185Y022436D02*
X050295Y022436D01*
X050344Y022317D02*
X050136Y022317D01*
X050026Y022199D02*
X050454Y022199D01*
X049940Y022080D02*
X052580Y022080D01*
X052580Y021962D02*
X049940Y021962D01*
X049883Y021843D02*
X052580Y021843D01*
X052580Y021725D02*
X049764Y021725D01*
X049646Y021606D02*
X052591Y021606D01*
X052674Y021523D02*
X052674Y021523D01*
X052709Y021488D02*
X049527Y021488D01*
X049409Y021369D02*
X052828Y021369D01*
X052946Y021251D02*
X049290Y021251D01*
X049290Y021132D02*
X053065Y021132D01*
X053183Y021014D02*
X049290Y021014D01*
X049290Y020895D02*
X053302Y020895D01*
X053420Y020777D02*
X049290Y020777D01*
X049290Y020658D02*
X053539Y020658D01*
X053580Y020617D02*
X053580Y020617D01*
X053657Y020540D02*
X049290Y020540D01*
X049290Y020421D02*
X055190Y020421D01*
X055192Y020303D02*
X049290Y020303D01*
X049290Y020184D02*
X055194Y020184D01*
X055195Y020066D02*
X049290Y020066D01*
X049290Y019947D02*
X055197Y019947D01*
X055199Y019829D02*
X049290Y019829D01*
X049290Y019710D02*
X055200Y019710D01*
X055202Y019592D02*
X049290Y019592D01*
X049290Y019473D02*
X053707Y019473D01*
X053566Y019355D02*
X049290Y019355D01*
X049290Y019236D02*
X053521Y019236D01*
X053522Y019118D02*
X049290Y019118D01*
X048540Y018525D02*
X046940Y018525D01*
X046940Y018407D02*
X048540Y018407D01*
X048540Y018288D02*
X046940Y018288D01*
X046940Y018170D02*
X048540Y018170D01*
X048540Y018051D02*
X046940Y018051D01*
X046940Y017933D02*
X048540Y017933D01*
X048540Y017814D02*
X046940Y017814D01*
X046940Y017696D02*
X048540Y017696D01*
X049740Y017433D02*
X050087Y017433D01*
X050089Y017435D01*
X050424Y017459D02*
X050540Y017459D01*
X050540Y017577D02*
X050399Y017577D01*
X050424Y017340D02*
X050540Y017340D01*
X050496Y017222D02*
X050424Y017222D01*
X051340Y018383D02*
X054640Y018383D01*
X055133Y018525D02*
X055147Y018525D01*
X055196Y018644D02*
X055084Y018644D01*
X054982Y018762D02*
X055214Y018762D01*
X055212Y018881D02*
X054772Y018881D01*
X054508Y018881D02*
X053943Y018881D01*
X053840Y019183D02*
X056840Y019183D01*
X057440Y018583D01*
X057440Y017383D01*
X058440Y016383D01*
X061640Y016383D01*
X061171Y016183D02*
X061208Y016094D01*
X061351Y015951D01*
X061514Y015883D01*
X061351Y015816D01*
X061208Y015672D01*
X061171Y015583D01*
X057557Y015583D01*
X057140Y015166D01*
X057140Y014509D01*
X057072Y014672D01*
X056929Y014816D01*
X056766Y014883D01*
X056929Y014951D01*
X057072Y015094D01*
X057150Y015282D01*
X057150Y015485D01*
X057072Y015672D01*
X056929Y015816D01*
X056766Y015883D01*
X056929Y015951D01*
X057072Y016094D01*
X057150Y016282D01*
X057150Y016485D01*
X057072Y016672D01*
X056929Y016816D01*
X056766Y016883D01*
X057657Y016883D01*
X058240Y016300D01*
X058357Y016183D01*
X061171Y016183D01*
X061182Y016155D02*
X057098Y016155D01*
X057147Y016274D02*
X058267Y016274D01*
X058148Y016392D02*
X057150Y016392D01*
X057139Y016511D02*
X058030Y016511D01*
X057911Y016629D02*
X057090Y016629D01*
X056997Y016748D02*
X057793Y016748D01*
X057674Y016866D02*
X056807Y016866D01*
X060005Y017118D02*
X060005Y017383D01*
X060005Y017118D02*
X060240Y016883D01*
X061140Y016883D01*
X061640Y017383D01*
X061040Y017883D02*
X060675Y017518D01*
X060675Y017383D01*
X060440Y017883D02*
X059940Y017883D01*
X060440Y017883D02*
X060640Y018083D01*
X060640Y018349D01*
X060675Y018383D01*
X060240Y018883D02*
X060005Y018649D01*
X060005Y018383D01*
X060240Y018883D02*
X061140Y018883D01*
X061640Y018383D01*
X063807Y016866D02*
X064480Y016866D01*
X064480Y016748D02*
X063997Y016748D01*
X064090Y016629D02*
X064480Y016629D01*
X064480Y016511D02*
X064139Y016511D01*
X064150Y016392D02*
X064480Y016392D01*
X064480Y016274D02*
X064147Y016274D01*
X064098Y016155D02*
X064480Y016155D01*
X064480Y016037D02*
X064015Y016037D01*
X063850Y015918D02*
X064480Y015918D01*
X064480Y015800D02*
X063945Y015800D01*
X064063Y015681D02*
X064480Y015681D01*
X064480Y015563D02*
X064118Y015563D01*
X064150Y015444D02*
X064480Y015444D01*
X064480Y015326D02*
X064150Y015326D01*
X064119Y015207D02*
X064480Y015207D01*
X064480Y015089D02*
X064067Y015089D01*
X063948Y014970D02*
X064480Y014970D01*
X064480Y014852D02*
X063842Y014852D01*
X064011Y014733D02*
X064480Y014733D01*
X064480Y014615D02*
X064096Y014615D01*
X064145Y014496D02*
X064480Y014496D01*
X064480Y014378D02*
X064150Y014378D01*
X064141Y014259D02*
X064480Y014259D01*
X064480Y014141D02*
X064092Y014141D01*
X064000Y014022D02*
X064480Y014022D01*
X064480Y013904D02*
X063815Y013904D01*
X063959Y013785D02*
X064480Y013785D01*
X064480Y013667D02*
X064075Y013667D01*
X064124Y013548D02*
X064480Y013548D01*
X064480Y013430D02*
X064150Y013430D01*
X064150Y013311D02*
X064480Y013311D01*
X064480Y013193D02*
X064113Y013193D01*
X064052Y013074D02*
X064480Y013074D01*
X064480Y012956D02*
X063934Y012956D01*
X063877Y012837D02*
X064480Y012837D01*
X064480Y012719D02*
X064026Y012719D01*
X064102Y012600D02*
X064480Y012600D01*
X064480Y012482D02*
X064150Y012482D01*
X064150Y012363D02*
X064480Y012363D01*
X064480Y012245D02*
X064135Y012245D01*
X064086Y012126D02*
X064480Y012126D01*
X064480Y012008D02*
X063986Y012008D01*
X060120Y013074D02*
X058214Y013074D01*
X058140Y012956D02*
X060001Y012956D01*
X059883Y012837D02*
X058140Y012837D01*
X058140Y012719D02*
X059729Y012719D01*
X057885Y013311D02*
X057840Y013311D01*
X057840Y013430D02*
X058004Y013430D01*
X058122Y013548D02*
X057840Y013548D01*
X057540Y014266D02*
X057540Y015000D01*
X057723Y015183D01*
X061171Y015183D01*
X061208Y015094D01*
X061351Y014951D01*
X061514Y014883D01*
X061351Y014816D01*
X061208Y014672D01*
X061171Y014583D01*
X057857Y014583D01*
X057540Y014266D01*
X057540Y014378D02*
X057652Y014378D01*
X057540Y014496D02*
X057770Y014496D01*
X057940Y014383D02*
X061640Y014383D01*
X061269Y014733D02*
X057540Y014733D01*
X057540Y014615D02*
X061184Y014615D01*
X061438Y014852D02*
X057540Y014852D01*
X057540Y014970D02*
X061332Y014970D01*
X061213Y015089D02*
X057628Y015089D01*
X057340Y015083D02*
X057640Y015383D01*
X061640Y015383D01*
X061335Y015800D02*
X056945Y015800D01*
X056850Y015918D02*
X061430Y015918D01*
X061265Y016037D02*
X057015Y016037D01*
X057063Y015681D02*
X061217Y015681D01*
X057537Y015563D02*
X057118Y015563D01*
X057150Y015444D02*
X057418Y015444D01*
X057300Y015326D02*
X057150Y015326D01*
X057119Y015207D02*
X057181Y015207D01*
X057140Y015089D02*
X057067Y015089D01*
X057140Y014970D02*
X056948Y014970D01*
X056842Y014852D02*
X057140Y014852D01*
X057140Y014733D02*
X057011Y014733D01*
X057096Y014615D02*
X057140Y014615D01*
X057340Y015083D02*
X057340Y006983D01*
X059140Y006083D02*
X059140Y008483D01*
X061295Y007979D02*
X061362Y007930D01*
X061415Y007903D01*
X059533Y007860D02*
X059340Y007860D01*
X059340Y007742D02*
X059363Y007742D01*
X061680Y008343D02*
X061680Y008423D01*
X062110Y008423D01*
X062600Y008423D01*
X062600Y008343D01*
X061680Y008343D01*
X062680Y008343D02*
X062680Y008423D01*
X063600Y008423D01*
X063600Y008343D01*
X063170Y008343D01*
X062680Y008343D01*
X059841Y010467D02*
X059407Y010467D01*
X052540Y009401D02*
X051340Y009401D01*
X051340Y009282D02*
X052540Y009282D01*
X052540Y009164D02*
X051340Y009164D01*
X051340Y009045D02*
X052540Y009045D01*
X052540Y008927D02*
X051340Y008927D01*
X051340Y008808D02*
X052540Y008808D01*
X052540Y008690D02*
X051340Y008690D01*
X051340Y008571D02*
X052540Y008571D01*
X052540Y008453D02*
X051340Y008453D01*
X050940Y008072D02*
X050940Y005400D01*
X051340Y005000D01*
X051357Y004983D01*
X050823Y004983D01*
X050289Y005517D01*
X050289Y008832D01*
X050342Y008832D01*
X050403Y008893D01*
X050403Y008843D01*
X050450Y008796D01*
X050445Y008793D01*
X050415Y008763D01*
X050394Y008727D01*
X050383Y008686D01*
X050383Y008487D01*
X050702Y008487D01*
X050702Y008410D01*
X050778Y008410D01*
X050778Y008072D01*
X050940Y008072D01*
X050940Y007979D02*
X050289Y007979D01*
X050289Y008097D02*
X050457Y008097D01*
X050445Y008104D02*
X050481Y008083D01*
X050522Y008072D01*
X050702Y008072D01*
X050702Y008410D01*
X050383Y008410D01*
X050383Y008211D01*
X050394Y008170D01*
X050415Y008134D01*
X050445Y008104D01*
X050383Y008216D02*
X050289Y008216D01*
X050289Y008334D02*
X050383Y008334D01*
X050289Y008453D02*
X050702Y008453D01*
X050702Y008334D02*
X050778Y008334D01*
X050778Y008216D02*
X050702Y008216D01*
X050702Y008097D02*
X050778Y008097D01*
X050940Y007860D02*
X050289Y007860D01*
X050289Y007742D02*
X050940Y007742D01*
X050940Y007623D02*
X050289Y007623D01*
X050289Y007505D02*
X050940Y007505D01*
X050940Y007386D02*
X050289Y007386D01*
X050289Y007268D02*
X050940Y007268D01*
X050940Y007149D02*
X050289Y007149D01*
X050289Y007031D02*
X050940Y007031D01*
X050940Y006912D02*
X050289Y006912D01*
X050289Y006794D02*
X050940Y006794D01*
X050940Y006675D02*
X050289Y006675D01*
X050289Y006557D02*
X050940Y006557D01*
X050940Y006438D02*
X050289Y006438D01*
X050289Y006320D02*
X050940Y006320D01*
X050940Y006201D02*
X050289Y006201D01*
X050289Y006083D02*
X050940Y006083D01*
X050940Y005964D02*
X050289Y005964D01*
X050289Y005846D02*
X050940Y005846D01*
X050940Y005727D02*
X050289Y005727D01*
X050289Y005609D02*
X050940Y005609D01*
X050940Y005490D02*
X050316Y005490D01*
X050434Y005372D02*
X050969Y005372D01*
X051087Y005253D02*
X050553Y005253D01*
X050671Y005135D02*
X051206Y005135D01*
X051324Y005016D02*
X050790Y005016D01*
X050740Y004783D02*
X052240Y004783D01*
X052740Y004283D01*
X057340Y004283D01*
X059140Y006083D01*
X057701Y005727D02*
X054479Y005727D01*
X054597Y005609D02*
X057583Y005609D01*
X057464Y005490D02*
X054716Y005490D01*
X054834Y005372D02*
X057346Y005372D01*
X057227Y005253D02*
X054953Y005253D01*
X055071Y005135D02*
X057109Y005135D01*
X052554Y004187D02*
X052200Y004187D01*
X052196Y004305D02*
X052435Y004305D01*
X052317Y004424D02*
X052147Y004424D01*
X052198Y004542D02*
X052052Y004542D01*
X051428Y004542D02*
X051052Y004542D01*
X051147Y004424D02*
X051333Y004424D01*
X051284Y004305D02*
X051196Y004305D01*
X051200Y004187D02*
X051280Y004187D01*
X051280Y004068D02*
X051200Y004068D01*
X051200Y003950D02*
X051280Y003950D01*
X051280Y003831D02*
X051200Y003831D01*
X051200Y003713D02*
X051280Y003713D01*
X051280Y003594D02*
X051200Y003594D01*
X051200Y003476D02*
X051280Y003476D01*
X051327Y003357D02*
X051153Y003357D01*
X051066Y003239D02*
X051414Y003239D01*
X051607Y003120D02*
X050873Y003120D01*
X050607Y003120D02*
X049873Y003120D01*
X049831Y003103D02*
X050001Y003173D01*
X050130Y003303D01*
X050200Y003472D01*
X050200Y004295D01*
X050130Y004464D01*
X050001Y004593D01*
X049831Y004663D01*
X049648Y004663D01*
X049479Y004593D01*
X049350Y004464D01*
X049280Y004295D01*
X049280Y003472D01*
X049350Y003303D01*
X049479Y003173D01*
X049648Y003103D01*
X049831Y003103D01*
X049607Y003120D02*
X048873Y003120D01*
X048831Y003103D02*
X049001Y003173D01*
X049130Y003303D01*
X049200Y003472D01*
X049200Y004295D01*
X049130Y004464D01*
X049001Y004593D01*
X048831Y004663D01*
X048648Y004663D01*
X048479Y004593D01*
X048350Y004464D01*
X048280Y004295D01*
X048280Y003472D01*
X048350Y003303D01*
X048479Y003173D01*
X048648Y003103D01*
X048831Y003103D01*
X048607Y003120D02*
X047873Y003120D01*
X047831Y003103D02*
X048001Y003173D01*
X048130Y003303D01*
X048200Y003472D01*
X048200Y004295D01*
X048130Y004464D01*
X048001Y004593D01*
X047831Y004663D01*
X047648Y004663D01*
X047479Y004593D01*
X047350Y004464D01*
X047280Y004295D01*
X047280Y003472D01*
X047350Y003303D01*
X047479Y003173D01*
X047648Y003103D01*
X047831Y003103D01*
X047607Y003120D02*
X046873Y003120D01*
X046831Y003103D02*
X047001Y003173D01*
X047130Y003303D01*
X047200Y003472D01*
X047200Y004295D01*
X047130Y004464D01*
X047001Y004593D01*
X046831Y004663D01*
X046648Y004663D01*
X046479Y004593D01*
X046350Y004464D01*
X046280Y004295D01*
X046280Y003472D01*
X046350Y003303D01*
X046479Y003173D01*
X046648Y003103D01*
X046831Y003103D01*
X046607Y003120D02*
X044873Y003120D01*
X045066Y003239D02*
X046414Y003239D01*
X046327Y003357D02*
X045153Y003357D01*
X045200Y003476D02*
X046280Y003476D01*
X046280Y003594D02*
X045200Y003594D01*
X045200Y003713D02*
X046280Y003713D01*
X046280Y003831D02*
X045200Y003831D01*
X045200Y003950D02*
X046280Y003950D01*
X046280Y004068D02*
X045200Y004068D01*
X045200Y004187D02*
X046280Y004187D01*
X046284Y004305D02*
X045196Y004305D01*
X045147Y004424D02*
X046333Y004424D01*
X046428Y004542D02*
X045130Y004542D01*
X045130Y004661D02*
X046642Y004661D01*
X046838Y004661D02*
X047642Y004661D01*
X047838Y004661D02*
X048642Y004661D01*
X048838Y004661D02*
X049642Y004661D01*
X049838Y004661D02*
X050580Y004661D01*
X050461Y004779D02*
X045130Y004779D01*
X045130Y004898D02*
X050343Y004898D01*
X050224Y005016D02*
X045130Y005016D01*
X045130Y005135D02*
X050106Y005135D01*
X049987Y005253D02*
X045130Y005253D01*
X045130Y005372D02*
X049889Y005372D01*
X049889Y005490D02*
X045130Y005490D01*
X045130Y005609D02*
X049889Y005609D01*
X049889Y005727D02*
X045130Y005727D01*
X045130Y005846D02*
X049889Y005846D01*
X049889Y005964D02*
X046572Y005964D01*
X046673Y006083D02*
X049889Y006083D01*
X049889Y006201D02*
X046709Y006201D01*
X046699Y006320D02*
X049889Y006320D01*
X049889Y006438D02*
X046660Y006438D01*
X046660Y006414D02*
X046660Y006414D01*
X046220Y006557D02*
X045018Y006557D01*
X045098Y006438D02*
X046144Y006438D01*
X046081Y006320D02*
X045130Y006320D01*
X045130Y006201D02*
X046071Y006201D01*
X046107Y006083D02*
X045130Y006083D01*
X045130Y005964D02*
X046208Y005964D01*
X044350Y005964D02*
X041111Y005964D01*
X041229Y005846D02*
X044350Y005846D01*
X044350Y005727D02*
X041348Y005727D01*
X041466Y005609D02*
X044350Y005609D01*
X044350Y005490D02*
X041585Y005490D01*
X041703Y005372D02*
X044350Y005372D01*
X044350Y005253D02*
X041822Y005253D01*
X041940Y005135D02*
X044350Y005135D01*
X044350Y005016D02*
X042059Y005016D01*
X042071Y005004D02*
X041961Y005114D01*
X040061Y007014D01*
X039918Y007073D01*
X039762Y007073D01*
X038962Y007073D01*
X038819Y007014D01*
X038709Y006904D01*
X038650Y006761D01*
X038650Y006606D01*
X038709Y006462D01*
X038819Y006353D01*
X038962Y006293D01*
X039678Y006293D01*
X041350Y004622D01*
X041350Y004464D01*
X041280Y004295D01*
X041280Y003472D01*
X041350Y003303D01*
X041479Y003173D01*
X041648Y003103D01*
X041831Y003103D01*
X042001Y003173D01*
X042130Y003303D01*
X042200Y003472D01*
X042200Y004295D01*
X042130Y004464D01*
X042130Y004861D01*
X042071Y005004D01*
X042115Y004898D02*
X044350Y004898D01*
X044350Y004779D02*
X042130Y004779D01*
X042130Y004661D02*
X042595Y004661D01*
X042628Y004672D02*
X042556Y004648D01*
X042488Y004614D01*
X042427Y004569D01*
X042374Y004516D01*
X042329Y004455D01*
X042295Y004388D01*
X042272Y004316D01*
X042260Y004241D01*
X042260Y003923D01*
X042700Y003923D01*
X042700Y003843D01*
X042780Y003843D01*
X042780Y003084D01*
X042852Y003095D01*
X042924Y003118D01*
X042992Y003153D01*
X043053Y003197D01*
X043106Y003251D01*
X043151Y003312D01*
X043185Y003379D01*
X043208Y003451D01*
X043220Y003526D01*
X043220Y003843D01*
X042780Y003843D01*
X042780Y003923D01*
X043220Y003923D01*
X043220Y004241D01*
X043208Y004316D01*
X043185Y004388D01*
X043151Y004455D01*
X043106Y004516D01*
X043053Y004569D01*
X042992Y004614D01*
X042924Y004648D01*
X042852Y004672D01*
X042780Y004683D01*
X042780Y003923D01*
X042700Y003923D01*
X042700Y004683D01*
X042628Y004672D01*
X042700Y004661D02*
X042780Y004661D01*
X042885Y004661D02*
X043595Y004661D01*
X043628Y004672D02*
X043556Y004648D01*
X043488Y004614D01*
X043427Y004569D01*
X043374Y004516D01*
X043329Y004455D01*
X043295Y004388D01*
X043272Y004316D01*
X043260Y004241D01*
X043260Y003923D01*
X043700Y003923D01*
X043700Y003843D01*
X043780Y003843D01*
X043780Y003084D01*
X043852Y003095D01*
X043924Y003118D01*
X043992Y003153D01*
X044053Y003197D01*
X044106Y003251D01*
X044151Y003312D01*
X044185Y003379D01*
X044208Y003451D01*
X044220Y003526D01*
X044220Y003843D01*
X043780Y003843D01*
X043780Y003923D01*
X044220Y003923D01*
X044220Y004241D01*
X044208Y004316D01*
X044185Y004388D01*
X044151Y004455D01*
X044106Y004516D01*
X044053Y004569D01*
X043992Y004614D01*
X043924Y004648D01*
X043852Y004672D01*
X043780Y004683D01*
X043780Y003923D01*
X043700Y003923D01*
X043700Y004683D01*
X043628Y004672D01*
X043700Y004661D02*
X043780Y004661D01*
X043885Y004661D02*
X044350Y004661D01*
X044350Y004542D02*
X044080Y004542D01*
X044166Y004424D02*
X044333Y004424D01*
X044284Y004305D02*
X044210Y004305D01*
X044220Y004187D02*
X044280Y004187D01*
X044280Y004068D02*
X044220Y004068D01*
X044220Y003950D02*
X044280Y003950D01*
X044280Y003831D02*
X044220Y003831D01*
X044220Y003713D02*
X044280Y003713D01*
X044280Y003594D02*
X044220Y003594D01*
X044212Y003476D02*
X044280Y003476D01*
X044327Y003357D02*
X044174Y003357D01*
X044094Y003239D02*
X044414Y003239D01*
X044607Y003120D02*
X043928Y003120D01*
X043780Y003120D02*
X043700Y003120D01*
X043700Y003084D02*
X043700Y003843D01*
X043260Y003843D01*
X043260Y003526D01*
X043272Y003451D01*
X043295Y003379D01*
X043329Y003312D01*
X043374Y003251D01*
X043427Y003197D01*
X043488Y003153D01*
X043556Y003118D01*
X043628Y003095D01*
X043700Y003084D01*
X043552Y003120D02*
X042928Y003120D01*
X042780Y003120D02*
X042700Y003120D01*
X042700Y003084D02*
X042700Y003843D01*
X042260Y003843D01*
X042260Y003526D01*
X042272Y003451D01*
X042295Y003379D01*
X042329Y003312D01*
X042374Y003251D01*
X042427Y003197D01*
X042488Y003153D01*
X042556Y003118D01*
X042628Y003095D01*
X042700Y003084D01*
X042552Y003120D02*
X041873Y003120D01*
X042066Y003239D02*
X042386Y003239D01*
X042306Y003357D02*
X042153Y003357D01*
X042200Y003476D02*
X042268Y003476D01*
X042260Y003594D02*
X042200Y003594D01*
X042200Y003713D02*
X042260Y003713D01*
X042260Y003831D02*
X042200Y003831D01*
X042200Y003950D02*
X042260Y003950D01*
X042260Y004068D02*
X042200Y004068D01*
X042200Y004187D02*
X042260Y004187D01*
X042270Y004305D02*
X042196Y004305D01*
X042147Y004424D02*
X042314Y004424D01*
X042400Y004542D02*
X042130Y004542D01*
X042700Y004542D02*
X042780Y004542D01*
X042780Y004424D02*
X042700Y004424D01*
X042700Y004305D02*
X042780Y004305D01*
X042780Y004187D02*
X042700Y004187D01*
X042700Y004068D02*
X042780Y004068D01*
X042780Y003950D02*
X042700Y003950D01*
X042700Y003831D02*
X042780Y003831D01*
X042780Y003713D02*
X042700Y003713D01*
X042700Y003594D02*
X042780Y003594D01*
X042780Y003476D02*
X042700Y003476D01*
X042700Y003357D02*
X042780Y003357D01*
X042780Y003239D02*
X042700Y003239D01*
X043094Y003239D02*
X043386Y003239D01*
X043306Y003357D02*
X043174Y003357D01*
X043212Y003476D02*
X043268Y003476D01*
X043260Y003594D02*
X043220Y003594D01*
X043220Y003713D02*
X043260Y003713D01*
X043260Y003831D02*
X043220Y003831D01*
X043220Y003950D02*
X043260Y003950D01*
X043260Y004068D02*
X043220Y004068D01*
X043220Y004187D02*
X043260Y004187D01*
X043270Y004305D02*
X043210Y004305D01*
X043166Y004424D02*
X043314Y004424D01*
X043400Y004542D02*
X043080Y004542D01*
X043700Y004542D02*
X043780Y004542D01*
X043780Y004424D02*
X043700Y004424D01*
X043700Y004305D02*
X043780Y004305D01*
X043780Y004187D02*
X043700Y004187D01*
X043700Y004068D02*
X043780Y004068D01*
X043780Y003950D02*
X043700Y003950D01*
X043700Y003831D02*
X043780Y003831D01*
X043780Y003713D02*
X043700Y003713D01*
X043700Y003594D02*
X043780Y003594D01*
X043780Y003476D02*
X043700Y003476D01*
X043700Y003357D02*
X043780Y003357D01*
X043780Y003239D02*
X043700Y003239D01*
X041607Y003120D02*
X040873Y003120D01*
X040831Y003103D02*
X041001Y003173D01*
X041130Y003303D01*
X041200Y003472D01*
X041200Y004295D01*
X041130Y004464D01*
X041001Y004593D01*
X040831Y004663D01*
X040648Y004663D01*
X040479Y004593D01*
X040350Y004464D01*
X040280Y004295D01*
X040280Y003472D01*
X040350Y003303D01*
X040479Y003173D01*
X040648Y003103D01*
X040831Y003103D01*
X040607Y003120D02*
X039873Y003120D01*
X039831Y003103D02*
X040001Y003173D01*
X040130Y003303D01*
X040200Y003472D01*
X040200Y004295D01*
X040130Y004464D01*
X040001Y004593D01*
X039831Y004663D01*
X039648Y004663D01*
X039479Y004593D01*
X039350Y004464D01*
X039280Y004295D01*
X039280Y003472D01*
X039350Y003303D01*
X039479Y003173D01*
X039648Y003103D01*
X039831Y003103D01*
X039607Y003120D02*
X032462Y003120D01*
X032397Y003093D02*
X032687Y003214D01*
X032910Y003436D01*
X033030Y003726D01*
X033030Y004040D01*
X032910Y004331D01*
X032687Y004553D01*
X032397Y004673D01*
X032083Y004673D01*
X031793Y004553D01*
X031570Y004331D01*
X031450Y004040D01*
X031450Y003726D01*
X031570Y003436D01*
X031793Y003214D01*
X032083Y003093D01*
X032397Y003093D01*
X032713Y003239D02*
X039414Y003239D01*
X039327Y003357D02*
X032831Y003357D01*
X032926Y003476D02*
X039280Y003476D01*
X039280Y003594D02*
X032975Y003594D01*
X033024Y003713D02*
X039280Y003713D01*
X039280Y003831D02*
X033030Y003831D01*
X033030Y003950D02*
X039280Y003950D01*
X039280Y004068D02*
X033018Y004068D01*
X032969Y004187D02*
X039280Y004187D01*
X039284Y004305D02*
X032920Y004305D01*
X032817Y004424D02*
X039333Y004424D01*
X039428Y004542D02*
X032698Y004542D01*
X032427Y004661D02*
X039642Y004661D01*
X039838Y004661D02*
X040642Y004661D01*
X040838Y004661D02*
X041311Y004661D01*
X041350Y004542D02*
X041052Y004542D01*
X041147Y004424D02*
X041333Y004424D01*
X041284Y004305D02*
X041196Y004305D01*
X041200Y004187D02*
X041280Y004187D01*
X041280Y004068D02*
X041200Y004068D01*
X041200Y003950D02*
X041280Y003950D01*
X041280Y003831D02*
X041200Y003831D01*
X041200Y003713D02*
X041280Y003713D01*
X041280Y003594D02*
X041200Y003594D01*
X041200Y003476D02*
X041280Y003476D01*
X041327Y003357D02*
X041153Y003357D01*
X041066Y003239D02*
X041414Y003239D01*
X040414Y003239D02*
X040066Y003239D01*
X040153Y003357D02*
X040327Y003357D01*
X040280Y003476D02*
X040200Y003476D01*
X040200Y003594D02*
X040280Y003594D01*
X040280Y003713D02*
X040200Y003713D01*
X040200Y003831D02*
X040280Y003831D01*
X040280Y003950D02*
X040200Y003950D01*
X040200Y004068D02*
X040280Y004068D01*
X040280Y004187D02*
X040200Y004187D01*
X040196Y004305D02*
X040284Y004305D01*
X040333Y004424D02*
X040147Y004424D01*
X040052Y004542D02*
X040428Y004542D01*
X040955Y005016D02*
X031738Y005016D01*
X031706Y004985D02*
X031838Y005117D01*
X031910Y005290D01*
X031910Y007813D01*
X032533Y007813D01*
X032706Y007885D01*
X032711Y007890D01*
X033887Y007890D01*
X033969Y007972D01*
X033969Y008588D01*
X033887Y008670D01*
X032718Y008670D01*
X032706Y008682D01*
X032533Y008753D01*
X031730Y008753D01*
X031726Y008764D01*
X031575Y008914D01*
X031379Y008995D01*
X031167Y008995D01*
X030971Y008914D01*
X030821Y008764D01*
X030739Y008567D01*
X030739Y007568D01*
X030821Y007372D01*
X030970Y007222D01*
X030970Y006368D01*
X030959Y006389D01*
X030908Y006460D01*
X030846Y006521D01*
X030776Y006573D01*
X030698Y006612D01*
X030615Y006639D01*
X030529Y006653D01*
X030130Y006653D01*
X030130Y006138D01*
X030054Y006138D01*
X030054Y006653D01*
X029655Y006653D01*
X029569Y006639D01*
X029486Y006612D01*
X029408Y006573D01*
X029338Y006521D01*
X029276Y006460D01*
X029225Y006389D01*
X029185Y006312D01*
X029158Y006229D01*
X029145Y006143D01*
X029145Y006138D01*
X030054Y006138D01*
X030054Y006061D01*
X030130Y006061D01*
X030130Y005545D01*
X030529Y005545D01*
X030615Y005559D01*
X030698Y005586D01*
X030776Y005626D01*
X030846Y005677D01*
X030908Y005738D01*
X030959Y005809D01*
X030970Y005830D01*
X030970Y005578D01*
X030645Y005253D01*
X029508Y005253D01*
X029411Y005293D01*
X028469Y005293D01*
X028281Y005216D01*
X028138Y005072D01*
X028060Y004885D01*
X028060Y004682D01*
X028138Y004494D01*
X028281Y004351D01*
X028422Y004293D01*
X028367Y004275D01*
X028292Y004237D01*
X028225Y004188D01*
X028166Y004129D01*
X028117Y004061D01*
X028079Y003987D01*
X028053Y003907D01*
X028041Y003833D01*
X028890Y003833D01*
X028890Y003733D01*
X028990Y003733D01*
X028990Y003253D01*
X029352Y003253D01*
X029434Y003266D01*
X029513Y003292D01*
X029588Y003330D01*
X029655Y003379D01*
X029714Y003438D01*
X029763Y003506D01*
X029801Y003580D01*
X029827Y003659D01*
X029839Y003733D01*
X028990Y003733D01*
X028990Y003833D01*
X029839Y003833D01*
X029827Y003907D01*
X029801Y003987D01*
X029763Y004061D01*
X029714Y004129D01*
X029655Y004188D01*
X029588Y004237D01*
X029513Y004275D01*
X029458Y004293D01*
X029508Y004313D01*
X030933Y004313D01*
X031106Y004385D01*
X031238Y004517D01*
X031706Y004985D01*
X031706Y004985D01*
X031619Y004898D02*
X041074Y004898D01*
X041192Y004779D02*
X031501Y004779D01*
X031382Y004661D02*
X032053Y004661D01*
X031782Y004542D02*
X031264Y004542D01*
X031145Y004424D02*
X031663Y004424D01*
X031560Y004305D02*
X029489Y004305D01*
X029656Y004187D02*
X031511Y004187D01*
X031462Y004068D02*
X029758Y004068D01*
X029813Y003950D02*
X031450Y003950D01*
X031450Y003831D02*
X028990Y003831D01*
X028890Y003831D02*
X027018Y003831D01*
X026900Y003950D02*
X027806Y003043D01*
X052674Y003043D01*
X053580Y003950D01*
X053580Y003950D01*
X053462Y003831D02*
X052200Y003831D01*
X052200Y003713D02*
X053343Y003713D01*
X053225Y003594D02*
X052200Y003594D01*
X052200Y003476D02*
X053106Y003476D01*
X052988Y003357D02*
X052153Y003357D01*
X052066Y003239D02*
X052869Y003239D01*
X052751Y003120D02*
X051873Y003120D01*
X050414Y003239D02*
X050066Y003239D01*
X050153Y003357D02*
X050327Y003357D01*
X050280Y003476D02*
X050200Y003476D01*
X050200Y003594D02*
X050280Y003594D01*
X050280Y003713D02*
X050200Y003713D01*
X050200Y003831D02*
X050280Y003831D01*
X050280Y003950D02*
X050200Y003950D01*
X050200Y004068D02*
X050280Y004068D01*
X050280Y004187D02*
X050200Y004187D01*
X050196Y004305D02*
X050284Y004305D01*
X050333Y004424D02*
X050147Y004424D01*
X050052Y004542D02*
X050428Y004542D01*
X050740Y004783D02*
X050089Y005435D01*
X050089Y009032D01*
X050289Y008808D02*
X050438Y008808D01*
X050384Y008690D02*
X050289Y008690D01*
X050289Y008571D02*
X050383Y008571D01*
X049889Y008571D02*
X049740Y008571D01*
X049740Y008453D02*
X049889Y008453D01*
X049889Y008334D02*
X049740Y008334D01*
X049740Y008216D02*
X049889Y008216D01*
X049889Y008097D02*
X049740Y008097D01*
X049740Y007979D02*
X049889Y007979D01*
X049889Y007860D02*
X049740Y007860D01*
X049740Y007742D02*
X049889Y007742D01*
X049889Y007623D02*
X049740Y007623D01*
X049740Y007505D02*
X049889Y007505D01*
X049889Y007386D02*
X049740Y007386D01*
X049740Y007268D02*
X049889Y007268D01*
X049889Y007149D02*
X049816Y007149D01*
X049859Y007031D02*
X049889Y007031D01*
X049889Y006912D02*
X049856Y006912D01*
X049889Y006794D02*
X049801Y006794D01*
X046220Y006794D02*
X044781Y006794D01*
X044663Y006912D02*
X046220Y006912D01*
X046220Y007031D02*
X044544Y007031D01*
X044426Y007149D02*
X046220Y007149D01*
X046220Y007268D02*
X044307Y007268D01*
X044189Y007386D02*
X046220Y007386D01*
X046220Y007505D02*
X044070Y007505D01*
X043952Y007623D02*
X046220Y007623D01*
X046220Y007742D02*
X043833Y007742D01*
X043715Y007860D02*
X046220Y007860D01*
X046220Y007979D02*
X043596Y007979D01*
X043478Y008097D02*
X046220Y008097D01*
X046220Y008216D02*
X043359Y008216D01*
X043241Y008334D02*
X046220Y008334D01*
X046220Y008453D02*
X043067Y008453D01*
X046152Y009045D02*
X035030Y009045D01*
X035030Y008927D02*
X046220Y008927D01*
X046220Y008808D02*
X035030Y008808D01*
X035030Y008690D02*
X046220Y008690D01*
X046220Y008571D02*
X035030Y008571D01*
X035030Y008453D02*
X038313Y008453D01*
X038139Y008334D02*
X035030Y008334D01*
X035030Y008216D02*
X038021Y008216D01*
X037902Y008097D02*
X035030Y008097D01*
X035030Y007979D02*
X037784Y007979D01*
X037665Y007860D02*
X035030Y007860D01*
X035030Y007742D02*
X037547Y007742D01*
X037428Y007623D02*
X035030Y007623D01*
X035030Y007505D02*
X037310Y007505D01*
X037191Y007386D02*
X035030Y007386D01*
X035030Y007268D02*
X037073Y007268D01*
X036954Y007149D02*
X035030Y007149D01*
X035030Y007031D02*
X036836Y007031D01*
X037465Y006557D02*
X038670Y006557D01*
X038650Y006675D02*
X037584Y006675D01*
X037702Y006794D02*
X038664Y006794D01*
X038717Y006912D02*
X037821Y006912D01*
X037939Y007031D02*
X038860Y007031D01*
X038176Y007268D02*
X043204Y007268D01*
X043085Y007386D02*
X038295Y007386D01*
X038413Y007505D02*
X042967Y007505D01*
X042848Y007623D02*
X038532Y007623D01*
X038058Y007149D02*
X043322Y007149D01*
X043441Y007031D02*
X040020Y007031D01*
X040163Y006912D02*
X043559Y006912D01*
X043678Y006794D02*
X040281Y006794D01*
X040400Y006675D02*
X043796Y006675D01*
X043915Y006557D02*
X040518Y006557D01*
X040637Y006438D02*
X044033Y006438D01*
X044152Y006320D02*
X040755Y006320D01*
X040874Y006201D02*
X044270Y006201D01*
X044350Y006083D02*
X040992Y006083D01*
X040244Y005727D02*
X031910Y005727D01*
X031910Y005609D02*
X040363Y005609D01*
X040481Y005490D02*
X031910Y005490D01*
X031910Y005372D02*
X040600Y005372D01*
X040718Y005253D02*
X031895Y005253D01*
X031846Y005135D02*
X040837Y005135D01*
X040126Y005846D02*
X031910Y005846D01*
X031910Y005964D02*
X040007Y005964D01*
X039889Y006083D02*
X031910Y006083D01*
X031910Y006201D02*
X033188Y006201D01*
X033111Y006320D02*
X031910Y006320D01*
X031910Y006438D02*
X033111Y006438D01*
X033111Y006557D02*
X031910Y006557D01*
X031910Y006675D02*
X033111Y006675D01*
X033111Y006794D02*
X031910Y006794D01*
X031910Y006912D02*
X033128Y006912D01*
X034250Y007031D02*
X031910Y007031D01*
X031910Y007149D02*
X034250Y007149D01*
X034250Y007268D02*
X031910Y007268D01*
X031910Y007386D02*
X034250Y007386D01*
X034250Y007505D02*
X031910Y007505D01*
X031910Y007623D02*
X034250Y007623D01*
X034250Y007742D02*
X031910Y007742D01*
X032647Y007860D02*
X034250Y007860D01*
X034250Y007979D02*
X033969Y007979D01*
X033969Y008097D02*
X034250Y008097D01*
X034250Y008216D02*
X033969Y008216D01*
X033969Y008334D02*
X034250Y008334D01*
X034250Y008453D02*
X033969Y008453D01*
X033969Y008571D02*
X034250Y008571D01*
X034250Y008690D02*
X032687Y008690D01*
X031681Y008808D02*
X034250Y008808D01*
X034250Y008927D02*
X031544Y008927D01*
X031002Y008927D02*
X029094Y008927D01*
X029083Y008935D02*
X029005Y008974D01*
X028922Y009001D01*
X028836Y009015D01*
X028831Y009015D01*
X028831Y008106D01*
X028754Y008106D01*
X028754Y008029D01*
X028239Y008029D01*
X028239Y007630D01*
X028253Y007544D01*
X028280Y007461D01*
X028319Y007384D01*
X028370Y007313D01*
X028432Y007252D01*
X028503Y007200D01*
X028580Y007161D01*
X028663Y007134D01*
X028749Y007120D01*
X028754Y007120D01*
X028754Y008029D01*
X028831Y008029D01*
X028831Y007120D01*
X028836Y007120D01*
X028922Y007134D01*
X029005Y007161D01*
X029083Y007200D01*
X029153Y007252D01*
X029215Y007313D01*
X029266Y007384D01*
X029306Y007461D01*
X029333Y007544D01*
X029346Y007630D01*
X029346Y008029D01*
X028831Y008029D01*
X028831Y008106D01*
X029346Y008106D01*
X029346Y008505D01*
X029333Y008591D01*
X029306Y008674D01*
X029266Y008751D01*
X029215Y008822D01*
X029153Y008884D01*
X029083Y008935D01*
X029225Y008808D02*
X030865Y008808D01*
X030790Y008690D02*
X029298Y008690D01*
X029336Y008571D02*
X030741Y008571D01*
X030739Y008453D02*
X029346Y008453D01*
X029346Y008334D02*
X030739Y008334D01*
X030739Y008216D02*
X029346Y008216D01*
X029346Y007979D02*
X030739Y007979D01*
X030739Y008097D02*
X028831Y008097D01*
X028754Y008097D02*
X026900Y008097D01*
X026900Y007979D02*
X028239Y007979D01*
X028239Y007860D02*
X026900Y007860D01*
X026900Y007742D02*
X028239Y007742D01*
X028240Y007623D02*
X026900Y007623D01*
X026900Y007505D02*
X028265Y007505D01*
X028318Y007386D02*
X026900Y007386D01*
X026900Y007268D02*
X028416Y007268D01*
X028615Y007149D02*
X026900Y007149D01*
X026900Y007031D02*
X030970Y007031D01*
X030970Y007149D02*
X028970Y007149D01*
X028831Y007149D02*
X028754Y007149D01*
X028754Y007268D02*
X028831Y007268D01*
X028831Y007386D02*
X028754Y007386D01*
X028754Y007505D02*
X028831Y007505D01*
X028831Y007623D02*
X028754Y007623D01*
X028754Y007742D02*
X028831Y007742D01*
X028831Y007860D02*
X028754Y007860D01*
X028754Y007979D02*
X028831Y007979D01*
X028754Y008106D02*
X028239Y008106D01*
X028239Y008505D01*
X028253Y008591D01*
X028280Y008674D01*
X028319Y008751D01*
X028370Y008822D01*
X028432Y008884D01*
X028503Y008935D01*
X028580Y008974D01*
X028663Y009001D01*
X028749Y009015D01*
X028754Y009015D01*
X028754Y008106D01*
X028754Y008216D02*
X028831Y008216D01*
X028831Y008334D02*
X028754Y008334D01*
X028754Y008453D02*
X028831Y008453D01*
X028831Y008571D02*
X028754Y008571D01*
X028754Y008690D02*
X028831Y008690D01*
X028831Y008808D02*
X028754Y008808D01*
X028754Y008927D02*
X028831Y008927D01*
X028492Y008927D02*
X026900Y008927D01*
X026900Y009045D02*
X034250Y009045D01*
X034250Y009164D02*
X026900Y009164D01*
X026900Y009282D02*
X034250Y009282D01*
X034250Y009401D02*
X026900Y009401D01*
X026900Y009519D02*
X034250Y009519D01*
X035030Y009519D02*
X047456Y009519D01*
X047456Y009638D02*
X035030Y009638D01*
X035030Y009756D02*
X047456Y009756D01*
X047791Y009799D02*
X048356Y009799D01*
X048690Y010133D01*
X048690Y012283D01*
X047693Y012719D02*
X045387Y012719D01*
X045269Y012837D02*
X047811Y012837D01*
X047930Y012956D02*
X045150Y012956D01*
X045032Y013074D02*
X048048Y013074D01*
X048167Y013193D02*
X044913Y013193D01*
X044795Y013311D02*
X048240Y013311D01*
X048240Y013430D02*
X044676Y013430D01*
X044558Y013548D02*
X048240Y013548D01*
X048640Y013548D02*
X049442Y013548D01*
X049324Y013667D02*
X048640Y013667D01*
X048640Y013785D02*
X049205Y013785D01*
X049087Y013904D02*
X048640Y013904D01*
X048640Y014022D02*
X048968Y014022D01*
X048850Y014141D02*
X048640Y014141D01*
X048640Y014259D02*
X048790Y014259D01*
X048790Y014378D02*
X048640Y014378D01*
X048640Y014496D02*
X048790Y014496D01*
X050328Y014378D02*
X050383Y014378D01*
X047178Y014378D02*
X047102Y014378D01*
X047102Y014496D02*
X047178Y014496D01*
X047178Y014259D02*
X047102Y014259D01*
X048640Y013430D02*
X052311Y013430D01*
X052429Y013311D02*
X048640Y013311D01*
X048523Y012983D02*
X048523Y012983D01*
X048495Y012956D02*
X051466Y012956D01*
X051421Y012837D02*
X048377Y012837D01*
X047574Y012600D02*
X045506Y012600D01*
X045624Y012482D02*
X047456Y012482D01*
X047337Y012363D02*
X045743Y012363D01*
X045861Y012245D02*
X047219Y012245D01*
X053832Y013074D02*
X054228Y013074D01*
X054346Y012956D02*
X053950Y012956D01*
X054069Y012837D02*
X054403Y012837D01*
X054254Y012719D02*
X054187Y012719D01*
X047791Y010567D02*
X046456Y010567D01*
X046012Y010311D02*
X047791Y010311D01*
X045692Y010349D02*
X045457Y010349D01*
X045573Y010467D02*
X045339Y010467D01*
X045455Y010586D02*
X045220Y010586D01*
X044892Y010349D02*
X035030Y010349D01*
X035030Y010467D02*
X044773Y010467D01*
X044655Y010586D02*
X035030Y010586D01*
X035030Y010704D02*
X044536Y010704D01*
X045010Y010230D02*
X035030Y010230D01*
X035030Y010112D02*
X045129Y010112D01*
X045247Y009993D02*
X035030Y009993D01*
X035030Y009875D02*
X045366Y009875D01*
X046207Y009401D02*
X035030Y009401D01*
X035030Y009282D02*
X046136Y009282D01*
X046121Y009164D02*
X035030Y009164D01*
X030739Y007860D02*
X029346Y007860D01*
X029346Y007742D02*
X030739Y007742D01*
X030739Y007623D02*
X029345Y007623D01*
X029320Y007505D02*
X030765Y007505D01*
X030815Y007386D02*
X029268Y007386D01*
X029170Y007268D02*
X030924Y007268D01*
X030970Y006912D02*
X026900Y006912D01*
X026900Y006794D02*
X030970Y006794D01*
X030970Y006675D02*
X026900Y006675D01*
X026900Y006557D02*
X029386Y006557D01*
X029260Y006438D02*
X026900Y006438D01*
X026900Y006320D02*
X029189Y006320D01*
X029154Y006201D02*
X026900Y006201D01*
X026900Y006083D02*
X030054Y006083D01*
X030054Y006061D02*
X029145Y006061D01*
X029145Y006056D01*
X029158Y005969D01*
X029185Y005887D01*
X029225Y005809D01*
X029276Y005738D01*
X029338Y005677D01*
X029408Y005626D01*
X029486Y005586D01*
X029569Y005559D01*
X029655Y005545D01*
X030054Y005545D01*
X030054Y006061D01*
X030054Y005964D02*
X030130Y005964D01*
X030130Y005846D02*
X030054Y005846D01*
X030054Y005727D02*
X030130Y005727D01*
X030130Y005609D02*
X030054Y005609D01*
X029441Y005609D02*
X026900Y005609D01*
X026900Y005727D02*
X029287Y005727D01*
X029206Y005846D02*
X026900Y005846D01*
X026900Y005964D02*
X029160Y005964D01*
X030054Y006201D02*
X030130Y006201D01*
X030130Y006320D02*
X030054Y006320D01*
X030054Y006438D02*
X030130Y006438D01*
X030130Y006557D02*
X030054Y006557D01*
X030798Y006557D02*
X030970Y006557D01*
X030970Y006438D02*
X030924Y006438D01*
X030897Y005727D02*
X030970Y005727D01*
X030970Y005609D02*
X030743Y005609D01*
X030882Y005490D02*
X026900Y005490D01*
X026900Y005372D02*
X030764Y005372D01*
X030645Y005253D02*
X029508Y005253D01*
X028372Y005253D02*
X026900Y005253D01*
X026900Y005135D02*
X028200Y005135D01*
X028114Y005016D02*
X026900Y005016D01*
X026900Y004898D02*
X028065Y004898D01*
X028060Y004779D02*
X026900Y004779D01*
X026900Y004661D02*
X028069Y004661D01*
X028118Y004542D02*
X026900Y004542D01*
X026900Y004424D02*
X028208Y004424D01*
X028391Y004305D02*
X026900Y004305D01*
X026900Y004187D02*
X028224Y004187D01*
X028122Y004068D02*
X026900Y004068D01*
X026900Y003950D02*
X028067Y003950D01*
X028041Y003733D02*
X028053Y003659D01*
X028079Y003580D01*
X028117Y003506D01*
X028166Y003438D01*
X028225Y003379D01*
X028292Y003330D01*
X028367Y003292D01*
X028446Y003266D01*
X028528Y003253D01*
X028890Y003253D01*
X028890Y003733D01*
X028041Y003733D01*
X028045Y003713D02*
X027137Y003713D01*
X027255Y003594D02*
X028074Y003594D01*
X028138Y003476D02*
X027374Y003476D01*
X027492Y003357D02*
X028255Y003357D01*
X027729Y003120D02*
X032018Y003120D01*
X031767Y003239D02*
X027611Y003239D01*
X028890Y003357D02*
X028990Y003357D01*
X028990Y003476D02*
X028890Y003476D01*
X028890Y003594D02*
X028990Y003594D01*
X028990Y003713D02*
X028890Y003713D01*
X029742Y003476D02*
X031554Y003476D01*
X031505Y003594D02*
X029806Y003594D01*
X029835Y003713D02*
X031456Y003713D01*
X031649Y003357D02*
X029625Y003357D01*
X037032Y006201D02*
X039770Y006201D01*
X038898Y006320D02*
X037228Y006320D01*
X037347Y006438D02*
X038733Y006438D01*
X044900Y006675D02*
X046220Y006675D01*
X046660Y008571D02*
X046783Y008571D01*
X046784Y008690D02*
X046660Y008690D01*
X046660Y008808D02*
X046838Y008808D01*
X047140Y009118D02*
X046505Y009118D01*
X046440Y009183D01*
X046673Y009401D02*
X046811Y009401D01*
X047140Y009118D02*
X047470Y009288D01*
X047791Y009288D01*
X047791Y009544D02*
X048750Y009544D01*
X048990Y009783D01*
X051287Y009519D02*
X052421Y009519D01*
X049889Y008808D02*
X049740Y008808D01*
X049740Y008690D02*
X049889Y008690D01*
X049754Y008927D02*
X049740Y008927D01*
X048269Y008571D02*
X047497Y008571D01*
X047496Y008690D02*
X048151Y008690D01*
X048032Y008808D02*
X047442Y008808D01*
X047791Y009032D02*
X048092Y009032D01*
X048052Y004542D02*
X048428Y004542D01*
X048333Y004424D02*
X048147Y004424D01*
X048196Y004305D02*
X048284Y004305D01*
X048280Y004187D02*
X048200Y004187D01*
X048200Y004068D02*
X048280Y004068D01*
X048280Y003950D02*
X048200Y003950D01*
X048200Y003831D02*
X048280Y003831D01*
X048280Y003713D02*
X048200Y003713D01*
X048200Y003594D02*
X048280Y003594D01*
X048280Y003476D02*
X048200Y003476D01*
X048153Y003357D02*
X048327Y003357D01*
X048414Y003239D02*
X048066Y003239D01*
X047414Y003239D02*
X047066Y003239D01*
X047153Y003357D02*
X047327Y003357D01*
X047280Y003476D02*
X047200Y003476D01*
X047200Y003594D02*
X047280Y003594D01*
X047280Y003713D02*
X047200Y003713D01*
X047200Y003831D02*
X047280Y003831D01*
X047280Y003950D02*
X047200Y003950D01*
X047200Y004068D02*
X047280Y004068D01*
X047280Y004187D02*
X047200Y004187D01*
X047196Y004305D02*
X047284Y004305D01*
X047333Y004424D02*
X047147Y004424D01*
X047052Y004542D02*
X047428Y004542D01*
X049052Y004542D02*
X049428Y004542D01*
X049333Y004424D02*
X049147Y004424D01*
X049196Y004305D02*
X049284Y004305D01*
X049280Y004187D02*
X049200Y004187D01*
X049200Y004068D02*
X049280Y004068D01*
X049280Y003950D02*
X049200Y003950D01*
X049200Y003831D02*
X049280Y003831D01*
X049280Y003713D02*
X049200Y003713D01*
X049200Y003594D02*
X049280Y003594D01*
X049280Y003476D02*
X049200Y003476D01*
X049153Y003357D02*
X049327Y003357D01*
X049414Y003239D02*
X049066Y003239D01*
X028239Y008216D02*
X026900Y008216D01*
X026900Y008334D02*
X028239Y008334D01*
X028239Y008453D02*
X026900Y008453D01*
X026900Y008571D02*
X028250Y008571D01*
X028288Y008690D02*
X026900Y008690D01*
X026900Y008808D02*
X028360Y008808D01*
X053973Y019473D02*
X055204Y019473D01*
X048962Y021488D02*
X048940Y021488D01*
X048940Y021606D02*
X049080Y021606D01*
X049199Y021725D02*
X048940Y021725D01*
X048940Y021843D02*
X049317Y021843D01*
X049436Y021962D02*
X048940Y021962D01*
X045454Y022199D02*
X045026Y022199D01*
X045136Y022317D02*
X045344Y022317D01*
X045295Y022436D02*
X045185Y022436D01*
X045200Y022554D02*
X045280Y022554D01*
X045280Y022673D02*
X045200Y022673D01*
X045200Y022791D02*
X045280Y022791D01*
X045280Y022910D02*
X045200Y022910D01*
X045200Y023028D02*
X045280Y023028D01*
X045280Y023147D02*
X045200Y023147D01*
X045200Y023265D02*
X045280Y023265D01*
X045317Y023384D02*
X045163Y023384D01*
X045091Y023502D02*
X045389Y023502D01*
X045546Y023621D02*
X044934Y023621D01*
D24*
X034540Y022883D03*
X031240Y022883D03*
X043890Y021183D03*
X047690Y019883D03*
X049740Y019883D03*
X052740Y019883D03*
X053840Y019183D03*
X050040Y018633D03*
X053433Y017568D03*
X059940Y017883D03*
X061040Y017883D03*
X058740Y015883D03*
X058740Y014783D03*
X058775Y013919D03*
X053240Y014283D03*
X051240Y014583D03*
X049440Y014583D03*
X046640Y014583D03*
X042740Y013583D03*
X041740Y014883D03*
X043890Y017383D03*
X051740Y012783D03*
X050290Y011933D03*
X048690Y012283D03*
X047140Y011883D03*
X045440Y011583D03*
X045490Y010933D03*
X046440Y009183D03*
X048740Y008383D03*
X047140Y007983D03*
X050740Y007983D03*
X049540Y006983D03*
X046390Y006233D03*
X050640Y005583D03*
X053709Y005442D03*
X060740Y004883D03*
X061740Y004883D03*
X062740Y004883D03*
X045740Y003883D03*
X037740Y003883D03*
X035740Y003883D03*
X033740Y003883D03*
X039040Y006683D03*
X051937Y009183D03*
X053490Y010783D03*
X058740Y011283D03*
X059240Y011583D03*
X060740Y011783D03*
X059240Y010083D03*
X059240Y009083D03*
D25*
X059740Y007383D03*
D26*
X050740Y007983D02*
X050740Y008449D01*
X046440Y009183D02*
X046440Y006283D01*
X046390Y006233D01*
X059293Y012383D02*
X060005Y012383D01*
X060005Y012649D01*
X060240Y012883D01*
X061140Y012883D01*
X061640Y012383D01*
X051240Y014549D02*
X051240Y014583D01*
X051240Y014549D02*
X050740Y014549D01*
X047140Y014549D02*
X046640Y014549D01*
X046640Y014583D01*
X058387Y017383D02*
X058387Y018383D01*
X058140Y018383D01*
X057040Y019483D01*
X055140Y019483D01*
X059293Y018383D02*
X060005Y018383D01*
X060005Y017383D02*
X059293Y017383D01*
X030040Y019838D02*
X028440Y018238D01*
X030040Y019838D02*
X030040Y021949D01*
X030040Y022618D02*
X029784Y022874D01*
X028440Y022874D01*
D27*
X028740Y016383D03*
X027740Y016383D03*
X029740Y016383D03*
X030740Y016383D03*
X031740Y016383D03*
X031740Y015383D03*
X030740Y015383D03*
X029740Y015383D03*
X028740Y015383D03*
X027740Y015383D03*
X027740Y014383D03*
X028740Y014383D03*
X028740Y013383D03*
X027740Y013383D03*
X027740Y012383D03*
X028740Y012383D03*
X028740Y011383D03*
X027740Y011383D03*
X029740Y011383D03*
X030740Y011383D03*
X031740Y011383D03*
X031740Y010383D03*
X030740Y010383D03*
X029740Y010383D03*
X028740Y010383D03*
X027740Y010383D03*
D28*
X032440Y008283D02*
X032444Y008280D01*
X033540Y008280D01*
X036944Y006587D02*
X038440Y008083D01*
X042940Y008083D01*
X044740Y006283D01*
X044740Y003883D01*
X041740Y003883D02*
X041740Y004783D01*
X039840Y006683D01*
X039040Y006683D01*
X036944Y006587D02*
X034640Y006587D01*
X033540Y006587D01*
X034640Y006587D02*
X034640Y013683D01*
X033942Y014381D01*
X033130Y014381D01*
X033130Y017744D01*
X032640Y018233D01*
X031645Y018233D01*
X031640Y018238D01*
X028440Y018238D02*
X028440Y016683D01*
X028740Y016383D01*
D29*
X059740Y007383D02*
X061640Y007383D01*
D30*
X032440Y008283D02*
X031489Y008283D01*
X031273Y008068D01*
X031440Y007901D01*
X031440Y005383D01*
X030840Y004783D01*
X028940Y004783D01*
M02*
