G75*
G70*
%OFA0B0*%
%FSLAX24Y24*%
%IPPOS*%
%LPD*%
%AMOC8*
5,1,8,0,0,1.08239X$1,22.5*
%
%ADD10C,0.0000*%
D10*
X026740Y003883D02*
X027740Y002883D01*
X052740Y002883D01*
X053740Y003883D01*
X063640Y003883D01*
X064640Y004883D01*
X064640Y019683D01*
X063640Y020683D01*
X053740Y020683D01*
X052740Y021683D01*
X052740Y023283D01*
X052140Y023883D01*
X027740Y023883D01*
X026740Y022883D01*
X026740Y003883D01*
X031610Y003883D02*
X031612Y003933D01*
X031618Y003983D01*
X031628Y004032D01*
X031642Y004080D01*
X031659Y004127D01*
X031680Y004172D01*
X031705Y004216D01*
X031733Y004257D01*
X031765Y004296D01*
X031799Y004333D01*
X031836Y004367D01*
X031876Y004397D01*
X031918Y004424D01*
X031962Y004448D01*
X032008Y004469D01*
X032055Y004485D01*
X032103Y004498D01*
X032153Y004507D01*
X032202Y004512D01*
X032253Y004513D01*
X032303Y004510D01*
X032352Y004503D01*
X032401Y004492D01*
X032449Y004477D01*
X032495Y004459D01*
X032540Y004437D01*
X032583Y004411D01*
X032624Y004382D01*
X032663Y004350D01*
X032699Y004315D01*
X032731Y004277D01*
X032761Y004237D01*
X032788Y004194D01*
X032811Y004150D01*
X032830Y004104D01*
X032846Y004056D01*
X032858Y004007D01*
X032866Y003958D01*
X032870Y003908D01*
X032870Y003858D01*
X032866Y003808D01*
X032858Y003759D01*
X032846Y003710D01*
X032830Y003662D01*
X032811Y003616D01*
X032788Y003572D01*
X032761Y003529D01*
X032731Y003489D01*
X032699Y003451D01*
X032663Y003416D01*
X032624Y003384D01*
X032583Y003355D01*
X032540Y003329D01*
X032495Y003307D01*
X032449Y003289D01*
X032401Y003274D01*
X032352Y003263D01*
X032303Y003256D01*
X032253Y003253D01*
X032202Y003254D01*
X032153Y003259D01*
X032103Y003268D01*
X032055Y003281D01*
X032008Y003297D01*
X031962Y003318D01*
X031918Y003342D01*
X031876Y003369D01*
X031836Y003399D01*
X031799Y003433D01*
X031765Y003470D01*
X031733Y003509D01*
X031705Y003550D01*
X031680Y003594D01*
X031659Y003639D01*
X031642Y003686D01*
X031628Y003734D01*
X031618Y003783D01*
X031612Y003833D01*
X031610Y003883D01*
X030525Y006302D02*
X029659Y006302D01*
X029462Y006499D02*
X029464Y006525D01*
X029469Y006550D01*
X029477Y006574D01*
X029488Y006598D01*
X029503Y006619D01*
X029520Y006638D01*
X029539Y006655D01*
X029561Y006670D01*
X029584Y006681D01*
X029608Y006689D01*
X029633Y006694D01*
X029659Y006696D01*
X030525Y006696D01*
X030551Y006694D01*
X030576Y006689D01*
X030600Y006681D01*
X030624Y006670D01*
X030645Y006655D01*
X030664Y006638D01*
X030681Y006619D01*
X030696Y006598D01*
X030707Y006574D01*
X030715Y006550D01*
X030720Y006525D01*
X030722Y006499D01*
X030720Y006473D01*
X030715Y006448D01*
X030707Y006424D01*
X030696Y006401D01*
X030681Y006379D01*
X030664Y006360D01*
X030645Y006343D01*
X030624Y006328D01*
X030600Y006317D01*
X030576Y006309D01*
X030551Y006304D01*
X030525Y006302D01*
X029659Y006302D02*
X029633Y006304D01*
X029608Y006309D01*
X029584Y006317D01*
X029561Y006328D01*
X029539Y006343D01*
X029520Y006360D01*
X029503Y006379D01*
X029488Y006401D01*
X029477Y006424D01*
X029469Y006448D01*
X029464Y006473D01*
X029462Y006499D01*
X031273Y007838D02*
X031273Y009098D01*
X031247Y009096D01*
X031222Y009091D01*
X031198Y009083D01*
X031175Y009072D01*
X031153Y009057D01*
X031134Y009040D01*
X031117Y009021D01*
X031102Y009000D01*
X031091Y008976D01*
X031083Y008952D01*
X031078Y008927D01*
X031076Y008901D01*
X031076Y008035D01*
X031078Y008009D01*
X031083Y007984D01*
X031091Y007960D01*
X031102Y007937D01*
X031117Y007915D01*
X031134Y007896D01*
X031153Y007879D01*
X031175Y007864D01*
X031198Y007853D01*
X031222Y007845D01*
X031247Y007840D01*
X031273Y007838D01*
X031299Y007840D01*
X031324Y007845D01*
X031348Y007853D01*
X031372Y007864D01*
X031393Y007879D01*
X031412Y007896D01*
X031429Y007915D01*
X031444Y007937D01*
X031455Y007960D01*
X031463Y007984D01*
X031468Y008009D01*
X031470Y008035D01*
X031470Y008901D01*
X031468Y008927D01*
X031463Y008952D01*
X031455Y008976D01*
X031444Y009000D01*
X031429Y009021D01*
X031412Y009040D01*
X031393Y009057D01*
X031372Y009072D01*
X031348Y009083D01*
X031324Y009091D01*
X031299Y009096D01*
X031273Y009098D01*
X028990Y008901D02*
X028990Y008035D01*
X028793Y007838D02*
X028767Y007840D01*
X028742Y007845D01*
X028718Y007853D01*
X028695Y007864D01*
X028673Y007879D01*
X028654Y007896D01*
X028637Y007915D01*
X028622Y007937D01*
X028611Y007960D01*
X028603Y007984D01*
X028598Y008009D01*
X028596Y008035D01*
X028596Y008901D01*
X028598Y008927D01*
X028603Y008952D01*
X028611Y008976D01*
X028622Y009000D01*
X028637Y009021D01*
X028654Y009040D01*
X028673Y009057D01*
X028695Y009072D01*
X028718Y009083D01*
X028742Y009091D01*
X028767Y009096D01*
X028793Y009098D01*
X028819Y009096D01*
X028844Y009091D01*
X028868Y009083D01*
X028892Y009072D01*
X028913Y009057D01*
X028932Y009040D01*
X028949Y009021D01*
X028964Y009000D01*
X028975Y008976D01*
X028983Y008952D01*
X028988Y008927D01*
X028990Y008901D01*
X028990Y008035D02*
X028988Y008009D01*
X028983Y007984D01*
X028975Y007960D01*
X028964Y007937D01*
X028949Y007915D01*
X028932Y007896D01*
X028913Y007879D01*
X028892Y007864D01*
X028868Y007853D01*
X028844Y007845D01*
X028819Y007840D01*
X028793Y007838D01*
X052110Y005883D02*
X052112Y005933D01*
X052118Y005983D01*
X052128Y006032D01*
X052142Y006080D01*
X052159Y006127D01*
X052180Y006172D01*
X052205Y006216D01*
X052233Y006257D01*
X052265Y006296D01*
X052299Y006333D01*
X052336Y006367D01*
X052376Y006397D01*
X052418Y006424D01*
X052462Y006448D01*
X052508Y006469D01*
X052555Y006485D01*
X052603Y006498D01*
X052653Y006507D01*
X052702Y006512D01*
X052753Y006513D01*
X052803Y006510D01*
X052852Y006503D01*
X052901Y006492D01*
X052949Y006477D01*
X052995Y006459D01*
X053040Y006437D01*
X053083Y006411D01*
X053124Y006382D01*
X053163Y006350D01*
X053199Y006315D01*
X053231Y006277D01*
X053261Y006237D01*
X053288Y006194D01*
X053311Y006150D01*
X053330Y006104D01*
X053346Y006056D01*
X053358Y006007D01*
X053366Y005958D01*
X053370Y005908D01*
X053370Y005858D01*
X053366Y005808D01*
X053358Y005759D01*
X053346Y005710D01*
X053330Y005662D01*
X053311Y005616D01*
X053288Y005572D01*
X053261Y005529D01*
X053231Y005489D01*
X053199Y005451D01*
X053163Y005416D01*
X053124Y005384D01*
X053083Y005355D01*
X053040Y005329D01*
X052995Y005307D01*
X052949Y005289D01*
X052901Y005274D01*
X052852Y005263D01*
X052803Y005256D01*
X052753Y005253D01*
X052702Y005254D01*
X052653Y005259D01*
X052603Y005268D01*
X052555Y005281D01*
X052508Y005297D01*
X052462Y005318D01*
X052418Y005342D01*
X052376Y005369D01*
X052336Y005399D01*
X052299Y005433D01*
X052265Y005470D01*
X052233Y005509D01*
X052205Y005550D01*
X052180Y005594D01*
X052159Y005639D01*
X052142Y005686D01*
X052128Y005734D01*
X052118Y005783D01*
X052112Y005833D01*
X052110Y005883D01*
X052110Y016883D02*
X052112Y016933D01*
X052118Y016983D01*
X052128Y017032D01*
X052142Y017080D01*
X052159Y017127D01*
X052180Y017172D01*
X052205Y017216D01*
X052233Y017257D01*
X052265Y017296D01*
X052299Y017333D01*
X052336Y017367D01*
X052376Y017397D01*
X052418Y017424D01*
X052462Y017448D01*
X052508Y017469D01*
X052555Y017485D01*
X052603Y017498D01*
X052653Y017507D01*
X052702Y017512D01*
X052753Y017513D01*
X052803Y017510D01*
X052852Y017503D01*
X052901Y017492D01*
X052949Y017477D01*
X052995Y017459D01*
X053040Y017437D01*
X053083Y017411D01*
X053124Y017382D01*
X053163Y017350D01*
X053199Y017315D01*
X053231Y017277D01*
X053261Y017237D01*
X053288Y017194D01*
X053311Y017150D01*
X053330Y017104D01*
X053346Y017056D01*
X053358Y017007D01*
X053366Y016958D01*
X053370Y016908D01*
X053370Y016858D01*
X053366Y016808D01*
X053358Y016759D01*
X053346Y016710D01*
X053330Y016662D01*
X053311Y016616D01*
X053288Y016572D01*
X053261Y016529D01*
X053231Y016489D01*
X053199Y016451D01*
X053163Y016416D01*
X053124Y016384D01*
X053083Y016355D01*
X053040Y016329D01*
X052995Y016307D01*
X052949Y016289D01*
X052901Y016274D01*
X052852Y016263D01*
X052803Y016256D01*
X052753Y016253D01*
X052702Y016254D01*
X052653Y016259D01*
X052603Y016268D01*
X052555Y016281D01*
X052508Y016297D01*
X052462Y016318D01*
X052418Y016342D01*
X052376Y016369D01*
X052336Y016399D01*
X052299Y016433D01*
X052265Y016470D01*
X052233Y016509D01*
X052205Y016550D01*
X052180Y016594D01*
X052159Y016639D01*
X052142Y016686D01*
X052128Y016734D01*
X052118Y016783D01*
X052112Y016833D01*
X052110Y016883D01*
X032110Y022883D02*
X032112Y022933D01*
X032118Y022983D01*
X032128Y023032D01*
X032142Y023080D01*
X032159Y023127D01*
X032180Y023172D01*
X032205Y023216D01*
X032233Y023257D01*
X032265Y023296D01*
X032299Y023333D01*
X032336Y023367D01*
X032376Y023397D01*
X032418Y023424D01*
X032462Y023448D01*
X032508Y023469D01*
X032555Y023485D01*
X032603Y023498D01*
X032653Y023507D01*
X032702Y023512D01*
X032753Y023513D01*
X032803Y023510D01*
X032852Y023503D01*
X032901Y023492D01*
X032949Y023477D01*
X032995Y023459D01*
X033040Y023437D01*
X033083Y023411D01*
X033124Y023382D01*
X033163Y023350D01*
X033199Y023315D01*
X033231Y023277D01*
X033261Y023237D01*
X033288Y023194D01*
X033311Y023150D01*
X033330Y023104D01*
X033346Y023056D01*
X033358Y023007D01*
X033366Y022958D01*
X033370Y022908D01*
X033370Y022858D01*
X033366Y022808D01*
X033358Y022759D01*
X033346Y022710D01*
X033330Y022662D01*
X033311Y022616D01*
X033288Y022572D01*
X033261Y022529D01*
X033231Y022489D01*
X033199Y022451D01*
X033163Y022416D01*
X033124Y022384D01*
X033083Y022355D01*
X033040Y022329D01*
X032995Y022307D01*
X032949Y022289D01*
X032901Y022274D01*
X032852Y022263D01*
X032803Y022256D01*
X032753Y022253D01*
X032702Y022254D01*
X032653Y022259D01*
X032603Y022268D01*
X032555Y022281D01*
X032508Y022297D01*
X032462Y022318D01*
X032418Y022342D01*
X032376Y022369D01*
X032336Y022399D01*
X032299Y022433D01*
X032265Y022470D01*
X032233Y022509D01*
X032205Y022550D01*
X032180Y022594D01*
X032159Y022639D01*
X032142Y022686D01*
X032128Y022734D01*
X032118Y022783D01*
X032112Y022833D01*
X032110Y022883D01*
M02*
