G75*
G70*
%OFA0B0*%
%FSLAX24Y24*%
%IPPOS*%
%LPD*%
%AMOC8*
5,1,8,0,0,1.08239X$1,22.5*
%
%ADD10R,0.2441X0.2126*%
%ADD11R,0.0630X0.0394*%
%ADD12R,0.0551X0.1181*%
%ADD13R,0.0390X0.0120*%
%ADD14R,0.0394X0.0433*%
%ADD15R,0.0579X0.0500*%
%ADD16R,0.0551X0.0472*%
D10*
X004916Y011150D03*
D11*
X007790Y010252D03*
X007790Y012048D03*
D12*
X006300Y015905D03*
X003100Y015905D03*
X003100Y017795D03*
X006300Y017795D03*
D13*
X022451Y015102D03*
X022451Y014846D03*
X022451Y014590D03*
X022451Y014334D03*
X022451Y014078D03*
X022451Y013822D03*
X022451Y013566D03*
X022451Y013310D03*
X022451Y013054D03*
X022451Y012798D03*
X024749Y012798D03*
X024749Y013054D03*
X024749Y013310D03*
X024749Y013566D03*
X024749Y013822D03*
X024749Y014078D03*
X024749Y014334D03*
X024749Y014590D03*
X024749Y014846D03*
X024749Y015102D03*
X024749Y009002D03*
X024749Y008746D03*
X024749Y008490D03*
X024749Y008234D03*
X024749Y007978D03*
X024749Y007722D03*
X024749Y007466D03*
X024749Y007210D03*
X024749Y006954D03*
X024749Y006698D03*
X022451Y006698D03*
X022451Y006954D03*
X022451Y007210D03*
X022451Y007466D03*
X022451Y007722D03*
X022451Y007978D03*
X022451Y008234D03*
X022451Y008490D03*
X022451Y008746D03*
X022451Y009002D03*
D14*
X021900Y007185D03*
X021900Y006515D03*
X025400Y006785D03*
X025400Y006115D03*
X025400Y012215D03*
X025400Y012885D03*
X021800Y012885D03*
X021800Y012215D03*
X004700Y019615D03*
X004700Y020285D03*
D15*
X007700Y004104D03*
X007700Y005796D03*
D16*
X002400Y019359D03*
X002400Y020541D03*
M02*
