G75*
G70*
%OFA0B0*%
%FSLAX24Y24*%
%IPPOS*%
%LPD*%
%AMOC8*
5,1,8,0,0,1.08239X$1,22.5*
%
%ADD10C,0.0110*%
%ADD11C,0.0060*%
%ADD12C,0.0080*%
%ADD13C,0.0059*%
D10*
X058048Y008483D02*
X058639Y008483D01*
X058639Y008778D01*
X058540Y008877D01*
X058343Y008877D01*
X058245Y008778D01*
X058245Y008483D01*
X058343Y008232D02*
X058442Y008134D01*
X058442Y007937D01*
X058540Y007838D01*
X058639Y007937D01*
X058639Y008232D01*
X058343Y008232D02*
X058245Y008134D01*
X058245Y007838D01*
X059295Y007937D02*
X059295Y008134D01*
X059393Y008232D01*
X059492Y008232D01*
X059590Y008134D01*
X059590Y007937D01*
X059689Y007838D01*
X059787Y007838D01*
X059886Y007937D01*
X059886Y008134D01*
X059787Y008232D01*
X059886Y008483D02*
X059295Y008483D01*
X059590Y008483D02*
X059689Y008581D01*
X059689Y008778D01*
X059590Y008877D01*
X059295Y008877D01*
X059295Y009127D02*
X059295Y009324D01*
X059295Y009226D02*
X059689Y009226D01*
X059689Y009127D01*
X059886Y009226D02*
X059984Y009226D01*
X059590Y009557D02*
X059393Y009557D01*
X059295Y009656D01*
X059295Y009852D01*
X059492Y009951D02*
X059492Y009557D01*
X059590Y009557D02*
X059689Y009656D01*
X059689Y009852D01*
X059590Y009951D01*
X059492Y009951D01*
X059295Y010202D02*
X059295Y010399D01*
X059295Y010300D02*
X059886Y010300D01*
X059886Y010202D01*
X058836Y010309D02*
X058245Y010309D01*
X058442Y010309D02*
X058639Y010604D01*
X058540Y010846D02*
X058639Y010945D01*
X058639Y011240D01*
X058836Y011240D02*
X058245Y011240D01*
X058245Y010945D01*
X058343Y010846D01*
X058540Y010846D01*
X058245Y010604D02*
X058442Y010309D01*
X058639Y010067D02*
X058639Y009969D01*
X058442Y009772D01*
X058245Y009772D02*
X058639Y009772D01*
X058540Y009521D02*
X058245Y009521D01*
X058245Y009226D01*
X058343Y009127D01*
X058442Y009226D01*
X058442Y009521D01*
X058540Y009521D02*
X058639Y009423D01*
X058639Y009226D01*
X059295Y007937D02*
X059393Y007838D01*
X059393Y010631D02*
X059590Y010631D01*
X059689Y010730D01*
X059689Y011025D01*
X059886Y011025D02*
X059295Y011025D01*
X059295Y010730D01*
X059393Y010631D01*
X058540Y011491D02*
X058639Y011589D01*
X058639Y011786D01*
X058540Y011884D01*
X058442Y011884D01*
X058442Y011491D01*
X058540Y011491D02*
X058343Y011491D01*
X058245Y011589D01*
X058245Y011786D01*
X058639Y012135D02*
X058245Y012332D01*
X058639Y012529D01*
X058639Y012780D02*
X058639Y012878D01*
X058245Y012878D01*
X058245Y012780D02*
X058245Y012977D01*
X058343Y013210D02*
X058245Y013308D01*
X058245Y013603D01*
X058343Y013854D02*
X058540Y013854D01*
X058639Y013953D01*
X058639Y014149D01*
X058540Y014248D01*
X058442Y014248D01*
X058442Y013854D01*
X058343Y013854D02*
X058245Y013953D01*
X058245Y014149D01*
X059295Y014284D02*
X059295Y014481D01*
X059295Y014382D02*
X059886Y014382D01*
X059886Y014284D01*
X059590Y014033D02*
X059492Y014033D01*
X059492Y013639D01*
X059590Y013639D02*
X059689Y013738D01*
X059689Y013935D01*
X059590Y014033D01*
X059295Y013935D02*
X059295Y013738D01*
X059393Y013639D01*
X059590Y013639D01*
X059295Y013406D02*
X059295Y013210D01*
X059295Y013308D02*
X059689Y013308D01*
X059689Y013210D01*
X059886Y013308D02*
X059984Y013308D01*
X059590Y012959D02*
X059295Y012959D01*
X059590Y012959D02*
X059689Y012860D01*
X059689Y012663D01*
X059590Y012565D01*
X059492Y012314D02*
X059393Y012314D01*
X059295Y012216D01*
X059295Y012019D01*
X059393Y011920D01*
X059590Y012019D02*
X059590Y012216D01*
X059492Y012314D01*
X059787Y012314D02*
X059886Y012216D01*
X059886Y012019D01*
X059787Y011920D01*
X059689Y011920D01*
X059590Y012019D01*
X059295Y012565D02*
X059886Y012565D01*
X058934Y012878D02*
X058836Y012878D01*
X058540Y013210D02*
X058343Y013210D01*
X058540Y013210D02*
X058639Y013308D01*
X058639Y013603D01*
X058540Y014499D02*
X058639Y014597D01*
X058639Y014892D01*
X058442Y014794D02*
X058442Y014597D01*
X058540Y014499D01*
X058245Y014499D02*
X058245Y014794D01*
X058343Y014892D01*
X058442Y014794D01*
X058343Y015143D02*
X058343Y015242D01*
X058245Y015242D01*
X058245Y015143D01*
X058343Y015143D01*
X058343Y015466D02*
X058245Y015564D01*
X058245Y015859D01*
X058343Y016110D02*
X058245Y016208D01*
X058245Y016405D01*
X058343Y016504D01*
X058540Y016504D01*
X058639Y016405D01*
X058639Y016208D01*
X058540Y016110D01*
X058343Y016110D01*
X058639Y015859D02*
X058639Y015564D01*
X058540Y015466D01*
X058343Y015466D01*
X059295Y015107D02*
X059295Y014812D01*
X059393Y014714D01*
X059590Y014714D01*
X059689Y014812D01*
X059689Y015107D01*
X059886Y015107D02*
X059295Y015107D01*
X059689Y016003D02*
X059295Y016199D01*
X059689Y016396D01*
X059787Y016647D02*
X059886Y016746D01*
X059886Y016942D01*
X059787Y017041D01*
X059689Y017041D01*
X059295Y016647D01*
X059295Y017041D01*
X059295Y017292D02*
X059295Y017390D01*
X059393Y017390D01*
X059393Y017292D01*
X059295Y017292D01*
X058639Y017050D02*
X058540Y016951D01*
X058245Y016951D01*
X058245Y016755D02*
X058639Y016755D01*
X058639Y016853D01*
X058540Y016951D01*
X058639Y017050D02*
X058540Y017148D01*
X058245Y017148D01*
X059295Y017712D02*
X059393Y017614D01*
X059787Y018008D01*
X059393Y018008D01*
X059295Y017909D01*
X059295Y017712D01*
X059393Y017614D02*
X059787Y017614D01*
X059886Y017712D01*
X059886Y017909D01*
X059787Y018008D01*
D11*
X051460Y015877D02*
X051120Y015650D01*
X051120Y015509D02*
X051347Y015509D01*
X051460Y015395D01*
X051347Y015282D01*
X051120Y015282D01*
X051120Y015140D02*
X051460Y015140D01*
X051347Y015027D01*
X051460Y014913D01*
X051120Y014913D01*
X050860Y014913D02*
X050633Y014913D01*
X050520Y015027D01*
X050633Y015140D01*
X050860Y015140D01*
X050804Y015282D02*
X050860Y015338D01*
X050860Y015452D01*
X050804Y015509D01*
X050577Y015509D01*
X050520Y015452D01*
X050520Y015338D01*
X050577Y015282D01*
X050804Y015282D01*
X051290Y015282D02*
X051290Y015509D01*
X051460Y015650D02*
X051120Y015877D01*
X050860Y015650D02*
X050520Y015650D01*
X050520Y015877D01*
X049810Y015509D02*
X049583Y015509D01*
X049470Y015395D01*
X049583Y015282D01*
X049810Y015282D01*
X049810Y015140D02*
X049810Y014913D01*
X049640Y014913D01*
X049697Y015027D01*
X049697Y015083D01*
X049640Y015140D01*
X049527Y015140D01*
X049470Y015083D01*
X049470Y014970D01*
X049527Y014913D01*
X049210Y014913D02*
X049040Y014913D01*
X049097Y015027D01*
X049097Y015083D01*
X049040Y015140D01*
X048927Y015140D01*
X048870Y015083D01*
X048870Y014970D01*
X048927Y014913D01*
X049210Y014913D02*
X049210Y015140D01*
X049210Y015282D02*
X048983Y015282D01*
X048870Y015395D01*
X048983Y015509D01*
X049210Y015509D01*
X048610Y015509D02*
X048383Y015509D01*
X048270Y015395D01*
X048383Y015282D01*
X048610Y015282D01*
X048610Y015140D02*
X048610Y014913D01*
X048440Y014913D01*
X048497Y015027D01*
X048497Y015083D01*
X048440Y015140D01*
X048327Y015140D01*
X048270Y015083D01*
X048270Y014970D01*
X048327Y014913D01*
X048010Y014913D02*
X048010Y015140D01*
X047897Y015083D02*
X047840Y015140D01*
X047727Y015140D01*
X047670Y015083D01*
X047670Y014970D01*
X047727Y014913D01*
X047840Y014913D02*
X047897Y015027D01*
X047897Y015083D01*
X047840Y014913D02*
X048010Y014913D01*
X048010Y015282D02*
X047783Y015282D01*
X047670Y015395D01*
X047783Y015509D01*
X048010Y015509D01*
X047410Y015509D02*
X047183Y015509D01*
X047070Y015395D01*
X047183Y015282D01*
X047410Y015282D01*
X047410Y015140D02*
X047410Y014913D01*
X047240Y014913D01*
X047297Y015027D01*
X047297Y015083D01*
X047240Y015140D01*
X047127Y015140D01*
X047070Y015083D01*
X047070Y014970D01*
X047127Y014913D01*
X046810Y014913D02*
X046810Y015140D01*
X046697Y015083D02*
X046640Y015140D01*
X046527Y015140D01*
X046470Y015083D01*
X046470Y014970D01*
X046527Y014913D01*
X046640Y014913D02*
X046697Y015027D01*
X046697Y015083D01*
X046640Y014913D02*
X046810Y014913D01*
X046810Y015282D02*
X046583Y015282D01*
X046470Y015395D01*
X046583Y015509D01*
X046810Y015509D01*
X046210Y015509D02*
X045983Y015509D01*
X045870Y015395D01*
X045983Y015282D01*
X046210Y015282D01*
X046210Y015140D02*
X046210Y014913D01*
X046040Y014913D01*
X046097Y015027D01*
X046097Y015083D01*
X046040Y015140D01*
X045927Y015140D01*
X045870Y015083D01*
X045870Y014970D01*
X045927Y014913D01*
X045610Y014913D02*
X045440Y014913D01*
X045497Y015027D01*
X045497Y015083D01*
X045440Y015140D01*
X045327Y015140D01*
X045270Y015083D01*
X045270Y014970D01*
X045327Y014913D01*
X045610Y014913D02*
X045610Y015140D01*
X045610Y015282D02*
X045383Y015282D01*
X045270Y015395D01*
X045383Y015509D01*
X045610Y015509D01*
X045010Y015509D02*
X044783Y015509D01*
X044670Y015395D01*
X044783Y015282D01*
X045010Y015282D01*
X045010Y015140D02*
X045010Y014913D01*
X044840Y014913D01*
X044897Y015027D01*
X044897Y015083D01*
X044840Y015140D01*
X044727Y015140D01*
X044670Y015083D01*
X044670Y014970D01*
X044727Y014913D01*
X044410Y014913D02*
X044240Y014913D01*
X044297Y015027D01*
X044297Y015083D01*
X044240Y015140D01*
X044127Y015140D01*
X044070Y015083D01*
X044070Y014970D01*
X044127Y014913D01*
X044410Y014913D02*
X044410Y015140D01*
X044410Y015282D02*
X044183Y015282D01*
X044070Y015395D01*
X044183Y015509D01*
X044410Y015509D01*
X043810Y015509D02*
X043583Y015509D01*
X043470Y015395D01*
X043583Y015282D01*
X043810Y015282D01*
X043810Y015140D02*
X043810Y014913D01*
X043640Y014913D01*
X043697Y015027D01*
X043697Y015083D01*
X043640Y015140D01*
X043527Y015140D01*
X043470Y015083D01*
X043470Y014970D01*
X043527Y014913D01*
X043210Y014913D02*
X043040Y014913D01*
X043097Y015027D01*
X043097Y015083D01*
X043040Y015140D01*
X042927Y015140D01*
X042870Y015083D01*
X042870Y014970D01*
X042927Y014913D01*
X043210Y014913D02*
X043210Y015140D01*
X043210Y015282D02*
X042983Y015282D01*
X042870Y015395D01*
X042983Y015509D01*
X043210Y015509D01*
X042610Y015509D02*
X042383Y015509D01*
X042270Y015395D01*
X042383Y015282D01*
X042610Y015282D01*
X042610Y015140D02*
X042610Y014913D01*
X042440Y014913D01*
X042497Y015027D01*
X042497Y015083D01*
X042440Y015140D01*
X042327Y015140D01*
X042270Y015083D01*
X042270Y014970D01*
X042327Y014913D01*
X042010Y014913D02*
X042010Y015140D01*
X041897Y015083D02*
X041840Y015140D01*
X041727Y015140D01*
X041670Y015083D01*
X041670Y014970D01*
X041727Y014913D01*
X041840Y014913D02*
X041897Y015027D01*
X041897Y015083D01*
X041840Y014913D02*
X042010Y014913D01*
X042010Y015282D02*
X041783Y015282D01*
X041670Y015395D01*
X041783Y015509D01*
X042010Y015509D01*
X040810Y015509D02*
X040583Y015509D01*
X040470Y015395D01*
X040583Y015282D01*
X040810Y015282D01*
X040754Y015140D02*
X040697Y015140D01*
X040640Y015083D01*
X040583Y015140D01*
X040527Y015140D01*
X040470Y015083D01*
X040470Y014970D01*
X040527Y014913D01*
X040640Y015027D02*
X040640Y015083D01*
X040754Y015140D02*
X040810Y015083D01*
X040810Y014970D01*
X040754Y014913D01*
X040210Y014970D02*
X040210Y015083D01*
X040154Y015140D01*
X040097Y015140D01*
X040040Y015083D01*
X039983Y015140D01*
X039927Y015140D01*
X039870Y015083D01*
X039870Y014970D01*
X039927Y014913D01*
X040040Y015027D02*
X040040Y015083D01*
X040154Y014913D02*
X040210Y014970D01*
X040210Y015282D02*
X039983Y015282D01*
X039870Y015395D01*
X039983Y015509D01*
X040210Y015509D01*
X040154Y015650D02*
X040210Y015707D01*
X040210Y015820D01*
X040154Y015877D01*
X040097Y015877D01*
X040040Y015820D01*
X039983Y015877D01*
X039927Y015877D01*
X039870Y015820D01*
X039870Y015707D01*
X039927Y015650D01*
X040040Y015763D02*
X040040Y015820D01*
X039610Y015820D02*
X039554Y015877D01*
X039497Y015877D01*
X039440Y015820D01*
X039383Y015877D01*
X039327Y015877D01*
X039270Y015820D01*
X039270Y015707D01*
X039327Y015650D01*
X039383Y015509D02*
X039610Y015509D01*
X039554Y015650D02*
X039610Y015707D01*
X039610Y015820D01*
X039440Y015820D02*
X039440Y015763D01*
X039383Y015509D02*
X039270Y015395D01*
X039383Y015282D01*
X039610Y015282D01*
X039554Y015140D02*
X039497Y015140D01*
X039440Y015083D01*
X039383Y015140D01*
X039327Y015140D01*
X039270Y015083D01*
X039270Y014970D01*
X039327Y014913D01*
X039440Y015027D02*
X039440Y015083D01*
X039554Y015140D02*
X039610Y015083D01*
X039610Y014970D01*
X039554Y014913D01*
X038410Y014913D02*
X038070Y015140D01*
X038410Y015140D01*
X038297Y015282D02*
X038410Y015395D01*
X038297Y015509D01*
X038070Y015509D01*
X038240Y015509D02*
X038240Y015282D01*
X038297Y015282D02*
X038070Y015282D01*
X037810Y015282D02*
X037583Y015282D01*
X037470Y015395D01*
X037583Y015509D01*
X037810Y015509D01*
X037754Y015650D02*
X037810Y015707D01*
X037810Y015820D01*
X037754Y015877D01*
X037697Y015877D01*
X037640Y015820D01*
X037583Y015877D01*
X037527Y015877D01*
X037470Y015820D01*
X037470Y015707D01*
X037527Y015650D01*
X037640Y015763D02*
X037640Y015820D01*
X036610Y015877D02*
X036383Y015877D01*
X036270Y015763D01*
X036383Y015650D01*
X036610Y015650D01*
X036610Y015509D02*
X036610Y015282D01*
X036440Y015282D01*
X036497Y015395D01*
X036497Y015452D01*
X036440Y015509D01*
X036327Y015509D01*
X036270Y015452D01*
X036270Y015338D01*
X036327Y015282D01*
X036270Y015140D02*
X036270Y014913D01*
X036270Y015027D02*
X036610Y015027D01*
X036497Y014913D01*
X036010Y014913D02*
X036010Y015140D01*
X035897Y015083D02*
X035840Y015140D01*
X035727Y015140D01*
X035670Y015083D01*
X035670Y014970D01*
X035727Y014913D01*
X035840Y014913D02*
X035897Y015027D01*
X035897Y015083D01*
X035840Y014913D02*
X036010Y014913D01*
X036010Y015282D02*
X035783Y015282D01*
X035670Y015395D01*
X035783Y015509D01*
X036010Y015509D01*
X035410Y015509D02*
X035183Y015509D01*
X035070Y015395D01*
X035183Y015282D01*
X035410Y015282D01*
X035354Y015140D02*
X035297Y015140D01*
X035240Y015083D01*
X035183Y015140D01*
X035127Y015140D01*
X035070Y015083D01*
X035070Y014970D01*
X035127Y014913D01*
X035240Y015027D02*
X035240Y015083D01*
X035354Y015140D02*
X035410Y015083D01*
X035410Y014970D01*
X035354Y014913D01*
X034210Y014913D02*
X033870Y015140D01*
X034210Y015140D01*
X034097Y015282D02*
X034210Y015395D01*
X034097Y015509D01*
X033870Y015509D01*
X034040Y015509D02*
X034040Y015282D01*
X034097Y015282D02*
X033870Y015282D01*
X033870Y014913D02*
X034210Y014913D01*
X034154Y014060D02*
X034210Y014003D01*
X034210Y013833D01*
X033870Y013833D01*
X033870Y014003D01*
X033927Y014060D01*
X034154Y014060D01*
X034210Y013692D02*
X034210Y013465D01*
X033870Y013465D01*
X033870Y013692D01*
X034040Y013578D02*
X034040Y013465D01*
X034210Y013323D02*
X034210Y013096D01*
X034210Y013210D02*
X033870Y013210D01*
X033927Y012955D02*
X033870Y012898D01*
X033870Y012785D01*
X033927Y012728D01*
X034154Y012728D01*
X034210Y012785D01*
X034210Y012898D01*
X034154Y012955D01*
X034210Y012587D02*
X034210Y012360D01*
X033870Y012360D01*
X033870Y012587D01*
X034040Y012473D02*
X034040Y012360D01*
X033870Y012218D02*
X034210Y012218D01*
X034210Y011992D02*
X033870Y012218D01*
X033870Y011992D02*
X034210Y011992D01*
X034210Y011850D02*
X033870Y011850D01*
X034210Y011623D01*
X033870Y011623D01*
X033927Y011482D02*
X034154Y011482D01*
X034210Y011425D01*
X034210Y011312D01*
X034154Y011255D01*
X033927Y011255D01*
X033870Y011312D01*
X033870Y011425D01*
X033927Y011482D01*
X033927Y011113D02*
X033870Y011057D01*
X033870Y010943D01*
X033927Y010887D01*
X034154Y010887D01*
X034210Y010943D01*
X034210Y011057D01*
X034154Y011113D01*
X035070Y011057D02*
X035127Y011113D01*
X035354Y011113D01*
X035410Y011057D01*
X035410Y010943D01*
X035354Y010887D01*
X035127Y010887D01*
X035070Y010943D01*
X035070Y011057D01*
X035127Y011255D02*
X035070Y011312D01*
X035070Y011425D01*
X035127Y011482D01*
X035410Y011482D01*
X035410Y011623D02*
X035410Y011850D01*
X035410Y011737D02*
X035070Y011737D01*
X035670Y011368D02*
X036010Y011368D01*
X036010Y011255D02*
X036010Y011482D01*
X036270Y011614D02*
X036383Y011727D01*
X036610Y011727D01*
X036554Y011869D02*
X036327Y011869D01*
X036270Y011925D01*
X036270Y012039D01*
X036327Y012096D01*
X036554Y012096D01*
X036610Y012039D01*
X036610Y011925D01*
X036554Y011869D01*
X036610Y011500D02*
X036383Y011500D01*
X036270Y011614D01*
X036010Y011113D02*
X035727Y011113D01*
X035670Y011057D01*
X035670Y010943D01*
X035727Y010887D01*
X036010Y010887D01*
X035954Y010745D02*
X036010Y010688D01*
X036010Y010575D01*
X035954Y010518D01*
X035727Y010518D01*
X035670Y010575D01*
X035670Y010688D01*
X035727Y010745D01*
X035954Y010745D01*
X036270Y010877D02*
X036610Y010877D01*
X036610Y010764D02*
X036610Y010991D01*
X036610Y010622D02*
X036327Y010622D01*
X036270Y010566D01*
X036270Y010452D01*
X036327Y010396D01*
X036610Y010396D01*
X036554Y010254D02*
X036440Y010254D01*
X036383Y010197D01*
X036383Y010027D01*
X036270Y010027D02*
X036610Y010027D01*
X036610Y010197D01*
X036554Y010254D01*
X036010Y010009D02*
X035783Y010009D01*
X035670Y009895D01*
X035783Y009782D01*
X036010Y009782D01*
X036010Y009640D02*
X036010Y009413D01*
X035840Y009413D01*
X035897Y009527D01*
X035897Y009583D01*
X035840Y009640D01*
X035727Y009640D01*
X035670Y009583D01*
X035670Y009470D01*
X035727Y009413D01*
X035410Y009470D02*
X035410Y009583D01*
X035354Y009640D01*
X035297Y009640D01*
X035240Y009583D01*
X035183Y009640D01*
X035127Y009640D01*
X035070Y009583D01*
X035070Y009470D01*
X035127Y009413D01*
X035240Y009527D02*
X035240Y009583D01*
X035354Y009413D02*
X035410Y009470D01*
X035410Y009782D02*
X035183Y009782D01*
X035070Y009895D01*
X035183Y010009D01*
X035410Y010009D01*
X035354Y010150D02*
X035410Y010207D01*
X035410Y010320D01*
X035354Y010377D01*
X035297Y010377D01*
X035240Y010320D01*
X035183Y010377D01*
X035127Y010377D01*
X035070Y010320D01*
X035070Y010207D01*
X035127Y010150D01*
X035240Y010263D02*
X035240Y010320D01*
X034210Y010263D02*
X033870Y010263D01*
X033927Y010009D02*
X034154Y010009D01*
X034210Y009952D01*
X034210Y009838D01*
X034154Y009782D01*
X033927Y009782D01*
X033870Y009838D01*
X033870Y009952D01*
X033927Y010009D01*
X034210Y010150D02*
X034210Y010377D01*
X034210Y009640D02*
X033870Y009640D01*
X034210Y009413D01*
X033870Y009413D01*
X036270Y009413D02*
X036270Y009527D01*
X036270Y009470D02*
X036610Y009470D01*
X036610Y009413D02*
X036610Y009527D01*
X036610Y009659D02*
X036270Y009886D01*
X036610Y009886D01*
X036610Y009659D02*
X036270Y009659D01*
X037470Y009583D02*
X037527Y009640D01*
X037470Y009583D02*
X037470Y009470D01*
X037527Y009413D01*
X037754Y009413D01*
X037810Y009470D01*
X037810Y009583D01*
X037754Y009640D01*
X037754Y009782D02*
X037527Y009782D01*
X037470Y009838D01*
X037470Y009952D01*
X037527Y010009D01*
X037754Y010009D01*
X037810Y009952D01*
X037810Y009838D01*
X037754Y009782D01*
X038070Y009838D02*
X038070Y009952D01*
X038127Y010009D01*
X038070Y009838D02*
X038127Y009782D01*
X038354Y009782D01*
X038410Y009838D01*
X038410Y009952D01*
X038354Y010009D01*
X037810Y010150D02*
X037810Y010320D01*
X037754Y010377D01*
X037640Y010377D01*
X037583Y010320D01*
X037583Y010150D01*
X037470Y010150D02*
X037810Y010150D01*
X037583Y010263D02*
X037470Y010377D01*
X037470Y010518D02*
X037470Y010745D01*
X037640Y010632D02*
X037640Y010518D01*
X037810Y010518D02*
X037470Y010518D01*
X037810Y010518D02*
X037810Y010745D01*
X037810Y011255D02*
X037470Y011255D01*
X037583Y011255D02*
X037583Y011425D01*
X037640Y011482D01*
X037754Y011482D01*
X037810Y011425D01*
X037810Y011255D01*
X037583Y011368D02*
X037470Y011482D01*
X037470Y011623D02*
X037470Y011850D01*
X037527Y011992D02*
X037470Y012048D01*
X037470Y012162D01*
X037527Y012218D01*
X037583Y012218D01*
X037640Y012162D01*
X037640Y012048D01*
X037697Y011992D01*
X037754Y011992D01*
X037810Y012048D01*
X037810Y012162D01*
X037754Y012218D01*
X037810Y012360D02*
X037470Y012360D01*
X037470Y012587D01*
X037640Y012473D02*
X037640Y012360D01*
X037810Y012360D02*
X037810Y012587D01*
X037810Y012728D02*
X037810Y012955D01*
X037810Y012842D02*
X037470Y012842D01*
X036610Y012832D02*
X036610Y012605D01*
X036610Y012719D02*
X036270Y012719D01*
X036270Y012974D02*
X036497Y012974D01*
X036610Y013087D01*
X036497Y013201D01*
X036270Y013201D01*
X036327Y013342D02*
X036270Y013399D01*
X036270Y013512D01*
X036327Y013569D01*
X036440Y013569D01*
X036440Y013455D01*
X036327Y013342D02*
X036554Y013342D01*
X036610Y013399D01*
X036610Y013512D01*
X036554Y013569D01*
X036610Y013710D02*
X036270Y013710D01*
X036270Y013937D01*
X036440Y013824D02*
X036440Y013710D01*
X036610Y013710D02*
X036610Y013937D01*
X036440Y013201D02*
X036440Y012974D01*
X036270Y012464D02*
X036270Y012237D01*
X036610Y012237D01*
X037640Y011737D02*
X037640Y011623D01*
X037810Y011623D02*
X037470Y011623D01*
X037810Y011623D02*
X037810Y011850D01*
X039270Y011925D02*
X039327Y011869D01*
X039554Y011869D01*
X039610Y011925D01*
X039610Y012039D01*
X039554Y012096D01*
X039327Y012096D01*
X039270Y012039D01*
X039270Y011925D01*
X039270Y011727D02*
X039270Y011500D01*
X039610Y011500D01*
X039497Y011359D02*
X039270Y011359D01*
X039440Y011359D02*
X039440Y011132D01*
X039497Y011132D02*
X039610Y011246D01*
X039497Y011359D01*
X039497Y011132D02*
X039270Y011132D01*
X039270Y010991D02*
X039610Y010991D01*
X039610Y010764D02*
X039270Y010991D01*
X039270Y010764D02*
X039610Y010764D01*
X039497Y010622D02*
X039270Y010622D01*
X039440Y010622D02*
X039440Y010396D01*
X039497Y010396D02*
X039610Y010509D01*
X039497Y010622D01*
X039497Y010396D02*
X039270Y010396D01*
X039610Y010254D02*
X039270Y010027D01*
X039327Y009886D02*
X039554Y009886D01*
X039610Y009829D01*
X039610Y009716D01*
X039554Y009659D01*
X039327Y009659D01*
X039270Y009716D01*
X039270Y009829D01*
X039327Y009886D01*
X039270Y009527D02*
X039270Y009413D01*
X039270Y009470D02*
X039610Y009470D01*
X039610Y009413D02*
X039610Y009527D01*
X039870Y009527D02*
X039870Y009413D01*
X039870Y009470D02*
X040210Y009470D01*
X040210Y009413D02*
X040210Y009527D01*
X040154Y009659D02*
X039927Y009659D01*
X039870Y009716D01*
X039870Y009829D01*
X039927Y009886D01*
X040154Y009886D01*
X040210Y009829D01*
X040210Y009716D01*
X040154Y009659D01*
X040470Y009716D02*
X040470Y009829D01*
X040527Y009886D01*
X040754Y009886D01*
X040810Y009829D01*
X040810Y009716D01*
X040754Y009659D01*
X040527Y009659D01*
X040470Y009716D01*
X040470Y009527D02*
X040470Y009413D01*
X040470Y009470D02*
X040810Y009470D01*
X040810Y009413D02*
X040810Y009527D01*
X040470Y010027D02*
X040810Y010254D01*
X040697Y010396D02*
X040810Y010509D01*
X040697Y010622D01*
X040470Y010622D01*
X040470Y010764D02*
X040810Y010764D01*
X040470Y010991D01*
X040810Y010991D01*
X040697Y011132D02*
X040810Y011246D01*
X040697Y011359D01*
X040470Y011359D01*
X040470Y011500D02*
X040470Y011727D01*
X040527Y011869D02*
X040470Y011925D01*
X040470Y012039D01*
X040527Y012096D01*
X040754Y012096D01*
X040810Y012039D01*
X040810Y011925D01*
X040754Y011869D01*
X040527Y011869D01*
X040210Y011925D02*
X040154Y011869D01*
X039927Y011869D01*
X039870Y011925D01*
X039870Y012039D01*
X039927Y012096D01*
X040154Y012096D01*
X040210Y012039D01*
X040210Y011925D01*
X040154Y012237D02*
X039927Y012237D01*
X039870Y012294D01*
X039870Y012407D01*
X039927Y012464D01*
X040040Y012464D01*
X040040Y012351D01*
X040154Y012464D02*
X040210Y012407D01*
X040210Y012294D01*
X040154Y012237D01*
X040470Y012294D02*
X040470Y012407D01*
X040527Y012464D01*
X040640Y012464D01*
X040640Y012351D01*
X040754Y012464D02*
X040810Y012407D01*
X040810Y012294D01*
X040754Y012237D01*
X040527Y012237D01*
X040470Y012294D01*
X039870Y011727D02*
X039870Y011500D01*
X040210Y011500D01*
X040097Y011359D02*
X039870Y011359D01*
X040040Y011359D02*
X040040Y011132D01*
X040097Y011132D02*
X040210Y011246D01*
X040097Y011359D01*
X040097Y011132D02*
X039870Y011132D01*
X039870Y010991D02*
X040210Y010991D01*
X040210Y010764D02*
X039870Y010991D01*
X039870Y010764D02*
X040210Y010764D01*
X040097Y010622D02*
X039870Y010622D01*
X040040Y010622D02*
X040040Y010396D01*
X040097Y010396D02*
X040210Y010509D01*
X040097Y010622D01*
X040097Y010396D02*
X039870Y010396D01*
X040210Y010254D02*
X039870Y010027D01*
X040470Y010396D02*
X040697Y010396D01*
X040640Y010396D02*
X040640Y010622D01*
X040640Y011132D02*
X040640Y011359D01*
X040810Y011500D02*
X040470Y011500D01*
X040470Y011132D02*
X040697Y011132D01*
X041670Y011132D02*
X042010Y011132D01*
X041954Y010991D02*
X042010Y010934D01*
X042010Y010821D01*
X041954Y010764D01*
X041727Y010764D01*
X041670Y010821D01*
X041670Y010934D01*
X041727Y010991D01*
X041783Y011132D02*
X042010Y011359D01*
X041840Y011189D02*
X041670Y011359D01*
X042270Y011359D02*
X042610Y011359D01*
X042497Y011246D01*
X042610Y011132D01*
X042270Y011132D01*
X042270Y010991D02*
X042610Y010991D01*
X042610Y010764D02*
X042270Y010764D01*
X042383Y010877D01*
X042270Y010991D01*
X042440Y010622D02*
X042383Y010566D01*
X042383Y010396D01*
X042270Y010396D02*
X042610Y010396D01*
X042610Y010566D01*
X042554Y010622D01*
X042440Y010622D01*
X042610Y010254D02*
X042270Y010027D01*
X042327Y009886D02*
X042554Y009886D01*
X042610Y009829D01*
X042610Y009716D01*
X042554Y009659D01*
X042327Y009659D01*
X042270Y009716D01*
X042270Y009829D01*
X042327Y009886D01*
X042010Y009829D02*
X041954Y009886D01*
X041727Y009886D01*
X041670Y009829D01*
X041670Y009716D01*
X041727Y009659D01*
X041954Y009659D01*
X042010Y009716D01*
X042010Y009829D01*
X042010Y009527D02*
X042010Y009413D01*
X042010Y009470D02*
X041670Y009470D01*
X041670Y009413D02*
X041670Y009527D01*
X042270Y009527D02*
X042270Y009413D01*
X042270Y009470D02*
X042610Y009470D01*
X042610Y009413D02*
X042610Y009527D01*
X042870Y009527D02*
X042870Y009413D01*
X042870Y009470D02*
X043210Y009470D01*
X043210Y009413D02*
X043210Y009527D01*
X043154Y009659D02*
X042927Y009659D01*
X042870Y009716D01*
X042870Y009829D01*
X042927Y009886D01*
X043154Y009886D01*
X043210Y009829D01*
X043210Y009716D01*
X043154Y009659D01*
X043470Y009716D02*
X043470Y009829D01*
X043527Y009886D01*
X043754Y009886D01*
X043810Y009829D01*
X043810Y009716D01*
X043754Y009659D01*
X043527Y009659D01*
X043470Y009716D01*
X043470Y009527D02*
X043470Y009413D01*
X043470Y009470D02*
X043810Y009470D01*
X043810Y009413D02*
X043810Y009527D01*
X044070Y009527D02*
X044070Y009413D01*
X044070Y009470D02*
X044410Y009470D01*
X044410Y009413D02*
X044410Y009527D01*
X044354Y009659D02*
X044127Y009659D01*
X044070Y009716D01*
X044070Y009829D01*
X044127Y009886D01*
X044354Y009886D01*
X044410Y009829D01*
X044410Y009716D01*
X044354Y009659D01*
X044670Y009716D02*
X044670Y009829D01*
X044727Y009886D01*
X044954Y009886D01*
X045010Y009829D01*
X045010Y009716D01*
X044954Y009659D01*
X044727Y009659D01*
X044670Y009716D01*
X044670Y009527D02*
X044670Y009413D01*
X044670Y009470D02*
X045010Y009470D01*
X045010Y009413D02*
X045010Y009527D01*
X045270Y009527D02*
X045270Y009413D01*
X045270Y009470D02*
X045610Y009470D01*
X045610Y009413D02*
X045610Y009527D01*
X045554Y009659D02*
X045327Y009659D01*
X045270Y009716D01*
X045270Y009829D01*
X045327Y009886D01*
X045554Y009886D01*
X045610Y009829D01*
X045610Y009716D01*
X045554Y009659D01*
X045870Y009716D02*
X045870Y009829D01*
X045927Y009886D01*
X046154Y009886D01*
X046210Y009829D01*
X046210Y009716D01*
X046154Y009659D01*
X045927Y009659D01*
X045870Y009716D01*
X045870Y009527D02*
X045870Y009413D01*
X045870Y009470D02*
X046210Y009470D01*
X046210Y009413D02*
X046210Y009527D01*
X046470Y009527D02*
X046470Y009413D01*
X046470Y009470D02*
X046810Y009470D01*
X046810Y009413D02*
X046810Y009527D01*
X046754Y009659D02*
X046527Y009659D01*
X046470Y009716D01*
X046470Y009829D01*
X046527Y009886D01*
X046754Y009886D01*
X046810Y009829D01*
X046810Y009716D01*
X046754Y009659D01*
X047070Y009716D02*
X047070Y009829D01*
X047127Y009886D01*
X047354Y009886D01*
X047410Y009829D01*
X047410Y009716D01*
X047354Y009659D01*
X047127Y009659D01*
X047070Y009716D01*
X047070Y009527D02*
X047070Y009413D01*
X047070Y009470D02*
X047410Y009470D01*
X047410Y009413D02*
X047410Y009527D01*
X047670Y009527D02*
X047670Y009413D01*
X047670Y009470D02*
X048010Y009470D01*
X048010Y009413D02*
X048010Y009527D01*
X047954Y009659D02*
X047727Y009659D01*
X047670Y009716D01*
X047670Y009829D01*
X047727Y009886D01*
X047954Y009886D01*
X048010Y009829D01*
X048010Y009716D01*
X047954Y009659D01*
X048270Y009716D02*
X048270Y009829D01*
X048327Y009886D01*
X048554Y009886D01*
X048610Y009829D01*
X048610Y009716D01*
X048554Y009659D01*
X048327Y009659D01*
X048270Y009716D01*
X048270Y009527D02*
X048270Y009413D01*
X048270Y009470D02*
X048610Y009470D01*
X048610Y009413D02*
X048610Y009527D01*
X048870Y009527D02*
X048870Y009413D01*
X048870Y009470D02*
X049210Y009470D01*
X049210Y009413D02*
X049210Y009527D01*
X049154Y009659D02*
X048927Y009659D01*
X048870Y009716D01*
X048870Y009829D01*
X048927Y009886D01*
X049154Y009886D01*
X049210Y009829D01*
X049210Y009716D01*
X049154Y009659D01*
X049470Y009716D02*
X049470Y009829D01*
X049527Y009886D01*
X049754Y009886D01*
X049810Y009829D01*
X049810Y009716D01*
X049754Y009659D01*
X049527Y009659D01*
X049470Y009716D01*
X049470Y009527D02*
X049470Y009413D01*
X049470Y009470D02*
X049810Y009470D01*
X049810Y009413D02*
X049810Y009527D01*
X049470Y010027D02*
X049810Y010254D01*
X049810Y010396D02*
X049810Y010566D01*
X049754Y010622D01*
X049640Y010622D01*
X049583Y010566D01*
X049583Y010396D01*
X049583Y010509D02*
X049470Y010622D01*
X049470Y010764D02*
X049810Y010991D01*
X049810Y010764D02*
X049470Y010991D01*
X049210Y010991D02*
X048870Y010764D01*
X048870Y010991D02*
X049210Y010764D01*
X049210Y010622D02*
X049210Y010396D01*
X049210Y010509D02*
X048870Y010509D01*
X049210Y010254D02*
X048870Y010027D01*
X049470Y010396D02*
X049810Y010396D01*
X050520Y010413D02*
X050860Y010413D01*
X050860Y010640D01*
X050860Y010782D02*
X050577Y010782D01*
X050520Y010838D01*
X050520Y010952D01*
X050577Y011009D01*
X050860Y011009D01*
X050860Y011150D02*
X050520Y011150D01*
X050520Y011377D02*
X050860Y011377D01*
X050804Y011518D02*
X050860Y011575D01*
X050860Y011688D01*
X050804Y011745D01*
X050860Y011887D02*
X050860Y012113D01*
X050860Y012000D02*
X050520Y012000D01*
X050520Y012255D02*
X050520Y012368D01*
X050520Y012312D02*
X050860Y012312D01*
X050860Y012368D02*
X050860Y012255D01*
X050804Y012500D02*
X050577Y012500D01*
X050520Y012557D01*
X050520Y012671D01*
X050577Y012727D01*
X050804Y012727D01*
X050860Y012671D01*
X050860Y012557D01*
X050804Y012500D01*
X050860Y012869D02*
X050520Y012869D01*
X050520Y013096D02*
X050860Y013096D01*
X050860Y012869D02*
X050520Y013096D01*
X050577Y011745D02*
X050520Y011688D01*
X050520Y011575D01*
X050577Y011518D01*
X050804Y011518D01*
X050520Y011377D02*
X050860Y011150D01*
X050690Y010527D02*
X050690Y010413D01*
X048010Y010396D02*
X048010Y010566D01*
X047954Y010622D01*
X047840Y010622D01*
X047783Y010566D01*
X047783Y010396D01*
X047670Y010396D02*
X048010Y010396D01*
X048010Y010254D02*
X047670Y010027D01*
X047670Y010764D02*
X047783Y010877D01*
X047670Y010991D01*
X048010Y010991D01*
X048010Y011132D02*
X047897Y011246D01*
X048010Y011359D01*
X047670Y011359D01*
X047670Y011132D02*
X048010Y011132D01*
X048010Y010764D02*
X047670Y010764D01*
X046810Y010764D02*
X046470Y010764D01*
X046583Y010877D01*
X046470Y010991D01*
X046810Y010991D01*
X046810Y011132D02*
X046697Y011246D01*
X046810Y011359D01*
X046470Y011359D01*
X046470Y011132D02*
X046810Y011132D01*
X046210Y011132D02*
X046097Y011246D01*
X046210Y011359D01*
X045870Y011359D01*
X045870Y011132D02*
X046210Y011132D01*
X046210Y010991D02*
X045870Y010991D01*
X045983Y010877D01*
X045870Y010764D01*
X046210Y010764D01*
X046154Y010622D02*
X046040Y010622D01*
X045983Y010566D01*
X045983Y010396D01*
X045870Y010396D02*
X046210Y010396D01*
X046210Y010566D01*
X046154Y010622D01*
X046210Y010254D02*
X045870Y010027D01*
X046470Y010027D02*
X046810Y010254D01*
X046810Y010396D02*
X046810Y010566D01*
X046754Y010622D01*
X046640Y010622D01*
X046583Y010566D01*
X046583Y010396D01*
X046470Y010396D02*
X046810Y010396D01*
X043810Y010452D02*
X043754Y010396D01*
X043697Y010396D01*
X043640Y010452D01*
X043640Y010566D01*
X043583Y010622D01*
X043527Y010622D01*
X043470Y010566D01*
X043470Y010452D01*
X043527Y010396D01*
X043810Y010452D02*
X043810Y010566D01*
X043754Y010622D01*
X043754Y010764D02*
X043697Y010764D01*
X043640Y010821D01*
X043640Y010934D01*
X043583Y010991D01*
X043527Y010991D01*
X043470Y010934D01*
X043470Y010821D01*
X043527Y010764D01*
X043754Y010764D02*
X043810Y010821D01*
X043810Y010934D01*
X043754Y010991D01*
X043210Y010991D02*
X042870Y010991D01*
X042983Y010877D01*
X042870Y010764D01*
X043210Y010764D01*
X043154Y010622D02*
X043040Y010622D01*
X042983Y010566D01*
X042983Y010396D01*
X042870Y010396D02*
X043210Y010396D01*
X043210Y010566D01*
X043154Y010622D01*
X043210Y010254D02*
X042870Y010027D01*
X043470Y010027D02*
X043810Y010254D01*
X043210Y011132D02*
X042870Y011132D01*
X042870Y011359D02*
X043210Y011359D01*
X043097Y011246D01*
X043210Y011132D01*
X042870Y011500D02*
X043210Y011727D01*
X043210Y011869D02*
X043097Y011982D01*
X043210Y012096D01*
X042870Y012096D01*
X042927Y012237D02*
X042870Y012294D01*
X042870Y012407D01*
X042927Y012464D01*
X043154Y012464D01*
X043210Y012407D01*
X043210Y012294D01*
X043154Y012237D01*
X042927Y012237D01*
X042610Y012237D02*
X042610Y012351D01*
X042610Y012294D02*
X042270Y012294D01*
X042270Y012237D02*
X042270Y012351D01*
X042327Y012483D02*
X042270Y012539D01*
X042270Y012653D01*
X042327Y012709D01*
X042383Y012709D01*
X042440Y012653D01*
X042440Y012539D01*
X042497Y012483D01*
X042554Y012483D01*
X042610Y012539D01*
X042610Y012653D01*
X042554Y012709D01*
X042554Y012851D02*
X042327Y012851D01*
X042270Y012908D01*
X042270Y013021D01*
X042327Y013078D01*
X042554Y013078D01*
X042610Y013021D01*
X042610Y012908D01*
X042554Y012851D01*
X042870Y012776D02*
X042870Y012662D01*
X042927Y012605D01*
X043040Y012662D02*
X043040Y012776D01*
X042983Y012832D01*
X042927Y012832D01*
X042870Y012776D01*
X042870Y012974D02*
X042870Y013087D01*
X042870Y013030D02*
X043210Y013030D01*
X043210Y012974D02*
X043210Y013087D01*
X043154Y012832D02*
X043210Y012776D01*
X043210Y012662D01*
X043154Y012605D01*
X043097Y012605D01*
X043040Y012662D01*
X042610Y012096D02*
X042270Y012096D01*
X042270Y011869D02*
X042610Y011869D01*
X042497Y011982D01*
X042610Y012096D01*
X042870Y011869D02*
X043210Y011869D01*
X042610Y011727D02*
X042270Y011500D01*
X041954Y010622D02*
X042010Y010566D01*
X042010Y010452D01*
X041954Y010396D01*
X041897Y010396D01*
X041840Y010452D01*
X041840Y010566D01*
X041783Y010622D01*
X041727Y010622D01*
X041670Y010566D01*
X041670Y010452D01*
X041727Y010396D01*
X042010Y010254D02*
X041670Y010027D01*
X038410Y009640D02*
X038070Y009640D01*
X038410Y009413D01*
X038070Y009413D01*
X037810Y008113D02*
X037810Y007887D01*
X037810Y008000D02*
X037470Y008000D01*
X037470Y007745D02*
X037470Y007518D01*
X037810Y007518D01*
X037810Y007745D01*
X037640Y007632D02*
X037640Y007518D01*
X037583Y007377D02*
X037527Y007377D01*
X037470Y007320D01*
X037470Y007207D01*
X037527Y007150D01*
X037640Y007207D02*
X037640Y007320D01*
X037583Y007377D01*
X037754Y007377D02*
X037810Y007320D01*
X037810Y007207D01*
X037754Y007150D01*
X037697Y007150D01*
X037640Y007207D01*
X037470Y007009D02*
X037470Y006782D01*
X037810Y006782D01*
X037810Y007009D01*
X037640Y006895D02*
X037640Y006782D01*
X037640Y006640D02*
X037583Y006583D01*
X037583Y006413D01*
X037470Y006413D02*
X037810Y006413D01*
X037810Y006583D01*
X037754Y006640D01*
X037640Y006640D01*
X037583Y006527D02*
X037470Y006640D01*
X038070Y006640D02*
X038297Y006640D01*
X038410Y006527D01*
X038297Y006413D01*
X038070Y006413D01*
X038240Y006413D02*
X038240Y006640D01*
X038183Y006782D02*
X038183Y006952D01*
X038240Y007009D01*
X038354Y007009D01*
X038410Y006952D01*
X038410Y006782D01*
X038070Y006782D01*
X038183Y006895D02*
X038070Y007009D01*
X038070Y007150D02*
X038070Y007377D01*
X038070Y007518D02*
X038410Y007518D01*
X038410Y007745D01*
X038240Y007632D02*
X038240Y007518D01*
X038410Y007377D02*
X038410Y007150D01*
X038070Y007150D01*
X038240Y007150D02*
X038240Y007263D01*
X039270Y007009D02*
X039270Y006782D01*
X039497Y007009D01*
X039554Y007009D01*
X039610Y006952D01*
X039610Y006838D01*
X039554Y006782D01*
X039497Y006640D02*
X039270Y006640D01*
X039440Y006640D02*
X039440Y006413D01*
X039497Y006413D02*
X039610Y006527D01*
X039497Y006640D01*
X039497Y006413D02*
X039270Y006413D01*
X039870Y006413D02*
X040097Y006413D01*
X040210Y006527D01*
X040097Y006640D01*
X039870Y006640D01*
X039870Y006782D02*
X039870Y007009D01*
X039870Y006895D02*
X040210Y006895D01*
X040097Y006782D01*
X040040Y006640D02*
X040040Y006413D01*
X040470Y006413D02*
X040697Y006413D01*
X040810Y006527D01*
X040697Y006640D01*
X040470Y006640D01*
X040527Y006782D02*
X040754Y007009D01*
X040527Y007009D01*
X040470Y006952D01*
X040470Y006838D01*
X040527Y006782D01*
X040754Y006782D01*
X040810Y006838D01*
X040810Y006952D01*
X040754Y007009D01*
X040640Y006640D02*
X040640Y006413D01*
X041670Y006413D02*
X041670Y006640D01*
X041670Y006527D02*
X042010Y006527D01*
X041897Y006413D01*
X041954Y006782D02*
X042010Y006838D01*
X042010Y006952D01*
X041954Y007009D01*
X041897Y007009D01*
X041840Y006952D01*
X041783Y007009D01*
X041727Y007009D01*
X041670Y006952D01*
X041670Y006838D01*
X041727Y006782D01*
X041840Y006895D02*
X041840Y006952D01*
X042270Y007009D02*
X042270Y006782D01*
X042497Y007009D01*
X042554Y007009D01*
X042610Y006952D01*
X042610Y006838D01*
X042554Y006782D01*
X042610Y006527D02*
X042270Y006527D01*
X042270Y006640D02*
X042270Y006413D01*
X042497Y006413D02*
X042610Y006527D01*
X042870Y006527D02*
X043210Y006527D01*
X043097Y006413D01*
X042870Y006413D02*
X042870Y006640D01*
X042870Y006782D02*
X042870Y007009D01*
X042870Y006895D02*
X043210Y006895D01*
X043097Y006782D01*
X043470Y006838D02*
X043527Y006782D01*
X043754Y007009D01*
X043527Y007009D01*
X043470Y006952D01*
X043470Y006838D01*
X043527Y006782D02*
X043754Y006782D01*
X043810Y006838D01*
X043810Y006952D01*
X043754Y007009D01*
X043470Y006640D02*
X043470Y006413D01*
X043470Y006527D02*
X043810Y006527D01*
X043697Y006413D01*
X044070Y006470D02*
X044070Y006583D01*
X044127Y006640D01*
X044354Y006640D01*
X044410Y006583D01*
X044410Y006470D01*
X044354Y006413D01*
X044297Y006413D01*
X044240Y006470D01*
X044240Y006640D01*
X044070Y006470D02*
X044127Y006413D01*
X044670Y006470D02*
X044670Y006583D01*
X044727Y006640D01*
X044783Y006640D01*
X044840Y006583D01*
X044840Y006470D01*
X044897Y006413D01*
X044954Y006413D01*
X045010Y006470D01*
X045010Y006583D01*
X044954Y006640D01*
X044897Y006640D01*
X044840Y006583D01*
X044840Y006470D02*
X044783Y006413D01*
X044727Y006413D01*
X044670Y006470D01*
X045270Y006413D02*
X045327Y006413D01*
X045554Y006640D01*
X045610Y006640D01*
X045610Y006413D01*
X045870Y006470D02*
X045870Y006583D01*
X045927Y006640D01*
X045983Y006640D01*
X046040Y006583D01*
X046040Y006413D01*
X045927Y006413D01*
X045870Y006470D01*
X046040Y006413D02*
X046154Y006527D01*
X046210Y006640D01*
X046470Y006583D02*
X046470Y006470D01*
X046527Y006413D01*
X046640Y006413D02*
X046697Y006527D01*
X046697Y006583D01*
X046640Y006640D01*
X046527Y006640D01*
X046470Y006583D01*
X046640Y006413D02*
X046810Y006413D01*
X046810Y006640D01*
X047070Y006583D02*
X047410Y006583D01*
X047240Y006413D01*
X047240Y006640D01*
X047670Y006583D02*
X047670Y006470D01*
X047727Y006413D01*
X047840Y006527D02*
X047840Y006583D01*
X047783Y006640D01*
X047727Y006640D01*
X047670Y006583D01*
X047840Y006583D02*
X047897Y006640D01*
X047954Y006640D01*
X048010Y006583D01*
X048010Y006470D01*
X047954Y006413D01*
X048270Y006413D02*
X048497Y006640D01*
X048554Y006640D01*
X048610Y006583D01*
X048610Y006470D01*
X048554Y006413D01*
X048270Y006413D02*
X048270Y006640D01*
X048870Y006640D02*
X048870Y006413D01*
X048870Y006527D02*
X049210Y006527D01*
X049097Y006413D01*
X049470Y006470D02*
X049527Y006413D01*
X049754Y006640D01*
X049527Y006640D01*
X049470Y006583D01*
X049470Y006470D01*
X049527Y006413D02*
X049754Y006413D01*
X049810Y006470D01*
X049810Y006583D01*
X049754Y006640D01*
X050520Y006782D02*
X050520Y006895D01*
X050520Y006838D02*
X050860Y006838D01*
X050860Y006782D02*
X050860Y006895D01*
X050860Y007027D02*
X050520Y007254D01*
X050860Y007254D01*
X050804Y007396D02*
X050747Y007396D01*
X050690Y007452D01*
X050690Y007566D01*
X050633Y007622D01*
X050577Y007622D01*
X050520Y007566D01*
X050520Y007452D01*
X050577Y007396D01*
X050804Y007396D02*
X050860Y007452D01*
X050860Y007566D01*
X050804Y007622D01*
X051120Y007622D02*
X051120Y007396D01*
X051460Y007396D01*
X051460Y007622D01*
X051460Y007764D02*
X051120Y007764D01*
X051120Y007991D01*
X051120Y008132D02*
X051120Y008302D01*
X051177Y008359D01*
X051404Y008359D01*
X051460Y008302D01*
X051460Y008132D01*
X051120Y008132D01*
X051290Y007509D02*
X051290Y007396D01*
X051120Y007263D02*
X051120Y007150D01*
X051120Y007207D02*
X051460Y007207D01*
X051460Y007263D02*
X051460Y007150D01*
X051460Y007009D02*
X051120Y007009D01*
X051290Y007009D02*
X051290Y006782D01*
X051233Y006640D02*
X051177Y006640D01*
X051120Y006583D01*
X051120Y006470D01*
X051177Y006413D01*
X051290Y006470D02*
X051290Y006583D01*
X051233Y006640D01*
X051404Y006640D02*
X051460Y006583D01*
X051460Y006470D01*
X051404Y006413D01*
X051347Y006413D01*
X051290Y006470D01*
X051120Y006782D02*
X051460Y006782D01*
X050860Y006583D02*
X050804Y006640D01*
X050690Y006640D01*
X050633Y006583D01*
X050633Y006413D01*
X050520Y006413D02*
X050860Y006413D01*
X050860Y006583D01*
X050860Y007027D02*
X050520Y007027D01*
X039610Y012294D02*
X039554Y012237D01*
X039327Y012237D01*
X039270Y012294D01*
X039270Y012407D01*
X039327Y012464D01*
X039440Y012464D01*
X039440Y012351D01*
X039554Y012464D02*
X039610Y012407D01*
X039610Y012294D01*
X035410Y011255D02*
X035127Y011255D01*
X037527Y014913D02*
X037470Y014970D01*
X037470Y015083D01*
X037527Y015140D01*
X037583Y015140D01*
X037640Y015083D01*
X037640Y015027D01*
X037640Y015083D02*
X037697Y015140D01*
X037754Y015140D01*
X037810Y015083D01*
X037810Y014970D01*
X037754Y014913D01*
X038070Y014913D02*
X038410Y014913D01*
X040470Y015707D02*
X040527Y015650D01*
X040470Y015707D02*
X040470Y015820D01*
X040527Y015877D01*
X040583Y015877D01*
X040640Y015820D01*
X040640Y015763D01*
X040640Y015820D02*
X040697Y015877D01*
X040754Y015877D01*
X040810Y015820D01*
X040810Y015707D01*
X040754Y015650D01*
X035410Y015707D02*
X035410Y015820D01*
X035354Y015877D01*
X035297Y015877D01*
X035240Y015820D01*
X035183Y015877D01*
X035127Y015877D01*
X035070Y015820D01*
X035070Y015707D01*
X035127Y015650D01*
X035240Y015763D02*
X035240Y015820D01*
X035354Y015650D02*
X035410Y015707D01*
X035354Y007377D02*
X035297Y007377D01*
X035240Y007320D01*
X035183Y007377D01*
X035127Y007377D01*
X035070Y007320D01*
X035070Y007207D01*
X035127Y007150D01*
X035183Y007009D02*
X035410Y007009D01*
X035354Y007150D02*
X035410Y007207D01*
X035410Y007320D01*
X035354Y007377D01*
X035240Y007320D02*
X035240Y007263D01*
X035183Y007009D02*
X035070Y006895D01*
X035183Y006782D01*
X035410Y006782D01*
X035354Y006640D02*
X035297Y006640D01*
X035240Y006583D01*
X035183Y006640D01*
X035127Y006640D01*
X035070Y006583D01*
X035070Y006470D01*
X035127Y006413D01*
X035240Y006527D02*
X035240Y006583D01*
X035354Y006640D02*
X035410Y006583D01*
X035410Y006470D01*
X035354Y006413D01*
X035670Y006470D02*
X035670Y006583D01*
X035727Y006640D01*
X035840Y006640D01*
X035897Y006583D01*
X035897Y006527D01*
X035840Y006413D01*
X036010Y006413D01*
X036010Y006640D01*
X036010Y006782D02*
X035783Y006782D01*
X035670Y006895D01*
X035783Y007009D01*
X036010Y007009D01*
X036270Y007027D02*
X036610Y007027D01*
X036270Y007254D01*
X036610Y007254D01*
X036610Y006895D02*
X036610Y006782D01*
X036610Y006838D02*
X036270Y006838D01*
X036270Y006782D02*
X036270Y006895D01*
X036383Y006640D02*
X036270Y006527D01*
X036383Y006413D01*
X036610Y006413D01*
X036610Y006640D02*
X036383Y006640D01*
X035727Y006413D02*
X035670Y006470D01*
X034210Y006413D02*
X033870Y006640D01*
X034210Y006640D01*
X034154Y006782D02*
X033927Y006782D01*
X033870Y006838D01*
X033870Y006952D01*
X033927Y007009D01*
X034154Y007009D02*
X034210Y006952D01*
X034210Y006838D01*
X034154Y006782D01*
X034210Y006413D02*
X033870Y006413D01*
D12*
X033490Y005883D02*
X033490Y008883D01*
X051740Y008883D01*
X051740Y005883D01*
X050240Y005883D01*
X050240Y016383D01*
X051740Y016383D01*
X051740Y014383D01*
X033490Y014383D01*
X033490Y016383D01*
X034740Y016383D01*
X034740Y005883D01*
X033490Y005883D01*
X034740Y005883D02*
X037240Y005883D01*
X037240Y016383D01*
X038740Y016383D01*
X038740Y005883D01*
X037240Y005883D01*
X038740Y005883D02*
X041240Y005883D01*
X041240Y016383D01*
X050240Y016383D01*
X051740Y014383D02*
X051740Y008883D01*
X050240Y005883D02*
X041240Y005883D01*
X033490Y008883D02*
X033490Y014383D01*
X034740Y016383D02*
X037240Y016383D01*
X038740Y016383D02*
X041240Y016383D01*
D13*
X029516Y021277D02*
X029314Y021525D01*
X029365Y021624D01*
X029399Y021731D01*
X029717Y021763D01*
X029717Y022003D01*
X029399Y022036D01*
X029365Y022142D01*
X029314Y022242D01*
X029516Y022489D01*
X029346Y022659D01*
X029099Y022457D01*
X028999Y022509D01*
X028892Y022543D01*
X028860Y022860D01*
X028620Y022860D01*
X028588Y022543D01*
X028481Y022509D01*
X028381Y022457D01*
X028134Y022659D01*
X027964Y022489D01*
X028166Y022242D01*
X028115Y022142D01*
X028081Y022036D01*
X027763Y022003D01*
X027763Y021763D01*
X028081Y021731D01*
X028115Y021624D01*
X028166Y021525D01*
X027964Y021277D01*
X028134Y021108D01*
X028381Y021309D01*
X028481Y021258D01*
X028622Y021599D01*
X028567Y021629D01*
X028518Y021670D01*
X028480Y021720D01*
X028452Y021776D01*
X028436Y021837D01*
X028433Y021901D01*
X028443Y021963D01*
X028465Y022022D01*
X028500Y022075D01*
X028544Y022120D01*
X028596Y022155D01*
X028655Y022179D01*
X028717Y022190D01*
X028780Y022188D01*
X028842Y022174D01*
X028899Y022147D01*
X028949Y022109D01*
X028991Y022061D01*
X029022Y022006D01*
X029041Y021946D01*
X029048Y021883D01*
X029042Y021823D01*
X029024Y021766D01*
X028996Y021712D01*
X028958Y021666D01*
X028911Y021628D01*
X028858Y021599D01*
X028999Y021258D01*
X029099Y021309D01*
X029346Y021108D01*
X029516Y021277D01*
X029496Y021301D02*
X029109Y021301D01*
X029082Y021301D02*
X028981Y021301D01*
X028957Y021359D02*
X029449Y021359D01*
X029402Y021416D02*
X028934Y021416D01*
X028910Y021474D02*
X029355Y021474D01*
X029317Y021531D02*
X028886Y021531D01*
X028862Y021589D02*
X029347Y021589D01*
X029372Y021646D02*
X028934Y021646D01*
X028989Y021704D02*
X029391Y021704D01*
X029698Y021761D02*
X029022Y021761D01*
X029040Y021819D02*
X029717Y021819D01*
X029717Y021877D02*
X029047Y021877D01*
X029042Y021934D02*
X029717Y021934D01*
X029717Y021992D02*
X029027Y021992D01*
X028998Y022049D02*
X029395Y022049D01*
X029377Y022107D02*
X028951Y022107D01*
X028861Y022164D02*
X029354Y022164D01*
X029324Y022222D02*
X028156Y022222D01*
X028136Y022279D02*
X029344Y022279D01*
X029391Y022337D02*
X028089Y022337D01*
X028042Y022395D02*
X029438Y022395D01*
X029485Y022452D02*
X027995Y022452D01*
X027985Y022510D02*
X028317Y022510D01*
X028246Y022567D02*
X028042Y022567D01*
X028100Y022625D02*
X028176Y022625D01*
X028485Y022510D02*
X028995Y022510D01*
X028890Y022567D02*
X028590Y022567D01*
X028596Y022625D02*
X028884Y022625D01*
X028878Y022682D02*
X028602Y022682D01*
X028608Y022740D02*
X028872Y022740D01*
X028866Y022797D02*
X028614Y022797D01*
X028620Y022855D02*
X028860Y022855D01*
X029163Y022510D02*
X029495Y022510D01*
X029438Y022567D02*
X029234Y022567D01*
X029304Y022625D02*
X029380Y022625D01*
X028619Y022164D02*
X028126Y022164D01*
X028103Y022107D02*
X028531Y022107D01*
X028483Y022049D02*
X028085Y022049D01*
X027763Y021992D02*
X028454Y021992D01*
X028438Y021934D02*
X027763Y021934D01*
X027763Y021877D02*
X028434Y021877D01*
X028441Y021819D02*
X027763Y021819D01*
X027782Y021761D02*
X028459Y021761D01*
X028492Y021704D02*
X028089Y021704D01*
X028108Y021646D02*
X028546Y021646D01*
X028618Y021589D02*
X028133Y021589D01*
X028163Y021531D02*
X028594Y021531D01*
X028570Y021474D02*
X028125Y021474D01*
X028078Y021416D02*
X028546Y021416D01*
X028523Y021359D02*
X028031Y021359D01*
X027984Y021301D02*
X028371Y021301D01*
X028398Y021301D02*
X028499Y021301D01*
X028301Y021243D02*
X027998Y021243D01*
X028056Y021186D02*
X028230Y021186D01*
X028159Y021128D02*
X028113Y021128D01*
X029180Y021243D02*
X029482Y021243D01*
X029424Y021186D02*
X029250Y021186D01*
X029321Y021128D02*
X029367Y021128D01*
M02*
