G75*
G70*
%OFA0B0*%
%FSLAX24Y24*%
%IPPOS*%
%LPD*%
%AMOC8*
5,1,8,0,0,1.08239X$1,22.5*
%
%ADD10C,0.0000*%
%ADD11C,0.0640*%
%ADD12C,0.0740*%
%ADD13R,0.2441X0.2126*%
%ADD14R,0.0630X0.0394*%
%ADD15R,0.0551X0.1181*%
%ADD16R,0.0390X0.0120*%
%ADD17R,0.0394X0.0433*%
%ADD18C,0.0787*%
%ADD19R,0.0579X0.0500*%
%ADD20R,0.0551X0.0472*%
%ADD21C,0.0740*%
%ADD22C,0.0120*%
%ADD23C,0.0476*%
%ADD24C,0.0760*%
%ADD25C,0.0400*%
%ADD26C,0.0160*%
%ADD27C,0.0436*%
%ADD28C,0.0500*%
%ADD29C,0.0660*%
D10*
X001400Y000550D02*
X001400Y021550D01*
X026800Y021550D01*
X027400Y020950D01*
X027400Y019350D01*
X028400Y018350D01*
X037300Y018350D01*
X038300Y017350D01*
X038300Y002550D01*
X037300Y001550D01*
X028400Y001550D01*
X027400Y000550D01*
X001400Y000550D01*
X006270Y001550D02*
X006272Y001600D01*
X006278Y001650D01*
X006288Y001699D01*
X006302Y001747D01*
X006319Y001794D01*
X006340Y001839D01*
X006365Y001883D01*
X006393Y001924D01*
X006425Y001963D01*
X006459Y002000D01*
X006496Y002034D01*
X006536Y002064D01*
X006578Y002091D01*
X006622Y002115D01*
X006668Y002136D01*
X006715Y002152D01*
X006763Y002165D01*
X006813Y002174D01*
X006862Y002179D01*
X006913Y002180D01*
X006963Y002177D01*
X007012Y002170D01*
X007061Y002159D01*
X007109Y002144D01*
X007155Y002126D01*
X007200Y002104D01*
X007243Y002078D01*
X007284Y002049D01*
X007323Y002017D01*
X007359Y001982D01*
X007391Y001944D01*
X007421Y001904D01*
X007448Y001861D01*
X007471Y001817D01*
X007490Y001771D01*
X007506Y001723D01*
X007518Y001674D01*
X007526Y001625D01*
X007530Y001575D01*
X007530Y001525D01*
X007526Y001475D01*
X007518Y001426D01*
X007506Y001377D01*
X007490Y001329D01*
X007471Y001283D01*
X007448Y001239D01*
X007421Y001196D01*
X007391Y001156D01*
X007359Y001118D01*
X007323Y001083D01*
X007284Y001051D01*
X007243Y001022D01*
X007200Y000996D01*
X007155Y000974D01*
X007109Y000956D01*
X007061Y000941D01*
X007012Y000930D01*
X006963Y000923D01*
X006913Y000920D01*
X006862Y000921D01*
X006813Y000926D01*
X006763Y000935D01*
X006715Y000948D01*
X006668Y000964D01*
X006622Y000985D01*
X006578Y001009D01*
X006536Y001036D01*
X006496Y001066D01*
X006459Y001100D01*
X006425Y001137D01*
X006393Y001176D01*
X006365Y001217D01*
X006340Y001261D01*
X006319Y001306D01*
X006302Y001353D01*
X006288Y001401D01*
X006278Y001450D01*
X006272Y001500D01*
X006270Y001550D01*
X026770Y003550D02*
X026772Y003600D01*
X026778Y003650D01*
X026788Y003699D01*
X026802Y003747D01*
X026819Y003794D01*
X026840Y003839D01*
X026865Y003883D01*
X026893Y003924D01*
X026925Y003963D01*
X026959Y004000D01*
X026996Y004034D01*
X027036Y004064D01*
X027078Y004091D01*
X027122Y004115D01*
X027168Y004136D01*
X027215Y004152D01*
X027263Y004165D01*
X027313Y004174D01*
X027362Y004179D01*
X027413Y004180D01*
X027463Y004177D01*
X027512Y004170D01*
X027561Y004159D01*
X027609Y004144D01*
X027655Y004126D01*
X027700Y004104D01*
X027743Y004078D01*
X027784Y004049D01*
X027823Y004017D01*
X027859Y003982D01*
X027891Y003944D01*
X027921Y003904D01*
X027948Y003861D01*
X027971Y003817D01*
X027990Y003771D01*
X028006Y003723D01*
X028018Y003674D01*
X028026Y003625D01*
X028030Y003575D01*
X028030Y003525D01*
X028026Y003475D01*
X028018Y003426D01*
X028006Y003377D01*
X027990Y003329D01*
X027971Y003283D01*
X027948Y003239D01*
X027921Y003196D01*
X027891Y003156D01*
X027859Y003118D01*
X027823Y003083D01*
X027784Y003051D01*
X027743Y003022D01*
X027700Y002996D01*
X027655Y002974D01*
X027609Y002956D01*
X027561Y002941D01*
X027512Y002930D01*
X027463Y002923D01*
X027413Y002920D01*
X027362Y002921D01*
X027313Y002926D01*
X027263Y002935D01*
X027215Y002948D01*
X027168Y002964D01*
X027122Y002985D01*
X027078Y003009D01*
X027036Y003036D01*
X026996Y003066D01*
X026959Y003100D01*
X026925Y003137D01*
X026893Y003176D01*
X026865Y003217D01*
X026840Y003261D01*
X026819Y003306D01*
X026802Y003353D01*
X026788Y003401D01*
X026778Y003450D01*
X026772Y003500D01*
X026770Y003550D01*
X026770Y014550D02*
X026772Y014600D01*
X026778Y014650D01*
X026788Y014699D01*
X026802Y014747D01*
X026819Y014794D01*
X026840Y014839D01*
X026865Y014883D01*
X026893Y014924D01*
X026925Y014963D01*
X026959Y015000D01*
X026996Y015034D01*
X027036Y015064D01*
X027078Y015091D01*
X027122Y015115D01*
X027168Y015136D01*
X027215Y015152D01*
X027263Y015165D01*
X027313Y015174D01*
X027362Y015179D01*
X027413Y015180D01*
X027463Y015177D01*
X027512Y015170D01*
X027561Y015159D01*
X027609Y015144D01*
X027655Y015126D01*
X027700Y015104D01*
X027743Y015078D01*
X027784Y015049D01*
X027823Y015017D01*
X027859Y014982D01*
X027891Y014944D01*
X027921Y014904D01*
X027948Y014861D01*
X027971Y014817D01*
X027990Y014771D01*
X028006Y014723D01*
X028018Y014674D01*
X028026Y014625D01*
X028030Y014575D01*
X028030Y014525D01*
X028026Y014475D01*
X028018Y014426D01*
X028006Y014377D01*
X027990Y014329D01*
X027971Y014283D01*
X027948Y014239D01*
X027921Y014196D01*
X027891Y014156D01*
X027859Y014118D01*
X027823Y014083D01*
X027784Y014051D01*
X027743Y014022D01*
X027700Y013996D01*
X027655Y013974D01*
X027609Y013956D01*
X027561Y013941D01*
X027512Y013930D01*
X027463Y013923D01*
X027413Y013920D01*
X027362Y013921D01*
X027313Y013926D01*
X027263Y013935D01*
X027215Y013948D01*
X027168Y013964D01*
X027122Y013985D01*
X027078Y014009D01*
X027036Y014036D01*
X026996Y014066D01*
X026959Y014100D01*
X026925Y014137D01*
X026893Y014176D01*
X026865Y014217D01*
X026840Y014261D01*
X026819Y014306D01*
X026802Y014353D01*
X026788Y014401D01*
X026778Y014450D01*
X026772Y014500D01*
X026770Y014550D01*
X006770Y020550D02*
X006772Y020600D01*
X006778Y020650D01*
X006788Y020699D01*
X006802Y020747D01*
X006819Y020794D01*
X006840Y020839D01*
X006865Y020883D01*
X006893Y020924D01*
X006925Y020963D01*
X006959Y021000D01*
X006996Y021034D01*
X007036Y021064D01*
X007078Y021091D01*
X007122Y021115D01*
X007168Y021136D01*
X007215Y021152D01*
X007263Y021165D01*
X007313Y021174D01*
X007362Y021179D01*
X007413Y021180D01*
X007463Y021177D01*
X007512Y021170D01*
X007561Y021159D01*
X007609Y021144D01*
X007655Y021126D01*
X007700Y021104D01*
X007743Y021078D01*
X007784Y021049D01*
X007823Y021017D01*
X007859Y020982D01*
X007891Y020944D01*
X007921Y020904D01*
X007948Y020861D01*
X007971Y020817D01*
X007990Y020771D01*
X008006Y020723D01*
X008018Y020674D01*
X008026Y020625D01*
X008030Y020575D01*
X008030Y020525D01*
X008026Y020475D01*
X008018Y020426D01*
X008006Y020377D01*
X007990Y020329D01*
X007971Y020283D01*
X007948Y020239D01*
X007921Y020196D01*
X007891Y020156D01*
X007859Y020118D01*
X007823Y020083D01*
X007784Y020051D01*
X007743Y020022D01*
X007700Y019996D01*
X007655Y019974D01*
X007609Y019956D01*
X007561Y019941D01*
X007512Y019930D01*
X007463Y019923D01*
X007413Y019920D01*
X007362Y019921D01*
X007313Y019926D01*
X007263Y019935D01*
X007215Y019948D01*
X007168Y019964D01*
X007122Y019985D01*
X007078Y020009D01*
X007036Y020036D01*
X006996Y020066D01*
X006959Y020100D01*
X006925Y020137D01*
X006893Y020176D01*
X006865Y020217D01*
X006840Y020261D01*
X006819Y020306D01*
X006802Y020353D01*
X006788Y020401D01*
X006778Y020450D01*
X006772Y020500D01*
X006770Y020550D01*
D11*
X010800Y020870D02*
X010800Y020230D01*
X011800Y020230D02*
X011800Y020870D01*
X012800Y020870D02*
X012800Y020230D01*
X013800Y020230D02*
X013800Y020870D01*
X014800Y020870D02*
X014800Y020230D01*
X015800Y020230D02*
X015800Y020870D01*
X016800Y020870D02*
X016800Y020230D01*
X017800Y020230D02*
X017800Y020870D01*
X019400Y020870D02*
X019400Y020230D01*
X020400Y020230D02*
X020400Y020870D01*
X021400Y020870D02*
X021400Y020230D01*
X022400Y020230D02*
X022400Y020870D01*
X023400Y020870D02*
X023400Y020230D01*
X024400Y020230D02*
X024400Y020870D01*
X025400Y020870D02*
X025400Y020230D01*
X026400Y020230D02*
X026400Y020870D01*
X026400Y001870D02*
X026400Y001230D01*
X025400Y001230D02*
X025400Y001870D01*
X024400Y001870D02*
X024400Y001230D01*
X023400Y001230D02*
X023400Y001870D01*
X022400Y001870D02*
X022400Y001230D01*
X021400Y001230D02*
X021400Y001870D01*
X019400Y001870D02*
X019400Y001230D01*
X018400Y001230D02*
X018400Y001870D01*
X017400Y001870D02*
X017400Y001230D01*
X016400Y001230D02*
X016400Y001870D01*
X015400Y001870D02*
X015400Y001230D01*
X014400Y001230D02*
X014400Y001870D01*
D12*
X029300Y005050D03*
X030300Y005050D03*
X030300Y006050D03*
X029300Y006050D03*
X029300Y007050D03*
X030300Y007050D03*
X030300Y008050D03*
X029300Y008050D03*
X029300Y009050D03*
X030300Y009050D03*
X030300Y010050D03*
X029300Y010050D03*
X029300Y011050D03*
X030300Y011050D03*
X030300Y012050D03*
X029300Y012050D03*
X029300Y013050D03*
X030300Y013050D03*
X030300Y014050D03*
X029300Y014050D03*
X029300Y015050D03*
X030300Y015050D03*
X030300Y016050D03*
X029300Y016050D03*
X036300Y016050D03*
X037300Y016050D03*
X037300Y015050D03*
X036300Y015050D03*
X036300Y014050D03*
X037300Y014050D03*
X037300Y013050D03*
X036300Y013050D03*
X036300Y012050D03*
X037300Y012050D03*
X037300Y011050D03*
X036300Y011050D03*
X036300Y010050D03*
X037300Y010050D03*
X037300Y009050D03*
X036300Y009050D03*
X036300Y008050D03*
X037300Y008050D03*
X037300Y007050D03*
X036300Y007050D03*
X036300Y006050D03*
X037300Y006050D03*
X037300Y005050D03*
X036300Y005050D03*
D13*
X004916Y011150D03*
D14*
X007790Y010252D03*
X007790Y012048D03*
D15*
X006300Y015905D03*
X003100Y015905D03*
X003100Y017795D03*
X006300Y017795D03*
D16*
X022451Y015102D03*
X022451Y014846D03*
X022451Y014590D03*
X022451Y014334D03*
X022451Y014078D03*
X022451Y013822D03*
X022451Y013566D03*
X022451Y013310D03*
X022451Y013054D03*
X022451Y012798D03*
X024749Y012798D03*
X024749Y013054D03*
X024749Y013310D03*
X024749Y013566D03*
X024749Y013822D03*
X024749Y014078D03*
X024749Y014334D03*
X024749Y014590D03*
X024749Y014846D03*
X024749Y015102D03*
X024749Y009002D03*
X024749Y008746D03*
X024749Y008490D03*
X024749Y008234D03*
X024749Y007978D03*
X024749Y007722D03*
X024749Y007466D03*
X024749Y007210D03*
X024749Y006954D03*
X024749Y006698D03*
X022451Y006698D03*
X022451Y006954D03*
X022451Y007210D03*
X022451Y007466D03*
X022451Y007722D03*
X022451Y007978D03*
X022451Y008234D03*
X022451Y008490D03*
X022451Y008746D03*
X022451Y009002D03*
D17*
X021900Y007185D03*
X021900Y006515D03*
X025400Y006785D03*
X025400Y006115D03*
X025400Y012215D03*
X025400Y012885D03*
X021800Y012885D03*
X021800Y012215D03*
X004700Y019615D03*
X004700Y020285D03*
D18*
X005933Y006528D02*
X005933Y005741D01*
X003453Y005741D02*
X003453Y006528D01*
X004358Y004166D02*
X005146Y004166D01*
D19*
X007700Y004104D03*
X007700Y005796D03*
D20*
X002400Y019359D03*
X002400Y020541D03*
D21*
X002230Y002450D02*
X002970Y002450D01*
X002970Y001450D02*
X002230Y001450D01*
D22*
X002550Y001498D02*
X001560Y001498D01*
X001560Y001380D02*
X001705Y001380D01*
X001701Y001400D02*
X001713Y001326D01*
X001739Y001247D01*
X001777Y001172D01*
X001826Y001105D01*
X001885Y001046D01*
X001952Y000997D01*
X002027Y000959D01*
X002106Y000933D01*
X002188Y000920D01*
X002550Y000920D01*
X002550Y001400D01*
X002650Y001400D01*
X002650Y001500D01*
X003499Y001500D01*
X003487Y001574D01*
X003461Y001653D01*
X003423Y001728D01*
X003374Y001795D01*
X003315Y001854D01*
X003248Y001903D01*
X003173Y001941D01*
X003118Y001959D01*
X003168Y001980D01*
X005793Y001980D01*
X005966Y002052D01*
X006795Y002880D01*
X007040Y002880D01*
X007213Y002952D01*
X007975Y003714D01*
X008047Y003714D01*
X008129Y003796D01*
X008129Y003912D01*
X008170Y004010D01*
X008170Y004197D01*
X008129Y004295D01*
X008129Y004412D01*
X008047Y004494D01*
X007975Y004494D01*
X007966Y004502D01*
X007793Y004574D01*
X007541Y004574D01*
X006467Y005648D01*
X006467Y006634D01*
X006386Y006830D01*
X006235Y006980D01*
X006039Y007062D01*
X005827Y007062D01*
X005631Y006980D01*
X005481Y006830D01*
X005399Y006634D01*
X005399Y005634D01*
X005463Y005481D01*
X005463Y005423D01*
X005535Y005251D01*
X006859Y003927D01*
X006752Y003820D01*
X006507Y003820D01*
X006334Y003748D01*
X006202Y003616D01*
X005505Y002920D01*
X003168Y002920D01*
X005505Y002920D01*
X005624Y003039D02*
X001560Y003039D01*
X001560Y003157D02*
X005742Y003157D01*
X005861Y003276D02*
X001560Y003276D01*
X001560Y003394D02*
X005979Y003394D01*
X006098Y003513D02*
X001560Y003513D01*
X001560Y003631D02*
X004212Y003631D01*
X004229Y003626D02*
X004315Y003612D01*
X004714Y003612D01*
X004714Y004127D01*
X004790Y004127D01*
X004790Y003612D01*
X005189Y003612D01*
X005275Y003626D01*
X005358Y003653D01*
X005436Y003692D01*
X005506Y003743D01*
X005568Y003805D01*
X005619Y003876D01*
X005659Y003953D01*
X005686Y004036D01*
X005699Y004122D01*
X005699Y004127D01*
X004790Y004127D01*
X004790Y004204D01*
X004714Y004204D01*
X004714Y004719D01*
X004315Y004719D01*
X004229Y004706D01*
X004146Y004679D01*
X004068Y004639D01*
X003998Y004588D01*
X003936Y004526D01*
X003885Y004456D01*
X003845Y004378D01*
X003818Y004295D01*
X003805Y004209D01*
X003805Y004204D01*
X004714Y004204D01*
X004714Y004127D01*
X003805Y004127D01*
X003805Y004122D01*
X003818Y004036D01*
X003845Y003953D01*
X003885Y003876D01*
X003936Y003805D01*
X003998Y003743D01*
X004068Y003692D01*
X004146Y003653D01*
X004229Y003626D01*
X003991Y003750D02*
X001560Y003750D01*
X001560Y003868D02*
X003890Y003868D01*
X003834Y003987D02*
X001560Y003987D01*
X001560Y004105D02*
X003807Y004105D01*
X003807Y004224D02*
X001560Y004224D01*
X001560Y004342D02*
X003833Y004342D01*
X003888Y004461D02*
X001560Y004461D01*
X001560Y004579D02*
X003988Y004579D01*
X004203Y004698D02*
X001560Y004698D01*
X001560Y004816D02*
X005969Y004816D01*
X005851Y004935D02*
X001560Y004935D01*
X001560Y005053D02*
X005732Y005053D01*
X005614Y005172D02*
X001560Y005172D01*
X001560Y005290D02*
X003131Y005290D01*
X003163Y005267D02*
X003240Y005227D01*
X003323Y005200D01*
X003409Y005187D01*
X003414Y005187D01*
X003414Y006096D01*
X002899Y006096D01*
X002899Y005697D01*
X002913Y005611D01*
X002940Y005528D01*
X002979Y005450D01*
X003030Y005380D01*
X003092Y005318D01*
X003163Y005267D01*
X003010Y005409D02*
X001560Y005409D01*
X001560Y005527D02*
X002940Y005527D01*
X002907Y005646D02*
X001560Y005646D01*
X001560Y005764D02*
X002899Y005764D01*
X002899Y005883D02*
X001560Y005883D01*
X001560Y006001D02*
X002899Y006001D01*
X002899Y006173D02*
X003414Y006173D01*
X003414Y007082D01*
X003409Y007082D01*
X003323Y007068D01*
X003240Y007041D01*
X003163Y007002D01*
X003092Y006950D01*
X003030Y006889D01*
X002979Y006818D01*
X002940Y006740D01*
X002913Y006658D01*
X002899Y006572D01*
X002899Y006173D01*
X002899Y006238D02*
X001560Y006238D01*
X001560Y006120D02*
X003414Y006120D01*
X003414Y006096D02*
X003414Y006173D01*
X003491Y006173D01*
X003491Y007082D01*
X003496Y007082D01*
X003582Y007068D01*
X003665Y007041D01*
X003743Y007002D01*
X003813Y006950D01*
X003875Y006889D01*
X003926Y006818D01*
X003966Y006740D01*
X003993Y006658D01*
X004006Y006572D01*
X004006Y006173D01*
X003491Y006173D01*
X003491Y006096D01*
X003491Y005187D01*
X003496Y005187D01*
X003582Y005200D01*
X003665Y005227D01*
X003743Y005267D01*
X003813Y005318D01*
X003875Y005380D01*
X003926Y005450D01*
X003966Y005528D01*
X003993Y005611D01*
X004006Y005697D01*
X004006Y006096D01*
X003491Y006096D01*
X003414Y006096D01*
X003491Y006120D02*
X005399Y006120D01*
X005399Y006238D02*
X004006Y006238D01*
X004006Y006357D02*
X005399Y006357D01*
X005399Y006475D02*
X004006Y006475D01*
X004003Y006594D02*
X005399Y006594D01*
X005432Y006712D02*
X003975Y006712D01*
X003917Y006831D02*
X005481Y006831D01*
X005599Y006949D02*
X003815Y006949D01*
X003584Y007068D02*
X008420Y007068D01*
X008538Y007186D02*
X001560Y007186D01*
X001617Y007250D02*
X007183Y007250D01*
X007300Y007367D01*
X007300Y014933D01*
X007183Y015050D01*
X003490Y015050D01*
X003490Y015231D01*
X003516Y015257D01*
X003516Y016010D01*
X004920Y017414D01*
X004920Y019259D01*
X004955Y019259D01*
X005037Y019341D01*
X005037Y019890D01*
X004977Y019950D01*
X005037Y020010D01*
X005037Y020559D01*
X004955Y020641D01*
X004910Y020641D01*
X004791Y020761D01*
X002816Y020761D01*
X002816Y020835D01*
X002734Y020917D01*
X002066Y020917D01*
X001984Y020835D01*
X001984Y020246D01*
X002066Y020164D01*
X002734Y020164D01*
X002816Y020246D01*
X002816Y020321D01*
X004363Y020321D01*
X004363Y020010D01*
X004423Y019950D01*
X004363Y019890D01*
X004363Y019341D01*
X004445Y019259D01*
X004480Y019259D01*
X004480Y017596D01*
X003477Y016593D01*
X003434Y016636D01*
X002766Y016636D01*
X002684Y016554D01*
X002684Y015257D01*
X002710Y015231D01*
X002710Y015050D01*
X001617Y015050D01*
X001560Y014993D01*
X001560Y021390D01*
X026734Y021390D01*
X027240Y020884D01*
X027240Y019284D01*
X027334Y019190D01*
X028240Y018284D01*
X028240Y018284D01*
X028334Y018190D01*
X029849Y018190D01*
X029862Y017250D01*
X028617Y017250D01*
X028589Y017222D01*
X028575Y017228D01*
X028425Y017228D01*
X028286Y017170D01*
X028180Y017064D01*
X028122Y016925D01*
X028122Y016775D01*
X028180Y016636D01*
X028286Y016530D01*
X028425Y016472D01*
X028575Y016472D01*
X028714Y016530D01*
X028820Y016636D01*
X028878Y016775D01*
X028878Y016850D01*
X029868Y016850D01*
X029875Y016346D01*
X029868Y016339D01*
X029800Y016176D01*
X029732Y016339D01*
X029589Y016482D01*
X029401Y016560D01*
X029199Y016560D01*
X029011Y016482D01*
X028868Y016339D01*
X028831Y016250D01*
X025917Y016250D01*
X025800Y016133D01*
X025200Y015533D01*
X025200Y014933D01*
X025084Y014817D01*
X025084Y014964D01*
X025074Y014974D01*
X025084Y014984D01*
X025084Y015220D01*
X025002Y015302D01*
X024496Y015302D01*
X024494Y015300D01*
X024317Y015300D01*
X024300Y015283D01*
X024300Y015767D01*
X024505Y015972D01*
X024625Y015922D01*
X024775Y015922D01*
X024914Y015980D01*
X025020Y016086D01*
X025078Y016225D01*
X025078Y016375D01*
X025020Y016514D01*
X024914Y016620D01*
X024775Y016678D01*
X024625Y016678D01*
X024486Y016620D01*
X024380Y016514D01*
X024322Y016375D01*
X024322Y016355D01*
X023950Y015983D01*
X023950Y018917D01*
X024600Y019567D01*
X024600Y019815D01*
X024661Y019840D01*
X024790Y019969D01*
X024860Y020138D01*
X024860Y020961D01*
X024790Y021131D01*
X024661Y021260D01*
X024491Y021330D01*
X024308Y021330D01*
X024139Y021260D01*
X024010Y021131D01*
X023940Y020961D01*
X023940Y020138D01*
X024010Y019969D01*
X024139Y019840D01*
X024200Y019815D01*
X024200Y019733D01*
X023667Y019200D01*
X023600Y019133D01*
X023600Y019815D01*
X023661Y019840D01*
X023790Y019969D01*
X023860Y020138D01*
X023860Y020961D01*
X023790Y021131D01*
X023661Y021260D01*
X023491Y021330D01*
X023308Y021330D01*
X023139Y021260D01*
X023010Y021131D01*
X022940Y020961D01*
X022940Y020138D01*
X023010Y019969D01*
X023139Y019840D01*
X023200Y019815D01*
X023200Y015133D01*
X022857Y014790D01*
X022786Y014790D01*
X022786Y014964D01*
X022795Y014980D01*
X022806Y015021D01*
X022806Y015102D01*
X022806Y015183D01*
X022795Y015223D01*
X022774Y015260D01*
X022745Y015290D01*
X022708Y015311D01*
X022667Y015322D01*
X022451Y015322D01*
X022235Y015322D01*
X022195Y015311D01*
X022158Y015290D01*
X022128Y015260D01*
X022107Y015223D01*
X022096Y015183D01*
X022096Y015102D01*
X022451Y015102D01*
X022451Y015322D01*
X022451Y015102D01*
X022451Y015102D01*
X022451Y015102D01*
X022096Y015102D01*
X022096Y015021D01*
X022107Y014980D01*
X022116Y014964D01*
X022116Y014728D01*
X022126Y014718D01*
X022116Y014708D01*
X022116Y014534D01*
X021949Y014534D01*
X021600Y014883D01*
X021600Y019815D01*
X021661Y019840D01*
X021790Y019969D01*
X021860Y020138D01*
X021860Y020961D01*
X021790Y021131D01*
X021661Y021260D01*
X021491Y021330D01*
X021308Y021330D01*
X021139Y021260D01*
X021010Y021131D01*
X020940Y020961D01*
X020940Y020138D01*
X021010Y019969D01*
X021139Y019840D01*
X021200Y019815D01*
X021200Y014717D01*
X021666Y014251D01*
X021783Y014134D01*
X022116Y014134D01*
X022116Y013960D01*
X022126Y013950D01*
X022116Y013940D01*
X022116Y013766D01*
X021967Y013766D01*
X019600Y016133D01*
X019600Y019815D01*
X019661Y019840D01*
X019790Y019969D01*
X019860Y020138D01*
X019860Y020961D01*
X019790Y021131D01*
X019661Y021260D01*
X019491Y021330D01*
X019308Y021330D01*
X019139Y021260D01*
X019010Y021131D01*
X018940Y020961D01*
X018940Y020138D01*
X019010Y019969D01*
X019139Y019840D01*
X019200Y019815D01*
X019200Y016033D01*
X018000Y017233D01*
X018000Y019815D01*
X018061Y019840D01*
X018190Y019969D01*
X018260Y020138D01*
X018260Y020961D01*
X018190Y021131D01*
X018061Y021260D01*
X017891Y021330D01*
X017708Y021330D01*
X017539Y021260D01*
X017410Y021131D01*
X017340Y020961D01*
X017340Y020138D01*
X017410Y019969D01*
X017539Y019840D01*
X017600Y019815D01*
X017600Y017133D01*
X017000Y017733D01*
X017000Y019815D01*
X017061Y019840D01*
X017190Y019969D01*
X017260Y020138D01*
X017260Y020961D01*
X017190Y021131D01*
X017061Y021260D01*
X016891Y021330D01*
X016708Y021330D01*
X016539Y021260D01*
X016410Y021131D01*
X016340Y020961D01*
X016340Y020138D01*
X016410Y019969D01*
X016539Y019840D01*
X016600Y019815D01*
X016600Y017567D01*
X019800Y014367D01*
X019800Y012767D01*
X019917Y012650D01*
X021217Y011350D01*
X022183Y011350D01*
X022300Y011467D01*
X022650Y011817D01*
X022650Y012598D01*
X022704Y012598D01*
X022786Y012680D01*
X022786Y012850D01*
X022817Y012850D01*
X022900Y012767D01*
X022900Y010933D01*
X021889Y009922D01*
X021875Y009928D01*
X021725Y009928D01*
X021586Y009870D01*
X021480Y009764D01*
X021422Y009625D01*
X021422Y009475D01*
X021480Y009336D01*
X021586Y009230D01*
X021725Y009172D01*
X021875Y009172D01*
X022014Y009230D01*
X022120Y009336D01*
X022178Y009475D01*
X022178Y009625D01*
X022172Y009639D01*
X023300Y010767D01*
X023300Y012933D01*
X023100Y013133D01*
X022983Y013250D01*
X022786Y013250D01*
X022786Y013428D01*
X022776Y013438D01*
X022786Y013448D01*
X022786Y013622D01*
X023539Y013622D01*
X023450Y013533D01*
X023450Y011867D01*
X024217Y011100D01*
X026967Y011100D01*
X027800Y010267D01*
X026733Y010267D01*
X026720Y010236D02*
X026778Y010375D01*
X026778Y010525D01*
X026720Y010664D01*
X026614Y010770D01*
X026475Y010828D01*
X026325Y010828D01*
X026186Y010770D01*
X026080Y010664D01*
X026022Y010525D01*
X026022Y010375D01*
X026028Y010361D01*
X025917Y010250D01*
X024217Y010250D01*
X024100Y010133D01*
X023550Y009583D01*
X023550Y009624D01*
X023564Y009630D01*
X023670Y009736D01*
X023728Y009875D01*
X023728Y010025D01*
X023670Y010164D01*
X023564Y010270D01*
X023425Y010328D01*
X023275Y010328D01*
X023136Y010270D01*
X023030Y010164D01*
X022972Y010025D01*
X022972Y009875D01*
X023030Y009736D01*
X023136Y009630D01*
X023150Y009624D01*
X023150Y007883D01*
X022933Y007666D01*
X022786Y007666D01*
X022786Y007840D01*
X022776Y007850D01*
X022786Y007860D01*
X022786Y008096D01*
X022776Y008106D01*
X022786Y008116D01*
X022786Y008352D01*
X022776Y008362D01*
X022786Y008372D01*
X022786Y008608D01*
X023150Y008608D01*
X023150Y008490D02*
X022786Y008490D01*
X022786Y008608D02*
X022776Y008618D01*
X022786Y008628D01*
X022786Y008864D01*
X022795Y008880D01*
X022806Y008921D01*
X022806Y009002D01*
X022806Y009083D01*
X022795Y009123D01*
X022774Y009160D01*
X022745Y009190D01*
X022708Y009211D01*
X022667Y009222D01*
X022451Y009222D01*
X022235Y009222D01*
X022195Y009211D01*
X022158Y009190D01*
X022128Y009160D01*
X022107Y009123D01*
X022096Y009083D01*
X022096Y009002D01*
X022451Y009002D01*
X022451Y009222D01*
X022451Y009002D01*
X022451Y009002D01*
X022451Y009002D01*
X022096Y009002D01*
X022096Y008921D01*
X022107Y008880D01*
X022116Y008864D01*
X022116Y008690D01*
X021743Y008690D01*
X016000Y014433D01*
X016000Y019815D01*
X016061Y019840D01*
X016190Y019969D01*
X016260Y020138D01*
X016260Y020961D01*
X016190Y021131D01*
X016061Y021260D01*
X015891Y021330D01*
X015708Y021330D01*
X015539Y021260D01*
X015410Y021131D01*
X015340Y020961D01*
X015340Y020138D01*
X015410Y019969D01*
X015539Y019840D01*
X015600Y019815D01*
X015600Y014267D01*
X021433Y008434D01*
X019483Y008434D01*
X019470Y008464D01*
X019364Y008570D01*
X019225Y008628D01*
X019075Y008628D01*
X018936Y008570D01*
X018830Y008464D01*
X018772Y008325D01*
X018772Y008175D01*
X018830Y008036D01*
X018936Y007930D01*
X019075Y007872D01*
X019225Y007872D01*
X019364Y007930D01*
X019468Y008034D01*
X019950Y008034D01*
X019880Y007964D01*
X019822Y007825D01*
X019822Y007675D01*
X019880Y007536D01*
X019986Y007430D01*
X020125Y007372D01*
X020275Y007372D01*
X020385Y007418D01*
X020217Y007250D01*
X019433Y007250D01*
X015000Y011683D01*
X015000Y019815D01*
X015061Y019840D01*
X015190Y019969D01*
X015260Y020138D01*
X015260Y020961D01*
X015190Y021131D01*
X015061Y021260D01*
X014891Y021330D01*
X014708Y021330D01*
X014539Y021260D01*
X014410Y021131D01*
X014340Y020961D01*
X014340Y020138D01*
X014410Y019969D01*
X014539Y019840D01*
X014600Y019815D01*
X014600Y011517D01*
X019150Y006967D01*
X019267Y006850D01*
X020383Y006850D01*
X021055Y007522D01*
X021311Y007522D01*
X021186Y007470D01*
X021080Y007364D01*
X021022Y007225D01*
X021022Y007083D01*
X021009Y007070D01*
X020880Y006941D01*
X020880Y004217D01*
X020847Y004204D01*
X020746Y004103D01*
X020692Y003971D01*
X020692Y003829D01*
X020746Y003697D01*
X020847Y003596D01*
X020979Y003542D01*
X021121Y003542D01*
X021253Y003596D01*
X021354Y003697D01*
X021408Y003829D01*
X021408Y003971D01*
X021354Y004103D01*
X021320Y004136D01*
X021320Y006759D01*
X021333Y006772D01*
X021475Y006772D01*
X021563Y006808D01*
X021554Y006794D01*
X021543Y006753D01*
X021543Y006554D01*
X021862Y006554D01*
X021862Y006477D01*
X021938Y006477D01*
X021938Y006139D01*
X022118Y006139D01*
X022159Y006150D01*
X022195Y006171D01*
X022225Y006201D01*
X022246Y006237D01*
X022257Y006278D01*
X022257Y006477D01*
X021938Y006477D01*
X021938Y006554D01*
X022143Y006554D01*
X022198Y006498D01*
X022669Y006498D01*
X023043Y006124D01*
X023042Y006121D01*
X023042Y005979D01*
X023096Y005847D01*
X023197Y005746D01*
X023329Y005692D01*
X023471Y005692D01*
X023603Y005746D01*
X023704Y005847D01*
X023758Y005979D01*
X023758Y006121D01*
X023704Y006253D01*
X023603Y006354D01*
X023471Y006408D01*
X023329Y006408D01*
X023326Y006407D01*
X022834Y006898D01*
X022786Y006898D01*
X022786Y007010D01*
X023493Y007010D01*
X023733Y007250D01*
X023850Y007367D01*
X023850Y009317D01*
X023950Y009417D01*
X023950Y007167D01*
X024067Y007050D01*
X024142Y006975D01*
X024117Y006950D01*
X024000Y006833D01*
X024000Y004955D01*
X023997Y004954D01*
X023896Y004853D01*
X023842Y004721D01*
X023842Y004579D01*
X021320Y004579D01*
X021320Y004461D02*
X023891Y004461D01*
X023896Y004447D02*
X023997Y004346D01*
X024129Y004292D01*
X024271Y004292D01*
X024403Y004346D01*
X024504Y004447D01*
X024558Y004579D01*
X025088Y004579D01*
X024970Y004698D02*
X024558Y004698D01*
X024558Y004721D02*
X024504Y004853D01*
X024403Y004954D01*
X024400Y004955D01*
X024400Y006667D01*
X024414Y006681D01*
X024414Y006580D01*
X024496Y006498D01*
X024549Y006498D01*
X024549Y005118D01*
X025700Y003967D01*
X025700Y003233D01*
X025700Y003067D01*
X026437Y002330D01*
X026308Y002330D01*
X026139Y002260D01*
X026010Y002131D01*
X025940Y001961D01*
X025940Y001138D01*
X026010Y000969D01*
X026139Y000840D01*
X026308Y000770D01*
X026491Y000770D01*
X026661Y000840D01*
X026790Y000969D01*
X026860Y001138D01*
X026860Y001961D01*
X026823Y002050D01*
X028883Y002050D01*
X029283Y002450D01*
X031783Y002450D01*
X033183Y003850D01*
X033300Y003967D01*
X033300Y004715D01*
X033405Y004609D01*
X033597Y004530D01*
X033803Y004530D01*
X033995Y004609D01*
X034095Y004710D01*
X035919Y004710D01*
X036011Y004618D01*
X036199Y004540D01*
X036401Y004540D01*
X036589Y004618D01*
X036732Y004761D01*
X036800Y004924D01*
X036868Y004761D01*
X037011Y004618D01*
X037199Y004540D01*
X037401Y004540D01*
X037589Y004618D01*
X037732Y004761D01*
X037810Y004949D01*
X037810Y005151D01*
X037732Y005339D01*
X037589Y005482D01*
X037448Y005541D01*
X037503Y005559D01*
X037578Y005597D01*
X037645Y005646D01*
X037704Y005705D01*
X037753Y005772D01*
X037791Y005847D01*
X037817Y005926D01*
X037830Y006008D01*
X037830Y006010D01*
X037340Y006010D01*
X037340Y006090D01*
X037830Y006090D01*
X037830Y006092D01*
X037817Y006174D01*
X037791Y006253D01*
X037753Y006328D01*
X037704Y006395D01*
X037645Y006454D01*
X037578Y006503D01*
X037503Y006541D01*
X037448Y006559D01*
X037589Y006618D01*
X037732Y006761D01*
X037810Y006949D01*
X038140Y006949D01*
X038140Y006831D02*
X037761Y006831D01*
X037810Y006949D02*
X037810Y007151D01*
X037732Y007339D01*
X037589Y007482D01*
X037426Y007550D01*
X037589Y007618D01*
X037732Y007761D01*
X037810Y007949D01*
X037810Y008151D01*
X037732Y008339D01*
X037589Y008482D01*
X037426Y008550D01*
X037589Y008618D01*
X037732Y008761D01*
X037810Y008949D01*
X037810Y009151D01*
X037732Y009339D01*
X037589Y009482D01*
X037426Y009550D01*
X037589Y009618D01*
X037732Y009761D01*
X037810Y009949D01*
X037810Y010151D01*
X037732Y010339D01*
X037589Y010482D01*
X037426Y010550D01*
X037589Y010618D01*
X037732Y010761D01*
X037810Y010949D01*
X037810Y011151D01*
X037732Y011339D01*
X037589Y011482D01*
X037426Y011550D01*
X037589Y011618D01*
X037732Y011761D01*
X037810Y011949D01*
X037810Y012151D01*
X037732Y012339D01*
X037589Y012482D01*
X037426Y012550D01*
X037589Y012618D01*
X037732Y012761D01*
X037810Y012949D01*
X037810Y013151D01*
X037732Y013339D01*
X037589Y013482D01*
X037426Y013550D01*
X037589Y013618D01*
X037732Y013761D01*
X037810Y013949D01*
X037810Y014151D01*
X037732Y014339D01*
X037589Y014482D01*
X037426Y014550D01*
X038140Y014550D01*
X038140Y002616D01*
X037234Y001710D01*
X028334Y001710D01*
X028240Y001616D01*
X027334Y000710D01*
X001560Y000710D01*
X001560Y007307D01*
X001617Y007250D01*
X001563Y007305D02*
X001560Y007305D01*
X001700Y007450D02*
X001700Y014850D01*
X007100Y014850D01*
X007100Y007450D01*
X001700Y007450D01*
X001700Y007542D02*
X007100Y007542D01*
X007100Y007660D02*
X001700Y007660D01*
X001700Y007779D02*
X007100Y007779D01*
X007100Y007897D02*
X001700Y007897D01*
X001700Y008016D02*
X007100Y008016D01*
X007100Y008134D02*
X001700Y008134D01*
X001700Y008253D02*
X007100Y008253D01*
X007100Y008371D02*
X001700Y008371D01*
X001700Y008490D02*
X007100Y008490D01*
X007100Y008608D02*
X001700Y008608D01*
X001700Y008727D02*
X007100Y008727D01*
X007100Y008845D02*
X001700Y008845D01*
X001700Y008964D02*
X007100Y008964D01*
X007100Y009082D02*
X001700Y009082D01*
X001700Y009201D02*
X007100Y009201D01*
X007100Y009319D02*
X001700Y009319D01*
X001700Y009438D02*
X007100Y009438D01*
X007100Y009556D02*
X001700Y009556D01*
X001700Y009675D02*
X007100Y009675D01*
X007100Y009793D02*
X001700Y009793D01*
X001700Y009912D02*
X007100Y009912D01*
X007100Y010030D02*
X001700Y010030D01*
X001700Y010149D02*
X007100Y010149D01*
X007100Y010267D02*
X001700Y010267D01*
X001700Y010386D02*
X007100Y010386D01*
X007100Y010504D02*
X001700Y010504D01*
X001700Y010623D02*
X007100Y010623D01*
X007100Y010741D02*
X001700Y010741D01*
X001700Y010860D02*
X007100Y010860D01*
X007100Y010978D02*
X001700Y010978D01*
X001700Y011097D02*
X007100Y011097D01*
X007100Y011215D02*
X001700Y011215D01*
X001700Y011334D02*
X007100Y011334D01*
X007100Y011452D02*
X001700Y011452D01*
X001700Y011571D02*
X007100Y011571D01*
X007100Y011689D02*
X001700Y011689D01*
X001700Y011808D02*
X007100Y011808D01*
X007100Y011926D02*
X001700Y011926D01*
X001700Y012045D02*
X007100Y012045D01*
X007100Y012163D02*
X001700Y012163D01*
X001700Y012282D02*
X007100Y012282D01*
X007100Y012400D02*
X001700Y012400D01*
X001700Y012519D02*
X007100Y012519D01*
X007100Y012637D02*
X001700Y012637D01*
X001700Y012756D02*
X007100Y012756D01*
X007100Y012874D02*
X001700Y012874D01*
X001700Y012993D02*
X007100Y012993D01*
X007100Y013111D02*
X001700Y013111D01*
X001700Y013230D02*
X007100Y013230D01*
X007100Y013348D02*
X001700Y013348D01*
X001700Y013467D02*
X007100Y013467D01*
X007100Y013585D02*
X001700Y013585D01*
X001700Y013704D02*
X007100Y013704D01*
X007100Y013822D02*
X001700Y013822D01*
X001700Y013941D02*
X007100Y013941D01*
X007100Y014059D02*
X001700Y014059D01*
X001700Y014178D02*
X007100Y014178D01*
X007100Y014296D02*
X001700Y014296D01*
X001700Y014415D02*
X007100Y014415D01*
X007100Y014533D02*
X001700Y014533D01*
X001700Y014652D02*
X007100Y014652D01*
X007100Y014770D02*
X001700Y014770D01*
X001574Y015007D02*
X001560Y015007D01*
X001560Y015126D02*
X002710Y015126D01*
X002697Y015244D02*
X001560Y015244D01*
X001560Y015363D02*
X002684Y015363D01*
X002684Y015481D02*
X001560Y015481D01*
X001560Y015600D02*
X002684Y015600D01*
X002684Y015718D02*
X001560Y015718D01*
X001560Y015837D02*
X002684Y015837D01*
X002684Y015955D02*
X001560Y015955D01*
X001560Y016074D02*
X002684Y016074D01*
X002684Y016192D02*
X001560Y016192D01*
X001560Y016311D02*
X002684Y016311D01*
X002684Y016429D02*
X001560Y016429D01*
X001560Y016548D02*
X002684Y016548D01*
X003550Y016666D02*
X001560Y016666D01*
X001560Y016785D02*
X003668Y016785D01*
X003787Y016903D02*
X001560Y016903D01*
X001560Y017022D02*
X003905Y017022D01*
X004024Y017140D02*
X003523Y017140D01*
X003525Y017143D02*
X003536Y017183D01*
X003536Y017735D01*
X003160Y017735D01*
X003160Y017855D01*
X003040Y017855D01*
X003040Y018545D01*
X002803Y018545D01*
X002763Y018535D01*
X002726Y018513D01*
X002696Y018484D01*
X002675Y018447D01*
X002664Y018406D01*
X002664Y017855D01*
X003040Y017855D01*
X003040Y017735D01*
X002664Y017735D01*
X002664Y017183D01*
X002675Y017143D01*
X002696Y017106D01*
X002726Y017076D01*
X002763Y017055D01*
X002803Y017044D01*
X003040Y017044D01*
X003040Y017735D01*
X003160Y017735D01*
X003160Y017044D01*
X003397Y017044D01*
X003437Y017055D01*
X003474Y017076D01*
X003504Y017106D01*
X003525Y017143D01*
X003536Y017259D02*
X004142Y017259D01*
X004261Y017377D02*
X003536Y017377D01*
X003536Y017496D02*
X004379Y017496D01*
X004480Y017614D02*
X003536Y017614D01*
X003536Y017733D02*
X004480Y017733D01*
X004480Y017851D02*
X003160Y017851D01*
X003160Y017855D02*
X003536Y017855D01*
X003536Y018406D01*
X003525Y018447D01*
X003504Y018484D01*
X003474Y018513D01*
X003437Y018535D01*
X003397Y018545D01*
X003160Y018545D01*
X003160Y017855D01*
X003160Y017970D02*
X003040Y017970D01*
X003040Y018088D02*
X003160Y018088D01*
X003160Y018207D02*
X003040Y018207D01*
X003040Y018325D02*
X003160Y018325D01*
X003160Y018444D02*
X003040Y018444D01*
X002674Y018444D02*
X001560Y018444D01*
X001560Y018562D02*
X004480Y018562D01*
X004480Y018444D02*
X003526Y018444D01*
X003536Y018325D02*
X004480Y018325D01*
X004480Y018207D02*
X003536Y018207D01*
X003536Y018088D02*
X004480Y018088D01*
X004480Y017970D02*
X003536Y017970D01*
X003160Y017733D02*
X003040Y017733D01*
X003040Y017851D02*
X001560Y017851D01*
X001560Y017733D02*
X002664Y017733D01*
X002664Y017614D02*
X001560Y017614D01*
X001560Y017496D02*
X002664Y017496D01*
X002664Y017377D02*
X001560Y017377D01*
X001560Y017259D02*
X002664Y017259D01*
X002677Y017140D02*
X001560Y017140D01*
X001560Y017970D02*
X002664Y017970D01*
X002664Y018088D02*
X001560Y018088D01*
X001560Y018207D02*
X002664Y018207D01*
X002664Y018325D02*
X001560Y018325D01*
X001560Y018681D02*
X004480Y018681D01*
X004480Y018799D02*
X001560Y018799D01*
X001560Y018918D02*
X004480Y018918D01*
X004480Y019036D02*
X002810Y019036D01*
X002804Y019025D02*
X002825Y019061D01*
X002836Y019102D01*
X002836Y019301D01*
X002458Y019301D01*
X002458Y018963D01*
X002697Y018963D01*
X002737Y018974D01*
X002774Y018995D01*
X002804Y019025D01*
X002836Y019155D02*
X004480Y019155D01*
X004431Y019273D02*
X002836Y019273D01*
X002836Y019418D02*
X002836Y019617D01*
X002825Y019657D01*
X002804Y019694D01*
X002774Y019724D01*
X002737Y019745D01*
X002697Y019756D01*
X002458Y019756D01*
X002458Y019418D01*
X002342Y019418D01*
X002342Y019756D01*
X002103Y019756D01*
X002063Y019745D01*
X002026Y019724D01*
X001996Y019694D01*
X001975Y019657D01*
X001964Y019617D01*
X001964Y019418D01*
X002342Y019418D01*
X002342Y019301D01*
X002458Y019301D01*
X002458Y019418D01*
X002836Y019418D01*
X002836Y019510D02*
X004363Y019510D01*
X004363Y019392D02*
X002458Y019392D01*
X002342Y019392D02*
X001560Y019392D01*
X001560Y019510D02*
X001964Y019510D01*
X001968Y019629D02*
X001560Y019629D01*
X001560Y019747D02*
X002071Y019747D01*
X002342Y019747D02*
X002458Y019747D01*
X002458Y019629D02*
X002342Y019629D01*
X002342Y019510D02*
X002458Y019510D01*
X002458Y019273D02*
X002342Y019273D01*
X002342Y019301D02*
X002342Y018963D01*
X002103Y018963D01*
X002063Y018974D01*
X002026Y018995D01*
X001996Y019025D01*
X001975Y019061D01*
X001964Y019102D01*
X001964Y019301D01*
X002342Y019301D01*
X002342Y019155D02*
X002458Y019155D01*
X002458Y019036D02*
X002342Y019036D01*
X001990Y019036D02*
X001560Y019036D01*
X001560Y019155D02*
X001964Y019155D01*
X001964Y019273D02*
X001560Y019273D01*
X001560Y019866D02*
X004363Y019866D01*
X004363Y019747D02*
X002729Y019747D01*
X002832Y019629D02*
X004363Y019629D01*
X004389Y019984D02*
X001560Y019984D01*
X001560Y020103D02*
X004363Y020103D01*
X004363Y020221D02*
X002790Y020221D01*
X002010Y020221D02*
X001560Y020221D01*
X001560Y020340D02*
X001984Y020340D01*
X001984Y020458D02*
X001560Y020458D01*
X001560Y020577D02*
X001984Y020577D01*
X001984Y020695D02*
X001560Y020695D01*
X001560Y020814D02*
X001984Y020814D01*
X001560Y020932D02*
X006703Y020932D01*
X006730Y020997D02*
X006610Y020707D01*
X006610Y020393D01*
X006730Y020103D01*
X006953Y019880D01*
X007243Y019760D01*
X007557Y019760D01*
X007847Y019880D01*
X008070Y020103D01*
X008190Y020393D01*
X008190Y020707D01*
X008070Y020997D01*
X007847Y021220D01*
X007557Y021340D01*
X007243Y021340D01*
X006953Y021220D01*
X006730Y020997D01*
X006783Y021051D02*
X001560Y021051D01*
X001560Y021169D02*
X006902Y021169D01*
X007116Y021288D02*
X001560Y021288D01*
X002816Y020814D02*
X006654Y020814D01*
X006610Y020695D02*
X004857Y020695D01*
X005019Y020577D02*
X006610Y020577D01*
X006610Y020458D02*
X005037Y020458D01*
X005037Y020340D02*
X006632Y020340D01*
X006681Y020221D02*
X005037Y020221D01*
X005037Y020103D02*
X006730Y020103D01*
X006849Y019984D02*
X005011Y019984D01*
X005037Y019866D02*
X006988Y019866D01*
X007812Y019866D02*
X010514Y019866D01*
X010539Y019840D02*
X010708Y019770D01*
X010891Y019770D01*
X011061Y019840D01*
X011190Y019969D01*
X011260Y020138D01*
X011260Y020961D01*
X011190Y021131D01*
X011061Y021260D01*
X010891Y021330D01*
X010708Y021330D01*
X010539Y021260D01*
X010410Y021131D01*
X010340Y020961D01*
X010340Y020138D01*
X010410Y019969D01*
X010539Y019840D01*
X010404Y019984D02*
X007951Y019984D01*
X008070Y020103D02*
X010355Y020103D01*
X010340Y020221D02*
X008119Y020221D01*
X008168Y020340D02*
X010340Y020340D01*
X010340Y020458D02*
X008190Y020458D01*
X008190Y020577D02*
X010340Y020577D01*
X010340Y020695D02*
X008190Y020695D01*
X008146Y020814D02*
X010340Y020814D01*
X010340Y020932D02*
X008097Y020932D01*
X008017Y021051D02*
X010377Y021051D01*
X010449Y021169D02*
X007898Y021169D01*
X007684Y021288D02*
X010606Y021288D01*
X010994Y021288D02*
X011562Y021288D01*
X011548Y021281D02*
X011487Y021236D01*
X011434Y021183D01*
X011389Y021122D01*
X011355Y021054D01*
X011332Y020982D01*
X011320Y020908D01*
X011320Y020590D01*
X011760Y020590D01*
X011760Y021350D01*
X011688Y021338D01*
X011616Y021315D01*
X011548Y021281D01*
X011424Y021169D02*
X011151Y021169D01*
X011223Y021051D02*
X011354Y021051D01*
X011324Y020932D02*
X011260Y020932D01*
X011260Y020814D02*
X011320Y020814D01*
X011320Y020695D02*
X011260Y020695D01*
X011260Y020577D02*
X011760Y020577D01*
X011760Y020590D02*
X011760Y020510D01*
X011320Y020510D01*
X011320Y020192D01*
X011332Y020118D01*
X011355Y020046D01*
X011389Y019978D01*
X011434Y019917D01*
X011487Y019864D01*
X011548Y019819D01*
X011616Y019785D01*
X011688Y019762D01*
X011760Y019750D01*
X011760Y020510D01*
X011840Y020510D01*
X011840Y020590D01*
X011760Y020590D01*
X011840Y020590D02*
X011840Y021350D01*
X011912Y021338D01*
X011984Y021315D01*
X012052Y021281D01*
X012113Y021236D01*
X012166Y021183D01*
X012211Y021122D01*
X012245Y021054D01*
X012268Y020982D01*
X012280Y020908D01*
X012280Y020590D01*
X011840Y020590D01*
X011840Y020577D02*
X012340Y020577D01*
X012280Y020510D02*
X011840Y020510D01*
X011840Y019750D01*
X011912Y019762D01*
X011984Y019785D01*
X012052Y019819D01*
X012113Y019864D01*
X012166Y019917D01*
X012211Y019978D01*
X012245Y020046D01*
X012268Y020118D01*
X012280Y020192D01*
X012280Y020510D01*
X012280Y020458D02*
X012340Y020458D01*
X012340Y020340D02*
X012280Y020340D01*
X012280Y020221D02*
X012340Y020221D01*
X012340Y020138D02*
X012410Y019969D01*
X012539Y019840D01*
X012708Y019770D01*
X012891Y019770D01*
X013061Y019840D01*
X013190Y019969D01*
X013260Y020138D01*
X013260Y020961D01*
X013190Y021131D01*
X013061Y021260D01*
X012891Y021330D01*
X012708Y021330D01*
X012539Y021260D01*
X012410Y021131D01*
X012340Y020961D01*
X012340Y020138D01*
X012355Y020103D02*
X012263Y020103D01*
X012213Y019984D02*
X012404Y019984D01*
X012514Y019866D02*
X012114Y019866D01*
X011840Y019866D02*
X011760Y019866D01*
X011760Y019984D02*
X011840Y019984D01*
X011840Y020103D02*
X011760Y020103D01*
X011760Y020221D02*
X011840Y020221D01*
X011840Y020340D02*
X011760Y020340D01*
X011760Y020458D02*
X011840Y020458D01*
X011840Y020695D02*
X011760Y020695D01*
X011760Y020814D02*
X011840Y020814D01*
X011840Y020932D02*
X011760Y020932D01*
X011760Y021051D02*
X011840Y021051D01*
X011840Y021169D02*
X011760Y021169D01*
X011760Y021288D02*
X011840Y021288D01*
X012038Y021288D02*
X012606Y021288D01*
X012449Y021169D02*
X012176Y021169D01*
X012246Y021051D02*
X012377Y021051D01*
X012340Y020932D02*
X012276Y020932D01*
X012280Y020814D02*
X012340Y020814D01*
X012340Y020695D02*
X012280Y020695D01*
X013260Y020695D02*
X013340Y020695D01*
X013340Y020577D02*
X013260Y020577D01*
X013260Y020458D02*
X013340Y020458D01*
X013340Y020340D02*
X013260Y020340D01*
X013260Y020221D02*
X013340Y020221D01*
X013340Y020138D02*
X013410Y019969D01*
X013539Y019840D01*
X013708Y019770D01*
X013891Y019770D01*
X014061Y019840D01*
X014190Y019969D01*
X014260Y020138D01*
X014260Y020961D01*
X014190Y021131D01*
X014061Y021260D01*
X013891Y021330D01*
X013708Y021330D01*
X013539Y021260D01*
X013410Y021131D01*
X013340Y020961D01*
X013340Y020138D01*
X013355Y020103D02*
X013245Y020103D01*
X013196Y019984D02*
X013404Y019984D01*
X013514Y019866D02*
X013086Y019866D01*
X014086Y019866D02*
X014514Y019866D01*
X014600Y019747D02*
X005037Y019747D01*
X005037Y019629D02*
X014600Y019629D01*
X014600Y019510D02*
X005037Y019510D01*
X005037Y019392D02*
X014600Y019392D01*
X014600Y019273D02*
X004969Y019273D01*
X004920Y019155D02*
X014600Y019155D01*
X014600Y019036D02*
X004920Y019036D01*
X004920Y018918D02*
X014600Y018918D01*
X014600Y018799D02*
X004920Y018799D01*
X004920Y018681D02*
X014600Y018681D01*
X014600Y018562D02*
X004920Y018562D01*
X004920Y018444D02*
X005874Y018444D01*
X005875Y018447D02*
X005864Y018406D01*
X005864Y017855D01*
X006240Y017855D01*
X006240Y018545D01*
X006003Y018545D01*
X005963Y018535D01*
X005926Y018513D01*
X005896Y018484D01*
X005875Y018447D01*
X005864Y018325D02*
X004920Y018325D01*
X004920Y018207D02*
X005864Y018207D01*
X005864Y018088D02*
X004920Y018088D01*
X004920Y017970D02*
X005864Y017970D01*
X005864Y017735D02*
X005864Y017183D01*
X005875Y017143D01*
X005896Y017106D01*
X005926Y017076D01*
X005963Y017055D01*
X006003Y017044D01*
X006240Y017044D01*
X006240Y017735D01*
X005864Y017735D01*
X005864Y017733D02*
X004920Y017733D01*
X004920Y017851D02*
X006240Y017851D01*
X006240Y017855D02*
X006240Y017735D01*
X006360Y017735D01*
X006360Y017855D01*
X006240Y017855D01*
X006240Y017970D02*
X006360Y017970D01*
X006360Y017855D02*
X006360Y018545D01*
X006597Y018545D01*
X006637Y018535D01*
X006674Y018513D01*
X006704Y018484D01*
X006725Y018447D01*
X006736Y018406D01*
X006736Y017855D01*
X006360Y017855D01*
X006360Y017851D02*
X014600Y017851D01*
X014600Y017733D02*
X006736Y017733D01*
X006736Y017735D02*
X006736Y017183D01*
X006725Y017143D01*
X006704Y017106D01*
X006674Y017076D01*
X006637Y017055D01*
X006597Y017044D01*
X006360Y017044D01*
X006360Y017735D01*
X006736Y017735D01*
X006736Y017614D02*
X014600Y017614D01*
X014600Y017496D02*
X006736Y017496D01*
X006736Y017377D02*
X014600Y017377D01*
X014600Y017259D02*
X006736Y017259D01*
X006723Y017140D02*
X014600Y017140D01*
X014600Y017022D02*
X004528Y017022D01*
X004646Y017140D02*
X005877Y017140D01*
X005864Y017259D02*
X004765Y017259D01*
X004883Y017377D02*
X005864Y017377D01*
X005864Y017496D02*
X004920Y017496D01*
X004920Y017614D02*
X005864Y017614D01*
X006240Y017614D02*
X006360Y017614D01*
X006360Y017496D02*
X006240Y017496D01*
X006240Y017377D02*
X006360Y017377D01*
X006360Y017259D02*
X006240Y017259D01*
X006240Y017140D02*
X006360Y017140D01*
X006634Y016636D02*
X005966Y016636D01*
X005884Y016554D01*
X005884Y015257D01*
X005966Y015175D01*
X006634Y015175D01*
X006716Y015257D01*
X006716Y015515D01*
X006983Y015515D01*
X007400Y015099D01*
X007400Y012367D01*
X007335Y012302D01*
X007335Y011793D01*
X007417Y011711D01*
X007584Y011711D01*
X007712Y011658D01*
X008441Y011658D01*
X008910Y011188D01*
X008910Y007558D01*
X007538Y006186D01*
X007353Y006186D01*
X007271Y006104D01*
X007271Y005488D01*
X007353Y005406D01*
X008047Y005406D01*
X008051Y005410D01*
X017459Y005410D01*
X019060Y003809D01*
X019060Y002181D01*
X019010Y002131D01*
X018940Y001961D01*
X018940Y001138D01*
X019010Y000969D01*
X019139Y000840D01*
X019308Y000770D01*
X019491Y000770D01*
X019661Y000840D01*
X019790Y000969D01*
X019860Y001138D01*
X019860Y001961D01*
X019790Y002131D01*
X019740Y002181D01*
X019740Y004018D01*
X019688Y004143D01*
X019593Y004238D01*
X017793Y006038D01*
X017668Y006090D01*
X008545Y006090D01*
X009521Y007066D01*
X009631Y007176D01*
X009690Y007319D01*
X009690Y011428D01*
X009631Y011571D01*
X009521Y011681D01*
X008823Y012378D01*
X008680Y012438D01*
X008180Y012438D01*
X008180Y015148D01*
X008190Y015172D01*
X008190Y015328D01*
X008131Y015471D01*
X007476Y016126D01*
X007366Y016236D01*
X007222Y016295D01*
X006716Y016295D01*
X006716Y016554D01*
X006634Y016636D01*
X006716Y016548D02*
X014600Y016548D01*
X014600Y016666D02*
X004172Y016666D01*
X004054Y016548D02*
X005884Y016548D01*
X005884Y016429D02*
X003935Y016429D01*
X003817Y016311D02*
X005884Y016311D01*
X005884Y016192D02*
X003698Y016192D01*
X003580Y016074D02*
X005884Y016074D01*
X005884Y015955D02*
X003516Y015955D01*
X003516Y015837D02*
X005884Y015837D01*
X005884Y015718D02*
X003516Y015718D01*
X003516Y015600D02*
X005884Y015600D01*
X005884Y015481D02*
X003516Y015481D01*
X003516Y015363D02*
X005884Y015363D01*
X005897Y015244D02*
X003503Y015244D01*
X003490Y015126D02*
X007373Y015126D01*
X007400Y015007D02*
X007226Y015007D01*
X007300Y014889D02*
X007400Y014889D01*
X007400Y014770D02*
X007300Y014770D01*
X007300Y014652D02*
X007400Y014652D01*
X007400Y014533D02*
X007300Y014533D01*
X007300Y014415D02*
X007400Y014415D01*
X007400Y014296D02*
X007300Y014296D01*
X007300Y014178D02*
X007400Y014178D01*
X007400Y014059D02*
X007300Y014059D01*
X007300Y013941D02*
X007400Y013941D01*
X007400Y013822D02*
X007300Y013822D01*
X007300Y013704D02*
X007400Y013704D01*
X007400Y013585D02*
X007300Y013585D01*
X007300Y013467D02*
X007400Y013467D01*
X007400Y013348D02*
X007300Y013348D01*
X007300Y013230D02*
X007400Y013230D01*
X007400Y013111D02*
X007300Y013111D01*
X007300Y012993D02*
X007400Y012993D01*
X007400Y012874D02*
X007300Y012874D01*
X007300Y012756D02*
X007400Y012756D01*
X007400Y012637D02*
X007300Y012637D01*
X007300Y012519D02*
X007400Y012519D01*
X007400Y012400D02*
X007300Y012400D01*
X007300Y012282D02*
X007335Y012282D01*
X007335Y012163D02*
X007300Y012163D01*
X007300Y012045D02*
X007335Y012045D01*
X007335Y011926D02*
X007300Y011926D01*
X007300Y011808D02*
X007335Y011808D01*
X007300Y011689D02*
X007636Y011689D01*
X007300Y011571D02*
X008528Y011571D01*
X008646Y011452D02*
X007300Y011452D01*
X007300Y011334D02*
X008765Y011334D01*
X008883Y011215D02*
X007300Y011215D01*
X007300Y011097D02*
X008910Y011097D01*
X008910Y010978D02*
X007300Y010978D01*
X007300Y010860D02*
X008910Y010860D01*
X008910Y010741D02*
X007300Y010741D01*
X007300Y010623D02*
X008910Y010623D01*
X008910Y010504D02*
X008256Y010504D01*
X008254Y010511D02*
X008233Y010547D01*
X008203Y010577D01*
X008166Y010598D01*
X008126Y010609D01*
X007828Y010609D01*
X007828Y010291D01*
X007751Y010291D01*
X007751Y010214D01*
X007315Y010214D01*
X007315Y010034D01*
X007326Y009994D01*
X007347Y009957D01*
X007377Y009927D01*
X007413Y009906D01*
X007454Y009896D01*
X007751Y009896D01*
X007751Y010214D01*
X007828Y010214D01*
X007828Y009896D01*
X008126Y009896D01*
X008166Y009906D01*
X008203Y009927D01*
X008233Y009957D01*
X008254Y009994D01*
X008265Y010034D01*
X008265Y010214D01*
X007828Y010214D01*
X007828Y010291D01*
X008265Y010291D01*
X008265Y010470D01*
X008254Y010511D01*
X008265Y010386D02*
X008910Y010386D01*
X008910Y010267D02*
X007828Y010267D01*
X007751Y010267D02*
X007300Y010267D01*
X007315Y010291D02*
X007315Y010470D01*
X007326Y010511D01*
X007347Y010547D01*
X007377Y010577D01*
X007413Y010598D01*
X007454Y010609D01*
X007751Y010609D01*
X007751Y010291D01*
X007315Y010291D01*
X007315Y010386D02*
X007300Y010386D01*
X007300Y010504D02*
X007324Y010504D01*
X007300Y010149D02*
X007315Y010149D01*
X007300Y010030D02*
X007316Y010030D01*
X007300Y009912D02*
X007404Y009912D01*
X007300Y009793D02*
X008910Y009793D01*
X008910Y009675D02*
X007300Y009675D01*
X007300Y009556D02*
X008910Y009556D01*
X008910Y009438D02*
X007300Y009438D01*
X007300Y009319D02*
X008910Y009319D01*
X008910Y009201D02*
X007300Y009201D01*
X007300Y009082D02*
X008910Y009082D01*
X008910Y008964D02*
X007300Y008964D01*
X007300Y008845D02*
X008910Y008845D01*
X008910Y008727D02*
X007300Y008727D01*
X007300Y008608D02*
X008910Y008608D01*
X008910Y008490D02*
X007300Y008490D01*
X007300Y008371D02*
X008910Y008371D01*
X008910Y008253D02*
X007300Y008253D01*
X007300Y008134D02*
X008910Y008134D01*
X008910Y008016D02*
X007300Y008016D01*
X007300Y007897D02*
X008910Y007897D01*
X008910Y007779D02*
X007300Y007779D01*
X007300Y007660D02*
X008910Y007660D01*
X008894Y007542D02*
X007300Y007542D01*
X007300Y007423D02*
X008775Y007423D01*
X008657Y007305D02*
X007237Y007305D01*
X006267Y006949D02*
X008301Y006949D01*
X008183Y006831D02*
X006385Y006831D01*
X006435Y006712D02*
X008064Y006712D01*
X007946Y006594D02*
X006467Y006594D01*
X006467Y006475D02*
X007827Y006475D01*
X007709Y006357D02*
X006467Y006357D01*
X006467Y006238D02*
X007590Y006238D01*
X007286Y006120D02*
X006467Y006120D01*
X006467Y006001D02*
X007271Y006001D01*
X007271Y005883D02*
X006467Y005883D01*
X006467Y005764D02*
X007271Y005764D01*
X007271Y005646D02*
X006469Y005646D01*
X006588Y005527D02*
X007271Y005527D01*
X007351Y005409D02*
X006706Y005409D01*
X006825Y005290D02*
X017579Y005290D01*
X017461Y005409D02*
X008049Y005409D01*
X007180Y004935D02*
X017935Y004935D01*
X017816Y005053D02*
X007062Y005053D01*
X006943Y005172D02*
X017698Y005172D01*
X018053Y004816D02*
X007299Y004816D01*
X007417Y004698D02*
X013520Y004698D01*
X013479Y004681D02*
X013369Y004571D01*
X013310Y004428D01*
X013310Y004272D01*
X013369Y004129D01*
X013479Y004019D01*
X013622Y003960D01*
X014338Y003960D01*
X016010Y002288D01*
X016010Y002130D01*
X015940Y001961D01*
X015940Y001138D01*
X016010Y000969D01*
X016139Y000840D01*
X016308Y000770D01*
X016491Y000770D01*
X016661Y000840D01*
X016790Y000969D01*
X016860Y001138D01*
X016860Y001961D01*
X016790Y002130D01*
X016790Y002528D01*
X016731Y002671D01*
X016621Y002781D01*
X014721Y004681D01*
X014578Y004740D01*
X014422Y004740D01*
X013622Y004740D01*
X013479Y004681D01*
X013377Y004579D02*
X007536Y004579D01*
X008080Y004461D02*
X013324Y004461D01*
X013310Y004342D02*
X008129Y004342D01*
X008159Y004224D02*
X013330Y004224D01*
X013393Y004105D02*
X008170Y004105D01*
X008160Y003987D02*
X013558Y003987D01*
X014430Y003868D02*
X008129Y003868D01*
X008083Y003750D02*
X014549Y003750D01*
X014667Y003631D02*
X007892Y003631D01*
X007774Y003513D02*
X014786Y003513D01*
X014904Y003394D02*
X007655Y003394D01*
X007537Y003276D02*
X015023Y003276D01*
X015141Y003157D02*
X007418Y003157D01*
X007300Y003039D02*
X015260Y003039D01*
X015378Y002920D02*
X007137Y002920D01*
X006716Y002802D02*
X015497Y002802D01*
X015615Y002683D02*
X006598Y002683D01*
X006479Y002565D02*
X015734Y002565D01*
X015852Y002446D02*
X006361Y002446D01*
X006242Y002328D02*
X006713Y002328D01*
X006743Y002340D02*
X006453Y002220D01*
X006230Y001997D01*
X006110Y001707D01*
X006110Y001393D01*
X006230Y001103D01*
X006453Y000880D01*
X006743Y000760D01*
X007057Y000760D01*
X007347Y000880D01*
X007570Y001103D01*
X007690Y001393D01*
X007690Y001707D01*
X007570Y001997D01*
X007347Y002220D01*
X007057Y002340D01*
X006743Y002340D01*
X006442Y002209D02*
X006124Y002209D01*
X006005Y002091D02*
X006323Y002091D01*
X006220Y001972D02*
X003149Y001972D01*
X003316Y001854D02*
X006171Y001854D01*
X006122Y001735D02*
X003418Y001735D01*
X003473Y001617D02*
X006110Y001617D01*
X006110Y001498D02*
X002650Y001498D01*
X002650Y001400D02*
X003499Y001400D01*
X003487Y001326D01*
X003461Y001247D01*
X003423Y001172D01*
X003374Y001105D01*
X003315Y001046D01*
X003248Y000997D01*
X003173Y000959D01*
X003094Y000933D01*
X003012Y000920D01*
X002650Y000920D01*
X002650Y001400D01*
X002650Y001380D02*
X002550Y001380D01*
X002550Y001400D02*
X001701Y001400D01*
X001701Y001500D02*
X002550Y001500D01*
X002550Y001400D01*
X002550Y001261D02*
X002650Y001261D01*
X002650Y001143D02*
X002550Y001143D01*
X002550Y001024D02*
X002650Y001024D01*
X003285Y001024D02*
X006309Y001024D01*
X006214Y001143D02*
X003402Y001143D01*
X003466Y001261D02*
X006165Y001261D01*
X006116Y001380D02*
X003495Y001380D01*
X002082Y001959D02*
X002027Y001941D01*
X001952Y001903D01*
X001885Y001854D01*
X001826Y001795D01*
X001777Y001728D01*
X001739Y001653D01*
X001713Y001574D01*
X001701Y001500D01*
X001727Y001617D02*
X001560Y001617D01*
X001560Y001735D02*
X001782Y001735D01*
X001884Y001854D02*
X001560Y001854D01*
X001560Y001972D02*
X002051Y001972D01*
X002082Y001959D02*
X001941Y002018D01*
X001798Y002161D01*
X001720Y002349D01*
X001720Y002551D01*
X001798Y002739D01*
X001941Y002882D01*
X002129Y002960D01*
X003071Y002960D01*
X003168Y002920D01*
X002032Y002920D02*
X001560Y002920D01*
X001560Y002802D02*
X001860Y002802D01*
X001774Y002683D02*
X001560Y002683D01*
X001560Y002565D02*
X001725Y002565D01*
X001720Y002446D02*
X001560Y002446D01*
X001560Y002328D02*
X001729Y002328D01*
X001778Y002209D02*
X001560Y002209D01*
X001560Y002091D02*
X001868Y002091D01*
X001734Y001261D02*
X001560Y001261D01*
X001560Y001143D02*
X001798Y001143D01*
X001915Y001024D02*
X001560Y001024D01*
X001560Y000906D02*
X006427Y000906D01*
X006678Y000787D02*
X001560Y000787D01*
X004714Y003631D02*
X004790Y003631D01*
X004790Y003750D02*
X004714Y003750D01*
X004714Y003868D02*
X004790Y003868D01*
X004790Y003987D02*
X004714Y003987D01*
X004714Y004105D02*
X004790Y004105D01*
X004790Y004204D02*
X005699Y004204D01*
X005699Y004209D01*
X005686Y004295D01*
X005659Y004378D01*
X005619Y004456D01*
X005568Y004526D01*
X005506Y004588D01*
X005436Y004639D01*
X005358Y004679D01*
X005275Y004706D01*
X005189Y004719D01*
X004790Y004719D01*
X004790Y004204D01*
X004790Y004224D02*
X004714Y004224D01*
X004714Y004342D02*
X004790Y004342D01*
X004790Y004461D02*
X004714Y004461D01*
X004714Y004579D02*
X004790Y004579D01*
X004790Y004698D02*
X004714Y004698D01*
X005301Y004698D02*
X006088Y004698D01*
X006206Y004579D02*
X005515Y004579D01*
X005616Y004461D02*
X006325Y004461D01*
X006443Y004342D02*
X005671Y004342D01*
X005697Y004224D02*
X006562Y004224D01*
X006680Y004105D02*
X005697Y004105D01*
X005670Y003987D02*
X006799Y003987D01*
X006800Y003868D02*
X005614Y003868D01*
X005512Y003750D02*
X006336Y003750D01*
X006216Y003631D02*
X005292Y003631D01*
X007087Y002328D02*
X014302Y002328D01*
X014308Y002330D02*
X014139Y002260D01*
X014010Y002131D01*
X013940Y001961D01*
X013940Y001138D01*
X014010Y000969D01*
X014139Y000840D01*
X014308Y000770D01*
X014491Y000770D01*
X014661Y000840D01*
X014790Y000969D01*
X014860Y001138D01*
X014860Y001961D01*
X014790Y002131D01*
X014661Y002260D01*
X014491Y002330D01*
X014308Y002330D01*
X014498Y002328D02*
X015302Y002328D01*
X015308Y002330D02*
X015139Y002260D01*
X015010Y002131D01*
X014940Y001961D01*
X014940Y001138D01*
X015010Y000969D01*
X015139Y000840D01*
X015308Y000770D01*
X015491Y000770D01*
X015661Y000840D01*
X015790Y000969D01*
X015860Y001138D01*
X015860Y001961D01*
X015790Y002131D01*
X015661Y002260D01*
X015491Y002330D01*
X015308Y002330D01*
X015498Y002328D02*
X015971Y002328D01*
X016010Y002209D02*
X015712Y002209D01*
X015807Y002091D02*
X015993Y002091D01*
X015944Y001972D02*
X015856Y001972D01*
X015860Y001854D02*
X015940Y001854D01*
X015940Y001735D02*
X015860Y001735D01*
X015860Y001617D02*
X015940Y001617D01*
X015940Y001498D02*
X015860Y001498D01*
X015860Y001380D02*
X015940Y001380D01*
X015940Y001261D02*
X015860Y001261D01*
X015860Y001143D02*
X015940Y001143D01*
X015987Y001024D02*
X015813Y001024D01*
X015726Y000906D02*
X016074Y000906D01*
X016267Y000787D02*
X015533Y000787D01*
X015267Y000787D02*
X014533Y000787D01*
X014726Y000906D02*
X015074Y000906D01*
X014987Y001024D02*
X014813Y001024D01*
X014860Y001143D02*
X014940Y001143D01*
X014940Y001261D02*
X014860Y001261D01*
X014860Y001380D02*
X014940Y001380D01*
X014940Y001498D02*
X014860Y001498D01*
X014860Y001617D02*
X014940Y001617D01*
X014940Y001735D02*
X014860Y001735D01*
X014860Y001854D02*
X014940Y001854D01*
X014944Y001972D02*
X014856Y001972D01*
X014807Y002091D02*
X014993Y002091D01*
X015088Y002209D02*
X014712Y002209D01*
X014088Y002209D02*
X007358Y002209D01*
X007477Y002091D02*
X013993Y002091D01*
X013944Y001972D02*
X007580Y001972D01*
X007629Y001854D02*
X013940Y001854D01*
X013940Y001735D02*
X007678Y001735D01*
X007690Y001617D02*
X013940Y001617D01*
X013940Y001498D02*
X007690Y001498D01*
X007684Y001380D02*
X013940Y001380D01*
X013940Y001261D02*
X007635Y001261D01*
X007586Y001143D02*
X013940Y001143D01*
X013987Y001024D02*
X007491Y001024D01*
X007373Y000906D02*
X014074Y000906D01*
X014267Y000787D02*
X007122Y000787D01*
X014680Y004698D02*
X018172Y004698D01*
X018290Y004579D02*
X014823Y004579D01*
X014941Y004461D02*
X018409Y004461D01*
X018527Y004342D02*
X015060Y004342D01*
X015178Y004224D02*
X018646Y004224D01*
X018764Y004105D02*
X015297Y004105D01*
X015415Y003987D02*
X018883Y003987D01*
X019001Y003868D02*
X015534Y003868D01*
X015652Y003750D02*
X019060Y003750D01*
X019060Y003631D02*
X015771Y003631D01*
X015889Y003513D02*
X019060Y003513D01*
X019060Y003394D02*
X016008Y003394D01*
X016126Y003276D02*
X019060Y003276D01*
X019060Y003157D02*
X016245Y003157D01*
X016363Y003039D02*
X019060Y003039D01*
X019060Y002920D02*
X016482Y002920D01*
X016600Y002802D02*
X019060Y002802D01*
X019060Y002683D02*
X016719Y002683D01*
X016775Y002565D02*
X019060Y002565D01*
X019060Y002446D02*
X016790Y002446D01*
X016790Y002328D02*
X017255Y002328D01*
X017288Y002338D02*
X017216Y002315D01*
X017148Y002281D01*
X017087Y002236D01*
X017034Y002183D01*
X016989Y002122D01*
X016955Y002054D01*
X016932Y001982D01*
X016920Y001908D01*
X016920Y001590D01*
X017360Y001590D01*
X017360Y002350D01*
X017288Y002338D01*
X017360Y002328D02*
X017440Y002328D01*
X017440Y002350D02*
X017440Y001590D01*
X017880Y001590D01*
X017880Y001908D01*
X017868Y001982D01*
X017845Y002054D01*
X017811Y002122D01*
X017766Y002183D01*
X017713Y002236D01*
X017652Y002281D01*
X017584Y002315D01*
X017512Y002338D01*
X017440Y002350D01*
X017545Y002328D02*
X018255Y002328D01*
X018288Y002338D02*
X018216Y002315D01*
X018148Y002281D01*
X018087Y002236D01*
X018034Y002183D01*
X017989Y002122D01*
X017955Y002054D01*
X017932Y001982D01*
X017920Y001908D01*
X017920Y001590D01*
X018360Y001590D01*
X018360Y002350D01*
X018288Y002338D01*
X018360Y002328D02*
X018440Y002328D01*
X018440Y002350D02*
X018440Y001590D01*
X018880Y001590D01*
X018880Y001908D01*
X018868Y001982D01*
X018845Y002054D01*
X018811Y002122D01*
X018766Y002183D01*
X018713Y002236D01*
X018652Y002281D01*
X018584Y002315D01*
X018512Y002338D01*
X018440Y002350D01*
X018545Y002328D02*
X019060Y002328D01*
X019060Y002209D02*
X018740Y002209D01*
X018826Y002091D02*
X018993Y002091D01*
X018944Y001972D02*
X018870Y001972D01*
X018880Y001854D02*
X018940Y001854D01*
X018940Y001735D02*
X018880Y001735D01*
X018880Y001617D02*
X018940Y001617D01*
X018940Y001498D02*
X018880Y001498D01*
X018880Y001510D02*
X018440Y001510D01*
X018440Y001590D01*
X018360Y001590D01*
X018360Y001510D01*
X018440Y001510D01*
X018440Y000750D01*
X018512Y000762D01*
X018584Y000785D01*
X018652Y000819D01*
X018713Y000864D01*
X018766Y000917D01*
X018811Y000978D01*
X018845Y001046D01*
X018868Y001118D01*
X018880Y001192D01*
X018880Y001510D01*
X018880Y001380D02*
X018940Y001380D01*
X018940Y001261D02*
X018880Y001261D01*
X018872Y001143D02*
X018940Y001143D01*
X018987Y001024D02*
X018834Y001024D01*
X018754Y000906D02*
X019074Y000906D01*
X019267Y000787D02*
X018588Y000787D01*
X018440Y000787D02*
X018360Y000787D01*
X018360Y000750D02*
X018360Y001510D01*
X017920Y001510D01*
X017920Y001192D01*
X017932Y001118D01*
X017955Y001046D01*
X017989Y000978D01*
X018034Y000917D01*
X018087Y000864D01*
X018148Y000819D01*
X018216Y000785D01*
X018288Y000762D01*
X018360Y000750D01*
X018212Y000787D02*
X017588Y000787D01*
X017584Y000785D02*
X017652Y000819D01*
X017713Y000864D01*
X017766Y000917D01*
X017811Y000978D01*
X017845Y001046D01*
X017868Y001118D01*
X017880Y001192D01*
X017880Y001510D01*
X017440Y001510D01*
X017440Y001590D01*
X017360Y001590D01*
X017360Y001510D01*
X017440Y001510D01*
X017440Y000750D01*
X017512Y000762D01*
X017584Y000785D01*
X017440Y000787D02*
X017360Y000787D01*
X017360Y000750D02*
X017360Y001510D01*
X016920Y001510D01*
X016920Y001192D01*
X016932Y001118D01*
X016955Y001046D01*
X016989Y000978D01*
X017034Y000917D01*
X017087Y000864D01*
X017148Y000819D01*
X017216Y000785D01*
X017288Y000762D01*
X017360Y000750D01*
X017212Y000787D02*
X016533Y000787D01*
X016726Y000906D02*
X017046Y000906D01*
X016966Y001024D02*
X016813Y001024D01*
X016860Y001143D02*
X016928Y001143D01*
X016920Y001261D02*
X016860Y001261D01*
X016860Y001380D02*
X016920Y001380D01*
X016920Y001498D02*
X016860Y001498D01*
X016860Y001617D02*
X016920Y001617D01*
X016920Y001735D02*
X016860Y001735D01*
X016860Y001854D02*
X016920Y001854D01*
X016930Y001972D02*
X016856Y001972D01*
X016807Y002091D02*
X016974Y002091D01*
X017060Y002209D02*
X016790Y002209D01*
X017360Y002209D02*
X017440Y002209D01*
X017440Y002091D02*
X017360Y002091D01*
X017360Y001972D02*
X017440Y001972D01*
X017440Y001854D02*
X017360Y001854D01*
X017360Y001735D02*
X017440Y001735D01*
X017440Y001617D02*
X017360Y001617D01*
X017360Y001498D02*
X017440Y001498D01*
X017440Y001380D02*
X017360Y001380D01*
X017360Y001261D02*
X017440Y001261D01*
X017440Y001143D02*
X017360Y001143D01*
X017360Y001024D02*
X017440Y001024D01*
X017440Y000906D02*
X017360Y000906D01*
X017754Y000906D02*
X018046Y000906D01*
X017966Y001024D02*
X017834Y001024D01*
X017872Y001143D02*
X017928Y001143D01*
X017920Y001261D02*
X017880Y001261D01*
X017880Y001380D02*
X017920Y001380D01*
X017920Y001498D02*
X017880Y001498D01*
X017880Y001617D02*
X017920Y001617D01*
X017920Y001735D02*
X017880Y001735D01*
X017880Y001854D02*
X017920Y001854D01*
X017930Y001972D02*
X017870Y001972D01*
X017826Y002091D02*
X017974Y002091D01*
X018060Y002209D02*
X017740Y002209D01*
X018360Y002209D02*
X018440Y002209D01*
X018440Y002091D02*
X018360Y002091D01*
X018360Y001972D02*
X018440Y001972D01*
X018440Y001854D02*
X018360Y001854D01*
X018360Y001735D02*
X018440Y001735D01*
X018440Y001617D02*
X018360Y001617D01*
X018360Y001498D02*
X018440Y001498D01*
X018440Y001380D02*
X018360Y001380D01*
X018360Y001261D02*
X018440Y001261D01*
X018440Y001143D02*
X018360Y001143D01*
X018360Y001024D02*
X018440Y001024D01*
X018440Y000906D02*
X018360Y000906D01*
X019533Y000787D02*
X021267Y000787D01*
X021308Y000770D02*
X021491Y000770D01*
X021661Y000840D01*
X021790Y000969D01*
X021860Y001138D01*
X021860Y001961D01*
X021790Y002131D01*
X021661Y002260D01*
X021491Y002330D01*
X021308Y002330D01*
X021139Y002260D01*
X021010Y002131D01*
X020940Y001961D01*
X020940Y001138D01*
X021010Y000969D01*
X021139Y000840D01*
X021308Y000770D01*
X021533Y000787D02*
X022267Y000787D01*
X022308Y000770D02*
X022491Y000770D01*
X022661Y000840D01*
X022790Y000969D01*
X022860Y001138D01*
X022860Y001961D01*
X022790Y002131D01*
X022661Y002260D01*
X022491Y002330D01*
X022308Y002330D01*
X022139Y002260D01*
X022010Y002131D01*
X021940Y001961D01*
X021940Y001138D01*
X022010Y000969D01*
X022139Y000840D01*
X022308Y000770D01*
X022533Y000787D02*
X023267Y000787D01*
X023308Y000770D02*
X023491Y000770D01*
X023661Y000840D01*
X023790Y000969D01*
X023860Y001138D01*
X023860Y001961D01*
X023790Y002131D01*
X023661Y002260D01*
X023491Y002330D01*
X023308Y002330D01*
X023139Y002260D01*
X023010Y002131D01*
X022940Y001961D01*
X022940Y001138D01*
X023010Y000969D01*
X023139Y000840D01*
X023308Y000770D01*
X023533Y000787D02*
X024267Y000787D01*
X024308Y000770D02*
X024491Y000770D01*
X024661Y000840D01*
X024790Y000969D01*
X024860Y001138D01*
X024860Y001961D01*
X024790Y002131D01*
X024661Y002260D01*
X024491Y002330D01*
X024308Y002330D01*
X024139Y002260D01*
X024010Y002131D01*
X023940Y001961D01*
X023940Y001138D01*
X024010Y000969D01*
X024139Y000840D01*
X024308Y000770D01*
X024533Y000787D02*
X025267Y000787D01*
X025308Y000770D02*
X025491Y000770D01*
X025661Y000840D01*
X025790Y000969D01*
X025860Y001138D01*
X025860Y001961D01*
X025790Y002131D01*
X025661Y002260D01*
X025491Y002330D01*
X025308Y002330D01*
X025139Y002260D01*
X025010Y002131D01*
X024940Y001961D01*
X024940Y001138D01*
X025010Y000969D01*
X025139Y000840D01*
X025308Y000770D01*
X025533Y000787D02*
X026267Y000787D01*
X026074Y000906D02*
X025726Y000906D01*
X025813Y001024D02*
X025987Y001024D01*
X025940Y001143D02*
X025860Y001143D01*
X025860Y001261D02*
X025940Y001261D01*
X025940Y001380D02*
X025860Y001380D01*
X025860Y001498D02*
X025940Y001498D01*
X025940Y001617D02*
X025860Y001617D01*
X025860Y001735D02*
X025940Y001735D01*
X025940Y001854D02*
X025860Y001854D01*
X025856Y001972D02*
X025944Y001972D01*
X025993Y002091D02*
X025807Y002091D01*
X025712Y002209D02*
X026088Y002209D01*
X026302Y002328D02*
X025498Y002328D01*
X025302Y002328D02*
X024498Y002328D01*
X024302Y002328D02*
X023498Y002328D01*
X023302Y002328D02*
X022498Y002328D01*
X022302Y002328D02*
X021498Y002328D01*
X021302Y002328D02*
X019740Y002328D01*
X019740Y002446D02*
X026321Y002446D01*
X026203Y002565D02*
X019740Y002565D01*
X019740Y002683D02*
X026084Y002683D01*
X025966Y002802D02*
X019740Y002802D01*
X019740Y002920D02*
X025847Y002920D01*
X025729Y003039D02*
X019740Y003039D01*
X019740Y003157D02*
X025700Y003157D01*
X025700Y003276D02*
X019740Y003276D01*
X019740Y003394D02*
X025700Y003394D01*
X025700Y003513D02*
X019740Y003513D01*
X019740Y003631D02*
X020813Y003631D01*
X020725Y003750D02*
X019740Y003750D01*
X019740Y003868D02*
X020692Y003868D01*
X020698Y003987D02*
X019740Y003987D01*
X019704Y004105D02*
X020749Y004105D01*
X020880Y004224D02*
X019607Y004224D01*
X019489Y004342D02*
X020880Y004342D01*
X020880Y004461D02*
X019370Y004461D01*
X019252Y004579D02*
X020880Y004579D01*
X020880Y004698D02*
X019133Y004698D01*
X019015Y004816D02*
X020880Y004816D01*
X020880Y004935D02*
X018896Y004935D01*
X018778Y005053D02*
X020880Y005053D01*
X020880Y005172D02*
X018659Y005172D01*
X018541Y005290D02*
X020880Y005290D01*
X020880Y005409D02*
X018422Y005409D01*
X018304Y005527D02*
X020880Y005527D01*
X020880Y005646D02*
X018185Y005646D01*
X018067Y005764D02*
X020880Y005764D01*
X020880Y005883D02*
X017948Y005883D01*
X017830Y006001D02*
X020880Y006001D01*
X020880Y006120D02*
X008575Y006120D01*
X008693Y006238D02*
X020880Y006238D01*
X020880Y006357D02*
X008812Y006357D01*
X008930Y006475D02*
X020880Y006475D01*
X020880Y006594D02*
X009049Y006594D01*
X009167Y006712D02*
X020880Y006712D01*
X020880Y006831D02*
X009286Y006831D01*
X009404Y006949D02*
X019168Y006949D01*
X019050Y007068D02*
X009523Y007068D01*
X009521Y007066D02*
X009521Y007066D01*
X009635Y007186D02*
X018931Y007186D01*
X018813Y007305D02*
X009684Y007305D01*
X009690Y007423D02*
X018694Y007423D01*
X018576Y007542D02*
X009690Y007542D01*
X009690Y007660D02*
X018457Y007660D01*
X018339Y007779D02*
X009690Y007779D01*
X009690Y007897D02*
X018220Y007897D01*
X018102Y008016D02*
X009690Y008016D01*
X009690Y008134D02*
X017983Y008134D01*
X017865Y008253D02*
X009690Y008253D01*
X009690Y008371D02*
X017746Y008371D01*
X017628Y008490D02*
X009690Y008490D01*
X009690Y008608D02*
X017509Y008608D01*
X017391Y008727D02*
X009690Y008727D01*
X009690Y008845D02*
X017272Y008845D01*
X017154Y008964D02*
X009690Y008964D01*
X009690Y009082D02*
X017035Y009082D01*
X016917Y009201D02*
X009690Y009201D01*
X009690Y009319D02*
X016798Y009319D01*
X016680Y009438D02*
X009690Y009438D01*
X009690Y009556D02*
X016561Y009556D01*
X016443Y009675D02*
X009690Y009675D01*
X009690Y009793D02*
X016324Y009793D01*
X016206Y009912D02*
X009690Y009912D01*
X009690Y010030D02*
X016087Y010030D01*
X015969Y010149D02*
X009690Y010149D01*
X009690Y010267D02*
X015850Y010267D01*
X015732Y010386D02*
X009690Y010386D01*
X009690Y010504D02*
X015613Y010504D01*
X015495Y010623D02*
X009690Y010623D01*
X009690Y010741D02*
X015376Y010741D01*
X015258Y010860D02*
X009690Y010860D01*
X009690Y010978D02*
X015139Y010978D01*
X015021Y011097D02*
X009690Y011097D01*
X009690Y011215D02*
X014902Y011215D01*
X014784Y011334D02*
X009690Y011334D01*
X009680Y011452D02*
X014665Y011452D01*
X014600Y011571D02*
X009631Y011571D01*
X009513Y011689D02*
X014600Y011689D01*
X014600Y011808D02*
X009394Y011808D01*
X009276Y011926D02*
X014600Y011926D01*
X014600Y012045D02*
X009157Y012045D01*
X009039Y012163D02*
X014600Y012163D01*
X014600Y012282D02*
X008920Y012282D01*
X008771Y012400D02*
X014600Y012400D01*
X014600Y012519D02*
X008180Y012519D01*
X008180Y012637D02*
X014600Y012637D01*
X014600Y012756D02*
X008180Y012756D01*
X008180Y012874D02*
X014600Y012874D01*
X014600Y012993D02*
X008180Y012993D01*
X008180Y013111D02*
X014600Y013111D01*
X014600Y013230D02*
X008180Y013230D01*
X008180Y013348D02*
X014600Y013348D01*
X014600Y013467D02*
X008180Y013467D01*
X008180Y013585D02*
X014600Y013585D01*
X014600Y013704D02*
X008180Y013704D01*
X008180Y013822D02*
X014600Y013822D01*
X014600Y013941D02*
X008180Y013941D01*
X008180Y014059D02*
X014600Y014059D01*
X014600Y014178D02*
X008180Y014178D01*
X008180Y014296D02*
X014600Y014296D01*
X014600Y014415D02*
X008180Y014415D01*
X008180Y014533D02*
X014600Y014533D01*
X014600Y014652D02*
X008180Y014652D01*
X008180Y014770D02*
X014600Y014770D01*
X014600Y014889D02*
X008180Y014889D01*
X008180Y015007D02*
X014600Y015007D01*
X014600Y015126D02*
X008180Y015126D01*
X008190Y015244D02*
X014600Y015244D01*
X014600Y015363D02*
X008176Y015363D01*
X008121Y015481D02*
X014600Y015481D01*
X014600Y015600D02*
X008002Y015600D01*
X007884Y015718D02*
X014600Y015718D01*
X014600Y015837D02*
X007765Y015837D01*
X007647Y015955D02*
X014600Y015955D01*
X014600Y016074D02*
X007528Y016074D01*
X007410Y016192D02*
X014600Y016192D01*
X014600Y016311D02*
X006716Y016311D01*
X006716Y016429D02*
X014600Y016429D01*
X014600Y016785D02*
X004291Y016785D01*
X004409Y016903D02*
X014600Y016903D01*
X015000Y016903D02*
X015600Y016903D01*
X015600Y016785D02*
X015000Y016785D01*
X015000Y016666D02*
X015600Y016666D01*
X015600Y016548D02*
X015000Y016548D01*
X015000Y016429D02*
X015600Y016429D01*
X015600Y016311D02*
X015000Y016311D01*
X015000Y016192D02*
X015600Y016192D01*
X015600Y016074D02*
X015000Y016074D01*
X015000Y015955D02*
X015600Y015955D01*
X015600Y015837D02*
X015000Y015837D01*
X015000Y015718D02*
X015600Y015718D01*
X015600Y015600D02*
X015000Y015600D01*
X015000Y015481D02*
X015600Y015481D01*
X015600Y015363D02*
X015000Y015363D01*
X015000Y015244D02*
X015600Y015244D01*
X015600Y015126D02*
X015000Y015126D01*
X015000Y015007D02*
X015600Y015007D01*
X015600Y014889D02*
X015000Y014889D01*
X015000Y014770D02*
X015600Y014770D01*
X015600Y014652D02*
X015000Y014652D01*
X015000Y014533D02*
X015600Y014533D01*
X015600Y014415D02*
X015000Y014415D01*
X015000Y014296D02*
X015600Y014296D01*
X015690Y014178D02*
X015000Y014178D01*
X015000Y014059D02*
X015808Y014059D01*
X015927Y013941D02*
X015000Y013941D01*
X015000Y013822D02*
X016045Y013822D01*
X016164Y013704D02*
X015000Y013704D01*
X015000Y013585D02*
X016282Y013585D01*
X016401Y013467D02*
X015000Y013467D01*
X015000Y013348D02*
X016519Y013348D01*
X016638Y013230D02*
X015000Y013230D01*
X015000Y013111D02*
X016756Y013111D01*
X016875Y012993D02*
X015000Y012993D01*
X015000Y012874D02*
X016993Y012874D01*
X017112Y012756D02*
X015000Y012756D01*
X015000Y012637D02*
X017230Y012637D01*
X017349Y012519D02*
X015000Y012519D01*
X015000Y012400D02*
X017467Y012400D01*
X017586Y012282D02*
X015000Y012282D01*
X015000Y012163D02*
X017704Y012163D01*
X017823Y012045D02*
X015000Y012045D01*
X015000Y011926D02*
X017941Y011926D01*
X018060Y011808D02*
X015000Y011808D01*
X015000Y011689D02*
X018178Y011689D01*
X018297Y011571D02*
X015112Y011571D01*
X015231Y011452D02*
X018415Y011452D01*
X018534Y011334D02*
X015349Y011334D01*
X015468Y011215D02*
X018652Y011215D01*
X018771Y011097D02*
X015586Y011097D01*
X015705Y010978D02*
X018889Y010978D01*
X019008Y010860D02*
X015823Y010860D01*
X015942Y010741D02*
X019126Y010741D01*
X019245Y010623D02*
X016060Y010623D01*
X016179Y010504D02*
X019363Y010504D01*
X019482Y010386D02*
X016297Y010386D01*
X016416Y010267D02*
X019600Y010267D01*
X019719Y010149D02*
X016534Y010149D01*
X016653Y010030D02*
X019837Y010030D01*
X019956Y009912D02*
X016771Y009912D01*
X016890Y009793D02*
X020074Y009793D01*
X020193Y009675D02*
X017008Y009675D01*
X017127Y009556D02*
X020311Y009556D01*
X020430Y009438D02*
X017245Y009438D01*
X017364Y009319D02*
X020548Y009319D01*
X020667Y009201D02*
X017482Y009201D01*
X017601Y009082D02*
X020785Y009082D01*
X020904Y008964D02*
X017719Y008964D01*
X017838Y008845D02*
X021022Y008845D01*
X021141Y008727D02*
X017956Y008727D01*
X018075Y008608D02*
X019027Y008608D01*
X018855Y008490D02*
X018193Y008490D01*
X018312Y008371D02*
X018791Y008371D01*
X018772Y008253D02*
X018430Y008253D01*
X018549Y008134D02*
X018789Y008134D01*
X018850Y008016D02*
X018667Y008016D01*
X018786Y007897D02*
X019015Y007897D01*
X018904Y007779D02*
X019822Y007779D01*
X019828Y007660D02*
X019023Y007660D01*
X019141Y007542D02*
X019877Y007542D01*
X020002Y007423D02*
X019260Y007423D01*
X019378Y007305D02*
X020272Y007305D01*
X020719Y007186D02*
X021022Y007186D01*
X021006Y007068D02*
X020600Y007068D01*
X020482Y006949D02*
X020888Y006949D01*
X021320Y006712D02*
X021543Y006712D01*
X021543Y006594D02*
X021320Y006594D01*
X021320Y006475D02*
X021543Y006475D01*
X021543Y006477D02*
X021543Y006278D01*
X021554Y006237D01*
X021575Y006201D01*
X021605Y006171D01*
X021641Y006150D01*
X021682Y006139D01*
X021862Y006139D01*
X021862Y006477D01*
X021543Y006477D01*
X021543Y006357D02*
X021320Y006357D01*
X021320Y006238D02*
X021554Y006238D01*
X021320Y006120D02*
X023042Y006120D01*
X023042Y006001D02*
X021320Y006001D01*
X021320Y005883D02*
X023082Y005883D01*
X023180Y005764D02*
X021320Y005764D01*
X021320Y005646D02*
X024000Y005646D01*
X024000Y005764D02*
X023620Y005764D01*
X023718Y005883D02*
X024000Y005883D01*
X024000Y006001D02*
X023758Y006001D01*
X023758Y006120D02*
X024000Y006120D01*
X024000Y006238D02*
X023710Y006238D01*
X023596Y006357D02*
X024000Y006357D01*
X024000Y006475D02*
X023258Y006475D01*
X023139Y006594D02*
X024000Y006594D01*
X024000Y006712D02*
X023021Y006712D01*
X022902Y006831D02*
X024000Y006831D01*
X024116Y006949D02*
X022786Y006949D01*
X022752Y006698D02*
X023400Y006050D01*
X022929Y006238D02*
X022246Y006238D01*
X022257Y006357D02*
X022811Y006357D01*
X022692Y006475D02*
X022257Y006475D01*
X022451Y006698D02*
X022752Y006698D01*
X022451Y006954D02*
X022130Y006954D01*
X021900Y007185D01*
X021435Y007185D01*
X021400Y007150D01*
X021139Y007423D02*
X020956Y007423D01*
X021055Y007305D02*
X020837Y007305D01*
X020972Y007722D02*
X022451Y007722D01*
X022451Y007466D02*
X023016Y007466D01*
X023350Y007800D01*
X023350Y009950D01*
X023694Y009793D02*
X023760Y009793D01*
X023728Y009912D02*
X023879Y009912D01*
X023997Y010030D02*
X023726Y010030D01*
X023677Y010149D02*
X024116Y010149D01*
X024300Y010050D02*
X026000Y010050D01*
X026400Y010450D01*
X026063Y010623D02*
X023155Y010623D01*
X023274Y010741D02*
X026157Y010741D01*
X026022Y010504D02*
X023037Y010504D01*
X022918Y010386D02*
X026022Y010386D01*
X025934Y010267D02*
X023567Y010267D01*
X023133Y010267D02*
X022800Y010267D01*
X022681Y010149D02*
X023023Y010149D01*
X022974Y010030D02*
X022563Y010030D01*
X022444Y009912D02*
X022972Y009912D01*
X023006Y009793D02*
X022326Y009793D01*
X022207Y009675D02*
X023091Y009675D01*
X023150Y009556D02*
X022178Y009556D01*
X022162Y009438D02*
X023150Y009438D01*
X023150Y009319D02*
X022103Y009319D01*
X022177Y009201D02*
X021944Y009201D01*
X022096Y009082D02*
X021351Y009082D01*
X021469Y008964D02*
X022096Y008964D01*
X022116Y008864D02*
X022116Y008864D01*
X022116Y008845D02*
X021588Y008845D01*
X021706Y008727D02*
X022116Y008727D01*
X022451Y008490D02*
X021660Y008490D01*
X015800Y014350D01*
X015800Y020550D01*
X016260Y020577D02*
X016340Y020577D01*
X016340Y020695D02*
X016260Y020695D01*
X016260Y020814D02*
X016340Y020814D01*
X016340Y020932D02*
X016260Y020932D01*
X016223Y021051D02*
X016377Y021051D01*
X016449Y021169D02*
X016151Y021169D01*
X015994Y021288D02*
X016606Y021288D01*
X016994Y021288D02*
X017606Y021288D01*
X017449Y021169D02*
X017151Y021169D01*
X017223Y021051D02*
X017377Y021051D01*
X017340Y020932D02*
X017260Y020932D01*
X017260Y020814D02*
X017340Y020814D01*
X017340Y020695D02*
X017260Y020695D01*
X017260Y020577D02*
X017340Y020577D01*
X017340Y020458D02*
X017260Y020458D01*
X017260Y020340D02*
X017340Y020340D01*
X017340Y020221D02*
X017260Y020221D01*
X017245Y020103D02*
X017355Y020103D01*
X017404Y019984D02*
X017196Y019984D01*
X017086Y019866D02*
X017514Y019866D01*
X017600Y019747D02*
X017000Y019747D01*
X017000Y019629D02*
X017600Y019629D01*
X017600Y019510D02*
X017000Y019510D01*
X017000Y019392D02*
X017600Y019392D01*
X017600Y019273D02*
X017000Y019273D01*
X017000Y019155D02*
X017600Y019155D01*
X017600Y019036D02*
X017000Y019036D01*
X017000Y018918D02*
X017600Y018918D01*
X017600Y018799D02*
X017000Y018799D01*
X017000Y018681D02*
X017600Y018681D01*
X017600Y018562D02*
X017000Y018562D01*
X017000Y018444D02*
X017600Y018444D01*
X017600Y018325D02*
X017000Y018325D01*
X017000Y018207D02*
X017600Y018207D01*
X017600Y018088D02*
X017000Y018088D01*
X017000Y017970D02*
X017600Y017970D01*
X017600Y017851D02*
X017000Y017851D01*
X017000Y017733D02*
X017600Y017733D01*
X017600Y017614D02*
X017119Y017614D01*
X017237Y017496D02*
X017600Y017496D01*
X017600Y017377D02*
X017356Y017377D01*
X017474Y017259D02*
X017600Y017259D01*
X017593Y017140D02*
X017600Y017140D01*
X017800Y017150D02*
X021640Y013310D01*
X022451Y013310D01*
X022451Y013054D02*
X022456Y013050D01*
X022900Y013050D01*
X023100Y012850D01*
X023100Y010850D01*
X021800Y009550D01*
X021422Y009556D02*
X020877Y009556D01*
X020995Y009438D02*
X021438Y009438D01*
X021497Y009319D02*
X021114Y009319D01*
X021232Y009201D02*
X021656Y009201D01*
X021443Y009675D02*
X020758Y009675D01*
X020640Y009793D02*
X021509Y009793D01*
X021686Y009912D02*
X020521Y009912D01*
X020403Y010030D02*
X021997Y010030D01*
X022116Y010149D02*
X020284Y010149D01*
X020166Y010267D02*
X022234Y010267D01*
X022353Y010386D02*
X020047Y010386D01*
X019929Y010504D02*
X022471Y010504D01*
X022590Y010623D02*
X019810Y010623D01*
X019692Y010741D02*
X022708Y010741D01*
X022827Y010860D02*
X019573Y010860D01*
X019455Y010978D02*
X022900Y010978D01*
X022900Y011097D02*
X019336Y011097D01*
X019218Y011215D02*
X022900Y011215D01*
X022900Y011334D02*
X019099Y011334D01*
X018981Y011452D02*
X021115Y011452D01*
X020997Y011571D02*
X018862Y011571D01*
X018744Y011689D02*
X020878Y011689D01*
X020760Y011808D02*
X018625Y011808D01*
X018507Y011926D02*
X020641Y011926D01*
X020523Y012045D02*
X018388Y012045D01*
X018270Y012163D02*
X020404Y012163D01*
X020286Y012282D02*
X018151Y012282D01*
X018033Y012400D02*
X020167Y012400D01*
X020049Y012519D02*
X017914Y012519D01*
X017796Y012637D02*
X019930Y012637D01*
X019812Y012756D02*
X017677Y012756D01*
X017559Y012874D02*
X019800Y012874D01*
X019800Y012993D02*
X017440Y012993D01*
X017322Y013111D02*
X019800Y013111D01*
X019800Y013230D02*
X017203Y013230D01*
X017085Y013348D02*
X019800Y013348D01*
X019800Y013467D02*
X016966Y013467D01*
X016848Y013585D02*
X019800Y013585D01*
X019800Y013704D02*
X016729Y013704D01*
X016611Y013822D02*
X019800Y013822D01*
X019800Y013941D02*
X016492Y013941D01*
X016374Y014059D02*
X019800Y014059D01*
X019800Y014178D02*
X016255Y014178D01*
X016137Y014296D02*
X019800Y014296D01*
X019753Y014415D02*
X016018Y014415D01*
X016000Y014533D02*
X019634Y014533D01*
X019516Y014652D02*
X016000Y014652D01*
X016000Y014770D02*
X019397Y014770D01*
X019279Y014889D02*
X016000Y014889D01*
X016000Y015007D02*
X019160Y015007D01*
X019042Y015126D02*
X016000Y015126D01*
X016000Y015244D02*
X018923Y015244D01*
X018805Y015363D02*
X016000Y015363D01*
X016000Y015481D02*
X018686Y015481D01*
X018568Y015600D02*
X016000Y015600D01*
X016000Y015718D02*
X018449Y015718D01*
X018331Y015837D02*
X016000Y015837D01*
X016000Y015955D02*
X018212Y015955D01*
X018094Y016074D02*
X016000Y016074D01*
X016000Y016192D02*
X017975Y016192D01*
X017857Y016311D02*
X016000Y016311D01*
X016000Y016429D02*
X017738Y016429D01*
X017620Y016548D02*
X016000Y016548D01*
X016000Y016666D02*
X017501Y016666D01*
X017383Y016785D02*
X016000Y016785D01*
X016000Y016903D02*
X017264Y016903D01*
X017146Y017022D02*
X016000Y017022D01*
X016000Y017140D02*
X017027Y017140D01*
X016909Y017259D02*
X016000Y017259D01*
X016000Y017377D02*
X016790Y017377D01*
X016672Y017496D02*
X016000Y017496D01*
X016000Y017614D02*
X016600Y017614D01*
X016600Y017733D02*
X016000Y017733D01*
X016000Y017851D02*
X016600Y017851D01*
X016600Y017970D02*
X016000Y017970D01*
X016000Y018088D02*
X016600Y018088D01*
X016600Y018207D02*
X016000Y018207D01*
X016000Y018325D02*
X016600Y018325D01*
X016600Y018444D02*
X016000Y018444D01*
X016000Y018562D02*
X016600Y018562D01*
X016600Y018681D02*
X016000Y018681D01*
X016000Y018799D02*
X016600Y018799D01*
X016600Y018918D02*
X016000Y018918D01*
X016000Y019036D02*
X016600Y019036D01*
X016600Y019155D02*
X016000Y019155D01*
X016000Y019273D02*
X016600Y019273D01*
X016600Y019392D02*
X016000Y019392D01*
X016000Y019510D02*
X016600Y019510D01*
X016600Y019629D02*
X016000Y019629D01*
X016000Y019747D02*
X016600Y019747D01*
X016514Y019866D02*
X016086Y019866D01*
X016196Y019984D02*
X016404Y019984D01*
X016355Y020103D02*
X016245Y020103D01*
X016260Y020221D02*
X016340Y020221D01*
X016340Y020340D02*
X016260Y020340D01*
X016260Y020458D02*
X016340Y020458D01*
X016800Y020550D02*
X016800Y017650D01*
X020000Y014450D01*
X020000Y012850D01*
X021300Y011550D01*
X022100Y011550D01*
X022450Y011900D01*
X022450Y012800D01*
X022451Y012798D01*
X022250Y012598D02*
X022250Y011983D01*
X022017Y011750D01*
X021383Y011750D01*
X020200Y012933D01*
X020200Y014467D01*
X021486Y013182D01*
X021463Y013159D01*
X021463Y012610D01*
X021510Y012563D01*
X021505Y012560D01*
X021475Y012530D01*
X021454Y012494D01*
X021443Y012453D01*
X021443Y012254D01*
X021762Y012254D01*
X021762Y012177D01*
X021838Y012177D01*
X021838Y011839D01*
X022018Y011839D01*
X022059Y011850D01*
X022095Y011871D01*
X022125Y011901D01*
X022146Y011937D01*
X022157Y011978D01*
X022157Y012177D01*
X021838Y012177D01*
X021838Y012254D01*
X022157Y012254D01*
X022157Y012453D01*
X022146Y012494D01*
X022125Y012530D01*
X022095Y012560D01*
X022090Y012563D01*
X022137Y012610D01*
X022137Y012660D01*
X022198Y012598D01*
X022250Y012598D01*
X022250Y012519D02*
X022132Y012519D01*
X022137Y012637D02*
X022160Y012637D01*
X022157Y012400D02*
X022250Y012400D01*
X022250Y012282D02*
X022157Y012282D01*
X022157Y012163D02*
X022250Y012163D01*
X022250Y012045D02*
X022157Y012045D01*
X022140Y011926D02*
X022193Y011926D01*
X022075Y011808D02*
X021325Y011808D01*
X021207Y011926D02*
X021460Y011926D01*
X021454Y011937D02*
X021475Y011901D01*
X021505Y011871D01*
X021541Y011850D01*
X021582Y011839D01*
X021762Y011839D01*
X021762Y012177D01*
X021443Y012177D01*
X021443Y011978D01*
X021454Y011937D01*
X021443Y012045D02*
X021088Y012045D01*
X020970Y012163D02*
X021443Y012163D01*
X021443Y012282D02*
X020851Y012282D01*
X020733Y012400D02*
X021443Y012400D01*
X021468Y012519D02*
X020614Y012519D01*
X020496Y012637D02*
X021463Y012637D01*
X021463Y012756D02*
X020377Y012756D01*
X020259Y012874D02*
X021463Y012874D01*
X021463Y012993D02*
X020200Y012993D01*
X020200Y013111D02*
X021463Y013111D01*
X021438Y013230D02*
X020200Y013230D01*
X020200Y013348D02*
X021319Y013348D01*
X021201Y013467D02*
X020200Y013467D01*
X020200Y013585D02*
X021082Y013585D01*
X020964Y013704D02*
X020200Y013704D01*
X020200Y013822D02*
X020845Y013822D01*
X020727Y013941D02*
X020200Y013941D01*
X020200Y014059D02*
X020608Y014059D01*
X020490Y014178D02*
X020200Y014178D01*
X020200Y014296D02*
X020371Y014296D01*
X020253Y014415D02*
X020200Y014415D01*
X020726Y015007D02*
X021200Y015007D01*
X021200Y014889D02*
X020844Y014889D01*
X020963Y014770D02*
X021200Y014770D01*
X021266Y014652D02*
X021081Y014652D01*
X021200Y014533D02*
X021384Y014533D01*
X021318Y014415D02*
X021503Y014415D01*
X021437Y014296D02*
X021621Y014296D01*
X021555Y014178D02*
X021740Y014178D01*
X021674Y014059D02*
X022116Y014059D01*
X022117Y013941D02*
X021792Y013941D01*
X021911Y013822D02*
X022116Y013822D01*
X022451Y013822D02*
X023578Y013822D01*
X024100Y014344D01*
X024100Y015850D01*
X024550Y016300D01*
X024700Y016300D01*
X025078Y016311D02*
X028856Y016311D01*
X028958Y016429D02*
X025055Y016429D01*
X024987Y016548D02*
X028268Y016548D01*
X028167Y016666D02*
X024804Y016666D01*
X024596Y016666D02*
X023950Y016666D01*
X023950Y016548D02*
X024413Y016548D01*
X024345Y016429D02*
X023950Y016429D01*
X023950Y016311D02*
X024278Y016311D01*
X024159Y016192D02*
X023950Y016192D01*
X023950Y016074D02*
X024041Y016074D01*
X024369Y015837D02*
X025504Y015837D01*
X025622Y015955D02*
X024854Y015955D01*
X025008Y016074D02*
X025741Y016074D01*
X025859Y016192D02*
X025064Y016192D01*
X024546Y015955D02*
X024488Y015955D01*
X024300Y015718D02*
X025385Y015718D01*
X025267Y015600D02*
X024300Y015600D01*
X024300Y015481D02*
X025200Y015481D01*
X025200Y015363D02*
X024300Y015363D01*
X024400Y015100D02*
X024350Y015050D01*
X024350Y014150D01*
X023650Y013450D01*
X023650Y011950D01*
X024300Y011300D01*
X027050Y011300D01*
X028000Y010350D01*
X028000Y008950D01*
X028000Y006950D01*
X027500Y006450D01*
X027900Y006050D01*
X029300Y006050D01*
X028831Y006250D02*
X027983Y006250D01*
X027872Y006361D01*
X027878Y006375D01*
X027878Y006525D01*
X027872Y006539D01*
X028200Y006867D01*
X028200Y010433D01*
X028083Y010550D01*
X027283Y011350D01*
X027317Y011350D01*
X028817Y009850D01*
X028831Y009850D01*
X028868Y009761D01*
X029011Y009618D01*
X029174Y009550D01*
X029011Y009482D01*
X028868Y009339D01*
X028790Y009151D01*
X028790Y008949D01*
X028868Y008761D01*
X029011Y008618D01*
X029152Y008559D01*
X029097Y008541D01*
X029022Y008503D01*
X028955Y008454D01*
X028896Y008395D01*
X028847Y008328D01*
X028809Y008253D01*
X028783Y008174D01*
X028770Y008092D01*
X028770Y008090D01*
X029260Y008090D01*
X029260Y008010D01*
X028770Y008010D01*
X028770Y008008D01*
X028783Y007926D01*
X028809Y007847D01*
X028847Y007772D01*
X028896Y007705D01*
X028955Y007646D01*
X029022Y007597D01*
X029097Y007559D01*
X029152Y007541D01*
X029011Y007482D01*
X028868Y007339D01*
X028790Y007151D01*
X028790Y006949D01*
X028200Y006949D01*
X028200Y007068D02*
X028790Y007068D01*
X028804Y007186D02*
X028200Y007186D01*
X028200Y007305D02*
X028853Y007305D01*
X028952Y007423D02*
X028200Y007423D01*
X028200Y007542D02*
X029150Y007542D01*
X028940Y007660D02*
X028200Y007660D01*
X028200Y007779D02*
X028843Y007779D01*
X028792Y007897D02*
X028200Y007897D01*
X028200Y008016D02*
X029260Y008016D01*
X029340Y008016D02*
X030260Y008016D01*
X030260Y008010D02*
X029340Y008010D01*
X029340Y008090D01*
X029770Y008090D01*
X030260Y008090D01*
X030260Y008540D01*
X030340Y008540D01*
X030340Y008090D01*
X030830Y008090D01*
X030830Y008092D01*
X030817Y008174D01*
X030791Y008253D01*
X030753Y008328D01*
X030704Y008395D01*
X030645Y008454D01*
X030578Y008503D01*
X030503Y008541D01*
X030448Y008559D01*
X030589Y008618D01*
X030732Y008761D01*
X030810Y008949D01*
X030810Y009151D01*
X030732Y009339D01*
X030589Y009482D01*
X030426Y009550D01*
X030589Y009618D01*
X030732Y009761D01*
X030810Y009949D01*
X030810Y010151D01*
X030732Y010339D01*
X030589Y010482D01*
X030426Y010550D01*
X030589Y010618D01*
X030732Y010761D01*
X030810Y010949D01*
X030810Y011151D01*
X030732Y011339D01*
X030589Y011482D01*
X030426Y011550D01*
X030589Y011618D01*
X030732Y011761D01*
X030810Y011949D01*
X030810Y012151D01*
X030732Y012339D01*
X030589Y012482D01*
X030426Y012550D01*
X030589Y012618D01*
X030732Y012761D01*
X030810Y012949D01*
X030810Y013151D01*
X030732Y013339D01*
X030589Y013482D01*
X030426Y013550D01*
X030589Y013618D01*
X030732Y013761D01*
X030810Y013949D01*
X030810Y014151D01*
X030732Y014339D01*
X030589Y014482D01*
X030426Y014550D01*
X034517Y014550D01*
X035217Y013850D01*
X035831Y013850D01*
X035868Y013761D01*
X036011Y013618D01*
X036174Y013550D01*
X036011Y013482D01*
X035868Y013339D01*
X035831Y013250D01*
X035017Y013250D01*
X034900Y013133D01*
X031100Y009333D01*
X031100Y004733D01*
X030817Y004450D01*
X029283Y004450D01*
X029189Y004544D01*
X029199Y004540D01*
X029401Y004540D01*
X029589Y004618D01*
X029732Y004761D01*
X029800Y004924D01*
X029868Y004761D01*
X030011Y004618D01*
X030199Y004540D01*
X030401Y004540D01*
X030589Y004618D01*
X030732Y004761D01*
X030810Y004949D01*
X030810Y005151D01*
X030732Y005339D01*
X030589Y005482D01*
X030426Y005550D01*
X030589Y005618D01*
X030732Y005761D01*
X030810Y005949D01*
X030810Y006151D01*
X030732Y006339D01*
X030589Y006482D01*
X030426Y006550D01*
X030589Y006618D01*
X030732Y006761D01*
X030810Y006949D01*
X031100Y006949D01*
X031100Y006831D02*
X030761Y006831D01*
X030810Y006949D02*
X030810Y007151D01*
X030732Y007339D01*
X030589Y007482D01*
X030448Y007541D01*
X030503Y007559D01*
X030578Y007597D01*
X030645Y007646D01*
X030704Y007705D01*
X030753Y007772D01*
X030791Y007847D01*
X030817Y007926D01*
X030830Y008008D01*
X030830Y008010D01*
X030340Y008010D01*
X030340Y008090D01*
X030260Y008090D01*
X030260Y008010D01*
X030260Y007560D01*
X030340Y007560D01*
X030340Y008010D01*
X030260Y008010D01*
X030340Y008016D02*
X031100Y008016D01*
X031100Y008134D02*
X030823Y008134D01*
X030791Y008253D02*
X031100Y008253D01*
X031100Y008371D02*
X030722Y008371D01*
X030597Y008490D02*
X031100Y008490D01*
X031100Y008608D02*
X030566Y008608D01*
X030698Y008727D02*
X031100Y008727D01*
X031100Y008845D02*
X030767Y008845D01*
X030810Y008964D02*
X031100Y008964D01*
X031100Y009082D02*
X030810Y009082D01*
X030790Y009201D02*
X031100Y009201D01*
X031100Y009319D02*
X030741Y009319D01*
X030634Y009438D02*
X031205Y009438D01*
X031323Y009556D02*
X030440Y009556D01*
X030646Y009675D02*
X031442Y009675D01*
X031560Y009793D02*
X030746Y009793D01*
X030795Y009912D02*
X031679Y009912D01*
X031797Y010030D02*
X030810Y010030D01*
X030810Y010149D02*
X031916Y010149D01*
X032034Y010267D02*
X030762Y010267D01*
X030686Y010386D02*
X032153Y010386D01*
X032271Y010504D02*
X030537Y010504D01*
X030594Y010623D02*
X032390Y010623D01*
X032508Y010741D02*
X030712Y010741D01*
X030773Y010860D02*
X032627Y010860D01*
X032745Y010978D02*
X030810Y010978D01*
X030810Y011097D02*
X032864Y011097D01*
X032982Y011215D02*
X030784Y011215D01*
X030735Y011334D02*
X033101Y011334D01*
X033219Y011452D02*
X030619Y011452D01*
X030475Y011571D02*
X033338Y011571D01*
X033456Y011689D02*
X030660Y011689D01*
X030752Y011808D02*
X033575Y011808D01*
X033693Y011926D02*
X030801Y011926D01*
X030810Y012045D02*
X033812Y012045D01*
X033930Y012163D02*
X030805Y012163D01*
X030756Y012282D02*
X034049Y012282D01*
X034167Y012400D02*
X030671Y012400D01*
X030502Y012519D02*
X034286Y012519D01*
X034404Y012637D02*
X030608Y012637D01*
X030727Y012756D02*
X034523Y012756D01*
X034641Y012874D02*
X030779Y012874D01*
X030810Y012993D02*
X034760Y012993D01*
X034878Y013111D02*
X030810Y013111D01*
X030778Y013230D02*
X034997Y013230D01*
X035100Y013050D02*
X036300Y013050D01*
X035995Y013467D02*
X030605Y013467D01*
X030510Y013585D02*
X036090Y013585D01*
X035925Y013704D02*
X030675Y013704D01*
X030758Y013822D02*
X035842Y013822D01*
X036300Y014050D02*
X035300Y014050D01*
X034500Y014850D01*
X034500Y016050D01*
X033500Y017050D01*
X028700Y017050D01*
X028500Y016850D01*
X028162Y017022D02*
X023950Y017022D01*
X023950Y017140D02*
X028256Y017140D01*
X028122Y016903D02*
X023950Y016903D01*
X023950Y016785D02*
X028122Y016785D01*
X028732Y016548D02*
X029168Y016548D01*
X029432Y016548D02*
X029872Y016548D01*
X029870Y016666D02*
X028833Y016666D01*
X028878Y016785D02*
X029869Y016785D01*
X029874Y016429D02*
X029642Y016429D01*
X029744Y016311D02*
X029856Y016311D01*
X029807Y016192D02*
X029793Y016192D01*
X029300Y016050D02*
X026000Y016050D01*
X025400Y015450D01*
X025400Y014850D01*
X025140Y014590D01*
X024749Y014590D01*
X025084Y014889D02*
X025156Y014889D01*
X025200Y015007D02*
X025084Y015007D01*
X025084Y015126D02*
X025200Y015126D01*
X025200Y015244D02*
X025059Y015244D01*
X024749Y015102D02*
X024747Y015100D01*
X024400Y015100D01*
X023750Y014950D02*
X022878Y014078D01*
X022451Y014078D01*
X022451Y014334D02*
X021866Y014334D01*
X021400Y014800D01*
X021400Y020550D01*
X021860Y020577D02*
X021940Y020577D01*
X021940Y020695D02*
X021860Y020695D01*
X021860Y020814D02*
X021940Y020814D01*
X021940Y020932D02*
X021860Y020932D01*
X021940Y020961D02*
X021940Y020138D01*
X022010Y019969D01*
X022139Y019840D01*
X022308Y019770D01*
X022491Y019770D01*
X022661Y019840D01*
X022790Y019969D01*
X022860Y020138D01*
X022860Y020961D01*
X022790Y021131D01*
X022661Y021260D01*
X022491Y021330D01*
X022308Y021330D01*
X022139Y021260D01*
X022010Y021131D01*
X021940Y020961D01*
X021977Y021051D02*
X021823Y021051D01*
X021751Y021169D02*
X022049Y021169D01*
X022206Y021288D02*
X021594Y021288D01*
X021206Y021288D02*
X020594Y021288D01*
X020661Y021260D02*
X020491Y021330D01*
X020308Y021330D01*
X020139Y021260D01*
X020010Y021131D01*
X019940Y020961D01*
X019940Y020138D01*
X020010Y019969D01*
X020139Y019840D01*
X020308Y019770D01*
X020491Y019770D01*
X020661Y019840D01*
X020790Y019969D01*
X020860Y020138D01*
X020860Y020961D01*
X020790Y021131D01*
X020661Y021260D01*
X020751Y021169D02*
X021049Y021169D01*
X020977Y021051D02*
X020823Y021051D01*
X020860Y020932D02*
X020940Y020932D01*
X020940Y020814D02*
X020860Y020814D01*
X020860Y020695D02*
X020940Y020695D01*
X020940Y020577D02*
X020860Y020577D01*
X020860Y020458D02*
X020940Y020458D01*
X020940Y020340D02*
X020860Y020340D01*
X020860Y020221D02*
X020940Y020221D01*
X020955Y020103D02*
X020845Y020103D01*
X020796Y019984D02*
X021004Y019984D01*
X021114Y019866D02*
X020686Y019866D01*
X020114Y019866D02*
X019686Y019866D01*
X019600Y019747D02*
X021200Y019747D01*
X021200Y019629D02*
X019600Y019629D01*
X019600Y019510D02*
X021200Y019510D01*
X021200Y019392D02*
X019600Y019392D01*
X019600Y019273D02*
X021200Y019273D01*
X021200Y019155D02*
X019600Y019155D01*
X019600Y019036D02*
X021200Y019036D01*
X021200Y018918D02*
X019600Y018918D01*
X019600Y018799D02*
X021200Y018799D01*
X021200Y018681D02*
X019600Y018681D01*
X019600Y018562D02*
X021200Y018562D01*
X021200Y018444D02*
X019600Y018444D01*
X019600Y018325D02*
X021200Y018325D01*
X021200Y018207D02*
X019600Y018207D01*
X019600Y018088D02*
X021200Y018088D01*
X021200Y017970D02*
X019600Y017970D01*
X019600Y017851D02*
X021200Y017851D01*
X021200Y017733D02*
X019600Y017733D01*
X019600Y017614D02*
X021200Y017614D01*
X021200Y017496D02*
X019600Y017496D01*
X019600Y017377D02*
X021200Y017377D01*
X021200Y017259D02*
X019600Y017259D01*
X019600Y017140D02*
X021200Y017140D01*
X021200Y017022D02*
X019600Y017022D01*
X019600Y016903D02*
X021200Y016903D01*
X021200Y016785D02*
X019600Y016785D01*
X019600Y016666D02*
X021200Y016666D01*
X021200Y016548D02*
X019600Y016548D01*
X019600Y016429D02*
X021200Y016429D01*
X021200Y016311D02*
X019600Y016311D01*
X019600Y016192D02*
X021200Y016192D01*
X021200Y016074D02*
X019659Y016074D01*
X019778Y015955D02*
X021200Y015955D01*
X021200Y015837D02*
X019896Y015837D01*
X020015Y015718D02*
X021200Y015718D01*
X021200Y015600D02*
X020133Y015600D01*
X020252Y015481D02*
X021200Y015481D01*
X021200Y015363D02*
X020370Y015363D01*
X020489Y015244D02*
X021200Y015244D01*
X021200Y015126D02*
X020607Y015126D01*
X021600Y015126D02*
X022096Y015126D01*
X022100Y015007D02*
X021600Y015007D01*
X021600Y014889D02*
X022116Y014889D01*
X022116Y014964D02*
X022116Y014964D01*
X022116Y014770D02*
X021713Y014770D01*
X021831Y014652D02*
X022116Y014652D01*
X022451Y014590D02*
X022940Y014590D01*
X023400Y015050D01*
X023400Y020550D01*
X023860Y020577D02*
X023940Y020577D01*
X023940Y020695D02*
X023860Y020695D01*
X023860Y020814D02*
X023940Y020814D01*
X023940Y020932D02*
X023860Y020932D01*
X023823Y021051D02*
X023977Y021051D01*
X024049Y021169D02*
X023751Y021169D01*
X023594Y021288D02*
X024206Y021288D01*
X024594Y021288D02*
X025206Y021288D01*
X025139Y021260D02*
X025010Y021131D01*
X024940Y020961D01*
X024940Y020138D01*
X025010Y019969D01*
X025139Y019840D01*
X025308Y019770D01*
X025491Y019770D01*
X025661Y019840D01*
X025790Y019969D01*
X025860Y020138D01*
X025860Y020961D01*
X025790Y021131D01*
X025661Y021260D01*
X025491Y021330D01*
X025308Y021330D01*
X025139Y021260D01*
X025049Y021169D02*
X024751Y021169D01*
X024823Y021051D02*
X024977Y021051D01*
X024940Y020932D02*
X024860Y020932D01*
X024860Y020814D02*
X024940Y020814D01*
X024940Y020695D02*
X024860Y020695D01*
X024860Y020577D02*
X024940Y020577D01*
X024940Y020458D02*
X024860Y020458D01*
X024860Y020340D02*
X024940Y020340D01*
X024940Y020221D02*
X024860Y020221D01*
X024845Y020103D02*
X024955Y020103D01*
X025004Y019984D02*
X024796Y019984D01*
X024686Y019866D02*
X025114Y019866D01*
X024600Y019747D02*
X027240Y019747D01*
X027240Y019629D02*
X024600Y019629D01*
X024543Y019510D02*
X027240Y019510D01*
X027240Y019392D02*
X024424Y019392D01*
X024306Y019273D02*
X027251Y019273D01*
X027334Y019190D02*
X027334Y019190D01*
X027369Y019155D02*
X024187Y019155D01*
X024069Y019036D02*
X027488Y019036D01*
X027606Y018918D02*
X023950Y018918D01*
X023950Y018799D02*
X027725Y018799D01*
X027843Y018681D02*
X023950Y018681D01*
X023950Y018562D02*
X027962Y018562D01*
X028080Y018444D02*
X023950Y018444D01*
X023950Y018325D02*
X028199Y018325D01*
X028317Y018207D02*
X023950Y018207D01*
X023950Y018088D02*
X029850Y018088D01*
X029852Y017970D02*
X023950Y017970D01*
X023950Y017851D02*
X029854Y017851D01*
X029855Y017733D02*
X023950Y017733D01*
X023950Y017614D02*
X029857Y017614D01*
X029859Y017496D02*
X023950Y017496D01*
X023950Y017377D02*
X029860Y017377D01*
X029862Y017259D02*
X023950Y017259D01*
X023200Y017259D02*
X021600Y017259D01*
X021600Y017377D02*
X023200Y017377D01*
X023200Y017496D02*
X021600Y017496D01*
X021600Y017614D02*
X023200Y017614D01*
X023200Y017733D02*
X021600Y017733D01*
X021600Y017851D02*
X023200Y017851D01*
X023200Y017970D02*
X021600Y017970D01*
X021600Y018088D02*
X023200Y018088D01*
X023200Y018207D02*
X021600Y018207D01*
X021600Y018325D02*
X023200Y018325D01*
X023200Y018444D02*
X021600Y018444D01*
X021600Y018562D02*
X023200Y018562D01*
X023200Y018681D02*
X021600Y018681D01*
X021600Y018799D02*
X023200Y018799D01*
X023200Y018918D02*
X021600Y018918D01*
X021600Y019036D02*
X023200Y019036D01*
X023200Y019155D02*
X021600Y019155D01*
X021600Y019273D02*
X023200Y019273D01*
X023200Y019392D02*
X021600Y019392D01*
X021600Y019510D02*
X023200Y019510D01*
X023200Y019629D02*
X021600Y019629D01*
X021600Y019747D02*
X023200Y019747D01*
X023114Y019866D02*
X022686Y019866D01*
X022796Y019984D02*
X023004Y019984D01*
X022955Y020103D02*
X022845Y020103D01*
X022860Y020221D02*
X022940Y020221D01*
X022940Y020340D02*
X022860Y020340D01*
X022860Y020458D02*
X022940Y020458D01*
X022940Y020577D02*
X022860Y020577D01*
X022860Y020695D02*
X022940Y020695D01*
X022940Y020814D02*
X022860Y020814D01*
X022860Y020932D02*
X022940Y020932D01*
X022977Y021051D02*
X022823Y021051D01*
X022751Y021169D02*
X023049Y021169D01*
X023206Y021288D02*
X022594Y021288D01*
X021940Y020458D02*
X021860Y020458D01*
X021860Y020340D02*
X021940Y020340D01*
X021940Y020221D02*
X021860Y020221D01*
X021845Y020103D02*
X021955Y020103D01*
X022004Y019984D02*
X021796Y019984D01*
X021686Y019866D02*
X022114Y019866D01*
X023600Y019747D02*
X024200Y019747D01*
X024114Y019866D02*
X023686Y019866D01*
X023796Y019984D02*
X024004Y019984D01*
X023955Y020103D02*
X023845Y020103D01*
X023860Y020221D02*
X023940Y020221D01*
X023940Y020340D02*
X023860Y020340D01*
X023860Y020458D02*
X023940Y020458D01*
X024400Y020550D02*
X024400Y019650D01*
X023750Y019000D01*
X023750Y014950D01*
X023193Y015126D02*
X022806Y015126D01*
X022806Y015102D02*
X022451Y015102D01*
X022451Y015102D01*
X022806Y015102D01*
X022803Y015007D02*
X023074Y015007D01*
X022956Y014889D02*
X022786Y014889D01*
X022786Y014964D02*
X022786Y014964D01*
X022783Y015244D02*
X023200Y015244D01*
X023200Y015363D02*
X021600Y015363D01*
X021600Y015481D02*
X023200Y015481D01*
X023200Y015600D02*
X021600Y015600D01*
X021600Y015718D02*
X023200Y015718D01*
X023200Y015837D02*
X021600Y015837D01*
X021600Y015955D02*
X023200Y015955D01*
X023200Y016074D02*
X021600Y016074D01*
X021600Y016192D02*
X023200Y016192D01*
X023200Y016311D02*
X021600Y016311D01*
X021600Y016429D02*
X023200Y016429D01*
X023200Y016548D02*
X021600Y016548D01*
X021600Y016666D02*
X023200Y016666D01*
X023200Y016785D02*
X021600Y016785D01*
X021600Y016903D02*
X023200Y016903D01*
X023200Y017022D02*
X021600Y017022D01*
X021600Y017140D02*
X023200Y017140D01*
X025700Y015250D02*
X026100Y015650D01*
X028300Y015650D01*
X028900Y015050D01*
X029300Y015050D01*
X030467Y014533D02*
X034534Y014533D01*
X034653Y014415D02*
X030657Y014415D01*
X030750Y014296D02*
X034771Y014296D01*
X034890Y014178D02*
X030799Y014178D01*
X030810Y014059D02*
X035008Y014059D01*
X035127Y013941D02*
X030807Y013941D01*
X030723Y013348D02*
X035877Y013348D01*
X035100Y013050D02*
X031300Y009250D01*
X031300Y004650D01*
X030900Y004250D01*
X029200Y004250D01*
X028000Y005450D01*
X027300Y005450D01*
X027000Y005750D01*
X027000Y007450D01*
X026216Y008234D01*
X024749Y008234D01*
X024749Y008490D02*
X027440Y008490D01*
X027500Y008550D01*
X027152Y009002D02*
X027300Y009150D01*
X027800Y009150D01*
X028000Y008950D01*
X028200Y008964D02*
X028790Y008964D01*
X028790Y009082D02*
X028200Y009082D01*
X028200Y009201D02*
X028810Y009201D01*
X028859Y009319D02*
X028200Y009319D01*
X028200Y009438D02*
X028966Y009438D01*
X029160Y009556D02*
X028200Y009556D01*
X028200Y009675D02*
X028954Y009675D01*
X028854Y009793D02*
X028200Y009793D01*
X028200Y009912D02*
X028756Y009912D01*
X028637Y010030D02*
X028200Y010030D01*
X028200Y010149D02*
X028519Y010149D01*
X028400Y010267D02*
X028200Y010267D01*
X028200Y010386D02*
X028282Y010386D01*
X028163Y010504D02*
X028129Y010504D01*
X028045Y010623D02*
X028010Y010623D01*
X027926Y010741D02*
X027892Y010741D01*
X027808Y010860D02*
X027773Y010860D01*
X027689Y010978D02*
X027655Y010978D01*
X027571Y011097D02*
X027536Y011097D01*
X027452Y011215D02*
X027418Y011215D01*
X027334Y011334D02*
X027299Y011334D01*
X027400Y011550D02*
X028900Y010050D01*
X029300Y010050D01*
X028914Y010386D02*
X028847Y010386D01*
X028881Y010352D02*
X027483Y011750D01*
X025283Y011750D01*
X025194Y011839D01*
X025362Y011839D01*
X025362Y012177D01*
X025438Y012177D01*
X025438Y011839D01*
X025618Y011839D01*
X025659Y011850D01*
X025695Y011871D01*
X025725Y011901D01*
X025746Y011937D01*
X025757Y011978D01*
X025757Y012177D01*
X025438Y012177D01*
X025438Y012254D01*
X025757Y012254D01*
X025757Y012453D01*
X025746Y012494D01*
X025725Y012530D01*
X025695Y012560D01*
X025690Y012563D01*
X025737Y012610D01*
X025737Y012930D01*
X026100Y012567D01*
X026217Y012450D01*
X027917Y012450D01*
X028400Y011967D01*
X028400Y011533D01*
X028400Y011367D01*
X028700Y011067D01*
X028790Y010977D01*
X028790Y010949D01*
X028868Y010761D01*
X029011Y010618D01*
X029174Y010550D01*
X029011Y010482D01*
X028881Y010352D01*
X028729Y010504D02*
X029063Y010504D01*
X029006Y010623D02*
X028610Y010623D01*
X028492Y010741D02*
X028888Y010741D01*
X028827Y010860D02*
X028373Y010860D01*
X028255Y010978D02*
X028789Y010978D01*
X028671Y011097D02*
X028136Y011097D01*
X028018Y011215D02*
X028552Y011215D01*
X028434Y011334D02*
X027899Y011334D01*
X027781Y011452D02*
X028400Y011452D01*
X028400Y011571D02*
X027662Y011571D01*
X027544Y011689D02*
X028400Y011689D01*
X028400Y011808D02*
X025225Y011808D01*
X025362Y011926D02*
X025438Y011926D01*
X025438Y012045D02*
X025362Y012045D01*
X025362Y012163D02*
X025438Y012163D01*
X025362Y012177D02*
X025043Y012177D01*
X025043Y011990D01*
X024949Y012084D01*
X024949Y012598D01*
X025002Y012598D01*
X025063Y012660D01*
X025063Y012610D01*
X025110Y012563D01*
X025105Y012560D01*
X025075Y012530D01*
X025054Y012494D01*
X025043Y012453D01*
X025043Y012254D01*
X025362Y012254D01*
X025362Y012177D01*
X025043Y012163D02*
X024949Y012163D01*
X024949Y012282D02*
X025043Y012282D01*
X025043Y012400D02*
X024949Y012400D01*
X024949Y012519D02*
X025068Y012519D01*
X025063Y012637D02*
X025040Y012637D01*
X024749Y012798D02*
X024749Y012001D01*
X025200Y011550D01*
X027400Y011550D01*
X026971Y011097D02*
X023300Y011097D01*
X023300Y011215D02*
X024102Y011215D01*
X023984Y011334D02*
X023300Y011334D01*
X023300Y011452D02*
X023865Y011452D01*
X023747Y011571D02*
X023300Y011571D01*
X023300Y011689D02*
X023628Y011689D01*
X023510Y011808D02*
X023300Y011808D01*
X023300Y011926D02*
X023450Y011926D01*
X023450Y012045D02*
X023300Y012045D01*
X023300Y012163D02*
X023450Y012163D01*
X023450Y012282D02*
X023300Y012282D01*
X023300Y012400D02*
X023450Y012400D01*
X023450Y012519D02*
X023300Y012519D01*
X023300Y012637D02*
X023450Y012637D01*
X023450Y012756D02*
X023300Y012756D01*
X023300Y012874D02*
X023450Y012874D01*
X023450Y012993D02*
X023240Y012993D01*
X023122Y013111D02*
X023450Y013111D01*
X023450Y013230D02*
X023003Y013230D01*
X022786Y013348D02*
X023450Y013348D01*
X023450Y013467D02*
X022786Y013467D01*
X022786Y013585D02*
X023502Y013585D01*
X024100Y012750D02*
X024400Y013050D01*
X024744Y013050D01*
X024749Y013054D01*
X025230Y013054D01*
X025400Y012885D01*
X025737Y012874D02*
X025793Y012874D01*
X025737Y012756D02*
X025912Y012756D01*
X026030Y012637D02*
X025737Y012637D01*
X025732Y012519D02*
X026149Y012519D01*
X026300Y012650D02*
X028000Y012650D01*
X028600Y012050D01*
X028600Y011450D01*
X028900Y011150D01*
X029200Y011150D01*
X029300Y011050D01*
X028400Y011926D02*
X025740Y011926D01*
X025757Y012045D02*
X028323Y012045D01*
X028204Y012163D02*
X025757Y012163D01*
X025757Y012282D02*
X028086Y012282D01*
X027967Y012400D02*
X025757Y012400D01*
X026300Y012650D02*
X025640Y013310D01*
X024749Y013310D01*
X024749Y013566D02*
X025784Y013566D01*
X026400Y012950D01*
X028400Y012950D01*
X029300Y012050D01*
X029300Y013050D02*
X029100Y013250D01*
X026500Y013250D01*
X025928Y013822D01*
X024749Y013822D01*
X024749Y014078D02*
X026272Y014078D01*
X026800Y013550D01*
X028500Y013550D01*
X029000Y014050D01*
X029300Y014050D01*
X025700Y014650D02*
X025700Y015250D01*
X025700Y014650D02*
X025384Y014334D01*
X024749Y014334D01*
X022451Y013566D02*
X021884Y013566D01*
X019400Y016050D01*
X019400Y020550D01*
X019860Y020577D02*
X019940Y020577D01*
X019940Y020695D02*
X019860Y020695D01*
X019860Y020814D02*
X019940Y020814D01*
X019940Y020932D02*
X019860Y020932D01*
X019823Y021051D02*
X019977Y021051D01*
X020049Y021169D02*
X019751Y021169D01*
X019594Y021288D02*
X020206Y021288D01*
X019206Y021288D02*
X017994Y021288D01*
X018151Y021169D02*
X019049Y021169D01*
X018977Y021051D02*
X018223Y021051D01*
X018260Y020932D02*
X018940Y020932D01*
X018940Y020814D02*
X018260Y020814D01*
X018260Y020695D02*
X018940Y020695D01*
X018940Y020577D02*
X018260Y020577D01*
X018260Y020458D02*
X018940Y020458D01*
X018940Y020340D02*
X018260Y020340D01*
X018260Y020221D02*
X018940Y020221D01*
X018955Y020103D02*
X018245Y020103D01*
X018196Y019984D02*
X019004Y019984D01*
X019114Y019866D02*
X018086Y019866D01*
X018000Y019747D02*
X019200Y019747D01*
X019200Y019629D02*
X018000Y019629D01*
X018000Y019510D02*
X019200Y019510D01*
X019200Y019392D02*
X018000Y019392D01*
X018000Y019273D02*
X019200Y019273D01*
X019200Y019155D02*
X018000Y019155D01*
X018000Y019036D02*
X019200Y019036D01*
X019200Y018918D02*
X018000Y018918D01*
X018000Y018799D02*
X019200Y018799D01*
X019200Y018681D02*
X018000Y018681D01*
X018000Y018562D02*
X019200Y018562D01*
X019200Y018444D02*
X018000Y018444D01*
X018000Y018325D02*
X019200Y018325D01*
X019200Y018207D02*
X018000Y018207D01*
X018000Y018088D02*
X019200Y018088D01*
X019200Y017970D02*
X018000Y017970D01*
X018000Y017851D02*
X019200Y017851D01*
X019200Y017733D02*
X018000Y017733D01*
X018000Y017614D02*
X019200Y017614D01*
X019200Y017496D02*
X018000Y017496D01*
X018000Y017377D02*
X019200Y017377D01*
X019200Y017259D02*
X018000Y017259D01*
X018093Y017140D02*
X019200Y017140D01*
X019200Y017022D02*
X018211Y017022D01*
X018330Y016903D02*
X019200Y016903D01*
X019200Y016785D02*
X018448Y016785D01*
X018567Y016666D02*
X019200Y016666D01*
X019200Y016548D02*
X018685Y016548D01*
X018804Y016429D02*
X019200Y016429D01*
X019200Y016311D02*
X018922Y016311D01*
X019041Y016192D02*
X019200Y016192D01*
X019200Y016074D02*
X019159Y016074D01*
X017800Y017150D02*
X017800Y020550D01*
X019860Y020458D02*
X019940Y020458D01*
X019940Y020340D02*
X019860Y020340D01*
X019860Y020221D02*
X019940Y020221D01*
X019955Y020103D02*
X019845Y020103D01*
X019796Y019984D02*
X020004Y019984D01*
X023600Y019629D02*
X024096Y019629D01*
X023977Y019510D02*
X023600Y019510D01*
X023600Y019392D02*
X023859Y019392D01*
X023740Y019273D02*
X023600Y019273D01*
X023600Y019155D02*
X023622Y019155D01*
X025686Y019866D02*
X026114Y019866D01*
X026139Y019840D02*
X026308Y019770D01*
X026491Y019770D01*
X026661Y019840D01*
X026790Y019969D01*
X026860Y020138D01*
X026860Y020961D01*
X026790Y021131D01*
X026661Y021260D01*
X026491Y021330D01*
X026308Y021330D01*
X026139Y021260D01*
X026010Y021131D01*
X025940Y020961D01*
X025940Y020138D01*
X026010Y019969D01*
X026139Y019840D01*
X026004Y019984D02*
X025796Y019984D01*
X025845Y020103D02*
X025955Y020103D01*
X025940Y020221D02*
X025860Y020221D01*
X025860Y020340D02*
X025940Y020340D01*
X025940Y020458D02*
X025860Y020458D01*
X025860Y020577D02*
X025940Y020577D01*
X025940Y020695D02*
X025860Y020695D01*
X025860Y020814D02*
X025940Y020814D01*
X025940Y020932D02*
X025860Y020932D01*
X025823Y021051D02*
X025977Y021051D01*
X026049Y021169D02*
X025751Y021169D01*
X025594Y021288D02*
X026206Y021288D01*
X026594Y021288D02*
X026836Y021288D01*
X026751Y021169D02*
X026955Y021169D01*
X027073Y021051D02*
X026823Y021051D01*
X026860Y020932D02*
X027192Y020932D01*
X027240Y020814D02*
X026860Y020814D01*
X026860Y020695D02*
X027240Y020695D01*
X027240Y020577D02*
X026860Y020577D01*
X026860Y020458D02*
X027240Y020458D01*
X027240Y020340D02*
X026860Y020340D01*
X026860Y020221D02*
X027240Y020221D01*
X027240Y020103D02*
X026845Y020103D01*
X026796Y019984D02*
X027240Y019984D01*
X027240Y019866D02*
X026686Y019866D01*
X022451Y015244D02*
X022451Y015244D01*
X022451Y015126D02*
X022451Y015126D01*
X022119Y015244D02*
X021600Y015244D01*
X021970Y013054D02*
X021800Y012885D01*
X021970Y013054D02*
X022451Y013054D01*
X022786Y012756D02*
X022900Y012756D01*
X022900Y012637D02*
X022743Y012637D01*
X022650Y012519D02*
X022900Y012519D01*
X022900Y012400D02*
X022650Y012400D01*
X022650Y012282D02*
X022900Y012282D01*
X022900Y012163D02*
X022650Y012163D01*
X022650Y012045D02*
X022900Y012045D01*
X022900Y011926D02*
X022650Y011926D01*
X022640Y011808D02*
X022900Y011808D01*
X022900Y011689D02*
X022522Y011689D01*
X022403Y011571D02*
X022900Y011571D01*
X022900Y011452D02*
X022285Y011452D01*
X021838Y011926D02*
X021762Y011926D01*
X021762Y012045D02*
X021838Y012045D01*
X021838Y012163D02*
X021762Y012163D01*
X023300Y010978D02*
X027089Y010978D01*
X027208Y010860D02*
X023300Y010860D01*
X024300Y010050D02*
X023650Y009400D01*
X023650Y007450D01*
X023410Y007210D01*
X022451Y007210D01*
X023550Y007068D02*
X024050Y007068D01*
X023950Y007186D02*
X023669Y007186D01*
X023787Y007305D02*
X023950Y007305D01*
X023950Y007423D02*
X023850Y007423D01*
X023850Y007542D02*
X023950Y007542D01*
X023950Y007660D02*
X023850Y007660D01*
X023850Y007779D02*
X023950Y007779D01*
X023950Y007897D02*
X023850Y007897D01*
X023850Y008016D02*
X023950Y008016D01*
X023950Y008134D02*
X023850Y008134D01*
X023850Y008253D02*
X023950Y008253D01*
X023950Y008371D02*
X023850Y008371D01*
X023850Y008490D02*
X023950Y008490D01*
X023950Y008608D02*
X023850Y008608D01*
X023850Y008727D02*
X023950Y008727D01*
X023950Y008845D02*
X023850Y008845D01*
X023850Y008964D02*
X023950Y008964D01*
X023950Y009082D02*
X023850Y009082D01*
X023850Y009201D02*
X023950Y009201D01*
X023950Y009319D02*
X023852Y009319D01*
X024150Y009350D02*
X024300Y009500D01*
X024850Y009500D01*
X024950Y009600D01*
X025206Y009850D02*
X026083Y009850D01*
X026311Y010078D01*
X026325Y010072D01*
X026475Y010072D01*
X026614Y010130D01*
X026720Y010236D01*
X026633Y010149D02*
X027800Y010149D01*
X027800Y010267D02*
X027800Y009350D01*
X027217Y009350D01*
X027100Y009233D01*
X027069Y009202D01*
X024496Y009202D01*
X024414Y009120D01*
X024414Y008884D01*
X024424Y008874D01*
X024414Y008864D01*
X024414Y008628D01*
X024424Y008618D01*
X024414Y008608D01*
X024350Y008608D01*
X024414Y008608D02*
X024414Y008372D01*
X024424Y008362D01*
X024414Y008352D01*
X024414Y008116D01*
X024424Y008106D01*
X024414Y008096D01*
X024414Y007860D01*
X024424Y007850D01*
X024414Y007840D01*
X024414Y007604D01*
X024424Y007594D01*
X024414Y007584D01*
X024414Y007348D01*
X024424Y007338D01*
X024414Y007328D01*
X024414Y007269D01*
X024350Y007333D01*
X024350Y009267D01*
X024383Y009300D01*
X024744Y009300D01*
X024747Y009296D01*
X024879Y009242D01*
X025021Y009242D01*
X025153Y009296D01*
X025254Y009397D01*
X025308Y009529D01*
X025308Y009671D01*
X025254Y009803D01*
X025206Y009850D01*
X025258Y009793D02*
X027800Y009793D01*
X027800Y009675D02*
X025307Y009675D01*
X025308Y009556D02*
X027800Y009556D01*
X027800Y009438D02*
X025270Y009438D01*
X025175Y009319D02*
X027186Y009319D01*
X027152Y009002D02*
X024749Y009002D01*
X024495Y009201D02*
X024350Y009201D01*
X024350Y009082D02*
X024414Y009082D01*
X024414Y008964D02*
X024350Y008964D01*
X024350Y008845D02*
X024414Y008845D01*
X024414Y008727D02*
X024350Y008727D01*
X024350Y008490D02*
X024414Y008490D01*
X024414Y008371D02*
X024350Y008371D01*
X024350Y008253D02*
X024414Y008253D01*
X024414Y008134D02*
X024350Y008134D01*
X024350Y008016D02*
X024414Y008016D01*
X024414Y007897D02*
X024350Y007897D01*
X024350Y007779D02*
X024414Y007779D01*
X024414Y007660D02*
X024350Y007660D01*
X024350Y007542D02*
X024414Y007542D01*
X024414Y007423D02*
X024350Y007423D01*
X024378Y007305D02*
X024414Y007305D01*
X024150Y007250D02*
X024150Y009350D01*
X023642Y009675D02*
X023609Y009675D01*
X023150Y009201D02*
X022726Y009201D01*
X022806Y009082D02*
X023150Y009082D01*
X023150Y008964D02*
X022806Y008964D01*
X022806Y009002D02*
X022451Y009002D01*
X022806Y009002D01*
X022786Y008864D02*
X022786Y008864D01*
X022786Y008845D02*
X023150Y008845D01*
X023150Y008727D02*
X022786Y008727D01*
X022451Y009002D02*
X022451Y009002D01*
X022451Y009082D02*
X022451Y009082D01*
X022451Y009201D02*
X022451Y009201D01*
X021378Y008490D02*
X019445Y008490D01*
X019273Y008608D02*
X021259Y008608D01*
X020428Y007978D02*
X020200Y007750D01*
X020428Y007978D02*
X022451Y007978D01*
X022451Y008234D02*
X019166Y008234D01*
X019150Y008250D01*
X019450Y008016D02*
X019931Y008016D01*
X019852Y007897D02*
X019285Y007897D01*
X019350Y007050D02*
X020300Y007050D01*
X020972Y007722D01*
X019350Y007050D02*
X014800Y011600D01*
X014800Y020550D01*
X015260Y020577D02*
X015340Y020577D01*
X015340Y020695D02*
X015260Y020695D01*
X015260Y020814D02*
X015340Y020814D01*
X015340Y020932D02*
X015260Y020932D01*
X015223Y021051D02*
X015377Y021051D01*
X015449Y021169D02*
X015151Y021169D01*
X014994Y021288D02*
X015606Y021288D01*
X014606Y021288D02*
X013994Y021288D01*
X014151Y021169D02*
X014449Y021169D01*
X014377Y021051D02*
X014223Y021051D01*
X014260Y020932D02*
X014340Y020932D01*
X014340Y020814D02*
X014260Y020814D01*
X014260Y020695D02*
X014340Y020695D01*
X014340Y020577D02*
X014260Y020577D01*
X014260Y020458D02*
X014340Y020458D01*
X014340Y020340D02*
X014260Y020340D01*
X014260Y020221D02*
X014340Y020221D01*
X014355Y020103D02*
X014245Y020103D01*
X014196Y019984D02*
X014404Y019984D01*
X015000Y019747D02*
X015600Y019747D01*
X015600Y019629D02*
X015000Y019629D01*
X015000Y019510D02*
X015600Y019510D01*
X015600Y019392D02*
X015000Y019392D01*
X015000Y019273D02*
X015600Y019273D01*
X015600Y019155D02*
X015000Y019155D01*
X015000Y019036D02*
X015600Y019036D01*
X015600Y018918D02*
X015000Y018918D01*
X015000Y018799D02*
X015600Y018799D01*
X015600Y018681D02*
X015000Y018681D01*
X015000Y018562D02*
X015600Y018562D01*
X015600Y018444D02*
X015000Y018444D01*
X015000Y018325D02*
X015600Y018325D01*
X015600Y018207D02*
X015000Y018207D01*
X015000Y018088D02*
X015600Y018088D01*
X015600Y017970D02*
X015000Y017970D01*
X015000Y017851D02*
X015600Y017851D01*
X015600Y017733D02*
X015000Y017733D01*
X015000Y017614D02*
X015600Y017614D01*
X015600Y017496D02*
X015000Y017496D01*
X015000Y017377D02*
X015600Y017377D01*
X015600Y017259D02*
X015000Y017259D01*
X015000Y017140D02*
X015600Y017140D01*
X015600Y017022D02*
X015000Y017022D01*
X014600Y017970D02*
X006736Y017970D01*
X006736Y018088D02*
X014600Y018088D01*
X014600Y018207D02*
X006736Y018207D01*
X006736Y018325D02*
X014600Y018325D01*
X014600Y018444D02*
X006726Y018444D01*
X006360Y018444D02*
X006240Y018444D01*
X006240Y018325D02*
X006360Y018325D01*
X006360Y018207D02*
X006240Y018207D01*
X006240Y018088D02*
X006360Y018088D01*
X006360Y017733D02*
X006240Y017733D01*
X003160Y017614D02*
X003040Y017614D01*
X003040Y017496D02*
X003160Y017496D01*
X003160Y017377D02*
X003040Y017377D01*
X003040Y017259D02*
X003160Y017259D01*
X003160Y017140D02*
X003040Y017140D01*
X006716Y015481D02*
X007017Y015481D01*
X007136Y015363D02*
X006716Y015363D01*
X006703Y015244D02*
X007254Y015244D01*
X007751Y010504D02*
X007828Y010504D01*
X007828Y010386D02*
X007751Y010386D01*
X007751Y010149D02*
X007828Y010149D01*
X007828Y010030D02*
X007751Y010030D01*
X007751Y009912D02*
X007828Y009912D01*
X008175Y009912D02*
X008910Y009912D01*
X008910Y010030D02*
X008264Y010030D01*
X008265Y010149D02*
X008910Y010149D01*
X003491Y007068D02*
X003414Y007068D01*
X003322Y007068D02*
X001560Y007068D01*
X001560Y006949D02*
X003091Y006949D01*
X002988Y006831D02*
X001560Y006831D01*
X001560Y006712D02*
X002930Y006712D01*
X002903Y006594D02*
X001560Y006594D01*
X001560Y006475D02*
X002899Y006475D01*
X002899Y006357D02*
X001560Y006357D01*
X003414Y006357D02*
X003491Y006357D01*
X003491Y006475D02*
X003414Y006475D01*
X003414Y006594D02*
X003491Y006594D01*
X003491Y006712D02*
X003414Y006712D01*
X003414Y006831D02*
X003491Y006831D01*
X003491Y006949D02*
X003414Y006949D01*
X003414Y006238D02*
X003491Y006238D01*
X003491Y006001D02*
X003414Y006001D01*
X003414Y005883D02*
X003491Y005883D01*
X003491Y005764D02*
X003414Y005764D01*
X003414Y005646D02*
X003491Y005646D01*
X003491Y005527D02*
X003414Y005527D01*
X003414Y005409D02*
X003491Y005409D01*
X003491Y005290D02*
X003414Y005290D01*
X003775Y005290D02*
X005518Y005290D01*
X005469Y005409D02*
X003896Y005409D01*
X003965Y005527D02*
X005444Y005527D01*
X005399Y005646D02*
X003998Y005646D01*
X004006Y005764D02*
X005399Y005764D01*
X005399Y005883D02*
X004006Y005883D01*
X004006Y006001D02*
X005399Y006001D01*
X019740Y002209D02*
X021088Y002209D01*
X020993Y002091D02*
X019807Y002091D01*
X019856Y001972D02*
X020944Y001972D01*
X020940Y001854D02*
X019860Y001854D01*
X019860Y001735D02*
X020940Y001735D01*
X020940Y001617D02*
X019860Y001617D01*
X019860Y001498D02*
X020940Y001498D01*
X020940Y001380D02*
X019860Y001380D01*
X019860Y001261D02*
X020940Y001261D01*
X020940Y001143D02*
X019860Y001143D01*
X019813Y001024D02*
X020987Y001024D01*
X021074Y000906D02*
X019726Y000906D01*
X021726Y000906D02*
X022074Y000906D01*
X021987Y001024D02*
X021813Y001024D01*
X021860Y001143D02*
X021940Y001143D01*
X021940Y001261D02*
X021860Y001261D01*
X021860Y001380D02*
X021940Y001380D01*
X021940Y001498D02*
X021860Y001498D01*
X021860Y001617D02*
X021940Y001617D01*
X021940Y001735D02*
X021860Y001735D01*
X021860Y001854D02*
X021940Y001854D01*
X021944Y001972D02*
X021856Y001972D01*
X021807Y002091D02*
X021993Y002091D01*
X022088Y002209D02*
X021712Y002209D01*
X022712Y002209D02*
X023088Y002209D01*
X022993Y002091D02*
X022807Y002091D01*
X022856Y001972D02*
X022944Y001972D01*
X022940Y001854D02*
X022860Y001854D01*
X022860Y001735D02*
X022940Y001735D01*
X022940Y001617D02*
X022860Y001617D01*
X022860Y001498D02*
X022940Y001498D01*
X022940Y001380D02*
X022860Y001380D01*
X022860Y001261D02*
X022940Y001261D01*
X022940Y001143D02*
X022860Y001143D01*
X022813Y001024D02*
X022987Y001024D01*
X023074Y000906D02*
X022726Y000906D01*
X023726Y000906D02*
X024074Y000906D01*
X023987Y001024D02*
X023813Y001024D01*
X023860Y001143D02*
X023940Y001143D01*
X023940Y001261D02*
X023860Y001261D01*
X023860Y001380D02*
X023940Y001380D01*
X023940Y001498D02*
X023860Y001498D01*
X023860Y001617D02*
X023940Y001617D01*
X023940Y001735D02*
X023860Y001735D01*
X023860Y001854D02*
X023940Y001854D01*
X023944Y001972D02*
X023856Y001972D01*
X023807Y002091D02*
X023993Y002091D01*
X024088Y002209D02*
X023712Y002209D01*
X024712Y002209D02*
X025088Y002209D01*
X024993Y002091D02*
X024807Y002091D01*
X024856Y001972D02*
X024944Y001972D01*
X024940Y001854D02*
X024860Y001854D01*
X024860Y001735D02*
X024940Y001735D01*
X024940Y001617D02*
X024860Y001617D01*
X024860Y001498D02*
X024940Y001498D01*
X024940Y001380D02*
X024860Y001380D01*
X024860Y001261D02*
X024940Y001261D01*
X024940Y001143D02*
X024860Y001143D01*
X024813Y001024D02*
X024987Y001024D01*
X025074Y000906D02*
X024726Y000906D01*
X026533Y000787D02*
X027411Y000787D01*
X027529Y000906D02*
X026726Y000906D01*
X026813Y001024D02*
X027648Y001024D01*
X027766Y001143D02*
X026860Y001143D01*
X026860Y001261D02*
X027885Y001261D01*
X028003Y001380D02*
X026860Y001380D01*
X026860Y001498D02*
X028122Y001498D01*
X028240Y001616D02*
X028240Y001616D01*
X028240Y001617D02*
X026860Y001617D01*
X026860Y001735D02*
X037259Y001735D01*
X037377Y001854D02*
X026860Y001854D01*
X026856Y001972D02*
X037496Y001972D01*
X037614Y002091D02*
X028923Y002091D01*
X029042Y002209D02*
X037733Y002209D01*
X037851Y002328D02*
X029160Y002328D01*
X029279Y002446D02*
X037970Y002446D01*
X038088Y002565D02*
X031897Y002565D01*
X032016Y002683D02*
X038140Y002683D01*
X038140Y002802D02*
X032134Y002802D01*
X032253Y002920D02*
X038140Y002920D01*
X038140Y003039D02*
X032371Y003039D01*
X032490Y003157D02*
X038140Y003157D01*
X038140Y003276D02*
X032608Y003276D01*
X032727Y003394D02*
X038140Y003394D01*
X038140Y003513D02*
X032845Y003513D01*
X032964Y003631D02*
X038140Y003631D01*
X038140Y003750D02*
X033082Y003750D01*
X033201Y003868D02*
X038140Y003868D01*
X038140Y003987D02*
X033300Y003987D01*
X033300Y004105D02*
X038140Y004105D01*
X038140Y004224D02*
X033300Y004224D01*
X033300Y004342D02*
X038140Y004342D01*
X038140Y004461D02*
X033300Y004461D01*
X033300Y004579D02*
X033478Y004579D01*
X033317Y004698D02*
X033300Y004698D01*
X033922Y004579D02*
X036104Y004579D01*
X035931Y004698D02*
X034083Y004698D01*
X034095Y005390D02*
X033995Y005491D01*
X033803Y005570D01*
X033597Y005570D01*
X033405Y005491D01*
X033300Y005385D01*
X033300Y006567D01*
X033583Y006850D01*
X035831Y006850D01*
X035868Y006761D01*
X036011Y006618D01*
X036152Y006559D01*
X036097Y006541D01*
X036022Y006503D01*
X035955Y006454D01*
X035896Y006395D01*
X035847Y006328D01*
X035809Y006253D01*
X035783Y006174D01*
X035770Y006092D01*
X035770Y006090D01*
X036260Y006090D01*
X036260Y006010D01*
X035770Y006010D01*
X035770Y006008D01*
X035783Y005926D01*
X035809Y005847D01*
X035847Y005772D01*
X035896Y005705D01*
X035955Y005646D01*
X036022Y005597D01*
X036097Y005559D01*
X036152Y005541D01*
X036011Y005482D01*
X035919Y005390D01*
X034095Y005390D01*
X034077Y005409D02*
X035937Y005409D01*
X036119Y005527D02*
X033907Y005527D01*
X033493Y005527D02*
X033300Y005527D01*
X033300Y005409D02*
X033323Y005409D01*
X033300Y005646D02*
X035955Y005646D01*
X035853Y005764D02*
X033300Y005764D01*
X033300Y005883D02*
X035797Y005883D01*
X035771Y006001D02*
X033300Y006001D01*
X033300Y006120D02*
X035774Y006120D01*
X035804Y006238D02*
X033300Y006238D01*
X033300Y006357D02*
X035868Y006357D01*
X035983Y006475D02*
X033300Y006475D01*
X033326Y006594D02*
X036069Y006594D01*
X035917Y006712D02*
X033445Y006712D01*
X033563Y006831D02*
X035839Y006831D01*
X036300Y007050D02*
X033500Y007050D01*
X033100Y006650D01*
X033100Y004050D01*
X031700Y002650D01*
X029200Y002650D01*
X028800Y002250D01*
X026800Y002250D01*
X025900Y003150D01*
X025900Y004050D01*
X024749Y005201D01*
X024749Y006698D01*
X024749Y006954D02*
X024446Y006954D01*
X024150Y007250D01*
X024400Y006950D02*
X024200Y006750D01*
X024200Y004650D01*
X023881Y004816D02*
X021320Y004816D01*
X021320Y004698D02*
X023842Y004698D01*
X023842Y004579D02*
X023896Y004447D01*
X024008Y004342D02*
X021320Y004342D01*
X021320Y004224D02*
X025444Y004224D01*
X025325Y004342D02*
X024392Y004342D01*
X024509Y004461D02*
X025207Y004461D01*
X025535Y004698D02*
X025600Y004698D01*
X025600Y004633D02*
X024949Y005284D01*
X024949Y006498D01*
X025002Y006498D01*
X025063Y006560D01*
X025063Y006510D01*
X025110Y006463D01*
X025105Y006460D01*
X025075Y006430D01*
X025054Y006394D01*
X025043Y006353D01*
X025043Y006154D01*
X025362Y006154D01*
X025362Y006077D01*
X025438Y006077D01*
X025438Y005739D01*
X025600Y005739D01*
X025600Y004633D01*
X025600Y004816D02*
X025417Y004816D01*
X025298Y004935D02*
X025600Y004935D01*
X025600Y005053D02*
X025180Y005053D01*
X025061Y005172D02*
X025600Y005172D01*
X025600Y005290D02*
X024949Y005290D01*
X024949Y005409D02*
X025600Y005409D01*
X025600Y005527D02*
X024949Y005527D01*
X024949Y005646D02*
X025600Y005646D01*
X025438Y005764D02*
X025362Y005764D01*
X025362Y005739D02*
X025182Y005739D01*
X025141Y005750D01*
X025105Y005771D01*
X025075Y005801D01*
X025054Y005837D01*
X025043Y005878D01*
X025043Y006077D01*
X025362Y006077D01*
X025362Y005739D01*
X025362Y005883D02*
X025438Y005883D01*
X025438Y006001D02*
X025362Y006001D01*
X025362Y006120D02*
X024949Y006120D01*
X024949Y006238D02*
X025043Y006238D01*
X025044Y006357D02*
X024949Y006357D01*
X024949Y006475D02*
X025098Y006475D01*
X025365Y006785D02*
X025200Y006950D01*
X024400Y006950D01*
X024749Y006954D02*
X025230Y006954D01*
X025400Y006785D01*
X025365Y006785D01*
X025640Y007210D02*
X025800Y007050D01*
X025800Y004550D01*
X026200Y004150D01*
X026200Y003250D01*
X026900Y002550D01*
X028600Y002550D01*
X029000Y002950D01*
X031500Y002950D01*
X032800Y004250D01*
X032800Y007250D01*
X033600Y008050D01*
X036300Y008050D01*
X037446Y007542D02*
X038140Y007542D01*
X038140Y007660D02*
X037631Y007660D01*
X037740Y007779D02*
X038140Y007779D01*
X038140Y007897D02*
X037789Y007897D01*
X037810Y008016D02*
X038140Y008016D01*
X038140Y008134D02*
X037810Y008134D01*
X037768Y008253D02*
X038140Y008253D01*
X038140Y008371D02*
X037700Y008371D01*
X037572Y008490D02*
X038140Y008490D01*
X038140Y008608D02*
X037566Y008608D01*
X037698Y008727D02*
X038140Y008727D01*
X038140Y008845D02*
X037767Y008845D01*
X037810Y008964D02*
X038140Y008964D01*
X038140Y009082D02*
X037810Y009082D01*
X037790Y009201D02*
X038140Y009201D01*
X038140Y009319D02*
X037741Y009319D01*
X037634Y009438D02*
X038140Y009438D01*
X038140Y009556D02*
X037440Y009556D01*
X037646Y009675D02*
X038140Y009675D01*
X038140Y009793D02*
X037746Y009793D01*
X037795Y009912D02*
X038140Y009912D01*
X038140Y010030D02*
X037810Y010030D01*
X037810Y010149D02*
X038140Y010149D01*
X038140Y010267D02*
X037762Y010267D01*
X037686Y010386D02*
X038140Y010386D01*
X038140Y010504D02*
X037537Y010504D01*
X037594Y010623D02*
X038140Y010623D01*
X038140Y010741D02*
X037712Y010741D01*
X037773Y010860D02*
X038140Y010860D01*
X038140Y010978D02*
X037810Y010978D01*
X037810Y011097D02*
X038140Y011097D01*
X038140Y011215D02*
X037784Y011215D01*
X037735Y011334D02*
X038140Y011334D01*
X038140Y011452D02*
X037619Y011452D01*
X037475Y011571D02*
X038140Y011571D01*
X038140Y011689D02*
X037660Y011689D01*
X037752Y011808D02*
X038140Y011808D01*
X038140Y011926D02*
X037801Y011926D01*
X037810Y012045D02*
X038140Y012045D01*
X038140Y012163D02*
X037805Y012163D01*
X037756Y012282D02*
X038140Y012282D01*
X038140Y012400D02*
X037671Y012400D01*
X037502Y012519D02*
X038140Y012519D01*
X038140Y012637D02*
X037608Y012637D01*
X037727Y012756D02*
X038140Y012756D01*
X038140Y012874D02*
X037779Y012874D01*
X037810Y012993D02*
X038140Y012993D01*
X038140Y013111D02*
X037810Y013111D01*
X037778Y013230D02*
X038140Y013230D01*
X038140Y013348D02*
X037723Y013348D01*
X037605Y013467D02*
X038140Y013467D01*
X038140Y013585D02*
X037510Y013585D01*
X037675Y013704D02*
X038140Y013704D01*
X038140Y013822D02*
X037758Y013822D01*
X037807Y013941D02*
X038140Y013941D01*
X038140Y014059D02*
X037810Y014059D01*
X037799Y014178D02*
X038140Y014178D01*
X038140Y014296D02*
X037750Y014296D01*
X037657Y014415D02*
X038140Y014415D01*
X038140Y014533D02*
X037467Y014533D01*
X037426Y014550D02*
X037426Y014550D01*
X036300Y012050D02*
X034700Y012050D01*
X031600Y008950D01*
X031600Y004450D01*
X031100Y003950D01*
X029100Y003950D01*
X027900Y005150D01*
X027000Y005150D01*
X026700Y005450D01*
X026700Y007350D01*
X026072Y007978D01*
X024749Y007978D01*
X024749Y007722D02*
X025928Y007722D01*
X026400Y007250D01*
X026400Y005150D01*
X026700Y004850D01*
X027800Y004850D01*
X029000Y003650D01*
X031200Y003650D01*
X032000Y004450D01*
X032000Y008650D01*
X034400Y011050D01*
X036300Y011050D01*
X036300Y009050D02*
X033100Y009050D01*
X032300Y008250D01*
X032300Y004250D01*
X031400Y003350D01*
X028900Y003350D01*
X027850Y004400D01*
X027700Y004550D01*
X026400Y004550D01*
X026100Y004850D01*
X026100Y007150D01*
X025784Y007466D01*
X024749Y007466D01*
X024749Y007210D02*
X025640Y007210D01*
X024549Y006475D02*
X024400Y006475D01*
X024400Y006357D02*
X024549Y006357D01*
X024549Y006238D02*
X024400Y006238D01*
X024400Y006120D02*
X024549Y006120D01*
X024549Y006001D02*
X024400Y006001D01*
X024400Y005883D02*
X024549Y005883D01*
X024549Y005764D02*
X024400Y005764D01*
X024400Y005646D02*
X024549Y005646D01*
X024549Y005527D02*
X024400Y005527D01*
X024400Y005409D02*
X024549Y005409D01*
X024549Y005290D02*
X024400Y005290D01*
X024400Y005172D02*
X024549Y005172D01*
X024614Y005053D02*
X024400Y005053D01*
X024422Y004935D02*
X024733Y004935D01*
X024851Y004816D02*
X024519Y004816D01*
X024558Y004721D02*
X024558Y004579D01*
X023978Y004935D02*
X021320Y004935D01*
X021320Y005053D02*
X024000Y005053D01*
X024000Y005172D02*
X021320Y005172D01*
X021320Y005290D02*
X024000Y005290D01*
X024000Y005409D02*
X021320Y005409D01*
X021320Y005527D02*
X024000Y005527D01*
X024949Y005764D02*
X025117Y005764D01*
X025043Y005883D02*
X024949Y005883D01*
X024949Y006001D02*
X025043Y006001D01*
X024414Y006594D02*
X024400Y006594D01*
X023046Y007779D02*
X022786Y007779D01*
X022786Y007897D02*
X023150Y007897D01*
X023150Y008016D02*
X022786Y008016D01*
X022786Y008134D02*
X023150Y008134D01*
X023150Y008253D02*
X022786Y008253D01*
X022786Y008371D02*
X023150Y008371D01*
X021938Y006475D02*
X021862Y006475D01*
X021862Y006357D02*
X021938Y006357D01*
X021938Y006238D02*
X021862Y006238D01*
X021351Y004105D02*
X025562Y004105D01*
X025681Y003987D02*
X021402Y003987D01*
X021408Y003868D02*
X025700Y003868D01*
X025700Y003750D02*
X021375Y003750D01*
X021287Y003631D02*
X025700Y003631D01*
X029272Y004461D02*
X030828Y004461D01*
X030946Y004579D02*
X030496Y004579D01*
X030669Y004698D02*
X031065Y004698D01*
X031100Y004816D02*
X030755Y004816D01*
X030804Y004935D02*
X031100Y004935D01*
X031100Y005053D02*
X030810Y005053D01*
X030802Y005172D02*
X031100Y005172D01*
X031100Y005290D02*
X030753Y005290D01*
X030663Y005409D02*
X031100Y005409D01*
X031100Y005527D02*
X030481Y005527D01*
X030617Y005646D02*
X031100Y005646D01*
X031100Y005764D02*
X030734Y005764D01*
X030783Y005883D02*
X031100Y005883D01*
X031100Y006001D02*
X030810Y006001D01*
X030810Y006120D02*
X031100Y006120D01*
X031100Y006238D02*
X030774Y006238D01*
X030715Y006357D02*
X031100Y006357D01*
X031100Y006475D02*
X030596Y006475D01*
X030531Y006594D02*
X031100Y006594D01*
X031100Y006712D02*
X030683Y006712D01*
X030810Y007068D02*
X031100Y007068D01*
X031100Y007186D02*
X030796Y007186D01*
X030747Y007305D02*
X031100Y007305D01*
X031100Y007423D02*
X030648Y007423D01*
X030450Y007542D02*
X031100Y007542D01*
X031100Y007660D02*
X030660Y007660D01*
X030757Y007779D02*
X031100Y007779D01*
X031100Y007897D02*
X030808Y007897D01*
X030340Y007897D02*
X030260Y007897D01*
X030260Y007779D02*
X030340Y007779D01*
X030340Y007660D02*
X030260Y007660D01*
X030260Y008134D02*
X030340Y008134D01*
X030340Y008253D02*
X030260Y008253D01*
X030260Y008371D02*
X030340Y008371D01*
X030340Y008490D02*
X030260Y008490D01*
X029034Y008608D02*
X028200Y008608D01*
X028200Y008490D02*
X029003Y008490D01*
X028878Y008371D02*
X028200Y008371D01*
X028200Y008253D02*
X028809Y008253D01*
X028777Y008134D02*
X028200Y008134D01*
X028200Y008727D02*
X028902Y008727D01*
X028833Y008845D02*
X028200Y008845D01*
X027800Y009912D02*
X026144Y009912D01*
X026263Y010030D02*
X027800Y010030D01*
X027682Y010386D02*
X026778Y010386D01*
X026778Y010504D02*
X027563Y010504D01*
X027445Y010623D02*
X026737Y010623D01*
X026643Y010741D02*
X027326Y010741D01*
X025043Y012045D02*
X024988Y012045D01*
X024100Y012250D02*
X024100Y012750D01*
X028790Y006949D02*
X028868Y006761D01*
X029011Y006618D01*
X029174Y006550D01*
X029011Y006482D01*
X028868Y006339D01*
X028831Y006250D01*
X028885Y006357D02*
X027876Y006357D01*
X027878Y006475D02*
X029004Y006475D01*
X029069Y006594D02*
X027926Y006594D01*
X028045Y006712D02*
X028917Y006712D01*
X028839Y006831D02*
X028163Y006831D01*
X029755Y004816D02*
X029845Y004816D01*
X029931Y004698D02*
X029669Y004698D01*
X029496Y004579D02*
X030104Y004579D01*
X036496Y004579D02*
X037104Y004579D01*
X036931Y004698D02*
X036669Y004698D01*
X036755Y004816D02*
X036845Y004816D01*
X037496Y004579D02*
X038140Y004579D01*
X038140Y004698D02*
X037669Y004698D01*
X037755Y004816D02*
X038140Y004816D01*
X038140Y004935D02*
X037804Y004935D01*
X037810Y005053D02*
X038140Y005053D01*
X038140Y005172D02*
X037802Y005172D01*
X037753Y005290D02*
X038140Y005290D01*
X038140Y005409D02*
X037663Y005409D01*
X037481Y005527D02*
X038140Y005527D01*
X038140Y005646D02*
X037645Y005646D01*
X037747Y005764D02*
X038140Y005764D01*
X038140Y005883D02*
X037803Y005883D01*
X037829Y006001D02*
X038140Y006001D01*
X038140Y006120D02*
X037826Y006120D01*
X037796Y006238D02*
X038140Y006238D01*
X038140Y006357D02*
X037732Y006357D01*
X037617Y006475D02*
X038140Y006475D01*
X038140Y006594D02*
X037531Y006594D01*
X037683Y006712D02*
X038140Y006712D01*
X038140Y007068D02*
X037810Y007068D01*
X037796Y007186D02*
X038140Y007186D01*
X038140Y007305D02*
X037747Y007305D01*
X037648Y007423D02*
X038140Y007423D01*
X037260Y006090D02*
X036770Y006090D01*
X036340Y006090D01*
X036340Y006010D01*
X037260Y006010D01*
X037260Y006090D01*
X036500Y009050D02*
X036300Y009050D01*
X015514Y019866D02*
X015086Y019866D01*
X015196Y019984D02*
X015404Y019984D01*
X015355Y020103D02*
X015245Y020103D01*
X015260Y020221D02*
X015340Y020221D01*
X015340Y020340D02*
X015260Y020340D01*
X015260Y020458D02*
X015340Y020458D01*
X013606Y021288D02*
X012994Y021288D01*
X013151Y021169D02*
X013449Y021169D01*
X013377Y021051D02*
X013223Y021051D01*
X013260Y020932D02*
X013340Y020932D01*
X013340Y020814D02*
X013260Y020814D01*
X011320Y020458D02*
X011260Y020458D01*
X011260Y020340D02*
X011320Y020340D01*
X011320Y020221D02*
X011260Y020221D01*
X011245Y020103D02*
X011337Y020103D01*
X011387Y019984D02*
X011196Y019984D01*
X011086Y019866D02*
X011486Y019866D01*
D23*
X024700Y016300D03*
X028500Y016850D03*
X026400Y010450D03*
X023350Y009950D03*
X021800Y009550D03*
X019150Y008250D03*
X020200Y007750D03*
X021400Y007150D03*
X027500Y006450D03*
X027500Y008550D03*
D24*
X033700Y005050D03*
D25*
X036300Y005050D01*
X019400Y003950D02*
X019400Y001550D01*
X019400Y003950D02*
X017600Y005750D01*
X007746Y005750D01*
X007700Y005796D01*
D26*
X021100Y006850D02*
X021100Y003950D01*
X021050Y003900D01*
X021900Y006050D02*
X021900Y006515D01*
X021400Y007150D02*
X021100Y006850D01*
X025400Y006115D02*
X025400Y005650D01*
X025400Y012215D02*
X025900Y012215D01*
X025900Y012250D01*
X021800Y012215D02*
X021300Y012215D01*
X021300Y012250D01*
X004700Y017505D02*
X003100Y015905D01*
X004700Y017505D02*
X004700Y019615D01*
X004700Y020285D02*
X004700Y020541D01*
X002400Y020541D01*
D27*
X005900Y020550D03*
X009200Y020550D03*
X017400Y015550D03*
X021900Y017550D03*
X024400Y017550D03*
X027400Y017550D03*
X032400Y013550D03*
X032400Y011550D03*
X027900Y011950D03*
X025900Y012250D03*
X024100Y012250D03*
X021300Y012250D03*
X017400Y011250D03*
X016400Y012550D03*
X024950Y009600D03*
X023400Y006050D03*
X021900Y006050D03*
X024200Y004650D03*
X025400Y005650D03*
X021050Y003900D03*
X020400Y001550D03*
X013700Y004350D03*
X012400Y001550D03*
X010400Y001550D03*
X008400Y001550D03*
X006400Y008050D03*
X005400Y008050D03*
X004400Y008050D03*
X003400Y008050D03*
X002400Y008050D03*
X002400Y009050D03*
X003400Y009050D03*
X004400Y009050D03*
X005400Y009050D03*
X006400Y009050D03*
X003400Y010050D03*
X002400Y010050D03*
X002400Y011050D03*
X003400Y011050D03*
X003400Y012050D03*
X002400Y012050D03*
X002400Y013050D03*
X003400Y013050D03*
X004400Y013050D03*
X005400Y013050D03*
X006400Y013050D03*
X006400Y014050D03*
X005400Y014050D03*
X004400Y014050D03*
X003400Y014050D03*
X002400Y014050D03*
X018600Y018850D03*
X033900Y006150D03*
X035400Y002550D03*
X037400Y002550D03*
D28*
X016400Y002450D02*
X016400Y001550D01*
X016400Y002450D02*
X014500Y004350D01*
X013700Y004350D01*
X009300Y007396D02*
X007700Y005796D01*
X009300Y007396D02*
X009300Y011350D01*
X008602Y012048D01*
X007790Y012048D01*
X007790Y015240D01*
X007800Y015250D01*
X007145Y015905D01*
X006300Y015905D01*
X003100Y015905D02*
X003100Y014350D01*
X003400Y014050D01*
D29*
X005933Y006134D02*
X005933Y005517D01*
X007346Y004104D01*
X007700Y004104D01*
X006946Y003350D01*
X006600Y003350D01*
X005700Y002450D01*
X002600Y002450D01*
M02*
