G75*
G70*
%OFA0B0*%
%FSLAX24Y24*%
%IPPOS*%
%LPD*%
%AMOC8*
5,1,8,0,0,1.08239X$1,22.5*
%
%ADD10C,0.1340*%
%ADD11C,0.0010*%
%ADD12C,0.0753*%
%ADD13R,0.1030X0.1030*%
%ADD14C,0.1030*%
%ADD15OC8,0.0640*%
%ADD16C,0.0820*%
%ADD17C,0.0760*%
%ADD18C,0.0720*%
%ADD19C,0.0730*%
%ADD20R,0.0730X0.0730*%
%ADD21C,0.0820*%
%ADD22C,0.0867*%
D10*
X005833Y005893D03*
X035833Y005893D03*
X035833Y035893D03*
X005833Y035893D03*
D11*
X029453Y026893D02*
X029913Y026983D01*
X029973Y026893D01*
X029913Y026803D01*
X029453Y026893D01*
X029454Y026893D02*
X029973Y026893D01*
X029967Y026885D02*
X029496Y026885D01*
X029497Y026902D02*
X029967Y026902D01*
X029962Y026910D02*
X029541Y026910D01*
X029539Y026876D02*
X029962Y026876D01*
X029956Y026868D02*
X029583Y026868D01*
X029626Y026859D02*
X029950Y026859D01*
X029945Y026851D02*
X029669Y026851D01*
X029713Y026842D02*
X029939Y026842D01*
X029933Y026834D02*
X029756Y026834D01*
X029800Y026825D02*
X029928Y026825D01*
X029922Y026817D02*
X029843Y026817D01*
X029887Y026808D02*
X029916Y026808D01*
X030014Y026749D02*
X030645Y026749D01*
X030650Y026740D02*
X030009Y026740D01*
X030004Y026732D02*
X030655Y026732D01*
X030661Y026723D02*
X029999Y026723D01*
X029994Y026715D02*
X030666Y026715D01*
X030672Y026706D02*
X029988Y026706D01*
X029983Y026698D02*
X030677Y026698D01*
X030682Y026689D02*
X029978Y026689D01*
X029973Y026681D02*
X030688Y026681D01*
X030693Y026672D02*
X030334Y026672D01*
X030333Y026673D02*
X030953Y026263D01*
X030553Y026893D01*
X030933Y027503D01*
X030333Y027113D01*
X029723Y027493D01*
X030103Y026893D01*
X029723Y026273D01*
X030333Y026673D01*
X030332Y026672D02*
X029968Y026672D01*
X029962Y026664D02*
X030319Y026664D01*
X030306Y026655D02*
X029957Y026655D01*
X029952Y026647D02*
X030293Y026647D01*
X030280Y026638D02*
X029947Y026638D01*
X029942Y026630D02*
X030267Y026630D01*
X030254Y026621D02*
X029936Y026621D01*
X029931Y026613D02*
X030241Y026613D01*
X030228Y026604D02*
X029926Y026604D01*
X029921Y026596D02*
X030215Y026596D01*
X030202Y026587D02*
X029915Y026587D01*
X029910Y026579D02*
X030189Y026579D01*
X030176Y026570D02*
X029905Y026570D01*
X029900Y026562D02*
X030163Y026562D01*
X030150Y026553D02*
X029895Y026553D01*
X029889Y026545D02*
X030137Y026545D01*
X030124Y026536D02*
X029884Y026536D01*
X029879Y026528D02*
X030111Y026528D01*
X030098Y026519D02*
X029874Y026519D01*
X029869Y026511D02*
X030085Y026511D01*
X030072Y026502D02*
X029863Y026502D01*
X029858Y026494D02*
X030059Y026494D01*
X030046Y026485D02*
X029853Y026485D01*
X029848Y026477D02*
X030033Y026477D01*
X030021Y026468D02*
X029843Y026468D01*
X029837Y026460D02*
X030008Y026460D01*
X029995Y026451D02*
X029832Y026451D01*
X029827Y026443D02*
X029982Y026443D01*
X029969Y026434D02*
X029822Y026434D01*
X029816Y026426D02*
X029956Y026426D01*
X029943Y026417D02*
X029811Y026417D01*
X029806Y026409D02*
X029930Y026409D01*
X029917Y026400D02*
X029801Y026400D01*
X029796Y026392D02*
X029904Y026392D01*
X029891Y026383D02*
X029790Y026383D01*
X029785Y026375D02*
X029878Y026375D01*
X029865Y026366D02*
X029780Y026366D01*
X029775Y026358D02*
X029852Y026358D01*
X029839Y026349D02*
X029770Y026349D01*
X029764Y026341D02*
X029826Y026341D01*
X029813Y026332D02*
X029759Y026332D01*
X029754Y026324D02*
X029800Y026324D01*
X029787Y026315D02*
X029749Y026315D01*
X029744Y026307D02*
X029774Y026307D01*
X029761Y026298D02*
X029738Y026298D01*
X029733Y026290D02*
X029748Y026290D01*
X029735Y026281D02*
X029728Y026281D01*
X030020Y026757D02*
X030639Y026757D01*
X030634Y026766D02*
X030025Y026766D01*
X030030Y026774D02*
X030628Y026774D01*
X030623Y026783D02*
X030035Y026783D01*
X030041Y026791D02*
X030618Y026791D01*
X030612Y026800D02*
X030046Y026800D01*
X030051Y026808D02*
X030607Y026808D01*
X030601Y026817D02*
X030056Y026817D01*
X030061Y026825D02*
X030596Y026825D01*
X030591Y026834D02*
X030067Y026834D01*
X030072Y026842D02*
X030585Y026842D01*
X030580Y026851D02*
X030077Y026851D01*
X030082Y026859D02*
X030574Y026859D01*
X030569Y026868D02*
X030087Y026868D01*
X030093Y026876D02*
X030564Y026876D01*
X030558Y026885D02*
X030098Y026885D01*
X030103Y026893D02*
X030553Y026893D01*
X030558Y026902D02*
X030097Y026902D01*
X030092Y026910D02*
X030564Y026910D01*
X030569Y026919D02*
X030087Y026919D01*
X030081Y026927D02*
X030574Y026927D01*
X030580Y026936D02*
X030076Y026936D01*
X030071Y026944D02*
X030585Y026944D01*
X030590Y026953D02*
X030065Y026953D01*
X030060Y026961D02*
X030595Y026961D01*
X030601Y026970D02*
X030054Y026970D01*
X030049Y026978D02*
X030606Y026978D01*
X030611Y026987D02*
X030044Y026987D01*
X030038Y026995D02*
X030617Y026995D01*
X030622Y027004D02*
X030033Y027004D01*
X030027Y027012D02*
X030627Y027012D01*
X030632Y027021D02*
X030022Y027021D01*
X030017Y027029D02*
X030638Y027029D01*
X030643Y027038D02*
X030011Y027038D01*
X030006Y027046D02*
X030648Y027046D01*
X030654Y027055D02*
X030001Y027055D01*
X029995Y027063D02*
X030659Y027063D01*
X030664Y027072D02*
X029990Y027072D01*
X029984Y027080D02*
X030670Y027080D01*
X030675Y027089D02*
X029979Y027089D01*
X029974Y027097D02*
X030680Y027097D01*
X030685Y027106D02*
X029968Y027106D01*
X029963Y027114D02*
X030331Y027114D01*
X030335Y027114D02*
X030691Y027114D01*
X030696Y027123D02*
X030348Y027123D01*
X030361Y027131D02*
X030701Y027131D01*
X030707Y027140D02*
X030374Y027140D01*
X030387Y027148D02*
X030712Y027148D01*
X030717Y027157D02*
X030400Y027157D01*
X030413Y027165D02*
X030722Y027165D01*
X030728Y027174D02*
X030426Y027174D01*
X030439Y027182D02*
X030733Y027182D01*
X030738Y027191D02*
X030452Y027191D01*
X030465Y027199D02*
X030744Y027199D01*
X030749Y027208D02*
X030479Y027208D01*
X030492Y027216D02*
X030754Y027216D01*
X030760Y027225D02*
X030505Y027225D01*
X030518Y027233D02*
X030765Y027233D01*
X030770Y027242D02*
X030531Y027242D01*
X030544Y027250D02*
X030775Y027250D01*
X030781Y027259D02*
X030557Y027259D01*
X030570Y027267D02*
X030786Y027267D01*
X030791Y027276D02*
X030583Y027276D01*
X030596Y027284D02*
X030797Y027284D01*
X030802Y027293D02*
X030609Y027293D01*
X030622Y027301D02*
X030807Y027301D01*
X030813Y027310D02*
X030635Y027310D01*
X030649Y027318D02*
X030818Y027318D01*
X030823Y027327D02*
X030662Y027327D01*
X030675Y027335D02*
X030828Y027335D01*
X030834Y027344D02*
X030688Y027344D01*
X030701Y027352D02*
X030839Y027352D01*
X030844Y027361D02*
X030714Y027361D01*
X030727Y027369D02*
X030850Y027369D01*
X030855Y027378D02*
X030740Y027378D01*
X030753Y027386D02*
X030860Y027386D01*
X030865Y027395D02*
X030766Y027395D01*
X030779Y027403D02*
X030871Y027403D01*
X030876Y027412D02*
X030792Y027412D01*
X030806Y027420D02*
X030881Y027420D01*
X030887Y027429D02*
X030819Y027429D01*
X030832Y027437D02*
X030892Y027437D01*
X030897Y027446D02*
X030845Y027446D01*
X030858Y027454D02*
X030903Y027454D01*
X030908Y027463D02*
X030871Y027463D01*
X030884Y027471D02*
X030913Y027471D01*
X030918Y027480D02*
X030897Y027480D01*
X030910Y027488D02*
X030924Y027488D01*
X030923Y027497D02*
X030929Y027497D01*
X030417Y027386D02*
X030249Y027386D01*
X030247Y027378D02*
X030419Y027378D01*
X030421Y027369D02*
X030245Y027369D01*
X030243Y027361D02*
X030423Y027361D01*
X030424Y027352D02*
X030241Y027352D01*
X030240Y027344D02*
X030426Y027344D01*
X030428Y027335D02*
X030238Y027335D01*
X030236Y027327D02*
X030430Y027327D01*
X030432Y027318D02*
X030234Y027318D01*
X030233Y027313D02*
X030333Y027253D01*
X030433Y027313D01*
X030333Y027773D01*
X030233Y027313D01*
X030239Y027310D02*
X030427Y027310D01*
X030413Y027301D02*
X030253Y027301D01*
X030267Y027293D02*
X030399Y027293D01*
X030385Y027284D02*
X030281Y027284D01*
X030295Y027276D02*
X030371Y027276D01*
X030357Y027267D02*
X030309Y027267D01*
X030324Y027259D02*
X030342Y027259D01*
X030277Y027148D02*
X029941Y027148D01*
X029947Y027140D02*
X030290Y027140D01*
X030304Y027131D02*
X029952Y027131D01*
X029957Y027123D02*
X030317Y027123D01*
X030263Y027157D02*
X029936Y027157D01*
X029931Y027165D02*
X030249Y027165D01*
X030236Y027174D02*
X029925Y027174D01*
X029920Y027182D02*
X030222Y027182D01*
X030208Y027191D02*
X029914Y027191D01*
X029909Y027199D02*
X030195Y027199D01*
X030181Y027208D02*
X029904Y027208D01*
X029898Y027216D02*
X030167Y027216D01*
X030154Y027225D02*
X029893Y027225D01*
X029888Y027233D02*
X030140Y027233D01*
X030126Y027242D02*
X029882Y027242D01*
X029877Y027250D02*
X030113Y027250D01*
X030099Y027259D02*
X029871Y027259D01*
X029866Y027267D02*
X030085Y027267D01*
X030072Y027276D02*
X029861Y027276D01*
X029855Y027284D02*
X030058Y027284D01*
X030045Y027293D02*
X029850Y027293D01*
X029844Y027301D02*
X030031Y027301D01*
X030017Y027310D02*
X029839Y027310D01*
X029834Y027318D02*
X030004Y027318D01*
X029990Y027327D02*
X029828Y027327D01*
X029823Y027335D02*
X029976Y027335D01*
X029963Y027344D02*
X029818Y027344D01*
X029812Y027352D02*
X029949Y027352D01*
X029935Y027361D02*
X029807Y027361D01*
X029801Y027369D02*
X029922Y027369D01*
X029908Y027378D02*
X029796Y027378D01*
X029791Y027386D02*
X029894Y027386D01*
X029881Y027395D02*
X029785Y027395D01*
X029780Y027403D02*
X029867Y027403D01*
X029854Y027412D02*
X029774Y027412D01*
X029769Y027420D02*
X029840Y027420D01*
X029826Y027429D02*
X029764Y027429D01*
X029758Y027437D02*
X029813Y027437D01*
X029799Y027446D02*
X029753Y027446D01*
X029748Y027454D02*
X029785Y027454D01*
X029772Y027463D02*
X029742Y027463D01*
X029737Y027471D02*
X029758Y027471D01*
X029744Y027480D02*
X029731Y027480D01*
X029731Y027488D02*
X029726Y027488D01*
X029845Y026970D02*
X029922Y026970D01*
X029928Y026961D02*
X029801Y026961D01*
X029758Y026953D02*
X029933Y026953D01*
X029939Y026944D02*
X029714Y026944D01*
X029671Y026936D02*
X029945Y026936D01*
X029950Y026927D02*
X029627Y026927D01*
X029584Y026919D02*
X029956Y026919D01*
X029916Y026978D02*
X029888Y026978D01*
X030251Y027395D02*
X030415Y027395D01*
X030413Y027403D02*
X030253Y027403D01*
X030254Y027412D02*
X030411Y027412D01*
X030410Y027420D02*
X030256Y027420D01*
X030258Y027429D02*
X030408Y027429D01*
X030406Y027437D02*
X030260Y027437D01*
X030262Y027446D02*
X030404Y027446D01*
X030402Y027454D02*
X030264Y027454D01*
X030265Y027463D02*
X030400Y027463D01*
X030399Y027471D02*
X030267Y027471D01*
X030269Y027480D02*
X030397Y027480D01*
X030395Y027488D02*
X030271Y027488D01*
X030273Y027497D02*
X030393Y027497D01*
X030391Y027505D02*
X030275Y027505D01*
X030277Y027514D02*
X030389Y027514D01*
X030387Y027522D02*
X030278Y027522D01*
X030280Y027531D02*
X030386Y027531D01*
X030384Y027539D02*
X030282Y027539D01*
X030284Y027548D02*
X030382Y027548D01*
X030380Y027556D02*
X030286Y027556D01*
X030288Y027565D02*
X030378Y027565D01*
X030376Y027573D02*
X030289Y027573D01*
X030291Y027582D02*
X030375Y027582D01*
X030373Y027590D02*
X030293Y027590D01*
X030295Y027599D02*
X030371Y027599D01*
X030369Y027607D02*
X030297Y027607D01*
X030299Y027616D02*
X030367Y027616D01*
X030365Y027624D02*
X030301Y027624D01*
X030302Y027633D02*
X030363Y027633D01*
X030362Y027641D02*
X030304Y027641D01*
X030306Y027650D02*
X030360Y027650D01*
X030358Y027658D02*
X030308Y027658D01*
X030310Y027667D02*
X030356Y027667D01*
X030354Y027675D02*
X030312Y027675D01*
X030314Y027684D02*
X030352Y027684D01*
X030351Y027692D02*
X030315Y027692D01*
X030317Y027701D02*
X030349Y027701D01*
X030347Y027709D02*
X030319Y027709D01*
X030321Y027718D02*
X030345Y027718D01*
X030343Y027726D02*
X030323Y027726D01*
X030325Y027735D02*
X030341Y027735D01*
X030339Y027743D02*
X030326Y027743D01*
X030328Y027752D02*
X030338Y027752D01*
X030336Y027760D02*
X030330Y027760D01*
X030332Y027769D02*
X030334Y027769D01*
X030753Y026983D02*
X031193Y026893D01*
X030753Y026803D01*
X030693Y026893D01*
X030753Y026983D01*
X030750Y026978D02*
X030777Y026978D01*
X030744Y026970D02*
X030818Y026970D01*
X030860Y026961D02*
X030738Y026961D01*
X030733Y026953D02*
X030901Y026953D01*
X030943Y026944D02*
X030727Y026944D01*
X030721Y026936D02*
X030984Y026936D01*
X031026Y026927D02*
X030716Y026927D01*
X030710Y026919D02*
X031068Y026919D01*
X031109Y026910D02*
X030704Y026910D01*
X030699Y026902D02*
X031151Y026902D01*
X031152Y026885D02*
X030699Y026885D01*
X030704Y026876D02*
X031111Y026876D01*
X031069Y026868D02*
X030710Y026868D01*
X030716Y026859D02*
X031027Y026859D01*
X030986Y026851D02*
X030721Y026851D01*
X030727Y026842D02*
X030944Y026842D01*
X030903Y026834D02*
X030733Y026834D01*
X030738Y026825D02*
X030861Y026825D01*
X030820Y026817D02*
X030744Y026817D01*
X030750Y026808D02*
X030778Y026808D01*
X030693Y026893D02*
X031192Y026893D01*
X030736Y026604D02*
X030437Y026604D01*
X030450Y026596D02*
X030742Y026596D01*
X030747Y026587D02*
X030463Y026587D01*
X030476Y026579D02*
X030753Y026579D01*
X030758Y026570D02*
X030488Y026570D01*
X030501Y026562D02*
X030763Y026562D01*
X030769Y026553D02*
X030514Y026553D01*
X030527Y026545D02*
X030774Y026545D01*
X030780Y026536D02*
X030540Y026536D01*
X030553Y026528D02*
X030785Y026528D01*
X030790Y026519D02*
X030566Y026519D01*
X030578Y026511D02*
X030796Y026511D01*
X030801Y026502D02*
X030591Y026502D01*
X030604Y026494D02*
X030807Y026494D01*
X030812Y026485D02*
X030617Y026485D01*
X030630Y026477D02*
X030817Y026477D01*
X030823Y026468D02*
X030643Y026468D01*
X030656Y026460D02*
X030828Y026460D01*
X030833Y026451D02*
X030668Y026451D01*
X030681Y026443D02*
X030839Y026443D01*
X030844Y026434D02*
X030694Y026434D01*
X030707Y026426D02*
X030850Y026426D01*
X030855Y026417D02*
X030720Y026417D01*
X030733Y026409D02*
X030860Y026409D01*
X030866Y026400D02*
X030746Y026400D01*
X030758Y026392D02*
X030871Y026392D01*
X030877Y026383D02*
X030771Y026383D01*
X030784Y026375D02*
X030882Y026375D01*
X030887Y026366D02*
X030797Y026366D01*
X030810Y026358D02*
X030893Y026358D01*
X030898Y026349D02*
X030823Y026349D01*
X030836Y026341D02*
X030904Y026341D01*
X030909Y026332D02*
X030848Y026332D01*
X030861Y026324D02*
X030914Y026324D01*
X030920Y026315D02*
X030874Y026315D01*
X030887Y026307D02*
X030925Y026307D01*
X030931Y026298D02*
X030900Y026298D01*
X030913Y026290D02*
X030936Y026290D01*
X030941Y026281D02*
X030926Y026281D01*
X030938Y026273D02*
X030947Y026273D01*
X030951Y026264D02*
X030952Y026264D01*
X030731Y026613D02*
X030424Y026613D01*
X030411Y026621D02*
X030726Y026621D01*
X030720Y026630D02*
X030399Y026630D01*
X030386Y026638D02*
X030715Y026638D01*
X030709Y026647D02*
X030373Y026647D01*
X030360Y026655D02*
X030704Y026655D01*
X030699Y026664D02*
X030347Y026664D01*
X030333Y026523D02*
X030233Y026453D01*
X030333Y026013D01*
X030433Y026453D01*
X030333Y026523D01*
X030338Y026519D02*
X030327Y026519D01*
X030315Y026511D02*
X030351Y026511D01*
X030363Y026502D02*
X030303Y026502D01*
X030291Y026494D02*
X030375Y026494D01*
X030387Y026485D02*
X030279Y026485D01*
X030267Y026477D02*
X030399Y026477D01*
X030411Y026468D02*
X030255Y026468D01*
X030242Y026460D02*
X030423Y026460D01*
X030433Y026451D02*
X030233Y026451D01*
X030235Y026443D02*
X030431Y026443D01*
X030429Y026434D02*
X030237Y026434D01*
X030239Y026426D02*
X030427Y026426D01*
X030425Y026417D02*
X030241Y026417D01*
X030243Y026409D02*
X030423Y026409D01*
X030421Y026400D02*
X030245Y026400D01*
X030247Y026392D02*
X030419Y026392D01*
X030417Y026383D02*
X030249Y026383D01*
X030251Y026375D02*
X030415Y026375D01*
X030413Y026366D02*
X030253Y026366D01*
X030255Y026358D02*
X030411Y026358D01*
X030409Y026349D02*
X030257Y026349D01*
X030258Y026341D02*
X030407Y026341D01*
X030405Y026332D02*
X030260Y026332D01*
X030262Y026324D02*
X030404Y026324D01*
X030402Y026315D02*
X030264Y026315D01*
X030266Y026307D02*
X030400Y026307D01*
X030398Y026298D02*
X030268Y026298D01*
X030270Y026290D02*
X030396Y026290D01*
X030394Y026281D02*
X030272Y026281D01*
X030274Y026273D02*
X030392Y026273D01*
X030390Y026264D02*
X030276Y026264D01*
X030278Y026256D02*
X030388Y026256D01*
X030386Y026247D02*
X030280Y026247D01*
X030282Y026239D02*
X030384Y026239D01*
X030382Y026230D02*
X030284Y026230D01*
X030286Y026222D02*
X030380Y026222D01*
X030378Y026213D02*
X030287Y026213D01*
X030289Y026205D02*
X030376Y026205D01*
X030375Y026196D02*
X030291Y026196D01*
X030293Y026188D02*
X030373Y026188D01*
X030371Y026179D02*
X030295Y026179D01*
X030297Y026171D02*
X030369Y026171D01*
X030367Y026162D02*
X030299Y026162D01*
X030301Y026154D02*
X030365Y026154D01*
X030363Y026145D02*
X030303Y026145D01*
X030305Y026137D02*
X030361Y026137D01*
X030359Y026128D02*
X030307Y026128D01*
X030309Y026120D02*
X030357Y026120D01*
X030355Y026111D02*
X030311Y026111D01*
X030313Y026103D02*
X030353Y026103D01*
X030351Y026094D02*
X030315Y026094D01*
X030316Y026086D02*
X030349Y026086D01*
X030348Y026077D02*
X030318Y026077D01*
X030320Y026069D02*
X030346Y026069D01*
X030344Y026060D02*
X030322Y026060D01*
X030324Y026052D02*
X030342Y026052D01*
X030340Y026043D02*
X030326Y026043D01*
X030328Y026035D02*
X030338Y026035D01*
X030336Y026026D02*
X030330Y026026D01*
X030332Y026018D02*
X030334Y026018D01*
D12*
X015071Y024393D03*
X014303Y026706D03*
X014303Y029080D03*
X015071Y031393D03*
X014303Y033706D03*
X009362Y033706D03*
X009362Y029080D03*
X009362Y026706D03*
X009362Y022080D03*
X009362Y019706D03*
X009362Y015080D03*
X009362Y012706D03*
X009362Y008080D03*
X014303Y008080D03*
X015071Y010393D03*
X014303Y012706D03*
X014303Y015080D03*
X015071Y017393D03*
X014303Y019706D03*
X014303Y022080D03*
D13*
X005833Y019393D03*
X005833Y012393D03*
X005833Y026393D03*
X005833Y033393D03*
D14*
X005833Y031425D03*
X005833Y029456D03*
X005833Y024425D03*
X005833Y022456D03*
X005833Y017425D03*
X005833Y015456D03*
X005833Y010425D03*
X005833Y008456D03*
D15*
X017833Y011393D03*
X018333Y012143D03*
X018833Y011393D03*
X018833Y018393D03*
X018333Y019143D03*
X017833Y018393D03*
X017833Y025393D03*
X018333Y026143D03*
X018833Y025393D03*
X018833Y032393D03*
X018333Y033143D03*
X017833Y032393D03*
D16*
X017833Y030393D03*
X018833Y030393D03*
X019333Y028393D03*
X019333Y027393D03*
X021833Y029393D03*
X021833Y030393D03*
X021833Y031393D03*
X021833Y032393D03*
X019333Y034393D03*
X019333Y035393D03*
X016333Y035393D03*
X016333Y034393D03*
X016333Y028393D03*
X016333Y027393D03*
X017833Y023393D03*
X018833Y023393D03*
X019333Y021393D03*
X019333Y020293D03*
X016333Y020293D03*
X016333Y021393D03*
X017833Y016393D03*
X018833Y016393D03*
X019333Y014393D03*
X019333Y013393D03*
X016333Y013393D03*
X016333Y014393D03*
X017833Y009393D03*
X018833Y009393D03*
X030333Y006993D03*
X030333Y005393D03*
X031333Y005393D03*
X033333Y006993D03*
X033833Y021393D03*
X034833Y021393D03*
X034833Y022393D03*
X033833Y022393D03*
X033833Y023393D03*
X034833Y023393D03*
X034833Y024393D03*
X033833Y024393D03*
X033833Y025393D03*
X034833Y025393D03*
X034833Y026393D03*
X033833Y026393D03*
X033833Y027393D03*
X034833Y027393D03*
X034833Y028393D03*
X033833Y028393D03*
X032833Y028393D03*
X032833Y027393D03*
X032833Y026393D03*
X032833Y025393D03*
X032833Y024393D03*
X032833Y023393D03*
X032833Y022393D03*
X032833Y021393D03*
X027833Y021393D03*
X026833Y021393D03*
X025833Y021393D03*
X025833Y022393D03*
X026833Y022393D03*
X026833Y023393D03*
X025833Y023393D03*
X025833Y024393D03*
X026833Y024393D03*
X026833Y025393D03*
X025833Y025393D03*
X025833Y026393D03*
X026833Y026393D03*
X026833Y027393D03*
X025833Y027393D03*
X025833Y028393D03*
X026833Y028393D03*
X027833Y028393D03*
X027833Y027393D03*
X027833Y026393D03*
X027833Y025393D03*
X027833Y024393D03*
X027833Y023393D03*
X027833Y022393D03*
X027833Y029393D03*
X027833Y030393D03*
X026833Y030393D03*
X026833Y029393D03*
X025833Y029393D03*
X025833Y030393D03*
X024833Y030393D03*
X024833Y029393D03*
X024833Y031393D03*
X024833Y032393D03*
X025833Y032393D03*
X025833Y031393D03*
X026833Y031393D03*
X026833Y032393D03*
X027833Y032393D03*
X027833Y031393D03*
X032833Y031393D03*
X032833Y032393D03*
X033833Y032393D03*
X033833Y031393D03*
X034833Y031393D03*
X034833Y032393D03*
X034833Y030393D03*
X034833Y029393D03*
X033833Y029393D03*
X033833Y030393D03*
X032833Y030393D03*
X032833Y029393D03*
D17*
X016333Y029393D03*
X016333Y026393D03*
X016333Y022393D03*
X016333Y019393D03*
X016333Y015393D03*
X016333Y012393D03*
X016333Y008393D03*
X016333Y033393D03*
D18*
X012833Y005813D02*
X012833Y005173D01*
X011833Y005173D02*
X011833Y005813D01*
X010833Y005813D02*
X010833Y005173D01*
D19*
X016833Y006393D03*
X019933Y006393D03*
X024433Y012193D03*
D20*
X024433Y011193D03*
X019933Y005393D03*
X016833Y005393D03*
D21*
X027833Y005763D02*
X027833Y005023D01*
X028833Y005023D02*
X028833Y005763D01*
D22*
X026017Y007252D02*
X026017Y008039D01*
X024442Y008826D02*
X023655Y008826D01*
X023655Y006346D02*
X024442Y006346D01*
M02*
