G75*
G70*
%OFA0B0*%
%FSLAX24Y24*%
%IPPOS*%
%LPD*%
%AMOC8*
5,1,8,0,0,1.08239X$1,22.5*
%
%ADD10C,0.0110*%
%ADD11C,0.0160*%
%ADD12C,0.0060*%
%ADD13C,0.0050*%
%ADD14C,0.0080*%
%ADD15R,0.0300X0.0180*%
%ADD16R,0.0180X0.0300*%
%ADD17C,0.0120*%
%ADD18C,0.0220*%
%ADD19C,0.0040*%
D10*
X022536Y008951D02*
X023126Y008951D01*
X022831Y009247D01*
X022831Y008853D01*
X023028Y010142D02*
X023126Y010142D01*
X023028Y010142D02*
X022831Y010339D01*
X022536Y010339D01*
X022831Y010339D02*
X023028Y010536D01*
X023126Y010536D01*
X022930Y010787D02*
X023126Y010983D01*
X022930Y011180D01*
X022536Y011180D01*
X022536Y011431D02*
X022536Y011825D01*
X023126Y011825D01*
X023126Y012076D02*
X023126Y012469D01*
X022536Y012469D01*
X022536Y012076D01*
X022831Y012273D02*
X022831Y012469D01*
X022831Y012720D02*
X022733Y012819D01*
X022733Y013114D01*
X022733Y012917D02*
X022536Y012720D01*
X022831Y012720D02*
X023028Y012720D01*
X023126Y012819D01*
X023126Y013114D01*
X022536Y013114D01*
X022831Y011180D02*
X022831Y010787D01*
X022930Y010787D02*
X022536Y010787D01*
X022634Y015853D02*
X022536Y015951D01*
X022536Y016148D01*
X022634Y016247D01*
X022831Y016050D02*
X022831Y015951D01*
X022733Y015853D01*
X022634Y015853D01*
X022831Y015951D02*
X022930Y015853D01*
X023028Y015853D01*
X023126Y015951D01*
X023126Y016148D01*
X023028Y016247D01*
X023028Y017142D02*
X023126Y017142D01*
X023028Y017142D02*
X022831Y017339D01*
X022536Y017339D01*
X022831Y017339D02*
X023028Y017536D01*
X023126Y017536D01*
X022930Y017787D02*
X023126Y017983D01*
X022930Y018180D01*
X022536Y018180D01*
X022536Y018431D02*
X022536Y018825D01*
X023126Y018825D01*
X023126Y019076D02*
X023126Y019469D01*
X022536Y019469D01*
X022536Y019076D01*
X022831Y019273D02*
X022831Y019469D01*
X022831Y019720D02*
X022733Y019819D01*
X022733Y020114D01*
X022733Y019917D02*
X022536Y019720D01*
X022831Y019720D02*
X023028Y019720D01*
X023126Y019819D01*
X023126Y020114D01*
X022536Y020114D01*
X022831Y018180D02*
X022831Y017787D01*
X022930Y017787D02*
X022536Y017787D01*
X022536Y022853D02*
X022536Y023247D01*
X022930Y022853D01*
X023028Y022853D01*
X023126Y022951D01*
X023126Y023148D01*
X023028Y023247D01*
X023028Y024142D02*
X023126Y024142D01*
X023028Y024142D02*
X022831Y024339D01*
X022536Y024339D01*
X022831Y024339D02*
X023028Y024536D01*
X023126Y024536D01*
X022930Y024787D02*
X022536Y024787D01*
X022831Y024787D02*
X022831Y025180D01*
X022930Y025180D02*
X023126Y024983D01*
X022930Y024787D01*
X022930Y025180D02*
X022536Y025180D01*
X022536Y025431D02*
X022536Y025825D01*
X023126Y025825D01*
X023126Y026076D02*
X023126Y026469D01*
X022536Y026469D01*
X022536Y026076D01*
X022831Y026273D02*
X022831Y026469D01*
X022831Y026720D02*
X022733Y026819D01*
X022733Y027114D01*
X022733Y026917D02*
X022536Y026720D01*
X022831Y026720D02*
X023028Y026720D01*
X023126Y026819D01*
X023126Y027114D01*
X022536Y027114D01*
X022536Y029853D02*
X022536Y030247D01*
X022536Y030050D02*
X023126Y030050D01*
X022930Y030247D01*
X023028Y031142D02*
X023126Y031142D01*
X023028Y031142D02*
X022831Y031339D01*
X022536Y031339D01*
X022831Y031339D02*
X023028Y031536D01*
X023126Y031536D01*
X022930Y031787D02*
X022536Y031787D01*
X022831Y031787D02*
X022831Y032180D01*
X022930Y032180D02*
X023126Y031983D01*
X022930Y031787D01*
X022930Y032180D02*
X022536Y032180D01*
X022536Y032431D02*
X022536Y032825D01*
X023126Y032825D01*
X023126Y033076D02*
X023126Y033469D01*
X022536Y033469D01*
X022536Y033076D01*
X022831Y033273D02*
X022831Y033469D01*
X022831Y033720D02*
X022733Y033819D01*
X022733Y034114D01*
X022733Y033917D02*
X022536Y033720D01*
X022831Y033720D02*
X023028Y033720D01*
X023126Y033819D01*
X023126Y034114D01*
X022536Y034114D01*
X035119Y006708D02*
X035414Y006708D01*
X035513Y006610D01*
X035513Y006413D01*
X035414Y006315D01*
X035119Y006315D01*
X035119Y006118D02*
X035119Y006708D01*
X035764Y006708D02*
X035764Y006118D01*
X035961Y006315D01*
X036157Y006118D01*
X036157Y006708D01*
X036408Y006708D02*
X036703Y006708D01*
X036802Y006610D01*
X036802Y006413D01*
X036703Y006315D01*
X036408Y006315D01*
X036408Y006118D02*
X036408Y006708D01*
X036605Y006315D02*
X036802Y006118D01*
D11*
X022831Y007913D02*
X021831Y007913D01*
X022831Y007913D02*
X022831Y008413D01*
X022831Y013413D02*
X022831Y013913D01*
X021831Y013913D01*
X021831Y014913D02*
X022831Y014913D01*
X022831Y015413D01*
X022831Y020413D02*
X022831Y020913D01*
X021831Y020913D01*
X021831Y021913D02*
X022831Y021913D01*
X022831Y022413D01*
X022831Y027413D02*
X022831Y027913D01*
X021831Y027913D01*
X021831Y028913D02*
X022831Y028913D01*
X022831Y029413D01*
X022831Y034413D02*
X022831Y034913D01*
X021831Y034913D01*
D12*
X021491Y030373D02*
X020371Y030373D01*
X020371Y029853D01*
X021491Y029853D01*
X021491Y030373D01*
X021491Y023373D02*
X020371Y023373D01*
X020371Y022853D01*
X021491Y022853D01*
X021491Y023373D01*
X021591Y016373D02*
X020471Y016373D01*
X020471Y015853D01*
X021591Y015853D01*
X021591Y016373D01*
X024109Y011033D02*
X024403Y011033D01*
X024403Y010960D01*
X024109Y010666D01*
X024109Y010593D01*
X024570Y010740D02*
X024570Y011033D01*
X024863Y011033D02*
X024863Y010740D01*
X024716Y010593D01*
X024570Y010740D01*
X025030Y010813D02*
X025324Y010813D01*
X025490Y010887D02*
X025637Y011033D01*
X025637Y010593D01*
X025490Y010593D02*
X025784Y010593D01*
X025951Y010666D02*
X026024Y010593D01*
X026171Y010593D01*
X026244Y010666D01*
X026244Y010813D01*
X026171Y010887D01*
X026098Y010887D01*
X025951Y010813D01*
X025951Y011033D01*
X026244Y011033D01*
X026411Y011033D02*
X026411Y010740D01*
X026558Y010593D01*
X026705Y010740D01*
X026705Y011033D01*
X027332Y011033D02*
X027332Y010593D01*
X027552Y010593D01*
X027626Y010666D01*
X027626Y010960D01*
X027552Y011033D01*
X027332Y011033D01*
X027792Y010960D02*
X027792Y010666D01*
X027866Y010593D01*
X028013Y010593D01*
X028086Y010666D01*
X028086Y010960D02*
X028013Y011033D01*
X027866Y011033D01*
X027792Y010960D01*
X023248Y005323D02*
X022821Y005323D01*
X022228Y005323D02*
X021801Y005323D01*
X022014Y005537D02*
X022014Y005110D01*
X021591Y008853D02*
X020471Y008853D01*
X020471Y009373D01*
X021591Y009373D01*
X021591Y008853D01*
D13*
X016975Y007763D02*
X016975Y014063D01*
X008313Y014063D01*
X008313Y007763D01*
X016975Y007763D01*
X016975Y014763D02*
X016975Y021063D01*
X008313Y021063D01*
X008313Y014763D01*
X016975Y014763D01*
X016975Y021763D02*
X016975Y028063D01*
X008313Y028063D01*
X008313Y021763D01*
X016975Y021763D01*
X016975Y028763D02*
X016975Y035063D01*
X008313Y035063D01*
X008313Y028763D01*
X016975Y028763D01*
X035747Y012933D02*
X034999Y011555D01*
X038463Y011594D02*
X038515Y011473D01*
X038561Y011351D01*
X038601Y011226D01*
X038634Y011100D01*
X038662Y010972D01*
X038684Y010843D01*
X038700Y010713D01*
X038709Y010583D01*
X038712Y010452D01*
X038709Y010321D01*
X038700Y010191D01*
X038684Y010061D01*
X038662Y009932D01*
X038634Y009804D01*
X038601Y009678D01*
X038561Y009553D01*
X038515Y009431D01*
X038463Y009310D01*
X038463Y009311D02*
X037715Y007893D01*
X035747Y007893D01*
X034999Y009271D01*
X034723Y007343D02*
X034723Y007164D01*
X034723Y006083D01*
X031729Y006083D01*
X031729Y006164D01*
X031729Y007343D01*
X034723Y007343D01*
X034723Y007262D02*
X034723Y007164D01*
X033506Y006888D02*
X033506Y006538D01*
X033356Y006538D02*
X033506Y006713D01*
X033356Y006888D01*
X033356Y006538D01*
X031729Y006187D02*
X031729Y006164D01*
X031423Y008483D02*
X028429Y008483D01*
X028429Y008564D01*
X028429Y009743D01*
X031423Y009743D01*
X031423Y009564D01*
X031423Y008483D01*
X031423Y009564D02*
X031423Y009662D01*
X030206Y009288D02*
X030206Y008938D01*
X030056Y008938D02*
X030206Y009113D01*
X030056Y009288D01*
X030056Y008938D01*
X028429Y008587D02*
X028429Y008564D01*
X035747Y012933D02*
X037715Y012933D01*
X038463Y011594D01*
X034999Y011555D02*
X034947Y011434D01*
X034901Y011312D01*
X034861Y011187D01*
X034828Y011061D01*
X034800Y010933D01*
X034778Y010804D01*
X034762Y010674D01*
X034753Y010544D01*
X034750Y010413D01*
X034753Y010282D01*
X034762Y010152D01*
X034778Y010022D01*
X034800Y009893D01*
X034828Y009765D01*
X034861Y009639D01*
X034901Y009514D01*
X034947Y009392D01*
X034999Y009271D01*
D14*
X004532Y007756D02*
X004532Y014133D01*
X004925Y014133D01*
X004925Y007756D01*
X004532Y007756D01*
X004925Y007756D02*
X007485Y007756D01*
X007485Y014133D01*
X004925Y014133D01*
X004925Y014756D02*
X004532Y014756D01*
X004532Y021133D01*
X004925Y021133D01*
X004925Y014756D01*
X007485Y014756D01*
X007485Y021133D01*
X004925Y021133D01*
X004925Y021756D02*
X004532Y021756D01*
X004532Y028133D01*
X004925Y028133D01*
X004925Y021756D01*
X007485Y021756D01*
X007485Y028133D01*
X004925Y028133D01*
X004925Y028756D02*
X004532Y028756D01*
X004532Y035133D01*
X004925Y035133D01*
X004925Y028756D01*
X007485Y028756D01*
X007485Y035133D01*
X004925Y035133D01*
X020876Y033299D02*
X020992Y033223D01*
X020998Y033213D02*
X020876Y033121D01*
X020998Y033032D02*
X020998Y033213D01*
X020998Y033394D01*
X020998Y026394D02*
X020998Y026213D01*
X020876Y026121D01*
X020998Y026032D02*
X020998Y026213D01*
X020992Y026223D02*
X020876Y026299D01*
X021098Y019394D02*
X021098Y019213D01*
X020976Y019121D01*
X021098Y019032D02*
X021098Y019213D01*
X021092Y019223D02*
X020976Y019299D01*
X021098Y012394D02*
X021098Y012213D01*
X020976Y012121D01*
X021098Y012032D02*
X021098Y012213D01*
X021092Y012223D02*
X020976Y012299D01*
X024159Y009507D02*
X024670Y009507D01*
X024159Y009507D02*
X024159Y005333D01*
X027899Y005333D01*
X027899Y007578D01*
X027899Y009192D02*
X027899Y009507D01*
X026521Y009507D01*
X027899Y005333D02*
X027910Y005333D01*
X035876Y005321D02*
X035998Y005413D01*
X035998Y005594D01*
X035876Y005499D02*
X035992Y005423D01*
X035998Y005413D02*
X035998Y005232D01*
X036331Y021413D02*
X035331Y021413D01*
X035331Y033413D01*
X036331Y033413D01*
X036331Y021413D01*
X029331Y021413D02*
X029331Y033413D01*
X028331Y033413D01*
X028331Y021413D01*
X029331Y021413D01*
D15*
X019531Y018813D03*
X019531Y025813D03*
X019531Y032813D03*
X019531Y011813D03*
D16*
X021031Y011613D03*
X021031Y010413D03*
X021031Y017413D03*
X021031Y018613D03*
X020931Y024413D03*
X020931Y025613D03*
X020931Y031413D03*
X020931Y032613D03*
X034631Y005413D03*
D17*
X033831Y019913D02*
X030831Y019913D01*
X030831Y020413D01*
X030831Y021413D01*
X033831Y021413D01*
X033831Y020413D01*
X036331Y020413D01*
X036331Y021413D01*
X033831Y020413D02*
X033831Y019913D01*
X030831Y020413D02*
X028331Y020413D01*
X028331Y021413D01*
X028331Y033413D02*
X029331Y034413D01*
X035331Y034413D01*
X036331Y033413D01*
D18*
X034343Y009113D02*
X034319Y009113D01*
D19*
X031110Y011003D02*
X030441Y010333D01*
X028551Y010333D01*
X028551Y011239D01*
X028551Y011987D02*
X028551Y012893D01*
X030441Y012893D01*
X031110Y012223D01*
X031110Y011987D01*
X031110Y011239D02*
X031110Y011003D01*
X030992Y011987D02*
X030970Y012051D01*
X030943Y012114D01*
X030913Y012176D01*
X030880Y012235D01*
X030844Y012293D01*
X030804Y012349D01*
X030761Y012402D01*
X030716Y012453D01*
X030668Y012501D01*
X030617Y012546D01*
X030563Y012589D01*
X030507Y012628D01*
X030450Y012665D01*
X030390Y012698D01*
X030328Y012727D01*
X030265Y012753D01*
X030201Y012776D01*
X030135Y012795D01*
X030068Y012810D01*
X030001Y012821D01*
X029933Y012829D01*
X029865Y012833D01*
X029797Y012833D01*
X029729Y012829D01*
X029661Y012821D01*
X029594Y012810D01*
X029527Y012795D01*
X029461Y012776D01*
X029397Y012753D01*
X029334Y012727D01*
X029272Y012698D01*
X029212Y012665D01*
X029155Y012628D01*
X029099Y012589D01*
X029045Y012546D01*
X028994Y012501D01*
X028946Y012453D01*
X028901Y012402D01*
X028858Y012349D01*
X028818Y012293D01*
X028782Y012235D01*
X028749Y012176D01*
X028719Y012114D01*
X028692Y012051D01*
X028670Y011987D01*
X028670Y011239D02*
X028692Y011175D01*
X028719Y011112D01*
X028749Y011050D01*
X028782Y010991D01*
X028818Y010933D01*
X028858Y010877D01*
X028901Y010824D01*
X028946Y010773D01*
X028994Y010725D01*
X029045Y010680D01*
X029099Y010637D01*
X029155Y010598D01*
X029212Y010561D01*
X029272Y010528D01*
X029334Y010499D01*
X029397Y010473D01*
X029461Y010450D01*
X029527Y010431D01*
X029594Y010416D01*
X029661Y010405D01*
X029729Y010397D01*
X029797Y010393D01*
X029865Y010393D01*
X029933Y010397D01*
X030001Y010405D01*
X030068Y010416D01*
X030135Y010431D01*
X030201Y010450D01*
X030265Y010473D01*
X030328Y010499D01*
X030390Y010528D01*
X030450Y010561D01*
X030507Y010598D01*
X030563Y010637D01*
X030617Y010680D01*
X030668Y010725D01*
X030716Y010773D01*
X030761Y010824D01*
X030804Y010877D01*
X030844Y010933D01*
X030880Y010991D01*
X030913Y011050D01*
X030943Y011112D01*
X030970Y011175D01*
X030992Y011239D01*
X030441Y007893D02*
X028551Y007893D01*
X028551Y006987D01*
X028551Y006239D02*
X028551Y005333D01*
X030441Y005333D01*
X031110Y006003D01*
X031110Y006239D01*
X031110Y006987D02*
X031110Y007223D01*
X030441Y007893D01*
X030992Y006239D02*
X030970Y006175D01*
X030943Y006112D01*
X030913Y006050D01*
X030880Y005991D01*
X030844Y005933D01*
X030804Y005877D01*
X030761Y005824D01*
X030716Y005773D01*
X030668Y005725D01*
X030617Y005680D01*
X030563Y005637D01*
X030507Y005598D01*
X030450Y005561D01*
X030390Y005528D01*
X030328Y005499D01*
X030265Y005473D01*
X030201Y005450D01*
X030135Y005431D01*
X030068Y005416D01*
X030001Y005405D01*
X029933Y005397D01*
X029865Y005393D01*
X029797Y005393D01*
X029729Y005397D01*
X029661Y005405D01*
X029594Y005416D01*
X029527Y005431D01*
X029461Y005450D01*
X029397Y005473D01*
X029334Y005499D01*
X029272Y005528D01*
X029212Y005561D01*
X029155Y005598D01*
X029099Y005637D01*
X029045Y005680D01*
X028994Y005725D01*
X028946Y005773D01*
X028901Y005824D01*
X028858Y005877D01*
X028818Y005933D01*
X028782Y005991D01*
X028749Y006050D01*
X028719Y006112D01*
X028692Y006175D01*
X028670Y006239D01*
X028670Y006987D02*
X028692Y007051D01*
X028719Y007114D01*
X028749Y007176D01*
X028782Y007235D01*
X028818Y007293D01*
X028858Y007349D01*
X028901Y007402D01*
X028946Y007453D01*
X028994Y007501D01*
X029045Y007546D01*
X029099Y007589D01*
X029155Y007628D01*
X029212Y007665D01*
X029272Y007698D01*
X029334Y007727D01*
X029397Y007753D01*
X029461Y007776D01*
X029527Y007795D01*
X029594Y007810D01*
X029661Y007821D01*
X029729Y007829D01*
X029797Y007833D01*
X029865Y007833D01*
X029933Y007829D01*
X030001Y007821D01*
X030068Y007810D01*
X030135Y007795D01*
X030201Y007776D01*
X030265Y007753D01*
X030328Y007727D01*
X030390Y007698D01*
X030450Y007665D01*
X030507Y007628D01*
X030563Y007589D01*
X030617Y007546D01*
X030668Y007501D01*
X030716Y007453D01*
X030761Y007402D01*
X030804Y007349D01*
X030844Y007293D01*
X030880Y007235D01*
X030913Y007176D01*
X030943Y007114D01*
X030970Y007051D01*
X030992Y006987D01*
M02*
