G75*
G70*
%OFA0B0*%
%FSLAX24Y24*%
%IPPOS*%
%LPD*%
%AMOC8*
5,1,8,0,0,1.08239X$1,22.5*
%
%ADD10C,0.0110*%
%ADD11C,0.0080*%
%ADD12C,0.0059*%
D10*
X034531Y035371D02*
X034531Y035962D01*
X034236Y035962D01*
X034138Y035863D01*
X034138Y035666D01*
X034236Y035568D01*
X034531Y035568D01*
X034782Y035666D02*
X034881Y035765D01*
X035078Y035765D01*
X035176Y035863D01*
X035078Y035962D01*
X034782Y035962D01*
X034782Y035666D02*
X034881Y035568D01*
X035176Y035568D01*
X035176Y036618D02*
X035176Y037208D01*
X034881Y037208D01*
X034782Y037110D01*
X034782Y036913D01*
X034881Y036815D01*
X035176Y036815D01*
X034979Y036815D02*
X034782Y036618D01*
X034531Y036716D02*
X034531Y036913D01*
X034433Y037012D01*
X034236Y037012D01*
X034138Y036913D01*
X034138Y036815D01*
X034531Y036815D01*
X034531Y036716D02*
X034433Y036618D01*
X034236Y036618D01*
X033887Y036618D02*
X033690Y036618D01*
X033788Y036618D02*
X033788Y037208D01*
X033887Y037208D01*
X033359Y037012D02*
X033162Y037012D01*
X033064Y036913D01*
X033064Y036618D01*
X033359Y036618D01*
X033457Y036716D01*
X033359Y036815D01*
X033064Y036815D01*
X032813Y036716D02*
X032714Y036618D01*
X032419Y036618D01*
X032419Y036520D02*
X032517Y036421D01*
X032616Y036421D01*
X032419Y036520D02*
X032419Y037012D01*
X032813Y037012D02*
X032813Y036716D01*
X032705Y036158D02*
X032705Y035568D01*
X032705Y035765D02*
X032410Y035962D01*
X032168Y035863D02*
X032070Y035962D01*
X031774Y035962D01*
X031774Y036158D02*
X031774Y035568D01*
X032070Y035568D01*
X032168Y035666D01*
X032168Y035863D01*
X032410Y035568D02*
X032705Y035765D01*
X032947Y035962D02*
X033045Y035962D01*
X033242Y035765D01*
X033242Y035568D02*
X033242Y035962D01*
X033493Y035863D02*
X033493Y035568D01*
X033788Y035568D01*
X033887Y035666D01*
X033788Y035765D01*
X033493Y035765D01*
X033493Y035863D02*
X033592Y035962D01*
X033788Y035962D01*
X031524Y035863D02*
X031425Y035962D01*
X031228Y035962D01*
X031130Y035863D01*
X031130Y035765D01*
X031524Y035765D01*
X031524Y035863D02*
X031524Y035666D01*
X031425Y035568D01*
X031228Y035568D01*
X030879Y035962D02*
X030682Y035568D01*
X030485Y035962D01*
X030234Y035962D02*
X030136Y035962D01*
X030136Y035568D01*
X030234Y035568D02*
X030038Y035568D01*
X029805Y035666D02*
X029706Y035568D01*
X029411Y035568D01*
X029160Y035666D02*
X029160Y035863D01*
X029062Y035962D01*
X028865Y035962D01*
X028767Y035863D01*
X028767Y035765D01*
X029160Y035765D01*
X029160Y035666D02*
X029062Y035568D01*
X028865Y035568D01*
X028516Y035568D02*
X028220Y035568D01*
X028122Y035666D01*
X028220Y035765D01*
X028417Y035765D01*
X028516Y035863D01*
X028417Y035962D01*
X028122Y035962D01*
X027871Y035666D02*
X027773Y035666D01*
X027773Y035568D01*
X027871Y035568D01*
X027871Y035666D01*
X027549Y035666D02*
X027450Y035568D01*
X027155Y035568D01*
X026904Y035666D02*
X026806Y035568D01*
X026609Y035568D01*
X026511Y035666D01*
X026511Y035863D01*
X026609Y035962D01*
X026806Y035962D01*
X026904Y035863D01*
X026904Y035666D01*
X027155Y035962D02*
X027450Y035962D01*
X027549Y035863D01*
X027549Y035666D01*
X027245Y036618D02*
X027048Y037012D01*
X026797Y037110D02*
X026698Y037208D01*
X026502Y037208D01*
X026403Y037110D01*
X026403Y037012D01*
X026797Y036618D01*
X026403Y036618D01*
X026152Y036618D02*
X026054Y036618D01*
X026054Y036716D01*
X026152Y036716D01*
X026152Y036618D01*
X025830Y036716D02*
X025830Y037110D01*
X025732Y037208D01*
X025535Y037208D01*
X025436Y037110D01*
X025830Y036716D01*
X025732Y036618D01*
X025535Y036618D01*
X025436Y036716D01*
X025436Y037110D01*
X025964Y035962D02*
X025866Y035863D01*
X025866Y035568D01*
X026063Y035568D02*
X026063Y035863D01*
X025964Y035962D01*
X026063Y035863D02*
X026161Y035962D01*
X026260Y035962D01*
X026260Y035568D01*
X027245Y036618D02*
X027441Y037012D01*
X028337Y037012D02*
X028632Y037012D01*
X028730Y036913D01*
X028730Y036716D01*
X028632Y036618D01*
X028337Y036618D01*
X028337Y037208D01*
X029062Y037208D02*
X029062Y036618D01*
X029160Y036618D02*
X028963Y036618D01*
X029411Y036815D02*
X029805Y036815D01*
X029805Y036913D02*
X029706Y037012D01*
X029509Y037012D01*
X029411Y036913D01*
X029411Y036815D01*
X029509Y036618D02*
X029706Y036618D01*
X029805Y036716D01*
X029805Y036913D01*
X030136Y037012D02*
X030136Y036618D01*
X030234Y036618D02*
X030038Y036618D01*
X030136Y036257D02*
X030136Y036158D01*
X029805Y035863D02*
X029805Y035666D01*
X029805Y035863D02*
X029706Y035962D01*
X029411Y035962D01*
X030136Y037012D02*
X030234Y037012D01*
X030136Y037208D02*
X030136Y037307D01*
X030485Y036913D02*
X030485Y036618D01*
X030485Y036913D02*
X030584Y037012D01*
X030781Y037012D01*
X030879Y036913D01*
X031130Y036815D02*
X031130Y036716D01*
X031228Y036618D01*
X031425Y036618D01*
X031524Y036716D01*
X031425Y036913D02*
X031228Y036913D01*
X031130Y036815D01*
X031130Y037110D02*
X031228Y037208D01*
X031425Y037208D01*
X031524Y037110D01*
X031524Y037012D01*
X031425Y036913D01*
X030879Y037208D02*
X030879Y036618D01*
X029160Y037208D02*
X029062Y037208D01*
D11*
X006677Y008606D02*
X006831Y008453D01*
X007138Y008453D01*
X007291Y008606D01*
X007291Y009220D01*
X007138Y009374D01*
X006831Y009374D01*
X006677Y009220D01*
X007598Y009374D02*
X007598Y008453D01*
X008212Y009374D01*
X008212Y008453D01*
X008291Y010453D02*
X008291Y011374D01*
X007984Y011067D01*
X007677Y011374D01*
X007677Y010453D01*
X007370Y010453D02*
X007370Y011374D01*
X007063Y011067D01*
X006756Y011374D01*
X006756Y010453D01*
X006831Y012453D02*
X006677Y012606D01*
X006677Y013220D01*
X006831Y013374D01*
X007138Y013374D01*
X007291Y013220D01*
X007291Y012606D01*
X007138Y012453D01*
X006831Y012453D01*
X007598Y012453D02*
X007598Y013374D01*
X008212Y013374D02*
X007598Y012453D01*
X008212Y012453D02*
X008212Y013374D01*
X008751Y011374D02*
X008598Y011220D01*
X008598Y010606D01*
X008751Y010453D01*
X009058Y010453D01*
X009212Y010606D01*
X009212Y011220D01*
X009058Y011374D01*
X008751Y011374D01*
X009519Y011220D02*
X009672Y011374D01*
X009979Y011374D01*
X010133Y011220D01*
X010133Y010606D01*
X009979Y010453D01*
X009672Y010453D01*
X009519Y010606D01*
X008212Y015453D02*
X008212Y016374D01*
X007598Y015453D01*
X007598Y016374D01*
X007291Y016220D02*
X007291Y015606D01*
X007138Y015453D01*
X006831Y015453D01*
X006677Y015606D01*
X006677Y016220D02*
X006831Y016374D01*
X007138Y016374D01*
X007291Y016220D01*
X007370Y017453D02*
X007370Y018374D01*
X007063Y018067D01*
X006756Y018374D01*
X006756Y017453D01*
X007677Y017453D02*
X007677Y018374D01*
X007984Y018067D01*
X008291Y018374D01*
X008291Y017453D01*
X008598Y017606D02*
X008598Y018220D01*
X008751Y018374D01*
X009058Y018374D01*
X009212Y018220D01*
X009212Y017606D01*
X009058Y017453D01*
X008751Y017453D01*
X008598Y017606D01*
X009519Y017606D02*
X009672Y017453D01*
X009979Y017453D01*
X010133Y017606D01*
X010133Y018220D01*
X009979Y018374D01*
X009672Y018374D01*
X009519Y018220D01*
X008212Y019453D02*
X008212Y020374D01*
X007598Y019453D01*
X007598Y020374D01*
X007291Y020220D02*
X007291Y019606D01*
X007138Y019453D01*
X006831Y019453D01*
X006677Y019606D01*
X006677Y020220D01*
X006831Y020374D01*
X007138Y020374D01*
X007291Y020220D01*
X007138Y022453D02*
X006831Y022453D01*
X006677Y022606D01*
X007138Y022453D02*
X007291Y022606D01*
X007291Y023220D01*
X007138Y023374D01*
X006831Y023374D01*
X006677Y023220D01*
X007598Y023374D02*
X007598Y022453D01*
X008212Y023374D01*
X008212Y022453D01*
X008291Y024453D02*
X008291Y025374D01*
X007984Y025067D01*
X007677Y025374D01*
X007677Y024453D01*
X007370Y024453D02*
X007370Y025374D01*
X007063Y025067D01*
X006756Y025374D01*
X006756Y024453D01*
X008598Y024606D02*
X008598Y025220D01*
X008751Y025374D01*
X009058Y025374D01*
X009212Y025220D01*
X009212Y024606D01*
X009058Y024453D01*
X008751Y024453D01*
X008598Y024606D01*
X009519Y024606D02*
X009672Y024453D01*
X009979Y024453D01*
X010133Y024606D01*
X010133Y025220D01*
X009979Y025374D01*
X009672Y025374D01*
X009519Y025220D01*
X008212Y026453D02*
X008212Y027374D01*
X007598Y026453D01*
X007598Y027374D01*
X007291Y027220D02*
X007291Y026606D01*
X007138Y026453D01*
X006831Y026453D01*
X006677Y026606D01*
X006677Y027220D01*
X006831Y027374D01*
X007138Y027374D01*
X007291Y027220D01*
X007138Y029453D02*
X006831Y029453D01*
X006677Y029606D01*
X007138Y029453D02*
X007291Y029606D01*
X007291Y030220D01*
X007138Y030374D01*
X006831Y030374D01*
X006677Y030220D01*
X007598Y030374D02*
X007598Y029453D01*
X008212Y030374D01*
X008212Y029453D01*
X008291Y031453D02*
X008291Y032374D01*
X007984Y032067D01*
X007677Y032374D01*
X007677Y031453D01*
X007370Y031453D02*
X007370Y032374D01*
X007063Y032067D01*
X006756Y032374D01*
X006756Y031453D01*
X008598Y031606D02*
X008598Y032220D01*
X008751Y032374D01*
X009058Y032374D01*
X009212Y032220D01*
X009212Y031606D01*
X009058Y031453D01*
X008751Y031453D01*
X008598Y031606D01*
X009519Y031606D02*
X009672Y031453D01*
X009979Y031453D01*
X010133Y031606D01*
X010133Y032220D01*
X009979Y032374D01*
X009672Y032374D01*
X009519Y032220D01*
X008212Y033453D02*
X008212Y034374D01*
X007598Y033453D01*
X007598Y034374D01*
X007291Y034220D02*
X007291Y033606D01*
X007138Y033453D01*
X006831Y033453D01*
X006677Y033606D01*
X006677Y034220D01*
X006831Y034374D01*
X007138Y034374D01*
X007291Y034220D01*
D12*
X031354Y027533D02*
X031672Y027565D01*
X031706Y027672D01*
X031757Y027772D01*
X031555Y028019D01*
X031725Y028189D01*
X031972Y027987D01*
X032072Y028038D01*
X032179Y028072D01*
X032211Y028390D01*
X032451Y028390D01*
X032483Y028072D01*
X032590Y028038D01*
X032690Y027987D01*
X032937Y028189D01*
X033107Y028019D01*
X032905Y027772D01*
X032956Y027672D01*
X032990Y027565D01*
X033308Y027533D01*
X033308Y027293D01*
X032990Y027261D01*
X032956Y027154D01*
X032905Y027054D01*
X033107Y026807D01*
X032937Y026637D01*
X032690Y026839D01*
X032590Y026788D01*
X032449Y027129D01*
X032502Y027157D01*
X032548Y027195D01*
X032587Y027242D01*
X032615Y027295D01*
X032633Y027353D01*
X032639Y027413D01*
X032632Y027476D01*
X032613Y027536D01*
X032582Y027591D01*
X032540Y027638D01*
X032490Y027676D01*
X032433Y027703D01*
X032371Y027718D01*
X032308Y027720D01*
X032246Y027709D01*
X032187Y027685D01*
X032135Y027650D01*
X032090Y027605D01*
X032056Y027552D01*
X032034Y027493D01*
X032024Y027430D01*
X032027Y027367D01*
X032043Y027306D01*
X032071Y027249D01*
X032109Y027200D01*
X032158Y027159D01*
X032213Y027129D01*
X032072Y026788D01*
X031972Y026839D01*
X031725Y026637D01*
X031555Y026807D01*
X031757Y027054D01*
X031706Y027154D01*
X031672Y027261D01*
X031354Y027293D01*
X031354Y027533D01*
X031354Y027532D02*
X032049Y027532D01*
X032031Y027475D02*
X031354Y027475D01*
X031354Y027417D02*
X032024Y027417D01*
X032029Y027360D02*
X031354Y027360D01*
X031354Y027302D02*
X032045Y027302D01*
X032074Y027244D02*
X031677Y027244D01*
X031695Y027187D02*
X032124Y027187D01*
X032212Y027129D02*
X031719Y027129D01*
X031748Y027072D02*
X032190Y027072D01*
X032166Y027014D02*
X031724Y027014D01*
X031677Y026957D02*
X032142Y026957D01*
X032118Y026899D02*
X031631Y026899D01*
X031584Y026842D02*
X032094Y026842D01*
X031905Y026784D02*
X031578Y026784D01*
X031636Y026726D02*
X031834Y026726D01*
X031764Y026669D02*
X031693Y026669D01*
X032472Y027072D02*
X032914Y027072D01*
X032938Y027014D02*
X032496Y027014D01*
X032520Y026957D02*
X032985Y026957D01*
X033031Y026899D02*
X032544Y026899D01*
X032568Y026842D02*
X033078Y026842D01*
X033084Y026784D02*
X032757Y026784D01*
X032828Y026726D02*
X033026Y026726D01*
X032968Y026669D02*
X032898Y026669D01*
X032943Y027129D02*
X032450Y027129D01*
X032538Y027187D02*
X032967Y027187D01*
X032985Y027244D02*
X032588Y027244D01*
X032617Y027302D02*
X033308Y027302D01*
X033308Y027360D02*
X032633Y027360D01*
X032638Y027417D02*
X033308Y027417D01*
X033308Y027475D02*
X032632Y027475D01*
X032614Y027532D02*
X033308Y027532D01*
X032982Y027590D02*
X032583Y027590D01*
X032528Y027647D02*
X032964Y027647D01*
X032939Y027705D02*
X032426Y027705D01*
X032237Y027705D02*
X031723Y027705D01*
X031698Y027647D02*
X032132Y027647D01*
X032081Y027590D02*
X031680Y027590D01*
X031752Y027762D02*
X032910Y027762D01*
X032944Y027820D02*
X031718Y027820D01*
X031671Y027878D02*
X032991Y027878D01*
X033038Y027935D02*
X031624Y027935D01*
X031577Y027993D02*
X031965Y027993D01*
X031984Y027993D02*
X032678Y027993D01*
X032697Y027993D02*
X033085Y027993D01*
X033075Y028050D02*
X032767Y028050D01*
X032838Y028108D02*
X033018Y028108D01*
X032960Y028165D02*
X032908Y028165D01*
X032552Y028050D02*
X032110Y028050D01*
X032182Y028108D02*
X032480Y028108D01*
X032474Y028165D02*
X032188Y028165D01*
X032194Y028223D02*
X032468Y028223D01*
X032462Y028280D02*
X032200Y028280D01*
X032206Y028338D02*
X032456Y028338D01*
X031895Y028050D02*
X031587Y028050D01*
X031644Y028108D02*
X031824Y028108D01*
X031753Y028165D02*
X031702Y028165D01*
M02*
