%
M48
M72
T01C0.0276
T02C0.0320
T03C0.0354
T04C0.0394
T05C0.0400
T06C0.0433
T07C0.0440
T08C0.0512
T09C0.1260
%
T01
X14100Y2160
X14100Y3160
X17100Y3160
X17100Y2160
X20100Y8660
X21100Y8660
T02
X26100Y2160
X27100Y2160
X14600Y6160
X13600Y6160
X13600Y8160
X14100Y8910
X14600Y8160
X14600Y13160
X13600Y13160
X13600Y15160
X14100Y15910
X14600Y15160
X14600Y20160
X13600Y20160
X13600Y22160
X14100Y22910
X14600Y22160
X14600Y27160
X13600Y27160
X13600Y29160
X14100Y29910
X14600Y29160
T03
X15100Y31160
X15100Y32160
X12100Y32160
X12100Y31160
X12100Y25160
X12100Y24160
X15100Y24160
X15100Y25160
X18600Y26160
X18600Y27160
X18600Y28160
X18600Y29160
X21600Y29160
X21600Y28160
X21600Y27160
X21600Y26160
X15100Y18160
X15100Y17060
X12100Y17060
X12100Y18160
X12100Y11160
X12100Y10160
X15100Y10160
X15100Y11160
X26100Y3760
X29100Y3760
T04
X21584Y5412
X19616Y6593
X19616Y4113
T05
X11100Y2660
X10100Y2660
X9100Y2660
X22600Y18160
X22600Y19160
X22600Y20160
X22600Y21160
X22600Y22160
X22600Y23160
X22600Y24160
X22600Y25160
X22600Y26160
X22600Y27160
X22600Y28160
X22600Y29160
X23600Y29160
X23600Y28160
X23600Y27160
X23600Y26160
X23600Y25160
X23600Y24160
X23600Y23160
X23600Y22160
X23600Y21160
X23600Y20160
X23600Y19160
X23600Y18160
X29600Y18160
X29600Y19160
X29600Y20160
X29600Y21160
X29600Y22160
X29600Y23160
X29600Y24160
X29600Y25160
X29600Y26160
X29600Y27160
X29600Y28160
X29600Y29160
X30600Y29160
X30600Y28160
X30600Y27160
X30600Y26160
X30600Y25160
X30600Y24160
X30600Y23160
X30600Y22160
X30600Y21160
X30600Y20160
X30600Y19160
X30600Y18160
T06
X10838Y21160
X10070Y18847
X10070Y16473
X10838Y14160
X10070Y11847
X10070Y9473
X10838Y7160
X10070Y4847
X5130Y4847
X5130Y9473
X5130Y11847
X5130Y16473
X5130Y18847
X5130Y23473
X5130Y25847
X5130Y30473
X10070Y30473
X10838Y28160
X10070Y25847
X10070Y23473
T07
X12100Y23160
X12100Y26160
X12100Y30160
X12100Y19160
X12100Y16160
X12100Y12160
X12100Y9160
X12100Y5160
X23600Y2160
X24600Y2160
T08
X1600Y5223
X1600Y7191
X1600Y9160
X1600Y12223
X1600Y14191
X1600Y16160
X1600Y19223
X1600Y21191
X1600Y23160
X1600Y26223
X1600Y28191
X1600Y30160
T09
X1600Y2660
X1600Y32660
X30600Y32660
X30600Y2660
M30
