G75*
G70*
%OFA0B0*%
%FSLAX24Y24*%
%IPPOS*%
%LPD*%
%AMOC8*
5,1,8,0,0,1.08239X$1,22.5*
%
%ADD10C,0.0673*%
%ADD11R,0.0950X0.0950*%
%ADD12C,0.0950*%
%ADD13OC8,0.0560*%
%ADD14C,0.0740*%
%ADD15C,0.0680*%
%ADD16C,0.0640*%
%ADD17C,0.0650*%
%ADD18R,0.0650X0.0650*%
%ADD19C,0.0740*%
%ADD20C,0.0787*%
%ADD21C,0.0120*%
%ADD22C,0.0660*%
%ADD23C,0.0400*%
%ADD24C,0.0160*%
%ADD25C,0.0320*%
%ADD26C,0.0560*%
%ADD27C,0.1000*%
D10*
X009362Y008080D03*
X009362Y012706D03*
X009362Y015080D03*
X009362Y019706D03*
X009362Y022080D03*
X009362Y026706D03*
X009362Y029080D03*
X009362Y033706D03*
X014303Y033706D03*
X015071Y031393D03*
X014303Y029080D03*
X014303Y026706D03*
X015071Y024393D03*
X014303Y022080D03*
X014303Y019706D03*
X015071Y017393D03*
X014303Y015080D03*
X014303Y012706D03*
X015071Y010393D03*
X014303Y008080D03*
D11*
X005833Y012393D03*
X005833Y019393D03*
X005833Y026393D03*
X005833Y033393D03*
D12*
X005833Y008456D03*
X005833Y010425D03*
X005833Y015456D03*
X005833Y017425D03*
X005833Y022456D03*
X005833Y024425D03*
X005833Y029456D03*
X005833Y031425D03*
D13*
X017833Y032393D03*
X018333Y033143D03*
X018833Y032393D03*
X018333Y026143D03*
X018833Y025393D03*
X017833Y025393D03*
X018333Y019143D03*
X018833Y018393D03*
X017833Y018393D03*
X018333Y012143D03*
X018833Y011393D03*
X017833Y011393D03*
D14*
X017833Y009393D03*
X018833Y009393D03*
X019333Y013393D03*
X019333Y014393D03*
X018833Y016393D03*
X017833Y016393D03*
X016333Y014393D03*
X016333Y013393D03*
X016333Y020293D03*
X016333Y021393D03*
X017833Y023393D03*
X018833Y023393D03*
X019333Y021393D03*
X019333Y020293D03*
X025833Y021393D03*
X026833Y021393D03*
X027833Y021393D03*
X027833Y022393D03*
X027833Y023393D03*
X026833Y023393D03*
X026833Y022393D03*
X025833Y022393D03*
X025833Y023393D03*
X025833Y024393D03*
X026833Y024393D03*
X026833Y025393D03*
X025833Y025393D03*
X025833Y026393D03*
X026833Y026393D03*
X026833Y027393D03*
X025833Y027393D03*
X025833Y028393D03*
X026833Y028393D03*
X027833Y028393D03*
X027833Y027393D03*
X027833Y026393D03*
X027833Y025393D03*
X027833Y024393D03*
X032833Y024393D03*
X032833Y025393D03*
X033833Y025393D03*
X033833Y024393D03*
X034833Y024393D03*
X034833Y025393D03*
X034833Y026393D03*
X033833Y026393D03*
X033833Y027393D03*
X034833Y027393D03*
X034833Y028393D03*
X033833Y028393D03*
X032833Y028393D03*
X032833Y027393D03*
X032833Y026393D03*
X032833Y029393D03*
X032833Y030393D03*
X033833Y030393D03*
X033833Y029393D03*
X034833Y029393D03*
X034833Y030393D03*
X034833Y031393D03*
X033833Y031393D03*
X033833Y032393D03*
X034833Y032393D03*
X032833Y032393D03*
X032833Y031393D03*
X027833Y031393D03*
X027833Y032393D03*
X026833Y032393D03*
X026833Y031393D03*
X025833Y031393D03*
X025833Y032393D03*
X024833Y032393D03*
X024833Y031393D03*
X024833Y030393D03*
X024833Y029393D03*
X025833Y029393D03*
X026833Y029393D03*
X026833Y030393D03*
X025833Y030393D03*
X027833Y030393D03*
X027833Y029393D03*
X021833Y029393D03*
X021833Y030393D03*
X021833Y031393D03*
X021833Y032393D03*
X019333Y034393D03*
X019333Y035393D03*
X016333Y035393D03*
X016333Y034393D03*
X017833Y030393D03*
X018833Y030393D03*
X019333Y028393D03*
X019333Y027393D03*
X016333Y027393D03*
X016333Y028393D03*
X032833Y023393D03*
X032833Y022393D03*
X032833Y021393D03*
X033833Y021393D03*
X034833Y021393D03*
X034833Y022393D03*
X033833Y022393D03*
X033833Y023393D03*
X034833Y023393D03*
X033333Y006993D03*
X031333Y005393D03*
X030333Y005393D03*
X030333Y006993D03*
D15*
X016333Y008393D03*
X016333Y012393D03*
X016333Y015393D03*
X016333Y019393D03*
X016333Y022393D03*
X016333Y026393D03*
X016333Y029393D03*
X016333Y033393D03*
D16*
X012833Y005813D02*
X012833Y005173D01*
X011833Y005173D02*
X011833Y005813D01*
X010833Y005813D02*
X010833Y005173D01*
D17*
X016833Y006393D03*
X019933Y006393D03*
X024433Y012193D03*
D18*
X024433Y011193D03*
X019933Y005393D03*
X016833Y005393D03*
D19*
X027833Y005763D02*
X027833Y005023D01*
X028833Y005023D02*
X028833Y005763D01*
D20*
X026017Y007252D02*
X026017Y008039D01*
X024442Y008826D02*
X023655Y008826D01*
X023655Y006346D02*
X024442Y006346D01*
D21*
X024087Y006308D02*
X024087Y006384D01*
X024996Y006384D01*
X024996Y006390D01*
X024982Y006476D01*
X024956Y006559D01*
X024916Y006636D01*
X024865Y006707D01*
X024803Y006768D01*
X024733Y006820D01*
X024655Y006859D01*
X024572Y006886D01*
X024486Y006900D01*
X024087Y006900D01*
X024087Y006384D01*
X024010Y006384D01*
X024010Y006308D01*
X023101Y006308D01*
X023101Y006302D01*
X023115Y006216D01*
X023142Y006134D01*
X023181Y006056D01*
X023233Y005985D01*
X023294Y005924D01*
X023365Y005872D01*
X023442Y005833D01*
X023525Y005806D01*
X023611Y005792D01*
X024010Y005792D01*
X024010Y006308D01*
X024087Y006308D01*
X024996Y006308D01*
X024996Y006302D01*
X024982Y006216D01*
X024956Y006134D01*
X024916Y006056D01*
X024865Y005985D01*
X024803Y005924D01*
X024733Y005872D01*
X024655Y005833D01*
X024572Y005806D01*
X024486Y005792D01*
X024087Y005792D01*
X024087Y006308D01*
X024087Y006289D02*
X024010Y006289D01*
X024010Y006384D02*
X023101Y006384D01*
X023101Y006390D01*
X023115Y006476D01*
X023142Y006559D01*
X023181Y006636D01*
X023233Y006707D01*
X023294Y006768D01*
X023365Y006820D01*
X023442Y006859D01*
X023525Y006886D01*
X023611Y006900D01*
X024010Y006900D01*
X024010Y006384D01*
X024010Y006408D02*
X024087Y006408D01*
X024087Y006526D02*
X024010Y006526D01*
X024010Y006645D02*
X024087Y006645D01*
X024087Y006763D02*
X024010Y006763D01*
X024010Y006882D02*
X024087Y006882D01*
X024585Y006882D02*
X025604Y006882D01*
X025595Y006891D02*
X025656Y006829D01*
X025727Y006778D01*
X025805Y006738D01*
X025888Y006712D01*
X025974Y006698D01*
X025979Y006698D01*
X025979Y007607D01*
X026056Y007607D01*
X026056Y007684D01*
X026571Y007684D01*
X026571Y008083D01*
X026557Y008169D01*
X026530Y008252D01*
X026491Y008329D01*
X026440Y008400D01*
X026378Y008461D01*
X026307Y008513D01*
X026230Y008552D01*
X026147Y008579D01*
X026061Y008593D01*
X026056Y008593D01*
X026056Y007684D01*
X025979Y007684D01*
X025979Y008593D01*
X025974Y008593D01*
X025888Y008579D01*
X025805Y008552D01*
X025727Y008513D01*
X025656Y008461D01*
X025595Y008400D01*
X025544Y008329D01*
X025504Y008252D01*
X025477Y008169D01*
X025463Y008083D01*
X025463Y007684D01*
X025979Y007684D01*
X025979Y007607D01*
X025463Y007607D01*
X025463Y007208D01*
X025477Y007122D01*
X025504Y007039D01*
X025544Y006961D01*
X025595Y006891D01*
X025524Y007000D02*
X016333Y007000D01*
X016333Y007023D02*
X022809Y007023D01*
X022982Y007095D01*
X024180Y008293D01*
X024549Y008293D01*
X024745Y008374D01*
X024895Y008524D01*
X024976Y008720D01*
X024976Y008923D01*
X026338Y008923D01*
X027363Y007899D01*
X027363Y005961D01*
X027323Y005865D01*
X027323Y004922D01*
X027401Y004734D01*
X027544Y004591D01*
X027635Y004553D01*
X016333Y004553D01*
X016333Y007023D01*
X016333Y006882D02*
X023512Y006882D01*
X023289Y006763D02*
X020249Y006763D01*
X020187Y006808D01*
X020119Y006843D01*
X020047Y006866D01*
X019971Y006878D01*
X019942Y006878D01*
X019942Y006402D01*
X020418Y006402D01*
X020418Y006431D01*
X020406Y006507D01*
X020382Y006579D01*
X020348Y006648D01*
X020303Y006709D01*
X020249Y006763D01*
X020349Y006645D02*
X023188Y006645D01*
X023131Y006526D02*
X020400Y006526D01*
X020418Y006408D02*
X023104Y006408D01*
X023103Y006289D02*
X020408Y006289D01*
X020406Y006280D02*
X020418Y006355D01*
X020418Y006384D01*
X019942Y006384D01*
X019942Y005908D01*
X019971Y005908D01*
X020047Y005920D01*
X020119Y005944D01*
X020187Y005978D01*
X020249Y006023D01*
X020303Y006077D01*
X020348Y006139D01*
X020382Y006207D01*
X020406Y006280D01*
X020364Y006171D02*
X023130Y006171D01*
X023184Y006052D02*
X020278Y006052D01*
X020316Y005858D02*
X019550Y005858D01*
X019468Y005776D01*
X019468Y005010D01*
X019550Y004928D01*
X020316Y004928D01*
X020398Y005010D01*
X020398Y005776D01*
X020316Y005858D01*
X020359Y005815D02*
X023497Y005815D01*
X023284Y005934D02*
X020088Y005934D01*
X019942Y005934D02*
X019924Y005934D01*
X019924Y005908D02*
X019924Y006384D01*
X019942Y006384D01*
X019942Y006402D01*
X019924Y006402D01*
X019924Y006384D01*
X019448Y006384D01*
X019448Y006355D01*
X019460Y006280D01*
X019483Y006207D01*
X019518Y006139D01*
X019563Y006077D01*
X019617Y006023D01*
X019679Y005978D01*
X019747Y005944D01*
X019819Y005920D01*
X019895Y005908D01*
X019924Y005908D01*
X019924Y006052D02*
X019942Y006052D01*
X019942Y006171D02*
X019924Y006171D01*
X019924Y006289D02*
X019942Y006289D01*
X019924Y006402D02*
X019448Y006402D01*
X019448Y006431D01*
X019460Y006507D01*
X019483Y006579D01*
X019518Y006648D01*
X019563Y006709D01*
X019617Y006763D01*
X019679Y006808D01*
X019747Y006843D01*
X019819Y006866D01*
X019895Y006878D01*
X019924Y006878D01*
X019924Y006402D01*
X019924Y006408D02*
X019942Y006408D01*
X019942Y006526D02*
X019924Y006526D01*
X019924Y006645D02*
X019942Y006645D01*
X019942Y006763D02*
X019924Y006763D01*
X019617Y006763D02*
X017149Y006763D01*
X017087Y006808D01*
X017019Y006843D01*
X016947Y006866D01*
X016871Y006878D01*
X016842Y006878D01*
X016842Y006402D01*
X017318Y006402D01*
X017318Y006431D01*
X017306Y006507D01*
X017282Y006579D01*
X017248Y006648D01*
X017203Y006709D01*
X017149Y006763D01*
X017249Y006645D02*
X019517Y006645D01*
X019466Y006526D02*
X017300Y006526D01*
X017318Y006408D02*
X019448Y006408D01*
X019458Y006289D02*
X017308Y006289D01*
X017306Y006280D02*
X017318Y006355D01*
X017318Y006384D01*
X016842Y006384D01*
X016842Y005908D01*
X016871Y005908D01*
X016947Y005920D01*
X017019Y005944D01*
X017087Y005978D01*
X017149Y006023D01*
X017203Y006077D01*
X017248Y006139D01*
X017282Y006207D01*
X017306Y006280D01*
X017264Y006171D02*
X019502Y006171D01*
X019588Y006052D02*
X017178Y006052D01*
X017216Y005858D02*
X016450Y005858D01*
X016368Y005776D01*
X016368Y005010D01*
X016450Y004928D01*
X017216Y004928D01*
X017298Y005010D01*
X017298Y005776D01*
X017216Y005858D01*
X017259Y005815D02*
X019507Y005815D01*
X019468Y005697D02*
X017298Y005697D01*
X017298Y005578D02*
X019468Y005578D01*
X019468Y005460D02*
X017298Y005460D01*
X017298Y005341D02*
X019468Y005341D01*
X019468Y005223D02*
X017298Y005223D01*
X017298Y005104D02*
X019468Y005104D01*
X019492Y004986D02*
X017273Y004986D01*
X016392Y004986D02*
X016333Y004986D01*
X016333Y005104D02*
X016368Y005104D01*
X016368Y005223D02*
X016333Y005223D01*
X016333Y005341D02*
X016368Y005341D01*
X016368Y005460D02*
X016333Y005460D01*
X016333Y005578D02*
X016368Y005578D01*
X016368Y005697D02*
X016333Y005697D01*
X016333Y005815D02*
X016407Y005815D01*
X016333Y005934D02*
X016678Y005934D01*
X016647Y005944D02*
X016719Y005920D01*
X016795Y005908D01*
X016824Y005908D01*
X016824Y006384D01*
X016842Y006384D01*
X016842Y006402D01*
X016824Y006402D01*
X016824Y006384D01*
X016348Y006384D01*
X016348Y006355D01*
X016360Y006280D01*
X016383Y006207D01*
X016418Y006139D01*
X016463Y006077D01*
X016517Y006023D01*
X016579Y005978D01*
X016647Y005944D01*
X016824Y005934D02*
X016842Y005934D01*
X016842Y006052D02*
X016824Y006052D01*
X016824Y006171D02*
X016842Y006171D01*
X016842Y006289D02*
X016824Y006289D01*
X016824Y006402D02*
X016348Y006402D01*
X016348Y006431D01*
X016360Y006507D01*
X016383Y006579D01*
X016418Y006648D01*
X016463Y006709D01*
X016517Y006763D01*
X016579Y006808D01*
X016647Y006843D01*
X016719Y006866D01*
X016795Y006878D01*
X016824Y006878D01*
X016824Y006402D01*
X016824Y006408D02*
X016842Y006408D01*
X016842Y006526D02*
X016824Y006526D01*
X016824Y006645D02*
X016842Y006645D01*
X016842Y006763D02*
X016824Y006763D01*
X016517Y006763D02*
X016333Y006763D01*
X016333Y006645D02*
X016417Y006645D01*
X016366Y006526D02*
X016333Y006526D01*
X016333Y006408D02*
X016348Y006408D01*
X016333Y006289D02*
X016358Y006289D01*
X016333Y006171D02*
X016402Y006171D01*
X016333Y006052D02*
X016488Y006052D01*
X016988Y005934D02*
X019778Y005934D01*
X020398Y005697D02*
X027323Y005697D01*
X027323Y005815D02*
X024601Y005815D01*
X024813Y005934D02*
X027352Y005934D01*
X027363Y006052D02*
X024913Y006052D01*
X024968Y006171D02*
X027363Y006171D01*
X027363Y006289D02*
X024994Y006289D01*
X024993Y006408D02*
X027363Y006408D01*
X027363Y006526D02*
X024966Y006526D01*
X024910Y006645D02*
X027363Y006645D01*
X027363Y006763D02*
X026279Y006763D01*
X026307Y006778D02*
X026378Y006829D01*
X026440Y006891D01*
X026491Y006961D01*
X026530Y007039D01*
X026557Y007122D01*
X026571Y007208D01*
X026571Y007607D01*
X026056Y007607D01*
X026056Y006698D01*
X026061Y006698D01*
X026147Y006712D01*
X026230Y006738D01*
X026307Y006778D01*
X026430Y006882D02*
X027363Y006882D01*
X027363Y007000D02*
X026511Y007000D01*
X026556Y007119D02*
X027363Y007119D01*
X027363Y007237D02*
X026571Y007237D01*
X026571Y007356D02*
X027363Y007356D01*
X027363Y007474D02*
X026571Y007474D01*
X026571Y007593D02*
X027363Y007593D01*
X027363Y007711D02*
X026571Y007711D01*
X026571Y007830D02*
X027363Y007830D01*
X027313Y007948D02*
X026571Y007948D01*
X026571Y008067D02*
X027195Y008067D01*
X027076Y008185D02*
X026552Y008185D01*
X026504Y008304D02*
X026958Y008304D01*
X026839Y008422D02*
X026417Y008422D01*
X026252Y008541D02*
X026721Y008541D01*
X026602Y008659D02*
X024951Y008659D01*
X024976Y008778D02*
X026484Y008778D01*
X026365Y008896D02*
X024976Y008896D01*
X024902Y008541D02*
X025782Y008541D01*
X025979Y008541D02*
X026056Y008541D01*
X026056Y008422D02*
X025979Y008422D01*
X025979Y008304D02*
X026056Y008304D01*
X026056Y008185D02*
X025979Y008185D01*
X025979Y008067D02*
X026056Y008067D01*
X026056Y007948D02*
X025979Y007948D01*
X025979Y007830D02*
X026056Y007830D01*
X026056Y007711D02*
X025979Y007711D01*
X025979Y007593D02*
X026056Y007593D01*
X026056Y007474D02*
X025979Y007474D01*
X025979Y007356D02*
X026056Y007356D01*
X026056Y007237D02*
X025979Y007237D01*
X025979Y007119D02*
X026056Y007119D01*
X026056Y007000D02*
X025979Y007000D01*
X025979Y006882D02*
X026056Y006882D01*
X026056Y006763D02*
X025979Y006763D01*
X025756Y006763D02*
X024808Y006763D01*
X025478Y007119D02*
X023006Y007119D01*
X023124Y007237D02*
X025463Y007237D01*
X025463Y007356D02*
X023243Y007356D01*
X023361Y007474D02*
X025463Y007474D01*
X025463Y007593D02*
X023480Y007593D01*
X023598Y007711D02*
X025463Y007711D01*
X025463Y007830D02*
X023717Y007830D01*
X023835Y007948D02*
X025463Y007948D01*
X025463Y008067D02*
X023954Y008067D01*
X024072Y008185D02*
X025483Y008185D01*
X025531Y008304D02*
X024575Y008304D01*
X024793Y008422D02*
X025617Y008422D01*
X026626Y009863D02*
X024522Y009863D01*
X024519Y009862D01*
X024519Y010614D01*
X024633Y010728D01*
X024816Y010728D01*
X024898Y010810D01*
X024898Y011088D01*
X024903Y011100D01*
X024903Y011287D01*
X024898Y011299D01*
X024898Y011576D01*
X024816Y011658D01*
X024538Y011658D01*
X024526Y011663D01*
X024339Y011663D01*
X024327Y011658D01*
X024050Y011658D01*
X023968Y011576D01*
X023968Y011393D01*
X023782Y011208D01*
X023650Y011075D01*
X023579Y010903D01*
X023579Y009360D01*
X023549Y009360D01*
X023353Y009279D01*
X023203Y009129D01*
X023121Y008933D01*
X023121Y008720D01*
X023167Y008610D01*
X022521Y007963D01*
X016549Y007963D01*
X016605Y007986D01*
X016740Y008121D01*
X016761Y008173D01*
X018324Y008173D01*
X018453Y008302D01*
X018953Y008802D01*
X018953Y008891D01*
X019122Y008961D01*
X019265Y009104D01*
X019343Y009292D01*
X019343Y009495D01*
X019265Y009682D01*
X019122Y009826D01*
X019053Y009854D01*
X019053Y011019D01*
X019253Y011219D01*
X019253Y011567D01*
X019007Y011813D01*
X018659Y011813D01*
X018413Y011567D01*
X018413Y011219D01*
X018613Y011019D01*
X018613Y009854D01*
X018544Y009826D01*
X018401Y009682D01*
X018333Y009519D01*
X018265Y009682D01*
X018122Y009826D01*
X017934Y009903D01*
X017731Y009903D01*
X017544Y009826D01*
X017401Y009682D01*
X017323Y009495D01*
X017323Y009292D01*
X017401Y009104D01*
X017544Y008961D01*
X017731Y008883D01*
X017934Y008883D01*
X018122Y008961D01*
X018265Y009104D01*
X018333Y009268D01*
X018401Y009104D01*
X018513Y008992D01*
X018513Y008984D01*
X018142Y008613D01*
X016761Y008613D01*
X016740Y008665D01*
X016605Y008800D01*
X016428Y008873D01*
X016333Y008873D01*
X016333Y011913D01*
X016428Y011913D01*
X016605Y011986D01*
X016740Y012121D01*
X016813Y012298D01*
X016813Y012489D01*
X016740Y012665D01*
X016633Y012772D01*
X016633Y012972D01*
X016765Y013104D01*
X016843Y013292D01*
X016843Y013495D01*
X016765Y013682D01*
X016622Y013826D01*
X016459Y013893D01*
X016622Y013961D01*
X016765Y014104D01*
X016794Y014173D01*
X017142Y014173D01*
X018113Y013202D01*
X018113Y012517D01*
X017913Y012317D01*
X017913Y011969D01*
X018159Y011723D01*
X018507Y011723D01*
X018657Y011873D01*
X019824Y011873D01*
X022053Y014102D01*
X022053Y028932D01*
X022122Y028961D01*
X022265Y029104D01*
X022343Y029292D01*
X022343Y029495D01*
X022265Y029682D01*
X022122Y029826D01*
X021959Y029893D01*
X022122Y029961D01*
X022265Y030104D01*
X022343Y030292D01*
X022343Y030495D01*
X022265Y030682D01*
X022122Y030826D01*
X021959Y030893D01*
X022122Y030961D01*
X022265Y031104D01*
X022343Y031292D01*
X022343Y031495D01*
X022265Y031682D01*
X022122Y031826D01*
X021959Y031893D01*
X022122Y031961D01*
X022265Y032104D01*
X022343Y032292D01*
X022343Y032495D01*
X022265Y032682D01*
X022122Y032826D01*
X021934Y032903D01*
X021731Y032903D01*
X021663Y032875D01*
X021303Y033234D01*
X021174Y033363D01*
X018707Y033363D01*
X018553Y033517D01*
X018553Y034184D01*
X018424Y034313D01*
X017253Y035484D01*
X017253Y035484D01*
X017124Y035613D01*
X016794Y035613D01*
X016765Y035682D01*
X016622Y035826D01*
X016434Y035903D01*
X016333Y035903D01*
X016333Y037233D01*
X026333Y037233D01*
X026333Y032519D01*
X026333Y032519D01*
X026265Y032682D01*
X026122Y032826D01*
X025934Y032903D01*
X025731Y032903D01*
X025544Y032826D01*
X025401Y032682D01*
X025333Y032519D01*
X025265Y032682D01*
X025122Y032826D01*
X024934Y032903D01*
X024731Y032903D01*
X024544Y032826D01*
X024401Y032682D01*
X024323Y032495D01*
X024323Y032292D01*
X024401Y032104D01*
X024544Y031961D01*
X024707Y031893D01*
X024544Y031826D01*
X024401Y031682D01*
X024323Y031495D01*
X024323Y031292D01*
X024401Y031104D01*
X024544Y030961D01*
X024707Y030893D01*
X024544Y030826D01*
X024401Y030682D01*
X024323Y030495D01*
X024323Y030292D01*
X024401Y030104D01*
X024544Y029961D01*
X024707Y029893D01*
X024544Y029826D01*
X024401Y029682D01*
X024323Y029495D01*
X024323Y029292D01*
X024401Y029104D01*
X024544Y028961D01*
X024731Y028883D01*
X024934Y028883D01*
X025122Y028961D01*
X025265Y029104D01*
X025333Y029268D01*
X025401Y029104D01*
X025544Y028961D01*
X025707Y028893D01*
X025544Y028826D01*
X025401Y028682D01*
X025323Y028495D01*
X025323Y028292D01*
X025401Y028104D01*
X025544Y027961D01*
X025707Y027893D01*
X025544Y027826D01*
X025401Y027682D01*
X025323Y027495D01*
X025323Y027292D01*
X025401Y027104D01*
X025544Y026961D01*
X025707Y026893D01*
X025544Y026826D01*
X025401Y026682D01*
X025323Y026495D01*
X025323Y026292D01*
X025401Y026104D01*
X025544Y025961D01*
X025707Y025893D01*
X025544Y025826D01*
X025401Y025682D01*
X025323Y025495D01*
X025323Y025292D01*
X025401Y025104D01*
X025544Y024961D01*
X025685Y024903D01*
X025629Y024884D01*
X025555Y024847D01*
X025488Y024798D01*
X025429Y024739D01*
X025380Y024671D01*
X025342Y024597D01*
X025316Y024517D01*
X025303Y024435D01*
X025303Y024433D01*
X025793Y024433D01*
X025793Y024353D01*
X025303Y024353D01*
X025303Y024352D01*
X025316Y024269D01*
X025342Y024190D01*
X025380Y024116D01*
X025429Y024048D01*
X025488Y023989D01*
X025555Y023940D01*
X025629Y023902D01*
X025685Y023884D01*
X025544Y023826D01*
X025401Y023682D01*
X025323Y023495D01*
X025323Y023292D01*
X025401Y023104D01*
X025544Y022961D01*
X025707Y022893D01*
X025544Y022826D01*
X025401Y022682D01*
X025323Y022495D01*
X025323Y022292D01*
X025401Y022104D01*
X025544Y021961D01*
X025707Y021893D01*
X025544Y021826D01*
X025401Y021682D01*
X025323Y021495D01*
X025323Y021292D01*
X025401Y021104D01*
X025544Y020961D01*
X025731Y020883D01*
X025934Y020883D01*
X026122Y020961D01*
X026265Y021104D01*
X026333Y021268D01*
X026401Y021104D01*
X026544Y020961D01*
X026731Y020883D01*
X026934Y020883D01*
X027122Y020961D01*
X027265Y021104D01*
X027333Y021268D01*
X027401Y021104D01*
X027544Y020961D01*
X027731Y020883D01*
X027934Y020883D01*
X028122Y020961D01*
X028265Y021104D01*
X028343Y021292D01*
X028343Y021495D01*
X028265Y021682D01*
X028122Y021826D01*
X027959Y021893D01*
X028122Y021961D01*
X028265Y022104D01*
X028343Y022292D01*
X028343Y022495D01*
X028265Y022682D01*
X028122Y022826D01*
X027959Y022893D01*
X028122Y022961D01*
X028265Y023104D01*
X028343Y023292D01*
X028343Y023495D01*
X028265Y023682D01*
X028122Y023826D01*
X027981Y023884D01*
X028036Y023902D01*
X028111Y023940D01*
X028178Y023989D01*
X028237Y024048D01*
X028286Y024116D01*
X028324Y024190D01*
X028350Y024269D01*
X028363Y024352D01*
X028363Y024353D01*
X027873Y024353D01*
X027873Y023903D01*
X027793Y023903D01*
X027793Y024353D01*
X027873Y024353D01*
X027873Y024433D01*
X028363Y024433D01*
X028363Y024435D01*
X028350Y024517D01*
X028324Y024597D01*
X028286Y024671D01*
X028237Y024739D01*
X028178Y024798D01*
X028111Y024847D01*
X028036Y024884D01*
X027981Y024903D01*
X028122Y024961D01*
X028265Y025104D01*
X028343Y025292D01*
X028343Y025495D01*
X028265Y025682D01*
X028122Y025826D01*
X027959Y025893D01*
X028122Y025961D01*
X028265Y026104D01*
X028343Y026292D01*
X028343Y026495D01*
X028265Y026682D01*
X028122Y026826D01*
X027959Y026893D01*
X028122Y026961D01*
X028265Y027104D01*
X028343Y027292D01*
X028343Y027495D01*
X028265Y027682D01*
X028122Y027826D01*
X027959Y027893D01*
X028122Y027961D01*
X028265Y028104D01*
X028343Y028292D01*
X028343Y028495D01*
X028265Y028682D01*
X028122Y028826D01*
X027959Y028893D01*
X028122Y028961D01*
X028265Y029104D01*
X028343Y029292D01*
X028343Y029495D01*
X028265Y029682D01*
X028122Y029826D01*
X027959Y029893D01*
X028122Y029961D01*
X028265Y030104D01*
X028343Y030292D01*
X028343Y030393D01*
X032323Y030393D01*
X032323Y030292D01*
X032401Y030104D01*
X032544Y029961D01*
X032707Y029893D01*
X032544Y029826D01*
X032401Y029682D01*
X032323Y029495D01*
X032323Y029292D01*
X032401Y029104D01*
X032544Y028961D01*
X032707Y028893D01*
X032544Y028826D01*
X032401Y028682D01*
X032323Y028495D01*
X032323Y028292D01*
X032401Y028104D01*
X032544Y027961D01*
X032707Y027893D01*
X032544Y027826D01*
X032401Y027682D01*
X032323Y027495D01*
X032323Y027292D01*
X032401Y027104D01*
X032544Y026961D01*
X032707Y026893D01*
X032544Y026826D01*
X032401Y026682D01*
X032323Y026495D01*
X032323Y026292D01*
X032401Y026104D01*
X032544Y025961D01*
X032707Y025893D01*
X032544Y025826D01*
X032401Y025682D01*
X032323Y025495D01*
X032323Y025292D01*
X032401Y025104D01*
X032544Y024961D01*
X032707Y024893D01*
X032544Y024826D01*
X032401Y024682D01*
X032323Y024495D01*
X032323Y024292D01*
X032401Y024104D01*
X032544Y023961D01*
X032707Y023893D01*
X032544Y023826D01*
X032401Y023682D01*
X032323Y023495D01*
X032323Y023292D01*
X032401Y023104D01*
X032544Y022961D01*
X032685Y022903D01*
X032629Y022884D01*
X032555Y022847D01*
X032488Y022798D01*
X032429Y022739D01*
X032380Y022671D01*
X032342Y022597D01*
X032316Y022517D01*
X032303Y022435D01*
X032303Y022433D01*
X032793Y022433D01*
X032793Y022353D01*
X032303Y022353D01*
X032303Y022352D01*
X032316Y022269D01*
X032342Y022190D01*
X032380Y022116D01*
X032429Y022048D01*
X032488Y021989D01*
X032555Y021940D01*
X032629Y021902D01*
X032685Y021884D01*
X032544Y021826D01*
X032401Y021682D01*
X032323Y021495D01*
X032323Y021292D01*
X032401Y021104D01*
X032544Y020961D01*
X032731Y020883D01*
X032934Y020883D01*
X033122Y020961D01*
X033265Y021104D01*
X033333Y021268D01*
X033401Y021104D01*
X033544Y020961D01*
X033731Y020883D01*
X033934Y020883D01*
X034122Y020961D01*
X034265Y021104D01*
X034333Y021268D01*
X034401Y021104D01*
X034413Y021092D01*
X034413Y008667D01*
X033249Y007503D01*
X033231Y007503D01*
X033044Y007426D01*
X032901Y007282D01*
X032823Y007095D01*
X032823Y006892D01*
X032901Y006704D01*
X033044Y006561D01*
X033231Y006483D01*
X033434Y006483D01*
X033622Y006561D01*
X033765Y006704D01*
X033843Y006892D01*
X033843Y006909D01*
X035189Y008255D01*
X035253Y008410D01*
X035253Y021092D01*
X035265Y021104D01*
X035343Y021292D01*
X035343Y021495D01*
X035265Y021682D01*
X035122Y021826D01*
X034981Y021884D01*
X035036Y021902D01*
X035111Y021940D01*
X035178Y021989D01*
X035237Y022048D01*
X035286Y022116D01*
X035324Y022190D01*
X035350Y022269D01*
X035363Y022352D01*
X035363Y022353D01*
X034873Y022353D01*
X034873Y021903D01*
X034793Y021903D01*
X034793Y022353D01*
X034873Y022353D01*
X034873Y022433D01*
X035363Y022433D01*
X035363Y022435D01*
X035350Y022517D01*
X035324Y022597D01*
X035286Y022671D01*
X035237Y022739D01*
X035178Y022798D01*
X035111Y022847D01*
X035036Y022884D01*
X034981Y022903D01*
X035122Y022961D01*
X035265Y023104D01*
X035343Y023292D01*
X035343Y023495D01*
X035265Y023682D01*
X035122Y023826D01*
X034959Y023893D01*
X035122Y023961D01*
X035265Y024104D01*
X035343Y024292D01*
X035343Y024495D01*
X035265Y024682D01*
X035122Y024826D01*
X034959Y024893D01*
X035122Y024961D01*
X035265Y025104D01*
X035343Y025292D01*
X035343Y025495D01*
X035265Y025682D01*
X035122Y025826D01*
X034959Y025893D01*
X035122Y025961D01*
X035265Y026104D01*
X035343Y026292D01*
X035343Y026495D01*
X035265Y026682D01*
X035122Y026826D01*
X034959Y026893D01*
X035122Y026961D01*
X035265Y027104D01*
X035343Y027292D01*
X035343Y027495D01*
X035265Y027682D01*
X035122Y027826D01*
X034959Y027893D01*
X035122Y027961D01*
X035265Y028104D01*
X035343Y028292D01*
X035343Y028495D01*
X035265Y028682D01*
X035122Y028826D01*
X034959Y028893D01*
X035122Y028961D01*
X035265Y029104D01*
X035343Y029292D01*
X035343Y029495D01*
X035265Y029682D01*
X035122Y029826D01*
X034959Y029893D01*
X035122Y029961D01*
X035265Y030104D01*
X035343Y030292D01*
X035343Y030393D01*
X037173Y030393D01*
X037173Y005460D01*
X036508Y005460D01*
X036503Y005446D02*
X036623Y005736D01*
X036623Y006050D01*
X036503Y006341D01*
X036280Y006563D01*
X035990Y006683D01*
X035676Y006683D01*
X035385Y006563D01*
X035163Y006341D01*
X035043Y006050D01*
X035043Y005736D01*
X035163Y005446D01*
X035385Y005224D01*
X035676Y005103D01*
X035990Y005103D01*
X036280Y005224D01*
X036503Y005446D01*
X036557Y005578D02*
X037173Y005578D01*
X037173Y005460D02*
X036267Y004553D01*
X029078Y004553D01*
X029111Y004570D01*
X029178Y004619D01*
X029237Y004678D01*
X029286Y004746D01*
X029324Y004820D01*
X029350Y004899D01*
X029363Y004982D01*
X029363Y005343D01*
X028883Y005343D01*
X028883Y005443D01*
X029363Y005443D01*
X029363Y005805D01*
X029350Y005887D01*
X029324Y005967D01*
X029286Y006041D01*
X029237Y006109D01*
X029178Y006168D01*
X029111Y006217D01*
X029036Y006254D01*
X028957Y006280D01*
X028883Y006292D01*
X028883Y005443D01*
X028783Y005443D01*
X028783Y006292D01*
X028709Y006280D01*
X028629Y006254D01*
X028555Y006217D01*
X028488Y006168D01*
X028429Y006109D01*
X028380Y006041D01*
X028342Y005967D01*
X028324Y005911D01*
X028303Y005961D01*
X028303Y008187D01*
X028231Y008360D01*
X028099Y008492D01*
X026799Y009792D01*
X026626Y009863D01*
X026672Y009844D02*
X034413Y009844D01*
X034413Y009726D02*
X026865Y009726D01*
X026984Y009607D02*
X034413Y009607D01*
X034413Y009489D02*
X027102Y009489D01*
X027221Y009370D02*
X034413Y009370D01*
X034413Y009252D02*
X027339Y009252D01*
X027458Y009133D02*
X034413Y009133D01*
X034413Y009015D02*
X027576Y009015D01*
X027695Y008896D02*
X034413Y008896D01*
X034413Y008778D02*
X027813Y008778D01*
X027932Y008659D02*
X034405Y008659D01*
X034286Y008541D02*
X028050Y008541D01*
X028169Y008422D02*
X034168Y008422D01*
X034049Y008304D02*
X028254Y008304D01*
X028303Y008185D02*
X033931Y008185D01*
X033812Y008067D02*
X028303Y008067D01*
X028303Y007948D02*
X033694Y007948D01*
X033575Y007830D02*
X028303Y007830D01*
X028303Y007711D02*
X033457Y007711D01*
X033338Y007593D02*
X028303Y007593D01*
X028303Y007474D02*
X030161Y007474D01*
X030231Y007503D02*
X030044Y007426D01*
X029901Y007282D01*
X029823Y007095D01*
X029823Y006892D01*
X029901Y006704D01*
X030044Y006561D01*
X030231Y006483D01*
X030434Y006483D01*
X030622Y006561D01*
X030765Y006704D01*
X030843Y006892D01*
X030843Y007095D01*
X030765Y007282D01*
X030622Y007426D01*
X030434Y007503D01*
X030231Y007503D01*
X030504Y007474D02*
X033161Y007474D01*
X032974Y007356D02*
X030692Y007356D01*
X030784Y007237D02*
X032882Y007237D01*
X032833Y007119D02*
X030833Y007119D01*
X030843Y007000D02*
X032823Y007000D01*
X032827Y006882D02*
X030839Y006882D01*
X030790Y006763D02*
X032876Y006763D01*
X032960Y006645D02*
X030706Y006645D01*
X030538Y006526D02*
X033128Y006526D01*
X033538Y006526D02*
X035349Y006526D01*
X035230Y006408D02*
X028303Y006408D01*
X028303Y006526D02*
X030128Y006526D01*
X029960Y006645D02*
X028303Y006645D01*
X028303Y006763D02*
X029876Y006763D01*
X029827Y006882D02*
X028303Y006882D01*
X028303Y007000D02*
X029823Y007000D01*
X029833Y007119D02*
X028303Y007119D01*
X028303Y007237D02*
X029882Y007237D01*
X029974Y007356D02*
X028303Y007356D01*
X028303Y006289D02*
X028766Y006289D01*
X028783Y006289D02*
X028883Y006289D01*
X028900Y006289D02*
X035142Y006289D01*
X035093Y006171D02*
X029174Y006171D01*
X029278Y006052D02*
X035044Y006052D01*
X035043Y005934D02*
X029335Y005934D01*
X029361Y005815D02*
X030034Y005815D01*
X030044Y005826D02*
X029901Y005682D01*
X029823Y005495D01*
X029823Y005292D01*
X029901Y005104D01*
X029363Y005104D01*
X029363Y004986D02*
X030019Y004986D01*
X030044Y004961D02*
X030231Y004883D01*
X030434Y004883D01*
X030622Y004961D01*
X030765Y005104D01*
X030888Y005104D01*
X030880Y005116D02*
X030929Y005048D01*
X030988Y004989D01*
X031055Y004940D01*
X031129Y004902D01*
X031209Y004876D01*
X031291Y004863D01*
X031313Y004863D01*
X031313Y005373D01*
X031353Y005373D01*
X031353Y004863D01*
X031375Y004863D01*
X031457Y004876D01*
X031536Y004902D01*
X031611Y004940D01*
X031678Y004989D01*
X031737Y005048D01*
X031786Y005116D01*
X031824Y005190D01*
X031850Y005269D01*
X031863Y005352D01*
X031863Y005373D01*
X031353Y005373D01*
X031353Y005413D01*
X031863Y005413D01*
X031863Y005435D01*
X031850Y005517D01*
X031824Y005597D01*
X031786Y005671D01*
X031737Y005739D01*
X031678Y005798D01*
X031611Y005847D01*
X031536Y005884D01*
X031457Y005910D01*
X031375Y005923D01*
X031353Y005923D01*
X031353Y005413D01*
X031313Y005413D01*
X031313Y005923D01*
X031291Y005923D01*
X031209Y005910D01*
X031129Y005884D01*
X031055Y005847D01*
X030988Y005798D01*
X030929Y005739D01*
X030880Y005671D01*
X030842Y005597D01*
X030824Y005541D01*
X030765Y005682D01*
X030622Y005826D01*
X030434Y005903D01*
X030231Y005903D01*
X030044Y005826D01*
X029915Y005697D02*
X029363Y005697D01*
X029363Y005578D02*
X029858Y005578D01*
X029823Y005460D02*
X029363Y005460D01*
X029363Y005341D02*
X029823Y005341D01*
X029852Y005223D02*
X029363Y005223D01*
X029340Y004867D02*
X031266Y004867D01*
X031313Y004867D02*
X031353Y004867D01*
X031400Y004867D02*
X036581Y004867D01*
X036699Y004986D02*
X031674Y004986D01*
X031778Y005104D02*
X035674Y005104D01*
X035388Y005223D02*
X031835Y005223D01*
X031861Y005341D02*
X035268Y005341D01*
X035157Y005460D02*
X031859Y005460D01*
X031830Y005578D02*
X035108Y005578D01*
X035059Y005697D02*
X031768Y005697D01*
X031654Y005815D02*
X035043Y005815D01*
X035583Y006645D02*
X033706Y006645D01*
X033790Y006763D02*
X037173Y006763D01*
X037173Y006645D02*
X036083Y006645D01*
X036317Y006526D02*
X037173Y006526D01*
X037173Y006408D02*
X036436Y006408D01*
X036524Y006289D02*
X037173Y006289D01*
X037173Y006171D02*
X036573Y006171D01*
X036622Y006052D02*
X037173Y006052D01*
X037173Y005934D02*
X036623Y005934D01*
X036623Y005815D02*
X037173Y005815D01*
X037173Y005697D02*
X036607Y005697D01*
X036398Y005341D02*
X037055Y005341D01*
X036936Y005223D02*
X036278Y005223D01*
X035992Y005104D02*
X036818Y005104D01*
X036462Y004749D02*
X029288Y004749D01*
X029189Y004630D02*
X036344Y004630D01*
X037173Y006882D02*
X033839Y006882D01*
X033934Y007000D02*
X037173Y007000D01*
X037173Y007119D02*
X034052Y007119D01*
X034171Y007237D02*
X037173Y007237D01*
X037173Y007356D02*
X034289Y007356D01*
X034408Y007474D02*
X037173Y007474D01*
X037173Y007593D02*
X034526Y007593D01*
X034645Y007711D02*
X037173Y007711D01*
X037173Y007830D02*
X034763Y007830D01*
X034882Y007948D02*
X037173Y007948D01*
X037173Y008067D02*
X035000Y008067D01*
X035119Y008185D02*
X037173Y008185D01*
X037173Y008304D02*
X035209Y008304D01*
X035253Y008422D02*
X037173Y008422D01*
X037173Y008541D02*
X035253Y008541D01*
X035253Y008659D02*
X037173Y008659D01*
X037173Y008778D02*
X035253Y008778D01*
X035253Y008896D02*
X037173Y008896D01*
X037173Y009015D02*
X035253Y009015D01*
X035253Y009133D02*
X037173Y009133D01*
X037173Y009252D02*
X035253Y009252D01*
X035253Y009370D02*
X037173Y009370D01*
X037173Y009489D02*
X035253Y009489D01*
X035253Y009607D02*
X037173Y009607D01*
X037173Y009726D02*
X035253Y009726D01*
X035253Y009844D02*
X037173Y009844D01*
X037173Y009963D02*
X035253Y009963D01*
X035253Y010081D02*
X037173Y010081D01*
X037173Y010200D02*
X035253Y010200D01*
X035253Y010318D02*
X037173Y010318D01*
X037173Y010437D02*
X035253Y010437D01*
X035253Y010555D02*
X037173Y010555D01*
X037173Y010674D02*
X035253Y010674D01*
X035253Y010792D02*
X037173Y010792D01*
X037173Y010911D02*
X035253Y010911D01*
X035253Y011029D02*
X037173Y011029D01*
X037173Y011148D02*
X035253Y011148D01*
X035253Y011266D02*
X037173Y011266D01*
X037173Y011385D02*
X035253Y011385D01*
X035253Y011503D02*
X037173Y011503D01*
X037173Y011622D02*
X035253Y011622D01*
X035253Y011740D02*
X037173Y011740D01*
X037173Y011859D02*
X035253Y011859D01*
X035253Y011977D02*
X037173Y011977D01*
X037173Y012096D02*
X035253Y012096D01*
X035253Y012214D02*
X037173Y012214D01*
X037173Y012333D02*
X035253Y012333D01*
X035253Y012451D02*
X037173Y012451D01*
X037173Y012570D02*
X035253Y012570D01*
X035253Y012688D02*
X037173Y012688D01*
X037173Y012807D02*
X035253Y012807D01*
X035253Y012925D02*
X037173Y012925D01*
X037173Y013044D02*
X035253Y013044D01*
X035253Y013162D02*
X037173Y013162D01*
X037173Y013281D02*
X035253Y013281D01*
X035253Y013399D02*
X037173Y013399D01*
X037173Y013518D02*
X035253Y013518D01*
X035253Y013636D02*
X037173Y013636D01*
X037173Y013755D02*
X035253Y013755D01*
X035253Y013873D02*
X037173Y013873D01*
X037173Y013992D02*
X035253Y013992D01*
X035253Y014110D02*
X037173Y014110D01*
X037173Y014229D02*
X035253Y014229D01*
X035253Y014347D02*
X037173Y014347D01*
X037173Y014466D02*
X035253Y014466D01*
X035253Y014584D02*
X037173Y014584D01*
X037173Y014703D02*
X035253Y014703D01*
X035253Y014821D02*
X037173Y014821D01*
X037173Y014940D02*
X035253Y014940D01*
X035253Y015058D02*
X037173Y015058D01*
X037173Y015177D02*
X035253Y015177D01*
X035253Y015295D02*
X037173Y015295D01*
X037173Y015414D02*
X035253Y015414D01*
X035253Y015532D02*
X037173Y015532D01*
X037173Y015651D02*
X035253Y015651D01*
X035253Y015769D02*
X037173Y015769D01*
X037173Y015888D02*
X035253Y015888D01*
X035253Y016006D02*
X037173Y016006D01*
X037173Y016125D02*
X035253Y016125D01*
X035253Y016243D02*
X037173Y016243D01*
X037173Y016362D02*
X035253Y016362D01*
X035253Y016480D02*
X037173Y016480D01*
X037173Y016599D02*
X035253Y016599D01*
X035253Y016717D02*
X037173Y016717D01*
X037173Y016836D02*
X035253Y016836D01*
X035253Y016954D02*
X037173Y016954D01*
X037173Y017073D02*
X035253Y017073D01*
X035253Y017191D02*
X037173Y017191D01*
X037173Y017310D02*
X035253Y017310D01*
X035253Y017428D02*
X037173Y017428D01*
X037173Y017547D02*
X035253Y017547D01*
X035253Y017665D02*
X037173Y017665D01*
X037173Y017784D02*
X035253Y017784D01*
X035253Y017902D02*
X037173Y017902D01*
X037173Y018021D02*
X035253Y018021D01*
X035253Y018139D02*
X037173Y018139D01*
X037173Y018258D02*
X035253Y018258D01*
X035253Y018376D02*
X037173Y018376D01*
X037173Y018495D02*
X035253Y018495D01*
X035253Y018613D02*
X037173Y018613D01*
X037173Y018732D02*
X035253Y018732D01*
X035253Y018850D02*
X037173Y018850D01*
X037173Y018969D02*
X035253Y018969D01*
X035253Y019087D02*
X037173Y019087D01*
X037173Y019206D02*
X035253Y019206D01*
X035253Y019324D02*
X037173Y019324D01*
X037173Y019443D02*
X035253Y019443D01*
X035253Y019561D02*
X037173Y019561D01*
X037173Y019680D02*
X035253Y019680D01*
X035253Y019798D02*
X037173Y019798D01*
X037173Y019917D02*
X035253Y019917D01*
X035253Y020035D02*
X037173Y020035D01*
X037173Y020154D02*
X035253Y020154D01*
X035253Y020272D02*
X037173Y020272D01*
X037173Y020391D02*
X035253Y020391D01*
X035253Y020509D02*
X037173Y020509D01*
X037173Y020628D02*
X035253Y020628D01*
X035253Y020746D02*
X037173Y020746D01*
X037173Y020865D02*
X035253Y020865D01*
X035253Y020983D02*
X037173Y020983D01*
X037173Y021102D02*
X035263Y021102D01*
X035313Y021220D02*
X037173Y021220D01*
X037173Y021339D02*
X035343Y021339D01*
X035343Y021457D02*
X037173Y021457D01*
X037173Y021576D02*
X035309Y021576D01*
X035253Y021694D02*
X037173Y021694D01*
X037173Y021813D02*
X035135Y021813D01*
X035094Y021931D02*
X037173Y021931D01*
X037173Y022050D02*
X035239Y022050D01*
X035313Y022168D02*
X037173Y022168D01*
X037173Y022287D02*
X035353Y022287D01*
X035348Y022524D02*
X037173Y022524D01*
X037173Y022642D02*
X035301Y022642D01*
X035215Y022761D02*
X037173Y022761D01*
X037173Y022879D02*
X035046Y022879D01*
X035159Y022998D02*
X037173Y022998D01*
X037173Y023116D02*
X035270Y023116D01*
X035319Y023235D02*
X037173Y023235D01*
X037173Y023353D02*
X035343Y023353D01*
X035343Y023472D02*
X037173Y023472D01*
X037173Y023590D02*
X035303Y023590D01*
X035239Y023709D02*
X037173Y023709D01*
X037173Y023827D02*
X035118Y023827D01*
X035085Y023946D02*
X037173Y023946D01*
X037173Y024064D02*
X035225Y024064D01*
X035298Y024183D02*
X037173Y024183D01*
X037173Y024301D02*
X035343Y024301D01*
X035343Y024420D02*
X037173Y024420D01*
X037173Y024538D02*
X035325Y024538D01*
X035276Y024657D02*
X037173Y024657D01*
X037173Y024775D02*
X035172Y024775D01*
X035173Y025012D02*
X037173Y025012D01*
X037173Y024894D02*
X034960Y024894D01*
X035276Y025131D02*
X037173Y025131D01*
X037173Y025249D02*
X035325Y025249D01*
X035343Y025368D02*
X037173Y025368D01*
X037173Y025486D02*
X035343Y025486D01*
X035297Y025605D02*
X037173Y025605D01*
X037173Y025723D02*
X035224Y025723D01*
X035083Y025842D02*
X037173Y025842D01*
X037173Y025960D02*
X035120Y025960D01*
X035240Y026079D02*
X037173Y026079D01*
X037173Y026197D02*
X035304Y026197D01*
X035343Y026316D02*
X037173Y026316D01*
X037173Y026434D02*
X035343Y026434D01*
X035319Y026553D02*
X037173Y026553D01*
X037173Y026671D02*
X035270Y026671D01*
X035158Y026790D02*
X037173Y026790D01*
X037173Y026908D02*
X034995Y026908D01*
X035188Y027027D02*
X037173Y027027D01*
X037173Y027145D02*
X035282Y027145D01*
X035331Y027264D02*
X037173Y027264D01*
X037173Y027382D02*
X035343Y027382D01*
X035340Y027501D02*
X037173Y027501D01*
X037173Y027619D02*
X035291Y027619D01*
X035210Y027738D02*
X037173Y027738D01*
X037173Y027856D02*
X035048Y027856D01*
X035136Y027975D02*
X037173Y027975D01*
X037173Y028093D02*
X035254Y028093D01*
X035310Y028212D02*
X037173Y028212D01*
X037173Y028330D02*
X035343Y028330D01*
X035343Y028449D02*
X037173Y028449D01*
X037173Y028567D02*
X035313Y028567D01*
X035262Y028686D02*
X037173Y028686D01*
X037173Y028804D02*
X035143Y028804D01*
X035030Y028923D02*
X037173Y028923D01*
X037173Y029041D02*
X035202Y029041D01*
X035288Y029160D02*
X037173Y029160D01*
X037173Y029278D02*
X035337Y029278D01*
X035343Y029397D02*
X037173Y029397D01*
X037173Y029515D02*
X035334Y029515D01*
X035285Y029634D02*
X037173Y029634D01*
X037173Y029752D02*
X035195Y029752D01*
X035013Y029871D02*
X037173Y029871D01*
X037173Y029989D02*
X035150Y029989D01*
X035267Y030108D02*
X037173Y030108D01*
X037173Y030226D02*
X035316Y030226D01*
X035343Y030345D02*
X037173Y030345D01*
X032653Y029871D02*
X028013Y029871D01*
X028150Y029989D02*
X032516Y029989D01*
X032399Y030108D02*
X028267Y030108D01*
X028316Y030226D02*
X032350Y030226D01*
X032323Y030345D02*
X028343Y030345D01*
X028195Y029752D02*
X032471Y029752D01*
X032381Y029634D02*
X028285Y029634D01*
X028334Y029515D02*
X032331Y029515D01*
X032323Y029397D02*
X028343Y029397D01*
X028337Y029278D02*
X032329Y029278D01*
X032378Y029160D02*
X028288Y029160D01*
X028202Y029041D02*
X032464Y029041D01*
X032636Y028923D02*
X028030Y028923D01*
X028143Y028804D02*
X032523Y028804D01*
X032404Y028686D02*
X028262Y028686D01*
X028313Y028567D02*
X032353Y028567D01*
X032323Y028449D02*
X028343Y028449D01*
X028343Y028330D02*
X032323Y028330D01*
X032356Y028212D02*
X028310Y028212D01*
X028254Y028093D02*
X032412Y028093D01*
X032530Y027975D02*
X028136Y027975D01*
X028048Y027856D02*
X032618Y027856D01*
X032456Y027738D02*
X028210Y027738D01*
X028291Y027619D02*
X032375Y027619D01*
X032325Y027501D02*
X028340Y027501D01*
X028343Y027382D02*
X032323Y027382D01*
X032335Y027264D02*
X028331Y027264D01*
X028282Y027145D02*
X032384Y027145D01*
X032478Y027027D02*
X028188Y027027D01*
X027995Y026908D02*
X032671Y026908D01*
X032508Y026790D02*
X028158Y026790D01*
X028270Y026671D02*
X032396Y026671D01*
X032347Y026553D02*
X028319Y026553D01*
X028343Y026434D02*
X032323Y026434D01*
X032323Y026316D02*
X028343Y026316D01*
X028304Y026197D02*
X032362Y026197D01*
X032426Y026079D02*
X028240Y026079D01*
X028120Y025960D02*
X032545Y025960D01*
X032583Y025842D02*
X028083Y025842D01*
X028224Y025723D02*
X032442Y025723D01*
X032369Y025605D02*
X028297Y025605D01*
X028343Y025486D02*
X032323Y025486D01*
X032323Y025368D02*
X028343Y025368D01*
X028325Y025249D02*
X032341Y025249D01*
X032390Y025131D02*
X028276Y025131D01*
X028173Y025012D02*
X032493Y025012D01*
X032494Y024775D02*
X028200Y024775D01*
X028293Y024657D02*
X032390Y024657D01*
X032341Y024538D02*
X028343Y024538D01*
X028355Y024301D02*
X032323Y024301D01*
X032323Y024420D02*
X027873Y024420D01*
X027873Y024433D02*
X027793Y024433D01*
X027793Y024353D01*
X027363Y024353D01*
X026873Y024353D01*
X026873Y023903D01*
X026793Y023903D01*
X026793Y024353D01*
X026873Y024353D01*
X026873Y024433D01*
X027793Y024433D01*
X027793Y024883D01*
X027873Y024883D01*
X027873Y024433D01*
X027793Y024420D02*
X026873Y024420D01*
X026873Y024433D02*
X026793Y024433D01*
X026793Y024353D01*
X025873Y024353D01*
X025873Y024433D01*
X026303Y024433D01*
X026793Y024433D01*
X026793Y024883D01*
X026873Y024883D01*
X026873Y024433D01*
X026793Y024420D02*
X025873Y024420D01*
X025793Y024420D02*
X022053Y024420D01*
X022053Y024538D02*
X025323Y024538D01*
X025372Y024657D02*
X022053Y024657D01*
X022053Y024775D02*
X025465Y024775D01*
X025658Y024894D02*
X022053Y024894D01*
X022053Y025012D02*
X025493Y025012D01*
X025390Y025131D02*
X022053Y025131D01*
X022053Y025249D02*
X025341Y025249D01*
X025323Y025368D02*
X022053Y025368D01*
X022053Y025486D02*
X025323Y025486D01*
X025369Y025605D02*
X022053Y025605D01*
X022053Y025723D02*
X025442Y025723D01*
X025583Y025842D02*
X022053Y025842D01*
X022053Y025960D02*
X025545Y025960D01*
X025426Y026079D02*
X022053Y026079D01*
X022053Y026197D02*
X025362Y026197D01*
X025323Y026316D02*
X022053Y026316D01*
X022053Y026434D02*
X025323Y026434D01*
X025347Y026553D02*
X022053Y026553D01*
X022053Y026671D02*
X025396Y026671D01*
X025508Y026790D02*
X022053Y026790D01*
X022053Y026908D02*
X025671Y026908D01*
X025478Y027027D02*
X022053Y027027D01*
X022053Y027145D02*
X025384Y027145D01*
X025335Y027264D02*
X022053Y027264D01*
X022053Y027382D02*
X025323Y027382D01*
X025325Y027501D02*
X022053Y027501D01*
X022053Y027619D02*
X025375Y027619D01*
X025456Y027738D02*
X022053Y027738D01*
X022053Y027856D02*
X025618Y027856D01*
X025530Y027975D02*
X022053Y027975D01*
X022053Y028093D02*
X025412Y028093D01*
X025356Y028212D02*
X022053Y028212D01*
X022053Y028330D02*
X025323Y028330D01*
X025323Y028449D02*
X022053Y028449D01*
X022053Y028567D02*
X025353Y028567D01*
X025404Y028686D02*
X022053Y028686D01*
X022053Y028804D02*
X025523Y028804D01*
X025636Y028923D02*
X025030Y028923D01*
X025202Y029041D02*
X025464Y029041D01*
X025378Y029160D02*
X025288Y029160D01*
X024636Y028923D02*
X022053Y028923D01*
X022202Y029041D02*
X024464Y029041D01*
X024378Y029160D02*
X022288Y029160D01*
X022337Y029278D02*
X024329Y029278D01*
X024323Y029397D02*
X022343Y029397D01*
X022334Y029515D02*
X024331Y029515D01*
X024381Y029634D02*
X022285Y029634D01*
X022195Y029752D02*
X024471Y029752D01*
X024653Y029871D02*
X022013Y029871D01*
X022150Y029989D02*
X024516Y029989D01*
X024399Y030108D02*
X022267Y030108D01*
X022316Y030226D02*
X024350Y030226D01*
X024323Y030345D02*
X022343Y030345D01*
X022343Y030463D02*
X024323Y030463D01*
X024359Y030582D02*
X022307Y030582D01*
X022247Y030700D02*
X024419Y030700D01*
X024537Y030819D02*
X022129Y030819D01*
X022065Y030937D02*
X024601Y030937D01*
X024449Y031056D02*
X022217Y031056D01*
X022294Y031174D02*
X024372Y031174D01*
X024323Y031293D02*
X022343Y031293D01*
X022343Y031411D02*
X024323Y031411D01*
X024337Y031530D02*
X022328Y031530D01*
X022279Y031648D02*
X024387Y031648D01*
X024485Y031767D02*
X022181Y031767D01*
X021978Y031885D02*
X024688Y031885D01*
X024501Y032004D02*
X022165Y032004D01*
X022273Y032122D02*
X024393Y032122D01*
X024344Y032241D02*
X022322Y032241D01*
X022343Y032359D02*
X024323Y032359D01*
X024323Y032478D02*
X022343Y032478D01*
X022301Y032596D02*
X024365Y032596D01*
X024433Y032715D02*
X022233Y032715D01*
X022103Y032833D02*
X024563Y032833D01*
X025103Y032833D02*
X025563Y032833D01*
X025433Y032715D02*
X025233Y032715D01*
X025301Y032596D02*
X025365Y032596D01*
X026103Y032833D02*
X026333Y032833D01*
X026333Y032715D02*
X026233Y032715D01*
X026301Y032596D02*
X026333Y032596D01*
X026333Y032952D02*
X021586Y032952D01*
X021467Y033070D02*
X026333Y033070D01*
X026333Y033189D02*
X021349Y033189D01*
X021230Y033307D02*
X026333Y033307D01*
X026333Y033426D02*
X018644Y033426D01*
X018553Y033544D02*
X026333Y033544D01*
X026333Y033663D02*
X018553Y033663D01*
X018553Y033781D02*
X026333Y033781D01*
X026333Y033900D02*
X019474Y033900D01*
X019434Y033883D02*
X019622Y033961D01*
X019765Y034104D01*
X019843Y034292D01*
X019843Y034495D01*
X019765Y034682D01*
X019622Y034826D01*
X019481Y034884D01*
X019536Y034902D01*
X019611Y034940D01*
X019678Y034989D01*
X019737Y035048D01*
X019786Y035116D01*
X019824Y035190D01*
X019850Y035269D01*
X019863Y035352D01*
X019863Y035365D01*
X019362Y035365D01*
X019362Y035422D01*
X019863Y035422D01*
X019863Y035435D01*
X019850Y035517D01*
X019824Y035597D01*
X019786Y035671D01*
X019737Y035739D01*
X019678Y035798D01*
X019611Y035847D01*
X019536Y035884D01*
X019457Y035910D01*
X019375Y035923D01*
X019362Y035923D01*
X019362Y035422D01*
X019304Y035422D01*
X019304Y035365D01*
X018803Y035365D01*
X018803Y035352D01*
X018816Y035269D01*
X018842Y035190D01*
X018880Y035116D01*
X018929Y035048D01*
X018988Y034989D01*
X019055Y034940D01*
X019129Y034902D01*
X019185Y034884D01*
X019044Y034826D01*
X018901Y034682D01*
X018823Y034495D01*
X018823Y034292D01*
X018901Y034104D01*
X019044Y033961D01*
X019231Y033883D01*
X019434Y033883D01*
X019192Y033900D02*
X018553Y033900D01*
X018553Y034018D02*
X018987Y034018D01*
X018887Y034137D02*
X018553Y034137D01*
X018482Y034255D02*
X018838Y034255D01*
X018823Y034374D02*
X018364Y034374D01*
X018424Y034313D02*
X018424Y034313D01*
X018245Y034492D02*
X018823Y034492D01*
X018871Y034611D02*
X018127Y034611D01*
X018008Y034729D02*
X018948Y034729D01*
X019098Y034848D02*
X017890Y034848D01*
X017771Y034966D02*
X019019Y034966D01*
X018902Y035085D02*
X017653Y035085D01*
X017534Y035203D02*
X018837Y035203D01*
X018808Y035322D02*
X017415Y035322D01*
X017297Y035440D02*
X018804Y035440D01*
X018803Y035435D02*
X018803Y035422D01*
X019304Y035422D01*
X019304Y035923D01*
X019291Y035923D01*
X019209Y035910D01*
X019129Y035884D01*
X019055Y035847D01*
X018988Y035798D01*
X018929Y035739D01*
X018880Y035671D01*
X018842Y035597D01*
X018816Y035517D01*
X018803Y035435D01*
X018829Y035559D02*
X017179Y035559D01*
X016767Y035677D02*
X018884Y035677D01*
X018986Y035796D02*
X016652Y035796D01*
X016333Y035914D02*
X019235Y035914D01*
X019304Y035914D02*
X019362Y035914D01*
X019431Y035914D02*
X026333Y035914D01*
X026333Y035796D02*
X019680Y035796D01*
X019782Y035677D02*
X026333Y035677D01*
X026333Y035559D02*
X019836Y035559D01*
X019862Y035440D02*
X026333Y035440D01*
X026333Y035322D02*
X019858Y035322D01*
X019828Y035203D02*
X026333Y035203D01*
X026333Y035085D02*
X019764Y035085D01*
X019647Y034966D02*
X026333Y034966D01*
X026333Y034848D02*
X019568Y034848D01*
X019718Y034729D02*
X026333Y034729D01*
X026333Y034611D02*
X019795Y034611D01*
X019843Y034492D02*
X026333Y034492D01*
X026333Y034374D02*
X019843Y034374D01*
X019828Y034255D02*
X026333Y034255D01*
X026333Y034137D02*
X019779Y034137D01*
X019679Y034018D02*
X026333Y034018D01*
X026333Y036033D02*
X016333Y036033D01*
X016333Y036151D02*
X026333Y036151D01*
X026333Y036270D02*
X016333Y036270D01*
X016333Y036388D02*
X026333Y036388D01*
X026333Y036507D02*
X016333Y036507D01*
X016333Y036625D02*
X026333Y036625D01*
X026333Y036744D02*
X016333Y036744D01*
X016333Y036862D02*
X026333Y036862D01*
X026333Y036981D02*
X016333Y036981D01*
X016333Y037099D02*
X026333Y037099D01*
X026333Y037218D02*
X016333Y037218D01*
X016794Y035173D02*
X016942Y035173D01*
X018113Y034002D01*
X018113Y033517D01*
X017913Y033317D01*
X017913Y032969D01*
X018159Y032723D01*
X018507Y032723D01*
X018707Y032923D01*
X020992Y032923D01*
X021351Y032564D01*
X021323Y032495D01*
X021323Y032292D01*
X021401Y032104D01*
X021544Y031961D01*
X021707Y031893D01*
X021544Y031826D01*
X021401Y031682D01*
X021372Y031613D01*
X020742Y031613D01*
X020242Y031113D01*
X020113Y030984D01*
X020113Y027284D01*
X019242Y026413D01*
X018657Y026413D01*
X018553Y026517D01*
X018553Y027084D01*
X018424Y027213D01*
X017024Y028613D01*
X016794Y028613D01*
X016765Y028682D01*
X016622Y028826D01*
X016434Y028903D01*
X016333Y028903D01*
X016333Y028913D01*
X016428Y028913D01*
X016605Y028986D01*
X016740Y029121D01*
X016761Y029173D01*
X018324Y029173D01*
X018924Y029773D01*
X019053Y029902D01*
X019053Y029932D01*
X019122Y029961D01*
X019265Y030104D01*
X019343Y030292D01*
X019343Y030495D01*
X019265Y030682D01*
X019122Y030826D01*
X019053Y030854D01*
X019053Y032019D01*
X019253Y032219D01*
X019253Y032567D01*
X019007Y032813D01*
X018659Y032813D01*
X018413Y032567D01*
X018413Y032219D01*
X018613Y032019D01*
X018613Y030854D01*
X018544Y030826D01*
X018401Y030682D01*
X018333Y030519D01*
X018265Y030682D01*
X018122Y030826D01*
X017934Y030903D01*
X017731Y030903D01*
X017544Y030826D01*
X017401Y030682D01*
X017323Y030495D01*
X017323Y030292D01*
X017401Y030104D01*
X017544Y029961D01*
X017731Y029883D01*
X017934Y029883D01*
X018122Y029961D01*
X018265Y030104D01*
X018333Y030268D01*
X018401Y030104D01*
X018517Y029988D01*
X018142Y029613D01*
X016761Y029613D01*
X016740Y029665D01*
X016605Y029800D01*
X016428Y029873D01*
X016333Y029873D01*
X016333Y032913D01*
X016428Y032913D01*
X016605Y032986D01*
X016740Y033121D01*
X016813Y033298D01*
X016813Y033489D01*
X016740Y033665D01*
X016605Y033800D01*
X016553Y033822D01*
X016553Y033932D01*
X016622Y033961D01*
X016765Y034104D01*
X016843Y034292D01*
X016843Y034495D01*
X016765Y034682D01*
X016622Y034826D01*
X016459Y034893D01*
X016622Y034961D01*
X016765Y035104D01*
X016794Y035173D01*
X016746Y035085D02*
X017030Y035085D01*
X017149Y034966D02*
X016627Y034966D01*
X016568Y034848D02*
X017267Y034848D01*
X017386Y034729D02*
X016718Y034729D01*
X016795Y034611D02*
X017504Y034611D01*
X017623Y034492D02*
X016843Y034492D01*
X016843Y034374D02*
X017741Y034374D01*
X017860Y034255D02*
X016828Y034255D01*
X016779Y034137D02*
X017978Y034137D01*
X018097Y034018D02*
X016679Y034018D01*
X016553Y033900D02*
X018113Y033900D01*
X018113Y033781D02*
X016624Y033781D01*
X016741Y033663D02*
X018113Y033663D01*
X018113Y033544D02*
X016790Y033544D01*
X016813Y033426D02*
X018022Y033426D01*
X017913Y033307D02*
X016813Y033307D01*
X016768Y033189D02*
X017913Y033189D01*
X017913Y033070D02*
X016689Y033070D01*
X016522Y032952D02*
X017930Y032952D01*
X017853Y032833D02*
X018015Y032833D01*
X018273Y032576D01*
X018273Y032413D01*
X017853Y032413D01*
X017853Y032373D01*
X017853Y031953D01*
X018015Y031953D01*
X018273Y032211D01*
X018273Y032373D01*
X017853Y032373D01*
X017813Y032373D01*
X017813Y031953D01*
X017651Y031953D01*
X017393Y032211D01*
X017393Y032373D01*
X017813Y032373D01*
X017813Y032413D01*
X017393Y032413D01*
X017393Y032576D01*
X017651Y032833D01*
X017813Y032833D01*
X017813Y032413D01*
X017853Y032413D01*
X017853Y032833D01*
X017853Y032715D02*
X017813Y032715D01*
X017813Y032596D02*
X017853Y032596D01*
X017853Y032478D02*
X017813Y032478D01*
X017813Y032359D02*
X017853Y032359D01*
X017853Y032241D02*
X017813Y032241D01*
X017813Y032122D02*
X017853Y032122D01*
X017853Y032004D02*
X017813Y032004D01*
X017600Y032004D02*
X016333Y032004D01*
X016333Y032122D02*
X017482Y032122D01*
X017393Y032241D02*
X016333Y032241D01*
X016333Y032359D02*
X017393Y032359D01*
X017393Y032478D02*
X016333Y032478D01*
X016333Y032596D02*
X017414Y032596D01*
X017532Y032715D02*
X016333Y032715D01*
X016333Y032833D02*
X018049Y032833D01*
X018134Y032715D02*
X018561Y032715D01*
X018617Y032833D02*
X021082Y032833D01*
X021200Y032715D02*
X019105Y032715D01*
X019224Y032596D02*
X021319Y032596D01*
X021323Y032478D02*
X019253Y032478D01*
X019253Y032359D02*
X021323Y032359D01*
X021344Y032241D02*
X019253Y032241D01*
X019156Y032122D02*
X021393Y032122D01*
X021501Y032004D02*
X019053Y032004D01*
X019053Y031885D02*
X021688Y031885D01*
X021485Y031767D02*
X019053Y031767D01*
X019053Y031648D02*
X021387Y031648D01*
X021372Y031173D02*
X020924Y031173D01*
X020553Y030802D01*
X020553Y027102D01*
X019424Y025973D01*
X018753Y025973D01*
X018753Y025969D01*
X018507Y025723D01*
X018159Y025723D01*
X017913Y025969D01*
X017913Y026317D01*
X018113Y026517D01*
X018113Y026902D01*
X016842Y028173D01*
X016794Y028173D01*
X016765Y028104D01*
X016622Y027961D01*
X016459Y027893D01*
X016622Y027826D01*
X016765Y027682D01*
X016843Y027495D01*
X016843Y027292D01*
X016765Y027104D01*
X016622Y026961D01*
X016553Y026932D01*
X016553Y026822D01*
X016605Y026800D01*
X016740Y026665D01*
X016813Y026489D01*
X016813Y026298D01*
X016740Y026121D01*
X016605Y025986D01*
X016428Y025913D01*
X016333Y025913D01*
X016333Y022873D01*
X016428Y022873D01*
X016605Y022800D01*
X016740Y022665D01*
X016761Y022613D01*
X018142Y022613D01*
X018517Y022988D01*
X018401Y023104D01*
X018333Y023268D01*
X018265Y023104D01*
X018122Y022961D01*
X017934Y022883D01*
X017731Y022883D01*
X017544Y022961D01*
X017401Y023104D01*
X017323Y023292D01*
X017323Y023495D01*
X017401Y023682D01*
X017544Y023826D01*
X017731Y023903D01*
X017934Y023903D01*
X018122Y023826D01*
X018265Y023682D01*
X018333Y023519D01*
X018401Y023682D01*
X018544Y023826D01*
X018613Y023854D01*
X018613Y025019D01*
X018413Y025219D01*
X018413Y025567D01*
X018659Y025813D01*
X019007Y025813D01*
X019253Y025567D01*
X019253Y025219D01*
X019053Y025019D01*
X019053Y023854D01*
X019122Y023826D01*
X019265Y023682D01*
X019343Y023495D01*
X019343Y023292D01*
X019265Y023104D01*
X019122Y022961D01*
X019053Y022932D01*
X019053Y022902D01*
X018924Y022773D01*
X018324Y022173D01*
X016761Y022173D01*
X016740Y022121D01*
X016605Y021986D01*
X016428Y021913D01*
X016333Y021913D01*
X016333Y021903D01*
X016434Y021903D01*
X016622Y021826D01*
X016765Y021682D01*
X016794Y021613D01*
X016824Y021613D01*
X018424Y020013D01*
X018553Y019884D01*
X018553Y019517D01*
X018753Y019317D01*
X018753Y019313D01*
X019042Y019313D01*
X019567Y019838D01*
X019434Y019783D01*
X019231Y019783D01*
X019044Y019861D01*
X018901Y020004D01*
X018823Y020192D01*
X018823Y020395D01*
X018901Y020582D01*
X019044Y020726D01*
X019231Y020803D01*
X019434Y020803D01*
X019622Y020726D01*
X019765Y020582D01*
X019843Y020395D01*
X019843Y020192D01*
X019788Y020060D01*
X020613Y020884D01*
X020613Y030184D01*
X020742Y030313D01*
X021042Y030613D01*
X021372Y030613D01*
X021401Y030682D01*
X021544Y030826D01*
X021707Y030893D01*
X021544Y030961D01*
X021401Y031104D01*
X021372Y031173D01*
X021449Y031056D02*
X020807Y031056D01*
X020688Y030937D02*
X021601Y030937D01*
X021537Y030819D02*
X020570Y030819D01*
X020553Y030700D02*
X021419Y030700D01*
X021010Y030582D02*
X020553Y030582D01*
X020553Y030463D02*
X020892Y030463D01*
X020773Y030345D02*
X020553Y030345D01*
X020553Y030226D02*
X020655Y030226D01*
X020613Y030108D02*
X020553Y030108D01*
X020553Y029989D02*
X020613Y029989D01*
X020613Y029871D02*
X020553Y029871D01*
X020553Y029752D02*
X020613Y029752D01*
X020613Y029634D02*
X020553Y029634D01*
X020553Y029515D02*
X020613Y029515D01*
X020613Y029397D02*
X020553Y029397D01*
X020553Y029278D02*
X020613Y029278D01*
X020613Y029160D02*
X020553Y029160D01*
X020553Y029041D02*
X020613Y029041D01*
X020613Y028923D02*
X020553Y028923D01*
X020553Y028804D02*
X020613Y028804D01*
X020613Y028686D02*
X020553Y028686D01*
X020553Y028567D02*
X020613Y028567D01*
X020613Y028449D02*
X020553Y028449D01*
X020553Y028330D02*
X020613Y028330D01*
X020613Y028212D02*
X020553Y028212D01*
X020553Y028093D02*
X020613Y028093D01*
X020613Y027975D02*
X020553Y027975D01*
X020553Y027856D02*
X020613Y027856D01*
X020613Y027738D02*
X020553Y027738D01*
X020553Y027619D02*
X020613Y027619D01*
X020613Y027501D02*
X020553Y027501D01*
X020553Y027382D02*
X020613Y027382D01*
X020613Y027264D02*
X020553Y027264D01*
X020553Y027145D02*
X020613Y027145D01*
X020613Y027027D02*
X020478Y027027D01*
X020359Y026908D02*
X020613Y026908D01*
X020613Y026790D02*
X020241Y026790D01*
X020122Y026671D02*
X020613Y026671D01*
X020613Y026553D02*
X020004Y026553D01*
X019885Y026434D02*
X020613Y026434D01*
X020613Y026316D02*
X019767Y026316D01*
X019648Y026197D02*
X020613Y026197D01*
X020613Y026079D02*
X019530Y026079D01*
X019263Y026434D02*
X018636Y026434D01*
X018553Y026553D02*
X019381Y026553D01*
X019500Y026671D02*
X018553Y026671D01*
X018553Y026790D02*
X019618Y026790D01*
X019737Y026908D02*
X019495Y026908D01*
X019434Y026883D02*
X019622Y026961D01*
X019765Y027104D01*
X019843Y027292D01*
X019843Y027495D01*
X019765Y027682D01*
X019622Y027826D01*
X019481Y027884D01*
X019536Y027902D01*
X019611Y027940D01*
X019678Y027989D01*
X019737Y028048D01*
X019786Y028116D01*
X019824Y028190D01*
X019850Y028269D01*
X019863Y028352D01*
X019863Y028365D01*
X019362Y028365D01*
X019362Y028422D01*
X019863Y028422D01*
X019863Y028435D01*
X019850Y028517D01*
X019824Y028597D01*
X019786Y028671D01*
X019737Y028739D01*
X019678Y028798D01*
X019611Y028847D01*
X019536Y028884D01*
X019457Y028910D01*
X019375Y028923D01*
X019362Y028923D01*
X019304Y028923D01*
X019291Y028923D01*
X019209Y028910D01*
X019129Y028884D01*
X019055Y028847D01*
X018988Y028798D01*
X018929Y028739D01*
X018880Y028671D01*
X018842Y028597D01*
X018816Y028517D01*
X018803Y028435D01*
X018803Y028422D01*
X019304Y028422D01*
X019304Y028365D01*
X018803Y028365D01*
X018803Y028352D01*
X018816Y028269D01*
X018842Y028190D01*
X018880Y028116D01*
X018929Y028048D01*
X018988Y027989D01*
X019055Y027940D01*
X019129Y027902D01*
X019185Y027884D01*
X019044Y027826D01*
X018901Y027682D01*
X018823Y027495D01*
X018823Y027292D01*
X018901Y027104D01*
X019044Y026961D01*
X019231Y026883D01*
X019434Y026883D01*
X019171Y026908D02*
X018553Y026908D01*
X018553Y027027D02*
X018978Y027027D01*
X018884Y027145D02*
X018492Y027145D01*
X018374Y027264D02*
X018835Y027264D01*
X018823Y027382D02*
X018255Y027382D01*
X018137Y027501D02*
X018825Y027501D01*
X018875Y027619D02*
X018018Y027619D01*
X017900Y027738D02*
X018956Y027738D01*
X019118Y027856D02*
X017781Y027856D01*
X017663Y027975D02*
X019007Y027975D01*
X018896Y028093D02*
X017544Y028093D01*
X017426Y028212D02*
X018835Y028212D01*
X018806Y028330D02*
X017307Y028330D01*
X017189Y028449D02*
X018805Y028449D01*
X018832Y028567D02*
X017070Y028567D01*
X016762Y028686D02*
X018890Y028686D01*
X018997Y028804D02*
X016643Y028804D01*
X016451Y028923D02*
X019288Y028923D01*
X019304Y028923D02*
X019304Y028422D01*
X019362Y028422D01*
X019362Y028923D01*
X019377Y028923D02*
X020113Y028923D01*
X020113Y029041D02*
X016660Y029041D01*
X016756Y029160D02*
X020113Y029160D01*
X020113Y029278D02*
X018429Y029278D01*
X018548Y029397D02*
X020113Y029397D01*
X020113Y029515D02*
X018666Y029515D01*
X018785Y029634D02*
X020113Y029634D01*
X020113Y029752D02*
X018903Y029752D01*
X019022Y029871D02*
X020113Y029871D01*
X020113Y029989D02*
X019150Y029989D01*
X019267Y030108D02*
X020113Y030108D01*
X020113Y030226D02*
X019316Y030226D01*
X019343Y030345D02*
X020113Y030345D01*
X020113Y030463D02*
X019343Y030463D01*
X019307Y030582D02*
X020113Y030582D01*
X020113Y030700D02*
X019247Y030700D01*
X019129Y030819D02*
X020113Y030819D01*
X020113Y030937D02*
X019053Y030937D01*
X019053Y031056D02*
X020184Y031056D01*
X020303Y031174D02*
X019053Y031174D01*
X019053Y031293D02*
X020421Y031293D01*
X020540Y031411D02*
X019053Y031411D01*
X019053Y031530D02*
X020658Y031530D01*
X021224Y030173D02*
X021372Y030173D01*
X021401Y030104D01*
X021544Y029961D01*
X021707Y029893D01*
X021544Y029826D01*
X021401Y029682D01*
X021323Y029495D01*
X021323Y029292D01*
X021401Y029104D01*
X021544Y028961D01*
X021613Y028932D01*
X021613Y014284D01*
X019642Y012313D01*
X018753Y012313D01*
X018753Y012317D01*
X018553Y012517D01*
X018553Y013384D01*
X018424Y013513D01*
X017324Y014613D01*
X016794Y014613D01*
X016765Y014682D01*
X016622Y014826D01*
X016434Y014903D01*
X016333Y014903D01*
X016333Y014913D01*
X016428Y014913D01*
X016605Y014986D01*
X016740Y015121D01*
X016761Y015173D01*
X018424Y015173D01*
X018924Y015673D01*
X019053Y015802D01*
X019053Y015932D01*
X019122Y015961D01*
X019265Y016104D01*
X019343Y016292D01*
X019343Y016495D01*
X019265Y016682D01*
X019122Y016826D01*
X019053Y016854D01*
X019053Y018019D01*
X019253Y018219D01*
X019253Y018567D01*
X019007Y018813D01*
X018659Y018813D01*
X018413Y018567D01*
X018413Y018219D01*
X018613Y018019D01*
X018613Y016854D01*
X018544Y016826D01*
X018401Y016682D01*
X018333Y016519D01*
X018265Y016682D01*
X018122Y016826D01*
X017934Y016903D01*
X017731Y016903D01*
X017544Y016826D01*
X017401Y016682D01*
X017323Y016495D01*
X017323Y016292D01*
X017401Y016104D01*
X017544Y015961D01*
X017731Y015883D01*
X017934Y015883D01*
X018122Y015961D01*
X018265Y016104D01*
X018333Y016268D01*
X018401Y016104D01*
X018544Y015961D01*
X018576Y015948D01*
X018242Y015613D01*
X016761Y015613D01*
X016740Y015665D01*
X016605Y015800D01*
X016428Y015873D01*
X016333Y015873D01*
X016333Y018913D01*
X016428Y018913D01*
X016605Y018986D01*
X016740Y019121D01*
X016813Y019298D01*
X016813Y019489D01*
X016740Y019665D01*
X016633Y019772D01*
X016633Y019872D01*
X016765Y020004D01*
X016843Y020192D01*
X016843Y020395D01*
X016765Y020582D01*
X016622Y020726D01*
X016434Y020803D01*
X016333Y020803D01*
X016333Y020883D01*
X016434Y020883D01*
X016622Y020961D01*
X016738Y021077D01*
X018113Y019702D01*
X018113Y019517D01*
X017913Y019317D01*
X017913Y018969D01*
X018159Y018723D01*
X018507Y018723D01*
X018657Y018873D01*
X019224Y018873D01*
X019353Y019002D01*
X021053Y020702D01*
X021053Y030002D01*
X021224Y030173D01*
X021159Y030108D02*
X021399Y030108D01*
X021516Y029989D02*
X021053Y029989D01*
X021053Y029871D02*
X021653Y029871D01*
X021471Y029752D02*
X021053Y029752D01*
X021053Y029634D02*
X021381Y029634D01*
X021331Y029515D02*
X021053Y029515D01*
X021053Y029397D02*
X021323Y029397D01*
X021329Y029278D02*
X021053Y029278D01*
X021053Y029160D02*
X021378Y029160D01*
X021464Y029041D02*
X021053Y029041D01*
X021053Y028923D02*
X021613Y028923D01*
X021613Y028804D02*
X021053Y028804D01*
X021053Y028686D02*
X021613Y028686D01*
X021613Y028567D02*
X021053Y028567D01*
X021053Y028449D02*
X021613Y028449D01*
X021613Y028330D02*
X021053Y028330D01*
X021053Y028212D02*
X021613Y028212D01*
X021613Y028093D02*
X021053Y028093D01*
X021053Y027975D02*
X021613Y027975D01*
X021613Y027856D02*
X021053Y027856D01*
X021053Y027738D02*
X021613Y027738D01*
X021613Y027619D02*
X021053Y027619D01*
X021053Y027501D02*
X021613Y027501D01*
X021613Y027382D02*
X021053Y027382D01*
X021053Y027264D02*
X021613Y027264D01*
X021613Y027145D02*
X021053Y027145D01*
X021053Y027027D02*
X021613Y027027D01*
X021613Y026908D02*
X021053Y026908D01*
X021053Y026790D02*
X021613Y026790D01*
X021613Y026671D02*
X021053Y026671D01*
X021053Y026553D02*
X021613Y026553D01*
X021613Y026434D02*
X021053Y026434D01*
X021053Y026316D02*
X021613Y026316D01*
X021613Y026197D02*
X021053Y026197D01*
X021053Y026079D02*
X021613Y026079D01*
X021613Y025960D02*
X021053Y025960D01*
X021053Y025842D02*
X021613Y025842D01*
X021613Y025723D02*
X021053Y025723D01*
X021053Y025605D02*
X021613Y025605D01*
X021613Y025486D02*
X021053Y025486D01*
X021053Y025368D02*
X021613Y025368D01*
X021613Y025249D02*
X021053Y025249D01*
X021053Y025131D02*
X021613Y025131D01*
X021613Y025012D02*
X021053Y025012D01*
X021053Y024894D02*
X021613Y024894D01*
X021613Y024775D02*
X021053Y024775D01*
X021053Y024657D02*
X021613Y024657D01*
X021613Y024538D02*
X021053Y024538D01*
X021053Y024420D02*
X021613Y024420D01*
X021613Y024301D02*
X021053Y024301D01*
X021053Y024183D02*
X021613Y024183D01*
X021613Y024064D02*
X021053Y024064D01*
X021053Y023946D02*
X021613Y023946D01*
X021613Y023827D02*
X021053Y023827D01*
X021053Y023709D02*
X021613Y023709D01*
X021613Y023590D02*
X021053Y023590D01*
X021053Y023472D02*
X021613Y023472D01*
X021613Y023353D02*
X021053Y023353D01*
X021053Y023235D02*
X021613Y023235D01*
X021613Y023116D02*
X021053Y023116D01*
X021053Y022998D02*
X021613Y022998D01*
X021613Y022879D02*
X021053Y022879D01*
X021053Y022761D02*
X021613Y022761D01*
X021613Y022642D02*
X021053Y022642D01*
X021053Y022524D02*
X021613Y022524D01*
X021613Y022405D02*
X021053Y022405D01*
X021053Y022287D02*
X021613Y022287D01*
X021613Y022168D02*
X021053Y022168D01*
X021053Y022050D02*
X021613Y022050D01*
X021613Y021931D02*
X021053Y021931D01*
X021053Y021813D02*
X021613Y021813D01*
X021613Y021694D02*
X021053Y021694D01*
X021053Y021576D02*
X021613Y021576D01*
X021613Y021457D02*
X021053Y021457D01*
X021053Y021339D02*
X021613Y021339D01*
X021613Y021220D02*
X021053Y021220D01*
X021053Y021102D02*
X021613Y021102D01*
X021613Y020983D02*
X021053Y020983D01*
X021053Y020865D02*
X021613Y020865D01*
X021613Y020746D02*
X021053Y020746D01*
X020979Y020628D02*
X021613Y020628D01*
X021613Y020509D02*
X020860Y020509D01*
X020742Y020391D02*
X021613Y020391D01*
X021613Y020272D02*
X020623Y020272D01*
X020505Y020154D02*
X021613Y020154D01*
X021613Y020035D02*
X020386Y020035D01*
X020268Y019917D02*
X021613Y019917D01*
X021613Y019798D02*
X020149Y019798D01*
X020031Y019680D02*
X021613Y019680D01*
X021613Y019561D02*
X019912Y019561D01*
X019794Y019443D02*
X021613Y019443D01*
X021613Y019324D02*
X019675Y019324D01*
X019557Y019206D02*
X021613Y019206D01*
X021613Y019087D02*
X019438Y019087D01*
X019320Y018969D02*
X021613Y018969D01*
X021613Y018850D02*
X018634Y018850D01*
X018578Y018732D02*
X018515Y018732D01*
X018459Y018613D02*
X018235Y018613D01*
X018273Y018576D02*
X018015Y018833D01*
X017853Y018833D01*
X017853Y018413D01*
X018273Y018413D01*
X018273Y018576D01*
X018273Y018495D02*
X018413Y018495D01*
X018413Y018376D02*
X017853Y018376D01*
X017853Y018373D02*
X017853Y018413D01*
X017813Y018413D01*
X017813Y018373D01*
X017853Y018373D01*
X017853Y017953D01*
X018015Y017953D01*
X018273Y018211D01*
X018273Y018373D01*
X017853Y018373D01*
X017813Y018373D02*
X017813Y017953D01*
X017651Y017953D01*
X017393Y018211D01*
X017393Y018373D01*
X017813Y018373D01*
X017813Y018376D02*
X016333Y018376D01*
X016333Y018258D02*
X017393Y018258D01*
X017465Y018139D02*
X016333Y018139D01*
X016333Y018021D02*
X017583Y018021D01*
X017813Y018021D02*
X017853Y018021D01*
X017853Y018139D02*
X017813Y018139D01*
X017813Y018258D02*
X017853Y018258D01*
X017813Y018413D02*
X017393Y018413D01*
X017393Y018576D01*
X017651Y018833D01*
X017813Y018833D01*
X017813Y018413D01*
X017813Y018495D02*
X017853Y018495D01*
X017853Y018613D02*
X017813Y018613D01*
X017813Y018732D02*
X017853Y018732D01*
X018032Y018850D02*
X016333Y018850D01*
X016333Y018732D02*
X017549Y018732D01*
X017431Y018613D02*
X016333Y018613D01*
X016333Y018495D02*
X017393Y018495D01*
X017913Y018969D02*
X016562Y018969D01*
X016706Y019087D02*
X017913Y019087D01*
X017913Y019206D02*
X016775Y019206D01*
X016813Y019324D02*
X017920Y019324D01*
X018039Y019443D02*
X016813Y019443D01*
X016783Y019561D02*
X018113Y019561D01*
X018113Y019680D02*
X016725Y019680D01*
X016633Y019798D02*
X018017Y019798D01*
X017898Y019917D02*
X016678Y019917D01*
X016778Y020035D02*
X017780Y020035D01*
X017661Y020154D02*
X016827Y020154D01*
X016843Y020272D02*
X017543Y020272D01*
X017424Y020391D02*
X016843Y020391D01*
X016795Y020509D02*
X017306Y020509D01*
X017187Y020628D02*
X016720Y020628D01*
X016572Y020746D02*
X017069Y020746D01*
X016950Y020865D02*
X016333Y020865D01*
X016644Y020983D02*
X016832Y020983D01*
X017099Y021339D02*
X018805Y021339D01*
X018803Y021352D02*
X018816Y021269D01*
X018842Y021190D01*
X018880Y021116D01*
X018929Y021048D01*
X018988Y020989D01*
X019055Y020940D01*
X019129Y020902D01*
X019209Y020876D01*
X019291Y020863D01*
X019304Y020863D01*
X019304Y021365D01*
X018803Y021365D01*
X018803Y021352D01*
X018803Y021422D02*
X019304Y021422D01*
X019304Y021365D01*
X019362Y021365D01*
X019362Y021422D01*
X019863Y021422D01*
X019863Y021435D01*
X019850Y021517D01*
X019824Y021597D01*
X019786Y021671D01*
X019737Y021739D01*
X019678Y021798D01*
X019611Y021847D01*
X019536Y021884D01*
X019457Y021910D01*
X019375Y021923D01*
X019362Y021923D01*
X019362Y021422D01*
X019304Y021422D01*
X019304Y021923D01*
X019291Y021923D01*
X019209Y021910D01*
X019129Y021884D01*
X019055Y021847D01*
X018988Y021798D01*
X018929Y021739D01*
X018880Y021671D01*
X018842Y021597D01*
X018816Y021517D01*
X018803Y021435D01*
X018803Y021422D01*
X018806Y021457D02*
X016980Y021457D01*
X016862Y021576D02*
X018835Y021576D01*
X018897Y021694D02*
X016753Y021694D01*
X016635Y021813D02*
X019009Y021813D01*
X019304Y021813D02*
X019362Y021813D01*
X019362Y021694D02*
X019304Y021694D01*
X019304Y021576D02*
X019362Y021576D01*
X019362Y021457D02*
X019304Y021457D01*
X019362Y021365D02*
X019863Y021365D01*
X019863Y021352D01*
X019850Y021269D01*
X019824Y021190D01*
X019786Y021116D01*
X019737Y021048D01*
X019678Y020989D01*
X019611Y020940D01*
X019536Y020902D01*
X019457Y020876D01*
X019375Y020863D01*
X019362Y020863D01*
X019362Y021365D01*
X019362Y021339D02*
X019304Y021339D01*
X019304Y021220D02*
X019362Y021220D01*
X019362Y021102D02*
X019304Y021102D01*
X019304Y020983D02*
X019362Y020983D01*
X019362Y020865D02*
X019304Y020865D01*
X019282Y020865D02*
X017573Y020865D01*
X017691Y020746D02*
X019094Y020746D01*
X018946Y020628D02*
X017810Y020628D01*
X017928Y020509D02*
X018870Y020509D01*
X018823Y020391D02*
X018047Y020391D01*
X018165Y020272D02*
X018823Y020272D01*
X018839Y020154D02*
X018284Y020154D01*
X018402Y020035D02*
X018888Y020035D01*
X018988Y019917D02*
X018521Y019917D01*
X018553Y019798D02*
X019195Y019798D01*
X019408Y019680D02*
X018553Y019680D01*
X018553Y019561D02*
X019290Y019561D01*
X019171Y019443D02*
X018627Y019443D01*
X018746Y019324D02*
X019053Y019324D01*
X019088Y018732D02*
X021613Y018732D01*
X021613Y018613D02*
X019207Y018613D01*
X019253Y018495D02*
X021613Y018495D01*
X021613Y018376D02*
X019253Y018376D01*
X019253Y018258D02*
X021613Y018258D01*
X021613Y018139D02*
X019173Y018139D01*
X019054Y018021D02*
X021613Y018021D01*
X021613Y017902D02*
X019053Y017902D01*
X019053Y017784D02*
X021613Y017784D01*
X021613Y017665D02*
X019053Y017665D01*
X019053Y017547D02*
X021613Y017547D01*
X021613Y017428D02*
X019053Y017428D01*
X019053Y017310D02*
X021613Y017310D01*
X021613Y017191D02*
X019053Y017191D01*
X019053Y017073D02*
X021613Y017073D01*
X021613Y016954D02*
X019053Y016954D01*
X019097Y016836D02*
X021613Y016836D01*
X021613Y016717D02*
X019230Y016717D01*
X019300Y016599D02*
X021613Y016599D01*
X021613Y016480D02*
X019343Y016480D01*
X019343Y016362D02*
X021613Y016362D01*
X021613Y016243D02*
X019323Y016243D01*
X019274Y016125D02*
X021613Y016125D01*
X021613Y016006D02*
X019167Y016006D01*
X019053Y015888D02*
X021613Y015888D01*
X021613Y015769D02*
X019020Y015769D01*
X018902Y015651D02*
X021613Y015651D01*
X021613Y015532D02*
X018783Y015532D01*
X018665Y015414D02*
X021613Y015414D01*
X021613Y015295D02*
X018546Y015295D01*
X018428Y015177D02*
X021613Y015177D01*
X021613Y015058D02*
X016677Y015058D01*
X016492Y014940D02*
X021613Y014940D01*
X021613Y014821D02*
X019646Y014821D01*
X019678Y014798D02*
X019611Y014847D01*
X019536Y014884D01*
X019457Y014910D01*
X019375Y014923D01*
X019362Y014923D01*
X019362Y014422D01*
X019863Y014422D01*
X019863Y014435D01*
X019850Y014517D01*
X019824Y014597D01*
X019786Y014671D01*
X019737Y014739D01*
X019678Y014798D01*
X019763Y014703D02*
X021613Y014703D01*
X021613Y014584D02*
X019828Y014584D01*
X019858Y014466D02*
X021613Y014466D01*
X021613Y014347D02*
X019862Y014347D01*
X019863Y014352D02*
X019863Y014365D01*
X019362Y014365D01*
X019362Y014422D01*
X019304Y014422D01*
X019304Y014365D01*
X018803Y014365D01*
X018803Y014352D01*
X018816Y014269D01*
X018842Y014190D01*
X018880Y014116D01*
X018929Y014048D01*
X018988Y013989D01*
X019055Y013940D01*
X019129Y013902D01*
X019185Y013884D01*
X019044Y013826D01*
X018901Y013682D01*
X018823Y013495D01*
X018823Y013292D01*
X018901Y013104D01*
X019044Y012961D01*
X019231Y012883D01*
X019434Y012883D01*
X019622Y012961D01*
X019765Y013104D01*
X019843Y013292D01*
X019843Y013495D01*
X019765Y013682D01*
X019622Y013826D01*
X019481Y013884D01*
X019536Y013902D01*
X019611Y013940D01*
X019678Y013989D01*
X019737Y014048D01*
X019786Y014116D01*
X019824Y014190D01*
X019850Y014269D01*
X019863Y014352D01*
X019837Y014229D02*
X021557Y014229D01*
X021439Y014110D02*
X019782Y014110D01*
X019681Y013992D02*
X021320Y013992D01*
X021202Y013873D02*
X019507Y013873D01*
X019693Y013755D02*
X021083Y013755D01*
X020965Y013636D02*
X019784Y013636D01*
X019833Y013518D02*
X020846Y013518D01*
X020728Y013399D02*
X019843Y013399D01*
X019838Y013281D02*
X020609Y013281D01*
X020491Y013162D02*
X019789Y013162D01*
X019705Y013044D02*
X020372Y013044D01*
X020254Y012925D02*
X019536Y012925D01*
X019130Y012925D02*
X018553Y012925D01*
X018553Y012807D02*
X020135Y012807D01*
X020017Y012688D02*
X018553Y012688D01*
X018553Y012570D02*
X019898Y012570D01*
X019780Y012451D02*
X018619Y012451D01*
X018737Y012333D02*
X019661Y012333D01*
X019928Y011977D02*
X023999Y011977D01*
X023983Y012007D02*
X024018Y011939D01*
X024063Y011877D01*
X024117Y011823D01*
X024179Y011778D01*
X024247Y011744D01*
X024319Y011720D01*
X024395Y011708D01*
X024424Y011708D01*
X024424Y012184D01*
X024442Y012184D01*
X024442Y011708D01*
X024471Y011708D01*
X024547Y011720D01*
X024619Y011744D01*
X024687Y011778D01*
X024749Y011823D01*
X024803Y011877D01*
X024848Y011939D01*
X024882Y012007D01*
X024906Y012080D01*
X024918Y012155D01*
X024918Y012184D01*
X024442Y012184D01*
X024442Y012202D01*
X024918Y012202D01*
X024918Y012231D01*
X024906Y012307D01*
X024882Y012379D01*
X024848Y012448D01*
X024803Y012509D01*
X024749Y012563D01*
X024687Y012608D01*
X024619Y012643D01*
X024547Y012666D01*
X024471Y012678D01*
X024442Y012678D01*
X024442Y012202D01*
X024424Y012202D01*
X024424Y012184D01*
X023948Y012184D01*
X023948Y012155D01*
X023960Y012080D01*
X023983Y012007D01*
X023957Y012096D02*
X020047Y012096D01*
X020165Y012214D02*
X023948Y012214D01*
X023948Y012202D02*
X024424Y012202D01*
X024424Y012678D01*
X024395Y012678D01*
X024319Y012666D01*
X024247Y012643D01*
X024179Y012608D01*
X024117Y012563D01*
X024063Y012509D01*
X024018Y012448D01*
X023983Y012379D01*
X023960Y012307D01*
X023948Y012231D01*
X023948Y012202D01*
X023968Y012333D02*
X020284Y012333D01*
X020402Y012451D02*
X024021Y012451D01*
X024126Y012570D02*
X020521Y012570D01*
X020639Y012688D02*
X034413Y012688D01*
X034413Y012570D02*
X024740Y012570D01*
X024845Y012451D02*
X034413Y012451D01*
X034413Y012333D02*
X024898Y012333D01*
X024918Y012214D02*
X034413Y012214D01*
X034413Y012096D02*
X024909Y012096D01*
X024867Y011977D02*
X034413Y011977D01*
X034413Y011859D02*
X024784Y011859D01*
X024608Y011740D02*
X034413Y011740D01*
X034413Y011622D02*
X024852Y011622D01*
X024898Y011503D02*
X034413Y011503D01*
X034413Y011385D02*
X024898Y011385D01*
X024903Y011266D02*
X034413Y011266D01*
X034413Y011148D02*
X024903Y011148D01*
X024898Y011029D02*
X034413Y011029D01*
X034413Y010911D02*
X024898Y010911D01*
X024880Y010792D02*
X034413Y010792D01*
X034413Y010674D02*
X024578Y010674D01*
X024519Y010555D02*
X034413Y010555D01*
X034413Y010437D02*
X024519Y010437D01*
X024519Y010318D02*
X034413Y010318D01*
X034413Y010200D02*
X024519Y010200D01*
X024519Y010081D02*
X034413Y010081D01*
X034413Y009963D02*
X024519Y009963D01*
X023631Y011029D02*
X019063Y011029D01*
X019053Y010911D02*
X023582Y010911D01*
X023579Y010792D02*
X019053Y010792D01*
X019053Y010674D02*
X023579Y010674D01*
X023579Y010555D02*
X019053Y010555D01*
X019053Y010437D02*
X023579Y010437D01*
X023579Y010318D02*
X019053Y010318D01*
X019053Y010200D02*
X023579Y010200D01*
X023579Y010081D02*
X019053Y010081D01*
X019053Y009963D02*
X023579Y009963D01*
X023579Y009844D02*
X019077Y009844D01*
X019222Y009726D02*
X023579Y009726D01*
X023579Y009607D02*
X019296Y009607D01*
X019343Y009489D02*
X023579Y009489D01*
X023579Y009370D02*
X019343Y009370D01*
X019326Y009252D02*
X023326Y009252D01*
X023207Y009133D02*
X019277Y009133D01*
X019176Y009015D02*
X023155Y009015D01*
X023121Y008896D02*
X018966Y008896D01*
X018929Y008778D02*
X023121Y008778D01*
X023147Y008659D02*
X018810Y008659D01*
X018692Y008541D02*
X023098Y008541D01*
X022980Y008422D02*
X018573Y008422D01*
X018455Y008304D02*
X022861Y008304D01*
X022743Y008185D02*
X018336Y008185D01*
X018188Y008659D02*
X016742Y008659D01*
X016627Y008778D02*
X018306Y008778D01*
X018425Y008896D02*
X017966Y008896D01*
X018176Y009015D02*
X018490Y009015D01*
X018389Y009133D02*
X018277Y009133D01*
X018326Y009252D02*
X018340Y009252D01*
X018370Y009607D02*
X018296Y009607D01*
X018222Y009726D02*
X018444Y009726D01*
X018589Y009844D02*
X018077Y009844D01*
X017589Y009844D02*
X016333Y009844D01*
X016333Y009726D02*
X017444Y009726D01*
X017370Y009607D02*
X016333Y009607D01*
X016333Y009489D02*
X017323Y009489D01*
X017323Y009370D02*
X016333Y009370D01*
X016333Y009252D02*
X017340Y009252D01*
X017389Y009133D02*
X016333Y009133D01*
X016333Y009015D02*
X017490Y009015D01*
X017700Y008896D02*
X016333Y008896D01*
X016685Y008067D02*
X022624Y008067D01*
X024010Y006171D02*
X024087Y006171D01*
X024087Y006052D02*
X024010Y006052D01*
X024010Y005934D02*
X024087Y005934D01*
X024087Y005815D02*
X024010Y005815D01*
X027323Y005578D02*
X020398Y005578D01*
X020398Y005460D02*
X027323Y005460D01*
X027323Y005341D02*
X020398Y005341D01*
X020398Y005223D02*
X027323Y005223D01*
X027323Y005104D02*
X020398Y005104D01*
X020373Y004986D02*
X027323Y004986D01*
X027346Y004867D02*
X016333Y004867D01*
X016333Y004749D02*
X027395Y004749D01*
X027505Y004630D02*
X016333Y004630D01*
X016333Y009963D02*
X018613Y009963D01*
X018613Y010081D02*
X016333Y010081D01*
X016333Y010200D02*
X018613Y010200D01*
X018613Y010318D02*
X016333Y010318D01*
X016333Y010437D02*
X018613Y010437D01*
X018613Y010555D02*
X016333Y010555D01*
X016333Y010674D02*
X018613Y010674D01*
X018613Y010792D02*
X016333Y010792D01*
X016333Y010911D02*
X018613Y010911D01*
X018603Y011029D02*
X018091Y011029D01*
X018015Y010953D02*
X018273Y011211D01*
X018273Y011373D01*
X017853Y011373D01*
X017853Y010953D01*
X018015Y010953D01*
X017853Y011029D02*
X017813Y011029D01*
X017813Y010953D02*
X017813Y011373D01*
X017853Y011373D01*
X017853Y011413D01*
X018273Y011413D01*
X018273Y011576D01*
X018015Y011833D01*
X017853Y011833D01*
X017853Y011413D01*
X017813Y011413D01*
X017813Y011373D01*
X017393Y011373D01*
X017393Y011211D01*
X017651Y010953D01*
X017813Y010953D01*
X017813Y011148D02*
X017853Y011148D01*
X017853Y011266D02*
X017813Y011266D01*
X017813Y011385D02*
X016333Y011385D01*
X016333Y011503D02*
X017393Y011503D01*
X017393Y011576D02*
X017393Y011413D01*
X017813Y011413D01*
X017813Y011833D01*
X017651Y011833D01*
X017393Y011576D01*
X017439Y011622D02*
X016333Y011622D01*
X016333Y011740D02*
X017558Y011740D01*
X017813Y011740D02*
X017853Y011740D01*
X017853Y011622D02*
X017813Y011622D01*
X017813Y011503D02*
X017853Y011503D01*
X017853Y011385D02*
X018413Y011385D01*
X018413Y011503D02*
X018273Y011503D01*
X018227Y011622D02*
X018467Y011622D01*
X018524Y011740D02*
X018586Y011740D01*
X018642Y011859D02*
X024082Y011859D01*
X024258Y011740D02*
X019080Y011740D01*
X019198Y011622D02*
X024013Y011622D01*
X023968Y011503D02*
X019253Y011503D01*
X019253Y011385D02*
X023960Y011385D01*
X023841Y011266D02*
X019253Y011266D01*
X019181Y011148D02*
X023723Y011148D01*
X024424Y011740D02*
X024442Y011740D01*
X024442Y011859D02*
X024424Y011859D01*
X024424Y011977D02*
X024442Y011977D01*
X024442Y012096D02*
X024424Y012096D01*
X024424Y012214D02*
X024442Y012214D01*
X024442Y012333D02*
X024424Y012333D01*
X024424Y012451D02*
X024442Y012451D01*
X024442Y012570D02*
X024424Y012570D01*
X022053Y014110D02*
X034413Y014110D01*
X034413Y013992D02*
X021943Y013992D01*
X021824Y013873D02*
X034413Y013873D01*
X034413Y013755D02*
X021706Y013755D01*
X021587Y013636D02*
X034413Y013636D01*
X034413Y013518D02*
X021469Y013518D01*
X021350Y013399D02*
X034413Y013399D01*
X034413Y013281D02*
X021232Y013281D01*
X021113Y013162D02*
X034413Y013162D01*
X034413Y013044D02*
X020995Y013044D01*
X020876Y012925D02*
X034413Y012925D01*
X034413Y012807D02*
X020758Y012807D01*
X019159Y013873D02*
X018064Y013873D01*
X018183Y013755D02*
X018973Y013755D01*
X018882Y013636D02*
X018301Y013636D01*
X018420Y013518D02*
X018832Y013518D01*
X018823Y013399D02*
X018538Y013399D01*
X018553Y013281D02*
X018828Y013281D01*
X018877Y013162D02*
X018553Y013162D01*
X018553Y013044D02*
X018961Y013044D01*
X018113Y013044D02*
X016705Y013044D01*
X016633Y012925D02*
X018113Y012925D01*
X018113Y012807D02*
X016633Y012807D01*
X016717Y012688D02*
X018113Y012688D01*
X018113Y012570D02*
X016779Y012570D01*
X016813Y012451D02*
X018047Y012451D01*
X017928Y012333D02*
X016813Y012333D01*
X016778Y012214D02*
X017913Y012214D01*
X017913Y012096D02*
X016714Y012096D01*
X016583Y011977D02*
X017913Y011977D01*
X018023Y011859D02*
X016333Y011859D01*
X016333Y011266D02*
X017393Y011266D01*
X017456Y011148D02*
X016333Y011148D01*
X016333Y011029D02*
X017575Y011029D01*
X018210Y011148D02*
X018484Y011148D01*
X018413Y011266D02*
X018273Y011266D01*
X018142Y011740D02*
X018108Y011740D01*
X018113Y013162D02*
X016789Y013162D01*
X016838Y013281D02*
X018034Y013281D01*
X017916Y013399D02*
X016843Y013399D01*
X016833Y013518D02*
X017797Y013518D01*
X017679Y013636D02*
X016784Y013636D01*
X016693Y013755D02*
X017560Y013755D01*
X017442Y013873D02*
X016507Y013873D01*
X016653Y013992D02*
X017323Y013992D01*
X017205Y014110D02*
X016768Y014110D01*
X016745Y014703D02*
X018903Y014703D01*
X018880Y014671D02*
X018842Y014597D01*
X018816Y014517D01*
X018803Y014435D01*
X018803Y014422D01*
X019304Y014422D01*
X019304Y014923D01*
X019291Y014923D01*
X019209Y014910D01*
X019129Y014884D01*
X019055Y014847D01*
X018988Y014798D01*
X018929Y014739D01*
X018880Y014671D01*
X018838Y014584D02*
X017353Y014584D01*
X017472Y014466D02*
X018808Y014466D01*
X018804Y014347D02*
X017590Y014347D01*
X017709Y014229D02*
X018829Y014229D01*
X018883Y014110D02*
X017827Y014110D01*
X017946Y013992D02*
X018985Y013992D01*
X019304Y014466D02*
X019362Y014466D01*
X019362Y014584D02*
X019304Y014584D01*
X019304Y014703D02*
X019362Y014703D01*
X019362Y014821D02*
X019304Y014821D01*
X019020Y014821D02*
X016626Y014821D01*
X016746Y015651D02*
X018279Y015651D01*
X018398Y015769D02*
X016636Y015769D01*
X016333Y015888D02*
X017721Y015888D01*
X017945Y015888D02*
X018516Y015888D01*
X018499Y016006D02*
X018167Y016006D01*
X018274Y016125D02*
X018392Y016125D01*
X018343Y016243D02*
X018323Y016243D01*
X018300Y016599D02*
X018366Y016599D01*
X018436Y016717D02*
X018230Y016717D01*
X018097Y016836D02*
X018569Y016836D01*
X018613Y016954D02*
X016333Y016954D01*
X016333Y016836D02*
X017569Y016836D01*
X017436Y016717D02*
X016333Y016717D01*
X016333Y016599D02*
X017366Y016599D01*
X017323Y016480D02*
X016333Y016480D01*
X016333Y016362D02*
X017323Y016362D01*
X017343Y016243D02*
X016333Y016243D01*
X016333Y016125D02*
X017392Y016125D01*
X017499Y016006D02*
X016333Y016006D01*
X016333Y017073D02*
X018613Y017073D01*
X018613Y017191D02*
X016333Y017191D01*
X016333Y017310D02*
X018613Y017310D01*
X018613Y017428D02*
X016333Y017428D01*
X016333Y017547D02*
X018613Y017547D01*
X018613Y017665D02*
X016333Y017665D01*
X016333Y017784D02*
X018613Y017784D01*
X018613Y017902D02*
X016333Y017902D01*
X018083Y018021D02*
X018611Y018021D01*
X018493Y018139D02*
X018201Y018139D01*
X018273Y018258D02*
X018413Y018258D01*
X018150Y018732D02*
X018117Y018732D01*
X019471Y019798D02*
X019527Y019798D01*
X019827Y020154D02*
X019882Y020154D01*
X019843Y020272D02*
X020001Y020272D01*
X020119Y020391D02*
X019843Y020391D01*
X019795Y020509D02*
X020238Y020509D01*
X020356Y020628D02*
X019720Y020628D01*
X019572Y020746D02*
X020475Y020746D01*
X020593Y020865D02*
X019384Y020865D01*
X019670Y020983D02*
X020613Y020983D01*
X020613Y021102D02*
X019776Y021102D01*
X019834Y021220D02*
X020613Y021220D01*
X020613Y021339D02*
X019861Y021339D01*
X019859Y021457D02*
X020613Y021457D01*
X020613Y021576D02*
X019831Y021576D01*
X019769Y021694D02*
X020613Y021694D01*
X020613Y021813D02*
X019657Y021813D01*
X020613Y021931D02*
X016472Y021931D01*
X016668Y022050D02*
X020613Y022050D01*
X020613Y022168D02*
X016759Y022168D01*
X016749Y022642D02*
X018171Y022642D01*
X018289Y022761D02*
X016644Y022761D01*
X016333Y022879D02*
X018408Y022879D01*
X018507Y022998D02*
X018159Y022998D01*
X018270Y023116D02*
X018396Y023116D01*
X018347Y023235D02*
X018319Y023235D01*
X018303Y023590D02*
X018363Y023590D01*
X018427Y023709D02*
X018239Y023709D01*
X018118Y023827D02*
X018548Y023827D01*
X018613Y023946D02*
X016333Y023946D01*
X016333Y024064D02*
X018613Y024064D01*
X018613Y024183D02*
X016333Y024183D01*
X016333Y024301D02*
X018613Y024301D01*
X018613Y024420D02*
X016333Y024420D01*
X016333Y024538D02*
X018613Y024538D01*
X018613Y024657D02*
X016333Y024657D01*
X016333Y024775D02*
X018613Y024775D01*
X018613Y024894D02*
X016333Y024894D01*
X016333Y025012D02*
X017592Y025012D01*
X017651Y024953D02*
X017813Y024953D01*
X017813Y025373D01*
X017853Y025373D01*
X017853Y024953D01*
X018015Y024953D01*
X018273Y025211D01*
X018273Y025373D01*
X017853Y025373D01*
X017853Y025413D01*
X018273Y025413D01*
X018273Y025576D01*
X018015Y025833D01*
X017853Y025833D01*
X017853Y025413D01*
X017813Y025413D01*
X017813Y025373D01*
X017393Y025373D01*
X017393Y025211D01*
X017651Y024953D01*
X017813Y025012D02*
X017853Y025012D01*
X017853Y025131D02*
X017813Y025131D01*
X017813Y025249D02*
X017853Y025249D01*
X017853Y025368D02*
X017813Y025368D01*
X017813Y025413D02*
X017393Y025413D01*
X017393Y025576D01*
X017651Y025833D01*
X017813Y025833D01*
X017813Y025413D01*
X017813Y025486D02*
X017853Y025486D01*
X017853Y025605D02*
X017813Y025605D01*
X017813Y025723D02*
X017853Y025723D01*
X018040Y025842D02*
X016333Y025842D01*
X016333Y025723D02*
X017541Y025723D01*
X017422Y025605D02*
X016333Y025605D01*
X016333Y025486D02*
X017393Y025486D01*
X017393Y025368D02*
X016333Y025368D01*
X016333Y025249D02*
X017393Y025249D01*
X017473Y025131D02*
X016333Y025131D01*
X016542Y025960D02*
X017922Y025960D01*
X017913Y026079D02*
X016697Y026079D01*
X016771Y026197D02*
X017913Y026197D01*
X017913Y026316D02*
X016813Y026316D01*
X016813Y026434D02*
X018030Y026434D01*
X018113Y026553D02*
X016786Y026553D01*
X016734Y026671D02*
X018113Y026671D01*
X018113Y026790D02*
X016615Y026790D01*
X016553Y026908D02*
X018107Y026908D01*
X017988Y027027D02*
X016688Y027027D01*
X016782Y027145D02*
X017870Y027145D01*
X017751Y027264D02*
X016831Y027264D01*
X016843Y027382D02*
X017633Y027382D01*
X017514Y027501D02*
X016840Y027501D01*
X016791Y027619D02*
X017396Y027619D01*
X017277Y027738D02*
X016710Y027738D01*
X016548Y027856D02*
X017159Y027856D01*
X017040Y027975D02*
X016636Y027975D01*
X016754Y028093D02*
X016922Y028093D01*
X016753Y029634D02*
X018162Y029634D01*
X018281Y029752D02*
X016653Y029752D01*
X016434Y029871D02*
X018399Y029871D01*
X018516Y029989D02*
X018150Y029989D01*
X018267Y030108D02*
X018399Y030108D01*
X018350Y030226D02*
X018316Y030226D01*
X018307Y030582D02*
X018359Y030582D01*
X018419Y030700D02*
X018247Y030700D01*
X018129Y030819D02*
X018537Y030819D01*
X018613Y030937D02*
X016333Y030937D01*
X016333Y030819D02*
X017537Y030819D01*
X017419Y030700D02*
X016333Y030700D01*
X016333Y030582D02*
X017359Y030582D01*
X017323Y030463D02*
X016333Y030463D01*
X016333Y030345D02*
X017323Y030345D01*
X017350Y030226D02*
X016333Y030226D01*
X016333Y030108D02*
X017399Y030108D01*
X017516Y029989D02*
X016333Y029989D01*
X016333Y031056D02*
X018613Y031056D01*
X018613Y031174D02*
X016333Y031174D01*
X016333Y031293D02*
X018613Y031293D01*
X018613Y031411D02*
X016333Y031411D01*
X016333Y031530D02*
X018613Y031530D01*
X018613Y031648D02*
X016333Y031648D01*
X016333Y031767D02*
X018613Y031767D01*
X018613Y031885D02*
X016333Y031885D01*
X018066Y032004D02*
X018613Y032004D01*
X018510Y032122D02*
X018184Y032122D01*
X018273Y032241D02*
X018413Y032241D01*
X018413Y032359D02*
X018273Y032359D01*
X018273Y032478D02*
X018413Y032478D01*
X018442Y032596D02*
X018252Y032596D01*
X019304Y035440D02*
X019362Y035440D01*
X019362Y035559D02*
X019304Y035559D01*
X019304Y035677D02*
X019362Y035677D01*
X019362Y035796D02*
X019304Y035796D01*
X019304Y028804D02*
X019362Y028804D01*
X019362Y028686D02*
X019304Y028686D01*
X019304Y028567D02*
X019362Y028567D01*
X019362Y028449D02*
X019304Y028449D01*
X019669Y028804D02*
X020113Y028804D01*
X020113Y028686D02*
X019776Y028686D01*
X019834Y028567D02*
X020113Y028567D01*
X020113Y028449D02*
X019861Y028449D01*
X019860Y028330D02*
X020113Y028330D01*
X020113Y028212D02*
X019831Y028212D01*
X019770Y028093D02*
X020113Y028093D01*
X020113Y027975D02*
X019659Y027975D01*
X019548Y027856D02*
X020113Y027856D01*
X020113Y027738D02*
X019710Y027738D01*
X019791Y027619D02*
X020113Y027619D01*
X020113Y027501D02*
X019840Y027501D01*
X019843Y027382D02*
X020113Y027382D01*
X020092Y027264D02*
X019831Y027264D01*
X019782Y027145D02*
X019974Y027145D01*
X019855Y027027D02*
X019688Y027027D01*
X020613Y025960D02*
X018744Y025960D01*
X018625Y025842D02*
X020613Y025842D01*
X020613Y025723D02*
X019097Y025723D01*
X019215Y025605D02*
X020613Y025605D01*
X020613Y025486D02*
X019253Y025486D01*
X019253Y025368D02*
X020613Y025368D01*
X020613Y025249D02*
X019253Y025249D01*
X019164Y025131D02*
X020613Y025131D01*
X020613Y025012D02*
X019053Y025012D01*
X019053Y024894D02*
X020613Y024894D01*
X020613Y024775D02*
X019053Y024775D01*
X019053Y024657D02*
X020613Y024657D01*
X020613Y024538D02*
X019053Y024538D01*
X019053Y024420D02*
X020613Y024420D01*
X020613Y024301D02*
X019053Y024301D01*
X019053Y024183D02*
X020613Y024183D01*
X020613Y024064D02*
X019053Y024064D01*
X019053Y023946D02*
X020613Y023946D01*
X020613Y023827D02*
X019118Y023827D01*
X019239Y023709D02*
X020613Y023709D01*
X020613Y023590D02*
X019303Y023590D01*
X019343Y023472D02*
X020613Y023472D01*
X020613Y023353D02*
X019343Y023353D01*
X019319Y023235D02*
X020613Y023235D01*
X020613Y023116D02*
X019270Y023116D01*
X019159Y022998D02*
X020613Y022998D01*
X020613Y022879D02*
X019030Y022879D01*
X018912Y022761D02*
X020613Y022761D01*
X020613Y022642D02*
X018793Y022642D01*
X018675Y022524D02*
X020613Y022524D01*
X020613Y022405D02*
X018556Y022405D01*
X018438Y022287D02*
X020613Y022287D01*
X022053Y022287D02*
X025325Y022287D01*
X025323Y022405D02*
X022053Y022405D01*
X022053Y022524D02*
X025335Y022524D01*
X025384Y022642D02*
X022053Y022642D01*
X022053Y022761D02*
X025479Y022761D01*
X025674Y022879D02*
X022053Y022879D01*
X022053Y022998D02*
X025507Y022998D01*
X025396Y023116D02*
X022053Y023116D01*
X022053Y023235D02*
X025347Y023235D01*
X025323Y023353D02*
X022053Y023353D01*
X022053Y023472D02*
X025323Y023472D01*
X025363Y023590D02*
X022053Y023590D01*
X022053Y023709D02*
X025427Y023709D01*
X025548Y023827D02*
X022053Y023827D01*
X022053Y023946D02*
X025547Y023946D01*
X025417Y024064D02*
X022053Y024064D01*
X022053Y024183D02*
X025345Y024183D01*
X025311Y024301D02*
X022053Y024301D01*
X022053Y022168D02*
X025374Y022168D01*
X025455Y022050D02*
X022053Y022050D01*
X022053Y021931D02*
X025616Y021931D01*
X025531Y021813D02*
X022053Y021813D01*
X022053Y021694D02*
X025413Y021694D01*
X025357Y021576D02*
X022053Y021576D01*
X022053Y021457D02*
X025323Y021457D01*
X025323Y021339D02*
X022053Y021339D01*
X022053Y021220D02*
X025353Y021220D01*
X025403Y021102D02*
X022053Y021102D01*
X022053Y020983D02*
X025522Y020983D01*
X026144Y020983D02*
X026522Y020983D01*
X026403Y021102D02*
X026263Y021102D01*
X026313Y021220D02*
X026353Y021220D01*
X027144Y020983D02*
X027522Y020983D01*
X027403Y021102D02*
X027263Y021102D01*
X027313Y021220D02*
X027353Y021220D01*
X028144Y020983D02*
X032522Y020983D01*
X032403Y021102D02*
X028263Y021102D01*
X028313Y021220D02*
X032353Y021220D01*
X032323Y021339D02*
X028343Y021339D01*
X028343Y021457D02*
X032323Y021457D01*
X032357Y021576D02*
X028309Y021576D01*
X028253Y021694D02*
X032413Y021694D01*
X032531Y021813D02*
X028135Y021813D01*
X028050Y021931D02*
X032572Y021931D01*
X032427Y022050D02*
X028211Y022050D01*
X028292Y022168D02*
X032353Y022168D01*
X032313Y022287D02*
X028341Y022287D01*
X028343Y022405D02*
X032793Y022405D01*
X032873Y022405D02*
X033793Y022405D01*
X033793Y022433D02*
X033793Y022353D01*
X033873Y022353D01*
X033873Y021903D01*
X033793Y021903D01*
X033793Y022353D01*
X032873Y022353D01*
X032873Y022433D01*
X033303Y022433D01*
X033793Y022433D01*
X033793Y022883D01*
X033873Y022883D01*
X033873Y022433D01*
X034793Y022433D01*
X034793Y022353D01*
X034363Y022353D01*
X033873Y022353D01*
X033873Y022433D01*
X033793Y022433D01*
X033873Y022405D02*
X034793Y022405D01*
X034793Y022433D02*
X034793Y022883D01*
X034873Y022883D01*
X034873Y022433D01*
X034793Y022433D01*
X034873Y022405D02*
X037173Y022405D01*
X034873Y022287D02*
X034793Y022287D01*
X034793Y022168D02*
X034873Y022168D01*
X034873Y022050D02*
X034793Y022050D01*
X034793Y021931D02*
X034873Y021931D01*
X034873Y022524D02*
X034793Y022524D01*
X034793Y022642D02*
X034873Y022642D01*
X034873Y022761D02*
X034793Y022761D01*
X034793Y022879D02*
X034873Y022879D01*
X033873Y022879D02*
X033793Y022879D01*
X033793Y022761D02*
X033873Y022761D01*
X033873Y022642D02*
X033793Y022642D01*
X033793Y022524D02*
X033873Y022524D01*
X033873Y022287D02*
X033793Y022287D01*
X033793Y022168D02*
X033873Y022168D01*
X033873Y022050D02*
X033793Y022050D01*
X033793Y021931D02*
X033873Y021931D01*
X034313Y021220D02*
X034353Y021220D01*
X034403Y021102D02*
X034263Y021102D01*
X034144Y020983D02*
X034413Y020983D01*
X034413Y020865D02*
X022053Y020865D01*
X022053Y020746D02*
X034413Y020746D01*
X034413Y020628D02*
X022053Y020628D01*
X022053Y020509D02*
X034413Y020509D01*
X034413Y020391D02*
X022053Y020391D01*
X022053Y020272D02*
X034413Y020272D01*
X034413Y020154D02*
X022053Y020154D01*
X022053Y020035D02*
X034413Y020035D01*
X034413Y019917D02*
X022053Y019917D01*
X022053Y019798D02*
X034413Y019798D01*
X034413Y019680D02*
X022053Y019680D01*
X022053Y019561D02*
X034413Y019561D01*
X034413Y019443D02*
X022053Y019443D01*
X022053Y019324D02*
X034413Y019324D01*
X034413Y019206D02*
X022053Y019206D01*
X022053Y019087D02*
X034413Y019087D01*
X034413Y018969D02*
X022053Y018969D01*
X022053Y018850D02*
X034413Y018850D01*
X034413Y018732D02*
X022053Y018732D01*
X022053Y018613D02*
X034413Y018613D01*
X034413Y018495D02*
X022053Y018495D01*
X022053Y018376D02*
X034413Y018376D01*
X034413Y018258D02*
X022053Y018258D01*
X022053Y018139D02*
X034413Y018139D01*
X034413Y018021D02*
X022053Y018021D01*
X022053Y017902D02*
X034413Y017902D01*
X034413Y017784D02*
X022053Y017784D01*
X022053Y017665D02*
X034413Y017665D01*
X034413Y017547D02*
X022053Y017547D01*
X022053Y017428D02*
X034413Y017428D01*
X034413Y017310D02*
X022053Y017310D01*
X022053Y017191D02*
X034413Y017191D01*
X034413Y017073D02*
X022053Y017073D01*
X022053Y016954D02*
X034413Y016954D01*
X034413Y016836D02*
X022053Y016836D01*
X022053Y016717D02*
X034413Y016717D01*
X034413Y016599D02*
X022053Y016599D01*
X022053Y016480D02*
X034413Y016480D01*
X034413Y016362D02*
X022053Y016362D01*
X022053Y016243D02*
X034413Y016243D01*
X034413Y016125D02*
X022053Y016125D01*
X022053Y016006D02*
X034413Y016006D01*
X034413Y015888D02*
X022053Y015888D01*
X022053Y015769D02*
X034413Y015769D01*
X034413Y015651D02*
X022053Y015651D01*
X022053Y015532D02*
X034413Y015532D01*
X034413Y015414D02*
X022053Y015414D01*
X022053Y015295D02*
X034413Y015295D01*
X034413Y015177D02*
X022053Y015177D01*
X022053Y015058D02*
X034413Y015058D01*
X034413Y014940D02*
X022053Y014940D01*
X022053Y014821D02*
X034413Y014821D01*
X034413Y014703D02*
X022053Y014703D01*
X022053Y014584D02*
X034413Y014584D01*
X034413Y014466D02*
X022053Y014466D01*
X022053Y014347D02*
X034413Y014347D01*
X034413Y014229D02*
X022053Y014229D01*
X018996Y020983D02*
X017454Y020983D01*
X017336Y021102D02*
X018890Y021102D01*
X018832Y021220D02*
X017217Y021220D01*
X017507Y022998D02*
X016333Y022998D01*
X016333Y023116D02*
X017396Y023116D01*
X017347Y023235D02*
X016333Y023235D01*
X016333Y023353D02*
X017323Y023353D01*
X017323Y023472D02*
X016333Y023472D01*
X016333Y023590D02*
X017363Y023590D01*
X017427Y023709D02*
X016333Y023709D01*
X016333Y023827D02*
X017548Y023827D01*
X018074Y025012D02*
X018613Y025012D01*
X018501Y025131D02*
X018193Y025131D01*
X018273Y025249D02*
X018413Y025249D01*
X018413Y025368D02*
X018273Y025368D01*
X018273Y025486D02*
X018413Y025486D01*
X018451Y025605D02*
X018244Y025605D01*
X018159Y025723D02*
X018125Y025723D01*
X018507Y025723D02*
X018569Y025723D01*
X026793Y024775D02*
X026873Y024775D01*
X026873Y024657D02*
X026793Y024657D01*
X026793Y024538D02*
X026873Y024538D01*
X026873Y024301D02*
X026793Y024301D01*
X026793Y024183D02*
X026873Y024183D01*
X026873Y024064D02*
X026793Y024064D01*
X026793Y023946D02*
X026873Y023946D01*
X027793Y023946D02*
X027873Y023946D01*
X027873Y024064D02*
X027793Y024064D01*
X027793Y024183D02*
X027873Y024183D01*
X027873Y024301D02*
X027793Y024301D01*
X027793Y024538D02*
X027873Y024538D01*
X027873Y024657D02*
X027793Y024657D01*
X027793Y024775D02*
X027873Y024775D01*
X028008Y024894D02*
X032706Y024894D01*
X032368Y024183D02*
X028321Y024183D01*
X028249Y024064D02*
X032441Y024064D01*
X032581Y023946D02*
X028119Y023946D01*
X028118Y023827D02*
X032548Y023827D01*
X032427Y023709D02*
X028239Y023709D01*
X028303Y023590D02*
X032363Y023590D01*
X032323Y023472D02*
X028343Y023472D01*
X028343Y023353D02*
X032323Y023353D01*
X032347Y023235D02*
X028319Y023235D01*
X028270Y023116D02*
X032396Y023116D01*
X032507Y022998D02*
X028159Y022998D01*
X027992Y022879D02*
X032619Y022879D01*
X032451Y022761D02*
X028187Y022761D01*
X028282Y022642D02*
X032365Y022642D01*
X032318Y022524D02*
X028331Y022524D01*
X033144Y020983D02*
X033522Y020983D01*
X033403Y021102D02*
X033263Y021102D01*
X033313Y021220D02*
X033353Y021220D01*
X031353Y005815D02*
X031313Y005815D01*
X031313Y005697D02*
X031353Y005697D01*
X031353Y005578D02*
X031313Y005578D01*
X031313Y005460D02*
X031353Y005460D01*
X031353Y005341D02*
X031313Y005341D01*
X031313Y005223D02*
X031353Y005223D01*
X031353Y005104D02*
X031313Y005104D01*
X031313Y004986D02*
X031353Y004986D01*
X030992Y004986D02*
X030647Y004986D01*
X030765Y005104D02*
X030824Y005245D01*
X030842Y005190D01*
X030880Y005116D01*
X030831Y005223D02*
X030814Y005223D01*
X030808Y005578D02*
X030836Y005578D01*
X030898Y005697D02*
X030751Y005697D01*
X030632Y005815D02*
X031012Y005815D01*
X030044Y004961D02*
X029901Y005104D01*
X028883Y005460D02*
X028783Y005460D01*
X028783Y005578D02*
X028883Y005578D01*
X028883Y005697D02*
X028783Y005697D01*
X028783Y005815D02*
X028883Y005815D01*
X028883Y005934D02*
X028783Y005934D01*
X028783Y006052D02*
X028883Y006052D01*
X028883Y006171D02*
X028783Y006171D01*
X028492Y006171D02*
X028303Y006171D01*
X028303Y006052D02*
X028388Y006052D01*
X028331Y005934D02*
X028314Y005934D01*
D22*
X027833Y005393D02*
X027833Y008093D01*
X026533Y009393D01*
X024616Y009393D01*
X024049Y008826D01*
X024049Y010809D01*
X024433Y011193D01*
X024049Y008826D02*
X022716Y007493D01*
X015233Y007493D01*
X014833Y007093D01*
X011633Y007093D01*
X010833Y006293D01*
X010833Y005493D01*
X012833Y005493D02*
X015133Y005493D01*
X016033Y006393D01*
X016833Y006393D01*
D23*
X016333Y008393D02*
X014616Y008393D01*
X014303Y008080D01*
X014616Y012393D02*
X016333Y012393D01*
X014616Y012393D02*
X014303Y012706D01*
X014303Y015080D02*
X014616Y015393D01*
X016333Y015393D01*
X016333Y019393D02*
X014616Y019393D01*
X014303Y019706D01*
X014303Y022080D02*
X014616Y022393D01*
X016333Y022393D01*
X016333Y026393D02*
X014616Y026393D01*
X014303Y026706D01*
X014303Y029080D02*
X014616Y029393D01*
X016333Y029393D01*
X016333Y033393D02*
X014616Y033393D01*
X014303Y033706D01*
D24*
X016333Y033393D02*
X016333Y034393D01*
X016333Y035393D02*
X017033Y035393D01*
X018333Y034093D01*
X018333Y033143D01*
X021083Y033143D01*
X021833Y032393D01*
X021833Y031393D02*
X020833Y031393D01*
X020333Y030893D01*
X020333Y027193D01*
X019333Y026193D01*
X018383Y026193D01*
X018333Y026143D01*
X018333Y026993D01*
X016933Y028393D01*
X016333Y028393D01*
X016333Y027393D02*
X016333Y026393D01*
X018833Y025393D02*
X018833Y023393D01*
X018833Y022993D01*
X018233Y022393D01*
X016333Y022393D01*
X016333Y021393D02*
X016733Y021393D01*
X018333Y019793D01*
X018333Y019143D01*
X018383Y019093D01*
X019133Y019093D01*
X020833Y020793D01*
X020833Y030093D01*
X021133Y030393D01*
X021833Y030393D01*
X021833Y029393D02*
X021833Y014193D01*
X019733Y012093D01*
X018383Y012093D01*
X018333Y012143D01*
X018333Y013293D01*
X017233Y014393D01*
X016333Y014393D01*
X016333Y015393D02*
X018333Y015393D01*
X018833Y015893D01*
X018833Y016393D01*
X018833Y018393D01*
X018833Y011393D02*
X018833Y009293D01*
X018733Y009193D01*
X018733Y008893D01*
X018233Y008393D01*
X016333Y008393D01*
X016333Y029393D02*
X018233Y029393D01*
X018833Y029993D01*
X018833Y030393D01*
X018833Y032393D01*
D25*
X016333Y020293D02*
X016333Y019393D01*
X016333Y013393D02*
X016333Y012393D01*
D26*
X033333Y006993D02*
X034833Y008493D01*
X034833Y021393D01*
D27*
X015071Y024393D02*
X005833Y024393D01*
X005833Y022456D02*
X009362Y022456D01*
X009362Y022080D01*
X009362Y019706D02*
X009362Y019393D01*
X005833Y019393D01*
X005833Y017425D02*
X015071Y017425D01*
X015071Y017393D01*
X009362Y015456D02*
X009362Y015080D01*
X009362Y015456D02*
X005833Y015456D01*
X005833Y012393D02*
X009362Y012393D01*
X009362Y012706D01*
X005833Y010425D02*
X015071Y010425D01*
X015071Y010393D01*
X009362Y008456D02*
X009362Y008080D01*
X009362Y008456D02*
X005833Y008456D01*
X005833Y026393D02*
X009362Y026393D01*
X009362Y026706D01*
X009362Y029080D02*
X009362Y029456D01*
X005833Y029456D01*
X005833Y031425D02*
X014833Y031425D01*
X014833Y031393D01*
X015071Y031393D01*
X009362Y033393D02*
X009362Y033706D01*
X009362Y033393D02*
X005833Y033393D01*
M02*
