G75*
%MOIN*%
%OFA0B0*%
%FSLAX24Y24*%
%IPPOS*%
%LPD*%
%AMOC8*
5,1,8,0,0,1.08239X$1,22.5*
%
%ADD10C,0.1340*%
%ADD11C,0.0010*%
%ADD12C,0.0730*%
%ADD13R,0.1030X0.1030*%
%ADD14C,0.1030*%
%ADD15R,0.0395X0.0395*%
%ADD16R,0.0474X0.0513*%
%ADD17R,0.0513X0.0474*%
%ADD18C,0.0820*%
%ADD19C,0.0820*%
%ADD20C,0.0867*%
%ADD21R,0.0474X0.0631*%
%ADD22R,0.0631X0.0631*%
%ADD23R,0.0631X0.1261*%
%ADD24R,0.1261X0.0631*%
%ADD25R,0.1080X0.1080*%
%ADD26R,0.0946X0.0316*%
%ADD27R,0.1655X0.2206*%
%ADD28C,0.0840*%
D10*
X005833Y006393D03*
X005833Y036393D03*
X037833Y036393D03*
X037833Y006393D03*
D11*
X032333Y026513D02*
X032433Y026953D01*
X032333Y027023D01*
X032233Y026953D01*
X032333Y026513D01*
X032332Y026518D02*
X032334Y026518D01*
X032330Y026526D02*
X032336Y026526D01*
X032338Y026535D02*
X032328Y026535D01*
X032326Y026543D02*
X032340Y026543D01*
X032342Y026552D02*
X032324Y026552D01*
X032322Y026560D02*
X032344Y026560D01*
X032346Y026569D02*
X032320Y026569D01*
X032318Y026577D02*
X032348Y026577D01*
X032349Y026586D02*
X032316Y026586D01*
X032315Y026594D02*
X032351Y026594D01*
X032353Y026603D02*
X032313Y026603D01*
X032311Y026611D02*
X032355Y026611D01*
X032357Y026620D02*
X032309Y026620D01*
X032307Y026628D02*
X032359Y026628D01*
X032361Y026637D02*
X032305Y026637D01*
X032303Y026645D02*
X032363Y026645D01*
X032365Y026654D02*
X032301Y026654D01*
X032299Y026662D02*
X032367Y026662D01*
X032369Y026671D02*
X032297Y026671D01*
X032295Y026679D02*
X032371Y026679D01*
X032373Y026688D02*
X032293Y026688D01*
X032291Y026696D02*
X032375Y026696D01*
X032376Y026705D02*
X032289Y026705D01*
X032287Y026713D02*
X032378Y026713D01*
X032380Y026722D02*
X032286Y026722D01*
X032284Y026730D02*
X032382Y026730D01*
X032384Y026739D02*
X032282Y026739D01*
X032280Y026747D02*
X032386Y026747D01*
X032388Y026756D02*
X032278Y026756D01*
X032276Y026764D02*
X032390Y026764D01*
X032392Y026773D02*
X032274Y026773D01*
X032272Y026781D02*
X032394Y026781D01*
X032396Y026790D02*
X032270Y026790D01*
X032268Y026798D02*
X032398Y026798D01*
X032400Y026807D02*
X032266Y026807D01*
X032264Y026815D02*
X032402Y026815D01*
X032404Y026824D02*
X032262Y026824D01*
X032260Y026832D02*
X032405Y026832D01*
X032407Y026841D02*
X032258Y026841D01*
X032257Y026849D02*
X032409Y026849D01*
X032411Y026858D02*
X032255Y026858D01*
X032253Y026866D02*
X032413Y026866D01*
X032415Y026875D02*
X032251Y026875D01*
X032249Y026883D02*
X032417Y026883D01*
X032419Y026892D02*
X032247Y026892D01*
X032245Y026900D02*
X032421Y026900D01*
X032423Y026909D02*
X032243Y026909D01*
X032241Y026917D02*
X032425Y026917D01*
X032427Y026926D02*
X032239Y026926D01*
X032237Y026934D02*
X032429Y026934D01*
X032431Y026943D02*
X032235Y026943D01*
X032233Y026951D02*
X032433Y026951D01*
X032423Y026960D02*
X032242Y026960D01*
X032255Y026968D02*
X032411Y026968D01*
X032399Y026977D02*
X032267Y026977D01*
X032279Y026985D02*
X032387Y026985D01*
X032375Y026994D02*
X032291Y026994D01*
X032303Y027002D02*
X032363Y027002D01*
X032351Y027011D02*
X032315Y027011D01*
X032327Y027019D02*
X032338Y027019D01*
X032411Y027121D02*
X032726Y027121D01*
X032731Y027113D02*
X032424Y027113D01*
X032437Y027104D02*
X032736Y027104D01*
X032742Y027096D02*
X032450Y027096D01*
X032463Y027087D02*
X032747Y027087D01*
X032753Y027079D02*
X032476Y027079D01*
X032488Y027070D02*
X032758Y027070D01*
X032763Y027062D02*
X032501Y027062D01*
X032514Y027053D02*
X032769Y027053D01*
X032774Y027045D02*
X032527Y027045D01*
X032540Y027036D02*
X032780Y027036D01*
X032785Y027028D02*
X032553Y027028D01*
X032566Y027019D02*
X032790Y027019D01*
X032796Y027011D02*
X032578Y027011D01*
X032591Y027002D02*
X032801Y027002D01*
X032807Y026994D02*
X032604Y026994D01*
X032617Y026985D02*
X032812Y026985D01*
X032817Y026977D02*
X032630Y026977D01*
X032643Y026968D02*
X032823Y026968D01*
X032828Y026960D02*
X032656Y026960D01*
X032668Y026951D02*
X032833Y026951D01*
X032839Y026943D02*
X032681Y026943D01*
X032694Y026934D02*
X032844Y026934D01*
X032850Y026926D02*
X032707Y026926D01*
X032720Y026917D02*
X032855Y026917D01*
X032860Y026909D02*
X032733Y026909D01*
X032746Y026900D02*
X032866Y026900D01*
X032871Y026892D02*
X032758Y026892D01*
X032771Y026883D02*
X032877Y026883D01*
X032882Y026875D02*
X032784Y026875D01*
X032797Y026866D02*
X032887Y026866D01*
X032893Y026858D02*
X032810Y026858D01*
X032823Y026849D02*
X032898Y026849D01*
X032904Y026841D02*
X032836Y026841D01*
X032848Y026832D02*
X032909Y026832D01*
X032914Y026824D02*
X032861Y026824D01*
X032874Y026815D02*
X032920Y026815D01*
X032925Y026807D02*
X032887Y026807D01*
X032900Y026798D02*
X032931Y026798D01*
X032936Y026790D02*
X032913Y026790D01*
X032926Y026781D02*
X032941Y026781D01*
X032938Y026773D02*
X032947Y026773D01*
X032951Y026764D02*
X032952Y026764D01*
X032953Y026763D02*
X032553Y027393D01*
X032933Y028003D01*
X032333Y027613D01*
X031723Y027993D01*
X032103Y027393D01*
X031723Y026773D01*
X032333Y027173D01*
X032953Y026763D01*
X032720Y027130D02*
X032399Y027130D01*
X032386Y027138D02*
X032715Y027138D01*
X032709Y027147D02*
X032373Y027147D01*
X032360Y027155D02*
X032704Y027155D01*
X032699Y027164D02*
X032347Y027164D01*
X032334Y027172D02*
X032693Y027172D01*
X032688Y027181D02*
X031973Y027181D01*
X031978Y027189D02*
X032682Y027189D01*
X032677Y027198D02*
X031983Y027198D01*
X031988Y027206D02*
X032672Y027206D01*
X032666Y027215D02*
X031994Y027215D01*
X031999Y027223D02*
X032661Y027223D01*
X032655Y027232D02*
X032004Y027232D01*
X032009Y027240D02*
X032650Y027240D01*
X032645Y027249D02*
X032014Y027249D01*
X032020Y027257D02*
X032639Y027257D01*
X032634Y027266D02*
X032025Y027266D01*
X032030Y027274D02*
X032628Y027274D01*
X032623Y027283D02*
X032035Y027283D01*
X032041Y027291D02*
X032618Y027291D01*
X032612Y027300D02*
X032046Y027300D01*
X032051Y027308D02*
X032607Y027308D01*
X032601Y027317D02*
X032056Y027317D01*
X032061Y027325D02*
X032596Y027325D01*
X032591Y027334D02*
X032067Y027334D01*
X032072Y027342D02*
X032585Y027342D01*
X032580Y027351D02*
X032077Y027351D01*
X032082Y027359D02*
X032574Y027359D01*
X032569Y027368D02*
X032087Y027368D01*
X032093Y027376D02*
X032564Y027376D01*
X032558Y027385D02*
X032098Y027385D01*
X032103Y027393D02*
X032553Y027393D01*
X032558Y027402D02*
X032097Y027402D01*
X032092Y027410D02*
X032564Y027410D01*
X032569Y027419D02*
X032087Y027419D01*
X032081Y027427D02*
X032574Y027427D01*
X032580Y027436D02*
X032076Y027436D01*
X032071Y027444D02*
X032585Y027444D01*
X032590Y027453D02*
X032065Y027453D01*
X032060Y027461D02*
X032595Y027461D01*
X032601Y027470D02*
X032054Y027470D01*
X032049Y027478D02*
X032606Y027478D01*
X032611Y027487D02*
X032044Y027487D01*
X032038Y027495D02*
X032617Y027495D01*
X032622Y027504D02*
X032033Y027504D01*
X032027Y027512D02*
X032627Y027512D01*
X032632Y027521D02*
X032022Y027521D01*
X032017Y027529D02*
X032638Y027529D01*
X032643Y027538D02*
X032011Y027538D01*
X032006Y027546D02*
X032648Y027546D01*
X032654Y027555D02*
X032001Y027555D01*
X031995Y027563D02*
X032659Y027563D01*
X032664Y027572D02*
X031990Y027572D01*
X031984Y027580D02*
X032670Y027580D01*
X032675Y027589D02*
X031979Y027589D01*
X031974Y027597D02*
X032680Y027597D01*
X032685Y027606D02*
X031968Y027606D01*
X031963Y027614D02*
X032331Y027614D01*
X032335Y027614D02*
X032691Y027614D01*
X032696Y027623D02*
X032348Y027623D01*
X032361Y027631D02*
X032701Y027631D01*
X032707Y027640D02*
X032374Y027640D01*
X032387Y027648D02*
X032712Y027648D01*
X032717Y027657D02*
X032400Y027657D01*
X032413Y027665D02*
X032722Y027665D01*
X032728Y027674D02*
X032426Y027674D01*
X032439Y027682D02*
X032733Y027682D01*
X032738Y027691D02*
X032452Y027691D01*
X032465Y027699D02*
X032744Y027699D01*
X032749Y027708D02*
X032479Y027708D01*
X032492Y027716D02*
X032754Y027716D01*
X032760Y027725D02*
X032505Y027725D01*
X032518Y027733D02*
X032765Y027733D01*
X032770Y027742D02*
X032531Y027742D01*
X032544Y027750D02*
X032775Y027750D01*
X032781Y027759D02*
X032557Y027759D01*
X032570Y027767D02*
X032786Y027767D01*
X032791Y027776D02*
X032583Y027776D01*
X032596Y027784D02*
X032797Y027784D01*
X032802Y027793D02*
X032609Y027793D01*
X032622Y027801D02*
X032807Y027801D01*
X032813Y027810D02*
X032635Y027810D01*
X032649Y027818D02*
X032818Y027818D01*
X032823Y027827D02*
X032662Y027827D01*
X032675Y027835D02*
X032828Y027835D01*
X032834Y027844D02*
X032688Y027844D01*
X032701Y027852D02*
X032839Y027852D01*
X032844Y027861D02*
X032714Y027861D01*
X032727Y027869D02*
X032850Y027869D01*
X032855Y027878D02*
X032740Y027878D01*
X032753Y027886D02*
X032860Y027886D01*
X032865Y027895D02*
X032766Y027895D01*
X032779Y027903D02*
X032871Y027903D01*
X032876Y027912D02*
X032792Y027912D01*
X032806Y027920D02*
X032881Y027920D01*
X032887Y027929D02*
X032819Y027929D01*
X032832Y027937D02*
X032892Y027937D01*
X032897Y027946D02*
X032845Y027946D01*
X032858Y027954D02*
X032903Y027954D01*
X032908Y027963D02*
X032871Y027963D01*
X032884Y027971D02*
X032913Y027971D01*
X032918Y027980D02*
X032897Y027980D01*
X032910Y027988D02*
X032924Y027988D01*
X032923Y027997D02*
X032929Y027997D01*
X032417Y027886D02*
X032249Y027886D01*
X032247Y027878D02*
X032419Y027878D01*
X032421Y027869D02*
X032245Y027869D01*
X032243Y027861D02*
X032423Y027861D01*
X032424Y027852D02*
X032241Y027852D01*
X032240Y027844D02*
X032426Y027844D01*
X032428Y027835D02*
X032238Y027835D01*
X032236Y027827D02*
X032430Y027827D01*
X032432Y027818D02*
X032234Y027818D01*
X032233Y027813D02*
X032333Y027753D01*
X032433Y027813D01*
X032333Y028273D01*
X032233Y027813D01*
X032239Y027810D02*
X032427Y027810D01*
X032413Y027801D02*
X032253Y027801D01*
X032267Y027793D02*
X032399Y027793D01*
X032385Y027784D02*
X032281Y027784D01*
X032295Y027776D02*
X032371Y027776D01*
X032357Y027767D02*
X032309Y027767D01*
X032324Y027759D02*
X032342Y027759D01*
X032277Y027648D02*
X031941Y027648D01*
X031947Y027640D02*
X032290Y027640D01*
X032304Y027631D02*
X031952Y027631D01*
X031957Y027623D02*
X032317Y027623D01*
X032263Y027657D02*
X031936Y027657D01*
X031931Y027665D02*
X032249Y027665D01*
X032236Y027674D02*
X031925Y027674D01*
X031920Y027682D02*
X032222Y027682D01*
X032208Y027691D02*
X031914Y027691D01*
X031909Y027699D02*
X032195Y027699D01*
X032181Y027708D02*
X031904Y027708D01*
X031898Y027716D02*
X032167Y027716D01*
X032154Y027725D02*
X031893Y027725D01*
X031888Y027733D02*
X032140Y027733D01*
X032126Y027742D02*
X031882Y027742D01*
X031877Y027750D02*
X032113Y027750D01*
X032099Y027759D02*
X031871Y027759D01*
X031866Y027767D02*
X032085Y027767D01*
X032072Y027776D02*
X031861Y027776D01*
X031855Y027784D02*
X032058Y027784D01*
X032045Y027793D02*
X031850Y027793D01*
X031844Y027801D02*
X032031Y027801D01*
X032017Y027810D02*
X031839Y027810D01*
X031834Y027818D02*
X032004Y027818D01*
X031990Y027827D02*
X031828Y027827D01*
X031823Y027835D02*
X031976Y027835D01*
X031963Y027844D02*
X031818Y027844D01*
X031812Y027852D02*
X031949Y027852D01*
X031935Y027861D02*
X031807Y027861D01*
X031801Y027869D02*
X031922Y027869D01*
X031908Y027878D02*
X031796Y027878D01*
X031791Y027886D02*
X031894Y027886D01*
X031881Y027895D02*
X031785Y027895D01*
X031780Y027903D02*
X031867Y027903D01*
X031854Y027912D02*
X031774Y027912D01*
X031769Y027920D02*
X031840Y027920D01*
X031826Y027929D02*
X031764Y027929D01*
X031758Y027937D02*
X031813Y027937D01*
X031799Y027946D02*
X031753Y027946D01*
X031748Y027954D02*
X031785Y027954D01*
X031772Y027963D02*
X031742Y027963D01*
X031737Y027971D02*
X031758Y027971D01*
X031744Y027980D02*
X031731Y027980D01*
X031731Y027988D02*
X031726Y027988D01*
X032251Y027895D02*
X032415Y027895D01*
X032413Y027903D02*
X032253Y027903D01*
X032254Y027912D02*
X032411Y027912D01*
X032410Y027920D02*
X032256Y027920D01*
X032258Y027929D02*
X032408Y027929D01*
X032406Y027937D02*
X032260Y027937D01*
X032262Y027946D02*
X032404Y027946D01*
X032402Y027954D02*
X032264Y027954D01*
X032265Y027963D02*
X032400Y027963D01*
X032399Y027971D02*
X032267Y027971D01*
X032269Y027980D02*
X032397Y027980D01*
X032395Y027988D02*
X032271Y027988D01*
X032273Y027997D02*
X032393Y027997D01*
X032391Y028005D02*
X032275Y028005D01*
X032277Y028014D02*
X032389Y028014D01*
X032387Y028022D02*
X032278Y028022D01*
X032280Y028031D02*
X032386Y028031D01*
X032384Y028039D02*
X032282Y028039D01*
X032284Y028048D02*
X032382Y028048D01*
X032380Y028056D02*
X032286Y028056D01*
X032288Y028065D02*
X032378Y028065D01*
X032376Y028073D02*
X032289Y028073D01*
X032291Y028082D02*
X032375Y028082D01*
X032373Y028090D02*
X032293Y028090D01*
X032295Y028099D02*
X032371Y028099D01*
X032369Y028107D02*
X032297Y028107D01*
X032299Y028116D02*
X032367Y028116D01*
X032365Y028124D02*
X032301Y028124D01*
X032302Y028133D02*
X032363Y028133D01*
X032362Y028141D02*
X032304Y028141D01*
X032306Y028150D02*
X032360Y028150D01*
X032358Y028158D02*
X032308Y028158D01*
X032310Y028167D02*
X032356Y028167D01*
X032354Y028175D02*
X032312Y028175D01*
X032314Y028184D02*
X032352Y028184D01*
X032351Y028192D02*
X032315Y028192D01*
X032317Y028201D02*
X032349Y028201D01*
X032347Y028209D02*
X032319Y028209D01*
X032321Y028218D02*
X032345Y028218D01*
X032343Y028226D02*
X032323Y028226D01*
X032325Y028235D02*
X032341Y028235D01*
X032339Y028243D02*
X032326Y028243D01*
X032328Y028252D02*
X032338Y028252D01*
X032336Y028260D02*
X032330Y028260D01*
X032332Y028269D02*
X032334Y028269D01*
X032753Y027483D02*
X033193Y027393D01*
X032753Y027303D01*
X032693Y027393D01*
X032753Y027483D01*
X032750Y027478D02*
X032777Y027478D01*
X032744Y027470D02*
X032818Y027470D01*
X032860Y027461D02*
X032738Y027461D01*
X032733Y027453D02*
X032901Y027453D01*
X032943Y027444D02*
X032727Y027444D01*
X032721Y027436D02*
X032984Y027436D01*
X033026Y027427D02*
X032716Y027427D01*
X032710Y027419D02*
X033068Y027419D01*
X033109Y027410D02*
X032704Y027410D01*
X032699Y027402D02*
X033151Y027402D01*
X033152Y027385D02*
X032699Y027385D01*
X032704Y027376D02*
X033111Y027376D01*
X033069Y027368D02*
X032710Y027368D01*
X032716Y027359D02*
X033027Y027359D01*
X032986Y027351D02*
X032721Y027351D01*
X032727Y027342D02*
X032944Y027342D01*
X032903Y027334D02*
X032733Y027334D01*
X032738Y027325D02*
X032861Y027325D01*
X032820Y027317D02*
X032744Y027317D01*
X032750Y027308D02*
X032778Y027308D01*
X032693Y027393D02*
X033192Y027393D01*
X032332Y027172D02*
X031968Y027172D01*
X031962Y027164D02*
X032319Y027164D01*
X032306Y027155D02*
X031957Y027155D01*
X031952Y027147D02*
X032293Y027147D01*
X032280Y027138D02*
X031947Y027138D01*
X031942Y027130D02*
X032267Y027130D01*
X032254Y027121D02*
X031936Y027121D01*
X031931Y027113D02*
X032241Y027113D01*
X032228Y027104D02*
X031926Y027104D01*
X031921Y027096D02*
X032215Y027096D01*
X032202Y027087D02*
X031915Y027087D01*
X031910Y027079D02*
X032189Y027079D01*
X032176Y027070D02*
X031905Y027070D01*
X031900Y027062D02*
X032163Y027062D01*
X032150Y027053D02*
X031895Y027053D01*
X031889Y027045D02*
X032137Y027045D01*
X032124Y027036D02*
X031884Y027036D01*
X031879Y027028D02*
X032111Y027028D01*
X032098Y027019D02*
X031874Y027019D01*
X031869Y027011D02*
X032085Y027011D01*
X032072Y027002D02*
X031863Y027002D01*
X031858Y026994D02*
X032059Y026994D01*
X032046Y026985D02*
X031853Y026985D01*
X031848Y026977D02*
X032033Y026977D01*
X032021Y026968D02*
X031843Y026968D01*
X031837Y026960D02*
X032008Y026960D01*
X031995Y026951D02*
X031832Y026951D01*
X031827Y026943D02*
X031982Y026943D01*
X031969Y026934D02*
X031822Y026934D01*
X031816Y026926D02*
X031956Y026926D01*
X031943Y026917D02*
X031811Y026917D01*
X031806Y026909D02*
X031930Y026909D01*
X031917Y026900D02*
X031801Y026900D01*
X031796Y026892D02*
X031904Y026892D01*
X031891Y026883D02*
X031790Y026883D01*
X031785Y026875D02*
X031878Y026875D01*
X031865Y026866D02*
X031780Y026866D01*
X031775Y026858D02*
X031852Y026858D01*
X031839Y026849D02*
X031770Y026849D01*
X031764Y026841D02*
X031826Y026841D01*
X031813Y026832D02*
X031759Y026832D01*
X031754Y026824D02*
X031800Y026824D01*
X031787Y026815D02*
X031749Y026815D01*
X031744Y026807D02*
X031774Y026807D01*
X031761Y026798D02*
X031738Y026798D01*
X031733Y026790D02*
X031748Y026790D01*
X031735Y026781D02*
X031728Y026781D01*
X031843Y027317D02*
X031922Y027317D01*
X031928Y027325D02*
X031800Y027325D01*
X031756Y027334D02*
X031933Y027334D01*
X031939Y027342D02*
X031713Y027342D01*
X031669Y027351D02*
X031945Y027351D01*
X031950Y027359D02*
X031626Y027359D01*
X031583Y027368D02*
X031956Y027368D01*
X031962Y027376D02*
X031539Y027376D01*
X031541Y027410D02*
X031962Y027410D01*
X031967Y027402D02*
X031497Y027402D01*
X031496Y027385D02*
X031967Y027385D01*
X031973Y027393D02*
X031913Y027483D01*
X031453Y027393D01*
X031913Y027303D01*
X031973Y027393D01*
X031454Y027393D01*
X031584Y027419D02*
X031956Y027419D01*
X031950Y027427D02*
X031627Y027427D01*
X031671Y027436D02*
X031945Y027436D01*
X031939Y027444D02*
X031714Y027444D01*
X031758Y027453D02*
X031933Y027453D01*
X031928Y027461D02*
X031801Y027461D01*
X031845Y027470D02*
X031922Y027470D01*
X031916Y027478D02*
X031888Y027478D01*
X031887Y027308D02*
X031916Y027308D01*
D12*
X016023Y024893D03*
X015233Y022533D03*
X015233Y020253D03*
X016023Y017893D03*
X015233Y015533D03*
X015233Y013253D03*
X016023Y010893D03*
X015233Y008533D03*
X010433Y008533D03*
X010433Y013253D03*
X010433Y015533D03*
X010433Y020253D03*
X010433Y022533D03*
X010433Y027253D03*
X010433Y029533D03*
X015233Y029533D03*
X015233Y027253D03*
X016023Y031893D03*
X015233Y034253D03*
X010433Y034253D03*
D13*
X005833Y033893D03*
X005833Y026893D03*
X005833Y019893D03*
X005833Y012893D03*
D14*
X005833Y010925D03*
X005833Y008956D03*
X005833Y015956D03*
X005833Y017925D03*
X005833Y022956D03*
X005833Y024925D03*
X005833Y029956D03*
X005833Y031925D03*
D15*
X020638Y033193D03*
X021228Y033193D03*
X021228Y026193D03*
X020638Y026193D03*
X020738Y019193D03*
X021328Y019193D03*
X021328Y012193D03*
X020738Y012193D03*
X037638Y010593D03*
X038228Y010593D03*
D16*
X035733Y011859D03*
X035733Y012528D03*
X030133Y012528D03*
X030133Y011859D03*
X019533Y012128D03*
X019533Y011459D03*
X019533Y018459D03*
X019533Y019128D03*
X019533Y025459D03*
X019533Y026128D03*
X019533Y032459D03*
X019533Y033128D03*
D17*
X020598Y032593D03*
X021268Y032593D03*
X021268Y031393D03*
X020598Y031393D03*
X020598Y025593D03*
X021268Y025593D03*
X021268Y024393D03*
X020598Y024393D03*
X020698Y018593D03*
X021368Y018593D03*
X021368Y017393D03*
X020698Y017393D03*
X020698Y011593D03*
X021368Y011593D03*
X021368Y010393D03*
X020698Y010393D03*
X033498Y010493D03*
X034168Y010493D03*
X036898Y011093D03*
X037568Y011093D03*
D18*
X036833Y021893D03*
X036833Y022893D03*
X035833Y022893D03*
X035833Y021893D03*
X034833Y021893D03*
X034833Y022893D03*
X034833Y023893D03*
X035833Y023893D03*
X035833Y024893D03*
X034833Y024893D03*
X034833Y025893D03*
X035833Y025893D03*
X035833Y026893D03*
X034833Y026893D03*
X034833Y027893D03*
X035833Y027893D03*
X036833Y027893D03*
X036833Y026893D03*
X036833Y025893D03*
X036833Y024893D03*
X036833Y023893D03*
X036833Y028893D03*
X036833Y029893D03*
X035833Y029893D03*
X035833Y028893D03*
X034833Y028893D03*
X034833Y029893D03*
X034833Y030893D03*
X035833Y030893D03*
X035833Y031893D03*
X034833Y031893D03*
X034833Y032893D03*
X035833Y032893D03*
X036833Y032893D03*
X036833Y031893D03*
X036833Y030893D03*
X029833Y030893D03*
X028833Y030893D03*
X027833Y030893D03*
X027833Y031893D03*
X028833Y031893D03*
X029833Y031893D03*
X029833Y032893D03*
X028833Y032893D03*
X027833Y032893D03*
X027833Y029893D03*
X027833Y028893D03*
X028833Y028893D03*
X029833Y028893D03*
X029833Y029893D03*
X028833Y029893D03*
X028833Y027893D03*
X028833Y026893D03*
X028833Y025893D03*
X029833Y025893D03*
X029833Y026893D03*
X029833Y027893D03*
X027833Y027893D03*
X027833Y026893D03*
X027833Y025893D03*
X027833Y024893D03*
X027833Y023893D03*
X028833Y023893D03*
X029833Y023893D03*
X029833Y024893D03*
X028833Y024893D03*
X028833Y022893D03*
X028833Y021893D03*
X029833Y021893D03*
X029833Y022893D03*
X027833Y022893D03*
X027833Y021893D03*
D19*
X023033Y006963D02*
X023033Y006223D01*
X022033Y006223D02*
X022033Y006963D01*
D20*
X025255Y007046D02*
X026042Y007046D01*
X027617Y007952D02*
X027617Y008739D01*
X026042Y009526D02*
X025255Y009526D01*
D21*
X021407Y009526D03*
X020659Y009526D03*
X021033Y008660D03*
X021033Y015660D03*
X021407Y016526D03*
X020659Y016526D03*
X020933Y022660D03*
X021307Y023526D03*
X020559Y023526D03*
X020933Y029660D03*
X021307Y030526D03*
X020559Y030526D03*
D22*
X019533Y031141D03*
X019533Y029645D03*
X019533Y024141D03*
X019533Y022645D03*
X019533Y017141D03*
X019533Y015645D03*
X019533Y010141D03*
X019533Y008645D03*
D23*
X028333Y011148D03*
X028333Y013038D03*
D24*
X032988Y014593D03*
X034878Y014593D03*
D25*
X031333Y012618D03*
X031333Y010768D03*
X029133Y008918D03*
X029133Y007068D03*
D26*
X032809Y011243D03*
X032809Y011743D03*
X032809Y012243D03*
X032809Y012743D03*
X034857Y012743D03*
X034857Y012243D03*
X034857Y011743D03*
X034857Y011243D03*
D27*
X035462Y007593D03*
X031604Y007593D03*
D28*
X026333Y012393D03*
X025333Y012393D03*
X024333Y012393D03*
X024333Y013393D03*
X024333Y014393D03*
X024333Y015393D03*
X025333Y015393D03*
X025333Y014393D03*
X025333Y013393D03*
X026333Y013393D03*
X026333Y014393D03*
X026333Y015393D03*
X027333Y015393D03*
X028333Y015393D03*
X029333Y015393D03*
X030333Y015393D03*
X031333Y015393D03*
X031333Y016393D03*
X032333Y016393D03*
X032333Y017393D03*
X031333Y017393D03*
X030333Y017393D03*
X030333Y016393D03*
X029333Y016393D03*
X028333Y016393D03*
X028333Y017393D03*
X029333Y017393D03*
X029333Y018393D03*
X030333Y018393D03*
X030333Y019393D03*
X029333Y019393D03*
X028333Y019393D03*
X028333Y018393D03*
X027333Y018393D03*
X026333Y018393D03*
X025333Y018393D03*
X025333Y019393D03*
X026333Y019393D03*
X027333Y019393D03*
X027333Y017393D03*
X027333Y016393D03*
X026333Y016393D03*
X025333Y016393D03*
X025333Y017393D03*
X026333Y017393D03*
X024333Y017393D03*
X024333Y016393D03*
X024333Y018393D03*
X024333Y019393D03*
X031333Y019393D03*
X031333Y018393D03*
X032333Y018393D03*
X032333Y019393D03*
X033333Y019393D03*
X033333Y018393D03*
X034333Y018393D03*
X035333Y018393D03*
X035333Y019393D03*
X034333Y019393D03*
X034333Y017393D03*
X034333Y016393D03*
X035333Y016393D03*
X035333Y017393D03*
X033333Y017393D03*
X033333Y016393D03*
M02*
