G75*
G70*
%OFA0B0*%
%FSLAX24Y24*%
%IPPOS*%
%LPD*%
%AMOC8*
5,1,8,0,0,1.08239X$1,22.5*
%
%ADD10C,0.0110*%
%ADD11C,0.0080*%
D10*
X026286Y031618D02*
X026188Y031717D01*
X026188Y032209D01*
X026582Y032209D02*
X026582Y031913D01*
X026483Y031815D01*
X026188Y031815D01*
X026286Y031618D02*
X026385Y031618D01*
X026833Y031815D02*
X027128Y031815D01*
X027226Y031913D01*
X027128Y032012D01*
X026833Y032012D01*
X026833Y032110D02*
X026833Y031815D01*
X026833Y032110D02*
X026931Y032209D01*
X027128Y032209D01*
X027557Y032406D02*
X027557Y031815D01*
X027459Y031815D02*
X027656Y031815D01*
X027907Y032012D02*
X028300Y032012D01*
X028300Y032110D02*
X028202Y032209D01*
X028005Y032209D01*
X027907Y032110D01*
X027907Y032012D01*
X028005Y031815D02*
X028202Y031815D01*
X028300Y031913D01*
X028300Y032110D01*
X028551Y032110D02*
X028650Y032012D01*
X028945Y032012D01*
X028748Y032012D02*
X028551Y031815D01*
X028551Y032110D02*
X028551Y032307D01*
X028650Y032406D01*
X028945Y032406D01*
X028945Y031815D01*
X028300Y032668D02*
X028300Y033259D01*
X028005Y033259D01*
X027907Y033160D01*
X027907Y032963D01*
X028005Y032865D01*
X028300Y032865D01*
X028551Y032963D02*
X028650Y032865D01*
X028847Y032865D01*
X028945Y032963D01*
X028847Y033160D02*
X028945Y033259D01*
X028945Y033357D01*
X028847Y033456D01*
X028650Y033456D01*
X028551Y033357D01*
X028650Y033160D02*
X028551Y033062D01*
X028551Y032963D01*
X028650Y033160D02*
X028847Y033160D01*
X027656Y032963D02*
X027557Y033062D01*
X027262Y033062D01*
X027262Y033160D02*
X027262Y032865D01*
X027557Y032865D01*
X027656Y032963D01*
X027557Y033259D02*
X027361Y033259D01*
X027262Y033160D01*
X027011Y033062D02*
X026815Y033259D01*
X026716Y033259D01*
X027011Y033259D02*
X027011Y032865D01*
X026474Y032865D02*
X026474Y033456D01*
X026179Y033259D02*
X026474Y033062D01*
X026179Y032865D01*
X025293Y032865D02*
X024997Y032865D01*
X024899Y032963D01*
X024899Y033357D01*
X024997Y033456D01*
X025293Y033456D01*
X025293Y032865D01*
X025194Y032406D02*
X025293Y032307D01*
X025293Y032209D01*
X025194Y032110D01*
X024997Y032110D01*
X024899Y032012D01*
X024899Y031913D01*
X024997Y031815D01*
X025194Y031815D01*
X025293Y031913D01*
X025194Y032406D02*
X024997Y032406D01*
X024899Y032307D01*
X024648Y032406D02*
X024648Y031815D01*
X024648Y032110D02*
X024550Y032209D01*
X024353Y032209D01*
X024254Y032110D01*
X024254Y031815D01*
X024003Y031815D02*
X023807Y031815D01*
X023905Y031815D02*
X023905Y032209D01*
X024003Y032209D01*
X023905Y032406D02*
X023905Y032504D01*
X023807Y032865D02*
X023610Y033259D01*
X023359Y033259D02*
X023260Y033259D01*
X023260Y032865D01*
X023162Y032865D02*
X023359Y032865D01*
X023807Y032865D02*
X024003Y033259D01*
X024254Y033160D02*
X024254Y033062D01*
X024648Y033062D01*
X024648Y033160D02*
X024550Y033259D01*
X024353Y033259D01*
X024254Y033160D01*
X024353Y032865D02*
X024550Y032865D01*
X024648Y032963D01*
X024648Y033160D01*
X023574Y032110D02*
X023475Y032209D01*
X023279Y032209D01*
X023180Y032110D01*
X023180Y032012D01*
X023574Y032012D01*
X023574Y032110D02*
X023574Y031913D01*
X023475Y031815D01*
X023279Y031815D01*
X022929Y031815D02*
X022732Y031815D01*
X022831Y031815D02*
X022831Y032406D01*
X022929Y032406D01*
X022500Y032110D02*
X022401Y032209D01*
X022106Y032209D01*
X022106Y032406D02*
X022106Y031815D01*
X022401Y031815D01*
X022500Y031913D01*
X022500Y032110D01*
X022536Y032865D02*
X022831Y032865D01*
X022929Y032963D01*
X022929Y033160D01*
X022831Y033259D01*
X022536Y033259D01*
X022285Y033160D02*
X022186Y033259D01*
X021989Y033259D01*
X021891Y033160D01*
X021891Y033062D01*
X022285Y033062D01*
X022285Y033160D02*
X022285Y032963D01*
X022186Y032865D01*
X021989Y032865D01*
X021640Y032865D02*
X021345Y032865D01*
X021246Y032963D01*
X021345Y033062D01*
X021542Y033062D01*
X021640Y033160D01*
X021542Y033259D01*
X021246Y033259D01*
X023260Y033456D02*
X023260Y033554D01*
X027557Y032406D02*
X027656Y032406D01*
D11*
X002446Y004853D02*
X002600Y004700D01*
X002907Y004700D01*
X003060Y004853D01*
X003060Y005467D01*
X002907Y005621D01*
X002600Y005621D01*
X002446Y005467D01*
X003367Y005621D02*
X003367Y004700D01*
X003981Y005621D01*
X003981Y004700D01*
X004060Y006700D02*
X004060Y007621D01*
X003753Y007314D01*
X003446Y007621D01*
X003446Y006700D01*
X003139Y006700D02*
X003139Y007621D01*
X002832Y007314D01*
X002525Y007621D01*
X002525Y006700D01*
X004367Y006853D02*
X004520Y006700D01*
X004827Y006700D01*
X004981Y006853D01*
X004981Y007467D01*
X004827Y007621D01*
X004520Y007621D01*
X004367Y007467D01*
X004367Y006853D01*
X005288Y006853D02*
X005441Y006700D01*
X005748Y006700D01*
X005902Y006853D01*
X005902Y007467D01*
X005748Y007621D01*
X005441Y007621D01*
X005288Y007467D01*
X003981Y008700D02*
X003981Y009621D01*
X003367Y008700D01*
X003367Y009621D01*
X003060Y009467D02*
X003060Y008853D01*
X002907Y008700D01*
X002600Y008700D01*
X002446Y008853D01*
X002446Y009467D01*
X002600Y009621D01*
X002907Y009621D01*
X003060Y009467D01*
X002907Y011700D02*
X002600Y011700D01*
X002446Y011853D01*
X002907Y011700D02*
X003060Y011853D01*
X003060Y012467D01*
X002907Y012621D01*
X002600Y012621D01*
X002446Y012467D01*
X003367Y012621D02*
X003367Y011700D01*
X003981Y012621D01*
X003981Y011700D01*
X004060Y013700D02*
X004060Y014621D01*
X003753Y014314D01*
X003446Y014621D01*
X003446Y013700D01*
X003139Y013700D02*
X003139Y014621D01*
X002832Y014314D01*
X002525Y014621D01*
X002525Y013700D01*
X004367Y013853D02*
X004520Y013700D01*
X004827Y013700D01*
X004981Y013853D01*
X004981Y014467D01*
X004827Y014621D01*
X004520Y014621D01*
X004367Y014467D01*
X004367Y013853D01*
X005288Y013853D02*
X005441Y013700D01*
X005748Y013700D01*
X005902Y013853D01*
X005902Y014467D01*
X005748Y014621D01*
X005441Y014621D01*
X005288Y014467D01*
X003981Y015700D02*
X003981Y016621D01*
X003367Y015700D01*
X003367Y016621D01*
X003060Y016467D02*
X003060Y015853D01*
X002907Y015700D01*
X002600Y015700D01*
X002446Y015853D01*
X002446Y016467D01*
X002600Y016621D01*
X002907Y016621D01*
X003060Y016467D01*
X002907Y018700D02*
X002600Y018700D01*
X002446Y018853D01*
X002907Y018700D02*
X003060Y018853D01*
X003060Y019467D01*
X002907Y019621D01*
X002600Y019621D01*
X002446Y019467D01*
X003367Y019621D02*
X003367Y018700D01*
X003981Y019621D01*
X003981Y018700D01*
X004060Y020700D02*
X004060Y021621D01*
X003753Y021314D01*
X003446Y021621D01*
X003446Y020700D01*
X003139Y020700D02*
X003139Y021621D01*
X002832Y021314D01*
X002525Y021621D01*
X002525Y020700D01*
X004367Y020853D02*
X004520Y020700D01*
X004827Y020700D01*
X004981Y020853D01*
X004981Y021467D01*
X004827Y021621D01*
X004520Y021621D01*
X004367Y021467D01*
X004367Y020853D01*
X005288Y020853D02*
X005441Y020700D01*
X005748Y020700D01*
X005902Y020853D01*
X005902Y021467D01*
X005748Y021621D01*
X005441Y021621D01*
X005288Y021467D01*
X003981Y022700D02*
X003981Y023621D01*
X003367Y022700D01*
X003367Y023621D01*
X003060Y023467D02*
X003060Y022853D01*
X002907Y022700D01*
X002600Y022700D01*
X002446Y022853D01*
X002446Y023467D01*
X002600Y023621D01*
X002907Y023621D01*
X003060Y023467D01*
X002907Y025700D02*
X002600Y025700D01*
X002446Y025853D01*
X002907Y025700D02*
X003060Y025853D01*
X003060Y026467D01*
X002907Y026621D01*
X002600Y026621D01*
X002446Y026467D01*
X003367Y026621D02*
X003367Y025700D01*
X003981Y026621D01*
X003981Y025700D01*
X004060Y027700D02*
X004060Y028621D01*
X003753Y028314D01*
X003446Y028621D01*
X003446Y027700D01*
X003139Y027700D02*
X003139Y028621D01*
X002832Y028314D01*
X002525Y028621D01*
X002525Y027700D01*
X004367Y027853D02*
X004367Y028467D01*
X004520Y028621D01*
X004827Y028621D01*
X004981Y028467D01*
X004981Y027853D01*
X004827Y027700D01*
X004520Y027700D01*
X004367Y027853D01*
X005288Y027853D02*
X005441Y027700D01*
X005748Y027700D01*
X005902Y027853D01*
X005902Y028467D01*
X005748Y028621D01*
X005441Y028621D01*
X005288Y028467D01*
X003981Y029700D02*
X003981Y030621D01*
X003367Y029700D01*
X003367Y030621D01*
X003060Y030467D02*
X003060Y029853D01*
X002907Y029700D01*
X002600Y029700D01*
X002446Y029853D01*
X002446Y030467D01*
X002600Y030621D01*
X002907Y030621D01*
X003060Y030467D01*
M02*
