G75*
G70*
%OFA0B0*%
%FSLAX24Y24*%
%IPPOS*%
%LPD*%
%AMOC8*
5,1,8,0,0,1.08239X$1,22.5*
%
%ADD10C,0.0110*%
%ADD11C,0.0160*%
%ADD12C,0.0050*%
%ADD13C,0.0070*%
%ADD14C,0.0080*%
%ADD15C,0.0010*%
%ADD16C,0.0100*%
%ADD17C,0.0060*%
%ADD18C,0.0120*%
%ADD19R,0.1000X0.0200*%
%ADD20R,0.0300X0.0750*%
%ADD21R,0.4200X0.0300*%
%ADD22R,0.0750X0.0200*%
%ADD23R,0.0300X0.0200*%
D10*
X016305Y005198D02*
X016896Y005198D01*
X016600Y005494D01*
X016600Y005100D01*
X016797Y006389D02*
X016600Y006586D01*
X016305Y006586D01*
X016600Y006586D02*
X016797Y006783D01*
X016896Y006783D01*
X016699Y007034D02*
X016305Y007034D01*
X016600Y007034D02*
X016600Y007427D01*
X016699Y007427D02*
X016305Y007427D01*
X016305Y007678D02*
X016305Y008072D01*
X016896Y008072D01*
X016896Y008323D02*
X016896Y008716D01*
X016305Y008716D01*
X016305Y008323D01*
X016600Y008520D02*
X016600Y008716D01*
X016600Y008967D02*
X016502Y009066D01*
X016502Y009361D01*
X016502Y009164D02*
X016305Y008967D01*
X016600Y008967D02*
X016797Y008967D01*
X016896Y009066D01*
X016896Y009361D01*
X016305Y009361D01*
X016699Y007427D02*
X016896Y007230D01*
X016699Y007034D01*
X016797Y006389D02*
X016896Y006389D01*
X016797Y012100D02*
X016699Y012100D01*
X016600Y012198D01*
X016502Y012100D01*
X016403Y012100D01*
X016305Y012198D01*
X016305Y012395D01*
X016403Y012494D01*
X016600Y012297D02*
X016600Y012198D01*
X016797Y012100D02*
X016896Y012198D01*
X016896Y012395D01*
X016797Y012494D01*
X016797Y013389D02*
X016896Y013389D01*
X016797Y013389D02*
X016600Y013586D01*
X016305Y013586D01*
X016600Y013586D02*
X016797Y013783D01*
X016896Y013783D01*
X016699Y014034D02*
X016305Y014034D01*
X016600Y014034D02*
X016600Y014427D01*
X016699Y014427D02*
X016305Y014427D01*
X016305Y014678D02*
X016305Y015072D01*
X016896Y015072D01*
X016896Y015323D02*
X016896Y015716D01*
X016305Y015716D01*
X016305Y015323D01*
X016600Y015520D02*
X016600Y015716D01*
X016600Y015967D02*
X016502Y016066D01*
X016502Y016361D01*
X016502Y016164D02*
X016305Y015967D01*
X016600Y015967D02*
X016797Y015967D01*
X016896Y016066D01*
X016896Y016361D01*
X016305Y016361D01*
X016699Y014427D02*
X016896Y014230D01*
X016699Y014034D01*
X016699Y019100D02*
X016797Y019100D01*
X016896Y019198D01*
X016896Y019395D01*
X016797Y019494D01*
X016699Y019100D02*
X016305Y019494D01*
X016305Y019100D01*
X016797Y020389D02*
X016896Y020389D01*
X016797Y020389D02*
X016600Y020586D01*
X016305Y020586D01*
X016600Y020586D02*
X016797Y020783D01*
X016896Y020783D01*
X016699Y021034D02*
X016305Y021034D01*
X016600Y021034D02*
X016600Y021427D01*
X016699Y021427D02*
X016305Y021427D01*
X016305Y021678D02*
X016305Y022072D01*
X016896Y022072D01*
X016896Y022323D02*
X016896Y022716D01*
X016305Y022716D01*
X016305Y022323D01*
X016600Y022520D02*
X016600Y022716D01*
X016600Y022967D02*
X016502Y023066D01*
X016502Y023361D01*
X016502Y023164D02*
X016305Y022967D01*
X016600Y022967D02*
X016797Y022967D01*
X016896Y023066D01*
X016896Y023361D01*
X016305Y023361D01*
X016699Y021427D02*
X016896Y021230D01*
X016699Y021034D01*
X016305Y026100D02*
X016305Y026494D01*
X016305Y026297D02*
X016896Y026297D01*
X016699Y026494D01*
X016797Y027389D02*
X016896Y027389D01*
X016797Y027389D02*
X016600Y027586D01*
X016305Y027586D01*
X016600Y027586D02*
X016797Y027783D01*
X016896Y027783D01*
X016699Y028034D02*
X016305Y028034D01*
X016600Y028034D02*
X016600Y028427D01*
X016699Y028427D02*
X016305Y028427D01*
X016305Y028678D02*
X016305Y029072D01*
X016896Y029072D01*
X016896Y029323D02*
X016896Y029716D01*
X016305Y029716D01*
X016305Y029323D01*
X016600Y029520D02*
X016600Y029716D01*
X016600Y029967D02*
X016502Y030066D01*
X016502Y030361D01*
X016502Y030164D02*
X016305Y029967D01*
X016600Y029967D02*
X016797Y029967D01*
X016896Y030066D01*
X016896Y030361D01*
X016305Y030361D01*
X016699Y028427D02*
X016896Y028230D01*
X016699Y028034D01*
X024403Y004972D02*
X024305Y004873D01*
X024305Y004677D01*
X024403Y004578D01*
X024600Y004578D01*
X024600Y004775D01*
X024797Y004972D02*
X024403Y004972D01*
X024797Y004972D02*
X024896Y004873D01*
X024896Y004677D01*
X024797Y004578D01*
X024896Y004327D02*
X024305Y003934D01*
X024896Y003934D01*
X024896Y003683D02*
X024305Y003683D01*
X024305Y003387D01*
X024403Y003289D01*
X024797Y003289D01*
X024896Y003387D01*
X024896Y003683D01*
X024896Y004327D02*
X024305Y004327D01*
D11*
X024000Y003660D02*
X023200Y003660D01*
X023600Y004060D02*
X023600Y003260D01*
X016600Y004160D02*
X015600Y004160D01*
X016600Y004160D02*
X016600Y004660D01*
X016600Y009660D02*
X016600Y010160D01*
X015600Y010160D01*
X015600Y011160D02*
X016600Y011160D01*
X016600Y011660D01*
X016600Y016660D02*
X016600Y017160D01*
X015600Y017160D01*
X015600Y018160D02*
X016600Y018160D01*
X016600Y018660D01*
X016600Y023660D02*
X016600Y024160D01*
X015600Y024160D01*
X015600Y025160D02*
X016600Y025160D01*
X016600Y025660D01*
X016600Y030660D02*
X016600Y031160D01*
X015600Y031160D01*
D12*
X015145Y029060D02*
X014987Y029060D01*
X014925Y028510D02*
X013275Y028510D01*
X013213Y029060D02*
X013055Y029060D01*
X013987Y029060D02*
X014213Y029060D01*
X013275Y028510D02*
X013240Y028558D01*
X013207Y028608D01*
X013176Y028660D01*
X013149Y028714D01*
X013125Y028769D01*
X013105Y028826D01*
X013087Y028883D01*
X013073Y028941D01*
X013062Y029000D01*
X013055Y029060D01*
X013051Y029122D01*
X013050Y029185D01*
X013054Y029247D01*
X013061Y029309D01*
X013071Y029370D01*
X013086Y029431D01*
X013104Y029491D01*
X013125Y029550D01*
X013150Y029607D01*
X013178Y029662D01*
X013209Y029716D01*
X013244Y029768D01*
X013282Y029818D01*
X013322Y029865D01*
X013366Y029910D01*
X013411Y029953D01*
X013460Y029992D01*
X013510Y030029D01*
X013563Y030062D01*
X013617Y030093D01*
X013674Y030120D01*
X013731Y030143D01*
X013790Y030163D01*
X014410Y030163D02*
X014470Y030143D01*
X014529Y030119D01*
X014586Y030091D01*
X014641Y030060D01*
X014695Y030025D01*
X014746Y029988D01*
X014795Y029947D01*
X014841Y029903D01*
X014885Y029857D01*
X014926Y029808D01*
X014964Y029757D01*
X014998Y029704D01*
X015030Y029648D01*
X015057Y029591D01*
X015082Y029532D01*
X015102Y029472D01*
X015120Y029411D01*
X015133Y029349D01*
X015142Y029286D01*
X015148Y029223D01*
X015150Y029159D01*
X015148Y029095D01*
X015142Y029032D01*
X015133Y028969D01*
X015119Y028907D01*
X015102Y028846D01*
X015081Y028786D01*
X015057Y028727D01*
X015029Y028670D01*
X014997Y028614D01*
X014962Y028561D01*
X014925Y028510D01*
X011360Y031270D02*
X011360Y025050D01*
X003840Y025050D01*
X003840Y031270D01*
X011360Y031270D01*
X011360Y024270D02*
X003840Y024270D01*
X003840Y018050D01*
X011360Y018050D01*
X011360Y024270D01*
X013055Y022060D02*
X013213Y022060D01*
X013275Y021510D02*
X014925Y021510D01*
X014987Y022060D02*
X015145Y022060D01*
X014213Y022060D02*
X013987Y022060D01*
X013275Y021510D02*
X013240Y021558D01*
X013207Y021608D01*
X013176Y021660D01*
X013149Y021714D01*
X013125Y021769D01*
X013105Y021826D01*
X013087Y021883D01*
X013073Y021941D01*
X013062Y022000D01*
X013055Y022060D01*
X013051Y022122D01*
X013050Y022185D01*
X013054Y022247D01*
X013061Y022309D01*
X013071Y022370D01*
X013086Y022431D01*
X013104Y022491D01*
X013125Y022550D01*
X013150Y022607D01*
X013178Y022662D01*
X013209Y022716D01*
X013244Y022768D01*
X013282Y022818D01*
X013322Y022865D01*
X013366Y022910D01*
X013411Y022953D01*
X013460Y022992D01*
X013510Y023029D01*
X013563Y023062D01*
X013617Y023093D01*
X013674Y023120D01*
X013731Y023143D01*
X013790Y023163D01*
X014410Y023163D02*
X014470Y023143D01*
X014529Y023119D01*
X014586Y023091D01*
X014641Y023060D01*
X014695Y023025D01*
X014746Y022988D01*
X014795Y022947D01*
X014841Y022903D01*
X014885Y022857D01*
X014926Y022808D01*
X014964Y022757D01*
X014998Y022704D01*
X015030Y022648D01*
X015057Y022591D01*
X015082Y022532D01*
X015102Y022472D01*
X015120Y022411D01*
X015133Y022349D01*
X015142Y022286D01*
X015148Y022223D01*
X015150Y022159D01*
X015148Y022095D01*
X015142Y022032D01*
X015133Y021969D01*
X015119Y021907D01*
X015102Y021846D01*
X015081Y021786D01*
X015057Y021727D01*
X015029Y021670D01*
X014997Y021614D01*
X014962Y021561D01*
X014925Y021510D01*
X011360Y017270D02*
X003840Y017270D01*
X003840Y011050D01*
X011360Y011050D01*
X011360Y017270D01*
X013055Y015060D02*
X013213Y015060D01*
X013275Y014510D02*
X014925Y014510D01*
X014987Y015060D02*
X015145Y015060D01*
X014213Y015060D02*
X013987Y015060D01*
X013275Y014510D02*
X013240Y014558D01*
X013207Y014608D01*
X013176Y014660D01*
X013149Y014714D01*
X013125Y014769D01*
X013105Y014826D01*
X013087Y014883D01*
X013073Y014941D01*
X013062Y015000D01*
X013055Y015060D01*
X013051Y015122D01*
X013050Y015185D01*
X013054Y015247D01*
X013061Y015309D01*
X013071Y015370D01*
X013086Y015431D01*
X013104Y015491D01*
X013125Y015550D01*
X013150Y015607D01*
X013178Y015662D01*
X013209Y015716D01*
X013244Y015768D01*
X013282Y015818D01*
X013322Y015865D01*
X013366Y015910D01*
X013411Y015953D01*
X013460Y015992D01*
X013510Y016029D01*
X013563Y016062D01*
X013617Y016093D01*
X013674Y016120D01*
X013731Y016143D01*
X013790Y016163D01*
X014410Y016163D02*
X014470Y016143D01*
X014529Y016119D01*
X014586Y016091D01*
X014641Y016060D01*
X014695Y016025D01*
X014746Y015988D01*
X014795Y015947D01*
X014841Y015903D01*
X014885Y015857D01*
X014926Y015808D01*
X014964Y015757D01*
X014998Y015704D01*
X015030Y015648D01*
X015057Y015591D01*
X015082Y015532D01*
X015102Y015472D01*
X015120Y015411D01*
X015133Y015349D01*
X015142Y015286D01*
X015148Y015223D01*
X015150Y015159D01*
X015148Y015095D01*
X015142Y015032D01*
X015133Y014969D01*
X015119Y014907D01*
X015102Y014846D01*
X015081Y014786D01*
X015057Y014727D01*
X015029Y014670D01*
X014997Y014614D01*
X014962Y014561D01*
X014925Y014510D01*
X011360Y010270D02*
X003840Y010270D01*
X003840Y004050D01*
X011360Y004050D01*
X011360Y010270D01*
X013055Y008060D02*
X013213Y008060D01*
X013275Y007510D02*
X014925Y007510D01*
X014987Y008060D02*
X015145Y008060D01*
X014213Y008060D02*
X013987Y008060D01*
X013275Y007510D02*
X013240Y007558D01*
X013207Y007608D01*
X013176Y007660D01*
X013149Y007714D01*
X013125Y007769D01*
X013105Y007826D01*
X013087Y007883D01*
X013073Y007941D01*
X013062Y008000D01*
X013055Y008060D01*
X013051Y008122D01*
X013050Y008185D01*
X013054Y008247D01*
X013061Y008309D01*
X013071Y008370D01*
X013086Y008431D01*
X013104Y008491D01*
X013125Y008550D01*
X013150Y008607D01*
X013178Y008662D01*
X013209Y008716D01*
X013244Y008768D01*
X013282Y008818D01*
X013322Y008865D01*
X013366Y008910D01*
X013411Y008953D01*
X013460Y008992D01*
X013510Y009029D01*
X013563Y009062D01*
X013617Y009093D01*
X013674Y009120D01*
X013731Y009143D01*
X013790Y009163D01*
X014410Y009163D02*
X014470Y009143D01*
X014529Y009119D01*
X014586Y009091D01*
X014641Y009060D01*
X014695Y009025D01*
X014746Y008988D01*
X014795Y008947D01*
X014841Y008903D01*
X014885Y008857D01*
X014926Y008808D01*
X014964Y008757D01*
X014998Y008704D01*
X015030Y008648D01*
X015057Y008591D01*
X015082Y008532D01*
X015102Y008472D01*
X015120Y008411D01*
X015133Y008349D01*
X015142Y008286D01*
X015148Y008223D01*
X015150Y008159D01*
X015148Y008095D01*
X015142Y008032D01*
X015133Y007969D01*
X015119Y007907D01*
X015102Y007846D01*
X015081Y007786D01*
X015057Y007727D01*
X015029Y007670D01*
X014997Y007614D01*
X014962Y007561D01*
X014925Y007510D01*
X011950Y003360D02*
X012050Y003260D01*
X012100Y002110D01*
X011770Y003120D02*
X011772Y003140D01*
X011778Y003158D01*
X011787Y003176D01*
X011799Y003191D01*
X011814Y003203D01*
X011832Y003212D01*
X011850Y003218D01*
X011870Y003220D01*
X011890Y003218D01*
X011908Y003212D01*
X011926Y003203D01*
X011941Y003191D01*
X011953Y003176D01*
X011962Y003158D01*
X011968Y003140D01*
X011970Y003120D01*
X011968Y003100D01*
X011962Y003082D01*
X011953Y003064D01*
X011941Y003049D01*
X011926Y003037D01*
X011908Y003028D01*
X011890Y003022D01*
X011870Y003020D01*
X011850Y003022D01*
X011832Y003028D01*
X011814Y003037D01*
X011799Y003049D01*
X011787Y003064D01*
X011778Y003082D01*
X011772Y003100D01*
X011770Y003120D01*
X011950Y003360D02*
X008250Y003360D01*
X008150Y003260D01*
X008100Y002110D01*
X022475Y002015D02*
X022550Y001940D01*
X022850Y001940D01*
X022925Y002015D01*
X022925Y002240D01*
X022475Y002240D01*
X022475Y002015D01*
X022550Y001780D02*
X022475Y001705D01*
X022475Y001554D01*
X022550Y001479D01*
X022850Y001479D02*
X022925Y001554D01*
X022925Y001705D01*
X022850Y001780D01*
X022550Y001780D01*
X022625Y002861D02*
X022475Y003011D01*
X022625Y003161D01*
X022925Y003161D01*
X022850Y003321D02*
X022550Y003321D01*
X022475Y003396D01*
X022475Y003546D01*
X022550Y003621D01*
X022850Y003321D01*
X022925Y003396D01*
X022925Y003546D01*
X022850Y003621D01*
X022550Y003621D01*
X022475Y003781D02*
X022475Y004082D01*
X022775Y003781D01*
X022850Y003781D01*
X022925Y003856D01*
X022925Y004006D01*
X022850Y004082D01*
X022700Y004242D02*
X022700Y004542D01*
X022625Y004702D02*
X022475Y004852D01*
X022625Y005002D01*
X022925Y005002D01*
X022925Y005162D02*
X022850Y005162D01*
X022550Y005463D01*
X022475Y005463D01*
X022625Y005623D02*
X022625Y005923D01*
X022775Y005923D02*
X022775Y005623D01*
X022925Y005463D02*
X022925Y005162D01*
X022925Y004702D02*
X022625Y004702D01*
X022700Y006083D02*
X022475Y006083D01*
X022700Y006083D02*
X022775Y006158D01*
X022775Y006384D01*
X022475Y006384D01*
X022475Y006540D02*
X022475Y006690D01*
X022475Y006615D02*
X022775Y006615D01*
X022775Y006690D01*
X022925Y006615D02*
X023000Y006615D01*
X022925Y006851D02*
X022625Y006851D01*
X022475Y007001D01*
X022625Y007151D01*
X022925Y007151D01*
X022925Y002861D02*
X022625Y002861D01*
D13*
X027768Y002376D02*
X027768Y001745D01*
X027768Y001955D02*
X028083Y001955D01*
X028189Y002060D01*
X028189Y002270D01*
X028083Y002376D01*
X027768Y002376D01*
X028413Y002376D02*
X028413Y001745D01*
X028623Y001955D01*
X028833Y001745D01*
X028833Y002376D01*
X029057Y002376D02*
X029373Y002376D01*
X029478Y002270D01*
X029478Y002060D01*
X029373Y001955D01*
X029057Y001955D01*
X029057Y001745D02*
X029057Y002376D01*
X029267Y001955D02*
X029478Y001745D01*
D14*
X000301Y004003D02*
X000301Y010380D01*
X000694Y010380D01*
X000694Y004003D01*
X000301Y004003D01*
X000694Y004003D02*
X003254Y004003D01*
X003254Y010380D01*
X000694Y010380D01*
X000694Y011003D02*
X000301Y011003D01*
X000301Y017380D01*
X000694Y017380D01*
X000694Y011003D01*
X003254Y011003D01*
X003254Y017380D01*
X000694Y017380D01*
X000694Y018003D02*
X000694Y024380D01*
X003254Y024380D01*
X003254Y018003D01*
X000694Y018003D01*
X000301Y018003D01*
X000301Y024380D01*
X000694Y024380D01*
X000694Y025003D02*
X000694Y031380D01*
X003254Y031380D01*
X003254Y025003D01*
X000694Y025003D01*
X000301Y025003D01*
X000301Y031380D01*
X000694Y031380D01*
X012500Y031160D02*
X012600Y031160D01*
X012600Y031460D01*
X014600Y031460D01*
X014600Y031160D01*
X014700Y031160D01*
X014600Y031160D02*
X014600Y030860D01*
X012600Y030860D01*
X012600Y031160D01*
X012600Y031860D02*
X012600Y032160D01*
X012500Y032160D01*
X012600Y032160D02*
X012600Y032460D01*
X014600Y032460D01*
X014600Y032160D01*
X014700Y032160D01*
X014600Y032160D02*
X014600Y031860D01*
X012600Y031860D01*
X012600Y025460D02*
X014600Y025460D01*
X014600Y025160D01*
X014700Y025160D01*
X014600Y025160D02*
X014600Y024860D01*
X012600Y024860D01*
X012600Y025160D01*
X012500Y025160D01*
X012600Y025160D02*
X012600Y025460D01*
X012600Y024460D02*
X014600Y024460D01*
X014600Y024160D01*
X014700Y024160D01*
X014600Y024160D02*
X014600Y023860D01*
X012600Y023860D01*
X012600Y024160D01*
X012500Y024160D01*
X012600Y024160D02*
X012600Y024460D01*
X012600Y018460D02*
X014600Y018460D01*
X014600Y018160D01*
X014700Y018160D01*
X014600Y018160D02*
X014600Y017860D01*
X012600Y017860D01*
X012600Y018160D01*
X012500Y018160D01*
X012600Y018160D02*
X012600Y018460D01*
X012600Y017360D02*
X014600Y017360D01*
X014600Y017060D01*
X014700Y017060D01*
X014600Y017060D02*
X014600Y016760D01*
X012600Y016760D01*
X012600Y017060D01*
X012500Y017060D01*
X012600Y017060D02*
X012600Y017360D01*
X012600Y011460D02*
X014600Y011460D01*
X014600Y011160D01*
X014700Y011160D01*
X014600Y011160D02*
X014600Y010860D01*
X012600Y010860D01*
X012600Y011160D01*
X012500Y011160D01*
X012600Y011160D02*
X012600Y011460D01*
X012600Y010460D02*
X014600Y010460D01*
X014600Y010160D01*
X014700Y010160D01*
X014600Y010160D02*
X014600Y009860D01*
X012600Y009860D01*
X012600Y010160D01*
X012500Y010160D01*
X012600Y010160D02*
X012600Y010460D01*
X018927Y006160D02*
X018927Y004467D01*
X018927Y003723D02*
X018927Y002380D01*
X022273Y002380D01*
X022254Y002380D01*
X022273Y002380D02*
X022273Y006554D01*
X020502Y006554D01*
X020850Y008160D02*
X021350Y008160D01*
X019320Y008660D02*
X019322Y008731D01*
X019328Y008802D01*
X019338Y008873D01*
X019352Y008942D01*
X019369Y009011D01*
X019391Y009079D01*
X019416Y009146D01*
X019445Y009211D01*
X019477Y009274D01*
X019513Y009336D01*
X019552Y009395D01*
X019595Y009452D01*
X019640Y009507D01*
X019689Y009559D01*
X019740Y009608D01*
X019794Y009654D01*
X019851Y009698D01*
X019909Y009738D01*
X019970Y009774D01*
X020033Y009808D01*
X020098Y009837D01*
X020164Y009863D01*
X020232Y009886D01*
X020300Y009904D01*
X020370Y009919D01*
X020440Y009930D01*
X020511Y009937D01*
X020582Y009940D01*
X020653Y009939D01*
X020724Y009934D01*
X020795Y009925D01*
X020865Y009912D01*
X020934Y009896D01*
X021002Y009875D01*
X021069Y009851D01*
X021135Y009823D01*
X021198Y009791D01*
X021260Y009756D01*
X021320Y009718D01*
X021378Y009676D01*
X021433Y009632D01*
X021486Y009584D01*
X021536Y009533D01*
X021583Y009480D01*
X021627Y009424D01*
X021668Y009366D01*
X021706Y009305D01*
X021740Y009243D01*
X021770Y009178D01*
X021797Y009113D01*
X021821Y009045D01*
X021840Y008977D01*
X021856Y008908D01*
X021868Y008837D01*
X021876Y008767D01*
X021880Y008696D01*
X021880Y008624D01*
X021876Y008553D01*
X021868Y008483D01*
X021856Y008412D01*
X021840Y008343D01*
X021821Y008275D01*
X021797Y008207D01*
X021770Y008142D01*
X021740Y008077D01*
X021706Y008015D01*
X021668Y007954D01*
X021627Y007896D01*
X021583Y007840D01*
X021536Y007787D01*
X021486Y007736D01*
X021433Y007688D01*
X021378Y007644D01*
X021320Y007602D01*
X021260Y007564D01*
X021198Y007529D01*
X021135Y007497D01*
X021069Y007469D01*
X021002Y007445D01*
X020934Y007424D01*
X020865Y007408D01*
X020795Y007395D01*
X020724Y007386D01*
X020653Y007381D01*
X020582Y007380D01*
X020511Y007383D01*
X020440Y007390D01*
X020370Y007401D01*
X020300Y007416D01*
X020232Y007434D01*
X020164Y007457D01*
X020098Y007483D01*
X020033Y007512D01*
X019970Y007546D01*
X019909Y007582D01*
X019851Y007622D01*
X019794Y007666D01*
X019740Y007712D01*
X019689Y007761D01*
X019640Y007813D01*
X019595Y007868D01*
X019552Y007925D01*
X019513Y007984D01*
X019477Y008046D01*
X019445Y008109D01*
X019416Y008174D01*
X019391Y008241D01*
X019369Y008309D01*
X019352Y008378D01*
X019338Y008447D01*
X019328Y008518D01*
X019322Y008589D01*
X019320Y008660D01*
X017600Y003410D02*
X017600Y002910D01*
X015820Y002660D02*
X015822Y002731D01*
X015828Y002802D01*
X015838Y002873D01*
X015852Y002942D01*
X015869Y003011D01*
X015891Y003079D01*
X015916Y003146D01*
X015945Y003211D01*
X015977Y003274D01*
X016013Y003336D01*
X016052Y003395D01*
X016095Y003452D01*
X016140Y003507D01*
X016189Y003559D01*
X016240Y003608D01*
X016294Y003654D01*
X016351Y003698D01*
X016409Y003738D01*
X016470Y003774D01*
X016533Y003808D01*
X016598Y003837D01*
X016664Y003863D01*
X016732Y003886D01*
X016800Y003904D01*
X016870Y003919D01*
X016940Y003930D01*
X017011Y003937D01*
X017082Y003940D01*
X017153Y003939D01*
X017224Y003934D01*
X017295Y003925D01*
X017365Y003912D01*
X017434Y003896D01*
X017502Y003875D01*
X017569Y003851D01*
X017635Y003823D01*
X017698Y003791D01*
X017760Y003756D01*
X017820Y003718D01*
X017878Y003676D01*
X017933Y003632D01*
X017986Y003584D01*
X018036Y003533D01*
X018083Y003480D01*
X018127Y003424D01*
X018168Y003366D01*
X018206Y003305D01*
X018240Y003243D01*
X018270Y003178D01*
X018297Y003113D01*
X018321Y003045D01*
X018340Y002977D01*
X018356Y002908D01*
X018368Y002837D01*
X018376Y002767D01*
X018380Y002696D01*
X018380Y002624D01*
X018376Y002553D01*
X018368Y002483D01*
X018356Y002412D01*
X018340Y002343D01*
X018321Y002275D01*
X018297Y002207D01*
X018270Y002142D01*
X018240Y002077D01*
X018206Y002015D01*
X018168Y001954D01*
X018127Y001896D01*
X018083Y001840D01*
X018036Y001787D01*
X017986Y001736D01*
X017933Y001688D01*
X017878Y001644D01*
X017820Y001602D01*
X017760Y001564D01*
X017698Y001529D01*
X017635Y001497D01*
X017569Y001469D01*
X017502Y001445D01*
X017434Y001424D01*
X017365Y001408D01*
X017295Y001395D01*
X017224Y001386D01*
X017153Y001381D01*
X017082Y001380D01*
X017011Y001383D01*
X016940Y001390D01*
X016870Y001401D01*
X016800Y001416D01*
X016732Y001434D01*
X016664Y001457D01*
X016598Y001483D01*
X016533Y001512D01*
X016470Y001546D01*
X016409Y001582D01*
X016351Y001622D01*
X016294Y001666D01*
X016240Y001712D01*
X016189Y001761D01*
X016140Y001813D01*
X016095Y001868D01*
X016052Y001925D01*
X016013Y001984D01*
X015977Y002046D01*
X015945Y002109D01*
X015916Y002174D01*
X015891Y002241D01*
X015869Y002309D01*
X015852Y002378D01*
X015838Y002447D01*
X015828Y002518D01*
X015822Y002589D01*
X015820Y002660D01*
X014600Y002910D02*
X014600Y003410D01*
X012820Y002660D02*
X012822Y002731D01*
X012828Y002802D01*
X012838Y002873D01*
X012852Y002942D01*
X012869Y003011D01*
X012891Y003079D01*
X012916Y003146D01*
X012945Y003211D01*
X012977Y003274D01*
X013013Y003336D01*
X013052Y003395D01*
X013095Y003452D01*
X013140Y003507D01*
X013189Y003559D01*
X013240Y003608D01*
X013294Y003654D01*
X013351Y003698D01*
X013409Y003738D01*
X013470Y003774D01*
X013533Y003808D01*
X013598Y003837D01*
X013664Y003863D01*
X013732Y003886D01*
X013800Y003904D01*
X013870Y003919D01*
X013940Y003930D01*
X014011Y003937D01*
X014082Y003940D01*
X014153Y003939D01*
X014224Y003934D01*
X014295Y003925D01*
X014365Y003912D01*
X014434Y003896D01*
X014502Y003875D01*
X014569Y003851D01*
X014635Y003823D01*
X014698Y003791D01*
X014760Y003756D01*
X014820Y003718D01*
X014878Y003676D01*
X014933Y003632D01*
X014986Y003584D01*
X015036Y003533D01*
X015083Y003480D01*
X015127Y003424D01*
X015168Y003366D01*
X015206Y003305D01*
X015240Y003243D01*
X015270Y003178D01*
X015297Y003113D01*
X015321Y003045D01*
X015340Y002977D01*
X015356Y002908D01*
X015368Y002837D01*
X015376Y002767D01*
X015380Y002696D01*
X015380Y002624D01*
X015376Y002553D01*
X015368Y002483D01*
X015356Y002412D01*
X015340Y002343D01*
X015321Y002275D01*
X015297Y002207D01*
X015270Y002142D01*
X015240Y002077D01*
X015206Y002015D01*
X015168Y001954D01*
X015127Y001896D01*
X015083Y001840D01*
X015036Y001787D01*
X014986Y001736D01*
X014933Y001688D01*
X014878Y001644D01*
X014820Y001602D01*
X014760Y001564D01*
X014698Y001529D01*
X014635Y001497D01*
X014569Y001469D01*
X014502Y001445D01*
X014434Y001424D01*
X014365Y001408D01*
X014295Y001395D01*
X014224Y001386D01*
X014153Y001381D01*
X014082Y001380D01*
X014011Y001383D01*
X013940Y001390D01*
X013870Y001401D01*
X013800Y001416D01*
X013732Y001434D01*
X013664Y001457D01*
X013598Y001483D01*
X013533Y001512D01*
X013470Y001546D01*
X013409Y001582D01*
X013351Y001622D01*
X013294Y001666D01*
X013240Y001712D01*
X013189Y001761D01*
X013140Y001813D01*
X013095Y001868D01*
X013052Y001925D01*
X013013Y001984D01*
X012977Y002046D01*
X012945Y002109D01*
X012916Y002174D01*
X012891Y002241D01*
X012869Y002309D01*
X012852Y002378D01*
X012838Y002447D01*
X012828Y002518D01*
X012822Y002589D01*
X012820Y002660D01*
X026500Y003760D02*
X026600Y003760D01*
X026600Y004060D01*
X028600Y004060D01*
X028600Y003760D01*
X028700Y003760D01*
X028600Y003760D02*
X028600Y003460D01*
X026600Y003460D01*
X026600Y003760D01*
X023850Y017660D02*
X023350Y017660D01*
X023100Y017910D01*
X023100Y018410D01*
X023350Y018660D01*
X023100Y018910D01*
X023100Y019410D01*
X023350Y019660D01*
X023100Y019910D01*
X023100Y020410D01*
X023350Y020660D01*
X023100Y020910D01*
X023100Y021410D01*
X023350Y021660D01*
X023100Y021910D01*
X023100Y022410D01*
X023350Y022660D01*
X023100Y022910D01*
X023100Y023410D01*
X023350Y023660D01*
X023100Y023910D01*
X023100Y024410D01*
X023350Y024660D01*
X023100Y024910D01*
X023100Y025410D01*
X023350Y025660D01*
X023100Y025910D01*
X023100Y026410D01*
X023350Y026660D01*
X023100Y026910D01*
X023100Y027410D01*
X023350Y027660D01*
X023100Y027910D01*
X023100Y028410D01*
X023350Y028660D01*
X023100Y028910D01*
X023100Y029410D01*
X023350Y029660D01*
X023850Y029660D01*
X024100Y029410D01*
X024100Y028910D01*
X023850Y028660D01*
X024100Y028410D01*
X024100Y027910D01*
X023850Y027660D01*
X024100Y027410D01*
X024100Y026910D01*
X023850Y026660D01*
X024100Y026410D01*
X024100Y025910D01*
X023850Y025660D01*
X024100Y025410D01*
X024100Y024910D01*
X023850Y024660D01*
X024100Y024410D01*
X024100Y023910D01*
X023850Y023660D01*
X024100Y023410D01*
X024100Y022910D01*
X023850Y022660D01*
X024100Y022410D01*
X024100Y021910D01*
X023850Y021660D01*
X024100Y021410D01*
X024100Y020910D01*
X023850Y020660D01*
X024100Y020410D01*
X024100Y019910D01*
X023850Y019660D01*
X024100Y019410D01*
X024100Y018910D01*
X023850Y018660D01*
X024100Y018410D01*
X024100Y017910D01*
X023850Y017660D01*
X030100Y017910D02*
X030350Y017660D01*
X030850Y017660D01*
X031100Y017910D01*
X031100Y018410D01*
X030850Y018660D01*
X031100Y018910D01*
X031100Y019410D01*
X030850Y019660D01*
X031100Y019910D01*
X031100Y020410D01*
X030850Y020660D01*
X031100Y020910D01*
X031100Y021410D01*
X030850Y021660D01*
X031100Y021910D01*
X031100Y022410D01*
X030850Y022660D01*
X031100Y022910D01*
X031100Y023410D01*
X030850Y023660D01*
X031100Y023910D01*
X031100Y024410D01*
X030850Y024660D01*
X031100Y024910D01*
X031100Y025410D01*
X030850Y025660D01*
X031100Y025910D01*
X031100Y026410D01*
X030850Y026660D01*
X031100Y026910D01*
X031100Y027410D01*
X030850Y027660D01*
X031100Y027910D01*
X031100Y028410D01*
X030850Y028660D01*
X031100Y028910D01*
X031100Y029410D01*
X030850Y029660D01*
X030350Y029660D01*
X030100Y029410D01*
X030100Y028910D01*
X030350Y028660D01*
X030100Y028410D01*
X030100Y027910D01*
X030350Y027660D01*
X030100Y027410D01*
X030100Y026910D01*
X030350Y026660D01*
X030100Y026410D01*
X030100Y025910D01*
X030350Y025660D01*
X030100Y025410D01*
X030100Y024910D01*
X030350Y024660D01*
X030100Y024410D01*
X030100Y023910D01*
X030350Y023660D01*
X030100Y023410D01*
X030100Y022910D01*
X030350Y022660D01*
X030100Y022410D01*
X030100Y021910D01*
X030350Y021660D01*
X030100Y021410D01*
X030100Y020910D01*
X030350Y020660D01*
X030100Y020410D01*
X030100Y019910D01*
X030350Y019660D01*
X030100Y019410D01*
X030100Y018910D01*
X030350Y018660D01*
X030100Y018410D01*
X030100Y017910D01*
X021100Y025860D02*
X021100Y026160D01*
X021200Y026160D01*
X021100Y026160D02*
X021100Y026460D01*
X019100Y026460D01*
X019100Y026160D01*
X019000Y026160D01*
X019100Y026160D02*
X019100Y025860D01*
X021100Y025860D01*
X021100Y026860D02*
X021100Y027160D01*
X021200Y027160D01*
X021100Y027160D02*
X021100Y027460D01*
X019100Y027460D01*
X019100Y027160D01*
X019000Y027160D01*
X019100Y027160D02*
X019100Y026860D01*
X021100Y026860D01*
X021100Y027860D02*
X021100Y028160D01*
X021200Y028160D01*
X021100Y028160D02*
X021100Y028460D01*
X019100Y028460D01*
X019100Y028160D01*
X019000Y028160D01*
X019100Y028160D02*
X019100Y027860D01*
X021100Y027860D01*
X021100Y028860D02*
X021100Y029160D01*
X021200Y029160D01*
X021100Y029160D02*
X021100Y029460D01*
X019100Y029460D01*
X019100Y029160D01*
X019000Y029160D01*
X019100Y029160D02*
X019100Y028860D01*
X021100Y028860D01*
D15*
X014095Y028004D02*
X014095Y027914D01*
X014095Y027915D02*
X014041Y027913D01*
X013988Y027907D01*
X013935Y027897D01*
X013883Y027883D01*
X013832Y027866D01*
X013783Y027845D01*
X013735Y027821D01*
X013689Y027793D01*
X013645Y027762D01*
X013603Y027728D01*
X013564Y027692D01*
X013527Y027652D01*
X013494Y027610D01*
X013463Y027566D01*
X013436Y027520D01*
X013357Y027562D01*
X013385Y027611D01*
X013417Y027657D01*
X013452Y027702D01*
X013489Y027744D01*
X013530Y027784D01*
X013573Y027820D01*
X013618Y027854D01*
X013665Y027885D01*
X013715Y027912D01*
X013766Y027936D01*
X013818Y027957D01*
X013872Y027974D01*
X013927Y027987D01*
X013982Y027997D01*
X014039Y028003D01*
X014095Y028005D01*
X014095Y027996D01*
X014039Y027994D01*
X013984Y027988D01*
X013929Y027978D01*
X013874Y027965D01*
X013821Y027948D01*
X013769Y027928D01*
X013719Y027904D01*
X013670Y027877D01*
X013623Y027847D01*
X013578Y027813D01*
X013536Y027777D01*
X013496Y027738D01*
X013459Y027696D01*
X013424Y027652D01*
X013393Y027606D01*
X013365Y027558D01*
X013373Y027554D01*
X013401Y027601D01*
X013432Y027647D01*
X013466Y027690D01*
X013502Y027732D01*
X013542Y027770D01*
X013584Y027806D01*
X013628Y027839D01*
X013674Y027869D01*
X013723Y027896D01*
X013773Y027919D01*
X013824Y027940D01*
X013877Y027956D01*
X013930Y027969D01*
X013985Y027979D01*
X014040Y027985D01*
X014095Y027987D01*
X014095Y027978D01*
X014040Y027976D01*
X013986Y027970D01*
X013932Y027961D01*
X013879Y027948D01*
X013827Y027931D01*
X013776Y027911D01*
X013727Y027888D01*
X013679Y027861D01*
X013633Y027832D01*
X013589Y027799D01*
X013548Y027764D01*
X013509Y027725D01*
X013472Y027685D01*
X013439Y027642D01*
X013408Y027596D01*
X013381Y027549D01*
X013389Y027545D01*
X013416Y027592D01*
X013446Y027636D01*
X013479Y027679D01*
X013515Y027719D01*
X013554Y027757D01*
X013595Y027792D01*
X013638Y027824D01*
X013684Y027854D01*
X013731Y027880D01*
X013780Y027903D01*
X013830Y027923D01*
X013882Y027939D01*
X013934Y027952D01*
X013987Y027961D01*
X014041Y027967D01*
X014095Y027969D01*
X014095Y027960D01*
X014042Y027958D01*
X013989Y027952D01*
X013936Y027943D01*
X013884Y027930D01*
X013833Y027914D01*
X013783Y027895D01*
X013735Y027872D01*
X013688Y027846D01*
X013644Y027817D01*
X013601Y027785D01*
X013560Y027750D01*
X013522Y027713D01*
X013486Y027673D01*
X013453Y027631D01*
X013423Y027587D01*
X013396Y027541D01*
X013404Y027537D01*
X013431Y027582D01*
X013461Y027626D01*
X013493Y027667D01*
X013528Y027707D01*
X013566Y027744D01*
X013606Y027778D01*
X013649Y027810D01*
X013693Y027838D01*
X013739Y027864D01*
X013787Y027886D01*
X013836Y027906D01*
X013886Y027922D01*
X013938Y027934D01*
X013990Y027943D01*
X014042Y027949D01*
X014095Y027951D01*
X014095Y027942D01*
X014039Y027940D01*
X013984Y027933D01*
X013929Y027923D01*
X013875Y027909D01*
X013823Y027891D01*
X013771Y027870D01*
X013722Y027844D01*
X013674Y027816D01*
X013628Y027784D01*
X013585Y027749D01*
X013545Y027711D01*
X013507Y027670D01*
X013472Y027626D01*
X013441Y027580D01*
X013412Y027532D01*
X013420Y027528D01*
X013448Y027576D01*
X013479Y027621D01*
X013514Y027664D01*
X013551Y027704D01*
X013591Y027742D01*
X013634Y027777D01*
X013679Y027808D01*
X013726Y027837D01*
X013775Y027861D01*
X013826Y027883D01*
X013878Y027900D01*
X013931Y027914D01*
X013985Y027924D01*
X014040Y027931D01*
X014095Y027933D01*
X014095Y027924D01*
X014041Y027922D01*
X013987Y027916D01*
X013933Y027906D01*
X013881Y027892D01*
X013829Y027874D01*
X013779Y027853D01*
X013730Y027829D01*
X013684Y027801D01*
X013639Y027769D01*
X013597Y027735D01*
X013558Y027698D01*
X013521Y027658D01*
X013487Y027616D01*
X013456Y027571D01*
X013428Y027524D01*
X013369Y026737D02*
X013447Y026782D01*
X013447Y026781D02*
X013475Y026737D01*
X013506Y026695D01*
X013539Y026655D01*
X013575Y026617D01*
X013614Y026582D01*
X013655Y026550D01*
X013699Y026520D01*
X013744Y026494D01*
X013791Y026471D01*
X013839Y026451D01*
X013889Y026435D01*
X013939Y026422D01*
X013991Y026413D01*
X014043Y026407D01*
X014095Y026405D01*
X014096Y026316D01*
X014095Y026315D01*
X014040Y026317D01*
X013986Y026323D01*
X013931Y026332D01*
X013878Y026345D01*
X013826Y026361D01*
X013774Y026380D01*
X013724Y026403D01*
X013676Y026429D01*
X013629Y026458D01*
X013585Y026490D01*
X013542Y026525D01*
X013502Y026563D01*
X013465Y026603D01*
X013430Y026645D01*
X013398Y026690D01*
X013369Y026736D01*
X013377Y026741D01*
X013405Y026695D01*
X013437Y026651D01*
X013472Y026609D01*
X013509Y026569D01*
X013548Y026532D01*
X013590Y026497D01*
X013634Y026466D01*
X013680Y026437D01*
X013728Y026411D01*
X013778Y026389D01*
X013828Y026369D01*
X013880Y026353D01*
X013933Y026341D01*
X013987Y026332D01*
X014041Y026326D01*
X014095Y026324D01*
X014095Y026333D01*
X014041Y026335D01*
X013988Y026341D01*
X013935Y026350D01*
X013883Y026362D01*
X013831Y026378D01*
X013781Y026397D01*
X013732Y026419D01*
X013685Y026445D01*
X013639Y026473D01*
X013596Y026505D01*
X013554Y026539D01*
X013515Y026575D01*
X013478Y026615D01*
X013444Y026656D01*
X013413Y026700D01*
X013384Y026745D01*
X013392Y026750D01*
X013422Y026702D01*
X013456Y026656D01*
X013492Y026613D01*
X013532Y026572D01*
X013574Y026534D01*
X013618Y026499D01*
X013665Y026467D01*
X013714Y026439D01*
X013765Y026414D01*
X013818Y026392D01*
X013871Y026375D01*
X013926Y026361D01*
X013982Y026351D01*
X014038Y026344D01*
X014095Y026342D01*
X014095Y026351D01*
X014039Y026353D01*
X013983Y026359D01*
X013928Y026369D01*
X013874Y026383D01*
X013821Y026401D01*
X013769Y026422D01*
X013718Y026447D01*
X013670Y026475D01*
X013624Y026506D01*
X013579Y026541D01*
X013538Y026578D01*
X013499Y026619D01*
X013463Y026661D01*
X013430Y026707D01*
X013400Y026754D01*
X013408Y026759D01*
X013437Y026712D01*
X013470Y026667D01*
X013506Y026625D01*
X013544Y026585D01*
X013585Y026548D01*
X013629Y026513D01*
X013675Y026482D01*
X013723Y026455D01*
X013772Y026430D01*
X013824Y026409D01*
X013876Y026392D01*
X013930Y026378D01*
X013985Y026368D01*
X014040Y026362D01*
X014095Y026360D01*
X014095Y026369D01*
X014040Y026371D01*
X013986Y026377D01*
X013932Y026387D01*
X013879Y026401D01*
X013827Y026418D01*
X013776Y026438D01*
X013727Y026463D01*
X013680Y026490D01*
X013634Y026521D01*
X013591Y026554D01*
X013550Y026591D01*
X013512Y026631D01*
X013477Y026673D01*
X013445Y026717D01*
X013416Y026763D01*
X013424Y026768D01*
X013452Y026722D01*
X013484Y026678D01*
X013519Y026637D01*
X013557Y026598D01*
X013597Y026561D01*
X013639Y026528D01*
X013684Y026498D01*
X013731Y026470D01*
X013780Y026447D01*
X013830Y026426D01*
X013881Y026409D01*
X013934Y026396D01*
X013987Y026386D01*
X014041Y026380D01*
X014095Y026378D01*
X014095Y026387D01*
X014042Y026389D01*
X013988Y026395D01*
X013936Y026405D01*
X013884Y026418D01*
X013833Y026435D01*
X013783Y026455D01*
X013735Y026478D01*
X013689Y026505D01*
X013645Y026535D01*
X013603Y026568D01*
X013563Y026604D01*
X013526Y026643D01*
X013491Y026684D01*
X013460Y026727D01*
X013431Y026772D01*
X013439Y026777D01*
X013467Y026732D01*
X013498Y026689D01*
X013532Y026649D01*
X013569Y026611D01*
X013608Y026575D01*
X013650Y026543D01*
X013694Y026513D01*
X013740Y026486D01*
X013787Y026463D01*
X013836Y026443D01*
X013886Y026426D01*
X013938Y026413D01*
X013990Y026404D01*
X014042Y026398D01*
X014095Y026396D01*
X014104Y026316D02*
X014104Y026406D01*
X014105Y026405D02*
X014159Y026407D01*
X014212Y026413D01*
X014265Y026423D01*
X014317Y026437D01*
X014368Y026454D01*
X014418Y026475D01*
X014466Y026499D01*
X014512Y026527D01*
X014556Y026558D01*
X014597Y026592D01*
X014637Y026629D01*
X014673Y026668D01*
X014741Y026611D01*
X014742Y026610D01*
X014704Y026569D01*
X014664Y026531D01*
X014621Y026495D01*
X014576Y026462D01*
X014529Y026432D01*
X014481Y026406D01*
X014430Y026382D01*
X014378Y026362D01*
X014325Y026346D01*
X014271Y026332D01*
X014216Y026323D01*
X014161Y026317D01*
X014105Y026315D01*
X014105Y026324D01*
X014160Y026326D01*
X014215Y026332D01*
X014269Y026341D01*
X014323Y026354D01*
X014375Y026371D01*
X014427Y026390D01*
X014477Y026414D01*
X014525Y026440D01*
X014571Y026470D01*
X014616Y026502D01*
X014658Y026537D01*
X014698Y026576D01*
X014735Y026616D01*
X014728Y026622D01*
X014691Y026582D01*
X014652Y026544D01*
X014610Y026509D01*
X014566Y026477D01*
X014520Y026448D01*
X014472Y026422D01*
X014423Y026399D01*
X014372Y026379D01*
X014320Y026363D01*
X014267Y026350D01*
X014214Y026341D01*
X014159Y026335D01*
X014105Y026333D01*
X014105Y026342D01*
X014159Y026344D01*
X014212Y026350D01*
X014265Y026359D01*
X014318Y026372D01*
X014369Y026388D01*
X014420Y026407D01*
X014468Y026430D01*
X014516Y026455D01*
X014561Y026484D01*
X014605Y026516D01*
X014646Y026551D01*
X014685Y026588D01*
X014721Y026628D01*
X014714Y026634D01*
X014678Y026594D01*
X014640Y026557D01*
X014599Y026523D01*
X014556Y026492D01*
X014511Y026463D01*
X014464Y026438D01*
X014416Y026415D01*
X014366Y026396D01*
X014315Y026380D01*
X014264Y026368D01*
X014211Y026359D01*
X014158Y026353D01*
X014105Y026351D01*
X014105Y026360D01*
X014158Y026362D01*
X014210Y026368D01*
X014262Y026377D01*
X014313Y026389D01*
X014363Y026405D01*
X014413Y026424D01*
X014460Y026446D01*
X014507Y026471D01*
X014551Y026499D01*
X014593Y026530D01*
X014634Y026564D01*
X014672Y026601D01*
X014707Y026639D01*
X014701Y026645D01*
X014665Y026607D01*
X014628Y026571D01*
X014588Y026537D01*
X014546Y026507D01*
X014502Y026479D01*
X014456Y026454D01*
X014409Y026432D01*
X014360Y026413D01*
X014311Y026398D01*
X014260Y026385D01*
X014209Y026377D01*
X014157Y026371D01*
X014105Y026369D01*
X014105Y026378D01*
X014161Y026380D01*
X014216Y026387D01*
X014271Y026397D01*
X014325Y026411D01*
X014378Y026429D01*
X014429Y026451D01*
X014479Y026476D01*
X014527Y026505D01*
X014572Y026537D01*
X014615Y026572D01*
X014656Y026610D01*
X014694Y026651D01*
X014687Y026657D01*
X014650Y026616D01*
X014609Y026579D01*
X014567Y026544D01*
X014522Y026512D01*
X014474Y026484D01*
X014425Y026459D01*
X014374Y026437D01*
X014322Y026420D01*
X014269Y026406D01*
X014215Y026396D01*
X014160Y026389D01*
X014105Y026387D01*
X014105Y026396D01*
X014159Y026398D01*
X014213Y026404D01*
X014267Y026414D01*
X014320Y026428D01*
X014371Y026446D01*
X014421Y026467D01*
X014470Y026492D01*
X014517Y026520D01*
X014561Y026551D01*
X014603Y026585D01*
X014643Y026623D01*
X014680Y026663D01*
X014745Y027704D02*
X014676Y027647D01*
X014677Y027647D02*
X014640Y027687D01*
X014601Y027725D01*
X014559Y027759D01*
X014515Y027791D01*
X014469Y027819D01*
X014420Y027844D01*
X014370Y027865D01*
X014319Y027883D01*
X014266Y027896D01*
X014213Y027906D01*
X014159Y027913D01*
X014105Y027915D01*
X014104Y028004D01*
X014105Y028005D01*
X014161Y028003D01*
X014217Y027997D01*
X014272Y027987D01*
X014327Y027974D01*
X014380Y027957D01*
X014433Y027937D01*
X014484Y027913D01*
X014533Y027886D01*
X014580Y027855D01*
X014625Y027822D01*
X014668Y027786D01*
X014708Y027747D01*
X014746Y027705D01*
X014739Y027699D01*
X014702Y027740D01*
X014662Y027779D01*
X014620Y027815D01*
X014575Y027848D01*
X014528Y027878D01*
X014480Y027905D01*
X014429Y027928D01*
X014377Y027949D01*
X014324Y027965D01*
X014270Y027978D01*
X014216Y027988D01*
X014161Y027994D01*
X014105Y027996D01*
X014105Y027987D01*
X014160Y027985D01*
X014215Y027979D01*
X014269Y027970D01*
X014322Y027957D01*
X014374Y027940D01*
X014426Y027920D01*
X014475Y027897D01*
X014524Y027870D01*
X014570Y027841D01*
X014614Y027808D01*
X014656Y027772D01*
X014695Y027734D01*
X014732Y027693D01*
X014725Y027688D01*
X014689Y027728D01*
X014650Y027766D01*
X014608Y027801D01*
X014565Y027833D01*
X014519Y027863D01*
X014471Y027889D01*
X014422Y027912D01*
X014372Y027932D01*
X014320Y027948D01*
X014267Y027961D01*
X014213Y027970D01*
X014159Y027976D01*
X014105Y027978D01*
X014105Y027969D01*
X014159Y027967D01*
X014212Y027961D01*
X014265Y027952D01*
X014317Y027939D01*
X014369Y027923D01*
X014419Y027904D01*
X014467Y027881D01*
X014514Y027855D01*
X014560Y027826D01*
X014603Y027794D01*
X014644Y027759D01*
X014682Y027722D01*
X014718Y027682D01*
X014711Y027676D01*
X014676Y027715D01*
X014638Y027752D01*
X014597Y027787D01*
X014554Y027818D01*
X014510Y027847D01*
X014463Y027873D01*
X014415Y027895D01*
X014366Y027915D01*
X014315Y027931D01*
X014263Y027943D01*
X014211Y027952D01*
X014158Y027958D01*
X014105Y027960D01*
X014105Y027951D01*
X014157Y027949D01*
X014210Y027943D01*
X014261Y027934D01*
X014312Y027922D01*
X014363Y027906D01*
X014412Y027887D01*
X014459Y027865D01*
X014505Y027839D01*
X014549Y027811D01*
X014591Y027780D01*
X014632Y027746D01*
X014669Y027709D01*
X014704Y027670D01*
X014698Y027664D01*
X014663Y027703D01*
X014625Y027739D01*
X014586Y027773D01*
X014544Y027804D01*
X014500Y027832D01*
X014455Y027857D01*
X014408Y027879D01*
X014360Y027898D01*
X014310Y027913D01*
X014260Y027926D01*
X014208Y027934D01*
X014157Y027940D01*
X014105Y027942D01*
X014105Y027933D01*
X014156Y027931D01*
X014207Y027926D01*
X014258Y027917D01*
X014308Y027905D01*
X014357Y027889D01*
X014404Y027871D01*
X014451Y027849D01*
X014496Y027824D01*
X014539Y027796D01*
X014580Y027766D01*
X014619Y027733D01*
X014656Y027697D01*
X014691Y027659D01*
X014684Y027653D01*
X014647Y027694D01*
X014607Y027732D01*
X014565Y027766D01*
X014520Y027798D01*
X014473Y027827D01*
X014424Y027852D01*
X014373Y027873D01*
X014322Y027891D01*
X014268Y027905D01*
X014214Y027915D01*
X014160Y027922D01*
X014105Y027924D01*
X013369Y019737D02*
X013447Y019782D01*
X013447Y019781D02*
X013475Y019737D01*
X013506Y019695D01*
X013539Y019655D01*
X013575Y019617D01*
X013614Y019582D01*
X013655Y019550D01*
X013699Y019520D01*
X013744Y019494D01*
X013791Y019471D01*
X013839Y019451D01*
X013889Y019435D01*
X013939Y019422D01*
X013991Y019413D01*
X014043Y019407D01*
X014095Y019405D01*
X014096Y019316D01*
X014095Y019315D01*
X014040Y019317D01*
X013986Y019323D01*
X013931Y019332D01*
X013878Y019345D01*
X013826Y019361D01*
X013774Y019380D01*
X013724Y019403D01*
X013676Y019429D01*
X013629Y019458D01*
X013585Y019490D01*
X013542Y019525D01*
X013502Y019563D01*
X013465Y019603D01*
X013430Y019645D01*
X013398Y019690D01*
X013369Y019736D01*
X013377Y019741D01*
X013405Y019695D01*
X013437Y019651D01*
X013472Y019609D01*
X013509Y019569D01*
X013548Y019532D01*
X013590Y019497D01*
X013634Y019466D01*
X013680Y019437D01*
X013728Y019411D01*
X013778Y019389D01*
X013828Y019369D01*
X013880Y019353D01*
X013933Y019341D01*
X013987Y019332D01*
X014041Y019326D01*
X014095Y019324D01*
X014095Y019333D01*
X014041Y019335D01*
X013988Y019341D01*
X013935Y019350D01*
X013883Y019362D01*
X013831Y019378D01*
X013781Y019397D01*
X013732Y019419D01*
X013685Y019445D01*
X013639Y019473D01*
X013596Y019505D01*
X013554Y019539D01*
X013515Y019575D01*
X013478Y019615D01*
X013444Y019656D01*
X013413Y019700D01*
X013384Y019745D01*
X013392Y019750D01*
X013422Y019702D01*
X013456Y019656D01*
X013492Y019613D01*
X013532Y019572D01*
X013574Y019534D01*
X013618Y019499D01*
X013665Y019467D01*
X013714Y019439D01*
X013765Y019414D01*
X013818Y019392D01*
X013871Y019375D01*
X013926Y019361D01*
X013982Y019351D01*
X014038Y019344D01*
X014095Y019342D01*
X014095Y019351D01*
X014039Y019353D01*
X013983Y019359D01*
X013928Y019369D01*
X013874Y019383D01*
X013821Y019401D01*
X013769Y019422D01*
X013718Y019447D01*
X013670Y019475D01*
X013624Y019506D01*
X013579Y019541D01*
X013538Y019578D01*
X013499Y019619D01*
X013463Y019661D01*
X013430Y019707D01*
X013400Y019754D01*
X013408Y019759D01*
X013437Y019712D01*
X013470Y019667D01*
X013506Y019625D01*
X013544Y019585D01*
X013585Y019548D01*
X013629Y019513D01*
X013675Y019482D01*
X013723Y019455D01*
X013772Y019430D01*
X013824Y019409D01*
X013876Y019392D01*
X013930Y019378D01*
X013985Y019368D01*
X014040Y019362D01*
X014095Y019360D01*
X014095Y019369D01*
X014040Y019371D01*
X013986Y019377D01*
X013932Y019387D01*
X013879Y019401D01*
X013827Y019418D01*
X013776Y019438D01*
X013727Y019463D01*
X013680Y019490D01*
X013634Y019521D01*
X013591Y019554D01*
X013550Y019591D01*
X013512Y019631D01*
X013477Y019673D01*
X013445Y019717D01*
X013416Y019763D01*
X013424Y019768D01*
X013452Y019722D01*
X013484Y019678D01*
X013519Y019637D01*
X013557Y019598D01*
X013597Y019561D01*
X013639Y019528D01*
X013684Y019498D01*
X013731Y019470D01*
X013780Y019447D01*
X013830Y019426D01*
X013881Y019409D01*
X013934Y019396D01*
X013987Y019386D01*
X014041Y019380D01*
X014095Y019378D01*
X014095Y019387D01*
X014042Y019389D01*
X013988Y019395D01*
X013936Y019405D01*
X013884Y019418D01*
X013833Y019435D01*
X013783Y019455D01*
X013735Y019478D01*
X013689Y019505D01*
X013645Y019535D01*
X013603Y019568D01*
X013563Y019604D01*
X013526Y019643D01*
X013491Y019684D01*
X013460Y019727D01*
X013431Y019772D01*
X013439Y019777D01*
X013467Y019732D01*
X013498Y019689D01*
X013532Y019649D01*
X013569Y019611D01*
X013608Y019575D01*
X013650Y019543D01*
X013694Y019513D01*
X013740Y019486D01*
X013787Y019463D01*
X013836Y019443D01*
X013886Y019426D01*
X013938Y019413D01*
X013990Y019404D01*
X014042Y019398D01*
X014095Y019396D01*
X014095Y021004D02*
X014095Y020914D01*
X014095Y020915D02*
X014041Y020913D01*
X013988Y020907D01*
X013935Y020897D01*
X013883Y020883D01*
X013832Y020866D01*
X013783Y020845D01*
X013735Y020821D01*
X013689Y020793D01*
X013645Y020762D01*
X013603Y020728D01*
X013564Y020692D01*
X013527Y020652D01*
X013494Y020610D01*
X013463Y020566D01*
X013436Y020520D01*
X013357Y020562D01*
X013385Y020611D01*
X013417Y020657D01*
X013452Y020702D01*
X013489Y020744D01*
X013530Y020784D01*
X013573Y020820D01*
X013618Y020854D01*
X013665Y020885D01*
X013715Y020912D01*
X013766Y020936D01*
X013818Y020957D01*
X013872Y020974D01*
X013927Y020987D01*
X013982Y020997D01*
X014039Y021003D01*
X014095Y021005D01*
X014095Y020996D01*
X014039Y020994D01*
X013984Y020988D01*
X013929Y020978D01*
X013874Y020965D01*
X013821Y020948D01*
X013769Y020928D01*
X013719Y020904D01*
X013670Y020877D01*
X013623Y020847D01*
X013578Y020813D01*
X013536Y020777D01*
X013496Y020738D01*
X013459Y020696D01*
X013424Y020652D01*
X013393Y020606D01*
X013365Y020558D01*
X013373Y020554D01*
X013401Y020601D01*
X013432Y020647D01*
X013466Y020690D01*
X013502Y020732D01*
X013542Y020770D01*
X013584Y020806D01*
X013628Y020839D01*
X013674Y020869D01*
X013723Y020896D01*
X013773Y020919D01*
X013824Y020940D01*
X013877Y020956D01*
X013930Y020969D01*
X013985Y020979D01*
X014040Y020985D01*
X014095Y020987D01*
X014095Y020978D01*
X014040Y020976D01*
X013986Y020970D01*
X013932Y020961D01*
X013879Y020948D01*
X013827Y020931D01*
X013776Y020911D01*
X013727Y020888D01*
X013679Y020861D01*
X013633Y020832D01*
X013589Y020799D01*
X013548Y020764D01*
X013509Y020725D01*
X013472Y020685D01*
X013439Y020642D01*
X013408Y020596D01*
X013381Y020549D01*
X013389Y020545D01*
X013416Y020592D01*
X013446Y020636D01*
X013479Y020679D01*
X013515Y020719D01*
X013554Y020757D01*
X013595Y020792D01*
X013638Y020824D01*
X013684Y020854D01*
X013731Y020880D01*
X013780Y020903D01*
X013830Y020923D01*
X013882Y020939D01*
X013934Y020952D01*
X013987Y020961D01*
X014041Y020967D01*
X014095Y020969D01*
X014095Y020960D01*
X014042Y020958D01*
X013989Y020952D01*
X013936Y020943D01*
X013884Y020930D01*
X013833Y020914D01*
X013783Y020895D01*
X013735Y020872D01*
X013688Y020846D01*
X013644Y020817D01*
X013601Y020785D01*
X013560Y020750D01*
X013522Y020713D01*
X013486Y020673D01*
X013453Y020631D01*
X013423Y020587D01*
X013396Y020541D01*
X013404Y020537D01*
X013431Y020582D01*
X013461Y020626D01*
X013493Y020667D01*
X013528Y020707D01*
X013566Y020744D01*
X013606Y020778D01*
X013649Y020810D01*
X013693Y020838D01*
X013739Y020864D01*
X013787Y020886D01*
X013836Y020906D01*
X013886Y020922D01*
X013938Y020934D01*
X013990Y020943D01*
X014042Y020949D01*
X014095Y020951D01*
X014095Y020942D01*
X014039Y020940D01*
X013984Y020933D01*
X013929Y020923D01*
X013875Y020909D01*
X013823Y020891D01*
X013771Y020870D01*
X013722Y020844D01*
X013674Y020816D01*
X013628Y020784D01*
X013585Y020749D01*
X013545Y020711D01*
X013507Y020670D01*
X013472Y020626D01*
X013441Y020580D01*
X013412Y020532D01*
X013420Y020528D01*
X013448Y020576D01*
X013479Y020621D01*
X013514Y020664D01*
X013551Y020704D01*
X013591Y020742D01*
X013634Y020777D01*
X013679Y020808D01*
X013726Y020837D01*
X013775Y020861D01*
X013826Y020883D01*
X013878Y020900D01*
X013931Y020914D01*
X013985Y020924D01*
X014040Y020931D01*
X014095Y020933D01*
X014095Y020924D01*
X014041Y020922D01*
X013987Y020916D01*
X013933Y020906D01*
X013881Y020892D01*
X013829Y020874D01*
X013779Y020853D01*
X013730Y020829D01*
X013684Y020801D01*
X013639Y020769D01*
X013597Y020735D01*
X013558Y020698D01*
X013521Y020658D01*
X013487Y020616D01*
X013456Y020571D01*
X013428Y020524D01*
X014745Y020704D02*
X014676Y020647D01*
X014677Y020647D02*
X014640Y020687D01*
X014601Y020725D01*
X014559Y020759D01*
X014515Y020791D01*
X014469Y020819D01*
X014420Y020844D01*
X014370Y020865D01*
X014319Y020883D01*
X014266Y020896D01*
X014213Y020906D01*
X014159Y020913D01*
X014105Y020915D01*
X014104Y021004D01*
X014105Y021005D01*
X014161Y021003D01*
X014217Y020997D01*
X014272Y020987D01*
X014327Y020974D01*
X014380Y020957D01*
X014433Y020937D01*
X014484Y020913D01*
X014533Y020886D01*
X014580Y020855D01*
X014625Y020822D01*
X014668Y020786D01*
X014708Y020747D01*
X014746Y020705D01*
X014739Y020699D01*
X014702Y020740D01*
X014662Y020779D01*
X014620Y020815D01*
X014575Y020848D01*
X014528Y020878D01*
X014480Y020905D01*
X014429Y020928D01*
X014377Y020949D01*
X014324Y020965D01*
X014270Y020978D01*
X014216Y020988D01*
X014161Y020994D01*
X014105Y020996D01*
X014105Y020987D01*
X014160Y020985D01*
X014215Y020979D01*
X014269Y020970D01*
X014322Y020957D01*
X014374Y020940D01*
X014426Y020920D01*
X014475Y020897D01*
X014524Y020870D01*
X014570Y020841D01*
X014614Y020808D01*
X014656Y020772D01*
X014695Y020734D01*
X014732Y020693D01*
X014725Y020688D01*
X014689Y020728D01*
X014650Y020766D01*
X014608Y020801D01*
X014565Y020833D01*
X014519Y020863D01*
X014471Y020889D01*
X014422Y020912D01*
X014372Y020932D01*
X014320Y020948D01*
X014267Y020961D01*
X014213Y020970D01*
X014159Y020976D01*
X014105Y020978D01*
X014105Y020969D01*
X014159Y020967D01*
X014212Y020961D01*
X014265Y020952D01*
X014317Y020939D01*
X014369Y020923D01*
X014419Y020904D01*
X014467Y020881D01*
X014514Y020855D01*
X014560Y020826D01*
X014603Y020794D01*
X014644Y020759D01*
X014682Y020722D01*
X014718Y020682D01*
X014711Y020676D01*
X014676Y020715D01*
X014638Y020752D01*
X014597Y020787D01*
X014554Y020818D01*
X014510Y020847D01*
X014463Y020873D01*
X014415Y020895D01*
X014366Y020915D01*
X014315Y020931D01*
X014263Y020943D01*
X014211Y020952D01*
X014158Y020958D01*
X014105Y020960D01*
X014105Y020951D01*
X014157Y020949D01*
X014210Y020943D01*
X014261Y020934D01*
X014312Y020922D01*
X014363Y020906D01*
X014412Y020887D01*
X014459Y020865D01*
X014505Y020839D01*
X014549Y020811D01*
X014591Y020780D01*
X014632Y020746D01*
X014669Y020709D01*
X014704Y020670D01*
X014698Y020664D01*
X014663Y020703D01*
X014625Y020739D01*
X014586Y020773D01*
X014544Y020804D01*
X014500Y020832D01*
X014455Y020857D01*
X014408Y020879D01*
X014360Y020898D01*
X014310Y020913D01*
X014260Y020926D01*
X014208Y020934D01*
X014157Y020940D01*
X014105Y020942D01*
X014105Y020933D01*
X014156Y020931D01*
X014207Y020926D01*
X014258Y020917D01*
X014308Y020905D01*
X014357Y020889D01*
X014404Y020871D01*
X014451Y020849D01*
X014496Y020824D01*
X014539Y020796D01*
X014580Y020766D01*
X014619Y020733D01*
X014656Y020697D01*
X014691Y020659D01*
X014684Y020653D01*
X014647Y020694D01*
X014607Y020732D01*
X014565Y020766D01*
X014520Y020798D01*
X014473Y020827D01*
X014424Y020852D01*
X014373Y020873D01*
X014322Y020891D01*
X014268Y020905D01*
X014214Y020915D01*
X014160Y020922D01*
X014105Y020924D01*
X014104Y019316D02*
X014104Y019406D01*
X014105Y019405D02*
X014159Y019407D01*
X014212Y019413D01*
X014265Y019423D01*
X014317Y019437D01*
X014368Y019454D01*
X014418Y019475D01*
X014466Y019499D01*
X014512Y019527D01*
X014556Y019558D01*
X014597Y019592D01*
X014637Y019629D01*
X014673Y019668D01*
X014741Y019611D01*
X014742Y019610D01*
X014704Y019569D01*
X014664Y019531D01*
X014621Y019495D01*
X014576Y019462D01*
X014529Y019432D01*
X014481Y019406D01*
X014430Y019382D01*
X014378Y019362D01*
X014325Y019346D01*
X014271Y019332D01*
X014216Y019323D01*
X014161Y019317D01*
X014105Y019315D01*
X014105Y019324D01*
X014160Y019326D01*
X014215Y019332D01*
X014269Y019341D01*
X014323Y019354D01*
X014375Y019371D01*
X014427Y019390D01*
X014477Y019414D01*
X014525Y019440D01*
X014571Y019470D01*
X014616Y019502D01*
X014658Y019537D01*
X014698Y019576D01*
X014735Y019616D01*
X014728Y019622D01*
X014691Y019582D01*
X014652Y019544D01*
X014610Y019509D01*
X014566Y019477D01*
X014520Y019448D01*
X014472Y019422D01*
X014423Y019399D01*
X014372Y019379D01*
X014320Y019363D01*
X014267Y019350D01*
X014214Y019341D01*
X014159Y019335D01*
X014105Y019333D01*
X014105Y019342D01*
X014159Y019344D01*
X014212Y019350D01*
X014265Y019359D01*
X014318Y019372D01*
X014369Y019388D01*
X014420Y019407D01*
X014468Y019430D01*
X014516Y019455D01*
X014561Y019484D01*
X014605Y019516D01*
X014646Y019551D01*
X014685Y019588D01*
X014721Y019628D01*
X014714Y019634D01*
X014678Y019594D01*
X014640Y019557D01*
X014599Y019523D01*
X014556Y019492D01*
X014511Y019463D01*
X014464Y019438D01*
X014416Y019415D01*
X014366Y019396D01*
X014315Y019380D01*
X014264Y019368D01*
X014211Y019359D01*
X014158Y019353D01*
X014105Y019351D01*
X014105Y019360D01*
X014158Y019362D01*
X014210Y019368D01*
X014262Y019377D01*
X014313Y019389D01*
X014363Y019405D01*
X014413Y019424D01*
X014460Y019446D01*
X014507Y019471D01*
X014551Y019499D01*
X014593Y019530D01*
X014634Y019564D01*
X014672Y019601D01*
X014707Y019639D01*
X014701Y019645D01*
X014665Y019607D01*
X014628Y019571D01*
X014588Y019537D01*
X014546Y019507D01*
X014502Y019479D01*
X014456Y019454D01*
X014409Y019432D01*
X014360Y019413D01*
X014311Y019398D01*
X014260Y019385D01*
X014209Y019377D01*
X014157Y019371D01*
X014105Y019369D01*
X014105Y019378D01*
X014161Y019380D01*
X014216Y019387D01*
X014271Y019397D01*
X014325Y019411D01*
X014378Y019429D01*
X014429Y019451D01*
X014479Y019476D01*
X014527Y019505D01*
X014572Y019537D01*
X014615Y019572D01*
X014656Y019610D01*
X014694Y019651D01*
X014687Y019657D01*
X014650Y019616D01*
X014609Y019579D01*
X014567Y019544D01*
X014522Y019512D01*
X014474Y019484D01*
X014425Y019459D01*
X014374Y019437D01*
X014322Y019420D01*
X014269Y019406D01*
X014215Y019396D01*
X014160Y019389D01*
X014105Y019387D01*
X014105Y019396D01*
X014159Y019398D01*
X014213Y019404D01*
X014267Y019414D01*
X014320Y019428D01*
X014371Y019446D01*
X014421Y019467D01*
X014470Y019492D01*
X014517Y019520D01*
X014561Y019551D01*
X014603Y019585D01*
X014643Y019623D01*
X014680Y019663D01*
X014104Y012316D02*
X014104Y012406D01*
X014105Y012405D02*
X014159Y012407D01*
X014212Y012413D01*
X014265Y012423D01*
X014317Y012437D01*
X014368Y012454D01*
X014418Y012475D01*
X014466Y012499D01*
X014512Y012527D01*
X014556Y012558D01*
X014597Y012592D01*
X014637Y012629D01*
X014673Y012668D01*
X014741Y012611D01*
X014742Y012610D01*
X014704Y012569D01*
X014664Y012531D01*
X014621Y012495D01*
X014576Y012462D01*
X014529Y012432D01*
X014481Y012406D01*
X014430Y012382D01*
X014378Y012362D01*
X014325Y012346D01*
X014271Y012332D01*
X014216Y012323D01*
X014161Y012317D01*
X014105Y012315D01*
X014105Y012324D01*
X014160Y012326D01*
X014215Y012332D01*
X014269Y012341D01*
X014323Y012354D01*
X014375Y012371D01*
X014427Y012390D01*
X014477Y012414D01*
X014525Y012440D01*
X014571Y012470D01*
X014616Y012502D01*
X014658Y012537D01*
X014698Y012576D01*
X014735Y012616D01*
X014728Y012622D01*
X014691Y012582D01*
X014652Y012544D01*
X014610Y012509D01*
X014566Y012477D01*
X014520Y012448D01*
X014472Y012422D01*
X014423Y012399D01*
X014372Y012379D01*
X014320Y012363D01*
X014267Y012350D01*
X014214Y012341D01*
X014159Y012335D01*
X014105Y012333D01*
X014105Y012342D01*
X014159Y012344D01*
X014212Y012350D01*
X014265Y012359D01*
X014318Y012372D01*
X014369Y012388D01*
X014420Y012407D01*
X014468Y012430D01*
X014516Y012455D01*
X014561Y012484D01*
X014605Y012516D01*
X014646Y012551D01*
X014685Y012588D01*
X014721Y012628D01*
X014714Y012634D01*
X014678Y012594D01*
X014640Y012557D01*
X014599Y012523D01*
X014556Y012492D01*
X014511Y012463D01*
X014464Y012438D01*
X014416Y012415D01*
X014366Y012396D01*
X014315Y012380D01*
X014264Y012368D01*
X014211Y012359D01*
X014158Y012353D01*
X014105Y012351D01*
X014105Y012360D01*
X014158Y012362D01*
X014210Y012368D01*
X014262Y012377D01*
X014313Y012389D01*
X014363Y012405D01*
X014413Y012424D01*
X014460Y012446D01*
X014507Y012471D01*
X014551Y012499D01*
X014593Y012530D01*
X014634Y012564D01*
X014672Y012601D01*
X014707Y012639D01*
X014701Y012645D01*
X014665Y012607D01*
X014628Y012571D01*
X014588Y012537D01*
X014546Y012507D01*
X014502Y012479D01*
X014456Y012454D01*
X014409Y012432D01*
X014360Y012413D01*
X014311Y012398D01*
X014260Y012385D01*
X014209Y012377D01*
X014157Y012371D01*
X014105Y012369D01*
X014105Y012378D01*
X014161Y012380D01*
X014216Y012387D01*
X014271Y012397D01*
X014325Y012411D01*
X014378Y012429D01*
X014429Y012451D01*
X014479Y012476D01*
X014527Y012505D01*
X014572Y012537D01*
X014615Y012572D01*
X014656Y012610D01*
X014694Y012651D01*
X014687Y012657D01*
X014650Y012616D01*
X014609Y012579D01*
X014567Y012544D01*
X014522Y012512D01*
X014474Y012484D01*
X014425Y012459D01*
X014374Y012437D01*
X014322Y012420D01*
X014269Y012406D01*
X014215Y012396D01*
X014160Y012389D01*
X014105Y012387D01*
X014105Y012396D01*
X014159Y012398D01*
X014213Y012404D01*
X014267Y012414D01*
X014320Y012428D01*
X014371Y012446D01*
X014421Y012467D01*
X014470Y012492D01*
X014517Y012520D01*
X014561Y012551D01*
X014603Y012585D01*
X014643Y012623D01*
X014680Y012663D01*
X014095Y014004D02*
X014095Y013914D01*
X014095Y013915D02*
X014041Y013913D01*
X013988Y013907D01*
X013935Y013897D01*
X013883Y013883D01*
X013832Y013866D01*
X013783Y013845D01*
X013735Y013821D01*
X013689Y013793D01*
X013645Y013762D01*
X013603Y013728D01*
X013564Y013692D01*
X013527Y013652D01*
X013494Y013610D01*
X013463Y013566D01*
X013436Y013520D01*
X013357Y013562D01*
X013385Y013611D01*
X013417Y013657D01*
X013452Y013702D01*
X013489Y013744D01*
X013530Y013784D01*
X013573Y013820D01*
X013618Y013854D01*
X013665Y013885D01*
X013715Y013912D01*
X013766Y013936D01*
X013818Y013957D01*
X013872Y013974D01*
X013927Y013987D01*
X013982Y013997D01*
X014039Y014003D01*
X014095Y014005D01*
X014095Y013996D01*
X014039Y013994D01*
X013984Y013988D01*
X013929Y013978D01*
X013874Y013965D01*
X013821Y013948D01*
X013769Y013928D01*
X013719Y013904D01*
X013670Y013877D01*
X013623Y013847D01*
X013578Y013813D01*
X013536Y013777D01*
X013496Y013738D01*
X013459Y013696D01*
X013424Y013652D01*
X013393Y013606D01*
X013365Y013558D01*
X013373Y013554D01*
X013401Y013601D01*
X013432Y013647D01*
X013466Y013690D01*
X013502Y013732D01*
X013542Y013770D01*
X013584Y013806D01*
X013628Y013839D01*
X013674Y013869D01*
X013723Y013896D01*
X013773Y013919D01*
X013824Y013940D01*
X013877Y013956D01*
X013930Y013969D01*
X013985Y013979D01*
X014040Y013985D01*
X014095Y013987D01*
X014095Y013978D01*
X014040Y013976D01*
X013986Y013970D01*
X013932Y013961D01*
X013879Y013948D01*
X013827Y013931D01*
X013776Y013911D01*
X013727Y013888D01*
X013679Y013861D01*
X013633Y013832D01*
X013589Y013799D01*
X013548Y013764D01*
X013509Y013725D01*
X013472Y013685D01*
X013439Y013642D01*
X013408Y013596D01*
X013381Y013549D01*
X013389Y013545D01*
X013416Y013592D01*
X013446Y013636D01*
X013479Y013679D01*
X013515Y013719D01*
X013554Y013757D01*
X013595Y013792D01*
X013638Y013824D01*
X013684Y013854D01*
X013731Y013880D01*
X013780Y013903D01*
X013830Y013923D01*
X013882Y013939D01*
X013934Y013952D01*
X013987Y013961D01*
X014041Y013967D01*
X014095Y013969D01*
X014095Y013960D01*
X014042Y013958D01*
X013989Y013952D01*
X013936Y013943D01*
X013884Y013930D01*
X013833Y013914D01*
X013783Y013895D01*
X013735Y013872D01*
X013688Y013846D01*
X013644Y013817D01*
X013601Y013785D01*
X013560Y013750D01*
X013522Y013713D01*
X013486Y013673D01*
X013453Y013631D01*
X013423Y013587D01*
X013396Y013541D01*
X013404Y013537D01*
X013431Y013582D01*
X013461Y013626D01*
X013493Y013667D01*
X013528Y013707D01*
X013566Y013744D01*
X013606Y013778D01*
X013649Y013810D01*
X013693Y013838D01*
X013739Y013864D01*
X013787Y013886D01*
X013836Y013906D01*
X013886Y013922D01*
X013938Y013934D01*
X013990Y013943D01*
X014042Y013949D01*
X014095Y013951D01*
X014095Y013942D01*
X014039Y013940D01*
X013984Y013933D01*
X013929Y013923D01*
X013875Y013909D01*
X013823Y013891D01*
X013771Y013870D01*
X013722Y013844D01*
X013674Y013816D01*
X013628Y013784D01*
X013585Y013749D01*
X013545Y013711D01*
X013507Y013670D01*
X013472Y013626D01*
X013441Y013580D01*
X013412Y013532D01*
X013420Y013528D01*
X013448Y013576D01*
X013479Y013621D01*
X013514Y013664D01*
X013551Y013704D01*
X013591Y013742D01*
X013634Y013777D01*
X013679Y013808D01*
X013726Y013837D01*
X013775Y013861D01*
X013826Y013883D01*
X013878Y013900D01*
X013931Y013914D01*
X013985Y013924D01*
X014040Y013931D01*
X014095Y013933D01*
X014095Y013924D01*
X014041Y013922D01*
X013987Y013916D01*
X013933Y013906D01*
X013881Y013892D01*
X013829Y013874D01*
X013779Y013853D01*
X013730Y013829D01*
X013684Y013801D01*
X013639Y013769D01*
X013597Y013735D01*
X013558Y013698D01*
X013521Y013658D01*
X013487Y013616D01*
X013456Y013571D01*
X013428Y013524D01*
X013369Y012737D02*
X013447Y012782D01*
X013447Y012781D02*
X013475Y012737D01*
X013506Y012695D01*
X013539Y012655D01*
X013575Y012617D01*
X013614Y012582D01*
X013655Y012550D01*
X013699Y012520D01*
X013744Y012494D01*
X013791Y012471D01*
X013839Y012451D01*
X013889Y012435D01*
X013939Y012422D01*
X013991Y012413D01*
X014043Y012407D01*
X014095Y012405D01*
X014096Y012316D01*
X014095Y012315D01*
X014040Y012317D01*
X013986Y012323D01*
X013931Y012332D01*
X013878Y012345D01*
X013826Y012361D01*
X013774Y012380D01*
X013724Y012403D01*
X013676Y012429D01*
X013629Y012458D01*
X013585Y012490D01*
X013542Y012525D01*
X013502Y012563D01*
X013465Y012603D01*
X013430Y012645D01*
X013398Y012690D01*
X013369Y012736D01*
X013377Y012741D01*
X013405Y012695D01*
X013437Y012651D01*
X013472Y012609D01*
X013509Y012569D01*
X013548Y012532D01*
X013590Y012497D01*
X013634Y012466D01*
X013680Y012437D01*
X013728Y012411D01*
X013778Y012389D01*
X013828Y012369D01*
X013880Y012353D01*
X013933Y012341D01*
X013987Y012332D01*
X014041Y012326D01*
X014095Y012324D01*
X014095Y012333D01*
X014041Y012335D01*
X013988Y012341D01*
X013935Y012350D01*
X013883Y012362D01*
X013831Y012378D01*
X013781Y012397D01*
X013732Y012419D01*
X013685Y012445D01*
X013639Y012473D01*
X013596Y012505D01*
X013554Y012539D01*
X013515Y012575D01*
X013478Y012615D01*
X013444Y012656D01*
X013413Y012700D01*
X013384Y012745D01*
X013392Y012750D01*
X013422Y012702D01*
X013456Y012656D01*
X013492Y012613D01*
X013532Y012572D01*
X013574Y012534D01*
X013618Y012499D01*
X013665Y012467D01*
X013714Y012439D01*
X013765Y012414D01*
X013818Y012392D01*
X013871Y012375D01*
X013926Y012361D01*
X013982Y012351D01*
X014038Y012344D01*
X014095Y012342D01*
X014095Y012351D01*
X014039Y012353D01*
X013983Y012359D01*
X013928Y012369D01*
X013874Y012383D01*
X013821Y012401D01*
X013769Y012422D01*
X013718Y012447D01*
X013670Y012475D01*
X013624Y012506D01*
X013579Y012541D01*
X013538Y012578D01*
X013499Y012619D01*
X013463Y012661D01*
X013430Y012707D01*
X013400Y012754D01*
X013408Y012759D01*
X013437Y012712D01*
X013470Y012667D01*
X013506Y012625D01*
X013544Y012585D01*
X013585Y012548D01*
X013629Y012513D01*
X013675Y012482D01*
X013723Y012455D01*
X013772Y012430D01*
X013824Y012409D01*
X013876Y012392D01*
X013930Y012378D01*
X013985Y012368D01*
X014040Y012362D01*
X014095Y012360D01*
X014095Y012369D01*
X014040Y012371D01*
X013986Y012377D01*
X013932Y012387D01*
X013879Y012401D01*
X013827Y012418D01*
X013776Y012438D01*
X013727Y012463D01*
X013680Y012490D01*
X013634Y012521D01*
X013591Y012554D01*
X013550Y012591D01*
X013512Y012631D01*
X013477Y012673D01*
X013445Y012717D01*
X013416Y012763D01*
X013424Y012768D01*
X013452Y012722D01*
X013484Y012678D01*
X013519Y012637D01*
X013557Y012598D01*
X013597Y012561D01*
X013639Y012528D01*
X013684Y012498D01*
X013731Y012470D01*
X013780Y012447D01*
X013830Y012426D01*
X013881Y012409D01*
X013934Y012396D01*
X013987Y012386D01*
X014041Y012380D01*
X014095Y012378D01*
X014095Y012387D01*
X014042Y012389D01*
X013988Y012395D01*
X013936Y012405D01*
X013884Y012418D01*
X013833Y012435D01*
X013783Y012455D01*
X013735Y012478D01*
X013689Y012505D01*
X013645Y012535D01*
X013603Y012568D01*
X013563Y012604D01*
X013526Y012643D01*
X013491Y012684D01*
X013460Y012727D01*
X013431Y012772D01*
X013439Y012777D01*
X013467Y012732D01*
X013498Y012689D01*
X013532Y012649D01*
X013569Y012611D01*
X013608Y012575D01*
X013650Y012543D01*
X013694Y012513D01*
X013740Y012486D01*
X013787Y012463D01*
X013836Y012443D01*
X013886Y012426D01*
X013938Y012413D01*
X013990Y012404D01*
X014042Y012398D01*
X014095Y012396D01*
X014745Y013704D02*
X014676Y013647D01*
X014677Y013647D02*
X014640Y013687D01*
X014601Y013725D01*
X014559Y013759D01*
X014515Y013791D01*
X014469Y013819D01*
X014420Y013844D01*
X014370Y013865D01*
X014319Y013883D01*
X014266Y013896D01*
X014213Y013906D01*
X014159Y013913D01*
X014105Y013915D01*
X014104Y014004D01*
X014105Y014005D01*
X014161Y014003D01*
X014217Y013997D01*
X014272Y013987D01*
X014327Y013974D01*
X014380Y013957D01*
X014433Y013937D01*
X014484Y013913D01*
X014533Y013886D01*
X014580Y013855D01*
X014625Y013822D01*
X014668Y013786D01*
X014708Y013747D01*
X014746Y013705D01*
X014739Y013699D01*
X014702Y013740D01*
X014662Y013779D01*
X014620Y013815D01*
X014575Y013848D01*
X014528Y013878D01*
X014480Y013905D01*
X014429Y013928D01*
X014377Y013949D01*
X014324Y013965D01*
X014270Y013978D01*
X014216Y013988D01*
X014161Y013994D01*
X014105Y013996D01*
X014105Y013987D01*
X014160Y013985D01*
X014215Y013979D01*
X014269Y013970D01*
X014322Y013957D01*
X014374Y013940D01*
X014426Y013920D01*
X014475Y013897D01*
X014524Y013870D01*
X014570Y013841D01*
X014614Y013808D01*
X014656Y013772D01*
X014695Y013734D01*
X014732Y013693D01*
X014725Y013688D01*
X014689Y013728D01*
X014650Y013766D01*
X014608Y013801D01*
X014565Y013833D01*
X014519Y013863D01*
X014471Y013889D01*
X014422Y013912D01*
X014372Y013932D01*
X014320Y013948D01*
X014267Y013961D01*
X014213Y013970D01*
X014159Y013976D01*
X014105Y013978D01*
X014105Y013969D01*
X014159Y013967D01*
X014212Y013961D01*
X014265Y013952D01*
X014317Y013939D01*
X014369Y013923D01*
X014419Y013904D01*
X014467Y013881D01*
X014514Y013855D01*
X014560Y013826D01*
X014603Y013794D01*
X014644Y013759D01*
X014682Y013722D01*
X014718Y013682D01*
X014711Y013676D01*
X014676Y013715D01*
X014638Y013752D01*
X014597Y013787D01*
X014554Y013818D01*
X014510Y013847D01*
X014463Y013873D01*
X014415Y013895D01*
X014366Y013915D01*
X014315Y013931D01*
X014263Y013943D01*
X014211Y013952D01*
X014158Y013958D01*
X014105Y013960D01*
X014105Y013951D01*
X014157Y013949D01*
X014210Y013943D01*
X014261Y013934D01*
X014312Y013922D01*
X014363Y013906D01*
X014412Y013887D01*
X014459Y013865D01*
X014505Y013839D01*
X014549Y013811D01*
X014591Y013780D01*
X014632Y013746D01*
X014669Y013709D01*
X014704Y013670D01*
X014698Y013664D01*
X014663Y013703D01*
X014625Y013739D01*
X014586Y013773D01*
X014544Y013804D01*
X014500Y013832D01*
X014455Y013857D01*
X014408Y013879D01*
X014360Y013898D01*
X014310Y013913D01*
X014260Y013926D01*
X014208Y013934D01*
X014157Y013940D01*
X014105Y013942D01*
X014105Y013933D01*
X014156Y013931D01*
X014207Y013926D01*
X014258Y013917D01*
X014308Y013905D01*
X014357Y013889D01*
X014404Y013871D01*
X014451Y013849D01*
X014496Y013824D01*
X014539Y013796D01*
X014580Y013766D01*
X014619Y013733D01*
X014656Y013697D01*
X014691Y013659D01*
X014684Y013653D01*
X014647Y013694D01*
X014607Y013732D01*
X014565Y013766D01*
X014520Y013798D01*
X014473Y013827D01*
X014424Y013852D01*
X014373Y013873D01*
X014322Y013891D01*
X014268Y013905D01*
X014214Y013915D01*
X014160Y013922D01*
X014105Y013924D01*
X013369Y005737D02*
X013447Y005782D01*
X013447Y005781D02*
X013475Y005737D01*
X013506Y005695D01*
X013539Y005655D01*
X013575Y005617D01*
X013614Y005582D01*
X013655Y005550D01*
X013699Y005520D01*
X013744Y005494D01*
X013791Y005471D01*
X013839Y005451D01*
X013889Y005435D01*
X013939Y005422D01*
X013991Y005413D01*
X014043Y005407D01*
X014095Y005405D01*
X014096Y005316D01*
X014095Y005315D01*
X014040Y005317D01*
X013986Y005323D01*
X013931Y005332D01*
X013878Y005345D01*
X013826Y005361D01*
X013774Y005380D01*
X013724Y005403D01*
X013676Y005429D01*
X013629Y005458D01*
X013585Y005490D01*
X013542Y005525D01*
X013502Y005563D01*
X013465Y005603D01*
X013430Y005645D01*
X013398Y005690D01*
X013369Y005736D01*
X013377Y005741D01*
X013405Y005695D01*
X013437Y005651D01*
X013472Y005609D01*
X013509Y005569D01*
X013548Y005532D01*
X013590Y005497D01*
X013634Y005466D01*
X013680Y005437D01*
X013728Y005411D01*
X013778Y005389D01*
X013828Y005369D01*
X013880Y005353D01*
X013933Y005341D01*
X013987Y005332D01*
X014041Y005326D01*
X014095Y005324D01*
X014095Y005333D01*
X014041Y005335D01*
X013988Y005341D01*
X013935Y005350D01*
X013883Y005362D01*
X013831Y005378D01*
X013781Y005397D01*
X013732Y005419D01*
X013685Y005445D01*
X013639Y005473D01*
X013596Y005505D01*
X013554Y005539D01*
X013515Y005575D01*
X013478Y005615D01*
X013444Y005656D01*
X013413Y005700D01*
X013384Y005745D01*
X013392Y005750D01*
X013422Y005702D01*
X013456Y005656D01*
X013492Y005613D01*
X013532Y005572D01*
X013574Y005534D01*
X013618Y005499D01*
X013665Y005467D01*
X013714Y005439D01*
X013765Y005414D01*
X013818Y005392D01*
X013871Y005375D01*
X013926Y005361D01*
X013982Y005351D01*
X014038Y005344D01*
X014095Y005342D01*
X014095Y005351D01*
X014039Y005353D01*
X013983Y005359D01*
X013928Y005369D01*
X013874Y005383D01*
X013821Y005401D01*
X013769Y005422D01*
X013718Y005447D01*
X013670Y005475D01*
X013624Y005506D01*
X013579Y005541D01*
X013538Y005578D01*
X013499Y005619D01*
X013463Y005661D01*
X013430Y005707D01*
X013400Y005754D01*
X013408Y005759D01*
X013437Y005712D01*
X013470Y005667D01*
X013506Y005625D01*
X013544Y005585D01*
X013585Y005548D01*
X013629Y005513D01*
X013675Y005482D01*
X013723Y005455D01*
X013772Y005430D01*
X013824Y005409D01*
X013876Y005392D01*
X013930Y005378D01*
X013985Y005368D01*
X014040Y005362D01*
X014095Y005360D01*
X014095Y005369D01*
X014040Y005371D01*
X013986Y005377D01*
X013932Y005387D01*
X013879Y005401D01*
X013827Y005418D01*
X013776Y005438D01*
X013727Y005463D01*
X013680Y005490D01*
X013634Y005521D01*
X013591Y005554D01*
X013550Y005591D01*
X013512Y005631D01*
X013477Y005673D01*
X013445Y005717D01*
X013416Y005763D01*
X013424Y005768D01*
X013452Y005722D01*
X013484Y005678D01*
X013519Y005637D01*
X013557Y005598D01*
X013597Y005561D01*
X013639Y005528D01*
X013684Y005498D01*
X013731Y005470D01*
X013780Y005447D01*
X013830Y005426D01*
X013881Y005409D01*
X013934Y005396D01*
X013987Y005386D01*
X014041Y005380D01*
X014095Y005378D01*
X014095Y005387D01*
X014042Y005389D01*
X013988Y005395D01*
X013936Y005405D01*
X013884Y005418D01*
X013833Y005435D01*
X013783Y005455D01*
X013735Y005478D01*
X013689Y005505D01*
X013645Y005535D01*
X013603Y005568D01*
X013563Y005604D01*
X013526Y005643D01*
X013491Y005684D01*
X013460Y005727D01*
X013431Y005772D01*
X013439Y005777D01*
X013467Y005732D01*
X013498Y005689D01*
X013532Y005649D01*
X013569Y005611D01*
X013608Y005575D01*
X013650Y005543D01*
X013694Y005513D01*
X013740Y005486D01*
X013787Y005463D01*
X013836Y005443D01*
X013886Y005426D01*
X013938Y005413D01*
X013990Y005404D01*
X014042Y005398D01*
X014095Y005396D01*
X014095Y007004D02*
X014095Y006914D01*
X014095Y006915D02*
X014041Y006913D01*
X013988Y006907D01*
X013935Y006897D01*
X013883Y006883D01*
X013832Y006866D01*
X013783Y006845D01*
X013735Y006821D01*
X013689Y006793D01*
X013645Y006762D01*
X013603Y006728D01*
X013564Y006692D01*
X013527Y006652D01*
X013494Y006610D01*
X013463Y006566D01*
X013436Y006520D01*
X013357Y006562D01*
X013385Y006611D01*
X013417Y006657D01*
X013452Y006702D01*
X013489Y006744D01*
X013530Y006784D01*
X013573Y006820D01*
X013618Y006854D01*
X013665Y006885D01*
X013715Y006912D01*
X013766Y006936D01*
X013818Y006957D01*
X013872Y006974D01*
X013927Y006987D01*
X013982Y006997D01*
X014039Y007003D01*
X014095Y007005D01*
X014095Y006996D01*
X014039Y006994D01*
X013984Y006988D01*
X013929Y006978D01*
X013874Y006965D01*
X013821Y006948D01*
X013769Y006928D01*
X013719Y006904D01*
X013670Y006877D01*
X013623Y006847D01*
X013578Y006813D01*
X013536Y006777D01*
X013496Y006738D01*
X013459Y006696D01*
X013424Y006652D01*
X013393Y006606D01*
X013365Y006558D01*
X013373Y006554D01*
X013401Y006601D01*
X013432Y006647D01*
X013466Y006690D01*
X013502Y006732D01*
X013542Y006770D01*
X013584Y006806D01*
X013628Y006839D01*
X013674Y006869D01*
X013723Y006896D01*
X013773Y006919D01*
X013824Y006940D01*
X013877Y006956D01*
X013930Y006969D01*
X013985Y006979D01*
X014040Y006985D01*
X014095Y006987D01*
X014095Y006978D01*
X014040Y006976D01*
X013986Y006970D01*
X013932Y006961D01*
X013879Y006948D01*
X013827Y006931D01*
X013776Y006911D01*
X013727Y006888D01*
X013679Y006861D01*
X013633Y006832D01*
X013589Y006799D01*
X013548Y006764D01*
X013509Y006725D01*
X013472Y006685D01*
X013439Y006642D01*
X013408Y006596D01*
X013381Y006549D01*
X013389Y006545D01*
X013416Y006592D01*
X013446Y006636D01*
X013479Y006679D01*
X013515Y006719D01*
X013554Y006757D01*
X013595Y006792D01*
X013638Y006824D01*
X013684Y006854D01*
X013731Y006880D01*
X013780Y006903D01*
X013830Y006923D01*
X013882Y006939D01*
X013934Y006952D01*
X013987Y006961D01*
X014041Y006967D01*
X014095Y006969D01*
X014095Y006960D01*
X014042Y006958D01*
X013989Y006952D01*
X013936Y006943D01*
X013884Y006930D01*
X013833Y006914D01*
X013783Y006895D01*
X013735Y006872D01*
X013688Y006846D01*
X013644Y006817D01*
X013601Y006785D01*
X013560Y006750D01*
X013522Y006713D01*
X013486Y006673D01*
X013453Y006631D01*
X013423Y006587D01*
X013396Y006541D01*
X013404Y006537D01*
X013431Y006582D01*
X013461Y006626D01*
X013493Y006667D01*
X013528Y006707D01*
X013566Y006744D01*
X013606Y006778D01*
X013649Y006810D01*
X013693Y006838D01*
X013739Y006864D01*
X013787Y006886D01*
X013836Y006906D01*
X013886Y006922D01*
X013938Y006934D01*
X013990Y006943D01*
X014042Y006949D01*
X014095Y006951D01*
X014095Y006942D01*
X014039Y006940D01*
X013984Y006933D01*
X013929Y006923D01*
X013875Y006909D01*
X013823Y006891D01*
X013771Y006870D01*
X013722Y006844D01*
X013674Y006816D01*
X013628Y006784D01*
X013585Y006749D01*
X013545Y006711D01*
X013507Y006670D01*
X013472Y006626D01*
X013441Y006580D01*
X013412Y006532D01*
X013420Y006528D01*
X013448Y006576D01*
X013479Y006621D01*
X013514Y006664D01*
X013551Y006704D01*
X013591Y006742D01*
X013634Y006777D01*
X013679Y006808D01*
X013726Y006837D01*
X013775Y006861D01*
X013826Y006883D01*
X013878Y006900D01*
X013931Y006914D01*
X013985Y006924D01*
X014040Y006931D01*
X014095Y006933D01*
X014095Y006924D01*
X014041Y006922D01*
X013987Y006916D01*
X013933Y006906D01*
X013881Y006892D01*
X013829Y006874D01*
X013779Y006853D01*
X013730Y006829D01*
X013684Y006801D01*
X013639Y006769D01*
X013597Y006735D01*
X013558Y006698D01*
X013521Y006658D01*
X013487Y006616D01*
X013456Y006571D01*
X013428Y006524D01*
X014745Y006704D02*
X014676Y006647D01*
X014677Y006647D02*
X014640Y006687D01*
X014601Y006725D01*
X014559Y006759D01*
X014515Y006791D01*
X014469Y006819D01*
X014420Y006844D01*
X014370Y006865D01*
X014319Y006883D01*
X014266Y006896D01*
X014213Y006906D01*
X014159Y006913D01*
X014105Y006915D01*
X014104Y007004D01*
X014105Y007005D01*
X014161Y007003D01*
X014217Y006997D01*
X014272Y006987D01*
X014327Y006974D01*
X014380Y006957D01*
X014433Y006937D01*
X014484Y006913D01*
X014533Y006886D01*
X014580Y006855D01*
X014625Y006822D01*
X014668Y006786D01*
X014708Y006747D01*
X014746Y006705D01*
X014739Y006699D01*
X014702Y006740D01*
X014662Y006779D01*
X014620Y006815D01*
X014575Y006848D01*
X014528Y006878D01*
X014480Y006905D01*
X014429Y006928D01*
X014377Y006949D01*
X014324Y006965D01*
X014270Y006978D01*
X014216Y006988D01*
X014161Y006994D01*
X014105Y006996D01*
X014105Y006987D01*
X014160Y006985D01*
X014215Y006979D01*
X014269Y006970D01*
X014322Y006957D01*
X014374Y006940D01*
X014426Y006920D01*
X014475Y006897D01*
X014524Y006870D01*
X014570Y006841D01*
X014614Y006808D01*
X014656Y006772D01*
X014695Y006734D01*
X014732Y006693D01*
X014725Y006688D01*
X014689Y006728D01*
X014650Y006766D01*
X014608Y006801D01*
X014565Y006833D01*
X014519Y006863D01*
X014471Y006889D01*
X014422Y006912D01*
X014372Y006932D01*
X014320Y006948D01*
X014267Y006961D01*
X014213Y006970D01*
X014159Y006976D01*
X014105Y006978D01*
X014105Y006969D01*
X014159Y006967D01*
X014212Y006961D01*
X014265Y006952D01*
X014317Y006939D01*
X014369Y006923D01*
X014419Y006904D01*
X014467Y006881D01*
X014514Y006855D01*
X014560Y006826D01*
X014603Y006794D01*
X014644Y006759D01*
X014682Y006722D01*
X014718Y006682D01*
X014711Y006676D01*
X014676Y006715D01*
X014638Y006752D01*
X014597Y006787D01*
X014554Y006818D01*
X014510Y006847D01*
X014463Y006873D01*
X014415Y006895D01*
X014366Y006915D01*
X014315Y006931D01*
X014263Y006943D01*
X014211Y006952D01*
X014158Y006958D01*
X014105Y006960D01*
X014105Y006951D01*
X014157Y006949D01*
X014210Y006943D01*
X014261Y006934D01*
X014312Y006922D01*
X014363Y006906D01*
X014412Y006887D01*
X014459Y006865D01*
X014505Y006839D01*
X014549Y006811D01*
X014591Y006780D01*
X014632Y006746D01*
X014669Y006709D01*
X014704Y006670D01*
X014698Y006664D01*
X014663Y006703D01*
X014625Y006739D01*
X014586Y006773D01*
X014544Y006804D01*
X014500Y006832D01*
X014455Y006857D01*
X014408Y006879D01*
X014360Y006898D01*
X014310Y006913D01*
X014260Y006926D01*
X014208Y006934D01*
X014157Y006940D01*
X014105Y006942D01*
X014105Y006933D01*
X014156Y006931D01*
X014207Y006926D01*
X014258Y006917D01*
X014308Y006905D01*
X014357Y006889D01*
X014404Y006871D01*
X014451Y006849D01*
X014496Y006824D01*
X014539Y006796D01*
X014580Y006766D01*
X014619Y006733D01*
X014656Y006697D01*
X014691Y006659D01*
X014684Y006653D01*
X014647Y006694D01*
X014607Y006732D01*
X014565Y006766D01*
X014520Y006798D01*
X014473Y006827D01*
X014424Y006852D01*
X014373Y006873D01*
X014322Y006891D01*
X014268Y006905D01*
X014214Y006915D01*
X014160Y006922D01*
X014105Y006924D01*
X014104Y005316D02*
X014104Y005406D01*
X014105Y005405D02*
X014159Y005407D01*
X014212Y005413D01*
X014265Y005423D01*
X014317Y005437D01*
X014368Y005454D01*
X014418Y005475D01*
X014466Y005499D01*
X014512Y005527D01*
X014556Y005558D01*
X014597Y005592D01*
X014637Y005629D01*
X014673Y005668D01*
X014741Y005611D01*
X014742Y005610D01*
X014704Y005569D01*
X014664Y005531D01*
X014621Y005495D01*
X014576Y005462D01*
X014529Y005432D01*
X014481Y005406D01*
X014430Y005382D01*
X014378Y005362D01*
X014325Y005346D01*
X014271Y005332D01*
X014216Y005323D01*
X014161Y005317D01*
X014105Y005315D01*
X014105Y005324D01*
X014160Y005326D01*
X014215Y005332D01*
X014269Y005341D01*
X014323Y005354D01*
X014375Y005371D01*
X014427Y005390D01*
X014477Y005414D01*
X014525Y005440D01*
X014571Y005470D01*
X014616Y005502D01*
X014658Y005537D01*
X014698Y005576D01*
X014735Y005616D01*
X014728Y005622D01*
X014691Y005582D01*
X014652Y005544D01*
X014610Y005509D01*
X014566Y005477D01*
X014520Y005448D01*
X014472Y005422D01*
X014423Y005399D01*
X014372Y005379D01*
X014320Y005363D01*
X014267Y005350D01*
X014214Y005341D01*
X014159Y005335D01*
X014105Y005333D01*
X014105Y005342D01*
X014159Y005344D01*
X014212Y005350D01*
X014265Y005359D01*
X014318Y005372D01*
X014369Y005388D01*
X014420Y005407D01*
X014468Y005430D01*
X014516Y005455D01*
X014561Y005484D01*
X014605Y005516D01*
X014646Y005551D01*
X014685Y005588D01*
X014721Y005628D01*
X014714Y005634D01*
X014678Y005594D01*
X014640Y005557D01*
X014599Y005523D01*
X014556Y005492D01*
X014511Y005463D01*
X014464Y005438D01*
X014416Y005415D01*
X014366Y005396D01*
X014315Y005380D01*
X014264Y005368D01*
X014211Y005359D01*
X014158Y005353D01*
X014105Y005351D01*
X014105Y005360D01*
X014158Y005362D01*
X014210Y005368D01*
X014262Y005377D01*
X014313Y005389D01*
X014363Y005405D01*
X014413Y005424D01*
X014460Y005446D01*
X014507Y005471D01*
X014551Y005499D01*
X014593Y005530D01*
X014634Y005564D01*
X014672Y005601D01*
X014707Y005639D01*
X014701Y005645D01*
X014665Y005607D01*
X014628Y005571D01*
X014588Y005537D01*
X014546Y005507D01*
X014502Y005479D01*
X014456Y005454D01*
X014409Y005432D01*
X014360Y005413D01*
X014311Y005398D01*
X014260Y005385D01*
X014209Y005377D01*
X014157Y005371D01*
X014105Y005369D01*
X014105Y005378D01*
X014161Y005380D01*
X014216Y005387D01*
X014271Y005397D01*
X014325Y005411D01*
X014378Y005429D01*
X014429Y005451D01*
X014479Y005476D01*
X014527Y005505D01*
X014572Y005537D01*
X014615Y005572D01*
X014656Y005610D01*
X014694Y005651D01*
X014687Y005657D01*
X014650Y005616D01*
X014609Y005579D01*
X014567Y005544D01*
X014522Y005512D01*
X014474Y005484D01*
X014425Y005459D01*
X014374Y005437D01*
X014322Y005420D01*
X014269Y005406D01*
X014215Y005396D01*
X014160Y005389D01*
X014105Y005387D01*
X014105Y005396D01*
X014159Y005398D01*
X014213Y005404D01*
X014267Y005414D01*
X014320Y005428D01*
X014371Y005446D01*
X014421Y005467D01*
X014470Y005492D01*
X014517Y005520D01*
X014561Y005551D01*
X014603Y005585D01*
X014643Y005623D01*
X014680Y005663D01*
X025869Y001737D02*
X025947Y001782D01*
X025947Y001781D02*
X025975Y001737D01*
X026006Y001695D01*
X026039Y001655D01*
X026075Y001617D01*
X026114Y001582D01*
X026155Y001550D01*
X026199Y001520D01*
X026244Y001494D01*
X026291Y001471D01*
X026339Y001451D01*
X026389Y001435D01*
X026439Y001422D01*
X026491Y001413D01*
X026543Y001407D01*
X026595Y001405D01*
X026596Y001316D01*
X026595Y001315D01*
X026540Y001317D01*
X026486Y001323D01*
X026431Y001332D01*
X026378Y001345D01*
X026326Y001361D01*
X026274Y001380D01*
X026224Y001403D01*
X026176Y001429D01*
X026129Y001458D01*
X026085Y001490D01*
X026042Y001525D01*
X026002Y001563D01*
X025965Y001603D01*
X025930Y001645D01*
X025898Y001690D01*
X025869Y001736D01*
X025877Y001741D01*
X025905Y001695D01*
X025937Y001651D01*
X025972Y001609D01*
X026009Y001569D01*
X026048Y001532D01*
X026090Y001497D01*
X026134Y001466D01*
X026180Y001437D01*
X026228Y001411D01*
X026278Y001389D01*
X026328Y001369D01*
X026380Y001353D01*
X026433Y001341D01*
X026487Y001332D01*
X026541Y001326D01*
X026595Y001324D01*
X026595Y001333D01*
X026541Y001335D01*
X026488Y001341D01*
X026435Y001350D01*
X026383Y001362D01*
X026331Y001378D01*
X026281Y001397D01*
X026232Y001419D01*
X026185Y001445D01*
X026139Y001473D01*
X026096Y001505D01*
X026054Y001539D01*
X026015Y001575D01*
X025978Y001615D01*
X025944Y001656D01*
X025913Y001700D01*
X025884Y001745D01*
X025892Y001750D01*
X025922Y001702D01*
X025956Y001656D01*
X025992Y001613D01*
X026032Y001572D01*
X026074Y001534D01*
X026118Y001499D01*
X026165Y001467D01*
X026214Y001439D01*
X026265Y001414D01*
X026318Y001392D01*
X026371Y001375D01*
X026426Y001361D01*
X026482Y001351D01*
X026538Y001344D01*
X026595Y001342D01*
X026595Y001351D01*
X026539Y001353D01*
X026483Y001359D01*
X026428Y001369D01*
X026374Y001383D01*
X026321Y001401D01*
X026269Y001422D01*
X026218Y001447D01*
X026170Y001475D01*
X026124Y001506D01*
X026079Y001541D01*
X026038Y001578D01*
X025999Y001619D01*
X025963Y001661D01*
X025930Y001707D01*
X025900Y001754D01*
X025908Y001759D01*
X025937Y001712D01*
X025970Y001667D01*
X026006Y001625D01*
X026044Y001585D01*
X026085Y001548D01*
X026129Y001513D01*
X026175Y001482D01*
X026223Y001455D01*
X026272Y001430D01*
X026324Y001409D01*
X026376Y001392D01*
X026430Y001378D01*
X026485Y001368D01*
X026540Y001362D01*
X026595Y001360D01*
X026595Y001369D01*
X026540Y001371D01*
X026486Y001377D01*
X026432Y001387D01*
X026379Y001401D01*
X026327Y001418D01*
X026276Y001438D01*
X026227Y001463D01*
X026180Y001490D01*
X026134Y001521D01*
X026091Y001554D01*
X026050Y001591D01*
X026012Y001631D01*
X025977Y001673D01*
X025945Y001717D01*
X025916Y001763D01*
X025924Y001768D01*
X025952Y001722D01*
X025984Y001678D01*
X026019Y001637D01*
X026057Y001598D01*
X026097Y001561D01*
X026139Y001528D01*
X026184Y001498D01*
X026231Y001470D01*
X026280Y001447D01*
X026330Y001426D01*
X026381Y001409D01*
X026434Y001396D01*
X026487Y001386D01*
X026541Y001380D01*
X026595Y001378D01*
X026595Y001387D01*
X026542Y001389D01*
X026488Y001395D01*
X026436Y001405D01*
X026384Y001418D01*
X026333Y001435D01*
X026283Y001455D01*
X026235Y001478D01*
X026189Y001505D01*
X026145Y001535D01*
X026103Y001568D01*
X026063Y001604D01*
X026026Y001643D01*
X025991Y001684D01*
X025960Y001727D01*
X025931Y001772D01*
X025939Y001777D01*
X025967Y001732D01*
X025998Y001689D01*
X026032Y001649D01*
X026069Y001611D01*
X026108Y001575D01*
X026150Y001543D01*
X026194Y001513D01*
X026240Y001486D01*
X026287Y001463D01*
X026336Y001443D01*
X026386Y001426D01*
X026438Y001413D01*
X026490Y001404D01*
X026542Y001398D01*
X026595Y001396D01*
X026595Y003004D02*
X026595Y002914D01*
X026595Y002915D02*
X026541Y002913D01*
X026488Y002907D01*
X026435Y002897D01*
X026383Y002883D01*
X026332Y002866D01*
X026283Y002845D01*
X026235Y002821D01*
X026189Y002793D01*
X026145Y002762D01*
X026103Y002728D01*
X026064Y002692D01*
X026027Y002652D01*
X025994Y002610D01*
X025963Y002566D01*
X025936Y002520D01*
X025857Y002562D01*
X025885Y002611D01*
X025917Y002657D01*
X025952Y002702D01*
X025989Y002744D01*
X026030Y002784D01*
X026073Y002820D01*
X026118Y002854D01*
X026165Y002885D01*
X026215Y002912D01*
X026266Y002936D01*
X026318Y002957D01*
X026372Y002974D01*
X026427Y002987D01*
X026482Y002997D01*
X026539Y003003D01*
X026595Y003005D01*
X026595Y002996D01*
X026539Y002994D01*
X026484Y002988D01*
X026429Y002978D01*
X026374Y002965D01*
X026321Y002948D01*
X026269Y002928D01*
X026219Y002904D01*
X026170Y002877D01*
X026123Y002847D01*
X026078Y002813D01*
X026036Y002777D01*
X025996Y002738D01*
X025959Y002696D01*
X025924Y002652D01*
X025893Y002606D01*
X025865Y002558D01*
X025873Y002554D01*
X025901Y002601D01*
X025932Y002647D01*
X025966Y002690D01*
X026002Y002732D01*
X026042Y002770D01*
X026084Y002806D01*
X026128Y002839D01*
X026174Y002869D01*
X026223Y002896D01*
X026273Y002919D01*
X026324Y002940D01*
X026377Y002956D01*
X026430Y002969D01*
X026485Y002979D01*
X026540Y002985D01*
X026595Y002987D01*
X026595Y002978D01*
X026540Y002976D01*
X026486Y002970D01*
X026432Y002961D01*
X026379Y002948D01*
X026327Y002931D01*
X026276Y002911D01*
X026227Y002888D01*
X026179Y002861D01*
X026133Y002832D01*
X026089Y002799D01*
X026048Y002764D01*
X026009Y002725D01*
X025972Y002685D01*
X025939Y002642D01*
X025908Y002596D01*
X025881Y002549D01*
X025889Y002545D01*
X025916Y002592D01*
X025946Y002636D01*
X025979Y002679D01*
X026015Y002719D01*
X026054Y002757D01*
X026095Y002792D01*
X026138Y002824D01*
X026184Y002854D01*
X026231Y002880D01*
X026280Y002903D01*
X026330Y002923D01*
X026382Y002939D01*
X026434Y002952D01*
X026487Y002961D01*
X026541Y002967D01*
X026595Y002969D01*
X026595Y002960D01*
X026542Y002958D01*
X026489Y002952D01*
X026436Y002943D01*
X026384Y002930D01*
X026333Y002914D01*
X026283Y002895D01*
X026235Y002872D01*
X026188Y002846D01*
X026144Y002817D01*
X026101Y002785D01*
X026060Y002750D01*
X026022Y002713D01*
X025986Y002673D01*
X025953Y002631D01*
X025923Y002587D01*
X025896Y002541D01*
X025904Y002537D01*
X025931Y002582D01*
X025961Y002626D01*
X025993Y002667D01*
X026028Y002707D01*
X026066Y002744D01*
X026106Y002778D01*
X026149Y002810D01*
X026193Y002838D01*
X026239Y002864D01*
X026287Y002886D01*
X026336Y002906D01*
X026386Y002922D01*
X026438Y002934D01*
X026490Y002943D01*
X026542Y002949D01*
X026595Y002951D01*
X026595Y002942D01*
X026539Y002940D01*
X026484Y002933D01*
X026429Y002923D01*
X026375Y002909D01*
X026323Y002891D01*
X026271Y002870D01*
X026222Y002844D01*
X026174Y002816D01*
X026128Y002784D01*
X026085Y002749D01*
X026045Y002711D01*
X026007Y002670D01*
X025972Y002626D01*
X025941Y002580D01*
X025912Y002532D01*
X025920Y002528D01*
X025948Y002576D01*
X025979Y002621D01*
X026014Y002664D01*
X026051Y002704D01*
X026091Y002742D01*
X026134Y002777D01*
X026179Y002808D01*
X026226Y002837D01*
X026275Y002861D01*
X026326Y002883D01*
X026378Y002900D01*
X026431Y002914D01*
X026485Y002924D01*
X026540Y002931D01*
X026595Y002933D01*
X026595Y002924D01*
X026541Y002922D01*
X026487Y002916D01*
X026433Y002906D01*
X026381Y002892D01*
X026329Y002874D01*
X026279Y002853D01*
X026230Y002829D01*
X026184Y002801D01*
X026139Y002769D01*
X026097Y002735D01*
X026058Y002698D01*
X026021Y002658D01*
X025987Y002616D01*
X025956Y002571D01*
X025928Y002524D01*
X027245Y002704D02*
X027176Y002647D01*
X027177Y002647D02*
X027140Y002687D01*
X027101Y002725D01*
X027059Y002759D01*
X027015Y002791D01*
X026969Y002819D01*
X026920Y002844D01*
X026870Y002865D01*
X026819Y002883D01*
X026766Y002896D01*
X026713Y002906D01*
X026659Y002913D01*
X026605Y002915D01*
X026604Y003004D01*
X026605Y003005D01*
X026661Y003003D01*
X026717Y002997D01*
X026772Y002987D01*
X026827Y002974D01*
X026880Y002957D01*
X026933Y002937D01*
X026984Y002913D01*
X027033Y002886D01*
X027080Y002855D01*
X027125Y002822D01*
X027168Y002786D01*
X027208Y002747D01*
X027246Y002705D01*
X027239Y002699D01*
X027202Y002740D01*
X027162Y002779D01*
X027120Y002815D01*
X027075Y002848D01*
X027028Y002878D01*
X026980Y002905D01*
X026929Y002928D01*
X026877Y002949D01*
X026824Y002965D01*
X026770Y002978D01*
X026716Y002988D01*
X026661Y002994D01*
X026605Y002996D01*
X026605Y002987D01*
X026660Y002985D01*
X026715Y002979D01*
X026769Y002970D01*
X026822Y002957D01*
X026874Y002940D01*
X026926Y002920D01*
X026975Y002897D01*
X027024Y002870D01*
X027070Y002841D01*
X027114Y002808D01*
X027156Y002772D01*
X027195Y002734D01*
X027232Y002693D01*
X027225Y002688D01*
X027189Y002728D01*
X027150Y002766D01*
X027108Y002801D01*
X027065Y002833D01*
X027019Y002863D01*
X026971Y002889D01*
X026922Y002912D01*
X026872Y002932D01*
X026820Y002948D01*
X026767Y002961D01*
X026713Y002970D01*
X026659Y002976D01*
X026605Y002978D01*
X026605Y002969D01*
X026659Y002967D01*
X026712Y002961D01*
X026765Y002952D01*
X026817Y002939D01*
X026869Y002923D01*
X026919Y002904D01*
X026967Y002881D01*
X027014Y002855D01*
X027060Y002826D01*
X027103Y002794D01*
X027144Y002759D01*
X027182Y002722D01*
X027218Y002682D01*
X027211Y002676D01*
X027176Y002715D01*
X027138Y002752D01*
X027097Y002787D01*
X027054Y002818D01*
X027010Y002847D01*
X026963Y002873D01*
X026915Y002895D01*
X026866Y002915D01*
X026815Y002931D01*
X026763Y002943D01*
X026711Y002952D01*
X026658Y002958D01*
X026605Y002960D01*
X026605Y002951D01*
X026657Y002949D01*
X026710Y002943D01*
X026761Y002934D01*
X026812Y002922D01*
X026863Y002906D01*
X026912Y002887D01*
X026959Y002865D01*
X027005Y002839D01*
X027049Y002811D01*
X027091Y002780D01*
X027132Y002746D01*
X027169Y002709D01*
X027204Y002670D01*
X027198Y002664D01*
X027163Y002703D01*
X027125Y002739D01*
X027086Y002773D01*
X027044Y002804D01*
X027000Y002832D01*
X026955Y002857D01*
X026908Y002879D01*
X026860Y002898D01*
X026810Y002913D01*
X026760Y002926D01*
X026708Y002934D01*
X026657Y002940D01*
X026605Y002942D01*
X026605Y002933D01*
X026656Y002931D01*
X026707Y002926D01*
X026758Y002917D01*
X026808Y002905D01*
X026857Y002889D01*
X026904Y002871D01*
X026951Y002849D01*
X026996Y002824D01*
X027039Y002796D01*
X027080Y002766D01*
X027119Y002733D01*
X027156Y002697D01*
X027191Y002659D01*
X027184Y002653D01*
X027147Y002694D01*
X027107Y002732D01*
X027065Y002766D01*
X027020Y002798D01*
X026973Y002827D01*
X026924Y002852D01*
X026873Y002873D01*
X026822Y002891D01*
X026768Y002905D01*
X026714Y002915D01*
X026660Y002922D01*
X026605Y002924D01*
X026604Y001316D02*
X026604Y001406D01*
X026605Y001405D02*
X026659Y001407D01*
X026712Y001413D01*
X026765Y001423D01*
X026817Y001437D01*
X026868Y001454D01*
X026918Y001475D01*
X026966Y001499D01*
X027012Y001527D01*
X027056Y001558D01*
X027097Y001592D01*
X027137Y001629D01*
X027173Y001668D01*
X027241Y001611D01*
X027242Y001610D01*
X027204Y001569D01*
X027164Y001531D01*
X027121Y001495D01*
X027076Y001462D01*
X027029Y001432D01*
X026981Y001406D01*
X026930Y001382D01*
X026878Y001362D01*
X026825Y001346D01*
X026771Y001332D01*
X026716Y001323D01*
X026661Y001317D01*
X026605Y001315D01*
X026605Y001324D01*
X026660Y001326D01*
X026715Y001332D01*
X026769Y001341D01*
X026823Y001354D01*
X026875Y001371D01*
X026927Y001390D01*
X026977Y001414D01*
X027025Y001440D01*
X027071Y001470D01*
X027116Y001502D01*
X027158Y001537D01*
X027198Y001576D01*
X027235Y001616D01*
X027228Y001622D01*
X027191Y001582D01*
X027152Y001544D01*
X027110Y001509D01*
X027066Y001477D01*
X027020Y001448D01*
X026972Y001422D01*
X026923Y001399D01*
X026872Y001379D01*
X026820Y001363D01*
X026767Y001350D01*
X026714Y001341D01*
X026659Y001335D01*
X026605Y001333D01*
X026605Y001342D01*
X026659Y001344D01*
X026712Y001350D01*
X026765Y001359D01*
X026818Y001372D01*
X026869Y001388D01*
X026920Y001407D01*
X026968Y001430D01*
X027016Y001455D01*
X027061Y001484D01*
X027105Y001516D01*
X027146Y001551D01*
X027185Y001588D01*
X027221Y001628D01*
X027214Y001634D01*
X027178Y001594D01*
X027140Y001557D01*
X027099Y001523D01*
X027056Y001492D01*
X027011Y001463D01*
X026964Y001438D01*
X026916Y001415D01*
X026866Y001396D01*
X026815Y001380D01*
X026764Y001368D01*
X026711Y001359D01*
X026658Y001353D01*
X026605Y001351D01*
X026605Y001360D01*
X026658Y001362D01*
X026710Y001368D01*
X026762Y001377D01*
X026813Y001389D01*
X026863Y001405D01*
X026913Y001424D01*
X026960Y001446D01*
X027007Y001471D01*
X027051Y001499D01*
X027093Y001530D01*
X027134Y001564D01*
X027172Y001601D01*
X027207Y001639D01*
X027201Y001645D01*
X027165Y001607D01*
X027128Y001571D01*
X027088Y001537D01*
X027046Y001507D01*
X027002Y001479D01*
X026956Y001454D01*
X026909Y001432D01*
X026860Y001413D01*
X026811Y001398D01*
X026760Y001385D01*
X026709Y001377D01*
X026657Y001371D01*
X026605Y001369D01*
X026605Y001378D01*
X026661Y001380D01*
X026716Y001387D01*
X026771Y001397D01*
X026825Y001411D01*
X026878Y001429D01*
X026929Y001451D01*
X026979Y001476D01*
X027027Y001505D01*
X027072Y001537D01*
X027115Y001572D01*
X027156Y001610D01*
X027194Y001651D01*
X027187Y001657D01*
X027150Y001616D01*
X027109Y001579D01*
X027067Y001544D01*
X027022Y001512D01*
X026974Y001484D01*
X026925Y001459D01*
X026874Y001437D01*
X026822Y001420D01*
X026769Y001406D01*
X026715Y001396D01*
X026660Y001389D01*
X026605Y001387D01*
X026605Y001396D01*
X026659Y001398D01*
X026713Y001404D01*
X026767Y001414D01*
X026820Y001428D01*
X026871Y001446D01*
X026921Y001467D01*
X026970Y001492D01*
X027017Y001520D01*
X027061Y001551D01*
X027103Y001585D01*
X027143Y001623D01*
X027180Y001663D01*
D16*
X027220Y001650D02*
X027220Y001830D01*
X027220Y002470D02*
X027220Y002670D01*
X014720Y005650D02*
X014720Y005830D01*
X014720Y006470D02*
X014720Y006670D01*
X014720Y012650D02*
X014720Y012830D01*
X014720Y013470D02*
X014720Y013670D01*
X014720Y019650D02*
X014720Y019830D01*
X014720Y020470D02*
X014720Y020670D01*
X014720Y026650D02*
X014720Y026830D01*
X014720Y027470D02*
X014720Y027670D01*
D17*
X012600Y027360D02*
X012600Y028960D01*
X011600Y028960D01*
X011600Y027360D01*
X012600Y027360D01*
X012350Y027760D02*
X012100Y028160D01*
X011850Y028160D01*
X012100Y028160D02*
X011850Y027760D01*
X012350Y027760D01*
X012100Y027560D02*
X012100Y028160D01*
X012350Y028160D01*
X012100Y028160D02*
X012100Y028410D01*
X013693Y030940D02*
X013920Y030940D01*
X013807Y030940D02*
X013807Y031280D01*
X013693Y031167D01*
X014062Y031280D02*
X014062Y030940D01*
X014062Y031053D02*
X014289Y031280D01*
X014118Y031110D02*
X014289Y030940D01*
X014289Y031940D02*
X014118Y032110D01*
X014062Y032053D02*
X014289Y032280D01*
X014062Y032280D02*
X014062Y031940D01*
X013920Y031997D02*
X013920Y032224D01*
X013693Y031997D01*
X013750Y031940D01*
X013864Y031940D01*
X013920Y031997D01*
X013920Y032224D02*
X013864Y032280D01*
X013750Y032280D01*
X013693Y032224D01*
X013693Y031997D01*
X013552Y031940D02*
X013325Y031940D01*
X013438Y031940D02*
X013438Y032280D01*
X013325Y032167D01*
X013438Y025280D02*
X013438Y024940D01*
X013325Y024940D02*
X013552Y024940D01*
X013693Y024997D02*
X013920Y025224D01*
X013920Y024997D01*
X013864Y024940D01*
X013750Y024940D01*
X013693Y024997D01*
X013693Y025224D01*
X013750Y025280D01*
X013864Y025280D01*
X013920Y025224D01*
X014062Y025280D02*
X014062Y024940D01*
X014062Y025053D02*
X014289Y025280D01*
X014118Y025110D02*
X014289Y024940D01*
X014289Y024280D02*
X014062Y024053D01*
X014118Y024110D02*
X014289Y023940D01*
X014062Y023940D02*
X014062Y024280D01*
X013807Y024280D02*
X013807Y023940D01*
X013920Y023940D02*
X013693Y023940D01*
X013693Y024167D02*
X013807Y024280D01*
X013325Y025167D02*
X013438Y025280D01*
X012600Y021960D02*
X011600Y021960D01*
X011600Y020360D01*
X012600Y020360D01*
X012600Y021960D01*
X012100Y021410D02*
X012100Y021160D01*
X011850Y021160D01*
X012100Y021160D02*
X011850Y020760D01*
X012350Y020760D01*
X012100Y021160D01*
X012350Y021160D01*
X012100Y021160D02*
X012100Y020560D01*
X013438Y018280D02*
X013438Y017940D01*
X013325Y017940D02*
X013552Y017940D01*
X013693Y017997D02*
X013920Y018224D01*
X013920Y017997D01*
X013864Y017940D01*
X013750Y017940D01*
X013693Y017997D01*
X013693Y018224D01*
X013750Y018280D01*
X013864Y018280D01*
X013920Y018224D01*
X014062Y018280D02*
X014062Y017940D01*
X014062Y018053D02*
X014289Y018280D01*
X014118Y018110D02*
X014289Y017940D01*
X014289Y017180D02*
X014062Y016953D01*
X014118Y017010D02*
X014289Y016840D01*
X014062Y016840D02*
X014062Y017180D01*
X013807Y017180D02*
X013807Y016840D01*
X013920Y016840D02*
X013693Y016840D01*
X013693Y017067D02*
X013807Y017180D01*
X013325Y018167D02*
X013438Y018280D01*
X012600Y014960D02*
X011600Y014960D01*
X011600Y013360D01*
X012600Y013360D01*
X012600Y014960D01*
X012100Y014410D02*
X012100Y014160D01*
X011850Y014160D01*
X012100Y014160D02*
X012350Y014160D01*
X012100Y014160D02*
X012350Y013760D01*
X011850Y013760D01*
X012100Y014160D01*
X012100Y013560D01*
X013438Y011280D02*
X013438Y010940D01*
X013325Y010940D02*
X013552Y010940D01*
X013693Y010997D02*
X013920Y011224D01*
X013920Y010997D01*
X013864Y010940D01*
X013750Y010940D01*
X013693Y010997D01*
X013693Y011224D01*
X013750Y011280D01*
X013864Y011280D01*
X013920Y011224D01*
X014062Y011280D02*
X014062Y010940D01*
X014062Y011053D02*
X014289Y011280D01*
X014118Y011110D02*
X014289Y010940D01*
X014289Y010280D02*
X014062Y010053D01*
X014118Y010110D02*
X014289Y009940D01*
X014062Y009940D02*
X014062Y010280D01*
X013807Y010280D02*
X013807Y009940D01*
X013920Y009940D02*
X013693Y009940D01*
X013693Y010167D02*
X013807Y010280D01*
X013325Y011167D02*
X013438Y011280D01*
X012600Y007960D02*
X011600Y007960D01*
X011600Y006360D01*
X012600Y006360D01*
X012600Y007960D01*
X012100Y007410D02*
X012100Y007160D01*
X011850Y007160D01*
X012100Y007160D02*
X011850Y006760D01*
X012350Y006760D01*
X012100Y007160D01*
X012350Y007160D01*
X012100Y007160D02*
X012100Y006560D01*
X026830Y003867D02*
X026943Y003980D01*
X026943Y003640D01*
X026830Y003640D02*
X027057Y003640D01*
X027198Y003640D02*
X027198Y003980D01*
X027255Y003810D02*
X027425Y003640D01*
X027198Y003753D02*
X027425Y003980D01*
X020789Y025940D02*
X020618Y026110D01*
X020562Y026053D02*
X020789Y026280D01*
X020562Y026280D02*
X020562Y025940D01*
X020420Y025940D02*
X020193Y025940D01*
X020307Y025940D02*
X020307Y026280D01*
X020193Y026167D01*
X020193Y026940D02*
X020420Y026940D01*
X020307Y026940D02*
X020307Y027280D01*
X020193Y027167D01*
X020562Y027280D02*
X020562Y026940D01*
X020562Y027053D02*
X020789Y027280D01*
X020618Y027110D02*
X020789Y026940D01*
X020789Y027940D02*
X020618Y028110D01*
X020562Y028053D02*
X020789Y028280D01*
X020562Y028280D02*
X020562Y027940D01*
X020420Y027940D02*
X020193Y027940D01*
X020307Y027940D02*
X020307Y028280D01*
X020193Y028167D01*
X020193Y028940D02*
X020420Y028940D01*
X020307Y028940D02*
X020307Y029280D01*
X020193Y029167D01*
X020562Y029280D02*
X020562Y028940D01*
X020562Y029053D02*
X020789Y029280D01*
X020618Y029110D02*
X020789Y028940D01*
D18*
X023100Y029660D02*
X024100Y030660D01*
X030100Y030660D01*
X031100Y029660D01*
X031100Y017660D02*
X031100Y016660D01*
X028600Y016660D01*
X028600Y017660D01*
X025600Y017660D01*
X025600Y016660D01*
X023100Y016660D01*
X023100Y017660D01*
X025600Y016660D02*
X025600Y016160D01*
X028600Y016160D01*
X028600Y016660D01*
D19*
X012100Y014710D03*
X012100Y007710D03*
X012100Y021710D03*
X012100Y028710D03*
D20*
X012100Y029335D03*
X012100Y026985D03*
X012100Y022335D03*
X012100Y019985D03*
X012100Y015335D03*
X012100Y012985D03*
X012100Y008335D03*
X012100Y005985D03*
D21*
X010100Y001810D03*
D22*
X008375Y002060D03*
X011825Y002060D03*
D23*
X010600Y002060D03*
X009600Y002060D03*
M02*
