G75*
%MOIN*%
%OFA0B0*%
%FSLAX24Y24*%
%IPPOS*%
%LPD*%
%AMOC8*
5,1,8,0,0,1.08239X$1,22.5*
%
%ADD10C,0.0110*%
%ADD11C,0.0160*%
%ADD12C,0.0070*%
%ADD13C,0.0060*%
%ADD14C,0.0050*%
%ADD15C,0.0080*%
%ADD16R,0.0300X0.0180*%
%ADD17R,0.0180X0.0300*%
%ADD18C,0.0120*%
%ADD19C,0.0220*%
%ADD20C,0.0040*%
D10*
X022538Y008932D02*
X023128Y008932D01*
X022833Y009227D01*
X022833Y008833D01*
X023030Y010122D02*
X023128Y010122D01*
X023030Y010122D02*
X022833Y010319D01*
X022538Y010319D01*
X022833Y010319D02*
X023030Y010516D01*
X023128Y010516D01*
X022932Y010767D02*
X023128Y010964D01*
X022932Y011161D01*
X022538Y011161D01*
X022538Y011411D02*
X022538Y011805D01*
X023128Y011805D01*
X023128Y012056D02*
X023128Y012450D01*
X022538Y012450D01*
X022538Y012056D01*
X022833Y012253D02*
X022833Y012450D01*
X022833Y012701D02*
X022735Y012799D01*
X022735Y013094D01*
X022735Y012897D02*
X022538Y012701D01*
X022833Y012701D02*
X023030Y012701D01*
X023128Y012799D01*
X023128Y013094D01*
X022538Y013094D01*
X022833Y011161D02*
X022833Y010767D01*
X022932Y010767D02*
X022538Y010767D01*
X022636Y015833D02*
X022538Y015932D01*
X022538Y016129D01*
X022636Y016227D01*
X022833Y016030D02*
X022833Y015932D01*
X022735Y015833D01*
X022636Y015833D01*
X022833Y015932D02*
X022932Y015833D01*
X023030Y015833D01*
X023128Y015932D01*
X023128Y016129D01*
X023030Y016227D01*
X023030Y017122D02*
X023128Y017122D01*
X023030Y017122D02*
X022833Y017319D01*
X022538Y017319D01*
X022833Y017319D02*
X023030Y017516D01*
X023128Y017516D01*
X022932Y017767D02*
X022538Y017767D01*
X022833Y017767D02*
X022833Y018161D01*
X022932Y018161D02*
X023128Y017964D01*
X022932Y017767D01*
X022932Y018161D02*
X022538Y018161D01*
X022538Y018411D02*
X022538Y018805D01*
X023128Y018805D01*
X023128Y019056D02*
X023128Y019450D01*
X022538Y019450D01*
X022538Y019056D01*
X022833Y019253D02*
X022833Y019450D01*
X022833Y019701D02*
X022735Y019799D01*
X022735Y020094D01*
X022735Y019897D02*
X022538Y019701D01*
X022833Y019701D02*
X023030Y019701D01*
X023128Y019799D01*
X023128Y020094D01*
X022538Y020094D01*
X022538Y022833D02*
X022538Y023227D01*
X022932Y022833D01*
X023030Y022833D01*
X023128Y022932D01*
X023128Y023129D01*
X023030Y023227D01*
X023030Y024122D02*
X023128Y024122D01*
X023030Y024122D02*
X022833Y024319D01*
X022538Y024319D01*
X022833Y024319D02*
X023030Y024516D01*
X023128Y024516D01*
X022932Y024767D02*
X022538Y024767D01*
X022833Y024767D02*
X022833Y025161D01*
X022932Y025161D02*
X023128Y024964D01*
X022932Y024767D01*
X022932Y025161D02*
X022538Y025161D01*
X022538Y025411D02*
X022538Y025805D01*
X023128Y025805D01*
X023128Y026056D02*
X023128Y026450D01*
X022538Y026450D01*
X022538Y026056D01*
X022833Y026253D02*
X022833Y026450D01*
X022833Y026701D02*
X022735Y026799D01*
X022735Y027094D01*
X022735Y026897D02*
X022538Y026701D01*
X022833Y026701D02*
X023030Y026701D01*
X023128Y026799D01*
X023128Y027094D01*
X022538Y027094D01*
X022538Y029833D02*
X022538Y030227D01*
X022538Y030030D02*
X023128Y030030D01*
X022932Y030227D01*
X023030Y031122D02*
X023128Y031122D01*
X023030Y031122D02*
X022833Y031319D01*
X022538Y031319D01*
X022833Y031319D02*
X023030Y031516D01*
X023128Y031516D01*
X022932Y031767D02*
X022538Y031767D01*
X022833Y031767D02*
X022833Y032161D01*
X022932Y032161D02*
X023128Y031964D01*
X022932Y031767D01*
X022932Y032161D02*
X022538Y032161D01*
X022538Y032411D02*
X022538Y032805D01*
X023128Y032805D01*
X023128Y033056D02*
X023128Y033450D01*
X022538Y033450D01*
X022538Y033056D01*
X022833Y033253D02*
X022833Y033450D01*
X022833Y033701D02*
X022735Y033799D01*
X022735Y034094D01*
X022735Y033897D02*
X022538Y033701D01*
X022833Y033701D02*
X023030Y033701D01*
X023128Y033799D01*
X023128Y034094D01*
X022538Y034094D01*
X036921Y009789D02*
X037216Y009789D01*
X037315Y009690D01*
X037315Y009494D01*
X037216Y009395D01*
X036921Y009395D01*
X036921Y009198D02*
X036921Y009789D01*
X037566Y009789D02*
X037566Y009198D01*
X037762Y009395D01*
X037959Y009198D01*
X037959Y009789D01*
X038210Y009789D02*
X038210Y009198D01*
X038210Y009395D02*
X038505Y009395D01*
X038604Y009494D01*
X038604Y009690D01*
X038505Y009789D01*
X038210Y009789D01*
X038407Y009395D02*
X038604Y009198D01*
D11*
X022833Y008393D02*
X022833Y007893D01*
X021833Y007893D01*
X022833Y013393D02*
X022833Y013893D01*
X021833Y013893D01*
X021833Y014893D02*
X022833Y014893D01*
X022833Y015393D01*
X022833Y020393D02*
X022833Y020893D01*
X021833Y020893D01*
X021833Y021893D02*
X022833Y021893D01*
X022833Y022393D01*
X022833Y027393D02*
X022833Y027893D01*
X021833Y027893D01*
X021833Y028893D02*
X022833Y028893D01*
X022833Y029393D01*
X022833Y034393D02*
X022833Y034893D01*
X021833Y034893D01*
D12*
X024531Y010459D02*
X024751Y010459D01*
X024751Y010404D01*
X024531Y010183D01*
X024531Y010128D01*
X024899Y010238D02*
X024899Y010459D01*
X025119Y010459D02*
X025119Y010238D01*
X025009Y010128D01*
X024899Y010238D01*
X025267Y010293D02*
X025487Y010293D01*
X025635Y010348D02*
X025746Y010459D01*
X025746Y010128D01*
X025856Y010128D02*
X025635Y010128D01*
X026004Y010128D02*
X026224Y010348D01*
X026224Y010404D01*
X026169Y010459D01*
X026059Y010459D01*
X026004Y010404D01*
X026004Y010128D02*
X026224Y010128D01*
X026372Y010238D02*
X026482Y010128D01*
X026592Y010238D01*
X026592Y010459D01*
X026372Y010459D02*
X026372Y010238D01*
X027109Y010128D02*
X027274Y010128D01*
X027329Y010183D01*
X027329Y010404D01*
X027274Y010459D01*
X027109Y010459D01*
X027109Y010128D01*
X027477Y010183D02*
X027532Y010128D01*
X027642Y010128D01*
X027697Y010183D01*
X027477Y010183D02*
X027477Y010404D01*
X027532Y010459D01*
X027642Y010459D01*
X027697Y010404D01*
D13*
X023250Y005304D02*
X022823Y005304D01*
X022230Y005304D02*
X021803Y005304D01*
X022016Y005517D02*
X022016Y005090D01*
X021593Y008833D02*
X020473Y008833D01*
X020473Y009353D01*
X021593Y009353D01*
X021593Y008833D01*
X021593Y015833D02*
X020473Y015833D01*
X020473Y016353D01*
X021593Y016353D01*
X021593Y015833D01*
X021493Y022833D02*
X020373Y022833D01*
X020373Y023353D01*
X021493Y023353D01*
X021493Y022833D01*
X021493Y029833D02*
X020373Y029833D01*
X020373Y030353D01*
X021493Y030353D01*
X021493Y029833D01*
D14*
X016977Y028744D02*
X016977Y035043D01*
X008315Y035043D01*
X008315Y028744D01*
X016977Y028744D01*
X016977Y028043D02*
X008315Y028043D01*
X008315Y021744D01*
X016977Y021744D01*
X016977Y028043D01*
X016977Y021043D02*
X008315Y021043D01*
X008315Y014744D01*
X016977Y014744D01*
X016977Y021043D01*
X016977Y014043D02*
X008315Y014043D01*
X008315Y007744D01*
X016977Y007744D01*
X016977Y014043D01*
X028503Y009485D02*
X028503Y006491D01*
X029682Y006491D01*
X029659Y006491D01*
X029682Y006491D02*
X029763Y006491D01*
X029763Y009485D01*
X028682Y009485D01*
X028503Y009485D01*
X028584Y009485D02*
X028682Y009485D01*
X028958Y008268D02*
X029308Y008268D01*
X029308Y008118D02*
X029133Y008268D01*
X028958Y008118D01*
X029308Y008118D01*
X030703Y010202D02*
X030703Y013196D01*
X030784Y013196D01*
X031963Y013196D01*
X031963Y010202D01*
X031784Y010202D01*
X030703Y010202D01*
X031784Y010202D02*
X031882Y010202D01*
X031508Y011418D02*
X031158Y011418D01*
X031158Y011568D02*
X031333Y011418D01*
X031508Y011568D01*
X031158Y011568D01*
X030807Y013196D02*
X030784Y013196D01*
D15*
X004534Y014114D02*
X004534Y007736D01*
X004927Y007736D01*
X004927Y014114D01*
X007486Y014114D01*
X007486Y007736D01*
X004927Y007736D01*
X004927Y014114D02*
X004534Y014114D01*
X004534Y014736D02*
X004534Y021114D01*
X004927Y021114D01*
X004927Y014736D01*
X004534Y014736D01*
X004927Y014736D02*
X007486Y014736D01*
X007486Y021114D01*
X004927Y021114D01*
X004927Y021736D02*
X004534Y021736D01*
X004534Y028114D01*
X004927Y028114D01*
X004927Y021736D01*
X007486Y021736D01*
X007486Y028114D01*
X004927Y028114D01*
X004927Y028736D02*
X004534Y028736D01*
X004534Y035114D01*
X004927Y035114D01*
X004927Y028736D01*
X007486Y028736D01*
X007486Y035114D01*
X004927Y035114D01*
X020878Y033279D02*
X020994Y033203D01*
X021000Y033193D02*
X020878Y033101D01*
X021000Y033012D02*
X021000Y033193D01*
X021000Y033374D01*
X021000Y026374D02*
X021000Y026193D01*
X020878Y026101D01*
X021000Y026012D02*
X021000Y026193D01*
X020994Y026203D02*
X020878Y026279D01*
X021100Y019374D02*
X021100Y019193D01*
X020978Y019101D01*
X021100Y019012D02*
X021100Y019193D01*
X021094Y019203D02*
X020978Y019279D01*
X021100Y012374D02*
X021100Y012193D01*
X020978Y012101D01*
X021100Y012012D02*
X021100Y012193D01*
X021094Y012203D02*
X020978Y012279D01*
X024160Y009487D02*
X024672Y009487D01*
X024160Y009487D02*
X024160Y005314D01*
X027901Y005314D01*
X027901Y007558D01*
X027901Y009172D02*
X027901Y009487D01*
X026523Y009487D01*
X027901Y005314D02*
X027912Y005314D01*
X031171Y005231D02*
X035895Y005231D01*
X035895Y006215D01*
X035895Y008971D02*
X035895Y009956D01*
X031171Y009956D01*
X031171Y008971D01*
X031171Y006215D02*
X031171Y005231D01*
X037878Y010501D02*
X038000Y010593D01*
X038000Y010774D01*
X037878Y010679D02*
X037994Y010603D01*
X038000Y010593D02*
X038000Y010412D01*
X036333Y021393D02*
X035333Y021393D01*
X035333Y033393D01*
X036333Y033393D01*
X036333Y021393D01*
X029333Y021393D02*
X029333Y033393D01*
X028333Y033393D01*
X028333Y021393D01*
X029333Y021393D01*
D16*
X019533Y018793D03*
X019533Y025793D03*
X019533Y032793D03*
X019533Y011793D03*
D17*
X021033Y011593D03*
X021033Y010393D03*
X021033Y017393D03*
X021033Y018593D03*
X020933Y024393D03*
X020933Y025593D03*
X020933Y031393D03*
X020933Y032593D03*
X037233Y011093D03*
D18*
X034879Y010852D02*
X034881Y010866D01*
X034887Y010880D01*
X034895Y010892D01*
X034907Y010900D01*
X034921Y010906D01*
X034935Y010908D01*
X034949Y010906D01*
X034963Y010900D01*
X034975Y010892D01*
X034983Y010880D01*
X034989Y010866D01*
X034991Y010852D01*
X034989Y010838D01*
X034983Y010824D01*
X034975Y010812D01*
X034963Y010804D01*
X034949Y010798D01*
X034935Y010796D01*
X034921Y010798D01*
X034907Y010804D01*
X034895Y010812D01*
X034887Y010824D01*
X034881Y010838D01*
X034879Y010852D01*
X033833Y019893D02*
X030833Y019893D01*
X030833Y020393D01*
X030833Y021393D01*
X033833Y021393D01*
X033833Y020393D01*
X036333Y020393D01*
X036333Y021393D01*
X033833Y020393D02*
X033833Y019893D01*
X030833Y020393D02*
X028333Y020393D01*
X028333Y021393D01*
X028333Y033393D02*
X029333Y034393D01*
X035333Y034393D01*
X036333Y033393D01*
D19*
X035745Y012193D02*
X035721Y012193D01*
X033833Y010505D02*
X033833Y010481D01*
X030145Y012193D02*
X030121Y012193D01*
D20*
X029612Y011483D02*
X028943Y010814D01*
X028707Y010814D01*
X027959Y010814D02*
X027723Y010814D01*
X027053Y011483D01*
X027053Y013373D01*
X027959Y013373D01*
X028707Y013373D02*
X029612Y013373D01*
X029612Y011483D01*
X027959Y010932D02*
X027895Y010954D01*
X027832Y010981D01*
X027770Y011011D01*
X027711Y011044D01*
X027653Y011080D01*
X027597Y011120D01*
X027544Y011163D01*
X027493Y011208D01*
X027445Y011256D01*
X027400Y011307D01*
X027357Y011361D01*
X027318Y011417D01*
X027281Y011474D01*
X027248Y011534D01*
X027219Y011596D01*
X027193Y011659D01*
X027170Y011723D01*
X027151Y011789D01*
X027136Y011856D01*
X027125Y011923D01*
X027117Y011991D01*
X027113Y012059D01*
X027113Y012127D01*
X027117Y012195D01*
X027125Y012263D01*
X027136Y012330D01*
X027151Y012397D01*
X027170Y012463D01*
X027193Y012527D01*
X027219Y012590D01*
X027248Y012652D01*
X027281Y012712D01*
X027318Y012769D01*
X027357Y012825D01*
X027400Y012879D01*
X027445Y012930D01*
X027493Y012978D01*
X027544Y013023D01*
X027597Y013066D01*
X027653Y013106D01*
X027711Y013142D01*
X027770Y013175D01*
X027832Y013205D01*
X027895Y013232D01*
X027959Y013254D01*
X028707Y013254D02*
X028771Y013232D01*
X028834Y013205D01*
X028896Y013175D01*
X028955Y013142D01*
X029013Y013106D01*
X029069Y013066D01*
X029122Y013023D01*
X029173Y012978D01*
X029221Y012930D01*
X029266Y012879D01*
X029309Y012825D01*
X029348Y012769D01*
X029385Y012712D01*
X029418Y012652D01*
X029447Y012590D01*
X029473Y012527D01*
X029496Y012463D01*
X029515Y012397D01*
X029530Y012330D01*
X029541Y012263D01*
X029549Y012195D01*
X029553Y012127D01*
X029553Y012059D01*
X029549Y011991D01*
X029541Y011923D01*
X029530Y011856D01*
X029515Y011789D01*
X029496Y011723D01*
X029473Y011659D01*
X029447Y011596D01*
X029418Y011534D01*
X029385Y011474D01*
X029348Y011417D01*
X029309Y011361D01*
X029266Y011307D01*
X029221Y011256D01*
X029173Y011208D01*
X029122Y011163D01*
X029069Y011120D01*
X029013Y011080D01*
X028955Y011044D01*
X028896Y011011D01*
X028834Y010981D01*
X028771Y010954D01*
X028707Y010932D01*
X032653Y013314D02*
X032653Y014219D01*
X032653Y014967D02*
X032653Y015873D01*
X034543Y015873D01*
X035212Y015204D01*
X035212Y014967D01*
X035212Y014219D02*
X035212Y013983D01*
X034543Y013314D01*
X032653Y013314D01*
X032772Y014967D02*
X032794Y015031D01*
X032821Y015094D01*
X032851Y015156D01*
X032884Y015215D01*
X032920Y015273D01*
X032960Y015329D01*
X033003Y015382D01*
X033048Y015433D01*
X033096Y015481D01*
X033147Y015526D01*
X033201Y015569D01*
X033257Y015608D01*
X033314Y015645D01*
X033374Y015678D01*
X033436Y015707D01*
X033499Y015733D01*
X033563Y015756D01*
X033629Y015775D01*
X033696Y015790D01*
X033763Y015801D01*
X033831Y015809D01*
X033899Y015813D01*
X033967Y015813D01*
X034035Y015809D01*
X034103Y015801D01*
X034170Y015790D01*
X034237Y015775D01*
X034303Y015756D01*
X034367Y015733D01*
X034430Y015707D01*
X034492Y015678D01*
X034552Y015645D01*
X034609Y015608D01*
X034665Y015569D01*
X034719Y015526D01*
X034770Y015481D01*
X034818Y015433D01*
X034863Y015382D01*
X034906Y015329D01*
X034946Y015273D01*
X034982Y015215D01*
X035015Y015156D01*
X035045Y015094D01*
X035072Y015031D01*
X035094Y014967D01*
X035094Y014219D02*
X035072Y014155D01*
X035045Y014092D01*
X035015Y014030D01*
X034982Y013971D01*
X034946Y013913D01*
X034906Y013857D01*
X034863Y013804D01*
X034818Y013753D01*
X034770Y013705D01*
X034719Y013660D01*
X034665Y013617D01*
X034609Y013578D01*
X034552Y013541D01*
X034492Y013508D01*
X034430Y013479D01*
X034367Y013453D01*
X034303Y013430D01*
X034237Y013411D01*
X034170Y013396D01*
X034103Y013385D01*
X034035Y013377D01*
X033967Y013373D01*
X033899Y013373D01*
X033831Y013377D01*
X033763Y013385D01*
X033696Y013396D01*
X033629Y013411D01*
X033563Y013430D01*
X033499Y013453D01*
X033436Y013479D01*
X033374Y013508D01*
X033314Y013541D01*
X033257Y013578D01*
X033201Y013617D01*
X033147Y013660D01*
X033096Y013705D01*
X033048Y013753D01*
X033003Y013804D01*
X032960Y013857D01*
X032920Y013913D01*
X032884Y013971D01*
X032851Y014030D01*
X032821Y014092D01*
X032794Y014155D01*
X032772Y014219D01*
M02*
