G75*
G70*
%OFA0B0*%
%FSLAX24Y24*%
%IPPOS*%
%LPD*%
%AMOC8*
5,1,8,0,0,1.08239X$1,22.5*
%
%ADD10C,0.1340*%
%ADD11C,0.0010*%
%ADD12C,0.0753*%
%ADD13R,0.1030X0.1030*%
%ADD14C,0.1030*%
%ADD15R,0.0395X0.0395*%
%ADD16R,0.0474X0.0513*%
%ADD17R,0.0513X0.0474*%
%ADD18C,0.0820*%
%ADD19C,0.0820*%
%ADD20C,0.0867*%
%ADD21R,0.0474X0.0631*%
%ADD22R,0.0631X0.0631*%
%ADD23R,0.1261X0.0631*%
%ADD24R,0.1080X0.1080*%
%ADD25R,0.0316X0.0946*%
%ADD26R,0.1182X0.1261*%
D10*
X005831Y006413D03*
X005831Y036413D03*
X037831Y036413D03*
X037831Y006413D03*
D11*
X032331Y026533D02*
X032431Y026973D01*
X032331Y027043D01*
X032231Y026973D01*
X032331Y026533D01*
X032330Y026538D02*
X032332Y026538D01*
X032328Y026546D02*
X032334Y026546D01*
X032336Y026555D02*
X032326Y026555D01*
X032324Y026563D02*
X032338Y026563D01*
X032340Y026572D02*
X032322Y026572D01*
X032320Y026580D02*
X032342Y026580D01*
X032344Y026589D02*
X032318Y026589D01*
X032316Y026597D02*
X032346Y026597D01*
X032347Y026606D02*
X032314Y026606D01*
X032313Y026614D02*
X032349Y026614D01*
X032351Y026623D02*
X032311Y026623D01*
X032309Y026631D02*
X032353Y026631D01*
X032355Y026640D02*
X032307Y026640D01*
X032305Y026648D02*
X032357Y026648D01*
X032359Y026657D02*
X032303Y026657D01*
X032301Y026665D02*
X032361Y026665D01*
X032363Y026674D02*
X032299Y026674D01*
X032297Y026682D02*
X032365Y026682D01*
X032367Y026691D02*
X032295Y026691D01*
X032293Y026699D02*
X032369Y026699D01*
X032371Y026708D02*
X032291Y026708D01*
X032289Y026716D02*
X032373Y026716D01*
X032375Y026725D02*
X032287Y026725D01*
X032285Y026733D02*
X032376Y026733D01*
X032378Y026742D02*
X032284Y026742D01*
X032282Y026750D02*
X032380Y026750D01*
X032382Y026759D02*
X032280Y026759D01*
X032278Y026767D02*
X032384Y026767D01*
X032386Y026776D02*
X032276Y026776D01*
X032274Y026784D02*
X032388Y026784D01*
X032390Y026793D02*
X032272Y026793D01*
X032270Y026801D02*
X032392Y026801D01*
X032394Y026810D02*
X032268Y026810D01*
X032266Y026818D02*
X032396Y026818D01*
X032398Y026827D02*
X032264Y026827D01*
X032262Y026835D02*
X032400Y026835D01*
X032402Y026844D02*
X032260Y026844D01*
X032258Y026852D02*
X032404Y026852D01*
X032405Y026861D02*
X032257Y026861D01*
X032255Y026869D02*
X032407Y026869D01*
X032409Y026878D02*
X032253Y026878D01*
X032251Y026886D02*
X032411Y026886D01*
X032413Y026895D02*
X032249Y026895D01*
X032247Y026903D02*
X032415Y026903D01*
X032417Y026912D02*
X032245Y026912D01*
X032243Y026920D02*
X032419Y026920D01*
X032421Y026929D02*
X032241Y026929D01*
X032239Y026937D02*
X032423Y026937D01*
X032425Y026946D02*
X032237Y026946D01*
X032235Y026954D02*
X032427Y026954D01*
X032429Y026963D02*
X032233Y026963D01*
X032231Y026971D02*
X032431Y026971D01*
X032421Y026980D02*
X032240Y026980D01*
X032253Y026988D02*
X032409Y026988D01*
X032397Y026997D02*
X032265Y026997D01*
X032277Y027005D02*
X032385Y027005D01*
X032373Y027014D02*
X032289Y027014D01*
X032301Y027022D02*
X032361Y027022D01*
X032349Y027031D02*
X032313Y027031D01*
X032325Y027039D02*
X032336Y027039D01*
X032409Y027141D02*
X032724Y027141D01*
X032729Y027133D02*
X032422Y027133D01*
X032435Y027124D02*
X032734Y027124D01*
X032740Y027116D02*
X032448Y027116D01*
X032461Y027107D02*
X032745Y027107D01*
X032751Y027099D02*
X032474Y027099D01*
X032487Y027090D02*
X032756Y027090D01*
X032761Y027082D02*
X032499Y027082D01*
X032512Y027073D02*
X032767Y027073D01*
X032772Y027065D02*
X032525Y027065D01*
X032538Y027056D02*
X032778Y027056D01*
X032783Y027048D02*
X032551Y027048D01*
X032564Y027039D02*
X032788Y027039D01*
X032794Y027031D02*
X032576Y027031D01*
X032589Y027022D02*
X032799Y027022D01*
X032805Y027014D02*
X032602Y027014D01*
X032615Y027005D02*
X032810Y027005D01*
X032815Y026997D02*
X032628Y026997D01*
X032641Y026988D02*
X032821Y026988D01*
X032826Y026980D02*
X032654Y026980D01*
X032666Y026971D02*
X032832Y026971D01*
X032837Y026963D02*
X032679Y026963D01*
X032692Y026954D02*
X032842Y026954D01*
X032848Y026946D02*
X032705Y026946D01*
X032718Y026937D02*
X032853Y026937D01*
X032859Y026929D02*
X032731Y026929D01*
X032744Y026920D02*
X032864Y026920D01*
X032869Y026912D02*
X032756Y026912D01*
X032769Y026903D02*
X032875Y026903D01*
X032880Y026895D02*
X032782Y026895D01*
X032795Y026886D02*
X032885Y026886D01*
X032891Y026878D02*
X032808Y026878D01*
X032821Y026869D02*
X032896Y026869D01*
X032902Y026861D02*
X032834Y026861D01*
X032846Y026852D02*
X032907Y026852D01*
X032912Y026844D02*
X032859Y026844D01*
X032872Y026835D02*
X032918Y026835D01*
X032923Y026827D02*
X032885Y026827D01*
X032898Y026818D02*
X032929Y026818D01*
X032934Y026810D02*
X032911Y026810D01*
X032924Y026801D02*
X032939Y026801D01*
X032936Y026793D02*
X032945Y026793D01*
X032949Y026784D02*
X032950Y026784D01*
X032951Y026783D02*
X032551Y027413D01*
X032931Y028023D01*
X032331Y027633D01*
X031721Y028013D01*
X032101Y027413D01*
X031721Y026793D01*
X032331Y027193D01*
X032951Y026783D01*
X032718Y027150D02*
X032397Y027150D01*
X032384Y027158D02*
X032713Y027158D01*
X032707Y027167D02*
X032371Y027167D01*
X032358Y027175D02*
X032702Y027175D01*
X032697Y027184D02*
X032345Y027184D01*
X032332Y027192D02*
X032691Y027192D01*
X032686Y027201D02*
X031971Y027201D01*
X031976Y027209D02*
X032680Y027209D01*
X032675Y027218D02*
X031981Y027218D01*
X031986Y027226D02*
X032670Y027226D01*
X032664Y027235D02*
X031992Y027235D01*
X031997Y027243D02*
X032659Y027243D01*
X032653Y027252D02*
X032002Y027252D01*
X032007Y027260D02*
X032648Y027260D01*
X032643Y027269D02*
X032012Y027269D01*
X032018Y027277D02*
X032637Y027277D01*
X032632Y027286D02*
X032023Y027286D01*
X032028Y027294D02*
X032626Y027294D01*
X032621Y027303D02*
X032033Y027303D01*
X032039Y027311D02*
X032616Y027311D01*
X032610Y027320D02*
X032044Y027320D01*
X032049Y027328D02*
X032605Y027328D01*
X032599Y027337D02*
X032054Y027337D01*
X032059Y027345D02*
X032594Y027345D01*
X032589Y027354D02*
X032065Y027354D01*
X032070Y027362D02*
X032583Y027362D01*
X032578Y027371D02*
X032075Y027371D01*
X032080Y027379D02*
X032572Y027379D01*
X032567Y027388D02*
X032085Y027388D01*
X032091Y027396D02*
X032562Y027396D01*
X032556Y027405D02*
X032096Y027405D01*
X032101Y027413D02*
X032551Y027413D01*
X032556Y027422D02*
X032095Y027422D01*
X032090Y027430D02*
X032562Y027430D01*
X032567Y027439D02*
X032085Y027439D01*
X032079Y027447D02*
X032572Y027447D01*
X032578Y027456D02*
X032074Y027456D01*
X032069Y027464D02*
X032583Y027464D01*
X032588Y027473D02*
X032063Y027473D01*
X032058Y027481D02*
X032593Y027481D01*
X032599Y027490D02*
X032052Y027490D01*
X032047Y027498D02*
X032604Y027498D01*
X032609Y027507D02*
X032042Y027507D01*
X032036Y027515D02*
X032615Y027515D01*
X032620Y027524D02*
X032031Y027524D01*
X032026Y027532D02*
X032625Y027532D01*
X032630Y027541D02*
X032020Y027541D01*
X032015Y027549D02*
X032636Y027549D01*
X032641Y027558D02*
X032009Y027558D01*
X032004Y027566D02*
X032646Y027566D01*
X032652Y027575D02*
X031999Y027575D01*
X031993Y027583D02*
X032657Y027583D01*
X032662Y027592D02*
X031988Y027592D01*
X031982Y027600D02*
X032668Y027600D01*
X032673Y027609D02*
X031977Y027609D01*
X031972Y027617D02*
X032678Y027617D01*
X032683Y027626D02*
X031966Y027626D01*
X031961Y027634D02*
X032329Y027634D01*
X032333Y027634D02*
X032689Y027634D01*
X032694Y027643D02*
X032346Y027643D01*
X032359Y027651D02*
X032699Y027651D01*
X032705Y027660D02*
X032372Y027660D01*
X032385Y027668D02*
X032710Y027668D01*
X032715Y027677D02*
X032398Y027677D01*
X032411Y027685D02*
X032721Y027685D01*
X032726Y027694D02*
X032424Y027694D01*
X032437Y027702D02*
X032731Y027702D01*
X032736Y027711D02*
X032450Y027711D01*
X032464Y027719D02*
X032742Y027719D01*
X032747Y027728D02*
X032477Y027728D01*
X032490Y027736D02*
X032752Y027736D01*
X032758Y027745D02*
X032503Y027745D01*
X032516Y027753D02*
X032763Y027753D01*
X032768Y027762D02*
X032529Y027762D01*
X032542Y027770D02*
X032773Y027770D01*
X032779Y027779D02*
X032555Y027779D01*
X032568Y027787D02*
X032784Y027787D01*
X032789Y027796D02*
X032581Y027796D01*
X032594Y027804D02*
X032795Y027804D01*
X032800Y027813D02*
X032607Y027813D01*
X032620Y027821D02*
X032805Y027821D01*
X032811Y027830D02*
X032634Y027830D01*
X032647Y027838D02*
X032816Y027838D01*
X032821Y027847D02*
X032660Y027847D01*
X032673Y027855D02*
X032826Y027855D01*
X032832Y027864D02*
X032686Y027864D01*
X032699Y027872D02*
X032837Y027872D01*
X032842Y027881D02*
X032712Y027881D01*
X032725Y027889D02*
X032848Y027889D01*
X032853Y027898D02*
X032738Y027898D01*
X032751Y027906D02*
X032858Y027906D01*
X032863Y027915D02*
X032764Y027915D01*
X032777Y027923D02*
X032869Y027923D01*
X032874Y027932D02*
X032790Y027932D01*
X032804Y027940D02*
X032879Y027940D01*
X032885Y027949D02*
X032817Y027949D01*
X032830Y027957D02*
X032890Y027957D01*
X032895Y027966D02*
X032843Y027966D01*
X032856Y027974D02*
X032901Y027974D01*
X032906Y027983D02*
X032869Y027983D01*
X032882Y027991D02*
X032911Y027991D01*
X032916Y028000D02*
X032895Y028000D01*
X032908Y028008D02*
X032922Y028008D01*
X032921Y028017D02*
X032927Y028017D01*
X032415Y027906D02*
X032247Y027906D01*
X032245Y027898D02*
X032417Y027898D01*
X032419Y027889D02*
X032243Y027889D01*
X032241Y027881D02*
X032421Y027881D01*
X032422Y027872D02*
X032239Y027872D01*
X032238Y027864D02*
X032424Y027864D01*
X032426Y027855D02*
X032236Y027855D01*
X032234Y027847D02*
X032428Y027847D01*
X032430Y027838D02*
X032232Y027838D01*
X032231Y027833D02*
X032331Y027773D01*
X032431Y027833D01*
X032331Y028293D01*
X032231Y027833D01*
X032237Y027830D02*
X032425Y027830D01*
X032411Y027821D02*
X032251Y027821D01*
X032265Y027813D02*
X032397Y027813D01*
X032383Y027804D02*
X032279Y027804D01*
X032293Y027796D02*
X032369Y027796D01*
X032355Y027787D02*
X032307Y027787D01*
X032322Y027779D02*
X032340Y027779D01*
X032275Y027668D02*
X031939Y027668D01*
X031934Y027677D02*
X032261Y027677D01*
X032247Y027685D02*
X031929Y027685D01*
X031923Y027694D02*
X032234Y027694D01*
X032220Y027702D02*
X031918Y027702D01*
X031912Y027711D02*
X032206Y027711D01*
X032193Y027719D02*
X031907Y027719D01*
X031902Y027728D02*
X032179Y027728D01*
X032165Y027736D02*
X031896Y027736D01*
X031891Y027745D02*
X032152Y027745D01*
X032138Y027753D02*
X031886Y027753D01*
X031880Y027762D02*
X032124Y027762D01*
X032111Y027770D02*
X031875Y027770D01*
X031869Y027779D02*
X032097Y027779D01*
X032084Y027787D02*
X031864Y027787D01*
X031859Y027796D02*
X032070Y027796D01*
X032056Y027804D02*
X031853Y027804D01*
X031848Y027813D02*
X032043Y027813D01*
X032029Y027821D02*
X031842Y027821D01*
X031837Y027830D02*
X032015Y027830D01*
X032002Y027838D02*
X031832Y027838D01*
X031826Y027847D02*
X031988Y027847D01*
X031974Y027855D02*
X031821Y027855D01*
X031816Y027864D02*
X031961Y027864D01*
X031947Y027872D02*
X031810Y027872D01*
X031805Y027881D02*
X031933Y027881D01*
X031920Y027889D02*
X031799Y027889D01*
X031794Y027898D02*
X031906Y027898D01*
X031892Y027906D02*
X031789Y027906D01*
X031783Y027915D02*
X031879Y027915D01*
X031865Y027923D02*
X031778Y027923D01*
X031772Y027932D02*
X031852Y027932D01*
X031838Y027940D02*
X031767Y027940D01*
X031762Y027949D02*
X031824Y027949D01*
X031811Y027957D02*
X031756Y027957D01*
X031751Y027966D02*
X031797Y027966D01*
X031783Y027974D02*
X031746Y027974D01*
X031740Y027983D02*
X031770Y027983D01*
X031756Y027991D02*
X031735Y027991D01*
X031729Y028000D02*
X031742Y028000D01*
X031729Y028008D02*
X031724Y028008D01*
X031945Y027660D02*
X032288Y027660D01*
X032302Y027651D02*
X031950Y027651D01*
X031956Y027643D02*
X032315Y027643D01*
X032249Y027915D02*
X032413Y027915D01*
X032411Y027923D02*
X032251Y027923D01*
X032252Y027932D02*
X032410Y027932D01*
X032408Y027940D02*
X032254Y027940D01*
X032256Y027949D02*
X032406Y027949D01*
X032404Y027957D02*
X032258Y027957D01*
X032260Y027966D02*
X032402Y027966D01*
X032400Y027974D02*
X032262Y027974D01*
X032264Y027983D02*
X032398Y027983D01*
X032397Y027991D02*
X032265Y027991D01*
X032267Y028000D02*
X032395Y028000D01*
X032393Y028008D02*
X032269Y028008D01*
X032271Y028017D02*
X032391Y028017D01*
X032389Y028025D02*
X032273Y028025D01*
X032275Y028034D02*
X032387Y028034D01*
X032385Y028042D02*
X032276Y028042D01*
X032278Y028051D02*
X032384Y028051D01*
X032382Y028059D02*
X032280Y028059D01*
X032282Y028068D02*
X032380Y028068D01*
X032378Y028076D02*
X032284Y028076D01*
X032286Y028085D02*
X032376Y028085D01*
X032374Y028093D02*
X032288Y028093D01*
X032289Y028102D02*
X032373Y028102D01*
X032371Y028110D02*
X032291Y028110D01*
X032293Y028119D02*
X032369Y028119D01*
X032367Y028127D02*
X032295Y028127D01*
X032297Y028136D02*
X032365Y028136D01*
X032363Y028144D02*
X032299Y028144D01*
X032300Y028153D02*
X032361Y028153D01*
X032360Y028161D02*
X032302Y028161D01*
X032304Y028170D02*
X032358Y028170D01*
X032356Y028178D02*
X032306Y028178D01*
X032308Y028187D02*
X032354Y028187D01*
X032352Y028195D02*
X032310Y028195D01*
X032312Y028204D02*
X032350Y028204D01*
X032349Y028212D02*
X032313Y028212D01*
X032315Y028221D02*
X032347Y028221D01*
X032345Y028229D02*
X032317Y028229D01*
X032319Y028238D02*
X032343Y028238D01*
X032341Y028246D02*
X032321Y028246D01*
X032323Y028255D02*
X032339Y028255D01*
X032337Y028263D02*
X032324Y028263D01*
X032326Y028272D02*
X032336Y028272D01*
X032334Y028280D02*
X032328Y028280D01*
X032330Y028289D02*
X032332Y028289D01*
X032751Y027503D02*
X033191Y027413D01*
X032751Y027323D01*
X032691Y027413D01*
X032751Y027503D01*
X032748Y027498D02*
X032775Y027498D01*
X032742Y027490D02*
X032816Y027490D01*
X032858Y027481D02*
X032736Y027481D01*
X032731Y027473D02*
X032899Y027473D01*
X032941Y027464D02*
X032725Y027464D01*
X032719Y027456D02*
X032982Y027456D01*
X033024Y027447D02*
X032714Y027447D01*
X032708Y027439D02*
X033066Y027439D01*
X033107Y027430D02*
X032702Y027430D01*
X032697Y027422D02*
X033149Y027422D01*
X033150Y027405D02*
X032697Y027405D01*
X032691Y027413D02*
X033190Y027413D01*
X033109Y027396D02*
X032702Y027396D01*
X032708Y027388D02*
X033067Y027388D01*
X033025Y027379D02*
X032714Y027379D01*
X032719Y027371D02*
X032984Y027371D01*
X032942Y027362D02*
X032725Y027362D01*
X032731Y027354D02*
X032901Y027354D01*
X032859Y027345D02*
X032736Y027345D01*
X032742Y027337D02*
X032818Y027337D01*
X032776Y027328D02*
X032748Y027328D01*
X032330Y027192D02*
X031966Y027192D01*
X031960Y027184D02*
X032317Y027184D01*
X032304Y027175D02*
X031955Y027175D01*
X031950Y027167D02*
X032291Y027167D01*
X032278Y027158D02*
X031945Y027158D01*
X031940Y027150D02*
X032265Y027150D01*
X032252Y027141D02*
X031934Y027141D01*
X031929Y027133D02*
X032239Y027133D01*
X032226Y027124D02*
X031924Y027124D01*
X031919Y027116D02*
X032213Y027116D01*
X032200Y027107D02*
X031914Y027107D01*
X031908Y027099D02*
X032187Y027099D01*
X032174Y027090D02*
X031903Y027090D01*
X031898Y027082D02*
X032161Y027082D01*
X032148Y027073D02*
X031893Y027073D01*
X031887Y027065D02*
X032135Y027065D01*
X032122Y027056D02*
X031882Y027056D01*
X031877Y027048D02*
X032109Y027048D01*
X032096Y027039D02*
X031872Y027039D01*
X031867Y027031D02*
X032083Y027031D01*
X032070Y027022D02*
X031861Y027022D01*
X031856Y027014D02*
X032057Y027014D01*
X032044Y027005D02*
X031851Y027005D01*
X031846Y026997D02*
X032032Y026997D01*
X032019Y026988D02*
X031841Y026988D01*
X031835Y026980D02*
X032006Y026980D01*
X031993Y026971D02*
X031830Y026971D01*
X031825Y026963D02*
X031980Y026963D01*
X031967Y026954D02*
X031820Y026954D01*
X031815Y026946D02*
X031954Y026946D01*
X031941Y026937D02*
X031809Y026937D01*
X031804Y026929D02*
X031928Y026929D01*
X031915Y026920D02*
X031799Y026920D01*
X031794Y026912D02*
X031902Y026912D01*
X031889Y026903D02*
X031788Y026903D01*
X031783Y026895D02*
X031876Y026895D01*
X031863Y026886D02*
X031778Y026886D01*
X031773Y026878D02*
X031850Y026878D01*
X031837Y026869D02*
X031768Y026869D01*
X031762Y026861D02*
X031824Y026861D01*
X031811Y026852D02*
X031757Y026852D01*
X031752Y026844D02*
X031798Y026844D01*
X031785Y026835D02*
X031747Y026835D01*
X031742Y026827D02*
X031772Y026827D01*
X031759Y026818D02*
X031736Y026818D01*
X031731Y026810D02*
X031746Y026810D01*
X031733Y026801D02*
X031726Y026801D01*
X031841Y027337D02*
X031920Y027337D01*
X031926Y027345D02*
X031798Y027345D01*
X031754Y027354D02*
X031931Y027354D01*
X031937Y027362D02*
X031711Y027362D01*
X031667Y027371D02*
X031943Y027371D01*
X031948Y027379D02*
X031624Y027379D01*
X031581Y027388D02*
X031954Y027388D01*
X031960Y027396D02*
X031537Y027396D01*
X031539Y027430D02*
X031960Y027430D01*
X031965Y027422D02*
X031495Y027422D01*
X031494Y027405D02*
X031965Y027405D01*
X031971Y027413D02*
X031911Y027503D01*
X031451Y027413D01*
X031911Y027323D01*
X031971Y027413D01*
X031452Y027413D01*
X031582Y027439D02*
X031954Y027439D01*
X031948Y027447D02*
X031626Y027447D01*
X031669Y027456D02*
X031943Y027456D01*
X031937Y027464D02*
X031712Y027464D01*
X031756Y027473D02*
X031931Y027473D01*
X031926Y027481D02*
X031799Y027481D01*
X031843Y027490D02*
X031920Y027490D01*
X031914Y027498D02*
X031886Y027498D01*
X031885Y027328D02*
X031914Y027328D01*
D12*
X016069Y024913D03*
X015301Y022600D03*
X015301Y020226D03*
X016069Y017913D03*
X015301Y015600D03*
X015301Y013226D03*
X016069Y010913D03*
X015301Y008600D03*
X010360Y008600D03*
X010360Y013226D03*
X010360Y015600D03*
X010360Y020226D03*
X010360Y022600D03*
X010360Y027226D03*
X010360Y029600D03*
X010360Y034226D03*
X015301Y034226D03*
X016069Y031913D03*
X015301Y029600D03*
X015301Y027226D03*
D13*
X005831Y026913D03*
X005831Y033913D03*
X005831Y019913D03*
X005831Y012913D03*
D14*
X005831Y010944D03*
X005831Y008976D03*
X005831Y015976D03*
X005831Y017944D03*
X005831Y022976D03*
X005831Y024944D03*
X005831Y029976D03*
X005831Y031944D03*
D15*
X020636Y033213D03*
X021226Y033213D03*
X021226Y026213D03*
X020636Y026213D03*
X020736Y019213D03*
X021326Y019213D03*
X021326Y012213D03*
X020736Y012213D03*
X035636Y005413D03*
X036226Y005413D03*
D16*
X034331Y008778D03*
X034331Y009448D03*
X019531Y011478D03*
X019531Y012148D03*
X019531Y018478D03*
X019531Y019148D03*
X019531Y025478D03*
X019531Y026148D03*
X019531Y032478D03*
X019531Y033148D03*
D17*
X020596Y032613D03*
X021266Y032613D03*
X021266Y031413D03*
X020596Y031413D03*
X020596Y025613D03*
X021266Y025613D03*
X021266Y024413D03*
X020596Y024413D03*
X020696Y018613D03*
X021366Y018613D03*
X021366Y017413D03*
X020696Y017413D03*
X020696Y011613D03*
X021366Y011613D03*
X021366Y010413D03*
X020696Y010413D03*
X034296Y005413D03*
X034966Y005413D03*
D18*
X034831Y021913D03*
X035831Y021913D03*
X035831Y022913D03*
X034831Y022913D03*
X034831Y023913D03*
X035831Y023913D03*
X035831Y024913D03*
X034831Y024913D03*
X034831Y025913D03*
X035831Y025913D03*
X035831Y026913D03*
X035831Y027913D03*
X034831Y027913D03*
X034831Y026913D03*
X036831Y026913D03*
X036831Y027913D03*
X036831Y028913D03*
X036831Y029913D03*
X036831Y030913D03*
X036831Y031913D03*
X036831Y032913D03*
X035831Y032913D03*
X035831Y031913D03*
X035831Y030913D03*
X034831Y030913D03*
X034831Y031913D03*
X034831Y032913D03*
X034831Y029913D03*
X035831Y029913D03*
X035831Y028913D03*
X034831Y028913D03*
X036831Y025913D03*
X036831Y024913D03*
X036831Y023913D03*
X036831Y022913D03*
X036831Y021913D03*
X029831Y021913D03*
X029831Y022913D03*
X028831Y022913D03*
X028831Y021913D03*
X027831Y021913D03*
X027831Y022913D03*
X027831Y023913D03*
X028831Y023913D03*
X029831Y023913D03*
X029831Y024913D03*
X028831Y024913D03*
X027831Y024913D03*
X027831Y025913D03*
X028831Y025913D03*
X029831Y025913D03*
X029831Y026913D03*
X029831Y027913D03*
X028831Y027913D03*
X028831Y026913D03*
X027831Y026913D03*
X027831Y027913D03*
X027831Y028913D03*
X028831Y028913D03*
X029831Y028913D03*
X029831Y029913D03*
X028831Y029913D03*
X027831Y029913D03*
X027831Y030913D03*
X028831Y030913D03*
X029831Y030913D03*
X029831Y031913D03*
X029831Y032913D03*
X028831Y032913D03*
X028831Y031913D03*
X027831Y031913D03*
X027831Y032913D03*
D19*
X023031Y006983D02*
X023031Y006243D01*
X022031Y006243D02*
X022031Y006983D01*
D20*
X025253Y007066D02*
X026040Y007066D01*
X027615Y007971D02*
X027615Y008759D01*
X026040Y009546D02*
X025253Y009546D01*
D21*
X021405Y009546D03*
X020657Y009546D03*
X021031Y008680D03*
X021031Y015680D03*
X021405Y016546D03*
X020657Y016546D03*
X020931Y022680D03*
X021305Y023546D03*
X020557Y023546D03*
X020931Y029680D03*
X021305Y030546D03*
X020557Y030546D03*
D22*
X019531Y031161D03*
X019531Y029665D03*
X019531Y024161D03*
X019531Y022665D03*
X019531Y017161D03*
X019531Y015665D03*
X019531Y010161D03*
X019531Y008665D03*
D23*
X028886Y006613D03*
X030776Y006613D03*
X030776Y011613D03*
X028886Y011613D03*
D24*
X029006Y009113D03*
X030856Y009113D03*
X032306Y006713D03*
X034156Y006713D03*
D25*
X033681Y008189D03*
X033181Y008189D03*
X032681Y008189D03*
X032181Y008189D03*
X032181Y010237D03*
X032681Y010237D03*
X033181Y010237D03*
X033681Y010237D03*
D26*
X036731Y008681D03*
X036731Y012145D03*
M02*
