G75*
G70*
%OFA0B0*%
%FSLAX24Y24*%
%IPPOS*%
%LPD*%
%AMOC8*
5,1,8,0,0,1.08239X$1,22.5*
%
%ADD10C,0.0000*%
%ADD11C,0.0010*%
%ADD12C,0.0673*%
%ADD13R,0.0950X0.0950*%
%ADD14C,0.0950*%
%ADD15OC8,0.0560*%
%ADD16C,0.0740*%
%ADD17C,0.0680*%
%ADD18C,0.0640*%
%ADD19C,0.0650*%
%ADD20R,0.0650X0.0650*%
%ADD21C,0.0740*%
%ADD22C,0.0787*%
%ADD23C,0.0400*%
%ADD24C,0.0120*%
%ADD25C,0.0560*%
%ADD26C,0.0320*%
%ADD27C,0.0660*%
%ADD28C,0.1000*%
%ADD29C,0.0160*%
D10*
X005333Y004393D02*
X004333Y005393D01*
X004333Y036393D01*
X005333Y037393D01*
X036333Y037393D01*
X037333Y036393D01*
X037333Y005393D01*
X036333Y004393D01*
X005333Y004393D01*
X005203Y005893D02*
X005205Y005943D01*
X005211Y005993D01*
X005221Y006042D01*
X005235Y006090D01*
X005252Y006137D01*
X005273Y006182D01*
X005298Y006226D01*
X005326Y006267D01*
X005358Y006306D01*
X005392Y006343D01*
X005429Y006377D01*
X005469Y006407D01*
X005511Y006434D01*
X005555Y006458D01*
X005601Y006479D01*
X005648Y006495D01*
X005696Y006508D01*
X005746Y006517D01*
X005795Y006522D01*
X005846Y006523D01*
X005896Y006520D01*
X005945Y006513D01*
X005994Y006502D01*
X006042Y006487D01*
X006088Y006469D01*
X006133Y006447D01*
X006176Y006421D01*
X006217Y006392D01*
X006256Y006360D01*
X006292Y006325D01*
X006324Y006287D01*
X006354Y006247D01*
X006381Y006204D01*
X006404Y006160D01*
X006423Y006114D01*
X006439Y006066D01*
X006451Y006017D01*
X006459Y005968D01*
X006463Y005918D01*
X006463Y005868D01*
X006459Y005818D01*
X006451Y005769D01*
X006439Y005720D01*
X006423Y005672D01*
X006404Y005626D01*
X006381Y005582D01*
X006354Y005539D01*
X006324Y005499D01*
X006292Y005461D01*
X006256Y005426D01*
X006217Y005394D01*
X006176Y005365D01*
X006133Y005339D01*
X006088Y005317D01*
X006042Y005299D01*
X005994Y005284D01*
X005945Y005273D01*
X005896Y005266D01*
X005846Y005263D01*
X005795Y005264D01*
X005746Y005269D01*
X005696Y005278D01*
X005648Y005291D01*
X005601Y005307D01*
X005555Y005328D01*
X005511Y005352D01*
X005469Y005379D01*
X005429Y005409D01*
X005392Y005443D01*
X005358Y005480D01*
X005326Y005519D01*
X005298Y005560D01*
X005273Y005604D01*
X005252Y005649D01*
X005235Y005696D01*
X005221Y005744D01*
X005211Y005793D01*
X005205Y005843D01*
X005203Y005893D01*
X005203Y035893D02*
X005205Y035943D01*
X005211Y035993D01*
X005221Y036042D01*
X005235Y036090D01*
X005252Y036137D01*
X005273Y036182D01*
X005298Y036226D01*
X005326Y036267D01*
X005358Y036306D01*
X005392Y036343D01*
X005429Y036377D01*
X005469Y036407D01*
X005511Y036434D01*
X005555Y036458D01*
X005601Y036479D01*
X005648Y036495D01*
X005696Y036508D01*
X005746Y036517D01*
X005795Y036522D01*
X005846Y036523D01*
X005896Y036520D01*
X005945Y036513D01*
X005994Y036502D01*
X006042Y036487D01*
X006088Y036469D01*
X006133Y036447D01*
X006176Y036421D01*
X006217Y036392D01*
X006256Y036360D01*
X006292Y036325D01*
X006324Y036287D01*
X006354Y036247D01*
X006381Y036204D01*
X006404Y036160D01*
X006423Y036114D01*
X006439Y036066D01*
X006451Y036017D01*
X006459Y035968D01*
X006463Y035918D01*
X006463Y035868D01*
X006459Y035818D01*
X006451Y035769D01*
X006439Y035720D01*
X006423Y035672D01*
X006404Y035626D01*
X006381Y035582D01*
X006354Y035539D01*
X006324Y035499D01*
X006292Y035461D01*
X006256Y035426D01*
X006217Y035394D01*
X006176Y035365D01*
X006133Y035339D01*
X006088Y035317D01*
X006042Y035299D01*
X005994Y035284D01*
X005945Y035273D01*
X005896Y035266D01*
X005846Y035263D01*
X005795Y035264D01*
X005746Y035269D01*
X005696Y035278D01*
X005648Y035291D01*
X005601Y035307D01*
X005555Y035328D01*
X005511Y035352D01*
X005469Y035379D01*
X005429Y035409D01*
X005392Y035443D01*
X005358Y035480D01*
X005326Y035519D01*
X005298Y035560D01*
X005273Y035604D01*
X005252Y035649D01*
X005235Y035696D01*
X005221Y035744D01*
X005211Y035793D01*
X005205Y035843D01*
X005203Y035893D01*
X035203Y035893D02*
X035205Y035943D01*
X035211Y035993D01*
X035221Y036042D01*
X035235Y036090D01*
X035252Y036137D01*
X035273Y036182D01*
X035298Y036226D01*
X035326Y036267D01*
X035358Y036306D01*
X035392Y036343D01*
X035429Y036377D01*
X035469Y036407D01*
X035511Y036434D01*
X035555Y036458D01*
X035601Y036479D01*
X035648Y036495D01*
X035696Y036508D01*
X035746Y036517D01*
X035795Y036522D01*
X035846Y036523D01*
X035896Y036520D01*
X035945Y036513D01*
X035994Y036502D01*
X036042Y036487D01*
X036088Y036469D01*
X036133Y036447D01*
X036176Y036421D01*
X036217Y036392D01*
X036256Y036360D01*
X036292Y036325D01*
X036324Y036287D01*
X036354Y036247D01*
X036381Y036204D01*
X036404Y036160D01*
X036423Y036114D01*
X036439Y036066D01*
X036451Y036017D01*
X036459Y035968D01*
X036463Y035918D01*
X036463Y035868D01*
X036459Y035818D01*
X036451Y035769D01*
X036439Y035720D01*
X036423Y035672D01*
X036404Y035626D01*
X036381Y035582D01*
X036354Y035539D01*
X036324Y035499D01*
X036292Y035461D01*
X036256Y035426D01*
X036217Y035394D01*
X036176Y035365D01*
X036133Y035339D01*
X036088Y035317D01*
X036042Y035299D01*
X035994Y035284D01*
X035945Y035273D01*
X035896Y035266D01*
X035846Y035263D01*
X035795Y035264D01*
X035746Y035269D01*
X035696Y035278D01*
X035648Y035291D01*
X035601Y035307D01*
X035555Y035328D01*
X035511Y035352D01*
X035469Y035379D01*
X035429Y035409D01*
X035392Y035443D01*
X035358Y035480D01*
X035326Y035519D01*
X035298Y035560D01*
X035273Y035604D01*
X035252Y035649D01*
X035235Y035696D01*
X035221Y035744D01*
X035211Y035793D01*
X035205Y035843D01*
X035203Y035893D01*
X035203Y005893D02*
X035205Y005943D01*
X035211Y005993D01*
X035221Y006042D01*
X035235Y006090D01*
X035252Y006137D01*
X035273Y006182D01*
X035298Y006226D01*
X035326Y006267D01*
X035358Y006306D01*
X035392Y006343D01*
X035429Y006377D01*
X035469Y006407D01*
X035511Y006434D01*
X035555Y006458D01*
X035601Y006479D01*
X035648Y006495D01*
X035696Y006508D01*
X035746Y006517D01*
X035795Y006522D01*
X035846Y006523D01*
X035896Y006520D01*
X035945Y006513D01*
X035994Y006502D01*
X036042Y006487D01*
X036088Y006469D01*
X036133Y006447D01*
X036176Y006421D01*
X036217Y006392D01*
X036256Y006360D01*
X036292Y006325D01*
X036324Y006287D01*
X036354Y006247D01*
X036381Y006204D01*
X036404Y006160D01*
X036423Y006114D01*
X036439Y006066D01*
X036451Y006017D01*
X036459Y005968D01*
X036463Y005918D01*
X036463Y005868D01*
X036459Y005818D01*
X036451Y005769D01*
X036439Y005720D01*
X036423Y005672D01*
X036404Y005626D01*
X036381Y005582D01*
X036354Y005539D01*
X036324Y005499D01*
X036292Y005461D01*
X036256Y005426D01*
X036217Y005394D01*
X036176Y005365D01*
X036133Y005339D01*
X036088Y005317D01*
X036042Y005299D01*
X035994Y005284D01*
X035945Y005273D01*
X035896Y005266D01*
X035846Y005263D01*
X035795Y005264D01*
X035746Y005269D01*
X035696Y005278D01*
X035648Y005291D01*
X035601Y005307D01*
X035555Y005328D01*
X035511Y005352D01*
X035469Y005379D01*
X035429Y005409D01*
X035392Y005443D01*
X035358Y005480D01*
X035326Y005519D01*
X035298Y005560D01*
X035273Y005604D01*
X035252Y005649D01*
X035235Y005696D01*
X035221Y005744D01*
X035211Y005793D01*
X035205Y005843D01*
X035203Y005893D01*
D11*
X030333Y026013D02*
X030433Y026453D01*
X030333Y026523D01*
X030233Y026453D01*
X030333Y026013D01*
X030332Y026018D02*
X030334Y026018D01*
X030330Y026026D02*
X030336Y026026D01*
X030338Y026035D02*
X030328Y026035D01*
X030326Y026043D02*
X030340Y026043D01*
X030342Y026052D02*
X030324Y026052D01*
X030322Y026060D02*
X030344Y026060D01*
X030346Y026069D02*
X030320Y026069D01*
X030318Y026077D02*
X030348Y026077D01*
X030349Y026086D02*
X030316Y026086D01*
X030315Y026094D02*
X030351Y026094D01*
X030353Y026103D02*
X030313Y026103D01*
X030311Y026111D02*
X030355Y026111D01*
X030357Y026120D02*
X030309Y026120D01*
X030307Y026128D02*
X030359Y026128D01*
X030361Y026137D02*
X030305Y026137D01*
X030303Y026145D02*
X030363Y026145D01*
X030365Y026154D02*
X030301Y026154D01*
X030299Y026162D02*
X030367Y026162D01*
X030369Y026171D02*
X030297Y026171D01*
X030295Y026179D02*
X030371Y026179D01*
X030373Y026188D02*
X030293Y026188D01*
X030291Y026196D02*
X030375Y026196D01*
X030376Y026205D02*
X030289Y026205D01*
X030287Y026213D02*
X030378Y026213D01*
X030380Y026222D02*
X030286Y026222D01*
X030284Y026230D02*
X030382Y026230D01*
X030384Y026239D02*
X030282Y026239D01*
X030280Y026247D02*
X030386Y026247D01*
X030388Y026256D02*
X030278Y026256D01*
X030276Y026264D02*
X030390Y026264D01*
X030392Y026273D02*
X030274Y026273D01*
X030272Y026281D02*
X030394Y026281D01*
X030396Y026290D02*
X030270Y026290D01*
X030268Y026298D02*
X030398Y026298D01*
X030400Y026307D02*
X030266Y026307D01*
X030264Y026315D02*
X030402Y026315D01*
X030404Y026324D02*
X030262Y026324D01*
X030260Y026332D02*
X030405Y026332D01*
X030407Y026341D02*
X030258Y026341D01*
X030257Y026349D02*
X030409Y026349D01*
X030411Y026358D02*
X030255Y026358D01*
X030253Y026366D02*
X030413Y026366D01*
X030415Y026375D02*
X030251Y026375D01*
X030249Y026383D02*
X030417Y026383D01*
X030419Y026392D02*
X030247Y026392D01*
X030245Y026400D02*
X030421Y026400D01*
X030423Y026409D02*
X030243Y026409D01*
X030241Y026417D02*
X030425Y026417D01*
X030427Y026426D02*
X030239Y026426D01*
X030237Y026434D02*
X030429Y026434D01*
X030431Y026443D02*
X030235Y026443D01*
X030233Y026451D02*
X030433Y026451D01*
X030423Y026460D02*
X030242Y026460D01*
X030255Y026468D02*
X030411Y026468D01*
X030399Y026477D02*
X030267Y026477D01*
X030279Y026485D02*
X030387Y026485D01*
X030375Y026494D02*
X030291Y026494D01*
X030303Y026502D02*
X030363Y026502D01*
X030351Y026511D02*
X030315Y026511D01*
X030327Y026519D02*
X030338Y026519D01*
X030411Y026621D02*
X030726Y026621D01*
X030731Y026613D02*
X030424Y026613D01*
X030437Y026604D02*
X030736Y026604D01*
X030742Y026596D02*
X030450Y026596D01*
X030463Y026587D02*
X030747Y026587D01*
X030753Y026579D02*
X030476Y026579D01*
X030488Y026570D02*
X030758Y026570D01*
X030763Y026562D02*
X030501Y026562D01*
X030514Y026553D02*
X030769Y026553D01*
X030774Y026545D02*
X030527Y026545D01*
X030540Y026536D02*
X030780Y026536D01*
X030785Y026528D02*
X030553Y026528D01*
X030566Y026519D02*
X030790Y026519D01*
X030796Y026511D02*
X030578Y026511D01*
X030591Y026502D02*
X030801Y026502D01*
X030807Y026494D02*
X030604Y026494D01*
X030617Y026485D02*
X030812Y026485D01*
X030817Y026477D02*
X030630Y026477D01*
X030643Y026468D02*
X030823Y026468D01*
X030828Y026460D02*
X030656Y026460D01*
X030668Y026451D02*
X030833Y026451D01*
X030839Y026443D02*
X030681Y026443D01*
X030694Y026434D02*
X030844Y026434D01*
X030850Y026426D02*
X030707Y026426D01*
X030720Y026417D02*
X030855Y026417D01*
X030860Y026409D02*
X030733Y026409D01*
X030746Y026400D02*
X030866Y026400D01*
X030871Y026392D02*
X030758Y026392D01*
X030771Y026383D02*
X030877Y026383D01*
X030882Y026375D02*
X030784Y026375D01*
X030797Y026366D02*
X030887Y026366D01*
X030893Y026358D02*
X030810Y026358D01*
X030823Y026349D02*
X030898Y026349D01*
X030904Y026341D02*
X030836Y026341D01*
X030848Y026332D02*
X030909Y026332D01*
X030914Y026324D02*
X030861Y026324D01*
X030874Y026315D02*
X030920Y026315D01*
X030925Y026307D02*
X030887Y026307D01*
X030900Y026298D02*
X030931Y026298D01*
X030936Y026290D02*
X030913Y026290D01*
X030926Y026281D02*
X030941Y026281D01*
X030938Y026273D02*
X030947Y026273D01*
X030951Y026264D02*
X030952Y026264D01*
X030953Y026263D02*
X030553Y026893D01*
X030933Y027503D01*
X030333Y027113D01*
X029723Y027493D01*
X030103Y026893D01*
X029723Y026273D01*
X030333Y026673D01*
X030953Y026263D01*
X030720Y026630D02*
X030399Y026630D01*
X030386Y026638D02*
X030715Y026638D01*
X030709Y026647D02*
X030373Y026647D01*
X030360Y026655D02*
X030704Y026655D01*
X030699Y026664D02*
X030347Y026664D01*
X030334Y026672D02*
X030693Y026672D01*
X030688Y026681D02*
X029973Y026681D01*
X029978Y026689D02*
X030682Y026689D01*
X030677Y026698D02*
X029983Y026698D01*
X029988Y026706D02*
X030672Y026706D01*
X030666Y026715D02*
X029994Y026715D01*
X029999Y026723D02*
X030661Y026723D01*
X030655Y026732D02*
X030004Y026732D01*
X030009Y026740D02*
X030650Y026740D01*
X030645Y026749D02*
X030014Y026749D01*
X030020Y026757D02*
X030639Y026757D01*
X030634Y026766D02*
X030025Y026766D01*
X030030Y026774D02*
X030628Y026774D01*
X030623Y026783D02*
X030035Y026783D01*
X030041Y026791D02*
X030618Y026791D01*
X030612Y026800D02*
X030046Y026800D01*
X030051Y026808D02*
X030607Y026808D01*
X030601Y026817D02*
X030056Y026817D01*
X030061Y026825D02*
X030596Y026825D01*
X030591Y026834D02*
X030067Y026834D01*
X030072Y026842D02*
X030585Y026842D01*
X030580Y026851D02*
X030077Y026851D01*
X030082Y026859D02*
X030574Y026859D01*
X030569Y026868D02*
X030087Y026868D01*
X030093Y026876D02*
X030564Y026876D01*
X030558Y026885D02*
X030098Y026885D01*
X030103Y026893D02*
X030553Y026893D01*
X030558Y026902D02*
X030097Y026902D01*
X030092Y026910D02*
X030564Y026910D01*
X030569Y026919D02*
X030087Y026919D01*
X030081Y026927D02*
X030574Y026927D01*
X030580Y026936D02*
X030076Y026936D01*
X030071Y026944D02*
X030585Y026944D01*
X030590Y026953D02*
X030065Y026953D01*
X030060Y026961D02*
X030595Y026961D01*
X030601Y026970D02*
X030054Y026970D01*
X030049Y026978D02*
X030606Y026978D01*
X030611Y026987D02*
X030044Y026987D01*
X030038Y026995D02*
X030617Y026995D01*
X030622Y027004D02*
X030033Y027004D01*
X030027Y027012D02*
X030627Y027012D01*
X030632Y027021D02*
X030022Y027021D01*
X030017Y027029D02*
X030638Y027029D01*
X030643Y027038D02*
X030011Y027038D01*
X030006Y027046D02*
X030648Y027046D01*
X030654Y027055D02*
X030001Y027055D01*
X029995Y027063D02*
X030659Y027063D01*
X030664Y027072D02*
X029990Y027072D01*
X029984Y027080D02*
X030670Y027080D01*
X030675Y027089D02*
X029979Y027089D01*
X029974Y027097D02*
X030680Y027097D01*
X030685Y027106D02*
X029968Y027106D01*
X029963Y027114D02*
X030331Y027114D01*
X030335Y027114D02*
X030691Y027114D01*
X030696Y027123D02*
X030348Y027123D01*
X030361Y027131D02*
X030701Y027131D01*
X030707Y027140D02*
X030374Y027140D01*
X030387Y027148D02*
X030712Y027148D01*
X030717Y027157D02*
X030400Y027157D01*
X030413Y027165D02*
X030722Y027165D01*
X030728Y027174D02*
X030426Y027174D01*
X030439Y027182D02*
X030733Y027182D01*
X030738Y027191D02*
X030452Y027191D01*
X030465Y027199D02*
X030744Y027199D01*
X030749Y027208D02*
X030479Y027208D01*
X030492Y027216D02*
X030754Y027216D01*
X030760Y027225D02*
X030505Y027225D01*
X030518Y027233D02*
X030765Y027233D01*
X030770Y027242D02*
X030531Y027242D01*
X030544Y027250D02*
X030775Y027250D01*
X030781Y027259D02*
X030557Y027259D01*
X030570Y027267D02*
X030786Y027267D01*
X030791Y027276D02*
X030583Y027276D01*
X030596Y027284D02*
X030797Y027284D01*
X030802Y027293D02*
X030609Y027293D01*
X030622Y027301D02*
X030807Y027301D01*
X030813Y027310D02*
X030635Y027310D01*
X030649Y027318D02*
X030818Y027318D01*
X030823Y027327D02*
X030662Y027327D01*
X030675Y027335D02*
X030828Y027335D01*
X030834Y027344D02*
X030688Y027344D01*
X030701Y027352D02*
X030839Y027352D01*
X030844Y027361D02*
X030714Y027361D01*
X030727Y027369D02*
X030850Y027369D01*
X030855Y027378D02*
X030740Y027378D01*
X030753Y027386D02*
X030860Y027386D01*
X030865Y027395D02*
X030766Y027395D01*
X030779Y027403D02*
X030871Y027403D01*
X030876Y027412D02*
X030792Y027412D01*
X030806Y027420D02*
X030881Y027420D01*
X030887Y027429D02*
X030819Y027429D01*
X030832Y027437D02*
X030892Y027437D01*
X030897Y027446D02*
X030845Y027446D01*
X030858Y027454D02*
X030903Y027454D01*
X030908Y027463D02*
X030871Y027463D01*
X030884Y027471D02*
X030913Y027471D01*
X030918Y027480D02*
X030897Y027480D01*
X030910Y027488D02*
X030924Y027488D01*
X030923Y027497D02*
X030929Y027497D01*
X030417Y027386D02*
X030249Y027386D01*
X030247Y027378D02*
X030419Y027378D01*
X030421Y027369D02*
X030245Y027369D01*
X030243Y027361D02*
X030423Y027361D01*
X030424Y027352D02*
X030241Y027352D01*
X030240Y027344D02*
X030426Y027344D01*
X030428Y027335D02*
X030238Y027335D01*
X030236Y027327D02*
X030430Y027327D01*
X030432Y027318D02*
X030234Y027318D01*
X030233Y027313D02*
X030333Y027253D01*
X030433Y027313D01*
X030333Y027773D01*
X030233Y027313D01*
X030239Y027310D02*
X030427Y027310D01*
X030413Y027301D02*
X030253Y027301D01*
X030267Y027293D02*
X030399Y027293D01*
X030385Y027284D02*
X030281Y027284D01*
X030295Y027276D02*
X030371Y027276D01*
X030357Y027267D02*
X030309Y027267D01*
X030324Y027259D02*
X030342Y027259D01*
X030277Y027148D02*
X029941Y027148D01*
X029947Y027140D02*
X030290Y027140D01*
X030304Y027131D02*
X029952Y027131D01*
X029957Y027123D02*
X030317Y027123D01*
X030263Y027157D02*
X029936Y027157D01*
X029931Y027165D02*
X030249Y027165D01*
X030236Y027174D02*
X029925Y027174D01*
X029920Y027182D02*
X030222Y027182D01*
X030208Y027191D02*
X029914Y027191D01*
X029909Y027199D02*
X030195Y027199D01*
X030181Y027208D02*
X029904Y027208D01*
X029898Y027216D02*
X030167Y027216D01*
X030154Y027225D02*
X029893Y027225D01*
X029888Y027233D02*
X030140Y027233D01*
X030126Y027242D02*
X029882Y027242D01*
X029877Y027250D02*
X030113Y027250D01*
X030099Y027259D02*
X029871Y027259D01*
X029866Y027267D02*
X030085Y027267D01*
X030072Y027276D02*
X029861Y027276D01*
X029855Y027284D02*
X030058Y027284D01*
X030045Y027293D02*
X029850Y027293D01*
X029844Y027301D02*
X030031Y027301D01*
X030017Y027310D02*
X029839Y027310D01*
X029834Y027318D02*
X030004Y027318D01*
X029990Y027327D02*
X029828Y027327D01*
X029823Y027335D02*
X029976Y027335D01*
X029963Y027344D02*
X029818Y027344D01*
X029812Y027352D02*
X029949Y027352D01*
X029935Y027361D02*
X029807Y027361D01*
X029801Y027369D02*
X029922Y027369D01*
X029908Y027378D02*
X029796Y027378D01*
X029791Y027386D02*
X029894Y027386D01*
X029881Y027395D02*
X029785Y027395D01*
X029780Y027403D02*
X029867Y027403D01*
X029854Y027412D02*
X029774Y027412D01*
X029769Y027420D02*
X029840Y027420D01*
X029826Y027429D02*
X029764Y027429D01*
X029758Y027437D02*
X029813Y027437D01*
X029799Y027446D02*
X029753Y027446D01*
X029748Y027454D02*
X029785Y027454D01*
X029772Y027463D02*
X029742Y027463D01*
X029737Y027471D02*
X029758Y027471D01*
X029744Y027480D02*
X029731Y027480D01*
X029731Y027488D02*
X029726Y027488D01*
X029845Y026970D02*
X029922Y026970D01*
X029928Y026961D02*
X029801Y026961D01*
X029758Y026953D02*
X029933Y026953D01*
X029939Y026944D02*
X029714Y026944D01*
X029671Y026936D02*
X029945Y026936D01*
X029950Y026927D02*
X029627Y026927D01*
X029584Y026919D02*
X029956Y026919D01*
X029962Y026910D02*
X029541Y026910D01*
X029539Y026876D02*
X029962Y026876D01*
X029956Y026868D02*
X029583Y026868D01*
X029626Y026859D02*
X029950Y026859D01*
X029945Y026851D02*
X029669Y026851D01*
X029713Y026842D02*
X029939Y026842D01*
X029933Y026834D02*
X029756Y026834D01*
X029800Y026825D02*
X029928Y026825D01*
X029922Y026817D02*
X029843Y026817D01*
X029887Y026808D02*
X029916Y026808D01*
X029913Y026803D02*
X029973Y026893D01*
X029913Y026983D01*
X029453Y026893D01*
X029913Y026803D01*
X029967Y026885D02*
X029496Y026885D01*
X029497Y026902D02*
X029967Y026902D01*
X029973Y026893D02*
X029454Y026893D01*
X029888Y026978D02*
X029916Y026978D01*
X029968Y026672D02*
X030332Y026672D01*
X030319Y026664D02*
X029962Y026664D01*
X029957Y026655D02*
X030306Y026655D01*
X030293Y026647D02*
X029952Y026647D01*
X029947Y026638D02*
X030280Y026638D01*
X030267Y026630D02*
X029942Y026630D01*
X029936Y026621D02*
X030254Y026621D01*
X030241Y026613D02*
X029931Y026613D01*
X029926Y026604D02*
X030228Y026604D01*
X030215Y026596D02*
X029921Y026596D01*
X029915Y026587D02*
X030202Y026587D01*
X030189Y026579D02*
X029910Y026579D01*
X029905Y026570D02*
X030176Y026570D01*
X030163Y026562D02*
X029900Y026562D01*
X029895Y026553D02*
X030150Y026553D01*
X030137Y026545D02*
X029889Y026545D01*
X029884Y026536D02*
X030124Y026536D01*
X030111Y026528D02*
X029879Y026528D01*
X029874Y026519D02*
X030098Y026519D01*
X030085Y026511D02*
X029869Y026511D01*
X029863Y026502D02*
X030072Y026502D01*
X030059Y026494D02*
X029858Y026494D01*
X029853Y026485D02*
X030046Y026485D01*
X030033Y026477D02*
X029848Y026477D01*
X029843Y026468D02*
X030021Y026468D01*
X030008Y026460D02*
X029837Y026460D01*
X029832Y026451D02*
X029995Y026451D01*
X029982Y026443D02*
X029827Y026443D01*
X029822Y026434D02*
X029969Y026434D01*
X029956Y026426D02*
X029816Y026426D01*
X029811Y026417D02*
X029943Y026417D01*
X029930Y026409D02*
X029806Y026409D01*
X029801Y026400D02*
X029917Y026400D01*
X029904Y026392D02*
X029796Y026392D01*
X029790Y026383D02*
X029891Y026383D01*
X029878Y026375D02*
X029785Y026375D01*
X029780Y026366D02*
X029865Y026366D01*
X029852Y026358D02*
X029775Y026358D01*
X029770Y026349D02*
X029839Y026349D01*
X029826Y026341D02*
X029764Y026341D01*
X029759Y026332D02*
X029813Y026332D01*
X029800Y026324D02*
X029754Y026324D01*
X029749Y026315D02*
X029787Y026315D01*
X029774Y026307D02*
X029744Y026307D01*
X029738Y026298D02*
X029761Y026298D01*
X029748Y026290D02*
X029733Y026290D01*
X029735Y026281D02*
X029728Y026281D01*
X030693Y026893D02*
X030753Y026803D01*
X031193Y026893D01*
X030753Y026983D01*
X030693Y026893D01*
X031192Y026893D01*
X031152Y026885D02*
X030699Y026885D01*
X030704Y026876D02*
X031111Y026876D01*
X031109Y026910D02*
X030704Y026910D01*
X030699Y026902D02*
X031151Y026902D01*
X031068Y026919D02*
X030710Y026919D01*
X030716Y026927D02*
X031026Y026927D01*
X030984Y026936D02*
X030721Y026936D01*
X030727Y026944D02*
X030943Y026944D01*
X030901Y026953D02*
X030733Y026953D01*
X030738Y026961D02*
X030860Y026961D01*
X030818Y026970D02*
X030744Y026970D01*
X030750Y026978D02*
X030777Y026978D01*
X030710Y026868D02*
X031069Y026868D01*
X031027Y026859D02*
X030716Y026859D01*
X030721Y026851D02*
X030986Y026851D01*
X030944Y026842D02*
X030727Y026842D01*
X030733Y026834D02*
X030903Y026834D01*
X030861Y026825D02*
X030738Y026825D01*
X030744Y026817D02*
X030820Y026817D01*
X030778Y026808D02*
X030750Y026808D01*
X030415Y027395D02*
X030251Y027395D01*
X030253Y027403D02*
X030413Y027403D01*
X030411Y027412D02*
X030254Y027412D01*
X030256Y027420D02*
X030410Y027420D01*
X030408Y027429D02*
X030258Y027429D01*
X030260Y027437D02*
X030406Y027437D01*
X030404Y027446D02*
X030262Y027446D01*
X030264Y027454D02*
X030402Y027454D01*
X030400Y027463D02*
X030265Y027463D01*
X030267Y027471D02*
X030399Y027471D01*
X030397Y027480D02*
X030269Y027480D01*
X030271Y027488D02*
X030395Y027488D01*
X030393Y027497D02*
X030273Y027497D01*
X030275Y027505D02*
X030391Y027505D01*
X030389Y027514D02*
X030277Y027514D01*
X030278Y027522D02*
X030387Y027522D01*
X030386Y027531D02*
X030280Y027531D01*
X030282Y027539D02*
X030384Y027539D01*
X030382Y027548D02*
X030284Y027548D01*
X030286Y027556D02*
X030380Y027556D01*
X030378Y027565D02*
X030288Y027565D01*
X030289Y027573D02*
X030376Y027573D01*
X030375Y027582D02*
X030291Y027582D01*
X030293Y027590D02*
X030373Y027590D01*
X030371Y027599D02*
X030295Y027599D01*
X030297Y027607D02*
X030369Y027607D01*
X030367Y027616D02*
X030299Y027616D01*
X030301Y027624D02*
X030365Y027624D01*
X030363Y027633D02*
X030302Y027633D01*
X030304Y027641D02*
X030362Y027641D01*
X030360Y027650D02*
X030306Y027650D01*
X030308Y027658D02*
X030358Y027658D01*
X030356Y027667D02*
X030310Y027667D01*
X030312Y027675D02*
X030354Y027675D01*
X030352Y027684D02*
X030314Y027684D01*
X030315Y027692D02*
X030351Y027692D01*
X030349Y027701D02*
X030317Y027701D01*
X030319Y027709D02*
X030347Y027709D01*
X030345Y027718D02*
X030321Y027718D01*
X030323Y027726D02*
X030343Y027726D01*
X030341Y027735D02*
X030325Y027735D01*
X030326Y027743D02*
X030339Y027743D01*
X030338Y027752D02*
X030328Y027752D01*
X030330Y027760D02*
X030336Y027760D01*
X030332Y027769D02*
X030334Y027769D01*
D12*
X015071Y024393D03*
X014303Y026706D03*
X014303Y029080D03*
X015071Y031393D03*
X014303Y033706D03*
X009362Y033706D03*
X009362Y029080D03*
X009362Y026706D03*
X009362Y022080D03*
X009362Y019706D03*
X009362Y015080D03*
X009362Y012706D03*
X009362Y008080D03*
X014303Y008080D03*
X015071Y010393D03*
X014303Y012706D03*
X014303Y015080D03*
X015071Y017393D03*
X014303Y019706D03*
X014303Y022080D03*
D13*
X005833Y019393D03*
X005833Y012393D03*
X005833Y026393D03*
X005833Y033393D03*
D14*
X005833Y031425D03*
X005833Y029456D03*
X005833Y024425D03*
X005833Y022456D03*
X005833Y017425D03*
X005833Y015456D03*
X005833Y010425D03*
X005833Y008456D03*
D15*
X017833Y011393D03*
X018333Y012143D03*
X018833Y011393D03*
X018833Y018393D03*
X018333Y019143D03*
X017833Y018393D03*
X017833Y025393D03*
X018333Y026143D03*
X018833Y025393D03*
X018833Y032393D03*
X018333Y033143D03*
X017833Y032393D03*
D16*
X017833Y030393D03*
X018833Y030393D03*
X019333Y028393D03*
X019333Y027393D03*
X021833Y029393D03*
X021833Y030393D03*
X021833Y031393D03*
X021833Y032393D03*
X019333Y034393D03*
X019333Y035393D03*
X016333Y035393D03*
X016333Y034393D03*
X016333Y028393D03*
X016333Y027393D03*
X017833Y023393D03*
X018833Y023393D03*
X019333Y021393D03*
X019333Y020293D03*
X016333Y020293D03*
X016333Y021393D03*
X017833Y016393D03*
X018833Y016393D03*
X019333Y014393D03*
X019333Y013393D03*
X016333Y013393D03*
X016333Y014393D03*
X017833Y009393D03*
X018833Y009393D03*
X030333Y006993D03*
X030333Y005393D03*
X031333Y005393D03*
X033333Y006993D03*
X033833Y021393D03*
X034833Y021393D03*
X034833Y022393D03*
X033833Y022393D03*
X033833Y023393D03*
X034833Y023393D03*
X034833Y024393D03*
X033833Y024393D03*
X033833Y025393D03*
X034833Y025393D03*
X034833Y026393D03*
X033833Y026393D03*
X033833Y027393D03*
X034833Y027393D03*
X034833Y028393D03*
X033833Y028393D03*
X032833Y028393D03*
X032833Y027393D03*
X032833Y026393D03*
X032833Y025393D03*
X032833Y024393D03*
X032833Y023393D03*
X032833Y022393D03*
X032833Y021393D03*
X027833Y021393D03*
X026833Y021393D03*
X025833Y021393D03*
X025833Y022393D03*
X026833Y022393D03*
X026833Y023393D03*
X025833Y023393D03*
X025833Y024393D03*
X026833Y024393D03*
X026833Y025393D03*
X025833Y025393D03*
X025833Y026393D03*
X026833Y026393D03*
X026833Y027393D03*
X025833Y027393D03*
X025833Y028393D03*
X026833Y028393D03*
X027833Y028393D03*
X027833Y027393D03*
X027833Y026393D03*
X027833Y025393D03*
X027833Y024393D03*
X027833Y023393D03*
X027833Y022393D03*
X027833Y029393D03*
X027833Y030393D03*
X026833Y030393D03*
X026833Y029393D03*
X025833Y029393D03*
X025833Y030393D03*
X024833Y030393D03*
X024833Y029393D03*
X024833Y031393D03*
X024833Y032393D03*
X025833Y032393D03*
X025833Y031393D03*
X026833Y031393D03*
X026833Y032393D03*
X027833Y032393D03*
X027833Y031393D03*
X032833Y031393D03*
X032833Y032393D03*
X033833Y032393D03*
X033833Y031393D03*
X034833Y031393D03*
X034833Y032393D03*
X034833Y030393D03*
X034833Y029393D03*
X033833Y029393D03*
X033833Y030393D03*
X032833Y030393D03*
X032833Y029393D03*
D17*
X016333Y029393D03*
X016333Y026393D03*
X016333Y022393D03*
X016333Y019393D03*
X016333Y015393D03*
X016333Y012393D03*
X016333Y008393D03*
X016333Y033393D03*
D18*
X012833Y005813D02*
X012833Y005173D01*
X011833Y005173D02*
X011833Y005813D01*
X010833Y005813D02*
X010833Y005173D01*
D19*
X016833Y006393D03*
X019933Y006393D03*
X024433Y012193D03*
D20*
X024433Y011193D03*
X019933Y005393D03*
X016833Y005393D03*
D21*
X027833Y005763D02*
X027833Y005023D01*
X028833Y005023D02*
X028833Y005763D01*
D22*
X026017Y007252D02*
X026017Y008039D01*
X024442Y008826D02*
X023655Y008826D01*
X023655Y006346D02*
X024442Y006346D01*
D23*
X025833Y021393D02*
X026833Y021393D01*
X027833Y021393D01*
X027833Y022393D02*
X026833Y022393D01*
X025833Y022393D01*
X025833Y023393D02*
X026833Y023393D01*
X027833Y023393D01*
X027833Y024393D02*
X026833Y024393D01*
X026833Y025393D02*
X025833Y025393D01*
X026833Y025393D02*
X027833Y025393D01*
X027833Y026393D02*
X026833Y026393D01*
X025833Y026393D01*
X025833Y027393D02*
X026833Y027393D01*
X027833Y027393D01*
X027833Y028393D02*
X026833Y028393D01*
X025833Y028393D01*
X032833Y028393D02*
X033833Y028393D01*
X034833Y028393D01*
X034833Y027393D02*
X033833Y027393D01*
X032833Y027393D01*
X032833Y026393D02*
X033833Y026393D01*
X034833Y026393D01*
X034833Y025393D02*
X033833Y025393D01*
X032833Y025393D01*
X032833Y024393D02*
X033833Y024393D01*
X034833Y024393D01*
X034833Y023393D02*
X033833Y023393D01*
X032833Y023393D01*
X033833Y022393D02*
X034833Y022393D01*
X034833Y029393D02*
X033833Y029393D01*
X032833Y029393D01*
X032833Y030393D02*
X033833Y030393D01*
X034833Y030393D01*
X034833Y031393D02*
X033833Y031393D01*
X032833Y031393D01*
X032833Y032393D02*
X033833Y032393D01*
X034833Y032393D01*
D24*
X035343Y030393D02*
X037173Y030393D01*
X037173Y005460D01*
X036508Y005460D01*
X036503Y005446D02*
X036623Y005736D01*
X036623Y006050D01*
X036503Y006341D01*
X036280Y006563D01*
X035990Y006683D01*
X035676Y006683D01*
X035385Y006563D01*
X035163Y006341D01*
X035043Y006050D01*
X035043Y005736D01*
X035163Y005446D01*
X035385Y005224D01*
X035676Y005103D01*
X035990Y005103D01*
X036280Y005224D01*
X036503Y005446D01*
X036557Y005578D02*
X037173Y005578D01*
X037173Y005460D02*
X036267Y004553D01*
X029078Y004553D01*
X029111Y004570D01*
X029178Y004619D01*
X029237Y004678D01*
X029286Y004746D01*
X029324Y004820D01*
X029350Y004899D01*
X029363Y004982D01*
X029363Y005343D01*
X028883Y005343D01*
X028883Y005443D01*
X029363Y005443D01*
X029363Y005805D01*
X029350Y005887D01*
X029324Y005967D01*
X029286Y006041D01*
X029237Y006109D01*
X029178Y006168D01*
X029111Y006217D01*
X029036Y006254D01*
X028957Y006280D01*
X028883Y006292D01*
X028883Y005443D01*
X028783Y005443D01*
X028783Y006292D01*
X028709Y006280D01*
X028629Y006254D01*
X028555Y006217D01*
X028488Y006168D01*
X028429Y006109D01*
X028380Y006041D01*
X028342Y005967D01*
X028324Y005911D01*
X028265Y006052D01*
X028122Y006196D01*
X027934Y006273D01*
X027731Y006273D01*
X027544Y006196D01*
X027401Y006052D01*
X026986Y006052D01*
X026867Y005934D02*
X027352Y005934D01*
X027323Y005865D02*
X027323Y004922D01*
X027401Y004734D01*
X027544Y004591D01*
X027635Y004553D01*
X016333Y004553D01*
X016333Y004923D01*
X016926Y004923D01*
X016938Y004928D01*
X017216Y004928D01*
X017261Y004973D01*
X019505Y004973D01*
X019550Y004928D01*
X020316Y004928D01*
X020361Y004973D01*
X025816Y004973D01*
X025971Y005037D01*
X028947Y008013D01*
X031719Y008013D01*
X032823Y006909D01*
X032823Y006892D01*
X032901Y006704D01*
X033044Y006561D01*
X033231Y006483D01*
X033434Y006483D01*
X033622Y006561D01*
X033765Y006704D01*
X033843Y006892D01*
X033843Y007095D01*
X033765Y007282D01*
X033622Y007426D01*
X033434Y007503D01*
X033417Y007503D01*
X032249Y008671D01*
X032131Y008789D01*
X031976Y008853D01*
X028689Y008853D01*
X028535Y008789D01*
X028417Y008671D01*
X025559Y005813D01*
X024595Y005813D01*
X024655Y005833D01*
X024733Y005872D01*
X024803Y005924D01*
X024865Y005985D01*
X024916Y006056D01*
X024956Y006134D01*
X024982Y006216D01*
X024996Y006302D01*
X024996Y006308D01*
X024087Y006308D01*
X024087Y006384D01*
X024996Y006384D01*
X024996Y006390D01*
X024982Y006476D01*
X024956Y006559D01*
X024916Y006636D01*
X024865Y006707D01*
X024803Y006768D01*
X024733Y006820D01*
X024655Y006859D01*
X024572Y006886D01*
X024486Y006900D01*
X024087Y006900D01*
X024087Y006384D01*
X024010Y006384D01*
X024010Y006308D01*
X023101Y006308D01*
X023101Y006302D01*
X023115Y006216D01*
X023142Y006134D01*
X023181Y006056D01*
X023233Y005985D01*
X023294Y005924D01*
X023365Y005872D01*
X023442Y005833D01*
X023503Y005813D01*
X020361Y005813D01*
X020316Y005858D01*
X019550Y005858D01*
X019505Y005813D01*
X017261Y005813D01*
X017216Y005858D01*
X016938Y005858D01*
X016926Y005863D01*
X016587Y005863D01*
X016333Y006118D01*
X016333Y007913D01*
X016428Y007913D01*
X016605Y007986D01*
X016740Y008121D01*
X016813Y008298D01*
X016813Y008489D01*
X016740Y008665D01*
X016605Y008800D01*
X016428Y008873D01*
X016333Y008873D01*
X016333Y009369D01*
X016403Y009439D01*
X016487Y009523D01*
X016533Y009634D01*
X016533Y011957D01*
X016605Y011986D01*
X016740Y012121D01*
X016813Y012298D01*
X016813Y012489D01*
X016740Y012665D01*
X016605Y012800D01*
X016428Y012873D01*
X016333Y012873D01*
X016333Y012883D01*
X016434Y012883D01*
X016622Y012961D01*
X016765Y013104D01*
X016843Y013292D01*
X016843Y013495D01*
X016765Y013682D01*
X016622Y013826D01*
X016459Y013893D01*
X016622Y013961D01*
X016765Y014104D01*
X016843Y014292D01*
X016843Y014495D01*
X016765Y014682D01*
X016622Y014826D01*
X016434Y014903D01*
X016333Y014903D01*
X016333Y014913D01*
X016428Y014913D01*
X016605Y014986D01*
X016740Y015121D01*
X016813Y015298D01*
X016813Y015489D01*
X016740Y015665D01*
X016605Y015800D01*
X016428Y015873D01*
X016333Y015873D01*
X016333Y016469D01*
X016587Y016723D01*
X016633Y016834D01*
X016633Y019014D01*
X016740Y019121D01*
X016813Y019298D01*
X016813Y019489D01*
X016740Y019665D01*
X016605Y019800D01*
X016540Y019827D01*
X016622Y019861D01*
X016765Y020004D01*
X016843Y020192D01*
X016843Y020395D01*
X016765Y020582D01*
X016622Y020726D01*
X016434Y020803D01*
X016333Y020803D01*
X016333Y020883D01*
X016434Y020883D01*
X016622Y020961D01*
X016765Y021104D01*
X016843Y021292D01*
X016843Y021495D01*
X016765Y021682D01*
X016622Y021826D01*
X016434Y021903D01*
X016333Y021903D01*
X016333Y021913D01*
X016428Y021913D01*
X016605Y021986D01*
X016740Y022121D01*
X016813Y022298D01*
X016813Y022489D01*
X016740Y022665D01*
X016605Y022800D01*
X016428Y022873D01*
X016333Y022873D01*
X016333Y023469D01*
X016587Y023723D01*
X016633Y023834D01*
X016633Y026014D01*
X016740Y026121D01*
X016813Y026298D01*
X016813Y026489D01*
X016740Y026665D01*
X016605Y026800D01*
X016428Y026873D01*
X016333Y026873D01*
X016333Y026883D01*
X016434Y026883D01*
X016622Y026961D01*
X016765Y027104D01*
X016843Y027292D01*
X016843Y027495D01*
X016765Y027682D01*
X016622Y027826D01*
X016459Y027893D01*
X016622Y027961D01*
X016765Y028104D01*
X016843Y028292D01*
X016843Y028495D01*
X016765Y028682D01*
X016622Y028826D01*
X016434Y028903D01*
X016333Y028903D01*
X016333Y028913D01*
X016428Y028913D01*
X016605Y028986D01*
X016740Y029121D01*
X016813Y029298D01*
X016813Y029489D01*
X016740Y029665D01*
X016605Y029800D01*
X016428Y029873D01*
X016333Y029873D01*
X016333Y030369D01*
X016587Y030623D01*
X016633Y030734D01*
X016633Y033014D01*
X016740Y033121D01*
X016813Y033298D01*
X016813Y033489D01*
X016740Y033665D01*
X016605Y033800D01*
X016428Y033873D01*
X016333Y033873D01*
X016333Y033883D01*
X016434Y033883D01*
X016622Y033961D01*
X016765Y034104D01*
X016843Y034292D01*
X016843Y034495D01*
X016765Y034682D01*
X016622Y034826D01*
X016459Y034893D01*
X016622Y034961D01*
X016765Y035104D01*
X016843Y035292D01*
X016843Y035495D01*
X016765Y035682D01*
X016622Y035826D01*
X016434Y035903D01*
X016333Y035903D01*
X016333Y037233D01*
X026333Y037233D01*
X026333Y032693D01*
X026254Y032693D01*
X026122Y032826D01*
X025934Y032903D01*
X025731Y032903D01*
X025544Y032826D01*
X025412Y032693D01*
X025254Y032693D01*
X025122Y032826D01*
X024934Y032903D01*
X024731Y032903D01*
X024544Y032826D01*
X024401Y032682D01*
X024323Y032495D01*
X024323Y032292D01*
X024401Y032104D01*
X024544Y031961D01*
X024707Y031893D01*
X024544Y031826D01*
X024401Y031682D01*
X024323Y031495D01*
X024323Y031292D01*
X024401Y031104D01*
X024544Y030961D01*
X024707Y030893D01*
X024544Y030826D01*
X024401Y030682D01*
X024323Y030495D01*
X024323Y030292D01*
X024401Y030104D01*
X024544Y029961D01*
X024707Y029893D01*
X024544Y029826D01*
X024401Y029682D01*
X024323Y029495D01*
X024323Y029292D01*
X024401Y029104D01*
X024544Y028961D01*
X024731Y028883D01*
X024934Y028883D01*
X025122Y028961D01*
X025254Y029093D01*
X025412Y029093D01*
X025544Y028961D01*
X025707Y028893D01*
X025544Y028826D01*
X025401Y028682D01*
X025323Y028495D01*
X025323Y028292D01*
X025401Y028104D01*
X025544Y027961D01*
X025707Y027893D01*
X025544Y027826D01*
X025401Y027682D01*
X025323Y027495D01*
X025323Y027292D01*
X025401Y027104D01*
X025544Y026961D01*
X025707Y026893D01*
X025544Y026826D01*
X025401Y026682D01*
X025323Y026495D01*
X025323Y026292D01*
X025401Y026104D01*
X025544Y025961D01*
X025707Y025893D01*
X025544Y025826D01*
X025401Y025682D01*
X025323Y025495D01*
X025323Y025292D01*
X025401Y025104D01*
X025544Y024961D01*
X025685Y024903D01*
X025629Y024884D01*
X025555Y024847D01*
X025488Y024798D01*
X025429Y024739D01*
X025380Y024671D01*
X025342Y024597D01*
X025316Y024517D01*
X025303Y024435D01*
X025303Y024433D01*
X025793Y024433D01*
X025793Y024353D01*
X025303Y024353D01*
X025303Y024352D01*
X025316Y024269D01*
X025342Y024190D01*
X025380Y024116D01*
X025429Y024048D01*
X025488Y023989D01*
X025555Y023940D01*
X025629Y023902D01*
X025685Y023884D01*
X025544Y023826D01*
X025401Y023682D01*
X025323Y023495D01*
X025323Y023292D01*
X025401Y023104D01*
X025544Y022961D01*
X025707Y022893D01*
X025544Y022826D01*
X025401Y022682D01*
X025323Y022495D01*
X025323Y022292D01*
X025401Y022104D01*
X025544Y021961D01*
X025707Y021893D01*
X025544Y021826D01*
X025401Y021682D01*
X025323Y021495D01*
X025323Y021292D01*
X025401Y021104D01*
X025544Y020961D01*
X025731Y020883D01*
X025934Y020883D01*
X026122Y020961D01*
X026214Y021053D01*
X026452Y021053D01*
X026544Y020961D01*
X026731Y020883D01*
X026934Y020883D01*
X027122Y020961D01*
X027214Y021053D01*
X027452Y021053D01*
X027544Y020961D01*
X027731Y020883D01*
X027934Y020883D01*
X028122Y020961D01*
X028265Y021104D01*
X028343Y021292D01*
X028343Y021495D01*
X028265Y021682D01*
X028122Y021826D01*
X027959Y021893D01*
X028122Y021961D01*
X028265Y022104D01*
X028343Y022292D01*
X028343Y022495D01*
X028265Y022682D01*
X028122Y022826D01*
X027959Y022893D01*
X028122Y022961D01*
X028265Y023104D01*
X028343Y023292D01*
X028343Y023495D01*
X028265Y023682D01*
X028122Y023826D01*
X027981Y023884D01*
X028036Y023902D01*
X028111Y023940D01*
X028178Y023989D01*
X028237Y024048D01*
X028286Y024116D01*
X028324Y024190D01*
X028350Y024269D01*
X028363Y024352D01*
X028363Y024353D01*
X027873Y024353D01*
X027873Y023903D01*
X027793Y023903D01*
X027793Y024353D01*
X027873Y024353D01*
X027873Y024433D01*
X028363Y024433D01*
X028363Y024435D01*
X028350Y024517D01*
X028324Y024597D01*
X028286Y024671D01*
X028237Y024739D01*
X028178Y024798D01*
X028111Y024847D01*
X028036Y024884D01*
X027981Y024903D01*
X028122Y024961D01*
X028265Y025104D01*
X028343Y025292D01*
X028343Y025495D01*
X028265Y025682D01*
X028122Y025826D01*
X027959Y025893D01*
X028122Y025961D01*
X028265Y026104D01*
X028343Y026292D01*
X028343Y026495D01*
X028265Y026682D01*
X028122Y026826D01*
X027959Y026893D01*
X028122Y026961D01*
X028265Y027104D01*
X028343Y027292D01*
X028343Y027495D01*
X028265Y027682D01*
X028122Y027826D01*
X027959Y027893D01*
X028122Y027961D01*
X028265Y028104D01*
X028343Y028292D01*
X028343Y028495D01*
X028265Y028682D01*
X028122Y028826D01*
X027959Y028893D01*
X028122Y028961D01*
X028265Y029104D01*
X028343Y029292D01*
X028343Y029495D01*
X028265Y029682D01*
X028122Y029826D01*
X027959Y029893D01*
X028122Y029961D01*
X028265Y030104D01*
X028343Y030292D01*
X028343Y030393D01*
X032323Y030393D01*
X032323Y030292D01*
X032401Y030104D01*
X032544Y029961D01*
X032707Y029893D01*
X032544Y029826D01*
X032401Y029682D01*
X032323Y029495D01*
X032323Y029292D01*
X032401Y029104D01*
X032544Y028961D01*
X032707Y028893D01*
X032544Y028826D01*
X032401Y028682D01*
X032323Y028495D01*
X032323Y028292D01*
X032401Y028104D01*
X032544Y027961D01*
X032707Y027893D01*
X032544Y027826D01*
X032401Y027682D01*
X032323Y027495D01*
X032323Y027292D01*
X032401Y027104D01*
X032544Y026961D01*
X032707Y026893D01*
X032544Y026826D01*
X032401Y026682D01*
X032323Y026495D01*
X032323Y026292D01*
X032401Y026104D01*
X032544Y025961D01*
X032707Y025893D01*
X032544Y025826D01*
X032401Y025682D01*
X032323Y025495D01*
X032323Y025292D01*
X032401Y025104D01*
X032544Y024961D01*
X032707Y024893D01*
X032544Y024826D01*
X032401Y024682D01*
X032323Y024495D01*
X032323Y024292D01*
X032401Y024104D01*
X032544Y023961D01*
X032707Y023893D01*
X032544Y023826D01*
X032401Y023682D01*
X032323Y023495D01*
X032323Y023292D01*
X032401Y023104D01*
X032544Y022961D01*
X032685Y022903D01*
X032629Y022884D01*
X032555Y022847D01*
X032488Y022798D01*
X032429Y022739D01*
X032380Y022671D01*
X032342Y022597D01*
X032316Y022517D01*
X032303Y022435D01*
X032303Y022433D01*
X032793Y022433D01*
X032793Y022353D01*
X032303Y022353D01*
X032303Y022352D01*
X032316Y022269D01*
X032342Y022190D01*
X032380Y022116D01*
X032429Y022048D01*
X032488Y021989D01*
X032555Y021940D01*
X032629Y021902D01*
X032685Y021884D01*
X032544Y021826D01*
X032401Y021682D01*
X032323Y021495D01*
X032323Y021292D01*
X032401Y021104D01*
X032544Y020961D01*
X032731Y020883D01*
X032934Y020883D01*
X033122Y020961D01*
X033134Y020973D01*
X033532Y020973D01*
X033544Y020961D01*
X033731Y020883D01*
X033934Y020883D01*
X034122Y020961D01*
X034134Y020973D01*
X034532Y020973D01*
X034544Y020961D01*
X034731Y020883D01*
X034934Y020883D01*
X035122Y020961D01*
X035265Y021104D01*
X035343Y021292D01*
X035343Y021495D01*
X035265Y021682D01*
X035122Y021826D01*
X034981Y021884D01*
X035036Y021902D01*
X035111Y021940D01*
X035178Y021989D01*
X035237Y022048D01*
X035286Y022116D01*
X035324Y022190D01*
X035350Y022269D01*
X035363Y022352D01*
X035363Y022353D01*
X034873Y022353D01*
X034873Y021903D01*
X034793Y021903D01*
X034793Y022353D01*
X034873Y022353D01*
X034873Y022433D01*
X035363Y022433D01*
X035363Y022435D01*
X035350Y022517D01*
X035324Y022597D01*
X035286Y022671D01*
X035237Y022739D01*
X035178Y022798D01*
X035111Y022847D01*
X035036Y022884D01*
X034981Y022903D01*
X035122Y022961D01*
X035265Y023104D01*
X035343Y023292D01*
X035343Y023495D01*
X035265Y023682D01*
X035122Y023826D01*
X034959Y023893D01*
X035122Y023961D01*
X035265Y024104D01*
X035343Y024292D01*
X035343Y024495D01*
X035265Y024682D01*
X035122Y024826D01*
X034959Y024893D01*
X035122Y024961D01*
X035265Y025104D01*
X035343Y025292D01*
X035343Y025495D01*
X035265Y025682D01*
X035122Y025826D01*
X034959Y025893D01*
X035122Y025961D01*
X035265Y026104D01*
X035343Y026292D01*
X035343Y026495D01*
X035265Y026682D01*
X035122Y026826D01*
X034959Y026893D01*
X035122Y026961D01*
X035265Y027104D01*
X035343Y027292D01*
X035343Y027495D01*
X035265Y027682D01*
X035122Y027826D01*
X034959Y027893D01*
X035122Y027961D01*
X035265Y028104D01*
X035343Y028292D01*
X035343Y028495D01*
X035265Y028682D01*
X035122Y028826D01*
X034959Y028893D01*
X035122Y028961D01*
X035265Y029104D01*
X035343Y029292D01*
X035343Y029495D01*
X035265Y029682D01*
X035122Y029826D01*
X034959Y029893D01*
X035122Y029961D01*
X035265Y030104D01*
X035343Y030292D01*
X035343Y030393D01*
X035343Y030345D02*
X037173Y030345D01*
X037173Y030226D02*
X035316Y030226D01*
X035267Y030108D02*
X037173Y030108D01*
X037173Y029989D02*
X035150Y029989D01*
X035013Y029871D02*
X037173Y029871D01*
X037173Y029752D02*
X035195Y029752D01*
X035285Y029634D02*
X037173Y029634D01*
X037173Y029515D02*
X035334Y029515D01*
X035343Y029397D02*
X037173Y029397D01*
X037173Y029278D02*
X035337Y029278D01*
X035288Y029160D02*
X037173Y029160D01*
X037173Y029041D02*
X035202Y029041D01*
X035030Y028923D02*
X037173Y028923D01*
X037173Y028804D02*
X035143Y028804D01*
X035262Y028686D02*
X037173Y028686D01*
X037173Y028567D02*
X035313Y028567D01*
X035343Y028449D02*
X037173Y028449D01*
X037173Y028330D02*
X035343Y028330D01*
X035310Y028212D02*
X037173Y028212D01*
X037173Y028093D02*
X035254Y028093D01*
X035136Y027975D02*
X037173Y027975D01*
X037173Y027856D02*
X035048Y027856D01*
X035210Y027738D02*
X037173Y027738D01*
X037173Y027619D02*
X035291Y027619D01*
X035340Y027501D02*
X037173Y027501D01*
X037173Y027382D02*
X035343Y027382D01*
X035331Y027264D02*
X037173Y027264D01*
X037173Y027145D02*
X035282Y027145D01*
X035188Y027027D02*
X037173Y027027D01*
X037173Y026908D02*
X034995Y026908D01*
X035158Y026790D02*
X037173Y026790D01*
X037173Y026671D02*
X035270Y026671D01*
X035319Y026553D02*
X037173Y026553D01*
X037173Y026434D02*
X035343Y026434D01*
X035343Y026316D02*
X037173Y026316D01*
X037173Y026197D02*
X035304Y026197D01*
X035240Y026079D02*
X037173Y026079D01*
X037173Y025960D02*
X035120Y025960D01*
X035083Y025842D02*
X037173Y025842D01*
X037173Y025723D02*
X035224Y025723D01*
X035297Y025605D02*
X037173Y025605D01*
X037173Y025486D02*
X035343Y025486D01*
X035343Y025368D02*
X037173Y025368D01*
X037173Y025249D02*
X035325Y025249D01*
X035276Y025131D02*
X037173Y025131D01*
X037173Y025012D02*
X035173Y025012D01*
X035172Y024775D02*
X037173Y024775D01*
X037173Y024657D02*
X035276Y024657D01*
X035325Y024538D02*
X037173Y024538D01*
X037173Y024420D02*
X035343Y024420D01*
X035343Y024301D02*
X037173Y024301D01*
X037173Y024183D02*
X035298Y024183D01*
X035225Y024064D02*
X037173Y024064D01*
X037173Y023946D02*
X035085Y023946D01*
X035118Y023827D02*
X037173Y023827D01*
X037173Y023709D02*
X035239Y023709D01*
X035303Y023590D02*
X037173Y023590D01*
X037173Y023472D02*
X035343Y023472D01*
X035343Y023353D02*
X037173Y023353D01*
X037173Y023235D02*
X035319Y023235D01*
X035270Y023116D02*
X037173Y023116D01*
X037173Y022998D02*
X035159Y022998D01*
X035046Y022879D02*
X037173Y022879D01*
X037173Y022761D02*
X035215Y022761D01*
X035301Y022642D02*
X037173Y022642D01*
X037173Y022524D02*
X035348Y022524D01*
X035353Y022287D02*
X037173Y022287D01*
X037173Y022405D02*
X034873Y022405D01*
X034873Y022433D02*
X034873Y022883D01*
X034793Y022883D01*
X034793Y022433D01*
X034793Y022353D01*
X034363Y022353D01*
X033873Y022353D01*
X033873Y021903D01*
X033793Y021903D01*
X033793Y022353D01*
X033873Y022353D01*
X033873Y022433D01*
X034793Y022433D01*
X034873Y022433D01*
X034793Y022405D02*
X033873Y022405D01*
X033873Y022433D02*
X033873Y022883D01*
X033793Y022883D01*
X033793Y022433D01*
X033793Y022353D01*
X032873Y022353D01*
X032873Y022433D01*
X033303Y022433D01*
X033793Y022433D01*
X033873Y022433D01*
X033793Y022405D02*
X032873Y022405D01*
X032793Y022405D02*
X028343Y022405D01*
X028341Y022287D02*
X032313Y022287D01*
X032353Y022168D02*
X028292Y022168D01*
X028211Y022050D02*
X032427Y022050D01*
X032572Y021931D02*
X028050Y021931D01*
X028135Y021813D02*
X032531Y021813D01*
X032413Y021694D02*
X028253Y021694D01*
X028309Y021576D02*
X032357Y021576D01*
X032323Y021457D02*
X028343Y021457D01*
X028343Y021339D02*
X032323Y021339D01*
X032353Y021220D02*
X028313Y021220D01*
X028263Y021102D02*
X032403Y021102D01*
X032522Y020983D02*
X028144Y020983D01*
X027522Y020983D02*
X027144Y020983D01*
X026522Y020983D02*
X026144Y020983D01*
X025522Y020983D02*
X019670Y020983D01*
X019678Y020989D02*
X019737Y021048D01*
X019786Y021116D01*
X019824Y021190D01*
X019850Y021269D01*
X019863Y021352D01*
X019863Y021365D01*
X019362Y021365D01*
X019362Y021422D01*
X019863Y021422D01*
X019863Y021435D01*
X019850Y021517D01*
X019824Y021597D01*
X019786Y021671D01*
X019737Y021739D01*
X019678Y021798D01*
X019611Y021847D01*
X019536Y021884D01*
X019457Y021910D01*
X019375Y021923D01*
X019362Y021923D01*
X019362Y021422D01*
X019304Y021422D01*
X019304Y021365D01*
X018803Y021365D01*
X018803Y021352D01*
X018816Y021269D01*
X018842Y021190D01*
X018880Y021116D01*
X018929Y021048D01*
X018988Y020989D01*
X019055Y020940D01*
X019129Y020902D01*
X019209Y020876D01*
X019291Y020863D01*
X019304Y020863D01*
X019304Y021365D01*
X019362Y021365D01*
X019362Y020863D01*
X019375Y020863D01*
X019457Y020876D01*
X019536Y020902D01*
X019611Y020940D01*
X019678Y020989D01*
X019776Y021102D02*
X025403Y021102D01*
X025353Y021220D02*
X019834Y021220D01*
X019861Y021339D02*
X025323Y021339D01*
X025323Y021457D02*
X019859Y021457D01*
X019831Y021576D02*
X025357Y021576D01*
X025413Y021694D02*
X019769Y021694D01*
X019657Y021813D02*
X025531Y021813D01*
X025616Y021931D02*
X016472Y021931D01*
X016635Y021813D02*
X019009Y021813D01*
X018988Y021798D02*
X018929Y021739D01*
X018880Y021671D01*
X018842Y021597D01*
X018816Y021517D01*
X018803Y021435D01*
X018803Y021422D01*
X019304Y021422D01*
X019304Y021923D01*
X019291Y021923D01*
X019209Y021910D01*
X019129Y021884D01*
X019055Y021847D01*
X018988Y021798D01*
X018897Y021694D02*
X016753Y021694D01*
X016809Y021576D02*
X018835Y021576D01*
X018806Y021457D02*
X016843Y021457D01*
X016843Y021339D02*
X018805Y021339D01*
X018832Y021220D02*
X016813Y021220D01*
X016763Y021102D02*
X018890Y021102D01*
X018996Y020983D02*
X016644Y020983D01*
X016572Y020746D02*
X019094Y020746D01*
X019044Y020726D02*
X018901Y020582D01*
X018872Y020513D01*
X017942Y020513D01*
X017142Y019713D01*
X017013Y019584D01*
X017013Y016902D01*
X017351Y016564D01*
X017323Y016495D01*
X017323Y016292D01*
X017401Y016104D01*
X017544Y015961D01*
X017731Y015883D01*
X017934Y015883D01*
X018122Y015961D01*
X018265Y016104D01*
X018333Y016268D01*
X018401Y016104D01*
X018544Y015961D01*
X018731Y015883D01*
X018934Y015883D01*
X019122Y015961D01*
X019265Y016104D01*
X019343Y016292D01*
X019343Y016495D01*
X019265Y016682D01*
X019122Y016826D01*
X018934Y016903D01*
X018731Y016903D01*
X018544Y016826D01*
X018401Y016682D01*
X018333Y016519D01*
X018265Y016682D01*
X018122Y016826D01*
X017934Y016903D01*
X017731Y016903D01*
X017663Y016875D01*
X017453Y017084D01*
X017453Y018151D01*
X017651Y017953D01*
X017813Y017953D01*
X017813Y018373D01*
X017853Y018373D01*
X017853Y017953D01*
X018015Y017953D01*
X018273Y018211D01*
X018273Y018373D01*
X017853Y018373D01*
X017853Y018413D01*
X018273Y018413D01*
X018273Y018576D01*
X018015Y018833D01*
X017853Y018833D01*
X017853Y018413D01*
X017813Y018413D01*
X017813Y018833D01*
X017651Y018833D01*
X017453Y018636D01*
X017453Y019402D01*
X018124Y020073D01*
X018872Y020073D01*
X018901Y020004D01*
X019044Y019861D01*
X019231Y019783D01*
X019434Y019783D01*
X019622Y019861D01*
X019765Y020004D01*
X019843Y020192D01*
X019843Y020395D01*
X019765Y020582D01*
X019622Y020726D01*
X019434Y020803D01*
X019231Y020803D01*
X019044Y020726D01*
X018946Y020628D02*
X016720Y020628D01*
X016795Y020509D02*
X017938Y020509D01*
X017819Y020391D02*
X016843Y020391D01*
X016843Y020272D02*
X017701Y020272D01*
X017582Y020154D02*
X016827Y020154D01*
X016778Y020035D02*
X017464Y020035D01*
X017345Y019917D02*
X016678Y019917D01*
X016607Y019798D02*
X017227Y019798D01*
X017108Y019680D02*
X016725Y019680D01*
X016783Y019561D02*
X017013Y019561D01*
X017013Y019443D02*
X016813Y019443D01*
X016813Y019324D02*
X017013Y019324D01*
X017013Y019206D02*
X016775Y019206D01*
X016706Y019087D02*
X017013Y019087D01*
X017013Y018969D02*
X016633Y018969D01*
X016633Y018850D02*
X017013Y018850D01*
X017013Y018732D02*
X016633Y018732D01*
X016633Y018613D02*
X017013Y018613D01*
X017013Y018495D02*
X016633Y018495D01*
X016633Y018376D02*
X017013Y018376D01*
X017013Y018258D02*
X016633Y018258D01*
X016633Y018139D02*
X017013Y018139D01*
X017013Y018021D02*
X016633Y018021D01*
X016633Y017902D02*
X017013Y017902D01*
X017013Y017784D02*
X016633Y017784D01*
X016633Y017665D02*
X017013Y017665D01*
X017013Y017547D02*
X016633Y017547D01*
X016633Y017428D02*
X017013Y017428D01*
X017013Y017310D02*
X016633Y017310D01*
X016633Y017191D02*
X017013Y017191D01*
X017013Y017073D02*
X016633Y017073D01*
X016633Y016954D02*
X017013Y016954D01*
X017079Y016836D02*
X016633Y016836D01*
X016581Y016717D02*
X017198Y016717D01*
X017316Y016599D02*
X016463Y016599D01*
X016344Y016480D02*
X017323Y016480D01*
X017323Y016362D02*
X016333Y016362D01*
X016333Y016243D02*
X017343Y016243D01*
X017392Y016125D02*
X016333Y016125D01*
X016333Y016006D02*
X017499Y016006D01*
X017721Y015888D02*
X016333Y015888D01*
X016636Y015769D02*
X037173Y015769D01*
X037173Y015651D02*
X016746Y015651D01*
X016795Y015532D02*
X037173Y015532D01*
X037173Y015414D02*
X016813Y015414D01*
X016812Y015295D02*
X037173Y015295D01*
X037173Y015177D02*
X016763Y015177D01*
X016677Y015058D02*
X037173Y015058D01*
X037173Y014940D02*
X016492Y014940D01*
X016626Y014821D02*
X019020Y014821D01*
X018988Y014798D02*
X018929Y014739D01*
X018880Y014671D01*
X018842Y014597D01*
X018816Y014517D01*
X018803Y014435D01*
X018803Y014422D01*
X019304Y014422D01*
X019304Y014365D01*
X018803Y014365D01*
X018803Y014352D01*
X018816Y014269D01*
X018842Y014190D01*
X018880Y014116D01*
X018929Y014048D01*
X018988Y013989D01*
X019055Y013940D01*
X019129Y013902D01*
X019185Y013884D01*
X019044Y013826D01*
X018901Y013682D01*
X018872Y013613D01*
X018042Y013613D01*
X017142Y012713D01*
X017013Y012584D01*
X017013Y009902D01*
X017351Y009564D01*
X017323Y009495D01*
X017323Y009292D01*
X017401Y009104D01*
X017544Y008961D01*
X017731Y008883D01*
X017934Y008883D01*
X018122Y008961D01*
X018265Y009104D01*
X018333Y009268D01*
X018401Y009104D01*
X018544Y008961D01*
X018731Y008883D01*
X018934Y008883D01*
X019122Y008961D01*
X019265Y009104D01*
X019343Y009292D01*
X019343Y009495D01*
X019265Y009682D01*
X019122Y009826D01*
X018934Y009903D01*
X018731Y009903D01*
X018544Y009826D01*
X018401Y009682D01*
X018333Y009519D01*
X018265Y009682D01*
X018122Y009826D01*
X017934Y009903D01*
X017731Y009903D01*
X017663Y009875D01*
X017453Y010084D01*
X017453Y011151D01*
X017651Y010953D01*
X017813Y010953D01*
X017813Y011373D01*
X017853Y011373D01*
X017853Y010953D01*
X018015Y010953D01*
X018273Y011211D01*
X018273Y011373D01*
X017853Y011373D01*
X017853Y011413D01*
X018273Y011413D01*
X018273Y011576D01*
X018015Y011833D01*
X017853Y011833D01*
X017853Y011413D01*
X017813Y011413D01*
X017813Y011833D01*
X017651Y011833D01*
X017453Y011636D01*
X017453Y012402D01*
X018224Y013173D01*
X018872Y013173D01*
X018901Y013104D01*
X019044Y012961D01*
X019231Y012883D01*
X019434Y012883D01*
X019622Y012961D01*
X019765Y013104D01*
X019843Y013292D01*
X019843Y013495D01*
X019765Y013682D01*
X019622Y013826D01*
X019481Y013884D01*
X019536Y013902D01*
X019611Y013940D01*
X019678Y013989D01*
X019737Y014048D01*
X019786Y014116D01*
X019824Y014190D01*
X019850Y014269D01*
X019863Y014352D01*
X019863Y014365D01*
X019362Y014365D01*
X019362Y014422D01*
X019863Y014422D01*
X019863Y014435D01*
X019850Y014517D01*
X019824Y014597D01*
X019786Y014671D01*
X019737Y014739D01*
X019678Y014798D01*
X019611Y014847D01*
X019536Y014884D01*
X019457Y014910D01*
X019375Y014923D01*
X019362Y014923D01*
X019362Y014422D01*
X019304Y014422D01*
X019304Y014923D01*
X019291Y014923D01*
X019209Y014910D01*
X019129Y014884D01*
X019055Y014847D01*
X018988Y014798D01*
X018903Y014703D02*
X016745Y014703D01*
X016806Y014584D02*
X018838Y014584D01*
X018808Y014466D02*
X016843Y014466D01*
X016843Y014347D02*
X018804Y014347D01*
X018829Y014229D02*
X016817Y014229D01*
X016768Y014110D02*
X018883Y014110D01*
X018985Y013992D02*
X016653Y013992D01*
X016507Y013873D02*
X019159Y013873D01*
X018973Y013755D02*
X016693Y013755D01*
X016784Y013636D02*
X018882Y013636D01*
X019507Y013873D02*
X037173Y013873D01*
X037173Y013755D02*
X019693Y013755D01*
X019784Y013636D02*
X037173Y013636D01*
X037173Y013518D02*
X019833Y013518D01*
X019843Y013399D02*
X037173Y013399D01*
X037173Y013281D02*
X019838Y013281D01*
X019789Y013162D02*
X037173Y013162D01*
X037173Y013044D02*
X019705Y013044D01*
X019536Y012925D02*
X037173Y012925D01*
X037173Y012807D02*
X017858Y012807D01*
X017976Y012925D02*
X019130Y012925D01*
X018961Y013044D02*
X018095Y013044D01*
X018213Y013162D02*
X018877Y013162D01*
X018507Y012563D02*
X018159Y012563D01*
X017913Y012317D01*
X017913Y011969D01*
X018159Y011723D01*
X018507Y011723D01*
X018753Y011969D01*
X018753Y012317D01*
X018507Y012563D01*
X018619Y012451D02*
X024021Y012451D01*
X024018Y012448D02*
X023983Y012379D01*
X023960Y012307D01*
X023948Y012231D01*
X023948Y012202D01*
X024424Y012202D01*
X024424Y012184D01*
X024442Y012184D01*
X024442Y011708D01*
X024471Y011708D01*
X024547Y011720D01*
X024619Y011744D01*
X024687Y011778D01*
X024749Y011823D01*
X024803Y011877D01*
X024848Y011939D01*
X024882Y012007D01*
X024906Y012080D01*
X024918Y012155D01*
X024918Y012184D01*
X024442Y012184D01*
X024442Y012202D01*
X024918Y012202D01*
X024918Y012231D01*
X024906Y012307D01*
X024882Y012379D01*
X024848Y012448D01*
X024803Y012509D01*
X024749Y012563D01*
X024687Y012608D01*
X024619Y012643D01*
X024547Y012666D01*
X024471Y012678D01*
X024442Y012678D01*
X024442Y012202D01*
X024424Y012202D01*
X024424Y012678D01*
X024395Y012678D01*
X024319Y012666D01*
X024247Y012643D01*
X024179Y012608D01*
X024117Y012563D01*
X024063Y012509D01*
X024018Y012448D01*
X023968Y012333D02*
X018737Y012333D01*
X018753Y012214D02*
X023948Y012214D01*
X023948Y012184D02*
X023948Y012155D01*
X023960Y012080D01*
X023983Y012007D01*
X024018Y011939D01*
X024063Y011877D01*
X024117Y011823D01*
X024179Y011778D01*
X024247Y011744D01*
X024319Y011720D01*
X024395Y011708D01*
X024424Y011708D01*
X024424Y012184D01*
X023948Y012184D01*
X023957Y012096D02*
X018753Y012096D01*
X018753Y011977D02*
X023999Y011977D01*
X024082Y011859D02*
X018642Y011859D01*
X018659Y011813D02*
X018413Y011567D01*
X018413Y011219D01*
X018659Y010973D01*
X019007Y010973D01*
X019253Y011219D01*
X019253Y011567D01*
X019007Y011813D01*
X018659Y011813D01*
X018586Y011740D02*
X018524Y011740D01*
X018467Y011622D02*
X018227Y011622D01*
X018273Y011503D02*
X018413Y011503D01*
X018413Y011385D02*
X017853Y011385D01*
X017853Y011503D02*
X017813Y011503D01*
X017813Y011622D02*
X017853Y011622D01*
X017853Y011740D02*
X017813Y011740D01*
X018023Y011859D02*
X017453Y011859D01*
X017453Y011977D02*
X017913Y011977D01*
X017913Y012096D02*
X017453Y012096D01*
X017453Y012214D02*
X017913Y012214D01*
X017928Y012333D02*
X017453Y012333D01*
X017502Y012451D02*
X018047Y012451D01*
X017739Y012688D02*
X037173Y012688D01*
X037173Y012570D02*
X024740Y012570D01*
X024845Y012451D02*
X037173Y012451D01*
X037173Y012333D02*
X024898Y012333D01*
X024918Y012214D02*
X037173Y012214D01*
X037173Y012096D02*
X024909Y012096D01*
X024867Y011977D02*
X037173Y011977D01*
X037173Y011859D02*
X024784Y011859D01*
X024816Y011658D02*
X024050Y011658D01*
X023968Y011576D01*
X023968Y010810D01*
X024050Y010728D01*
X024816Y010728D01*
X024898Y010810D01*
X024898Y011576D01*
X024816Y011658D01*
X024852Y011622D02*
X037173Y011622D01*
X037173Y011740D02*
X024608Y011740D01*
X024442Y011740D02*
X024424Y011740D01*
X024424Y011859D02*
X024442Y011859D01*
X024442Y011977D02*
X024424Y011977D01*
X024424Y012096D02*
X024442Y012096D01*
X024442Y012214D02*
X024424Y012214D01*
X024424Y012333D02*
X024442Y012333D01*
X024442Y012451D02*
X024424Y012451D01*
X024424Y012570D02*
X024442Y012570D01*
X024126Y012570D02*
X017621Y012570D01*
X017354Y012925D02*
X016536Y012925D01*
X016589Y012807D02*
X017235Y012807D01*
X017117Y012688D02*
X016717Y012688D01*
X016779Y012570D02*
X017013Y012570D01*
X017013Y012451D02*
X016813Y012451D01*
X016813Y012333D02*
X017013Y012333D01*
X017013Y012214D02*
X016778Y012214D01*
X016714Y012096D02*
X017013Y012096D01*
X017013Y011977D02*
X016583Y011977D01*
X016533Y011859D02*
X017013Y011859D01*
X017013Y011740D02*
X016533Y011740D01*
X016533Y011622D02*
X017013Y011622D01*
X017013Y011503D02*
X016533Y011503D01*
X016533Y011385D02*
X017013Y011385D01*
X017013Y011266D02*
X016533Y011266D01*
X016533Y011148D02*
X017013Y011148D01*
X017013Y011029D02*
X016533Y011029D01*
X016533Y010911D02*
X017013Y010911D01*
X017013Y010792D02*
X016533Y010792D01*
X016533Y010674D02*
X017013Y010674D01*
X017013Y010555D02*
X016533Y010555D01*
X016533Y010437D02*
X017013Y010437D01*
X017013Y010318D02*
X016533Y010318D01*
X016533Y010200D02*
X017013Y010200D01*
X017013Y010081D02*
X016533Y010081D01*
X016533Y009963D02*
X017013Y009963D01*
X017071Y009844D02*
X016533Y009844D01*
X016533Y009726D02*
X017189Y009726D01*
X017308Y009607D02*
X016522Y009607D01*
X016453Y009489D02*
X017323Y009489D01*
X017323Y009370D02*
X016334Y009370D01*
X016333Y009252D02*
X017340Y009252D01*
X017389Y009133D02*
X016333Y009133D01*
X016333Y009015D02*
X017490Y009015D01*
X017700Y008896D02*
X016333Y008896D01*
X016627Y008778D02*
X023121Y008778D01*
X023121Y008720D02*
X023203Y008524D01*
X023353Y008374D01*
X023549Y008293D01*
X024549Y008293D01*
X024745Y008374D01*
X024895Y008524D01*
X024976Y008720D01*
X024976Y008933D01*
X024895Y009129D01*
X024745Y009279D01*
X024549Y009360D01*
X023549Y009360D01*
X023353Y009279D01*
X023203Y009129D01*
X023121Y008933D01*
X023121Y008720D01*
X023147Y008659D02*
X016742Y008659D01*
X016791Y008541D02*
X023196Y008541D01*
X023304Y008422D02*
X016813Y008422D01*
X016813Y008304D02*
X023522Y008304D01*
X023121Y008896D02*
X018966Y008896D01*
X019176Y009015D02*
X023155Y009015D01*
X023207Y009133D02*
X019277Y009133D01*
X019326Y009252D02*
X023326Y009252D01*
X024772Y009252D02*
X037173Y009252D01*
X037173Y009370D02*
X019343Y009370D01*
X019343Y009489D02*
X037173Y009489D01*
X037173Y009607D02*
X019296Y009607D01*
X019222Y009726D02*
X037173Y009726D01*
X037173Y009844D02*
X019077Y009844D01*
X018589Y009844D02*
X018077Y009844D01*
X018222Y009726D02*
X018444Y009726D01*
X018370Y009607D02*
X018296Y009607D01*
X018326Y009252D02*
X018340Y009252D01*
X018389Y009133D02*
X018277Y009133D01*
X018176Y009015D02*
X018490Y009015D01*
X018700Y008896D02*
X017966Y008896D01*
X017575Y009963D02*
X037173Y009963D01*
X037173Y010081D02*
X017456Y010081D01*
X017453Y010200D02*
X037173Y010200D01*
X037173Y010318D02*
X017453Y010318D01*
X017453Y010437D02*
X037173Y010437D01*
X037173Y010555D02*
X017453Y010555D01*
X017453Y010674D02*
X037173Y010674D01*
X037173Y010792D02*
X024880Y010792D01*
X024898Y010911D02*
X037173Y010911D01*
X037173Y011029D02*
X024898Y011029D01*
X024898Y011148D02*
X037173Y011148D01*
X037173Y011266D02*
X024898Y011266D01*
X024898Y011385D02*
X037173Y011385D01*
X037173Y011503D02*
X024898Y011503D01*
X024258Y011740D02*
X019080Y011740D01*
X019198Y011622D02*
X024013Y011622D01*
X023968Y011503D02*
X019253Y011503D01*
X019253Y011385D02*
X023968Y011385D01*
X023968Y011266D02*
X019253Y011266D01*
X019181Y011148D02*
X023968Y011148D01*
X023968Y011029D02*
X019063Y011029D01*
X018603Y011029D02*
X018091Y011029D01*
X018210Y011148D02*
X018484Y011148D01*
X018413Y011266D02*
X018273Y011266D01*
X017853Y011266D02*
X017813Y011266D01*
X017813Y011148D02*
X017853Y011148D01*
X017853Y011029D02*
X017813Y011029D01*
X017575Y011029D02*
X017453Y011029D01*
X017453Y010911D02*
X023968Y010911D01*
X023986Y010792D02*
X017453Y010792D01*
X017453Y011148D02*
X017456Y011148D01*
X017453Y011740D02*
X017558Y011740D01*
X018108Y011740D02*
X018142Y011740D01*
X017472Y013044D02*
X016705Y013044D01*
X016789Y013162D02*
X017591Y013162D01*
X017709Y013281D02*
X016838Y013281D01*
X016843Y013399D02*
X017828Y013399D01*
X017946Y013518D02*
X016833Y013518D01*
X017945Y015888D02*
X018721Y015888D01*
X018945Y015888D02*
X037173Y015888D01*
X037173Y016006D02*
X019167Y016006D01*
X019274Y016125D02*
X037173Y016125D01*
X037173Y016243D02*
X019323Y016243D01*
X019343Y016362D02*
X037173Y016362D01*
X037173Y016480D02*
X019343Y016480D01*
X019300Y016599D02*
X037173Y016599D01*
X037173Y016717D02*
X019230Y016717D01*
X019097Y016836D02*
X037173Y016836D01*
X037173Y016954D02*
X017583Y016954D01*
X017465Y017073D02*
X037173Y017073D01*
X037173Y017191D02*
X017453Y017191D01*
X017453Y017310D02*
X037173Y017310D01*
X037173Y017428D02*
X017453Y017428D01*
X017453Y017547D02*
X037173Y017547D01*
X037173Y017665D02*
X017453Y017665D01*
X017453Y017784D02*
X037173Y017784D01*
X037173Y017902D02*
X017453Y017902D01*
X017453Y018021D02*
X017583Y018021D01*
X017465Y018139D02*
X017453Y018139D01*
X017813Y018139D02*
X017853Y018139D01*
X017853Y018021D02*
X017813Y018021D01*
X017813Y018258D02*
X017853Y018258D01*
X017853Y018376D02*
X018413Y018376D01*
X018413Y018258D02*
X018273Y018258D01*
X018201Y018139D02*
X018493Y018139D01*
X018413Y018219D02*
X018659Y017973D01*
X019007Y017973D01*
X019253Y018219D01*
X019253Y018567D01*
X019007Y018813D01*
X018659Y018813D01*
X018413Y018567D01*
X018413Y018219D01*
X018413Y018495D02*
X018273Y018495D01*
X018235Y018613D02*
X018459Y018613D01*
X018507Y018723D02*
X018753Y018969D01*
X018753Y019317D01*
X018507Y019563D01*
X018159Y019563D01*
X017913Y019317D01*
X017913Y018969D01*
X018159Y018723D01*
X018507Y018723D01*
X018515Y018732D02*
X018578Y018732D01*
X018634Y018850D02*
X037173Y018850D01*
X037173Y018732D02*
X019088Y018732D01*
X019207Y018613D02*
X037173Y018613D01*
X037173Y018495D02*
X019253Y018495D01*
X019253Y018376D02*
X037173Y018376D01*
X037173Y018258D02*
X019253Y018258D01*
X019173Y018139D02*
X037173Y018139D01*
X037173Y018021D02*
X019054Y018021D01*
X018611Y018021D02*
X018083Y018021D01*
X017853Y018495D02*
X017813Y018495D01*
X017813Y018613D02*
X017853Y018613D01*
X017853Y018732D02*
X017813Y018732D01*
X018032Y018850D02*
X017453Y018850D01*
X017453Y018732D02*
X017549Y018732D01*
X017453Y018969D02*
X017913Y018969D01*
X017913Y019087D02*
X017453Y019087D01*
X017453Y019206D02*
X017913Y019206D01*
X017920Y019324D02*
X017453Y019324D01*
X017494Y019443D02*
X018039Y019443D01*
X018157Y019561D02*
X017612Y019561D01*
X017731Y019680D02*
X037173Y019680D01*
X037173Y019798D02*
X019471Y019798D01*
X019678Y019917D02*
X037173Y019917D01*
X037173Y020035D02*
X019778Y020035D01*
X019827Y020154D02*
X037173Y020154D01*
X037173Y020272D02*
X019843Y020272D01*
X019843Y020391D02*
X037173Y020391D01*
X037173Y020509D02*
X019795Y020509D01*
X019720Y020628D02*
X037173Y020628D01*
X037173Y020746D02*
X019572Y020746D01*
X019384Y020865D02*
X037173Y020865D01*
X037173Y020983D02*
X035144Y020983D01*
X035263Y021102D02*
X037173Y021102D01*
X037173Y021220D02*
X035313Y021220D01*
X035343Y021339D02*
X037173Y021339D01*
X037173Y021457D02*
X035343Y021457D01*
X035309Y021576D02*
X037173Y021576D01*
X037173Y021694D02*
X035253Y021694D01*
X035135Y021813D02*
X037173Y021813D01*
X037173Y021931D02*
X035094Y021931D01*
X035239Y022050D02*
X037173Y022050D01*
X037173Y022168D02*
X035313Y022168D01*
X034873Y022168D02*
X034793Y022168D01*
X034793Y022050D02*
X034873Y022050D01*
X034873Y021931D02*
X034793Y021931D01*
X034793Y022287D02*
X034873Y022287D01*
X034873Y022524D02*
X034793Y022524D01*
X034793Y022642D02*
X034873Y022642D01*
X034873Y022761D02*
X034793Y022761D01*
X034793Y022879D02*
X034873Y022879D01*
X033873Y022879D02*
X033793Y022879D01*
X033793Y022761D02*
X033873Y022761D01*
X033873Y022642D02*
X033793Y022642D01*
X033793Y022524D02*
X033873Y022524D01*
X033873Y022287D02*
X033793Y022287D01*
X033793Y022168D02*
X033873Y022168D01*
X033873Y022050D02*
X033793Y022050D01*
X033793Y021931D02*
X033873Y021931D01*
X032619Y022879D02*
X027992Y022879D01*
X028159Y022998D02*
X032507Y022998D01*
X032396Y023116D02*
X028270Y023116D01*
X028319Y023235D02*
X032347Y023235D01*
X032323Y023353D02*
X028343Y023353D01*
X028343Y023472D02*
X032323Y023472D01*
X032363Y023590D02*
X028303Y023590D01*
X028239Y023709D02*
X032427Y023709D01*
X032548Y023827D02*
X028118Y023827D01*
X028119Y023946D02*
X032581Y023946D01*
X032441Y024064D02*
X028249Y024064D01*
X028321Y024183D02*
X032368Y024183D01*
X032323Y024301D02*
X028355Y024301D01*
X028343Y024538D02*
X032341Y024538D01*
X032323Y024420D02*
X027873Y024420D01*
X027873Y024433D02*
X027793Y024433D01*
X027793Y024353D01*
X027363Y024353D01*
X026873Y024353D01*
X026873Y023903D01*
X026793Y023903D01*
X026793Y024353D01*
X026873Y024353D01*
X026873Y024433D01*
X027793Y024433D01*
X027793Y024883D01*
X027873Y024883D01*
X027873Y024433D01*
X027793Y024420D02*
X026873Y024420D01*
X026873Y024433D02*
X026793Y024433D01*
X026793Y024353D01*
X025873Y024353D01*
X025873Y024433D01*
X026303Y024433D01*
X026793Y024433D01*
X026793Y024883D01*
X026873Y024883D01*
X026873Y024433D01*
X026793Y024420D02*
X025873Y024420D01*
X025793Y024420D02*
X017453Y024420D01*
X017453Y024538D02*
X025323Y024538D01*
X025372Y024657D02*
X017453Y024657D01*
X017453Y024775D02*
X025465Y024775D01*
X025658Y024894D02*
X017453Y024894D01*
X017453Y025012D02*
X017592Y025012D01*
X017651Y024953D02*
X017813Y024953D01*
X017813Y025373D01*
X017853Y025373D01*
X017853Y024953D01*
X018015Y024953D01*
X018273Y025211D01*
X018273Y025373D01*
X017853Y025373D01*
X017853Y025413D01*
X018273Y025413D01*
X018273Y025576D01*
X018015Y025833D01*
X017853Y025833D01*
X017853Y025413D01*
X017813Y025413D01*
X017813Y025833D01*
X017651Y025833D01*
X017453Y025636D01*
X017453Y026502D01*
X018124Y027173D01*
X018872Y027173D01*
X018901Y027104D01*
X019044Y026961D01*
X019231Y026883D01*
X019434Y026883D01*
X019622Y026961D01*
X019765Y027104D01*
X019843Y027292D01*
X019843Y027495D01*
X019765Y027682D01*
X019622Y027826D01*
X019481Y027884D01*
X019536Y027902D01*
X019611Y027940D01*
X019678Y027989D01*
X019737Y028048D01*
X019786Y028116D01*
X019824Y028190D01*
X019850Y028269D01*
X019863Y028352D01*
X019863Y028365D01*
X019362Y028365D01*
X019362Y028422D01*
X019863Y028422D01*
X019863Y028435D01*
X019850Y028517D01*
X019824Y028597D01*
X019786Y028671D01*
X019737Y028739D01*
X019678Y028798D01*
X019611Y028847D01*
X019536Y028884D01*
X019457Y028910D01*
X019375Y028923D01*
X019362Y028923D01*
X019304Y028923D01*
X019291Y028923D01*
X019209Y028910D01*
X019129Y028884D01*
X019055Y028847D01*
X018988Y028798D01*
X018929Y028739D01*
X018880Y028671D01*
X018842Y028597D01*
X018816Y028517D01*
X018803Y028435D01*
X018803Y028422D01*
X019304Y028422D01*
X019304Y028365D01*
X018803Y028365D01*
X018803Y028352D01*
X018816Y028269D01*
X018842Y028190D01*
X018880Y028116D01*
X018929Y028048D01*
X018988Y027989D01*
X019055Y027940D01*
X019129Y027902D01*
X019185Y027884D01*
X019044Y027826D01*
X018901Y027682D01*
X018872Y027613D01*
X017942Y027613D01*
X017142Y026813D01*
X017013Y026684D01*
X017013Y023902D01*
X017351Y023564D01*
X017323Y023495D01*
X017323Y023292D01*
X017401Y023104D01*
X017544Y022961D01*
X017731Y022883D01*
X017934Y022883D01*
X018122Y022961D01*
X018265Y023104D01*
X018333Y023268D01*
X018401Y023104D01*
X018544Y022961D01*
X018731Y022883D01*
X018934Y022883D01*
X019122Y022961D01*
X019265Y023104D01*
X019343Y023292D01*
X019343Y023495D01*
X019265Y023682D01*
X019122Y023826D01*
X018934Y023903D01*
X018731Y023903D01*
X018544Y023826D01*
X018401Y023682D01*
X018333Y023519D01*
X018265Y023682D01*
X018122Y023826D01*
X017934Y023903D01*
X017731Y023903D01*
X017663Y023875D01*
X017453Y024084D01*
X017453Y025151D01*
X017651Y024953D01*
X017813Y025012D02*
X017853Y025012D01*
X017853Y025131D02*
X017813Y025131D01*
X017813Y025249D02*
X017853Y025249D01*
X017853Y025368D02*
X017813Y025368D01*
X017813Y025486D02*
X017853Y025486D01*
X017853Y025605D02*
X017813Y025605D01*
X017813Y025723D02*
X017853Y025723D01*
X018040Y025842D02*
X017453Y025842D01*
X017453Y025960D02*
X017922Y025960D01*
X017913Y025969D02*
X018159Y025723D01*
X018507Y025723D01*
X018753Y025969D01*
X018753Y026317D01*
X018507Y026563D01*
X018159Y026563D01*
X017913Y026317D01*
X017913Y025969D01*
X017913Y026079D02*
X017453Y026079D01*
X017453Y026197D02*
X017913Y026197D01*
X017913Y026316D02*
X017453Y026316D01*
X017453Y026434D02*
X018030Y026434D01*
X018149Y026553D02*
X017504Y026553D01*
X017622Y026671D02*
X025396Y026671D01*
X025347Y026553D02*
X018517Y026553D01*
X018636Y026434D02*
X025323Y026434D01*
X025323Y026316D02*
X018753Y026316D01*
X018753Y026197D02*
X025362Y026197D01*
X025426Y026079D02*
X018753Y026079D01*
X018744Y025960D02*
X025545Y025960D01*
X025583Y025842D02*
X018625Y025842D01*
X018659Y025813D02*
X018413Y025567D01*
X018413Y025219D01*
X018659Y024973D01*
X019007Y024973D01*
X019253Y025219D01*
X019253Y025567D01*
X019007Y025813D01*
X018659Y025813D01*
X018569Y025723D02*
X018507Y025723D01*
X018451Y025605D02*
X018244Y025605D01*
X018273Y025486D02*
X018413Y025486D01*
X018413Y025368D02*
X018273Y025368D01*
X018273Y025249D02*
X018413Y025249D01*
X018501Y025131D02*
X018193Y025131D01*
X018074Y025012D02*
X018620Y025012D01*
X019046Y025012D02*
X025493Y025012D01*
X025390Y025131D02*
X019164Y025131D01*
X019253Y025249D02*
X025341Y025249D01*
X025323Y025368D02*
X019253Y025368D01*
X019253Y025486D02*
X025323Y025486D01*
X025369Y025605D02*
X019215Y025605D01*
X019097Y025723D02*
X025442Y025723D01*
X025508Y026790D02*
X017741Y026790D01*
X017859Y026908D02*
X019171Y026908D01*
X018978Y027027D02*
X017978Y027027D01*
X018096Y027145D02*
X018884Y027145D01*
X018875Y027619D02*
X016791Y027619D01*
X016840Y027501D02*
X017829Y027501D01*
X017711Y027382D02*
X016843Y027382D01*
X016831Y027264D02*
X017592Y027264D01*
X017474Y027145D02*
X016782Y027145D01*
X016688Y027027D02*
X017355Y027027D01*
X017237Y026908D02*
X016495Y026908D01*
X016615Y026790D02*
X017118Y026790D01*
X017013Y026671D02*
X016734Y026671D01*
X016786Y026553D02*
X017013Y026553D01*
X017013Y026434D02*
X016813Y026434D01*
X016813Y026316D02*
X017013Y026316D01*
X017013Y026197D02*
X016771Y026197D01*
X016697Y026079D02*
X017013Y026079D01*
X017013Y025960D02*
X016633Y025960D01*
X016633Y025842D02*
X017013Y025842D01*
X017013Y025723D02*
X016633Y025723D01*
X016633Y025605D02*
X017013Y025605D01*
X017013Y025486D02*
X016633Y025486D01*
X016633Y025368D02*
X017013Y025368D01*
X017013Y025249D02*
X016633Y025249D01*
X016633Y025131D02*
X017013Y025131D01*
X017013Y025012D02*
X016633Y025012D01*
X016633Y024894D02*
X017013Y024894D01*
X017013Y024775D02*
X016633Y024775D01*
X016633Y024657D02*
X017013Y024657D01*
X017013Y024538D02*
X016633Y024538D01*
X016633Y024420D02*
X017013Y024420D01*
X017013Y024301D02*
X016633Y024301D01*
X016633Y024183D02*
X017013Y024183D01*
X017013Y024064D02*
X016633Y024064D01*
X016633Y023946D02*
X017013Y023946D01*
X017088Y023827D02*
X016630Y023827D01*
X016573Y023709D02*
X017206Y023709D01*
X017325Y023590D02*
X016454Y023590D01*
X016336Y023472D02*
X017323Y023472D01*
X017323Y023353D02*
X016333Y023353D01*
X016333Y023235D02*
X017347Y023235D01*
X017396Y023116D02*
X016333Y023116D01*
X016333Y022998D02*
X017507Y022998D01*
X016749Y022642D02*
X025384Y022642D01*
X025335Y022524D02*
X016798Y022524D01*
X016813Y022405D02*
X025323Y022405D01*
X025325Y022287D02*
X016808Y022287D01*
X016759Y022168D02*
X025374Y022168D01*
X025455Y022050D02*
X016668Y022050D01*
X016644Y022761D02*
X025479Y022761D01*
X025674Y022879D02*
X016333Y022879D01*
X017473Y024064D02*
X025417Y024064D01*
X025345Y024183D02*
X017453Y024183D01*
X017453Y024301D02*
X025311Y024301D01*
X025547Y023946D02*
X017592Y023946D01*
X018118Y023827D02*
X018548Y023827D01*
X018427Y023709D02*
X018239Y023709D01*
X018303Y023590D02*
X018363Y023590D01*
X018347Y023235D02*
X018319Y023235D01*
X018270Y023116D02*
X018396Y023116D01*
X018507Y022998D02*
X018159Y022998D01*
X019118Y023827D02*
X025548Y023827D01*
X025427Y023709D02*
X019239Y023709D01*
X019303Y023590D02*
X025363Y023590D01*
X025323Y023472D02*
X019343Y023472D01*
X019343Y023353D02*
X025323Y023353D01*
X025347Y023235D02*
X019319Y023235D01*
X019270Y023116D02*
X025396Y023116D01*
X025507Y022998D02*
X019159Y022998D01*
X019304Y021813D02*
X019362Y021813D01*
X019362Y021694D02*
X019304Y021694D01*
X019304Y021576D02*
X019362Y021576D01*
X019362Y021457D02*
X019304Y021457D01*
X019304Y021339D02*
X019362Y021339D01*
X019362Y021220D02*
X019304Y021220D01*
X019304Y021102D02*
X019362Y021102D01*
X019362Y020983D02*
X019304Y020983D01*
X019304Y020865D02*
X019362Y020865D01*
X019282Y020865D02*
X016333Y020865D01*
X017849Y019798D02*
X019195Y019798D01*
X018988Y019917D02*
X017968Y019917D01*
X018086Y020035D02*
X018888Y020035D01*
X018509Y019561D02*
X037173Y019561D01*
X037173Y019443D02*
X018627Y019443D01*
X018746Y019324D02*
X037173Y019324D01*
X037173Y019206D02*
X018753Y019206D01*
X018753Y019087D02*
X037173Y019087D01*
X037173Y018969D02*
X018752Y018969D01*
X018150Y018732D02*
X018117Y018732D01*
X018097Y016836D02*
X018569Y016836D01*
X018436Y016717D02*
X018230Y016717D01*
X018300Y016599D02*
X018366Y016599D01*
X018343Y016243D02*
X018323Y016243D01*
X018274Y016125D02*
X018392Y016125D01*
X018499Y016006D02*
X018167Y016006D01*
X019304Y014821D02*
X019362Y014821D01*
X019362Y014703D02*
X019304Y014703D01*
X019304Y014584D02*
X019362Y014584D01*
X019362Y014466D02*
X019304Y014466D01*
X019646Y014821D02*
X037173Y014821D01*
X037173Y014703D02*
X019763Y014703D01*
X019828Y014584D02*
X037173Y014584D01*
X037173Y014466D02*
X019858Y014466D01*
X019862Y014347D02*
X037173Y014347D01*
X037173Y014229D02*
X019837Y014229D01*
X019782Y014110D02*
X037173Y014110D01*
X037173Y013992D02*
X019681Y013992D01*
X024890Y009133D02*
X037173Y009133D01*
X037173Y009015D02*
X024942Y009015D01*
X024976Y008896D02*
X037173Y008896D01*
X037173Y008778D02*
X032142Y008778D01*
X032261Y008659D02*
X037173Y008659D01*
X037173Y008541D02*
X032379Y008541D01*
X032498Y008422D02*
X037173Y008422D01*
X037173Y008304D02*
X032616Y008304D01*
X032735Y008185D02*
X037173Y008185D01*
X037173Y008067D02*
X032853Y008067D01*
X032972Y007948D02*
X037173Y007948D01*
X037173Y007830D02*
X033090Y007830D01*
X033209Y007711D02*
X037173Y007711D01*
X037173Y007593D02*
X033327Y007593D01*
X033504Y007474D02*
X037173Y007474D01*
X037173Y007356D02*
X033692Y007356D01*
X033784Y007237D02*
X037173Y007237D01*
X037173Y007119D02*
X033833Y007119D01*
X033843Y007000D02*
X037173Y007000D01*
X037173Y006882D02*
X033839Y006882D01*
X033790Y006763D02*
X037173Y006763D01*
X037173Y006645D02*
X036083Y006645D01*
X036317Y006526D02*
X037173Y006526D01*
X037173Y006408D02*
X036436Y006408D01*
X036524Y006289D02*
X037173Y006289D01*
X037173Y006171D02*
X036573Y006171D01*
X036622Y006052D02*
X037173Y006052D01*
X037173Y005934D02*
X036623Y005934D01*
X036623Y005815D02*
X037173Y005815D01*
X037173Y005697D02*
X036607Y005697D01*
X036398Y005341D02*
X037055Y005341D01*
X036936Y005223D02*
X036278Y005223D01*
X035992Y005104D02*
X036818Y005104D01*
X036699Y004986D02*
X031674Y004986D01*
X031678Y004989D02*
X031737Y005048D01*
X031786Y005116D01*
X031824Y005190D01*
X031850Y005269D01*
X031863Y005352D01*
X031863Y005373D01*
X031353Y005373D01*
X031353Y004863D01*
X031375Y004863D01*
X031457Y004876D01*
X031536Y004902D01*
X031611Y004940D01*
X031678Y004989D01*
X031778Y005104D02*
X035674Y005104D01*
X035388Y005223D02*
X031835Y005223D01*
X031861Y005341D02*
X035268Y005341D01*
X035157Y005460D02*
X031859Y005460D01*
X031863Y005435D02*
X031850Y005517D01*
X031824Y005597D01*
X031786Y005671D01*
X031737Y005739D01*
X031678Y005798D01*
X031611Y005847D01*
X031536Y005884D01*
X031457Y005910D01*
X031375Y005923D01*
X031353Y005923D01*
X031353Y005413D01*
X031863Y005413D01*
X031863Y005435D01*
X031830Y005578D02*
X035108Y005578D01*
X035059Y005697D02*
X031768Y005697D01*
X031654Y005815D02*
X035043Y005815D01*
X035043Y005934D02*
X030753Y005934D01*
X030753Y006052D02*
X035044Y006052D01*
X035093Y006171D02*
X030753Y006171D01*
X030753Y006289D02*
X035142Y006289D01*
X035230Y006408D02*
X030753Y006408D01*
X030753Y006526D02*
X033128Y006526D01*
X032960Y006645D02*
X030753Y006645D01*
X030753Y006692D02*
X030765Y006704D01*
X030843Y006892D01*
X030843Y007095D01*
X030765Y007282D01*
X030622Y007426D01*
X030434Y007503D01*
X030231Y007503D01*
X030044Y007426D01*
X029901Y007282D01*
X029823Y007095D01*
X029823Y006892D01*
X029901Y006704D01*
X029913Y006692D01*
X029913Y005695D01*
X029901Y005682D01*
X029823Y005495D01*
X029823Y005292D01*
X029901Y005104D01*
X029363Y005104D01*
X029363Y004986D02*
X030019Y004986D01*
X030044Y004961D02*
X030231Y004883D01*
X030434Y004883D01*
X030622Y004961D01*
X030765Y005104D01*
X030888Y005104D01*
X030880Y005116D02*
X030929Y005048D01*
X030988Y004989D01*
X031055Y004940D01*
X031129Y004902D01*
X031209Y004876D01*
X031291Y004863D01*
X031313Y004863D01*
X031313Y005373D01*
X031353Y005373D01*
X031353Y005413D01*
X031313Y005413D01*
X031313Y005923D01*
X031291Y005923D01*
X031209Y005910D01*
X031129Y005884D01*
X031055Y005847D01*
X030988Y005798D01*
X030929Y005739D01*
X030880Y005671D01*
X030842Y005597D01*
X030824Y005541D01*
X030765Y005682D01*
X030753Y005695D01*
X030753Y006692D01*
X030790Y006763D02*
X032876Y006763D01*
X032827Y006882D02*
X030839Y006882D01*
X030843Y007000D02*
X032732Y007000D01*
X032613Y007119D02*
X030833Y007119D01*
X030784Y007237D02*
X032495Y007237D01*
X032376Y007356D02*
X030692Y007356D01*
X030504Y007474D02*
X032258Y007474D01*
X032139Y007593D02*
X028526Y007593D01*
X028408Y007474D02*
X030161Y007474D01*
X029974Y007356D02*
X028289Y007356D01*
X028171Y007237D02*
X029882Y007237D01*
X029833Y007119D02*
X028052Y007119D01*
X027934Y007000D02*
X029823Y007000D01*
X029827Y006882D02*
X027815Y006882D01*
X027697Y006763D02*
X029876Y006763D01*
X029913Y006645D02*
X027578Y006645D01*
X027460Y006526D02*
X029913Y006526D01*
X029913Y006408D02*
X027341Y006408D01*
X027223Y006289D02*
X028766Y006289D01*
X028783Y006289D02*
X028883Y006289D01*
X028900Y006289D02*
X029913Y006289D01*
X029913Y006171D02*
X029174Y006171D01*
X029278Y006052D02*
X029913Y006052D01*
X029913Y005934D02*
X029335Y005934D01*
X029361Y005815D02*
X029913Y005815D01*
X029913Y005697D02*
X029363Y005697D01*
X029363Y005578D02*
X029858Y005578D01*
X029823Y005460D02*
X029363Y005460D01*
X029363Y005341D02*
X029823Y005341D01*
X029852Y005223D02*
X029363Y005223D01*
X029340Y004867D02*
X031266Y004867D01*
X031313Y004867D02*
X031353Y004867D01*
X031400Y004867D02*
X036581Y004867D01*
X036462Y004749D02*
X029288Y004749D01*
X029189Y004630D02*
X036344Y004630D01*
X035349Y006526D02*
X033538Y006526D01*
X033706Y006645D02*
X035583Y006645D01*
X032021Y007711D02*
X028645Y007711D01*
X028763Y007830D02*
X031902Y007830D01*
X031784Y007948D02*
X028882Y007948D01*
X028286Y008541D02*
X026252Y008541D01*
X026230Y008552D02*
X026147Y008579D01*
X026061Y008593D01*
X026056Y008593D01*
X026056Y007684D01*
X026571Y007684D01*
X026571Y008083D01*
X026557Y008169D01*
X026530Y008252D01*
X026491Y008329D01*
X026440Y008400D01*
X026378Y008461D01*
X026307Y008513D01*
X026230Y008552D01*
X026056Y008541D02*
X025979Y008541D01*
X025979Y008593D02*
X025974Y008593D01*
X025888Y008579D01*
X025805Y008552D01*
X025727Y008513D01*
X025656Y008461D01*
X025595Y008400D01*
X025544Y008329D01*
X025504Y008252D01*
X025477Y008169D01*
X025463Y008083D01*
X025463Y007684D01*
X025979Y007684D01*
X025979Y008593D01*
X025979Y008422D02*
X026056Y008422D01*
X026056Y008304D02*
X025979Y008304D01*
X025979Y008185D02*
X026056Y008185D01*
X026056Y008067D02*
X025979Y008067D01*
X025979Y007948D02*
X026056Y007948D01*
X026056Y007830D02*
X025979Y007830D01*
X025979Y007711D02*
X026056Y007711D01*
X026056Y007684D02*
X025979Y007684D01*
X025979Y007607D01*
X026056Y007607D01*
X026056Y007684D01*
X026056Y007607D02*
X026571Y007607D01*
X026571Y007208D01*
X026557Y007122D01*
X026530Y007039D01*
X026491Y006961D01*
X026440Y006891D01*
X026378Y006829D01*
X026307Y006778D01*
X026230Y006738D01*
X026147Y006712D01*
X026061Y006698D01*
X026056Y006698D01*
X026056Y007607D01*
X026056Y007593D02*
X025979Y007593D01*
X025979Y007607D02*
X025979Y006698D01*
X025974Y006698D01*
X025888Y006712D01*
X025805Y006738D01*
X025727Y006778D01*
X025656Y006829D01*
X025595Y006891D01*
X025544Y006961D01*
X025504Y007039D01*
X025477Y007122D01*
X025463Y007208D01*
X025463Y007607D01*
X025979Y007607D01*
X025979Y007474D02*
X026056Y007474D01*
X026056Y007356D02*
X025979Y007356D01*
X025979Y007237D02*
X026056Y007237D01*
X026056Y007119D02*
X025979Y007119D01*
X025979Y007000D02*
X026056Y007000D01*
X026056Y006882D02*
X025979Y006882D01*
X025979Y006763D02*
X026056Y006763D01*
X026279Y006763D02*
X026509Y006763D01*
X026430Y006882D02*
X026627Y006882D01*
X026511Y007000D02*
X026746Y007000D01*
X026864Y007119D02*
X026556Y007119D01*
X026571Y007237D02*
X026983Y007237D01*
X027101Y007356D02*
X026571Y007356D01*
X026571Y007474D02*
X027220Y007474D01*
X027338Y007593D02*
X026571Y007593D01*
X026571Y007711D02*
X027457Y007711D01*
X027575Y007830D02*
X026571Y007830D01*
X026571Y007948D02*
X027694Y007948D01*
X027812Y008067D02*
X026571Y008067D01*
X026552Y008185D02*
X027931Y008185D01*
X028049Y008304D02*
X026504Y008304D01*
X026417Y008422D02*
X028168Y008422D01*
X028405Y008659D02*
X024951Y008659D01*
X024976Y008778D02*
X028523Y008778D01*
X026390Y006645D02*
X024910Y006645D01*
X024966Y006526D02*
X026272Y006526D01*
X026153Y006408D02*
X024993Y006408D01*
X024994Y006289D02*
X026035Y006289D01*
X025916Y006171D02*
X024968Y006171D01*
X024913Y006052D02*
X025798Y006052D01*
X025679Y005934D02*
X024813Y005934D01*
X024601Y005815D02*
X025561Y005815D01*
X026156Y005223D02*
X027323Y005223D01*
X027323Y005341D02*
X026275Y005341D01*
X026393Y005460D02*
X027323Y005460D01*
X027323Y005578D02*
X026512Y005578D01*
X026630Y005697D02*
X027323Y005697D01*
X027323Y005815D02*
X026749Y005815D01*
X027104Y006171D02*
X027519Y006171D01*
X027401Y006052D02*
X027323Y005865D01*
X027323Y005104D02*
X026038Y005104D01*
X025847Y004986D02*
X027323Y004986D01*
X027346Y004867D02*
X016333Y004867D01*
X016333Y004749D02*
X027395Y004749D01*
X027505Y004630D02*
X016333Y004630D01*
X016517Y005934D02*
X016678Y005934D01*
X016647Y005944D02*
X016719Y005920D01*
X016795Y005908D01*
X016824Y005908D01*
X016824Y006384D01*
X016842Y006384D01*
X016842Y005908D01*
X016871Y005908D01*
X016947Y005920D01*
X017019Y005944D01*
X017087Y005978D01*
X017149Y006023D01*
X017203Y006077D01*
X017248Y006139D01*
X017282Y006207D01*
X017306Y006280D01*
X017318Y006355D01*
X017318Y006384D01*
X016842Y006384D01*
X016842Y006402D01*
X017318Y006402D01*
X017318Y006431D01*
X017306Y006507D01*
X017282Y006579D01*
X017248Y006648D01*
X017203Y006709D01*
X017149Y006763D01*
X017087Y006808D01*
X017019Y006843D01*
X016947Y006866D01*
X016871Y006878D01*
X016842Y006878D01*
X016842Y006402D01*
X016824Y006402D01*
X016824Y006384D01*
X016348Y006384D01*
X016348Y006355D01*
X016360Y006280D01*
X016383Y006207D01*
X016418Y006139D01*
X016463Y006077D01*
X016517Y006023D01*
X016579Y005978D01*
X016647Y005944D01*
X016824Y005934D02*
X016842Y005934D01*
X016842Y006052D02*
X016824Y006052D01*
X016824Y006171D02*
X016842Y006171D01*
X016842Y006289D02*
X016824Y006289D01*
X016824Y006402D02*
X016348Y006402D01*
X016348Y006431D01*
X016360Y006507D01*
X016383Y006579D01*
X016418Y006648D01*
X016463Y006709D01*
X016517Y006763D01*
X016579Y006808D01*
X016647Y006843D01*
X016719Y006866D01*
X016795Y006878D01*
X016824Y006878D01*
X016824Y006402D01*
X016824Y006408D02*
X016842Y006408D01*
X016842Y006526D02*
X016824Y006526D01*
X016824Y006645D02*
X016842Y006645D01*
X016842Y006763D02*
X016824Y006763D01*
X016517Y006763D02*
X016333Y006763D01*
X016333Y006645D02*
X016417Y006645D01*
X016366Y006526D02*
X016333Y006526D01*
X016333Y006408D02*
X016348Y006408D01*
X016333Y006289D02*
X016358Y006289D01*
X016333Y006171D02*
X016402Y006171D01*
X016398Y006052D02*
X016488Y006052D01*
X016988Y005934D02*
X019778Y005934D01*
X019747Y005944D02*
X019819Y005920D01*
X019895Y005908D01*
X019924Y005908D01*
X019924Y006384D01*
X019942Y006384D01*
X019942Y005908D01*
X019971Y005908D01*
X020047Y005920D01*
X020119Y005944D01*
X020187Y005978D01*
X020249Y006023D01*
X020303Y006077D01*
X020348Y006139D01*
X020382Y006207D01*
X020406Y006280D01*
X020418Y006355D01*
X020418Y006384D01*
X019942Y006384D01*
X019942Y006402D01*
X020418Y006402D01*
X020418Y006431D01*
X020406Y006507D01*
X020382Y006579D01*
X020348Y006648D01*
X020303Y006709D01*
X020249Y006763D01*
X020187Y006808D01*
X020119Y006843D01*
X020047Y006866D01*
X019971Y006878D01*
X019942Y006878D01*
X019942Y006402D01*
X019924Y006402D01*
X019924Y006384D01*
X019448Y006384D01*
X019448Y006355D01*
X019460Y006280D01*
X019483Y006207D01*
X019518Y006139D01*
X019563Y006077D01*
X019617Y006023D01*
X019679Y005978D01*
X019747Y005944D01*
X019924Y005934D02*
X019942Y005934D01*
X019942Y006052D02*
X019924Y006052D01*
X019924Y006171D02*
X019942Y006171D01*
X019942Y006289D02*
X019924Y006289D01*
X019924Y006402D02*
X019448Y006402D01*
X019448Y006431D01*
X019460Y006507D01*
X019483Y006579D01*
X019518Y006648D01*
X019563Y006709D01*
X019617Y006763D01*
X019679Y006808D01*
X019747Y006843D01*
X019819Y006866D01*
X019895Y006878D01*
X019924Y006878D01*
X019924Y006402D01*
X019924Y006408D02*
X019942Y006408D01*
X019942Y006526D02*
X019924Y006526D01*
X019924Y006645D02*
X019942Y006645D01*
X019942Y006763D02*
X019924Y006763D01*
X019617Y006763D02*
X017149Y006763D01*
X017249Y006645D02*
X019517Y006645D01*
X019466Y006526D02*
X017300Y006526D01*
X017318Y006408D02*
X019448Y006408D01*
X019458Y006289D02*
X017308Y006289D01*
X017264Y006171D02*
X019502Y006171D01*
X019588Y006052D02*
X017178Y006052D01*
X017259Y005815D02*
X019507Y005815D01*
X020088Y005934D02*
X023284Y005934D01*
X023184Y006052D02*
X020278Y006052D01*
X020364Y006171D02*
X023130Y006171D01*
X023103Y006289D02*
X020408Y006289D01*
X020418Y006408D02*
X023104Y006408D01*
X023101Y006390D02*
X023101Y006384D01*
X024010Y006384D01*
X024010Y006900D01*
X023611Y006900D01*
X023525Y006886D01*
X023442Y006859D01*
X023365Y006820D01*
X023294Y006768D01*
X023233Y006707D01*
X023181Y006636D01*
X023142Y006559D01*
X023115Y006476D01*
X023101Y006390D01*
X023131Y006526D02*
X020400Y006526D01*
X020349Y006645D02*
X023188Y006645D01*
X023289Y006763D02*
X020249Y006763D01*
X020359Y005815D02*
X023497Y005815D01*
X024010Y006408D02*
X024087Y006408D01*
X024087Y006526D02*
X024010Y006526D01*
X024010Y006645D02*
X024087Y006645D01*
X024087Y006763D02*
X024010Y006763D01*
X024010Y006882D02*
X024087Y006882D01*
X024585Y006882D02*
X025604Y006882D01*
X025524Y007000D02*
X016333Y007000D01*
X016333Y006882D02*
X023512Y006882D01*
X024808Y006763D02*
X025756Y006763D01*
X025478Y007119D02*
X016333Y007119D01*
X016333Y007237D02*
X025463Y007237D01*
X025463Y007356D02*
X016333Y007356D01*
X016333Y007474D02*
X025463Y007474D01*
X025463Y007593D02*
X016333Y007593D01*
X016333Y007711D02*
X025463Y007711D01*
X025463Y007830D02*
X016333Y007830D01*
X016513Y007948D02*
X025463Y007948D01*
X025463Y008067D02*
X016685Y008067D01*
X016766Y008185D02*
X025483Y008185D01*
X025531Y008304D02*
X024575Y008304D01*
X024793Y008422D02*
X025617Y008422D01*
X025782Y008541D02*
X024902Y008541D01*
X028147Y006171D02*
X028492Y006171D01*
X028388Y006052D02*
X028265Y006052D01*
X028314Y005934D02*
X028331Y005934D01*
X028783Y005934D02*
X028883Y005934D01*
X028883Y006052D02*
X028783Y006052D01*
X028783Y006171D02*
X028883Y006171D01*
X028883Y005815D02*
X028783Y005815D01*
X028783Y005697D02*
X028883Y005697D01*
X028883Y005578D02*
X028783Y005578D01*
X028783Y005460D02*
X028883Y005460D01*
X029901Y005104D02*
X030044Y004961D01*
X030647Y004986D02*
X030992Y004986D01*
X030880Y005116D02*
X030842Y005190D01*
X030824Y005245D01*
X030765Y005104D01*
X030814Y005223D02*
X030831Y005223D01*
X030808Y005578D02*
X030836Y005578D01*
X030898Y005697D02*
X030753Y005697D01*
X030753Y005815D02*
X031012Y005815D01*
X031313Y005815D02*
X031353Y005815D01*
X031353Y005697D02*
X031313Y005697D01*
X031313Y005578D02*
X031353Y005578D01*
X031353Y005460D02*
X031313Y005460D01*
X031313Y005341D02*
X031353Y005341D01*
X031353Y005223D02*
X031313Y005223D01*
X031313Y005104D02*
X031353Y005104D01*
X031353Y004986D02*
X031313Y004986D01*
X032318Y022524D02*
X028331Y022524D01*
X028282Y022642D02*
X032365Y022642D01*
X032451Y022761D02*
X028187Y022761D01*
X027873Y023946D02*
X027793Y023946D01*
X027793Y024064D02*
X027873Y024064D01*
X027873Y024183D02*
X027793Y024183D01*
X027793Y024301D02*
X027873Y024301D01*
X027873Y024538D02*
X027793Y024538D01*
X027793Y024657D02*
X027873Y024657D01*
X027873Y024775D02*
X027793Y024775D01*
X028008Y024894D02*
X032706Y024894D01*
X032494Y024775D02*
X028200Y024775D01*
X028293Y024657D02*
X032390Y024657D01*
X032493Y025012D02*
X028173Y025012D01*
X028276Y025131D02*
X032390Y025131D01*
X032341Y025249D02*
X028325Y025249D01*
X028343Y025368D02*
X032323Y025368D01*
X032323Y025486D02*
X028343Y025486D01*
X028297Y025605D02*
X032369Y025605D01*
X032442Y025723D02*
X028224Y025723D01*
X028083Y025842D02*
X032583Y025842D01*
X032545Y025960D02*
X030471Y025960D01*
X030469Y025957D02*
X030488Y025987D01*
X030482Y026013D01*
X030558Y026350D01*
X030847Y026159D01*
X030863Y026135D01*
X030895Y026128D01*
X030923Y026109D01*
X030952Y026115D01*
X030980Y026109D01*
X031008Y026127D01*
X031041Y026133D01*
X031057Y026157D01*
X031081Y026173D01*
X031089Y026206D01*
X031107Y026233D01*
X031101Y026262D01*
X031108Y026290D01*
X031090Y026318D01*
X031083Y026351D01*
X031059Y026367D01*
X030862Y026678D01*
X031193Y026745D01*
X031223Y026739D01*
X031249Y026757D01*
X031281Y026763D01*
X031298Y026789D01*
X031323Y026805D01*
X031329Y026837D01*
X031347Y026864D01*
X031341Y026893D01*
X031347Y026923D01*
X031329Y026950D01*
X031323Y026981D01*
X031298Y026998D01*
X031281Y027023D01*
X031249Y027030D01*
X031223Y027047D01*
X031193Y027041D01*
X030859Y027110D01*
X031039Y027399D01*
X031062Y027414D01*
X031069Y027448D01*
X031088Y027478D01*
X031081Y027505D01*
X031087Y027532D01*
X031068Y027561D01*
X031061Y027595D01*
X031037Y027609D01*
X031022Y027633D01*
X030988Y027640D01*
X030959Y027658D01*
X030932Y027652D01*
X030904Y027658D01*
X030875Y027639D01*
X030842Y027631D01*
X030827Y027607D01*
X030556Y027431D01*
X030481Y027773D01*
X030487Y027801D01*
X030469Y027830D01*
X030462Y027863D01*
X030438Y027878D01*
X030422Y027902D01*
X030389Y027909D01*
X030361Y027928D01*
X030333Y027922D01*
X030305Y027928D01*
X030277Y027909D01*
X030243Y027902D01*
X030228Y027878D01*
X030204Y027863D01*
X030197Y027830D01*
X030178Y027801D01*
X030185Y027773D01*
X030109Y027424D01*
X029828Y027599D01*
X029813Y027622D01*
X029779Y027629D01*
X029749Y027648D01*
X029722Y027642D01*
X029696Y027648D01*
X029666Y027629D01*
X029632Y027621D01*
X029617Y027598D01*
X029595Y027584D01*
X029587Y027549D01*
X029568Y027519D01*
X029574Y027493D01*
X029568Y027466D01*
X029587Y027437D01*
X029595Y027402D01*
X029618Y027388D01*
X029795Y027108D01*
X029453Y027041D01*
X029422Y027047D01*
X029396Y027030D01*
X029366Y027024D01*
X029348Y026998D01*
X029322Y026980D01*
X029316Y026950D01*
X029299Y026924D01*
X029305Y026893D01*
X029299Y026862D01*
X029316Y026837D01*
X029322Y026807D01*
X029348Y026789D01*
X029366Y026763D01*
X029396Y026757D01*
X029422Y026739D01*
X029453Y026746D01*
X029801Y026678D01*
X029616Y026377D01*
X029593Y026362D01*
X029586Y026328D01*
X029568Y026298D01*
X029574Y026271D01*
X029569Y026244D01*
X029588Y026215D01*
X029596Y026181D01*
X029619Y026167D01*
X029635Y026144D01*
X029669Y026136D01*
X029698Y026118D01*
X029725Y026125D01*
X029752Y026119D01*
X029781Y026138D01*
X029815Y026146D01*
X029830Y026170D01*
X030107Y026352D01*
X030184Y026013D01*
X030178Y025987D01*
X030197Y025957D01*
X030205Y025923D01*
X030228Y025908D01*
X030242Y025885D01*
X030277Y025877D01*
X030307Y025859D01*
X030333Y025865D01*
X030359Y025859D01*
X030389Y025877D01*
X030424Y025885D01*
X030438Y025908D01*
X030461Y025923D01*
X030469Y025957D01*
X030497Y026079D02*
X032426Y026079D01*
X032362Y026197D02*
X031087Y026197D01*
X031091Y026316D02*
X032323Y026316D01*
X032323Y026434D02*
X031016Y026434D01*
X030941Y026553D02*
X032347Y026553D01*
X032396Y026671D02*
X030866Y026671D01*
X030611Y026316D02*
X030550Y026316D01*
X030523Y026197D02*
X030790Y026197D01*
X030169Y026079D02*
X028240Y026079D01*
X028304Y026197D02*
X029592Y026197D01*
X029579Y026316D02*
X028343Y026316D01*
X028343Y026434D02*
X029652Y026434D01*
X029724Y026553D02*
X028319Y026553D01*
X028270Y026671D02*
X029797Y026671D01*
X030052Y026316D02*
X030115Y026316D01*
X030142Y026197D02*
X029872Y026197D01*
X030195Y025960D02*
X028120Y025960D01*
X028158Y026790D02*
X029347Y026790D01*
X029302Y026908D02*
X027995Y026908D01*
X028188Y027027D02*
X029380Y027027D01*
X029697Y027264D02*
X028331Y027264D01*
X028343Y027382D02*
X029622Y027382D01*
X029572Y027501D02*
X028340Y027501D01*
X028291Y027619D02*
X029631Y027619D01*
X029815Y027619D02*
X030151Y027619D01*
X030125Y027501D02*
X029985Y027501D01*
X030177Y027738D02*
X028210Y027738D01*
X028048Y027856D02*
X030203Y027856D01*
X030463Y027856D02*
X032618Y027856D01*
X032530Y027975D02*
X028136Y027975D01*
X028254Y028093D02*
X032412Y028093D01*
X032356Y028212D02*
X028310Y028212D01*
X028343Y028330D02*
X032323Y028330D01*
X032323Y028449D02*
X028343Y028449D01*
X028313Y028567D02*
X032353Y028567D01*
X032404Y028686D02*
X028262Y028686D01*
X028143Y028804D02*
X032523Y028804D01*
X032636Y028923D02*
X028030Y028923D01*
X028202Y029041D02*
X032464Y029041D01*
X032378Y029160D02*
X028288Y029160D01*
X028337Y029278D02*
X032329Y029278D01*
X032323Y029397D02*
X028343Y029397D01*
X028334Y029515D02*
X032331Y029515D01*
X032381Y029634D02*
X028285Y029634D01*
X028195Y029752D02*
X032471Y029752D01*
X032653Y029871D02*
X028013Y029871D01*
X028150Y029989D02*
X032516Y029989D01*
X032399Y030108D02*
X028267Y030108D01*
X028316Y030226D02*
X032350Y030226D01*
X032323Y030345D02*
X028343Y030345D01*
X026333Y032715D02*
X026233Y032715D01*
X026333Y032833D02*
X026103Y032833D01*
X026333Y032952D02*
X018735Y032952D01*
X018753Y032969D02*
X018507Y032723D01*
X018159Y032723D01*
X017913Y032969D01*
X017913Y033317D01*
X018159Y033563D01*
X018507Y033563D01*
X018753Y033317D01*
X018753Y032969D01*
X018753Y033070D02*
X026333Y033070D01*
X026333Y033189D02*
X018753Y033189D01*
X018753Y033307D02*
X026333Y033307D01*
X026333Y033426D02*
X018644Y033426D01*
X018526Y033544D02*
X026333Y033544D01*
X026333Y033663D02*
X017414Y033663D01*
X017353Y033602D02*
X017924Y034173D01*
X018872Y034173D01*
X018901Y034104D01*
X019044Y033961D01*
X019231Y033883D01*
X019434Y033883D01*
X019622Y033961D01*
X019765Y034104D01*
X019843Y034292D01*
X019843Y034495D01*
X019765Y034682D01*
X019622Y034826D01*
X019481Y034884D01*
X019536Y034902D01*
X019611Y034940D01*
X019678Y034989D01*
X019737Y035048D01*
X019786Y035116D01*
X019824Y035190D01*
X019850Y035269D01*
X019863Y035352D01*
X019863Y035365D01*
X019362Y035365D01*
X019362Y035422D01*
X019863Y035422D01*
X019863Y035435D01*
X019850Y035517D01*
X019824Y035597D01*
X019786Y035671D01*
X019737Y035739D01*
X019678Y035798D01*
X019611Y035847D01*
X019536Y035884D01*
X019457Y035910D01*
X019375Y035923D01*
X019362Y035923D01*
X019362Y035422D01*
X019304Y035422D01*
X019304Y035365D01*
X018803Y035365D01*
X018803Y035352D01*
X018816Y035269D01*
X018842Y035190D01*
X018880Y035116D01*
X018929Y035048D01*
X018988Y034989D01*
X019055Y034940D01*
X019129Y034902D01*
X019185Y034884D01*
X019044Y034826D01*
X018901Y034682D01*
X018872Y034613D01*
X017742Y034613D01*
X017042Y033913D01*
X016913Y033784D01*
X016913Y031002D01*
X017351Y030564D01*
X017323Y030495D01*
X017323Y030292D01*
X017401Y030104D01*
X017544Y029961D01*
X017731Y029883D01*
X017934Y029883D01*
X018122Y029961D01*
X018265Y030104D01*
X018333Y030268D01*
X018401Y030104D01*
X018544Y029961D01*
X018731Y029883D01*
X018934Y029883D01*
X019122Y029961D01*
X019265Y030104D01*
X019343Y030292D01*
X019343Y030495D01*
X019265Y030682D01*
X019122Y030826D01*
X018934Y030903D01*
X018731Y030903D01*
X018544Y030826D01*
X018401Y030682D01*
X018333Y030519D01*
X018265Y030682D01*
X018122Y030826D01*
X017934Y030903D01*
X017731Y030903D01*
X017663Y030875D01*
X017353Y031184D01*
X017353Y033602D01*
X017353Y033544D02*
X018140Y033544D01*
X018022Y033426D02*
X017353Y033426D01*
X017353Y033307D02*
X017913Y033307D01*
X017913Y033189D02*
X017353Y033189D01*
X017353Y033070D02*
X017913Y033070D01*
X017930Y032952D02*
X017353Y032952D01*
X017353Y032833D02*
X018049Y032833D01*
X018015Y032833D02*
X017853Y032833D01*
X017853Y032413D01*
X018273Y032413D01*
X018273Y032576D01*
X018015Y032833D01*
X018134Y032715D02*
X018561Y032715D01*
X018617Y032833D02*
X021563Y032833D01*
X021544Y032826D02*
X021401Y032682D01*
X021323Y032495D01*
X021323Y032292D01*
X021401Y032104D01*
X021544Y031961D01*
X021707Y031893D01*
X021544Y031826D01*
X021401Y031682D01*
X021323Y031495D01*
X021323Y031292D01*
X021401Y031104D01*
X021544Y030961D01*
X021707Y030893D01*
X021544Y030826D01*
X021401Y030682D01*
X021323Y030495D01*
X021323Y030292D01*
X021401Y030104D01*
X021544Y029961D01*
X021707Y029893D01*
X021544Y029826D01*
X021401Y029682D01*
X021323Y029495D01*
X021323Y029292D01*
X021401Y029104D01*
X021544Y028961D01*
X021731Y028883D01*
X021934Y028883D01*
X022122Y028961D01*
X022265Y029104D01*
X022343Y029292D01*
X022343Y029495D01*
X022265Y029682D01*
X022122Y029826D01*
X021959Y029893D01*
X022122Y029961D01*
X022265Y030104D01*
X022343Y030292D01*
X022343Y030495D01*
X022265Y030682D01*
X022122Y030826D01*
X021959Y030893D01*
X022122Y030961D01*
X022265Y031104D01*
X022343Y031292D01*
X022343Y031495D01*
X022265Y031682D01*
X022122Y031826D01*
X021959Y031893D01*
X022122Y031961D01*
X022265Y032104D01*
X022343Y032292D01*
X022343Y032495D01*
X022265Y032682D01*
X022122Y032826D01*
X021934Y032903D01*
X021731Y032903D01*
X021544Y032826D01*
X021433Y032715D02*
X019105Y032715D01*
X019007Y032813D02*
X018659Y032813D01*
X018413Y032567D01*
X018413Y032219D01*
X018659Y031973D01*
X019007Y031973D01*
X019253Y032219D01*
X019253Y032567D01*
X019007Y032813D01*
X019224Y032596D02*
X021365Y032596D01*
X021323Y032478D02*
X019253Y032478D01*
X019253Y032359D02*
X021323Y032359D01*
X021344Y032241D02*
X019253Y032241D01*
X019156Y032122D02*
X021393Y032122D01*
X021501Y032004D02*
X019037Y032004D01*
X018628Y032004D02*
X018066Y032004D01*
X018015Y031953D02*
X018273Y032211D01*
X018273Y032373D01*
X017853Y032373D01*
X017853Y031953D01*
X018015Y031953D01*
X017853Y032004D02*
X017813Y032004D01*
X017813Y031953D02*
X017813Y032373D01*
X017853Y032373D01*
X017853Y032413D01*
X017813Y032413D01*
X017813Y032373D01*
X017393Y032373D01*
X017393Y032211D01*
X017651Y031953D01*
X017813Y031953D01*
X017813Y032122D02*
X017853Y032122D01*
X017853Y032241D02*
X017813Y032241D01*
X017813Y032359D02*
X017853Y032359D01*
X017813Y032413D02*
X017393Y032413D01*
X017393Y032576D01*
X017651Y032833D01*
X017813Y032833D01*
X017813Y032413D01*
X017813Y032478D02*
X017853Y032478D01*
X017853Y032596D02*
X017813Y032596D01*
X017813Y032715D02*
X017853Y032715D01*
X017532Y032715D02*
X017353Y032715D01*
X017353Y032596D02*
X017414Y032596D01*
X017393Y032478D02*
X017353Y032478D01*
X017353Y032359D02*
X017393Y032359D01*
X017393Y032241D02*
X017353Y032241D01*
X017353Y032122D02*
X017482Y032122D01*
X017600Y032004D02*
X017353Y032004D01*
X017353Y031885D02*
X021688Y031885D01*
X021485Y031767D02*
X017353Y031767D01*
X017353Y031648D02*
X021387Y031648D01*
X021337Y031530D02*
X017353Y031530D01*
X017353Y031411D02*
X021323Y031411D01*
X021323Y031293D02*
X017353Y031293D01*
X017363Y031174D02*
X021372Y031174D01*
X021449Y031056D02*
X017482Y031056D01*
X017600Y030937D02*
X021601Y030937D01*
X021537Y030819D02*
X019129Y030819D01*
X019247Y030700D02*
X021419Y030700D01*
X021359Y030582D02*
X019307Y030582D01*
X019343Y030463D02*
X021323Y030463D01*
X021323Y030345D02*
X019343Y030345D01*
X019316Y030226D02*
X021350Y030226D01*
X021399Y030108D02*
X019267Y030108D01*
X019150Y029989D02*
X021516Y029989D01*
X021653Y029871D02*
X016434Y029871D01*
X016333Y029989D02*
X017516Y029989D01*
X017399Y030108D02*
X016333Y030108D01*
X016333Y030226D02*
X017350Y030226D01*
X017323Y030345D02*
X016333Y030345D01*
X016427Y030463D02*
X017323Y030463D01*
X017333Y030582D02*
X016546Y030582D01*
X016619Y030700D02*
X017215Y030700D01*
X017096Y030819D02*
X016633Y030819D01*
X016633Y030937D02*
X016978Y030937D01*
X016913Y031056D02*
X016633Y031056D01*
X016633Y031174D02*
X016913Y031174D01*
X016913Y031293D02*
X016633Y031293D01*
X016633Y031411D02*
X016913Y031411D01*
X016913Y031530D02*
X016633Y031530D01*
X016633Y031648D02*
X016913Y031648D01*
X016913Y031767D02*
X016633Y031767D01*
X016633Y031885D02*
X016913Y031885D01*
X016913Y032004D02*
X016633Y032004D01*
X016633Y032122D02*
X016913Y032122D01*
X016913Y032241D02*
X016633Y032241D01*
X016633Y032359D02*
X016913Y032359D01*
X016913Y032478D02*
X016633Y032478D01*
X016633Y032596D02*
X016913Y032596D01*
X016913Y032715D02*
X016633Y032715D01*
X016633Y032833D02*
X016913Y032833D01*
X016913Y032952D02*
X016633Y032952D01*
X016689Y033070D02*
X016913Y033070D01*
X016913Y033189D02*
X016768Y033189D01*
X016813Y033307D02*
X016913Y033307D01*
X016913Y033426D02*
X016813Y033426D01*
X016790Y033544D02*
X016913Y033544D01*
X016913Y033663D02*
X016741Y033663D01*
X016624Y033781D02*
X016913Y033781D01*
X017028Y033900D02*
X016474Y033900D01*
X016679Y034018D02*
X017147Y034018D01*
X017265Y034137D02*
X016779Y034137D01*
X016828Y034255D02*
X017384Y034255D01*
X017502Y034374D02*
X016843Y034374D01*
X016843Y034492D02*
X017621Y034492D01*
X017739Y034611D02*
X016795Y034611D01*
X016718Y034729D02*
X018948Y034729D01*
X019098Y034848D02*
X016568Y034848D01*
X016627Y034966D02*
X019019Y034966D01*
X018902Y035085D02*
X016746Y035085D01*
X016806Y035203D02*
X018837Y035203D01*
X018808Y035322D02*
X016843Y035322D01*
X016843Y035440D02*
X018804Y035440D01*
X018803Y035435D02*
X018803Y035422D01*
X019304Y035422D01*
X019304Y035923D01*
X019291Y035923D01*
X019209Y035910D01*
X019129Y035884D01*
X019055Y035847D01*
X018988Y035798D01*
X018929Y035739D01*
X018880Y035671D01*
X018842Y035597D01*
X018816Y035517D01*
X018803Y035435D01*
X018829Y035559D02*
X016816Y035559D01*
X016767Y035677D02*
X018884Y035677D01*
X018986Y035796D02*
X016652Y035796D01*
X016333Y035914D02*
X019235Y035914D01*
X019304Y035914D02*
X019362Y035914D01*
X019431Y035914D02*
X026333Y035914D01*
X026333Y035796D02*
X019680Y035796D01*
X019782Y035677D02*
X026333Y035677D01*
X026333Y035559D02*
X019836Y035559D01*
X019862Y035440D02*
X026333Y035440D01*
X026333Y035322D02*
X019858Y035322D01*
X019828Y035203D02*
X026333Y035203D01*
X026333Y035085D02*
X019764Y035085D01*
X019647Y034966D02*
X026333Y034966D01*
X026333Y034848D02*
X019568Y034848D01*
X019718Y034729D02*
X026333Y034729D01*
X026333Y034611D02*
X019795Y034611D01*
X019843Y034492D02*
X026333Y034492D01*
X026333Y034374D02*
X019843Y034374D01*
X019828Y034255D02*
X026333Y034255D01*
X026333Y034137D02*
X019779Y034137D01*
X019679Y034018D02*
X026333Y034018D01*
X026333Y033900D02*
X019474Y033900D01*
X019192Y033900D02*
X017651Y033900D01*
X017769Y034018D02*
X018987Y034018D01*
X018887Y034137D02*
X017888Y034137D01*
X017532Y033781D02*
X026333Y033781D01*
X025563Y032833D02*
X025103Y032833D01*
X025233Y032715D02*
X025433Y032715D01*
X024563Y032833D02*
X022103Y032833D01*
X022233Y032715D02*
X024433Y032715D01*
X024365Y032596D02*
X022301Y032596D01*
X022343Y032478D02*
X024323Y032478D01*
X024323Y032359D02*
X022343Y032359D01*
X022322Y032241D02*
X024344Y032241D01*
X024393Y032122D02*
X022273Y032122D01*
X022165Y032004D02*
X024501Y032004D01*
X024688Y031885D02*
X021978Y031885D01*
X022181Y031767D02*
X024485Y031767D01*
X024387Y031648D02*
X022279Y031648D01*
X022328Y031530D02*
X024337Y031530D01*
X024323Y031411D02*
X022343Y031411D01*
X022343Y031293D02*
X024323Y031293D01*
X024372Y031174D02*
X022294Y031174D01*
X022217Y031056D02*
X024449Y031056D01*
X024601Y030937D02*
X022065Y030937D01*
X022129Y030819D02*
X024537Y030819D01*
X024419Y030700D02*
X022247Y030700D01*
X022307Y030582D02*
X024359Y030582D01*
X024323Y030463D02*
X022343Y030463D01*
X022343Y030345D02*
X024323Y030345D01*
X024350Y030226D02*
X022316Y030226D01*
X022267Y030108D02*
X024399Y030108D01*
X024516Y029989D02*
X022150Y029989D01*
X022013Y029871D02*
X024653Y029871D01*
X024471Y029752D02*
X022195Y029752D01*
X022285Y029634D02*
X024381Y029634D01*
X024331Y029515D02*
X022334Y029515D01*
X022343Y029397D02*
X024323Y029397D01*
X024329Y029278D02*
X022337Y029278D01*
X022288Y029160D02*
X024378Y029160D01*
X024464Y029041D02*
X022202Y029041D01*
X022030Y028923D02*
X024636Y028923D01*
X025030Y028923D02*
X025636Y028923D01*
X025523Y028804D02*
X019669Y028804D01*
X019776Y028686D02*
X025404Y028686D01*
X025353Y028567D02*
X019834Y028567D01*
X019861Y028449D02*
X025323Y028449D01*
X025323Y028330D02*
X019860Y028330D01*
X019831Y028212D02*
X025356Y028212D01*
X025412Y028093D02*
X019770Y028093D01*
X019659Y027975D02*
X025530Y027975D01*
X025618Y027856D02*
X019548Y027856D01*
X019710Y027738D02*
X025456Y027738D01*
X025375Y027619D02*
X019791Y027619D01*
X019840Y027501D02*
X025325Y027501D01*
X025323Y027382D02*
X019843Y027382D01*
X019831Y027264D02*
X025335Y027264D01*
X025384Y027145D02*
X019782Y027145D01*
X019688Y027027D02*
X025478Y027027D01*
X025671Y026908D02*
X019495Y026908D01*
X018956Y027738D02*
X016710Y027738D01*
X016548Y027856D02*
X019118Y027856D01*
X019007Y027975D02*
X016636Y027975D01*
X016754Y028093D02*
X018896Y028093D01*
X018835Y028212D02*
X016810Y028212D01*
X016843Y028330D02*
X018806Y028330D01*
X018805Y028449D02*
X016843Y028449D01*
X016813Y028567D02*
X018832Y028567D01*
X018890Y028686D02*
X016762Y028686D01*
X016643Y028804D02*
X018997Y028804D01*
X019304Y028804D02*
X019362Y028804D01*
X019362Y028686D02*
X019304Y028686D01*
X019304Y028567D02*
X019362Y028567D01*
X019362Y028449D02*
X019304Y028449D01*
X019304Y028422D02*
X019304Y028923D01*
X019288Y028923D02*
X016451Y028923D01*
X016660Y029041D02*
X021464Y029041D01*
X021378Y029160D02*
X016756Y029160D01*
X016805Y029278D02*
X021329Y029278D01*
X021323Y029397D02*
X016813Y029397D01*
X016802Y029515D02*
X021331Y029515D01*
X021381Y029634D02*
X016753Y029634D01*
X016653Y029752D02*
X021471Y029752D01*
X021636Y028923D02*
X019377Y028923D01*
X019362Y028923D02*
X019362Y028422D01*
X019304Y028422D01*
X018516Y029989D02*
X018150Y029989D01*
X018267Y030108D02*
X018399Y030108D01*
X018350Y030226D02*
X018316Y030226D01*
X018307Y030582D02*
X018359Y030582D01*
X018419Y030700D02*
X018247Y030700D01*
X018129Y030819D02*
X018537Y030819D01*
X018510Y032122D02*
X018184Y032122D01*
X018273Y032241D02*
X018413Y032241D01*
X018413Y032359D02*
X018273Y032359D01*
X018273Y032478D02*
X018413Y032478D01*
X018442Y032596D02*
X018252Y032596D01*
X019304Y035440D02*
X019362Y035440D01*
X019362Y035559D02*
X019304Y035559D01*
X019304Y035677D02*
X019362Y035677D01*
X019362Y035796D02*
X019304Y035796D01*
X016333Y036033D02*
X026333Y036033D01*
X026333Y036151D02*
X016333Y036151D01*
X016333Y036270D02*
X026333Y036270D01*
X026333Y036388D02*
X016333Y036388D01*
X016333Y036507D02*
X026333Y036507D01*
X026333Y036625D02*
X016333Y036625D01*
X016333Y036744D02*
X026333Y036744D01*
X026333Y036862D02*
X016333Y036862D01*
X016333Y036981D02*
X026333Y036981D01*
X026333Y037099D02*
X016333Y037099D01*
X016333Y037218D02*
X026333Y037218D01*
X025464Y029041D02*
X025202Y029041D01*
X028282Y027145D02*
X029772Y027145D01*
X030541Y027501D02*
X030663Y027501D01*
X030515Y027619D02*
X030834Y027619D01*
X031030Y027619D02*
X032375Y027619D01*
X032325Y027501D02*
X031082Y027501D01*
X031028Y027382D02*
X032323Y027382D01*
X032335Y027264D02*
X030955Y027264D01*
X030881Y027145D02*
X032384Y027145D01*
X032478Y027027D02*
X031264Y027027D01*
X031344Y026908D02*
X032671Y026908D01*
X032508Y026790D02*
X031299Y026790D01*
X030489Y027738D02*
X032456Y027738D01*
X034960Y024894D02*
X037173Y024894D01*
X026873Y024775D02*
X026793Y024775D01*
X026793Y024657D02*
X026873Y024657D01*
X026873Y024538D02*
X026793Y024538D01*
X026793Y024301D02*
X026873Y024301D01*
X026873Y024183D02*
X026793Y024183D01*
X026793Y024064D02*
X026873Y024064D01*
X026873Y023946D02*
X026793Y023946D01*
X018159Y025723D02*
X018125Y025723D01*
X017541Y025723D02*
X017453Y025723D01*
X017453Y025131D02*
X017473Y025131D01*
D25*
X032833Y021393D02*
X033833Y021393D01*
X034833Y021393D01*
X031893Y008433D02*
X028773Y008433D01*
X025733Y005393D01*
X019933Y005393D01*
X016833Y005393D01*
X030333Y005393D02*
X030333Y006993D01*
X031893Y008433D02*
X033333Y006993D01*
D26*
X016633Y005393D02*
X015533Y006493D01*
X015533Y008993D01*
X016233Y009693D01*
X016233Y012293D01*
X016333Y012393D01*
X015533Y013193D01*
X015533Y016093D01*
X016333Y016893D01*
X016333Y019393D01*
X015433Y020293D01*
X015433Y022993D01*
X016333Y023893D01*
X016333Y026393D01*
X015433Y027293D01*
X015433Y029893D01*
X016333Y030793D01*
X016333Y033393D01*
X024833Y032393D02*
X025833Y032393D01*
X026833Y032393D01*
X027833Y032393D01*
X027633Y032393D02*
X026833Y032393D01*
X026833Y031393D02*
X025833Y031393D01*
X024833Y031393D01*
X024833Y030393D02*
X025833Y030393D01*
X026833Y030393D01*
X027833Y030393D01*
X027833Y029393D02*
X026833Y029393D01*
X025833Y029393D01*
X024833Y029393D01*
X026833Y031393D02*
X027833Y031393D01*
X027433Y031393D02*
X026833Y031393D01*
X016633Y005393D02*
X016433Y005393D01*
D27*
X016633Y005393D02*
X016833Y005393D01*
X016633Y005393D02*
X015233Y005393D01*
X013633Y006993D01*
X012233Y006993D01*
X011833Y006593D01*
X011833Y005493D01*
D28*
X009373Y008053D02*
X009373Y008456D01*
X005833Y008456D01*
X005833Y010425D02*
X015073Y010425D01*
X015073Y010393D01*
X009333Y012393D02*
X009333Y012693D01*
X009333Y012393D02*
X005833Y012393D01*
X005833Y015456D02*
X009333Y015456D01*
X009333Y015093D01*
X005833Y017425D02*
X015083Y017425D01*
X015083Y017393D01*
X009383Y019393D02*
X009383Y019743D01*
X009383Y019393D02*
X005833Y019393D01*
X005833Y022456D02*
X009383Y022456D01*
X009383Y022043D01*
X005833Y024425D02*
X015040Y024425D01*
X015071Y024393D01*
X009383Y026393D02*
X009383Y026743D01*
X009383Y026393D02*
X005833Y026393D01*
X005833Y029456D02*
X009383Y029456D01*
X009383Y029043D01*
X005833Y031425D02*
X015083Y031425D01*
X015083Y031393D01*
X009383Y033393D02*
X009383Y033743D01*
X009383Y033393D02*
X005833Y033393D01*
D29*
X017133Y033693D02*
X017133Y031093D01*
X017833Y030393D01*
X018033Y027393D02*
X017233Y026593D01*
X017233Y023993D01*
X017833Y023393D01*
X018033Y020293D02*
X017233Y019493D01*
X017233Y016993D01*
X017833Y016393D01*
X018133Y013393D02*
X017233Y012493D01*
X017233Y009993D01*
X017833Y009393D01*
X018133Y013393D02*
X019333Y013393D01*
X019333Y020293D02*
X018033Y020293D01*
X018033Y027393D02*
X019333Y027393D01*
X017133Y033693D02*
X017833Y034393D01*
X019333Y034393D01*
M02*
