G75*
G70*
%OFA0B0*%
%FSLAX24Y24*%
%IPPOS*%
%LPD*%
%AMOC8*
5,1,8,0,0,1.08239X$1,22.5*
%
%ADD10C,0.0673*%
%ADD11R,0.0950X0.0950*%
%ADD12C,0.0950*%
%ADD13OC8,0.0560*%
%ADD14C,0.0740*%
%ADD15C,0.0680*%
%ADD16C,0.0640*%
%ADD17C,0.0787*%
%ADD18C,0.0650*%
%ADD19R,0.0650X0.0650*%
%ADD20C,0.0740*%
%ADD21C,0.0120*%
%ADD22C,0.0400*%
%ADD23C,0.0160*%
%ADD24C,0.0320*%
%ADD25C,0.1000*%
%ADD26C,0.0560*%
D10*
X005130Y004847D03*
X005130Y009473D03*
X005130Y011847D03*
X005130Y016473D03*
X005130Y018847D03*
X005130Y023473D03*
X005130Y025847D03*
X005130Y030473D03*
X010070Y030473D03*
X010838Y028160D03*
X010070Y025847D03*
X010070Y023473D03*
X010838Y021160D03*
X010070Y018847D03*
X010070Y016473D03*
X010838Y014160D03*
X010070Y011847D03*
X010070Y009473D03*
X010838Y007160D03*
X010070Y004847D03*
D11*
X001600Y009160D03*
X001600Y016160D03*
X001600Y023160D03*
X001600Y030160D03*
D12*
X001600Y005223D03*
X001600Y007191D03*
X001600Y012223D03*
X001600Y014191D03*
X001600Y019223D03*
X001600Y021191D03*
X001600Y026223D03*
X001600Y028191D03*
D13*
X013600Y029160D03*
X014100Y029910D03*
X014600Y029160D03*
X014100Y022910D03*
X013600Y022160D03*
X014600Y022160D03*
X014100Y015910D03*
X013600Y015160D03*
X014600Y015160D03*
X014100Y008910D03*
X013600Y008160D03*
X014600Y008160D03*
D14*
X015100Y010160D03*
X015100Y011160D03*
X014600Y013160D03*
X013600Y013160D03*
X012100Y011160D03*
X012100Y010160D03*
X013600Y006160D03*
X014600Y006160D03*
X015100Y017060D03*
X015100Y018160D03*
X014600Y020160D03*
X013600Y020160D03*
X012100Y018160D03*
X012100Y017060D03*
X012100Y024160D03*
X012100Y025160D03*
X013600Y027160D03*
X014600Y027160D03*
X015100Y025160D03*
X015100Y024160D03*
X018600Y026160D03*
X018600Y027160D03*
X018600Y028160D03*
X018600Y029160D03*
X021600Y029160D03*
X021600Y028160D03*
X021600Y027160D03*
X021600Y026160D03*
X022600Y026160D03*
X022600Y027160D03*
X022600Y028160D03*
X022600Y029160D03*
X023600Y029160D03*
X023600Y028160D03*
X023600Y027160D03*
X023600Y026160D03*
X023600Y025160D03*
X023600Y024160D03*
X023600Y023160D03*
X023600Y022160D03*
X023600Y021160D03*
X023600Y020160D03*
X023600Y019160D03*
X023600Y018160D03*
X022600Y018160D03*
X022600Y019160D03*
X022600Y020160D03*
X022600Y021160D03*
X022600Y022160D03*
X022600Y023160D03*
X022600Y024160D03*
X022600Y025160D03*
X029600Y025160D03*
X029600Y024160D03*
X029600Y023160D03*
X029600Y022160D03*
X029600Y021160D03*
X029600Y020160D03*
X029600Y019160D03*
X029600Y018160D03*
X030600Y018160D03*
X030600Y019160D03*
X030600Y020160D03*
X030600Y021160D03*
X030600Y022160D03*
X030600Y023160D03*
X030600Y024160D03*
X030600Y025160D03*
X030600Y026160D03*
X030600Y027160D03*
X030600Y028160D03*
X030600Y029160D03*
X029600Y029160D03*
X029600Y028160D03*
X029600Y027160D03*
X029600Y026160D03*
X015100Y031160D03*
X015100Y032160D03*
X012100Y032160D03*
X012100Y031160D03*
X026100Y003760D03*
X026100Y002160D03*
X027100Y002160D03*
X029100Y003760D03*
D15*
X012100Y005160D03*
X012100Y009160D03*
X012100Y012160D03*
X012100Y016160D03*
X012100Y019160D03*
X012100Y023160D03*
X012100Y026160D03*
X012100Y030160D03*
D16*
X011100Y002980D02*
X011100Y002340D01*
X010100Y002340D02*
X010100Y002980D01*
X009100Y002980D02*
X009100Y002340D01*
D17*
X019222Y004113D02*
X020009Y004113D01*
X021584Y005018D02*
X021584Y005806D01*
X020009Y006593D02*
X019222Y006593D01*
D18*
X021100Y008660D03*
X017100Y003160D03*
X014100Y003160D03*
D19*
X014100Y002160D03*
X017100Y002160D03*
X020100Y008660D03*
D20*
X023600Y002530D02*
X023600Y001790D01*
X024600Y001790D02*
X024600Y002530D01*
D21*
X024550Y002582D02*
X024650Y002582D01*
X024650Y002464D02*
X024550Y002464D01*
X024550Y002345D02*
X024650Y002345D01*
X024650Y002227D02*
X024550Y002227D01*
X024550Y002210D02*
X024550Y003059D01*
X024476Y003047D01*
X024397Y003021D01*
X024322Y002983D01*
X024255Y002934D01*
X024196Y002875D01*
X024147Y002808D01*
X024109Y002733D01*
X024091Y002678D01*
X024032Y002819D01*
X024155Y002819D01*
X024032Y002819D02*
X023920Y002931D01*
X023920Y006344D01*
X023856Y006498D01*
X023738Y006616D01*
X023038Y007316D01*
X022884Y007380D01*
X020516Y007380D01*
X020362Y007316D01*
X020244Y007198D01*
X020156Y007110D01*
X020116Y007127D01*
X020036Y007127D01*
X020036Y008002D01*
X020229Y008195D01*
X020483Y008195D01*
X020565Y008277D01*
X020565Y009043D01*
X020483Y009125D01*
X019717Y009125D01*
X019635Y009043D01*
X019635Y008789D01*
X019260Y008414D01*
X019196Y008259D01*
X019196Y007127D01*
X019116Y007127D01*
X019003Y007080D01*
X018216Y007080D01*
X018062Y007016D01*
X017944Y006898D01*
X015726Y004680D01*
X013216Y004680D01*
X013062Y004616D01*
X012944Y004498D01*
X012826Y004380D01*
X012100Y004380D01*
X012100Y004680D01*
X012195Y004680D01*
X012372Y004753D01*
X012507Y004888D01*
X012528Y004940D01*
X014091Y004940D01*
X014220Y005069D01*
X014720Y005569D01*
X014720Y005658D01*
X014889Y005728D01*
X015032Y005871D01*
X015110Y006059D01*
X015110Y006261D01*
X015032Y006449D01*
X014889Y006592D01*
X014820Y006621D01*
X014820Y007786D01*
X015020Y007986D01*
X015020Y008334D01*
X014774Y008580D01*
X014426Y008580D01*
X014180Y008334D01*
X014180Y007986D01*
X014380Y007786D01*
X014380Y006621D01*
X014311Y006592D01*
X014168Y006449D01*
X014100Y006286D01*
X014032Y006449D01*
X013889Y006592D01*
X013701Y006670D01*
X013499Y006670D01*
X013311Y006592D01*
X013168Y006449D01*
X013090Y006261D01*
X013090Y006059D01*
X013168Y005871D01*
X013311Y005728D01*
X013499Y005650D01*
X013701Y005650D01*
X013889Y005728D01*
X014032Y005871D01*
X014100Y006034D01*
X014168Y005871D01*
X014280Y005759D01*
X014280Y005751D01*
X013909Y005380D01*
X012528Y005380D01*
X012507Y005432D01*
X012372Y005567D01*
X012195Y005640D01*
X012100Y005640D01*
X012100Y008680D01*
X012195Y008680D01*
X012372Y008753D01*
X012507Y008888D01*
X012580Y009065D01*
X012580Y009255D01*
X012507Y009432D01*
X012400Y009539D01*
X012400Y009739D01*
X012532Y009871D01*
X012610Y010059D01*
X012610Y010261D01*
X012532Y010449D01*
X012389Y010592D01*
X012226Y010660D01*
X012389Y010728D01*
X012532Y010871D01*
X012561Y010940D01*
X012909Y010940D01*
X013880Y009969D01*
X013880Y009284D01*
X013680Y009084D01*
X013680Y008736D01*
X013926Y008490D01*
X014274Y008490D01*
X014424Y008640D01*
X015591Y008640D01*
X015720Y008769D01*
X018820Y011869D01*
X018820Y025699D01*
X018889Y025728D01*
X019032Y025871D01*
X019110Y026059D01*
X019110Y026261D01*
X019032Y026449D01*
X018889Y026592D01*
X018726Y026660D01*
X018889Y026728D01*
X019032Y026871D01*
X019110Y027059D01*
X019110Y027261D01*
X019032Y027449D01*
X018889Y027592D01*
X018726Y027660D01*
X018889Y027728D01*
X019032Y027871D01*
X019110Y028059D01*
X019110Y028261D01*
X019032Y028449D01*
X018889Y028592D01*
X018726Y028660D01*
X018889Y028728D01*
X019032Y028871D01*
X019110Y029059D01*
X019110Y029261D01*
X019032Y029449D01*
X018889Y029592D01*
X018701Y029670D01*
X018499Y029670D01*
X018430Y029641D01*
X017941Y030130D01*
X014474Y030130D01*
X014320Y030284D01*
X014320Y030951D01*
X014191Y031080D01*
X012891Y032380D01*
X012561Y032380D01*
X012532Y032449D01*
X012389Y032592D01*
X012201Y032670D01*
X012100Y032670D01*
X012100Y034000D01*
X022100Y034000D01*
X022100Y029286D01*
X022032Y029449D01*
X021889Y029592D01*
X021701Y029670D01*
X021499Y029670D01*
X021311Y029592D01*
X021168Y029449D01*
X021090Y029261D01*
X021090Y029059D01*
X021168Y028871D01*
X021311Y028728D01*
X021474Y028660D01*
X021311Y028592D01*
X021168Y028449D01*
X021090Y028261D01*
X021090Y028059D01*
X021168Y027871D01*
X021311Y027728D01*
X021474Y027660D01*
X021311Y027592D01*
X021168Y027449D01*
X021090Y027261D01*
X021090Y027059D01*
X021168Y026871D01*
X021311Y026728D01*
X021474Y026660D01*
X021311Y026592D01*
X021168Y026449D01*
X021090Y026261D01*
X021090Y026059D01*
X021168Y025871D01*
X021311Y025728D01*
X021499Y025650D01*
X021701Y025650D01*
X021889Y025728D01*
X022032Y025871D01*
X022100Y026034D01*
X022168Y025871D01*
X022311Y025728D01*
X022474Y025660D01*
X022311Y025592D01*
X022168Y025449D01*
X022090Y025261D01*
X022090Y025059D01*
X022168Y024871D01*
X022311Y024728D01*
X022474Y024660D01*
X022311Y024592D01*
X022168Y024449D01*
X022090Y024261D01*
X022090Y024059D01*
X022168Y023871D01*
X022311Y023728D01*
X022474Y023660D01*
X022311Y023592D01*
X022168Y023449D01*
X022090Y023261D01*
X022090Y023059D01*
X022168Y022871D01*
X022311Y022728D01*
X022474Y022660D01*
X022311Y022592D01*
X022168Y022449D01*
X022090Y022261D01*
X022090Y022059D01*
X022168Y021871D01*
X022311Y021728D01*
X022452Y021669D01*
X022397Y021651D01*
X022322Y021613D01*
X022255Y021564D01*
X022196Y021505D01*
X022147Y021438D01*
X022109Y021363D01*
X022083Y021284D01*
X022070Y021202D01*
X022070Y021200D01*
X022560Y021200D01*
X022560Y021650D01*
X022640Y021650D01*
X022640Y021200D01*
X022560Y021200D01*
X022560Y021120D01*
X022560Y020670D01*
X022640Y020670D01*
X022640Y021120D01*
X022640Y021200D01*
X023070Y021200D01*
X023560Y021200D01*
X023560Y021650D01*
X023640Y021650D01*
X023640Y021200D01*
X023560Y021200D01*
X023560Y021120D01*
X022640Y021120D01*
X022560Y021120D01*
X022070Y021120D01*
X022070Y021118D01*
X022083Y021036D01*
X022109Y020957D01*
X022147Y020882D01*
X022196Y020815D01*
X022255Y020756D01*
X022322Y020707D01*
X022397Y020669D01*
X022452Y020651D01*
X022311Y020592D01*
X022168Y020449D01*
X022090Y020261D01*
X022090Y020059D01*
X022168Y019871D01*
X022311Y019728D01*
X022474Y019660D01*
X022311Y019592D01*
X022168Y019449D01*
X022090Y019261D01*
X022090Y019059D01*
X022168Y018871D01*
X022311Y018728D01*
X022474Y018660D01*
X022311Y018592D01*
X022168Y018449D01*
X022090Y018261D01*
X022090Y018059D01*
X022168Y017871D01*
X022311Y017728D01*
X022499Y017650D01*
X022701Y017650D01*
X022889Y017728D01*
X023032Y017871D01*
X023100Y018034D01*
X023168Y017871D01*
X023311Y017728D01*
X023499Y017650D01*
X023701Y017650D01*
X023889Y017728D01*
X024032Y017871D01*
X024110Y018059D01*
X024110Y018261D01*
X024032Y018449D01*
X023889Y018592D01*
X023726Y018660D01*
X023889Y018728D01*
X024032Y018871D01*
X024110Y019059D01*
X024110Y019261D01*
X024032Y019449D01*
X023889Y019592D01*
X023726Y019660D01*
X023889Y019728D01*
X024032Y019871D01*
X024110Y020059D01*
X024110Y020261D01*
X024032Y020449D01*
X023889Y020592D01*
X023748Y020651D01*
X023803Y020669D01*
X023878Y020707D01*
X023945Y020756D01*
X024004Y020815D01*
X024053Y020882D01*
X024091Y020957D01*
X024117Y021036D01*
X024130Y021118D01*
X024130Y021120D01*
X023640Y021120D01*
X023640Y021200D01*
X024130Y021200D01*
X024130Y021202D01*
X024117Y021284D01*
X024091Y021363D01*
X024053Y021438D01*
X024004Y021505D01*
X023945Y021564D01*
X023878Y021613D01*
X023803Y021651D01*
X023748Y021669D01*
X023889Y021728D01*
X024032Y021871D01*
X024110Y022059D01*
X024110Y022261D01*
X024032Y022449D01*
X023889Y022592D01*
X023726Y022660D01*
X023889Y022728D01*
X024032Y022871D01*
X024110Y023059D01*
X024110Y023261D01*
X024032Y023449D01*
X023889Y023592D01*
X023726Y023660D01*
X023889Y023728D01*
X024032Y023871D01*
X024110Y024059D01*
X024110Y024261D01*
X024032Y024449D01*
X023889Y024592D01*
X023726Y024660D01*
X023889Y024728D01*
X024032Y024871D01*
X024110Y025059D01*
X024110Y025261D01*
X024032Y025449D01*
X023889Y025592D01*
X023726Y025660D01*
X023889Y025728D01*
X024032Y025871D01*
X024110Y026059D01*
X024110Y026261D01*
X024032Y026449D01*
X023889Y026592D01*
X023726Y026660D01*
X023889Y026728D01*
X024032Y026871D01*
X024110Y027059D01*
X024110Y027160D01*
X029090Y027160D01*
X029090Y027059D01*
X029168Y026871D01*
X029311Y026728D01*
X029474Y026660D01*
X029311Y026592D01*
X029168Y026449D01*
X029090Y026261D01*
X029090Y026059D01*
X029168Y025871D01*
X029311Y025728D01*
X029474Y025660D01*
X029311Y025592D01*
X029168Y025449D01*
X029090Y025261D01*
X029090Y025059D01*
X029168Y024871D01*
X029311Y024728D01*
X029474Y024660D01*
X029311Y024592D01*
X029168Y024449D01*
X029090Y024261D01*
X029090Y024059D01*
X029168Y023871D01*
X029311Y023728D01*
X029474Y023660D01*
X029311Y023592D01*
X029168Y023449D01*
X029090Y023261D01*
X029090Y023059D01*
X029168Y022871D01*
X029311Y022728D01*
X029474Y022660D01*
X029311Y022592D01*
X029168Y022449D01*
X029090Y022261D01*
X029090Y022059D01*
X029168Y021871D01*
X029311Y021728D01*
X029474Y021660D01*
X029311Y021592D01*
X029168Y021449D01*
X029090Y021261D01*
X029090Y021059D01*
X029168Y020871D01*
X029311Y020728D01*
X029474Y020660D01*
X029311Y020592D01*
X029168Y020449D01*
X029090Y020261D01*
X029090Y020059D01*
X029168Y019871D01*
X029311Y019728D01*
X029452Y019669D01*
X029397Y019651D01*
X029322Y019613D01*
X029255Y019564D01*
X029196Y019505D01*
X029147Y019438D01*
X029109Y019363D01*
X029083Y019284D01*
X029070Y019202D01*
X029070Y019200D01*
X029560Y019200D01*
X029560Y019650D01*
X029640Y019650D01*
X029640Y019200D01*
X029560Y019200D01*
X029560Y019120D01*
X029640Y019120D01*
X029640Y019200D01*
X030070Y019200D01*
X030560Y019200D01*
X030560Y019650D01*
X030640Y019650D01*
X030640Y019200D01*
X030560Y019200D01*
X030560Y019120D01*
X029640Y019120D01*
X029640Y018670D01*
X029560Y018670D01*
X029560Y019120D01*
X029070Y019120D01*
X029070Y019118D01*
X029083Y019036D01*
X029109Y018957D01*
X029147Y018882D01*
X029196Y018815D01*
X029255Y018756D01*
X029322Y018707D01*
X029397Y018669D01*
X029452Y018651D01*
X029311Y018592D01*
X029168Y018449D01*
X029090Y018261D01*
X029090Y018059D01*
X029168Y017871D01*
X029311Y017728D01*
X029499Y017650D01*
X029701Y017650D01*
X029889Y017728D01*
X030032Y017871D01*
X030100Y018034D01*
X030168Y017871D01*
X030311Y017728D01*
X030499Y017650D01*
X030701Y017650D01*
X030889Y017728D01*
X031032Y017871D01*
X031110Y018059D01*
X031110Y018261D01*
X031032Y018449D01*
X030889Y018592D01*
X030748Y018651D01*
X030803Y018669D01*
X030878Y018707D01*
X030945Y018756D01*
X031004Y018815D01*
X031053Y018882D01*
X031091Y018957D01*
X031117Y019036D01*
X031130Y019118D01*
X031130Y019120D01*
X030640Y019120D01*
X030640Y019200D01*
X031130Y019200D01*
X031130Y019202D01*
X031117Y019284D01*
X031091Y019363D01*
X031053Y019438D01*
X031004Y019505D01*
X030945Y019564D01*
X030878Y019613D01*
X030803Y019651D01*
X030748Y019669D01*
X030889Y019728D01*
X031032Y019871D01*
X031110Y020059D01*
X031110Y020261D01*
X031032Y020449D01*
X030889Y020592D01*
X030726Y020660D01*
X030889Y020728D01*
X031032Y020871D01*
X031110Y021059D01*
X031110Y021261D01*
X031032Y021449D01*
X030889Y021592D01*
X030726Y021660D01*
X030889Y021728D01*
X031032Y021871D01*
X031110Y022059D01*
X031110Y022261D01*
X031032Y022449D01*
X030889Y022592D01*
X030726Y022660D01*
X030889Y022728D01*
X031032Y022871D01*
X031110Y023059D01*
X031110Y023261D01*
X031032Y023449D01*
X030889Y023592D01*
X030726Y023660D01*
X030889Y023728D01*
X031032Y023871D01*
X031110Y024059D01*
X031110Y024261D01*
X031032Y024449D01*
X030889Y024592D01*
X030726Y024660D01*
X030889Y024728D01*
X031032Y024871D01*
X031110Y025059D01*
X031110Y025261D01*
X031032Y025449D01*
X030889Y025592D01*
X030726Y025660D01*
X030889Y025728D01*
X031032Y025871D01*
X031110Y026059D01*
X031110Y026261D01*
X031032Y026449D01*
X030889Y026592D01*
X030726Y026660D01*
X030889Y026728D01*
X031032Y026871D01*
X031110Y027059D01*
X031110Y027160D01*
X031940Y027160D01*
X031940Y002160D01*
X031930Y002029D01*
X031848Y001779D01*
X031694Y001566D01*
X031481Y001412D01*
X031231Y001330D01*
X031100Y001320D01*
X024845Y001320D01*
X024878Y001337D01*
X024945Y001386D01*
X025004Y001445D01*
X025053Y001512D01*
X025091Y001587D01*
X025117Y001666D01*
X025130Y001748D01*
X025130Y002110D01*
X024650Y002110D01*
X024650Y002210D01*
X024550Y002210D01*
X024650Y002210D02*
X024650Y003059D01*
X024724Y003047D01*
X024803Y003021D01*
X024878Y002983D01*
X024945Y002934D01*
X025004Y002875D01*
X025053Y002808D01*
X025091Y002733D01*
X025117Y002654D01*
X025130Y002572D01*
X025130Y002210D01*
X024650Y002210D01*
X025130Y002227D02*
X025590Y002227D01*
X025590Y002261D02*
X025590Y002059D01*
X025668Y001871D01*
X025130Y001871D01*
X025130Y001753D02*
X025786Y001753D01*
X025811Y001728D02*
X025999Y001650D01*
X026201Y001650D01*
X026389Y001728D01*
X026532Y001871D01*
X026655Y001871D01*
X026647Y001882D02*
X026696Y001815D01*
X026755Y001756D01*
X026822Y001707D01*
X026897Y001669D01*
X026976Y001643D01*
X027058Y001630D01*
X027080Y001630D01*
X027080Y002140D01*
X027120Y002140D01*
X027120Y002180D01*
X027630Y002180D01*
X027630Y002202D01*
X027617Y002284D01*
X027591Y002363D01*
X027553Y002438D01*
X027504Y002505D01*
X027445Y002564D01*
X027378Y002613D01*
X027303Y002651D01*
X027224Y002677D01*
X027142Y002690D01*
X027120Y002690D01*
X027120Y002180D01*
X027080Y002180D01*
X027080Y002690D01*
X027058Y002690D01*
X026976Y002677D01*
X026897Y002651D01*
X026822Y002613D01*
X026755Y002564D01*
X026696Y002505D01*
X026647Y002438D01*
X026609Y002363D01*
X026591Y002308D01*
X026532Y002449D01*
X026389Y002592D01*
X026201Y002670D01*
X025999Y002670D01*
X025811Y002592D01*
X025668Y002449D01*
X025590Y002261D01*
X025625Y002345D02*
X025130Y002345D01*
X025130Y002464D02*
X025682Y002464D01*
X025801Y002582D02*
X025128Y002582D01*
X025102Y002701D02*
X029810Y002701D01*
X029810Y002817D02*
X029810Y002503D01*
X029930Y002213D01*
X030153Y001990D01*
X030443Y001870D01*
X030757Y001870D01*
X031047Y001990D01*
X031270Y002213D01*
X031390Y002503D01*
X031390Y002817D01*
X031270Y003107D01*
X031047Y003330D01*
X030757Y003450D01*
X030443Y003450D01*
X030153Y003330D01*
X029930Y003107D01*
X029810Y002817D01*
X029811Y002819D02*
X025045Y002819D01*
X024941Y002938D02*
X029860Y002938D01*
X029909Y003056D02*
X024667Y003056D01*
X024650Y003056D02*
X024550Y003056D01*
X024533Y003056D02*
X023920Y003056D01*
X023920Y002938D02*
X024259Y002938D01*
X024098Y002701D02*
X024081Y002701D01*
X024550Y002701D02*
X024650Y002701D01*
X024650Y002819D02*
X024550Y002819D01*
X024550Y002938D02*
X024650Y002938D01*
X023920Y003649D02*
X025594Y003649D01*
X025590Y003659D02*
X025668Y003471D01*
X025811Y003328D01*
X025999Y003250D01*
X026201Y003250D01*
X026389Y003328D01*
X026532Y003471D01*
X026610Y003659D01*
X026610Y003861D01*
X026532Y004049D01*
X026389Y004192D01*
X026201Y004270D01*
X025999Y004270D01*
X025811Y004192D01*
X025668Y004049D01*
X025590Y003861D01*
X025590Y003659D01*
X025590Y003767D02*
X023920Y003767D01*
X023920Y003886D02*
X025600Y003886D01*
X025649Y004004D02*
X023920Y004004D01*
X023920Y004123D02*
X025741Y004123D01*
X025929Y004241D02*
X023920Y004241D01*
X023920Y004360D02*
X031940Y004360D01*
X031940Y004478D02*
X023920Y004478D01*
X023920Y004597D02*
X031940Y004597D01*
X031940Y004715D02*
X023920Y004715D01*
X023920Y004834D02*
X031940Y004834D01*
X031940Y004952D02*
X023920Y004952D01*
X023920Y005071D02*
X031940Y005071D01*
X031940Y005189D02*
X023920Y005189D01*
X023920Y005308D02*
X031940Y005308D01*
X031940Y005426D02*
X023920Y005426D01*
X023920Y005545D02*
X031940Y005545D01*
X031940Y005663D02*
X023920Y005663D01*
X023920Y005782D02*
X031940Y005782D01*
X031940Y005900D02*
X023920Y005900D01*
X023920Y006019D02*
X031940Y006019D01*
X031940Y006137D02*
X023920Y006137D01*
X023920Y006256D02*
X031940Y006256D01*
X031940Y006374D02*
X023907Y006374D01*
X023858Y006493D02*
X031940Y006493D01*
X031940Y006611D02*
X023743Y006611D01*
X023624Y006730D02*
X031940Y006730D01*
X031940Y006848D02*
X023506Y006848D01*
X023387Y006967D02*
X031940Y006967D01*
X031940Y007085D02*
X023269Y007085D01*
X023150Y007204D02*
X031940Y007204D01*
X031940Y007322D02*
X023024Y007322D01*
X022626Y006540D02*
X023080Y006086D01*
X023080Y001876D01*
X023090Y001852D01*
X023090Y001689D01*
X023168Y001501D01*
X023311Y001358D01*
X023402Y001320D01*
X012100Y001320D01*
X012100Y003540D01*
X013084Y003540D01*
X013238Y003604D01*
X013474Y003840D01*
X015984Y003840D01*
X016138Y003904D01*
X018474Y006240D01*
X018820Y006240D01*
X018920Y006141D01*
X019116Y006059D01*
X020116Y006059D01*
X020312Y006141D01*
X020364Y006193D01*
X020471Y006237D01*
X020774Y006540D01*
X022626Y006540D01*
X022674Y006493D02*
X020726Y006493D01*
X020608Y006374D02*
X022792Y006374D01*
X022911Y006256D02*
X021907Y006256D01*
X021874Y006279D02*
X021797Y006319D01*
X021714Y006346D01*
X021628Y006359D01*
X021623Y006359D01*
X021623Y005450D01*
X022138Y005450D01*
X022138Y005849D01*
X022124Y005935D01*
X022097Y006018D01*
X022058Y006096D01*
X022007Y006166D01*
X021945Y006228D01*
X021874Y006279D01*
X022028Y006137D02*
X023029Y006137D01*
X023080Y006019D02*
X022097Y006019D01*
X022130Y005900D02*
X023080Y005900D01*
X023080Y005782D02*
X022138Y005782D01*
X022138Y005663D02*
X023080Y005663D01*
X023080Y005545D02*
X022138Y005545D01*
X022138Y005374D02*
X021623Y005374D01*
X021623Y005450D01*
X021546Y005450D01*
X021546Y005374D01*
X021031Y005374D01*
X021031Y004975D01*
X021044Y004889D01*
X021071Y004806D01*
X021111Y004728D01*
X021162Y004658D01*
X021224Y004596D01*
X021294Y004545D01*
X021372Y004505D01*
X021455Y004478D01*
X021541Y004465D01*
X021546Y004465D01*
X021546Y005374D01*
X021623Y005374D01*
X021623Y004465D01*
X021628Y004465D01*
X021714Y004478D01*
X021797Y004505D01*
X021874Y004545D01*
X021945Y004596D01*
X022007Y004658D01*
X022058Y004728D01*
X022097Y004806D01*
X022124Y004889D01*
X022138Y004975D01*
X022138Y005374D01*
X022138Y005308D02*
X023080Y005308D01*
X023080Y005426D02*
X021623Y005426D01*
X021546Y005426D02*
X017660Y005426D01*
X017778Y005545D02*
X021031Y005545D01*
X021031Y005450D02*
X021546Y005450D01*
X021546Y006359D01*
X021541Y006359D01*
X021455Y006346D01*
X021372Y006319D01*
X021294Y006279D01*
X021224Y006228D01*
X021162Y006166D01*
X021111Y006096D01*
X021071Y006018D01*
X021044Y005935D01*
X021031Y005849D01*
X021031Y005450D01*
X021031Y005308D02*
X017541Y005308D01*
X017423Y005189D02*
X021031Y005189D01*
X021031Y005071D02*
X017304Y005071D01*
X017186Y004952D02*
X021034Y004952D01*
X021062Y004834D02*
X017067Y004834D01*
X016949Y004715D02*
X021120Y004715D01*
X021223Y004597D02*
X020280Y004597D01*
X020300Y004586D02*
X020222Y004626D01*
X020139Y004653D01*
X020053Y004666D01*
X019654Y004666D01*
X019654Y004151D01*
X020563Y004151D01*
X020563Y004156D01*
X020550Y004242D01*
X020523Y004325D01*
X020483Y004403D01*
X020432Y004473D01*
X020370Y004535D01*
X020300Y004586D01*
X020427Y004478D02*
X021456Y004478D01*
X021546Y004478D02*
X021623Y004478D01*
X021713Y004478D02*
X023080Y004478D01*
X023080Y004360D02*
X020505Y004360D01*
X020550Y004241D02*
X023080Y004241D01*
X023080Y004123D02*
X019654Y004123D01*
X019654Y004151D02*
X019654Y004074D01*
X019654Y003559D01*
X020053Y003559D01*
X020139Y003573D01*
X020222Y003600D01*
X020300Y003639D01*
X020370Y003690D01*
X020432Y003752D01*
X020483Y003823D01*
X020523Y003900D01*
X020550Y003983D01*
X020563Y004069D01*
X020563Y004074D01*
X019654Y004074D01*
X019577Y004074D01*
X019577Y003559D01*
X019178Y003559D01*
X019092Y003573D01*
X019009Y003600D01*
X018932Y003639D01*
X018861Y003690D01*
X018800Y003752D01*
X018748Y003823D01*
X018709Y003900D01*
X018682Y003983D01*
X018668Y004069D01*
X018668Y004074D01*
X019577Y004074D01*
X019577Y004151D01*
X018668Y004151D01*
X018668Y004156D01*
X018682Y004242D01*
X018709Y004325D01*
X018748Y004403D01*
X018800Y004473D01*
X018861Y004535D01*
X018932Y004586D01*
X019009Y004626D01*
X019092Y004653D01*
X019178Y004666D01*
X019577Y004666D01*
X019577Y004151D01*
X019654Y004151D01*
X019577Y004123D02*
X016356Y004123D01*
X016475Y004241D02*
X018682Y004241D01*
X018726Y004360D02*
X016593Y004360D01*
X016712Y004478D02*
X018804Y004478D01*
X018952Y004597D02*
X016830Y004597D01*
X016238Y004004D02*
X018679Y004004D01*
X018716Y003886D02*
X016093Y003886D01*
X016685Y003414D02*
X016651Y003346D01*
X016627Y003274D01*
X016615Y003198D01*
X016615Y003169D01*
X017091Y003169D01*
X017091Y003645D01*
X017062Y003645D01*
X016986Y003633D01*
X016914Y003609D01*
X016846Y003575D01*
X016784Y003530D01*
X016730Y003476D01*
X016685Y003414D01*
X016684Y003412D02*
X014516Y003412D01*
X014515Y003414D02*
X014470Y003476D01*
X014416Y003530D01*
X014354Y003575D01*
X014286Y003609D01*
X014214Y003633D01*
X014138Y003645D01*
X014109Y003645D01*
X014109Y003169D01*
X014091Y003169D01*
X014091Y003645D01*
X014062Y003645D01*
X013986Y003633D01*
X013914Y003609D01*
X013846Y003575D01*
X013784Y003530D01*
X013730Y003476D01*
X013685Y003414D01*
X013651Y003346D01*
X013627Y003274D01*
X013615Y003198D01*
X013615Y003169D01*
X014091Y003169D01*
X014091Y003151D01*
X013615Y003151D01*
X013615Y003122D01*
X013627Y003046D01*
X013651Y002974D01*
X013685Y002906D01*
X013730Y002844D01*
X013784Y002790D01*
X013846Y002745D01*
X013914Y002711D01*
X013986Y002687D01*
X014062Y002675D01*
X014091Y002675D01*
X014091Y003151D01*
X014109Y003151D01*
X014109Y003169D01*
X014585Y003169D01*
X014585Y003198D01*
X014573Y003274D01*
X014549Y003346D01*
X014515Y003414D01*
X014567Y003293D02*
X016633Y003293D01*
X016615Y003175D02*
X014585Y003175D01*
X014585Y003151D02*
X014109Y003151D01*
X014109Y002675D01*
X014138Y002675D01*
X014214Y002687D01*
X014286Y002711D01*
X014354Y002745D01*
X014416Y002790D01*
X014470Y002844D01*
X014515Y002906D01*
X014549Y002974D01*
X014573Y003046D01*
X014585Y003122D01*
X014585Y003151D01*
X014575Y003056D02*
X016625Y003056D01*
X016627Y003046D02*
X016651Y002974D01*
X016685Y002906D01*
X016730Y002844D01*
X016784Y002790D01*
X016846Y002745D01*
X016914Y002711D01*
X016986Y002687D01*
X017062Y002675D01*
X017091Y002675D01*
X017091Y003151D01*
X016615Y003151D01*
X016615Y003122D01*
X016627Y003046D01*
X016669Y002938D02*
X014531Y002938D01*
X014445Y002819D02*
X016755Y002819D01*
X016717Y002625D02*
X016635Y002543D01*
X016635Y001777D01*
X016717Y001695D01*
X017483Y001695D01*
X017565Y001777D01*
X017565Y002543D01*
X017483Y002625D01*
X016717Y002625D01*
X016674Y002582D02*
X014526Y002582D01*
X014565Y002543D02*
X014483Y002625D01*
X013717Y002625D01*
X013635Y002543D01*
X013635Y001777D01*
X013717Y001695D01*
X014483Y001695D01*
X014565Y001777D01*
X014565Y002543D01*
X014565Y002464D02*
X016635Y002464D01*
X016635Y002345D02*
X014565Y002345D01*
X014565Y002227D02*
X016635Y002227D01*
X016635Y002108D02*
X014565Y002108D01*
X014565Y001990D02*
X016635Y001990D01*
X016635Y001871D02*
X014565Y001871D01*
X014540Y001753D02*
X016660Y001753D01*
X017540Y001753D02*
X023090Y001753D01*
X023082Y001871D02*
X017565Y001871D01*
X017565Y001990D02*
X023080Y001990D01*
X023080Y002108D02*
X017565Y002108D01*
X017565Y002227D02*
X023080Y002227D01*
X023080Y002345D02*
X017565Y002345D01*
X017565Y002464D02*
X023080Y002464D01*
X023080Y002582D02*
X017526Y002582D01*
X017416Y002790D02*
X017470Y002844D01*
X017515Y002906D01*
X017549Y002974D01*
X017573Y003046D01*
X017585Y003122D01*
X017585Y003151D01*
X017109Y003151D01*
X017109Y003169D01*
X017091Y003169D01*
X017091Y003151D01*
X017109Y003151D01*
X017109Y002675D01*
X017138Y002675D01*
X017214Y002687D01*
X017286Y002711D01*
X017354Y002745D01*
X017416Y002790D01*
X017445Y002819D02*
X023080Y002819D01*
X023080Y002701D02*
X017255Y002701D01*
X017109Y002701D02*
X017091Y002701D01*
X017091Y002819D02*
X017109Y002819D01*
X017109Y002938D02*
X017091Y002938D01*
X017091Y003056D02*
X017109Y003056D01*
X017109Y003169D02*
X017585Y003169D01*
X017585Y003198D01*
X017573Y003274D01*
X017549Y003346D01*
X017515Y003414D01*
X017470Y003476D01*
X017416Y003530D01*
X017354Y003575D01*
X017286Y003609D01*
X017214Y003633D01*
X017138Y003645D01*
X017109Y003645D01*
X017109Y003169D01*
X017109Y003175D02*
X017091Y003175D01*
X017091Y003293D02*
X017109Y003293D01*
X017109Y003412D02*
X017091Y003412D01*
X017091Y003530D02*
X017109Y003530D01*
X017416Y003530D02*
X023080Y003530D01*
X023080Y003412D02*
X017516Y003412D01*
X017567Y003293D02*
X023080Y003293D01*
X023080Y003175D02*
X017585Y003175D01*
X017575Y003056D02*
X023080Y003056D01*
X023080Y002938D02*
X017531Y002938D01*
X016945Y002701D02*
X014255Y002701D01*
X014109Y002701D02*
X014091Y002701D01*
X014091Y002819D02*
X014109Y002819D01*
X014109Y002938D02*
X014091Y002938D01*
X014091Y003056D02*
X014109Y003056D01*
X014109Y003175D02*
X014091Y003175D01*
X014091Y003293D02*
X014109Y003293D01*
X014109Y003412D02*
X014091Y003412D01*
X014091Y003530D02*
X014109Y003530D01*
X014416Y003530D02*
X016784Y003530D01*
X015761Y004715D02*
X012280Y004715D01*
X012452Y004834D02*
X015880Y004834D01*
X015998Y004952D02*
X014103Y004952D01*
X014222Y005071D02*
X016117Y005071D01*
X016235Y005189D02*
X014340Y005189D01*
X014459Y005308D02*
X016354Y005308D01*
X016472Y005426D02*
X014577Y005426D01*
X014696Y005545D02*
X016591Y005545D01*
X016709Y005663D02*
X014733Y005663D01*
X014943Y005782D02*
X016828Y005782D01*
X016946Y005900D02*
X015044Y005900D01*
X015093Y006019D02*
X017065Y006019D01*
X017183Y006137D02*
X015110Y006137D01*
X015110Y006256D02*
X017302Y006256D01*
X017420Y006374D02*
X015063Y006374D01*
X014989Y006493D02*
X017539Y006493D01*
X017657Y006611D02*
X014844Y006611D01*
X014820Y006730D02*
X017776Y006730D01*
X017894Y006848D02*
X014820Y006848D01*
X014820Y006967D02*
X018013Y006967D01*
X018371Y006137D02*
X018928Y006137D01*
X018252Y006019D02*
X021071Y006019D01*
X021039Y005900D02*
X018134Y005900D01*
X018015Y005782D02*
X021031Y005782D01*
X021031Y005663D02*
X017897Y005663D01*
X019015Y007085D02*
X014820Y007085D01*
X014820Y007204D02*
X019196Y007204D01*
X019196Y007322D02*
X014820Y007322D01*
X014820Y007441D02*
X019196Y007441D01*
X019196Y007559D02*
X014820Y007559D01*
X014820Y007678D02*
X019196Y007678D01*
X019196Y007796D02*
X014830Y007796D01*
X014948Y007915D02*
X019196Y007915D01*
X019196Y008033D02*
X015020Y008033D01*
X015020Y008152D02*
X019196Y008152D01*
X019200Y008270D02*
X015020Y008270D01*
X014965Y008389D02*
X019249Y008389D01*
X019353Y008507D02*
X014847Y008507D01*
X014409Y008626D02*
X019472Y008626D01*
X019590Y008744D02*
X015695Y008744D01*
X015814Y008863D02*
X019635Y008863D01*
X019635Y008981D02*
X015932Y008981D01*
X016051Y009100D02*
X019692Y009100D01*
X020508Y009100D02*
X020894Y009100D01*
X020914Y009109D02*
X020846Y009075D01*
X020784Y009030D01*
X020730Y008976D01*
X020685Y008914D01*
X020651Y008846D01*
X020627Y008774D01*
X020615Y008698D01*
X020615Y008669D01*
X021091Y008669D01*
X021091Y009145D01*
X021062Y009145D01*
X020986Y009133D01*
X020914Y009109D01*
X021091Y009100D02*
X021109Y009100D01*
X021109Y009145D02*
X021138Y009145D01*
X021214Y009133D01*
X021286Y009109D01*
X021354Y009075D01*
X021416Y009030D01*
X021470Y008976D01*
X021515Y008914D01*
X021549Y008846D01*
X021573Y008774D01*
X021585Y008698D01*
X021585Y008669D01*
X021109Y008669D01*
X021109Y008651D01*
X021585Y008651D01*
X021585Y008622D01*
X021573Y008546D01*
X021549Y008474D01*
X021515Y008406D01*
X021470Y008344D01*
X021416Y008290D01*
X021354Y008245D01*
X021286Y008211D01*
X021214Y008187D01*
X021138Y008175D01*
X021109Y008175D01*
X021109Y008651D01*
X021091Y008651D01*
X021091Y008175D01*
X021062Y008175D01*
X020986Y008187D01*
X020914Y008211D01*
X020846Y008245D01*
X020784Y008290D01*
X020730Y008344D01*
X020685Y008406D01*
X020651Y008474D01*
X020627Y008546D01*
X020615Y008622D01*
X020615Y008651D01*
X021091Y008651D01*
X021091Y008669D01*
X021109Y008669D01*
X021109Y009145D01*
X021091Y008981D02*
X021109Y008981D01*
X021109Y008863D02*
X021091Y008863D01*
X021091Y008744D02*
X021109Y008744D01*
X021109Y008626D02*
X021091Y008626D01*
X021091Y008507D02*
X021109Y008507D01*
X021109Y008389D02*
X021091Y008389D01*
X021091Y008270D02*
X021109Y008270D01*
X021388Y008270D02*
X031940Y008270D01*
X031940Y008152D02*
X020185Y008152D01*
X020067Y008033D02*
X031940Y008033D01*
X031940Y007915D02*
X020036Y007915D01*
X020036Y007796D02*
X031940Y007796D01*
X031940Y007678D02*
X020036Y007678D01*
X020036Y007559D02*
X031940Y007559D01*
X031940Y007441D02*
X020036Y007441D01*
X020036Y007322D02*
X020376Y007322D01*
X020250Y007204D02*
X020036Y007204D01*
X020489Y006256D02*
X021261Y006256D01*
X021141Y006137D02*
X020303Y006137D01*
X021546Y006137D02*
X021623Y006137D01*
X021623Y006019D02*
X021546Y006019D01*
X021546Y005900D02*
X021623Y005900D01*
X021623Y005782D02*
X021546Y005782D01*
X021546Y005663D02*
X021623Y005663D01*
X021623Y005545D02*
X021546Y005545D01*
X021546Y005308D02*
X021623Y005308D01*
X021623Y005189D02*
X021546Y005189D01*
X021546Y005071D02*
X021623Y005071D01*
X021623Y004952D02*
X021546Y004952D01*
X021546Y004834D02*
X021623Y004834D01*
X021623Y004715D02*
X021546Y004715D01*
X021546Y004597D02*
X021623Y004597D01*
X021946Y004597D02*
X023080Y004597D01*
X023080Y004715D02*
X022048Y004715D01*
X022106Y004834D02*
X023080Y004834D01*
X023080Y004952D02*
X022134Y004952D01*
X022138Y005071D02*
X023080Y005071D01*
X023080Y005189D02*
X022138Y005189D01*
X021623Y006256D02*
X021546Y006256D01*
X019654Y004597D02*
X019577Y004597D01*
X019577Y004478D02*
X019654Y004478D01*
X019654Y004360D02*
X019577Y004360D01*
X019577Y004241D02*
X019654Y004241D01*
X019654Y004004D02*
X019577Y004004D01*
X019577Y003886D02*
X019654Y003886D01*
X019654Y003767D02*
X019577Y003767D01*
X019577Y003649D02*
X019654Y003649D01*
X020312Y003649D02*
X023080Y003649D01*
X023080Y003767D02*
X020443Y003767D01*
X020515Y003886D02*
X023080Y003886D01*
X023080Y004004D02*
X020553Y004004D01*
X018919Y003649D02*
X013282Y003649D01*
X013401Y003767D02*
X018789Y003767D01*
X023113Y001634D02*
X012100Y001634D01*
X012100Y001516D02*
X023162Y001516D01*
X023272Y001397D02*
X012100Y001397D01*
X012100Y001753D02*
X013660Y001753D01*
X013635Y001871D02*
X012100Y001871D01*
X012100Y001990D02*
X013635Y001990D01*
X013635Y002108D02*
X012100Y002108D01*
X012100Y002227D02*
X013635Y002227D01*
X013635Y002345D02*
X012100Y002345D01*
X012100Y002464D02*
X013635Y002464D01*
X013674Y002582D02*
X012100Y002582D01*
X012100Y002701D02*
X013945Y002701D01*
X013755Y002819D02*
X012100Y002819D01*
X012100Y002938D02*
X013669Y002938D01*
X013625Y003056D02*
X012100Y003056D01*
X012100Y003175D02*
X013615Y003175D01*
X013633Y003293D02*
X012100Y003293D01*
X012100Y003412D02*
X013684Y003412D01*
X013784Y003530D02*
X012100Y003530D01*
X012100Y004478D02*
X012924Y004478D01*
X013043Y004597D02*
X012100Y004597D01*
X012509Y005426D02*
X013955Y005426D01*
X014073Y005545D02*
X012394Y005545D01*
X012100Y005663D02*
X013467Y005663D01*
X013257Y005782D02*
X012100Y005782D01*
X012100Y005900D02*
X013156Y005900D01*
X013107Y006019D02*
X012100Y006019D01*
X012100Y006137D02*
X013090Y006137D01*
X013090Y006256D02*
X012100Y006256D01*
X012100Y006374D02*
X013137Y006374D01*
X013211Y006493D02*
X012100Y006493D01*
X012100Y006611D02*
X013356Y006611D01*
X013844Y006611D02*
X014356Y006611D01*
X014380Y006730D02*
X012100Y006730D01*
X012100Y006848D02*
X014380Y006848D01*
X014380Y006967D02*
X012100Y006967D01*
X012100Y007085D02*
X014380Y007085D01*
X014380Y007204D02*
X012100Y007204D01*
X012100Y007322D02*
X014380Y007322D01*
X014380Y007441D02*
X012100Y007441D01*
X012100Y007559D02*
X014380Y007559D01*
X014380Y007678D02*
X012100Y007678D01*
X012100Y007796D02*
X013342Y007796D01*
X013418Y007720D02*
X013580Y007720D01*
X013580Y008140D01*
X013620Y008140D01*
X013620Y008180D01*
X014040Y008180D01*
X014040Y008342D01*
X013782Y008600D01*
X013620Y008600D01*
X013620Y008180D01*
X013580Y008180D01*
X013580Y008600D01*
X013418Y008600D01*
X013160Y008342D01*
X013160Y008180D01*
X013580Y008180D01*
X013580Y008140D01*
X013160Y008140D01*
X013160Y007978D01*
X013418Y007720D01*
X013580Y007796D02*
X013620Y007796D01*
X013620Y007720D02*
X013782Y007720D01*
X014040Y007978D01*
X014040Y008140D01*
X013620Y008140D01*
X013620Y007720D01*
X013620Y007915D02*
X013580Y007915D01*
X013580Y008033D02*
X013620Y008033D01*
X013620Y008152D02*
X014180Y008152D01*
X014180Y008270D02*
X014040Y008270D01*
X013994Y008389D02*
X014235Y008389D01*
X014291Y008507D02*
X014353Y008507D01*
X014520Y009080D02*
X014520Y009084D01*
X014320Y009284D01*
X014320Y010151D01*
X014191Y010280D01*
X013091Y011380D01*
X012561Y011380D01*
X012532Y011449D01*
X012389Y011592D01*
X012201Y011670D01*
X012100Y011670D01*
X012100Y011680D01*
X012195Y011680D01*
X012372Y011753D01*
X012507Y011888D01*
X012528Y011940D01*
X014191Y011940D01*
X014691Y012440D01*
X014820Y012569D01*
X014820Y012699D01*
X014889Y012728D01*
X015032Y012871D01*
X015110Y013059D01*
X015110Y013261D01*
X015032Y013449D01*
X014889Y013592D01*
X014820Y013621D01*
X014820Y014786D01*
X015020Y014986D01*
X015020Y015334D01*
X014774Y015580D01*
X014426Y015580D01*
X014180Y015334D01*
X014180Y014986D01*
X014380Y014786D01*
X014380Y013621D01*
X014311Y013592D01*
X014168Y013449D01*
X014100Y013286D01*
X014032Y013449D01*
X013889Y013592D01*
X013701Y013670D01*
X013499Y013670D01*
X013311Y013592D01*
X013168Y013449D01*
X013090Y013261D01*
X013090Y013059D01*
X013168Y012871D01*
X013311Y012728D01*
X013499Y012650D01*
X013701Y012650D01*
X013889Y012728D01*
X014032Y012871D01*
X014100Y013034D01*
X014168Y012871D01*
X014311Y012728D01*
X014343Y012714D01*
X014009Y012380D01*
X012528Y012380D01*
X012507Y012432D01*
X012372Y012567D01*
X012195Y012640D01*
X012100Y012640D01*
X012100Y015680D01*
X012195Y015680D01*
X012372Y015753D01*
X012507Y015888D01*
X012580Y016065D01*
X012580Y016255D01*
X012507Y016432D01*
X012400Y016539D01*
X012400Y016639D01*
X012532Y016771D01*
X012610Y016959D01*
X012610Y017161D01*
X012532Y017349D01*
X012389Y017492D01*
X012201Y017570D01*
X012100Y017570D01*
X012100Y017650D01*
X012201Y017650D01*
X012389Y017728D01*
X012505Y017844D01*
X013880Y016469D01*
X013880Y016284D01*
X013680Y016084D01*
X013680Y015736D01*
X013926Y015490D01*
X014274Y015490D01*
X014424Y015640D01*
X015591Y015640D01*
X015720Y015769D01*
X017420Y017469D01*
X017420Y026369D01*
X017991Y026940D01*
X018139Y026940D01*
X018168Y026871D01*
X018311Y026728D01*
X018474Y026660D01*
X018311Y026592D01*
X018168Y026449D01*
X018090Y026261D01*
X018090Y026059D01*
X018168Y025871D01*
X018311Y025728D01*
X018380Y025699D01*
X018380Y012051D01*
X015409Y009080D01*
X014520Y009080D01*
X014504Y009100D02*
X015428Y009100D01*
X015547Y009218D02*
X014386Y009218D01*
X014320Y009337D02*
X015665Y009337D01*
X015784Y009455D02*
X014320Y009455D01*
X014320Y009574D02*
X015902Y009574D01*
X016021Y009692D02*
X015303Y009692D01*
X015389Y009728D02*
X015532Y009871D01*
X015610Y010059D01*
X015610Y010261D01*
X015532Y010449D01*
X015389Y010592D01*
X015248Y010651D01*
X015303Y010669D01*
X015378Y010707D01*
X015445Y010756D01*
X015504Y010815D01*
X015553Y010882D01*
X015591Y010957D01*
X015617Y011036D01*
X015630Y011118D01*
X015630Y011131D01*
X015129Y011131D01*
X015129Y011189D01*
X015630Y011189D01*
X015630Y011202D01*
X015617Y011284D01*
X015591Y011363D01*
X015553Y011438D01*
X015504Y011505D01*
X015445Y011564D01*
X015378Y011613D01*
X015303Y011651D01*
X015224Y011677D01*
X015142Y011690D01*
X015129Y011690D01*
X015129Y011189D01*
X015071Y011189D01*
X015071Y011690D01*
X015058Y011690D01*
X014976Y011677D01*
X014897Y011651D01*
X014822Y011613D01*
X014755Y011564D01*
X014696Y011505D01*
X014647Y011438D01*
X014609Y011363D01*
X014583Y011284D01*
X014570Y011202D01*
X014570Y011189D01*
X015071Y011189D01*
X015071Y011131D01*
X014570Y011131D01*
X014570Y011118D01*
X014583Y011036D01*
X014609Y010957D01*
X014647Y010882D01*
X014696Y010815D01*
X014755Y010756D01*
X014822Y010707D01*
X014897Y010669D01*
X014952Y010651D01*
X014811Y010592D01*
X014668Y010449D01*
X014590Y010261D01*
X014590Y010059D01*
X014668Y009871D01*
X014811Y009728D01*
X014999Y009650D01*
X015201Y009650D01*
X015389Y009728D01*
X015472Y009811D02*
X016139Y009811D01*
X016258Y009929D02*
X015556Y009929D01*
X015605Y010048D02*
X016376Y010048D01*
X016495Y010166D02*
X015610Y010166D01*
X015600Y010285D02*
X016613Y010285D01*
X016732Y010403D02*
X015551Y010403D01*
X015460Y010522D02*
X016850Y010522D01*
X016969Y010640D02*
X015274Y010640D01*
X015448Y010759D02*
X017087Y010759D01*
X017206Y010877D02*
X015550Y010877D01*
X015604Y010996D02*
X017324Y010996D01*
X017443Y011114D02*
X015629Y011114D01*
X015625Y011233D02*
X017561Y011233D01*
X017680Y011351D02*
X015595Y011351D01*
X015530Y011470D02*
X017798Y011470D01*
X017917Y011588D02*
X015413Y011588D01*
X015129Y011588D02*
X015071Y011588D01*
X015071Y011470D02*
X015129Y011470D01*
X015129Y011351D02*
X015071Y011351D01*
X015071Y011233D02*
X015129Y011233D01*
X014787Y011588D02*
X012393Y011588D01*
X012512Y011470D02*
X014670Y011470D01*
X014605Y011351D02*
X013120Y011351D01*
X013239Y011233D02*
X014575Y011233D01*
X014571Y011114D02*
X013357Y011114D01*
X013476Y010996D02*
X014596Y010996D01*
X014650Y010877D02*
X013594Y010877D01*
X013713Y010759D02*
X014752Y010759D01*
X014926Y010640D02*
X013831Y010640D01*
X013950Y010522D02*
X014740Y010522D01*
X014649Y010403D02*
X014068Y010403D01*
X014187Y010285D02*
X014600Y010285D01*
X014590Y010166D02*
X014305Y010166D01*
X014320Y010048D02*
X014595Y010048D01*
X014644Y009929D02*
X014320Y009929D01*
X014320Y009811D02*
X014728Y009811D01*
X014897Y009692D02*
X014320Y009692D01*
X013880Y009692D02*
X012400Y009692D01*
X012400Y009574D02*
X013880Y009574D01*
X013880Y009455D02*
X012484Y009455D01*
X012546Y009337D02*
X013880Y009337D01*
X013814Y009218D02*
X012580Y009218D01*
X012580Y009100D02*
X013696Y009100D01*
X013680Y008981D02*
X012545Y008981D01*
X012481Y008863D02*
X013680Y008863D01*
X013680Y008744D02*
X012350Y008744D01*
X012100Y008626D02*
X013791Y008626D01*
X013875Y008507D02*
X013909Y008507D01*
X013620Y008507D02*
X013580Y008507D01*
X013580Y008389D02*
X013620Y008389D01*
X013620Y008270D02*
X013580Y008270D01*
X013580Y008152D02*
X012100Y008152D01*
X012100Y008270D02*
X013160Y008270D01*
X013206Y008389D02*
X012100Y008389D01*
X012100Y008507D02*
X013325Y008507D01*
X013160Y008033D02*
X012100Y008033D01*
X012100Y007915D02*
X013223Y007915D01*
X013858Y007796D02*
X014370Y007796D01*
X014252Y007915D02*
X013977Y007915D01*
X014040Y008033D02*
X014180Y008033D01*
X014211Y006493D02*
X013989Y006493D01*
X014063Y006374D02*
X014137Y006374D01*
X014107Y006019D02*
X014093Y006019D01*
X014044Y005900D02*
X014156Y005900D01*
X014257Y005782D02*
X013943Y005782D01*
X013733Y005663D02*
X014192Y005663D01*
X016169Y009218D02*
X031940Y009218D01*
X031940Y009100D02*
X021306Y009100D01*
X021465Y008981D02*
X031940Y008981D01*
X031940Y008863D02*
X021541Y008863D01*
X021578Y008744D02*
X031940Y008744D01*
X031940Y008626D02*
X021585Y008626D01*
X021560Y008507D02*
X031940Y008507D01*
X031940Y008389D02*
X021502Y008389D01*
X020812Y008270D02*
X020558Y008270D01*
X020565Y008389D02*
X020698Y008389D01*
X020640Y008507D02*
X020565Y008507D01*
X020565Y008626D02*
X020615Y008626D01*
X020622Y008744D02*
X020565Y008744D01*
X020565Y008863D02*
X020659Y008863D01*
X020735Y008981D02*
X020565Y008981D01*
X018302Y011351D02*
X031940Y011351D01*
X031940Y011233D02*
X018184Y011233D01*
X018065Y011114D02*
X031940Y011114D01*
X031940Y010996D02*
X017947Y010996D01*
X017828Y010877D02*
X031940Y010877D01*
X031940Y010759D02*
X017710Y010759D01*
X017591Y010640D02*
X031940Y010640D01*
X031940Y010522D02*
X017473Y010522D01*
X017354Y010403D02*
X031940Y010403D01*
X031940Y010285D02*
X017236Y010285D01*
X017117Y010166D02*
X031940Y010166D01*
X031940Y010048D02*
X016999Y010048D01*
X016880Y009929D02*
X031940Y009929D01*
X031940Y009811D02*
X016762Y009811D01*
X016643Y009692D02*
X031940Y009692D01*
X031940Y009574D02*
X016525Y009574D01*
X016406Y009455D02*
X031940Y009455D01*
X031940Y009337D02*
X016288Y009337D01*
X013880Y009811D02*
X012472Y009811D01*
X012556Y009929D02*
X013880Y009929D01*
X013801Y010048D02*
X012605Y010048D01*
X012610Y010166D02*
X013683Y010166D01*
X013564Y010285D02*
X012600Y010285D01*
X012551Y010403D02*
X013446Y010403D01*
X013327Y010522D02*
X012460Y010522D01*
X012274Y010640D02*
X013209Y010640D01*
X013090Y010759D02*
X012420Y010759D01*
X012535Y010877D02*
X012972Y010877D01*
X012444Y011825D02*
X018154Y011825D01*
X018272Y011944D02*
X014195Y011944D01*
X014313Y012062D02*
X018380Y012062D01*
X018380Y012181D02*
X014432Y012181D01*
X014550Y012299D02*
X018380Y012299D01*
X018380Y012418D02*
X014669Y012418D01*
X014787Y012536D02*
X018380Y012536D01*
X018380Y012655D02*
X014820Y012655D01*
X014934Y012773D02*
X018380Y012773D01*
X018380Y012892D02*
X015041Y012892D01*
X015090Y013010D02*
X018380Y013010D01*
X018380Y013129D02*
X015110Y013129D01*
X015110Y013247D02*
X018380Y013247D01*
X018380Y013366D02*
X015067Y013366D01*
X014997Y013484D02*
X018380Y013484D01*
X018380Y013603D02*
X014864Y013603D01*
X014820Y013721D02*
X018380Y013721D01*
X018380Y013840D02*
X014820Y013840D01*
X014820Y013958D02*
X018380Y013958D01*
X018380Y014077D02*
X014820Y014077D01*
X014820Y014195D02*
X018380Y014195D01*
X018380Y014314D02*
X014820Y014314D01*
X014820Y014432D02*
X018380Y014432D01*
X018380Y014551D02*
X014820Y014551D01*
X014820Y014669D02*
X018380Y014669D01*
X018380Y014788D02*
X014821Y014788D01*
X014940Y014906D02*
X018380Y014906D01*
X018380Y015025D02*
X015020Y015025D01*
X015020Y015143D02*
X018380Y015143D01*
X018380Y015262D02*
X015020Y015262D01*
X014974Y015380D02*
X018380Y015380D01*
X018380Y015499D02*
X014855Y015499D01*
X014401Y015617D02*
X018380Y015617D01*
X018380Y015736D02*
X015687Y015736D01*
X015805Y015854D02*
X018380Y015854D01*
X018380Y015973D02*
X015924Y015973D01*
X016042Y016091D02*
X018380Y016091D01*
X018380Y016210D02*
X016161Y016210D01*
X016279Y016328D02*
X018380Y016328D01*
X018380Y016447D02*
X016398Y016447D01*
X016516Y016565D02*
X018380Y016565D01*
X018380Y016684D02*
X016635Y016684D01*
X016753Y016802D02*
X018380Y016802D01*
X018380Y016921D02*
X016872Y016921D01*
X016990Y017039D02*
X018380Y017039D01*
X018380Y017158D02*
X017109Y017158D01*
X017227Y017276D02*
X018380Y017276D01*
X018380Y017395D02*
X017346Y017395D01*
X017420Y017513D02*
X018380Y017513D01*
X018380Y017632D02*
X017420Y017632D01*
X017420Y017750D02*
X018380Y017750D01*
X018380Y017869D02*
X017420Y017869D01*
X017420Y017987D02*
X018380Y017987D01*
X018380Y018106D02*
X017420Y018106D01*
X017420Y018224D02*
X018380Y018224D01*
X018380Y018343D02*
X017420Y018343D01*
X017420Y018461D02*
X018380Y018461D01*
X018380Y018580D02*
X017420Y018580D01*
X017420Y018698D02*
X018380Y018698D01*
X018380Y018817D02*
X017420Y018817D01*
X017420Y018935D02*
X018380Y018935D01*
X018380Y019054D02*
X017420Y019054D01*
X017420Y019172D02*
X018380Y019172D01*
X018380Y019291D02*
X017420Y019291D01*
X017420Y019409D02*
X018380Y019409D01*
X018380Y019528D02*
X017420Y019528D01*
X017420Y019646D02*
X018380Y019646D01*
X018380Y019765D02*
X017420Y019765D01*
X017420Y019883D02*
X018380Y019883D01*
X018380Y020002D02*
X017420Y020002D01*
X017420Y020120D02*
X018380Y020120D01*
X018380Y020239D02*
X017420Y020239D01*
X017420Y020357D02*
X018380Y020357D01*
X018380Y020476D02*
X017420Y020476D01*
X017420Y020594D02*
X018380Y020594D01*
X018380Y020713D02*
X017420Y020713D01*
X017420Y020831D02*
X018380Y020831D01*
X018380Y020950D02*
X017420Y020950D01*
X017420Y021068D02*
X018380Y021068D01*
X018380Y021187D02*
X017420Y021187D01*
X017420Y021305D02*
X018380Y021305D01*
X018380Y021424D02*
X017420Y021424D01*
X017420Y021542D02*
X018380Y021542D01*
X018380Y021661D02*
X017420Y021661D01*
X017420Y021779D02*
X018380Y021779D01*
X018380Y021898D02*
X017420Y021898D01*
X017420Y022016D02*
X018380Y022016D01*
X018380Y022135D02*
X017420Y022135D01*
X017420Y022253D02*
X018380Y022253D01*
X018380Y022372D02*
X017420Y022372D01*
X017420Y022490D02*
X018380Y022490D01*
X018380Y022609D02*
X017420Y022609D01*
X017420Y022727D02*
X018380Y022727D01*
X018380Y022846D02*
X017420Y022846D01*
X017420Y022964D02*
X018380Y022964D01*
X018380Y023083D02*
X017420Y023083D01*
X017420Y023201D02*
X018380Y023201D01*
X018380Y023320D02*
X017420Y023320D01*
X017420Y023438D02*
X018380Y023438D01*
X018380Y023557D02*
X017420Y023557D01*
X017420Y023675D02*
X018380Y023675D01*
X018380Y023794D02*
X017420Y023794D01*
X017420Y023912D02*
X018380Y023912D01*
X018380Y024031D02*
X017420Y024031D01*
X017420Y024149D02*
X018380Y024149D01*
X018380Y024268D02*
X017420Y024268D01*
X017420Y024386D02*
X018380Y024386D01*
X018380Y024505D02*
X017420Y024505D01*
X017420Y024623D02*
X018380Y024623D01*
X018380Y024742D02*
X017420Y024742D01*
X017420Y024860D02*
X018380Y024860D01*
X018380Y024979D02*
X017420Y024979D01*
X017420Y025097D02*
X018380Y025097D01*
X018380Y025216D02*
X017420Y025216D01*
X017420Y025334D02*
X018380Y025334D01*
X018380Y025453D02*
X017420Y025453D01*
X017420Y025571D02*
X018380Y025571D01*
X018380Y025690D02*
X017420Y025690D01*
X017420Y025808D02*
X018231Y025808D01*
X018145Y025927D02*
X017420Y025927D01*
X017420Y026045D02*
X018096Y026045D01*
X018090Y026164D02*
X017420Y026164D01*
X017420Y026282D02*
X018099Y026282D01*
X018148Y026401D02*
X017452Y026401D01*
X017570Y026519D02*
X018238Y026519D01*
X018420Y026638D02*
X017689Y026638D01*
X017807Y026756D02*
X018283Y026756D01*
X018166Y026875D02*
X017926Y026875D01*
X017659Y027230D02*
X016720Y027230D01*
X016720Y027112D02*
X017540Y027112D01*
X017422Y026993D02*
X016720Y026993D01*
X016720Y026875D02*
X017303Y026875D01*
X017185Y026756D02*
X016720Y026756D01*
X016720Y026638D02*
X017066Y026638D01*
X017109Y026680D02*
X016980Y026551D01*
X016980Y017651D01*
X015409Y016080D01*
X014520Y016080D01*
X014520Y016084D01*
X014320Y016284D01*
X014320Y016651D01*
X014191Y016780D01*
X012591Y018380D01*
X012561Y018380D01*
X012532Y018449D01*
X012389Y018592D01*
X012201Y018670D01*
X012100Y018670D01*
X012100Y018680D01*
X012195Y018680D01*
X012372Y018753D01*
X012507Y018888D01*
X012528Y018940D01*
X014091Y018940D01*
X014691Y019540D01*
X014820Y019669D01*
X014820Y019699D01*
X014889Y019728D01*
X015032Y019871D01*
X015110Y020059D01*
X015110Y020261D01*
X015032Y020449D01*
X014889Y020592D01*
X014820Y020621D01*
X014820Y021786D01*
X015020Y021986D01*
X015020Y022334D01*
X014774Y022580D01*
X014426Y022580D01*
X014180Y022334D01*
X014180Y021986D01*
X014380Y021786D01*
X014380Y020621D01*
X014311Y020592D01*
X014168Y020449D01*
X014100Y020286D01*
X014032Y020449D01*
X013889Y020592D01*
X013701Y020670D01*
X013499Y020670D01*
X013311Y020592D01*
X013168Y020449D01*
X013090Y020261D01*
X013090Y020059D01*
X013168Y019871D01*
X013311Y019728D01*
X013499Y019650D01*
X013701Y019650D01*
X013889Y019728D01*
X014032Y019871D01*
X014100Y020034D01*
X014168Y019871D01*
X014284Y019755D01*
X013909Y019380D01*
X012528Y019380D01*
X012507Y019432D01*
X012372Y019567D01*
X012195Y019640D01*
X012100Y019640D01*
X012100Y022680D01*
X012195Y022680D01*
X012372Y022753D01*
X012507Y022888D01*
X012580Y023065D01*
X012580Y023255D01*
X012507Y023432D01*
X012372Y023567D01*
X012320Y023588D01*
X012320Y023699D01*
X012389Y023728D01*
X012532Y023871D01*
X012610Y024059D01*
X012610Y024261D01*
X012532Y024449D01*
X012389Y024592D01*
X012226Y024660D01*
X012389Y024728D01*
X012532Y024871D01*
X012561Y024940D01*
X012609Y024940D01*
X013880Y023669D01*
X013880Y023284D01*
X013680Y023084D01*
X013680Y022736D01*
X013926Y022490D01*
X014274Y022490D01*
X014520Y022736D01*
X014520Y022740D01*
X015891Y022740D01*
X016020Y022869D01*
X016720Y023569D01*
X016720Y027369D01*
X017291Y027940D01*
X018139Y027940D01*
X018168Y027871D01*
X018311Y027728D01*
X018474Y027660D01*
X018311Y027592D01*
X018168Y027449D01*
X018139Y027380D01*
X017809Y027380D01*
X017680Y027251D01*
X017109Y026680D01*
X017109Y026680D01*
X016980Y026519D02*
X016720Y026519D01*
X016720Y026401D02*
X016980Y026401D01*
X016980Y026282D02*
X016720Y026282D01*
X016720Y026164D02*
X016980Y026164D01*
X016980Y026045D02*
X016720Y026045D01*
X016720Y025927D02*
X016980Y025927D01*
X016980Y025808D02*
X016720Y025808D01*
X016720Y025690D02*
X016980Y025690D01*
X016980Y025571D02*
X016720Y025571D01*
X016720Y025453D02*
X016980Y025453D01*
X016980Y025334D02*
X016720Y025334D01*
X016720Y025216D02*
X016980Y025216D01*
X016980Y025097D02*
X016720Y025097D01*
X016720Y024979D02*
X016980Y024979D01*
X016980Y024860D02*
X016720Y024860D01*
X016720Y024742D02*
X016980Y024742D01*
X016980Y024623D02*
X016720Y024623D01*
X016720Y024505D02*
X016980Y024505D01*
X016980Y024386D02*
X016720Y024386D01*
X016720Y024268D02*
X016980Y024268D01*
X016980Y024149D02*
X016720Y024149D01*
X016720Y024031D02*
X016980Y024031D01*
X016980Y023912D02*
X016720Y023912D01*
X016720Y023794D02*
X016980Y023794D01*
X016980Y023675D02*
X016720Y023675D01*
X016708Y023557D02*
X016980Y023557D01*
X016980Y023438D02*
X016589Y023438D01*
X016471Y023320D02*
X016980Y023320D01*
X016980Y023201D02*
X016352Y023201D01*
X016234Y023083D02*
X016980Y023083D01*
X016980Y022964D02*
X016115Y022964D01*
X015997Y022846D02*
X016980Y022846D01*
X016980Y022727D02*
X014511Y022727D01*
X014393Y022609D02*
X016980Y022609D01*
X016980Y022490D02*
X014864Y022490D01*
X014982Y022372D02*
X016980Y022372D01*
X016980Y022253D02*
X015020Y022253D01*
X015020Y022135D02*
X016980Y022135D01*
X016980Y022016D02*
X015020Y022016D01*
X014932Y021898D02*
X016980Y021898D01*
X016980Y021779D02*
X014820Y021779D01*
X014820Y021661D02*
X016980Y021661D01*
X016980Y021542D02*
X014820Y021542D01*
X014820Y021424D02*
X016980Y021424D01*
X016980Y021305D02*
X014820Y021305D01*
X014820Y021187D02*
X016980Y021187D01*
X016980Y021068D02*
X014820Y021068D01*
X014820Y020950D02*
X016980Y020950D01*
X016980Y020831D02*
X014820Y020831D01*
X014820Y020713D02*
X016980Y020713D01*
X016980Y020594D02*
X014885Y020594D01*
X015006Y020476D02*
X016980Y020476D01*
X016980Y020357D02*
X015070Y020357D01*
X015110Y020239D02*
X016980Y020239D01*
X016980Y020120D02*
X015110Y020120D01*
X015086Y020002D02*
X016980Y020002D01*
X016980Y019883D02*
X015037Y019883D01*
X014926Y019765D02*
X016980Y019765D01*
X016980Y019646D02*
X014797Y019646D01*
X014679Y019528D02*
X016980Y019528D01*
X016980Y019409D02*
X014560Y019409D01*
X014442Y019291D02*
X016980Y019291D01*
X016980Y019172D02*
X014323Y019172D01*
X014205Y019054D02*
X016980Y019054D01*
X016980Y018935D02*
X012526Y018935D01*
X012435Y018817D02*
X016980Y018817D01*
X016980Y018698D02*
X012239Y018698D01*
X012402Y018580D02*
X014776Y018580D01*
X014755Y018564D02*
X014696Y018505D01*
X014647Y018438D01*
X014609Y018363D01*
X014583Y018284D01*
X014570Y018202D01*
X014570Y018189D01*
X015071Y018189D01*
X015071Y018690D01*
X015058Y018690D01*
X014976Y018677D01*
X014897Y018651D01*
X014822Y018613D01*
X014755Y018564D01*
X014664Y018461D02*
X012520Y018461D01*
X012629Y018343D02*
X014602Y018343D01*
X014574Y018224D02*
X012747Y018224D01*
X012866Y018106D02*
X014572Y018106D01*
X014570Y018118D02*
X014583Y018036D01*
X014609Y017957D01*
X014647Y017882D01*
X014696Y017815D01*
X014755Y017756D01*
X014822Y017707D01*
X014897Y017669D01*
X014976Y017643D01*
X015058Y017630D01*
X015071Y017630D01*
X015071Y018131D01*
X015129Y018131D01*
X015129Y018189D01*
X015630Y018189D01*
X015630Y018202D01*
X015617Y018284D01*
X015591Y018363D01*
X015553Y018438D01*
X015504Y018505D01*
X015445Y018564D01*
X015378Y018613D01*
X015303Y018651D01*
X015224Y018677D01*
X015142Y018690D01*
X015129Y018690D01*
X015129Y018189D01*
X015071Y018189D01*
X015071Y018131D01*
X014570Y018131D01*
X014570Y018118D01*
X014599Y017987D02*
X012984Y017987D01*
X013103Y017869D02*
X014657Y017869D01*
X014763Y017750D02*
X013221Y017750D01*
X013340Y017632D02*
X015049Y017632D01*
X015071Y017632D02*
X015129Y017632D01*
X015129Y017630D02*
X015142Y017630D01*
X015224Y017643D01*
X015303Y017669D01*
X015378Y017707D01*
X015445Y017756D01*
X015504Y017815D01*
X015553Y017882D01*
X015591Y017957D01*
X015617Y018036D01*
X015630Y018118D01*
X015630Y018131D01*
X015129Y018131D01*
X015129Y017630D01*
X015151Y017632D02*
X016960Y017632D01*
X016980Y017750D02*
X015437Y017750D01*
X015543Y017869D02*
X016980Y017869D01*
X016980Y017987D02*
X015601Y017987D01*
X015628Y018106D02*
X016980Y018106D01*
X016980Y018224D02*
X015626Y018224D01*
X015598Y018343D02*
X016980Y018343D01*
X016980Y018461D02*
X015536Y018461D01*
X015424Y018580D02*
X016980Y018580D01*
X016842Y017513D02*
X015339Y017513D01*
X015389Y017492D02*
X015201Y017570D01*
X014999Y017570D01*
X014811Y017492D01*
X014668Y017349D01*
X014590Y017161D01*
X014590Y016959D01*
X014668Y016771D01*
X014811Y016628D01*
X014999Y016550D01*
X015201Y016550D01*
X015389Y016628D01*
X015532Y016771D01*
X015610Y016959D01*
X015610Y017161D01*
X015532Y017349D01*
X015389Y017492D01*
X015487Y017395D02*
X016723Y017395D01*
X016605Y017276D02*
X015563Y017276D01*
X015610Y017158D02*
X016486Y017158D01*
X016368Y017039D02*
X015610Y017039D01*
X015594Y016921D02*
X016249Y016921D01*
X016131Y016802D02*
X015545Y016802D01*
X015445Y016684D02*
X016012Y016684D01*
X015894Y016565D02*
X015238Y016565D01*
X014962Y016565D02*
X014320Y016565D01*
X014320Y016447D02*
X015775Y016447D01*
X015657Y016328D02*
X014320Y016328D01*
X014394Y016210D02*
X015538Y016210D01*
X015420Y016091D02*
X014513Y016091D01*
X014345Y015499D02*
X014282Y015499D01*
X014226Y015380D02*
X014002Y015380D01*
X014040Y015342D02*
X013782Y015600D01*
X013620Y015600D01*
X013620Y015180D01*
X014040Y015180D01*
X014040Y015342D01*
X014040Y015262D02*
X014180Y015262D01*
X014180Y015143D02*
X013620Y015143D01*
X013620Y015140D02*
X013620Y015180D01*
X013580Y015180D01*
X013580Y015600D01*
X013418Y015600D01*
X013160Y015342D01*
X013160Y015180D01*
X013580Y015180D01*
X013580Y015140D01*
X013620Y015140D01*
X014040Y015140D01*
X014040Y014978D01*
X013782Y014720D01*
X013620Y014720D01*
X013620Y015140D01*
X013580Y015140D02*
X013580Y014720D01*
X013418Y014720D01*
X013160Y014978D01*
X013160Y015140D01*
X013580Y015140D01*
X013580Y015143D02*
X012100Y015143D01*
X012100Y015025D02*
X013160Y015025D01*
X013232Y014906D02*
X012100Y014906D01*
X012100Y014788D02*
X013350Y014788D01*
X013580Y014788D02*
X013620Y014788D01*
X013620Y014906D02*
X013580Y014906D01*
X013580Y015025D02*
X013620Y015025D01*
X013620Y015262D02*
X013580Y015262D01*
X013580Y015380D02*
X013620Y015380D01*
X013620Y015499D02*
X013580Y015499D01*
X013799Y015617D02*
X012100Y015617D01*
X012100Y015499D02*
X013316Y015499D01*
X013198Y015380D02*
X012100Y015380D01*
X012100Y015262D02*
X013160Y015262D01*
X013680Y015736D02*
X012330Y015736D01*
X012473Y015854D02*
X013680Y015854D01*
X013680Y015973D02*
X012542Y015973D01*
X012580Y016091D02*
X013687Y016091D01*
X013806Y016210D02*
X012580Y016210D01*
X012550Y016328D02*
X013880Y016328D01*
X013880Y016447D02*
X012492Y016447D01*
X012400Y016565D02*
X013784Y016565D01*
X013665Y016684D02*
X012445Y016684D01*
X012545Y016802D02*
X013547Y016802D01*
X013428Y016921D02*
X012594Y016921D01*
X012610Y017039D02*
X013310Y017039D01*
X013191Y017158D02*
X012610Y017158D01*
X012563Y017276D02*
X013073Y017276D01*
X012954Y017395D02*
X012487Y017395D01*
X012339Y017513D02*
X012836Y017513D01*
X012717Y017632D02*
X012100Y017632D01*
X012411Y017750D02*
X012599Y017750D01*
X013458Y017513D02*
X014861Y017513D01*
X014713Y017395D02*
X013577Y017395D01*
X013695Y017276D02*
X014637Y017276D01*
X014590Y017158D02*
X013814Y017158D01*
X013932Y017039D02*
X014590Y017039D01*
X014606Y016921D02*
X014051Y016921D01*
X014169Y016802D02*
X014655Y016802D01*
X014755Y016684D02*
X014288Y016684D01*
X015071Y017750D02*
X015129Y017750D01*
X015129Y017869D02*
X015071Y017869D01*
X015071Y017987D02*
X015129Y017987D01*
X015129Y018106D02*
X015071Y018106D01*
X015071Y018224D02*
X015129Y018224D01*
X015129Y018343D02*
X015071Y018343D01*
X015071Y018461D02*
X015129Y018461D01*
X015129Y018580D02*
X015071Y018580D01*
X014056Y019528D02*
X012411Y019528D01*
X012516Y019409D02*
X013938Y019409D01*
X014175Y019646D02*
X012100Y019646D01*
X012100Y019765D02*
X013274Y019765D01*
X013163Y019883D02*
X012100Y019883D01*
X012100Y020002D02*
X013114Y020002D01*
X013090Y020120D02*
X012100Y020120D01*
X012100Y020239D02*
X013090Y020239D01*
X013130Y020357D02*
X012100Y020357D01*
X012100Y020476D02*
X013194Y020476D01*
X013315Y020594D02*
X012100Y020594D01*
X012100Y020713D02*
X014380Y020713D01*
X014380Y020831D02*
X012100Y020831D01*
X012100Y020950D02*
X014380Y020950D01*
X014380Y021068D02*
X012100Y021068D01*
X012100Y021187D02*
X014380Y021187D01*
X014380Y021305D02*
X012100Y021305D01*
X012100Y021424D02*
X014380Y021424D01*
X014380Y021542D02*
X012100Y021542D01*
X012100Y021661D02*
X014380Y021661D01*
X014380Y021779D02*
X013841Y021779D01*
X013782Y021720D02*
X014040Y021978D01*
X014040Y022140D01*
X013620Y022140D01*
X013620Y022180D01*
X014040Y022180D01*
X014040Y022342D01*
X013782Y022600D01*
X013620Y022600D01*
X013620Y022180D01*
X013580Y022180D01*
X013580Y022600D01*
X013418Y022600D01*
X013160Y022342D01*
X013160Y022180D01*
X013580Y022180D01*
X013580Y022140D01*
X013620Y022140D01*
X013620Y021720D01*
X013782Y021720D01*
X013620Y021779D02*
X013580Y021779D01*
X013580Y021720D02*
X013580Y022140D01*
X013160Y022140D01*
X013160Y021978D01*
X013418Y021720D01*
X013580Y021720D01*
X013580Y021898D02*
X013620Y021898D01*
X013620Y022016D02*
X013580Y022016D01*
X013580Y022135D02*
X013620Y022135D01*
X013620Y022253D02*
X013580Y022253D01*
X013580Y022372D02*
X013620Y022372D01*
X013620Y022490D02*
X013580Y022490D01*
X013807Y022609D02*
X012100Y022609D01*
X012100Y022490D02*
X013308Y022490D01*
X013189Y022372D02*
X012100Y022372D01*
X012100Y022253D02*
X013160Y022253D01*
X013160Y022135D02*
X012100Y022135D01*
X012100Y022016D02*
X013160Y022016D01*
X013240Y021898D02*
X012100Y021898D01*
X012100Y021779D02*
X013359Y021779D01*
X013960Y021898D02*
X014268Y021898D01*
X014180Y022016D02*
X014040Y022016D01*
X014040Y022135D02*
X014180Y022135D01*
X014180Y022253D02*
X014040Y022253D01*
X014011Y022372D02*
X014218Y022372D01*
X014274Y022490D02*
X014336Y022490D01*
X013926Y022490D02*
X013892Y022490D01*
X013689Y022727D02*
X012309Y022727D01*
X012464Y022846D02*
X013680Y022846D01*
X013680Y022964D02*
X012538Y022964D01*
X012580Y023083D02*
X013680Y023083D01*
X013797Y023201D02*
X012580Y023201D01*
X012553Y023320D02*
X013880Y023320D01*
X013880Y023438D02*
X012501Y023438D01*
X012382Y023557D02*
X013880Y023557D01*
X013874Y023675D02*
X012320Y023675D01*
X012455Y023794D02*
X013755Y023794D01*
X013637Y023912D02*
X012549Y023912D01*
X012598Y024031D02*
X013518Y024031D01*
X013400Y024149D02*
X012610Y024149D01*
X012607Y024268D02*
X013281Y024268D01*
X013163Y024386D02*
X012558Y024386D01*
X012477Y024505D02*
X013044Y024505D01*
X012926Y024623D02*
X012315Y024623D01*
X012403Y024742D02*
X012807Y024742D01*
X012689Y024860D02*
X012521Y024860D01*
X012561Y025380D02*
X012532Y025449D01*
X012389Y025592D01*
X012201Y025670D01*
X012100Y025670D01*
X012100Y025680D01*
X012195Y025680D01*
X012372Y025753D01*
X012507Y025888D01*
X012528Y025940D01*
X014091Y025940D01*
X014691Y026540D01*
X014820Y026669D01*
X014820Y026699D01*
X014889Y026728D01*
X015032Y026871D01*
X015110Y027059D01*
X015110Y027261D01*
X015032Y027449D01*
X014889Y027592D01*
X014820Y027621D01*
X014820Y028786D01*
X015020Y028986D01*
X015020Y029334D01*
X014774Y029580D01*
X014426Y029580D01*
X014180Y029334D01*
X014180Y028986D01*
X014380Y028786D01*
X014380Y027621D01*
X014311Y027592D01*
X014168Y027449D01*
X014100Y027286D01*
X014032Y027449D01*
X013889Y027592D01*
X013701Y027670D01*
X013499Y027670D01*
X013311Y027592D01*
X013168Y027449D01*
X013090Y027261D01*
X013090Y027059D01*
X013168Y026871D01*
X013311Y026728D01*
X013499Y026650D01*
X013701Y026650D01*
X013889Y026728D01*
X014032Y026871D01*
X014100Y027034D01*
X014168Y026871D01*
X014284Y026755D01*
X013909Y026380D01*
X012528Y026380D01*
X012507Y026432D01*
X012372Y026567D01*
X012195Y026640D01*
X012100Y026640D01*
X012100Y029680D01*
X012195Y029680D01*
X012372Y029753D01*
X012507Y029888D01*
X012580Y030065D01*
X012580Y030255D01*
X012507Y030432D01*
X012372Y030567D01*
X012320Y030588D01*
X012320Y030699D01*
X012389Y030728D01*
X012532Y030871D01*
X012610Y031059D01*
X012610Y031261D01*
X012532Y031449D01*
X012389Y031592D01*
X012226Y031660D01*
X012389Y031728D01*
X012532Y031871D01*
X012561Y031940D01*
X012709Y031940D01*
X013880Y030769D01*
X013880Y030284D01*
X013680Y030084D01*
X013680Y029736D01*
X013926Y029490D01*
X014274Y029490D01*
X014474Y029690D01*
X017759Y029690D01*
X018119Y029330D01*
X018090Y029261D01*
X018090Y029059D01*
X018168Y028871D01*
X018311Y028728D01*
X018474Y028660D01*
X018311Y028592D01*
X018168Y028449D01*
X018139Y028380D01*
X017109Y028380D01*
X016409Y027680D01*
X016280Y027551D01*
X016280Y023751D01*
X015709Y023180D01*
X014424Y023180D01*
X014320Y023284D01*
X014320Y023851D01*
X014191Y023980D01*
X012791Y025380D01*
X012561Y025380D01*
X012529Y025453D02*
X014657Y025453D01*
X014647Y025438D02*
X014609Y025363D01*
X014583Y025284D01*
X014570Y025202D01*
X014570Y025189D01*
X015071Y025189D01*
X015071Y025690D01*
X015058Y025690D01*
X014976Y025677D01*
X014897Y025651D01*
X014822Y025613D01*
X014755Y025564D01*
X014696Y025505D01*
X014647Y025438D01*
X014599Y025334D02*
X012837Y025334D01*
X012956Y025216D02*
X014572Y025216D01*
X014570Y025131D02*
X014570Y025118D01*
X014583Y025036D01*
X014609Y024957D01*
X014647Y024882D01*
X014696Y024815D01*
X014755Y024756D01*
X014822Y024707D01*
X014897Y024669D01*
X014952Y024651D01*
X014811Y024592D01*
X014668Y024449D01*
X014590Y024261D01*
X014590Y024059D01*
X014668Y023871D01*
X014811Y023728D01*
X014999Y023650D01*
X015201Y023650D01*
X015389Y023728D01*
X015532Y023871D01*
X015610Y024059D01*
X015610Y024261D01*
X015532Y024449D01*
X015389Y024592D01*
X015248Y024651D01*
X015303Y024669D01*
X015378Y024707D01*
X015445Y024756D01*
X015504Y024815D01*
X015553Y024882D01*
X015591Y024957D01*
X015617Y025036D01*
X015630Y025118D01*
X015630Y025131D01*
X015129Y025131D01*
X015129Y025189D01*
X015630Y025189D01*
X015630Y025202D01*
X015617Y025284D01*
X015591Y025363D01*
X015553Y025438D01*
X015504Y025505D01*
X015445Y025564D01*
X015378Y025613D01*
X015303Y025651D01*
X015224Y025677D01*
X015142Y025690D01*
X015129Y025690D01*
X015129Y025189D01*
X015071Y025189D01*
X015071Y025131D01*
X014570Y025131D01*
X014573Y025097D02*
X013074Y025097D01*
X013193Y024979D02*
X014602Y024979D01*
X014663Y024860D02*
X013311Y024860D01*
X013430Y024742D02*
X014774Y024742D01*
X014885Y024623D02*
X013548Y024623D01*
X013667Y024505D02*
X014723Y024505D01*
X014642Y024386D02*
X013785Y024386D01*
X013904Y024268D02*
X014593Y024268D01*
X014590Y024149D02*
X014022Y024149D01*
X014141Y024031D02*
X014602Y024031D01*
X014651Y023912D02*
X014259Y023912D01*
X014320Y023794D02*
X014745Y023794D01*
X014938Y023675D02*
X014320Y023675D01*
X014320Y023557D02*
X016085Y023557D01*
X016204Y023675D02*
X015262Y023675D01*
X015455Y023794D02*
X016280Y023794D01*
X016280Y023912D02*
X015549Y023912D01*
X015598Y024031D02*
X016280Y024031D01*
X016280Y024149D02*
X015610Y024149D01*
X015607Y024268D02*
X016280Y024268D01*
X016280Y024386D02*
X015558Y024386D01*
X015477Y024505D02*
X016280Y024505D01*
X016280Y024623D02*
X015315Y024623D01*
X015426Y024742D02*
X016280Y024742D01*
X016280Y024860D02*
X015537Y024860D01*
X015598Y024979D02*
X016280Y024979D01*
X016280Y025097D02*
X015627Y025097D01*
X015628Y025216D02*
X016280Y025216D01*
X016280Y025334D02*
X015601Y025334D01*
X015543Y025453D02*
X016280Y025453D01*
X016280Y025571D02*
X015436Y025571D01*
X015129Y025571D02*
X015071Y025571D01*
X015071Y025453D02*
X015129Y025453D01*
X015129Y025334D02*
X015071Y025334D01*
X015071Y025216D02*
X015129Y025216D01*
X015129Y025690D02*
X015071Y025690D01*
X015055Y025690D02*
X012219Y025690D01*
X012410Y025571D02*
X014764Y025571D01*
X015145Y025690D02*
X016280Y025690D01*
X016280Y025808D02*
X012427Y025808D01*
X012523Y025927D02*
X016280Y025927D01*
X016280Y026045D02*
X014196Y026045D01*
X014315Y026164D02*
X016280Y026164D01*
X016280Y026282D02*
X014433Y026282D01*
X014552Y026401D02*
X016280Y026401D01*
X016280Y026519D02*
X014670Y026519D01*
X014789Y026638D02*
X016280Y026638D01*
X016280Y026756D02*
X014917Y026756D01*
X015034Y026875D02*
X016280Y026875D01*
X016280Y026993D02*
X015083Y026993D01*
X015110Y027112D02*
X016280Y027112D01*
X016280Y027230D02*
X015110Y027230D01*
X015074Y027349D02*
X016280Y027349D01*
X016280Y027467D02*
X015014Y027467D01*
X014896Y027586D02*
X016314Y027586D01*
X016433Y027704D02*
X014820Y027704D01*
X014820Y027823D02*
X016551Y027823D01*
X016670Y027941D02*
X014820Y027941D01*
X014820Y028060D02*
X016788Y028060D01*
X016907Y028178D02*
X014820Y028178D01*
X014820Y028297D02*
X017025Y028297D01*
X017174Y027823D02*
X018216Y027823D01*
X018368Y027704D02*
X017055Y027704D01*
X016937Y027586D02*
X018304Y027586D01*
X018186Y027467D02*
X016818Y027467D01*
X016720Y027349D02*
X017777Y027349D01*
X017680Y027251D02*
X017680Y027251D01*
X018832Y027704D02*
X021368Y027704D01*
X021304Y027586D02*
X018896Y027586D01*
X019014Y027467D02*
X021186Y027467D01*
X021126Y027349D02*
X019074Y027349D01*
X019110Y027230D02*
X021090Y027230D01*
X021090Y027112D02*
X019110Y027112D01*
X019083Y026993D02*
X021117Y026993D01*
X021166Y026875D02*
X019034Y026875D01*
X018917Y026756D02*
X021283Y026756D01*
X021420Y026638D02*
X018780Y026638D01*
X018962Y026519D02*
X021238Y026519D01*
X021148Y026401D02*
X019052Y026401D01*
X019101Y026282D02*
X021099Y026282D01*
X021090Y026164D02*
X019110Y026164D01*
X019104Y026045D02*
X021096Y026045D01*
X021145Y025927D02*
X019055Y025927D01*
X018969Y025808D02*
X021231Y025808D01*
X021403Y025690D02*
X018820Y025690D01*
X018820Y025571D02*
X022290Y025571D01*
X022403Y025690D02*
X021797Y025690D01*
X021969Y025808D02*
X022231Y025808D01*
X022145Y025927D02*
X022055Y025927D01*
X022171Y025453D02*
X018820Y025453D01*
X018820Y025334D02*
X022120Y025334D01*
X022090Y025216D02*
X018820Y025216D01*
X018820Y025097D02*
X022090Y025097D01*
X022123Y024979D02*
X018820Y024979D01*
X018820Y024860D02*
X022179Y024860D01*
X022297Y024742D02*
X018820Y024742D01*
X018820Y024623D02*
X022385Y024623D01*
X022223Y024505D02*
X018820Y024505D01*
X018820Y024386D02*
X022142Y024386D01*
X022093Y024268D02*
X018820Y024268D01*
X018820Y024149D02*
X022090Y024149D01*
X022102Y024031D02*
X018820Y024031D01*
X018820Y023912D02*
X022151Y023912D01*
X022245Y023794D02*
X018820Y023794D01*
X018820Y023675D02*
X022438Y023675D01*
X022275Y023557D02*
X018820Y023557D01*
X018820Y023438D02*
X022163Y023438D01*
X022114Y023320D02*
X018820Y023320D01*
X018820Y023201D02*
X022090Y023201D01*
X022090Y023083D02*
X018820Y023083D01*
X018820Y022964D02*
X022129Y022964D01*
X022193Y022846D02*
X018820Y022846D01*
X018820Y022727D02*
X022313Y022727D01*
X022350Y022609D02*
X018820Y022609D01*
X018820Y022490D02*
X022209Y022490D01*
X022136Y022372D02*
X018820Y022372D01*
X018820Y022253D02*
X022090Y022253D01*
X022090Y022135D02*
X018820Y022135D01*
X018820Y022016D02*
X022108Y022016D01*
X022157Y021898D02*
X018820Y021898D01*
X018820Y021779D02*
X022260Y021779D01*
X022425Y021661D02*
X018820Y021661D01*
X018820Y021542D02*
X022233Y021542D01*
X022139Y021424D02*
X018820Y021424D01*
X018820Y021305D02*
X022090Y021305D01*
X022078Y021068D02*
X018820Y021068D01*
X018820Y020950D02*
X022112Y020950D01*
X022184Y020831D02*
X018820Y020831D01*
X018820Y020713D02*
X022314Y020713D01*
X022315Y020594D02*
X018820Y020594D01*
X018820Y020476D02*
X022194Y020476D01*
X022130Y020357D02*
X018820Y020357D01*
X018820Y020239D02*
X022090Y020239D01*
X022090Y020120D02*
X018820Y020120D01*
X018820Y020002D02*
X022114Y020002D01*
X022163Y019883D02*
X018820Y019883D01*
X018820Y019765D02*
X022274Y019765D01*
X022441Y019646D02*
X018820Y019646D01*
X018820Y019528D02*
X022246Y019528D01*
X022151Y019409D02*
X018820Y019409D01*
X018820Y019291D02*
X022102Y019291D01*
X022090Y019172D02*
X018820Y019172D01*
X018820Y019054D02*
X022092Y019054D01*
X022141Y018935D02*
X018820Y018935D01*
X018820Y018817D02*
X022222Y018817D01*
X022383Y018698D02*
X018820Y018698D01*
X018820Y018580D02*
X022298Y018580D01*
X022180Y018461D02*
X018820Y018461D01*
X018820Y018343D02*
X022124Y018343D01*
X022090Y018224D02*
X018820Y018224D01*
X018820Y018106D02*
X022090Y018106D01*
X022120Y017987D02*
X018820Y017987D01*
X018820Y017869D02*
X022170Y017869D01*
X022289Y017750D02*
X018820Y017750D01*
X018820Y017632D02*
X031940Y017632D01*
X031940Y017750D02*
X030911Y017750D01*
X031030Y017869D02*
X031940Y017869D01*
X031940Y017987D02*
X031080Y017987D01*
X031110Y018106D02*
X031940Y018106D01*
X031940Y018224D02*
X031110Y018224D01*
X031076Y018343D02*
X031940Y018343D01*
X031940Y018461D02*
X031020Y018461D01*
X030902Y018580D02*
X031940Y018580D01*
X031940Y018698D02*
X030861Y018698D01*
X031006Y018817D02*
X031940Y018817D01*
X031940Y018935D02*
X031080Y018935D01*
X031120Y019054D02*
X031940Y019054D01*
X031940Y019172D02*
X030640Y019172D01*
X030640Y019120D02*
X030640Y018670D01*
X030560Y018670D01*
X030560Y019120D01*
X030640Y019120D01*
X030640Y019054D02*
X030560Y019054D01*
X030560Y019172D02*
X029640Y019172D01*
X029560Y019172D02*
X024110Y019172D01*
X024108Y019054D02*
X029080Y019054D01*
X029120Y018935D02*
X024059Y018935D01*
X023978Y018817D02*
X029194Y018817D01*
X029339Y018698D02*
X023817Y018698D01*
X023902Y018580D02*
X029298Y018580D01*
X029180Y018461D02*
X024020Y018461D01*
X024076Y018343D02*
X029124Y018343D01*
X029090Y018224D02*
X024110Y018224D01*
X024110Y018106D02*
X029090Y018106D01*
X029120Y017987D02*
X024080Y017987D01*
X024030Y017869D02*
X029170Y017869D01*
X029289Y017750D02*
X023911Y017750D01*
X023289Y017750D02*
X022911Y017750D01*
X023030Y017869D02*
X023170Y017869D01*
X023120Y017987D02*
X023080Y017987D01*
X024098Y019291D02*
X029085Y019291D01*
X029132Y019409D02*
X024049Y019409D01*
X023954Y019528D02*
X029218Y019528D01*
X029386Y019646D02*
X023759Y019646D01*
X023926Y019765D02*
X029274Y019765D01*
X029163Y019883D02*
X024037Y019883D01*
X024086Y020002D02*
X029114Y020002D01*
X029090Y020120D02*
X024110Y020120D01*
X024110Y020239D02*
X029090Y020239D01*
X029130Y020357D02*
X024070Y020357D01*
X024006Y020476D02*
X029194Y020476D01*
X029315Y020594D02*
X023885Y020594D01*
X023886Y020713D02*
X029348Y020713D01*
X029208Y020831D02*
X024016Y020831D01*
X024088Y020950D02*
X029135Y020950D01*
X029090Y021068D02*
X024122Y021068D01*
X024110Y021305D02*
X029108Y021305D01*
X029090Y021187D02*
X023640Y021187D01*
X023640Y021120D02*
X023640Y020670D01*
X023560Y020670D01*
X023560Y021120D01*
X023640Y021120D01*
X023640Y021068D02*
X023560Y021068D01*
X023560Y020950D02*
X023640Y020950D01*
X023640Y020831D02*
X023560Y020831D01*
X023560Y020713D02*
X023640Y020713D01*
X023560Y021187D02*
X022640Y021187D01*
X022560Y021187D02*
X018820Y021187D01*
X015967Y023438D02*
X014320Y023438D01*
X014320Y023320D02*
X015848Y023320D01*
X015730Y023201D02*
X014403Y023201D01*
X014315Y020594D02*
X013885Y020594D01*
X014006Y020476D02*
X014194Y020476D01*
X014130Y020357D02*
X014070Y020357D01*
X014086Y020002D02*
X014114Y020002D01*
X014163Y019883D02*
X014037Y019883D01*
X013926Y019765D02*
X014274Y019765D01*
X013918Y015499D02*
X013884Y015499D01*
X014040Y015025D02*
X014180Y015025D01*
X014260Y014906D02*
X013968Y014906D01*
X013850Y014788D02*
X014379Y014788D01*
X014380Y014669D02*
X012100Y014669D01*
X012100Y014551D02*
X014380Y014551D01*
X014380Y014432D02*
X012100Y014432D01*
X012100Y014314D02*
X014380Y014314D01*
X014380Y014195D02*
X012100Y014195D01*
X012100Y014077D02*
X014380Y014077D01*
X014380Y013958D02*
X012100Y013958D01*
X012100Y013840D02*
X014380Y013840D01*
X014380Y013721D02*
X012100Y013721D01*
X012100Y013603D02*
X013336Y013603D01*
X013203Y013484D02*
X012100Y013484D01*
X012100Y013366D02*
X013133Y013366D01*
X013090Y013247D02*
X012100Y013247D01*
X012100Y013129D02*
X013090Y013129D01*
X013110Y013010D02*
X012100Y013010D01*
X012100Y012892D02*
X013159Y012892D01*
X013266Y012773D02*
X012100Y012773D01*
X012100Y012655D02*
X013488Y012655D01*
X013712Y012655D02*
X014283Y012655D01*
X014266Y012773D02*
X013934Y012773D01*
X014041Y012892D02*
X014159Y012892D01*
X014110Y013010D02*
X014090Y013010D01*
X014067Y013366D02*
X014133Y013366D01*
X014203Y013484D02*
X013997Y013484D01*
X013864Y013603D02*
X014336Y013603D01*
X014165Y012536D02*
X012403Y012536D01*
X012513Y012418D02*
X014046Y012418D01*
X012260Y011707D02*
X018035Y011707D01*
X018421Y011470D02*
X031940Y011470D01*
X031940Y011588D02*
X018539Y011588D01*
X018658Y011707D02*
X031940Y011707D01*
X031940Y011825D02*
X018776Y011825D01*
X018820Y011944D02*
X031940Y011944D01*
X031940Y012062D02*
X018820Y012062D01*
X018820Y012181D02*
X031940Y012181D01*
X031940Y012299D02*
X018820Y012299D01*
X018820Y012418D02*
X031940Y012418D01*
X031940Y012536D02*
X018820Y012536D01*
X018820Y012655D02*
X031940Y012655D01*
X031940Y012773D02*
X018820Y012773D01*
X018820Y012892D02*
X031940Y012892D01*
X031940Y013010D02*
X018820Y013010D01*
X018820Y013129D02*
X031940Y013129D01*
X031940Y013247D02*
X018820Y013247D01*
X018820Y013366D02*
X031940Y013366D01*
X031940Y013484D02*
X018820Y013484D01*
X018820Y013603D02*
X031940Y013603D01*
X031940Y013721D02*
X018820Y013721D01*
X018820Y013840D02*
X031940Y013840D01*
X031940Y013958D02*
X018820Y013958D01*
X018820Y014077D02*
X031940Y014077D01*
X031940Y014195D02*
X018820Y014195D01*
X018820Y014314D02*
X031940Y014314D01*
X031940Y014432D02*
X018820Y014432D01*
X018820Y014551D02*
X031940Y014551D01*
X031940Y014669D02*
X018820Y014669D01*
X018820Y014788D02*
X031940Y014788D01*
X031940Y014906D02*
X018820Y014906D01*
X018820Y015025D02*
X031940Y015025D01*
X031940Y015143D02*
X018820Y015143D01*
X018820Y015262D02*
X031940Y015262D01*
X031940Y015380D02*
X018820Y015380D01*
X018820Y015499D02*
X031940Y015499D01*
X031940Y015617D02*
X018820Y015617D01*
X018820Y015736D02*
X031940Y015736D01*
X031940Y015854D02*
X018820Y015854D01*
X018820Y015973D02*
X031940Y015973D01*
X031940Y016091D02*
X018820Y016091D01*
X018820Y016210D02*
X031940Y016210D01*
X031940Y016328D02*
X018820Y016328D01*
X018820Y016447D02*
X031940Y016447D01*
X031940Y016565D02*
X018820Y016565D01*
X018820Y016684D02*
X031940Y016684D01*
X031940Y016802D02*
X018820Y016802D01*
X018820Y016921D02*
X031940Y016921D01*
X031940Y017039D02*
X018820Y017039D01*
X018820Y017158D02*
X031940Y017158D01*
X031940Y017276D02*
X018820Y017276D01*
X018820Y017395D02*
X031940Y017395D01*
X031940Y017513D02*
X018820Y017513D01*
X022560Y020713D02*
X022640Y020713D01*
X022640Y020831D02*
X022560Y020831D01*
X022560Y020950D02*
X022640Y020950D01*
X022640Y021068D02*
X022560Y021068D01*
X022560Y021305D02*
X022640Y021305D01*
X022640Y021424D02*
X022560Y021424D01*
X022560Y021542D02*
X022640Y021542D01*
X023560Y021542D02*
X023640Y021542D01*
X023640Y021424D02*
X023560Y021424D01*
X023560Y021305D02*
X023640Y021305D01*
X023775Y021661D02*
X029473Y021661D01*
X029261Y021542D02*
X023967Y021542D01*
X024061Y021424D02*
X029157Y021424D01*
X029260Y021779D02*
X023940Y021779D01*
X024043Y021898D02*
X029157Y021898D01*
X029108Y022016D02*
X024092Y022016D01*
X024110Y022135D02*
X029090Y022135D01*
X029090Y022253D02*
X024110Y022253D01*
X024064Y022372D02*
X029136Y022372D01*
X029209Y022490D02*
X023991Y022490D01*
X023850Y022609D02*
X029350Y022609D01*
X029313Y022727D02*
X023887Y022727D01*
X024007Y022846D02*
X029193Y022846D01*
X029129Y022964D02*
X024071Y022964D01*
X024110Y023083D02*
X029090Y023083D01*
X029090Y023201D02*
X024110Y023201D01*
X024086Y023320D02*
X029114Y023320D01*
X029163Y023438D02*
X024037Y023438D01*
X023925Y023557D02*
X029275Y023557D01*
X029438Y023675D02*
X023762Y023675D01*
X023955Y023794D02*
X029245Y023794D01*
X029151Y023912D02*
X024049Y023912D01*
X024098Y024031D02*
X029102Y024031D01*
X029090Y024149D02*
X024110Y024149D01*
X024107Y024268D02*
X029093Y024268D01*
X029142Y024386D02*
X024058Y024386D01*
X023977Y024505D02*
X029223Y024505D01*
X029385Y024623D02*
X023815Y024623D01*
X023903Y024742D02*
X029297Y024742D01*
X029179Y024860D02*
X024021Y024860D01*
X024077Y024979D02*
X029123Y024979D01*
X029090Y025097D02*
X024110Y025097D01*
X024110Y025216D02*
X029090Y025216D01*
X029120Y025334D02*
X024080Y025334D01*
X024029Y025453D02*
X029171Y025453D01*
X029290Y025571D02*
X023910Y025571D01*
X023797Y025690D02*
X029403Y025690D01*
X029231Y025808D02*
X023969Y025808D01*
X024055Y025927D02*
X029145Y025927D01*
X029096Y026045D02*
X024104Y026045D01*
X024110Y026164D02*
X029090Y026164D01*
X029099Y026282D02*
X024101Y026282D01*
X024052Y026401D02*
X029148Y026401D01*
X029238Y026519D02*
X023962Y026519D01*
X023780Y026638D02*
X029420Y026638D01*
X029283Y026756D02*
X023917Y026756D01*
X024034Y026875D02*
X029166Y026875D01*
X029117Y026993D02*
X024083Y026993D01*
X024110Y027112D02*
X029090Y027112D01*
X030780Y026638D02*
X031940Y026638D01*
X031940Y026756D02*
X030917Y026756D01*
X031034Y026875D02*
X031940Y026875D01*
X031940Y026993D02*
X031083Y026993D01*
X031110Y027112D02*
X031940Y027112D01*
X031940Y026519D02*
X030962Y026519D01*
X031052Y026401D02*
X031940Y026401D01*
X031940Y026282D02*
X031101Y026282D01*
X031110Y026164D02*
X031940Y026164D01*
X031940Y026045D02*
X031104Y026045D01*
X031055Y025927D02*
X031940Y025927D01*
X031940Y025808D02*
X030969Y025808D01*
X030797Y025690D02*
X031940Y025690D01*
X031940Y025571D02*
X030910Y025571D01*
X031029Y025453D02*
X031940Y025453D01*
X031940Y025334D02*
X031080Y025334D01*
X031110Y025216D02*
X031940Y025216D01*
X031940Y025097D02*
X031110Y025097D01*
X031077Y024979D02*
X031940Y024979D01*
X031940Y024860D02*
X031021Y024860D01*
X030903Y024742D02*
X031940Y024742D01*
X031940Y024623D02*
X030815Y024623D01*
X030977Y024505D02*
X031940Y024505D01*
X031940Y024386D02*
X031058Y024386D01*
X031107Y024268D02*
X031940Y024268D01*
X031940Y024149D02*
X031110Y024149D01*
X031098Y024031D02*
X031940Y024031D01*
X031940Y023912D02*
X031049Y023912D01*
X030955Y023794D02*
X031940Y023794D01*
X031940Y023675D02*
X030762Y023675D01*
X030925Y023557D02*
X031940Y023557D01*
X031940Y023438D02*
X031037Y023438D01*
X031086Y023320D02*
X031940Y023320D01*
X031940Y023201D02*
X031110Y023201D01*
X031110Y023083D02*
X031940Y023083D01*
X031940Y022964D02*
X031071Y022964D01*
X031007Y022846D02*
X031940Y022846D01*
X031940Y022727D02*
X030887Y022727D01*
X030850Y022609D02*
X031940Y022609D01*
X031940Y022490D02*
X030991Y022490D01*
X031064Y022372D02*
X031940Y022372D01*
X031940Y022253D02*
X031110Y022253D01*
X031110Y022135D02*
X031940Y022135D01*
X031940Y022016D02*
X031092Y022016D01*
X031043Y021898D02*
X031940Y021898D01*
X031940Y021779D02*
X030940Y021779D01*
X030939Y021542D02*
X031940Y021542D01*
X031940Y021424D02*
X031043Y021424D01*
X031092Y021305D02*
X031940Y021305D01*
X031940Y021187D02*
X031110Y021187D01*
X031110Y021068D02*
X031940Y021068D01*
X031940Y020950D02*
X031065Y020950D01*
X030992Y020831D02*
X031940Y020831D01*
X031940Y020713D02*
X030852Y020713D01*
X030885Y020594D02*
X031940Y020594D01*
X031940Y020476D02*
X031006Y020476D01*
X031070Y020357D02*
X031940Y020357D01*
X031940Y020239D02*
X031110Y020239D01*
X031110Y020120D02*
X031940Y020120D01*
X031940Y020002D02*
X031086Y020002D01*
X031037Y019883D02*
X031940Y019883D01*
X031940Y019765D02*
X030926Y019765D01*
X030814Y019646D02*
X031940Y019646D01*
X031940Y019528D02*
X030982Y019528D01*
X031068Y019409D02*
X031940Y019409D01*
X031940Y019291D02*
X031115Y019291D01*
X030640Y019291D02*
X030560Y019291D01*
X030560Y019409D02*
X030640Y019409D01*
X030640Y019528D02*
X030560Y019528D01*
X030560Y019646D02*
X030640Y019646D01*
X030640Y018935D02*
X030560Y018935D01*
X030560Y018817D02*
X030640Y018817D01*
X030640Y018698D02*
X030560Y018698D01*
X030120Y017987D02*
X030080Y017987D01*
X030030Y017869D02*
X030170Y017869D01*
X030289Y017750D02*
X029911Y017750D01*
X029640Y018698D02*
X029560Y018698D01*
X029560Y018817D02*
X029640Y018817D01*
X029640Y018935D02*
X029560Y018935D01*
X029560Y019054D02*
X029640Y019054D01*
X029640Y019291D02*
X029560Y019291D01*
X029560Y019409D02*
X029640Y019409D01*
X029640Y019528D02*
X029560Y019528D01*
X029560Y019646D02*
X029640Y019646D01*
X030727Y021661D02*
X031940Y021661D01*
X022100Y029363D02*
X022068Y029363D01*
X022100Y029482D02*
X022000Y029482D01*
X022100Y029600D02*
X021870Y029600D01*
X022100Y029719D02*
X018353Y029719D01*
X018234Y029837D02*
X022100Y029837D01*
X022100Y029956D02*
X018116Y029956D01*
X017997Y030074D02*
X022100Y030074D01*
X022100Y030193D02*
X014411Y030193D01*
X014320Y030311D02*
X022100Y030311D01*
X022100Y030430D02*
X014320Y030430D01*
X014320Y030548D02*
X022100Y030548D01*
X022100Y030667D02*
X015241Y030667D01*
X015201Y030650D02*
X015389Y030728D01*
X015532Y030871D01*
X015610Y031059D01*
X015610Y031261D01*
X015532Y031449D01*
X015389Y031592D01*
X015248Y031651D01*
X015303Y031669D01*
X015378Y031707D01*
X015445Y031756D01*
X015504Y031815D01*
X015553Y031882D01*
X015591Y031957D01*
X015617Y032036D01*
X015630Y032118D01*
X015630Y032131D01*
X015129Y032131D01*
X015129Y032189D01*
X015630Y032189D01*
X015630Y032202D01*
X015617Y032284D01*
X015591Y032363D01*
X015553Y032438D01*
X015504Y032505D01*
X015445Y032564D01*
X015378Y032613D01*
X015303Y032651D01*
X015224Y032677D01*
X015142Y032690D01*
X015129Y032690D01*
X015129Y032189D01*
X015071Y032189D01*
X015071Y032690D01*
X015058Y032690D01*
X014976Y032677D01*
X014897Y032651D01*
X014822Y032613D01*
X014755Y032564D01*
X014696Y032505D01*
X014647Y032438D01*
X014609Y032363D01*
X014583Y032284D01*
X014570Y032202D01*
X014570Y032189D01*
X015071Y032189D01*
X015071Y032131D01*
X014570Y032131D01*
X014570Y032118D01*
X014583Y032036D01*
X014609Y031957D01*
X014647Y031882D01*
X014696Y031815D01*
X014755Y031756D01*
X014822Y031707D01*
X014897Y031669D01*
X014952Y031651D01*
X014811Y031592D01*
X014668Y031449D01*
X014590Y031261D01*
X014590Y031059D01*
X014668Y030871D01*
X014811Y030728D01*
X014999Y030650D01*
X015201Y030650D01*
X014959Y030667D02*
X014320Y030667D01*
X014320Y030785D02*
X014754Y030785D01*
X014654Y030904D02*
X014320Y030904D01*
X014249Y031022D02*
X014605Y031022D01*
X014590Y031141D02*
X014131Y031141D01*
X014012Y031259D02*
X014590Y031259D01*
X014638Y031378D02*
X013894Y031378D01*
X013775Y031496D02*
X014715Y031496D01*
X014865Y031615D02*
X013657Y031615D01*
X013538Y031733D02*
X014786Y031733D01*
X014669Y031852D02*
X013420Y031852D01*
X013301Y031970D02*
X014604Y031970D01*
X014575Y032089D02*
X013183Y032089D01*
X013064Y032207D02*
X014571Y032207D01*
X014597Y032326D02*
X012946Y032326D01*
X012534Y032444D02*
X014651Y032444D01*
X014753Y032563D02*
X012419Y032563D01*
X012100Y032681D02*
X015002Y032681D01*
X015071Y032681D02*
X015129Y032681D01*
X015198Y032681D02*
X022100Y032681D01*
X022100Y032563D02*
X015447Y032563D01*
X015549Y032444D02*
X022100Y032444D01*
X022100Y032326D02*
X015603Y032326D01*
X015629Y032207D02*
X022100Y032207D01*
X022100Y032089D02*
X015625Y032089D01*
X015596Y031970D02*
X022100Y031970D01*
X022100Y031852D02*
X015531Y031852D01*
X015414Y031733D02*
X022100Y031733D01*
X022100Y031615D02*
X015335Y031615D01*
X015485Y031496D02*
X022100Y031496D01*
X022100Y031378D02*
X015562Y031378D01*
X015610Y031259D02*
X022100Y031259D01*
X022100Y031141D02*
X015610Y031141D01*
X015595Y031022D02*
X022100Y031022D01*
X022100Y030904D02*
X015546Y030904D01*
X015446Y030785D02*
X022100Y030785D01*
X021330Y029600D02*
X018870Y029600D01*
X019000Y029482D02*
X021200Y029482D01*
X021132Y029363D02*
X019068Y029363D01*
X019110Y029245D02*
X021090Y029245D01*
X021090Y029126D02*
X019110Y029126D01*
X019089Y029008D02*
X021111Y029008D01*
X021160Y028889D02*
X019040Y028889D01*
X018932Y028771D02*
X021268Y028771D01*
X021455Y028652D02*
X018745Y028652D01*
X018948Y028534D02*
X021252Y028534D01*
X021154Y028415D02*
X019046Y028415D01*
X019095Y028297D02*
X021105Y028297D01*
X021090Y028178D02*
X019110Y028178D01*
X019110Y028060D02*
X021090Y028060D01*
X021139Y027941D02*
X019061Y027941D01*
X018984Y027823D02*
X021216Y027823D01*
X018455Y028652D02*
X014820Y028652D01*
X014820Y028534D02*
X018252Y028534D01*
X018154Y028415D02*
X014820Y028415D01*
X014820Y028771D02*
X018268Y028771D01*
X018160Y028889D02*
X014923Y028889D01*
X015020Y029008D02*
X018111Y029008D01*
X018090Y029126D02*
X015020Y029126D01*
X015020Y029245D02*
X018090Y029245D01*
X018086Y029363D02*
X014991Y029363D01*
X014872Y029482D02*
X017967Y029482D01*
X017849Y029600D02*
X014384Y029600D01*
X014328Y029482D02*
X013901Y029482D01*
X013816Y029600D02*
X012100Y029600D01*
X012100Y029482D02*
X013299Y029482D01*
X013418Y029600D02*
X013160Y029342D01*
X013160Y029180D01*
X013580Y029180D01*
X013580Y029600D01*
X013418Y029600D01*
X013580Y029482D02*
X013620Y029482D01*
X013620Y029600D02*
X013782Y029600D01*
X014040Y029342D01*
X014040Y029180D01*
X013620Y029180D01*
X013620Y029140D01*
X014040Y029140D01*
X014040Y028978D01*
X013782Y028720D01*
X013620Y028720D01*
X013620Y029140D01*
X013580Y029140D01*
X013580Y028720D01*
X013418Y028720D01*
X013160Y028978D01*
X013160Y029140D01*
X013580Y029140D01*
X013580Y029180D01*
X013620Y029180D01*
X013620Y029600D01*
X013697Y029719D02*
X012289Y029719D01*
X012456Y029837D02*
X013680Y029837D01*
X013680Y029956D02*
X012535Y029956D01*
X012580Y030074D02*
X013680Y030074D01*
X013789Y030193D02*
X012580Y030193D01*
X012557Y030311D02*
X013880Y030311D01*
X013880Y030430D02*
X012508Y030430D01*
X012391Y030548D02*
X013880Y030548D01*
X013880Y030667D02*
X012320Y030667D01*
X012446Y030785D02*
X013864Y030785D01*
X013745Y030904D02*
X012546Y030904D01*
X012595Y031022D02*
X013627Y031022D01*
X013508Y031141D02*
X012610Y031141D01*
X012610Y031259D02*
X013390Y031259D01*
X013271Y031378D02*
X012562Y031378D01*
X012485Y031496D02*
X013153Y031496D01*
X013034Y031615D02*
X012335Y031615D01*
X012394Y031733D02*
X012916Y031733D01*
X012797Y031852D02*
X012513Y031852D01*
X012100Y032800D02*
X022100Y032800D01*
X022100Y032918D02*
X012100Y032918D01*
X012100Y033037D02*
X022100Y033037D01*
X022100Y033155D02*
X012100Y033155D01*
X012100Y033274D02*
X022100Y033274D01*
X022100Y033392D02*
X012100Y033392D01*
X012100Y033511D02*
X022100Y033511D01*
X022100Y033629D02*
X012100Y033629D01*
X012100Y033748D02*
X022100Y033748D01*
X022100Y033866D02*
X012100Y033866D01*
X012100Y033985D02*
X022100Y033985D01*
X015129Y032563D02*
X015071Y032563D01*
X015071Y032444D02*
X015129Y032444D01*
X015129Y032326D02*
X015071Y032326D01*
X015071Y032207D02*
X015129Y032207D01*
X014209Y029363D02*
X014019Y029363D01*
X014040Y029245D02*
X014180Y029245D01*
X014180Y029126D02*
X014040Y029126D01*
X014040Y029008D02*
X014180Y029008D01*
X014277Y028889D02*
X013951Y028889D01*
X013833Y028771D02*
X014380Y028771D01*
X014380Y028652D02*
X012100Y028652D01*
X012100Y028534D02*
X014380Y028534D01*
X014380Y028415D02*
X012100Y028415D01*
X012100Y028297D02*
X014380Y028297D01*
X014380Y028178D02*
X012100Y028178D01*
X012100Y028060D02*
X014380Y028060D01*
X014380Y027941D02*
X012100Y027941D01*
X012100Y027823D02*
X014380Y027823D01*
X014380Y027704D02*
X012100Y027704D01*
X012100Y027586D02*
X013304Y027586D01*
X013186Y027467D02*
X012100Y027467D01*
X012100Y027349D02*
X013126Y027349D01*
X013090Y027230D02*
X012100Y027230D01*
X012100Y027112D02*
X013090Y027112D01*
X013117Y026993D02*
X012100Y026993D01*
X012100Y026875D02*
X013166Y026875D01*
X013283Y026756D02*
X012100Y026756D01*
X012201Y026638D02*
X014166Y026638D01*
X014283Y026756D02*
X013917Y026756D01*
X014034Y026875D02*
X014166Y026875D01*
X014117Y026993D02*
X014083Y026993D01*
X014074Y027349D02*
X014126Y027349D01*
X014186Y027467D02*
X014014Y027467D01*
X013896Y027586D02*
X014304Y027586D01*
X014048Y026519D02*
X012420Y026519D01*
X012520Y026401D02*
X013929Y026401D01*
X013620Y028771D02*
X013580Y028771D01*
X013580Y028889D02*
X013620Y028889D01*
X013620Y029008D02*
X013580Y029008D01*
X013580Y029126D02*
X013620Y029126D01*
X013620Y029245D02*
X013580Y029245D01*
X013580Y029363D02*
X013620Y029363D01*
X013181Y029363D02*
X012100Y029363D01*
X012100Y029245D02*
X013160Y029245D01*
X013160Y029126D02*
X012100Y029126D01*
X012100Y029008D02*
X013160Y029008D01*
X013249Y028889D02*
X012100Y028889D01*
X012100Y028771D02*
X013367Y028771D01*
X026271Y004241D02*
X028929Y004241D01*
X028999Y004270D02*
X028811Y004192D01*
X028668Y004049D01*
X028590Y003861D01*
X028590Y003659D01*
X028668Y003471D01*
X028811Y003328D01*
X028999Y003250D01*
X029201Y003250D01*
X029389Y003328D01*
X029532Y003471D01*
X029610Y003659D01*
X029610Y003861D01*
X029532Y004049D01*
X029389Y004192D01*
X029201Y004270D01*
X028999Y004270D01*
X029271Y004241D02*
X031940Y004241D01*
X031940Y004123D02*
X029459Y004123D01*
X029551Y004004D02*
X031940Y004004D01*
X031940Y003886D02*
X029600Y003886D01*
X029610Y003767D02*
X031940Y003767D01*
X031940Y003649D02*
X029606Y003649D01*
X029557Y003530D02*
X031940Y003530D01*
X031940Y003412D02*
X030850Y003412D01*
X031084Y003293D02*
X031940Y003293D01*
X031940Y003175D02*
X031203Y003175D01*
X031291Y003056D02*
X031940Y003056D01*
X031940Y002938D02*
X031340Y002938D01*
X031389Y002819D02*
X031940Y002819D01*
X031940Y002701D02*
X031390Y002701D01*
X031390Y002582D02*
X031940Y002582D01*
X031940Y002464D02*
X031374Y002464D01*
X031325Y002345D02*
X031940Y002345D01*
X031940Y002227D02*
X031275Y002227D01*
X031165Y002108D02*
X031936Y002108D01*
X031917Y001990D02*
X031045Y001990D01*
X030759Y001871D02*
X031878Y001871D01*
X031829Y001753D02*
X027441Y001753D01*
X027445Y001756D02*
X027504Y001815D01*
X027553Y001882D01*
X027591Y001957D01*
X027617Y002036D01*
X027630Y002118D01*
X027630Y002140D01*
X027120Y002140D01*
X027120Y001630D01*
X027142Y001630D01*
X027224Y001643D01*
X027303Y001669D01*
X027378Y001707D01*
X027445Y001756D01*
X027545Y001871D02*
X030441Y001871D01*
X030155Y001990D02*
X027602Y001990D01*
X027628Y002108D02*
X030035Y002108D01*
X029925Y002227D02*
X027626Y002227D01*
X027597Y002345D02*
X029875Y002345D01*
X029826Y002464D02*
X027535Y002464D01*
X027421Y002582D02*
X029810Y002582D01*
X029997Y003175D02*
X023920Y003175D01*
X023920Y003293D02*
X025895Y003293D01*
X025727Y003412D02*
X023920Y003412D01*
X023920Y003530D02*
X025643Y003530D01*
X026305Y003293D02*
X028895Y003293D01*
X028727Y003412D02*
X026473Y003412D01*
X026557Y003530D02*
X028643Y003530D01*
X028594Y003649D02*
X026606Y003649D01*
X026610Y003767D02*
X028590Y003767D01*
X028600Y003886D02*
X026600Y003886D01*
X026551Y004004D02*
X028649Y004004D01*
X028741Y004123D02*
X026459Y004123D01*
X026399Y002582D02*
X026779Y002582D01*
X026665Y002464D02*
X026518Y002464D01*
X026575Y002345D02*
X026603Y002345D01*
X026591Y002012D02*
X026609Y001957D01*
X026647Y001882D01*
X026532Y001871D02*
X026591Y002012D01*
X026598Y001990D02*
X026581Y001990D01*
X026414Y001753D02*
X026759Y001753D01*
X027033Y001634D02*
X025107Y001634D01*
X025055Y001516D02*
X031624Y001516D01*
X031743Y001634D02*
X027167Y001634D01*
X027120Y001634D02*
X027080Y001634D01*
X027080Y001753D02*
X027120Y001753D01*
X027120Y001871D02*
X027080Y001871D01*
X027080Y001990D02*
X027120Y001990D01*
X027120Y002108D02*
X027080Y002108D01*
X027080Y002227D02*
X027120Y002227D01*
X027120Y002345D02*
X027080Y002345D01*
X027080Y002464D02*
X027120Y002464D01*
X027120Y002582D02*
X027080Y002582D01*
X025811Y001728D02*
X025668Y001871D01*
X025619Y001990D02*
X025130Y001990D01*
X025130Y002108D02*
X025590Y002108D01*
X024957Y001397D02*
X031437Y001397D01*
X030350Y003412D02*
X029473Y003412D01*
X029305Y003293D02*
X030116Y003293D01*
D22*
X012100Y005160D02*
X010383Y005160D01*
X010070Y004847D01*
X010383Y009160D02*
X012100Y009160D01*
X010383Y009160D02*
X010070Y009473D01*
X010070Y011847D02*
X010383Y012160D01*
X012100Y012160D01*
X012100Y016160D02*
X010383Y016160D01*
X010070Y016473D01*
X010070Y018847D02*
X010383Y019160D01*
X012100Y019160D01*
X012100Y023160D02*
X010383Y023160D01*
X010070Y023473D01*
X010070Y025847D02*
X010383Y026160D01*
X012100Y026160D01*
X012100Y030160D02*
X010383Y030160D01*
X010070Y030473D01*
D23*
X012100Y030160D02*
X012100Y031160D01*
X012100Y032160D02*
X012800Y032160D01*
X014100Y030860D01*
X014100Y029910D01*
X017850Y029910D01*
X018600Y029160D01*
X018600Y028160D02*
X017200Y028160D01*
X016500Y027460D01*
X016500Y023660D01*
X015800Y022960D01*
X014150Y022960D01*
X014100Y022910D01*
X014100Y023760D01*
X012700Y025160D01*
X012100Y025160D01*
X012100Y024160D02*
X012100Y023160D01*
X014600Y022160D02*
X014600Y020160D01*
X014600Y019760D01*
X014000Y019160D01*
X012100Y019160D01*
X012100Y018160D02*
X012500Y018160D01*
X014100Y016560D01*
X014100Y015910D01*
X014150Y015860D01*
X015500Y015860D01*
X017200Y017560D01*
X017200Y026460D01*
X017900Y027160D01*
X018600Y027160D01*
X018600Y026160D02*
X018600Y011960D01*
X015500Y008860D01*
X014150Y008860D01*
X014100Y008910D01*
X014100Y010060D01*
X013000Y011160D01*
X012100Y011160D01*
X012100Y012160D02*
X014100Y012160D01*
X014600Y012660D01*
X014600Y013160D01*
X014600Y015160D01*
X014600Y008160D02*
X014600Y006060D01*
X014500Y005960D01*
X014500Y005660D01*
X014000Y005160D01*
X012100Y005160D01*
X012100Y026160D02*
X014000Y026160D01*
X014600Y026760D01*
X014600Y027160D01*
X014600Y029160D01*
D24*
X012100Y017060D02*
X012100Y016160D01*
X012100Y010160D02*
X012100Y009160D01*
D25*
X010838Y007191D02*
X010838Y007160D01*
X010838Y007191D02*
X001600Y007191D01*
X001600Y009160D02*
X005130Y009160D01*
X005130Y009473D01*
X005130Y011847D02*
X005130Y012223D01*
X001600Y012223D01*
X001600Y014191D02*
X010838Y014191D01*
X010838Y014160D01*
X005130Y016160D02*
X005130Y016473D01*
X005130Y016160D02*
X001600Y016160D01*
X001600Y019223D02*
X005130Y019223D01*
X005130Y018847D01*
X001600Y021191D02*
X010838Y021191D01*
X010838Y021160D01*
X005130Y023160D02*
X005130Y023473D01*
X005130Y023160D02*
X001600Y023160D01*
X001600Y026223D02*
X005130Y026223D01*
X005130Y025847D01*
X001600Y028191D02*
X010600Y028191D01*
X010600Y028160D01*
X010838Y028160D01*
X005130Y030160D02*
X005130Y030473D01*
X005130Y030160D02*
X001600Y030160D01*
X001600Y005223D02*
X005130Y005223D01*
X005130Y004847D01*
D26*
X009100Y003360D02*
X009100Y002660D01*
X009100Y003360D02*
X009700Y003960D01*
X013000Y003960D01*
X013300Y004260D01*
X015900Y004260D01*
X018300Y006660D01*
X019549Y006660D01*
X019616Y006593D01*
X020233Y006593D01*
X020600Y006960D01*
X022800Y006960D01*
X023500Y006260D01*
X023500Y001960D01*
X023600Y002060D01*
X023600Y002160D01*
X019616Y006593D02*
X019616Y008176D01*
X020100Y008660D01*
M02*
