G75*
G70*
%OFA0B0*%
%FSLAX24Y24*%
%IPPOS*%
%LPD*%
%AMOC8*
5,1,8,0,0,1.08239X$1,22.5*
%
%ADD10C,0.0000*%
D10*
X005333Y004893D02*
X004333Y005893D01*
X004333Y036893D01*
X005333Y037893D01*
X038333Y037893D01*
X039333Y036893D01*
X039333Y005893D01*
X038333Y004893D01*
X005333Y004893D01*
X005203Y006393D02*
X005205Y006443D01*
X005211Y006493D01*
X005221Y006542D01*
X005235Y006590D01*
X005252Y006637D01*
X005273Y006682D01*
X005298Y006726D01*
X005326Y006767D01*
X005358Y006806D01*
X005392Y006843D01*
X005429Y006877D01*
X005469Y006907D01*
X005511Y006934D01*
X005555Y006958D01*
X005601Y006979D01*
X005648Y006995D01*
X005696Y007008D01*
X005746Y007017D01*
X005795Y007022D01*
X005846Y007023D01*
X005896Y007020D01*
X005945Y007013D01*
X005994Y007002D01*
X006042Y006987D01*
X006088Y006969D01*
X006133Y006947D01*
X006176Y006921D01*
X006217Y006892D01*
X006256Y006860D01*
X006292Y006825D01*
X006324Y006787D01*
X006354Y006747D01*
X006381Y006704D01*
X006404Y006660D01*
X006423Y006614D01*
X006439Y006566D01*
X006451Y006517D01*
X006459Y006468D01*
X006463Y006418D01*
X006463Y006368D01*
X006459Y006318D01*
X006451Y006269D01*
X006439Y006220D01*
X006423Y006172D01*
X006404Y006126D01*
X006381Y006082D01*
X006354Y006039D01*
X006324Y005999D01*
X006292Y005961D01*
X006256Y005926D01*
X006217Y005894D01*
X006176Y005865D01*
X006133Y005839D01*
X006088Y005817D01*
X006042Y005799D01*
X005994Y005784D01*
X005945Y005773D01*
X005896Y005766D01*
X005846Y005763D01*
X005795Y005764D01*
X005746Y005769D01*
X005696Y005778D01*
X005648Y005791D01*
X005601Y005807D01*
X005555Y005828D01*
X005511Y005852D01*
X005469Y005879D01*
X005429Y005909D01*
X005392Y005943D01*
X005358Y005980D01*
X005326Y006019D01*
X005298Y006060D01*
X005273Y006104D01*
X005252Y006149D01*
X005235Y006196D01*
X005221Y006244D01*
X005211Y006293D01*
X005205Y006343D01*
X005203Y006393D01*
X014633Y009793D02*
X016133Y009793D01*
X016133Y010193D02*
X014633Y010193D01*
X014606Y010191D01*
X014579Y010186D01*
X014553Y010176D01*
X014529Y010164D01*
X014507Y010148D01*
X014487Y010130D01*
X014470Y010108D01*
X014455Y010085D01*
X014445Y010060D01*
X014437Y010034D01*
X014433Y010007D01*
X014433Y009979D01*
X014437Y009952D01*
X014445Y009926D01*
X014455Y009901D01*
X014470Y009878D01*
X014487Y009856D01*
X014507Y009838D01*
X014529Y009822D01*
X014553Y009810D01*
X014579Y009800D01*
X014606Y009795D01*
X014633Y009793D01*
X016233Y011993D02*
X016298Y011985D01*
X016362Y011973D01*
X016425Y011957D01*
X016487Y011938D01*
X016548Y011915D01*
X016608Y011888D01*
X016666Y011858D01*
X016722Y011825D01*
X016776Y011788D01*
X016827Y011748D01*
X016877Y011706D01*
X016923Y011660D01*
X016967Y011612D01*
X017008Y011561D01*
X017046Y011508D01*
X017081Y011453D01*
X017112Y011396D01*
X017140Y011337D01*
X017164Y011276D01*
X017185Y011214D01*
X017202Y011151D01*
X017216Y011088D01*
X017225Y011023D01*
X017231Y010958D01*
X017233Y010893D01*
X017231Y010829D01*
X017226Y010765D01*
X017216Y010702D01*
X017203Y010639D01*
X017187Y010578D01*
X017167Y010517D01*
X017143Y010457D01*
X017116Y010399D01*
X017086Y010343D01*
X017052Y010289D01*
X017015Y010236D01*
X016976Y010186D01*
X016933Y010138D01*
X016888Y010093D01*
X016840Y010050D01*
X016790Y010011D01*
X016737Y009974D01*
X016683Y009940D01*
X016627Y009910D01*
X016569Y009883D01*
X016509Y009859D01*
X016448Y009839D01*
X016387Y009823D01*
X016324Y009810D01*
X016261Y009800D01*
X016197Y009795D01*
X016133Y009793D01*
X016133Y010193D02*
X016183Y010195D01*
X016233Y010200D01*
X016282Y010209D01*
X016330Y010221D01*
X016378Y010237D01*
X016424Y010256D01*
X016468Y010279D01*
X016511Y010304D01*
X016552Y010333D01*
X016591Y010364D01*
X016628Y010398D01*
X016662Y010435D01*
X016693Y010474D01*
X016722Y010515D01*
X016747Y010558D01*
X016770Y010602D01*
X016789Y010648D01*
X016805Y010696D01*
X016817Y010744D01*
X016826Y010793D01*
X016831Y010843D01*
X016833Y010893D01*
X016831Y010943D01*
X016826Y010993D01*
X016817Y011042D01*
X016805Y011090D01*
X016789Y011138D01*
X016770Y011184D01*
X016747Y011228D01*
X016722Y011271D01*
X016693Y011312D01*
X016662Y011351D01*
X016628Y011388D01*
X016591Y011422D01*
X016552Y011453D01*
X016511Y011482D01*
X016468Y011507D01*
X016424Y011530D01*
X016378Y011549D01*
X016330Y011565D01*
X016282Y011577D01*
X016233Y011586D01*
X016183Y011591D01*
X016133Y011593D01*
X014633Y011593D01*
X014606Y011595D01*
X014579Y011600D01*
X014553Y011610D01*
X014529Y011622D01*
X014507Y011638D01*
X014487Y011656D01*
X014470Y011678D01*
X014455Y011701D01*
X014445Y011726D01*
X014437Y011752D01*
X014433Y011779D01*
X014433Y011807D01*
X014437Y011834D01*
X014445Y011860D01*
X014455Y011885D01*
X014470Y011908D01*
X014487Y011930D01*
X014507Y011948D01*
X014529Y011964D01*
X014553Y011976D01*
X014579Y011986D01*
X014606Y011991D01*
X014633Y011993D01*
X016233Y011993D01*
X016133Y016793D02*
X014633Y016793D01*
X014606Y016795D01*
X014579Y016800D01*
X014553Y016810D01*
X014529Y016822D01*
X014507Y016838D01*
X014487Y016856D01*
X014470Y016878D01*
X014455Y016901D01*
X014445Y016926D01*
X014437Y016952D01*
X014433Y016979D01*
X014433Y017007D01*
X014437Y017034D01*
X014445Y017060D01*
X014455Y017085D01*
X014470Y017108D01*
X014487Y017130D01*
X014507Y017148D01*
X014529Y017164D01*
X014553Y017176D01*
X014579Y017186D01*
X014606Y017191D01*
X014633Y017193D01*
X016133Y017193D01*
X016133Y016793D02*
X016197Y016795D01*
X016261Y016800D01*
X016324Y016810D01*
X016387Y016823D01*
X016448Y016839D01*
X016509Y016859D01*
X016569Y016883D01*
X016627Y016910D01*
X016683Y016940D01*
X016737Y016974D01*
X016790Y017011D01*
X016840Y017050D01*
X016888Y017093D01*
X016933Y017138D01*
X016976Y017186D01*
X017015Y017236D01*
X017052Y017289D01*
X017086Y017343D01*
X017116Y017399D01*
X017143Y017457D01*
X017167Y017517D01*
X017187Y017578D01*
X017203Y017639D01*
X017216Y017702D01*
X017226Y017765D01*
X017231Y017829D01*
X017233Y017893D01*
X016833Y017893D02*
X016831Y017843D01*
X016826Y017793D01*
X016817Y017744D01*
X016805Y017696D01*
X016789Y017648D01*
X016770Y017602D01*
X016747Y017558D01*
X016722Y017515D01*
X016693Y017474D01*
X016662Y017435D01*
X016628Y017398D01*
X016591Y017364D01*
X016552Y017333D01*
X016511Y017304D01*
X016468Y017279D01*
X016424Y017256D01*
X016378Y017237D01*
X016330Y017221D01*
X016282Y017209D01*
X016233Y017200D01*
X016183Y017195D01*
X016133Y017193D01*
X016833Y017893D02*
X016831Y017943D01*
X016826Y017993D01*
X016817Y018042D01*
X016805Y018090D01*
X016789Y018138D01*
X016770Y018184D01*
X016747Y018228D01*
X016722Y018271D01*
X016693Y018312D01*
X016662Y018351D01*
X016628Y018388D01*
X016591Y018422D01*
X016552Y018453D01*
X016511Y018482D01*
X016468Y018507D01*
X016424Y018530D01*
X016378Y018549D01*
X016330Y018565D01*
X016282Y018577D01*
X016233Y018586D01*
X016183Y018591D01*
X016133Y018593D01*
X014633Y018593D01*
X014606Y018595D01*
X014579Y018600D01*
X014553Y018610D01*
X014529Y018622D01*
X014507Y018638D01*
X014487Y018656D01*
X014470Y018678D01*
X014455Y018701D01*
X014445Y018726D01*
X014437Y018752D01*
X014433Y018779D01*
X014433Y018807D01*
X014437Y018834D01*
X014445Y018860D01*
X014455Y018885D01*
X014470Y018908D01*
X014487Y018930D01*
X014507Y018948D01*
X014529Y018964D01*
X014553Y018976D01*
X014579Y018986D01*
X014606Y018991D01*
X014633Y018993D01*
X016233Y018993D01*
X016298Y018985D01*
X016362Y018973D01*
X016425Y018957D01*
X016487Y018938D01*
X016548Y018915D01*
X016608Y018888D01*
X016666Y018858D01*
X016722Y018825D01*
X016776Y018788D01*
X016827Y018748D01*
X016877Y018706D01*
X016923Y018660D01*
X016967Y018612D01*
X017008Y018561D01*
X017046Y018508D01*
X017081Y018453D01*
X017112Y018396D01*
X017140Y018337D01*
X017164Y018276D01*
X017185Y018214D01*
X017202Y018151D01*
X017216Y018088D01*
X017225Y018023D01*
X017231Y017958D01*
X017233Y017893D01*
X016133Y023793D02*
X014633Y023793D01*
X014606Y023795D01*
X014579Y023800D01*
X014553Y023810D01*
X014529Y023822D01*
X014507Y023838D01*
X014487Y023856D01*
X014470Y023878D01*
X014455Y023901D01*
X014445Y023926D01*
X014437Y023952D01*
X014433Y023979D01*
X014433Y024007D01*
X014437Y024034D01*
X014445Y024060D01*
X014455Y024085D01*
X014470Y024108D01*
X014487Y024130D01*
X014507Y024148D01*
X014529Y024164D01*
X014553Y024176D01*
X014579Y024186D01*
X014606Y024191D01*
X014633Y024193D01*
X016133Y024193D01*
X016133Y023793D02*
X016197Y023795D01*
X016261Y023800D01*
X016324Y023810D01*
X016387Y023823D01*
X016448Y023839D01*
X016509Y023859D01*
X016569Y023883D01*
X016627Y023910D01*
X016683Y023940D01*
X016737Y023974D01*
X016790Y024011D01*
X016840Y024050D01*
X016888Y024093D01*
X016933Y024138D01*
X016976Y024186D01*
X017015Y024236D01*
X017052Y024289D01*
X017086Y024343D01*
X017116Y024399D01*
X017143Y024457D01*
X017167Y024517D01*
X017187Y024578D01*
X017203Y024639D01*
X017216Y024702D01*
X017226Y024765D01*
X017231Y024829D01*
X017233Y024893D01*
X016833Y024893D02*
X016831Y024843D01*
X016826Y024793D01*
X016817Y024744D01*
X016805Y024696D01*
X016789Y024648D01*
X016770Y024602D01*
X016747Y024558D01*
X016722Y024515D01*
X016693Y024474D01*
X016662Y024435D01*
X016628Y024398D01*
X016591Y024364D01*
X016552Y024333D01*
X016511Y024304D01*
X016468Y024279D01*
X016424Y024256D01*
X016378Y024237D01*
X016330Y024221D01*
X016282Y024209D01*
X016233Y024200D01*
X016183Y024195D01*
X016133Y024193D01*
X016833Y024893D02*
X016831Y024943D01*
X016826Y024993D01*
X016817Y025042D01*
X016805Y025090D01*
X016789Y025138D01*
X016770Y025184D01*
X016747Y025228D01*
X016722Y025271D01*
X016693Y025312D01*
X016662Y025351D01*
X016628Y025388D01*
X016591Y025422D01*
X016552Y025453D01*
X016511Y025482D01*
X016468Y025507D01*
X016424Y025530D01*
X016378Y025549D01*
X016330Y025565D01*
X016282Y025577D01*
X016233Y025586D01*
X016183Y025591D01*
X016133Y025593D01*
X014633Y025593D01*
X014606Y025595D01*
X014579Y025600D01*
X014553Y025610D01*
X014529Y025622D01*
X014507Y025638D01*
X014487Y025656D01*
X014470Y025678D01*
X014455Y025701D01*
X014445Y025726D01*
X014437Y025752D01*
X014433Y025779D01*
X014433Y025807D01*
X014437Y025834D01*
X014445Y025860D01*
X014455Y025885D01*
X014470Y025908D01*
X014487Y025930D01*
X014507Y025948D01*
X014529Y025964D01*
X014553Y025976D01*
X014579Y025986D01*
X014606Y025991D01*
X014633Y025993D01*
X016233Y025993D01*
X016298Y025985D01*
X016362Y025973D01*
X016425Y025957D01*
X016487Y025938D01*
X016548Y025915D01*
X016608Y025888D01*
X016666Y025858D01*
X016722Y025825D01*
X016776Y025788D01*
X016827Y025748D01*
X016877Y025706D01*
X016923Y025660D01*
X016967Y025612D01*
X017008Y025561D01*
X017046Y025508D01*
X017081Y025453D01*
X017112Y025396D01*
X017140Y025337D01*
X017164Y025276D01*
X017185Y025214D01*
X017202Y025151D01*
X017216Y025088D01*
X017225Y025023D01*
X017231Y024958D01*
X017233Y024893D01*
X016133Y030793D02*
X014633Y030793D01*
X014606Y030795D01*
X014579Y030800D01*
X014553Y030810D01*
X014529Y030822D01*
X014507Y030838D01*
X014487Y030856D01*
X014470Y030878D01*
X014455Y030901D01*
X014445Y030926D01*
X014437Y030952D01*
X014433Y030979D01*
X014433Y031007D01*
X014437Y031034D01*
X014445Y031060D01*
X014455Y031085D01*
X014470Y031108D01*
X014487Y031130D01*
X014507Y031148D01*
X014529Y031164D01*
X014553Y031176D01*
X014579Y031186D01*
X014606Y031191D01*
X014633Y031193D01*
X016133Y031193D01*
X016133Y030793D02*
X016197Y030795D01*
X016261Y030800D01*
X016324Y030810D01*
X016387Y030823D01*
X016448Y030839D01*
X016509Y030859D01*
X016569Y030883D01*
X016627Y030910D01*
X016683Y030940D01*
X016737Y030974D01*
X016790Y031011D01*
X016840Y031050D01*
X016888Y031093D01*
X016933Y031138D01*
X016976Y031186D01*
X017015Y031236D01*
X017052Y031289D01*
X017086Y031343D01*
X017116Y031399D01*
X017143Y031457D01*
X017167Y031517D01*
X017187Y031578D01*
X017203Y031639D01*
X017216Y031702D01*
X017226Y031765D01*
X017231Y031829D01*
X017233Y031893D01*
X016833Y031893D02*
X016831Y031843D01*
X016826Y031793D01*
X016817Y031744D01*
X016805Y031696D01*
X016789Y031648D01*
X016770Y031602D01*
X016747Y031558D01*
X016722Y031515D01*
X016693Y031474D01*
X016662Y031435D01*
X016628Y031398D01*
X016591Y031364D01*
X016552Y031333D01*
X016511Y031304D01*
X016468Y031279D01*
X016424Y031256D01*
X016378Y031237D01*
X016330Y031221D01*
X016282Y031209D01*
X016233Y031200D01*
X016183Y031195D01*
X016133Y031193D01*
X016833Y031893D02*
X016831Y031943D01*
X016826Y031993D01*
X016817Y032042D01*
X016805Y032090D01*
X016789Y032138D01*
X016770Y032184D01*
X016747Y032228D01*
X016722Y032271D01*
X016693Y032312D01*
X016662Y032351D01*
X016628Y032388D01*
X016591Y032422D01*
X016552Y032453D01*
X016511Y032482D01*
X016468Y032507D01*
X016424Y032530D01*
X016378Y032549D01*
X016330Y032565D01*
X016282Y032577D01*
X016233Y032586D01*
X016183Y032591D01*
X016133Y032593D01*
X014633Y032593D01*
X014606Y032595D01*
X014579Y032600D01*
X014553Y032610D01*
X014529Y032622D01*
X014507Y032638D01*
X014487Y032656D01*
X014470Y032678D01*
X014455Y032701D01*
X014445Y032726D01*
X014437Y032752D01*
X014433Y032779D01*
X014433Y032807D01*
X014437Y032834D01*
X014445Y032860D01*
X014455Y032885D01*
X014470Y032908D01*
X014487Y032930D01*
X014507Y032948D01*
X014529Y032964D01*
X014553Y032976D01*
X014579Y032986D01*
X014606Y032991D01*
X014633Y032993D01*
X016233Y032993D01*
X016298Y032985D01*
X016362Y032973D01*
X016425Y032957D01*
X016487Y032938D01*
X016548Y032915D01*
X016608Y032888D01*
X016666Y032858D01*
X016722Y032825D01*
X016776Y032788D01*
X016827Y032748D01*
X016877Y032706D01*
X016923Y032660D01*
X016967Y032612D01*
X017008Y032561D01*
X017046Y032508D01*
X017081Y032453D01*
X017112Y032396D01*
X017140Y032337D01*
X017164Y032276D01*
X017185Y032214D01*
X017202Y032151D01*
X017216Y032088D01*
X017225Y032023D01*
X017231Y031958D01*
X017233Y031893D01*
X005203Y036393D02*
X005205Y036443D01*
X005211Y036493D01*
X005221Y036542D01*
X005235Y036590D01*
X005252Y036637D01*
X005273Y036682D01*
X005298Y036726D01*
X005326Y036767D01*
X005358Y036806D01*
X005392Y036843D01*
X005429Y036877D01*
X005469Y036907D01*
X005511Y036934D01*
X005555Y036958D01*
X005601Y036979D01*
X005648Y036995D01*
X005696Y037008D01*
X005746Y037017D01*
X005795Y037022D01*
X005846Y037023D01*
X005896Y037020D01*
X005945Y037013D01*
X005994Y037002D01*
X006042Y036987D01*
X006088Y036969D01*
X006133Y036947D01*
X006176Y036921D01*
X006217Y036892D01*
X006256Y036860D01*
X006292Y036825D01*
X006324Y036787D01*
X006354Y036747D01*
X006381Y036704D01*
X006404Y036660D01*
X006423Y036614D01*
X006439Y036566D01*
X006451Y036517D01*
X006459Y036468D01*
X006463Y036418D01*
X006463Y036368D01*
X006459Y036318D01*
X006451Y036269D01*
X006439Y036220D01*
X006423Y036172D01*
X006404Y036126D01*
X006381Y036082D01*
X006354Y036039D01*
X006324Y035999D01*
X006292Y035961D01*
X006256Y035926D01*
X006217Y035894D01*
X006176Y035865D01*
X006133Y035839D01*
X006088Y035817D01*
X006042Y035799D01*
X005994Y035784D01*
X005945Y035773D01*
X005896Y035766D01*
X005846Y035763D01*
X005795Y035764D01*
X005746Y035769D01*
X005696Y035778D01*
X005648Y035791D01*
X005601Y035807D01*
X005555Y035828D01*
X005511Y035852D01*
X005469Y035879D01*
X005429Y035909D01*
X005392Y035943D01*
X005358Y035980D01*
X005326Y036019D01*
X005298Y036060D01*
X005273Y036104D01*
X005252Y036149D01*
X005235Y036196D01*
X005221Y036244D01*
X005211Y036293D01*
X005205Y036343D01*
X005203Y036393D01*
X025216Y009723D02*
X026082Y009723D01*
X026279Y009526D02*
X026277Y009500D01*
X026272Y009475D01*
X026264Y009451D01*
X026253Y009428D01*
X026238Y009406D01*
X026221Y009387D01*
X026202Y009370D01*
X026181Y009355D01*
X026157Y009344D01*
X026133Y009336D01*
X026108Y009331D01*
X026082Y009329D01*
X026082Y009330D02*
X025216Y009330D01*
X025216Y009329D02*
X025190Y009331D01*
X025165Y009336D01*
X025141Y009344D01*
X025118Y009355D01*
X025096Y009370D01*
X025077Y009387D01*
X025060Y009406D01*
X025045Y009428D01*
X025034Y009451D01*
X025026Y009475D01*
X025021Y009500D01*
X025019Y009526D01*
X026279Y009526D01*
X026277Y009552D01*
X026272Y009577D01*
X026264Y009601D01*
X026253Y009625D01*
X026238Y009646D01*
X026221Y009665D01*
X026202Y009682D01*
X026181Y009697D01*
X026157Y009708D01*
X026133Y009716D01*
X026108Y009721D01*
X026082Y009723D01*
X025216Y009723D02*
X025190Y009721D01*
X025165Y009716D01*
X025141Y009708D01*
X025118Y009697D01*
X025096Y009682D01*
X025077Y009665D01*
X025060Y009646D01*
X025045Y009625D01*
X025034Y009601D01*
X025026Y009577D01*
X025021Y009552D01*
X025019Y009526D01*
X025216Y007243D02*
X026082Y007243D01*
X026279Y007046D02*
X026277Y007020D01*
X026272Y006995D01*
X026264Y006971D01*
X026253Y006948D01*
X026238Y006926D01*
X026221Y006907D01*
X026202Y006890D01*
X026181Y006875D01*
X026157Y006864D01*
X026133Y006856D01*
X026108Y006851D01*
X026082Y006849D01*
X025216Y006849D01*
X025190Y006851D01*
X025165Y006856D01*
X025141Y006864D01*
X025118Y006875D01*
X025096Y006890D01*
X025077Y006907D01*
X025060Y006926D01*
X025045Y006948D01*
X025034Y006971D01*
X025026Y006995D01*
X025021Y007020D01*
X025019Y007046D01*
X025021Y007072D01*
X025026Y007097D01*
X025034Y007121D01*
X025045Y007145D01*
X025060Y007166D01*
X025077Y007185D01*
X025096Y007202D01*
X025118Y007217D01*
X025141Y007228D01*
X025165Y007236D01*
X025190Y007241D01*
X025216Y007243D01*
X026082Y007243D02*
X026108Y007241D01*
X026133Y007236D01*
X026157Y007228D01*
X026181Y007217D01*
X026202Y007202D01*
X026221Y007185D01*
X026238Y007166D01*
X026253Y007145D01*
X026264Y007121D01*
X026272Y007097D01*
X026277Y007072D01*
X026279Y007046D01*
X027420Y007912D02*
X027420Y008778D01*
X027422Y008804D01*
X027427Y008829D01*
X027435Y008853D01*
X027446Y008877D01*
X027461Y008898D01*
X027478Y008917D01*
X027497Y008934D01*
X027519Y008949D01*
X027542Y008960D01*
X027566Y008968D01*
X027591Y008973D01*
X027617Y008975D01*
X027643Y008973D01*
X027668Y008968D01*
X027692Y008960D01*
X027716Y008949D01*
X027737Y008934D01*
X027756Y008917D01*
X027773Y008898D01*
X027788Y008877D01*
X027799Y008853D01*
X027807Y008829D01*
X027812Y008804D01*
X027814Y008778D01*
X027814Y007912D01*
X027617Y007715D02*
X027591Y007717D01*
X027566Y007722D01*
X027542Y007730D01*
X027519Y007741D01*
X027497Y007756D01*
X027478Y007773D01*
X027461Y007792D01*
X027446Y007814D01*
X027435Y007837D01*
X027427Y007861D01*
X027422Y007886D01*
X027420Y007912D01*
X027617Y007715D02*
X027643Y007717D01*
X027668Y007722D01*
X027692Y007730D01*
X027716Y007741D01*
X027737Y007756D01*
X027756Y007773D01*
X027773Y007792D01*
X027788Y007814D01*
X027799Y007837D01*
X027807Y007861D01*
X027812Y007886D01*
X027814Y007912D01*
X037203Y006393D02*
X037205Y006443D01*
X037211Y006493D01*
X037221Y006542D01*
X037235Y006590D01*
X037252Y006637D01*
X037273Y006682D01*
X037298Y006726D01*
X037326Y006767D01*
X037358Y006806D01*
X037392Y006843D01*
X037429Y006877D01*
X037469Y006907D01*
X037511Y006934D01*
X037555Y006958D01*
X037601Y006979D01*
X037648Y006995D01*
X037696Y007008D01*
X037746Y007017D01*
X037795Y007022D01*
X037846Y007023D01*
X037896Y007020D01*
X037945Y007013D01*
X037994Y007002D01*
X038042Y006987D01*
X038088Y006969D01*
X038133Y006947D01*
X038176Y006921D01*
X038217Y006892D01*
X038256Y006860D01*
X038292Y006825D01*
X038324Y006787D01*
X038354Y006747D01*
X038381Y006704D01*
X038404Y006660D01*
X038423Y006614D01*
X038439Y006566D01*
X038451Y006517D01*
X038459Y006468D01*
X038463Y006418D01*
X038463Y006368D01*
X038459Y006318D01*
X038451Y006269D01*
X038439Y006220D01*
X038423Y006172D01*
X038404Y006126D01*
X038381Y006082D01*
X038354Y006039D01*
X038324Y005999D01*
X038292Y005961D01*
X038256Y005926D01*
X038217Y005894D01*
X038176Y005865D01*
X038133Y005839D01*
X038088Y005817D01*
X038042Y005799D01*
X037994Y005784D01*
X037945Y005773D01*
X037896Y005766D01*
X037846Y005763D01*
X037795Y005764D01*
X037746Y005769D01*
X037696Y005778D01*
X037648Y005791D01*
X037601Y005807D01*
X037555Y005828D01*
X037511Y005852D01*
X037469Y005879D01*
X037429Y005909D01*
X037392Y005943D01*
X037358Y005980D01*
X037326Y006019D01*
X037298Y006060D01*
X037273Y006104D01*
X037252Y006149D01*
X037235Y006196D01*
X037221Y006244D01*
X037211Y006293D01*
X037205Y006343D01*
X037203Y006393D01*
X037203Y036393D02*
X037205Y036443D01*
X037211Y036493D01*
X037221Y036542D01*
X037235Y036590D01*
X037252Y036637D01*
X037273Y036682D01*
X037298Y036726D01*
X037326Y036767D01*
X037358Y036806D01*
X037392Y036843D01*
X037429Y036877D01*
X037469Y036907D01*
X037511Y036934D01*
X037555Y036958D01*
X037601Y036979D01*
X037648Y036995D01*
X037696Y037008D01*
X037746Y037017D01*
X037795Y037022D01*
X037846Y037023D01*
X037896Y037020D01*
X037945Y037013D01*
X037994Y037002D01*
X038042Y036987D01*
X038088Y036969D01*
X038133Y036947D01*
X038176Y036921D01*
X038217Y036892D01*
X038256Y036860D01*
X038292Y036825D01*
X038324Y036787D01*
X038354Y036747D01*
X038381Y036704D01*
X038404Y036660D01*
X038423Y036614D01*
X038439Y036566D01*
X038451Y036517D01*
X038459Y036468D01*
X038463Y036418D01*
X038463Y036368D01*
X038459Y036318D01*
X038451Y036269D01*
X038439Y036220D01*
X038423Y036172D01*
X038404Y036126D01*
X038381Y036082D01*
X038354Y036039D01*
X038324Y035999D01*
X038292Y035961D01*
X038256Y035926D01*
X038217Y035894D01*
X038176Y035865D01*
X038133Y035839D01*
X038088Y035817D01*
X038042Y035799D01*
X037994Y035784D01*
X037945Y035773D01*
X037896Y035766D01*
X037846Y035763D01*
X037795Y035764D01*
X037746Y035769D01*
X037696Y035778D01*
X037648Y035791D01*
X037601Y035807D01*
X037555Y035828D01*
X037511Y035852D01*
X037469Y035879D01*
X037429Y035909D01*
X037392Y035943D01*
X037358Y035980D01*
X037326Y036019D01*
X037298Y036060D01*
X037273Y036104D01*
X037252Y036149D01*
X037235Y036196D01*
X037221Y036244D01*
X037211Y036293D01*
X037205Y036343D01*
X037203Y036393D01*
M02*
