%
M48
M72
T01C0.0157
T02C0.0394
T03C0.0400
T04C0.0433
T05C0.0440
T06C0.0512
T07C0.1260
%
T01
X18833Y10893
X18833Y11993
X18833Y13043
X22033Y12193
X23183Y11593
X23533Y10893
X24313Y11513
X23533Y9893
X22033Y8693
X20333Y6893
X19333Y5893
X23183Y14193
X22033Y15593
X23533Y15893
X24333Y16893
X23533Y17893
X22033Y19193
X18833Y17893
X22033Y22593
X23533Y22893
X24333Y23893
X23533Y24893
X22033Y26193
X18833Y24893
X22033Y29693
X23533Y29793
X24333Y30893
X23533Y31893
X22033Y33193
X21333Y35893
X19333Y35893
X23333Y35893
X25333Y35893
X27333Y35893
X18833Y31893
X28333Y19893
X28333Y17893
X28333Y15893
X31433Y15893
X31433Y17943
X34433Y17893
X38333Y17893
X38333Y19893
X38333Y21893
X38333Y23893
X38333Y25893
X38333Y27893
X38333Y29893
X34883Y12043
X34883Y11543
X34883Y11043
X34883Y10543
X34383Y10543
X34383Y11043
X34383Y11543
X34383Y12043
X33883Y12043
X33383Y12043
X32883Y12043
X32383Y12043
X31883Y12043
X31883Y11543
X31883Y11043
X31883Y10543
X31383Y10543
X31383Y11043
X31383Y11543
X31383Y12043
T02
X27617Y8345
X25649Y9526
X25649Y7046
T03
X27833Y21893
X28833Y21893
X29833Y21893
X29833Y22893
X28833Y22893
X27833Y22893
X27833Y23893
X28833Y23893
X29833Y23893
X29833Y24893
X28833Y24893
X27833Y24893
X27833Y25893
X28833Y25893
X29833Y25893
X29833Y26893
X28833Y26893
X27833Y26893
X27833Y27893
X28833Y27893
X29833Y27893
X29833Y28893
X28833Y28893
X27833Y28893
X27833Y29893
X28833Y29893
X29833Y29893
X29833Y30893
X28833Y30893
X27833Y30893
X27833Y31893
X28833Y31893
X29833Y31893
X29833Y32893
X28833Y32893
X27833Y32893
X34833Y32893
X34833Y31893
X34833Y30893
X35833Y30893
X35833Y31893
X35833Y32893
X36833Y32893
X36833Y31893
X36833Y30893
X36833Y29893
X36833Y28893
X36833Y27893
X36833Y26893
X36833Y25893
X36833Y24893
X36833Y23893
X36833Y22893
X36833Y21893
X35833Y21893
X34833Y21893
X34833Y22893
X35833Y22893
X35833Y23893
X34833Y23893
X34833Y24893
X35833Y24893
X35833Y25893
X34833Y25893
X34833Y26893
X35833Y26893
X35833Y27893
X34833Y27893
X34833Y28893
X35833Y28893
X35833Y29893
X34833Y29893
T04
X16071Y31893
X15303Y34206
X15303Y29580
X15303Y27206
X16071Y24893
X15303Y22580
X15303Y20206
X16071Y17893
X15303Y15580
X15303Y13206
X16071Y10893
X15303Y8580
X10362Y8580
X10362Y13206
X10362Y15580
X10362Y20206
X10362Y22580
X10362Y27206
X10362Y29580
X10362Y34206
T05
X22033Y6593
X23033Y6593
T06
X5833Y8956
X5833Y10925
X5833Y12893
X5833Y15956
X5833Y17925
X5833Y19893
X5833Y22956
X5833Y24925
X5833Y26893
X5833Y29956
X5833Y31925
X5833Y33893
T07
X5833Y6393
X5833Y36393
X37833Y36393
X37833Y6393
M30
