G75*
G70*
%OFA0B0*%
%FSLAX24Y24*%
%IPPOS*%
%LPD*%
%AMOC8*
5,1,8,0,0,1.08239X$1,22.5*
%
%ADD10C,0.0000*%
%ADD11C,0.0010*%
%ADD12C,0.0673*%
%ADD13R,0.0950X0.0950*%
%ADD14C,0.0950*%
%ADD15OC8,0.0560*%
%ADD16C,0.0740*%
%ADD17C,0.0680*%
%ADD18C,0.0640*%
%ADD19C,0.0787*%
%ADD20C,0.0650*%
%ADD21R,0.0650X0.0650*%
%ADD22C,0.0740*%
%ADD23C,0.0400*%
%ADD24C,0.0120*%
%ADD25C,0.0560*%
%ADD26C,0.0320*%
%ADD27C,0.0160*%
D10*
X001100Y001160D02*
X031100Y001160D01*
X031160Y001162D01*
X031221Y001167D01*
X031280Y001176D01*
X031339Y001189D01*
X031398Y001205D01*
X031455Y001225D01*
X031510Y001248D01*
X031565Y001275D01*
X031617Y001304D01*
X031668Y001337D01*
X031717Y001373D01*
X031763Y001411D01*
X031807Y001453D01*
X031849Y001497D01*
X031887Y001543D01*
X031923Y001592D01*
X031956Y001643D01*
X031985Y001695D01*
X032012Y001750D01*
X032035Y001805D01*
X032055Y001862D01*
X032071Y001921D01*
X032084Y001980D01*
X032093Y002039D01*
X032098Y002100D01*
X032100Y002160D01*
X032100Y033160D01*
X032098Y033220D01*
X032093Y033281D01*
X032084Y033340D01*
X032071Y033399D01*
X032055Y033458D01*
X032035Y033515D01*
X032012Y033570D01*
X031985Y033625D01*
X031956Y033677D01*
X031923Y033728D01*
X031887Y033777D01*
X031849Y033823D01*
X031807Y033867D01*
X031763Y033909D01*
X031717Y033947D01*
X031668Y033983D01*
X031617Y034016D01*
X031565Y034045D01*
X031510Y034072D01*
X031455Y034095D01*
X031398Y034115D01*
X031339Y034131D01*
X031280Y034144D01*
X031221Y034153D01*
X031160Y034158D01*
X031100Y034160D01*
X001100Y034160D01*
X001040Y034158D01*
X000979Y034153D01*
X000920Y034144D01*
X000861Y034131D01*
X000802Y034115D01*
X000745Y034095D01*
X000690Y034072D01*
X000635Y034045D01*
X000583Y034016D01*
X000532Y033983D01*
X000483Y033947D01*
X000437Y033909D01*
X000393Y033867D01*
X000351Y033823D01*
X000313Y033777D01*
X000277Y033728D01*
X000244Y033677D01*
X000215Y033625D01*
X000188Y033570D01*
X000165Y033515D01*
X000145Y033458D01*
X000129Y033399D01*
X000116Y033340D01*
X000107Y033281D01*
X000102Y033220D01*
X000100Y033160D01*
X000100Y002160D01*
X000102Y002100D01*
X000107Y002039D01*
X000116Y001980D01*
X000129Y001921D01*
X000145Y001862D01*
X000165Y001805D01*
X000188Y001750D01*
X000215Y001695D01*
X000244Y001643D01*
X000277Y001592D01*
X000313Y001543D01*
X000351Y001497D01*
X000393Y001453D01*
X000437Y001411D01*
X000483Y001373D01*
X000532Y001337D01*
X000583Y001304D01*
X000635Y001275D01*
X000690Y001248D01*
X000745Y001225D01*
X000802Y001205D01*
X000861Y001189D01*
X000920Y001176D01*
X000979Y001167D01*
X001040Y001162D01*
X001100Y001160D01*
X000970Y002660D02*
X000972Y002710D01*
X000978Y002760D01*
X000988Y002809D01*
X001002Y002857D01*
X001019Y002904D01*
X001040Y002949D01*
X001065Y002993D01*
X001093Y003034D01*
X001125Y003073D01*
X001159Y003110D01*
X001196Y003144D01*
X001236Y003174D01*
X001278Y003201D01*
X001322Y003225D01*
X001368Y003246D01*
X001415Y003262D01*
X001463Y003275D01*
X001513Y003284D01*
X001562Y003289D01*
X001613Y003290D01*
X001663Y003287D01*
X001712Y003280D01*
X001761Y003269D01*
X001809Y003254D01*
X001855Y003236D01*
X001900Y003214D01*
X001943Y003188D01*
X001984Y003159D01*
X002023Y003127D01*
X002059Y003092D01*
X002091Y003054D01*
X002121Y003014D01*
X002148Y002971D01*
X002171Y002927D01*
X002190Y002881D01*
X002206Y002833D01*
X002218Y002784D01*
X002226Y002735D01*
X002230Y002685D01*
X002230Y002635D01*
X002226Y002585D01*
X002218Y002536D01*
X002206Y002487D01*
X002190Y002439D01*
X002171Y002393D01*
X002148Y002349D01*
X002121Y002306D01*
X002091Y002266D01*
X002059Y002228D01*
X002023Y002193D01*
X001984Y002161D01*
X001943Y002132D01*
X001900Y002106D01*
X001855Y002084D01*
X001809Y002066D01*
X001761Y002051D01*
X001712Y002040D01*
X001663Y002033D01*
X001613Y002030D01*
X001562Y002031D01*
X001513Y002036D01*
X001463Y002045D01*
X001415Y002058D01*
X001368Y002074D01*
X001322Y002095D01*
X001278Y002119D01*
X001236Y002146D01*
X001196Y002176D01*
X001159Y002210D01*
X001125Y002247D01*
X001093Y002286D01*
X001065Y002327D01*
X001040Y002371D01*
X001019Y002416D01*
X001002Y002463D01*
X000988Y002511D01*
X000978Y002560D01*
X000972Y002610D01*
X000970Y002660D01*
X000970Y032660D02*
X000972Y032710D01*
X000978Y032760D01*
X000988Y032809D01*
X001002Y032857D01*
X001019Y032904D01*
X001040Y032949D01*
X001065Y032993D01*
X001093Y033034D01*
X001125Y033073D01*
X001159Y033110D01*
X001196Y033144D01*
X001236Y033174D01*
X001278Y033201D01*
X001322Y033225D01*
X001368Y033246D01*
X001415Y033262D01*
X001463Y033275D01*
X001513Y033284D01*
X001562Y033289D01*
X001613Y033290D01*
X001663Y033287D01*
X001712Y033280D01*
X001761Y033269D01*
X001809Y033254D01*
X001855Y033236D01*
X001900Y033214D01*
X001943Y033188D01*
X001984Y033159D01*
X002023Y033127D01*
X002059Y033092D01*
X002091Y033054D01*
X002121Y033014D01*
X002148Y032971D01*
X002171Y032927D01*
X002190Y032881D01*
X002206Y032833D01*
X002218Y032784D01*
X002226Y032735D01*
X002230Y032685D01*
X002230Y032635D01*
X002226Y032585D01*
X002218Y032536D01*
X002206Y032487D01*
X002190Y032439D01*
X002171Y032393D01*
X002148Y032349D01*
X002121Y032306D01*
X002091Y032266D01*
X002059Y032228D01*
X002023Y032193D01*
X001984Y032161D01*
X001943Y032132D01*
X001900Y032106D01*
X001855Y032084D01*
X001809Y032066D01*
X001761Y032051D01*
X001712Y032040D01*
X001663Y032033D01*
X001613Y032030D01*
X001562Y032031D01*
X001513Y032036D01*
X001463Y032045D01*
X001415Y032058D01*
X001368Y032074D01*
X001322Y032095D01*
X001278Y032119D01*
X001236Y032146D01*
X001196Y032176D01*
X001159Y032210D01*
X001125Y032247D01*
X001093Y032286D01*
X001065Y032327D01*
X001040Y032371D01*
X001019Y032416D01*
X001002Y032463D01*
X000988Y032511D01*
X000978Y032560D01*
X000972Y032610D01*
X000970Y032660D01*
X029970Y032660D02*
X029972Y032710D01*
X029978Y032760D01*
X029988Y032809D01*
X030002Y032857D01*
X030019Y032904D01*
X030040Y032949D01*
X030065Y032993D01*
X030093Y033034D01*
X030125Y033073D01*
X030159Y033110D01*
X030196Y033144D01*
X030236Y033174D01*
X030278Y033201D01*
X030322Y033225D01*
X030368Y033246D01*
X030415Y033262D01*
X030463Y033275D01*
X030513Y033284D01*
X030562Y033289D01*
X030613Y033290D01*
X030663Y033287D01*
X030712Y033280D01*
X030761Y033269D01*
X030809Y033254D01*
X030855Y033236D01*
X030900Y033214D01*
X030943Y033188D01*
X030984Y033159D01*
X031023Y033127D01*
X031059Y033092D01*
X031091Y033054D01*
X031121Y033014D01*
X031148Y032971D01*
X031171Y032927D01*
X031190Y032881D01*
X031206Y032833D01*
X031218Y032784D01*
X031226Y032735D01*
X031230Y032685D01*
X031230Y032635D01*
X031226Y032585D01*
X031218Y032536D01*
X031206Y032487D01*
X031190Y032439D01*
X031171Y032393D01*
X031148Y032349D01*
X031121Y032306D01*
X031091Y032266D01*
X031059Y032228D01*
X031023Y032193D01*
X030984Y032161D01*
X030943Y032132D01*
X030900Y032106D01*
X030855Y032084D01*
X030809Y032066D01*
X030761Y032051D01*
X030712Y032040D01*
X030663Y032033D01*
X030613Y032030D01*
X030562Y032031D01*
X030513Y032036D01*
X030463Y032045D01*
X030415Y032058D01*
X030368Y032074D01*
X030322Y032095D01*
X030278Y032119D01*
X030236Y032146D01*
X030196Y032176D01*
X030159Y032210D01*
X030125Y032247D01*
X030093Y032286D01*
X030065Y032327D01*
X030040Y032371D01*
X030019Y032416D01*
X030002Y032463D01*
X029988Y032511D01*
X029978Y032560D01*
X029972Y032610D01*
X029970Y032660D01*
X029970Y002660D02*
X029972Y002710D01*
X029978Y002760D01*
X029988Y002809D01*
X030002Y002857D01*
X030019Y002904D01*
X030040Y002949D01*
X030065Y002993D01*
X030093Y003034D01*
X030125Y003073D01*
X030159Y003110D01*
X030196Y003144D01*
X030236Y003174D01*
X030278Y003201D01*
X030322Y003225D01*
X030368Y003246D01*
X030415Y003262D01*
X030463Y003275D01*
X030513Y003284D01*
X030562Y003289D01*
X030613Y003290D01*
X030663Y003287D01*
X030712Y003280D01*
X030761Y003269D01*
X030809Y003254D01*
X030855Y003236D01*
X030900Y003214D01*
X030943Y003188D01*
X030984Y003159D01*
X031023Y003127D01*
X031059Y003092D01*
X031091Y003054D01*
X031121Y003014D01*
X031148Y002971D01*
X031171Y002927D01*
X031190Y002881D01*
X031206Y002833D01*
X031218Y002784D01*
X031226Y002735D01*
X031230Y002685D01*
X031230Y002635D01*
X031226Y002585D01*
X031218Y002536D01*
X031206Y002487D01*
X031190Y002439D01*
X031171Y002393D01*
X031148Y002349D01*
X031121Y002306D01*
X031091Y002266D01*
X031059Y002228D01*
X031023Y002193D01*
X030984Y002161D01*
X030943Y002132D01*
X030900Y002106D01*
X030855Y002084D01*
X030809Y002066D01*
X030761Y002051D01*
X030712Y002040D01*
X030663Y002033D01*
X030613Y002030D01*
X030562Y002031D01*
X030513Y002036D01*
X030463Y002045D01*
X030415Y002058D01*
X030368Y002074D01*
X030322Y002095D01*
X030278Y002119D01*
X030236Y002146D01*
X030196Y002176D01*
X030159Y002210D01*
X030125Y002247D01*
X030093Y002286D01*
X030065Y002327D01*
X030040Y002371D01*
X030019Y002416D01*
X030002Y002463D01*
X029988Y002511D01*
X029978Y002560D01*
X029972Y002610D01*
X029970Y002660D01*
D11*
X027100Y022780D02*
X027200Y023220D01*
X027100Y023290D01*
X027000Y023220D01*
X027100Y022780D01*
X027099Y022785D02*
X027101Y022785D01*
X027097Y022793D02*
X027103Y022793D01*
X027105Y022802D02*
X027095Y022802D01*
X027093Y022810D02*
X027107Y022810D01*
X027109Y022819D02*
X027091Y022819D01*
X027089Y022827D02*
X027111Y022827D01*
X027113Y022836D02*
X027087Y022836D01*
X027085Y022844D02*
X027115Y022844D01*
X027117Y022853D02*
X027083Y022853D01*
X027082Y022861D02*
X027118Y022861D01*
X027120Y022870D02*
X027080Y022870D01*
X027078Y022878D02*
X027122Y022878D01*
X027124Y022887D02*
X027076Y022887D01*
X027074Y022895D02*
X027126Y022895D01*
X027128Y022904D02*
X027072Y022904D01*
X027070Y022912D02*
X027130Y022912D01*
X027132Y022921D02*
X027068Y022921D01*
X027066Y022929D02*
X027134Y022929D01*
X027136Y022938D02*
X027064Y022938D01*
X027062Y022946D02*
X027138Y022946D01*
X027140Y022955D02*
X027060Y022955D01*
X027058Y022963D02*
X027142Y022963D01*
X027144Y022972D02*
X027056Y022972D01*
X027055Y022980D02*
X027145Y022980D01*
X027147Y022989D02*
X027053Y022989D01*
X027051Y022997D02*
X027149Y022997D01*
X027151Y023006D02*
X027049Y023006D01*
X027047Y023014D02*
X027153Y023014D01*
X027155Y023023D02*
X027045Y023023D01*
X027043Y023031D02*
X027157Y023031D01*
X027159Y023040D02*
X027041Y023040D01*
X027039Y023048D02*
X027161Y023048D01*
X027163Y023057D02*
X027037Y023057D01*
X027035Y023065D02*
X027165Y023065D01*
X027167Y023074D02*
X027033Y023074D01*
X027031Y023082D02*
X027169Y023082D01*
X027171Y023091D02*
X027029Y023091D01*
X027027Y023099D02*
X027173Y023099D01*
X027174Y023108D02*
X027026Y023108D01*
X027024Y023116D02*
X027176Y023116D01*
X027178Y023125D02*
X027022Y023125D01*
X027020Y023133D02*
X027180Y023133D01*
X027182Y023142D02*
X027018Y023142D01*
X027016Y023150D02*
X027184Y023150D01*
X027186Y023159D02*
X027014Y023159D01*
X027012Y023167D02*
X027188Y023167D01*
X027190Y023176D02*
X027010Y023176D01*
X027008Y023184D02*
X027192Y023184D01*
X027194Y023193D02*
X027006Y023193D01*
X027004Y023201D02*
X027196Y023201D01*
X027198Y023210D02*
X027002Y023210D01*
X027000Y023218D02*
X027200Y023218D01*
X027191Y023227D02*
X027009Y023227D01*
X027022Y023235D02*
X027178Y023235D01*
X027166Y023244D02*
X027034Y023244D01*
X027046Y023252D02*
X027154Y023252D01*
X027142Y023261D02*
X027058Y023261D01*
X027070Y023269D02*
X027130Y023269D01*
X027118Y023278D02*
X027082Y023278D01*
X027094Y023286D02*
X027106Y023286D01*
X027178Y023388D02*
X027493Y023388D01*
X027498Y023380D02*
X027191Y023380D01*
X027204Y023371D02*
X027503Y023371D01*
X027509Y023363D02*
X027217Y023363D01*
X027230Y023354D02*
X027514Y023354D01*
X027520Y023346D02*
X027243Y023346D01*
X027256Y023337D02*
X027525Y023337D01*
X027530Y023329D02*
X027268Y023329D01*
X027281Y023320D02*
X027536Y023320D01*
X027541Y023312D02*
X027294Y023312D01*
X027307Y023303D02*
X027547Y023303D01*
X027552Y023295D02*
X027320Y023295D01*
X027333Y023286D02*
X027557Y023286D01*
X027563Y023278D02*
X027346Y023278D01*
X027358Y023269D02*
X027568Y023269D01*
X027574Y023261D02*
X027371Y023261D01*
X027384Y023252D02*
X027579Y023252D01*
X027584Y023244D02*
X027397Y023244D01*
X027410Y023235D02*
X027590Y023235D01*
X027595Y023227D02*
X027423Y023227D01*
X027435Y023218D02*
X027601Y023218D01*
X027606Y023210D02*
X027448Y023210D01*
X027461Y023201D02*
X027611Y023201D01*
X027617Y023193D02*
X027474Y023193D01*
X027487Y023184D02*
X027622Y023184D01*
X027628Y023176D02*
X027500Y023176D01*
X027513Y023167D02*
X027633Y023167D01*
X027638Y023159D02*
X027525Y023159D01*
X027538Y023150D02*
X027644Y023150D01*
X027649Y023142D02*
X027551Y023142D01*
X027564Y023133D02*
X027655Y023133D01*
X027660Y023125D02*
X027577Y023125D01*
X027590Y023116D02*
X027665Y023116D01*
X027671Y023108D02*
X027603Y023108D01*
X027615Y023099D02*
X027676Y023099D01*
X027682Y023091D02*
X027628Y023091D01*
X027641Y023082D02*
X027687Y023082D01*
X027692Y023074D02*
X027654Y023074D01*
X027667Y023065D02*
X027698Y023065D01*
X027703Y023057D02*
X027680Y023057D01*
X027693Y023048D02*
X027708Y023048D01*
X027705Y023040D02*
X027714Y023040D01*
X027718Y023031D02*
X027719Y023031D01*
X027720Y023030D02*
X027320Y023660D01*
X027700Y024270D01*
X027100Y023880D01*
X026490Y024260D01*
X026870Y023660D01*
X026490Y023040D01*
X027100Y023440D01*
X027720Y023030D01*
X027487Y023397D02*
X027166Y023397D01*
X027153Y023405D02*
X027482Y023405D01*
X027476Y023414D02*
X027140Y023414D01*
X027127Y023422D02*
X027471Y023422D01*
X027466Y023431D02*
X027114Y023431D01*
X027101Y023439D02*
X027460Y023439D01*
X027455Y023448D02*
X026740Y023448D01*
X026745Y023456D02*
X027449Y023456D01*
X027444Y023465D02*
X026750Y023465D01*
X026755Y023473D02*
X027439Y023473D01*
X027433Y023482D02*
X026761Y023482D01*
X026766Y023490D02*
X027428Y023490D01*
X027422Y023499D02*
X026771Y023499D01*
X026776Y023507D02*
X027417Y023507D01*
X027412Y023516D02*
X026782Y023516D01*
X026787Y023524D02*
X027406Y023524D01*
X027401Y023533D02*
X026792Y023533D01*
X026797Y023541D02*
X027395Y023541D01*
X027390Y023550D02*
X026802Y023550D01*
X026808Y023558D02*
X027385Y023558D01*
X027379Y023567D02*
X026813Y023567D01*
X026818Y023575D02*
X027374Y023575D01*
X027368Y023584D02*
X026823Y023584D01*
X026828Y023592D02*
X027363Y023592D01*
X027358Y023601D02*
X026834Y023601D01*
X026839Y023609D02*
X027352Y023609D01*
X027347Y023618D02*
X026844Y023618D01*
X026849Y023626D02*
X027341Y023626D01*
X027336Y023635D02*
X026854Y023635D01*
X026860Y023643D02*
X027331Y023643D01*
X027325Y023652D02*
X026865Y023652D01*
X026870Y023660D02*
X027320Y023660D01*
X027325Y023669D02*
X026865Y023669D01*
X026859Y023677D02*
X027331Y023677D01*
X027336Y023686D02*
X026854Y023686D01*
X026848Y023694D02*
X027341Y023694D01*
X027347Y023703D02*
X026843Y023703D01*
X026838Y023711D02*
X027352Y023711D01*
X027357Y023720D02*
X026832Y023720D01*
X026827Y023728D02*
X027362Y023728D01*
X027368Y023737D02*
X026821Y023737D01*
X026816Y023745D02*
X027373Y023745D01*
X027378Y023754D02*
X026811Y023754D01*
X026805Y023762D02*
X027384Y023762D01*
X027389Y023771D02*
X026800Y023771D01*
X026795Y023779D02*
X027394Y023779D01*
X027400Y023788D02*
X026789Y023788D01*
X026784Y023796D02*
X027405Y023796D01*
X027410Y023805D02*
X026778Y023805D01*
X026773Y023813D02*
X027415Y023813D01*
X027421Y023822D02*
X026768Y023822D01*
X026762Y023830D02*
X027426Y023830D01*
X027431Y023839D02*
X026757Y023839D01*
X026751Y023847D02*
X027437Y023847D01*
X027442Y023856D02*
X026746Y023856D01*
X026741Y023864D02*
X027447Y023864D01*
X027452Y023873D02*
X026735Y023873D01*
X026730Y023881D02*
X027098Y023881D01*
X027102Y023881D02*
X027458Y023881D01*
X027463Y023890D02*
X027115Y023890D01*
X027128Y023898D02*
X027468Y023898D01*
X027474Y023907D02*
X027141Y023907D01*
X027154Y023915D02*
X027479Y023915D01*
X027484Y023924D02*
X027167Y023924D01*
X027180Y023932D02*
X027490Y023932D01*
X027495Y023941D02*
X027193Y023941D01*
X027206Y023949D02*
X027500Y023949D01*
X027505Y023958D02*
X027219Y023958D01*
X027233Y023966D02*
X027511Y023966D01*
X027516Y023975D02*
X027246Y023975D01*
X027259Y023983D02*
X027521Y023983D01*
X027527Y023992D02*
X027272Y023992D01*
X027285Y024000D02*
X027532Y024000D01*
X027537Y024009D02*
X027298Y024009D01*
X027311Y024017D02*
X027542Y024017D01*
X027548Y024026D02*
X027324Y024026D01*
X027337Y024034D02*
X027553Y024034D01*
X027558Y024043D02*
X027350Y024043D01*
X027363Y024051D02*
X027564Y024051D01*
X027569Y024060D02*
X027376Y024060D01*
X027389Y024068D02*
X027574Y024068D01*
X027580Y024077D02*
X027403Y024077D01*
X027416Y024085D02*
X027585Y024085D01*
X027590Y024094D02*
X027429Y024094D01*
X027442Y024102D02*
X027595Y024102D01*
X027601Y024111D02*
X027455Y024111D01*
X027468Y024119D02*
X027606Y024119D01*
X027611Y024128D02*
X027481Y024128D01*
X027494Y024136D02*
X027617Y024136D01*
X027622Y024145D02*
X027507Y024145D01*
X027520Y024153D02*
X027627Y024153D01*
X027633Y024162D02*
X027533Y024162D01*
X027546Y024170D02*
X027638Y024170D01*
X027643Y024179D02*
X027559Y024179D01*
X027573Y024187D02*
X027648Y024187D01*
X027654Y024196D02*
X027586Y024196D01*
X027599Y024204D02*
X027659Y024204D01*
X027664Y024213D02*
X027612Y024213D01*
X027625Y024221D02*
X027670Y024221D01*
X027675Y024230D02*
X027638Y024230D01*
X027651Y024238D02*
X027680Y024238D01*
X027685Y024247D02*
X027664Y024247D01*
X027677Y024255D02*
X027691Y024255D01*
X027690Y024264D02*
X027696Y024264D01*
X027585Y023737D02*
X027511Y023737D01*
X027517Y023745D02*
X027544Y023745D01*
X027520Y023750D02*
X027960Y023660D01*
X027520Y023570D01*
X027460Y023660D01*
X027520Y023750D01*
X027505Y023728D02*
X027627Y023728D01*
X027668Y023720D02*
X027500Y023720D01*
X027494Y023711D02*
X027710Y023711D01*
X027751Y023703D02*
X027488Y023703D01*
X027483Y023694D02*
X027793Y023694D01*
X027835Y023686D02*
X027477Y023686D01*
X027471Y023677D02*
X027876Y023677D01*
X027878Y023643D02*
X027471Y023643D01*
X027466Y023652D02*
X027919Y023652D01*
X027918Y023669D02*
X027466Y023669D01*
X027460Y023660D02*
X027959Y023660D01*
X027836Y023635D02*
X027477Y023635D01*
X027483Y023626D02*
X027795Y023626D01*
X027753Y023618D02*
X027488Y023618D01*
X027494Y023609D02*
X027711Y023609D01*
X027670Y023601D02*
X027500Y023601D01*
X027505Y023592D02*
X027628Y023592D01*
X027587Y023584D02*
X027511Y023584D01*
X027517Y023575D02*
X027545Y023575D01*
X027099Y023439D02*
X026735Y023439D01*
X026729Y023431D02*
X027086Y023431D01*
X027073Y023422D02*
X026724Y023422D01*
X026719Y023414D02*
X027060Y023414D01*
X027047Y023405D02*
X026714Y023405D01*
X026709Y023397D02*
X027034Y023397D01*
X027021Y023388D02*
X026703Y023388D01*
X026698Y023380D02*
X027008Y023380D01*
X026995Y023371D02*
X026693Y023371D01*
X026688Y023363D02*
X026982Y023363D01*
X026969Y023354D02*
X026683Y023354D01*
X026677Y023346D02*
X026956Y023346D01*
X026943Y023337D02*
X026672Y023337D01*
X026667Y023329D02*
X026930Y023329D01*
X026917Y023320D02*
X026662Y023320D01*
X026656Y023312D02*
X026904Y023312D01*
X026891Y023303D02*
X026651Y023303D01*
X026646Y023295D02*
X026878Y023295D01*
X026865Y023286D02*
X026641Y023286D01*
X026636Y023278D02*
X026852Y023278D01*
X026839Y023269D02*
X026630Y023269D01*
X026625Y023261D02*
X026826Y023261D01*
X026814Y023252D02*
X026620Y023252D01*
X026615Y023244D02*
X026801Y023244D01*
X026788Y023235D02*
X026610Y023235D01*
X026604Y023227D02*
X026775Y023227D01*
X026762Y023218D02*
X026599Y023218D01*
X026594Y023210D02*
X026749Y023210D01*
X026736Y023201D02*
X026589Y023201D01*
X026584Y023193D02*
X026723Y023193D01*
X026710Y023184D02*
X026578Y023184D01*
X026573Y023176D02*
X026697Y023176D01*
X026684Y023167D02*
X026568Y023167D01*
X026563Y023159D02*
X026671Y023159D01*
X026658Y023150D02*
X026558Y023150D01*
X026552Y023142D02*
X026645Y023142D01*
X026632Y023133D02*
X026547Y023133D01*
X026542Y023125D02*
X026619Y023125D01*
X026606Y023116D02*
X026537Y023116D01*
X026531Y023108D02*
X026593Y023108D01*
X026580Y023099D02*
X026526Y023099D01*
X026521Y023091D02*
X026567Y023091D01*
X026554Y023082D02*
X026516Y023082D01*
X026511Y023074D02*
X026541Y023074D01*
X026528Y023065D02*
X026505Y023065D01*
X026500Y023057D02*
X026515Y023057D01*
X026502Y023048D02*
X026495Y023048D01*
X026610Y023584D02*
X026689Y023584D01*
X026695Y023592D02*
X026567Y023592D01*
X026523Y023601D02*
X026700Y023601D01*
X026706Y023609D02*
X026480Y023609D01*
X026436Y023618D02*
X026712Y023618D01*
X026717Y023626D02*
X026393Y023626D01*
X026350Y023635D02*
X026723Y023635D01*
X026729Y023643D02*
X026306Y023643D01*
X026308Y023677D02*
X026729Y023677D01*
X026734Y023669D02*
X026264Y023669D01*
X026263Y023652D02*
X026734Y023652D01*
X026740Y023660D02*
X026680Y023750D01*
X026220Y023660D01*
X026680Y023570D01*
X026740Y023660D01*
X026221Y023660D01*
X026351Y023686D02*
X026723Y023686D01*
X026717Y023694D02*
X026395Y023694D01*
X026438Y023703D02*
X026712Y023703D01*
X026706Y023711D02*
X026481Y023711D01*
X026525Y023720D02*
X026700Y023720D01*
X026695Y023728D02*
X026568Y023728D01*
X026612Y023737D02*
X026689Y023737D01*
X026683Y023745D02*
X026655Y023745D01*
X026725Y023890D02*
X027084Y023890D01*
X027071Y023898D02*
X026719Y023898D01*
X026714Y023907D02*
X027057Y023907D01*
X027044Y023915D02*
X026708Y023915D01*
X026703Y023924D02*
X027030Y023924D01*
X027016Y023932D02*
X026698Y023932D01*
X026692Y023941D02*
X027003Y023941D01*
X026989Y023949D02*
X026687Y023949D01*
X026681Y023958D02*
X026975Y023958D01*
X026962Y023966D02*
X026676Y023966D01*
X026671Y023975D02*
X026948Y023975D01*
X026934Y023983D02*
X026665Y023983D01*
X026660Y023992D02*
X026921Y023992D01*
X026907Y024000D02*
X026655Y024000D01*
X026649Y024009D02*
X026893Y024009D01*
X026880Y024017D02*
X026644Y024017D01*
X026638Y024026D02*
X026866Y024026D01*
X026853Y024034D02*
X026633Y024034D01*
X026628Y024043D02*
X026839Y024043D01*
X026825Y024051D02*
X026622Y024051D01*
X026617Y024060D02*
X026812Y024060D01*
X026798Y024068D02*
X026611Y024068D01*
X026606Y024077D02*
X026784Y024077D01*
X026771Y024085D02*
X026601Y024085D01*
X026595Y024094D02*
X026757Y024094D01*
X026743Y024102D02*
X026590Y024102D01*
X026585Y024111D02*
X026730Y024111D01*
X026716Y024119D02*
X026579Y024119D01*
X026574Y024128D02*
X026702Y024128D01*
X026689Y024136D02*
X026568Y024136D01*
X026563Y024145D02*
X026675Y024145D01*
X026661Y024153D02*
X026558Y024153D01*
X026552Y024162D02*
X026648Y024162D01*
X026634Y024170D02*
X026547Y024170D01*
X026542Y024179D02*
X026621Y024179D01*
X026607Y024187D02*
X026536Y024187D01*
X026531Y024196D02*
X026593Y024196D01*
X026580Y024204D02*
X026525Y024204D01*
X026520Y024213D02*
X026566Y024213D01*
X026552Y024221D02*
X026515Y024221D01*
X026509Y024230D02*
X026539Y024230D01*
X026525Y024238D02*
X026504Y024238D01*
X026498Y024247D02*
X026511Y024247D01*
X026498Y024255D02*
X026493Y024255D01*
X027014Y024145D02*
X027186Y024145D01*
X027184Y024153D02*
X027016Y024153D01*
X027018Y024162D02*
X027182Y024162D01*
X027180Y024170D02*
X027020Y024170D01*
X027021Y024179D02*
X027179Y024179D01*
X027177Y024187D02*
X027023Y024187D01*
X027025Y024196D02*
X027175Y024196D01*
X027173Y024204D02*
X027027Y024204D01*
X027029Y024213D02*
X027171Y024213D01*
X027169Y024221D02*
X027031Y024221D01*
X027033Y024230D02*
X027167Y024230D01*
X027166Y024238D02*
X027034Y024238D01*
X027036Y024247D02*
X027164Y024247D01*
X027162Y024255D02*
X027038Y024255D01*
X027040Y024264D02*
X027160Y024264D01*
X027158Y024272D02*
X027042Y024272D01*
X027044Y024281D02*
X027156Y024281D01*
X027155Y024289D02*
X027045Y024289D01*
X027047Y024298D02*
X027153Y024298D01*
X027151Y024306D02*
X027049Y024306D01*
X027051Y024315D02*
X027149Y024315D01*
X027147Y024323D02*
X027053Y024323D01*
X027055Y024332D02*
X027145Y024332D01*
X027143Y024340D02*
X027057Y024340D01*
X027058Y024349D02*
X027142Y024349D01*
X027140Y024357D02*
X027060Y024357D01*
X027062Y024366D02*
X027138Y024366D01*
X027136Y024374D02*
X027064Y024374D01*
X027066Y024383D02*
X027134Y024383D01*
X027132Y024391D02*
X027068Y024391D01*
X027069Y024400D02*
X027131Y024400D01*
X027129Y024408D02*
X027071Y024408D01*
X027073Y024417D02*
X027127Y024417D01*
X027125Y024425D02*
X027075Y024425D01*
X027077Y024434D02*
X027123Y024434D01*
X027121Y024442D02*
X027079Y024442D01*
X027081Y024451D02*
X027119Y024451D01*
X027118Y024459D02*
X027082Y024459D01*
X027084Y024468D02*
X027116Y024468D01*
X027114Y024476D02*
X027086Y024476D01*
X027088Y024485D02*
X027112Y024485D01*
X027110Y024493D02*
X027090Y024493D01*
X027092Y024502D02*
X027108Y024502D01*
X027106Y024510D02*
X027094Y024510D01*
X027095Y024519D02*
X027105Y024519D01*
X027103Y024527D02*
X027097Y024527D01*
X027099Y024536D02*
X027101Y024536D01*
X027100Y024540D02*
X027200Y024080D01*
X027100Y024020D01*
X027000Y024080D01*
X027100Y024540D01*
X027012Y024136D02*
X027188Y024136D01*
X027190Y024128D02*
X027010Y024128D01*
X027009Y024119D02*
X027191Y024119D01*
X027193Y024111D02*
X027007Y024111D01*
X027005Y024102D02*
X027195Y024102D01*
X027197Y024094D02*
X027003Y024094D01*
X027001Y024085D02*
X027199Y024085D01*
X027194Y024077D02*
X027006Y024077D01*
X027020Y024068D02*
X027180Y024068D01*
X027166Y024060D02*
X027034Y024060D01*
X027048Y024051D02*
X027152Y024051D01*
X027138Y024043D02*
X027062Y024043D01*
X027076Y024034D02*
X027124Y024034D01*
X027109Y024026D02*
X027091Y024026D01*
X026683Y023575D02*
X026654Y023575D01*
D12*
X010838Y021160D03*
X010070Y018847D03*
X010070Y016473D03*
X010838Y014160D03*
X010070Y011847D03*
X010070Y009473D03*
X010838Y007160D03*
X010070Y004847D03*
X005130Y004847D03*
X005130Y009473D03*
X005130Y011847D03*
X005130Y016473D03*
X005130Y018847D03*
X005130Y023473D03*
X005130Y025847D03*
X005130Y030473D03*
X010070Y030473D03*
X010838Y028160D03*
X010070Y025847D03*
X010070Y023473D03*
D13*
X001600Y023160D03*
X001600Y016160D03*
X001600Y009160D03*
X001600Y030160D03*
D14*
X001600Y028191D03*
X001600Y026223D03*
X001600Y021191D03*
X001600Y019223D03*
X001600Y014191D03*
X001600Y012223D03*
X001600Y007191D03*
X001600Y005223D03*
D15*
X013600Y008160D03*
X014100Y008910D03*
X014600Y008160D03*
X014600Y015160D03*
X014100Y015910D03*
X013600Y015160D03*
X013600Y022160D03*
X014100Y022910D03*
X014600Y022160D03*
X014600Y029160D03*
X014100Y029910D03*
X013600Y029160D03*
D16*
X013600Y027160D03*
X014600Y027160D03*
X015100Y025160D03*
X015100Y024160D03*
X012100Y024160D03*
X012100Y025160D03*
X013600Y020160D03*
X014600Y020160D03*
X015100Y018160D03*
X015100Y017060D03*
X012100Y017060D03*
X012100Y018160D03*
X013600Y013160D03*
X014600Y013160D03*
X015100Y011160D03*
X015100Y010160D03*
X012100Y010160D03*
X012100Y011160D03*
X013600Y006160D03*
X014600Y006160D03*
X022600Y018160D03*
X022600Y019160D03*
X022600Y020160D03*
X022600Y021160D03*
X022600Y022160D03*
X022600Y023160D03*
X022600Y024160D03*
X022600Y025160D03*
X022600Y026160D03*
X022600Y027160D03*
X022600Y028160D03*
X022600Y029160D03*
X021600Y029160D03*
X021600Y028160D03*
X021600Y027160D03*
X021600Y026160D03*
X023600Y026160D03*
X023600Y027160D03*
X023600Y028160D03*
X023600Y029160D03*
X023600Y025160D03*
X023600Y024160D03*
X023600Y023160D03*
X023600Y022160D03*
X023600Y021160D03*
X023600Y020160D03*
X023600Y019160D03*
X023600Y018160D03*
X029600Y018160D03*
X029600Y019160D03*
X029600Y020160D03*
X029600Y021160D03*
X029600Y022160D03*
X029600Y023160D03*
X029600Y024160D03*
X029600Y025160D03*
X029600Y026160D03*
X029600Y027160D03*
X029600Y028160D03*
X029600Y029160D03*
X030600Y029160D03*
X030600Y028160D03*
X030600Y027160D03*
X030600Y026160D03*
X030600Y025160D03*
X030600Y024160D03*
X030600Y023160D03*
X030600Y022160D03*
X030600Y021160D03*
X030600Y020160D03*
X030600Y019160D03*
X030600Y018160D03*
X018600Y026160D03*
X018600Y027160D03*
X018600Y028160D03*
X018600Y029160D03*
X015100Y031160D03*
X015100Y032160D03*
X012100Y032160D03*
X012100Y031160D03*
X026100Y003760D03*
X026100Y002160D03*
X027100Y002160D03*
X029100Y003760D03*
D17*
X012100Y005160D03*
X012100Y009160D03*
X012100Y012160D03*
X012100Y016160D03*
X012100Y019160D03*
X012100Y023160D03*
X012100Y026160D03*
X012100Y030160D03*
D18*
X011100Y002980D02*
X011100Y002340D01*
X010100Y002340D02*
X010100Y002980D01*
X009100Y002980D02*
X009100Y002340D01*
D19*
X019222Y004113D02*
X020009Y004113D01*
X021584Y005018D02*
X021584Y005806D01*
X020009Y006593D02*
X019222Y006593D01*
D20*
X021100Y008660D03*
X017100Y003160D03*
X014100Y003160D03*
D21*
X014100Y002160D03*
X017100Y002160D03*
X020100Y008660D03*
D22*
X023600Y002530D02*
X023600Y001790D01*
X024600Y001790D02*
X024600Y002530D01*
D23*
X023600Y018160D02*
X022600Y018160D01*
X022600Y019160D02*
X023600Y019160D01*
X023600Y020160D02*
X022600Y020160D01*
X022600Y021160D02*
X023600Y021160D01*
X023600Y022160D02*
X022600Y022160D01*
X022600Y023160D02*
X023600Y023160D01*
X023600Y024160D02*
X022600Y024160D01*
X022600Y025160D02*
X023600Y025160D01*
X029600Y025160D02*
X030600Y025160D01*
X030600Y024160D02*
X029600Y024160D01*
X029600Y023160D02*
X030600Y023160D01*
X030600Y022160D02*
X029600Y022160D01*
X029600Y021160D02*
X030600Y021160D01*
X030600Y020160D02*
X029600Y020160D01*
X029600Y019160D02*
X030600Y019160D01*
X030600Y018160D02*
X029600Y018160D01*
X029600Y026160D02*
X030600Y026160D01*
X030600Y027160D02*
X029600Y027160D01*
X029600Y028160D02*
X030600Y028160D01*
X030600Y029160D02*
X029600Y029160D01*
D24*
X029090Y027160D02*
X029090Y027059D01*
X029168Y026871D01*
X029311Y026728D01*
X029474Y026660D01*
X029311Y026592D01*
X029168Y026449D01*
X029090Y026261D01*
X029090Y026059D01*
X029168Y025871D01*
X029311Y025728D01*
X029474Y025660D01*
X029311Y025592D01*
X029168Y025449D01*
X029090Y025261D01*
X029090Y025059D01*
X029168Y024871D01*
X029311Y024728D01*
X029474Y024660D01*
X029311Y024592D01*
X029168Y024449D01*
X029090Y024261D01*
X029090Y024059D01*
X029168Y023871D01*
X029311Y023728D01*
X029474Y023660D01*
X029311Y023592D01*
X029168Y023449D01*
X029090Y023261D01*
X029090Y023059D01*
X029168Y022871D01*
X029311Y022728D01*
X029474Y022660D01*
X029311Y022592D01*
X029168Y022449D01*
X029090Y022261D01*
X029090Y022059D01*
X029168Y021871D01*
X029311Y021728D01*
X029474Y021660D01*
X029311Y021592D01*
X029168Y021449D01*
X029090Y021261D01*
X029090Y021059D01*
X029168Y020871D01*
X029311Y020728D01*
X029474Y020660D01*
X029311Y020592D01*
X029168Y020449D01*
X029090Y020261D01*
X029090Y020059D01*
X029168Y019871D01*
X029311Y019728D01*
X029452Y019669D01*
X029397Y019651D01*
X029322Y019613D01*
X029255Y019564D01*
X029196Y019505D01*
X029147Y019438D01*
X029109Y019363D01*
X029083Y019284D01*
X029070Y019202D01*
X029070Y019200D01*
X029560Y019200D01*
X029560Y019650D01*
X029640Y019650D01*
X029640Y019200D01*
X030070Y019200D01*
X030560Y019200D01*
X030560Y019650D01*
X030640Y019650D01*
X030640Y019200D01*
X030560Y019200D01*
X030560Y019120D01*
X030640Y019120D01*
X030640Y019200D01*
X031130Y019200D01*
X031130Y019202D01*
X031117Y019284D01*
X031091Y019363D01*
X031053Y019438D01*
X031004Y019505D01*
X030945Y019564D01*
X030878Y019613D01*
X030803Y019651D01*
X030748Y019669D01*
X030889Y019728D01*
X031032Y019871D01*
X031110Y020059D01*
X031110Y020261D01*
X031032Y020449D01*
X030889Y020592D01*
X030726Y020660D01*
X030889Y020728D01*
X031032Y020871D01*
X031110Y021059D01*
X031110Y021261D01*
X031032Y021449D01*
X030889Y021592D01*
X030726Y021660D01*
X030889Y021728D01*
X031032Y021871D01*
X031110Y022059D01*
X031110Y022261D01*
X031032Y022449D01*
X030889Y022592D01*
X030726Y022660D01*
X030889Y022728D01*
X031032Y022871D01*
X031110Y023059D01*
X031110Y023261D01*
X031032Y023449D01*
X030889Y023592D01*
X030726Y023660D01*
X030889Y023728D01*
X031032Y023871D01*
X031110Y024059D01*
X031110Y024261D01*
X031032Y024449D01*
X030889Y024592D01*
X030726Y024660D01*
X030889Y024728D01*
X031032Y024871D01*
X031110Y025059D01*
X031110Y025261D01*
X031032Y025449D01*
X030889Y025592D01*
X030726Y025660D01*
X030889Y025728D01*
X031032Y025871D01*
X031110Y026059D01*
X031110Y026261D01*
X031032Y026449D01*
X030889Y026592D01*
X030726Y026660D01*
X030889Y026728D01*
X031032Y026871D01*
X031110Y027059D01*
X031110Y027160D01*
X031940Y027160D01*
X031940Y002160D01*
X031930Y002029D01*
X031848Y001779D01*
X031694Y001566D01*
X031481Y001412D01*
X031231Y001330D01*
X031100Y001320D01*
X024845Y001320D01*
X024878Y001337D01*
X024945Y001386D01*
X025004Y001445D01*
X025053Y001512D01*
X025091Y001587D01*
X025117Y001666D01*
X025130Y001748D01*
X025130Y002110D01*
X024650Y002110D01*
X024650Y002210D01*
X024550Y002210D01*
X024550Y003059D01*
X024476Y003047D01*
X024397Y003021D01*
X024322Y002983D01*
X024255Y002934D01*
X024196Y002875D01*
X024147Y002808D01*
X024109Y002733D01*
X024091Y002678D01*
X024032Y002819D01*
X024155Y002819D01*
X024032Y002819D02*
X023889Y002962D01*
X023701Y003040D01*
X023499Y003040D01*
X023311Y002962D01*
X023168Y002819D01*
X022253Y002819D01*
X022371Y002938D02*
X023286Y002938D01*
X023168Y002819D02*
X023090Y002631D01*
X023090Y001689D01*
X023168Y001501D01*
X023311Y001358D01*
X023402Y001320D01*
X012654Y001320D01*
X012656Y001322D01*
X013074Y001740D01*
X013672Y001740D01*
X013717Y001695D01*
X014483Y001695D01*
X014528Y001740D01*
X016672Y001740D01*
X016717Y001695D01*
X017483Y001695D01*
X017528Y001740D01*
X021084Y001740D01*
X021238Y001804D01*
X025600Y006166D01*
X028244Y003522D01*
X028362Y003404D01*
X028516Y003340D01*
X028799Y003340D01*
X028811Y003328D01*
X028999Y003250D01*
X029201Y003250D01*
X029389Y003328D01*
X029532Y003471D01*
X029610Y003659D01*
X029610Y003861D01*
X029532Y004049D01*
X029389Y004192D01*
X029201Y004270D01*
X028999Y004270D01*
X028811Y004192D01*
X028799Y004180D01*
X028774Y004180D01*
X026020Y006934D01*
X026020Y013986D01*
X029684Y017650D01*
X029701Y017650D01*
X029889Y017728D01*
X029981Y017820D01*
X030219Y017820D01*
X030311Y017728D01*
X030499Y017650D01*
X030701Y017650D01*
X030889Y017728D01*
X031032Y017871D01*
X031110Y018059D01*
X031110Y018261D01*
X031032Y018449D01*
X030889Y018592D01*
X030748Y018651D01*
X030803Y018669D01*
X030878Y018707D01*
X030945Y018756D01*
X031004Y018815D01*
X031053Y018882D01*
X031091Y018957D01*
X031117Y019036D01*
X031130Y019118D01*
X031130Y019120D01*
X030640Y019120D01*
X030640Y018670D01*
X030560Y018670D01*
X030560Y019120D01*
X029640Y019120D01*
X029640Y019200D01*
X029560Y019200D01*
X029560Y019120D01*
X029640Y019120D01*
X029640Y018670D01*
X029560Y018670D01*
X029560Y019120D01*
X029070Y019120D01*
X029070Y019118D01*
X029083Y019036D01*
X029109Y018957D01*
X029147Y018882D01*
X029196Y018815D01*
X029255Y018756D01*
X029322Y018707D01*
X029397Y018669D01*
X029452Y018651D01*
X029311Y018592D01*
X029168Y018449D01*
X029090Y018261D01*
X029090Y018244D01*
X025362Y014516D01*
X025244Y014398D01*
X025180Y014244D01*
X025180Y006934D01*
X020826Y002580D01*
X017528Y002580D01*
X017483Y002625D01*
X016717Y002625D01*
X016672Y002580D01*
X014528Y002580D01*
X014483Y002625D01*
X013717Y002625D01*
X013672Y002580D01*
X012816Y002580D01*
X012662Y002516D01*
X012126Y001980D01*
X012100Y001980D01*
X012100Y004680D01*
X012195Y004680D01*
X012372Y004753D01*
X012507Y004888D01*
X012580Y005065D01*
X012580Y005255D01*
X012507Y005432D01*
X012372Y005567D01*
X012195Y005640D01*
X012100Y005640D01*
X012100Y006136D01*
X012170Y006206D01*
X012254Y006290D01*
X012300Y006400D01*
X012300Y008723D01*
X012372Y008753D01*
X012507Y008888D01*
X012580Y009065D01*
X012580Y009255D01*
X012507Y009432D01*
X012372Y009567D01*
X012195Y009640D01*
X012100Y009640D01*
X012100Y009650D01*
X012201Y009650D01*
X012389Y009728D01*
X012532Y009871D01*
X012610Y010059D01*
X012610Y010261D01*
X012532Y010449D01*
X012389Y010592D01*
X012226Y010660D01*
X012389Y010728D01*
X012532Y010871D01*
X012610Y011059D01*
X012610Y011261D01*
X012532Y011449D01*
X012389Y011592D01*
X012201Y011670D01*
X012100Y011670D01*
X012100Y011680D01*
X012195Y011680D01*
X012372Y011753D01*
X012507Y011888D01*
X012580Y012065D01*
X012580Y012255D01*
X012507Y012432D01*
X012372Y012567D01*
X012195Y012640D01*
X012100Y012640D01*
X012100Y013236D01*
X012354Y013490D01*
X012400Y013600D01*
X012400Y015781D01*
X012507Y015888D01*
X012580Y016065D01*
X012580Y016255D01*
X012507Y016432D01*
X012372Y016567D01*
X012307Y016594D01*
X012389Y016628D01*
X012532Y016771D01*
X012610Y016959D01*
X012610Y017161D01*
X012532Y017349D01*
X012389Y017492D01*
X012201Y017570D01*
X012100Y017570D01*
X012100Y017650D01*
X012201Y017650D01*
X012389Y017728D01*
X012532Y017871D01*
X012610Y018059D01*
X012610Y018261D01*
X012532Y018449D01*
X012389Y018592D01*
X012201Y018670D01*
X012100Y018670D01*
X012100Y018680D01*
X012195Y018680D01*
X012372Y018753D01*
X012507Y018888D01*
X012580Y019065D01*
X012580Y019255D01*
X012507Y019432D01*
X012372Y019567D01*
X012195Y019640D01*
X012100Y019640D01*
X012100Y020236D01*
X012354Y020490D01*
X012400Y020600D01*
X012400Y022781D01*
X012507Y022888D01*
X012580Y023065D01*
X012580Y023255D01*
X012507Y023432D01*
X012372Y023567D01*
X012195Y023640D01*
X012100Y023640D01*
X012100Y023650D01*
X012201Y023650D01*
X012389Y023728D01*
X012532Y023871D01*
X012610Y024059D01*
X012610Y024261D01*
X012532Y024449D01*
X012389Y024592D01*
X012226Y024660D01*
X012389Y024728D01*
X012532Y024871D01*
X012610Y025059D01*
X012610Y025261D01*
X012532Y025449D01*
X012389Y025592D01*
X012201Y025670D01*
X012100Y025670D01*
X012100Y025680D01*
X012195Y025680D01*
X012372Y025753D01*
X012507Y025888D01*
X012580Y026065D01*
X012580Y026255D01*
X012507Y026432D01*
X012372Y026567D01*
X012195Y026640D01*
X012100Y026640D01*
X012100Y027136D01*
X012354Y027390D01*
X012400Y027500D01*
X012400Y029781D01*
X012507Y029888D01*
X012580Y030065D01*
X012580Y030255D01*
X012507Y030432D01*
X012372Y030567D01*
X012195Y030640D01*
X012100Y030640D01*
X012100Y030650D01*
X012201Y030650D01*
X012389Y030728D01*
X012532Y030871D01*
X012610Y031059D01*
X012610Y031261D01*
X012532Y031449D01*
X012389Y031592D01*
X012226Y031660D01*
X012389Y031728D01*
X012532Y031871D01*
X012610Y032059D01*
X012610Y032261D01*
X012532Y032449D01*
X012389Y032592D01*
X012201Y032670D01*
X012100Y032670D01*
X012100Y034000D01*
X022100Y034000D01*
X022100Y029460D01*
X022021Y029460D01*
X021889Y029592D01*
X021701Y029670D01*
X021499Y029670D01*
X021311Y029592D01*
X021168Y029449D01*
X021090Y029261D01*
X021090Y029059D01*
X021168Y028871D01*
X021311Y028728D01*
X021474Y028660D01*
X021311Y028592D01*
X021168Y028449D01*
X021090Y028261D01*
X021090Y028059D01*
X021168Y027871D01*
X021311Y027728D01*
X021474Y027660D01*
X021311Y027592D01*
X021168Y027449D01*
X021090Y027261D01*
X021090Y027059D01*
X021168Y026871D01*
X021311Y026728D01*
X021474Y026660D01*
X021311Y026592D01*
X021168Y026449D01*
X021090Y026261D01*
X021090Y026059D01*
X021168Y025871D01*
X021311Y025728D01*
X021499Y025650D01*
X021701Y025650D01*
X021889Y025728D01*
X022021Y025860D01*
X022179Y025860D01*
X022311Y025728D01*
X022474Y025660D01*
X022311Y025592D01*
X022168Y025449D01*
X022090Y025261D01*
X022090Y025059D01*
X022168Y024871D01*
X022311Y024728D01*
X022474Y024660D01*
X022311Y024592D01*
X022168Y024449D01*
X022090Y024261D01*
X022090Y024059D01*
X022168Y023871D01*
X022311Y023728D01*
X022474Y023660D01*
X022311Y023592D01*
X022168Y023449D01*
X022090Y023261D01*
X022090Y023059D01*
X022168Y022871D01*
X022311Y022728D01*
X022474Y022660D01*
X022311Y022592D01*
X022168Y022449D01*
X022090Y022261D01*
X022090Y022059D01*
X022168Y021871D01*
X022311Y021728D01*
X022452Y021669D01*
X022397Y021651D01*
X022322Y021613D01*
X022255Y021564D01*
X022196Y021505D01*
X022147Y021438D01*
X022109Y021363D01*
X022083Y021284D01*
X022070Y021202D01*
X022070Y021200D01*
X022560Y021200D01*
X022560Y021650D01*
X022640Y021650D01*
X022640Y021200D01*
X023130Y021200D01*
X023560Y021200D01*
X023560Y021650D01*
X023640Y021650D01*
X023640Y021200D01*
X023560Y021200D01*
X023560Y021120D01*
X023560Y020670D01*
X023640Y020670D01*
X023640Y021120D01*
X023640Y021200D01*
X024130Y021200D01*
X024130Y021202D01*
X024117Y021284D01*
X024091Y021363D01*
X024053Y021438D01*
X024004Y021505D01*
X023945Y021564D01*
X023878Y021613D01*
X023803Y021651D01*
X023748Y021669D01*
X023889Y021728D01*
X024032Y021871D01*
X024110Y022059D01*
X024110Y022261D01*
X024032Y022449D01*
X023889Y022592D01*
X023726Y022660D01*
X023889Y022728D01*
X024032Y022871D01*
X024110Y023059D01*
X024110Y023261D01*
X024032Y023449D01*
X023889Y023592D01*
X023726Y023660D01*
X023889Y023728D01*
X024032Y023871D01*
X024110Y024059D01*
X024110Y024261D01*
X024032Y024449D01*
X023889Y024592D01*
X023726Y024660D01*
X023889Y024728D01*
X024032Y024871D01*
X024110Y025059D01*
X024110Y025261D01*
X024032Y025449D01*
X023889Y025592D01*
X023726Y025660D01*
X023889Y025728D01*
X024032Y025871D01*
X024110Y026059D01*
X024110Y026261D01*
X024032Y026449D01*
X023889Y026592D01*
X023726Y026660D01*
X023889Y026728D01*
X024032Y026871D01*
X024110Y027059D01*
X024110Y027160D01*
X029090Y027160D01*
X029090Y027112D02*
X024110Y027112D01*
X024083Y026993D02*
X029117Y026993D01*
X029166Y026875D02*
X024034Y026875D01*
X023917Y026756D02*
X029283Y026756D01*
X029420Y026638D02*
X023780Y026638D01*
X023962Y026519D02*
X029238Y026519D01*
X029148Y026401D02*
X024052Y026401D01*
X024101Y026282D02*
X029099Y026282D01*
X029090Y026164D02*
X024110Y026164D01*
X024104Y026045D02*
X029096Y026045D01*
X029145Y025927D02*
X024055Y025927D01*
X023969Y025808D02*
X029231Y025808D01*
X029403Y025690D02*
X023797Y025690D01*
X023910Y025571D02*
X029290Y025571D01*
X029171Y025453D02*
X024029Y025453D01*
X024080Y025334D02*
X029120Y025334D01*
X029090Y025216D02*
X024110Y025216D01*
X024110Y025097D02*
X029090Y025097D01*
X029123Y024979D02*
X024077Y024979D01*
X024021Y024860D02*
X029179Y024860D01*
X029297Y024742D02*
X023903Y024742D01*
X023815Y024623D02*
X026970Y024623D01*
X026971Y024629D02*
X026964Y024596D01*
X026946Y024568D01*
X026952Y024540D01*
X026876Y024191D01*
X026595Y024366D01*
X026580Y024388D01*
X026546Y024396D01*
X026516Y024415D01*
X026489Y024409D01*
X026463Y024415D01*
X026433Y024396D01*
X026399Y024388D01*
X026384Y024365D01*
X026362Y024350D01*
X026354Y024316D01*
X026335Y024286D01*
X026341Y024259D01*
X026335Y024233D01*
X026354Y024203D01*
X026362Y024169D01*
X026385Y024154D01*
X026562Y023875D01*
X026220Y023808D01*
X026189Y023814D01*
X026163Y023797D01*
X026133Y023791D01*
X026116Y023764D01*
X026089Y023747D01*
X026083Y023717D01*
X026066Y023691D01*
X026072Y023660D01*
X026066Y023629D01*
X026083Y023603D01*
X026089Y023573D01*
X026116Y023556D01*
X026133Y023529D01*
X026163Y023523D01*
X026189Y023506D01*
X026220Y023512D01*
X026568Y023444D01*
X026383Y023143D01*
X026360Y023128D01*
X026353Y023094D01*
X026335Y023065D01*
X026341Y023038D01*
X026336Y023011D01*
X026355Y022982D01*
X026363Y022948D01*
X026387Y022933D01*
X026402Y022910D01*
X026436Y022903D01*
X026465Y022885D01*
X026492Y022891D01*
X026519Y022886D01*
X026548Y022905D01*
X026582Y022913D01*
X026597Y022937D01*
X026874Y023119D01*
X026951Y022780D01*
X026945Y022754D01*
X026964Y022724D01*
X026972Y022689D01*
X026995Y022675D01*
X027009Y022652D01*
X027044Y022644D01*
X027074Y022625D01*
X027100Y022631D01*
X027126Y022625D01*
X027156Y022644D01*
X027191Y022652D01*
X027205Y022675D01*
X027228Y022689D01*
X027236Y022724D01*
X027255Y022754D01*
X027249Y022780D01*
X027325Y023117D01*
X027614Y022926D01*
X027630Y022902D01*
X027662Y022894D01*
X027690Y022876D01*
X027719Y022882D01*
X027747Y022875D01*
X027775Y022893D01*
X027808Y022900D01*
X027824Y022924D01*
X027848Y022940D01*
X027856Y022972D01*
X027874Y023000D01*
X027868Y023029D01*
X027875Y023057D01*
X027857Y023085D01*
X027850Y023118D01*
X027826Y023134D01*
X027629Y023444D01*
X027960Y023512D01*
X027990Y023506D01*
X028017Y023524D01*
X028048Y023530D01*
X028065Y023555D01*
X028090Y023572D01*
X028096Y023603D01*
X028114Y023630D01*
X028108Y023660D01*
X028114Y023690D01*
X028096Y023717D01*
X028090Y023748D01*
X028065Y023765D01*
X028048Y023790D01*
X028017Y023796D01*
X027990Y023814D01*
X027960Y023808D01*
X027626Y023876D01*
X027806Y024166D01*
X027829Y024181D01*
X027837Y024215D01*
X027855Y024244D01*
X027849Y024271D01*
X027854Y024299D01*
X027835Y024328D01*
X027828Y024361D01*
X027804Y024376D01*
X027789Y024399D01*
X027755Y024407D01*
X027726Y024425D01*
X027699Y024419D01*
X027671Y024424D01*
X027642Y024405D01*
X027609Y024398D01*
X027594Y024374D01*
X027323Y024198D01*
X027248Y024540D01*
X027254Y024568D01*
X027236Y024596D01*
X027229Y024629D01*
X027205Y024645D01*
X027189Y024669D01*
X027156Y024676D01*
X027128Y024694D01*
X027100Y024688D01*
X027072Y024694D01*
X027044Y024676D01*
X027011Y024669D01*
X026995Y024645D01*
X026971Y024629D01*
X026944Y024505D02*
X023977Y024505D01*
X024058Y024386D02*
X026398Y024386D01*
X026339Y024268D02*
X024107Y024268D01*
X024110Y024149D02*
X026389Y024149D01*
X026464Y024031D02*
X024098Y024031D01*
X024049Y023912D02*
X026539Y023912D01*
X026147Y023794D02*
X023955Y023794D01*
X023762Y023675D02*
X026069Y023675D01*
X026114Y023557D02*
X023925Y023557D01*
X024037Y023438D02*
X026564Y023438D01*
X026491Y023320D02*
X024086Y023320D01*
X024110Y023201D02*
X026419Y023201D01*
X026346Y023083D02*
X024110Y023083D01*
X024071Y022964D02*
X026359Y022964D01*
X026639Y022964D02*
X026909Y022964D01*
X026883Y023083D02*
X026819Y023083D01*
X026936Y022846D02*
X024007Y022846D01*
X023887Y022727D02*
X026962Y022727D01*
X027238Y022727D02*
X029313Y022727D01*
X029350Y022609D02*
X023850Y022609D01*
X023991Y022490D02*
X029209Y022490D01*
X029136Y022372D02*
X024064Y022372D01*
X024110Y022253D02*
X029090Y022253D01*
X029090Y022135D02*
X024110Y022135D01*
X024092Y022016D02*
X029108Y022016D01*
X029157Y021898D02*
X024043Y021898D01*
X023940Y021779D02*
X029260Y021779D01*
X029261Y021542D02*
X023967Y021542D01*
X024061Y021424D02*
X029157Y021424D01*
X029108Y021305D02*
X024110Y021305D01*
X024130Y021120D02*
X023640Y021120D01*
X023560Y021120D01*
X022640Y021120D01*
X022640Y021200D01*
X022560Y021200D01*
X022560Y021120D01*
X022560Y020670D01*
X022640Y020670D01*
X022640Y021120D01*
X022560Y021120D01*
X022070Y021120D01*
X022070Y021118D01*
X022083Y021036D01*
X022109Y020957D01*
X022147Y020882D01*
X022196Y020815D01*
X022255Y020756D01*
X022322Y020707D01*
X022397Y020669D01*
X022452Y020651D01*
X022311Y020592D01*
X022168Y020449D01*
X022090Y020261D01*
X022090Y020059D01*
X022168Y019871D01*
X022311Y019728D01*
X022474Y019660D01*
X022311Y019592D01*
X022168Y019449D01*
X022090Y019261D01*
X022090Y019059D01*
X022168Y018871D01*
X022311Y018728D01*
X022474Y018660D01*
X022311Y018592D01*
X022168Y018449D01*
X022090Y018261D01*
X022090Y018059D01*
X022168Y017871D01*
X022311Y017728D01*
X022499Y017650D01*
X022701Y017650D01*
X022889Y017728D01*
X022981Y017820D01*
X023219Y017820D01*
X023311Y017728D01*
X023499Y017650D01*
X023701Y017650D01*
X023889Y017728D01*
X024032Y017871D01*
X024110Y018059D01*
X024110Y018261D01*
X024032Y018449D01*
X023889Y018592D01*
X023726Y018660D01*
X023889Y018728D01*
X024032Y018871D01*
X024110Y019059D01*
X024110Y019261D01*
X024032Y019449D01*
X023889Y019592D01*
X023726Y019660D01*
X023889Y019728D01*
X024032Y019871D01*
X024110Y020059D01*
X024110Y020261D01*
X024032Y020449D01*
X023889Y020592D01*
X023748Y020651D01*
X023803Y020669D01*
X023878Y020707D01*
X023945Y020756D01*
X024004Y020815D01*
X024053Y020882D01*
X024091Y020957D01*
X024117Y021036D01*
X024130Y021118D01*
X024130Y021120D01*
X024122Y021068D02*
X029090Y021068D01*
X029090Y021187D02*
X023640Y021187D01*
X023560Y021187D02*
X022640Y021187D01*
X022560Y021187D02*
X013220Y021187D01*
X013220Y021305D02*
X022090Y021305D01*
X022139Y021424D02*
X013220Y021424D01*
X013220Y021542D02*
X022233Y021542D01*
X022425Y021661D02*
X013220Y021661D01*
X013220Y021779D02*
X013359Y021779D01*
X013418Y021720D02*
X013580Y021720D01*
X013580Y022140D01*
X013620Y022140D01*
X013620Y022180D01*
X013580Y022180D01*
X013580Y022600D01*
X013418Y022600D01*
X013220Y022402D01*
X013220Y023269D01*
X013891Y023940D01*
X014639Y023940D01*
X014668Y023871D01*
X014811Y023728D01*
X014999Y023650D01*
X015201Y023650D01*
X015389Y023728D01*
X015532Y023871D01*
X015610Y024059D01*
X015610Y024261D01*
X015532Y024449D01*
X015389Y024592D01*
X015248Y024651D01*
X015303Y024669D01*
X015378Y024707D01*
X015445Y024756D01*
X015504Y024815D01*
X015553Y024882D01*
X015591Y024957D01*
X015617Y025036D01*
X015630Y025118D01*
X015630Y025131D01*
X015129Y025131D01*
X015129Y025189D01*
X015071Y025189D01*
X015071Y025690D01*
X015058Y025690D01*
X014976Y025677D01*
X014897Y025651D01*
X014822Y025613D01*
X014755Y025564D01*
X014696Y025505D01*
X014647Y025438D01*
X014609Y025363D01*
X014583Y025284D01*
X014570Y025202D01*
X014570Y025189D01*
X015071Y025189D01*
X015071Y025131D01*
X014570Y025131D01*
X014570Y025118D01*
X014583Y025036D01*
X014609Y024957D01*
X014647Y024882D01*
X014696Y024815D01*
X014755Y024756D01*
X014822Y024707D01*
X014897Y024669D01*
X014952Y024651D01*
X014811Y024592D01*
X014668Y024449D01*
X014639Y024380D01*
X013709Y024380D01*
X012909Y023580D01*
X012780Y023451D01*
X012780Y020669D01*
X013119Y020330D01*
X013090Y020261D01*
X013090Y020059D01*
X013168Y019871D01*
X013311Y019728D01*
X013499Y019650D01*
X013701Y019650D01*
X013889Y019728D01*
X014032Y019871D01*
X014100Y020034D01*
X014168Y019871D01*
X014311Y019728D01*
X014499Y019650D01*
X014701Y019650D01*
X014889Y019728D01*
X015032Y019871D01*
X015110Y020059D01*
X015110Y020261D01*
X015032Y020449D01*
X014889Y020592D01*
X014701Y020670D01*
X014499Y020670D01*
X014311Y020592D01*
X014168Y020449D01*
X014100Y020286D01*
X014032Y020449D01*
X013889Y020592D01*
X013701Y020670D01*
X013499Y020670D01*
X013430Y020641D01*
X013220Y020851D01*
X013220Y021918D01*
X013418Y021720D01*
X013580Y021779D02*
X013620Y021779D01*
X013620Y021720D02*
X013782Y021720D01*
X014040Y021978D01*
X014040Y022140D01*
X013620Y022140D01*
X013620Y021720D01*
X013620Y021898D02*
X013580Y021898D01*
X013580Y022016D02*
X013620Y022016D01*
X013620Y022135D02*
X013580Y022135D01*
X013620Y022180D02*
X013620Y022600D01*
X013782Y022600D01*
X014040Y022342D01*
X014040Y022180D01*
X013620Y022180D01*
X013620Y022253D02*
X013580Y022253D01*
X013580Y022372D02*
X013620Y022372D01*
X013620Y022490D02*
X013580Y022490D01*
X013807Y022609D02*
X013220Y022609D01*
X013220Y022727D02*
X013689Y022727D01*
X013680Y022736D02*
X013926Y022490D01*
X014274Y022490D01*
X014520Y022736D01*
X014520Y023084D01*
X014274Y023330D01*
X013926Y023330D01*
X013680Y023084D01*
X013680Y022736D01*
X013680Y022846D02*
X013220Y022846D01*
X013220Y022964D02*
X013680Y022964D01*
X013680Y023083D02*
X013220Y023083D01*
X013220Y023201D02*
X013797Y023201D01*
X013916Y023320D02*
X013271Y023320D01*
X013389Y023438D02*
X022163Y023438D01*
X022114Y023320D02*
X014284Y023320D01*
X014403Y023201D02*
X022090Y023201D01*
X022090Y023083D02*
X014520Y023083D01*
X014520Y022964D02*
X022129Y022964D01*
X022193Y022846D02*
X014520Y022846D01*
X014511Y022727D02*
X022313Y022727D01*
X022350Y022609D02*
X014393Y022609D01*
X014426Y022580D02*
X014180Y022334D01*
X014180Y021986D01*
X014426Y021740D01*
X014774Y021740D01*
X015020Y021986D01*
X015020Y022334D01*
X014774Y022580D01*
X014426Y022580D01*
X014336Y022490D02*
X014274Y022490D01*
X014218Y022372D02*
X014011Y022372D01*
X014040Y022253D02*
X014180Y022253D01*
X014180Y022135D02*
X014040Y022135D01*
X014040Y022016D02*
X014180Y022016D01*
X014268Y021898D02*
X013960Y021898D01*
X013841Y021779D02*
X014387Y021779D01*
X014813Y021779D02*
X022260Y021779D01*
X022157Y021898D02*
X014932Y021898D01*
X015020Y022016D02*
X022108Y022016D01*
X022090Y022135D02*
X015020Y022135D01*
X015020Y022253D02*
X022090Y022253D01*
X022136Y022372D02*
X014982Y022372D01*
X014864Y022490D02*
X022209Y022490D01*
X022560Y021542D02*
X022640Y021542D01*
X022640Y021424D02*
X022560Y021424D01*
X022560Y021305D02*
X022640Y021305D01*
X022640Y021068D02*
X022560Y021068D01*
X022560Y020950D02*
X022640Y020950D01*
X022640Y020831D02*
X022560Y020831D01*
X022560Y020713D02*
X022640Y020713D01*
X022314Y020713D02*
X013359Y020713D01*
X013240Y020831D02*
X022184Y020831D01*
X022112Y020950D02*
X013220Y020950D01*
X013220Y021068D02*
X022078Y021068D01*
X022315Y020594D02*
X014885Y020594D01*
X015006Y020476D02*
X022194Y020476D01*
X022130Y020357D02*
X015070Y020357D01*
X015110Y020239D02*
X022090Y020239D01*
X022090Y020120D02*
X015110Y020120D01*
X015086Y020002D02*
X022114Y020002D01*
X022163Y019883D02*
X015037Y019883D01*
X014926Y019765D02*
X022274Y019765D01*
X022441Y019646D02*
X012100Y019646D01*
X012100Y019765D02*
X013274Y019765D01*
X013163Y019883D02*
X012100Y019883D01*
X012100Y020002D02*
X013114Y020002D01*
X013090Y020120D02*
X012100Y020120D01*
X012103Y020239D02*
X013090Y020239D01*
X013092Y020357D02*
X012221Y020357D01*
X012340Y020476D02*
X012973Y020476D01*
X012855Y020594D02*
X012397Y020594D01*
X012400Y020713D02*
X012780Y020713D01*
X012780Y020831D02*
X012400Y020831D01*
X012400Y020950D02*
X012780Y020950D01*
X012780Y021068D02*
X012400Y021068D01*
X012400Y021187D02*
X012780Y021187D01*
X012780Y021305D02*
X012400Y021305D01*
X012400Y021424D02*
X012780Y021424D01*
X012780Y021542D02*
X012400Y021542D01*
X012400Y021661D02*
X012780Y021661D01*
X012780Y021779D02*
X012400Y021779D01*
X012400Y021898D02*
X012780Y021898D01*
X012780Y022016D02*
X012400Y022016D01*
X012400Y022135D02*
X012780Y022135D01*
X012780Y022253D02*
X012400Y022253D01*
X012400Y022372D02*
X012780Y022372D01*
X012780Y022490D02*
X012400Y022490D01*
X012400Y022609D02*
X012780Y022609D01*
X012780Y022727D02*
X012400Y022727D01*
X012464Y022846D02*
X012780Y022846D01*
X012780Y022964D02*
X012538Y022964D01*
X012580Y023083D02*
X012780Y023083D01*
X012780Y023201D02*
X012580Y023201D01*
X012553Y023320D02*
X012780Y023320D01*
X012780Y023438D02*
X012501Y023438D01*
X012382Y023557D02*
X012885Y023557D01*
X013004Y023675D02*
X012262Y023675D01*
X012455Y023794D02*
X013122Y023794D01*
X013241Y023912D02*
X012549Y023912D01*
X012598Y024031D02*
X013359Y024031D01*
X013478Y024149D02*
X012610Y024149D01*
X012607Y024268D02*
X013596Y024268D01*
X013863Y023912D02*
X014651Y023912D01*
X014745Y023794D02*
X013745Y023794D01*
X013626Y023675D02*
X014938Y023675D01*
X015262Y023675D02*
X022438Y023675D01*
X022275Y023557D02*
X013508Y023557D01*
X013308Y022490D02*
X013220Y022490D01*
X013220Y021898D02*
X013240Y021898D01*
X013892Y022490D02*
X013926Y022490D01*
X013885Y020594D02*
X014315Y020594D01*
X014194Y020476D02*
X014006Y020476D01*
X014070Y020357D02*
X014130Y020357D01*
X014114Y020002D02*
X014086Y020002D01*
X014037Y019883D02*
X014163Y019883D01*
X014274Y019765D02*
X013926Y019765D01*
X014776Y018580D02*
X012402Y018580D01*
X012520Y018461D02*
X014664Y018461D01*
X014647Y018438D02*
X014609Y018363D01*
X014583Y018284D01*
X014570Y018202D01*
X014570Y018189D01*
X015071Y018189D01*
X015071Y018690D01*
X015058Y018690D01*
X014976Y018677D01*
X014897Y018651D01*
X014822Y018613D01*
X014755Y018564D01*
X014696Y018505D01*
X014647Y018438D01*
X014602Y018343D02*
X012576Y018343D01*
X012610Y018224D02*
X014574Y018224D01*
X014570Y018131D02*
X014570Y018118D01*
X014583Y018036D01*
X014609Y017957D01*
X014647Y017882D01*
X014696Y017815D01*
X014755Y017756D01*
X014822Y017707D01*
X014897Y017669D01*
X014976Y017643D01*
X015058Y017630D01*
X015071Y017630D01*
X015071Y018131D01*
X015129Y018131D01*
X015129Y018189D01*
X015630Y018189D01*
X015630Y018202D01*
X015617Y018284D01*
X015591Y018363D01*
X015553Y018438D01*
X015504Y018505D01*
X015445Y018564D01*
X015378Y018613D01*
X015303Y018651D01*
X015224Y018677D01*
X015142Y018690D01*
X015129Y018690D01*
X015129Y018189D01*
X015071Y018189D01*
X015071Y018131D01*
X014570Y018131D01*
X014572Y018106D02*
X012610Y018106D01*
X012580Y017987D02*
X014599Y017987D01*
X014657Y017869D02*
X012530Y017869D01*
X012411Y017750D02*
X014763Y017750D01*
X014861Y017513D02*
X012339Y017513D01*
X012487Y017395D02*
X014713Y017395D01*
X014668Y017349D02*
X014639Y017280D01*
X013709Y017280D01*
X012909Y016480D01*
X012780Y016351D01*
X012780Y013669D01*
X013119Y013330D01*
X013090Y013261D01*
X013090Y013059D01*
X013168Y012871D01*
X013311Y012728D01*
X013499Y012650D01*
X013701Y012650D01*
X013889Y012728D01*
X014032Y012871D01*
X014100Y013034D01*
X014168Y012871D01*
X014311Y012728D01*
X014499Y012650D01*
X014701Y012650D01*
X014889Y012728D01*
X015032Y012871D01*
X015110Y013059D01*
X015110Y013261D01*
X015032Y013449D01*
X014889Y013592D01*
X014701Y013670D01*
X014499Y013670D01*
X014311Y013592D01*
X014168Y013449D01*
X014100Y013286D01*
X014032Y013449D01*
X013889Y013592D01*
X013701Y013670D01*
X013499Y013670D01*
X013430Y013641D01*
X013220Y013851D01*
X013220Y014918D01*
X013418Y014720D01*
X013580Y014720D01*
X013580Y015140D01*
X013620Y015140D01*
X013620Y015180D01*
X014040Y015180D01*
X014040Y015342D01*
X013782Y015600D01*
X013620Y015600D01*
X013620Y015180D01*
X013580Y015180D01*
X013580Y015600D01*
X013418Y015600D01*
X013220Y015402D01*
X013220Y016169D01*
X013891Y016840D01*
X014639Y016840D01*
X014668Y016771D01*
X014811Y016628D01*
X014999Y016550D01*
X015201Y016550D01*
X015389Y016628D01*
X015532Y016771D01*
X015610Y016959D01*
X015610Y017161D01*
X015532Y017349D01*
X015389Y017492D01*
X015201Y017570D01*
X014999Y017570D01*
X014811Y017492D01*
X014668Y017349D01*
X015049Y017632D02*
X012100Y017632D01*
X012563Y017276D02*
X013705Y017276D01*
X013586Y017158D02*
X012610Y017158D01*
X012610Y017039D02*
X013468Y017039D01*
X013349Y016921D02*
X012594Y016921D01*
X012545Y016802D02*
X013231Y016802D01*
X013112Y016684D02*
X012445Y016684D01*
X012374Y016565D02*
X012994Y016565D01*
X012875Y016447D02*
X012492Y016447D01*
X012550Y016328D02*
X012780Y016328D01*
X012780Y016210D02*
X012580Y016210D01*
X012580Y016091D02*
X012780Y016091D01*
X012780Y015973D02*
X012542Y015973D01*
X012473Y015854D02*
X012780Y015854D01*
X012780Y015736D02*
X012400Y015736D01*
X012400Y015617D02*
X012780Y015617D01*
X012780Y015499D02*
X012400Y015499D01*
X012400Y015380D02*
X012780Y015380D01*
X012780Y015262D02*
X012400Y015262D01*
X012400Y015143D02*
X012780Y015143D01*
X012780Y015025D02*
X012400Y015025D01*
X012400Y014906D02*
X012780Y014906D01*
X012780Y014788D02*
X012400Y014788D01*
X012400Y014669D02*
X012780Y014669D01*
X012780Y014551D02*
X012400Y014551D01*
X012400Y014432D02*
X012780Y014432D01*
X012780Y014314D02*
X012400Y014314D01*
X012400Y014195D02*
X012780Y014195D01*
X012780Y014077D02*
X012400Y014077D01*
X012400Y013958D02*
X012780Y013958D01*
X012780Y013840D02*
X012400Y013840D01*
X012400Y013721D02*
X012780Y013721D01*
X012846Y013603D02*
X012400Y013603D01*
X012348Y013484D02*
X012965Y013484D01*
X013083Y013366D02*
X012230Y013366D01*
X012111Y013247D02*
X013090Y013247D01*
X013090Y013129D02*
X012100Y013129D01*
X012100Y013010D02*
X013110Y013010D01*
X013159Y012892D02*
X012100Y012892D01*
X012100Y012773D02*
X013266Y012773D01*
X013488Y012655D02*
X012100Y012655D01*
X012403Y012536D02*
X025180Y012536D01*
X025180Y012418D02*
X012513Y012418D01*
X012562Y012299D02*
X025180Y012299D01*
X025180Y012181D02*
X012580Y012181D01*
X012579Y012062D02*
X025180Y012062D01*
X025180Y011944D02*
X012530Y011944D01*
X012444Y011825D02*
X025180Y011825D01*
X025180Y011707D02*
X012260Y011707D01*
X012393Y011588D02*
X014787Y011588D01*
X014755Y011564D02*
X014696Y011505D01*
X014647Y011438D01*
X014609Y011363D01*
X014583Y011284D01*
X014570Y011202D01*
X014570Y011189D01*
X015071Y011189D01*
X015071Y011690D01*
X015058Y011690D01*
X014976Y011677D01*
X014897Y011651D01*
X014822Y011613D01*
X014755Y011564D01*
X014670Y011470D02*
X012512Y011470D01*
X012573Y011351D02*
X014605Y011351D01*
X014575Y011233D02*
X012610Y011233D01*
X012610Y011114D02*
X014571Y011114D01*
X014570Y011118D02*
X014583Y011036D01*
X014609Y010957D01*
X014647Y010882D01*
X014696Y010815D01*
X014755Y010756D01*
X014822Y010707D01*
X014897Y010669D01*
X014952Y010651D01*
X014811Y010592D01*
X014668Y010449D01*
X014639Y010380D01*
X013809Y010380D01*
X012909Y009480D01*
X012780Y009351D01*
X012780Y006669D01*
X013119Y006330D01*
X013090Y006261D01*
X013090Y006059D01*
X013168Y005871D01*
X013311Y005728D01*
X013499Y005650D01*
X013701Y005650D01*
X013889Y005728D01*
X014032Y005871D01*
X014100Y006034D01*
X014168Y005871D01*
X014311Y005728D01*
X014499Y005650D01*
X014701Y005650D01*
X014889Y005728D01*
X015032Y005871D01*
X015110Y006059D01*
X015110Y006261D01*
X015032Y006449D01*
X014889Y006592D01*
X014701Y006670D01*
X014499Y006670D01*
X014311Y006592D01*
X014168Y006449D01*
X014100Y006286D01*
X014032Y006449D01*
X013889Y006592D01*
X013701Y006670D01*
X013499Y006670D01*
X013430Y006641D01*
X013220Y006851D01*
X013220Y007918D01*
X013418Y007720D01*
X013580Y007720D01*
X013580Y008140D01*
X013620Y008140D01*
X013620Y008180D01*
X013580Y008180D01*
X013580Y008600D01*
X013418Y008600D01*
X013220Y008402D01*
X013220Y009169D01*
X013991Y009940D01*
X014639Y009940D01*
X014668Y009871D01*
X014811Y009728D01*
X014999Y009650D01*
X015201Y009650D01*
X015389Y009728D01*
X015532Y009871D01*
X015610Y010059D01*
X015610Y010261D01*
X015532Y010449D01*
X015389Y010592D01*
X015248Y010651D01*
X015303Y010669D01*
X015378Y010707D01*
X015445Y010756D01*
X015504Y010815D01*
X015553Y010882D01*
X015591Y010957D01*
X015617Y011036D01*
X015630Y011118D01*
X015630Y011131D01*
X015129Y011131D01*
X015129Y011189D01*
X015071Y011189D01*
X015071Y011131D01*
X014570Y011131D01*
X014570Y011118D01*
X014596Y010996D02*
X012584Y010996D01*
X012535Y010877D02*
X014650Y010877D01*
X014752Y010759D02*
X012420Y010759D01*
X012274Y010640D02*
X014926Y010640D01*
X014740Y010522D02*
X012460Y010522D01*
X012551Y010403D02*
X014649Y010403D01*
X014644Y009929D02*
X013980Y009929D01*
X013862Y009811D02*
X014728Y009811D01*
X014897Y009692D02*
X013743Y009692D01*
X013625Y009574D02*
X025180Y009574D01*
X025180Y009692D02*
X015303Y009692D01*
X015472Y009811D02*
X025180Y009811D01*
X025180Y009929D02*
X015556Y009929D01*
X015605Y010048D02*
X025180Y010048D01*
X025180Y010166D02*
X015610Y010166D01*
X015600Y010285D02*
X025180Y010285D01*
X025180Y010403D02*
X015551Y010403D01*
X015460Y010522D02*
X025180Y010522D01*
X025180Y010640D02*
X015274Y010640D01*
X015448Y010759D02*
X025180Y010759D01*
X025180Y010877D02*
X015550Y010877D01*
X015604Y010996D02*
X025180Y010996D01*
X025180Y011114D02*
X015629Y011114D01*
X015630Y011189D02*
X015630Y011202D01*
X015617Y011284D01*
X015591Y011363D01*
X015553Y011438D01*
X015504Y011505D01*
X015445Y011564D01*
X015378Y011613D01*
X015303Y011651D01*
X015224Y011677D01*
X015142Y011690D01*
X015129Y011690D01*
X015129Y011189D01*
X015630Y011189D01*
X015625Y011233D02*
X025180Y011233D01*
X025180Y011351D02*
X015595Y011351D01*
X015530Y011470D02*
X025180Y011470D01*
X025180Y011588D02*
X015413Y011588D01*
X015129Y011588D02*
X015071Y011588D01*
X015071Y011470D02*
X015129Y011470D01*
X015129Y011351D02*
X015071Y011351D01*
X015071Y011233D02*
X015129Y011233D01*
X014712Y012655D02*
X025180Y012655D01*
X025180Y012773D02*
X014934Y012773D01*
X015041Y012892D02*
X025180Y012892D01*
X025180Y013010D02*
X015090Y013010D01*
X015110Y013129D02*
X025180Y013129D01*
X025180Y013247D02*
X015110Y013247D01*
X015067Y013366D02*
X025180Y013366D01*
X025180Y013484D02*
X014997Y013484D01*
X014864Y013603D02*
X025180Y013603D01*
X025180Y013721D02*
X013350Y013721D01*
X013232Y013840D02*
X025180Y013840D01*
X025180Y013958D02*
X013220Y013958D01*
X013220Y014077D02*
X025180Y014077D01*
X025180Y014195D02*
X013220Y014195D01*
X013220Y014314D02*
X025209Y014314D01*
X025278Y014432D02*
X013220Y014432D01*
X013220Y014551D02*
X025397Y014551D01*
X025515Y014669D02*
X013220Y014669D01*
X013220Y014788D02*
X013350Y014788D01*
X013232Y014906D02*
X013220Y014906D01*
X013580Y014906D02*
X013620Y014906D01*
X013620Y014788D02*
X013580Y014788D01*
X013620Y014720D02*
X013782Y014720D01*
X014040Y014978D01*
X014040Y015140D01*
X013620Y015140D01*
X013620Y014720D01*
X013850Y014788D02*
X014379Y014788D01*
X014426Y014740D02*
X014774Y014740D01*
X015020Y014986D01*
X015020Y015334D01*
X014774Y015580D01*
X014426Y015580D01*
X014180Y015334D01*
X014180Y014986D01*
X014426Y014740D01*
X014260Y014906D02*
X013968Y014906D01*
X014040Y015025D02*
X014180Y015025D01*
X014180Y015143D02*
X013620Y015143D01*
X013620Y015025D02*
X013580Y015025D01*
X013580Y015262D02*
X013620Y015262D01*
X013620Y015380D02*
X013580Y015380D01*
X013580Y015499D02*
X013620Y015499D01*
X013799Y015617D02*
X013220Y015617D01*
X013220Y015499D02*
X013316Y015499D01*
X013220Y015736D02*
X013680Y015736D01*
X013926Y015490D01*
X014274Y015490D01*
X014520Y015736D01*
X014520Y016084D01*
X014274Y016330D01*
X013926Y016330D01*
X013680Y016084D01*
X013680Y015736D01*
X013680Y015854D02*
X013220Y015854D01*
X013220Y015973D02*
X013680Y015973D01*
X013687Y016091D02*
X013220Y016091D01*
X013261Y016210D02*
X013806Y016210D01*
X013924Y016328D02*
X013379Y016328D01*
X013498Y016447D02*
X027293Y016447D01*
X027411Y016565D02*
X015238Y016565D01*
X015445Y016684D02*
X027530Y016684D01*
X027648Y016802D02*
X015545Y016802D01*
X015594Y016921D02*
X027767Y016921D01*
X027885Y017039D02*
X015610Y017039D01*
X015610Y017158D02*
X028004Y017158D01*
X028122Y017276D02*
X015563Y017276D01*
X015487Y017395D02*
X028241Y017395D01*
X028359Y017513D02*
X015339Y017513D01*
X015303Y017669D02*
X015378Y017707D01*
X015445Y017756D01*
X015504Y017815D01*
X015553Y017882D01*
X015591Y017957D01*
X015617Y018036D01*
X015630Y018118D01*
X015630Y018131D01*
X015129Y018131D01*
X015129Y017630D01*
X015142Y017630D01*
X015224Y017643D01*
X015303Y017669D01*
X015151Y017632D02*
X028478Y017632D01*
X028596Y017750D02*
X023911Y017750D01*
X024030Y017869D02*
X028715Y017869D01*
X028833Y017987D02*
X024080Y017987D01*
X024110Y018106D02*
X028952Y018106D01*
X029070Y018224D02*
X024110Y018224D01*
X024076Y018343D02*
X029124Y018343D01*
X029180Y018461D02*
X024020Y018461D01*
X023902Y018580D02*
X029298Y018580D01*
X029339Y018698D02*
X023817Y018698D01*
X023978Y018817D02*
X029194Y018817D01*
X029120Y018935D02*
X024059Y018935D01*
X024108Y019054D02*
X029080Y019054D01*
X029085Y019291D02*
X024098Y019291D01*
X024110Y019172D02*
X029560Y019172D01*
X029640Y019172D02*
X030560Y019172D01*
X030640Y019172D02*
X031940Y019172D01*
X031940Y019054D02*
X031120Y019054D01*
X031080Y018935D02*
X031940Y018935D01*
X031940Y018817D02*
X031006Y018817D01*
X030861Y018698D02*
X031940Y018698D01*
X031940Y018580D02*
X030902Y018580D01*
X031020Y018461D02*
X031940Y018461D01*
X031940Y018343D02*
X031076Y018343D01*
X031110Y018224D02*
X031940Y018224D01*
X031940Y018106D02*
X031110Y018106D01*
X031080Y017987D02*
X031940Y017987D01*
X031940Y017869D02*
X031030Y017869D01*
X030911Y017750D02*
X031940Y017750D01*
X031940Y017632D02*
X029666Y017632D01*
X029547Y017513D02*
X031940Y017513D01*
X031940Y017395D02*
X029429Y017395D01*
X029310Y017276D02*
X031940Y017276D01*
X031940Y017158D02*
X029192Y017158D01*
X029073Y017039D02*
X031940Y017039D01*
X031940Y016921D02*
X028955Y016921D01*
X028836Y016802D02*
X031940Y016802D01*
X031940Y016684D02*
X028718Y016684D01*
X028599Y016565D02*
X031940Y016565D01*
X031940Y016447D02*
X028481Y016447D01*
X028362Y016328D02*
X031940Y016328D01*
X031940Y016210D02*
X028244Y016210D01*
X028125Y016091D02*
X031940Y016091D01*
X031940Y015973D02*
X028006Y015973D01*
X027888Y015854D02*
X031940Y015854D01*
X031940Y015736D02*
X027769Y015736D01*
X027651Y015617D02*
X031940Y015617D01*
X031940Y015499D02*
X027532Y015499D01*
X027414Y015380D02*
X031940Y015380D01*
X031940Y015262D02*
X027295Y015262D01*
X027177Y015143D02*
X031940Y015143D01*
X031940Y015025D02*
X027058Y015025D01*
X026940Y014906D02*
X031940Y014906D01*
X031940Y014788D02*
X026821Y014788D01*
X026703Y014669D02*
X031940Y014669D01*
X031940Y014551D02*
X026584Y014551D01*
X026466Y014432D02*
X031940Y014432D01*
X031940Y014314D02*
X026347Y014314D01*
X026229Y014195D02*
X031940Y014195D01*
X031940Y014077D02*
X026110Y014077D01*
X026020Y013958D02*
X031940Y013958D01*
X031940Y013840D02*
X026020Y013840D01*
X026020Y013721D02*
X031940Y013721D01*
X031940Y013603D02*
X026020Y013603D01*
X026020Y013484D02*
X031940Y013484D01*
X031940Y013366D02*
X026020Y013366D01*
X026020Y013247D02*
X031940Y013247D01*
X031940Y013129D02*
X026020Y013129D01*
X026020Y013010D02*
X031940Y013010D01*
X031940Y012892D02*
X026020Y012892D01*
X026020Y012773D02*
X031940Y012773D01*
X031940Y012655D02*
X026020Y012655D01*
X026020Y012536D02*
X031940Y012536D01*
X031940Y012418D02*
X026020Y012418D01*
X026020Y012299D02*
X031940Y012299D01*
X031940Y012181D02*
X026020Y012181D01*
X026020Y012062D02*
X031940Y012062D01*
X031940Y011944D02*
X026020Y011944D01*
X026020Y011825D02*
X031940Y011825D01*
X031940Y011707D02*
X026020Y011707D01*
X026020Y011588D02*
X031940Y011588D01*
X031940Y011470D02*
X026020Y011470D01*
X026020Y011351D02*
X031940Y011351D01*
X031940Y011233D02*
X026020Y011233D01*
X026020Y011114D02*
X031940Y011114D01*
X031940Y010996D02*
X026020Y010996D01*
X026020Y010877D02*
X031940Y010877D01*
X031940Y010759D02*
X026020Y010759D01*
X026020Y010640D02*
X031940Y010640D01*
X031940Y010522D02*
X026020Y010522D01*
X026020Y010403D02*
X031940Y010403D01*
X031940Y010285D02*
X026020Y010285D01*
X026020Y010166D02*
X031940Y010166D01*
X031940Y010048D02*
X026020Y010048D01*
X026020Y009929D02*
X031940Y009929D01*
X031940Y009811D02*
X026020Y009811D01*
X026020Y009692D02*
X031940Y009692D01*
X031940Y009574D02*
X026020Y009574D01*
X026020Y009455D02*
X031940Y009455D01*
X031940Y009337D02*
X026020Y009337D01*
X026020Y009218D02*
X031940Y009218D01*
X031940Y009100D02*
X026020Y009100D01*
X026020Y008981D02*
X031940Y008981D01*
X031940Y008863D02*
X026020Y008863D01*
X026020Y008744D02*
X031940Y008744D01*
X031940Y008626D02*
X026020Y008626D01*
X026020Y008507D02*
X031940Y008507D01*
X031940Y008389D02*
X026020Y008389D01*
X026020Y008270D02*
X031940Y008270D01*
X031940Y008152D02*
X026020Y008152D01*
X026020Y008033D02*
X031940Y008033D01*
X031940Y007915D02*
X026020Y007915D01*
X026020Y007796D02*
X031940Y007796D01*
X031940Y007678D02*
X026020Y007678D01*
X026020Y007559D02*
X031940Y007559D01*
X031940Y007441D02*
X026020Y007441D01*
X026020Y007322D02*
X031940Y007322D01*
X031940Y007204D02*
X026020Y007204D01*
X026020Y007085D02*
X031940Y007085D01*
X031940Y006967D02*
X026020Y006967D01*
X026106Y006848D02*
X031940Y006848D01*
X031940Y006730D02*
X026224Y006730D01*
X026343Y006611D02*
X031940Y006611D01*
X031940Y006493D02*
X026461Y006493D01*
X026580Y006374D02*
X031940Y006374D01*
X031940Y006256D02*
X026698Y006256D01*
X026817Y006137D02*
X031940Y006137D01*
X031940Y006019D02*
X026935Y006019D01*
X027054Y005900D02*
X031940Y005900D01*
X031940Y005782D02*
X027172Y005782D01*
X027291Y005663D02*
X031940Y005663D01*
X031940Y005545D02*
X027409Y005545D01*
X027528Y005426D02*
X031940Y005426D01*
X031940Y005308D02*
X027646Y005308D01*
X027765Y005189D02*
X031940Y005189D01*
X031940Y005071D02*
X027883Y005071D01*
X028002Y004952D02*
X031940Y004952D01*
X031940Y004834D02*
X028120Y004834D01*
X028239Y004715D02*
X031940Y004715D01*
X031940Y004597D02*
X028357Y004597D01*
X028476Y004478D02*
X031940Y004478D01*
X031940Y004360D02*
X028594Y004360D01*
X028713Y004241D02*
X028929Y004241D01*
X029271Y004241D02*
X031940Y004241D01*
X031940Y004123D02*
X029459Y004123D01*
X029551Y004004D02*
X031940Y004004D01*
X031940Y003886D02*
X029600Y003886D01*
X029610Y003767D02*
X031940Y003767D01*
X031940Y003649D02*
X029606Y003649D01*
X029557Y003530D02*
X031940Y003530D01*
X031940Y003412D02*
X030850Y003412D01*
X030757Y003450D02*
X030443Y003450D01*
X030153Y003330D01*
X029930Y003107D01*
X029810Y002817D01*
X029810Y002503D01*
X029930Y002213D01*
X030153Y001990D01*
X030443Y001870D01*
X030757Y001870D01*
X031047Y001990D01*
X031270Y002213D01*
X031390Y002503D01*
X031390Y002817D01*
X031270Y003107D01*
X031047Y003330D01*
X030757Y003450D01*
X031084Y003293D02*
X031940Y003293D01*
X031940Y003175D02*
X031203Y003175D01*
X031291Y003056D02*
X031940Y003056D01*
X031940Y002938D02*
X031340Y002938D01*
X031389Y002819D02*
X031940Y002819D01*
X031940Y002701D02*
X031390Y002701D01*
X031390Y002582D02*
X031940Y002582D01*
X031940Y002464D02*
X031374Y002464D01*
X031325Y002345D02*
X031940Y002345D01*
X031940Y002227D02*
X031275Y002227D01*
X031165Y002108D02*
X031936Y002108D01*
X031917Y001990D02*
X031045Y001990D01*
X030759Y001871D02*
X031878Y001871D01*
X031829Y001753D02*
X027441Y001753D01*
X027445Y001756D02*
X027504Y001815D01*
X027553Y001882D01*
X027591Y001957D01*
X027617Y002036D01*
X027630Y002118D01*
X027630Y002140D01*
X027120Y002140D01*
X027120Y002180D01*
X027630Y002180D01*
X027630Y002202D01*
X027617Y002284D01*
X027591Y002363D01*
X027553Y002438D01*
X027504Y002505D01*
X027445Y002564D01*
X027378Y002613D01*
X027303Y002651D01*
X027224Y002677D01*
X027142Y002690D01*
X027120Y002690D01*
X027120Y002180D01*
X027080Y002180D01*
X027080Y002690D01*
X027058Y002690D01*
X026976Y002677D01*
X026897Y002651D01*
X026822Y002613D01*
X026755Y002564D01*
X026696Y002505D01*
X026647Y002438D01*
X026609Y002363D01*
X026591Y002308D01*
X026532Y002449D01*
X026520Y002461D01*
X026520Y003459D01*
X026532Y003471D01*
X026610Y003659D01*
X026610Y003861D01*
X026532Y004049D01*
X026389Y004192D01*
X026201Y004270D01*
X025999Y004270D01*
X025811Y004192D01*
X025668Y004049D01*
X025590Y003861D01*
X025590Y003659D01*
X025668Y003471D01*
X025680Y003459D01*
X025680Y002461D01*
X025668Y002449D01*
X025590Y002261D01*
X025590Y002059D01*
X025668Y001871D01*
X025130Y001871D01*
X025130Y001753D02*
X025786Y001753D01*
X025811Y001728D02*
X025999Y001650D01*
X026201Y001650D01*
X026389Y001728D01*
X026532Y001871D01*
X026655Y001871D01*
X026647Y001882D02*
X026696Y001815D01*
X026755Y001756D01*
X026822Y001707D01*
X026897Y001669D01*
X026976Y001643D01*
X027058Y001630D01*
X027080Y001630D01*
X027080Y002140D01*
X027120Y002140D01*
X027120Y001630D01*
X027142Y001630D01*
X027224Y001643D01*
X027303Y001669D01*
X027378Y001707D01*
X027445Y001756D01*
X027545Y001871D02*
X030441Y001871D01*
X030155Y001990D02*
X027602Y001990D01*
X027628Y002108D02*
X030035Y002108D01*
X029925Y002227D02*
X027626Y002227D01*
X027597Y002345D02*
X029875Y002345D01*
X029826Y002464D02*
X027535Y002464D01*
X027421Y002582D02*
X029810Y002582D01*
X029810Y002701D02*
X026520Y002701D01*
X026520Y002819D02*
X029811Y002819D01*
X029860Y002938D02*
X026520Y002938D01*
X026520Y003056D02*
X029909Y003056D01*
X029997Y003175D02*
X026520Y003175D01*
X026520Y003293D02*
X028895Y003293D01*
X028355Y003412D02*
X026520Y003412D01*
X026557Y003530D02*
X028236Y003530D01*
X028118Y003649D02*
X026606Y003649D01*
X026610Y003767D02*
X027999Y003767D01*
X027881Y003886D02*
X026600Y003886D01*
X026551Y004004D02*
X027762Y004004D01*
X027644Y004123D02*
X026459Y004123D01*
X026271Y004241D02*
X027525Y004241D01*
X027407Y004360D02*
X023793Y004360D01*
X023912Y004478D02*
X027288Y004478D01*
X027170Y004597D02*
X024030Y004597D01*
X024149Y004715D02*
X027051Y004715D01*
X026933Y004834D02*
X024267Y004834D01*
X024386Y004952D02*
X026814Y004952D01*
X026696Y005071D02*
X024504Y005071D01*
X024623Y005189D02*
X026577Y005189D01*
X026459Y005308D02*
X024741Y005308D01*
X024860Y005426D02*
X026340Y005426D01*
X026222Y005545D02*
X024978Y005545D01*
X025097Y005663D02*
X026103Y005663D01*
X025985Y005782D02*
X025215Y005782D01*
X025334Y005900D02*
X025866Y005900D01*
X025748Y006019D02*
X025452Y006019D01*
X025571Y006137D02*
X025629Y006137D01*
X024976Y006730D02*
X020531Y006730D01*
X020543Y006699D02*
X020462Y006895D01*
X020312Y007046D01*
X020116Y007127D01*
X019116Y007127D01*
X018920Y007046D01*
X018770Y006895D01*
X018688Y006699D01*
X018688Y006487D01*
X018770Y006291D01*
X018920Y006141D01*
X019116Y006059D01*
X020116Y006059D01*
X020312Y006141D01*
X020462Y006291D01*
X020543Y006487D01*
X020543Y006699D01*
X020543Y006611D02*
X024857Y006611D01*
X024739Y006493D02*
X020543Y006493D01*
X020496Y006374D02*
X024620Y006374D01*
X024502Y006256D02*
X021907Y006256D01*
X021874Y006279D02*
X021797Y006319D01*
X021714Y006346D01*
X021628Y006359D01*
X021623Y006359D01*
X021623Y005450D01*
X022138Y005450D01*
X022138Y005849D01*
X022124Y005935D01*
X022097Y006018D01*
X022058Y006096D01*
X022007Y006166D01*
X021945Y006228D01*
X021874Y006279D01*
X022028Y006137D02*
X024383Y006137D01*
X024265Y006019D02*
X022097Y006019D01*
X022130Y005900D02*
X024146Y005900D01*
X024028Y005782D02*
X022138Y005782D01*
X022138Y005663D02*
X023909Y005663D01*
X023791Y005545D02*
X022138Y005545D01*
X022138Y005374D02*
X021623Y005374D01*
X021623Y005450D01*
X021546Y005450D01*
X021546Y005374D01*
X021031Y005374D01*
X021031Y004975D01*
X021044Y004889D01*
X021071Y004806D01*
X021111Y004728D01*
X021162Y004658D01*
X021224Y004596D01*
X021294Y004545D01*
X021372Y004505D01*
X021455Y004478D01*
X021541Y004465D01*
X021546Y004465D01*
X021546Y005374D01*
X021623Y005374D01*
X021623Y004465D01*
X021628Y004465D01*
X021714Y004478D01*
X021797Y004505D01*
X021874Y004545D01*
X021945Y004596D01*
X022007Y004658D01*
X022058Y004728D01*
X022097Y004806D01*
X022124Y004889D01*
X022138Y004975D01*
X022138Y005374D01*
X022138Y005308D02*
X023554Y005308D01*
X023672Y005426D02*
X021623Y005426D01*
X021546Y005426D02*
X012509Y005426D01*
X012558Y005308D02*
X021031Y005308D01*
X021031Y005189D02*
X012580Y005189D01*
X012580Y005071D02*
X021031Y005071D01*
X021034Y004952D02*
X012533Y004952D01*
X012452Y004834D02*
X021062Y004834D01*
X021120Y004715D02*
X012280Y004715D01*
X012100Y004597D02*
X018952Y004597D01*
X018932Y004586D02*
X018861Y004535D01*
X018800Y004473D01*
X018748Y004403D01*
X018709Y004325D01*
X018682Y004242D01*
X018668Y004156D01*
X018668Y004151D01*
X019577Y004151D01*
X019577Y004074D01*
X019654Y004074D01*
X019654Y003559D01*
X020053Y003559D01*
X020139Y003573D01*
X020222Y003600D01*
X020300Y003639D01*
X020370Y003690D01*
X020432Y003752D01*
X020483Y003823D01*
X020523Y003900D01*
X020550Y003983D01*
X020563Y004069D01*
X020563Y004074D01*
X019654Y004074D01*
X019654Y004151D01*
X020563Y004151D01*
X020563Y004156D01*
X020550Y004242D01*
X020523Y004325D01*
X020483Y004403D01*
X020432Y004473D01*
X020370Y004535D01*
X020300Y004586D01*
X020222Y004626D01*
X020139Y004653D01*
X020053Y004666D01*
X019654Y004666D01*
X019654Y004151D01*
X019577Y004151D01*
X019577Y004666D01*
X019178Y004666D01*
X019092Y004653D01*
X019009Y004626D01*
X018932Y004586D01*
X018804Y004478D02*
X012100Y004478D01*
X012100Y004360D02*
X018726Y004360D01*
X018682Y004241D02*
X012100Y004241D01*
X012100Y004123D02*
X019577Y004123D01*
X019577Y004074D02*
X018668Y004074D01*
X018668Y004069D01*
X018682Y003983D01*
X018709Y003900D01*
X018748Y003823D01*
X018800Y003752D01*
X018861Y003690D01*
X018932Y003639D01*
X019009Y003600D01*
X019092Y003573D01*
X019178Y003559D01*
X019577Y003559D01*
X019577Y004074D01*
X019577Y004004D02*
X019654Y004004D01*
X019654Y003886D02*
X019577Y003886D01*
X019577Y003767D02*
X019654Y003767D01*
X019654Y003649D02*
X019577Y003649D01*
X019654Y004123D02*
X022369Y004123D01*
X022487Y004241D02*
X020550Y004241D01*
X020505Y004360D02*
X022606Y004360D01*
X022724Y004478D02*
X021713Y004478D01*
X021623Y004478D02*
X021546Y004478D01*
X021456Y004478D02*
X020427Y004478D01*
X020280Y004597D02*
X021223Y004597D01*
X021546Y004597D02*
X021623Y004597D01*
X021623Y004715D02*
X021546Y004715D01*
X021546Y004834D02*
X021623Y004834D01*
X021623Y004952D02*
X021546Y004952D01*
X021546Y005071D02*
X021623Y005071D01*
X021623Y005189D02*
X021546Y005189D01*
X021546Y005308D02*
X021623Y005308D01*
X021546Y005450D02*
X021031Y005450D01*
X021031Y005849D01*
X021044Y005935D01*
X021071Y006018D01*
X021111Y006096D01*
X021162Y006166D01*
X021224Y006228D01*
X021294Y006279D01*
X021372Y006319D01*
X021455Y006346D01*
X021541Y006359D01*
X021546Y006359D01*
X021546Y005450D01*
X021546Y005545D02*
X021623Y005545D01*
X021623Y005663D02*
X021546Y005663D01*
X021546Y005782D02*
X021623Y005782D01*
X021623Y005900D02*
X021546Y005900D01*
X021546Y006019D02*
X021623Y006019D01*
X021623Y006137D02*
X021546Y006137D01*
X021546Y006256D02*
X021623Y006256D01*
X021261Y006256D02*
X020427Y006256D01*
X020303Y006137D02*
X021141Y006137D01*
X021071Y006019D02*
X015093Y006019D01*
X015110Y006137D02*
X018928Y006137D01*
X018805Y006256D02*
X015110Y006256D01*
X015063Y006374D02*
X018735Y006374D01*
X018688Y006493D02*
X014989Y006493D01*
X014844Y006611D02*
X018688Y006611D01*
X018701Y006730D02*
X013342Y006730D01*
X013223Y006848D02*
X018750Y006848D01*
X018841Y006967D02*
X013220Y006967D01*
X013220Y007085D02*
X019015Y007085D01*
X020216Y007085D02*
X025180Y007085D01*
X025180Y006967D02*
X020391Y006967D01*
X020482Y006848D02*
X025094Y006848D01*
X025180Y007204D02*
X013220Y007204D01*
X013220Y007322D02*
X025180Y007322D01*
X025180Y007441D02*
X013220Y007441D01*
X013220Y007559D02*
X025180Y007559D01*
X025180Y007678D02*
X013220Y007678D01*
X013220Y007796D02*
X013342Y007796D01*
X013223Y007915D02*
X013220Y007915D01*
X013580Y007915D02*
X013620Y007915D01*
X013620Y008033D02*
X013580Y008033D01*
X013620Y008140D02*
X013620Y007720D01*
X013782Y007720D01*
X014040Y007978D01*
X014040Y008140D01*
X013620Y008140D01*
X013620Y008152D02*
X014180Y008152D01*
X014180Y008270D02*
X014040Y008270D01*
X014040Y008342D02*
X013782Y008600D01*
X013620Y008600D01*
X013620Y008180D01*
X014040Y008180D01*
X014040Y008342D01*
X013994Y008389D02*
X014235Y008389D01*
X014180Y008334D02*
X014180Y007986D01*
X014426Y007740D01*
X014774Y007740D01*
X015020Y007986D01*
X015020Y008334D01*
X014774Y008580D01*
X014426Y008580D01*
X014180Y008334D01*
X014274Y008490D02*
X013926Y008490D01*
X013680Y008736D01*
X013680Y009084D01*
X013926Y009330D01*
X014274Y009330D01*
X014520Y009084D01*
X014520Y008736D01*
X014274Y008490D01*
X014291Y008507D02*
X014353Y008507D01*
X014409Y008626D02*
X019635Y008626D01*
X019635Y008744D02*
X014520Y008744D01*
X014520Y008863D02*
X019635Y008863D01*
X019635Y008981D02*
X014520Y008981D01*
X014504Y009100D02*
X019692Y009100D01*
X019717Y009125D02*
X019635Y009043D01*
X019635Y008277D01*
X019717Y008195D01*
X020483Y008195D01*
X020565Y008277D01*
X020565Y009043D01*
X020483Y009125D01*
X019717Y009125D01*
X019635Y008507D02*
X014847Y008507D01*
X014965Y008389D02*
X019635Y008389D01*
X019642Y008270D02*
X015020Y008270D01*
X015020Y008152D02*
X025180Y008152D01*
X025180Y008270D02*
X021388Y008270D01*
X021416Y008290D02*
X021470Y008344D01*
X021515Y008406D01*
X021549Y008474D01*
X021573Y008546D01*
X021585Y008622D01*
X021585Y008651D01*
X021109Y008651D01*
X021109Y008669D01*
X021585Y008669D01*
X021585Y008698D01*
X021573Y008774D01*
X021549Y008846D01*
X021515Y008914D01*
X021470Y008976D01*
X021416Y009030D01*
X021354Y009075D01*
X021286Y009109D01*
X021214Y009133D01*
X021138Y009145D01*
X021109Y009145D01*
X021109Y008669D01*
X021091Y008669D01*
X021091Y009145D01*
X021062Y009145D01*
X020986Y009133D01*
X020914Y009109D01*
X020846Y009075D01*
X020784Y009030D01*
X020730Y008976D01*
X020685Y008914D01*
X020651Y008846D01*
X020627Y008774D01*
X020615Y008698D01*
X020615Y008669D01*
X021091Y008669D01*
X021091Y008651D01*
X021109Y008651D01*
X021109Y008175D01*
X021138Y008175D01*
X021214Y008187D01*
X021286Y008211D01*
X021354Y008245D01*
X021416Y008290D01*
X021502Y008389D02*
X025180Y008389D01*
X025180Y008507D02*
X021560Y008507D01*
X021585Y008626D02*
X025180Y008626D01*
X025180Y008744D02*
X021578Y008744D01*
X021541Y008863D02*
X025180Y008863D01*
X025180Y008981D02*
X021465Y008981D01*
X021306Y009100D02*
X025180Y009100D01*
X025180Y009218D02*
X014386Y009218D01*
X013814Y009218D02*
X013269Y009218D01*
X013220Y009100D02*
X013696Y009100D01*
X013680Y008981D02*
X013220Y008981D01*
X013220Y008863D02*
X013680Y008863D01*
X013680Y008744D02*
X013220Y008744D01*
X013220Y008626D02*
X013791Y008626D01*
X013875Y008507D02*
X013909Y008507D01*
X013620Y008507D02*
X013580Y008507D01*
X013580Y008389D02*
X013620Y008389D01*
X013620Y008270D02*
X013580Y008270D01*
X013325Y008507D02*
X013220Y008507D01*
X012780Y008507D02*
X012300Y008507D01*
X012300Y008389D02*
X012780Y008389D01*
X012780Y008270D02*
X012300Y008270D01*
X012300Y008152D02*
X012780Y008152D01*
X012780Y008033D02*
X012300Y008033D01*
X012300Y007915D02*
X012780Y007915D01*
X012780Y007796D02*
X012300Y007796D01*
X012300Y007678D02*
X012780Y007678D01*
X012780Y007559D02*
X012300Y007559D01*
X012300Y007441D02*
X012780Y007441D01*
X012780Y007322D02*
X012300Y007322D01*
X012300Y007204D02*
X012780Y007204D01*
X012780Y007085D02*
X012300Y007085D01*
X012300Y006967D02*
X012780Y006967D01*
X012780Y006848D02*
X012300Y006848D01*
X012300Y006730D02*
X012780Y006730D01*
X012838Y006611D02*
X012300Y006611D01*
X012300Y006493D02*
X012956Y006493D01*
X013075Y006374D02*
X012289Y006374D01*
X012220Y006256D02*
X013090Y006256D01*
X013090Y006137D02*
X012101Y006137D01*
X012100Y006019D02*
X013107Y006019D01*
X013156Y005900D02*
X012100Y005900D01*
X012100Y005782D02*
X013257Y005782D01*
X013467Y005663D02*
X012100Y005663D01*
X012394Y005545D02*
X021031Y005545D01*
X021031Y005663D02*
X014733Y005663D01*
X014943Y005782D02*
X021031Y005782D01*
X021039Y005900D02*
X015044Y005900D01*
X014467Y005663D02*
X013733Y005663D01*
X013943Y005782D02*
X014257Y005782D01*
X014156Y005900D02*
X014044Y005900D01*
X014093Y006019D02*
X014107Y006019D01*
X014137Y006374D02*
X014063Y006374D01*
X013989Y006493D02*
X014211Y006493D01*
X014356Y006611D02*
X013844Y006611D01*
X013858Y007796D02*
X014370Y007796D01*
X014252Y007915D02*
X013977Y007915D01*
X014040Y008033D02*
X014180Y008033D01*
X013620Y007796D02*
X013580Y007796D01*
X012780Y008626D02*
X012300Y008626D01*
X012350Y008744D02*
X012780Y008744D01*
X012780Y008863D02*
X012481Y008863D01*
X012545Y008981D02*
X012780Y008981D01*
X012780Y009100D02*
X012580Y009100D01*
X012580Y009218D02*
X012780Y009218D01*
X012780Y009337D02*
X012546Y009337D01*
X012484Y009455D02*
X012884Y009455D01*
X013002Y009574D02*
X012356Y009574D01*
X012303Y009692D02*
X013121Y009692D01*
X013239Y009811D02*
X012472Y009811D01*
X012556Y009929D02*
X013358Y009929D01*
X013476Y010048D02*
X012605Y010048D01*
X012610Y010166D02*
X013595Y010166D01*
X013713Y010285D02*
X012600Y010285D01*
X013506Y009455D02*
X025180Y009455D01*
X025180Y009337D02*
X013388Y009337D01*
X014830Y007796D02*
X025180Y007796D01*
X025180Y007915D02*
X014948Y007915D01*
X015020Y008033D02*
X025180Y008033D01*
X023435Y005189D02*
X022138Y005189D01*
X022138Y005071D02*
X023317Y005071D01*
X023198Y004952D02*
X022134Y004952D01*
X022106Y004834D02*
X023080Y004834D01*
X022961Y004715D02*
X022048Y004715D01*
X021946Y004597D02*
X022843Y004597D01*
X022250Y004004D02*
X020553Y004004D01*
X020515Y003886D02*
X022132Y003886D01*
X022013Y003767D02*
X020443Y003767D01*
X020312Y003649D02*
X021895Y003649D01*
X021776Y003530D02*
X017416Y003530D01*
X017354Y003575D01*
X017286Y003609D01*
X017214Y003633D01*
X017138Y003645D01*
X017109Y003645D01*
X017109Y003169D01*
X017091Y003169D01*
X017091Y003645D01*
X017062Y003645D01*
X016986Y003633D01*
X016914Y003609D01*
X016846Y003575D01*
X016784Y003530D01*
X016730Y003476D01*
X016685Y003414D01*
X016651Y003346D01*
X016627Y003274D01*
X016615Y003198D01*
X016615Y003169D01*
X017091Y003169D01*
X017091Y003151D01*
X016615Y003151D01*
X016615Y003122D01*
X016627Y003046D01*
X016651Y002974D01*
X016685Y002906D01*
X016730Y002844D01*
X016784Y002790D01*
X016846Y002745D01*
X016914Y002711D01*
X016986Y002687D01*
X017062Y002675D01*
X017091Y002675D01*
X017091Y003151D01*
X017109Y003151D01*
X017109Y003169D01*
X017585Y003169D01*
X017585Y003198D01*
X017573Y003274D01*
X017549Y003346D01*
X017515Y003414D01*
X017470Y003476D01*
X017416Y003530D01*
X017516Y003412D02*
X021658Y003412D01*
X021539Y003293D02*
X017567Y003293D01*
X017585Y003175D02*
X021421Y003175D01*
X021302Y003056D02*
X017575Y003056D01*
X017573Y003046D02*
X017585Y003122D01*
X017585Y003151D01*
X017109Y003151D01*
X017109Y002675D01*
X017138Y002675D01*
X017214Y002687D01*
X017286Y002711D01*
X017354Y002745D01*
X017416Y002790D01*
X017470Y002844D01*
X017515Y002906D01*
X017549Y002974D01*
X017573Y003046D01*
X017531Y002938D02*
X021184Y002938D01*
X021065Y002819D02*
X017445Y002819D01*
X017255Y002701D02*
X020947Y002701D01*
X020828Y002582D02*
X017526Y002582D01*
X017109Y002701D02*
X017091Y002701D01*
X017091Y002819D02*
X017109Y002819D01*
X017109Y002938D02*
X017091Y002938D01*
X017091Y003056D02*
X017109Y003056D01*
X017109Y003175D02*
X017091Y003175D01*
X017091Y003293D02*
X017109Y003293D01*
X017109Y003412D02*
X017091Y003412D01*
X017091Y003530D02*
X017109Y003530D01*
X016784Y003530D02*
X014416Y003530D01*
X014354Y003575D01*
X014286Y003609D01*
X014214Y003633D01*
X014138Y003645D01*
X014109Y003645D01*
X014109Y003169D01*
X014091Y003169D01*
X014091Y003645D01*
X014062Y003645D01*
X013986Y003633D01*
X013914Y003609D01*
X013846Y003575D01*
X013784Y003530D01*
X013730Y003476D01*
X013685Y003414D01*
X013651Y003346D01*
X013627Y003274D01*
X013615Y003198D01*
X013615Y003169D01*
X014091Y003169D01*
X014091Y003151D01*
X013615Y003151D01*
X013615Y003122D01*
X013627Y003046D01*
X013651Y002974D01*
X013685Y002906D01*
X013730Y002844D01*
X013784Y002790D01*
X013846Y002745D01*
X013914Y002711D01*
X013986Y002687D01*
X014062Y002675D01*
X014091Y002675D01*
X014091Y003151D01*
X014109Y003151D01*
X014109Y003169D01*
X014585Y003169D01*
X014585Y003198D01*
X014573Y003274D01*
X014549Y003346D01*
X014515Y003414D01*
X014470Y003476D01*
X014416Y003530D01*
X014516Y003412D02*
X016684Y003412D01*
X016633Y003293D02*
X014567Y003293D01*
X014585Y003175D02*
X016615Y003175D01*
X016625Y003056D02*
X014575Y003056D01*
X014573Y003046D02*
X014585Y003122D01*
X014585Y003151D01*
X014109Y003151D01*
X014109Y002675D01*
X014138Y002675D01*
X014214Y002687D01*
X014286Y002711D01*
X014354Y002745D01*
X014416Y002790D01*
X014470Y002844D01*
X014515Y002906D01*
X014549Y002974D01*
X014573Y003046D01*
X014531Y002938D02*
X016669Y002938D01*
X016755Y002819D02*
X014445Y002819D01*
X014255Y002701D02*
X016945Y002701D01*
X016674Y002582D02*
X014526Y002582D01*
X014109Y002701D02*
X014091Y002701D01*
X014091Y002819D02*
X014109Y002819D01*
X014109Y002938D02*
X014091Y002938D01*
X014091Y003056D02*
X014109Y003056D01*
X014109Y003175D02*
X014091Y003175D01*
X014091Y003293D02*
X014109Y003293D01*
X014109Y003412D02*
X014091Y003412D01*
X014091Y003530D02*
X014109Y003530D01*
X013784Y003530D02*
X012100Y003530D01*
X012100Y003412D02*
X013684Y003412D01*
X013633Y003293D02*
X012100Y003293D01*
X012100Y003175D02*
X013615Y003175D01*
X013625Y003056D02*
X012100Y003056D01*
X012100Y002938D02*
X013669Y002938D01*
X013755Y002819D02*
X012100Y002819D01*
X012100Y002701D02*
X013945Y002701D01*
X013674Y002582D02*
X012100Y002582D01*
X012100Y002464D02*
X012610Y002464D01*
X012491Y002345D02*
X012100Y002345D01*
X012100Y002227D02*
X012373Y002227D01*
X012254Y002108D02*
X012100Y002108D01*
X012100Y001990D02*
X012136Y001990D01*
X012731Y001397D02*
X023272Y001397D01*
X023162Y001516D02*
X012849Y001516D01*
X012968Y001634D02*
X023113Y001634D01*
X023090Y001753D02*
X021114Y001753D01*
X021305Y001871D02*
X023090Y001871D01*
X023090Y001990D02*
X021423Y001990D01*
X021542Y002108D02*
X023090Y002108D01*
X023090Y002227D02*
X021660Y002227D01*
X021779Y002345D02*
X023090Y002345D01*
X023090Y002464D02*
X021897Y002464D01*
X022016Y002582D02*
X023090Y002582D01*
X023119Y002701D02*
X022134Y002701D01*
X022490Y003056D02*
X024533Y003056D01*
X024550Y003056D02*
X024650Y003056D01*
X024650Y003059D02*
X024650Y002210D01*
X025130Y002210D01*
X025130Y002572D01*
X025117Y002654D01*
X025091Y002733D01*
X025053Y002808D01*
X025004Y002875D01*
X024945Y002934D01*
X024878Y002983D01*
X024803Y003021D01*
X024724Y003047D01*
X024650Y003059D01*
X024667Y003056D02*
X025680Y003056D01*
X025680Y002938D02*
X024941Y002938D01*
X025045Y002819D02*
X025680Y002819D01*
X025680Y002701D02*
X025102Y002701D01*
X025128Y002582D02*
X025680Y002582D01*
X025680Y002464D02*
X025130Y002464D01*
X025130Y002345D02*
X025625Y002345D01*
X025590Y002227D02*
X025130Y002227D01*
X025130Y002108D02*
X025590Y002108D01*
X025619Y001990D02*
X025130Y001990D01*
X025107Y001634D02*
X027033Y001634D01*
X027080Y001634D02*
X027120Y001634D01*
X027167Y001634D02*
X031743Y001634D01*
X031624Y001516D02*
X025055Y001516D01*
X024957Y001397D02*
X031437Y001397D01*
X030350Y003412D02*
X029473Y003412D01*
X029305Y003293D02*
X030116Y003293D01*
X027120Y002582D02*
X027080Y002582D01*
X027080Y002464D02*
X027120Y002464D01*
X027120Y002345D02*
X027080Y002345D01*
X027080Y002227D02*
X027120Y002227D01*
X027120Y002108D02*
X027080Y002108D01*
X027080Y001990D02*
X027120Y001990D01*
X027120Y001871D02*
X027080Y001871D01*
X027080Y001753D02*
X027120Y001753D01*
X026759Y001753D02*
X026414Y001753D01*
X026532Y001871D02*
X026591Y002012D01*
X026609Y001957D01*
X026647Y001882D01*
X026598Y001990D02*
X026581Y001990D01*
X026575Y002345D02*
X026603Y002345D01*
X026665Y002464D02*
X026520Y002464D01*
X026520Y002582D02*
X026779Y002582D01*
X025680Y003175D02*
X022608Y003175D01*
X022727Y003293D02*
X025680Y003293D01*
X025680Y003412D02*
X022845Y003412D01*
X022964Y003530D02*
X025643Y003530D01*
X025594Y003649D02*
X023082Y003649D01*
X023201Y003767D02*
X025590Y003767D01*
X025600Y003886D02*
X023319Y003886D01*
X023438Y004004D02*
X025649Y004004D01*
X025741Y004123D02*
X023556Y004123D01*
X023675Y004241D02*
X025929Y004241D01*
X024650Y002938D02*
X024550Y002938D01*
X024550Y002819D02*
X024650Y002819D01*
X024650Y002701D02*
X024550Y002701D01*
X024550Y002582D02*
X024650Y002582D01*
X024650Y002464D02*
X024550Y002464D01*
X024550Y002345D02*
X024650Y002345D01*
X024650Y002227D02*
X024550Y002227D01*
X024098Y002701D02*
X024081Y002701D01*
X023914Y002938D02*
X024259Y002938D01*
X025668Y001871D02*
X025811Y001728D01*
X019654Y004241D02*
X019577Y004241D01*
X019577Y004360D02*
X019654Y004360D01*
X019654Y004478D02*
X019577Y004478D01*
X019577Y004597D02*
X019654Y004597D01*
X018679Y004004D02*
X012100Y004004D01*
X012100Y003886D02*
X018716Y003886D01*
X018789Y003767D02*
X012100Y003767D01*
X012100Y003649D02*
X018919Y003649D01*
X020558Y008270D02*
X020812Y008270D01*
X020784Y008290D02*
X020846Y008245D01*
X020914Y008211D01*
X020986Y008187D01*
X021062Y008175D01*
X021091Y008175D01*
X021091Y008651D01*
X020615Y008651D01*
X020615Y008622D01*
X020627Y008546D01*
X020651Y008474D01*
X020685Y008406D01*
X020730Y008344D01*
X020784Y008290D01*
X020698Y008389D02*
X020565Y008389D01*
X020565Y008507D02*
X020640Y008507D01*
X020615Y008626D02*
X020565Y008626D01*
X020565Y008744D02*
X020622Y008744D01*
X020659Y008863D02*
X020565Y008863D01*
X020565Y008981D02*
X020735Y008981D01*
X020894Y009100D02*
X020508Y009100D01*
X021091Y009100D02*
X021109Y009100D01*
X021109Y008981D02*
X021091Y008981D01*
X021091Y008863D02*
X021109Y008863D01*
X021109Y008744D02*
X021091Y008744D01*
X021091Y008626D02*
X021109Y008626D01*
X021109Y008507D02*
X021091Y008507D01*
X021091Y008389D02*
X021109Y008389D01*
X021109Y008270D02*
X021091Y008270D01*
X025634Y014788D02*
X014821Y014788D01*
X014940Y014906D02*
X025752Y014906D01*
X025871Y015025D02*
X015020Y015025D01*
X015020Y015143D02*
X025989Y015143D01*
X026108Y015262D02*
X015020Y015262D01*
X014974Y015380D02*
X026226Y015380D01*
X026345Y015499D02*
X014855Y015499D01*
X014519Y015736D02*
X026582Y015736D01*
X026700Y015854D02*
X014520Y015854D01*
X014520Y015973D02*
X026819Y015973D01*
X026937Y016091D02*
X014513Y016091D01*
X014394Y016210D02*
X027056Y016210D01*
X027174Y016328D02*
X014276Y016328D01*
X014755Y016684D02*
X013735Y016684D01*
X013853Y016802D02*
X014655Y016802D01*
X014962Y016565D02*
X013616Y016565D01*
X013884Y015499D02*
X013918Y015499D01*
X014002Y015380D02*
X014226Y015380D01*
X014180Y015262D02*
X014040Y015262D01*
X014282Y015499D02*
X014345Y015499D01*
X014401Y015617D02*
X026463Y015617D01*
X023289Y017750D02*
X022911Y017750D01*
X022289Y017750D02*
X015437Y017750D01*
X015543Y017869D02*
X022170Y017869D01*
X022120Y017987D02*
X015601Y017987D01*
X015628Y018106D02*
X022090Y018106D01*
X022090Y018224D02*
X015626Y018224D01*
X015598Y018343D02*
X022124Y018343D01*
X022180Y018461D02*
X015536Y018461D01*
X015424Y018580D02*
X022298Y018580D01*
X022383Y018698D02*
X012239Y018698D01*
X012435Y018817D02*
X022222Y018817D01*
X022141Y018935D02*
X012526Y018935D01*
X012575Y019054D02*
X022092Y019054D01*
X022090Y019172D02*
X012580Y019172D01*
X012565Y019291D02*
X022102Y019291D01*
X022151Y019409D02*
X012516Y019409D01*
X012411Y019528D02*
X022246Y019528D01*
X023560Y020713D02*
X023640Y020713D01*
X023640Y020831D02*
X023560Y020831D01*
X023560Y020950D02*
X023640Y020950D01*
X023640Y021068D02*
X023560Y021068D01*
X023560Y021305D02*
X023640Y021305D01*
X023640Y021424D02*
X023560Y021424D01*
X023560Y021542D02*
X023640Y021542D01*
X023775Y021661D02*
X029473Y021661D01*
X029135Y020950D02*
X024088Y020950D01*
X024016Y020831D02*
X029208Y020831D01*
X029348Y020713D02*
X023886Y020713D01*
X023885Y020594D02*
X029315Y020594D01*
X029194Y020476D02*
X024006Y020476D01*
X024070Y020357D02*
X029130Y020357D01*
X029090Y020239D02*
X024110Y020239D01*
X024110Y020120D02*
X029090Y020120D01*
X029114Y020002D02*
X024086Y020002D01*
X024037Y019883D02*
X029163Y019883D01*
X029274Y019765D02*
X023926Y019765D01*
X023759Y019646D02*
X029386Y019646D01*
X029560Y019646D02*
X029640Y019646D01*
X029640Y019528D02*
X029560Y019528D01*
X029560Y019409D02*
X029640Y019409D01*
X029640Y019291D02*
X029560Y019291D01*
X029560Y019054D02*
X029640Y019054D01*
X029640Y018935D02*
X029560Y018935D01*
X029560Y018817D02*
X029640Y018817D01*
X029640Y018698D02*
X029560Y018698D01*
X029132Y019409D02*
X024049Y019409D01*
X023954Y019528D02*
X029218Y019528D01*
X030560Y019528D02*
X030640Y019528D01*
X030640Y019646D02*
X030560Y019646D01*
X030560Y019409D02*
X030640Y019409D01*
X030640Y019291D02*
X030560Y019291D01*
X030560Y019054D02*
X030640Y019054D01*
X030640Y018935D02*
X030560Y018935D01*
X030560Y018817D02*
X030640Y018817D01*
X030640Y018698D02*
X030560Y018698D01*
X031115Y019291D02*
X031940Y019291D01*
X031940Y019409D02*
X031068Y019409D01*
X030982Y019528D02*
X031940Y019528D01*
X031940Y019646D02*
X030814Y019646D01*
X030926Y019765D02*
X031940Y019765D01*
X031940Y019883D02*
X031037Y019883D01*
X031086Y020002D02*
X031940Y020002D01*
X031940Y020120D02*
X031110Y020120D01*
X031110Y020239D02*
X031940Y020239D01*
X031940Y020357D02*
X031070Y020357D01*
X031006Y020476D02*
X031940Y020476D01*
X031940Y020594D02*
X030885Y020594D01*
X030852Y020713D02*
X031940Y020713D01*
X031940Y020831D02*
X030992Y020831D01*
X031065Y020950D02*
X031940Y020950D01*
X031940Y021068D02*
X031110Y021068D01*
X031110Y021187D02*
X031940Y021187D01*
X031940Y021305D02*
X031092Y021305D01*
X031043Y021424D02*
X031940Y021424D01*
X031940Y021542D02*
X030939Y021542D01*
X030940Y021779D02*
X031940Y021779D01*
X031940Y021661D02*
X030727Y021661D01*
X031043Y021898D02*
X031940Y021898D01*
X031940Y022016D02*
X031092Y022016D01*
X031110Y022135D02*
X031940Y022135D01*
X031940Y022253D02*
X031110Y022253D01*
X031064Y022372D02*
X031940Y022372D01*
X031940Y022490D02*
X030991Y022490D01*
X030850Y022609D02*
X031940Y022609D01*
X031940Y022727D02*
X030887Y022727D01*
X031007Y022846D02*
X031940Y022846D01*
X031940Y022964D02*
X031071Y022964D01*
X031110Y023083D02*
X031940Y023083D01*
X031940Y023201D02*
X031110Y023201D01*
X031086Y023320D02*
X031940Y023320D01*
X031940Y023438D02*
X031037Y023438D01*
X030925Y023557D02*
X031940Y023557D01*
X031940Y023675D02*
X030762Y023675D01*
X030955Y023794D02*
X031940Y023794D01*
X031940Y023912D02*
X031049Y023912D01*
X031098Y024031D02*
X031940Y024031D01*
X031940Y024149D02*
X031110Y024149D01*
X031107Y024268D02*
X031940Y024268D01*
X031940Y024386D02*
X031058Y024386D01*
X030977Y024505D02*
X031940Y024505D01*
X031940Y024623D02*
X030815Y024623D01*
X030903Y024742D02*
X031940Y024742D01*
X031940Y024860D02*
X031021Y024860D01*
X031077Y024979D02*
X031940Y024979D01*
X031940Y025097D02*
X031110Y025097D01*
X031110Y025216D02*
X031940Y025216D01*
X031940Y025334D02*
X031080Y025334D01*
X031029Y025453D02*
X031940Y025453D01*
X031940Y025571D02*
X030910Y025571D01*
X030797Y025690D02*
X031940Y025690D01*
X031940Y025808D02*
X030969Y025808D01*
X031055Y025927D02*
X031940Y025927D01*
X031940Y026045D02*
X031104Y026045D01*
X031110Y026164D02*
X031940Y026164D01*
X031940Y026282D02*
X031101Y026282D01*
X031052Y026401D02*
X031940Y026401D01*
X031940Y026519D02*
X030962Y026519D01*
X030780Y026638D02*
X031940Y026638D01*
X031940Y026756D02*
X030917Y026756D01*
X031034Y026875D02*
X031940Y026875D01*
X031940Y026993D02*
X031083Y026993D01*
X031110Y027112D02*
X031940Y027112D01*
X029385Y024623D02*
X027230Y024623D01*
X027256Y024505D02*
X029223Y024505D01*
X029142Y024386D02*
X027798Y024386D01*
X027849Y024268D02*
X029093Y024268D01*
X029090Y024149D02*
X027795Y024149D01*
X027722Y024031D02*
X029102Y024031D01*
X029151Y023912D02*
X027648Y023912D01*
X028031Y023794D02*
X029245Y023794D01*
X029438Y023675D02*
X028111Y023675D01*
X028066Y023557D02*
X029275Y023557D01*
X029163Y023438D02*
X027633Y023438D01*
X027708Y023320D02*
X029114Y023320D01*
X029090Y023201D02*
X027783Y023201D01*
X027858Y023083D02*
X029090Y023083D01*
X029129Y022964D02*
X027854Y022964D01*
X027557Y022964D02*
X027291Y022964D01*
X027317Y023083D02*
X027378Y023083D01*
X027264Y022846D02*
X029193Y022846D01*
X027601Y024386D02*
X027282Y024386D01*
X027308Y024268D02*
X027430Y024268D01*
X026918Y024386D02*
X026582Y024386D01*
X026752Y024268D02*
X026892Y024268D01*
X022385Y024623D02*
X015315Y024623D01*
X015426Y024742D02*
X022297Y024742D01*
X022179Y024860D02*
X015537Y024860D01*
X015598Y024979D02*
X022123Y024979D01*
X022090Y025097D02*
X015627Y025097D01*
X015630Y025189D02*
X015630Y025202D01*
X015617Y025284D01*
X015591Y025363D01*
X015553Y025438D01*
X015504Y025505D01*
X015445Y025564D01*
X015378Y025613D01*
X015303Y025651D01*
X015224Y025677D01*
X015142Y025690D01*
X015129Y025690D01*
X015129Y025189D01*
X015630Y025189D01*
X015628Y025216D02*
X022090Y025216D01*
X022120Y025334D02*
X015601Y025334D01*
X015543Y025453D02*
X022171Y025453D01*
X022290Y025571D02*
X015436Y025571D01*
X015129Y025571D02*
X015071Y025571D01*
X015071Y025453D02*
X015129Y025453D01*
X015129Y025334D02*
X015071Y025334D01*
X015071Y025216D02*
X015129Y025216D01*
X015129Y025690D02*
X015071Y025690D01*
X015055Y025690D02*
X012219Y025690D01*
X012410Y025571D02*
X014764Y025571D01*
X014657Y025453D02*
X012529Y025453D01*
X012580Y025334D02*
X014599Y025334D01*
X014572Y025216D02*
X012610Y025216D01*
X012610Y025097D02*
X014573Y025097D01*
X014602Y024979D02*
X012577Y024979D01*
X012521Y024860D02*
X014663Y024860D01*
X014774Y024742D02*
X012403Y024742D01*
X012315Y024623D02*
X014885Y024623D01*
X014723Y024505D02*
X012477Y024505D01*
X012558Y024386D02*
X014642Y024386D01*
X015477Y024505D02*
X022223Y024505D01*
X022142Y024386D02*
X015558Y024386D01*
X015607Y024268D02*
X022093Y024268D01*
X022090Y024149D02*
X015610Y024149D01*
X015598Y024031D02*
X022102Y024031D01*
X022151Y023912D02*
X015549Y023912D01*
X015455Y023794D02*
X022245Y023794D01*
X022403Y025690D02*
X021797Y025690D01*
X021969Y025808D02*
X022231Y025808D01*
X021403Y025690D02*
X018797Y025690D01*
X018889Y025728D02*
X019032Y025871D01*
X019110Y026059D01*
X019110Y026261D01*
X019032Y026449D01*
X018889Y026592D01*
X018726Y026660D01*
X018889Y026728D01*
X019032Y026871D01*
X019110Y027059D01*
X019110Y027261D01*
X019032Y027449D01*
X018889Y027592D01*
X018726Y027660D01*
X018889Y027728D01*
X019032Y027871D01*
X019110Y028059D01*
X019110Y028261D01*
X019032Y028449D01*
X018889Y028592D01*
X018726Y028660D01*
X018889Y028728D01*
X019032Y028871D01*
X019110Y029059D01*
X019110Y029261D01*
X019032Y029449D01*
X018889Y029592D01*
X018701Y029670D01*
X018499Y029670D01*
X018311Y029592D01*
X018168Y029449D01*
X018090Y029261D01*
X018090Y029059D01*
X018168Y028871D01*
X018311Y028728D01*
X018474Y028660D01*
X018311Y028592D01*
X018168Y028449D01*
X018090Y028261D01*
X018090Y028059D01*
X018168Y027871D01*
X018311Y027728D01*
X018474Y027660D01*
X018311Y027592D01*
X018168Y027449D01*
X018090Y027261D01*
X018090Y027059D01*
X018168Y026871D01*
X018311Y026728D01*
X018474Y026660D01*
X018311Y026592D01*
X018168Y026449D01*
X018090Y026261D01*
X018090Y026059D01*
X018168Y025871D01*
X018311Y025728D01*
X018499Y025650D01*
X018701Y025650D01*
X018889Y025728D01*
X018969Y025808D02*
X021231Y025808D01*
X021145Y025927D02*
X019055Y025927D01*
X019104Y026045D02*
X021096Y026045D01*
X021090Y026164D02*
X019110Y026164D01*
X019101Y026282D02*
X021099Y026282D01*
X021148Y026401D02*
X019052Y026401D01*
X018962Y026519D02*
X021238Y026519D01*
X021420Y026638D02*
X018780Y026638D01*
X018917Y026756D02*
X021283Y026756D01*
X021166Y026875D02*
X019034Y026875D01*
X019083Y026993D02*
X021117Y026993D01*
X021090Y027112D02*
X019110Y027112D01*
X019110Y027230D02*
X021090Y027230D01*
X021126Y027349D02*
X019074Y027349D01*
X019014Y027467D02*
X021186Y027467D01*
X021304Y027586D02*
X018896Y027586D01*
X018832Y027704D02*
X021368Y027704D01*
X021216Y027823D02*
X018984Y027823D01*
X019061Y027941D02*
X021139Y027941D01*
X021090Y028060D02*
X019110Y028060D01*
X019110Y028178D02*
X021090Y028178D01*
X021105Y028297D02*
X019095Y028297D01*
X019046Y028415D02*
X021154Y028415D01*
X021252Y028534D02*
X018948Y028534D01*
X018745Y028652D02*
X021455Y028652D01*
X021268Y028771D02*
X018932Y028771D01*
X019040Y028889D02*
X021160Y028889D01*
X021111Y029008D02*
X019089Y029008D01*
X019110Y029126D02*
X021090Y029126D01*
X021090Y029245D02*
X019110Y029245D01*
X019068Y029363D02*
X021132Y029363D01*
X021200Y029482D02*
X019000Y029482D01*
X018870Y029600D02*
X021330Y029600D01*
X021870Y029600D02*
X022100Y029600D01*
X022100Y029482D02*
X022000Y029482D01*
X022100Y029719D02*
X014503Y029719D01*
X014520Y029736D02*
X014274Y029490D01*
X013926Y029490D01*
X013680Y029736D01*
X013680Y030084D01*
X013926Y030330D01*
X014274Y030330D01*
X014520Y030084D01*
X014520Y029736D01*
X014520Y029837D02*
X022100Y029837D01*
X022100Y029956D02*
X014520Y029956D01*
X014520Y030074D02*
X022100Y030074D01*
X022100Y030193D02*
X014411Y030193D01*
X014293Y030311D02*
X022100Y030311D01*
X022100Y030430D02*
X013181Y030430D01*
X013120Y030369D02*
X013691Y030940D01*
X014639Y030940D01*
X014668Y030871D01*
X014811Y030728D01*
X014999Y030650D01*
X015201Y030650D01*
X015389Y030728D01*
X015532Y030871D01*
X015610Y031059D01*
X015610Y031261D01*
X015532Y031449D01*
X015389Y031592D01*
X015248Y031651D01*
X015303Y031669D01*
X015378Y031707D01*
X015445Y031756D01*
X015504Y031815D01*
X015553Y031882D01*
X015591Y031957D01*
X015617Y032036D01*
X015630Y032118D01*
X015630Y032131D01*
X015129Y032131D01*
X015129Y032189D01*
X015071Y032189D01*
X015071Y032690D01*
X015058Y032690D01*
X014976Y032677D01*
X014897Y032651D01*
X014822Y032613D01*
X014755Y032564D01*
X014696Y032505D01*
X014647Y032438D01*
X014609Y032363D01*
X014583Y032284D01*
X014570Y032202D01*
X014570Y032189D01*
X015071Y032189D01*
X015071Y032131D01*
X014570Y032131D01*
X014570Y032118D01*
X014583Y032036D01*
X014609Y031957D01*
X014647Y031882D01*
X014696Y031815D01*
X014755Y031756D01*
X014822Y031707D01*
X014897Y031669D01*
X014952Y031651D01*
X014811Y031592D01*
X014668Y031449D01*
X014639Y031380D01*
X013509Y031380D01*
X012809Y030680D01*
X012680Y030551D01*
X012680Y027769D01*
X013119Y027330D01*
X013090Y027261D01*
X013090Y027059D01*
X013168Y026871D01*
X013311Y026728D01*
X013499Y026650D01*
X013701Y026650D01*
X013889Y026728D01*
X014032Y026871D01*
X014100Y027034D01*
X014168Y026871D01*
X014311Y026728D01*
X014499Y026650D01*
X014701Y026650D01*
X014889Y026728D01*
X015032Y026871D01*
X015110Y027059D01*
X015110Y027261D01*
X015032Y027449D01*
X014889Y027592D01*
X014701Y027670D01*
X014499Y027670D01*
X014311Y027592D01*
X014168Y027449D01*
X014100Y027286D01*
X014032Y027449D01*
X013889Y027592D01*
X013701Y027670D01*
X013499Y027670D01*
X013430Y027641D01*
X013120Y027951D01*
X013120Y030369D01*
X013120Y030311D02*
X013907Y030311D01*
X013789Y030193D02*
X013120Y030193D01*
X013120Y030074D02*
X013680Y030074D01*
X013680Y029956D02*
X013120Y029956D01*
X013120Y029837D02*
X013680Y029837D01*
X013697Y029719D02*
X013120Y029719D01*
X013120Y029600D02*
X013816Y029600D01*
X013782Y029600D02*
X013620Y029600D01*
X013620Y029180D01*
X014040Y029180D01*
X014040Y029342D01*
X013782Y029600D01*
X013901Y029482D02*
X014328Y029482D01*
X014384Y029600D02*
X018330Y029600D01*
X018200Y029482D02*
X014872Y029482D01*
X014774Y029580D02*
X014426Y029580D01*
X014180Y029334D01*
X014180Y028986D01*
X014426Y028740D01*
X014774Y028740D01*
X015020Y028986D01*
X015020Y029334D01*
X014774Y029580D01*
X014991Y029363D02*
X018132Y029363D01*
X018090Y029245D02*
X015020Y029245D01*
X015020Y029126D02*
X018090Y029126D01*
X018111Y029008D02*
X015020Y029008D01*
X014923Y028889D02*
X018160Y028889D01*
X018268Y028771D02*
X014805Y028771D01*
X014395Y028771D02*
X013833Y028771D01*
X013782Y028720D02*
X014040Y028978D01*
X014040Y029140D01*
X013620Y029140D01*
X013620Y029180D01*
X013580Y029180D01*
X013580Y029600D01*
X013418Y029600D01*
X013160Y029342D01*
X013160Y029180D01*
X013580Y029180D01*
X013580Y029140D01*
X013620Y029140D01*
X013620Y028720D01*
X013782Y028720D01*
X013620Y028771D02*
X013580Y028771D01*
X013580Y028720D02*
X013580Y029140D01*
X013160Y029140D01*
X013160Y028978D01*
X013418Y028720D01*
X013580Y028720D01*
X013580Y028889D02*
X013620Y028889D01*
X013620Y029008D02*
X013580Y029008D01*
X013580Y029126D02*
X013620Y029126D01*
X013620Y029245D02*
X013580Y029245D01*
X013580Y029363D02*
X013620Y029363D01*
X013620Y029482D02*
X013580Y029482D01*
X013299Y029482D02*
X013120Y029482D01*
X013120Y029363D02*
X013181Y029363D01*
X013160Y029245D02*
X013120Y029245D01*
X013120Y029126D02*
X013160Y029126D01*
X013160Y029008D02*
X013120Y029008D01*
X013120Y028889D02*
X013249Y028889D01*
X013367Y028771D02*
X013120Y028771D01*
X013120Y028652D02*
X018455Y028652D01*
X018252Y028534D02*
X013120Y028534D01*
X013120Y028415D02*
X018154Y028415D01*
X018105Y028297D02*
X013120Y028297D01*
X013120Y028178D02*
X018090Y028178D01*
X018090Y028060D02*
X013120Y028060D01*
X013130Y027941D02*
X018139Y027941D01*
X018216Y027823D02*
X013249Y027823D01*
X013367Y027704D02*
X018368Y027704D01*
X018304Y027586D02*
X014896Y027586D01*
X015014Y027467D02*
X018186Y027467D01*
X018126Y027349D02*
X015074Y027349D01*
X015110Y027230D02*
X018090Y027230D01*
X018090Y027112D02*
X015110Y027112D01*
X015083Y026993D02*
X018117Y026993D01*
X018166Y026875D02*
X015034Y026875D01*
X014917Y026756D02*
X018283Y026756D01*
X018420Y026638D02*
X012201Y026638D01*
X012100Y026756D02*
X013283Y026756D01*
X013166Y026875D02*
X012100Y026875D01*
X012100Y026993D02*
X013117Y026993D01*
X013090Y027112D02*
X012100Y027112D01*
X012194Y027230D02*
X013090Y027230D01*
X013100Y027349D02*
X012313Y027349D01*
X012386Y027467D02*
X012982Y027467D01*
X012863Y027586D02*
X012400Y027586D01*
X012400Y027704D02*
X012745Y027704D01*
X012680Y027823D02*
X012400Y027823D01*
X012400Y027941D02*
X012680Y027941D01*
X012680Y028060D02*
X012400Y028060D01*
X012400Y028178D02*
X012680Y028178D01*
X012680Y028297D02*
X012400Y028297D01*
X012400Y028415D02*
X012680Y028415D01*
X012680Y028534D02*
X012400Y028534D01*
X012400Y028652D02*
X012680Y028652D01*
X012680Y028771D02*
X012400Y028771D01*
X012400Y028889D02*
X012680Y028889D01*
X012680Y029008D02*
X012400Y029008D01*
X012400Y029126D02*
X012680Y029126D01*
X012680Y029245D02*
X012400Y029245D01*
X012400Y029363D02*
X012680Y029363D01*
X012680Y029482D02*
X012400Y029482D01*
X012400Y029600D02*
X012680Y029600D01*
X012680Y029719D02*
X012400Y029719D01*
X012456Y029837D02*
X012680Y029837D01*
X012680Y029956D02*
X012535Y029956D01*
X012580Y030074D02*
X012680Y030074D01*
X012680Y030193D02*
X012580Y030193D01*
X012557Y030311D02*
X012680Y030311D01*
X012680Y030430D02*
X012508Y030430D01*
X012391Y030548D02*
X012680Y030548D01*
X012795Y030667D02*
X012241Y030667D01*
X012446Y030785D02*
X012914Y030785D01*
X013032Y030904D02*
X012546Y030904D01*
X012595Y031022D02*
X013151Y031022D01*
X013269Y031141D02*
X012610Y031141D01*
X012610Y031259D02*
X013388Y031259D01*
X013506Y031378D02*
X012562Y031378D01*
X012485Y031496D02*
X014715Y031496D01*
X014865Y031615D02*
X012335Y031615D01*
X012394Y031733D02*
X014786Y031733D01*
X014669Y031852D02*
X012513Y031852D01*
X012573Y031970D02*
X014604Y031970D01*
X014575Y032089D02*
X012610Y032089D01*
X012610Y032207D02*
X014571Y032207D01*
X014597Y032326D02*
X012583Y032326D01*
X012534Y032444D02*
X014651Y032444D01*
X014753Y032563D02*
X012419Y032563D01*
X012100Y032681D02*
X015002Y032681D01*
X015071Y032681D02*
X015129Y032681D01*
X015129Y032690D02*
X015129Y032189D01*
X015630Y032189D01*
X015630Y032202D01*
X015617Y032284D01*
X015591Y032363D01*
X015553Y032438D01*
X015504Y032505D01*
X015445Y032564D01*
X015378Y032613D01*
X015303Y032651D01*
X015224Y032677D01*
X015142Y032690D01*
X015129Y032690D01*
X015198Y032681D02*
X022100Y032681D01*
X022100Y032563D02*
X015447Y032563D01*
X015549Y032444D02*
X022100Y032444D01*
X022100Y032326D02*
X015603Y032326D01*
X015629Y032207D02*
X022100Y032207D01*
X022100Y032089D02*
X015625Y032089D01*
X015596Y031970D02*
X022100Y031970D01*
X022100Y031852D02*
X015531Y031852D01*
X015414Y031733D02*
X022100Y031733D01*
X022100Y031615D02*
X015335Y031615D01*
X015485Y031496D02*
X022100Y031496D01*
X022100Y031378D02*
X015562Y031378D01*
X015610Y031259D02*
X022100Y031259D01*
X022100Y031141D02*
X015610Y031141D01*
X015595Y031022D02*
X022100Y031022D01*
X022100Y030904D02*
X015546Y030904D01*
X015446Y030785D02*
X022100Y030785D01*
X022100Y030667D02*
X015241Y030667D01*
X014959Y030667D02*
X013418Y030667D01*
X013536Y030785D02*
X014754Y030785D01*
X014654Y030904D02*
X013655Y030904D01*
X013299Y030548D02*
X022100Y030548D01*
X022100Y032800D02*
X012100Y032800D01*
X012100Y032918D02*
X022100Y032918D01*
X022100Y033037D02*
X012100Y033037D01*
X012100Y033155D02*
X022100Y033155D01*
X022100Y033274D02*
X012100Y033274D01*
X012100Y033392D02*
X022100Y033392D01*
X022100Y033511D02*
X012100Y033511D01*
X012100Y033629D02*
X022100Y033629D01*
X022100Y033748D02*
X012100Y033748D01*
X012100Y033866D02*
X022100Y033866D01*
X022100Y033985D02*
X012100Y033985D01*
X015071Y032563D02*
X015129Y032563D01*
X015129Y032444D02*
X015071Y032444D01*
X015071Y032326D02*
X015129Y032326D01*
X015129Y032207D02*
X015071Y032207D01*
X014209Y029363D02*
X014019Y029363D01*
X014040Y029245D02*
X014180Y029245D01*
X014180Y029126D02*
X014040Y029126D01*
X014040Y029008D02*
X014180Y029008D01*
X014277Y028889D02*
X013951Y028889D01*
X013896Y027586D02*
X014304Y027586D01*
X014186Y027467D02*
X014014Y027467D01*
X014074Y027349D02*
X014126Y027349D01*
X014117Y026993D02*
X014083Y026993D01*
X014034Y026875D02*
X014166Y026875D01*
X014283Y026756D02*
X013917Y026756D01*
X012569Y026282D02*
X018099Y026282D01*
X018090Y026164D02*
X012580Y026164D01*
X012572Y026045D02*
X018096Y026045D01*
X018145Y025927D02*
X012523Y025927D01*
X012427Y025808D02*
X018231Y025808D01*
X018403Y025690D02*
X015145Y025690D01*
X012520Y026401D02*
X018148Y026401D01*
X018238Y026519D02*
X012420Y026519D01*
X015071Y018580D02*
X015129Y018580D01*
X015129Y018461D02*
X015071Y018461D01*
X015071Y018343D02*
X015129Y018343D01*
X015129Y018224D02*
X015071Y018224D01*
X015071Y018106D02*
X015129Y018106D01*
X015129Y017987D02*
X015071Y017987D01*
X015071Y017869D02*
X015129Y017869D01*
X015129Y017750D02*
X015071Y017750D01*
X015071Y017632D02*
X015129Y017632D01*
X014336Y013603D02*
X013864Y013603D01*
X013997Y013484D02*
X014203Y013484D01*
X014133Y013366D02*
X014067Y013366D01*
X014090Y013010D02*
X014110Y013010D01*
X014159Y012892D02*
X014041Y012892D01*
X013934Y012773D02*
X014266Y012773D01*
X014488Y012655D02*
X013712Y012655D01*
X029911Y017750D02*
X030289Y017750D01*
D25*
X029600Y018160D02*
X025600Y014160D01*
X025600Y006760D01*
X028600Y003760D01*
X029100Y003760D01*
X026100Y003760D02*
X026100Y002160D01*
X025600Y006760D02*
X021000Y002160D01*
X017100Y002160D01*
X014100Y002160D01*
X012900Y002160D01*
X012300Y001560D01*
X010400Y001560D01*
X010100Y001860D01*
X010100Y002660D01*
X011100Y002660D02*
X011600Y002660D01*
X012100Y003160D01*
X014100Y003160D01*
D26*
X011300Y004260D02*
X011300Y005760D01*
X012000Y006460D01*
X012000Y009060D01*
X012100Y009160D01*
X011300Y009960D01*
X011300Y012860D01*
X012100Y013660D01*
X012100Y016160D01*
X011200Y017060D01*
X011200Y019760D01*
X012100Y020660D01*
X012100Y023160D01*
X011200Y024060D01*
X011200Y026660D01*
X012100Y027560D01*
X012100Y030160D01*
X021600Y029160D02*
X022600Y029160D01*
X023400Y029160D01*
X023600Y029160D01*
X023600Y028160D02*
X023200Y028160D01*
X022600Y028160D01*
X021600Y028160D01*
X021600Y027160D02*
X022600Y027160D01*
X023600Y027160D01*
X023600Y026160D02*
X022600Y026160D01*
X021600Y026160D01*
X011300Y004260D02*
X010100Y003060D01*
X010100Y002660D01*
D27*
X013600Y006160D02*
X013000Y006760D01*
X013000Y009260D01*
X013900Y010160D01*
X015100Y010160D01*
X013600Y013160D02*
X013000Y013760D01*
X013000Y016260D01*
X013800Y017060D01*
X015100Y017060D01*
X013600Y020160D02*
X013000Y020760D01*
X013000Y023360D01*
X013800Y024160D01*
X015100Y024160D01*
X013600Y027160D02*
X012900Y027860D01*
X012900Y030460D01*
X013600Y031160D01*
X015100Y031160D01*
M02*
