G75*
%MOIN*%
%OFA0B0*%
%FSLAX24Y24*%
%IPPOS*%
%LPD*%
%AMOC8*
5,1,8,0,0,1.08239X$1,22.5*
%
%ADD10C,0.0673*%
%ADD11R,0.0950X0.0950*%
%ADD12C,0.0950*%
%ADD13C,0.0740*%
%ADD14C,0.0740*%
%ADD15C,0.0787*%
%ADD16C,0.0357*%
D10*
X010433Y008533D03*
X015233Y008533D03*
X016023Y010893D03*
X015233Y013253D03*
X010433Y013253D03*
X010433Y015533D03*
X015233Y015533D03*
X016023Y017893D03*
X015233Y020253D03*
X010433Y020253D03*
X010433Y022533D03*
X015233Y022533D03*
X016023Y024893D03*
X015233Y027253D03*
X010433Y027253D03*
X010433Y029533D03*
X015233Y029533D03*
X016023Y031893D03*
X015233Y034253D03*
X010433Y034253D03*
D11*
X005833Y033893D03*
X005833Y026893D03*
X005833Y019893D03*
X005833Y012893D03*
D12*
X005833Y010925D03*
X005833Y008956D03*
X005833Y015956D03*
X005833Y017925D03*
X005833Y022956D03*
X005833Y024925D03*
X005833Y029956D03*
X005833Y031925D03*
D13*
X027833Y031893D03*
X028833Y031893D03*
X029833Y031893D03*
X029833Y030893D03*
X028833Y030893D03*
X027833Y030893D03*
X027833Y029893D03*
X028833Y029893D03*
X029833Y029893D03*
X029833Y028893D03*
X028833Y028893D03*
X027833Y028893D03*
X027833Y027893D03*
X028833Y027893D03*
X029833Y027893D03*
X029833Y026893D03*
X028833Y026893D03*
X027833Y026893D03*
X027833Y025893D03*
X028833Y025893D03*
X029833Y025893D03*
X029833Y024893D03*
X028833Y024893D03*
X027833Y024893D03*
X027833Y023893D03*
X028833Y023893D03*
X029833Y023893D03*
X029833Y022893D03*
X028833Y022893D03*
X027833Y022893D03*
X027833Y021893D03*
X028833Y021893D03*
X029833Y021893D03*
X034833Y021893D03*
X035833Y021893D03*
X036833Y021893D03*
X036833Y022893D03*
X035833Y022893D03*
X034833Y022893D03*
X034833Y023893D03*
X035833Y023893D03*
X036833Y023893D03*
X036833Y024893D03*
X035833Y024893D03*
X034833Y024893D03*
X034833Y025893D03*
X035833Y025893D03*
X036833Y025893D03*
X036833Y026893D03*
X035833Y026893D03*
X034833Y026893D03*
X034833Y027893D03*
X035833Y027893D03*
X036833Y027893D03*
X036833Y028893D03*
X035833Y028893D03*
X034833Y028893D03*
X034833Y029893D03*
X035833Y029893D03*
X036833Y029893D03*
X036833Y030893D03*
X035833Y030893D03*
X034833Y030893D03*
X034833Y031893D03*
X035833Y031893D03*
X036833Y031893D03*
X036833Y032893D03*
X035833Y032893D03*
X034833Y032893D03*
X029833Y032893D03*
X028833Y032893D03*
X027833Y032893D03*
D14*
X023033Y006963D02*
X023033Y006223D01*
X022033Y006223D02*
X022033Y006963D01*
D15*
X025255Y007046D02*
X026042Y007046D01*
X027617Y007952D02*
X027617Y008739D01*
X026042Y009526D02*
X025255Y009526D01*
D16*
X019333Y005893D03*
X020333Y006893D03*
X022033Y008693D03*
X023533Y009893D03*
X023533Y010893D03*
X023183Y011593D03*
X024313Y011513D03*
X022033Y012193D03*
X018833Y011993D03*
X018833Y010893D03*
X018833Y013043D03*
X023183Y014193D03*
X022033Y015593D03*
X023533Y015893D03*
X024333Y016893D03*
X023533Y017893D03*
X022033Y019193D03*
X018833Y017893D03*
X028333Y017893D03*
X031433Y017943D03*
X034433Y017893D03*
X031433Y015893D03*
X028333Y015893D03*
X028333Y019893D03*
X023533Y022893D03*
X022033Y022593D03*
X024333Y023893D03*
X023533Y024893D03*
X022033Y026193D03*
X018833Y024893D03*
X022033Y029693D03*
X023533Y029793D03*
X024333Y030893D03*
X023533Y031893D03*
X022033Y033193D03*
X018833Y031893D03*
X019333Y035893D03*
X021333Y035893D03*
X023333Y035893D03*
X025333Y035893D03*
X027333Y035893D03*
X038333Y029893D03*
X038333Y027893D03*
X038333Y025893D03*
X038333Y023893D03*
X038333Y021893D03*
X038333Y019893D03*
X038333Y017893D03*
X034883Y012043D03*
X034883Y011543D03*
X034883Y011043D03*
X034883Y010543D03*
X034383Y010543D03*
X034383Y011043D03*
X034383Y011543D03*
X034383Y012043D03*
X033883Y012043D03*
X033383Y012043D03*
X032883Y012043D03*
X032383Y012043D03*
X031883Y012043D03*
X031883Y011543D03*
X031883Y011043D03*
X031883Y010543D03*
X031383Y010543D03*
X031383Y011043D03*
X031383Y011543D03*
X031383Y012043D03*
M02*
