%
M48
M72
T01C0.0236
T02C0.0394
T03C0.0400
T04C0.0433
T05C0.0440
T06C0.0512
T07C0.1260
%
T01
X18831Y10913
X22031Y12213
X23331Y10913
X23331Y9913
X22031Y8713
X20331Y6913
X19331Y5913
X24511Y11533
X28791Y13513
X29511Y13513
X30251Y13293
X30731Y12813
X28331Y15913
X28331Y17913
X28331Y19913
X24331Y16913
X23331Y17913
X22031Y19213
X18831Y17913
X22031Y15613
X23331Y15913
X22031Y22613
X23331Y22913
X24331Y23913
X23331Y24913
X22031Y26213
X18831Y24913
X22031Y29713
X23331Y29913
X24331Y30913
X23331Y31913
X22031Y33213
X21331Y35913
X19331Y35913
X23331Y35913
X25331Y35913
X27331Y35913
X18831Y31913
X38331Y21913
X38331Y19913
X38331Y17913
X38331Y15913
X38331Y13913
T02
X27615Y8365
X25647Y9546
X25647Y7066
T03
X27831Y21913
X28831Y21913
X29831Y21913
X29831Y22913
X28831Y22913
X27831Y22913
X27831Y23913
X28831Y23913
X29831Y23913
X29831Y24913
X28831Y24913
X27831Y24913
X27831Y25913
X28831Y25913
X29831Y25913
X29831Y26913
X29831Y27913
X28831Y27913
X28831Y26913
X27831Y26913
X27831Y27913
X27831Y28913
X28831Y28913
X29831Y28913
X29831Y29913
X28831Y29913
X27831Y29913
X27831Y30913
X28831Y30913
X29831Y30913
X29831Y31913
X29831Y32913
X28831Y32913
X28831Y31913
X27831Y31913
X27831Y32913
X34831Y32913
X35831Y32913
X35831Y31913
X35831Y30913
X34831Y30913
X34831Y31913
X36831Y31913
X36831Y32913
X36831Y30913
X36831Y29913
X36831Y28913
X36831Y27913
X36831Y26913
X36831Y25913
X36831Y24913
X36831Y23913
X36831Y22913
X36831Y21913
X35831Y21913
X35831Y22913
X34831Y22913
X34831Y21913
X34831Y23913
X35831Y23913
X35831Y24913
X34831Y24913
X34831Y25913
X35831Y25913
X35831Y26913
X35831Y27913
X34831Y27913
X34831Y26913
X34831Y28913
X35831Y28913
X35831Y29913
X34831Y29913
T04
X16069Y31913
X15301Y34226
X15301Y29600
X15301Y27226
X16069Y24913
X15301Y22600
X15301Y20226
X16069Y17913
X15301Y15600
X15301Y13226
X16069Y10913
X15301Y8600
X10360Y8600
X10360Y13226
X10360Y15600
X10360Y20226
X10360Y22600
X10360Y27226
X10360Y29600
X10360Y34226
T05
X22031Y6613
X23031Y6613
T06
X5831Y8976
X5831Y10944
X5831Y12913
X5831Y15976
X5831Y17944
X5831Y19913
X5831Y22976
X5831Y24944
X5831Y26913
X5831Y29976
X5831Y31944
X5831Y33913
T07
X5831Y6413
X5831Y36413
X37831Y36413
X37831Y6413
M30
