G75*
G70*
%OFA0B0*%
%FSLAX24Y24*%
%IPPOS*%
%LPD*%
%AMOC8*
5,1,8,0,0,1.08239X$1,22.5*
%
%ADD10C,0.1340*%
%ADD11C,0.0753*%
%ADD12R,0.1030X0.1030*%
%ADD13C,0.1030*%
%ADD14C,0.0820*%
%ADD15C,0.0820*%
%ADD16C,0.0867*%
D10*
X005833Y006393D03*
X005833Y036393D03*
X037833Y036393D03*
X037833Y006393D03*
D11*
X016071Y010893D03*
X015303Y013206D03*
X015303Y015580D03*
X016071Y017893D03*
X015303Y020206D03*
X015303Y022580D03*
X016071Y024893D03*
X015303Y027206D03*
X015303Y029580D03*
X016071Y031893D03*
X015303Y034206D03*
X010362Y034206D03*
X010362Y029580D03*
X010362Y027206D03*
X010362Y022580D03*
X010362Y020206D03*
X010362Y015580D03*
X010362Y013206D03*
X010362Y008580D03*
X015303Y008580D03*
D12*
X005833Y012893D03*
X005833Y019893D03*
X005833Y026893D03*
X005833Y033893D03*
D13*
X005833Y031925D03*
X005833Y029956D03*
X005833Y024925D03*
X005833Y022956D03*
X005833Y017925D03*
X005833Y015956D03*
X005833Y010925D03*
X005833Y008956D03*
D14*
X027833Y021893D03*
X028833Y021893D03*
X029833Y021893D03*
X029833Y022893D03*
X028833Y022893D03*
X027833Y022893D03*
X027833Y023893D03*
X028833Y023893D03*
X029833Y023893D03*
X029833Y024893D03*
X028833Y024893D03*
X027833Y024893D03*
X027833Y025893D03*
X028833Y025893D03*
X029833Y025893D03*
X029833Y026893D03*
X028833Y026893D03*
X027833Y026893D03*
X027833Y027893D03*
X028833Y027893D03*
X029833Y027893D03*
X029833Y028893D03*
X028833Y028893D03*
X027833Y028893D03*
X027833Y029893D03*
X028833Y029893D03*
X029833Y029893D03*
X029833Y030893D03*
X028833Y030893D03*
X027833Y030893D03*
X027833Y031893D03*
X028833Y031893D03*
X029833Y031893D03*
X029833Y032893D03*
X028833Y032893D03*
X027833Y032893D03*
X034833Y032893D03*
X034833Y031893D03*
X034833Y030893D03*
X035833Y030893D03*
X035833Y031893D03*
X035833Y032893D03*
X036833Y032893D03*
X036833Y031893D03*
X036833Y030893D03*
X036833Y029893D03*
X036833Y028893D03*
X036833Y027893D03*
X036833Y026893D03*
X036833Y025893D03*
X036833Y024893D03*
X036833Y023893D03*
X036833Y022893D03*
X036833Y021893D03*
X035833Y021893D03*
X034833Y021893D03*
X034833Y022893D03*
X035833Y022893D03*
X035833Y023893D03*
X034833Y023893D03*
X034833Y024893D03*
X035833Y024893D03*
X035833Y025893D03*
X034833Y025893D03*
X034833Y026893D03*
X035833Y026893D03*
X035833Y027893D03*
X034833Y027893D03*
X034833Y028893D03*
X035833Y028893D03*
X035833Y029893D03*
X034833Y029893D03*
D15*
X023033Y006963D02*
X023033Y006223D01*
X022033Y006223D02*
X022033Y006963D01*
D16*
X025255Y007046D02*
X026042Y007046D01*
X027617Y007952D02*
X027617Y008739D01*
X026042Y009526D02*
X025255Y009526D01*
M02*
