G75*
G70*
%OFA0B0*%
%FSLAX24Y24*%
%IPPOS*%
%LPD*%
%AMOC8*
5,1,8,0,0,1.08239X$1,22.5*
%
%ADD10C,0.0110*%
%ADD11C,0.0160*%
%ADD12C,0.0060*%
%ADD13C,0.0050*%
%ADD14C,0.0080*%
%ADD15R,0.0300X0.0180*%
%ADD16R,0.0180X0.0300*%
%ADD17C,0.0120*%
%ADD18C,0.0220*%
%ADD19C,0.0040*%
D10*
X022538Y008932D02*
X023128Y008932D01*
X022833Y009227D01*
X022833Y008833D01*
X023030Y010122D02*
X023128Y010122D01*
X023030Y010122D02*
X022833Y010319D01*
X022538Y010319D01*
X022833Y010319D02*
X023030Y010516D01*
X023128Y010516D01*
X022932Y010767D02*
X023128Y010964D01*
X022932Y011161D01*
X022538Y011161D01*
X022538Y011411D02*
X022538Y011805D01*
X023128Y011805D01*
X023128Y012056D02*
X023128Y012450D01*
X022538Y012450D01*
X022538Y012056D01*
X022833Y012253D02*
X022833Y012450D01*
X022833Y012701D02*
X022735Y012799D01*
X022735Y013094D01*
X022735Y012897D02*
X022538Y012701D01*
X022833Y012701D02*
X023030Y012701D01*
X023128Y012799D01*
X023128Y013094D01*
X022538Y013094D01*
X022833Y011161D02*
X022833Y010767D01*
X022932Y010767D02*
X022538Y010767D01*
X022636Y015833D02*
X022538Y015932D01*
X022538Y016129D01*
X022636Y016227D01*
X022833Y016030D02*
X022833Y015932D01*
X022735Y015833D01*
X022636Y015833D01*
X022833Y015932D02*
X022932Y015833D01*
X023030Y015833D01*
X023128Y015932D01*
X023128Y016129D01*
X023030Y016227D01*
X023030Y017122D02*
X023128Y017122D01*
X023030Y017122D02*
X022833Y017319D01*
X022538Y017319D01*
X022833Y017319D02*
X023030Y017516D01*
X023128Y017516D01*
X022932Y017767D02*
X022538Y017767D01*
X022833Y017767D02*
X022833Y018161D01*
X022932Y018161D02*
X023128Y017964D01*
X022932Y017767D01*
X022932Y018161D02*
X022538Y018161D01*
X022538Y018411D02*
X022538Y018805D01*
X023128Y018805D01*
X023128Y019056D02*
X023128Y019450D01*
X022538Y019450D01*
X022538Y019056D01*
X022833Y019253D02*
X022833Y019450D01*
X022833Y019701D02*
X022735Y019799D01*
X022735Y020094D01*
X022735Y019897D02*
X022538Y019701D01*
X022833Y019701D02*
X023030Y019701D01*
X023128Y019799D01*
X023128Y020094D01*
X022538Y020094D01*
X022538Y022833D02*
X022538Y023227D01*
X022932Y022833D01*
X023030Y022833D01*
X023128Y022932D01*
X023128Y023129D01*
X023030Y023227D01*
X023030Y024122D02*
X023128Y024122D01*
X023030Y024122D02*
X022833Y024319D01*
X022538Y024319D01*
X022833Y024319D02*
X023030Y024516D01*
X023128Y024516D01*
X022932Y024767D02*
X022538Y024767D01*
X022833Y024767D02*
X022833Y025161D01*
X022932Y025161D02*
X023128Y024964D01*
X022932Y024767D01*
X022932Y025161D02*
X022538Y025161D01*
X022538Y025411D02*
X022538Y025805D01*
X023128Y025805D01*
X023128Y026056D02*
X023128Y026450D01*
X022538Y026450D01*
X022538Y026056D01*
X022833Y026253D02*
X022833Y026450D01*
X022833Y026701D02*
X022735Y026799D01*
X022735Y027094D01*
X022735Y026897D02*
X022538Y026701D01*
X022833Y026701D02*
X023030Y026701D01*
X023128Y026799D01*
X023128Y027094D01*
X022538Y027094D01*
X022538Y029833D02*
X022538Y030227D01*
X022538Y030030D02*
X023128Y030030D01*
X022932Y030227D01*
X023030Y031122D02*
X023128Y031122D01*
X023030Y031122D02*
X022833Y031319D01*
X022538Y031319D01*
X022833Y031319D02*
X023030Y031516D01*
X023128Y031516D01*
X022932Y031767D02*
X022538Y031767D01*
X022833Y031767D02*
X022833Y032161D01*
X022932Y032161D02*
X023128Y031964D01*
X022932Y031767D01*
X022932Y032161D02*
X022538Y032161D01*
X022538Y032411D02*
X022538Y032805D01*
X023128Y032805D01*
X023128Y033056D02*
X023128Y033450D01*
X022538Y033450D01*
X022538Y033056D01*
X022833Y033253D02*
X022833Y033450D01*
X022833Y033701D02*
X022735Y033799D01*
X022735Y034094D01*
X022735Y033897D02*
X022538Y033701D01*
X022833Y033701D02*
X023030Y033701D01*
X023128Y033799D01*
X023128Y034094D01*
X022538Y034094D01*
X035121Y006689D02*
X035416Y006689D01*
X035515Y006590D01*
X035515Y006394D01*
X035416Y006295D01*
X035121Y006295D01*
X035121Y006098D02*
X035121Y006689D01*
X035766Y006689D02*
X035766Y006098D01*
X035962Y006295D01*
X036159Y006098D01*
X036159Y006689D01*
X036410Y006689D02*
X036705Y006689D01*
X036804Y006590D01*
X036804Y006394D01*
X036705Y006295D01*
X036410Y006295D01*
X036410Y006098D02*
X036410Y006689D01*
X036607Y006295D02*
X036804Y006098D01*
D11*
X022833Y007893D02*
X021833Y007893D01*
X022833Y007893D02*
X022833Y008393D01*
X022833Y013393D02*
X022833Y013893D01*
X021833Y013893D01*
X021833Y014893D02*
X022833Y014893D01*
X022833Y015393D01*
X022833Y020393D02*
X022833Y020893D01*
X021833Y020893D01*
X021833Y021893D02*
X022833Y021893D01*
X022833Y022393D01*
X022833Y027393D02*
X022833Y027893D01*
X021833Y027893D01*
X021833Y028893D02*
X022833Y028893D01*
X022833Y029393D01*
X022833Y034393D02*
X022833Y034893D01*
X021833Y034893D01*
D12*
X021493Y030353D02*
X020373Y030353D01*
X020373Y029833D01*
X021493Y029833D01*
X021493Y030353D01*
X021493Y023353D02*
X020373Y023353D01*
X020373Y022833D01*
X021493Y022833D01*
X021493Y023353D01*
X021593Y016353D02*
X020473Y016353D01*
X020473Y015833D01*
X021593Y015833D01*
X021593Y016353D01*
X024111Y011014D02*
X024405Y011014D01*
X024405Y010940D01*
X024111Y010647D01*
X024111Y010573D01*
X024572Y010720D02*
X024572Y011014D01*
X024865Y011014D02*
X024865Y010720D01*
X024718Y010573D01*
X024572Y010720D01*
X025032Y010793D02*
X025326Y010793D01*
X025492Y010867D02*
X025639Y011014D01*
X025639Y010573D01*
X025492Y010573D02*
X025786Y010573D01*
X025953Y010647D02*
X026026Y010573D01*
X026173Y010573D01*
X026246Y010647D01*
X026246Y010793D01*
X026173Y010867D01*
X026100Y010867D01*
X025953Y010793D01*
X025953Y011014D01*
X026246Y011014D01*
X026413Y011014D02*
X026413Y010720D01*
X026560Y010573D01*
X026707Y010720D01*
X026707Y011014D01*
X027334Y011014D02*
X027334Y010573D01*
X027554Y010573D01*
X027628Y010647D01*
X027628Y010940D01*
X027554Y011014D01*
X027334Y011014D01*
X027794Y010940D02*
X027794Y010647D01*
X027868Y010573D01*
X028014Y010573D01*
X028088Y010647D01*
X028088Y010940D02*
X028014Y011014D01*
X027868Y011014D01*
X027794Y010940D01*
X023250Y005304D02*
X022823Y005304D01*
X022230Y005304D02*
X021803Y005304D01*
X022016Y005517D02*
X022016Y005090D01*
X021593Y008833D02*
X020473Y008833D01*
X020473Y009353D01*
X021593Y009353D01*
X021593Y008833D01*
D13*
X016977Y007744D02*
X016977Y014043D01*
X008315Y014043D01*
X008315Y007744D01*
X016977Y007744D01*
X016977Y014744D02*
X016977Y021043D01*
X008315Y021043D01*
X008315Y014744D01*
X016977Y014744D01*
X016977Y021744D02*
X016977Y028043D01*
X008315Y028043D01*
X008315Y021744D01*
X016977Y021744D01*
X016977Y028744D02*
X016977Y035043D01*
X008315Y035043D01*
X008315Y028744D01*
X016977Y028744D01*
X035749Y012913D02*
X035001Y011535D01*
X038465Y011575D02*
X038517Y011454D01*
X038563Y011332D01*
X038603Y011207D01*
X038636Y011081D01*
X038664Y010953D01*
X038686Y010824D01*
X038702Y010694D01*
X038711Y010564D01*
X038714Y010433D01*
X038711Y010302D01*
X038702Y010172D01*
X038686Y010042D01*
X038664Y009913D01*
X038636Y009785D01*
X038603Y009659D01*
X038563Y009534D01*
X038517Y009412D01*
X038465Y009291D01*
X037717Y007874D01*
X035749Y007874D01*
X035001Y009252D01*
X033563Y008185D02*
X033563Y005191D01*
X033482Y005191D01*
X032303Y005191D01*
X032303Y008185D01*
X032482Y008185D01*
X033563Y008185D01*
X032482Y008185D02*
X032384Y008185D01*
X031425Y008463D02*
X028431Y008463D01*
X028431Y008544D01*
X028431Y009723D01*
X031425Y009723D01*
X031425Y009544D01*
X031425Y008463D01*
X031425Y009544D02*
X031425Y009642D01*
X030208Y009268D02*
X030208Y008918D01*
X030058Y008918D02*
X030208Y009093D01*
X030058Y009268D01*
X030058Y008918D01*
X028431Y008567D02*
X028431Y008544D01*
X032758Y006968D02*
X033108Y006968D01*
X033108Y006818D02*
X032933Y006968D01*
X032758Y006818D01*
X033108Y006818D01*
X033459Y005191D02*
X033482Y005191D01*
X035001Y009251D02*
X034949Y009372D01*
X034903Y009494D01*
X034863Y009619D01*
X034830Y009745D01*
X034802Y009873D01*
X034780Y010002D01*
X034764Y010132D01*
X034755Y010262D01*
X034752Y010393D01*
X034755Y010524D01*
X034764Y010654D01*
X034780Y010784D01*
X034802Y010913D01*
X034830Y011041D01*
X034863Y011167D01*
X034903Y011292D01*
X034949Y011414D01*
X035001Y011535D01*
X035749Y012913D02*
X037717Y012913D01*
X038465Y011574D01*
D14*
X004534Y014114D02*
X004534Y007736D01*
X004927Y007736D01*
X004927Y014114D01*
X007486Y014114D01*
X007486Y007736D01*
X004927Y007736D01*
X004927Y014114D02*
X004534Y014114D01*
X004534Y014736D02*
X004534Y021114D01*
X004927Y021114D01*
X004927Y014736D01*
X004534Y014736D01*
X004927Y014736D02*
X007486Y014736D01*
X007486Y021114D01*
X004927Y021114D01*
X004927Y021736D02*
X004534Y021736D01*
X004534Y028114D01*
X004927Y028114D01*
X004927Y021736D01*
X007486Y021736D01*
X007486Y028114D01*
X004927Y028114D01*
X004927Y028736D02*
X004534Y028736D01*
X004534Y035114D01*
X004927Y035114D01*
X004927Y028736D01*
X007486Y028736D01*
X007486Y035114D01*
X004927Y035114D01*
X020878Y033279D02*
X020994Y033203D01*
X021000Y033193D02*
X020878Y033101D01*
X021000Y033012D02*
X021000Y033193D01*
X021000Y033374D01*
X021000Y026374D02*
X021000Y026193D01*
X020878Y026101D01*
X021000Y026012D02*
X021000Y026193D01*
X020994Y026203D02*
X020878Y026279D01*
X021100Y019374D02*
X021100Y019193D01*
X020978Y019101D01*
X021100Y019012D02*
X021100Y019193D01*
X021094Y019203D02*
X020978Y019279D01*
X021100Y012374D02*
X021100Y012193D01*
X020978Y012101D01*
X021100Y012012D02*
X021100Y012193D01*
X021094Y012203D02*
X020978Y012279D01*
X024160Y009487D02*
X024672Y009487D01*
X024160Y009487D02*
X024160Y005314D01*
X027901Y005314D01*
X027901Y007558D01*
X027901Y009172D02*
X027901Y009487D01*
X026523Y009487D01*
X027901Y005314D02*
X027912Y005314D01*
X035878Y005301D02*
X036000Y005393D01*
X036000Y005574D01*
X035878Y005479D02*
X035994Y005403D01*
X036000Y005393D02*
X036000Y005212D01*
X036333Y021393D02*
X035333Y021393D01*
X035333Y033393D01*
X036333Y033393D01*
X036333Y021393D01*
X029333Y021393D02*
X029333Y033393D01*
X028333Y033393D01*
X028333Y021393D01*
X029333Y021393D01*
D15*
X019533Y018793D03*
X019533Y025793D03*
X019533Y032793D03*
X019533Y011793D03*
D16*
X021033Y011593D03*
X021033Y010393D03*
X021033Y017393D03*
X021033Y018593D03*
X020933Y024393D03*
X020933Y025593D03*
X020933Y031393D03*
X020933Y032593D03*
X034633Y005393D03*
D17*
X031935Y008891D02*
X031937Y008905D01*
X031943Y008919D01*
X031951Y008931D01*
X031963Y008939D01*
X031977Y008945D01*
X031991Y008947D01*
X032005Y008945D01*
X032019Y008939D01*
X032031Y008931D01*
X032039Y008919D01*
X032045Y008905D01*
X032047Y008891D01*
X032045Y008877D01*
X032039Y008863D01*
X032031Y008851D01*
X032019Y008843D01*
X032005Y008837D01*
X031991Y008835D01*
X031977Y008837D01*
X031963Y008843D01*
X031951Y008851D01*
X031943Y008863D01*
X031937Y008877D01*
X031935Y008891D01*
X030833Y019893D02*
X033833Y019893D01*
X033833Y020393D01*
X033833Y021393D01*
X030833Y021393D01*
X030833Y020393D01*
X028333Y020393D01*
X028333Y021393D01*
X030833Y020393D02*
X030833Y019893D01*
X033833Y020393D02*
X036333Y020393D01*
X036333Y021393D01*
X036333Y033393D02*
X035333Y034393D01*
X029333Y034393D01*
X028333Y033393D01*
D18*
X034821Y015293D02*
X034845Y015293D01*
D19*
X035453Y014683D02*
X035453Y016573D01*
X036359Y016573D01*
X037107Y016573D02*
X038012Y016573D01*
X038012Y014683D01*
X037343Y014014D01*
X037107Y014014D01*
X036359Y014014D02*
X036123Y014014D01*
X035453Y014683D01*
X037107Y014132D02*
X037171Y014154D01*
X037234Y014181D01*
X037296Y014211D01*
X037355Y014244D01*
X037413Y014280D01*
X037469Y014320D01*
X037522Y014363D01*
X037573Y014408D01*
X037621Y014456D01*
X037666Y014507D01*
X037709Y014561D01*
X037748Y014617D01*
X037785Y014674D01*
X037818Y014734D01*
X037847Y014796D01*
X037873Y014859D01*
X037896Y014923D01*
X037915Y014989D01*
X037930Y015056D01*
X037941Y015123D01*
X037949Y015191D01*
X037953Y015259D01*
X037953Y015327D01*
X037949Y015395D01*
X037941Y015463D01*
X037930Y015530D01*
X037915Y015597D01*
X037896Y015663D01*
X037873Y015727D01*
X037847Y015790D01*
X037818Y015852D01*
X037785Y015912D01*
X037748Y015969D01*
X037709Y016025D01*
X037666Y016079D01*
X037621Y016130D01*
X037573Y016178D01*
X037522Y016223D01*
X037469Y016266D01*
X037413Y016306D01*
X037355Y016342D01*
X037296Y016375D01*
X037234Y016405D01*
X037171Y016432D01*
X037107Y016454D01*
X036359Y016454D02*
X036295Y016432D01*
X036232Y016405D01*
X036170Y016375D01*
X036111Y016342D01*
X036053Y016306D01*
X035997Y016266D01*
X035944Y016223D01*
X035893Y016178D01*
X035845Y016130D01*
X035800Y016079D01*
X035757Y016025D01*
X035718Y015969D01*
X035681Y015912D01*
X035648Y015852D01*
X035619Y015790D01*
X035593Y015727D01*
X035570Y015663D01*
X035551Y015597D01*
X035536Y015530D01*
X035525Y015463D01*
X035517Y015395D01*
X035513Y015327D01*
X035513Y015259D01*
X035517Y015191D01*
X035525Y015123D01*
X035536Y015056D01*
X035551Y014989D01*
X035570Y014923D01*
X035593Y014859D01*
X035619Y014796D01*
X035648Y014734D01*
X035681Y014674D01*
X035718Y014617D01*
X035757Y014561D01*
X035800Y014507D01*
X035845Y014456D01*
X035893Y014408D01*
X035944Y014363D01*
X035997Y014320D01*
X036053Y014280D01*
X036111Y014244D01*
X036170Y014211D01*
X036232Y014181D01*
X036295Y014154D01*
X036359Y014132D01*
X030443Y007873D02*
X031112Y007204D01*
X031112Y006967D01*
X031112Y006219D02*
X031112Y005983D01*
X030443Y005314D01*
X028553Y005314D01*
X028553Y006219D01*
X028553Y006967D02*
X028553Y007873D01*
X030443Y007873D01*
X030994Y006219D02*
X030972Y006155D01*
X030945Y006092D01*
X030915Y006030D01*
X030882Y005971D01*
X030846Y005913D01*
X030806Y005857D01*
X030763Y005804D01*
X030718Y005753D01*
X030670Y005705D01*
X030619Y005660D01*
X030565Y005617D01*
X030509Y005578D01*
X030452Y005541D01*
X030392Y005508D01*
X030330Y005479D01*
X030267Y005453D01*
X030203Y005430D01*
X030137Y005411D01*
X030070Y005396D01*
X030003Y005385D01*
X029935Y005377D01*
X029867Y005373D01*
X029799Y005373D01*
X029731Y005377D01*
X029663Y005385D01*
X029596Y005396D01*
X029529Y005411D01*
X029463Y005430D01*
X029399Y005453D01*
X029336Y005479D01*
X029274Y005508D01*
X029214Y005541D01*
X029157Y005578D01*
X029101Y005617D01*
X029047Y005660D01*
X028996Y005705D01*
X028948Y005753D01*
X028903Y005804D01*
X028860Y005857D01*
X028820Y005913D01*
X028784Y005971D01*
X028751Y006030D01*
X028721Y006092D01*
X028694Y006155D01*
X028672Y006219D01*
X028672Y006967D02*
X028694Y007031D01*
X028721Y007094D01*
X028751Y007156D01*
X028784Y007215D01*
X028820Y007273D01*
X028860Y007329D01*
X028903Y007382D01*
X028948Y007433D01*
X028996Y007481D01*
X029047Y007526D01*
X029101Y007569D01*
X029157Y007608D01*
X029214Y007645D01*
X029274Y007678D01*
X029336Y007707D01*
X029399Y007733D01*
X029463Y007756D01*
X029529Y007775D01*
X029596Y007790D01*
X029663Y007801D01*
X029731Y007809D01*
X029799Y007813D01*
X029867Y007813D01*
X029935Y007809D01*
X030003Y007801D01*
X030070Y007790D01*
X030137Y007775D01*
X030203Y007756D01*
X030267Y007733D01*
X030330Y007707D01*
X030392Y007678D01*
X030452Y007645D01*
X030509Y007608D01*
X030565Y007569D01*
X030619Y007526D01*
X030670Y007481D01*
X030718Y007433D01*
X030763Y007382D01*
X030806Y007329D01*
X030846Y007273D01*
X030882Y007215D01*
X030915Y007156D01*
X030945Y007094D01*
X030972Y007031D01*
X030994Y006967D01*
M02*
