G75*
G70*
%OFA0B0*%
%FSLAX24Y24*%
%IPPOS*%
%LPD*%
%AMOC8*
5,1,8,0,0,1.08239X$1,22.5*
%
%ADD10C,0.1340*%
%ADD11C,0.0753*%
%ADD12R,0.1030X0.1030*%
%ADD13C,0.1030*%
%ADD14C,0.0820*%
%ADD15C,0.0820*%
%ADD16C,0.0867*%
D10*
X005831Y006413D03*
X005831Y036413D03*
X037831Y036413D03*
X037831Y006413D03*
D11*
X016069Y010913D03*
X015301Y013226D03*
X015301Y015600D03*
X016069Y017913D03*
X015301Y020226D03*
X015301Y022600D03*
X016069Y024913D03*
X015301Y027226D03*
X015301Y029600D03*
X016069Y031913D03*
X015301Y034226D03*
X010360Y034226D03*
X010360Y029600D03*
X010360Y027226D03*
X010360Y022600D03*
X010360Y020226D03*
X010360Y015600D03*
X010360Y013226D03*
X010360Y008600D03*
X015301Y008600D03*
D12*
X005831Y012913D03*
X005831Y019913D03*
X005831Y026913D03*
X005831Y033913D03*
D13*
X005831Y031944D03*
X005831Y029976D03*
X005831Y024944D03*
X005831Y022976D03*
X005831Y017944D03*
X005831Y015976D03*
X005831Y010944D03*
X005831Y008976D03*
D14*
X027831Y021913D03*
X028831Y021913D03*
X029831Y021913D03*
X029831Y022913D03*
X028831Y022913D03*
X027831Y022913D03*
X027831Y023913D03*
X028831Y023913D03*
X029831Y023913D03*
X029831Y024913D03*
X028831Y024913D03*
X027831Y024913D03*
X027831Y025913D03*
X028831Y025913D03*
X029831Y025913D03*
X029831Y026913D03*
X029831Y027913D03*
X028831Y027913D03*
X028831Y026913D03*
X027831Y026913D03*
X027831Y027913D03*
X027831Y028913D03*
X028831Y028913D03*
X029831Y028913D03*
X029831Y029913D03*
X028831Y029913D03*
X027831Y029913D03*
X027831Y030913D03*
X028831Y030913D03*
X029831Y030913D03*
X029831Y031913D03*
X029831Y032913D03*
X028831Y032913D03*
X028831Y031913D03*
X027831Y031913D03*
X027831Y032913D03*
X034831Y032913D03*
X035831Y032913D03*
X035831Y031913D03*
X035831Y030913D03*
X034831Y030913D03*
X034831Y031913D03*
X036831Y031913D03*
X036831Y032913D03*
X036831Y030913D03*
X036831Y029913D03*
X036831Y028913D03*
X036831Y027913D03*
X036831Y026913D03*
X036831Y025913D03*
X036831Y024913D03*
X036831Y023913D03*
X036831Y022913D03*
X036831Y021913D03*
X035831Y021913D03*
X035831Y022913D03*
X034831Y022913D03*
X034831Y021913D03*
X034831Y023913D03*
X035831Y023913D03*
X035831Y024913D03*
X034831Y024913D03*
X034831Y025913D03*
X035831Y025913D03*
X035831Y026913D03*
X035831Y027913D03*
X034831Y027913D03*
X034831Y026913D03*
X034831Y028913D03*
X035831Y028913D03*
X035831Y029913D03*
X034831Y029913D03*
D15*
X023031Y006983D02*
X023031Y006243D01*
X022031Y006243D02*
X022031Y006983D01*
D16*
X025253Y007066D02*
X026040Y007066D01*
X027615Y007971D02*
X027615Y008759D01*
X026040Y009546D02*
X025253Y009546D01*
M02*
