%
M48
M72
T01C0.0315
T02C0.0400
T03C0.0810
%
T01
X4206Y1678
X4994Y1678
T02
X1100Y4178
X1100Y5178
X1100Y6178
X1100Y7178
X1100Y8178
X1100Y9178
X1100Y10178
X1100Y11178
X1100Y12178
X1100Y13178
X1100Y14178
X1100Y15178
X8100Y15178
X8100Y14178
X8100Y13178
X8100Y12178
X8100Y11178
X8100Y10178
X8100Y9178
X8100Y8178
X8100Y7178
X8100Y6178
X8100Y5178
X8100Y4178
T03
X5600Y14678
X3600Y14678
M30
