G75*
%MOIN*%
%OFA0B0*%
%FSLAX24Y24*%
%IPPOS*%
%LPD*%
%AMOC8*
5,1,8,0,0,1.08239X$1,22.5*
%
%ADD10C,0.0030*%
%ADD11C,0.0820*%
%ADD12R,0.0880X0.0880*%
%ADD13C,0.0880*%
%ADD14C,0.0867*%
%ADD15R,0.0820X0.0820*%
%ADD16C,0.0740*%
%ADD17C,0.0595*%
%ADD18C,0.1740*%
%ADD19C,0.0800*%
D10*
X027793Y023577D02*
X027822Y023548D01*
X027907Y023548D01*
X027907Y023718D01*
X027822Y023718D01*
X027793Y023690D01*
X027793Y023662D01*
X027822Y023633D01*
X027907Y023633D01*
X027977Y023605D02*
X027977Y023577D01*
X028006Y023548D01*
X028062Y023548D01*
X028091Y023577D01*
X028062Y023633D02*
X028006Y023633D01*
X027977Y023605D01*
X027977Y023690D02*
X028006Y023718D01*
X028062Y023718D01*
X028091Y023690D01*
X028091Y023662D01*
X028062Y023633D01*
X028162Y023718D02*
X028162Y023548D01*
X028275Y023548D02*
X028275Y023718D01*
X028218Y023662D01*
X028162Y023718D01*
X027822Y023633D02*
X027793Y023605D01*
X027793Y023577D01*
D11*
X034240Y022883D03*
X035240Y022883D03*
X036240Y022883D03*
X037240Y022883D03*
X038240Y022883D03*
X039240Y022883D03*
X040240Y022883D03*
X041240Y022883D03*
X042240Y022883D03*
X043240Y022883D03*
X044740Y022883D03*
X045740Y022883D03*
X046740Y022883D03*
X047740Y022883D03*
X048740Y022883D03*
X049740Y022883D03*
X050740Y022883D03*
X051740Y022883D03*
X063690Y022933D03*
X064690Y022933D03*
X065690Y022933D03*
X065690Y018833D03*
X064690Y018833D03*
X063690Y018833D03*
X063340Y015883D03*
X062340Y015883D03*
X064340Y015883D03*
X064340Y014883D03*
X063340Y014883D03*
X062340Y014883D03*
X062340Y013883D03*
X063340Y013883D03*
X064340Y013883D03*
X064340Y012883D03*
X063340Y012883D03*
X062340Y012883D03*
X062340Y011883D03*
X063340Y011883D03*
X064340Y011883D03*
X064340Y010883D03*
X063340Y010883D03*
X062340Y010883D03*
X062340Y009883D03*
X063340Y009883D03*
X064340Y009883D03*
X064340Y008883D03*
X063340Y008883D03*
X062340Y008883D03*
X062340Y007883D03*
X063340Y007883D03*
X064340Y007883D03*
X064340Y006883D03*
X063340Y006883D03*
X062340Y006883D03*
X062340Y005883D03*
X063340Y005883D03*
X064340Y005883D03*
X064340Y004883D03*
X063340Y004883D03*
X062340Y004883D03*
X057340Y004883D03*
X056340Y004883D03*
X055340Y004883D03*
X055340Y005883D03*
X056340Y005883D03*
X057340Y005883D03*
X057340Y006883D03*
X056340Y006883D03*
X055340Y006883D03*
X055340Y007883D03*
X056340Y007883D03*
X057340Y007883D03*
X057340Y008883D03*
X056340Y008883D03*
X055340Y008883D03*
X055340Y009883D03*
X056340Y009883D03*
X057340Y009883D03*
X057340Y010883D03*
X056340Y010883D03*
X055340Y010883D03*
X055340Y011883D03*
X056340Y011883D03*
X057340Y011883D03*
X057340Y012883D03*
X056340Y012883D03*
X055340Y012883D03*
X055340Y013883D03*
X056340Y013883D03*
X057340Y013883D03*
X057340Y014883D03*
X056340Y014883D03*
X055340Y014883D03*
X055340Y015883D03*
X056340Y015883D03*
X057340Y015883D03*
X051740Y003883D03*
X050740Y003883D03*
X049740Y003883D03*
X048740Y003883D03*
X047740Y003883D03*
X046740Y003883D03*
X044740Y003883D03*
X043740Y003883D03*
X042740Y003883D03*
X041740Y003883D03*
X040740Y003883D03*
X039740Y003883D03*
X038740Y003883D03*
X037740Y003883D03*
D12*
X028440Y012783D03*
D13*
X028440Y010815D03*
D14*
X028793Y007461D02*
X028793Y006674D01*
X031273Y006674D02*
X031273Y007461D01*
X030486Y005099D02*
X029698Y005099D01*
D15*
X062690Y018833D03*
X062690Y022933D03*
D16*
X065690Y017833D03*
D17*
X051740Y021883D03*
X050740Y021883D03*
X049740Y021883D03*
X048740Y021883D03*
X047740Y021883D03*
X046740Y021883D03*
X045740Y021883D03*
X044740Y021883D03*
X043240Y021883D03*
X042240Y021883D03*
X041240Y021883D03*
X040240Y021883D03*
X039240Y021883D03*
X038240Y021883D03*
X037240Y021883D03*
X036240Y021883D03*
X035240Y021883D03*
X034240Y021883D03*
X037740Y004883D03*
X038740Y004883D03*
X039740Y004883D03*
X040740Y004883D03*
X041740Y004883D03*
X042740Y004883D03*
X043740Y004883D03*
X044740Y004883D03*
X046740Y004883D03*
X047740Y004883D03*
X048740Y004883D03*
X049740Y004883D03*
X050740Y004883D03*
X051740Y004883D03*
D18*
X052740Y005883D03*
X032240Y003883D03*
X052740Y016883D03*
X032740Y022883D03*
D19*
X034740Y014383D03*
X035740Y014383D03*
X036740Y014383D03*
X037740Y014383D03*
X038740Y014383D03*
X039740Y014383D03*
X040740Y014383D03*
X041740Y014383D03*
X042740Y014383D03*
X043740Y014383D03*
X044740Y014383D03*
X045740Y014383D03*
X046740Y014383D03*
X047740Y014383D03*
X048740Y014383D03*
X049740Y014383D03*
X050740Y014383D03*
X051740Y014383D03*
X052740Y014383D03*
X052740Y013383D03*
X051740Y013383D03*
X050740Y013383D03*
X049740Y013383D03*
X048740Y013383D03*
X047740Y013383D03*
X046740Y013383D03*
X045740Y013383D03*
X044740Y013383D03*
X043740Y013383D03*
X042740Y013383D03*
X041740Y013383D03*
X040740Y013383D03*
X039740Y013383D03*
X038740Y013383D03*
X037740Y013383D03*
X036740Y013383D03*
X035740Y013383D03*
X034740Y013383D03*
X033740Y013383D03*
X033740Y012383D03*
X034740Y012383D03*
X035740Y012383D03*
X036740Y012383D03*
X037740Y012383D03*
X038740Y012383D03*
X039740Y012383D03*
X040740Y012383D03*
X041740Y012383D03*
X042740Y012383D03*
X043740Y012383D03*
X044740Y012383D03*
X045740Y012383D03*
X046740Y012383D03*
X047740Y012383D03*
X048740Y012383D03*
X049740Y012383D03*
X050740Y012383D03*
X051740Y012383D03*
X052740Y012383D03*
X052740Y011383D03*
X051740Y011383D03*
X050740Y011383D03*
X049740Y011383D03*
X048740Y011383D03*
X047740Y011383D03*
X046740Y011383D03*
X045740Y011383D03*
X044740Y011383D03*
X043740Y011383D03*
X042740Y011383D03*
X041740Y011383D03*
X040740Y011383D03*
X039740Y011383D03*
X038740Y011383D03*
X037740Y011383D03*
X036740Y011383D03*
X035740Y011383D03*
X034740Y011383D03*
X033740Y011383D03*
X033740Y010383D03*
X034740Y010383D03*
X035740Y010383D03*
X036740Y010383D03*
X037740Y010383D03*
X038740Y010383D03*
X039740Y010383D03*
X040740Y010383D03*
X041740Y010383D03*
X042740Y010383D03*
X043740Y010383D03*
X044740Y010383D03*
X045740Y010383D03*
X046740Y010383D03*
X047740Y010383D03*
X048740Y010383D03*
X049740Y010383D03*
X050740Y010383D03*
X051740Y010383D03*
X052740Y010383D03*
X052740Y009383D03*
X051740Y009383D03*
X050740Y009383D03*
X049740Y009383D03*
X048740Y009383D03*
X047740Y009383D03*
X046740Y009383D03*
X045740Y009383D03*
X044740Y009383D03*
X043740Y009383D03*
X042740Y009383D03*
X041740Y009383D03*
X040740Y009383D03*
X039740Y009383D03*
X038740Y009383D03*
X037740Y009383D03*
X036740Y009383D03*
X035740Y009383D03*
X034740Y009383D03*
X033740Y009383D03*
X033740Y008383D03*
X034740Y008383D03*
X035740Y008383D03*
X036740Y008383D03*
X037740Y008383D03*
X038740Y008383D03*
X039740Y008383D03*
X040740Y008383D03*
X041740Y008383D03*
X042740Y008383D03*
X043740Y008383D03*
X044740Y008383D03*
X045740Y008383D03*
X046740Y008383D03*
X047740Y008383D03*
X048740Y008383D03*
X049740Y008383D03*
X050740Y008383D03*
X051740Y008383D03*
X052740Y008383D03*
X049740Y007383D03*
X048740Y007383D03*
X047740Y007383D03*
X046740Y007383D03*
X045740Y007383D03*
X044740Y007383D03*
X043740Y007383D03*
X042740Y007383D03*
X041740Y007383D03*
X040740Y007383D03*
X039740Y007383D03*
X038740Y007383D03*
X037740Y007383D03*
X036740Y007383D03*
X035740Y007383D03*
X034740Y007383D03*
X033740Y007383D03*
M02*
