G75*
%MOIN*%
%OFA0B0*%
%FSLAX24Y24*%
%IPPOS*%
%LPD*%
%AMOC8*
5,1,8,0,0,1.08239X$1,22.5*
%
%ADD10R,0.0066X0.0003*%
%ADD11R,0.0114X0.0003*%
%ADD12R,0.0147X0.0003*%
%ADD13R,0.0147X0.0003*%
%ADD14R,0.0171X0.0003*%
%ADD15R,0.0108X0.0003*%
%ADD16R,0.0468X0.0003*%
%ADD17R,0.0438X0.0003*%
%ADD18R,0.0270X0.0003*%
%ADD19R,0.0198X0.0003*%
%ADD20R,0.0294X0.0003*%
%ADD21R,0.0294X0.0003*%
%ADD22R,0.0213X0.0003*%
%ADD23R,0.0312X0.0003*%
%ADD24R,0.0312X0.0003*%
%ADD25R,0.0231X0.0003*%
%ADD26R,0.0324X0.0003*%
%ADD27R,0.0324X0.0003*%
%ADD28R,0.0246X0.0003*%
%ADD29R,0.0336X0.0003*%
%ADD30R,0.0264X0.0003*%
%ADD31R,0.0348X0.0003*%
%ADD32R,0.0264X0.0003*%
%ADD33R,0.0276X0.0003*%
%ADD34R,0.0357X0.0003*%
%ADD35R,0.0357X0.0003*%
%ADD36R,0.0288X0.0003*%
%ADD37R,0.0366X0.0003*%
%ADD38R,0.0300X0.0003*%
%ADD39R,0.0372X0.0003*%
%ADD40R,0.0372X0.0003*%
%ADD41R,0.0381X0.0003*%
%ADD42R,0.0321X0.0003*%
%ADD43R,0.0387X0.0003*%
%ADD44R,0.0387X0.0003*%
%ADD45R,0.0333X0.0003*%
%ADD46R,0.0393X0.0003*%
%ADD47R,0.0342X0.0003*%
%ADD48R,0.0399X0.0003*%
%ADD49R,0.0342X0.0003*%
%ADD50R,0.0399X0.0003*%
%ADD51R,0.0351X0.0003*%
%ADD52R,0.0405X0.0003*%
%ADD53R,0.0411X0.0003*%
%ADD54R,0.0417X0.0003*%
%ADD55R,0.0417X0.0003*%
%ADD56R,0.0378X0.0003*%
%ADD57R,0.0420X0.0003*%
%ADD58R,0.0384X0.0003*%
%ADD59R,0.0426X0.0003*%
%ADD60R,0.0432X0.0003*%
%ADD61R,0.0432X0.0003*%
%ADD62R,0.0396X0.0003*%
%ADD63R,0.0435X0.0003*%
%ADD64R,0.0441X0.0003*%
%ADD65R,0.0444X0.0003*%
%ADD66R,0.0444X0.0003*%
%ADD67R,0.0447X0.0003*%
%ADD68R,0.0447X0.0003*%
%ADD69R,0.0453X0.0003*%
%ADD70R,0.0429X0.0003*%
%ADD71R,0.0456X0.0003*%
%ADD72R,0.0459X0.0003*%
%ADD73R,0.0459X0.0003*%
%ADD74R,0.0462X0.0003*%
%ADD75R,0.0462X0.0003*%
%ADD76R,0.0465X0.0003*%
%ADD77R,0.0471X0.0003*%
%ADD78R,0.0474X0.0003*%
%ADD79R,0.0474X0.0003*%
%ADD80R,0.0228X0.0003*%
%ADD81R,0.0477X0.0003*%
%ADD82R,0.0477X0.0003*%
%ADD83R,0.0207X0.0003*%
%ADD84R,0.0156X0.0003*%
%ADD85R,0.0480X0.0003*%
%ADD86R,0.0207X0.0003*%
%ADD87R,0.0192X0.0003*%
%ADD88R,0.0483X0.0003*%
%ADD89R,0.0192X0.0003*%
%ADD90R,0.0177X0.0003*%
%ADD91R,0.0144X0.0003*%
%ADD92R,0.0486X0.0003*%
%ADD93R,0.0177X0.0003*%
%ADD94R,0.0165X0.0003*%
%ADD95R,0.0135X0.0003*%
%ADD96R,0.0219X0.0003*%
%ADD97R,0.0219X0.0003*%
%ADD98R,0.0153X0.0003*%
%ADD99R,0.0132X0.0003*%
%ADD100R,0.0204X0.0003*%
%ADD101R,0.0132X0.0003*%
%ADD102R,0.0144X0.0003*%
%ADD103R,0.0129X0.0003*%
%ADD104R,0.0195X0.0003*%
%ADD105R,0.0129X0.0003*%
%ADD106R,0.0138X0.0003*%
%ADD107R,0.0123X0.0003*%
%ADD108R,0.0183X0.0003*%
%ADD109R,0.0117X0.0003*%
%ADD110R,0.0120X0.0003*%
%ADD111R,0.0174X0.0003*%
%ADD112R,0.0117X0.0003*%
%ADD113R,0.0174X0.0003*%
%ADD114R,0.0168X0.0003*%
%ADD115R,0.0102X0.0003*%
%ADD116R,0.0114X0.0003*%
%ADD117R,0.0096X0.0003*%
%ADD118R,0.0159X0.0003*%
%ADD119R,0.0087X0.0003*%
%ADD120R,0.0087X0.0003*%
%ADD121R,0.0081X0.0003*%
%ADD122R,0.0111X0.0003*%
%ADD123R,0.0072X0.0003*%
%ADD124R,0.0072X0.0003*%
%ADD125R,0.0150X0.0003*%
%ADD126R,0.0057X0.0003*%
%ADD127R,0.0054X0.0003*%
%ADD128R,0.0054X0.0003*%
%ADD129R,0.0048X0.0003*%
%ADD130R,0.0039X0.0003*%
%ADD131R,0.0141X0.0003*%
%ADD132R,0.0033X0.0003*%
%ADD133R,0.0105X0.0003*%
%ADD134R,0.0027X0.0003*%
%ADD135R,0.0027X0.0003*%
%ADD136R,0.0021X0.0003*%
%ADD137R,0.0015X0.0003*%
%ADD138R,0.0009X0.0003*%
%ADD139R,0.0009X0.0003*%
%ADD140R,0.0003X0.0003*%
%ADD141R,0.0126X0.0003*%
%ADD142R,0.0159X0.0003*%
%ADD143R,0.0162X0.0003*%
%ADD144R,0.0162X0.0003*%
%ADD145R,0.0180X0.0003*%
%ADD146R,0.0186X0.0003*%
%ADD147R,0.0216X0.0003*%
%ADD148R,0.0237X0.0003*%
%ADD149R,0.0522X0.0003*%
%ADD150R,0.0423X0.0003*%
%ADD151R,0.0522X0.0003*%
%ADD152R,0.0249X0.0003*%
%ADD153R,0.0249X0.0003*%
%ADD154R,0.0255X0.0003*%
%ADD155R,0.0279X0.0003*%
%ADD156R,0.0285X0.0003*%
%ADD157R,0.0291X0.0003*%
%ADD158R,0.0297X0.0003*%
%ADD159R,0.0297X0.0003*%
%ADD160R,0.0306X0.0003*%
%ADD161R,0.0309X0.0003*%
%ADD162R,0.0309X0.0003*%
%ADD163R,0.0315X0.0003*%
%ADD164R,0.0282X0.0003*%
%ADD165R,0.0267X0.0003*%
%ADD166R,0.0267X0.0003*%
%ADD167R,0.0258X0.0003*%
%ADD168R,0.0240X0.0003*%
%ADD169R,0.0201X0.0003*%
%ADD170R,0.0189X0.0003*%
%ADD171R,0.0006X0.0003*%
%ADD172R,0.0012X0.0003*%
%ADD173R,0.0012X0.0003*%
%ADD174R,0.0024X0.0003*%
%ADD175R,0.0024X0.0003*%
%ADD176R,0.0030X0.0003*%
%ADD177R,0.0042X0.0003*%
%ADD178R,0.0042X0.0003*%
%ADD179R,0.0051X0.0003*%
%ADD180R,0.0060X0.0003*%
%ADD181R,0.0063X0.0003*%
%ADD182R,0.0408X0.0003*%
%ADD183R,0.0402X0.0003*%
%ADD184R,0.0450X0.0003*%
%ADD185R,0.0402X0.0003*%
%ADD186R,0.0390X0.0003*%
%ADD187R,0.0375X0.0003*%
%ADD188R,0.0369X0.0003*%
%ADD189R,0.0369X0.0003*%
%ADD190R,0.0363X0.0003*%
%ADD191R,0.0354X0.0003*%
%ADD192R,0.0345X0.0003*%
%ADD193R,0.0339X0.0003*%
%ADD194R,0.0327X0.0003*%
%ADD195R,0.0327X0.0003*%
%ADD196R,0.0318X0.0003*%
%ADD197R,0.0252X0.0003*%
%ADD198R,0.0252X0.0003*%
%ADD199R,0.0237X0.0003*%
%ADD200R,0.0339X0.0003*%
%ADD201R,0.0225X0.0003*%
%ADD202R,0.0189X0.0003*%
%ADD203R,0.0034X0.0002*%
%ADD204R,0.0032X0.0002*%
%ADD205R,0.0058X0.0002*%
%ADD206R,0.0051X0.0002*%
%ADD207R,0.0074X0.0002*%
%ADD208R,0.0067X0.0002*%
%ADD209R,0.0053X0.0002*%
%ADD210R,0.0085X0.0002*%
%ADD211R,0.0078X0.0002*%
%ADD212R,0.0054X0.0002*%
%ADD213R,0.0096X0.0002*%
%ADD214R,0.0064X0.0002*%
%ADD215R,0.0090X0.0002*%
%ADD216R,0.0064X0.0002*%
%ADD217R,0.0058X0.0002*%
%ADD218R,0.0056X0.0002*%
%ADD219R,0.0106X0.0002*%
%ADD220R,0.0098X0.0002*%
%ADD221R,0.0115X0.0002*%
%ADD222R,0.0106X0.0002*%
%ADD223R,0.0059X0.0002*%
%ADD224R,0.0122X0.0002*%
%ADD225R,0.0112X0.0002*%
%ADD226R,0.0130X0.0002*%
%ADD227R,0.0120X0.0002*%
%ADD228R,0.0061X0.0002*%
%ADD229R,0.0136X0.0002*%
%ADD230R,0.0126X0.0002*%
%ADD231R,0.0062X0.0002*%
%ADD232R,0.0142X0.0002*%
%ADD233R,0.0131X0.0002*%
%ADD234R,0.0147X0.0002*%
%ADD235R,0.0138X0.0002*%
%ADD236R,0.0066X0.0002*%
%ADD237R,0.0154X0.0002*%
%ADD238R,0.0144X0.0002*%
%ADD239R,0.0158X0.0002*%
%ADD240R,0.0163X0.0002*%
%ADD241R,0.0069X0.0002*%
%ADD242R,0.0168X0.0002*%
%ADD243R,0.0157X0.0002*%
%ADD244R,0.0173X0.0002*%
%ADD245R,0.0162X0.0002*%
%ADD246R,0.0072X0.0002*%
%ADD247R,0.0176X0.0002*%
%ADD248R,0.0166X0.0002*%
%ADD249R,0.0179X0.0002*%
%ADD250R,0.0170X0.0002*%
%ADD251R,0.0186X0.0002*%
%ADD252R,0.0174X0.0002*%
%ADD253R,0.0075X0.0002*%
%ADD254R,0.0189X0.0002*%
%ADD255R,0.0178X0.0002*%
%ADD256R,0.0077X0.0002*%
%ADD257R,0.0190X0.0002*%
%ADD258R,0.0181X0.0002*%
%ADD259R,0.0195X0.0002*%
%ADD260R,0.0184X0.0002*%
%ADD261R,0.0198X0.0002*%
%ADD262R,0.0080X0.0002*%
%ADD263R,0.0202X0.0002*%
%ADD264R,0.0192X0.0002*%
%ADD265R,0.0082X0.0002*%
%ADD266R,0.0205X0.0002*%
%ADD267R,0.0083X0.0002*%
%ADD268R,0.0208X0.0002*%
%ADD269R,0.0198X0.0002*%
%ADD270R,0.0211X0.0002*%
%ADD271R,0.0200X0.0002*%
%ADD272R,0.0213X0.0002*%
%ADD273R,0.0203X0.0002*%
%ADD274R,0.0088X0.0002*%
%ADD275R,0.0216X0.0002*%
%ADD276R,0.0206X0.0002*%
%ADD277R,0.0219X0.0002*%
%ADD278R,0.0210X0.0002*%
%ADD279R,0.0221X0.0002*%
%ADD280R,0.0211X0.0002*%
%ADD281R,0.0091X0.0002*%
%ADD282R,0.0224X0.0002*%
%ADD283R,0.0214X0.0002*%
%ADD284R,0.0226X0.0002*%
%ADD285R,0.0094X0.0002*%
%ADD286R,0.0109X0.0002*%
%ADD287R,0.0101X0.0002*%
%ADD288R,0.0091X0.0002*%
%ADD289R,0.0086X0.0002*%
%ADD290R,0.0093X0.0002*%
%ADD291R,0.0070X0.0002*%
%ADD292R,0.0078X0.0002*%
%ADD293R,0.0102X0.0002*%
%ADD294R,0.0072X0.0002*%
%ADD295R,0.0104X0.0002*%
%ADD296R,0.0066X0.0002*%
%ADD297R,0.0107X0.0002*%
%ADD298R,0.0110X0.0002*%
%ADD299R,0.0050X0.0002*%
%ADD300R,0.0046X0.0002*%
%ADD301R,0.0042X0.0002*%
%ADD302R,0.0038X0.0002*%
%ADD303R,0.0035X0.0002*%
%ADD304R,0.0032X0.0002*%
%ADD305R,0.0059X0.0002*%
%ADD306R,0.0070X0.0002*%
%ADD307R,0.0029X0.0002*%
%ADD308R,0.0026X0.0002*%
%ADD309R,0.0022X0.0002*%
%ADD310R,0.0019X0.0002*%
%ADD311R,0.0016X0.0002*%
%ADD312R,0.0011X0.0002*%
%ADD313R,0.0008X0.0002*%
%ADD314R,0.0005X0.0002*%
%ADD315R,0.0002X0.0002*%
%ADD316R,0.0149X0.0002*%
%ADD317R,0.0146X0.0002*%
%ADD318R,0.0141X0.0002*%
%ADD319R,0.0139X0.0002*%
%ADD320R,0.0138X0.0002*%
%ADD321R,0.0134X0.0002*%
%ADD322R,0.0133X0.0002*%
%ADD323R,0.0128X0.0002*%
%ADD324R,0.0123X0.0002*%
%ADD325R,0.0118X0.0002*%
%ADD326R,0.0112X0.0002*%
%ADD327R,0.0010X0.0002*%
%ADD328R,0.0040X0.0002*%
%ADD329R,0.0048X0.0002*%
%ADD330R,0.0125X0.0002*%
%ADD331R,0.0218X0.0002*%
%ADD332R,0.0222X0.0002*%
%ADD333R,0.0197X0.0002*%
%ADD334R,0.0194X0.0002*%
%ADD335R,0.0192X0.0002*%
%ADD336R,0.0187X0.0002*%
%ADD337R,0.0131X0.0002*%
%ADD338R,0.0117X0.0002*%
%ADD339R,0.0152X0.0002*%
%ADD340R,0.0098X0.0002*%
%ADD341R,0.0043X0.0002*%
%ADD342R,0.0030X0.0002*%
%ADD343C,0.0820*%
%ADD344R,0.2521X0.2206*%
%ADD345R,0.0710X0.0474*%
%ADD346R,0.0631X0.1261*%
%ADD347R,0.0659X0.0580*%
%ADD348R,0.0395X0.0395*%
%ADD349R,0.0513X0.0474*%
%ADD350R,0.0880X0.0880*%
%ADD351C,0.0880*%
%ADD352R,0.0328X0.0407*%
%ADD353C,0.0867*%
%ADD354R,0.0200X0.0470*%
%ADD355R,0.0394X0.0177*%
%ADD356R,0.0631X0.0474*%
%ADD357R,0.0474X0.0513*%
%ADD358R,0.0820X0.0820*%
%ADD359C,0.0010*%
%ADD360C,0.0400*%
%ADD361C,0.0595*%
%ADD362C,0.1740*%
%ADD363C,0.0800*%
D10*
X053987Y022588D03*
X053801Y022735D03*
X057479Y022735D03*
X057665Y022588D03*
D11*
X057665Y022591D03*
X057824Y022720D03*
X057827Y022723D03*
X057827Y022726D03*
X057833Y022795D03*
X057833Y022798D03*
X057830Y022801D03*
X057788Y023119D03*
X057497Y023104D03*
X057494Y023098D03*
X057488Y023032D03*
X057488Y023029D03*
X057488Y023026D03*
X056984Y022939D03*
X056984Y022936D03*
X056984Y022888D03*
X056984Y022885D03*
X056984Y022882D03*
X054155Y022798D03*
X054155Y022795D03*
X054152Y022801D03*
X054149Y022726D03*
X054149Y022723D03*
X053987Y022591D03*
X053813Y023023D03*
X053810Y023026D03*
X053810Y023029D03*
X053810Y023032D03*
X053819Y023104D03*
X054110Y023119D03*
X060659Y022861D03*
X060662Y022882D03*
X060662Y022885D03*
X060662Y022888D03*
X060662Y022936D03*
X060662Y022939D03*
D12*
X060601Y023080D03*
X060601Y022741D03*
X054121Y022693D03*
X053986Y022594D03*
X053836Y022993D03*
D13*
X056923Y023080D03*
X056923Y022741D03*
X056920Y022738D03*
X057514Y022993D03*
X057799Y022693D03*
X057664Y022594D03*
X060598Y022738D03*
D14*
X060571Y023104D03*
X057793Y022843D03*
X057784Y022687D03*
X057664Y022597D03*
X056893Y023104D03*
X054115Y022843D03*
X054106Y022687D03*
X053986Y022597D03*
D15*
X054153Y022732D03*
X054155Y022741D03*
X054155Y022744D03*
X054155Y022747D03*
X054158Y022753D03*
X054158Y022756D03*
X054158Y022759D03*
X054158Y022762D03*
X054158Y022765D03*
X054158Y022768D03*
X054158Y022771D03*
X054158Y022774D03*
X054158Y022777D03*
X054158Y022780D03*
X054398Y022780D03*
X054398Y022777D03*
X054398Y022774D03*
X054398Y022771D03*
X054398Y022768D03*
X054398Y022765D03*
X054398Y022762D03*
X054398Y022759D03*
X054398Y022756D03*
X054398Y022753D03*
X054398Y022750D03*
X054398Y022747D03*
X054398Y022744D03*
X054398Y022741D03*
X054398Y022738D03*
X054398Y022735D03*
X054398Y022732D03*
X054398Y022729D03*
X054398Y022726D03*
X054398Y022723D03*
X054398Y022720D03*
X054398Y022717D03*
X054398Y022714D03*
X054398Y022711D03*
X054398Y022708D03*
X054398Y022705D03*
X054398Y022702D03*
X054398Y022699D03*
X054398Y022696D03*
X054398Y022693D03*
X054398Y022690D03*
X054398Y022687D03*
X054398Y022684D03*
X054398Y022681D03*
X054398Y022678D03*
X054398Y022675D03*
X054398Y022672D03*
X054398Y022669D03*
X054398Y022666D03*
X054398Y022663D03*
X054398Y022660D03*
X054398Y022657D03*
X054398Y022654D03*
X054398Y022651D03*
X054398Y022648D03*
X054398Y022645D03*
X054398Y022642D03*
X054398Y022639D03*
X054398Y022636D03*
X054398Y022633D03*
X054398Y022630D03*
X054398Y022627D03*
X054398Y022624D03*
X054398Y022621D03*
X054398Y022618D03*
X054398Y022615D03*
X054398Y022612D03*
X054398Y022609D03*
X054398Y022606D03*
X054398Y022603D03*
X054398Y022600D03*
X054398Y022597D03*
X054398Y022783D03*
X054398Y022786D03*
X054398Y022789D03*
X054398Y022792D03*
X054398Y022795D03*
X054398Y022798D03*
X054398Y022801D03*
X054398Y022804D03*
X054398Y022807D03*
X054398Y022810D03*
X054398Y022813D03*
X054398Y022816D03*
X054398Y022819D03*
X054398Y022822D03*
X054398Y022825D03*
X054398Y022828D03*
X054398Y022831D03*
X054398Y022834D03*
X054398Y022837D03*
X054398Y022840D03*
X054398Y022843D03*
X054398Y022846D03*
X054398Y022849D03*
X054398Y022852D03*
X054398Y022855D03*
X054398Y022858D03*
X054398Y022861D03*
X054398Y022966D03*
X054398Y022969D03*
X054398Y022972D03*
X054398Y022975D03*
X054398Y022978D03*
X054398Y022981D03*
X054398Y022984D03*
X054398Y022987D03*
X054398Y022990D03*
X054398Y022993D03*
X054398Y022996D03*
X054398Y022999D03*
X054398Y023002D03*
X054398Y023005D03*
X054398Y023008D03*
X054398Y023011D03*
X054398Y023014D03*
X054398Y023017D03*
X054398Y023020D03*
X054398Y023023D03*
X054398Y023026D03*
X054398Y023029D03*
X054398Y023032D03*
X054398Y023035D03*
X054398Y023038D03*
X054398Y023041D03*
X054398Y023044D03*
X054398Y023047D03*
X054398Y023050D03*
X054398Y023053D03*
X054398Y023056D03*
X054398Y023059D03*
X054398Y023062D03*
X054398Y023065D03*
X054398Y023068D03*
X054398Y023071D03*
X054398Y023074D03*
X054398Y023077D03*
X054398Y023080D03*
X054398Y023083D03*
X054398Y023086D03*
X054398Y023089D03*
X054398Y023092D03*
X054398Y023095D03*
X054398Y023098D03*
X054398Y023101D03*
X054398Y023104D03*
X054398Y023107D03*
X054398Y023110D03*
X054398Y023113D03*
X054398Y023116D03*
X054398Y023119D03*
X054398Y023122D03*
X054398Y023125D03*
X054398Y023128D03*
X054398Y023131D03*
X054398Y023134D03*
X054398Y023137D03*
X054398Y023140D03*
X054398Y023143D03*
X054398Y023146D03*
X054398Y023149D03*
X054398Y023152D03*
X054398Y023155D03*
X054398Y023158D03*
X054398Y023161D03*
X054398Y023164D03*
X054398Y023167D03*
X054398Y023170D03*
X054398Y023173D03*
X054398Y023176D03*
X054398Y023179D03*
X054398Y023182D03*
X054398Y023185D03*
X054398Y023188D03*
X054398Y023191D03*
X054398Y023194D03*
X054398Y023197D03*
X054398Y023200D03*
X054398Y023203D03*
X054398Y023206D03*
X054398Y023209D03*
X054398Y023212D03*
X054398Y023215D03*
X054398Y023218D03*
X054398Y023221D03*
X054398Y023224D03*
X054113Y023116D03*
X053810Y023083D03*
X053810Y023080D03*
X053810Y023077D03*
X053808Y023071D03*
X053808Y023068D03*
X053808Y023065D03*
X053808Y023062D03*
X053808Y023059D03*
X053808Y023056D03*
X053808Y023053D03*
X053808Y023050D03*
X053808Y023047D03*
X053808Y023044D03*
X053808Y022717D03*
X054813Y022717D03*
X054813Y022714D03*
X054813Y022711D03*
X054813Y022708D03*
X054813Y022705D03*
X054813Y022702D03*
X054813Y022699D03*
X054813Y022696D03*
X054813Y022693D03*
X054813Y022690D03*
X054813Y022687D03*
X054813Y022684D03*
X054813Y022681D03*
X054813Y022678D03*
X054813Y022675D03*
X054813Y022672D03*
X054813Y022669D03*
X054813Y022666D03*
X054813Y022663D03*
X054813Y022660D03*
X054813Y022657D03*
X054813Y022654D03*
X054813Y022651D03*
X054813Y022648D03*
X054813Y022645D03*
X054813Y022642D03*
X054813Y022639D03*
X054813Y022636D03*
X054813Y022633D03*
X054813Y022630D03*
X054813Y022627D03*
X054813Y022624D03*
X054813Y022621D03*
X054813Y022618D03*
X054813Y022615D03*
X054813Y022612D03*
X054813Y022609D03*
X054813Y022606D03*
X054813Y022603D03*
X054813Y022600D03*
X054813Y022597D03*
X054813Y022720D03*
X054813Y022723D03*
X054813Y022726D03*
X054813Y022729D03*
X054813Y022732D03*
X054813Y022735D03*
X054813Y022738D03*
X054813Y022741D03*
X054813Y022744D03*
X054813Y022747D03*
X054813Y022750D03*
X054813Y022753D03*
X054813Y022756D03*
X054813Y022759D03*
X054813Y022762D03*
X054813Y022765D03*
X054813Y022768D03*
X054813Y022771D03*
X054813Y022774D03*
X054813Y022777D03*
X054813Y022780D03*
X054813Y022783D03*
X054813Y022786D03*
X054813Y022789D03*
X054813Y022792D03*
X054813Y022795D03*
X054813Y022798D03*
X054813Y022801D03*
X054813Y022804D03*
X054813Y022807D03*
X054813Y022810D03*
X054813Y022813D03*
X054813Y022816D03*
X054813Y022819D03*
X054813Y022822D03*
X054813Y022825D03*
X054813Y022828D03*
X054813Y022831D03*
X054813Y022834D03*
X054813Y022837D03*
X054813Y022840D03*
X054813Y022843D03*
X054813Y022846D03*
X054813Y022849D03*
X054813Y022852D03*
X054813Y022855D03*
X054813Y022858D03*
X054813Y022861D03*
X054813Y022966D03*
X054813Y022969D03*
X054813Y022972D03*
X054813Y022975D03*
X054813Y022978D03*
X054813Y022981D03*
X054813Y022984D03*
X054813Y022987D03*
X054813Y022990D03*
X054813Y022993D03*
X054813Y022996D03*
X054813Y022999D03*
X054813Y023002D03*
X054813Y023005D03*
X054813Y023008D03*
X054813Y023011D03*
X054813Y023014D03*
X054813Y023017D03*
X054813Y023020D03*
X054813Y023023D03*
X054813Y023026D03*
X054813Y023029D03*
X054813Y023032D03*
X054813Y023035D03*
X054813Y023038D03*
X054813Y023041D03*
X054813Y023044D03*
X054813Y023047D03*
X054813Y023050D03*
X054813Y023053D03*
X054813Y023056D03*
X054813Y023059D03*
X054813Y023062D03*
X054813Y023065D03*
X054813Y023068D03*
X054813Y023071D03*
X054813Y023074D03*
X054813Y023077D03*
X054813Y023080D03*
X054813Y023083D03*
X054813Y023086D03*
X054813Y023089D03*
X054813Y023092D03*
X054813Y023095D03*
X054813Y023098D03*
X054813Y023101D03*
X054813Y023104D03*
X054813Y023107D03*
X054813Y023110D03*
X054813Y023113D03*
X054813Y023116D03*
X054813Y023119D03*
X054813Y023122D03*
X054813Y023125D03*
X054813Y023128D03*
X054813Y023131D03*
X054813Y023134D03*
X054813Y023137D03*
X054813Y023140D03*
X054813Y023143D03*
X054813Y023146D03*
X054813Y023149D03*
X054813Y023152D03*
X054813Y023155D03*
X054813Y023158D03*
X054813Y023161D03*
X054813Y023164D03*
X054813Y023167D03*
X054813Y023170D03*
X054813Y023173D03*
X054813Y023176D03*
X054813Y023179D03*
X054813Y023182D03*
X054813Y023185D03*
X054813Y023188D03*
X054813Y023191D03*
X054813Y023194D03*
X054813Y023197D03*
X054813Y023200D03*
X054813Y023203D03*
X054813Y023206D03*
X054813Y023209D03*
X054813Y023212D03*
X054813Y023215D03*
X054813Y023218D03*
X054813Y023221D03*
X054813Y023224D03*
X055091Y023224D03*
X055091Y023221D03*
X055091Y023218D03*
X055091Y023215D03*
X055091Y023212D03*
X055091Y023209D03*
X055091Y023206D03*
X055091Y023203D03*
X055091Y023200D03*
X055091Y023197D03*
X055091Y023194D03*
X055091Y023191D03*
X055091Y023188D03*
X055091Y023185D03*
X055091Y023182D03*
X055091Y023179D03*
X055091Y023176D03*
X055091Y023173D03*
X055091Y023170D03*
X055091Y023167D03*
X055091Y023164D03*
X055091Y023161D03*
X055091Y023158D03*
X055091Y023155D03*
X055091Y023152D03*
X055091Y023149D03*
X055091Y023146D03*
X055091Y023143D03*
X055091Y023140D03*
X055091Y023137D03*
X055091Y023134D03*
X055091Y023131D03*
X055091Y023128D03*
X055091Y023125D03*
X055091Y023122D03*
X055091Y023119D03*
X055091Y023116D03*
X055091Y023113D03*
X055091Y023110D03*
X055091Y023107D03*
X055091Y023104D03*
X055091Y023101D03*
X055091Y023098D03*
X055091Y023095D03*
X055091Y023092D03*
X055091Y023089D03*
X055091Y023086D03*
X055091Y023083D03*
X055091Y023080D03*
X055091Y023077D03*
X055091Y023074D03*
X055091Y023071D03*
X055091Y023068D03*
X055091Y023065D03*
X055091Y023062D03*
X055091Y023059D03*
X055091Y023056D03*
X055091Y023053D03*
X055091Y023050D03*
X055091Y023047D03*
X055091Y023044D03*
X055091Y023041D03*
X055091Y023038D03*
X055091Y023035D03*
X055091Y023032D03*
X055091Y023029D03*
X055091Y023026D03*
X055091Y023023D03*
X055091Y023020D03*
X055091Y023017D03*
X055091Y023014D03*
X055091Y023011D03*
X055091Y023008D03*
X055091Y023005D03*
X055091Y023002D03*
X055091Y022999D03*
X055091Y022996D03*
X055091Y022993D03*
X055091Y022990D03*
X055091Y022987D03*
X055091Y022984D03*
X055091Y022981D03*
X055091Y022978D03*
X055091Y022975D03*
X055091Y022972D03*
X055091Y022969D03*
X055091Y022966D03*
X055091Y022963D03*
X055091Y022960D03*
X055091Y022957D03*
X055091Y022954D03*
X055091Y022951D03*
X055091Y022948D03*
X055091Y022945D03*
X055091Y022942D03*
X055091Y022939D03*
X055091Y022936D03*
X055091Y022933D03*
X055091Y022930D03*
X055091Y022927D03*
X055091Y022924D03*
X055091Y022921D03*
X055091Y022918D03*
X055091Y022915D03*
X055091Y022912D03*
X055091Y022909D03*
X055091Y022906D03*
X055091Y022903D03*
X055091Y022900D03*
X055091Y022897D03*
X055091Y022894D03*
X055091Y022891D03*
X055091Y022888D03*
X055091Y022885D03*
X055091Y022882D03*
X055091Y022879D03*
X055091Y022876D03*
X055091Y022873D03*
X055091Y022870D03*
X055091Y022867D03*
X055091Y022864D03*
X055091Y022861D03*
X055091Y022858D03*
X055091Y022855D03*
X055091Y022852D03*
X055091Y022849D03*
X055091Y022846D03*
X055091Y022843D03*
X055091Y022840D03*
X055091Y022837D03*
X055091Y022834D03*
X055091Y022831D03*
X055091Y022828D03*
X055091Y022825D03*
X055091Y022822D03*
X055091Y022819D03*
X055091Y022816D03*
X055091Y022813D03*
X055091Y022810D03*
X055091Y022807D03*
X055091Y022804D03*
X055091Y022801D03*
X055091Y022798D03*
X055091Y022795D03*
X055091Y022792D03*
X055091Y022789D03*
X055091Y022786D03*
X055091Y022783D03*
X055091Y022780D03*
X055091Y022777D03*
X055091Y022774D03*
X055091Y022771D03*
X055091Y022768D03*
X055091Y022765D03*
X055091Y022762D03*
X055091Y022759D03*
X055091Y022756D03*
X055091Y022753D03*
X055091Y022750D03*
X055091Y022747D03*
X055091Y022744D03*
X055091Y022741D03*
X055091Y022738D03*
X055091Y022735D03*
X055091Y022732D03*
X055091Y022729D03*
X055091Y022726D03*
X055091Y022723D03*
X055091Y022720D03*
X055091Y022717D03*
X055091Y022714D03*
X055091Y022711D03*
X055091Y022708D03*
X055091Y022705D03*
X055091Y022702D03*
X055091Y022699D03*
X055091Y022696D03*
X055091Y022693D03*
X055091Y022690D03*
X055091Y022687D03*
X055091Y022684D03*
X055091Y022681D03*
X055091Y022678D03*
X055091Y022675D03*
X055091Y022672D03*
X055091Y022669D03*
X055091Y022666D03*
X055091Y022663D03*
X055091Y022660D03*
X055091Y022657D03*
X055091Y022654D03*
X055091Y022651D03*
X055091Y022648D03*
X055091Y022645D03*
X055091Y022642D03*
X055091Y022639D03*
X055091Y022636D03*
X055091Y022633D03*
X055091Y022630D03*
X055091Y022627D03*
X055091Y022624D03*
X055091Y022621D03*
X055091Y022618D03*
X055091Y022615D03*
X055091Y022612D03*
X055091Y022609D03*
X055091Y022606D03*
X055091Y022603D03*
X055091Y022600D03*
X055091Y022597D03*
X055368Y022696D03*
X055368Y022699D03*
X055368Y022702D03*
X055368Y022705D03*
X055368Y022708D03*
X055368Y022711D03*
X055368Y022714D03*
X055368Y022717D03*
X055368Y022720D03*
X055368Y022723D03*
X055368Y022726D03*
X055368Y022729D03*
X055368Y022732D03*
X055368Y022735D03*
X055368Y022738D03*
X055368Y022741D03*
X055368Y022744D03*
X055368Y022747D03*
X055368Y022750D03*
X055368Y022753D03*
X055368Y022756D03*
X055368Y022759D03*
X055368Y022762D03*
X055368Y022765D03*
X055368Y022768D03*
X055368Y022771D03*
X055368Y022774D03*
X055368Y022777D03*
X055368Y022780D03*
X055368Y022783D03*
X055368Y022786D03*
X055368Y022789D03*
X055368Y022792D03*
X055368Y022795D03*
X055368Y022798D03*
X055368Y022801D03*
X055368Y022804D03*
X055368Y022807D03*
X055368Y022810D03*
X055368Y022813D03*
X055368Y022816D03*
X055368Y022819D03*
X055368Y022822D03*
X055368Y022825D03*
X055368Y022828D03*
X055368Y022831D03*
X055368Y022834D03*
X055368Y022837D03*
X055368Y022840D03*
X055368Y022843D03*
X055368Y022846D03*
X055368Y022849D03*
X055368Y022852D03*
X055368Y022855D03*
X055368Y022858D03*
X055368Y022861D03*
X055368Y022963D03*
X055368Y022966D03*
X055368Y022969D03*
X055368Y022972D03*
X055368Y022975D03*
X055368Y022978D03*
X055368Y022981D03*
X055368Y022984D03*
X055368Y022987D03*
X055368Y022990D03*
X055368Y022993D03*
X055368Y022996D03*
X055368Y022999D03*
X055368Y023002D03*
X055368Y023005D03*
X055368Y023008D03*
X055368Y023011D03*
X055368Y023014D03*
X055368Y023017D03*
X055368Y023020D03*
X055368Y023023D03*
X055368Y023026D03*
X055368Y023029D03*
X055368Y023032D03*
X055368Y023035D03*
X055368Y023038D03*
X055368Y023041D03*
X055368Y023044D03*
X055368Y023047D03*
X055368Y023050D03*
X055368Y023053D03*
X055368Y023056D03*
X055368Y023059D03*
X055368Y023062D03*
X055368Y023065D03*
X055368Y023068D03*
X055368Y023071D03*
X055368Y023074D03*
X055368Y023077D03*
X055368Y023080D03*
X055368Y023083D03*
X055368Y023086D03*
X055368Y023089D03*
X055368Y023092D03*
X055368Y023095D03*
X055368Y023098D03*
X055368Y023101D03*
X055368Y023104D03*
X055368Y023107D03*
X055368Y023110D03*
X055368Y023113D03*
X055368Y023116D03*
X055368Y023119D03*
X055368Y023122D03*
X055368Y023125D03*
X055970Y023125D03*
X055970Y023122D03*
X055970Y023119D03*
X055970Y023116D03*
X055970Y023113D03*
X055970Y023110D03*
X055970Y023107D03*
X055970Y023104D03*
X055970Y023101D03*
X055970Y023098D03*
X055970Y023095D03*
X055970Y023092D03*
X055970Y023089D03*
X055970Y023086D03*
X055970Y023083D03*
X055970Y023080D03*
X055970Y023077D03*
X055970Y023074D03*
X055970Y023071D03*
X055970Y023068D03*
X055970Y023065D03*
X055970Y023062D03*
X055970Y023059D03*
X055970Y023056D03*
X055970Y023053D03*
X055970Y023050D03*
X055970Y023047D03*
X055970Y023044D03*
X055970Y023041D03*
X055970Y023038D03*
X055970Y023035D03*
X055970Y023032D03*
X055970Y023029D03*
X055970Y023026D03*
X055970Y023023D03*
X055970Y023020D03*
X055970Y023017D03*
X055970Y023014D03*
X055970Y023011D03*
X055970Y023008D03*
X055970Y023005D03*
X055970Y023002D03*
X055970Y022999D03*
X055970Y022996D03*
X055970Y022993D03*
X055970Y022990D03*
X055970Y022987D03*
X055970Y022984D03*
X055970Y022981D03*
X055970Y022978D03*
X055970Y022975D03*
X055970Y022972D03*
X055970Y022969D03*
X055970Y022966D03*
X055970Y022963D03*
X055970Y022960D03*
X055970Y022957D03*
X055970Y022954D03*
X055970Y022951D03*
X055970Y022948D03*
X055970Y022945D03*
X055970Y022942D03*
X055970Y022939D03*
X055970Y022936D03*
X055970Y022933D03*
X055970Y022930D03*
X055970Y022927D03*
X055970Y022924D03*
X055970Y022921D03*
X055970Y022918D03*
X055970Y022915D03*
X055970Y022912D03*
X055970Y022909D03*
X055970Y022906D03*
X055970Y022903D03*
X055970Y022900D03*
X055970Y022897D03*
X055970Y022894D03*
X055970Y022891D03*
X055970Y022888D03*
X055970Y022885D03*
X055970Y022882D03*
X055970Y022879D03*
X055970Y022876D03*
X055970Y022873D03*
X055970Y022870D03*
X055970Y022867D03*
X055970Y022864D03*
X055970Y022861D03*
X055970Y022858D03*
X055970Y022855D03*
X055970Y022852D03*
X055970Y022849D03*
X055970Y022846D03*
X055970Y022843D03*
X055970Y022840D03*
X055970Y022837D03*
X055970Y022834D03*
X055970Y022831D03*
X055970Y022828D03*
X055970Y022825D03*
X055970Y022822D03*
X055970Y022819D03*
X055970Y022816D03*
X055970Y022813D03*
X055970Y022810D03*
X055970Y022807D03*
X055970Y022804D03*
X055970Y022801D03*
X055970Y022798D03*
X055970Y022795D03*
X055970Y022792D03*
X055970Y022789D03*
X055970Y022786D03*
X055970Y022783D03*
X055970Y022780D03*
X055970Y022777D03*
X055970Y022774D03*
X055970Y022771D03*
X055970Y022768D03*
X055970Y022765D03*
X055970Y022762D03*
X055970Y022759D03*
X055970Y022756D03*
X055970Y022753D03*
X055970Y022750D03*
X055970Y022747D03*
X055970Y022744D03*
X055970Y022741D03*
X055970Y022738D03*
X055970Y022735D03*
X055970Y022732D03*
X055970Y022729D03*
X055970Y022726D03*
X055970Y022723D03*
X055970Y022720D03*
X055970Y022717D03*
X055970Y022714D03*
X055970Y022711D03*
X055970Y022708D03*
X055970Y022705D03*
X055970Y022702D03*
X055970Y022699D03*
X055970Y023128D03*
X055970Y023131D03*
X055970Y023134D03*
X055970Y023137D03*
X055970Y023140D03*
X055970Y023143D03*
X055970Y023146D03*
X055970Y023149D03*
X055970Y023152D03*
X055970Y023155D03*
X055970Y023158D03*
X055970Y023161D03*
X055970Y023164D03*
X055970Y023167D03*
X055970Y023170D03*
X055970Y023173D03*
X055970Y023176D03*
X055970Y023179D03*
X055970Y023182D03*
X055970Y023185D03*
X055970Y023188D03*
X055970Y023191D03*
X055970Y023194D03*
X055970Y023197D03*
X055970Y023200D03*
X055970Y023203D03*
X055970Y023206D03*
X055970Y023209D03*
X055970Y023212D03*
X055970Y023215D03*
X055970Y023218D03*
X055970Y023221D03*
X055970Y023224D03*
X056528Y023122D03*
X056528Y023119D03*
X056528Y023116D03*
X056528Y023113D03*
X056528Y023110D03*
X056528Y023107D03*
X056528Y023104D03*
X056528Y023101D03*
X056528Y023098D03*
X056528Y023095D03*
X056528Y023092D03*
X056528Y023089D03*
X056528Y023086D03*
X056528Y023083D03*
X056528Y023080D03*
X056528Y023077D03*
X056528Y023074D03*
X056528Y023071D03*
X056528Y023068D03*
X056528Y023065D03*
X056528Y023062D03*
X056528Y023059D03*
X056528Y023056D03*
X056528Y023053D03*
X056528Y023050D03*
X056528Y023047D03*
X056528Y023044D03*
X056528Y023041D03*
X056528Y023038D03*
X056528Y023035D03*
X056528Y023032D03*
X056528Y023029D03*
X056528Y023026D03*
X056528Y023023D03*
X056528Y023020D03*
X056528Y023017D03*
X056528Y023014D03*
X056528Y023011D03*
X056528Y023008D03*
X056528Y023005D03*
X056528Y023002D03*
X056528Y022999D03*
X056528Y022996D03*
X056528Y022993D03*
X056528Y022990D03*
X056528Y022987D03*
X056528Y022984D03*
X056528Y022981D03*
X056528Y022978D03*
X056528Y022975D03*
X056528Y022972D03*
X056528Y022969D03*
X056528Y022966D03*
X056528Y022963D03*
X056528Y022960D03*
X056528Y022957D03*
X056528Y022954D03*
X056528Y022951D03*
X056528Y022948D03*
X056528Y022945D03*
X056528Y022942D03*
X056528Y022939D03*
X056528Y022936D03*
X056528Y022933D03*
X056528Y022930D03*
X056528Y022927D03*
X056528Y022924D03*
X056528Y022921D03*
X056528Y022918D03*
X056528Y022915D03*
X056528Y022912D03*
X056528Y022909D03*
X056528Y022906D03*
X056528Y022903D03*
X056528Y022900D03*
X056528Y022897D03*
X056528Y022894D03*
X056528Y022891D03*
X056528Y022888D03*
X056528Y022885D03*
X056528Y022882D03*
X056528Y022879D03*
X056528Y022876D03*
X056528Y022873D03*
X056528Y022870D03*
X056528Y022867D03*
X056528Y022864D03*
X056528Y022861D03*
X056528Y022858D03*
X056528Y022855D03*
X056528Y022852D03*
X056528Y022849D03*
X056528Y022846D03*
X056528Y022843D03*
X056528Y022840D03*
X056528Y022837D03*
X056528Y022834D03*
X056528Y022831D03*
X056528Y022828D03*
X056528Y022825D03*
X056528Y022822D03*
X056528Y022819D03*
X056528Y022816D03*
X056528Y022813D03*
X056528Y022810D03*
X056528Y022807D03*
X056528Y022804D03*
X056528Y022801D03*
X056528Y022798D03*
X056528Y022795D03*
X056528Y022792D03*
X056528Y022789D03*
X056528Y022786D03*
X056528Y022783D03*
X056528Y022780D03*
X056528Y022777D03*
X056528Y022774D03*
X056528Y022771D03*
X056528Y022768D03*
X056528Y022765D03*
X056528Y022762D03*
X056528Y022759D03*
X056528Y022756D03*
X056528Y022753D03*
X056528Y022750D03*
X056528Y022747D03*
X056528Y022744D03*
X056528Y022741D03*
X056528Y022738D03*
X056528Y022735D03*
X056528Y022732D03*
X056528Y022729D03*
X056528Y022726D03*
X056528Y022723D03*
X056528Y022720D03*
X056528Y022717D03*
X056528Y022714D03*
X056528Y022711D03*
X056528Y022708D03*
X056528Y022705D03*
X056528Y022702D03*
X056528Y022699D03*
X057485Y022717D03*
X057485Y023044D03*
X057485Y023047D03*
X057485Y023050D03*
X057485Y023053D03*
X057485Y023056D03*
X057485Y023059D03*
X057485Y023062D03*
X057485Y023065D03*
X057485Y023068D03*
X057485Y023071D03*
X057488Y023077D03*
X057488Y023080D03*
X057488Y023083D03*
X057791Y023116D03*
X058076Y023116D03*
X058076Y023113D03*
X058076Y023110D03*
X058076Y023107D03*
X058076Y023104D03*
X058076Y023101D03*
X058076Y023098D03*
X058076Y023095D03*
X058076Y023092D03*
X058076Y023089D03*
X058076Y023086D03*
X058076Y023083D03*
X058076Y023080D03*
X058076Y023077D03*
X058076Y023074D03*
X058076Y023071D03*
X058076Y023068D03*
X058076Y023065D03*
X058076Y023062D03*
X058076Y023059D03*
X058076Y023056D03*
X058076Y023053D03*
X058076Y023050D03*
X058076Y023047D03*
X058076Y023044D03*
X058076Y023041D03*
X058076Y023038D03*
X058076Y023035D03*
X058076Y023032D03*
X058076Y023029D03*
X058076Y023026D03*
X058076Y023023D03*
X058076Y023020D03*
X058076Y023017D03*
X058076Y023014D03*
X058076Y023011D03*
X058076Y023008D03*
X058076Y023005D03*
X058076Y023002D03*
X058076Y022999D03*
X058076Y022996D03*
X058076Y022993D03*
X058076Y022990D03*
X058076Y022987D03*
X058076Y022984D03*
X058076Y022981D03*
X058076Y022978D03*
X058076Y022975D03*
X058076Y022972D03*
X058076Y022969D03*
X058076Y022966D03*
X058076Y022861D03*
X058076Y022858D03*
X058076Y022855D03*
X058076Y022852D03*
X058076Y022849D03*
X058076Y022846D03*
X058076Y022843D03*
X058076Y022840D03*
X058076Y022837D03*
X058076Y022834D03*
X058076Y022831D03*
X058076Y022828D03*
X058076Y022825D03*
X058076Y022822D03*
X058076Y022819D03*
X058076Y022816D03*
X058076Y022813D03*
X058076Y022810D03*
X058076Y022807D03*
X058076Y022804D03*
X058076Y022801D03*
X058076Y022798D03*
X058076Y022795D03*
X058076Y022792D03*
X058076Y022789D03*
X058076Y022786D03*
X058076Y022783D03*
X058076Y022780D03*
X058076Y022777D03*
X058076Y022774D03*
X058076Y022771D03*
X058076Y022768D03*
X058076Y022765D03*
X058076Y022762D03*
X058076Y022759D03*
X058076Y022756D03*
X058076Y022753D03*
X058076Y022750D03*
X058076Y022747D03*
X058076Y022744D03*
X058076Y022741D03*
X058076Y022738D03*
X058076Y022735D03*
X058076Y022732D03*
X058076Y022729D03*
X058076Y022726D03*
X058076Y022723D03*
X058076Y022720D03*
X058076Y022717D03*
X058076Y022714D03*
X058076Y022711D03*
X058076Y022708D03*
X058076Y022705D03*
X058076Y022702D03*
X058076Y022699D03*
X058076Y022696D03*
X058076Y022693D03*
X058076Y022690D03*
X058076Y022687D03*
X058076Y022684D03*
X058076Y022681D03*
X058076Y022678D03*
X058076Y022675D03*
X058076Y022672D03*
X058076Y022669D03*
X058076Y022666D03*
X058076Y022663D03*
X058076Y022660D03*
X058076Y022657D03*
X058076Y022654D03*
X058076Y022651D03*
X058076Y022648D03*
X058076Y022645D03*
X058076Y022642D03*
X058076Y022639D03*
X058076Y022636D03*
X058076Y022633D03*
X058076Y022630D03*
X058076Y022627D03*
X058076Y022624D03*
X058076Y022621D03*
X058076Y022618D03*
X058076Y022615D03*
X058076Y022612D03*
X058076Y022609D03*
X058076Y022606D03*
X058076Y022603D03*
X058076Y022600D03*
X058076Y022597D03*
X057830Y022732D03*
X057833Y022741D03*
X057833Y022744D03*
X057833Y022747D03*
X057836Y022753D03*
X057836Y022756D03*
X057836Y022759D03*
X057836Y022762D03*
X057836Y022765D03*
X057836Y022768D03*
X057836Y022771D03*
X057836Y022774D03*
X057836Y022777D03*
X057836Y022780D03*
X058076Y023119D03*
X058076Y023122D03*
X058076Y023125D03*
X058076Y023128D03*
X058076Y023131D03*
X058076Y023134D03*
X058076Y023137D03*
X058076Y023140D03*
X058076Y023143D03*
X058076Y023146D03*
X058076Y023149D03*
X058076Y023152D03*
X058076Y023155D03*
X058076Y023158D03*
X058076Y023161D03*
X058076Y023164D03*
X058076Y023167D03*
X058076Y023170D03*
X058076Y023173D03*
X058076Y023176D03*
X058076Y023179D03*
X058076Y023182D03*
X058076Y023185D03*
X058076Y023188D03*
X058076Y023191D03*
X058076Y023194D03*
X058076Y023197D03*
X058076Y023200D03*
X058076Y023203D03*
X058076Y023206D03*
X058076Y023209D03*
X058076Y023212D03*
X058076Y023215D03*
X058076Y023218D03*
X058076Y023221D03*
X058076Y023224D03*
X058490Y023224D03*
X058490Y023221D03*
X058490Y023218D03*
X058490Y023215D03*
X058490Y023212D03*
X058490Y023209D03*
X058490Y023206D03*
X058490Y023203D03*
X058490Y023200D03*
X058490Y023197D03*
X058490Y023194D03*
X058490Y023191D03*
X058490Y023188D03*
X058490Y023185D03*
X058490Y023182D03*
X058490Y023179D03*
X058490Y023176D03*
X058490Y023173D03*
X058490Y023170D03*
X058490Y023167D03*
X058490Y023164D03*
X058490Y023161D03*
X058490Y023158D03*
X058490Y023155D03*
X058490Y023152D03*
X058490Y023149D03*
X058490Y023146D03*
X058490Y023143D03*
X058490Y023140D03*
X058490Y023137D03*
X058490Y023134D03*
X058490Y023131D03*
X058490Y023128D03*
X058490Y023125D03*
X058490Y023122D03*
X058490Y023119D03*
X058490Y023116D03*
X058490Y023113D03*
X058490Y023110D03*
X058490Y023107D03*
X058490Y023104D03*
X058490Y023101D03*
X058490Y023098D03*
X058490Y023095D03*
X058490Y023092D03*
X058490Y023089D03*
X058490Y023086D03*
X058490Y023083D03*
X058490Y023080D03*
X058490Y023077D03*
X058490Y023074D03*
X058490Y023071D03*
X058490Y023068D03*
X058490Y023065D03*
X058490Y023062D03*
X058490Y023059D03*
X058490Y023056D03*
X058490Y023053D03*
X058490Y023050D03*
X058490Y023047D03*
X058490Y023044D03*
X058490Y023041D03*
X058490Y023038D03*
X058490Y023035D03*
X058490Y023032D03*
X058490Y023029D03*
X058490Y023026D03*
X058490Y023023D03*
X058490Y023020D03*
X058490Y023017D03*
X058490Y023014D03*
X058490Y023011D03*
X058490Y023008D03*
X058490Y023005D03*
X058490Y023002D03*
X058490Y022999D03*
X058490Y022996D03*
X058490Y022993D03*
X058490Y022990D03*
X058490Y022987D03*
X058490Y022984D03*
X058490Y022981D03*
X058490Y022978D03*
X058490Y022975D03*
X058490Y022972D03*
X058490Y022969D03*
X058490Y022966D03*
X058490Y022861D03*
X058490Y022858D03*
X058490Y022855D03*
X058490Y022852D03*
X058490Y022849D03*
X058490Y022846D03*
X058490Y022843D03*
X058490Y022840D03*
X058490Y022837D03*
X058490Y022834D03*
X058490Y022831D03*
X058490Y022828D03*
X058490Y022825D03*
X058490Y022822D03*
X058490Y022819D03*
X058490Y022816D03*
X058490Y022813D03*
X058490Y022810D03*
X058490Y022807D03*
X058490Y022804D03*
X058490Y022801D03*
X058490Y022798D03*
X058490Y022795D03*
X058490Y022792D03*
X058490Y022789D03*
X058490Y022786D03*
X058490Y022783D03*
X058490Y022780D03*
X058490Y022777D03*
X058490Y022774D03*
X058490Y022771D03*
X058490Y022768D03*
X058490Y022765D03*
X058490Y022762D03*
X058490Y022759D03*
X058490Y022756D03*
X058490Y022753D03*
X058490Y022750D03*
X058490Y022747D03*
X058490Y022744D03*
X058490Y022741D03*
X058490Y022738D03*
X058490Y022735D03*
X058490Y022732D03*
X058490Y022729D03*
X058490Y022726D03*
X058490Y022723D03*
X058490Y022720D03*
X058490Y022717D03*
X058490Y022714D03*
X058490Y022711D03*
X058490Y022708D03*
X058490Y022705D03*
X058490Y022702D03*
X058490Y022699D03*
X058490Y022696D03*
X058490Y022693D03*
X058490Y022690D03*
X058490Y022687D03*
X058490Y022684D03*
X058490Y022681D03*
X058490Y022678D03*
X058490Y022675D03*
X058490Y022672D03*
X058490Y022669D03*
X058490Y022666D03*
X058490Y022663D03*
X058490Y022660D03*
X058490Y022657D03*
X058490Y022654D03*
X058490Y022651D03*
X058490Y022648D03*
X058490Y022645D03*
X058490Y022642D03*
X058490Y022639D03*
X058490Y022636D03*
X058490Y022633D03*
X058490Y022630D03*
X058490Y022627D03*
X058490Y022624D03*
X058490Y022621D03*
X058490Y022618D03*
X058490Y022615D03*
X058490Y022612D03*
X058490Y022609D03*
X058490Y022606D03*
X058490Y022603D03*
X058490Y022600D03*
X058490Y022597D03*
X058769Y022597D03*
X058769Y022600D03*
X058769Y022603D03*
X058769Y022606D03*
X058769Y022609D03*
X058769Y022612D03*
X058769Y022615D03*
X058769Y022618D03*
X058769Y022621D03*
X058769Y022624D03*
X058769Y022627D03*
X058769Y022630D03*
X058769Y022633D03*
X058769Y022636D03*
X058769Y022639D03*
X058769Y022642D03*
X058769Y022645D03*
X058769Y022648D03*
X058769Y022651D03*
X058769Y022654D03*
X058769Y022657D03*
X058769Y022660D03*
X058769Y022663D03*
X058769Y022666D03*
X058769Y022669D03*
X058769Y022672D03*
X058769Y022675D03*
X058769Y022678D03*
X058769Y022681D03*
X058769Y022684D03*
X058769Y022687D03*
X058769Y022690D03*
X058769Y022693D03*
X058769Y022696D03*
X058769Y022699D03*
X058769Y022702D03*
X058769Y022705D03*
X058769Y022708D03*
X058769Y022711D03*
X058769Y022714D03*
X058769Y022717D03*
X058769Y022720D03*
X058769Y022723D03*
X058769Y022726D03*
X058769Y022729D03*
X058769Y022732D03*
X058769Y022735D03*
X058769Y022738D03*
X058769Y022741D03*
X058769Y022744D03*
X058769Y022747D03*
X058769Y022750D03*
X058769Y022753D03*
X058769Y022756D03*
X058769Y022759D03*
X058769Y022762D03*
X058769Y022765D03*
X058769Y022768D03*
X058769Y022771D03*
X058769Y022774D03*
X058769Y022777D03*
X058769Y022780D03*
X058769Y022783D03*
X058769Y022786D03*
X058769Y022789D03*
X058769Y022792D03*
X058769Y022795D03*
X058769Y022798D03*
X058769Y022801D03*
X058769Y022804D03*
X058769Y022807D03*
X058769Y022810D03*
X058769Y022813D03*
X058769Y022816D03*
X058769Y022819D03*
X058769Y022822D03*
X058769Y022825D03*
X058769Y022828D03*
X058769Y022831D03*
X058769Y022834D03*
X058769Y022837D03*
X058769Y022840D03*
X058769Y022843D03*
X058769Y022846D03*
X058769Y022849D03*
X058769Y022852D03*
X058769Y022855D03*
X058769Y022858D03*
X058769Y022861D03*
X058769Y022864D03*
X058769Y022867D03*
X058769Y022870D03*
X058769Y022873D03*
X058769Y022876D03*
X058769Y022879D03*
X058769Y022882D03*
X058769Y022885D03*
X058769Y022888D03*
X058769Y022891D03*
X058769Y022894D03*
X058769Y022897D03*
X058769Y022900D03*
X058769Y022903D03*
X058769Y022906D03*
X058769Y022909D03*
X058769Y022912D03*
X058769Y022915D03*
X058769Y022918D03*
X058769Y022921D03*
X058769Y022924D03*
X058769Y022927D03*
X058769Y022930D03*
X058769Y022933D03*
X058769Y022936D03*
X058769Y022939D03*
X058769Y022942D03*
X058769Y022945D03*
X058769Y022948D03*
X058769Y022951D03*
X058769Y022954D03*
X058769Y022957D03*
X058769Y022960D03*
X058769Y022963D03*
X058769Y022966D03*
X058769Y022969D03*
X058769Y022972D03*
X058769Y022975D03*
X058769Y022978D03*
X058769Y022981D03*
X058769Y022984D03*
X058769Y022987D03*
X058769Y022990D03*
X058769Y022993D03*
X058769Y022996D03*
X058769Y022999D03*
X058769Y023002D03*
X058769Y023005D03*
X058769Y023008D03*
X058769Y023011D03*
X058769Y023014D03*
X058769Y023017D03*
X058769Y023020D03*
X058769Y023023D03*
X058769Y023026D03*
X058769Y023029D03*
X058769Y023032D03*
X058769Y023035D03*
X058769Y023038D03*
X058769Y023041D03*
X058769Y023044D03*
X058769Y023047D03*
X058769Y023050D03*
X058769Y023053D03*
X058769Y023056D03*
X058769Y023059D03*
X058769Y023062D03*
X058769Y023065D03*
X058769Y023068D03*
X058769Y023071D03*
X058769Y023074D03*
X058769Y023077D03*
X058769Y023080D03*
X058769Y023083D03*
X058769Y023086D03*
X058769Y023089D03*
X058769Y023092D03*
X058769Y023095D03*
X058769Y023098D03*
X058769Y023101D03*
X058769Y023104D03*
X058769Y023107D03*
X058769Y023110D03*
X058769Y023113D03*
X058769Y023116D03*
X058769Y023119D03*
X058769Y023122D03*
X058769Y023125D03*
X058769Y023128D03*
X058769Y023131D03*
X058769Y023134D03*
X058769Y023137D03*
X058769Y023140D03*
X058769Y023143D03*
X058769Y023146D03*
X058769Y023149D03*
X058769Y023152D03*
X058769Y023155D03*
X058769Y023158D03*
X058769Y023161D03*
X058769Y023164D03*
X058769Y023167D03*
X058769Y023170D03*
X058769Y023173D03*
X058769Y023176D03*
X058769Y023179D03*
X058769Y023182D03*
X058769Y023185D03*
X058769Y023188D03*
X058769Y023191D03*
X058769Y023194D03*
X058769Y023197D03*
X058769Y023200D03*
X058769Y023203D03*
X058769Y023206D03*
X058769Y023209D03*
X058769Y023212D03*
X058769Y023215D03*
X058769Y023218D03*
X058769Y023221D03*
X058769Y023224D03*
X059045Y023125D03*
X059045Y023122D03*
X059045Y023119D03*
X059045Y023116D03*
X059045Y023113D03*
X059045Y023110D03*
X059045Y023107D03*
X059045Y023104D03*
X059045Y023101D03*
X059045Y023098D03*
X059045Y023095D03*
X059045Y023092D03*
X059045Y023089D03*
X059045Y023086D03*
X059045Y023083D03*
X059045Y023080D03*
X059045Y023077D03*
X059045Y023074D03*
X059045Y023071D03*
X059045Y023068D03*
X059045Y023065D03*
X059045Y023062D03*
X059045Y023059D03*
X059045Y023056D03*
X059045Y023053D03*
X059045Y023050D03*
X059045Y023047D03*
X059045Y023044D03*
X059045Y023041D03*
X059045Y023038D03*
X059045Y023035D03*
X059045Y023032D03*
X059045Y023029D03*
X059045Y023026D03*
X059045Y023023D03*
X059045Y023020D03*
X059045Y023017D03*
X059045Y023014D03*
X059045Y023011D03*
X059045Y023008D03*
X059045Y023005D03*
X059045Y023002D03*
X059045Y022999D03*
X059045Y022996D03*
X059045Y022993D03*
X059045Y022990D03*
X059045Y022987D03*
X059045Y022984D03*
X059045Y022981D03*
X059045Y022978D03*
X059045Y022975D03*
X059045Y022972D03*
X059045Y022969D03*
X059045Y022966D03*
X059045Y022963D03*
X059045Y022861D03*
X059045Y022858D03*
X059045Y022855D03*
X059045Y022852D03*
X059045Y022849D03*
X059045Y022846D03*
X059045Y022843D03*
X059045Y022840D03*
X059045Y022837D03*
X059045Y022834D03*
X059045Y022831D03*
X059045Y022828D03*
X059045Y022825D03*
X059045Y022822D03*
X059045Y022819D03*
X059045Y022816D03*
X059045Y022813D03*
X059045Y022810D03*
X059045Y022807D03*
X059045Y022804D03*
X059045Y022801D03*
X059045Y022798D03*
X059045Y022795D03*
X059045Y022792D03*
X059045Y022789D03*
X059045Y022786D03*
X059045Y022783D03*
X059045Y022780D03*
X059045Y022777D03*
X059045Y022774D03*
X059045Y022771D03*
X059045Y022768D03*
X059045Y022765D03*
X059045Y022762D03*
X059045Y022759D03*
X059045Y022756D03*
X059045Y022753D03*
X059045Y022750D03*
X059045Y022747D03*
X059045Y022744D03*
X059045Y022741D03*
X059045Y022738D03*
X059045Y022735D03*
X059045Y022732D03*
X059045Y022729D03*
X059045Y022726D03*
X059045Y022723D03*
X059045Y022720D03*
X059045Y022717D03*
X059045Y022714D03*
X059045Y022711D03*
X059045Y022708D03*
X059045Y022705D03*
X059045Y022702D03*
X059045Y022699D03*
X059045Y022696D03*
X059648Y022699D03*
X059648Y022702D03*
X059648Y022705D03*
X059648Y022708D03*
X059648Y022711D03*
X059648Y022714D03*
X059648Y022717D03*
X059648Y022720D03*
X059648Y022723D03*
X059648Y022726D03*
X059648Y022729D03*
X059648Y022732D03*
X059648Y022735D03*
X059648Y022738D03*
X059648Y022741D03*
X059648Y022744D03*
X059648Y022747D03*
X059648Y022750D03*
X059648Y022753D03*
X059648Y022756D03*
X059648Y022759D03*
X059648Y022762D03*
X059648Y022765D03*
X059648Y022768D03*
X059648Y022771D03*
X059648Y022774D03*
X059648Y022777D03*
X059648Y022780D03*
X059648Y022783D03*
X059648Y022786D03*
X059648Y022789D03*
X059648Y022792D03*
X059648Y022795D03*
X059648Y022798D03*
X059648Y022801D03*
X059648Y022804D03*
X059648Y022807D03*
X059648Y022810D03*
X059648Y022813D03*
X059648Y022816D03*
X059648Y022819D03*
X059648Y022822D03*
X059648Y022825D03*
X059648Y022828D03*
X059648Y022831D03*
X059648Y022834D03*
X059648Y022837D03*
X059648Y022840D03*
X059648Y022843D03*
X059648Y022846D03*
X059648Y022849D03*
X059648Y022852D03*
X059648Y022855D03*
X059648Y022858D03*
X059648Y022861D03*
X059648Y022864D03*
X059648Y022867D03*
X059648Y022870D03*
X059648Y022873D03*
X059648Y022876D03*
X059648Y022879D03*
X059648Y022882D03*
X059648Y022885D03*
X059648Y022888D03*
X059648Y022891D03*
X059648Y022894D03*
X059648Y022897D03*
X059648Y022900D03*
X059648Y022903D03*
X059648Y022906D03*
X059648Y022909D03*
X059648Y022912D03*
X059648Y022915D03*
X059648Y022918D03*
X059648Y022921D03*
X059648Y022924D03*
X059648Y022927D03*
X059648Y022930D03*
X059648Y022933D03*
X059648Y022936D03*
X059648Y022939D03*
X059648Y022942D03*
X059648Y022945D03*
X059648Y022948D03*
X059648Y022951D03*
X059648Y022954D03*
X059648Y022957D03*
X059648Y022960D03*
X059648Y022963D03*
X059648Y022966D03*
X059648Y022969D03*
X059648Y022972D03*
X059648Y022975D03*
X059648Y022978D03*
X059648Y022981D03*
X059648Y022984D03*
X059648Y022987D03*
X059648Y022990D03*
X059648Y022993D03*
X059648Y022996D03*
X059648Y022999D03*
X059648Y023002D03*
X059648Y023005D03*
X059648Y023008D03*
X059648Y023011D03*
X059648Y023014D03*
X059648Y023017D03*
X059648Y023020D03*
X059648Y023023D03*
X059648Y023026D03*
X059648Y023029D03*
X059648Y023032D03*
X059648Y023035D03*
X059648Y023038D03*
X059648Y023041D03*
X059648Y023044D03*
X059648Y023047D03*
X059648Y023050D03*
X059648Y023053D03*
X059648Y023056D03*
X059648Y023059D03*
X059648Y023062D03*
X059648Y023065D03*
X059648Y023068D03*
X059648Y023071D03*
X059648Y023074D03*
X059648Y023077D03*
X059648Y023080D03*
X059648Y023083D03*
X059648Y023086D03*
X059648Y023089D03*
X059648Y023092D03*
X059648Y023095D03*
X059648Y023098D03*
X059648Y023101D03*
X059648Y023104D03*
X059648Y023107D03*
X059648Y023110D03*
X059648Y023113D03*
X059648Y023116D03*
X059648Y023119D03*
X059648Y023122D03*
X059648Y023125D03*
X059648Y023128D03*
X059648Y023131D03*
X059648Y023134D03*
X059648Y023137D03*
X059648Y023140D03*
X059648Y023143D03*
X059648Y023146D03*
X059648Y023149D03*
X059648Y023152D03*
X059648Y023155D03*
X059648Y023158D03*
X059648Y023161D03*
X059648Y023164D03*
X059648Y023167D03*
X059648Y023170D03*
X059648Y023173D03*
X059648Y023176D03*
X059648Y023179D03*
X059648Y023182D03*
X059648Y023185D03*
X059648Y023188D03*
X059648Y023191D03*
X059648Y023194D03*
X059648Y023197D03*
X059648Y023200D03*
X059648Y023203D03*
X059648Y023206D03*
X059648Y023209D03*
X059648Y023212D03*
X059648Y023215D03*
X059648Y023218D03*
X059648Y023221D03*
X059648Y023224D03*
X060206Y023122D03*
X060206Y023119D03*
X060206Y023116D03*
X060206Y023113D03*
X060206Y023110D03*
X060206Y023107D03*
X060206Y023104D03*
X060206Y023101D03*
X060206Y023098D03*
X060206Y023095D03*
X060206Y023092D03*
X060206Y023089D03*
X060206Y023086D03*
X060206Y023083D03*
X060206Y023080D03*
X060206Y023077D03*
X060206Y023074D03*
X060206Y023071D03*
X060206Y023068D03*
X060206Y023065D03*
X060206Y023062D03*
X060206Y023059D03*
X060206Y023056D03*
X060206Y023053D03*
X060206Y023050D03*
X060206Y023047D03*
X060206Y023044D03*
X060206Y023041D03*
X060206Y023038D03*
X060206Y023035D03*
X060206Y023032D03*
X060206Y023029D03*
X060206Y023026D03*
X060206Y023023D03*
X060206Y023020D03*
X060206Y023017D03*
X060206Y023014D03*
X060206Y023011D03*
X060206Y023008D03*
X060206Y023005D03*
X060206Y023002D03*
X060206Y022999D03*
X060206Y022996D03*
X060206Y022993D03*
X060206Y022990D03*
X060206Y022987D03*
X060206Y022984D03*
X060206Y022981D03*
X060206Y022978D03*
X060206Y022975D03*
X060206Y022972D03*
X060206Y022969D03*
X060206Y022966D03*
X060206Y022963D03*
X060206Y022960D03*
X060206Y022957D03*
X060206Y022954D03*
X060206Y022951D03*
X060206Y022948D03*
X060206Y022945D03*
X060206Y022942D03*
X060206Y022939D03*
X060206Y022936D03*
X060206Y022933D03*
X060206Y022930D03*
X060206Y022927D03*
X060206Y022924D03*
X060206Y022921D03*
X060206Y022918D03*
X060206Y022915D03*
X060206Y022912D03*
X060206Y022909D03*
X060206Y022906D03*
X060206Y022903D03*
X060206Y022900D03*
X060206Y022897D03*
X060206Y022894D03*
X060206Y022891D03*
X060206Y022888D03*
X060206Y022885D03*
X060206Y022882D03*
X060206Y022879D03*
X060206Y022876D03*
X060206Y022873D03*
X060206Y022870D03*
X060206Y022867D03*
X060206Y022864D03*
X060206Y022861D03*
X060206Y022858D03*
X060206Y022855D03*
X060206Y022852D03*
X060206Y022849D03*
X060206Y022846D03*
X060206Y022843D03*
X060206Y022840D03*
X060206Y022837D03*
X060206Y022834D03*
X060206Y022831D03*
X060206Y022828D03*
X060206Y022825D03*
X060206Y022822D03*
X060206Y022819D03*
X060206Y022816D03*
X060206Y022813D03*
X060206Y022810D03*
X060206Y022807D03*
X060206Y022804D03*
X060206Y022801D03*
X060206Y022798D03*
X060206Y022795D03*
X060206Y022792D03*
X060206Y022789D03*
X060206Y022786D03*
X060206Y022783D03*
X060206Y022780D03*
X060206Y022777D03*
X060206Y022774D03*
X060206Y022771D03*
X060206Y022768D03*
X060206Y022765D03*
X060206Y022762D03*
X060206Y022759D03*
X060206Y022756D03*
X060206Y022753D03*
X060206Y022750D03*
X060206Y022747D03*
X060206Y022744D03*
X060206Y022741D03*
X060206Y022738D03*
X060206Y022735D03*
X060206Y022732D03*
X060206Y022729D03*
X060206Y022726D03*
X060206Y022723D03*
X060206Y022720D03*
X060206Y022717D03*
X060206Y022714D03*
X060206Y022711D03*
X060206Y022708D03*
X060206Y022705D03*
X060206Y022702D03*
X060206Y022699D03*
D16*
X060386Y023143D03*
X059225Y022693D03*
X059225Y022690D03*
X059225Y022687D03*
X059225Y022684D03*
X059225Y022681D03*
X059225Y022678D03*
X059225Y022675D03*
X059225Y022672D03*
X059225Y022669D03*
X059225Y022666D03*
X059225Y022663D03*
X059225Y022660D03*
X059225Y022657D03*
X059225Y022654D03*
X059225Y022651D03*
X059225Y022648D03*
X059225Y022645D03*
X059225Y022642D03*
X059225Y022639D03*
X059225Y022636D03*
X059225Y022633D03*
X059225Y022630D03*
X059225Y022627D03*
X059225Y022624D03*
X059225Y022621D03*
X059225Y022618D03*
X059225Y022615D03*
X059225Y022612D03*
X059225Y022609D03*
X059225Y022606D03*
X059225Y022603D03*
X059225Y022600D03*
X059225Y022597D03*
X056708Y023143D03*
X055548Y022693D03*
X055548Y022690D03*
X055548Y022687D03*
X055548Y022684D03*
X055548Y022681D03*
X055548Y022678D03*
X055548Y022675D03*
X055548Y022672D03*
X055548Y022669D03*
X055548Y022666D03*
X055548Y022663D03*
X055548Y022660D03*
X055548Y022657D03*
X055548Y022654D03*
X055548Y022651D03*
X055548Y022648D03*
X055548Y022645D03*
X055548Y022642D03*
X055548Y022639D03*
X055548Y022636D03*
X055548Y022633D03*
X055548Y022630D03*
X055548Y022627D03*
X055548Y022624D03*
X055548Y022621D03*
X055548Y022618D03*
X055548Y022615D03*
X055548Y022612D03*
X055548Y022609D03*
X055548Y022606D03*
X055548Y022603D03*
X055548Y022600D03*
X055548Y022597D03*
D17*
X056135Y022597D03*
X056135Y022600D03*
X056135Y022603D03*
X056135Y022606D03*
X056135Y022609D03*
X056135Y022612D03*
X056135Y022615D03*
X056135Y022618D03*
X056135Y022621D03*
X056135Y022624D03*
X056135Y022627D03*
X056135Y022630D03*
X056135Y022633D03*
X056135Y022636D03*
X056135Y022639D03*
X056135Y022642D03*
X056135Y022645D03*
X056135Y022648D03*
X056135Y022651D03*
X056135Y022654D03*
X056135Y022657D03*
X056135Y022660D03*
X056135Y022663D03*
X056135Y022666D03*
X056135Y022669D03*
X056135Y022672D03*
X056135Y022675D03*
X056135Y022678D03*
X056135Y022681D03*
X056135Y022684D03*
X056135Y022687D03*
X056135Y022690D03*
X056135Y022693D03*
X056135Y022696D03*
X059813Y022696D03*
X059813Y022693D03*
X059813Y022690D03*
X059813Y022687D03*
X059813Y022684D03*
X059813Y022681D03*
X059813Y022678D03*
X059813Y022675D03*
X059813Y022672D03*
X059813Y022669D03*
X059813Y022666D03*
X059813Y022663D03*
X059813Y022660D03*
X059813Y022657D03*
X059813Y022654D03*
X059813Y022651D03*
X059813Y022648D03*
X059813Y022645D03*
X059813Y022642D03*
X059813Y022639D03*
X059813Y022636D03*
X059813Y022633D03*
X059813Y022630D03*
X059813Y022627D03*
X059813Y022624D03*
X059813Y022621D03*
X059813Y022618D03*
X059813Y022615D03*
X059813Y022612D03*
X059813Y022609D03*
X059813Y022606D03*
X059813Y022603D03*
X059813Y022600D03*
X059813Y022597D03*
D18*
X060288Y022597D03*
X060288Y023224D03*
X057723Y022876D03*
X056609Y022597D03*
X056609Y023224D03*
X054044Y022876D03*
D19*
X054098Y022852D03*
X053984Y022600D03*
X057663Y022600D03*
X057776Y022852D03*
D20*
X056621Y022600D03*
X056621Y023221D03*
D21*
X060299Y023221D03*
X060299Y022600D03*
D22*
X057661Y022603D03*
X053983Y022603D03*
D23*
X053996Y022903D03*
X053988Y022909D03*
X053973Y022918D03*
X053981Y023194D03*
X056630Y023218D03*
X057641Y022924D03*
X057648Y022921D03*
X057650Y022918D03*
X057665Y022909D03*
X057656Y022624D03*
X056630Y022603D03*
D24*
X057674Y022903D03*
X057659Y023194D03*
X060308Y023218D03*
X060308Y022603D03*
X053978Y022624D03*
X053969Y022921D03*
X053963Y022924D03*
D25*
X053983Y022606D03*
X057661Y022606D03*
D26*
X056636Y022606D03*
X056636Y023215D03*
D27*
X060314Y023215D03*
X060314Y022606D03*
D28*
X057659Y022609D03*
X053981Y022609D03*
D29*
X056642Y022609D03*
X060320Y022609D03*
D30*
X057656Y023206D03*
X053981Y022612D03*
D31*
X056648Y022612D03*
X056648Y023209D03*
X060326Y023209D03*
X060326Y022612D03*
D32*
X057728Y022873D03*
X057659Y022612D03*
X054050Y022873D03*
X053978Y023206D03*
D33*
X053921Y022948D03*
X053981Y022615D03*
X057599Y022948D03*
X057659Y022615D03*
D34*
X056653Y022615D03*
X056653Y023206D03*
X053974Y022639D03*
D35*
X057652Y022639D03*
X060331Y022615D03*
X060331Y023206D03*
D36*
X057611Y022942D03*
X057656Y022618D03*
X053978Y022618D03*
X053933Y022942D03*
D37*
X053972Y022642D03*
X056657Y022618D03*
X057650Y022642D03*
X056657Y023203D03*
X060335Y023203D03*
X060335Y022618D03*
D38*
X057695Y022891D03*
X057626Y022933D03*
X057659Y023197D03*
X057656Y022621D03*
X054018Y022891D03*
X053949Y022933D03*
X053981Y023197D03*
X053979Y022621D03*
D39*
X056660Y022621D03*
X056660Y023200D03*
D40*
X060338Y023200D03*
X060338Y022621D03*
D41*
X060343Y022624D03*
X060343Y023197D03*
X056665Y023197D03*
X056665Y022624D03*
D42*
X057655Y022627D03*
X053977Y022627D03*
D43*
X056668Y022627D03*
X056668Y023194D03*
D44*
X060346Y023194D03*
X060346Y022627D03*
D45*
X057655Y022630D03*
X053977Y022630D03*
D46*
X053971Y022651D03*
X053989Y023161D03*
X056671Y023191D03*
X057667Y023161D03*
X057649Y022651D03*
X056671Y022630D03*
X060349Y022630D03*
X060349Y023191D03*
D47*
X053975Y022633D03*
D48*
X056674Y022633D03*
D49*
X057653Y022633D03*
D50*
X060352Y022633D03*
D51*
X057652Y022636D03*
X053974Y022636D03*
D52*
X053968Y022657D03*
X053980Y023140D03*
X053986Y023149D03*
X056677Y023185D03*
X057658Y023140D03*
X057664Y023149D03*
X057646Y022657D03*
X056677Y022636D03*
X060355Y022636D03*
X060355Y023185D03*
D53*
X060358Y023182D03*
X060358Y022639D03*
X057646Y022660D03*
X056680Y022639D03*
X056680Y023182D03*
X053968Y022660D03*
D54*
X056683Y022642D03*
X056683Y023179D03*
D55*
X060361Y023179D03*
X060361Y022642D03*
D56*
X057650Y022645D03*
X053973Y022645D03*
D57*
X053966Y022663D03*
X056684Y022645D03*
X057644Y022663D03*
X060363Y022645D03*
D58*
X057650Y022648D03*
X057665Y023167D03*
X053987Y023167D03*
X053972Y022648D03*
D59*
X053966Y022666D03*
X056687Y022648D03*
X057644Y022666D03*
X056687Y023173D03*
X060365Y023173D03*
X060365Y022648D03*
D60*
X056690Y022651D03*
X056690Y023170D03*
D61*
X060368Y023170D03*
X060368Y022651D03*
D62*
X057647Y022654D03*
X053969Y022654D03*
D63*
X053965Y022672D03*
X056692Y022654D03*
X057643Y022672D03*
X056692Y023167D03*
X060370Y023167D03*
X060370Y022654D03*
D64*
X060373Y022657D03*
X060373Y023164D03*
X057643Y022675D03*
X056695Y022657D03*
X056695Y023164D03*
X053965Y022675D03*
D65*
X056696Y022660D03*
X056696Y023161D03*
D66*
X060374Y023161D03*
X060374Y022660D03*
D67*
X057640Y022678D03*
X056698Y022663D03*
D68*
X053962Y022678D03*
X060376Y022663D03*
D69*
X060379Y022666D03*
X060379Y023155D03*
X057640Y022681D03*
X056701Y022666D03*
X056701Y023155D03*
X053962Y022681D03*
D70*
X053965Y022669D03*
X057643Y022669D03*
D71*
X056702Y022669D03*
X056702Y023152D03*
X060380Y023152D03*
X060380Y022669D03*
D72*
X056704Y022672D03*
X056704Y023149D03*
D73*
X057640Y022684D03*
X060382Y022672D03*
X060382Y023149D03*
X053962Y022684D03*
D74*
X056705Y022675D03*
D75*
X060383Y022675D03*
D76*
X060385Y022678D03*
X060385Y023146D03*
X059224Y023146D03*
X059224Y023143D03*
X059224Y023140D03*
X059224Y023137D03*
X059224Y023134D03*
X059224Y023131D03*
X059224Y023128D03*
X059224Y023149D03*
X059224Y023152D03*
X059224Y023155D03*
X059224Y023158D03*
X059224Y023161D03*
X059224Y023164D03*
X059224Y023167D03*
X059224Y023170D03*
X059224Y023173D03*
X059224Y023176D03*
X059224Y023179D03*
X059224Y023182D03*
X059224Y023185D03*
X059224Y023188D03*
X059224Y023191D03*
X059224Y023194D03*
X059224Y023197D03*
X059224Y023200D03*
X059224Y023203D03*
X059224Y023206D03*
X059224Y023209D03*
X059224Y023212D03*
X059224Y023215D03*
X059224Y023218D03*
X059224Y023221D03*
X059224Y023224D03*
X056707Y023146D03*
X055546Y023146D03*
X055546Y023143D03*
X055546Y023140D03*
X055546Y023137D03*
X055546Y023134D03*
X055546Y023131D03*
X055546Y023128D03*
X055546Y023149D03*
X055546Y023152D03*
X055546Y023155D03*
X055546Y023158D03*
X055546Y023161D03*
X055546Y023164D03*
X055546Y023167D03*
X055546Y023170D03*
X055546Y023173D03*
X055546Y023176D03*
X055546Y023179D03*
X055546Y023182D03*
X055546Y023185D03*
X055546Y023188D03*
X055546Y023191D03*
X055546Y023194D03*
X055546Y023197D03*
X055546Y023200D03*
X055546Y023203D03*
X055546Y023206D03*
X055546Y023209D03*
X055546Y023212D03*
X055546Y023215D03*
X055546Y023218D03*
X055546Y023221D03*
X055546Y023224D03*
X056707Y022678D03*
D77*
X056710Y022681D03*
X056710Y023140D03*
X060388Y023140D03*
X060388Y022681D03*
D78*
X056711Y022684D03*
X056711Y023137D03*
D79*
X060389Y023137D03*
X060389Y022684D03*
D80*
X057755Y022861D03*
X057566Y022963D03*
X057521Y022687D03*
X054078Y022861D03*
X053888Y022963D03*
X053843Y022687D03*
D81*
X056713Y022687D03*
X056713Y023134D03*
D82*
X060391Y023134D03*
X060391Y022687D03*
D83*
X057655Y023218D03*
X057553Y022969D03*
X053875Y022969D03*
X053833Y022690D03*
D84*
X054116Y022690D03*
X056909Y022729D03*
X056909Y023092D03*
X057794Y022690D03*
X060587Y022729D03*
X060587Y023092D03*
D85*
X060393Y023131D03*
X060393Y022690D03*
X056714Y022690D03*
X056714Y023131D03*
D86*
X057511Y022690D03*
X053977Y023218D03*
D87*
X053828Y022693D03*
D88*
X056716Y022693D03*
X056716Y023128D03*
X060394Y023128D03*
X060394Y022693D03*
D89*
X057506Y022693D03*
D90*
X056884Y022711D03*
X053824Y022696D03*
D91*
X054125Y022696D03*
X053843Y023128D03*
X053972Y023227D03*
X056924Y023077D03*
X056927Y023074D03*
X056930Y023071D03*
X056924Y022744D03*
X057494Y022705D03*
X057509Y022996D03*
X057650Y023227D03*
X057809Y022831D03*
X057803Y022696D03*
X060602Y022744D03*
X060608Y023071D03*
X060605Y023074D03*
X060602Y023077D03*
D92*
X060395Y023125D03*
X060395Y022696D03*
X056717Y022696D03*
X056717Y023125D03*
D93*
X057502Y022696D03*
X060562Y022711D03*
D94*
X060577Y022720D03*
X060580Y023098D03*
X057652Y023224D03*
X057526Y022984D03*
X057499Y022699D03*
X056899Y022720D03*
X056902Y023098D03*
X053974Y023224D03*
X053848Y022984D03*
X053821Y022699D03*
D95*
X054130Y022699D03*
X054139Y022825D03*
X056938Y022759D03*
X056941Y022762D03*
X056944Y023053D03*
X056941Y023056D03*
X056941Y023059D03*
X056938Y023062D03*
X057817Y022825D03*
X057808Y022699D03*
X060616Y022759D03*
X060619Y022762D03*
X060622Y023053D03*
X060619Y023056D03*
X060619Y023059D03*
X060616Y023062D03*
D96*
X057559Y022966D03*
X056854Y023122D03*
X056854Y022699D03*
D97*
X053881Y022966D03*
X060532Y023122D03*
X060532Y022699D03*
D98*
X060592Y022732D03*
X060595Y023086D03*
X060592Y023089D03*
X057526Y023131D03*
X057517Y022990D03*
X057496Y022702D03*
X056914Y022732D03*
X056917Y023086D03*
X056914Y023089D03*
X053848Y023131D03*
X053839Y022990D03*
X053818Y022702D03*
D99*
X053825Y023002D03*
X054140Y022822D03*
X054131Y022702D03*
X056943Y022765D03*
X056945Y022768D03*
X056951Y023041D03*
X056945Y023050D03*
X057513Y023122D03*
X060626Y023047D03*
X060626Y022774D03*
X060620Y022765D03*
D100*
X060542Y022702D03*
X060542Y023119D03*
X057770Y022855D03*
X056864Y022702D03*
X056864Y023119D03*
X054092Y022855D03*
D101*
X053834Y023122D03*
X056948Y023047D03*
X056948Y022774D03*
X057503Y023002D03*
X057818Y022822D03*
X057809Y022702D03*
X060623Y022768D03*
X060629Y023041D03*
X060623Y023050D03*
D102*
X057521Y023128D03*
X054131Y022831D03*
X053816Y022705D03*
X053831Y022996D03*
D103*
X053821Y023008D03*
X053830Y023119D03*
X053812Y022711D03*
X054136Y022705D03*
X056947Y022771D03*
X056950Y022777D03*
X056953Y022780D03*
X056956Y022786D03*
X056956Y023035D03*
X056953Y023038D03*
X056950Y023044D03*
X057502Y023005D03*
X057508Y023119D03*
X057490Y022711D03*
X060625Y022771D03*
X060628Y022777D03*
X060631Y022780D03*
X060637Y023029D03*
X060631Y023038D03*
X060628Y023044D03*
D104*
X060550Y023116D03*
X060550Y022705D03*
X056872Y022705D03*
X056872Y023116D03*
D105*
X056959Y023029D03*
X057499Y023008D03*
X057814Y022705D03*
X060634Y022786D03*
X060634Y023035D03*
X053824Y023005D03*
D106*
X053828Y022999D03*
X053838Y023125D03*
X054104Y023125D03*
X053813Y022708D03*
X056930Y022750D03*
X056933Y022753D03*
X056936Y022756D03*
X056936Y023065D03*
X057506Y022999D03*
X057515Y023125D03*
X057783Y023125D03*
X057491Y022708D03*
X060608Y022750D03*
X060611Y022753D03*
X060614Y022756D03*
X060614Y023065D03*
D107*
X060643Y023017D03*
X060643Y023014D03*
X060646Y023011D03*
X060646Y023008D03*
X060649Y023002D03*
X060649Y022999D03*
X060646Y022813D03*
X060646Y022810D03*
X060643Y022807D03*
X060643Y022804D03*
X060640Y022801D03*
X060640Y022798D03*
X060637Y022792D03*
X057826Y022813D03*
X057820Y022711D03*
X057817Y022708D03*
X057496Y023011D03*
X056971Y023002D03*
X056971Y022999D03*
X056968Y023008D03*
X056968Y023011D03*
X056965Y023014D03*
X056965Y023017D03*
X056968Y022813D03*
X056968Y022810D03*
X056965Y022807D03*
X056965Y022804D03*
X056962Y022801D03*
X056962Y022798D03*
X056959Y022792D03*
X054148Y022813D03*
X054142Y022711D03*
X054139Y022708D03*
X053818Y023011D03*
D108*
X053857Y022978D03*
X054088Y023134D03*
X056884Y023110D03*
X056878Y022708D03*
X057535Y022978D03*
X057766Y023134D03*
X060562Y023110D03*
X060556Y022708D03*
D109*
X060655Y022840D03*
X060655Y022843D03*
X060658Y022849D03*
X060658Y022852D03*
X060658Y022855D03*
X060658Y022858D03*
X060664Y022891D03*
X060664Y022894D03*
X060664Y022897D03*
X060664Y022900D03*
X060664Y022903D03*
X060664Y022906D03*
X060664Y022909D03*
X060664Y022912D03*
X060664Y022915D03*
X060664Y022918D03*
X060664Y022921D03*
X060664Y022924D03*
X060664Y022927D03*
X060664Y022930D03*
X060664Y022933D03*
X060658Y022963D03*
X060658Y022966D03*
X060658Y022969D03*
X060655Y022981D03*
X057829Y022807D03*
X057829Y022804D03*
X057823Y022717D03*
X057493Y023020D03*
X057499Y023107D03*
X056980Y022969D03*
X056980Y022966D03*
X056980Y022963D03*
X056983Y022957D03*
X056983Y022954D03*
X056983Y022951D03*
X056983Y022948D03*
X056983Y022945D03*
X056983Y022942D03*
X056983Y022879D03*
X056983Y022876D03*
X056983Y022873D03*
X056983Y022870D03*
X056983Y022867D03*
X056983Y022864D03*
X056980Y022858D03*
X056980Y022855D03*
X056980Y022852D03*
X056980Y022849D03*
X056974Y022831D03*
X054145Y022717D03*
X053809Y022714D03*
X053815Y023020D03*
X053818Y023101D03*
D110*
X053823Y023110D03*
X053825Y023113D03*
X053816Y023017D03*
X053816Y023014D03*
X054149Y022810D03*
X054144Y022714D03*
X056969Y022816D03*
X056969Y022819D03*
X056973Y022822D03*
X056973Y022825D03*
X056973Y022828D03*
X056975Y022834D03*
X056975Y022837D03*
X056979Y022846D03*
X056981Y022960D03*
X056979Y022972D03*
X056979Y022975D03*
X056979Y022978D03*
X056975Y022984D03*
X056975Y022987D03*
X056975Y022990D03*
X056973Y022993D03*
X056973Y022996D03*
X056969Y023005D03*
X057494Y023014D03*
X057494Y023017D03*
X057500Y023110D03*
X057504Y023113D03*
X057828Y022810D03*
X057821Y022714D03*
X060648Y022816D03*
X060648Y022819D03*
X060650Y022822D03*
X060650Y022825D03*
X060650Y022828D03*
X060654Y022834D03*
X060654Y022837D03*
X060656Y022846D03*
X060659Y022960D03*
X060656Y022972D03*
X060656Y022975D03*
X060656Y022978D03*
X060654Y022984D03*
X060654Y022987D03*
X060654Y022990D03*
X060650Y022993D03*
X060650Y022996D03*
X060648Y023005D03*
D111*
X057530Y022981D03*
X056888Y023107D03*
X056888Y022714D03*
X053852Y022981D03*
D112*
X053821Y023107D03*
X054151Y022807D03*
X054151Y022804D03*
X056977Y022840D03*
X056977Y022843D03*
X056986Y022891D03*
X056986Y022894D03*
X056986Y022897D03*
X056986Y022900D03*
X056986Y022903D03*
X056986Y022906D03*
X056986Y022909D03*
X056986Y022912D03*
X056986Y022915D03*
X056986Y022918D03*
X056986Y022921D03*
X056986Y022924D03*
X056986Y022927D03*
X056986Y022930D03*
X056986Y022933D03*
X056977Y022981D03*
X057496Y023101D03*
X057487Y022714D03*
X060652Y022831D03*
X060661Y022864D03*
X060661Y022867D03*
X060661Y022870D03*
X060661Y022873D03*
X060661Y022876D03*
X060661Y022879D03*
X060661Y022942D03*
X060661Y022945D03*
X060661Y022948D03*
X060661Y022951D03*
X060661Y022954D03*
X060661Y022957D03*
D113*
X060566Y023107D03*
X060566Y022714D03*
D114*
X060573Y022717D03*
X060575Y023101D03*
X056898Y023101D03*
X056894Y022717D03*
D115*
X057485Y022720D03*
X053808Y022720D03*
D116*
X054146Y022720D03*
X053816Y023098D03*
X056981Y022861D03*
X057491Y023023D03*
D117*
X057482Y022723D03*
X057794Y023113D03*
X054116Y023113D03*
X053804Y022723D03*
D118*
X053842Y022987D03*
X056905Y023095D03*
X056905Y022726D03*
X056902Y022723D03*
X057520Y022987D03*
X057802Y022837D03*
X060580Y022723D03*
X060583Y022726D03*
X060583Y023095D03*
D119*
X054118Y023110D03*
X053803Y022726D03*
D120*
X057481Y022726D03*
X057796Y023110D03*
D121*
X057799Y023107D03*
X057481Y022729D03*
X054121Y023107D03*
X053803Y022729D03*
D122*
X053809Y023035D03*
X053809Y023038D03*
X053809Y023041D03*
X053812Y023086D03*
X053812Y023089D03*
X053815Y023092D03*
X053815Y023095D03*
X053971Y023230D03*
X054157Y022792D03*
X054157Y022789D03*
X054157Y022786D03*
X054157Y022783D03*
X054154Y022738D03*
X054154Y022735D03*
X054151Y022729D03*
X057487Y023035D03*
X057487Y023038D03*
X057487Y023041D03*
X057490Y023086D03*
X057490Y023089D03*
X057493Y023092D03*
X057493Y023095D03*
X057649Y023230D03*
X057835Y022792D03*
X057835Y022789D03*
X057835Y022786D03*
X057835Y022783D03*
X057832Y022738D03*
X057832Y022735D03*
X057829Y022729D03*
D123*
X057800Y023104D03*
X054123Y023104D03*
X053801Y022732D03*
D124*
X057479Y022732D03*
D125*
X057806Y022834D03*
X057779Y023128D03*
X056919Y023083D03*
X056915Y022735D03*
X054129Y022834D03*
X054101Y023128D03*
X060596Y023083D03*
X060594Y022735D03*
D126*
X057478Y022738D03*
X053800Y022738D03*
D127*
X053798Y022741D03*
D128*
X057476Y022741D03*
D129*
X057476Y022744D03*
X053798Y022744D03*
D130*
X053797Y022747D03*
X054130Y023089D03*
X057475Y022747D03*
X057808Y023089D03*
D131*
X057814Y022828D03*
X056929Y022747D03*
X056932Y023068D03*
X054136Y022828D03*
X060607Y022747D03*
X060610Y023068D03*
D132*
X057475Y022750D03*
X053797Y022750D03*
D133*
X053809Y023074D03*
X054157Y022750D03*
X057487Y023074D03*
X057835Y022750D03*
D134*
X053797Y022753D03*
D135*
X057475Y022753D03*
D136*
X057475Y022756D03*
X053797Y022756D03*
D137*
X053794Y022759D03*
X054133Y023080D03*
X057472Y022759D03*
X057811Y023080D03*
D138*
X053794Y022762D03*
D139*
X057472Y022762D03*
D140*
X057472Y022765D03*
X053794Y022765D03*
D141*
X053828Y023116D03*
X054107Y023122D03*
X054143Y022819D03*
X054146Y022816D03*
X056954Y022783D03*
X056957Y022789D03*
X056960Y022795D03*
X056963Y023020D03*
X056960Y023023D03*
X056960Y023026D03*
X056957Y023032D03*
X057506Y023116D03*
X057785Y023122D03*
X057821Y022819D03*
X057824Y022816D03*
X060632Y022783D03*
X060635Y022789D03*
X060638Y022795D03*
X060641Y023020D03*
X060638Y023023D03*
X060638Y023026D03*
X060635Y023032D03*
D142*
X054124Y022837D03*
D143*
X054119Y022840D03*
X057533Y023134D03*
X057773Y023131D03*
D144*
X057798Y022840D03*
X054095Y023131D03*
X053855Y023134D03*
D145*
X054110Y022846D03*
X057789Y022846D03*
D146*
X057782Y022849D03*
X054104Y022849D03*
D147*
X054086Y022858D03*
X057764Y022858D03*
D148*
X057748Y022864D03*
X057655Y023212D03*
X054070Y022864D03*
D149*
X054605Y022864D03*
X054605Y022867D03*
X054605Y022870D03*
X054605Y022873D03*
X054605Y022876D03*
X054605Y022879D03*
X054605Y022882D03*
X054605Y022885D03*
X054605Y022888D03*
X054605Y022891D03*
X054605Y022894D03*
X054605Y022897D03*
X054605Y022900D03*
X054605Y022903D03*
X054605Y022906D03*
X054605Y022909D03*
X054605Y022912D03*
X054605Y022915D03*
X054605Y022918D03*
X054605Y022921D03*
X054605Y022924D03*
X054605Y022927D03*
X054605Y022930D03*
X054605Y022933D03*
X054605Y022936D03*
X054605Y022939D03*
X054605Y022942D03*
X054605Y022945D03*
X054605Y022948D03*
X054605Y022951D03*
X054605Y022954D03*
X054605Y022957D03*
X054605Y022960D03*
X054605Y022963D03*
D150*
X055525Y022960D03*
X055525Y022957D03*
X055525Y022954D03*
X055525Y022951D03*
X055525Y022948D03*
X055525Y022945D03*
X055525Y022942D03*
X055525Y022939D03*
X055525Y022936D03*
X055525Y022933D03*
X055525Y022930D03*
X055525Y022927D03*
X055525Y022924D03*
X055525Y022921D03*
X055525Y022918D03*
X055525Y022915D03*
X055525Y022912D03*
X055525Y022909D03*
X055525Y022906D03*
X055525Y022903D03*
X055525Y022900D03*
X055525Y022897D03*
X055525Y022894D03*
X055525Y022891D03*
X055525Y022888D03*
X055525Y022885D03*
X055525Y022882D03*
X055525Y022879D03*
X055525Y022876D03*
X055525Y022873D03*
X055525Y022870D03*
X055525Y022867D03*
X055525Y022864D03*
X056686Y023176D03*
X059203Y022960D03*
X059203Y022957D03*
X059203Y022954D03*
X059203Y022951D03*
X059203Y022948D03*
X059203Y022945D03*
X059203Y022942D03*
X059203Y022939D03*
X059203Y022936D03*
X059203Y022933D03*
X059203Y022930D03*
X059203Y022927D03*
X059203Y022924D03*
X059203Y022921D03*
X059203Y022918D03*
X059203Y022915D03*
X059203Y022912D03*
X059203Y022909D03*
X059203Y022906D03*
X059203Y022903D03*
X059203Y022900D03*
X059203Y022897D03*
X059203Y022894D03*
X059203Y022891D03*
X059203Y022888D03*
X059203Y022885D03*
X059203Y022882D03*
X059203Y022879D03*
X059203Y022876D03*
X059203Y022873D03*
X059203Y022870D03*
X059203Y022867D03*
X059203Y022864D03*
X060364Y023176D03*
D151*
X058283Y022963D03*
X058283Y022960D03*
X058283Y022957D03*
X058283Y022954D03*
X058283Y022951D03*
X058283Y022948D03*
X058283Y022945D03*
X058283Y022942D03*
X058283Y022939D03*
X058283Y022936D03*
X058283Y022933D03*
X058283Y022930D03*
X058283Y022927D03*
X058283Y022924D03*
X058283Y022921D03*
X058283Y022918D03*
X058283Y022915D03*
X058283Y022912D03*
X058283Y022909D03*
X058283Y022906D03*
X058283Y022903D03*
X058283Y022900D03*
X058283Y022897D03*
X058283Y022894D03*
X058283Y022891D03*
X058283Y022888D03*
X058283Y022885D03*
X058283Y022882D03*
X058283Y022879D03*
X058283Y022876D03*
X058283Y022873D03*
X058283Y022870D03*
X058283Y022867D03*
X058283Y022864D03*
D152*
X054064Y022867D03*
D153*
X053902Y022957D03*
X057580Y022957D03*
X057742Y022867D03*
D154*
X057736Y022870D03*
X054058Y022870D03*
D155*
X054040Y022879D03*
X053980Y023203D03*
X057658Y023203D03*
X057718Y022879D03*
D156*
X057712Y022882D03*
X054034Y022882D03*
D157*
X054028Y022885D03*
X053938Y022939D03*
X053980Y023200D03*
X057616Y022939D03*
X057706Y022885D03*
X057658Y023200D03*
D158*
X057622Y022936D03*
X054022Y022888D03*
D159*
X053944Y022936D03*
X057700Y022888D03*
D160*
X057689Y022894D03*
X057632Y022930D03*
X054011Y022894D03*
X053954Y022930D03*
D161*
X054001Y022900D03*
X054007Y022897D03*
X057637Y022927D03*
X057685Y022897D03*
D162*
X057679Y022900D03*
X053959Y022927D03*
D163*
X053977Y022915D03*
X053983Y022912D03*
X053992Y022906D03*
X057655Y022915D03*
X057661Y022912D03*
X057670Y022906D03*
D164*
X057605Y022945D03*
X053928Y022945D03*
D165*
X053914Y022951D03*
D166*
X057592Y022951D03*
D167*
X057588Y022954D03*
X053909Y022954D03*
D168*
X053894Y022960D03*
X057573Y022960D03*
D169*
X057547Y022972D03*
X053869Y022972D03*
D170*
X053863Y022975D03*
X056878Y023113D03*
X057541Y022975D03*
X057652Y023221D03*
X060556Y023113D03*
D171*
X057812Y023074D03*
X054134Y023074D03*
D172*
X054134Y023077D03*
D173*
X057813Y023077D03*
D174*
X054131Y023083D03*
D175*
X057809Y023083D03*
D176*
X057809Y023086D03*
X054131Y023086D03*
D177*
X054128Y023092D03*
D178*
X057806Y023092D03*
D179*
X057805Y023095D03*
X054127Y023095D03*
D180*
X054125Y023098D03*
X057804Y023098D03*
D181*
X057802Y023101D03*
X057649Y023233D03*
X054124Y023101D03*
X053971Y023233D03*
D182*
X053990Y023155D03*
X053988Y023152D03*
X053984Y023146D03*
X053981Y023143D03*
X053978Y023137D03*
X057656Y023137D03*
X057659Y023143D03*
X057663Y023146D03*
X057665Y023152D03*
X057668Y023155D03*
D183*
X056675Y023188D03*
X053990Y023158D03*
D184*
X056699Y023158D03*
X060378Y023158D03*
D185*
X060353Y023188D03*
X057668Y023158D03*
D186*
X057665Y023164D03*
X053988Y023164D03*
D187*
X053986Y023170D03*
X057664Y023170D03*
D188*
X053986Y023173D03*
D189*
X057664Y023173D03*
D190*
X057664Y023176D03*
X053986Y023176D03*
D191*
X053984Y023179D03*
X057662Y023179D03*
D192*
X057661Y023182D03*
X053983Y023182D03*
D193*
X053983Y023185D03*
X057661Y023185D03*
X060322Y023212D03*
D194*
X053983Y023188D03*
D195*
X057661Y023188D03*
D196*
X057659Y023191D03*
X053981Y023191D03*
D197*
X053978Y023209D03*
D198*
X057656Y023209D03*
D199*
X053977Y023212D03*
D200*
X056644Y023212D03*
D201*
X057655Y023215D03*
X053977Y023215D03*
D202*
X053974Y023221D03*
D203*
X054169Y022072D03*
D204*
X054610Y022072D03*
D205*
X054256Y022160D03*
X054256Y022162D03*
X054256Y022163D03*
X054256Y022165D03*
X054258Y022168D03*
X054258Y022170D03*
X054258Y022171D03*
X054258Y022173D03*
X054258Y022175D03*
X054258Y022176D03*
X054258Y022178D03*
X054258Y022179D03*
X054258Y022181D03*
X054258Y022183D03*
X054258Y022184D03*
X054258Y022186D03*
X054256Y022192D03*
X054168Y022074D03*
X054083Y022143D03*
X053930Y022208D03*
X053933Y022216D03*
X053934Y022219D03*
X053934Y022221D03*
X053936Y022224D03*
X053936Y022226D03*
X053938Y022227D03*
X053938Y022229D03*
X053939Y022232D03*
X053939Y022234D03*
X053941Y022235D03*
X053941Y022237D03*
X053941Y022239D03*
X053942Y022240D03*
X053942Y022242D03*
X053944Y022243D03*
X053944Y022245D03*
X053944Y022247D03*
X053947Y022253D03*
X053947Y022255D03*
X053950Y022261D03*
X053822Y022219D03*
X053822Y022218D03*
X053822Y022216D03*
X053824Y022215D03*
X053824Y022213D03*
X053827Y022207D03*
X053827Y022205D03*
X053830Y022199D03*
X053830Y022197D03*
X053834Y022189D03*
X053837Y022181D03*
X053821Y022221D03*
X053821Y022223D03*
X053819Y022226D03*
X053819Y022227D03*
X053818Y022231D03*
X053816Y022234D03*
X053816Y022235D03*
X053814Y022239D03*
X053811Y022247D03*
D206*
X054610Y022074D03*
X054611Y022418D03*
D207*
X054528Y022351D03*
X054694Y022347D03*
X054696Y022346D03*
X054693Y022141D03*
X054526Y022144D03*
X054240Y022133D03*
X054243Y022216D03*
X054168Y022075D03*
X053878Y022103D03*
D208*
X053878Y022095D03*
X054083Y022139D03*
X054155Y022274D03*
X054157Y022275D03*
X054158Y022277D03*
X054160Y022279D03*
X054162Y022280D03*
X054163Y022282D03*
X054165Y022283D03*
X054166Y022285D03*
X054168Y022287D03*
X054170Y022288D03*
X054171Y022290D03*
X054173Y022291D03*
X054173Y022293D03*
X054174Y022295D03*
X054176Y022296D03*
X054178Y022298D03*
X054179Y022299D03*
X054181Y022301D03*
X054182Y022303D03*
X054184Y022304D03*
X054186Y022306D03*
X054187Y022307D03*
X054189Y022309D03*
X054190Y022311D03*
X054192Y022312D03*
X054194Y022314D03*
X054195Y022315D03*
X054197Y022317D03*
X054198Y022319D03*
X054214Y022336D03*
X054216Y022338D03*
X054218Y022339D03*
X054219Y022341D03*
X054221Y022343D03*
X054222Y022344D03*
X054248Y022210D03*
X054246Y022139D03*
X054512Y022165D03*
X054514Y022162D03*
X054515Y022160D03*
X054517Y022157D03*
X054610Y022075D03*
X054702Y022154D03*
X054704Y022157D03*
X054706Y022159D03*
X054707Y022162D03*
X054709Y022327D03*
X054707Y022328D03*
X054707Y022330D03*
X054706Y022331D03*
X054704Y022335D03*
X054611Y022416D03*
X054518Y022338D03*
X054517Y022335D03*
X054515Y022333D03*
X054514Y022330D03*
X054990Y022408D03*
D209*
X054998Y022413D03*
X054929Y022354D03*
X054082Y022144D03*
X053878Y022077D03*
D210*
X053878Y022115D03*
X053878Y022117D03*
X054167Y022077D03*
X054233Y022128D03*
X054540Y022131D03*
X054681Y022360D03*
D211*
X054687Y022355D03*
X054610Y022415D03*
X054534Y022355D03*
X054534Y022136D03*
X054610Y022077D03*
X054687Y022136D03*
X053878Y022109D03*
X053878Y022107D03*
D212*
X053878Y022079D03*
X053906Y022147D03*
X053907Y022149D03*
X053907Y022151D03*
X053907Y022152D03*
X053909Y022154D03*
X053909Y022155D03*
X053910Y022157D03*
X053910Y022159D03*
X053910Y022160D03*
X053912Y022162D03*
X053912Y022163D03*
X053914Y022167D03*
X053914Y022168D03*
X053915Y022170D03*
X053915Y022171D03*
X053917Y022175D03*
X053917Y022176D03*
X053918Y022179D03*
X053922Y022187D03*
X053846Y022157D03*
X053846Y022155D03*
X053848Y022152D03*
X053850Y022149D03*
X053850Y022147D03*
X053845Y022160D03*
X053843Y022165D03*
X053842Y022168D03*
X053840Y022173D03*
D213*
X053878Y022130D03*
X054166Y022079D03*
X054165Y022269D03*
X054549Y022365D03*
X054549Y022127D03*
X054672Y022127D03*
D214*
X054710Y022168D03*
X054710Y022170D03*
X054714Y022175D03*
X054714Y022176D03*
X054720Y022296D03*
X054717Y022306D03*
X054717Y022307D03*
X054714Y022315D03*
X054510Y022322D03*
X054510Y022323D03*
X054507Y022317D03*
X054507Y022315D03*
X054506Y022312D03*
X054502Y022189D03*
X054504Y022184D03*
X054506Y022181D03*
X054506Y022179D03*
X054507Y022176D03*
X054381Y022143D03*
X054381Y022141D03*
X054381Y022139D03*
X054381Y022138D03*
X054381Y022136D03*
X054381Y022135D03*
X054381Y022133D03*
X054381Y022131D03*
X054381Y022130D03*
X054381Y022128D03*
X054381Y022127D03*
X054381Y022125D03*
X054381Y022123D03*
X054381Y022122D03*
X054381Y022120D03*
X054381Y022119D03*
X054381Y022117D03*
X054381Y022115D03*
X054381Y022114D03*
X054381Y022112D03*
X054381Y022111D03*
X054381Y022109D03*
X054381Y022107D03*
X054381Y022106D03*
X054381Y022104D03*
X054381Y022103D03*
X054381Y022101D03*
X054381Y022099D03*
X054381Y022098D03*
X054381Y022096D03*
X054381Y022095D03*
X054381Y022093D03*
X054381Y022091D03*
X054381Y022090D03*
X054381Y022088D03*
X054381Y022087D03*
X054381Y022085D03*
X054381Y022083D03*
X054381Y022082D03*
X054381Y022080D03*
X054381Y022079D03*
X054250Y022144D03*
X054248Y022143D03*
X054251Y022205D03*
X054083Y022141D03*
D215*
X054229Y022127D03*
X053878Y022122D03*
X054546Y022363D03*
X054611Y022413D03*
X054610Y022079D03*
D216*
X054709Y022165D03*
X054712Y022171D03*
X054712Y022173D03*
X054715Y022179D03*
X054718Y022303D03*
X054715Y022311D03*
X054715Y022312D03*
X054712Y022319D03*
X054512Y022327D03*
X054509Y022320D03*
X054509Y022319D03*
X054838Y022143D03*
X054838Y022141D03*
X054838Y022139D03*
X054838Y022138D03*
X054838Y022136D03*
X054838Y022135D03*
X054838Y022133D03*
X054838Y022131D03*
X054838Y022130D03*
X054838Y022128D03*
X054838Y022127D03*
X054838Y022125D03*
X054838Y022123D03*
X054838Y022122D03*
X054838Y022120D03*
X054838Y022119D03*
X054838Y022117D03*
X054838Y022115D03*
X054838Y022114D03*
X054838Y022112D03*
X054838Y022111D03*
X054838Y022109D03*
X054838Y022107D03*
X054838Y022106D03*
X054838Y022104D03*
X054838Y022103D03*
X054838Y022101D03*
X054838Y022099D03*
X054838Y022098D03*
X054838Y022096D03*
X054838Y022095D03*
X054838Y022093D03*
X054838Y022091D03*
X054838Y022090D03*
X054838Y022088D03*
X054838Y022087D03*
X054838Y022085D03*
X054838Y022083D03*
X054838Y022082D03*
X054838Y022080D03*
X054838Y022079D03*
D217*
X054995Y022079D03*
X054995Y022080D03*
X054995Y022082D03*
X054995Y022083D03*
X054995Y022085D03*
X054995Y022087D03*
X054995Y022088D03*
X054995Y022090D03*
X054995Y022091D03*
X054995Y022093D03*
X054995Y022095D03*
X054995Y022096D03*
X054995Y022098D03*
X054995Y022099D03*
X054995Y022101D03*
X054995Y022103D03*
X054995Y022104D03*
X054995Y022106D03*
X054995Y022107D03*
X054995Y022109D03*
X054995Y022111D03*
X054995Y022112D03*
X054995Y022114D03*
X054995Y022115D03*
X054995Y022117D03*
X054995Y022119D03*
X054995Y022120D03*
X054995Y022122D03*
X054995Y022123D03*
X054995Y022125D03*
X054995Y022127D03*
X054995Y022128D03*
X054995Y022130D03*
X054995Y022131D03*
X054995Y022133D03*
X054995Y022135D03*
X054995Y022136D03*
X054995Y022138D03*
X054995Y022139D03*
X054995Y022141D03*
X054995Y022143D03*
X054995Y022144D03*
X054995Y022146D03*
X054995Y022147D03*
X054995Y022149D03*
X054995Y022151D03*
X054995Y022152D03*
X054995Y022154D03*
X054995Y022155D03*
X054995Y022157D03*
X054995Y022159D03*
X054995Y022160D03*
X054995Y022162D03*
X054995Y022163D03*
X054995Y022165D03*
X054995Y022167D03*
X054995Y022168D03*
X054995Y022170D03*
X054995Y022171D03*
X054995Y022173D03*
X054995Y022175D03*
X054995Y022176D03*
X054995Y022178D03*
X054995Y022179D03*
X054995Y022181D03*
X054995Y022183D03*
X054995Y022184D03*
X054995Y022186D03*
X054995Y022187D03*
X054995Y022189D03*
X054995Y022191D03*
X054995Y022192D03*
X054995Y022194D03*
X054995Y022195D03*
X054995Y022197D03*
X054995Y022199D03*
X054995Y022200D03*
X054995Y022202D03*
X054995Y022203D03*
X054995Y022205D03*
X054995Y022207D03*
X054995Y022208D03*
X054995Y022210D03*
X054995Y022211D03*
X054995Y022213D03*
X054995Y022215D03*
X054995Y022216D03*
X054995Y022218D03*
X054995Y022219D03*
X054995Y022221D03*
X054995Y022223D03*
X054995Y022224D03*
X054995Y022226D03*
X054995Y022227D03*
X054995Y022229D03*
X054995Y022231D03*
X054995Y022232D03*
X054995Y022234D03*
X054995Y022235D03*
X054995Y022237D03*
X054995Y022239D03*
X054995Y022240D03*
X054995Y022242D03*
X054995Y022243D03*
X054995Y022245D03*
X054995Y022247D03*
X054995Y022248D03*
X054995Y022250D03*
X054995Y022251D03*
X054995Y022253D03*
X054995Y022255D03*
X054995Y022256D03*
X054995Y022258D03*
X054995Y022259D03*
X054995Y022261D03*
X054995Y022263D03*
X054995Y022264D03*
X054995Y022266D03*
X054995Y022267D03*
X054995Y022269D03*
X054995Y022271D03*
X054995Y022272D03*
X054995Y022274D03*
X054995Y022275D03*
X054995Y022277D03*
X054995Y022279D03*
X054995Y022280D03*
X054995Y022282D03*
X054995Y022283D03*
X054995Y022285D03*
X054995Y022287D03*
X054995Y022288D03*
X054995Y022290D03*
X054995Y022291D03*
X054995Y022293D03*
X054995Y022295D03*
X054995Y022296D03*
X054995Y022298D03*
X054995Y022299D03*
X054995Y022301D03*
X054995Y022303D03*
X054995Y022304D03*
X054995Y022306D03*
X054995Y022307D03*
X054995Y022309D03*
X054995Y022311D03*
X054995Y022312D03*
X054995Y022314D03*
X054995Y022315D03*
X054995Y022317D03*
X054995Y022319D03*
X054995Y022320D03*
X054995Y022322D03*
X054995Y022323D03*
X054995Y022325D03*
X054995Y022327D03*
X054995Y022328D03*
X054995Y022330D03*
X054995Y022331D03*
X054995Y022333D03*
X054995Y022335D03*
X054995Y022336D03*
X054995Y022338D03*
X054995Y022339D03*
X054995Y022341D03*
X054995Y022343D03*
X054995Y022344D03*
X054995Y022346D03*
X054995Y022347D03*
X054995Y022349D03*
X054995Y022351D03*
X054995Y022352D03*
X054995Y022354D03*
X054995Y022355D03*
X054995Y022411D03*
X053955Y022274D03*
X053952Y022266D03*
X053949Y022258D03*
X053949Y022256D03*
X053946Y022250D03*
X053946Y022248D03*
X053826Y022211D03*
X053826Y022210D03*
X053826Y022208D03*
X053829Y022202D03*
X053832Y022194D03*
D218*
X053831Y022195D03*
X053833Y022192D03*
X053833Y022191D03*
X053834Y022187D03*
X053834Y022186D03*
X053836Y022184D03*
X053836Y022183D03*
X053838Y022179D03*
X053838Y022178D03*
X053839Y022176D03*
X053839Y022175D03*
X053841Y022171D03*
X053841Y022170D03*
X053842Y022167D03*
X053844Y022163D03*
X053844Y022162D03*
X053846Y022159D03*
X053847Y022154D03*
X053849Y022151D03*
X053830Y022200D03*
X053828Y022203D03*
X053913Y022165D03*
X053916Y022173D03*
X053918Y022178D03*
X053919Y022181D03*
X053919Y022183D03*
X053921Y022184D03*
X053921Y022186D03*
X053922Y022189D03*
X053922Y022191D03*
X053924Y022192D03*
X053924Y022194D03*
X053924Y022195D03*
X053926Y022197D03*
X053926Y022199D03*
X053927Y022200D03*
X053927Y022202D03*
X053927Y022203D03*
X053929Y022205D03*
X053929Y022207D03*
X053930Y022210D03*
X053930Y022211D03*
X053932Y022213D03*
X053932Y022215D03*
X053934Y022218D03*
X053935Y022223D03*
X053938Y022231D03*
X053878Y022082D03*
X053878Y022080D03*
D219*
X054166Y022080D03*
D220*
X054090Y022130D03*
X053878Y022131D03*
X053878Y022133D03*
X054610Y022080D03*
X054671Y022365D03*
X054610Y022411D03*
D221*
X054173Y022263D03*
X054166Y022082D03*
D222*
X053878Y022141D03*
X054610Y022082D03*
X054611Y022410D03*
D223*
X054495Y022264D03*
X054726Y022227D03*
X054932Y022355D03*
X054255Y022195D03*
X054255Y022194D03*
X054255Y022159D03*
X054255Y022157D03*
X053958Y022279D03*
X053958Y022280D03*
X053958Y022282D03*
X053959Y022283D03*
X053959Y022285D03*
X053961Y022287D03*
X053961Y022288D03*
X053961Y022290D03*
X053962Y022291D03*
X053962Y022293D03*
X053964Y022296D03*
X053966Y022299D03*
X053966Y022301D03*
X053969Y022309D03*
X053972Y022317D03*
X053956Y022277D03*
X053956Y022275D03*
X053954Y022272D03*
X053954Y022271D03*
X053953Y022269D03*
X053953Y022267D03*
X053951Y022264D03*
X053951Y022263D03*
X053950Y022259D03*
X053946Y022251D03*
X053818Y022229D03*
X053815Y022237D03*
X053812Y022243D03*
X053812Y022245D03*
X053809Y022251D03*
X053809Y022253D03*
X053809Y022255D03*
X053806Y022261D03*
X053806Y022263D03*
X053804Y022264D03*
X053804Y022266D03*
X053802Y022269D03*
X053802Y022271D03*
X053801Y022274D03*
X053799Y022277D03*
X053798Y022282D03*
X053878Y022085D03*
X053878Y022083D03*
D224*
X054166Y022083D03*
D225*
X054610Y022083D03*
D226*
X054166Y022085D03*
X054183Y022253D03*
X054959Y022383D03*
X054959Y022384D03*
X054959Y022386D03*
D227*
X054610Y022407D03*
X054610Y022085D03*
X054212Y022229D03*
X054177Y022259D03*
D228*
X054253Y022202D03*
X054254Y022199D03*
X054254Y022197D03*
X054254Y022155D03*
X054253Y022152D03*
X054253Y022151D03*
X054498Y022208D03*
X054498Y022210D03*
X054498Y022211D03*
X054496Y022216D03*
X054496Y022218D03*
X054496Y022219D03*
X054496Y022221D03*
X054496Y022223D03*
X054496Y022224D03*
X054496Y022226D03*
X054494Y022229D03*
X054494Y022231D03*
X054494Y022232D03*
X054494Y022234D03*
X054494Y022235D03*
X054494Y022237D03*
X054494Y022239D03*
X054494Y022240D03*
X054494Y022242D03*
X054494Y022243D03*
X054494Y022245D03*
X054494Y022247D03*
X054494Y022248D03*
X054494Y022250D03*
X054494Y022251D03*
X054494Y022253D03*
X054494Y022255D03*
X054494Y022256D03*
X054494Y022258D03*
X054494Y022259D03*
X054494Y022261D03*
X054494Y022263D03*
X054496Y022266D03*
X054496Y022267D03*
X054496Y022269D03*
X054496Y022271D03*
X054496Y022272D03*
X054496Y022274D03*
X054496Y022275D03*
X054496Y022277D03*
X054498Y022279D03*
X054498Y022280D03*
X054498Y022282D03*
X054498Y022283D03*
X054498Y022285D03*
X054499Y022288D03*
X054499Y022290D03*
X054499Y022291D03*
X054501Y022296D03*
X054502Y022303D03*
X054499Y022202D03*
X054718Y022189D03*
X054720Y022195D03*
X054722Y022200D03*
X054722Y022202D03*
X054722Y022203D03*
X054723Y022207D03*
X054723Y022208D03*
X054723Y022210D03*
X054723Y022211D03*
X054723Y022213D03*
X054725Y022216D03*
X054725Y022218D03*
X054725Y022219D03*
X054725Y022221D03*
X054725Y022223D03*
X054725Y022224D03*
X054725Y022226D03*
X054726Y022229D03*
X054726Y022231D03*
X054726Y022232D03*
X054726Y022234D03*
X054726Y022235D03*
X054726Y022237D03*
X054726Y022239D03*
X054726Y022240D03*
X054726Y022242D03*
X054726Y022243D03*
X054726Y022245D03*
X054726Y022247D03*
X054726Y022248D03*
X054726Y022250D03*
X054726Y022251D03*
X054726Y022253D03*
X054726Y022255D03*
X054726Y022256D03*
X054726Y022258D03*
X054726Y022259D03*
X054726Y022261D03*
X054726Y022263D03*
X054725Y022266D03*
X054725Y022267D03*
X054725Y022269D03*
X054725Y022271D03*
X054725Y022272D03*
X054725Y022274D03*
X054725Y022275D03*
X054723Y022279D03*
X054723Y022280D03*
X054723Y022282D03*
X054723Y022283D03*
X054722Y022288D03*
X054722Y022290D03*
X053978Y022330D03*
X053976Y022328D03*
X053976Y022327D03*
X053974Y022325D03*
X053974Y022323D03*
X053974Y022322D03*
X053973Y022320D03*
X053973Y022319D03*
X053971Y022315D03*
X053971Y022314D03*
X053970Y022312D03*
X053970Y022311D03*
X053968Y022307D03*
X053968Y022306D03*
X053966Y022303D03*
X053965Y022298D03*
X053963Y022295D03*
X053806Y022259D03*
X053803Y022267D03*
X053802Y022272D03*
X053800Y022275D03*
X053798Y022279D03*
X053798Y022280D03*
X053797Y022283D03*
X053797Y022285D03*
X053795Y022287D03*
X053795Y022288D03*
X053795Y022290D03*
X053794Y022291D03*
X053794Y022293D03*
X053792Y022295D03*
X053792Y022296D03*
X053792Y022298D03*
X053790Y022299D03*
X053790Y022301D03*
X053789Y022304D03*
X053787Y022307D03*
X053787Y022309D03*
X053786Y022312D03*
X053784Y022317D03*
X053781Y022325D03*
X053878Y022087D03*
D229*
X054166Y022087D03*
X054188Y022248D03*
D230*
X054180Y022256D03*
X054610Y022405D03*
X054610Y022087D03*
X054961Y022370D03*
X054961Y022371D03*
X054961Y022373D03*
X054961Y022375D03*
D231*
X054993Y022410D03*
X054719Y022301D03*
X054719Y022299D03*
X054719Y022298D03*
X054721Y022295D03*
X054721Y022293D03*
X054721Y022291D03*
X054722Y022287D03*
X054722Y022285D03*
X054724Y022277D03*
X054726Y022264D03*
X054718Y022304D03*
X054716Y022309D03*
X054724Y022215D03*
X054722Y022205D03*
X054721Y022199D03*
X054721Y022197D03*
X054719Y022194D03*
X054719Y022192D03*
X054719Y022191D03*
X054718Y022187D03*
X054718Y022186D03*
X054716Y022184D03*
X054716Y022183D03*
X054716Y022181D03*
X054714Y022178D03*
X054505Y022183D03*
X054503Y022186D03*
X054503Y022187D03*
X054502Y022191D03*
X054502Y022192D03*
X054502Y022194D03*
X054500Y022195D03*
X054500Y022197D03*
X054500Y022199D03*
X054500Y022200D03*
X054498Y022203D03*
X054498Y022205D03*
X054498Y022207D03*
X054497Y022213D03*
X054497Y022215D03*
X054495Y022227D03*
X054498Y022287D03*
X054500Y022293D03*
X054500Y022295D03*
X054502Y022298D03*
X054502Y022299D03*
X054502Y022301D03*
X054503Y022304D03*
X054503Y022306D03*
X054505Y022307D03*
X054505Y022309D03*
X054505Y022311D03*
X054506Y022314D03*
X054254Y022200D03*
X054252Y022203D03*
X054252Y022149D03*
X054250Y022147D03*
X054250Y022146D03*
X053878Y022090D03*
X053878Y022088D03*
X053790Y022303D03*
X053788Y022306D03*
X053786Y022311D03*
X053785Y022314D03*
X053785Y022315D03*
X053783Y022319D03*
X053783Y022320D03*
X053782Y022322D03*
X053782Y022323D03*
X053780Y022327D03*
X053780Y022328D03*
X053778Y022330D03*
D232*
X054193Y022240D03*
X054166Y022088D03*
X054610Y022400D03*
D233*
X054611Y022403D03*
X054610Y022088D03*
D234*
X054610Y022093D03*
X054611Y022399D03*
X054197Y022232D03*
X054165Y022090D03*
D235*
X054610Y022090D03*
X054611Y022402D03*
D236*
X054514Y022331D03*
X054513Y022328D03*
X054511Y022325D03*
X054508Y022175D03*
X054508Y022173D03*
X054510Y022171D03*
X054510Y022170D03*
X054511Y022168D03*
X054511Y022167D03*
X054513Y022163D03*
X054708Y022163D03*
X054710Y022167D03*
X054714Y022314D03*
X054713Y022317D03*
X054711Y022320D03*
X054711Y022322D03*
X054710Y022323D03*
X054710Y022325D03*
X054249Y022208D03*
X053878Y022093D03*
X053878Y022091D03*
D237*
X054165Y022091D03*
X054610Y022095D03*
D238*
X054610Y022091D03*
X054194Y022239D03*
D239*
X054164Y022093D03*
D240*
X054165Y022095D03*
D241*
X054244Y022138D03*
X054247Y022211D03*
X054246Y022213D03*
X054199Y022320D03*
X054201Y022322D03*
X054202Y022323D03*
X054204Y022325D03*
X054206Y022327D03*
X054207Y022328D03*
X054209Y022330D03*
X054210Y022331D03*
X054212Y022333D03*
X054214Y022335D03*
X054223Y022346D03*
X054225Y022347D03*
X054226Y022349D03*
X054228Y022351D03*
X054230Y022352D03*
X054231Y022354D03*
X054233Y022355D03*
X054234Y022357D03*
X054236Y022359D03*
X054238Y022360D03*
X054239Y022362D03*
X054518Y022336D03*
X054519Y022339D03*
X054521Y022341D03*
X054702Y022338D03*
X054703Y022336D03*
X054705Y022333D03*
X054703Y022155D03*
X054702Y022152D03*
X054700Y022151D03*
X054518Y022155D03*
X054516Y022159D03*
X053878Y022098D03*
X053878Y022096D03*
D242*
X054164Y022096D03*
D243*
X054610Y022096D03*
X054611Y022395D03*
D244*
X054163Y022098D03*
D245*
X054610Y022098D03*
X054610Y022394D03*
D246*
X054526Y022347D03*
X054698Y022343D03*
X054695Y022144D03*
X054522Y022147D03*
X054522Y022149D03*
X054988Y022407D03*
X053878Y022101D03*
X053878Y022099D03*
D247*
X054163Y022099D03*
D248*
X054610Y022099D03*
X054611Y022392D03*
D249*
X054163Y022101D03*
D250*
X054610Y022101D03*
X054611Y022391D03*
D251*
X054163Y022103D03*
D252*
X054610Y022103D03*
X054610Y022389D03*
D253*
X054530Y022352D03*
X054692Y022351D03*
X054694Y022349D03*
X054690Y022139D03*
X054529Y022141D03*
X054527Y022143D03*
X054238Y022131D03*
X054241Y022218D03*
X053878Y022104D03*
D254*
X054163Y022104D03*
X054610Y022109D03*
D255*
X054610Y022104D03*
X054610Y022387D03*
D256*
X054531Y022354D03*
X054691Y022352D03*
X054690Y022138D03*
X054530Y022139D03*
X054240Y022219D03*
X054085Y022136D03*
X053878Y022106D03*
D257*
X054162Y022106D03*
D258*
X054610Y022106D03*
X054610Y022386D03*
D259*
X054610Y022112D03*
X054162Y022107D03*
D260*
X054610Y022107D03*
X054610Y022384D03*
D261*
X054162Y022109D03*
D262*
X054235Y022130D03*
X054237Y022221D03*
X053878Y022111D03*
D263*
X054162Y022111D03*
D264*
X054610Y022111D03*
D265*
X054684Y022133D03*
X054535Y022135D03*
X054537Y022359D03*
X054686Y022357D03*
X054086Y022135D03*
X053878Y022112D03*
D266*
X054162Y022112D03*
D267*
X054235Y022223D03*
X054538Y022133D03*
X054682Y022131D03*
X054683Y022359D03*
X054539Y022360D03*
X054982Y022403D03*
X053878Y022114D03*
D268*
X054162Y022114D03*
D269*
X054610Y022114D03*
D270*
X054162Y022115D03*
D271*
X054610Y022115D03*
X054610Y022376D03*
D272*
X054161Y022117D03*
D273*
X054610Y022117D03*
X054610Y022375D03*
D274*
X054679Y022362D03*
X054676Y022128D03*
X054542Y022130D03*
X054162Y022271D03*
X053878Y022120D03*
X053878Y022119D03*
X054980Y022402D03*
D275*
X054610Y022367D03*
X054610Y022125D03*
X054161Y022119D03*
X054167Y022363D03*
D276*
X054610Y022373D03*
X054610Y022119D03*
D277*
X054161Y022120D03*
X054169Y022367D03*
D278*
X054610Y022371D03*
X054610Y022120D03*
D279*
X054160Y022122D03*
X054170Y022368D03*
D280*
X054611Y022370D03*
X054610Y022122D03*
D281*
X054676Y022363D03*
X053878Y022125D03*
X053878Y022123D03*
D282*
X054160Y022123D03*
D283*
X054610Y022123D03*
X054611Y022368D03*
D284*
X054159Y022125D03*
D285*
X053878Y022127D03*
X053878Y022128D03*
D286*
X054099Y022127D03*
D287*
X054094Y022128D03*
X054223Y022227D03*
X053878Y022136D03*
X053878Y022135D03*
D288*
X054545Y022128D03*
D289*
X054678Y022130D03*
X054542Y022362D03*
X054232Y022224D03*
X054086Y022133D03*
D290*
X054088Y022131D03*
X054229Y022226D03*
X054978Y022400D03*
D291*
X054701Y022339D03*
X054699Y022341D03*
X054523Y022344D03*
X054522Y022343D03*
X054520Y022152D03*
X054698Y022147D03*
X054699Y022149D03*
X054243Y022136D03*
X054242Y022135D03*
X054245Y022215D03*
D292*
X054159Y022272D03*
X054535Y022357D03*
X054689Y022354D03*
X054686Y022135D03*
X054532Y022138D03*
X054985Y022405D03*
D293*
X054973Y022397D03*
X054166Y022267D03*
X053878Y022138D03*
D294*
X054084Y022138D03*
X054521Y022151D03*
X054524Y022146D03*
X054694Y022143D03*
X054697Y022146D03*
X054697Y022344D03*
X054527Y022349D03*
X054524Y022346D03*
D295*
X053878Y022139D03*
D296*
X054247Y022141D03*
X054250Y022207D03*
X054506Y022178D03*
X054706Y022160D03*
D297*
X054970Y022395D03*
X054169Y022266D03*
X053878Y022144D03*
X053878Y022143D03*
D298*
X053878Y022146D03*
D299*
X054082Y022146D03*
D300*
X054082Y022147D03*
D301*
X054082Y022149D03*
D302*
X054082Y022151D03*
D303*
X054082Y022152D03*
X054922Y022349D03*
D304*
X054082Y022154D03*
D305*
X054254Y022154D03*
X054257Y022167D03*
X054257Y022187D03*
X054257Y022189D03*
X054257Y022191D03*
X053967Y022304D03*
X053814Y022242D03*
X053814Y022240D03*
X053817Y022232D03*
X053820Y022224D03*
X053810Y022248D03*
X053810Y022250D03*
X053807Y022256D03*
X053807Y022258D03*
D306*
X054518Y022154D03*
D307*
X054082Y022155D03*
X054918Y022347D03*
D308*
X054082Y022157D03*
D309*
X054082Y022159D03*
X054915Y022346D03*
D310*
X054082Y022160D03*
D311*
X054082Y022162D03*
X054914Y022344D03*
D312*
X054082Y022163D03*
D313*
X054082Y022165D03*
D314*
X054082Y022167D03*
X054908Y022341D03*
D315*
X054082Y022168D03*
D316*
X054198Y022231D03*
D317*
X054196Y022234D03*
X054196Y022235D03*
X054194Y022237D03*
D318*
X054192Y022242D03*
X054190Y022243D03*
D319*
X054190Y022245D03*
D320*
X054189Y022247D03*
D321*
X054186Y022250D03*
D322*
X054185Y022251D03*
D323*
X054182Y022255D03*
X054960Y022376D03*
X054960Y022378D03*
X054960Y022379D03*
X054960Y022381D03*
X054960Y022389D03*
D324*
X054962Y022391D03*
X054962Y022362D03*
X054962Y022360D03*
X054962Y022359D03*
X054962Y022357D03*
X054178Y022258D03*
D325*
X054174Y022261D03*
D326*
X054171Y022264D03*
X054611Y022408D03*
X054968Y022394D03*
D327*
X054910Y022343D03*
D328*
X054924Y022351D03*
D329*
X054926Y022352D03*
X055000Y022415D03*
D330*
X054962Y022368D03*
X054962Y022367D03*
X054962Y022365D03*
X054962Y022363D03*
D331*
X054168Y022365D03*
D332*
X054170Y022370D03*
X054170Y022371D03*
X054170Y022373D03*
X054170Y022375D03*
X054170Y022376D03*
X054170Y022378D03*
X054170Y022379D03*
X054170Y022381D03*
X054170Y022383D03*
X054170Y022384D03*
X054170Y022386D03*
X054170Y022387D03*
X054170Y022389D03*
X054170Y022391D03*
X054170Y022392D03*
X054170Y022394D03*
X054170Y022395D03*
X054170Y022397D03*
X054170Y022399D03*
X054170Y022400D03*
X054170Y022402D03*
X054170Y022403D03*
X054170Y022405D03*
X054170Y022407D03*
X054170Y022408D03*
X054170Y022410D03*
X054170Y022411D03*
X054170Y022413D03*
D333*
X054610Y022378D03*
D334*
X054610Y022379D03*
D335*
X054611Y022381D03*
D336*
X054610Y022383D03*
D337*
X054958Y022387D03*
D338*
X054966Y022392D03*
D339*
X054610Y022397D03*
D340*
X054975Y022399D03*
D341*
X055002Y022416D03*
D342*
X054610Y022419D03*
D343*
X051740Y022883D03*
X050740Y022883D03*
X049740Y022883D03*
X048740Y022883D03*
X047740Y022883D03*
X046740Y022883D03*
X045740Y022883D03*
X044740Y022883D03*
X043240Y022883D03*
X042240Y022883D03*
X041240Y022883D03*
X040240Y022883D03*
X039240Y022883D03*
X038240Y022883D03*
X037240Y022883D03*
X036240Y022883D03*
X035240Y022883D03*
X034240Y022883D03*
X063690Y022933D03*
X064690Y022933D03*
X065690Y022933D03*
X065690Y018833D03*
X064690Y018833D03*
X063690Y018833D03*
X063340Y015883D03*
X062340Y015883D03*
X064340Y015883D03*
X064340Y014883D03*
X063340Y014883D03*
X062340Y014883D03*
X062340Y013883D03*
X063340Y013883D03*
X064340Y013883D03*
X064340Y012883D03*
X063340Y012883D03*
X062340Y012883D03*
X062340Y011883D03*
X063340Y011883D03*
X064340Y011883D03*
X064340Y010883D03*
X063340Y010883D03*
X062340Y010883D03*
X062340Y009883D03*
X063340Y009883D03*
X064340Y009883D03*
X064340Y008883D03*
X063340Y008883D03*
X062340Y008883D03*
X062340Y007883D03*
X063340Y007883D03*
X064340Y007883D03*
X064340Y006883D03*
X063340Y006883D03*
X062340Y006883D03*
X062340Y005883D03*
X063340Y005883D03*
X064340Y005883D03*
X064340Y004883D03*
X063340Y004883D03*
X062340Y004883D03*
X057340Y004883D03*
X056340Y004883D03*
X055340Y004883D03*
X055340Y005883D03*
X056340Y005883D03*
X057340Y005883D03*
X057340Y006883D03*
X056340Y006883D03*
X055340Y006883D03*
X055340Y007883D03*
X056340Y007883D03*
X057340Y007883D03*
X057340Y008883D03*
X056340Y008883D03*
X055340Y008883D03*
X055340Y009883D03*
X056340Y009883D03*
X057340Y009883D03*
X057340Y010883D03*
X056340Y010883D03*
X055340Y010883D03*
X055340Y011883D03*
X056340Y011883D03*
X057340Y011883D03*
X057340Y012883D03*
X056340Y012883D03*
X055340Y012883D03*
X055340Y013883D03*
X056340Y013883D03*
X057340Y013883D03*
X057340Y014883D03*
X056340Y014883D03*
X055340Y014883D03*
X055340Y015883D03*
X056340Y015883D03*
X057340Y015883D03*
X051740Y003883D03*
X050740Y003883D03*
X049740Y003883D03*
X048740Y003883D03*
X047740Y003883D03*
X046740Y003883D03*
X044740Y003883D03*
X043740Y003883D03*
X042740Y003883D03*
X041740Y003883D03*
X040740Y003883D03*
X039740Y003883D03*
X038740Y003883D03*
X037740Y003883D03*
D344*
X028756Y016483D03*
D345*
X031630Y017381D03*
X031630Y015586D03*
D346*
X031140Y019538D03*
X028340Y019538D03*
X028340Y021428D03*
X031140Y021428D03*
D347*
X033190Y017330D03*
X033190Y015637D03*
D348*
X029835Y023333D03*
X029245Y023333D03*
D349*
X028725Y023333D03*
X028055Y023333D03*
X038505Y020133D03*
X039175Y020133D03*
X047405Y020133D03*
X048075Y020133D03*
X048075Y016633D03*
X047405Y016633D03*
X050405Y016683D03*
X051075Y016683D03*
X059505Y016433D03*
X060175Y016433D03*
X064245Y017803D03*
X064915Y017803D03*
X064525Y019793D03*
X063855Y019793D03*
X042175Y016683D03*
X041505Y016683D03*
X039175Y016633D03*
X038505Y016633D03*
X059505Y013333D03*
X060175Y013333D03*
X059075Y009683D03*
X058405Y009683D03*
X058405Y007883D03*
X059075Y007883D03*
X059075Y006283D03*
X058405Y006283D03*
X058405Y004883D03*
X059075Y004883D03*
D350*
X028440Y012783D03*
D351*
X028440Y010815D03*
D352*
X058287Y010383D03*
X059193Y010383D03*
X059193Y008583D03*
X058287Y008583D03*
X058287Y006983D03*
X059193Y006983D03*
X059193Y005583D03*
X058287Y005583D03*
D353*
X028793Y006674D02*
X028793Y007461D01*
X031273Y007461D02*
X031273Y006674D01*
X030486Y005099D02*
X029698Y005099D01*
D354*
X039088Y017235D03*
X039344Y017235D03*
X039600Y017235D03*
X039856Y017235D03*
X040112Y017235D03*
X040368Y017235D03*
X040624Y017235D03*
X040880Y017235D03*
X041136Y017235D03*
X041392Y017235D03*
X047988Y017235D03*
X048244Y017235D03*
X048500Y017235D03*
X048756Y017235D03*
X049012Y017235D03*
X049268Y017235D03*
X049524Y017235D03*
X049780Y017235D03*
X050036Y017235D03*
X050292Y017235D03*
X050292Y019532D03*
X050036Y019532D03*
X049780Y019532D03*
X049524Y019532D03*
X049268Y019532D03*
X049012Y019532D03*
X048756Y019532D03*
X048500Y019532D03*
X048244Y019532D03*
X047988Y019532D03*
X041392Y019532D03*
X041136Y019532D03*
X040880Y019532D03*
X040624Y019532D03*
X040368Y019532D03*
X040112Y019532D03*
X039856Y019532D03*
X039600Y019532D03*
X039344Y019532D03*
X039088Y019532D03*
D355*
X063038Y020416D03*
X063038Y020672D03*
X063038Y020927D03*
X063038Y021183D03*
X063038Y021439D03*
X063038Y021695D03*
X063038Y021951D03*
X065342Y021951D03*
X065342Y021695D03*
X065342Y021439D03*
X065342Y021183D03*
X065342Y020927D03*
X065342Y020672D03*
X065342Y020416D03*
D356*
X060223Y015257D03*
X059357Y014883D03*
X060223Y014509D03*
X060223Y012607D03*
X059357Y012233D03*
X060223Y011859D03*
D357*
X060990Y011949D03*
X060990Y012618D03*
X060990Y014549D03*
X060990Y015218D03*
D358*
X062690Y018833D03*
X062690Y022933D03*
D359*
X053580Y022893D02*
X053350Y022843D01*
X053320Y022893D01*
X053578Y022893D01*
X053580Y022893D02*
X053350Y022943D01*
X053320Y022893D01*
X053325Y022901D02*
X053543Y022901D01*
X053539Y022884D02*
X053325Y022884D01*
X053330Y022876D02*
X053500Y022876D01*
X053504Y022910D02*
X053330Y022910D01*
X053335Y022918D02*
X053465Y022918D01*
X053426Y022927D02*
X053340Y022927D01*
X053345Y022935D02*
X053386Y022935D01*
X053422Y022859D02*
X053341Y022859D01*
X053346Y022850D02*
X053383Y022850D01*
X053336Y022867D02*
X053461Y022867D01*
X053322Y022782D02*
X052961Y022782D01*
X052955Y022774D02*
X053327Y022774D01*
X053333Y022765D02*
X053153Y022765D01*
X053140Y022773D02*
X053450Y022583D01*
X053250Y022893D01*
X053030Y022893D01*
X052830Y022573D01*
X053140Y022773D01*
X053128Y022765D02*
X052950Y022765D01*
X052945Y022757D02*
X053115Y022757D01*
X053101Y022748D02*
X052939Y022748D01*
X052934Y022740D02*
X053088Y022740D01*
X053075Y022731D02*
X052929Y022731D01*
X052923Y022723D02*
X053062Y022723D01*
X053049Y022714D02*
X052918Y022714D01*
X052913Y022706D02*
X053035Y022706D01*
X053022Y022697D02*
X052908Y022697D01*
X052902Y022689D02*
X053009Y022689D01*
X052996Y022680D02*
X052897Y022680D01*
X052892Y022672D02*
X052983Y022672D01*
X052970Y022663D02*
X052886Y022663D01*
X052881Y022655D02*
X052956Y022655D01*
X052943Y022646D02*
X052876Y022646D01*
X052870Y022638D02*
X052930Y022638D01*
X052917Y022629D02*
X052865Y022629D01*
X052860Y022621D02*
X052904Y022621D01*
X052891Y022612D02*
X052854Y022612D01*
X052849Y022604D02*
X052877Y022604D01*
X052864Y022595D02*
X052844Y022595D01*
X052838Y022587D02*
X052851Y022587D01*
X052838Y022578D02*
X052833Y022578D01*
X052966Y022791D02*
X053316Y022791D01*
X053311Y022799D02*
X052971Y022799D01*
X052977Y022808D02*
X053305Y022808D01*
X053300Y022816D02*
X052982Y022816D01*
X052987Y022825D02*
X053294Y022825D01*
X053289Y022833D02*
X052993Y022833D01*
X052998Y022842D02*
X053283Y022842D01*
X053278Y022850D02*
X053003Y022850D01*
X053008Y022859D02*
X053272Y022859D01*
X053267Y022867D02*
X053014Y022867D01*
X053019Y022876D02*
X053261Y022876D01*
X053256Y022884D02*
X053024Y022884D01*
X053030Y022893D02*
X052840Y023193D01*
X053140Y023003D01*
X053450Y023193D01*
X053250Y022893D01*
X053255Y022901D02*
X053025Y022901D01*
X053019Y022910D02*
X053261Y022910D01*
X053267Y022918D02*
X053014Y022918D01*
X053009Y022927D02*
X053272Y022927D01*
X053278Y022935D02*
X053003Y022935D01*
X052998Y022944D02*
X053284Y022944D01*
X053289Y022952D02*
X052993Y022952D01*
X052987Y022961D02*
X053295Y022961D01*
X053301Y022969D02*
X052982Y022969D01*
X052976Y022978D02*
X053306Y022978D01*
X053312Y022986D02*
X052971Y022986D01*
X052966Y022995D02*
X053318Y022995D01*
X053323Y023003D02*
X053140Y023003D01*
X052960Y023003D01*
X052955Y023012D02*
X053126Y023012D01*
X053113Y023020D02*
X052950Y023020D01*
X052944Y023029D02*
X053100Y023029D01*
X053086Y023037D02*
X052939Y023037D01*
X052933Y023046D02*
X053073Y023046D01*
X053059Y023054D02*
X052928Y023054D01*
X052923Y023063D02*
X053046Y023063D01*
X053032Y023071D02*
X052917Y023071D01*
X052912Y023080D02*
X053019Y023080D01*
X053006Y023088D02*
X052906Y023088D01*
X052901Y023097D02*
X052992Y023097D01*
X052979Y023105D02*
X052896Y023105D01*
X052890Y023114D02*
X052965Y023114D01*
X052952Y023122D02*
X052885Y023122D01*
X052880Y023131D02*
X052939Y023131D01*
X052925Y023139D02*
X052874Y023139D01*
X052869Y023148D02*
X052912Y023148D01*
X052898Y023156D02*
X052863Y023156D01*
X052858Y023165D02*
X052885Y023165D01*
X052871Y023173D02*
X052853Y023173D01*
X052847Y023182D02*
X052858Y023182D01*
X052845Y023190D02*
X052842Y023190D01*
X052894Y022935D02*
X052936Y022935D01*
X052930Y022943D02*
X052970Y022893D01*
X052930Y022843D01*
X052700Y022893D01*
X052930Y022943D01*
X052943Y022927D02*
X052854Y022927D01*
X052815Y022918D02*
X052950Y022918D01*
X052957Y022910D02*
X052776Y022910D01*
X052780Y022876D02*
X052956Y022876D01*
X052963Y022884D02*
X052741Y022884D01*
X052737Y022901D02*
X052964Y022901D01*
X052970Y022893D02*
X052702Y022893D01*
X052819Y022867D02*
X052949Y022867D01*
X052942Y022859D02*
X052858Y022859D01*
X052897Y022850D02*
X052936Y022850D01*
X053090Y022683D02*
X053140Y022713D01*
X053190Y022683D01*
X053140Y022443D01*
X053090Y022683D01*
X053091Y022680D02*
X053189Y022680D01*
X053188Y022672D02*
X053092Y022672D01*
X053094Y022663D02*
X053186Y022663D01*
X053184Y022655D02*
X053096Y022655D01*
X053098Y022646D02*
X053182Y022646D01*
X053181Y022638D02*
X053099Y022638D01*
X053101Y022629D02*
X053179Y022629D01*
X053177Y022621D02*
X053103Y022621D01*
X053105Y022612D02*
X053175Y022612D01*
X053173Y022604D02*
X053107Y022604D01*
X053108Y022595D02*
X053172Y022595D01*
X053170Y022587D02*
X053110Y022587D01*
X053112Y022578D02*
X053168Y022578D01*
X053166Y022570D02*
X053114Y022570D01*
X053115Y022561D02*
X053165Y022561D01*
X053163Y022553D02*
X053117Y022553D01*
X053119Y022544D02*
X053161Y022544D01*
X053159Y022536D02*
X053121Y022536D01*
X053122Y022527D02*
X053158Y022527D01*
X053156Y022519D02*
X053124Y022519D01*
X053126Y022510D02*
X053154Y022510D01*
X053152Y022502D02*
X053128Y022502D01*
X053130Y022493D02*
X053150Y022493D01*
X053149Y022485D02*
X053131Y022485D01*
X053133Y022476D02*
X053147Y022476D01*
X053145Y022468D02*
X053135Y022468D01*
X053137Y022459D02*
X053143Y022459D01*
X053142Y022451D02*
X053138Y022451D01*
X053099Y022689D02*
X053181Y022689D01*
X053167Y022697D02*
X053113Y022697D01*
X053128Y022706D02*
X053152Y022706D01*
X053181Y022748D02*
X053344Y022748D01*
X053349Y022740D02*
X053195Y022740D01*
X053208Y022731D02*
X053354Y022731D01*
X053360Y022723D02*
X053222Y022723D01*
X053236Y022714D02*
X053365Y022714D01*
X053371Y022706D02*
X053250Y022706D01*
X053264Y022697D02*
X053376Y022697D01*
X053382Y022689D02*
X053278Y022689D01*
X053292Y022680D02*
X053387Y022680D01*
X053393Y022672D02*
X053305Y022672D01*
X053319Y022663D02*
X053398Y022663D01*
X053404Y022655D02*
X053333Y022655D01*
X053347Y022646D02*
X053409Y022646D01*
X053415Y022638D02*
X053361Y022638D01*
X053375Y022629D02*
X053420Y022629D01*
X053426Y022621D02*
X053389Y022621D01*
X053403Y022612D02*
X053431Y022612D01*
X053437Y022604D02*
X053416Y022604D01*
X053430Y022595D02*
X053442Y022595D01*
X053444Y022587D02*
X053448Y022587D01*
X053338Y022757D02*
X053167Y022757D01*
X053154Y023012D02*
X053329Y023012D01*
X053335Y023020D02*
X053168Y023020D01*
X053182Y023029D02*
X053340Y023029D01*
X053346Y023037D02*
X053196Y023037D01*
X053209Y023046D02*
X053352Y023046D01*
X053357Y023054D02*
X053223Y023054D01*
X053237Y023063D02*
X053363Y023063D01*
X053369Y023071D02*
X053251Y023071D01*
X053265Y023080D02*
X053374Y023080D01*
X053380Y023088D02*
X053279Y023088D01*
X053293Y023097D02*
X053386Y023097D01*
X053391Y023105D02*
X053307Y023105D01*
X053320Y023114D02*
X053397Y023114D01*
X053403Y023122D02*
X053334Y023122D01*
X053348Y023131D02*
X053408Y023131D01*
X053414Y023139D02*
X053362Y023139D01*
X053376Y023148D02*
X053420Y023148D01*
X053425Y023156D02*
X053390Y023156D01*
X053404Y023165D02*
X053431Y023165D01*
X053437Y023173D02*
X053418Y023173D01*
X053431Y023182D02*
X053442Y023182D01*
X053445Y023190D02*
X053448Y023190D01*
X053182Y023131D02*
X053098Y023131D01*
X053100Y023139D02*
X053180Y023139D01*
X053179Y023148D02*
X053101Y023148D01*
X053103Y023156D02*
X053177Y023156D01*
X053175Y023165D02*
X053105Y023165D01*
X053107Y023173D02*
X053173Y023173D01*
X053172Y023182D02*
X053108Y023182D01*
X053110Y023190D02*
X053170Y023190D01*
X053168Y023199D02*
X053112Y023199D01*
X053114Y023207D02*
X053166Y023207D01*
X053164Y023216D02*
X053116Y023216D01*
X053117Y023224D02*
X053163Y023224D01*
X053161Y023233D02*
X053119Y023233D01*
X053121Y023241D02*
X053159Y023241D01*
X053157Y023250D02*
X053123Y023250D01*
X053124Y023258D02*
X053156Y023258D01*
X053154Y023267D02*
X053126Y023267D01*
X053128Y023275D02*
X053152Y023275D01*
X053150Y023284D02*
X053130Y023284D01*
X053131Y023292D02*
X053149Y023292D01*
X053147Y023301D02*
X053133Y023301D01*
X053135Y023309D02*
X053145Y023309D01*
X053143Y023318D02*
X053137Y023318D01*
X053139Y023326D02*
X053141Y023326D01*
X053140Y023333D02*
X053190Y023093D01*
X053140Y023063D01*
X053090Y023093D01*
X053140Y023333D01*
X053096Y023122D02*
X053184Y023122D01*
X053186Y023114D02*
X053094Y023114D01*
X053093Y023105D02*
X053187Y023105D01*
X053189Y023097D02*
X053091Y023097D01*
X053098Y023088D02*
X053182Y023088D01*
X053168Y023080D02*
X053112Y023080D01*
X053127Y023071D02*
X053153Y023071D01*
X035040Y005163D02*
X035140Y004703D01*
X035040Y004643D01*
X034940Y004703D01*
X035040Y005163D01*
X035040Y005161D02*
X035040Y005161D01*
X035038Y005153D02*
X035042Y005153D01*
X035044Y005144D02*
X035036Y005144D01*
X035034Y005136D02*
X035046Y005136D01*
X035048Y005127D02*
X035032Y005127D01*
X035030Y005119D02*
X035050Y005119D01*
X035052Y005110D02*
X035028Y005110D01*
X035027Y005102D02*
X035053Y005102D01*
X035055Y005093D02*
X035025Y005093D01*
X035023Y005085D02*
X035057Y005085D01*
X035059Y005076D02*
X035021Y005076D01*
X035019Y005068D02*
X035061Y005068D01*
X035063Y005059D02*
X035017Y005059D01*
X035016Y005051D02*
X035064Y005051D01*
X035066Y005042D02*
X035014Y005042D01*
X035012Y005034D02*
X035068Y005034D01*
X035070Y005025D02*
X035010Y005025D01*
X035008Y005017D02*
X035072Y005017D01*
X035074Y005008D02*
X035006Y005008D01*
X035004Y005000D02*
X035076Y005000D01*
X035077Y004991D02*
X035003Y004991D01*
X035001Y004983D02*
X035079Y004983D01*
X035081Y004974D02*
X034999Y004974D01*
X034997Y004966D02*
X035083Y004966D01*
X035085Y004957D02*
X034995Y004957D01*
X034993Y004949D02*
X035087Y004949D01*
X035088Y004940D02*
X034992Y004940D01*
X034990Y004932D02*
X035090Y004932D01*
X035092Y004923D02*
X034988Y004923D01*
X034986Y004915D02*
X035094Y004915D01*
X035096Y004906D02*
X034984Y004906D01*
X034982Y004898D02*
X035098Y004898D01*
X035100Y004889D02*
X034980Y004889D01*
X034979Y004881D02*
X035101Y004881D01*
X035103Y004872D02*
X034977Y004872D01*
X034975Y004864D02*
X035105Y004864D01*
X035107Y004855D02*
X034973Y004855D01*
X034971Y004847D02*
X035109Y004847D01*
X035111Y004838D02*
X034969Y004838D01*
X034968Y004830D02*
X035112Y004830D01*
X035114Y004821D02*
X034966Y004821D01*
X034964Y004813D02*
X035116Y004813D01*
X035118Y004804D02*
X034962Y004804D01*
X034960Y004796D02*
X035120Y004796D01*
X035122Y004787D02*
X034958Y004787D01*
X034956Y004779D02*
X035124Y004779D01*
X035125Y004770D02*
X034955Y004770D01*
X034953Y004762D02*
X035127Y004762D01*
X035129Y004753D02*
X034951Y004753D01*
X034949Y004745D02*
X035131Y004745D01*
X035133Y004736D02*
X034947Y004736D01*
X034945Y004728D02*
X035135Y004728D01*
X035137Y004719D02*
X034943Y004719D01*
X034942Y004711D02*
X035138Y004711D01*
X035138Y004702D02*
X034942Y004702D01*
X034956Y004694D02*
X035124Y004694D01*
X035110Y004685D02*
X034970Y004685D01*
X034984Y004677D02*
X035096Y004677D01*
X035082Y004668D02*
X034998Y004668D01*
X035012Y004660D02*
X035068Y004660D01*
X035053Y004651D02*
X035027Y004651D01*
X034966Y004549D02*
X034642Y004549D01*
X034647Y004541D02*
X034980Y004541D01*
X034993Y004532D02*
X034652Y004532D01*
X034658Y004524D02*
X035007Y004524D01*
X035021Y004515D02*
X034663Y004515D01*
X034668Y004507D02*
X035034Y004507D01*
X035040Y004503D02*
X034430Y004883D01*
X034810Y004283D01*
X034430Y003663D01*
X035040Y004063D01*
X035660Y003653D01*
X035260Y004283D01*
X035640Y004893D01*
X035040Y004503D01*
X035045Y004507D02*
X035399Y004507D01*
X035394Y004498D02*
X034674Y004498D01*
X034679Y004490D02*
X035389Y004490D01*
X035383Y004481D02*
X034685Y004481D01*
X034690Y004473D02*
X035378Y004473D01*
X035373Y004464D02*
X034695Y004464D01*
X034701Y004456D02*
X035367Y004456D01*
X035362Y004447D02*
X034706Y004447D01*
X034711Y004439D02*
X035357Y004439D01*
X035352Y004430D02*
X034717Y004430D01*
X034722Y004422D02*
X035346Y004422D01*
X035341Y004413D02*
X034728Y004413D01*
X034733Y004405D02*
X035336Y004405D01*
X035330Y004396D02*
X034738Y004396D01*
X034744Y004388D02*
X035325Y004388D01*
X035320Y004379D02*
X034749Y004379D01*
X034755Y004371D02*
X035315Y004371D01*
X035309Y004362D02*
X034760Y004362D01*
X034765Y004354D02*
X035304Y004354D01*
X035299Y004345D02*
X034771Y004345D01*
X034776Y004337D02*
X035293Y004337D01*
X035288Y004328D02*
X034781Y004328D01*
X034787Y004320D02*
X035283Y004320D01*
X035277Y004311D02*
X034792Y004311D01*
X034798Y004303D02*
X035272Y004303D01*
X035267Y004294D02*
X034803Y004294D01*
X034808Y004286D02*
X035262Y004286D01*
X035264Y004277D02*
X034806Y004277D01*
X034801Y004269D02*
X035269Y004269D01*
X035275Y004260D02*
X034796Y004260D01*
X034791Y004252D02*
X035280Y004252D01*
X035285Y004243D02*
X034786Y004243D01*
X034780Y004235D02*
X035291Y004235D01*
X035296Y004226D02*
X034775Y004226D01*
X034770Y004218D02*
X035302Y004218D01*
X035307Y004209D02*
X034765Y004209D01*
X034759Y004201D02*
X035312Y004201D01*
X035318Y004192D02*
X034754Y004192D01*
X034749Y004184D02*
X035323Y004184D01*
X035329Y004175D02*
X034744Y004175D01*
X034739Y004167D02*
X035334Y004167D01*
X035339Y004158D02*
X034733Y004158D01*
X034728Y004150D02*
X035345Y004150D01*
X035350Y004141D02*
X034723Y004141D01*
X034718Y004133D02*
X035356Y004133D01*
X035361Y004124D02*
X034713Y004124D01*
X034707Y004116D02*
X035366Y004116D01*
X035372Y004107D02*
X034702Y004107D01*
X034697Y004099D02*
X035377Y004099D01*
X035383Y004090D02*
X034692Y004090D01*
X034687Y004082D02*
X035388Y004082D01*
X035393Y004073D02*
X034681Y004073D01*
X034676Y004065D02*
X035399Y004065D01*
X035404Y004056D02*
X035051Y004056D01*
X035063Y004048D02*
X035410Y004048D01*
X035415Y004039D02*
X035076Y004039D01*
X035089Y004031D02*
X035420Y004031D01*
X035426Y004022D02*
X035102Y004022D01*
X035115Y004014D02*
X035431Y004014D01*
X035436Y004005D02*
X035128Y004005D01*
X035141Y003997D02*
X035442Y003997D01*
X035447Y003988D02*
X035153Y003988D01*
X035166Y003980D02*
X035453Y003980D01*
X035458Y003971D02*
X035179Y003971D01*
X035192Y003963D02*
X035463Y003963D01*
X035469Y003954D02*
X035205Y003954D01*
X035218Y003946D02*
X035474Y003946D01*
X035480Y003937D02*
X035230Y003937D01*
X035243Y003929D02*
X035485Y003929D01*
X035490Y003920D02*
X035256Y003920D01*
X035269Y003912D02*
X035496Y003912D01*
X035501Y003903D02*
X035282Y003903D01*
X035295Y003895D02*
X035507Y003895D01*
X035512Y003886D02*
X035308Y003886D01*
X035320Y003878D02*
X035517Y003878D01*
X035523Y003869D02*
X035333Y003869D01*
X035346Y003861D02*
X035528Y003861D01*
X035534Y003852D02*
X035359Y003852D01*
X035372Y003844D02*
X035539Y003844D01*
X035544Y003835D02*
X035385Y003835D01*
X035398Y003827D02*
X035550Y003827D01*
X035555Y003818D02*
X035410Y003818D01*
X035423Y003810D02*
X035561Y003810D01*
X035566Y003801D02*
X035436Y003801D01*
X035449Y003793D02*
X035571Y003793D01*
X035577Y003784D02*
X035462Y003784D01*
X035475Y003776D02*
X035582Y003776D01*
X035588Y003767D02*
X035488Y003767D01*
X035500Y003759D02*
X035593Y003759D01*
X035598Y003750D02*
X035513Y003750D01*
X035526Y003742D02*
X035604Y003742D01*
X035609Y003733D02*
X035539Y003733D01*
X035552Y003725D02*
X035615Y003725D01*
X035620Y003716D02*
X035565Y003716D01*
X035578Y003708D02*
X035625Y003708D01*
X035631Y003699D02*
X035590Y003699D01*
X035603Y003691D02*
X035636Y003691D01*
X035642Y003682D02*
X035616Y003682D01*
X035629Y003674D02*
X035647Y003674D01*
X035642Y003665D02*
X035652Y003665D01*
X035655Y003657D02*
X035658Y003657D01*
X035125Y003776D02*
X034955Y003776D01*
X034953Y003784D02*
X035127Y003784D01*
X035129Y003793D02*
X034951Y003793D01*
X034950Y003801D02*
X035130Y003801D01*
X035132Y003810D02*
X034948Y003810D01*
X034946Y003818D02*
X035134Y003818D01*
X035136Y003827D02*
X034944Y003827D01*
X034942Y003835D02*
X035138Y003835D01*
X035140Y003843D02*
X035040Y003913D01*
X034940Y003843D01*
X035040Y003403D01*
X035140Y003843D01*
X035139Y003844D02*
X034941Y003844D01*
X034953Y003852D02*
X035127Y003852D01*
X035115Y003861D02*
X034965Y003861D01*
X034977Y003869D02*
X035103Y003869D01*
X035091Y003878D02*
X034989Y003878D01*
X035001Y003886D02*
X035079Y003886D01*
X035066Y003895D02*
X035014Y003895D01*
X035026Y003903D02*
X035054Y003903D01*
X035042Y003912D02*
X035038Y003912D01*
X034965Y004014D02*
X034645Y004014D01*
X034650Y004022D02*
X034978Y004022D01*
X034990Y004031D02*
X034655Y004031D01*
X034660Y004039D02*
X035003Y004039D01*
X035016Y004048D02*
X034666Y004048D01*
X034671Y004056D02*
X035029Y004056D01*
X034952Y004005D02*
X034640Y004005D01*
X034634Y003997D02*
X034939Y003997D01*
X034926Y003988D02*
X034629Y003988D01*
X034624Y003980D02*
X034913Y003980D01*
X034900Y003971D02*
X034619Y003971D01*
X034614Y003963D02*
X034887Y003963D01*
X034874Y003954D02*
X034608Y003954D01*
X034603Y003946D02*
X034861Y003946D01*
X034848Y003937D02*
X034598Y003937D01*
X034593Y003929D02*
X034835Y003929D01*
X034822Y003920D02*
X034588Y003920D01*
X034582Y003912D02*
X034809Y003912D01*
X034796Y003903D02*
X034577Y003903D01*
X034572Y003895D02*
X034783Y003895D01*
X034770Y003886D02*
X034567Y003886D01*
X034561Y003878D02*
X034757Y003878D01*
X034744Y003869D02*
X034556Y003869D01*
X034551Y003861D02*
X034731Y003861D01*
X034718Y003852D02*
X034546Y003852D01*
X034541Y003844D02*
X034705Y003844D01*
X034692Y003835D02*
X034535Y003835D01*
X034530Y003827D02*
X034679Y003827D01*
X034666Y003818D02*
X034525Y003818D01*
X034520Y003810D02*
X034653Y003810D01*
X034640Y003801D02*
X034515Y003801D01*
X034509Y003793D02*
X034628Y003793D01*
X034615Y003784D02*
X034504Y003784D01*
X034499Y003776D02*
X034602Y003776D01*
X034589Y003767D02*
X034494Y003767D01*
X034489Y003759D02*
X034576Y003759D01*
X034563Y003750D02*
X034483Y003750D01*
X034478Y003742D02*
X034550Y003742D01*
X034537Y003733D02*
X034473Y003733D01*
X034468Y003725D02*
X034524Y003725D01*
X034511Y003716D02*
X034462Y003716D01*
X034457Y003708D02*
X034498Y003708D01*
X034485Y003699D02*
X034452Y003699D01*
X034447Y003691D02*
X034472Y003691D01*
X034459Y003682D02*
X034442Y003682D01*
X034446Y003674D02*
X034436Y003674D01*
X034433Y003665D02*
X034431Y003665D01*
X034957Y003767D02*
X035123Y003767D01*
X035121Y003759D02*
X034959Y003759D01*
X034961Y003750D02*
X035119Y003750D01*
X035117Y003742D02*
X034963Y003742D01*
X034965Y003733D02*
X035115Y003733D01*
X035113Y003725D02*
X034967Y003725D01*
X034969Y003716D02*
X035111Y003716D01*
X035109Y003708D02*
X034971Y003708D01*
X034973Y003699D02*
X035107Y003699D01*
X035105Y003691D02*
X034975Y003691D01*
X034977Y003682D02*
X035103Y003682D01*
X035101Y003674D02*
X034979Y003674D01*
X034980Y003665D02*
X035100Y003665D01*
X035098Y003657D02*
X034982Y003657D01*
X034984Y003648D02*
X035096Y003648D01*
X035094Y003640D02*
X034986Y003640D01*
X034988Y003631D02*
X035092Y003631D01*
X035090Y003623D02*
X034990Y003623D01*
X034992Y003614D02*
X035088Y003614D01*
X035086Y003606D02*
X034994Y003606D01*
X034996Y003597D02*
X035084Y003597D01*
X035082Y003589D02*
X034998Y003589D01*
X035000Y003580D02*
X035080Y003580D01*
X035078Y003572D02*
X035002Y003572D01*
X035004Y003563D02*
X035076Y003563D01*
X035074Y003555D02*
X035006Y003555D01*
X035007Y003546D02*
X035073Y003546D01*
X035071Y003538D02*
X035009Y003538D01*
X035011Y003529D02*
X035069Y003529D01*
X035067Y003521D02*
X035013Y003521D01*
X035015Y003512D02*
X035065Y003512D01*
X035063Y003504D02*
X035017Y003504D01*
X035019Y003495D02*
X035061Y003495D01*
X035059Y003487D02*
X035021Y003487D01*
X035023Y003478D02*
X035057Y003478D01*
X035055Y003470D02*
X035025Y003470D01*
X035027Y003461D02*
X035053Y003461D01*
X035051Y003453D02*
X035029Y003453D01*
X035031Y003444D02*
X035049Y003444D01*
X035047Y003436D02*
X035033Y003436D01*
X035035Y003427D02*
X035045Y003427D01*
X035044Y003419D02*
X035036Y003419D01*
X035038Y003410D02*
X035042Y003410D01*
X035460Y004193D02*
X035900Y004283D01*
X035460Y004373D01*
X035400Y004283D01*
X035460Y004193D01*
X035455Y004201D02*
X035497Y004201D01*
X035538Y004209D02*
X035449Y004209D01*
X035444Y004218D02*
X035580Y004218D01*
X035622Y004226D02*
X035438Y004226D01*
X035432Y004235D02*
X035663Y004235D01*
X035705Y004243D02*
X035427Y004243D01*
X035421Y004252D02*
X035746Y004252D01*
X035788Y004260D02*
X035415Y004260D01*
X035410Y004269D02*
X035829Y004269D01*
X035846Y004294D02*
X035407Y004294D01*
X035402Y004286D02*
X035888Y004286D01*
X035871Y004277D02*
X035404Y004277D01*
X035413Y004303D02*
X035804Y004303D01*
X035763Y004311D02*
X035419Y004311D01*
X035424Y004320D02*
X035721Y004320D01*
X035680Y004328D02*
X035430Y004328D01*
X035436Y004337D02*
X035638Y004337D01*
X035597Y004345D02*
X035441Y004345D01*
X035447Y004354D02*
X035555Y004354D01*
X035514Y004362D02*
X035453Y004362D01*
X035458Y004371D02*
X035472Y004371D01*
X035405Y004515D02*
X035059Y004515D01*
X035072Y004524D02*
X035410Y004524D01*
X035415Y004532D02*
X035085Y004532D01*
X035098Y004541D02*
X035420Y004541D01*
X035426Y004549D02*
X035111Y004549D01*
X035124Y004558D02*
X035431Y004558D01*
X035436Y004566D02*
X035137Y004566D01*
X035150Y004575D02*
X035442Y004575D01*
X035447Y004583D02*
X035163Y004583D01*
X035176Y004592D02*
X035452Y004592D01*
X035458Y004600D02*
X035189Y004600D01*
X035202Y004609D02*
X035463Y004609D01*
X035468Y004617D02*
X035215Y004617D01*
X035229Y004626D02*
X035473Y004626D01*
X035479Y004634D02*
X035242Y004634D01*
X035255Y004643D02*
X035484Y004643D01*
X035489Y004651D02*
X035268Y004651D01*
X035281Y004660D02*
X035495Y004660D01*
X035500Y004668D02*
X035294Y004668D01*
X035307Y004677D02*
X035505Y004677D01*
X035510Y004685D02*
X035320Y004685D01*
X035333Y004694D02*
X035516Y004694D01*
X035521Y004702D02*
X035346Y004702D01*
X035359Y004711D02*
X035526Y004711D01*
X035532Y004719D02*
X035372Y004719D01*
X035385Y004728D02*
X035537Y004728D01*
X035542Y004736D02*
X035399Y004736D01*
X035412Y004745D02*
X035548Y004745D01*
X035553Y004753D02*
X035425Y004753D01*
X035438Y004762D02*
X035558Y004762D01*
X035563Y004770D02*
X035451Y004770D01*
X035464Y004779D02*
X035569Y004779D01*
X035574Y004787D02*
X035477Y004787D01*
X035490Y004796D02*
X035579Y004796D01*
X035585Y004804D02*
X035503Y004804D01*
X035516Y004813D02*
X035590Y004813D01*
X035595Y004821D02*
X035529Y004821D01*
X035542Y004830D02*
X035600Y004830D01*
X035606Y004838D02*
X035555Y004838D01*
X035569Y004847D02*
X035611Y004847D01*
X035616Y004855D02*
X035582Y004855D01*
X035595Y004864D02*
X035622Y004864D01*
X035627Y004872D02*
X035608Y004872D01*
X035621Y004881D02*
X035632Y004881D01*
X035634Y004889D02*
X035638Y004889D01*
X034952Y004558D02*
X034636Y004558D01*
X034631Y004566D02*
X034939Y004566D01*
X034925Y004575D02*
X034625Y004575D01*
X034620Y004583D02*
X034912Y004583D01*
X034898Y004592D02*
X034615Y004592D01*
X034609Y004600D02*
X034884Y004600D01*
X034871Y004609D02*
X034604Y004609D01*
X034598Y004617D02*
X034857Y004617D01*
X034843Y004626D02*
X034593Y004626D01*
X034588Y004634D02*
X034830Y004634D01*
X034816Y004643D02*
X034582Y004643D01*
X034577Y004651D02*
X034802Y004651D01*
X034789Y004660D02*
X034572Y004660D01*
X034566Y004668D02*
X034775Y004668D01*
X034761Y004677D02*
X034561Y004677D01*
X034555Y004685D02*
X034748Y004685D01*
X034734Y004694D02*
X034550Y004694D01*
X034545Y004702D02*
X034720Y004702D01*
X034707Y004711D02*
X034539Y004711D01*
X034534Y004719D02*
X034693Y004719D01*
X034680Y004728D02*
X034528Y004728D01*
X034523Y004736D02*
X034666Y004736D01*
X034652Y004745D02*
X034518Y004745D01*
X034512Y004753D02*
X034639Y004753D01*
X034625Y004762D02*
X034507Y004762D01*
X034502Y004770D02*
X034611Y004770D01*
X034598Y004779D02*
X034496Y004779D01*
X034491Y004787D02*
X034584Y004787D01*
X034570Y004796D02*
X034485Y004796D01*
X034480Y004804D02*
X034557Y004804D01*
X034543Y004813D02*
X034475Y004813D01*
X034469Y004821D02*
X034529Y004821D01*
X034516Y004830D02*
X034464Y004830D01*
X034458Y004838D02*
X034502Y004838D01*
X034489Y004847D02*
X034453Y004847D01*
X034448Y004855D02*
X034475Y004855D01*
X034461Y004864D02*
X034442Y004864D01*
X034437Y004872D02*
X034448Y004872D01*
X034434Y004881D02*
X034432Y004881D01*
X034521Y004354D02*
X034633Y004354D01*
X034627Y004362D02*
X034564Y004362D01*
X034607Y004371D02*
X034622Y004371D01*
X034620Y004373D02*
X034160Y004283D01*
X034620Y004193D01*
X034680Y004283D01*
X034620Y004373D01*
X034639Y004345D02*
X034477Y004345D01*
X034434Y004337D02*
X034644Y004337D01*
X034650Y004328D02*
X034390Y004328D01*
X034347Y004320D02*
X034656Y004320D01*
X034661Y004311D02*
X034303Y004311D01*
X034260Y004303D02*
X034667Y004303D01*
X034673Y004294D02*
X034216Y004294D01*
X034190Y004277D02*
X034676Y004277D01*
X034678Y004286D02*
X034173Y004286D01*
X034234Y004269D02*
X034670Y004269D01*
X034665Y004260D02*
X034277Y004260D01*
X034321Y004252D02*
X034659Y004252D01*
X034653Y004243D02*
X034364Y004243D01*
X034408Y004235D02*
X034648Y004235D01*
X034642Y004226D02*
X034451Y004226D01*
X034495Y004218D02*
X034636Y004218D01*
X034631Y004209D02*
X034538Y004209D01*
X034581Y004201D02*
X034625Y004201D01*
D360*
X065690Y017833D03*
D361*
X051740Y021883D03*
X050740Y021883D03*
X049740Y021883D03*
X048740Y021883D03*
X047740Y021883D03*
X046740Y021883D03*
X045740Y021883D03*
X044740Y021883D03*
X043240Y021883D03*
X042240Y021883D03*
X041240Y021883D03*
X040240Y021883D03*
X039240Y021883D03*
X038240Y021883D03*
X037240Y021883D03*
X036240Y021883D03*
X035240Y021883D03*
X034240Y021883D03*
X037740Y004883D03*
X038740Y004883D03*
X039740Y004883D03*
X040740Y004883D03*
X041740Y004883D03*
X042740Y004883D03*
X043740Y004883D03*
X044740Y004883D03*
X046740Y004883D03*
X047740Y004883D03*
X048740Y004883D03*
X049740Y004883D03*
X050740Y004883D03*
X051740Y004883D03*
D362*
X052740Y005883D03*
X032240Y003883D03*
X052740Y016883D03*
X032740Y022883D03*
D363*
X034740Y014383D03*
X035740Y014383D03*
X036740Y014383D03*
X037740Y014383D03*
X038740Y014383D03*
X039740Y014383D03*
X040740Y014383D03*
X041740Y014383D03*
X042740Y014383D03*
X043740Y014383D03*
X044740Y014383D03*
X045740Y014383D03*
X046740Y014383D03*
X047740Y014383D03*
X048740Y014383D03*
X049740Y014383D03*
X050740Y014383D03*
X051740Y014383D03*
X052740Y014383D03*
X052740Y013383D03*
X051740Y013383D03*
X050740Y013383D03*
X049740Y013383D03*
X048740Y013383D03*
X047740Y013383D03*
X046740Y013383D03*
X045740Y013383D03*
X044740Y013383D03*
X043740Y013383D03*
X042740Y013383D03*
X041740Y013383D03*
X040740Y013383D03*
X039740Y013383D03*
X038740Y013383D03*
X037740Y013383D03*
X036740Y013383D03*
X035740Y013383D03*
X034740Y013383D03*
X033740Y013383D03*
X033740Y012383D03*
X034740Y012383D03*
X035740Y012383D03*
X036740Y012383D03*
X037740Y012383D03*
X038740Y012383D03*
X039740Y012383D03*
X040740Y012383D03*
X041740Y012383D03*
X042740Y012383D03*
X043740Y012383D03*
X044740Y012383D03*
X045740Y012383D03*
X046740Y012383D03*
X047740Y012383D03*
X048740Y012383D03*
X049740Y012383D03*
X050740Y012383D03*
X051740Y012383D03*
X052740Y012383D03*
X052740Y011383D03*
X051740Y011383D03*
X050740Y011383D03*
X049740Y011383D03*
X048740Y011383D03*
X047740Y011383D03*
X046740Y011383D03*
X045740Y011383D03*
X044740Y011383D03*
X043740Y011383D03*
X042740Y011383D03*
X041740Y011383D03*
X040740Y011383D03*
X039740Y011383D03*
X038740Y011383D03*
X037740Y011383D03*
X036740Y011383D03*
X035740Y011383D03*
X034740Y011383D03*
X033740Y011383D03*
X033740Y010383D03*
X034740Y010383D03*
X035740Y010383D03*
X036740Y010383D03*
X037740Y010383D03*
X038740Y010383D03*
X039740Y010383D03*
X040740Y010383D03*
X041740Y010383D03*
X042740Y010383D03*
X043740Y010383D03*
X044740Y010383D03*
X045740Y010383D03*
X046740Y010383D03*
X047740Y010383D03*
X048740Y010383D03*
X049740Y010383D03*
X050740Y010383D03*
X051740Y010383D03*
X052740Y010383D03*
X052740Y009383D03*
X051740Y009383D03*
X050740Y009383D03*
X049740Y009383D03*
X048740Y009383D03*
X047740Y009383D03*
X046740Y009383D03*
X045740Y009383D03*
X044740Y009383D03*
X043740Y009383D03*
X042740Y009383D03*
X041740Y009383D03*
X040740Y009383D03*
X039740Y009383D03*
X038740Y009383D03*
X037740Y009383D03*
X036740Y009383D03*
X035740Y009383D03*
X034740Y009383D03*
X033740Y009383D03*
X033740Y008383D03*
X034740Y008383D03*
X035740Y008383D03*
X036740Y008383D03*
X037740Y008383D03*
X038740Y008383D03*
X039740Y008383D03*
X040740Y008383D03*
X041740Y008383D03*
X042740Y008383D03*
X043740Y008383D03*
X044740Y008383D03*
X045740Y008383D03*
X046740Y008383D03*
X047740Y008383D03*
X048740Y008383D03*
X049740Y008383D03*
X050740Y008383D03*
X051740Y008383D03*
X052740Y008383D03*
X049740Y007383D03*
X048740Y007383D03*
X047740Y007383D03*
X046740Y007383D03*
X045740Y007383D03*
X044740Y007383D03*
X043740Y007383D03*
X042740Y007383D03*
X041740Y007383D03*
X040740Y007383D03*
X039740Y007383D03*
X038740Y007383D03*
X037740Y007383D03*
X036740Y007383D03*
X035740Y007383D03*
X034740Y007383D03*
X033740Y007383D03*
M02*
