G75*
%MOIN*%
%OFA0B0*%
%FSLAX25Y25*%
%IPPOS*%
%LPD*%
%AMOC8*
5,1,8,0,0,1.08239X$1,22.5*
%
%ADD10C,0.00600*%
%ADD11R,0.00012X0.00012*%
%ADD12R,0.00012X0.00012*%
%ADD13R,0.00012X0.00180*%
%ADD14R,0.00012X0.00492*%
%ADD15R,0.00012X0.00012*%
%ADD16R,0.00012X0.00588*%
%ADD17R,0.00012X0.00732*%
%ADD18R,0.00012X0.00804*%
%ADD19R,0.00012X0.00012*%
%ADD20R,0.00012X0.00432*%
%ADD21R,0.00012X0.00384*%
%ADD22R,0.00012X0.01044*%
%ADD23R,0.00012X0.00900*%
%ADD24R,0.00012X0.00444*%
%ADD25R,0.00012X0.00384*%
%ADD26R,0.00012X0.01176*%
%ADD27R,0.00012X0.00972*%
%ADD28R,0.00012X0.00432*%
%ADD29R,0.00012X0.00396*%
%ADD30R,0.00012X0.01236*%
%ADD31R,0.00012X0.00444*%
%ADD32R,0.00012X0.00408*%
%ADD33R,0.00012X0.01320*%
%ADD34R,0.00012X0.01116*%
%ADD35R,0.00012X0.00408*%
%ADD36R,0.00012X0.01356*%
%ADD37R,0.00012X0.01188*%
%ADD38R,0.00012X0.00420*%
%ADD39R,0.00012X0.01392*%
%ADD40R,0.00012X0.01212*%
%ADD41R,0.00012X0.01428*%
%ADD42R,0.00012X0.01284*%
%ADD43R,0.00012X0.01464*%
%ADD44R,0.00012X0.01308*%
%ADD45R,0.00012X0.00456*%
%ADD46R,0.00012X0.01500*%
%ADD47R,0.00012X0.01380*%
%ADD48R,0.00012X0.00468*%
%ADD49R,0.00012X0.01536*%
%ADD50R,0.00012X0.01404*%
%ADD51R,0.00012X0.00468*%
%ADD52R,0.00012X0.01548*%
%ADD53R,0.00012X0.01452*%
%ADD54R,0.00012X0.00480*%
%ADD55R,0.00012X0.01584*%
%ADD56R,0.00012X0.00480*%
%ADD57R,0.00012X0.01596*%
%ADD58R,0.00012X0.01548*%
%ADD59R,0.00012X0.01632*%
%ADD60R,0.00012X0.01572*%
%ADD61R,0.00012X0.00504*%
%ADD62R,0.00012X0.01644*%
%ADD63R,0.00012X0.01644*%
%ADD64R,0.00012X0.00516*%
%ADD65R,0.00012X0.01680*%
%ADD66R,0.00012X0.01668*%
%ADD67R,0.00012X0.00528*%
%ADD68R,0.00012X0.01692*%
%ADD69R,0.00012X0.01692*%
%ADD70R,0.00012X0.00540*%
%ADD71R,0.00012X0.01716*%
%ADD72R,0.00012X0.01716*%
%ADD73R,0.00012X0.00540*%
%ADD74R,0.00012X0.01764*%
%ADD75R,0.00012X0.00564*%
%ADD76R,0.00012X0.01752*%
%ADD77R,0.00012X0.01788*%
%ADD78R,0.00012X0.00552*%
%ADD79R,0.00012X0.01764*%
%ADD80R,0.00012X0.01812*%
%ADD81R,0.00012X0.00576*%
%ADD82R,0.00012X0.01776*%
%ADD83R,0.00012X0.01836*%
%ADD84R,0.00012X0.01788*%
%ADD85R,0.00012X0.01896*%
%ADD86R,0.00012X0.01824*%
%ADD87R,0.00012X0.01908*%
%ADD88R,0.00012X0.00600*%
%ADD89R,0.00012X0.01944*%
%ADD90R,0.00012X0.00612*%
%ADD91R,0.00012X0.01848*%
%ADD92R,0.00012X0.01956*%
%ADD93R,0.00012X0.00624*%
%ADD94R,0.00012X0.01860*%
%ADD95R,0.00012X0.02004*%
%ADD96R,0.00012X0.00636*%
%ADD97R,0.00012X0.01872*%
%ADD98R,0.00012X0.02004*%
%ADD99R,0.00012X0.00636*%
%ADD100R,0.00012X0.01884*%
%ADD101R,0.00012X0.02016*%
%ADD102R,0.00012X0.00648*%
%ADD103R,0.00012X0.01896*%
%ADD104R,0.00012X0.00828*%
%ADD105R,0.00012X0.00876*%
%ADD106R,0.00012X0.00816*%
%ADD107R,0.00012X0.00660*%
%ADD108R,0.00012X0.01920*%
%ADD109R,0.00012X0.00756*%
%ADD110R,0.00012X0.00672*%
%ADD111R,0.00012X0.01932*%
%ADD112R,0.00012X0.00720*%
%ADD113R,0.00012X0.00684*%
%ADD114R,0.00012X0.01944*%
%ADD115R,0.00012X0.00708*%
%ADD116R,0.00012X0.00684*%
%ADD117R,0.00012X0.00696*%
%ADD118R,0.00012X0.00852*%
%ADD119R,0.00012X0.00708*%
%ADD120R,0.00012X0.00648*%
%ADD121R,0.00012X0.00804*%
%ADD122R,0.00012X0.00684*%
%ADD123R,0.00012X0.00612*%
%ADD124R,0.00012X0.00720*%
%ADD125R,0.00012X0.00756*%
%ADD126R,0.00012X0.00756*%
%ADD127R,0.00012X0.00720*%
%ADD128R,0.00012X0.00648*%
%ADD129R,0.00012X0.00744*%
%ADD130R,0.00012X0.00612*%
%ADD131R,0.00012X0.00744*%
%ADD132R,0.00012X0.00612*%
%ADD133R,0.00012X0.00504*%
%ADD134R,0.00012X0.00468*%
%ADD135R,0.00012X0.00768*%
%ADD136R,0.00012X0.00780*%
%ADD137R,0.00012X0.00792*%
%ADD138R,0.00012X0.00804*%
%ADD139R,0.00012X0.00420*%
%ADD140R,0.00012X0.00804*%
%ADD141R,0.00012X0.00588*%
%ADD142R,0.00012X0.00828*%
%ADD143R,0.00012X0.00576*%
%ADD144R,0.00012X0.00420*%
%ADD145R,0.00012X0.00576*%
%ADD146R,0.00012X0.00840*%
%ADD147R,0.00012X0.00564*%
%ADD148R,0.00012X0.00552*%
%ADD149R,0.00012X0.00852*%
%ADD150R,0.00012X0.00864*%
%ADD151R,0.00012X0.00540*%
%ADD152R,0.00012X0.00876*%
%ADD153R,0.00012X0.00888*%
%ADD154R,0.00012X0.00540*%
%ADD155R,0.00012X0.00900*%
%ADD156R,0.00012X0.00912*%
%ADD157R,0.00012X0.00528*%
%ADD158R,0.00012X0.00924*%
%ADD159R,0.00012X0.00516*%
%ADD160R,0.00012X0.00936*%
%ADD161R,0.00012X0.00948*%
%ADD162R,0.00012X0.00960*%
%ADD163R,0.00012X0.00492*%
%ADD164R,0.00012X0.00972*%
%ADD165R,0.00012X0.00504*%
%ADD166R,0.00012X0.00984*%
%ADD167R,0.00012X0.00492*%
%ADD168R,0.00012X0.00492*%
%ADD169R,0.00012X0.00468*%
%ADD170R,0.00012X0.01080*%
%ADD171R,0.00012X0.01068*%
%ADD172R,0.00012X0.01068*%
%ADD173R,0.00012X0.01080*%
%ADD174R,0.00012X0.00456*%
%ADD175R,0.00012X0.00456*%
%ADD176R,0.00012X0.00504*%
%ADD177R,0.00012X0.00528*%
%ADD178R,0.00012X0.00960*%
%ADD179R,0.00012X0.00936*%
%ADD180R,0.00012X0.00924*%
%ADD181R,0.00012X0.00912*%
%ADD182R,0.00012X0.00036*%
%ADD183R,0.00012X0.00060*%
%ADD184R,0.00012X0.00876*%
%ADD185R,0.00012X0.00084*%
%ADD186R,0.00012X0.00108*%
%ADD187R,0.00012X0.00864*%
%ADD188R,0.00012X0.00132*%
%ADD189R,0.00012X0.00576*%
%ADD190R,0.00012X0.00180*%
%ADD191R,0.00012X0.00840*%
%ADD192R,0.00012X0.00216*%
%ADD193R,0.00012X0.00228*%
%ADD194R,0.00012X0.00816*%
%ADD195R,0.00012X0.00264*%
%ADD196R,0.00012X0.00276*%
%ADD197R,0.00012X0.00792*%
%ADD198R,0.00012X0.00660*%
%ADD199R,0.00012X0.00324*%
%ADD200R,0.00012X0.00684*%
%ADD201R,0.00012X0.00348*%
%ADD202R,0.00012X0.00768*%
%ADD203R,0.00012X0.00768*%
%ADD204R,0.00012X0.00672*%
%ADD205R,0.00012X0.00780*%
%ADD206R,0.00012X0.00732*%
%ADD207R,0.00012X0.00948*%
%ADD208R,0.00012X0.01932*%
%ADD209R,0.00012X0.00696*%
%ADD210R,0.00012X0.01920*%
%ADD211R,0.00012X0.01860*%
%ADD212R,0.00012X0.01884*%
%ADD213R,0.00012X0.01836*%
%ADD214R,0.00012X0.00624*%
%ADD215R,0.00012X0.01812*%
%ADD216R,0.00012X0.01800*%
%ADD217R,0.00012X0.01752*%
%ADD218R,0.00012X0.01776*%
%ADD219R,0.00012X0.01704*%
%ADD220R,0.00012X0.01740*%
%ADD221R,0.00012X0.01620*%
%ADD222R,0.00012X0.01572*%
%ADD223R,0.00012X0.01656*%
%ADD224R,0.00012X0.01620*%
%ADD225R,0.00012X0.01476*%
%ADD226R,0.00012X0.01608*%
%ADD227R,0.00012X0.01560*%
%ADD228R,0.00012X0.01356*%
%ADD229R,0.00012X0.01524*%
%ADD230R,0.00012X0.01512*%
%ADD231R,0.00012X0.01260*%
%ADD232R,0.00012X0.01212*%
%ADD233R,0.00012X0.01440*%
%ADD234R,0.00012X0.01164*%
%ADD235R,0.00012X0.01380*%
%ADD236R,0.00012X0.01368*%
%ADD237R,0.00012X0.01308*%
%ADD238R,0.00012X0.01272*%
%ADD239R,0.00012X0.00828*%
%ADD240C,0.01000*%
%ADD241R,0.00020X0.00020*%
%ADD242R,0.00020X0.00020*%
%ADD243R,0.00020X0.00020*%
%ADD244R,0.00020X0.00340*%
%ADD245R,0.00020X0.00020*%
%ADD246R,0.00020X0.00780*%
%ADD247R,0.00020X0.00460*%
%ADD248R,0.00020X0.00940*%
%ADD249R,0.00020X0.00740*%
%ADD250R,0.00020X0.01180*%
%ADD251R,0.00020X0.00640*%
%ADD252R,0.00020X0.00660*%
%ADD253R,0.00020X0.01020*%
%ADD254R,0.00020X0.00740*%
%ADD255R,0.00020X0.01300*%
%ADD256R,0.00020X0.00660*%
%ADD257R,0.00020X0.00880*%
%ADD258R,0.00020X0.01180*%
%ADD259R,0.00020X0.03140*%
%ADD260R,0.00020X0.02960*%
%ADD261R,0.00020X0.01740*%
%ADD262R,0.00020X0.00740*%
%ADD263R,0.00020X0.01460*%
%ADD264R,0.00020X0.00680*%
%ADD265R,0.00020X0.03140*%
%ADD266R,0.00020X0.00900*%
%ADD267R,0.00020X0.01340*%
%ADD268R,0.00020X0.00740*%
%ADD269R,0.00020X0.03160*%
%ADD270R,0.00020X0.02940*%
%ADD271R,0.00020X0.01960*%
%ADD272R,0.00020X0.01540*%
%ADD273R,0.00020X0.00680*%
%ADD274R,0.00020X0.03160*%
%ADD275R,0.00020X0.01460*%
%ADD276R,0.00020X0.02060*%
%ADD277R,0.00020X0.01660*%
%ADD278R,0.00020X0.00700*%
%ADD279R,0.00020X0.00720*%
%ADD280R,0.00020X0.01580*%
%ADD281R,0.00020X0.02940*%
%ADD282R,0.00020X0.02200*%
%ADD283R,0.00020X0.01780*%
%ADD284R,0.00020X0.00720*%
%ADD285R,0.00020X0.00700*%
%ADD286R,0.00020X0.00860*%
%ADD287R,0.00020X0.01700*%
%ADD288R,0.00020X0.02960*%
%ADD289R,0.00020X0.02260*%
%ADD290R,0.00020X0.01900*%
%ADD291R,0.00020X0.00860*%
%ADD292R,0.00020X0.01780*%
%ADD293R,0.00020X0.02320*%
%ADD294R,0.00020X0.01940*%
%ADD295R,0.00020X0.01820*%
%ADD296R,0.00020X0.02380*%
%ADD297R,0.00020X0.00760*%
%ADD298R,0.00020X0.01940*%
%ADD299R,0.00020X0.02440*%
%ADD300R,0.00020X0.02100*%
%ADD301R,0.00020X0.02020*%
%ADD302R,0.00020X0.02500*%
%ADD303R,0.00020X0.02180*%
%ADD304R,0.00020X0.00780*%
%ADD305R,0.00020X0.00800*%
%ADD306R,0.00020X0.02140*%
%ADD307R,0.00020X0.02560*%
%ADD308R,0.00020X0.02260*%
%ADD309R,0.00020X0.00800*%
%ADD310R,0.00020X0.02180*%
%ADD311R,0.00020X0.02580*%
%ADD312R,0.00020X0.02340*%
%ADD313R,0.00020X0.00840*%
%ADD314R,0.00020X0.00820*%
%ADD315R,0.00020X0.00880*%
%ADD316R,0.00020X0.02640*%
%ADD317R,0.00020X0.02380*%
%ADD318R,0.00020X0.00820*%
%ADD319R,0.00020X0.00840*%
%ADD320R,0.00020X0.02300*%
%ADD321R,0.00020X0.02660*%
%ADD322R,0.00020X0.02460*%
%ADD323R,0.00020X0.02420*%
%ADD324R,0.00020X0.02720*%
%ADD325R,0.00020X0.02500*%
%ADD326R,0.00020X0.02420*%
%ADD327R,0.00020X0.02740*%
%ADD328R,0.00020X0.00900*%
%ADD329R,0.00020X0.02800*%
%ADD330R,0.00020X0.02620*%
%ADD331R,0.00020X0.02540*%
%ADD332R,0.00020X0.02820*%
%ADD333R,0.00020X0.02700*%
%ADD334R,0.00020X0.02620*%
%ADD335R,0.00020X0.02840*%
%ADD336R,0.00020X0.02740*%
%ADD337R,0.00020X0.02880*%
%ADD338R,0.00020X0.02780*%
%ADD339R,0.00020X0.00940*%
%ADD340R,0.00020X0.00920*%
%ADD341R,0.00020X0.02700*%
%ADD342R,0.00020X0.02920*%
%ADD343R,0.00020X0.02820*%
%ADD344R,0.00020X0.02880*%
%ADD345R,0.00020X0.00960*%
%ADD346R,0.00020X0.02900*%
%ADD347R,0.00020X0.00960*%
%ADD348R,0.00020X0.02820*%
%ADD349R,0.00020X0.02980*%
%ADD350R,0.00020X0.01000*%
%ADD351R,0.00020X0.00980*%
%ADD352R,0.00020X0.03040*%
%ADD353R,0.00020X0.03000*%
%ADD354R,0.00020X0.00980*%
%ADD355R,0.00020X0.02900*%
%ADD356R,0.00020X0.03060*%
%ADD357R,0.00020X0.03080*%
%ADD358R,0.00020X0.01020*%
%ADD359R,0.00020X0.01020*%
%ADD360R,0.00020X0.03080*%
%ADD361R,0.00020X0.01000*%
%ADD362R,0.00020X0.02980*%
%ADD363R,0.00020X0.03100*%
%ADD364R,0.00020X0.01040*%
%ADD365R,0.00020X0.03060*%
%ADD366R,0.00020X0.03120*%
%ADD367R,0.00020X0.03180*%
%ADD368R,0.00020X0.01060*%
%ADD369R,0.00020X0.03220*%
%ADD370R,0.00020X0.01080*%
%ADD371R,0.00020X0.01060*%
%ADD372R,0.00020X0.01420*%
%ADD373R,0.00020X0.01380*%
%ADD374R,0.00020X0.01080*%
%ADD375R,0.00020X0.01480*%
%ADD376R,0.00020X0.01140*%
%ADD377R,0.00020X0.01380*%
%ADD378R,0.00020X0.01100*%
%ADD379R,0.00020X0.01420*%
%ADD380R,0.00020X0.03200*%
%ADD381R,0.00020X0.01280*%
%ADD382R,0.00020X0.01260*%
%ADD383R,0.00020X0.01100*%
%ADD384R,0.00020X0.03220*%
%ADD385R,0.00020X0.01240*%
%ADD386R,0.00020X0.01220*%
%ADD387R,0.00020X0.01120*%
%ADD388R,0.00020X0.03240*%
%ADD389R,0.00020X0.01140*%
%ADD390R,0.00020X0.01120*%
%ADD391R,0.00020X0.01160*%
%ADD392R,0.00020X0.01340*%
%ADD393R,0.00020X0.01140*%
%ADD394R,0.00020X0.01160*%
%ADD395R,0.00020X0.01260*%
%ADD396R,0.00020X0.00920*%
%ADD397R,0.00020X0.01200*%
%ADD398R,0.00020X0.00820*%
%ADD399R,0.00020X0.01220*%
%ADD400R,0.00020X0.01120*%
%ADD401R,0.00020X0.01040*%
%ADD402R,0.00020X0.01020*%
%ADD403R,0.00020X0.01240*%
%ADD404R,0.00020X0.01220*%
%ADD405R,0.00020X0.00620*%
%ADD406R,0.00020X0.01280*%
%ADD407R,0.00020X0.00540*%
%ADD408R,0.00020X0.00500*%
%ADD409R,0.00020X0.01300*%
%ADD410R,0.00020X0.00460*%
%ADD411R,0.00020X0.00760*%
%ADD412R,0.00020X0.01340*%
%ADD413R,0.00020X0.01320*%
%ADD414R,0.00020X0.00420*%
%ADD415R,0.00020X0.00340*%
%ADD416R,0.00020X0.00940*%
%ADD417R,0.00020X0.01340*%
%ADD418R,0.00020X0.00320*%
%ADD419R,0.00020X0.01360*%
%ADD420R,0.00020X0.00260*%
%ADD421R,0.00020X0.00920*%
%ADD422R,0.00020X0.01360*%
%ADD423R,0.00020X0.00260*%
%ADD424R,0.00020X0.00200*%
%ADD425R,0.00020X0.01400*%
%ADD426R,0.00020X0.00180*%
%ADD427R,0.00020X0.00920*%
%ADD428R,0.00020X0.01400*%
%ADD429R,0.00020X0.00120*%
%ADD430R,0.00020X0.01420*%
%ADD431R,0.00020X0.00080*%
%ADD432R,0.00020X0.00720*%
%ADD433R,0.00020X0.00720*%
%ADD434R,0.00020X0.00840*%
%ADD435R,0.00020X0.01820*%
%ADD436R,0.00020X0.02000*%
%ADD437R,0.00020X0.00820*%
%ADD438R,0.00020X0.02160*%
%ADD439R,0.00020X0.00840*%
%ADD440R,0.00020X0.02220*%
%ADD441R,0.00020X0.02520*%
%ADD442R,0.00020X0.02340*%
%ADD443R,0.00020X0.02400*%
%ADD444R,0.00020X0.02460*%
%ADD445R,0.00020X0.02480*%
%ADD446R,0.00020X0.02480*%
%ADD447R,0.00020X0.02540*%
%ADD448R,0.00020X0.02440*%
%ADD449R,0.00020X0.02620*%
%ADD450R,0.00020X0.02640*%
%ADD451R,0.00020X0.02680*%
%ADD452R,0.00020X0.02740*%
%ADD453R,0.00020X0.02760*%
%ADD454R,0.00020X0.01320*%
%ADD455R,0.00020X0.02860*%
%ADD456R,0.00020X0.02840*%
%ADD457R,0.00020X0.02860*%
%ADD458R,0.00020X0.01620*%
%ADD459R,0.00020X0.03480*%
%ADD460R,0.00020X0.02840*%
%ADD461R,0.00020X0.01620*%
%ADD462R,0.00020X0.03480*%
%ADD463R,0.00020X0.02940*%
%ADD464R,0.00020X0.01760*%
%ADD465R,0.00020X0.01760*%
%ADD466R,0.00020X0.02920*%
%ADD467R,0.00020X0.03000*%
%ADD468R,0.00020X0.01860*%
%ADD469R,0.00020X0.03020*%
%ADD470R,0.00020X0.01900*%
%ADD471R,0.00020X0.03040*%
%ADD472R,0.00020X0.01980*%
%ADD473R,0.00020X0.03100*%
%ADD474R,0.00020X0.03120*%
%ADD475R,0.00020X0.02060*%
%ADD476R,0.00020X0.03020*%
%ADD477R,0.00020X0.03140*%
%ADD478R,0.00020X0.02100*%
%ADD479R,0.00020X0.03200*%
%ADD480R,0.00020X0.02140*%
%ADD481R,0.00020X0.02140*%
%ADD482R,0.00020X0.01140*%
%ADD483R,0.00020X0.01680*%
%ADD484R,0.00020X0.01640*%
%ADD485R,0.00020X0.01500*%
%ADD486R,0.00020X0.01440*%
%ADD487R,0.00020X0.01420*%
%ADD488R,0.00020X0.00940*%
%ADD489R,0.00020X0.01320*%
%ADD490R,0.00020X0.00040*%
%ADD491R,0.00020X0.00060*%
%ADD492R,0.00020X0.00140*%
%ADD493R,0.00020X0.00220*%
%ADD494R,0.00020X0.00240*%
%ADD495R,0.00020X0.00320*%
%ADD496R,0.00020X0.01220*%
%ADD497R,0.00020X0.00420*%
%ADD498R,0.00020X0.00500*%
%ADD499R,0.00020X0.00560*%
%ADD500R,0.00020X0.01120*%
%ADD501R,0.00020X0.00620*%
%ADD502R,0.00020X0.01320*%
%ADD503R,0.00020X0.01580*%
%ADD504R,0.00020X0.03120*%
%ADD505R,0.00020X0.03260*%
%ADD506R,0.00020X0.03040*%
%ADD507R,0.00020X0.01040*%
%ADD508R,0.00020X0.03120*%
%ADD509R,0.00020X0.03240*%
%ADD510R,0.00020X0.03180*%
%ADD511R,0.00020X0.02740*%
%ADD512R,0.00020X0.02760*%
%ADD513R,0.00020X0.02780*%
%ADD514R,0.00020X0.03140*%
%ADD515R,0.00020X0.02800*%
%ADD516R,0.00020X0.02580*%
%ADD517R,0.00020X0.02540*%
%ADD518R,0.00020X0.02360*%
%ADD519R,0.00020X0.02660*%
%ADD520R,0.00020X0.02420*%
%ADD521R,0.00020X0.02720*%
%ADD522R,0.00020X0.02640*%
%ADD523R,0.00020X0.02600*%
%ADD524R,0.00020X0.02520*%
%ADD525R,0.00020X0.01980*%
%ADD526R,0.00020X0.01860*%
%ADD527R,0.00020X0.02280*%
%ADD528R,0.00020X0.02240*%
%ADD529R,0.00020X0.02220*%
%ADD530R,0.00020X0.01660*%
%ADD531R,0.00020X0.01540*%
%ADD532R,0.00020X0.02160*%
%ADD533R,0.00020X0.02080*%
%ADD534R,0.00020X0.01880*%
%ADD535R,0.00020X0.02080*%
%ADD536R,0.00020X0.01800*%
%ADD537C,0.00500*%
D10*
X0104211Y0172332D02*
X0106613Y0172332D01*
X0105412Y0173533D02*
X0105412Y0171131D01*
D11*
X0106407Y0183375D03*
X0106455Y0183591D03*
X0104379Y0183627D03*
X0104355Y0183819D03*
X0104355Y0183843D03*
X0104355Y0183891D03*
X0104355Y0183915D03*
X0104355Y0183987D03*
X0104355Y0184011D03*
X0104355Y0184059D03*
X0104355Y0184083D03*
X0104355Y0184107D03*
X0104355Y0184155D03*
X0104355Y0184179D03*
X0104355Y0184227D03*
X0104355Y0184251D03*
X0104355Y0184275D03*
X0104355Y0184323D03*
X0104019Y0183387D03*
X0104583Y0188583D03*
X0104379Y0188907D03*
X0104319Y0189159D03*
X0104319Y0189183D03*
X0104319Y0189207D03*
X0104319Y0189327D03*
X0104319Y0189351D03*
X0103911Y0189423D03*
X0103923Y0189507D03*
X0103923Y0188979D03*
X0103947Y0188859D03*
X0103983Y0188727D03*
X0106107Y0189387D03*
X0106083Y0189483D03*
X0106503Y0189519D03*
X0106515Y0189411D03*
X0106515Y0189387D03*
X0106515Y0189147D03*
X0106515Y0189123D03*
X0106503Y0188991D03*
D12*
X0106515Y0189099D03*
X0106479Y0188871D03*
X0106371Y0188571D03*
X0106047Y0188871D03*
X0106107Y0189099D03*
X0106515Y0189363D03*
X0103947Y0189603D03*
X0103911Y0189063D03*
X0103911Y0189039D03*
X0103971Y0188763D03*
X0104355Y0184299D03*
X0104355Y0184203D03*
X0104355Y0184131D03*
X0104355Y0184035D03*
X0104355Y0183963D03*
X0104355Y0183939D03*
X0104355Y0183867D03*
X0104355Y0183795D03*
X0103971Y0183603D03*
X0106047Y0183639D03*
X0106443Y0183531D03*
D13*
X0104511Y0188595D03*
X0106515Y0189255D03*
D14*
X0106503Y0189255D03*
X0105615Y0190263D03*
X0105603Y0190263D03*
X0105579Y0190275D03*
X0105555Y0190275D03*
X0104883Y0190275D03*
X0104847Y0190263D03*
X0104823Y0190263D03*
X0104775Y0190239D03*
X0103923Y0189243D03*
X0104379Y0188643D03*
X0106311Y0185679D03*
X0105675Y0182835D03*
X0105651Y0182835D03*
X0105639Y0182823D03*
X0105615Y0182811D03*
X0105603Y0182811D03*
X0105519Y0182775D03*
X0104919Y0182775D03*
X0104871Y0182799D03*
X0104847Y0182799D03*
X0104811Y0182811D03*
D15*
X0104391Y0183591D03*
X0104367Y0183711D03*
X0103959Y0183687D03*
X0106035Y0183579D03*
X0106467Y0183675D03*
X0106467Y0183723D03*
X0105963Y0188691D03*
X0106095Y0189423D03*
X0106491Y0189555D03*
X0106431Y0189783D03*
X0106335Y0189975D03*
X0104463Y0188751D03*
X0104367Y0188943D03*
X0104331Y0189075D03*
D16*
X0105927Y0190071D03*
X0106491Y0189243D03*
X0106191Y0185727D03*
X0104535Y0182991D03*
X0104559Y0182967D03*
D17*
X0104415Y0183135D03*
X0106023Y0185799D03*
X0106479Y0189255D03*
X0106071Y0189903D03*
X0104355Y0189891D03*
D18*
X0104463Y0187227D03*
X0106467Y0189255D03*
X0106095Y0189843D03*
D19*
X0106095Y0189039D03*
X0106467Y0188835D03*
X0103935Y0188895D03*
X0103935Y0189567D03*
X0103959Y0183663D03*
X0104091Y0183195D03*
X0106059Y0183699D03*
X0106467Y0183699D03*
D20*
X0106395Y0185649D03*
X0105627Y0185649D03*
X0105531Y0185649D03*
X0105459Y0185649D03*
X0105435Y0185649D03*
X0105363Y0185649D03*
X0105291Y0185649D03*
X0105267Y0185649D03*
X0105195Y0185649D03*
X0105099Y0185649D03*
X0105027Y0185649D03*
X0104931Y0185649D03*
X0104859Y0185649D03*
X0104835Y0185649D03*
X0104763Y0185649D03*
X0104691Y0185649D03*
X0104667Y0185649D03*
X0104595Y0185649D03*
X0104499Y0185649D03*
X0104427Y0185649D03*
X0104331Y0185649D03*
X0104259Y0185649D03*
X0104235Y0185649D03*
X0104163Y0185649D03*
X0104091Y0185649D03*
X0104067Y0185649D03*
X0103995Y0185649D03*
X0104691Y0187413D03*
X0104763Y0187413D03*
X0104835Y0187413D03*
X0104859Y0187413D03*
X0104931Y0187413D03*
X0105027Y0187413D03*
X0105099Y0187413D03*
X0105195Y0187413D03*
X0105267Y0187413D03*
X0105291Y0187413D03*
X0105363Y0187413D03*
X0105435Y0187413D03*
X0105459Y0187413D03*
X0105531Y0187413D03*
X0105627Y0187413D03*
X0105699Y0187413D03*
X0105795Y0187413D03*
X0105867Y0187413D03*
X0105891Y0187413D03*
X0105963Y0187413D03*
X0106035Y0187413D03*
X0106059Y0187413D03*
X0106131Y0187413D03*
X0106227Y0187413D03*
X0106299Y0187413D03*
X0106395Y0187413D03*
X0106467Y0187413D03*
X0105927Y0188421D03*
X0105831Y0188421D03*
X0105759Y0188421D03*
X0105735Y0188421D03*
X0105663Y0188421D03*
X0105591Y0188421D03*
X0105567Y0188421D03*
X0105495Y0188421D03*
D21*
X0106467Y0185625D03*
D22*
X0106467Y0184263D03*
X0106431Y0189243D03*
X0103995Y0189231D03*
D23*
X0103971Y0189231D03*
X0104583Y0187179D03*
X0105807Y0185883D03*
X0106455Y0189243D03*
D24*
X0105939Y0188427D03*
X0105951Y0187407D03*
X0105975Y0187407D03*
X0106023Y0187407D03*
X0106047Y0187407D03*
X0106071Y0187407D03*
X0106119Y0187407D03*
X0106143Y0187407D03*
X0106215Y0187407D03*
X0106239Y0187407D03*
X0106287Y0187407D03*
X0106311Y0187407D03*
X0106383Y0187407D03*
X0106407Y0187407D03*
X0106455Y0187407D03*
X0105903Y0187407D03*
X0105879Y0187407D03*
X0105855Y0187407D03*
X0105807Y0187407D03*
X0105783Y0187407D03*
X0105711Y0187407D03*
X0105687Y0187407D03*
X0105639Y0187407D03*
X0105615Y0187407D03*
X0105543Y0187407D03*
X0105519Y0187407D03*
X0105471Y0187407D03*
X0105447Y0187407D03*
X0105423Y0187407D03*
X0105375Y0187407D03*
X0105351Y0187407D03*
X0105303Y0187407D03*
X0105279Y0187407D03*
X0105255Y0187407D03*
X0105207Y0187407D03*
X0105183Y0187407D03*
X0105111Y0187407D03*
X0105087Y0187407D03*
X0105039Y0187407D03*
X0105015Y0187407D03*
X0104943Y0187407D03*
X0104919Y0187407D03*
X0104871Y0187407D03*
X0104847Y0187407D03*
X0104823Y0187407D03*
X0104775Y0187407D03*
X0104751Y0187407D03*
X0104703Y0187407D03*
X0103983Y0187407D03*
X0103983Y0185655D03*
X0104007Y0185655D03*
X0104055Y0185655D03*
X0104079Y0185655D03*
X0104103Y0185655D03*
X0104151Y0185655D03*
X0104175Y0185655D03*
X0104223Y0185655D03*
X0104247Y0185655D03*
X0104271Y0185655D03*
X0104319Y0185655D03*
X0104343Y0185655D03*
X0104415Y0185655D03*
X0104439Y0185655D03*
X0104487Y0185655D03*
X0104511Y0185655D03*
X0104583Y0185655D03*
X0104607Y0185655D03*
X0104655Y0185655D03*
X0104679Y0185655D03*
X0104703Y0185655D03*
X0104751Y0185655D03*
X0104775Y0185655D03*
X0104823Y0185655D03*
X0104847Y0185655D03*
X0104871Y0185655D03*
X0104919Y0185655D03*
X0104943Y0185655D03*
X0105015Y0185655D03*
X0105039Y0185655D03*
X0105087Y0185655D03*
X0105111Y0185655D03*
X0105183Y0185655D03*
X0105207Y0185655D03*
X0105255Y0185655D03*
X0105279Y0185655D03*
X0105303Y0185655D03*
X0105351Y0185655D03*
X0105375Y0185655D03*
X0105423Y0185655D03*
X0105447Y0185655D03*
X0105471Y0185655D03*
X0105519Y0185655D03*
X0105543Y0185655D03*
X0105615Y0185655D03*
X0105639Y0185655D03*
X0106383Y0185655D03*
X0106047Y0184563D03*
X0106023Y0184563D03*
X0106011Y0184563D03*
X0105987Y0184563D03*
X0105975Y0184563D03*
X0105951Y0184563D03*
X0105939Y0184563D03*
X0105915Y0184563D03*
X0105903Y0184563D03*
X0105879Y0184563D03*
X0105855Y0184563D03*
X0105843Y0184563D03*
X0105819Y0184563D03*
X0105807Y0184563D03*
X0105783Y0184563D03*
X0105771Y0184563D03*
X0105747Y0184563D03*
X0105723Y0184563D03*
X0105711Y0184563D03*
X0105687Y0184563D03*
X0105675Y0184563D03*
X0105651Y0184563D03*
X0105639Y0184563D03*
X0105615Y0184563D03*
X0105603Y0184563D03*
X0105579Y0184563D03*
X0105555Y0184563D03*
X0105543Y0184563D03*
X0105519Y0184563D03*
X0105507Y0184563D03*
X0105483Y0184563D03*
X0105471Y0184563D03*
X0105447Y0184563D03*
X0105423Y0184563D03*
X0105411Y0184563D03*
X0105387Y0184563D03*
X0105375Y0184563D03*
X0105351Y0184563D03*
X0105339Y0184563D03*
X0105315Y0184563D03*
X0105303Y0184563D03*
X0105279Y0184563D03*
X0105255Y0184563D03*
X0105243Y0184563D03*
X0105219Y0184563D03*
X0105207Y0184563D03*
X0105183Y0184563D03*
X0105171Y0184563D03*
X0105147Y0184563D03*
X0105123Y0184563D03*
X0105111Y0184563D03*
X0105087Y0184563D03*
X0105075Y0184563D03*
X0105051Y0184563D03*
X0105039Y0184563D03*
X0105015Y0184563D03*
X0105003Y0184563D03*
X0104979Y0184563D03*
X0104955Y0184563D03*
X0104943Y0184563D03*
X0104919Y0184563D03*
X0104907Y0184563D03*
X0104883Y0184563D03*
X0104871Y0184563D03*
X0104847Y0184563D03*
X0104823Y0184563D03*
X0104811Y0184563D03*
X0104787Y0184563D03*
X0104775Y0184563D03*
X0104751Y0184563D03*
X0104739Y0184563D03*
X0104715Y0184563D03*
X0104703Y0184563D03*
X0104679Y0184563D03*
X0104655Y0184563D03*
X0104643Y0184563D03*
X0104619Y0184563D03*
X0104607Y0184563D03*
X0104583Y0184563D03*
X0104571Y0184563D03*
X0104547Y0184563D03*
X0104523Y0184563D03*
X0104511Y0184563D03*
X0104487Y0184563D03*
X0104475Y0184563D03*
X0104451Y0184563D03*
X0104439Y0184563D03*
X0104415Y0184563D03*
X0104403Y0184563D03*
X0104379Y0184563D03*
X0104355Y0184563D03*
D25*
X0106455Y0185625D03*
D26*
X0106455Y0184197D03*
D27*
X0105711Y0185919D03*
X0104679Y0187143D03*
X0103983Y0189231D03*
X0106443Y0189243D03*
D28*
X0105903Y0188421D03*
X0105879Y0188421D03*
X0105855Y0188421D03*
X0105807Y0188421D03*
X0105783Y0188421D03*
X0105711Y0188421D03*
X0105687Y0188421D03*
X0105639Y0188421D03*
X0105615Y0188421D03*
X0105543Y0188421D03*
X0105519Y0188421D03*
X0105471Y0188421D03*
X0105483Y0187413D03*
X0105507Y0187413D03*
X0105555Y0187413D03*
X0105579Y0187413D03*
X0105603Y0187413D03*
X0105651Y0187413D03*
X0105675Y0187413D03*
X0105723Y0187413D03*
X0105747Y0187413D03*
X0105771Y0187413D03*
X0105819Y0187413D03*
X0105843Y0187413D03*
X0105915Y0187413D03*
X0105939Y0187413D03*
X0105987Y0187413D03*
X0106011Y0187413D03*
X0106083Y0187413D03*
X0106107Y0187413D03*
X0106155Y0187413D03*
X0106179Y0187413D03*
X0106203Y0187413D03*
X0106251Y0187413D03*
X0106275Y0187413D03*
X0106323Y0187413D03*
X0106347Y0187413D03*
X0106371Y0187413D03*
X0106419Y0187413D03*
X0106443Y0187413D03*
X0105411Y0187413D03*
X0105387Y0187413D03*
X0105339Y0187413D03*
X0105315Y0187413D03*
X0105243Y0187413D03*
X0105219Y0187413D03*
X0105171Y0187413D03*
X0105147Y0187413D03*
X0105123Y0187413D03*
X0105075Y0187413D03*
X0105051Y0187413D03*
X0105003Y0187413D03*
X0104979Y0187413D03*
X0104955Y0187413D03*
X0104907Y0187413D03*
X0104883Y0187413D03*
X0104811Y0187413D03*
X0104787Y0187413D03*
X0104739Y0187413D03*
X0104715Y0187413D03*
X0103971Y0187413D03*
X0103971Y0185649D03*
X0104019Y0185649D03*
X0104043Y0185649D03*
X0104115Y0185649D03*
X0104139Y0185649D03*
X0104187Y0185649D03*
X0104211Y0185649D03*
X0104283Y0185649D03*
X0104307Y0185649D03*
X0104355Y0185649D03*
X0104379Y0185649D03*
X0104403Y0185649D03*
X0104451Y0185649D03*
X0104475Y0185649D03*
X0104523Y0185649D03*
X0104547Y0185649D03*
X0104571Y0185649D03*
X0104619Y0185649D03*
X0104643Y0185649D03*
X0104715Y0185649D03*
X0104739Y0185649D03*
X0104787Y0185649D03*
X0104811Y0185649D03*
X0104883Y0185649D03*
X0104907Y0185649D03*
X0104955Y0185649D03*
X0104979Y0185649D03*
X0105003Y0185649D03*
X0105051Y0185649D03*
X0105075Y0185649D03*
X0105123Y0185649D03*
X0105147Y0185649D03*
X0105171Y0185649D03*
X0105219Y0185649D03*
X0105243Y0185649D03*
X0105315Y0185649D03*
X0105339Y0185649D03*
X0105387Y0185649D03*
X0105411Y0185649D03*
X0105483Y0185649D03*
X0105507Y0185649D03*
X0105555Y0185649D03*
X0105579Y0185649D03*
X0105603Y0185649D03*
X0105651Y0185649D03*
X0105675Y0185649D03*
D29*
X0106443Y0185631D03*
X0104415Y0188631D03*
D30*
X0106443Y0184167D03*
D31*
X0106059Y0184563D03*
X0106035Y0184563D03*
X0105999Y0184563D03*
X0105963Y0184563D03*
X0105927Y0184563D03*
X0105891Y0184563D03*
X0105867Y0184563D03*
X0105831Y0184563D03*
X0105795Y0184563D03*
X0105759Y0184563D03*
X0105735Y0184563D03*
X0105699Y0184563D03*
X0105663Y0184563D03*
X0105627Y0184563D03*
X0105591Y0184563D03*
X0105567Y0184563D03*
X0105531Y0184563D03*
X0105495Y0184563D03*
X0105459Y0184563D03*
X0105435Y0184563D03*
X0105399Y0184563D03*
X0105363Y0184563D03*
X0105327Y0184563D03*
X0105291Y0184563D03*
X0105267Y0184563D03*
X0105231Y0184563D03*
X0105195Y0184563D03*
X0105159Y0184563D03*
X0105135Y0184563D03*
X0105099Y0184563D03*
X0105063Y0184563D03*
X0105027Y0184563D03*
X0104991Y0184563D03*
X0104967Y0184563D03*
X0104931Y0184563D03*
X0104895Y0184563D03*
X0104859Y0184563D03*
X0104835Y0184563D03*
X0104799Y0184563D03*
X0104763Y0184563D03*
X0104727Y0184563D03*
X0104691Y0184563D03*
X0104667Y0184563D03*
X0104631Y0184563D03*
X0104595Y0184563D03*
X0104559Y0184563D03*
X0104535Y0184563D03*
X0104499Y0184563D03*
X0104463Y0184563D03*
X0104427Y0184563D03*
X0104391Y0184563D03*
X0104367Y0184563D03*
X0104367Y0185655D03*
X0104391Y0185655D03*
X0104463Y0185655D03*
X0104535Y0185655D03*
X0104559Y0185655D03*
X0104631Y0185655D03*
X0104727Y0185655D03*
X0104799Y0185655D03*
X0104895Y0185655D03*
X0104967Y0185655D03*
X0104991Y0185655D03*
X0105063Y0185655D03*
X0105135Y0185655D03*
X0105159Y0185655D03*
X0105231Y0185655D03*
X0105327Y0185655D03*
X0105399Y0185655D03*
X0105495Y0185655D03*
X0105567Y0185655D03*
X0105591Y0185655D03*
X0105663Y0185655D03*
X0104295Y0185655D03*
X0104199Y0185655D03*
X0104127Y0185655D03*
X0104031Y0185655D03*
X0103959Y0185655D03*
X0103995Y0187407D03*
X0104727Y0187407D03*
X0104799Y0187407D03*
X0104895Y0187407D03*
X0104967Y0187407D03*
X0104991Y0187407D03*
X0105063Y0187407D03*
X0105135Y0187407D03*
X0105159Y0187407D03*
X0105231Y0187407D03*
X0105327Y0187407D03*
X0105399Y0187407D03*
X0105495Y0187407D03*
X0105567Y0187407D03*
X0105591Y0187407D03*
X0105663Y0187407D03*
X0105735Y0187407D03*
X0105759Y0187407D03*
X0105831Y0187407D03*
X0105927Y0187407D03*
X0105999Y0187407D03*
X0106095Y0187407D03*
X0106167Y0187407D03*
X0106191Y0187407D03*
X0106263Y0187407D03*
X0106335Y0187407D03*
X0106359Y0187407D03*
X0106431Y0187407D03*
D32*
X0106431Y0185637D03*
D33*
X0106431Y0184125D03*
D34*
X0106419Y0189243D03*
X0104007Y0189231D03*
D35*
X0106419Y0185637D03*
D36*
X0106419Y0184107D03*
D37*
X0106407Y0189243D03*
D38*
X0104403Y0188631D03*
X0106407Y0185643D03*
D39*
X0106407Y0184089D03*
D40*
X0106395Y0189243D03*
D41*
X0104091Y0189231D03*
X0106395Y0184071D03*
D42*
X0106383Y0189243D03*
D43*
X0106383Y0184053D03*
D44*
X0106371Y0189243D03*
X0104055Y0189231D03*
D45*
X0105123Y0190317D03*
X0105339Y0190317D03*
X0106371Y0185661D03*
X0105315Y0182745D03*
D46*
X0106371Y0184035D03*
X0106323Y0189243D03*
X0104115Y0189219D03*
D47*
X0106359Y0189243D03*
D48*
X0106359Y0185667D03*
D49*
X0106359Y0184017D03*
D50*
X0106347Y0189243D03*
X0104079Y0189231D03*
D51*
X0106347Y0185667D03*
D52*
X0106347Y0184011D03*
D53*
X0106335Y0189231D03*
D54*
X0105495Y0190293D03*
X0105459Y0190305D03*
X0105399Y0190317D03*
X0105063Y0190317D03*
X0104895Y0190281D03*
X0104859Y0190269D03*
X0104835Y0190257D03*
X0106335Y0185673D03*
X0105531Y0182781D03*
X0105399Y0182757D03*
X0105063Y0182745D03*
X0104991Y0182757D03*
X0104859Y0182793D03*
D55*
X0106335Y0183993D03*
D56*
X0105423Y0182757D03*
X0105375Y0182745D03*
X0105015Y0182757D03*
X0104979Y0182757D03*
X0104955Y0182769D03*
X0104943Y0182769D03*
X0106323Y0185673D03*
X0105951Y0188445D03*
X0105483Y0190293D03*
X0105447Y0190305D03*
X0105423Y0190305D03*
X0105375Y0190317D03*
X0105039Y0190317D03*
X0105015Y0190305D03*
X0104979Y0190305D03*
X0104955Y0190293D03*
X0104943Y0190293D03*
X0104871Y0190269D03*
X0104043Y0187389D03*
D57*
X0106323Y0183987D03*
D58*
X0106311Y0189231D03*
D59*
X0106311Y0183969D03*
D60*
X0104091Y0183999D03*
X0104127Y0189219D03*
X0106299Y0189231D03*
D61*
X0106299Y0185685D03*
X0104799Y0182817D03*
D62*
X0106299Y0183963D03*
X0104163Y0189219D03*
D63*
X0106287Y0189231D03*
D64*
X0105987Y0188463D03*
X0105771Y0190191D03*
X0105747Y0190203D03*
X0105723Y0190215D03*
X0105711Y0190227D03*
X0105687Y0190227D03*
X0104751Y0190227D03*
X0104703Y0190203D03*
X0104679Y0190191D03*
X0104655Y0190179D03*
X0104643Y0190167D03*
X0104079Y0187371D03*
X0106287Y0185691D03*
X0105771Y0182895D03*
X0105747Y0182871D03*
X0105711Y0182859D03*
X0104751Y0182835D03*
X0104739Y0182847D03*
D65*
X0106287Y0183945D03*
X0104175Y0189225D03*
D66*
X0106275Y0189231D03*
X0104139Y0183951D03*
D67*
X0104679Y0182877D03*
X0106275Y0185697D03*
X0105483Y0186297D03*
X0104955Y0186717D03*
X0105819Y0190161D03*
X0105783Y0190185D03*
D68*
X0106275Y0183939D03*
D69*
X0106263Y0189231D03*
D70*
X0105867Y0190131D03*
X0104631Y0190167D03*
X0104763Y0186867D03*
X0104799Y0186831D03*
X0105099Y0186603D03*
X0105195Y0186531D03*
X0105531Y0186267D03*
X0105567Y0186231D03*
X0106263Y0185703D03*
D71*
X0106263Y0183927D03*
X0104163Y0183927D03*
D72*
X0106251Y0183927D03*
X0106251Y0189231D03*
D73*
X0105807Y0190167D03*
X0104571Y0190131D03*
X0104703Y0186903D03*
X0104919Y0186735D03*
X0104979Y0186699D03*
X0105315Y0186435D03*
X0105351Y0186399D03*
X0106251Y0185703D03*
X0105819Y0182931D03*
D74*
X0106239Y0189219D03*
D75*
X0106011Y0188487D03*
X0105915Y0190095D03*
X0105879Y0190119D03*
X0104583Y0190131D03*
X0104523Y0190095D03*
X0104151Y0187347D03*
X0104751Y0186867D03*
X0104847Y0186795D03*
X0105279Y0186459D03*
X0105375Y0186387D03*
X0106239Y0185715D03*
X0105855Y0182955D03*
X0105843Y0182943D03*
X0104607Y0182931D03*
D76*
X0104175Y0183909D03*
X0106239Y0183909D03*
D77*
X0106227Y0189219D03*
D78*
X0105999Y0188481D03*
X0104727Y0186885D03*
X0104967Y0186705D03*
X0105135Y0186573D03*
X0105267Y0186465D03*
X0105399Y0186369D03*
X0105495Y0186297D03*
X0105591Y0186213D03*
X0106227Y0185709D03*
X0105831Y0182937D03*
X0104631Y0182913D03*
X0104595Y0182937D03*
X0104559Y0190113D03*
D79*
X0106227Y0183903D03*
D80*
X0106215Y0189219D03*
X0104223Y0189219D03*
D81*
X0106203Y0185721D03*
X0106215Y0185721D03*
X0104583Y0182949D03*
D82*
X0106215Y0183897D03*
X0104211Y0189225D03*
D83*
X0106203Y0189219D03*
X0106179Y0183867D03*
X0104247Y0183867D03*
D84*
X0104211Y0183891D03*
X0106203Y0183891D03*
D85*
X0104295Y0183837D03*
X0106191Y0189213D03*
D86*
X0106191Y0183873D03*
D87*
X0106107Y0183831D03*
X0104307Y0183831D03*
X0106179Y0189219D03*
D88*
X0106023Y0188505D03*
X0105939Y0190065D03*
X0104187Y0187329D03*
X0106179Y0185733D03*
X0105915Y0183009D03*
D89*
X0106167Y0189213D03*
D90*
X0104463Y0190035D03*
X0104427Y0189999D03*
X0106167Y0185739D03*
D91*
X0106167Y0183861D03*
D92*
X0106155Y0189207D03*
D93*
X0104223Y0187317D03*
X0106155Y0185745D03*
D94*
X0106155Y0183855D03*
X0104247Y0189219D03*
X0104271Y0189243D03*
X0104283Y0189255D03*
X0104307Y0189279D03*
D95*
X0106143Y0189219D03*
D96*
X0104439Y0189999D03*
X0104415Y0189975D03*
X0104403Y0189963D03*
X0104247Y0187311D03*
X0106143Y0185751D03*
X0104475Y0183051D03*
X0104487Y0183039D03*
D97*
X0104271Y0183849D03*
X0106143Y0183849D03*
D98*
X0106131Y0189207D03*
D99*
X0103935Y0189231D03*
X0106131Y0185751D03*
D100*
X0106131Y0183843D03*
D101*
X0106119Y0189213D03*
D102*
X0106119Y0185757D03*
X0106107Y0185757D03*
X0105951Y0183057D03*
D103*
X0106119Y0183837D03*
D104*
X0104487Y0187215D03*
X0106107Y0189819D03*
D105*
X0106107Y0188643D03*
D106*
X0106095Y0188613D03*
X0105891Y0185841D03*
D107*
X0106095Y0185763D03*
X0104463Y0183075D03*
D108*
X0106095Y0183825D03*
D109*
X0106083Y0188583D03*
X0106083Y0189879D03*
D110*
X0104379Y0189933D03*
X0104283Y0187293D03*
X0106083Y0185769D03*
X0105975Y0183093D03*
D111*
X0106083Y0183819D03*
D112*
X0104355Y0187269D03*
X0106071Y0188565D03*
D113*
X0106023Y0189975D03*
X0106071Y0185775D03*
X0105987Y0183099D03*
D114*
X0106071Y0183813D03*
X0104343Y0183813D03*
D115*
X0105999Y0183123D03*
X0106059Y0189927D03*
X0104367Y0189915D03*
D116*
X0104331Y0188715D03*
X0104295Y0187287D03*
X0106059Y0188547D03*
X0104427Y0183123D03*
D117*
X0106059Y0185781D03*
X0104331Y0187281D03*
D118*
X0106059Y0183255D03*
D119*
X0106011Y0183135D03*
X0106047Y0185787D03*
X0104343Y0187275D03*
X0103947Y0189231D03*
X0106047Y0189939D03*
D120*
X0106011Y0189993D03*
X0106047Y0188529D03*
X0104343Y0188697D03*
D121*
X0104379Y0183207D03*
X0106047Y0183219D03*
D122*
X0106035Y0189963D03*
D123*
X0105963Y0190047D03*
X0106035Y0188511D03*
X0104199Y0187323D03*
X0104499Y0183027D03*
X0105927Y0183027D03*
D124*
X0106035Y0185793D03*
D125*
X0106035Y0183183D03*
X0104391Y0187251D03*
D126*
X0104343Y0189867D03*
X0105975Y0185811D03*
X0106023Y0183171D03*
D127*
X0106011Y0185793D03*
D128*
X0105963Y0183069D03*
X0104259Y0187305D03*
X0105999Y0190005D03*
D129*
X0105999Y0185805D03*
D130*
X0104511Y0183015D03*
X0104211Y0187323D03*
X0104451Y0190023D03*
X0105951Y0190059D03*
X0105987Y0190023D03*
D131*
X0104379Y0187257D03*
X0105987Y0185805D03*
X0104403Y0183165D03*
D132*
X0105903Y0183003D03*
X0105939Y0183039D03*
X0105975Y0190035D03*
D133*
X0105675Y0190233D03*
X0105639Y0190245D03*
X0104787Y0190245D03*
X0104739Y0190221D03*
X0104715Y0190209D03*
X0105975Y0188457D03*
X0105723Y0182865D03*
X0105687Y0182841D03*
X0104823Y0182805D03*
X0104775Y0182829D03*
X0104715Y0182853D03*
D134*
X0104931Y0182775D03*
X0104967Y0182763D03*
X0105027Y0182751D03*
X0105099Y0182751D03*
X0105135Y0182739D03*
X0105159Y0182739D03*
X0105231Y0182739D03*
X0105267Y0182739D03*
X0105291Y0182739D03*
X0105327Y0182739D03*
X0105363Y0182751D03*
X0105435Y0182751D03*
X0105459Y0182763D03*
X0104031Y0187395D03*
X0104391Y0188643D03*
X0104931Y0190287D03*
X0104967Y0190299D03*
X0104991Y0190299D03*
X0105027Y0190311D03*
X0105099Y0190311D03*
X0105135Y0190323D03*
X0105159Y0190323D03*
X0105231Y0190323D03*
X0105267Y0190323D03*
X0105291Y0190323D03*
X0105327Y0190323D03*
X0105363Y0190311D03*
X0105435Y0190311D03*
X0105531Y0190287D03*
X0105963Y0188439D03*
D135*
X0105963Y0185817D03*
D136*
X0105951Y0185823D03*
X0104415Y0187239D03*
D137*
X0104319Y0188745D03*
X0105939Y0185829D03*
D138*
X0105927Y0185835D03*
D139*
X0105915Y0188415D03*
X0105843Y0188415D03*
X0105819Y0188415D03*
X0105771Y0188415D03*
X0105747Y0188415D03*
X0105723Y0188415D03*
X0105675Y0188415D03*
X0105651Y0188415D03*
X0105603Y0188415D03*
X0105579Y0188415D03*
X0105555Y0188415D03*
X0105507Y0188415D03*
X0105483Y0188415D03*
D140*
X0105915Y0185835D03*
D141*
X0104523Y0183003D03*
X0104547Y0182979D03*
X0104175Y0187335D03*
X0104475Y0190035D03*
X0104487Y0190047D03*
X0104511Y0190071D03*
X0105903Y0190095D03*
D142*
X0105903Y0185847D03*
X0105879Y0185847D03*
D143*
X0105891Y0182985D03*
X0105891Y0190113D03*
D144*
X0105891Y0188415D03*
X0105867Y0188415D03*
X0105795Y0188415D03*
X0105699Y0188415D03*
X0105627Y0188415D03*
X0105531Y0188415D03*
X0105459Y0188415D03*
X0103959Y0187419D03*
D145*
X0104355Y0188673D03*
X0104571Y0182961D03*
X0105879Y0182973D03*
D146*
X0105867Y0185853D03*
D147*
X0105159Y0186555D03*
X0105063Y0186627D03*
X0105867Y0182967D03*
X0104535Y0190095D03*
D148*
X0104547Y0190101D03*
X0105843Y0190149D03*
X0105855Y0190137D03*
X0104823Y0186813D03*
X0104871Y0186777D03*
X0104943Y0186717D03*
X0105039Y0186645D03*
X0105075Y0186621D03*
X0105087Y0186609D03*
X0105183Y0186537D03*
X0105255Y0186477D03*
X0105471Y0186309D03*
X0105615Y0186201D03*
X0104139Y0187353D03*
X0104619Y0182913D03*
D149*
X0105855Y0185859D03*
X0104523Y0187203D03*
X0104511Y0187203D03*
X0104319Y0189795D03*
D150*
X0104547Y0187197D03*
X0105843Y0185865D03*
D151*
X0105663Y0186159D03*
X0105627Y0186195D03*
X0105459Y0186315D03*
X0105435Y0186339D03*
X0105363Y0186387D03*
X0105327Y0186423D03*
X0105291Y0186459D03*
X0105231Y0186495D03*
X0105027Y0186651D03*
X0104991Y0186687D03*
X0104931Y0186723D03*
X0104895Y0186759D03*
X0104859Y0186783D03*
X0104835Y0186807D03*
X0104691Y0186915D03*
X0104127Y0187359D03*
X0104367Y0188655D03*
X0105795Y0190179D03*
X0105831Y0190155D03*
X0105795Y0182907D03*
X0104667Y0182883D03*
D152*
X0105831Y0185871D03*
D153*
X0105819Y0185877D03*
X0104571Y0187185D03*
D154*
X0104715Y0186891D03*
X0104739Y0186879D03*
X0104775Y0186855D03*
X0104787Y0186843D03*
X0104811Y0186819D03*
X0104883Y0186771D03*
X0104907Y0186747D03*
X0105003Y0186675D03*
X0105015Y0186663D03*
X0105051Y0186639D03*
X0105111Y0186591D03*
X0105123Y0186579D03*
X0105147Y0186555D03*
X0105171Y0186543D03*
X0105207Y0186519D03*
X0105219Y0186507D03*
X0105243Y0186483D03*
X0105303Y0186447D03*
X0105339Y0186411D03*
X0105387Y0186375D03*
X0105411Y0186363D03*
X0105423Y0186351D03*
X0105447Y0186327D03*
X0105507Y0186291D03*
X0105519Y0186279D03*
X0105543Y0186255D03*
X0105555Y0186243D03*
X0105579Y0186219D03*
X0105603Y0186207D03*
X0105639Y0186183D03*
X0105651Y0186171D03*
X0105675Y0186147D03*
X0105807Y0182919D03*
X0105783Y0182895D03*
X0104655Y0182895D03*
X0104643Y0182907D03*
X0104607Y0190143D03*
X0104619Y0190155D03*
D155*
X0105795Y0185883D03*
D156*
X0105783Y0185889D03*
X0105771Y0185889D03*
D157*
X0105735Y0182877D03*
X0105759Y0190197D03*
X0104595Y0190137D03*
D158*
X0105759Y0185895D03*
D159*
X0105759Y0182883D03*
X0105663Y0182835D03*
X0104727Y0182859D03*
X0104691Y0182871D03*
X0104091Y0187371D03*
X0104667Y0190191D03*
X0105735Y0190203D03*
D160*
X0104643Y0187161D03*
X0105747Y0185901D03*
D161*
X0105735Y0185907D03*
D162*
X0105723Y0185913D03*
X0104655Y0187149D03*
D163*
X0104763Y0190227D03*
X0105567Y0190275D03*
X0105591Y0190263D03*
X0105663Y0190239D03*
X0105699Y0190227D03*
X0105627Y0182811D03*
X0105591Y0182799D03*
X0105567Y0182799D03*
X0105495Y0182775D03*
X0104895Y0182775D03*
X0104835Y0182811D03*
X0104763Y0182835D03*
D164*
X0105699Y0185919D03*
D165*
X0105699Y0182853D03*
X0104067Y0187377D03*
X0104691Y0190197D03*
X0104727Y0190221D03*
X0104799Y0190245D03*
D166*
X0105687Y0185925D03*
D167*
X0105555Y0182787D03*
X0105039Y0182751D03*
X0104883Y0182787D03*
X0104055Y0187383D03*
X0104811Y0190251D03*
X0104919Y0190287D03*
X0105519Y0190287D03*
X0105543Y0190287D03*
X0105651Y0190251D03*
D168*
X0105627Y0190251D03*
D169*
X0105507Y0190287D03*
X0105471Y0190299D03*
X0105411Y0190311D03*
X0105387Y0190311D03*
X0105351Y0190323D03*
X0105315Y0190323D03*
X0105303Y0190323D03*
X0105279Y0190323D03*
X0105255Y0190323D03*
X0105207Y0190323D03*
X0105183Y0190323D03*
X0105171Y0190323D03*
X0105147Y0190323D03*
X0105111Y0190323D03*
X0105087Y0190323D03*
X0105075Y0190311D03*
X0105051Y0190311D03*
X0105003Y0190311D03*
X0104907Y0190287D03*
X0104907Y0182775D03*
X0105003Y0182751D03*
X0105051Y0182751D03*
X0105075Y0182751D03*
X0105087Y0182739D03*
X0105111Y0182739D03*
X0105123Y0182739D03*
X0105147Y0182739D03*
X0105171Y0182739D03*
X0105183Y0182739D03*
X0105207Y0182739D03*
X0105243Y0182739D03*
X0105255Y0182739D03*
X0105279Y0182739D03*
X0105303Y0182739D03*
X0105339Y0182751D03*
X0105351Y0182739D03*
X0105387Y0182751D03*
X0105411Y0182751D03*
X0105447Y0182763D03*
X0105471Y0182763D03*
X0105483Y0182775D03*
X0105507Y0182775D03*
X0105543Y0182787D03*
X0105579Y0182799D03*
D170*
X0105447Y0188745D03*
X0105423Y0188745D03*
X0105375Y0188745D03*
X0105351Y0188745D03*
X0105303Y0188745D03*
X0105279Y0188745D03*
X0105255Y0188745D03*
X0105207Y0188745D03*
X0105183Y0188745D03*
X0105111Y0188745D03*
X0105087Y0188745D03*
D171*
X0105099Y0188739D03*
X0105195Y0188739D03*
X0105267Y0188739D03*
X0105291Y0188739D03*
X0105363Y0188739D03*
X0105435Y0188739D03*
D172*
X0105411Y0188739D03*
X0105387Y0188739D03*
X0105339Y0188739D03*
X0105315Y0188739D03*
X0105243Y0188739D03*
X0105219Y0188739D03*
X0105171Y0188739D03*
X0105147Y0188739D03*
X0105123Y0188739D03*
X0105075Y0188739D03*
D173*
X0105135Y0188745D03*
X0105159Y0188745D03*
X0105231Y0188745D03*
X0105327Y0188745D03*
X0105399Y0188745D03*
X0103959Y0184245D03*
D174*
X0105219Y0182733D03*
X0104019Y0187401D03*
X0104007Y0187401D03*
X0105219Y0190329D03*
X0105243Y0190329D03*
D175*
X0105195Y0190329D03*
X0105195Y0182733D03*
D176*
X0104787Y0182817D03*
D177*
X0104703Y0182865D03*
X0104115Y0187365D03*
X0104103Y0187365D03*
D178*
X0104667Y0187149D03*
D179*
X0104631Y0187161D03*
D180*
X0104619Y0187167D03*
X0104607Y0187167D03*
D181*
X0104595Y0187173D03*
D182*
X0104571Y0188583D03*
D183*
X0104559Y0188583D03*
D184*
X0104559Y0187191D03*
X0104367Y0183255D03*
D185*
X0104547Y0188583D03*
D186*
X0104535Y0188583D03*
D187*
X0104535Y0187197D03*
D188*
X0104523Y0188583D03*
D189*
X0104163Y0187341D03*
X0104499Y0190065D03*
D190*
X0104499Y0188595D03*
D191*
X0104499Y0187209D03*
D192*
X0104487Y0188601D03*
D193*
X0104475Y0188607D03*
D194*
X0104475Y0187221D03*
D195*
X0104463Y0188601D03*
D196*
X0104451Y0188607D03*
D197*
X0104451Y0187233D03*
X0104439Y0187233D03*
D198*
X0104271Y0187299D03*
X0104451Y0183087D03*
D199*
X0104439Y0188619D03*
X0103911Y0189243D03*
D200*
X0104307Y0187287D03*
X0104439Y0183111D03*
D201*
X0104427Y0188619D03*
D202*
X0104427Y0187245D03*
D203*
X0104403Y0187245D03*
D204*
X0104391Y0189945D03*
D205*
X0104331Y0189843D03*
X0104391Y0183183D03*
D206*
X0104367Y0187263D03*
D207*
X0104355Y0183303D03*
D208*
X0104331Y0183819D03*
D209*
X0104319Y0187281D03*
D210*
X0104319Y0183825D03*
D211*
X0104259Y0189231D03*
X0104295Y0189267D03*
D212*
X0104283Y0183843D03*
D213*
X0104259Y0183867D03*
X0104235Y0189219D03*
D214*
X0104235Y0187317D03*
D215*
X0104235Y0183879D03*
D216*
X0104223Y0183885D03*
D217*
X0104199Y0189225D03*
D218*
X0104199Y0183897D03*
D219*
X0104151Y0183933D03*
X0104187Y0189225D03*
D220*
X0104187Y0183915D03*
D221*
X0104151Y0189219D03*
D222*
X0104139Y0189231D03*
D223*
X0104127Y0183957D03*
D224*
X0104115Y0183975D03*
D225*
X0104043Y0184047D03*
X0104103Y0189219D03*
D226*
X0104103Y0183981D03*
D227*
X0104079Y0184005D03*
D228*
X0104067Y0189219D03*
D229*
X0104067Y0184023D03*
D230*
X0104055Y0184029D03*
D231*
X0104043Y0189219D03*
D232*
X0104031Y0189231D03*
D233*
X0104031Y0184065D03*
D234*
X0103971Y0184203D03*
X0104019Y0189219D03*
D235*
X0104019Y0184095D03*
D236*
X0104007Y0184101D03*
D237*
X0103995Y0184131D03*
D238*
X0103983Y0184149D03*
D239*
X0103959Y0189231D03*
D240*
X0036047Y0015549D02*
X0032311Y0015549D01*
X0034179Y0017417D02*
X0034179Y0013681D01*
D241*
X0059755Y0078367D03*
X0059715Y0078567D03*
X0063175Y0078267D03*
X0060815Y0096627D03*
X0060655Y0097227D03*
X0061415Y0097227D03*
X0061555Y0096727D03*
X0061155Y0097967D03*
X0059615Y0097067D03*
X0058975Y0097227D03*
X0058975Y0097267D03*
X0058975Y0096827D03*
X0059075Y0097727D03*
X0059075Y0102127D03*
X0059055Y0102267D03*
X0059715Y0102527D03*
X0063075Y0097967D03*
X0063155Y0097767D03*
X0063275Y0097167D03*
X0063255Y0117627D03*
X0063315Y0118127D03*
X0063275Y0118527D03*
X0063255Y0118627D03*
X0063155Y0118967D03*
X0062555Y0118527D03*
X0062575Y0118467D03*
X0062615Y0118267D03*
X0061815Y0122027D03*
X0061855Y0122267D03*
X0061875Y0122527D03*
X0061875Y0122567D03*
X0061875Y0122727D03*
X0061875Y0122767D03*
X0061875Y0122927D03*
X0061875Y0122967D03*
X0061875Y0123127D03*
X0061875Y0123167D03*
X0061875Y0123327D03*
X0059715Y0122327D03*
X0059755Y0122127D03*
X0059055Y0122067D03*
X0059175Y0121667D03*
X0059255Y0119267D03*
X0058955Y0118367D03*
X0059655Y0117827D03*
X0059675Y0117767D03*
D242*
X0058975Y0117707D03*
X0058955Y0117807D03*
X0058955Y0117847D03*
X0058955Y0118407D03*
X0058975Y0118507D03*
X0059155Y0121687D03*
X0059115Y0121807D03*
X0061715Y0121687D03*
X0061875Y0122407D03*
X0061875Y0122447D03*
X0061875Y0122487D03*
X0061875Y0122607D03*
X0061875Y0122647D03*
X0061875Y0122687D03*
X0061875Y0122807D03*
X0061875Y0122847D03*
X0061875Y0122887D03*
X0061875Y0123007D03*
X0061875Y0123047D03*
X0061875Y0123087D03*
X0061875Y0123207D03*
X0061875Y0123247D03*
X0061875Y0123287D03*
X0063175Y0118907D03*
X0063215Y0118787D03*
X0063315Y0118087D03*
X0063275Y0117687D03*
X0062615Y0117907D03*
X0062615Y0117947D03*
X0061075Y0102447D03*
X0061055Y0102347D03*
X0061575Y0101907D03*
X0061375Y0097387D03*
X0061475Y0097007D03*
X0061515Y0096847D03*
X0061615Y0096547D03*
X0060975Y0096147D03*
X0060855Y0096507D03*
X0060715Y0097007D03*
X0059675Y0096687D03*
X0059655Y0096747D03*
X0059755Y0096447D03*
X0059055Y0096347D03*
X0059015Y0096507D03*
X0058975Y0096787D03*
X0058975Y0097307D03*
X0059015Y0097507D03*
X0059655Y0097347D03*
X0062615Y0097147D03*
X0062615Y0097107D03*
X0062615Y0096707D03*
X0062555Y0096487D03*
X0062515Y0096407D03*
X0063275Y0096607D03*
X0063275Y0096647D03*
X0063275Y0097207D03*
X0063255Y0097307D03*
X0063255Y0097347D03*
X0063215Y0078587D03*
X0063215Y0078547D03*
X0063075Y0077887D03*
X0062475Y0078287D03*
X0062515Y0078447D03*
X0059715Y0078607D03*
X0059055Y0078387D03*
X0059075Y0078247D03*
X0059115Y0078087D03*
X0059175Y0077907D03*
D243*
X0059095Y0078187D03*
X0059035Y0078487D03*
X0059695Y0078707D03*
X0059695Y0078747D03*
X0059695Y0078787D03*
X0059695Y0078907D03*
X0059695Y0078947D03*
X0059695Y0078987D03*
X0059695Y0079107D03*
X0059695Y0079147D03*
X0059695Y0079187D03*
X0059695Y0079307D03*
X0059695Y0079347D03*
X0059695Y0079387D03*
X0059695Y0079507D03*
X0059695Y0079547D03*
X0059695Y0079587D03*
X0059795Y0078247D03*
X0062295Y0077907D03*
X0062495Y0078347D03*
X0062535Y0078507D03*
X0062535Y0078547D03*
X0059235Y0095887D03*
X0059035Y0096407D03*
X0058995Y0096607D03*
X0059635Y0096887D03*
X0059635Y0097207D03*
X0058995Y0097447D03*
X0059035Y0097607D03*
X0061195Y0097887D03*
X0062595Y0097207D03*
X0062595Y0096607D03*
X0063235Y0096407D03*
X0063195Y0096247D03*
X0063095Y0097907D03*
X0060935Y0102107D03*
X0061095Y0102547D03*
X0059735Y0102387D03*
X0059695Y0102707D03*
X0059695Y0102747D03*
X0059695Y0102787D03*
X0059695Y0102907D03*
X0059695Y0102947D03*
X0059695Y0102987D03*
X0059695Y0103107D03*
X0059695Y0103147D03*
X0059695Y0103187D03*
X0059695Y0103307D03*
X0059695Y0103347D03*
X0059695Y0103387D03*
X0059695Y0103507D03*
X0059695Y0103547D03*
X0059695Y0103587D03*
X0059695Y0103707D03*
X0059695Y0103747D03*
X0059035Y0102407D03*
X0059635Y0118007D03*
X0059635Y0118207D03*
X0059635Y0118247D03*
X0059695Y0118547D03*
X0059235Y0119247D03*
X0059035Y0122207D03*
X0059735Y0122187D03*
X0059695Y0122507D03*
X0059695Y0122547D03*
X0059695Y0122587D03*
X0059695Y0122707D03*
X0059695Y0122747D03*
X0059695Y0122787D03*
X0059695Y0122907D03*
X0059695Y0122947D03*
X0059695Y0122987D03*
X0059695Y0123107D03*
X0059695Y0123147D03*
X0059695Y0123187D03*
X0059695Y0123307D03*
X0059695Y0123347D03*
X0061195Y0122447D03*
X0061195Y0122407D03*
X0061835Y0122087D03*
X0063295Y0118347D03*
X0063295Y0118307D03*
X0063295Y0117907D03*
D244*
X0063295Y0118107D03*
X0059895Y0095987D03*
D245*
X0059635Y0096927D03*
X0060595Y0097367D03*
X0062095Y0098227D03*
X0062535Y0097467D03*
X0062535Y0096427D03*
X0059095Y0102067D03*
X0059035Y0102367D03*
X0059695Y0102627D03*
X0059695Y0102667D03*
X0059695Y0102827D03*
X0059695Y0102867D03*
X0059695Y0103027D03*
X0059695Y0103067D03*
X0059695Y0103227D03*
X0059695Y0103267D03*
X0059695Y0103427D03*
X0059695Y0103467D03*
X0059695Y0103627D03*
X0059695Y0103667D03*
X0058995Y0117567D03*
X0059635Y0117967D03*
X0059035Y0122167D03*
X0059695Y0122467D03*
X0059695Y0122627D03*
X0059695Y0122667D03*
X0059695Y0122827D03*
X0059695Y0122867D03*
X0059695Y0123027D03*
X0059695Y0123067D03*
X0059695Y0123227D03*
X0059695Y0123267D03*
X0061195Y0122367D03*
X0061795Y0121927D03*
X0062595Y0118367D03*
X0063235Y0118727D03*
X0063295Y0117867D03*
X0063195Y0117367D03*
X0059695Y0079467D03*
X0059695Y0079427D03*
X0059695Y0079267D03*
X0059695Y0079227D03*
X0059695Y0079067D03*
X0059695Y0079027D03*
X0059695Y0078867D03*
X0059695Y0078827D03*
X0059735Y0078427D03*
X0059035Y0078527D03*
X0063195Y0078367D03*
X0063195Y0078327D03*
D246*
X0061615Y0077007D03*
X0061575Y0077007D03*
X0061515Y0076987D03*
X0061455Y0076967D03*
X0061415Y0076967D03*
X0061375Y0076967D03*
X0061355Y0076947D03*
X0061315Y0076947D03*
X0061275Y0076947D03*
X0061255Y0076947D03*
X0061215Y0076947D03*
X0061155Y0076947D03*
X0061115Y0076947D03*
X0061075Y0076947D03*
X0061055Y0076947D03*
X0061015Y0076947D03*
X0060975Y0076947D03*
X0060955Y0076947D03*
X0060915Y0076947D03*
X0060855Y0076967D03*
X0060815Y0076967D03*
X0060775Y0076967D03*
X0060715Y0076987D03*
X0060655Y0077007D03*
X0061875Y0095787D03*
X0061855Y0095807D03*
X0061915Y0095787D03*
X0062355Y0095827D03*
X0062375Y0095847D03*
X0060375Y0098087D03*
X0060355Y0098107D03*
X0060315Y0098107D03*
X0059875Y0098067D03*
X0059855Y0098047D03*
X0060275Y0101467D03*
X0060315Y0101467D03*
X0060355Y0101467D03*
X0060475Y0101467D03*
X0060515Y0101467D03*
X0060615Y0101487D03*
X0060675Y0101507D03*
X0060175Y0101487D03*
X0060155Y0101487D03*
X0060075Y0101507D03*
X0059055Y0109687D03*
X0059075Y0109707D03*
X0059115Y0109707D03*
X0059155Y0109727D03*
X0059175Y0109727D03*
X0059215Y0109747D03*
X0059255Y0109767D03*
X0059275Y0109767D03*
X0059315Y0109787D03*
X0059355Y0109787D03*
X0059375Y0109807D03*
X0059415Y0109807D03*
X0059475Y0109827D03*
X0059515Y0109847D03*
X0059555Y0109867D03*
X0059615Y0109887D03*
X0059675Y0109907D03*
X0059715Y0109907D03*
X0059915Y0109987D03*
X0059955Y0109987D03*
X0060275Y0110107D03*
X0063055Y0111087D03*
X0060875Y0114547D03*
X0060815Y0114567D03*
X0060755Y0114587D03*
X0060715Y0114587D03*
X0060575Y0114647D03*
X0060515Y0114667D03*
X0060455Y0114687D03*
X0060355Y0114707D03*
X0060315Y0114727D03*
X0060275Y0114747D03*
X0060215Y0114767D03*
X0060175Y0114767D03*
X0060155Y0114787D03*
X0060115Y0114787D03*
X0060075Y0114807D03*
X0059975Y0114847D03*
X0059915Y0114867D03*
X0059855Y0114887D03*
X0059815Y0114887D03*
X0059755Y0114907D03*
X0059675Y0114947D03*
X0059655Y0114947D03*
X0059615Y0114967D03*
X0059555Y0114987D03*
X0059375Y0115047D03*
X0059255Y0115087D03*
X0059075Y0115147D03*
X0060655Y0116367D03*
X0060715Y0116347D03*
X0060775Y0116327D03*
X0060815Y0116327D03*
X0060855Y0116327D03*
X0060915Y0116307D03*
X0060955Y0116307D03*
X0060975Y0116307D03*
X0061015Y0116307D03*
X0061055Y0116307D03*
X0061075Y0116307D03*
X0061115Y0116307D03*
X0061155Y0116307D03*
X0061215Y0116307D03*
X0061255Y0116307D03*
X0061275Y0116307D03*
X0061315Y0116307D03*
X0061355Y0116307D03*
X0061375Y0116327D03*
X0061415Y0116327D03*
X0061455Y0116327D03*
X0061515Y0116347D03*
X0061555Y0116347D03*
X0061615Y0116367D03*
X0061655Y0116367D03*
X0061615Y0119847D03*
X0061515Y0119867D03*
X0061455Y0119887D03*
X0061415Y0119887D03*
X0061375Y0119887D03*
X0061315Y0119907D03*
X0061275Y0119907D03*
X0061255Y0119907D03*
X0061215Y0119907D03*
X0061175Y0119907D03*
X0061155Y0119907D03*
X0061115Y0119907D03*
X0061075Y0119907D03*
X0061055Y0119907D03*
X0061015Y0119907D03*
X0060955Y0119907D03*
X0060915Y0119907D03*
X0060855Y0119887D03*
X0060815Y0119887D03*
X0060775Y0119887D03*
X0060715Y0119867D03*
X0060655Y0119847D03*
X0060615Y0119847D03*
X0060675Y0121267D03*
X0060715Y0121267D03*
X0060775Y0121287D03*
X0060855Y0121327D03*
X0060175Y0121287D03*
X0060155Y0121267D03*
X0060075Y0121307D03*
X0063275Y0118107D03*
D247*
X0058955Y0118107D03*
X0063275Y0096907D03*
X0059855Y0096007D03*
D248*
X0059015Y0097007D03*
X0060955Y0101667D03*
X0060975Y0101687D03*
X0062555Y0095987D03*
X0062815Y0111087D03*
X0062815Y0113767D03*
X0062255Y0116687D03*
X0062275Y0116707D03*
X0063255Y0118127D03*
X0062255Y0119527D03*
X0062215Y0119567D03*
X0059875Y0121427D03*
X0060075Y0116627D03*
X0059475Y0112427D03*
X0060055Y0077307D03*
X0060115Y0077267D03*
X0062175Y0077287D03*
X0062215Y0077327D03*
D249*
X0062215Y0079987D03*
X0062175Y0079987D03*
X0062155Y0079987D03*
X0062115Y0079987D03*
X0062075Y0079987D03*
X0062055Y0079987D03*
X0062015Y0079987D03*
X0061975Y0079987D03*
X0061955Y0079987D03*
X0061915Y0079987D03*
X0061875Y0079987D03*
X0061855Y0079987D03*
X0061815Y0079987D03*
X0061775Y0079987D03*
X0061755Y0079987D03*
X0061715Y0079987D03*
X0061675Y0079987D03*
X0061655Y0079987D03*
X0061615Y0079987D03*
X0061575Y0079987D03*
X0061555Y0079987D03*
X0061515Y0079987D03*
X0061475Y0079987D03*
X0061455Y0079987D03*
X0061415Y0079987D03*
X0061375Y0079987D03*
X0061355Y0079987D03*
X0061315Y0079987D03*
X0061275Y0079987D03*
X0061255Y0079987D03*
X0061215Y0079987D03*
X0061175Y0079987D03*
X0061155Y0079987D03*
X0061115Y0079987D03*
X0061075Y0079987D03*
X0061055Y0079987D03*
X0061015Y0079987D03*
X0060975Y0079987D03*
X0060955Y0079987D03*
X0060915Y0079987D03*
X0060875Y0079987D03*
X0060855Y0079987D03*
X0060815Y0079987D03*
X0060775Y0079987D03*
X0060755Y0079987D03*
X0060715Y0079987D03*
X0060675Y0079987D03*
X0060655Y0079987D03*
X0060615Y0079987D03*
X0060575Y0079987D03*
X0060555Y0079987D03*
X0060515Y0079987D03*
X0060475Y0079987D03*
X0060455Y0079987D03*
X0060415Y0079987D03*
X0060375Y0079987D03*
X0060355Y0079987D03*
X0060315Y0079987D03*
X0060275Y0079987D03*
X0060255Y0079987D03*
X0060215Y0079987D03*
X0060175Y0079987D03*
X0060155Y0079987D03*
X0060115Y0079987D03*
X0060075Y0079987D03*
X0060055Y0079987D03*
X0060015Y0079987D03*
X0059975Y0079987D03*
X0059955Y0079987D03*
X0059915Y0079987D03*
X0059875Y0079987D03*
X0059855Y0079987D03*
X0059815Y0079987D03*
X0059775Y0079987D03*
X0059755Y0079987D03*
X0059715Y0079987D03*
X0062255Y0079987D03*
X0062275Y0079987D03*
X0062315Y0079987D03*
X0062355Y0079987D03*
X0062375Y0079987D03*
X0062415Y0079987D03*
X0062455Y0079987D03*
X0062475Y0079987D03*
X0062515Y0079987D03*
X0062515Y0083687D03*
X0062475Y0083687D03*
X0062455Y0083687D03*
X0062415Y0083687D03*
X0062375Y0083687D03*
X0062355Y0083687D03*
X0062315Y0083687D03*
X0062275Y0083687D03*
X0062255Y0083687D03*
X0062215Y0083687D03*
X0062175Y0083687D03*
X0062155Y0083687D03*
X0062115Y0083687D03*
X0062075Y0083687D03*
X0062055Y0083687D03*
X0062015Y0083687D03*
X0061975Y0083687D03*
X0061955Y0083687D03*
X0061915Y0083687D03*
X0061875Y0083687D03*
X0061855Y0083687D03*
X0061815Y0083687D03*
X0061775Y0083687D03*
X0061755Y0083687D03*
X0061715Y0083687D03*
X0061675Y0083687D03*
X0061655Y0083687D03*
X0061615Y0083687D03*
X0061575Y0083687D03*
X0061555Y0083687D03*
X0061515Y0083687D03*
X0061475Y0083687D03*
X0061455Y0083687D03*
X0061415Y0083687D03*
X0061375Y0083687D03*
X0061355Y0083687D03*
X0061315Y0083687D03*
X0061275Y0083687D03*
X0061255Y0083687D03*
X0061215Y0083687D03*
X0061175Y0083687D03*
X0061155Y0083687D03*
X0061115Y0083687D03*
X0061075Y0083687D03*
X0061055Y0083687D03*
X0061015Y0083687D03*
X0060975Y0083687D03*
X0060955Y0083687D03*
X0060915Y0083687D03*
X0060875Y0083687D03*
X0060855Y0083687D03*
X0060815Y0083687D03*
X0060775Y0083687D03*
X0060755Y0083687D03*
X0060715Y0083687D03*
X0060675Y0083687D03*
X0060655Y0083687D03*
X0060615Y0083687D03*
X0060575Y0083687D03*
X0060555Y0083687D03*
X0060515Y0083687D03*
X0060475Y0083687D03*
X0060455Y0083687D03*
X0060415Y0083687D03*
X0060375Y0083687D03*
X0060355Y0083687D03*
X0060315Y0083687D03*
X0060275Y0083687D03*
X0060255Y0083687D03*
X0060215Y0083687D03*
X0060175Y0083687D03*
X0060155Y0083687D03*
X0060115Y0083687D03*
X0060075Y0083687D03*
X0060055Y0083687D03*
X0060015Y0083687D03*
X0059975Y0083687D03*
X0059955Y0083687D03*
X0059915Y0083687D03*
X0059875Y0083687D03*
X0059855Y0083687D03*
X0059815Y0083687D03*
X0059775Y0083687D03*
X0059755Y0083687D03*
X0059715Y0083687D03*
X0059675Y0083687D03*
X0059655Y0083687D03*
X0059615Y0083687D03*
X0059575Y0083687D03*
X0059555Y0083687D03*
X0059515Y0083687D03*
X0059475Y0083687D03*
X0059455Y0083687D03*
X0059415Y0083687D03*
X0059375Y0083687D03*
X0059355Y0083687D03*
X0059315Y0083687D03*
X0059275Y0083687D03*
X0059255Y0083687D03*
X0059215Y0083687D03*
X0059175Y0083687D03*
X0059155Y0083687D03*
X0059115Y0083687D03*
X0059075Y0083687D03*
X0059055Y0083687D03*
X0059715Y0087707D03*
X0059755Y0087707D03*
X0059775Y0087707D03*
X0059815Y0087707D03*
X0059855Y0087707D03*
X0059875Y0087707D03*
X0059915Y0087707D03*
X0059955Y0087707D03*
X0059975Y0087707D03*
X0060015Y0087707D03*
X0060055Y0087707D03*
X0060075Y0087707D03*
X0060115Y0087707D03*
X0060155Y0087707D03*
X0060175Y0087707D03*
X0060215Y0087707D03*
X0060255Y0087707D03*
X0060275Y0087707D03*
X0060315Y0087707D03*
X0060355Y0087707D03*
X0060375Y0087707D03*
X0060415Y0087707D03*
X0060455Y0087707D03*
X0060475Y0087707D03*
X0060515Y0087707D03*
X0060555Y0087707D03*
X0060575Y0087707D03*
X0060615Y0087707D03*
X0060655Y0087707D03*
X0060675Y0087707D03*
X0060715Y0087707D03*
X0060755Y0087707D03*
X0060775Y0087707D03*
X0061455Y0087707D03*
X0061475Y0087707D03*
X0061515Y0087707D03*
X0061555Y0087707D03*
X0061575Y0087707D03*
X0061615Y0087707D03*
X0061655Y0087707D03*
X0061675Y0087707D03*
X0061715Y0087707D03*
X0061755Y0087707D03*
X0061775Y0087707D03*
X0061815Y0087707D03*
X0061855Y0087707D03*
X0061875Y0087707D03*
X0061915Y0087707D03*
X0061955Y0087707D03*
X0061975Y0087707D03*
X0062015Y0087707D03*
X0062055Y0087707D03*
X0062075Y0087707D03*
X0062115Y0087707D03*
X0062155Y0087707D03*
X0062175Y0087707D03*
X0062215Y0087707D03*
X0062255Y0087707D03*
X0062275Y0087707D03*
X0062315Y0087707D03*
X0062355Y0087707D03*
X0062375Y0087707D03*
X0062415Y0087707D03*
X0062455Y0087707D03*
X0062475Y0087707D03*
X0062515Y0087707D03*
X0062555Y0087707D03*
X0062555Y0089567D03*
X0062575Y0089567D03*
X0062615Y0089567D03*
X0062655Y0089567D03*
X0062675Y0089567D03*
X0062715Y0089567D03*
X0062755Y0089567D03*
X0062775Y0089567D03*
X0062815Y0089567D03*
X0062855Y0089567D03*
X0062875Y0089567D03*
X0062915Y0089567D03*
X0062955Y0089567D03*
X0062975Y0089567D03*
X0063015Y0089567D03*
X0063055Y0089567D03*
X0063075Y0089567D03*
X0063115Y0089567D03*
X0063155Y0089567D03*
X0063175Y0089567D03*
X0063215Y0089567D03*
X0062515Y0089567D03*
X0062475Y0089567D03*
X0062455Y0089567D03*
X0062415Y0089567D03*
X0062375Y0089567D03*
X0062355Y0089567D03*
X0062315Y0089567D03*
X0062275Y0089567D03*
X0062255Y0089567D03*
X0062215Y0089567D03*
X0062175Y0089567D03*
X0062155Y0089567D03*
X0062115Y0089567D03*
X0062075Y0089567D03*
X0062055Y0089567D03*
X0062015Y0089567D03*
X0061975Y0089567D03*
X0061955Y0089567D03*
X0061915Y0089567D03*
X0061875Y0089567D03*
X0061855Y0089567D03*
X0061815Y0089567D03*
X0061775Y0089567D03*
X0061755Y0089567D03*
X0061715Y0089567D03*
X0061675Y0089567D03*
X0061655Y0089567D03*
X0061615Y0089567D03*
X0061575Y0089567D03*
X0061555Y0089567D03*
X0061515Y0089567D03*
X0061475Y0089567D03*
X0061455Y0089567D03*
X0061415Y0089567D03*
X0061375Y0089567D03*
X0061355Y0089567D03*
X0061315Y0089567D03*
X0061275Y0089567D03*
X0061255Y0089567D03*
X0061215Y0089567D03*
X0061175Y0089567D03*
X0061155Y0089567D03*
X0061115Y0089567D03*
X0061075Y0089567D03*
X0061055Y0089567D03*
X0061015Y0089567D03*
X0060975Y0089567D03*
X0060955Y0089567D03*
X0060915Y0089567D03*
X0060875Y0089567D03*
X0060855Y0089567D03*
X0060815Y0089567D03*
X0060775Y0089567D03*
X0060755Y0089567D03*
X0060715Y0089567D03*
X0060675Y0089567D03*
X0060655Y0089567D03*
X0060615Y0089567D03*
X0060575Y0089567D03*
X0060555Y0089567D03*
X0060515Y0089567D03*
X0060475Y0089567D03*
X0060455Y0089567D03*
X0060415Y0089567D03*
X0060375Y0089567D03*
X0060355Y0089567D03*
X0060315Y0089567D03*
X0060275Y0089567D03*
X0060255Y0089567D03*
X0060215Y0089567D03*
X0060175Y0089567D03*
X0060155Y0089567D03*
X0060115Y0089567D03*
X0060075Y0089567D03*
X0060055Y0089567D03*
X0060015Y0089567D03*
X0059975Y0089567D03*
X0059955Y0089567D03*
X0059915Y0089567D03*
X0059875Y0089567D03*
X0059855Y0089567D03*
X0059815Y0089567D03*
X0059775Y0089567D03*
X0059755Y0089567D03*
X0059715Y0089567D03*
X0059675Y0089567D03*
X0059655Y0089567D03*
X0059615Y0089567D03*
X0059575Y0089567D03*
X0059555Y0089567D03*
X0059515Y0089567D03*
X0059475Y0089567D03*
X0059455Y0089567D03*
X0059415Y0089567D03*
X0059375Y0089567D03*
X0059355Y0089567D03*
X0059315Y0089567D03*
X0059275Y0089567D03*
X0059255Y0089567D03*
X0059215Y0089567D03*
X0059175Y0089567D03*
X0059155Y0089567D03*
X0059115Y0089567D03*
X0059075Y0089567D03*
X0059055Y0089567D03*
X0059055Y0091427D03*
X0059075Y0091427D03*
X0059115Y0091427D03*
X0059155Y0091427D03*
X0059175Y0091427D03*
X0059215Y0091427D03*
X0059255Y0091427D03*
X0059275Y0091427D03*
X0059315Y0091427D03*
X0059355Y0091427D03*
X0059375Y0091427D03*
X0059415Y0091427D03*
X0059455Y0091427D03*
X0059475Y0091427D03*
X0059515Y0091427D03*
X0059555Y0091427D03*
X0059575Y0091427D03*
X0059615Y0091427D03*
X0059655Y0091427D03*
X0059675Y0091427D03*
X0059715Y0091427D03*
X0059755Y0091427D03*
X0059775Y0091427D03*
X0059815Y0091427D03*
X0059855Y0091427D03*
X0059875Y0091427D03*
X0059915Y0091427D03*
X0059955Y0091427D03*
X0059975Y0091427D03*
X0060015Y0091427D03*
X0060055Y0091427D03*
X0060075Y0091427D03*
X0060115Y0091427D03*
X0060155Y0091427D03*
X0060175Y0091427D03*
X0060215Y0091427D03*
X0060255Y0091427D03*
X0060275Y0091427D03*
X0060315Y0091427D03*
X0060355Y0091427D03*
X0060375Y0091427D03*
X0060415Y0091427D03*
X0060455Y0091427D03*
X0060475Y0091427D03*
X0060515Y0091427D03*
X0060555Y0091427D03*
X0060575Y0091427D03*
X0060615Y0091427D03*
X0060655Y0091427D03*
X0060675Y0091427D03*
X0060715Y0091427D03*
X0060755Y0091427D03*
X0061455Y0091427D03*
X0061475Y0091427D03*
X0061515Y0091427D03*
X0061555Y0091427D03*
X0061575Y0091427D03*
X0061615Y0091427D03*
X0061655Y0091427D03*
X0061675Y0091427D03*
X0061715Y0091427D03*
X0061755Y0091427D03*
X0061775Y0091427D03*
X0061815Y0091427D03*
X0061855Y0091427D03*
X0061875Y0091427D03*
X0061915Y0091427D03*
X0061955Y0091427D03*
X0061975Y0091427D03*
X0062015Y0091427D03*
X0062055Y0091427D03*
X0062075Y0091427D03*
X0062115Y0091427D03*
X0062155Y0091427D03*
X0062175Y0091427D03*
X0062215Y0091427D03*
X0062255Y0091427D03*
X0062275Y0091427D03*
X0062315Y0091427D03*
X0062355Y0091427D03*
X0062375Y0091427D03*
X0062415Y0091427D03*
X0062455Y0091427D03*
X0062475Y0091427D03*
X0062515Y0091427D03*
X0062555Y0091427D03*
X0062575Y0091427D03*
X0062615Y0091427D03*
X0062655Y0091427D03*
X0062675Y0091427D03*
X0062715Y0091427D03*
X0062755Y0091427D03*
X0062775Y0091427D03*
X0062815Y0091427D03*
X0062855Y0091427D03*
X0062875Y0091427D03*
X0062915Y0091427D03*
X0062955Y0091427D03*
X0062975Y0091427D03*
X0063015Y0091427D03*
X0063055Y0091427D03*
X0063075Y0091427D03*
X0063115Y0091427D03*
X0063155Y0091427D03*
X0063175Y0091427D03*
X0063215Y0091427D03*
X0063215Y0094167D03*
X0063175Y0094167D03*
X0063155Y0094167D03*
X0063115Y0094167D03*
X0063075Y0094167D03*
X0063055Y0094167D03*
X0063015Y0094167D03*
X0062975Y0094167D03*
X0062955Y0094167D03*
X0062915Y0094167D03*
X0062875Y0094167D03*
X0062855Y0094167D03*
X0062815Y0094167D03*
X0062775Y0094167D03*
X0062755Y0094167D03*
X0062715Y0094167D03*
X0062675Y0094167D03*
X0062655Y0094167D03*
X0062615Y0094167D03*
X0062575Y0094167D03*
X0062555Y0094167D03*
X0062515Y0094167D03*
X0062475Y0094167D03*
X0062455Y0094167D03*
X0062415Y0094167D03*
X0062375Y0094167D03*
X0062355Y0094167D03*
X0062315Y0094167D03*
X0062275Y0094167D03*
X0062255Y0094167D03*
X0062215Y0094167D03*
X0062175Y0094167D03*
X0062155Y0094167D03*
X0062115Y0094167D03*
X0062075Y0094167D03*
X0062055Y0094167D03*
X0062015Y0094167D03*
X0061975Y0094167D03*
X0061955Y0094167D03*
X0061915Y0094167D03*
X0061875Y0094167D03*
X0061855Y0094167D03*
X0061815Y0094167D03*
X0061775Y0094167D03*
X0061755Y0094167D03*
X0061715Y0094167D03*
X0061675Y0094167D03*
X0061655Y0094167D03*
X0061615Y0094167D03*
X0061575Y0094167D03*
X0061555Y0094167D03*
X0061515Y0094167D03*
X0061475Y0094167D03*
X0061455Y0094167D03*
X0060755Y0094167D03*
X0060715Y0094167D03*
X0060675Y0094167D03*
X0060655Y0094167D03*
X0060615Y0094167D03*
X0060575Y0094167D03*
X0060555Y0094167D03*
X0060515Y0094167D03*
X0060475Y0094167D03*
X0060455Y0094167D03*
X0060415Y0094167D03*
X0060375Y0094167D03*
X0060355Y0094167D03*
X0060315Y0094167D03*
X0060275Y0094167D03*
X0060255Y0094167D03*
X0060215Y0094167D03*
X0060175Y0094167D03*
X0060155Y0094167D03*
X0060115Y0094167D03*
X0060075Y0094167D03*
X0060055Y0094167D03*
X0060015Y0094167D03*
X0059975Y0094167D03*
X0059955Y0094167D03*
X0059915Y0094167D03*
X0059875Y0094167D03*
X0059855Y0094167D03*
X0059815Y0094167D03*
X0059775Y0094167D03*
X0059755Y0094167D03*
X0059715Y0094167D03*
X0059675Y0094167D03*
X0059655Y0094167D03*
X0059615Y0094167D03*
X0059575Y0094167D03*
X0059555Y0094167D03*
X0059515Y0094167D03*
X0059475Y0094167D03*
X0059455Y0094167D03*
X0059415Y0094167D03*
X0059375Y0094167D03*
X0059355Y0094167D03*
X0059315Y0094167D03*
X0059275Y0094167D03*
X0059255Y0094167D03*
X0059215Y0094167D03*
X0059175Y0094167D03*
X0059155Y0094167D03*
X0059115Y0094167D03*
X0059075Y0094167D03*
X0059055Y0094167D03*
X0059975Y0098107D03*
X0060015Y0098107D03*
X0060075Y0098127D03*
X0060115Y0098127D03*
X0060155Y0098127D03*
X0060175Y0098127D03*
X0060255Y0101467D03*
X0060375Y0101467D03*
X0060415Y0101467D03*
X0060455Y0101467D03*
X0062015Y0095767D03*
X0062055Y0095767D03*
X0062075Y0095767D03*
X0062115Y0095767D03*
X0062155Y0095767D03*
X0062215Y0095787D03*
X0062255Y0095787D03*
X0063255Y0096907D03*
X0062555Y0108167D03*
X0062515Y0108167D03*
X0062475Y0108167D03*
X0062455Y0108167D03*
X0062415Y0108167D03*
X0062375Y0108167D03*
X0062355Y0108167D03*
X0062315Y0108167D03*
X0062275Y0108167D03*
X0062255Y0108167D03*
X0062215Y0108167D03*
X0062175Y0108167D03*
X0062155Y0108167D03*
X0062115Y0108167D03*
X0062075Y0108167D03*
X0062055Y0108167D03*
X0062015Y0108167D03*
X0061975Y0108167D03*
X0061955Y0108167D03*
X0061915Y0108167D03*
X0061875Y0108167D03*
X0061855Y0108167D03*
X0061815Y0108167D03*
X0061775Y0108167D03*
X0061755Y0108167D03*
X0061715Y0108167D03*
X0061675Y0108167D03*
X0061655Y0108167D03*
X0061615Y0108167D03*
X0061575Y0108167D03*
X0061555Y0108167D03*
X0061515Y0108167D03*
X0061475Y0108167D03*
X0061455Y0108167D03*
X0060775Y0108167D03*
X0060755Y0108167D03*
X0060715Y0108167D03*
X0060675Y0108167D03*
X0060655Y0108167D03*
X0060615Y0108167D03*
X0060575Y0108167D03*
X0060555Y0108167D03*
X0060515Y0108167D03*
X0060475Y0108167D03*
X0060455Y0108167D03*
X0060415Y0108167D03*
X0060375Y0108167D03*
X0060355Y0108167D03*
X0060315Y0108167D03*
X0060275Y0108167D03*
X0060255Y0108167D03*
X0060215Y0108167D03*
X0060175Y0108167D03*
X0060155Y0108167D03*
X0060115Y0108167D03*
X0060075Y0108167D03*
X0060055Y0108167D03*
X0060015Y0108167D03*
X0059975Y0108167D03*
X0059955Y0108167D03*
X0059915Y0108167D03*
X0059875Y0108167D03*
X0059855Y0108167D03*
X0059815Y0108167D03*
X0059775Y0108167D03*
X0059755Y0108167D03*
X0059715Y0108167D03*
X0059575Y0109867D03*
X0059875Y0109967D03*
X0060055Y0110027D03*
X0060175Y0110067D03*
X0060355Y0110127D03*
X0060475Y0110167D03*
X0060615Y0110227D03*
X0060655Y0110227D03*
X0060755Y0110267D03*
X0060775Y0110267D03*
X0060815Y0110287D03*
X0060915Y0110327D03*
X0060955Y0110327D03*
X0061075Y0110367D03*
X0061115Y0110387D03*
X0061155Y0110407D03*
X0061375Y0110467D03*
X0061555Y0110527D03*
X0061675Y0110567D03*
X0061955Y0111487D03*
X0061715Y0111567D03*
X0061415Y0111667D03*
X0061355Y0111687D03*
X0061115Y0111767D03*
X0061055Y0111787D03*
X0060815Y0111867D03*
X0060755Y0111887D03*
X0060675Y0111927D03*
X0060515Y0111967D03*
X0060455Y0111987D03*
X0059175Y0112427D03*
X0059155Y0112407D03*
X0060375Y0114707D03*
X0060615Y0114627D03*
X0060975Y0114507D03*
X0061015Y0114507D03*
X0061215Y0114427D03*
X0061255Y0114427D03*
X0061275Y0114407D03*
X0061375Y0114387D03*
X0061515Y0114327D03*
X0061575Y0114307D03*
X0061615Y0114307D03*
X0061815Y0114227D03*
X0061855Y0114227D03*
X0061875Y0114207D03*
X0061915Y0114207D03*
X0063115Y0113767D03*
X0063115Y0111087D03*
X0058975Y0118107D03*
D250*
X0059735Y0116967D03*
X0062535Y0117007D03*
X0063235Y0118107D03*
X0062535Y0119207D03*
X0059835Y0112427D03*
X0062435Y0077587D03*
D251*
X0063235Y0113777D03*
D252*
X0063235Y0111087D03*
X0059035Y0112407D03*
D253*
X0062695Y0111087D03*
X0058995Y0118107D03*
X0059795Y0121507D03*
X0059795Y0101707D03*
X0063235Y0096947D03*
X0062335Y0077447D03*
D254*
X0062315Y0104147D03*
X0062275Y0104147D03*
X0062255Y0104147D03*
X0062215Y0104147D03*
X0062175Y0104147D03*
X0062155Y0104147D03*
X0062115Y0104147D03*
X0062075Y0104147D03*
X0062055Y0104147D03*
X0062015Y0104147D03*
X0061975Y0104147D03*
X0061955Y0104147D03*
X0061915Y0104147D03*
X0061875Y0104147D03*
X0061855Y0104147D03*
X0061815Y0104147D03*
X0061775Y0104147D03*
X0062355Y0104147D03*
X0062375Y0104147D03*
X0062415Y0104147D03*
X0062455Y0104147D03*
X0062475Y0104147D03*
X0062515Y0104147D03*
X0062555Y0104147D03*
X0062575Y0104147D03*
X0062615Y0104147D03*
X0062655Y0104147D03*
X0062675Y0104147D03*
X0062715Y0104147D03*
X0062755Y0104147D03*
X0062775Y0104147D03*
X0062815Y0104147D03*
X0062855Y0104147D03*
X0062875Y0104147D03*
X0062915Y0104147D03*
X0062955Y0104147D03*
X0062975Y0104147D03*
X0063015Y0104147D03*
X0063055Y0104147D03*
X0063075Y0104147D03*
X0063115Y0104147D03*
X0063155Y0104147D03*
X0063175Y0104147D03*
X0063215Y0104147D03*
X0061075Y0104147D03*
X0061055Y0104147D03*
X0061015Y0104147D03*
X0060975Y0104147D03*
X0060955Y0104147D03*
X0060915Y0104147D03*
X0060875Y0104147D03*
X0060855Y0104147D03*
X0060815Y0104147D03*
X0060775Y0104147D03*
X0060755Y0104147D03*
X0060715Y0104147D03*
X0060675Y0104147D03*
X0060655Y0104147D03*
X0060615Y0104147D03*
X0060575Y0104147D03*
X0060555Y0104147D03*
X0060515Y0104147D03*
X0060475Y0104147D03*
X0060455Y0104147D03*
X0060415Y0104147D03*
X0060375Y0104147D03*
X0060355Y0104147D03*
X0060315Y0104147D03*
X0060275Y0104147D03*
X0060255Y0104147D03*
X0060215Y0104147D03*
X0060175Y0104147D03*
X0060155Y0104147D03*
X0060115Y0104147D03*
X0060075Y0104147D03*
X0060055Y0104147D03*
X0060015Y0104147D03*
X0059975Y0104147D03*
X0059955Y0104147D03*
X0059915Y0104147D03*
X0059875Y0104147D03*
X0059855Y0104147D03*
X0059815Y0104147D03*
X0059775Y0104147D03*
X0059755Y0104147D03*
X0059715Y0104147D03*
X0059815Y0109947D03*
X0060115Y0110047D03*
X0060375Y0110147D03*
X0060415Y0110147D03*
X0060675Y0110247D03*
X0060715Y0110247D03*
X0060975Y0110347D03*
X0061015Y0110347D03*
X0061275Y0110447D03*
X0061315Y0110447D03*
X0061775Y0111547D03*
X0061475Y0111647D03*
X0061175Y0111747D03*
X0060875Y0111847D03*
X0060575Y0111947D03*
X0060315Y0112047D03*
X0060275Y0112047D03*
X0061155Y0114447D03*
X0060855Y0114547D03*
X0061455Y0114347D03*
X0061755Y0114247D03*
X0062055Y0114147D03*
X0060555Y0121247D03*
X0060515Y0121247D03*
X0060475Y0121247D03*
X0060355Y0121247D03*
X0060315Y0121247D03*
X0060315Y0123747D03*
X0060275Y0123747D03*
X0060255Y0123747D03*
X0060215Y0123747D03*
X0060175Y0123747D03*
X0060155Y0123747D03*
X0060115Y0123747D03*
X0060075Y0123747D03*
X0060055Y0123747D03*
X0060015Y0123747D03*
X0059975Y0123747D03*
X0059955Y0123747D03*
X0059915Y0123747D03*
X0059875Y0123747D03*
X0059855Y0123747D03*
X0059815Y0123747D03*
X0059775Y0123747D03*
X0059755Y0123747D03*
X0059715Y0123747D03*
X0060355Y0123747D03*
X0060375Y0123747D03*
X0060415Y0123747D03*
X0060455Y0123747D03*
X0060475Y0123747D03*
X0060515Y0123747D03*
X0060555Y0123747D03*
X0060575Y0123747D03*
X0060615Y0123747D03*
X0060655Y0123747D03*
X0060675Y0123747D03*
X0060715Y0123747D03*
X0060755Y0123747D03*
X0060775Y0123747D03*
X0060815Y0123747D03*
X0060855Y0123747D03*
X0060875Y0123747D03*
X0060915Y0123747D03*
X0060955Y0123747D03*
X0060975Y0123747D03*
X0061015Y0123747D03*
X0061055Y0123747D03*
X0061075Y0123747D03*
X0061115Y0123747D03*
X0061155Y0123747D03*
X0061175Y0123747D03*
X0061915Y0123747D03*
X0061955Y0123747D03*
X0061975Y0123747D03*
X0062015Y0123747D03*
X0062055Y0123747D03*
X0062075Y0123747D03*
X0062115Y0123747D03*
X0062155Y0123747D03*
X0062175Y0123747D03*
X0062215Y0123747D03*
X0062255Y0123747D03*
X0062275Y0123747D03*
X0062315Y0123747D03*
X0062355Y0123747D03*
X0062375Y0123747D03*
X0062415Y0123747D03*
X0062455Y0123747D03*
X0062475Y0123747D03*
X0062515Y0123747D03*
X0062555Y0123747D03*
X0062575Y0123747D03*
X0062615Y0123747D03*
X0062655Y0123747D03*
X0062675Y0123747D03*
X0062715Y0123747D03*
X0062755Y0123747D03*
X0062775Y0123747D03*
X0062815Y0123747D03*
X0062855Y0123747D03*
X0062875Y0123747D03*
X0062915Y0123747D03*
X0062955Y0123747D03*
X0062975Y0123747D03*
X0063015Y0123747D03*
X0063055Y0123747D03*
X0063075Y0123747D03*
X0063115Y0123747D03*
X0063155Y0123747D03*
X0063175Y0123747D03*
X0063215Y0123747D03*
D255*
X0063215Y0118107D03*
X0059675Y0119127D03*
X0059675Y0117087D03*
X0060015Y0112427D03*
X0062315Y0111087D03*
X0062575Y0097987D03*
X0059755Y0077687D03*
D256*
X0062375Y0098147D03*
X0063215Y0111067D03*
X0063215Y0113787D03*
X0059055Y0112427D03*
D257*
X0060215Y0116537D03*
X0060175Y0116557D03*
X0062075Y0116557D03*
X0062115Y0116577D03*
X0062915Y0113777D03*
X0062915Y0111077D03*
X0061915Y0102317D03*
X0061955Y0102297D03*
X0062075Y0102197D03*
X0062115Y0102177D03*
X0062375Y0101997D03*
X0062475Y0101917D03*
X0062615Y0101817D03*
X0062655Y0101797D03*
X0062675Y0101777D03*
X0062775Y0101717D03*
X0062875Y0101637D03*
X0063015Y0101537D03*
X0063055Y0101517D03*
X0063075Y0101497D03*
X0063155Y0101437D03*
X0063175Y0101417D03*
X0063215Y0101397D03*
X0061755Y0095857D03*
X0060475Y0098037D03*
X0061955Y0119717D03*
X0060975Y0121397D03*
X0059915Y0121397D03*
X0060215Y0077197D03*
X0062075Y0077217D03*
D258*
X0062455Y0077607D03*
X0063215Y0096927D03*
X0062475Y0111067D03*
X0062455Y0111087D03*
X0062455Y0113767D03*
X0062475Y0113787D03*
X0062515Y0116987D03*
X0062515Y0119227D03*
X0061175Y0121647D03*
X0059755Y0116947D03*
X0059855Y0112407D03*
D259*
X0062675Y0106967D03*
X0062715Y0106967D03*
X0062755Y0106967D03*
X0062875Y0106967D03*
X0062915Y0106967D03*
X0062955Y0106967D03*
X0063075Y0106967D03*
X0063115Y0106967D03*
X0063155Y0106967D03*
X0062675Y0118127D03*
X0059575Y0118107D03*
X0062575Y0086507D03*
X0062615Y0086507D03*
X0062655Y0086507D03*
X0062775Y0086507D03*
X0062815Y0086507D03*
X0062855Y0086507D03*
X0062975Y0086507D03*
X0063015Y0086507D03*
X0063055Y0086507D03*
X0063175Y0086507D03*
X0063215Y0086507D03*
X0062655Y0078787D03*
D260*
X0062655Y0082577D03*
X0062615Y0082577D03*
X0062575Y0082577D03*
X0062775Y0082577D03*
X0062815Y0082577D03*
X0062855Y0082577D03*
X0062975Y0082577D03*
X0063015Y0082577D03*
X0063055Y0082577D03*
X0063175Y0082577D03*
X0063215Y0082577D03*
X0061315Y0122637D03*
X0059555Y0122637D03*
D261*
X0063215Y0079487D03*
D262*
X0063195Y0104147D03*
X0063135Y0104147D03*
X0063095Y0104147D03*
X0063035Y0104147D03*
X0062995Y0104147D03*
X0062935Y0104147D03*
X0062895Y0104147D03*
X0062835Y0104147D03*
X0062795Y0104147D03*
X0062735Y0104147D03*
X0062695Y0104147D03*
X0062635Y0104147D03*
X0062595Y0104147D03*
X0062535Y0104147D03*
X0062495Y0104147D03*
X0062435Y0104147D03*
X0062395Y0104147D03*
X0062335Y0104147D03*
X0062295Y0104147D03*
X0062235Y0104147D03*
X0062195Y0104147D03*
X0062135Y0104147D03*
X0062095Y0104147D03*
X0062035Y0104147D03*
X0061995Y0104147D03*
X0061935Y0104147D03*
X0061895Y0104147D03*
X0061835Y0104147D03*
X0061795Y0104147D03*
X0061095Y0104147D03*
X0061035Y0104147D03*
X0060995Y0104147D03*
X0060935Y0104147D03*
X0060895Y0104147D03*
X0060835Y0104147D03*
X0060795Y0104147D03*
X0060735Y0104147D03*
X0060695Y0104147D03*
X0060635Y0104147D03*
X0060595Y0104147D03*
X0060535Y0104147D03*
X0060495Y0104147D03*
X0060435Y0104147D03*
X0060395Y0104147D03*
X0060335Y0104147D03*
X0060295Y0104147D03*
X0060235Y0104147D03*
X0060195Y0104147D03*
X0060135Y0104147D03*
X0060095Y0104147D03*
X0060035Y0104147D03*
X0059995Y0104147D03*
X0059935Y0104147D03*
X0059895Y0104147D03*
X0059835Y0104147D03*
X0059795Y0104147D03*
X0059735Y0104147D03*
X0059695Y0104147D03*
X0060995Y0110347D03*
X0060435Y0112847D03*
X0061495Y0114347D03*
X0061795Y0114247D03*
X0060435Y0121247D03*
X0060395Y0121247D03*
X0060395Y0123747D03*
X0060435Y0123747D03*
X0060495Y0123747D03*
X0060535Y0123747D03*
X0060595Y0123747D03*
X0060635Y0123747D03*
X0060695Y0123747D03*
X0060735Y0123747D03*
X0060795Y0123747D03*
X0060835Y0123747D03*
X0060895Y0123747D03*
X0060935Y0123747D03*
X0060995Y0123747D03*
X0061035Y0123747D03*
X0061095Y0123747D03*
X0061135Y0123747D03*
X0061195Y0123747D03*
X0061895Y0123747D03*
X0061935Y0123747D03*
X0061995Y0123747D03*
X0062035Y0123747D03*
X0062095Y0123747D03*
X0062135Y0123747D03*
X0062195Y0123747D03*
X0062235Y0123747D03*
X0062295Y0123747D03*
X0062335Y0123747D03*
X0062395Y0123747D03*
X0062435Y0123747D03*
X0062495Y0123747D03*
X0062535Y0123747D03*
X0062595Y0123747D03*
X0062635Y0123747D03*
X0062695Y0123747D03*
X0062735Y0123747D03*
X0062795Y0123747D03*
X0062835Y0123747D03*
X0062895Y0123747D03*
X0062935Y0123747D03*
X0062995Y0123747D03*
X0063035Y0123747D03*
X0063095Y0123747D03*
X0063135Y0123747D03*
X0063195Y0123747D03*
X0060335Y0123747D03*
X0060295Y0123747D03*
X0060235Y0123747D03*
X0060195Y0123747D03*
X0060135Y0123747D03*
X0060095Y0123747D03*
X0060035Y0123747D03*
X0059995Y0123747D03*
X0059935Y0123747D03*
X0059895Y0123747D03*
X0059835Y0123747D03*
X0059795Y0123747D03*
X0059735Y0123747D03*
X0059695Y0123747D03*
D263*
X0059635Y0119007D03*
X0059635Y0117207D03*
X0063195Y0118127D03*
D264*
X0063195Y0113777D03*
X0061935Y0113357D03*
X0061895Y0113337D03*
X0061835Y0113317D03*
X0061695Y0113277D03*
X0061535Y0113217D03*
X0061335Y0113157D03*
X0061095Y0113077D03*
X0062095Y0110717D03*
X0063195Y0111077D03*
X0059095Y0112417D03*
D265*
X0062595Y0106967D03*
X0062635Y0106967D03*
X0062795Y0106967D03*
X0062835Y0106967D03*
X0062995Y0106967D03*
X0063035Y0106967D03*
X0063195Y0106967D03*
X0063135Y0086507D03*
X0063095Y0086507D03*
X0062935Y0086507D03*
X0062895Y0086507D03*
X0062735Y0086507D03*
X0062695Y0086507D03*
D266*
X0062135Y0077267D03*
X0062095Y0077227D03*
X0060195Y0077207D03*
X0061735Y0095867D03*
X0062535Y0095947D03*
X0060495Y0098027D03*
X0063035Y0101527D03*
X0063195Y0101407D03*
X0062635Y0101807D03*
X0061795Y0102407D03*
X0059395Y0112407D03*
X0060235Y0116527D03*
X0060135Y0116587D03*
X0062135Y0119627D03*
X0060995Y0121407D03*
X0062895Y0113787D03*
D267*
X0062595Y0117147D03*
X0063195Y0096947D03*
D268*
X0062395Y0098127D03*
X0062195Y0095767D03*
X0062135Y0095767D03*
X0062095Y0095767D03*
X0062035Y0095767D03*
X0061995Y0095767D03*
X0061895Y0095787D03*
X0061895Y0094167D03*
X0061935Y0094167D03*
X0061995Y0094167D03*
X0062035Y0094167D03*
X0062095Y0094167D03*
X0062135Y0094167D03*
X0062195Y0094167D03*
X0062235Y0094167D03*
X0062295Y0094167D03*
X0062335Y0094167D03*
X0062395Y0094167D03*
X0062435Y0094167D03*
X0062495Y0094167D03*
X0062535Y0094167D03*
X0062595Y0094167D03*
X0062635Y0094167D03*
X0062695Y0094167D03*
X0062735Y0094167D03*
X0062795Y0094167D03*
X0062835Y0094167D03*
X0062895Y0094167D03*
X0062935Y0094167D03*
X0062995Y0094167D03*
X0063035Y0094167D03*
X0063095Y0094167D03*
X0063135Y0094167D03*
X0063195Y0094167D03*
X0063195Y0091427D03*
X0063135Y0091427D03*
X0063095Y0091427D03*
X0063035Y0091427D03*
X0062995Y0091427D03*
X0062935Y0091427D03*
X0062895Y0091427D03*
X0062835Y0091427D03*
X0062795Y0091427D03*
X0062735Y0091427D03*
X0062695Y0091427D03*
X0062635Y0091427D03*
X0062595Y0091427D03*
X0062535Y0091427D03*
X0062495Y0091427D03*
X0062435Y0091427D03*
X0062395Y0091427D03*
X0062335Y0091427D03*
X0062295Y0091427D03*
X0062235Y0091427D03*
X0062195Y0091427D03*
X0062135Y0091427D03*
X0062095Y0091427D03*
X0062035Y0091427D03*
X0061995Y0091427D03*
X0061935Y0091427D03*
X0061895Y0091427D03*
X0061835Y0091427D03*
X0061795Y0091427D03*
X0061735Y0091427D03*
X0061695Y0091427D03*
X0061635Y0091427D03*
X0061595Y0091427D03*
X0061535Y0091427D03*
X0061495Y0091427D03*
X0060735Y0091427D03*
X0060695Y0091427D03*
X0060635Y0091427D03*
X0060595Y0091427D03*
X0060535Y0091427D03*
X0060495Y0091427D03*
X0060435Y0091427D03*
X0060395Y0091427D03*
X0060335Y0091427D03*
X0060295Y0091427D03*
X0060235Y0091427D03*
X0060195Y0091427D03*
X0060135Y0091427D03*
X0060095Y0091427D03*
X0060035Y0091427D03*
X0059995Y0091427D03*
X0059935Y0091427D03*
X0059895Y0091427D03*
X0059835Y0091427D03*
X0059795Y0091427D03*
X0059735Y0091427D03*
X0059695Y0091427D03*
X0059635Y0091427D03*
X0059595Y0091427D03*
X0059535Y0091427D03*
X0059495Y0091427D03*
X0059435Y0091427D03*
X0059395Y0091427D03*
X0059335Y0091427D03*
X0059295Y0091427D03*
X0059235Y0091427D03*
X0059195Y0091427D03*
X0059135Y0091427D03*
X0059095Y0091427D03*
X0059035Y0091427D03*
X0059035Y0089567D03*
X0059095Y0089567D03*
X0059135Y0089567D03*
X0059195Y0089567D03*
X0059235Y0089567D03*
X0059295Y0089567D03*
X0059335Y0089567D03*
X0059395Y0089567D03*
X0059435Y0089567D03*
X0059495Y0089567D03*
X0059535Y0089567D03*
X0059595Y0089567D03*
X0059635Y0089567D03*
X0059695Y0089567D03*
X0059735Y0089567D03*
X0059795Y0089567D03*
X0059835Y0089567D03*
X0059895Y0089567D03*
X0059935Y0089567D03*
X0059995Y0089567D03*
X0060035Y0089567D03*
X0060095Y0089567D03*
X0060135Y0089567D03*
X0060195Y0089567D03*
X0060235Y0089567D03*
X0060295Y0089567D03*
X0060335Y0089567D03*
X0060395Y0089567D03*
X0060435Y0089567D03*
X0060495Y0089567D03*
X0060535Y0089567D03*
X0060595Y0089567D03*
X0060635Y0089567D03*
X0060695Y0089567D03*
X0060735Y0089567D03*
X0060795Y0089567D03*
X0060835Y0089567D03*
X0060895Y0089567D03*
X0060935Y0089567D03*
X0060995Y0089567D03*
X0061035Y0089567D03*
X0061095Y0089567D03*
X0061135Y0089567D03*
X0061195Y0089567D03*
X0061235Y0089567D03*
X0061295Y0089567D03*
X0061335Y0089567D03*
X0061395Y0089567D03*
X0061435Y0089567D03*
X0061495Y0089567D03*
X0061535Y0089567D03*
X0061595Y0089567D03*
X0061635Y0089567D03*
X0061695Y0089567D03*
X0061735Y0089567D03*
X0061795Y0089567D03*
X0061835Y0089567D03*
X0061895Y0089567D03*
X0061935Y0089567D03*
X0061995Y0089567D03*
X0062035Y0089567D03*
X0062095Y0089567D03*
X0062135Y0089567D03*
X0062195Y0089567D03*
X0062235Y0089567D03*
X0062295Y0089567D03*
X0062335Y0089567D03*
X0062395Y0089567D03*
X0062435Y0089567D03*
X0062495Y0089567D03*
X0062535Y0089567D03*
X0062595Y0089567D03*
X0062635Y0089567D03*
X0062695Y0089567D03*
X0062735Y0089567D03*
X0062795Y0089567D03*
X0062835Y0089567D03*
X0062895Y0089567D03*
X0062935Y0089567D03*
X0062995Y0089567D03*
X0063035Y0089567D03*
X0063095Y0089567D03*
X0063135Y0089567D03*
X0063195Y0089567D03*
X0062535Y0087707D03*
X0062495Y0087707D03*
X0062435Y0087707D03*
X0062395Y0087707D03*
X0062335Y0087707D03*
X0062295Y0087707D03*
X0062235Y0087707D03*
X0062195Y0087707D03*
X0062135Y0087707D03*
X0062095Y0087707D03*
X0062035Y0087707D03*
X0061995Y0087707D03*
X0061935Y0087707D03*
X0061895Y0087707D03*
X0061835Y0087707D03*
X0061795Y0087707D03*
X0061735Y0087707D03*
X0061695Y0087707D03*
X0061635Y0087707D03*
X0061595Y0087707D03*
X0061535Y0087707D03*
X0061495Y0087707D03*
X0060735Y0087707D03*
X0060695Y0087707D03*
X0060635Y0087707D03*
X0060595Y0087707D03*
X0060535Y0087707D03*
X0060495Y0087707D03*
X0060435Y0087707D03*
X0060395Y0087707D03*
X0060335Y0087707D03*
X0060295Y0087707D03*
X0060235Y0087707D03*
X0060195Y0087707D03*
X0060135Y0087707D03*
X0060095Y0087707D03*
X0060035Y0087707D03*
X0059995Y0087707D03*
X0059935Y0087707D03*
X0059895Y0087707D03*
X0059835Y0087707D03*
X0059795Y0087707D03*
X0059735Y0087707D03*
X0059695Y0087707D03*
X0059695Y0083687D03*
X0059735Y0083687D03*
X0059795Y0083687D03*
X0059835Y0083687D03*
X0059895Y0083687D03*
X0059935Y0083687D03*
X0059995Y0083687D03*
X0060035Y0083687D03*
X0060095Y0083687D03*
X0060135Y0083687D03*
X0060195Y0083687D03*
X0060235Y0083687D03*
X0060295Y0083687D03*
X0060335Y0083687D03*
X0060395Y0083687D03*
X0060435Y0083687D03*
X0060495Y0083687D03*
X0060535Y0083687D03*
X0060595Y0083687D03*
X0060635Y0083687D03*
X0060695Y0083687D03*
X0060735Y0083687D03*
X0060795Y0083687D03*
X0060835Y0083687D03*
X0060895Y0083687D03*
X0060935Y0083687D03*
X0060995Y0083687D03*
X0061035Y0083687D03*
X0061095Y0083687D03*
X0061135Y0083687D03*
X0061195Y0083687D03*
X0061235Y0083687D03*
X0061295Y0083687D03*
X0061335Y0083687D03*
X0061395Y0083687D03*
X0061435Y0083687D03*
X0061495Y0083687D03*
X0061535Y0083687D03*
X0061595Y0083687D03*
X0061635Y0083687D03*
X0061695Y0083687D03*
X0061735Y0083687D03*
X0061795Y0083687D03*
X0061835Y0083687D03*
X0061895Y0083687D03*
X0061935Y0083687D03*
X0061995Y0083687D03*
X0062035Y0083687D03*
X0062095Y0083687D03*
X0062135Y0083687D03*
X0062195Y0083687D03*
X0062235Y0083687D03*
X0062295Y0083687D03*
X0062335Y0083687D03*
X0062395Y0083687D03*
X0062435Y0083687D03*
X0062495Y0083687D03*
X0062535Y0083687D03*
X0059635Y0083687D03*
X0059595Y0083687D03*
X0059535Y0083687D03*
X0059495Y0083687D03*
X0059435Y0083687D03*
X0059395Y0083687D03*
X0059335Y0083687D03*
X0059295Y0083687D03*
X0059235Y0083687D03*
X0059195Y0083687D03*
X0059135Y0083687D03*
X0059095Y0083687D03*
X0059035Y0083687D03*
X0059695Y0079987D03*
X0059735Y0079987D03*
X0059795Y0079987D03*
X0059835Y0079987D03*
X0059895Y0079987D03*
X0059935Y0079987D03*
X0059995Y0079987D03*
X0060035Y0079987D03*
X0060095Y0079987D03*
X0060135Y0079987D03*
X0060195Y0079987D03*
X0060235Y0079987D03*
X0060295Y0079987D03*
X0060335Y0079987D03*
X0060395Y0079987D03*
X0060435Y0079987D03*
X0060495Y0079987D03*
X0060535Y0079987D03*
X0060595Y0079987D03*
X0060635Y0079987D03*
X0060695Y0079987D03*
X0060735Y0079987D03*
X0060795Y0079987D03*
X0060835Y0079987D03*
X0060895Y0079987D03*
X0060935Y0079987D03*
X0060995Y0079987D03*
X0061035Y0079987D03*
X0061095Y0079987D03*
X0061135Y0079987D03*
X0061195Y0079987D03*
X0061235Y0079987D03*
X0061295Y0079987D03*
X0061335Y0079987D03*
X0061395Y0079987D03*
X0061435Y0079987D03*
X0061495Y0079987D03*
X0061535Y0079987D03*
X0061595Y0079987D03*
X0061635Y0079987D03*
X0061695Y0079987D03*
X0061735Y0079987D03*
X0061795Y0079987D03*
X0061835Y0079987D03*
X0061895Y0079987D03*
X0061935Y0079987D03*
X0061995Y0079987D03*
X0062035Y0079987D03*
X0062095Y0079987D03*
X0062135Y0079987D03*
X0062195Y0079987D03*
X0062235Y0079987D03*
X0062295Y0079987D03*
X0062335Y0079987D03*
X0062395Y0079987D03*
X0062435Y0079987D03*
X0062495Y0079987D03*
X0062535Y0079987D03*
X0061835Y0094167D03*
X0061795Y0094167D03*
X0061735Y0094167D03*
X0061695Y0094167D03*
X0061635Y0094167D03*
X0061595Y0094167D03*
X0061535Y0094167D03*
X0061495Y0094167D03*
X0060735Y0094167D03*
X0060695Y0094167D03*
X0060635Y0094167D03*
X0060595Y0094167D03*
X0060535Y0094167D03*
X0060495Y0094167D03*
X0060435Y0094167D03*
X0060395Y0094167D03*
X0060335Y0094167D03*
X0060295Y0094167D03*
X0060235Y0094167D03*
X0060195Y0094167D03*
X0060135Y0094167D03*
X0060095Y0094167D03*
X0060035Y0094167D03*
X0059995Y0094167D03*
X0059935Y0094167D03*
X0059895Y0094167D03*
X0059835Y0094167D03*
X0059795Y0094167D03*
X0059735Y0094167D03*
X0059695Y0094167D03*
X0059635Y0094167D03*
X0059595Y0094167D03*
X0059535Y0094167D03*
X0059495Y0094167D03*
X0059435Y0094167D03*
X0059395Y0094167D03*
X0059335Y0094167D03*
X0059295Y0094167D03*
X0059235Y0094167D03*
X0059195Y0094167D03*
X0059135Y0094167D03*
X0059095Y0094167D03*
X0059035Y0094167D03*
X0060035Y0098127D03*
X0060095Y0098127D03*
X0060135Y0098127D03*
X0060195Y0098127D03*
X0060235Y0098127D03*
X0060295Y0101467D03*
X0060335Y0101467D03*
X0060495Y0101467D03*
X0060535Y0101467D03*
X0060535Y0108167D03*
X0060495Y0108167D03*
X0060435Y0108167D03*
X0060395Y0108167D03*
X0060335Y0108167D03*
X0060295Y0108167D03*
X0060235Y0108167D03*
X0060195Y0108167D03*
X0060135Y0108167D03*
X0060095Y0108167D03*
X0060035Y0108167D03*
X0059995Y0108167D03*
X0059935Y0108167D03*
X0059895Y0108167D03*
X0059835Y0108167D03*
X0059795Y0108167D03*
X0059735Y0108167D03*
X0059695Y0108167D03*
X0060595Y0108167D03*
X0060635Y0108167D03*
X0060695Y0108167D03*
X0060735Y0108167D03*
X0061495Y0108167D03*
X0061535Y0108167D03*
X0061595Y0108167D03*
X0061635Y0108167D03*
X0061695Y0108167D03*
X0061735Y0108167D03*
X0061795Y0108167D03*
X0061835Y0108167D03*
X0061895Y0108167D03*
X0061935Y0108167D03*
X0061995Y0108167D03*
X0062035Y0108167D03*
X0062095Y0108167D03*
X0062135Y0108167D03*
X0062195Y0108167D03*
X0062235Y0108167D03*
X0062295Y0108167D03*
X0062335Y0108167D03*
X0062395Y0108167D03*
X0062435Y0108167D03*
X0062495Y0108167D03*
X0062535Y0108167D03*
X0061435Y0110487D03*
X0061195Y0110407D03*
X0061135Y0110387D03*
X0061035Y0110367D03*
X0060895Y0110307D03*
X0060835Y0110287D03*
X0060795Y0110287D03*
X0060735Y0110267D03*
X0060595Y0110207D03*
X0060535Y0110187D03*
X0060495Y0110187D03*
X0060295Y0110107D03*
X0060235Y0110087D03*
X0060135Y0110067D03*
X0059995Y0110007D03*
X0059935Y0109987D03*
X0059695Y0109907D03*
X0059335Y0109787D03*
X0060335Y0112027D03*
X0060395Y0112007D03*
X0060435Y0112007D03*
X0060635Y0111927D03*
X0060695Y0111907D03*
X0060795Y0111887D03*
X0060935Y0111827D03*
X0060995Y0111807D03*
X0061235Y0111727D03*
X0061295Y0111707D03*
X0061535Y0111627D03*
X0061595Y0111607D03*
X0061835Y0111527D03*
X0063095Y0111067D03*
X0063095Y0113787D03*
X0062035Y0114167D03*
X0061995Y0114167D03*
X0061935Y0114187D03*
X0061695Y0114267D03*
X0061635Y0114287D03*
X0061435Y0114367D03*
X0061395Y0114367D03*
X0061335Y0114387D03*
X0061095Y0114467D03*
X0061035Y0114487D03*
X0060795Y0114567D03*
X0060735Y0114587D03*
D269*
X0062695Y0106957D03*
X0062735Y0106957D03*
X0062895Y0106957D03*
X0062935Y0106957D03*
X0063095Y0106957D03*
X0063135Y0106957D03*
X0061195Y0102937D03*
X0062595Y0086497D03*
X0062635Y0086497D03*
X0062795Y0086497D03*
X0062835Y0086497D03*
X0062995Y0086497D03*
X0063035Y0086497D03*
X0063195Y0086497D03*
X0062635Y0078777D03*
X0059595Y0078777D03*
D270*
X0062595Y0082587D03*
X0062635Y0082587D03*
X0062795Y0082587D03*
X0062835Y0082587D03*
X0062995Y0082587D03*
X0063035Y0082587D03*
X0063195Y0082587D03*
D271*
X0063195Y0079377D03*
D272*
X0061455Y0096307D03*
X0060775Y0097587D03*
X0063175Y0118107D03*
D273*
X0063175Y0113777D03*
X0062075Y0113397D03*
X0062055Y0113397D03*
X0062015Y0113377D03*
X0061815Y0113317D03*
X0061775Y0113297D03*
X0061755Y0113297D03*
X0061655Y0113257D03*
X0061575Y0113237D03*
X0061455Y0113197D03*
X0061415Y0113177D03*
X0061175Y0113097D03*
X0061055Y0113057D03*
X0060975Y0113037D03*
X0060615Y0112917D03*
X0059075Y0112417D03*
X0063175Y0111077D03*
X0059775Y0096057D03*
D274*
X0059515Y0102937D03*
X0062575Y0106957D03*
X0062615Y0106957D03*
X0062655Y0106957D03*
X0062775Y0106957D03*
X0062815Y0106957D03*
X0062855Y0106957D03*
X0062975Y0106957D03*
X0063015Y0106957D03*
X0063055Y0106957D03*
X0063175Y0106957D03*
X0063155Y0086497D03*
X0063115Y0086497D03*
X0063075Y0086497D03*
X0062955Y0086497D03*
X0062915Y0086497D03*
X0062875Y0086497D03*
X0062755Y0086497D03*
X0062715Y0086497D03*
X0062675Y0086497D03*
D275*
X0059715Y0077807D03*
X0061475Y0096247D03*
X0063175Y0096947D03*
X0060255Y0112427D03*
X0059055Y0118107D03*
D276*
X0061815Y0123087D03*
X0063075Y0118107D03*
X0063175Y0079327D03*
D277*
X0059115Y0096987D03*
X0063155Y0118107D03*
D278*
X0063155Y0113787D03*
X0061975Y0113367D03*
X0061955Y0113347D03*
X0061915Y0113347D03*
X0061875Y0113347D03*
X0061855Y0113327D03*
X0061715Y0113287D03*
X0061675Y0113267D03*
X0061615Y0113247D03*
X0061555Y0113227D03*
X0061515Y0113227D03*
X0061475Y0113187D03*
X0061375Y0113167D03*
X0061315Y0113147D03*
X0061275Y0113147D03*
X0061255Y0113127D03*
X0061215Y0113127D03*
X0061115Y0113067D03*
X0061075Y0113067D03*
X0061015Y0113047D03*
X0060955Y0113027D03*
X0060855Y0113007D03*
X0060815Y0112967D03*
X0060775Y0112967D03*
X0060715Y0112947D03*
X0060655Y0112927D03*
X0060575Y0112887D03*
X0060475Y0112867D03*
X0060455Y0112847D03*
X0060415Y0112847D03*
X0060355Y0112827D03*
X0060775Y0111887D03*
X0061255Y0111727D03*
X0061575Y0111607D03*
X0061615Y0111607D03*
X0061655Y0111587D03*
X0061755Y0111547D03*
X0061815Y0111527D03*
X0061975Y0111487D03*
X0062055Y0111447D03*
X0062075Y0110707D03*
X0062055Y0110687D03*
X0062015Y0110687D03*
X0061955Y0110667D03*
X0061775Y0110607D03*
X0061715Y0110587D03*
X0061655Y0110567D03*
X0061415Y0110487D03*
X0061355Y0110467D03*
X0061175Y0110407D03*
X0059115Y0112427D03*
X0059755Y0096067D03*
D279*
X0060055Y0098117D03*
X0062175Y0095777D03*
X0061215Y0110417D03*
X0061515Y0110517D03*
X0061815Y0110617D03*
X0061975Y0110677D03*
X0061875Y0111517D03*
X0061855Y0111517D03*
X0061675Y0111577D03*
X0061555Y0111617D03*
X0061375Y0111677D03*
X0061275Y0111717D03*
X0061075Y0111777D03*
X0060975Y0111817D03*
X0060955Y0111817D03*
X0060655Y0111917D03*
X0060475Y0111977D03*
X0060375Y0112017D03*
X0060315Y0112817D03*
X0060515Y0112877D03*
X0060915Y0113017D03*
X0061655Y0114277D03*
X0061975Y0114177D03*
X0063155Y0111077D03*
D280*
X0059075Y0118107D03*
X0063155Y0096947D03*
D281*
X0062715Y0097067D03*
X0062715Y0082587D03*
X0062675Y0082587D03*
X0062755Y0082587D03*
X0062875Y0082587D03*
X0062915Y0082587D03*
X0062955Y0082587D03*
X0063075Y0082587D03*
X0063115Y0082587D03*
X0063155Y0082587D03*
X0062555Y0082587D03*
X0062815Y0078887D03*
X0059475Y0118107D03*
D282*
X0063155Y0079257D03*
D283*
X0060835Y0097447D03*
X0063135Y0118107D03*
D284*
X0061835Y0114217D03*
X0061395Y0113177D03*
X0061235Y0113117D03*
X0060795Y0112977D03*
X0060495Y0111977D03*
X0061095Y0111777D03*
X0061395Y0111677D03*
X0061795Y0110617D03*
X0061695Y0110577D03*
X0061495Y0110517D03*
X0061395Y0110477D03*
X0061235Y0110417D03*
X0061095Y0110377D03*
X0060935Y0110317D03*
X0061995Y0110677D03*
X0063135Y0113777D03*
X0059135Y0112417D03*
D285*
X0060295Y0112807D03*
X0060335Y0112807D03*
X0060495Y0112867D03*
X0060535Y0112887D03*
X0060595Y0112907D03*
X0060635Y0112907D03*
X0060695Y0112927D03*
X0060835Y0112987D03*
X0060895Y0113007D03*
X0060935Y0113007D03*
X0060995Y0113027D03*
X0061135Y0113087D03*
X0061195Y0113107D03*
X0061295Y0113127D03*
X0061435Y0113187D03*
X0061495Y0113207D03*
X0061595Y0113227D03*
X0061635Y0113267D03*
X0061735Y0113287D03*
X0061795Y0113307D03*
X0061995Y0113387D03*
X0062035Y0113387D03*
X0062095Y0113407D03*
X0061735Y0111567D03*
X0061695Y0111567D03*
X0061935Y0111487D03*
X0061995Y0111467D03*
X0062095Y0111447D03*
X0061335Y0111687D03*
X0061135Y0111767D03*
X0061535Y0110527D03*
X0061595Y0110547D03*
X0061835Y0110627D03*
X0061895Y0110647D03*
X0061935Y0110647D03*
X0063135Y0111087D03*
D286*
X0062935Y0111087D03*
X0061995Y0116507D03*
X0062095Y0116567D03*
X0061995Y0119707D03*
X0061935Y0119727D03*
X0060235Y0119687D03*
X0060195Y0119667D03*
X0059995Y0121347D03*
X0060935Y0121367D03*
X0060295Y0116487D03*
X0061895Y0102327D03*
X0061935Y0102307D03*
X0061995Y0102267D03*
X0062035Y0102227D03*
X0062135Y0102167D03*
X0062295Y0102047D03*
X0062435Y0101947D03*
X0062535Y0101887D03*
X0062695Y0101767D03*
X0062835Y0101667D03*
X0062935Y0101607D03*
X0063095Y0101487D03*
X0063135Y0101447D03*
X0060935Y0101647D03*
X0059935Y0101567D03*
X0060435Y0098067D03*
X0059735Y0097967D03*
X0061795Y0095827D03*
X0061995Y0077167D03*
X0061935Y0077127D03*
X0060335Y0077127D03*
X0060295Y0077147D03*
D287*
X0059135Y0096987D03*
X0063135Y0096947D03*
D288*
X0063135Y0082577D03*
X0063095Y0082577D03*
X0062935Y0082577D03*
X0062895Y0082577D03*
X0062735Y0082577D03*
X0062695Y0082577D03*
X0062795Y0078877D03*
X0059435Y0078877D03*
D289*
X0063135Y0079227D03*
X0062995Y0097007D03*
X0059295Y0096947D03*
X0059235Y0118087D03*
D290*
X0063115Y0118107D03*
X0059175Y0096967D03*
D291*
X0059715Y0096107D03*
X0059755Y0097987D03*
X0059775Y0098007D03*
X0060455Y0098047D03*
X0060875Y0101587D03*
X0059915Y0101587D03*
X0061775Y0102407D03*
X0061855Y0102367D03*
X0061875Y0102347D03*
X0061975Y0102287D03*
X0062015Y0102247D03*
X0062055Y0102207D03*
X0062155Y0102147D03*
X0062175Y0102127D03*
X0062215Y0102107D03*
X0062255Y0102087D03*
X0062275Y0102067D03*
X0062315Y0102027D03*
X0062415Y0101967D03*
X0062455Y0101927D03*
X0062555Y0101867D03*
X0062575Y0101847D03*
X0062715Y0101747D03*
X0062815Y0101687D03*
X0062855Y0101647D03*
X0062955Y0101587D03*
X0062975Y0101567D03*
X0063115Y0101467D03*
X0062455Y0098087D03*
X0062475Y0095907D03*
X0062455Y0095887D03*
X0059375Y0112407D03*
X0059355Y0112427D03*
X0060355Y0116467D03*
X0060315Y0116487D03*
X0060275Y0116507D03*
X0060255Y0116527D03*
X0060175Y0119647D03*
X0060215Y0119687D03*
X0060275Y0119707D03*
X0060355Y0119747D03*
X0061855Y0119767D03*
X0061915Y0119747D03*
X0061975Y0119707D03*
X0062015Y0119687D03*
X0060955Y0121387D03*
X0059955Y0121367D03*
X0062055Y0116547D03*
X0062015Y0116527D03*
X0062955Y0113787D03*
X0062055Y0077207D03*
X0062015Y0077167D03*
X0061955Y0077147D03*
X0061875Y0077107D03*
X0060355Y0077107D03*
X0060315Y0077147D03*
X0060275Y0077147D03*
X0060255Y0077167D03*
D292*
X0063115Y0096967D03*
X0060855Y0097427D03*
X0059115Y0118087D03*
D293*
X0061755Y0122957D03*
X0063115Y0079197D03*
D294*
X0059195Y0096967D03*
X0063095Y0118107D03*
D295*
X0063095Y0096967D03*
D296*
X0059335Y0096927D03*
X0063095Y0079167D03*
D297*
X0061175Y0076937D03*
X0061955Y0095777D03*
X0061975Y0095777D03*
X0062275Y0095797D03*
X0062315Y0095797D03*
X0062415Y0098117D03*
X0060275Y0098117D03*
X0060255Y0098117D03*
X0060215Y0098117D03*
X0059955Y0098097D03*
X0059915Y0098097D03*
X0060215Y0101477D03*
X0060555Y0101477D03*
X0060575Y0101477D03*
X0060655Y0101497D03*
X0059455Y0109837D03*
X0059655Y0109897D03*
X0059755Y0109937D03*
X0059775Y0109937D03*
X0059855Y0109957D03*
X0059975Y0109997D03*
X0060015Y0110017D03*
X0060075Y0110037D03*
X0060155Y0110057D03*
X0060215Y0110077D03*
X0060255Y0110097D03*
X0060315Y0110117D03*
X0060455Y0110157D03*
X0060515Y0110177D03*
X0060555Y0110197D03*
X0060355Y0112017D03*
X0059215Y0112417D03*
X0060055Y0114817D03*
X0060015Y0114837D03*
X0060255Y0114757D03*
X0060415Y0114697D03*
X0060475Y0114677D03*
X0060555Y0114657D03*
X0060655Y0114617D03*
X0060675Y0114617D03*
X0060775Y0114577D03*
X0060915Y0114537D03*
X0060955Y0114517D03*
X0061055Y0114477D03*
X0061075Y0114477D03*
X0061115Y0114457D03*
X0061175Y0114437D03*
X0061315Y0114397D03*
X0061355Y0114377D03*
X0061475Y0114337D03*
X0061555Y0114317D03*
X0061675Y0114277D03*
X0061715Y0114257D03*
X0061955Y0114177D03*
X0063055Y0113777D03*
X0063075Y0113777D03*
X0061175Y0116297D03*
X0060975Y0119897D03*
X0060655Y0121257D03*
X0060615Y0121257D03*
X0060575Y0121257D03*
X0060455Y0121237D03*
X0060415Y0121237D03*
X0060375Y0121237D03*
X0060275Y0121257D03*
X0060255Y0121257D03*
X0060215Y0121257D03*
X0061875Y0123737D03*
X0063075Y0111077D03*
D298*
X0060915Y0097287D03*
X0061315Y0096607D03*
X0063075Y0096967D03*
X0059055Y0079387D03*
D299*
X0063075Y0079137D03*
X0059355Y0096937D03*
D300*
X0061015Y0097107D03*
X0061175Y0096867D03*
X0061215Y0096787D03*
X0063055Y0118107D03*
D301*
X0059175Y0118107D03*
X0059055Y0123107D03*
X0060955Y0097207D03*
X0060975Y0097187D03*
X0061255Y0096707D03*
X0061275Y0096687D03*
X0063055Y0096987D03*
X0059215Y0096947D03*
D302*
X0059375Y0096927D03*
X0062915Y0097007D03*
X0061715Y0103267D03*
X0061615Y0103267D03*
X0063055Y0079107D03*
D303*
X0063035Y0118127D03*
D304*
X0061735Y0116407D03*
X0061535Y0116347D03*
X0061495Y0116327D03*
X0061335Y0116327D03*
X0061235Y0116307D03*
X0061195Y0116307D03*
X0061035Y0116307D03*
X0060995Y0116307D03*
X0060895Y0116327D03*
X0060335Y0114727D03*
X0060395Y0114707D03*
X0060235Y0114747D03*
X0060095Y0114807D03*
X0060035Y0114827D03*
X0059995Y0114827D03*
X0059935Y0114847D03*
X0059895Y0114867D03*
X0059795Y0114907D03*
X0059735Y0114927D03*
X0059695Y0114927D03*
X0059495Y0115007D03*
X0059435Y0115027D03*
X0059195Y0115107D03*
X0059135Y0115127D03*
X0060595Y0114627D03*
X0060635Y0114627D03*
X0060995Y0114507D03*
X0061235Y0114427D03*
X0063035Y0113787D03*
X0060035Y0110027D03*
X0059795Y0109947D03*
X0059735Y0109927D03*
X0059595Y0109867D03*
X0059435Y0109827D03*
X0059395Y0109807D03*
X0059295Y0109767D03*
X0059235Y0109747D03*
X0059195Y0109747D03*
X0059135Y0109727D03*
X0059035Y0109687D03*
X0059235Y0112427D03*
X0060495Y0119807D03*
X0060895Y0119887D03*
X0060995Y0119907D03*
X0061035Y0119907D03*
X0061195Y0119907D03*
X0061235Y0119907D03*
X0061335Y0119887D03*
X0061495Y0119887D03*
X0060735Y0121287D03*
X0060335Y0121247D03*
X0060235Y0121267D03*
X0060195Y0121267D03*
X0060135Y0121287D03*
X0060735Y0101527D03*
X0060435Y0101467D03*
X0060235Y0101467D03*
X0060195Y0101467D03*
X0060135Y0101487D03*
X0059895Y0098087D03*
X0058995Y0097027D03*
X0059735Y0096087D03*
X0062335Y0095807D03*
X0061735Y0077047D03*
X0061495Y0076967D03*
X0061335Y0076967D03*
X0061235Y0076947D03*
X0061195Y0076947D03*
X0061035Y0076947D03*
X0060995Y0076947D03*
X0060895Y0076967D03*
D305*
X0060835Y0076957D03*
X0060795Y0076977D03*
X0060735Y0076977D03*
X0060695Y0076997D03*
X0060595Y0077017D03*
X0060535Y0077037D03*
X0060495Y0077057D03*
X0061395Y0076957D03*
X0061435Y0076977D03*
X0061535Y0076997D03*
X0061595Y0076997D03*
X0061695Y0077037D03*
X0060095Y0101497D03*
X0063035Y0111077D03*
X0060195Y0114777D03*
X0059835Y0114897D03*
X0059635Y0114957D03*
X0059595Y0114977D03*
X0059535Y0114997D03*
X0059395Y0115037D03*
X0059335Y0115057D03*
X0059295Y0115077D03*
X0059095Y0115137D03*
X0059035Y0115157D03*
X0060695Y0116357D03*
X0060735Y0116337D03*
X0060795Y0116337D03*
X0060835Y0116317D03*
X0061395Y0116317D03*
X0061435Y0116337D03*
X0061595Y0116357D03*
X0061735Y0119817D03*
X0061435Y0119877D03*
X0061395Y0119897D03*
X0060835Y0119897D03*
X0060795Y0119877D03*
X0060735Y0119877D03*
X0060695Y0119857D03*
X0060595Y0119837D03*
X0060535Y0119817D03*
X0060795Y0121297D03*
X0060095Y0121297D03*
D306*
X0059195Y0118107D03*
X0061135Y0096927D03*
X0063035Y0096987D03*
X0059095Y0079287D03*
D307*
X0063035Y0079077D03*
X0061595Y0103237D03*
X0061635Y0122837D03*
X0059235Y0122837D03*
D308*
X0063015Y0118107D03*
D309*
X0061775Y0116417D03*
X0061675Y0116377D03*
X0061575Y0116357D03*
X0061475Y0116337D03*
X0060875Y0116317D03*
X0060755Y0116337D03*
X0060675Y0116357D03*
X0060615Y0116377D03*
X0059955Y0114857D03*
X0059875Y0114877D03*
X0059775Y0114917D03*
X0059715Y0114937D03*
X0059575Y0114977D03*
X0059515Y0114997D03*
X0059475Y0115017D03*
X0059455Y0115017D03*
X0059415Y0115037D03*
X0059315Y0115057D03*
X0059275Y0115077D03*
X0059215Y0115097D03*
X0059175Y0115117D03*
X0059055Y0115157D03*
X0059255Y0112417D03*
X0059275Y0112417D03*
X0063015Y0111077D03*
X0063015Y0113777D03*
X0061655Y0119837D03*
X0061575Y0119857D03*
X0061555Y0119857D03*
X0061475Y0119877D03*
X0061355Y0119897D03*
X0060875Y0119897D03*
X0060755Y0119877D03*
X0060675Y0119857D03*
X0060575Y0119837D03*
X0060555Y0119817D03*
X0060815Y0121317D03*
X0060055Y0121317D03*
X0060015Y0101537D03*
X0060055Y0101517D03*
X0060115Y0101497D03*
X0060715Y0101517D03*
X0062415Y0095857D03*
X0061675Y0077017D03*
X0061655Y0077017D03*
X0061555Y0076997D03*
X0061475Y0076977D03*
X0060875Y0076957D03*
X0060755Y0076977D03*
X0060615Y0077017D03*
X0060555Y0077037D03*
D310*
X0063015Y0096987D03*
X0059215Y0118107D03*
D311*
X0062915Y0118127D03*
X0061575Y0103227D03*
X0059415Y0096907D03*
X0063015Y0079067D03*
D312*
X0059135Y0079187D03*
X0062995Y0118127D03*
D313*
X0061935Y0116477D03*
X0060435Y0116437D03*
X0060335Y0116477D03*
X0060295Y0119717D03*
X0060435Y0119777D03*
X0062935Y0113777D03*
X0062995Y0113777D03*
X0059335Y0112417D03*
X0059995Y0101537D03*
X0060835Y0101577D03*
X0059795Y0098017D03*
X0062435Y0095877D03*
X0061795Y0077077D03*
X0060435Y0077077D03*
D314*
X0060635Y0077007D03*
X0061635Y0077007D03*
X0061835Y0077087D03*
X0061895Y0077107D03*
X0061835Y0095807D03*
X0062395Y0095847D03*
X0060395Y0098087D03*
X0059835Y0098047D03*
X0062995Y0111087D03*
X0061695Y0116387D03*
X0061835Y0116447D03*
X0060535Y0116387D03*
X0060495Y0116407D03*
X0060395Y0116447D03*
X0059235Y0115087D03*
X0060335Y0119747D03*
X0060635Y0119847D03*
X0061595Y0119847D03*
X0061635Y0119847D03*
X0061895Y0119747D03*
X0060895Y0121347D03*
D315*
X0059935Y0121377D03*
X0059895Y0121397D03*
X0060135Y0119637D03*
X0060095Y0119597D03*
X0060195Y0116557D03*
X0062035Y0116537D03*
X0062135Y0116597D03*
X0062095Y0119637D03*
X0062035Y0119677D03*
X0062895Y0111077D03*
X0061835Y0102377D03*
X0062095Y0102197D03*
X0062195Y0102117D03*
X0062235Y0102097D03*
X0062335Y0102017D03*
X0062395Y0101977D03*
X0062495Y0101897D03*
X0062595Y0101837D03*
X0062735Y0101737D03*
X0062795Y0101697D03*
X0062895Y0101617D03*
X0062995Y0101557D03*
X0060895Y0101617D03*
X0059895Y0101597D03*
X0062495Y0095917D03*
X0062035Y0077197D03*
X0060235Y0077177D03*
D316*
X0062995Y0079037D03*
X0059435Y0096917D03*
D317*
X0059275Y0118107D03*
X0062975Y0118127D03*
D318*
X0061875Y0116447D03*
X0061855Y0116447D03*
X0061755Y0116407D03*
X0061715Y0116407D03*
X0060575Y0116387D03*
X0060555Y0116387D03*
X0060515Y0116407D03*
X0059355Y0115047D03*
X0060375Y0119747D03*
X0060415Y0119787D03*
X0060455Y0119787D03*
X0060475Y0119807D03*
X0060515Y0119807D03*
X0061715Y0119807D03*
X0061755Y0119807D03*
X0061775Y0119787D03*
X0061815Y0119787D03*
X0060755Y0121287D03*
X0060115Y0121287D03*
X0059975Y0121347D03*
X0062975Y0113787D03*
X0060855Y0101587D03*
X0060775Y0101547D03*
X0059975Y0101547D03*
X0060375Y0077107D03*
X0060515Y0077047D03*
X0060675Y0077007D03*
X0061715Y0077047D03*
X0061755Y0077047D03*
D319*
X0061915Y0077117D03*
X0061975Y0077157D03*
X0060475Y0077057D03*
X0060415Y0077077D03*
X0061775Y0095837D03*
X0059955Y0101557D03*
X0062955Y0111077D03*
X0062975Y0111077D03*
X0059315Y0112417D03*
X0060475Y0116417D03*
X0060415Y0116437D03*
X0060375Y0116457D03*
X0061915Y0116477D03*
X0061875Y0119757D03*
X0060915Y0121357D03*
X0060875Y0121337D03*
X0060015Y0121337D03*
D320*
X0059255Y0118087D03*
X0062975Y0097007D03*
D321*
X0062855Y0097027D03*
X0059455Y0096907D03*
X0059175Y0103187D03*
X0059375Y0118107D03*
X0061575Y0122787D03*
X0062975Y0079027D03*
D322*
X0061655Y0103287D03*
X0062955Y0118107D03*
D323*
X0059175Y0122907D03*
X0062955Y0097007D03*
X0059175Y0079147D03*
D324*
X0062955Y0078997D03*
X0062815Y0097037D03*
X0059315Y0122757D03*
D325*
X0062935Y0118107D03*
X0061735Y0103267D03*
D326*
X0062935Y0097027D03*
D327*
X0059595Y0096967D03*
X0059495Y0096907D03*
X0062935Y0078987D03*
X0059395Y0118087D03*
D328*
X0060015Y0119547D03*
X0060055Y0119587D03*
X0060115Y0119607D03*
X0060155Y0119647D03*
X0061015Y0121427D03*
X0062055Y0119667D03*
X0062075Y0119647D03*
X0062155Y0119607D03*
X0062175Y0119587D03*
X0062175Y0116627D03*
X0062155Y0116607D03*
X0062855Y0113787D03*
X0062875Y0113767D03*
X0062875Y0111087D03*
X0062855Y0111067D03*
X0059415Y0112427D03*
X0060155Y0116567D03*
X0060115Y0116607D03*
X0062355Y0102007D03*
X0062515Y0101887D03*
X0062755Y0101727D03*
X0062915Y0101607D03*
X0060915Y0101647D03*
X0060515Y0098007D03*
X0061715Y0095887D03*
X0062515Y0095927D03*
X0062115Y0077247D03*
X0060175Y0077227D03*
D329*
X0062915Y0078957D03*
X0061475Y0122717D03*
D330*
X0062895Y0118127D03*
D331*
X0062895Y0097007D03*
D332*
X0062795Y0097047D03*
X0062895Y0078947D03*
D333*
X0062875Y0118107D03*
X0061555Y0122767D03*
D334*
X0062875Y0097027D03*
D335*
X0061415Y0107117D03*
X0061375Y0107117D03*
X0061255Y0107117D03*
X0061215Y0107117D03*
X0061175Y0107117D03*
X0061055Y0107117D03*
X0061015Y0107117D03*
X0060975Y0107117D03*
X0060855Y0107117D03*
X0060815Y0107117D03*
X0060875Y0086657D03*
X0060915Y0086657D03*
X0060955Y0086657D03*
X0061075Y0086657D03*
X0061115Y0086657D03*
X0061155Y0086657D03*
X0061275Y0086657D03*
X0061315Y0086657D03*
X0061355Y0086657D03*
X0062875Y0078937D03*
X0059355Y0078937D03*
D336*
X0059475Y0096887D03*
X0062855Y0118107D03*
D337*
X0059455Y0118097D03*
X0059275Y0103077D03*
X0062755Y0097057D03*
X0062855Y0078917D03*
D338*
X0059335Y0078967D03*
X0061495Y0103127D03*
X0062835Y0118107D03*
X0061495Y0122727D03*
D339*
X0059995Y0119527D03*
X0060035Y0116667D03*
X0062235Y0116667D03*
X0062295Y0116727D03*
X0062795Y0113787D03*
X0062835Y0113787D03*
X0059495Y0112407D03*
X0059695Y0097927D03*
X0059695Y0096127D03*
X0062195Y0077307D03*
D340*
X0060095Y0077277D03*
X0062835Y0111077D03*
X0059435Y0112417D03*
X0060095Y0116617D03*
X0062195Y0119577D03*
D341*
X0061535Y0103167D03*
X0062835Y0097027D03*
D342*
X0062835Y0078897D03*
D343*
X0061475Y0103107D03*
X0059255Y0103107D03*
X0062815Y0118107D03*
X0061455Y0122707D03*
X0059415Y0122707D03*
D344*
X0061395Y0122677D03*
X0062795Y0118117D03*
X0061435Y0103077D03*
X0059395Y0078917D03*
D345*
X0060535Y0097977D03*
X0059835Y0101657D03*
X0062795Y0111077D03*
X0062295Y0119497D03*
X0059835Y0121457D03*
D346*
X0059475Y0122667D03*
X0061375Y0122667D03*
X0062775Y0118107D03*
X0061415Y0103067D03*
D347*
X0062775Y0111077D03*
X0062775Y0113777D03*
X0062315Y0116737D03*
X0061055Y0121477D03*
X0059815Y0121477D03*
X0060075Y0077297D03*
X0062255Y0077357D03*
D348*
X0062775Y0097067D03*
D349*
X0061375Y0103027D03*
X0062755Y0118127D03*
X0059575Y0122627D03*
X0059455Y0078867D03*
X0062775Y0078867D03*
D350*
X0062575Y0096017D03*
X0059655Y0097877D03*
X0059575Y0112417D03*
X0059555Y0112417D03*
X0062755Y0113777D03*
X0059915Y0116757D03*
X0059875Y0119417D03*
X0062315Y0119477D03*
D351*
X0062275Y0119507D03*
X0061075Y0121487D03*
X0059955Y0119487D03*
X0059915Y0119447D03*
X0059955Y0116727D03*
X0059975Y0116707D03*
X0062375Y0116787D03*
X0059515Y0112407D03*
X0062755Y0111087D03*
X0061015Y0101747D03*
X0059815Y0101667D03*
X0060555Y0097967D03*
X0060575Y0097947D03*
X0059675Y0097887D03*
X0061655Y0095947D03*
X0061675Y0095927D03*
X0059975Y0077387D03*
X0060015Y0077347D03*
D352*
X0062755Y0078837D03*
D353*
X0062735Y0118117D03*
X0059595Y0122617D03*
D354*
X0061095Y0121507D03*
X0059935Y0119467D03*
X0059895Y0119427D03*
X0059935Y0116747D03*
X0059995Y0116687D03*
X0062335Y0116747D03*
X0062735Y0113787D03*
X0062735Y0111067D03*
X0059535Y0112427D03*
X0060995Y0101727D03*
X0062495Y0098067D03*
X0062295Y0077387D03*
X0060035Y0077327D03*
X0059995Y0077367D03*
D355*
X0062735Y0097067D03*
X0059295Y0103067D03*
X0059495Y0122667D03*
D356*
X0059535Y0118107D03*
X0061295Y0102987D03*
X0062735Y0078827D03*
D357*
X0062715Y0078817D03*
X0061275Y0102977D03*
X0062715Y0118117D03*
D358*
X0062415Y0116847D03*
X0062355Y0116787D03*
X0062375Y0119407D03*
X0061115Y0121547D03*
X0059855Y0119407D03*
X0062715Y0113787D03*
X0059675Y0096147D03*
X0062275Y0077387D03*
D359*
X0062315Y0077427D03*
X0059775Y0101727D03*
X0062715Y0111067D03*
X0062355Y0119427D03*
D360*
X0062695Y0118117D03*
X0059435Y0102977D03*
X0059535Y0078817D03*
D361*
X0062695Y0113777D03*
X0059895Y0116777D03*
X0062335Y0119457D03*
D362*
X0061295Y0122627D03*
X0059495Y0118107D03*
X0062695Y0097067D03*
D363*
X0062635Y0097107D03*
X0062695Y0078807D03*
D364*
X0062675Y0111077D03*
X0062655Y0111077D03*
X0062675Y0113777D03*
X0059615Y0112417D03*
X0062415Y0119377D03*
D365*
X0059415Y0102987D03*
X0062655Y0097087D03*
X0062675Y0097087D03*
X0059515Y0078827D03*
D366*
X0059555Y0078797D03*
X0059575Y0078797D03*
X0062675Y0078797D03*
X0059475Y0102957D03*
D367*
X0059575Y0102927D03*
X0061175Y0102927D03*
X0062655Y0118127D03*
X0062615Y0078767D03*
X0059615Y0078767D03*
D368*
X0059915Y0077447D03*
X0059955Y0077407D03*
X0062355Y0077487D03*
X0062375Y0077507D03*
X0061615Y0095987D03*
X0062515Y0098047D03*
X0061055Y0101787D03*
X0059655Y0112427D03*
X0062615Y0113787D03*
X0062655Y0113787D03*
X0059875Y0116807D03*
X0059855Y0116827D03*
X0059815Y0116867D03*
X0059815Y0119347D03*
X0059775Y0121547D03*
D369*
X0062635Y0118127D03*
D370*
X0062435Y0116877D03*
X0062635Y0113777D03*
X0059695Y0112417D03*
X0061135Y0121577D03*
D371*
X0059835Y0119367D03*
X0059795Y0119327D03*
X0059835Y0116847D03*
X0062635Y0111087D03*
X0061035Y0101767D03*
X0060595Y0097927D03*
X0061635Y0095967D03*
X0062595Y0096047D03*
X0059895Y0077467D03*
X0059935Y0077427D03*
D372*
X0059075Y0096987D03*
X0060215Y0112407D03*
X0062115Y0113787D03*
X0062615Y0119007D03*
D373*
X0062615Y0117187D03*
X0062175Y0113787D03*
X0062175Y0111067D03*
D374*
X0062615Y0111077D03*
X0059675Y0112417D03*
X0062455Y0116897D03*
X0059755Y0121557D03*
X0059755Y0101757D03*
X0059655Y0096177D03*
D375*
X0062615Y0097917D03*
D376*
X0062615Y0096107D03*
X0059775Y0112427D03*
X0059015Y0118107D03*
X0061155Y0121607D03*
X0062475Y0119287D03*
X0059815Y0077587D03*
D377*
X0062535Y0077787D03*
X0062195Y0111087D03*
X0062135Y0113787D03*
X0062595Y0119087D03*
X0059695Y0121747D03*
D378*
X0062435Y0119347D03*
X0062595Y0113787D03*
X0062595Y0111067D03*
X0062535Y0098047D03*
X0061595Y0096027D03*
D379*
X0062595Y0097947D03*
D380*
X0061135Y0102917D03*
X0059595Y0102917D03*
X0059635Y0078757D03*
X0062595Y0078757D03*
D381*
X0062315Y0113777D03*
X0062575Y0119137D03*
D382*
X0062575Y0117087D03*
X0062355Y0113787D03*
X0062355Y0111067D03*
X0059975Y0112407D03*
X0059955Y0112427D03*
X0059715Y0121667D03*
X0059715Y0101867D03*
X0060675Y0097787D03*
X0059615Y0097727D03*
X0059055Y0097007D03*
D383*
X0060615Y0097887D03*
X0062575Y0111087D03*
X0062575Y0113787D03*
X0062475Y0116907D03*
X0062455Y0119327D03*
X0059775Y0119287D03*
X0059715Y0112427D03*
X0059855Y0077527D03*
X0059875Y0077507D03*
D384*
X0059655Y0078747D03*
X0062575Y0078747D03*
X0061115Y0102907D03*
X0059615Y0102907D03*
X0059615Y0118107D03*
D385*
X0062555Y0119177D03*
X0059915Y0112417D03*
X0062375Y0111077D03*
X0059775Y0077657D03*
D386*
X0062475Y0077647D03*
X0061555Y0096087D03*
X0062555Y0098007D03*
X0059875Y0112407D03*
X0062375Y0113787D03*
X0062415Y0113787D03*
X0062555Y0117047D03*
X0059715Y0117007D03*
X0059715Y0119207D03*
D387*
X0059755Y0119277D03*
X0059775Y0116917D03*
X0062555Y0113777D03*
X0062555Y0111077D03*
X0059755Y0112417D03*
D388*
X0059675Y0078737D03*
X0062555Y0078737D03*
D389*
X0062395Y0077527D03*
X0059035Y0097007D03*
X0059635Y0097807D03*
X0059735Y0101787D03*
X0062495Y0113787D03*
X0062535Y0113787D03*
X0062495Y0119267D03*
X0059735Y0119227D03*
D390*
X0059735Y0112417D03*
X0062535Y0111077D03*
D391*
X0062515Y0111077D03*
X0062515Y0113777D03*
X0059815Y0112417D03*
X0060655Y0097837D03*
X0061575Y0096057D03*
D392*
X0062515Y0077747D03*
D393*
X0060635Y0097847D03*
X0062495Y0116947D03*
D394*
X0059795Y0112417D03*
X0062495Y0111077D03*
X0059835Y0077557D03*
D395*
X0062495Y0077687D03*
X0061535Y0096127D03*
X0062335Y0111087D03*
X0059695Y0117047D03*
X0061195Y0121707D03*
D396*
X0060075Y0119597D03*
X0062215Y0116657D03*
X0059855Y0101637D03*
X0062475Y0098097D03*
X0060155Y0077237D03*
D397*
X0059795Y0077617D03*
X0062435Y0111077D03*
X0062435Y0113777D03*
X0059695Y0119177D03*
D398*
X0060395Y0119767D03*
X0061535Y0119867D03*
X0061695Y0119827D03*
X0061835Y0119767D03*
X0060835Y0121327D03*
X0060035Y0121327D03*
X0060595Y0116367D03*
X0060635Y0116367D03*
X0061635Y0116367D03*
X0061795Y0116427D03*
X0061895Y0116467D03*
X0059295Y0112427D03*
X0060035Y0101527D03*
X0060795Y0101567D03*
X0062435Y0098127D03*
D399*
X0062415Y0111067D03*
D400*
X0062415Y0077557D03*
D401*
X0062395Y0119397D03*
D402*
X0062395Y0116827D03*
X0059595Y0112427D03*
D403*
X0059935Y0112417D03*
X0062395Y0113777D03*
X0059635Y0096237D03*
D404*
X0061095Y0101907D03*
X0062395Y0111087D03*
D405*
X0059015Y0112407D03*
X0062355Y0098147D03*
D406*
X0062295Y0111077D03*
X0059995Y0112417D03*
X0062335Y0113777D03*
D407*
X0062335Y0098167D03*
D408*
X0062315Y0098167D03*
D409*
X0060695Y0097747D03*
X0062295Y0113787D03*
D410*
X0062295Y0098167D03*
D411*
X0062295Y0095797D03*
X0062235Y0095777D03*
X0061935Y0095777D03*
X0060335Y0098097D03*
X0060295Y0098117D03*
X0059995Y0098117D03*
X0059935Y0098097D03*
X0060395Y0101457D03*
X0060595Y0101477D03*
X0060635Y0101497D03*
X0060695Y0101517D03*
X0059095Y0109717D03*
X0059495Y0109837D03*
X0059535Y0109857D03*
X0059635Y0109897D03*
X0059835Y0109957D03*
X0059895Y0109977D03*
X0060095Y0110037D03*
X0060195Y0110077D03*
X0060335Y0110117D03*
X0060395Y0110137D03*
X0060435Y0110157D03*
X0060635Y0110217D03*
X0059195Y0112417D03*
X0060135Y0114797D03*
X0060295Y0114737D03*
X0060435Y0114697D03*
X0060495Y0114677D03*
X0060535Y0114657D03*
X0060695Y0114597D03*
X0060835Y0114557D03*
X0060895Y0114537D03*
X0060935Y0114517D03*
X0061135Y0114457D03*
X0061195Y0114437D03*
X0061295Y0114397D03*
X0061535Y0114317D03*
X0061595Y0114297D03*
X0061295Y0116317D03*
X0061135Y0116297D03*
X0061095Y0116297D03*
X0060935Y0116317D03*
X0060935Y0119897D03*
X0061095Y0119917D03*
X0061135Y0119917D03*
X0061295Y0119897D03*
X0060695Y0121277D03*
X0060635Y0121257D03*
X0060595Y0121257D03*
X0060535Y0121237D03*
X0060495Y0121237D03*
X0060295Y0121257D03*
X0060935Y0076957D03*
X0061095Y0076937D03*
X0061135Y0076937D03*
X0061295Y0076957D03*
D412*
X0062215Y0111087D03*
X0060075Y0112427D03*
X0062275Y0113787D03*
X0059655Y0117127D03*
D413*
X0059655Y0119077D03*
X0062255Y0113777D03*
X0060055Y0112417D03*
X0062255Y0111077D03*
X0062275Y0111077D03*
D414*
X0062275Y0098167D03*
D415*
X0062255Y0098187D03*
X0058975Y0097027D03*
D416*
X0062235Y0077347D03*
X0062235Y0119547D03*
X0060035Y0119547D03*
D417*
X0059035Y0118107D03*
X0062235Y0113787D03*
X0062235Y0111067D03*
X0059695Y0101927D03*
D418*
X0062235Y0098197D03*
D419*
X0060715Y0097717D03*
X0060115Y0112417D03*
X0062215Y0113777D03*
D420*
X0062215Y0098187D03*
D421*
X0061695Y0095897D03*
X0060135Y0077257D03*
X0062195Y0116637D03*
X0061035Y0121457D03*
D422*
X0062195Y0113777D03*
X0060135Y0112417D03*
X0060095Y0112417D03*
D423*
X0062195Y0098207D03*
D424*
X0062175Y0098197D03*
D425*
X0062155Y0111077D03*
X0060175Y0112417D03*
X0060155Y0112417D03*
X0062155Y0113777D03*
D426*
X0062155Y0098207D03*
X0059975Y0095947D03*
D427*
X0059875Y0101617D03*
X0059455Y0112417D03*
X0060015Y0116677D03*
X0059975Y0119517D03*
X0062115Y0119617D03*
X0062155Y0077277D03*
D428*
X0061495Y0096217D03*
X0060735Y0097677D03*
X0062135Y0111077D03*
D429*
X0062135Y0098217D03*
D430*
X0059615Y0096327D03*
X0062115Y0111067D03*
D431*
X0062115Y0098217D03*
D432*
X0060695Y0110237D03*
X0061295Y0110437D03*
X0061335Y0110457D03*
X0061635Y0110557D03*
X0061735Y0110597D03*
X0062035Y0110697D03*
X0062035Y0111457D03*
X0061895Y0111497D03*
X0061795Y0111537D03*
X0061635Y0111597D03*
X0061495Y0111637D03*
X0061435Y0111657D03*
X0061195Y0111737D03*
X0061035Y0111797D03*
X0060895Y0111837D03*
X0060835Y0111857D03*
X0060735Y0111897D03*
X0060595Y0111937D03*
X0060535Y0111957D03*
X0060295Y0112037D03*
X0060395Y0112837D03*
X0060735Y0112957D03*
X0061035Y0113057D03*
X0061735Y0114257D03*
X0061895Y0114197D03*
X0062095Y0114137D03*
D433*
X0062075Y0114137D03*
X0062015Y0114157D03*
X0061775Y0114237D03*
X0061415Y0114357D03*
X0061355Y0113157D03*
X0061155Y0113097D03*
X0060875Y0112997D03*
X0060755Y0112957D03*
X0060675Y0112937D03*
X0060555Y0112897D03*
X0060375Y0112837D03*
X0060275Y0112797D03*
X0060415Y0111997D03*
X0060555Y0111957D03*
X0060615Y0111937D03*
X0060715Y0111897D03*
X0060855Y0111857D03*
X0060915Y0111837D03*
X0061015Y0111797D03*
X0061155Y0111757D03*
X0061215Y0111737D03*
X0061315Y0111697D03*
X0061455Y0111657D03*
X0061515Y0111637D03*
X0061915Y0111497D03*
X0062015Y0111457D03*
X0062075Y0111437D03*
X0061915Y0110657D03*
X0061875Y0110637D03*
X0061855Y0110637D03*
X0061755Y0110597D03*
X0061615Y0110557D03*
X0061575Y0110537D03*
X0061475Y0110497D03*
X0061455Y0110497D03*
X0061255Y0110437D03*
X0061055Y0110357D03*
X0060875Y0110297D03*
X0060855Y0110297D03*
X0060575Y0110197D03*
D434*
X0061955Y0116497D03*
X0061975Y0116497D03*
X0060255Y0119697D03*
X0061815Y0102397D03*
X0061855Y0077097D03*
D435*
X0059155Y0096987D03*
X0061855Y0123207D03*
D436*
X0061835Y0123117D03*
D437*
X0061675Y0119827D03*
X0060315Y0119727D03*
X0060455Y0116427D03*
X0061815Y0116427D03*
X0059155Y0115127D03*
X0059115Y0115127D03*
X0060815Y0101567D03*
X0060755Y0101527D03*
X0060415Y0098067D03*
X0059815Y0098027D03*
X0061815Y0095827D03*
X0061815Y0077067D03*
X0061775Y0077067D03*
X0060575Y0077027D03*
X0060455Y0077067D03*
D438*
X0061795Y0123037D03*
D439*
X0061795Y0119797D03*
X0060395Y0077097D03*
D440*
X0059275Y0096947D03*
X0059055Y0103407D03*
X0061775Y0123007D03*
D441*
X0061755Y0103257D03*
X0059115Y0103257D03*
D442*
X0059135Y0122947D03*
X0061735Y0122947D03*
D443*
X0061715Y0122917D03*
X0059155Y0122917D03*
X0059155Y0079157D03*
D444*
X0061695Y0122887D03*
D445*
X0061695Y0103277D03*
D446*
X0061675Y0103277D03*
X0061675Y0122877D03*
D447*
X0061655Y0122847D03*
X0059215Y0122847D03*
D448*
X0061635Y0103297D03*
D449*
X0059355Y0118107D03*
X0059255Y0122807D03*
X0061615Y0122807D03*
X0059255Y0079047D03*
D450*
X0061595Y0122797D03*
D451*
X0061555Y0103177D03*
X0059275Y0079017D03*
D452*
X0059335Y0122747D03*
X0061535Y0122747D03*
D453*
X0061515Y0122737D03*
X0059355Y0122737D03*
X0061515Y0103137D03*
X0059555Y0096937D03*
X0059315Y0078977D03*
D454*
X0061515Y0096157D03*
D455*
X0061455Y0103087D03*
X0061355Y0107107D03*
X0061315Y0107107D03*
X0061275Y0107107D03*
X0061155Y0107107D03*
X0061115Y0107107D03*
X0061075Y0107107D03*
X0060955Y0107107D03*
X0060915Y0107107D03*
X0060875Y0107107D03*
X0061415Y0122687D03*
X0059455Y0122687D03*
X0060815Y0086647D03*
X0060855Y0086647D03*
X0060975Y0086647D03*
X0061015Y0086647D03*
X0061055Y0086647D03*
X0061175Y0086647D03*
X0061215Y0086647D03*
X0061255Y0086647D03*
X0061375Y0086647D03*
X0061415Y0086647D03*
X0059375Y0078927D03*
D456*
X0059435Y0118097D03*
X0061435Y0122697D03*
D457*
X0059435Y0122687D03*
X0060795Y0107107D03*
X0060835Y0107107D03*
X0060995Y0107107D03*
X0061035Y0107107D03*
X0061195Y0107107D03*
X0061235Y0107107D03*
X0061395Y0107107D03*
X0061435Y0107107D03*
X0061335Y0086647D03*
X0061295Y0086647D03*
X0061135Y0086647D03*
X0061095Y0086647D03*
X0060935Y0086647D03*
X0060895Y0086647D03*
D458*
X0061435Y0096367D03*
D459*
X0061435Y0092797D03*
X0061395Y0092797D03*
X0061335Y0092797D03*
X0061295Y0092797D03*
X0061235Y0092797D03*
X0061195Y0092797D03*
X0061135Y0092797D03*
X0061095Y0092797D03*
X0061035Y0092797D03*
X0060995Y0092797D03*
X0060935Y0092797D03*
X0060895Y0092797D03*
X0060835Y0092797D03*
X0060795Y0092797D03*
D460*
X0060795Y0086657D03*
X0060835Y0086657D03*
X0060995Y0086657D03*
X0061035Y0086657D03*
X0061195Y0086657D03*
X0061235Y0086657D03*
X0061395Y0086657D03*
X0061435Y0086657D03*
X0061335Y0107117D03*
X0061295Y0107117D03*
X0061135Y0107117D03*
X0061095Y0107117D03*
X0060935Y0107117D03*
X0060895Y0107117D03*
D461*
X0061415Y0096387D03*
D462*
X0061415Y0092797D03*
X0061375Y0092797D03*
X0061355Y0092797D03*
X0061315Y0092797D03*
X0061275Y0092797D03*
X0061255Y0092797D03*
X0061215Y0092797D03*
X0061175Y0092797D03*
X0061155Y0092797D03*
X0061115Y0092797D03*
X0061075Y0092797D03*
X0061055Y0092797D03*
X0061015Y0092797D03*
X0060975Y0092797D03*
X0060955Y0092797D03*
X0060915Y0092797D03*
X0060875Y0092797D03*
X0060855Y0092797D03*
X0060815Y0092797D03*
X0060775Y0092797D03*
D463*
X0061395Y0103047D03*
X0059335Y0103047D03*
X0059535Y0122647D03*
X0061335Y0122647D03*
D464*
X0061395Y0096457D03*
D465*
X0061375Y0096477D03*
D466*
X0059315Y0103057D03*
X0059515Y0122657D03*
X0061355Y0122657D03*
X0059415Y0078897D03*
D467*
X0059475Y0078857D03*
X0059355Y0103017D03*
X0061355Y0103017D03*
X0061275Y0122617D03*
X0061255Y0122617D03*
D468*
X0060875Y0097367D03*
X0061355Y0096527D03*
D469*
X0061335Y0103007D03*
X0061235Y0122607D03*
X0059495Y0078847D03*
D470*
X0061335Y0096567D03*
X0060895Y0097327D03*
D471*
X0061315Y0102997D03*
X0059675Y0122597D03*
D472*
X0060935Y0097247D03*
X0061295Y0096647D03*
D473*
X0061255Y0102967D03*
X0059455Y0102967D03*
X0059555Y0118107D03*
D474*
X0061235Y0102957D03*
D475*
X0060995Y0097147D03*
X0061235Y0096747D03*
D476*
X0059375Y0103007D03*
X0059515Y0118107D03*
X0059615Y0122607D03*
X0059655Y0122607D03*
X0061215Y0122607D03*
D477*
X0061215Y0102947D03*
D478*
X0061035Y0097087D03*
X0061095Y0096987D03*
X0061195Y0096807D03*
X0059235Y0096967D03*
D479*
X0059555Y0102917D03*
X0061155Y0102917D03*
D480*
X0061075Y0097027D03*
X0061155Y0096867D03*
X0059255Y0096967D03*
D481*
X0061055Y0097047D03*
X0061115Y0096947D03*
D482*
X0061075Y0101847D03*
D483*
X0060815Y0097497D03*
D484*
X0060795Y0097537D03*
D485*
X0060755Y0097627D03*
D486*
X0060235Y0112417D03*
D487*
X0060195Y0112427D03*
D488*
X0060055Y0116647D03*
X0059855Y0121447D03*
X0059715Y0097947D03*
D489*
X0060035Y0112417D03*
D490*
X0060035Y0095917D03*
D491*
X0060015Y0095927D03*
D492*
X0059995Y0095947D03*
D493*
X0059955Y0095947D03*
D494*
X0059935Y0095957D03*
D495*
X0059915Y0095977D03*
D496*
X0059895Y0112427D03*
D497*
X0059875Y0096007D03*
D498*
X0059835Y0096007D03*
D499*
X0059815Y0096037D03*
D500*
X0059795Y0116897D03*
X0059735Y0121597D03*
D501*
X0059795Y0096027D03*
D502*
X0059735Y0077737D03*
D503*
X0059695Y0077887D03*
D504*
X0059675Y0086517D03*
X0059655Y0086517D03*
X0059615Y0086517D03*
X0059575Y0086517D03*
X0059555Y0086517D03*
X0059515Y0086517D03*
X0059475Y0086517D03*
X0059455Y0086517D03*
X0059415Y0086517D03*
X0059375Y0086517D03*
X0059355Y0086517D03*
X0059315Y0086517D03*
X0059275Y0086517D03*
X0059255Y0086517D03*
X0059215Y0086517D03*
X0059175Y0086517D03*
X0059155Y0086517D03*
X0059115Y0086517D03*
X0059075Y0086517D03*
X0059055Y0086517D03*
X0059055Y0106977D03*
X0059075Y0106977D03*
X0059115Y0106977D03*
X0059155Y0106977D03*
X0059175Y0106977D03*
X0059215Y0106977D03*
X0059255Y0106977D03*
X0059275Y0106977D03*
X0059315Y0106977D03*
X0059355Y0106977D03*
X0059375Y0106977D03*
X0059415Y0106977D03*
X0059455Y0106977D03*
X0059475Y0106977D03*
X0059515Y0106977D03*
X0059555Y0106977D03*
X0059575Y0106977D03*
X0059615Y0106977D03*
X0059655Y0106977D03*
X0059675Y0106977D03*
D505*
X0059675Y0102887D03*
X0059655Y0102887D03*
D506*
X0059395Y0102997D03*
X0059635Y0122597D03*
D507*
X0059635Y0112417D03*
D508*
X0059635Y0106977D03*
X0059595Y0106977D03*
X0059535Y0106977D03*
X0059495Y0106977D03*
X0059435Y0106977D03*
X0059395Y0106977D03*
X0059335Y0106977D03*
X0059295Y0106977D03*
X0059235Y0106977D03*
X0059195Y0106977D03*
X0059135Y0106977D03*
X0059095Y0106977D03*
X0059035Y0106977D03*
X0059035Y0086517D03*
X0059095Y0086517D03*
X0059135Y0086517D03*
X0059195Y0086517D03*
X0059235Y0086517D03*
X0059295Y0086517D03*
X0059335Y0086517D03*
X0059395Y0086517D03*
X0059435Y0086517D03*
X0059495Y0086517D03*
X0059535Y0086517D03*
X0059595Y0086517D03*
X0059635Y0086517D03*
D509*
X0059635Y0102897D03*
D510*
X0059535Y0102927D03*
X0059595Y0118107D03*
D511*
X0059575Y0096947D03*
D512*
X0059535Y0096937D03*
D513*
X0059515Y0096907D03*
X0059215Y0103127D03*
X0059415Y0118087D03*
X0059375Y0122727D03*
D514*
X0059495Y0102947D03*
D515*
X0059235Y0103117D03*
X0059395Y0122717D03*
D516*
X0059335Y0118107D03*
X0059135Y0103227D03*
X0059395Y0096927D03*
D517*
X0059215Y0079087D03*
X0059315Y0118107D03*
D518*
X0059075Y0103337D03*
X0059315Y0096937D03*
D519*
X0059295Y0122787D03*
D520*
X0059295Y0118107D03*
X0059095Y0103307D03*
D521*
X0059195Y0103157D03*
X0059295Y0078997D03*
D522*
X0059155Y0103197D03*
X0059275Y0122797D03*
D523*
X0059235Y0079057D03*
D524*
X0059195Y0079097D03*
X0059195Y0122857D03*
D525*
X0059155Y0118107D03*
D526*
X0059135Y0118107D03*
D527*
X0059115Y0122977D03*
D528*
X0059115Y0079237D03*
D529*
X0059095Y0123007D03*
D530*
X0059095Y0118087D03*
D531*
X0059095Y0096987D03*
D532*
X0059075Y0123037D03*
D533*
X0059075Y0079317D03*
D534*
X0059035Y0123177D03*
D535*
X0059035Y0103477D03*
D536*
X0059035Y0079457D03*
D537*
X0096168Y0013619D02*
X0095718Y0013169D01*
X0097519Y0011367D01*
X0097069Y0010917D01*
X0096168Y0010917D01*
X0095718Y0011367D01*
X0095718Y0013169D01*
X0096168Y0013619D02*
X0097069Y0013619D01*
X0097519Y0013169D01*
X0097519Y0011367D01*
X0098542Y0011367D02*
X0098542Y0010917D01*
X0098993Y0010917D01*
X0098993Y0011367D01*
X0098542Y0011367D01*
X0100138Y0010917D02*
X0101939Y0010917D01*
X0101038Y0010917D02*
X0101038Y0013619D01*
X0101939Y0012718D01*
X0102962Y0011367D02*
X0102962Y0010917D01*
X0103412Y0010917D01*
X0103412Y0011367D01*
X0102962Y0011367D01*
X0104557Y0010917D02*
X0106359Y0010917D01*
X0104557Y0012718D01*
X0104557Y0013169D01*
X0105008Y0013619D01*
X0105908Y0013619D01*
X0106359Y0013169D01*
X0107504Y0012718D02*
X0108405Y0010917D01*
X0109305Y0012718D01*
M02*
