%
M48
M72
T01C0.00787
T02C0.01600
T03C0.01969
T04C0.02362
T05C0.03000
T06C0.04000
T07C0.04724
%
T01
X44518Y65898
X44518Y69835
X48455Y69835
X48455Y65898
X52392Y65898
X52392Y69835
T02
X43455Y54867
X43455Y50867
X43855Y41667
X47255Y37967
X47455Y41867
X47255Y34167
X47255Y30367
X52955Y31867
X52955Y35867
X52955Y39867
X57955Y22867
X62455Y22867
X66955Y22867
X69855Y30567
X69855Y34567
X69855Y38567
X73655Y30567
X77455Y30567
X83055Y41567
X90955Y50867
X91655Y40967
X82455Y55567
X82955Y61867
X87955Y61867
X90155Y71467
X85655Y75567
X82055Y73167
X75455Y68767
X70455Y67567
X67055Y54567
X65655Y86367
X66355Y90267
X70355Y90267
X69655Y86367
X73655Y86367
X74355Y90267
X74355Y100267
X70455Y100267
X66555Y100267
X62655Y100267
X52555Y90267
X48755Y97367
X47755Y93367
X51555Y100167
X46855Y112567
X46855Y116567
X47355Y123267
X52955Y131167
X57255Y131367
X61655Y131367
X65955Y131367
X70155Y131367
X74355Y131367
X78555Y131367
X78555Y123767
X74355Y123767
X70155Y123767
X65955Y123767
X57955Y121567
X46055Y141667
X45255Y145467
X45255Y149467
X45255Y153467
X44055Y159967
X48055Y159467
X40955Y164867
X40955Y168867
X40955Y172867
X40955Y176867
X43955Y180367
X32355Y159467
X31755Y153467
X31755Y149467
X31755Y145367
X40555Y140967
X38755Y121767
X30255Y90967
X34455Y71867
X34455Y67867
X34455Y62867
X41455Y79367
X34355Y23267
X53855Y12567
X57555Y12567
X61355Y12567
X65155Y12667
X68855Y12667
X85855Y86367
X82455Y90167
X82855Y94767
X86655Y94767
X86555Y100767
X86155Y105567
X86155Y109367
X82655Y100567
X81355Y144567
X81455Y151167
X76355Y166467
X73855Y169467
X72355Y165967
X71055Y161967
X71055Y158367
X62855Y169967
X62855Y177967
X92255Y163667
X92355Y159967
X97855Y160267
X107455Y171867
X107455Y176367
X107455Y180867
X107455Y185367
X107455Y189867
X28955Y189867
X24455Y189867
T03
X16955Y188792
X16955Y166941
T04
X25223Y170189
X25223Y185544
T05
X35955Y189367
X43455Y189367
X68055Y173867
X105955Y145867
X43955Y105867
X15955Y145867
T06
X15955Y14867
X15955Y25867
X15955Y35867
X15955Y45867
X15955Y55867
X15955Y65867
X15955Y75867
X15955Y85867
X15955Y95867
X15955Y105867
X15955Y115867
X15955Y125867
X15955Y135867
X25955Y135867
X25955Y125867
X25955Y115867
X25955Y105867
X25955Y95867
X25955Y85867
X25955Y75867
X25955Y65867
X25955Y55867
X25955Y45867
X25955Y35867
X25955Y25867
X25955Y14867
X85955Y115867
X95955Y115867
X95955Y125867
X95955Y135867
X105955Y135867
X105955Y125867
X105955Y115867
X105955Y105867
X105955Y95867
X105955Y85867
X105955Y75867
X105955Y65867
X105955Y55867
X105955Y45867
X105955Y35867
X105955Y25867
X95955Y25867
X95955Y35867
X95955Y45867
X95955Y55867
X95955Y65867
X95955Y75867
X95955Y85867
X95955Y95867
X95955Y105867
T07
X96455Y172367
X96455Y186146
M30
