G75*
G70*
%OFA0B0*%
%FSLAX24Y24*%
%IPPOS*%
%LPD*%
%AMOC8*
5,1,8,0,0,1.08239X$1,22.5*
%
%ADD10C,0.0780*%
%ADD11C,0.0680*%
%ADD12R,0.0690X0.0690*%
%ADD13C,0.0690*%
%ADD14C,0.0600*%
%ADD15R,0.0595X0.0595*%
%ADD16C,0.0595*%
%ADD17C,0.0010*%
%ADD18C,0.0480*%
%ADD19C,0.0396*%
D10*
X006800Y001825D03*
X006800Y002825D03*
X006800Y003825D03*
X006800Y004825D03*
X006800Y005825D03*
X006800Y006825D03*
X006800Y007825D03*
X006800Y008825D03*
X006800Y009825D03*
X006800Y010825D03*
X006800Y011825D03*
X006800Y012825D03*
X003870Y013325D03*
X002730Y013325D03*
X013800Y012825D03*
X013800Y011825D03*
X013800Y010825D03*
X013800Y009825D03*
X013800Y008825D03*
X013800Y007825D03*
X013800Y006825D03*
X013800Y005825D03*
X013800Y004825D03*
X013800Y003825D03*
X013800Y002825D03*
X013800Y001825D03*
X004100Y003625D03*
X003100Y003625D03*
X002100Y003625D03*
D11*
X009300Y012005D02*
X009300Y012645D01*
X010300Y012645D02*
X010300Y012005D01*
X011300Y012005D02*
X011300Y012645D01*
D12*
X005300Y008825D03*
X005300Y006325D03*
D13*
X004300Y006325D03*
X004300Y008825D03*
D14*
X003694Y011325D03*
X002906Y011325D03*
D15*
X002300Y008506D03*
D16*
X002300Y007719D03*
X002300Y006931D03*
X002300Y006144D03*
D17*
X009590Y002835D02*
X010200Y002455D01*
X010800Y002845D01*
X010420Y002235D01*
X010820Y001605D01*
X010200Y002015D01*
X009590Y001615D01*
X009970Y002235D01*
X009590Y002835D01*
X009592Y002833D02*
X009594Y002833D01*
X009597Y002824D02*
X009608Y002824D01*
X009602Y002816D02*
X009621Y002816D01*
X009608Y002807D02*
X009635Y002807D01*
X009648Y002799D02*
X009613Y002799D01*
X009618Y002790D02*
X009662Y002790D01*
X009676Y002782D02*
X009624Y002782D01*
X009629Y002773D02*
X009689Y002773D01*
X009703Y002765D02*
X009635Y002765D01*
X009640Y002756D02*
X009717Y002756D01*
X009730Y002748D02*
X009645Y002748D01*
X009651Y002739D02*
X009744Y002739D01*
X009758Y002731D02*
X009656Y002731D01*
X009662Y002722D02*
X009771Y002722D01*
X009785Y002714D02*
X009667Y002714D01*
X009672Y002705D02*
X009799Y002705D01*
X009812Y002697D02*
X009678Y002697D01*
X009683Y002688D02*
X009826Y002688D01*
X009840Y002680D02*
X009688Y002680D01*
X009694Y002671D02*
X009853Y002671D01*
X009867Y002663D02*
X009699Y002663D01*
X009705Y002654D02*
X009880Y002654D01*
X009894Y002646D02*
X009710Y002646D01*
X009715Y002637D02*
X009908Y002637D01*
X009921Y002629D02*
X009721Y002629D01*
X009726Y002620D02*
X009935Y002620D01*
X009949Y002612D02*
X009732Y002612D01*
X009737Y002603D02*
X009962Y002603D01*
X009976Y002595D02*
X009742Y002595D01*
X009748Y002586D02*
X009990Y002586D01*
X010003Y002578D02*
X009753Y002578D01*
X009758Y002569D02*
X010017Y002569D01*
X010031Y002561D02*
X009764Y002561D01*
X009769Y002552D02*
X010044Y002552D01*
X010058Y002544D02*
X009775Y002544D01*
X009780Y002535D02*
X010071Y002535D01*
X010085Y002527D02*
X009785Y002527D01*
X009791Y002518D02*
X010099Y002518D01*
X010112Y002510D02*
X009796Y002510D01*
X009801Y002501D02*
X010126Y002501D01*
X010140Y002493D02*
X009807Y002493D01*
X009812Y002484D02*
X010153Y002484D01*
X010167Y002476D02*
X009818Y002476D01*
X009823Y002467D02*
X010181Y002467D01*
X010194Y002459D02*
X009828Y002459D01*
X009834Y002450D02*
X010554Y002450D01*
X010549Y002442D02*
X009839Y002442D01*
X009845Y002433D02*
X010543Y002433D01*
X010538Y002425D02*
X009850Y002425D01*
X009855Y002416D02*
X010533Y002416D01*
X010527Y002408D02*
X009861Y002408D01*
X009866Y002399D02*
X010522Y002399D01*
X010517Y002391D02*
X009871Y002391D01*
X009877Y002382D02*
X010512Y002382D01*
X010506Y002374D02*
X009882Y002374D01*
X009888Y002365D02*
X010501Y002365D01*
X010496Y002357D02*
X009893Y002357D01*
X009898Y002348D02*
X010490Y002348D01*
X010485Y002340D02*
X009904Y002340D01*
X009909Y002331D02*
X010480Y002331D01*
X010475Y002323D02*
X009915Y002323D01*
X009920Y002314D02*
X010469Y002314D01*
X010464Y002306D02*
X009925Y002306D01*
X009931Y002297D02*
X010459Y002297D01*
X010453Y002289D02*
X009936Y002289D01*
X009941Y002280D02*
X010448Y002280D01*
X010443Y002272D02*
X009947Y002272D01*
X009952Y002263D02*
X010437Y002263D01*
X010432Y002255D02*
X009958Y002255D01*
X009963Y002246D02*
X010427Y002246D01*
X010422Y002238D02*
X009968Y002238D01*
X009966Y002229D02*
X010424Y002229D01*
X010429Y002221D02*
X009961Y002221D01*
X009956Y002212D02*
X010435Y002212D01*
X010440Y002204D02*
X009951Y002204D01*
X009946Y002195D02*
X010445Y002195D01*
X010451Y002187D02*
X009940Y002187D01*
X009935Y002178D02*
X010456Y002178D01*
X010462Y002170D02*
X009930Y002170D01*
X009925Y002161D02*
X010467Y002161D01*
X010472Y002153D02*
X009919Y002153D01*
X009914Y002144D02*
X010478Y002144D01*
X010483Y002136D02*
X009909Y002136D01*
X009904Y002127D02*
X010489Y002127D01*
X010494Y002119D02*
X009899Y002119D01*
X009893Y002110D02*
X010499Y002110D01*
X010505Y002102D02*
X009888Y002102D01*
X009883Y002093D02*
X010510Y002093D01*
X010516Y002085D02*
X009878Y002085D01*
X009873Y002076D02*
X010521Y002076D01*
X010526Y002068D02*
X009867Y002068D01*
X009862Y002059D02*
X010532Y002059D01*
X010537Y002051D02*
X009857Y002051D01*
X009852Y002042D02*
X010543Y002042D01*
X010548Y002034D02*
X009847Y002034D01*
X009841Y002025D02*
X010553Y002025D01*
X010559Y002017D02*
X009836Y002017D01*
X009831Y002008D02*
X010189Y002008D01*
X010176Y002000D02*
X009826Y002000D01*
X009820Y001991D02*
X010163Y001991D01*
X010151Y001983D02*
X009815Y001983D01*
X009810Y001974D02*
X010138Y001974D01*
X010125Y001966D02*
X009805Y001966D01*
X009800Y001957D02*
X010112Y001957D01*
X010099Y001949D02*
X009794Y001949D01*
X009789Y001940D02*
X010086Y001940D01*
X010073Y001932D02*
X009784Y001932D01*
X009779Y001923D02*
X010060Y001923D01*
X010047Y001915D02*
X009774Y001915D01*
X009768Y001906D02*
X010034Y001906D01*
X010021Y001898D02*
X009763Y001898D01*
X009758Y001889D02*
X010008Y001889D01*
X009995Y001881D02*
X009753Y001881D01*
X009748Y001872D02*
X009982Y001872D01*
X009969Y001864D02*
X009742Y001864D01*
X009737Y001855D02*
X009956Y001855D01*
X009943Y001847D02*
X009732Y001847D01*
X009727Y001838D02*
X009930Y001838D01*
X009917Y001830D02*
X009721Y001830D01*
X009716Y001821D02*
X009904Y001821D01*
X009891Y001813D02*
X009711Y001813D01*
X009706Y001804D02*
X009878Y001804D01*
X009865Y001796D02*
X009701Y001796D01*
X009695Y001787D02*
X009852Y001787D01*
X009839Y001779D02*
X009690Y001779D01*
X009685Y001770D02*
X009826Y001770D01*
X009813Y001762D02*
X009680Y001762D01*
X009675Y001753D02*
X009801Y001753D01*
X009788Y001745D02*
X009669Y001745D01*
X009664Y001736D02*
X009775Y001736D01*
X009762Y001728D02*
X009659Y001728D01*
X009654Y001719D02*
X009749Y001719D01*
X009736Y001711D02*
X009649Y001711D01*
X009643Y001702D02*
X009723Y001702D01*
X009710Y001694D02*
X009638Y001694D01*
X009633Y001685D02*
X009697Y001685D01*
X009684Y001677D02*
X009628Y001677D01*
X009623Y001668D02*
X009671Y001668D01*
X009658Y001660D02*
X009617Y001660D01*
X009612Y001651D02*
X009645Y001651D01*
X009632Y001643D02*
X009607Y001643D01*
X009602Y001634D02*
X009619Y001634D01*
X009606Y001626D02*
X009596Y001626D01*
X009593Y001617D02*
X009591Y001617D01*
X010113Y001736D02*
X010287Y001736D01*
X010289Y001745D02*
X010111Y001745D01*
X010110Y001753D02*
X010290Y001753D01*
X010292Y001762D02*
X010108Y001762D01*
X010106Y001770D02*
X010294Y001770D01*
X010296Y001779D02*
X010104Y001779D01*
X010102Y001787D02*
X010298Y001787D01*
X010300Y001795D02*
X010200Y001865D01*
X010100Y001795D01*
X010200Y001355D01*
X010300Y001795D01*
X010299Y001796D02*
X010101Y001796D01*
X010113Y001804D02*
X010287Y001804D01*
X010275Y001813D02*
X010125Y001813D01*
X010137Y001821D02*
X010263Y001821D01*
X010251Y001830D02*
X010149Y001830D01*
X010161Y001838D02*
X010239Y001838D01*
X010226Y001847D02*
X010174Y001847D01*
X010186Y001855D02*
X010214Y001855D01*
X010202Y001864D02*
X010198Y001864D01*
X010262Y001974D02*
X010586Y001974D01*
X010591Y001966D02*
X010275Y001966D01*
X010288Y001957D02*
X010596Y001957D01*
X010602Y001949D02*
X010300Y001949D01*
X010313Y001940D02*
X010607Y001940D01*
X010613Y001932D02*
X010326Y001932D01*
X010339Y001923D02*
X010618Y001923D01*
X010623Y001915D02*
X010352Y001915D01*
X010365Y001906D02*
X010629Y001906D01*
X010634Y001898D02*
X010378Y001898D01*
X010390Y001889D02*
X010640Y001889D01*
X010645Y001881D02*
X010403Y001881D01*
X010416Y001872D02*
X010650Y001872D01*
X010656Y001864D02*
X010429Y001864D01*
X010442Y001855D02*
X010661Y001855D01*
X010667Y001847D02*
X010455Y001847D01*
X010468Y001838D02*
X010672Y001838D01*
X010677Y001830D02*
X010480Y001830D01*
X010493Y001821D02*
X010683Y001821D01*
X010688Y001813D02*
X010506Y001813D01*
X010519Y001804D02*
X010694Y001804D01*
X010699Y001796D02*
X010532Y001796D01*
X010545Y001787D02*
X010704Y001787D01*
X010710Y001779D02*
X010558Y001779D01*
X010570Y001770D02*
X010715Y001770D01*
X010721Y001762D02*
X010583Y001762D01*
X010596Y001753D02*
X010726Y001753D01*
X010731Y001745D02*
X010609Y001745D01*
X010622Y001736D02*
X010737Y001736D01*
X010742Y001728D02*
X010635Y001728D01*
X010648Y001719D02*
X010748Y001719D01*
X010753Y001711D02*
X010660Y001711D01*
X010673Y001702D02*
X010758Y001702D01*
X010764Y001694D02*
X010686Y001694D01*
X010699Y001685D02*
X010769Y001685D01*
X010775Y001677D02*
X010712Y001677D01*
X010725Y001668D02*
X010780Y001668D01*
X010785Y001660D02*
X010738Y001660D01*
X010750Y001651D02*
X010791Y001651D01*
X010796Y001643D02*
X010763Y001643D01*
X010776Y001634D02*
X010802Y001634D01*
X010807Y001626D02*
X010789Y001626D01*
X010802Y001617D02*
X010812Y001617D01*
X010815Y001609D02*
X010818Y001609D01*
X010580Y001983D02*
X010249Y001983D01*
X010236Y001991D02*
X010575Y001991D01*
X010569Y002000D02*
X010223Y002000D01*
X010211Y002008D02*
X010564Y002008D01*
X010620Y002145D02*
X011060Y002235D01*
X010620Y002325D01*
X010560Y002235D01*
X010620Y002145D01*
X010615Y002153D02*
X010657Y002153D01*
X010698Y002161D02*
X010609Y002161D01*
X010604Y002170D02*
X010740Y002170D01*
X010782Y002178D02*
X010598Y002178D01*
X010592Y002187D02*
X010823Y002187D01*
X010865Y002195D02*
X010587Y002195D01*
X010581Y002204D02*
X010906Y002204D01*
X010948Y002212D02*
X010575Y002212D01*
X010570Y002221D02*
X010989Y002221D01*
X011006Y002246D02*
X010567Y002246D01*
X010562Y002238D02*
X011048Y002238D01*
X011031Y002229D02*
X010564Y002229D01*
X010573Y002255D02*
X010964Y002255D01*
X010923Y002263D02*
X010579Y002263D01*
X010584Y002272D02*
X010881Y002272D01*
X010840Y002280D02*
X010590Y002280D01*
X010596Y002289D02*
X010798Y002289D01*
X010757Y002297D02*
X010601Y002297D01*
X010607Y002306D02*
X010715Y002306D01*
X010673Y002314D02*
X010613Y002314D01*
X010618Y002323D02*
X010632Y002323D01*
X010559Y002459D02*
X010205Y002459D01*
X010219Y002467D02*
X010565Y002467D01*
X010570Y002476D02*
X010232Y002476D01*
X010245Y002484D02*
X010575Y002484D01*
X010580Y002493D02*
X010258Y002493D01*
X010271Y002501D02*
X010586Y002501D01*
X010591Y002510D02*
X010284Y002510D01*
X010297Y002518D02*
X010596Y002518D01*
X010602Y002527D02*
X010310Y002527D01*
X010323Y002535D02*
X010607Y002535D01*
X010612Y002544D02*
X010336Y002544D01*
X010349Y002552D02*
X010618Y002552D01*
X010623Y002561D02*
X010362Y002561D01*
X010375Y002569D02*
X010628Y002569D01*
X010633Y002578D02*
X010389Y002578D01*
X010402Y002586D02*
X010639Y002586D01*
X010644Y002595D02*
X010415Y002595D01*
X010428Y002603D02*
X010649Y002603D01*
X010655Y002612D02*
X010441Y002612D01*
X010454Y002620D02*
X010660Y002620D01*
X010665Y002629D02*
X010467Y002629D01*
X010480Y002637D02*
X010670Y002637D01*
X010676Y002646D02*
X010493Y002646D01*
X010506Y002654D02*
X010681Y002654D01*
X010686Y002663D02*
X010519Y002663D01*
X010532Y002671D02*
X010692Y002671D01*
X010697Y002680D02*
X010545Y002680D01*
X010559Y002688D02*
X010702Y002688D01*
X010708Y002697D02*
X010572Y002697D01*
X010585Y002705D02*
X010713Y002705D01*
X010718Y002714D02*
X010598Y002714D01*
X010611Y002722D02*
X010723Y002722D01*
X010729Y002731D02*
X010624Y002731D01*
X010637Y002739D02*
X010734Y002739D01*
X010739Y002748D02*
X010650Y002748D01*
X010663Y002756D02*
X010745Y002756D01*
X010750Y002765D02*
X010676Y002765D01*
X010689Y002773D02*
X010755Y002773D01*
X010760Y002782D02*
X010702Y002782D01*
X010715Y002790D02*
X010766Y002790D01*
X010771Y002799D02*
X010729Y002799D01*
X010742Y002807D02*
X010776Y002807D01*
X010782Y002816D02*
X010755Y002816D01*
X010768Y002824D02*
X010787Y002824D01*
X010781Y002833D02*
X010792Y002833D01*
X010794Y002841D02*
X010798Y002841D01*
X010298Y002663D02*
X010102Y002663D01*
X010103Y002671D02*
X010297Y002671D01*
X010295Y002680D02*
X010105Y002680D01*
X010107Y002688D02*
X010293Y002688D01*
X010291Y002697D02*
X010109Y002697D01*
X010111Y002705D02*
X010289Y002705D01*
X010287Y002714D02*
X010113Y002714D01*
X010115Y002722D02*
X010285Y002722D01*
X010284Y002731D02*
X010116Y002731D01*
X010118Y002739D02*
X010282Y002739D01*
X010280Y002748D02*
X010120Y002748D01*
X010122Y002756D02*
X010278Y002756D01*
X010276Y002765D02*
X010124Y002765D01*
X010126Y002773D02*
X010274Y002773D01*
X010272Y002782D02*
X010128Y002782D01*
X010129Y002790D02*
X010271Y002790D01*
X010269Y002799D02*
X010131Y002799D01*
X010133Y002807D02*
X010267Y002807D01*
X010265Y002816D02*
X010135Y002816D01*
X010137Y002824D02*
X010263Y002824D01*
X010261Y002833D02*
X010139Y002833D01*
X010140Y002841D02*
X010260Y002841D01*
X010258Y002850D02*
X010142Y002850D01*
X010144Y002858D02*
X010256Y002858D01*
X010254Y002867D02*
X010146Y002867D01*
X010148Y002875D02*
X010252Y002875D01*
X010250Y002884D02*
X010150Y002884D01*
X010152Y002892D02*
X010248Y002892D01*
X010247Y002901D02*
X010153Y002901D01*
X010155Y002909D02*
X010245Y002909D01*
X010243Y002918D02*
X010157Y002918D01*
X010159Y002926D02*
X010241Y002926D01*
X010239Y002935D02*
X010161Y002935D01*
X010163Y002943D02*
X010237Y002943D01*
X010236Y002952D02*
X010164Y002952D01*
X010166Y002960D02*
X010234Y002960D01*
X010232Y002969D02*
X010168Y002969D01*
X010170Y002977D02*
X010230Y002977D01*
X010228Y002986D02*
X010172Y002986D01*
X010174Y002994D02*
X010226Y002994D01*
X010224Y003003D02*
X010176Y003003D01*
X010177Y003011D02*
X010223Y003011D01*
X010221Y003020D02*
X010179Y003020D01*
X010181Y003028D02*
X010219Y003028D01*
X010217Y003037D02*
X010183Y003037D01*
X010185Y003045D02*
X010215Y003045D01*
X010213Y003054D02*
X010187Y003054D01*
X010188Y003062D02*
X010212Y003062D01*
X010210Y003071D02*
X010190Y003071D01*
X010192Y003079D02*
X010208Y003079D01*
X010206Y003088D02*
X010194Y003088D01*
X010196Y003096D02*
X010204Y003096D01*
X010202Y003105D02*
X010198Y003105D01*
X010200Y003113D02*
X010200Y003113D01*
X010200Y003115D02*
X010300Y002655D01*
X010200Y002595D01*
X010100Y002655D01*
X010200Y003115D01*
X010102Y002654D02*
X010298Y002654D01*
X010284Y002646D02*
X010116Y002646D01*
X010130Y002637D02*
X010270Y002637D01*
X010256Y002629D02*
X010144Y002629D01*
X010158Y002620D02*
X010242Y002620D01*
X010228Y002612D02*
X010172Y002612D01*
X010187Y002603D02*
X010213Y002603D01*
X009787Y002314D02*
X009724Y002314D01*
X009681Y002306D02*
X009793Y002306D01*
X009799Y002297D02*
X009637Y002297D01*
X009594Y002289D02*
X009804Y002289D01*
X009810Y002280D02*
X009550Y002280D01*
X009507Y002272D02*
X009816Y002272D01*
X009821Y002263D02*
X009463Y002263D01*
X009420Y002255D02*
X009827Y002255D01*
X009833Y002246D02*
X009377Y002246D01*
X009394Y002221D02*
X009830Y002221D01*
X009836Y002229D02*
X009350Y002229D01*
X009333Y002238D02*
X009838Y002238D01*
X009840Y002235D02*
X009780Y002325D01*
X009320Y002235D01*
X009780Y002145D01*
X009840Y002235D01*
X009825Y002212D02*
X009437Y002212D01*
X009481Y002204D02*
X009819Y002204D01*
X009813Y002195D02*
X009524Y002195D01*
X009568Y002187D02*
X009808Y002187D01*
X009802Y002178D02*
X009611Y002178D01*
X009655Y002170D02*
X009796Y002170D01*
X009791Y002161D02*
X009698Y002161D01*
X009741Y002153D02*
X009785Y002153D01*
X009768Y002323D02*
X009782Y002323D01*
X010115Y001728D02*
X010285Y001728D01*
X010283Y001719D02*
X010117Y001719D01*
X010119Y001711D02*
X010281Y001711D01*
X010279Y001702D02*
X010121Y001702D01*
X010123Y001694D02*
X010277Y001694D01*
X010275Y001685D02*
X010125Y001685D01*
X010127Y001677D02*
X010273Y001677D01*
X010271Y001668D02*
X010129Y001668D01*
X010131Y001660D02*
X010269Y001660D01*
X010267Y001651D02*
X010133Y001651D01*
X010135Y001643D02*
X010265Y001643D01*
X010263Y001634D02*
X010137Y001634D01*
X010139Y001626D02*
X010261Y001626D01*
X010260Y001617D02*
X010140Y001617D01*
X010142Y001609D02*
X010258Y001609D01*
X010256Y001600D02*
X010144Y001600D01*
X010146Y001592D02*
X010254Y001592D01*
X010252Y001583D02*
X010148Y001583D01*
X010150Y001575D02*
X010250Y001575D01*
X010248Y001566D02*
X010152Y001566D01*
X010154Y001558D02*
X010246Y001558D01*
X010244Y001549D02*
X010156Y001549D01*
X010158Y001541D02*
X010242Y001541D01*
X010240Y001532D02*
X010160Y001532D01*
X010162Y001524D02*
X010238Y001524D01*
X010236Y001515D02*
X010164Y001515D01*
X010166Y001507D02*
X010234Y001507D01*
X010233Y001498D02*
X010167Y001498D01*
X010169Y001490D02*
X010231Y001490D01*
X010229Y001481D02*
X010171Y001481D01*
X010173Y001473D02*
X010227Y001473D01*
X010225Y001464D02*
X010175Y001464D01*
X010177Y001456D02*
X010223Y001456D01*
X010221Y001447D02*
X010179Y001447D01*
X010181Y001439D02*
X010219Y001439D01*
X010217Y001430D02*
X010183Y001430D01*
X010185Y001422D02*
X010215Y001422D01*
X010213Y001413D02*
X010187Y001413D01*
X010189Y001405D02*
X010211Y001405D01*
X010209Y001396D02*
X010191Y001396D01*
X010193Y001388D02*
X010207Y001388D01*
X010205Y001379D02*
X010195Y001379D01*
X010196Y001371D02*
X010204Y001371D01*
X010202Y001362D02*
X010198Y001362D01*
D18*
X004800Y004325D03*
X003800Y009825D03*
D19*
X003980Y012645D03*
M02*
