G75*
%MOIN*%
%OFA0B0*%
%FSLAX25Y25*%
%IPPOS*%
%LPD*%
%AMOC8*
5,1,8,0,0,1.08239X$1,22.5*
%
%ADD10R,0.02769X0.01784*%
%ADD11R,0.01784X0.02769*%
%ADD12R,0.02769X0.02769*%
%ADD13R,0.04300X0.03900*%
%ADD14C,0.09400*%
%ADD15R,0.10800X0.10800*%
%ADD16C,0.07700*%
%ADD17R,0.06800X0.12800*%
%ADD18C,0.05524*%
%ADD19C,0.01421*%
%ADD20R,0.03556X0.04343*%
%ADD21R,0.04343X0.03556*%
%ADD22R,0.07887X0.03556*%
%ADD23R,0.07887X0.03950*%
%ADD24R,0.04737X0.04934*%
%ADD25R,0.04934X0.09461*%
%ADD26R,0.03950X0.03162*%
%ADD27R,0.05524X0.09855*%
%ADD28R,0.20485X0.26391*%
%ADD29C,0.07099*%
%ADD30R,0.04737X0.08674*%
%ADD31R,0.05131X0.12611*%
%ADD32R,0.04343X0.03950*%
%ADD33R,0.03543X0.01772*%
%ADD34R,0.02178X0.02473*%
%ADD35R,0.02126X0.01339*%
%ADD36R,0.01784X0.02178*%
%ADD37R,0.02178X0.01784*%
%ADD38C,0.17398*%
D10*
X0135595Y0125191D03*
X0135595Y0127159D03*
X0135595Y0129128D03*
X0135595Y0131096D03*
X0135595Y0133065D03*
X0146225Y0133065D03*
X0146225Y0131096D03*
X0146225Y0129128D03*
X0146225Y0127159D03*
X0146225Y0125191D03*
D11*
X0142879Y0123813D03*
X0140910Y0123813D03*
X0138942Y0123813D03*
X0138942Y0134443D03*
X0140910Y0134443D03*
X0142879Y0134443D03*
D12*
X0135253Y0137990D03*
X0131253Y0137990D03*
X0153430Y0121962D03*
X0157430Y0121962D03*
X0245245Y0156592D03*
X0249245Y0156592D03*
D13*
X0218422Y0126189D03*
X0226422Y0122389D03*
X0218422Y0118589D03*
D14*
X0270863Y0185293D03*
X0284642Y0185293D03*
D15*
X0254839Y0184673D03*
X0254839Y0166173D03*
D16*
X0238934Y0149128D03*
X0228934Y0149128D03*
X0218934Y0149128D03*
X0208934Y0149128D03*
X0198934Y0149128D03*
X0188934Y0149128D03*
X0178934Y0149128D03*
X0168934Y0149128D03*
X0158934Y0149128D03*
X0148934Y0149128D03*
X0138934Y0149128D03*
X0128934Y0149128D03*
X0118934Y0149128D03*
X0108934Y0149128D03*
X0098934Y0149128D03*
X0088934Y0149128D03*
X0078934Y0149128D03*
X0068934Y0149128D03*
X0068934Y0109128D03*
X0078934Y0109128D03*
X0088934Y0109128D03*
X0098934Y0109128D03*
X0108934Y0109128D03*
X0118934Y0109128D03*
X0128934Y0109128D03*
X0138934Y0109128D03*
X0148934Y0109128D03*
X0158934Y0109128D03*
X0168934Y0109128D03*
X0178934Y0109128D03*
X0188934Y0109128D03*
X0198934Y0109128D03*
X0208934Y0109128D03*
X0218934Y0109128D03*
X0228934Y0109128D03*
X0238934Y0109128D03*
D17*
X0238934Y0097628D03*
X0228934Y0097628D03*
X0218934Y0097628D03*
X0208934Y0097628D03*
X0198934Y0097628D03*
X0188934Y0097628D03*
X0178934Y0097628D03*
X0168934Y0097628D03*
X0158934Y0097628D03*
X0148934Y0097628D03*
X0138934Y0097628D03*
X0128934Y0097628D03*
X0118934Y0097628D03*
X0108934Y0097628D03*
X0098934Y0097628D03*
X0088934Y0097628D03*
X0078934Y0097628D03*
X0068934Y0097628D03*
X0068934Y0080628D03*
X0078934Y0080628D03*
X0088934Y0080628D03*
X0098934Y0080628D03*
X0108934Y0080628D03*
X0118934Y0080628D03*
X0128934Y0080628D03*
X0138934Y0080628D03*
X0148934Y0080628D03*
X0158934Y0080628D03*
X0168934Y0080628D03*
X0178934Y0080628D03*
X0188934Y0080628D03*
X0198934Y0080628D03*
X0208934Y0080628D03*
X0218934Y0080628D03*
X0228934Y0080628D03*
X0238934Y0080628D03*
X0238934Y0160628D03*
X0228934Y0160628D03*
X0218934Y0160628D03*
X0208934Y0160628D03*
X0198934Y0160628D03*
X0188934Y0160628D03*
X0178934Y0160628D03*
X0168934Y0160628D03*
X0158934Y0160628D03*
X0148934Y0160628D03*
X0138934Y0160628D03*
X0128934Y0160628D03*
X0118934Y0160628D03*
X0108934Y0160628D03*
X0098934Y0160628D03*
X0088934Y0160628D03*
X0078934Y0160628D03*
X0068934Y0160628D03*
X0068934Y0177628D03*
X0078934Y0177628D03*
X0088934Y0177628D03*
X0098934Y0177628D03*
X0108934Y0177628D03*
X0118934Y0177628D03*
X0128934Y0177628D03*
X0138934Y0177628D03*
X0148934Y0177628D03*
X0158934Y0177628D03*
X0168934Y0177628D03*
X0178934Y0177628D03*
X0188934Y0177628D03*
X0198934Y0177628D03*
X0208934Y0177628D03*
X0218934Y0177628D03*
X0228934Y0177628D03*
X0238934Y0177628D03*
D18*
X0233934Y0169128D03*
X0233934Y0089128D03*
X0073934Y0089128D03*
X0073934Y0169128D03*
D19*
X0268631Y0089451D02*
X0268631Y0086135D01*
X0265315Y0086135D01*
X0265315Y0089451D01*
X0268631Y0089451D01*
X0268631Y0087555D02*
X0265315Y0087555D01*
X0265315Y0088975D02*
X0268631Y0088975D01*
X0275537Y0089451D02*
X0275537Y0086135D01*
X0272221Y0086135D01*
X0272221Y0089451D01*
X0275537Y0089451D01*
X0275537Y0087555D02*
X0272221Y0087555D01*
X0272221Y0088975D02*
X0275537Y0088975D01*
D20*
X0272977Y0094293D03*
X0267859Y0094293D03*
X0295363Y0109293D03*
X0300481Y0109293D03*
X0300363Y0123793D03*
X0305481Y0123793D03*
X0323363Y0129293D03*
X0328481Y0129293D03*
X0239981Y0131289D03*
X0234863Y0131289D03*
X0234863Y0136297D03*
X0239981Y0136297D03*
X0239981Y0141297D03*
X0234863Y0141297D03*
D21*
X0212422Y0126348D03*
X0212422Y0121230D03*
X0200087Y0129210D03*
X0200087Y0134328D03*
X0232926Y0122352D03*
X0237922Y0122352D03*
X0242926Y0122352D03*
X0242926Y0117234D03*
X0237922Y0117234D03*
X0232926Y0117234D03*
X0311922Y0131234D03*
X0311922Y0136352D03*
D22*
X0289040Y0146557D03*
X0251638Y0146557D03*
X0251638Y0111911D03*
X0289040Y0111911D03*
D23*
X0289040Y0116242D03*
X0289040Y0120573D03*
X0289040Y0124903D03*
X0289040Y0129234D03*
X0289040Y0133565D03*
X0289040Y0137895D03*
X0289040Y0142226D03*
X0251638Y0142226D03*
X0251638Y0137895D03*
X0251638Y0133565D03*
X0251638Y0129234D03*
X0251638Y0124903D03*
X0251638Y0120573D03*
X0251638Y0116242D03*
D24*
X0308572Y0103311D03*
D25*
X0314379Y0097297D03*
X0302764Y0097297D03*
D26*
X0205757Y0128120D03*
X0205757Y0134419D03*
D27*
X0333808Y0129403D03*
D28*
X0341288Y0152041D03*
X0392863Y0152041D03*
X0392863Y0106765D03*
X0341288Y0106765D03*
D29*
X0041926Y0104655D03*
X0041926Y0096781D03*
X0041926Y0112529D03*
X0041926Y0120403D03*
X0041926Y0137600D03*
X0041926Y0145474D03*
X0041926Y0153348D03*
X0041926Y0161222D03*
D30*
X0193420Y0129128D03*
D31*
X0167042Y0129128D03*
D32*
X0249481Y0101533D03*
X0257749Y0097793D03*
X0249481Y0094053D03*
D33*
X0300682Y0113734D03*
X0300682Y0116293D03*
X0300682Y0118852D03*
X0308162Y0118852D03*
X0308162Y0116293D03*
X0308162Y0113734D03*
D34*
X0313453Y0122661D03*
X0315422Y0122661D03*
X0315422Y0124925D03*
X0313453Y0124925D03*
X0317390Y0123793D03*
D35*
X0317241Y0127718D03*
X0317241Y0129293D03*
X0317241Y0130868D03*
X0319603Y0130868D03*
X0319603Y0129293D03*
X0319603Y0127718D03*
D36*
X0313406Y0118843D03*
X0311438Y0118843D03*
X0296906Y0116293D03*
X0294938Y0116293D03*
D37*
X0308422Y0109777D03*
X0308422Y0107809D03*
D38*
X0045666Y0074041D03*
X0045666Y0184277D03*
X0419646Y0184277D03*
X0419682Y0074041D03*
M02*
