G75*
%MOIN*%
%OFA0B0*%
%FSLAX25Y25*%
%IPPOS*%
%LPD*%
%AMOC8*
5,1,8,0,0,1.08239X$1,22.5*
%
%ADD10C,0.05937*%
%ADD11C,0.05500*%
%ADD12C,0.04756*%
%ADD13C,0.00600*%
%ADD14C,0.02800*%
%ADD15C,0.16598*%
%ADD16C,0.01000*%
%ADD17C,0.02400*%
%ADD18C,0.00800*%
D10*
X0270863Y0185293D03*
X0284642Y0185293D03*
D11*
X0238934Y0149128D03*
X0228934Y0149128D03*
X0218934Y0149128D03*
X0208934Y0149128D03*
X0198934Y0149128D03*
X0188934Y0149128D03*
X0178934Y0149128D03*
X0168934Y0149128D03*
X0158934Y0149128D03*
X0148934Y0149128D03*
X0138934Y0149128D03*
X0128934Y0149128D03*
X0118934Y0149128D03*
X0108934Y0149128D03*
X0098934Y0149128D03*
X0088934Y0149128D03*
X0078934Y0149128D03*
X0068934Y0149128D03*
X0068934Y0109128D03*
X0078934Y0109128D03*
X0088934Y0109128D03*
X0098934Y0109128D03*
X0108934Y0109128D03*
X0118934Y0109128D03*
X0128934Y0109128D03*
X0138934Y0109128D03*
X0148934Y0109128D03*
X0158934Y0109128D03*
X0168934Y0109128D03*
X0178934Y0109128D03*
X0188934Y0109128D03*
X0198934Y0109128D03*
X0208934Y0109128D03*
X0218934Y0109128D03*
X0228934Y0109128D03*
X0238934Y0109128D03*
D12*
X0041926Y0112529D03*
X0041926Y0104655D03*
X0041926Y0096781D03*
X0041926Y0120403D03*
X0041926Y0137600D03*
X0041926Y0145474D03*
X0041926Y0153348D03*
X0041926Y0161222D03*
D13*
X0033910Y0060376D02*
X0036424Y0059335D01*
X0037784Y0059201D01*
X0427548Y0059201D01*
X0428908Y0059335D01*
X0431422Y0060376D01*
X0433347Y0062300D01*
X0434388Y0064814D01*
X0434522Y0066175D01*
X0434522Y0066548D01*
X0434530Y0066556D01*
X0434530Y0107024D01*
X0423346Y0114480D01*
X0423246Y0114480D01*
X0423045Y0114680D01*
X0422809Y0114838D01*
X0422790Y0114936D01*
X0422719Y0115007D01*
X0422719Y0115290D01*
X0422663Y0115569D01*
X0422719Y0115652D01*
X0422719Y0142613D01*
X0422689Y0142649D01*
X0422719Y0142979D01*
X0422719Y0143311D01*
X0422752Y0143345D01*
X0422756Y0143391D01*
X0423011Y0143604D01*
X0423246Y0143839D01*
X0423293Y0143839D01*
X0434530Y0153203D01*
X0434530Y0191778D01*
X0434522Y0191786D01*
X0434522Y0192159D01*
X0434388Y0193520D01*
X0433347Y0196034D01*
X0431422Y0197958D01*
X0428908Y0198999D01*
X0427548Y0199133D01*
X0037784Y0199133D01*
X0036424Y0198999D01*
X0033910Y0197958D01*
X0031985Y0196034D01*
X0030944Y0193520D01*
X0030810Y0192159D01*
X0030810Y0066175D01*
X0030944Y0064814D01*
X0031985Y0062300D01*
X0033910Y0060376D01*
X0033599Y0060687D02*
X0431733Y0060687D01*
X0432332Y0061286D02*
X0033000Y0061286D01*
X0032402Y0061884D02*
X0432930Y0061884D01*
X0433422Y0062483D02*
X0031910Y0062483D01*
X0031662Y0063081D02*
X0433670Y0063081D01*
X0433918Y0063680D02*
X0031414Y0063680D01*
X0031166Y0064278D02*
X0434166Y0064278D01*
X0434394Y0064877D02*
X0047580Y0064877D01*
X0047496Y0064842D02*
X0050877Y0066242D01*
X0053465Y0068830D01*
X0054865Y0072211D01*
X0054865Y0075871D01*
X0053465Y0079252D01*
X0050877Y0081840D01*
X0047496Y0083240D01*
X0043836Y0083240D01*
X0040455Y0081840D01*
X0037867Y0079252D01*
X0036467Y0075871D01*
X0036467Y0072211D01*
X0037867Y0068830D01*
X0040455Y0066242D01*
X0043836Y0064842D01*
X0047496Y0064842D01*
X0049025Y0065475D02*
X0434453Y0065475D01*
X0434512Y0066074D02*
X0050470Y0066074D01*
X0051307Y0066672D02*
X0434530Y0066672D01*
X0434530Y0067271D02*
X0051905Y0067271D01*
X0052504Y0067869D02*
X0434530Y0067869D01*
X0434530Y0068468D02*
X0053102Y0068468D01*
X0053563Y0069066D02*
X0434530Y0069066D01*
X0434530Y0069665D02*
X0053810Y0069665D01*
X0054058Y0070263D02*
X0434530Y0070263D01*
X0434530Y0070862D02*
X0054306Y0070862D01*
X0054554Y0071460D02*
X0434530Y0071460D01*
X0434530Y0072059D02*
X0054802Y0072059D01*
X0054865Y0072657D02*
X0434530Y0072657D01*
X0434530Y0073256D02*
X0054865Y0073256D01*
X0054865Y0073854D02*
X0434530Y0073854D01*
X0434530Y0074453D02*
X0054865Y0074453D01*
X0054865Y0075051D02*
X0434530Y0075051D01*
X0434530Y0075650D02*
X0054865Y0075650D01*
X0054709Y0076248D02*
X0434530Y0076248D01*
X0434530Y0076847D02*
X0054461Y0076847D01*
X0054213Y0077445D02*
X0434530Y0077445D01*
X0434530Y0078044D02*
X0053965Y0078044D01*
X0053717Y0078642D02*
X0434530Y0078642D01*
X0434530Y0079241D02*
X0053469Y0079241D01*
X0052877Y0079839D02*
X0434530Y0079839D01*
X0434530Y0080438D02*
X0052279Y0080438D01*
X0051680Y0081036D02*
X0434530Y0081036D01*
X0434530Y0081635D02*
X0051082Y0081635D01*
X0049926Y0082233D02*
X0434530Y0082233D01*
X0434530Y0082832D02*
X0048481Y0082832D01*
X0042851Y0082832D02*
X0030810Y0082832D01*
X0030810Y0083430D02*
X0434530Y0083430D01*
X0434530Y0084029D02*
X0030810Y0084029D01*
X0030810Y0084627D02*
X0434530Y0084627D01*
X0434530Y0085226D02*
X0030810Y0085226D01*
X0030810Y0085825D02*
X0434530Y0085825D01*
X0434530Y0086423D02*
X0235843Y0086423D01*
X0235782Y0086362D02*
X0236699Y0087280D01*
X0237196Y0088479D01*
X0237196Y0089777D01*
X0236699Y0090976D01*
X0235782Y0091893D01*
X0234583Y0092390D01*
X0233285Y0092390D01*
X0232086Y0091893D01*
X0231168Y0090976D01*
X0230672Y0089777D01*
X0230672Y0088479D01*
X0231168Y0087280D01*
X0232086Y0086362D01*
X0233285Y0085865D01*
X0234583Y0085865D01*
X0235782Y0086362D01*
X0236441Y0087022D02*
X0434530Y0087022D01*
X0434530Y0087620D02*
X0236840Y0087620D01*
X0237088Y0088219D02*
X0434530Y0088219D01*
X0434530Y0088817D02*
X0237196Y0088817D01*
X0237196Y0089416D02*
X0434530Y0089416D01*
X0434530Y0090014D02*
X0237098Y0090014D01*
X0236850Y0090613D02*
X0434530Y0090613D01*
X0434530Y0091211D02*
X0236464Y0091211D01*
X0235865Y0091810D02*
X0434530Y0091810D01*
X0434530Y0092408D02*
X0030810Y0092408D01*
X0030810Y0091810D02*
X0072002Y0091810D01*
X0072086Y0091893D02*
X0071168Y0090976D01*
X0070672Y0089777D01*
X0070672Y0088479D01*
X0071168Y0087280D01*
X0072086Y0086362D01*
X0073285Y0085865D01*
X0074583Y0085865D01*
X0075782Y0086362D01*
X0076699Y0087280D01*
X0077196Y0088479D01*
X0077196Y0089777D01*
X0076699Y0090976D01*
X0075782Y0091893D01*
X0074583Y0092390D01*
X0073285Y0092390D01*
X0072086Y0091893D01*
X0071404Y0091211D02*
X0030810Y0091211D01*
X0030810Y0090613D02*
X0071018Y0090613D01*
X0070770Y0090014D02*
X0030810Y0090014D01*
X0030810Y0089416D02*
X0070672Y0089416D01*
X0070672Y0088817D02*
X0030810Y0088817D01*
X0030810Y0088219D02*
X0070779Y0088219D01*
X0071027Y0087620D02*
X0030810Y0087620D01*
X0030810Y0087022D02*
X0071426Y0087022D01*
X0072025Y0086423D02*
X0030810Y0086423D01*
X0030810Y0082233D02*
X0041406Y0082233D01*
X0040250Y0081635D02*
X0030810Y0081635D01*
X0030810Y0081036D02*
X0039652Y0081036D01*
X0039053Y0080438D02*
X0030810Y0080438D01*
X0030810Y0079839D02*
X0038455Y0079839D01*
X0037863Y0079241D02*
X0030810Y0079241D01*
X0030810Y0078642D02*
X0037615Y0078642D01*
X0037367Y0078044D02*
X0030810Y0078044D01*
X0030810Y0077445D02*
X0037119Y0077445D01*
X0036871Y0076847D02*
X0030810Y0076847D01*
X0030810Y0076248D02*
X0036623Y0076248D01*
X0036467Y0075650D02*
X0030810Y0075650D01*
X0030810Y0075051D02*
X0036467Y0075051D01*
X0036467Y0074453D02*
X0030810Y0074453D01*
X0030810Y0073854D02*
X0036467Y0073854D01*
X0036467Y0073256D02*
X0030810Y0073256D01*
X0030810Y0072657D02*
X0036467Y0072657D01*
X0036530Y0072059D02*
X0030810Y0072059D01*
X0030810Y0071460D02*
X0036778Y0071460D01*
X0037026Y0070862D02*
X0030810Y0070862D01*
X0030810Y0070263D02*
X0037274Y0070263D01*
X0037522Y0069665D02*
X0030810Y0069665D01*
X0030810Y0069066D02*
X0037769Y0069066D01*
X0038230Y0068468D02*
X0030810Y0068468D01*
X0030810Y0067869D02*
X0038828Y0067869D01*
X0039427Y0067271D02*
X0030810Y0067271D01*
X0030810Y0066672D02*
X0040025Y0066672D01*
X0040862Y0066074D02*
X0030820Y0066074D01*
X0030879Y0065475D02*
X0042307Y0065475D01*
X0043752Y0064877D02*
X0030938Y0064877D01*
X0034604Y0060089D02*
X0430728Y0060089D01*
X0429283Y0059490D02*
X0036049Y0059490D01*
X0075843Y0086423D02*
X0232025Y0086423D01*
X0231426Y0087022D02*
X0076441Y0087022D01*
X0076840Y0087620D02*
X0231027Y0087620D01*
X0230779Y0088219D02*
X0077088Y0088219D01*
X0077196Y0088817D02*
X0230672Y0088817D01*
X0230672Y0089416D02*
X0077196Y0089416D01*
X0077098Y0090014D02*
X0230770Y0090014D01*
X0231018Y0090613D02*
X0076850Y0090613D01*
X0076464Y0091211D02*
X0231404Y0091211D01*
X0232002Y0091810D02*
X0075865Y0091810D01*
X0078208Y0105478D02*
X0079660Y0105478D01*
X0081001Y0106033D01*
X0082028Y0107060D01*
X0082584Y0108402D01*
X0082584Y0109854D01*
X0082028Y0111195D01*
X0081001Y0112222D01*
X0079660Y0112778D01*
X0078208Y0112778D01*
X0076866Y0112222D01*
X0075839Y0111195D01*
X0075284Y0109854D01*
X0075284Y0108402D01*
X0075839Y0107060D01*
X0076866Y0106033D01*
X0078208Y0105478D01*
X0077972Y0105575D02*
X0069896Y0105575D01*
X0069660Y0105478D02*
X0071001Y0106033D01*
X0072028Y0107060D01*
X0072584Y0108402D01*
X0072584Y0109854D01*
X0072028Y0111195D01*
X0071001Y0112222D01*
X0069660Y0112778D01*
X0068208Y0112778D01*
X0066866Y0112222D01*
X0065839Y0111195D01*
X0065284Y0109854D01*
X0065284Y0108402D01*
X0065839Y0107060D01*
X0066866Y0106033D01*
X0068208Y0105478D01*
X0069660Y0105478D01*
X0071142Y0106174D02*
X0076726Y0106174D01*
X0076127Y0106772D02*
X0071740Y0106772D01*
X0072157Y0107371D02*
X0075711Y0107371D01*
X0075463Y0107969D02*
X0072405Y0107969D01*
X0072584Y0108568D02*
X0075284Y0108568D01*
X0075284Y0109166D02*
X0072584Y0109166D01*
X0072584Y0109765D02*
X0075284Y0109765D01*
X0075495Y0110363D02*
X0072373Y0110363D01*
X0072125Y0110962D02*
X0075743Y0110962D01*
X0076205Y0111560D02*
X0071663Y0111560D01*
X0071064Y0112159D02*
X0076803Y0112159D01*
X0078159Y0112758D02*
X0069708Y0112758D01*
X0068159Y0112758D02*
X0053022Y0112758D01*
X0053022Y0113356D02*
X0235389Y0113356D01*
X0235988Y0112758D02*
X0229708Y0112758D01*
X0229660Y0112778D02*
X0228208Y0112778D01*
X0226866Y0112222D01*
X0225839Y0111195D01*
X0225284Y0109854D01*
X0225284Y0108402D01*
X0225839Y0107060D01*
X0226866Y0106033D01*
X0228208Y0105478D01*
X0229660Y0105478D01*
X0231001Y0106033D01*
X0232028Y0107060D01*
X0232584Y0108402D01*
X0232584Y0109854D01*
X0232028Y0111195D01*
X0231001Y0112222D01*
X0229660Y0112778D01*
X0228159Y0112758D02*
X0219708Y0112758D01*
X0219660Y0112778D02*
X0218208Y0112778D01*
X0216866Y0112222D01*
X0215839Y0111195D01*
X0215284Y0109854D01*
X0215284Y0108402D01*
X0215839Y0107060D01*
X0216866Y0106033D01*
X0218208Y0105478D01*
X0219660Y0105478D01*
X0221001Y0106033D01*
X0222028Y0107060D01*
X0222584Y0108402D01*
X0222584Y0109854D01*
X0222028Y0111195D01*
X0221001Y0112222D01*
X0219660Y0112778D01*
X0218159Y0112758D02*
X0199708Y0112758D01*
X0199660Y0112778D02*
X0198208Y0112778D01*
X0196866Y0112222D01*
X0195839Y0111195D01*
X0195284Y0109854D01*
X0195284Y0108402D01*
X0195839Y0107060D01*
X0196866Y0106033D01*
X0198208Y0105478D01*
X0199660Y0105478D01*
X0201001Y0106033D01*
X0202028Y0107060D01*
X0202584Y0108402D01*
X0202584Y0109854D01*
X0202028Y0111195D01*
X0201001Y0112222D01*
X0199660Y0112778D01*
X0198159Y0112758D02*
X0189708Y0112758D01*
X0189660Y0112778D02*
X0188208Y0112778D01*
X0186866Y0112222D01*
X0185839Y0111195D01*
X0185284Y0109854D01*
X0185284Y0108402D01*
X0185839Y0107060D01*
X0186866Y0106033D01*
X0188208Y0105478D01*
X0189660Y0105478D01*
X0191001Y0106033D01*
X0192028Y0107060D01*
X0192584Y0108402D01*
X0192584Y0109854D01*
X0192028Y0111195D01*
X0191001Y0112222D01*
X0189660Y0112778D01*
X0188159Y0112758D02*
X0179708Y0112758D01*
X0179660Y0112778D02*
X0178208Y0112778D01*
X0176866Y0112222D01*
X0175839Y0111195D01*
X0175284Y0109854D01*
X0175284Y0108402D01*
X0175839Y0107060D01*
X0176866Y0106033D01*
X0178208Y0105478D01*
X0179660Y0105478D01*
X0181001Y0106033D01*
X0182028Y0107060D01*
X0182584Y0108402D01*
X0182584Y0109854D01*
X0182028Y0111195D01*
X0181001Y0112222D01*
X0179660Y0112778D01*
X0178159Y0112758D02*
X0169708Y0112758D01*
X0169660Y0112778D02*
X0168208Y0112778D01*
X0166866Y0112222D01*
X0165839Y0111195D01*
X0165284Y0109854D01*
X0165284Y0108402D01*
X0165839Y0107060D01*
X0166866Y0106033D01*
X0168208Y0105478D01*
X0169660Y0105478D01*
X0171001Y0106033D01*
X0172028Y0107060D01*
X0172584Y0108402D01*
X0172584Y0109854D01*
X0172028Y0111195D01*
X0171001Y0112222D01*
X0169660Y0112778D01*
X0168159Y0112758D02*
X0159708Y0112758D01*
X0159660Y0112778D02*
X0158208Y0112778D01*
X0156866Y0112222D01*
X0155839Y0111195D01*
X0155284Y0109854D01*
X0155284Y0108402D01*
X0155839Y0107060D01*
X0156866Y0106033D01*
X0158208Y0105478D01*
X0159660Y0105478D01*
X0161001Y0106033D01*
X0162028Y0107060D01*
X0162584Y0108402D01*
X0162584Y0109854D01*
X0162028Y0111195D01*
X0161001Y0112222D01*
X0159660Y0112778D01*
X0158159Y0112758D02*
X0149708Y0112758D01*
X0149660Y0112778D02*
X0148208Y0112778D01*
X0146866Y0112222D01*
X0145839Y0111195D01*
X0145284Y0109854D01*
X0145284Y0108402D01*
X0145839Y0107060D01*
X0146866Y0106033D01*
X0148208Y0105478D01*
X0149660Y0105478D01*
X0151001Y0106033D01*
X0152028Y0107060D01*
X0152584Y0108402D01*
X0152584Y0109854D01*
X0152028Y0111195D01*
X0151001Y0112222D01*
X0149660Y0112778D01*
X0148159Y0112758D02*
X0139708Y0112758D01*
X0139660Y0112778D02*
X0138208Y0112778D01*
X0136866Y0112222D01*
X0135839Y0111195D01*
X0135284Y0109854D01*
X0135284Y0108402D01*
X0135839Y0107060D01*
X0136866Y0106033D01*
X0138208Y0105478D01*
X0139660Y0105478D01*
X0141001Y0106033D01*
X0142028Y0107060D01*
X0142584Y0108402D01*
X0142584Y0109854D01*
X0142028Y0111195D01*
X0141001Y0112222D01*
X0139660Y0112778D01*
X0138159Y0112758D02*
X0129708Y0112758D01*
X0129660Y0112778D02*
X0128208Y0112778D01*
X0126866Y0112222D01*
X0125839Y0111195D01*
X0125284Y0109854D01*
X0125284Y0108402D01*
X0125839Y0107060D01*
X0126866Y0106033D01*
X0128208Y0105478D01*
X0129660Y0105478D01*
X0131001Y0106033D01*
X0132028Y0107060D01*
X0132584Y0108402D01*
X0132584Y0109854D01*
X0132028Y0111195D01*
X0131001Y0112222D01*
X0129660Y0112778D01*
X0128159Y0112758D02*
X0119708Y0112758D01*
X0119660Y0112778D02*
X0118208Y0112778D01*
X0116866Y0112222D01*
X0115839Y0111195D01*
X0115284Y0109854D01*
X0115284Y0108402D01*
X0115839Y0107060D01*
X0116866Y0106033D01*
X0118208Y0105478D01*
X0119660Y0105478D01*
X0121001Y0106033D01*
X0122028Y0107060D01*
X0122584Y0108402D01*
X0122584Y0109854D01*
X0122028Y0111195D01*
X0121001Y0112222D01*
X0119660Y0112778D01*
X0118159Y0112758D02*
X0109708Y0112758D01*
X0109660Y0112778D02*
X0108208Y0112778D01*
X0106866Y0112222D01*
X0105839Y0111195D01*
X0105284Y0109854D01*
X0105284Y0108402D01*
X0105839Y0107060D01*
X0106866Y0106033D01*
X0108208Y0105478D01*
X0109660Y0105478D01*
X0111001Y0106033D01*
X0112028Y0107060D01*
X0112584Y0108402D01*
X0112584Y0109854D01*
X0112028Y0111195D01*
X0111001Y0112222D01*
X0109660Y0112778D01*
X0108159Y0112758D02*
X0099708Y0112758D01*
X0099660Y0112778D02*
X0098208Y0112778D01*
X0096866Y0112222D01*
X0095839Y0111195D01*
X0095284Y0109854D01*
X0095284Y0108402D01*
X0095839Y0107060D01*
X0096866Y0106033D01*
X0098208Y0105478D01*
X0099660Y0105478D01*
X0101001Y0106033D01*
X0102028Y0107060D01*
X0102584Y0108402D01*
X0102584Y0109854D01*
X0102028Y0111195D01*
X0101001Y0112222D01*
X0099660Y0112778D01*
X0098159Y0112758D02*
X0089708Y0112758D01*
X0089660Y0112778D02*
X0088208Y0112778D01*
X0086866Y0112222D01*
X0085839Y0111195D01*
X0085284Y0109854D01*
X0085284Y0108402D01*
X0085839Y0107060D01*
X0086866Y0106033D01*
X0088208Y0105478D01*
X0089660Y0105478D01*
X0091001Y0106033D01*
X0092028Y0107060D01*
X0092584Y0108402D01*
X0092584Y0109854D01*
X0092028Y0111195D01*
X0091001Y0112222D01*
X0089660Y0112778D01*
X0088159Y0112758D02*
X0079708Y0112758D01*
X0081064Y0112159D02*
X0086803Y0112159D01*
X0086205Y0111560D02*
X0081663Y0111560D01*
X0082125Y0110962D02*
X0085743Y0110962D01*
X0085495Y0110363D02*
X0082373Y0110363D01*
X0082584Y0109765D02*
X0085284Y0109765D01*
X0085284Y0109166D02*
X0082584Y0109166D01*
X0082584Y0108568D02*
X0085284Y0108568D01*
X0085463Y0107969D02*
X0082405Y0107969D01*
X0082157Y0107371D02*
X0085711Y0107371D01*
X0086127Y0106772D02*
X0081740Y0106772D01*
X0081142Y0106174D02*
X0086726Y0106174D01*
X0087972Y0105575D02*
X0079896Y0105575D01*
X0089896Y0105575D02*
X0097972Y0105575D01*
X0096726Y0106174D02*
X0091142Y0106174D01*
X0091740Y0106772D02*
X0096127Y0106772D01*
X0095711Y0107371D02*
X0092157Y0107371D01*
X0092405Y0107969D02*
X0095463Y0107969D01*
X0095284Y0108568D02*
X0092584Y0108568D01*
X0092584Y0109166D02*
X0095284Y0109166D01*
X0095284Y0109765D02*
X0092584Y0109765D01*
X0092373Y0110363D02*
X0095495Y0110363D01*
X0095743Y0110962D02*
X0092125Y0110962D01*
X0091663Y0111560D02*
X0096205Y0111560D01*
X0096803Y0112159D02*
X0091064Y0112159D01*
X0101064Y0112159D02*
X0106803Y0112159D01*
X0106205Y0111560D02*
X0101663Y0111560D01*
X0102125Y0110962D02*
X0105743Y0110962D01*
X0105495Y0110363D02*
X0102373Y0110363D01*
X0102584Y0109765D02*
X0105284Y0109765D01*
X0105284Y0109166D02*
X0102584Y0109166D01*
X0102584Y0108568D02*
X0105284Y0108568D01*
X0105463Y0107969D02*
X0102405Y0107969D01*
X0102157Y0107371D02*
X0105711Y0107371D01*
X0106127Y0106772D02*
X0101740Y0106772D01*
X0101142Y0106174D02*
X0106726Y0106174D01*
X0107972Y0105575D02*
X0099896Y0105575D01*
X0109896Y0105575D02*
X0117972Y0105575D01*
X0116726Y0106174D02*
X0111142Y0106174D01*
X0111740Y0106772D02*
X0116127Y0106772D01*
X0115711Y0107371D02*
X0112157Y0107371D01*
X0112405Y0107969D02*
X0115463Y0107969D01*
X0115284Y0108568D02*
X0112584Y0108568D01*
X0112584Y0109166D02*
X0115284Y0109166D01*
X0115284Y0109765D02*
X0112584Y0109765D01*
X0112373Y0110363D02*
X0115495Y0110363D01*
X0115743Y0110962D02*
X0112125Y0110962D01*
X0111663Y0111560D02*
X0116205Y0111560D01*
X0116803Y0112159D02*
X0111064Y0112159D01*
X0121064Y0112159D02*
X0126803Y0112159D01*
X0126205Y0111560D02*
X0121663Y0111560D01*
X0122125Y0110962D02*
X0125743Y0110962D01*
X0125495Y0110363D02*
X0122373Y0110363D01*
X0122584Y0109765D02*
X0125284Y0109765D01*
X0125284Y0109166D02*
X0122584Y0109166D01*
X0122584Y0108568D02*
X0125284Y0108568D01*
X0125463Y0107969D02*
X0122405Y0107969D01*
X0122157Y0107371D02*
X0125711Y0107371D01*
X0126127Y0106772D02*
X0121740Y0106772D01*
X0121142Y0106174D02*
X0126726Y0106174D01*
X0127972Y0105575D02*
X0119896Y0105575D01*
X0129896Y0105575D02*
X0137972Y0105575D01*
X0136726Y0106174D02*
X0131142Y0106174D01*
X0131740Y0106772D02*
X0136127Y0106772D01*
X0135711Y0107371D02*
X0132157Y0107371D01*
X0132405Y0107969D02*
X0135463Y0107969D01*
X0135284Y0108568D02*
X0132584Y0108568D01*
X0132584Y0109166D02*
X0135284Y0109166D01*
X0135284Y0109765D02*
X0132584Y0109765D01*
X0132373Y0110363D02*
X0135495Y0110363D01*
X0135743Y0110962D02*
X0132125Y0110962D01*
X0131663Y0111560D02*
X0136205Y0111560D01*
X0136803Y0112159D02*
X0131064Y0112159D01*
X0132052Y0117193D02*
X0152269Y0117193D01*
X0152469Y0116993D01*
X0154375Y0116993D01*
X0154575Y0117193D01*
X0194292Y0117193D01*
X0199292Y0122193D01*
X0202269Y0122193D01*
X0202469Y0121993D01*
X0204375Y0121993D01*
X0204575Y0122193D01*
X0206052Y0122193D01*
X0209222Y0119023D01*
X0209222Y0114296D01*
X0209925Y0113593D01*
X0221419Y0113593D01*
X0222019Y0114193D01*
X0234552Y0114193D01*
X0236695Y0112050D01*
X0235839Y0111195D01*
X0235284Y0109854D01*
X0235284Y0108402D01*
X0235839Y0107060D01*
X0236866Y0106033D01*
X0238208Y0105478D01*
X0239660Y0105478D01*
X0241001Y0106033D01*
X0242028Y0107060D01*
X0242584Y0108402D01*
X0242584Y0109854D01*
X0242028Y0111195D01*
X0241034Y0112190D01*
X0241034Y0113651D01*
X0236292Y0118393D01*
X0222122Y0118393D01*
X0222122Y0122790D01*
X0221419Y0123493D01*
X0210692Y0123493D01*
X0207792Y0126393D01*
X0204575Y0126393D01*
X0204375Y0126593D01*
X0202469Y0126593D01*
X0202269Y0126393D01*
X0197552Y0126393D01*
X0196322Y0125163D01*
X0192552Y0121393D01*
X0154575Y0121393D01*
X0154375Y0121593D01*
X0152469Y0121593D01*
X0152269Y0121393D01*
X0133792Y0121393D01*
X0130022Y0125163D01*
X0130022Y0135640D01*
X0130222Y0135840D01*
X0130222Y0137746D01*
X0128875Y0139093D01*
X0126969Y0139093D01*
X0125622Y0137746D01*
X0125622Y0137463D01*
X0125052Y0136893D01*
X0070792Y0136893D01*
X0060111Y0147574D01*
X0044462Y0147574D01*
X0043783Y0148253D01*
X0042578Y0148752D01*
X0041274Y0148752D01*
X0040069Y0148253D01*
X0039147Y0147331D01*
X0038648Y0146126D01*
X0038648Y0144822D01*
X0039147Y0143617D01*
X0040069Y0142695D01*
X0041274Y0142196D01*
X0042234Y0142196D01*
X0048822Y0135608D01*
X0048822Y0110163D01*
X0045414Y0106755D01*
X0044462Y0106755D01*
X0043783Y0107434D01*
X0042578Y0107933D01*
X0041274Y0107933D01*
X0040069Y0107434D01*
X0039147Y0106512D01*
X0038648Y0105307D01*
X0038648Y0104003D01*
X0039147Y0102798D01*
X0040069Y0101876D01*
X0041274Y0101377D01*
X0042578Y0101377D01*
X0043783Y0101876D01*
X0044462Y0102555D01*
X0047154Y0102555D01*
X0051792Y0107193D01*
X0053022Y0108423D01*
X0053022Y0137348D01*
X0046996Y0143374D01*
X0058371Y0143374D01*
X0067822Y0133923D01*
X0069052Y0132693D01*
X0125822Y0132693D01*
X0125822Y0123423D01*
X0130822Y0118423D01*
X0132052Y0117193D01*
X0131699Y0117546D02*
X0053022Y0117546D01*
X0053022Y0118144D02*
X0131101Y0118144D01*
X0130502Y0118743D02*
X0053022Y0118743D01*
X0053022Y0119341D02*
X0129904Y0119341D01*
X0129305Y0119940D02*
X0053022Y0119940D01*
X0053022Y0120538D02*
X0128707Y0120538D01*
X0128108Y0121137D02*
X0053022Y0121137D01*
X0053022Y0121735D02*
X0127510Y0121735D01*
X0126911Y0122334D02*
X0053022Y0122334D01*
X0053022Y0122932D02*
X0126313Y0122932D01*
X0125822Y0123531D02*
X0053022Y0123531D01*
X0053022Y0124129D02*
X0125822Y0124129D01*
X0125822Y0124728D02*
X0053022Y0124728D01*
X0053022Y0125326D02*
X0125822Y0125326D01*
X0125822Y0125925D02*
X0053022Y0125925D01*
X0053022Y0126523D02*
X0125822Y0126523D01*
X0125822Y0127122D02*
X0053022Y0127122D01*
X0053022Y0127720D02*
X0125822Y0127720D01*
X0125822Y0128319D02*
X0053022Y0128319D01*
X0053022Y0128917D02*
X0125822Y0128917D01*
X0125822Y0129516D02*
X0053022Y0129516D01*
X0053022Y0130114D02*
X0125822Y0130114D01*
X0125822Y0130713D02*
X0053022Y0130713D01*
X0053022Y0131311D02*
X0125822Y0131311D01*
X0125822Y0131910D02*
X0053022Y0131910D01*
X0053022Y0132508D02*
X0125822Y0132508D01*
X0130022Y0132508D02*
X0157454Y0132508D01*
X0157969Y0131993D02*
X0159875Y0131993D01*
X0161222Y0133340D01*
X0161222Y0135246D01*
X0159875Y0136593D01*
X0157969Y0136593D01*
X0156622Y0135246D01*
X0156622Y0133340D01*
X0157969Y0131993D01*
X0156855Y0133107D02*
X0130022Y0133107D01*
X0130022Y0133705D02*
X0156622Y0133705D01*
X0156622Y0134304D02*
X0130022Y0134304D01*
X0130022Y0134902D02*
X0156622Y0134902D01*
X0156877Y0135501D02*
X0130022Y0135501D01*
X0130222Y0136099D02*
X0157476Y0136099D01*
X0160368Y0136099D02*
X0191476Y0136099D01*
X0191122Y0135746D02*
X0191122Y0133840D01*
X0192469Y0132493D01*
X0194375Y0132493D01*
X0195722Y0133840D01*
X0195722Y0135746D01*
X0194375Y0137093D01*
X0192469Y0137093D01*
X0191122Y0135746D01*
X0191122Y0135501D02*
X0160967Y0135501D01*
X0161222Y0134902D02*
X0191122Y0134902D01*
X0191122Y0134304D02*
X0161222Y0134304D01*
X0161222Y0133705D02*
X0191257Y0133705D01*
X0191855Y0133107D02*
X0160989Y0133107D01*
X0160390Y0132508D02*
X0192454Y0132508D01*
X0194390Y0132508D02*
X0219454Y0132508D01*
X0219969Y0131993D02*
X0221875Y0131993D01*
X0223222Y0133340D01*
X0223222Y0135246D01*
X0221875Y0136593D01*
X0219969Y0136593D01*
X0218622Y0135246D01*
X0218622Y0133340D01*
X0219969Y0131993D01*
X0218855Y0133107D02*
X0194989Y0133107D01*
X0195587Y0133705D02*
X0218622Y0133705D01*
X0218622Y0134304D02*
X0195722Y0134304D01*
X0195722Y0134902D02*
X0218622Y0134902D01*
X0218877Y0135501D02*
X0195722Y0135501D01*
X0195368Y0136099D02*
X0219476Y0136099D01*
X0222368Y0136099D02*
X0226363Y0136099D01*
X0226961Y0135501D02*
X0222967Y0135501D01*
X0223222Y0134902D02*
X0226779Y0134902D01*
X0226969Y0135093D02*
X0225622Y0133746D01*
X0225622Y0131840D01*
X0226969Y0130493D01*
X0228875Y0130493D01*
X0230222Y0131840D01*
X0230222Y0133746D01*
X0228875Y0135093D01*
X0226969Y0135093D01*
X0226969Y0135493D02*
X0228875Y0135493D01*
X0230222Y0136840D01*
X0230222Y0138746D01*
X0228875Y0140093D01*
X0226969Y0140093D01*
X0225622Y0138746D01*
X0225622Y0136840D01*
X0226969Y0135493D01*
X0226180Y0134304D02*
X0223222Y0134304D01*
X0223222Y0133705D02*
X0225622Y0133705D01*
X0225622Y0133107D02*
X0222989Y0133107D01*
X0222390Y0132508D02*
X0225622Y0132508D01*
X0225622Y0131910D02*
X0130022Y0131910D01*
X0130022Y0131311D02*
X0226151Y0131311D01*
X0226749Y0130713D02*
X0130022Y0130713D01*
X0130022Y0130114D02*
X0243622Y0130114D01*
X0243622Y0130246D02*
X0243622Y0128340D01*
X0244969Y0126993D01*
X0246875Y0126993D01*
X0248222Y0128340D01*
X0248222Y0130246D01*
X0246875Y0131593D01*
X0244969Y0131593D01*
X0243622Y0130246D01*
X0244089Y0130713D02*
X0229094Y0130713D01*
X0229693Y0131311D02*
X0244688Y0131311D01*
X0243622Y0129516D02*
X0130022Y0129516D01*
X0130022Y0128917D02*
X0243622Y0128917D01*
X0243643Y0128319D02*
X0130022Y0128319D01*
X0130022Y0127720D02*
X0244242Y0127720D01*
X0244840Y0127122D02*
X0130022Y0127122D01*
X0130022Y0126523D02*
X0202400Y0126523D01*
X0204444Y0126523D02*
X0289314Y0126523D01*
X0288715Y0125925D02*
X0208260Y0125925D01*
X0208858Y0125326D02*
X0288122Y0125326D01*
X0288122Y0125331D02*
X0288122Y0107755D01*
X0288883Y0106993D01*
X0291383Y0104493D01*
X0298469Y0104493D01*
X0299469Y0103493D01*
X0301375Y0103493D01*
X0302722Y0104840D01*
X0302722Y0106746D01*
X0301375Y0108093D01*
X0299469Y0108093D01*
X0298469Y0107093D01*
X0292460Y0107093D01*
X0290722Y0108831D01*
X0290722Y0124255D01*
X0293460Y0126993D01*
X0293869Y0126993D01*
X0293122Y0126246D01*
X0293122Y0124340D01*
X0294469Y0122993D01*
X0296375Y0122993D01*
X0297722Y0124340D01*
X0297722Y0126246D01*
X0296375Y0127593D01*
X0295475Y0127593D01*
X0296222Y0128340D01*
X0296222Y0129755D01*
X0299960Y0133493D01*
X0314460Y0133493D01*
X0315222Y0134255D01*
X0316960Y0135993D01*
X0317969Y0135993D01*
X0318969Y0134993D01*
X0320875Y0134993D01*
X0322222Y0136340D01*
X0322222Y0138246D01*
X0320875Y0139593D01*
X0318969Y0139593D01*
X0317969Y0138593D01*
X0315883Y0138593D01*
X0313383Y0136093D01*
X0298883Y0136093D01*
X0294383Y0131593D01*
X0292969Y0131593D01*
X0291622Y0130246D01*
X0291622Y0128831D01*
X0288122Y0125331D01*
X0288122Y0124728D02*
X0209457Y0124728D01*
X0210055Y0124129D02*
X0288122Y0124129D01*
X0288122Y0123531D02*
X0210654Y0123531D01*
X0210422Y0122293D02*
X0220922Y0122293D01*
X0220922Y0114793D01*
X0210422Y0114793D01*
X0210422Y0122293D01*
X0210422Y0121735D02*
X0220922Y0121735D01*
X0220922Y0121137D02*
X0210422Y0121137D01*
X0210422Y0120538D02*
X0220922Y0120538D01*
X0220922Y0119940D02*
X0210422Y0119940D01*
X0210422Y0119341D02*
X0220922Y0119341D01*
X0220922Y0118743D02*
X0210422Y0118743D01*
X0210422Y0118144D02*
X0220922Y0118144D01*
X0220922Y0117546D02*
X0210422Y0117546D01*
X0210422Y0116947D02*
X0220922Y0116947D01*
X0220922Y0116349D02*
X0210422Y0116349D01*
X0210422Y0115750D02*
X0220922Y0115750D01*
X0220922Y0115152D02*
X0210422Y0115152D01*
X0209222Y0115152D02*
X0053022Y0115152D01*
X0053022Y0115750D02*
X0209222Y0115750D01*
X0209222Y0116349D02*
X0053022Y0116349D01*
X0053022Y0116947D02*
X0209222Y0116947D01*
X0209222Y0117546D02*
X0194644Y0117546D01*
X0195243Y0118144D02*
X0209222Y0118144D01*
X0209222Y0118743D02*
X0195841Y0118743D01*
X0196440Y0119341D02*
X0208904Y0119341D01*
X0208305Y0119940D02*
X0197038Y0119940D01*
X0197637Y0120538D02*
X0207707Y0120538D01*
X0207108Y0121137D02*
X0198235Y0121137D01*
X0198834Y0121735D02*
X0206510Y0121735D01*
X0197084Y0125925D02*
X0130022Y0125925D01*
X0130022Y0125326D02*
X0196485Y0125326D01*
X0195887Y0124728D02*
X0130457Y0124728D01*
X0131055Y0124129D02*
X0195288Y0124129D01*
X0194690Y0123531D02*
X0131654Y0123531D01*
X0132253Y0122932D02*
X0194091Y0122932D01*
X0193493Y0122334D02*
X0132851Y0122334D01*
X0133450Y0121735D02*
X0192894Y0121735D01*
X0209222Y0114553D02*
X0053022Y0114553D01*
X0053022Y0113955D02*
X0209563Y0113955D01*
X0215743Y0110962D02*
X0202125Y0110962D01*
X0202373Y0110363D02*
X0215495Y0110363D01*
X0215284Y0109765D02*
X0202584Y0109765D01*
X0202584Y0109166D02*
X0215284Y0109166D01*
X0215284Y0108568D02*
X0202584Y0108568D01*
X0202405Y0107969D02*
X0215463Y0107969D01*
X0215711Y0107371D02*
X0202157Y0107371D01*
X0201740Y0106772D02*
X0216127Y0106772D01*
X0216726Y0106174D02*
X0201142Y0106174D01*
X0199896Y0105575D02*
X0217972Y0105575D01*
X0219896Y0105575D02*
X0227972Y0105575D01*
X0226726Y0106174D02*
X0221142Y0106174D01*
X0221740Y0106772D02*
X0226127Y0106772D01*
X0225711Y0107371D02*
X0222157Y0107371D01*
X0222405Y0107969D02*
X0225463Y0107969D01*
X0225284Y0108568D02*
X0222584Y0108568D01*
X0222584Y0109166D02*
X0225284Y0109166D01*
X0225284Y0109765D02*
X0222584Y0109765D01*
X0222373Y0110363D02*
X0225495Y0110363D01*
X0225743Y0110962D02*
X0222125Y0110962D01*
X0221663Y0111560D02*
X0226205Y0111560D01*
X0226803Y0112159D02*
X0221064Y0112159D01*
X0221781Y0113955D02*
X0234791Y0113955D01*
X0236586Y0112159D02*
X0231064Y0112159D01*
X0231663Y0111560D02*
X0236205Y0111560D01*
X0235743Y0110962D02*
X0232125Y0110962D01*
X0232373Y0110363D02*
X0235495Y0110363D01*
X0235284Y0109765D02*
X0232584Y0109765D01*
X0232584Y0109166D02*
X0235284Y0109166D01*
X0235284Y0108568D02*
X0232584Y0108568D01*
X0232405Y0107969D02*
X0235463Y0107969D01*
X0235711Y0107371D02*
X0232157Y0107371D01*
X0231740Y0106772D02*
X0236127Y0106772D01*
X0236726Y0106174D02*
X0231142Y0106174D01*
X0229896Y0105575D02*
X0237972Y0105575D01*
X0239896Y0105575D02*
X0290301Y0105575D01*
X0290900Y0104977D02*
X0049576Y0104977D01*
X0050174Y0105575D02*
X0067972Y0105575D01*
X0066726Y0106174D02*
X0050773Y0106174D01*
X0051371Y0106772D02*
X0066127Y0106772D01*
X0065711Y0107371D02*
X0051970Y0107371D01*
X0052568Y0107969D02*
X0065463Y0107969D01*
X0065284Y0108568D02*
X0053022Y0108568D01*
X0053022Y0109166D02*
X0065284Y0109166D01*
X0065284Y0109765D02*
X0053022Y0109765D01*
X0053022Y0110363D02*
X0065495Y0110363D01*
X0065743Y0110962D02*
X0053022Y0110962D01*
X0053022Y0111560D02*
X0066205Y0111560D01*
X0066803Y0112159D02*
X0053022Y0112159D01*
X0048822Y0112159D02*
X0045204Y0112159D01*
X0045204Y0111877D02*
X0044705Y0110672D01*
X0043783Y0109750D01*
X0042578Y0109251D01*
X0041274Y0109251D01*
X0040069Y0109750D01*
X0039147Y0110672D01*
X0038648Y0111877D01*
X0038648Y0113181D01*
X0039147Y0114386D01*
X0040069Y0115308D01*
X0041274Y0115807D01*
X0042578Y0115807D01*
X0043783Y0115308D01*
X0044705Y0114386D01*
X0045204Y0113181D01*
X0045204Y0111877D01*
X0045073Y0111560D02*
X0048822Y0111560D01*
X0048822Y0110962D02*
X0044825Y0110962D01*
X0044396Y0110363D02*
X0048822Y0110363D01*
X0048424Y0109765D02*
X0043797Y0109765D01*
X0043846Y0107371D02*
X0046030Y0107371D01*
X0046629Y0107969D02*
X0030810Y0107969D01*
X0030810Y0107371D02*
X0040006Y0107371D01*
X0039407Y0106772D02*
X0030810Y0106772D01*
X0030810Y0106174D02*
X0039007Y0106174D01*
X0038759Y0105575D02*
X0030810Y0105575D01*
X0030810Y0104977D02*
X0038648Y0104977D01*
X0038648Y0104378D02*
X0030810Y0104378D01*
X0030810Y0103780D02*
X0038740Y0103780D01*
X0038988Y0103181D02*
X0030810Y0103181D01*
X0030810Y0102583D02*
X0039362Y0102583D01*
X0039961Y0101984D02*
X0030810Y0101984D01*
X0030810Y0101386D02*
X0041253Y0101386D01*
X0042599Y0101386D02*
X0434530Y0101386D01*
X0434530Y0101984D02*
X0043891Y0101984D01*
X0047182Y0102583D02*
X0434530Y0102583D01*
X0434530Y0103181D02*
X0047780Y0103181D01*
X0048379Y0103780D02*
X0299182Y0103780D01*
X0298584Y0104378D02*
X0048977Y0104378D01*
X0045431Y0106772D02*
X0044444Y0106772D01*
X0047227Y0108568D02*
X0030810Y0108568D01*
X0030810Y0109166D02*
X0047826Y0109166D01*
X0048822Y0112758D02*
X0045204Y0112758D01*
X0045131Y0113356D02*
X0048822Y0113356D01*
X0048822Y0113955D02*
X0044883Y0113955D01*
X0044538Y0114553D02*
X0048822Y0114553D01*
X0048822Y0115152D02*
X0043939Y0115152D01*
X0042716Y0115750D02*
X0048822Y0115750D01*
X0048822Y0116349D02*
X0030810Y0116349D01*
X0030810Y0116947D02*
X0048822Y0116947D01*
X0048822Y0117546D02*
X0043593Y0117546D01*
X0043783Y0117624D02*
X0044705Y0118546D01*
X0045204Y0119751D01*
X0045204Y0121055D01*
X0044705Y0122260D01*
X0043783Y0123182D01*
X0042578Y0123681D01*
X0041274Y0123681D01*
X0040069Y0123182D01*
X0039147Y0122260D01*
X0038648Y0121055D01*
X0038648Y0119751D01*
X0039147Y0118546D01*
X0040069Y0117624D01*
X0041274Y0117125D01*
X0042578Y0117125D01*
X0043783Y0117624D01*
X0044302Y0118144D02*
X0048822Y0118144D01*
X0048822Y0118743D02*
X0044786Y0118743D01*
X0045034Y0119341D02*
X0048822Y0119341D01*
X0048822Y0119940D02*
X0045204Y0119940D01*
X0045204Y0120538D02*
X0048822Y0120538D01*
X0048822Y0121137D02*
X0045170Y0121137D01*
X0044922Y0121735D02*
X0048822Y0121735D01*
X0048822Y0122334D02*
X0044631Y0122334D01*
X0044033Y0122932D02*
X0048822Y0122932D01*
X0048822Y0123531D02*
X0042941Y0123531D01*
X0040911Y0123531D02*
X0030810Y0123531D01*
X0030810Y0124129D02*
X0048822Y0124129D01*
X0048822Y0124728D02*
X0030810Y0124728D01*
X0030810Y0125326D02*
X0048822Y0125326D01*
X0048822Y0125925D02*
X0030810Y0125925D01*
X0030810Y0126523D02*
X0048822Y0126523D01*
X0048822Y0127122D02*
X0030810Y0127122D01*
X0030810Y0127720D02*
X0048822Y0127720D01*
X0048822Y0128319D02*
X0030810Y0128319D01*
X0030810Y0128917D02*
X0048822Y0128917D01*
X0048822Y0129516D02*
X0030810Y0129516D01*
X0030810Y0130114D02*
X0048822Y0130114D01*
X0048822Y0130713D02*
X0030810Y0130713D01*
X0030810Y0131311D02*
X0048822Y0131311D01*
X0048822Y0131910D02*
X0030810Y0131910D01*
X0030810Y0132508D02*
X0048822Y0132508D01*
X0048822Y0133107D02*
X0030810Y0133107D01*
X0030810Y0133705D02*
X0048822Y0133705D01*
X0048822Y0134304D02*
X0030810Y0134304D01*
X0030810Y0134902D02*
X0048822Y0134902D01*
X0048822Y0135501D02*
X0030810Y0135501D01*
X0030810Y0136099D02*
X0048331Y0136099D01*
X0047732Y0136698D02*
X0030810Y0136698D01*
X0030810Y0137296D02*
X0047134Y0137296D01*
X0046535Y0137895D02*
X0030810Y0137895D01*
X0030810Y0138494D02*
X0045937Y0138494D01*
X0045338Y0139092D02*
X0030810Y0139092D01*
X0030810Y0139691D02*
X0044740Y0139691D01*
X0044141Y0140289D02*
X0030810Y0140289D01*
X0030810Y0140888D02*
X0043543Y0140888D01*
X0042944Y0141486D02*
X0030810Y0141486D01*
X0030810Y0142085D02*
X0042346Y0142085D01*
X0040098Y0142683D02*
X0030810Y0142683D01*
X0030810Y0143282D02*
X0039483Y0143282D01*
X0039038Y0143880D02*
X0030810Y0143880D01*
X0030810Y0144479D02*
X0038790Y0144479D01*
X0038648Y0145077D02*
X0030810Y0145077D01*
X0030810Y0145676D02*
X0038648Y0145676D01*
X0038709Y0146274D02*
X0030810Y0146274D01*
X0030810Y0146873D02*
X0038957Y0146873D01*
X0039287Y0147471D02*
X0030810Y0147471D01*
X0030810Y0148070D02*
X0039886Y0148070D01*
X0041071Y0148668D02*
X0030810Y0148668D01*
X0030810Y0149267D02*
X0065284Y0149267D01*
X0065284Y0149854D02*
X0065284Y0148402D01*
X0065839Y0147060D01*
X0066866Y0146033D01*
X0068208Y0145478D01*
X0069660Y0145478D01*
X0071001Y0146033D01*
X0072028Y0147060D01*
X0072584Y0148402D01*
X0072584Y0149854D01*
X0072028Y0151195D01*
X0071001Y0152222D01*
X0069660Y0152778D01*
X0068208Y0152778D01*
X0066866Y0152222D01*
X0065839Y0151195D01*
X0065284Y0149854D01*
X0065289Y0149865D02*
X0030810Y0149865D01*
X0030810Y0150464D02*
X0040324Y0150464D01*
X0040069Y0150569D02*
X0041274Y0150070D01*
X0042578Y0150070D01*
X0043783Y0150569D01*
X0044705Y0151491D01*
X0045204Y0152696D01*
X0045204Y0154000D01*
X0044705Y0155205D01*
X0043783Y0156127D01*
X0042578Y0156626D01*
X0041274Y0156626D01*
X0040069Y0156127D01*
X0039147Y0155205D01*
X0038648Y0154000D01*
X0038648Y0152696D01*
X0039147Y0151491D01*
X0040069Y0150569D01*
X0039576Y0151062D02*
X0030810Y0151062D01*
X0030810Y0151661D02*
X0039077Y0151661D01*
X0038829Y0152259D02*
X0030810Y0152259D01*
X0030810Y0152858D02*
X0038648Y0152858D01*
X0038648Y0153456D02*
X0030810Y0153456D01*
X0030810Y0154055D02*
X0038671Y0154055D01*
X0038918Y0154653D02*
X0030810Y0154653D01*
X0030810Y0155252D02*
X0039194Y0155252D01*
X0039792Y0155850D02*
X0030810Y0155850D01*
X0030810Y0156449D02*
X0040846Y0156449D01*
X0041274Y0157944D02*
X0042578Y0157944D01*
X0043783Y0158443D01*
X0044705Y0159365D01*
X0045204Y0160570D01*
X0045204Y0161874D01*
X0044705Y0163079D01*
X0043783Y0164001D01*
X0042578Y0164500D01*
X0041274Y0164500D01*
X0040069Y0164001D01*
X0039147Y0163079D01*
X0038648Y0161874D01*
X0038648Y0160570D01*
X0039147Y0159365D01*
X0040069Y0158443D01*
X0041274Y0157944D01*
X0040549Y0158244D02*
X0030810Y0158244D01*
X0030810Y0157646D02*
X0434530Y0157646D01*
X0434530Y0158244D02*
X0043303Y0158244D01*
X0044182Y0158843D02*
X0434530Y0158843D01*
X0434530Y0159441D02*
X0310323Y0159441D01*
X0309875Y0158993D02*
X0311222Y0160340D01*
X0311222Y0162246D01*
X0309875Y0163593D01*
X0307969Y0163593D01*
X0306622Y0162246D01*
X0306622Y0160340D01*
X0307969Y0158993D01*
X0309875Y0158993D01*
X0310922Y0160040D02*
X0434530Y0160040D01*
X0434530Y0160638D02*
X0311222Y0160638D01*
X0311222Y0161237D02*
X0434530Y0161237D01*
X0434530Y0161835D02*
X0311222Y0161835D01*
X0311034Y0162434D02*
X0434530Y0162434D01*
X0434530Y0163032D02*
X0310435Y0163032D01*
X0307409Y0163032D02*
X0296935Y0163032D01*
X0296375Y0163593D02*
X0294469Y0163593D01*
X0293122Y0162246D01*
X0293122Y0160340D01*
X0294469Y0158993D01*
X0296375Y0158993D01*
X0297722Y0160340D01*
X0297722Y0162246D01*
X0296375Y0163593D01*
X0297534Y0162434D02*
X0306810Y0162434D01*
X0306622Y0161835D02*
X0297722Y0161835D01*
X0297722Y0161237D02*
X0306622Y0161237D01*
X0306622Y0160638D02*
X0297722Y0160638D01*
X0297422Y0160040D02*
X0306922Y0160040D01*
X0307521Y0159441D02*
X0296823Y0159441D01*
X0294021Y0159441D02*
X0044736Y0159441D01*
X0044984Y0160040D02*
X0293422Y0160040D01*
X0293122Y0160638D02*
X0045204Y0160638D01*
X0045204Y0161237D02*
X0293122Y0161237D01*
X0293122Y0161835D02*
X0045204Y0161835D01*
X0044972Y0162434D02*
X0293310Y0162434D01*
X0293909Y0163032D02*
X0044724Y0163032D01*
X0044153Y0163631D02*
X0434530Y0163631D01*
X0434530Y0164229D02*
X0043231Y0164229D01*
X0040621Y0164229D02*
X0030810Y0164229D01*
X0030810Y0163631D02*
X0039699Y0163631D01*
X0039128Y0163032D02*
X0030810Y0163032D01*
X0030810Y0162434D02*
X0038880Y0162434D01*
X0038648Y0161835D02*
X0030810Y0161835D01*
X0030810Y0161237D02*
X0038648Y0161237D01*
X0038648Y0160638D02*
X0030810Y0160638D01*
X0030810Y0160040D02*
X0038867Y0160040D01*
X0039115Y0159441D02*
X0030810Y0159441D01*
X0030810Y0158843D02*
X0039669Y0158843D01*
X0043006Y0156449D02*
X0434530Y0156449D01*
X0434530Y0157047D02*
X0030810Y0157047D01*
X0044059Y0155850D02*
X0434530Y0155850D01*
X0434530Y0155252D02*
X0044658Y0155252D01*
X0044933Y0154653D02*
X0434530Y0154653D01*
X0434530Y0154055D02*
X0045181Y0154055D01*
X0045204Y0153456D02*
X0434530Y0153456D01*
X0434116Y0152858D02*
X0045204Y0152858D01*
X0045023Y0152259D02*
X0066956Y0152259D01*
X0066305Y0151661D02*
X0044775Y0151661D01*
X0044276Y0151062D02*
X0065784Y0151062D01*
X0065536Y0150464D02*
X0043528Y0150464D01*
X0042780Y0148668D02*
X0065284Y0148668D01*
X0065421Y0148070D02*
X0043966Y0148070D01*
X0047088Y0143282D02*
X0058463Y0143282D01*
X0059062Y0142683D02*
X0047687Y0142683D01*
X0048285Y0142085D02*
X0059660Y0142085D01*
X0060259Y0141486D02*
X0048884Y0141486D01*
X0049482Y0140888D02*
X0060857Y0140888D01*
X0061456Y0140289D02*
X0050081Y0140289D01*
X0050679Y0139691D02*
X0062055Y0139691D01*
X0062653Y0139092D02*
X0051278Y0139092D01*
X0051876Y0138494D02*
X0063252Y0138494D01*
X0063850Y0137895D02*
X0052475Y0137895D01*
X0053022Y0137296D02*
X0064449Y0137296D01*
X0065047Y0136698D02*
X0053022Y0136698D01*
X0053022Y0136099D02*
X0065646Y0136099D01*
X0066244Y0135501D02*
X0053022Y0135501D01*
X0053022Y0134902D02*
X0066843Y0134902D01*
X0067441Y0134304D02*
X0053022Y0134304D01*
X0053022Y0133705D02*
X0068040Y0133705D01*
X0068638Y0133107D02*
X0053022Y0133107D01*
X0066199Y0141486D02*
X0293122Y0141486D01*
X0293122Y0141340D02*
X0294419Y0140043D01*
X0293122Y0138746D01*
X0293122Y0136840D01*
X0294469Y0135493D01*
X0296375Y0135493D01*
X0297722Y0136840D01*
X0297722Y0138746D01*
X0296425Y0140043D01*
X0297722Y0141340D01*
X0297722Y0143246D01*
X0296425Y0144543D01*
X0297722Y0145840D01*
X0297722Y0147746D01*
X0296375Y0149093D01*
X0294469Y0149093D01*
X0293122Y0147746D01*
X0293122Y0145840D01*
X0294419Y0144543D01*
X0293122Y0143246D01*
X0293122Y0141340D01*
X0293575Y0140888D02*
X0066797Y0140888D01*
X0067396Y0140289D02*
X0294173Y0140289D01*
X0294067Y0139691D02*
X0229277Y0139691D01*
X0229876Y0139092D02*
X0293468Y0139092D01*
X0293122Y0138494D02*
X0230222Y0138494D01*
X0230222Y0137895D02*
X0293122Y0137895D01*
X0293122Y0137296D02*
X0230222Y0137296D01*
X0230080Y0136698D02*
X0293264Y0136698D01*
X0293863Y0136099D02*
X0229481Y0136099D01*
X0228883Y0135501D02*
X0294461Y0135501D01*
X0296383Y0135501D02*
X0298291Y0135501D01*
X0297693Y0134902D02*
X0229065Y0134902D01*
X0229664Y0134304D02*
X0297094Y0134304D01*
X0296496Y0133705D02*
X0230222Y0133705D01*
X0230222Y0133107D02*
X0295897Y0133107D01*
X0295299Y0132508D02*
X0230222Y0132508D01*
X0230222Y0131910D02*
X0294700Y0131910D01*
X0292688Y0131311D02*
X0247156Y0131311D01*
X0247755Y0130713D02*
X0292089Y0130713D01*
X0291622Y0130114D02*
X0248222Y0130114D01*
X0248222Y0129516D02*
X0291622Y0129516D01*
X0291622Y0128917D02*
X0248222Y0128917D01*
X0248200Y0128319D02*
X0291109Y0128319D01*
X0290511Y0127720D02*
X0247602Y0127720D01*
X0247003Y0127122D02*
X0289912Y0127122D01*
X0291794Y0125326D02*
X0293122Y0125326D01*
X0293122Y0124728D02*
X0291195Y0124728D01*
X0290722Y0124129D02*
X0293333Y0124129D01*
X0293931Y0123531D02*
X0290722Y0123531D01*
X0290722Y0122932D02*
X0422719Y0122932D01*
X0422719Y0122334D02*
X0290722Y0122334D01*
X0290722Y0121735D02*
X0422719Y0121735D01*
X0422719Y0121137D02*
X0290722Y0121137D01*
X0290722Y0120538D02*
X0422719Y0120538D01*
X0422719Y0119940D02*
X0290722Y0119940D01*
X0290722Y0119341D02*
X0422719Y0119341D01*
X0422719Y0118743D02*
X0290722Y0118743D01*
X0290722Y0118144D02*
X0422719Y0118144D01*
X0422719Y0117546D02*
X0290722Y0117546D01*
X0290722Y0116947D02*
X0422719Y0116947D01*
X0422719Y0116349D02*
X0290722Y0116349D01*
X0290722Y0115750D02*
X0422719Y0115750D01*
X0422719Y0115152D02*
X0290722Y0115152D01*
X0290722Y0114553D02*
X0423173Y0114553D01*
X0424134Y0113955D02*
X0290722Y0113955D01*
X0290722Y0113356D02*
X0425032Y0113356D01*
X0425929Y0112758D02*
X0290722Y0112758D01*
X0290722Y0112159D02*
X0426827Y0112159D01*
X0427725Y0111560D02*
X0290722Y0111560D01*
X0290722Y0110962D02*
X0428623Y0110962D01*
X0429520Y0110363D02*
X0290722Y0110363D01*
X0290722Y0109765D02*
X0430418Y0109765D01*
X0431316Y0109166D02*
X0290722Y0109166D01*
X0290985Y0108568D02*
X0432214Y0108568D01*
X0433112Y0107969D02*
X0301498Y0107969D01*
X0302097Y0107371D02*
X0434009Y0107371D01*
X0434530Y0106772D02*
X0302695Y0106772D01*
X0302722Y0106174D02*
X0434530Y0106174D01*
X0434530Y0105575D02*
X0302722Y0105575D01*
X0302722Y0104977D02*
X0434530Y0104977D01*
X0434530Y0104378D02*
X0302260Y0104378D01*
X0301661Y0103780D02*
X0434530Y0103780D01*
X0434530Y0100787D02*
X0030810Y0100787D01*
X0030810Y0100189D02*
X0247565Y0100189D01*
X0247969Y0100593D02*
X0246622Y0099246D01*
X0246622Y0097340D01*
X0247969Y0095993D01*
X0249875Y0095993D01*
X0251222Y0097340D01*
X0251222Y0099246D01*
X0249875Y0100593D01*
X0247969Y0100593D01*
X0246967Y0099590D02*
X0030810Y0099590D01*
X0030810Y0098992D02*
X0246622Y0098992D01*
X0246622Y0098393D02*
X0030810Y0098393D01*
X0030810Y0097795D02*
X0246622Y0097795D01*
X0246766Y0097196D02*
X0030810Y0097196D01*
X0030810Y0096598D02*
X0247364Y0096598D01*
X0247963Y0095999D02*
X0030810Y0095999D01*
X0030810Y0095401D02*
X0434530Y0095401D01*
X0434530Y0095999D02*
X0249881Y0095999D01*
X0250479Y0096598D02*
X0434530Y0096598D01*
X0434530Y0097196D02*
X0251078Y0097196D01*
X0251222Y0097795D02*
X0434530Y0097795D01*
X0434530Y0098393D02*
X0251222Y0098393D01*
X0251222Y0098992D02*
X0434530Y0098992D01*
X0434530Y0099590D02*
X0250877Y0099590D01*
X0250279Y0100189D02*
X0434530Y0100189D01*
X0434530Y0094802D02*
X0030810Y0094802D01*
X0030810Y0094204D02*
X0434530Y0094204D01*
X0434530Y0093605D02*
X0030810Y0093605D01*
X0030810Y0093007D02*
X0434530Y0093007D01*
X0422719Y0123531D02*
X0296912Y0123531D01*
X0297511Y0124129D02*
X0422719Y0124129D01*
X0422719Y0124728D02*
X0297722Y0124728D01*
X0297722Y0125326D02*
X0422719Y0125326D01*
X0422719Y0125925D02*
X0297722Y0125925D01*
X0297444Y0126523D02*
X0298939Y0126523D01*
X0299469Y0125993D02*
X0298122Y0127340D01*
X0298122Y0129246D01*
X0299469Y0130593D01*
X0301375Y0130593D01*
X0302722Y0129246D01*
X0302722Y0127340D01*
X0301375Y0125993D01*
X0299469Y0125993D01*
X0298340Y0127122D02*
X0296846Y0127122D01*
X0296200Y0128319D02*
X0298122Y0128319D01*
X0298122Y0128917D02*
X0296222Y0128917D01*
X0296222Y0129516D02*
X0298392Y0129516D01*
X0298991Y0130114D02*
X0296582Y0130114D01*
X0297180Y0130713D02*
X0422719Y0130713D01*
X0422719Y0131311D02*
X0297779Y0131311D01*
X0298377Y0131910D02*
X0422719Y0131910D01*
X0422719Y0132508D02*
X0298976Y0132508D01*
X0299574Y0133107D02*
X0422719Y0133107D01*
X0422719Y0133705D02*
X0314673Y0133705D01*
X0315271Y0134304D02*
X0422719Y0134304D01*
X0422719Y0134902D02*
X0315870Y0134902D01*
X0316468Y0135501D02*
X0318461Y0135501D01*
X0321383Y0135501D02*
X0422719Y0135501D01*
X0422719Y0136099D02*
X0321981Y0136099D01*
X0322222Y0136698D02*
X0422719Y0136698D01*
X0422719Y0137296D02*
X0322222Y0137296D01*
X0322222Y0137895D02*
X0422719Y0137895D01*
X0422719Y0138494D02*
X0321974Y0138494D01*
X0321376Y0139092D02*
X0422719Y0139092D01*
X0422719Y0139691D02*
X0296777Y0139691D01*
X0296671Y0140289D02*
X0422719Y0140289D01*
X0422719Y0140888D02*
X0297269Y0140888D01*
X0297722Y0141486D02*
X0422719Y0141486D01*
X0422719Y0142085D02*
X0297722Y0142085D01*
X0297722Y0142683D02*
X0422692Y0142683D01*
X0422719Y0143282D02*
X0297686Y0143282D01*
X0297087Y0143880D02*
X0423343Y0143880D01*
X0424061Y0144479D02*
X0296489Y0144479D01*
X0296959Y0145077D02*
X0424779Y0145077D01*
X0425497Y0145676D02*
X0297557Y0145676D01*
X0297722Y0146274D02*
X0426216Y0146274D01*
X0426934Y0146873D02*
X0297722Y0146873D01*
X0297722Y0147471D02*
X0427652Y0147471D01*
X0428370Y0148070D02*
X0297398Y0148070D01*
X0296799Y0148668D02*
X0429088Y0148668D01*
X0429807Y0149267D02*
X0242584Y0149267D01*
X0242584Y0149854D02*
X0242584Y0148402D01*
X0242028Y0147060D01*
X0241001Y0146033D01*
X0239660Y0145478D01*
X0238208Y0145478D01*
X0236866Y0146033D01*
X0235839Y0147060D01*
X0235284Y0148402D01*
X0235284Y0149854D01*
X0235839Y0151195D01*
X0236866Y0152222D01*
X0238208Y0152778D01*
X0239660Y0152778D01*
X0241001Y0152222D01*
X0242028Y0151195D01*
X0242584Y0149854D01*
X0242579Y0149865D02*
X0430525Y0149865D01*
X0431243Y0150464D02*
X0242331Y0150464D01*
X0242083Y0151062D02*
X0431961Y0151062D01*
X0432679Y0151661D02*
X0241562Y0151661D01*
X0240911Y0152259D02*
X0433398Y0152259D01*
X0434530Y0164828D02*
X0030810Y0164828D01*
X0030810Y0165427D02*
X0434530Y0165427D01*
X0434530Y0166025D02*
X0234968Y0166025D01*
X0234583Y0165865D02*
X0235782Y0166362D01*
X0236699Y0167280D01*
X0237196Y0168479D01*
X0237196Y0169777D01*
X0236699Y0170976D01*
X0235782Y0171893D01*
X0234583Y0172390D01*
X0233285Y0172390D01*
X0232086Y0171893D01*
X0231168Y0170976D01*
X0230672Y0169777D01*
X0230672Y0168479D01*
X0231168Y0167280D01*
X0232086Y0166362D01*
X0233285Y0165865D01*
X0234583Y0165865D01*
X0236043Y0166624D02*
X0434530Y0166624D01*
X0434530Y0167222D02*
X0236642Y0167222D01*
X0236923Y0167821D02*
X0434530Y0167821D01*
X0434530Y0168419D02*
X0237171Y0168419D01*
X0237196Y0169018D02*
X0434530Y0169018D01*
X0434530Y0169616D02*
X0237196Y0169616D01*
X0237014Y0170215D02*
X0434530Y0170215D01*
X0434530Y0170813D02*
X0236767Y0170813D01*
X0236263Y0171412D02*
X0434530Y0171412D01*
X0434530Y0172010D02*
X0235499Y0172010D01*
X0232368Y0172010D02*
X0075499Y0172010D01*
X0075782Y0171893D02*
X0074583Y0172390D01*
X0073285Y0172390D01*
X0072086Y0171893D01*
X0071168Y0170976D01*
X0070672Y0169777D01*
X0070672Y0168479D01*
X0071168Y0167280D01*
X0072086Y0166362D01*
X0073285Y0165865D01*
X0074583Y0165865D01*
X0075782Y0166362D01*
X0076699Y0167280D01*
X0077196Y0168479D01*
X0077196Y0169777D01*
X0076699Y0170976D01*
X0075782Y0171893D01*
X0076263Y0171412D02*
X0231604Y0171412D01*
X0231101Y0170813D02*
X0076767Y0170813D01*
X0077014Y0170215D02*
X0230853Y0170215D01*
X0230672Y0169616D02*
X0077196Y0169616D01*
X0077196Y0169018D02*
X0230672Y0169018D01*
X0230696Y0168419D02*
X0077171Y0168419D01*
X0076923Y0167821D02*
X0230944Y0167821D01*
X0231226Y0167222D02*
X0076642Y0167222D01*
X0076043Y0166624D02*
X0231824Y0166624D01*
X0232900Y0166025D02*
X0074968Y0166025D01*
X0072900Y0166025D02*
X0030810Y0166025D01*
X0030810Y0166624D02*
X0071824Y0166624D01*
X0071226Y0167222D02*
X0030810Y0167222D01*
X0030810Y0167821D02*
X0070944Y0167821D01*
X0070696Y0168419D02*
X0030810Y0168419D01*
X0030810Y0169018D02*
X0070672Y0169018D01*
X0070672Y0169616D02*
X0030810Y0169616D01*
X0030810Y0170215D02*
X0070853Y0170215D01*
X0071101Y0170813D02*
X0030810Y0170813D01*
X0030810Y0171412D02*
X0071604Y0171412D01*
X0072368Y0172010D02*
X0030810Y0172010D01*
X0030810Y0172609D02*
X0434530Y0172609D01*
X0434530Y0173207D02*
X0030810Y0173207D01*
X0030810Y0173806D02*
X0434530Y0173806D01*
X0434530Y0174404D02*
X0030810Y0174404D01*
X0030810Y0175003D02*
X0434530Y0175003D01*
X0434530Y0175601D02*
X0048759Y0175601D01*
X0047496Y0175078D02*
X0043836Y0175078D01*
X0040455Y0176479D01*
X0037867Y0179066D01*
X0036467Y0182447D01*
X0036467Y0186107D01*
X0037867Y0189488D01*
X0040455Y0192076D01*
X0043836Y0193476D01*
X0047496Y0193476D01*
X0050877Y0192076D01*
X0053465Y0189488D01*
X0054865Y0186107D01*
X0054865Y0182447D01*
X0053465Y0179066D01*
X0050877Y0176479D01*
X0047496Y0175078D01*
X0050204Y0176200D02*
X0434530Y0176200D01*
X0434530Y0176798D02*
X0051197Y0176798D01*
X0051795Y0177397D02*
X0434530Y0177397D01*
X0434530Y0177995D02*
X0052394Y0177995D01*
X0052992Y0178594D02*
X0434530Y0178594D01*
X0434530Y0179192D02*
X0053517Y0179192D01*
X0053765Y0179791D02*
X0434530Y0179791D01*
X0434530Y0180389D02*
X0054013Y0180389D01*
X0054261Y0180988D02*
X0434530Y0180988D01*
X0434530Y0181586D02*
X0272023Y0181586D01*
X0271632Y0181424D02*
X0273054Y0182013D01*
X0274142Y0183102D01*
X0274731Y0184523D01*
X0274731Y0186062D01*
X0274142Y0187484D01*
X0273054Y0188573D01*
X0271632Y0189161D01*
X0270093Y0189161D01*
X0268672Y0188573D01*
X0267583Y0187484D01*
X0266994Y0186062D01*
X0266994Y0184523D01*
X0267583Y0183102D01*
X0268672Y0182013D01*
X0270093Y0181424D01*
X0271632Y0181424D01*
X0273226Y0182185D02*
X0434530Y0182185D01*
X0434530Y0182783D02*
X0273824Y0182783D01*
X0274258Y0183382D02*
X0434530Y0183382D01*
X0434530Y0183980D02*
X0274506Y0183980D01*
X0274731Y0184579D02*
X0434530Y0184579D01*
X0434530Y0185177D02*
X0274731Y0185177D01*
X0274731Y0185776D02*
X0434530Y0185776D01*
X0434530Y0186374D02*
X0274602Y0186374D01*
X0274354Y0186973D02*
X0434530Y0186973D01*
X0434530Y0187571D02*
X0274055Y0187571D01*
X0273457Y0188170D02*
X0434530Y0188170D01*
X0434530Y0188768D02*
X0272581Y0188768D01*
X0269145Y0188768D02*
X0053763Y0188768D01*
X0054011Y0188170D02*
X0268269Y0188170D01*
X0267670Y0187571D02*
X0054259Y0187571D01*
X0054507Y0186973D02*
X0267371Y0186973D01*
X0267124Y0186374D02*
X0054754Y0186374D01*
X0054865Y0185776D02*
X0266994Y0185776D01*
X0266994Y0185177D02*
X0054865Y0185177D01*
X0054865Y0184579D02*
X0266994Y0184579D01*
X0267219Y0183980D02*
X0054865Y0183980D01*
X0054865Y0183382D02*
X0267467Y0183382D01*
X0267902Y0182783D02*
X0054865Y0182783D01*
X0054756Y0182185D02*
X0268500Y0182185D01*
X0269703Y0181586D02*
X0054509Y0181586D01*
X0053515Y0189367D02*
X0434530Y0189367D01*
X0434530Y0189965D02*
X0052987Y0189965D01*
X0052389Y0190564D02*
X0434530Y0190564D01*
X0434530Y0191162D02*
X0051790Y0191162D01*
X0051192Y0191761D02*
X0434530Y0191761D01*
X0434502Y0192360D02*
X0050192Y0192360D01*
X0048747Y0192958D02*
X0434443Y0192958D01*
X0434373Y0193557D02*
X0030959Y0193557D01*
X0030889Y0192958D02*
X0042585Y0192958D01*
X0041140Y0192360D02*
X0030830Y0192360D01*
X0030810Y0191761D02*
X0040140Y0191761D01*
X0039542Y0191162D02*
X0030810Y0191162D01*
X0030810Y0190564D02*
X0038943Y0190564D01*
X0038345Y0189965D02*
X0030810Y0189965D01*
X0030810Y0189367D02*
X0037817Y0189367D01*
X0037569Y0188768D02*
X0030810Y0188768D01*
X0030810Y0188170D02*
X0037321Y0188170D01*
X0037073Y0187571D02*
X0030810Y0187571D01*
X0030810Y0186973D02*
X0036825Y0186973D01*
X0036578Y0186374D02*
X0030810Y0186374D01*
X0030810Y0185776D02*
X0036467Y0185776D01*
X0036467Y0185177D02*
X0030810Y0185177D01*
X0030810Y0184579D02*
X0036467Y0184579D01*
X0036467Y0183980D02*
X0030810Y0183980D01*
X0030810Y0183382D02*
X0036467Y0183382D01*
X0036467Y0182783D02*
X0030810Y0182783D01*
X0030810Y0182185D02*
X0036576Y0182185D01*
X0036823Y0181586D02*
X0030810Y0181586D01*
X0030810Y0180988D02*
X0037071Y0180988D01*
X0037319Y0180389D02*
X0030810Y0180389D01*
X0030810Y0179791D02*
X0037567Y0179791D01*
X0037815Y0179192D02*
X0030810Y0179192D01*
X0030810Y0178594D02*
X0038340Y0178594D01*
X0038938Y0177995D02*
X0030810Y0177995D01*
X0030810Y0177397D02*
X0039537Y0177397D01*
X0040135Y0176798D02*
X0030810Y0176798D01*
X0030810Y0176200D02*
X0041128Y0176200D01*
X0042573Y0175601D02*
X0030810Y0175601D01*
X0031207Y0194155D02*
X0434125Y0194155D01*
X0433877Y0194754D02*
X0031455Y0194754D01*
X0031703Y0195352D02*
X0433629Y0195352D01*
X0433381Y0195951D02*
X0031951Y0195951D01*
X0032501Y0196549D02*
X0432831Y0196549D01*
X0432233Y0197148D02*
X0033099Y0197148D01*
X0033698Y0197746D02*
X0431634Y0197746D01*
X0430489Y0198345D02*
X0034843Y0198345D01*
X0036288Y0198943D02*
X0429044Y0198943D01*
X0318468Y0139092D02*
X0297376Y0139092D01*
X0297722Y0138494D02*
X0315784Y0138494D01*
X0315185Y0137895D02*
X0297722Y0137895D01*
X0297722Y0137296D02*
X0314587Y0137296D01*
X0313988Y0136698D02*
X0297580Y0136698D01*
X0296981Y0136099D02*
X0313390Y0136099D01*
X0302452Y0129516D02*
X0422719Y0129516D01*
X0422719Y0130114D02*
X0301853Y0130114D01*
X0302722Y0128917D02*
X0422719Y0128917D01*
X0422719Y0128319D02*
X0302722Y0128319D01*
X0302722Y0127720D02*
X0422719Y0127720D01*
X0422719Y0127122D02*
X0302503Y0127122D01*
X0301905Y0126523D02*
X0422719Y0126523D01*
X0299346Y0107969D02*
X0291584Y0107969D01*
X0292182Y0107371D02*
X0298747Y0107371D01*
X0289703Y0106174D02*
X0253055Y0106174D01*
X0252875Y0105993D02*
X0254222Y0107340D01*
X0254222Y0109246D01*
X0252875Y0110593D01*
X0250969Y0110593D01*
X0249622Y0109246D01*
X0249622Y0107340D01*
X0250969Y0105993D01*
X0252875Y0105993D01*
X0253654Y0106772D02*
X0289104Y0106772D01*
X0288505Y0107371D02*
X0254222Y0107371D01*
X0254222Y0107969D02*
X0288122Y0107969D01*
X0288122Y0108568D02*
X0254222Y0108568D01*
X0254222Y0109166D02*
X0288122Y0109166D01*
X0288122Y0109765D02*
X0253703Y0109765D01*
X0253104Y0110363D02*
X0288122Y0110363D01*
X0288122Y0110962D02*
X0242125Y0110962D01*
X0242373Y0110363D02*
X0250740Y0110363D01*
X0250141Y0109765D02*
X0242584Y0109765D01*
X0242584Y0109166D02*
X0249622Y0109166D01*
X0249622Y0108568D02*
X0242584Y0108568D01*
X0242405Y0107969D02*
X0249622Y0107969D01*
X0249622Y0107371D02*
X0242157Y0107371D01*
X0241740Y0106772D02*
X0250190Y0106772D01*
X0250788Y0106174D02*
X0241142Y0106174D01*
X0241663Y0111560D02*
X0288122Y0111560D01*
X0288122Y0112159D02*
X0241064Y0112159D01*
X0241034Y0112758D02*
X0288122Y0112758D01*
X0288122Y0113356D02*
X0241034Y0113356D01*
X0240730Y0113955D02*
X0288122Y0113955D01*
X0288122Y0114553D02*
X0240132Y0114553D01*
X0239533Y0115152D02*
X0288122Y0115152D01*
X0288122Y0115750D02*
X0238935Y0115750D01*
X0238336Y0116349D02*
X0288122Y0116349D01*
X0288122Y0116947D02*
X0237738Y0116947D01*
X0237139Y0117546D02*
X0288122Y0117546D01*
X0288122Y0118144D02*
X0236541Y0118144D01*
X0222122Y0118743D02*
X0288122Y0118743D01*
X0288122Y0119341D02*
X0222122Y0119341D01*
X0222122Y0119940D02*
X0288122Y0119940D01*
X0288122Y0120538D02*
X0222122Y0120538D01*
X0222122Y0121137D02*
X0288122Y0121137D01*
X0288122Y0121735D02*
X0222122Y0121735D01*
X0222122Y0122334D02*
X0288122Y0122334D01*
X0288122Y0122932D02*
X0221980Y0122932D01*
X0216803Y0112159D02*
X0201064Y0112159D01*
X0201663Y0111560D02*
X0216205Y0111560D01*
X0197972Y0105575D02*
X0189896Y0105575D01*
X0191142Y0106174D02*
X0196726Y0106174D01*
X0196127Y0106772D02*
X0191740Y0106772D01*
X0192157Y0107371D02*
X0195711Y0107371D01*
X0195463Y0107969D02*
X0192405Y0107969D01*
X0192584Y0108568D02*
X0195284Y0108568D01*
X0195284Y0109166D02*
X0192584Y0109166D01*
X0192584Y0109765D02*
X0195284Y0109765D01*
X0195495Y0110363D02*
X0192373Y0110363D01*
X0192125Y0110962D02*
X0195743Y0110962D01*
X0196205Y0111560D02*
X0191663Y0111560D01*
X0191064Y0112159D02*
X0196803Y0112159D01*
X0186803Y0112159D02*
X0181064Y0112159D01*
X0181663Y0111560D02*
X0186205Y0111560D01*
X0185743Y0110962D02*
X0182125Y0110962D01*
X0182373Y0110363D02*
X0185495Y0110363D01*
X0185284Y0109765D02*
X0182584Y0109765D01*
X0182584Y0109166D02*
X0185284Y0109166D01*
X0185284Y0108568D02*
X0182584Y0108568D01*
X0182405Y0107969D02*
X0185463Y0107969D01*
X0185711Y0107371D02*
X0182157Y0107371D01*
X0181740Y0106772D02*
X0186127Y0106772D01*
X0186726Y0106174D02*
X0181142Y0106174D01*
X0179896Y0105575D02*
X0187972Y0105575D01*
X0177972Y0105575D02*
X0169896Y0105575D01*
X0171142Y0106174D02*
X0176726Y0106174D01*
X0176127Y0106772D02*
X0171740Y0106772D01*
X0172157Y0107371D02*
X0175711Y0107371D01*
X0175463Y0107969D02*
X0172405Y0107969D01*
X0172584Y0108568D02*
X0175284Y0108568D01*
X0175284Y0109166D02*
X0172584Y0109166D01*
X0172584Y0109765D02*
X0175284Y0109765D01*
X0175495Y0110363D02*
X0172373Y0110363D01*
X0172125Y0110962D02*
X0175743Y0110962D01*
X0176205Y0111560D02*
X0171663Y0111560D01*
X0171064Y0112159D02*
X0176803Y0112159D01*
X0166803Y0112159D02*
X0161064Y0112159D01*
X0161663Y0111560D02*
X0166205Y0111560D01*
X0165743Y0110962D02*
X0162125Y0110962D01*
X0162373Y0110363D02*
X0165495Y0110363D01*
X0165284Y0109765D02*
X0162584Y0109765D01*
X0162584Y0109166D02*
X0165284Y0109166D01*
X0165284Y0108568D02*
X0162584Y0108568D01*
X0162405Y0107969D02*
X0165463Y0107969D01*
X0165711Y0107371D02*
X0162157Y0107371D01*
X0161740Y0106772D02*
X0166127Y0106772D01*
X0166726Y0106174D02*
X0161142Y0106174D01*
X0159896Y0105575D02*
X0167972Y0105575D01*
X0157972Y0105575D02*
X0149896Y0105575D01*
X0151142Y0106174D02*
X0156726Y0106174D01*
X0156127Y0106772D02*
X0151740Y0106772D01*
X0152157Y0107371D02*
X0155711Y0107371D01*
X0155463Y0107969D02*
X0152405Y0107969D01*
X0152584Y0108568D02*
X0155284Y0108568D01*
X0155284Y0109166D02*
X0152584Y0109166D01*
X0152584Y0109765D02*
X0155284Y0109765D01*
X0155495Y0110363D02*
X0152373Y0110363D01*
X0152125Y0110962D02*
X0155743Y0110962D01*
X0156205Y0111560D02*
X0151663Y0111560D01*
X0151064Y0112159D02*
X0156803Y0112159D01*
X0146803Y0112159D02*
X0141064Y0112159D01*
X0141663Y0111560D02*
X0146205Y0111560D01*
X0145743Y0110962D02*
X0142125Y0110962D01*
X0142373Y0110363D02*
X0145495Y0110363D01*
X0145284Y0109765D02*
X0142584Y0109765D01*
X0142584Y0109166D02*
X0145284Y0109166D01*
X0145284Y0108568D02*
X0142584Y0108568D01*
X0142405Y0107969D02*
X0145463Y0107969D01*
X0145711Y0107371D02*
X0142157Y0107371D01*
X0141740Y0106772D02*
X0146127Y0106772D01*
X0146726Y0106174D02*
X0141142Y0106174D01*
X0139896Y0105575D02*
X0147972Y0105575D01*
X0130222Y0136698D02*
X0192074Y0136698D01*
X0194770Y0136698D02*
X0225764Y0136698D01*
X0225622Y0137296D02*
X0130222Y0137296D01*
X0130073Y0137895D02*
X0225622Y0137895D01*
X0225622Y0138494D02*
X0129474Y0138494D01*
X0128876Y0139092D02*
X0225968Y0139092D01*
X0226567Y0139691D02*
X0067994Y0139691D01*
X0068593Y0139092D02*
X0126968Y0139092D01*
X0126370Y0138494D02*
X0069191Y0138494D01*
X0069790Y0137895D02*
X0125771Y0137895D01*
X0125456Y0137296D02*
X0070388Y0137296D01*
X0065600Y0142085D02*
X0293122Y0142085D01*
X0293122Y0142683D02*
X0065002Y0142683D01*
X0064403Y0143282D02*
X0293158Y0143282D01*
X0293756Y0143880D02*
X0063805Y0143880D01*
X0063206Y0144479D02*
X0294355Y0144479D01*
X0293885Y0145077D02*
X0062608Y0145077D01*
X0062009Y0145676D02*
X0067730Y0145676D01*
X0066625Y0146274D02*
X0061411Y0146274D01*
X0060812Y0146873D02*
X0066027Y0146873D01*
X0065669Y0147471D02*
X0060214Y0147471D01*
X0070138Y0145676D02*
X0077730Y0145676D01*
X0078208Y0145478D02*
X0079660Y0145478D01*
X0081001Y0146033D01*
X0082028Y0147060D01*
X0082584Y0148402D01*
X0082584Y0149854D01*
X0082028Y0151195D01*
X0081001Y0152222D01*
X0079660Y0152778D01*
X0078208Y0152778D01*
X0076866Y0152222D01*
X0075839Y0151195D01*
X0075284Y0149854D01*
X0075284Y0148402D01*
X0075839Y0147060D01*
X0076866Y0146033D01*
X0078208Y0145478D01*
X0076625Y0146274D02*
X0071242Y0146274D01*
X0071841Y0146873D02*
X0076027Y0146873D01*
X0075669Y0147471D02*
X0072198Y0147471D01*
X0072446Y0148070D02*
X0075421Y0148070D01*
X0075284Y0148668D02*
X0072584Y0148668D01*
X0072584Y0149267D02*
X0075284Y0149267D01*
X0075289Y0149865D02*
X0072579Y0149865D01*
X0072331Y0150464D02*
X0075536Y0150464D01*
X0075784Y0151062D02*
X0072083Y0151062D01*
X0071562Y0151661D02*
X0076305Y0151661D01*
X0076956Y0152259D02*
X0070911Y0152259D01*
X0080911Y0152259D02*
X0086956Y0152259D01*
X0086866Y0152222D02*
X0085839Y0151195D01*
X0085284Y0149854D01*
X0085284Y0148402D01*
X0085839Y0147060D01*
X0086866Y0146033D01*
X0088208Y0145478D01*
X0089660Y0145478D01*
X0091001Y0146033D01*
X0092028Y0147060D01*
X0092584Y0148402D01*
X0092584Y0149854D01*
X0092028Y0151195D01*
X0091001Y0152222D01*
X0089660Y0152778D01*
X0088208Y0152778D01*
X0086866Y0152222D01*
X0086305Y0151661D02*
X0081562Y0151661D01*
X0082083Y0151062D02*
X0085784Y0151062D01*
X0085536Y0150464D02*
X0082331Y0150464D01*
X0082579Y0149865D02*
X0085289Y0149865D01*
X0085284Y0149267D02*
X0082584Y0149267D01*
X0082584Y0148668D02*
X0085284Y0148668D01*
X0085421Y0148070D02*
X0082446Y0148070D01*
X0082198Y0147471D02*
X0085669Y0147471D01*
X0086027Y0146873D02*
X0081841Y0146873D01*
X0081242Y0146274D02*
X0086625Y0146274D01*
X0087730Y0145676D02*
X0080138Y0145676D01*
X0090138Y0145676D02*
X0097730Y0145676D01*
X0098208Y0145478D02*
X0096866Y0146033D01*
X0095839Y0147060D01*
X0095284Y0148402D01*
X0095284Y0149854D01*
X0095839Y0151195D01*
X0096866Y0152222D01*
X0098208Y0152778D01*
X0099660Y0152778D01*
X0101001Y0152222D01*
X0102028Y0151195D01*
X0102584Y0149854D01*
X0102584Y0148402D01*
X0102028Y0147060D01*
X0101001Y0146033D01*
X0099660Y0145478D01*
X0098208Y0145478D01*
X0096625Y0146274D02*
X0091242Y0146274D01*
X0091841Y0146873D02*
X0096027Y0146873D01*
X0095669Y0147471D02*
X0092198Y0147471D01*
X0092446Y0148070D02*
X0095421Y0148070D01*
X0095284Y0148668D02*
X0092584Y0148668D01*
X0092584Y0149267D02*
X0095284Y0149267D01*
X0095289Y0149865D02*
X0092579Y0149865D01*
X0092331Y0150464D02*
X0095536Y0150464D01*
X0095784Y0151062D02*
X0092083Y0151062D01*
X0091562Y0151661D02*
X0096305Y0151661D01*
X0096956Y0152259D02*
X0090911Y0152259D01*
X0100911Y0152259D02*
X0106956Y0152259D01*
X0106866Y0152222D02*
X0105839Y0151195D01*
X0105284Y0149854D01*
X0105284Y0148402D01*
X0105839Y0147060D01*
X0106866Y0146033D01*
X0108208Y0145478D01*
X0109660Y0145478D01*
X0111001Y0146033D01*
X0112028Y0147060D01*
X0112584Y0148402D01*
X0112584Y0149854D01*
X0112028Y0151195D01*
X0111001Y0152222D01*
X0109660Y0152778D01*
X0108208Y0152778D01*
X0106866Y0152222D01*
X0106305Y0151661D02*
X0101562Y0151661D01*
X0102083Y0151062D02*
X0105784Y0151062D01*
X0105536Y0150464D02*
X0102331Y0150464D01*
X0102579Y0149865D02*
X0105289Y0149865D01*
X0105284Y0149267D02*
X0102584Y0149267D01*
X0102584Y0148668D02*
X0105284Y0148668D01*
X0105421Y0148070D02*
X0102446Y0148070D01*
X0102198Y0147471D02*
X0105669Y0147471D01*
X0106027Y0146873D02*
X0101841Y0146873D01*
X0101242Y0146274D02*
X0106625Y0146274D01*
X0107730Y0145676D02*
X0100138Y0145676D01*
X0110138Y0145676D02*
X0117730Y0145676D01*
X0118208Y0145478D02*
X0119660Y0145478D01*
X0121001Y0146033D01*
X0122028Y0147060D01*
X0122584Y0148402D01*
X0122584Y0149854D01*
X0122028Y0151195D01*
X0121001Y0152222D01*
X0119660Y0152778D01*
X0118208Y0152778D01*
X0116866Y0152222D01*
X0115839Y0151195D01*
X0115284Y0149854D01*
X0115284Y0148402D01*
X0115839Y0147060D01*
X0116866Y0146033D01*
X0118208Y0145478D01*
X0116625Y0146274D02*
X0111242Y0146274D01*
X0111841Y0146873D02*
X0116027Y0146873D01*
X0115669Y0147471D02*
X0112198Y0147471D01*
X0112446Y0148070D02*
X0115421Y0148070D01*
X0115284Y0148668D02*
X0112584Y0148668D01*
X0112584Y0149267D02*
X0115284Y0149267D01*
X0115289Y0149865D02*
X0112579Y0149865D01*
X0112331Y0150464D02*
X0115536Y0150464D01*
X0115784Y0151062D02*
X0112083Y0151062D01*
X0111562Y0151661D02*
X0116305Y0151661D01*
X0116956Y0152259D02*
X0110911Y0152259D01*
X0120911Y0152259D02*
X0126956Y0152259D01*
X0126866Y0152222D02*
X0125839Y0151195D01*
X0125284Y0149854D01*
X0125284Y0148402D01*
X0125839Y0147060D01*
X0126866Y0146033D01*
X0128208Y0145478D01*
X0129660Y0145478D01*
X0131001Y0146033D01*
X0132028Y0147060D01*
X0132584Y0148402D01*
X0132584Y0149854D01*
X0132028Y0151195D01*
X0131001Y0152222D01*
X0129660Y0152778D01*
X0128208Y0152778D01*
X0126866Y0152222D01*
X0126305Y0151661D02*
X0121562Y0151661D01*
X0122083Y0151062D02*
X0125784Y0151062D01*
X0125536Y0150464D02*
X0122331Y0150464D01*
X0122579Y0149865D02*
X0125289Y0149865D01*
X0125284Y0149267D02*
X0122584Y0149267D01*
X0122584Y0148668D02*
X0125284Y0148668D01*
X0125421Y0148070D02*
X0122446Y0148070D01*
X0122198Y0147471D02*
X0125669Y0147471D01*
X0126027Y0146873D02*
X0121841Y0146873D01*
X0121242Y0146274D02*
X0126625Y0146274D01*
X0127730Y0145676D02*
X0120138Y0145676D01*
X0130138Y0145676D02*
X0137730Y0145676D01*
X0138208Y0145478D02*
X0139660Y0145478D01*
X0141001Y0146033D01*
X0142028Y0147060D01*
X0142584Y0148402D01*
X0142584Y0149854D01*
X0142028Y0151195D01*
X0141001Y0152222D01*
X0139660Y0152778D01*
X0138208Y0152778D01*
X0136866Y0152222D01*
X0135839Y0151195D01*
X0135284Y0149854D01*
X0135284Y0148402D01*
X0135839Y0147060D01*
X0136866Y0146033D01*
X0138208Y0145478D01*
X0136625Y0146274D02*
X0131242Y0146274D01*
X0131841Y0146873D02*
X0136027Y0146873D01*
X0135669Y0147471D02*
X0132198Y0147471D01*
X0132446Y0148070D02*
X0135421Y0148070D01*
X0135284Y0148668D02*
X0132584Y0148668D01*
X0132584Y0149267D02*
X0135284Y0149267D01*
X0135289Y0149865D02*
X0132579Y0149865D01*
X0132331Y0150464D02*
X0135536Y0150464D01*
X0135784Y0151062D02*
X0132083Y0151062D01*
X0131562Y0151661D02*
X0136305Y0151661D01*
X0136956Y0152259D02*
X0130911Y0152259D01*
X0140911Y0152259D02*
X0146956Y0152259D01*
X0146866Y0152222D02*
X0145839Y0151195D01*
X0145284Y0149854D01*
X0145284Y0148402D01*
X0145839Y0147060D01*
X0146866Y0146033D01*
X0148208Y0145478D01*
X0149660Y0145478D01*
X0151001Y0146033D01*
X0152028Y0147060D01*
X0152584Y0148402D01*
X0152584Y0149854D01*
X0152028Y0151195D01*
X0151001Y0152222D01*
X0149660Y0152778D01*
X0148208Y0152778D01*
X0146866Y0152222D01*
X0146305Y0151661D02*
X0141562Y0151661D01*
X0142083Y0151062D02*
X0145784Y0151062D01*
X0145536Y0150464D02*
X0142331Y0150464D01*
X0142579Y0149865D02*
X0145289Y0149865D01*
X0145284Y0149267D02*
X0142584Y0149267D01*
X0142584Y0148668D02*
X0145284Y0148668D01*
X0145421Y0148070D02*
X0142446Y0148070D01*
X0142198Y0147471D02*
X0145669Y0147471D01*
X0146027Y0146873D02*
X0141841Y0146873D01*
X0141242Y0146274D02*
X0146625Y0146274D01*
X0147730Y0145676D02*
X0140138Y0145676D01*
X0150138Y0145676D02*
X0157730Y0145676D01*
X0158208Y0145478D02*
X0159660Y0145478D01*
X0161001Y0146033D01*
X0162028Y0147060D01*
X0162584Y0148402D01*
X0162584Y0149854D01*
X0162028Y0151195D01*
X0161001Y0152222D01*
X0159660Y0152778D01*
X0158208Y0152778D01*
X0156866Y0152222D01*
X0155839Y0151195D01*
X0155284Y0149854D01*
X0155284Y0148402D01*
X0155839Y0147060D01*
X0156866Y0146033D01*
X0158208Y0145478D01*
X0156625Y0146274D02*
X0151242Y0146274D01*
X0151841Y0146873D02*
X0156027Y0146873D01*
X0155669Y0147471D02*
X0152198Y0147471D01*
X0152446Y0148070D02*
X0155421Y0148070D01*
X0155284Y0148668D02*
X0152584Y0148668D01*
X0152584Y0149267D02*
X0155284Y0149267D01*
X0155289Y0149865D02*
X0152579Y0149865D01*
X0152331Y0150464D02*
X0155536Y0150464D01*
X0155784Y0151062D02*
X0152083Y0151062D01*
X0151562Y0151661D02*
X0156305Y0151661D01*
X0156956Y0152259D02*
X0150911Y0152259D01*
X0160911Y0152259D02*
X0166956Y0152259D01*
X0166866Y0152222D02*
X0165839Y0151195D01*
X0165284Y0149854D01*
X0165284Y0148402D01*
X0165839Y0147060D01*
X0166866Y0146033D01*
X0168208Y0145478D01*
X0169660Y0145478D01*
X0171001Y0146033D01*
X0172028Y0147060D01*
X0172584Y0148402D01*
X0172584Y0149854D01*
X0172028Y0151195D01*
X0171001Y0152222D01*
X0169660Y0152778D01*
X0168208Y0152778D01*
X0166866Y0152222D01*
X0166305Y0151661D02*
X0161562Y0151661D01*
X0162083Y0151062D02*
X0165784Y0151062D01*
X0165536Y0150464D02*
X0162331Y0150464D01*
X0162579Y0149865D02*
X0165289Y0149865D01*
X0165284Y0149267D02*
X0162584Y0149267D01*
X0162584Y0148668D02*
X0165284Y0148668D01*
X0165421Y0148070D02*
X0162446Y0148070D01*
X0162198Y0147471D02*
X0165669Y0147471D01*
X0166027Y0146873D02*
X0161841Y0146873D01*
X0161242Y0146274D02*
X0166625Y0146274D01*
X0167730Y0145676D02*
X0160138Y0145676D01*
X0170138Y0145676D02*
X0177730Y0145676D01*
X0178208Y0145478D02*
X0179660Y0145478D01*
X0181001Y0146033D01*
X0182028Y0147060D01*
X0182584Y0148402D01*
X0182584Y0149854D01*
X0182028Y0151195D01*
X0181001Y0152222D01*
X0179660Y0152778D01*
X0178208Y0152778D01*
X0176866Y0152222D01*
X0175839Y0151195D01*
X0175284Y0149854D01*
X0175284Y0148402D01*
X0175839Y0147060D01*
X0176866Y0146033D01*
X0178208Y0145478D01*
X0176625Y0146274D02*
X0171242Y0146274D01*
X0171841Y0146873D02*
X0176027Y0146873D01*
X0175669Y0147471D02*
X0172198Y0147471D01*
X0172446Y0148070D02*
X0175421Y0148070D01*
X0175284Y0148668D02*
X0172584Y0148668D01*
X0172584Y0149267D02*
X0175284Y0149267D01*
X0175289Y0149865D02*
X0172579Y0149865D01*
X0172331Y0150464D02*
X0175536Y0150464D01*
X0175784Y0151062D02*
X0172083Y0151062D01*
X0171562Y0151661D02*
X0176305Y0151661D01*
X0176956Y0152259D02*
X0170911Y0152259D01*
X0180911Y0152259D02*
X0186956Y0152259D01*
X0186866Y0152222D02*
X0185839Y0151195D01*
X0185284Y0149854D01*
X0185284Y0148402D01*
X0185839Y0147060D01*
X0186866Y0146033D01*
X0188208Y0145478D01*
X0189660Y0145478D01*
X0191001Y0146033D01*
X0192028Y0147060D01*
X0192584Y0148402D01*
X0192584Y0149854D01*
X0192028Y0151195D01*
X0191001Y0152222D01*
X0189660Y0152778D01*
X0188208Y0152778D01*
X0186866Y0152222D01*
X0186305Y0151661D02*
X0181562Y0151661D01*
X0182083Y0151062D02*
X0185784Y0151062D01*
X0185536Y0150464D02*
X0182331Y0150464D01*
X0182579Y0149865D02*
X0185289Y0149865D01*
X0185284Y0149267D02*
X0182584Y0149267D01*
X0182584Y0148668D02*
X0185284Y0148668D01*
X0185421Y0148070D02*
X0182446Y0148070D01*
X0182198Y0147471D02*
X0185669Y0147471D01*
X0186027Y0146873D02*
X0181841Y0146873D01*
X0181242Y0146274D02*
X0186625Y0146274D01*
X0187730Y0145676D02*
X0180138Y0145676D01*
X0190138Y0145676D02*
X0197730Y0145676D01*
X0198208Y0145478D02*
X0199660Y0145478D01*
X0201001Y0146033D01*
X0202028Y0147060D01*
X0202584Y0148402D01*
X0202584Y0149854D01*
X0202028Y0151195D01*
X0201001Y0152222D01*
X0199660Y0152778D01*
X0198208Y0152778D01*
X0196866Y0152222D01*
X0195839Y0151195D01*
X0195284Y0149854D01*
X0195284Y0148402D01*
X0195839Y0147060D01*
X0196866Y0146033D01*
X0198208Y0145478D01*
X0196625Y0146274D02*
X0191242Y0146274D01*
X0191841Y0146873D02*
X0196027Y0146873D01*
X0195669Y0147471D02*
X0192198Y0147471D01*
X0192446Y0148070D02*
X0195421Y0148070D01*
X0195284Y0148668D02*
X0192584Y0148668D01*
X0192584Y0149267D02*
X0195284Y0149267D01*
X0195289Y0149865D02*
X0192579Y0149865D01*
X0192331Y0150464D02*
X0195536Y0150464D01*
X0195784Y0151062D02*
X0192083Y0151062D01*
X0191562Y0151661D02*
X0196305Y0151661D01*
X0196956Y0152259D02*
X0190911Y0152259D01*
X0200911Y0152259D02*
X0206956Y0152259D01*
X0206866Y0152222D02*
X0205839Y0151195D01*
X0205284Y0149854D01*
X0205284Y0148402D01*
X0205839Y0147060D01*
X0206866Y0146033D01*
X0208208Y0145478D01*
X0209660Y0145478D01*
X0211001Y0146033D01*
X0212028Y0147060D01*
X0212584Y0148402D01*
X0212584Y0149854D01*
X0212028Y0151195D01*
X0211001Y0152222D01*
X0209660Y0152778D01*
X0208208Y0152778D01*
X0206866Y0152222D01*
X0206305Y0151661D02*
X0201562Y0151661D01*
X0202083Y0151062D02*
X0205784Y0151062D01*
X0205536Y0150464D02*
X0202331Y0150464D01*
X0202579Y0149865D02*
X0205289Y0149865D01*
X0205284Y0149267D02*
X0202584Y0149267D01*
X0202584Y0148668D02*
X0205284Y0148668D01*
X0205421Y0148070D02*
X0202446Y0148070D01*
X0202198Y0147471D02*
X0205669Y0147471D01*
X0206027Y0146873D02*
X0201841Y0146873D01*
X0201242Y0146274D02*
X0206625Y0146274D01*
X0207730Y0145676D02*
X0200138Y0145676D01*
X0210138Y0145676D02*
X0217730Y0145676D01*
X0218208Y0145478D02*
X0219660Y0145478D01*
X0221001Y0146033D01*
X0222028Y0147060D01*
X0222584Y0148402D01*
X0222584Y0149854D01*
X0222028Y0151195D01*
X0221001Y0152222D01*
X0219660Y0152778D01*
X0218208Y0152778D01*
X0216866Y0152222D01*
X0215839Y0151195D01*
X0215284Y0149854D01*
X0215284Y0148402D01*
X0215839Y0147060D01*
X0216866Y0146033D01*
X0218208Y0145478D01*
X0216625Y0146274D02*
X0211242Y0146274D01*
X0211841Y0146873D02*
X0216027Y0146873D01*
X0215669Y0147471D02*
X0212198Y0147471D01*
X0212446Y0148070D02*
X0215421Y0148070D01*
X0215284Y0148668D02*
X0212584Y0148668D01*
X0212584Y0149267D02*
X0215284Y0149267D01*
X0215289Y0149865D02*
X0212579Y0149865D01*
X0212331Y0150464D02*
X0215536Y0150464D01*
X0215784Y0151062D02*
X0212083Y0151062D01*
X0211562Y0151661D02*
X0216305Y0151661D01*
X0216956Y0152259D02*
X0210911Y0152259D01*
X0220911Y0152259D02*
X0236956Y0152259D01*
X0236305Y0151661D02*
X0221562Y0151661D01*
X0222083Y0151062D02*
X0235784Y0151062D01*
X0235536Y0150464D02*
X0222331Y0150464D01*
X0222579Y0149865D02*
X0235289Y0149865D01*
X0235284Y0149267D02*
X0222584Y0149267D01*
X0222584Y0148668D02*
X0235284Y0148668D01*
X0235421Y0148070D02*
X0222446Y0148070D01*
X0222198Y0147471D02*
X0235669Y0147471D01*
X0236027Y0146873D02*
X0221841Y0146873D01*
X0221242Y0146274D02*
X0236625Y0146274D01*
X0237730Y0145676D02*
X0220138Y0145676D01*
X0240138Y0145676D02*
X0293287Y0145676D01*
X0293122Y0146274D02*
X0241242Y0146274D01*
X0241841Y0146873D02*
X0293122Y0146873D01*
X0293122Y0147471D02*
X0242198Y0147471D01*
X0242446Y0148070D02*
X0293446Y0148070D01*
X0294044Y0148668D02*
X0242584Y0148668D01*
X0292392Y0125925D02*
X0293122Y0125925D01*
X0292991Y0126523D02*
X0293400Y0126523D01*
X0295602Y0127720D02*
X0298122Y0127720D01*
X0041136Y0115750D02*
X0030810Y0115750D01*
X0030810Y0115152D02*
X0039912Y0115152D01*
X0039314Y0114553D02*
X0030810Y0114553D01*
X0030810Y0113955D02*
X0038968Y0113955D01*
X0038720Y0113356D02*
X0030810Y0113356D01*
X0030810Y0112758D02*
X0038648Y0112758D01*
X0038648Y0112159D02*
X0030810Y0112159D01*
X0030810Y0111560D02*
X0038779Y0111560D01*
X0039027Y0110962D02*
X0030810Y0110962D01*
X0030810Y0110363D02*
X0039456Y0110363D01*
X0040054Y0109765D02*
X0030810Y0109765D01*
X0030810Y0117546D02*
X0040259Y0117546D01*
X0039549Y0118144D02*
X0030810Y0118144D01*
X0030810Y0118743D02*
X0039066Y0118743D01*
X0038818Y0119341D02*
X0030810Y0119341D01*
X0030810Y0119940D02*
X0038648Y0119940D01*
X0038648Y0120538D02*
X0030810Y0120538D01*
X0030810Y0121137D02*
X0038682Y0121137D01*
X0038930Y0121735D02*
X0030810Y0121735D01*
X0030810Y0122334D02*
X0039221Y0122334D01*
X0039819Y0122932D02*
X0030810Y0122932D01*
D14*
X0034922Y0123293D03*
X0034922Y0133293D03*
X0034922Y0143293D03*
X0034922Y0153293D03*
X0034922Y0163293D03*
X0034922Y0173293D03*
X0034922Y0183293D03*
X0034922Y0193293D03*
X0059922Y0193293D03*
X0069922Y0193293D03*
X0079922Y0193293D03*
X0089922Y0193293D03*
X0099922Y0193293D03*
X0109922Y0193293D03*
X0119922Y0193293D03*
X0129922Y0193293D03*
X0139922Y0193293D03*
X0149922Y0193293D03*
X0159922Y0193293D03*
X0169922Y0193293D03*
X0179922Y0193293D03*
X0189922Y0193293D03*
X0199922Y0193293D03*
X0209922Y0193293D03*
X0219922Y0193293D03*
X0229922Y0193293D03*
X0239922Y0193293D03*
X0249922Y0193293D03*
X0259922Y0193293D03*
X0269922Y0193293D03*
X0279922Y0193293D03*
X0289922Y0193293D03*
X0299922Y0193293D03*
X0309922Y0193293D03*
X0319922Y0193293D03*
X0329922Y0193293D03*
X0339922Y0193293D03*
X0349922Y0193293D03*
X0359922Y0193293D03*
X0369922Y0193293D03*
X0379922Y0193293D03*
X0389922Y0193293D03*
X0399922Y0193293D03*
X0409922Y0193293D03*
X0429922Y0193293D03*
X0429922Y0173293D03*
X0429922Y0163293D03*
X0419922Y0163293D03*
X0409922Y0163293D03*
X0409922Y0153293D03*
X0419922Y0153293D03*
X0429922Y0153293D03*
X0419922Y0143293D03*
X0409922Y0143293D03*
X0409922Y0133293D03*
X0419922Y0133293D03*
X0419922Y0123293D03*
X0409922Y0123293D03*
X0399922Y0123293D03*
X0389922Y0123293D03*
X0379922Y0123293D03*
X0369922Y0123293D03*
X0359922Y0123293D03*
X0349922Y0123293D03*
X0349922Y0133293D03*
X0359922Y0133293D03*
X0369922Y0133293D03*
X0379922Y0133293D03*
X0389922Y0133293D03*
X0399922Y0133293D03*
X0379922Y0143293D03*
X0369922Y0143293D03*
X0359922Y0143293D03*
X0359922Y0153293D03*
X0369922Y0153293D03*
X0379922Y0153293D03*
X0379922Y0163293D03*
X0369922Y0163293D03*
X0359922Y0163293D03*
X0359922Y0173293D03*
X0369922Y0173293D03*
X0379922Y0173293D03*
X0379922Y0183293D03*
X0369922Y0183293D03*
X0359922Y0183293D03*
X0349922Y0183293D03*
X0339922Y0183293D03*
X0339922Y0173293D03*
X0349922Y0173293D03*
X0329922Y0173293D03*
X0319922Y0173293D03*
X0309922Y0173293D03*
X0319922Y0163293D03*
X0329922Y0163293D03*
X0329922Y0153293D03*
X0319922Y0153293D03*
X0308922Y0161293D03*
X0295422Y0161293D03*
X0289922Y0163293D03*
X0279922Y0163293D03*
X0269922Y0163293D03*
X0269922Y0173293D03*
X0279922Y0173293D03*
X0289922Y0173293D03*
X0279922Y0148793D03*
X0279922Y0143293D03*
X0269922Y0143293D03*
X0269922Y0148793D03*
X0259922Y0148793D03*
X0257422Y0146293D03*
X0259922Y0143293D03*
X0259922Y0133293D03*
X0269922Y0133293D03*
X0279922Y0133293D03*
X0293922Y0129293D03*
X0295422Y0125293D03*
X0300422Y0128293D03*
X0303922Y0127793D03*
X0306922Y0127793D03*
X0310422Y0127793D03*
X0310922Y0124793D03*
X0310422Y0121793D03*
X0307922Y0123793D03*
X0304422Y0119293D03*
X0304422Y0116293D03*
X0311422Y0115793D03*
X0311422Y0111793D03*
X0305422Y0110293D03*
X0304422Y0113293D03*
X0305422Y0106793D03*
X0303922Y0103793D03*
X0300422Y0105793D03*
X0298422Y0102793D03*
X0298922Y0099793D03*
X0298922Y0096793D03*
X0298922Y0093793D03*
X0301922Y0091293D03*
X0304922Y0090293D03*
X0308422Y0090293D03*
X0311922Y0090293D03*
X0314922Y0091293D03*
X0317922Y0093793D03*
X0317922Y0096793D03*
X0317922Y0099793D03*
X0318422Y0102793D03*
X0315422Y0103793D03*
X0312422Y0104793D03*
X0311422Y0108293D03*
X0319922Y0113293D03*
X0315422Y0116293D03*
X0316222Y0119793D03*
X0319122Y0119793D03*
X0320422Y0122293D03*
X0320422Y0125293D03*
X0323422Y0125293D03*
X0326422Y0125293D03*
X0329422Y0125293D03*
X0329422Y0133293D03*
X0326422Y0133293D03*
X0323422Y0133293D03*
X0316922Y0133293D03*
X0319922Y0137293D03*
X0319922Y0143293D03*
X0313422Y0139793D03*
X0310422Y0139793D03*
X0307922Y0137293D03*
X0295422Y0137793D03*
X0295422Y0142293D03*
X0295422Y0146793D03*
X0313922Y0127793D03*
X0296922Y0119293D03*
X0294422Y0119293D03*
X0294422Y0113293D03*
X0296922Y0113293D03*
X0289922Y0103293D03*
X0279922Y0103293D03*
X0269922Y0103293D03*
X0269922Y0113293D03*
X0279922Y0113293D03*
X0283422Y0111793D03*
X0283422Y0120293D03*
X0279922Y0123293D03*
X0269922Y0123293D03*
X0259922Y0123293D03*
X0245922Y0129293D03*
X0242422Y0125793D03*
X0239422Y0125793D03*
X0236422Y0125793D03*
X0233422Y0125793D03*
X0230422Y0125793D03*
X0227922Y0132793D03*
X0220922Y0134293D03*
X0227922Y0137793D03*
X0203422Y0124293D03*
X0211922Y0119293D03*
X0211922Y0116293D03*
X0214922Y0116293D03*
X0217922Y0116293D03*
X0193422Y0134793D03*
X0158922Y0134293D03*
X0152422Y0133793D03*
X0149422Y0133793D03*
X0138422Y0130793D03*
X0138422Y0127293D03*
X0132422Y0131793D03*
X0132422Y0134793D03*
X0127922Y0136793D03*
X0119922Y0128293D03*
X0109922Y0128293D03*
X0099922Y0128293D03*
X0089922Y0128293D03*
X0079922Y0128293D03*
X0069922Y0128293D03*
X0059922Y0128293D03*
X0034922Y0113293D03*
X0034922Y0103293D03*
X0034922Y0093293D03*
X0034922Y0083293D03*
X0034922Y0073293D03*
X0039922Y0063293D03*
X0049922Y0063293D03*
X0059922Y0063293D03*
X0069922Y0063293D03*
X0079922Y0063293D03*
X0089922Y0063293D03*
X0099922Y0063293D03*
X0109922Y0063293D03*
X0119922Y0063293D03*
X0129922Y0063293D03*
X0139922Y0063293D03*
X0149922Y0063293D03*
X0159922Y0063293D03*
X0169922Y0063293D03*
X0179922Y0063293D03*
X0189922Y0063293D03*
X0199922Y0063293D03*
X0209922Y0063293D03*
X0219922Y0063293D03*
X0229922Y0063293D03*
X0239922Y0063293D03*
X0249922Y0073293D03*
X0259922Y0073293D03*
X0269922Y0073293D03*
X0279922Y0073293D03*
X0289922Y0073293D03*
X0299922Y0073293D03*
X0309922Y0073293D03*
X0319922Y0073293D03*
X0329922Y0073293D03*
X0339922Y0073293D03*
X0349922Y0073293D03*
X0359922Y0073293D03*
X0369922Y0073293D03*
X0379922Y0073293D03*
X0379922Y0083293D03*
X0369922Y0083293D03*
X0359922Y0083293D03*
X0349922Y0083293D03*
X0339922Y0083293D03*
X0329922Y0083293D03*
X0319922Y0083293D03*
X0309922Y0083293D03*
X0299922Y0083293D03*
X0289922Y0083293D03*
X0279922Y0083293D03*
X0269922Y0083293D03*
X0259922Y0083293D03*
X0254922Y0090293D03*
X0251922Y0090293D03*
X0248922Y0090293D03*
X0249922Y0083293D03*
X0248922Y0098293D03*
X0251922Y0108293D03*
X0259922Y0113293D03*
X0279922Y0093293D03*
X0289922Y0093293D03*
X0320922Y0093293D03*
X0329922Y0093293D03*
X0339922Y0093293D03*
X0349922Y0093293D03*
X0359922Y0093293D03*
X0369922Y0093293D03*
X0379922Y0093293D03*
X0389922Y0093293D03*
X0399922Y0093293D03*
X0409922Y0093293D03*
X0419922Y0093293D03*
X0429922Y0093293D03*
X0429922Y0103293D03*
X0419922Y0103293D03*
X0409922Y0103293D03*
X0409922Y0113293D03*
X0419922Y0113293D03*
X0379922Y0113293D03*
X0369922Y0113293D03*
X0359922Y0113293D03*
X0359922Y0103293D03*
X0369922Y0103293D03*
X0379922Y0103293D03*
X0329922Y0103293D03*
X0329922Y0113293D03*
X0329922Y0143293D03*
X0429922Y0083293D03*
X0429922Y0063293D03*
X0409922Y0063293D03*
X0404922Y0063293D03*
X0394922Y0063293D03*
X0389922Y0063293D03*
X0379922Y0063293D03*
X0369922Y0063293D03*
X0359922Y0063293D03*
X0349922Y0063293D03*
X0339922Y0063293D03*
X0329922Y0063293D03*
X0319922Y0063293D03*
X0309922Y0063293D03*
X0299922Y0063293D03*
X0289922Y0063293D03*
X0279922Y0063293D03*
X0269922Y0063293D03*
X0259922Y0063293D03*
X0153422Y0119293D03*
X0160422Y0122793D03*
X0157422Y0124793D03*
D15*
X0045666Y0074041D03*
X0045666Y0184277D03*
X0419646Y0184277D03*
X0419682Y0074041D03*
D16*
X0203422Y0124293D02*
X0200922Y0124293D01*
X0127922Y0135293D02*
X0127922Y0136793D01*
D17*
X0125922Y0134793D01*
X0069922Y0134793D01*
X0059241Y0145474D01*
X0041926Y0145474D01*
X0050922Y0136478D01*
X0050922Y0109293D01*
X0046284Y0104655D01*
X0041926Y0104655D01*
X0127922Y0124293D02*
X0132922Y0119293D01*
X0153422Y0119293D01*
X0193422Y0119293D01*
X0198422Y0124293D01*
X0203422Y0124293D01*
X0206922Y0124293D01*
X0211922Y0119293D01*
X0217922Y0116293D02*
X0235422Y0116293D01*
X0238934Y0112781D01*
X0238934Y0109128D01*
X0127922Y0124293D02*
X0127922Y0135293D01*
D18*
X0289422Y0124793D02*
X0289422Y0108293D01*
X0291922Y0105793D01*
X0300422Y0105793D01*
X0289422Y0124793D02*
X0293922Y0129293D01*
X0299422Y0134793D01*
X0313922Y0134793D01*
X0316422Y0137293D01*
X0319922Y0137293D01*
M02*
