G75*
%MOIN*%
%OFA0B0*%
%FSLAX25Y25*%
%IPPOS*%
%LPD*%
%AMOC8*
5,1,8,0,0,1.08239X$1,22.5*
%
%ADD10C,0.08600*%
%ADD11C,0.06900*%
%ADD12R,0.06300X0.04600*%
%ADD13C,0.01600*%
%ADD14R,0.16000X0.16000*%
%ADD15R,0.20000X0.20000*%
%ADD16C,0.06299*%
%ADD17R,0.05906X0.07874*%
%ADD18C,0.00800*%
%ADD19C,0.02800*%
%ADD20C,0.16598*%
%ADD21C,0.01000*%
D10*
X0270863Y0185293D03*
X0284642Y0185293D03*
D11*
X0238934Y0149128D03*
X0228934Y0149128D03*
X0218934Y0149128D03*
X0208934Y0149128D03*
X0198934Y0149128D03*
X0188934Y0149128D03*
X0178934Y0149128D03*
X0168934Y0149128D03*
X0158934Y0149128D03*
X0148934Y0149128D03*
X0138934Y0149128D03*
X0128934Y0149128D03*
X0118934Y0149128D03*
X0108934Y0149128D03*
X0098934Y0149128D03*
X0088934Y0149128D03*
X0078934Y0149128D03*
X0068934Y0149128D03*
X0068934Y0109128D03*
X0078934Y0109128D03*
X0088934Y0109128D03*
X0098934Y0109128D03*
X0108934Y0109128D03*
X0118934Y0109128D03*
X0128934Y0109128D03*
X0138934Y0109128D03*
X0148934Y0109128D03*
X0158934Y0109128D03*
X0168934Y0109128D03*
X0178934Y0109128D03*
X0188934Y0109128D03*
X0198934Y0109128D03*
X0208934Y0109128D03*
X0218934Y0109128D03*
X0228934Y0109128D03*
X0238934Y0109128D03*
D12*
X0186501Y0122805D03*
X0186501Y0128805D03*
X0186501Y0134805D03*
X0314422Y0149793D03*
X0314422Y0155793D03*
X0314422Y0161793D03*
D13*
X0314422Y0155793D02*
X0314422Y0150793D01*
X0186501Y0133805D02*
X0186501Y0128805D01*
D14*
X0398028Y0129159D03*
D15*
X0398028Y0179159D03*
X0398028Y0079159D03*
D16*
X0041926Y0096781D03*
X0041926Y0104655D03*
X0041926Y0112529D03*
X0041926Y0120403D03*
X0041926Y0137600D03*
X0041926Y0145474D03*
X0041926Y0153348D03*
X0041926Y0161222D03*
D17*
X0302418Y0185293D03*
X0310418Y0185293D03*
X0318418Y0185293D03*
X0326418Y0185293D03*
X0334418Y0185293D03*
D18*
X0037784Y0059301D02*
X0036709Y0059385D01*
X0034663Y0060050D01*
X0032923Y0061314D01*
X0031659Y0063054D01*
X0030995Y0065100D01*
X0030910Y0066175D01*
X0030910Y0192159D01*
X0030995Y0193234D01*
X0031659Y0195280D01*
X0032923Y0197020D01*
X0034663Y0198284D01*
X0036709Y0198949D01*
X0037784Y0199033D01*
X0427548Y0199033D01*
X0428623Y0198949D01*
X0430669Y0198284D01*
X0432409Y0197020D01*
X0433673Y0195280D01*
X0434337Y0193234D01*
X0434422Y0192159D01*
X0434422Y0191745D01*
X0434430Y0191737D01*
X0434430Y0153250D01*
X0423257Y0143939D01*
X0423205Y0143939D01*
X0422944Y0143678D01*
X0422660Y0143442D01*
X0422656Y0143390D01*
X0422619Y0143353D01*
X0422619Y0142984D01*
X0422585Y0142617D01*
X0422619Y0142577D01*
X0422619Y0115682D01*
X0422557Y0115590D01*
X0422619Y0115281D01*
X0422619Y0114965D01*
X0422698Y0114887D01*
X0422719Y0114777D01*
X0422982Y0114603D01*
X0423205Y0114380D01*
X0423316Y0114380D01*
X0434430Y0106970D01*
X0434430Y0066597D01*
X0434422Y0066589D01*
X0434422Y0066175D01*
X0434337Y0065100D01*
X0433673Y0063054D01*
X0432409Y0061314D01*
X0430669Y0060050D01*
X0428623Y0059385D01*
X0427548Y0059301D01*
X0398051Y0059301D01*
X0399528Y0060778D01*
X0399528Y0068159D01*
X0408442Y0068159D01*
X0409028Y0068745D01*
X0409028Y0089573D01*
X0408442Y0090159D01*
X0387614Y0090159D01*
X0387028Y0089573D01*
X0387028Y0068745D01*
X0387614Y0068159D01*
X0396528Y0068159D01*
X0396528Y0062021D01*
X0395801Y0061293D01*
X0251543Y0061293D01*
X0247422Y0065414D01*
X0247422Y0096399D01*
X0247562Y0096258D01*
X0248445Y0095893D01*
X0249399Y0095893D01*
X0250281Y0096258D01*
X0250957Y0096933D01*
X0251322Y0097816D01*
X0251322Y0098770D01*
X0250957Y0099652D01*
X0250322Y0100287D01*
X0250322Y0106499D01*
X0250562Y0106258D01*
X0251445Y0105893D01*
X0252399Y0105893D01*
X0253281Y0106258D01*
X0253957Y0106933D01*
X0254322Y0107816D01*
X0254322Y0108770D01*
X0253957Y0109652D01*
X0253322Y0110287D01*
X0253322Y0147213D01*
X0256502Y0150393D01*
X0299502Y0150393D01*
X0301002Y0151893D01*
X0301022Y0151913D01*
X0301022Y0150373D01*
X0298842Y0148193D01*
X0297416Y0148193D01*
X0296781Y0148828D01*
X0295899Y0149193D01*
X0294945Y0149193D01*
X0294062Y0148828D01*
X0293387Y0148152D01*
X0293022Y0147270D01*
X0293022Y0146316D01*
X0293387Y0145433D01*
X0294062Y0144758D01*
X0294582Y0144543D01*
X0294062Y0144328D01*
X0293387Y0143652D01*
X0293022Y0142770D01*
X0293022Y0141816D01*
X0293387Y0140933D01*
X0294062Y0140258D01*
X0294582Y0140043D01*
X0294062Y0139828D01*
X0293387Y0139152D01*
X0293022Y0138270D01*
X0293022Y0137316D01*
X0293387Y0136433D01*
X0294062Y0135758D01*
X0294945Y0135393D01*
X0295899Y0135393D01*
X0296781Y0135758D01*
X0297416Y0136393D01*
X0297542Y0136393D01*
X0296522Y0135373D01*
X0296522Y0128373D01*
X0295842Y0127693D01*
X0295716Y0127693D01*
X0295957Y0127933D01*
X0296322Y0128816D01*
X0296322Y0129770D01*
X0295957Y0130652D01*
X0295281Y0131328D01*
X0294399Y0131693D01*
X0293445Y0131693D01*
X0292562Y0131328D01*
X0291887Y0130652D01*
X0291522Y0129770D01*
X0291522Y0128816D01*
X0291887Y0127933D01*
X0292562Y0127258D01*
X0293445Y0126893D01*
X0293628Y0126893D01*
X0293387Y0126652D01*
X0293022Y0125770D01*
X0293022Y0124816D01*
X0293387Y0123933D01*
X0294062Y0123258D01*
X0294945Y0122893D01*
X0295899Y0122893D01*
X0296781Y0123258D01*
X0297457Y0123933D01*
X0297822Y0124816D01*
X0297822Y0125713D01*
X0298502Y0126393D01*
X0298715Y0126606D01*
X0299062Y0126258D01*
X0299945Y0125893D01*
X0300899Y0125893D01*
X0301781Y0126258D01*
X0302457Y0126933D01*
X0302822Y0127816D01*
X0302822Y0128770D01*
X0302457Y0129652D01*
X0301822Y0130287D01*
X0301822Y0133213D01*
X0314502Y0145893D01*
X0315102Y0146493D01*
X0317986Y0146493D01*
X0318572Y0147079D01*
X0318572Y0152507D01*
X0318286Y0152793D01*
X0318572Y0153079D01*
X0318572Y0158507D01*
X0318286Y0158793D01*
X0318572Y0159079D01*
X0318572Y0164507D01*
X0317986Y0165093D01*
X0310858Y0165093D01*
X0310272Y0164507D01*
X0310272Y0163332D01*
X0309399Y0163693D01*
X0308445Y0163693D01*
X0307822Y0163435D01*
X0307822Y0174713D01*
X0308502Y0175393D01*
X0320002Y0175393D01*
X0321002Y0176393D01*
X0325002Y0176393D01*
X0325822Y0177213D01*
X0327002Y0178393D01*
X0332002Y0178393D01*
X0333965Y0180356D01*
X0337785Y0180356D01*
X0338371Y0180942D01*
X0338371Y0189644D01*
X0337785Y0190230D01*
X0331051Y0190230D01*
X0330465Y0189644D01*
X0330465Y0181193D01*
X0330371Y0181193D01*
X0330371Y0189644D01*
X0329785Y0190230D01*
X0323051Y0190230D01*
X0322465Y0189644D01*
X0322465Y0180942D01*
X0322714Y0180693D01*
X0322122Y0180693D01*
X0322371Y0180942D01*
X0322371Y0189644D01*
X0321785Y0190230D01*
X0315051Y0190230D01*
X0314465Y0189644D01*
X0314465Y0181193D01*
X0314371Y0181193D01*
X0314371Y0189644D01*
X0313785Y0190230D01*
X0309965Y0190230D01*
X0308002Y0192193D01*
X0298842Y0192193D01*
X0298022Y0191373D01*
X0297022Y0190373D01*
X0297022Y0163087D01*
X0296781Y0163328D01*
X0295899Y0163693D01*
X0294945Y0163693D01*
X0294062Y0163328D01*
X0293387Y0162652D01*
X0293022Y0161770D01*
X0293022Y0160873D01*
X0290342Y0158193D01*
X0185342Y0158193D01*
X0184522Y0157373D01*
X0182522Y0155373D01*
X0182522Y0151833D01*
X0181454Y0152900D01*
X0179819Y0153578D01*
X0178049Y0153578D01*
X0176413Y0152900D01*
X0175161Y0151648D01*
X0174484Y0150013D01*
X0174484Y0148242D01*
X0175161Y0146607D01*
X0176413Y0145355D01*
X0178049Y0144678D01*
X0179819Y0144678D01*
X0181454Y0145355D01*
X0182522Y0146423D01*
X0182522Y0144873D01*
X0177534Y0139885D01*
X0177534Y0113364D01*
X0176413Y0112900D01*
X0175161Y0111648D01*
X0174484Y0110013D01*
X0174484Y0108242D01*
X0175161Y0106607D01*
X0176413Y0105355D01*
X0178049Y0104678D01*
X0179819Y0104678D01*
X0181454Y0105355D01*
X0182706Y0106607D01*
X0183384Y0108242D01*
X0183384Y0110013D01*
X0182706Y0111648D01*
X0181454Y0112900D01*
X0180334Y0113364D01*
X0180334Y0138725D01*
X0184502Y0142893D01*
X0185322Y0143713D01*
X0185322Y0146446D01*
X0186413Y0145355D01*
X0188049Y0144678D01*
X0189819Y0144678D01*
X0191454Y0145355D01*
X0192706Y0146607D01*
X0193384Y0148242D01*
X0193384Y0150013D01*
X0192706Y0151648D01*
X0191454Y0152900D01*
X0189819Y0153578D01*
X0188049Y0153578D01*
X0186413Y0152900D01*
X0185322Y0151809D01*
X0185322Y0154213D01*
X0186502Y0155393D01*
X0291502Y0155393D01*
X0292322Y0156213D01*
X0295002Y0158893D01*
X0295899Y0158893D01*
X0296781Y0159258D01*
X0297022Y0159499D01*
X0297022Y0155873D01*
X0296342Y0155193D01*
X0254342Y0155193D01*
X0253522Y0154373D01*
X0253522Y0154373D01*
X0244522Y0145373D01*
X0244522Y0131287D01*
X0243887Y0130652D01*
X0243522Y0129770D01*
X0243522Y0128816D01*
X0243887Y0127933D01*
X0244562Y0127258D01*
X0245445Y0126893D01*
X0246399Y0126893D01*
X0247281Y0127258D01*
X0247957Y0127933D01*
X0248322Y0128816D01*
X0248322Y0129770D01*
X0247957Y0130652D01*
X0247322Y0131287D01*
X0247322Y0144213D01*
X0250522Y0147413D01*
X0250522Y0110287D01*
X0250322Y0110087D01*
X0250322Y0112873D01*
X0249502Y0113693D01*
X0244002Y0119193D01*
X0231002Y0119193D01*
X0229322Y0120873D01*
X0229322Y0130799D01*
X0229957Y0131433D01*
X0230322Y0132316D01*
X0230322Y0133270D01*
X0229957Y0134152D01*
X0244522Y0134152D01*
X0244522Y0134950D02*
X0228986Y0134950D01*
X0229281Y0134828D02*
X0228399Y0135193D01*
X0227445Y0135193D01*
X0226562Y0134828D01*
X0225887Y0134152D01*
X0223322Y0134152D01*
X0223322Y0133816D02*
X0223322Y0134770D01*
X0222957Y0135652D01*
X0222281Y0136328D01*
X0221399Y0136693D01*
X0220445Y0136693D01*
X0219562Y0136328D01*
X0218928Y0135693D01*
X0200342Y0135693D01*
X0199522Y0134873D01*
X0194854Y0130205D01*
X0190651Y0130205D01*
X0190651Y0131519D01*
X0190365Y0131805D01*
X0190651Y0132091D01*
X0190651Y0133405D01*
X0191416Y0133405D01*
X0192062Y0132758D01*
X0192945Y0132393D01*
X0193899Y0132393D01*
X0194781Y0132758D01*
X0195457Y0133433D01*
X0195822Y0134316D01*
X0195822Y0135270D01*
X0195457Y0136152D01*
X0194781Y0136828D01*
X0193899Y0137193D01*
X0192945Y0137193D01*
X0192062Y0136828D01*
X0191440Y0136205D01*
X0190651Y0136205D01*
X0190651Y0137519D01*
X0190065Y0138105D01*
X0182936Y0138105D01*
X0182351Y0137519D01*
X0182351Y0132091D01*
X0182636Y0131805D01*
X0182351Y0131519D01*
X0182351Y0126091D01*
X0182636Y0125805D01*
X0182351Y0125519D01*
X0182351Y0120091D01*
X0182936Y0119505D01*
X0190065Y0119505D01*
X0190651Y0120091D01*
X0190651Y0121305D01*
X0194055Y0121305D01*
X0201543Y0128793D01*
X0223801Y0128793D01*
X0224922Y0127672D01*
X0224922Y0118672D01*
X0225801Y0117793D01*
X0228801Y0114793D01*
X0241801Y0114793D01*
X0244422Y0112172D01*
X0244422Y0064172D01*
X0245301Y0063293D01*
X0249293Y0059301D01*
X0037784Y0059301D01*
X0035156Y0059890D02*
X0248704Y0059890D01*
X0247905Y0060689D02*
X0033785Y0060689D01*
X0032798Y0061487D02*
X0247107Y0061487D01*
X0246308Y0062286D02*
X0032218Y0062286D01*
X0031650Y0063084D02*
X0245510Y0063084D01*
X0244711Y0063883D02*
X0031390Y0063883D01*
X0031131Y0064681D02*
X0244422Y0064681D01*
X0244422Y0065480D02*
X0049297Y0065480D01*
X0050934Y0066158D02*
X0053549Y0068773D01*
X0054965Y0072191D01*
X0054965Y0075891D01*
X0053549Y0079309D01*
X0050934Y0081924D01*
X0047516Y0083340D01*
X0043816Y0083340D01*
X0040398Y0081924D01*
X0037783Y0079309D01*
X0036367Y0075891D01*
X0036367Y0072191D01*
X0037783Y0068773D01*
X0040398Y0066158D01*
X0043816Y0064742D01*
X0047516Y0064742D01*
X0050934Y0066158D01*
X0051054Y0066278D02*
X0244422Y0066278D01*
X0244422Y0067077D02*
X0051853Y0067077D01*
X0052651Y0067875D02*
X0244422Y0067875D01*
X0244422Y0068674D02*
X0053450Y0068674D01*
X0053839Y0069472D02*
X0244422Y0069472D01*
X0244422Y0070271D02*
X0054170Y0070271D01*
X0054500Y0071069D02*
X0244422Y0071069D01*
X0244422Y0071868D02*
X0054831Y0071868D01*
X0054965Y0072666D02*
X0244422Y0072666D01*
X0244422Y0073465D02*
X0054965Y0073465D01*
X0054965Y0074263D02*
X0244422Y0074263D01*
X0244422Y0075062D02*
X0054965Y0075062D01*
X0054965Y0075860D02*
X0244422Y0075860D01*
X0244422Y0076659D02*
X0054647Y0076659D01*
X0054316Y0077457D02*
X0244422Y0077457D01*
X0244422Y0078256D02*
X0053986Y0078256D01*
X0053655Y0079054D02*
X0244422Y0079054D01*
X0244422Y0079853D02*
X0053005Y0079853D01*
X0052207Y0080651D02*
X0244422Y0080651D01*
X0244422Y0081450D02*
X0051408Y0081450D01*
X0050152Y0082248D02*
X0244422Y0082248D01*
X0244422Y0083047D02*
X0048224Y0083047D01*
X0043108Y0083047D02*
X0030910Y0083047D01*
X0030910Y0083845D02*
X0244422Y0083845D01*
X0244422Y0084644D02*
X0030910Y0084644D01*
X0030910Y0085442D02*
X0244422Y0085442D01*
X0244422Y0086241D02*
X0235750Y0086241D01*
X0235838Y0086277D02*
X0236784Y0087223D01*
X0237296Y0088459D01*
X0237296Y0089796D01*
X0236784Y0091032D01*
X0244422Y0091032D01*
X0244422Y0091830D02*
X0235986Y0091830D01*
X0235838Y0091978D02*
X0234603Y0092490D01*
X0233265Y0092490D01*
X0232029Y0091978D01*
X0231083Y0091032D01*
X0076784Y0091032D01*
X0075838Y0091978D01*
X0074603Y0092490D01*
X0073265Y0092490D01*
X0072029Y0091978D01*
X0071083Y0091032D01*
X0030910Y0091032D01*
X0030910Y0091830D02*
X0071882Y0091830D01*
X0071083Y0091032D02*
X0070572Y0089796D01*
X0070572Y0088459D01*
X0071083Y0087223D01*
X0072029Y0086277D01*
X0073265Y0085765D01*
X0074603Y0085765D01*
X0075838Y0086277D01*
X0076784Y0087223D01*
X0077296Y0088459D01*
X0077296Y0089796D01*
X0076784Y0091032D01*
X0077115Y0090233D02*
X0230753Y0090233D01*
X0230572Y0089796D02*
X0230572Y0088459D01*
X0231083Y0087223D01*
X0232029Y0086277D01*
X0233265Y0085765D01*
X0234603Y0085765D01*
X0235838Y0086277D01*
X0236600Y0087039D02*
X0244422Y0087039D01*
X0244422Y0087838D02*
X0237039Y0087838D01*
X0237296Y0088636D02*
X0244422Y0088636D01*
X0244422Y0089435D02*
X0237296Y0089435D01*
X0237115Y0090233D02*
X0244422Y0090233D01*
X0244422Y0092629D02*
X0030910Y0092629D01*
X0030910Y0093427D02*
X0244422Y0093427D01*
X0244422Y0094226D02*
X0030910Y0094226D01*
X0030910Y0095025D02*
X0244422Y0095025D01*
X0244422Y0095823D02*
X0030910Y0095823D01*
X0030910Y0096622D02*
X0244422Y0096622D01*
X0244422Y0097420D02*
X0030910Y0097420D01*
X0030910Y0098219D02*
X0244422Y0098219D01*
X0244422Y0099017D02*
X0030910Y0099017D01*
X0030910Y0099816D02*
X0244422Y0099816D01*
X0244422Y0100614D02*
X0043013Y0100614D01*
X0042751Y0100506D02*
X0044276Y0101137D01*
X0045444Y0102305D01*
X0046075Y0103830D01*
X0046075Y0105481D01*
X0045444Y0107006D01*
X0044276Y0108173D01*
X0043264Y0108592D01*
X0044276Y0109011D01*
X0045444Y0110179D01*
X0046075Y0111704D01*
X0046075Y0113355D01*
X0045444Y0114880D01*
X0044276Y0116047D01*
X0043264Y0116466D01*
X0044276Y0116885D01*
X0045444Y0118053D01*
X0046075Y0119578D01*
X0046075Y0121229D01*
X0045444Y0122754D01*
X0044276Y0123921D01*
X0042751Y0124553D01*
X0041100Y0124553D01*
X0039575Y0123921D01*
X0038408Y0122754D01*
X0037776Y0121229D01*
X0037776Y0119578D01*
X0038408Y0118053D01*
X0039575Y0116885D01*
X0040587Y0116466D01*
X0039575Y0116047D01*
X0038408Y0114880D01*
X0037776Y0113355D01*
X0037776Y0111704D01*
X0038408Y0110179D01*
X0039575Y0109011D01*
X0040587Y0108592D01*
X0039575Y0108173D01*
X0038408Y0107006D01*
X0037776Y0105481D01*
X0037776Y0103830D01*
X0038408Y0102305D01*
X0039575Y0101137D01*
X0041100Y0100506D01*
X0042751Y0100506D01*
X0040838Y0100614D02*
X0030910Y0100614D01*
X0030910Y0101413D02*
X0039300Y0101413D01*
X0038502Y0102211D02*
X0030910Y0102211D01*
X0030910Y0103010D02*
X0038116Y0103010D01*
X0037785Y0103808D02*
X0030910Y0103808D01*
X0030910Y0104607D02*
X0037776Y0104607D01*
X0037776Y0105405D02*
X0030910Y0105405D01*
X0030910Y0106204D02*
X0038076Y0106204D01*
X0038407Y0107002D02*
X0030910Y0107002D01*
X0030910Y0107801D02*
X0039203Y0107801D01*
X0040570Y0108599D02*
X0030910Y0108599D01*
X0030910Y0109398D02*
X0039189Y0109398D01*
X0038401Y0110196D02*
X0030910Y0110196D01*
X0030910Y0110995D02*
X0038070Y0110995D01*
X0037776Y0111793D02*
X0030910Y0111793D01*
X0030910Y0112592D02*
X0037776Y0112592D01*
X0037791Y0113390D02*
X0030910Y0113390D01*
X0030910Y0114189D02*
X0038122Y0114189D01*
X0038516Y0114987D02*
X0030910Y0114987D01*
X0030910Y0115786D02*
X0039314Y0115786D01*
X0040302Y0116584D02*
X0030910Y0116584D01*
X0030910Y0117383D02*
X0039078Y0117383D01*
X0038355Y0118181D02*
X0030910Y0118181D01*
X0030910Y0118980D02*
X0038024Y0118980D01*
X0037776Y0119778D02*
X0030910Y0119778D01*
X0030910Y0120577D02*
X0037776Y0120577D01*
X0037837Y0121375D02*
X0030910Y0121375D01*
X0030910Y0122174D02*
X0038168Y0122174D01*
X0038627Y0122972D02*
X0030910Y0122972D01*
X0030910Y0123771D02*
X0039425Y0123771D01*
X0044427Y0123771D02*
X0177534Y0123771D01*
X0177534Y0124569D02*
X0030910Y0124569D01*
X0030910Y0125368D02*
X0177534Y0125368D01*
X0177534Y0126166D02*
X0030910Y0126166D01*
X0030910Y0126965D02*
X0177534Y0126965D01*
X0177534Y0127763D02*
X0030910Y0127763D01*
X0030910Y0128562D02*
X0177534Y0128562D01*
X0177534Y0129360D02*
X0030910Y0129360D01*
X0030910Y0130159D02*
X0177534Y0130159D01*
X0177534Y0130958D02*
X0030910Y0130958D01*
X0030910Y0131756D02*
X0177534Y0131756D01*
X0177534Y0132555D02*
X0160578Y0132555D01*
X0160281Y0132258D02*
X0160957Y0132933D01*
X0161322Y0133816D01*
X0161322Y0134770D01*
X0160957Y0135652D01*
X0160422Y0136187D01*
X0160422Y0144927D01*
X0161454Y0145355D01*
X0162706Y0146607D01*
X0163384Y0148242D01*
X0163384Y0150013D01*
X0162706Y0151648D01*
X0161454Y0152900D01*
X0159819Y0153578D01*
X0158049Y0153578D01*
X0156413Y0152900D01*
X0155161Y0151648D01*
X0154484Y0150013D01*
X0154484Y0148242D01*
X0155161Y0146607D01*
X0156413Y0145355D01*
X0157422Y0144937D01*
X0157422Y0136187D01*
X0156887Y0135652D01*
X0156522Y0134770D01*
X0156522Y0133816D01*
X0156887Y0132933D01*
X0157562Y0132258D01*
X0158445Y0131893D01*
X0159399Y0131893D01*
X0160281Y0132258D01*
X0161130Y0133353D02*
X0177534Y0133353D01*
X0177534Y0134152D02*
X0161322Y0134152D01*
X0161247Y0134950D02*
X0177534Y0134950D01*
X0177534Y0135749D02*
X0160860Y0135749D01*
X0160422Y0136547D02*
X0177534Y0136547D01*
X0177534Y0137346D02*
X0160422Y0137346D01*
X0160422Y0138144D02*
X0177534Y0138144D01*
X0177534Y0138943D02*
X0160422Y0138943D01*
X0160422Y0139741D02*
X0177534Y0139741D01*
X0178189Y0140540D02*
X0160422Y0140540D01*
X0160422Y0141338D02*
X0178987Y0141338D01*
X0179786Y0142137D02*
X0160422Y0142137D01*
X0160422Y0142935D02*
X0180584Y0142935D01*
X0181383Y0143734D02*
X0160422Y0143734D01*
X0160422Y0144532D02*
X0182181Y0144532D01*
X0182522Y0145331D02*
X0181396Y0145331D01*
X0182229Y0146129D02*
X0182522Y0146129D01*
X0183922Y0144293D02*
X0183922Y0154793D01*
X0185922Y0156793D01*
X0290922Y0156793D01*
X0295422Y0161293D01*
X0293022Y0161301D02*
X0046075Y0161301D01*
X0046075Y0162048D02*
X0045444Y0163573D01*
X0044276Y0164740D01*
X0042751Y0165372D01*
X0041100Y0165372D01*
X0039575Y0164740D01*
X0038408Y0163573D01*
X0037776Y0162048D01*
X0037776Y0160397D01*
X0038408Y0158872D01*
X0039575Y0157704D01*
X0040587Y0157285D01*
X0039575Y0156866D01*
X0038408Y0155699D01*
X0037776Y0154174D01*
X0037776Y0152523D01*
X0038408Y0150998D01*
X0039575Y0149830D01*
X0040587Y0149411D01*
X0039575Y0148992D01*
X0038408Y0147825D01*
X0037776Y0146299D01*
X0037776Y0144649D01*
X0038408Y0143124D01*
X0039575Y0141956D01*
X0041100Y0141324D01*
X0042751Y0141324D01*
X0044276Y0141956D01*
X0045444Y0143124D01*
X0046075Y0144649D01*
X0046075Y0146299D01*
X0045444Y0147825D01*
X0044276Y0148992D01*
X0043264Y0149411D01*
X0044276Y0149830D01*
X0045444Y0150998D01*
X0046075Y0152523D01*
X0046075Y0154174D01*
X0045444Y0155699D01*
X0044276Y0156866D01*
X0043264Y0157285D01*
X0044276Y0157704D01*
X0045444Y0158872D01*
X0046075Y0160397D01*
X0046075Y0162048D01*
X0046054Y0162099D02*
X0293158Y0162099D01*
X0293633Y0162898D02*
X0045723Y0162898D01*
X0045320Y0163696D02*
X0297022Y0163696D01*
X0297022Y0164495D02*
X0044521Y0164495D01*
X0042940Y0165294D02*
X0297022Y0165294D01*
X0297022Y0166092D02*
X0235391Y0166092D01*
X0235838Y0166277D02*
X0236784Y0167223D01*
X0237296Y0168459D01*
X0237296Y0169796D01*
X0236784Y0171032D01*
X0235838Y0171978D01*
X0234603Y0172490D01*
X0233265Y0172490D01*
X0232029Y0171978D01*
X0231083Y0171032D01*
X0230572Y0169796D01*
X0230572Y0168459D01*
X0231083Y0167223D01*
X0232029Y0166277D01*
X0233265Y0165765D01*
X0234603Y0165765D01*
X0235838Y0166277D01*
X0236451Y0166891D02*
X0297022Y0166891D01*
X0297022Y0167689D02*
X0236977Y0167689D01*
X0237296Y0168488D02*
X0297022Y0168488D01*
X0297022Y0169286D02*
X0237296Y0169286D01*
X0237177Y0170085D02*
X0297022Y0170085D01*
X0297022Y0170883D02*
X0236846Y0170883D01*
X0236135Y0171682D02*
X0297022Y0171682D01*
X0297022Y0172480D02*
X0234626Y0172480D01*
X0233241Y0172480D02*
X0074626Y0172480D01*
X0074603Y0172490D02*
X0073265Y0172490D01*
X0072029Y0171978D01*
X0071083Y0171032D01*
X0070572Y0169796D01*
X0070572Y0168459D01*
X0071083Y0167223D01*
X0072029Y0166277D01*
X0073265Y0165765D01*
X0074603Y0165765D01*
X0075838Y0166277D01*
X0076784Y0167223D01*
X0077296Y0168459D01*
X0077296Y0169796D01*
X0076784Y0171032D01*
X0075838Y0171978D01*
X0074603Y0172490D01*
X0073241Y0172480D02*
X0030910Y0172480D01*
X0030910Y0171682D02*
X0071733Y0171682D01*
X0071022Y0170883D02*
X0030910Y0170883D01*
X0030910Y0170085D02*
X0070691Y0170085D01*
X0070572Y0169286D02*
X0030910Y0169286D01*
X0030910Y0168488D02*
X0070572Y0168488D01*
X0070890Y0167689D02*
X0030910Y0167689D01*
X0030910Y0166891D02*
X0071416Y0166891D01*
X0072476Y0166092D02*
X0030910Y0166092D01*
X0030910Y0165294D02*
X0040912Y0165294D01*
X0039330Y0164495D02*
X0030910Y0164495D01*
X0030910Y0163696D02*
X0038532Y0163696D01*
X0038129Y0162898D02*
X0030910Y0162898D01*
X0030910Y0162099D02*
X0037798Y0162099D01*
X0037776Y0161301D02*
X0030910Y0161301D01*
X0030910Y0160502D02*
X0037776Y0160502D01*
X0038063Y0159704D02*
X0030910Y0159704D01*
X0030910Y0158905D02*
X0038394Y0158905D01*
X0039173Y0158107D02*
X0030910Y0158107D01*
X0030910Y0157308D02*
X0040531Y0157308D01*
X0039219Y0156510D02*
X0030910Y0156510D01*
X0030910Y0155711D02*
X0038421Y0155711D01*
X0038082Y0154913D02*
X0030910Y0154913D01*
X0030910Y0154114D02*
X0037776Y0154114D01*
X0037776Y0153316D02*
X0030910Y0153316D01*
X0030910Y0152517D02*
X0037778Y0152517D01*
X0038109Y0151719D02*
X0030910Y0151719D01*
X0030910Y0150920D02*
X0038485Y0150920D01*
X0039284Y0150122D02*
X0030910Y0150122D01*
X0030910Y0149323D02*
X0040375Y0149323D01*
X0039108Y0148525D02*
X0030910Y0148525D01*
X0030910Y0147726D02*
X0038367Y0147726D01*
X0038036Y0146928D02*
X0030910Y0146928D01*
X0030910Y0146129D02*
X0037776Y0146129D01*
X0037776Y0145331D02*
X0030910Y0145331D01*
X0030910Y0144532D02*
X0037824Y0144532D01*
X0038155Y0143734D02*
X0030910Y0143734D01*
X0030910Y0142935D02*
X0038596Y0142935D01*
X0039395Y0142137D02*
X0030910Y0142137D01*
X0030910Y0141338D02*
X0041067Y0141338D01*
X0042784Y0141338D02*
X0157422Y0141338D01*
X0157422Y0140540D02*
X0030910Y0140540D01*
X0030910Y0139741D02*
X0157422Y0139741D01*
X0157422Y0138943D02*
X0129004Y0138943D01*
X0129281Y0138828D02*
X0128399Y0139193D01*
X0127445Y0139193D01*
X0126562Y0138828D01*
X0125887Y0138152D01*
X0125522Y0137270D01*
X0125522Y0136316D01*
X0125887Y0135433D01*
X0126562Y0134758D01*
X0127445Y0134393D01*
X0128399Y0134393D01*
X0129281Y0134758D01*
X0129957Y0135433D01*
X0130322Y0136316D01*
X0130322Y0137270D01*
X0129957Y0138152D01*
X0129281Y0138828D01*
X0129960Y0138144D02*
X0157422Y0138144D01*
X0157422Y0137346D02*
X0130291Y0137346D01*
X0130322Y0136547D02*
X0157422Y0136547D01*
X0156983Y0135749D02*
X0130087Y0135749D01*
X0129473Y0134950D02*
X0156596Y0134950D01*
X0156522Y0134152D02*
X0030910Y0134152D01*
X0030910Y0134950D02*
X0126371Y0134950D01*
X0125757Y0135749D02*
X0030910Y0135749D01*
X0030910Y0136547D02*
X0125522Y0136547D01*
X0125553Y0137346D02*
X0030910Y0137346D01*
X0030910Y0138144D02*
X0125884Y0138144D01*
X0126840Y0138943D02*
X0030910Y0138943D01*
X0030910Y0133353D02*
X0156713Y0133353D01*
X0157266Y0132555D02*
X0030910Y0132555D01*
X0044457Y0142137D02*
X0157422Y0142137D01*
X0157422Y0142935D02*
X0045255Y0142935D01*
X0045696Y0143734D02*
X0157422Y0143734D01*
X0157422Y0144532D02*
X0046027Y0144532D01*
X0046075Y0145331D02*
X0066472Y0145331D01*
X0066413Y0145355D02*
X0068049Y0144678D01*
X0069819Y0144678D01*
X0071454Y0145355D01*
X0072706Y0146607D01*
X0073384Y0148242D01*
X0073384Y0150013D01*
X0072706Y0151648D01*
X0071454Y0152900D01*
X0069819Y0153578D01*
X0068049Y0153578D01*
X0066413Y0152900D01*
X0065161Y0151648D01*
X0064484Y0150013D01*
X0064484Y0148242D01*
X0065161Y0146607D01*
X0066413Y0145355D01*
X0065639Y0146129D02*
X0046075Y0146129D01*
X0045815Y0146928D02*
X0065028Y0146928D01*
X0064698Y0147726D02*
X0045484Y0147726D01*
X0044744Y0148525D02*
X0064484Y0148525D01*
X0064484Y0149323D02*
X0043476Y0149323D01*
X0044568Y0150122D02*
X0064529Y0150122D01*
X0064860Y0150920D02*
X0045366Y0150920D01*
X0045742Y0151719D02*
X0065232Y0151719D01*
X0066030Y0152517D02*
X0046073Y0152517D01*
X0046075Y0153316D02*
X0067417Y0153316D01*
X0070451Y0153316D02*
X0077417Y0153316D01*
X0078049Y0153578D02*
X0076413Y0152900D01*
X0075161Y0151648D01*
X0074484Y0150013D01*
X0074484Y0148242D01*
X0075161Y0146607D01*
X0076413Y0145355D01*
X0078049Y0144678D01*
X0079819Y0144678D01*
X0081454Y0145355D01*
X0082706Y0146607D01*
X0083384Y0148242D01*
X0083384Y0150013D01*
X0082706Y0151648D01*
X0081454Y0152900D01*
X0079819Y0153578D01*
X0078049Y0153578D01*
X0076030Y0152517D02*
X0071837Y0152517D01*
X0072636Y0151719D02*
X0075232Y0151719D01*
X0074860Y0150920D02*
X0073008Y0150920D01*
X0073339Y0150122D02*
X0074529Y0150122D01*
X0074484Y0149323D02*
X0073384Y0149323D01*
X0073384Y0148525D02*
X0074484Y0148525D01*
X0074698Y0147726D02*
X0073170Y0147726D01*
X0072839Y0146928D02*
X0075028Y0146928D01*
X0075639Y0146129D02*
X0072229Y0146129D01*
X0071396Y0145331D02*
X0076472Y0145331D01*
X0081396Y0145331D02*
X0086472Y0145331D01*
X0086413Y0145355D02*
X0088049Y0144678D01*
X0089819Y0144678D01*
X0091454Y0145355D01*
X0092706Y0146607D01*
X0093384Y0148242D01*
X0093384Y0150013D01*
X0092706Y0151648D01*
X0091454Y0152900D01*
X0089819Y0153578D01*
X0088049Y0153578D01*
X0086413Y0152900D01*
X0085161Y0151648D01*
X0084484Y0150013D01*
X0084484Y0148242D01*
X0085161Y0146607D01*
X0086413Y0145355D01*
X0085639Y0146129D02*
X0082229Y0146129D01*
X0082839Y0146928D02*
X0085028Y0146928D01*
X0084698Y0147726D02*
X0083170Y0147726D01*
X0083384Y0148525D02*
X0084484Y0148525D01*
X0084484Y0149323D02*
X0083384Y0149323D01*
X0083339Y0150122D02*
X0084529Y0150122D01*
X0084860Y0150920D02*
X0083008Y0150920D01*
X0082636Y0151719D02*
X0085232Y0151719D01*
X0086030Y0152517D02*
X0081837Y0152517D01*
X0080451Y0153316D02*
X0087417Y0153316D01*
X0090451Y0153316D02*
X0097417Y0153316D01*
X0098049Y0153578D02*
X0096413Y0152900D01*
X0095161Y0151648D01*
X0094484Y0150013D01*
X0094484Y0148242D01*
X0095161Y0146607D01*
X0096413Y0145355D01*
X0098049Y0144678D01*
X0099819Y0144678D01*
X0101454Y0145355D01*
X0102706Y0146607D01*
X0103384Y0148242D01*
X0103384Y0150013D01*
X0102706Y0151648D01*
X0101454Y0152900D01*
X0099819Y0153578D01*
X0098049Y0153578D01*
X0096030Y0152517D02*
X0091837Y0152517D01*
X0092636Y0151719D02*
X0095232Y0151719D01*
X0094860Y0150920D02*
X0093008Y0150920D01*
X0093339Y0150122D02*
X0094529Y0150122D01*
X0094484Y0149323D02*
X0093384Y0149323D01*
X0093384Y0148525D02*
X0094484Y0148525D01*
X0094698Y0147726D02*
X0093170Y0147726D01*
X0092839Y0146928D02*
X0095028Y0146928D01*
X0095639Y0146129D02*
X0092229Y0146129D01*
X0091396Y0145331D02*
X0096472Y0145331D01*
X0101396Y0145331D02*
X0106472Y0145331D01*
X0106413Y0145355D02*
X0108049Y0144678D01*
X0109819Y0144678D01*
X0111454Y0145355D01*
X0112706Y0146607D01*
X0113384Y0148242D01*
X0113384Y0150013D01*
X0112706Y0151648D01*
X0111454Y0152900D01*
X0109819Y0153578D01*
X0108049Y0153578D01*
X0106413Y0152900D01*
X0105161Y0151648D01*
X0104484Y0150013D01*
X0104484Y0148242D01*
X0105161Y0146607D01*
X0106413Y0145355D01*
X0105639Y0146129D02*
X0102229Y0146129D01*
X0102839Y0146928D02*
X0105028Y0146928D01*
X0104698Y0147726D02*
X0103170Y0147726D01*
X0103384Y0148525D02*
X0104484Y0148525D01*
X0104484Y0149323D02*
X0103384Y0149323D01*
X0103339Y0150122D02*
X0104529Y0150122D01*
X0104860Y0150920D02*
X0103008Y0150920D01*
X0102636Y0151719D02*
X0105232Y0151719D01*
X0106030Y0152517D02*
X0101837Y0152517D01*
X0100451Y0153316D02*
X0107417Y0153316D01*
X0110451Y0153316D02*
X0117417Y0153316D01*
X0118049Y0153578D02*
X0116413Y0152900D01*
X0115161Y0151648D01*
X0114484Y0150013D01*
X0114484Y0148242D01*
X0115161Y0146607D01*
X0116413Y0145355D01*
X0118049Y0144678D01*
X0119819Y0144678D01*
X0121454Y0145355D01*
X0122706Y0146607D01*
X0123384Y0148242D01*
X0123384Y0150013D01*
X0122706Y0151648D01*
X0121454Y0152900D01*
X0119819Y0153578D01*
X0118049Y0153578D01*
X0116030Y0152517D02*
X0111837Y0152517D01*
X0112636Y0151719D02*
X0115232Y0151719D01*
X0114860Y0150920D02*
X0113008Y0150920D01*
X0113339Y0150122D02*
X0114529Y0150122D01*
X0114484Y0149323D02*
X0113384Y0149323D01*
X0113384Y0148525D02*
X0114484Y0148525D01*
X0114698Y0147726D02*
X0113170Y0147726D01*
X0112839Y0146928D02*
X0115028Y0146928D01*
X0115639Y0146129D02*
X0112229Y0146129D01*
X0111396Y0145331D02*
X0116472Y0145331D01*
X0121396Y0145331D02*
X0126472Y0145331D01*
X0126413Y0145355D02*
X0128049Y0144678D01*
X0129819Y0144678D01*
X0131454Y0145355D01*
X0132706Y0146607D01*
X0133384Y0148242D01*
X0133384Y0150013D01*
X0132706Y0151648D01*
X0131454Y0152900D01*
X0129819Y0153578D01*
X0128049Y0153578D01*
X0126413Y0152900D01*
X0125161Y0151648D01*
X0124484Y0150013D01*
X0124484Y0148242D01*
X0125161Y0146607D01*
X0126413Y0145355D01*
X0125639Y0146129D02*
X0122229Y0146129D01*
X0122839Y0146928D02*
X0125028Y0146928D01*
X0124698Y0147726D02*
X0123170Y0147726D01*
X0123384Y0148525D02*
X0124484Y0148525D01*
X0124484Y0149323D02*
X0123384Y0149323D01*
X0123339Y0150122D02*
X0124529Y0150122D01*
X0124860Y0150920D02*
X0123008Y0150920D01*
X0122636Y0151719D02*
X0125232Y0151719D01*
X0126030Y0152517D02*
X0121837Y0152517D01*
X0120451Y0153316D02*
X0127417Y0153316D01*
X0130451Y0153316D02*
X0137417Y0153316D01*
X0138049Y0153578D02*
X0136413Y0152900D01*
X0135161Y0151648D01*
X0134484Y0150013D01*
X0134484Y0148242D01*
X0135161Y0146607D01*
X0136413Y0145355D01*
X0138049Y0144678D01*
X0139819Y0144678D01*
X0141454Y0145355D01*
X0142706Y0146607D01*
X0143384Y0148242D01*
X0143384Y0150013D01*
X0142706Y0151648D01*
X0141454Y0152900D01*
X0139819Y0153578D01*
X0138049Y0153578D01*
X0136030Y0152517D02*
X0131837Y0152517D01*
X0132636Y0151719D02*
X0135232Y0151719D01*
X0134860Y0150920D02*
X0133008Y0150920D01*
X0133339Y0150122D02*
X0134529Y0150122D01*
X0134484Y0149323D02*
X0133384Y0149323D01*
X0133384Y0148525D02*
X0134484Y0148525D01*
X0134698Y0147726D02*
X0133170Y0147726D01*
X0132839Y0146928D02*
X0135028Y0146928D01*
X0135639Y0146129D02*
X0132229Y0146129D01*
X0131396Y0145331D02*
X0136472Y0145331D01*
X0141396Y0145331D02*
X0146472Y0145331D01*
X0146413Y0145355D02*
X0148049Y0144678D01*
X0149819Y0144678D01*
X0151454Y0145355D01*
X0152706Y0146607D01*
X0153384Y0148242D01*
X0153384Y0150013D01*
X0152706Y0151648D01*
X0151454Y0152900D01*
X0149819Y0153578D01*
X0148049Y0153578D01*
X0146413Y0152900D01*
X0145161Y0151648D01*
X0144484Y0150013D01*
X0144484Y0148242D01*
X0145161Y0146607D01*
X0146413Y0145355D01*
X0145639Y0146129D02*
X0142229Y0146129D01*
X0142839Y0146928D02*
X0145028Y0146928D01*
X0144698Y0147726D02*
X0143170Y0147726D01*
X0143384Y0148525D02*
X0144484Y0148525D01*
X0144484Y0149323D02*
X0143384Y0149323D01*
X0143339Y0150122D02*
X0144529Y0150122D01*
X0144860Y0150920D02*
X0143008Y0150920D01*
X0142636Y0151719D02*
X0145232Y0151719D01*
X0146030Y0152517D02*
X0141837Y0152517D01*
X0140451Y0153316D02*
X0147417Y0153316D01*
X0150451Y0153316D02*
X0157417Y0153316D01*
X0156030Y0152517D02*
X0151837Y0152517D01*
X0152636Y0151719D02*
X0155232Y0151719D01*
X0154860Y0150920D02*
X0153008Y0150920D01*
X0153339Y0150122D02*
X0154529Y0150122D01*
X0154484Y0149323D02*
X0153384Y0149323D01*
X0153384Y0148525D02*
X0154484Y0148525D01*
X0154698Y0147726D02*
X0153170Y0147726D01*
X0152839Y0146928D02*
X0155028Y0146928D01*
X0155639Y0146129D02*
X0152229Y0146129D01*
X0151396Y0145331D02*
X0156472Y0145331D01*
X0161396Y0145331D02*
X0166472Y0145331D01*
X0166413Y0145355D02*
X0168049Y0144678D01*
X0169819Y0144678D01*
X0171454Y0145355D01*
X0172706Y0146607D01*
X0173384Y0148242D01*
X0173384Y0150013D01*
X0172706Y0151648D01*
X0171454Y0152900D01*
X0169819Y0153578D01*
X0168049Y0153578D01*
X0166413Y0152900D01*
X0165161Y0151648D01*
X0164484Y0150013D01*
X0164484Y0148242D01*
X0165161Y0146607D01*
X0166413Y0145355D01*
X0165639Y0146129D02*
X0162229Y0146129D01*
X0162839Y0146928D02*
X0165028Y0146928D01*
X0164698Y0147726D02*
X0163170Y0147726D01*
X0163384Y0148525D02*
X0164484Y0148525D01*
X0164484Y0149323D02*
X0163384Y0149323D01*
X0163339Y0150122D02*
X0164529Y0150122D01*
X0164860Y0150920D02*
X0163008Y0150920D01*
X0162636Y0151719D02*
X0165232Y0151719D01*
X0166030Y0152517D02*
X0161837Y0152517D01*
X0160451Y0153316D02*
X0167417Y0153316D01*
X0170451Y0153316D02*
X0177417Y0153316D01*
X0176030Y0152517D02*
X0171837Y0152517D01*
X0172636Y0151719D02*
X0175232Y0151719D01*
X0174860Y0150920D02*
X0173008Y0150920D01*
X0173339Y0150122D02*
X0174529Y0150122D01*
X0174484Y0149323D02*
X0173384Y0149323D01*
X0173384Y0148525D02*
X0174484Y0148525D01*
X0174698Y0147726D02*
X0173170Y0147726D01*
X0172839Y0146928D02*
X0175028Y0146928D01*
X0175639Y0146129D02*
X0172229Y0146129D01*
X0171396Y0145331D02*
X0176472Y0145331D01*
X0178934Y0139305D02*
X0183922Y0144293D01*
X0185322Y0144532D02*
X0219061Y0144532D01*
X0218916Y0144678D02*
X0225522Y0138072D01*
X0225522Y0137316D01*
X0225887Y0136433D01*
X0226562Y0135758D01*
X0227445Y0135393D01*
X0228399Y0135393D01*
X0229281Y0135758D01*
X0229957Y0136433D01*
X0230322Y0137316D01*
X0230322Y0138270D01*
X0229957Y0139152D01*
X0229281Y0139828D01*
X0228399Y0140193D01*
X0227643Y0140193D01*
X0221968Y0145868D01*
X0222706Y0146607D01*
X0223384Y0148242D01*
X0223384Y0150013D01*
X0222706Y0151648D01*
X0221454Y0152900D01*
X0219819Y0153578D01*
X0218049Y0153578D01*
X0216413Y0152900D01*
X0215161Y0151648D01*
X0214484Y0150013D01*
X0214484Y0148242D01*
X0215161Y0146607D01*
X0216413Y0145355D01*
X0218049Y0144678D01*
X0218916Y0144678D01*
X0219860Y0143734D02*
X0185322Y0143734D01*
X0184544Y0142935D02*
X0220658Y0142935D01*
X0221457Y0142137D02*
X0183745Y0142137D01*
X0182947Y0141338D02*
X0222255Y0141338D01*
X0223054Y0140540D02*
X0182148Y0140540D01*
X0181350Y0139741D02*
X0223852Y0139741D01*
X0224651Y0138943D02*
X0180551Y0138943D01*
X0180334Y0138144D02*
X0225449Y0138144D01*
X0225522Y0137346D02*
X0190651Y0137346D01*
X0190651Y0136547D02*
X0191782Y0136547D01*
X0193434Y0134805D02*
X0193422Y0134793D01*
X0193434Y0134805D02*
X0186501Y0134805D01*
X0182351Y0134950D02*
X0180334Y0134950D01*
X0180334Y0134152D02*
X0182351Y0134152D01*
X0182351Y0133353D02*
X0180334Y0133353D01*
X0180334Y0132555D02*
X0182351Y0132555D01*
X0182588Y0131756D02*
X0180334Y0131756D01*
X0180334Y0130958D02*
X0182351Y0130958D01*
X0182351Y0130159D02*
X0180334Y0130159D01*
X0180334Y0129360D02*
X0182351Y0129360D01*
X0182351Y0128562D02*
X0180334Y0128562D01*
X0180334Y0127763D02*
X0182351Y0127763D01*
X0182351Y0126965D02*
X0180334Y0126965D01*
X0180334Y0126166D02*
X0182351Y0126166D01*
X0182351Y0125368D02*
X0180334Y0125368D01*
X0180334Y0124569D02*
X0182351Y0124569D01*
X0182351Y0123771D02*
X0180334Y0123771D01*
X0180334Y0122972D02*
X0182351Y0122972D01*
X0182351Y0122174D02*
X0180334Y0122174D01*
X0180334Y0121375D02*
X0182351Y0121375D01*
X0182351Y0120577D02*
X0180334Y0120577D01*
X0180334Y0119778D02*
X0182663Y0119778D01*
X0180334Y0118980D02*
X0209522Y0118980D01*
X0209522Y0118816D02*
X0209887Y0117933D01*
X0210028Y0117793D01*
X0209887Y0117652D01*
X0209522Y0116770D01*
X0209522Y0115816D01*
X0209887Y0114933D01*
X0210562Y0114258D01*
X0211445Y0113893D01*
X0212399Y0113893D01*
X0213281Y0114258D01*
X0213422Y0114399D01*
X0213562Y0114258D01*
X0214445Y0113893D01*
X0215399Y0113893D01*
X0216281Y0114258D01*
X0216422Y0114399D01*
X0216562Y0114258D01*
X0217445Y0113893D01*
X0218399Y0113893D01*
X0219281Y0114258D01*
X0219957Y0114933D01*
X0220322Y0115816D01*
X0220322Y0116770D01*
X0219957Y0117652D01*
X0219281Y0118328D01*
X0218399Y0118693D01*
X0217445Y0118693D01*
X0216562Y0118328D01*
X0216422Y0118187D01*
X0216281Y0118328D01*
X0215399Y0118693D01*
X0214445Y0118693D01*
X0214235Y0118606D01*
X0214322Y0118816D01*
X0214322Y0119770D01*
X0213957Y0120652D01*
X0213281Y0121328D01*
X0212399Y0121693D01*
X0211445Y0121693D01*
X0210562Y0121328D01*
X0209887Y0120652D01*
X0209522Y0119770D01*
X0209522Y0118816D01*
X0209785Y0118181D02*
X0180334Y0118181D01*
X0180334Y0117383D02*
X0209776Y0117383D01*
X0209522Y0116584D02*
X0180334Y0116584D01*
X0180334Y0115786D02*
X0209534Y0115786D01*
X0209865Y0114987D02*
X0180334Y0114987D01*
X0180334Y0114189D02*
X0210730Y0114189D01*
X0213113Y0114189D02*
X0213730Y0114189D01*
X0216113Y0114189D02*
X0216730Y0114189D01*
X0217596Y0113390D02*
X0200271Y0113390D01*
X0199819Y0113578D02*
X0198049Y0113578D01*
X0196413Y0112900D01*
X0195161Y0111648D01*
X0194484Y0110013D01*
X0194484Y0108242D01*
X0195161Y0106607D01*
X0196413Y0105355D01*
X0198049Y0104678D01*
X0199819Y0104678D01*
X0201454Y0105355D01*
X0202706Y0106607D01*
X0203384Y0108242D01*
X0203384Y0110013D01*
X0202706Y0111648D01*
X0201454Y0112900D01*
X0199819Y0113578D01*
X0201763Y0112592D02*
X0216105Y0112592D01*
X0216413Y0112900D02*
X0215161Y0111648D01*
X0214484Y0110013D01*
X0214484Y0108242D01*
X0215161Y0106607D01*
X0216413Y0105355D01*
X0218049Y0104678D01*
X0219819Y0104678D01*
X0221454Y0105355D01*
X0222706Y0106607D01*
X0223384Y0108242D01*
X0223384Y0110013D01*
X0222706Y0111648D01*
X0221454Y0112900D01*
X0219819Y0113578D01*
X0218049Y0113578D01*
X0216413Y0112900D01*
X0215306Y0111793D02*
X0202561Y0111793D01*
X0202977Y0110995D02*
X0214890Y0110995D01*
X0214560Y0110196D02*
X0203308Y0110196D01*
X0203384Y0109398D02*
X0214484Y0109398D01*
X0214484Y0108599D02*
X0203384Y0108599D01*
X0203201Y0107801D02*
X0214667Y0107801D01*
X0214997Y0107002D02*
X0202870Y0107002D01*
X0202303Y0106204D02*
X0215564Y0106204D01*
X0216363Y0105405D02*
X0201504Y0105405D01*
X0196363Y0105405D02*
X0191504Y0105405D01*
X0191454Y0105355D02*
X0192706Y0106607D01*
X0193384Y0108242D01*
X0193384Y0110013D01*
X0192706Y0111648D01*
X0191454Y0112900D01*
X0189819Y0113578D01*
X0188049Y0113578D01*
X0186413Y0112900D01*
X0185161Y0111648D01*
X0184484Y0110013D01*
X0184484Y0108242D01*
X0185161Y0106607D01*
X0186413Y0105355D01*
X0188049Y0104678D01*
X0189819Y0104678D01*
X0191454Y0105355D01*
X0192303Y0106204D02*
X0195564Y0106204D01*
X0194997Y0107002D02*
X0192870Y0107002D01*
X0193201Y0107801D02*
X0194667Y0107801D01*
X0194484Y0108599D02*
X0193384Y0108599D01*
X0193384Y0109398D02*
X0194484Y0109398D01*
X0194560Y0110196D02*
X0193308Y0110196D01*
X0192977Y0110995D02*
X0194890Y0110995D01*
X0195306Y0111793D02*
X0192561Y0111793D01*
X0191763Y0112592D02*
X0196105Y0112592D01*
X0197596Y0113390D02*
X0190271Y0113390D01*
X0187596Y0113390D02*
X0180334Y0113390D01*
X0181763Y0112592D02*
X0186105Y0112592D01*
X0185306Y0111793D02*
X0182561Y0111793D01*
X0182977Y0110995D02*
X0184890Y0110995D01*
X0184560Y0110196D02*
X0183308Y0110196D01*
X0183384Y0109398D02*
X0184484Y0109398D01*
X0184484Y0108599D02*
X0183384Y0108599D01*
X0183201Y0107801D02*
X0184667Y0107801D01*
X0184997Y0107002D02*
X0182870Y0107002D01*
X0182303Y0106204D02*
X0185564Y0106204D01*
X0186363Y0105405D02*
X0181504Y0105405D01*
X0178934Y0109128D02*
X0178934Y0139305D01*
X0180334Y0137346D02*
X0182351Y0137346D01*
X0182351Y0136547D02*
X0180334Y0136547D01*
X0180334Y0135749D02*
X0182351Y0135749D01*
X0190651Y0133353D02*
X0191468Y0133353D01*
X0190651Y0132555D02*
X0192554Y0132555D01*
X0194289Y0132555D02*
X0197204Y0132555D01*
X0198002Y0133353D02*
X0195376Y0133353D01*
X0195754Y0134152D02*
X0198801Y0134152D01*
X0199599Y0134950D02*
X0195822Y0134950D01*
X0195624Y0135749D02*
X0218983Y0135749D01*
X0220092Y0136547D02*
X0195062Y0136547D01*
X0196405Y0131756D02*
X0190414Y0131756D01*
X0190651Y0130958D02*
X0195607Y0130958D01*
X0195434Y0128805D02*
X0186501Y0128805D01*
X0195434Y0128805D02*
X0200922Y0134293D01*
X0220922Y0134293D01*
X0223130Y0133353D02*
X0225556Y0133353D01*
X0225522Y0133270D02*
X0225522Y0132316D01*
X0225887Y0131433D01*
X0226522Y0130799D01*
X0226522Y0130314D01*
X0225922Y0130914D01*
X0225043Y0131793D01*
X0200402Y0131793D01*
X0201502Y0132893D01*
X0218928Y0132893D01*
X0219562Y0132258D01*
X0220445Y0131893D01*
X0221399Y0131893D01*
X0222281Y0132258D01*
X0222957Y0132933D01*
X0223322Y0133816D01*
X0223247Y0134950D02*
X0226858Y0134950D01*
X0226586Y0135749D02*
X0222860Y0135749D01*
X0221751Y0136547D02*
X0225840Y0136547D01*
X0225887Y0134152D02*
X0225522Y0133270D01*
X0225522Y0132555D02*
X0222578Y0132555D01*
X0225080Y0131756D02*
X0225754Y0131756D01*
X0225879Y0130958D02*
X0226363Y0130958D01*
X0227922Y0132793D02*
X0227922Y0120293D01*
X0230422Y0117793D01*
X0243422Y0117793D01*
X0248922Y0112293D01*
X0248922Y0098293D01*
X0250645Y0096622D02*
X0434430Y0096622D01*
X0434430Y0097420D02*
X0251158Y0097420D01*
X0251322Y0098219D02*
X0434430Y0098219D01*
X0434430Y0099017D02*
X0251220Y0099017D01*
X0250793Y0099816D02*
X0434430Y0099816D01*
X0434430Y0100614D02*
X0250322Y0100614D01*
X0250322Y0101413D02*
X0434430Y0101413D01*
X0434430Y0102211D02*
X0250322Y0102211D01*
X0250322Y0103010D02*
X0434430Y0103010D01*
X0434430Y0103808D02*
X0301831Y0103808D01*
X0301781Y0103758D02*
X0302457Y0104433D01*
X0302822Y0105316D01*
X0302822Y0106270D01*
X0302457Y0107152D01*
X0301781Y0107828D01*
X0300899Y0108193D01*
X0299945Y0108193D01*
X0299062Y0107828D01*
X0298387Y0107152D01*
X0298022Y0106270D01*
X0298022Y0105316D01*
X0298387Y0104433D01*
X0299062Y0103758D01*
X0299945Y0103393D01*
X0300899Y0103393D01*
X0301781Y0103758D01*
X0302528Y0104607D02*
X0434430Y0104607D01*
X0434430Y0105405D02*
X0302822Y0105405D01*
X0302822Y0106204D02*
X0434430Y0106204D01*
X0434382Y0107002D02*
X0302519Y0107002D01*
X0301808Y0107801D02*
X0433184Y0107801D01*
X0431987Y0108599D02*
X0254322Y0108599D01*
X0254316Y0107801D02*
X0299036Y0107801D01*
X0298325Y0107002D02*
X0253985Y0107002D01*
X0253149Y0106204D02*
X0298022Y0106204D01*
X0298022Y0105405D02*
X0250322Y0105405D01*
X0250322Y0104607D02*
X0298316Y0104607D01*
X0299013Y0103808D02*
X0250322Y0103808D01*
X0250322Y0106204D02*
X0250694Y0106204D01*
X0251922Y0108293D02*
X0251922Y0147793D01*
X0255922Y0151793D01*
X0298922Y0151793D01*
X0300422Y0153293D01*
X0300422Y0183297D01*
X0302418Y0185293D01*
X0297022Y0185256D02*
X0276163Y0185256D01*
X0276163Y0184458D02*
X0297022Y0184458D01*
X0297022Y0183659D02*
X0275923Y0183659D01*
X0276163Y0184239D02*
X0275356Y0182291D01*
X0273865Y0180800D01*
X0271917Y0179993D01*
X0269809Y0179993D01*
X0267861Y0180800D01*
X0266370Y0182291D01*
X0265563Y0184239D01*
X0265563Y0186347D01*
X0266370Y0188295D01*
X0267861Y0189786D01*
X0269809Y0190593D01*
X0271917Y0190593D01*
X0273865Y0189786D01*
X0275356Y0188295D01*
X0276163Y0186347D01*
X0276163Y0184239D01*
X0275592Y0182861D02*
X0297022Y0182861D01*
X0297022Y0182062D02*
X0275127Y0182062D01*
X0274329Y0181264D02*
X0297022Y0181264D01*
X0297022Y0180465D02*
X0273057Y0180465D01*
X0268669Y0180465D02*
X0054152Y0180465D01*
X0053822Y0179667D02*
X0297022Y0179667D01*
X0297022Y0178868D02*
X0053408Y0178868D01*
X0053549Y0179010D02*
X0054965Y0182427D01*
X0054965Y0186127D01*
X0053549Y0189545D01*
X0050934Y0192161D01*
X0047516Y0193576D01*
X0043816Y0193576D01*
X0040398Y0192161D01*
X0037783Y0189545D01*
X0036367Y0186127D01*
X0036367Y0182427D01*
X0037783Y0179010D01*
X0040398Y0176394D01*
X0043816Y0174978D01*
X0047516Y0174978D01*
X0050934Y0176394D01*
X0053549Y0179010D01*
X0052610Y0178070D02*
X0297022Y0178070D01*
X0297022Y0177271D02*
X0051811Y0177271D01*
X0051012Y0176473D02*
X0297022Y0176473D01*
X0297022Y0175674D02*
X0049196Y0175674D01*
X0042136Y0175674D02*
X0030910Y0175674D01*
X0030910Y0174876D02*
X0297022Y0174876D01*
X0297022Y0174077D02*
X0030910Y0174077D01*
X0030910Y0173279D02*
X0297022Y0173279D01*
X0302422Y0177293D02*
X0304922Y0179793D01*
X0317922Y0179793D01*
X0318422Y0180293D01*
X0318422Y0185289D01*
X0318418Y0185293D01*
X0322371Y0185256D02*
X0322465Y0185256D01*
X0322465Y0184458D02*
X0322371Y0184458D01*
X0322371Y0183659D02*
X0322465Y0183659D01*
X0322465Y0182861D02*
X0322371Y0182861D01*
X0322371Y0182062D02*
X0322465Y0182062D01*
X0322465Y0181264D02*
X0322371Y0181264D01*
X0323922Y0179293D02*
X0319922Y0179293D01*
X0318922Y0178293D01*
X0305922Y0178293D01*
X0304422Y0176793D01*
X0304422Y0148293D01*
X0298422Y0142293D01*
X0295422Y0142293D01*
X0293220Y0141338D02*
X0253322Y0141338D01*
X0253322Y0140540D02*
X0293781Y0140540D01*
X0293976Y0139741D02*
X0253322Y0139741D01*
X0253322Y0138943D02*
X0293300Y0138943D01*
X0293022Y0138144D02*
X0253322Y0138144D01*
X0253322Y0137346D02*
X0293022Y0137346D01*
X0293340Y0136547D02*
X0253322Y0136547D01*
X0253322Y0135749D02*
X0294086Y0135749D01*
X0295422Y0137793D02*
X0297422Y0137793D01*
X0306422Y0146793D01*
X0306422Y0175293D01*
X0307922Y0176793D01*
X0319422Y0176793D01*
X0320422Y0177793D01*
X0324422Y0177793D01*
X0326422Y0179793D01*
X0331422Y0179793D01*
X0334422Y0182793D01*
X0334422Y0185289D01*
X0334418Y0185293D01*
X0338371Y0185256D02*
X0387028Y0185256D01*
X0387028Y0184458D02*
X0338371Y0184458D01*
X0338371Y0183659D02*
X0387028Y0183659D01*
X0387028Y0182861D02*
X0338371Y0182861D01*
X0338371Y0182062D02*
X0387028Y0182062D01*
X0387028Y0181264D02*
X0338371Y0181264D01*
X0337894Y0180465D02*
X0387028Y0180465D01*
X0387028Y0179667D02*
X0333276Y0179667D01*
X0332477Y0178868D02*
X0387028Y0178868D01*
X0387028Y0178070D02*
X0326678Y0178070D01*
X0325880Y0177271D02*
X0387028Y0177271D01*
X0387028Y0176473D02*
X0325081Y0176473D01*
X0325822Y0177213D02*
X0325822Y0177213D01*
X0323922Y0179293D02*
X0326922Y0182293D01*
X0326922Y0184789D01*
X0326418Y0185293D01*
X0330371Y0185256D02*
X0330465Y0185256D01*
X0330465Y0184458D02*
X0330371Y0184458D01*
X0330371Y0183659D02*
X0330465Y0183659D01*
X0330465Y0182861D02*
X0330371Y0182861D01*
X0330371Y0182062D02*
X0330465Y0182062D01*
X0330465Y0181264D02*
X0330371Y0181264D01*
X0330371Y0186055D02*
X0330465Y0186055D01*
X0330465Y0186853D02*
X0330371Y0186853D01*
X0330371Y0187652D02*
X0330465Y0187652D01*
X0330465Y0188450D02*
X0330371Y0188450D01*
X0330371Y0189249D02*
X0330465Y0189249D01*
X0330868Y0190047D02*
X0329968Y0190047D01*
X0337968Y0190047D02*
X0387502Y0190047D01*
X0387614Y0190159D02*
X0387028Y0189573D01*
X0387028Y0168745D01*
X0387614Y0168159D01*
X0408442Y0168159D01*
X0409028Y0168745D01*
X0409028Y0189573D01*
X0408442Y0190159D01*
X0387614Y0190159D01*
X0387028Y0189249D02*
X0338371Y0189249D01*
X0338371Y0188450D02*
X0387028Y0188450D01*
X0387028Y0187652D02*
X0338371Y0187652D01*
X0338371Y0186853D02*
X0387028Y0186853D01*
X0387028Y0186055D02*
X0338371Y0186055D01*
X0322465Y0186055D02*
X0322371Y0186055D01*
X0322371Y0186853D02*
X0322465Y0186853D01*
X0322465Y0187652D02*
X0322371Y0187652D01*
X0322371Y0188450D02*
X0322465Y0188450D01*
X0322465Y0189249D02*
X0322371Y0189249D01*
X0321968Y0190047D02*
X0322868Y0190047D01*
X0314868Y0190047D02*
X0313968Y0190047D01*
X0314371Y0189249D02*
X0314465Y0189249D01*
X0314465Y0188450D02*
X0314371Y0188450D01*
X0314371Y0187652D02*
X0314465Y0187652D01*
X0314465Y0186853D02*
X0314371Y0186853D01*
X0314371Y0186055D02*
X0314465Y0186055D01*
X0314465Y0185256D02*
X0314371Y0185256D01*
X0314371Y0184458D02*
X0314465Y0184458D01*
X0314465Y0183659D02*
X0314371Y0183659D01*
X0314371Y0182861D02*
X0314465Y0182861D01*
X0314465Y0182062D02*
X0314371Y0182062D01*
X0314371Y0181264D02*
X0314465Y0181264D01*
X0310422Y0185297D02*
X0310418Y0185293D01*
X0310422Y0185297D02*
X0310422Y0187793D01*
X0307422Y0190793D01*
X0299422Y0190793D01*
X0298422Y0189793D01*
X0298422Y0155293D01*
X0296922Y0153793D01*
X0254922Y0153793D01*
X0245922Y0144793D01*
X0245922Y0129293D01*
X0247651Y0130958D02*
X0250522Y0130958D01*
X0250522Y0131756D02*
X0247322Y0131756D01*
X0247322Y0132555D02*
X0250522Y0132555D01*
X0250522Y0133353D02*
X0247322Y0133353D01*
X0247322Y0134152D02*
X0250522Y0134152D01*
X0250522Y0134950D02*
X0247322Y0134950D01*
X0247322Y0135749D02*
X0250522Y0135749D01*
X0250522Y0136547D02*
X0247322Y0136547D01*
X0247322Y0137346D02*
X0250522Y0137346D01*
X0250522Y0138144D02*
X0247322Y0138144D01*
X0247322Y0138943D02*
X0250522Y0138943D01*
X0250522Y0139741D02*
X0247322Y0139741D01*
X0247322Y0140540D02*
X0250522Y0140540D01*
X0250522Y0141338D02*
X0247322Y0141338D01*
X0247322Y0142137D02*
X0250522Y0142137D01*
X0250522Y0142935D02*
X0247322Y0142935D01*
X0247322Y0143734D02*
X0250522Y0143734D01*
X0250522Y0144532D02*
X0247641Y0144532D01*
X0248440Y0145331D02*
X0250522Y0145331D01*
X0250522Y0146129D02*
X0249238Y0146129D01*
X0250037Y0146928D02*
X0250522Y0146928D01*
X0253322Y0146928D02*
X0293022Y0146928D01*
X0293099Y0146129D02*
X0253322Y0146129D01*
X0253322Y0145331D02*
X0293490Y0145331D01*
X0294556Y0144532D02*
X0253322Y0144532D01*
X0253322Y0143734D02*
X0293469Y0143734D01*
X0293090Y0142935D02*
X0253322Y0142935D01*
X0253322Y0142137D02*
X0293022Y0142137D01*
X0295422Y0146793D02*
X0299422Y0146793D01*
X0302422Y0149793D01*
X0302422Y0177293D01*
X0307984Y0174876D02*
X0387028Y0174876D01*
X0387028Y0175674D02*
X0320283Y0175674D01*
X0307822Y0174077D02*
X0387028Y0174077D01*
X0387028Y0173279D02*
X0307822Y0173279D01*
X0307822Y0172480D02*
X0387028Y0172480D01*
X0387028Y0171682D02*
X0307822Y0171682D01*
X0307822Y0170883D02*
X0387028Y0170883D01*
X0387028Y0170085D02*
X0307822Y0170085D01*
X0307822Y0169286D02*
X0387028Y0169286D01*
X0387286Y0168488D02*
X0307822Y0168488D01*
X0307822Y0167689D02*
X0434430Y0167689D01*
X0434430Y0166891D02*
X0307822Y0166891D01*
X0307822Y0166092D02*
X0434430Y0166092D01*
X0434430Y0165294D02*
X0307822Y0165294D01*
X0307822Y0164495D02*
X0310272Y0164495D01*
X0310272Y0163696D02*
X0307822Y0163696D01*
X0308922Y0161293D02*
X0313922Y0161293D01*
X0314422Y0161793D01*
X0318572Y0162099D02*
X0434430Y0162099D01*
X0434430Y0161301D02*
X0318572Y0161301D01*
X0318572Y0160502D02*
X0434430Y0160502D01*
X0434430Y0159704D02*
X0318572Y0159704D01*
X0318399Y0158905D02*
X0434430Y0158905D01*
X0434430Y0158107D02*
X0318572Y0158107D01*
X0318572Y0157308D02*
X0434430Y0157308D01*
X0434430Y0156510D02*
X0318572Y0156510D01*
X0318572Y0155711D02*
X0434430Y0155711D01*
X0434430Y0154913D02*
X0318572Y0154913D01*
X0318572Y0154114D02*
X0434430Y0154114D01*
X0434430Y0153316D02*
X0318572Y0153316D01*
X0318562Y0152517D02*
X0433551Y0152517D01*
X0432593Y0151719D02*
X0318572Y0151719D01*
X0318572Y0150920D02*
X0431635Y0150920D01*
X0430676Y0150122D02*
X0318572Y0150122D01*
X0318572Y0149323D02*
X0429718Y0149323D01*
X0428760Y0148525D02*
X0318572Y0148525D01*
X0318572Y0147726D02*
X0427802Y0147726D01*
X0426844Y0146928D02*
X0318421Y0146928D01*
X0314738Y0146129D02*
X0425885Y0146129D01*
X0424927Y0145331D02*
X0313940Y0145331D01*
X0313141Y0144532D02*
X0423969Y0144532D01*
X0423000Y0143734D02*
X0312343Y0143734D01*
X0311544Y0142935D02*
X0422614Y0142935D01*
X0422619Y0142137D02*
X0310745Y0142137D01*
X0309947Y0141338D02*
X0422619Y0141338D01*
X0422619Y0140540D02*
X0309148Y0140540D01*
X0308350Y0139741D02*
X0422619Y0139741D01*
X0422619Y0138943D02*
X0321666Y0138943D01*
X0321957Y0138652D02*
X0321281Y0139328D01*
X0320399Y0139693D01*
X0319445Y0139693D01*
X0318562Y0139328D01*
X0317887Y0138652D01*
X0317522Y0137770D01*
X0317522Y0136816D01*
X0317887Y0135933D01*
X0318562Y0135258D01*
X0319445Y0134893D01*
X0320399Y0134893D01*
X0321281Y0135258D01*
X0321957Y0135933D01*
X0322322Y0136816D01*
X0322322Y0137770D01*
X0321957Y0138652D01*
X0322167Y0138144D02*
X0422619Y0138144D01*
X0422619Y0137346D02*
X0322322Y0137346D01*
X0322211Y0136547D02*
X0422619Y0136547D01*
X0422619Y0135749D02*
X0321772Y0135749D01*
X0320537Y0134950D02*
X0422619Y0134950D01*
X0422619Y0134152D02*
X0302760Y0134152D01*
X0303559Y0134950D02*
X0319307Y0134950D01*
X0318072Y0135749D02*
X0304357Y0135749D01*
X0305156Y0136547D02*
X0317633Y0136547D01*
X0317522Y0137346D02*
X0305954Y0137346D01*
X0306753Y0138144D02*
X0317677Y0138144D01*
X0318177Y0138943D02*
X0307551Y0138943D01*
X0308922Y0145793D02*
X0299422Y0136293D01*
X0298922Y0135793D01*
X0297922Y0134793D01*
X0297922Y0127793D01*
X0295422Y0125293D01*
X0293186Y0126166D02*
X0253322Y0126166D01*
X0253322Y0125368D02*
X0293022Y0125368D01*
X0293124Y0124569D02*
X0253322Y0124569D01*
X0253322Y0123771D02*
X0293550Y0123771D01*
X0294753Y0122972D02*
X0253322Y0122972D01*
X0253322Y0122174D02*
X0422619Y0122174D01*
X0422619Y0122972D02*
X0296091Y0122972D01*
X0297294Y0123771D02*
X0422619Y0123771D01*
X0422619Y0124569D02*
X0297720Y0124569D01*
X0297822Y0125368D02*
X0422619Y0125368D01*
X0422619Y0126166D02*
X0301559Y0126166D01*
X0302470Y0126965D02*
X0422619Y0126965D01*
X0422619Y0127763D02*
X0302800Y0127763D01*
X0302822Y0128562D02*
X0422619Y0128562D01*
X0422619Y0129360D02*
X0302577Y0129360D01*
X0301950Y0130159D02*
X0422619Y0130159D01*
X0422619Y0130958D02*
X0301822Y0130958D01*
X0301822Y0131756D02*
X0422619Y0131756D01*
X0422619Y0132555D02*
X0301822Y0132555D01*
X0301962Y0133353D02*
X0422619Y0133353D01*
X0422619Y0121375D02*
X0253322Y0121375D01*
X0253322Y0120577D02*
X0422619Y0120577D01*
X0422619Y0119778D02*
X0253322Y0119778D01*
X0253322Y0118980D02*
X0422619Y0118980D01*
X0422619Y0118181D02*
X0253322Y0118181D01*
X0253322Y0117383D02*
X0422619Y0117383D01*
X0422619Y0116584D02*
X0253322Y0116584D01*
X0253322Y0115786D02*
X0422619Y0115786D01*
X0422619Y0114987D02*
X0253322Y0114987D01*
X0253322Y0114189D02*
X0423602Y0114189D01*
X0424800Y0113390D02*
X0253322Y0113390D01*
X0253322Y0112592D02*
X0425998Y0112592D01*
X0427196Y0111793D02*
X0253322Y0111793D01*
X0253322Y0110995D02*
X0428393Y0110995D01*
X0429591Y0110196D02*
X0253413Y0110196D01*
X0254062Y0109398D02*
X0430789Y0109398D01*
X0434430Y0095823D02*
X0247422Y0095823D01*
X0247422Y0095025D02*
X0434430Y0095025D01*
X0434430Y0094226D02*
X0247422Y0094226D01*
X0247422Y0093427D02*
X0434430Y0093427D01*
X0434430Y0092629D02*
X0247422Y0092629D01*
X0247422Y0091830D02*
X0434430Y0091830D01*
X0434430Y0091032D02*
X0247422Y0091032D01*
X0247422Y0090233D02*
X0434430Y0090233D01*
X0434430Y0089435D02*
X0409028Y0089435D01*
X0409028Y0088636D02*
X0434430Y0088636D01*
X0434430Y0087838D02*
X0409028Y0087838D01*
X0409028Y0087039D02*
X0434430Y0087039D01*
X0434430Y0086241D02*
X0409028Y0086241D01*
X0409028Y0085442D02*
X0434430Y0085442D01*
X0434430Y0084644D02*
X0409028Y0084644D01*
X0409028Y0083845D02*
X0434430Y0083845D01*
X0434430Y0083047D02*
X0409028Y0083047D01*
X0409028Y0082248D02*
X0434430Y0082248D01*
X0434430Y0081450D02*
X0409028Y0081450D01*
X0409028Y0080651D02*
X0434430Y0080651D01*
X0434430Y0079853D02*
X0409028Y0079853D01*
X0409028Y0079054D02*
X0434430Y0079054D01*
X0434430Y0078256D02*
X0409028Y0078256D01*
X0409028Y0077457D02*
X0434430Y0077457D01*
X0434430Y0076659D02*
X0409028Y0076659D01*
X0409028Y0075860D02*
X0434430Y0075860D01*
X0434430Y0075062D02*
X0409028Y0075062D01*
X0409028Y0074263D02*
X0434430Y0074263D01*
X0434430Y0073465D02*
X0409028Y0073465D01*
X0409028Y0072666D02*
X0434430Y0072666D01*
X0434430Y0071868D02*
X0409028Y0071868D01*
X0409028Y0071069D02*
X0434430Y0071069D01*
X0434430Y0070271D02*
X0409028Y0070271D01*
X0409028Y0069472D02*
X0434430Y0069472D01*
X0434430Y0068674D02*
X0408957Y0068674D01*
X0399528Y0067875D02*
X0434430Y0067875D01*
X0434430Y0067077D02*
X0399528Y0067077D01*
X0399528Y0066278D02*
X0434422Y0066278D01*
X0434367Y0065480D02*
X0399528Y0065480D01*
X0399528Y0064681D02*
X0434201Y0064681D01*
X0433942Y0063883D02*
X0399528Y0063883D01*
X0399528Y0063084D02*
X0433682Y0063084D01*
X0433114Y0062286D02*
X0399528Y0062286D01*
X0399528Y0061487D02*
X0432534Y0061487D01*
X0431547Y0060689D02*
X0399439Y0060689D01*
X0398640Y0059890D02*
X0430176Y0059890D01*
X0396528Y0062286D02*
X0250551Y0062286D01*
X0249752Y0063084D02*
X0396528Y0063084D01*
X0396528Y0063883D02*
X0248954Y0063883D01*
X0248155Y0064681D02*
X0396528Y0064681D01*
X0396528Y0065480D02*
X0247422Y0065480D01*
X0247422Y0066278D02*
X0396528Y0066278D01*
X0396528Y0067077D02*
X0247422Y0067077D01*
X0247422Y0067875D02*
X0396528Y0067875D01*
X0387099Y0068674D02*
X0247422Y0068674D01*
X0247422Y0069472D02*
X0387028Y0069472D01*
X0387028Y0070271D02*
X0247422Y0070271D01*
X0247422Y0071069D02*
X0387028Y0071069D01*
X0387028Y0071868D02*
X0247422Y0071868D01*
X0247422Y0072666D02*
X0387028Y0072666D01*
X0387028Y0073465D02*
X0247422Y0073465D01*
X0247422Y0074263D02*
X0387028Y0074263D01*
X0387028Y0075062D02*
X0247422Y0075062D01*
X0247422Y0075860D02*
X0387028Y0075860D01*
X0387028Y0076659D02*
X0247422Y0076659D01*
X0247422Y0077457D02*
X0387028Y0077457D01*
X0387028Y0078256D02*
X0247422Y0078256D01*
X0247422Y0079054D02*
X0387028Y0079054D01*
X0387028Y0079853D02*
X0247422Y0079853D01*
X0247422Y0080651D02*
X0387028Y0080651D01*
X0387028Y0081450D02*
X0247422Y0081450D01*
X0247422Y0082248D02*
X0387028Y0082248D01*
X0387028Y0083047D02*
X0247422Y0083047D01*
X0247422Y0083845D02*
X0387028Y0083845D01*
X0387028Y0084644D02*
X0247422Y0084644D01*
X0247422Y0085442D02*
X0387028Y0085442D01*
X0387028Y0086241D02*
X0247422Y0086241D01*
X0247422Y0087039D02*
X0387028Y0087039D01*
X0387028Y0087838D02*
X0247422Y0087838D01*
X0247422Y0088636D02*
X0387028Y0088636D01*
X0387028Y0089435D02*
X0247422Y0089435D01*
X0236784Y0091032D02*
X0235838Y0091978D01*
X0231882Y0091830D02*
X0075986Y0091830D01*
X0077296Y0089435D02*
X0230572Y0089435D01*
X0230572Y0089796D02*
X0231083Y0091032D01*
X0230572Y0088636D02*
X0077296Y0088636D01*
X0077039Y0087838D02*
X0230829Y0087838D01*
X0231267Y0087039D02*
X0076600Y0087039D01*
X0075750Y0086241D02*
X0232117Y0086241D01*
X0244422Y0101413D02*
X0044552Y0101413D01*
X0045350Y0102211D02*
X0244422Y0102211D01*
X0244422Y0103010D02*
X0045736Y0103010D01*
X0046066Y0103808D02*
X0244422Y0103808D01*
X0244422Y0104607D02*
X0046075Y0104607D01*
X0046075Y0105405D02*
X0066363Y0105405D01*
X0066413Y0105355D02*
X0068049Y0104678D01*
X0069819Y0104678D01*
X0071454Y0105355D01*
X0072706Y0106607D01*
X0073384Y0108242D01*
X0073384Y0110013D01*
X0072706Y0111648D01*
X0071454Y0112900D01*
X0069819Y0113578D01*
X0068049Y0113578D01*
X0066413Y0112900D01*
X0065161Y0111648D01*
X0064484Y0110013D01*
X0064484Y0108242D01*
X0065161Y0106607D01*
X0066413Y0105355D01*
X0065564Y0106204D02*
X0045776Y0106204D01*
X0045445Y0107002D02*
X0064997Y0107002D01*
X0064667Y0107801D02*
X0044649Y0107801D01*
X0043281Y0108599D02*
X0064484Y0108599D01*
X0064484Y0109398D02*
X0044663Y0109398D01*
X0045451Y0110196D02*
X0064560Y0110196D01*
X0064890Y0110995D02*
X0045782Y0110995D01*
X0046075Y0111793D02*
X0065306Y0111793D01*
X0066105Y0112592D02*
X0046075Y0112592D01*
X0046061Y0113390D02*
X0067596Y0113390D01*
X0070271Y0113390D02*
X0077596Y0113390D01*
X0078049Y0113578D02*
X0076413Y0112900D01*
X0075161Y0111648D01*
X0074484Y0110013D01*
X0074484Y0108242D01*
X0075161Y0106607D01*
X0076413Y0105355D01*
X0078049Y0104678D01*
X0079819Y0104678D01*
X0081454Y0105355D01*
X0082706Y0106607D01*
X0083384Y0108242D01*
X0083384Y0110013D01*
X0082706Y0111648D01*
X0081454Y0112900D01*
X0079819Y0113578D01*
X0078049Y0113578D01*
X0076105Y0112592D02*
X0071763Y0112592D01*
X0072561Y0111793D02*
X0075306Y0111793D01*
X0074890Y0110995D02*
X0072977Y0110995D01*
X0073308Y0110196D02*
X0074560Y0110196D01*
X0074484Y0109398D02*
X0073384Y0109398D01*
X0073384Y0108599D02*
X0074484Y0108599D01*
X0074667Y0107801D02*
X0073201Y0107801D01*
X0072870Y0107002D02*
X0074997Y0107002D01*
X0075564Y0106204D02*
X0072303Y0106204D01*
X0071504Y0105405D02*
X0076363Y0105405D01*
X0081504Y0105405D02*
X0086363Y0105405D01*
X0086413Y0105355D02*
X0088049Y0104678D01*
X0089819Y0104678D01*
X0091454Y0105355D01*
X0092706Y0106607D01*
X0093384Y0108242D01*
X0093384Y0110013D01*
X0092706Y0111648D01*
X0091454Y0112900D01*
X0089819Y0113578D01*
X0088049Y0113578D01*
X0086413Y0112900D01*
X0085161Y0111648D01*
X0084484Y0110013D01*
X0084484Y0108242D01*
X0085161Y0106607D01*
X0086413Y0105355D01*
X0085564Y0106204D02*
X0082303Y0106204D01*
X0082870Y0107002D02*
X0084997Y0107002D01*
X0084667Y0107801D02*
X0083201Y0107801D01*
X0083384Y0108599D02*
X0084484Y0108599D01*
X0084484Y0109398D02*
X0083384Y0109398D01*
X0083308Y0110196D02*
X0084560Y0110196D01*
X0084890Y0110995D02*
X0082977Y0110995D01*
X0082561Y0111793D02*
X0085306Y0111793D01*
X0086105Y0112592D02*
X0081763Y0112592D01*
X0080271Y0113390D02*
X0087596Y0113390D01*
X0090271Y0113390D02*
X0097596Y0113390D01*
X0098049Y0113578D02*
X0096413Y0112900D01*
X0095161Y0111648D01*
X0094484Y0110013D01*
X0094484Y0108242D01*
X0095161Y0106607D01*
X0096413Y0105355D01*
X0098049Y0104678D01*
X0099819Y0104678D01*
X0101454Y0105355D01*
X0102706Y0106607D01*
X0103384Y0108242D01*
X0103384Y0110013D01*
X0102706Y0111648D01*
X0101454Y0112900D01*
X0099819Y0113578D01*
X0098049Y0113578D01*
X0096105Y0112592D02*
X0091763Y0112592D01*
X0092561Y0111793D02*
X0095306Y0111793D01*
X0094890Y0110995D02*
X0092977Y0110995D01*
X0093308Y0110196D02*
X0094560Y0110196D01*
X0094484Y0109398D02*
X0093384Y0109398D01*
X0093384Y0108599D02*
X0094484Y0108599D01*
X0094667Y0107801D02*
X0093201Y0107801D01*
X0092870Y0107002D02*
X0094997Y0107002D01*
X0095564Y0106204D02*
X0092303Y0106204D01*
X0091504Y0105405D02*
X0096363Y0105405D01*
X0101504Y0105405D02*
X0106363Y0105405D01*
X0106413Y0105355D02*
X0108049Y0104678D01*
X0109819Y0104678D01*
X0111454Y0105355D01*
X0112706Y0106607D01*
X0113384Y0108242D01*
X0113384Y0110013D01*
X0112706Y0111648D01*
X0111454Y0112900D01*
X0109819Y0113578D01*
X0108049Y0113578D01*
X0106413Y0112900D01*
X0105161Y0111648D01*
X0104484Y0110013D01*
X0104484Y0108242D01*
X0105161Y0106607D01*
X0106413Y0105355D01*
X0105564Y0106204D02*
X0102303Y0106204D01*
X0102870Y0107002D02*
X0104997Y0107002D01*
X0104667Y0107801D02*
X0103201Y0107801D01*
X0103384Y0108599D02*
X0104484Y0108599D01*
X0104484Y0109398D02*
X0103384Y0109398D01*
X0103308Y0110196D02*
X0104560Y0110196D01*
X0104890Y0110995D02*
X0102977Y0110995D01*
X0102561Y0111793D02*
X0105306Y0111793D01*
X0106105Y0112592D02*
X0101763Y0112592D01*
X0100271Y0113390D02*
X0107596Y0113390D01*
X0110271Y0113390D02*
X0117596Y0113390D01*
X0118049Y0113578D02*
X0116413Y0112900D01*
X0115161Y0111648D01*
X0114484Y0110013D01*
X0114484Y0108242D01*
X0115161Y0106607D01*
X0116413Y0105355D01*
X0118049Y0104678D01*
X0119819Y0104678D01*
X0121454Y0105355D01*
X0122706Y0106607D01*
X0123384Y0108242D01*
X0123384Y0110013D01*
X0122706Y0111648D01*
X0121454Y0112900D01*
X0119819Y0113578D01*
X0118049Y0113578D01*
X0116105Y0112592D02*
X0111763Y0112592D01*
X0112561Y0111793D02*
X0115306Y0111793D01*
X0114890Y0110995D02*
X0112977Y0110995D01*
X0113308Y0110196D02*
X0114560Y0110196D01*
X0114484Y0109398D02*
X0113384Y0109398D01*
X0113384Y0108599D02*
X0114484Y0108599D01*
X0114667Y0107801D02*
X0113201Y0107801D01*
X0112870Y0107002D02*
X0114997Y0107002D01*
X0115564Y0106204D02*
X0112303Y0106204D01*
X0111504Y0105405D02*
X0116363Y0105405D01*
X0121504Y0105405D02*
X0126363Y0105405D01*
X0126413Y0105355D02*
X0128049Y0104678D01*
X0129819Y0104678D01*
X0131454Y0105355D01*
X0132706Y0106607D01*
X0133384Y0108242D01*
X0133384Y0110013D01*
X0132706Y0111648D01*
X0131454Y0112900D01*
X0129819Y0113578D01*
X0128049Y0113578D01*
X0126413Y0112900D01*
X0125161Y0111648D01*
X0124484Y0110013D01*
X0124484Y0108242D01*
X0125161Y0106607D01*
X0126413Y0105355D01*
X0125564Y0106204D02*
X0122303Y0106204D01*
X0122870Y0107002D02*
X0124997Y0107002D01*
X0124667Y0107801D02*
X0123201Y0107801D01*
X0123384Y0108599D02*
X0124484Y0108599D01*
X0124484Y0109398D02*
X0123384Y0109398D01*
X0123308Y0110196D02*
X0124560Y0110196D01*
X0124890Y0110995D02*
X0122977Y0110995D01*
X0122561Y0111793D02*
X0125306Y0111793D01*
X0126105Y0112592D02*
X0121763Y0112592D01*
X0120271Y0113390D02*
X0127596Y0113390D01*
X0130271Y0113390D02*
X0137596Y0113390D01*
X0138049Y0113578D02*
X0136413Y0112900D01*
X0135161Y0111648D01*
X0134484Y0110013D01*
X0134484Y0108242D01*
X0135161Y0106607D01*
X0136413Y0105355D01*
X0138049Y0104678D01*
X0139819Y0104678D01*
X0141454Y0105355D01*
X0142706Y0106607D01*
X0143384Y0108242D01*
X0143384Y0110013D01*
X0142706Y0111648D01*
X0141454Y0112900D01*
X0139819Y0113578D01*
X0138049Y0113578D01*
X0136105Y0112592D02*
X0131763Y0112592D01*
X0132561Y0111793D02*
X0135306Y0111793D01*
X0134890Y0110995D02*
X0132977Y0110995D01*
X0133308Y0110196D02*
X0134560Y0110196D01*
X0134484Y0109398D02*
X0133384Y0109398D01*
X0133384Y0108599D02*
X0134484Y0108599D01*
X0134667Y0107801D02*
X0133201Y0107801D01*
X0132870Y0107002D02*
X0134997Y0107002D01*
X0135564Y0106204D02*
X0132303Y0106204D01*
X0131504Y0105405D02*
X0136363Y0105405D01*
X0141504Y0105405D02*
X0146363Y0105405D01*
X0146413Y0105355D02*
X0148049Y0104678D01*
X0149819Y0104678D01*
X0151454Y0105355D01*
X0152706Y0106607D01*
X0153384Y0108242D01*
X0153384Y0110013D01*
X0152706Y0111648D01*
X0151454Y0112900D01*
X0149819Y0113578D01*
X0148049Y0113578D01*
X0146413Y0112900D01*
X0145161Y0111648D01*
X0144484Y0110013D01*
X0144484Y0108242D01*
X0145161Y0106607D01*
X0146413Y0105355D01*
X0145564Y0106204D02*
X0142303Y0106204D01*
X0142870Y0107002D02*
X0144997Y0107002D01*
X0144667Y0107801D02*
X0143201Y0107801D01*
X0143384Y0108599D02*
X0144484Y0108599D01*
X0144484Y0109398D02*
X0143384Y0109398D01*
X0143308Y0110196D02*
X0144560Y0110196D01*
X0144890Y0110995D02*
X0142977Y0110995D01*
X0142561Y0111793D02*
X0145306Y0111793D01*
X0146105Y0112592D02*
X0141763Y0112592D01*
X0140271Y0113390D02*
X0147596Y0113390D01*
X0150271Y0113390D02*
X0157596Y0113390D01*
X0158049Y0113578D02*
X0156413Y0112900D01*
X0155161Y0111648D01*
X0154484Y0110013D01*
X0154484Y0108242D01*
X0155161Y0106607D01*
X0156413Y0105355D01*
X0158049Y0104678D01*
X0159819Y0104678D01*
X0161454Y0105355D01*
X0162706Y0106607D01*
X0163384Y0108242D01*
X0163384Y0110013D01*
X0162706Y0111648D01*
X0161454Y0112900D01*
X0159819Y0113578D01*
X0158049Y0113578D01*
X0156105Y0112592D02*
X0151763Y0112592D01*
X0152561Y0111793D02*
X0155306Y0111793D01*
X0154890Y0110995D02*
X0152977Y0110995D01*
X0153308Y0110196D02*
X0154560Y0110196D01*
X0154484Y0109398D02*
X0153384Y0109398D01*
X0153384Y0108599D02*
X0154484Y0108599D01*
X0154667Y0107801D02*
X0153201Y0107801D01*
X0152870Y0107002D02*
X0154997Y0107002D01*
X0155564Y0106204D02*
X0152303Y0106204D01*
X0151504Y0105405D02*
X0156363Y0105405D01*
X0161504Y0105405D02*
X0166363Y0105405D01*
X0166413Y0105355D02*
X0168049Y0104678D01*
X0169819Y0104678D01*
X0171454Y0105355D01*
X0172706Y0106607D01*
X0173384Y0108242D01*
X0173384Y0110013D01*
X0172706Y0111648D01*
X0171454Y0112900D01*
X0169819Y0113578D01*
X0168049Y0113578D01*
X0166413Y0112900D01*
X0165161Y0111648D01*
X0164484Y0110013D01*
X0164484Y0108242D01*
X0165161Y0106607D01*
X0166413Y0105355D01*
X0165564Y0106204D02*
X0162303Y0106204D01*
X0162870Y0107002D02*
X0164997Y0107002D01*
X0164667Y0107801D02*
X0163201Y0107801D01*
X0163384Y0108599D02*
X0164484Y0108599D01*
X0164484Y0109398D02*
X0163384Y0109398D01*
X0163308Y0110196D02*
X0164560Y0110196D01*
X0164890Y0110995D02*
X0162977Y0110995D01*
X0162561Y0111793D02*
X0165306Y0111793D01*
X0166105Y0112592D02*
X0161763Y0112592D01*
X0160271Y0113390D02*
X0167596Y0113390D01*
X0170271Y0113390D02*
X0177534Y0113390D01*
X0177534Y0114189D02*
X0045730Y0114189D01*
X0045336Y0114987D02*
X0177534Y0114987D01*
X0177534Y0115786D02*
X0044538Y0115786D01*
X0043550Y0116584D02*
X0177534Y0116584D01*
X0177534Y0117383D02*
X0154906Y0117383D01*
X0154781Y0117258D02*
X0155457Y0117933D01*
X0155822Y0118816D01*
X0155822Y0119770D01*
X0155457Y0120652D01*
X0154781Y0121328D01*
X0153899Y0121693D01*
X0152945Y0121693D01*
X0152062Y0121328D01*
X0151387Y0120652D01*
X0151022Y0119770D01*
X0151022Y0118816D01*
X0151387Y0117933D01*
X0152062Y0117258D01*
X0152945Y0116893D01*
X0153899Y0116893D01*
X0154781Y0117258D01*
X0155559Y0118181D02*
X0177534Y0118181D01*
X0177534Y0118980D02*
X0155822Y0118980D01*
X0155819Y0119778D02*
X0177534Y0119778D01*
X0177534Y0120577D02*
X0155488Y0120577D01*
X0154666Y0121375D02*
X0177534Y0121375D01*
X0177534Y0122174D02*
X0045684Y0122174D01*
X0046015Y0121375D02*
X0152178Y0121375D01*
X0151356Y0120577D02*
X0046075Y0120577D01*
X0046075Y0119778D02*
X0151025Y0119778D01*
X0151022Y0118980D02*
X0045828Y0118980D01*
X0045497Y0118181D02*
X0151285Y0118181D01*
X0151938Y0117383D02*
X0044774Y0117383D01*
X0045225Y0122972D02*
X0177534Y0122972D01*
X0190338Y0119778D02*
X0209525Y0119778D01*
X0209856Y0120577D02*
X0190651Y0120577D01*
X0194126Y0121375D02*
X0210678Y0121375D01*
X0213166Y0121375D02*
X0224922Y0121375D01*
X0224922Y0120577D02*
X0213988Y0120577D01*
X0214319Y0119778D02*
X0224922Y0119778D01*
X0224922Y0118980D02*
X0214322Y0118980D01*
X0219428Y0118181D02*
X0225412Y0118181D01*
X0226211Y0117383D02*
X0220068Y0117383D01*
X0220322Y0116584D02*
X0227009Y0116584D01*
X0227808Y0115786D02*
X0220310Y0115786D01*
X0219979Y0114987D02*
X0228606Y0114987D01*
X0228049Y0113578D02*
X0226413Y0112900D01*
X0225161Y0111648D01*
X0224484Y0110013D01*
X0224484Y0108242D01*
X0225161Y0106607D01*
X0226413Y0105355D01*
X0228049Y0104678D01*
X0229819Y0104678D01*
X0231454Y0105355D01*
X0232706Y0106607D01*
X0233384Y0108242D01*
X0233384Y0110013D01*
X0232706Y0111648D01*
X0231454Y0112900D01*
X0229819Y0113578D01*
X0228049Y0113578D01*
X0227596Y0113390D02*
X0220271Y0113390D01*
X0219113Y0114189D02*
X0242405Y0114189D01*
X0243203Y0113390D02*
X0240271Y0113390D01*
X0239819Y0113578D02*
X0241454Y0112900D01*
X0242706Y0111648D01*
X0243384Y0110013D01*
X0243384Y0108242D01*
X0242706Y0106607D01*
X0241454Y0105355D01*
X0239819Y0104678D01*
X0238049Y0104678D01*
X0236413Y0105355D01*
X0235161Y0106607D01*
X0234484Y0108242D01*
X0234484Y0110013D01*
X0235161Y0111648D01*
X0236413Y0112900D01*
X0238049Y0113578D01*
X0239819Y0113578D01*
X0241763Y0112592D02*
X0244002Y0112592D01*
X0244422Y0111793D02*
X0242561Y0111793D01*
X0242977Y0110995D02*
X0244422Y0110995D01*
X0244422Y0110196D02*
X0243308Y0110196D01*
X0243384Y0109398D02*
X0244422Y0109398D01*
X0244422Y0108599D02*
X0243384Y0108599D01*
X0243201Y0107801D02*
X0244422Y0107801D01*
X0244422Y0107002D02*
X0242870Y0107002D01*
X0242303Y0106204D02*
X0244422Y0106204D01*
X0244422Y0105405D02*
X0241504Y0105405D01*
X0236363Y0105405D02*
X0231504Y0105405D01*
X0232303Y0106204D02*
X0235564Y0106204D01*
X0234997Y0107002D02*
X0232870Y0107002D01*
X0233201Y0107801D02*
X0234667Y0107801D01*
X0234484Y0108599D02*
X0233384Y0108599D01*
X0233384Y0109398D02*
X0234484Y0109398D01*
X0234560Y0110196D02*
X0233308Y0110196D01*
X0232977Y0110995D02*
X0234890Y0110995D01*
X0235306Y0111793D02*
X0232561Y0111793D01*
X0231763Y0112592D02*
X0236105Y0112592D01*
X0237596Y0113390D02*
X0230271Y0113390D01*
X0226105Y0112592D02*
X0221763Y0112592D01*
X0222561Y0111793D02*
X0225306Y0111793D01*
X0224890Y0110995D02*
X0222977Y0110995D01*
X0223308Y0110196D02*
X0224560Y0110196D01*
X0224484Y0109398D02*
X0223384Y0109398D01*
X0223384Y0108599D02*
X0224484Y0108599D01*
X0224667Y0107801D02*
X0223201Y0107801D01*
X0222870Y0107002D02*
X0224997Y0107002D01*
X0225564Y0106204D02*
X0222303Y0106204D01*
X0221504Y0105405D02*
X0226363Y0105405D01*
X0247409Y0115786D02*
X0250522Y0115786D01*
X0250522Y0116584D02*
X0246610Y0116584D01*
X0245812Y0117383D02*
X0250522Y0117383D01*
X0250522Y0118181D02*
X0245013Y0118181D01*
X0244215Y0118980D02*
X0250522Y0118980D01*
X0250522Y0119778D02*
X0230416Y0119778D01*
X0229618Y0120577D02*
X0250522Y0120577D01*
X0250522Y0121375D02*
X0229322Y0121375D01*
X0229322Y0122174D02*
X0250522Y0122174D01*
X0250522Y0122972D02*
X0229322Y0122972D01*
X0229322Y0123771D02*
X0250522Y0123771D01*
X0250522Y0124569D02*
X0229322Y0124569D01*
X0229322Y0125368D02*
X0250522Y0125368D01*
X0250522Y0126166D02*
X0229322Y0126166D01*
X0229322Y0126965D02*
X0245271Y0126965D01*
X0246573Y0126965D02*
X0250522Y0126965D01*
X0250522Y0127763D02*
X0247787Y0127763D01*
X0248217Y0128562D02*
X0250522Y0128562D01*
X0250522Y0129360D02*
X0248322Y0129360D01*
X0248161Y0130159D02*
X0250522Y0130159D01*
X0253322Y0130159D02*
X0291683Y0130159D01*
X0291522Y0129360D02*
X0253322Y0129360D01*
X0253322Y0128562D02*
X0291627Y0128562D01*
X0292057Y0127763D02*
X0253322Y0127763D01*
X0253322Y0126965D02*
X0293271Y0126965D01*
X0295786Y0127763D02*
X0295913Y0127763D01*
X0296217Y0128562D02*
X0296522Y0128562D01*
X0296522Y0129360D02*
X0296322Y0129360D01*
X0296161Y0130159D02*
X0296522Y0130159D01*
X0296522Y0130958D02*
X0295651Y0130958D01*
X0296522Y0131756D02*
X0253322Y0131756D01*
X0253322Y0130958D02*
X0292192Y0130958D01*
X0296522Y0132555D02*
X0253322Y0132555D01*
X0253322Y0133353D02*
X0296522Y0133353D01*
X0296522Y0134152D02*
X0253322Y0134152D01*
X0253322Y0134950D02*
X0296522Y0134950D01*
X0296758Y0135749D02*
X0296898Y0135749D01*
X0300422Y0133793D02*
X0313922Y0147293D01*
X0313922Y0149293D01*
X0314422Y0149793D01*
X0314422Y0150793D02*
X0313922Y0150793D01*
X0310922Y0155293D02*
X0308922Y0153293D01*
X0308922Y0145793D01*
X0300771Y0150122D02*
X0256231Y0150122D01*
X0255432Y0149323D02*
X0299972Y0149323D01*
X0299174Y0148525D02*
X0297084Y0148525D01*
X0293760Y0148525D02*
X0254634Y0148525D01*
X0253835Y0147726D02*
X0293211Y0147726D01*
X0300029Y0150920D02*
X0301022Y0150920D01*
X0301022Y0151719D02*
X0300828Y0151719D01*
X0296860Y0155711D02*
X0291820Y0155711D01*
X0292322Y0156213D02*
X0292322Y0156213D01*
X0292619Y0156510D02*
X0297022Y0156510D01*
X0297022Y0157308D02*
X0293417Y0157308D01*
X0294216Y0158107D02*
X0297022Y0158107D01*
X0297022Y0158905D02*
X0295929Y0158905D01*
X0292651Y0160502D02*
X0046075Y0160502D01*
X0045788Y0159704D02*
X0291853Y0159704D01*
X0291054Y0158905D02*
X0045458Y0158905D01*
X0044679Y0158107D02*
X0185256Y0158107D01*
X0184457Y0157308D02*
X0043321Y0157308D01*
X0044632Y0156510D02*
X0183659Y0156510D01*
X0182860Y0155711D02*
X0045431Y0155711D01*
X0045769Y0154913D02*
X0182522Y0154913D01*
X0182522Y0154114D02*
X0046075Y0154114D01*
X0075391Y0166092D02*
X0232476Y0166092D01*
X0231416Y0166891D02*
X0076451Y0166891D01*
X0076977Y0167689D02*
X0230890Y0167689D01*
X0230572Y0168488D02*
X0077296Y0168488D01*
X0077296Y0169286D02*
X0230572Y0169286D01*
X0230691Y0170085D02*
X0077177Y0170085D01*
X0076846Y0170883D02*
X0231022Y0170883D01*
X0231733Y0171682D02*
X0076135Y0171682D01*
X0054483Y0181264D02*
X0267397Y0181264D01*
X0266598Y0182062D02*
X0054814Y0182062D01*
X0054965Y0182861D02*
X0266134Y0182861D01*
X0265803Y0183659D02*
X0054965Y0183659D01*
X0054965Y0184458D02*
X0265563Y0184458D01*
X0265563Y0185256D02*
X0054965Y0185256D01*
X0054965Y0186055D02*
X0265563Y0186055D01*
X0265772Y0186853D02*
X0054664Y0186853D01*
X0054334Y0187652D02*
X0266103Y0187652D01*
X0266525Y0188450D02*
X0054003Y0188450D01*
X0053672Y0189249D02*
X0267323Y0189249D01*
X0268491Y0190047D02*
X0053047Y0190047D01*
X0052248Y0190846D02*
X0297495Y0190846D01*
X0297022Y0190047D02*
X0273234Y0190047D01*
X0274402Y0189249D02*
X0297022Y0189249D01*
X0297022Y0188450D02*
X0275201Y0188450D01*
X0275622Y0187652D02*
X0297022Y0187652D01*
X0297022Y0186853D02*
X0275953Y0186853D01*
X0276163Y0186055D02*
X0297022Y0186055D01*
X0298293Y0191644D02*
X0051450Y0191644D01*
X0050252Y0192443D02*
X0434400Y0192443D01*
X0434430Y0191644D02*
X0308550Y0191644D01*
X0309349Y0190846D02*
X0434430Y0190846D01*
X0434430Y0190047D02*
X0408554Y0190047D01*
X0409028Y0189249D02*
X0434430Y0189249D01*
X0434430Y0188450D02*
X0409028Y0188450D01*
X0409028Y0187652D02*
X0434430Y0187652D01*
X0434430Y0186853D02*
X0409028Y0186853D01*
X0409028Y0186055D02*
X0434430Y0186055D01*
X0434430Y0185256D02*
X0409028Y0185256D01*
X0409028Y0184458D02*
X0434430Y0184458D01*
X0434430Y0183659D02*
X0409028Y0183659D01*
X0409028Y0182861D02*
X0434430Y0182861D01*
X0434430Y0182062D02*
X0409028Y0182062D01*
X0409028Y0181264D02*
X0434430Y0181264D01*
X0434430Y0180465D02*
X0409028Y0180465D01*
X0409028Y0179667D02*
X0434430Y0179667D01*
X0434430Y0178868D02*
X0409028Y0178868D01*
X0409028Y0178070D02*
X0434430Y0178070D01*
X0434430Y0177271D02*
X0409028Y0177271D01*
X0409028Y0176473D02*
X0434430Y0176473D01*
X0434430Y0175674D02*
X0409028Y0175674D01*
X0409028Y0174876D02*
X0434430Y0174876D01*
X0434430Y0174077D02*
X0409028Y0174077D01*
X0409028Y0173279D02*
X0434430Y0173279D01*
X0434430Y0172480D02*
X0409028Y0172480D01*
X0409028Y0171682D02*
X0434430Y0171682D01*
X0434430Y0170883D02*
X0409028Y0170883D01*
X0409028Y0170085D02*
X0434430Y0170085D01*
X0434430Y0169286D02*
X0409028Y0169286D01*
X0408771Y0168488D02*
X0434430Y0168488D01*
X0434430Y0164495D02*
X0318572Y0164495D01*
X0318572Y0163696D02*
X0434430Y0163696D01*
X0434430Y0162898D02*
X0318572Y0162898D01*
X0314422Y0155793D02*
X0313922Y0155293D01*
X0310922Y0155293D01*
X0300422Y0133793D02*
X0300422Y0128293D01*
X0299284Y0126166D02*
X0298275Y0126166D01*
X0250522Y0114987D02*
X0248207Y0114987D01*
X0249006Y0114189D02*
X0250522Y0114189D01*
X0250522Y0113390D02*
X0249805Y0113390D01*
X0250322Y0112592D02*
X0250522Y0112592D01*
X0250522Y0111793D02*
X0250322Y0111793D01*
X0250322Y0110995D02*
X0250522Y0110995D01*
X0250431Y0110196D02*
X0250322Y0110196D01*
X0224922Y0122174D02*
X0204577Y0122174D01*
X0204781Y0122258D02*
X0205457Y0122933D01*
X0205822Y0123816D01*
X0205822Y0124770D01*
X0205457Y0125652D01*
X0204781Y0126328D01*
X0203899Y0126693D01*
X0202945Y0126693D01*
X0202062Y0126328D01*
X0201387Y0125652D01*
X0201022Y0124770D01*
X0201022Y0123816D01*
X0201387Y0122933D01*
X0202062Y0122258D01*
X0202945Y0121893D01*
X0203899Y0121893D01*
X0204781Y0122258D01*
X0205473Y0122972D02*
X0224922Y0122972D01*
X0224922Y0123771D02*
X0205803Y0123771D01*
X0205822Y0124569D02*
X0224922Y0124569D01*
X0224922Y0125368D02*
X0205574Y0125368D01*
X0204943Y0126166D02*
X0224922Y0126166D01*
X0224922Y0126965D02*
X0199715Y0126965D01*
X0198917Y0126166D02*
X0201901Y0126166D01*
X0201269Y0125368D02*
X0198118Y0125368D01*
X0197320Y0124569D02*
X0201022Y0124569D01*
X0201040Y0123771D02*
X0196521Y0123771D01*
X0195723Y0122972D02*
X0201371Y0122972D01*
X0202266Y0122174D02*
X0194924Y0122174D01*
X0200514Y0127763D02*
X0224830Y0127763D01*
X0224032Y0128562D02*
X0201312Y0128562D01*
X0201163Y0132555D02*
X0219266Y0132555D01*
X0229281Y0134828D02*
X0229957Y0134152D01*
X0230288Y0133353D02*
X0244522Y0133353D01*
X0244522Y0132555D02*
X0230322Y0132555D01*
X0230090Y0131756D02*
X0244522Y0131756D01*
X0244192Y0130958D02*
X0229481Y0130958D01*
X0229322Y0130159D02*
X0243683Y0130159D01*
X0243522Y0129360D02*
X0229322Y0129360D01*
X0229322Y0128562D02*
X0243627Y0128562D01*
X0244057Y0127763D02*
X0229322Y0127763D01*
X0229258Y0135749D02*
X0244522Y0135749D01*
X0244522Y0136547D02*
X0230004Y0136547D01*
X0230322Y0137346D02*
X0244522Y0137346D01*
X0244522Y0138144D02*
X0230322Y0138144D01*
X0230043Y0138943D02*
X0244522Y0138943D01*
X0244522Y0139741D02*
X0229368Y0139741D01*
X0227297Y0140540D02*
X0244522Y0140540D01*
X0244522Y0141338D02*
X0226498Y0141338D01*
X0225700Y0142137D02*
X0244522Y0142137D01*
X0244522Y0142935D02*
X0224901Y0142935D01*
X0224103Y0143734D02*
X0244522Y0143734D01*
X0244522Y0144532D02*
X0223304Y0144532D01*
X0222505Y0145331D02*
X0236472Y0145331D01*
X0236413Y0145355D02*
X0238049Y0144678D01*
X0239819Y0144678D01*
X0241454Y0145355D01*
X0242706Y0146607D01*
X0243384Y0148242D01*
X0243384Y0150013D01*
X0242706Y0151648D01*
X0241454Y0152900D01*
X0239819Y0153578D01*
X0238049Y0153578D01*
X0236413Y0152900D01*
X0235161Y0151648D01*
X0234484Y0150013D01*
X0234484Y0148242D01*
X0235161Y0146607D01*
X0236413Y0145355D01*
X0235639Y0146129D02*
X0222229Y0146129D01*
X0222839Y0146928D02*
X0235028Y0146928D01*
X0234698Y0147726D02*
X0223170Y0147726D01*
X0223384Y0148525D02*
X0234484Y0148525D01*
X0234484Y0149323D02*
X0223384Y0149323D01*
X0223339Y0150122D02*
X0234529Y0150122D01*
X0234860Y0150920D02*
X0223008Y0150920D01*
X0222636Y0151719D02*
X0235232Y0151719D01*
X0236030Y0152517D02*
X0221837Y0152517D01*
X0220451Y0153316D02*
X0237417Y0153316D01*
X0240451Y0153316D02*
X0252465Y0153316D01*
X0253263Y0154114D02*
X0185322Y0154114D01*
X0185322Y0153316D02*
X0187417Y0153316D01*
X0186030Y0152517D02*
X0185322Y0152517D01*
X0186022Y0154913D02*
X0254062Y0154913D01*
X0251666Y0152517D02*
X0241837Y0152517D01*
X0242636Y0151719D02*
X0250868Y0151719D01*
X0250069Y0150920D02*
X0243008Y0150920D01*
X0243339Y0150122D02*
X0249271Y0150122D01*
X0248472Y0149323D02*
X0243384Y0149323D01*
X0243384Y0148525D02*
X0247674Y0148525D01*
X0246875Y0147726D02*
X0243170Y0147726D01*
X0242839Y0146928D02*
X0246077Y0146928D01*
X0245278Y0146129D02*
X0242229Y0146129D01*
X0241396Y0145331D02*
X0244522Y0145331D01*
X0216472Y0145331D02*
X0211396Y0145331D01*
X0211454Y0145355D02*
X0212706Y0146607D01*
X0213384Y0148242D01*
X0213384Y0150013D01*
X0212706Y0151648D01*
X0211454Y0152900D01*
X0209819Y0153578D01*
X0208049Y0153578D01*
X0206413Y0152900D01*
X0205161Y0151648D01*
X0204484Y0150013D01*
X0204484Y0148242D01*
X0205161Y0146607D01*
X0206413Y0145355D01*
X0208049Y0144678D01*
X0209819Y0144678D01*
X0211454Y0145355D01*
X0212229Y0146129D02*
X0215639Y0146129D01*
X0215028Y0146928D02*
X0212839Y0146928D01*
X0213170Y0147726D02*
X0214698Y0147726D01*
X0214484Y0148525D02*
X0213384Y0148525D01*
X0213384Y0149323D02*
X0214484Y0149323D01*
X0214529Y0150122D02*
X0213339Y0150122D01*
X0213008Y0150920D02*
X0214860Y0150920D01*
X0215232Y0151719D02*
X0212636Y0151719D01*
X0211837Y0152517D02*
X0216030Y0152517D01*
X0217417Y0153316D02*
X0210451Y0153316D01*
X0207417Y0153316D02*
X0200451Y0153316D01*
X0199819Y0153578D02*
X0198049Y0153578D01*
X0196413Y0152900D01*
X0195161Y0151648D01*
X0194484Y0150013D01*
X0194484Y0148242D01*
X0195161Y0146607D01*
X0196413Y0145355D01*
X0198049Y0144678D01*
X0199819Y0144678D01*
X0201454Y0145355D01*
X0202706Y0146607D01*
X0203384Y0148242D01*
X0203384Y0150013D01*
X0202706Y0151648D01*
X0201454Y0152900D01*
X0199819Y0153578D01*
X0201837Y0152517D02*
X0206030Y0152517D01*
X0205232Y0151719D02*
X0202636Y0151719D01*
X0203008Y0150920D02*
X0204860Y0150920D01*
X0204529Y0150122D02*
X0203339Y0150122D01*
X0203384Y0149323D02*
X0204484Y0149323D01*
X0204484Y0148525D02*
X0203384Y0148525D01*
X0203170Y0147726D02*
X0204698Y0147726D01*
X0205028Y0146928D02*
X0202839Y0146928D01*
X0202229Y0146129D02*
X0205639Y0146129D01*
X0206472Y0145331D02*
X0201396Y0145331D01*
X0196472Y0145331D02*
X0191396Y0145331D01*
X0192229Y0146129D02*
X0195639Y0146129D01*
X0195028Y0146928D02*
X0192839Y0146928D01*
X0193170Y0147726D02*
X0194698Y0147726D01*
X0194484Y0148525D02*
X0193384Y0148525D01*
X0193384Y0149323D02*
X0194484Y0149323D01*
X0194529Y0150122D02*
X0193339Y0150122D01*
X0193008Y0150920D02*
X0194860Y0150920D01*
X0195232Y0151719D02*
X0192636Y0151719D01*
X0191837Y0152517D02*
X0196030Y0152517D01*
X0197417Y0153316D02*
X0190451Y0153316D01*
X0182522Y0153316D02*
X0180451Y0153316D01*
X0181837Y0152517D02*
X0182522Y0152517D01*
X0185322Y0146129D02*
X0185639Y0146129D01*
X0185322Y0145331D02*
X0186472Y0145331D01*
X0176105Y0112592D02*
X0171763Y0112592D01*
X0172561Y0111793D02*
X0175306Y0111793D01*
X0174890Y0110995D02*
X0172977Y0110995D01*
X0173308Y0110196D02*
X0174560Y0110196D01*
X0174484Y0109398D02*
X0173384Y0109398D01*
X0173384Y0108599D02*
X0174484Y0108599D01*
X0174667Y0107801D02*
X0173201Y0107801D01*
X0172870Y0107002D02*
X0174997Y0107002D01*
X0175564Y0106204D02*
X0172303Y0106204D01*
X0171504Y0105405D02*
X0176363Y0105405D01*
X0251349Y0061487D02*
X0395995Y0061487D01*
X0434335Y0193241D02*
X0048325Y0193241D01*
X0043007Y0193241D02*
X0030997Y0193241D01*
X0030932Y0192443D02*
X0041080Y0192443D01*
X0039882Y0191644D02*
X0030910Y0191644D01*
X0030910Y0190846D02*
X0039084Y0190846D01*
X0038285Y0190047D02*
X0030910Y0190047D01*
X0030910Y0189249D02*
X0037660Y0189249D01*
X0037329Y0188450D02*
X0030910Y0188450D01*
X0030910Y0187652D02*
X0036998Y0187652D01*
X0036668Y0186853D02*
X0030910Y0186853D01*
X0030910Y0186055D02*
X0036367Y0186055D01*
X0036367Y0185256D02*
X0030910Y0185256D01*
X0030910Y0184458D02*
X0036367Y0184458D01*
X0036367Y0183659D02*
X0030910Y0183659D01*
X0030910Y0182861D02*
X0036367Y0182861D01*
X0036518Y0182062D02*
X0030910Y0182062D01*
X0030910Y0181264D02*
X0036849Y0181264D01*
X0037180Y0180465D02*
X0030910Y0180465D01*
X0030910Y0179667D02*
X0037510Y0179667D01*
X0037924Y0178868D02*
X0030910Y0178868D01*
X0030910Y0178070D02*
X0038722Y0178070D01*
X0039521Y0177271D02*
X0030910Y0177271D01*
X0030910Y0176473D02*
X0040320Y0176473D01*
X0031256Y0194040D02*
X0434076Y0194040D01*
X0433816Y0194838D02*
X0031516Y0194838D01*
X0031919Y0195637D02*
X0433413Y0195637D01*
X0432833Y0196435D02*
X0032499Y0196435D01*
X0033218Y0197234D02*
X0432114Y0197234D01*
X0431015Y0198032D02*
X0034317Y0198032D01*
X0036347Y0198831D02*
X0428985Y0198831D01*
X0072117Y0086241D02*
X0030910Y0086241D01*
X0030910Y0087039D02*
X0071267Y0087039D01*
X0070829Y0087838D02*
X0030910Y0087838D01*
X0030910Y0088636D02*
X0070572Y0088636D01*
X0070572Y0089435D02*
X0030910Y0089435D01*
X0030910Y0090233D02*
X0070753Y0090233D01*
X0041180Y0082248D02*
X0030910Y0082248D01*
X0030910Y0081450D02*
X0039924Y0081450D01*
X0039125Y0080651D02*
X0030910Y0080651D01*
X0030910Y0079853D02*
X0038327Y0079853D01*
X0037677Y0079054D02*
X0030910Y0079054D01*
X0030910Y0078256D02*
X0037346Y0078256D01*
X0037016Y0077457D02*
X0030910Y0077457D01*
X0030910Y0076659D02*
X0036685Y0076659D01*
X0036367Y0075860D02*
X0030910Y0075860D01*
X0030910Y0075062D02*
X0036367Y0075062D01*
X0036367Y0074263D02*
X0030910Y0074263D01*
X0030910Y0073465D02*
X0036367Y0073465D01*
X0036367Y0072666D02*
X0030910Y0072666D01*
X0030910Y0071868D02*
X0036501Y0071868D01*
X0036832Y0071069D02*
X0030910Y0071069D01*
X0030910Y0070271D02*
X0037162Y0070271D01*
X0037493Y0069472D02*
X0030910Y0069472D01*
X0030910Y0068674D02*
X0037882Y0068674D01*
X0038681Y0067875D02*
X0030910Y0067875D01*
X0030910Y0067077D02*
X0039479Y0067077D01*
X0040278Y0066278D02*
X0030910Y0066278D01*
X0030965Y0065480D02*
X0042035Y0065480D01*
D19*
X0039922Y0063293D03*
X0049922Y0063293D03*
X0059922Y0063293D03*
X0069922Y0063293D03*
X0079922Y0063293D03*
X0089922Y0063293D03*
X0099922Y0063293D03*
X0109922Y0063293D03*
X0119922Y0063293D03*
X0129922Y0063293D03*
X0139922Y0063293D03*
X0149922Y0063293D03*
X0159922Y0063293D03*
X0169922Y0063293D03*
X0179922Y0063293D03*
X0189922Y0063293D03*
X0199922Y0063293D03*
X0209922Y0063293D03*
X0219922Y0063293D03*
X0229922Y0063293D03*
X0239922Y0063293D03*
X0249922Y0073293D03*
X0259922Y0073293D03*
X0269922Y0073293D03*
X0279922Y0073293D03*
X0289922Y0073293D03*
X0299922Y0073293D03*
X0309922Y0073293D03*
X0319922Y0073293D03*
X0329922Y0073293D03*
X0339922Y0073293D03*
X0349922Y0073293D03*
X0359922Y0073293D03*
X0369922Y0073293D03*
X0379922Y0073293D03*
X0379922Y0083293D03*
X0369922Y0083293D03*
X0359922Y0083293D03*
X0349922Y0083293D03*
X0339922Y0083293D03*
X0329922Y0083293D03*
X0319922Y0083293D03*
X0309922Y0083293D03*
X0308422Y0090293D03*
X0311922Y0090293D03*
X0314922Y0091293D03*
X0317922Y0093793D03*
X0317922Y0096793D03*
X0317922Y0099793D03*
X0318422Y0102793D03*
X0315422Y0103793D03*
X0312422Y0104793D03*
X0311422Y0108293D03*
X0305422Y0106793D03*
X0303922Y0103793D03*
X0300422Y0105793D03*
X0305422Y0110293D03*
X0304422Y0113293D03*
X0311422Y0111793D03*
X0311422Y0115793D03*
X0315422Y0116293D03*
X0316222Y0119793D03*
X0319122Y0119793D03*
X0320422Y0122293D03*
X0320422Y0125293D03*
X0323422Y0125293D03*
X0326422Y0125293D03*
X0329422Y0125293D03*
X0329422Y0133293D03*
X0326422Y0133293D03*
X0323422Y0133293D03*
X0316922Y0133293D03*
X0319922Y0137293D03*
X0319922Y0143293D03*
X0313422Y0139793D03*
X0310422Y0139793D03*
X0307922Y0137293D03*
X0295422Y0137793D03*
X0295422Y0142293D03*
X0295422Y0146793D03*
X0279922Y0148793D03*
X0279922Y0143293D03*
X0269922Y0143293D03*
X0269922Y0148793D03*
X0259922Y0148793D03*
X0257422Y0146293D03*
X0259922Y0143293D03*
X0259922Y0133293D03*
X0269922Y0133293D03*
X0279922Y0133293D03*
X0293922Y0129293D03*
X0295422Y0125293D03*
X0300422Y0128293D03*
X0303922Y0127793D03*
X0306922Y0127793D03*
X0310422Y0127793D03*
X0310922Y0124793D03*
X0310422Y0121793D03*
X0307922Y0123793D03*
X0304422Y0119293D03*
X0304422Y0116293D03*
X0296922Y0119293D03*
X0294422Y0119293D03*
X0294422Y0113293D03*
X0296922Y0113293D03*
X0289922Y0103293D03*
X0298422Y0102793D03*
X0298922Y0099793D03*
X0298922Y0096793D03*
X0298922Y0093793D03*
X0301922Y0091293D03*
X0304922Y0090293D03*
X0299922Y0083293D03*
X0289922Y0083293D03*
X0279922Y0083293D03*
X0269922Y0083293D03*
X0259922Y0083293D03*
X0254922Y0090293D03*
X0251922Y0090293D03*
X0248922Y0090293D03*
X0249922Y0083293D03*
X0248922Y0098293D03*
X0251922Y0108293D03*
X0259922Y0113293D03*
X0269922Y0113293D03*
X0279922Y0113293D03*
X0283422Y0111793D03*
X0283422Y0120293D03*
X0279922Y0123293D03*
X0269922Y0123293D03*
X0259922Y0123293D03*
X0245922Y0129293D03*
X0242422Y0125793D03*
X0239422Y0125793D03*
X0236422Y0125793D03*
X0233422Y0125793D03*
X0230422Y0125793D03*
X0227922Y0132793D03*
X0220922Y0134293D03*
X0227922Y0137793D03*
X0203422Y0124293D03*
X0211922Y0119293D03*
X0211922Y0116293D03*
X0214922Y0116293D03*
X0217922Y0116293D03*
X0193422Y0134793D03*
X0158922Y0134293D03*
X0152422Y0133793D03*
X0149422Y0133793D03*
X0138422Y0130793D03*
X0138422Y0127293D03*
X0132422Y0131793D03*
X0132422Y0134793D03*
X0127922Y0136793D03*
X0119922Y0128293D03*
X0109922Y0128293D03*
X0099922Y0128293D03*
X0089922Y0128293D03*
X0079922Y0128293D03*
X0069922Y0128293D03*
X0059922Y0128293D03*
X0034922Y0123293D03*
X0034922Y0133293D03*
X0034922Y0143293D03*
X0034922Y0153293D03*
X0034922Y0163293D03*
X0034922Y0173293D03*
X0034922Y0183293D03*
X0034922Y0193293D03*
X0059922Y0193293D03*
X0069922Y0193293D03*
X0079922Y0193293D03*
X0089922Y0193293D03*
X0099922Y0193293D03*
X0109922Y0193293D03*
X0119922Y0193293D03*
X0129922Y0193293D03*
X0139922Y0193293D03*
X0149922Y0193293D03*
X0159922Y0193293D03*
X0169922Y0193293D03*
X0179922Y0193293D03*
X0189922Y0193293D03*
X0199922Y0193293D03*
X0209922Y0193293D03*
X0219922Y0193293D03*
X0229922Y0193293D03*
X0239922Y0193293D03*
X0249922Y0193293D03*
X0259922Y0193293D03*
X0269922Y0193293D03*
X0279922Y0193293D03*
X0289922Y0193293D03*
X0299922Y0193293D03*
X0309922Y0193293D03*
X0319922Y0193293D03*
X0329922Y0193293D03*
X0339922Y0193293D03*
X0349922Y0193293D03*
X0359922Y0193293D03*
X0369922Y0193293D03*
X0379922Y0193293D03*
X0389922Y0193293D03*
X0399922Y0193293D03*
X0409922Y0193293D03*
X0429922Y0193293D03*
X0429922Y0173293D03*
X0429922Y0163293D03*
X0419922Y0163293D03*
X0409922Y0163293D03*
X0409922Y0153293D03*
X0419922Y0153293D03*
X0429922Y0153293D03*
X0419922Y0143293D03*
X0409922Y0143293D03*
X0409922Y0133293D03*
X0419922Y0133293D03*
X0419922Y0123293D03*
X0409922Y0123293D03*
X0399922Y0123293D03*
X0389922Y0123293D03*
X0379922Y0123293D03*
X0369922Y0123293D03*
X0359922Y0123293D03*
X0349922Y0123293D03*
X0349922Y0133293D03*
X0359922Y0133293D03*
X0369922Y0133293D03*
X0379922Y0133293D03*
X0389922Y0133293D03*
X0399922Y0133293D03*
X0379922Y0143293D03*
X0369922Y0143293D03*
X0359922Y0143293D03*
X0359922Y0153293D03*
X0369922Y0153293D03*
X0379922Y0153293D03*
X0379922Y0163293D03*
X0369922Y0163293D03*
X0359922Y0163293D03*
X0359922Y0173293D03*
X0369922Y0173293D03*
X0379922Y0173293D03*
X0379922Y0183293D03*
X0369922Y0183293D03*
X0359922Y0183293D03*
X0349922Y0183293D03*
X0339922Y0183293D03*
X0339922Y0173293D03*
X0349922Y0173293D03*
X0329922Y0173293D03*
X0319922Y0173293D03*
X0309922Y0173293D03*
X0319922Y0163293D03*
X0329922Y0163293D03*
X0329922Y0153293D03*
X0319922Y0153293D03*
X0308922Y0161293D03*
X0295422Y0161293D03*
X0289922Y0163293D03*
X0279922Y0163293D03*
X0269922Y0163293D03*
X0269922Y0173293D03*
X0279922Y0173293D03*
X0289922Y0173293D03*
X0329922Y0143293D03*
X0313922Y0127793D03*
X0319922Y0113293D03*
X0329922Y0113293D03*
X0329922Y0103293D03*
X0329922Y0093293D03*
X0320922Y0093293D03*
X0339922Y0093293D03*
X0349922Y0093293D03*
X0359922Y0093293D03*
X0369922Y0093293D03*
X0379922Y0093293D03*
X0389922Y0093293D03*
X0399922Y0093293D03*
X0409922Y0093293D03*
X0419922Y0093293D03*
X0429922Y0093293D03*
X0429922Y0103293D03*
X0419922Y0103293D03*
X0409922Y0103293D03*
X0409922Y0113293D03*
X0419922Y0113293D03*
X0379922Y0113293D03*
X0369922Y0113293D03*
X0359922Y0113293D03*
X0359922Y0103293D03*
X0369922Y0103293D03*
X0379922Y0103293D03*
X0429922Y0083293D03*
X0429922Y0063293D03*
X0409922Y0063293D03*
X0404922Y0063293D03*
X0394922Y0063293D03*
X0389922Y0063293D03*
X0379922Y0063293D03*
X0369922Y0063293D03*
X0359922Y0063293D03*
X0349922Y0063293D03*
X0339922Y0063293D03*
X0329922Y0063293D03*
X0319922Y0063293D03*
X0309922Y0063293D03*
X0299922Y0063293D03*
X0289922Y0063293D03*
X0279922Y0063293D03*
X0269922Y0063293D03*
X0259922Y0063293D03*
X0279922Y0093293D03*
X0289922Y0093293D03*
X0279922Y0103293D03*
X0269922Y0103293D03*
X0160422Y0122793D03*
X0157422Y0124793D03*
X0153422Y0119293D03*
X0034922Y0113293D03*
X0034922Y0103293D03*
X0034922Y0093293D03*
X0034922Y0083293D03*
X0034922Y0073293D03*
D20*
X0045666Y0074041D03*
X0045666Y0184277D03*
X0419646Y0184277D03*
X0419682Y0074041D03*
D21*
X0398028Y0079159D02*
X0398028Y0061399D01*
X0396422Y0059793D01*
X0250922Y0059793D01*
X0245922Y0064793D01*
X0245922Y0112793D01*
X0242422Y0116293D01*
X0229422Y0116293D01*
X0226422Y0119293D01*
X0226422Y0128293D01*
X0224422Y0130293D01*
X0200922Y0130293D01*
X0193434Y0122805D01*
X0186501Y0122805D01*
X0158922Y0134293D02*
X0158922Y0149116D01*
X0158934Y0149128D01*
X0218934Y0149128D02*
X0218934Y0146781D01*
X0227922Y0137793D01*
M02*
