%
M48
M72
T01C0.01200
T02C0.02756
T03C0.03500
T04C0.03937
T05C0.04724
T06C0.12598
%
T01
X39922Y63293
X49922Y63293
X59922Y63293
X69922Y63293
X79922Y63293
X89922Y63293
X99922Y63293
X109922Y63293
X119922Y63293
X129922Y63293
X139922Y63293
X149922Y63293
X159922Y63293
X169922Y63293
X179922Y63293
X189922Y63293
X199922Y63293
X209922Y63293
X219922Y63293
X229922Y63293
X239922Y63293
X249922Y73293
X259922Y73293
X269922Y73293
X279922Y73293
X289922Y73293
X299922Y73293
X309922Y73293
X319922Y73293
X329922Y73293
X339922Y73293
X349922Y73293
X359922Y73293
X369922Y73293
X379922Y73293
X379922Y83293
X369922Y83293
X359922Y83293
X349922Y83293
X339922Y83293
X329922Y83293
X319922Y83293
X309922Y83293
X299922Y83293
X289922Y83293
X279922Y83293
X269922Y83293
X259922Y83293
X254922Y90293
X251922Y90293
X248922Y90293
X249922Y83293
X248922Y98293
X251922Y108293
X259922Y113293
X269922Y113293
X279922Y113293
X279922Y103293
X289922Y103293
X300422Y105793
X304422Y113293
X311422Y115793
X304422Y116293
X304422Y119293
X307922Y123793
X310922Y124793
X310422Y127793
X313922Y127793
X320422Y125293
X323422Y125293
X326422Y125293
X329422Y125293
X320422Y122293
X319122Y119793
X316222Y119793
X310422Y121793
X306922Y127793
X303922Y127793
X300422Y128293
X295422Y125293
X293922Y129293
X279922Y133293
X269922Y133293
X259922Y133293
X245922Y129293
X242422Y125793
X239422Y125793
X236422Y125793
X233422Y125793
X230422Y125793
X227922Y132793
X220922Y134293
X227922Y137793
X203422Y124293
X211922Y119293
X211922Y116293
X214922Y116293
X217922Y116293
X193422Y134793
X158922Y134293
X152422Y133793
X149422Y133793
X138422Y130793
X138422Y127293
X132422Y131793
X132422Y134793
X127922Y136793
X119922Y128293
X109922Y128293
X99922Y128293
X89922Y128293
X79922Y128293
X69922Y128293
X59922Y128293
X34922Y123293
X34922Y133293
X34922Y143293
X34922Y153293
X34922Y163293
X34922Y173293
X34922Y183293
X34922Y193293
X59922Y193293
X69922Y193293
X79922Y193293
X89922Y193293
X99922Y193293
X109922Y193293
X119922Y193293
X129922Y193293
X139922Y193293
X149922Y193293
X159922Y193293
X169922Y193293
X179922Y193293
X189922Y193293
X199922Y193293
X209922Y193293
X219922Y193293
X229922Y193293
X239922Y193293
X249922Y193293
X259922Y193293
X269922Y193293
X279922Y193293
X289922Y193293
X299922Y193293
X309922Y193293
X319922Y193293
X329922Y193293
X339922Y193293
X349922Y193293
X359922Y193293
X369922Y193293
X379922Y193293
X389922Y193293
X399922Y193293
X409922Y193293
X429922Y193293
X429922Y173293
X429922Y163293
X419922Y163293
X409922Y163293
X409922Y153293
X419922Y153293
X429922Y153293
X419922Y143293
X409922Y143293
X409922Y133293
X419922Y133293
X419922Y123293
X409922Y123293
X399922Y123293
X389922Y123293
X379922Y123293
X369922Y123293
X359922Y123293
X349922Y123293
X349922Y133293
X359922Y133293
X369922Y133293
X379922Y133293
X389922Y133293
X399922Y133293
X379922Y143293
X369922Y143293
X359922Y143293
X359922Y153293
X369922Y153293
X379922Y153293
X379922Y163293
X369922Y163293
X359922Y163293
X359922Y173293
X369922Y173293
X379922Y173293
X379922Y183293
X369922Y183293
X359922Y183293
X349922Y183293
X339922Y183293
X339922Y173293
X349922Y173293
X329922Y173293
X319922Y173293
X309922Y173293
X319922Y163293
X329922Y163293
X329922Y153293
X319922Y153293
X308922Y161293
X295422Y161293
X289922Y163293
X279922Y163293
X269922Y163293
X269922Y173293
X279922Y173293
X289922Y173293
X295422Y146793
X295422Y142293
X295422Y137793
X279922Y143293
X269922Y143293
X259922Y143293
X259922Y123293
X269922Y123293
X279922Y123293
X269922Y103293
X279922Y93293
X289922Y93293
X319922Y93293
X329922Y93293
X339922Y93293
X349922Y93293
X359922Y93293
X369922Y93293
X379922Y93293
X389922Y93293
X399922Y93293
X409922Y93293
X419922Y93293
X429922Y93293
X429922Y103293
X419922Y103293
X409922Y103293
X409922Y113293
X419922Y113293
X379922Y113293
X369922Y113293
X359922Y113293
X359922Y103293
X369922Y103293
X379922Y103293
X329922Y103293
X319922Y103293
X319922Y113293
X329922Y113293
X329422Y133293
X326422Y133293
X323422Y133293
X316922Y133293
X319922Y137293
X319922Y143293
X329922Y143293
X429922Y83293
X429922Y63293
X409922Y63293
X404922Y63293
X394922Y63293
X389922Y63293
X379922Y63293
X369922Y63293
X359922Y63293
X349922Y63293
X339922Y63293
X329922Y63293
X319922Y63293
X309922Y63293
X299922Y63293
X289922Y63293
X279922Y63293
X269922Y63293
X259922Y63293
X153422Y119293
X34922Y113293
X34922Y103293
X34922Y93293
X34922Y83293
X34922Y73293
T02
X41926Y96781
X41926Y104655
X41926Y112529
X41926Y120403
X41926Y137600
X41926Y145474
X41926Y153348
X41926Y161222
T03
X68934Y149128
X78934Y149128
X88934Y149128
X98934Y149128
X108934Y149128
X118934Y149128
X128934Y149128
X138934Y149128
X148934Y149128
X158934Y149128
X168934Y149128
X178934Y149128
X188934Y149128
X198934Y149128
X208934Y149128
X218934Y149128
X228934Y149128
X238934Y149128
X238934Y109128
X228934Y109128
X218934Y109128
X208934Y109128
X198934Y109128
X188934Y109128
X178934Y109128
X168934Y109128
X158934Y109128
X148934Y109128
X138934Y109128
X128934Y109128
X118934Y109128
X108934Y109128
X98934Y109128
X88934Y109128
X78934Y109128
X68934Y109128
T04
X270863Y185293
X284642Y185293
T05
X233934Y169128
X233934Y89128
X73934Y89128
X73934Y169128
T06
X45666Y184277
X45666Y74041
X419682Y74041
X419646Y184277
M30
