G75*
G70*
%OFA0B0*%
%FSLAX24Y24*%
%IPPOS*%
%LPD*%
%AMOC8*
5,1,8,0,0,1.08239X$1,22.5*
%
%ADD10C,0.0010*%
%ADD11R,0.0118X0.0295*%
%ADD12R,0.0295X0.0118*%
%ADD13R,0.0984X0.0984*%
%ADD14R,0.0117X0.0335*%
%ADD15R,0.0945X0.0650*%
%ADD16R,0.0276X0.0110*%
%ADD17R,0.0512X0.0512*%
%ADD18R,0.0354X0.0276*%
%ADD19R,0.0276X0.0354*%
%ADD20R,0.0315X0.0472*%
%ADD21R,0.0394X0.1811*%
%ADD22R,0.0630X0.1339*%
%ADD23R,0.0630X0.0551*%
%ADD24R,0.0551X0.0630*%
%ADD25R,0.0315X0.0866*%
%ADD26R,0.0709X0.0630*%
%ADD27R,0.0157X0.0531*%
%ADD28R,0.0591X0.0748*%
%ADD29C,0.0437*%
%ADD30R,0.0250X0.0500*%
%ADD31C,0.0080*%
%ADD32C,0.0320*%
%ADD33C,0.0120*%
%ADD34C,0.0100*%
%ADD35C,0.0320*%
%ADD36C,0.0160*%
%ADD37C,0.0318*%
%ADD38C,0.0060*%
%ADD39C,0.0560*%
%ADD40C,0.0436*%
%ADD41C,0.0400*%
D10*
X007250Y005507D02*
X007250Y006807D01*
X008400Y006807D01*
X008400Y005507D01*
X007250Y005507D01*
X007250Y005514D02*
X008400Y005514D01*
X008400Y005523D02*
X007250Y005523D01*
X007250Y005531D02*
X008400Y005531D01*
X008400Y005540D02*
X007250Y005540D01*
X007250Y005548D02*
X008400Y005548D01*
X008400Y005557D02*
X007250Y005557D01*
X007250Y005565D02*
X008400Y005565D01*
X008400Y005574D02*
X007250Y005574D01*
X007250Y005582D02*
X008400Y005582D01*
X008400Y005591D02*
X007250Y005591D01*
X007250Y005599D02*
X008400Y005599D01*
X008400Y005608D02*
X007250Y005608D01*
X007250Y005616D02*
X008400Y005616D01*
X008400Y005625D02*
X007250Y005625D01*
X007250Y005633D02*
X008400Y005633D01*
X008400Y005642D02*
X007250Y005642D01*
X007250Y005650D02*
X008400Y005650D01*
X008400Y005659D02*
X007250Y005659D01*
X007250Y005667D02*
X008400Y005667D01*
X008400Y005676D02*
X007250Y005676D01*
X007250Y005684D02*
X008400Y005684D01*
X008400Y005693D02*
X007250Y005693D01*
X007250Y005701D02*
X008400Y005701D01*
X008400Y005710D02*
X007250Y005710D01*
X007250Y005718D02*
X008400Y005718D01*
X008400Y005727D02*
X007250Y005727D01*
X007250Y005735D02*
X008400Y005735D01*
X008400Y005744D02*
X007250Y005744D01*
X007250Y005752D02*
X008400Y005752D01*
X008400Y005761D02*
X007250Y005761D01*
X007250Y005769D02*
X008400Y005769D01*
X008400Y005778D02*
X007250Y005778D01*
X007250Y005786D02*
X008400Y005786D01*
X008400Y005795D02*
X007250Y005795D01*
X007250Y005803D02*
X008400Y005803D01*
X008400Y005812D02*
X007250Y005812D01*
X007250Y005820D02*
X008400Y005820D01*
X008400Y005829D02*
X007250Y005829D01*
X007250Y005837D02*
X008400Y005837D01*
X008400Y005846D02*
X007250Y005846D01*
X007250Y005854D02*
X008400Y005854D01*
X008400Y005863D02*
X007250Y005863D01*
X007250Y005871D02*
X008400Y005871D01*
X008400Y005880D02*
X007250Y005880D01*
X007250Y005888D02*
X008400Y005888D01*
X008400Y005897D02*
X007250Y005897D01*
X007250Y005905D02*
X008400Y005905D01*
X008400Y005914D02*
X007250Y005914D01*
X007250Y005922D02*
X008400Y005922D01*
X008400Y005931D02*
X007250Y005931D01*
X007250Y005939D02*
X008400Y005939D01*
X008400Y005948D02*
X007250Y005948D01*
X007250Y005956D02*
X008400Y005956D01*
X008400Y005965D02*
X007250Y005965D01*
X007250Y005973D02*
X008400Y005973D01*
X008400Y005982D02*
X007250Y005982D01*
X007250Y005990D02*
X008400Y005990D01*
X008400Y005999D02*
X007250Y005999D01*
X007250Y006007D02*
X008400Y006007D01*
X008400Y006016D02*
X007250Y006016D01*
X007250Y006024D02*
X008400Y006024D01*
X008400Y006033D02*
X007250Y006033D01*
X007250Y006041D02*
X008400Y006041D01*
X008400Y006050D02*
X007250Y006050D01*
X007250Y006058D02*
X008400Y006058D01*
X008400Y006067D02*
X007250Y006067D01*
X007250Y006075D02*
X008400Y006075D01*
X008400Y006084D02*
X007250Y006084D01*
X007250Y006092D02*
X008400Y006092D01*
X008400Y006101D02*
X007250Y006101D01*
X007250Y006109D02*
X008400Y006109D01*
X008400Y006118D02*
X007250Y006118D01*
X007250Y006126D02*
X008400Y006126D01*
X008400Y006135D02*
X007250Y006135D01*
X007250Y006143D02*
X008400Y006143D01*
X008400Y006152D02*
X007250Y006152D01*
X007250Y006160D02*
X008400Y006160D01*
X008400Y006169D02*
X007250Y006169D01*
X007250Y006177D02*
X008400Y006177D01*
X008400Y006186D02*
X007250Y006186D01*
X007250Y006194D02*
X008400Y006194D01*
X008400Y006203D02*
X007250Y006203D01*
X007250Y006211D02*
X008400Y006211D01*
X008400Y006220D02*
X007250Y006220D01*
X007250Y006228D02*
X008400Y006228D01*
X008400Y006237D02*
X007250Y006237D01*
X007250Y006245D02*
X008400Y006245D01*
X008400Y006254D02*
X007250Y006254D01*
X007250Y006262D02*
X008400Y006262D01*
X008400Y006271D02*
X007250Y006271D01*
X007250Y006279D02*
X008400Y006279D01*
X008400Y006288D02*
X007250Y006288D01*
X007250Y006296D02*
X008400Y006296D01*
X008400Y006305D02*
X007250Y006305D01*
X007250Y006313D02*
X008400Y006313D01*
X008400Y006322D02*
X007250Y006322D01*
X007250Y006330D02*
X008400Y006330D01*
X008400Y006339D02*
X007250Y006339D01*
X007250Y006347D02*
X008400Y006347D01*
X008400Y006356D02*
X007250Y006356D01*
X007250Y006364D02*
X008400Y006364D01*
X008400Y006373D02*
X007250Y006373D01*
X007250Y006381D02*
X008400Y006381D01*
X008400Y006390D02*
X007250Y006390D01*
X007250Y006398D02*
X008400Y006398D01*
X008400Y006407D02*
X007250Y006407D01*
X007250Y006415D02*
X008400Y006415D01*
X008400Y006424D02*
X007250Y006424D01*
X007250Y006432D02*
X008400Y006432D01*
X008400Y006441D02*
X007250Y006441D01*
X007250Y006449D02*
X008400Y006449D01*
X008400Y006458D02*
X007250Y006458D01*
X007250Y006466D02*
X008400Y006466D01*
X008400Y006475D02*
X007250Y006475D01*
X007250Y006483D02*
X008400Y006483D01*
X008400Y006492D02*
X007250Y006492D01*
X007250Y006500D02*
X008400Y006500D01*
X008400Y006509D02*
X007250Y006509D01*
X007250Y006517D02*
X008400Y006517D01*
X008400Y006526D02*
X007250Y006526D01*
X007250Y006534D02*
X008400Y006534D01*
X008400Y006543D02*
X007250Y006543D01*
X007250Y006551D02*
X008400Y006551D01*
X008400Y006560D02*
X007250Y006560D01*
X007250Y006568D02*
X008400Y006568D01*
X008400Y006577D02*
X007250Y006577D01*
X007250Y006585D02*
X008400Y006585D01*
X008400Y006594D02*
X007250Y006594D01*
X007250Y006602D02*
X008400Y006602D01*
X008400Y006611D02*
X007250Y006611D01*
X007250Y006619D02*
X008400Y006619D01*
X008400Y006628D02*
X007250Y006628D01*
X007250Y006636D02*
X008400Y006636D01*
X008400Y006645D02*
X007250Y006645D01*
X007250Y006653D02*
X008400Y006653D01*
X008400Y006662D02*
X007250Y006662D01*
X007250Y006670D02*
X008400Y006670D01*
X008400Y006679D02*
X007250Y006679D01*
X007250Y006687D02*
X008400Y006687D01*
X008400Y006696D02*
X007250Y006696D01*
X007250Y006704D02*
X008400Y006704D01*
X008400Y006713D02*
X007250Y006713D01*
X007250Y006721D02*
X008400Y006721D01*
X008400Y006730D02*
X007250Y006730D01*
X007250Y006738D02*
X008400Y006738D01*
X008400Y006747D02*
X007250Y006747D01*
X007250Y006755D02*
X008400Y006755D01*
X008400Y006764D02*
X007250Y006764D01*
X007250Y006772D02*
X008400Y006772D01*
X008400Y006781D02*
X007250Y006781D01*
X007250Y006789D02*
X008400Y006789D01*
X008400Y006798D02*
X007250Y006798D01*
X007250Y006806D02*
X008400Y006806D01*
X016350Y007557D02*
X016350Y008022D01*
X017600Y008022D01*
X017600Y008030D02*
X016359Y008030D01*
X016367Y008039D02*
X017600Y008039D01*
X017600Y008047D02*
X017132Y008047D01*
X017129Y008045D02*
X017179Y008094D01*
X017179Y008107D01*
X017600Y008107D01*
X017600Y007357D01*
X016850Y007357D01*
X016850Y007557D01*
X016350Y007557D01*
X016350Y007563D02*
X017600Y007563D01*
X017600Y007571D02*
X016350Y007571D01*
X016350Y007580D02*
X017600Y007580D01*
X017600Y007588D02*
X016350Y007588D01*
X016350Y007597D02*
X017600Y007597D01*
X017600Y007605D02*
X016350Y007605D01*
X016350Y007614D02*
X017600Y007614D01*
X017600Y007622D02*
X016350Y007622D01*
X016350Y007631D02*
X017600Y007631D01*
X017600Y007639D02*
X016350Y007639D01*
X016350Y007648D02*
X017600Y007648D01*
X017600Y007656D02*
X016350Y007656D01*
X016350Y007665D02*
X017600Y007665D01*
X017600Y007673D02*
X016350Y007673D01*
X016350Y007682D02*
X017600Y007682D01*
X017600Y007690D02*
X016350Y007690D01*
X016350Y007699D02*
X017600Y007699D01*
X017600Y007707D02*
X016350Y007707D01*
X016350Y007716D02*
X017600Y007716D01*
X017600Y007724D02*
X016350Y007724D01*
X016350Y007733D02*
X017600Y007733D01*
X017600Y007741D02*
X016350Y007741D01*
X016350Y007750D02*
X017600Y007750D01*
X017600Y007758D02*
X016350Y007758D01*
X016350Y007767D02*
X017600Y007767D01*
X017600Y007775D02*
X016350Y007775D01*
X016350Y007784D02*
X017600Y007784D01*
X017600Y007792D02*
X016350Y007792D01*
X016350Y007801D02*
X017600Y007801D01*
X017600Y007809D02*
X016350Y007809D01*
X016350Y007818D02*
X017600Y007818D01*
X017600Y007826D02*
X016350Y007826D01*
X016350Y007835D02*
X017600Y007835D01*
X017600Y007843D02*
X016350Y007843D01*
X016350Y007852D02*
X017600Y007852D01*
X017600Y007860D02*
X016350Y007860D01*
X016350Y007869D02*
X017600Y007869D01*
X017600Y007877D02*
X016350Y007877D01*
X016350Y007886D02*
X017600Y007886D01*
X017600Y007894D02*
X016350Y007894D01*
X016350Y007903D02*
X017600Y007903D01*
X017600Y007911D02*
X016350Y007911D01*
X016350Y007920D02*
X017600Y007920D01*
X017600Y007928D02*
X016350Y007928D01*
X016350Y007937D02*
X017600Y007937D01*
X017600Y007945D02*
X016350Y007945D01*
X016350Y007954D02*
X017600Y007954D01*
X017600Y007962D02*
X016350Y007962D01*
X016350Y007971D02*
X017600Y007971D01*
X017600Y007979D02*
X016350Y007979D01*
X016350Y007988D02*
X017600Y007988D01*
X017600Y007996D02*
X016350Y007996D01*
X016350Y008005D02*
X017600Y008005D01*
X017600Y008013D02*
X016350Y008013D01*
X016350Y008022D02*
X016373Y008045D01*
X016617Y008045D01*
X016667Y008094D01*
X016667Y008107D01*
X016733Y008107D01*
X016733Y008094D01*
X016783Y008045D01*
X017129Y008045D01*
X017140Y008056D02*
X017600Y008056D01*
X017600Y008064D02*
X017149Y008064D01*
X017157Y008073D02*
X017600Y008073D01*
X017600Y008081D02*
X017166Y008081D01*
X017174Y008090D02*
X017600Y008090D01*
X017600Y008098D02*
X017179Y008098D01*
X016780Y008047D02*
X016620Y008047D01*
X016628Y008056D02*
X016772Y008056D01*
X016763Y008064D02*
X016637Y008064D01*
X016645Y008073D02*
X016755Y008073D01*
X016746Y008081D02*
X016654Y008081D01*
X016662Y008090D02*
X016738Y008090D01*
X016733Y008098D02*
X016667Y008098D01*
X016850Y007554D02*
X017600Y007554D01*
X017600Y007546D02*
X016850Y007546D01*
X016850Y007537D02*
X017600Y007537D01*
X017600Y007529D02*
X016850Y007529D01*
X016850Y007520D02*
X017600Y007520D01*
X017600Y007512D02*
X016850Y007512D01*
X016850Y007503D02*
X017600Y007503D01*
X017600Y007495D02*
X016850Y007495D01*
X016850Y007486D02*
X017600Y007486D01*
X017600Y007478D02*
X016850Y007478D01*
X016850Y007469D02*
X017600Y007469D01*
X017600Y007461D02*
X016850Y007461D01*
X016850Y007452D02*
X017600Y007452D01*
X017600Y007444D02*
X016850Y007444D01*
X016850Y007435D02*
X017600Y007435D01*
X017600Y007427D02*
X016850Y007427D01*
X016850Y007418D02*
X017600Y007418D01*
X017600Y007410D02*
X016850Y007410D01*
X016850Y007401D02*
X017600Y007401D01*
X017600Y007393D02*
X016850Y007393D01*
X016850Y007384D02*
X017600Y007384D01*
X017600Y007376D02*
X016850Y007376D01*
X016850Y007367D02*
X017600Y007367D01*
X017600Y007359D02*
X016850Y007359D01*
X016800Y007161D02*
X016805Y007156D01*
X016926Y007156D01*
X016927Y007155D01*
X017047Y007155D01*
X017048Y007156D01*
X017170Y007156D01*
X017220Y007206D01*
X017220Y007207D01*
X019412Y007207D01*
X019939Y006870D01*
X020634Y006369D01*
X020634Y006369D01*
X020700Y006319D01*
X020700Y004707D01*
X020391Y004707D01*
X020391Y004826D01*
X020260Y004957D01*
X020075Y004957D01*
X019945Y004826D01*
X019945Y004707D01*
X019820Y004707D01*
X019820Y005235D01*
X019888Y005304D01*
X019891Y005303D01*
X019989Y005303D01*
X020078Y005340D01*
X020147Y005408D01*
X020184Y005498D01*
X020184Y005595D01*
X020147Y005685D01*
X020078Y005754D01*
X019989Y005791D01*
X019891Y005791D01*
X019802Y005754D01*
X019733Y005685D01*
X019696Y005595D01*
X019696Y005498D01*
X019697Y005495D01*
X019535Y005333D01*
X019535Y005390D01*
X019558Y005400D01*
X019627Y005468D01*
X019664Y005558D01*
X019664Y005655D01*
X019627Y005745D01*
X019558Y005814D01*
X019469Y005851D01*
X019371Y005851D01*
X019282Y005814D01*
X019213Y005745D01*
X019176Y005655D01*
X019176Y005558D01*
X019213Y005468D01*
X019265Y005417D01*
X019265Y005307D01*
X019262Y005307D01*
X019258Y005311D01*
X019033Y005311D01*
X019033Y005623D01*
X019078Y005668D01*
X019115Y005758D01*
X019115Y005855D01*
X019078Y005945D01*
X019033Y005990D01*
X019033Y006162D01*
X019219Y006162D01*
X019309Y006199D01*
X019378Y006268D01*
X019415Y006358D01*
X019415Y006455D01*
X019378Y006545D01*
X019309Y006614D01*
X019219Y006652D01*
X019009Y006652D01*
X019009Y006757D01*
X018960Y006807D01*
X018338Y006807D01*
X018288Y006757D01*
X018288Y006056D01*
X018338Y006007D01*
X018724Y006007D01*
X018662Y005945D01*
X018625Y005855D01*
X018625Y005758D01*
X018662Y005668D01*
X018731Y005599D01*
X018743Y005594D01*
X018743Y005307D01*
X017800Y005307D01*
X017800Y006707D01*
X016800Y006707D01*
X016800Y007161D01*
X016800Y007155D02*
X019493Y007155D01*
X019480Y007163D02*
X017177Y007163D01*
X017186Y007172D02*
X019466Y007172D01*
X019453Y007180D02*
X017194Y007180D01*
X017203Y007189D02*
X019440Y007189D01*
X019426Y007197D02*
X017211Y007197D01*
X017220Y007206D02*
X019413Y007206D01*
X019506Y007146D02*
X016800Y007146D01*
X016800Y007138D02*
X019520Y007138D01*
X019533Y007129D02*
X016800Y007129D01*
X016800Y007121D02*
X019546Y007121D01*
X019560Y007112D02*
X016800Y007112D01*
X016800Y007104D02*
X019573Y007104D01*
X019586Y007095D02*
X016800Y007095D01*
X016800Y007087D02*
X019600Y007087D01*
X019613Y007078D02*
X016800Y007078D01*
X016800Y007070D02*
X019626Y007070D01*
X019640Y007061D02*
X016800Y007061D01*
X016800Y007053D02*
X019653Y007053D01*
X019666Y007044D02*
X016800Y007044D01*
X016800Y007036D02*
X019679Y007036D01*
X019693Y007027D02*
X016800Y007027D01*
X016800Y007019D02*
X019706Y007019D01*
X019719Y007010D02*
X016800Y007010D01*
X016800Y007002D02*
X019733Y007002D01*
X019746Y006993D02*
X016800Y006993D01*
X016800Y006985D02*
X019759Y006985D01*
X019773Y006976D02*
X016800Y006976D01*
X016800Y006968D02*
X019786Y006968D01*
X019799Y006959D02*
X016800Y006959D01*
X016800Y006951D02*
X019813Y006951D01*
X019826Y006942D02*
X016800Y006942D01*
X016800Y006934D02*
X019839Y006934D01*
X019853Y006925D02*
X016800Y006925D01*
X016800Y006917D02*
X019866Y006917D01*
X019879Y006908D02*
X016800Y006908D01*
X016800Y006900D02*
X019893Y006900D01*
X019906Y006891D02*
X016800Y006891D01*
X016800Y006883D02*
X019919Y006883D01*
X019933Y006874D02*
X016800Y006874D01*
X016800Y006866D02*
X019945Y006866D01*
X019957Y006857D02*
X016800Y006857D01*
X016800Y006849D02*
X019969Y006849D01*
X019981Y006840D02*
X016800Y006840D01*
X016800Y006832D02*
X019992Y006832D01*
X020004Y006823D02*
X016800Y006823D01*
X016800Y006815D02*
X020016Y006815D01*
X020028Y006806D02*
X018960Y006806D01*
X018968Y006798D02*
X020039Y006798D01*
X020051Y006789D02*
X018977Y006789D01*
X018985Y006781D02*
X020063Y006781D01*
X020075Y006772D02*
X018994Y006772D01*
X019002Y006764D02*
X020087Y006764D01*
X020098Y006755D02*
X019009Y006755D01*
X019009Y006747D02*
X020110Y006747D01*
X020122Y006738D02*
X019009Y006738D01*
X019009Y006730D02*
X020134Y006730D01*
X020145Y006721D02*
X019009Y006721D01*
X019009Y006713D02*
X020157Y006713D01*
X020169Y006704D02*
X019009Y006704D01*
X019009Y006696D02*
X020181Y006696D01*
X020193Y006687D02*
X019009Y006687D01*
X019009Y006679D02*
X020204Y006679D01*
X020216Y006670D02*
X019009Y006670D01*
X019009Y006662D02*
X020228Y006662D01*
X020240Y006653D02*
X019009Y006653D01*
X019235Y006645D02*
X020251Y006645D01*
X020263Y006636D02*
X019256Y006636D01*
X019276Y006628D02*
X020275Y006628D01*
X020287Y006619D02*
X019297Y006619D01*
X019312Y006611D02*
X020299Y006611D01*
X020310Y006602D02*
X019321Y006602D01*
X019329Y006594D02*
X020322Y006594D01*
X020334Y006585D02*
X019338Y006585D01*
X019346Y006577D02*
X020346Y006577D01*
X020357Y006568D02*
X019355Y006568D01*
X019363Y006560D02*
X020369Y006560D01*
X020381Y006551D02*
X019372Y006551D01*
X019379Y006543D02*
X020393Y006543D01*
X020405Y006534D02*
X019382Y006534D01*
X019386Y006526D02*
X020416Y006526D01*
X020428Y006517D02*
X019389Y006517D01*
X019393Y006509D02*
X020440Y006509D01*
X020452Y006500D02*
X019396Y006500D01*
X019400Y006492D02*
X020463Y006492D01*
X020475Y006483D02*
X019403Y006483D01*
X019407Y006475D02*
X020487Y006475D01*
X020499Y006466D02*
X019410Y006466D01*
X019414Y006458D02*
X020511Y006458D01*
X020522Y006449D02*
X019415Y006449D01*
X019415Y006441D02*
X020534Y006441D01*
X020546Y006432D02*
X019415Y006432D01*
X019415Y006424D02*
X020558Y006424D01*
X020569Y006415D02*
X019415Y006415D01*
X019415Y006407D02*
X020581Y006407D01*
X020593Y006398D02*
X019415Y006398D01*
X019415Y006390D02*
X020605Y006390D01*
X020617Y006381D02*
X019415Y006381D01*
X019415Y006373D02*
X020628Y006373D01*
X020640Y006364D02*
X019415Y006364D01*
X019414Y006356D02*
X020651Y006356D01*
X020662Y006347D02*
X019411Y006347D01*
X019407Y006339D02*
X020674Y006339D01*
X020685Y006330D02*
X019404Y006330D01*
X019400Y006322D02*
X020696Y006322D01*
X020700Y006313D02*
X019396Y006313D01*
X019393Y006305D02*
X020700Y006305D01*
X020700Y006296D02*
X019389Y006296D01*
X019386Y006288D02*
X020700Y006288D01*
X020700Y006279D02*
X019382Y006279D01*
X019379Y006271D02*
X020700Y006271D01*
X020700Y006262D02*
X019372Y006262D01*
X019364Y006254D02*
X020700Y006254D01*
X020700Y006245D02*
X019355Y006245D01*
X019347Y006237D02*
X020700Y006237D01*
X020700Y006228D02*
X019338Y006228D01*
X019330Y006220D02*
X020700Y006220D01*
X020700Y006211D02*
X019321Y006211D01*
X019313Y006203D02*
X020700Y006203D01*
X020700Y006194D02*
X019297Y006194D01*
X019277Y006186D02*
X020700Y006186D01*
X020700Y006177D02*
X019256Y006177D01*
X019236Y006169D02*
X020700Y006169D01*
X020700Y006160D02*
X019033Y006160D01*
X019033Y006152D02*
X020700Y006152D01*
X020700Y006143D02*
X019033Y006143D01*
X019033Y006135D02*
X020700Y006135D01*
X020700Y006126D02*
X019033Y006126D01*
X019033Y006118D02*
X020700Y006118D01*
X020700Y006109D02*
X019033Y006109D01*
X019033Y006101D02*
X020700Y006101D01*
X020700Y006092D02*
X019033Y006092D01*
X019033Y006084D02*
X020700Y006084D01*
X020700Y006075D02*
X019033Y006075D01*
X019033Y006067D02*
X020700Y006067D01*
X020700Y006058D02*
X019033Y006058D01*
X019033Y006050D02*
X020700Y006050D01*
X020700Y006041D02*
X019033Y006041D01*
X019033Y006033D02*
X020700Y006033D01*
X020700Y006024D02*
X019033Y006024D01*
X019033Y006016D02*
X020700Y006016D01*
X020700Y006007D02*
X019033Y006007D01*
X019033Y005999D02*
X020700Y005999D01*
X020700Y005990D02*
X019033Y005990D01*
X019041Y005982D02*
X020700Y005982D01*
X020700Y005973D02*
X019050Y005973D01*
X019058Y005965D02*
X020700Y005965D01*
X020700Y005956D02*
X019067Y005956D01*
X019075Y005948D02*
X020700Y005948D01*
X020700Y005939D02*
X019080Y005939D01*
X019084Y005931D02*
X020700Y005931D01*
X020700Y005922D02*
X019087Y005922D01*
X019091Y005914D02*
X020700Y005914D01*
X020700Y005905D02*
X019094Y005905D01*
X019098Y005897D02*
X020700Y005897D01*
X020700Y005888D02*
X019101Y005888D01*
X019105Y005880D02*
X020700Y005880D01*
X020700Y005871D02*
X019108Y005871D01*
X019112Y005863D02*
X020700Y005863D01*
X020700Y005854D02*
X019115Y005854D01*
X019115Y005846D02*
X019359Y005846D01*
X019339Y005837D02*
X019115Y005837D01*
X019115Y005829D02*
X019318Y005829D01*
X019298Y005820D02*
X019115Y005820D01*
X019115Y005812D02*
X019280Y005812D01*
X019271Y005803D02*
X019115Y005803D01*
X019115Y005795D02*
X019263Y005795D01*
X019254Y005786D02*
X019115Y005786D01*
X019115Y005778D02*
X019246Y005778D01*
X019237Y005769D02*
X019115Y005769D01*
X019115Y005761D02*
X019229Y005761D01*
X019220Y005752D02*
X019113Y005752D01*
X019109Y005744D02*
X019213Y005744D01*
X019209Y005735D02*
X019106Y005735D01*
X019102Y005727D02*
X019206Y005727D01*
X019202Y005718D02*
X019099Y005718D01*
X019095Y005710D02*
X019199Y005710D01*
X019195Y005701D02*
X019092Y005701D01*
X019088Y005693D02*
X019191Y005693D01*
X019188Y005684D02*
X019084Y005684D01*
X019081Y005676D02*
X019184Y005676D01*
X019181Y005667D02*
X019077Y005667D01*
X019069Y005659D02*
X019177Y005659D01*
X019176Y005650D02*
X019060Y005650D01*
X019052Y005642D02*
X019176Y005642D01*
X019176Y005633D02*
X019043Y005633D01*
X019035Y005625D02*
X019176Y005625D01*
X019176Y005616D02*
X019033Y005616D01*
X019033Y005608D02*
X019176Y005608D01*
X019176Y005599D02*
X019033Y005599D01*
X019033Y005591D02*
X019176Y005591D01*
X019176Y005582D02*
X019033Y005582D01*
X019033Y005574D02*
X019176Y005574D01*
X019176Y005565D02*
X019033Y005565D01*
X019033Y005557D02*
X019177Y005557D01*
X019180Y005548D02*
X019033Y005548D01*
X019033Y005540D02*
X019184Y005540D01*
X019187Y005531D02*
X019033Y005531D01*
X019033Y005523D02*
X019191Y005523D01*
X019194Y005514D02*
X019033Y005514D01*
X019033Y005506D02*
X019198Y005506D01*
X019201Y005497D02*
X019033Y005497D01*
X019033Y005489D02*
X019205Y005489D01*
X019208Y005480D02*
X019033Y005480D01*
X019033Y005472D02*
X019212Y005472D01*
X019218Y005463D02*
X019033Y005463D01*
X019033Y005455D02*
X019227Y005455D01*
X019235Y005446D02*
X019033Y005446D01*
X019033Y005438D02*
X019244Y005438D01*
X019252Y005429D02*
X019033Y005429D01*
X019033Y005421D02*
X019261Y005421D01*
X019265Y005412D02*
X019033Y005412D01*
X019033Y005404D02*
X019265Y005404D01*
X019265Y005395D02*
X019033Y005395D01*
X019033Y005387D02*
X019265Y005387D01*
X019265Y005378D02*
X019033Y005378D01*
X019033Y005370D02*
X019265Y005370D01*
X019265Y005361D02*
X019033Y005361D01*
X019033Y005353D02*
X019265Y005353D01*
X019265Y005344D02*
X019033Y005344D01*
X019033Y005336D02*
X019265Y005336D01*
X019265Y005327D02*
X019033Y005327D01*
X019033Y005319D02*
X019265Y005319D01*
X019265Y005310D02*
X019258Y005310D01*
X019535Y005336D02*
X019538Y005336D01*
X019535Y005344D02*
X019547Y005344D01*
X019555Y005353D02*
X019535Y005353D01*
X019535Y005361D02*
X019564Y005361D01*
X019572Y005370D02*
X019535Y005370D01*
X019535Y005378D02*
X019581Y005378D01*
X019589Y005387D02*
X019535Y005387D01*
X019547Y005395D02*
X019598Y005395D01*
X019606Y005404D02*
X019562Y005404D01*
X019571Y005412D02*
X019615Y005412D01*
X019623Y005421D02*
X019579Y005421D01*
X019588Y005429D02*
X019632Y005429D01*
X019640Y005438D02*
X019596Y005438D01*
X019605Y005446D02*
X019649Y005446D01*
X019657Y005455D02*
X019613Y005455D01*
X019622Y005463D02*
X019666Y005463D01*
X019674Y005472D02*
X019628Y005472D01*
X019632Y005480D02*
X019683Y005480D01*
X019691Y005489D02*
X019635Y005489D01*
X019639Y005497D02*
X019696Y005497D01*
X019696Y005506D02*
X019642Y005506D01*
X019646Y005514D02*
X019696Y005514D01*
X019696Y005523D02*
X019649Y005523D01*
X019653Y005531D02*
X019696Y005531D01*
X019696Y005540D02*
X019656Y005540D01*
X019660Y005548D02*
X019696Y005548D01*
X019696Y005557D02*
X019663Y005557D01*
X019664Y005565D02*
X019696Y005565D01*
X019696Y005574D02*
X019664Y005574D01*
X019664Y005582D02*
X019696Y005582D01*
X019696Y005591D02*
X019664Y005591D01*
X019664Y005599D02*
X019698Y005599D01*
X019701Y005608D02*
X019664Y005608D01*
X019664Y005616D02*
X019705Y005616D01*
X019708Y005625D02*
X019664Y005625D01*
X019664Y005633D02*
X019712Y005633D01*
X019715Y005642D02*
X019664Y005642D01*
X019664Y005650D02*
X019719Y005650D01*
X019722Y005659D02*
X019663Y005659D01*
X019659Y005667D02*
X019726Y005667D01*
X019729Y005676D02*
X019656Y005676D01*
X019652Y005684D02*
X019733Y005684D01*
X019741Y005693D02*
X019649Y005693D01*
X019645Y005701D02*
X019749Y005701D01*
X019758Y005710D02*
X019641Y005710D01*
X019638Y005718D02*
X019766Y005718D01*
X019775Y005727D02*
X019634Y005727D01*
X019631Y005735D02*
X019783Y005735D01*
X019792Y005744D02*
X019627Y005744D01*
X019620Y005752D02*
X019800Y005752D01*
X019819Y005761D02*
X019611Y005761D01*
X019603Y005769D02*
X019840Y005769D01*
X019860Y005778D02*
X019594Y005778D01*
X019586Y005786D02*
X019881Y005786D01*
X019999Y005786D02*
X020700Y005786D01*
X020700Y005778D02*
X020020Y005778D01*
X020040Y005769D02*
X020700Y005769D01*
X020700Y005761D02*
X020061Y005761D01*
X020080Y005752D02*
X020700Y005752D01*
X020700Y005744D02*
X020088Y005744D01*
X020097Y005735D02*
X020700Y005735D01*
X020700Y005727D02*
X020105Y005727D01*
X020114Y005718D02*
X020700Y005718D01*
X020700Y005710D02*
X020122Y005710D01*
X020131Y005701D02*
X020700Y005701D01*
X020700Y005693D02*
X020139Y005693D01*
X020147Y005684D02*
X020700Y005684D01*
X020700Y005676D02*
X020151Y005676D01*
X020154Y005667D02*
X020700Y005667D01*
X020700Y005659D02*
X020158Y005659D01*
X020161Y005650D02*
X020700Y005650D01*
X020700Y005642D02*
X020165Y005642D01*
X020168Y005633D02*
X020700Y005633D01*
X020700Y005625D02*
X020172Y005625D01*
X020175Y005616D02*
X020700Y005616D01*
X020700Y005608D02*
X020179Y005608D01*
X020182Y005599D02*
X020700Y005599D01*
X020700Y005591D02*
X020184Y005591D01*
X020184Y005582D02*
X020700Y005582D01*
X020700Y005574D02*
X020184Y005574D01*
X020184Y005565D02*
X020700Y005565D01*
X020700Y005557D02*
X020184Y005557D01*
X020184Y005548D02*
X020700Y005548D01*
X020700Y005540D02*
X020184Y005540D01*
X020184Y005531D02*
X020700Y005531D01*
X020700Y005523D02*
X020184Y005523D01*
X020184Y005514D02*
X020700Y005514D01*
X020700Y005506D02*
X020184Y005506D01*
X020184Y005497D02*
X020700Y005497D01*
X020700Y005489D02*
X020180Y005489D01*
X020177Y005480D02*
X020700Y005480D01*
X020700Y005472D02*
X020173Y005472D01*
X020170Y005463D02*
X020700Y005463D01*
X020700Y005455D02*
X020166Y005455D01*
X020163Y005446D02*
X020700Y005446D01*
X020700Y005438D02*
X020159Y005438D01*
X020156Y005429D02*
X020700Y005429D01*
X020700Y005421D02*
X020152Y005421D01*
X020148Y005412D02*
X020700Y005412D01*
X020700Y005404D02*
X020142Y005404D01*
X020134Y005395D02*
X020700Y005395D01*
X020700Y005387D02*
X020125Y005387D01*
X020117Y005378D02*
X020700Y005378D01*
X020700Y005370D02*
X020108Y005370D01*
X020100Y005361D02*
X020700Y005361D01*
X020700Y005353D02*
X020091Y005353D01*
X020083Y005344D02*
X020700Y005344D01*
X020700Y005336D02*
X020069Y005336D01*
X020048Y005327D02*
X020700Y005327D01*
X020700Y005319D02*
X020027Y005319D01*
X020007Y005310D02*
X020700Y005310D01*
X020700Y005302D02*
X019886Y005302D01*
X019877Y005293D02*
X020700Y005293D01*
X020700Y005285D02*
X019869Y005285D01*
X019860Y005276D02*
X020700Y005276D01*
X020700Y005268D02*
X019852Y005268D01*
X019843Y005259D02*
X020700Y005259D01*
X020700Y005251D02*
X019835Y005251D01*
X019826Y005242D02*
X020700Y005242D01*
X020700Y005234D02*
X019820Y005234D01*
X019820Y005225D02*
X020700Y005225D01*
X020700Y005217D02*
X019820Y005217D01*
X019820Y005208D02*
X020700Y005208D01*
X020700Y005200D02*
X019820Y005200D01*
X019820Y005191D02*
X020700Y005191D01*
X020700Y005183D02*
X019820Y005183D01*
X019820Y005174D02*
X020700Y005174D01*
X020700Y005166D02*
X019820Y005166D01*
X019820Y005157D02*
X020700Y005157D01*
X020700Y005149D02*
X019820Y005149D01*
X019820Y005140D02*
X020700Y005140D01*
X020700Y005132D02*
X019820Y005132D01*
X019820Y005123D02*
X020700Y005123D01*
X020700Y005115D02*
X019820Y005115D01*
X019820Y005106D02*
X020700Y005106D01*
X020700Y005098D02*
X019820Y005098D01*
X019820Y005089D02*
X020700Y005089D01*
X020700Y005081D02*
X019820Y005081D01*
X019820Y005072D02*
X020700Y005072D01*
X020700Y005064D02*
X019820Y005064D01*
X019820Y005055D02*
X020700Y005055D01*
X020700Y005047D02*
X019820Y005047D01*
X019820Y005038D02*
X020700Y005038D01*
X020700Y005030D02*
X019820Y005030D01*
X019820Y005021D02*
X020700Y005021D01*
X020700Y005013D02*
X019820Y005013D01*
X019820Y005004D02*
X020700Y005004D01*
X020700Y004996D02*
X019820Y004996D01*
X019820Y004987D02*
X020700Y004987D01*
X020700Y004979D02*
X019820Y004979D01*
X019820Y004970D02*
X020700Y004970D01*
X020700Y004962D02*
X019820Y004962D01*
X019820Y004953D02*
X020072Y004953D01*
X020063Y004945D02*
X019820Y004945D01*
X019820Y004936D02*
X020055Y004936D01*
X020046Y004928D02*
X019820Y004928D01*
X019820Y004919D02*
X020038Y004919D01*
X020029Y004911D02*
X019820Y004911D01*
X019820Y004902D02*
X020021Y004902D01*
X020012Y004894D02*
X019820Y004894D01*
X019820Y004885D02*
X020004Y004885D01*
X019995Y004877D02*
X019820Y004877D01*
X019820Y004868D02*
X019987Y004868D01*
X019978Y004860D02*
X019820Y004860D01*
X019820Y004851D02*
X019970Y004851D01*
X019961Y004843D02*
X019820Y004843D01*
X019820Y004834D02*
X019953Y004834D01*
X019945Y004826D02*
X019820Y004826D01*
X019820Y004817D02*
X019945Y004817D01*
X019945Y004809D02*
X019820Y004809D01*
X019820Y004800D02*
X019945Y004800D01*
X019945Y004792D02*
X019820Y004792D01*
X019820Y004783D02*
X019945Y004783D01*
X019945Y004775D02*
X019820Y004775D01*
X019820Y004766D02*
X019945Y004766D01*
X019945Y004758D02*
X019820Y004758D01*
X019820Y004749D02*
X019945Y004749D01*
X019945Y004741D02*
X019820Y004741D01*
X019820Y004732D02*
X019945Y004732D01*
X019945Y004724D02*
X019820Y004724D01*
X019820Y004715D02*
X019945Y004715D01*
X019945Y004707D02*
X019820Y004707D01*
X020263Y004953D02*
X020700Y004953D01*
X020700Y004945D02*
X020272Y004945D01*
X020280Y004936D02*
X020700Y004936D01*
X020700Y004928D02*
X020289Y004928D01*
X020297Y004919D02*
X020700Y004919D01*
X020700Y004911D02*
X020306Y004911D01*
X020314Y004902D02*
X020700Y004902D01*
X020700Y004894D02*
X020323Y004894D01*
X020331Y004885D02*
X020700Y004885D01*
X020700Y004877D02*
X020340Y004877D01*
X020348Y004868D02*
X020700Y004868D01*
X020700Y004860D02*
X020357Y004860D01*
X020365Y004851D02*
X020700Y004851D01*
X020700Y004843D02*
X020374Y004843D01*
X020382Y004834D02*
X020700Y004834D01*
X020700Y004826D02*
X020391Y004826D01*
X020391Y004817D02*
X020700Y004817D01*
X020700Y004809D02*
X020391Y004809D01*
X020391Y004800D02*
X020700Y004800D01*
X020700Y004792D02*
X020391Y004792D01*
X020391Y004783D02*
X020700Y004783D01*
X020700Y004775D02*
X020391Y004775D01*
X020391Y004766D02*
X020700Y004766D01*
X020700Y004758D02*
X020391Y004758D01*
X020391Y004749D02*
X020700Y004749D01*
X020700Y004741D02*
X020391Y004741D01*
X020391Y004732D02*
X020700Y004732D01*
X020700Y004724D02*
X020391Y004724D01*
X020391Y004715D02*
X020700Y004715D01*
X020700Y004707D02*
X020391Y004707D01*
X021140Y004667D02*
X021580Y004757D01*
X021640Y004667D01*
X021580Y004577D01*
X021140Y004667D01*
X021152Y004664D02*
X021638Y004664D01*
X021636Y004673D02*
X021170Y004673D01*
X021194Y004656D02*
X021633Y004656D01*
X021627Y004647D02*
X021235Y004647D01*
X021211Y004681D02*
X021630Y004681D01*
X021625Y004690D02*
X021253Y004690D01*
X021294Y004698D02*
X021619Y004698D01*
X021613Y004707D02*
X021336Y004707D01*
X021377Y004715D02*
X021608Y004715D01*
X021602Y004724D02*
X021419Y004724D01*
X021460Y004732D02*
X021596Y004732D01*
X021591Y004741D02*
X021502Y004741D01*
X021544Y004749D02*
X021585Y004749D01*
X021621Y004639D02*
X021277Y004639D01*
X021318Y004630D02*
X021616Y004630D01*
X021610Y004622D02*
X021360Y004622D01*
X021401Y004613D02*
X021604Y004613D01*
X021599Y004605D02*
X021443Y004605D01*
X021484Y004596D02*
X021593Y004596D01*
X021587Y004588D02*
X021526Y004588D01*
X021568Y004579D02*
X021582Y004579D01*
X021681Y004511D02*
X022325Y004511D01*
X022330Y004503D02*
X021676Y004503D01*
X021671Y004494D02*
X022336Y004494D01*
X022341Y004486D02*
X021665Y004486D01*
X021660Y004477D02*
X022346Y004477D01*
X022351Y004469D02*
X021654Y004469D01*
X021649Y004460D02*
X022357Y004460D01*
X022362Y004452D02*
X021644Y004452D01*
X021638Y004443D02*
X021995Y004443D01*
X022000Y004447D02*
X021380Y004037D01*
X021780Y004667D01*
X021400Y005277D01*
X022000Y004887D01*
X022610Y005267D01*
X022230Y004667D01*
X022610Y004047D01*
X022000Y004447D01*
X022005Y004443D02*
X022367Y004443D01*
X022372Y004435D02*
X022018Y004435D01*
X022031Y004426D02*
X022377Y004426D01*
X022383Y004418D02*
X022044Y004418D01*
X022057Y004409D02*
X022388Y004409D01*
X022393Y004401D02*
X022070Y004401D01*
X022083Y004392D02*
X022398Y004392D01*
X022403Y004384D02*
X022096Y004384D01*
X022109Y004375D02*
X022409Y004375D01*
X022414Y004367D02*
X022122Y004367D01*
X022135Y004358D02*
X022419Y004358D01*
X022424Y004350D02*
X022148Y004350D01*
X022161Y004341D02*
X022429Y004341D01*
X022435Y004333D02*
X022174Y004333D01*
X022187Y004324D02*
X022440Y004324D01*
X022445Y004316D02*
X022200Y004316D01*
X022213Y004307D02*
X022450Y004307D01*
X022456Y004299D02*
X022226Y004299D01*
X022239Y004290D02*
X022461Y004290D01*
X022466Y004282D02*
X022252Y004282D01*
X022265Y004273D02*
X022471Y004273D01*
X022476Y004265D02*
X022277Y004265D01*
X022290Y004256D02*
X022482Y004256D01*
X022487Y004248D02*
X022303Y004248D01*
X022316Y004239D02*
X022492Y004239D01*
X022497Y004231D02*
X022329Y004231D01*
X022342Y004222D02*
X022502Y004222D01*
X022508Y004214D02*
X022355Y004214D01*
X022368Y004205D02*
X022513Y004205D01*
X022518Y004197D02*
X022381Y004197D01*
X022394Y004188D02*
X022523Y004188D01*
X022528Y004180D02*
X022407Y004180D01*
X022420Y004171D02*
X022534Y004171D01*
X022539Y004163D02*
X022433Y004163D01*
X022446Y004154D02*
X022544Y004154D01*
X022549Y004146D02*
X022459Y004146D01*
X022472Y004137D02*
X022555Y004137D01*
X022560Y004129D02*
X022485Y004129D01*
X022498Y004120D02*
X022565Y004120D01*
X022570Y004112D02*
X022511Y004112D01*
X022524Y004103D02*
X022575Y004103D01*
X022581Y004095D02*
X022537Y004095D01*
X022550Y004086D02*
X022586Y004086D01*
X022591Y004078D02*
X022563Y004078D01*
X022576Y004069D02*
X022596Y004069D01*
X022601Y004061D02*
X022589Y004061D01*
X022602Y004052D02*
X022607Y004052D01*
X022087Y004171D02*
X021913Y004171D01*
X021915Y004163D02*
X022085Y004163D01*
X022084Y004154D02*
X021916Y004154D01*
X021918Y004146D02*
X022082Y004146D01*
X022080Y004137D02*
X021920Y004137D01*
X021922Y004129D02*
X022078Y004129D01*
X022076Y004120D02*
X021924Y004120D01*
X021926Y004112D02*
X022074Y004112D01*
X022072Y004103D02*
X021928Y004103D01*
X021930Y004095D02*
X022070Y004095D01*
X022068Y004086D02*
X021932Y004086D01*
X021934Y004078D02*
X022066Y004078D01*
X022064Y004069D02*
X021936Y004069D01*
X021938Y004061D02*
X022062Y004061D01*
X022060Y004052D02*
X021940Y004052D01*
X021942Y004044D02*
X022058Y004044D01*
X022056Y004035D02*
X021944Y004035D01*
X021945Y004027D02*
X022055Y004027D01*
X022053Y004018D02*
X021947Y004018D01*
X021949Y004010D02*
X022051Y004010D01*
X022049Y004001D02*
X021951Y004001D01*
X021953Y003993D02*
X022047Y003993D01*
X022045Y003984D02*
X021955Y003984D01*
X021957Y003976D02*
X022043Y003976D01*
X022041Y003967D02*
X021959Y003967D01*
X021961Y003959D02*
X022039Y003959D01*
X022037Y003950D02*
X021963Y003950D01*
X021965Y003942D02*
X022035Y003942D01*
X022033Y003933D02*
X021967Y003933D01*
X021969Y003925D02*
X022031Y003925D01*
X022029Y003916D02*
X021971Y003916D01*
X021972Y003908D02*
X022028Y003908D01*
X022026Y003899D02*
X021974Y003899D01*
X021976Y003891D02*
X022024Y003891D01*
X022022Y003882D02*
X021978Y003882D01*
X021980Y003874D02*
X022020Y003874D01*
X022018Y003865D02*
X021982Y003865D01*
X021984Y003857D02*
X022016Y003857D01*
X022014Y003848D02*
X021986Y003848D01*
X021988Y003840D02*
X022012Y003840D01*
X022010Y003831D02*
X021990Y003831D01*
X021992Y003823D02*
X022008Y003823D01*
X022006Y003814D02*
X021994Y003814D01*
X021996Y003806D02*
X022004Y003806D01*
X022002Y003797D02*
X021998Y003797D01*
X022000Y003789D02*
X022000Y003789D01*
X022000Y003787D02*
X021900Y004227D01*
X022000Y004297D01*
X022100Y004227D01*
X022000Y003787D01*
X021911Y004180D02*
X022089Y004180D01*
X022091Y004188D02*
X021909Y004188D01*
X021907Y004197D02*
X022093Y004197D01*
X022095Y004205D02*
X021905Y004205D01*
X021903Y004214D02*
X022097Y004214D01*
X022099Y004222D02*
X021901Y004222D01*
X021906Y004231D02*
X022094Y004231D01*
X022082Y004239D02*
X021918Y004239D01*
X021930Y004248D02*
X022070Y004248D01*
X022058Y004256D02*
X021942Y004256D01*
X021954Y004265D02*
X022046Y004265D01*
X022034Y004273D02*
X021966Y004273D01*
X021979Y004282D02*
X022021Y004282D01*
X022009Y004290D02*
X021991Y004290D01*
X021918Y004392D02*
X021606Y004392D01*
X021600Y004384D02*
X021905Y004384D01*
X021892Y004375D02*
X021595Y004375D01*
X021590Y004367D02*
X021879Y004367D01*
X021866Y004358D02*
X021584Y004358D01*
X021579Y004350D02*
X021853Y004350D01*
X021841Y004341D02*
X021573Y004341D01*
X021568Y004333D02*
X021828Y004333D01*
X021815Y004324D02*
X021563Y004324D01*
X021557Y004316D02*
X021802Y004316D01*
X021789Y004307D02*
X021552Y004307D01*
X021546Y004299D02*
X021776Y004299D01*
X021763Y004290D02*
X021541Y004290D01*
X021536Y004282D02*
X021751Y004282D01*
X021738Y004273D02*
X021530Y004273D01*
X021525Y004265D02*
X021725Y004265D01*
X021712Y004256D02*
X021519Y004256D01*
X021514Y004248D02*
X021699Y004248D01*
X021686Y004239D02*
X021509Y004239D01*
X021503Y004231D02*
X021673Y004231D01*
X021661Y004222D02*
X021498Y004222D01*
X021492Y004214D02*
X021648Y004214D01*
X021635Y004205D02*
X021487Y004205D01*
X021482Y004197D02*
X021622Y004197D01*
X021609Y004188D02*
X021476Y004188D01*
X021471Y004180D02*
X021596Y004180D01*
X021583Y004171D02*
X021465Y004171D01*
X021460Y004163D02*
X021571Y004163D01*
X021558Y004154D02*
X021455Y004154D01*
X021449Y004146D02*
X021545Y004146D01*
X021532Y004137D02*
X021444Y004137D01*
X021438Y004129D02*
X021519Y004129D01*
X021506Y004120D02*
X021433Y004120D01*
X021428Y004112D02*
X021493Y004112D01*
X021481Y004103D02*
X021422Y004103D01*
X021417Y004095D02*
X021468Y004095D01*
X021455Y004086D02*
X021411Y004086D01*
X021406Y004078D02*
X021442Y004078D01*
X021429Y004069D02*
X021401Y004069D01*
X021395Y004061D02*
X021416Y004061D01*
X021403Y004052D02*
X021390Y004052D01*
X021391Y004044D02*
X021384Y004044D01*
X021611Y004401D02*
X021931Y004401D01*
X021943Y004409D02*
X021617Y004409D01*
X021622Y004418D02*
X021956Y004418D01*
X021969Y004426D02*
X021627Y004426D01*
X021633Y004435D02*
X021982Y004435D01*
X021735Y004596D02*
X022273Y004596D01*
X022278Y004588D02*
X021730Y004588D01*
X021724Y004579D02*
X022284Y004579D01*
X022289Y004571D02*
X021719Y004571D01*
X021714Y004562D02*
X022294Y004562D01*
X022299Y004554D02*
X021708Y004554D01*
X021703Y004545D02*
X022304Y004545D01*
X022310Y004537D02*
X021697Y004537D01*
X021692Y004528D02*
X022315Y004528D01*
X022320Y004520D02*
X021687Y004520D01*
X021741Y004605D02*
X022268Y004605D01*
X022263Y004613D02*
X021746Y004613D01*
X021751Y004622D02*
X022258Y004622D01*
X022252Y004630D02*
X021757Y004630D01*
X021762Y004639D02*
X022247Y004639D01*
X022242Y004647D02*
X021768Y004647D01*
X021773Y004656D02*
X022237Y004656D01*
X022232Y004664D02*
X021778Y004664D01*
X021776Y004673D02*
X022234Y004673D01*
X022239Y004681D02*
X021771Y004681D01*
X021766Y004690D02*
X022245Y004690D01*
X022250Y004698D02*
X021760Y004698D01*
X021755Y004707D02*
X022255Y004707D01*
X022261Y004715D02*
X021750Y004715D01*
X021744Y004724D02*
X022266Y004724D01*
X022272Y004732D02*
X021739Y004732D01*
X021734Y004741D02*
X022277Y004741D01*
X022282Y004749D02*
X021729Y004749D01*
X021723Y004758D02*
X022288Y004758D01*
X022293Y004766D02*
X021718Y004766D01*
X021713Y004775D02*
X022298Y004775D01*
X022304Y004783D02*
X021707Y004783D01*
X021702Y004792D02*
X022309Y004792D01*
X022315Y004800D02*
X021697Y004800D01*
X021692Y004809D02*
X022320Y004809D01*
X022325Y004817D02*
X021686Y004817D01*
X021681Y004826D02*
X022331Y004826D01*
X022336Y004834D02*
X021676Y004834D01*
X021670Y004843D02*
X022342Y004843D01*
X022347Y004851D02*
X021665Y004851D01*
X021660Y004860D02*
X022352Y004860D01*
X022358Y004868D02*
X021654Y004868D01*
X021649Y004877D02*
X022363Y004877D01*
X022368Y004885D02*
X021644Y004885D01*
X021639Y004894D02*
X021989Y004894D01*
X021976Y004902D02*
X021633Y004902D01*
X021628Y004911D02*
X021963Y004911D01*
X021950Y004919D02*
X021623Y004919D01*
X021617Y004928D02*
X021937Y004928D01*
X021924Y004936D02*
X021612Y004936D01*
X021607Y004945D02*
X021911Y004945D01*
X021898Y004953D02*
X021601Y004953D01*
X021596Y004962D02*
X021885Y004962D01*
X021871Y004970D02*
X021591Y004970D01*
X021586Y004979D02*
X021858Y004979D01*
X021845Y004987D02*
X021580Y004987D01*
X021575Y004996D02*
X021832Y004996D01*
X021819Y005004D02*
X021570Y005004D01*
X021564Y005013D02*
X021806Y005013D01*
X021793Y005021D02*
X021559Y005021D01*
X021554Y005030D02*
X021780Y005030D01*
X021767Y005038D02*
X021549Y005038D01*
X021543Y005047D02*
X021754Y005047D01*
X021741Y005055D02*
X021538Y005055D01*
X021533Y005064D02*
X021728Y005064D01*
X021715Y005072D02*
X021527Y005072D01*
X021522Y005081D02*
X021701Y005081D01*
X021688Y005089D02*
X021517Y005089D01*
X021511Y005098D02*
X021675Y005098D01*
X021662Y005106D02*
X021506Y005106D01*
X021501Y005115D02*
X021649Y005115D01*
X021636Y005123D02*
X021496Y005123D01*
X021490Y005132D02*
X021623Y005132D01*
X021610Y005140D02*
X021485Y005140D01*
X021480Y005149D02*
X021597Y005149D01*
X021584Y005157D02*
X021474Y005157D01*
X021469Y005166D02*
X021571Y005166D01*
X021558Y005174D02*
X021464Y005174D01*
X021459Y005183D02*
X021545Y005183D01*
X021531Y005191D02*
X021453Y005191D01*
X021448Y005200D02*
X021518Y005200D01*
X021505Y005208D02*
X021443Y005208D01*
X021437Y005217D02*
X021492Y005217D01*
X021479Y005225D02*
X021432Y005225D01*
X021427Y005234D02*
X021466Y005234D01*
X021453Y005242D02*
X021421Y005242D01*
X021416Y005251D02*
X021440Y005251D01*
X021427Y005259D02*
X021411Y005259D01*
X021414Y005268D02*
X021406Y005268D01*
X021401Y005276D02*
X021400Y005276D01*
X021917Y005166D02*
X022083Y005166D01*
X022081Y005174D02*
X021919Y005174D01*
X021921Y005183D02*
X022079Y005183D01*
X022077Y005191D02*
X021923Y005191D01*
X021925Y005200D02*
X022075Y005200D01*
X022074Y005208D02*
X021926Y005208D01*
X021928Y005217D02*
X022072Y005217D01*
X022070Y005225D02*
X021930Y005225D01*
X021932Y005234D02*
X022068Y005234D01*
X022066Y005242D02*
X021934Y005242D01*
X021936Y005251D02*
X022064Y005251D01*
X022062Y005259D02*
X021938Y005259D01*
X021939Y005268D02*
X022061Y005268D01*
X022059Y005276D02*
X021941Y005276D01*
X021943Y005285D02*
X022057Y005285D01*
X022055Y005293D02*
X021945Y005293D01*
X021947Y005302D02*
X022053Y005302D01*
X022051Y005310D02*
X021949Y005310D01*
X021950Y005319D02*
X022050Y005319D01*
X022048Y005327D02*
X021952Y005327D01*
X021954Y005336D02*
X022046Y005336D01*
X022044Y005344D02*
X021956Y005344D01*
X021958Y005353D02*
X022042Y005353D01*
X022040Y005361D02*
X021960Y005361D01*
X021962Y005370D02*
X022038Y005370D01*
X022037Y005378D02*
X021963Y005378D01*
X021965Y005387D02*
X022035Y005387D01*
X022033Y005395D02*
X021967Y005395D01*
X021969Y005404D02*
X022031Y005404D01*
X022029Y005412D02*
X021971Y005412D01*
X021973Y005421D02*
X022027Y005421D01*
X022026Y005429D02*
X021974Y005429D01*
X021976Y005438D02*
X022024Y005438D01*
X022022Y005446D02*
X021978Y005446D01*
X021980Y005455D02*
X022020Y005455D01*
X022018Y005463D02*
X021982Y005463D01*
X021984Y005472D02*
X022016Y005472D01*
X022014Y005480D02*
X021986Y005480D01*
X021987Y005489D02*
X022013Y005489D01*
X022011Y005497D02*
X021989Y005497D01*
X021991Y005506D02*
X022009Y005506D01*
X022007Y005514D02*
X021993Y005514D01*
X021995Y005523D02*
X022005Y005523D01*
X022003Y005531D02*
X021997Y005531D01*
X021998Y005540D02*
X022002Y005540D01*
X022000Y005547D02*
X021900Y005087D01*
X022000Y005027D01*
X022100Y005087D01*
X022000Y005547D01*
X021915Y005157D02*
X022085Y005157D01*
X022087Y005149D02*
X021913Y005149D01*
X021912Y005140D02*
X022088Y005140D01*
X022090Y005132D02*
X021910Y005132D01*
X021908Y005123D02*
X022092Y005123D01*
X022094Y005115D02*
X021906Y005115D01*
X021904Y005106D02*
X022096Y005106D01*
X022098Y005098D02*
X021902Y005098D01*
X021901Y005089D02*
X022099Y005089D01*
X022090Y005081D02*
X021910Y005081D01*
X021924Y005072D02*
X022076Y005072D01*
X022062Y005064D02*
X021938Y005064D01*
X021952Y005055D02*
X022048Y005055D01*
X022033Y005047D02*
X021967Y005047D01*
X021981Y005038D02*
X022019Y005038D01*
X022005Y005030D02*
X021995Y005030D01*
X022066Y004928D02*
X022395Y004928D01*
X022401Y004936D02*
X022080Y004936D01*
X022093Y004945D02*
X022406Y004945D01*
X022411Y004953D02*
X022107Y004953D01*
X022120Y004962D02*
X022417Y004962D01*
X022422Y004970D02*
X022134Y004970D01*
X022148Y004979D02*
X022428Y004979D01*
X022433Y004987D02*
X022161Y004987D01*
X022175Y004996D02*
X022438Y004996D01*
X022444Y005004D02*
X022189Y005004D01*
X022202Y005013D02*
X022449Y005013D01*
X022455Y005021D02*
X022216Y005021D01*
X022230Y005030D02*
X022460Y005030D01*
X022465Y005038D02*
X022243Y005038D01*
X022257Y005047D02*
X022471Y005047D01*
X022476Y005055D02*
X022271Y005055D01*
X022284Y005064D02*
X022481Y005064D01*
X022487Y005072D02*
X022298Y005072D01*
X022312Y005081D02*
X022492Y005081D01*
X022498Y005089D02*
X022325Y005089D01*
X022339Y005098D02*
X022503Y005098D01*
X022508Y005106D02*
X022352Y005106D01*
X022366Y005115D02*
X022514Y005115D01*
X022519Y005123D02*
X022380Y005123D01*
X022393Y005132D02*
X022525Y005132D01*
X022530Y005140D02*
X022407Y005140D01*
X022421Y005149D02*
X022535Y005149D01*
X022541Y005157D02*
X022434Y005157D01*
X022448Y005166D02*
X022546Y005166D01*
X022551Y005174D02*
X022462Y005174D01*
X022475Y005183D02*
X022557Y005183D01*
X022562Y005191D02*
X022489Y005191D01*
X022503Y005200D02*
X022568Y005200D01*
X022573Y005208D02*
X022516Y005208D01*
X022530Y005217D02*
X022578Y005217D01*
X022584Y005225D02*
X022543Y005225D01*
X022557Y005234D02*
X022589Y005234D01*
X022595Y005242D02*
X022571Y005242D01*
X022584Y005251D02*
X022600Y005251D01*
X022598Y005259D02*
X022605Y005259D01*
X022390Y004919D02*
X022052Y004919D01*
X022039Y004911D02*
X022385Y004911D01*
X022379Y004902D02*
X022025Y004902D01*
X022011Y004894D02*
X022374Y004894D01*
X022420Y004757D02*
X022880Y004667D01*
X022420Y004577D01*
X022360Y004667D01*
X022420Y004757D01*
X022415Y004749D02*
X022458Y004749D01*
X022502Y004741D02*
X022409Y004741D01*
X022404Y004732D02*
X022545Y004732D01*
X022588Y004724D02*
X022398Y004724D01*
X022392Y004715D02*
X022632Y004715D01*
X022675Y004707D02*
X022387Y004707D01*
X022381Y004698D02*
X022719Y004698D01*
X022762Y004690D02*
X022375Y004690D01*
X022370Y004681D02*
X022806Y004681D01*
X022824Y004656D02*
X022367Y004656D01*
X022362Y004664D02*
X022867Y004664D01*
X022849Y004673D02*
X022364Y004673D01*
X022373Y004647D02*
X022781Y004647D01*
X022737Y004639D02*
X022379Y004639D01*
X022384Y004630D02*
X022694Y004630D01*
X022650Y004622D02*
X022390Y004622D01*
X022396Y004613D02*
X022607Y004613D01*
X022563Y004605D02*
X022401Y004605D01*
X022407Y004596D02*
X022520Y004596D01*
X022476Y004588D02*
X022413Y004588D01*
X022418Y004579D02*
X022433Y004579D01*
X020700Y005795D02*
X019577Y005795D01*
X019569Y005803D02*
X020700Y005803D01*
X020700Y005812D02*
X019560Y005812D01*
X019542Y005820D02*
X020700Y005820D01*
X020700Y005829D02*
X019522Y005829D01*
X019501Y005837D02*
X020700Y005837D01*
X020700Y005846D02*
X019481Y005846D01*
X018716Y005999D02*
X017800Y005999D01*
X017800Y006007D02*
X018337Y006007D01*
X018329Y006016D02*
X017800Y006016D01*
X017800Y006024D02*
X018320Y006024D01*
X018312Y006033D02*
X017800Y006033D01*
X017800Y006041D02*
X018303Y006041D01*
X018295Y006050D02*
X017800Y006050D01*
X017800Y006058D02*
X018288Y006058D01*
X018288Y006067D02*
X017800Y006067D01*
X017800Y006075D02*
X018288Y006075D01*
X018288Y006084D02*
X017800Y006084D01*
X017800Y006092D02*
X018288Y006092D01*
X018288Y006101D02*
X017800Y006101D01*
X017800Y006109D02*
X018288Y006109D01*
X018288Y006118D02*
X017800Y006118D01*
X017800Y006126D02*
X018288Y006126D01*
X018288Y006135D02*
X017800Y006135D01*
X017800Y006143D02*
X018288Y006143D01*
X018288Y006152D02*
X017800Y006152D01*
X017800Y006160D02*
X018288Y006160D01*
X018288Y006169D02*
X017800Y006169D01*
X017800Y006177D02*
X018288Y006177D01*
X018288Y006186D02*
X017800Y006186D01*
X017800Y006194D02*
X018288Y006194D01*
X018288Y006203D02*
X017800Y006203D01*
X017800Y006211D02*
X018288Y006211D01*
X018288Y006220D02*
X017800Y006220D01*
X017800Y006228D02*
X018288Y006228D01*
X018288Y006237D02*
X017800Y006237D01*
X017800Y006245D02*
X018288Y006245D01*
X018288Y006254D02*
X017800Y006254D01*
X017800Y006262D02*
X018288Y006262D01*
X018288Y006271D02*
X017800Y006271D01*
X017800Y006279D02*
X018288Y006279D01*
X018288Y006288D02*
X017800Y006288D01*
X017800Y006296D02*
X018288Y006296D01*
X018288Y006305D02*
X017800Y006305D01*
X017800Y006313D02*
X018288Y006313D01*
X018288Y006322D02*
X017800Y006322D01*
X017800Y006330D02*
X018288Y006330D01*
X018288Y006339D02*
X017800Y006339D01*
X017800Y006347D02*
X018288Y006347D01*
X018288Y006356D02*
X017800Y006356D01*
X017800Y006364D02*
X018288Y006364D01*
X018288Y006373D02*
X017800Y006373D01*
X017800Y006381D02*
X018288Y006381D01*
X018288Y006390D02*
X017800Y006390D01*
X017800Y006398D02*
X018288Y006398D01*
X018288Y006407D02*
X017800Y006407D01*
X017800Y006415D02*
X018288Y006415D01*
X018288Y006424D02*
X017800Y006424D01*
X017800Y006432D02*
X018288Y006432D01*
X018288Y006441D02*
X017800Y006441D01*
X017800Y006449D02*
X018288Y006449D01*
X018288Y006458D02*
X017800Y006458D01*
X017800Y006466D02*
X018288Y006466D01*
X018288Y006475D02*
X017800Y006475D01*
X017800Y006483D02*
X018288Y006483D01*
X018288Y006492D02*
X017800Y006492D01*
X017800Y006500D02*
X018288Y006500D01*
X018288Y006509D02*
X017800Y006509D01*
X017800Y006517D02*
X018288Y006517D01*
X018288Y006526D02*
X017800Y006526D01*
X017800Y006534D02*
X018288Y006534D01*
X018288Y006543D02*
X017800Y006543D01*
X017800Y006551D02*
X018288Y006551D01*
X018288Y006560D02*
X017800Y006560D01*
X017800Y006568D02*
X018288Y006568D01*
X018288Y006577D02*
X017800Y006577D01*
X017800Y006585D02*
X018288Y006585D01*
X018288Y006594D02*
X017800Y006594D01*
X017800Y006602D02*
X018288Y006602D01*
X018288Y006611D02*
X017800Y006611D01*
X017800Y006619D02*
X018288Y006619D01*
X018288Y006628D02*
X017800Y006628D01*
X017800Y006636D02*
X018288Y006636D01*
X018288Y006645D02*
X017800Y006645D01*
X017800Y006653D02*
X018288Y006653D01*
X018288Y006662D02*
X017800Y006662D01*
X017800Y006670D02*
X018288Y006670D01*
X018288Y006679D02*
X017800Y006679D01*
X017800Y006687D02*
X018288Y006687D01*
X018288Y006696D02*
X017800Y006696D01*
X017800Y006704D02*
X018288Y006704D01*
X018288Y006713D02*
X016800Y006713D01*
X016800Y006721D02*
X018288Y006721D01*
X018288Y006730D02*
X016800Y006730D01*
X016800Y006738D02*
X018288Y006738D01*
X018288Y006747D02*
X016800Y006747D01*
X016800Y006755D02*
X018288Y006755D01*
X018295Y006764D02*
X016800Y006764D01*
X016800Y006772D02*
X018304Y006772D01*
X018312Y006781D02*
X016800Y006781D01*
X016800Y006789D02*
X018321Y006789D01*
X018329Y006798D02*
X016800Y006798D01*
X016800Y006806D02*
X018338Y006806D01*
X017300Y006507D02*
X017300Y006474D01*
X017288Y006474D01*
X017238Y006424D01*
X016777Y006424D01*
X016777Y006432D02*
X017246Y006432D01*
X017238Y006424D02*
X017238Y006078D01*
X017288Y006028D01*
X017300Y006028D01*
X017300Y005652D01*
X016860Y005652D01*
X016542Y005970D01*
X016542Y006179D01*
X016541Y006180D01*
X016541Y006302D01*
X016513Y006330D01*
X016727Y006330D01*
X016777Y006379D01*
X016777Y006507D01*
X017300Y006507D01*
X017300Y006500D02*
X016777Y006500D01*
X016777Y006492D02*
X017300Y006492D01*
X017300Y006483D02*
X016777Y006483D01*
X016777Y006475D02*
X017300Y006475D01*
X017280Y006466D02*
X016777Y006466D01*
X016777Y006458D02*
X017272Y006458D01*
X017263Y006449D02*
X016777Y006449D01*
X016777Y006441D02*
X017255Y006441D01*
X017238Y006415D02*
X016777Y006415D01*
X016777Y006407D02*
X017238Y006407D01*
X017238Y006398D02*
X016777Y006398D01*
X016777Y006390D02*
X017238Y006390D01*
X017238Y006381D02*
X016777Y006381D01*
X016771Y006373D02*
X017238Y006373D01*
X017238Y006364D02*
X016762Y006364D01*
X016754Y006356D02*
X017238Y006356D01*
X017238Y006347D02*
X016745Y006347D01*
X016737Y006339D02*
X017238Y006339D01*
X017238Y006330D02*
X016728Y006330D01*
X016541Y006296D02*
X017238Y006296D01*
X017238Y006288D02*
X016541Y006288D01*
X016541Y006279D02*
X017238Y006279D01*
X017238Y006271D02*
X016541Y006271D01*
X016541Y006262D02*
X017238Y006262D01*
X017238Y006254D02*
X016541Y006254D01*
X016541Y006245D02*
X017238Y006245D01*
X017238Y006237D02*
X016541Y006237D01*
X016541Y006228D02*
X017238Y006228D01*
X017238Y006220D02*
X016541Y006220D01*
X016541Y006211D02*
X017238Y006211D01*
X017238Y006203D02*
X016541Y006203D01*
X016541Y006194D02*
X017238Y006194D01*
X017238Y006186D02*
X016541Y006186D01*
X016542Y006177D02*
X017238Y006177D01*
X017238Y006169D02*
X016542Y006169D01*
X016542Y006160D02*
X017238Y006160D01*
X017238Y006152D02*
X016542Y006152D01*
X016542Y006143D02*
X017238Y006143D01*
X017238Y006135D02*
X016542Y006135D01*
X016542Y006126D02*
X017238Y006126D01*
X017238Y006118D02*
X016542Y006118D01*
X016542Y006109D02*
X017238Y006109D01*
X017238Y006101D02*
X016542Y006101D01*
X016542Y006092D02*
X017238Y006092D01*
X017238Y006084D02*
X016542Y006084D01*
X016542Y006075D02*
X017240Y006075D01*
X017249Y006067D02*
X016542Y006067D01*
X016542Y006058D02*
X017257Y006058D01*
X017266Y006050D02*
X016542Y006050D01*
X016542Y006041D02*
X017274Y006041D01*
X017283Y006033D02*
X016542Y006033D01*
X016542Y006024D02*
X017300Y006024D01*
X017300Y006016D02*
X016542Y006016D01*
X016542Y006007D02*
X017300Y006007D01*
X017300Y005999D02*
X016542Y005999D01*
X016542Y005990D02*
X017300Y005990D01*
X017300Y005982D02*
X016542Y005982D01*
X016542Y005973D02*
X017300Y005973D01*
X017300Y005965D02*
X016547Y005965D01*
X016555Y005956D02*
X017300Y005956D01*
X017300Y005948D02*
X016564Y005948D01*
X016572Y005939D02*
X017300Y005939D01*
X017300Y005931D02*
X016581Y005931D01*
X016589Y005922D02*
X017300Y005922D01*
X017300Y005914D02*
X016598Y005914D01*
X016606Y005905D02*
X017300Y005905D01*
X017300Y005897D02*
X016615Y005897D01*
X016623Y005888D02*
X017300Y005888D01*
X017300Y005880D02*
X016632Y005880D01*
X016640Y005871D02*
X017300Y005871D01*
X017300Y005863D02*
X016649Y005863D01*
X016657Y005854D02*
X017300Y005854D01*
X017300Y005846D02*
X016666Y005846D01*
X016674Y005837D02*
X017300Y005837D01*
X017300Y005829D02*
X016683Y005829D01*
X016691Y005820D02*
X017300Y005820D01*
X017300Y005812D02*
X016700Y005812D01*
X016708Y005803D02*
X017300Y005803D01*
X017300Y005795D02*
X016717Y005795D01*
X016725Y005786D02*
X017300Y005786D01*
X017300Y005778D02*
X016734Y005778D01*
X016742Y005769D02*
X017300Y005769D01*
X017300Y005761D02*
X016751Y005761D01*
X016759Y005752D02*
X017300Y005752D01*
X017300Y005744D02*
X016768Y005744D01*
X016776Y005735D02*
X017300Y005735D01*
X017300Y005727D02*
X016785Y005727D01*
X016793Y005718D02*
X017300Y005718D01*
X017300Y005710D02*
X016802Y005710D01*
X016810Y005701D02*
X017300Y005701D01*
X017300Y005693D02*
X016819Y005693D01*
X016827Y005684D02*
X017300Y005684D01*
X017300Y005676D02*
X016836Y005676D01*
X016844Y005667D02*
X017300Y005667D01*
X017300Y005659D02*
X016853Y005659D01*
X016538Y006305D02*
X017238Y006305D01*
X017238Y006313D02*
X016530Y006313D01*
X016521Y006322D02*
X017238Y006322D01*
X017800Y005990D02*
X018707Y005990D01*
X018699Y005982D02*
X017800Y005982D01*
X017800Y005973D02*
X018690Y005973D01*
X018682Y005965D02*
X017800Y005965D01*
X017800Y005956D02*
X018673Y005956D01*
X018665Y005948D02*
X017800Y005948D01*
X017800Y005939D02*
X018660Y005939D01*
X018656Y005931D02*
X017800Y005931D01*
X017800Y005922D02*
X018653Y005922D01*
X018649Y005914D02*
X017800Y005914D01*
X017800Y005905D02*
X018646Y005905D01*
X018642Y005897D02*
X017800Y005897D01*
X017800Y005888D02*
X018639Y005888D01*
X018635Y005880D02*
X017800Y005880D01*
X017800Y005871D02*
X018632Y005871D01*
X018628Y005863D02*
X017800Y005863D01*
X017800Y005854D02*
X018625Y005854D01*
X018625Y005846D02*
X017800Y005846D01*
X017800Y005837D02*
X018625Y005837D01*
X018625Y005829D02*
X017800Y005829D01*
X017800Y005820D02*
X018625Y005820D01*
X018625Y005812D02*
X017800Y005812D01*
X017800Y005803D02*
X018625Y005803D01*
X018625Y005795D02*
X017800Y005795D01*
X017800Y005786D02*
X018625Y005786D01*
X018625Y005778D02*
X017800Y005778D01*
X017800Y005769D02*
X018625Y005769D01*
X018625Y005761D02*
X017800Y005761D01*
X017800Y005752D02*
X018627Y005752D01*
X018631Y005744D02*
X017800Y005744D01*
X017800Y005735D02*
X018634Y005735D01*
X018638Y005727D02*
X017800Y005727D01*
X017800Y005718D02*
X018641Y005718D01*
X018645Y005710D02*
X017800Y005710D01*
X017800Y005701D02*
X018648Y005701D01*
X018652Y005693D02*
X017800Y005693D01*
X017800Y005684D02*
X018656Y005684D01*
X018659Y005676D02*
X017800Y005676D01*
X017800Y005667D02*
X018663Y005667D01*
X018671Y005659D02*
X017800Y005659D01*
X017800Y005650D02*
X018680Y005650D01*
X018688Y005642D02*
X017800Y005642D01*
X017800Y005633D02*
X018697Y005633D01*
X018705Y005625D02*
X017800Y005625D01*
X017800Y005616D02*
X018714Y005616D01*
X018722Y005608D02*
X017800Y005608D01*
X017800Y005599D02*
X018731Y005599D01*
X018743Y005591D02*
X017800Y005591D01*
X017800Y005582D02*
X018743Y005582D01*
X018743Y005574D02*
X017800Y005574D01*
X017800Y005565D02*
X018743Y005565D01*
X018743Y005557D02*
X017800Y005557D01*
X017800Y005548D02*
X018743Y005548D01*
X018743Y005540D02*
X017800Y005540D01*
X017800Y005531D02*
X018743Y005531D01*
X018743Y005523D02*
X017800Y005523D01*
X017800Y005514D02*
X018743Y005514D01*
X018743Y005506D02*
X017800Y005506D01*
X017800Y005497D02*
X018743Y005497D01*
X018743Y005489D02*
X017800Y005489D01*
X017800Y005480D02*
X018743Y005480D01*
X018743Y005472D02*
X017800Y005472D01*
X017800Y005463D02*
X018743Y005463D01*
X018743Y005455D02*
X017800Y005455D01*
X017800Y005446D02*
X018743Y005446D01*
X018743Y005438D02*
X017800Y005438D01*
X017800Y005429D02*
X018743Y005429D01*
X018743Y005421D02*
X017800Y005421D01*
X017800Y005412D02*
X018743Y005412D01*
X018743Y005404D02*
X017800Y005404D01*
X017800Y005395D02*
X018743Y005395D01*
X018743Y005387D02*
X017800Y005387D01*
X017800Y005378D02*
X018743Y005378D01*
X018743Y005370D02*
X017800Y005370D01*
X017800Y005361D02*
X018743Y005361D01*
X018743Y005353D02*
X017800Y005353D01*
X017800Y005344D02*
X018743Y005344D01*
X018743Y005336D02*
X017800Y005336D01*
X017800Y005327D02*
X018743Y005327D01*
X018743Y005319D02*
X017800Y005319D01*
X017800Y005310D02*
X018743Y005310D01*
D11*
X016594Y006119D03*
X016397Y006119D03*
X016200Y006119D03*
X016003Y006119D03*
X015806Y006119D03*
X015806Y007694D03*
X016003Y007694D03*
X016200Y007694D03*
X016397Y007694D03*
X016594Y007694D03*
D12*
X016987Y007300D03*
X016987Y007104D03*
X016987Y006907D03*
X016987Y006710D03*
X016987Y006513D03*
X015413Y006513D03*
X015413Y006710D03*
X015413Y006907D03*
X015413Y007104D03*
X015413Y007300D03*
D13*
X016200Y006907D03*
D14*
X010844Y007237D03*
X010647Y007237D03*
X010450Y007237D03*
X010253Y007237D03*
X010056Y007237D03*
X010056Y006076D03*
X010253Y006076D03*
X010450Y006076D03*
X010647Y006076D03*
X010844Y006076D03*
D15*
X010450Y006657D03*
D16*
X009859Y006755D03*
X009859Y006558D03*
X011041Y006558D03*
X011041Y006755D03*
D17*
X010591Y004607D03*
X009409Y004607D03*
D18*
X011600Y005801D03*
X011600Y006313D03*
X012150Y006313D03*
X012150Y005801D03*
X011280Y007831D03*
X011280Y008343D03*
X009330Y007883D03*
X008890Y007883D03*
X008440Y007883D03*
X008440Y007371D03*
X008890Y007371D03*
X009330Y007371D03*
X015000Y005163D03*
X015500Y005163D03*
X016000Y005163D03*
X016500Y005163D03*
X017000Y005163D03*
X017500Y005163D03*
X017500Y004651D03*
X017000Y004651D03*
X016500Y004651D03*
X016000Y004651D03*
X015500Y004651D03*
X015000Y004651D03*
X017500Y006251D03*
X017500Y006763D03*
D19*
X016956Y008307D03*
X016444Y008307D03*
X015756Y008307D03*
X015244Y008307D03*
X010816Y008717D03*
X010304Y008717D03*
X017004Y004127D03*
X017516Y004127D03*
D20*
X013554Y005957D03*
X012846Y005957D03*
D21*
X007394Y005963D03*
X006606Y005963D03*
D22*
X005661Y003916D03*
X008339Y003916D03*
D23*
X004600Y004055D03*
X004600Y005158D03*
D24*
X018649Y006407D03*
X019751Y006407D03*
D25*
X013712Y007207D03*
X013200Y007207D03*
X012669Y007207D03*
D26*
X009300Y006758D03*
X009300Y005655D03*
D27*
X018888Y004960D03*
X019144Y004960D03*
X019400Y004960D03*
X019656Y004960D03*
X019912Y004960D03*
D28*
X019794Y003907D03*
X019006Y003911D03*
D29*
X018307Y004125D02*
X018307Y003688D01*
X020493Y003688D02*
X020493Y004125D01*
D30*
X010697Y008027D03*
X010343Y008027D03*
D31*
X003820Y003553D02*
X003285Y003820D01*
X003030Y003978D01*
X002810Y004139D01*
X002425Y004526D01*
X002127Y004982D01*
X001927Y005489D01*
X001834Y006026D01*
X001852Y006571D01*
X001980Y007100D01*
X002213Y007593D01*
X002366Y007819D01*
X002482Y007957D01*
X002757Y008190D01*
X003077Y008355D01*
X003425Y008446D01*
X003605Y008462D01*
X003706Y008457D01*
X003900Y008402D01*
X004068Y008290D01*
X004120Y008234D01*
X003866Y008261D01*
X003483Y008168D01*
X003153Y007951D01*
X003071Y007842D01*
X003071Y007842D01*
X003041Y007803D01*
X003034Y007794D01*
X002998Y007746D01*
X002874Y007582D01*
X002681Y007085D01*
X002661Y006880D01*
X002656Y006827D01*
X002656Y006820D01*
X002650Y006761D01*
X002638Y006635D01*
X002638Y006635D01*
X002742Y006276D01*
X002972Y005981D01*
X003293Y005792D01*
X003293Y005792D01*
X003418Y005773D01*
X003422Y005772D01*
X003478Y005763D01*
X003537Y005754D01*
X003781Y005716D01*
X004393Y005744D01*
X004393Y005744D01*
X004988Y005893D01*
X005542Y006157D01*
X005739Y006305D01*
X005776Y006332D01*
X005787Y006341D01*
X006269Y006689D01*
X006269Y006003D01*
X006566Y006003D01*
X006566Y005923D01*
X006646Y005923D01*
X006646Y004918D01*
X006822Y004918D01*
X006857Y004927D01*
X006889Y004946D01*
X006915Y004972D01*
X006934Y005004D01*
X006943Y005039D01*
X006943Y005923D01*
X006646Y005923D01*
X006646Y006003D01*
X006943Y006003D01*
X006943Y006887D01*
X006934Y006923D01*
X006915Y006955D01*
X006889Y006981D01*
X006857Y006999D01*
X006822Y007009D01*
X006743Y007009D01*
X007922Y007761D01*
X008143Y007884D01*
X008143Y007695D01*
X008211Y007627D01*
X008143Y007558D01*
X008143Y007183D01*
X008213Y007113D01*
X008420Y007113D01*
X008420Y006932D01*
X007697Y006932D01*
X007640Y006989D01*
X007147Y006989D01*
X007077Y006919D01*
X007077Y006035D01*
X007074Y006027D01*
X007074Y004233D01*
X006752Y003911D01*
X006708Y003893D01*
X006613Y003798D01*
X006562Y003674D01*
X006562Y003539D01*
X006613Y003415D01*
X006708Y003320D01*
X006833Y003269D01*
X006967Y003269D01*
X007092Y003320D01*
X007187Y003415D01*
X007205Y003459D01*
X007665Y003919D01*
X007714Y004037D01*
X007714Y005382D01*
X008452Y005382D01*
X008525Y005455D01*
X008525Y005627D01*
X008677Y005475D01*
X008826Y005475D01*
X008826Y005291D01*
X008896Y005221D01*
X009020Y005221D01*
X009020Y005160D01*
X009063Y005058D01*
X009138Y004983D01*
X009104Y004983D01*
X009034Y004912D01*
X009034Y004301D01*
X009104Y004231D01*
X009715Y004231D01*
X009785Y004301D01*
X009785Y004777D01*
X010006Y004777D01*
X010109Y004819D01*
X010187Y004898D01*
X010230Y005001D01*
X010230Y005112D01*
X010187Y005215D01*
X010109Y005294D01*
X010006Y005337D01*
X009774Y005337D01*
X009774Y005447D01*
X009975Y005447D01*
X010080Y005552D01*
X010236Y005708D01*
X010236Y005769D01*
X010253Y005769D01*
X010253Y006076D01*
X010253Y006076D01*
X010253Y005769D01*
X010270Y005769D01*
X010270Y004968D01*
X010215Y004912D01*
X010215Y004301D01*
X010285Y004231D01*
X010896Y004231D01*
X010966Y004301D01*
X010966Y004912D01*
X010896Y004983D01*
X010630Y004983D01*
X010630Y005017D01*
X011670Y005017D01*
X011630Y004977D01*
X011630Y004337D01*
X011510Y004217D01*
X010990Y004217D01*
X010870Y004097D01*
X009385Y004097D01*
X009318Y004163D01*
X009216Y004206D01*
X009104Y004206D01*
X009002Y004163D01*
X008923Y004085D01*
X008881Y003982D01*
X008881Y003871D01*
X008923Y003769D01*
X009002Y003690D01*
X009104Y003648D01*
X009216Y003648D01*
X009318Y003690D01*
X009385Y003757D01*
X010731Y003757D01*
X010462Y003657D01*
X009326Y003359D01*
X008774Y003271D01*
X008774Y004635D01*
X008703Y004705D01*
X007974Y004705D01*
X007904Y004635D01*
X007904Y003197D01*
X007939Y003162D01*
X006994Y003107D01*
X006046Y003147D01*
X006096Y003197D01*
X006096Y004635D01*
X006026Y004705D01*
X005297Y004705D01*
X005226Y004635D01*
X005226Y003241D01*
X004853Y003294D01*
X004939Y003380D01*
X005000Y003527D01*
X005000Y003695D01*
X005035Y003730D01*
X005035Y004381D01*
X004965Y004451D01*
X004690Y004451D01*
X004680Y004455D01*
X004520Y004455D01*
X004510Y004451D01*
X004235Y004451D01*
X004165Y004381D01*
X004165Y003730D01*
X004200Y003695D01*
X004200Y003527D01*
X004248Y003412D01*
X004092Y003446D01*
X003820Y003553D01*
X003813Y003556D02*
X004200Y003556D01*
X004200Y003635D02*
X003656Y003635D01*
X003499Y003713D02*
X004182Y003713D01*
X004165Y003792D02*
X003342Y003792D01*
X003204Y003870D02*
X004165Y003870D01*
X004165Y003949D02*
X003077Y003949D01*
X003030Y003978D02*
X003030Y003978D01*
X002963Y004027D02*
X004165Y004027D01*
X004165Y004106D02*
X002856Y004106D01*
X002765Y004184D02*
X004165Y004184D01*
X004165Y004263D02*
X002687Y004263D01*
X002609Y004341D02*
X004165Y004341D01*
X004204Y004420D02*
X002531Y004420D01*
X002453Y004498D02*
X005226Y004498D01*
X005226Y004420D02*
X004996Y004420D01*
X005035Y004341D02*
X005226Y004341D01*
X005226Y004263D02*
X005035Y004263D01*
X005035Y004184D02*
X005226Y004184D01*
X005226Y004106D02*
X005035Y004106D01*
X005035Y004027D02*
X005226Y004027D01*
X005226Y003949D02*
X005035Y003949D01*
X005035Y003870D02*
X005226Y003870D01*
X005226Y003792D02*
X005035Y003792D01*
X005018Y003713D02*
X005226Y003713D01*
X005226Y003635D02*
X005000Y003635D01*
X005000Y003556D02*
X005226Y003556D01*
X005226Y003478D02*
X004980Y003478D01*
X004947Y003399D02*
X005226Y003399D01*
X005226Y003321D02*
X004880Y003321D01*
X005217Y003242D02*
X005226Y003242D01*
X004220Y003478D02*
X004011Y003478D01*
X004267Y004742D02*
X004560Y004742D01*
X004560Y005118D01*
X004145Y005118D01*
X004145Y004864D01*
X004155Y004828D01*
X004173Y004796D01*
X004199Y004770D01*
X004231Y004752D01*
X004267Y004742D01*
X004164Y004812D02*
X002238Y004812D01*
X002289Y004734D02*
X007074Y004734D01*
X007074Y004812D02*
X005036Y004812D01*
X005027Y004796D02*
X005045Y004828D01*
X005055Y004864D01*
X005055Y005118D01*
X004640Y005118D01*
X004640Y005198D01*
X004560Y005198D01*
X004560Y005573D01*
X004267Y005573D01*
X004231Y005564D01*
X004199Y005545D01*
X004173Y005519D01*
X004155Y005487D01*
X004145Y005452D01*
X004145Y005198D01*
X004560Y005198D01*
X004560Y005118D01*
X004640Y005118D01*
X004640Y004742D01*
X004933Y004742D01*
X004969Y004752D01*
X005001Y004770D01*
X005027Y004796D01*
X005055Y004891D02*
X007074Y004891D01*
X007074Y004969D02*
X006912Y004969D01*
X006943Y005048D02*
X007074Y005048D01*
X007074Y005126D02*
X006943Y005126D01*
X006943Y005205D02*
X007074Y005205D01*
X007074Y005283D02*
X006943Y005283D01*
X006943Y005362D02*
X007074Y005362D01*
X007074Y005440D02*
X006943Y005440D01*
X006943Y005519D02*
X007074Y005519D01*
X007074Y005597D02*
X006943Y005597D01*
X006943Y005676D02*
X007074Y005676D01*
X007074Y005754D02*
X006943Y005754D01*
X006943Y005833D02*
X007074Y005833D01*
X007074Y005911D02*
X006943Y005911D01*
X007074Y005990D02*
X006646Y005990D01*
X006646Y005911D02*
X006566Y005911D01*
X006566Y005923D02*
X006566Y004918D01*
X006391Y004918D01*
X006355Y004927D01*
X006323Y004946D01*
X006297Y004972D01*
X006279Y005004D01*
X006269Y005039D01*
X006269Y005923D01*
X006566Y005923D01*
X006566Y005990D02*
X005192Y005990D01*
X005356Y006068D02*
X006269Y006068D01*
X006269Y006147D02*
X005521Y006147D01*
X005542Y006157D02*
X005542Y006157D01*
X005633Y006225D02*
X006269Y006225D01*
X006269Y006304D02*
X005738Y006304D01*
X005739Y006305D02*
X005739Y006305D01*
X005787Y006341D02*
X005787Y006341D01*
X005845Y006382D02*
X006269Y006382D01*
X006269Y006461D02*
X005953Y006461D01*
X006062Y006539D02*
X006269Y006539D01*
X006269Y006618D02*
X006171Y006618D01*
X006745Y007010D02*
X008420Y007010D01*
X008420Y006932D02*
X007697Y006932D01*
X008159Y007167D02*
X006992Y007167D01*
X007115Y007246D02*
X008143Y007246D01*
X008143Y007324D02*
X007238Y007324D01*
X007361Y007403D02*
X008143Y007403D01*
X008143Y007481D02*
X007484Y007481D01*
X007607Y007560D02*
X008144Y007560D01*
X008200Y007638D02*
X007730Y007638D01*
X007853Y007717D02*
X008143Y007717D01*
X008143Y007795D02*
X007983Y007795D01*
X008124Y007874D02*
X008143Y007874D01*
X008420Y007089D02*
X006868Y007089D01*
X006929Y006932D02*
X007090Y006932D01*
X007077Y006853D02*
X006943Y006853D01*
X006943Y006775D02*
X007077Y006775D01*
X007077Y006696D02*
X006943Y006696D01*
X006943Y006618D02*
X007077Y006618D01*
X007077Y006539D02*
X006943Y006539D01*
X006943Y006461D02*
X007077Y006461D01*
X007077Y006382D02*
X006943Y006382D01*
X006943Y006304D02*
X007077Y006304D01*
X007077Y006225D02*
X006943Y006225D01*
X006943Y006147D02*
X007077Y006147D01*
X007077Y006068D02*
X006943Y006068D01*
X006646Y005833D02*
X006566Y005833D01*
X006566Y005754D02*
X006646Y005754D01*
X006646Y005676D02*
X006566Y005676D01*
X006566Y005597D02*
X006646Y005597D01*
X006646Y005519D02*
X006566Y005519D01*
X006566Y005440D02*
X006646Y005440D01*
X006646Y005362D02*
X006566Y005362D01*
X006566Y005283D02*
X006646Y005283D01*
X006646Y005205D02*
X006566Y005205D01*
X006566Y005126D02*
X006646Y005126D01*
X006646Y005048D02*
X006566Y005048D01*
X006566Y004969D02*
X006646Y004969D01*
X006300Y004969D02*
X005055Y004969D01*
X005055Y005048D02*
X006269Y005048D01*
X006269Y005126D02*
X004640Y005126D01*
X004640Y005198D02*
X005055Y005198D01*
X005055Y005452D01*
X005045Y005487D01*
X005027Y005519D01*
X005001Y005545D01*
X004969Y005564D01*
X004933Y005573D01*
X004640Y005573D01*
X004640Y005198D01*
X004640Y005205D02*
X004560Y005205D01*
X004560Y005283D02*
X004640Y005283D01*
X004640Y005362D02*
X004560Y005362D01*
X004560Y005440D02*
X004640Y005440D01*
X004640Y005519D02*
X004560Y005519D01*
X004434Y005754D02*
X006269Y005754D01*
X006269Y005676D02*
X001895Y005676D01*
X001881Y005754D02*
X003537Y005754D01*
X003537Y005754D01*
X003781Y005716D02*
X003781Y005716D01*
X004173Y005519D02*
X001922Y005519D01*
X001908Y005597D02*
X006269Y005597D01*
X006269Y005519D02*
X005027Y005519D01*
X005055Y005440D02*
X006269Y005440D01*
X006269Y005362D02*
X005055Y005362D01*
X005055Y005283D02*
X006269Y005283D01*
X006269Y005205D02*
X005055Y005205D01*
X004640Y005048D02*
X004560Y005048D01*
X004560Y005126D02*
X002070Y005126D01*
X002101Y005048D02*
X004145Y005048D01*
X004145Y004969D02*
X002135Y004969D01*
X002186Y004891D02*
X004145Y004891D01*
X004145Y005205D02*
X002039Y005205D01*
X002008Y005283D02*
X004145Y005283D01*
X004145Y005362D02*
X001977Y005362D01*
X001946Y005440D02*
X004145Y005440D01*
X004560Y004969D02*
X004640Y004969D01*
X004640Y004891D02*
X004560Y004891D01*
X004560Y004812D02*
X004640Y004812D01*
X005226Y004577D02*
X002392Y004577D01*
X002341Y004655D02*
X005247Y004655D01*
X006076Y004655D02*
X007074Y004655D01*
X007074Y004577D02*
X006096Y004577D01*
X006096Y004498D02*
X007074Y004498D01*
X007074Y004420D02*
X006096Y004420D01*
X006096Y004341D02*
X007074Y004341D01*
X007074Y004263D02*
X006096Y004263D01*
X006096Y004184D02*
X007025Y004184D01*
X006946Y004106D02*
X006096Y004106D01*
X006096Y004027D02*
X006868Y004027D01*
X006789Y003949D02*
X006096Y003949D01*
X006096Y003870D02*
X006685Y003870D01*
X006611Y003792D02*
X006096Y003792D01*
X006096Y003713D02*
X006578Y003713D01*
X006562Y003635D02*
X006096Y003635D01*
X006096Y003556D02*
X006562Y003556D01*
X006587Y003478D02*
X006096Y003478D01*
X006096Y003399D02*
X006629Y003399D01*
X006708Y003321D02*
X006096Y003321D01*
X006096Y003242D02*
X007904Y003242D01*
X007904Y003321D02*
X007092Y003321D01*
X007171Y003399D02*
X007904Y003399D01*
X007904Y003478D02*
X007224Y003478D01*
X007302Y003556D02*
X007904Y003556D01*
X007904Y003635D02*
X007381Y003635D01*
X007459Y003713D02*
X007904Y003713D01*
X007904Y003792D02*
X007538Y003792D01*
X007616Y003870D02*
X007904Y003870D01*
X007904Y003949D02*
X007677Y003949D01*
X007710Y004027D02*
X007904Y004027D01*
X007904Y004106D02*
X007714Y004106D01*
X007714Y004184D02*
X007904Y004184D01*
X007904Y004263D02*
X007714Y004263D01*
X007714Y004341D02*
X007904Y004341D01*
X007904Y004420D02*
X007714Y004420D01*
X007714Y004498D02*
X007904Y004498D01*
X007904Y004577D02*
X007714Y004577D01*
X007714Y004655D02*
X007924Y004655D01*
X007714Y004734D02*
X009034Y004734D01*
X009034Y004812D02*
X007714Y004812D01*
X007714Y004891D02*
X009034Y004891D01*
X009090Y004969D02*
X007714Y004969D01*
X007714Y005048D02*
X009072Y005048D01*
X009034Y005126D02*
X007714Y005126D01*
X007714Y005205D02*
X009020Y005205D01*
X008833Y005283D02*
X007714Y005283D01*
X007714Y005362D02*
X008826Y005362D01*
X008826Y005440D02*
X008510Y005440D01*
X008525Y005519D02*
X008633Y005519D01*
X008555Y005597D02*
X008525Y005597D01*
X008780Y005881D02*
X008780Y007113D01*
X008811Y007113D01*
X008806Y007091D01*
X008806Y006798D01*
X009260Y006798D01*
X009260Y006718D01*
X008806Y006718D01*
X008806Y006424D01*
X008815Y006389D01*
X008834Y006357D01*
X008860Y006331D01*
X008892Y006312D01*
X008927Y006303D01*
X009260Y006303D01*
X009260Y006718D01*
X009340Y006718D01*
X009340Y006798D01*
X009582Y006798D01*
X009582Y006755D01*
X009582Y006718D01*
X009340Y006718D01*
X009340Y006303D01*
X009673Y006303D01*
X009708Y006312D01*
X009740Y006331D01*
X009766Y006357D01*
X009770Y006363D01*
X009838Y006363D01*
X009838Y006313D01*
X009847Y006278D01*
X009866Y006246D01*
X009878Y006234D01*
X009878Y006152D01*
X009876Y006151D01*
X009876Y005858D01*
X009825Y005807D01*
X009774Y005807D01*
X009774Y006020D01*
X009704Y006090D01*
X008896Y006090D01*
X008826Y006020D01*
X008826Y005836D01*
X008780Y005881D01*
X008780Y005911D02*
X008826Y005911D01*
X008826Y005990D02*
X008780Y005990D01*
X008780Y006068D02*
X008874Y006068D01*
X008780Y006147D02*
X009876Y006147D01*
X009878Y006225D02*
X008780Y006225D01*
X008780Y006304D02*
X008924Y006304D01*
X008819Y006382D02*
X008780Y006382D01*
X008780Y006461D02*
X008806Y006461D01*
X008806Y006539D02*
X008780Y006539D01*
X008780Y006618D02*
X008806Y006618D01*
X008806Y006696D02*
X008780Y006696D01*
X008780Y006775D02*
X009260Y006775D01*
X009260Y006696D02*
X009340Y006696D01*
X009340Y006618D02*
X009260Y006618D01*
X009260Y006539D02*
X009340Y006539D01*
X009340Y006461D02*
X009260Y006461D01*
X009260Y006382D02*
X009340Y006382D01*
X009340Y006304D02*
X009260Y006304D01*
X009676Y006304D02*
X009840Y006304D01*
X009876Y006068D02*
X009726Y006068D01*
X009774Y005990D02*
X009876Y005990D01*
X009876Y005911D02*
X009774Y005911D01*
X009774Y005833D02*
X009851Y005833D01*
X010125Y005597D02*
X010270Y005597D01*
X010270Y005519D02*
X010047Y005519D01*
X010204Y005676D02*
X010270Y005676D01*
X010270Y005754D02*
X010236Y005754D01*
X010253Y005833D02*
X010253Y005833D01*
X010253Y005911D02*
X010253Y005911D01*
X010253Y005990D02*
X010253Y005990D01*
X010253Y006068D02*
X010253Y006068D01*
X010137Y006617D02*
X010137Y006632D01*
X010131Y006657D01*
X010137Y006682D01*
X010137Y006697D01*
X010410Y006697D01*
X010410Y006617D01*
X010137Y006617D01*
X010137Y006618D02*
X010410Y006618D01*
X010410Y006696D02*
X010137Y006696D01*
X009838Y006755D02*
X009582Y006755D01*
X009838Y006755D01*
X009838Y006755D01*
X009582Y006775D02*
X009340Y006775D01*
X008806Y006853D02*
X008780Y006853D01*
X008780Y006932D02*
X008806Y006932D01*
X008806Y007010D02*
X008780Y007010D01*
X008780Y007089D02*
X008806Y007089D01*
X009750Y008211D02*
X009750Y008537D01*
X010046Y008537D01*
X010046Y008490D01*
X010117Y008420D01*
X010492Y008420D01*
X010560Y008488D01*
X010628Y008420D01*
X010949Y008420D01*
X010953Y008415D01*
X010918Y008379D01*
X010908Y008389D01*
X010876Y008407D01*
X010841Y008417D01*
X010720Y008417D01*
X010720Y008049D01*
X010675Y008049D01*
X010675Y008417D01*
X010554Y008417D01*
X010518Y008407D01*
X010500Y008397D01*
X010168Y008397D01*
X010098Y008326D01*
X010098Y008272D01*
X010016Y008306D01*
X009904Y008306D01*
X009802Y008263D01*
X009750Y008211D01*
X009750Y008266D02*
X009809Y008266D01*
X009750Y008345D02*
X010116Y008345D01*
X010113Y008423D02*
X009750Y008423D01*
X009750Y008502D02*
X010046Y008502D01*
X010495Y008423D02*
X010625Y008423D01*
X010675Y008345D02*
X010720Y008345D01*
X010720Y008266D02*
X010675Y008266D01*
X010675Y008188D02*
X010720Y008188D01*
X010720Y008109D02*
X010675Y008109D01*
X011040Y007057D02*
X011225Y007057D01*
X011240Y007072D01*
X011425Y006887D01*
X011845Y006887D01*
X011970Y006762D01*
X011970Y006570D01*
X011923Y006570D01*
X011889Y006536D01*
X011863Y006562D01*
X011831Y006581D01*
X011796Y006590D01*
X011629Y006590D01*
X011629Y006341D01*
X011571Y006341D01*
X011571Y006284D01*
X011283Y006284D01*
X011283Y006157D01*
X011205Y006157D01*
X011105Y006256D01*
X011040Y006256D01*
X011053Y006278D01*
X011062Y006313D01*
X011062Y006363D01*
X011197Y006363D01*
X011232Y006373D01*
X011264Y006391D01*
X011283Y006410D01*
X011283Y006341D01*
X011571Y006341D01*
X011571Y006590D01*
X011404Y006590D01*
X011369Y006581D01*
X011337Y006562D01*
X011318Y006544D01*
X011318Y006558D01*
X011062Y006558D01*
X011062Y006558D01*
X011318Y006558D01*
X011318Y006632D01*
X011312Y006657D01*
X011318Y006682D01*
X011318Y006755D01*
X011062Y006755D01*
X011062Y006755D01*
X011318Y006755D01*
X011318Y006829D01*
X011309Y006864D01*
X011290Y006896D01*
X011264Y006922D01*
X011232Y006941D01*
X011197Y006950D01*
X011062Y006950D01*
X011062Y007000D01*
X011053Y007036D01*
X011040Y007057D01*
X011060Y007010D02*
X011302Y007010D01*
X011248Y006932D02*
X011380Y006932D01*
X011312Y006853D02*
X011879Y006853D01*
X011957Y006775D02*
X011318Y006775D01*
X011318Y006696D02*
X011970Y006696D01*
X011970Y006618D02*
X011318Y006618D01*
X011283Y006382D02*
X011249Y006382D01*
X011283Y006225D02*
X011136Y006225D01*
X011060Y006304D02*
X011571Y006304D01*
X011571Y006382D02*
X011629Y006382D01*
X011629Y006461D02*
X011571Y006461D01*
X011571Y006539D02*
X011629Y006539D01*
X011886Y006539D02*
X011892Y006539D01*
X010769Y006657D02*
X010763Y006632D01*
X010763Y006617D01*
X010490Y006617D01*
X010490Y006697D01*
X010510Y006697D01*
X010570Y006637D01*
X010710Y006637D01*
X010763Y006689D01*
X010763Y006682D01*
X010769Y006657D01*
X010763Y006618D02*
X010490Y006618D01*
X010490Y006696D02*
X010510Y006696D01*
X010270Y005440D02*
X009774Y005440D01*
X009774Y005362D02*
X010270Y005362D01*
X010270Y005283D02*
X010119Y005283D01*
X010192Y005205D02*
X010270Y005205D01*
X010270Y005126D02*
X010224Y005126D01*
X010230Y005048D02*
X010270Y005048D01*
X010270Y004969D02*
X010217Y004969D01*
X010215Y004891D02*
X010180Y004891D01*
X010215Y004812D02*
X010091Y004812D01*
X010215Y004734D02*
X009785Y004734D01*
X009785Y004655D02*
X010215Y004655D01*
X010215Y004577D02*
X009785Y004577D01*
X009785Y004498D02*
X010215Y004498D01*
X010215Y004420D02*
X009785Y004420D01*
X009785Y004341D02*
X010215Y004341D01*
X010253Y004263D02*
X009747Y004263D01*
X009376Y004106D02*
X010879Y004106D01*
X010957Y004184D02*
X009268Y004184D01*
X009072Y004263D02*
X008774Y004263D01*
X008774Y004341D02*
X009034Y004341D01*
X009034Y004420D02*
X008774Y004420D01*
X008774Y004498D02*
X009034Y004498D01*
X009034Y004577D02*
X008774Y004577D01*
X008753Y004655D02*
X009034Y004655D01*
X009052Y004184D02*
X008774Y004184D01*
X008774Y004106D02*
X008944Y004106D01*
X008900Y004027D02*
X008774Y004027D01*
X008774Y003949D02*
X008881Y003949D01*
X008881Y003870D02*
X008774Y003870D01*
X008774Y003792D02*
X008914Y003792D01*
X008979Y003713D02*
X008774Y003713D01*
X008774Y003635D02*
X010378Y003635D01*
X010614Y003713D02*
X009341Y003713D01*
X009481Y003399D02*
X008774Y003399D01*
X008774Y003321D02*
X009087Y003321D01*
X008774Y003478D02*
X009780Y003478D01*
X010079Y003556D02*
X008774Y003556D01*
X007937Y003164D02*
X006063Y003164D01*
X006269Y005833D02*
X004748Y005833D01*
X004988Y005893D02*
X004988Y005893D01*
X005027Y005911D02*
X006269Y005911D01*
X004090Y008266D02*
X002905Y008266D01*
X002755Y008188D02*
X003565Y008188D01*
X003483Y008168D02*
X003483Y008168D01*
X003394Y008109D02*
X002662Y008109D01*
X002569Y008031D02*
X003274Y008031D01*
X003154Y007952D02*
X002478Y007952D01*
X002412Y007874D02*
X003094Y007874D01*
X003153Y007951D02*
X003153Y007951D01*
X003153Y007951D01*
X003035Y007795D02*
X002349Y007795D01*
X002296Y007717D02*
X002976Y007717D01*
X002998Y007746D02*
X002998Y007746D01*
X002916Y007638D02*
X002243Y007638D01*
X002197Y007560D02*
X002865Y007560D01*
X002874Y007582D02*
X002874Y007582D01*
X002835Y007481D02*
X002160Y007481D01*
X002123Y007403D02*
X002804Y007403D01*
X002774Y007324D02*
X002086Y007324D01*
X002049Y007246D02*
X002743Y007246D01*
X002713Y007167D02*
X002012Y007167D01*
X001977Y007089D02*
X002682Y007089D01*
X002681Y007085D02*
X002681Y007085D01*
X002674Y007010D02*
X001958Y007010D01*
X001939Y006932D02*
X002666Y006932D01*
X002661Y006880D02*
X002661Y006880D01*
X002659Y006853D02*
X001921Y006853D01*
X001902Y006775D02*
X002651Y006775D01*
X002650Y006761D02*
X002650Y006761D01*
X002644Y006696D02*
X001883Y006696D01*
X001864Y006618D02*
X002643Y006618D01*
X002666Y006539D02*
X001851Y006539D01*
X001849Y006461D02*
X002689Y006461D01*
X002712Y006382D02*
X001846Y006382D01*
X001843Y006304D02*
X002734Y006304D01*
X002742Y006276D02*
X002742Y006276D01*
X002782Y006225D02*
X001841Y006225D01*
X001838Y006147D02*
X002843Y006147D01*
X002904Y006068D02*
X001836Y006068D01*
X001841Y005990D02*
X002965Y005990D01*
X002972Y005981D02*
X002972Y005981D01*
X002972Y005981D01*
X003091Y005911D02*
X001854Y005911D01*
X001868Y005833D02*
X003224Y005833D01*
X003866Y008261D02*
X003866Y008261D01*
X003900Y008402D02*
X003900Y008402D01*
X003824Y008423D02*
X003337Y008423D01*
X003056Y008345D02*
X003985Y008345D01*
X010910Y004969D02*
X011630Y004969D01*
X011630Y004891D02*
X010966Y004891D01*
X010966Y004812D02*
X011630Y004812D01*
X011630Y004734D02*
X010966Y004734D01*
X010966Y004655D02*
X011630Y004655D01*
X011630Y004577D02*
X010966Y004577D01*
X010966Y004498D02*
X011630Y004498D01*
X011630Y004420D02*
X010966Y004420D01*
X010966Y004341D02*
X011630Y004341D01*
X011556Y004263D02*
X010928Y004263D01*
X012970Y005337D02*
X012970Y005600D01*
X013053Y005600D01*
X013123Y005671D01*
X013123Y006243D01*
X013082Y006284D01*
X013098Y006290D01*
X013177Y006369D01*
X013219Y006471D01*
X013219Y006565D01*
X013307Y006654D01*
X013407Y006654D01*
X013442Y006688D01*
X013442Y006688D01*
X013468Y006662D01*
X013500Y006643D01*
X013536Y006634D01*
X013673Y006634D01*
X013673Y007168D01*
X013751Y007168D01*
X013751Y007245D01*
X013956Y007245D01*
X014040Y007162D01*
X014910Y007162D01*
X014995Y007247D01*
X014995Y008043D01*
X015020Y008017D01*
X015052Y007999D01*
X015088Y007990D01*
X015215Y007990D01*
X015215Y008278D01*
X015273Y008278D01*
X015273Y007990D01*
X015400Y007990D01*
X015436Y007999D01*
X015468Y008017D01*
X015494Y008044D01*
X015509Y008069D01*
X015568Y008010D01*
X015813Y008010D01*
X015833Y007989D01*
X015833Y007982D01*
X015806Y007982D01*
X015729Y007982D01*
X015693Y007972D01*
X015661Y007954D01*
X015635Y007928D01*
X015617Y007896D01*
X015607Y007860D01*
X015607Y007694D01*
X015607Y007528D01*
X015617Y007492D01*
X015620Y007486D01*
X015614Y007490D01*
X015579Y007499D01*
X015413Y007499D01*
X015413Y007300D01*
X015125Y007300D01*
X015125Y007267D01*
X015114Y007267D01*
X015020Y007173D01*
X014680Y006833D01*
X014680Y005573D01*
X014540Y005433D01*
X014540Y004873D01*
X014534Y004867D01*
X014498Y004903D01*
X014396Y004946D01*
X014301Y004946D01*
X013910Y005337D01*
X012970Y005337D01*
X012970Y005362D02*
X014540Y005362D01*
X014547Y005440D02*
X012970Y005440D01*
X012970Y005519D02*
X014626Y005519D01*
X014680Y005597D02*
X013778Y005597D01*
X013766Y005590D02*
X013798Y005608D01*
X013824Y005634D01*
X013842Y005666D01*
X013852Y005702D01*
X013852Y005918D01*
X013593Y005918D01*
X013593Y005580D01*
X013730Y005580D01*
X013766Y005590D01*
X013845Y005676D02*
X014680Y005676D01*
X014680Y005754D02*
X013852Y005754D01*
X013852Y005833D02*
X014680Y005833D01*
X014680Y005911D02*
X013852Y005911D01*
X013852Y005995D02*
X013852Y006211D01*
X013842Y006247D01*
X013824Y006279D01*
X013798Y006305D01*
X013766Y006323D01*
X013730Y006333D01*
X013593Y006333D01*
X013593Y005995D01*
X013852Y005995D01*
X013852Y006068D02*
X014680Y006068D01*
X014680Y005990D02*
X013593Y005990D01*
X013593Y005995D02*
X013593Y005918D01*
X013516Y005918D01*
X013516Y005580D01*
X013378Y005580D01*
X013343Y005590D01*
X013311Y005608D01*
X013285Y005634D01*
X013266Y005666D01*
X013257Y005702D01*
X013257Y005918D01*
X013516Y005918D01*
X013516Y005995D01*
X013257Y005995D01*
X013257Y006211D01*
X013266Y006247D01*
X013285Y006279D01*
X013311Y006305D01*
X013343Y006323D01*
X013378Y006333D01*
X013516Y006333D01*
X013516Y005995D01*
X013593Y005995D01*
X013593Y006068D02*
X013516Y006068D01*
X013516Y005990D02*
X013123Y005990D01*
X013123Y006068D02*
X013257Y006068D01*
X013257Y006147D02*
X013123Y006147D01*
X013123Y006225D02*
X013261Y006225D01*
X013310Y006304D02*
X013112Y006304D01*
X013182Y006382D02*
X014680Y006382D01*
X014680Y006304D02*
X013799Y006304D01*
X013848Y006225D02*
X014680Y006225D01*
X014680Y006147D02*
X013852Y006147D01*
X013593Y006147D02*
X013516Y006147D01*
X013516Y006225D02*
X013593Y006225D01*
X013593Y006304D02*
X013516Y006304D01*
X013215Y006461D02*
X014680Y006461D01*
X014680Y006539D02*
X013219Y006539D01*
X013271Y006618D02*
X014680Y006618D01*
X014680Y006696D02*
X013986Y006696D01*
X013981Y006688D02*
X014000Y006720D01*
X014009Y006755D01*
X014009Y007168D01*
X013751Y007168D01*
X013751Y006634D01*
X013888Y006634D01*
X013923Y006643D01*
X013955Y006662D01*
X013981Y006688D01*
X014009Y006775D02*
X014680Y006775D01*
X014700Y006853D02*
X014009Y006853D01*
X014009Y006932D02*
X014779Y006932D01*
X014857Y007010D02*
X014009Y007010D01*
X014009Y007089D02*
X014936Y007089D01*
X014916Y007167D02*
X015014Y007167D01*
X014994Y007246D02*
X015093Y007246D01*
X015125Y007300D02*
X015413Y007300D01*
X015413Y007300D01*
X015413Y007300D01*
X015413Y007499D01*
X015247Y007499D01*
X015211Y007490D01*
X015179Y007471D01*
X015153Y007445D01*
X015135Y007413D01*
X015125Y007378D01*
X015125Y007300D01*
X015125Y007324D02*
X014995Y007324D01*
X014995Y007403D02*
X015132Y007403D01*
X015196Y007481D02*
X014995Y007481D01*
X014995Y007560D02*
X015607Y007560D01*
X015607Y007638D02*
X014995Y007638D01*
X014995Y007717D02*
X015607Y007717D01*
X015607Y007694D02*
X015806Y007694D01*
X015607Y007694D01*
X015607Y007795D02*
X014995Y007795D01*
X014995Y007874D02*
X015611Y007874D01*
X015660Y007952D02*
X014995Y007952D01*
X014995Y008031D02*
X015007Y008031D01*
X015215Y008031D02*
X015273Y008031D01*
X015273Y008109D02*
X015215Y008109D01*
X015215Y008188D02*
X015273Y008188D01*
X015273Y008266D02*
X015215Y008266D01*
X015215Y008336D02*
X015215Y008624D01*
X015088Y008624D01*
X015052Y008614D01*
X015020Y008596D01*
X014995Y008571D01*
X014995Y008696D01*
X015181Y008745D01*
X015770Y008816D01*
X016362Y008773D01*
X016914Y008624D01*
X016800Y008624D01*
X016764Y008614D01*
X016732Y008596D01*
X016706Y008570D01*
X016691Y008544D01*
X016632Y008604D01*
X016257Y008604D01*
X016186Y008534D01*
X016186Y008289D01*
X016100Y008203D01*
X016014Y008289D01*
X016014Y008534D01*
X015943Y008604D01*
X015568Y008604D01*
X015509Y008544D01*
X015494Y008570D01*
X015468Y008596D01*
X015436Y008614D01*
X015400Y008624D01*
X015273Y008624D01*
X015273Y008336D01*
X015215Y008336D01*
X015215Y008345D02*
X015273Y008345D01*
X015273Y008423D02*
X015215Y008423D01*
X015215Y008502D02*
X015273Y008502D01*
X015273Y008580D02*
X015215Y008580D01*
X015150Y008737D02*
X016493Y008737D01*
X016655Y008580D02*
X016716Y008580D01*
X016785Y008659D02*
X014995Y008659D01*
X014995Y008580D02*
X015005Y008580D01*
X015484Y008580D02*
X015545Y008580D01*
X015967Y008580D02*
X016233Y008580D01*
X016186Y008502D02*
X016014Y008502D01*
X016014Y008423D02*
X016186Y008423D01*
X016186Y008345D02*
X016014Y008345D01*
X016037Y008266D02*
X016163Y008266D01*
X015806Y007982D02*
X015806Y007694D01*
X015806Y007694D01*
X015806Y007982D01*
X015806Y007952D02*
X015806Y007952D01*
X015806Y007874D02*
X015806Y007874D01*
X015806Y007795D02*
X015806Y007795D01*
X015806Y007717D02*
X015806Y007717D01*
X015806Y007694D02*
X015806Y007694D01*
X015547Y008031D02*
X015481Y008031D01*
X015413Y007481D02*
X015413Y007481D01*
X015413Y007403D02*
X015413Y007403D01*
X015413Y007324D02*
X015413Y007324D01*
X015409Y007107D02*
X015180Y007107D01*
X014840Y006767D01*
X014840Y005507D01*
X014700Y005367D01*
X014700Y004807D01*
X014560Y004667D01*
X014340Y004667D01*
X014511Y004891D02*
X014540Y004891D01*
X014540Y004969D02*
X014278Y004969D01*
X014199Y005048D02*
X014540Y005048D01*
X014540Y005126D02*
X014121Y005126D01*
X014042Y005205D02*
X014540Y005205D01*
X014540Y005283D02*
X013964Y005283D01*
X013593Y005597D02*
X013516Y005597D01*
X013516Y005676D02*
X013593Y005676D01*
X013593Y005754D02*
X013516Y005754D01*
X013516Y005833D02*
X013593Y005833D01*
X013593Y005911D02*
X013516Y005911D01*
X013257Y005911D02*
X013123Y005911D01*
X013123Y005833D02*
X013257Y005833D01*
X013257Y005754D02*
X013123Y005754D01*
X013123Y005676D02*
X013264Y005676D01*
X013330Y005597D02*
X012970Y005597D01*
X013673Y006696D02*
X013751Y006696D01*
X013751Y006775D02*
X013673Y006775D01*
X013673Y006853D02*
X013751Y006853D01*
X013751Y006932D02*
X013673Y006932D01*
X013673Y007010D02*
X013751Y007010D01*
X013751Y007089D02*
X013673Y007089D01*
X013673Y007167D02*
X013751Y007167D01*
X014009Y007167D02*
X014034Y007167D01*
X015000Y006707D02*
X015000Y005163D01*
X015400Y005263D02*
X015500Y005163D01*
X015400Y005263D02*
X015400Y005407D01*
X015140Y005667D01*
X015140Y006607D01*
X015240Y006707D01*
X015409Y006707D01*
X015413Y006907D02*
X015200Y006907D01*
X015000Y006707D01*
X015409Y007107D02*
X015413Y007104D01*
X016985Y008278D02*
X016985Y008336D01*
X017234Y008336D01*
X017234Y008472D01*
X017467Y008358D01*
X017676Y008216D01*
X017679Y008207D01*
X017722Y008184D01*
X017761Y008155D01*
X017772Y008156D01*
X018478Y007761D01*
X019064Y007387D01*
X017725Y007387D01*
X017725Y008055D01*
X017725Y008158D01*
X017652Y008232D01*
X017234Y008232D01*
X017234Y008278D01*
X016985Y008278D01*
X017234Y008266D02*
X017602Y008266D01*
X017696Y008188D02*
X017715Y008188D01*
X017725Y008109D02*
X017856Y008109D01*
X017725Y008031D02*
X017996Y008031D01*
X018136Y007952D02*
X017725Y007952D01*
X017725Y007874D02*
X018276Y007874D01*
X018417Y007795D02*
X017725Y007795D01*
X017725Y007717D02*
X018547Y007717D01*
X018670Y007638D02*
X017725Y007638D01*
X017725Y007560D02*
X018793Y007560D01*
X018916Y007481D02*
X017725Y007481D01*
X017725Y007403D02*
X019039Y007403D01*
X017487Y008345D02*
X017234Y008345D01*
X017234Y008423D02*
X017334Y008423D01*
X017797Y005182D02*
X018669Y005182D01*
X018669Y004992D01*
X018581Y004992D01*
X018486Y004952D01*
X018413Y004880D01*
X018374Y004785D01*
X018374Y004682D01*
X018413Y004587D01*
X018486Y004515D01*
X018581Y004475D01*
X018684Y004475D01*
X018778Y004515D01*
X018818Y004554D01*
X018888Y004554D01*
X018888Y004677D01*
X018888Y004554D01*
X018985Y004554D01*
X019021Y004564D01*
X019039Y004574D01*
X019962Y004574D01*
X020022Y004515D01*
X020116Y004475D01*
X020219Y004475D01*
X020314Y004515D01*
X020381Y004582D01*
X020752Y004582D01*
X020825Y004655D01*
X020825Y005336D01*
X020837Y005348D01*
X020880Y005451D01*
X020880Y005562D01*
X020837Y005665D01*
X020825Y005678D01*
X020825Y006181D01*
X020858Y006157D01*
X021412Y005893D01*
X022007Y005744D01*
X022619Y005716D01*
X022619Y005716D01*
X022863Y005754D01*
X022922Y005763D01*
X022926Y005764D01*
X022982Y005773D01*
X023107Y005792D01*
X023428Y005981D01*
X023428Y005981D01*
X023428Y005981D01*
X023658Y006276D01*
X023762Y006635D01*
X023750Y006761D01*
X023744Y006820D01*
X023744Y006821D01*
X023739Y006880D01*
X023739Y006880D01*
X023719Y007085D01*
X023526Y007582D01*
X023402Y007746D01*
X023402Y007746D01*
X023366Y007794D01*
X023366Y007794D01*
X023329Y007842D01*
X023247Y007951D01*
X023247Y007951D01*
X022917Y008168D01*
X022917Y008168D01*
X022534Y008261D01*
X022534Y008261D01*
X022280Y008234D01*
X022332Y008290D01*
X022500Y008402D01*
X022694Y008457D01*
X022795Y008462D01*
X022795Y008462D01*
X022975Y008446D01*
X023323Y008355D01*
X023643Y008190D01*
X023918Y007957D01*
X024034Y007819D01*
X024187Y007593D01*
X024420Y007100D01*
X024548Y006571D01*
X024566Y006026D01*
X024473Y005489D01*
X024273Y004982D01*
X023975Y004526D01*
X023590Y004139D01*
X023370Y003978D01*
X023115Y003820D01*
X022580Y003553D01*
X022308Y003446D01*
X021742Y003322D01*
X020579Y003156D01*
X019406Y003107D01*
X018234Y003175D01*
X017074Y003359D01*
X015938Y003657D01*
X014838Y004066D01*
X014571Y004197D01*
X014786Y004197D01*
X014983Y004393D01*
X015227Y004393D01*
X015250Y004416D01*
X015273Y004393D01*
X015290Y004393D01*
X015263Y004365D01*
X015220Y004262D01*
X015220Y004151D01*
X015263Y004048D01*
X015341Y003969D01*
X015444Y003927D01*
X015556Y003927D01*
X015659Y003969D01*
X015737Y004048D01*
X015780Y004151D01*
X015780Y004262D01*
X015737Y004365D01*
X015710Y004393D01*
X015727Y004393D01*
X015750Y004416D01*
X015773Y004393D01*
X015930Y004393D01*
X015923Y004385D01*
X015880Y004282D01*
X015880Y004171D01*
X015923Y004068D01*
X016001Y003989D01*
X016104Y003947D01*
X016216Y003947D01*
X016319Y003989D01*
X016397Y004068D01*
X016405Y004087D01*
X016436Y004056D01*
X016536Y003957D01*
X016746Y003957D01*
X016746Y003900D01*
X016817Y003830D01*
X017192Y003830D01*
X017251Y003889D01*
X017266Y003864D01*
X017292Y003837D01*
X017324Y003819D01*
X017360Y003810D01*
X017487Y003810D01*
X017487Y004098D01*
X017545Y004098D01*
X017545Y004156D01*
X017487Y004156D01*
X017487Y004444D01*
X017471Y004444D01*
X017471Y004622D01*
X017529Y004622D01*
X017529Y004680D01*
X017817Y004680D01*
X017817Y004807D01*
X017808Y004843D01*
X017789Y004875D01*
X017763Y004901D01*
X017737Y004915D01*
X017797Y004975D01*
X017797Y005182D01*
X017797Y005126D02*
X018669Y005126D01*
X018669Y005048D02*
X017797Y005048D01*
X017791Y004969D02*
X018527Y004969D01*
X018424Y004891D02*
X017773Y004891D01*
X017816Y004812D02*
X018386Y004812D01*
X018374Y004734D02*
X017817Y004734D01*
X017817Y004622D02*
X017529Y004622D01*
X017529Y004373D01*
X017545Y004373D01*
X017545Y004156D01*
X017794Y004156D01*
X017794Y004322D01*
X017784Y004358D01*
X017766Y004390D01*
X017758Y004398D01*
X017763Y004401D01*
X017789Y004427D01*
X017808Y004459D01*
X017817Y004495D01*
X017817Y004622D01*
X017817Y004577D02*
X018424Y004577D01*
X018385Y004655D02*
X017529Y004655D01*
X017529Y004577D02*
X017471Y004577D01*
X017471Y004498D02*
X017529Y004498D01*
X017529Y004420D02*
X017487Y004420D01*
X017487Y004341D02*
X017545Y004341D01*
X017545Y004263D02*
X017487Y004263D01*
X017487Y004184D02*
X017545Y004184D01*
X017545Y004106D02*
X017949Y004106D01*
X017949Y004160D02*
X017949Y003916D01*
X018298Y003916D01*
X018298Y003897D01*
X018317Y003897D01*
X018317Y003330D01*
X018343Y003330D01*
X018412Y003344D01*
X018477Y003371D01*
X018536Y003410D01*
X018586Y003460D01*
X018599Y003479D01*
X018661Y003417D01*
X019351Y003417D01*
X019398Y003463D01*
X019449Y003413D01*
X020139Y003413D01*
X020203Y003477D01*
X020214Y003460D01*
X020264Y003410D01*
X020323Y003371D01*
X020388Y003344D01*
X020457Y003330D01*
X020483Y003330D01*
X020483Y003897D01*
X020502Y003897D01*
X020502Y003330D01*
X020528Y003330D01*
X020597Y003344D01*
X020662Y003371D01*
X020721Y003410D01*
X020771Y003460D01*
X020810Y003518D01*
X020837Y003584D01*
X020851Y003653D01*
X020851Y003897D01*
X020502Y003897D01*
X020502Y003916D01*
X020851Y003916D01*
X020851Y004160D01*
X020837Y004230D01*
X020810Y004295D01*
X020771Y004354D01*
X020721Y004403D01*
X020662Y004443D01*
X020597Y004470D01*
X020528Y004484D01*
X020502Y004484D01*
X020502Y003916D01*
X020483Y003916D01*
X020483Y004484D01*
X020457Y004484D01*
X020388Y004470D01*
X020323Y004443D01*
X020264Y004403D01*
X020214Y004354D01*
X020203Y004337D01*
X020139Y004401D01*
X019449Y004401D01*
X019402Y004354D01*
X019351Y004405D01*
X018661Y004405D01*
X018596Y004339D01*
X018586Y004354D01*
X018536Y004403D01*
X018477Y004443D01*
X018412Y004470D01*
X018343Y004484D01*
X018317Y004484D01*
X018317Y003916D01*
X018298Y003916D01*
X018298Y004484D01*
X018272Y004484D01*
X018203Y004470D01*
X018138Y004443D01*
X018079Y004403D01*
X018029Y004354D01*
X017990Y004295D01*
X017963Y004230D01*
X017949Y004160D01*
X017954Y004184D02*
X017794Y004184D01*
X017794Y004263D02*
X017977Y004263D01*
X018021Y004341D02*
X017789Y004341D01*
X017782Y004420D02*
X018103Y004420D01*
X018298Y004420D02*
X018317Y004420D01*
X018317Y004341D02*
X018298Y004341D01*
X018298Y004263D02*
X018317Y004263D01*
X018317Y004184D02*
X018298Y004184D01*
X018298Y004106D02*
X018317Y004106D01*
X018317Y004027D02*
X018298Y004027D01*
X018298Y003949D02*
X018317Y003949D01*
X018298Y003897D02*
X017949Y003897D01*
X017949Y003653D01*
X017963Y003584D01*
X017990Y003518D01*
X018029Y003460D01*
X018079Y003410D01*
X018138Y003371D01*
X018203Y003344D01*
X018272Y003330D01*
X018298Y003330D01*
X018298Y003897D01*
X018298Y003870D02*
X018317Y003870D01*
X018317Y003792D02*
X018298Y003792D01*
X018298Y003713D02*
X018317Y003713D01*
X018317Y003635D02*
X018298Y003635D01*
X018298Y003556D02*
X018317Y003556D01*
X018317Y003478D02*
X018298Y003478D01*
X018298Y003399D02*
X018317Y003399D01*
X018520Y003399D02*
X020280Y003399D01*
X020483Y003399D02*
X020502Y003399D01*
X020502Y003478D02*
X020483Y003478D01*
X020483Y003556D02*
X020502Y003556D01*
X020502Y003635D02*
X020483Y003635D01*
X020483Y003713D02*
X020502Y003713D01*
X020502Y003792D02*
X020483Y003792D01*
X020483Y003870D02*
X020502Y003870D01*
X020502Y003949D02*
X020483Y003949D01*
X020483Y004027D02*
X020502Y004027D01*
X020502Y004106D02*
X020483Y004106D01*
X020483Y004184D02*
X020502Y004184D01*
X020502Y004263D02*
X020483Y004263D01*
X020483Y004341D02*
X020502Y004341D01*
X020502Y004420D02*
X020483Y004420D01*
X020376Y004577D02*
X021049Y004577D01*
X021050Y004576D02*
X021064Y004555D01*
X021091Y004549D01*
X021114Y004534D01*
X021140Y004539D01*
X021504Y004465D01*
X021289Y004126D01*
X021268Y004112D01*
X021262Y004084D01*
X021247Y004060D01*
X021252Y004035D01*
X021247Y004011D01*
X021263Y003987D01*
X021269Y003959D01*
X021290Y003945D01*
X021304Y003925D01*
X021332Y003919D01*
X021357Y003903D01*
X021381Y003909D01*
X021406Y003904D01*
X021430Y003920D01*
X021458Y003926D01*
X021471Y003947D01*
X021788Y004156D01*
X021872Y003787D01*
X021867Y003764D01*
X021883Y003738D01*
X021890Y003708D01*
X021909Y003696D01*
X021922Y003676D01*
X021951Y003670D01*
X021977Y003653D01*
X022000Y003658D01*
X022023Y003653D01*
X022049Y003670D01*
X022078Y003676D01*
X022091Y003696D01*
X022110Y003708D01*
X022117Y003738D01*
X022133Y003764D01*
X022128Y003787D01*
X022213Y004158D01*
X022518Y003957D01*
X022530Y003937D01*
X022560Y003930D01*
X022585Y003914D01*
X022608Y003919D01*
X022631Y003913D01*
X022657Y003929D01*
X022686Y003935D01*
X022699Y003955D01*
X022719Y003967D01*
X022726Y003996D01*
X022743Y004021D01*
X022738Y004045D01*
X022744Y004068D01*
X022728Y004093D01*
X022722Y004123D01*
X022702Y004136D01*
X022500Y004465D01*
X022880Y004539D01*
X022907Y004534D01*
X022929Y004549D01*
X022955Y004554D01*
X022970Y004577D01*
X024008Y004577D01*
X024059Y004655D02*
X023010Y004655D01*
X023007Y004667D02*
X023013Y004693D01*
X022998Y004715D01*
X022993Y004741D01*
X022970Y004757D01*
X022955Y004779D01*
X022929Y004784D01*
X022907Y004799D01*
X022880Y004794D01*
X022505Y004867D01*
X022700Y005176D01*
X022720Y005188D01*
X022727Y005218D01*
X022743Y005244D01*
X022738Y005266D01*
X022743Y005289D01*
X022727Y005315D01*
X022721Y005345D01*
X022701Y005357D01*
X022689Y005377D01*
X022659Y005384D01*
X022633Y005400D01*
X022610Y005395D01*
X022588Y005400D01*
X022562Y005384D01*
X022532Y005377D01*
X022520Y005358D01*
X022211Y005165D01*
X022128Y005547D01*
X022133Y005571D01*
X022117Y005595D01*
X022111Y005624D01*
X022090Y005637D01*
X022077Y005658D01*
X022049Y005664D01*
X022024Y005680D01*
X022000Y005675D01*
X021976Y005680D01*
X021951Y005664D01*
X021923Y005658D01*
X021910Y005637D01*
X021889Y005624D01*
X021883Y005595D01*
X021867Y005571D01*
X021872Y005547D01*
X021791Y005172D01*
X021491Y005366D01*
X021479Y005387D01*
X021450Y005393D01*
X021425Y005410D01*
X021401Y005405D01*
X021378Y005410D01*
X021353Y005394D01*
X021323Y005388D01*
X021310Y005368D01*
X021290Y005355D01*
X021283Y005326D01*
X021267Y005301D01*
X021272Y005278D01*
X021267Y005255D01*
X021282Y005229D01*
X021288Y005200D01*
X021309Y005187D01*
X021507Y004869D01*
X021140Y004794D01*
X021114Y004800D01*
X021091Y004784D01*
X021064Y004779D01*
X021050Y004757D01*
X021028Y004742D01*
X021022Y004715D01*
X021007Y004692D01*
X021012Y004667D01*
X021007Y004641D01*
X021022Y004618D01*
X021028Y004591D01*
X021050Y004576D01*
X021010Y004655D02*
X020825Y004655D01*
X020825Y004734D02*
X021026Y004734D01*
X020825Y004812D02*
X021228Y004812D01*
X021444Y004969D02*
X020825Y004969D01*
X020825Y004891D02*
X021493Y004891D01*
X021395Y005048D02*
X020825Y005048D01*
X020825Y005126D02*
X021346Y005126D01*
X021287Y005205D02*
X020825Y005205D01*
X020825Y005283D02*
X021271Y005283D01*
X021300Y005362D02*
X020843Y005362D01*
X020876Y005440D02*
X021849Y005440D01*
X021832Y005362D02*
X021499Y005362D01*
X021619Y005283D02*
X021815Y005283D01*
X021798Y005205D02*
X021740Y005205D01*
X021866Y005519D02*
X020880Y005519D01*
X020866Y005597D02*
X021883Y005597D01*
X021970Y005676D02*
X020827Y005676D01*
X020825Y005754D02*
X021966Y005754D01*
X022007Y005744D02*
X022007Y005744D01*
X022005Y005676D02*
X021995Y005676D01*
X022030Y005676D02*
X024505Y005676D01*
X024519Y005754D02*
X022863Y005754D01*
X023107Y005792D02*
X023107Y005792D01*
X023176Y005833D02*
X024532Y005833D01*
X024546Y005911D02*
X023309Y005911D01*
X023435Y005990D02*
X024559Y005990D01*
X024564Y006068D02*
X023496Y006068D01*
X023557Y006147D02*
X024562Y006147D01*
X024559Y006225D02*
X023618Y006225D01*
X023658Y006276D02*
X023658Y006276D01*
X023666Y006304D02*
X024557Y006304D01*
X024554Y006382D02*
X023688Y006382D01*
X023711Y006461D02*
X024551Y006461D01*
X024549Y006539D02*
X023734Y006539D01*
X023757Y006618D02*
X024536Y006618D01*
X024517Y006696D02*
X023756Y006696D01*
X023762Y006635D02*
X023762Y006635D01*
X023749Y006775D02*
X024498Y006775D01*
X024479Y006853D02*
X023741Y006853D01*
X023734Y006932D02*
X024461Y006932D01*
X024442Y007010D02*
X023726Y007010D01*
X023719Y007085D02*
X023719Y007085D01*
X023718Y007089D02*
X024423Y007089D01*
X024388Y007167D02*
X023687Y007167D01*
X023657Y007246D02*
X024351Y007246D01*
X024314Y007324D02*
X023626Y007324D01*
X023596Y007403D02*
X024277Y007403D01*
X024240Y007481D02*
X023565Y007481D01*
X023535Y007560D02*
X024203Y007560D01*
X024157Y007638D02*
X023484Y007638D01*
X023526Y007582D02*
X023526Y007582D01*
X023424Y007717D02*
X024104Y007717D01*
X024051Y007795D02*
X023365Y007795D01*
X023329Y007842D02*
X023329Y007842D01*
X023306Y007874D02*
X023988Y007874D01*
X024034Y007819D02*
X024034Y007819D01*
X023922Y007952D02*
X023246Y007952D01*
X023247Y007951D02*
X023247Y007951D01*
X023126Y008031D02*
X023831Y008031D01*
X023738Y008109D02*
X023006Y008109D01*
X022835Y008188D02*
X023645Y008188D01*
X023495Y008266D02*
X022310Y008266D01*
X022415Y008345D02*
X023344Y008345D01*
X023063Y008423D02*
X022576Y008423D01*
X021044Y006068D02*
X020825Y006068D01*
X020825Y005990D02*
X021208Y005990D01*
X021373Y005911D02*
X020825Y005911D01*
X020825Y005833D02*
X021652Y005833D01*
X021412Y005893D02*
X021412Y005893D01*
X020879Y006147D02*
X020825Y006147D01*
X020858Y006157D02*
X020858Y006157D01*
X022117Y005597D02*
X024492Y005597D01*
X024478Y005519D02*
X022134Y005519D01*
X022151Y005440D02*
X024454Y005440D01*
X024423Y005362D02*
X022698Y005362D01*
X022742Y005283D02*
X024392Y005283D01*
X024361Y005205D02*
X022724Y005205D01*
X022669Y005126D02*
X024330Y005126D01*
X024299Y005048D02*
X022619Y005048D01*
X022570Y004969D02*
X024265Y004969D01*
X024214Y004891D02*
X022520Y004891D01*
X022787Y004812D02*
X024162Y004812D01*
X024111Y004734D02*
X022994Y004734D01*
X023007Y004667D02*
X023013Y004640D01*
X022998Y004618D01*
X022993Y004592D01*
X022970Y004577D01*
X022670Y004498D02*
X023947Y004498D01*
X023869Y004420D02*
X022528Y004420D01*
X022576Y004341D02*
X023791Y004341D01*
X023713Y004263D02*
X022624Y004263D01*
X022672Y004184D02*
X023635Y004184D01*
X023544Y004106D02*
X022725Y004106D01*
X022742Y004027D02*
X023437Y004027D01*
X023370Y003978D02*
X023370Y003978D01*
X023323Y003949D02*
X022695Y003949D01*
X022523Y003949D02*
X022165Y003949D01*
X022183Y004027D02*
X022412Y004027D01*
X022292Y004106D02*
X022201Y004106D01*
X022147Y003870D02*
X023196Y003870D01*
X023058Y003792D02*
X022129Y003792D01*
X022111Y003713D02*
X022901Y003713D01*
X022744Y003635D02*
X020847Y003635D01*
X020851Y003713D02*
X021889Y003713D01*
X021871Y003792D02*
X020851Y003792D01*
X020851Y003870D02*
X021853Y003870D01*
X021835Y003949D02*
X021474Y003949D01*
X021592Y004027D02*
X021817Y004027D01*
X021799Y004106D02*
X021711Y004106D01*
X021425Y004341D02*
X020779Y004341D01*
X020823Y004263D02*
X021375Y004263D01*
X021326Y004184D02*
X020846Y004184D01*
X020851Y004106D02*
X021266Y004106D01*
X021250Y004027D02*
X020851Y004027D01*
X020851Y003949D02*
X021285Y003949D01*
X021475Y004420D02*
X020697Y004420D01*
X020288Y004420D02*
X018512Y004420D01*
X018526Y004498D02*
X017817Y004498D01*
X017794Y004098D02*
X017545Y004098D01*
X017545Y003810D01*
X017672Y003810D01*
X017708Y003819D01*
X017740Y003837D01*
X017766Y003864D01*
X017784Y003895D01*
X017794Y003931D01*
X017794Y004098D01*
X017794Y004027D02*
X017949Y004027D01*
X017949Y003949D02*
X017794Y003949D01*
X017770Y003870D02*
X017949Y003870D01*
X017949Y003792D02*
X015575Y003792D01*
X015609Y003949D02*
X016099Y003949D01*
X016221Y003949D02*
X016746Y003949D01*
X016776Y003870D02*
X015364Y003870D01*
X015391Y003949D02*
X015153Y003949D01*
X015284Y004027D02*
X014942Y004027D01*
X014757Y004106D02*
X015239Y004106D01*
X015220Y004184D02*
X014597Y004184D01*
X014852Y004263D02*
X015220Y004263D01*
X015253Y004341D02*
X014931Y004341D01*
X015716Y004027D02*
X015964Y004027D01*
X015907Y004106D02*
X015761Y004106D01*
X015780Y004184D02*
X015880Y004184D01*
X015880Y004263D02*
X015780Y004263D01*
X015747Y004341D02*
X015904Y004341D01*
X016356Y004027D02*
X016465Y004027D01*
X016321Y003556D02*
X017974Y003556D01*
X017953Y003635D02*
X016022Y003635D01*
X015786Y003713D02*
X017949Y003713D01*
X018017Y003478D02*
X016620Y003478D01*
X016919Y003399D02*
X018095Y003399D01*
X018427Y003164D02*
X020631Y003164D01*
X020705Y003399D02*
X022095Y003399D01*
X022389Y003478D02*
X020783Y003478D01*
X020826Y003556D02*
X022587Y003556D01*
X021735Y003321D02*
X017313Y003321D01*
X017809Y003242D02*
X021183Y003242D01*
X021340Y004498D02*
X020274Y004498D01*
X020206Y004341D02*
X020198Y004341D01*
X020061Y004498D02*
X018739Y004498D01*
X018888Y004577D02*
X018888Y004577D01*
X018888Y004655D02*
X018888Y004655D01*
X018888Y004677D02*
X018888Y004677D01*
X018598Y004341D02*
X018594Y004341D01*
X018598Y003478D02*
X018600Y003478D01*
X017545Y003870D02*
X017487Y003870D01*
X017487Y003949D02*
X017545Y003949D01*
X017545Y004027D02*
X017487Y004027D01*
X017262Y003870D02*
X017232Y003870D01*
X022202Y005205D02*
X022274Y005205D01*
X022185Y005283D02*
X022400Y005283D01*
X022522Y005362D02*
X022168Y005362D01*
D32*
X020600Y005507D03*
X019170Y006407D03*
X018870Y005807D03*
X017360Y007597D03*
X017000Y007757D03*
X016500Y007197D03*
X015930Y007207D03*
X017000Y006157D03*
X017000Y005807D03*
X016160Y004227D03*
X015500Y004207D03*
X012130Y004777D03*
X009950Y005057D03*
X009450Y005057D03*
X016100Y008637D03*
D33*
X016397Y007694D02*
X016594Y007694D01*
X016813Y007694D01*
X016937Y007694D01*
X017000Y007757D01*
X016813Y007694D02*
X017000Y007507D01*
X017000Y007313D01*
X016987Y007300D01*
X016500Y007197D02*
X015960Y007300D01*
X015413Y007300D01*
X016397Y006119D02*
X016397Y005910D01*
X016800Y005507D01*
X017300Y005507D01*
X017500Y005307D01*
X017500Y005163D01*
X017556Y005218D01*
X017556Y006251D01*
X017500Y006763D02*
X017500Y007007D01*
X017700Y007207D01*
X019100Y007207D01*
X019600Y006707D01*
X019600Y006407D01*
X019751Y006407D01*
X019751Y006355D01*
X020600Y005507D01*
X020212Y005118D01*
X019912Y005118D01*
X019912Y004960D01*
X018888Y004960D02*
X018888Y005788D01*
X018888Y006295D01*
X018900Y006307D01*
X018870Y005807D02*
X018888Y005788D01*
X017000Y006307D02*
X016813Y006119D01*
X016594Y006119D01*
X017000Y006307D02*
X017000Y006500D01*
X016987Y006513D01*
X012846Y005957D02*
X012669Y006134D01*
X012846Y005957D02*
X012690Y005801D01*
X012150Y005801D01*
X012120Y005771D01*
X012120Y005527D01*
X011840Y005247D01*
X010820Y005247D01*
X010647Y005420D01*
X010647Y006076D01*
X010844Y006076D02*
X011031Y006076D01*
X011300Y005807D01*
X011594Y005807D01*
X011600Y005801D01*
X012150Y006313D02*
X012150Y006837D01*
X011920Y007067D01*
X011500Y007067D01*
X011240Y007327D01*
X011300Y007387D01*
X011300Y007811D01*
X011280Y007831D01*
X010960Y007687D02*
X010960Y008167D01*
X011080Y008287D01*
X011224Y008287D01*
X011280Y008343D01*
X010906Y008717D01*
X010816Y008717D01*
X010304Y008717D02*
X010254Y008667D01*
X010343Y008027D02*
X009960Y008027D01*
X010343Y008027D02*
X010380Y007990D01*
X010380Y007667D01*
X010450Y007597D01*
X010450Y007237D01*
X010253Y007237D02*
X010253Y007514D01*
X010100Y007667D01*
X009700Y007667D01*
X009484Y007883D01*
X009330Y007883D01*
X009330Y007917D01*
X009330Y007883D02*
X008890Y007883D01*
X009100Y008187D02*
X008640Y008187D01*
X008440Y007987D01*
X008440Y007883D01*
X008440Y007371D02*
X008600Y007211D01*
X008600Y005807D01*
X008751Y005655D01*
X009300Y005655D01*
X009329Y005627D01*
X009900Y005627D01*
X010056Y005783D01*
X010056Y006076D01*
X010450Y006076D02*
X010450Y004747D01*
X010591Y004607D01*
X010647Y007237D02*
X010647Y007474D01*
X010720Y007547D01*
X010820Y007547D01*
X010960Y007687D01*
X011240Y007327D02*
X011151Y007237D01*
X010844Y007237D01*
X010056Y007237D02*
X009923Y007371D01*
X009330Y007371D01*
X009100Y008187D02*
X009280Y008367D01*
D34*
X009580Y008167D02*
X009580Y008627D01*
X009660Y008707D01*
X010294Y008707D01*
X010304Y008717D01*
X010697Y008407D02*
X009860Y008407D01*
X009580Y008167D02*
X009330Y007917D01*
X010697Y008027D02*
X010697Y008407D01*
X010640Y007207D02*
X010640Y006807D01*
X010450Y006657D02*
X010423Y006655D01*
X010396Y006649D01*
X010371Y006640D01*
X010347Y006627D01*
X010326Y006611D01*
X010306Y006591D01*
X010290Y006570D01*
X010277Y006546D01*
X010268Y006521D01*
X010262Y006494D01*
X010260Y006467D01*
X010260Y006407D01*
X010260Y006083D01*
X010253Y006076D01*
X010260Y006407D02*
X010258Y006431D01*
X010253Y006454D01*
X010243Y006476D01*
X010231Y006496D01*
X010215Y006514D01*
X010197Y006530D01*
X010177Y006542D01*
X010155Y006552D01*
X010132Y006557D01*
X010108Y006559D01*
X010108Y006558D02*
X009859Y006558D01*
X010600Y004616D02*
X010591Y004607D01*
X011060Y004047D02*
X010940Y003927D01*
X009160Y003927D01*
X011060Y004047D02*
X011580Y004047D01*
X011800Y004267D01*
X011800Y004907D01*
X012060Y005167D01*
X013840Y005167D01*
X014340Y004667D01*
X014380Y004667D01*
X014220Y004367D02*
X013640Y004947D01*
X012300Y004947D01*
X012130Y004777D01*
X012669Y006134D02*
X012560Y006242D01*
X012560Y006887D01*
X012669Y006995D01*
X012669Y007207D01*
X013200Y007207D02*
X013200Y006787D01*
X012940Y006527D01*
X015000Y004651D02*
X014716Y004367D01*
X014220Y004367D01*
X015500Y004207D02*
X015500Y004651D01*
X016000Y004651D02*
X016160Y004491D01*
X016160Y004227D01*
X016500Y004233D02*
X016606Y004127D01*
X017004Y004127D01*
X017500Y004143D02*
X017500Y004651D01*
X017000Y005151D01*
X017000Y005163D01*
X016500Y005163D02*
X016500Y005407D01*
X016400Y005507D01*
X016000Y005507D01*
X015806Y005700D01*
X015806Y006119D01*
X015800Y006113D01*
X016003Y006119D02*
X016200Y006119D01*
X016200Y005907D01*
X016100Y005807D01*
X016100Y005787D01*
X015900Y005307D02*
X015900Y005263D01*
X016000Y005163D01*
X015900Y005307D02*
X015413Y005794D01*
X015413Y006513D01*
X015409Y006707D02*
X015413Y006710D01*
X016003Y007694D02*
X016003Y008059D01*
X015756Y008307D01*
X016200Y008063D02*
X016444Y008307D01*
X016200Y008063D02*
X016200Y007694D01*
X016987Y007104D02*
X016987Y006907D01*
X016987Y006710D01*
X017447Y006710D01*
X017500Y006763D01*
X017716Y006763D01*
X017880Y006927D01*
X017556Y006251D02*
X017500Y006251D01*
X016800Y006107D02*
X016787Y006119D01*
X016594Y006119D01*
X016500Y004651D02*
X016500Y004233D01*
X016500Y004651D02*
X017000Y004651D01*
X017500Y004143D02*
X017516Y004127D01*
X017516Y003523D01*
X017440Y003447D01*
X017736Y003907D02*
X018307Y003907D01*
X017736Y003907D02*
X017516Y004127D01*
X018888Y004558D02*
X018888Y004960D01*
X018888Y004558D02*
X018889Y004553D01*
X018892Y004550D01*
X018895Y004547D01*
X018900Y004546D01*
X019400Y004960D02*
X019400Y005587D01*
X019420Y005607D01*
X019656Y005263D02*
X019940Y005547D01*
X019656Y005263D02*
X019656Y004960D01*
D35*
X019170Y006407D02*
X018649Y006407D01*
X011560Y006647D02*
X010460Y006647D01*
X010450Y006657D01*
X010349Y006758D01*
X009300Y006758D01*
X009300Y005655D02*
X009300Y005216D01*
X009459Y005057D01*
X009459Y004657D01*
X009409Y004607D01*
X009459Y005057D02*
X009950Y005057D01*
D36*
X009330Y007371D02*
X008890Y007371D01*
X008440Y007371D01*
X016100Y008637D02*
X016870Y008637D01*
X017000Y008507D01*
X017000Y008351D01*
X016956Y008307D01*
D37*
X017880Y006927D03*
X018640Y007507D03*
X019420Y005607D03*
X019940Y005547D03*
X021000Y005867D03*
X023120Y005127D03*
X023160Y004147D03*
X021420Y003567D03*
X018180Y004747D03*
X017440Y003447D03*
X016100Y005787D03*
X015940Y006627D03*
X016480Y006607D03*
X014340Y004667D03*
X012940Y006527D03*
X014000Y006767D03*
X010680Y006627D03*
X010180Y006627D03*
X009960Y008027D03*
X009860Y008407D03*
X009280Y008367D03*
X007760Y007287D03*
X007300Y007167D03*
X007940Y006487D03*
X007940Y006027D03*
X009160Y003927D03*
X007700Y003307D03*
X005740Y004987D03*
X003880Y003727D03*
X003560Y005287D03*
X002600Y007507D03*
X023850Y007507D03*
D38*
X012820Y007511D02*
X012435Y007511D01*
X012435Y007453D02*
X012820Y007453D01*
X012820Y007394D02*
X012435Y007394D01*
X012435Y007336D02*
X012820Y007336D01*
X012820Y007277D02*
X012435Y007277D01*
X012435Y007251D02*
X012435Y007572D01*
X012820Y007572D01*
X012820Y006768D01*
X012788Y006755D01*
X012712Y006679D01*
X012671Y006580D01*
X012671Y006473D01*
X012712Y006374D01*
X012788Y006299D01*
X012820Y006285D01*
X012820Y005327D01*
X011994Y005327D01*
X011834Y005167D01*
X010620Y005167D01*
X010620Y006007D01*
X010674Y006007D01*
X010674Y006006D01*
X010675Y006004D01*
X010675Y005863D01*
X010740Y005799D01*
X010948Y005799D01*
X011008Y005859D01*
X011130Y005736D01*
X011230Y005637D01*
X011313Y005637D01*
X011313Y005617D01*
X011377Y005553D01*
X011823Y005553D01*
X011887Y005617D01*
X011887Y005984D01*
X011865Y006007D01*
X012320Y006007D01*
X012320Y006065D01*
X012373Y006065D01*
X012437Y006129D01*
X012437Y006496D01*
X012373Y006560D01*
X012320Y006560D01*
X012320Y007172D01*
X012356Y007172D01*
X012435Y007251D01*
X012403Y007219D02*
X012820Y007219D01*
X012820Y007160D02*
X012320Y007160D01*
X012320Y007102D02*
X012820Y007102D01*
X012820Y007043D02*
X012320Y007043D01*
X012320Y006985D02*
X012820Y006985D01*
X012820Y006926D02*
X012320Y006926D01*
X012320Y006868D02*
X012820Y006868D01*
X012820Y006809D02*
X012320Y006809D01*
X012320Y006751D02*
X012784Y006751D01*
X012725Y006692D02*
X012320Y006692D01*
X012320Y006634D02*
X012693Y006634D01*
X012671Y006575D02*
X012320Y006575D01*
X012416Y006517D02*
X012671Y006517D01*
X012677Y006458D02*
X012437Y006458D01*
X012437Y006400D02*
X012701Y006400D01*
X012745Y006341D02*
X012437Y006341D01*
X012437Y006283D02*
X012820Y006283D01*
X012820Y006224D02*
X012437Y006224D01*
X012437Y006166D02*
X012820Y006166D01*
X012820Y006107D02*
X012415Y006107D01*
X012320Y006049D02*
X012820Y006049D01*
X012820Y005990D02*
X011881Y005990D01*
X011887Y005932D02*
X012820Y005932D01*
X012820Y005873D02*
X011887Y005873D01*
X011887Y005815D02*
X012820Y005815D01*
X012820Y005756D02*
X011887Y005756D01*
X011887Y005698D02*
X012820Y005698D01*
X012820Y005639D02*
X011887Y005639D01*
X011850Y005581D02*
X012820Y005581D01*
X012820Y005522D02*
X010620Y005522D01*
X010620Y005464D02*
X012820Y005464D01*
X012820Y005405D02*
X010620Y005405D01*
X010620Y005347D02*
X012820Y005347D01*
X011955Y005288D02*
X010620Y005288D01*
X010620Y005230D02*
X011897Y005230D01*
X011838Y005171D02*
X010620Y005171D01*
X010620Y005581D02*
X011350Y005581D01*
X011227Y005639D02*
X010620Y005639D01*
X010620Y005698D02*
X011169Y005698D01*
X011110Y005756D02*
X010620Y005756D01*
X010620Y005815D02*
X010724Y005815D01*
X010675Y005873D02*
X010620Y005873D01*
X010620Y005932D02*
X010675Y005932D01*
X010675Y005990D02*
X010620Y005990D01*
X010964Y005815D02*
X011052Y005815D01*
X012435Y007570D02*
X012820Y007570D01*
D39*
X004600Y004055D02*
X004600Y003607D01*
D40*
X004600Y003607D03*
X006900Y003607D03*
D41*
X007394Y004100D01*
X007394Y005963D01*
M02*
