G75*
G70*
%OFA0B0*%
%FSLAX24Y24*%
%IPPOS*%
%LPD*%
%AMOC8*
5,1,8,0,0,1.08239X$1,22.5*
%
%ADD10C,0.0010*%
%ADD11R,0.0315X0.0315*%
%ADD12R,0.0315X0.0866*%
%ADD13R,0.0591X0.0787*%
%ADD14C,0.0000*%
%ADD15C,0.0437*%
%ADD16C,0.0080*%
%ADD17C,0.0320*%
%ADD18C,0.0318*%
%ADD19C,0.0300*%
%ADD20C,0.0436*%
%ADD21C,0.0400*%
%ADD22C,0.0320*%
%ADD23C,0.0100*%
%ADD24C,0.0120*%
D10*
X002950Y003857D02*
X002839Y003934D01*
X002732Y004017D01*
X002628Y004104D01*
X002529Y004197D01*
X002435Y004294D01*
X002345Y004395D01*
X002260Y004501D01*
X002181Y004611D01*
X002107Y004724D01*
X002038Y004841D01*
X001975Y004961D01*
X001918Y005084D01*
X001867Y005209D01*
X001822Y005337D01*
X001783Y005466D01*
X001750Y005598D01*
X001724Y005731D01*
X001704Y005865D01*
X001691Y005999D01*
X001684Y006135D01*
X001684Y006270D01*
X001690Y006405D01*
X001702Y006540D01*
X001721Y006674D01*
X001747Y006807D01*
X001779Y006939D01*
X001817Y007069D01*
X001861Y007197D01*
X001911Y007323D01*
X001968Y007446D01*
X002030Y007566D01*
X002098Y007683D01*
X002171Y007797D01*
X002250Y007907D01*
X003600Y008607D02*
X003653Y008607D01*
X003706Y008603D01*
X003758Y008596D01*
X003810Y008585D01*
X003861Y008571D01*
X003911Y008554D01*
X003960Y008533D01*
X004008Y008510D01*
X004053Y008483D01*
X004097Y008453D01*
X004139Y008420D01*
X004178Y008385D01*
X004215Y008347D01*
X004250Y008307D01*
X004650Y007807D01*
X004606Y007849D01*
X004559Y007888D01*
X004510Y007924D01*
X004459Y007958D01*
X004406Y007988D01*
X004351Y008014D01*
X004295Y008038D01*
X004238Y008057D01*
X004179Y008074D01*
X004119Y008086D01*
X004059Y008095D01*
X003999Y008100D01*
X003938Y008102D01*
X003877Y008100D01*
X003816Y008094D01*
X003756Y008084D01*
X003697Y008071D01*
X003638Y008054D01*
X003581Y008034D01*
X003525Y008010D01*
X003470Y007983D01*
X003418Y007952D01*
X003367Y007918D01*
X003318Y007882D01*
X003272Y007842D01*
X003229Y007800D01*
X003188Y007755D01*
X003149Y007707D01*
X002250Y007907D02*
X002301Y007972D01*
X002355Y008034D01*
X002413Y008094D01*
X002473Y008151D01*
X002535Y008205D01*
X002600Y008257D01*
X002668Y008305D01*
X002737Y008350D01*
X002809Y008391D01*
X002882Y008429D01*
X002957Y008464D01*
X003034Y008495D01*
X003112Y008522D01*
X003192Y008546D01*
X003272Y008566D01*
X003353Y008582D01*
X003435Y008594D01*
X003517Y008603D01*
X003600Y008607D01*
X003500Y005907D02*
X003636Y005889D01*
X003772Y005877D01*
X003909Y005872D01*
X004046Y005874D01*
X004183Y005881D01*
X004319Y005896D01*
X004454Y005916D01*
X004589Y005943D01*
X004722Y005976D01*
X004853Y006016D01*
X004982Y006061D01*
X005109Y006113D01*
X005233Y006171D01*
X005355Y006234D01*
X005473Y006303D01*
X005589Y006377D01*
X005700Y006457D01*
X003150Y007707D02*
X003102Y007641D01*
X003058Y007572D01*
X003016Y007502D01*
X002978Y007430D01*
X002944Y007356D01*
X002912Y007281D01*
X002884Y007205D01*
X002860Y007127D01*
X002840Y007048D01*
X002823Y006968D01*
X002809Y006888D01*
X002800Y006807D01*
X002801Y006806D02*
X002797Y006749D01*
X002798Y006692D01*
X002802Y006635D01*
X002810Y006579D01*
X002823Y006523D01*
X002839Y006468D01*
X002858Y006415D01*
X002882Y006363D01*
X002908Y006312D01*
X002939Y006264D01*
X002972Y006218D01*
X003009Y006174D01*
X003048Y006133D01*
X003090Y006094D01*
X003135Y006059D01*
X003182Y006027D01*
X003231Y005998D01*
X003282Y005972D01*
X003335Y005950D01*
X003389Y005932D01*
X003444Y005918D01*
X003500Y005907D01*
X002950Y003856D02*
X003159Y003726D01*
X003374Y003605D01*
X003595Y003495D01*
X003820Y003395D01*
X004050Y003306D01*
X017800Y008307D02*
X018551Y007886D01*
X019285Y007438D01*
X020002Y006961D01*
X020700Y006457D01*
X023250Y007707D02*
X023298Y007641D01*
X023342Y007572D01*
X023384Y007502D01*
X023422Y007430D01*
X023456Y007356D01*
X023488Y007281D01*
X023516Y007205D01*
X023540Y007127D01*
X023560Y007048D01*
X023577Y006968D01*
X023591Y006888D01*
X023600Y006807D01*
X023599Y006806D02*
X023603Y006749D01*
X023602Y006692D01*
X023598Y006635D01*
X023590Y006579D01*
X023577Y006523D01*
X023561Y006468D01*
X023542Y006415D01*
X023518Y006363D01*
X023492Y006312D01*
X023461Y006264D01*
X023428Y006218D01*
X023391Y006174D01*
X023352Y006133D01*
X023310Y006094D01*
X023265Y006059D01*
X023218Y006027D01*
X023169Y005998D01*
X023118Y005972D01*
X023065Y005950D01*
X023011Y005932D01*
X022956Y005918D01*
X022900Y005907D01*
X024150Y007907D02*
X024099Y007972D01*
X024045Y008034D01*
X023987Y008094D01*
X023927Y008151D01*
X023865Y008205D01*
X023800Y008257D01*
X023732Y008305D01*
X023663Y008350D01*
X023591Y008391D01*
X023518Y008429D01*
X023443Y008464D01*
X023366Y008495D01*
X023288Y008522D01*
X023208Y008546D01*
X023128Y008566D01*
X023047Y008582D01*
X022965Y008594D01*
X022883Y008603D01*
X022800Y008607D01*
X022900Y005907D02*
X022764Y005889D01*
X022628Y005877D01*
X022491Y005872D01*
X022354Y005874D01*
X022217Y005881D01*
X022081Y005896D01*
X021946Y005916D01*
X021811Y005943D01*
X021678Y005976D01*
X021547Y006016D01*
X021418Y006061D01*
X021291Y006113D01*
X021167Y006171D01*
X021045Y006234D01*
X020927Y006303D01*
X020811Y006377D01*
X020700Y006457D01*
X024150Y007907D02*
X024229Y007797D01*
X024302Y007683D01*
X024370Y007566D01*
X024432Y007446D01*
X024489Y007323D01*
X024539Y007197D01*
X024583Y007069D01*
X024621Y006939D01*
X024653Y006807D01*
X024679Y006674D01*
X024698Y006540D01*
X024710Y006405D01*
X024716Y006270D01*
X024716Y006135D01*
X024709Y005999D01*
X024696Y005865D01*
X024676Y005731D01*
X024650Y005598D01*
X024617Y005466D01*
X024578Y005337D01*
X024533Y005209D01*
X024482Y005084D01*
X024425Y004961D01*
X024362Y004841D01*
X024293Y004724D01*
X024219Y004611D01*
X024140Y004501D01*
X024055Y004395D01*
X023965Y004294D01*
X023871Y004197D01*
X023772Y004104D01*
X023668Y004017D01*
X023561Y003934D01*
X023450Y003857D01*
X023251Y007707D02*
X023212Y007755D01*
X023171Y007800D01*
X023128Y007842D01*
X023082Y007882D01*
X023033Y007918D01*
X022982Y007952D01*
X022930Y007983D01*
X022875Y008010D01*
X022819Y008034D01*
X022762Y008054D01*
X022703Y008071D01*
X022644Y008084D01*
X022584Y008094D01*
X022523Y008100D01*
X022462Y008102D01*
X022401Y008100D01*
X022341Y008095D01*
X022281Y008086D01*
X022221Y008074D01*
X022162Y008057D01*
X022105Y008038D01*
X022049Y008014D01*
X021994Y007988D01*
X021941Y007958D01*
X021890Y007924D01*
X021841Y007888D01*
X021794Y007849D01*
X021750Y007807D01*
X022150Y008307D01*
X022185Y008347D01*
X022222Y008385D01*
X022261Y008420D01*
X022303Y008453D01*
X022347Y008483D01*
X022392Y008510D01*
X022440Y008533D01*
X022489Y008554D01*
X022539Y008571D01*
X022590Y008585D01*
X022642Y008596D01*
X022694Y008603D01*
X022747Y008607D01*
X022800Y008607D01*
X023450Y003856D02*
X023241Y003726D01*
X023026Y003605D01*
X022805Y003495D01*
X022580Y003395D01*
X022350Y003306D01*
X008600Y008307D02*
X007849Y007886D01*
X007115Y007438D01*
X006398Y006961D01*
X005700Y006457D01*
X008600Y008306D02*
X008726Y008397D01*
X008857Y008481D01*
X008991Y008559D01*
X009129Y008631D01*
X009270Y008696D01*
X009415Y008754D01*
X009561Y008805D01*
X009711Y008849D01*
X009861Y008886D01*
X010014Y008915D01*
X010168Y008938D01*
X010323Y008952D01*
X010478Y008960D01*
X010633Y008960D01*
X010788Y008953D01*
X010943Y008938D01*
X011097Y008916D01*
X011250Y008887D01*
X011401Y008850D01*
X011550Y008806D01*
X011550Y008807D02*
X011550Y007307D01*
X012300Y007307D01*
X012300Y007707D01*
X014100Y007707D01*
X014100Y007307D01*
X014850Y007307D01*
X014850Y008807D01*
X014850Y008806D02*
X014999Y008850D01*
X015150Y008887D01*
X015303Y008916D01*
X015457Y008938D01*
X015612Y008953D01*
X015767Y008960D01*
X015922Y008960D01*
X016077Y008952D01*
X016232Y008938D01*
X016386Y008915D01*
X016539Y008886D01*
X016689Y008849D01*
X016839Y008805D01*
X016985Y008754D01*
X017130Y008696D01*
X017271Y008631D01*
X017409Y008559D01*
X017543Y008481D01*
X017674Y008397D01*
X017800Y008306D01*
X013201Y004757D02*
X013683Y004473D01*
X014178Y004212D01*
X014685Y003975D01*
X015202Y003762D01*
X015729Y003573D01*
X016264Y003409D01*
X016806Y003270D01*
X017353Y003156D01*
X017906Y003069D01*
X018462Y003007D01*
X019021Y002972D01*
X019580Y002962D01*
X020139Y002979D01*
X020697Y003022D01*
X021253Y003091D01*
X021804Y003186D01*
X022350Y003307D01*
X013199Y004757D02*
X012717Y004473D01*
X012222Y004212D01*
X011715Y003975D01*
X011198Y003762D01*
X010671Y003573D01*
X010136Y003409D01*
X009594Y003270D01*
X009047Y003156D01*
X008494Y003069D01*
X007938Y003007D01*
X007379Y002972D01*
X006820Y002962D01*
X006261Y002979D01*
X005703Y003022D01*
X005147Y003091D01*
X004596Y003186D01*
X004050Y003307D01*
D11*
X002300Y006211D03*
X002300Y006802D03*
X012905Y005047D03*
X013495Y005047D03*
X024100Y006211D03*
X024100Y006802D03*
D12*
X013456Y007207D03*
X012944Y007207D03*
D13*
X012039Y006774D03*
X014361Y006774D03*
D14*
X018514Y004733D02*
X018516Y004754D01*
X018522Y004774D01*
X018531Y004794D01*
X018543Y004811D01*
X018558Y004825D01*
X018576Y004837D01*
X018596Y004845D01*
X018616Y004850D01*
X018637Y004851D01*
X018658Y004848D01*
X018678Y004842D01*
X018697Y004831D01*
X018714Y004818D01*
X018727Y004802D01*
X018738Y004784D01*
X018746Y004764D01*
X018750Y004744D01*
X018750Y004722D01*
X018746Y004702D01*
X018738Y004682D01*
X018727Y004664D01*
X018714Y004648D01*
X018697Y004635D01*
X018678Y004624D01*
X018658Y004618D01*
X018637Y004615D01*
X018616Y004616D01*
X018596Y004621D01*
X018576Y004629D01*
X018558Y004641D01*
X018543Y004655D01*
X018531Y004672D01*
X018522Y004692D01*
X018516Y004712D01*
X018514Y004733D01*
X020050Y004733D02*
X020052Y004754D01*
X020058Y004774D01*
X020067Y004794D01*
X020079Y004811D01*
X020094Y004825D01*
X020112Y004837D01*
X020132Y004845D01*
X020152Y004850D01*
X020173Y004851D01*
X020194Y004848D01*
X020214Y004842D01*
X020233Y004831D01*
X020250Y004818D01*
X020263Y004802D01*
X020274Y004784D01*
X020282Y004764D01*
X020286Y004744D01*
X020286Y004722D01*
X020282Y004702D01*
X020274Y004682D01*
X020263Y004664D01*
X020250Y004648D01*
X020233Y004635D01*
X020214Y004624D01*
X020194Y004618D01*
X020173Y004615D01*
X020152Y004616D01*
X020132Y004621D01*
X020112Y004629D01*
X020094Y004641D01*
X020079Y004655D01*
X020067Y004672D01*
X020058Y004692D01*
X020052Y004712D01*
X020050Y004733D01*
D15*
X020493Y004125D02*
X020493Y003688D01*
X018307Y003688D02*
X018307Y004125D01*
D16*
X003820Y003553D02*
X003285Y003820D01*
X003030Y003978D01*
X002810Y004139D01*
X002425Y004526D01*
X002127Y004982D01*
X001927Y005489D01*
X001834Y006026D01*
X001852Y006571D01*
X001980Y007100D01*
X002213Y007593D01*
X002366Y007819D01*
X002482Y007957D01*
X002757Y008190D01*
X003077Y008355D01*
X003425Y008446D01*
X003605Y008462D01*
X003706Y008457D01*
X003900Y008402D01*
X004068Y008290D01*
X004120Y008234D01*
X003866Y008261D01*
X003483Y008168D01*
X003153Y007951D01*
X003071Y007842D01*
X003071Y007842D01*
X003041Y007803D01*
X003034Y007794D01*
X002998Y007746D01*
X002874Y007582D01*
X002681Y007085D01*
X002667Y006944D01*
X002629Y006982D01*
X002577Y006982D01*
X002577Y007009D01*
X002507Y007079D01*
X002093Y007079D01*
X002023Y007009D01*
X002023Y006595D01*
X002093Y006524D01*
X002450Y006524D01*
X002450Y006489D01*
X002093Y006489D01*
X002023Y006419D01*
X002023Y006004D01*
X002093Y005934D01*
X002120Y005934D01*
X002120Y005092D01*
X003125Y004087D01*
X003140Y004087D01*
X003350Y003877D01*
X004392Y003877D01*
X004313Y003798D01*
X004262Y003674D01*
X004262Y003539D01*
X004313Y003415D01*
X004336Y003392D01*
X004092Y003446D01*
X003820Y003553D01*
X003813Y003556D02*
X004262Y003556D01*
X004262Y003635D02*
X003656Y003635D01*
X003499Y003713D02*
X004278Y003713D01*
X004311Y003792D02*
X003342Y003792D01*
X003204Y003870D02*
X004385Y003870D01*
X004287Y003478D02*
X004011Y003478D01*
X004305Y003399D02*
X004329Y003399D01*
X004904Y003287D02*
X006789Y003287D01*
X006833Y003269D01*
X006967Y003269D01*
X007092Y003320D01*
X007187Y003415D01*
X007238Y003539D01*
X007238Y003674D01*
X007187Y003798D01*
X007108Y003877D01*
X007510Y003877D01*
X008010Y003377D01*
X009395Y003377D01*
X009326Y003359D01*
X008166Y003175D01*
X006994Y003107D01*
X005821Y003156D01*
X004904Y003287D01*
X005217Y003242D02*
X008591Y003242D01*
X009087Y003321D02*
X007092Y003321D01*
X007171Y003399D02*
X007987Y003399D01*
X007909Y003478D02*
X007213Y003478D01*
X007238Y003556D02*
X007830Y003556D01*
X007752Y003635D02*
X007238Y003635D01*
X007222Y003713D02*
X007673Y003713D01*
X007595Y003792D02*
X007189Y003792D01*
X007115Y003870D02*
X007516Y003870D01*
X007904Y004263D02*
X010136Y004263D01*
X010170Y004297D02*
X009810Y003937D01*
X009439Y003937D01*
X009439Y003982D01*
X009397Y004085D01*
X009318Y004163D01*
X009216Y004206D01*
X009104Y004206D01*
X009002Y004163D01*
X008923Y004085D01*
X008881Y003982D01*
X008881Y003937D01*
X008230Y003937D01*
X007730Y004437D01*
X003620Y004437D01*
X003520Y004537D01*
X003520Y004551D01*
X002810Y005261D01*
X002810Y006189D01*
X002972Y005981D01*
X003293Y005792D01*
X003293Y005792D01*
X003418Y005773D01*
X003422Y005772D01*
X003478Y005763D01*
X003537Y005754D01*
X003781Y005716D01*
X004393Y005744D01*
X004393Y005744D01*
X004988Y005893D01*
X005542Y006157D01*
X005739Y006305D01*
X005776Y006332D01*
X005787Y006341D01*
X006481Y006841D01*
X007922Y007761D01*
X008628Y008156D01*
X008639Y008155D01*
X008678Y008184D01*
X008721Y008207D01*
X008724Y008216D01*
X008933Y008358D01*
X009001Y008391D01*
X009001Y008311D01*
X009043Y008209D01*
X009122Y008130D01*
X009224Y008088D01*
X009319Y008088D01*
X009450Y007956D01*
X009550Y007857D01*
X009735Y007857D01*
X009802Y007790D01*
X009904Y007748D01*
X010016Y007748D01*
X010118Y007790D01*
X010197Y007869D01*
X010239Y007971D01*
X010239Y008082D01*
X010197Y008185D01*
X010118Y008263D01*
X010016Y008306D01*
X009904Y008306D01*
X009802Y008263D01*
X009735Y008197D01*
X009690Y008197D01*
X009559Y008328D01*
X009559Y008422D01*
X009517Y008525D01*
X009438Y008603D01*
X009436Y008604D01*
X009466Y008618D01*
X010038Y008773D01*
X010630Y008816D01*
X011219Y008745D01*
X011405Y008696D01*
X011405Y007247D01*
X011490Y007162D01*
X011603Y007162D01*
X011603Y006814D01*
X011999Y006814D01*
X011999Y006734D01*
X012079Y006734D01*
X012079Y006814D01*
X012474Y006814D01*
X012474Y007186D01*
X012464Y007221D01*
X012446Y007253D01*
X012445Y007254D01*
X012445Y007562D01*
X012667Y007562D01*
X012667Y006724D01*
X012705Y006686D01*
X012703Y006685D01*
X012661Y006582D01*
X012661Y006471D01*
X012703Y006369D01*
X012782Y006290D01*
X012884Y006248D01*
X012996Y006248D01*
X013066Y006277D01*
X013090Y006277D01*
X013100Y006287D01*
X013474Y006287D01*
X013664Y006097D01*
X008252Y006097D01*
X008210Y006139D01*
X008210Y006409D01*
X008219Y006431D01*
X008219Y006542D01*
X008177Y006645D01*
X008098Y006723D01*
X007996Y006766D01*
X007884Y006766D01*
X007782Y006723D01*
X007703Y006645D01*
X007661Y006542D01*
X007661Y006431D01*
X007670Y006409D01*
X007670Y006104D01*
X007661Y006082D01*
X007661Y005971D01*
X007703Y005869D01*
X007782Y005790D01*
X007804Y005781D01*
X007911Y005674D01*
X007911Y005674D01*
X007987Y005598D01*
X008086Y005557D01*
X011568Y005557D01*
X011338Y005327D01*
X010030Y005327D01*
X010006Y005337D01*
X009894Y005337D01*
X009870Y005327D01*
X009530Y005327D01*
X009506Y005337D01*
X009394Y005337D01*
X009291Y005294D01*
X009213Y005215D01*
X009170Y005112D01*
X009170Y005001D01*
X009213Y004898D01*
X009291Y004819D01*
X009394Y004777D01*
X009506Y004777D01*
X009530Y004787D01*
X009870Y004787D01*
X009894Y004777D01*
X010006Y004777D01*
X010030Y004787D01*
X011410Y004787D01*
X011020Y004397D01*
X010270Y004397D01*
X010170Y004297D01*
X010214Y004341D02*
X007826Y004341D01*
X007747Y004420D02*
X011043Y004420D01*
X011121Y004498D02*
X003559Y004498D01*
X003495Y004577D02*
X011200Y004577D01*
X011278Y004655D02*
X003416Y004655D01*
X003338Y004734D02*
X011357Y004734D01*
X011373Y005362D02*
X002810Y005362D01*
X002810Y005440D02*
X011452Y005440D01*
X011530Y005519D02*
X002810Y005519D01*
X002810Y005597D02*
X007988Y005597D01*
X007909Y005676D02*
X002810Y005676D01*
X002810Y005754D02*
X003537Y005754D01*
X003537Y005754D01*
X003781Y005716D02*
X003781Y005716D01*
X003224Y005833D02*
X002810Y005833D01*
X002810Y005911D02*
X003091Y005911D01*
X002972Y005981D02*
X002972Y005981D01*
X002972Y005981D01*
X002965Y005990D02*
X002810Y005990D01*
X002810Y006068D02*
X002904Y006068D01*
X002843Y006147D02*
X002810Y006147D01*
X002120Y005911D02*
X001854Y005911D01*
X001868Y005833D02*
X002120Y005833D01*
X002120Y005754D02*
X001881Y005754D01*
X001895Y005676D02*
X002120Y005676D01*
X002120Y005597D02*
X001908Y005597D01*
X001922Y005519D02*
X002120Y005519D01*
X002120Y005440D02*
X001946Y005440D01*
X001977Y005362D02*
X002120Y005362D01*
X002120Y005283D02*
X002008Y005283D01*
X002039Y005205D02*
X002120Y005205D01*
X002120Y005126D02*
X002070Y005126D01*
X002101Y005048D02*
X002164Y005048D01*
X002135Y004969D02*
X002243Y004969D01*
X002186Y004891D02*
X002321Y004891D01*
X002400Y004812D02*
X002238Y004812D01*
X002289Y004734D02*
X002478Y004734D01*
X002557Y004655D02*
X002341Y004655D01*
X002392Y004577D02*
X002635Y004577D01*
X002714Y004498D02*
X002453Y004498D01*
X002531Y004420D02*
X002792Y004420D01*
X002871Y004341D02*
X002609Y004341D01*
X002687Y004263D02*
X002949Y004263D01*
X003028Y004184D02*
X002765Y004184D01*
X002856Y004106D02*
X003106Y004106D01*
X003199Y004027D02*
X002963Y004027D01*
X003030Y003978D02*
X003030Y003978D01*
X003077Y003949D02*
X003278Y003949D01*
X003259Y004812D02*
X009309Y004812D01*
X009220Y004891D02*
X003181Y004891D01*
X003102Y004969D02*
X009183Y004969D01*
X009170Y005048D02*
X003024Y005048D01*
X002945Y005126D02*
X009176Y005126D01*
X009208Y005205D02*
X002867Y005205D01*
X002810Y005283D02*
X009281Y005283D01*
X008210Y006147D02*
X013614Y006147D01*
X013535Y006225D02*
X008210Y006225D01*
X008210Y006304D02*
X011626Y006304D01*
X011631Y006294D02*
X011657Y006268D01*
X011689Y006249D01*
X011725Y006240D01*
X011999Y006240D01*
X011999Y006734D01*
X011603Y006734D01*
X011603Y006361D01*
X011613Y006326D01*
X011631Y006294D01*
X011603Y006382D02*
X008210Y006382D01*
X008219Y006461D02*
X011603Y006461D01*
X011603Y006539D02*
X008219Y006539D01*
X008188Y006618D02*
X011603Y006618D01*
X011603Y006696D02*
X008125Y006696D01*
X007755Y006696D02*
X006280Y006696D01*
X006388Y006775D02*
X011999Y006775D01*
X011999Y006696D02*
X012079Y006696D01*
X012079Y006734D02*
X012079Y006240D01*
X012352Y006240D01*
X012388Y006249D01*
X012420Y006268D01*
X012446Y006294D01*
X012464Y006326D01*
X012474Y006361D01*
X012474Y006734D01*
X012079Y006734D01*
X012079Y006775D02*
X012667Y006775D01*
X012667Y006853D02*
X012474Y006853D01*
X012474Y006932D02*
X012667Y006932D01*
X012667Y007010D02*
X012474Y007010D01*
X012474Y007089D02*
X012667Y007089D01*
X012667Y007167D02*
X012474Y007167D01*
X012450Y007246D02*
X012667Y007246D01*
X012667Y007324D02*
X012445Y007324D01*
X012445Y007403D02*
X012667Y007403D01*
X012667Y007481D02*
X012445Y007481D01*
X012445Y007560D02*
X012667Y007560D01*
X012944Y006943D02*
X013300Y006587D01*
X013600Y006587D01*
X013920Y006267D01*
X014860Y006267D01*
X015120Y006527D01*
X015120Y007927D01*
X015460Y008267D01*
X017440Y008267D01*
X018520Y007187D01*
X019260Y007187D01*
X019940Y006507D01*
X019940Y005547D01*
X020127Y005754D02*
X020466Y005754D01*
X020441Y005744D02*
X020363Y005665D01*
X020320Y005562D01*
X020320Y005451D01*
X020363Y005348D01*
X020394Y005317D01*
X020105Y005317D01*
X020177Y005389D01*
X020219Y005491D01*
X020219Y005602D01*
X020177Y005705D01*
X020100Y005781D01*
X020100Y006573D01*
X019677Y006996D01*
X019919Y006841D01*
X020613Y006341D01*
X020613Y006341D01*
X020623Y006333D01*
X020661Y006305D01*
X020858Y006157D01*
X021412Y005893D01*
X022007Y005744D01*
X022619Y005716D01*
X022619Y005716D01*
X022863Y005754D01*
X022922Y005763D01*
X022926Y005764D01*
X022982Y005773D01*
X023017Y005778D01*
X022925Y005687D01*
X020816Y005687D01*
X020759Y005744D01*
X020656Y005787D01*
X020544Y005787D01*
X020441Y005744D01*
X020373Y005676D02*
X020189Y005676D01*
X020219Y005597D02*
X020334Y005597D01*
X020320Y005519D02*
X020219Y005519D01*
X020198Y005440D02*
X020324Y005440D01*
X020357Y005362D02*
X020150Y005362D01*
X019775Y005317D02*
X017530Y005317D01*
X017570Y005356D01*
X017570Y006036D01*
X017950Y006417D01*
X018050Y006516D01*
X018050Y006702D01*
X018117Y006769D01*
X018159Y006871D01*
X018159Y006982D01*
X018117Y007085D01*
X018038Y007163D01*
X017936Y007206D01*
X017824Y007206D01*
X017722Y007163D01*
X017655Y007097D01*
X017610Y007097D01*
X017510Y006997D01*
X017130Y006617D01*
X016690Y006617D01*
X016590Y006517D01*
X016139Y006066D01*
X016044Y006066D01*
X015942Y006023D01*
X015863Y005945D01*
X015821Y005842D01*
X015821Y005731D01*
X015863Y005629D01*
X015942Y005550D01*
X016044Y005508D01*
X016156Y005508D01*
X016258Y005550D01*
X016337Y005629D01*
X016379Y005731D01*
X016379Y005825D01*
X016720Y006166D01*
X016720Y006101D01*
X016730Y006077D01*
X016730Y005929D01*
X016723Y005911D01*
X016208Y005397D01*
X015712Y005397D01*
X015433Y005676D01*
X015389Y005694D01*
X015673Y005978D01*
X015749Y006054D01*
X015790Y006153D01*
X015790Y007375D01*
X015932Y007517D01*
X016844Y007517D01*
X016923Y007438D01*
X017001Y007359D01*
X017104Y007317D01*
X017416Y007317D01*
X017519Y007359D01*
X017597Y007438D01*
X017640Y007541D01*
X017640Y007580D01*
X018300Y006920D01*
X018394Y006827D01*
X019114Y006827D01*
X019400Y006540D01*
X019400Y005886D01*
X019364Y005886D01*
X019262Y005843D01*
X019183Y005765D01*
X019141Y005662D01*
X019141Y005551D01*
X019183Y005449D01*
X019262Y005370D01*
X019364Y005328D01*
X019476Y005328D01*
X019578Y005370D01*
X019657Y005449D01*
X019668Y005475D01*
X019703Y005389D01*
X019775Y005317D01*
X019730Y005362D02*
X019558Y005362D01*
X019648Y005440D02*
X019682Y005440D01*
X019420Y005607D02*
X019560Y005747D01*
X019560Y006607D01*
X019180Y006987D01*
X018460Y006987D01*
X017360Y008087D01*
X015520Y008087D01*
X015260Y007827D01*
X015260Y006387D01*
X015000Y006127D01*
X013860Y006127D01*
X013540Y006447D01*
X013020Y006447D01*
X012768Y006304D02*
X012452Y006304D01*
X012474Y006382D02*
X012698Y006382D01*
X012665Y006461D02*
X012474Y006461D01*
X012474Y006539D02*
X012661Y006539D01*
X012676Y006618D02*
X012474Y006618D01*
X012474Y006696D02*
X012694Y006696D01*
X012079Y006618D02*
X011999Y006618D01*
X011999Y006539D02*
X012079Y006539D01*
X012079Y006461D02*
X011999Y006461D01*
X011999Y006382D02*
X012079Y006382D01*
X012079Y006304D02*
X011999Y006304D01*
X011603Y006853D02*
X006499Y006853D01*
X006622Y006932D02*
X011603Y006932D01*
X011603Y007010D02*
X006745Y007010D01*
X006868Y007089D02*
X011603Y007089D01*
X011484Y007167D02*
X006992Y007167D01*
X007115Y007246D02*
X011406Y007246D01*
X011405Y007324D02*
X007238Y007324D01*
X007361Y007403D02*
X011405Y007403D01*
X011405Y007481D02*
X007484Y007481D01*
X007607Y007560D02*
X011405Y007560D01*
X011405Y007638D02*
X007730Y007638D01*
X007853Y007717D02*
X011405Y007717D01*
X011405Y007795D02*
X010123Y007795D01*
X010199Y007874D02*
X011405Y007874D01*
X011405Y007952D02*
X010231Y007952D01*
X010239Y008031D02*
X011405Y008031D01*
X011405Y008109D02*
X010228Y008109D01*
X010194Y008188D02*
X011405Y008188D01*
X011405Y008266D02*
X010111Y008266D01*
X009809Y008266D02*
X009621Y008266D01*
X009559Y008345D02*
X011405Y008345D01*
X011405Y008423D02*
X009559Y008423D01*
X009526Y008502D02*
X011405Y008502D01*
X011405Y008580D02*
X009461Y008580D01*
X009615Y008659D02*
X011405Y008659D01*
X011250Y008737D02*
X009907Y008737D01*
X009376Y008031D02*
X008404Y008031D01*
X008544Y008109D02*
X009172Y008109D01*
X009064Y008188D02*
X008685Y008188D01*
X008798Y008266D02*
X009020Y008266D01*
X009001Y008345D02*
X008913Y008345D01*
X009454Y007952D02*
X008264Y007952D01*
X008124Y007874D02*
X009533Y007874D01*
X009797Y007795D02*
X007983Y007795D01*
X007692Y006618D02*
X006171Y006618D01*
X006062Y006539D02*
X007661Y006539D01*
X007661Y006461D02*
X005953Y006461D01*
X005845Y006382D02*
X007670Y006382D01*
X007670Y006304D02*
X005738Y006304D01*
X005739Y006305D02*
X005739Y006305D01*
X005787Y006341D02*
X005787Y006341D01*
X005633Y006225D02*
X007670Y006225D01*
X007670Y006147D02*
X005521Y006147D01*
X005542Y006157D02*
X005542Y006157D01*
X005356Y006068D02*
X007661Y006068D01*
X007661Y005990D02*
X005192Y005990D01*
X005027Y005911D02*
X007686Y005911D01*
X007739Y005833D02*
X004748Y005833D01*
X004988Y005893D02*
X004988Y005893D01*
X004434Y005754D02*
X007831Y005754D01*
X007983Y004184D02*
X009052Y004184D01*
X008944Y004106D02*
X008061Y004106D01*
X008140Y004027D02*
X008900Y004027D01*
X008881Y003949D02*
X008218Y003949D01*
X007973Y003164D02*
X005769Y003164D01*
X009268Y004184D02*
X010057Y004184D01*
X009979Y004106D02*
X009376Y004106D01*
X009420Y004027D02*
X009900Y004027D01*
X009822Y003949D02*
X009439Y003949D01*
X013711Y006702D02*
X013733Y006724D01*
X013733Y007562D01*
X013955Y007562D01*
X013955Y007254D01*
X013954Y007253D01*
X013936Y007221D01*
X013926Y007186D01*
X013926Y006814D01*
X014321Y006814D01*
X014321Y006734D01*
X013926Y006734D01*
X013926Y006487D01*
X013711Y006702D01*
X013717Y006696D02*
X013926Y006696D01*
X013926Y006618D02*
X013795Y006618D01*
X013874Y006539D02*
X013926Y006539D01*
X013733Y006775D02*
X014321Y006775D01*
X014401Y006775D02*
X014960Y006775D01*
X014960Y006853D02*
X014797Y006853D01*
X014797Y006814D02*
X014797Y007162D01*
X014910Y007162D01*
X014960Y007212D01*
X014960Y006593D01*
X014797Y006430D01*
X014797Y006734D01*
X014401Y006734D01*
X014401Y006814D01*
X014797Y006814D01*
X014797Y006932D02*
X014960Y006932D01*
X014960Y007010D02*
X014797Y007010D01*
X014797Y007089D02*
X014960Y007089D01*
X014960Y007167D02*
X014916Y007167D01*
X014960Y006696D02*
X014797Y006696D01*
X014797Y006618D02*
X014960Y006618D01*
X014906Y006539D02*
X014797Y006539D01*
X014797Y006461D02*
X014828Y006461D01*
X015528Y005833D02*
X015821Y005833D01*
X015821Y005754D02*
X015449Y005754D01*
X015433Y005676D02*
X015844Y005676D01*
X015895Y005597D02*
X015511Y005597D01*
X015590Y005519D02*
X016018Y005519D01*
X016182Y005519D02*
X016330Y005519D01*
X016305Y005597D02*
X016409Y005597D01*
X016356Y005676D02*
X016487Y005676D01*
X016566Y005754D02*
X016379Y005754D01*
X016386Y005833D02*
X016644Y005833D01*
X016723Y005911D02*
X016465Y005911D01*
X016543Y005990D02*
X016730Y005990D01*
X016730Y006068D02*
X016622Y006068D01*
X016700Y006147D02*
X016720Y006147D01*
X016455Y006382D02*
X015790Y006382D01*
X015790Y006304D02*
X016377Y006304D01*
X016298Y006225D02*
X015790Y006225D01*
X015787Y006147D02*
X016220Y006147D01*
X016141Y006068D02*
X015755Y006068D01*
X015685Y005990D02*
X015908Y005990D01*
X015850Y005911D02*
X015606Y005911D01*
X015668Y005440D02*
X016252Y005440D01*
X017070Y004577D02*
X018424Y004577D01*
X018413Y004587D02*
X018486Y004515D01*
X018581Y004475D01*
X018684Y004475D01*
X018778Y004515D01*
X018851Y004587D01*
X018890Y004682D01*
X018890Y004785D01*
X018851Y004880D01*
X018778Y004952D01*
X018720Y004977D01*
X020080Y004977D01*
X020022Y004952D01*
X019949Y004880D01*
X019910Y004785D01*
X019910Y004682D01*
X019949Y004587D01*
X020022Y004515D01*
X020116Y004475D01*
X020219Y004475D01*
X020314Y004515D01*
X020387Y004587D01*
X020426Y004682D01*
X020426Y004785D01*
X020387Y004880D01*
X020314Y004952D01*
X020255Y004977D01*
X020490Y004977D01*
X020520Y004946D01*
X020520Y004932D01*
X020580Y004872D01*
X020820Y004632D01*
X020925Y004527D01*
X023375Y004527D01*
X023480Y004632D01*
X024280Y005432D01*
X024280Y005934D01*
X024307Y005934D01*
X024377Y006004D01*
X024377Y006419D01*
X024307Y006489D01*
X023980Y006489D01*
X023980Y006524D01*
X024307Y006524D01*
X024377Y006595D01*
X024377Y007009D01*
X024307Y007079D01*
X023893Y007079D01*
X023823Y007009D01*
X023823Y006982D01*
X023821Y006982D01*
X023737Y006898D01*
X023719Y007085D01*
X023526Y007582D01*
X023402Y007746D01*
X023402Y007746D01*
X023366Y007794D01*
X023366Y007794D01*
X023329Y007842D01*
X023247Y007951D01*
X023247Y007951D01*
X022917Y008168D01*
X022917Y008168D01*
X022534Y008261D01*
X022534Y008261D01*
X022280Y008234D01*
X022332Y008290D01*
X022500Y008402D01*
X022694Y008457D01*
X022795Y008462D01*
X022795Y008462D01*
X022975Y008446D01*
X023323Y008355D01*
X023643Y008190D01*
X023918Y007957D01*
X024034Y007819D01*
X024187Y007593D01*
X024420Y007100D01*
X024548Y006571D01*
X024566Y006026D01*
X024473Y005489D01*
X024273Y004982D01*
X023975Y004526D01*
X023590Y004139D01*
X023370Y003978D01*
X023115Y003820D01*
X022580Y003553D01*
X022308Y003446D01*
X021742Y003322D01*
X020579Y003156D01*
X019406Y003107D01*
X018234Y003175D01*
X017074Y003359D01*
X015938Y003657D01*
X015801Y003708D01*
X015910Y003817D01*
X016010Y003916D01*
X016010Y003986D01*
X016104Y003947D01*
X016216Y003947D01*
X016319Y003989D01*
X016366Y004037D01*
X016530Y004037D01*
X016630Y004136D01*
X017470Y004977D01*
X018545Y004977D01*
X018486Y004952D01*
X018413Y004880D01*
X018374Y004785D01*
X018374Y004682D01*
X018413Y004587D01*
X018385Y004655D02*
X017149Y004655D01*
X017227Y004734D02*
X018374Y004734D01*
X018386Y004812D02*
X017306Y004812D01*
X017384Y004891D02*
X018424Y004891D01*
X018527Y004969D02*
X017463Y004969D01*
X017570Y005362D02*
X019282Y005362D01*
X019192Y005440D02*
X017570Y005440D01*
X017570Y005519D02*
X019154Y005519D01*
X019141Y005597D02*
X017570Y005597D01*
X017570Y005676D02*
X019147Y005676D01*
X019179Y005754D02*
X017570Y005754D01*
X017570Y005833D02*
X019251Y005833D01*
X019400Y005911D02*
X017570Y005911D01*
X017570Y005990D02*
X019400Y005990D01*
X019400Y006068D02*
X017602Y006068D01*
X017680Y006147D02*
X019400Y006147D01*
X019400Y006225D02*
X017759Y006225D01*
X017837Y006304D02*
X019400Y006304D01*
X019400Y006382D02*
X017916Y006382D01*
X017994Y006461D02*
X019400Y006461D01*
X019400Y006539D02*
X018050Y006539D01*
X018050Y006618D02*
X019323Y006618D01*
X019244Y006696D02*
X018050Y006696D01*
X018119Y006775D02*
X019166Y006775D01*
X019127Y007347D02*
X018586Y007347D01*
X017783Y008150D01*
X018478Y007761D01*
X019127Y007347D01*
X019039Y007403D02*
X018530Y007403D01*
X018452Y007481D02*
X018916Y007481D01*
X018793Y007560D02*
X018373Y007560D01*
X018295Y007638D02*
X018670Y007638D01*
X018547Y007717D02*
X018216Y007717D01*
X018138Y007795D02*
X018417Y007795D01*
X018276Y007874D02*
X018059Y007874D01*
X018136Y007952D02*
X017981Y007952D01*
X017996Y008031D02*
X017902Y008031D01*
X017856Y008109D02*
X017824Y008109D01*
X017661Y007560D02*
X017640Y007560D01*
X017615Y007481D02*
X017739Y007481D01*
X017818Y007403D02*
X017562Y007403D01*
X017434Y007324D02*
X017896Y007324D01*
X017975Y007246D02*
X015790Y007246D01*
X015790Y007324D02*
X017086Y007324D01*
X016958Y007403D02*
X015818Y007403D01*
X015896Y007481D02*
X016880Y007481D01*
X017445Y006932D02*
X015790Y006932D01*
X015790Y007010D02*
X017523Y007010D01*
X017602Y007089D02*
X015790Y007089D01*
X015790Y007167D02*
X017731Y007167D01*
X018029Y007167D02*
X018053Y007167D01*
X018113Y007089D02*
X018132Y007089D01*
X018147Y007010D02*
X018210Y007010D01*
X018159Y006932D02*
X018289Y006932D01*
X018367Y006853D02*
X018152Y006853D01*
X017366Y006853D02*
X015790Y006853D01*
X015790Y006775D02*
X017288Y006775D01*
X017209Y006696D02*
X015790Y006696D01*
X015790Y006618D02*
X017131Y006618D01*
X016612Y006539D02*
X015790Y006539D01*
X015790Y006461D02*
X016534Y006461D01*
X014995Y008028D02*
X014995Y008696D01*
X015181Y008745D01*
X015770Y008816D01*
X016362Y008773D01*
X016934Y008618D01*
X017327Y008427D01*
X015394Y008427D01*
X014995Y008028D01*
X014995Y008031D02*
X014998Y008031D01*
X014995Y008109D02*
X015076Y008109D01*
X015155Y008188D02*
X014995Y008188D01*
X014995Y008266D02*
X015233Y008266D01*
X015312Y008345D02*
X014995Y008345D01*
X014995Y008423D02*
X015390Y008423D01*
X015150Y008737D02*
X016493Y008737D01*
X016785Y008659D02*
X014995Y008659D01*
X014995Y008580D02*
X017012Y008580D01*
X017173Y008502D02*
X014995Y008502D01*
X013955Y007560D02*
X013733Y007560D01*
X013733Y007481D02*
X013955Y007481D01*
X013955Y007403D02*
X013733Y007403D01*
X013733Y007324D02*
X013955Y007324D01*
X013950Y007246D02*
X013733Y007246D01*
X013733Y007167D02*
X013926Y007167D01*
X013926Y007089D02*
X013733Y007089D01*
X013733Y007010D02*
X013926Y007010D01*
X013926Y006932D02*
X013733Y006932D01*
X013733Y006853D02*
X013926Y006853D01*
X016756Y004263D02*
X017977Y004263D01*
X017990Y004295D02*
X017963Y004230D01*
X017949Y004160D01*
X017949Y003916D01*
X018298Y003916D01*
X018298Y003897D01*
X018317Y003897D01*
X018317Y003916D01*
X018666Y003916D01*
X018666Y004160D01*
X018652Y004230D01*
X018625Y004295D01*
X018586Y004354D01*
X018536Y004403D01*
X018477Y004443D01*
X018412Y004470D01*
X018343Y004484D01*
X018317Y004484D01*
X018317Y003916D01*
X018298Y003916D01*
X018298Y004484D01*
X018272Y004484D01*
X018203Y004470D01*
X018138Y004443D01*
X018079Y004403D01*
X018029Y004354D01*
X017990Y004295D01*
X018021Y004341D02*
X016835Y004341D01*
X016913Y004420D02*
X018103Y004420D01*
X018298Y004420D02*
X018317Y004420D01*
X018317Y004341D02*
X018298Y004341D01*
X018298Y004263D02*
X018317Y004263D01*
X018317Y004184D02*
X018298Y004184D01*
X018298Y004106D02*
X018317Y004106D01*
X018317Y004027D02*
X018298Y004027D01*
X018298Y003949D02*
X018317Y003949D01*
X018317Y003897D02*
X018666Y003897D01*
X018666Y003653D01*
X018652Y003584D01*
X018625Y003518D01*
X018586Y003460D01*
X018536Y003410D01*
X018477Y003371D01*
X018412Y003344D01*
X018343Y003330D01*
X018317Y003330D01*
X018317Y003897D01*
X018298Y003897D02*
X018298Y003330D01*
X018272Y003330D01*
X018203Y003344D01*
X018138Y003371D01*
X018079Y003410D01*
X018029Y003460D01*
X017990Y003518D01*
X017963Y003584D01*
X017949Y003653D01*
X017949Y003897D01*
X018298Y003897D01*
X018298Y003870D02*
X018317Y003870D01*
X018317Y003792D02*
X018298Y003792D01*
X018298Y003713D02*
X018317Y003713D01*
X018317Y003635D02*
X018298Y003635D01*
X018298Y003556D02*
X018317Y003556D01*
X018317Y003478D02*
X018298Y003478D01*
X018298Y003399D02*
X018317Y003399D01*
X018520Y003399D02*
X020280Y003399D01*
X020264Y003410D02*
X020323Y003371D01*
X020388Y003344D01*
X020457Y003330D01*
X020483Y003330D01*
X020483Y003897D01*
X020502Y003897D01*
X020502Y003330D01*
X020528Y003330D01*
X020597Y003344D01*
X020662Y003371D01*
X020721Y003410D01*
X020771Y003460D01*
X020810Y003518D01*
X020837Y003584D01*
X020851Y003653D01*
X020851Y003897D01*
X020502Y003897D01*
X020502Y003916D01*
X020851Y003916D01*
X020851Y004160D01*
X020837Y004230D01*
X020810Y004295D01*
X020771Y004354D01*
X020721Y004403D01*
X020662Y004443D01*
X020597Y004470D01*
X020528Y004484D01*
X020502Y004484D01*
X020502Y003916D01*
X020483Y003916D01*
X020483Y003897D01*
X020134Y003897D01*
X020134Y003653D01*
X020148Y003584D01*
X020175Y003518D01*
X020214Y003460D01*
X020264Y003410D01*
X020202Y003478D02*
X018598Y003478D01*
X018641Y003556D02*
X020159Y003556D01*
X020138Y003635D02*
X018662Y003635D01*
X018666Y003713D02*
X020134Y003713D01*
X020134Y003792D02*
X018666Y003792D01*
X018666Y003870D02*
X020134Y003870D01*
X020134Y003916D02*
X020483Y003916D01*
X020483Y004484D01*
X020457Y004484D01*
X020388Y004470D01*
X020323Y004443D01*
X020264Y004403D01*
X020214Y004354D01*
X020175Y004295D01*
X020148Y004230D01*
X020134Y004160D01*
X020134Y003916D01*
X020134Y003949D02*
X018666Y003949D01*
X018666Y004027D02*
X020134Y004027D01*
X020134Y004106D02*
X018666Y004106D01*
X018661Y004184D02*
X020139Y004184D01*
X020162Y004263D02*
X018638Y004263D01*
X018594Y004341D02*
X020206Y004341D01*
X020288Y004420D02*
X018512Y004420D01*
X018526Y004498D02*
X016992Y004498D01*
X016678Y004184D02*
X017954Y004184D01*
X017949Y004106D02*
X016599Y004106D01*
X016356Y004027D02*
X017949Y004027D01*
X017949Y003949D02*
X016221Y003949D01*
X016099Y003949D02*
X016010Y003949D01*
X015964Y003870D02*
X017949Y003870D01*
X017949Y003792D02*
X015885Y003792D01*
X015807Y003713D02*
X017949Y003713D01*
X017953Y003635D02*
X016022Y003635D01*
X016321Y003556D02*
X017974Y003556D01*
X018017Y003478D02*
X016620Y003478D01*
X016919Y003399D02*
X018095Y003399D01*
X018427Y003164D02*
X020631Y003164D01*
X020705Y003399D02*
X022095Y003399D01*
X022389Y003478D02*
X020783Y003478D01*
X020826Y003556D02*
X022587Y003556D01*
X022744Y003635D02*
X020847Y003635D01*
X020851Y003713D02*
X022901Y003713D01*
X023058Y003792D02*
X020851Y003792D01*
X020851Y003870D02*
X023196Y003870D01*
X023323Y003949D02*
X020851Y003949D01*
X020851Y004027D02*
X023437Y004027D01*
X023370Y003978D02*
X023370Y003978D01*
X023544Y004106D02*
X020851Y004106D01*
X020846Y004184D02*
X023635Y004184D01*
X023713Y004263D02*
X020823Y004263D01*
X020779Y004341D02*
X023791Y004341D01*
X023869Y004420D02*
X020697Y004420D01*
X020502Y004420D02*
X020483Y004420D01*
X020483Y004341D02*
X020502Y004341D01*
X020502Y004263D02*
X020483Y004263D01*
X020483Y004184D02*
X020502Y004184D01*
X020502Y004106D02*
X020483Y004106D01*
X020483Y004027D02*
X020502Y004027D01*
X020502Y003949D02*
X020483Y003949D01*
X020483Y003870D02*
X020502Y003870D01*
X020502Y003792D02*
X020483Y003792D01*
X020483Y003713D02*
X020502Y003713D01*
X020502Y003635D02*
X020483Y003635D01*
X020483Y003556D02*
X020502Y003556D01*
X020502Y003478D02*
X020483Y003478D01*
X020483Y003399D02*
X020502Y003399D01*
X021183Y003242D02*
X017809Y003242D01*
X017313Y003321D02*
X021735Y003321D01*
X020875Y004577D02*
X020376Y004577D01*
X020415Y004655D02*
X020797Y004655D01*
X020718Y004734D02*
X020426Y004734D01*
X020414Y004812D02*
X020640Y004812D01*
X020561Y004891D02*
X020376Y004891D01*
X020273Y004969D02*
X020497Y004969D01*
X020742Y005205D02*
X023543Y005205D01*
X023465Y005126D02*
X020835Y005126D01*
X020835Y005127D02*
X020775Y005187D01*
X020760Y005187D01*
X020701Y005246D01*
X020759Y005269D01*
X020816Y005327D01*
X023075Y005327D01*
X023180Y005432D01*
X023823Y006075D01*
X023823Y006004D01*
X023893Y005934D01*
X023920Y005934D01*
X023920Y005581D01*
X023225Y004887D01*
X021075Y004887D01*
X020835Y005127D01*
X020914Y005048D02*
X023386Y005048D01*
X023308Y004969D02*
X020992Y004969D01*
X021071Y004891D02*
X023229Y004891D01*
X023503Y004655D02*
X024059Y004655D01*
X024008Y004577D02*
X023425Y004577D01*
X023582Y004734D02*
X024111Y004734D01*
X024162Y004812D02*
X023660Y004812D01*
X023739Y004891D02*
X024214Y004891D01*
X024265Y004969D02*
X023817Y004969D01*
X023896Y005048D02*
X024299Y005048D01*
X024330Y005126D02*
X023974Y005126D01*
X024053Y005205D02*
X024361Y005205D01*
X024392Y005283D02*
X024131Y005283D01*
X024210Y005362D02*
X024423Y005362D01*
X024454Y005440D02*
X024280Y005440D01*
X024280Y005519D02*
X024478Y005519D01*
X024492Y005597D02*
X024280Y005597D01*
X024280Y005676D02*
X024505Y005676D01*
X024519Y005754D02*
X024280Y005754D01*
X024280Y005833D02*
X024532Y005833D01*
X024546Y005911D02*
X024280Y005911D01*
X024363Y005990D02*
X024559Y005990D01*
X024564Y006068D02*
X024377Y006068D01*
X024377Y006147D02*
X024562Y006147D01*
X024559Y006225D02*
X024377Y006225D01*
X024377Y006304D02*
X024557Y006304D01*
X024554Y006382D02*
X024377Y006382D01*
X024335Y006461D02*
X024551Y006461D01*
X024549Y006539D02*
X024322Y006539D01*
X024377Y006618D02*
X024536Y006618D01*
X024517Y006696D02*
X024377Y006696D01*
X024377Y006775D02*
X024498Y006775D01*
X024479Y006853D02*
X024377Y006853D01*
X024377Y006932D02*
X024461Y006932D01*
X024442Y007010D02*
X024376Y007010D01*
X024423Y007089D02*
X023718Y007089D01*
X023719Y007085D02*
X023719Y007085D01*
X023726Y007010D02*
X023824Y007010D01*
X023770Y006932D02*
X023734Y006932D01*
X023687Y007167D02*
X024388Y007167D01*
X024351Y007246D02*
X023657Y007246D01*
X023626Y007324D02*
X024314Y007324D01*
X024277Y007403D02*
X023596Y007403D01*
X023565Y007481D02*
X024240Y007481D01*
X024203Y007560D02*
X023535Y007560D01*
X023526Y007582D02*
X023526Y007582D01*
X023484Y007638D02*
X024157Y007638D01*
X024104Y007717D02*
X023424Y007717D01*
X023365Y007795D02*
X024051Y007795D01*
X024034Y007819D02*
X024034Y007819D01*
X023988Y007874D02*
X023306Y007874D01*
X023329Y007842D02*
X023329Y007842D01*
X023247Y007951D02*
X023247Y007951D01*
X023246Y007952D02*
X023922Y007952D01*
X023831Y008031D02*
X023126Y008031D01*
X023006Y008109D02*
X023738Y008109D01*
X023645Y008188D02*
X022835Y008188D01*
X023063Y008423D02*
X022576Y008423D01*
X022415Y008345D02*
X023344Y008345D01*
X023495Y008266D02*
X022310Y008266D01*
X020662Y006304D02*
X020100Y006304D01*
X020100Y006382D02*
X020555Y006382D01*
X020661Y006305D02*
X020661Y006305D01*
X020767Y006225D02*
X020100Y006225D01*
X020100Y006147D02*
X020879Y006147D01*
X020858Y006157D02*
X020858Y006157D01*
X021044Y006068D02*
X020100Y006068D01*
X020100Y005990D02*
X021208Y005990D01*
X021373Y005911D02*
X020100Y005911D01*
X020100Y005833D02*
X021652Y005833D01*
X021412Y005893D02*
X021412Y005893D01*
X021966Y005754D02*
X020734Y005754D01*
X020772Y005283D02*
X023622Y005283D01*
X023700Y005362D02*
X023110Y005362D01*
X023188Y005440D02*
X023779Y005440D01*
X023857Y005519D02*
X023267Y005519D01*
X023345Y005597D02*
X023920Y005597D01*
X023920Y005676D02*
X023424Y005676D01*
X023502Y005754D02*
X023920Y005754D01*
X023920Y005833D02*
X023581Y005833D01*
X023659Y005911D02*
X023920Y005911D01*
X023837Y005990D02*
X023738Y005990D01*
X023816Y006068D02*
X023823Y006068D01*
X022993Y005754D02*
X022863Y005754D01*
X022007Y005744D02*
X022007Y005744D01*
X020447Y006461D02*
X020100Y006461D01*
X020100Y006539D02*
X020338Y006539D01*
X020229Y006618D02*
X020055Y006618D01*
X020120Y006696D02*
X019977Y006696D01*
X020012Y006775D02*
X019898Y006775D01*
X019901Y006853D02*
X019820Y006853D01*
X019778Y006932D02*
X019741Y006932D01*
X020062Y004969D02*
X018738Y004969D01*
X018840Y004891D02*
X019960Y004891D01*
X019921Y004812D02*
X018879Y004812D01*
X018890Y004734D02*
X019910Y004734D01*
X019921Y004655D02*
X018879Y004655D01*
X018841Y004577D02*
X019959Y004577D01*
X020061Y004498D02*
X018739Y004498D01*
X020274Y004498D02*
X023947Y004498D01*
X004090Y008266D02*
X002905Y008266D01*
X002755Y008188D02*
X003565Y008188D01*
X003483Y008168D02*
X003483Y008168D01*
X003394Y008109D02*
X002662Y008109D01*
X002569Y008031D02*
X003274Y008031D01*
X003154Y007952D02*
X002478Y007952D01*
X002412Y007874D02*
X003094Y007874D01*
X003153Y007951D02*
X003153Y007951D01*
X003153Y007951D01*
X003035Y007795D02*
X002349Y007795D01*
X002296Y007717D02*
X002976Y007717D01*
X002998Y007746D02*
X002998Y007746D01*
X002916Y007638D02*
X002243Y007638D01*
X002197Y007560D02*
X002865Y007560D01*
X002874Y007582D02*
X002874Y007582D01*
X002835Y007481D02*
X002160Y007481D01*
X002123Y007403D02*
X002804Y007403D01*
X002774Y007324D02*
X002086Y007324D01*
X002049Y007246D02*
X002743Y007246D01*
X002713Y007167D02*
X002012Y007167D01*
X001977Y007089D02*
X002682Y007089D01*
X002681Y007085D02*
X002681Y007085D01*
X002674Y007010D02*
X002576Y007010D01*
X002024Y007010D02*
X001958Y007010D01*
X001939Y006932D02*
X002023Y006932D01*
X002023Y006853D02*
X001921Y006853D01*
X001902Y006775D02*
X002023Y006775D01*
X002023Y006696D02*
X001883Y006696D01*
X001864Y006618D02*
X002023Y006618D01*
X002078Y006539D02*
X001851Y006539D01*
X001849Y006461D02*
X002065Y006461D01*
X002023Y006382D02*
X001846Y006382D01*
X001843Y006304D02*
X002023Y006304D01*
X002023Y006225D02*
X001841Y006225D01*
X001838Y006147D02*
X002023Y006147D01*
X002023Y006068D02*
X001836Y006068D01*
X001841Y005990D02*
X002037Y005990D01*
X003866Y008261D02*
X003866Y008261D01*
X003900Y008402D02*
X003900Y008402D01*
X003824Y008423D02*
X003337Y008423D01*
X003056Y008345D02*
X003985Y008345D01*
D17*
X009450Y005057D03*
X009950Y005057D03*
X012130Y004777D03*
X015500Y004207D03*
X016160Y004227D03*
X017000Y005807D03*
X017000Y006157D03*
X016500Y007197D03*
X015930Y007207D03*
X017000Y007757D03*
X017360Y007597D03*
X016100Y008637D03*
X018870Y005807D03*
X019170Y006407D03*
X020600Y005507D03*
D18*
X021000Y005867D03*
X019940Y005547D03*
X019420Y005607D03*
X018180Y004747D03*
X017440Y003447D03*
X016100Y005787D03*
X015940Y006627D03*
X016480Y006607D03*
X017880Y006927D03*
X018640Y007507D03*
X021420Y003567D03*
X023160Y004147D03*
X023120Y005127D03*
X023850Y007507D03*
X014340Y004667D03*
X012940Y006527D03*
X014000Y006767D03*
X010680Y006627D03*
X010180Y006627D03*
X009960Y008027D03*
X009860Y008407D03*
X009280Y008367D03*
X007760Y007287D03*
X007300Y007167D03*
X007940Y006487D03*
X007940Y006027D03*
X009160Y003927D03*
X007700Y003307D03*
X005740Y004987D03*
X003880Y003727D03*
X003560Y005287D03*
X002600Y007507D03*
D19*
X007940Y006487D02*
X007940Y006027D01*
X008140Y005827D01*
X015140Y005827D01*
X015520Y006207D01*
X015520Y007487D01*
X015820Y007787D01*
X016970Y007787D01*
X017000Y007757D01*
X017000Y006157D02*
X017000Y005807D01*
X016320Y005127D01*
X015600Y005127D01*
X015280Y005447D01*
X011840Y005447D01*
X011450Y005057D01*
X009950Y005057D01*
X009450Y005057D01*
X016980Y005827D02*
X017000Y005807D01*
D20*
X006900Y003607D03*
X004600Y003607D03*
D21*
X006900Y003607D01*
D22*
X017000Y007757D02*
X017160Y007597D01*
X017360Y007597D01*
D23*
X017680Y006927D02*
X017880Y006927D01*
X017880Y006587D01*
X017400Y006107D01*
X017400Y005427D01*
X016780Y004807D01*
X016100Y004807D01*
X015840Y004547D01*
X015840Y003987D01*
X015680Y003827D01*
X015440Y003827D01*
X015100Y004167D01*
X014840Y004167D01*
X014340Y004667D01*
X013635Y004907D02*
X013495Y005047D01*
X013635Y004907D02*
X015244Y004907D01*
X015500Y004651D01*
X015500Y004207D01*
X016160Y004227D02*
X016180Y004207D01*
X016460Y004207D01*
X017400Y005147D01*
X020560Y005147D01*
X020760Y004947D01*
X017680Y006927D02*
X017200Y006447D01*
X016760Y006447D01*
X016100Y005787D01*
X013020Y006447D02*
X012940Y006527D01*
X012944Y006943D02*
X012944Y007207D01*
X012845Y005107D02*
X011970Y005107D01*
X011090Y004227D01*
X010340Y004227D01*
X009880Y003767D01*
X009160Y003767D01*
X009160Y003927D01*
X009160Y003767D02*
X008160Y003767D01*
X007660Y004267D01*
X003550Y004267D01*
X003340Y004477D01*
X003200Y004267D02*
X003420Y004047D01*
X007580Y004047D01*
X008080Y003547D01*
X010020Y003547D01*
X010480Y004007D01*
X011250Y004007D01*
X011510Y004267D01*
X012845Y005107D02*
X012905Y005047D01*
X009960Y008027D02*
X009620Y008027D01*
X009280Y008367D01*
D24*
X012020Y004777D02*
X012130Y004777D01*
X012020Y004777D02*
X011510Y004267D01*
X003340Y004477D02*
X002630Y005187D01*
X002630Y006727D01*
X002555Y006802D01*
X002300Y006802D01*
X002300Y006211D02*
X002300Y005167D01*
X003200Y004267D01*
X020600Y005507D02*
X023000Y005507D01*
X023800Y006307D01*
X023800Y006707D01*
X023895Y006802D01*
X024100Y006802D01*
X024100Y006211D02*
X024100Y005507D01*
X023300Y004707D01*
X021000Y004707D01*
X020760Y004947D01*
X020700Y005007D01*
M02*
