G75*
G70*
%OFA0B0*%
%FSLAX24Y24*%
%IPPOS*%
%LPD*%
%AMOC8*
5,1,8,0,0,1.08239X$1,22.5*
%
%ADD10C,0.0030*%
%ADD11C,0.0050*%
%ADD12C,0.0080*%
%ADD13R,0.0280X0.0160*%
%ADD14R,0.0160X0.0280*%
%ADD15C,0.0160*%
%ADD16C,0.0060*%
D10*
X012478Y000653D02*
X012526Y000605D01*
X012574Y000605D01*
X012600Y000512D02*
X012600Y000222D01*
X012746Y000222D01*
X012794Y000270D01*
X012794Y000367D01*
X012746Y000415D01*
X012600Y000415D01*
X012478Y000653D02*
X012478Y000895D01*
X012671Y000895D02*
X012671Y000750D01*
X012623Y000702D01*
X012478Y000702D01*
X012772Y000895D02*
X012820Y000895D01*
X012917Y000798D01*
X012917Y000702D02*
X012917Y000895D01*
X013018Y000847D02*
X013018Y000798D01*
X013211Y000798D01*
X013211Y000750D02*
X013211Y000847D01*
X013163Y000895D01*
X013066Y000895D01*
X013018Y000847D01*
X013066Y000702D02*
X013163Y000702D01*
X013211Y000750D01*
X013311Y000702D02*
X013359Y000750D01*
X013359Y000944D01*
X013311Y000895D02*
X013408Y000895D01*
X013507Y000895D02*
X013604Y000895D01*
X013556Y000944D02*
X013556Y000750D01*
X013507Y000702D01*
X013433Y000560D02*
X013433Y000512D01*
X013433Y000415D02*
X013433Y000222D01*
X013481Y000222D02*
X013385Y000222D01*
X013285Y000270D02*
X013237Y000222D01*
X013140Y000222D01*
X013092Y000318D02*
X013285Y000318D01*
X013285Y000270D02*
X013285Y000367D01*
X013237Y000415D01*
X013140Y000415D01*
X013092Y000367D01*
X013092Y000318D01*
X012990Y000222D02*
X012894Y000222D01*
X012942Y000222D02*
X012942Y000512D01*
X012990Y000512D01*
X013433Y000415D02*
X013481Y000415D01*
X013583Y000367D02*
X013583Y000222D01*
X013583Y000367D02*
X013631Y000415D01*
X013728Y000415D01*
X013776Y000367D01*
X013877Y000318D02*
X013877Y000270D01*
X013926Y000222D01*
X014022Y000222D01*
X014071Y000270D01*
X014022Y000367D02*
X013926Y000367D01*
X013877Y000318D01*
X013776Y000222D02*
X013776Y000512D01*
X013877Y000464D02*
X013926Y000512D01*
X014022Y000512D01*
X014071Y000464D01*
X014071Y000415D01*
X014022Y000367D01*
X014048Y000702D02*
X014194Y000702D01*
X014194Y000992D01*
X014048Y000992D01*
X014000Y000944D01*
X014000Y000895D01*
X014048Y000847D01*
X014194Y000847D01*
X014048Y000847D02*
X014000Y000798D01*
X014000Y000750D01*
X014048Y000702D01*
X013899Y000750D02*
X013850Y000798D01*
X013705Y000798D01*
X013705Y000847D02*
X013705Y000702D01*
X013850Y000702D01*
X013899Y000750D01*
X013850Y000895D02*
X013754Y000895D01*
X013705Y000847D01*
D11*
X016781Y005922D02*
X016783Y005940D01*
X016789Y005958D01*
X016798Y005974D01*
X016810Y005987D01*
X016825Y005998D01*
X016842Y006006D01*
X016860Y006010D01*
X016878Y006010D01*
X016896Y006006D01*
X016913Y005998D01*
X016928Y005987D01*
X016940Y005974D01*
X016949Y005958D01*
X016955Y005940D01*
X016957Y005922D01*
X016955Y005904D01*
X016949Y005886D01*
X016940Y005870D01*
X016928Y005857D01*
X016913Y005846D01*
X016896Y005838D01*
X016878Y005834D01*
X016860Y005834D01*
X016842Y005838D01*
X016825Y005846D01*
X016810Y005857D01*
X016798Y005870D01*
X016789Y005886D01*
X016783Y005904D01*
X016781Y005922D01*
X016987Y006119D02*
X015413Y006119D01*
X015413Y007694D01*
X016987Y007694D01*
X016987Y006119D01*
X019350Y006007D02*
X019350Y006807D01*
X005000Y004457D02*
X004200Y004457D01*
D12*
X004128Y004213D02*
X004128Y003780D01*
X004285Y003622D01*
X004915Y003622D01*
X005072Y003780D01*
X005072Y004213D01*
X005425Y004900D02*
X005425Y006278D01*
X005740Y006278D01*
X005740Y005294D01*
X006213Y005294D01*
X005072Y005000D02*
X005072Y005591D01*
X004128Y005591D01*
X004128Y005000D01*
X006213Y003326D02*
X007787Y003326D01*
X008575Y004900D02*
X008575Y006278D01*
X008260Y006278D01*
X008260Y005294D01*
X007787Y005294D01*
X009528Y004961D02*
X009733Y005148D01*
X009763Y005173D01*
X009795Y005195D01*
X009830Y005213D01*
X009866Y005228D01*
X009903Y005240D01*
X009941Y005248D01*
X009980Y005252D01*
X010020Y005252D01*
X010059Y005248D01*
X010097Y005240D01*
X010134Y005228D01*
X010170Y005213D01*
X010205Y005195D01*
X010237Y005173D01*
X010267Y005148D01*
X010472Y004961D01*
X010472Y004252D02*
X010236Y004016D01*
X009764Y004016D01*
X009528Y004252D01*
X011139Y005968D02*
X011041Y006066D01*
X011100Y006987D02*
X011100Y007247D01*
X010835Y007633D02*
X010205Y007633D01*
X010189Y007638D01*
X010173Y007646D01*
X010159Y007656D01*
X010147Y007668D01*
X010137Y007683D01*
X010130Y007699D01*
X010126Y007716D01*
X010125Y007733D01*
X010127Y007751D01*
X009800Y007247D02*
X009800Y006987D01*
X009800Y006337D02*
X009800Y006077D01*
X010835Y007633D02*
X010851Y007638D01*
X010867Y007646D01*
X010881Y007656D01*
X010893Y007668D01*
X010903Y007683D01*
X010910Y007699D01*
X010914Y007716D01*
X010915Y007733D01*
X010913Y007751D01*
X010913Y008302D02*
X010915Y008320D01*
X010914Y008337D01*
X010910Y008354D01*
X010903Y008370D01*
X010893Y008385D01*
X010881Y008397D01*
X010867Y008407D01*
X010851Y008415D01*
X010835Y008420D01*
X010205Y008420D01*
X010189Y008415D01*
X010173Y008407D01*
X010159Y008397D01*
X010147Y008385D01*
X010137Y008370D01*
X010130Y008354D01*
X010126Y008337D01*
X010125Y008320D01*
X010127Y008302D01*
X018061Y004989D02*
X018061Y004359D01*
X018534Y004438D02*
X018534Y004989D01*
X018061Y004989D01*
X018534Y004438D02*
X020266Y004438D01*
X020266Y004989D01*
X020739Y004989D01*
X020739Y004359D01*
X020739Y003296D02*
X018061Y003296D01*
X018216Y005934D02*
X018806Y005934D01*
X018216Y005934D02*
X018216Y006879D01*
X018806Y006879D01*
X019594Y006879D02*
X020027Y006879D01*
X020184Y006722D01*
X020184Y006092D01*
X020027Y005934D01*
X019594Y005934D01*
D13*
X017500Y006507D03*
X017500Y004907D03*
X017000Y004907D03*
X016500Y004907D03*
X016000Y004907D03*
X015500Y004907D03*
X015000Y004907D03*
X012150Y006057D03*
X011280Y008087D03*
X009330Y007627D03*
X008440Y007627D03*
D14*
X010560Y008717D03*
X015500Y008307D03*
X016700Y008307D03*
X017260Y004127D03*
D15*
X011612Y006057D02*
X011588Y006057D01*
X008902Y007627D02*
X008878Y007627D01*
D16*
X013082Y006193D02*
X013318Y006193D01*
X013318Y005720D02*
X013082Y005720D01*
M02*
