%
M48
M72
T01C0.0118
T02C0.0120
T03C0.0197
T04C0.0236
%
T01
X3880Y3727
X3560Y5287
X5740Y4987
X7700Y3307
X9160Y3927
X7940Y6027
X7940Y6487
X7300Y7167
X7760Y7287
X9280Y8367
X9860Y8407
X9960Y8027
X10180Y6627
X10680Y6627
X12940Y6527
X14000Y6767
X15940Y6627
X16480Y6607
X16100Y5787
X14340Y4667
X17440Y3447
X18180Y4747
X19420Y5607
X19940Y5547
X21000Y5867
X23120Y5127
X23160Y4147
X21420Y3567
X17880Y6927
X18640Y7507
X23850Y7507
X2600Y7507
T02
X9450Y5057
X9950Y5057
X12130Y4777
X15500Y4207
X16160Y4227
X17000Y5807
X17000Y6157
X16500Y7197
X15930Y7207
X17000Y7757
X17360Y7597
X16100Y8637
X18870Y5807
X19170Y6407
X20600Y5507
T03
X20493Y3907
X18307Y3907
T04
X18632Y4733
X20168Y4733
X6900Y3607
X4600Y3607
M30
