G75*
G70*
%OFA0B0*%
%FSLAX24Y24*%
%IPPOS*%
%LPD*%
%AMOC8*
5,1,8,0,0,1.08239X$1,22.5*
%
%ADD10C,0.0030*%
%ADD11C,0.0080*%
%ADD12C,0.0050*%
D10*
X001913Y005562D02*
X002010Y005562D01*
X002058Y005610D01*
X002160Y005562D02*
X002160Y005852D01*
X002058Y005804D02*
X002010Y005852D01*
X001913Y005852D01*
X001865Y005804D01*
X001865Y005610D01*
X001913Y005562D01*
X002160Y005707D02*
X002353Y005707D01*
X002454Y005658D02*
X002599Y005658D01*
X002648Y005707D01*
X002648Y005804D01*
X002599Y005852D01*
X002454Y005852D01*
X002454Y005562D01*
X002353Y005562D02*
X002353Y005852D01*
X002551Y005658D02*
X002648Y005562D01*
X002749Y005610D02*
X002797Y005562D01*
X002894Y005562D01*
X002942Y005610D01*
X002942Y005707D01*
X002846Y005707D01*
X002942Y005804D02*
X002894Y005852D01*
X002797Y005852D01*
X002749Y005804D01*
X002749Y005610D01*
X012535Y006072D02*
X012680Y006072D01*
X012728Y006120D01*
X012728Y006314D01*
X012680Y006362D01*
X012535Y006362D01*
X012535Y006072D01*
X012830Y006120D02*
X012830Y006314D01*
X012878Y006362D01*
X012975Y006362D01*
X013023Y006314D01*
X013023Y006120D01*
X012975Y006072D01*
X012878Y006072D01*
X012830Y006120D01*
X013124Y006072D02*
X013124Y006362D01*
X013318Y006072D01*
X013318Y006362D01*
X013419Y006362D02*
X013419Y006072D01*
X013612Y006072D01*
X013516Y006217D02*
X013419Y006217D01*
X013419Y006362D02*
X013612Y006362D01*
X023495Y005812D02*
X023495Y005522D01*
X023495Y005618D02*
X023640Y005618D01*
X023688Y005667D01*
X023688Y005764D01*
X023640Y005812D01*
X023495Y005812D01*
X023790Y005812D02*
X023790Y005522D01*
X023886Y005618D01*
X023983Y005522D01*
X023983Y005812D01*
X024084Y005812D02*
X024229Y005812D01*
X024278Y005764D01*
X024278Y005667D01*
X024229Y005618D01*
X024084Y005618D01*
X024084Y005522D02*
X024084Y005812D01*
X024181Y005618D02*
X024278Y005522D01*
D11*
X024281Y006440D02*
X024100Y006440D01*
X024008Y006562D01*
X023919Y006440D02*
X024100Y006440D01*
X024110Y006446D02*
X024186Y006562D01*
X013267Y005228D02*
X013267Y005047D01*
X013145Y004955D01*
X013267Y004866D02*
X013267Y005047D01*
X013261Y005057D02*
X013145Y005133D01*
X002481Y006440D02*
X002300Y006440D01*
X002208Y006562D01*
X002119Y006440D02*
X002300Y006440D01*
X002310Y006446D02*
X002386Y006562D01*
D12*
X011586Y007285D02*
X011586Y005278D01*
X014814Y005278D01*
X014814Y007285D01*
X014086Y007285D01*
X014086Y007679D01*
X012314Y007679D01*
X012314Y007285D01*
X011586Y007285D01*
M02*
