G75*
G70*
%OFA0B0*%
%FSLAX24Y24*%
%IPPOS*%
%LPD*%
%AMOC8*
5,1,8,0,0,1.08239X$1,22.5*
%
%ADD10C,0.0010*%
%ADD11R,0.0118X0.0295*%
%ADD12R,0.0295X0.0118*%
%ADD13R,0.0984X0.0984*%
%ADD14R,0.0117X0.0335*%
%ADD15R,0.0945X0.0650*%
%ADD16R,0.0276X0.0110*%
%ADD17R,0.0512X0.0512*%
%ADD18R,0.0276X0.0354*%
%ADD19R,0.0354X0.0276*%
%ADD20R,0.0315X0.0472*%
%ADD21R,0.0394X0.1811*%
%ADD22R,0.0630X0.1339*%
%ADD23R,0.0630X0.0551*%
%ADD24R,0.0512X0.0591*%
%ADD25R,0.0551X0.0630*%
%ADD26R,0.0315X0.0866*%
%ADD27R,0.0709X0.0630*%
%ADD28R,0.0157X0.0531*%
%ADD29R,0.0591X0.0748*%
%ADD30C,0.0437*%
%ADD31C,0.0100*%
%ADD32C,0.0320*%
%ADD33C,0.0120*%
%ADD34C,0.0320*%
%ADD35C,0.0160*%
%ADD36C,0.0560*%
%ADD37C,0.0436*%
%ADD38C,0.0400*%
D10*
X007250Y003600D02*
X007250Y004900D01*
X008400Y004900D01*
X008400Y003600D01*
X007250Y003600D01*
X007250Y003608D02*
X008400Y003608D01*
X008400Y003616D02*
X007250Y003616D01*
X007250Y003625D02*
X008400Y003625D01*
X008400Y003633D02*
X007250Y003633D01*
X007250Y003642D02*
X008400Y003642D01*
X008400Y003650D02*
X007250Y003650D01*
X007250Y003659D02*
X008400Y003659D01*
X008400Y003667D02*
X007250Y003667D01*
X007250Y003676D02*
X008400Y003676D01*
X008400Y003684D02*
X007250Y003684D01*
X007250Y003693D02*
X008400Y003693D01*
X008400Y003701D02*
X007250Y003701D01*
X007250Y003710D02*
X008400Y003710D01*
X008400Y003718D02*
X007250Y003718D01*
X007250Y003727D02*
X008400Y003727D01*
X008400Y003735D02*
X007250Y003735D01*
X007250Y003744D02*
X008400Y003744D01*
X008400Y003752D02*
X007250Y003752D01*
X007250Y003761D02*
X008400Y003761D01*
X008400Y003769D02*
X007250Y003769D01*
X007250Y003778D02*
X008400Y003778D01*
X008400Y003786D02*
X007250Y003786D01*
X007250Y003795D02*
X008400Y003795D01*
X008400Y003803D02*
X007250Y003803D01*
X007250Y003812D02*
X008400Y003812D01*
X008400Y003820D02*
X007250Y003820D01*
X007250Y003829D02*
X008400Y003829D01*
X008400Y003837D02*
X007250Y003837D01*
X007250Y003846D02*
X008400Y003846D01*
X008400Y003854D02*
X007250Y003854D01*
X007250Y003863D02*
X008400Y003863D01*
X008400Y003871D02*
X007250Y003871D01*
X007250Y003880D02*
X008400Y003880D01*
X008400Y003888D02*
X007250Y003888D01*
X007250Y003897D02*
X008400Y003897D01*
X008400Y003905D02*
X007250Y003905D01*
X007250Y003914D02*
X008400Y003914D01*
X008400Y003922D02*
X007250Y003922D01*
X007250Y003931D02*
X008400Y003931D01*
X008400Y003939D02*
X007250Y003939D01*
X007250Y003948D02*
X008400Y003948D01*
X008400Y003956D02*
X007250Y003956D01*
X007250Y003965D02*
X008400Y003965D01*
X008400Y003973D02*
X007250Y003973D01*
X007250Y003982D02*
X008400Y003982D01*
X008400Y003990D02*
X007250Y003990D01*
X007250Y003999D02*
X008400Y003999D01*
X008400Y004007D02*
X007250Y004007D01*
X007250Y004016D02*
X008400Y004016D01*
X008400Y004024D02*
X007250Y004024D01*
X007250Y004033D02*
X008400Y004033D01*
X008400Y004041D02*
X007250Y004041D01*
X007250Y004050D02*
X008400Y004050D01*
X008400Y004058D02*
X007250Y004058D01*
X007250Y004067D02*
X008400Y004067D01*
X008400Y004075D02*
X007250Y004075D01*
X007250Y004084D02*
X008400Y004084D01*
X008400Y004092D02*
X007250Y004092D01*
X007250Y004101D02*
X008400Y004101D01*
X008400Y004109D02*
X007250Y004109D01*
X007250Y004118D02*
X008400Y004118D01*
X008400Y004126D02*
X007250Y004126D01*
X007250Y004135D02*
X008400Y004135D01*
X008400Y004143D02*
X007250Y004143D01*
X007250Y004152D02*
X008400Y004152D01*
X008400Y004160D02*
X007250Y004160D01*
X007250Y004169D02*
X008400Y004169D01*
X008400Y004177D02*
X007250Y004177D01*
X007250Y004186D02*
X008400Y004186D01*
X008400Y004194D02*
X007250Y004194D01*
X007250Y004203D02*
X008400Y004203D01*
X008400Y004211D02*
X007250Y004211D01*
X007250Y004220D02*
X008400Y004220D01*
X008400Y004228D02*
X007250Y004228D01*
X007250Y004237D02*
X008400Y004237D01*
X008400Y004245D02*
X007250Y004245D01*
X007250Y004254D02*
X008400Y004254D01*
X008400Y004262D02*
X007250Y004262D01*
X007250Y004271D02*
X008400Y004271D01*
X008400Y004279D02*
X007250Y004279D01*
X007250Y004288D02*
X008400Y004288D01*
X008400Y004296D02*
X007250Y004296D01*
X007250Y004305D02*
X008400Y004305D01*
X008400Y004313D02*
X007250Y004313D01*
X007250Y004322D02*
X008400Y004322D01*
X008400Y004330D02*
X007250Y004330D01*
X007250Y004339D02*
X008400Y004339D01*
X008400Y004347D02*
X007250Y004347D01*
X007250Y004356D02*
X008400Y004356D01*
X008400Y004364D02*
X007250Y004364D01*
X007250Y004373D02*
X008400Y004373D01*
X008400Y004381D02*
X007250Y004381D01*
X007250Y004390D02*
X008400Y004390D01*
X008400Y004398D02*
X007250Y004398D01*
X007250Y004407D02*
X008400Y004407D01*
X008400Y004415D02*
X007250Y004415D01*
X007250Y004424D02*
X008400Y004424D01*
X008400Y004432D02*
X007250Y004432D01*
X007250Y004441D02*
X008400Y004441D01*
X008400Y004449D02*
X007250Y004449D01*
X007250Y004458D02*
X008400Y004458D01*
X008400Y004466D02*
X007250Y004466D01*
X007250Y004475D02*
X008400Y004475D01*
X008400Y004483D02*
X007250Y004483D01*
X007250Y004492D02*
X008400Y004492D01*
X008400Y004500D02*
X007250Y004500D01*
X007250Y004509D02*
X008400Y004509D01*
X008400Y004517D02*
X007250Y004517D01*
X007250Y004526D02*
X008400Y004526D01*
X008400Y004534D02*
X007250Y004534D01*
X007250Y004543D02*
X008400Y004543D01*
X008400Y004551D02*
X007250Y004551D01*
X007250Y004560D02*
X008400Y004560D01*
X008400Y004568D02*
X007250Y004568D01*
X007250Y004577D02*
X008400Y004577D01*
X008400Y004585D02*
X007250Y004585D01*
X007250Y004594D02*
X008400Y004594D01*
X008400Y004602D02*
X007250Y004602D01*
X007250Y004611D02*
X008400Y004611D01*
X008400Y004619D02*
X007250Y004619D01*
X007250Y004628D02*
X008400Y004628D01*
X008400Y004636D02*
X007250Y004636D01*
X007250Y004645D02*
X008400Y004645D01*
X008400Y004653D02*
X007250Y004653D01*
X007250Y004662D02*
X008400Y004662D01*
X008400Y004670D02*
X007250Y004670D01*
X007250Y004679D02*
X008400Y004679D01*
X008400Y004687D02*
X007250Y004687D01*
X007250Y004696D02*
X008400Y004696D01*
X008400Y004704D02*
X007250Y004704D01*
X007250Y004713D02*
X008400Y004713D01*
X008400Y004721D02*
X007250Y004721D01*
X007250Y004730D02*
X008400Y004730D01*
X008400Y004738D02*
X007250Y004738D01*
X007250Y004747D02*
X008400Y004747D01*
X008400Y004755D02*
X007250Y004755D01*
X007250Y004764D02*
X008400Y004764D01*
X008400Y004772D02*
X007250Y004772D01*
X007250Y004781D02*
X008400Y004781D01*
X008400Y004789D02*
X007250Y004789D01*
X007250Y004798D02*
X008400Y004798D01*
X008400Y004806D02*
X007250Y004806D01*
X007250Y004815D02*
X008400Y004815D01*
X008400Y004823D02*
X007250Y004823D01*
X007250Y004832D02*
X008400Y004832D01*
X008400Y004840D02*
X007250Y004840D01*
X007250Y004849D02*
X008400Y004849D01*
X008400Y004857D02*
X007250Y004857D01*
X007250Y004866D02*
X008400Y004866D01*
X008400Y004874D02*
X007250Y004874D01*
X007250Y004883D02*
X008400Y004883D01*
X008400Y004891D02*
X007250Y004891D01*
X007250Y004900D02*
X008400Y004900D01*
X010735Y003808D02*
X010735Y003100D01*
X012045Y003100D01*
X012081Y003115D01*
X012170Y003115D01*
X012765Y003710D01*
X012850Y003795D01*
X013100Y003795D01*
X013100Y005300D01*
X012100Y005300D01*
X012100Y003800D01*
X011120Y003800D01*
X011087Y003767D01*
X010900Y003767D01*
X010850Y003817D01*
X010850Y004190D01*
X010743Y004190D01*
X010743Y003817D01*
X010735Y003808D01*
X010738Y003812D02*
X010855Y003812D01*
X010850Y003820D02*
X010743Y003820D01*
X010743Y003829D02*
X010850Y003829D01*
X010850Y003837D02*
X010743Y003837D01*
X010743Y003846D02*
X010850Y003846D01*
X010850Y003854D02*
X010743Y003854D01*
X010743Y003863D02*
X010850Y003863D01*
X010850Y003871D02*
X010743Y003871D01*
X010743Y003880D02*
X010850Y003880D01*
X010850Y003888D02*
X010743Y003888D01*
X010743Y003897D02*
X010850Y003897D01*
X010850Y003905D02*
X010743Y003905D01*
X010743Y003914D02*
X010850Y003914D01*
X010850Y003922D02*
X010743Y003922D01*
X010743Y003931D02*
X010850Y003931D01*
X010850Y003939D02*
X010743Y003939D01*
X010743Y003948D02*
X010850Y003948D01*
X010850Y003956D02*
X010743Y003956D01*
X010743Y003965D02*
X010850Y003965D01*
X010850Y003973D02*
X010743Y003973D01*
X010743Y003982D02*
X010850Y003982D01*
X010850Y003990D02*
X010743Y003990D01*
X010743Y003999D02*
X010850Y003999D01*
X010850Y004007D02*
X010743Y004007D01*
X010743Y004016D02*
X010850Y004016D01*
X010850Y004024D02*
X010743Y004024D01*
X010743Y004033D02*
X010850Y004033D01*
X010850Y004041D02*
X010743Y004041D01*
X010743Y004050D02*
X010850Y004050D01*
X010850Y004058D02*
X010743Y004058D01*
X010743Y004067D02*
X010850Y004067D01*
X010850Y004075D02*
X010743Y004075D01*
X010743Y004084D02*
X010850Y004084D01*
X010850Y004092D02*
X010743Y004092D01*
X010743Y004101D02*
X010850Y004101D01*
X010850Y004109D02*
X010743Y004109D01*
X010743Y004118D02*
X010850Y004118D01*
X010850Y004126D02*
X010743Y004126D01*
X010743Y004135D02*
X010850Y004135D01*
X010850Y004143D02*
X010743Y004143D01*
X010743Y004152D02*
X010850Y004152D01*
X010850Y004160D02*
X010743Y004160D01*
X010743Y004169D02*
X010850Y004169D01*
X010850Y004177D02*
X010743Y004177D01*
X010743Y004186D02*
X010850Y004186D01*
X010864Y003803D02*
X010735Y003803D01*
X010735Y003795D02*
X010872Y003795D01*
X010881Y003786D02*
X010735Y003786D01*
X010735Y003778D02*
X010889Y003778D01*
X010898Y003769D02*
X010735Y003769D01*
X010735Y003761D02*
X012816Y003761D01*
X012824Y003769D02*
X011089Y003769D01*
X011098Y003778D02*
X012833Y003778D01*
X012841Y003786D02*
X011106Y003786D01*
X011115Y003795D02*
X012850Y003795D01*
X012807Y003752D02*
X010735Y003752D01*
X010735Y003744D02*
X012799Y003744D01*
X012790Y003735D02*
X010735Y003735D01*
X010735Y003727D02*
X012782Y003727D01*
X012773Y003718D02*
X010735Y003718D01*
X010735Y003710D02*
X012765Y003710D01*
X012756Y003701D02*
X010735Y003701D01*
X010735Y003693D02*
X012748Y003693D01*
X012739Y003684D02*
X010735Y003684D01*
X010735Y003676D02*
X012731Y003676D01*
X012722Y003667D02*
X010735Y003667D01*
X010735Y003659D02*
X012714Y003659D01*
X012705Y003650D02*
X010735Y003650D01*
X010735Y003642D02*
X012697Y003642D01*
X012688Y003633D02*
X010735Y003633D01*
X010735Y003625D02*
X012680Y003625D01*
X012671Y003616D02*
X010735Y003616D01*
X010735Y003608D02*
X012663Y003608D01*
X012654Y003599D02*
X010735Y003599D01*
X010735Y003591D02*
X012646Y003591D01*
X012637Y003582D02*
X010735Y003582D01*
X010735Y003574D02*
X012629Y003574D01*
X012620Y003565D02*
X010735Y003565D01*
X010735Y003557D02*
X012612Y003557D01*
X012603Y003548D02*
X010735Y003548D01*
X010735Y003540D02*
X012595Y003540D01*
X012586Y003531D02*
X010735Y003531D01*
X010735Y003523D02*
X012578Y003523D01*
X012569Y003514D02*
X010735Y003514D01*
X010735Y003506D02*
X012561Y003506D01*
X012552Y003497D02*
X010735Y003497D01*
X010735Y003489D02*
X012544Y003489D01*
X012535Y003480D02*
X010735Y003480D01*
X010735Y003472D02*
X012527Y003472D01*
X012518Y003463D02*
X010735Y003463D01*
X010735Y003455D02*
X012510Y003455D01*
X012501Y003446D02*
X010735Y003446D01*
X010735Y003438D02*
X012493Y003438D01*
X012484Y003429D02*
X010735Y003429D01*
X010735Y003421D02*
X012476Y003421D01*
X012467Y003412D02*
X010735Y003412D01*
X010735Y003404D02*
X012459Y003404D01*
X012450Y003395D02*
X010735Y003395D01*
X010735Y003387D02*
X012442Y003387D01*
X012433Y003378D02*
X010735Y003378D01*
X010735Y003370D02*
X012425Y003370D01*
X012416Y003361D02*
X010735Y003361D01*
X010735Y003353D02*
X012408Y003353D01*
X012399Y003344D02*
X010735Y003344D01*
X010735Y003336D02*
X012391Y003336D01*
X012382Y003327D02*
X010735Y003327D01*
X010735Y003319D02*
X012374Y003319D01*
X012365Y003310D02*
X010735Y003310D01*
X010735Y003302D02*
X012357Y003302D01*
X012348Y003293D02*
X010735Y003293D01*
X010735Y003285D02*
X012340Y003285D01*
X012331Y003276D02*
X010735Y003276D01*
X010735Y003268D02*
X012323Y003268D01*
X012314Y003259D02*
X010735Y003259D01*
X010735Y003251D02*
X012306Y003251D01*
X012297Y003242D02*
X010735Y003242D01*
X010735Y003234D02*
X012289Y003234D01*
X012280Y003225D02*
X010735Y003225D01*
X010735Y003217D02*
X012272Y003217D01*
X012263Y003208D02*
X010735Y003208D01*
X010735Y003200D02*
X012255Y003200D01*
X012246Y003191D02*
X010735Y003191D01*
X010735Y003183D02*
X012238Y003183D01*
X012229Y003174D02*
X010735Y003174D01*
X010735Y003166D02*
X012220Y003166D01*
X012212Y003157D02*
X010735Y003157D01*
X010735Y003149D02*
X012203Y003149D01*
X012195Y003140D02*
X010735Y003140D01*
X010735Y003132D02*
X012186Y003132D01*
X012178Y003123D02*
X010735Y003123D01*
X010735Y003115D02*
X012080Y003115D01*
X012060Y003106D02*
X010735Y003106D01*
X012100Y003803D02*
X013100Y003803D01*
X013100Y003812D02*
X012100Y003812D01*
X012100Y003820D02*
X013100Y003820D01*
X013100Y003829D02*
X012100Y003829D01*
X012100Y003837D02*
X013100Y003837D01*
X013100Y003846D02*
X012100Y003846D01*
X012100Y003854D02*
X013100Y003854D01*
X013100Y003863D02*
X012100Y003863D01*
X012100Y003871D02*
X013100Y003871D01*
X013100Y003880D02*
X012100Y003880D01*
X012100Y003888D02*
X013100Y003888D01*
X013100Y003897D02*
X012100Y003897D01*
X012100Y003905D02*
X013100Y003905D01*
X013100Y003914D02*
X012100Y003914D01*
X012100Y003922D02*
X013100Y003922D01*
X013100Y003931D02*
X012100Y003931D01*
X012100Y003939D02*
X013100Y003939D01*
X013100Y003948D02*
X012100Y003948D01*
X012100Y003956D02*
X013100Y003956D01*
X013100Y003965D02*
X012100Y003965D01*
X012100Y003973D02*
X013100Y003973D01*
X013100Y003982D02*
X012100Y003982D01*
X012100Y003990D02*
X013100Y003990D01*
X013100Y003999D02*
X012100Y003999D01*
X012100Y004007D02*
X013100Y004007D01*
X013100Y004016D02*
X012100Y004016D01*
X012100Y004024D02*
X013100Y004024D01*
X013100Y004033D02*
X012100Y004033D01*
X012100Y004041D02*
X013100Y004041D01*
X013100Y004050D02*
X012100Y004050D01*
X012100Y004058D02*
X013100Y004058D01*
X013100Y004067D02*
X012100Y004067D01*
X012100Y004075D02*
X013100Y004075D01*
X013100Y004084D02*
X012100Y004084D01*
X012100Y004092D02*
X013100Y004092D01*
X013100Y004101D02*
X012100Y004101D01*
X012100Y004109D02*
X013100Y004109D01*
X013100Y004118D02*
X012100Y004118D01*
X012100Y004126D02*
X013100Y004126D01*
X013100Y004135D02*
X012100Y004135D01*
X012100Y004143D02*
X013100Y004143D01*
X013100Y004152D02*
X012100Y004152D01*
X012100Y004160D02*
X013100Y004160D01*
X013100Y004169D02*
X012100Y004169D01*
X012100Y004177D02*
X013100Y004177D01*
X013100Y004186D02*
X012100Y004186D01*
X012100Y004194D02*
X013100Y004194D01*
X013100Y004203D02*
X012100Y004203D01*
X012100Y004211D02*
X013100Y004211D01*
X013100Y004220D02*
X012100Y004220D01*
X012100Y004228D02*
X013100Y004228D01*
X013100Y004237D02*
X012100Y004237D01*
X012100Y004245D02*
X013100Y004245D01*
X013100Y004254D02*
X012100Y004254D01*
X012100Y004262D02*
X013100Y004262D01*
X013100Y004271D02*
X012100Y004271D01*
X012100Y004279D02*
X013100Y004279D01*
X013100Y004288D02*
X012100Y004288D01*
X012100Y004296D02*
X013100Y004296D01*
X013100Y004305D02*
X012100Y004305D01*
X012100Y004313D02*
X013100Y004313D01*
X013100Y004322D02*
X012100Y004322D01*
X012100Y004330D02*
X013100Y004330D01*
X013100Y004339D02*
X012100Y004339D01*
X012100Y004347D02*
X013100Y004347D01*
X013100Y004356D02*
X012100Y004356D01*
X012100Y004364D02*
X013100Y004364D01*
X013100Y004373D02*
X012100Y004373D01*
X012100Y004381D02*
X013100Y004381D01*
X013100Y004390D02*
X012100Y004390D01*
X012100Y004398D02*
X013100Y004398D01*
X013100Y004407D02*
X012100Y004407D01*
X012100Y004415D02*
X013100Y004415D01*
X013100Y004424D02*
X012100Y004424D01*
X012100Y004432D02*
X013100Y004432D01*
X013100Y004441D02*
X012100Y004441D01*
X012100Y004449D02*
X013100Y004449D01*
X013100Y004458D02*
X012100Y004458D01*
X012100Y004466D02*
X013100Y004466D01*
X013100Y004475D02*
X012100Y004475D01*
X012100Y004483D02*
X013100Y004483D01*
X013100Y004492D02*
X012100Y004492D01*
X012100Y004500D02*
X013100Y004500D01*
X013100Y004509D02*
X012100Y004509D01*
X012100Y004517D02*
X013100Y004517D01*
X013100Y004526D02*
X012100Y004526D01*
X012100Y004534D02*
X013100Y004534D01*
X013100Y004543D02*
X012100Y004543D01*
X012100Y004551D02*
X013100Y004551D01*
X013100Y004560D02*
X012100Y004560D01*
X012100Y004568D02*
X013100Y004568D01*
X013100Y004577D02*
X012100Y004577D01*
X012100Y004585D02*
X013100Y004585D01*
X013100Y004594D02*
X012100Y004594D01*
X012100Y004602D02*
X013100Y004602D01*
X013100Y004611D02*
X012100Y004611D01*
X012100Y004619D02*
X013100Y004619D01*
X013100Y004628D02*
X012100Y004628D01*
X012100Y004636D02*
X013100Y004636D01*
X013100Y004645D02*
X012100Y004645D01*
X012100Y004653D02*
X013100Y004653D01*
X013100Y004662D02*
X012100Y004662D01*
X012100Y004670D02*
X013100Y004670D01*
X013100Y004679D02*
X012100Y004679D01*
X012100Y004687D02*
X013100Y004687D01*
X013100Y004696D02*
X012100Y004696D01*
X012100Y004704D02*
X013100Y004704D01*
X013100Y004713D02*
X012100Y004713D01*
X012100Y004721D02*
X013100Y004721D01*
X013100Y004730D02*
X012100Y004730D01*
X012100Y004738D02*
X013100Y004738D01*
X013100Y004747D02*
X012100Y004747D01*
X012100Y004755D02*
X013100Y004755D01*
X013100Y004764D02*
X012100Y004764D01*
X012100Y004772D02*
X013100Y004772D01*
X013100Y004781D02*
X012100Y004781D01*
X012100Y004789D02*
X013100Y004789D01*
X013100Y004798D02*
X012100Y004798D01*
X012100Y004806D02*
X013100Y004806D01*
X013100Y004815D02*
X012100Y004815D01*
X012100Y004823D02*
X013100Y004823D01*
X013100Y004832D02*
X012100Y004832D01*
X012100Y004840D02*
X013100Y004840D01*
X013100Y004849D02*
X012100Y004849D01*
X012100Y004857D02*
X013100Y004857D01*
X013100Y004866D02*
X012100Y004866D01*
X012100Y004874D02*
X013100Y004874D01*
X013100Y004883D02*
X012100Y004883D01*
X012100Y004891D02*
X013100Y004891D01*
X013100Y004900D02*
X012100Y004900D01*
X012100Y004908D02*
X013100Y004908D01*
X013100Y004917D02*
X012100Y004917D01*
X012100Y004925D02*
X013100Y004925D01*
X013100Y004934D02*
X012100Y004934D01*
X012100Y004942D02*
X013100Y004942D01*
X013100Y004951D02*
X012100Y004951D01*
X012100Y004959D02*
X013100Y004959D01*
X013100Y004968D02*
X012100Y004968D01*
X012100Y004976D02*
X013100Y004976D01*
X013100Y004985D02*
X012100Y004985D01*
X012100Y004993D02*
X013100Y004993D01*
X013100Y005002D02*
X012100Y005002D01*
X012100Y005010D02*
X013100Y005010D01*
X013100Y005019D02*
X012100Y005019D01*
X012100Y005027D02*
X013100Y005027D01*
X013100Y005036D02*
X012100Y005036D01*
X012100Y005044D02*
X013100Y005044D01*
X013100Y005053D02*
X012100Y005053D01*
X012100Y005061D02*
X013100Y005061D01*
X013100Y005070D02*
X012100Y005070D01*
X012100Y005078D02*
X013100Y005078D01*
X013100Y005087D02*
X012100Y005087D01*
X012100Y005095D02*
X013100Y005095D01*
X013100Y005104D02*
X012100Y005104D01*
X012100Y005112D02*
X013100Y005112D01*
X013100Y005121D02*
X012100Y005121D01*
X012100Y005129D02*
X013100Y005129D01*
X013100Y005138D02*
X012100Y005138D01*
X012100Y005146D02*
X013100Y005146D01*
X013100Y005155D02*
X012100Y005155D01*
X012100Y005163D02*
X013100Y005163D01*
X013100Y005172D02*
X012100Y005172D01*
X012100Y005180D02*
X013100Y005180D01*
X013100Y005189D02*
X012100Y005189D01*
X012100Y005197D02*
X013100Y005197D01*
X013100Y005206D02*
X012100Y005206D01*
X012100Y005214D02*
X013100Y005214D01*
X013100Y005223D02*
X012100Y005223D01*
X012100Y005231D02*
X013100Y005231D01*
X013100Y005240D02*
X012100Y005240D01*
X012100Y005248D02*
X013100Y005248D01*
X013100Y005257D02*
X012100Y005257D01*
X012100Y005265D02*
X013100Y005265D01*
X013100Y005274D02*
X012100Y005274D01*
X012100Y005282D02*
X013100Y005282D01*
X013100Y005291D02*
X012100Y005291D01*
X012100Y005299D02*
X013100Y005299D01*
X016350Y005650D02*
X016350Y006115D01*
X016373Y006138D01*
X016617Y006138D01*
X016667Y006188D01*
X016667Y006200D01*
X016733Y006200D01*
X016733Y006188D01*
X016783Y006138D01*
X017129Y006138D01*
X017179Y006188D01*
X017179Y006200D01*
X017600Y006200D01*
X017600Y005450D01*
X016850Y005450D01*
X016850Y005650D01*
X016350Y005650D01*
X016350Y005656D02*
X017600Y005656D01*
X017600Y005648D02*
X016850Y005648D01*
X016850Y005639D02*
X017600Y005639D01*
X017600Y005631D02*
X016850Y005631D01*
X016850Y005622D02*
X017600Y005622D01*
X017600Y005614D02*
X016850Y005614D01*
X016850Y005605D02*
X017600Y005605D01*
X017600Y005597D02*
X016850Y005597D01*
X016850Y005588D02*
X017600Y005588D01*
X017600Y005580D02*
X016850Y005580D01*
X016850Y005571D02*
X017600Y005571D01*
X017600Y005563D02*
X016850Y005563D01*
X016850Y005554D02*
X017600Y005554D01*
X017600Y005546D02*
X016850Y005546D01*
X016850Y005537D02*
X017600Y005537D01*
X017600Y005529D02*
X016850Y005529D01*
X016850Y005520D02*
X017600Y005520D01*
X017600Y005512D02*
X016850Y005512D01*
X016850Y005503D02*
X017600Y005503D01*
X017600Y005495D02*
X016850Y005495D01*
X016850Y005486D02*
X017600Y005486D01*
X017600Y005478D02*
X016850Y005478D01*
X016850Y005469D02*
X017600Y005469D01*
X017600Y005461D02*
X016850Y005461D01*
X016850Y005452D02*
X017600Y005452D01*
X017600Y005665D02*
X016350Y005665D01*
X016350Y005673D02*
X017600Y005673D01*
X017600Y005682D02*
X016350Y005682D01*
X016350Y005690D02*
X017600Y005690D01*
X017600Y005699D02*
X016350Y005699D01*
X016350Y005707D02*
X017600Y005707D01*
X017600Y005716D02*
X016350Y005716D01*
X016350Y005724D02*
X017600Y005724D01*
X017600Y005733D02*
X016350Y005733D01*
X016350Y005741D02*
X017600Y005741D01*
X017600Y005750D02*
X016350Y005750D01*
X016350Y005758D02*
X017600Y005758D01*
X017600Y005767D02*
X016350Y005767D01*
X016350Y005775D02*
X017600Y005775D01*
X017600Y005784D02*
X016350Y005784D01*
X016350Y005792D02*
X017600Y005792D01*
X017600Y005801D02*
X016350Y005801D01*
X016350Y005809D02*
X017600Y005809D01*
X017600Y005818D02*
X016350Y005818D01*
X016350Y005826D02*
X017600Y005826D01*
X017600Y005835D02*
X016350Y005835D01*
X016350Y005843D02*
X017600Y005843D01*
X017600Y005852D02*
X016350Y005852D01*
X016350Y005860D02*
X017600Y005860D01*
X017600Y005869D02*
X016350Y005869D01*
X016350Y005877D02*
X017600Y005877D01*
X017600Y005886D02*
X016350Y005886D01*
X016350Y005894D02*
X017600Y005894D01*
X017600Y005903D02*
X016350Y005903D01*
X016350Y005911D02*
X017600Y005911D01*
X017600Y005920D02*
X016350Y005920D01*
X016350Y005928D02*
X017600Y005928D01*
X017600Y005937D02*
X016350Y005937D01*
X016350Y005945D02*
X017600Y005945D01*
X017600Y005954D02*
X016350Y005954D01*
X016350Y005962D02*
X017600Y005962D01*
X017600Y005971D02*
X016350Y005971D01*
X016350Y005979D02*
X017600Y005979D01*
X017600Y005988D02*
X016350Y005988D01*
X016350Y005996D02*
X017600Y005996D01*
X017600Y006005D02*
X016350Y006005D01*
X016350Y006013D02*
X017600Y006013D01*
X017600Y006022D02*
X016350Y006022D01*
X016350Y006030D02*
X017600Y006030D01*
X017600Y006039D02*
X016350Y006039D01*
X016350Y006047D02*
X017600Y006047D01*
X017600Y006056D02*
X016350Y006056D01*
X016350Y006064D02*
X017600Y006064D01*
X017600Y006073D02*
X016350Y006073D01*
X016350Y006081D02*
X017600Y006081D01*
X017600Y006090D02*
X016350Y006090D01*
X016350Y006098D02*
X017600Y006098D01*
X017600Y006107D02*
X016350Y006107D01*
X016350Y006115D02*
X017600Y006115D01*
X017600Y006124D02*
X016359Y006124D01*
X016367Y006132D02*
X017600Y006132D01*
X017600Y006141D02*
X017132Y006141D01*
X017140Y006149D02*
X017600Y006149D01*
X017600Y006158D02*
X017149Y006158D01*
X017157Y006166D02*
X017600Y006166D01*
X017600Y006175D02*
X017166Y006175D01*
X017174Y006183D02*
X017600Y006183D01*
X017600Y006192D02*
X017179Y006192D01*
X016780Y006141D02*
X016620Y006141D01*
X016628Y006149D02*
X016772Y006149D01*
X016763Y006158D02*
X016637Y006158D01*
X016645Y006166D02*
X016755Y006166D01*
X016746Y006175D02*
X016654Y006175D01*
X016662Y006183D02*
X016738Y006183D01*
X016733Y006192D02*
X016667Y006192D01*
X016800Y005254D02*
X016805Y005250D01*
X016926Y005250D01*
X016927Y005249D01*
X017047Y005249D01*
X017048Y005250D01*
X017170Y005250D01*
X017220Y005299D01*
X019413Y005299D01*
X019412Y005300D02*
X019939Y004963D01*
X020634Y004462D01*
X020700Y004412D01*
X020700Y004386D01*
X020639Y004448D01*
X020549Y004485D01*
X020451Y004485D01*
X020361Y004448D01*
X020292Y004379D01*
X020255Y004289D01*
X020255Y004191D01*
X020292Y004101D01*
X020361Y004032D01*
X020451Y003995D01*
X020549Y003995D01*
X020639Y004032D01*
X020700Y004094D01*
X020700Y002800D01*
X020391Y002800D01*
X020391Y002919D01*
X020700Y002919D01*
X020700Y002911D02*
X020391Y002911D01*
X020391Y002919D02*
X020260Y003050D01*
X020075Y003050D01*
X019945Y002919D01*
X019820Y002919D01*
X019820Y002911D02*
X019945Y002911D01*
X019945Y002919D02*
X019945Y002800D01*
X019820Y002800D01*
X019820Y003354D01*
X019800Y003374D01*
X019800Y003400D01*
X019791Y003400D01*
X019791Y003500D01*
X019797Y003507D01*
X019801Y003505D01*
X019899Y003505D01*
X019989Y003542D01*
X020058Y003611D01*
X020095Y003701D01*
X020700Y003701D01*
X020700Y003693D02*
X020091Y003693D01*
X020095Y003701D02*
X020095Y003799D01*
X020058Y003889D01*
X019989Y003958D01*
X019899Y003995D01*
X019801Y003995D01*
X019711Y003958D01*
X019642Y003889D01*
X019605Y003799D01*
X019605Y003701D01*
X019595Y003701D01*
X019595Y003799D01*
X019558Y003889D01*
X019489Y003958D01*
X019399Y003995D01*
X019301Y003995D01*
X019211Y003958D01*
X019142Y003889D01*
X019105Y003799D01*
X019105Y003701D01*
X019033Y003701D01*
X019033Y003693D02*
X019109Y003693D01*
X019105Y003701D02*
X019142Y003611D01*
X019211Y003542D01*
X019265Y003520D01*
X019265Y003400D01*
X019262Y003400D01*
X019258Y003404D01*
X019033Y003404D01*
X019033Y003717D01*
X019078Y003761D01*
X019115Y003851D01*
X019115Y003949D01*
X019078Y004039D01*
X019033Y004083D01*
X019033Y004255D01*
X019219Y004255D01*
X019309Y004292D01*
X019378Y004361D01*
X019415Y004451D01*
X019415Y004549D01*
X019378Y004639D01*
X019309Y004708D01*
X019219Y004745D01*
X019009Y004745D01*
X019009Y004850D01*
X018960Y004900D01*
X018338Y004900D01*
X018288Y004850D01*
X018288Y004150D01*
X018338Y004100D01*
X018724Y004100D01*
X018662Y004039D01*
X018625Y003949D01*
X018625Y003851D01*
X018662Y003761D01*
X018731Y003692D01*
X018743Y003687D01*
X018743Y003400D01*
X017800Y003400D01*
X017800Y004800D01*
X016800Y004800D01*
X016800Y005254D01*
X016800Y005248D02*
X019493Y005248D01*
X019506Y005240D02*
X016800Y005240D01*
X016800Y005231D02*
X019520Y005231D01*
X019533Y005223D02*
X016800Y005223D01*
X016800Y005214D02*
X019546Y005214D01*
X019560Y005206D02*
X016800Y005206D01*
X016800Y005197D02*
X019573Y005197D01*
X019586Y005189D02*
X016800Y005189D01*
X016800Y005180D02*
X019600Y005180D01*
X019613Y005172D02*
X016800Y005172D01*
X016800Y005163D02*
X019626Y005163D01*
X019640Y005155D02*
X016800Y005155D01*
X016800Y005146D02*
X019653Y005146D01*
X019666Y005138D02*
X016800Y005138D01*
X016800Y005129D02*
X019679Y005129D01*
X019693Y005121D02*
X016800Y005121D01*
X016800Y005112D02*
X019706Y005112D01*
X019719Y005104D02*
X016800Y005104D01*
X016800Y005095D02*
X019733Y005095D01*
X019746Y005087D02*
X016800Y005087D01*
X016800Y005078D02*
X019759Y005078D01*
X019773Y005070D02*
X016800Y005070D01*
X016800Y005061D02*
X019786Y005061D01*
X019799Y005053D02*
X016800Y005053D01*
X016800Y005044D02*
X019813Y005044D01*
X019826Y005036D02*
X016800Y005036D01*
X016800Y005027D02*
X019839Y005027D01*
X019853Y005019D02*
X016800Y005019D01*
X016800Y005010D02*
X019866Y005010D01*
X019879Y005002D02*
X016800Y005002D01*
X016800Y004993D02*
X019893Y004993D01*
X019906Y004985D02*
X016800Y004985D01*
X016800Y004976D02*
X019919Y004976D01*
X019933Y004968D02*
X016800Y004968D01*
X016800Y004959D02*
X019945Y004959D01*
X019957Y004951D02*
X016800Y004951D01*
X016800Y004942D02*
X019969Y004942D01*
X019981Y004934D02*
X016800Y004934D01*
X016800Y004925D02*
X019992Y004925D01*
X020004Y004917D02*
X016800Y004917D01*
X016800Y004908D02*
X020016Y004908D01*
X020028Y004900D02*
X018960Y004900D01*
X018968Y004891D02*
X020039Y004891D01*
X020051Y004883D02*
X018977Y004883D01*
X018985Y004874D02*
X020063Y004874D01*
X020075Y004866D02*
X018994Y004866D01*
X019002Y004857D02*
X020087Y004857D01*
X020098Y004849D02*
X019009Y004849D01*
X019009Y004840D02*
X020110Y004840D01*
X020122Y004832D02*
X019009Y004832D01*
X019009Y004823D02*
X020134Y004823D01*
X020145Y004815D02*
X019009Y004815D01*
X019009Y004806D02*
X020157Y004806D01*
X020169Y004798D02*
X019009Y004798D01*
X019009Y004789D02*
X020181Y004789D01*
X020193Y004781D02*
X019009Y004781D01*
X019009Y004772D02*
X020204Y004772D01*
X020216Y004764D02*
X019009Y004764D01*
X019009Y004755D02*
X020228Y004755D01*
X020240Y004747D02*
X019009Y004747D01*
X019235Y004738D02*
X020251Y004738D01*
X020263Y004730D02*
X019256Y004730D01*
X019276Y004721D02*
X020275Y004721D01*
X020287Y004713D02*
X019297Y004713D01*
X019312Y004704D02*
X020299Y004704D01*
X020310Y004696D02*
X019321Y004696D01*
X019329Y004687D02*
X020322Y004687D01*
X020334Y004679D02*
X019338Y004679D01*
X019346Y004670D02*
X020346Y004670D01*
X020357Y004662D02*
X019355Y004662D01*
X019363Y004653D02*
X020369Y004653D01*
X020381Y004645D02*
X019372Y004645D01*
X019379Y004636D02*
X020393Y004636D01*
X020405Y004628D02*
X019382Y004628D01*
X019386Y004619D02*
X020416Y004619D01*
X020428Y004611D02*
X019389Y004611D01*
X019393Y004602D02*
X020440Y004602D01*
X020452Y004594D02*
X019396Y004594D01*
X019400Y004585D02*
X020463Y004585D01*
X020475Y004577D02*
X019403Y004577D01*
X019407Y004568D02*
X020487Y004568D01*
X020499Y004560D02*
X019410Y004560D01*
X019414Y004551D02*
X020511Y004551D01*
X020522Y004543D02*
X019415Y004543D01*
X019415Y004534D02*
X020534Y004534D01*
X020546Y004526D02*
X019415Y004526D01*
X019415Y004517D02*
X020558Y004517D01*
X020569Y004509D02*
X019415Y004509D01*
X019415Y004500D02*
X020581Y004500D01*
X020593Y004492D02*
X019415Y004492D01*
X019415Y004483D02*
X020447Y004483D01*
X020426Y004475D02*
X019415Y004475D01*
X019415Y004466D02*
X020406Y004466D01*
X020385Y004458D02*
X019415Y004458D01*
X019414Y004449D02*
X020365Y004449D01*
X020354Y004441D02*
X019411Y004441D01*
X019407Y004432D02*
X020346Y004432D01*
X020337Y004424D02*
X019404Y004424D01*
X019400Y004415D02*
X020329Y004415D01*
X020320Y004407D02*
X019396Y004407D01*
X019393Y004398D02*
X020312Y004398D01*
X020303Y004390D02*
X019389Y004390D01*
X019386Y004381D02*
X020295Y004381D01*
X020290Y004373D02*
X019382Y004373D01*
X019379Y004364D02*
X020286Y004364D01*
X020283Y004356D02*
X019372Y004356D01*
X019364Y004347D02*
X020279Y004347D01*
X020276Y004339D02*
X019355Y004339D01*
X019347Y004330D02*
X020272Y004330D01*
X020269Y004322D02*
X019338Y004322D01*
X019330Y004313D02*
X020265Y004313D01*
X020262Y004305D02*
X019321Y004305D01*
X019313Y004296D02*
X020258Y004296D01*
X020255Y004288D02*
X019297Y004288D01*
X019277Y004279D02*
X020255Y004279D01*
X020255Y004271D02*
X019256Y004271D01*
X019236Y004262D02*
X020255Y004262D01*
X020255Y004254D02*
X019033Y004254D01*
X019033Y004245D02*
X020255Y004245D01*
X020255Y004237D02*
X019033Y004237D01*
X019033Y004228D02*
X020255Y004228D01*
X020255Y004220D02*
X019033Y004220D01*
X019033Y004211D02*
X020255Y004211D01*
X020255Y004203D02*
X019033Y004203D01*
X019033Y004194D02*
X020255Y004194D01*
X020257Y004186D02*
X019033Y004186D01*
X019033Y004177D02*
X020261Y004177D01*
X020264Y004169D02*
X019033Y004169D01*
X019033Y004160D02*
X020268Y004160D01*
X020271Y004152D02*
X019033Y004152D01*
X019033Y004143D02*
X020275Y004143D01*
X020278Y004135D02*
X019033Y004135D01*
X019033Y004126D02*
X020282Y004126D01*
X020286Y004118D02*
X019033Y004118D01*
X019033Y004109D02*
X020289Y004109D01*
X020293Y004101D02*
X019033Y004101D01*
X019033Y004092D02*
X020301Y004092D01*
X020310Y004084D02*
X019033Y004084D01*
X019041Y004075D02*
X020318Y004075D01*
X020327Y004067D02*
X019050Y004067D01*
X019058Y004058D02*
X020335Y004058D01*
X020344Y004050D02*
X019067Y004050D01*
X019075Y004041D02*
X020352Y004041D01*
X020361Y004033D02*
X019080Y004033D01*
X019084Y004024D02*
X020381Y004024D01*
X020402Y004016D02*
X019087Y004016D01*
X019091Y004007D02*
X020422Y004007D01*
X020443Y003999D02*
X019094Y003999D01*
X019098Y003990D02*
X019289Y003990D01*
X019269Y003982D02*
X019101Y003982D01*
X019105Y003973D02*
X019248Y003973D01*
X019228Y003965D02*
X019108Y003965D01*
X019112Y003956D02*
X019210Y003956D01*
X019201Y003948D02*
X019115Y003948D01*
X019115Y003939D02*
X019193Y003939D01*
X019184Y003931D02*
X019115Y003931D01*
X019115Y003922D02*
X019176Y003922D01*
X019167Y003914D02*
X019115Y003914D01*
X019115Y003905D02*
X019159Y003905D01*
X019150Y003897D02*
X019115Y003897D01*
X019115Y003888D02*
X019142Y003888D01*
X019138Y003880D02*
X019115Y003880D01*
X019115Y003871D02*
X019135Y003871D01*
X019131Y003863D02*
X019115Y003863D01*
X019115Y003854D02*
X019128Y003854D01*
X019124Y003846D02*
X019113Y003846D01*
X019109Y003837D02*
X019121Y003837D01*
X019117Y003829D02*
X019106Y003829D01*
X019102Y003820D02*
X019114Y003820D01*
X019110Y003812D02*
X019099Y003812D01*
X019095Y003803D02*
X019107Y003803D01*
X019105Y003795D02*
X019092Y003795D01*
X019088Y003786D02*
X019105Y003786D01*
X019105Y003778D02*
X019084Y003778D01*
X019081Y003769D02*
X019105Y003769D01*
X019105Y003761D02*
X019077Y003761D01*
X019069Y003752D02*
X019105Y003752D01*
X019105Y003744D02*
X019060Y003744D01*
X019052Y003735D02*
X019105Y003735D01*
X019105Y003727D02*
X019043Y003727D01*
X019035Y003718D02*
X019105Y003718D01*
X019105Y003710D02*
X019033Y003710D01*
X019033Y003684D02*
X019112Y003684D01*
X019116Y003676D02*
X019033Y003676D01*
X019033Y003667D02*
X019119Y003667D01*
X019123Y003659D02*
X019033Y003659D01*
X019033Y003650D02*
X019126Y003650D01*
X019130Y003642D02*
X019033Y003642D01*
X019033Y003633D02*
X019133Y003633D01*
X019137Y003625D02*
X019033Y003625D01*
X019033Y003616D02*
X019140Y003616D01*
X019146Y003608D02*
X019033Y003608D01*
X019033Y003599D02*
X019154Y003599D01*
X019163Y003591D02*
X019033Y003591D01*
X019033Y003582D02*
X019171Y003582D01*
X019180Y003574D02*
X019033Y003574D01*
X019033Y003565D02*
X019188Y003565D01*
X019197Y003557D02*
X019033Y003557D01*
X019033Y003548D02*
X019205Y003548D01*
X019218Y003540D02*
X019033Y003540D01*
X019033Y003531D02*
X019238Y003531D01*
X019259Y003523D02*
X019033Y003523D01*
X019033Y003514D02*
X019265Y003514D01*
X019265Y003506D02*
X019033Y003506D01*
X019033Y003497D02*
X019265Y003497D01*
X019265Y003489D02*
X019033Y003489D01*
X019033Y003480D02*
X019265Y003480D01*
X019265Y003472D02*
X019033Y003472D01*
X019033Y003463D02*
X019265Y003463D01*
X019265Y003455D02*
X019033Y003455D01*
X019033Y003446D02*
X019265Y003446D01*
X019265Y003438D02*
X019033Y003438D01*
X019033Y003429D02*
X019265Y003429D01*
X019265Y003421D02*
X019033Y003421D01*
X019033Y003412D02*
X019265Y003412D01*
X019265Y003404D02*
X019258Y003404D01*
X019584Y003675D02*
X019595Y003701D01*
X019595Y003710D02*
X019605Y003710D01*
X019605Y003718D02*
X019595Y003718D01*
X019595Y003727D02*
X019605Y003727D01*
X019605Y003735D02*
X019595Y003735D01*
X019595Y003744D02*
X019605Y003744D01*
X019605Y003752D02*
X019595Y003752D01*
X019595Y003761D02*
X019605Y003761D01*
X019605Y003769D02*
X019595Y003769D01*
X019595Y003778D02*
X019605Y003778D01*
X019605Y003786D02*
X019595Y003786D01*
X019595Y003795D02*
X019605Y003795D01*
X019607Y003803D02*
X019593Y003803D01*
X019590Y003812D02*
X019610Y003812D01*
X019614Y003820D02*
X019586Y003820D01*
X019583Y003829D02*
X019617Y003829D01*
X019621Y003837D02*
X019579Y003837D01*
X019576Y003846D02*
X019624Y003846D01*
X019628Y003854D02*
X019572Y003854D01*
X019569Y003863D02*
X019631Y003863D01*
X019635Y003871D02*
X019565Y003871D01*
X019562Y003880D02*
X019638Y003880D01*
X019642Y003888D02*
X019558Y003888D01*
X019550Y003897D02*
X019650Y003897D01*
X019659Y003905D02*
X019541Y003905D01*
X019533Y003914D02*
X019667Y003914D01*
X019676Y003922D02*
X019524Y003922D01*
X019516Y003931D02*
X019684Y003931D01*
X019693Y003939D02*
X019507Y003939D01*
X019499Y003948D02*
X019701Y003948D01*
X019710Y003956D02*
X019490Y003956D01*
X019472Y003965D02*
X019728Y003965D01*
X019748Y003973D02*
X019452Y003973D01*
X019431Y003982D02*
X019769Y003982D01*
X019789Y003990D02*
X019411Y003990D01*
X019911Y003990D02*
X020700Y003990D01*
X020700Y003982D02*
X019931Y003982D01*
X019952Y003973D02*
X020700Y003973D01*
X020700Y003965D02*
X019972Y003965D01*
X019990Y003956D02*
X020700Y003956D01*
X020700Y003948D02*
X019999Y003948D01*
X020007Y003939D02*
X020700Y003939D01*
X020700Y003931D02*
X020016Y003931D01*
X020024Y003922D02*
X020700Y003922D01*
X020700Y003914D02*
X020033Y003914D01*
X020041Y003905D02*
X020700Y003905D01*
X020700Y003897D02*
X020050Y003897D01*
X020058Y003888D02*
X020700Y003888D01*
X020700Y003880D02*
X020062Y003880D01*
X020065Y003871D02*
X020700Y003871D01*
X020700Y003863D02*
X020069Y003863D01*
X020072Y003854D02*
X020700Y003854D01*
X020700Y003846D02*
X020076Y003846D01*
X020079Y003837D02*
X020700Y003837D01*
X020700Y003829D02*
X020083Y003829D01*
X020086Y003820D02*
X020700Y003820D01*
X020700Y003812D02*
X020090Y003812D01*
X020093Y003803D02*
X020700Y003803D01*
X020700Y003795D02*
X020095Y003795D01*
X020095Y003786D02*
X020700Y003786D01*
X020700Y003778D02*
X020095Y003778D01*
X020095Y003769D02*
X020700Y003769D01*
X020700Y003761D02*
X020095Y003761D01*
X020095Y003752D02*
X020700Y003752D01*
X020700Y003744D02*
X020095Y003744D01*
X020095Y003735D02*
X020700Y003735D01*
X020700Y003727D02*
X020095Y003727D01*
X020095Y003718D02*
X020700Y003718D01*
X020700Y003710D02*
X020095Y003710D01*
X020088Y003684D02*
X020700Y003684D01*
X020700Y003676D02*
X020084Y003676D01*
X020081Y003667D02*
X020700Y003667D01*
X020700Y003659D02*
X020077Y003659D01*
X020074Y003650D02*
X020700Y003650D01*
X020700Y003642D02*
X020070Y003642D01*
X020067Y003633D02*
X020700Y003633D01*
X020700Y003625D02*
X020063Y003625D01*
X020060Y003616D02*
X020700Y003616D01*
X020700Y003608D02*
X020054Y003608D01*
X020046Y003599D02*
X020700Y003599D01*
X020700Y003591D02*
X020037Y003591D01*
X020029Y003582D02*
X020700Y003582D01*
X020700Y003574D02*
X020020Y003574D01*
X020012Y003565D02*
X020700Y003565D01*
X020700Y003557D02*
X020003Y003557D01*
X019995Y003548D02*
X020700Y003548D01*
X020700Y003540D02*
X019982Y003540D01*
X019962Y003531D02*
X020700Y003531D01*
X020700Y003523D02*
X019941Y003523D01*
X019921Y003514D02*
X020700Y003514D01*
X020700Y003506D02*
X019900Y003506D01*
X019800Y003506D02*
X019796Y003506D01*
X019791Y003497D02*
X020700Y003497D01*
X020700Y003489D02*
X019791Y003489D01*
X019791Y003480D02*
X020700Y003480D01*
X020700Y003472D02*
X019791Y003472D01*
X019791Y003463D02*
X020700Y003463D01*
X020700Y003455D02*
X019791Y003455D01*
X019791Y003446D02*
X020700Y003446D01*
X020700Y003438D02*
X019791Y003438D01*
X019791Y003429D02*
X020700Y003429D01*
X020700Y003421D02*
X019791Y003421D01*
X019791Y003412D02*
X020700Y003412D01*
X020700Y003404D02*
X019791Y003404D01*
X019800Y003395D02*
X020700Y003395D01*
X020700Y003387D02*
X019800Y003387D01*
X019800Y003378D02*
X020700Y003378D01*
X020700Y003370D02*
X019804Y003370D01*
X019813Y003361D02*
X020700Y003361D01*
X020700Y003353D02*
X019820Y003353D01*
X019820Y003344D02*
X020700Y003344D01*
X020700Y003336D02*
X019820Y003336D01*
X019820Y003327D02*
X020700Y003327D01*
X020700Y003319D02*
X019820Y003319D01*
X019820Y003310D02*
X020700Y003310D01*
X020700Y003302D02*
X019820Y003302D01*
X019820Y003293D02*
X020700Y003293D01*
X020700Y003285D02*
X019820Y003285D01*
X019820Y003276D02*
X020700Y003276D01*
X020700Y003268D02*
X019820Y003268D01*
X019820Y003259D02*
X020700Y003259D01*
X020700Y003251D02*
X019820Y003251D01*
X019820Y003242D02*
X020700Y003242D01*
X020700Y003234D02*
X019820Y003234D01*
X019820Y003225D02*
X020700Y003225D01*
X020700Y003217D02*
X019820Y003217D01*
X019820Y003208D02*
X020700Y003208D01*
X020700Y003200D02*
X019820Y003200D01*
X019820Y003191D02*
X020700Y003191D01*
X020700Y003183D02*
X019820Y003183D01*
X019820Y003174D02*
X020700Y003174D01*
X020700Y003166D02*
X019820Y003166D01*
X019820Y003157D02*
X020700Y003157D01*
X020700Y003149D02*
X019820Y003149D01*
X019820Y003140D02*
X020700Y003140D01*
X020700Y003132D02*
X019820Y003132D01*
X019820Y003123D02*
X020700Y003123D01*
X020700Y003115D02*
X019820Y003115D01*
X019820Y003106D02*
X020700Y003106D01*
X020700Y003098D02*
X019820Y003098D01*
X019820Y003089D02*
X020700Y003089D01*
X020700Y003081D02*
X019820Y003081D01*
X019820Y003072D02*
X020700Y003072D01*
X020700Y003064D02*
X019820Y003064D01*
X019820Y003055D02*
X020700Y003055D01*
X020700Y003047D02*
X020263Y003047D01*
X020272Y003038D02*
X020700Y003038D01*
X020700Y003030D02*
X020280Y003030D01*
X020289Y003021D02*
X020700Y003021D01*
X020700Y003013D02*
X020297Y003013D01*
X020306Y003004D02*
X020700Y003004D01*
X020700Y002996D02*
X020314Y002996D01*
X020323Y002987D02*
X020700Y002987D01*
X020700Y002979D02*
X020331Y002979D01*
X020340Y002970D02*
X020700Y002970D01*
X020700Y002962D02*
X020348Y002962D01*
X020357Y002953D02*
X020700Y002953D01*
X020700Y002945D02*
X020365Y002945D01*
X020374Y002936D02*
X020700Y002936D01*
X020700Y002928D02*
X020382Y002928D01*
X020391Y002902D02*
X020700Y002902D01*
X020700Y002894D02*
X020391Y002894D01*
X020391Y002885D02*
X020700Y002885D01*
X020700Y002877D02*
X020391Y002877D01*
X020391Y002868D02*
X020700Y002868D01*
X020700Y002860D02*
X020391Y002860D01*
X020391Y002851D02*
X020700Y002851D01*
X020700Y002843D02*
X020391Y002843D01*
X020391Y002834D02*
X020700Y002834D01*
X020700Y002826D02*
X020391Y002826D01*
X020391Y002817D02*
X020700Y002817D01*
X020700Y002809D02*
X020391Y002809D01*
X020391Y002800D02*
X020700Y002800D01*
X020072Y003047D02*
X019820Y003047D01*
X019820Y003038D02*
X020063Y003038D01*
X020055Y003030D02*
X019820Y003030D01*
X019820Y003021D02*
X020046Y003021D01*
X020038Y003013D02*
X019820Y003013D01*
X019820Y003004D02*
X020029Y003004D01*
X020021Y002996D02*
X019820Y002996D01*
X019820Y002987D02*
X020012Y002987D01*
X020004Y002979D02*
X019820Y002979D01*
X019820Y002970D02*
X019995Y002970D01*
X019987Y002962D02*
X019820Y002962D01*
X019820Y002953D02*
X019978Y002953D01*
X019970Y002945D02*
X019820Y002945D01*
X019820Y002936D02*
X019961Y002936D01*
X019953Y002928D02*
X019820Y002928D01*
X019820Y002902D02*
X019945Y002902D01*
X019945Y002894D02*
X019820Y002894D01*
X019820Y002885D02*
X019945Y002885D01*
X019945Y002877D02*
X019820Y002877D01*
X019820Y002868D02*
X019945Y002868D01*
X019945Y002860D02*
X019820Y002860D01*
X019820Y002851D02*
X019945Y002851D01*
X019945Y002843D02*
X019820Y002843D01*
X019820Y002834D02*
X019945Y002834D01*
X019945Y002826D02*
X019820Y002826D01*
X019820Y002817D02*
X019945Y002817D01*
X019945Y002809D02*
X019820Y002809D01*
X019820Y002800D02*
X019945Y002800D01*
X019584Y003675D02*
X019607Y003697D01*
X019605Y003701D01*
X019602Y003693D02*
X019591Y003693D01*
X019588Y003684D02*
X019593Y003684D01*
X019585Y003676D02*
X019584Y003676D01*
X018743Y003676D02*
X017800Y003676D01*
X017800Y003684D02*
X018743Y003684D01*
X018731Y003693D02*
X017800Y003693D01*
X017800Y003701D02*
X018722Y003701D01*
X018714Y003710D02*
X017800Y003710D01*
X017800Y003718D02*
X018705Y003718D01*
X018697Y003727D02*
X017800Y003727D01*
X017800Y003735D02*
X018688Y003735D01*
X018680Y003744D02*
X017800Y003744D01*
X017800Y003752D02*
X018671Y003752D01*
X018663Y003761D02*
X017800Y003761D01*
X017800Y003769D02*
X018659Y003769D01*
X018656Y003778D02*
X017800Y003778D01*
X017800Y003786D02*
X018652Y003786D01*
X018648Y003795D02*
X017800Y003795D01*
X017800Y003803D02*
X018645Y003803D01*
X018641Y003812D02*
X017800Y003812D01*
X017800Y003820D02*
X018638Y003820D01*
X018634Y003829D02*
X017800Y003829D01*
X017800Y003837D02*
X018631Y003837D01*
X018627Y003846D02*
X017800Y003846D01*
X017800Y003854D02*
X018625Y003854D01*
X018625Y003863D02*
X017800Y003863D01*
X017800Y003871D02*
X018625Y003871D01*
X018625Y003880D02*
X017800Y003880D01*
X017800Y003888D02*
X018625Y003888D01*
X018625Y003897D02*
X017800Y003897D01*
X017800Y003905D02*
X018625Y003905D01*
X018625Y003914D02*
X017800Y003914D01*
X017800Y003922D02*
X018625Y003922D01*
X018625Y003931D02*
X017800Y003931D01*
X017800Y003939D02*
X018625Y003939D01*
X018625Y003948D02*
X017800Y003948D01*
X017800Y003956D02*
X018628Y003956D01*
X018632Y003965D02*
X017800Y003965D01*
X017800Y003973D02*
X018635Y003973D01*
X018639Y003982D02*
X017800Y003982D01*
X017800Y003990D02*
X018642Y003990D01*
X018646Y003999D02*
X017800Y003999D01*
X017800Y004007D02*
X018649Y004007D01*
X018653Y004016D02*
X017800Y004016D01*
X017800Y004024D02*
X018656Y004024D01*
X018660Y004033D02*
X017800Y004033D01*
X017800Y004041D02*
X018665Y004041D01*
X018673Y004050D02*
X017800Y004050D01*
X017800Y004058D02*
X018682Y004058D01*
X018690Y004067D02*
X017800Y004067D01*
X017800Y004075D02*
X018699Y004075D01*
X018707Y004084D02*
X017800Y004084D01*
X017800Y004092D02*
X018716Y004092D01*
X018337Y004101D02*
X017800Y004101D01*
X017800Y004109D02*
X018329Y004109D01*
X018320Y004118D02*
X017800Y004118D01*
X017800Y004126D02*
X018312Y004126D01*
X018303Y004135D02*
X017800Y004135D01*
X017800Y004143D02*
X018295Y004143D01*
X018288Y004152D02*
X017800Y004152D01*
X017800Y004160D02*
X018288Y004160D01*
X018288Y004169D02*
X017800Y004169D01*
X017800Y004177D02*
X018288Y004177D01*
X018288Y004186D02*
X017800Y004186D01*
X017800Y004194D02*
X018288Y004194D01*
X018288Y004203D02*
X017800Y004203D01*
X017800Y004211D02*
X018288Y004211D01*
X018288Y004220D02*
X017800Y004220D01*
X017800Y004228D02*
X018288Y004228D01*
X018288Y004237D02*
X017800Y004237D01*
X017800Y004245D02*
X018288Y004245D01*
X018288Y004254D02*
X017800Y004254D01*
X017800Y004262D02*
X018288Y004262D01*
X018288Y004271D02*
X017800Y004271D01*
X017800Y004279D02*
X018288Y004279D01*
X018288Y004288D02*
X017800Y004288D01*
X017800Y004296D02*
X018288Y004296D01*
X018288Y004305D02*
X017800Y004305D01*
X017800Y004313D02*
X018288Y004313D01*
X018288Y004322D02*
X017800Y004322D01*
X017800Y004330D02*
X018288Y004330D01*
X018288Y004339D02*
X017800Y004339D01*
X017800Y004347D02*
X018288Y004347D01*
X018288Y004356D02*
X017800Y004356D01*
X017800Y004364D02*
X018288Y004364D01*
X018288Y004373D02*
X017800Y004373D01*
X017800Y004381D02*
X018288Y004381D01*
X018288Y004390D02*
X017800Y004390D01*
X017800Y004398D02*
X018288Y004398D01*
X018288Y004407D02*
X017800Y004407D01*
X017800Y004415D02*
X018288Y004415D01*
X018288Y004424D02*
X017800Y004424D01*
X017800Y004432D02*
X018288Y004432D01*
X018288Y004441D02*
X017800Y004441D01*
X017800Y004449D02*
X018288Y004449D01*
X018288Y004458D02*
X017800Y004458D01*
X017800Y004466D02*
X018288Y004466D01*
X018288Y004475D02*
X017800Y004475D01*
X017800Y004483D02*
X018288Y004483D01*
X018288Y004492D02*
X017800Y004492D01*
X017800Y004500D02*
X018288Y004500D01*
X018288Y004509D02*
X017800Y004509D01*
X017800Y004517D02*
X018288Y004517D01*
X018288Y004526D02*
X017800Y004526D01*
X017800Y004534D02*
X018288Y004534D01*
X018288Y004543D02*
X017800Y004543D01*
X017800Y004551D02*
X018288Y004551D01*
X018288Y004560D02*
X017800Y004560D01*
X017800Y004568D02*
X018288Y004568D01*
X018288Y004577D02*
X017800Y004577D01*
X017800Y004585D02*
X018288Y004585D01*
X018288Y004594D02*
X017800Y004594D01*
X017800Y004602D02*
X018288Y004602D01*
X018288Y004611D02*
X017800Y004611D01*
X017800Y004619D02*
X018288Y004619D01*
X018288Y004628D02*
X017800Y004628D01*
X017800Y004636D02*
X018288Y004636D01*
X018288Y004645D02*
X017800Y004645D01*
X017800Y004653D02*
X018288Y004653D01*
X018288Y004662D02*
X017800Y004662D01*
X017800Y004670D02*
X018288Y004670D01*
X018288Y004679D02*
X017800Y004679D01*
X017800Y004687D02*
X018288Y004687D01*
X018288Y004696D02*
X017800Y004696D01*
X017800Y004704D02*
X018288Y004704D01*
X018288Y004713D02*
X017800Y004713D01*
X017800Y004721D02*
X018288Y004721D01*
X018288Y004730D02*
X017800Y004730D01*
X017800Y004738D02*
X018288Y004738D01*
X018288Y004747D02*
X017800Y004747D01*
X017800Y004755D02*
X018288Y004755D01*
X018288Y004764D02*
X017800Y004764D01*
X017800Y004772D02*
X018288Y004772D01*
X018288Y004781D02*
X017800Y004781D01*
X017800Y004789D02*
X018288Y004789D01*
X018288Y004798D02*
X017800Y004798D01*
X017300Y004600D02*
X017300Y004567D01*
X017288Y004567D01*
X017238Y004517D01*
X016777Y004517D01*
X016777Y004509D02*
X017238Y004509D01*
X017238Y004517D02*
X017238Y004171D01*
X017288Y004121D01*
X017300Y004121D01*
X017300Y003745D01*
X016860Y003745D01*
X016542Y004063D01*
X016542Y004273D01*
X016541Y004274D01*
X016541Y004395D01*
X016513Y004423D01*
X016727Y004423D01*
X016777Y004473D01*
X016777Y004600D01*
X017300Y004600D01*
X017300Y004594D02*
X016777Y004594D01*
X016777Y004585D02*
X017300Y004585D01*
X017300Y004577D02*
X016777Y004577D01*
X016777Y004568D02*
X017300Y004568D01*
X017280Y004560D02*
X016777Y004560D01*
X016777Y004551D02*
X017272Y004551D01*
X017263Y004543D02*
X016777Y004543D01*
X016777Y004534D02*
X017255Y004534D01*
X017246Y004526D02*
X016777Y004526D01*
X016777Y004500D02*
X017238Y004500D01*
X017238Y004492D02*
X016777Y004492D01*
X016777Y004483D02*
X017238Y004483D01*
X017238Y004475D02*
X016777Y004475D01*
X016771Y004466D02*
X017238Y004466D01*
X017238Y004458D02*
X016762Y004458D01*
X016754Y004449D02*
X017238Y004449D01*
X017238Y004441D02*
X016745Y004441D01*
X016737Y004432D02*
X017238Y004432D01*
X017238Y004424D02*
X016728Y004424D01*
X016541Y004390D02*
X017238Y004390D01*
X017238Y004398D02*
X016538Y004398D01*
X016530Y004407D02*
X017238Y004407D01*
X017238Y004415D02*
X016521Y004415D01*
X016541Y004381D02*
X017238Y004381D01*
X017238Y004373D02*
X016541Y004373D01*
X016541Y004364D02*
X017238Y004364D01*
X017238Y004356D02*
X016541Y004356D01*
X016541Y004347D02*
X017238Y004347D01*
X017238Y004339D02*
X016541Y004339D01*
X016541Y004330D02*
X017238Y004330D01*
X017238Y004322D02*
X016541Y004322D01*
X016541Y004313D02*
X017238Y004313D01*
X017238Y004305D02*
X016541Y004305D01*
X016541Y004296D02*
X017238Y004296D01*
X017238Y004288D02*
X016541Y004288D01*
X016541Y004279D02*
X017238Y004279D01*
X017238Y004271D02*
X016542Y004271D01*
X016542Y004262D02*
X017238Y004262D01*
X017238Y004254D02*
X016542Y004254D01*
X016542Y004245D02*
X017238Y004245D01*
X017238Y004237D02*
X016542Y004237D01*
X016542Y004228D02*
X017238Y004228D01*
X017238Y004220D02*
X016542Y004220D01*
X016542Y004211D02*
X017238Y004211D01*
X017238Y004203D02*
X016542Y004203D01*
X016542Y004194D02*
X017238Y004194D01*
X017238Y004186D02*
X016542Y004186D01*
X016542Y004177D02*
X017238Y004177D01*
X017240Y004169D02*
X016542Y004169D01*
X016542Y004160D02*
X017249Y004160D01*
X017257Y004152D02*
X016542Y004152D01*
X016542Y004143D02*
X017266Y004143D01*
X017274Y004135D02*
X016542Y004135D01*
X016542Y004126D02*
X017283Y004126D01*
X017300Y004118D02*
X016542Y004118D01*
X016542Y004109D02*
X017300Y004109D01*
X017300Y004101D02*
X016542Y004101D01*
X016542Y004092D02*
X017300Y004092D01*
X017300Y004084D02*
X016542Y004084D01*
X016542Y004075D02*
X017300Y004075D01*
X017300Y004067D02*
X016542Y004067D01*
X016547Y004058D02*
X017300Y004058D01*
X017300Y004050D02*
X016555Y004050D01*
X016564Y004041D02*
X017300Y004041D01*
X017300Y004033D02*
X016572Y004033D01*
X016581Y004024D02*
X017300Y004024D01*
X017300Y004016D02*
X016589Y004016D01*
X016598Y004007D02*
X017300Y004007D01*
X017300Y003999D02*
X016606Y003999D01*
X016615Y003990D02*
X017300Y003990D01*
X017300Y003982D02*
X016623Y003982D01*
X016632Y003973D02*
X017300Y003973D01*
X017300Y003965D02*
X016640Y003965D01*
X016649Y003956D02*
X017300Y003956D01*
X017300Y003948D02*
X016657Y003948D01*
X016666Y003939D02*
X017300Y003939D01*
X017300Y003931D02*
X016674Y003931D01*
X016683Y003922D02*
X017300Y003922D01*
X017300Y003914D02*
X016691Y003914D01*
X016700Y003905D02*
X017300Y003905D01*
X017300Y003897D02*
X016708Y003897D01*
X016717Y003888D02*
X017300Y003888D01*
X017300Y003880D02*
X016725Y003880D01*
X016734Y003871D02*
X017300Y003871D01*
X017300Y003863D02*
X016742Y003863D01*
X016751Y003854D02*
X017300Y003854D01*
X017300Y003846D02*
X016759Y003846D01*
X016768Y003837D02*
X017300Y003837D01*
X017300Y003829D02*
X016776Y003829D01*
X016785Y003820D02*
X017300Y003820D01*
X017300Y003812D02*
X016793Y003812D01*
X016802Y003803D02*
X017300Y003803D01*
X017300Y003795D02*
X016810Y003795D01*
X016819Y003786D02*
X017300Y003786D01*
X017300Y003778D02*
X016827Y003778D01*
X016836Y003769D02*
X017300Y003769D01*
X017300Y003761D02*
X016844Y003761D01*
X016853Y003752D02*
X017300Y003752D01*
X017800Y003667D02*
X018743Y003667D01*
X018743Y003659D02*
X017800Y003659D01*
X017800Y003650D02*
X018743Y003650D01*
X018743Y003642D02*
X017800Y003642D01*
X017800Y003633D02*
X018743Y003633D01*
X018743Y003625D02*
X017800Y003625D01*
X017800Y003616D02*
X018743Y003616D01*
X018743Y003608D02*
X017800Y003608D01*
X017800Y003599D02*
X018743Y003599D01*
X018743Y003591D02*
X017800Y003591D01*
X017800Y003582D02*
X018743Y003582D01*
X018743Y003574D02*
X017800Y003574D01*
X017800Y003565D02*
X018743Y003565D01*
X018743Y003557D02*
X017800Y003557D01*
X017800Y003548D02*
X018743Y003548D01*
X018743Y003540D02*
X017800Y003540D01*
X017800Y003531D02*
X018743Y003531D01*
X018743Y003523D02*
X017800Y003523D01*
X017800Y003514D02*
X018743Y003514D01*
X018743Y003506D02*
X017800Y003506D01*
X017800Y003497D02*
X018743Y003497D01*
X018743Y003489D02*
X017800Y003489D01*
X017800Y003480D02*
X018743Y003480D01*
X018743Y003472D02*
X017800Y003472D01*
X017800Y003463D02*
X018743Y003463D01*
X018743Y003455D02*
X017800Y003455D01*
X017800Y003446D02*
X018743Y003446D01*
X018743Y003438D02*
X017800Y003438D01*
X017800Y003429D02*
X018743Y003429D01*
X018743Y003421D02*
X017800Y003421D01*
X017800Y003412D02*
X018743Y003412D01*
X018743Y003404D02*
X017800Y003404D01*
X018288Y004806D02*
X016800Y004806D01*
X016800Y004815D02*
X018288Y004815D01*
X018288Y004823D02*
X016800Y004823D01*
X016800Y004832D02*
X018288Y004832D01*
X018288Y004840D02*
X016800Y004840D01*
X016800Y004849D02*
X018288Y004849D01*
X018295Y004857D02*
X016800Y004857D01*
X016800Y004866D02*
X018304Y004866D01*
X018312Y004874D02*
X016800Y004874D01*
X016800Y004883D02*
X018321Y004883D01*
X018329Y004891D02*
X016800Y004891D01*
X016800Y004900D02*
X018338Y004900D01*
X019412Y005300D02*
X017220Y005300D01*
X017220Y005299D01*
X017211Y005291D02*
X019426Y005291D01*
X019440Y005282D02*
X017203Y005282D01*
X017194Y005274D02*
X019453Y005274D01*
X019466Y005265D02*
X017186Y005265D01*
X017177Y005257D02*
X019480Y005257D01*
X020553Y004483D02*
X020605Y004483D01*
X020617Y004475D02*
X020574Y004475D01*
X020594Y004466D02*
X020628Y004466D01*
X020634Y004462D02*
X020634Y004462D01*
X020640Y004458D02*
X020615Y004458D01*
X020635Y004449D02*
X020651Y004449D01*
X020646Y004441D02*
X020662Y004441D01*
X020654Y004432D02*
X020674Y004432D01*
X020663Y004424D02*
X020685Y004424D01*
X020696Y004415D02*
X020671Y004415D01*
X020680Y004407D02*
X020700Y004407D01*
X020700Y004398D02*
X020688Y004398D01*
X020697Y004390D02*
X020700Y004390D01*
X020699Y004092D02*
X020700Y004092D01*
X020700Y004084D02*
X020690Y004084D01*
X020682Y004075D02*
X020700Y004075D01*
X020700Y004067D02*
X020673Y004067D01*
X020665Y004058D02*
X020700Y004058D01*
X020700Y004050D02*
X020656Y004050D01*
X020648Y004041D02*
X020700Y004041D01*
X020700Y004033D02*
X020639Y004033D01*
X020619Y004024D02*
X020700Y004024D01*
X020700Y004016D02*
X020598Y004016D01*
X020578Y004007D02*
X020700Y004007D01*
X020700Y003999D02*
X020557Y003999D01*
X022140Y002900D02*
X022580Y002990D01*
X022640Y002900D01*
X022580Y002810D01*
X022140Y002900D01*
X022150Y002902D02*
X022639Y002902D01*
X022636Y002894D02*
X022172Y002894D01*
X022192Y002911D02*
X022633Y002911D01*
X022627Y002919D02*
X022233Y002919D01*
X022213Y002885D02*
X022630Y002885D01*
X022624Y002877D02*
X022255Y002877D01*
X022296Y002868D02*
X022619Y002868D01*
X022613Y002860D02*
X022338Y002860D01*
X022379Y002851D02*
X022607Y002851D01*
X022602Y002843D02*
X022421Y002843D01*
X022462Y002834D02*
X022596Y002834D01*
X022590Y002826D02*
X022504Y002826D01*
X022546Y002817D02*
X022585Y002817D01*
X022622Y002928D02*
X022275Y002928D01*
X022316Y002936D02*
X022616Y002936D01*
X022610Y002945D02*
X022358Y002945D01*
X022399Y002953D02*
X022605Y002953D01*
X022599Y002962D02*
X022441Y002962D01*
X022482Y002970D02*
X022593Y002970D01*
X022588Y002979D02*
X022524Y002979D01*
X022566Y002987D02*
X022582Y002987D01*
X022683Y003055D02*
X023328Y003055D01*
X023323Y003047D02*
X022689Y003047D01*
X022694Y003038D02*
X023317Y003038D01*
X023312Y003030D02*
X022699Y003030D01*
X022705Y003021D02*
X023307Y003021D01*
X023301Y003013D02*
X022710Y003013D01*
X022715Y003004D02*
X023296Y003004D01*
X023291Y002996D02*
X022720Y002996D01*
X022726Y002987D02*
X023285Y002987D01*
X023280Y002979D02*
X022731Y002979D01*
X022736Y002970D02*
X023274Y002970D01*
X023269Y002962D02*
X022742Y002962D01*
X022747Y002953D02*
X023264Y002953D01*
X023258Y002945D02*
X022752Y002945D01*
X022758Y002936D02*
X023253Y002936D01*
X023247Y002928D02*
X022763Y002928D01*
X022768Y002919D02*
X023242Y002919D01*
X023237Y002911D02*
X022773Y002911D01*
X022779Y002902D02*
X023231Y002902D01*
X023230Y002900D02*
X023610Y002280D01*
X023000Y002680D01*
X022380Y002270D01*
X022780Y002900D01*
X022400Y003510D01*
X023000Y003120D01*
X023610Y003500D01*
X023230Y002900D01*
X023234Y002894D02*
X022776Y002894D01*
X022771Y002885D02*
X023239Y002885D01*
X023244Y002877D02*
X022765Y002877D01*
X022760Y002868D02*
X023250Y002868D01*
X023255Y002860D02*
X022754Y002860D01*
X022749Y002851D02*
X023260Y002851D01*
X023265Y002843D02*
X022744Y002843D01*
X022738Y002834D02*
X023270Y002834D01*
X023276Y002826D02*
X022733Y002826D01*
X022727Y002817D02*
X023281Y002817D01*
X023286Y002809D02*
X022722Y002809D01*
X022717Y002800D02*
X023291Y002800D01*
X023296Y002792D02*
X022711Y002792D01*
X022706Y002783D02*
X023302Y002783D01*
X023307Y002775D02*
X022700Y002775D01*
X022695Y002766D02*
X023312Y002766D01*
X023317Y002758D02*
X022690Y002758D01*
X022684Y002749D02*
X023323Y002749D01*
X023328Y002741D02*
X022679Y002741D01*
X022673Y002732D02*
X023333Y002732D01*
X023338Y002724D02*
X022668Y002724D01*
X022663Y002715D02*
X023343Y002715D01*
X023349Y002707D02*
X022657Y002707D01*
X022652Y002698D02*
X023354Y002698D01*
X023359Y002690D02*
X022646Y002690D01*
X022641Y002681D02*
X023364Y002681D01*
X023369Y002673D02*
X023011Y002673D01*
X023024Y002664D02*
X023375Y002664D01*
X023380Y002656D02*
X023037Y002656D01*
X023050Y002647D02*
X023385Y002647D01*
X023390Y002639D02*
X023063Y002639D01*
X023076Y002630D02*
X023395Y002630D01*
X023401Y002622D02*
X023089Y002622D01*
X023102Y002613D02*
X023406Y002613D01*
X023411Y002605D02*
X023115Y002605D01*
X023128Y002596D02*
X023416Y002596D01*
X023422Y002588D02*
X023141Y002588D01*
X023154Y002579D02*
X023427Y002579D01*
X023432Y002571D02*
X023167Y002571D01*
X023180Y002562D02*
X023437Y002562D01*
X023442Y002554D02*
X023193Y002554D01*
X023206Y002545D02*
X023448Y002545D01*
X023453Y002537D02*
X023219Y002537D01*
X023232Y002528D02*
X023458Y002528D01*
X023463Y002520D02*
X023245Y002520D01*
X023258Y002511D02*
X023468Y002511D01*
X023474Y002503D02*
X023271Y002503D01*
X023284Y002494D02*
X023479Y002494D01*
X023484Y002486D02*
X023297Y002486D01*
X023310Y002477D02*
X023489Y002477D01*
X023494Y002469D02*
X023322Y002469D01*
X023335Y002460D02*
X023500Y002460D01*
X023505Y002452D02*
X023348Y002452D01*
X023361Y002443D02*
X023510Y002443D01*
X023515Y002435D02*
X023374Y002435D01*
X023387Y002426D02*
X023520Y002426D01*
X023526Y002418D02*
X023400Y002418D01*
X023413Y002409D02*
X023531Y002409D01*
X023536Y002401D02*
X023426Y002401D01*
X023439Y002392D02*
X023541Y002392D01*
X023547Y002384D02*
X023452Y002384D01*
X023465Y002375D02*
X023552Y002375D01*
X023557Y002367D02*
X023478Y002367D01*
X023491Y002358D02*
X023562Y002358D01*
X023567Y002350D02*
X023504Y002350D01*
X023517Y002341D02*
X023573Y002341D01*
X023578Y002333D02*
X023530Y002333D01*
X023543Y002324D02*
X023583Y002324D01*
X023588Y002316D02*
X023556Y002316D01*
X023569Y002307D02*
X023593Y002307D01*
X023599Y002299D02*
X023582Y002299D01*
X023595Y002290D02*
X023604Y002290D01*
X023608Y002282D02*
X023609Y002282D01*
X023086Y002401D02*
X022914Y002401D01*
X022912Y002409D02*
X023088Y002409D01*
X023090Y002418D02*
X022910Y002418D01*
X022908Y002426D02*
X023092Y002426D01*
X023094Y002435D02*
X022906Y002435D01*
X022904Y002443D02*
X023096Y002443D01*
X023098Y002452D02*
X022902Y002452D01*
X022900Y002460D02*
X023000Y002530D01*
X023100Y002460D01*
X023000Y002020D01*
X022900Y002460D01*
X023100Y002460D01*
X023088Y002469D02*
X022912Y002469D01*
X022924Y002477D02*
X023076Y002477D01*
X023064Y002486D02*
X022936Y002486D01*
X022949Y002494D02*
X023051Y002494D01*
X023039Y002503D02*
X022961Y002503D01*
X022973Y002511D02*
X023027Y002511D01*
X023015Y002520D02*
X022985Y002520D01*
X022997Y002528D02*
X023003Y002528D01*
X022937Y002639D02*
X022614Y002639D01*
X022619Y002647D02*
X022950Y002647D01*
X022963Y002656D02*
X022625Y002656D01*
X022630Y002664D02*
X022976Y002664D01*
X022989Y002673D02*
X022636Y002673D01*
X022609Y002630D02*
X022924Y002630D01*
X022912Y002622D02*
X022603Y002622D01*
X022598Y002613D02*
X022899Y002613D01*
X022886Y002605D02*
X022592Y002605D01*
X022587Y002596D02*
X022873Y002596D01*
X022860Y002588D02*
X022582Y002588D01*
X022576Y002579D02*
X022847Y002579D01*
X022834Y002571D02*
X022571Y002571D01*
X022565Y002562D02*
X022822Y002562D01*
X022809Y002554D02*
X022560Y002554D01*
X022555Y002545D02*
X022796Y002545D01*
X022783Y002537D02*
X022549Y002537D01*
X022544Y002528D02*
X022770Y002528D01*
X022757Y002520D02*
X022538Y002520D01*
X022533Y002511D02*
X022745Y002511D01*
X022732Y002503D02*
X022528Y002503D01*
X022522Y002494D02*
X022719Y002494D01*
X022706Y002486D02*
X022517Y002486D01*
X022511Y002477D02*
X022693Y002477D01*
X022680Y002469D02*
X022506Y002469D01*
X022501Y002460D02*
X022667Y002460D01*
X022655Y002452D02*
X022495Y002452D01*
X022490Y002443D02*
X022642Y002443D01*
X022629Y002435D02*
X022484Y002435D01*
X022479Y002426D02*
X022616Y002426D01*
X022603Y002418D02*
X022474Y002418D01*
X022468Y002409D02*
X022590Y002409D01*
X022577Y002401D02*
X022463Y002401D01*
X022457Y002392D02*
X022565Y002392D01*
X022552Y002384D02*
X022452Y002384D01*
X022447Y002375D02*
X022539Y002375D01*
X022526Y002367D02*
X022441Y002367D01*
X022436Y002358D02*
X022513Y002358D01*
X022500Y002350D02*
X022430Y002350D01*
X022425Y002341D02*
X022487Y002341D01*
X022475Y002333D02*
X022420Y002333D01*
X022414Y002324D02*
X022462Y002324D01*
X022449Y002316D02*
X022409Y002316D01*
X022404Y002307D02*
X022436Y002307D01*
X022423Y002299D02*
X022398Y002299D01*
X022393Y002290D02*
X022410Y002290D01*
X022397Y002282D02*
X022387Y002282D01*
X022385Y002273D02*
X022382Y002273D01*
X022915Y002392D02*
X023085Y002392D01*
X023083Y002384D02*
X022917Y002384D01*
X022919Y002375D02*
X023081Y002375D01*
X023079Y002367D02*
X022921Y002367D01*
X022923Y002358D02*
X023077Y002358D01*
X023075Y002350D02*
X022925Y002350D01*
X022927Y002341D02*
X023073Y002341D01*
X023071Y002333D02*
X022929Y002333D01*
X022931Y002324D02*
X023069Y002324D01*
X023067Y002316D02*
X022933Y002316D01*
X022935Y002307D02*
X023065Y002307D01*
X023063Y002299D02*
X022937Y002299D01*
X022939Y002290D02*
X023061Y002290D01*
X023059Y002282D02*
X022941Y002282D01*
X022942Y002273D02*
X023058Y002273D01*
X023056Y002265D02*
X022944Y002265D01*
X022946Y002256D02*
X023054Y002256D01*
X023052Y002248D02*
X022948Y002248D01*
X022950Y002239D02*
X023050Y002239D01*
X023048Y002231D02*
X022952Y002231D01*
X022954Y002222D02*
X023046Y002222D01*
X023044Y002214D02*
X022956Y002214D01*
X022958Y002205D02*
X023042Y002205D01*
X023040Y002197D02*
X022960Y002197D01*
X022962Y002188D02*
X023038Y002188D01*
X023036Y002180D02*
X022964Y002180D01*
X022966Y002171D02*
X023034Y002171D01*
X023032Y002163D02*
X022968Y002163D01*
X022970Y002154D02*
X023030Y002154D01*
X023029Y002146D02*
X022971Y002146D01*
X022973Y002137D02*
X023027Y002137D01*
X023025Y002129D02*
X022975Y002129D01*
X022977Y002120D02*
X023023Y002120D01*
X023021Y002112D02*
X022979Y002112D01*
X022981Y002103D02*
X023019Y002103D01*
X023017Y002095D02*
X022983Y002095D01*
X022985Y002086D02*
X023015Y002086D01*
X023013Y002078D02*
X022987Y002078D01*
X022989Y002069D02*
X023011Y002069D01*
X023009Y002061D02*
X022991Y002061D01*
X022993Y002052D02*
X023007Y002052D01*
X023005Y002044D02*
X022995Y002044D01*
X022997Y002035D02*
X023003Y002035D01*
X022999Y002027D02*
X023001Y002027D01*
X023420Y002810D02*
X023360Y002900D01*
X023420Y002990D01*
X023880Y002900D01*
X023420Y002810D01*
X023415Y002817D02*
X023456Y002817D01*
X023499Y002826D02*
X023410Y002826D01*
X023404Y002834D02*
X023543Y002834D01*
X023586Y002843D02*
X023398Y002843D01*
X023393Y002851D02*
X023630Y002851D01*
X023673Y002860D02*
X023387Y002860D01*
X023381Y002868D02*
X023717Y002868D01*
X023760Y002877D02*
X023376Y002877D01*
X023370Y002885D02*
X023804Y002885D01*
X023826Y002911D02*
X023367Y002911D01*
X023373Y002919D02*
X023783Y002919D01*
X023739Y002928D02*
X023378Y002928D01*
X023384Y002936D02*
X023696Y002936D01*
X023652Y002945D02*
X023390Y002945D01*
X023395Y002953D02*
X023609Y002953D01*
X023565Y002962D02*
X023401Y002962D01*
X023407Y002970D02*
X023522Y002970D01*
X023478Y002979D02*
X023412Y002979D01*
X023418Y002987D02*
X023435Y002987D01*
X023361Y002902D02*
X023870Y002902D01*
X023847Y002894D02*
X023364Y002894D01*
X023334Y003064D02*
X022678Y003064D01*
X022673Y003072D02*
X023339Y003072D01*
X023344Y003081D02*
X022668Y003081D01*
X022662Y003089D02*
X023350Y003089D01*
X023355Y003098D02*
X022657Y003098D01*
X022652Y003106D02*
X023361Y003106D01*
X023366Y003115D02*
X022646Y003115D01*
X022641Y003123D02*
X022995Y003123D01*
X023005Y003123D02*
X023371Y003123D01*
X023377Y003132D02*
X023019Y003132D01*
X023032Y003140D02*
X023382Y003140D01*
X023387Y003149D02*
X023046Y003149D01*
X023059Y003157D02*
X023393Y003157D01*
X023398Y003166D02*
X023073Y003166D01*
X023087Y003174D02*
X023404Y003174D01*
X023409Y003183D02*
X023100Y003183D01*
X023114Y003191D02*
X023414Y003191D01*
X023420Y003200D02*
X023128Y003200D01*
X023141Y003208D02*
X023425Y003208D01*
X023430Y003217D02*
X023155Y003217D01*
X023169Y003225D02*
X023436Y003225D01*
X023441Y003234D02*
X023182Y003234D01*
X023196Y003242D02*
X023447Y003242D01*
X023452Y003251D02*
X023210Y003251D01*
X023223Y003259D02*
X023457Y003259D01*
X023463Y003268D02*
X023237Y003268D01*
X023251Y003276D02*
X023468Y003276D01*
X023474Y003285D02*
X023264Y003285D01*
X023278Y003293D02*
X023479Y003293D01*
X023484Y003302D02*
X023291Y003302D01*
X023305Y003310D02*
X023490Y003310D01*
X023495Y003319D02*
X023319Y003319D01*
X023332Y003327D02*
X023500Y003327D01*
X023506Y003336D02*
X023346Y003336D01*
X023360Y003344D02*
X023511Y003344D01*
X023517Y003353D02*
X023373Y003353D01*
X023387Y003361D02*
X023522Y003361D01*
X023527Y003370D02*
X023401Y003370D01*
X023414Y003378D02*
X023533Y003378D01*
X023538Y003387D02*
X023428Y003387D01*
X023442Y003395D02*
X023544Y003395D01*
X023549Y003404D02*
X023455Y003404D01*
X023469Y003412D02*
X023554Y003412D01*
X023560Y003421D02*
X023482Y003421D01*
X023496Y003429D02*
X023565Y003429D01*
X023570Y003438D02*
X023510Y003438D01*
X023523Y003446D02*
X023576Y003446D01*
X023581Y003455D02*
X023537Y003455D01*
X023551Y003463D02*
X023587Y003463D01*
X023592Y003472D02*
X023564Y003472D01*
X023578Y003480D02*
X023597Y003480D01*
X023592Y003489D02*
X023603Y003489D01*
X023605Y003497D02*
X023608Y003497D01*
X023086Y003387D02*
X022914Y003387D01*
X022916Y003395D02*
X023084Y003395D01*
X023082Y003404D02*
X022918Y003404D01*
X022920Y003412D02*
X023080Y003412D01*
X023078Y003421D02*
X022922Y003421D01*
X022924Y003429D02*
X023076Y003429D01*
X023074Y003438D02*
X022926Y003438D01*
X022927Y003446D02*
X023073Y003446D01*
X023071Y003455D02*
X022929Y003455D01*
X022931Y003463D02*
X023069Y003463D01*
X023067Y003472D02*
X022933Y003472D01*
X022935Y003480D02*
X023065Y003480D01*
X023063Y003489D02*
X022937Y003489D01*
X022938Y003497D02*
X023062Y003497D01*
X023060Y003506D02*
X022940Y003506D01*
X022942Y003514D02*
X023058Y003514D01*
X023056Y003523D02*
X022944Y003523D01*
X022946Y003531D02*
X023054Y003531D01*
X023052Y003540D02*
X022948Y003540D01*
X022950Y003548D02*
X023050Y003548D01*
X023049Y003557D02*
X022951Y003557D01*
X022953Y003565D02*
X023047Y003565D01*
X023045Y003574D02*
X022955Y003574D01*
X022957Y003582D02*
X023043Y003582D01*
X023041Y003591D02*
X022959Y003591D01*
X022961Y003599D02*
X023039Y003599D01*
X023037Y003608D02*
X022963Y003608D01*
X022964Y003616D02*
X023036Y003616D01*
X023034Y003625D02*
X022966Y003625D01*
X022968Y003633D02*
X023032Y003633D01*
X023030Y003642D02*
X022970Y003642D01*
X022972Y003650D02*
X023028Y003650D01*
X023026Y003659D02*
X022974Y003659D01*
X022975Y003667D02*
X023025Y003667D01*
X023023Y003676D02*
X022977Y003676D01*
X022979Y003684D02*
X023021Y003684D01*
X023019Y003693D02*
X022981Y003693D01*
X022983Y003701D02*
X023017Y003701D01*
X023015Y003710D02*
X022985Y003710D01*
X022987Y003718D02*
X023013Y003718D01*
X023012Y003727D02*
X022988Y003727D01*
X022990Y003735D02*
X023010Y003735D01*
X023008Y003744D02*
X022992Y003744D01*
X022994Y003752D02*
X023006Y003752D01*
X023004Y003761D02*
X022996Y003761D01*
X022998Y003769D02*
X023002Y003769D01*
X022999Y003778D02*
X023001Y003778D01*
X023000Y003780D02*
X022900Y003320D01*
X023000Y003260D01*
X023100Y003320D01*
X023000Y003780D01*
X022913Y003378D02*
X023087Y003378D01*
X023089Y003370D02*
X022911Y003370D01*
X022909Y003361D02*
X023091Y003361D01*
X023093Y003353D02*
X022907Y003353D01*
X022905Y003344D02*
X023095Y003344D01*
X023097Y003336D02*
X022903Y003336D01*
X022902Y003327D02*
X023098Y003327D01*
X023098Y003319D02*
X022902Y003319D01*
X022917Y003310D02*
X023083Y003310D01*
X023069Y003302D02*
X022931Y003302D01*
X022945Y003293D02*
X023055Y003293D01*
X023041Y003285D02*
X022959Y003285D01*
X022973Y003276D02*
X023027Y003276D01*
X023013Y003268D02*
X022987Y003268D01*
X022917Y003174D02*
X022609Y003174D01*
X022604Y003183D02*
X022904Y003183D01*
X022891Y003191D02*
X022599Y003191D01*
X022593Y003200D02*
X022878Y003200D01*
X022865Y003208D02*
X022588Y003208D01*
X022583Y003217D02*
X022851Y003217D01*
X022838Y003225D02*
X022578Y003225D01*
X022572Y003234D02*
X022825Y003234D01*
X022812Y003242D02*
X022567Y003242D01*
X022562Y003251D02*
X022799Y003251D01*
X022786Y003259D02*
X022556Y003259D01*
X022551Y003268D02*
X022773Y003268D01*
X022760Y003276D02*
X022546Y003276D01*
X022540Y003285D02*
X022747Y003285D01*
X022734Y003293D02*
X022535Y003293D01*
X022530Y003302D02*
X022721Y003302D01*
X022708Y003310D02*
X022525Y003310D01*
X022519Y003319D02*
X022695Y003319D01*
X022681Y003327D02*
X022514Y003327D01*
X022509Y003336D02*
X022668Y003336D01*
X022655Y003344D02*
X022503Y003344D01*
X022498Y003353D02*
X022642Y003353D01*
X022629Y003361D02*
X022493Y003361D01*
X022487Y003370D02*
X022616Y003370D01*
X022603Y003378D02*
X022482Y003378D01*
X022477Y003387D02*
X022590Y003387D01*
X022577Y003395D02*
X022472Y003395D01*
X022466Y003404D02*
X022564Y003404D01*
X022551Y003412D02*
X022461Y003412D01*
X022456Y003421D02*
X022538Y003421D01*
X022525Y003429D02*
X022450Y003429D01*
X022445Y003438D02*
X022511Y003438D01*
X022498Y003446D02*
X022440Y003446D01*
X022435Y003455D02*
X022485Y003455D01*
X022472Y003463D02*
X022429Y003463D01*
X022424Y003472D02*
X022459Y003472D01*
X022446Y003480D02*
X022419Y003480D01*
X022413Y003489D02*
X022433Y003489D01*
X022420Y003497D02*
X022408Y003497D01*
X022407Y003506D02*
X022403Y003506D01*
X022615Y003166D02*
X022930Y003166D01*
X022943Y003157D02*
X022620Y003157D01*
X022625Y003149D02*
X022956Y003149D01*
X022969Y003140D02*
X022630Y003140D01*
X022636Y003132D02*
X022982Y003132D01*
D11*
X016594Y004213D03*
X016397Y004213D03*
X016200Y004213D03*
X016003Y004213D03*
X015806Y004213D03*
X015806Y005787D03*
X016003Y005787D03*
X016200Y005787D03*
X016397Y005787D03*
X016594Y005787D03*
D12*
X016987Y005394D03*
X016987Y005197D03*
X016987Y005000D03*
X016987Y004803D03*
X016987Y004606D03*
X015413Y004606D03*
X015413Y004803D03*
X015413Y005000D03*
X015413Y005197D03*
X015413Y005394D03*
D13*
X016200Y005000D03*
D14*
X010994Y005181D03*
X010797Y005181D03*
X010600Y005181D03*
X010403Y005181D03*
X010206Y005181D03*
X010206Y004019D03*
X010403Y004019D03*
X010600Y004019D03*
X010797Y004019D03*
X010994Y004019D03*
D15*
X010600Y004600D03*
D16*
X010009Y004502D03*
X010009Y004698D03*
X011191Y004698D03*
X011191Y004502D03*
D17*
X010591Y002700D03*
X009409Y002700D03*
D18*
X011844Y005100D03*
X012356Y005100D03*
X011356Y006400D03*
X010844Y006400D03*
X010856Y005800D03*
X010344Y005800D03*
X009856Y005800D03*
X009344Y005800D03*
X009344Y006400D03*
X009856Y006400D03*
X015244Y006400D03*
X015756Y006400D03*
X016444Y006400D03*
X016956Y006400D03*
D19*
X017500Y004856D03*
X017500Y004344D03*
X017500Y003256D03*
X017000Y003256D03*
X016500Y003256D03*
X016000Y003256D03*
X015500Y003256D03*
X015000Y003256D03*
X015000Y002744D03*
X015500Y002744D03*
X016000Y002744D03*
X016500Y002744D03*
X017000Y002744D03*
X017500Y002744D03*
X011600Y004044D03*
X011600Y004556D03*
D20*
X012846Y005150D03*
X013554Y005150D03*
D21*
X007394Y004057D03*
X006606Y004057D03*
D22*
X005661Y002009D03*
X008339Y002009D03*
D23*
X004600Y002149D03*
X004600Y003251D03*
D24*
X016726Y002100D03*
X017474Y002100D03*
D25*
X018649Y004500D03*
X019751Y004500D03*
D26*
X013712Y006800D03*
X013200Y006800D03*
X012669Y006800D03*
D27*
X009300Y004851D03*
X009300Y003749D03*
D28*
X018888Y003053D03*
X019144Y003053D03*
X019400Y003053D03*
X019656Y003053D03*
X019912Y003053D03*
D29*
X019794Y002000D03*
X019006Y002004D03*
D30*
X018307Y002218D02*
X018307Y001782D01*
X020493Y001782D02*
X020493Y002218D01*
D31*
X019656Y003053D02*
X019656Y003556D01*
X019850Y003750D01*
X019400Y003700D02*
X019350Y003750D01*
X019400Y003700D02*
X019400Y003053D01*
X017556Y004344D02*
X017500Y004344D01*
X017447Y004803D02*
X016987Y004803D01*
X016987Y005000D01*
X016987Y005197D01*
X017447Y004803D02*
X017500Y004856D01*
X016800Y004200D02*
X016787Y004213D01*
X016594Y004213D01*
X016200Y004213D02*
X016003Y004213D01*
X016100Y004200D01*
X016100Y003900D01*
X015806Y003794D02*
X016000Y003600D01*
X016400Y003600D01*
X016500Y003500D01*
X016500Y003256D01*
X016000Y003256D02*
X015900Y003356D01*
X015900Y003400D01*
X015413Y003887D01*
X015413Y004606D01*
X015409Y004800D02*
X015413Y004803D01*
X015409Y004800D02*
X015200Y004800D01*
X015100Y004700D01*
X015100Y003800D01*
X015400Y003500D01*
X015400Y003356D01*
X015500Y003256D01*
X015000Y003256D02*
X014900Y003356D01*
X014900Y004800D01*
X015100Y005000D01*
X015413Y005000D01*
X015806Y004213D02*
X015806Y003794D01*
X015800Y004206D02*
X015806Y004213D01*
X017000Y003256D02*
X017000Y003244D01*
X017500Y002744D01*
X017000Y002744D02*
X016500Y002744D01*
X016500Y002326D01*
X016726Y002100D01*
X016000Y002200D02*
X016000Y002744D01*
X015500Y002744D02*
X015500Y002300D01*
X012400Y003500D02*
X012400Y005056D01*
X012356Y005100D01*
X012796Y005100D01*
X012846Y005150D01*
X013200Y005850D02*
X013200Y006800D01*
X011356Y006400D02*
X011356Y005543D01*
X010994Y005181D01*
X011763Y005181D01*
X011844Y005100D01*
X011191Y004698D02*
X011191Y004556D01*
X010600Y004556D01*
X010600Y004600D02*
X010400Y004400D01*
X010403Y004397D01*
X010403Y004502D01*
X010009Y004502D01*
X010009Y004698D01*
X010403Y004397D02*
X010403Y004019D01*
X010206Y004019D02*
X009570Y004019D01*
X009300Y003749D01*
X010600Y004019D02*
X010600Y002709D01*
X010591Y002700D01*
X011000Y003200D02*
X012100Y003200D01*
X012400Y003500D01*
X011600Y004019D02*
X011600Y004044D01*
X011600Y004019D02*
X010994Y004019D01*
X010797Y004019D02*
X010797Y003403D01*
X011000Y003200D01*
X010797Y005181D02*
X010797Y005741D01*
X010856Y005800D01*
X010844Y005812D01*
X010844Y006400D01*
X010600Y006100D02*
X010310Y006390D01*
X010600Y006100D02*
X010600Y005181D01*
X010403Y005181D02*
X010400Y005181D01*
X010400Y005744D01*
X010344Y005800D01*
X009856Y005800D01*
X009856Y006400D01*
X009344Y006400D02*
X009344Y005800D01*
X009344Y006400D02*
X009070Y006400D01*
X008980Y006310D01*
X015756Y006400D02*
X016003Y006153D01*
X016003Y005787D01*
X016200Y005787D02*
X016200Y006156D01*
X016444Y006400D01*
D32*
X018649Y004500D02*
X019170Y004500D01*
X013712Y005572D02*
X013560Y005420D01*
X013560Y005156D01*
X013554Y005150D01*
X013712Y005572D02*
X013712Y006800D01*
X012669Y006800D02*
X012669Y005731D01*
X012846Y005554D01*
X012846Y005150D01*
X011600Y004556D02*
X010780Y004556D01*
X010780Y004590D01*
X009950Y003150D02*
X009459Y003150D01*
X009300Y003309D01*
X009300Y003749D01*
X009459Y003150D02*
X009459Y002750D01*
X009409Y002700D01*
D33*
X004185Y002522D02*
X002550Y002522D01*
X002441Y002631D02*
X002145Y003084D01*
X001946Y003588D01*
X001946Y003589D02*
X004136Y003589D01*
X004125Y003548D01*
X004125Y003311D01*
X004540Y003311D01*
X004540Y003191D01*
X004660Y003191D01*
X004660Y002816D01*
X004936Y002816D01*
X004977Y002826D01*
X005013Y002848D01*
X005043Y002877D01*
X005064Y002914D01*
X005075Y002955D01*
X005075Y003191D01*
X004660Y003191D01*
X004660Y003311D01*
X005075Y003311D01*
X005075Y003548D01*
X005064Y003589D01*
X005043Y003625D01*
X005013Y003655D01*
X004977Y003676D01*
X004936Y003687D01*
X004660Y003687D01*
X004660Y003311D01*
X004540Y003311D01*
X004540Y003687D01*
X004264Y003687D01*
X004223Y003676D01*
X004187Y003655D01*
X004157Y003625D01*
X004136Y003589D01*
X004125Y003470D02*
X001993Y003470D01*
X001946Y003588D02*
X001854Y004121D01*
X001872Y004661D01*
X001999Y005187D01*
X001999Y005187D01*
X002230Y005676D01*
X002382Y005901D01*
X002497Y006037D01*
X002768Y006266D01*
X003084Y006430D01*
X003428Y006520D01*
X003605Y006535D01*
X003703Y006531D01*
X003891Y006477D01*
X004054Y006369D01*
X004069Y006353D01*
X003865Y006374D01*
X003475Y006280D01*
X003139Y006060D01*
X003139Y006060D01*
X003139Y006060D01*
X003018Y005900D01*
X003011Y005889D01*
X002911Y005757D01*
X002751Y005437D01*
X002653Y005093D01*
X002640Y004957D01*
X002636Y004916D01*
X002618Y004726D01*
X002724Y004360D01*
X002958Y004059D01*
X003286Y003866D01*
X003286Y003866D01*
X003407Y003847D01*
X003475Y003837D01*
X003780Y003790D01*
X004396Y003818D01*
X004995Y003967D01*
X004995Y003967D01*
X005552Y004233D01*
X005552Y004233D01*
X005744Y004377D01*
X005744Y004377D01*
X005796Y004416D01*
X005799Y004418D01*
X006249Y004418D01*
X006249Y004300D02*
X005641Y004300D01*
X005799Y004418D02*
X005799Y004418D01*
X006249Y004743D01*
X006249Y004095D01*
X006568Y004095D01*
X006568Y004018D01*
X006645Y004018D01*
X006645Y004095D01*
X006963Y004095D01*
X006963Y004983D01*
X006952Y005024D01*
X006931Y005060D01*
X006901Y005090D01*
X006865Y005111D01*
X006824Y005122D01*
X006812Y005122D01*
X007932Y005837D01*
X008632Y006229D01*
X008644Y006227D01*
X008680Y006254D01*
X008680Y006250D01*
X008726Y006140D01*
X008810Y006056D01*
X008920Y006010D01*
X009040Y006010D01*
X009066Y006021D01*
X009066Y006000D01*
X008917Y006000D01*
X008800Y005883D01*
X008400Y005483D01*
X008400Y005045D01*
X007706Y005045D01*
X007649Y005102D01*
X007139Y005102D01*
X007057Y005020D01*
X007057Y004132D01*
X007054Y004124D01*
X007054Y002335D01*
X006741Y002022D01*
X006697Y002004D01*
X006596Y001903D01*
X006542Y001771D01*
X006542Y001629D01*
X006596Y001497D01*
X006697Y001396D01*
X006792Y001357D01*
X006453Y001347D01*
X006116Y001321D01*
X006116Y002737D01*
X006034Y002819D01*
X005288Y002819D01*
X005206Y002737D01*
X005206Y001338D01*
X004862Y001368D01*
X004956Y001462D01*
X005020Y001616D01*
X005020Y001780D01*
X005055Y001815D01*
X005055Y002482D01*
X004973Y002564D01*
X004694Y002564D01*
X004684Y002569D01*
X004516Y002569D01*
X004506Y002564D01*
X004227Y002564D01*
X004145Y002482D01*
X004145Y001815D01*
X004180Y001780D01*
X004180Y001616D01*
X004214Y001535D01*
X004098Y001565D01*
X003378Y001885D01*
X003041Y002088D01*
X002823Y002248D01*
X002441Y002631D01*
X002435Y002641D02*
X005206Y002641D01*
X005206Y002522D02*
X005015Y002522D01*
X005055Y002404D02*
X005206Y002404D01*
X005206Y002285D02*
X005055Y002285D01*
X005055Y002167D02*
X005206Y002167D01*
X005206Y002048D02*
X005055Y002048D01*
X005055Y001930D02*
X005206Y001930D01*
X005206Y001811D02*
X005051Y001811D01*
X005020Y001693D02*
X005206Y001693D01*
X005206Y001574D02*
X005002Y001574D01*
X004949Y001456D02*
X005206Y001456D01*
X004198Y001574D02*
X004078Y001574D01*
X004180Y001693D02*
X003811Y001693D01*
X003544Y001811D02*
X004149Y001811D01*
X004145Y001930D02*
X003304Y001930D01*
X003107Y002048D02*
X004145Y002048D01*
X004145Y002167D02*
X002934Y002167D01*
X003041Y002088D02*
X003041Y002088D01*
X002786Y002285D02*
X004145Y002285D01*
X004145Y002404D02*
X002668Y002404D01*
X002357Y002759D02*
X005229Y002759D01*
X005043Y002878D02*
X007054Y002878D01*
X007054Y002996D02*
X006842Y002996D01*
X006824Y002991D02*
X006865Y003002D01*
X006901Y003023D01*
X006931Y003053D01*
X006952Y003089D01*
X006963Y003130D01*
X006963Y004018D01*
X006645Y004018D01*
X006645Y002991D01*
X006824Y002991D01*
X006645Y002996D02*
X006568Y002996D01*
X006568Y002991D02*
X006568Y004018D01*
X006249Y004018D01*
X006249Y003130D01*
X006260Y003089D01*
X006281Y003053D01*
X006311Y003023D01*
X006348Y003002D01*
X006388Y002991D01*
X006568Y002991D01*
X006568Y003115D02*
X006645Y003115D01*
X006645Y003233D02*
X006568Y003233D01*
X006568Y003352D02*
X006645Y003352D01*
X006645Y003470D02*
X006568Y003470D01*
X006568Y003589D02*
X006645Y003589D01*
X006645Y003707D02*
X006568Y003707D01*
X006568Y003826D02*
X006645Y003826D01*
X006645Y003944D02*
X006568Y003944D01*
X006568Y004063D02*
X005195Y004063D01*
X005444Y004181D02*
X006249Y004181D01*
X006249Y003944D02*
X004902Y003944D01*
X005064Y003589D02*
X006249Y003589D01*
X006249Y003707D02*
X001926Y003707D01*
X001905Y003826D02*
X003548Y003826D01*
X003407Y003847D02*
X003407Y003847D01*
X003154Y003944D02*
X001885Y003944D01*
X001864Y004063D02*
X002956Y004063D01*
X002958Y004059D02*
X002958Y004059D01*
X002864Y004181D02*
X001856Y004181D01*
X001860Y004300D02*
X002771Y004300D01*
X002707Y004418D02*
X001864Y004418D01*
X001868Y004537D02*
X002673Y004537D01*
X002638Y004655D02*
X001872Y004655D01*
X001899Y004774D02*
X002622Y004774D01*
X002618Y004726D02*
X002618Y004726D01*
X002634Y004892D02*
X001928Y004892D01*
X001956Y005011D02*
X002645Y005011D01*
X002653Y005093D02*
X002653Y005093D01*
X002663Y005129D02*
X001985Y005129D01*
X002028Y005248D02*
X002697Y005248D01*
X002731Y005366D02*
X002084Y005366D01*
X002140Y005485D02*
X002775Y005485D01*
X002751Y005437D02*
X002751Y005437D01*
X002834Y005603D02*
X002196Y005603D01*
X002261Y005722D02*
X002893Y005722D01*
X002911Y005757D02*
X002911Y005757D01*
X002973Y005840D02*
X002341Y005840D01*
X002382Y005901D02*
X002382Y005901D01*
X002431Y005959D02*
X003063Y005959D01*
X003166Y006077D02*
X002544Y006077D01*
X002684Y006196D02*
X003347Y006196D01*
X003475Y006280D02*
X003475Y006280D01*
X003616Y006314D02*
X002860Y006314D01*
X003093Y006433D02*
X003958Y006433D01*
X003865Y006374D02*
X003865Y006374D01*
X005963Y004537D02*
X006249Y004537D01*
X006249Y004655D02*
X006127Y004655D01*
X006645Y004063D02*
X007054Y004063D01*
X007057Y004181D02*
X006963Y004181D01*
X006963Y004300D02*
X007057Y004300D01*
X007057Y004418D02*
X006963Y004418D01*
X006963Y004537D02*
X007057Y004537D01*
X007057Y004655D02*
X006963Y004655D01*
X006963Y004774D02*
X007057Y004774D01*
X007057Y004892D02*
X006963Y004892D01*
X006956Y005011D02*
X007057Y005011D01*
X007008Y005248D02*
X008400Y005248D01*
X008400Y005366D02*
X007194Y005366D01*
X007380Y005485D02*
X008402Y005485D01*
X008520Y005603D02*
X007566Y005603D01*
X007751Y005722D02*
X008639Y005722D01*
X008757Y005840D02*
X007938Y005840D01*
X008149Y005959D02*
X008876Y005959D01*
X008789Y006077D02*
X008361Y006077D01*
X008572Y006196D02*
X008703Y006196D01*
X009000Y005800D02*
X009344Y005800D01*
X009344Y005656D01*
X009600Y005400D01*
X009987Y005400D01*
X010206Y005181D01*
X010008Y005096D02*
X009904Y005200D01*
X009811Y005200D01*
X009814Y005187D01*
X009814Y004911D01*
X009360Y004911D01*
X009360Y004791D01*
X009360Y004376D01*
X009675Y004376D01*
X009716Y004387D01*
X009721Y004390D01*
X009723Y004385D01*
X009744Y004348D01*
X009773Y004318D01*
X009810Y004297D01*
X009851Y004286D01*
X009968Y004286D01*
X009968Y004254D01*
X009978Y004213D01*
X009981Y004209D01*
X009492Y004209D01*
X009486Y004204D01*
X008888Y004204D01*
X008806Y004122D01*
X008806Y003977D01*
X008800Y003983D01*
X008800Y004469D01*
X008818Y004438D01*
X008847Y004408D01*
X008884Y004387D01*
X008925Y004376D01*
X009240Y004376D01*
X009240Y004791D01*
X009360Y004791D01*
X009716Y004791D01*
X009723Y004815D01*
X009744Y004852D01*
X009773Y004882D01*
X009810Y004903D01*
X009851Y004914D01*
X009968Y004914D01*
X009968Y004946D01*
X009978Y004987D01*
X010000Y005023D01*
X010008Y005031D01*
X010008Y005096D01*
X009975Y005129D02*
X009814Y005129D01*
X009814Y005011D02*
X009992Y005011D01*
X009791Y004892D02*
X009360Y004892D01*
X009360Y004911D02*
X009240Y004911D01*
X009240Y005326D01*
X008925Y005326D01*
X008884Y005315D01*
X008847Y005294D01*
X008818Y005264D01*
X008800Y005234D01*
X008800Y005317D01*
X009066Y005583D01*
X009066Y005565D01*
X009148Y005483D01*
X009234Y005483D01*
X009261Y005456D01*
X009391Y005326D01*
X009360Y005326D01*
X009360Y004911D01*
X009360Y005011D02*
X009240Y005011D01*
X009240Y005129D02*
X009360Y005129D01*
X009360Y005248D02*
X009240Y005248D01*
X009351Y005366D02*
X008849Y005366D01*
X008808Y005248D02*
X008800Y005248D01*
X008600Y005400D02*
X009000Y005800D01*
X008967Y005485D02*
X009147Y005485D01*
X008600Y005400D02*
X008600Y003900D01*
X008751Y003749D01*
X009300Y003749D01*
X009794Y003707D02*
X010276Y003707D01*
X010283Y003703D02*
X010267Y003712D01*
X010090Y003712D01*
X010008Y003794D01*
X010008Y003829D01*
X009794Y003829D01*
X009794Y003450D01*
X010010Y003450D01*
X010120Y003404D01*
X010204Y003320D01*
X010250Y003210D01*
X010250Y003090D01*
X010235Y003054D01*
X010277Y003096D01*
X010410Y003096D01*
X010410Y003692D01*
X010403Y003692D01*
X010403Y003792D01*
X010403Y003792D01*
X010403Y003692D01*
X010324Y003692D01*
X010283Y003703D01*
X010403Y003707D02*
X010403Y003707D01*
X010403Y003792D02*
X010403Y003792D01*
X010410Y003589D02*
X009794Y003589D01*
X009794Y003470D02*
X010410Y003470D01*
X010410Y003352D02*
X010173Y003352D01*
X010240Y003233D02*
X010410Y003233D01*
X010410Y003115D02*
X010250Y003115D01*
X010195Y002970D02*
X010195Y002386D01*
X010277Y002304D01*
X010904Y002304D01*
X010986Y002386D01*
X010986Y002955D01*
X011840Y002955D01*
X011830Y002930D01*
X011830Y002810D01*
X011876Y002700D01*
X011960Y002616D01*
X011966Y002613D01*
X011928Y002585D01*
X011065Y002098D01*
X010144Y001730D01*
X009183Y001487D01*
X008794Y001442D01*
X008794Y002737D01*
X008712Y002819D01*
X007966Y002819D01*
X007884Y002737D01*
X007884Y001368D01*
X007703Y001365D01*
X007695Y001365D01*
X007286Y001372D01*
X007025Y001364D01*
X007103Y001396D01*
X007204Y001497D01*
X007222Y001541D01*
X007682Y002001D01*
X007734Y002126D01*
X007734Y003455D01*
X008460Y003455D01*
X008545Y003540D01*
X008545Y003672D01*
X008668Y003549D01*
X008806Y003549D01*
X008806Y003376D01*
X008888Y003294D01*
X009000Y003294D01*
X009000Y003250D01*
X009046Y003140D01*
X009092Y003093D01*
X009014Y003014D01*
X009014Y002386D01*
X009096Y002304D01*
X009723Y002304D01*
X009805Y002386D01*
X009805Y002850D01*
X010010Y002850D01*
X010120Y002896D01*
X010195Y002970D01*
X010195Y002878D02*
X010076Y002878D01*
X010195Y002759D02*
X009805Y002759D01*
X009805Y002641D02*
X010195Y002641D01*
X010195Y002522D02*
X009805Y002522D01*
X009805Y002404D02*
X010195Y002404D01*
X010643Y001930D02*
X008794Y001930D01*
X008794Y002048D02*
X010940Y002048D01*
X011186Y002167D02*
X008794Y002167D01*
X008794Y002285D02*
X011396Y002285D01*
X011607Y002404D02*
X010986Y002404D01*
X010986Y002522D02*
X011817Y002522D01*
X011935Y002641D02*
X010986Y002641D01*
X010986Y002759D02*
X011851Y002759D01*
X011830Y002878D02*
X010986Y002878D01*
X010008Y003826D02*
X009794Y003826D01*
X009806Y004300D02*
X008800Y004300D01*
X008800Y004418D02*
X008838Y004418D01*
X008865Y004181D02*
X008800Y004181D01*
X008800Y004063D02*
X008806Y004063D01*
X008629Y003589D02*
X008545Y003589D01*
X008475Y003470D02*
X008806Y003470D01*
X008830Y003352D02*
X007734Y003352D01*
X007734Y003233D02*
X009007Y003233D01*
X009071Y003115D02*
X007734Y003115D01*
X007734Y002996D02*
X009014Y002996D01*
X009014Y002878D02*
X007734Y002878D01*
X007734Y002759D02*
X007906Y002759D01*
X007884Y002641D02*
X007734Y002641D01*
X007734Y002522D02*
X007884Y002522D01*
X007884Y002404D02*
X007734Y002404D01*
X007734Y002285D02*
X007884Y002285D01*
X007884Y002167D02*
X007734Y002167D01*
X007701Y002048D02*
X007884Y002048D01*
X007884Y001930D02*
X007610Y001930D01*
X007492Y001811D02*
X007884Y001811D01*
X007884Y001693D02*
X007373Y001693D01*
X007255Y001574D02*
X007884Y001574D01*
X007884Y001456D02*
X007162Y001456D01*
X006638Y001456D02*
X006116Y001456D01*
X006116Y001574D02*
X006565Y001574D01*
X006542Y001693D02*
X006116Y001693D01*
X006116Y001811D02*
X006558Y001811D01*
X006623Y001930D02*
X006116Y001930D01*
X006116Y002048D02*
X006767Y002048D01*
X006886Y002167D02*
X006116Y002167D01*
X006116Y002285D02*
X007004Y002285D01*
X007054Y002404D02*
X006116Y002404D01*
X006116Y002522D02*
X007054Y002522D01*
X007054Y002641D02*
X006116Y002641D01*
X006094Y002759D02*
X007054Y002759D01*
X007054Y003115D02*
X006959Y003115D01*
X006963Y003233D02*
X007054Y003233D01*
X007054Y003352D02*
X006963Y003352D01*
X006963Y003470D02*
X007054Y003470D01*
X007054Y003589D02*
X006963Y003589D01*
X006963Y003707D02*
X007054Y003707D01*
X007054Y003826D02*
X006963Y003826D01*
X006963Y003944D02*
X007054Y003944D01*
X006249Y003826D02*
X004428Y003826D01*
X004396Y003818D02*
X004396Y003818D01*
X004540Y003589D02*
X004660Y003589D01*
X004660Y003470D02*
X004540Y003470D01*
X004540Y003352D02*
X004660Y003352D01*
X004660Y003233D02*
X006249Y003233D01*
X006249Y003352D02*
X005075Y003352D01*
X005075Y003470D02*
X006249Y003470D01*
X006254Y003115D02*
X005075Y003115D01*
X005075Y002996D02*
X006370Y002996D01*
X006325Y001337D02*
X006116Y001337D01*
X004660Y002878D02*
X004540Y002878D01*
X004540Y002816D02*
X004264Y002816D01*
X004223Y002826D01*
X004187Y002848D01*
X004157Y002877D01*
X004136Y002914D01*
X004125Y002955D01*
X004125Y003191D01*
X004540Y003191D01*
X004540Y002816D01*
X004540Y002996D02*
X004660Y002996D01*
X004660Y003115D02*
X004540Y003115D01*
X004540Y003233D02*
X002086Y003233D01*
X002039Y003352D02*
X004125Y003352D01*
X004125Y003115D02*
X002133Y003115D01*
X002202Y002996D02*
X004125Y002996D01*
X004157Y002878D02*
X002280Y002878D01*
X003780Y003790D02*
X003780Y003790D01*
X006823Y005129D02*
X008400Y005129D01*
X009240Y004774D02*
X009360Y004774D01*
X009360Y004655D02*
X009240Y004655D01*
X009240Y004537D02*
X009360Y004537D01*
X009360Y004418D02*
X009240Y004418D01*
X010009Y004540D02*
X010009Y004540D01*
X010009Y004660D01*
X010009Y004660D01*
X010009Y004540D01*
X010009Y004655D02*
X010009Y004655D01*
X010301Y004600D02*
X010307Y004622D01*
X010307Y004660D01*
X010540Y004660D01*
X010540Y004540D01*
X010307Y004540D01*
X010307Y004578D01*
X010301Y004600D01*
X010307Y004655D02*
X010540Y004655D01*
X010660Y004655D02*
X010662Y004655D01*
X010660Y004657D02*
X010717Y004600D01*
X010883Y004600D01*
X010895Y004613D01*
X010899Y004600D01*
X010893Y004578D01*
X010893Y004540D01*
X010660Y004540D01*
X010660Y004657D01*
X010800Y004800D02*
X010800Y005200D01*
X011191Y004660D02*
X011191Y004660D01*
X011191Y004540D01*
X011191Y004540D01*
X011191Y004660D01*
X011191Y004655D02*
X011191Y004655D01*
X011609Y004565D02*
X011937Y004565D01*
X011937Y004715D01*
X011926Y004755D01*
X011910Y004783D01*
X011955Y004783D01*
X011955Y003945D01*
X011917Y003945D01*
X011917Y004240D01*
X011870Y004287D01*
X011875Y004290D01*
X011905Y004320D01*
X011926Y004356D01*
X011937Y004397D01*
X011937Y004547D01*
X011609Y004547D01*
X011609Y004565D01*
X011937Y004537D02*
X011955Y004537D01*
X011955Y004655D02*
X011937Y004655D01*
X011916Y004774D02*
X011955Y004774D01*
X011937Y004418D02*
X011955Y004418D01*
X011955Y004300D02*
X011885Y004300D01*
X011917Y004181D02*
X011955Y004181D01*
X011955Y004063D02*
X011917Y004063D01*
X012910Y003650D02*
X013470Y003650D01*
X014376Y002744D01*
X015000Y002744D01*
X014743Y003000D02*
X014687Y002944D01*
X014459Y002944D01*
X013553Y003850D01*
X013245Y003850D01*
X013245Y004862D01*
X013248Y004852D01*
X013269Y004816D01*
X013299Y004786D01*
X013335Y004765D01*
X013376Y004754D01*
X013536Y004754D01*
X013536Y005131D01*
X013573Y005131D01*
X013573Y004754D01*
X013733Y004754D01*
X013774Y004765D01*
X013810Y004786D01*
X013840Y004816D01*
X013861Y004852D01*
X013872Y004893D01*
X013872Y005131D01*
X013573Y005131D01*
X013573Y005169D01*
X013536Y005169D01*
X013536Y005546D01*
X013376Y005546D01*
X013335Y005535D01*
X013299Y005514D01*
X013269Y005484D01*
X013248Y005448D01*
X013237Y005407D01*
X013237Y005368D01*
X013160Y005445D01*
X013146Y005445D01*
X013146Y005550D01*
X013260Y005550D01*
X013370Y005596D01*
X013454Y005680D01*
X013500Y005790D01*
X013500Y005910D01*
X013454Y006020D01*
X013390Y006084D01*
X013390Y006227D01*
X013415Y006227D01*
X013442Y006253D01*
X013456Y006239D01*
X013493Y006218D01*
X013533Y006207D01*
X013693Y006207D01*
X013693Y006781D01*
X013731Y006781D01*
X013731Y006207D01*
X013890Y006207D01*
X013931Y006218D01*
X013968Y006239D01*
X013997Y006269D01*
X014018Y006305D01*
X014029Y006346D01*
X014029Y006737D01*
X014032Y006735D01*
X014760Y006735D01*
X014786Y006722D01*
X014826Y006735D01*
X014868Y006735D01*
X014886Y006753D01*
X015140Y006821D01*
X015736Y006894D01*
X016334Y006852D01*
X016781Y006733D01*
X016756Y006726D01*
X016720Y006705D01*
X016690Y006675D01*
X016687Y006670D01*
X016640Y006717D01*
X016248Y006717D01*
X016166Y006635D01*
X016166Y006391D01*
X016100Y006325D01*
X016034Y006391D01*
X016034Y006635D01*
X015952Y006717D01*
X015560Y006717D01*
X015513Y006670D01*
X015510Y006675D01*
X015480Y006705D01*
X015444Y006726D01*
X015403Y006737D01*
X015253Y006737D01*
X015253Y006409D01*
X015235Y006409D01*
X015235Y006391D01*
X014946Y006391D01*
X014946Y006202D01*
X014957Y006161D01*
X014978Y006125D01*
X015008Y006095D01*
X015045Y006074D01*
X015085Y006063D01*
X015235Y006063D01*
X015235Y006391D01*
X015253Y006391D01*
X015253Y006063D01*
X015403Y006063D01*
X015444Y006074D01*
X015480Y006095D01*
X015510Y006125D01*
X015513Y006130D01*
X015560Y006083D01*
X015683Y006083D01*
X015649Y006063D01*
X015619Y006033D01*
X015598Y005997D01*
X015587Y005956D01*
X015587Y005787D01*
X015587Y005619D01*
X015589Y005611D01*
X015581Y005613D01*
X015413Y005613D01*
X015413Y005400D01*
X015413Y005400D01*
X015413Y005613D01*
X015244Y005613D01*
X015203Y005602D01*
X015167Y005581D01*
X015137Y005551D01*
X015116Y005515D01*
X015105Y005474D01*
X015105Y005400D01*
X014817Y005400D01*
X014317Y004900D01*
X014200Y004783D01*
X014200Y004424D01*
X014146Y004370D01*
X014100Y004260D01*
X014100Y004140D01*
X014146Y004030D01*
X014230Y003946D01*
X014340Y003900D01*
X014460Y003900D01*
X014570Y003946D01*
X014654Y004030D01*
X014700Y004140D01*
X014700Y004260D01*
X014654Y004370D01*
X014600Y004424D01*
X014600Y004617D01*
X014710Y004727D01*
X014710Y003479D01*
X014683Y003452D01*
X014683Y003060D01*
X014743Y003000D01*
X014739Y002996D02*
X014407Y002996D01*
X014288Y003115D02*
X014683Y003115D01*
X014683Y003233D02*
X014170Y003233D01*
X014051Y003352D02*
X014683Y003352D01*
X014701Y003470D02*
X013933Y003470D01*
X013814Y003589D02*
X014710Y003589D01*
X014710Y003707D02*
X013696Y003707D01*
X013577Y003826D02*
X014710Y003826D01*
X014710Y003944D02*
X014566Y003944D01*
X014668Y004063D02*
X014710Y004063D01*
X014700Y004181D02*
X014710Y004181D01*
X014710Y004300D02*
X014684Y004300D01*
X014710Y004418D02*
X014606Y004418D01*
X014600Y004537D02*
X014710Y004537D01*
X014710Y004655D02*
X014638Y004655D01*
X014400Y004700D02*
X014400Y004200D01*
X014194Y004418D02*
X013245Y004418D01*
X013245Y004300D02*
X014116Y004300D01*
X014100Y004181D02*
X013245Y004181D01*
X013245Y004063D02*
X014132Y004063D01*
X014234Y003944D02*
X013245Y003944D01*
X012910Y003650D02*
X012130Y002870D01*
X013245Y004537D02*
X014200Y004537D01*
X014200Y004655D02*
X013245Y004655D01*
X013245Y004774D02*
X013320Y004774D01*
X013536Y004774D02*
X013573Y004774D01*
X013573Y004892D02*
X013536Y004892D01*
X013536Y005011D02*
X013573Y005011D01*
X013573Y005129D02*
X013536Y005129D01*
X013573Y005169D02*
X013872Y005169D01*
X013872Y005407D01*
X013861Y005448D01*
X013840Y005484D01*
X013810Y005514D01*
X013774Y005535D01*
X013733Y005546D01*
X013573Y005546D01*
X013573Y005169D01*
X013573Y005248D02*
X013536Y005248D01*
X013536Y005366D02*
X013573Y005366D01*
X013573Y005485D02*
X013536Y005485D01*
X013377Y005603D02*
X015208Y005603D01*
X015108Y005485D02*
X013840Y005485D01*
X013872Y005366D02*
X014783Y005366D01*
X014665Y005248D02*
X013872Y005248D01*
X013872Y005129D02*
X014546Y005129D01*
X014428Y005011D02*
X013872Y005011D01*
X013872Y004892D02*
X014309Y004892D01*
X014200Y004774D02*
X013789Y004774D01*
X014400Y004700D02*
X014900Y005200D01*
X015400Y005200D01*
X015403Y005197D01*
X015413Y005197D01*
X015413Y005394D02*
X015960Y005394D01*
X015960Y005090D01*
X015413Y005485D02*
X015413Y005485D01*
X015413Y005603D02*
X015413Y005603D01*
X015587Y005722D02*
X013471Y005722D01*
X013500Y005840D02*
X015587Y005840D01*
X015587Y005787D02*
X015804Y005787D01*
X015587Y005787D01*
X015588Y005959D02*
X013480Y005959D01*
X013397Y006077D02*
X015039Y006077D01*
X014948Y006196D02*
X013390Y006196D01*
X013693Y006314D02*
X013731Y006314D01*
X013731Y006433D02*
X013693Y006433D01*
X013693Y006551D02*
X013731Y006551D01*
X013731Y006670D02*
X013693Y006670D01*
X014029Y006670D02*
X014975Y006670D01*
X014978Y006675D02*
X014957Y006639D01*
X014946Y006598D01*
X014946Y006409D01*
X015235Y006409D01*
X015235Y006737D01*
X015085Y006737D01*
X015045Y006726D01*
X015008Y006705D01*
X014978Y006675D01*
X015017Y006788D02*
X016575Y006788D01*
X016201Y006670D02*
X015999Y006670D01*
X016034Y006551D02*
X016166Y006551D01*
X016166Y006433D02*
X016034Y006433D01*
X015673Y006077D02*
X015449Y006077D01*
X015253Y006077D02*
X015235Y006077D01*
X015235Y006196D02*
X015253Y006196D01*
X015253Y006314D02*
X015235Y006314D01*
X015235Y006433D02*
X015253Y006433D01*
X015253Y006551D02*
X015235Y006551D01*
X015235Y006670D02*
X015253Y006670D01*
X014946Y006551D02*
X014029Y006551D01*
X014029Y006433D02*
X014946Y006433D01*
X014946Y006314D02*
X014021Y006314D01*
X013269Y005485D02*
X013146Y005485D01*
X012531Y005445D02*
X012040Y005445D01*
X012012Y005417D01*
X011648Y005417D01*
X011602Y005371D01*
X011452Y005371D01*
X011546Y005464D01*
X011546Y006083D01*
X011552Y006083D01*
X011634Y006165D01*
X011634Y006635D01*
X011552Y006717D01*
X011160Y006717D01*
X011100Y006657D01*
X011040Y006717D01*
X010648Y006717D01*
X010566Y006635D01*
X010566Y006555D01*
X010564Y006560D01*
X010480Y006644D01*
X010370Y006690D01*
X010250Y006690D01*
X010140Y006644D01*
X010132Y006637D01*
X010052Y006717D01*
X009660Y006717D01*
X009600Y006657D01*
X009544Y006713D01*
X010066Y006852D01*
X010664Y006894D01*
X011260Y006821D01*
X011514Y006753D01*
X011532Y006735D01*
X011574Y006735D01*
X011614Y006722D01*
X011640Y006735D01*
X012368Y006735D01*
X012369Y006735D01*
X012369Y005672D01*
X012414Y005562D01*
X012531Y005445D01*
X012491Y005485D02*
X011546Y005485D01*
X011546Y005603D02*
X012397Y005603D01*
X012369Y005722D02*
X011546Y005722D01*
X011546Y005840D02*
X012369Y005840D01*
X012369Y005959D02*
X011546Y005959D01*
X011546Y006077D02*
X012369Y006077D01*
X012369Y006196D02*
X011634Y006196D01*
X011634Y006314D02*
X012369Y006314D01*
X012369Y006433D02*
X011634Y006433D01*
X011634Y006551D02*
X012369Y006551D01*
X012369Y006670D02*
X011599Y006670D01*
X011383Y006788D02*
X009825Y006788D01*
X009612Y006670D02*
X009588Y006670D01*
X010099Y006670D02*
X010201Y006670D01*
X010419Y006670D02*
X010601Y006670D01*
X011088Y006670D02*
X011112Y006670D01*
X009014Y002759D02*
X008771Y002759D01*
X008794Y002641D02*
X009014Y002641D01*
X009014Y002522D02*
X008794Y002522D01*
X008794Y002404D02*
X009014Y002404D01*
X008794Y001811D02*
X010347Y001811D01*
X009997Y001693D02*
X008794Y001693D01*
X008794Y001574D02*
X009528Y001574D01*
X008914Y001456D02*
X008794Y001456D01*
X015804Y005787D02*
X015804Y005787D01*
X016397Y005787D02*
X016594Y005787D01*
X016813Y005787D01*
X017000Y005600D01*
X017000Y005406D01*
X016987Y005394D01*
X017500Y005100D02*
X017500Y004856D01*
X017500Y005100D02*
X017700Y005300D01*
X019100Y005300D01*
X019600Y004800D01*
X019600Y004500D01*
X019751Y004500D01*
X019751Y004449D01*
X020600Y003600D01*
X020212Y003212D01*
X019912Y003212D01*
X019912Y003053D01*
X019954Y002647D02*
X020010Y002591D01*
X020112Y002549D01*
X020223Y002549D01*
X020325Y002591D01*
X020389Y002655D01*
X020760Y002655D01*
X020845Y002740D01*
X020845Y003421D01*
X020854Y003430D01*
X020900Y003540D01*
X020900Y003660D01*
X020854Y003770D01*
X020845Y003779D01*
X020845Y004235D01*
X020848Y004233D01*
X021405Y003967D01*
X022004Y003818D01*
X022620Y003790D01*
X022857Y003826D01*
X022852Y003826D01*
X022857Y003826D02*
X022846Y003808D01*
X022852Y003780D01*
X022777Y003438D01*
X022506Y003614D01*
X022491Y003638D01*
X022458Y003645D01*
X022429Y003664D01*
X022401Y003659D01*
X022374Y003665D01*
X022345Y003647D01*
X022311Y003639D01*
X022296Y003616D01*
X022272Y003601D01*
X022265Y003568D01*
X022246Y003539D01*
X022251Y003511D01*
X022245Y003484D01*
X022263Y003455D01*
X022271Y003421D01*
X022294Y003406D01*
X022474Y003116D01*
X022140Y003048D01*
X022110Y003054D01*
X022083Y003036D01*
X022052Y003030D01*
X022035Y003005D01*
X022010Y002988D01*
X022004Y002957D01*
X021986Y002930D01*
X021992Y002900D01*
X021986Y002870D01*
X022004Y002843D01*
X022010Y002812D01*
X022035Y002795D01*
X022052Y002770D01*
X022083Y002764D01*
X022110Y002746D01*
X022140Y002752D01*
X022471Y002684D01*
X022274Y002374D01*
X022250Y002358D01*
X022243Y002325D01*
X022225Y002297D01*
X022232Y002269D01*
X022226Y002240D01*
X022244Y002212D01*
X022252Y002180D01*
X022276Y002164D01*
X022292Y002140D01*
X022325Y002133D01*
X022353Y002115D01*
X022381Y002122D01*
X022410Y002116D01*
X022438Y002134D01*
X022470Y002142D01*
X022486Y002166D01*
X022775Y002357D01*
X022851Y002020D01*
X022845Y001994D01*
X022864Y001964D01*
X022872Y001929D01*
X022895Y001915D01*
X022909Y001892D01*
X022944Y001884D01*
X022974Y001865D01*
X022983Y001867D01*
X022302Y001565D01*
X021540Y001369D01*
X020756Y001300D01*
X020363Y001314D01*
X020339Y001316D01*
X019947Y001347D01*
X019114Y001372D01*
X018712Y001365D01*
X018697Y001365D01*
X018201Y001373D01*
X017217Y001487D01*
X016513Y001665D01*
X017040Y001665D01*
X017087Y001712D01*
X017090Y001706D01*
X017120Y001677D01*
X017156Y001656D01*
X017197Y001645D01*
X017414Y001645D01*
X017414Y002040D01*
X017534Y002040D01*
X017534Y001645D01*
X017751Y001645D01*
X017792Y001656D01*
X017828Y001677D01*
X017858Y001706D01*
X017879Y001743D01*
X017890Y001784D01*
X017890Y002040D01*
X017534Y002040D01*
X017534Y002160D01*
X017414Y002160D01*
X017414Y002446D01*
X017491Y002446D01*
X017491Y002735D01*
X017509Y002735D01*
X017509Y002446D01*
X017534Y002446D01*
X017534Y002160D01*
X017890Y002160D01*
X017890Y002416D01*
X017879Y002457D01*
X017858Y002494D01*
X017828Y002523D01*
X017818Y002529D01*
X017826Y002545D01*
X017837Y002585D01*
X017837Y002735D01*
X017509Y002735D01*
X017509Y002753D01*
X017837Y002753D01*
X017837Y002903D01*
X017826Y002944D01*
X017805Y002980D01*
X017775Y003010D01*
X017770Y003013D01*
X017817Y003060D01*
X017817Y003255D01*
X018649Y003255D01*
X018649Y003105D01*
X018577Y003105D01*
X018475Y003063D01*
X018397Y002984D01*
X018354Y002882D01*
X018354Y002771D01*
X018397Y002669D01*
X018475Y002591D01*
X018577Y002549D01*
X018688Y002549D01*
X018790Y002591D01*
X018826Y002627D01*
X018888Y002627D01*
X018888Y002718D01*
X018888Y002627D01*
X018988Y002627D01*
X019029Y002638D01*
X019044Y002647D01*
X019954Y002647D01*
X019961Y002641D02*
X019032Y002641D01*
X018888Y002641D02*
X018888Y002641D01*
X018888Y002718D02*
X018888Y002718D01*
X018653Y002518D02*
X018598Y002463D01*
X018549Y002512D01*
X018487Y002554D01*
X018418Y002582D01*
X018345Y002597D01*
X018307Y002597D01*
X018270Y002597D01*
X018197Y002582D01*
X018128Y002554D01*
X018066Y002512D01*
X018014Y002460D01*
X017972Y002398D01*
X017944Y002329D01*
X017929Y002256D01*
X017929Y002000D01*
X017929Y001744D01*
X017944Y001671D01*
X017972Y001602D01*
X018014Y001540D01*
X018066Y001488D01*
X018128Y001446D01*
X018197Y001418D01*
X018270Y001403D01*
X018307Y001403D01*
X018307Y002000D01*
X017929Y002000D01*
X018307Y002000D01*
X018307Y002000D01*
X018307Y002000D01*
X018307Y002597D01*
X018307Y002000D01*
X018307Y002000D01*
X018307Y001403D01*
X018345Y001403D01*
X018418Y001418D01*
X018487Y001446D01*
X018549Y001488D01*
X018601Y001540D01*
X018602Y001541D01*
X018653Y001490D01*
X019360Y001490D01*
X019398Y001528D01*
X019440Y001486D01*
X020147Y001486D01*
X020200Y001539D01*
X020251Y001488D01*
X020313Y001446D01*
X020382Y001418D01*
X020455Y001403D01*
X020493Y001403D01*
X020530Y001403D01*
X020603Y001418D01*
X020672Y001446D01*
X020734Y001488D01*
X020786Y001540D01*
X020828Y001602D01*
X020856Y001671D01*
X020871Y001744D01*
X020871Y002000D01*
X020871Y002256D01*
X020856Y002329D01*
X020828Y002398D01*
X020786Y002460D01*
X020734Y002512D01*
X020672Y002554D01*
X020603Y002582D01*
X020530Y002597D01*
X020493Y002597D01*
X020493Y002000D01*
X020871Y002000D01*
X020493Y002000D01*
X020493Y002000D01*
X020493Y001403D01*
X020493Y002000D01*
X020493Y002000D01*
X020493Y002000D01*
X020493Y002597D01*
X020455Y002597D01*
X020382Y002582D01*
X020313Y002554D01*
X020251Y002512D01*
X020200Y002461D01*
X020147Y002514D01*
X019440Y002514D01*
X019402Y002476D01*
X019360Y002518D01*
X018653Y002518D01*
X018534Y002522D02*
X020266Y002522D01*
X020375Y002641D02*
X022443Y002641D01*
X022368Y002522D02*
X020719Y002522D01*
X020824Y002404D02*
X022293Y002404D01*
X022228Y002285D02*
X020865Y002285D01*
X020871Y002167D02*
X022272Y002167D01*
X022486Y002167D02*
X022818Y002167D01*
X022791Y002285D02*
X022666Y002285D01*
X022845Y002048D02*
X020871Y002048D01*
X020871Y001930D02*
X022872Y001930D01*
X022856Y001811D02*
X020871Y001811D01*
X020861Y001693D02*
X022589Y001693D01*
X022322Y001574D02*
X020809Y001574D01*
X020686Y001456D02*
X021877Y001456D01*
X021179Y001337D02*
X020075Y001337D01*
X020299Y001456D02*
X018501Y001456D01*
X018307Y001456D02*
X018307Y001456D01*
X018307Y001574D02*
X018307Y001574D01*
X018307Y001693D02*
X018307Y001693D01*
X018307Y001811D02*
X018307Y001811D01*
X018307Y001930D02*
X018307Y001930D01*
X018307Y002048D02*
X018307Y002048D01*
X018307Y002167D02*
X018307Y002167D01*
X018307Y002285D02*
X018307Y002285D01*
X018307Y002404D02*
X018307Y002404D01*
X018307Y002522D02*
X018307Y002522D01*
X018425Y002641D02*
X017837Y002641D01*
X017837Y002759D02*
X018359Y002759D01*
X018354Y002878D02*
X017837Y002878D01*
X017789Y002996D02*
X018408Y002996D01*
X018649Y003115D02*
X017817Y003115D01*
X017817Y003233D02*
X018649Y003233D01*
X018888Y003053D02*
X018888Y003882D01*
X018888Y004388D01*
X018900Y004400D01*
X018870Y003900D02*
X018888Y003882D01*
X018500Y003700D02*
X018100Y004100D01*
X018100Y004600D01*
X017897Y004803D01*
X016987Y004803D01*
X016987Y004606D02*
X017000Y004594D01*
X017000Y004400D01*
X016813Y004213D01*
X016594Y004213D01*
X016397Y004213D02*
X016397Y004003D01*
X016800Y003600D01*
X017300Y003600D01*
X017500Y003400D01*
X017500Y003256D01*
X017556Y003312D01*
X017556Y004344D01*
X017009Y003247D02*
X017009Y003022D01*
X016991Y003022D01*
X016991Y003247D01*
X017009Y003247D01*
X017009Y003233D02*
X016991Y003233D01*
X016991Y003115D02*
X017009Y003115D01*
X017491Y002641D02*
X017509Y002641D01*
X017509Y002522D02*
X017491Y002522D01*
X017534Y002404D02*
X017414Y002404D01*
X017414Y002285D02*
X017534Y002285D01*
X017534Y002167D02*
X017414Y002167D01*
X017534Y002048D02*
X017929Y002048D01*
X017929Y001930D02*
X017890Y001930D01*
X017890Y001811D02*
X017929Y001811D01*
X017939Y001693D02*
X017844Y001693D01*
X017991Y001574D02*
X016872Y001574D01*
X017068Y001693D02*
X017104Y001693D01*
X017414Y001693D02*
X017534Y001693D01*
X017534Y001811D02*
X017414Y001811D01*
X017414Y001930D02*
X017534Y001930D01*
X017890Y002167D02*
X017929Y002167D01*
X017935Y002285D02*
X017890Y002285D01*
X017890Y002404D02*
X017976Y002404D01*
X018081Y002522D02*
X017829Y002522D01*
X018114Y001456D02*
X017486Y001456D01*
X020493Y001456D02*
X020493Y001456D01*
X020493Y001574D02*
X020493Y001574D01*
X020493Y001693D02*
X020493Y001693D01*
X020493Y001811D02*
X020493Y001811D01*
X020493Y001930D02*
X020493Y001930D01*
X020493Y002048D02*
X020493Y002048D01*
X020493Y002167D02*
X020493Y002167D01*
X020493Y002285D02*
X020493Y002285D01*
X020493Y002404D02*
X020493Y002404D01*
X020493Y002522D02*
X020493Y002522D01*
X020845Y002759D02*
X022090Y002759D01*
X021987Y002878D02*
X020845Y002878D01*
X020845Y002996D02*
X022022Y002996D01*
X022402Y003233D02*
X020845Y003233D01*
X020845Y003115D02*
X022465Y003115D01*
X022328Y003352D02*
X020845Y003352D01*
X020871Y003470D02*
X022254Y003470D01*
X022269Y003589D02*
X020900Y003589D01*
X020880Y003707D02*
X022836Y003707D01*
X022810Y003589D02*
X022545Y003589D01*
X022620Y003790D02*
X022620Y003790D01*
X022728Y003470D02*
X022784Y003470D01*
X023190Y003589D02*
X023478Y003589D01*
X023505Y003606D02*
X023224Y003431D01*
X023148Y003780D01*
X023154Y003808D01*
X023136Y003836D01*
X023129Y003869D01*
X023124Y003873D01*
X023442Y004059D01*
X023442Y004059D01*
X023442Y004059D01*
X023676Y004360D01*
X023782Y004726D01*
X023765Y004909D01*
X023764Y004916D01*
X023747Y005093D01*
X023747Y005093D01*
X023649Y005437D01*
X023649Y005437D01*
X023489Y005757D01*
X023384Y005896D01*
X023382Y005900D01*
X023261Y006060D01*
X023261Y006060D01*
X023261Y006060D01*
X022925Y006280D01*
X022535Y006374D01*
X022331Y006353D01*
X022346Y006369D01*
X022509Y006477D01*
X022697Y006531D01*
X022795Y006535D01*
X022972Y006520D01*
X023316Y006430D01*
X023632Y006266D01*
X023903Y006037D01*
X024018Y005901D01*
X024018Y005901D01*
X024170Y005676D01*
X024401Y005187D01*
X024528Y004661D01*
X024546Y004121D01*
X024454Y003588D01*
X024454Y003589D02*
X023739Y003589D01*
X023738Y003590D02*
X023716Y003605D01*
X023701Y003628D01*
X023667Y003636D01*
X023637Y003655D01*
X023611Y003649D01*
X023584Y003655D01*
X023554Y003636D01*
X023520Y003628D01*
X023505Y003606D01*
X023738Y003590D02*
X023746Y003556D01*
X023765Y003526D01*
X023759Y003499D01*
X023765Y003473D01*
X023746Y003443D01*
X023738Y003409D01*
X023715Y003394D01*
X023538Y003115D01*
X023880Y003048D01*
X023911Y003054D01*
X023937Y003037D01*
X023967Y003031D01*
X023984Y003004D01*
X024011Y002987D01*
X024017Y002957D01*
X024034Y002931D01*
X024028Y002900D01*
X024034Y002869D01*
X024017Y002843D01*
X024011Y002813D01*
X023984Y002796D01*
X023967Y002769D01*
X023937Y002763D01*
X023911Y002746D01*
X023880Y002752D01*
X023532Y002684D01*
X023715Y002386D01*
X023959Y002631D01*
X024255Y003084D01*
X024454Y003588D01*
X024474Y003707D02*
X023164Y003707D01*
X023143Y003826D02*
X024495Y003826D01*
X024515Y003944D02*
X023246Y003944D01*
X023444Y004063D02*
X024536Y004063D01*
X024544Y004181D02*
X023536Y004181D01*
X023629Y004300D02*
X024540Y004300D01*
X024536Y004418D02*
X023693Y004418D01*
X023676Y004360D02*
X023676Y004360D01*
X023727Y004537D02*
X024532Y004537D01*
X024528Y004655D02*
X023762Y004655D01*
X023782Y004726D02*
X023782Y004726D01*
X023778Y004774D02*
X024501Y004774D01*
X024472Y004892D02*
X023766Y004892D01*
X023755Y005011D02*
X024444Y005011D01*
X024415Y005129D02*
X023737Y005129D01*
X023703Y005248D02*
X024372Y005248D01*
X024316Y005366D02*
X023669Y005366D01*
X023625Y005485D02*
X024260Y005485D01*
X024204Y005603D02*
X023566Y005603D01*
X023507Y005722D02*
X024139Y005722D01*
X024059Y005840D02*
X023427Y005840D01*
X023489Y005757D02*
X023489Y005757D01*
X023337Y005959D02*
X023969Y005959D01*
X023856Y006077D02*
X023234Y006077D01*
X023053Y006196D02*
X023716Y006196D01*
X023540Y006314D02*
X022784Y006314D01*
X022925Y006280D02*
X022925Y006280D01*
X022795Y006535D02*
X022795Y006535D01*
X022535Y006374D02*
X022535Y006374D01*
X022442Y006433D02*
X023307Y006433D01*
X020956Y004181D02*
X020845Y004181D01*
X020848Y004233D02*
X020848Y004233D01*
X020845Y004063D02*
X021205Y004063D01*
X021405Y003967D02*
X021405Y003967D01*
X021498Y003944D02*
X020845Y003944D01*
X020845Y003826D02*
X021972Y003826D01*
X022004Y003818D02*
X022004Y003818D01*
X023216Y003470D02*
X023288Y003470D01*
X023539Y003115D02*
X024267Y003115D01*
X024314Y003233D02*
X023613Y003233D01*
X023688Y003352D02*
X024361Y003352D01*
X024407Y003470D02*
X023763Y003470D01*
X023997Y002996D02*
X024198Y002996D01*
X024120Y002878D02*
X024032Y002878D01*
X024043Y002759D02*
X023930Y002759D01*
X023965Y002641D02*
X023559Y002641D01*
X023632Y002522D02*
X023850Y002522D01*
X023732Y002404D02*
X023704Y002404D01*
X017587Y006345D02*
X017254Y006345D01*
X017254Y006391D01*
X016965Y006391D01*
X016965Y006409D01*
X017254Y006409D01*
X017254Y006533D01*
X017453Y006436D01*
X017587Y006345D01*
X017458Y006433D02*
X017254Y006433D01*
D34*
X017350Y005850D03*
X017000Y005850D03*
X016370Y005100D03*
X015960Y005090D03*
X017000Y004250D03*
X017000Y003900D03*
X016100Y003900D03*
X014450Y003550D03*
X014400Y004200D03*
X013430Y005490D03*
X013200Y005850D03*
X012030Y005590D03*
X010780Y004590D03*
X010330Y004590D03*
X009950Y003650D03*
X009950Y003150D03*
X009450Y003150D03*
X008350Y003150D03*
X008000Y003800D03*
X008000Y004200D03*
X007850Y005450D03*
X008980Y006310D03*
X010310Y006390D03*
X010550Y006750D03*
X014850Y006350D03*
X016100Y006730D03*
X019170Y004500D03*
X018870Y003900D03*
X019350Y003750D03*
X019850Y003750D03*
X020600Y003600D03*
X020500Y004240D03*
X021340Y003250D03*
X021150Y002000D03*
X021700Y002000D03*
X018500Y003700D03*
X017550Y001550D03*
X016000Y002200D03*
X015500Y002300D03*
X012130Y002870D03*
X009550Y001850D03*
X009000Y001850D03*
X006150Y003350D03*
X005600Y003350D03*
X004650Y003750D03*
X004000Y003250D03*
X006150Y004450D03*
X002400Y005400D03*
X023950Y005400D03*
D35*
X017000Y006444D02*
X016956Y006400D01*
X017000Y006444D02*
X017000Y006600D01*
X016870Y006730D01*
X016100Y006730D01*
X011191Y004556D02*
X011191Y004502D01*
X009300Y004556D02*
X009300Y004851D01*
D36*
X009300Y004556D02*
X010600Y004556D01*
X010600Y004600D01*
X004600Y002149D02*
X004600Y001700D01*
D37*
X004600Y001700D03*
X006900Y001700D03*
D38*
X007394Y002194D01*
X007394Y004057D01*
M02*
