G75*
%MOIN*%
%OFA0B0*%
%FSLAX24Y24*%
%IPPOS*%
%LPD*%
%AMOC8*
5,1,8,0,0,1.08239X$1,22.5*
%
%ADD10OC8,0.0560*%
%ADD11C,0.0740*%
%ADD12C,0.0010*%
%ADD13C,0.0320*%
%ADD14C,0.0160*%
D10*
X023083Y006643D03*
X024083Y006643D03*
X024083Y007643D03*
X023083Y007643D03*
X023083Y008643D03*
X024083Y008643D03*
X024083Y009643D03*
X023083Y009643D03*
X023083Y010643D03*
X024083Y010643D03*
X024083Y011643D03*
X023083Y011643D03*
X023083Y012643D03*
X024083Y012643D03*
X024083Y013643D03*
X023083Y013643D03*
X023083Y014643D03*
X024083Y014643D03*
X024083Y015643D03*
X023083Y015643D03*
D11*
X015333Y015393D03*
X014333Y015393D03*
X013333Y015393D03*
X013333Y016393D03*
X014333Y016393D03*
X015333Y016393D03*
X008333Y016393D03*
X007333Y016393D03*
X006333Y016393D03*
X006333Y015393D03*
X007333Y015393D03*
X008333Y015393D03*
X008333Y014393D03*
X007333Y014393D03*
X006333Y014393D03*
X006333Y013393D03*
X007333Y013393D03*
X008333Y013393D03*
X008333Y012393D03*
X007333Y012393D03*
X006333Y012393D03*
X006333Y011393D03*
X007333Y011393D03*
X008333Y011393D03*
X008333Y010393D03*
X007333Y010393D03*
X006333Y010393D03*
X006333Y009393D03*
X007333Y009393D03*
X008333Y009393D03*
X008333Y008393D03*
X007333Y008393D03*
X006333Y008393D03*
X006333Y007393D03*
X007333Y007393D03*
X008333Y007393D03*
X008333Y006393D03*
X007333Y006393D03*
X006333Y006393D03*
X006333Y005393D03*
X007333Y005393D03*
X008333Y005393D03*
X013333Y005393D03*
X014333Y005393D03*
X015333Y005393D03*
X015333Y006393D03*
X014333Y006393D03*
X013333Y006393D03*
X013333Y007393D03*
X014333Y007393D03*
X015333Y007393D03*
X015333Y008393D03*
X014333Y008393D03*
X013333Y008393D03*
X017083Y008643D03*
X015333Y009393D03*
X014333Y009393D03*
X013333Y009393D03*
X013333Y010393D03*
X014333Y010393D03*
X015333Y010393D03*
X017083Y010143D03*
X020083Y010143D03*
X015333Y011393D03*
X014333Y011393D03*
X013333Y011393D03*
X013333Y012393D03*
X014333Y012393D03*
X015333Y012393D03*
X017083Y011643D03*
X020083Y011643D03*
X020083Y013143D03*
X017083Y013143D03*
X015333Y013393D03*
X014333Y013393D03*
X013333Y013393D03*
X013333Y014393D03*
X014333Y014393D03*
X015333Y014393D03*
X020083Y008643D03*
D12*
X011693Y010893D02*
X011253Y010803D01*
X011193Y010893D01*
X011253Y010983D01*
X011693Y010893D01*
X011679Y010891D02*
X011195Y010891D01*
X011197Y010899D02*
X011665Y010899D01*
X011638Y010882D02*
X011200Y010882D01*
X011206Y010874D02*
X011596Y010874D01*
X011555Y010865D02*
X011212Y010865D01*
X011217Y010857D02*
X011513Y010857D01*
X011472Y010848D02*
X011223Y010848D01*
X011229Y010840D02*
X011430Y010840D01*
X011388Y010831D02*
X011234Y010831D01*
X011240Y010823D02*
X011347Y010823D01*
X011305Y010814D02*
X011246Y010814D01*
X011251Y010806D02*
X011264Y010806D01*
X011202Y010908D02*
X011623Y010908D01*
X011582Y010916D02*
X011208Y010916D01*
X011214Y010925D02*
X011540Y010925D01*
X011499Y010933D02*
X011219Y010933D01*
X011225Y010942D02*
X011457Y010942D01*
X011416Y010950D02*
X011231Y010950D01*
X011236Y010959D02*
X011374Y010959D01*
X011333Y010967D02*
X011242Y010967D01*
X011248Y010976D02*
X011291Y010976D01*
X011157Y011061D02*
X010497Y011061D01*
X010492Y011069D02*
X011162Y011069D01*
X011168Y011078D02*
X010486Y011078D01*
X010481Y011086D02*
X011173Y011086D01*
X011178Y011095D02*
X010475Y011095D01*
X010470Y011103D02*
X011184Y011103D01*
X011189Y011112D02*
X010465Y011112D01*
X010459Y011120D02*
X010822Y011120D01*
X010833Y011113D02*
X010223Y011493D01*
X010603Y010893D01*
X010223Y010273D01*
X010833Y010673D01*
X011453Y010263D01*
X011053Y010893D01*
X011433Y011503D01*
X010833Y011113D01*
X010843Y011120D02*
X011194Y011120D01*
X011199Y011129D02*
X010856Y011129D01*
X010869Y011137D02*
X011205Y011137D01*
X011210Y011146D02*
X010883Y011146D01*
X010896Y011154D02*
X011215Y011154D01*
X011221Y011163D02*
X010909Y011163D01*
X010922Y011171D02*
X011226Y011171D01*
X011231Y011180D02*
X010935Y011180D01*
X010948Y011188D02*
X011237Y011188D01*
X011242Y011197D02*
X010961Y011197D01*
X010974Y011205D02*
X011247Y011205D01*
X011252Y011214D02*
X010987Y011214D01*
X011000Y011222D02*
X011258Y011222D01*
X011263Y011231D02*
X011013Y011231D01*
X011026Y011239D02*
X011268Y011239D01*
X011274Y011248D02*
X011039Y011248D01*
X011053Y011256D02*
X011279Y011256D01*
X011284Y011265D02*
X011066Y011265D01*
X011079Y011273D02*
X011289Y011273D01*
X011295Y011282D02*
X011092Y011282D01*
X011105Y011290D02*
X011300Y011290D01*
X011305Y011299D02*
X011118Y011299D01*
X011131Y011307D02*
X011311Y011307D01*
X011316Y011316D02*
X011144Y011316D01*
X011157Y011324D02*
X011321Y011324D01*
X011327Y011333D02*
X011170Y011333D01*
X011183Y011341D02*
X011332Y011341D01*
X011337Y011350D02*
X011196Y011350D01*
X011209Y011358D02*
X011342Y011358D01*
X011348Y011367D02*
X011223Y011367D01*
X011236Y011375D02*
X011353Y011375D01*
X011358Y011384D02*
X011249Y011384D01*
X011262Y011392D02*
X011364Y011392D01*
X011369Y011401D02*
X011275Y011401D01*
X011288Y011409D02*
X011374Y011409D01*
X011380Y011418D02*
X011301Y011418D01*
X011314Y011426D02*
X011385Y011426D01*
X011390Y011435D02*
X011327Y011435D01*
X011340Y011443D02*
X011395Y011443D01*
X011401Y011452D02*
X011353Y011452D01*
X011366Y011460D02*
X011406Y011460D01*
X011411Y011469D02*
X011379Y011469D01*
X011393Y011477D02*
X011417Y011477D01*
X011422Y011486D02*
X011406Y011486D01*
X011419Y011494D02*
X011427Y011494D01*
X011432Y011503D02*
X011432Y011503D01*
X010916Y011392D02*
X010750Y011392D01*
X010748Y011384D02*
X010918Y011384D01*
X010920Y011375D02*
X010746Y011375D01*
X010745Y011367D02*
X010921Y011367D01*
X010923Y011358D02*
X010743Y011358D01*
X010741Y011350D02*
X010925Y011350D01*
X010927Y011341D02*
X010739Y011341D01*
X010737Y011333D02*
X010929Y011333D01*
X010931Y011324D02*
X010735Y011324D01*
X010733Y011316D02*
X010932Y011316D01*
X010933Y011313D02*
X010833Y011773D01*
X010733Y011313D01*
X010833Y011253D01*
X010933Y011313D01*
X010922Y011307D02*
X010743Y011307D01*
X010758Y011299D02*
X010908Y011299D01*
X010894Y011290D02*
X010772Y011290D01*
X010786Y011282D02*
X010880Y011282D01*
X010866Y011273D02*
X010800Y011273D01*
X010814Y011265D02*
X010852Y011265D01*
X010837Y011256D02*
X010828Y011256D01*
X010768Y011154D02*
X010438Y011154D01*
X010443Y011146D02*
X010781Y011146D01*
X010795Y011137D02*
X010449Y011137D01*
X010454Y011129D02*
X010809Y011129D01*
X010754Y011163D02*
X010432Y011163D01*
X010427Y011171D02*
X010740Y011171D01*
X010727Y011180D02*
X010422Y011180D01*
X010416Y011188D02*
X010713Y011188D01*
X010699Y011197D02*
X010411Y011197D01*
X010406Y011205D02*
X010686Y011205D01*
X010672Y011214D02*
X010400Y011214D01*
X010395Y011222D02*
X010658Y011222D01*
X010645Y011231D02*
X010389Y011231D01*
X010384Y011239D02*
X010631Y011239D01*
X010617Y011248D02*
X010379Y011248D01*
X010373Y011256D02*
X010604Y011256D01*
X010590Y011265D02*
X010368Y011265D01*
X010362Y011273D02*
X010577Y011273D01*
X010563Y011282D02*
X010357Y011282D01*
X010352Y011290D02*
X010549Y011290D01*
X010536Y011299D02*
X010346Y011299D01*
X010341Y011307D02*
X010522Y011307D01*
X010508Y011316D02*
X010336Y011316D01*
X010330Y011324D02*
X010495Y011324D01*
X010481Y011333D02*
X010325Y011333D01*
X010319Y011341D02*
X010467Y011341D01*
X010454Y011350D02*
X010314Y011350D01*
X010309Y011358D02*
X010440Y011358D01*
X010426Y011367D02*
X010303Y011367D01*
X010298Y011375D02*
X010413Y011375D01*
X010399Y011384D02*
X010292Y011384D01*
X010287Y011392D02*
X010386Y011392D01*
X010372Y011401D02*
X010282Y011401D01*
X010276Y011409D02*
X010358Y011409D01*
X010345Y011418D02*
X010271Y011418D01*
X010266Y011426D02*
X010331Y011426D01*
X010317Y011435D02*
X010260Y011435D01*
X010255Y011443D02*
X010304Y011443D01*
X010290Y011452D02*
X010249Y011452D01*
X010244Y011460D02*
X010276Y011460D01*
X010263Y011469D02*
X010239Y011469D01*
X010233Y011477D02*
X010249Y011477D01*
X010235Y011486D02*
X010228Y011486D01*
X010752Y011401D02*
X010914Y011401D01*
X010912Y011409D02*
X010754Y011409D01*
X010756Y011418D02*
X010910Y011418D01*
X010908Y011426D02*
X010757Y011426D01*
X010759Y011435D02*
X010907Y011435D01*
X010905Y011443D02*
X010761Y011443D01*
X010763Y011452D02*
X010903Y011452D01*
X010901Y011460D02*
X010765Y011460D01*
X010767Y011469D02*
X010899Y011469D01*
X010897Y011477D02*
X010769Y011477D01*
X010770Y011486D02*
X010895Y011486D01*
X010894Y011494D02*
X010772Y011494D01*
X010774Y011503D02*
X010892Y011503D01*
X010890Y011511D02*
X010776Y011511D01*
X010778Y011520D02*
X010888Y011520D01*
X010886Y011528D02*
X010780Y011528D01*
X010781Y011537D02*
X010884Y011537D01*
X010883Y011545D02*
X010783Y011545D01*
X010785Y011554D02*
X010881Y011554D01*
X010879Y011562D02*
X010787Y011562D01*
X010789Y011571D02*
X010877Y011571D01*
X010875Y011579D02*
X010791Y011579D01*
X010793Y011588D02*
X010873Y011588D01*
X010871Y011596D02*
X010794Y011596D01*
X010796Y011605D02*
X010870Y011605D01*
X010868Y011613D02*
X010798Y011613D01*
X010800Y011622D02*
X010866Y011622D01*
X010864Y011630D02*
X010802Y011630D01*
X010804Y011639D02*
X010862Y011639D01*
X010860Y011647D02*
X010805Y011647D01*
X010807Y011656D02*
X010859Y011656D01*
X010857Y011664D02*
X010809Y011664D01*
X010811Y011673D02*
X010855Y011673D01*
X010853Y011681D02*
X010813Y011681D01*
X010815Y011690D02*
X010851Y011690D01*
X010849Y011698D02*
X010817Y011698D01*
X010818Y011707D02*
X010847Y011707D01*
X010846Y011715D02*
X010820Y011715D01*
X010822Y011724D02*
X010844Y011724D01*
X010842Y011732D02*
X010824Y011732D01*
X010826Y011741D02*
X010840Y011741D01*
X010838Y011749D02*
X010828Y011749D01*
X010830Y011758D02*
X010836Y011758D01*
X010835Y011766D02*
X010831Y011766D01*
X011152Y011052D02*
X010502Y011052D01*
X010508Y011044D02*
X011147Y011044D01*
X011141Y011035D02*
X010513Y011035D01*
X010519Y011027D02*
X011136Y011027D01*
X011131Y011018D02*
X010524Y011018D01*
X010529Y011010D02*
X011125Y011010D01*
X011120Y011001D02*
X010535Y011001D01*
X010540Y010993D02*
X011115Y010993D01*
X011109Y010984D02*
X010545Y010984D01*
X010551Y010976D02*
X011104Y010976D01*
X011099Y010967D02*
X010556Y010967D01*
X010562Y010959D02*
X011094Y010959D01*
X011088Y010950D02*
X010567Y010950D01*
X010572Y010942D02*
X011083Y010942D01*
X011078Y010933D02*
X010578Y010933D01*
X010583Y010925D02*
X011072Y010925D01*
X011067Y010916D02*
X010589Y010916D01*
X010594Y010908D02*
X011062Y010908D01*
X011056Y010899D02*
X010599Y010899D01*
X010601Y010891D02*
X011055Y010891D01*
X011060Y010882D02*
X010596Y010882D01*
X010591Y010874D02*
X011066Y010874D01*
X011071Y010865D02*
X010586Y010865D01*
X010580Y010857D02*
X011076Y010857D01*
X011082Y010848D02*
X010575Y010848D01*
X010570Y010840D02*
X011087Y010840D01*
X011092Y010831D02*
X010565Y010831D01*
X010560Y010823D02*
X011098Y010823D01*
X011103Y010814D02*
X010554Y010814D01*
X010549Y010806D02*
X011109Y010806D01*
X011114Y010797D02*
X010544Y010797D01*
X010539Y010789D02*
X011119Y010789D01*
X011125Y010780D02*
X010534Y010780D01*
X010528Y010772D02*
X011130Y010772D01*
X011136Y010763D02*
X010523Y010763D01*
X010518Y010755D02*
X011141Y010755D01*
X011146Y010746D02*
X010513Y010746D01*
X010507Y010738D02*
X011152Y010738D01*
X011157Y010729D02*
X010502Y010729D01*
X010497Y010721D02*
X011163Y010721D01*
X011168Y010712D02*
X010492Y010712D01*
X010487Y010704D02*
X011173Y010704D01*
X011179Y010695D02*
X010481Y010695D01*
X010476Y010687D02*
X011184Y010687D01*
X011190Y010678D02*
X010471Y010678D01*
X010466Y010670D02*
X010827Y010670D01*
X010839Y010670D02*
X011195Y010670D01*
X011200Y010661D02*
X010852Y010661D01*
X010864Y010653D02*
X011206Y010653D01*
X011211Y010644D02*
X010877Y010644D01*
X010890Y010636D02*
X011217Y010636D01*
X011222Y010627D02*
X010903Y010627D01*
X010916Y010619D02*
X011227Y010619D01*
X011233Y010610D02*
X010929Y010610D01*
X010942Y010602D02*
X011238Y010602D01*
X011244Y010593D02*
X010954Y010593D01*
X010967Y010585D02*
X011249Y010585D01*
X011254Y010576D02*
X010980Y010576D01*
X010993Y010568D02*
X011260Y010568D01*
X011265Y010559D02*
X011006Y010559D01*
X011019Y010551D02*
X011271Y010551D01*
X011276Y010542D02*
X011031Y010542D01*
X011044Y010534D02*
X011281Y010534D01*
X011287Y010525D02*
X011057Y010525D01*
X011070Y010517D02*
X011292Y010517D01*
X011298Y010508D02*
X011083Y010508D01*
X011096Y010500D02*
X011303Y010500D01*
X011308Y010491D02*
X011109Y010491D01*
X011121Y010483D02*
X011314Y010483D01*
X011319Y010474D02*
X011134Y010474D01*
X011147Y010466D02*
X011325Y010466D01*
X011330Y010457D02*
X011160Y010457D01*
X011173Y010449D02*
X011335Y010449D01*
X011341Y010440D02*
X011186Y010440D01*
X011199Y010432D02*
X011346Y010432D01*
X011352Y010423D02*
X011211Y010423D01*
X011224Y010415D02*
X011357Y010415D01*
X011362Y010406D02*
X011237Y010406D01*
X011250Y010398D02*
X011368Y010398D01*
X011373Y010389D02*
X011263Y010389D01*
X011276Y010381D02*
X011379Y010381D01*
X011384Y010372D02*
X011289Y010372D01*
X011301Y010364D02*
X011389Y010364D01*
X011395Y010355D02*
X011314Y010355D01*
X011327Y010347D02*
X011400Y010347D01*
X011406Y010338D02*
X011340Y010338D01*
X011353Y010330D02*
X011411Y010330D01*
X011416Y010321D02*
X011366Y010321D01*
X011379Y010313D02*
X011422Y010313D01*
X011427Y010304D02*
X011391Y010304D01*
X011404Y010296D02*
X011432Y010296D01*
X011438Y010287D02*
X011417Y010287D01*
X011430Y010279D02*
X011443Y010279D01*
X011443Y010270D02*
X011449Y010270D01*
X010918Y010389D02*
X010748Y010389D01*
X010749Y010381D02*
X010916Y010381D01*
X010914Y010372D02*
X010751Y010372D01*
X010753Y010364D02*
X010913Y010364D01*
X010911Y010355D02*
X010755Y010355D01*
X010757Y010347D02*
X010909Y010347D01*
X010907Y010338D02*
X010759Y010338D01*
X010761Y010330D02*
X010905Y010330D01*
X010903Y010321D02*
X010763Y010321D01*
X010765Y010313D02*
X010901Y010313D01*
X010899Y010304D02*
X010767Y010304D01*
X010769Y010296D02*
X010897Y010296D01*
X010895Y010287D02*
X010771Y010287D01*
X010773Y010279D02*
X010893Y010279D01*
X010891Y010270D02*
X010775Y010270D01*
X010777Y010262D02*
X010889Y010262D01*
X010887Y010253D02*
X010778Y010253D01*
X010780Y010245D02*
X010885Y010245D01*
X010884Y010236D02*
X010782Y010236D01*
X010784Y010228D02*
X010882Y010228D01*
X010880Y010219D02*
X010786Y010219D01*
X010788Y010211D02*
X010878Y010211D01*
X010876Y010202D02*
X010790Y010202D01*
X010792Y010194D02*
X010874Y010194D01*
X010872Y010185D02*
X010794Y010185D01*
X010796Y010177D02*
X010870Y010177D01*
X010868Y010168D02*
X010798Y010168D01*
X010800Y010160D02*
X010866Y010160D01*
X010864Y010151D02*
X010802Y010151D01*
X010804Y010143D02*
X010862Y010143D01*
X010860Y010134D02*
X010806Y010134D01*
X010807Y010126D02*
X010858Y010126D01*
X010857Y010117D02*
X010809Y010117D01*
X010811Y010109D02*
X010855Y010109D01*
X010853Y010100D02*
X010813Y010100D01*
X010815Y010092D02*
X010851Y010092D01*
X010849Y010083D02*
X010817Y010083D01*
X010819Y010075D02*
X010847Y010075D01*
X010845Y010066D02*
X010821Y010066D01*
X010823Y010058D02*
X010843Y010058D01*
X010841Y010049D02*
X010825Y010049D01*
X010827Y010040D02*
X010839Y010040D01*
X010837Y010032D02*
X010829Y010032D01*
X010831Y010023D02*
X010835Y010023D01*
X010833Y010015D02*
X010833Y010015D01*
X010833Y010013D02*
X010933Y010453D01*
X010833Y010523D01*
X010733Y010453D01*
X010833Y010013D01*
X010746Y010398D02*
X010920Y010398D01*
X010922Y010406D02*
X010744Y010406D01*
X010742Y010415D02*
X010924Y010415D01*
X010926Y010423D02*
X010740Y010423D01*
X010738Y010432D02*
X010928Y010432D01*
X010930Y010440D02*
X010736Y010440D01*
X010734Y010449D02*
X010932Y010449D01*
X010928Y010457D02*
X010738Y010457D01*
X010750Y010466D02*
X010916Y010466D01*
X010903Y010474D02*
X010763Y010474D01*
X010775Y010483D02*
X010891Y010483D01*
X010879Y010491D02*
X010787Y010491D01*
X010799Y010500D02*
X010867Y010500D01*
X010855Y010508D02*
X010811Y010508D01*
X010823Y010517D02*
X010843Y010517D01*
X010762Y010627D02*
X010440Y010627D01*
X010445Y010636D02*
X010775Y010636D01*
X010788Y010644D02*
X010450Y010644D01*
X010455Y010653D02*
X010801Y010653D01*
X010814Y010661D02*
X010461Y010661D01*
X010435Y010619D02*
X010749Y010619D01*
X010736Y010610D02*
X010429Y010610D01*
X010424Y010602D02*
X010723Y010602D01*
X010710Y010593D02*
X010419Y010593D01*
X010414Y010585D02*
X010698Y010585D01*
X010685Y010576D02*
X010408Y010576D01*
X010403Y010568D02*
X010672Y010568D01*
X010659Y010559D02*
X010398Y010559D01*
X010393Y010551D02*
X010646Y010551D01*
X010633Y010542D02*
X010388Y010542D01*
X010382Y010534D02*
X010620Y010534D01*
X010607Y010525D02*
X010377Y010525D01*
X010372Y010517D02*
X010594Y010517D01*
X010581Y010508D02*
X010367Y010508D01*
X010362Y010500D02*
X010568Y010500D01*
X010555Y010491D02*
X010356Y010491D01*
X010351Y010483D02*
X010542Y010483D01*
X010529Y010474D02*
X010346Y010474D01*
X010341Y010466D02*
X010516Y010466D01*
X010503Y010457D02*
X010336Y010457D01*
X010330Y010449D02*
X010490Y010449D01*
X010477Y010440D02*
X010325Y010440D01*
X010320Y010432D02*
X010464Y010432D01*
X010451Y010423D02*
X010315Y010423D01*
X010309Y010415D02*
X010438Y010415D01*
X010425Y010406D02*
X010304Y010406D01*
X010299Y010398D02*
X010412Y010398D01*
X010399Y010389D02*
X010294Y010389D01*
X010289Y010381D02*
X010386Y010381D01*
X010373Y010372D02*
X010283Y010372D01*
X010278Y010364D02*
X010360Y010364D01*
X010348Y010355D02*
X010273Y010355D01*
X010268Y010347D02*
X010335Y010347D01*
X010322Y010338D02*
X010263Y010338D01*
X010257Y010330D02*
X010309Y010330D01*
X010296Y010321D02*
X010252Y010321D01*
X010247Y010313D02*
X010283Y010313D01*
X010270Y010304D02*
X010242Y010304D01*
X010237Y010296D02*
X010257Y010296D01*
X010244Y010287D02*
X010231Y010287D01*
X010231Y010279D02*
X010226Y010279D01*
X010315Y010823D02*
X010426Y010823D01*
X010431Y010831D02*
X010271Y010831D01*
X010228Y010840D02*
X010437Y010840D01*
X010443Y010848D02*
X010184Y010848D01*
X010141Y010857D02*
X010448Y010857D01*
X010454Y010865D02*
X010098Y010865D01*
X010054Y010874D02*
X010460Y010874D01*
X010465Y010882D02*
X010011Y010882D01*
X010026Y010908D02*
X010463Y010908D01*
X010458Y010916D02*
X010069Y010916D01*
X010112Y010925D02*
X010452Y010925D01*
X010446Y010933D02*
X010156Y010933D01*
X010199Y010942D02*
X010441Y010942D01*
X010435Y010950D02*
X010243Y010950D01*
X010286Y010959D02*
X010429Y010959D01*
X010424Y010967D02*
X010330Y010967D01*
X010373Y010976D02*
X010418Y010976D01*
X010413Y010983D02*
X009953Y010893D01*
X010413Y010803D01*
X010473Y010893D01*
X010413Y010983D01*
X010469Y010899D02*
X009982Y010899D01*
X009967Y010891D02*
X010471Y010891D01*
X010420Y010814D02*
X010358Y010814D01*
X010402Y010806D02*
X010414Y010806D01*
D13*
X016133Y010893D02*
X016133Y015913D01*
X015653Y016393D01*
X015333Y016393D01*
X016133Y010893D02*
X016883Y010143D01*
X017083Y010143D01*
D14*
X014333Y004843D02*
X014333Y003873D01*
X026380Y003873D01*
X026151Y004005D01*
X025945Y004212D01*
X025799Y004465D01*
X025723Y004747D01*
X025723Y005039D01*
X025799Y005322D01*
X025945Y005575D01*
X026151Y005781D01*
X026405Y005928D01*
X026687Y006003D01*
X026979Y006003D01*
X027261Y005928D01*
X027514Y005781D01*
X027721Y005575D01*
X027853Y005346D01*
X027853Y016940D01*
X027721Y016712D01*
X027514Y016505D01*
X027261Y016359D01*
X026979Y016283D01*
X026687Y016283D01*
X026405Y016359D01*
X026151Y016505D01*
X025945Y016712D01*
X025799Y016965D01*
X025723Y017247D01*
X025723Y017539D01*
X025799Y017822D01*
X025945Y018075D01*
X026151Y018281D01*
X026380Y018413D01*
X005286Y018413D01*
X005514Y018281D01*
X005721Y018075D01*
X005867Y017822D01*
X005943Y017539D01*
X005943Y017247D01*
X005867Y016965D01*
X005721Y016712D01*
X005514Y016505D01*
X005261Y016359D01*
X004979Y016283D01*
X004687Y016283D01*
X004405Y016359D01*
X004151Y016505D01*
X003945Y016712D01*
X003813Y016940D01*
X003813Y007893D01*
X006103Y007893D01*
X006021Y007927D01*
X005867Y008082D01*
X005783Y008284D01*
X005783Y008503D01*
X005867Y008705D01*
X006021Y008860D01*
X006103Y008893D01*
X006021Y008927D01*
X005867Y009082D01*
X005783Y009284D01*
X005783Y009503D01*
X005867Y009705D01*
X006021Y009860D01*
X006103Y009893D01*
X006021Y009927D01*
X005867Y010082D01*
X005783Y010284D01*
X005783Y010503D01*
X005867Y010705D01*
X006021Y010860D01*
X006103Y010893D01*
X006021Y010927D01*
X005867Y011082D01*
X005783Y011284D01*
X005783Y011503D01*
X005867Y011705D01*
X006021Y011860D01*
X006103Y011893D01*
X006021Y011927D01*
X005867Y012082D01*
X005783Y012284D01*
X005783Y012503D01*
X005867Y012705D01*
X006021Y012860D01*
X006103Y012893D01*
X006021Y012927D01*
X005867Y013082D01*
X005783Y013284D01*
X005783Y013503D01*
X005867Y013705D01*
X006021Y013860D01*
X006103Y013893D01*
X006021Y013927D01*
X005867Y014082D01*
X005783Y014284D01*
X005783Y014503D01*
X005867Y014705D01*
X006021Y014860D01*
X006103Y014893D01*
X006045Y014923D01*
X005975Y014974D01*
X005913Y015035D01*
X005863Y015105D01*
X005823Y015182D01*
X005796Y015265D01*
X005783Y015350D01*
X005783Y015373D01*
X006313Y015373D01*
X006313Y014943D01*
X006353Y014943D01*
X006353Y015373D01*
X006313Y015373D01*
X006313Y015413D01*
X005783Y015413D01*
X005783Y015437D01*
X005796Y015522D01*
X005823Y015604D01*
X005863Y015682D01*
X005913Y015752D01*
X005975Y015813D01*
X006045Y015864D01*
X006103Y015893D01*
X006021Y015927D01*
X005867Y016082D01*
X005783Y016284D01*
X005783Y016503D01*
X005867Y016705D01*
X006021Y016860D01*
X006224Y016943D01*
X006442Y016943D01*
X006644Y016860D01*
X006799Y016705D01*
X006833Y016623D01*
X006867Y016705D01*
X007021Y016860D01*
X007224Y016943D01*
X007442Y016943D01*
X007644Y016860D01*
X007799Y016705D01*
X007833Y016623D01*
X007867Y016705D01*
X008021Y016860D01*
X008224Y016943D01*
X008442Y016943D01*
X008644Y016860D01*
X008799Y016705D01*
X008883Y016503D01*
X008883Y016284D01*
X008799Y016082D01*
X008644Y015927D01*
X008563Y015893D01*
X008621Y015864D01*
X008691Y015813D01*
X008752Y015752D01*
X008803Y015682D01*
X008843Y015604D01*
X008869Y015522D01*
X008883Y015437D01*
X008883Y015413D01*
X008353Y015413D01*
X008353Y015373D01*
X008883Y015373D01*
X008883Y015350D01*
X008869Y015265D01*
X008843Y015182D01*
X008803Y015105D01*
X008752Y015035D01*
X008691Y014974D01*
X008621Y014923D01*
X008563Y014893D01*
X008644Y014860D01*
X008799Y014705D01*
X008883Y014503D01*
X008883Y014284D01*
X008799Y014082D01*
X008644Y013927D01*
X008563Y013893D01*
X008644Y013860D01*
X008799Y013705D01*
X008883Y013503D01*
X008883Y013284D01*
X008799Y013082D01*
X008644Y012927D01*
X008563Y012893D01*
X008644Y012860D01*
X008799Y012705D01*
X008883Y012503D01*
X008883Y012284D01*
X008799Y012082D01*
X008644Y011927D01*
X008563Y011893D01*
X008644Y011860D01*
X008799Y011705D01*
X008883Y011503D01*
X008883Y011284D01*
X008799Y011082D01*
X008644Y010927D01*
X008563Y010893D01*
X008644Y010860D01*
X008799Y010705D01*
X008883Y010503D01*
X008883Y010284D01*
X008799Y010082D01*
X008644Y009927D01*
X008563Y009893D01*
X008644Y009860D01*
X008799Y009705D01*
X008883Y009503D01*
X008883Y009284D01*
X008799Y009082D01*
X008644Y008927D01*
X008563Y008893D01*
X008644Y008860D01*
X008799Y008705D01*
X008883Y008503D01*
X008883Y008284D01*
X008799Y008082D01*
X008644Y007927D01*
X008563Y007893D01*
X013103Y007893D01*
X013021Y007927D01*
X012867Y008082D01*
X012783Y008284D01*
X012783Y008503D01*
X012867Y008705D01*
X013021Y008860D01*
X013103Y008893D01*
X013021Y008927D01*
X012867Y009082D01*
X012783Y009284D01*
X012783Y009503D01*
X012867Y009705D01*
X013021Y009860D01*
X013103Y009893D01*
X013021Y009927D01*
X012867Y010082D01*
X012783Y010284D01*
X012783Y010503D01*
X012867Y010705D01*
X013021Y010860D01*
X013103Y010893D01*
X013021Y010927D01*
X012867Y011082D01*
X012783Y011284D01*
X012783Y011503D01*
X012867Y011705D01*
X013021Y011860D01*
X013103Y011893D01*
X013021Y011927D01*
X012867Y012082D01*
X012783Y012284D01*
X012783Y012503D01*
X012867Y012705D01*
X013021Y012860D01*
X013103Y012893D01*
X013045Y012923D01*
X012975Y012974D01*
X012913Y013035D01*
X012863Y013105D01*
X012823Y013182D01*
X012796Y013265D01*
X012783Y013350D01*
X012783Y013373D01*
X013313Y013373D01*
X013353Y013373D01*
X013353Y012943D01*
X013313Y012943D01*
X013313Y013373D01*
X013313Y013413D01*
X012783Y013413D01*
X012783Y013437D01*
X012796Y013522D01*
X012823Y013604D01*
X012863Y013682D01*
X012913Y013752D01*
X012975Y013813D01*
X013045Y013864D01*
X013103Y013893D01*
X013021Y013927D01*
X012867Y014082D01*
X012783Y014284D01*
X012783Y014503D01*
X012867Y014705D01*
X013021Y014860D01*
X013103Y014893D01*
X013021Y014927D01*
X012867Y015082D01*
X012783Y015284D01*
X012783Y015503D01*
X012867Y015705D01*
X013021Y015860D01*
X013103Y015893D01*
X013021Y015927D01*
X012867Y016082D01*
X012783Y016284D01*
X012783Y016503D01*
X012867Y016705D01*
X013021Y016860D01*
X013224Y016943D01*
X013442Y016943D01*
X013644Y016860D01*
X013799Y016705D01*
X013833Y016623D01*
X013867Y016705D01*
X014021Y016860D01*
X014224Y016943D01*
X014442Y016943D01*
X014644Y016860D01*
X014799Y016705D01*
X014833Y016623D01*
X014867Y016705D01*
X015021Y016860D01*
X015224Y016943D01*
X015442Y016943D01*
X015644Y016860D01*
X015799Y016705D01*
X015801Y016700D01*
X015846Y016682D01*
X015941Y016586D01*
X016421Y016106D01*
X016473Y015981D01*
X016473Y011034D01*
X016861Y010647D01*
X016974Y010693D01*
X017192Y010693D01*
X017394Y010610D01*
X017549Y010455D01*
X017633Y010253D01*
X017633Y010034D01*
X017549Y009832D01*
X017394Y009677D01*
X017337Y009653D01*
X019225Y009653D01*
X019554Y009982D01*
X019533Y010034D01*
X019533Y010253D01*
X019617Y010455D01*
X019771Y010610D01*
X019974Y010693D01*
X020192Y010693D01*
X020244Y010672D01*
X021936Y012364D01*
X022031Y012403D01*
X022672Y012403D01*
X022623Y012453D01*
X022623Y012633D01*
X023073Y012633D01*
X023073Y012653D01*
X022623Y012653D01*
X022623Y012834D01*
X022892Y013103D01*
X023073Y013103D01*
X023073Y012653D01*
X023093Y012653D01*
X023543Y012653D01*
X023543Y012834D01*
X023273Y013103D01*
X023093Y013103D01*
X023093Y012653D01*
X023093Y012633D01*
X023543Y012633D01*
X023543Y012471D01*
X023623Y012551D01*
X023623Y012834D01*
X023892Y013103D01*
X024273Y013103D01*
X024543Y012834D01*
X024543Y012453D01*
X024273Y012183D01*
X023991Y012183D01*
X023911Y012103D01*
X024273Y012103D01*
X024543Y011834D01*
X024543Y011453D01*
X024273Y011183D01*
X023991Y011183D01*
X023911Y011103D01*
X024273Y011103D01*
X024543Y010834D01*
X024543Y010453D01*
X024273Y010183D01*
X023892Y010183D01*
X023623Y010453D01*
X023623Y010834D01*
X023699Y010910D01*
X023635Y010883D01*
X023493Y010883D01*
X023543Y010834D01*
X023543Y010653D01*
X023093Y010653D01*
X023093Y010633D01*
X023093Y010183D01*
X023273Y010183D01*
X023543Y010453D01*
X023543Y010633D01*
X023093Y010633D01*
X023073Y010633D01*
X023073Y010183D01*
X022892Y010183D01*
X022623Y010453D01*
X022623Y010633D01*
X023073Y010633D01*
X023073Y010653D01*
X022623Y010653D01*
X022623Y010816D01*
X020612Y008804D01*
X020633Y008753D01*
X020633Y008534D01*
X020549Y008332D01*
X020394Y008177D01*
X020192Y008093D01*
X019974Y008093D01*
X019771Y008177D01*
X019617Y008332D01*
X019533Y008534D01*
X019533Y008753D01*
X019617Y008955D01*
X019771Y009110D01*
X019974Y009193D01*
X020192Y009193D01*
X020244Y009172D01*
X022436Y011364D01*
X022531Y011403D01*
X022672Y011403D01*
X022623Y011453D01*
X022623Y011633D01*
X023073Y011633D01*
X023073Y011653D01*
X022623Y011653D01*
X022623Y011834D01*
X022672Y011883D01*
X022191Y011883D01*
X020612Y010304D01*
X020633Y010253D01*
X020633Y010034D01*
X020549Y009832D01*
X020394Y009677D01*
X020192Y009593D01*
X019974Y009593D01*
X019922Y009615D01*
X019553Y009246D01*
X019480Y009173D01*
X019385Y009133D01*
X017333Y009133D01*
X017371Y009114D01*
X017441Y009063D01*
X017502Y009002D01*
X017553Y008932D01*
X017593Y008854D01*
X017619Y008772D01*
X017633Y008687D01*
X017633Y008652D01*
X017092Y008652D01*
X017092Y008635D01*
X017633Y008635D01*
X017633Y008600D01*
X017619Y008515D01*
X017593Y008432D01*
X017553Y008355D01*
X017502Y008285D01*
X017441Y008224D01*
X017371Y008173D01*
X017294Y008134D01*
X017212Y008107D01*
X017126Y008093D01*
X017092Y008093D01*
X017092Y008635D01*
X017074Y008635D01*
X016533Y008635D01*
X016533Y008600D01*
X016546Y008515D01*
X016573Y008432D01*
X016613Y008355D01*
X016663Y008285D01*
X016725Y008224D01*
X016795Y008173D01*
X016872Y008134D01*
X016954Y008107D01*
X017040Y008093D01*
X017074Y008093D01*
X017074Y008635D01*
X017074Y008652D01*
X016533Y008652D01*
X016533Y008687D01*
X016546Y008772D01*
X016573Y008854D01*
X016613Y008932D01*
X016663Y009002D01*
X016725Y009063D01*
X016795Y009114D01*
X016833Y009133D01*
X015821Y009133D01*
X015799Y009082D01*
X015644Y008927D01*
X015563Y008893D01*
X015644Y008860D01*
X015799Y008705D01*
X015883Y008503D01*
X015883Y008311D01*
X016791Y007403D01*
X022672Y007403D01*
X022623Y007453D01*
X022623Y007633D01*
X023073Y007633D01*
X023073Y007653D01*
X022623Y007653D01*
X022623Y007834D01*
X022892Y008103D01*
X023073Y008103D01*
X023073Y007653D01*
X023093Y007653D01*
X023543Y007653D01*
X023543Y007834D01*
X023273Y008103D01*
X023093Y008103D01*
X023093Y007653D01*
X023093Y007633D01*
X023543Y007633D01*
X023543Y007471D01*
X023623Y007551D01*
X023623Y007834D01*
X023892Y008103D01*
X024273Y008103D01*
X024543Y007834D01*
X024543Y007453D01*
X024273Y007183D01*
X023991Y007183D01*
X023911Y007103D01*
X024273Y007103D01*
X024543Y006834D01*
X024543Y006453D01*
X024273Y006183D01*
X023892Y006183D01*
X023623Y006453D01*
X023623Y006834D01*
X023699Y006910D01*
X023635Y006883D01*
X023493Y006883D01*
X023543Y006834D01*
X023543Y006453D01*
X023273Y006183D01*
X022892Y006183D01*
X022623Y006453D01*
X022623Y006834D01*
X022672Y006883D01*
X016631Y006883D01*
X016536Y006923D01*
X016463Y006996D01*
X015831Y007627D01*
X015883Y007503D01*
X015883Y007284D01*
X015799Y007082D01*
X015644Y006927D01*
X015563Y006893D01*
X015644Y006860D01*
X015799Y006705D01*
X015883Y006503D01*
X015883Y006284D01*
X015799Y006082D01*
X015644Y005927D01*
X015563Y005893D01*
X015644Y005860D01*
X015799Y005705D01*
X015883Y005503D01*
X015883Y005284D01*
X015799Y005082D01*
X015644Y004927D01*
X015442Y004843D01*
X015224Y004843D01*
X015021Y004927D01*
X014867Y005082D01*
X014833Y005163D01*
X014799Y005082D01*
X014644Y004927D01*
X014442Y004843D01*
X014333Y004843D01*
X014333Y004820D02*
X025723Y004820D01*
X025723Y004978D02*
X015696Y004978D01*
X015822Y005137D02*
X025749Y005137D01*
X025792Y005295D02*
X015883Y005295D01*
X015883Y005454D02*
X025875Y005454D01*
X025982Y005612D02*
X015838Y005612D01*
X015733Y005771D02*
X026141Y005771D01*
X026411Y005929D02*
X015647Y005929D01*
X015802Y006088D02*
X027853Y006088D01*
X027853Y006246D02*
X024336Y006246D01*
X024495Y006405D02*
X027853Y006405D01*
X027853Y006563D02*
X024543Y006563D01*
X024543Y006722D02*
X027853Y006722D01*
X027853Y006880D02*
X024496Y006880D01*
X024338Y007039D02*
X027853Y007039D01*
X027853Y007197D02*
X024287Y007197D01*
X024446Y007356D02*
X027853Y007356D01*
X027853Y007514D02*
X024543Y007514D01*
X024543Y007673D02*
X027853Y007673D01*
X027853Y007831D02*
X024543Y007831D01*
X024387Y007990D02*
X027853Y007990D01*
X027853Y008148D02*
X020325Y008148D01*
X020524Y008307D02*
X022769Y008307D01*
X022892Y008183D02*
X022623Y008453D01*
X022623Y008633D01*
X023073Y008633D01*
X023093Y008633D01*
X023093Y008183D01*
X023273Y008183D01*
X023543Y008453D01*
X023543Y008633D01*
X023093Y008633D01*
X023093Y008653D01*
X023543Y008653D01*
X023543Y008834D01*
X023273Y009103D01*
X023093Y009103D01*
X023093Y008653D01*
X023073Y008653D01*
X023073Y008633D01*
X023073Y008183D01*
X022892Y008183D01*
X023073Y008307D02*
X023093Y008307D01*
X023093Y008465D02*
X023073Y008465D01*
X023073Y008624D02*
X023093Y008624D01*
X023073Y008653D02*
X022623Y008653D01*
X022623Y008834D01*
X022892Y009103D01*
X023073Y009103D01*
X023073Y008653D01*
X023073Y008782D02*
X023093Y008782D01*
X023093Y008941D02*
X023073Y008941D01*
X023073Y009099D02*
X023093Y009099D01*
X023093Y009183D02*
X023273Y009183D01*
X023543Y009453D01*
X023543Y009633D01*
X023093Y009633D01*
X023093Y009183D01*
X023073Y009183D02*
X023073Y009633D01*
X023093Y009633D01*
X023093Y009653D01*
X023543Y009653D01*
X023543Y009834D01*
X023273Y010103D01*
X023093Y010103D01*
X023093Y009653D01*
X023073Y009653D01*
X023073Y009633D01*
X022623Y009633D01*
X022623Y009453D01*
X022892Y009183D01*
X023073Y009183D01*
X023073Y009258D02*
X023093Y009258D01*
X023093Y009416D02*
X023073Y009416D01*
X023073Y009575D02*
X023093Y009575D01*
X023073Y009653D02*
X022623Y009653D01*
X022623Y009834D01*
X022892Y010103D01*
X023073Y010103D01*
X023073Y009653D01*
X023073Y009733D02*
X023093Y009733D01*
X023093Y009892D02*
X023073Y009892D01*
X023073Y010050D02*
X023093Y010050D01*
X023093Y010209D02*
X023073Y010209D01*
X023073Y010367D02*
X023093Y010367D01*
X023093Y010526D02*
X023073Y010526D01*
X022708Y010367D02*
X022175Y010367D01*
X022333Y010526D02*
X022623Y010526D01*
X022623Y010684D02*
X022492Y010684D01*
X022073Y011001D02*
X021309Y011001D01*
X021467Y011160D02*
X022232Y011160D01*
X022390Y011318D02*
X021626Y011318D01*
X021784Y011477D02*
X022623Y011477D01*
X022583Y011143D02*
X020083Y008643D01*
X020633Y008624D02*
X022623Y008624D01*
X022623Y008782D02*
X020621Y008782D01*
X020748Y008941D02*
X022730Y008941D01*
X022888Y009099D02*
X020907Y009099D01*
X021065Y009258D02*
X022818Y009258D01*
X022659Y009416D02*
X021224Y009416D01*
X021382Y009575D02*
X022623Y009575D01*
X022623Y009733D02*
X021541Y009733D01*
X021699Y009892D02*
X022681Y009892D01*
X022839Y010050D02*
X021858Y010050D01*
X022016Y010209D02*
X022867Y010209D01*
X023299Y010209D02*
X023867Y010209D01*
X023892Y010103D02*
X023623Y009834D01*
X023623Y009453D01*
X023892Y009183D01*
X024273Y009183D01*
X024543Y009453D01*
X024543Y009834D01*
X024273Y010103D01*
X023892Y010103D01*
X023839Y010050D02*
X023326Y010050D01*
X023485Y009892D02*
X023681Y009892D01*
X023623Y009733D02*
X023543Y009733D01*
X023543Y009575D02*
X023623Y009575D01*
X023659Y009416D02*
X023506Y009416D01*
X023348Y009258D02*
X023818Y009258D01*
X023892Y009103D02*
X023623Y008834D01*
X023623Y008453D01*
X023892Y008183D01*
X024273Y008183D01*
X024543Y008453D01*
X024543Y008834D01*
X024273Y009103D01*
X023892Y009103D01*
X023888Y009099D02*
X023277Y009099D01*
X023436Y008941D02*
X023730Y008941D01*
X023623Y008782D02*
X023543Y008782D01*
X023543Y008624D02*
X023623Y008624D01*
X023623Y008465D02*
X023543Y008465D01*
X023397Y008307D02*
X023769Y008307D01*
X024397Y008307D02*
X027853Y008307D01*
X027853Y008465D02*
X024543Y008465D01*
X024543Y008624D02*
X027853Y008624D01*
X027853Y008782D02*
X024543Y008782D01*
X024436Y008941D02*
X027853Y008941D01*
X027853Y009099D02*
X024277Y009099D01*
X024348Y009258D02*
X027853Y009258D01*
X027853Y009416D02*
X024506Y009416D01*
X024543Y009575D02*
X027853Y009575D01*
X027853Y009733D02*
X024543Y009733D01*
X024485Y009892D02*
X027853Y009892D01*
X027853Y010050D02*
X024326Y010050D01*
X024299Y010209D02*
X027853Y010209D01*
X027853Y010367D02*
X024457Y010367D01*
X024543Y010526D02*
X027853Y010526D01*
X027853Y010684D02*
X024543Y010684D01*
X024534Y010843D02*
X027853Y010843D01*
X027853Y011001D02*
X024375Y011001D01*
X024408Y011318D02*
X027853Y011318D01*
X027853Y011160D02*
X023967Y011160D01*
X023583Y011143D02*
X022583Y011143D01*
X023583Y011143D02*
X024083Y011643D01*
X024543Y011635D02*
X027853Y011635D01*
X027853Y011477D02*
X024543Y011477D01*
X023623Y011551D02*
X023543Y011471D01*
X023543Y011633D01*
X023093Y011633D01*
X023093Y011653D01*
X023543Y011653D01*
X023543Y011834D01*
X023493Y011883D01*
X023635Y011883D01*
X023699Y011910D01*
X023623Y011834D01*
X023623Y011551D01*
X023623Y011635D02*
X023093Y011635D01*
X023073Y011635D02*
X021943Y011635D01*
X022101Y011794D02*
X022623Y011794D01*
X022083Y012143D02*
X020083Y010143D01*
X019333Y009393D01*
X015333Y009393D01*
X015658Y008941D02*
X016619Y008941D01*
X016550Y008782D02*
X015722Y008782D01*
X015833Y008624D02*
X016533Y008624D01*
X016562Y008465D02*
X015883Y008465D01*
X015887Y008307D02*
X016648Y008307D01*
X016843Y008148D02*
X016046Y008148D01*
X016204Y007990D02*
X022779Y007990D01*
X022623Y007831D02*
X016363Y007831D01*
X016521Y007673D02*
X022623Y007673D01*
X022623Y007514D02*
X016680Y007514D01*
X016683Y007143D02*
X023583Y007143D01*
X024083Y007643D01*
X023623Y007673D02*
X023543Y007673D01*
X023543Y007831D02*
X023623Y007831D01*
X023779Y007990D02*
X023387Y007990D01*
X023093Y007990D02*
X023073Y007990D01*
X023073Y007831D02*
X023093Y007831D01*
X023093Y007673D02*
X023073Y007673D01*
X023543Y007514D02*
X023586Y007514D01*
X023669Y006880D02*
X023496Y006880D01*
X023543Y006722D02*
X023623Y006722D01*
X023623Y006563D02*
X023543Y006563D01*
X023495Y006405D02*
X023671Y006405D01*
X023829Y006246D02*
X023336Y006246D01*
X022829Y006246D02*
X015867Y006246D01*
X015883Y006405D02*
X022671Y006405D01*
X022623Y006563D02*
X015858Y006563D01*
X015782Y006722D02*
X022623Y006722D01*
X022669Y006880D02*
X015594Y006880D01*
X015756Y007039D02*
X016420Y007039D01*
X016261Y007197D02*
X015847Y007197D01*
X015883Y007356D02*
X016103Y007356D01*
X015944Y007514D02*
X015878Y007514D01*
X016683Y007143D02*
X015433Y008393D01*
X015333Y008393D01*
X017074Y008465D02*
X017092Y008465D01*
X017092Y008307D02*
X017074Y008307D01*
X017074Y008148D02*
X017092Y008148D01*
X017323Y008148D02*
X019841Y008148D01*
X019642Y008307D02*
X017518Y008307D01*
X017603Y008465D02*
X019561Y008465D01*
X019533Y008624D02*
X017633Y008624D01*
X017616Y008782D02*
X019545Y008782D01*
X019611Y008941D02*
X017547Y008941D01*
X017391Y009099D02*
X019761Y009099D01*
X019565Y009258D02*
X020330Y009258D01*
X020488Y009416D02*
X019724Y009416D01*
X019882Y009575D02*
X020647Y009575D01*
X020805Y009733D02*
X020451Y009733D01*
X020574Y009892D02*
X020964Y009892D01*
X021122Y010050D02*
X020633Y010050D01*
X020633Y010209D02*
X021281Y010209D01*
X021439Y010367D02*
X020675Y010367D01*
X020833Y010526D02*
X021598Y010526D01*
X021756Y010684D02*
X020992Y010684D01*
X021150Y010843D02*
X021915Y010843D01*
X020573Y011001D02*
X016506Y011001D01*
X016473Y011160D02*
X016820Y011160D01*
X016795Y011173D02*
X016872Y011134D01*
X016954Y011107D01*
X017040Y011093D01*
X017074Y011093D01*
X017074Y011635D01*
X016533Y011635D01*
X016533Y011600D01*
X016546Y011515D01*
X016573Y011432D01*
X016613Y011355D01*
X016663Y011285D01*
X016725Y011224D01*
X016795Y011173D01*
X016639Y011318D02*
X016473Y011318D01*
X016473Y011477D02*
X016559Y011477D01*
X016533Y011652D02*
X017074Y011652D01*
X017074Y011635D01*
X017092Y011635D01*
X017092Y011652D01*
X017633Y011652D01*
X017633Y011687D01*
X017619Y011772D01*
X017593Y011854D01*
X017553Y011932D01*
X017502Y012002D01*
X017441Y012063D01*
X017371Y012114D01*
X017294Y012153D01*
X017212Y012180D01*
X017126Y012193D01*
X017092Y012193D01*
X017092Y011652D01*
X017074Y011652D01*
X017074Y012193D01*
X017040Y012193D01*
X016954Y012180D01*
X016872Y012153D01*
X016795Y012114D01*
X016725Y012063D01*
X016663Y012002D01*
X016613Y011932D01*
X016573Y011854D01*
X016546Y011772D01*
X016533Y011687D01*
X016533Y011652D01*
X016473Y011635D02*
X017074Y011635D01*
X017092Y011635D02*
X017092Y011093D01*
X017126Y011093D01*
X017212Y011107D01*
X017294Y011134D01*
X017371Y011173D01*
X017441Y011224D01*
X017502Y011285D01*
X017553Y011355D01*
X017593Y011432D01*
X017619Y011515D01*
X017633Y011600D01*
X017633Y011635D01*
X017092Y011635D01*
X019533Y011635D01*
X019533Y011534D02*
X019533Y011753D01*
X019617Y011955D01*
X019771Y012110D01*
X019974Y012193D01*
X020192Y012193D01*
X020244Y012172D01*
X022436Y014364D01*
X022531Y014403D01*
X022672Y014403D01*
X022623Y014453D01*
X022623Y014633D01*
X023073Y014633D01*
X023073Y014653D01*
X022623Y014653D01*
X022623Y014834D01*
X022672Y014883D01*
X022191Y014883D01*
X020612Y013304D01*
X020633Y013253D01*
X020633Y013034D01*
X020549Y012832D01*
X020394Y012677D01*
X020192Y012593D01*
X019974Y012593D01*
X019771Y012677D01*
X019617Y012832D01*
X019533Y013034D01*
X019533Y013253D01*
X019617Y013455D01*
X019771Y013610D01*
X019974Y013693D01*
X020192Y013693D01*
X020244Y013672D01*
X021936Y015364D01*
X022031Y015403D01*
X022672Y015403D01*
X022623Y015453D01*
X022623Y015633D01*
X023073Y015633D01*
X023073Y015653D01*
X022623Y015653D01*
X022623Y015834D01*
X022892Y016103D01*
X023073Y016103D01*
X023073Y015653D01*
X023093Y015653D01*
X023543Y015653D01*
X023543Y015834D01*
X023273Y016103D01*
X023093Y016103D01*
X023093Y015653D01*
X023093Y015633D01*
X023543Y015633D01*
X023543Y015453D01*
X023493Y015403D01*
X023525Y015403D01*
X023623Y015501D01*
X023623Y015834D01*
X023892Y016103D01*
X024273Y016103D01*
X024543Y015834D01*
X024543Y015453D01*
X024273Y015183D01*
X024041Y015183D01*
X023961Y015103D01*
X024273Y015103D01*
X024543Y014834D01*
X024543Y014453D01*
X024273Y014183D01*
X023991Y014183D01*
X023911Y014103D01*
X024273Y014103D01*
X024543Y013834D01*
X024543Y013453D01*
X024273Y013183D01*
X023892Y013183D01*
X023623Y013453D01*
X023623Y013834D01*
X023699Y013910D01*
X023635Y013883D01*
X023493Y013883D01*
X023543Y013834D01*
X023543Y013653D01*
X023093Y013653D01*
X023093Y013633D01*
X023093Y013183D01*
X023273Y013183D01*
X023543Y013453D01*
X023543Y013633D01*
X023093Y013633D01*
X023073Y013633D01*
X023073Y013183D01*
X022892Y013183D01*
X022623Y013453D01*
X022623Y013633D01*
X023073Y013633D01*
X023073Y013653D01*
X022623Y013653D01*
X022623Y013816D01*
X020612Y011804D01*
X020633Y011753D01*
X020633Y011534D01*
X020549Y011332D01*
X020394Y011177D01*
X020192Y011093D01*
X019974Y011093D01*
X019771Y011177D01*
X019617Y011332D01*
X019533Y011534D01*
X019557Y011477D02*
X017607Y011477D01*
X017527Y011318D02*
X019630Y011318D01*
X019813Y011160D02*
X017346Y011160D01*
X017092Y011160D02*
X017074Y011160D01*
X017074Y011318D02*
X017092Y011318D01*
X017092Y011477D02*
X017074Y011477D01*
X017074Y011794D02*
X017092Y011794D01*
X017092Y011952D02*
X017074Y011952D01*
X017074Y012111D02*
X017092Y012111D01*
X017375Y012111D02*
X019774Y012111D01*
X019616Y011952D02*
X017538Y011952D01*
X017612Y011794D02*
X019550Y011794D01*
X020083Y011643D02*
X022583Y014143D01*
X023583Y014143D01*
X024083Y014643D01*
X024543Y014647D02*
X027853Y014647D01*
X027853Y014805D02*
X024543Y014805D01*
X024413Y014964D02*
X027853Y014964D01*
X027853Y015122D02*
X023980Y015122D01*
X023633Y015143D02*
X022083Y015143D01*
X020083Y013143D01*
X019699Y013537D02*
X017467Y013537D01*
X017441Y013563D02*
X017502Y013502D01*
X017553Y013432D01*
X017593Y013354D01*
X017619Y013272D01*
X017633Y013187D01*
X017633Y013152D01*
X017092Y013152D01*
X017092Y013135D01*
X017633Y013135D01*
X017633Y013100D01*
X017619Y013015D01*
X017593Y012932D01*
X017553Y012855D01*
X017502Y012785D01*
X017441Y012724D01*
X017371Y012673D01*
X017294Y012634D01*
X017212Y012607D01*
X017126Y012593D01*
X017092Y012593D01*
X017092Y013135D01*
X017074Y013135D01*
X016533Y013135D01*
X016533Y013100D01*
X016546Y013015D01*
X016573Y012932D01*
X016613Y012855D01*
X016663Y012785D01*
X016725Y012724D01*
X016795Y012673D01*
X016872Y012634D01*
X016954Y012607D01*
X017040Y012593D01*
X017074Y012593D01*
X017074Y013135D01*
X017074Y013152D01*
X016533Y013152D01*
X016533Y013187D01*
X016546Y013272D01*
X016573Y013354D01*
X016613Y013432D01*
X016663Y013502D01*
X016725Y013563D01*
X016795Y013614D01*
X016872Y013653D01*
X016954Y013680D01*
X017040Y013693D01*
X017074Y013693D01*
X017074Y013152D01*
X017092Y013152D01*
X017092Y013693D01*
X017126Y013693D01*
X017212Y013680D01*
X017294Y013653D01*
X017371Y013614D01*
X017441Y013563D01*
X017580Y013379D02*
X019585Y013379D01*
X019533Y013220D02*
X017628Y013220D01*
X017627Y013062D02*
X019533Y013062D01*
X019587Y012903D02*
X017578Y012903D01*
X017462Y012745D02*
X019704Y012745D01*
X020462Y012745D02*
X020817Y012745D01*
X020975Y012903D02*
X020579Y012903D01*
X020633Y013062D02*
X021134Y013062D01*
X021292Y013220D02*
X020633Y013220D01*
X020686Y013379D02*
X021451Y013379D01*
X021609Y013537D02*
X020845Y013537D01*
X021003Y013696D02*
X021768Y013696D01*
X021926Y013854D02*
X021162Y013854D01*
X021320Y014013D02*
X022085Y014013D01*
X022243Y014171D02*
X021479Y014171D01*
X021637Y014330D02*
X022402Y014330D01*
X022623Y014488D02*
X021796Y014488D01*
X021954Y014647D02*
X023073Y014647D01*
X023093Y014647D02*
X023623Y014647D01*
X023543Y014653D02*
X023543Y014834D01*
X023493Y014883D01*
X023672Y014883D01*
X023623Y014834D01*
X023623Y014551D01*
X023543Y014471D01*
X023543Y014633D01*
X023093Y014633D01*
X023093Y014653D01*
X023543Y014653D01*
X023543Y014805D02*
X023623Y014805D01*
X023560Y014488D02*
X023543Y014488D01*
X024420Y014330D02*
X027853Y014330D01*
X027853Y014488D02*
X024543Y014488D01*
X024364Y014013D02*
X027853Y014013D01*
X027853Y014171D02*
X023979Y014171D01*
X023643Y013854D02*
X023522Y013854D01*
X023543Y013696D02*
X023623Y013696D01*
X023623Y013537D02*
X023543Y013537D01*
X023469Y013379D02*
X023697Y013379D01*
X023855Y013220D02*
X023310Y013220D01*
X023315Y013062D02*
X023851Y013062D01*
X023692Y012903D02*
X023473Y012903D01*
X023543Y012745D02*
X023623Y012745D01*
X023623Y012586D02*
X023543Y012586D01*
X023583Y012143D02*
X024083Y012643D01*
X024543Y012586D02*
X027853Y012586D01*
X027853Y012428D02*
X024518Y012428D01*
X024359Y012269D02*
X027853Y012269D01*
X027853Y012111D02*
X023918Y012111D01*
X023583Y012143D02*
X022083Y012143D01*
X021841Y012269D02*
X021077Y012269D01*
X021235Y012428D02*
X022648Y012428D01*
X022623Y012586D02*
X021394Y012586D01*
X021552Y012745D02*
X022623Y012745D01*
X022692Y012903D02*
X021711Y012903D01*
X021869Y013062D02*
X022851Y013062D01*
X022855Y013220D02*
X022028Y013220D01*
X022186Y013379D02*
X022697Y013379D01*
X022623Y013537D02*
X022345Y013537D01*
X022503Y013696D02*
X022623Y013696D01*
X023073Y013537D02*
X023093Y013537D01*
X023093Y013379D02*
X023073Y013379D01*
X023073Y013220D02*
X023093Y013220D01*
X023093Y013062D02*
X023073Y013062D01*
X023073Y012903D02*
X023093Y012903D01*
X023093Y012745D02*
X023073Y012745D01*
X024315Y013062D02*
X027853Y013062D01*
X027853Y013220D02*
X024310Y013220D01*
X024469Y013379D02*
X027853Y013379D01*
X027853Y013537D02*
X024543Y013537D01*
X024543Y013696D02*
X027853Y013696D01*
X027853Y013854D02*
X024522Y013854D01*
X024473Y012903D02*
X027853Y012903D01*
X027853Y012745D02*
X024543Y012745D01*
X021683Y012111D02*
X020918Y012111D01*
X020760Y011952D02*
X021524Y011952D01*
X021366Y011794D02*
X020616Y011794D01*
X020633Y011635D02*
X021207Y011635D01*
X021049Y011477D02*
X020609Y011477D01*
X020536Y011318D02*
X020890Y011318D01*
X020732Y011160D02*
X020353Y011160D01*
X020415Y010843D02*
X016664Y010843D01*
X016823Y010684D02*
X016952Y010684D01*
X017214Y010684D02*
X019952Y010684D01*
X020214Y010684D02*
X020256Y010684D01*
X019688Y010526D02*
X017478Y010526D01*
X017585Y010367D02*
X019580Y010367D01*
X019533Y010209D02*
X017633Y010209D01*
X017633Y010050D02*
X019533Y010050D01*
X019464Y009892D02*
X017574Y009892D01*
X017451Y009733D02*
X019305Y009733D01*
X016775Y009099D02*
X015806Y009099D01*
X017074Y008624D02*
X017092Y008624D01*
X013008Y008941D02*
X008658Y008941D01*
X008722Y008782D02*
X012944Y008782D01*
X012833Y008624D02*
X008833Y008624D01*
X008883Y008465D02*
X012783Y008465D01*
X012783Y008307D02*
X008883Y008307D01*
X008827Y008148D02*
X012839Y008148D01*
X012959Y007990D02*
X008707Y007990D01*
X005959Y007990D02*
X003813Y007990D01*
X003813Y008148D02*
X005839Y008148D01*
X005783Y008307D02*
X003813Y008307D01*
X003813Y008465D02*
X005783Y008465D01*
X005833Y008624D02*
X003813Y008624D01*
X003813Y008782D02*
X005944Y008782D01*
X006008Y008941D02*
X003813Y008941D01*
X003813Y009099D02*
X005859Y009099D01*
X005794Y009258D02*
X003813Y009258D01*
X003813Y009416D02*
X005783Y009416D01*
X005813Y009575D02*
X003813Y009575D01*
X003813Y009733D02*
X005895Y009733D01*
X006099Y009892D02*
X003813Y009892D01*
X003813Y010050D02*
X005898Y010050D01*
X005814Y010209D02*
X003813Y010209D01*
X003813Y010367D02*
X005783Y010367D01*
X005793Y010526D02*
X003813Y010526D01*
X003813Y010684D02*
X005858Y010684D01*
X006005Y010843D02*
X003813Y010843D01*
X003813Y011001D02*
X005947Y011001D01*
X005834Y011160D02*
X003813Y011160D01*
X003813Y011318D02*
X005783Y011318D01*
X005783Y011477D02*
X003813Y011477D01*
X003813Y011635D02*
X005838Y011635D01*
X005956Y011794D02*
X003813Y011794D01*
X003813Y011952D02*
X005996Y011952D01*
X005855Y012111D02*
X003813Y012111D01*
X003813Y012269D02*
X005789Y012269D01*
X005783Y012428D02*
X003813Y012428D01*
X003813Y012586D02*
X005818Y012586D01*
X005907Y012745D02*
X003813Y012745D01*
X003813Y012903D02*
X006079Y012903D01*
X005887Y013062D02*
X003813Y013062D01*
X003813Y013220D02*
X005809Y013220D01*
X005783Y013379D02*
X003813Y013379D01*
X003813Y013537D02*
X005797Y013537D01*
X005863Y013696D02*
X003813Y013696D01*
X003813Y013854D02*
X006016Y013854D01*
X005936Y014013D02*
X003813Y014013D01*
X003813Y014171D02*
X005830Y014171D01*
X005783Y014330D02*
X003813Y014330D01*
X003813Y014488D02*
X005783Y014488D01*
X005843Y014647D02*
X003813Y014647D01*
X003813Y014805D02*
X005967Y014805D01*
X005988Y014964D02*
X003813Y014964D01*
X003813Y015122D02*
X005854Y015122D01*
X005794Y015281D02*
X003813Y015281D01*
X003813Y015439D02*
X005783Y015439D01*
X005821Y015598D02*
X003813Y015598D01*
X003813Y015756D02*
X005918Y015756D01*
X006051Y015915D02*
X003813Y015915D01*
X003813Y016073D02*
X005875Y016073D01*
X005805Y016232D02*
X003813Y016232D01*
X003813Y016390D02*
X004350Y016390D01*
X004108Y016549D02*
X003813Y016549D01*
X003813Y016707D02*
X003949Y016707D01*
X003856Y016866D02*
X003813Y016866D01*
X005316Y016390D02*
X005783Y016390D01*
X005802Y016549D02*
X005558Y016549D01*
X005717Y016707D02*
X005869Y016707D01*
X005810Y016866D02*
X006036Y016866D01*
X005883Y017024D02*
X025783Y017024D01*
X025740Y017183D02*
X005926Y017183D01*
X005943Y017341D02*
X025723Y017341D01*
X025723Y017500D02*
X005943Y017500D01*
X005911Y017658D02*
X025755Y017658D01*
X025797Y017817D02*
X005869Y017817D01*
X005779Y017975D02*
X025887Y017975D01*
X026004Y018134D02*
X005662Y018134D01*
X005496Y018292D02*
X026170Y018292D01*
X025856Y016866D02*
X015629Y016866D01*
X015797Y016707D02*
X025949Y016707D01*
X026108Y016549D02*
X015978Y016549D01*
X016137Y016390D02*
X026350Y016390D01*
X027316Y016390D02*
X027853Y016390D01*
X027853Y016232D02*
X016295Y016232D01*
X016435Y016073D02*
X022862Y016073D01*
X023073Y016073D02*
X023093Y016073D01*
X023093Y015915D02*
X023073Y015915D01*
X023073Y015756D02*
X023093Y015756D01*
X023462Y015915D02*
X023704Y015915D01*
X023623Y015756D02*
X023543Y015756D01*
X023543Y015598D02*
X023623Y015598D01*
X023561Y015439D02*
X023529Y015439D01*
X023633Y015143D02*
X024083Y015593D01*
X024083Y015643D01*
X024543Y015598D02*
X027853Y015598D01*
X027853Y015756D02*
X024543Y015756D01*
X024462Y015915D02*
X027853Y015915D01*
X027853Y016073D02*
X024303Y016073D01*
X023862Y016073D02*
X023303Y016073D01*
X022704Y015915D02*
X016473Y015915D01*
X016473Y015756D02*
X022623Y015756D01*
X022623Y015598D02*
X016473Y015598D01*
X016473Y015439D02*
X022636Y015439D01*
X021853Y015281D02*
X016473Y015281D01*
X016473Y015122D02*
X021694Y015122D01*
X021536Y014964D02*
X016473Y014964D01*
X016473Y014805D02*
X021377Y014805D01*
X021219Y014647D02*
X016473Y014647D01*
X016473Y014488D02*
X021060Y014488D01*
X020902Y014330D02*
X016473Y014330D01*
X016473Y014171D02*
X020743Y014171D01*
X020585Y014013D02*
X016473Y014013D01*
X016473Y013854D02*
X020426Y013854D01*
X020268Y013696D02*
X016473Y013696D01*
X016473Y013537D02*
X016699Y013537D01*
X016586Y013379D02*
X016473Y013379D01*
X016473Y013220D02*
X016538Y013220D01*
X016539Y013062D02*
X016473Y013062D01*
X016473Y012903D02*
X016588Y012903D01*
X016473Y012745D02*
X016704Y012745D01*
X016473Y012586D02*
X020658Y012586D01*
X020500Y012428D02*
X016473Y012428D01*
X016473Y012269D02*
X020341Y012269D01*
X023543Y011794D02*
X023623Y011794D01*
X024424Y011952D02*
X027853Y011952D01*
X027853Y011794D02*
X024543Y011794D01*
X023549Y011477D02*
X023543Y011477D01*
X023534Y010843D02*
X023632Y010843D01*
X023623Y010684D02*
X023543Y010684D01*
X023543Y010526D02*
X023623Y010526D01*
X023708Y010367D02*
X023457Y010367D01*
X022623Y008465D02*
X020605Y008465D01*
X013099Y009892D02*
X010987Y009892D01*
X010996Y009898D02*
X011006Y009941D01*
X011030Y009980D01*
X011023Y010013D01*
X011084Y010285D01*
X011318Y010131D01*
X011338Y010099D01*
X011379Y010090D01*
X011415Y010067D01*
X011451Y010074D01*
X011487Y010066D01*
X011523Y010089D01*
X011565Y010097D01*
X011585Y010128D01*
X011617Y010148D01*
X011626Y010190D01*
X011650Y010225D01*
X011642Y010262D01*
X011650Y010298D01*
X011627Y010334D01*
X011619Y010375D01*
X011588Y010396D01*
X011427Y010650D01*
X011693Y010704D01*
X011731Y010697D01*
X011765Y010719D01*
X011805Y010727D01*
X011826Y010760D01*
X011859Y010781D01*
X011867Y010821D01*
X011890Y010855D01*
X011882Y010893D01*
X011890Y010931D01*
X011867Y010965D01*
X011859Y011005D01*
X011826Y011027D01*
X011805Y011059D01*
X011765Y011067D01*
X011731Y011090D01*
X011693Y011082D01*
X011423Y011137D01*
X011568Y011371D01*
X011598Y011390D01*
X011607Y011433D01*
X011630Y011471D01*
X011622Y011505D01*
X011630Y011540D01*
X011606Y011577D01*
X011596Y011620D01*
X011566Y011639D01*
X011546Y011668D01*
X011503Y011678D01*
X011466Y011701D01*
X011431Y011693D01*
X011396Y011700D01*
X011359Y011676D01*
X011316Y011666D01*
X011298Y011636D01*
X011083Y011496D01*
X011022Y011773D01*
X011030Y011809D01*
X011007Y011845D01*
X010997Y011887D01*
X010967Y011907D01*
X010947Y011938D01*
X010905Y011947D01*
X010869Y011970D01*
X010833Y011963D01*
X010797Y011970D01*
X010761Y011947D01*
X010719Y011938D01*
X010699Y011907D01*
X010668Y011887D01*
X010659Y011845D01*
X010636Y011809D01*
X010644Y011773D01*
X010582Y011488D01*
X010357Y011628D01*
X010338Y011657D01*
X010294Y011667D01*
X010256Y011691D01*
X010222Y011683D01*
X010189Y011691D01*
X010150Y011666D01*
X010106Y011656D01*
X010088Y011627D01*
X010059Y011609D01*
X010049Y011564D01*
X010025Y011526D01*
X010033Y011493D01*
X010026Y011459D01*
X010050Y011421D01*
X010060Y011377D01*
X010089Y011359D01*
X010230Y011136D01*
X009953Y011082D01*
X009913Y011090D01*
X009881Y011068D01*
X009842Y011060D01*
X009820Y011027D01*
X009786Y011004D01*
X009779Y010966D01*
X009757Y010933D01*
X009764Y010893D01*
X009757Y010854D01*
X009779Y010821D01*
X009786Y010783D01*
X009820Y010760D01*
X009842Y010726D01*
X009881Y010719D01*
X009913Y010697D01*
X009953Y010705D01*
X010236Y010649D01*
X010087Y010405D01*
X010057Y010386D01*
X010048Y010343D01*
X010025Y010305D01*
X010033Y010270D01*
X010026Y010236D01*
X010051Y010199D01*
X010061Y010156D01*
X010091Y010137D01*
X010110Y010108D01*
X010154Y010099D01*
X010192Y010076D01*
X010226Y010084D01*
X010260Y010077D01*
X010297Y010101D01*
X010341Y010111D01*
X010359Y010141D01*
X010581Y010287D01*
X010643Y010013D01*
X010636Y009980D01*
X010660Y009941D01*
X010670Y009898D01*
X010699Y009879D01*
X010717Y009850D01*
X010761Y009840D01*
X010799Y009816D01*
X010833Y009824D01*
X010867Y009816D01*
X010905Y009840D01*
X010949Y009850D01*
X010967Y009879D01*
X010996Y009898D01*
X011031Y010050D02*
X012898Y010050D01*
X012814Y010209D02*
X011639Y010209D01*
X011621Y010367D02*
X012783Y010367D01*
X012793Y010526D02*
X011505Y010526D01*
X011594Y010684D02*
X012858Y010684D01*
X013005Y010843D02*
X011881Y010843D01*
X011860Y011001D02*
X012947Y011001D01*
X012834Y011160D02*
X011437Y011160D01*
X011536Y011318D02*
X012783Y011318D01*
X012783Y011477D02*
X011629Y011477D01*
X011571Y011635D02*
X012838Y011635D01*
X012956Y011794D02*
X011027Y011794D01*
X011052Y011635D02*
X011297Y011635D01*
X010897Y011952D02*
X012996Y011952D01*
X012855Y012111D02*
X008811Y012111D01*
X008877Y012269D02*
X012789Y012269D01*
X012783Y012428D02*
X008883Y012428D01*
X008848Y012586D02*
X012818Y012586D01*
X012907Y012745D02*
X008759Y012745D01*
X008587Y012903D02*
X013083Y012903D01*
X012894Y013062D02*
X008779Y013062D01*
X008857Y013220D02*
X012811Y013220D01*
X012801Y013537D02*
X008869Y013537D01*
X008883Y013379D02*
X013313Y013379D01*
X013313Y013413D02*
X013313Y013843D01*
X013353Y013843D01*
X013353Y013413D01*
X013783Y013413D01*
X014313Y013413D01*
X014313Y013373D01*
X014353Y013373D01*
X014353Y012943D01*
X014313Y012943D01*
X014313Y013373D01*
X013353Y013373D01*
X013353Y013413D01*
X013313Y013413D01*
X013353Y013379D02*
X014313Y013379D01*
X014313Y013413D02*
X014313Y013843D01*
X014353Y013843D01*
X014353Y013413D01*
X015313Y013413D01*
X015313Y013373D01*
X014883Y013373D01*
X014353Y013373D01*
X014353Y013413D01*
X014313Y013413D01*
X014353Y013379D02*
X015313Y013379D01*
X014353Y013537D02*
X014313Y013537D01*
X014313Y013696D02*
X014353Y013696D01*
X013353Y013696D02*
X013313Y013696D01*
X013313Y013537D02*
X013353Y013537D01*
X013353Y013220D02*
X013313Y013220D01*
X013313Y013062D02*
X013353Y013062D01*
X014313Y013062D02*
X014353Y013062D01*
X014353Y013220D02*
X014313Y013220D01*
X012873Y013696D02*
X008803Y013696D01*
X008650Y013854D02*
X013032Y013854D01*
X012936Y014013D02*
X008730Y014013D01*
X008836Y014171D02*
X012830Y014171D01*
X012783Y014330D02*
X008883Y014330D01*
X008883Y014488D02*
X012783Y014488D01*
X012843Y014647D02*
X008823Y014647D01*
X008699Y014805D02*
X012967Y014805D01*
X012985Y014964D02*
X008678Y014964D01*
X008812Y015122D02*
X012850Y015122D01*
X012784Y015281D02*
X008872Y015281D01*
X008883Y015439D02*
X012783Y015439D01*
X012822Y015598D02*
X008845Y015598D01*
X008748Y015756D02*
X012918Y015756D01*
X013051Y015915D02*
X008615Y015915D01*
X008791Y016073D02*
X012875Y016073D01*
X012805Y016232D02*
X008861Y016232D01*
X008883Y016390D02*
X012783Y016390D01*
X012802Y016549D02*
X008864Y016549D01*
X008797Y016707D02*
X012869Y016707D01*
X013036Y016866D02*
X008629Y016866D01*
X008036Y016866D02*
X007629Y016866D01*
X007797Y016707D02*
X007869Y016707D01*
X007036Y016866D02*
X006629Y016866D01*
X006797Y016707D02*
X006869Y016707D01*
X007313Y015843D02*
X007313Y015413D01*
X007313Y015373D01*
X007313Y014943D01*
X007353Y014943D01*
X007353Y015373D01*
X007313Y015373D01*
X006353Y015373D01*
X006353Y015413D01*
X006783Y015413D01*
X007313Y015413D01*
X007353Y015413D01*
X008313Y015413D01*
X008313Y015373D01*
X007783Y015373D01*
X007353Y015373D01*
X007353Y015413D01*
X007353Y015843D01*
X007313Y015843D01*
X007313Y015756D02*
X007353Y015756D01*
X007353Y015598D02*
X007313Y015598D01*
X007313Y015439D02*
X007353Y015439D01*
X007353Y015281D02*
X007313Y015281D01*
X007313Y015122D02*
X007353Y015122D01*
X007353Y014964D02*
X007313Y014964D01*
X006353Y014964D02*
X006313Y014964D01*
X006313Y015122D02*
X006353Y015122D01*
X006353Y015281D02*
X006313Y015281D01*
X006313Y015413D02*
X006313Y015843D01*
X006353Y015843D01*
X006353Y015413D01*
X006313Y015413D01*
X006313Y015439D02*
X006353Y015439D01*
X006353Y015598D02*
X006313Y015598D01*
X006313Y015756D02*
X006353Y015756D01*
X013629Y016866D02*
X014036Y016866D01*
X013869Y016707D02*
X013797Y016707D01*
X014629Y016866D02*
X015036Y016866D01*
X014869Y016707D02*
X014797Y016707D01*
X022113Y014805D02*
X022623Y014805D01*
X024371Y015281D02*
X027853Y015281D01*
X027853Y015439D02*
X024529Y015439D01*
X027558Y016549D02*
X027853Y016549D01*
X027853Y016707D02*
X027717Y016707D01*
X027810Y016866D02*
X027853Y016866D01*
X017092Y013537D02*
X017074Y013537D01*
X017074Y013379D02*
X017092Y013379D01*
X017092Y013220D02*
X017074Y013220D01*
X017074Y013062D02*
X017092Y013062D01*
X017092Y012903D02*
X017074Y012903D01*
X017074Y012745D02*
X017092Y012745D01*
X016791Y012111D02*
X016473Y012111D01*
X016473Y011952D02*
X016628Y011952D01*
X016554Y011794D02*
X016473Y011794D01*
X010769Y011952D02*
X008670Y011952D01*
X008710Y011794D02*
X010639Y011794D01*
X010614Y011635D02*
X010352Y011635D01*
X010093Y011635D02*
X008828Y011635D01*
X008883Y011477D02*
X010030Y011477D01*
X010115Y011318D02*
X008883Y011318D01*
X008832Y011160D02*
X010215Y011160D01*
X009786Y011001D02*
X008719Y011001D01*
X008661Y010843D02*
X009764Y010843D01*
X010058Y010684D02*
X008808Y010684D01*
X008873Y010526D02*
X010161Y010526D01*
X010054Y010367D02*
X008883Y010367D01*
X008852Y010209D02*
X010044Y010209D01*
X010462Y010209D02*
X010599Y010209D01*
X010635Y010050D02*
X008768Y010050D01*
X008567Y009892D02*
X010679Y009892D01*
X011067Y010209D02*
X011200Y010209D01*
X012813Y009575D02*
X008853Y009575D01*
X008883Y009416D02*
X012783Y009416D01*
X012794Y009258D02*
X008872Y009258D01*
X008806Y009099D02*
X012859Y009099D01*
X012895Y009733D02*
X008771Y009733D01*
X014822Y005137D02*
X014844Y005137D01*
X014970Y004978D02*
X014696Y004978D01*
X014333Y004661D02*
X025746Y004661D01*
X025788Y004503D02*
X014333Y004503D01*
X014333Y004344D02*
X025868Y004344D01*
X025971Y004186D02*
X014333Y004186D01*
X014333Y004027D02*
X026129Y004027D01*
X027791Y005454D02*
X027853Y005454D01*
X027853Y005612D02*
X027684Y005612D01*
X027525Y005771D02*
X027853Y005771D01*
X027853Y005929D02*
X027255Y005929D01*
M02*
