%
M48
M72
T01C0.0120
T02C0.0197
T03C0.0236
T04C0.0350
T05C0.0360
T06C0.0400
T07C0.1180
%
T01
X11950Y2533
X13900Y4883
X13500Y5283
X12500Y5233
X12500Y6483
X12150Y6633
X13300Y7133
X13750Y7283
X13900Y7733
X14800Y7233
X14800Y6633
X14150Y6633
X15300Y5683
X15300Y4883
X16700Y5683
X17500Y5283
X17900Y4883
X19850Y5683
X20900Y4733
X21350Y5583
X22150Y6533
X22650Y6533
X23200Y6533
X23750Y6533
X24250Y6533
X24200Y7233
X24650Y7283
X25700Y7233
X26250Y7233
X26800Y7233
X27500Y6733
X27950Y6733
X28400Y6733
X32700Y6683
X32700Y7733
X32700Y8683
X32700Y9883
X32700Y11033
X32700Y12183
X32700Y13233
X31800Y13633
X32700Y14033
X32350Y14583
X31050Y16183
X29950Y16183
X28750Y16183
X27550Y15133
X27450Y14633
X27200Y14483
X26500Y14483
X26100Y14483
X25500Y14033
X25850Y13633
X25600Y13333
X25850Y13083
X24650Y13283
X24400Y13683
X24050Y13683
X22700Y14083
X21450Y14333
X21450Y14833
X21400Y15333
X21800Y15333
X22200Y15333
X22000Y15683
X22600Y15733
X20850Y16133
X20150Y16133
X17750Y15283
X17400Y15283
X17050Y15283
X16000Y14933
X16100Y14383
X17900Y14283
X17900Y14583
X19050Y13883
X19400Y14183
X20100Y14133
X20350Y13833
X19550Y13483
X19100Y13083
X19250Y12733
X17900Y13233
X17450Y13233
X17450Y12883
X17450Y12533
X17800Y12483
X17800Y11833
X17350Y11683
X18750Y10833
X18450Y10633
X19050Y11083
X20550Y11033
X20900Y10733
X20550Y10433
X20900Y10133
X20550Y9833
X20900Y9533
X20550Y9233
X20900Y8933
X20550Y8633
X20900Y8383
X20350Y8033
X21900Y7633
X21900Y7183
X23250Y7283
X27200Y9833
X27550Y9833
X27900Y9833
X28900Y9433
X29150Y9633
X29400Y9833
X27750Y11033
X28100Y11283
X28500Y11883
X25750Y11683
X24650Y12133
X24450Y11733
X24100Y11733
X23750Y11583
X23400Y11583
X22350Y11383
X21450Y11683
X21450Y12033
X21500Y12683
X20900Y13233
X20900Y11333
X24050Y12533
X24400Y12533
X24400Y12883
X24050Y12883
X28250Y14483
X28550Y14683
X25500Y15033
X24500Y15433
X24500Y15883
X16500Y16133
X13250Y14183
X12900Y14483
X13700Y14033
X14250Y14033
X14200Y12233
X14200Y11883
X14850Y11733
X15200Y11733
X15550Y11733
X15200Y10833
X13300Y9833
X11950Y10283
X12450Y8933
X12450Y8433
X12900Y8133
X11750Y7633
X13750Y8733
X14500Y8733
X15450Y9333
X15900Y9583
X17900Y9583
X15550Y8183
X16000Y7883
X16700Y7833
X17750Y7233
X17900Y6833
X17450Y6433
X24650Y4133
X26500Y1633
X27700Y1633
X28850Y1633
X30000Y1633
X31050Y1633
X32700Y3183
X32700Y4383
X32700Y5533
X7600Y10133
X5800Y12133
T02
X12857Y15833
X15043Y15833
T03
X14718Y15007
X13182Y15007
T04
X30150Y14133
X31150Y14133
X31150Y13133
X30150Y13133
X30150Y12133
X31150Y12133
X31150Y11133
X30150Y11133
X30150Y10133
X31150Y10133
X31150Y9133
X30150Y9133
X30150Y8133
X31150Y8133
X31150Y7133
X30150Y7133
X30150Y6133
X31150Y6133
X31150Y5133
X30150Y5133
X30150Y4133
X31150Y4133
X31150Y3133
X30150Y3133
T05
X24150Y3533
X23150Y3533
X22150Y3533
X21150Y3533
X20150Y3533
X19150Y3533
X18150Y3533
X17150Y3533
X16150Y3533
X15150Y3533
X15150Y2533
X16150Y2533
X17150Y2533
X18150Y2533
X19150Y2533
X20150Y2533
X21150Y2533
X22150Y2533
X23150Y2533
X24150Y2533
T06
X11150Y3133
X10150Y3133
X9150Y3133
X9150Y4133
X10150Y4133
X11150Y4133
X11150Y5133
X10150Y5133
X9150Y5133
X9150Y6133
X10150Y6133
X11150Y6133
X11150Y7133
X10150Y7133
X9150Y7133
X9150Y8133
X10150Y8133
X11150Y8133
X11150Y9133
X10150Y9133
X9150Y9133
X9150Y10133
X10150Y10133
X11150Y10133
X11150Y11133
X10150Y11133
X9150Y11133
X9150Y12133
X10150Y12133
X11150Y12133
X11150Y13133
X10150Y13133
X9150Y13133
X9150Y14133
X10150Y14133
X11150Y14133
X4150Y14133
X3150Y14133
X2150Y14133
X2150Y13133
X3150Y13133
X4150Y13133
X4150Y12133
X3150Y12133
X2150Y12133
X2150Y11133
X3150Y11133
X4150Y11133
X4150Y10133
X3150Y10133
X2150Y10133
X2150Y9133
X3150Y9133
X4150Y9133
X4150Y8133
X3150Y8133
X2150Y8133
X2150Y7133
X3150Y7133
X4150Y7133
X4150Y6133
X3150Y6133
X2150Y6133
X2150Y5133
X3150Y5133
X4150Y5133
X4150Y4133
X3150Y4133
X2150Y4133
X2150Y3133
X3150Y3133
X4150Y3133
T07
X1150Y2133
X1150Y15633
X32150Y15633
X32150Y2133
M30
