G75*
%MOIN*%
%OFA0B0*%
%FSLAX24Y24*%
%IPPOS*%
%LPD*%
%AMOC8*
5,1,8,0,0,1.08239X$1,22.5*
%
%ADD10R,0.0433X0.0394*%
%ADD11R,0.0394X0.0433*%
%ADD12R,0.0551X0.0630*%
%ADD13R,0.0118X0.0472*%
%ADD14R,0.0472X0.0118*%
%ADD15R,0.0394X0.0138*%
%ADD16R,0.0157X0.0531*%
%ADD17R,0.0591X0.0748*%
%ADD18C,0.0118*%
%ADD19R,0.0945X0.0669*%
%ADD20R,0.0880X0.0480*%
%ADD21R,0.0866X0.1417*%
%ADD22R,0.0551X0.0394*%
%ADD23R,0.1000X0.1050*%
%ADD24R,0.0500X0.0300*%
%ADD25R,0.0492X0.0256*%
D10*
X012165Y007133D03*
X012835Y007133D03*
X013915Y005283D03*
X014585Y005283D03*
X015315Y005283D03*
X015985Y005283D03*
X017915Y005283D03*
X018585Y005283D03*
X020215Y005683D03*
X020885Y005683D03*
X018585Y006433D03*
X017915Y006433D03*
X016685Y008333D03*
X016015Y008333D03*
X022765Y009433D03*
X023435Y009433D03*
X023485Y011183D03*
X022815Y011183D03*
X023565Y012133D03*
X024235Y012133D03*
X024235Y013283D03*
X023565Y013283D03*
X021485Y013683D03*
X020815Y013683D03*
X018585Y013583D03*
X017915Y013583D03*
X017915Y012883D03*
X018585Y012883D03*
X022965Y015733D03*
X023635Y015733D03*
X026615Y011433D03*
X027285Y011433D03*
D11*
X027550Y013349D03*
X026950Y013349D03*
X026350Y013349D03*
X026350Y014018D03*
X026950Y014018D03*
X027550Y014018D03*
X028200Y014018D03*
X028200Y013349D03*
X028150Y015549D03*
X028150Y016218D03*
X026850Y016218D03*
X026850Y015549D03*
X025550Y015549D03*
X025550Y016218D03*
X020000Y015268D03*
X019400Y015268D03*
X019400Y014599D03*
X020000Y014599D03*
X016100Y013918D03*
X016100Y013249D03*
X016100Y012318D03*
X016754Y012300D03*
X016754Y011631D03*
X016100Y011649D03*
X016550Y010268D03*
X016550Y009599D03*
X025200Y007968D03*
X025200Y007299D03*
X016000Y015399D03*
X016000Y016068D03*
D12*
X017449Y014583D03*
X018551Y014583D03*
X020849Y014583D03*
X021951Y014583D03*
X022599Y007283D03*
X023701Y007283D03*
D13*
X021126Y007339D03*
X020930Y007339D03*
X020733Y007339D03*
X020536Y007339D03*
X020339Y007339D03*
X020142Y007339D03*
X019945Y007339D03*
X019748Y007339D03*
X019552Y007339D03*
X019355Y007339D03*
X019158Y007339D03*
X018961Y007339D03*
X018764Y007339D03*
X018567Y007339D03*
X018370Y007339D03*
X018174Y007339D03*
X018174Y011827D03*
X018370Y011827D03*
X018567Y011827D03*
X018764Y011827D03*
X018961Y011827D03*
X019158Y011827D03*
X019355Y011827D03*
X019552Y011827D03*
X019748Y011827D03*
X019945Y011827D03*
X020142Y011827D03*
X020339Y011827D03*
X020536Y011827D03*
X020733Y011827D03*
X020930Y011827D03*
X021126Y011827D03*
D14*
X021894Y011060D03*
X021894Y010863D03*
X021894Y010666D03*
X021894Y010469D03*
X021894Y010272D03*
X021894Y010075D03*
X021894Y009879D03*
X021894Y009682D03*
X021894Y009485D03*
X021894Y009288D03*
X021894Y009091D03*
X021894Y008894D03*
X021894Y008698D03*
X021894Y008501D03*
X021894Y008304D03*
X021894Y008107D03*
X017406Y008107D03*
X017406Y008304D03*
X017406Y008501D03*
X017406Y008698D03*
X017406Y008894D03*
X017406Y009091D03*
X017406Y009288D03*
X017406Y009485D03*
X017406Y009682D03*
X017406Y009879D03*
X017406Y010075D03*
X017406Y010272D03*
X017406Y010469D03*
X017406Y010666D03*
X017406Y010863D03*
X017406Y011060D03*
D15*
X025798Y011999D03*
X025798Y012255D03*
X025798Y012511D03*
X025798Y012767D03*
X028102Y012767D03*
X028102Y012511D03*
X028102Y012255D03*
X028102Y011999D03*
D16*
X014462Y014780D03*
X014206Y014780D03*
X013950Y014780D03*
X013694Y014780D03*
X013438Y014780D03*
D17*
X013556Y015829D03*
X014344Y015833D03*
D18*
X024812Y015676D02*
X025088Y015676D01*
X025088Y015400D01*
X024812Y015400D01*
X024812Y015676D01*
X024812Y015517D02*
X025088Y015517D01*
X025088Y015634D02*
X024812Y015634D01*
X024812Y016367D02*
X025088Y016367D01*
X025088Y016091D01*
X024812Y016091D01*
X024812Y016367D01*
X024812Y016208D02*
X025088Y016208D01*
X025088Y016325D02*
X024812Y016325D01*
X026112Y016367D02*
X026388Y016367D01*
X026388Y016091D01*
X026112Y016091D01*
X026112Y016367D01*
X026112Y016208D02*
X026388Y016208D01*
X026388Y016325D02*
X026112Y016325D01*
X026112Y015676D02*
X026388Y015676D01*
X026388Y015400D01*
X026112Y015400D01*
X026112Y015676D01*
X026112Y015517D02*
X026388Y015517D01*
X026388Y015634D02*
X026112Y015634D01*
X027412Y015676D02*
X027688Y015676D01*
X027688Y015400D01*
X027412Y015400D01*
X027412Y015676D01*
X027412Y015517D02*
X027688Y015517D01*
X027688Y015634D02*
X027412Y015634D01*
X027412Y016367D02*
X027688Y016367D01*
X027688Y016091D01*
X027412Y016091D01*
X027412Y016367D01*
X027412Y016208D02*
X027688Y016208D01*
X027688Y016325D02*
X027412Y016325D01*
D19*
X022550Y013462D03*
X022550Y012005D03*
D20*
X015170Y012233D03*
X015170Y013143D03*
X015170Y011323D03*
D21*
X012730Y012233D03*
D22*
X023167Y014259D03*
X024033Y014633D03*
X023167Y015007D03*
D23*
X027100Y003133D03*
D24*
X027100Y004058D03*
D25*
X016788Y006628D03*
X016788Y007238D03*
X015312Y007238D03*
X015312Y006628D03*
M02*
