G75*
%MOIN*%
%OFA0B0*%
%FSLAX24Y24*%
%IPPOS*%
%LPD*%
%AMOC8*
5,1,8,0,0,1.08239X$1,22.5*
%
%ADD10C,0.0050*%
%ADD11C,0.0040*%
%ADD12C,0.0080*%
%ADD13C,0.0220*%
%ADD14C,0.0100*%
%ADD15C,0.0060*%
%ADD16C,0.0020*%
%ADD17R,0.0300X0.0180*%
%ADD18R,0.0180X0.0300*%
%ADD19C,0.0120*%
%ADD20R,0.1000X0.0100*%
%ADD21C,0.0079*%
D10*
X014970Y005808D02*
X014970Y006059D01*
X015137Y006059D01*
X015246Y006059D02*
X015413Y006059D01*
X015330Y006059D02*
X015330Y005808D01*
X015053Y005933D02*
X014970Y005933D01*
X014945Y006158D02*
X017155Y006158D01*
X017071Y006059D02*
X016904Y006059D01*
X016987Y006059D02*
X016987Y005808D01*
X016794Y005808D02*
X016627Y005808D01*
X016627Y006059D01*
X016794Y006059D01*
X016711Y005933D02*
X016627Y005933D01*
X016518Y005892D02*
X016476Y005933D01*
X016393Y005933D01*
X016351Y005975D01*
X016351Y006017D01*
X016393Y006059D01*
X016476Y006059D01*
X016518Y006017D01*
X016518Y005892D02*
X016518Y005850D01*
X016476Y005808D01*
X016393Y005808D01*
X016351Y005850D01*
X016242Y005808D02*
X016075Y005808D01*
X016075Y006059D01*
X016242Y006059D01*
X016158Y005933D02*
X016075Y005933D01*
X015966Y005933D02*
X015924Y005892D01*
X015799Y005892D01*
X015882Y005892D02*
X015966Y005808D01*
X015966Y005933D02*
X015966Y006017D01*
X015924Y006059D01*
X015799Y006059D01*
X015799Y005808D01*
X019154Y004534D02*
X019229Y004609D01*
X019379Y004609D01*
X019454Y004534D01*
X019454Y004459D01*
X019154Y004158D01*
X019454Y004158D01*
X019615Y004233D02*
X019915Y004534D01*
X019915Y004233D01*
X019840Y004158D01*
X019690Y004158D01*
X019615Y004233D01*
X019615Y004534D01*
X019690Y004609D01*
X019840Y004609D01*
X019915Y004534D01*
X023000Y006883D02*
X023000Y007683D01*
X025225Y009603D02*
X025225Y009728D01*
X025266Y009770D01*
X025433Y009770D01*
X025475Y009728D01*
X025475Y009603D01*
X025225Y009603D01*
X025308Y009880D02*
X025225Y009963D01*
X025308Y010046D01*
X025475Y010046D01*
X025350Y010046D02*
X025350Y009880D01*
X025308Y009880D02*
X025475Y009880D01*
X025475Y010239D02*
X025225Y010239D01*
X025225Y010156D02*
X025225Y010323D01*
X025308Y010432D02*
X025225Y010515D01*
X025308Y010599D01*
X025475Y010599D01*
X025350Y010599D02*
X025350Y010432D01*
X025308Y010432D02*
X025475Y010432D01*
X025825Y010474D02*
X025866Y010432D01*
X026033Y010432D01*
X026075Y010474D01*
X026075Y010557D01*
X026033Y010599D01*
X025866Y010599D01*
X025825Y010557D01*
X025825Y010474D01*
X025866Y010323D02*
X025825Y010281D01*
X025825Y010156D01*
X026075Y010156D01*
X026075Y010281D01*
X026033Y010323D01*
X025866Y010323D01*
X024875Y010323D02*
X024875Y010156D01*
X024625Y010156D01*
X024666Y010046D02*
X024625Y010005D01*
X024625Y009921D01*
X024666Y009880D01*
X024833Y009880D01*
X024875Y009921D01*
X024875Y010005D01*
X024833Y010046D01*
X024792Y010432D02*
X024625Y010599D01*
X024625Y010432D02*
X024875Y010432D01*
X024750Y010474D02*
X024875Y010599D01*
X024275Y010557D02*
X024275Y010474D01*
X024233Y010432D01*
X024150Y010474D02*
X024108Y010432D01*
X024066Y010432D01*
X024025Y010474D01*
X024025Y010557D01*
X024066Y010599D01*
X024150Y010557D02*
X024192Y010599D01*
X024233Y010599D01*
X024275Y010557D01*
X024150Y010557D02*
X024150Y010474D01*
X024233Y010323D02*
X024275Y010281D01*
X024275Y010198D01*
X024233Y010156D01*
X024066Y010156D01*
X024025Y010198D01*
X024025Y010281D01*
X024066Y010323D01*
X024275Y011308D02*
X024442Y011308D01*
X024551Y011308D02*
X024718Y011308D01*
X024827Y011308D02*
X024827Y011559D01*
X024953Y011559D01*
X024994Y011517D01*
X024994Y011433D01*
X024953Y011392D01*
X024827Y011392D01*
X024635Y011433D02*
X024551Y011433D01*
X024551Y011308D02*
X024551Y011559D01*
X024718Y011559D01*
X024442Y011559D02*
X024275Y011559D01*
X024275Y011308D01*
X024275Y011433D02*
X024358Y011433D01*
X025104Y011392D02*
X025229Y011392D01*
X025271Y011433D01*
X025271Y011517D01*
X025229Y011559D01*
X025104Y011559D01*
X025104Y011308D01*
X025187Y011392D02*
X025271Y011308D01*
X025380Y011350D02*
X025422Y011308D01*
X025505Y011308D01*
X025547Y011350D01*
X025547Y011517D01*
X025505Y011559D01*
X025422Y011559D01*
X025380Y011517D01*
X025380Y011350D01*
X025656Y011308D02*
X025656Y011559D01*
X025740Y011475D01*
X025823Y011559D01*
X025823Y011308D01*
X023180Y011710D02*
X023180Y013757D01*
X021920Y013757D02*
X021920Y011710D01*
X021250Y014183D02*
X021250Y014983D01*
X018150Y014983D02*
X018150Y014183D01*
X024583Y014788D02*
X024583Y015059D01*
X024718Y015059D01*
X024763Y015014D01*
X024763Y014923D01*
X024718Y014878D01*
X024583Y014878D01*
X024878Y014788D02*
X024968Y014878D01*
X025058Y014788D01*
X025058Y015059D01*
X025172Y015059D02*
X025307Y015059D01*
X025352Y015014D01*
X025352Y014923D01*
X025307Y014878D01*
X025172Y014878D01*
X025172Y014788D02*
X025172Y015059D01*
X025262Y014878D02*
X025352Y014788D01*
X025736Y014833D02*
X025781Y014788D01*
X025826Y014788D01*
X025871Y014833D01*
X025871Y015059D01*
X025826Y015059D02*
X025916Y015059D01*
X026030Y015059D02*
X026211Y015059D01*
X026120Y015059D02*
X026120Y014788D01*
X026325Y014788D02*
X026325Y014968D01*
X026415Y015059D01*
X026505Y014968D01*
X026505Y014788D01*
X026620Y014833D02*
X026665Y014788D01*
X026755Y014788D01*
X026800Y014833D01*
X026800Y014923D01*
X026710Y014923D01*
X026620Y015014D02*
X026620Y014833D01*
X026505Y014923D02*
X026325Y014923D01*
X026620Y015014D02*
X026665Y015059D01*
X026755Y015059D01*
X026800Y015014D01*
X027086Y015059D02*
X027086Y014833D01*
X027131Y014788D01*
X027221Y014788D01*
X027266Y014833D01*
X027266Y015059D01*
X027380Y014968D02*
X027470Y015059D01*
X027561Y014968D01*
X027561Y014788D01*
X027675Y014788D02*
X027675Y015059D01*
X027810Y015059D01*
X027855Y015014D01*
X027855Y014923D01*
X027810Y014878D01*
X027675Y014878D01*
X027765Y014878D02*
X027855Y014788D01*
X028060Y014788D02*
X028060Y015059D01*
X027970Y015059D02*
X028150Y015059D01*
X027561Y014923D02*
X027380Y014923D01*
X027380Y014968D02*
X027380Y014788D01*
X028641Y014269D02*
X028776Y014269D01*
X028821Y014224D01*
X028821Y014178D01*
X028776Y014133D01*
X028641Y014133D01*
X028641Y013998D02*
X028641Y014269D01*
X028776Y014133D02*
X028821Y014088D01*
X028821Y014043D01*
X028776Y013998D01*
X028641Y013998D01*
X028936Y014043D02*
X028936Y014224D01*
X028981Y014269D01*
X029071Y014269D01*
X029116Y014224D01*
X029230Y014269D02*
X029411Y014269D01*
X029411Y014224D01*
X029230Y014043D01*
X029230Y013998D01*
X029116Y014043D02*
X029071Y013998D01*
X028981Y013998D01*
X028936Y014043D01*
X028981Y013269D02*
X028936Y013224D01*
X028936Y013043D01*
X028981Y012998D01*
X029071Y012998D01*
X029116Y013043D01*
X029230Y013043D02*
X029275Y012998D01*
X029365Y012998D01*
X029411Y013043D01*
X029411Y013088D01*
X029365Y013133D01*
X029230Y013133D01*
X029230Y013043D01*
X029230Y013133D02*
X029320Y013224D01*
X029411Y013269D01*
X029116Y013224D02*
X029071Y013269D01*
X028981Y013269D01*
X028821Y013224D02*
X028776Y013269D01*
X028641Y013269D01*
X028641Y012998D01*
X028776Y012998D01*
X028821Y013043D01*
X028821Y013088D01*
X028776Y013133D01*
X028641Y013133D01*
X028776Y013133D02*
X028821Y013178D01*
X028821Y013224D01*
X028776Y012319D02*
X028641Y012319D01*
X028641Y012048D01*
X028776Y012048D01*
X028821Y012093D01*
X028821Y012138D01*
X028776Y012183D01*
X028641Y012183D01*
X028776Y012183D02*
X028821Y012228D01*
X028821Y012274D01*
X028776Y012319D01*
X028936Y012274D02*
X028936Y012093D01*
X028981Y012048D01*
X029071Y012048D01*
X029116Y012093D01*
X029230Y012093D02*
X029275Y012048D01*
X029365Y012048D01*
X029411Y012093D01*
X029411Y012183D01*
X029365Y012228D01*
X029320Y012228D01*
X029230Y012183D01*
X029230Y012319D01*
X029411Y012319D01*
X029116Y012274D02*
X029071Y012319D01*
X028981Y012319D01*
X028936Y012274D01*
X028981Y011219D02*
X028936Y011174D01*
X028936Y010993D01*
X028981Y010948D01*
X029071Y010948D01*
X029116Y010993D01*
X029230Y010948D02*
X029411Y011128D01*
X029411Y011174D01*
X029365Y011219D01*
X029275Y011219D01*
X029230Y011174D01*
X029116Y011174D02*
X029071Y011219D01*
X028981Y011219D01*
X028821Y011174D02*
X028821Y011128D01*
X028776Y011083D01*
X028641Y011083D01*
X028641Y010948D02*
X028776Y010948D01*
X028821Y010993D01*
X028821Y011038D01*
X028776Y011083D01*
X028821Y011174D02*
X028776Y011219D01*
X028641Y011219D01*
X028641Y010948D01*
X029230Y010948D02*
X029411Y010948D01*
X029320Y010269D02*
X029230Y010178D01*
X029116Y010224D02*
X029071Y010269D01*
X028981Y010269D01*
X028936Y010224D01*
X028936Y010043D01*
X028981Y009998D01*
X029071Y009998D01*
X029116Y010043D01*
X029230Y009998D02*
X029411Y009998D01*
X029320Y009998D02*
X029320Y010269D01*
X028821Y010224D02*
X028821Y010178D01*
X028776Y010133D01*
X028641Y010133D01*
X028641Y009998D02*
X028641Y010269D01*
X028776Y010269D01*
X028821Y010224D01*
X028776Y010133D02*
X028821Y010088D01*
X028821Y010043D01*
X028776Y009998D01*
X028641Y009998D01*
X028641Y009269D02*
X028776Y009269D01*
X028821Y009224D01*
X028821Y009178D01*
X028776Y009133D01*
X028641Y009133D01*
X028641Y008998D02*
X028776Y008998D01*
X028821Y009043D01*
X028821Y009088D01*
X028776Y009133D01*
X028936Y009043D02*
X028936Y009224D01*
X028981Y009269D01*
X029071Y009269D01*
X029116Y009224D01*
X029230Y009224D02*
X029275Y009269D01*
X029365Y009269D01*
X029411Y009224D01*
X029230Y009043D01*
X029275Y008998D01*
X029365Y008998D01*
X029411Y009043D01*
X029411Y009224D01*
X029230Y009224D02*
X029230Y009043D01*
X029116Y009043D02*
X029071Y008998D01*
X028981Y008998D01*
X028936Y009043D01*
X028641Y008998D02*
X028641Y009269D01*
X028641Y008269D02*
X028776Y008269D01*
X028821Y008224D01*
X028821Y008178D01*
X028776Y008133D01*
X028641Y008133D01*
X028641Y007998D02*
X028776Y007998D01*
X028821Y008043D01*
X028821Y008088D01*
X028776Y008133D01*
X028641Y007998D02*
X028641Y008269D01*
X028936Y008269D02*
X029071Y008269D01*
X029116Y008224D01*
X029116Y008043D01*
X029071Y007998D01*
X028936Y007998D01*
X028936Y008269D01*
X029230Y008269D02*
X029411Y008269D01*
X029411Y008224D01*
X029230Y008043D01*
X029230Y007998D01*
X029071Y007269D02*
X028936Y007269D01*
X028936Y006998D01*
X029071Y006998D01*
X029116Y007043D01*
X029116Y007224D01*
X029071Y007269D01*
X029230Y007133D02*
X029365Y007133D01*
X029411Y007088D01*
X029411Y007043D01*
X029365Y006998D01*
X029275Y006998D01*
X029230Y007043D01*
X029230Y007133D01*
X029320Y007224D01*
X029411Y007269D01*
X028821Y007224D02*
X028821Y007178D01*
X028776Y007133D01*
X028641Y007133D01*
X028641Y006998D02*
X028776Y006998D01*
X028821Y007043D01*
X028821Y007088D01*
X028776Y007133D01*
X028821Y007224D02*
X028776Y007269D01*
X028641Y007269D01*
X028641Y006998D01*
X028641Y006269D02*
X028776Y006269D01*
X028821Y006224D01*
X028821Y006178D01*
X028776Y006133D01*
X028641Y006133D01*
X028641Y005998D02*
X028641Y006269D01*
X028776Y006133D02*
X028821Y006088D01*
X028821Y006043D01*
X028776Y005998D01*
X028641Y005998D01*
X028936Y005998D02*
X028936Y006269D01*
X029071Y006269D01*
X029116Y006224D01*
X029116Y006043D01*
X029071Y005998D01*
X028936Y005998D01*
X029230Y006043D02*
X029275Y005998D01*
X029365Y005998D01*
X029411Y006043D01*
X029411Y006133D01*
X029365Y006178D01*
X029320Y006178D01*
X029230Y006133D01*
X029230Y006269D01*
X029411Y006269D01*
X029365Y005269D02*
X029230Y005133D01*
X029411Y005133D01*
X029365Y004998D02*
X029365Y005269D01*
X029116Y005224D02*
X029071Y005269D01*
X028936Y005269D01*
X028936Y004998D01*
X029071Y004998D01*
X029116Y005043D01*
X029116Y005224D01*
X028821Y005224D02*
X028776Y005269D01*
X028641Y005269D01*
X028641Y004998D01*
X028776Y004998D01*
X028821Y005043D01*
X028821Y005088D01*
X028776Y005133D01*
X028641Y005133D01*
X028776Y005133D02*
X028821Y005178D01*
X028821Y005224D01*
X028776Y004269D02*
X028641Y004269D01*
X028641Y003998D01*
X028776Y003998D01*
X028821Y004043D01*
X028821Y004088D01*
X028776Y004133D01*
X028641Y004133D01*
X028776Y004133D02*
X028821Y004178D01*
X028821Y004224D01*
X028776Y004269D01*
X028936Y004269D02*
X029071Y004269D01*
X029116Y004224D01*
X029116Y004043D01*
X029071Y003998D01*
X028936Y003998D01*
X028936Y004269D01*
X029230Y004224D02*
X029275Y004269D01*
X029365Y004269D01*
X029411Y004224D01*
X029411Y004178D01*
X029365Y004133D01*
X029411Y004088D01*
X029411Y004043D01*
X029365Y003998D01*
X029275Y003998D01*
X029230Y004043D01*
X029320Y004133D02*
X029365Y004133D01*
X029365Y003269D02*
X029275Y003269D01*
X029230Y003224D01*
X029116Y003224D02*
X029071Y003269D01*
X028936Y003269D01*
X028936Y002998D01*
X029071Y002998D01*
X029116Y003043D01*
X029116Y003224D01*
X029230Y002998D02*
X029411Y003178D01*
X029411Y003224D01*
X029365Y003269D01*
X029411Y002998D02*
X029230Y002998D01*
X028821Y003043D02*
X028776Y002998D01*
X028641Y002998D01*
X028641Y003269D01*
X028776Y003269D01*
X028821Y003224D01*
X028821Y003178D01*
X028776Y003133D01*
X028641Y003133D01*
X028776Y003133D02*
X028821Y003088D01*
X028821Y003043D01*
X031875Y004998D02*
X031875Y005178D01*
X031965Y005269D01*
X032055Y005178D01*
X032055Y004998D01*
X032170Y005043D02*
X032215Y004998D01*
X032305Y004998D01*
X032350Y005043D01*
X032464Y005043D02*
X032464Y004998D01*
X032464Y005043D02*
X032644Y005224D01*
X032644Y005269D01*
X032464Y005269D01*
X032350Y005224D02*
X032305Y005269D01*
X032215Y005269D01*
X032170Y005224D01*
X032170Y005043D01*
X032055Y005133D02*
X031875Y005133D01*
X031875Y005998D02*
X031875Y006178D01*
X031965Y006269D01*
X032055Y006178D01*
X032055Y005998D01*
X032170Y006043D02*
X032215Y005998D01*
X032305Y005998D01*
X032350Y006043D01*
X032464Y006043D02*
X032509Y005998D01*
X032599Y005998D01*
X032644Y006043D01*
X032644Y006088D01*
X032599Y006133D01*
X032464Y006133D01*
X032464Y006043D01*
X032464Y006133D02*
X032554Y006224D01*
X032644Y006269D01*
X032350Y006224D02*
X032305Y006269D01*
X032215Y006269D01*
X032170Y006224D01*
X032170Y006043D01*
X032055Y006133D02*
X031875Y006133D01*
X031825Y006998D02*
X031825Y007178D01*
X031915Y007269D01*
X032005Y007178D01*
X032005Y006998D01*
X032120Y007043D02*
X032165Y006998D01*
X032255Y006998D01*
X032300Y007043D01*
X032414Y007043D02*
X032459Y006998D01*
X032549Y006998D01*
X032594Y007043D01*
X032594Y007133D01*
X032549Y007178D01*
X032504Y007178D01*
X032414Y007133D01*
X032414Y007269D01*
X032594Y007269D01*
X032300Y007224D02*
X032255Y007269D01*
X032165Y007269D01*
X032120Y007224D01*
X032120Y007043D01*
X032005Y007133D02*
X031825Y007133D01*
X031825Y007998D02*
X031825Y008178D01*
X031915Y008269D01*
X032005Y008178D01*
X032005Y007998D01*
X032120Y008043D02*
X032165Y007998D01*
X032255Y007998D01*
X032300Y008043D01*
X032414Y008133D02*
X032549Y008269D01*
X032549Y007998D01*
X032594Y008133D02*
X032414Y008133D01*
X032300Y008224D02*
X032255Y008269D01*
X032165Y008269D01*
X032120Y008224D01*
X032120Y008043D01*
X032005Y008133D02*
X031825Y008133D01*
X031825Y008998D02*
X031825Y009178D01*
X031915Y009269D01*
X032005Y009178D01*
X032005Y008998D01*
X032120Y009043D02*
X032165Y008998D01*
X032255Y008998D01*
X032300Y009043D01*
X032414Y009043D02*
X032459Y008998D01*
X032549Y008998D01*
X032594Y009043D01*
X032594Y009088D01*
X032549Y009133D01*
X032504Y009133D01*
X032549Y009133D02*
X032594Y009178D01*
X032594Y009224D01*
X032549Y009269D01*
X032459Y009269D01*
X032414Y009224D01*
X032300Y009224D02*
X032255Y009269D01*
X032165Y009269D01*
X032120Y009224D01*
X032120Y009043D01*
X032005Y009133D02*
X031825Y009133D01*
X031825Y009998D02*
X031825Y010178D01*
X031915Y010269D01*
X032005Y010178D01*
X032005Y009998D01*
X032120Y010043D02*
X032165Y009998D01*
X032255Y009998D01*
X032300Y010043D01*
X032414Y009998D02*
X032594Y010178D01*
X032594Y010224D01*
X032549Y010269D01*
X032459Y010269D01*
X032414Y010224D01*
X032300Y010224D02*
X032255Y010269D01*
X032165Y010269D01*
X032120Y010224D01*
X032120Y010043D01*
X032005Y010133D02*
X031825Y010133D01*
X032414Y009998D02*
X032594Y009998D01*
X032549Y010998D02*
X032459Y010998D01*
X032414Y011043D01*
X032594Y011224D01*
X032594Y011043D01*
X032549Y010998D01*
X032414Y011043D02*
X032414Y011224D01*
X032459Y011269D01*
X032549Y011269D01*
X032594Y011224D01*
X032300Y011224D02*
X032255Y011269D01*
X032165Y011269D01*
X032120Y011224D01*
X032120Y011043D01*
X032165Y010998D01*
X032255Y010998D01*
X032300Y011043D01*
X032005Y010998D02*
X032005Y011178D01*
X031915Y011269D01*
X031825Y011178D01*
X031825Y010998D01*
X031825Y011133D02*
X032005Y011133D01*
X032005Y012048D02*
X032005Y012228D01*
X031915Y012319D01*
X031825Y012228D01*
X031825Y012048D01*
X031825Y012183D02*
X032005Y012183D01*
X032120Y012048D02*
X032255Y012048D01*
X032300Y012093D01*
X032300Y012274D01*
X032255Y012319D01*
X032120Y012319D01*
X032120Y012048D01*
X032414Y012093D02*
X032459Y012048D01*
X032549Y012048D01*
X032594Y012093D01*
X032594Y012138D01*
X032549Y012183D01*
X032414Y012183D01*
X032414Y012093D01*
X032414Y012183D02*
X032504Y012274D01*
X032594Y012319D01*
X032549Y012998D02*
X032459Y012998D01*
X032414Y013043D01*
X032414Y013133D02*
X032504Y013178D01*
X032549Y013178D01*
X032594Y013133D01*
X032594Y013043D01*
X032549Y012998D01*
X032414Y013133D02*
X032414Y013269D01*
X032594Y013269D01*
X032300Y013224D02*
X032255Y013269D01*
X032120Y013269D01*
X032120Y012998D01*
X032255Y012998D01*
X032300Y013043D01*
X032300Y013224D01*
X032005Y013178D02*
X032005Y012998D01*
X032005Y013133D02*
X031825Y013133D01*
X031825Y013178D02*
X031915Y013269D01*
X032005Y013178D01*
X031825Y013178D02*
X031825Y012998D01*
X031825Y013998D02*
X031825Y014178D01*
X031915Y014269D01*
X032005Y014178D01*
X032005Y013998D01*
X032120Y013998D02*
X032255Y013998D01*
X032300Y014043D01*
X032300Y014224D01*
X032255Y014269D01*
X032120Y014269D01*
X032120Y013998D01*
X032005Y014133D02*
X031825Y014133D01*
X032414Y014133D02*
X032594Y014133D01*
X032549Y013998D02*
X032549Y014269D01*
X032414Y014133D01*
X024878Y014788D02*
X024878Y015059D01*
X005368Y010609D02*
X005201Y010358D01*
X005092Y010358D02*
X005008Y010442D01*
X005050Y010442D02*
X004925Y010442D01*
X004925Y010358D02*
X004925Y010609D01*
X005050Y010609D01*
X005092Y010567D01*
X005092Y010483D01*
X005050Y010442D01*
X005201Y010609D02*
X005368Y010358D01*
X005318Y012658D02*
X005151Y012909D01*
X005042Y012909D02*
X004875Y012909D01*
X004958Y012909D02*
X004958Y012658D01*
X005151Y012658D02*
X005318Y012909D01*
X024715Y003609D02*
X024865Y003759D01*
X024865Y003308D01*
X024715Y003308D02*
X025015Y003308D01*
X024940Y002759D02*
X024790Y002759D01*
X024715Y002684D01*
X024940Y002759D02*
X025015Y002684D01*
X025015Y002609D01*
X024715Y002308D01*
X025015Y002308D01*
D11*
X031770Y003103D02*
X031810Y003063D01*
X031890Y003063D01*
X031930Y003103D01*
X031930Y003143D01*
X031890Y003183D01*
X031810Y003183D01*
X031770Y003223D01*
X031770Y003264D01*
X031810Y003304D01*
X031890Y003304D01*
X031930Y003264D01*
X032028Y003264D02*
X032028Y003223D01*
X032068Y003183D01*
X032148Y003183D01*
X032188Y003143D01*
X032188Y003103D01*
X032148Y003063D01*
X032068Y003063D01*
X032028Y003103D01*
X032028Y003264D02*
X032068Y003304D01*
X032148Y003304D01*
X032188Y003264D01*
X032286Y003304D02*
X032446Y003063D01*
X032446Y003304D01*
X032543Y003304D02*
X032664Y003304D01*
X032704Y003264D01*
X032704Y003183D01*
X032664Y003143D01*
X032543Y003143D01*
X032543Y003063D02*
X032543Y003304D01*
X032286Y003304D02*
X032286Y003063D01*
X032801Y003063D02*
X032921Y003063D01*
X032961Y003103D01*
X032961Y003264D01*
X032921Y003304D01*
X032801Y003304D01*
X032801Y003063D01*
X033039Y003383D02*
X031750Y003383D01*
X031770Y004013D02*
X031770Y004254D01*
X031890Y004254D01*
X031930Y004214D01*
X031930Y004133D01*
X031890Y004093D01*
X031770Y004093D01*
X031750Y004333D02*
X033039Y004333D01*
X032961Y004254D02*
X032961Y004013D01*
X032801Y004254D01*
X032801Y004013D01*
X032704Y004013D02*
X032543Y004013D01*
X032543Y004254D01*
X032704Y004254D01*
X032624Y004133D02*
X032543Y004133D01*
X032446Y004133D02*
X032406Y004093D01*
X032286Y004093D01*
X032286Y004013D02*
X032286Y004254D01*
X032406Y004254D01*
X032446Y004214D01*
X032446Y004133D01*
X032366Y004093D02*
X032446Y004013D01*
X032188Y004013D02*
X032188Y004254D01*
X032028Y004254D02*
X032028Y004013D01*
X032108Y004093D01*
X032188Y004013D01*
D12*
X031650Y002633D02*
X029650Y002633D01*
X029650Y014633D01*
X031650Y014633D01*
X031650Y002633D01*
X024134Y006811D02*
X023544Y006811D01*
X024134Y006811D02*
X024134Y007756D01*
X023544Y007756D01*
X022756Y007756D02*
X022323Y007756D01*
X022166Y007598D01*
X022166Y006968D01*
X022323Y006811D01*
X022756Y006811D01*
X021540Y007851D02*
X021382Y007694D01*
X017918Y007694D01*
X017760Y007851D01*
X017760Y011316D01*
X017918Y011473D01*
X021382Y011473D01*
X021540Y011316D01*
X021540Y007851D01*
X024000Y011233D02*
X026100Y011233D01*
X022384Y014111D02*
X021794Y014111D01*
X022384Y014111D02*
X022384Y015056D01*
X021794Y015056D01*
X021006Y015056D02*
X020573Y015056D01*
X020416Y014898D01*
X020416Y014268D01*
X020573Y014111D01*
X021006Y014111D01*
X018984Y014268D02*
X018827Y014111D01*
X018394Y014111D01*
X018984Y014268D02*
X018984Y014898D01*
X018827Y015056D01*
X018394Y015056D01*
X017606Y015056D02*
X017016Y015056D01*
X017016Y014111D01*
X017606Y014111D01*
X015289Y014751D02*
X014816Y014751D01*
X014816Y015302D01*
X013084Y015302D01*
X013084Y014751D01*
X012611Y014751D01*
X012611Y015381D01*
X012611Y016444D02*
X015289Y016444D01*
X015289Y015381D02*
X015289Y014751D01*
X014650Y013523D02*
X013250Y013523D01*
X013250Y010943D01*
X014650Y010943D01*
X014650Y013523D01*
X010650Y014633D02*
X010650Y002633D01*
X009650Y002633D01*
X009650Y014633D01*
X010650Y014633D01*
X005475Y012533D02*
X004825Y012533D01*
X004808Y012531D01*
X004791Y012527D01*
X004775Y012520D01*
X004761Y012510D01*
X004748Y012497D01*
X004738Y012483D01*
X004731Y012467D01*
X004727Y012450D01*
X004725Y012433D01*
X005475Y012533D02*
X005492Y012531D01*
X005509Y012527D01*
X005525Y012520D01*
X005539Y012510D01*
X005552Y012497D01*
X005562Y012483D01*
X005569Y012467D01*
X005573Y012450D01*
X005575Y012433D01*
X005575Y011833D02*
X005573Y011816D01*
X005569Y011799D01*
X005562Y011783D01*
X005552Y011769D01*
X005539Y011756D01*
X005525Y011746D01*
X005509Y011739D01*
X005492Y011735D01*
X005475Y011733D01*
X004825Y011733D01*
X004808Y011735D01*
X004791Y011739D01*
X004775Y011746D01*
X004761Y011756D01*
X004748Y011769D01*
X004738Y011783D01*
X004731Y011799D01*
X004727Y011816D01*
X004725Y011833D01*
X004825Y011533D02*
X005475Y011533D01*
X005492Y011531D01*
X005509Y011527D01*
X005525Y011520D01*
X005539Y011510D01*
X005552Y011497D01*
X005562Y011483D01*
X005569Y011467D01*
X005573Y011450D01*
X005575Y011433D01*
X004825Y011533D02*
X004808Y011531D01*
X004791Y011527D01*
X004775Y011520D01*
X004761Y011510D01*
X004748Y011497D01*
X004738Y011483D01*
X004731Y011467D01*
X004727Y011450D01*
X004725Y011433D01*
X004725Y010833D02*
X004727Y010816D01*
X004731Y010799D01*
X004738Y010783D01*
X004748Y010769D01*
X004761Y010756D01*
X004775Y010746D01*
X004791Y010739D01*
X004808Y010735D01*
X004825Y010733D01*
X005475Y010733D01*
X005492Y010735D01*
X005509Y010739D01*
X005525Y010746D01*
X005539Y010756D01*
X005552Y010769D01*
X005562Y010783D01*
X005569Y010799D01*
X005573Y010816D01*
X005575Y010833D01*
X003650Y014633D02*
X002650Y014633D01*
X002650Y002633D01*
X003650Y002633D01*
X003650Y014633D01*
X024769Y015816D02*
X024950Y015816D01*
X024858Y015938D01*
X024950Y015816D02*
X025131Y015816D01*
X025036Y015938D02*
X024960Y015822D01*
X026069Y015816D02*
X026250Y015816D01*
X026158Y015938D01*
X026250Y015816D02*
X026431Y015816D01*
X026336Y015938D02*
X026260Y015822D01*
X027369Y015816D02*
X027550Y015816D01*
X027458Y015938D01*
X027550Y015816D02*
X027731Y015816D01*
X027636Y015938D02*
X027560Y015822D01*
D13*
X028188Y013683D02*
X028212Y013683D01*
X023900Y013295D02*
X023900Y013271D01*
X023900Y012145D02*
X023900Y012121D01*
X023150Y011195D02*
X023150Y011171D01*
X023100Y009445D02*
X023100Y009421D01*
X025188Y007633D02*
X025212Y007633D01*
X020550Y005695D02*
X020550Y005671D01*
X018250Y006421D02*
X018250Y006445D01*
X016350Y008321D02*
X016350Y008345D01*
X016538Y009933D02*
X016562Y009933D01*
X016112Y011983D02*
X016088Y011983D01*
X018250Y012871D02*
X018250Y012895D01*
X018250Y013571D02*
X018250Y013595D01*
X016112Y013583D02*
X016088Y013583D01*
X021150Y013671D02*
X021150Y013695D01*
D14*
X021114Y011158D02*
X021116Y011178D01*
X021121Y011198D01*
X021131Y011216D01*
X021143Y011233D01*
X021158Y011247D01*
X021176Y011257D01*
X021195Y011265D01*
X021215Y011269D01*
X021235Y011269D01*
X021255Y011265D01*
X021274Y011257D01*
X021292Y011247D01*
X021307Y011233D01*
X021319Y011216D01*
X021329Y011198D01*
X021334Y011178D01*
X021336Y011158D01*
X021334Y011138D01*
X021329Y011118D01*
X021319Y011100D01*
X021307Y011083D01*
X021292Y011069D01*
X021274Y011059D01*
X021255Y011051D01*
X021235Y011047D01*
X021215Y011047D01*
X021195Y011051D01*
X021176Y011059D01*
X021158Y011069D01*
X021143Y011083D01*
X021131Y011100D01*
X021121Y011118D01*
X021116Y011138D01*
X021114Y011158D01*
D15*
X026094Y011897D02*
X026094Y012862D01*
X026094Y012866D02*
X026095Y012883D01*
X026100Y012900D01*
X026107Y012915D01*
X026117Y012929D01*
X026129Y012941D01*
X026143Y012951D01*
X026158Y012958D01*
X026175Y012963D01*
X026192Y012964D01*
X026196Y012964D02*
X027708Y012964D01*
X027725Y012963D01*
X027742Y012958D01*
X027757Y012951D01*
X027771Y012941D01*
X027783Y012929D01*
X027793Y012915D01*
X027800Y012900D01*
X027805Y012883D01*
X027806Y012866D01*
X027806Y012870D02*
X027806Y011905D01*
X027806Y011901D02*
X027805Y011884D01*
X027800Y011867D01*
X027793Y011852D01*
X027783Y011838D01*
X027771Y011826D01*
X027757Y011816D01*
X027742Y011809D01*
X027725Y011804D01*
X027708Y011803D01*
X026192Y011803D01*
X026175Y011804D01*
X026158Y011809D01*
X026143Y011816D01*
X026129Y011826D01*
X026117Y011838D01*
X026107Y011852D01*
X026100Y011867D01*
X026095Y011884D01*
X026094Y011901D01*
X023860Y014073D02*
X023340Y014073D01*
X023340Y015193D01*
X023860Y015193D01*
X023860Y014073D01*
X023850Y004783D02*
X023300Y004783D01*
X023150Y004583D01*
X022950Y004583D01*
X022350Y004583D01*
X022150Y004583D01*
X022000Y004783D01*
X020450Y004783D01*
X020450Y004383D01*
X020450Y004283D01*
X022350Y004283D01*
X022950Y004283D01*
X025650Y004283D01*
X025650Y001783D01*
X013650Y001783D01*
X013650Y004283D01*
X015350Y004283D01*
X015950Y004283D01*
X018850Y004283D01*
X018850Y004383D01*
X018850Y004783D01*
X020450Y004783D01*
X020450Y004283D02*
X020450Y003983D01*
X018850Y003983D01*
X018850Y004283D01*
X018850Y004783D02*
X016300Y004783D01*
X016150Y004583D01*
X015950Y004583D01*
X015350Y004583D01*
X015350Y004383D01*
X015350Y004283D01*
X015950Y004283D02*
X015950Y004383D01*
X015950Y004583D01*
X015350Y004583D02*
X015150Y004583D01*
X015000Y004783D01*
X013150Y004783D01*
X013150Y001283D01*
X013650Y001283D01*
X013650Y001183D01*
X014150Y001183D01*
X014150Y001283D01*
X019400Y001283D01*
X019400Y001183D01*
X019900Y001183D01*
X019900Y001283D01*
X025150Y001283D01*
X025150Y001183D01*
X025650Y001183D01*
X025650Y001283D01*
X026150Y001283D01*
X026150Y004783D01*
X024450Y004783D01*
X024450Y004733D01*
X023850Y004733D01*
X023850Y004783D01*
X022950Y004583D02*
X022950Y004383D01*
X022950Y004283D01*
X022350Y004283D02*
X022350Y004383D01*
X022350Y004583D01*
D16*
X022350Y004383D02*
X020450Y004383D01*
X018850Y004383D02*
X015950Y004383D01*
X015350Y004383D02*
X013550Y004383D01*
X013550Y001683D01*
X025750Y001683D01*
X025750Y004383D01*
X022950Y004383D01*
X026208Y012706D02*
X026210Y012728D01*
X026216Y012749D01*
X026225Y012769D01*
X026237Y012787D01*
X026253Y012803D01*
X026271Y012815D01*
X026291Y012824D01*
X026312Y012830D01*
X026334Y012832D01*
X026356Y012830D01*
X026377Y012824D01*
X026397Y012815D01*
X026415Y012803D01*
X026431Y012787D01*
X026443Y012769D01*
X026452Y012749D01*
X026458Y012728D01*
X026460Y012706D01*
X026458Y012684D01*
X026452Y012663D01*
X026443Y012643D01*
X026431Y012625D01*
X026415Y012609D01*
X026397Y012597D01*
X026377Y012588D01*
X026356Y012582D01*
X026334Y012580D01*
X026312Y012582D01*
X026291Y012588D01*
X026271Y012597D01*
X026253Y012609D01*
X026237Y012625D01*
X026225Y012643D01*
X026216Y012663D01*
X026210Y012684D01*
X026208Y012706D01*
D17*
X026350Y013683D03*
X026950Y013683D03*
X027550Y013683D03*
X028150Y015883D03*
X026850Y015883D03*
X025550Y015883D03*
X016754Y011966D03*
X016000Y015733D03*
D18*
X023300Y015733D03*
X026950Y011433D03*
X018250Y005283D03*
X015650Y005283D03*
X014250Y005283D03*
X012500Y007133D03*
D19*
X003650Y001633D02*
X002650Y002633D01*
X003650Y001633D02*
X009650Y001633D01*
X010650Y002633D01*
X010650Y014633D02*
X010650Y015633D01*
X008150Y015633D01*
X008150Y014633D01*
X005150Y014633D01*
X005150Y015633D01*
X002650Y015633D01*
X002650Y014633D01*
X005150Y015633D02*
X005150Y016133D01*
X008150Y016133D01*
X008150Y015633D01*
D20*
X027100Y002483D03*
D21*
X016759Y006855D02*
X016759Y007012D01*
X015706Y006933D02*
X015708Y006970D01*
X015714Y007006D01*
X015723Y007041D01*
X015737Y007075D01*
X015754Y007108D01*
X015774Y007138D01*
X015797Y007166D01*
X015823Y007192D01*
X015852Y007214D01*
X015883Y007234D01*
X015916Y007250D01*
X015951Y007262D01*
X015986Y007271D01*
X016023Y007276D01*
X016059Y007277D01*
X016096Y007274D01*
X016132Y007267D01*
X016167Y007257D01*
X016200Y007242D01*
X016232Y007225D01*
X016262Y007204D01*
X016290Y007179D01*
X016315Y007153D01*
X016337Y007123D01*
X016355Y007092D01*
X016370Y007058D01*
X016382Y007024D01*
X016390Y006988D01*
X016394Y006951D01*
X016394Y006915D01*
X016390Y006878D01*
X016382Y006842D01*
X016370Y006808D01*
X016355Y006774D01*
X016337Y006743D01*
X016315Y006713D01*
X016290Y006687D01*
X016262Y006662D01*
X016232Y006641D01*
X016200Y006624D01*
X016167Y006609D01*
X016132Y006599D01*
X016096Y006592D01*
X016059Y006589D01*
X016023Y006590D01*
X015986Y006595D01*
X015951Y006604D01*
X015916Y006616D01*
X015883Y006632D01*
X015852Y006652D01*
X015823Y006674D01*
X015797Y006700D01*
X015774Y006728D01*
X015754Y006758D01*
X015737Y006791D01*
X015723Y006825D01*
X015714Y006860D01*
X015708Y006896D01*
X015706Y006933D01*
X015341Y007012D02*
X015341Y006855D01*
X015656Y006343D02*
X016444Y006343D01*
X016404Y007524D02*
X015656Y007524D01*
M02*
