G75*
%MOIN*%
%OFA0B0*%
%FSLAX24Y24*%
%IPPOS*%
%LPD*%
%AMOC8*
5,1,8,0,0,1.08239X$1,22.5*
%
%ADD10R,0.0002X0.0002*%
%ADD11R,0.0002X0.0026*%
%ADD12R,0.0002X0.0002*%
%ADD13R,0.0002X0.0030*%
%ADD14R,0.0002X0.0002*%
%ADD15R,0.0002X0.0066*%
%ADD16R,0.0002X0.0002*%
%ADD17R,0.0002X0.0078*%
%ADD18R,0.0002X0.0082*%
%ADD19R,0.0002X0.0068*%
%ADD20R,0.0002X0.0102*%
%ADD21R,0.0002X0.0102*%
%ADD22R,0.0002X0.0074*%
%ADD23R,0.0002X0.0080*%
%ADD24R,0.0002X0.0110*%
%ADD25R,0.0002X0.0070*%
%ADD26R,0.0002X0.0072*%
%ADD27R,0.0002X0.0080*%
%ADD28R,0.0002X0.0126*%
%ADD29R,0.0002X0.0122*%
%ADD30R,0.0002X0.0072*%
%ADD31R,0.0002X0.0134*%
%ADD32R,0.0002X0.0130*%
%ADD33R,0.0002X0.0074*%
%ADD34R,0.0002X0.0146*%
%ADD35R,0.0002X0.0150*%
%ADD36R,0.0002X0.0078*%
%ADD37R,0.0002X0.0072*%
%ADD38R,0.0002X0.0162*%
%ADD39R,0.0002X0.0162*%
%ADD40R,0.0002X0.0076*%
%ADD41R,0.0002X0.0166*%
%ADD42R,0.0002X0.0178*%
%ADD43R,0.0002X0.0174*%
%ADD44R,0.0002X0.0082*%
%ADD45R,0.0002X0.0180*%
%ADD46R,0.0002X0.0182*%
%ADD47R,0.0002X0.0086*%
%ADD48R,0.0002X0.0186*%
%ADD49R,0.0002X0.0082*%
%ADD50R,0.0002X0.0190*%
%ADD51R,0.0002X0.0086*%
%ADD52R,0.0002X0.0202*%
%ADD53R,0.0002X0.0200*%
%ADD54R,0.0002X0.0088*%
%ADD55R,0.0002X0.0202*%
%ADD56R,0.0002X0.0204*%
%ADD57R,0.0002X0.0090*%
%ADD58R,0.0002X0.0210*%
%ADD59R,0.0002X0.0090*%
%ADD60R,0.0002X0.0214*%
%ADD61R,0.0002X0.0214*%
%ADD62R,0.0002X0.0094*%
%ADD63R,0.0002X0.0218*%
%ADD64R,0.0002X0.0220*%
%ADD65R,0.0002X0.0094*%
%ADD66R,0.0002X0.0222*%
%ADD67R,0.0002X0.0222*%
%ADD68R,0.0002X0.0096*%
%ADD69R,0.0002X0.0228*%
%ADD70R,0.0002X0.0098*%
%ADD71R,0.0002X0.0230*%
%ADD72R,0.0002X0.0236*%
%ADD73R,0.0002X0.0238*%
%ADD74R,0.0002X0.0100*%
%ADD75R,0.0002X0.0240*%
%ADD76R,0.0002X0.0102*%
%ADD77R,0.0002X0.0244*%
%ADD78R,0.0002X0.0106*%
%ADD79R,0.0002X0.0246*%
%ADD80R,0.0002X0.0106*%
%ADD81R,0.0002X0.0254*%
%ADD82R,0.0002X0.0252*%
%ADD83R,0.0002X0.0254*%
%ADD84R,0.0002X0.0254*%
%ADD85R,0.0002X0.0258*%
%ADD86R,0.0002X0.0260*%
%ADD87R,0.0002X0.0112*%
%ADD88R,0.0002X0.0262*%
%ADD89R,0.0002X0.0262*%
%ADD90R,0.0002X0.0112*%
%ADD91R,0.0002X0.0266*%
%ADD92R,0.0002X0.0114*%
%ADD93R,0.0002X0.0270*%
%ADD94R,0.0002X0.0118*%
%ADD95R,0.0002X0.0126*%
%ADD96R,0.0002X0.0114*%
%ADD97R,0.0002X0.0116*%
%ADD98R,0.0002X0.0118*%
%ADD99R,0.0002X0.0112*%
%ADD100R,0.0002X0.0122*%
%ADD101R,0.0002X0.0108*%
%ADD102R,0.0002X0.0124*%
%ADD103R,0.0002X0.0108*%
%ADD104R,0.0002X0.0102*%
%ADD105R,0.0002X0.0128*%
%ADD106R,0.0002X0.0096*%
%ADD107R,0.0002X0.0128*%
%ADD108R,0.0002X0.0098*%
%ADD109R,0.0002X0.0130*%
%ADD110R,0.0002X0.0094*%
%ADD111R,0.0002X0.0092*%
%ADD112R,0.0002X0.0134*%
%ADD113R,0.0002X0.0092*%
%ADD114R,0.0002X0.0134*%
%ADD115R,0.0002X0.0092*%
%ADD116R,0.0002X0.0138*%
%ADD117R,0.0002X0.0092*%
%ADD118R,0.0002X0.0068*%
%ADD119R,0.0002X0.0088*%
%ADD120R,0.0002X0.0070*%
%ADD121R,0.0002X0.0084*%
%ADD122R,0.0002X0.0084*%
%ADD123R,0.0002X0.0082*%
%ADD124R,0.0002X0.0084*%
%ADD125R,0.0002X0.0084*%
%ADD126R,0.0002X0.0072*%
%ADD127R,0.0002X0.0074*%
%ADD128R,0.0002X0.0076*%
%ADD129R,0.0002X0.0074*%
%ADD130R,0.0002X0.0004*%
%ADD131R,0.0002X0.0010*%
%ADD132R,0.0002X0.0020*%
%ADD133R,0.0002X0.0038*%
%ADD134R,0.0002X0.0038*%
%ADD135R,0.0002X0.0050*%
%ADD136R,0.0002X0.0056*%
%ADD137R,0.0002X0.0066*%
%ADD138R,0.0002X0.0094*%
%ADD139R,0.0002X0.0154*%
%ADD140R,0.0002X0.0100*%
%ADD141R,0.0002X0.0154*%
%ADD142R,0.0002X0.0156*%
%ADD143R,0.0002X0.0156*%
%ADD144R,0.0002X0.0104*%
%ADD145R,0.0002X0.0158*%
%ADD146R,0.0002X0.0110*%
%ADD147R,0.0002X0.0158*%
%ADD148R,0.0002X0.0122*%
%ADD149R,0.0002X0.0160*%
%ADD150R,0.0002X0.0268*%
%ADD151R,0.0002X0.0264*%
%ADD152R,0.0002X0.0262*%
%ADD153R,0.0002X0.0264*%
%ADD154R,0.0002X0.0266*%
%ADD155R,0.0002X0.0160*%
%ADD156R,0.0002X0.0256*%
%ADD157R,0.0002X0.0162*%
%ADD158R,0.0002X0.0252*%
%ADD159R,0.0002X0.0250*%
%ADD160R,0.0002X0.0246*%
%ADD161R,0.0002X0.0164*%
%ADD162R,0.0002X0.0242*%
%ADD163R,0.0002X0.0242*%
%ADD164R,0.0002X0.0164*%
%ADD165R,0.0002X0.0234*%
%ADD166R,0.0002X0.0234*%
%ADD167R,0.0002X0.0224*%
%ADD168R,0.0002X0.0226*%
%ADD169R,0.0002X0.0216*%
%ADD170R,0.0002X0.0152*%
%ADD171R,0.0002X0.0142*%
%ADD172R,0.0002X0.0208*%
%ADD173R,0.0002X0.0206*%
%ADD174R,0.0002X0.0136*%
%ADD175R,0.0002X0.0198*%
%ADD176R,0.0002X0.0124*%
%ADD177R,0.0002X0.0194*%
%ADD178R,0.0002X0.0194*%
%ADD179R,0.0002X0.0174*%
%ADD180R,0.0002X0.0170*%
%ADD181R,0.0002X0.0168*%
%ADD182R,0.0002X0.0154*%
%ADD183R,0.0002X0.0142*%
%ADD184R,0.0002X0.0122*%
%ADD185R,0.0002X0.0064*%
%ADD186R,0.0002X0.0114*%
%ADD187R,0.0002X0.0054*%
%ADD188R,0.0002X0.0062*%
%ADD189R,0.0002X0.0062*%
%ADD190R,0.0002X0.0042*%
%ADD191R,0.0002X0.0046*%
%ADD192R,0.0002X0.0314*%
%ADD193R,0.0002X0.0316*%
%ADD194R,0.0002X0.0294*%
%ADD195R,0.0002X0.0150*%
%ADD196R,0.0002X0.0316*%
%ADD197R,0.0002X0.0314*%
%ADD198R,0.0002X0.0296*%
%ADD199R,0.0002X0.0196*%
%ADD200R,0.0002X0.0142*%
%ADD201R,0.0002X0.0206*%
%ADD202R,0.0002X0.0174*%
%ADD203R,0.0002X0.0220*%
%ADD204R,0.0002X0.0176*%
%ADD205R,0.0002X0.0166*%
%ADD206R,0.0002X0.0226*%
%ADD207R,0.0002X0.0198*%
%ADD208R,0.0002X0.0182*%
%ADD209R,0.0002X0.0314*%
%ADD210R,0.0002X0.0296*%
%ADD211R,0.0002X0.0232*%
%ADD212R,0.0002X0.0194*%
%ADD213R,0.0002X0.0202*%
%ADD214R,0.0002X0.0314*%
%ADD215R,0.0002X0.0186*%
%ADD216R,0.0002X0.0294*%
%ADD217R,0.0002X0.0238*%
%ADD218R,0.0002X0.0244*%
%ADD219R,0.0002X0.0218*%
%ADD220R,0.0002X0.0250*%
%ADD221R,0.0002X0.0230*%
%ADD222R,0.0002X0.0210*%
%ADD223R,0.0002X0.0224*%
%ADD224R,0.0002X0.0234*%
%ADD225R,0.0002X0.0242*%
%ADD226R,0.0002X0.0258*%
%ADD227R,0.0002X0.0272*%
%ADD228R,0.0002X0.0262*%
%ADD229R,0.0002X0.0274*%
%ADD230R,0.0002X0.0274*%
%ADD231R,0.0002X0.0280*%
%ADD232R,0.0002X0.0278*%
%ADD233R,0.0002X0.0282*%
%ADD234R,0.0002X0.0268*%
%ADD235R,0.0002X0.0282*%
%ADD236R,0.0002X0.0286*%
%ADD237R,0.0002X0.0286*%
%ADD238R,0.0002X0.0282*%
%ADD239R,0.0002X0.0270*%
%ADD240R,0.0002X0.0292*%
%ADD241R,0.0002X0.0298*%
%ADD242R,0.0002X0.0290*%
%ADD243R,0.0002X0.0302*%
%ADD244R,0.0002X0.0306*%
%ADD245R,0.0002X0.0298*%
%ADD246R,0.0002X0.0304*%
%ADD247R,0.0002X0.0302*%
%ADD248R,0.0002X0.0318*%
%ADD249R,0.0002X0.0292*%
%ADD250R,0.0002X0.0324*%
%ADD251R,0.0002X0.0308*%
%ADD252R,0.0002X0.0310*%
%ADD253R,0.0002X0.0326*%
%ADD254R,0.0002X0.0334*%
%ADD255R,0.0002X0.0312*%
%ADD256R,0.0002X0.0318*%
%ADD257R,0.0002X0.0334*%
%ADD258R,0.0002X0.0306*%
%ADD259R,0.0002X0.0322*%
%ADD260R,0.0002X0.0336*%
%ADD261R,0.0002X0.0310*%
%ADD262R,0.0002X0.0146*%
%ADD263R,0.0002X0.0112*%
%ADD264R,0.0002X0.0138*%
%ADD265R,0.0002X0.0136*%
%ADD266R,0.0002X0.0140*%
%ADD267R,0.0002X0.0320*%
%ADD268R,0.0002X0.0120*%
%ADD269R,0.0002X0.0324*%
%ADD270R,0.0002X0.0142*%
%ADD271R,0.0002X0.0104*%
%ADD272R,0.0002X0.0060*%
%ADD273R,0.0002X0.0052*%
%ADD274R,0.0002X0.0044*%
%ADD275R,0.0002X0.0042*%
%ADD276R,0.0002X0.0034*%
%ADD277R,0.0002X0.0028*%
%ADD278R,0.0002X0.0348*%
%ADD279R,0.0002X0.0024*%
%ADD280R,0.0002X0.0346*%
%ADD281R,0.0002X0.0006*%
%ADD282R,0.0002X0.0004*%
%ADD283R,0.0002X0.0018*%
%ADD284R,0.0002X0.0346*%
%ADD285R,0.0002X0.0010*%
%ADD286R,0.0002X0.0008*%
%ADD287R,0.0002X0.0014*%
%ADD288R,0.0002X0.0342*%
%ADD289R,0.0002X0.0014*%
%ADD290R,0.0002X0.0014*%
%ADD291R,0.0002X0.0008*%
%ADD292R,0.0002X0.0340*%
%ADD293R,0.0002X0.0018*%
%ADD294R,0.0002X0.0338*%
%ADD295R,0.0002X0.0022*%
%ADD296R,0.0002X0.0026*%
%ADD297R,0.0002X0.0024*%
%ADD298R,0.0002X0.0330*%
%ADD299R,0.0002X0.0326*%
%ADD300R,0.0002X0.0030*%
%ADD301R,0.0002X0.0034*%
%ADD302R,0.0002X0.0036*%
%ADD303R,0.0002X0.0322*%
%ADD304R,0.0002X0.0042*%
%ADD305R,0.0002X0.0040*%
%ADD306R,0.0002X0.0322*%
%ADD307R,0.0002X0.0042*%
%ADD308R,0.0002X0.0048*%
%ADD309R,0.0002X0.0182*%
%ADD310R,0.0002X0.0046*%
%ADD311R,0.0002X0.0050*%
%ADD312R,0.0002X0.0200*%
%ADD313R,0.0002X0.0054*%
%ADD314R,0.0002X0.0058*%
%ADD315R,0.0002X0.0056*%
%ADD316R,0.0002X0.0222*%
%ADD317R,0.0002X0.0060*%
%ADD318R,0.0002X0.0058*%
%ADD319R,0.0002X0.0232*%
%ADD320R,0.0002X0.0064*%
%ADD321R,0.0002X0.0062*%
%ADD322R,0.0002X0.0234*%
%ADD323R,0.0002X0.0248*%
%ADD324R,0.0002X0.0248*%
%ADD325R,0.0002X0.0302*%
%ADD326R,0.0002X0.0252*%
%ADD327R,0.0002X0.0254*%
%ADD328R,0.0002X0.0244*%
%ADD329R,0.0002X0.0244*%
%ADD330R,0.0002X0.0104*%
%ADD331R,0.0002X0.0264*%
%ADD332R,0.0002X0.0256*%
%ADD333R,0.0002X0.0272*%
%ADD334R,0.0002X0.0292*%
%ADD335R,0.0002X0.0272*%
%ADD336R,0.0002X0.0276*%
%ADD337R,0.0002X0.0180*%
%ADD338R,0.0002X0.0178*%
%ADD339R,0.0002X0.0276*%
%ADD340R,0.0002X0.0284*%
%ADD341R,0.0002X0.0148*%
%ADD342R,0.0002X0.0282*%
%ADD343R,0.0002X0.0284*%
%ADD344R,0.0002X0.0152*%
%ADD345R,0.0002X0.0288*%
%ADD346R,0.0002X0.0290*%
%ADD347R,0.0002X0.0284*%
%ADD348R,0.0002X0.0348*%
%ADD349R,0.0002X0.0288*%
%ADD350R,0.0002X0.0292*%
%ADD351R,0.0002X0.0300*%
%ADD352R,0.0002X0.0114*%
%ADD353R,0.0002X0.0294*%
%ADD354R,0.0002X0.0302*%
%ADD355R,0.0002X0.0300*%
%ADD356R,0.0002X0.0304*%
%ADD357R,0.0002X0.0304*%
%ADD358R,0.0002X0.0120*%
%ADD359R,0.0002X0.0196*%
%ADD360R,0.0002X0.0284*%
%ADD361R,0.0002X0.0308*%
%ADD362R,0.0002X0.0312*%
%ADD363R,0.0002X0.0214*%
%ADD364R,0.0002X0.0320*%
%ADD365R,0.0002X0.0154*%
%ADD366R,0.0002X0.0192*%
%ADD367R,0.0002X0.0188*%
%ADD368R,0.0002X0.0170*%
%ADD369R,0.0002X0.0148*%
%ADD370R,0.0002X0.0152*%
%ADD371R,0.0002X0.0152*%
%ADD372R,0.0002X0.0006*%
%ADD373R,0.0002X0.0144*%
%ADD374R,0.0002X0.0144*%
%ADD375R,0.0002X0.0144*%
%ADD376R,0.0002X0.0014*%
%ADD377R,0.0002X0.0022*%
%ADD378R,0.0002X0.0140*%
%ADD379R,0.0002X0.0134*%
%ADD380R,0.0002X0.0034*%
%ADD381R,0.0002X0.0044*%
%ADD382R,0.0002X0.0132*%
%ADD383R,0.0002X0.0132*%
%ADD384R,0.0002X0.0132*%
%ADD385R,0.0002X0.0132*%
%ADD386R,0.0002X0.0062*%
%ADD387R,0.0002X0.0124*%
%ADD388R,0.0002X0.0312*%
%ADD389R,0.0002X0.0312*%
%ADD390R,0.0002X0.0322*%
%ADD391R,0.0002X0.0324*%
%ADD392R,0.0002X0.0116*%
%ADD393R,0.0002X0.0274*%
%ADD394R,0.0002X0.0278*%
%ADD395R,0.0002X0.0280*%
%ADD396R,0.0002X0.0304*%
%ADD397R,0.0002X0.0104*%
%ADD398R,0.0002X0.0264*%
%ADD399R,0.0002X0.0202*%
%ADD400R,0.0002X0.0214*%
%ADD401R,0.0002X0.0240*%
%ADD402R,0.0002X0.0174*%
%ADD403R,0.0002X0.0212*%
%ADD404R,0.0002X0.0212*%
%ADD405R,0.0002X0.0208*%
%ADD406R,0.0002X0.0054*%
%ADD407R,0.0513X0.0474*%
%ADD408R,0.0474X0.0513*%
%ADD409R,0.0631X0.0710*%
%ADD410R,0.0198X0.0552*%
%ADD411R,0.0552X0.0198*%
%ADD412R,0.0423X0.0157*%
%ADD413R,0.0237X0.0611*%
%ADD414R,0.0671X0.0828*%
%ADD415C,0.0316*%
%ADD416C,0.0513*%
%ADD417C,0.0142*%
%ADD418OC8,0.0640*%
%ADD419R,0.1025X0.0749*%
%ADD420C,0.0820*%
%ADD421R,0.0960X0.0560*%
%ADD422R,0.0946X0.1497*%
%ADD423R,0.0631X0.0474*%
%ADD424C,0.0010*%
%ADD425C,0.0770*%
%ADD426R,0.0330X0.0580*%
%ADD427C,0.0380*%
%ADD428R,0.1080X0.1130*%
%ADD429R,0.0580X0.0380*%
%ADD430R,0.0572X0.0336*%
%ADD431C,0.1660*%
D10*
X000520Y006625D03*
X000520Y006629D03*
X000520Y006645D03*
X000520Y006649D03*
X000520Y006665D03*
X000520Y006669D03*
X000520Y006685D03*
X000520Y006689D03*
X000520Y006705D03*
X000520Y006709D03*
X000456Y006745D03*
X000736Y006729D03*
X000736Y006725D03*
X001206Y006859D03*
X001266Y006879D03*
X001510Y007135D03*
X001510Y007139D03*
X001510Y007155D03*
X001510Y007159D03*
X001510Y007175D03*
X001510Y007179D03*
X001510Y007195D03*
X001510Y007199D03*
X001596Y007405D03*
X001600Y007425D03*
X001600Y007429D03*
X001600Y007465D03*
X001600Y007469D03*
X001596Y007489D03*
X001510Y007695D03*
X001510Y007699D03*
X001510Y007715D03*
X001510Y007719D03*
X001510Y007735D03*
X001510Y007739D03*
X001510Y007755D03*
X001510Y007759D03*
X001590Y007955D03*
X001166Y007995D03*
X001166Y007999D03*
X000880Y008065D03*
X000880Y008105D03*
X000880Y008109D03*
X000810Y008119D03*
X000810Y008055D03*
X000866Y007995D03*
X000446Y008055D03*
X000446Y008115D03*
X000446Y008119D03*
X000456Y008165D03*
X000520Y008445D03*
X000520Y008449D03*
X000520Y008465D03*
X000520Y008469D03*
X000520Y008485D03*
X000520Y008489D03*
X000520Y008505D03*
X000520Y008509D03*
X000520Y008525D03*
X000520Y008529D03*
X000466Y008619D03*
X000660Y008549D03*
X000806Y007619D03*
X000876Y007625D03*
X000880Y007549D03*
X000876Y007525D03*
X000516Y007545D03*
X000460Y007185D03*
X000456Y007165D03*
X000526Y007159D03*
X000520Y007129D03*
X000520Y007125D03*
X000520Y007109D03*
X000520Y007105D03*
X000520Y007089D03*
X000520Y007085D03*
X000520Y007069D03*
X000520Y007065D03*
X000520Y007049D03*
X000520Y007045D03*
X000520Y007029D03*
X000520Y007025D03*
X000520Y010785D03*
X000520Y010789D03*
X000520Y010805D03*
X000520Y010809D03*
X000520Y010825D03*
X000520Y010829D03*
X000520Y010845D03*
X000520Y010849D03*
X000520Y010865D03*
X000520Y010869D03*
X000520Y010885D03*
X000520Y010889D03*
X000660Y010905D03*
X000870Y011395D03*
X000876Y011425D03*
X000810Y011435D03*
X000806Y011419D03*
X000810Y011495D03*
X000876Y011505D03*
X000696Y011449D03*
X000636Y011509D03*
X000646Y011539D03*
X000516Y011425D03*
X000450Y011499D03*
X000520Y013205D03*
X000520Y013209D03*
X000520Y013225D03*
X000520Y013229D03*
X000520Y013245D03*
X000520Y013249D03*
X000520Y013265D03*
X000520Y013269D03*
X000520Y013285D03*
X000520Y013289D03*
X000476Y013389D03*
X000800Y013325D03*
D11*
X001600Y007445D03*
X001260Y006885D03*
D12*
X001256Y006913D03*
X001180Y006941D03*
X001510Y007123D03*
X001510Y007127D03*
X001510Y007131D03*
X001510Y007143D03*
X001510Y007147D03*
X001510Y007151D03*
X001510Y007163D03*
X001510Y007167D03*
X001510Y007171D03*
X001510Y007183D03*
X001510Y007187D03*
X001510Y007191D03*
X001530Y007423D03*
X001526Y007483D03*
X001600Y007461D03*
X001236Y007473D03*
X001166Y007471D03*
X001166Y007423D03*
X001170Y007403D03*
X000880Y007553D03*
X000880Y007597D03*
X000880Y007601D03*
X000810Y007603D03*
X000810Y007551D03*
X000450Y007523D03*
X000446Y007547D03*
X000446Y007551D03*
X000446Y007603D03*
X000446Y007607D03*
X000706Y007207D03*
X000660Y007137D03*
X000520Y007121D03*
X000520Y007117D03*
X000520Y007113D03*
X000520Y007101D03*
X000520Y007097D03*
X000520Y007093D03*
X000520Y007081D03*
X000520Y007077D03*
X000520Y007073D03*
X000520Y007061D03*
X000520Y007057D03*
X000520Y007053D03*
X000520Y007041D03*
X000520Y007037D03*
X000520Y007033D03*
X000520Y007021D03*
X000520Y007017D03*
X000476Y006801D03*
X000460Y006761D03*
X000520Y006701D03*
X000520Y006697D03*
X000520Y006693D03*
X000520Y006681D03*
X000520Y006677D03*
X000520Y006673D03*
X000520Y006661D03*
X000520Y006657D03*
X000520Y006653D03*
X000520Y006641D03*
X000520Y006637D03*
X000520Y006633D03*
X000520Y006621D03*
X000520Y006617D03*
X000670Y006703D03*
X000670Y006707D03*
X000670Y006711D03*
X001510Y007703D03*
X001510Y007707D03*
X001510Y007711D03*
X001510Y007723D03*
X001510Y007727D03*
X001510Y007731D03*
X001510Y007743D03*
X001510Y007747D03*
X001510Y007751D03*
X001510Y007763D03*
X001510Y007767D03*
X001510Y007771D03*
X001600Y007997D03*
X001600Y008001D03*
X001600Y008037D03*
X001600Y008041D03*
X001596Y008061D03*
X001166Y008043D03*
X001176Y007957D03*
X000876Y008033D03*
X000880Y008057D03*
X000880Y008061D03*
X000880Y008101D03*
X000856Y008197D03*
X000516Y008113D03*
X000450Y008143D03*
X000450Y008031D03*
X000850Y007963D03*
X000520Y008433D03*
X000520Y008437D03*
X000520Y008441D03*
X000520Y008453D03*
X000520Y008457D03*
X000520Y008461D03*
X000520Y008473D03*
X000520Y008477D03*
X000520Y008481D03*
X000520Y008493D03*
X000520Y008497D03*
X000520Y008501D03*
X000520Y008513D03*
X000520Y008517D03*
X000520Y008521D03*
X000520Y008533D03*
X000520Y008537D03*
X000520Y008541D03*
X000456Y008581D03*
X000660Y008553D03*
X000770Y009467D03*
X000770Y009987D03*
X000520Y010793D03*
X000520Y010797D03*
X000520Y010801D03*
X000520Y010813D03*
X000520Y010817D03*
X000520Y010821D03*
X000520Y010833D03*
X000520Y010837D03*
X000520Y010841D03*
X000520Y010853D03*
X000520Y010857D03*
X000520Y010861D03*
X000520Y010873D03*
X000520Y010877D03*
X000520Y010881D03*
X000520Y010893D03*
X000456Y010933D03*
X000466Y010971D03*
X000660Y010901D03*
X000760Y011337D03*
X000800Y011401D03*
X000866Y011543D03*
X000630Y011487D03*
X000626Y011471D03*
X000516Y011481D03*
X000520Y013201D03*
X000520Y013213D03*
X000520Y013217D03*
X000520Y013221D03*
X000520Y013233D03*
X000520Y013237D03*
X000520Y013241D03*
X000520Y013253D03*
X000520Y013257D03*
X000520Y013261D03*
X000520Y013273D03*
X000520Y013277D03*
X000520Y013281D03*
X000526Y013323D03*
X000456Y013321D03*
X000870Y013323D03*
D13*
X000750Y009989D03*
X000750Y009467D03*
X000546Y008193D03*
X000880Y008083D03*
X001600Y008019D03*
D14*
X001598Y007983D03*
X001534Y008023D03*
X001594Y008071D03*
X001232Y008021D03*
X001232Y008017D03*
X001232Y008013D03*
X001168Y008053D03*
X001178Y007951D03*
X000878Y008127D03*
X000874Y008147D03*
X000872Y008153D03*
X000802Y008147D03*
X000788Y008177D03*
X000812Y008061D03*
X000538Y008167D03*
X000524Y008141D03*
X000514Y008091D03*
X000514Y008071D03*
X000514Y008067D03*
X000448Y008041D03*
X000458Y008171D03*
X000454Y008567D03*
X000454Y008571D03*
X000652Y008581D03*
X000518Y007611D03*
X000514Y007587D03*
X000514Y007583D03*
X000514Y007567D03*
X000514Y007563D03*
X000522Y007527D03*
X000452Y007517D03*
X000454Y007507D03*
X000448Y007537D03*
X000448Y007613D03*
X000448Y007617D03*
X000808Y007613D03*
X000812Y007593D03*
X000812Y007557D03*
X000802Y007523D03*
X000858Y007471D03*
X000878Y007531D03*
X000882Y007571D03*
X001168Y007481D03*
X001168Y007413D03*
X001232Y007437D03*
X001232Y007441D03*
X001232Y007453D03*
X001232Y007457D03*
X001234Y007463D03*
X001534Y007451D03*
X001534Y007447D03*
X001534Y007443D03*
X001598Y007411D03*
X001598Y007483D03*
X001254Y006923D03*
X000734Y006743D03*
X000738Y006711D03*
X000738Y006707D03*
X000738Y006703D03*
X000738Y006691D03*
X000738Y006687D03*
X000738Y006683D03*
X000738Y006671D03*
X000738Y006667D03*
X000738Y006663D03*
X000738Y006651D03*
X000738Y006647D03*
X000738Y006643D03*
X000738Y006631D03*
X000738Y006627D03*
X000738Y006623D03*
X000524Y006733D03*
X000454Y006731D03*
X000522Y007143D03*
X000454Y007151D03*
X000658Y007147D03*
X000522Y010907D03*
X000454Y010923D03*
X000652Y010933D03*
X000654Y010927D03*
X000712Y010957D03*
X000678Y011387D03*
X000692Y011433D03*
X000702Y011471D03*
X000704Y011481D03*
X000628Y011477D03*
X000624Y011461D03*
X000618Y011443D03*
X000512Y011453D03*
X000514Y011467D03*
X000448Y011473D03*
X000448Y011477D03*
X000448Y011481D03*
X000448Y011433D03*
X000458Y011531D03*
X000868Y011537D03*
X000878Y011491D03*
X000874Y011411D03*
X000864Y011377D03*
X000872Y013301D03*
X000868Y013333D03*
X000524Y013317D03*
X000522Y013303D03*
X000454Y013307D03*
X000454Y013311D03*
X000464Y013357D03*
D15*
X000528Y011553D03*
X000722Y009467D03*
X001598Y008019D03*
X001598Y007447D03*
X001492Y006705D03*
X001504Y006701D03*
X001592Y006665D03*
D16*
X001264Y006885D03*
X001252Y006929D03*
X001194Y006895D03*
X001184Y006929D03*
X000728Y006765D03*
X000732Y006749D03*
X000738Y006699D03*
X000738Y006695D03*
X000738Y006679D03*
X000738Y006675D03*
X000738Y006659D03*
X000738Y006655D03*
X000738Y006639D03*
X000738Y006635D03*
X000738Y006619D03*
X000522Y006719D03*
X000528Y006745D03*
X000458Y006755D03*
X000454Y006735D03*
X000714Y006799D03*
X000522Y007139D03*
X000454Y007155D03*
X000458Y007179D03*
X000458Y007495D03*
X000518Y007539D03*
X000514Y007559D03*
X000524Y007629D03*
X000804Y007625D03*
X000874Y007635D03*
X000882Y007575D03*
X000872Y007509D03*
X001232Y007449D03*
X001232Y007445D03*
X001238Y007415D03*
X001202Y007339D03*
X001532Y007429D03*
X001534Y007455D03*
X001532Y007469D03*
X001592Y007389D03*
X001172Y007969D03*
X001168Y007985D03*
X001232Y008009D03*
X001232Y008025D03*
X001234Y008035D03*
X001172Y008069D03*
X000878Y008039D03*
X000808Y008045D03*
X000812Y008109D03*
X000558Y008195D03*
X000522Y008135D03*
X000514Y008099D03*
X000514Y008095D03*
X000448Y008129D03*
X000452Y008149D03*
X000452Y008025D03*
X000522Y008555D03*
X000654Y008575D03*
X000712Y008605D03*
X001534Y008019D03*
X001534Y008015D03*
X001598Y008055D03*
X001588Y008085D03*
X000454Y010919D03*
X000448Y011429D03*
X000514Y011435D03*
X000512Y011449D03*
X000524Y011509D03*
X000452Y011505D03*
X000698Y011455D03*
X000684Y011405D03*
X000808Y011425D03*
X000812Y011445D03*
X000812Y011489D03*
X000878Y011495D03*
X000874Y011519D03*
X000872Y011525D03*
X000878Y011439D03*
X000878Y011435D03*
X000872Y011405D03*
X000872Y013305D03*
X000872Y013309D03*
X000862Y013359D03*
X000802Y013315D03*
X000804Y013305D03*
D17*
X000706Y013461D03*
X000700Y013463D03*
X000696Y013463D03*
X000686Y013465D03*
X000676Y013465D03*
X000670Y013465D03*
X000666Y013465D03*
X000656Y013465D03*
X000650Y013465D03*
X000646Y013465D03*
X000640Y013463D03*
X000636Y013463D03*
X000616Y013459D03*
X000740Y011579D03*
X000790Y011573D03*
X000536Y011351D03*
X000576Y011011D03*
X000570Y011009D03*
X000566Y011009D03*
X000560Y011007D03*
X000556Y011007D03*
X000610Y011009D03*
X000620Y011007D03*
X000600Y010063D03*
X000636Y010039D03*
X000646Y010033D03*
X000640Y009515D03*
X000810Y009125D03*
X000806Y009121D03*
X000800Y009119D03*
X000786Y009113D03*
X000780Y009111D03*
X000816Y009127D03*
X000826Y009131D03*
X000830Y009133D03*
X000836Y009135D03*
X000840Y009137D03*
X000850Y009141D03*
X000856Y009143D03*
X000860Y009145D03*
X000866Y009149D03*
X000870Y009149D03*
X000626Y009045D03*
X000460Y008971D03*
X000810Y008817D03*
X000830Y008809D03*
X000846Y008801D03*
X000860Y008795D03*
X000866Y008793D03*
X000620Y008655D03*
X000610Y008657D03*
X000576Y008659D03*
X000570Y008657D03*
X000566Y008657D03*
X000560Y008655D03*
X000556Y008655D03*
X000526Y008185D03*
X000616Y007911D03*
X000626Y007909D03*
X000636Y007907D03*
X000640Y007907D03*
X000646Y007905D03*
X000650Y007905D03*
X000656Y007905D03*
X000666Y007905D03*
X000670Y007905D03*
X000676Y007905D03*
X000680Y007905D03*
X000686Y007905D03*
X000696Y007907D03*
X000700Y007907D03*
X000706Y007909D03*
X000716Y007911D03*
X000696Y007753D03*
X000700Y007751D03*
X000710Y007749D03*
X000720Y007747D03*
X000690Y007753D03*
X000686Y007753D03*
X000680Y007755D03*
X000676Y007755D03*
X000670Y007755D03*
X000666Y007755D03*
X000660Y007755D03*
X000656Y007755D03*
X000650Y007755D03*
X000640Y007755D03*
X000636Y007753D03*
X000630Y007753D03*
X000620Y007751D03*
X000620Y007399D03*
X000630Y007397D03*
X000640Y007395D03*
X000650Y007395D03*
X000656Y007395D03*
X000660Y007395D03*
X000666Y007395D03*
X000670Y007395D03*
X000676Y007395D03*
X000680Y007395D03*
X000686Y007397D03*
X000690Y007397D03*
X000700Y007399D03*
X000586Y007245D03*
X000570Y007245D03*
X000566Y007243D03*
X000570Y006825D03*
X000630Y006821D03*
X001180Y006983D03*
X001300Y007315D03*
X001306Y007313D03*
X001310Y007313D03*
X001316Y007311D03*
X001320Y007311D03*
X001326Y007309D03*
X001330Y007307D03*
X001346Y007305D03*
X001356Y007303D03*
X001360Y007303D03*
X001400Y007303D03*
X001406Y007303D03*
X001426Y007305D03*
X001430Y007305D03*
X001436Y007307D03*
X001440Y007307D03*
X001446Y007309D03*
X001596Y007447D03*
X001460Y007579D03*
X001456Y007581D03*
X001446Y007585D03*
X001436Y007587D03*
X001430Y007589D03*
X001426Y007589D03*
X001360Y007591D03*
X001356Y007591D03*
X001350Y007589D03*
X001346Y007589D03*
X001336Y007587D03*
X001326Y007585D03*
X001320Y007583D03*
X001316Y007583D03*
X001310Y007581D03*
X001356Y007875D03*
X001360Y007875D03*
X001350Y007877D03*
X001346Y007877D03*
X001336Y007879D03*
X001330Y007879D03*
X001326Y007881D03*
X001316Y007883D03*
X001310Y007885D03*
X001400Y007875D03*
X001406Y007875D03*
X001426Y007877D03*
X001430Y007877D03*
X001436Y007879D03*
X001440Y007879D03*
X001446Y007881D03*
X001460Y008151D03*
X001456Y008155D03*
X001446Y008157D03*
X001436Y008159D03*
X001430Y008161D03*
X001426Y008161D03*
X001400Y008163D03*
X001360Y008163D03*
X001356Y008163D03*
X001350Y008161D03*
X001346Y008161D03*
X001336Y008159D03*
X001326Y008157D03*
X001320Y008155D03*
X001316Y008155D03*
X001310Y008153D03*
X001290Y006785D03*
X001286Y006785D03*
X001350Y006569D03*
X001330Y006561D03*
X001326Y006561D03*
X001310Y006553D03*
X001306Y006553D03*
X001290Y006545D03*
X001286Y006545D03*
X001280Y006543D03*
D18*
X000640Y006817D03*
X000556Y006821D03*
X000636Y007233D03*
X000606Y007403D03*
X000586Y007411D03*
X000730Y007407D03*
X001286Y007323D03*
X001450Y007311D03*
X001476Y007321D03*
X001480Y007321D03*
X001490Y007567D03*
X001480Y007573D03*
X001296Y007577D03*
X001286Y007571D03*
X000736Y007741D03*
X000730Y007743D03*
X000610Y007747D03*
X000606Y007747D03*
X000596Y007743D03*
X000596Y007917D03*
X000720Y007913D03*
X000736Y007917D03*
X001280Y007897D03*
X001290Y007891D03*
X001450Y007883D03*
X001466Y007887D03*
X001476Y007893D03*
X001480Y007893D03*
X001596Y008017D03*
X001306Y008151D03*
X001280Y008141D03*
X000630Y008651D03*
X000550Y008651D03*
X000466Y008971D03*
X000576Y009377D03*
X000580Y009381D03*
X000590Y009387D03*
X000596Y009391D03*
X000600Y009393D03*
X000626Y009411D03*
X000636Y009417D03*
X000640Y009421D03*
X000646Y009423D03*
X000710Y009467D03*
X000646Y009511D03*
X000626Y009523D03*
X000600Y009541D03*
X000590Y009547D03*
X000586Y009551D03*
X000576Y009557D03*
X000460Y009633D03*
X000456Y009633D03*
X000596Y009913D03*
X000640Y009941D03*
X000640Y010037D03*
X000630Y010043D03*
X000626Y010047D03*
X000616Y010053D03*
X000590Y010071D03*
X000586Y010071D03*
X000580Y010077D03*
X000550Y011003D03*
X000630Y011003D03*
X000600Y013453D03*
X000596Y013453D03*
X000720Y013457D03*
X000730Y013453D03*
D19*
X000722Y009988D03*
X001464Y006716D03*
X001484Y006708D03*
X001498Y006702D03*
X001504Y006630D03*
X001492Y006624D03*
X001484Y006622D03*
X001594Y006664D03*
D20*
X001554Y006665D03*
X000528Y006799D03*
X000528Y007219D03*
X000538Y007445D03*
X000534Y007449D03*
X000542Y007709D03*
X000532Y007959D03*
X000792Y007955D03*
X001522Y007925D03*
X001524Y007539D03*
X001594Y007445D03*
X001524Y007355D03*
X000654Y008629D03*
X000492Y009835D03*
X000488Y009835D03*
X000698Y009989D03*
X000518Y011369D03*
X000808Y011555D03*
X000874Y011465D03*
X000784Y013415D03*
D21*
X000782Y013417D03*
X000778Y013421D03*
X000544Y013417D03*
X000518Y011541D03*
X000608Y011363D03*
X000654Y010981D03*
X000488Y009623D03*
X000488Y008971D03*
X000492Y008971D03*
X001524Y008111D03*
X001594Y008017D03*
X001524Y007927D03*
X001522Y007541D03*
X001522Y007353D03*
X000788Y007443D03*
X000788Y007951D03*
X000538Y007953D03*
D22*
X000784Y008221D03*
X000784Y008391D03*
X000782Y008391D03*
X000778Y008391D03*
X000774Y008391D03*
X000772Y008391D03*
X000768Y008391D03*
X000764Y008391D03*
X000762Y008391D03*
X000758Y008391D03*
X000754Y008391D03*
X000752Y008391D03*
X000748Y008391D03*
X000744Y008391D03*
X000742Y008391D03*
X000738Y008391D03*
X000734Y008391D03*
X000732Y008391D03*
X000728Y008391D03*
X000788Y008391D03*
X000792Y008391D03*
X000794Y008391D03*
X000798Y008391D03*
X000802Y008391D03*
X000804Y008391D03*
X000808Y008391D03*
X000812Y008391D03*
X000814Y008391D03*
X000818Y008391D03*
X000822Y008391D03*
X000824Y008391D03*
X000828Y008391D03*
X000832Y008391D03*
X000834Y008391D03*
X000838Y008391D03*
X000842Y008391D03*
X000844Y008391D03*
X000848Y008391D03*
X000852Y008391D03*
X000854Y008391D03*
X000858Y008391D03*
X000862Y008391D03*
X000864Y008391D03*
X000868Y008391D03*
X000872Y008391D03*
X000658Y008391D03*
X000654Y008391D03*
X000652Y008391D03*
X000648Y008391D03*
X000644Y008391D03*
X000642Y008391D03*
X000638Y008391D03*
X000634Y008391D03*
X000632Y008391D03*
X000628Y008391D03*
X000624Y008391D03*
X000622Y008391D03*
X000618Y008391D03*
X000614Y008391D03*
X000612Y008391D03*
X000608Y008391D03*
X000604Y008391D03*
X000602Y008391D03*
X000598Y008391D03*
X000594Y008391D03*
X000592Y008391D03*
X000588Y008391D03*
X000584Y008391D03*
X000582Y008391D03*
X000578Y008391D03*
X000574Y008391D03*
X000572Y008391D03*
X000568Y008391D03*
X000564Y008391D03*
X000562Y008391D03*
X000558Y008391D03*
X000554Y008391D03*
X000552Y008391D03*
X000548Y008391D03*
X000544Y008391D03*
X000542Y008391D03*
X000538Y008391D03*
X000534Y008391D03*
X000532Y008391D03*
X000528Y008391D03*
X000524Y008391D03*
X000522Y008391D03*
X000578Y008659D03*
X000582Y008659D03*
X000594Y008659D03*
X000598Y008659D03*
X000602Y008659D03*
X000682Y008871D03*
X000688Y008869D03*
X000698Y008865D03*
X000702Y008863D03*
X000674Y008875D03*
X000658Y008883D03*
X000654Y008883D03*
X000652Y008885D03*
X000638Y008891D03*
X000622Y008899D03*
X000618Y008899D03*
X000594Y008911D03*
X000588Y008913D03*
X000582Y008915D03*
X000574Y008919D03*
X000568Y008921D03*
X000544Y009009D03*
X000548Y009011D03*
X000552Y009013D03*
X000558Y009015D03*
X000572Y009021D03*
X000574Y009023D03*
X000578Y009023D03*
X000584Y009025D03*
X000588Y009029D03*
X000592Y009029D03*
X000594Y009031D03*
X000602Y009035D03*
X000604Y009035D03*
X000614Y009039D03*
X000622Y009043D03*
X000624Y009045D03*
X000628Y009045D03*
X000644Y009053D03*
X000658Y009059D03*
X000664Y009061D03*
X000668Y009063D03*
X000672Y009065D03*
X000684Y009069D03*
X000688Y009073D03*
X000692Y009073D03*
X000694Y009075D03*
X000784Y009113D03*
X000812Y009125D03*
X000814Y009299D03*
X000818Y009299D03*
X000822Y009299D03*
X000834Y009299D03*
X000838Y009299D03*
X000842Y009299D03*
X000854Y009299D03*
X000858Y009299D03*
X000862Y009299D03*
X000802Y009299D03*
X000798Y009299D03*
X000794Y009299D03*
X000782Y009299D03*
X000778Y009299D03*
X000774Y009299D03*
X000762Y009299D03*
X000758Y009299D03*
X000754Y009299D03*
X000742Y009299D03*
X000738Y009299D03*
X000734Y009299D03*
X000722Y009299D03*
X000718Y009299D03*
X000714Y009299D03*
X000702Y009299D03*
X000698Y009299D03*
X000694Y009299D03*
X000682Y009299D03*
X000678Y009299D03*
X000674Y009299D03*
X000662Y009299D03*
X000658Y009299D03*
X000654Y009299D03*
X000642Y009299D03*
X000638Y009299D03*
X000634Y009299D03*
X000622Y009299D03*
X000618Y009299D03*
X000614Y009299D03*
X000602Y009299D03*
X000598Y009299D03*
X000594Y009299D03*
X000582Y009299D03*
X000578Y009299D03*
X000458Y008971D03*
X000454Y008971D03*
X000772Y008833D03*
X000778Y008831D03*
X000784Y008829D03*
X000792Y008825D03*
X000814Y008815D03*
X000828Y008809D03*
X000842Y008803D03*
X000848Y008801D03*
X001424Y008161D03*
X001424Y007589D03*
X001344Y007305D03*
X001344Y006985D03*
X001348Y006985D03*
X001352Y006985D03*
X001364Y006985D03*
X001368Y006985D03*
X001372Y006985D03*
X001384Y006985D03*
X001388Y006985D03*
X001392Y006985D03*
X001404Y006985D03*
X001408Y006985D03*
X001412Y006985D03*
X001424Y006985D03*
X001428Y006985D03*
X001432Y006985D03*
X001444Y006985D03*
X001448Y006985D03*
X001452Y006985D03*
X001464Y006985D03*
X001468Y006985D03*
X001472Y006985D03*
X001484Y006985D03*
X001488Y006985D03*
X001492Y006985D03*
X001504Y006985D03*
X001508Y006985D03*
X001512Y006985D03*
X001524Y006985D03*
X001528Y006985D03*
X001532Y006985D03*
X001544Y006985D03*
X001548Y006985D03*
X001552Y006985D03*
X001564Y006985D03*
X001568Y006985D03*
X001572Y006985D03*
X001584Y006985D03*
X001588Y006985D03*
X001592Y006985D03*
X001332Y006985D03*
X001328Y006985D03*
X001324Y006985D03*
X001312Y006985D03*
X001308Y006985D03*
X001304Y006985D03*
X001292Y006985D03*
X001288Y006985D03*
X001284Y006985D03*
X001272Y006985D03*
X001268Y006985D03*
X001264Y006985D03*
X001252Y006985D03*
X001248Y006985D03*
X001248Y006905D03*
X001322Y006771D03*
X001328Y006769D03*
X001342Y006763D03*
X001344Y006763D03*
X001348Y006761D03*
X001352Y006761D03*
X001354Y006759D03*
X001362Y006755D03*
X001364Y006755D03*
X001368Y006753D03*
X001374Y006751D03*
X001378Y006751D03*
X001394Y006743D03*
X001438Y006603D03*
X001432Y006601D03*
X001418Y006595D03*
X001414Y006595D03*
X001412Y006593D03*
X001392Y006585D03*
X001388Y006585D03*
X001384Y006583D03*
X001374Y006579D03*
X001354Y006571D03*
X001352Y006569D03*
X001348Y006569D03*
X001328Y006561D03*
X001584Y006665D03*
X000604Y007245D03*
X000592Y007245D03*
X000588Y007245D03*
X000584Y007245D03*
X000582Y010159D03*
X000584Y010159D03*
X000588Y010159D03*
X000592Y010159D03*
X000594Y010159D03*
X000598Y010159D03*
X000602Y010159D03*
X000604Y010159D03*
X000608Y010159D03*
X000612Y010159D03*
X000614Y010159D03*
X000618Y010159D03*
X000622Y010159D03*
X000624Y010159D03*
X000628Y010159D03*
X000632Y010159D03*
X000634Y010159D03*
X000638Y010159D03*
X000642Y010159D03*
X000644Y010159D03*
X000648Y010159D03*
X000652Y010159D03*
X000654Y010159D03*
X000658Y010159D03*
X000662Y010159D03*
X000664Y010159D03*
X000668Y010159D03*
X000672Y010159D03*
X000674Y010159D03*
X000678Y010159D03*
X000682Y010159D03*
X000684Y010159D03*
X000688Y010159D03*
X000692Y010159D03*
X000694Y010159D03*
X000698Y010159D03*
X000702Y010159D03*
X000704Y010159D03*
X000708Y010159D03*
X000712Y010159D03*
X000714Y010159D03*
X000718Y010159D03*
X000722Y010159D03*
X000724Y010159D03*
X000728Y010159D03*
X000732Y010159D03*
X000734Y010159D03*
X000738Y010159D03*
X000742Y010159D03*
X000744Y010159D03*
X000748Y010159D03*
X000752Y010159D03*
X000754Y010159D03*
X000758Y010159D03*
X000762Y010159D03*
X000764Y010159D03*
X000768Y010159D03*
X000772Y010159D03*
X000774Y010159D03*
X000778Y010159D03*
X000782Y010159D03*
X000784Y010159D03*
X000788Y010159D03*
X000792Y010159D03*
X000794Y010159D03*
X000798Y010159D03*
X000802Y010159D03*
X000804Y010159D03*
X000808Y010159D03*
X000812Y010159D03*
X000814Y010159D03*
X000818Y010159D03*
X000822Y010159D03*
X000824Y010159D03*
X000828Y010159D03*
X000832Y010159D03*
X000834Y010159D03*
X000838Y010159D03*
X000842Y010159D03*
X000844Y010159D03*
X000848Y010159D03*
X000852Y010159D03*
X000854Y010159D03*
X000858Y010159D03*
X000862Y010159D03*
X000864Y010159D03*
X000868Y010159D03*
X000872Y010159D03*
X000804Y010341D03*
X000802Y010341D03*
X000798Y010341D03*
X000794Y010341D03*
X000792Y010341D03*
X000788Y010341D03*
X000784Y010341D03*
X000782Y010341D03*
X000778Y010341D03*
X000774Y010341D03*
X000772Y010341D03*
X000768Y010341D03*
X000764Y010341D03*
X000762Y010341D03*
X000758Y010341D03*
X000754Y010341D03*
X000752Y010341D03*
X000748Y010341D03*
X000744Y010341D03*
X000742Y010341D03*
X000738Y010341D03*
X000734Y010341D03*
X000732Y010341D03*
X000728Y010341D03*
X000724Y010341D03*
X000722Y010341D03*
X000718Y010341D03*
X000714Y010341D03*
X000712Y010341D03*
X000708Y010341D03*
X000704Y010341D03*
X000702Y010341D03*
X000698Y010341D03*
X000628Y010341D03*
X000624Y010341D03*
X000622Y010341D03*
X000618Y010341D03*
X000614Y010341D03*
X000612Y010341D03*
X000608Y010341D03*
X000604Y010341D03*
X000602Y010341D03*
X000598Y010341D03*
X000594Y010341D03*
X000592Y010341D03*
X000588Y010341D03*
X000584Y010341D03*
X000582Y010341D03*
X000578Y010341D03*
X000574Y010341D03*
X000572Y010341D03*
X000568Y010341D03*
X000564Y010341D03*
X000562Y010341D03*
X000558Y010341D03*
X000554Y010341D03*
X000552Y010341D03*
X000548Y010341D03*
X000544Y010341D03*
X000542Y010341D03*
X000538Y010341D03*
X000534Y010341D03*
X000532Y010341D03*
X000528Y010341D03*
X000524Y010341D03*
X000522Y010341D03*
X000574Y010159D03*
X000578Y010159D03*
X000578Y010743D03*
X000574Y010743D03*
X000572Y010743D03*
X000568Y010743D03*
X000564Y010743D03*
X000562Y010743D03*
X000558Y010743D03*
X000554Y010743D03*
X000552Y010743D03*
X000548Y010743D03*
X000544Y010743D03*
X000542Y010743D03*
X000538Y010743D03*
X000534Y010743D03*
X000532Y010743D03*
X000528Y010743D03*
X000524Y010743D03*
X000522Y010743D03*
X000582Y010743D03*
X000584Y010743D03*
X000588Y010743D03*
X000592Y010743D03*
X000594Y010743D03*
X000598Y010743D03*
X000602Y010743D03*
X000604Y010743D03*
X000608Y010743D03*
X000612Y010743D03*
X000614Y010743D03*
X000618Y010743D03*
X000622Y010743D03*
X000624Y010743D03*
X000628Y010743D03*
X000632Y010743D03*
X000634Y010743D03*
X000638Y010743D03*
X000642Y010743D03*
X000644Y010743D03*
X000648Y010743D03*
X000652Y010743D03*
X000654Y010743D03*
X000658Y010743D03*
X000728Y010743D03*
X000732Y010743D03*
X000734Y010743D03*
X000738Y010743D03*
X000742Y010743D03*
X000744Y010743D03*
X000748Y010743D03*
X000752Y010743D03*
X000754Y010743D03*
X000758Y010743D03*
X000762Y010743D03*
X000764Y010743D03*
X000768Y010743D03*
X000772Y010743D03*
X000774Y010743D03*
X000778Y010743D03*
X000782Y010743D03*
X000784Y010743D03*
X000788Y010743D03*
X000792Y010743D03*
X000794Y010743D03*
X000798Y010743D03*
X000802Y010743D03*
X000804Y010743D03*
X000808Y010743D03*
X000812Y010743D03*
X000814Y010743D03*
X000818Y010743D03*
X000822Y010743D03*
X000824Y010743D03*
X000828Y010743D03*
X000832Y010743D03*
X000834Y010743D03*
X000838Y010743D03*
X000842Y010743D03*
X000844Y010743D03*
X000848Y010743D03*
X000852Y010743D03*
X000854Y010743D03*
X000858Y010743D03*
X000862Y010743D03*
X000864Y010743D03*
X000868Y010743D03*
X000872Y010743D03*
X000612Y011009D03*
X000602Y011011D03*
X000598Y011011D03*
X000594Y011011D03*
X000582Y011011D03*
X000578Y011011D03*
X000572Y011345D03*
X000568Y011345D03*
X000564Y011345D03*
X000562Y011345D03*
X000552Y011345D03*
X000792Y011345D03*
X000774Y011579D03*
X000772Y011581D03*
X000768Y011581D03*
X000764Y011581D03*
X000762Y011581D03*
X000758Y011581D03*
X000752Y011581D03*
X000748Y011581D03*
X000748Y011741D03*
X000744Y011741D03*
X000742Y011741D03*
X000738Y011741D03*
X000734Y011741D03*
X000732Y011741D03*
X000728Y011741D03*
X000724Y011741D03*
X000722Y011741D03*
X000718Y011741D03*
X000714Y011741D03*
X000712Y011741D03*
X000708Y011741D03*
X000704Y011741D03*
X000702Y011741D03*
X000698Y011741D03*
X000752Y011741D03*
X000754Y011741D03*
X000758Y011741D03*
X000762Y011741D03*
X000764Y011741D03*
X000768Y011741D03*
X000772Y011741D03*
X000774Y011741D03*
X000778Y011741D03*
X000782Y011741D03*
X000784Y011741D03*
X000788Y011741D03*
X000792Y011741D03*
X000794Y011741D03*
X000798Y011741D03*
X000802Y011741D03*
X000804Y011741D03*
X000808Y011741D03*
X000812Y011741D03*
X000814Y011741D03*
X000818Y011741D03*
X000822Y011741D03*
X000824Y011741D03*
X000828Y011741D03*
X000832Y011741D03*
X000834Y011741D03*
X000838Y011741D03*
X000842Y011741D03*
X000844Y011741D03*
X000848Y011741D03*
X000852Y011741D03*
X000854Y011741D03*
X000858Y011741D03*
X000862Y011741D03*
X000864Y011741D03*
X000868Y011741D03*
X000872Y011741D03*
X000624Y011741D03*
X000622Y011741D03*
X000618Y011741D03*
X000614Y011741D03*
X000612Y011741D03*
X000608Y011741D03*
X000604Y011741D03*
X000602Y011741D03*
X000598Y011741D03*
X000594Y011741D03*
X000592Y011741D03*
X000588Y011741D03*
X000584Y011741D03*
X000582Y011741D03*
X000578Y011741D03*
X000574Y011741D03*
X000572Y011741D03*
X000568Y011741D03*
X000564Y011741D03*
X000562Y011741D03*
X000558Y011741D03*
X000554Y011741D03*
X000552Y011741D03*
X000548Y011741D03*
X000544Y011741D03*
X000542Y011741D03*
X000538Y011741D03*
X000534Y011741D03*
X000532Y011741D03*
X000528Y011741D03*
X000524Y011741D03*
X000522Y011741D03*
X000518Y011741D03*
X000514Y011741D03*
X000512Y011741D03*
X000508Y011741D03*
X000504Y011741D03*
X000502Y011741D03*
X000498Y011741D03*
X000494Y011741D03*
X000492Y011741D03*
X000488Y011741D03*
X000484Y011741D03*
X000482Y011741D03*
X000478Y011741D03*
X000474Y011741D03*
X000472Y011741D03*
X000468Y011741D03*
X000464Y011741D03*
X000462Y011741D03*
X000458Y011741D03*
X000454Y011741D03*
X000454Y012015D03*
X000458Y012015D03*
X000462Y012015D03*
X000464Y012015D03*
X000468Y012015D03*
X000472Y012015D03*
X000474Y012015D03*
X000478Y012015D03*
X000482Y012015D03*
X000484Y012015D03*
X000488Y012015D03*
X000492Y012015D03*
X000494Y012015D03*
X000498Y012015D03*
X000502Y012015D03*
X000504Y012015D03*
X000508Y012015D03*
X000512Y012015D03*
X000514Y012015D03*
X000518Y012015D03*
X000522Y012015D03*
X000524Y012015D03*
X000528Y012015D03*
X000532Y012015D03*
X000534Y012015D03*
X000538Y012015D03*
X000542Y012015D03*
X000544Y012015D03*
X000548Y012015D03*
X000552Y012015D03*
X000554Y012015D03*
X000558Y012015D03*
X000562Y012015D03*
X000564Y012015D03*
X000568Y012015D03*
X000572Y012015D03*
X000574Y012015D03*
X000578Y012015D03*
X000582Y012015D03*
X000584Y012015D03*
X000588Y012015D03*
X000592Y012015D03*
X000594Y012015D03*
X000598Y012015D03*
X000602Y012015D03*
X000604Y012015D03*
X000608Y012015D03*
X000612Y012015D03*
X000614Y012015D03*
X000618Y012015D03*
X000622Y012015D03*
X000624Y012015D03*
X000698Y012015D03*
X000702Y012015D03*
X000704Y012015D03*
X000708Y012015D03*
X000712Y012015D03*
X000714Y012015D03*
X000718Y012015D03*
X000722Y012015D03*
X000724Y012015D03*
X000728Y012015D03*
X000732Y012015D03*
X000734Y012015D03*
X000738Y012015D03*
X000742Y012015D03*
X000744Y012015D03*
X000748Y012015D03*
X000752Y012015D03*
X000754Y012015D03*
X000758Y012015D03*
X000762Y012015D03*
X000764Y012015D03*
X000768Y012015D03*
X000772Y012015D03*
X000774Y012015D03*
X000778Y012015D03*
X000782Y012015D03*
X000784Y012015D03*
X000788Y012015D03*
X000792Y012015D03*
X000794Y012015D03*
X000798Y012015D03*
X000802Y012015D03*
X000804Y012015D03*
X000808Y012015D03*
X000812Y012015D03*
X000814Y012015D03*
X000818Y012015D03*
X000822Y012015D03*
X000824Y012015D03*
X000828Y012015D03*
X000832Y012015D03*
X000834Y012015D03*
X000838Y012015D03*
X000842Y012015D03*
X000844Y012015D03*
X000848Y012015D03*
X000852Y012015D03*
X000854Y012015D03*
X000858Y012015D03*
X000862Y012015D03*
X000864Y012015D03*
X000868Y012015D03*
X000872Y012015D03*
X000872Y012201D03*
X000868Y012201D03*
X000864Y012201D03*
X000862Y012201D03*
X000858Y012201D03*
X000854Y012201D03*
X000852Y012201D03*
X000848Y012201D03*
X000844Y012201D03*
X000842Y012201D03*
X000838Y012201D03*
X000834Y012201D03*
X000832Y012201D03*
X000828Y012201D03*
X000824Y012201D03*
X000822Y012201D03*
X000818Y012201D03*
X000814Y012201D03*
X000812Y012201D03*
X000808Y012201D03*
X000804Y012201D03*
X000802Y012201D03*
X000798Y012201D03*
X000794Y012201D03*
X000792Y012201D03*
X000788Y012201D03*
X000784Y012201D03*
X000782Y012201D03*
X000778Y012201D03*
X000774Y012201D03*
X000772Y012201D03*
X000768Y012201D03*
X000764Y012201D03*
X000762Y012201D03*
X000758Y012201D03*
X000754Y012201D03*
X000752Y012201D03*
X000748Y012201D03*
X000744Y012201D03*
X000742Y012201D03*
X000738Y012201D03*
X000734Y012201D03*
X000732Y012201D03*
X000728Y012201D03*
X000724Y012201D03*
X000722Y012201D03*
X000718Y012201D03*
X000714Y012201D03*
X000712Y012201D03*
X000708Y012201D03*
X000704Y012201D03*
X000702Y012201D03*
X000698Y012201D03*
X000694Y012201D03*
X000692Y012201D03*
X000688Y012201D03*
X000684Y012201D03*
X000682Y012201D03*
X000678Y012201D03*
X000674Y012201D03*
X000672Y012201D03*
X000668Y012201D03*
X000664Y012201D03*
X000662Y012201D03*
X000658Y012201D03*
X000654Y012201D03*
X000652Y012201D03*
X000648Y012201D03*
X000644Y012201D03*
X000642Y012201D03*
X000638Y012201D03*
X000634Y012201D03*
X000632Y012201D03*
X000628Y012201D03*
X000624Y012201D03*
X000622Y012201D03*
X000618Y012201D03*
X000614Y012201D03*
X000612Y012201D03*
X000608Y012201D03*
X000604Y012201D03*
X000602Y012201D03*
X000598Y012201D03*
X000594Y012201D03*
X000592Y012201D03*
X000588Y012201D03*
X000584Y012201D03*
X000582Y012201D03*
X000578Y012201D03*
X000574Y012201D03*
X000572Y012201D03*
X000568Y012201D03*
X000564Y012201D03*
X000562Y012201D03*
X000558Y012201D03*
X000554Y012201D03*
X000552Y012201D03*
X000548Y012201D03*
X000544Y012201D03*
X000542Y012201D03*
X000538Y012201D03*
X000534Y012201D03*
X000532Y012201D03*
X000528Y012201D03*
X000524Y012201D03*
X000522Y012201D03*
X000518Y012201D03*
X000514Y012201D03*
X000512Y012201D03*
X000508Y012201D03*
X000504Y012201D03*
X000502Y012201D03*
X000498Y012201D03*
X000494Y012201D03*
X000492Y012201D03*
X000488Y012201D03*
X000484Y012201D03*
X000482Y012201D03*
X000478Y012201D03*
X000474Y012201D03*
X000472Y012201D03*
X000468Y012201D03*
X000464Y012201D03*
X000462Y012201D03*
X000458Y012201D03*
X000454Y012201D03*
X000454Y012789D03*
X000458Y012789D03*
X000462Y012789D03*
X000464Y012789D03*
X000468Y012789D03*
X000472Y012789D03*
X000474Y012789D03*
X000478Y012789D03*
X000482Y012789D03*
X000484Y012789D03*
X000488Y012789D03*
X000492Y012789D03*
X000494Y012789D03*
X000498Y012789D03*
X000502Y012789D03*
X000504Y012789D03*
X000508Y012789D03*
X000512Y012789D03*
X000514Y012789D03*
X000518Y012789D03*
X000522Y012789D03*
X000524Y012789D03*
X000528Y012789D03*
X000532Y012789D03*
X000534Y012789D03*
X000538Y012789D03*
X000542Y012789D03*
X000544Y012789D03*
X000548Y012789D03*
X000552Y012789D03*
X000554Y012789D03*
X000558Y012789D03*
X000562Y012789D03*
X000564Y012789D03*
X000568Y012789D03*
X000572Y012789D03*
X000574Y012789D03*
X000578Y012789D03*
X000582Y012789D03*
X000584Y012789D03*
X000588Y012789D03*
X000592Y012789D03*
X000594Y012789D03*
X000598Y012789D03*
X000602Y012789D03*
X000604Y012789D03*
X000608Y012789D03*
X000612Y012789D03*
X000614Y012789D03*
X000618Y012789D03*
X000622Y012789D03*
X000624Y012789D03*
X000628Y012789D03*
X000632Y012789D03*
X000634Y012789D03*
X000638Y012789D03*
X000642Y012789D03*
X000644Y012789D03*
X000648Y012789D03*
X000652Y012789D03*
X000654Y012789D03*
X000658Y012789D03*
X000662Y012789D03*
X000664Y012789D03*
X000668Y012789D03*
X000672Y012789D03*
X000674Y012789D03*
X000678Y012789D03*
X000682Y012789D03*
X000684Y012789D03*
X000688Y012789D03*
X000692Y012789D03*
X000694Y012789D03*
X000698Y012789D03*
X000702Y012789D03*
X000704Y012789D03*
X000708Y012789D03*
X000712Y012789D03*
X000714Y012789D03*
X000718Y012789D03*
X000722Y012789D03*
X000724Y012789D03*
X000728Y012789D03*
X000732Y012789D03*
X000734Y012789D03*
X000738Y012789D03*
X000742Y012789D03*
X000744Y012789D03*
X000748Y012789D03*
X000752Y012789D03*
X000754Y012789D03*
X000758Y012789D03*
X000762Y012789D03*
X000764Y012789D03*
X000768Y012789D03*
X000772Y012789D03*
X000774Y012789D03*
X000778Y012789D03*
X000782Y012789D03*
X000784Y012789D03*
X000788Y012789D03*
X000792Y012789D03*
X000794Y012789D03*
X000798Y012789D03*
X000802Y012789D03*
X000804Y012789D03*
X000804Y013161D03*
X000802Y013161D03*
X000798Y013161D03*
X000794Y013161D03*
X000792Y013161D03*
X000788Y013161D03*
X000784Y013161D03*
X000782Y013161D03*
X000778Y013161D03*
X000774Y013161D03*
X000772Y013161D03*
X000768Y013161D03*
X000764Y013161D03*
X000762Y013161D03*
X000758Y013161D03*
X000754Y013161D03*
X000752Y013161D03*
X000748Y013161D03*
X000744Y013161D03*
X000742Y013161D03*
X000738Y013161D03*
X000734Y013161D03*
X000732Y013161D03*
X000728Y013161D03*
X000724Y013161D03*
X000722Y013161D03*
X000718Y013161D03*
X000714Y013161D03*
X000712Y013161D03*
X000708Y013161D03*
X000704Y013161D03*
X000702Y013161D03*
X000698Y013161D03*
X000694Y013161D03*
X000692Y013161D03*
X000688Y013161D03*
X000684Y013161D03*
X000682Y013161D03*
X000678Y013161D03*
X000674Y013161D03*
X000672Y013161D03*
X000668Y013161D03*
X000664Y013161D03*
X000662Y013161D03*
X000658Y013161D03*
X000654Y013161D03*
X000652Y013161D03*
X000648Y013161D03*
X000644Y013161D03*
X000642Y013161D03*
X000638Y013161D03*
X000634Y013161D03*
X000632Y013161D03*
X000628Y013161D03*
X000624Y013161D03*
X000622Y013161D03*
X000618Y013161D03*
X000614Y013161D03*
X000612Y013161D03*
X000608Y013161D03*
X000604Y013161D03*
X000602Y013161D03*
X000598Y013161D03*
X000594Y013161D03*
X000592Y013161D03*
X000588Y013161D03*
X000584Y013161D03*
X000582Y013161D03*
X000578Y013161D03*
X000574Y013161D03*
X000572Y013161D03*
X000568Y013161D03*
X000564Y013161D03*
X000562Y013161D03*
X000558Y013161D03*
X000554Y013161D03*
X000552Y013161D03*
X000548Y013161D03*
X000544Y013161D03*
X000542Y013161D03*
X000538Y013161D03*
X000534Y013161D03*
X000532Y013161D03*
X000528Y013161D03*
X000524Y013161D03*
X000522Y013161D03*
D23*
X000604Y013456D03*
X000618Y013460D03*
X000624Y013462D03*
X000638Y013464D03*
X000694Y013462D03*
X000698Y013462D03*
X000738Y011578D03*
X000732Y011576D03*
X000592Y011350D03*
X000588Y011348D03*
X000534Y011352D03*
X000532Y011354D03*
X000562Y011008D03*
X000618Y011008D03*
X000622Y011006D03*
X000454Y010156D03*
X000598Y010064D03*
X000608Y010058D03*
X000614Y010054D03*
X000622Y010048D03*
X000624Y010048D03*
X000632Y010042D03*
X000612Y009924D03*
X000454Y009824D03*
X000454Y009634D03*
X000584Y009552D03*
X000592Y009546D03*
X000604Y009538D03*
X000608Y009536D03*
X000618Y009530D03*
X000632Y009520D03*
X000638Y009516D03*
X000642Y009514D03*
X000644Y009512D03*
X000648Y009510D03*
X000644Y009422D03*
X000454Y009302D03*
X000862Y009146D03*
X000618Y008656D03*
X000622Y008654D03*
X000562Y008656D03*
X001292Y008146D03*
X001308Y008152D03*
X001318Y008156D03*
X001462Y008152D03*
X001468Y008150D03*
X001472Y007890D03*
X001454Y007884D03*
X001318Y007882D03*
X001314Y007884D03*
X001302Y007888D03*
X001298Y007888D03*
X001512Y007732D03*
X001514Y007732D03*
X001518Y007732D03*
X001522Y007732D03*
X001524Y007732D03*
X001528Y007732D03*
X001532Y007732D03*
X001534Y007732D03*
X001538Y007732D03*
X001542Y007732D03*
X001544Y007732D03*
X001548Y007732D03*
X001552Y007732D03*
X001554Y007732D03*
X001558Y007732D03*
X001562Y007732D03*
X001564Y007732D03*
X001568Y007732D03*
X001572Y007732D03*
X001574Y007732D03*
X001578Y007732D03*
X001582Y007732D03*
X001584Y007732D03*
X001588Y007732D03*
X001592Y007732D03*
X001484Y007570D03*
X001472Y007576D03*
X001468Y007578D03*
X001462Y007580D03*
X001454Y007582D03*
X001334Y007588D03*
X001318Y007584D03*
X001314Y007582D03*
X001312Y007582D03*
X001308Y007580D03*
X001292Y007574D03*
X001284Y007322D03*
X001314Y007312D03*
X001438Y007308D03*
X001454Y007312D03*
X001458Y007314D03*
X001472Y007318D03*
X001512Y007160D03*
X001514Y007160D03*
X001518Y007160D03*
X001522Y007160D03*
X001524Y007160D03*
X001528Y007160D03*
X001532Y007160D03*
X001534Y007160D03*
X001538Y007160D03*
X001542Y007160D03*
X001544Y007160D03*
X001548Y007160D03*
X001552Y007160D03*
X001554Y007160D03*
X001558Y007160D03*
X001562Y007160D03*
X001564Y007160D03*
X001568Y007160D03*
X001572Y007160D03*
X001574Y007160D03*
X001578Y007160D03*
X001582Y007160D03*
X001584Y007160D03*
X001588Y007160D03*
X001592Y007160D03*
X000714Y007402D03*
X000708Y007400D03*
X000698Y007398D03*
X000682Y007396D03*
X000678Y007396D03*
X000618Y007400D03*
X000612Y007402D03*
X000604Y007404D03*
X000602Y007404D03*
X000622Y007240D03*
X000562Y007242D03*
X000552Y007238D03*
X000558Y006822D03*
X000562Y006822D03*
X001294Y006548D03*
X000732Y007742D03*
X000728Y007744D03*
X000714Y007748D03*
X000702Y007752D03*
X000682Y007754D03*
X000678Y007754D03*
X000642Y007754D03*
X000628Y007752D03*
X000618Y007750D03*
X000612Y007748D03*
X000608Y007748D03*
X000604Y007746D03*
X000634Y007906D03*
X000638Y007906D03*
X000624Y007908D03*
X000618Y007910D03*
X000604Y007914D03*
X000694Y007906D03*
X000698Y007908D03*
X000702Y007908D03*
X000704Y007908D03*
X000708Y007910D03*
D24*
X000798Y007693D03*
X000532Y007699D03*
X000528Y007455D03*
X001238Y007533D03*
X001532Y007527D03*
X001592Y007447D03*
X001238Y007933D03*
X001238Y008105D03*
X001592Y008019D03*
X000502Y009317D03*
X000688Y009467D03*
X000504Y009839D03*
X000502Y009839D03*
X000502Y010141D03*
X000514Y011377D03*
X000538Y013409D03*
X001542Y006665D03*
D25*
X001590Y006665D03*
X001506Y006629D03*
X001500Y006627D03*
X001496Y006627D03*
X001490Y006625D03*
X001486Y006621D03*
X001480Y006619D03*
X001476Y006619D03*
X001460Y006611D03*
X001456Y006611D03*
X001436Y006603D03*
X001416Y006595D03*
X001470Y006713D03*
X001476Y006711D03*
X001486Y006709D03*
X001460Y006719D03*
X001456Y006719D03*
X001450Y006721D03*
X001440Y006727D03*
X001436Y006727D03*
X001430Y006729D03*
X001416Y006735D03*
X001410Y006737D03*
X001396Y006743D03*
X000780Y008223D03*
X000776Y008223D03*
X000760Y008223D03*
X000756Y008223D03*
X000740Y008223D03*
X000736Y008223D03*
X000720Y008223D03*
X000716Y008223D03*
X000656Y008883D03*
X000620Y008899D03*
X000600Y008907D03*
X000556Y008927D03*
X000550Y008929D03*
X000456Y008971D03*
X000720Y009467D03*
X000790Y011345D03*
D26*
X000796Y009298D03*
X000800Y009298D03*
X000816Y009298D03*
X000820Y009298D03*
X000836Y009298D03*
X000840Y009298D03*
X000856Y009298D03*
X000860Y009298D03*
X000780Y009298D03*
X000776Y009298D03*
X000760Y009298D03*
X000756Y009298D03*
X000740Y009298D03*
X000736Y009298D03*
X000720Y009298D03*
X000716Y009298D03*
X000700Y009298D03*
X000696Y009298D03*
X000680Y009298D03*
X000676Y009298D03*
X000660Y009298D03*
X000656Y009298D03*
X000640Y009298D03*
X000636Y009298D03*
X000620Y009298D03*
X000616Y009298D03*
X000600Y009298D03*
X000596Y009298D03*
X000580Y009298D03*
X000576Y009298D03*
X000566Y008922D03*
X000576Y008918D03*
X000580Y008916D03*
X000590Y008912D03*
X000636Y008892D03*
X000650Y008886D03*
X000690Y008868D03*
X000706Y008222D03*
X000710Y008222D03*
X000726Y008222D03*
X000730Y008222D03*
X000746Y008222D03*
X000750Y008222D03*
X000766Y008222D03*
X000770Y008222D03*
X001250Y006986D03*
X001266Y006986D03*
X001270Y006986D03*
X001286Y006986D03*
X001290Y006986D03*
X001306Y006986D03*
X001310Y006986D03*
X001326Y006986D03*
X001330Y006986D03*
X001346Y006986D03*
X001350Y006986D03*
X001366Y006986D03*
X001370Y006986D03*
X001386Y006986D03*
X001390Y006986D03*
X001406Y006986D03*
X001410Y006986D03*
X001426Y006986D03*
X001430Y006986D03*
X001446Y006986D03*
X001450Y006986D03*
X001466Y006986D03*
X001470Y006986D03*
X001486Y006986D03*
X001490Y006986D03*
X001506Y006986D03*
X001510Y006986D03*
X001526Y006986D03*
X001530Y006986D03*
X001546Y006986D03*
X001550Y006986D03*
X001566Y006986D03*
X001570Y006986D03*
X001586Y006986D03*
X001590Y006986D03*
X001466Y006716D03*
X001470Y006616D03*
X001450Y006608D03*
X001420Y006596D03*
X001410Y006592D03*
X001396Y006588D03*
X001356Y006758D03*
D27*
X001516Y007160D03*
X001520Y007160D03*
X001526Y007160D03*
X001530Y007160D03*
X001536Y007160D03*
X001540Y007160D03*
X001546Y007160D03*
X001550Y007160D03*
X001556Y007160D03*
X001560Y007160D03*
X001566Y007160D03*
X001570Y007160D03*
X001576Y007160D03*
X001580Y007160D03*
X001586Y007160D03*
X001590Y007160D03*
X001466Y007316D03*
X001460Y007314D03*
X001456Y007312D03*
X001296Y007318D03*
X001300Y007578D03*
X001306Y007580D03*
X001330Y007586D03*
X001450Y007584D03*
X001466Y007578D03*
X001470Y007576D03*
X001476Y007574D03*
X001516Y007732D03*
X001520Y007732D03*
X001526Y007732D03*
X001530Y007732D03*
X001536Y007732D03*
X001540Y007732D03*
X001546Y007732D03*
X001550Y007732D03*
X001556Y007732D03*
X001560Y007732D03*
X001566Y007732D03*
X001570Y007732D03*
X001576Y007732D03*
X001580Y007732D03*
X001586Y007732D03*
X001590Y007732D03*
X001470Y007890D03*
X001460Y007886D03*
X001456Y007884D03*
X001306Y007886D03*
X001300Y007888D03*
X001296Y007890D03*
X001300Y008150D03*
X001330Y008158D03*
X001450Y008156D03*
X001466Y008150D03*
X001470Y008148D03*
X001476Y008146D03*
X000786Y008218D03*
X000710Y007910D03*
X000690Y007906D03*
X000630Y007908D03*
X000620Y007910D03*
X000610Y007912D03*
X000606Y007914D03*
X000600Y007916D03*
X000626Y007752D03*
X000646Y007754D03*
X000706Y007750D03*
X000716Y007748D03*
X000720Y007404D03*
X000716Y007402D03*
X000710Y007400D03*
X000696Y007398D03*
X000646Y007396D03*
X000626Y007398D03*
X000616Y007400D03*
X000610Y007402D03*
X000596Y007406D03*
X000560Y007242D03*
X000556Y007240D03*
X000626Y007238D03*
X000626Y006822D03*
X000566Y006824D03*
X000560Y006822D03*
X000626Y008652D03*
X000846Y009140D03*
X000620Y009406D03*
X000636Y009518D03*
X000630Y009522D03*
X000620Y009528D03*
X000616Y009530D03*
X000606Y009538D03*
X000596Y009544D03*
X000580Y009554D03*
X000456Y009302D03*
X000456Y009824D03*
X000610Y010056D03*
X000620Y010050D03*
X000456Y010156D03*
X000626Y011004D03*
X000586Y011348D03*
X000590Y011350D03*
X000736Y011578D03*
X000786Y011576D03*
X000716Y013458D03*
X000690Y013464D03*
X000630Y013462D03*
X000626Y013462D03*
X000620Y013460D03*
D28*
X000800Y013391D03*
X000526Y010133D03*
X000526Y009847D03*
X000526Y009611D03*
X000676Y009467D03*
X000526Y009325D03*
X000516Y008971D03*
X000806Y007469D03*
X001590Y007445D03*
D29*
X000806Y007975D03*
X001590Y008019D03*
X000520Y007469D03*
X000520Y009845D03*
X000680Y009989D03*
X000520Y010135D03*
X000530Y013399D03*
D30*
X000578Y009820D03*
X000582Y009820D03*
X000584Y009820D03*
X000588Y009820D03*
X000592Y009820D03*
X000594Y009820D03*
X000598Y009820D03*
X000602Y009820D03*
X000604Y009820D03*
X000608Y009820D03*
X000612Y009820D03*
X000614Y009820D03*
X000618Y009820D03*
X000622Y009820D03*
X000624Y009820D03*
X000628Y009820D03*
X000632Y009820D03*
X000634Y009820D03*
X000638Y009820D03*
X000642Y009820D03*
X000644Y009820D03*
X000648Y009820D03*
X000652Y009820D03*
X000654Y009820D03*
X000658Y009820D03*
X000662Y009820D03*
X000664Y009820D03*
X000668Y009820D03*
X000672Y009820D03*
X000674Y009820D03*
X000678Y009820D03*
X000682Y009820D03*
X000684Y009820D03*
X000688Y009820D03*
X000692Y009820D03*
X000694Y009820D03*
X000698Y009820D03*
X000702Y009820D03*
X000704Y009820D03*
X000708Y009820D03*
X000712Y009820D03*
X000714Y009820D03*
X000718Y009820D03*
X000722Y009820D03*
X000724Y009820D03*
X000728Y009820D03*
X000732Y009820D03*
X000734Y009820D03*
X000738Y009820D03*
X000742Y009820D03*
X000744Y009820D03*
X000748Y009820D03*
X000752Y009820D03*
X000754Y009820D03*
X000758Y009820D03*
X000762Y009820D03*
X000764Y009820D03*
X000768Y009820D03*
X000772Y009820D03*
X000774Y009820D03*
X000778Y009820D03*
X000782Y009820D03*
X000784Y009820D03*
X000788Y009820D03*
X000792Y009820D03*
X000794Y009820D03*
X000798Y009820D03*
X000802Y009820D03*
X000804Y009820D03*
X000808Y009820D03*
X000812Y009820D03*
X000814Y009820D03*
X000818Y009820D03*
X000822Y009820D03*
X000824Y009820D03*
X000828Y009820D03*
X000832Y009820D03*
X000834Y009820D03*
X000838Y009820D03*
X000842Y009820D03*
X000844Y009820D03*
X000848Y009820D03*
X000852Y009820D03*
X000854Y009820D03*
X000858Y009820D03*
X000862Y009820D03*
X000864Y009820D03*
X000868Y009820D03*
X000872Y009820D03*
X000568Y009020D03*
X000548Y008930D03*
X000562Y008924D03*
X000572Y008920D03*
X000608Y008904D03*
X000632Y008894D03*
X000642Y008890D03*
X000662Y008880D03*
X000664Y008880D03*
X000678Y008874D03*
X001392Y006744D03*
X001402Y006740D03*
X001418Y006734D03*
X001464Y006614D03*
X001454Y006610D03*
X001404Y006590D03*
X001402Y006590D03*
X001588Y006664D03*
D31*
X001588Y007447D03*
X000454Y007577D03*
X000672Y009467D03*
X000538Y009607D03*
X000524Y013387D03*
D32*
X000534Y010131D03*
X000532Y009849D03*
X000532Y009609D03*
X000674Y009467D03*
X000534Y009327D03*
X000522Y008971D03*
X000518Y008971D03*
X001534Y008091D03*
X001588Y008017D03*
X001534Y007947D03*
X001534Y007375D03*
X000808Y007473D03*
D33*
X000600Y007245D03*
X000596Y007245D03*
X000580Y007245D03*
X000576Y007245D03*
X001256Y006985D03*
X001260Y006985D03*
X001276Y006985D03*
X001280Y006985D03*
X001296Y006985D03*
X001300Y006985D03*
X001316Y006985D03*
X001320Y006985D03*
X001336Y006985D03*
X001340Y006985D03*
X001356Y006985D03*
X001360Y006985D03*
X001376Y006985D03*
X001380Y006985D03*
X001396Y006985D03*
X001400Y006985D03*
X001416Y006985D03*
X001420Y006985D03*
X001436Y006985D03*
X001440Y006985D03*
X001456Y006985D03*
X001460Y006985D03*
X001476Y006985D03*
X001480Y006985D03*
X001496Y006985D03*
X001500Y006985D03*
X001516Y006985D03*
X001520Y006985D03*
X001536Y006985D03*
X001540Y006985D03*
X001556Y006985D03*
X001560Y006985D03*
X001576Y006985D03*
X001580Y006985D03*
X001426Y006731D03*
X001406Y006739D03*
X001400Y006741D03*
X001390Y006745D03*
X001380Y006749D03*
X001370Y006753D03*
X001366Y006755D03*
X001346Y006763D03*
X001340Y006765D03*
X001336Y006765D03*
X001320Y006773D03*
X001316Y006773D03*
X001296Y006781D03*
X001356Y006573D03*
X001360Y006573D03*
X001366Y006575D03*
X001380Y006581D03*
X001386Y006583D03*
X001390Y006585D03*
X001400Y006589D03*
X001406Y006591D03*
X001426Y006599D03*
X001340Y006565D03*
X001586Y006665D03*
X000870Y008391D03*
X000866Y008391D03*
X000860Y008391D03*
X000856Y008391D03*
X000850Y008391D03*
X000846Y008391D03*
X000840Y008391D03*
X000836Y008391D03*
X000830Y008391D03*
X000826Y008391D03*
X000820Y008391D03*
X000816Y008391D03*
X000810Y008391D03*
X000806Y008391D03*
X000800Y008391D03*
X000796Y008391D03*
X000790Y008391D03*
X000786Y008391D03*
X000780Y008391D03*
X000776Y008391D03*
X000770Y008391D03*
X000766Y008391D03*
X000760Y008391D03*
X000756Y008391D03*
X000750Y008391D03*
X000746Y008391D03*
X000740Y008391D03*
X000736Y008391D03*
X000730Y008391D03*
X000660Y008391D03*
X000656Y008391D03*
X000650Y008391D03*
X000646Y008391D03*
X000640Y008391D03*
X000636Y008391D03*
X000630Y008391D03*
X000626Y008391D03*
X000620Y008391D03*
X000616Y008391D03*
X000610Y008391D03*
X000606Y008391D03*
X000600Y008391D03*
X000596Y008391D03*
X000590Y008391D03*
X000586Y008391D03*
X000580Y008391D03*
X000576Y008391D03*
X000570Y008391D03*
X000566Y008391D03*
X000560Y008391D03*
X000556Y008391D03*
X000550Y008391D03*
X000546Y008391D03*
X000540Y008391D03*
X000536Y008391D03*
X000530Y008391D03*
X000526Y008391D03*
X000586Y008659D03*
X000590Y008659D03*
X000696Y008865D03*
X000686Y008871D03*
X000680Y008873D03*
X000666Y008879D03*
X000660Y008881D03*
X000630Y008895D03*
X000626Y008895D03*
X000610Y008903D03*
X000596Y008909D03*
X000560Y008925D03*
X000546Y008931D03*
X000550Y009011D03*
X000556Y009013D03*
X000566Y009019D03*
X000576Y009023D03*
X000580Y009025D03*
X000596Y009033D03*
X000600Y009033D03*
X000606Y009035D03*
X000616Y009041D03*
X000620Y009041D03*
X000636Y009049D03*
X000640Y009051D03*
X000650Y009055D03*
X000666Y009063D03*
X000680Y009069D03*
X000686Y009071D03*
X000696Y009075D03*
X000690Y009299D03*
X000686Y009299D03*
X000670Y009299D03*
X000666Y009299D03*
X000650Y009299D03*
X000646Y009299D03*
X000630Y009299D03*
X000626Y009299D03*
X000610Y009299D03*
X000606Y009299D03*
X000590Y009299D03*
X000586Y009299D03*
X000706Y009299D03*
X000710Y009299D03*
X000726Y009299D03*
X000730Y009299D03*
X000746Y009299D03*
X000750Y009299D03*
X000766Y009299D03*
X000770Y009299D03*
X000786Y009299D03*
X000790Y009299D03*
X000806Y009299D03*
X000810Y009299D03*
X000826Y009299D03*
X000830Y009299D03*
X000846Y009299D03*
X000850Y009299D03*
X000866Y009299D03*
X000870Y009299D03*
X000716Y009465D03*
X000716Y009989D03*
X000716Y010159D03*
X000720Y010159D03*
X000726Y010159D03*
X000730Y010159D03*
X000736Y010159D03*
X000740Y010159D03*
X000746Y010159D03*
X000750Y010159D03*
X000756Y010159D03*
X000760Y010159D03*
X000766Y010159D03*
X000770Y010159D03*
X000776Y010159D03*
X000780Y010159D03*
X000786Y010159D03*
X000790Y010159D03*
X000796Y010159D03*
X000800Y010159D03*
X000806Y010159D03*
X000810Y010159D03*
X000816Y010159D03*
X000820Y010159D03*
X000826Y010159D03*
X000830Y010159D03*
X000836Y010159D03*
X000840Y010159D03*
X000846Y010159D03*
X000850Y010159D03*
X000856Y010159D03*
X000860Y010159D03*
X000866Y010159D03*
X000870Y010159D03*
X000710Y010159D03*
X000706Y010159D03*
X000700Y010159D03*
X000696Y010159D03*
X000690Y010159D03*
X000686Y010159D03*
X000680Y010159D03*
X000676Y010159D03*
X000670Y010159D03*
X000666Y010159D03*
X000660Y010159D03*
X000656Y010159D03*
X000650Y010159D03*
X000646Y010159D03*
X000640Y010159D03*
X000636Y010159D03*
X000630Y010159D03*
X000626Y010159D03*
X000620Y010159D03*
X000616Y010159D03*
X000610Y010159D03*
X000606Y010159D03*
X000600Y010159D03*
X000596Y010159D03*
X000590Y010159D03*
X000586Y010159D03*
X000580Y010159D03*
X000576Y010159D03*
X000576Y010341D03*
X000580Y010341D03*
X000586Y010341D03*
X000590Y010341D03*
X000596Y010341D03*
X000600Y010341D03*
X000606Y010341D03*
X000610Y010341D03*
X000616Y010341D03*
X000620Y010341D03*
X000626Y010341D03*
X000570Y010341D03*
X000566Y010341D03*
X000560Y010341D03*
X000556Y010341D03*
X000550Y010341D03*
X000546Y010341D03*
X000540Y010341D03*
X000536Y010341D03*
X000530Y010341D03*
X000526Y010341D03*
X000520Y010341D03*
X000696Y010341D03*
X000700Y010341D03*
X000706Y010341D03*
X000710Y010341D03*
X000716Y010341D03*
X000720Y010341D03*
X000726Y010341D03*
X000730Y010341D03*
X000736Y010341D03*
X000740Y010341D03*
X000746Y010341D03*
X000750Y010341D03*
X000756Y010341D03*
X000760Y010341D03*
X000766Y010341D03*
X000770Y010341D03*
X000776Y010341D03*
X000780Y010341D03*
X000786Y010341D03*
X000790Y010341D03*
X000796Y010341D03*
X000800Y010341D03*
X000806Y010341D03*
X000806Y010743D03*
X000810Y010743D03*
X000816Y010743D03*
X000820Y010743D03*
X000826Y010743D03*
X000830Y010743D03*
X000836Y010743D03*
X000840Y010743D03*
X000846Y010743D03*
X000850Y010743D03*
X000856Y010743D03*
X000860Y010743D03*
X000866Y010743D03*
X000870Y010743D03*
X000800Y010743D03*
X000796Y010743D03*
X000790Y010743D03*
X000786Y010743D03*
X000780Y010743D03*
X000776Y010743D03*
X000770Y010743D03*
X000766Y010743D03*
X000760Y010743D03*
X000756Y010743D03*
X000750Y010743D03*
X000746Y010743D03*
X000740Y010743D03*
X000736Y010743D03*
X000730Y010743D03*
X000660Y010743D03*
X000656Y010743D03*
X000650Y010743D03*
X000646Y010743D03*
X000640Y010743D03*
X000636Y010743D03*
X000630Y010743D03*
X000626Y010743D03*
X000620Y010743D03*
X000616Y010743D03*
X000610Y010743D03*
X000606Y010743D03*
X000600Y010743D03*
X000596Y010743D03*
X000590Y010743D03*
X000586Y010743D03*
X000580Y010743D03*
X000576Y010743D03*
X000570Y010743D03*
X000566Y010743D03*
X000560Y010743D03*
X000556Y010743D03*
X000550Y010743D03*
X000546Y010743D03*
X000540Y010743D03*
X000536Y010743D03*
X000530Y010743D03*
X000526Y010743D03*
X000586Y011011D03*
X000590Y011011D03*
X000576Y011345D03*
X000566Y011345D03*
X000560Y011345D03*
X000556Y011345D03*
X000526Y011551D03*
X000526Y011741D03*
X000530Y011741D03*
X000536Y011741D03*
X000540Y011741D03*
X000546Y011741D03*
X000550Y011741D03*
X000556Y011741D03*
X000560Y011741D03*
X000566Y011741D03*
X000570Y011741D03*
X000576Y011741D03*
X000580Y011741D03*
X000586Y011741D03*
X000590Y011741D03*
X000596Y011741D03*
X000600Y011741D03*
X000606Y011741D03*
X000610Y011741D03*
X000616Y011741D03*
X000620Y011741D03*
X000626Y011741D03*
X000696Y011741D03*
X000700Y011741D03*
X000706Y011741D03*
X000710Y011741D03*
X000716Y011741D03*
X000720Y011741D03*
X000726Y011741D03*
X000730Y011741D03*
X000736Y011741D03*
X000740Y011741D03*
X000746Y011741D03*
X000750Y011741D03*
X000756Y011741D03*
X000760Y011741D03*
X000766Y011741D03*
X000770Y011741D03*
X000776Y011741D03*
X000780Y011741D03*
X000786Y011741D03*
X000790Y011741D03*
X000796Y011741D03*
X000800Y011741D03*
X000806Y011741D03*
X000810Y011741D03*
X000816Y011741D03*
X000820Y011741D03*
X000826Y011741D03*
X000830Y011741D03*
X000836Y011741D03*
X000840Y011741D03*
X000846Y011741D03*
X000850Y011741D03*
X000856Y011741D03*
X000860Y011741D03*
X000866Y011741D03*
X000870Y011741D03*
X000760Y011581D03*
X000756Y011581D03*
X000876Y011465D03*
X000520Y011741D03*
X000516Y011741D03*
X000510Y011741D03*
X000506Y011741D03*
X000500Y011741D03*
X000496Y011741D03*
X000490Y011741D03*
X000486Y011741D03*
X000480Y011741D03*
X000476Y011741D03*
X000470Y011741D03*
X000466Y011741D03*
X000460Y011741D03*
X000456Y011741D03*
X000456Y012015D03*
X000460Y012015D03*
X000466Y012015D03*
X000470Y012015D03*
X000476Y012015D03*
X000480Y012015D03*
X000486Y012015D03*
X000490Y012015D03*
X000496Y012015D03*
X000500Y012015D03*
X000506Y012015D03*
X000510Y012015D03*
X000516Y012015D03*
X000520Y012015D03*
X000526Y012015D03*
X000530Y012015D03*
X000536Y012015D03*
X000540Y012015D03*
X000546Y012015D03*
X000550Y012015D03*
X000556Y012015D03*
X000560Y012015D03*
X000566Y012015D03*
X000570Y012015D03*
X000576Y012015D03*
X000580Y012015D03*
X000586Y012015D03*
X000590Y012015D03*
X000596Y012015D03*
X000600Y012015D03*
X000606Y012015D03*
X000610Y012015D03*
X000616Y012015D03*
X000620Y012015D03*
X000626Y012015D03*
X000696Y012015D03*
X000700Y012015D03*
X000706Y012015D03*
X000710Y012015D03*
X000716Y012015D03*
X000720Y012015D03*
X000726Y012015D03*
X000730Y012015D03*
X000736Y012015D03*
X000740Y012015D03*
X000746Y012015D03*
X000750Y012015D03*
X000756Y012015D03*
X000760Y012015D03*
X000766Y012015D03*
X000770Y012015D03*
X000776Y012015D03*
X000780Y012015D03*
X000786Y012015D03*
X000790Y012015D03*
X000796Y012015D03*
X000800Y012015D03*
X000806Y012015D03*
X000810Y012015D03*
X000816Y012015D03*
X000820Y012015D03*
X000826Y012015D03*
X000830Y012015D03*
X000836Y012015D03*
X000840Y012015D03*
X000846Y012015D03*
X000850Y012015D03*
X000856Y012015D03*
X000860Y012015D03*
X000866Y012015D03*
X000870Y012015D03*
X000870Y012201D03*
X000866Y012201D03*
X000860Y012201D03*
X000856Y012201D03*
X000850Y012201D03*
X000846Y012201D03*
X000840Y012201D03*
X000836Y012201D03*
X000830Y012201D03*
X000826Y012201D03*
X000820Y012201D03*
X000816Y012201D03*
X000810Y012201D03*
X000806Y012201D03*
X000800Y012201D03*
X000796Y012201D03*
X000790Y012201D03*
X000786Y012201D03*
X000780Y012201D03*
X000776Y012201D03*
X000770Y012201D03*
X000766Y012201D03*
X000760Y012201D03*
X000756Y012201D03*
X000750Y012201D03*
X000746Y012201D03*
X000740Y012201D03*
X000736Y012201D03*
X000730Y012201D03*
X000726Y012201D03*
X000720Y012201D03*
X000716Y012201D03*
X000710Y012201D03*
X000706Y012201D03*
X000700Y012201D03*
X000696Y012201D03*
X000690Y012201D03*
X000686Y012201D03*
X000680Y012201D03*
X000676Y012201D03*
X000670Y012201D03*
X000666Y012201D03*
X000660Y012201D03*
X000656Y012201D03*
X000650Y012201D03*
X000646Y012201D03*
X000640Y012201D03*
X000636Y012201D03*
X000630Y012201D03*
X000626Y012201D03*
X000620Y012201D03*
X000616Y012201D03*
X000610Y012201D03*
X000606Y012201D03*
X000600Y012201D03*
X000596Y012201D03*
X000590Y012201D03*
X000586Y012201D03*
X000580Y012201D03*
X000576Y012201D03*
X000570Y012201D03*
X000566Y012201D03*
X000560Y012201D03*
X000556Y012201D03*
X000550Y012201D03*
X000546Y012201D03*
X000540Y012201D03*
X000536Y012201D03*
X000530Y012201D03*
X000526Y012201D03*
X000520Y012201D03*
X000516Y012201D03*
X000510Y012201D03*
X000506Y012201D03*
X000500Y012201D03*
X000496Y012201D03*
X000490Y012201D03*
X000486Y012201D03*
X000480Y012201D03*
X000476Y012201D03*
X000470Y012201D03*
X000466Y012201D03*
X000460Y012201D03*
X000456Y012201D03*
X000456Y012789D03*
X000460Y012789D03*
X000466Y012789D03*
X000470Y012789D03*
X000476Y012789D03*
X000480Y012789D03*
X000486Y012789D03*
X000490Y012789D03*
X000496Y012789D03*
X000500Y012789D03*
X000506Y012789D03*
X000510Y012789D03*
X000516Y012789D03*
X000520Y012789D03*
X000526Y012789D03*
X000530Y012789D03*
X000536Y012789D03*
X000540Y012789D03*
X000546Y012789D03*
X000550Y012789D03*
X000556Y012789D03*
X000560Y012789D03*
X000566Y012789D03*
X000570Y012789D03*
X000576Y012789D03*
X000580Y012789D03*
X000586Y012789D03*
X000590Y012789D03*
X000596Y012789D03*
X000600Y012789D03*
X000606Y012789D03*
X000610Y012789D03*
X000616Y012789D03*
X000620Y012789D03*
X000626Y012789D03*
X000630Y012789D03*
X000636Y012789D03*
X000640Y012789D03*
X000646Y012789D03*
X000650Y012789D03*
X000656Y012789D03*
X000660Y012789D03*
X000666Y012789D03*
X000670Y012789D03*
X000676Y012789D03*
X000680Y012789D03*
X000686Y012789D03*
X000690Y012789D03*
X000696Y012789D03*
X000700Y012789D03*
X000706Y012789D03*
X000710Y012789D03*
X000716Y012789D03*
X000720Y012789D03*
X000726Y012789D03*
X000730Y012789D03*
X000736Y012789D03*
X000740Y012789D03*
X000746Y012789D03*
X000750Y012789D03*
X000756Y012789D03*
X000760Y012789D03*
X000766Y012789D03*
X000770Y012789D03*
X000776Y012789D03*
X000780Y012789D03*
X000786Y012789D03*
X000790Y012789D03*
X000796Y012789D03*
X000800Y012789D03*
X000800Y013161D03*
X000796Y013161D03*
X000790Y013161D03*
X000786Y013161D03*
X000780Y013161D03*
X000776Y013161D03*
X000770Y013161D03*
X000766Y013161D03*
X000760Y013161D03*
X000756Y013161D03*
X000750Y013161D03*
X000746Y013161D03*
X000740Y013161D03*
X000736Y013161D03*
X000730Y013161D03*
X000726Y013161D03*
X000720Y013161D03*
X000716Y013161D03*
X000710Y013161D03*
X000706Y013161D03*
X000700Y013161D03*
X000696Y013161D03*
X000690Y013161D03*
X000686Y013161D03*
X000680Y013161D03*
X000676Y013161D03*
X000670Y013161D03*
X000666Y013161D03*
X000660Y013161D03*
X000656Y013161D03*
X000650Y013161D03*
X000646Y013161D03*
X000640Y013161D03*
X000636Y013161D03*
X000630Y013161D03*
X000626Y013161D03*
X000620Y013161D03*
X000616Y013161D03*
X000610Y013161D03*
X000606Y013161D03*
X000600Y013161D03*
X000596Y013161D03*
X000590Y013161D03*
X000586Y013161D03*
X000580Y013161D03*
X000576Y013161D03*
X000570Y013161D03*
X000566Y013161D03*
X000560Y013161D03*
X000556Y013161D03*
X000550Y013161D03*
X000546Y013161D03*
X000540Y013161D03*
X000536Y013161D03*
X000530Y013161D03*
X000526Y013161D03*
X000520Y013161D03*
X000780Y008829D03*
X000796Y008823D03*
X000800Y008821D03*
X000806Y008819D03*
X000820Y008813D03*
X000836Y008805D03*
X000870Y008791D03*
D34*
X000540Y008971D03*
X000556Y009601D03*
X000556Y009857D03*
X000560Y009857D03*
X000660Y009989D03*
X001586Y008019D03*
X000870Y007575D03*
X001586Y007447D03*
D35*
X001584Y007447D03*
X000514Y007665D03*
X001584Y008019D03*
X000562Y009337D03*
X000564Y009599D03*
X000564Y009859D03*
X000564Y010121D03*
X000562Y010121D03*
X000812Y011367D03*
D36*
X000788Y011575D03*
X000782Y011577D03*
X000734Y011577D03*
X000584Y011347D03*
X000582Y011347D03*
X000542Y011349D03*
X000564Y011009D03*
X000614Y011009D03*
X000624Y011005D03*
X000628Y011003D03*
X000588Y010071D03*
X000612Y010055D03*
X000634Y010041D03*
X000644Y010035D03*
X000648Y010031D03*
X000714Y009989D03*
X000628Y009523D03*
X000712Y009467D03*
X000714Y009467D03*
X000852Y009143D03*
X000854Y009143D03*
X000858Y009145D03*
X000864Y009147D03*
X000868Y009149D03*
X000872Y009151D03*
X000844Y009139D03*
X000842Y009137D03*
X000838Y009137D03*
X000834Y009133D03*
X000828Y009131D03*
X000824Y009131D03*
X000822Y009129D03*
X000818Y009127D03*
X000814Y009125D03*
X000808Y009123D03*
X000802Y009121D03*
X000798Y009119D03*
X000794Y009117D03*
X000788Y009115D03*
X000782Y009113D03*
X000778Y009109D03*
X000774Y009109D03*
X000682Y009069D03*
X000464Y008971D03*
X000462Y008971D03*
X000782Y008829D03*
X000802Y008821D03*
X000838Y008805D03*
X000628Y008651D03*
X000624Y008653D03*
X000614Y008657D03*
X000564Y008657D03*
X000788Y008219D03*
X001304Y008151D03*
X001312Y008155D03*
X001322Y008157D03*
X001324Y008157D03*
X001328Y008159D03*
X001332Y008159D03*
X001334Y008159D03*
X001338Y008161D03*
X001342Y008161D03*
X001364Y008163D03*
X001368Y008163D03*
X001404Y008163D03*
X001408Y008163D03*
X001412Y008163D03*
X001418Y008161D03*
X001422Y008161D03*
X001432Y008159D03*
X001434Y008159D03*
X001438Y008157D03*
X001442Y008157D03*
X001448Y008155D03*
X001452Y008155D03*
X001454Y008153D03*
X001458Y008153D03*
X001464Y008151D03*
X001472Y008147D03*
X001464Y007887D03*
X001458Y007885D03*
X001452Y007883D03*
X001448Y007883D03*
X001444Y007881D03*
X001442Y007881D03*
X001438Y007881D03*
X001434Y007879D03*
X001432Y007879D03*
X001422Y007877D03*
X001418Y007877D03*
X001414Y007877D03*
X001412Y007875D03*
X001408Y007875D03*
X001404Y007875D03*
X001364Y007875D03*
X001342Y007877D03*
X001338Y007877D03*
X001332Y007879D03*
X001328Y007879D03*
X001322Y007881D03*
X001312Y007883D03*
X001308Y007885D03*
X001304Y007887D03*
X001292Y007891D03*
X000712Y007911D03*
X000692Y007907D03*
X000688Y007907D03*
X000682Y007905D03*
X000678Y007905D03*
X000674Y007905D03*
X000672Y007905D03*
X000662Y007905D03*
X000658Y007905D03*
X000654Y007905D03*
X000652Y007905D03*
X000644Y007907D03*
X000642Y007905D03*
X000632Y007907D03*
X000628Y007907D03*
X000622Y007909D03*
X000612Y007911D03*
X000644Y007755D03*
X000648Y007755D03*
X000652Y007755D03*
X000654Y007755D03*
X000658Y007755D03*
X000662Y007755D03*
X000664Y007755D03*
X000668Y007755D03*
X000672Y007755D03*
X000674Y007755D03*
X000684Y007755D03*
X000688Y007755D03*
X000692Y007753D03*
X000694Y007753D03*
X000698Y007753D03*
X000704Y007751D03*
X000708Y007751D03*
X000638Y007753D03*
X000634Y007753D03*
X000632Y007753D03*
X000624Y007751D03*
X000614Y007749D03*
X000608Y007403D03*
X000614Y007401D03*
X000624Y007399D03*
X000628Y007399D03*
X000632Y007397D03*
X000634Y007397D03*
X000638Y007397D03*
X000642Y007397D03*
X000644Y007395D03*
X000648Y007395D03*
X000652Y007395D03*
X000654Y007395D03*
X000658Y007395D03*
X000662Y007395D03*
X000664Y007395D03*
X000668Y007395D03*
X000672Y007395D03*
X000674Y007395D03*
X000684Y007395D03*
X000688Y007395D03*
X000692Y007397D03*
X000694Y007397D03*
X000704Y007399D03*
X000624Y007239D03*
X000618Y007241D03*
X000612Y007243D03*
X000602Y007245D03*
X000598Y007245D03*
X000594Y007245D03*
X000582Y007245D03*
X000578Y007245D03*
X000574Y007245D03*
X000568Y007243D03*
X000564Y007243D03*
X000558Y007241D03*
X000584Y006827D03*
X000574Y006825D03*
X000564Y006823D03*
X000614Y006825D03*
X000618Y006825D03*
X000622Y006825D03*
X000624Y006823D03*
X000628Y006823D03*
X001278Y006789D03*
X001282Y006787D03*
X001292Y006783D03*
X001298Y006781D03*
X001318Y006773D03*
X001338Y006765D03*
X001344Y006567D03*
X001338Y006565D03*
X001324Y006559D03*
X001318Y006557D03*
X001312Y006555D03*
X001304Y006551D03*
X001302Y006551D03*
X001298Y006549D03*
X001292Y006547D03*
X001288Y006545D03*
X001284Y006543D03*
X001282Y006543D03*
X001278Y006541D03*
X001578Y006665D03*
X001582Y006665D03*
X001444Y007309D03*
X001442Y007309D03*
X001448Y007311D03*
X001452Y007311D03*
X001464Y007315D03*
X001434Y007307D03*
X001432Y007307D03*
X001422Y007305D03*
X001418Y007305D03*
X001412Y007303D03*
X001408Y007303D03*
X001404Y007303D03*
X001364Y007303D03*
X001342Y007305D03*
X001338Y007305D03*
X001332Y007307D03*
X001328Y007307D03*
X001322Y007309D03*
X001318Y007309D03*
X001312Y007311D03*
X001308Y007313D03*
X001304Y007315D03*
X001298Y007317D03*
X001292Y007319D03*
X001304Y007579D03*
X001322Y007585D03*
X001324Y007585D03*
X001328Y007587D03*
X001332Y007587D03*
X001338Y007589D03*
X001342Y007589D03*
X001352Y007591D03*
X001358Y007591D03*
X001364Y007591D03*
X001404Y007591D03*
X001408Y007591D03*
X001418Y007589D03*
X001422Y007589D03*
X001432Y007587D03*
X001434Y007587D03*
X001438Y007585D03*
X001442Y007585D03*
X001444Y007585D03*
X001448Y007583D03*
X001452Y007583D03*
X001458Y007581D03*
X001464Y007579D03*
X000724Y013455D03*
X000718Y013457D03*
X000712Y013459D03*
X000708Y013459D03*
X000704Y013461D03*
X000702Y013461D03*
X000692Y013463D03*
X000688Y013463D03*
X000684Y013463D03*
X000682Y013465D03*
X000678Y013465D03*
X000674Y013465D03*
X000672Y013465D03*
X000668Y013465D03*
X000662Y013465D03*
X000658Y013465D03*
X000654Y013465D03*
X000652Y013465D03*
X000648Y013465D03*
X000644Y013463D03*
X000642Y013465D03*
X000632Y013463D03*
X000628Y013463D03*
X000622Y013461D03*
X000612Y013459D03*
D37*
X000718Y009988D03*
X000712Y009298D03*
X000708Y009298D03*
X000704Y009298D03*
X000692Y009298D03*
X000688Y009298D03*
X000684Y009298D03*
X000672Y009298D03*
X000668Y009298D03*
X000664Y009298D03*
X000652Y009298D03*
X000648Y009298D03*
X000644Y009298D03*
X000632Y009298D03*
X000628Y009298D03*
X000624Y009298D03*
X000612Y009298D03*
X000608Y009298D03*
X000604Y009298D03*
X000592Y009298D03*
X000588Y009298D03*
X000584Y009298D03*
X000724Y009298D03*
X000728Y009298D03*
X000732Y009298D03*
X000744Y009298D03*
X000748Y009298D03*
X000752Y009298D03*
X000764Y009298D03*
X000768Y009298D03*
X000772Y009298D03*
X000784Y009298D03*
X000788Y009298D03*
X000792Y009298D03*
X000804Y009298D03*
X000808Y009298D03*
X000812Y009298D03*
X000824Y009298D03*
X000828Y009298D03*
X000832Y009298D03*
X000844Y009298D03*
X000848Y009298D03*
X000852Y009298D03*
X000864Y009298D03*
X000868Y009298D03*
X000872Y009298D03*
X000648Y008886D03*
X000644Y008888D03*
X000634Y008892D03*
X000614Y008902D03*
X000604Y008906D03*
X000598Y008908D03*
X000558Y008926D03*
X000552Y008928D03*
X000544Y008932D03*
X000668Y008878D03*
X000692Y008868D03*
X000704Y008862D03*
X000714Y008222D03*
X000718Y008222D03*
X000722Y008222D03*
X000734Y008222D03*
X000738Y008222D03*
X000742Y008222D03*
X000754Y008222D03*
X000758Y008222D03*
X000762Y008222D03*
X000774Y008222D03*
X000778Y008222D03*
X000782Y008222D03*
X001254Y006986D03*
X001258Y006986D03*
X001262Y006986D03*
X001274Y006986D03*
X001278Y006986D03*
X001282Y006986D03*
X001294Y006986D03*
X001298Y006986D03*
X001302Y006986D03*
X001314Y006986D03*
X001318Y006986D03*
X001322Y006986D03*
X001334Y006986D03*
X001338Y006986D03*
X001342Y006986D03*
X001354Y006986D03*
X001358Y006986D03*
X001362Y006986D03*
X001374Y006986D03*
X001378Y006986D03*
X001382Y006986D03*
X001394Y006986D03*
X001398Y006986D03*
X001402Y006986D03*
X001414Y006986D03*
X001418Y006986D03*
X001422Y006986D03*
X001434Y006986D03*
X001438Y006986D03*
X001442Y006986D03*
X001454Y006986D03*
X001458Y006986D03*
X001462Y006986D03*
X001474Y006986D03*
X001478Y006986D03*
X001482Y006986D03*
X001494Y006986D03*
X001498Y006986D03*
X001502Y006986D03*
X001514Y006986D03*
X001518Y006986D03*
X001522Y006986D03*
X001534Y006986D03*
X001538Y006986D03*
X001542Y006986D03*
X001554Y006986D03*
X001558Y006986D03*
X001562Y006986D03*
X001574Y006986D03*
X001578Y006986D03*
X001582Y006986D03*
X001458Y006718D03*
X001438Y006726D03*
X001434Y006728D03*
X001432Y006728D03*
X001414Y006736D03*
X001412Y006736D03*
X001408Y006738D03*
X001398Y006742D03*
X001388Y006746D03*
X001382Y006748D03*
X001372Y006752D03*
X001358Y006758D03*
X001332Y006768D03*
X001408Y006592D03*
X001422Y006598D03*
X001424Y006598D03*
X001434Y006602D03*
X001452Y006608D03*
X001458Y006612D03*
D38*
X001218Y006941D03*
X001212Y006941D03*
X001582Y007447D03*
X000458Y008087D03*
X000694Y011523D03*
D39*
X000462Y011459D03*
X000652Y009989D03*
X000868Y008085D03*
X001582Y008019D03*
D40*
X001440Y008158D03*
X001420Y008162D03*
X001416Y008162D03*
X001410Y008162D03*
X001406Y008164D03*
X001396Y008164D03*
X001390Y008164D03*
X001386Y008164D03*
X001380Y008164D03*
X001376Y008164D03*
X001370Y008164D03*
X001366Y008164D03*
X001340Y008160D03*
X001320Y007882D03*
X001340Y007878D03*
X001366Y007874D03*
X001370Y007874D03*
X001376Y007874D03*
X001380Y007874D03*
X001386Y007874D03*
X001390Y007874D03*
X001396Y007874D03*
X001410Y007876D03*
X001416Y007876D03*
X001420Y007876D03*
X001406Y007592D03*
X001410Y007590D03*
X001416Y007590D03*
X001420Y007590D03*
X001400Y007592D03*
X001396Y007592D03*
X001390Y007592D03*
X001386Y007592D03*
X001380Y007592D03*
X001376Y007592D03*
X001370Y007592D03*
X001366Y007592D03*
X001340Y007588D03*
X001440Y007586D03*
X001420Y007304D03*
X001416Y007304D03*
X001410Y007304D03*
X001396Y007302D03*
X001390Y007302D03*
X001386Y007302D03*
X001380Y007302D03*
X001376Y007302D03*
X001370Y007302D03*
X001366Y007302D03*
X001350Y007304D03*
X001340Y007306D03*
X001336Y007306D03*
X001280Y006788D03*
X001300Y006780D03*
X001306Y006778D03*
X001310Y006776D03*
X001326Y006770D03*
X001330Y006768D03*
X001350Y006760D03*
X001376Y006580D03*
X001370Y006578D03*
X001346Y006568D03*
X001336Y006564D03*
X001320Y006558D03*
X001316Y006556D03*
X001300Y006550D03*
X001296Y006548D03*
X001580Y006664D03*
X000620Y006824D03*
X000616Y006826D03*
X000610Y006826D03*
X000600Y006828D03*
X000596Y006828D03*
X000580Y006826D03*
X000576Y006826D03*
X000620Y007240D03*
X000616Y007242D03*
X000610Y007244D03*
X000606Y007244D03*
X000590Y007246D03*
X000636Y007396D03*
X000660Y007904D03*
X000520Y008392D03*
X000580Y008660D03*
X000596Y008660D03*
X000600Y008658D03*
X000606Y008658D03*
X000616Y008656D03*
X000776Y008832D03*
X000790Y008826D03*
X000816Y008814D03*
X000826Y008810D03*
X000840Y008804D03*
X000850Y008800D03*
X000646Y009054D03*
X000660Y009060D03*
X000670Y009064D03*
X000690Y009072D03*
X000610Y009038D03*
X000590Y009028D03*
X000570Y009020D03*
X000546Y009010D03*
X000776Y009110D03*
X000790Y009116D03*
X000796Y009118D03*
X000820Y009128D03*
X000520Y010744D03*
X000580Y011012D03*
X000596Y011012D03*
X000600Y011010D03*
X000606Y011010D03*
X000616Y011008D03*
X000580Y011346D03*
X000570Y011346D03*
X000546Y011348D03*
X000540Y011350D03*
X000746Y011580D03*
X000750Y011580D03*
X000766Y011580D03*
X000770Y011580D03*
X000776Y011578D03*
X000680Y013464D03*
X000660Y013466D03*
D41*
X000650Y009989D03*
X001580Y008019D03*
X000460Y007575D03*
X001580Y007447D03*
D42*
X001578Y007447D03*
X000462Y007575D03*
X000644Y008169D03*
X000648Y008169D03*
X000652Y008169D03*
X000664Y008169D03*
X000668Y008169D03*
X000672Y008169D03*
X000684Y008169D03*
X000688Y008169D03*
X000692Y008169D03*
X000634Y011415D03*
X000688Y011509D03*
D43*
X001578Y008017D03*
X001188Y007447D03*
D44*
X001280Y007325D03*
X001290Y007319D03*
X001470Y007319D03*
X001280Y007569D03*
X000740Y007739D03*
X000726Y007745D03*
X000616Y007749D03*
X000600Y007745D03*
X000590Y007919D03*
X000726Y007915D03*
X000730Y007915D03*
X001276Y007899D03*
X001286Y007895D03*
X001296Y008149D03*
X001480Y008145D03*
X001490Y008139D03*
X000736Y007409D03*
X000726Y007405D03*
X000706Y007399D03*
X000600Y007405D03*
X000630Y007235D03*
X000636Y006819D03*
X001576Y006665D03*
X000616Y009405D03*
X000610Y009535D03*
X000460Y009825D03*
X000606Y009919D03*
X000616Y009925D03*
X000620Y009929D03*
X000630Y009935D03*
X000636Y009939D03*
X000606Y010059D03*
X000596Y010065D03*
X000576Y010079D03*
X000530Y011355D03*
X000450Y011455D03*
X000730Y011575D03*
X000796Y011569D03*
X000740Y013449D03*
X000736Y013449D03*
X000726Y013455D03*
X000710Y013459D03*
X000610Y013459D03*
X000606Y013455D03*
D45*
X000646Y008168D03*
X000650Y008168D03*
X000666Y008168D03*
X000670Y008168D03*
X000686Y008168D03*
X000690Y008168D03*
X001190Y008020D03*
X001576Y007446D03*
D46*
X001190Y007449D03*
X001576Y008019D03*
D47*
X001508Y008127D03*
X001498Y008133D03*
X001494Y008137D03*
X001282Y008141D03*
X001278Y008141D03*
X001274Y008137D03*
X001272Y008135D03*
X001268Y008135D03*
X001264Y007907D03*
X001268Y007903D03*
X001274Y007901D03*
X001494Y007901D03*
X001494Y007565D03*
X001498Y007561D03*
X001504Y007559D03*
X001494Y007329D03*
X001268Y007331D03*
X001264Y007335D03*
X001264Y007559D03*
X001274Y007565D03*
X000758Y007729D03*
X000754Y007733D03*
X000748Y007735D03*
X000584Y007739D03*
X000582Y007737D03*
X000574Y007733D03*
X000572Y007731D03*
X000578Y007925D03*
X000574Y007927D03*
X000572Y007927D03*
X000568Y007931D03*
X000742Y007921D03*
X000748Y007923D03*
X000752Y007925D03*
X000792Y008215D03*
X000728Y008563D03*
X000732Y008567D03*
X000734Y008569D03*
X000744Y008575D03*
X000748Y008579D03*
X000752Y008581D03*
X000758Y008585D03*
X000762Y008589D03*
X000768Y008591D03*
X000772Y008595D03*
X000774Y008597D03*
X000784Y008603D03*
X000788Y008607D03*
X000798Y008613D03*
X000802Y008617D03*
X000804Y008619D03*
X000812Y008623D03*
X000814Y008625D03*
X000828Y008635D03*
X000842Y008645D03*
X000844Y008647D03*
X000852Y008651D03*
X000854Y008653D03*
X000868Y008663D03*
X000872Y008667D03*
X000638Y008645D03*
X000472Y008971D03*
X000468Y008971D03*
X000462Y009305D03*
X000584Y009383D03*
X000594Y009389D03*
X000708Y009467D03*
X000464Y009631D03*
X000464Y009827D03*
X000578Y009901D03*
X000602Y009917D03*
X000464Y010153D03*
X000462Y010153D03*
X000728Y010915D03*
X000732Y010919D03*
X000734Y010921D03*
X000744Y010927D03*
X000748Y010931D03*
X000752Y010933D03*
X000758Y010937D03*
X000762Y010941D03*
X000768Y010943D03*
X000772Y010947D03*
X000774Y010949D03*
X000784Y010955D03*
X000788Y010959D03*
X000798Y010965D03*
X000802Y010969D03*
X000804Y010971D03*
X000812Y010975D03*
X000814Y010977D03*
X000828Y010987D03*
X000842Y010997D03*
X000844Y010999D03*
X000852Y011003D03*
X000854Y011005D03*
X000868Y011015D03*
X000872Y011019D03*
X000638Y010997D03*
X000724Y011571D03*
X000754Y013441D03*
X000752Y013443D03*
X000738Y013449D03*
X000584Y013447D03*
X000582Y013445D03*
X000564Y007423D03*
X000568Y007419D03*
X000572Y007419D03*
X000574Y007417D03*
X000582Y007413D03*
X000748Y007415D03*
X000752Y007417D03*
X000864Y007247D03*
X000862Y007245D03*
X000852Y007239D03*
X000848Y007235D03*
X000834Y007225D03*
X000832Y007223D03*
X000828Y007221D03*
X000824Y007219D03*
X000822Y007217D03*
X000812Y007211D03*
X000808Y007207D03*
X000804Y007203D03*
X000794Y007197D03*
X000792Y007195D03*
X000788Y007191D03*
X000784Y007191D03*
X000782Y007189D03*
X000778Y007185D03*
X000768Y007179D03*
X000764Y007175D03*
X000754Y007169D03*
X000752Y007167D03*
X000748Y007163D03*
X000744Y007163D03*
X000742Y007161D03*
X000738Y007157D03*
X000732Y007153D03*
X000728Y007151D03*
X000638Y007231D03*
X000634Y007233D03*
X000544Y007235D03*
X000542Y007233D03*
X000872Y007251D03*
X000644Y006815D03*
X000648Y006811D03*
X000544Y006815D03*
X001574Y006665D03*
D48*
X001574Y007447D03*
X001192Y007449D03*
X000862Y007575D03*
X000464Y007577D03*
X000462Y008087D03*
X000864Y008085D03*
X001192Y008021D03*
X001574Y008019D03*
X000468Y011461D03*
X000684Y011501D03*
D49*
X000554Y011005D03*
X000552Y011005D03*
X000458Y010155D03*
X000574Y010079D03*
X000582Y010075D03*
X000592Y010069D03*
X000628Y010045D03*
X000638Y010039D03*
X000642Y010035D03*
X000708Y009989D03*
X000712Y009989D03*
X000644Y009945D03*
X000584Y009905D03*
X000458Y009825D03*
X000578Y009555D03*
X000588Y009549D03*
X000594Y009545D03*
X000602Y009539D03*
X000624Y009525D03*
X000634Y009519D03*
X000648Y009425D03*
X000638Y009419D03*
X000634Y009415D03*
X000624Y009409D03*
X000608Y009399D03*
X000602Y009395D03*
X000592Y009389D03*
X000588Y009385D03*
X000578Y009379D03*
X000558Y008655D03*
X000632Y008649D03*
X000524Y008185D03*
X000448Y008085D03*
X000598Y007915D03*
X000602Y007915D03*
X000728Y007915D03*
X000738Y007919D03*
X000712Y007749D03*
X000724Y007745D03*
X000878Y007575D03*
X000728Y007405D03*
X000724Y007405D03*
X000702Y007399D03*
X000622Y007399D03*
X000592Y007409D03*
X000588Y007409D03*
X000554Y007239D03*
X000632Y007235D03*
X000634Y006819D03*
X000554Y006819D03*
X000552Y006819D03*
X001302Y007315D03*
X001294Y007319D03*
X001272Y007329D03*
X001462Y007315D03*
X001474Y007319D03*
X001488Y007569D03*
X001474Y007575D03*
X001302Y007579D03*
X001294Y007575D03*
X001284Y007895D03*
X001282Y007895D03*
X001468Y007889D03*
X001482Y007895D03*
X001478Y008145D03*
X001314Y008155D03*
X001298Y008149D03*
X001288Y008145D03*
X001572Y006665D03*
X000722Y013455D03*
X000714Y013459D03*
X000614Y013459D03*
X000602Y013455D03*
X000588Y013449D03*
D50*
X001572Y008019D03*
X001572Y007447D03*
D51*
X001496Y007331D03*
X001490Y007327D03*
X001486Y007325D03*
X001266Y007333D03*
X001170Y007449D03*
X001276Y007567D03*
X001496Y007563D03*
X001486Y007897D03*
X001490Y007899D03*
X001496Y007903D03*
X001266Y007905D03*
X001276Y008139D03*
X001496Y008135D03*
X000756Y007927D03*
X000750Y007925D03*
X000746Y007921D03*
X000586Y007921D03*
X000570Y007929D03*
X000590Y007741D03*
X000576Y007735D03*
X000746Y007737D03*
X000756Y007731D03*
X000756Y007419D03*
X000746Y007413D03*
X000740Y007411D03*
X000576Y007415D03*
X000546Y007235D03*
X000640Y007231D03*
X000736Y007155D03*
X000740Y007159D03*
X000750Y007165D03*
X000756Y007171D03*
X000760Y007173D03*
X000766Y007177D03*
X000776Y007183D03*
X000780Y007187D03*
X000796Y007199D03*
X000800Y007201D03*
X000806Y007205D03*
X000820Y007215D03*
X000836Y007227D03*
X000860Y007243D03*
X000646Y006813D03*
X000540Y006811D03*
X001570Y006665D03*
X000730Y008565D03*
X000736Y008571D03*
X000740Y008573D03*
X000746Y008577D03*
X000756Y008583D03*
X000760Y008587D03*
X000770Y008593D03*
X000776Y008599D03*
X000780Y008601D03*
X000786Y008605D03*
X000796Y008611D03*
X000800Y008615D03*
X000816Y008627D03*
X000830Y008637D03*
X000836Y008639D03*
X000840Y008643D03*
X000856Y008655D03*
X000870Y008665D03*
X000640Y008643D03*
X000546Y008649D03*
X000470Y008971D03*
X000466Y009305D03*
X000590Y009909D03*
X000730Y010917D03*
X000736Y010923D03*
X000740Y010925D03*
X000746Y010929D03*
X000756Y010935D03*
X000760Y010939D03*
X000770Y010945D03*
X000776Y010951D03*
X000780Y010953D03*
X000786Y010957D03*
X000796Y010963D03*
X000800Y010967D03*
X000816Y010979D03*
X000830Y010989D03*
X000836Y010991D03*
X000840Y010995D03*
X000856Y011007D03*
X000870Y011017D03*
X000640Y010995D03*
X000546Y011001D03*
X000526Y011359D03*
X000796Y011347D03*
X000800Y011567D03*
X000726Y011573D03*
X000756Y013439D03*
X000746Y013445D03*
X000586Y013449D03*
X000576Y013443D03*
D52*
X000856Y011461D03*
X000466Y008087D03*
X001570Y007447D03*
X000456Y006641D03*
D53*
X001570Y008018D03*
D54*
X001504Y008130D03*
X001502Y008132D03*
X001498Y007904D03*
X001262Y007908D03*
X001264Y008132D03*
X000764Y007932D03*
X000758Y007928D03*
X000754Y007926D03*
X000764Y007726D03*
X000564Y007728D03*
X000754Y007418D03*
X000758Y007420D03*
X000868Y007250D03*
X000844Y007232D03*
X000838Y007228D03*
X000818Y007214D03*
X000802Y007202D03*
X000798Y007200D03*
X000762Y007174D03*
X000758Y007172D03*
X000734Y007154D03*
X001182Y006978D03*
X001262Y007336D03*
X001268Y007562D03*
X001502Y007560D03*
X001508Y007556D03*
X001504Y007336D03*
X001498Y007332D03*
X000542Y006812D03*
X001568Y006664D03*
X000738Y008572D03*
X000742Y008574D03*
X000764Y008590D03*
X000778Y008600D03*
X000782Y008602D03*
X000792Y008610D03*
X000808Y008620D03*
X000818Y008628D03*
X000824Y008632D03*
X000832Y008638D03*
X000838Y008642D03*
X000848Y008650D03*
X000858Y008656D03*
X000864Y008660D03*
X000468Y009306D03*
X000468Y009630D03*
X000468Y009828D03*
X000468Y010152D03*
X000738Y010924D03*
X000742Y010926D03*
X000764Y010942D03*
X000778Y010952D03*
X000782Y010954D03*
X000792Y010962D03*
X000808Y010972D03*
X000818Y010980D03*
X000824Y010984D03*
X000832Y010990D03*
X000838Y010994D03*
X000848Y011002D03*
X000858Y011008D03*
X000864Y011012D03*
X000598Y011354D03*
X000798Y011568D03*
X000574Y013442D03*
X000578Y013444D03*
D55*
X001198Y008019D03*
X000858Y007575D03*
X001568Y007445D03*
D56*
X001198Y007448D03*
X001568Y008018D03*
X000648Y011440D03*
D57*
X000520Y011545D03*
X000540Y010997D03*
X000850Y011003D03*
X000470Y010151D03*
X000470Y009829D03*
X000470Y009629D03*
X000706Y009467D03*
X000470Y009307D03*
X000476Y008971D03*
X000540Y008645D03*
X000850Y008651D03*
X001260Y008129D03*
X001256Y008125D03*
X001270Y008135D03*
X001170Y008019D03*
X001256Y007913D03*
X001260Y007909D03*
X001500Y007905D03*
X001506Y008127D03*
X000766Y007933D03*
X000760Y007929D03*
X000566Y007931D03*
X000556Y007937D03*
X000570Y007731D03*
X000566Y007727D03*
X000560Y007725D03*
X000556Y007721D03*
X000556Y007429D03*
X000560Y007425D03*
X000570Y007419D03*
X000760Y007421D03*
X000870Y007251D03*
X000866Y007247D03*
X000826Y007219D03*
X000786Y007191D03*
X000746Y007163D03*
X000536Y007229D03*
X000546Y006815D03*
X000650Y006811D03*
X001256Y007341D03*
X001260Y007337D03*
X001256Y007553D03*
X001260Y007557D03*
X001566Y006665D03*
X000760Y013437D03*
X000570Y013439D03*
D58*
X000670Y011475D03*
X000656Y011453D03*
X000650Y011443D03*
X001566Y008019D03*
X000856Y007573D03*
X001566Y007447D03*
D59*
X001502Y007335D03*
X001258Y007339D03*
X001258Y007555D03*
X001262Y007559D03*
X000764Y007425D03*
X000762Y007423D03*
X000562Y007423D03*
X000558Y007427D03*
X000642Y007227D03*
X000644Y007227D03*
X000774Y007183D03*
X000814Y007211D03*
X000842Y007231D03*
X000854Y007239D03*
X000858Y007243D03*
X001184Y006977D03*
X001564Y006665D03*
X000652Y006809D03*
X000772Y007721D03*
X000768Y007723D03*
X000762Y007727D03*
X000578Y007735D03*
X000568Y007729D03*
X000564Y007933D03*
X000562Y007935D03*
X000762Y007931D03*
X000772Y007937D03*
X000522Y008183D03*
X001258Y008127D03*
X001258Y007911D03*
X001502Y007907D03*
X001504Y007909D03*
X001508Y007911D03*
X001512Y008125D03*
X000862Y008659D03*
X000834Y008639D03*
X000822Y008631D03*
X000794Y008611D03*
X000754Y008583D03*
X000644Y008641D03*
X000642Y008643D03*
X000542Y008647D03*
X000474Y008971D03*
X000704Y009467D03*
X000472Y009629D03*
X000472Y009829D03*
X000704Y009989D03*
X000754Y010935D03*
X000794Y010963D03*
X000822Y010983D03*
X000834Y010991D03*
X000862Y011011D03*
X000644Y010993D03*
X000642Y010995D03*
X000542Y010999D03*
X000524Y011361D03*
X000522Y011363D03*
X000522Y011547D03*
X000568Y013437D03*
X000572Y013441D03*
X000758Y013439D03*
X000762Y013435D03*
X000764Y013433D03*
D60*
X000664Y011467D03*
X000658Y011457D03*
X001564Y007447D03*
D61*
X001202Y007449D03*
X001564Y008019D03*
X000858Y008085D03*
X000662Y011461D03*
D62*
X000604Y011359D03*
X000452Y011455D03*
X000722Y011569D03*
X000798Y011349D03*
X000534Y010993D03*
X000478Y010149D03*
X000474Y010149D03*
X000702Y009989D03*
X000478Y009309D03*
X000474Y009309D03*
X000484Y008971D03*
X000534Y008641D03*
X001252Y008123D03*
X001254Y008125D03*
X001172Y008019D03*
X001248Y007919D03*
X001512Y007915D03*
X001514Y008121D03*
X000774Y007939D03*
X000548Y007943D03*
X000554Y007721D03*
X000552Y007719D03*
X000548Y007715D03*
X000548Y007435D03*
X000552Y007431D03*
X000554Y007429D03*
X000538Y007229D03*
X000648Y007223D03*
X000538Y006809D03*
X001562Y006665D03*
X001512Y007343D03*
X001514Y007345D03*
X001514Y007549D03*
X001254Y007551D03*
X001252Y007551D03*
X000768Y013431D03*
X000562Y013433D03*
D63*
X000852Y011459D03*
X001204Y008021D03*
X000854Y007575D03*
X000472Y007577D03*
X001562Y007447D03*
D64*
X001562Y008018D03*
D65*
X001516Y007919D03*
X001510Y007913D03*
X000876Y007575D03*
X000770Y007429D03*
X000550Y007433D03*
X000646Y007225D03*
X001250Y007345D03*
X001510Y007341D03*
X000770Y007721D03*
X000780Y007943D03*
X000550Y007943D03*
X000796Y008211D03*
X000480Y008971D03*
X000476Y009831D03*
X001560Y006665D03*
X000770Y013429D03*
D66*
X001560Y007447D03*
X000456Y007051D03*
D67*
X001560Y008019D03*
D68*
X001518Y008118D03*
X001514Y007916D03*
X001518Y007546D03*
X000774Y007432D03*
X000544Y007438D03*
X000534Y007226D03*
X000534Y006806D03*
X000532Y006804D03*
X000654Y006806D03*
X001558Y006664D03*
X000778Y007716D03*
X000544Y007948D03*
X000532Y008638D03*
X000648Y008636D03*
X000478Y009626D03*
X000478Y009832D03*
X000532Y010990D03*
X000648Y010988D03*
X000718Y011566D03*
X000774Y013426D03*
X000558Y013430D03*
D69*
X000462Y013238D03*
X001208Y008020D03*
X001558Y008018D03*
X001558Y007446D03*
X001208Y007448D03*
X000462Y006654D03*
D70*
X000660Y006801D03*
X000650Y007219D03*
X000540Y007441D03*
X000780Y007437D03*
X001246Y007351D03*
X001246Y007543D03*
X001250Y007547D03*
X001520Y007545D03*
X001520Y007349D03*
X001520Y007921D03*
X001246Y007923D03*
X001250Y008119D03*
X000876Y008085D03*
X000546Y007947D03*
X000540Y007953D03*
X000650Y008635D03*
X000486Y008971D03*
X000700Y009989D03*
X000650Y010987D03*
X000800Y011349D03*
X000806Y011559D03*
X000550Y013423D03*
X001556Y006665D03*
D71*
X001556Y007447D03*
X000476Y007575D03*
X001556Y008019D03*
X000480Y011463D03*
D72*
X001212Y007448D03*
X001554Y007446D03*
X000458Y007058D03*
D73*
X000848Y007575D03*
X001212Y008019D03*
X001552Y008019D03*
X001554Y008017D03*
X000458Y008473D03*
X000458Y010825D03*
X000484Y011463D03*
D74*
X000484Y010146D03*
X000488Y010146D03*
X000488Y009312D03*
X000798Y008208D03*
X001244Y008114D03*
X001242Y007926D03*
X001522Y008114D03*
X000784Y007948D03*
X000544Y007712D03*
X000784Y007440D03*
X001552Y006664D03*
D75*
X000722Y006660D03*
X001552Y007446D03*
D76*
X000790Y007705D03*
X000786Y007949D03*
X000536Y007955D03*
X001526Y008109D03*
X001550Y006665D03*
X000490Y010145D03*
X000546Y013419D03*
D77*
X000460Y010828D03*
X000716Y010828D03*
X000716Y008476D03*
X000460Y008476D03*
X001550Y008018D03*
X001550Y007446D03*
X001216Y007448D03*
D78*
X001238Y007359D03*
X001242Y007355D03*
X001242Y007539D03*
X001528Y007533D03*
X000794Y007451D03*
X000792Y007449D03*
X000654Y007215D03*
X001188Y006969D03*
X001544Y006665D03*
X001548Y006665D03*
X000794Y007699D03*
X000534Y007959D03*
X000528Y007965D03*
X001242Y008111D03*
X001528Y008105D03*
X000528Y008633D03*
X000494Y008971D03*
X000494Y009315D03*
X000692Y009467D03*
X000694Y009467D03*
X000692Y009989D03*
X000494Y010143D03*
X000528Y010985D03*
X000612Y011369D03*
X000802Y011351D03*
X000542Y013415D03*
D79*
X000468Y013247D03*
X000714Y010829D03*
X000718Y010829D03*
X000718Y008477D03*
X000714Y008477D03*
X000478Y008089D03*
X001548Y008019D03*
X001548Y007447D03*
X000718Y007063D03*
X000468Y006663D03*
D80*
X001546Y006665D03*
X000790Y007447D03*
X001240Y007537D03*
X000796Y007697D03*
X000530Y007963D03*
X000450Y008087D03*
X001240Y008109D03*
X000656Y008625D03*
X000490Y008971D03*
X000496Y009315D03*
X000496Y009621D03*
X000496Y009837D03*
X000656Y010977D03*
X000610Y011367D03*
X000540Y013413D03*
D81*
X000490Y011465D03*
X000840Y011455D03*
X001546Y007445D03*
D82*
X001220Y007448D03*
X000726Y007066D03*
X001546Y008018D03*
X000726Y010832D03*
D83*
X001544Y007447D03*
X000472Y006667D03*
D84*
X001544Y008019D03*
X000462Y008481D03*
X000462Y010833D03*
X000472Y013251D03*
D85*
X000852Y013253D03*
X000492Y011465D03*
X001222Y008019D03*
X000842Y007575D03*
X001542Y007447D03*
X000464Y007069D03*
D86*
X000474Y006670D03*
X000712Y006670D03*
X001224Y007448D03*
X001224Y008020D03*
X001542Y008018D03*
X000708Y008484D03*
X000708Y010836D03*
X000838Y011456D03*
X000474Y013254D03*
D87*
X000506Y009840D03*
X001530Y007530D03*
X001540Y006664D03*
X000526Y006794D03*
D88*
X001540Y007447D03*
X000466Y010837D03*
D89*
X000836Y011455D03*
X000476Y013255D03*
X000466Y008485D03*
X001540Y008019D03*
X000840Y007575D03*
D90*
X000528Y007694D03*
X000524Y007970D03*
X001538Y006664D03*
X000504Y010140D03*
D91*
X000494Y011467D03*
X000848Y013257D03*
X001538Y008019D03*
X001538Y007447D03*
X000468Y007073D03*
X000708Y006673D03*
D92*
X000666Y006791D03*
X001536Y006665D03*
X001530Y007363D03*
X001530Y007935D03*
X000800Y007965D03*
X000516Y008173D03*
X000526Y007691D03*
X000526Y007459D03*
X000506Y009319D03*
X000506Y010139D03*
X000710Y011555D03*
D93*
X000480Y013259D03*
X000486Y008089D03*
X001536Y008019D03*
X001536Y007447D03*
D94*
X001532Y007367D03*
X001234Y007369D03*
X001234Y007525D03*
X000874Y007573D03*
X000802Y007461D03*
X000522Y007465D03*
X000802Y007689D03*
X000802Y007969D03*
X000804Y007971D03*
X000522Y007973D03*
X000452Y008087D03*
X001234Y008097D03*
X001234Y007941D03*
X001532Y007939D03*
X001192Y006963D03*
X001534Y006665D03*
X000668Y006787D03*
X000508Y008971D03*
X000514Y009321D03*
X000684Y009467D03*
X000512Y009615D03*
X000514Y009843D03*
X000514Y010137D03*
X000454Y011457D03*
X000794Y013401D03*
D95*
X000798Y013393D03*
X000514Y011533D03*
X000678Y009989D03*
X000528Y009847D03*
X000528Y009611D03*
X000678Y009467D03*
X000808Y008195D03*
X001232Y008091D03*
X000808Y007979D03*
X000518Y007981D03*
X000808Y007679D03*
X000872Y007575D03*
X000518Y007473D03*
X001534Y007521D03*
X001522Y006665D03*
X000522Y006785D03*
D96*
X000524Y007213D03*
X000524Y007461D03*
X000524Y007689D03*
X000798Y007963D03*
X001174Y008019D03*
X000804Y008201D03*
X000524Y008625D03*
X000502Y008971D03*
X000498Y008971D03*
X000508Y009841D03*
X000688Y009989D03*
X000508Y010139D03*
X000614Y011371D03*
X000804Y011353D03*
X000872Y011465D03*
X000708Y011553D03*
X000792Y013405D03*
X000534Y013403D03*
X000532Y013401D03*
X001532Y006665D03*
D97*
X000804Y007686D03*
X001532Y008098D03*
X000658Y008620D03*
X000504Y008972D03*
X000512Y009320D03*
X000512Y009842D03*
X000684Y009988D03*
X000512Y010138D03*
X000658Y010972D03*
D98*
X000616Y011375D03*
X000686Y009989D03*
X000516Y009843D03*
X000516Y009615D03*
X000506Y008971D03*
X001530Y006665D03*
X000796Y013399D03*
D99*
X000790Y013406D03*
X000506Y009618D03*
X000690Y009466D03*
X001530Y008102D03*
X000526Y007968D03*
X000800Y007458D03*
X001190Y006966D03*
D100*
X001524Y006665D03*
X001528Y006665D03*
X000804Y007465D03*
X001232Y007945D03*
X000518Y010135D03*
X000512Y011385D03*
D101*
X000712Y011558D03*
X000498Y010142D03*
X000498Y009838D03*
X000498Y009620D03*
X000498Y009316D03*
X000802Y008204D03*
X000518Y008176D03*
X000794Y007958D03*
X000534Y007702D03*
X001528Y007932D03*
X001528Y007360D03*
X000664Y006794D03*
X000788Y013410D03*
D102*
X000706Y011548D03*
X000680Y009466D03*
X001176Y007448D03*
X001526Y006664D03*
D103*
X001526Y007358D03*
X001526Y007930D03*
X000796Y007960D03*
X000500Y009316D03*
X000500Y010142D03*
X000496Y010142D03*
X000810Y011552D03*
X000786Y013412D03*
D104*
X000716Y011563D03*
X000516Y011371D03*
X000696Y009467D03*
X000490Y009313D03*
X000800Y008207D03*
X000790Y007953D03*
X000540Y007707D03*
X000450Y007577D03*
X000536Y007447D03*
X000530Y007221D03*
X000786Y007441D03*
X001526Y007537D03*
X000530Y006801D03*
D105*
X001520Y006664D03*
X000530Y009326D03*
X000530Y009610D03*
X000530Y009848D03*
D106*
X000480Y009832D03*
X000480Y009626D03*
X000480Y009310D03*
X000480Y010148D03*
X000520Y011366D03*
X000556Y013428D03*
X000776Y013424D03*
X000520Y008180D03*
X000776Y007940D03*
X000780Y007714D03*
X000776Y007434D03*
X000546Y007436D03*
X000656Y006804D03*
X001516Y007346D03*
X001520Y008116D03*
D107*
X000518Y007678D03*
X001518Y006664D03*
X000532Y009326D03*
X000528Y009326D03*
X000528Y010132D03*
X000532Y010132D03*
X000808Y011358D03*
D108*
X000652Y010985D03*
X000482Y010147D03*
X000482Y009833D03*
X000484Y009833D03*
X000484Y009625D03*
X000482Y009625D03*
X000698Y009467D03*
X000484Y009311D03*
X000482Y009311D03*
X000482Y008971D03*
X000652Y008633D03*
X001248Y008117D03*
X001244Y007925D03*
X001518Y007919D03*
X001248Y007545D03*
X001244Y007541D03*
X001172Y007449D03*
X001244Y007353D03*
X001518Y007347D03*
X000782Y007439D03*
X000778Y007435D03*
X000542Y007439D03*
X000532Y007225D03*
X000652Y007217D03*
X000658Y006803D03*
X000788Y007705D03*
X000784Y007709D03*
X000782Y007711D03*
X000778Y007943D03*
X000782Y007947D03*
X000542Y007951D03*
X000548Y013421D03*
X000552Y013425D03*
X000554Y013427D03*
D109*
X000526Y013391D03*
X000456Y011457D03*
X000620Y011381D03*
X000530Y010131D03*
X000676Y009989D03*
X000520Y008971D03*
X000516Y007985D03*
X000516Y007477D03*
X001196Y006957D03*
X001516Y006665D03*
X000670Y006779D03*
D110*
X000536Y006807D03*
X001516Y007547D03*
X001250Y007917D03*
X000550Y007717D03*
X000700Y009467D03*
X000476Y009627D03*
X000720Y011567D03*
D111*
X000646Y010990D03*
X000536Y010994D03*
X000476Y010150D03*
X001516Y008120D03*
X001506Y007910D03*
X001510Y007554D03*
X000766Y007724D03*
D112*
X000872Y008083D03*
X001178Y008021D03*
X000528Y008971D03*
X000524Y008971D03*
X000538Y009329D03*
X000538Y009851D03*
X000672Y009989D03*
X000674Y009989D03*
X000538Y010129D03*
X000702Y011541D03*
X000802Y013385D03*
X001512Y006665D03*
X001514Y006665D03*
D113*
X001254Y007342D03*
X001512Y007552D03*
X001252Y007916D03*
X000774Y007718D03*
X000562Y007726D03*
X000558Y007722D03*
X000552Y007942D03*
X000794Y008212D03*
X000472Y009308D03*
X000474Y009628D03*
X000538Y010996D03*
X000804Y011562D03*
X000564Y013436D03*
D114*
X000870Y011465D03*
X000670Y009989D03*
X000540Y009851D03*
X000540Y009329D03*
X000810Y007985D03*
X000810Y007673D03*
X000516Y007671D03*
X000520Y007199D03*
X000520Y006779D03*
X001510Y006665D03*
D115*
X001506Y007338D03*
X000766Y007426D03*
X000776Y007718D03*
X000770Y007936D03*
X001510Y008126D03*
X000646Y008638D03*
X000536Y008642D03*
X000476Y009308D03*
X000560Y013432D03*
X000566Y013436D03*
X000766Y013432D03*
D116*
X000624Y011389D03*
X000622Y011387D03*
X000668Y009989D03*
X000548Y009853D03*
X000544Y009853D03*
X000544Y009605D03*
X000668Y009467D03*
X000454Y008087D03*
X000812Y007989D03*
X001508Y006665D03*
D117*
X001508Y007340D03*
X001252Y007344D03*
X000772Y007430D03*
X000768Y007934D03*
X000554Y007940D03*
X001254Y007914D03*
X001262Y008130D03*
X000538Y008644D03*
X000478Y008970D03*
X000474Y009830D03*
X000472Y010150D03*
X000802Y011564D03*
D118*
X000720Y009988D03*
X001480Y006710D03*
X001490Y006706D03*
X001496Y006704D03*
X001500Y006702D03*
X001506Y006700D03*
D119*
X000856Y007240D03*
X000850Y007236D03*
X000846Y007234D03*
X000840Y007230D03*
X000830Y007222D03*
X000816Y007212D03*
X000810Y007208D03*
X000790Y007194D03*
X000770Y007180D03*
X000730Y007152D03*
X000540Y007232D03*
X000566Y007422D03*
X000750Y007416D03*
X001266Y007560D03*
X001270Y007564D03*
X001506Y007556D03*
X001500Y007334D03*
X000760Y007728D03*
X000560Y007936D03*
X001266Y008132D03*
X000866Y008662D03*
X000860Y008658D03*
X000846Y008648D03*
X000826Y008634D03*
X000820Y008630D03*
X000810Y008622D03*
X000806Y008620D03*
X000790Y008608D03*
X000766Y008590D03*
X000750Y008580D03*
X000466Y009630D03*
X000466Y009828D03*
X000706Y009988D03*
X000466Y010152D03*
X000750Y010932D03*
X000766Y010942D03*
X000790Y010960D03*
X000806Y010972D03*
X000810Y010974D03*
X000820Y010982D03*
X000826Y010986D03*
X000846Y011000D03*
X000860Y011010D03*
X000866Y011014D03*
X000600Y011356D03*
X000750Y013442D03*
D120*
X000452Y008971D03*
X000542Y008933D03*
X000564Y008923D03*
X000584Y008915D03*
X000592Y008911D03*
X000612Y008903D03*
X000628Y008895D03*
X000684Y008871D03*
X000704Y008223D03*
X000708Y008223D03*
X000712Y008223D03*
X000724Y008223D03*
X000728Y008223D03*
X000732Y008223D03*
X000744Y008223D03*
X000748Y008223D03*
X000752Y008223D03*
X000764Y008223D03*
X000768Y008223D03*
X000772Y008223D03*
X000528Y008187D03*
X000448Y007575D03*
X001384Y006747D03*
X001404Y006739D03*
X001422Y006733D03*
X001424Y006731D03*
X001428Y006731D03*
X001442Y006725D03*
X001444Y006723D03*
X001448Y006723D03*
X001452Y006721D03*
X001454Y006721D03*
X001462Y006717D03*
X001468Y006715D03*
X001472Y006713D03*
X001474Y006713D03*
X001478Y006711D03*
X001482Y006709D03*
X001488Y006707D03*
X001494Y006705D03*
X001502Y006701D03*
X001502Y006629D03*
X001498Y006627D03*
X001494Y006625D03*
X001488Y006623D03*
X001482Y006621D03*
X001478Y006619D03*
X001474Y006617D03*
X001472Y006617D03*
X001468Y006615D03*
X001462Y006613D03*
X001448Y006607D03*
X001444Y006607D03*
X001442Y006605D03*
X001428Y006599D03*
D121*
X001500Y007562D03*
X001270Y007902D03*
X001486Y008142D03*
X001500Y008132D03*
X000580Y009902D03*
X000610Y009922D03*
X000626Y009932D03*
X000596Y011352D03*
D122*
X000728Y011574D03*
X000634Y011000D03*
X000544Y011000D03*
X000578Y010078D03*
X000638Y009940D03*
X000634Y009938D03*
X000614Y009924D03*
X000598Y009914D03*
X000592Y009910D03*
X000588Y009908D03*
X000582Y009904D03*
X000462Y009826D03*
X000642Y009420D03*
X000618Y009406D03*
X000464Y009304D03*
X000548Y008650D03*
X000544Y008648D03*
X000634Y008648D03*
X000594Y007918D03*
X000592Y007918D03*
X000734Y007918D03*
X000738Y007740D03*
X000742Y007738D03*
X000752Y007734D03*
X000602Y007746D03*
X000598Y007744D03*
X000588Y007740D03*
X000578Y007414D03*
X000732Y007408D03*
X000734Y007408D03*
X000738Y007410D03*
X001274Y007328D03*
X001278Y007326D03*
X001484Y007324D03*
X001488Y007326D03*
X001492Y007328D03*
X001492Y007566D03*
X001284Y007570D03*
X001282Y007570D03*
X001278Y007568D03*
X001272Y007564D03*
X001278Y007898D03*
X001488Y007898D03*
X001492Y007900D03*
X000642Y006816D03*
X000638Y006818D03*
X000748Y013444D03*
X000744Y013446D03*
X000742Y013448D03*
X000598Y013454D03*
D123*
X000608Y013457D03*
X000634Y013463D03*
X000728Y013453D03*
X000732Y013453D03*
X000734Y013451D03*
X000792Y011573D03*
X000794Y011571D03*
X000794Y011347D03*
X000538Y011351D03*
X000528Y011357D03*
X000558Y011007D03*
X000632Y011001D03*
X000584Y010073D03*
X000594Y010067D03*
X000602Y010063D03*
X000604Y010061D03*
X000618Y010051D03*
X000648Y009947D03*
X000642Y009943D03*
X000632Y009937D03*
X000628Y009933D03*
X000624Y009931D03*
X000622Y009931D03*
X000618Y009927D03*
X000608Y009921D03*
X000604Y009917D03*
X000582Y009553D03*
X000598Y009543D03*
X000612Y009533D03*
X000614Y009531D03*
X000622Y009527D03*
X000628Y009413D03*
X000632Y009413D03*
X000622Y009407D03*
X000614Y009403D03*
X000612Y009401D03*
X000604Y009397D03*
X000458Y009303D03*
X000552Y008653D03*
X000554Y008653D03*
X000878Y008083D03*
X000744Y007921D03*
X000732Y007917D03*
X000724Y007913D03*
X000722Y007913D03*
X000718Y007911D03*
X000714Y007911D03*
X000614Y007911D03*
X000608Y007913D03*
X000588Y007921D03*
X000622Y007751D03*
X000594Y007743D03*
X000592Y007741D03*
X000718Y007747D03*
X000722Y007747D03*
X000744Y007737D03*
X001272Y007901D03*
X001288Y007893D03*
X001294Y007891D03*
X001462Y007887D03*
X001474Y007891D03*
X001484Y007897D03*
X001492Y008137D03*
X001488Y008141D03*
X001484Y008141D03*
X001482Y008143D03*
X001474Y008147D03*
X001302Y008151D03*
X001294Y008147D03*
X001284Y008143D03*
X001298Y007577D03*
X001288Y007573D03*
X001478Y007573D03*
X001482Y007571D03*
X001482Y007323D03*
X001468Y007317D03*
X001288Y007321D03*
X001282Y007323D03*
X000722Y007403D03*
X000718Y007403D03*
X000712Y007401D03*
X000598Y007407D03*
X000594Y007407D03*
X000628Y007237D03*
X000548Y007237D03*
X000548Y006817D03*
X000632Y006821D03*
D124*
X000550Y006818D03*
X000550Y007238D03*
X000590Y007408D03*
X000580Y007414D03*
X000580Y007736D03*
X000586Y007740D03*
X000750Y007734D03*
X000740Y007920D03*
X000580Y007924D03*
X000576Y007926D03*
X000790Y008216D03*
X001286Y008144D03*
X001290Y008146D03*
X001290Y007574D03*
X001486Y007570D03*
X001276Y007326D03*
X001270Y007330D03*
X000636Y008646D03*
X000460Y009304D03*
X000586Y009384D03*
X000606Y009398D03*
X000610Y009400D03*
X000630Y009414D03*
X000586Y009906D03*
X000600Y009916D03*
X000646Y009946D03*
X000710Y009988D03*
X000460Y010154D03*
X000636Y010998D03*
X000580Y013446D03*
X000590Y013450D03*
D125*
X000592Y013452D03*
X000594Y013452D03*
X000594Y011352D03*
X000548Y011002D03*
X000594Y009912D03*
X000462Y009632D03*
X000458Y009632D03*
X000598Y009392D03*
X000582Y009382D03*
X000582Y007922D03*
X000584Y007922D03*
X000734Y007742D03*
X000742Y007412D03*
X000744Y007412D03*
X000584Y007412D03*
X000772Y007182D03*
X001478Y007322D03*
X001478Y007892D03*
D126*
X000700Y008864D03*
X000676Y008874D03*
X000640Y008890D03*
X000616Y008900D03*
X000606Y008904D03*
X000586Y008914D03*
X000570Y008920D03*
X000580Y009820D03*
X000586Y009820D03*
X000590Y009820D03*
X000596Y009820D03*
X000600Y009820D03*
X000606Y009820D03*
X000610Y009820D03*
X000616Y009820D03*
X000620Y009820D03*
X000626Y009820D03*
X000630Y009820D03*
X000636Y009820D03*
X000640Y009820D03*
X000646Y009820D03*
X000650Y009820D03*
X000656Y009820D03*
X000660Y009820D03*
X000666Y009820D03*
X000670Y009820D03*
X000676Y009820D03*
X000680Y009820D03*
X000686Y009820D03*
X000690Y009820D03*
X000696Y009820D03*
X000700Y009820D03*
X000706Y009820D03*
X000710Y009820D03*
X000716Y009820D03*
X000720Y009820D03*
X000726Y009820D03*
X000730Y009820D03*
X000736Y009820D03*
X000740Y009820D03*
X000746Y009820D03*
X000750Y009820D03*
X000756Y009820D03*
X000760Y009820D03*
X000766Y009820D03*
X000770Y009820D03*
X000776Y009820D03*
X000780Y009820D03*
X000786Y009820D03*
X000790Y009820D03*
X000796Y009820D03*
X000800Y009820D03*
X000806Y009820D03*
X000810Y009820D03*
X000816Y009820D03*
X000820Y009820D03*
X000826Y009820D03*
X000830Y009820D03*
X000836Y009820D03*
X000840Y009820D03*
X000846Y009820D03*
X000850Y009820D03*
X000856Y009820D03*
X000860Y009820D03*
X000866Y009820D03*
X000870Y009820D03*
X001376Y006750D03*
X001420Y006734D03*
X001446Y006724D03*
X001466Y006614D03*
X001440Y006604D03*
X001430Y006600D03*
D127*
X001446Y006607D03*
X001386Y006747D03*
X001360Y006757D03*
X000870Y006577D03*
X000866Y006577D03*
X000860Y006577D03*
X000856Y006577D03*
X000850Y006577D03*
X000846Y006577D03*
X000840Y006577D03*
X000836Y006577D03*
X000830Y006577D03*
X000826Y006577D03*
X000820Y006577D03*
X000816Y006577D03*
X000810Y006577D03*
X000806Y006577D03*
X000800Y006577D03*
X000796Y006577D03*
X000790Y006577D03*
X000786Y006577D03*
X000780Y006577D03*
X000776Y006577D03*
X000770Y006577D03*
X000766Y006577D03*
X000760Y006577D03*
X000756Y006577D03*
X000750Y006577D03*
X000746Y006577D03*
X000740Y006577D03*
X000670Y006577D03*
X000666Y006577D03*
X000660Y006577D03*
X000656Y006577D03*
X000650Y006577D03*
X000646Y006577D03*
X000640Y006577D03*
X000636Y006577D03*
X000630Y006577D03*
X000626Y006577D03*
X000620Y006577D03*
X000616Y006577D03*
X000610Y006577D03*
X000606Y006577D03*
X000600Y006577D03*
X000596Y006577D03*
X000590Y006577D03*
X000586Y006577D03*
X000580Y006577D03*
X000576Y006577D03*
X000570Y006577D03*
X000566Y006577D03*
X000560Y006577D03*
X000556Y006577D03*
X000550Y006577D03*
X000546Y006577D03*
X000540Y006577D03*
X000536Y006577D03*
X000530Y006577D03*
X000526Y006577D03*
X000520Y006577D03*
X000586Y006827D03*
X000590Y006827D03*
X000606Y006827D03*
X000606Y006977D03*
X000610Y006977D03*
X000616Y006977D03*
X000620Y006977D03*
X000626Y006977D03*
X000630Y006977D03*
X000636Y006977D03*
X000640Y006977D03*
X000646Y006977D03*
X000650Y006977D03*
X000656Y006977D03*
X000660Y006977D03*
X000600Y006977D03*
X000596Y006977D03*
X000590Y006977D03*
X000586Y006977D03*
X000580Y006977D03*
X000576Y006977D03*
X000570Y006977D03*
X000566Y006977D03*
X000560Y006977D03*
X000556Y006977D03*
X000550Y006977D03*
X000546Y006977D03*
X000540Y006977D03*
X000536Y006977D03*
X000530Y006977D03*
X000526Y006977D03*
X000520Y006977D03*
X000730Y006977D03*
X000736Y006977D03*
X000740Y006977D03*
X000746Y006977D03*
X000750Y006977D03*
X000756Y006977D03*
X000760Y006977D03*
X000766Y006977D03*
X000770Y006977D03*
X000776Y006977D03*
X000780Y006977D03*
X000786Y006977D03*
X000790Y006977D03*
X000796Y006977D03*
X000800Y006977D03*
X000806Y006977D03*
X000810Y006977D03*
X000816Y006977D03*
X000820Y006977D03*
X000826Y006977D03*
X000830Y006977D03*
X000836Y006977D03*
X000840Y006977D03*
X000846Y006977D03*
X000850Y006977D03*
X000856Y006977D03*
X000860Y006977D03*
X000866Y006977D03*
X000870Y006977D03*
X000856Y008797D03*
X000786Y008827D03*
X000670Y008877D03*
X000646Y008887D03*
X000586Y009027D03*
X000560Y009017D03*
X000630Y009047D03*
X000656Y009057D03*
X000676Y009067D03*
X000700Y009077D03*
X000700Y009637D03*
X000696Y009637D03*
X000690Y009637D03*
X000686Y009637D03*
X000680Y009637D03*
X000676Y009637D03*
X000670Y009637D03*
X000666Y009637D03*
X000660Y009637D03*
X000656Y009637D03*
X000650Y009637D03*
X000646Y009637D03*
X000640Y009637D03*
X000636Y009637D03*
X000630Y009637D03*
X000626Y009637D03*
X000620Y009637D03*
X000616Y009637D03*
X000610Y009637D03*
X000606Y009637D03*
X000600Y009637D03*
X000596Y009637D03*
X000590Y009637D03*
X000586Y009637D03*
X000580Y009637D03*
X000576Y009637D03*
X000706Y009637D03*
X000710Y009637D03*
X000716Y009637D03*
X000720Y009637D03*
X000726Y009637D03*
X000730Y009637D03*
X000736Y009637D03*
X000740Y009637D03*
X000746Y009637D03*
X000750Y009637D03*
X000756Y009637D03*
X000760Y009637D03*
X000766Y009637D03*
X000770Y009637D03*
X000776Y009637D03*
X000780Y009637D03*
X000786Y009637D03*
X000790Y009637D03*
X000796Y009637D03*
X000800Y009637D03*
X000806Y009637D03*
X000810Y009637D03*
X000816Y009637D03*
X000820Y009637D03*
X000826Y009637D03*
X000830Y009637D03*
X000836Y009637D03*
X000840Y009637D03*
X000846Y009637D03*
X000850Y009637D03*
X000856Y009637D03*
X000860Y009637D03*
X000866Y009637D03*
X000870Y009637D03*
X000550Y011347D03*
X000780Y011577D03*
X000780Y012387D03*
X000776Y012387D03*
X000770Y012387D03*
X000766Y012387D03*
X000760Y012387D03*
X000756Y012387D03*
X000750Y012387D03*
X000746Y012387D03*
X000740Y012387D03*
X000736Y012387D03*
X000730Y012387D03*
X000726Y012387D03*
X000720Y012387D03*
X000716Y012387D03*
X000710Y012387D03*
X000706Y012387D03*
X000700Y012387D03*
X000696Y012387D03*
X000626Y012387D03*
X000620Y012387D03*
X000616Y012387D03*
X000610Y012387D03*
X000606Y012387D03*
X000600Y012387D03*
X000596Y012387D03*
X000590Y012387D03*
X000586Y012387D03*
X000580Y012387D03*
X000576Y012387D03*
X000570Y012387D03*
X000566Y012387D03*
X000560Y012387D03*
X000556Y012387D03*
X000550Y012387D03*
X000546Y012387D03*
X000540Y012387D03*
X000536Y012387D03*
X000530Y012387D03*
X000526Y012387D03*
X000520Y012387D03*
X000786Y012387D03*
X000790Y012387D03*
X000796Y012387D03*
X000800Y012387D03*
X000806Y012387D03*
D128*
X000754Y011580D03*
X000744Y011580D03*
X000742Y011580D03*
X000778Y011578D03*
X000784Y011576D03*
X000524Y011550D03*
X000544Y011348D03*
X000554Y011346D03*
X000558Y011346D03*
X000574Y011346D03*
X000578Y011346D03*
X000584Y011012D03*
X000588Y011012D03*
X000592Y011012D03*
X000604Y011010D03*
X000608Y011010D03*
X000574Y011010D03*
X000572Y011010D03*
X000568Y011010D03*
X000848Y009140D03*
X000832Y009134D03*
X000804Y009122D03*
X000792Y009116D03*
X000772Y009108D03*
X000704Y009078D03*
X000702Y009078D03*
X000698Y009076D03*
X000674Y009066D03*
X000662Y009060D03*
X000654Y009058D03*
X000648Y009054D03*
X000642Y009052D03*
X000638Y009050D03*
X000634Y009048D03*
X000632Y009048D03*
X000618Y009042D03*
X000598Y009032D03*
X000582Y009026D03*
X000562Y009016D03*
X000554Y009014D03*
X000542Y009008D03*
X000774Y008832D03*
X000788Y008826D03*
X000794Y008824D03*
X000798Y008822D03*
X000804Y008820D03*
X000818Y008814D03*
X000822Y008812D03*
X000824Y008810D03*
X000832Y008808D03*
X000834Y008806D03*
X000844Y008802D03*
X000852Y008798D03*
X000854Y008798D03*
X000858Y008796D03*
X000862Y008794D03*
X000864Y008794D03*
X000868Y008792D03*
X000872Y008790D03*
X000608Y008658D03*
X000604Y008658D03*
X000592Y008660D03*
X000588Y008660D03*
X000584Y008660D03*
X000574Y008658D03*
X000572Y008658D03*
X000568Y008658D03*
X001344Y008162D03*
X001348Y008162D03*
X001352Y008162D03*
X001354Y008162D03*
X001358Y008162D03*
X001362Y008164D03*
X001372Y008164D03*
X001374Y008164D03*
X001378Y008164D03*
X001382Y008164D03*
X001384Y008164D03*
X001388Y008164D03*
X001392Y008164D03*
X001394Y008164D03*
X001398Y008164D03*
X001402Y008164D03*
X001414Y008162D03*
X001428Y008160D03*
X001444Y008156D03*
X001428Y007878D03*
X001424Y007878D03*
X001402Y007874D03*
X001398Y007874D03*
X001394Y007874D03*
X001392Y007874D03*
X001388Y007874D03*
X001384Y007874D03*
X001382Y007874D03*
X001378Y007874D03*
X001374Y007874D03*
X001372Y007874D03*
X001368Y007874D03*
X001362Y007874D03*
X001358Y007876D03*
X001354Y007876D03*
X001352Y007876D03*
X001348Y007876D03*
X001334Y007878D03*
X001324Y007880D03*
X000684Y007906D03*
X000668Y007904D03*
X000664Y007904D03*
X000648Y007906D03*
X001344Y007590D03*
X001348Y007590D03*
X001354Y007590D03*
X001362Y007592D03*
X001368Y007592D03*
X001372Y007592D03*
X001374Y007592D03*
X001378Y007592D03*
X001382Y007592D03*
X001384Y007592D03*
X001388Y007592D03*
X001392Y007592D03*
X001394Y007592D03*
X001398Y007592D03*
X001402Y007592D03*
X001412Y007590D03*
X001414Y007590D03*
X001428Y007588D03*
X001428Y007306D03*
X001424Y007306D03*
X001414Y007304D03*
X001402Y007302D03*
X001398Y007302D03*
X001394Y007302D03*
X001392Y007302D03*
X001388Y007302D03*
X001384Y007302D03*
X001382Y007302D03*
X001378Y007302D03*
X001374Y007302D03*
X001372Y007302D03*
X001368Y007302D03*
X001362Y007302D03*
X001358Y007304D03*
X001354Y007304D03*
X001352Y007304D03*
X001348Y007304D03*
X001334Y007306D03*
X001324Y007308D03*
X001178Y006984D03*
X001284Y006786D03*
X001288Y006784D03*
X001294Y006782D03*
X001302Y006780D03*
X001304Y006778D03*
X001312Y006776D03*
X001314Y006774D03*
X001324Y006770D03*
X001382Y006582D03*
X001378Y006580D03*
X001364Y006574D03*
X001362Y006574D03*
X001358Y006572D03*
X001342Y006566D03*
X001334Y006564D03*
X001332Y006562D03*
X001322Y006558D03*
X001314Y006556D03*
X001308Y006552D03*
X000738Y006578D03*
X000612Y006826D03*
X000608Y006826D03*
X000604Y006828D03*
X000592Y006828D03*
X000588Y006828D03*
X000578Y006826D03*
X000572Y006826D03*
X000568Y006824D03*
X000572Y007244D03*
X000608Y007244D03*
X000614Y007242D03*
X000664Y013466D03*
D129*
X000698Y012387D03*
X000702Y012387D03*
X000704Y012387D03*
X000708Y012387D03*
X000712Y012387D03*
X000714Y012387D03*
X000718Y012387D03*
X000722Y012387D03*
X000724Y012387D03*
X000728Y012387D03*
X000732Y012387D03*
X000734Y012387D03*
X000738Y012387D03*
X000742Y012387D03*
X000744Y012387D03*
X000748Y012387D03*
X000752Y012387D03*
X000754Y012387D03*
X000758Y012387D03*
X000762Y012387D03*
X000764Y012387D03*
X000768Y012387D03*
X000772Y012387D03*
X000774Y012387D03*
X000778Y012387D03*
X000782Y012387D03*
X000784Y012387D03*
X000788Y012387D03*
X000792Y012387D03*
X000794Y012387D03*
X000798Y012387D03*
X000802Y012387D03*
X000804Y012387D03*
X000628Y012387D03*
X000624Y012387D03*
X000622Y012387D03*
X000618Y012387D03*
X000614Y012387D03*
X000612Y012387D03*
X000608Y012387D03*
X000604Y012387D03*
X000602Y012387D03*
X000598Y012387D03*
X000594Y012387D03*
X000592Y012387D03*
X000588Y012387D03*
X000584Y012387D03*
X000582Y012387D03*
X000578Y012387D03*
X000574Y012387D03*
X000572Y012387D03*
X000568Y012387D03*
X000564Y012387D03*
X000562Y012387D03*
X000558Y012387D03*
X000554Y012387D03*
X000552Y012387D03*
X000548Y012387D03*
X000544Y012387D03*
X000542Y012387D03*
X000538Y012387D03*
X000534Y012387D03*
X000532Y012387D03*
X000528Y012387D03*
X000524Y012387D03*
X000522Y012387D03*
X000548Y011347D03*
X000578Y009637D03*
X000582Y009637D03*
X000584Y009637D03*
X000588Y009637D03*
X000592Y009637D03*
X000594Y009637D03*
X000598Y009637D03*
X000602Y009637D03*
X000604Y009637D03*
X000608Y009637D03*
X000612Y009637D03*
X000614Y009637D03*
X000618Y009637D03*
X000622Y009637D03*
X000624Y009637D03*
X000628Y009637D03*
X000632Y009637D03*
X000634Y009637D03*
X000638Y009637D03*
X000642Y009637D03*
X000644Y009637D03*
X000648Y009637D03*
X000652Y009637D03*
X000654Y009637D03*
X000658Y009637D03*
X000662Y009637D03*
X000664Y009637D03*
X000668Y009637D03*
X000672Y009637D03*
X000674Y009637D03*
X000678Y009637D03*
X000682Y009637D03*
X000684Y009637D03*
X000688Y009637D03*
X000692Y009637D03*
X000694Y009637D03*
X000698Y009637D03*
X000702Y009637D03*
X000704Y009637D03*
X000708Y009637D03*
X000712Y009637D03*
X000714Y009637D03*
X000718Y009637D03*
X000722Y009637D03*
X000724Y009637D03*
X000728Y009637D03*
X000732Y009637D03*
X000734Y009637D03*
X000738Y009637D03*
X000742Y009637D03*
X000744Y009637D03*
X000748Y009637D03*
X000752Y009637D03*
X000754Y009637D03*
X000758Y009637D03*
X000762Y009637D03*
X000764Y009637D03*
X000768Y009637D03*
X000772Y009637D03*
X000774Y009637D03*
X000778Y009637D03*
X000782Y009637D03*
X000784Y009637D03*
X000788Y009637D03*
X000792Y009637D03*
X000794Y009637D03*
X000798Y009637D03*
X000802Y009637D03*
X000804Y009637D03*
X000808Y009637D03*
X000812Y009637D03*
X000814Y009637D03*
X000818Y009637D03*
X000822Y009637D03*
X000824Y009637D03*
X000828Y009637D03*
X000832Y009637D03*
X000834Y009637D03*
X000838Y009637D03*
X000842Y009637D03*
X000844Y009637D03*
X000848Y009637D03*
X000852Y009637D03*
X000854Y009637D03*
X000858Y009637D03*
X000862Y009637D03*
X000864Y009637D03*
X000868Y009637D03*
X000872Y009637D03*
X000718Y009467D03*
X000678Y009067D03*
X000652Y009057D03*
X000612Y009037D03*
X000608Y009037D03*
X000564Y009017D03*
X000554Y008927D03*
X000578Y008917D03*
X000602Y008907D03*
X000624Y008897D03*
X000672Y008877D03*
X000694Y008867D03*
X000808Y008817D03*
X000812Y008817D03*
X000612Y008657D03*
X001344Y007877D03*
X000872Y006977D03*
X000868Y006977D03*
X000864Y006977D03*
X000862Y006977D03*
X000858Y006977D03*
X000854Y006977D03*
X000852Y006977D03*
X000848Y006977D03*
X000844Y006977D03*
X000842Y006977D03*
X000838Y006977D03*
X000834Y006977D03*
X000832Y006977D03*
X000828Y006977D03*
X000824Y006977D03*
X000822Y006977D03*
X000818Y006977D03*
X000814Y006977D03*
X000812Y006977D03*
X000808Y006977D03*
X000804Y006977D03*
X000802Y006977D03*
X000798Y006977D03*
X000794Y006977D03*
X000792Y006977D03*
X000788Y006977D03*
X000784Y006977D03*
X000782Y006977D03*
X000778Y006977D03*
X000774Y006977D03*
X000772Y006977D03*
X000768Y006977D03*
X000764Y006977D03*
X000762Y006977D03*
X000758Y006977D03*
X000754Y006977D03*
X000752Y006977D03*
X000748Y006977D03*
X000744Y006977D03*
X000742Y006977D03*
X000738Y006977D03*
X000734Y006977D03*
X000732Y006977D03*
X000728Y006977D03*
X000658Y006977D03*
X000654Y006977D03*
X000652Y006977D03*
X000648Y006977D03*
X000644Y006977D03*
X000642Y006977D03*
X000638Y006977D03*
X000634Y006977D03*
X000632Y006977D03*
X000628Y006977D03*
X000624Y006977D03*
X000622Y006977D03*
X000618Y006977D03*
X000614Y006977D03*
X000612Y006977D03*
X000608Y006977D03*
X000604Y006977D03*
X000602Y006977D03*
X000598Y006977D03*
X000594Y006977D03*
X000592Y006977D03*
X000588Y006977D03*
X000584Y006977D03*
X000582Y006977D03*
X000578Y006977D03*
X000574Y006977D03*
X000572Y006977D03*
X000568Y006977D03*
X000564Y006977D03*
X000562Y006977D03*
X000558Y006977D03*
X000554Y006977D03*
X000552Y006977D03*
X000548Y006977D03*
X000544Y006977D03*
X000542Y006977D03*
X000538Y006977D03*
X000534Y006977D03*
X000532Y006977D03*
X000528Y006977D03*
X000524Y006977D03*
X000522Y006977D03*
X000582Y006827D03*
X000594Y006827D03*
X000598Y006827D03*
X000602Y006827D03*
X000602Y006577D03*
X000604Y006577D03*
X000608Y006577D03*
X000612Y006577D03*
X000614Y006577D03*
X000618Y006577D03*
X000622Y006577D03*
X000624Y006577D03*
X000628Y006577D03*
X000632Y006577D03*
X000634Y006577D03*
X000638Y006577D03*
X000642Y006577D03*
X000644Y006577D03*
X000648Y006577D03*
X000652Y006577D03*
X000654Y006577D03*
X000658Y006577D03*
X000662Y006577D03*
X000664Y006577D03*
X000668Y006577D03*
X000598Y006577D03*
X000594Y006577D03*
X000592Y006577D03*
X000588Y006577D03*
X000584Y006577D03*
X000582Y006577D03*
X000578Y006577D03*
X000574Y006577D03*
X000572Y006577D03*
X000568Y006577D03*
X000564Y006577D03*
X000562Y006577D03*
X000558Y006577D03*
X000554Y006577D03*
X000552Y006577D03*
X000548Y006577D03*
X000544Y006577D03*
X000542Y006577D03*
X000538Y006577D03*
X000534Y006577D03*
X000532Y006577D03*
X000528Y006577D03*
X000524Y006577D03*
X000522Y006577D03*
X000742Y006577D03*
X000744Y006577D03*
X000748Y006577D03*
X000752Y006577D03*
X000754Y006577D03*
X000758Y006577D03*
X000762Y006577D03*
X000764Y006577D03*
X000768Y006577D03*
X000772Y006577D03*
X000774Y006577D03*
X000778Y006577D03*
X000782Y006577D03*
X000784Y006577D03*
X000788Y006577D03*
X000792Y006577D03*
X000794Y006577D03*
X000798Y006577D03*
X000802Y006577D03*
X000804Y006577D03*
X000808Y006577D03*
X000812Y006577D03*
X000814Y006577D03*
X000818Y006577D03*
X000822Y006577D03*
X000824Y006577D03*
X000828Y006577D03*
X000832Y006577D03*
X000834Y006577D03*
X000838Y006577D03*
X000842Y006577D03*
X000844Y006577D03*
X000848Y006577D03*
X000852Y006577D03*
X000854Y006577D03*
X000858Y006577D03*
X000862Y006577D03*
X000864Y006577D03*
X000868Y006577D03*
X000872Y006577D03*
X001308Y006777D03*
X001334Y006767D03*
X001394Y006587D03*
X001398Y006587D03*
X001372Y006577D03*
X001368Y006577D03*
D130*
X001266Y006874D03*
D131*
X001264Y006877D03*
X000554Y008195D03*
X000764Y009465D03*
X000764Y009989D03*
X000764Y011337D03*
D132*
X000758Y009988D03*
X001262Y006882D03*
D133*
X001258Y006889D03*
X000744Y009467D03*
D134*
X000746Y009989D03*
X000776Y011339D03*
X000540Y008191D03*
X001166Y008021D03*
X000880Y007575D03*
X001256Y006891D03*
D135*
X001254Y006895D03*
X000734Y009467D03*
D136*
X001252Y006898D03*
D137*
X001250Y006903D03*
X001176Y006989D03*
X000530Y008187D03*
D138*
X000558Y007937D03*
X000768Y007427D03*
X001248Y007347D03*
X000702Y009467D03*
X000602Y011357D03*
X000772Y013427D03*
D139*
X000570Y010119D03*
X000656Y009989D03*
X000570Y009861D03*
X000570Y009339D03*
X001246Y006945D03*
D140*
X001186Y006972D03*
X000786Y007708D03*
X000546Y007714D03*
X001246Y008116D03*
X000530Y008636D03*
X000486Y009312D03*
X000486Y009624D03*
X000486Y009834D03*
X000696Y009988D03*
X000486Y010146D03*
X000530Y010988D03*
X000606Y011362D03*
X000780Y013420D03*
D141*
X000572Y009861D03*
X001182Y008019D03*
X000868Y007573D03*
X001204Y006945D03*
X001244Y006945D03*
D142*
X001242Y006944D03*
X001238Y006944D03*
X000572Y009340D03*
X000574Y009596D03*
X000574Y009862D03*
X000572Y010118D03*
D143*
X000570Y009596D03*
X001240Y006944D03*
D144*
X001240Y007358D03*
X000536Y007704D03*
X001240Y007930D03*
X000490Y009836D03*
D145*
X000576Y009863D03*
X000866Y011461D03*
X000520Y013371D03*
X001236Y006943D03*
D146*
X000656Y007211D03*
X000526Y007217D03*
X000530Y007453D03*
X000796Y007455D03*
X001236Y007531D03*
X001236Y007363D03*
X000800Y007691D03*
X000530Y007697D03*
X001236Y007935D03*
X001236Y008103D03*
X000526Y008629D03*
X000500Y008971D03*
X000496Y008971D03*
X000500Y009619D03*
X000500Y009839D03*
X000690Y009989D03*
X000526Y010981D03*
X000516Y011539D03*
X000536Y013407D03*
D147*
X000654Y009989D03*
X000654Y009467D03*
X000652Y009467D03*
X000574Y009341D03*
X001184Y008019D03*
X000458Y007577D03*
X001184Y007447D03*
X001228Y006943D03*
X001232Y006943D03*
X001234Y006943D03*
D148*
X000522Y007207D03*
X001232Y007373D03*
X001232Y007521D03*
X000522Y007683D03*
X000874Y008083D03*
X000512Y008971D03*
X000518Y009323D03*
X000522Y009323D03*
X000682Y009467D03*
D149*
X001206Y006942D03*
X001226Y006942D03*
X001230Y006942D03*
D150*
X001230Y007448D03*
X001230Y008020D03*
X000496Y011468D03*
D151*
X001228Y007448D03*
D152*
X001228Y008019D03*
X000482Y008089D03*
D153*
X000486Y007576D03*
X001226Y007448D03*
X000850Y013256D03*
D154*
X000706Y010839D03*
X000706Y008487D03*
X001226Y008019D03*
X000480Y006673D03*
D155*
X001222Y006942D03*
X001224Y006942D03*
D156*
X000714Y006668D03*
X001222Y007448D03*
X000484Y007576D03*
X000464Y008482D03*
X000464Y010834D03*
X000854Y013252D03*
D157*
X000630Y011403D03*
X000650Y009467D03*
X001216Y006941D03*
X001220Y006941D03*
D158*
X001220Y008020D03*
X000726Y008480D03*
X000470Y013250D03*
D159*
X000488Y011465D03*
X000842Y011455D03*
X000724Y010831D03*
X000722Y010831D03*
X000722Y008479D03*
X000724Y008479D03*
X000848Y008085D03*
X001218Y008019D03*
X000844Y007573D03*
X000482Y007575D03*
X001218Y007447D03*
X000724Y007065D03*
X000712Y007065D03*
D160*
X000720Y007063D03*
X000720Y006663D03*
X000846Y007573D03*
X000480Y007575D03*
X001216Y008019D03*
X000486Y011465D03*
D161*
X001208Y006940D03*
X001214Y006940D03*
D162*
X001214Y007447D03*
X000844Y011457D03*
D163*
X001214Y008019D03*
X000478Y007575D03*
D164*
X001210Y006940D03*
D165*
X001210Y007447D03*
D166*
X000850Y007575D03*
X001210Y008019D03*
D167*
X000456Y008466D03*
X001206Y007448D03*
X000456Y010818D03*
D168*
X000850Y011459D03*
X001206Y008019D03*
D169*
X001202Y008020D03*
X001204Y007448D03*
D170*
X001202Y006946D03*
X000568Y009338D03*
X000658Y009988D03*
X000628Y011398D03*
D171*
X000666Y009467D03*
X000550Y009333D03*
X000536Y008971D03*
X001180Y007447D03*
X001200Y006951D03*
D172*
X001200Y007448D03*
D173*
X001200Y008019D03*
D174*
X001178Y007448D03*
X001198Y006954D03*
X000544Y009330D03*
X000542Y009330D03*
X000542Y009606D03*
X000542Y009852D03*
X000542Y010128D03*
X000544Y010128D03*
D175*
X000470Y011461D03*
X001196Y008019D03*
X000466Y007577D03*
X001196Y007447D03*
D176*
X001194Y006960D03*
X000522Y008620D03*
X000524Y009324D03*
X000524Y009846D03*
X000522Y009846D03*
X000522Y010134D03*
X000524Y010134D03*
X000618Y011378D03*
X000704Y011546D03*
X000528Y013394D03*
D177*
X001194Y007447D03*
D178*
X001194Y008019D03*
X000464Y008089D03*
D179*
X001188Y008019D03*
X000872Y013211D03*
D180*
X000866Y007575D03*
X001186Y007447D03*
D181*
X001186Y008020D03*
D182*
X001182Y007447D03*
X000658Y009467D03*
X000572Y009597D03*
X000568Y009597D03*
D183*
X000666Y009989D03*
X000550Y010125D03*
X001180Y008019D03*
X000456Y007575D03*
D184*
X000520Y007681D03*
X000520Y007977D03*
X001176Y008021D03*
X000660Y007201D03*
X000510Y008971D03*
X000520Y009613D03*
D185*
X000724Y009988D03*
X001174Y006990D03*
D186*
X001174Y007447D03*
X000658Y007207D03*
X000452Y007577D03*
X000508Y009617D03*
X000524Y010977D03*
D187*
X000784Y011343D03*
X000532Y011555D03*
X000734Y009989D03*
X000534Y008189D03*
X001172Y006995D03*
D188*
X001168Y007447D03*
X000724Y009467D03*
X000788Y011343D03*
D189*
X001168Y008019D03*
D190*
X001166Y007447D03*
X000740Y009467D03*
D191*
X000738Y009989D03*
X000878Y011465D03*
D192*
X000674Y010863D03*
X000502Y010863D03*
X000808Y010461D03*
X000812Y010461D03*
X000824Y010461D03*
X000828Y010461D03*
X000832Y010461D03*
X000844Y010461D03*
X000848Y010461D03*
X000852Y010461D03*
X000864Y010461D03*
X000868Y010461D03*
X000872Y010461D03*
X000732Y008971D03*
X000674Y008511D03*
X000502Y008511D03*
X000818Y007575D03*
X000508Y013281D03*
D193*
X000814Y013282D03*
X000812Y012508D03*
X000808Y012508D03*
X000824Y012508D03*
X000828Y012508D03*
X000832Y012508D03*
X000844Y012508D03*
X000848Y012508D03*
X000852Y012508D03*
X000864Y012508D03*
X000868Y012508D03*
X000872Y012508D03*
X000668Y010864D03*
X000504Y010864D03*
X000814Y010462D03*
X000818Y010462D03*
X000822Y010462D03*
X000834Y010462D03*
X000838Y010462D03*
X000842Y010462D03*
X000854Y010462D03*
X000858Y010462D03*
X000862Y010462D03*
X000668Y008512D03*
X000504Y008512D03*
X000504Y007098D03*
X000502Y007098D03*
X000668Y007098D03*
D194*
X000834Y008089D03*
X000482Y008501D03*
X000708Y008971D03*
X000712Y008971D03*
X000482Y010853D03*
X000808Y012899D03*
X000812Y012899D03*
X000824Y012899D03*
X000828Y012899D03*
X000832Y012899D03*
X000844Y012899D03*
X000848Y012899D03*
X000852Y012899D03*
X000864Y012899D03*
X000868Y012899D03*
X000872Y012899D03*
X000832Y013271D03*
D195*
X000460Y011459D03*
X000660Y009467D03*
X000566Y009337D03*
X000456Y008087D03*
X000870Y008085D03*
D196*
X000826Y008090D03*
X000670Y008512D03*
X000670Y007098D03*
X000810Y010462D03*
X000826Y010462D03*
X000830Y010462D03*
X000846Y010462D03*
X000850Y010462D03*
X000866Y010462D03*
X000870Y010462D03*
X000670Y010864D03*
X000816Y012508D03*
X000820Y012508D03*
X000836Y012508D03*
X000840Y012508D03*
X000856Y012508D03*
X000860Y012508D03*
X000510Y013282D03*
D197*
X000810Y012507D03*
X000826Y012507D03*
X000830Y012507D03*
X000846Y012507D03*
X000850Y012507D03*
X000866Y012507D03*
X000870Y012507D03*
X000500Y007097D03*
D198*
X000690Y007088D03*
X000506Y006688D03*
X000496Y008088D03*
X000806Y012900D03*
X000810Y012900D03*
X000826Y012900D03*
X000830Y012900D03*
X000846Y012900D03*
X000850Y012900D03*
X000866Y012900D03*
X000870Y012900D03*
X000830Y013272D03*
D199*
X000870Y013222D03*
D200*
X000512Y011527D03*
X000458Y011457D03*
X000868Y011463D03*
X000552Y009603D03*
X000664Y009467D03*
X000552Y009333D03*
X000534Y008971D03*
X000532Y008971D03*
X000514Y007993D03*
X000812Y007667D03*
X000812Y007483D03*
D201*
X000732Y006643D03*
X000652Y011447D03*
X000672Y011479D03*
X000868Y013227D03*
D202*
X000690Y011513D03*
X000866Y008085D03*
D203*
X000730Y006650D03*
X000866Y013234D03*
D204*
X000864Y007574D03*
D205*
X000864Y011463D03*
X000692Y011519D03*
D206*
X000478Y011463D03*
X000864Y013237D03*
X000472Y008089D03*
X000474Y007575D03*
D207*
X000862Y008085D03*
X000642Y011429D03*
X000858Y011461D03*
D208*
X000862Y011461D03*
D209*
X000862Y012507D03*
X000858Y012507D03*
X000854Y012507D03*
X000842Y012507D03*
X000838Y012507D03*
X000834Y012507D03*
X000822Y012507D03*
X000818Y012507D03*
X000814Y012507D03*
X000508Y007577D03*
X000672Y007097D03*
D210*
X000688Y007088D03*
X000682Y006688D03*
X000688Y008502D03*
X000484Y008502D03*
X000484Y010854D03*
X000688Y010854D03*
X000822Y011450D03*
X000822Y012900D03*
X000818Y012900D03*
X000814Y012900D03*
X000834Y012900D03*
X000838Y012900D03*
X000842Y012900D03*
X000854Y012900D03*
X000858Y012900D03*
X000862Y012900D03*
X000494Y013272D03*
D211*
X000862Y013240D03*
D212*
X000456Y013221D03*
X000680Y011493D03*
X000860Y007573D03*
D213*
X000860Y008085D03*
X000646Y011435D03*
X000676Y011485D03*
D214*
X000816Y010461D03*
X000820Y010461D03*
X000836Y010461D03*
X000840Y010461D03*
X000856Y010461D03*
X000860Y010461D03*
X000730Y008971D03*
X000816Y013281D03*
D215*
X000686Y011503D03*
X000860Y011461D03*
D216*
X000690Y010853D03*
X000816Y012899D03*
X000820Y012899D03*
X000836Y012899D03*
X000840Y012899D03*
X000856Y012899D03*
X000860Y012899D03*
X000690Y008501D03*
X000500Y007575D03*
D217*
X000476Y008087D03*
X000846Y011457D03*
X000860Y013243D03*
D218*
X000858Y013246D03*
D219*
X000460Y013233D03*
X000470Y008087D03*
X000856Y008085D03*
X000460Y006649D03*
D220*
X000480Y008089D03*
X000856Y013249D03*
D221*
X000464Y013239D03*
X000848Y011459D03*
X000854Y008085D03*
D222*
X000468Y008089D03*
X000454Y008459D03*
X000454Y010811D03*
X000474Y011463D03*
X000654Y011451D03*
X000668Y011473D03*
X000674Y011483D03*
X000854Y011459D03*
D223*
X000852Y007574D03*
D224*
X000852Y008085D03*
X000482Y011463D03*
D225*
X000850Y008087D03*
X000460Y007061D03*
D226*
X000476Y006669D03*
X000846Y008087D03*
X000710Y008483D03*
X000710Y010835D03*
D227*
X000846Y013260D03*
X000836Y007574D03*
D228*
X000844Y008087D03*
X000484Y008087D03*
X000708Y007071D03*
D229*
X000488Y008089D03*
X000702Y008491D03*
X000702Y010843D03*
X000832Y011453D03*
X000508Y011461D03*
X000504Y011465D03*
X000844Y013261D03*
D230*
X000498Y011467D03*
X000842Y008087D03*
X000472Y007077D03*
X000484Y006677D03*
D231*
X000698Y006680D03*
X000474Y007080D03*
X000842Y013264D03*
D232*
X000830Y011453D03*
X000510Y011461D03*
X000840Y008087D03*
X000700Y007079D03*
X000700Y006679D03*
D233*
X000840Y013265D03*
D234*
X000478Y013258D03*
X000468Y010840D03*
X000704Y010840D03*
X000704Y008488D03*
X000468Y008488D03*
X000488Y007576D03*
X000838Y007574D03*
D235*
X000832Y007573D03*
X000838Y008087D03*
X000492Y006681D03*
X000474Y010847D03*
X000698Y010847D03*
X000828Y011453D03*
D236*
X000478Y010849D03*
X000632Y010447D03*
X000644Y010447D03*
X000648Y010447D03*
X000652Y010447D03*
X000664Y010447D03*
X000668Y010447D03*
X000672Y010447D03*
X000684Y010447D03*
X000688Y010447D03*
X000692Y010447D03*
X000478Y008497D03*
X000692Y006683D03*
X000694Y012493D03*
X000682Y012493D03*
X000678Y012493D03*
X000674Y012493D03*
X000662Y012493D03*
X000658Y012493D03*
X000654Y012493D03*
X000642Y012493D03*
X000638Y012493D03*
X000634Y012493D03*
X000488Y013267D03*
X000838Y013267D03*
D237*
X000836Y013267D03*
X000690Y012493D03*
X000686Y012493D03*
X000670Y012493D03*
X000666Y012493D03*
X000650Y012493D03*
X000646Y012493D03*
X000630Y012493D03*
X000636Y010447D03*
X000640Y010447D03*
X000656Y010447D03*
X000660Y010447D03*
X000676Y010447D03*
X000680Y010447D03*
X000836Y008087D03*
X000696Y007083D03*
X000496Y006683D03*
D238*
X000834Y007575D03*
X000698Y008495D03*
X000474Y008495D03*
D239*
X000704Y007075D03*
X000834Y011453D03*
D240*
X000834Y013270D03*
X000692Y008500D03*
X000828Y007574D03*
D241*
X000832Y008089D03*
X000714Y008971D03*
X000508Y006689D03*
X000828Y013273D03*
D242*
X000826Y011451D03*
X000830Y007575D03*
X000480Y007085D03*
X000500Y006685D03*
D243*
X000830Y008089D03*
X000490Y008505D03*
X000500Y013275D03*
D244*
X000502Y013277D03*
X000504Y013277D03*
X000824Y013277D03*
X000722Y008971D03*
X000718Y008971D03*
X000828Y008089D03*
X000822Y007575D03*
X000492Y007093D03*
D245*
X000680Y006689D03*
X000826Y007575D03*
X000686Y008503D03*
X000486Y008503D03*
X000710Y008971D03*
X000686Y010855D03*
X000486Y010855D03*
X000820Y011449D03*
X000496Y013273D03*
D246*
X000826Y013276D03*
D247*
X000818Y011449D03*
X000498Y008089D03*
X000502Y007575D03*
X000824Y007575D03*
D248*
X000824Y008089D03*
X000734Y008971D03*
X000508Y007099D03*
X000512Y013283D03*
X000812Y013283D03*
D249*
X000824Y011452D03*
X000692Y010852D03*
X000494Y008088D03*
X000482Y007086D03*
X000502Y006686D03*
D250*
X000822Y008090D03*
X000514Y008516D03*
X000514Y010868D03*
X000518Y013286D03*
D251*
X000822Y013278D03*
X000678Y010860D03*
X000494Y010860D03*
X000494Y008508D03*
X000678Y008508D03*
X000678Y007094D03*
X000494Y007094D03*
D252*
X000496Y007095D03*
X000676Y007095D03*
X000820Y007575D03*
X000510Y008081D03*
X000506Y008085D03*
X000496Y008509D03*
X000726Y008971D03*
X000496Y010861D03*
X000820Y013279D03*
D253*
X000820Y008091D03*
X000516Y007103D03*
D254*
X000818Y008089D03*
X000752Y008971D03*
D255*
X000672Y008510D03*
X000498Y008510D03*
X000498Y010460D03*
X000494Y010460D03*
X000492Y010460D03*
X000488Y010460D03*
X000484Y010460D03*
X000482Y010460D03*
X000478Y010460D03*
X000474Y010460D03*
X000472Y010460D03*
X000468Y010460D03*
X000464Y010460D03*
X000462Y010460D03*
X000458Y010460D03*
X000454Y010460D03*
X000502Y010460D03*
X000504Y010460D03*
X000508Y010460D03*
X000512Y010460D03*
X000514Y010460D03*
X000518Y010460D03*
X000818Y013280D03*
D256*
X000666Y010865D03*
X000506Y010865D03*
X000736Y008971D03*
X000666Y008513D03*
X000506Y008513D03*
X000510Y007577D03*
X000816Y007575D03*
X000506Y007099D03*
D257*
X000816Y008091D03*
X000756Y008971D03*
D258*
X000680Y008507D03*
X000500Y008089D03*
X000680Y007093D03*
X000680Y010859D03*
X000816Y011449D03*
D259*
X000808Y013285D03*
X000662Y008515D03*
X000512Y008515D03*
X000814Y007575D03*
D260*
X000814Y008090D03*
D261*
X000512Y008079D03*
X000508Y008083D03*
X000504Y008087D03*
X000502Y008089D03*
X000724Y008971D03*
X000728Y008971D03*
X000814Y011449D03*
D262*
X000558Y010123D03*
X000664Y009989D03*
X000558Y009857D03*
X000662Y009467D03*
X000558Y009335D03*
X000538Y008971D03*
X000812Y008185D03*
X000522Y013379D03*
D263*
X000812Y011548D03*
X000504Y009618D03*
X000502Y009618D03*
X000504Y009318D03*
X000508Y009318D03*
X000798Y007456D03*
X000524Y006792D03*
D264*
X000810Y007479D03*
X000520Y008613D03*
X000526Y008971D03*
X000530Y008971D03*
X000546Y009331D03*
X000670Y009467D03*
X000546Y010127D03*
X000520Y010965D03*
X000700Y011537D03*
D265*
X000540Y010128D03*
X000810Y008190D03*
D266*
X000550Y009604D03*
X000546Y009604D03*
X000546Y009854D03*
X000550Y009854D03*
X000810Y011362D03*
D267*
X000810Y013284D03*
X000666Y007100D03*
X000510Y007100D03*
D268*
X000806Y007682D03*
X000806Y008198D03*
X000660Y008616D03*
X000520Y009322D03*
X000516Y009322D03*
X000516Y010136D03*
X000660Y010968D03*
X000806Y011356D03*
D269*
X000516Y010868D03*
X000516Y008516D03*
X000806Y013286D03*
D270*
X000804Y013379D03*
X000552Y009855D03*
X000514Y007485D03*
D271*
X000792Y007702D03*
X000494Y009622D03*
X000492Y009622D03*
D272*
X000786Y011342D03*
D273*
X000782Y011342D03*
X000534Y011556D03*
X000732Y009988D03*
D274*
X000780Y011340D03*
X000536Y011558D03*
D275*
X000538Y011559D03*
X000778Y011339D03*
D276*
X000774Y011339D03*
X000448Y011453D03*
X000748Y009989D03*
D277*
X000752Y009466D03*
X000772Y011338D03*
D278*
X000690Y011878D03*
X000686Y011878D03*
X000680Y011878D03*
X000676Y011878D03*
X000670Y011878D03*
X000666Y011878D03*
X000660Y011878D03*
X000656Y011878D03*
X000650Y011878D03*
X000646Y011878D03*
X000640Y011878D03*
X000636Y011878D03*
X000630Y011878D03*
X000770Y008972D03*
D279*
X000770Y011338D03*
D280*
X000768Y008971D03*
D281*
X000768Y009467D03*
X000554Y011565D03*
D282*
X000768Y009988D03*
D283*
X000758Y009467D03*
X000768Y011337D03*
D284*
X000766Y008971D03*
D285*
X000766Y009467D03*
D286*
X000766Y009988D03*
D287*
X000760Y009467D03*
X000766Y011337D03*
D288*
X000764Y008971D03*
X000762Y008971D03*
D289*
X000762Y009467D03*
D290*
X000762Y009989D03*
X000548Y011563D03*
X000552Y008195D03*
D291*
X000762Y011336D03*
X000552Y011564D03*
D292*
X000760Y008972D03*
D293*
X000550Y008195D03*
X000756Y009989D03*
X000760Y009989D03*
D294*
X000758Y008971D03*
X000754Y008971D03*
D295*
X000756Y009467D03*
X000546Y011561D03*
D296*
X000544Y011561D03*
X000752Y009989D03*
X000754Y009467D03*
D297*
X000754Y009988D03*
D298*
X000750Y008971D03*
X000746Y008971D03*
D299*
X000744Y008971D03*
X000748Y008971D03*
X000518Y008517D03*
X000518Y007103D03*
X000518Y010869D03*
D300*
X000542Y011561D03*
X000748Y009467D03*
X000544Y008193D03*
D301*
X000746Y009467D03*
D302*
X000744Y009988D03*
X000542Y008192D03*
D303*
X000738Y008971D03*
X000742Y008971D03*
X000512Y007101D03*
X000512Y010867D03*
X000662Y010867D03*
D304*
X000742Y009467D03*
D305*
X000742Y009988D03*
D306*
X000510Y010867D03*
X000740Y008971D03*
D307*
X000740Y009989D03*
D308*
X000738Y009466D03*
D309*
X000466Y011461D03*
X000736Y006631D03*
D310*
X000446Y007577D03*
X000536Y008191D03*
X000736Y009467D03*
D311*
X000736Y009989D03*
D312*
X000678Y011490D03*
X000734Y006640D03*
D313*
X000732Y009467D03*
D314*
X000730Y009467D03*
D315*
X000730Y009988D03*
D316*
X000728Y006651D03*
D317*
X000728Y009466D03*
D318*
X000728Y009989D03*
X000532Y008189D03*
D319*
X000726Y006656D03*
D320*
X000726Y009466D03*
D321*
X000726Y009989D03*
D322*
X000474Y008087D03*
X000464Y006657D03*
X000724Y006657D03*
D323*
X000722Y007064D03*
X000712Y008478D03*
X000712Y010830D03*
D324*
X000720Y010830D03*
X000720Y008478D03*
X000470Y006664D03*
D325*
X000516Y006691D03*
X000716Y008971D03*
X000720Y008971D03*
X000490Y010857D03*
D326*
X000462Y007066D03*
X000718Y006666D03*
D327*
X000716Y006667D03*
D328*
X000716Y007062D03*
D329*
X000714Y007062D03*
D330*
X000662Y006798D03*
X000532Y007450D03*
X000538Y007706D03*
X000492Y009314D03*
X000494Y009836D03*
X000694Y009988D03*
X000492Y010144D03*
X000714Y011560D03*
D331*
X000706Y007072D03*
X000466Y007072D03*
X000710Y006672D03*
D332*
X000710Y007068D03*
D333*
X000470Y007076D03*
X000706Y006676D03*
D334*
X000706Y008970D03*
X000490Y013270D03*
D335*
X000482Y006676D03*
X000704Y006676D03*
D336*
X000702Y006678D03*
X000702Y007078D03*
X000472Y008492D03*
X000472Y010844D03*
X000502Y011466D03*
X000482Y013262D03*
D337*
X000454Y013214D03*
X000642Y008168D03*
X000654Y008168D03*
X000658Y008168D03*
X000662Y008168D03*
X000674Y008168D03*
X000678Y008168D03*
X000682Y008168D03*
X000694Y008168D03*
X000698Y008168D03*
X000702Y008168D03*
D338*
X000700Y008169D03*
X000696Y008169D03*
X000680Y008169D03*
X000676Y008169D03*
X000660Y008169D03*
X000656Y008169D03*
X000640Y008169D03*
X000636Y011417D03*
D339*
X000506Y011464D03*
X000700Y010844D03*
X000700Y008492D03*
X000486Y006678D03*
D340*
X000494Y006682D03*
X000694Y006682D03*
X000698Y007082D03*
X000692Y012492D03*
X000688Y012492D03*
X000684Y012492D03*
X000672Y012492D03*
X000668Y012492D03*
X000664Y012492D03*
X000652Y012492D03*
X000648Y012492D03*
X000644Y012492D03*
X000632Y012492D03*
D341*
X000698Y011532D03*
X000662Y009988D03*
X000562Y009858D03*
X000562Y009600D03*
X000558Y009600D03*
X000564Y009336D03*
D342*
X000476Y007081D03*
X000696Y006681D03*
D343*
X000696Y008496D03*
X000476Y008496D03*
X000630Y010446D03*
X000646Y010446D03*
X000650Y010446D03*
X000666Y010446D03*
X000670Y010446D03*
X000686Y010446D03*
X000690Y010446D03*
X000696Y010848D03*
X000476Y010848D03*
X000486Y013266D03*
D344*
X000696Y011528D03*
X000566Y009598D03*
D345*
X000478Y007084D03*
X000694Y007084D03*
X000498Y006684D03*
D346*
X000688Y006685D03*
X000692Y007085D03*
X000694Y008499D03*
X000694Y010851D03*
X000492Y013269D03*
D347*
X000634Y010446D03*
X000638Y010446D03*
X000642Y010446D03*
X000654Y010446D03*
X000658Y010446D03*
X000662Y010446D03*
X000674Y010446D03*
X000678Y010446D03*
X000682Y010446D03*
X000694Y010446D03*
X000492Y008088D03*
X000494Y007576D03*
D348*
X000628Y011878D03*
X000632Y011878D03*
X000634Y011878D03*
X000638Y011878D03*
X000642Y011878D03*
X000644Y011878D03*
X000648Y011878D03*
X000652Y011878D03*
X000654Y011878D03*
X000658Y011878D03*
X000662Y011878D03*
X000664Y011878D03*
X000668Y011878D03*
X000672Y011878D03*
X000674Y011878D03*
X000678Y011878D03*
X000682Y011878D03*
X000684Y011878D03*
X000688Y011878D03*
X000692Y011878D03*
X000694Y011878D03*
D349*
X000480Y010850D03*
X000480Y008498D03*
X000496Y007576D03*
X000690Y006684D03*
D350*
X000686Y006686D03*
D351*
X000676Y006690D03*
X000510Y006690D03*
X000486Y007090D03*
X000686Y007090D03*
D352*
X000686Y009467D03*
D353*
X000498Y007577D03*
X000484Y007087D03*
X000504Y006687D03*
X000684Y006687D03*
D354*
X000672Y006691D03*
X000512Y006691D03*
X000488Y007091D03*
X000684Y007091D03*
D355*
X000678Y006690D03*
X000684Y008504D03*
X000488Y008504D03*
X000488Y010856D03*
X000684Y010856D03*
X000498Y013274D03*
D356*
X000682Y007092D03*
X000674Y006692D03*
X000518Y006692D03*
X000514Y006692D03*
D357*
X000504Y007576D03*
X000492Y008506D03*
X000682Y008506D03*
X000682Y010858D03*
X000492Y010858D03*
D358*
X000682Y009988D03*
X000518Y009844D03*
X000518Y009614D03*
X000514Y009614D03*
D359*
X000644Y011432D03*
X000682Y011496D03*
D360*
X000680Y012492D03*
X000676Y012492D03*
X000660Y012492D03*
X000656Y012492D03*
X000640Y012492D03*
X000636Y012492D03*
D361*
X000676Y010860D03*
X000676Y008508D03*
D362*
X000674Y007096D03*
X000498Y007096D03*
X000498Y010862D03*
X000672Y010862D03*
X000518Y012506D03*
X000514Y012506D03*
X000512Y012506D03*
X000508Y012506D03*
X000504Y012506D03*
X000502Y012506D03*
X000498Y012506D03*
X000494Y012506D03*
X000492Y012506D03*
X000488Y012506D03*
X000484Y012506D03*
X000482Y012506D03*
X000478Y012506D03*
X000474Y012506D03*
X000472Y012506D03*
X000468Y012506D03*
X000464Y012506D03*
X000462Y012506D03*
X000458Y012506D03*
X000454Y012506D03*
D363*
X000476Y011463D03*
X000660Y011459D03*
X000666Y011469D03*
D364*
X000664Y010866D03*
X000508Y010866D03*
X000508Y008514D03*
X000664Y008514D03*
X000512Y007576D03*
X000662Y007100D03*
X000664Y007100D03*
X000514Y013284D03*
D365*
X000656Y009467D03*
D366*
X000640Y011426D03*
D367*
X000638Y011422D03*
X000454Y006634D03*
D368*
X000632Y011409D03*
X000464Y011461D03*
D369*
X000626Y011394D03*
X000560Y010122D03*
X000560Y009600D03*
X000560Y009336D03*
D370*
X000568Y009860D03*
X000568Y010120D03*
D371*
X000566Y010120D03*
X000566Y009860D03*
D372*
X000556Y008195D03*
D373*
X000556Y009334D03*
X000556Y010124D03*
D374*
X000554Y010124D03*
X000552Y010124D03*
X000554Y009856D03*
X000554Y009334D03*
D375*
X000554Y009602D03*
D376*
X000550Y011565D03*
D377*
X000548Y008195D03*
D378*
X000548Y009332D03*
X000548Y009604D03*
X000548Y010126D03*
D379*
X000540Y009607D03*
D380*
X000540Y011561D03*
D381*
X000538Y008192D03*
D382*
X000536Y009328D03*
X000536Y009608D03*
D383*
X000536Y009850D03*
X000536Y010130D03*
D384*
X000534Y009608D03*
X000514Y008168D03*
D385*
X000534Y009850D03*
D386*
X000530Y011553D03*
D387*
X000522Y010972D03*
X000522Y009612D03*
X000524Y009612D03*
X000514Y008972D03*
D388*
X000500Y008510D03*
X000500Y010460D03*
X000496Y010460D03*
X000490Y010460D03*
X000486Y010460D03*
X000480Y010460D03*
X000476Y010460D03*
X000470Y010460D03*
X000466Y010460D03*
X000460Y010460D03*
X000456Y010460D03*
X000506Y010460D03*
X000510Y010460D03*
X000516Y010460D03*
X000506Y013280D03*
D389*
X000506Y012506D03*
X000510Y012506D03*
X000516Y012506D03*
X000500Y012506D03*
X000496Y012506D03*
X000490Y012506D03*
X000486Y012506D03*
X000480Y012506D03*
X000476Y012506D03*
X000470Y012506D03*
X000466Y012506D03*
X000460Y012506D03*
X000456Y012506D03*
X000500Y010862D03*
X000506Y007576D03*
D390*
X000510Y008515D03*
X000516Y013285D03*
D391*
X000514Y007102D03*
D392*
X000510Y009320D03*
X000510Y009616D03*
X000510Y009842D03*
X000510Y010138D03*
D393*
X000470Y010843D03*
X000500Y011469D03*
X000470Y008491D03*
X000490Y007575D03*
D394*
X000492Y007575D03*
X000488Y006679D03*
X000484Y013263D03*
D395*
X000490Y008088D03*
X000490Y006680D03*
D396*
X000490Y007092D03*
D397*
X000490Y009622D03*
D398*
X000478Y006672D03*
D399*
X000468Y007577D03*
X000472Y011461D03*
D400*
X000470Y007577D03*
D401*
X000466Y006660D03*
X000466Y013244D03*
D402*
X000460Y008087D03*
D403*
X000458Y006646D03*
D404*
X000458Y013230D03*
D405*
X000454Y007044D03*
D406*
X000446Y008085D03*
D407*
X012165Y007133D03*
X012835Y007133D03*
X013915Y005283D03*
X014585Y005283D03*
X015315Y005283D03*
X015985Y005283D03*
X017915Y005283D03*
X018585Y005283D03*
X020215Y005683D03*
X020885Y005683D03*
X018585Y006433D03*
X017915Y006433D03*
X016685Y008333D03*
X016015Y008333D03*
X022765Y009433D03*
X023435Y009433D03*
X023485Y011183D03*
X022815Y011183D03*
X023565Y012133D03*
X024235Y012133D03*
X024235Y013283D03*
X023565Y013283D03*
X021485Y013683D03*
X020815Y013683D03*
X018585Y013583D03*
X017915Y013583D03*
X017915Y012883D03*
X018585Y012883D03*
X022965Y015733D03*
X023635Y015733D03*
X026615Y011433D03*
X027285Y011433D03*
D408*
X027550Y013349D03*
X026950Y013349D03*
X026350Y013349D03*
X026350Y014018D03*
X026950Y014018D03*
X027550Y014018D03*
X028200Y014018D03*
X028200Y013349D03*
X028150Y015549D03*
X028150Y016218D03*
X026850Y016218D03*
X026850Y015549D03*
X025550Y015549D03*
X025550Y016218D03*
X020000Y015268D03*
X019400Y015268D03*
X019400Y014599D03*
X020000Y014599D03*
X016100Y013918D03*
X016100Y013249D03*
X016100Y012318D03*
X016754Y012300D03*
X016754Y011631D03*
X016100Y011649D03*
X016550Y010268D03*
X016550Y009599D03*
X025200Y007968D03*
X025200Y007299D03*
X016000Y015399D03*
X016000Y016068D03*
D409*
X017449Y014583D03*
X018551Y014583D03*
X020849Y014583D03*
X021951Y014583D03*
X022599Y007283D03*
X023701Y007283D03*
D410*
X021126Y007339D03*
X020930Y007339D03*
X020733Y007339D03*
X020536Y007339D03*
X020339Y007339D03*
X020142Y007339D03*
X019945Y007339D03*
X019748Y007339D03*
X019552Y007339D03*
X019355Y007339D03*
X019158Y007339D03*
X018961Y007339D03*
X018764Y007339D03*
X018567Y007339D03*
X018370Y007339D03*
X018174Y007339D03*
X018174Y011827D03*
X018370Y011827D03*
X018567Y011827D03*
X018764Y011827D03*
X018961Y011827D03*
X019158Y011827D03*
X019355Y011827D03*
X019552Y011827D03*
X019748Y011827D03*
X019945Y011827D03*
X020142Y011827D03*
X020339Y011827D03*
X020536Y011827D03*
X020733Y011827D03*
X020930Y011827D03*
X021126Y011827D03*
D411*
X021894Y011060D03*
X021894Y010863D03*
X021894Y010666D03*
X021894Y010469D03*
X021894Y010272D03*
X021894Y010075D03*
X021894Y009879D03*
X021894Y009682D03*
X021894Y009485D03*
X021894Y009288D03*
X021894Y009091D03*
X021894Y008894D03*
X021894Y008698D03*
X021894Y008501D03*
X021894Y008304D03*
X021894Y008107D03*
X017406Y008107D03*
X017406Y008304D03*
X017406Y008501D03*
X017406Y008698D03*
X017406Y008894D03*
X017406Y009091D03*
X017406Y009288D03*
X017406Y009485D03*
X017406Y009682D03*
X017406Y009879D03*
X017406Y010075D03*
X017406Y010272D03*
X017406Y010469D03*
X017406Y010666D03*
X017406Y010863D03*
X017406Y011060D03*
D412*
X025794Y011999D03*
X025794Y012255D03*
X025794Y012511D03*
X025794Y012767D03*
X028106Y012767D03*
X028106Y012511D03*
X028106Y012255D03*
X028106Y011999D03*
D413*
X014462Y014780D03*
X014206Y014780D03*
X013950Y014780D03*
X013694Y014780D03*
X013438Y014780D03*
D414*
X013556Y015829D03*
X014344Y015833D03*
D415*
X014718Y015007D03*
X013182Y015007D03*
D416*
X012857Y015617D02*
X012857Y016050D01*
X015043Y016050D02*
X015043Y015617D01*
D417*
X024784Y015704D02*
X025116Y015704D01*
X025116Y015372D01*
X024784Y015372D01*
X024784Y015704D01*
X024784Y015513D02*
X025116Y015513D01*
X025116Y015654D02*
X024784Y015654D01*
X024784Y016395D02*
X025116Y016395D01*
X025116Y016063D01*
X024784Y016063D01*
X024784Y016395D01*
X024784Y016204D02*
X025116Y016204D01*
X025116Y016345D02*
X024784Y016345D01*
X026084Y016395D02*
X026416Y016395D01*
X026416Y016063D01*
X026084Y016063D01*
X026084Y016395D01*
X026084Y016204D02*
X026416Y016204D01*
X026416Y016345D02*
X026084Y016345D01*
X026084Y015704D02*
X026416Y015704D01*
X026416Y015372D01*
X026084Y015372D01*
X026084Y015704D01*
X026084Y015513D02*
X026416Y015513D01*
X026416Y015654D02*
X026084Y015654D01*
X027384Y015704D02*
X027716Y015704D01*
X027716Y015372D01*
X027384Y015372D01*
X027384Y015704D01*
X027384Y015513D02*
X027716Y015513D01*
X027716Y015654D02*
X027384Y015654D01*
X027384Y016395D02*
X027716Y016395D01*
X027716Y016063D01*
X027384Y016063D01*
X027384Y016395D01*
X027384Y016204D02*
X027716Y016204D01*
X027716Y016345D02*
X027384Y016345D01*
D418*
X024150Y003533D03*
X023150Y003533D03*
X022150Y003533D03*
X021150Y003533D03*
X020150Y003533D03*
X019150Y003533D03*
X018150Y003533D03*
X017150Y003533D03*
X016150Y003533D03*
X015150Y003533D03*
X015150Y002533D03*
X016150Y002533D03*
X017150Y002533D03*
X018150Y002533D03*
X019150Y002533D03*
X020150Y002533D03*
X021150Y002533D03*
X022150Y002533D03*
X023150Y002533D03*
X024150Y002533D03*
D419*
X022550Y012005D03*
X022550Y013462D03*
D420*
X011150Y013133D03*
X010150Y013133D03*
X009150Y013133D03*
X009150Y012133D03*
X010150Y012133D03*
X011150Y012133D03*
X011150Y011133D03*
X010150Y011133D03*
X009150Y011133D03*
X009150Y010133D03*
X010150Y010133D03*
X011150Y010133D03*
X011150Y009133D03*
X010150Y009133D03*
X009150Y009133D03*
X009150Y008133D03*
X010150Y008133D03*
X011150Y008133D03*
X011150Y007133D03*
X010150Y007133D03*
X009150Y007133D03*
X009150Y006133D03*
X010150Y006133D03*
X011150Y006133D03*
X011150Y005133D03*
X010150Y005133D03*
X009150Y005133D03*
X009150Y004133D03*
X010150Y004133D03*
X011150Y004133D03*
X011150Y003133D03*
X010150Y003133D03*
X009150Y003133D03*
X004150Y003133D03*
X003150Y003133D03*
X002150Y003133D03*
X002150Y004133D03*
X003150Y004133D03*
X004150Y004133D03*
X004150Y005133D03*
X003150Y005133D03*
X002150Y005133D03*
X002150Y006133D03*
X003150Y006133D03*
X004150Y006133D03*
X004150Y007133D03*
X003150Y007133D03*
X002150Y007133D03*
X002150Y008133D03*
X003150Y008133D03*
X004150Y008133D03*
X004150Y009133D03*
X003150Y009133D03*
X002150Y009133D03*
X002150Y010133D03*
X003150Y010133D03*
X004150Y010133D03*
X004150Y011133D03*
X003150Y011133D03*
X002150Y011133D03*
X002150Y012133D03*
X003150Y012133D03*
X004150Y012133D03*
X004150Y013133D03*
X003150Y013133D03*
X002150Y013133D03*
X002150Y014133D03*
X003150Y014133D03*
X004150Y014133D03*
X009150Y014133D03*
X010150Y014133D03*
X011150Y014133D03*
D421*
X015170Y013143D03*
X015170Y012233D03*
X015170Y011323D03*
D422*
X012730Y012233D03*
D423*
X023167Y014259D03*
X024033Y014633D03*
X023167Y015007D03*
D424*
X007530Y008633D02*
X007070Y008533D01*
X007010Y008633D01*
X007070Y008733D01*
X007530Y008633D01*
X007517Y008631D02*
X007012Y008631D01*
X007013Y008639D02*
X007504Y008639D01*
X007478Y008622D02*
X007017Y008622D01*
X007022Y008614D02*
X007439Y008614D01*
X007400Y008605D02*
X007027Y008605D01*
X007032Y008597D02*
X007361Y008597D01*
X007322Y008588D02*
X007037Y008588D01*
X007042Y008580D02*
X007283Y008580D01*
X007243Y008571D02*
X007047Y008571D01*
X007052Y008563D02*
X007204Y008563D01*
X007165Y008554D02*
X007058Y008554D01*
X007063Y008546D02*
X007126Y008546D01*
X007087Y008537D02*
X007068Y008537D01*
X006971Y008478D02*
X006327Y008478D01*
X006333Y008486D02*
X006966Y008486D01*
X006960Y008495D02*
X006338Y008495D01*
X006344Y008503D02*
X006955Y008503D01*
X006949Y008512D02*
X006349Y008512D01*
X006355Y008520D02*
X006944Y008520D01*
X006938Y008529D02*
X006361Y008529D01*
X006366Y008537D02*
X006933Y008537D01*
X006927Y008546D02*
X006372Y008546D01*
X006378Y008554D02*
X006922Y008554D01*
X006916Y008563D02*
X006383Y008563D01*
X006389Y008571D02*
X006910Y008571D01*
X006905Y008580D02*
X006394Y008580D01*
X006400Y008588D02*
X006899Y008588D01*
X006894Y008597D02*
X006406Y008597D01*
X006411Y008605D02*
X006888Y008605D01*
X006883Y008614D02*
X006417Y008614D01*
X006423Y008622D02*
X006877Y008622D01*
X006872Y008631D02*
X006428Y008631D01*
X006430Y008633D02*
X006020Y008013D01*
X006650Y008413D01*
X007260Y008033D01*
X006870Y008633D01*
X007250Y009243D01*
X006650Y008863D01*
X006030Y009243D01*
X006430Y008633D01*
X006426Y008639D02*
X006874Y008639D01*
X006879Y008648D02*
X006421Y008648D01*
X006415Y008656D02*
X006884Y008656D01*
X006889Y008665D02*
X006410Y008665D01*
X006404Y008673D02*
X006895Y008673D01*
X006900Y008682D02*
X006398Y008682D01*
X006393Y008690D02*
X006905Y008690D01*
X006911Y008699D02*
X006387Y008699D01*
X006382Y008707D02*
X006916Y008707D01*
X006921Y008716D02*
X006376Y008716D01*
X006371Y008724D02*
X006927Y008724D01*
X006932Y008733D02*
X006365Y008733D01*
X006359Y008741D02*
X006937Y008741D01*
X006942Y008750D02*
X006354Y008750D01*
X006348Y008758D02*
X006948Y008758D01*
X006953Y008767D02*
X006343Y008767D01*
X006337Y008775D02*
X006958Y008775D01*
X006964Y008784D02*
X006331Y008784D01*
X006326Y008792D02*
X006969Y008792D01*
X006974Y008801D02*
X006320Y008801D01*
X006315Y008809D02*
X006979Y008809D01*
X006985Y008818D02*
X006309Y008818D01*
X006304Y008826D02*
X006990Y008826D01*
X006995Y008835D02*
X006298Y008835D01*
X006292Y008843D02*
X007001Y008843D01*
X007006Y008852D02*
X006287Y008852D01*
X006281Y008860D02*
X007011Y008860D01*
X007017Y008869D02*
X006658Y008869D01*
X006672Y008877D02*
X007022Y008877D01*
X007027Y008886D02*
X006685Y008886D01*
X006699Y008894D02*
X007032Y008894D01*
X007038Y008903D02*
X006712Y008903D01*
X006725Y008911D02*
X007043Y008911D01*
X007048Y008920D02*
X006739Y008920D01*
X006752Y008928D02*
X007054Y008928D01*
X007059Y008937D02*
X006766Y008937D01*
X006779Y008945D02*
X007064Y008945D01*
X007069Y008954D02*
X006792Y008954D01*
X006806Y008962D02*
X007075Y008962D01*
X007080Y008971D02*
X006819Y008971D01*
X006833Y008979D02*
X007085Y008979D01*
X007091Y008988D02*
X006846Y008988D01*
X006860Y008996D02*
X007096Y008996D01*
X007101Y009005D02*
X006873Y009005D01*
X006886Y009013D02*
X007107Y009013D01*
X007112Y009022D02*
X006900Y009022D01*
X006913Y009030D02*
X007117Y009030D01*
X007122Y009039D02*
X006927Y009039D01*
X006940Y009047D02*
X007128Y009047D01*
X007133Y009056D02*
X006954Y009056D01*
X006967Y009064D02*
X007138Y009064D01*
X007144Y009073D02*
X006980Y009073D01*
X006994Y009081D02*
X007149Y009081D01*
X007154Y009090D02*
X007007Y009090D01*
X007021Y009098D02*
X007160Y009098D01*
X007165Y009107D02*
X007034Y009107D01*
X007047Y009115D02*
X007170Y009115D01*
X007175Y009124D02*
X007061Y009124D01*
X007074Y009132D02*
X007181Y009132D01*
X007186Y009141D02*
X007088Y009141D01*
X007101Y009149D02*
X007191Y009149D01*
X007197Y009158D02*
X007115Y009158D01*
X007128Y009166D02*
X007202Y009166D01*
X007207Y009175D02*
X007141Y009175D01*
X007155Y009183D02*
X007212Y009183D01*
X007218Y009192D02*
X007168Y009192D01*
X007182Y009200D02*
X007223Y009200D01*
X007228Y009209D02*
X007195Y009209D01*
X007209Y009217D02*
X007234Y009217D01*
X007239Y009226D02*
X007222Y009226D01*
X007235Y009234D02*
X007244Y009234D01*
X007249Y009243D02*
X007250Y009243D01*
X006723Y009141D02*
X006577Y009141D01*
X006579Y009149D02*
X006721Y009149D01*
X006720Y009158D02*
X006580Y009158D01*
X006582Y009166D02*
X006718Y009166D01*
X006716Y009175D02*
X006584Y009175D01*
X006585Y009183D02*
X006715Y009183D01*
X006713Y009192D02*
X006587Y009192D01*
X006589Y009200D02*
X006711Y009200D01*
X006710Y009209D02*
X006590Y009209D01*
X006592Y009217D02*
X006708Y009217D01*
X006706Y009226D02*
X006594Y009226D01*
X006595Y009234D02*
X006705Y009234D01*
X006703Y009243D02*
X006597Y009243D01*
X006599Y009251D02*
X006701Y009251D01*
X006700Y009260D02*
X006600Y009260D01*
X006602Y009268D02*
X006698Y009268D01*
X006696Y009277D02*
X006604Y009277D01*
X006605Y009285D02*
X006695Y009285D01*
X006693Y009294D02*
X006607Y009294D01*
X006609Y009302D02*
X006691Y009302D01*
X006690Y009311D02*
X006610Y009311D01*
X006612Y009319D02*
X006688Y009319D01*
X006686Y009328D02*
X006614Y009328D01*
X006615Y009336D02*
X006685Y009336D01*
X006683Y009345D02*
X006617Y009345D01*
X006619Y009353D02*
X006681Y009353D01*
X006680Y009362D02*
X006620Y009362D01*
X006622Y009370D02*
X006678Y009370D01*
X006676Y009379D02*
X006624Y009379D01*
X006625Y009387D02*
X006675Y009387D01*
X006673Y009396D02*
X006627Y009396D01*
X006629Y009404D02*
X006671Y009404D01*
X006670Y009413D02*
X006630Y009413D01*
X006632Y009421D02*
X006668Y009421D01*
X006666Y009430D02*
X006634Y009430D01*
X006635Y009438D02*
X006665Y009438D01*
X006663Y009447D02*
X006637Y009447D01*
X006639Y009455D02*
X006661Y009455D01*
X006660Y009464D02*
X006640Y009464D01*
X006642Y009472D02*
X006658Y009472D01*
X006656Y009481D02*
X006644Y009481D01*
X006645Y009489D02*
X006655Y009489D01*
X006653Y009498D02*
X006647Y009498D01*
X006649Y009506D02*
X006651Y009506D01*
X006650Y009513D02*
X006740Y009053D01*
X006650Y008993D01*
X006560Y009053D01*
X006650Y009513D01*
X006045Y009234D02*
X006036Y009234D01*
X006031Y009243D02*
X006031Y009243D01*
X006042Y009226D02*
X006059Y009226D01*
X006047Y009217D02*
X006073Y009217D01*
X006087Y009209D02*
X006053Y009209D01*
X006058Y009200D02*
X006101Y009200D01*
X006114Y009192D02*
X006064Y009192D01*
X006070Y009183D02*
X006128Y009183D01*
X006142Y009175D02*
X006075Y009175D01*
X006081Y009166D02*
X006156Y009166D01*
X006170Y009158D02*
X006086Y009158D01*
X006092Y009149D02*
X006184Y009149D01*
X006198Y009141D02*
X006097Y009141D01*
X006103Y009132D02*
X006212Y009132D01*
X006225Y009124D02*
X006109Y009124D01*
X006114Y009115D02*
X006239Y009115D01*
X006253Y009107D02*
X006120Y009107D01*
X006125Y009098D02*
X006267Y009098D01*
X006281Y009090D02*
X006131Y009090D01*
X006136Y009081D02*
X006295Y009081D01*
X006309Y009073D02*
X006142Y009073D01*
X006148Y009064D02*
X006322Y009064D01*
X006336Y009056D02*
X006153Y009056D01*
X006159Y009047D02*
X006350Y009047D01*
X006364Y009039D02*
X006164Y009039D01*
X006170Y009030D02*
X006378Y009030D01*
X006392Y009022D02*
X006175Y009022D01*
X006181Y009013D02*
X006406Y009013D01*
X006420Y009005D02*
X006187Y009005D01*
X006192Y008996D02*
X006433Y008996D01*
X006447Y008988D02*
X006198Y008988D01*
X006203Y008979D02*
X006461Y008979D01*
X006475Y008971D02*
X006209Y008971D01*
X006214Y008962D02*
X006489Y008962D01*
X006503Y008954D02*
X006220Y008954D01*
X006226Y008945D02*
X006517Y008945D01*
X006531Y008937D02*
X006231Y008937D01*
X006237Y008928D02*
X006544Y008928D01*
X006558Y008920D02*
X006242Y008920D01*
X006248Y008911D02*
X006572Y008911D01*
X006586Y008903D02*
X006253Y008903D01*
X006259Y008894D02*
X006600Y008894D01*
X006614Y008886D02*
X006265Y008886D01*
X006270Y008877D02*
X006628Y008877D01*
X006641Y008869D02*
X006276Y008869D01*
X006210Y008733D02*
X006280Y008633D01*
X006210Y008533D01*
X005770Y008633D01*
X006210Y008733D01*
X006211Y008733D02*
X006207Y008733D01*
X006216Y008724D02*
X006169Y008724D01*
X006132Y008716D02*
X006222Y008716D01*
X006228Y008707D02*
X006094Y008707D01*
X006057Y008699D02*
X006234Y008699D01*
X006240Y008690D02*
X006020Y008690D01*
X005982Y008682D02*
X006246Y008682D01*
X006252Y008673D02*
X005945Y008673D01*
X005907Y008665D02*
X006258Y008665D01*
X006264Y008656D02*
X005870Y008656D01*
X005833Y008648D02*
X006270Y008648D01*
X006276Y008639D02*
X005795Y008639D01*
X005782Y008631D02*
X006278Y008631D01*
X006272Y008622D02*
X005820Y008622D01*
X005857Y008614D02*
X006266Y008614D01*
X006260Y008605D02*
X005894Y008605D01*
X005932Y008597D02*
X006254Y008597D01*
X006248Y008588D02*
X005969Y008588D01*
X006007Y008580D02*
X006242Y008580D01*
X006236Y008571D02*
X006044Y008571D01*
X006081Y008563D02*
X006230Y008563D01*
X006224Y008554D02*
X006119Y008554D01*
X006156Y008546D02*
X006219Y008546D01*
X006213Y008537D02*
X006194Y008537D01*
X006316Y008461D02*
X006982Y008461D01*
X006977Y008469D02*
X006321Y008469D01*
X006310Y008452D02*
X006988Y008452D01*
X006993Y008444D02*
X006304Y008444D01*
X006299Y008435D02*
X006999Y008435D01*
X007004Y008427D02*
X006293Y008427D01*
X006288Y008418D02*
X007010Y008418D01*
X007015Y008410D02*
X006656Y008410D01*
X006644Y008410D02*
X006282Y008410D01*
X006276Y008401D02*
X006631Y008401D01*
X006617Y008393D02*
X006271Y008393D01*
X006265Y008384D02*
X006604Y008384D01*
X006590Y008376D02*
X006260Y008376D01*
X006254Y008367D02*
X006577Y008367D01*
X006564Y008359D02*
X006248Y008359D01*
X006243Y008350D02*
X006550Y008350D01*
X006537Y008342D02*
X006237Y008342D01*
X006231Y008333D02*
X006524Y008333D01*
X006510Y008325D02*
X006226Y008325D01*
X006220Y008316D02*
X006497Y008316D01*
X006483Y008308D02*
X006215Y008308D01*
X006209Y008299D02*
X006470Y008299D01*
X006457Y008291D02*
X006203Y008291D01*
X006198Y008282D02*
X006443Y008282D01*
X006430Y008274D02*
X006192Y008274D01*
X006186Y008265D02*
X006416Y008265D01*
X006403Y008257D02*
X006181Y008257D01*
X006175Y008248D02*
X006390Y008248D01*
X006376Y008240D02*
X006170Y008240D01*
X006164Y008231D02*
X006363Y008231D01*
X006349Y008223D02*
X006158Y008223D01*
X006153Y008214D02*
X006336Y008214D01*
X006323Y008206D02*
X006147Y008206D01*
X006141Y008197D02*
X006309Y008197D01*
X006296Y008189D02*
X006136Y008189D01*
X006130Y008180D02*
X006283Y008180D01*
X006269Y008172D02*
X006125Y008172D01*
X006119Y008163D02*
X006256Y008163D01*
X006242Y008155D02*
X006113Y008155D01*
X006108Y008146D02*
X006229Y008146D01*
X006216Y008138D02*
X006102Y008138D01*
X006097Y008129D02*
X006202Y008129D01*
X006189Y008121D02*
X006091Y008121D01*
X006085Y008112D02*
X006175Y008112D01*
X006162Y008104D02*
X006080Y008104D01*
X006074Y008095D02*
X006149Y008095D01*
X006135Y008087D02*
X006068Y008087D01*
X006063Y008078D02*
X006122Y008078D01*
X006109Y008070D02*
X006057Y008070D01*
X006052Y008061D02*
X006095Y008061D01*
X006082Y008053D02*
X006046Y008053D01*
X006040Y008044D02*
X006068Y008044D01*
X006055Y008036D02*
X006035Y008036D01*
X006029Y008027D02*
X006042Y008027D01*
X006028Y008019D02*
X006023Y008019D01*
X006577Y008129D02*
X006723Y008129D01*
X006724Y008138D02*
X006576Y008138D01*
X006574Y008146D02*
X006726Y008146D01*
X006728Y008155D02*
X006572Y008155D01*
X006570Y008163D02*
X006730Y008163D01*
X006731Y008172D02*
X006569Y008172D01*
X006567Y008180D02*
X006733Y008180D01*
X006735Y008189D02*
X006565Y008189D01*
X006563Y008197D02*
X006737Y008197D01*
X006738Y008206D02*
X006562Y008206D01*
X006560Y008213D02*
X006650Y007773D01*
X006740Y008213D01*
X006650Y008273D01*
X006560Y008213D01*
X006561Y008214D02*
X006739Y008214D01*
X006726Y008223D02*
X006574Y008223D01*
X006587Y008231D02*
X006713Y008231D01*
X006701Y008240D02*
X006599Y008240D01*
X006612Y008248D02*
X006688Y008248D01*
X006675Y008257D02*
X006625Y008257D01*
X006638Y008265D02*
X006662Y008265D01*
X006724Y008367D02*
X007043Y008367D01*
X007038Y008376D02*
X006711Y008376D01*
X006697Y008384D02*
X007032Y008384D01*
X007027Y008393D02*
X006683Y008393D01*
X006670Y008401D02*
X007021Y008401D01*
X007049Y008359D02*
X006738Y008359D01*
X006752Y008350D02*
X007054Y008350D01*
X007060Y008342D02*
X006765Y008342D01*
X006779Y008333D02*
X007065Y008333D01*
X007071Y008325D02*
X006793Y008325D01*
X006806Y008316D02*
X007076Y008316D01*
X007082Y008308D02*
X006820Y008308D01*
X006833Y008299D02*
X007087Y008299D01*
X007093Y008291D02*
X006847Y008291D01*
X006861Y008282D02*
X007098Y008282D01*
X007104Y008274D02*
X006874Y008274D01*
X006888Y008265D02*
X007109Y008265D01*
X007115Y008257D02*
X006902Y008257D01*
X006915Y008248D02*
X007120Y008248D01*
X007126Y008240D02*
X006929Y008240D01*
X006943Y008231D02*
X007131Y008231D01*
X007137Y008223D02*
X006956Y008223D01*
X006970Y008214D02*
X007143Y008214D01*
X007148Y008206D02*
X006984Y008206D01*
X006997Y008197D02*
X007154Y008197D01*
X007159Y008189D02*
X007011Y008189D01*
X007025Y008180D02*
X007165Y008180D01*
X007170Y008172D02*
X007038Y008172D01*
X007052Y008163D02*
X007176Y008163D01*
X007181Y008155D02*
X007065Y008155D01*
X007079Y008146D02*
X007187Y008146D01*
X007192Y008138D02*
X007093Y008138D01*
X007106Y008129D02*
X007198Y008129D01*
X007203Y008121D02*
X007120Y008121D01*
X007134Y008112D02*
X007209Y008112D01*
X007214Y008104D02*
X007147Y008104D01*
X007161Y008095D02*
X007220Y008095D01*
X007225Y008087D02*
X007175Y008087D01*
X007188Y008078D02*
X007231Y008078D01*
X007236Y008070D02*
X007202Y008070D01*
X007216Y008061D02*
X007242Y008061D01*
X007248Y008053D02*
X007229Y008053D01*
X007243Y008044D02*
X007253Y008044D01*
X007256Y008036D02*
X007259Y008036D01*
X006721Y008121D02*
X006579Y008121D01*
X006581Y008112D02*
X006719Y008112D01*
X006718Y008104D02*
X006582Y008104D01*
X006584Y008095D02*
X006716Y008095D01*
X006714Y008087D02*
X006586Y008087D01*
X006588Y008078D02*
X006712Y008078D01*
X006711Y008070D02*
X006589Y008070D01*
X006591Y008061D02*
X006709Y008061D01*
X006707Y008053D02*
X006593Y008053D01*
X006595Y008044D02*
X006705Y008044D01*
X006704Y008036D02*
X006596Y008036D01*
X006598Y008027D02*
X006702Y008027D01*
X006700Y008019D02*
X006600Y008019D01*
X006602Y008010D02*
X006698Y008010D01*
X006697Y008002D02*
X006603Y008002D01*
X006605Y007993D02*
X006695Y007993D01*
X006693Y007985D02*
X006607Y007985D01*
X006609Y007976D02*
X006691Y007976D01*
X006690Y007968D02*
X006610Y007968D01*
X006612Y007959D02*
X006688Y007959D01*
X006686Y007951D02*
X006614Y007951D01*
X006615Y007942D02*
X006685Y007942D01*
X006683Y007934D02*
X006617Y007934D01*
X006619Y007925D02*
X006681Y007925D01*
X006679Y007917D02*
X006621Y007917D01*
X006622Y007908D02*
X006678Y007908D01*
X006676Y007900D02*
X006624Y007900D01*
X006626Y007891D02*
X006674Y007891D01*
X006672Y007883D02*
X006628Y007883D01*
X006629Y007874D02*
X006671Y007874D01*
X006669Y007866D02*
X006631Y007866D01*
X006633Y007857D02*
X006667Y007857D01*
X006665Y007849D02*
X006635Y007849D01*
X006636Y007840D02*
X006664Y007840D01*
X006662Y007832D02*
X006638Y007832D01*
X006640Y007823D02*
X006660Y007823D01*
X006658Y007815D02*
X006642Y007815D01*
X006643Y007806D02*
X006657Y007806D01*
X006655Y007798D02*
X006645Y007798D01*
X006647Y007789D02*
X006653Y007789D01*
X006649Y007781D02*
X006651Y007781D01*
X007019Y008648D02*
X007465Y008648D01*
X007425Y008656D02*
X007024Y008656D01*
X007029Y008665D02*
X007386Y008665D01*
X007347Y008673D02*
X007034Y008673D01*
X007039Y008682D02*
X007308Y008682D01*
X007269Y008690D02*
X007044Y008690D01*
X007049Y008699D02*
X007230Y008699D01*
X007191Y008707D02*
X007054Y008707D01*
X007059Y008716D02*
X007152Y008716D01*
X007113Y008724D02*
X007064Y008724D01*
X007070Y008733D02*
X007074Y008733D01*
X006740Y009056D02*
X006560Y009056D01*
X006562Y009064D02*
X006738Y009064D01*
X006736Y009073D02*
X006564Y009073D01*
X006565Y009081D02*
X006735Y009081D01*
X006733Y009090D02*
X006567Y009090D01*
X006569Y009098D02*
X006731Y009098D01*
X006730Y009107D02*
X006570Y009107D01*
X006572Y009115D02*
X006728Y009115D01*
X006726Y009124D02*
X006574Y009124D01*
X006575Y009132D02*
X006725Y009132D01*
X006731Y009047D02*
X006569Y009047D01*
X006582Y009039D02*
X006718Y009039D01*
X006705Y009030D02*
X006595Y009030D01*
X006608Y009022D02*
X006692Y009022D01*
X006680Y009013D02*
X006620Y009013D01*
X006633Y009005D02*
X006667Y009005D01*
X006654Y008996D02*
X006646Y008996D01*
X001360Y006243D02*
X001050Y006053D01*
X000750Y006243D01*
X000940Y005943D01*
X000740Y005623D01*
X001050Y005823D01*
X001360Y005633D01*
X001160Y005943D01*
X001360Y006243D01*
X001359Y006242D02*
X001358Y006242D01*
X001353Y006233D02*
X001344Y006233D01*
X001348Y006225D02*
X001330Y006225D01*
X001342Y006216D02*
X001316Y006216D01*
X001302Y006208D02*
X001336Y006208D01*
X001331Y006199D02*
X001288Y006199D01*
X001275Y006191D02*
X001325Y006191D01*
X001319Y006182D02*
X001261Y006182D01*
X001247Y006174D02*
X001314Y006174D01*
X001308Y006165D02*
X001233Y006165D01*
X001219Y006157D02*
X001302Y006157D01*
X001297Y006148D02*
X001205Y006148D01*
X001191Y006140D02*
X001291Y006140D01*
X001285Y006131D02*
X001178Y006131D01*
X001164Y006123D02*
X001280Y006123D01*
X001274Y006114D02*
X001150Y006114D01*
X001136Y006106D02*
X001268Y006106D01*
X001263Y006097D02*
X001122Y006097D01*
X001108Y006089D02*
X001257Y006089D01*
X001251Y006080D02*
X001094Y006080D01*
X001080Y006072D02*
X001246Y006072D01*
X001240Y006063D02*
X001067Y006063D01*
X001053Y006055D02*
X001234Y006055D01*
X001229Y006046D02*
X000875Y006046D01*
X000880Y006038D02*
X001223Y006038D01*
X001217Y006029D02*
X000885Y006029D01*
X000891Y006021D02*
X001212Y006021D01*
X001206Y006012D02*
X000896Y006012D01*
X000902Y006004D02*
X001200Y006004D01*
X001195Y005995D02*
X000907Y005995D01*
X000912Y005987D02*
X001189Y005987D01*
X001183Y005978D02*
X000918Y005978D01*
X000923Y005970D02*
X001178Y005970D01*
X001172Y005961D02*
X000929Y005961D01*
X000934Y005953D02*
X001166Y005953D01*
X001161Y005944D02*
X000939Y005944D01*
X000935Y005936D02*
X001165Y005936D01*
X001170Y005927D02*
X000930Y005927D01*
X000925Y005919D02*
X001176Y005919D01*
X001181Y005910D02*
X000919Y005910D01*
X000914Y005902D02*
X001187Y005902D01*
X001192Y005893D02*
X000909Y005893D01*
X000904Y005885D02*
X001198Y005885D01*
X001203Y005876D02*
X000898Y005876D01*
X000893Y005868D02*
X001209Y005868D01*
X001214Y005859D02*
X000888Y005859D01*
X000882Y005851D02*
X001220Y005851D01*
X001225Y005842D02*
X000877Y005842D01*
X000872Y005834D02*
X001231Y005834D01*
X001236Y005825D02*
X000866Y005825D01*
X000861Y005817D02*
X001040Y005817D01*
X001027Y005808D02*
X000856Y005808D01*
X000850Y005800D02*
X001014Y005800D01*
X001001Y005791D02*
X000845Y005791D01*
X000840Y005783D02*
X000987Y005783D01*
X000974Y005774D02*
X000834Y005774D01*
X000829Y005766D02*
X000961Y005766D01*
X000948Y005757D02*
X000824Y005757D01*
X000819Y005749D02*
X000935Y005749D01*
X000922Y005740D02*
X000813Y005740D01*
X000808Y005732D02*
X000908Y005732D01*
X000895Y005723D02*
X000803Y005723D01*
X000797Y005715D02*
X000882Y005715D01*
X000869Y005706D02*
X000792Y005706D01*
X000787Y005698D02*
X000856Y005698D01*
X000843Y005689D02*
X000781Y005689D01*
X000776Y005681D02*
X000829Y005681D01*
X000816Y005672D02*
X000771Y005672D01*
X000765Y005664D02*
X000803Y005664D01*
X000790Y005655D02*
X000760Y005655D01*
X000755Y005647D02*
X000777Y005647D01*
X000763Y005638D02*
X000749Y005638D01*
X000750Y005630D02*
X000744Y005630D01*
X001009Y005689D02*
X001091Y005689D01*
X001089Y005681D02*
X001011Y005681D01*
X001013Y005672D02*
X001087Y005672D01*
X001086Y005664D02*
X001014Y005664D01*
X001016Y005655D02*
X001084Y005655D01*
X001082Y005647D02*
X001018Y005647D01*
X001020Y005638D02*
X001080Y005638D01*
X001078Y005630D02*
X001022Y005630D01*
X001023Y005621D02*
X001077Y005621D01*
X001075Y005613D02*
X001025Y005613D01*
X001027Y005604D02*
X001073Y005604D01*
X001071Y005596D02*
X001029Y005596D01*
X001030Y005587D02*
X001070Y005587D01*
X001068Y005579D02*
X001032Y005579D01*
X001034Y005570D02*
X001066Y005570D01*
X001064Y005562D02*
X001036Y005562D01*
X001037Y005553D02*
X001063Y005553D01*
X001061Y005545D02*
X001039Y005545D01*
X001041Y005536D02*
X001059Y005536D01*
X001057Y005528D02*
X001043Y005528D01*
X001045Y005519D02*
X001055Y005519D01*
X001054Y005511D02*
X001046Y005511D01*
X001048Y005502D02*
X001052Y005502D01*
X001050Y005494D02*
X001050Y005494D01*
X001050Y005493D02*
X001100Y005733D01*
X001050Y005763D01*
X001000Y005733D01*
X001050Y005493D01*
X001007Y005698D02*
X001093Y005698D01*
X001094Y005706D02*
X001006Y005706D01*
X001004Y005715D02*
X001096Y005715D01*
X001098Y005723D02*
X001002Y005723D01*
X001000Y005732D02*
X001100Y005732D01*
X001088Y005740D02*
X001012Y005740D01*
X001026Y005749D02*
X001074Y005749D01*
X001060Y005757D02*
X001040Y005757D01*
X001074Y005808D02*
X001247Y005808D01*
X001252Y005800D02*
X001088Y005800D01*
X001102Y005791D02*
X001258Y005791D01*
X001263Y005783D02*
X001116Y005783D01*
X001130Y005774D02*
X001269Y005774D01*
X001274Y005766D02*
X001144Y005766D01*
X001157Y005757D02*
X001280Y005757D01*
X001285Y005749D02*
X001171Y005749D01*
X001185Y005740D02*
X001291Y005740D01*
X001296Y005732D02*
X001199Y005732D01*
X001213Y005723D02*
X001302Y005723D01*
X001307Y005715D02*
X001227Y005715D01*
X001241Y005706D02*
X001313Y005706D01*
X001318Y005698D02*
X001255Y005698D01*
X001268Y005689D02*
X001324Y005689D01*
X001329Y005681D02*
X001282Y005681D01*
X001296Y005672D02*
X001335Y005672D01*
X001340Y005664D02*
X001310Y005664D01*
X001324Y005655D02*
X001346Y005655D01*
X001351Y005647D02*
X001338Y005647D01*
X001352Y005638D02*
X001357Y005638D01*
X001242Y005817D02*
X001060Y005817D01*
X001240Y005927D02*
X001417Y005927D01*
X001407Y005961D02*
X001241Y005961D01*
X001236Y005953D02*
X001446Y005953D01*
X001456Y005936D02*
X001234Y005936D01*
X001230Y005943D02*
X001260Y005893D01*
X001490Y005943D01*
X001260Y005993D01*
X001230Y005943D01*
X001231Y005944D02*
X001485Y005944D01*
X001378Y005919D02*
X001245Y005919D01*
X001250Y005910D02*
X001339Y005910D01*
X001300Y005902D02*
X001255Y005902D01*
X001260Y005893D02*
X001261Y005893D01*
X001246Y005970D02*
X001367Y005970D01*
X001328Y005978D02*
X001251Y005978D01*
X001256Y005987D02*
X001289Y005987D01*
X001100Y006143D02*
X001050Y006383D01*
X001000Y006143D01*
X001050Y006113D01*
X001100Y006143D01*
X001099Y006148D02*
X001001Y006148D01*
X001003Y006157D02*
X001097Y006157D01*
X001095Y006165D02*
X001005Y006165D01*
X001006Y006174D02*
X001094Y006174D01*
X001092Y006182D02*
X001008Y006182D01*
X001010Y006191D02*
X001090Y006191D01*
X001088Y006199D02*
X001012Y006199D01*
X001013Y006208D02*
X001087Y006208D01*
X001085Y006216D02*
X001015Y006216D01*
X001017Y006225D02*
X001083Y006225D01*
X001081Y006233D02*
X001019Y006233D01*
X001021Y006242D02*
X001079Y006242D01*
X001078Y006250D02*
X001022Y006250D01*
X001024Y006259D02*
X001076Y006259D01*
X001074Y006267D02*
X001026Y006267D01*
X001028Y006276D02*
X001072Y006276D01*
X001071Y006284D02*
X001029Y006284D01*
X001031Y006293D02*
X001069Y006293D01*
X001067Y006301D02*
X001033Y006301D01*
X001035Y006310D02*
X001065Y006310D01*
X001064Y006318D02*
X001036Y006318D01*
X001038Y006327D02*
X001062Y006327D01*
X001060Y006335D02*
X001040Y006335D01*
X001042Y006344D02*
X001058Y006344D01*
X001056Y006352D02*
X001044Y006352D01*
X001045Y006361D02*
X001055Y006361D01*
X001053Y006369D02*
X001047Y006369D01*
X001049Y006378D02*
X001051Y006378D01*
X001094Y006140D02*
X001006Y006140D01*
X001020Y006131D02*
X001080Y006131D01*
X001066Y006123D02*
X001034Y006123D01*
X001048Y006114D02*
X001052Y006114D01*
X001021Y006072D02*
X000859Y006072D01*
X000864Y006063D02*
X001034Y006063D01*
X001047Y006055D02*
X000869Y006055D01*
X000853Y006080D02*
X001007Y006080D01*
X000994Y006089D02*
X000848Y006089D01*
X000842Y006097D02*
X000980Y006097D01*
X000967Y006106D02*
X000837Y006106D01*
X000832Y006114D02*
X000953Y006114D01*
X000940Y006123D02*
X000826Y006123D01*
X000821Y006131D02*
X000927Y006131D01*
X000913Y006140D02*
X000815Y006140D01*
X000810Y006148D02*
X000900Y006148D01*
X000886Y006157D02*
X000805Y006157D01*
X000799Y006165D02*
X000873Y006165D01*
X000860Y006174D02*
X000794Y006174D01*
X000789Y006182D02*
X000846Y006182D01*
X000833Y006191D02*
X000783Y006191D01*
X000778Y006199D02*
X000819Y006199D01*
X000806Y006208D02*
X000772Y006208D01*
X000767Y006216D02*
X000792Y006216D01*
X000779Y006225D02*
X000762Y006225D01*
X000766Y006233D02*
X000756Y006233D01*
X000752Y006242D02*
X000751Y006242D01*
X000811Y005987D02*
X000845Y005987D01*
X000840Y005993D02*
X000880Y005943D01*
X000840Y005893D01*
X000610Y005943D01*
X000840Y005993D01*
X000852Y005978D02*
X000772Y005978D01*
X000733Y005970D02*
X000859Y005970D01*
X000865Y005961D02*
X000693Y005961D01*
X000683Y005927D02*
X000867Y005927D01*
X000861Y005919D02*
X000722Y005919D01*
X000761Y005910D02*
X000854Y005910D01*
X000847Y005902D02*
X000800Y005902D01*
X000839Y005893D02*
X000840Y005893D01*
X000874Y005936D02*
X000644Y005936D01*
X000654Y005953D02*
X000872Y005953D01*
X000879Y005944D02*
X000615Y005944D01*
D425*
X030150Y006133D03*
X031150Y006133D03*
X031150Y007133D03*
X030150Y007133D03*
X030150Y008133D03*
X031150Y008133D03*
X031150Y009133D03*
X030150Y009133D03*
X030150Y010133D03*
X031150Y010133D03*
X031150Y011133D03*
X030150Y011133D03*
X030150Y012133D03*
X031150Y012133D03*
X031150Y013133D03*
X030150Y013133D03*
X030150Y014133D03*
X031150Y014133D03*
X031150Y005133D03*
X030150Y005133D03*
X030150Y004133D03*
X031150Y004133D03*
X031150Y003133D03*
X030150Y003133D03*
D426*
X005350Y011133D03*
X004950Y011133D03*
X004950Y012133D03*
X005350Y012133D03*
D427*
X017350Y007633D03*
X024150Y010933D03*
X024750Y010933D03*
X025350Y010933D03*
X025950Y010933D03*
D428*
X027100Y003133D03*
D429*
X027100Y004058D03*
D430*
X016788Y006628D03*
X016788Y007238D03*
X015312Y007238D03*
X015312Y006628D03*
D431*
X001150Y002133D03*
X001150Y015633D03*
X032150Y015633D03*
X032150Y002133D03*
M02*
