G75*
%MOIN*%
%OFA0B0*%
%FSLAX25Y25*%
%IPPOS*%
%LPD*%
%AMOC8*
5,1,8,0,0,1.08239X$1,22.5*
%
%ADD10R,0.02769X0.01784*%
%ADD11R,0.01784X0.02769*%
%ADD12R,0.02769X0.02769*%
%ADD13R,0.04300X0.03900*%
%ADD14C,0.09400*%
%ADD15R,0.10800X0.10800*%
%ADD16C,0.07700*%
%ADD17R,0.06800X0.12800*%
%ADD18C,0.05524*%
%ADD19C,0.01421*%
%ADD20R,0.03556X0.04343*%
%ADD21R,0.04343X0.03556*%
%ADD22R,0.07887X0.03556*%
%ADD23R,0.07887X0.03950*%
%ADD24R,0.04737X0.04934*%
%ADD25R,0.04934X0.09461*%
%ADD26R,0.03950X0.03162*%
%ADD27R,0.05524X0.09855*%
%ADD28R,0.20485X0.26391*%
%ADD29C,0.07099*%
%ADD30R,0.04737X0.08674*%
%ADD31R,0.05131X0.12611*%
%ADD32R,0.04343X0.03950*%
%ADD33R,0.03543X0.01772*%
%ADD34R,0.02178X0.02473*%
%ADD35R,0.02126X0.01339*%
%ADD36R,0.01784X0.02178*%
%ADD37R,0.02178X0.01784*%
%ADD38C,0.00100*%
%ADD39C,0.17398*%
D10*
X0135595Y0125191D03*
X0135595Y0127159D03*
X0135595Y0129128D03*
X0135595Y0131096D03*
X0135595Y0133065D03*
X0146225Y0133065D03*
X0146225Y0131096D03*
X0146225Y0129128D03*
X0146225Y0127159D03*
X0146225Y0125191D03*
D11*
X0142879Y0123813D03*
X0140910Y0123813D03*
X0138942Y0123813D03*
X0138942Y0134443D03*
X0140910Y0134443D03*
X0142879Y0134443D03*
D12*
X0135253Y0137990D03*
X0131253Y0137990D03*
X0153430Y0121962D03*
X0157430Y0121962D03*
X0245245Y0156592D03*
X0249245Y0156592D03*
X0304122Y0110093D03*
X0304122Y0106093D03*
X0304322Y0102993D03*
X0308322Y0102993D03*
D13*
X0226422Y0122389D03*
X0218422Y0118589D03*
X0218422Y0126189D03*
D14*
X0270863Y0185293D03*
X0284642Y0185293D03*
D15*
X0254839Y0184673D03*
X0254839Y0166173D03*
D16*
X0238934Y0149128D03*
X0228934Y0149128D03*
X0218934Y0149128D03*
X0208934Y0149128D03*
X0198934Y0149128D03*
X0188934Y0149128D03*
X0178934Y0149128D03*
X0168934Y0149128D03*
X0158934Y0149128D03*
X0148934Y0149128D03*
X0138934Y0149128D03*
X0128934Y0149128D03*
X0118934Y0149128D03*
X0108934Y0149128D03*
X0098934Y0149128D03*
X0088934Y0149128D03*
X0078934Y0149128D03*
X0068934Y0149128D03*
X0068934Y0109128D03*
X0078934Y0109128D03*
X0088934Y0109128D03*
X0098934Y0109128D03*
X0108934Y0109128D03*
X0118934Y0109128D03*
X0128934Y0109128D03*
X0138934Y0109128D03*
X0148934Y0109128D03*
X0158934Y0109128D03*
X0168934Y0109128D03*
X0178934Y0109128D03*
X0188934Y0109128D03*
X0198934Y0109128D03*
X0208934Y0109128D03*
X0218934Y0109128D03*
X0228934Y0109128D03*
X0238934Y0109128D03*
D17*
X0238934Y0097628D03*
X0228934Y0097628D03*
X0218934Y0097628D03*
X0208934Y0097628D03*
X0198934Y0097628D03*
X0188934Y0097628D03*
X0178934Y0097628D03*
X0168934Y0097628D03*
X0158934Y0097628D03*
X0148934Y0097628D03*
X0138934Y0097628D03*
X0128934Y0097628D03*
X0118934Y0097628D03*
X0108934Y0097628D03*
X0098934Y0097628D03*
X0088934Y0097628D03*
X0078934Y0097628D03*
X0068934Y0097628D03*
X0068934Y0080628D03*
X0078934Y0080628D03*
X0088934Y0080628D03*
X0098934Y0080628D03*
X0108934Y0080628D03*
X0118934Y0080628D03*
X0128934Y0080628D03*
X0138934Y0080628D03*
X0148934Y0080628D03*
X0158934Y0080628D03*
X0168934Y0080628D03*
X0178934Y0080628D03*
X0188934Y0080628D03*
X0198934Y0080628D03*
X0208934Y0080628D03*
X0218934Y0080628D03*
X0228934Y0080628D03*
X0238934Y0080628D03*
X0238934Y0160628D03*
X0228934Y0160628D03*
X0218934Y0160628D03*
X0208934Y0160628D03*
X0198934Y0160628D03*
X0188934Y0160628D03*
X0178934Y0160628D03*
X0168934Y0160628D03*
X0158934Y0160628D03*
X0148934Y0160628D03*
X0138934Y0160628D03*
X0128934Y0160628D03*
X0118934Y0160628D03*
X0108934Y0160628D03*
X0098934Y0160628D03*
X0088934Y0160628D03*
X0078934Y0160628D03*
X0068934Y0160628D03*
X0068934Y0177628D03*
X0078934Y0177628D03*
X0088934Y0177628D03*
X0098934Y0177628D03*
X0108934Y0177628D03*
X0118934Y0177628D03*
X0128934Y0177628D03*
X0138934Y0177628D03*
X0148934Y0177628D03*
X0158934Y0177628D03*
X0168934Y0177628D03*
X0178934Y0177628D03*
X0188934Y0177628D03*
X0198934Y0177628D03*
X0208934Y0177628D03*
X0218934Y0177628D03*
X0228934Y0177628D03*
X0238934Y0177628D03*
D18*
X0233934Y0169128D03*
X0233934Y0089128D03*
X0073934Y0089128D03*
X0073934Y0169128D03*
D19*
X0268631Y0089451D02*
X0268631Y0086135D01*
X0265315Y0086135D01*
X0265315Y0089451D01*
X0268631Y0089451D01*
X0268631Y0087555D02*
X0265315Y0087555D01*
X0265315Y0088975D02*
X0268631Y0088975D01*
X0275537Y0089451D02*
X0275537Y0086135D01*
X0272221Y0086135D01*
X0272221Y0089451D01*
X0275537Y0089451D01*
X0275537Y0087555D02*
X0272221Y0087555D01*
X0272221Y0088975D02*
X0275537Y0088975D01*
D20*
X0272977Y0094293D03*
X0267859Y0094293D03*
X0295363Y0109293D03*
X0300481Y0109293D03*
X0300363Y0123793D03*
X0305481Y0123793D03*
X0323363Y0129293D03*
X0328481Y0129293D03*
X0239981Y0131289D03*
X0234863Y0131289D03*
X0234863Y0136297D03*
X0239981Y0136297D03*
X0239981Y0141297D03*
X0234863Y0141297D03*
D21*
X0212422Y0126348D03*
X0212422Y0121230D03*
X0200087Y0129210D03*
X0200087Y0134328D03*
X0232926Y0122352D03*
X0237922Y0122352D03*
X0242926Y0122352D03*
X0242926Y0117234D03*
X0237922Y0117234D03*
X0232926Y0117234D03*
X0311922Y0131234D03*
X0311922Y0136352D03*
D22*
X0289040Y0146557D03*
X0251638Y0146557D03*
X0251638Y0111911D03*
X0289040Y0111911D03*
D23*
X0289040Y0116242D03*
X0289040Y0120573D03*
X0289040Y0124903D03*
X0289040Y0129234D03*
X0289040Y0133565D03*
X0289040Y0137895D03*
X0289040Y0142226D03*
X0251638Y0142226D03*
X0251638Y0137895D03*
X0251638Y0133565D03*
X0251638Y0129234D03*
X0251638Y0124903D03*
X0251638Y0120573D03*
X0251638Y0116242D03*
D24*
X0308572Y0098311D03*
D25*
X0314379Y0092297D03*
X0302764Y0092297D03*
D26*
X0205757Y0128120D03*
X0205757Y0134419D03*
D27*
X0333808Y0129403D03*
D28*
X0341288Y0152041D03*
X0392863Y0152041D03*
X0392863Y0106765D03*
X0341288Y0106765D03*
D29*
X0041926Y0104655D03*
X0041926Y0096781D03*
X0041926Y0112529D03*
X0041926Y0120403D03*
X0041926Y0137600D03*
X0041926Y0145474D03*
X0041926Y0153348D03*
X0041926Y0161222D03*
D30*
X0193420Y0129128D03*
D31*
X0167042Y0129128D03*
D32*
X0249481Y0101533D03*
X0257749Y0097793D03*
X0249481Y0094053D03*
D33*
X0300682Y0113734D03*
X0300682Y0116293D03*
X0300682Y0118852D03*
X0308162Y0118852D03*
X0308162Y0116293D03*
X0308162Y0113734D03*
D34*
X0313453Y0122661D03*
X0315422Y0122661D03*
X0315422Y0124925D03*
X0313453Y0124925D03*
X0317390Y0123793D03*
D35*
X0317241Y0127718D03*
X0317241Y0129293D03*
X0317241Y0130868D03*
X0319603Y0130868D03*
X0319603Y0129293D03*
X0319603Y0127718D03*
D36*
X0313406Y0118843D03*
X0311438Y0118843D03*
X0296906Y0116293D03*
X0294938Y0116293D03*
D37*
X0308322Y0108177D03*
X0308322Y0106209D03*
D38*
X0405622Y0129293D02*
X0410222Y0130193D01*
X0410822Y0129293D01*
X0410222Y0128393D01*
X0405622Y0129293D01*
X0405758Y0129320D02*
X0410804Y0129320D01*
X0410774Y0129221D02*
X0405989Y0129221D01*
X0406262Y0129418D02*
X0410738Y0129418D01*
X0410673Y0129517D02*
X0406765Y0129517D01*
X0406493Y0129123D02*
X0410708Y0129123D01*
X0410643Y0129024D02*
X0406996Y0129024D01*
X0407500Y0128926D02*
X0410577Y0128926D01*
X0410511Y0128827D02*
X0408003Y0128827D01*
X0408507Y0128729D02*
X0410446Y0128729D01*
X0410380Y0128630D02*
X0409010Y0128630D01*
X0409514Y0128532D02*
X0410314Y0128532D01*
X0410249Y0128433D02*
X0410017Y0128433D01*
X0410607Y0129615D02*
X0407269Y0129615D01*
X0407772Y0129714D02*
X0410541Y0129714D01*
X0410476Y0129812D02*
X0408276Y0129812D01*
X0408779Y0129911D02*
X0410410Y0129911D01*
X0410344Y0130009D02*
X0409283Y0130009D01*
X0409786Y0130108D02*
X0410279Y0130108D01*
X0411232Y0130699D02*
X0417498Y0130699D01*
X0417559Y0130797D02*
X0411169Y0130797D01*
X0411107Y0130896D02*
X0417620Y0130896D01*
X0417682Y0130994D02*
X0411044Y0130994D01*
X0410982Y0131093D02*
X0417743Y0131093D01*
X0417805Y0131191D02*
X0410920Y0131191D01*
X0410857Y0131290D02*
X0417866Y0131290D01*
X0417927Y0131388D02*
X0410795Y0131388D01*
X0410732Y0131487D02*
X0417989Y0131487D01*
X0418050Y0131585D02*
X0414564Y0131585D01*
X0414422Y0131493D02*
X0408322Y0135293D01*
X0412122Y0129293D01*
X0408322Y0123093D01*
X0414422Y0127093D01*
X0420622Y0122993D01*
X0416622Y0129293D01*
X0420422Y0135393D01*
X0414422Y0131493D01*
X0414274Y0131585D02*
X0410670Y0131585D01*
X0410608Y0131684D02*
X0414115Y0131684D01*
X0413957Y0131782D02*
X0410545Y0131782D01*
X0410483Y0131881D02*
X0413799Y0131881D01*
X0413641Y0131979D02*
X0410420Y0131979D01*
X0410358Y0132078D02*
X0413483Y0132078D01*
X0413325Y0132176D02*
X0410296Y0132176D01*
X0410233Y0132275D02*
X0413167Y0132275D01*
X0413008Y0132373D02*
X0410171Y0132373D01*
X0410109Y0132472D02*
X0412850Y0132472D01*
X0412692Y0132571D02*
X0410046Y0132571D01*
X0409984Y0132669D02*
X0412534Y0132669D01*
X0412376Y0132768D02*
X0409921Y0132768D01*
X0409859Y0132866D02*
X0412218Y0132866D01*
X0412060Y0132965D02*
X0409797Y0132965D01*
X0409734Y0133063D02*
X0411902Y0133063D01*
X0411743Y0133162D02*
X0409672Y0133162D01*
X0409609Y0133260D02*
X0411585Y0133260D01*
X0411427Y0133359D02*
X0409547Y0133359D01*
X0409485Y0133457D02*
X0411269Y0133457D01*
X0411111Y0133556D02*
X0409422Y0133556D01*
X0409360Y0133654D02*
X0410953Y0133654D01*
X0410795Y0133753D02*
X0409297Y0133753D01*
X0409235Y0133851D02*
X0410636Y0133851D01*
X0410478Y0133950D02*
X0409173Y0133950D01*
X0409110Y0134048D02*
X0410320Y0134048D01*
X0410162Y0134147D02*
X0409048Y0134147D01*
X0408985Y0134245D02*
X0410004Y0134245D01*
X0409846Y0134344D02*
X0408923Y0134344D01*
X0408861Y0134442D02*
X0409688Y0134442D01*
X0409529Y0134541D02*
X0408798Y0134541D01*
X0408736Y0134639D02*
X0409371Y0134639D01*
X0409213Y0134738D02*
X0408674Y0134738D01*
X0408611Y0134836D02*
X0409055Y0134836D01*
X0408897Y0134935D02*
X0408549Y0134935D01*
X0408486Y0135033D02*
X0408739Y0135033D01*
X0408581Y0135132D02*
X0408424Y0135132D01*
X0408423Y0135230D02*
X0408362Y0135230D01*
X0413564Y0134147D02*
X0415280Y0134147D01*
X0415258Y0134245D02*
X0413585Y0134245D01*
X0413607Y0134344D02*
X0415237Y0134344D01*
X0415216Y0134442D02*
X0413628Y0134442D01*
X0413650Y0134541D02*
X0415194Y0134541D01*
X0415173Y0134639D02*
X0413671Y0134639D01*
X0413693Y0134738D02*
X0415151Y0134738D01*
X0415130Y0134836D02*
X0413714Y0134836D01*
X0413735Y0134935D02*
X0415108Y0134935D01*
X0415087Y0135033D02*
X0413757Y0135033D01*
X0413778Y0135132D02*
X0415066Y0135132D01*
X0415044Y0135230D02*
X0413800Y0135230D01*
X0413821Y0135329D02*
X0415023Y0135329D01*
X0415001Y0135427D02*
X0413842Y0135427D01*
X0413864Y0135526D02*
X0414980Y0135526D01*
X0414959Y0135624D02*
X0413885Y0135624D01*
X0413907Y0135723D02*
X0414937Y0135723D01*
X0414916Y0135821D02*
X0413928Y0135821D01*
X0413950Y0135920D02*
X0414894Y0135920D01*
X0414873Y0136018D02*
X0413971Y0136018D01*
X0413992Y0136117D02*
X0414852Y0136117D01*
X0414830Y0136215D02*
X0414014Y0136215D01*
X0414035Y0136314D02*
X0414809Y0136314D01*
X0414787Y0136412D02*
X0414057Y0136412D01*
X0414078Y0136511D02*
X0414766Y0136511D01*
X0414744Y0136609D02*
X0414099Y0136609D01*
X0414121Y0136708D02*
X0414723Y0136708D01*
X0414702Y0136807D02*
X0414142Y0136807D01*
X0414164Y0136905D02*
X0414680Y0136905D01*
X0414659Y0137004D02*
X0414185Y0137004D01*
X0414206Y0137102D02*
X0414637Y0137102D01*
X0414616Y0137201D02*
X0414228Y0137201D01*
X0414249Y0137299D02*
X0414595Y0137299D01*
X0414573Y0137398D02*
X0414271Y0137398D01*
X0414292Y0137496D02*
X0414552Y0137496D01*
X0414530Y0137595D02*
X0414314Y0137595D01*
X0414335Y0137693D02*
X0414509Y0137693D01*
X0414487Y0137792D02*
X0414356Y0137792D01*
X0414378Y0137890D02*
X0414466Y0137890D01*
X0414445Y0137989D02*
X0414399Y0137989D01*
X0414421Y0138087D02*
X0414423Y0138087D01*
X0414422Y0138093D02*
X0415422Y0133493D01*
X0414422Y0132893D01*
X0413422Y0133493D01*
X0414422Y0138093D01*
X0418656Y0134245D02*
X0419707Y0134245D01*
X0419646Y0134147D02*
X0418505Y0134147D01*
X0418353Y0134048D02*
X0419584Y0134048D01*
X0419523Y0133950D02*
X0418201Y0133950D01*
X0418050Y0133851D02*
X0419461Y0133851D01*
X0419400Y0133753D02*
X0417898Y0133753D01*
X0417747Y0133654D02*
X0419339Y0133654D01*
X0419277Y0133556D02*
X0417595Y0133556D01*
X0417444Y0133457D02*
X0419216Y0133457D01*
X0419155Y0133359D02*
X0417292Y0133359D01*
X0417141Y0133260D02*
X0419093Y0133260D01*
X0419032Y0133162D02*
X0416989Y0133162D01*
X0416837Y0133063D02*
X0418970Y0133063D01*
X0418909Y0132965D02*
X0416686Y0132965D01*
X0416534Y0132866D02*
X0418848Y0132866D01*
X0418786Y0132768D02*
X0416383Y0132768D01*
X0416231Y0132669D02*
X0418725Y0132669D01*
X0418664Y0132571D02*
X0416080Y0132571D01*
X0415928Y0132472D02*
X0418602Y0132472D01*
X0418541Y0132373D02*
X0415777Y0132373D01*
X0415625Y0132275D02*
X0418480Y0132275D01*
X0418418Y0132176D02*
X0415473Y0132176D01*
X0415322Y0132078D02*
X0418357Y0132078D01*
X0418295Y0131979D02*
X0415170Y0131979D01*
X0415019Y0131881D02*
X0418234Y0131881D01*
X0418173Y0131782D02*
X0414867Y0131782D01*
X0414716Y0131684D02*
X0418111Y0131684D01*
X0417436Y0130600D02*
X0411294Y0130600D01*
X0411356Y0130502D02*
X0417375Y0130502D01*
X0417314Y0130403D02*
X0411419Y0130403D01*
X0411481Y0130305D02*
X0417252Y0130305D01*
X0417191Y0130206D02*
X0411544Y0130206D01*
X0411606Y0130108D02*
X0417129Y0130108D01*
X0417068Y0130009D02*
X0411668Y0130009D01*
X0411731Y0129911D02*
X0417007Y0129911D01*
X0416945Y0129812D02*
X0411793Y0129812D01*
X0411855Y0129714D02*
X0416884Y0129714D01*
X0416823Y0129615D02*
X0411918Y0129615D01*
X0411980Y0129517D02*
X0416761Y0129517D01*
X0416700Y0129418D02*
X0412043Y0129418D01*
X0412105Y0129320D02*
X0416639Y0129320D01*
X0416668Y0129221D02*
X0412078Y0129221D01*
X0412018Y0129123D02*
X0416730Y0129123D01*
X0416793Y0129024D02*
X0411957Y0129024D01*
X0411897Y0128926D02*
X0416855Y0128926D01*
X0416918Y0128827D02*
X0411836Y0128827D01*
X0411776Y0128729D02*
X0416980Y0128729D01*
X0417043Y0128630D02*
X0411716Y0128630D01*
X0411655Y0128532D02*
X0417105Y0128532D01*
X0417168Y0128433D02*
X0411595Y0128433D01*
X0411534Y0128335D02*
X0417230Y0128335D01*
X0417293Y0128236D02*
X0411474Y0128236D01*
X0411414Y0128138D02*
X0417356Y0128138D01*
X0417418Y0128039D02*
X0411353Y0128039D01*
X0411293Y0127940D02*
X0417481Y0127940D01*
X0417543Y0127842D02*
X0411233Y0127842D01*
X0411172Y0127743D02*
X0417606Y0127743D01*
X0417668Y0127645D02*
X0411112Y0127645D01*
X0411051Y0127546D02*
X0417731Y0127546D01*
X0417793Y0127448D02*
X0410991Y0127448D01*
X0410931Y0127349D02*
X0417856Y0127349D01*
X0417918Y0127251D02*
X0410870Y0127251D01*
X0410810Y0127152D02*
X0417981Y0127152D01*
X0418044Y0127054D02*
X0414481Y0127054D01*
X0414362Y0127054D02*
X0410750Y0127054D01*
X0410689Y0126955D02*
X0414212Y0126955D01*
X0414062Y0126857D02*
X0410629Y0126857D01*
X0410568Y0126758D02*
X0413912Y0126758D01*
X0413761Y0126660D02*
X0410508Y0126660D01*
X0410448Y0126561D02*
X0413611Y0126561D01*
X0413461Y0126463D02*
X0410387Y0126463D01*
X0410327Y0126364D02*
X0413311Y0126364D01*
X0413160Y0126266D02*
X0410267Y0126266D01*
X0410206Y0126167D02*
X0413010Y0126167D01*
X0412860Y0126069D02*
X0410146Y0126069D01*
X0410085Y0125970D02*
X0412710Y0125970D01*
X0412560Y0125872D02*
X0410025Y0125872D01*
X0409965Y0125773D02*
X0412409Y0125773D01*
X0412259Y0125675D02*
X0409904Y0125675D01*
X0409844Y0125576D02*
X0412109Y0125576D01*
X0411959Y0125478D02*
X0409784Y0125478D01*
X0409723Y0125379D02*
X0411808Y0125379D01*
X0411658Y0125281D02*
X0409663Y0125281D01*
X0409602Y0125182D02*
X0411508Y0125182D01*
X0411358Y0125084D02*
X0409542Y0125084D01*
X0409482Y0124985D02*
X0411207Y0124985D01*
X0411057Y0124887D02*
X0409421Y0124887D01*
X0409361Y0124788D02*
X0410907Y0124788D01*
X0410757Y0124690D02*
X0409300Y0124690D01*
X0409240Y0124591D02*
X0410607Y0124591D01*
X0410456Y0124493D02*
X0409180Y0124493D01*
X0409119Y0124394D02*
X0410306Y0124394D01*
X0410156Y0124296D02*
X0409059Y0124296D01*
X0408999Y0124197D02*
X0410006Y0124197D01*
X0409855Y0124099D02*
X0408938Y0124099D01*
X0408878Y0124000D02*
X0409705Y0124000D01*
X0409555Y0123902D02*
X0408817Y0123902D01*
X0408757Y0123803D02*
X0409405Y0123803D01*
X0409254Y0123705D02*
X0408697Y0123705D01*
X0408636Y0123606D02*
X0409104Y0123606D01*
X0408954Y0123507D02*
X0408576Y0123507D01*
X0408516Y0123409D02*
X0408804Y0123409D01*
X0408654Y0123310D02*
X0408455Y0123310D01*
X0408503Y0123212D02*
X0408395Y0123212D01*
X0408353Y0123113D02*
X0408334Y0123113D01*
X0413558Y0124296D02*
X0415286Y0124296D01*
X0415309Y0124394D02*
X0413535Y0124394D01*
X0413513Y0124493D02*
X0415331Y0124493D01*
X0415353Y0124591D02*
X0413491Y0124591D01*
X0413468Y0124690D02*
X0415376Y0124690D01*
X0415398Y0124788D02*
X0413446Y0124788D01*
X0413423Y0124887D02*
X0415420Y0124887D01*
X0415422Y0124893D02*
X0414422Y0125593D01*
X0413422Y0124893D01*
X0414422Y0120493D01*
X0415422Y0124893D01*
X0415290Y0124985D02*
X0413554Y0124985D01*
X0413694Y0125084D02*
X0415150Y0125084D01*
X0415009Y0125182D02*
X0413835Y0125182D01*
X0413976Y0125281D02*
X0414868Y0125281D01*
X0414727Y0125379D02*
X0414116Y0125379D01*
X0414257Y0125478D02*
X0414587Y0125478D01*
X0414446Y0125576D02*
X0414398Y0125576D01*
X0415077Y0126660D02*
X0418294Y0126660D01*
X0418231Y0126758D02*
X0414928Y0126758D01*
X0414779Y0126857D02*
X0418169Y0126857D01*
X0418106Y0126955D02*
X0414630Y0126955D01*
X0415226Y0126561D02*
X0418356Y0126561D01*
X0418419Y0126463D02*
X0415375Y0126463D01*
X0415524Y0126364D02*
X0418481Y0126364D01*
X0418544Y0126266D02*
X0415673Y0126266D01*
X0415822Y0126167D02*
X0418606Y0126167D01*
X0418669Y0126069D02*
X0415971Y0126069D01*
X0416120Y0125970D02*
X0418732Y0125970D01*
X0418794Y0125872D02*
X0416269Y0125872D01*
X0416418Y0125773D02*
X0418857Y0125773D01*
X0418919Y0125675D02*
X0416567Y0125675D01*
X0416716Y0125576D02*
X0418982Y0125576D01*
X0419044Y0125478D02*
X0416865Y0125478D01*
X0417013Y0125379D02*
X0419107Y0125379D01*
X0419169Y0125281D02*
X0417162Y0125281D01*
X0417311Y0125182D02*
X0419232Y0125182D01*
X0419295Y0125084D02*
X0417460Y0125084D01*
X0417609Y0124985D02*
X0419357Y0124985D01*
X0419420Y0124887D02*
X0417758Y0124887D01*
X0417907Y0124788D02*
X0419482Y0124788D01*
X0419545Y0124690D02*
X0418056Y0124690D01*
X0418205Y0124591D02*
X0419607Y0124591D01*
X0419670Y0124493D02*
X0418354Y0124493D01*
X0418503Y0124394D02*
X0419732Y0124394D01*
X0419795Y0124296D02*
X0418652Y0124296D01*
X0418801Y0124197D02*
X0419857Y0124197D01*
X0419920Y0124099D02*
X0418950Y0124099D01*
X0419099Y0124000D02*
X0419983Y0124000D01*
X0420045Y0123902D02*
X0419248Y0123902D01*
X0419397Y0123803D02*
X0420108Y0123803D01*
X0420170Y0123705D02*
X0419546Y0123705D01*
X0419695Y0123606D02*
X0420233Y0123606D01*
X0420295Y0123507D02*
X0419844Y0123507D01*
X0419993Y0123409D02*
X0420358Y0123409D01*
X0420420Y0123310D02*
X0420142Y0123310D01*
X0420291Y0123212D02*
X0420483Y0123212D01*
X0420440Y0123113D02*
X0420545Y0123113D01*
X0420589Y0123015D02*
X0420608Y0123015D01*
X0415264Y0124197D02*
X0413580Y0124197D01*
X0413602Y0124099D02*
X0415241Y0124099D01*
X0415219Y0124000D02*
X0413625Y0124000D01*
X0413647Y0123902D02*
X0415197Y0123902D01*
X0415174Y0123803D02*
X0413670Y0123803D01*
X0413692Y0123705D02*
X0415152Y0123705D01*
X0415129Y0123606D02*
X0413714Y0123606D01*
X0413737Y0123507D02*
X0415107Y0123507D01*
X0415085Y0123409D02*
X0413759Y0123409D01*
X0413782Y0123310D02*
X0415062Y0123310D01*
X0415040Y0123212D02*
X0413804Y0123212D01*
X0413826Y0123113D02*
X0415017Y0123113D01*
X0414995Y0123015D02*
X0413849Y0123015D01*
X0413871Y0122916D02*
X0414973Y0122916D01*
X0414950Y0122818D02*
X0413894Y0122818D01*
X0413916Y0122719D02*
X0414928Y0122719D01*
X0414906Y0122621D02*
X0413938Y0122621D01*
X0413961Y0122522D02*
X0414883Y0122522D01*
X0414861Y0122424D02*
X0413983Y0122424D01*
X0414005Y0122325D02*
X0414838Y0122325D01*
X0414816Y0122227D02*
X0414028Y0122227D01*
X0414050Y0122128D02*
X0414794Y0122128D01*
X0414771Y0122030D02*
X0414073Y0122030D01*
X0414095Y0121931D02*
X0414749Y0121931D01*
X0414726Y0121833D02*
X0414117Y0121833D01*
X0414140Y0121734D02*
X0414704Y0121734D01*
X0414682Y0121636D02*
X0414162Y0121636D01*
X0414185Y0121537D02*
X0414659Y0121537D01*
X0414637Y0121439D02*
X0414207Y0121439D01*
X0414229Y0121340D02*
X0414614Y0121340D01*
X0414592Y0121242D02*
X0414252Y0121242D01*
X0414274Y0121143D02*
X0414570Y0121143D01*
X0414547Y0121045D02*
X0414297Y0121045D01*
X0414319Y0120946D02*
X0414525Y0120946D01*
X0414503Y0120848D02*
X0414341Y0120848D01*
X0414364Y0120749D02*
X0414480Y0120749D01*
X0414458Y0120651D02*
X0414386Y0120651D01*
X0414408Y0120552D02*
X0414435Y0120552D01*
X0418622Y0128393D02*
X0423022Y0129293D01*
X0418622Y0130193D01*
X0418022Y0129293D01*
X0418622Y0128393D01*
X0418595Y0128433D02*
X0418818Y0128433D01*
X0418530Y0128532D02*
X0419299Y0128532D01*
X0419781Y0128630D02*
X0418464Y0128630D01*
X0418398Y0128729D02*
X0420263Y0128729D01*
X0420744Y0128827D02*
X0418333Y0128827D01*
X0418267Y0128926D02*
X0421226Y0128926D01*
X0421707Y0129024D02*
X0418201Y0129024D01*
X0418135Y0129123D02*
X0422189Y0129123D01*
X0422410Y0129418D02*
X0418105Y0129418D01*
X0418040Y0129320D02*
X0422892Y0129320D01*
X0422671Y0129221D02*
X0418070Y0129221D01*
X0418171Y0129517D02*
X0421928Y0129517D01*
X0421447Y0129615D02*
X0418237Y0129615D01*
X0418302Y0129714D02*
X0420965Y0129714D01*
X0420484Y0129812D02*
X0418368Y0129812D01*
X0418434Y0129911D02*
X0420002Y0129911D01*
X0419520Y0130009D02*
X0418499Y0130009D01*
X0418565Y0130108D02*
X0419039Y0130108D01*
X0415362Y0133457D02*
X0413482Y0133457D01*
X0413436Y0133556D02*
X0415408Y0133556D01*
X0415387Y0133654D02*
X0413457Y0133654D01*
X0413478Y0133753D02*
X0415365Y0133753D01*
X0415344Y0133851D02*
X0413500Y0133851D01*
X0413521Y0133950D02*
X0415323Y0133950D01*
X0415301Y0134048D02*
X0413543Y0134048D01*
X0413646Y0133359D02*
X0415198Y0133359D01*
X0415034Y0133260D02*
X0413810Y0133260D01*
X0413974Y0133162D02*
X0414870Y0133162D01*
X0414705Y0133063D02*
X0414138Y0133063D01*
X0414303Y0132965D02*
X0414541Y0132965D01*
X0418808Y0134344D02*
X0419768Y0134344D01*
X0419830Y0134442D02*
X0418959Y0134442D01*
X0419111Y0134541D02*
X0419891Y0134541D01*
X0419952Y0134639D02*
X0419262Y0134639D01*
X0419414Y0134738D02*
X0420014Y0134738D01*
X0420075Y0134836D02*
X0419565Y0134836D01*
X0419717Y0134935D02*
X0420136Y0134935D01*
X0420198Y0135033D02*
X0419869Y0135033D01*
X0420020Y0135132D02*
X0420259Y0135132D01*
X0420321Y0135230D02*
X0420172Y0135230D01*
X0420323Y0135329D02*
X0420382Y0135329D01*
D39*
X0045666Y0074041D03*
X0045666Y0184277D03*
X0419646Y0184277D03*
X0419682Y0074041D03*
M02*
