G75*
%MOIN*%
%OFA0B0*%
%FSLAX25Y25*%
%IPPOS*%
%LPD*%
%AMOC8*
5,1,8,0,0,1.08239X$1,22.5*
%
%ADD10C,0.13300*%
%ADD11R,0.07099X0.10800*%
%ADD12R,0.10800X0.07099*%
%ADD13R,0.18910X0.04737*%
%ADD14R,0.14186X0.07099*%
%ADD15R,0.01981X0.02572*%
%ADD16C,0.08200*%
%ADD17R,0.13398X0.10643*%
%ADD18C,0.03950*%
%ADD19C,0.07700*%
%ADD20R,0.04700X0.08000*%
D10*
X0130800Y0131800D03*
D11*
X0038043Y0160540D03*
X0018357Y0160540D03*
X0018357Y0103060D03*
X0038043Y0103060D03*
X0224157Y0103060D03*
X0243843Y0103060D03*
X0243843Y0160540D03*
X0224157Y0160540D03*
D12*
X0102060Y0018757D03*
X0102060Y0038443D03*
X0159540Y0038443D03*
X0159540Y0018757D03*
X0159440Y0225157D03*
X0159440Y0244843D03*
X0101960Y0244843D03*
X0101960Y0225157D03*
D13*
X0185367Y0135737D03*
X0185367Y0127863D03*
D14*
X0164894Y0118414D03*
X0164894Y0145186D03*
D15*
X0092769Y0146800D03*
X0090800Y0146800D03*
X0088831Y0146800D03*
X0088831Y0141485D03*
X0092769Y0141485D03*
D16*
X0155800Y0136800D03*
X0155800Y0126800D03*
X0165800Y0196800D03*
X0155800Y0197800D03*
X0175800Y0197800D03*
X0107300Y0198300D03*
X0097300Y0197300D03*
X0087300Y0198300D03*
D17*
G36*
X0200651Y0198661D02*
X0192966Y0209635D01*
X0201683Y0215739D01*
X0209368Y0204765D01*
X0200651Y0198661D01*
G37*
G36*
X0218717Y0172861D02*
X0211032Y0183835D01*
X0219749Y0189939D01*
X0227434Y0178965D01*
X0218717Y0172861D01*
G37*
D18*
X0202703Y0178237D03*
X0208649Y0211958D03*
D19*
X0185800Y0176800D03*
X0175800Y0176800D03*
X0165800Y0176800D03*
X0155800Y0176800D03*
X0145800Y0176800D03*
X0135800Y0176800D03*
X0125800Y0176800D03*
X0115800Y0176800D03*
X0105800Y0176800D03*
X0095800Y0176800D03*
X0085800Y0176800D03*
X0075800Y0176800D03*
X0075800Y0166800D03*
X0085800Y0166800D03*
X0095800Y0166800D03*
X0105800Y0166800D03*
X0115800Y0166800D03*
X0125800Y0166800D03*
X0135800Y0166800D03*
X0145800Y0166800D03*
X0155800Y0166800D03*
X0165800Y0166800D03*
X0175800Y0166800D03*
X0185800Y0166800D03*
X0185800Y0096800D03*
X0175800Y0096800D03*
X0165800Y0096800D03*
X0155800Y0096800D03*
X0145800Y0096800D03*
X0135800Y0096800D03*
X0125800Y0096800D03*
X0115800Y0096800D03*
X0105800Y0096800D03*
X0095800Y0096800D03*
X0085800Y0096800D03*
X0075800Y0096800D03*
X0075800Y0086800D03*
X0085800Y0086800D03*
X0095800Y0086800D03*
X0105800Y0086800D03*
X0115800Y0086800D03*
X0125800Y0086800D03*
X0135800Y0086800D03*
X0145800Y0086800D03*
X0155800Y0086800D03*
X0165800Y0086800D03*
X0175800Y0086800D03*
X0185800Y0086800D03*
D20*
X0185800Y0080800D03*
X0175800Y0080800D03*
X0165800Y0080800D03*
X0155800Y0080800D03*
X0145800Y0080800D03*
X0135800Y0080800D03*
X0125800Y0080800D03*
X0115800Y0080800D03*
X0105800Y0080800D03*
X0095800Y0080800D03*
X0085800Y0080800D03*
X0075800Y0080800D03*
X0075800Y0102800D03*
X0085800Y0102800D03*
X0095800Y0102800D03*
X0105800Y0102800D03*
X0115800Y0102800D03*
X0125800Y0102800D03*
X0135800Y0102800D03*
X0145800Y0102800D03*
X0155800Y0102800D03*
X0165800Y0102800D03*
X0175800Y0102800D03*
X0185800Y0102800D03*
X0185800Y0160800D03*
X0175800Y0160800D03*
X0165800Y0160800D03*
X0155800Y0160800D03*
X0145800Y0160800D03*
X0135800Y0160800D03*
X0125800Y0160800D03*
X0115800Y0160800D03*
X0105800Y0160800D03*
X0095800Y0160800D03*
X0085800Y0160800D03*
X0075800Y0160800D03*
X0075800Y0182800D03*
X0085800Y0182800D03*
X0095800Y0182800D03*
X0105800Y0182800D03*
X0115800Y0182800D03*
X0125800Y0182800D03*
X0135800Y0182800D03*
X0145800Y0182800D03*
X0155800Y0182800D03*
X0165800Y0182800D03*
X0175800Y0182800D03*
X0185800Y0182800D03*
M02*
