%
M48
M72
T01C0.01200
T02C0.01600
T03C0.03150
T04C0.04000
T05C0.12500
%
T01
X151080Y53655
X151080Y57655
T02
X75800Y29300
X117300Y38300
X145300Y38800
X165800Y43300
X133300Y48800
X112800Y49800
X124080Y57655
X142800Y55800
X160800Y53800
X167300Y55300
X166800Y65800
X147800Y63800
X144000Y67600
X147800Y70800
X137100Y67600
X133800Y70800
X125900Y67600
X129000Y74100
X73300Y70800
X32300Y70300
X50800Y107300
X38300Y112800
X86300Y121300
X75800Y127300
X100800Y134300
X92800Y136800
X48800Y138800
X36800Y132300
X15300Y127300
X195800Y76800
X242300Y96300
X239800Y107800
X215300Y57300
X192800Y32800
X134800Y14300
X193800Y182800
X187300Y192800
X223800Y196300
X184300Y209800
X165800Y219800
X148800Y214300
X104800Y211300
X68300Y230800
X126300Y248800
X185800Y235800
X71300Y189800
X28300Y187300
X140800Y188800
T03
X202703Y178237
X208649Y211958
T04
X175800Y197800
X165800Y196800
X155800Y197800
X107300Y198300
X97300Y197300
X87300Y198300
X85800Y176800
X75800Y176800
X95800Y176800
X105800Y176800
X115800Y176800
X125800Y176800
X135800Y176800
X145800Y176800
X155800Y176800
X165800Y176800
X175800Y176800
X185800Y176800
X185800Y166800
X175800Y166800
X165800Y166800
X155800Y166800
X145800Y166800
X135800Y166800
X125800Y166800
X115800Y166800
X105800Y166800
X95800Y166800
X85800Y166800
X75800Y166800
X155800Y136800
X155800Y126800
X155800Y96800
X145800Y96800
X135800Y96800
X125800Y96800
X115800Y96800
X105800Y96800
X95800Y96800
X85800Y96800
X75800Y96800
X75800Y86800
X85800Y86800
X95800Y86800
X105800Y86800
X115800Y86800
X125800Y86800
X135800Y86800
X145800Y86800
X155800Y86800
X165800Y86800
X175800Y86800
X185800Y86800
X185800Y96800
X175800Y96800
X165800Y96800
T05
X130800Y131800
M30
