G75*
G70*
%OFA0B0*%
%FSLAX24Y24*%
%IPPOS*%
%LPD*%
%AMOC8*
5,1,8,0,0,1.08239X$1,22.5*
%
%ADD10C,0.0000*%
%ADD11C,0.0100*%
%ADD12C,0.0640*%
%ADD13C,0.0740*%
%ADD14R,0.0740X0.0740*%
%ADD15OC8,0.0560*%
%ADD16C,0.0440*%
D10*
X026800Y002325D02*
X026802Y002369D01*
X026808Y002413D01*
X026818Y002456D01*
X026831Y002498D01*
X026848Y002539D01*
X026869Y002578D01*
X026893Y002615D01*
X026920Y002650D01*
X026950Y002682D01*
X026983Y002712D01*
X027019Y002738D01*
X027056Y002762D01*
X027096Y002781D01*
X027137Y002798D01*
X027180Y002810D01*
X027223Y002819D01*
X027267Y002824D01*
X027311Y002825D01*
X027355Y002822D01*
X027399Y002815D01*
X027442Y002804D01*
X027484Y002790D01*
X027524Y002772D01*
X027563Y002750D01*
X027599Y002726D01*
X027633Y002698D01*
X027665Y002667D01*
X027694Y002633D01*
X027720Y002597D01*
X027742Y002559D01*
X027761Y002519D01*
X027776Y002477D01*
X027788Y002435D01*
X027796Y002391D01*
X027800Y002347D01*
X027800Y002303D01*
X027796Y002259D01*
X027788Y002215D01*
X027776Y002173D01*
X027761Y002131D01*
X027742Y002091D01*
X027720Y002053D01*
X027694Y002017D01*
X027665Y001983D01*
X027633Y001952D01*
X027599Y001924D01*
X027563Y001900D01*
X027524Y001878D01*
X027484Y001860D01*
X027442Y001846D01*
X027399Y001835D01*
X027355Y001828D01*
X027311Y001825D01*
X027267Y001826D01*
X027223Y001831D01*
X027180Y001840D01*
X027137Y001852D01*
X027096Y001869D01*
X027056Y001888D01*
X027019Y001912D01*
X026983Y001938D01*
X026950Y001968D01*
X026920Y002000D01*
X026893Y002035D01*
X026869Y002072D01*
X026848Y002111D01*
X026831Y002152D01*
X026818Y002194D01*
X026808Y002237D01*
X026802Y002281D01*
X026800Y002325D01*
X042942Y002325D02*
X042944Y002369D01*
X042950Y002413D01*
X042960Y002456D01*
X042973Y002498D01*
X042990Y002539D01*
X043011Y002578D01*
X043035Y002615D01*
X043062Y002650D01*
X043092Y002682D01*
X043125Y002712D01*
X043161Y002738D01*
X043198Y002762D01*
X043238Y002781D01*
X043279Y002798D01*
X043322Y002810D01*
X043365Y002819D01*
X043409Y002824D01*
X043453Y002825D01*
X043497Y002822D01*
X043541Y002815D01*
X043584Y002804D01*
X043626Y002790D01*
X043666Y002772D01*
X043705Y002750D01*
X043741Y002726D01*
X043775Y002698D01*
X043807Y002667D01*
X043836Y002633D01*
X043862Y002597D01*
X043884Y002559D01*
X043903Y002519D01*
X043918Y002477D01*
X043930Y002435D01*
X043938Y002391D01*
X043942Y002347D01*
X043942Y002303D01*
X043938Y002259D01*
X043930Y002215D01*
X043918Y002173D01*
X043903Y002131D01*
X043884Y002091D01*
X043862Y002053D01*
X043836Y002017D01*
X043807Y001983D01*
X043775Y001952D01*
X043741Y001924D01*
X043705Y001900D01*
X043666Y001878D01*
X043626Y001860D01*
X043584Y001846D01*
X043541Y001835D01*
X043497Y001828D01*
X043453Y001825D01*
X043409Y001826D01*
X043365Y001831D01*
X043322Y001840D01*
X043279Y001852D01*
X043238Y001869D01*
X043198Y001888D01*
X043161Y001912D01*
X043125Y001938D01*
X043092Y001968D01*
X043062Y002000D01*
X043035Y002035D01*
X043011Y002072D01*
X042990Y002111D01*
X042973Y002152D01*
X042960Y002194D01*
X042950Y002237D01*
X042944Y002281D01*
X042942Y002325D01*
X042942Y010396D02*
X042944Y010440D01*
X042950Y010484D01*
X042960Y010527D01*
X042973Y010569D01*
X042990Y010610D01*
X043011Y010649D01*
X043035Y010686D01*
X043062Y010721D01*
X043092Y010753D01*
X043125Y010783D01*
X043161Y010809D01*
X043198Y010833D01*
X043238Y010852D01*
X043279Y010869D01*
X043322Y010881D01*
X043365Y010890D01*
X043409Y010895D01*
X043453Y010896D01*
X043497Y010893D01*
X043541Y010886D01*
X043584Y010875D01*
X043626Y010861D01*
X043666Y010843D01*
X043705Y010821D01*
X043741Y010797D01*
X043775Y010769D01*
X043807Y010738D01*
X043836Y010704D01*
X043862Y010668D01*
X043884Y010630D01*
X043903Y010590D01*
X043918Y010548D01*
X043930Y010506D01*
X043938Y010462D01*
X043942Y010418D01*
X043942Y010374D01*
X043938Y010330D01*
X043930Y010286D01*
X043918Y010244D01*
X043903Y010202D01*
X043884Y010162D01*
X043862Y010124D01*
X043836Y010088D01*
X043807Y010054D01*
X043775Y010023D01*
X043741Y009995D01*
X043705Y009971D01*
X043666Y009949D01*
X043626Y009931D01*
X043584Y009917D01*
X043541Y009906D01*
X043497Y009899D01*
X043453Y009896D01*
X043409Y009897D01*
X043365Y009902D01*
X043322Y009911D01*
X043279Y009923D01*
X043238Y009940D01*
X043198Y009959D01*
X043161Y009983D01*
X043125Y010009D01*
X043092Y010039D01*
X043062Y010071D01*
X043035Y010106D01*
X043011Y010143D01*
X042990Y010182D01*
X042973Y010223D01*
X042960Y010265D01*
X042950Y010308D01*
X042944Y010352D01*
X042942Y010396D01*
X026800Y010396D02*
X026802Y010440D01*
X026808Y010484D01*
X026818Y010527D01*
X026831Y010569D01*
X026848Y010610D01*
X026869Y010649D01*
X026893Y010686D01*
X026920Y010721D01*
X026950Y010753D01*
X026983Y010783D01*
X027019Y010809D01*
X027056Y010833D01*
X027096Y010852D01*
X027137Y010869D01*
X027180Y010881D01*
X027223Y010890D01*
X027267Y010895D01*
X027311Y010896D01*
X027355Y010893D01*
X027399Y010886D01*
X027442Y010875D01*
X027484Y010861D01*
X027524Y010843D01*
X027563Y010821D01*
X027599Y010797D01*
X027633Y010769D01*
X027665Y010738D01*
X027694Y010704D01*
X027720Y010668D01*
X027742Y010630D01*
X027761Y010590D01*
X027776Y010548D01*
X027788Y010506D01*
X027796Y010462D01*
X027800Y010418D01*
X027800Y010374D01*
X027796Y010330D01*
X027788Y010286D01*
X027776Y010244D01*
X027761Y010202D01*
X027742Y010162D01*
X027720Y010124D01*
X027694Y010088D01*
X027665Y010054D01*
X027633Y010023D01*
X027599Y009995D01*
X027563Y009971D01*
X027524Y009949D01*
X027484Y009931D01*
X027442Y009917D01*
X027399Y009906D01*
X027355Y009899D01*
X027311Y009896D01*
X027267Y009897D01*
X027223Y009902D01*
X027180Y009911D01*
X027137Y009923D01*
X027096Y009940D01*
X027056Y009959D01*
X027019Y009983D01*
X026983Y010009D01*
X026950Y010039D01*
X026920Y010071D01*
X026893Y010106D01*
X026869Y010143D01*
X026848Y010182D01*
X026831Y010223D01*
X026818Y010265D01*
X026808Y010308D01*
X026802Y010352D01*
X026800Y010396D01*
D11*
X045800Y000325D02*
X000300Y000325D01*
X000300Y021825D01*
X045800Y021825D01*
X045800Y000325D01*
X045400Y000725D02*
X000700Y000725D01*
X000700Y021425D01*
X045400Y021425D01*
X045400Y000725D01*
X045400Y000818D02*
X000700Y000818D01*
X000700Y000916D02*
X045400Y000916D01*
X045400Y001015D02*
X000700Y001015D01*
X000700Y001113D02*
X045400Y001113D01*
X045400Y001212D02*
X000700Y001212D01*
X000700Y001310D02*
X045400Y001310D01*
X045400Y001409D02*
X000700Y001409D01*
X000700Y001507D02*
X027054Y001507D01*
X027131Y001475D02*
X026819Y001604D01*
X026579Y001844D01*
X026450Y002156D01*
X026450Y002494D01*
X026579Y002806D01*
X026819Y003046D01*
X027131Y003175D01*
X027469Y003175D01*
X027781Y003046D01*
X028021Y002806D01*
X028150Y002494D01*
X028150Y002156D01*
X028021Y001844D01*
X027781Y001604D01*
X027469Y001475D01*
X027131Y001475D01*
X026817Y001606D02*
X000700Y001606D01*
X000700Y001704D02*
X026719Y001704D01*
X026620Y001803D02*
X000700Y001803D01*
X000700Y001901D02*
X001775Y001901D01*
X001714Y001927D02*
X001887Y001855D01*
X002713Y001855D01*
X002886Y001927D01*
X003018Y002059D01*
X003090Y002232D01*
X003090Y002418D01*
X003018Y002591D01*
X002886Y002723D01*
X002713Y002795D01*
X001887Y002795D01*
X001714Y002723D01*
X001582Y002591D01*
X001510Y002418D01*
X001510Y002232D01*
X001582Y002059D01*
X001714Y001927D01*
X001641Y002000D02*
X000700Y002000D01*
X000700Y002098D02*
X001565Y002098D01*
X001524Y002197D02*
X000700Y002197D01*
X000700Y002295D02*
X001510Y002295D01*
X001510Y002394D02*
X000700Y002394D01*
X000700Y002492D02*
X001540Y002492D01*
X001581Y002591D02*
X000700Y002591D01*
X000700Y002689D02*
X001679Y002689D01*
X001868Y002788D02*
X000700Y002788D01*
X000700Y002886D02*
X001812Y002886D01*
X001887Y002855D02*
X001714Y002927D01*
X001582Y003059D01*
X001510Y003232D01*
X001510Y003418D01*
X001582Y003591D01*
X001714Y003723D01*
X001887Y003795D01*
X002713Y003795D01*
X002886Y003723D01*
X003018Y003591D01*
X003090Y003418D01*
X003090Y003232D01*
X003018Y003059D01*
X002886Y002927D01*
X002713Y002855D01*
X001887Y002855D01*
X001656Y002985D02*
X000700Y002985D01*
X000700Y003083D02*
X001572Y003083D01*
X001531Y003182D02*
X000700Y003182D01*
X000700Y003280D02*
X001510Y003280D01*
X001510Y003379D02*
X000700Y003379D01*
X000700Y003477D02*
X001534Y003477D01*
X001575Y003576D02*
X000700Y003576D01*
X000700Y003674D02*
X001664Y003674D01*
X001832Y003773D02*
X000700Y003773D01*
X000700Y003871D02*
X001848Y003871D01*
X001887Y003855D02*
X002713Y003855D01*
X002886Y003927D01*
X003018Y004059D01*
X003090Y004232D01*
X003090Y004418D01*
X003018Y004591D01*
X002886Y004723D01*
X002713Y004795D01*
X001887Y004795D01*
X001714Y004723D01*
X001582Y004591D01*
X001510Y004418D01*
X001510Y004232D01*
X001582Y004059D01*
X001714Y003927D01*
X001887Y003855D01*
X001671Y003970D02*
X000700Y003970D01*
X000700Y004068D02*
X001578Y004068D01*
X001537Y004167D02*
X000700Y004167D01*
X000700Y004265D02*
X001510Y004265D01*
X001510Y004364D02*
X000700Y004364D01*
X000700Y004462D02*
X001528Y004462D01*
X001569Y004561D02*
X000700Y004561D01*
X000700Y004659D02*
X001649Y004659D01*
X001796Y004758D02*
X000700Y004758D01*
X000700Y004856D02*
X001884Y004856D01*
X001887Y004855D02*
X002713Y004855D01*
X002886Y004927D01*
X003018Y005059D01*
X003090Y005232D01*
X003090Y005418D01*
X003018Y005591D01*
X002886Y005723D01*
X002713Y005795D01*
X001887Y005795D01*
X001714Y005723D01*
X001582Y005591D01*
X001510Y005418D01*
X001510Y005232D01*
X001582Y005059D01*
X001714Y004927D01*
X001887Y004855D01*
X001686Y004955D02*
X000700Y004955D01*
X000700Y005053D02*
X001587Y005053D01*
X001543Y005152D02*
X000700Y005152D01*
X000700Y005250D02*
X001510Y005250D01*
X001510Y005349D02*
X000700Y005349D01*
X000700Y005447D02*
X001522Y005447D01*
X001563Y005546D02*
X000700Y005546D01*
X000700Y005644D02*
X001634Y005644D01*
X001760Y005743D02*
X000700Y005743D01*
X000700Y005841D02*
X045400Y005841D01*
X045400Y005743D02*
X021840Y005743D01*
X021886Y005723D02*
X021713Y005795D01*
X020887Y005795D01*
X020714Y005723D01*
X020582Y005591D01*
X020510Y005418D01*
X020510Y005232D01*
X020582Y005059D01*
X020714Y004927D01*
X020887Y004855D01*
X021713Y004855D01*
X021886Y004927D01*
X022018Y005059D01*
X022090Y005232D01*
X022090Y005418D01*
X022018Y005591D01*
X021886Y005723D01*
X021966Y005644D02*
X045400Y005644D01*
X045400Y005546D02*
X022037Y005546D01*
X022078Y005447D02*
X045400Y005447D01*
X045400Y005349D02*
X022090Y005349D01*
X022090Y005250D02*
X045400Y005250D01*
X045400Y005152D02*
X022057Y005152D01*
X022013Y005053D02*
X045400Y005053D01*
X045400Y004955D02*
X021914Y004955D01*
X021716Y004856D02*
X045400Y004856D01*
X045400Y004758D02*
X021804Y004758D01*
X021886Y004723D02*
X021713Y004795D01*
X020887Y004795D01*
X020714Y004723D01*
X020582Y004591D01*
X020510Y004418D01*
X020510Y004232D01*
X020582Y004059D01*
X020714Y003927D01*
X020887Y003855D01*
X021713Y003855D01*
X021886Y003927D01*
X022018Y004059D01*
X022090Y004232D01*
X022090Y004418D01*
X022018Y004591D01*
X021886Y004723D01*
X021951Y004659D02*
X045400Y004659D01*
X045400Y004561D02*
X022031Y004561D01*
X022072Y004462D02*
X045400Y004462D01*
X045400Y004364D02*
X022090Y004364D01*
X022090Y004265D02*
X045400Y004265D01*
X045400Y004167D02*
X022063Y004167D01*
X022022Y004068D02*
X045400Y004068D01*
X045400Y003970D02*
X021929Y003970D01*
X021752Y003871D02*
X045400Y003871D01*
X045400Y003773D02*
X021768Y003773D01*
X021713Y003795D02*
X020887Y003795D01*
X020714Y003723D01*
X020582Y003591D01*
X020510Y003418D01*
X020510Y003232D01*
X020582Y003059D01*
X020714Y002927D01*
X020887Y002855D01*
X021713Y002855D01*
X021886Y002927D01*
X022018Y003059D01*
X022090Y003232D01*
X022090Y003418D01*
X022018Y003591D01*
X021886Y003723D01*
X021713Y003795D01*
X021936Y003674D02*
X045400Y003674D01*
X045400Y003576D02*
X022025Y003576D01*
X022066Y003477D02*
X045400Y003477D01*
X045400Y003379D02*
X022090Y003379D01*
X022090Y003280D02*
X045400Y003280D01*
X045400Y003182D02*
X022069Y003182D01*
X022028Y003083D02*
X026909Y003083D01*
X026757Y002985D02*
X021944Y002985D01*
X021788Y002886D02*
X026659Y002886D01*
X026572Y002788D02*
X021732Y002788D01*
X021713Y002795D02*
X020887Y002795D01*
X020714Y002723D01*
X020582Y002591D01*
X020510Y002418D01*
X020510Y002232D01*
X020582Y002059D01*
X020714Y001927D01*
X020887Y001855D01*
X021713Y001855D01*
X021886Y001927D01*
X022018Y002059D01*
X022090Y002232D01*
X022090Y002418D01*
X022018Y002591D01*
X021886Y002723D01*
X021713Y002795D01*
X021921Y002689D02*
X026531Y002689D01*
X026490Y002591D02*
X022019Y002591D01*
X022060Y002492D02*
X026450Y002492D01*
X026450Y002394D02*
X022090Y002394D01*
X022090Y002295D02*
X026450Y002295D01*
X026450Y002197D02*
X022075Y002197D01*
X022035Y002098D02*
X026474Y002098D01*
X026515Y002000D02*
X021959Y002000D01*
X021825Y001901D02*
X026556Y001901D01*
X027546Y001507D02*
X043195Y001507D01*
X043273Y001475D02*
X043611Y001475D01*
X043923Y001604D01*
X044162Y001844D01*
X044292Y002156D01*
X044292Y002494D01*
X044162Y002806D01*
X043923Y003046D01*
X043611Y003175D01*
X043273Y003175D01*
X042960Y003046D01*
X042721Y002806D01*
X042592Y002494D01*
X042592Y002156D01*
X042721Y001844D01*
X042960Y001604D01*
X043273Y001475D01*
X042959Y001606D02*
X027783Y001606D01*
X027881Y001704D02*
X042861Y001704D01*
X042762Y001803D02*
X027980Y001803D01*
X028044Y001901D02*
X042697Y001901D01*
X042657Y002000D02*
X028085Y002000D01*
X028126Y002098D02*
X042616Y002098D01*
X042592Y002197D02*
X028150Y002197D01*
X028150Y002295D02*
X042592Y002295D01*
X042592Y002394D02*
X028150Y002394D01*
X028150Y002492D02*
X042592Y002492D01*
X042632Y002591D02*
X028110Y002591D01*
X028069Y002689D02*
X042672Y002689D01*
X042713Y002788D02*
X028028Y002788D01*
X027941Y002886D02*
X042801Y002886D01*
X042899Y002985D02*
X027843Y002985D01*
X027691Y003083D02*
X043051Y003083D01*
X043833Y003083D02*
X045400Y003083D01*
X045400Y002985D02*
X043984Y002985D01*
X044083Y002886D02*
X045400Y002886D01*
X045400Y002788D02*
X044170Y002788D01*
X044211Y002689D02*
X045400Y002689D01*
X045400Y002591D02*
X044252Y002591D01*
X044292Y002492D02*
X045400Y002492D01*
X045400Y002394D02*
X044292Y002394D01*
X044292Y002295D02*
X045400Y002295D01*
X045400Y002197D02*
X044292Y002197D01*
X044268Y002098D02*
X045400Y002098D01*
X045400Y002000D02*
X044227Y002000D01*
X044186Y001901D02*
X045400Y001901D01*
X045400Y001803D02*
X044121Y001803D01*
X044023Y001704D02*
X045400Y001704D01*
X045400Y001606D02*
X043924Y001606D01*
X043688Y001507D02*
X045400Y001507D01*
X045400Y005940D02*
X021899Y005940D01*
X021886Y005927D02*
X022018Y006059D01*
X022090Y006232D01*
X022090Y006418D01*
X022018Y006591D01*
X021886Y006723D01*
X021713Y006795D01*
X020887Y006795D01*
X020714Y006723D01*
X020582Y006591D01*
X020510Y006418D01*
X020510Y006232D01*
X020582Y006059D01*
X020714Y005927D01*
X020887Y005855D01*
X021713Y005855D01*
X021886Y005927D01*
X021998Y006038D02*
X045400Y006038D01*
X045400Y006137D02*
X022051Y006137D01*
X022090Y006235D02*
X045400Y006235D01*
X045400Y006334D02*
X022090Y006334D01*
X022084Y006432D02*
X045400Y006432D01*
X045400Y006531D02*
X022044Y006531D01*
X021981Y006629D02*
X045400Y006629D01*
X045400Y006728D02*
X021876Y006728D01*
X021881Y006925D02*
X045400Y006925D01*
X045400Y007023D02*
X021983Y007023D01*
X022018Y007059D02*
X021886Y006927D01*
X021713Y006855D01*
X020887Y006855D01*
X020714Y006927D01*
X020582Y007059D01*
X020510Y007232D01*
X020510Y007418D01*
X020582Y007591D01*
X020714Y007723D01*
X020887Y007795D01*
X021713Y007795D01*
X021886Y007723D01*
X022018Y007591D01*
X022090Y007418D01*
X022090Y007232D01*
X022018Y007059D01*
X022044Y007122D02*
X045400Y007122D01*
X045400Y007220D02*
X022085Y007220D01*
X022090Y007319D02*
X045400Y007319D01*
X045400Y007417D02*
X022090Y007417D01*
X022050Y007516D02*
X045400Y007516D01*
X045400Y007614D02*
X021996Y007614D01*
X021897Y007713D02*
X045400Y007713D01*
X045400Y007811D02*
X000700Y007811D01*
X000700Y007713D02*
X001703Y007713D01*
X001714Y007723D02*
X001582Y007591D01*
X001510Y007418D01*
X001510Y007232D01*
X001582Y007059D01*
X001714Y006927D01*
X001887Y006855D01*
X002713Y006855D01*
X002886Y006927D01*
X003018Y007059D01*
X003090Y007232D01*
X003090Y007418D01*
X003018Y007591D01*
X002886Y007723D01*
X002713Y007795D01*
X001887Y007795D01*
X001714Y007723D01*
X001604Y007614D02*
X000700Y007614D01*
X000700Y007516D02*
X001550Y007516D01*
X001510Y007417D02*
X000700Y007417D01*
X000700Y007319D02*
X001510Y007319D01*
X001515Y007220D02*
X000700Y007220D01*
X000700Y007122D02*
X001556Y007122D01*
X001617Y007023D02*
X000700Y007023D01*
X000700Y006925D02*
X001719Y006925D01*
X001724Y006728D02*
X000700Y006728D01*
X000700Y006826D02*
X045400Y006826D01*
X045400Y007910D02*
X021845Y007910D01*
X021886Y007927D02*
X021713Y007855D01*
X020887Y007855D01*
X020714Y007927D01*
X020582Y008059D01*
X020510Y008232D01*
X020510Y008418D01*
X020582Y008591D01*
X020714Y008723D01*
X020887Y008795D01*
X021713Y008795D01*
X021886Y008723D01*
X022018Y008591D01*
X022090Y008418D01*
X022090Y008232D01*
X022018Y008059D01*
X021886Y007927D01*
X021968Y008008D02*
X045400Y008008D01*
X045400Y008107D02*
X022038Y008107D01*
X022079Y008205D02*
X045400Y008205D01*
X045400Y008304D02*
X022090Y008304D01*
X022090Y008402D02*
X045400Y008402D01*
X045400Y008501D02*
X022056Y008501D01*
X022011Y008599D02*
X045400Y008599D01*
X045400Y008698D02*
X021912Y008698D01*
X021809Y008895D02*
X045400Y008895D01*
X045400Y008993D02*
X021953Y008993D01*
X022018Y009059D02*
X021886Y008927D01*
X021713Y008855D01*
X020887Y008855D01*
X020714Y008927D01*
X020582Y009059D01*
X020510Y009232D01*
X020510Y009418D01*
X020582Y009591D01*
X020714Y009723D01*
X020887Y009795D01*
X021713Y009795D01*
X021886Y009723D01*
X022018Y009591D01*
X022090Y009418D01*
X022090Y009232D01*
X022018Y009059D01*
X022032Y009092D02*
X045400Y009092D01*
X045400Y009190D02*
X022073Y009190D01*
X022090Y009289D02*
X045400Y009289D01*
X045400Y009387D02*
X022090Y009387D01*
X022062Y009486D02*
X045400Y009486D01*
X045400Y009584D02*
X043703Y009584D01*
X043611Y009546D02*
X043923Y009675D01*
X044162Y009914D01*
X044292Y010227D01*
X044292Y010565D01*
X044162Y010877D01*
X043923Y011116D01*
X043611Y011246D01*
X043273Y011246D01*
X042960Y011116D01*
X042721Y010877D01*
X042592Y010565D01*
X042592Y010227D01*
X042721Y009914D01*
X042960Y009675D01*
X043273Y009546D01*
X043611Y009546D01*
X043930Y009683D02*
X045400Y009683D01*
X045400Y009781D02*
X044029Y009781D01*
X044127Y009880D02*
X045400Y009880D01*
X045400Y009978D02*
X044189Y009978D01*
X044229Y010077D02*
X045400Y010077D01*
X045400Y010175D02*
X044270Y010175D01*
X044292Y010274D02*
X045400Y010274D01*
X045400Y010372D02*
X044292Y010372D01*
X044292Y010471D02*
X045400Y010471D01*
X045400Y010569D02*
X044290Y010569D01*
X044249Y010668D02*
X045400Y010668D01*
X045400Y010766D02*
X044208Y010766D01*
X044168Y010865D02*
X045400Y010865D01*
X045400Y010963D02*
X044077Y010963D01*
X043978Y011062D02*
X045400Y011062D01*
X045400Y011160D02*
X043818Y011160D01*
X043065Y011160D02*
X027676Y011160D01*
X027781Y011116D02*
X027469Y011246D01*
X027131Y011246D01*
X026819Y011116D01*
X026579Y010877D01*
X026450Y010565D01*
X026450Y010227D01*
X026579Y009914D01*
X026819Y009675D01*
X027131Y009546D01*
X027469Y009546D01*
X027781Y009675D01*
X028021Y009914D01*
X028150Y010227D01*
X028150Y010565D01*
X028021Y010877D01*
X027781Y011116D01*
X027836Y011062D02*
X042905Y011062D01*
X042807Y010963D02*
X027935Y010963D01*
X028026Y010865D02*
X042716Y010865D01*
X042675Y010766D02*
X028067Y010766D01*
X028108Y010668D02*
X042634Y010668D01*
X042593Y010569D02*
X028148Y010569D01*
X028150Y010471D02*
X042592Y010471D01*
X042592Y010372D02*
X028150Y010372D01*
X028150Y010274D02*
X042592Y010274D01*
X042613Y010175D02*
X028129Y010175D01*
X028088Y010077D02*
X042654Y010077D01*
X042695Y009978D02*
X028047Y009978D01*
X027986Y009880D02*
X042756Y009880D01*
X042854Y009781D02*
X027887Y009781D01*
X027789Y009683D02*
X042953Y009683D01*
X043181Y009584D02*
X027561Y009584D01*
X027039Y009584D02*
X022021Y009584D01*
X021927Y009683D02*
X026811Y009683D01*
X026713Y009781D02*
X021747Y009781D01*
X020853Y009781D02*
X002747Y009781D01*
X002713Y009795D02*
X002886Y009723D01*
X003018Y009591D01*
X003090Y009418D01*
X003090Y009232D01*
X003018Y009059D01*
X002886Y008927D01*
X002713Y008855D01*
X001887Y008855D01*
X001714Y008927D01*
X001582Y009059D01*
X001510Y009232D01*
X001510Y009418D01*
X001582Y009591D01*
X001714Y009723D01*
X001887Y009795D01*
X002713Y009795D01*
X002730Y009867D02*
X002800Y009889D01*
X002866Y009923D01*
X002926Y009967D01*
X002978Y010019D01*
X003022Y010079D01*
X003056Y010145D01*
X003078Y010215D01*
X003088Y010275D01*
X002350Y010275D01*
X002350Y010375D01*
X002250Y010375D01*
X002250Y010795D01*
X001943Y010795D01*
X001870Y010783D01*
X001800Y010761D01*
X001734Y010727D01*
X001674Y010683D01*
X001622Y010631D01*
X001578Y010571D01*
X001544Y010505D01*
X001522Y010435D01*
X001512Y010375D01*
X002250Y010375D01*
X002250Y010275D01*
X002350Y010275D01*
X002350Y009855D01*
X002657Y009855D01*
X002730Y009867D01*
X002770Y009880D02*
X026614Y009880D01*
X026553Y009978D02*
X002938Y009978D01*
X003020Y010077D02*
X026512Y010077D01*
X026471Y010175D02*
X003065Y010175D01*
X003088Y010274D02*
X026450Y010274D01*
X026450Y010372D02*
X002350Y010372D01*
X002350Y010375D02*
X003088Y010375D01*
X003078Y010435D01*
X003056Y010505D01*
X003022Y010571D01*
X002978Y010631D01*
X002926Y010683D01*
X002866Y010727D01*
X002800Y010761D01*
X002730Y010783D01*
X002657Y010795D01*
X002350Y010795D01*
X002350Y010375D01*
X002350Y010471D02*
X002250Y010471D01*
X002250Y010569D02*
X002350Y010569D01*
X002350Y010668D02*
X002250Y010668D01*
X002250Y010766D02*
X002350Y010766D01*
X002350Y010855D02*
X002657Y010855D01*
X002730Y010867D01*
X002800Y010889D01*
X002866Y010923D01*
X002926Y010967D01*
X002978Y011019D01*
X003022Y011079D01*
X003056Y011145D01*
X003078Y011215D01*
X003088Y011275D01*
X002350Y011275D01*
X002350Y011375D01*
X002250Y011375D01*
X002250Y011795D01*
X001943Y011795D01*
X001870Y011783D01*
X001800Y011761D01*
X001734Y011727D01*
X001674Y011683D01*
X001622Y011631D01*
X001578Y011571D01*
X001544Y011505D01*
X001522Y011435D01*
X001512Y011375D01*
X002250Y011375D01*
X002250Y011275D01*
X002350Y011275D01*
X002350Y010855D01*
X002350Y010865D02*
X002250Y010865D01*
X002250Y010855D02*
X002250Y011275D01*
X001512Y011275D01*
X001522Y011215D01*
X001544Y011145D01*
X001578Y011079D01*
X001622Y011019D01*
X001674Y010967D01*
X001734Y010923D01*
X001800Y010889D01*
X001870Y010867D01*
X001943Y010855D01*
X002250Y010855D01*
X002250Y010963D02*
X002350Y010963D01*
X002350Y011062D02*
X002250Y011062D01*
X002250Y011160D02*
X002350Y011160D01*
X002350Y011259D02*
X002250Y011259D01*
X002250Y011357D02*
X000700Y011357D01*
X000700Y011259D02*
X001515Y011259D01*
X001539Y011160D02*
X000700Y011160D01*
X000700Y011062D02*
X001590Y011062D01*
X001679Y010963D02*
X000700Y010963D01*
X000700Y010865D02*
X001883Y010865D01*
X001816Y010766D02*
X000700Y010766D01*
X000700Y010668D02*
X001658Y010668D01*
X001577Y010569D02*
X000700Y010569D01*
X000700Y010471D02*
X001533Y010471D01*
X001512Y010275D02*
X001522Y010215D01*
X001544Y010145D01*
X001578Y010079D01*
X001622Y010019D01*
X001674Y009967D01*
X001734Y009923D01*
X001800Y009889D01*
X001870Y009867D01*
X001943Y009855D01*
X002250Y009855D01*
X002250Y010275D01*
X001512Y010275D01*
X001512Y010274D02*
X000700Y010274D01*
X000700Y010372D02*
X002250Y010372D01*
X002250Y010274D02*
X002350Y010274D01*
X002350Y010175D02*
X002250Y010175D01*
X002250Y010077D02*
X002350Y010077D01*
X002350Y009978D02*
X002250Y009978D01*
X002250Y009880D02*
X002350Y009880D01*
X001853Y009781D02*
X000700Y009781D01*
X000700Y009683D02*
X001673Y009683D01*
X001579Y009584D02*
X000700Y009584D01*
X000700Y009486D02*
X001538Y009486D01*
X001510Y009387D02*
X000700Y009387D01*
X000700Y009289D02*
X001510Y009289D01*
X001527Y009190D02*
X000700Y009190D01*
X000700Y009092D02*
X001568Y009092D01*
X001647Y008993D02*
X000700Y008993D01*
X000700Y008895D02*
X001791Y008895D01*
X000700Y008796D02*
X045400Y008796D01*
X045400Y011259D02*
X021951Y011259D01*
X021886Y011323D02*
X021713Y011395D01*
X020887Y011395D01*
X020714Y011323D01*
X020582Y011191D01*
X020510Y011018D01*
X020510Y010832D01*
X020582Y010659D01*
X020714Y010527D01*
X020887Y010455D01*
X021713Y010455D01*
X021886Y010527D01*
X022018Y010659D01*
X022090Y010832D01*
X022090Y011018D01*
X022018Y011191D01*
X021886Y011323D01*
X021805Y011357D02*
X045400Y011357D01*
X045400Y011456D02*
X021715Y011456D01*
X021713Y011455D02*
X021886Y011527D01*
X022018Y011659D01*
X022090Y011832D01*
X022090Y012018D01*
X022018Y012191D01*
X021886Y012323D01*
X021713Y012395D01*
X020887Y012395D01*
X020714Y012323D01*
X020582Y012191D01*
X020510Y012018D01*
X020510Y011832D01*
X020582Y011659D01*
X020714Y011527D01*
X020887Y011455D01*
X021713Y011455D01*
X021914Y011554D02*
X045400Y011554D01*
X045400Y011653D02*
X022012Y011653D01*
X022057Y011751D02*
X045400Y011751D01*
X045400Y011850D02*
X022090Y011850D01*
X022090Y011948D02*
X045400Y011948D01*
X045400Y012047D02*
X022078Y012047D01*
X022038Y012145D02*
X045400Y012145D01*
X045400Y012244D02*
X021966Y012244D01*
X021841Y012342D02*
X029107Y012342D01*
X029197Y012305D02*
X029005Y012384D01*
X028859Y012530D01*
X028780Y012722D01*
X028780Y012928D01*
X028859Y013120D01*
X029005Y013266D01*
X029197Y013345D01*
X029403Y013345D01*
X029595Y013266D01*
X029741Y013120D01*
X029801Y012973D01*
X029818Y013025D01*
X029855Y013098D01*
X029903Y013164D01*
X029961Y013222D01*
X030027Y013270D01*
X030100Y013307D01*
X030178Y013332D01*
X030250Y013344D01*
X030250Y012875D01*
X030350Y012875D01*
X030350Y013344D01*
X030422Y013332D01*
X030500Y013307D01*
X030573Y013270D01*
X030639Y013222D01*
X030697Y013164D01*
X030745Y013098D01*
X030782Y013025D01*
X030799Y012973D01*
X030859Y013120D01*
X031005Y013266D01*
X031197Y013345D01*
X031403Y013345D01*
X031427Y013335D01*
X031917Y013825D01*
X032117Y013825D01*
X035817Y017525D01*
X042780Y017525D01*
X042780Y017757D01*
X042868Y017845D01*
X043732Y017845D01*
X043820Y017757D01*
X043820Y016893D01*
X043732Y016805D01*
X043500Y016805D01*
X043595Y016766D01*
X043741Y016620D01*
X043820Y016428D01*
X043820Y016222D01*
X043741Y016030D01*
X043595Y015884D01*
X043448Y015824D01*
X043500Y015807D01*
X043573Y015770D01*
X043639Y015722D01*
X043697Y015664D01*
X043745Y015598D01*
X043782Y015525D01*
X043807Y015447D01*
X043819Y015375D01*
X043350Y015375D01*
X043350Y015275D01*
X043819Y015275D01*
X043807Y015203D01*
X043782Y015125D01*
X043745Y015052D01*
X043697Y014986D01*
X043639Y014928D01*
X043573Y014880D01*
X043500Y014843D01*
X043448Y014826D01*
X043595Y014766D01*
X043741Y014620D01*
X043820Y014428D01*
X043820Y014222D01*
X043741Y014030D01*
X043595Y013884D01*
X043403Y013805D01*
X043197Y013805D01*
X043005Y013884D01*
X042859Y014030D01*
X042780Y014222D01*
X042780Y014428D01*
X042859Y014620D01*
X043005Y014766D01*
X043152Y014826D01*
X043100Y014843D01*
X043027Y014880D01*
X042961Y014928D01*
X042903Y014986D01*
X042855Y015052D01*
X042818Y015125D01*
X042793Y015203D01*
X042781Y015275D01*
X043250Y015275D01*
X043250Y015375D01*
X042781Y015375D01*
X042793Y015447D01*
X042818Y015525D01*
X042855Y015598D01*
X042903Y015664D01*
X042961Y015722D01*
X043027Y015770D01*
X043100Y015807D01*
X043152Y015824D01*
X043005Y015884D01*
X042859Y016030D01*
X042820Y016125D01*
X042717Y016125D01*
X042517Y016325D01*
X035483Y016325D01*
X033000Y013842D01*
X033000Y013342D01*
X032752Y013094D01*
X032800Y012977D01*
X032859Y013120D01*
X033005Y013266D01*
X033197Y013345D01*
X033403Y013345D01*
X033595Y013266D01*
X033741Y013120D01*
X033800Y012977D01*
X033859Y013120D01*
X034005Y013266D01*
X034197Y013345D01*
X034403Y013345D01*
X034595Y013266D01*
X034741Y013120D01*
X034800Y012977D01*
X034859Y013120D01*
X035005Y013266D01*
X035197Y013345D01*
X035403Y013345D01*
X035595Y013266D01*
X035741Y013120D01*
X035800Y012977D01*
X035859Y013120D01*
X036005Y013266D01*
X036197Y013345D01*
X036403Y013345D01*
X036595Y013266D01*
X036741Y013120D01*
X036800Y012977D01*
X036859Y013120D01*
X037005Y013266D01*
X037197Y013345D01*
X037403Y013345D01*
X037595Y013266D01*
X037741Y013120D01*
X037800Y012977D01*
X037859Y013120D01*
X038005Y013266D01*
X038197Y013345D01*
X038403Y013345D01*
X038595Y013266D01*
X038741Y013120D01*
X038800Y012977D01*
X038859Y013120D01*
X039005Y013266D01*
X039197Y013345D01*
X039403Y013345D01*
X039595Y013266D01*
X039741Y013120D01*
X039800Y012977D01*
X039859Y013120D01*
X040005Y013266D01*
X040197Y013345D01*
X040403Y013345D01*
X040595Y013266D01*
X040741Y013120D01*
X040820Y012928D01*
X040820Y012722D01*
X040741Y012530D01*
X040595Y012384D01*
X040403Y012305D01*
X040197Y012305D01*
X040005Y012384D01*
X039859Y012530D01*
X039800Y012673D01*
X039741Y012530D01*
X039595Y012384D01*
X039403Y012305D01*
X039197Y012305D01*
X039005Y012384D01*
X038859Y012530D01*
X038800Y012673D01*
X038741Y012530D01*
X038595Y012384D01*
X038403Y012305D01*
X038197Y012305D01*
X038005Y012384D01*
X037859Y012530D01*
X037800Y012673D01*
X037741Y012530D01*
X037595Y012384D01*
X037403Y012305D01*
X037197Y012305D01*
X037005Y012384D01*
X036859Y012530D01*
X036800Y012673D01*
X036741Y012530D01*
X036595Y012384D01*
X036403Y012305D01*
X036197Y012305D01*
X036005Y012384D01*
X035859Y012530D01*
X035800Y012673D01*
X035741Y012530D01*
X035595Y012384D01*
X035403Y012305D01*
X035197Y012305D01*
X035005Y012384D01*
X034859Y012530D01*
X034800Y012673D01*
X034741Y012530D01*
X034595Y012384D01*
X034403Y012305D01*
X034197Y012305D01*
X034005Y012384D01*
X033859Y012530D01*
X033800Y012673D01*
X033741Y012530D01*
X033595Y012384D01*
X033403Y012305D01*
X033197Y012305D01*
X033005Y012384D01*
X032859Y012530D01*
X032800Y012673D01*
X032741Y012530D01*
X032595Y012384D01*
X032403Y012305D01*
X032197Y012305D01*
X032005Y012384D01*
X031859Y012530D01*
X031800Y012673D01*
X031741Y012530D01*
X031595Y012384D01*
X031403Y012305D01*
X031197Y012305D01*
X031005Y012384D01*
X030859Y012530D01*
X030799Y012677D01*
X030782Y012625D01*
X030745Y012552D01*
X030697Y012486D01*
X030639Y012428D01*
X030573Y012380D01*
X030500Y012343D01*
X030422Y012318D01*
X030350Y012306D01*
X030350Y012775D01*
X030250Y012775D01*
X030250Y012306D01*
X030178Y012318D01*
X030100Y012343D01*
X030027Y012380D01*
X029961Y012428D01*
X029903Y012486D01*
X029855Y012552D01*
X029818Y012625D01*
X029801Y012677D01*
X029741Y012530D01*
X029595Y012384D01*
X029403Y012305D01*
X029197Y012305D01*
X028949Y012441D02*
X003081Y012441D01*
X003090Y012418D02*
X003018Y012591D01*
X002886Y012723D01*
X002713Y012795D01*
X001887Y012795D01*
X001714Y012723D01*
X001582Y012591D01*
X001510Y012418D01*
X001510Y012232D01*
X001582Y012059D01*
X001714Y011927D01*
X001887Y011855D01*
X002713Y011855D01*
X002886Y011927D01*
X003018Y012059D01*
X003090Y012232D01*
X003090Y012418D01*
X003090Y012342D02*
X020759Y012342D01*
X020634Y012244D02*
X003090Y012244D01*
X003054Y012145D02*
X020562Y012145D01*
X020522Y012047D02*
X003006Y012047D01*
X002908Y011948D02*
X020510Y011948D01*
X020510Y011850D02*
X000700Y011850D01*
X000700Y011948D02*
X001692Y011948D01*
X001594Y012047D02*
X000700Y012047D01*
X000700Y012145D02*
X001546Y012145D01*
X001510Y012244D02*
X000700Y012244D01*
X000700Y012342D02*
X001510Y012342D01*
X001519Y012441D02*
X000700Y012441D01*
X000700Y012539D02*
X001560Y012539D01*
X001628Y012638D02*
X000700Y012638D01*
X000700Y012736D02*
X001744Y012736D01*
X001887Y012855D02*
X001714Y012927D01*
X001582Y013059D01*
X001510Y013232D01*
X001510Y013418D01*
X001582Y013591D01*
X001714Y013723D01*
X001887Y013795D01*
X002713Y013795D01*
X002886Y013723D01*
X003018Y013591D01*
X003090Y013418D01*
X003090Y013232D01*
X003018Y013059D01*
X002886Y012927D01*
X002713Y012855D01*
X001887Y012855D01*
X001707Y012933D02*
X000700Y012933D01*
X000700Y012835D02*
X020510Y012835D01*
X020510Y012832D02*
X020582Y012659D01*
X020714Y012527D01*
X020887Y012455D01*
X021713Y012455D01*
X021886Y012527D01*
X022018Y012659D01*
X022090Y012832D01*
X022090Y013018D01*
X022018Y013191D01*
X021886Y013323D01*
X021713Y013395D01*
X020887Y013395D01*
X020714Y013323D01*
X020582Y013191D01*
X020510Y013018D01*
X020510Y012832D01*
X020510Y012933D02*
X002893Y012933D01*
X002991Y013032D02*
X020515Y013032D01*
X020556Y013130D02*
X003048Y013130D01*
X003089Y013229D02*
X020619Y013229D01*
X020722Y013327D02*
X003090Y013327D01*
X003087Y013426D02*
X031518Y013426D01*
X031616Y013524D02*
X021880Y013524D01*
X021886Y013527D02*
X022018Y013659D01*
X022090Y013832D01*
X022090Y014018D01*
X022018Y014191D01*
X021886Y014323D01*
X021713Y014395D01*
X020887Y014395D01*
X020714Y014323D01*
X020582Y014191D01*
X020510Y014018D01*
X020510Y013832D01*
X020582Y013659D01*
X020714Y013527D01*
X020887Y013455D01*
X021713Y013455D01*
X021886Y013527D01*
X021982Y013623D02*
X031715Y013623D01*
X031813Y013721D02*
X022044Y013721D01*
X022085Y013820D02*
X031912Y013820D01*
X032000Y013625D02*
X031300Y012925D01*
X031300Y012825D01*
X030823Y013032D02*
X030778Y013032D01*
X030721Y013130D02*
X030870Y013130D01*
X030968Y013229D02*
X030629Y013229D01*
X030438Y013327D02*
X031153Y013327D01*
X030350Y013327D02*
X030250Y013327D01*
X030162Y013327D02*
X029447Y013327D01*
X029632Y013229D02*
X029971Y013229D01*
X029879Y013130D02*
X029730Y013130D01*
X029777Y013032D02*
X029822Y013032D01*
X030250Y013032D02*
X030350Y013032D01*
X030350Y013130D02*
X030250Y013130D01*
X030250Y013229D02*
X030350Y013229D01*
X030350Y012933D02*
X030250Y012933D01*
X030250Y012736D02*
X030350Y012736D01*
X030350Y012638D02*
X030250Y012638D01*
X030250Y012539D02*
X030350Y012539D01*
X030350Y012441D02*
X030250Y012441D01*
X030250Y012342D02*
X030350Y012342D01*
X030496Y012342D02*
X031107Y012342D01*
X030949Y012441D02*
X030651Y012441D01*
X030735Y012539D02*
X030856Y012539D01*
X030815Y012638D02*
X030786Y012638D01*
X030104Y012342D02*
X029493Y012342D01*
X029651Y012441D02*
X029949Y012441D01*
X029865Y012539D02*
X029744Y012539D01*
X029785Y012638D02*
X029814Y012638D01*
X028856Y012539D02*
X021899Y012539D01*
X021997Y012638D02*
X028815Y012638D01*
X028780Y012736D02*
X022050Y012736D01*
X022090Y012835D02*
X028780Y012835D01*
X028782Y012933D02*
X022090Y012933D01*
X022085Y013032D02*
X028823Y013032D01*
X028870Y013130D02*
X022044Y013130D01*
X021981Y013229D02*
X028968Y013229D01*
X029153Y013327D02*
X021878Y013327D01*
X020720Y013524D02*
X003046Y013524D01*
X002987Y013623D02*
X020618Y013623D01*
X020556Y013721D02*
X002889Y013721D01*
X002866Y013918D02*
X020510Y013918D01*
X020510Y014017D02*
X002976Y014017D01*
X003018Y014059D02*
X003090Y014232D01*
X003090Y014418D01*
X003018Y014591D01*
X002886Y014723D01*
X002713Y014795D01*
X001887Y014795D01*
X001714Y014723D01*
X001582Y014591D01*
X001510Y014418D01*
X001510Y014232D01*
X001582Y014059D01*
X001714Y013927D01*
X001887Y013855D01*
X002713Y013855D01*
X002886Y013927D01*
X003018Y014059D01*
X003042Y014115D02*
X020550Y014115D01*
X020604Y014214D02*
X003083Y014214D01*
X003090Y014312D02*
X020702Y014312D01*
X020756Y014509D02*
X003052Y014509D01*
X003090Y014411D02*
X032703Y014411D01*
X032801Y014509D02*
X021844Y014509D01*
X021886Y014527D02*
X022018Y014659D01*
X022090Y014832D01*
X022090Y015018D01*
X022018Y015191D01*
X021886Y015323D01*
X021713Y015395D01*
X020887Y015395D01*
X020714Y015323D01*
X020582Y015191D01*
X020510Y015018D01*
X020510Y014832D01*
X020582Y014659D01*
X020714Y014527D01*
X020887Y014455D01*
X021713Y014455D01*
X021886Y014527D01*
X021967Y014608D02*
X032900Y014608D01*
X032998Y014706D02*
X022038Y014706D01*
X022079Y014805D02*
X033097Y014805D01*
X033195Y014903D02*
X022090Y014903D01*
X022090Y015002D02*
X033294Y015002D01*
X033392Y015100D02*
X022056Y015100D01*
X022011Y015199D02*
X033491Y015199D01*
X033589Y015297D02*
X021913Y015297D01*
X021808Y015494D02*
X024023Y015494D01*
X024121Y015396D02*
X000700Y015396D01*
X000700Y015494D02*
X020792Y015494D01*
X020714Y015527D02*
X020887Y015455D01*
X021713Y015455D01*
X021886Y015527D01*
X022018Y015659D01*
X022090Y015832D01*
X022090Y016018D01*
X022018Y016191D01*
X021886Y016323D01*
X021713Y016395D01*
X020887Y016395D01*
X020714Y016323D01*
X020582Y016191D01*
X020510Y016018D01*
X020510Y015832D01*
X020582Y015659D01*
X020714Y015527D01*
X020648Y015593D02*
X000700Y015593D01*
X000700Y015691D02*
X020568Y015691D01*
X020527Y015790D02*
X000700Y015790D01*
X000700Y015888D02*
X020510Y015888D01*
X020510Y015987D02*
X000700Y015987D01*
X000700Y016085D02*
X020538Y016085D01*
X020578Y016184D02*
X000700Y016184D01*
X000700Y016282D02*
X020672Y016282D01*
X020852Y016381D02*
X000700Y016381D01*
X000700Y016479D02*
X020832Y016479D01*
X020800Y016489D02*
X020870Y016467D01*
X020943Y016455D01*
X021250Y016455D01*
X021250Y016875D01*
X021350Y016875D01*
X021350Y016975D01*
X021250Y016975D01*
X021250Y017395D01*
X020943Y017395D01*
X020870Y017383D01*
X020800Y017361D01*
X020734Y017327D01*
X020674Y017283D01*
X020622Y017231D01*
X020578Y017171D01*
X020544Y017105D01*
X020522Y017035D01*
X020512Y016975D01*
X021250Y016975D01*
X021250Y016875D01*
X020512Y016875D01*
X020522Y016815D01*
X020544Y016745D01*
X020578Y016679D01*
X020622Y016619D01*
X020674Y016567D01*
X020734Y016523D01*
X020800Y016489D01*
X020663Y016578D02*
X000700Y016578D01*
X000700Y016676D02*
X020580Y016676D01*
X020535Y016775D02*
X000700Y016775D01*
X000700Y016873D02*
X020512Y016873D01*
X020533Y017070D02*
X000700Y017070D01*
X000700Y016972D02*
X021250Y016972D01*
X021250Y017070D02*
X021350Y017070D01*
X021350Y016975D02*
X021350Y017395D01*
X021657Y017395D01*
X021730Y017383D01*
X021800Y017361D01*
X021866Y017327D01*
X021926Y017283D01*
X021978Y017231D01*
X022022Y017171D01*
X022056Y017105D01*
X022078Y017035D01*
X022088Y016975D01*
X021350Y016975D01*
X021350Y016972D02*
X022460Y016972D01*
X022486Y017035D02*
X022430Y016899D01*
X022430Y016751D01*
X022486Y016615D01*
X022590Y016511D01*
X022726Y016455D01*
X022874Y016455D01*
X022883Y016459D01*
X023100Y016242D01*
X023120Y016222D01*
X023120Y016147D01*
X023372Y015895D01*
X023728Y015895D01*
X023980Y016147D01*
X023980Y016503D01*
X023728Y016755D01*
X023372Y016755D01*
X023262Y016645D01*
X023166Y016742D01*
X023170Y016751D01*
X023170Y016899D01*
X023114Y017035D01*
X023010Y017139D01*
X022874Y017195D01*
X022726Y017195D01*
X022590Y017139D01*
X022486Y017035D01*
X022522Y017070D02*
X022067Y017070D01*
X022023Y017169D02*
X022663Y017169D01*
X022937Y017169D02*
X023574Y017169D01*
X023475Y017267D02*
X021943Y017267D01*
X021785Y017366D02*
X023377Y017366D01*
X023283Y017459D02*
X023870Y016872D01*
X023870Y016647D01*
X024122Y016395D01*
X024478Y016395D01*
X024730Y016647D01*
X024730Y016672D01*
X024800Y016742D01*
X026417Y018359D01*
X026426Y018355D01*
X026574Y018355D01*
X026710Y018411D01*
X026814Y018515D01*
X026870Y018651D01*
X026870Y018799D01*
X026814Y018935D01*
X026710Y019039D01*
X026574Y019095D01*
X026426Y019095D01*
X026290Y019039D01*
X026186Y018935D01*
X026130Y018799D01*
X026130Y018651D01*
X026134Y018642D01*
X024613Y017120D01*
X024478Y017255D01*
X024122Y017255D01*
X024087Y017220D01*
X023566Y017742D01*
X023570Y017751D01*
X023570Y017899D01*
X023514Y018035D01*
X023410Y018139D01*
X023274Y018195D01*
X023126Y018195D01*
X022990Y018139D01*
X022886Y018035D01*
X022830Y017899D01*
X022830Y017751D01*
X022886Y017615D01*
X022990Y017511D01*
X023126Y017455D01*
X023274Y017455D01*
X023283Y017459D01*
X023105Y017464D02*
X021735Y017464D01*
X021713Y017455D02*
X021886Y017527D01*
X022018Y017659D01*
X022090Y017832D01*
X022090Y018018D01*
X022018Y018191D01*
X021886Y018323D01*
X021713Y018395D01*
X020887Y018395D01*
X020714Y018323D01*
X020582Y018191D01*
X020510Y018018D01*
X020510Y017832D01*
X020582Y017659D01*
X020714Y017527D01*
X020887Y017455D01*
X021713Y017455D01*
X021922Y017563D02*
X022939Y017563D01*
X022867Y017661D02*
X022019Y017661D01*
X022060Y017760D02*
X022830Y017760D01*
X022830Y017858D02*
X022090Y017858D01*
X022090Y017957D02*
X022854Y017957D01*
X022907Y018055D02*
X022075Y018055D01*
X022034Y018154D02*
X023026Y018154D01*
X023374Y018154D02*
X025646Y018154D01*
X025744Y018252D02*
X021958Y018252D01*
X021821Y018351D02*
X025843Y018351D01*
X025941Y018449D02*
X000700Y018449D01*
X000700Y018351D02*
X020779Y018351D01*
X020642Y018252D02*
X000700Y018252D01*
X000700Y018154D02*
X020566Y018154D01*
X020525Y018055D02*
X000700Y018055D01*
X000700Y017957D02*
X020510Y017957D01*
X020510Y017858D02*
X000700Y017858D01*
X000700Y017760D02*
X020540Y017760D01*
X020581Y017661D02*
X000700Y017661D01*
X000700Y017563D02*
X020678Y017563D01*
X020865Y017464D02*
X000700Y017464D01*
X000700Y017366D02*
X020815Y017366D01*
X020657Y017267D02*
X000700Y017267D01*
X000700Y017169D02*
X020577Y017169D01*
X021250Y017169D02*
X021350Y017169D01*
X021350Y017267D02*
X021250Y017267D01*
X021250Y017366D02*
X021350Y017366D01*
X021350Y016875D02*
X022088Y016875D01*
X022078Y016815D01*
X022056Y016745D01*
X022022Y016679D01*
X021978Y016619D01*
X021926Y016567D01*
X021866Y016523D01*
X021800Y016489D01*
X021730Y016467D01*
X021657Y016455D01*
X021350Y016455D01*
X021350Y016875D01*
X021350Y016873D02*
X021250Y016873D01*
X021250Y016775D02*
X021350Y016775D01*
X021350Y016676D02*
X021250Y016676D01*
X021250Y016578D02*
X021350Y016578D01*
X021350Y016479D02*
X021250Y016479D01*
X021748Y016381D02*
X022962Y016381D01*
X023060Y016282D02*
X021928Y016282D01*
X022022Y016184D02*
X023120Y016184D01*
X023182Y016085D02*
X022062Y016085D01*
X022090Y015987D02*
X023280Y015987D01*
X023820Y015987D02*
X023870Y015987D01*
X023870Y016003D02*
X023870Y015647D01*
X024122Y015395D01*
X024478Y015395D01*
X024730Y015647D01*
X024730Y016003D01*
X024478Y016255D01*
X024122Y016255D01*
X023870Y016003D01*
X023918Y016085D02*
X023952Y016085D01*
X023980Y016184D02*
X024050Y016184D01*
X023980Y016282D02*
X034574Y016282D01*
X034476Y016184D02*
X024550Y016184D01*
X024648Y016085D02*
X034377Y016085D01*
X034279Y015987D02*
X024730Y015987D01*
X024730Y015888D02*
X034180Y015888D01*
X034082Y015790D02*
X024730Y015790D01*
X024730Y015691D02*
X033983Y015691D01*
X033885Y015593D02*
X024676Y015593D01*
X024577Y015494D02*
X033786Y015494D01*
X033688Y015396D02*
X024479Y015396D01*
X023924Y015593D02*
X021952Y015593D01*
X022032Y015691D02*
X023870Y015691D01*
X023870Y015790D02*
X022073Y015790D01*
X022090Y015888D02*
X023870Y015888D01*
X023980Y016381D02*
X034673Y016381D01*
X034771Y016479D02*
X024562Y016479D01*
X024661Y016578D02*
X034870Y016578D01*
X034968Y016676D02*
X024734Y016676D01*
X024832Y016775D02*
X035067Y016775D01*
X035165Y016873D02*
X024931Y016873D01*
X025029Y016972D02*
X035264Y016972D01*
X035362Y017070D02*
X025128Y017070D01*
X025226Y017169D02*
X035461Y017169D01*
X035559Y017267D02*
X025325Y017267D01*
X025423Y017366D02*
X035658Y017366D01*
X035756Y017464D02*
X025522Y017464D01*
X025620Y017563D02*
X042780Y017563D01*
X042780Y017661D02*
X025719Y017661D01*
X025817Y017760D02*
X042782Y017760D01*
X043300Y017325D02*
X035900Y017325D01*
X032200Y013625D01*
X032000Y013625D01*
X032210Y013918D02*
X022090Y013918D01*
X022090Y014017D02*
X032309Y014017D01*
X032407Y014115D02*
X022050Y014115D01*
X021996Y014214D02*
X032506Y014214D01*
X032604Y014312D02*
X021898Y014312D01*
X020633Y014608D02*
X003002Y014608D01*
X002904Y014706D02*
X020562Y014706D01*
X020521Y014805D02*
X000700Y014805D01*
X000700Y014903D02*
X020510Y014903D01*
X020510Y015002D02*
X000700Y015002D01*
X000700Y015100D02*
X020544Y015100D01*
X020589Y015199D02*
X000700Y015199D01*
X000700Y015297D02*
X020687Y015297D01*
X021768Y016479D02*
X022668Y016479D01*
X022524Y016578D02*
X021937Y016578D01*
X022020Y016676D02*
X022461Y016676D01*
X022430Y016775D02*
X022065Y016775D01*
X022088Y016873D02*
X022430Y016873D01*
X022800Y016825D02*
X023300Y016325D01*
X023550Y016325D01*
X023807Y016676D02*
X023870Y016676D01*
X023870Y016775D02*
X023170Y016775D01*
X023170Y016873D02*
X023869Y016873D01*
X023771Y016972D02*
X023140Y016972D01*
X023078Y017070D02*
X023672Y017070D01*
X024041Y017267D02*
X024759Y017267D01*
X024661Y017169D02*
X024565Y017169D01*
X024858Y017366D02*
X023942Y017366D01*
X023844Y017464D02*
X024956Y017464D01*
X025055Y017563D02*
X023745Y017563D01*
X023647Y017661D02*
X025153Y017661D01*
X025252Y017760D02*
X023570Y017760D01*
X023570Y017858D02*
X025350Y017858D01*
X025449Y017957D02*
X023546Y017957D01*
X023493Y018055D02*
X025547Y018055D01*
X025916Y017858D02*
X034069Y017858D01*
X034005Y017884D02*
X034197Y017805D01*
X034403Y017805D01*
X034595Y017884D01*
X034741Y018030D01*
X034780Y018125D01*
X039383Y018125D01*
X040383Y019125D01*
X040500Y019242D01*
X040500Y019345D01*
X040595Y019384D01*
X040741Y019530D01*
X040820Y019722D01*
X040820Y019928D01*
X040741Y020120D01*
X040595Y020266D01*
X040403Y020345D01*
X040197Y020345D01*
X040005Y020266D01*
X039859Y020120D01*
X039800Y019977D01*
X039741Y020120D01*
X039595Y020266D01*
X039403Y020345D01*
X039197Y020345D01*
X039005Y020266D01*
X038859Y020120D01*
X038800Y019977D01*
X038741Y020120D01*
X038595Y020266D01*
X038403Y020345D01*
X038197Y020345D01*
X038005Y020266D01*
X037859Y020120D01*
X037800Y019977D01*
X037741Y020120D01*
X037595Y020266D01*
X037403Y020345D01*
X037197Y020345D01*
X037005Y020266D01*
X036859Y020120D01*
X036800Y019977D01*
X036741Y020120D01*
X036595Y020266D01*
X036403Y020345D01*
X036197Y020345D01*
X036005Y020266D01*
X035859Y020120D01*
X035800Y019977D01*
X035741Y020120D01*
X035595Y020266D01*
X035403Y020345D01*
X035197Y020345D01*
X035005Y020266D01*
X034859Y020120D01*
X034800Y019977D01*
X034741Y020120D01*
X034595Y020266D01*
X034403Y020345D01*
X034197Y020345D01*
X034005Y020266D01*
X033859Y020120D01*
X033800Y019977D01*
X033741Y020120D01*
X033595Y020266D01*
X033403Y020345D01*
X033197Y020345D01*
X033005Y020266D01*
X032859Y020120D01*
X032799Y019973D01*
X032782Y020025D01*
X032820Y020025D01*
X032782Y020025D02*
X032745Y020098D01*
X032697Y020164D01*
X032639Y020222D01*
X032573Y020270D01*
X032500Y020307D01*
X032422Y020332D01*
X032350Y020344D01*
X032350Y019875D01*
X032250Y019875D01*
X032250Y020344D01*
X032178Y020332D01*
X032100Y020307D01*
X032027Y020270D01*
X031961Y020222D01*
X031903Y020164D01*
X031855Y020098D01*
X031818Y020025D01*
X031780Y020025D01*
X031818Y020025D02*
X031801Y019973D01*
X031741Y020120D01*
X031595Y020266D01*
X031403Y020345D01*
X031197Y020345D01*
X031005Y020266D01*
X030859Y020120D01*
X030800Y019977D01*
X030741Y020120D01*
X030595Y020266D01*
X030403Y020345D01*
X030197Y020345D01*
X030005Y020266D01*
X029859Y020120D01*
X029800Y019977D01*
X029741Y020120D01*
X029595Y020266D01*
X029403Y020345D01*
X029197Y020345D01*
X029005Y020266D01*
X028859Y020120D01*
X028780Y019928D01*
X028780Y019722D01*
X028859Y019530D01*
X029005Y019384D01*
X029197Y019305D01*
X029403Y019305D01*
X029595Y019384D01*
X029741Y019530D01*
X029800Y019673D01*
X029859Y019530D01*
X030005Y019384D01*
X030197Y019305D01*
X030403Y019305D01*
X030595Y019384D01*
X030741Y019530D01*
X030800Y019673D01*
X030859Y019530D01*
X031005Y019384D01*
X031197Y019305D01*
X031403Y019305D01*
X031595Y019384D01*
X031741Y019530D01*
X031801Y019677D01*
X031818Y019625D01*
X031855Y019552D01*
X031903Y019486D01*
X031961Y019428D01*
X032027Y019380D01*
X032100Y019343D01*
X032178Y019318D01*
X032250Y019306D01*
X032250Y019775D01*
X032350Y019775D01*
X032350Y019306D01*
X032422Y019318D01*
X032500Y019343D01*
X032573Y019380D01*
X032639Y019428D01*
X032697Y019486D01*
X032745Y019552D01*
X032782Y019625D01*
X032799Y019677D01*
X032859Y019530D01*
X033005Y019384D01*
X033197Y019305D01*
X033403Y019305D01*
X033595Y019384D01*
X033741Y019530D01*
X033800Y019673D01*
X033859Y019530D01*
X034005Y019384D01*
X034197Y019305D01*
X034403Y019305D01*
X034595Y019384D01*
X034741Y019530D01*
X034800Y019673D01*
X034859Y019530D01*
X035005Y019384D01*
X035197Y019305D01*
X035403Y019305D01*
X035595Y019384D01*
X035741Y019530D01*
X035800Y019673D01*
X035859Y019530D01*
X036005Y019384D01*
X036197Y019305D01*
X036403Y019305D01*
X036595Y019384D01*
X036741Y019530D01*
X036800Y019673D01*
X036859Y019530D01*
X037005Y019384D01*
X037197Y019305D01*
X037403Y019305D01*
X037595Y019384D01*
X037741Y019530D01*
X037800Y019673D01*
X037859Y019530D01*
X038005Y019384D01*
X038197Y019305D01*
X038403Y019305D01*
X038595Y019384D01*
X038741Y019530D01*
X038800Y019673D01*
X038859Y019530D01*
X039005Y019384D01*
X039197Y019305D01*
X039403Y019305D01*
X039595Y019384D01*
X039741Y019530D01*
X039800Y019673D01*
X039859Y019530D01*
X040005Y019384D01*
X040056Y019363D01*
X039217Y018525D01*
X034780Y018525D01*
X034741Y018620D01*
X034595Y018766D01*
X034403Y018845D01*
X034197Y018845D01*
X034005Y018766D01*
X033859Y018620D01*
X033780Y018428D01*
X033780Y018222D01*
X033859Y018030D01*
X034005Y017884D01*
X033933Y017957D02*
X026014Y017957D01*
X026113Y018055D02*
X033849Y018055D01*
X033808Y018154D02*
X026211Y018154D01*
X026310Y018252D02*
X033780Y018252D01*
X033780Y018351D02*
X026408Y018351D01*
X026747Y018449D02*
X033789Y018449D01*
X033829Y018548D02*
X026827Y018548D01*
X026868Y018646D02*
X033886Y018646D01*
X033984Y018745D02*
X026870Y018745D01*
X026852Y018843D02*
X034192Y018843D01*
X034408Y018843D02*
X039535Y018843D01*
X039437Y018745D02*
X034616Y018745D01*
X034714Y018646D02*
X039338Y018646D01*
X039240Y018548D02*
X034771Y018548D01*
X034300Y018325D02*
X039300Y018325D01*
X040300Y019325D01*
X040300Y019825D01*
X039820Y020025D02*
X039780Y020025D01*
X039737Y020124D02*
X039863Y020124D01*
X039962Y020222D02*
X039638Y020222D01*
X039462Y020321D02*
X040138Y020321D01*
X040462Y020321D02*
X045400Y020321D01*
X045400Y020419D02*
X000700Y020419D01*
X000700Y020321D02*
X029138Y020321D01*
X028962Y020222D02*
X000700Y020222D01*
X000700Y020124D02*
X028863Y020124D01*
X028820Y020025D02*
X000700Y020025D01*
X000700Y019927D02*
X028780Y019927D01*
X028780Y019828D02*
X000700Y019828D01*
X000700Y019730D02*
X028780Y019730D01*
X028817Y019631D02*
X000700Y019631D01*
X000700Y019533D02*
X028858Y019533D01*
X028956Y019434D02*
X000700Y019434D01*
X000700Y019336D02*
X029123Y019336D01*
X029477Y019336D02*
X030123Y019336D01*
X029956Y019434D02*
X029644Y019434D01*
X029742Y019533D02*
X029858Y019533D01*
X029817Y019631D02*
X029783Y019631D01*
X029780Y020025D02*
X029820Y020025D01*
X029863Y020124D02*
X029737Y020124D01*
X029638Y020222D02*
X029962Y020222D01*
X030138Y020321D02*
X029462Y020321D01*
X030462Y020321D02*
X031138Y020321D01*
X030962Y020222D02*
X030638Y020222D01*
X030737Y020124D02*
X030863Y020124D01*
X030820Y020025D02*
X030780Y020025D01*
X030783Y019631D02*
X030817Y019631D01*
X030858Y019533D02*
X030742Y019533D01*
X030644Y019434D02*
X030956Y019434D01*
X031123Y019336D02*
X030477Y019336D01*
X031477Y019336D02*
X032124Y019336D01*
X032250Y019336D02*
X032350Y019336D01*
X032350Y019434D02*
X032250Y019434D01*
X032250Y019533D02*
X032350Y019533D01*
X032350Y019631D02*
X032250Y019631D01*
X032250Y019730D02*
X032350Y019730D01*
X032350Y019927D02*
X032250Y019927D01*
X032250Y020025D02*
X032350Y020025D01*
X032350Y020124D02*
X032250Y020124D01*
X032250Y020222D02*
X032350Y020222D01*
X032350Y020321D02*
X032250Y020321D01*
X032142Y020321D02*
X031462Y020321D01*
X031638Y020222D02*
X031962Y020222D01*
X031874Y020124D02*
X031737Y020124D01*
X032458Y020321D02*
X033138Y020321D01*
X032962Y020222D02*
X032638Y020222D01*
X032726Y020124D02*
X032863Y020124D01*
X033462Y020321D02*
X034138Y020321D01*
X033962Y020222D02*
X033638Y020222D01*
X033737Y020124D02*
X033863Y020124D01*
X033820Y020025D02*
X033780Y020025D01*
X033783Y019631D02*
X033817Y019631D01*
X033858Y019533D02*
X033742Y019533D01*
X033644Y019434D02*
X033956Y019434D01*
X034123Y019336D02*
X033477Y019336D01*
X033123Y019336D02*
X032476Y019336D01*
X032644Y019434D02*
X032956Y019434D01*
X032858Y019533D02*
X032730Y019533D01*
X032784Y019631D02*
X032817Y019631D01*
X031956Y019434D02*
X031644Y019434D01*
X031742Y019533D02*
X031870Y019533D01*
X031816Y019631D02*
X031783Y019631D01*
X034477Y019336D02*
X035123Y019336D01*
X034956Y019434D02*
X034644Y019434D01*
X034742Y019533D02*
X034858Y019533D01*
X034817Y019631D02*
X034783Y019631D01*
X034780Y020025D02*
X034820Y020025D01*
X034863Y020124D02*
X034737Y020124D01*
X034638Y020222D02*
X034962Y020222D01*
X035138Y020321D02*
X034462Y020321D01*
X035462Y020321D02*
X036138Y020321D01*
X035962Y020222D02*
X035638Y020222D01*
X035737Y020124D02*
X035863Y020124D01*
X035820Y020025D02*
X035780Y020025D01*
X035783Y019631D02*
X035817Y019631D01*
X035858Y019533D02*
X035742Y019533D01*
X035644Y019434D02*
X035956Y019434D01*
X036123Y019336D02*
X035477Y019336D01*
X036477Y019336D02*
X037123Y019336D01*
X036956Y019434D02*
X036644Y019434D01*
X036742Y019533D02*
X036858Y019533D01*
X036817Y019631D02*
X036783Y019631D01*
X037644Y019434D02*
X037956Y019434D01*
X037858Y019533D02*
X037742Y019533D01*
X037783Y019631D02*
X037817Y019631D01*
X037820Y020025D02*
X037780Y020025D01*
X037737Y020124D02*
X037863Y020124D01*
X037962Y020222D02*
X037638Y020222D01*
X037462Y020321D02*
X038138Y020321D01*
X038462Y020321D02*
X039138Y020321D01*
X038962Y020222D02*
X038638Y020222D01*
X038737Y020124D02*
X038863Y020124D01*
X038820Y020025D02*
X038780Y020025D01*
X038783Y019631D02*
X038817Y019631D01*
X038858Y019533D02*
X038742Y019533D01*
X038644Y019434D02*
X038956Y019434D01*
X039123Y019336D02*
X038477Y019336D01*
X038123Y019336D02*
X037477Y019336D01*
X036820Y020025D02*
X036780Y020025D01*
X036737Y020124D02*
X036863Y020124D01*
X036962Y020222D02*
X036638Y020222D01*
X036462Y020321D02*
X037138Y020321D01*
X039477Y019336D02*
X040028Y019336D01*
X039956Y019434D02*
X039644Y019434D01*
X039742Y019533D02*
X039858Y019533D01*
X039817Y019631D02*
X039783Y019631D01*
X039929Y019237D02*
X000700Y019237D01*
X000700Y019139D02*
X039831Y019139D01*
X039732Y019040D02*
X026706Y019040D01*
X026807Y018942D02*
X039634Y018942D01*
X040002Y018745D02*
X045400Y018745D01*
X045400Y018843D02*
X040101Y018843D01*
X040199Y018942D02*
X045400Y018942D01*
X045400Y019040D02*
X040298Y019040D01*
X040396Y019139D02*
X045400Y019139D01*
X045400Y019237D02*
X040495Y019237D01*
X040500Y019336D02*
X045400Y019336D01*
X045400Y019434D02*
X040644Y019434D01*
X040742Y019533D02*
X045400Y019533D01*
X045400Y019631D02*
X040783Y019631D01*
X040820Y019730D02*
X045400Y019730D01*
X045400Y019828D02*
X040820Y019828D01*
X040820Y019927D02*
X045400Y019927D01*
X045400Y020025D02*
X040780Y020025D01*
X040737Y020124D02*
X045400Y020124D01*
X045400Y020222D02*
X040638Y020222D01*
X039904Y018646D02*
X045400Y018646D01*
X045400Y018548D02*
X039805Y018548D01*
X039707Y018449D02*
X045400Y018449D01*
X045400Y018351D02*
X039608Y018351D01*
X039510Y018252D02*
X045400Y018252D01*
X045400Y018154D02*
X039411Y018154D01*
X042600Y016525D02*
X035400Y016525D01*
X032800Y013925D01*
X032800Y013425D01*
X032300Y012925D01*
X032300Y012825D01*
X032777Y013032D02*
X032823Y013032D01*
X032788Y013130D02*
X032870Y013130D01*
X032886Y013229D02*
X032968Y013229D01*
X032985Y013327D02*
X033153Y013327D01*
X033000Y013426D02*
X045400Y013426D01*
X045400Y013524D02*
X033000Y013524D01*
X033000Y013623D02*
X045400Y013623D01*
X045400Y013721D02*
X033000Y013721D01*
X033000Y013820D02*
X034173Y013820D01*
X034178Y013818D02*
X034259Y013805D01*
X034261Y013805D01*
X034261Y014286D01*
X033780Y014286D01*
X033780Y014284D01*
X033793Y014203D01*
X033818Y014125D01*
X033855Y014052D01*
X033903Y013986D01*
X033961Y013928D01*
X034027Y013880D01*
X034100Y013843D01*
X034178Y013818D01*
X034261Y013820D02*
X034339Y013820D01*
X034339Y013805D02*
X034341Y013805D01*
X034422Y013818D01*
X034500Y013843D01*
X034573Y013880D01*
X034639Y013928D01*
X034697Y013986D01*
X034745Y014052D01*
X034782Y014125D01*
X034807Y014203D01*
X034820Y014284D01*
X034820Y014286D01*
X034339Y014286D01*
X034339Y014364D01*
X034261Y014364D01*
X034261Y014845D01*
X034259Y014845D01*
X034178Y014832D01*
X034100Y014807D01*
X034027Y014770D01*
X033961Y014722D01*
X033903Y014664D01*
X033855Y014598D01*
X033818Y014525D01*
X033793Y014447D01*
X033780Y014366D01*
X033780Y014364D01*
X034261Y014364D01*
X034261Y014286D01*
X034339Y014286D01*
X034339Y013805D01*
X034427Y013820D02*
X043161Y013820D01*
X042972Y013918D02*
X034625Y013918D01*
X034719Y014017D02*
X042873Y014017D01*
X042824Y014115D02*
X034777Y014115D01*
X034809Y014214D02*
X042783Y014214D01*
X042780Y014312D02*
X034339Y014312D01*
X034339Y014364D02*
X034820Y014364D01*
X034820Y014366D01*
X034807Y014447D01*
X034782Y014525D01*
X034745Y014598D01*
X034697Y014664D01*
X034639Y014722D01*
X034573Y014770D01*
X034500Y014807D01*
X034422Y014832D01*
X034341Y014845D01*
X034339Y014845D01*
X034339Y014364D01*
X034339Y014411D02*
X034261Y014411D01*
X034261Y014509D02*
X034339Y014509D01*
X034339Y014608D02*
X034261Y014608D01*
X034261Y014706D02*
X034339Y014706D01*
X034339Y014805D02*
X034261Y014805D01*
X034096Y014805D02*
X033962Y014805D01*
X033946Y014706D02*
X033864Y014706D01*
X033863Y014608D02*
X033765Y014608D01*
X033813Y014509D02*
X033667Y014509D01*
X033568Y014411D02*
X033787Y014411D01*
X033791Y014214D02*
X033371Y014214D01*
X033470Y014312D02*
X034261Y014312D01*
X034261Y014214D02*
X034339Y014214D01*
X034339Y014115D02*
X034261Y014115D01*
X034261Y014017D02*
X034339Y014017D01*
X034339Y013918D02*
X034261Y013918D01*
X033975Y013918D02*
X033076Y013918D01*
X033174Y014017D02*
X033881Y014017D01*
X033823Y014115D02*
X033273Y014115D01*
X034061Y014903D02*
X042996Y014903D01*
X043099Y014805D02*
X034504Y014805D01*
X034654Y014706D02*
X042946Y014706D01*
X042854Y014608D02*
X034737Y014608D01*
X034787Y014509D02*
X042813Y014509D01*
X042780Y014411D02*
X034813Y014411D01*
X034159Y015002D02*
X042892Y015002D01*
X042831Y015100D02*
X034258Y015100D01*
X034356Y015199D02*
X042794Y015199D01*
X042785Y015396D02*
X034553Y015396D01*
X034652Y015494D02*
X042808Y015494D01*
X042853Y015593D02*
X034750Y015593D01*
X034849Y015691D02*
X042931Y015691D01*
X043066Y015790D02*
X034947Y015790D01*
X035046Y015888D02*
X043002Y015888D01*
X042903Y015987D02*
X035144Y015987D01*
X035243Y016085D02*
X042837Y016085D01*
X042659Y016184D02*
X035341Y016184D01*
X035440Y016282D02*
X042560Y016282D01*
X042800Y016325D02*
X042600Y016525D01*
X042800Y016325D02*
X043300Y016325D01*
X043684Y016676D02*
X045400Y016676D01*
X045400Y016578D02*
X043758Y016578D01*
X043799Y016479D02*
X045400Y016479D01*
X045400Y016381D02*
X043820Y016381D01*
X043820Y016282D02*
X045400Y016282D01*
X045400Y016184D02*
X043804Y016184D01*
X043763Y016085D02*
X045400Y016085D01*
X045400Y015987D02*
X043697Y015987D01*
X043598Y015888D02*
X045400Y015888D01*
X045400Y015790D02*
X043534Y015790D01*
X043669Y015691D02*
X045400Y015691D01*
X045400Y015593D02*
X043747Y015593D01*
X043792Y015494D02*
X045400Y015494D01*
X045400Y015396D02*
X043815Y015396D01*
X043806Y015199D02*
X045400Y015199D01*
X045400Y015297D02*
X043350Y015297D01*
X043250Y015297D02*
X034455Y015297D01*
X034447Y013327D02*
X035153Y013327D01*
X034968Y013229D02*
X034632Y013229D01*
X034730Y013130D02*
X034870Y013130D01*
X034823Y013032D02*
X034777Y013032D01*
X034153Y013327D02*
X033447Y013327D01*
X033632Y013229D02*
X033968Y013229D01*
X033870Y013130D02*
X033730Y013130D01*
X033777Y013032D02*
X033823Y013032D01*
X033815Y012638D02*
X033785Y012638D01*
X033744Y012539D02*
X033856Y012539D01*
X033949Y012441D02*
X033651Y012441D01*
X033493Y012342D02*
X034107Y012342D01*
X034493Y012342D02*
X035107Y012342D01*
X034949Y012441D02*
X034651Y012441D01*
X034744Y012539D02*
X034856Y012539D01*
X034815Y012638D02*
X034785Y012638D01*
X035493Y012342D02*
X036107Y012342D01*
X035949Y012441D02*
X035651Y012441D01*
X035744Y012539D02*
X035856Y012539D01*
X035815Y012638D02*
X035785Y012638D01*
X035777Y013032D02*
X035823Y013032D01*
X035870Y013130D02*
X035730Y013130D01*
X035632Y013229D02*
X035968Y013229D01*
X036153Y013327D02*
X035447Y013327D01*
X036447Y013327D02*
X037153Y013327D01*
X036968Y013229D02*
X036632Y013229D01*
X036730Y013130D02*
X036870Y013130D01*
X036823Y013032D02*
X036777Y013032D01*
X037447Y013327D02*
X038153Y013327D01*
X037968Y013229D02*
X037632Y013229D01*
X037730Y013130D02*
X037870Y013130D01*
X037823Y013032D02*
X037777Y013032D01*
X038447Y013327D02*
X039153Y013327D01*
X038968Y013229D02*
X038632Y013229D01*
X038730Y013130D02*
X038870Y013130D01*
X038823Y013032D02*
X038777Y013032D01*
X039447Y013327D02*
X040153Y013327D01*
X039968Y013229D02*
X039632Y013229D01*
X039730Y013130D02*
X039870Y013130D01*
X039823Y013032D02*
X039777Y013032D01*
X039785Y012638D02*
X039815Y012638D01*
X039856Y012539D02*
X039744Y012539D01*
X039651Y012441D02*
X039949Y012441D01*
X040107Y012342D02*
X039493Y012342D01*
X039107Y012342D02*
X038493Y012342D01*
X038651Y012441D02*
X038949Y012441D01*
X038856Y012539D02*
X038744Y012539D01*
X038785Y012638D02*
X038815Y012638D01*
X038107Y012342D02*
X037493Y012342D01*
X037651Y012441D02*
X037949Y012441D01*
X037856Y012539D02*
X037744Y012539D01*
X037785Y012638D02*
X037815Y012638D01*
X037107Y012342D02*
X036493Y012342D01*
X036651Y012441D02*
X036949Y012441D01*
X036856Y012539D02*
X036744Y012539D01*
X036785Y012638D02*
X036815Y012638D01*
X040493Y012342D02*
X045400Y012342D01*
X045400Y012441D02*
X040651Y012441D01*
X040744Y012539D02*
X045400Y012539D01*
X045400Y012638D02*
X040785Y012638D01*
X040820Y012736D02*
X045400Y012736D01*
X045400Y012835D02*
X040820Y012835D01*
X040818Y012933D02*
X045400Y012933D01*
X045400Y013032D02*
X040777Y013032D01*
X040730Y013130D02*
X045400Y013130D01*
X045400Y013229D02*
X040632Y013229D01*
X040447Y013327D02*
X045400Y013327D01*
X045400Y013820D02*
X043439Y013820D01*
X043628Y013918D02*
X045400Y013918D01*
X045400Y014017D02*
X043727Y014017D01*
X043776Y014115D02*
X045400Y014115D01*
X045400Y014214D02*
X043817Y014214D01*
X043820Y014312D02*
X045400Y014312D01*
X045400Y014411D02*
X043820Y014411D01*
X043787Y014509D02*
X045400Y014509D01*
X045400Y014608D02*
X043746Y014608D01*
X043654Y014706D02*
X045400Y014706D01*
X045400Y014805D02*
X043501Y014805D01*
X043604Y014903D02*
X045400Y014903D01*
X045400Y015002D02*
X043708Y015002D01*
X043769Y015100D02*
X045400Y015100D01*
X045400Y016775D02*
X043574Y016775D01*
X043800Y016873D02*
X045400Y016873D01*
X045400Y016972D02*
X043820Y016972D01*
X043820Y017070D02*
X045400Y017070D01*
X045400Y017169D02*
X043820Y017169D01*
X043820Y017267D02*
X045400Y017267D01*
X045400Y017366D02*
X043820Y017366D01*
X043820Y017464D02*
X045400Y017464D01*
X045400Y017563D02*
X043820Y017563D01*
X043820Y017661D02*
X045400Y017661D01*
X045400Y017760D02*
X043818Y017760D01*
X045400Y017858D02*
X034531Y017858D01*
X034667Y017957D02*
X045400Y017957D01*
X045400Y018055D02*
X034751Y018055D01*
X026500Y018725D02*
X024600Y016825D01*
X024300Y016825D01*
X024200Y016825D01*
X023200Y017825D01*
X023232Y016676D02*
X023293Y016676D01*
X023906Y016578D02*
X023939Y016578D01*
X023980Y016479D02*
X024038Y016479D01*
X026040Y018548D02*
X000700Y018548D01*
X000700Y018646D02*
X026132Y018646D01*
X026130Y018745D02*
X000700Y018745D01*
X000700Y018843D02*
X026148Y018843D01*
X026193Y018942D02*
X000700Y018942D01*
X000700Y019040D02*
X026294Y019040D01*
X020515Y013820D02*
X000700Y013820D01*
X000700Y013918D02*
X001734Y013918D01*
X001624Y014017D02*
X000700Y014017D01*
X000700Y014115D02*
X001558Y014115D01*
X001517Y014214D02*
X000700Y014214D01*
X000700Y014312D02*
X001510Y014312D01*
X001510Y014411D02*
X000700Y014411D01*
X000700Y014509D02*
X001548Y014509D01*
X001598Y014608D02*
X000700Y014608D01*
X000700Y014706D02*
X001696Y014706D01*
X001711Y013721D02*
X000700Y013721D01*
X000700Y013623D02*
X001613Y013623D01*
X001554Y013524D02*
X000700Y013524D01*
X000700Y013426D02*
X001513Y013426D01*
X001510Y013327D02*
X000700Y013327D01*
X000700Y013229D02*
X001511Y013229D01*
X001552Y013130D02*
X000700Y013130D01*
X000700Y013032D02*
X001609Y013032D01*
X002856Y012736D02*
X020550Y012736D01*
X020603Y012638D02*
X002972Y012638D01*
X003040Y012539D02*
X020701Y012539D01*
X020543Y011751D02*
X002819Y011751D01*
X002800Y011761D02*
X002730Y011783D01*
X002657Y011795D01*
X002350Y011795D01*
X002350Y011375D01*
X003088Y011375D01*
X003078Y011435D01*
X003056Y011505D01*
X003022Y011571D01*
X002978Y011631D01*
X002926Y011683D01*
X002866Y011727D01*
X002800Y011761D01*
X002957Y011653D02*
X020588Y011653D01*
X020686Y011554D02*
X003031Y011554D01*
X003072Y011456D02*
X020885Y011456D01*
X020795Y011357D02*
X002350Y011357D01*
X002350Y011456D02*
X002250Y011456D01*
X002250Y011554D02*
X002350Y011554D01*
X002350Y011653D02*
X002250Y011653D01*
X002250Y011751D02*
X002350Y011751D01*
X001781Y011751D02*
X000700Y011751D01*
X000700Y011653D02*
X001643Y011653D01*
X001569Y011554D02*
X000700Y011554D01*
X000700Y011456D02*
X001528Y011456D01*
X002717Y010865D02*
X020510Y010865D01*
X020510Y010963D02*
X002921Y010963D01*
X003010Y011062D02*
X020528Y011062D01*
X020569Y011160D02*
X003061Y011160D01*
X003085Y011259D02*
X020649Y011259D01*
X020537Y010766D02*
X002784Y010766D01*
X002942Y010668D02*
X020578Y010668D01*
X020671Y010569D02*
X003023Y010569D01*
X003067Y010471D02*
X020849Y010471D01*
X021751Y010471D02*
X026450Y010471D01*
X026452Y010569D02*
X021929Y010569D01*
X022022Y010668D02*
X026492Y010668D01*
X026533Y010766D02*
X022063Y010766D01*
X022090Y010865D02*
X026574Y010865D01*
X026665Y010963D02*
X022090Y010963D01*
X022072Y011062D02*
X026764Y011062D01*
X026924Y011160D02*
X022031Y011160D01*
X020673Y009683D02*
X002927Y009683D01*
X003021Y009584D02*
X020579Y009584D01*
X020538Y009486D02*
X003062Y009486D01*
X003090Y009387D02*
X020510Y009387D01*
X020510Y009289D02*
X003090Y009289D01*
X003073Y009190D02*
X020527Y009190D01*
X020568Y009092D02*
X003032Y009092D01*
X002953Y008993D02*
X020647Y008993D01*
X020791Y008895D02*
X002809Y008895D01*
X001830Y009880D02*
X000700Y009880D01*
X000700Y009978D02*
X001662Y009978D01*
X001580Y010077D02*
X000700Y010077D01*
X000700Y010175D02*
X001535Y010175D01*
X000700Y008698D02*
X020688Y008698D01*
X020589Y008599D02*
X000700Y008599D01*
X000700Y008501D02*
X020544Y008501D01*
X020510Y008402D02*
X000700Y008402D01*
X000700Y008304D02*
X020510Y008304D01*
X020521Y008205D02*
X000700Y008205D01*
X000700Y008107D02*
X020562Y008107D01*
X020632Y008008D02*
X000700Y008008D01*
X000700Y007910D02*
X020755Y007910D01*
X020703Y007713D02*
X002897Y007713D01*
X002996Y007614D02*
X020604Y007614D01*
X020550Y007516D02*
X003050Y007516D01*
X003090Y007417D02*
X020510Y007417D01*
X020510Y007319D02*
X003090Y007319D01*
X003085Y007220D02*
X020515Y007220D01*
X020556Y007122D02*
X003044Y007122D01*
X002983Y007023D02*
X020617Y007023D01*
X020719Y006925D02*
X002881Y006925D01*
X002876Y006728D02*
X020724Y006728D01*
X020619Y006629D02*
X002981Y006629D01*
X003018Y006591D02*
X002886Y006723D01*
X002713Y006795D01*
X001887Y006795D01*
X001714Y006723D01*
X001582Y006591D01*
X001510Y006418D01*
X001510Y006232D01*
X001582Y006059D01*
X001714Y005927D01*
X001887Y005855D01*
X002713Y005855D01*
X002886Y005927D01*
X003018Y006059D01*
X003090Y006232D01*
X003090Y006418D01*
X003018Y006591D01*
X003044Y006531D02*
X020556Y006531D01*
X020516Y006432D02*
X003084Y006432D01*
X003090Y006334D02*
X020510Y006334D01*
X020510Y006235D02*
X003090Y006235D01*
X003051Y006137D02*
X020549Y006137D01*
X020602Y006038D02*
X002998Y006038D01*
X002899Y005940D02*
X020701Y005940D01*
X020760Y005743D02*
X002840Y005743D01*
X002966Y005644D02*
X020634Y005644D01*
X020563Y005546D02*
X003037Y005546D01*
X003078Y005447D02*
X020522Y005447D01*
X020510Y005349D02*
X003090Y005349D01*
X003090Y005250D02*
X020510Y005250D01*
X020543Y005152D02*
X003057Y005152D01*
X003013Y005053D02*
X020587Y005053D01*
X020686Y004955D02*
X002914Y004955D01*
X002716Y004856D02*
X020884Y004856D01*
X020796Y004758D02*
X002804Y004758D01*
X002951Y004659D02*
X020649Y004659D01*
X020569Y004561D02*
X003031Y004561D01*
X003072Y004462D02*
X020528Y004462D01*
X020510Y004364D02*
X003090Y004364D01*
X003090Y004265D02*
X020510Y004265D01*
X020537Y004167D02*
X003063Y004167D01*
X003022Y004068D02*
X020578Y004068D01*
X020671Y003970D02*
X002929Y003970D01*
X002752Y003871D02*
X020848Y003871D01*
X020832Y003773D02*
X002768Y003773D01*
X002936Y003674D02*
X020664Y003674D01*
X020575Y003576D02*
X003025Y003576D01*
X003066Y003477D02*
X020534Y003477D01*
X020510Y003379D02*
X003090Y003379D01*
X003090Y003280D02*
X020510Y003280D01*
X020531Y003182D02*
X003069Y003182D01*
X003028Y003083D02*
X020572Y003083D01*
X020656Y002985D02*
X002944Y002985D01*
X002788Y002886D02*
X020812Y002886D01*
X020868Y002788D02*
X002732Y002788D01*
X002921Y002689D02*
X020679Y002689D01*
X020581Y002591D02*
X003019Y002591D01*
X003060Y002492D02*
X020540Y002492D01*
X020510Y002394D02*
X003090Y002394D01*
X003090Y002295D02*
X020510Y002295D01*
X020524Y002197D02*
X003075Y002197D01*
X003035Y002098D02*
X020565Y002098D01*
X020641Y002000D02*
X002959Y002000D01*
X002825Y001901D02*
X020775Y001901D01*
X001701Y005940D02*
X000700Y005940D01*
X000700Y006038D02*
X001602Y006038D01*
X001549Y006137D02*
X000700Y006137D01*
X000700Y006235D02*
X001510Y006235D01*
X001510Y006334D02*
X000700Y006334D01*
X000700Y006432D02*
X001516Y006432D01*
X001556Y006531D02*
X000700Y006531D01*
X000700Y006629D02*
X001619Y006629D01*
X000700Y020518D02*
X045400Y020518D01*
X045400Y020616D02*
X000700Y020616D01*
X000700Y020715D02*
X045400Y020715D01*
X045400Y020813D02*
X000700Y020813D01*
X000700Y020912D02*
X045400Y020912D01*
X045400Y021010D02*
X000700Y021010D01*
X000700Y021109D02*
X045400Y021109D01*
X045400Y021207D02*
X000700Y021207D01*
X000700Y021306D02*
X045400Y021306D01*
X045400Y021404D02*
X000700Y021404D01*
X031493Y012342D02*
X032107Y012342D01*
X031949Y012441D02*
X031651Y012441D01*
X031744Y012539D02*
X031856Y012539D01*
X031815Y012638D02*
X031785Y012638D01*
X032493Y012342D02*
X033107Y012342D01*
X032949Y012441D02*
X032651Y012441D01*
X032744Y012539D02*
X032856Y012539D01*
X032815Y012638D02*
X032785Y012638D01*
D12*
X021620Y012925D02*
X020980Y012925D01*
X020980Y011925D02*
X021620Y011925D01*
X021620Y010925D02*
X020980Y010925D01*
X020980Y009325D02*
X021620Y009325D01*
X021620Y008325D02*
X020980Y008325D01*
X020980Y007325D02*
X021620Y007325D01*
X021620Y006325D02*
X020980Y006325D01*
X020980Y005325D02*
X021620Y005325D01*
X021620Y004325D02*
X020980Y004325D01*
X020980Y003325D02*
X021620Y003325D01*
X021620Y002325D02*
X020980Y002325D01*
X002620Y002325D02*
X001980Y002325D01*
X001980Y003325D02*
X002620Y003325D01*
X002620Y004325D02*
X001980Y004325D01*
X001980Y005325D02*
X002620Y005325D01*
X002620Y006325D02*
X001980Y006325D01*
X001980Y007325D02*
X002620Y007325D01*
X002620Y009325D02*
X001980Y009325D01*
X001980Y010325D02*
X002620Y010325D01*
X002620Y011325D02*
X001980Y011325D01*
X001980Y012325D02*
X002620Y012325D01*
X002620Y013325D02*
X001980Y013325D01*
X001980Y014325D02*
X002620Y014325D01*
X020980Y013925D02*
X021620Y013925D01*
X021620Y014925D02*
X020980Y014925D01*
X020980Y015925D02*
X021620Y015925D01*
X021620Y016925D02*
X020980Y016925D01*
X020980Y017925D02*
X021620Y017925D01*
D13*
X029300Y019825D03*
X030300Y019825D03*
X031300Y019825D03*
X032300Y019825D03*
X033300Y019825D03*
X034300Y019825D03*
X035300Y019825D03*
X036300Y019825D03*
X037300Y019825D03*
X038300Y019825D03*
X039300Y019825D03*
X040300Y019825D03*
X034300Y018325D03*
X034300Y014325D03*
X034300Y012825D03*
X033300Y012825D03*
X032300Y012825D03*
X031300Y012825D03*
X030300Y012825D03*
X029300Y012825D03*
X035300Y012825D03*
X036300Y012825D03*
X037300Y012825D03*
X038300Y012825D03*
X039300Y012825D03*
X040300Y012825D03*
X043300Y014325D03*
X043300Y015325D03*
X043300Y016325D03*
D14*
X043300Y017325D03*
D15*
X024300Y016825D03*
X023550Y016325D03*
X024300Y015825D03*
D16*
X022800Y016825D03*
X023200Y017825D03*
X026500Y018725D03*
M02*
