G75*
%MOIN*%
%OFA0B0*%
%FSLAX25Y25*%
%IPPOS*%
%LPD*%
%AMOC8*
5,1,8,0,0,1.08239X$1,22.5*
%
%ADD10C,0.00500*%
%ADD11C,0.00800*%
%ADD12C,0.00100*%
%ADD13C,0.00600*%
D10*
X0042939Y0080340D02*
X0042939Y0088214D01*
X0042839Y0088454D01*
X0042734Y0088692D01*
X0042622Y0088928D01*
X0042505Y0089160D01*
X0042383Y0089389D01*
X0042255Y0089616D01*
X0042121Y0089839D01*
X0041982Y0090059D01*
X0041837Y0090275D01*
X0041687Y0090488D01*
X0041532Y0090697D01*
X0041372Y0090902D01*
X0041207Y0091103D01*
X0041037Y0091300D01*
X0040862Y0091493D01*
X0040683Y0091681D01*
X0040499Y0091865D01*
X0040311Y0092044D01*
X0040118Y0092219D01*
X0039921Y0092389D01*
X0039720Y0092554D01*
X0039514Y0092714D01*
X0039306Y0092869D01*
X0039093Y0093019D01*
X0038876Y0093163D01*
X0038657Y0093303D01*
X0038433Y0093436D01*
X0038207Y0093565D01*
X0037978Y0093687D01*
X0037745Y0093804D01*
X0037510Y0093915D01*
X0037272Y0094021D01*
X0037032Y0094120D01*
X0036789Y0094214D01*
X0036544Y0094302D01*
X0036297Y0094383D01*
X0036048Y0094459D01*
X0035797Y0094528D01*
X0035545Y0094591D01*
X0035291Y0094648D01*
X0035036Y0094699D01*
X0034780Y0094743D01*
X0034522Y0094782D01*
X0034264Y0094813D01*
X0034005Y0094839D01*
X0033746Y0094858D01*
X0033486Y0094871D01*
X0033226Y0094877D01*
X0032965Y0094877D01*
X0032705Y0094871D01*
X0032445Y0094858D01*
X0032186Y0094839D01*
X0031927Y0094813D01*
X0031669Y0094782D01*
X0031412Y0094743D01*
X0031155Y0094699D01*
X0030900Y0094648D01*
X0030646Y0094591D01*
X0030394Y0094528D01*
X0030143Y0094458D01*
X0029894Y0094383D01*
X0029647Y0094301D01*
X0029402Y0094214D01*
X0029159Y0094120D01*
X0028919Y0094020D01*
X0028681Y0093915D01*
X0028446Y0093804D01*
X0028214Y0093687D01*
X0027984Y0093564D01*
X0027758Y0093436D01*
X0027535Y0093302D01*
X0027315Y0093163D01*
X0027098Y0093018D01*
X0026886Y0092868D01*
X0026677Y0092713D01*
X0026472Y0092553D01*
X0026271Y0092388D01*
X0026074Y0092218D01*
X0025881Y0092044D01*
X0025692Y0091864D01*
X0025508Y0091680D01*
X0025329Y0091492D01*
X0025154Y0091299D01*
X0024984Y0091102D01*
X0024819Y0090901D01*
X0024659Y0090696D01*
X0024504Y0090487D01*
X0024354Y0090274D01*
X0024210Y0090058D01*
X0024071Y0089838D01*
X0023937Y0089615D01*
X0023809Y0089388D01*
X0023686Y0089159D01*
X0023569Y0088927D01*
X0023458Y0088691D01*
X0023352Y0088454D01*
X0023253Y0088213D01*
X0023159Y0087970D01*
X0023072Y0087726D01*
X0022990Y0087478D01*
X0022914Y0087230D01*
X0022845Y0086979D01*
X0022782Y0086726D01*
X0022725Y0086473D01*
X0022674Y0086217D01*
X0022630Y0085961D01*
X0022591Y0085704D01*
X0022560Y0085445D01*
X0022534Y0085187D01*
X0022515Y0084927D01*
X0022502Y0084667D01*
X0022496Y0084407D01*
X0022496Y0084147D01*
X0022502Y0083887D01*
X0022515Y0083627D01*
X0022534Y0083367D01*
X0022560Y0083109D01*
X0022591Y0082850D01*
X0022630Y0082593D01*
X0022674Y0082337D01*
X0022725Y0082081D01*
X0022782Y0081828D01*
X0022845Y0081575D01*
X0022914Y0081324D01*
X0022990Y0081076D01*
X0023072Y0080828D01*
X0023159Y0080584D01*
X0023253Y0080341D01*
X0023352Y0080100D01*
X0023458Y0079863D01*
X0023569Y0079627D01*
X0023686Y0079395D01*
X0023809Y0079166D01*
X0023937Y0078939D01*
X0024071Y0078716D01*
X0024210Y0078496D01*
X0024354Y0078280D01*
X0024504Y0078067D01*
X0024659Y0077858D01*
X0024819Y0077653D01*
X0024984Y0077452D01*
X0025154Y0077255D01*
X0025329Y0077062D01*
X0025508Y0076874D01*
X0025692Y0076690D01*
X0025881Y0076510D01*
X0026074Y0076336D01*
X0026271Y0076166D01*
X0026472Y0076001D01*
X0026677Y0075841D01*
X0026886Y0075686D01*
X0027098Y0075536D01*
X0027315Y0075391D01*
X0027535Y0075252D01*
X0027758Y0075118D01*
X0027984Y0074990D01*
X0028214Y0074867D01*
X0028446Y0074750D01*
X0028681Y0074639D01*
X0028919Y0074534D01*
X0029159Y0074434D01*
X0029402Y0074340D01*
X0029647Y0074253D01*
X0029894Y0074171D01*
X0030143Y0074096D01*
X0030394Y0074026D01*
X0030646Y0073963D01*
X0030900Y0073906D01*
X0031155Y0073855D01*
X0031412Y0073811D01*
X0031669Y0073772D01*
X0031927Y0073741D01*
X0032186Y0073715D01*
X0032445Y0073696D01*
X0032705Y0073683D01*
X0032965Y0073677D01*
X0033226Y0073677D01*
X0033486Y0073683D01*
X0033746Y0073696D01*
X0034005Y0073715D01*
X0034264Y0073741D01*
X0034522Y0073772D01*
X0034780Y0073811D01*
X0035036Y0073855D01*
X0035291Y0073906D01*
X0035545Y0073963D01*
X0035797Y0074026D01*
X0036048Y0074095D01*
X0036297Y0074171D01*
X0036544Y0074252D01*
X0036789Y0074340D01*
X0037032Y0074434D01*
X0037272Y0074533D01*
X0037510Y0074639D01*
X0037745Y0074750D01*
X0037978Y0074867D01*
X0038207Y0074989D01*
X0038433Y0075118D01*
X0038657Y0075251D01*
X0038876Y0075391D01*
X0039093Y0075535D01*
X0039306Y0075685D01*
X0039514Y0075840D01*
X0039720Y0076000D01*
X0039921Y0076165D01*
X0040118Y0076335D01*
X0040311Y0076510D01*
X0040499Y0076689D01*
X0040683Y0076873D01*
X0040862Y0077061D01*
X0041037Y0077254D01*
X0041207Y0077451D01*
X0041372Y0077652D01*
X0041532Y0077857D01*
X0041687Y0078066D01*
X0041837Y0078279D01*
X0041982Y0078495D01*
X0042121Y0078715D01*
X0042255Y0078938D01*
X0042383Y0079165D01*
X0042505Y0079394D01*
X0042622Y0079626D01*
X0042734Y0079862D01*
X0042839Y0080100D01*
X0042939Y0080340D01*
D11*
X0043096Y0028785D02*
X0043096Y0013785D01*
D12*
X0043425Y0029094D02*
X0042705Y0028554D01*
X0042706Y0028555D02*
X0042525Y0028788D01*
X0042339Y0029016D01*
X0042147Y0029240D01*
X0041950Y0029459D01*
X0041748Y0029673D01*
X0041540Y0029882D01*
X0041327Y0030085D01*
X0041110Y0030284D01*
X0040887Y0030477D01*
X0040660Y0030665D01*
X0040429Y0030847D01*
X0040193Y0031024D01*
X0039952Y0031194D01*
X0039708Y0031359D01*
X0039460Y0031517D01*
X0039208Y0031670D01*
X0038952Y0031816D01*
X0038693Y0031956D01*
X0038430Y0032090D01*
X0038165Y0032217D01*
X0037896Y0032338D01*
X0037624Y0032452D01*
X0037350Y0032559D01*
X0037073Y0032660D01*
X0036794Y0032754D01*
X0036512Y0032841D01*
X0036229Y0032921D01*
X0035943Y0032994D01*
X0035656Y0033060D01*
X0035367Y0033119D01*
X0035077Y0033171D01*
X0034786Y0033216D01*
X0034494Y0033254D01*
X0034201Y0033284D01*
X0033907Y0033308D01*
X0033613Y0033324D01*
X0033319Y0033333D01*
X0033024Y0033335D01*
X0032729Y0033329D01*
X0032435Y0033317D01*
X0032141Y0033297D01*
X0031848Y0033270D01*
X0031555Y0033236D01*
X0031263Y0033195D01*
X0030973Y0033146D01*
X0030683Y0033091D01*
X0030396Y0033029D01*
X0030109Y0032959D01*
X0029825Y0032882D01*
X0029542Y0032799D01*
X0029262Y0032709D01*
X0028984Y0032612D01*
X0028708Y0032508D01*
X0028435Y0032397D01*
X0028165Y0032280D01*
X0027897Y0032156D01*
X0027633Y0032026D01*
X0027372Y0031889D01*
X0027115Y0031746D01*
X0026861Y0031596D01*
X0026610Y0031441D01*
X0026364Y0031279D01*
X0026122Y0031112D01*
X0025884Y0030938D01*
X0025650Y0030759D01*
X0025420Y0030574D01*
X0025196Y0030384D01*
X0024975Y0030188D01*
X0024760Y0029987D01*
X0024550Y0029780D01*
X0024345Y0029569D01*
X0024145Y0029352D01*
X0023950Y0029131D01*
X0023761Y0028905D01*
X0023578Y0028675D01*
X0023400Y0028440D01*
X0023228Y0028200D01*
X0023062Y0027957D01*
X0022902Y0027710D01*
X0022748Y0027459D01*
X0022600Y0027204D01*
X0022458Y0026945D01*
X0022323Y0026684D01*
X0022194Y0026419D01*
X0022072Y0026151D01*
X0021956Y0025880D01*
X0021847Y0025606D01*
X0021745Y0025330D01*
X0021650Y0025051D01*
X0021561Y0024770D01*
X0021479Y0024487D01*
X0021404Y0024202D01*
X0021337Y0023915D01*
X0021276Y0023627D01*
X0021222Y0023337D01*
X0021175Y0023046D01*
X0021136Y0022754D01*
X0021104Y0022462D01*
X0021078Y0022168D01*
X0021060Y0021874D01*
X0021050Y0021580D01*
X0021046Y0021285D01*
X0021050Y0020990D01*
X0021060Y0020696D01*
X0021078Y0020402D01*
X0021104Y0020108D01*
X0021136Y0019816D01*
X0021175Y0019524D01*
X0021222Y0019233D01*
X0021276Y0018943D01*
X0021337Y0018655D01*
X0021404Y0018368D01*
X0021479Y0018083D01*
X0021561Y0017800D01*
X0021650Y0017519D01*
X0021745Y0017240D01*
X0021847Y0016964D01*
X0021956Y0016690D01*
X0022072Y0016419D01*
X0022194Y0016151D01*
X0022323Y0015886D01*
X0022458Y0015625D01*
X0022600Y0015366D01*
X0022748Y0015111D01*
X0022902Y0014860D01*
X0023062Y0014613D01*
X0023228Y0014370D01*
X0023400Y0014130D01*
X0023578Y0013895D01*
X0023761Y0013665D01*
X0023950Y0013439D01*
X0024145Y0013218D01*
X0024345Y0013001D01*
X0024550Y0012790D01*
X0024760Y0012583D01*
X0024975Y0012382D01*
X0025196Y0012186D01*
X0025420Y0011996D01*
X0025650Y0011811D01*
X0025884Y0011632D01*
X0026122Y0011458D01*
X0026364Y0011291D01*
X0026610Y0011129D01*
X0026861Y0010974D01*
X0027115Y0010824D01*
X0027372Y0010681D01*
X0027633Y0010544D01*
X0027897Y0010414D01*
X0028165Y0010290D01*
X0028435Y0010173D01*
X0028708Y0010062D01*
X0028984Y0009958D01*
X0029262Y0009861D01*
X0029542Y0009771D01*
X0029825Y0009688D01*
X0030109Y0009611D01*
X0030396Y0009541D01*
X0030683Y0009479D01*
X0030973Y0009424D01*
X0031263Y0009375D01*
X0031555Y0009334D01*
X0031848Y0009300D01*
X0032141Y0009273D01*
X0032435Y0009253D01*
X0032729Y0009241D01*
X0033024Y0009235D01*
X0033319Y0009237D01*
X0033613Y0009246D01*
X0033907Y0009262D01*
X0034201Y0009286D01*
X0034494Y0009316D01*
X0034786Y0009354D01*
X0035077Y0009399D01*
X0035367Y0009451D01*
X0035656Y0009510D01*
X0035943Y0009576D01*
X0036229Y0009649D01*
X0036512Y0009729D01*
X0036794Y0009816D01*
X0037073Y0009910D01*
X0037350Y0010011D01*
X0037624Y0010118D01*
X0037896Y0010232D01*
X0038165Y0010353D01*
X0038430Y0010480D01*
X0038693Y0010614D01*
X0038952Y0010754D01*
X0039208Y0010900D01*
X0039460Y0011053D01*
X0039708Y0011211D01*
X0039952Y0011376D01*
X0040193Y0011546D01*
X0040429Y0011723D01*
X0040660Y0011905D01*
X0040887Y0012093D01*
X0041110Y0012286D01*
X0041327Y0012485D01*
X0041540Y0012688D01*
X0041748Y0012897D01*
X0041950Y0013111D01*
X0042147Y0013330D01*
X0042339Y0013554D01*
X0042525Y0013782D01*
X0042706Y0014015D01*
X0043425Y0013476D01*
X0043426Y0013475D01*
X0043232Y0013225D01*
X0043032Y0012979D01*
X0042826Y0012739D01*
X0042614Y0012504D01*
X0042396Y0012274D01*
X0042173Y0012049D01*
X0041945Y0011830D01*
X0041711Y0011616D01*
X0041472Y0011408D01*
X0041228Y0011206D01*
X0040979Y0011011D01*
X0040725Y0010821D01*
X0040467Y0010638D01*
X0040205Y0010461D01*
X0039938Y0010290D01*
X0039667Y0010126D01*
X0039392Y0009969D01*
X0039114Y0009818D01*
X0038831Y0009674D01*
X0038546Y0009538D01*
X0038257Y0009408D01*
X0037965Y0009285D01*
X0037670Y0009170D01*
X0037373Y0009062D01*
X0037072Y0008961D01*
X0036770Y0008867D01*
X0036465Y0008781D01*
X0036158Y0008702D01*
X0035850Y0008631D01*
X0035540Y0008568D01*
X0035228Y0008512D01*
X0034915Y0008463D01*
X0034601Y0008423D01*
X0034286Y0008390D01*
X0033970Y0008365D01*
X0033654Y0008347D01*
X0033338Y0008337D01*
X0033021Y0008335D01*
X0032704Y0008341D01*
X0032388Y0008354D01*
X0032072Y0008376D01*
X0031757Y0008404D01*
X0031442Y0008441D01*
X0031129Y0008485D01*
X0030816Y0008537D01*
X0030505Y0008597D01*
X0030196Y0008664D01*
X0029888Y0008739D01*
X0029582Y0008821D01*
X0029279Y0008910D01*
X0028977Y0009007D01*
X0028678Y0009112D01*
X0028382Y0009224D01*
X0028088Y0009342D01*
X0027798Y0009468D01*
X0027511Y0009601D01*
X0027226Y0009742D01*
X0026946Y0009889D01*
X0026669Y0010042D01*
X0026396Y0010203D01*
X0026127Y0010370D01*
X0025862Y0010544D01*
X0025602Y0010724D01*
X0025346Y0010910D01*
X0025095Y0011103D01*
X0024848Y0011301D01*
X0024606Y0011506D01*
X0024370Y0011716D01*
X0024138Y0011933D01*
X0023913Y0012155D01*
X0023692Y0012382D01*
X0023477Y0012614D01*
X0023268Y0012852D01*
X0023065Y0013095D01*
X0022867Y0013343D01*
X0022676Y0013595D01*
X0022491Y0013852D01*
X0022313Y0014114D01*
X0022141Y0014380D01*
X0021975Y0014649D01*
X0021816Y0014923D01*
X0021664Y0015201D01*
X0021519Y0015482D01*
X0021380Y0015767D01*
X0021249Y0016055D01*
X0021125Y0016347D01*
X0021007Y0016641D01*
X0020897Y0016938D01*
X0020795Y0017237D01*
X0020700Y0017539D01*
X0020612Y0017843D01*
X0020531Y0018150D01*
X0020458Y0018458D01*
X0020393Y0018768D01*
X0020335Y0019079D01*
X0020285Y0019392D01*
X0020243Y0019706D01*
X0020208Y0020020D01*
X0020181Y0020336D01*
X0020161Y0020652D01*
X0020150Y0020968D01*
X0020146Y0021285D01*
X0020150Y0021602D01*
X0020161Y0021918D01*
X0020181Y0022234D01*
X0020208Y0022550D01*
X0020243Y0022864D01*
X0020285Y0023178D01*
X0020335Y0023491D01*
X0020393Y0023802D01*
X0020458Y0024112D01*
X0020531Y0024420D01*
X0020612Y0024727D01*
X0020700Y0025031D01*
X0020795Y0025333D01*
X0020897Y0025632D01*
X0021007Y0025929D01*
X0021125Y0026223D01*
X0021249Y0026515D01*
X0021380Y0026803D01*
X0021519Y0027088D01*
X0021664Y0027369D01*
X0021816Y0027647D01*
X0021975Y0027921D01*
X0022141Y0028190D01*
X0022313Y0028456D01*
X0022491Y0028718D01*
X0022676Y0028975D01*
X0022867Y0029227D01*
X0023065Y0029475D01*
X0023268Y0029718D01*
X0023477Y0029956D01*
X0023692Y0030188D01*
X0023913Y0030415D01*
X0024138Y0030637D01*
X0024370Y0030854D01*
X0024606Y0031064D01*
X0024848Y0031269D01*
X0025095Y0031467D01*
X0025346Y0031660D01*
X0025602Y0031846D01*
X0025862Y0032026D01*
X0026127Y0032200D01*
X0026396Y0032367D01*
X0026669Y0032528D01*
X0026946Y0032681D01*
X0027226Y0032828D01*
X0027511Y0032969D01*
X0027798Y0033102D01*
X0028088Y0033228D01*
X0028382Y0033346D01*
X0028678Y0033458D01*
X0028977Y0033563D01*
X0029279Y0033660D01*
X0029582Y0033749D01*
X0029888Y0033831D01*
X0030196Y0033906D01*
X0030505Y0033973D01*
X0030816Y0034033D01*
X0031129Y0034085D01*
X0031442Y0034129D01*
X0031757Y0034166D01*
X0032072Y0034194D01*
X0032388Y0034216D01*
X0032704Y0034229D01*
X0033021Y0034235D01*
X0033338Y0034233D01*
X0033654Y0034223D01*
X0033970Y0034205D01*
X0034286Y0034180D01*
X0034601Y0034147D01*
X0034915Y0034107D01*
X0035228Y0034058D01*
X0035540Y0034002D01*
X0035850Y0033939D01*
X0036158Y0033868D01*
X0036465Y0033789D01*
X0036770Y0033703D01*
X0037072Y0033609D01*
X0037373Y0033508D01*
X0037670Y0033400D01*
X0037965Y0033285D01*
X0038257Y0033162D01*
X0038546Y0033032D01*
X0038831Y0032896D01*
X0039114Y0032752D01*
X0039392Y0032601D01*
X0039667Y0032444D01*
X0039938Y0032280D01*
X0040205Y0032109D01*
X0040467Y0031932D01*
X0040725Y0031749D01*
X0040979Y0031559D01*
X0041228Y0031364D01*
X0041472Y0031162D01*
X0041711Y0030954D01*
X0041945Y0030740D01*
X0042173Y0030521D01*
X0042396Y0030296D01*
X0042614Y0030066D01*
X0042826Y0029831D01*
X0043032Y0029591D01*
X0043232Y0029345D01*
X0043426Y0029095D01*
X0043351Y0029039D01*
X0043158Y0029287D01*
X0042959Y0029531D01*
X0042755Y0029769D01*
X0042545Y0030003D01*
X0042329Y0030231D01*
X0042107Y0030454D01*
X0041880Y0030672D01*
X0041648Y0030884D01*
X0041411Y0031090D01*
X0041169Y0031291D01*
X0040921Y0031485D01*
X0040670Y0031673D01*
X0040413Y0031855D01*
X0040153Y0032031D01*
X0039888Y0032200D01*
X0039619Y0032363D01*
X0039346Y0032519D01*
X0039070Y0032669D01*
X0038790Y0032811D01*
X0038506Y0032947D01*
X0038219Y0033076D01*
X0037929Y0033198D01*
X0037637Y0033312D01*
X0037341Y0033420D01*
X0037043Y0033520D01*
X0036743Y0033613D01*
X0036440Y0033698D01*
X0036136Y0033776D01*
X0035830Y0033847D01*
X0035522Y0033910D01*
X0035212Y0033966D01*
X0034902Y0034014D01*
X0034590Y0034054D01*
X0034277Y0034087D01*
X0033964Y0034112D01*
X0033650Y0034129D01*
X0033336Y0034139D01*
X0033021Y0034141D01*
X0032707Y0034135D01*
X0032393Y0034122D01*
X0032079Y0034101D01*
X0031766Y0034072D01*
X0031454Y0034036D01*
X0031143Y0033992D01*
X0030833Y0033940D01*
X0030524Y0033881D01*
X0030217Y0033814D01*
X0029911Y0033740D01*
X0029608Y0033659D01*
X0029306Y0033570D01*
X0029007Y0033473D01*
X0028710Y0033370D01*
X0028416Y0033259D01*
X0028125Y0033141D01*
X0027836Y0033016D01*
X0027551Y0032884D01*
X0027269Y0032745D01*
X0026991Y0032599D01*
X0026716Y0032446D01*
X0026445Y0032287D01*
X0026178Y0032121D01*
X0025915Y0031948D01*
X0025656Y0031770D01*
X0025402Y0031585D01*
X0025153Y0031393D01*
X0024908Y0031196D01*
X0024668Y0030993D01*
X0024433Y0030784D01*
X0024203Y0030569D01*
X0023979Y0030349D01*
X0023760Y0030124D01*
X0023547Y0029893D01*
X0023339Y0029657D01*
X0023137Y0029415D01*
X0022942Y0029170D01*
X0022752Y0028919D01*
X0022568Y0028664D01*
X0022391Y0028404D01*
X0022220Y0028140D01*
X0022056Y0027872D01*
X0021898Y0027600D01*
X0021747Y0027325D01*
X0021603Y0027045D01*
X0021465Y0026763D01*
X0021335Y0026477D01*
X0021211Y0026188D01*
X0021095Y0025895D01*
X0020986Y0025601D01*
X0020884Y0025303D01*
X0020790Y0025004D01*
X0020702Y0024701D01*
X0020622Y0024397D01*
X0020550Y0024092D01*
X0020485Y0023784D01*
X0020428Y0023475D01*
X0020378Y0023164D01*
X0020336Y0022853D01*
X0020301Y0022540D01*
X0020275Y0022227D01*
X0020255Y0021913D01*
X0020244Y0021599D01*
X0020240Y0021285D01*
X0020244Y0020971D01*
X0020255Y0020657D01*
X0020275Y0020343D01*
X0020301Y0020030D01*
X0020336Y0019717D01*
X0020378Y0019406D01*
X0020428Y0019095D01*
X0020485Y0018786D01*
X0020550Y0018478D01*
X0020622Y0018173D01*
X0020702Y0017869D01*
X0020790Y0017566D01*
X0020884Y0017267D01*
X0020986Y0016969D01*
X0021095Y0016675D01*
X0021211Y0016382D01*
X0021335Y0016093D01*
X0021465Y0015807D01*
X0021603Y0015525D01*
X0021747Y0015245D01*
X0021898Y0014970D01*
X0022056Y0014698D01*
X0022220Y0014430D01*
X0022391Y0014166D01*
X0022568Y0013906D01*
X0022752Y0013651D01*
X0022942Y0013400D01*
X0023137Y0013155D01*
X0023339Y0012913D01*
X0023547Y0012677D01*
X0023760Y0012446D01*
X0023979Y0012221D01*
X0024203Y0012001D01*
X0024433Y0011786D01*
X0024668Y0011577D01*
X0024908Y0011374D01*
X0025153Y0011177D01*
X0025402Y0010985D01*
X0025656Y0010800D01*
X0025915Y0010622D01*
X0026178Y0010449D01*
X0026445Y0010283D01*
X0026716Y0010124D01*
X0026991Y0009971D01*
X0027269Y0009825D01*
X0027551Y0009686D01*
X0027836Y0009554D01*
X0028125Y0009429D01*
X0028416Y0009311D01*
X0028710Y0009200D01*
X0029007Y0009097D01*
X0029306Y0009000D01*
X0029608Y0008911D01*
X0029911Y0008830D01*
X0030217Y0008756D01*
X0030524Y0008689D01*
X0030833Y0008630D01*
X0031143Y0008578D01*
X0031454Y0008534D01*
X0031766Y0008498D01*
X0032079Y0008469D01*
X0032393Y0008448D01*
X0032707Y0008435D01*
X0033021Y0008429D01*
X0033336Y0008431D01*
X0033650Y0008441D01*
X0033964Y0008458D01*
X0034277Y0008483D01*
X0034590Y0008516D01*
X0034902Y0008556D01*
X0035212Y0008604D01*
X0035522Y0008660D01*
X0035830Y0008723D01*
X0036136Y0008794D01*
X0036440Y0008872D01*
X0036743Y0008957D01*
X0037043Y0009050D01*
X0037341Y0009150D01*
X0037637Y0009258D01*
X0037929Y0009372D01*
X0038219Y0009494D01*
X0038506Y0009623D01*
X0038790Y0009759D01*
X0039070Y0009901D01*
X0039346Y0010051D01*
X0039619Y0010207D01*
X0039888Y0010370D01*
X0040153Y0010539D01*
X0040413Y0010715D01*
X0040670Y0010897D01*
X0040921Y0011085D01*
X0041169Y0011279D01*
X0041411Y0011480D01*
X0041648Y0011686D01*
X0041880Y0011898D01*
X0042107Y0012116D01*
X0042329Y0012339D01*
X0042545Y0012567D01*
X0042755Y0012801D01*
X0042959Y0013039D01*
X0043158Y0013283D01*
X0043351Y0013531D01*
X0043276Y0013588D01*
X0043084Y0013341D01*
X0042887Y0013099D01*
X0042684Y0012862D01*
X0042475Y0012631D01*
X0042261Y0012404D01*
X0042041Y0012182D01*
X0041816Y0011966D01*
X0041585Y0011756D01*
X0041350Y0011551D01*
X0041109Y0011352D01*
X0040864Y0011159D01*
X0040614Y0010973D01*
X0040360Y0010792D01*
X0040101Y0010617D01*
X0039838Y0010449D01*
X0039571Y0010288D01*
X0039300Y0010133D01*
X0039026Y0009984D01*
X0038748Y0009843D01*
X0038466Y0009708D01*
X0038182Y0009580D01*
X0037894Y0009459D01*
X0037603Y0009345D01*
X0037310Y0009239D01*
X0037014Y0009139D01*
X0036716Y0009047D01*
X0036416Y0008962D01*
X0036113Y0008885D01*
X0035809Y0008815D01*
X0035504Y0008752D01*
X0035197Y0008697D01*
X0034888Y0008649D01*
X0034579Y0008609D01*
X0034268Y0008577D01*
X0033957Y0008552D01*
X0033646Y0008535D01*
X0033334Y0008525D01*
X0033022Y0008523D01*
X0032710Y0008529D01*
X0032398Y0008542D01*
X0032087Y0008563D01*
X0031776Y0008591D01*
X0031466Y0008628D01*
X0031157Y0008671D01*
X0030849Y0008722D01*
X0030542Y0008781D01*
X0030238Y0008847D01*
X0029934Y0008921D01*
X0029633Y0009002D01*
X0029334Y0009090D01*
X0029037Y0009186D01*
X0028742Y0009289D01*
X0028450Y0009399D01*
X0028161Y0009516D01*
X0027874Y0009640D01*
X0027591Y0009771D01*
X0027311Y0009909D01*
X0027035Y0010054D01*
X0026762Y0010206D01*
X0026493Y0010364D01*
X0026228Y0010529D01*
X0025967Y0010700D01*
X0025711Y0010877D01*
X0025458Y0011061D01*
X0025211Y0011251D01*
X0024968Y0011446D01*
X0024729Y0011648D01*
X0024496Y0011856D01*
X0024268Y0012069D01*
X0024046Y0012287D01*
X0023828Y0012511D01*
X0023617Y0012740D01*
X0023411Y0012975D01*
X0023210Y0013214D01*
X0023016Y0013458D01*
X0022828Y0013707D01*
X0022645Y0013960D01*
X0022469Y0014218D01*
X0022300Y0014480D01*
X0022137Y0014746D01*
X0021980Y0015016D01*
X0021830Y0015290D01*
X0021687Y0015567D01*
X0021550Y0015847D01*
X0021421Y0016131D01*
X0021298Y0016418D01*
X0021183Y0016708D01*
X0021075Y0017001D01*
X0020973Y0017296D01*
X0020879Y0017594D01*
X0020793Y0017894D01*
X0020714Y0018195D01*
X0020642Y0018499D01*
X0020577Y0018804D01*
X0020520Y0019111D01*
X0020471Y0019419D01*
X0020429Y0019729D01*
X0020395Y0020039D01*
X0020368Y0020350D01*
X0020349Y0020661D01*
X0020338Y0020973D01*
X0020334Y0021285D01*
X0020338Y0021597D01*
X0020349Y0021909D01*
X0020368Y0022220D01*
X0020395Y0022531D01*
X0020429Y0022841D01*
X0020471Y0023151D01*
X0020520Y0023459D01*
X0020577Y0023766D01*
X0020642Y0024071D01*
X0020714Y0024375D01*
X0020793Y0024676D01*
X0020879Y0024976D01*
X0020973Y0025274D01*
X0021075Y0025569D01*
X0021183Y0025862D01*
X0021298Y0026152D01*
X0021421Y0026439D01*
X0021550Y0026723D01*
X0021687Y0027003D01*
X0021830Y0027280D01*
X0021980Y0027554D01*
X0022137Y0027824D01*
X0022300Y0028090D01*
X0022469Y0028352D01*
X0022645Y0028610D01*
X0022828Y0028863D01*
X0023016Y0029112D01*
X0023210Y0029356D01*
X0023411Y0029595D01*
X0023617Y0029830D01*
X0023828Y0030059D01*
X0024046Y0030283D01*
X0024268Y0030501D01*
X0024496Y0030714D01*
X0024729Y0030922D01*
X0024968Y0031124D01*
X0025211Y0031319D01*
X0025458Y0031509D01*
X0025711Y0031693D01*
X0025967Y0031870D01*
X0026228Y0032041D01*
X0026493Y0032206D01*
X0026762Y0032364D01*
X0027035Y0032516D01*
X0027311Y0032661D01*
X0027591Y0032799D01*
X0027874Y0032930D01*
X0028161Y0033054D01*
X0028450Y0033171D01*
X0028742Y0033281D01*
X0029037Y0033384D01*
X0029334Y0033480D01*
X0029633Y0033568D01*
X0029934Y0033649D01*
X0030238Y0033723D01*
X0030542Y0033789D01*
X0030849Y0033848D01*
X0031157Y0033899D01*
X0031466Y0033942D01*
X0031776Y0033979D01*
X0032087Y0034007D01*
X0032398Y0034028D01*
X0032710Y0034041D01*
X0033022Y0034047D01*
X0033334Y0034045D01*
X0033646Y0034035D01*
X0033957Y0034018D01*
X0034268Y0033993D01*
X0034579Y0033961D01*
X0034888Y0033921D01*
X0035197Y0033873D01*
X0035504Y0033818D01*
X0035809Y0033755D01*
X0036113Y0033685D01*
X0036416Y0033608D01*
X0036716Y0033523D01*
X0037014Y0033431D01*
X0037310Y0033331D01*
X0037603Y0033225D01*
X0037894Y0033111D01*
X0038182Y0032990D01*
X0038466Y0032862D01*
X0038748Y0032727D01*
X0039026Y0032586D01*
X0039300Y0032437D01*
X0039571Y0032282D01*
X0039838Y0032121D01*
X0040101Y0031953D01*
X0040360Y0031778D01*
X0040614Y0031597D01*
X0040864Y0031411D01*
X0041109Y0031218D01*
X0041350Y0031019D01*
X0041585Y0030814D01*
X0041816Y0030604D01*
X0042041Y0030388D01*
X0042261Y0030166D01*
X0042475Y0029939D01*
X0042684Y0029708D01*
X0042887Y0029471D01*
X0043084Y0029229D01*
X0043276Y0028982D01*
X0043200Y0028926D01*
X0043010Y0029171D01*
X0042815Y0029411D01*
X0042613Y0029646D01*
X0042406Y0029876D01*
X0042193Y0030101D01*
X0041975Y0030321D01*
X0041751Y0030535D01*
X0041522Y0030744D01*
X0041289Y0030947D01*
X0041050Y0031145D01*
X0040807Y0031336D01*
X0040558Y0031522D01*
X0040306Y0031701D01*
X0040049Y0031874D01*
X0039788Y0032041D01*
X0039523Y0032202D01*
X0039254Y0032355D01*
X0038982Y0032503D01*
X0038706Y0032643D01*
X0038426Y0032777D01*
X0038144Y0032904D01*
X0037858Y0033024D01*
X0037570Y0033137D01*
X0037279Y0033243D01*
X0036985Y0033341D01*
X0036689Y0033433D01*
X0036391Y0033517D01*
X0036091Y0033594D01*
X0035789Y0033663D01*
X0035486Y0033726D01*
X0035181Y0033780D01*
X0034875Y0033828D01*
X0034567Y0033867D01*
X0034259Y0033899D01*
X0033951Y0033924D01*
X0033641Y0033941D01*
X0033332Y0033951D01*
X0033022Y0033953D01*
X0032712Y0033947D01*
X0032403Y0033934D01*
X0032094Y0033913D01*
X0031785Y0033885D01*
X0031478Y0033849D01*
X0031171Y0033806D01*
X0030865Y0033755D01*
X0030561Y0033697D01*
X0030258Y0033631D01*
X0029957Y0033558D01*
X0029658Y0033478D01*
X0029361Y0033390D01*
X0029066Y0033295D01*
X0028774Y0033193D01*
X0028484Y0033084D01*
X0028197Y0032967D01*
X0027913Y0032844D01*
X0027632Y0032714D01*
X0027354Y0032577D01*
X0027080Y0032433D01*
X0026809Y0032283D01*
X0026542Y0032126D01*
X0026279Y0031962D01*
X0026020Y0031792D01*
X0025765Y0031616D01*
X0025514Y0031434D01*
X0025269Y0031245D01*
X0025027Y0031051D01*
X0024791Y0030851D01*
X0024560Y0030645D01*
X0024333Y0030433D01*
X0024112Y0030216D01*
X0023897Y0029994D01*
X0023686Y0029767D01*
X0023482Y0029534D01*
X0023283Y0029296D01*
X0023090Y0029054D01*
X0022903Y0028807D01*
X0022722Y0028556D01*
X0022548Y0028300D01*
X0022379Y0028040D01*
X0022217Y0027776D01*
X0022062Y0027508D01*
X0021913Y0027236D01*
X0021771Y0026961D01*
X0021635Y0026682D01*
X0021507Y0026401D01*
X0021385Y0026116D01*
X0021271Y0025828D01*
X0021163Y0025537D01*
X0021063Y0025244D01*
X0020969Y0024949D01*
X0020883Y0024651D01*
X0020805Y0024352D01*
X0020734Y0024050D01*
X0020670Y0023747D01*
X0020613Y0023443D01*
X0020564Y0023137D01*
X0020523Y0022830D01*
X0020489Y0022522D01*
X0020462Y0022213D01*
X0020443Y0021904D01*
X0020432Y0021595D01*
X0020428Y0021285D01*
X0020432Y0020975D01*
X0020443Y0020666D01*
X0020462Y0020357D01*
X0020489Y0020048D01*
X0020523Y0019740D01*
X0020564Y0019433D01*
X0020613Y0019127D01*
X0020670Y0018823D01*
X0020734Y0018520D01*
X0020805Y0018218D01*
X0020883Y0017919D01*
X0020969Y0017621D01*
X0021063Y0017326D01*
X0021163Y0017033D01*
X0021271Y0016742D01*
X0021385Y0016454D01*
X0021507Y0016169D01*
X0021635Y0015888D01*
X0021771Y0015609D01*
X0021913Y0015334D01*
X0022062Y0015062D01*
X0022217Y0014794D01*
X0022379Y0014530D01*
X0022548Y0014270D01*
X0022722Y0014014D01*
X0022903Y0013763D01*
X0023090Y0013516D01*
X0023283Y0013274D01*
X0023482Y0013036D01*
X0023686Y0012803D01*
X0023897Y0012576D01*
X0024112Y0012354D01*
X0024333Y0012137D01*
X0024560Y0011925D01*
X0024791Y0011719D01*
X0025027Y0011519D01*
X0025269Y0011325D01*
X0025514Y0011136D01*
X0025765Y0010954D01*
X0026020Y0010778D01*
X0026279Y0010608D01*
X0026542Y0010444D01*
X0026809Y0010287D01*
X0027080Y0010137D01*
X0027354Y0009993D01*
X0027632Y0009856D01*
X0027913Y0009726D01*
X0028197Y0009603D01*
X0028484Y0009486D01*
X0028774Y0009377D01*
X0029066Y0009275D01*
X0029361Y0009180D01*
X0029658Y0009092D01*
X0029957Y0009012D01*
X0030258Y0008939D01*
X0030561Y0008873D01*
X0030865Y0008815D01*
X0031171Y0008764D01*
X0031478Y0008721D01*
X0031785Y0008685D01*
X0032094Y0008657D01*
X0032403Y0008636D01*
X0032712Y0008623D01*
X0033022Y0008617D01*
X0033332Y0008619D01*
X0033641Y0008629D01*
X0033951Y0008646D01*
X0034259Y0008671D01*
X0034567Y0008703D01*
X0034875Y0008742D01*
X0035181Y0008790D01*
X0035486Y0008844D01*
X0035789Y0008907D01*
X0036091Y0008976D01*
X0036391Y0009053D01*
X0036689Y0009137D01*
X0036985Y0009229D01*
X0037279Y0009327D01*
X0037570Y0009433D01*
X0037858Y0009546D01*
X0038144Y0009666D01*
X0038426Y0009793D01*
X0038706Y0009927D01*
X0038982Y0010067D01*
X0039254Y0010215D01*
X0039523Y0010368D01*
X0039788Y0010529D01*
X0040049Y0010696D01*
X0040306Y0010869D01*
X0040558Y0011048D01*
X0040807Y0011234D01*
X0041050Y0011425D01*
X0041289Y0011623D01*
X0041522Y0011826D01*
X0041751Y0012035D01*
X0041975Y0012249D01*
X0042193Y0012469D01*
X0042406Y0012694D01*
X0042613Y0012924D01*
X0042815Y0013159D01*
X0043010Y0013399D01*
X0043200Y0013644D01*
X0043125Y0013701D01*
X0042937Y0013458D01*
X0042742Y0013219D01*
X0042542Y0012986D01*
X0042337Y0012758D01*
X0042125Y0012534D01*
X0041909Y0012316D01*
X0041687Y0012103D01*
X0041460Y0011896D01*
X0041228Y0011694D01*
X0040991Y0011498D01*
X0040749Y0011308D01*
X0040503Y0011124D01*
X0040252Y0010946D01*
X0039997Y0010774D01*
X0039738Y0010609D01*
X0039475Y0010449D01*
X0039208Y0010297D01*
X0038938Y0010150D01*
X0038664Y0010011D01*
X0038387Y0009878D01*
X0038106Y0009752D01*
X0037823Y0009633D01*
X0037536Y0009521D01*
X0037247Y0009416D01*
X0036956Y0009318D01*
X0036662Y0009227D01*
X0036366Y0009144D01*
X0036069Y0009067D01*
X0035769Y0008998D01*
X0035468Y0008937D01*
X0035165Y0008882D01*
X0034861Y0008836D01*
X0034556Y0008796D01*
X0034251Y0008764D01*
X0033944Y0008740D01*
X0033637Y0008723D01*
X0033330Y0008713D01*
X0033022Y0008711D01*
X0032715Y0008717D01*
X0032408Y0008730D01*
X0032101Y0008750D01*
X0031795Y0008779D01*
X0031489Y0008814D01*
X0031185Y0008857D01*
X0030882Y0008908D01*
X0030580Y0008965D01*
X0030279Y0009031D01*
X0029980Y0009103D01*
X0029684Y0009183D01*
X0029389Y0009270D01*
X0029096Y0009364D01*
X0028806Y0009466D01*
X0028518Y0009574D01*
X0028233Y0009689D01*
X0027951Y0009812D01*
X0027672Y0009941D01*
X0027396Y0010077D01*
X0027124Y0010220D01*
X0026855Y0010369D01*
X0026590Y0010525D01*
X0026329Y0010687D01*
X0026072Y0010856D01*
X0025819Y0011031D01*
X0025571Y0011212D01*
X0025327Y0011399D01*
X0025087Y0011592D01*
X0024853Y0011790D01*
X0024623Y0011995D01*
X0024398Y0012205D01*
X0024179Y0012420D01*
X0023965Y0012641D01*
X0023756Y0012866D01*
X0023553Y0013097D01*
X0023356Y0013333D01*
X0023164Y0013574D01*
X0022979Y0013819D01*
X0022799Y0014068D01*
X0022626Y0014322D01*
X0022459Y0014580D01*
X0022298Y0014842D01*
X0022144Y0015108D01*
X0021996Y0015378D01*
X0021855Y0015651D01*
X0021720Y0015928D01*
X0021593Y0016207D01*
X0021472Y0016490D01*
X0021358Y0016776D01*
X0021252Y0017064D01*
X0021152Y0017355D01*
X0021059Y0017648D01*
X0020974Y0017944D01*
X0020896Y0018241D01*
X0020825Y0018540D01*
X0020762Y0018841D01*
X0020706Y0019143D01*
X0020657Y0019447D01*
X0020616Y0019752D01*
X0020582Y0020057D01*
X0020556Y0020363D01*
X0020537Y0020670D01*
X0020526Y0020978D01*
X0020522Y0021285D01*
X0020526Y0021592D01*
X0020537Y0021900D01*
X0020556Y0022207D01*
X0020582Y0022513D01*
X0020616Y0022818D01*
X0020657Y0023123D01*
X0020706Y0023427D01*
X0020762Y0023729D01*
X0020825Y0024030D01*
X0020896Y0024329D01*
X0020974Y0024626D01*
X0021059Y0024922D01*
X0021152Y0025215D01*
X0021252Y0025506D01*
X0021358Y0025794D01*
X0021472Y0026080D01*
X0021593Y0026363D01*
X0021720Y0026642D01*
X0021855Y0026919D01*
X0021996Y0027192D01*
X0022144Y0027462D01*
X0022298Y0027728D01*
X0022459Y0027990D01*
X0022626Y0028248D01*
X0022799Y0028502D01*
X0022979Y0028751D01*
X0023164Y0028996D01*
X0023356Y0029237D01*
X0023553Y0029473D01*
X0023756Y0029704D01*
X0023965Y0029929D01*
X0024179Y0030150D01*
X0024398Y0030365D01*
X0024623Y0030575D01*
X0024853Y0030780D01*
X0025087Y0030978D01*
X0025327Y0031171D01*
X0025571Y0031358D01*
X0025819Y0031539D01*
X0026072Y0031714D01*
X0026329Y0031883D01*
X0026590Y0032045D01*
X0026855Y0032201D01*
X0027124Y0032350D01*
X0027396Y0032493D01*
X0027672Y0032629D01*
X0027951Y0032758D01*
X0028233Y0032881D01*
X0028518Y0032996D01*
X0028806Y0033104D01*
X0029096Y0033206D01*
X0029389Y0033300D01*
X0029684Y0033387D01*
X0029980Y0033467D01*
X0030279Y0033539D01*
X0030580Y0033605D01*
X0030882Y0033662D01*
X0031185Y0033713D01*
X0031489Y0033756D01*
X0031795Y0033791D01*
X0032101Y0033820D01*
X0032408Y0033840D01*
X0032715Y0033853D01*
X0033022Y0033859D01*
X0033330Y0033857D01*
X0033637Y0033847D01*
X0033944Y0033830D01*
X0034251Y0033806D01*
X0034556Y0033774D01*
X0034861Y0033734D01*
X0035165Y0033688D01*
X0035468Y0033633D01*
X0035769Y0033572D01*
X0036069Y0033503D01*
X0036366Y0033426D01*
X0036662Y0033343D01*
X0036956Y0033252D01*
X0037247Y0033154D01*
X0037536Y0033049D01*
X0037823Y0032937D01*
X0038106Y0032818D01*
X0038387Y0032692D01*
X0038664Y0032559D01*
X0038938Y0032420D01*
X0039208Y0032273D01*
X0039475Y0032121D01*
X0039738Y0031961D01*
X0039997Y0031796D01*
X0040252Y0031624D01*
X0040503Y0031446D01*
X0040749Y0031262D01*
X0040991Y0031072D01*
X0041228Y0030876D01*
X0041460Y0030674D01*
X0041687Y0030467D01*
X0041909Y0030254D01*
X0042125Y0030036D01*
X0042337Y0029812D01*
X0042542Y0029584D01*
X0042742Y0029351D01*
X0042937Y0029112D01*
X0043125Y0028869D01*
X0043050Y0028813D01*
X0042863Y0029054D01*
X0042670Y0029291D01*
X0042471Y0029522D01*
X0042267Y0029749D01*
X0042058Y0029971D01*
X0041843Y0030187D01*
X0041622Y0030398D01*
X0041397Y0030604D01*
X0041167Y0030804D01*
X0040931Y0030999D01*
X0040692Y0031187D01*
X0040447Y0031370D01*
X0040198Y0031547D01*
X0039945Y0031717D01*
X0039688Y0031882D01*
X0039427Y0032040D01*
X0039162Y0032191D01*
X0038894Y0032336D01*
X0038622Y0032475D01*
X0038347Y0032607D01*
X0038068Y0032732D01*
X0037787Y0032850D01*
X0037503Y0032961D01*
X0037216Y0033065D01*
X0036927Y0033163D01*
X0036635Y0033253D01*
X0036342Y0033336D01*
X0036046Y0033411D01*
X0035749Y0033480D01*
X0035450Y0033541D01*
X0035149Y0033595D01*
X0034848Y0033641D01*
X0034545Y0033681D01*
X0034242Y0033712D01*
X0033937Y0033737D01*
X0033633Y0033753D01*
X0033328Y0033763D01*
X0033023Y0033765D01*
X0032718Y0033759D01*
X0032413Y0033746D01*
X0032108Y0033726D01*
X0031804Y0033698D01*
X0031501Y0033663D01*
X0031199Y0033620D01*
X0030898Y0033570D01*
X0030598Y0033513D01*
X0030300Y0033448D01*
X0030004Y0033376D01*
X0029709Y0033297D01*
X0029416Y0033210D01*
X0029126Y0033117D01*
X0028838Y0033016D01*
X0028552Y0032908D01*
X0028269Y0032794D01*
X0027989Y0032672D01*
X0027712Y0032544D01*
X0027439Y0032409D01*
X0027169Y0032268D01*
X0026902Y0032119D01*
X0026639Y0031965D01*
X0026380Y0031804D01*
X0026124Y0031636D01*
X0025873Y0031463D01*
X0025627Y0031283D01*
X0025385Y0031097D01*
X0025147Y0030906D01*
X0024914Y0030709D01*
X0024686Y0030506D01*
X0024463Y0030297D01*
X0024245Y0030084D01*
X0024033Y0029865D01*
X0023826Y0029641D01*
X0023624Y0029411D01*
X0023428Y0029177D01*
X0023238Y0028939D01*
X0023054Y0028695D01*
X0022876Y0028448D01*
X0022704Y0028196D01*
X0022538Y0027939D01*
X0022379Y0027679D01*
X0022225Y0027415D01*
X0022079Y0027148D01*
X0021939Y0026877D01*
X0021805Y0026602D01*
X0021679Y0026325D01*
X0021559Y0026044D01*
X0021446Y0025760D01*
X0021340Y0025474D01*
X0021241Y0025186D01*
X0021149Y0024895D01*
X0021065Y0024601D01*
X0020987Y0024306D01*
X0020917Y0024009D01*
X0020854Y0023711D01*
X0020798Y0023411D01*
X0020750Y0023109D01*
X0020709Y0022807D01*
X0020676Y0022504D01*
X0020650Y0022200D01*
X0020631Y0021895D01*
X0020620Y0021590D01*
X0020616Y0021285D01*
X0020620Y0020980D01*
X0020631Y0020675D01*
X0020650Y0020370D01*
X0020676Y0020066D01*
X0020709Y0019763D01*
X0020750Y0019461D01*
X0020798Y0019159D01*
X0020854Y0018859D01*
X0020917Y0018561D01*
X0020987Y0018264D01*
X0021065Y0017969D01*
X0021149Y0017675D01*
X0021241Y0017384D01*
X0021340Y0017096D01*
X0021446Y0016810D01*
X0021559Y0016526D01*
X0021679Y0016245D01*
X0021805Y0015968D01*
X0021939Y0015693D01*
X0022079Y0015422D01*
X0022225Y0015155D01*
X0022379Y0014891D01*
X0022538Y0014631D01*
X0022704Y0014374D01*
X0022876Y0014122D01*
X0023054Y0013875D01*
X0023238Y0013631D01*
X0023428Y0013393D01*
X0023624Y0013159D01*
X0023826Y0012929D01*
X0024033Y0012705D01*
X0024245Y0012486D01*
X0024463Y0012273D01*
X0024686Y0012064D01*
X0024914Y0011861D01*
X0025147Y0011664D01*
X0025385Y0011473D01*
X0025627Y0011287D01*
X0025873Y0011107D01*
X0026124Y0010934D01*
X0026380Y0010766D01*
X0026639Y0010605D01*
X0026902Y0010451D01*
X0027169Y0010302D01*
X0027439Y0010161D01*
X0027712Y0010026D01*
X0027989Y0009898D01*
X0028269Y0009776D01*
X0028552Y0009662D01*
X0028838Y0009554D01*
X0029126Y0009453D01*
X0029416Y0009360D01*
X0029709Y0009273D01*
X0030004Y0009194D01*
X0030300Y0009122D01*
X0030598Y0009057D01*
X0030898Y0009000D01*
X0031199Y0008950D01*
X0031501Y0008907D01*
X0031804Y0008872D01*
X0032108Y0008844D01*
X0032413Y0008824D01*
X0032718Y0008811D01*
X0033023Y0008805D01*
X0033328Y0008807D01*
X0033633Y0008817D01*
X0033937Y0008833D01*
X0034242Y0008858D01*
X0034545Y0008889D01*
X0034848Y0008929D01*
X0035149Y0008975D01*
X0035450Y0009029D01*
X0035749Y0009090D01*
X0036046Y0009159D01*
X0036342Y0009234D01*
X0036635Y0009317D01*
X0036927Y0009407D01*
X0037216Y0009505D01*
X0037503Y0009609D01*
X0037787Y0009720D01*
X0038068Y0009838D01*
X0038347Y0009963D01*
X0038622Y0010095D01*
X0038894Y0010234D01*
X0039162Y0010379D01*
X0039427Y0010530D01*
X0039688Y0010688D01*
X0039945Y0010853D01*
X0040198Y0011023D01*
X0040447Y0011200D01*
X0040692Y0011383D01*
X0040931Y0011571D01*
X0041167Y0011766D01*
X0041397Y0011966D01*
X0041622Y0012172D01*
X0041843Y0012383D01*
X0042058Y0012599D01*
X0042267Y0012821D01*
X0042471Y0013048D01*
X0042670Y0013279D01*
X0042863Y0013516D01*
X0043050Y0013757D01*
X0042975Y0013813D01*
X0042789Y0013574D01*
X0042598Y0013339D01*
X0042401Y0013110D01*
X0042198Y0012885D01*
X0041990Y0012664D01*
X0041776Y0012450D01*
X0041558Y0012240D01*
X0041334Y0012036D01*
X0041106Y0011837D01*
X0040872Y0011644D01*
X0040634Y0011457D01*
X0040392Y0011276D01*
X0040145Y0011100D01*
X0039894Y0010931D01*
X0039638Y0010768D01*
X0039379Y0010611D01*
X0039116Y0010461D01*
X0038850Y0010317D01*
X0038580Y0010179D01*
X0038307Y0010048D01*
X0038031Y0009924D01*
X0037751Y0009807D01*
X0037469Y0009697D01*
X0037185Y0009593D01*
X0036898Y0009497D01*
X0036608Y0009407D01*
X0036317Y0009325D01*
X0036024Y0009250D01*
X0035728Y0009182D01*
X0035432Y0009121D01*
X0035134Y0009068D01*
X0034834Y0009022D01*
X0034534Y0008983D01*
X0034233Y0008951D01*
X0033931Y0008927D01*
X0033628Y0008910D01*
X0033326Y0008901D01*
X0033023Y0008899D01*
X0032720Y0008905D01*
X0032418Y0008918D01*
X0032115Y0008938D01*
X0031814Y0008966D01*
X0031513Y0009001D01*
X0031213Y0009043D01*
X0030914Y0009093D01*
X0030617Y0009150D01*
X0030321Y0009214D01*
X0030027Y0009285D01*
X0029734Y0009364D01*
X0029444Y0009450D01*
X0029155Y0009543D01*
X0028870Y0009642D01*
X0028586Y0009749D01*
X0028306Y0009863D01*
X0028028Y0009983D01*
X0027753Y0010111D01*
X0027481Y0010245D01*
X0027213Y0010385D01*
X0026948Y0010532D01*
X0026687Y0010686D01*
X0026430Y0010846D01*
X0026177Y0011012D01*
X0025928Y0011184D01*
X0025683Y0011362D01*
X0025442Y0011547D01*
X0025207Y0011737D01*
X0024976Y0011932D01*
X0024749Y0012134D01*
X0024528Y0012340D01*
X0024312Y0012553D01*
X0024101Y0012770D01*
X0023896Y0012992D01*
X0023696Y0013220D01*
X0023501Y0013452D01*
X0023313Y0013689D01*
X0023130Y0013931D01*
X0022953Y0014176D01*
X0022782Y0014427D01*
X0022618Y0014681D01*
X0022459Y0014939D01*
X0022307Y0015201D01*
X0022162Y0015466D01*
X0022023Y0015735D01*
X0021890Y0016008D01*
X0021765Y0016283D01*
X0021646Y0016562D01*
X0021534Y0016843D01*
X0021429Y0017127D01*
X0021330Y0017414D01*
X0021239Y0017703D01*
X0021155Y0017994D01*
X0021078Y0018287D01*
X0021009Y0018581D01*
X0020946Y0018878D01*
X0020891Y0019175D01*
X0020843Y0019474D01*
X0020802Y0019774D01*
X0020769Y0020076D01*
X0020743Y0020377D01*
X0020725Y0020680D01*
X0020714Y0020982D01*
X0020710Y0021285D01*
X0020714Y0021588D01*
X0020725Y0021890D01*
X0020743Y0022193D01*
X0020769Y0022494D01*
X0020802Y0022796D01*
X0020843Y0023096D01*
X0020891Y0023395D01*
X0020946Y0023692D01*
X0021009Y0023989D01*
X0021078Y0024283D01*
X0021155Y0024576D01*
X0021239Y0024867D01*
X0021330Y0025156D01*
X0021429Y0025443D01*
X0021534Y0025727D01*
X0021646Y0026008D01*
X0021765Y0026287D01*
X0021890Y0026562D01*
X0022023Y0026835D01*
X0022162Y0027104D01*
X0022307Y0027369D01*
X0022459Y0027631D01*
X0022618Y0027889D01*
X0022782Y0028143D01*
X0022953Y0028394D01*
X0023130Y0028639D01*
X0023313Y0028881D01*
X0023501Y0029118D01*
X0023696Y0029350D01*
X0023896Y0029578D01*
X0024101Y0029800D01*
X0024312Y0030017D01*
X0024528Y0030230D01*
X0024749Y0030436D01*
X0024976Y0030638D01*
X0025207Y0030833D01*
X0025442Y0031023D01*
X0025683Y0031208D01*
X0025928Y0031386D01*
X0026177Y0031558D01*
X0026430Y0031724D01*
X0026687Y0031884D01*
X0026948Y0032038D01*
X0027213Y0032185D01*
X0027481Y0032325D01*
X0027753Y0032459D01*
X0028028Y0032587D01*
X0028306Y0032707D01*
X0028586Y0032821D01*
X0028870Y0032928D01*
X0029155Y0033027D01*
X0029444Y0033120D01*
X0029734Y0033206D01*
X0030027Y0033285D01*
X0030321Y0033356D01*
X0030617Y0033420D01*
X0030914Y0033477D01*
X0031213Y0033527D01*
X0031513Y0033569D01*
X0031814Y0033604D01*
X0032115Y0033632D01*
X0032418Y0033652D01*
X0032720Y0033665D01*
X0033023Y0033671D01*
X0033326Y0033669D01*
X0033628Y0033660D01*
X0033931Y0033643D01*
X0034233Y0033619D01*
X0034534Y0033587D01*
X0034834Y0033548D01*
X0035134Y0033502D01*
X0035432Y0033449D01*
X0035728Y0033388D01*
X0036024Y0033320D01*
X0036317Y0033245D01*
X0036608Y0033163D01*
X0036898Y0033073D01*
X0037185Y0032977D01*
X0037469Y0032873D01*
X0037751Y0032763D01*
X0038031Y0032646D01*
X0038307Y0032522D01*
X0038580Y0032391D01*
X0038850Y0032253D01*
X0039116Y0032109D01*
X0039379Y0031959D01*
X0039638Y0031802D01*
X0039894Y0031639D01*
X0040145Y0031470D01*
X0040392Y0031294D01*
X0040634Y0031113D01*
X0040872Y0030926D01*
X0041106Y0030733D01*
X0041334Y0030534D01*
X0041558Y0030330D01*
X0041776Y0030120D01*
X0041990Y0029906D01*
X0042198Y0029685D01*
X0042401Y0029460D01*
X0042598Y0029231D01*
X0042789Y0028996D01*
X0042975Y0028757D01*
X0042900Y0028700D01*
X0042715Y0028938D01*
X0042525Y0029170D01*
X0042330Y0029399D01*
X0042129Y0029622D01*
X0041922Y0029840D01*
X0041710Y0030054D01*
X0041493Y0030262D01*
X0041271Y0030464D01*
X0041044Y0030661D01*
X0040813Y0030853D01*
X0040577Y0031039D01*
X0040336Y0031219D01*
X0040091Y0031393D01*
X0039842Y0031561D01*
X0039588Y0031723D01*
X0039331Y0031878D01*
X0039070Y0032027D01*
X0038806Y0032170D01*
X0038538Y0032307D01*
X0038267Y0032436D01*
X0037993Y0032559D01*
X0037716Y0032676D01*
X0037436Y0032785D01*
X0037153Y0032888D01*
X0036869Y0032984D01*
X0036581Y0033072D01*
X0036292Y0033154D01*
X0036001Y0033229D01*
X0035708Y0033296D01*
X0035414Y0033357D01*
X0035118Y0033410D01*
X0034821Y0033455D01*
X0034523Y0033494D01*
X0034224Y0033525D01*
X0033924Y0033549D01*
X0033624Y0033566D01*
X0033324Y0033575D01*
X0033023Y0033577D01*
X0032723Y0033571D01*
X0032422Y0033559D01*
X0032123Y0033538D01*
X0031823Y0033511D01*
X0031525Y0033476D01*
X0031227Y0033434D01*
X0030931Y0033385D01*
X0030636Y0033328D01*
X0030342Y0033264D01*
X0030050Y0033194D01*
X0029760Y0033116D01*
X0029471Y0033030D01*
X0029185Y0032938D01*
X0028901Y0032839D01*
X0028620Y0032733D01*
X0028342Y0032620D01*
X0028066Y0032501D01*
X0027793Y0032374D01*
X0027524Y0032241D01*
X0027258Y0032102D01*
X0026995Y0031956D01*
X0026736Y0031804D01*
X0026480Y0031645D01*
X0026229Y0031480D01*
X0025982Y0031309D01*
X0025739Y0031132D01*
X0025500Y0030949D01*
X0025266Y0030761D01*
X0025037Y0030567D01*
X0024813Y0030367D01*
X0024593Y0030162D01*
X0024379Y0029951D01*
X0024169Y0029735D01*
X0023965Y0029515D01*
X0023767Y0029289D01*
X0023574Y0029058D01*
X0023387Y0028823D01*
X0023205Y0028584D01*
X0023030Y0028340D01*
X0022860Y0028091D01*
X0022697Y0027839D01*
X0022540Y0027583D01*
X0022389Y0027323D01*
X0022245Y0027059D01*
X0022107Y0026792D01*
X0021975Y0026522D01*
X0021851Y0026249D01*
X0021733Y0025972D01*
X0021622Y0025693D01*
X0021517Y0025411D01*
X0021420Y0025127D01*
X0021329Y0024840D01*
X0021246Y0024551D01*
X0021170Y0024261D01*
X0021100Y0023968D01*
X0021038Y0023674D01*
X0020984Y0023379D01*
X0020936Y0023082D01*
X0020896Y0022784D01*
X0020863Y0022485D01*
X0020837Y0022186D01*
X0020819Y0021886D01*
X0020808Y0021586D01*
X0020804Y0021285D01*
X0020808Y0020984D01*
X0020819Y0020684D01*
X0020837Y0020384D01*
X0020863Y0020085D01*
X0020896Y0019786D01*
X0020936Y0019488D01*
X0020984Y0019191D01*
X0021038Y0018896D01*
X0021100Y0018602D01*
X0021170Y0018309D01*
X0021246Y0018019D01*
X0021329Y0017730D01*
X0021420Y0017443D01*
X0021517Y0017159D01*
X0021622Y0016877D01*
X0021733Y0016598D01*
X0021851Y0016321D01*
X0021975Y0016048D01*
X0022107Y0015778D01*
X0022245Y0015511D01*
X0022389Y0015247D01*
X0022540Y0014987D01*
X0022697Y0014731D01*
X0022860Y0014479D01*
X0023030Y0014230D01*
X0023205Y0013986D01*
X0023387Y0013747D01*
X0023574Y0013512D01*
X0023767Y0013281D01*
X0023965Y0013055D01*
X0024169Y0012835D01*
X0024379Y0012619D01*
X0024593Y0012408D01*
X0024813Y0012203D01*
X0025037Y0012003D01*
X0025266Y0011809D01*
X0025500Y0011621D01*
X0025739Y0011438D01*
X0025982Y0011261D01*
X0026229Y0011090D01*
X0026480Y0010925D01*
X0026736Y0010766D01*
X0026995Y0010614D01*
X0027258Y0010468D01*
X0027524Y0010329D01*
X0027793Y0010196D01*
X0028066Y0010069D01*
X0028342Y0009950D01*
X0028620Y0009837D01*
X0028901Y0009731D01*
X0029185Y0009632D01*
X0029471Y0009540D01*
X0029760Y0009454D01*
X0030050Y0009376D01*
X0030342Y0009306D01*
X0030636Y0009242D01*
X0030931Y0009185D01*
X0031227Y0009136D01*
X0031525Y0009094D01*
X0031823Y0009059D01*
X0032123Y0009032D01*
X0032422Y0009011D01*
X0032723Y0008999D01*
X0033023Y0008993D01*
X0033324Y0008995D01*
X0033624Y0009004D01*
X0033924Y0009021D01*
X0034224Y0009045D01*
X0034523Y0009076D01*
X0034821Y0009115D01*
X0035118Y0009160D01*
X0035414Y0009213D01*
X0035708Y0009274D01*
X0036001Y0009341D01*
X0036292Y0009416D01*
X0036581Y0009498D01*
X0036869Y0009586D01*
X0037153Y0009682D01*
X0037436Y0009785D01*
X0037716Y0009894D01*
X0037993Y0010011D01*
X0038267Y0010134D01*
X0038538Y0010263D01*
X0038806Y0010400D01*
X0039070Y0010543D01*
X0039331Y0010692D01*
X0039588Y0010847D01*
X0039842Y0011009D01*
X0040091Y0011177D01*
X0040336Y0011351D01*
X0040577Y0011531D01*
X0040813Y0011717D01*
X0041044Y0011909D01*
X0041271Y0012106D01*
X0041493Y0012308D01*
X0041710Y0012516D01*
X0041922Y0012730D01*
X0042129Y0012948D01*
X0042330Y0013171D01*
X0042525Y0013400D01*
X0042715Y0013632D01*
X0042900Y0013870D01*
X0042824Y0013926D01*
X0042642Y0013691D01*
X0042453Y0013460D01*
X0042259Y0013233D01*
X0042059Y0013011D01*
X0041854Y0012795D01*
X0041644Y0012583D01*
X0041429Y0012377D01*
X0041209Y0012176D01*
X0040983Y0011980D01*
X0040754Y0011790D01*
X0040519Y0011606D01*
X0040280Y0011427D01*
X0040037Y0011254D01*
X0039790Y0011088D01*
X0039538Y0010927D01*
X0039283Y0010773D01*
X0039024Y0010625D01*
X0038762Y0010483D01*
X0038496Y0010348D01*
X0038227Y0010219D01*
X0037955Y0010097D01*
X0037680Y0009981D01*
X0037402Y0009872D01*
X0037122Y0009771D01*
X0036839Y0009676D01*
X0036554Y0009588D01*
X0036267Y0009507D01*
X0035979Y0009432D01*
X0035688Y0009366D01*
X0035396Y0009306D01*
X0035102Y0009253D01*
X0034807Y0009208D01*
X0034512Y0009169D01*
X0034215Y0009138D01*
X0033918Y0009115D01*
X0033620Y0009098D01*
X0033322Y0009089D01*
X0033024Y0009087D01*
X0032725Y0009093D01*
X0032427Y0009105D01*
X0032130Y0009125D01*
X0031833Y0009153D01*
X0031537Y0009187D01*
X0031241Y0009229D01*
X0030947Y0009278D01*
X0030654Y0009334D01*
X0030363Y0009397D01*
X0030073Y0009468D01*
X0029785Y0009545D01*
X0029499Y0009629D01*
X0029215Y0009721D01*
X0028933Y0009819D01*
X0028654Y0009924D01*
X0028378Y0010036D01*
X0028104Y0010155D01*
X0027834Y0010280D01*
X0027566Y0010412D01*
X0027302Y0010551D01*
X0027041Y0010696D01*
X0026784Y0010847D01*
X0026531Y0011004D01*
X0026282Y0011168D01*
X0026036Y0011338D01*
X0025795Y0011513D01*
X0025558Y0011695D01*
X0025326Y0011882D01*
X0025099Y0012074D01*
X0024876Y0012273D01*
X0024658Y0012476D01*
X0024445Y0012685D01*
X0024237Y0012899D01*
X0024035Y0013119D01*
X0023838Y0013342D01*
X0023647Y0013571D01*
X0023461Y0013805D01*
X0023281Y0014042D01*
X0023107Y0014284D01*
X0022939Y0014531D01*
X0022777Y0014781D01*
X0022621Y0015035D01*
X0022471Y0015293D01*
X0022328Y0015555D01*
X0022191Y0015820D01*
X0022060Y0016088D01*
X0021937Y0016359D01*
X0021820Y0016634D01*
X0021709Y0016911D01*
X0021606Y0017191D01*
X0021509Y0017473D01*
X0021419Y0017757D01*
X0021337Y0018044D01*
X0021261Y0018332D01*
X0021192Y0018622D01*
X0021131Y0018914D01*
X0021076Y0019207D01*
X0021029Y0019502D01*
X0020989Y0019797D01*
X0020956Y0020094D01*
X0020931Y0020391D01*
X0020913Y0020689D01*
X0020902Y0020987D01*
X0020898Y0021285D01*
X0020902Y0021583D01*
X0020913Y0021881D01*
X0020931Y0022179D01*
X0020956Y0022476D01*
X0020989Y0022773D01*
X0021029Y0023068D01*
X0021076Y0023363D01*
X0021131Y0023656D01*
X0021192Y0023948D01*
X0021261Y0024238D01*
X0021337Y0024526D01*
X0021419Y0024813D01*
X0021509Y0025097D01*
X0021606Y0025379D01*
X0021709Y0025659D01*
X0021820Y0025936D01*
X0021937Y0026211D01*
X0022060Y0026482D01*
X0022191Y0026750D01*
X0022328Y0027015D01*
X0022471Y0027277D01*
X0022621Y0027535D01*
X0022777Y0027789D01*
X0022939Y0028039D01*
X0023107Y0028286D01*
X0023281Y0028528D01*
X0023461Y0028765D01*
X0023647Y0028999D01*
X0023838Y0029228D01*
X0024035Y0029451D01*
X0024237Y0029671D01*
X0024445Y0029885D01*
X0024658Y0030094D01*
X0024876Y0030297D01*
X0025099Y0030496D01*
X0025326Y0030688D01*
X0025558Y0030875D01*
X0025795Y0031057D01*
X0026036Y0031232D01*
X0026282Y0031402D01*
X0026531Y0031566D01*
X0026784Y0031723D01*
X0027041Y0031874D01*
X0027302Y0032019D01*
X0027566Y0032158D01*
X0027834Y0032290D01*
X0028104Y0032415D01*
X0028378Y0032534D01*
X0028654Y0032646D01*
X0028933Y0032751D01*
X0029215Y0032849D01*
X0029499Y0032941D01*
X0029785Y0033025D01*
X0030073Y0033102D01*
X0030363Y0033173D01*
X0030654Y0033236D01*
X0030947Y0033292D01*
X0031241Y0033341D01*
X0031537Y0033383D01*
X0031833Y0033417D01*
X0032130Y0033445D01*
X0032427Y0033465D01*
X0032725Y0033477D01*
X0033024Y0033483D01*
X0033322Y0033481D01*
X0033620Y0033472D01*
X0033918Y0033455D01*
X0034215Y0033432D01*
X0034512Y0033401D01*
X0034807Y0033362D01*
X0035102Y0033317D01*
X0035396Y0033264D01*
X0035688Y0033204D01*
X0035979Y0033138D01*
X0036267Y0033063D01*
X0036554Y0032982D01*
X0036839Y0032894D01*
X0037122Y0032799D01*
X0037402Y0032698D01*
X0037680Y0032589D01*
X0037955Y0032473D01*
X0038227Y0032351D01*
X0038496Y0032222D01*
X0038762Y0032087D01*
X0039024Y0031945D01*
X0039283Y0031797D01*
X0039538Y0031643D01*
X0039790Y0031482D01*
X0040037Y0031316D01*
X0040280Y0031143D01*
X0040519Y0030964D01*
X0040754Y0030780D01*
X0040983Y0030590D01*
X0041209Y0030394D01*
X0041429Y0030193D01*
X0041644Y0029987D01*
X0041854Y0029775D01*
X0042059Y0029559D01*
X0042259Y0029337D01*
X0042453Y0029110D01*
X0042642Y0028879D01*
X0042824Y0028644D01*
X0042749Y0028587D01*
X0042568Y0028821D01*
X0042381Y0029050D01*
X0042188Y0029275D01*
X0041990Y0029495D01*
X0041787Y0029710D01*
X0041578Y0029920D01*
X0041364Y0030125D01*
X0041146Y0030324D01*
X0040922Y0030518D01*
X0040694Y0030707D01*
X0040462Y0030890D01*
X0040225Y0031067D01*
X0039983Y0031238D01*
X0039738Y0031404D01*
X0039489Y0031563D01*
X0039235Y0031716D01*
X0038979Y0031863D01*
X0038718Y0032004D01*
X0038454Y0032138D01*
X0038187Y0032266D01*
X0037917Y0032387D01*
X0037645Y0032502D01*
X0037369Y0032610D01*
X0037091Y0032711D01*
X0036810Y0032805D01*
X0036528Y0032892D01*
X0036243Y0032973D01*
X0035956Y0033046D01*
X0035668Y0033113D01*
X0035378Y0033172D01*
X0035086Y0033224D01*
X0034794Y0033269D01*
X0034500Y0033307D01*
X0034206Y0033338D01*
X0033911Y0033362D01*
X0033616Y0033378D01*
X0033320Y0033387D01*
X0033024Y0033389D01*
X0032728Y0033383D01*
X0032432Y0033371D01*
X0032137Y0033351D01*
X0031842Y0033324D01*
X0031548Y0033290D01*
X0031255Y0033248D01*
X0030963Y0033200D01*
X0030673Y0033144D01*
X0030384Y0033081D01*
X0030096Y0033011D01*
X0029810Y0032934D01*
X0029526Y0032851D01*
X0029245Y0032760D01*
X0028965Y0032662D01*
X0028688Y0032558D01*
X0028414Y0032447D01*
X0028143Y0032329D01*
X0027874Y0032205D01*
X0027609Y0032074D01*
X0027347Y0031936D01*
X0027088Y0031793D01*
X0026833Y0031643D01*
X0026581Y0031486D01*
X0026334Y0031324D01*
X0026091Y0031156D01*
X0025851Y0030981D01*
X0025616Y0030801D01*
X0025386Y0030616D01*
X0025160Y0030424D01*
X0024939Y0030228D01*
X0024723Y0030026D01*
X0024512Y0029818D01*
X0024306Y0029606D01*
X0024105Y0029388D01*
X0023909Y0029166D01*
X0023719Y0028939D01*
X0023535Y0028708D01*
X0023357Y0028472D01*
X0023184Y0028232D01*
X0023017Y0027987D01*
X0022856Y0027739D01*
X0022701Y0027486D01*
X0022553Y0027230D01*
X0022411Y0026971D01*
X0022275Y0026708D01*
X0022145Y0026442D01*
X0022023Y0026173D01*
X0021906Y0025900D01*
X0021797Y0025625D01*
X0021694Y0025348D01*
X0021598Y0025068D01*
X0021509Y0024786D01*
X0021427Y0024501D01*
X0021352Y0024215D01*
X0021284Y0023927D01*
X0021223Y0023638D01*
X0021169Y0023347D01*
X0021122Y0023054D01*
X0021082Y0022761D01*
X0021050Y0022467D01*
X0021025Y0022172D01*
X0021006Y0021877D01*
X0020996Y0021581D01*
X0020992Y0021285D01*
X0020996Y0020989D01*
X0021006Y0020693D01*
X0021025Y0020398D01*
X0021050Y0020103D01*
X0021082Y0019809D01*
X0021122Y0019516D01*
X0021169Y0019223D01*
X0021223Y0018932D01*
X0021284Y0018643D01*
X0021352Y0018355D01*
X0021427Y0018069D01*
X0021509Y0017784D01*
X0021598Y0017502D01*
X0021694Y0017222D01*
X0021797Y0016945D01*
X0021906Y0016670D01*
X0022023Y0016397D01*
X0022145Y0016128D01*
X0022275Y0015862D01*
X0022411Y0015599D01*
X0022553Y0015340D01*
X0022701Y0015084D01*
X0022856Y0014831D01*
X0023017Y0014583D01*
X0023184Y0014338D01*
X0023357Y0014098D01*
X0023535Y0013862D01*
X0023719Y0013631D01*
X0023909Y0013404D01*
X0024105Y0013182D01*
X0024306Y0012964D01*
X0024512Y0012752D01*
X0024723Y0012544D01*
X0024939Y0012342D01*
X0025160Y0012146D01*
X0025386Y0011954D01*
X0025616Y0011769D01*
X0025851Y0011589D01*
X0026091Y0011414D01*
X0026334Y0011246D01*
X0026581Y0011084D01*
X0026833Y0010927D01*
X0027088Y0010777D01*
X0027347Y0010634D01*
X0027609Y0010496D01*
X0027874Y0010365D01*
X0028143Y0010241D01*
X0028414Y0010123D01*
X0028688Y0010012D01*
X0028965Y0009908D01*
X0029245Y0009810D01*
X0029526Y0009719D01*
X0029810Y0009636D01*
X0030096Y0009559D01*
X0030384Y0009489D01*
X0030673Y0009426D01*
X0030963Y0009370D01*
X0031255Y0009322D01*
X0031548Y0009280D01*
X0031842Y0009246D01*
X0032137Y0009219D01*
X0032432Y0009199D01*
X0032728Y0009187D01*
X0033024Y0009181D01*
X0033320Y0009183D01*
X0033616Y0009192D01*
X0033911Y0009208D01*
X0034206Y0009232D01*
X0034500Y0009263D01*
X0034794Y0009301D01*
X0035086Y0009346D01*
X0035378Y0009398D01*
X0035668Y0009457D01*
X0035956Y0009524D01*
X0036243Y0009597D01*
X0036528Y0009678D01*
X0036810Y0009765D01*
X0037091Y0009859D01*
X0037369Y0009960D01*
X0037645Y0010068D01*
X0037917Y0010183D01*
X0038187Y0010304D01*
X0038454Y0010432D01*
X0038718Y0010566D01*
X0038979Y0010707D01*
X0039235Y0010854D01*
X0039489Y0011007D01*
X0039738Y0011166D01*
X0039983Y0011332D01*
X0040225Y0011503D01*
X0040462Y0011680D01*
X0040694Y0011863D01*
X0040922Y0012052D01*
X0041146Y0012246D01*
X0041364Y0012445D01*
X0041578Y0012650D01*
X0041787Y0012860D01*
X0041990Y0013075D01*
X0042188Y0013295D01*
X0042381Y0013520D01*
X0042568Y0013749D01*
X0042749Y0013983D01*
D13*
X0023096Y0021285D02*
X0023099Y0021530D01*
X0023108Y0021776D01*
X0023123Y0022021D01*
X0023144Y0022265D01*
X0023171Y0022509D01*
X0023204Y0022752D01*
X0023243Y0022995D01*
X0023288Y0023236D01*
X0023339Y0023476D01*
X0023396Y0023715D01*
X0023458Y0023952D01*
X0023527Y0024188D01*
X0023601Y0024422D01*
X0023681Y0024654D01*
X0023766Y0024884D01*
X0023857Y0025112D01*
X0023954Y0025337D01*
X0024056Y0025561D01*
X0024164Y0025781D01*
X0024277Y0025999D01*
X0024395Y0026214D01*
X0024519Y0026426D01*
X0024647Y0026635D01*
X0024781Y0026841D01*
X0024920Y0027043D01*
X0025064Y0027242D01*
X0025213Y0027437D01*
X0025366Y0027629D01*
X0025524Y0027817D01*
X0025686Y0028001D01*
X0025854Y0028180D01*
X0026025Y0028356D01*
X0026201Y0028527D01*
X0026380Y0028695D01*
X0026564Y0028857D01*
X0026752Y0029015D01*
X0026944Y0029168D01*
X0027139Y0029317D01*
X0027338Y0029461D01*
X0027540Y0029600D01*
X0027746Y0029734D01*
X0027955Y0029862D01*
X0028167Y0029986D01*
X0028382Y0030104D01*
X0028600Y0030217D01*
X0028820Y0030325D01*
X0029044Y0030427D01*
X0029269Y0030524D01*
X0029497Y0030615D01*
X0029727Y0030700D01*
X0029959Y0030780D01*
X0030193Y0030854D01*
X0030429Y0030923D01*
X0030666Y0030985D01*
X0030905Y0031042D01*
X0031145Y0031093D01*
X0031386Y0031138D01*
X0031629Y0031177D01*
X0031872Y0031210D01*
X0032116Y0031237D01*
X0032360Y0031258D01*
X0032605Y0031273D01*
X0032851Y0031282D01*
X0033096Y0031285D01*
X0033341Y0031282D01*
X0033587Y0031273D01*
X0033832Y0031258D01*
X0034076Y0031237D01*
X0034320Y0031210D01*
X0034563Y0031177D01*
X0034806Y0031138D01*
X0035047Y0031093D01*
X0035287Y0031042D01*
X0035526Y0030985D01*
X0035763Y0030923D01*
X0035999Y0030854D01*
X0036233Y0030780D01*
X0036465Y0030700D01*
X0036695Y0030615D01*
X0036923Y0030524D01*
X0037148Y0030427D01*
X0037372Y0030325D01*
X0037592Y0030217D01*
X0037810Y0030104D01*
X0038025Y0029986D01*
X0038237Y0029862D01*
X0038446Y0029734D01*
X0038652Y0029600D01*
X0038854Y0029461D01*
X0039053Y0029317D01*
X0039248Y0029168D01*
X0039440Y0029015D01*
X0039628Y0028857D01*
X0039812Y0028695D01*
X0039991Y0028527D01*
X0040167Y0028356D01*
X0040338Y0028180D01*
X0040506Y0028001D01*
X0040668Y0027817D01*
X0040826Y0027629D01*
X0040979Y0027437D01*
X0041128Y0027242D01*
X0041272Y0027043D01*
X0041411Y0026841D01*
X0041545Y0026635D01*
X0041673Y0026426D01*
X0041797Y0026214D01*
X0041915Y0025999D01*
X0042028Y0025781D01*
X0042136Y0025561D01*
X0042238Y0025337D01*
X0042335Y0025112D01*
X0042426Y0024884D01*
X0042511Y0024654D01*
X0042591Y0024422D01*
X0042665Y0024188D01*
X0042734Y0023952D01*
X0042796Y0023715D01*
X0042853Y0023476D01*
X0042904Y0023236D01*
X0042949Y0022995D01*
X0042988Y0022752D01*
X0043021Y0022509D01*
X0043048Y0022265D01*
X0043069Y0022021D01*
X0043084Y0021776D01*
X0043093Y0021530D01*
X0043096Y0021285D01*
X0043093Y0021040D01*
X0043084Y0020794D01*
X0043069Y0020549D01*
X0043048Y0020305D01*
X0043021Y0020061D01*
X0042988Y0019818D01*
X0042949Y0019575D01*
X0042904Y0019334D01*
X0042853Y0019094D01*
X0042796Y0018855D01*
X0042734Y0018618D01*
X0042665Y0018382D01*
X0042591Y0018148D01*
X0042511Y0017916D01*
X0042426Y0017686D01*
X0042335Y0017458D01*
X0042238Y0017233D01*
X0042136Y0017009D01*
X0042028Y0016789D01*
X0041915Y0016571D01*
X0041797Y0016356D01*
X0041673Y0016144D01*
X0041545Y0015935D01*
X0041411Y0015729D01*
X0041272Y0015527D01*
X0041128Y0015328D01*
X0040979Y0015133D01*
X0040826Y0014941D01*
X0040668Y0014753D01*
X0040506Y0014569D01*
X0040338Y0014390D01*
X0040167Y0014214D01*
X0039991Y0014043D01*
X0039812Y0013875D01*
X0039628Y0013713D01*
X0039440Y0013555D01*
X0039248Y0013402D01*
X0039053Y0013253D01*
X0038854Y0013109D01*
X0038652Y0012970D01*
X0038446Y0012836D01*
X0038237Y0012708D01*
X0038025Y0012584D01*
X0037810Y0012466D01*
X0037592Y0012353D01*
X0037372Y0012245D01*
X0037148Y0012143D01*
X0036923Y0012046D01*
X0036695Y0011955D01*
X0036465Y0011870D01*
X0036233Y0011790D01*
X0035999Y0011716D01*
X0035763Y0011647D01*
X0035526Y0011585D01*
X0035287Y0011528D01*
X0035047Y0011477D01*
X0034806Y0011432D01*
X0034563Y0011393D01*
X0034320Y0011360D01*
X0034076Y0011333D01*
X0033832Y0011312D01*
X0033587Y0011297D01*
X0033341Y0011288D01*
X0033096Y0011285D01*
X0032851Y0011288D01*
X0032605Y0011297D01*
X0032360Y0011312D01*
X0032116Y0011333D01*
X0031872Y0011360D01*
X0031629Y0011393D01*
X0031386Y0011432D01*
X0031145Y0011477D01*
X0030905Y0011528D01*
X0030666Y0011585D01*
X0030429Y0011647D01*
X0030193Y0011716D01*
X0029959Y0011790D01*
X0029727Y0011870D01*
X0029497Y0011955D01*
X0029269Y0012046D01*
X0029044Y0012143D01*
X0028820Y0012245D01*
X0028600Y0012353D01*
X0028382Y0012466D01*
X0028167Y0012584D01*
X0027955Y0012708D01*
X0027746Y0012836D01*
X0027540Y0012970D01*
X0027338Y0013109D01*
X0027139Y0013253D01*
X0026944Y0013402D01*
X0026752Y0013555D01*
X0026564Y0013713D01*
X0026380Y0013875D01*
X0026201Y0014043D01*
X0026025Y0014214D01*
X0025854Y0014390D01*
X0025686Y0014569D01*
X0025524Y0014753D01*
X0025366Y0014941D01*
X0025213Y0015133D01*
X0025064Y0015328D01*
X0024920Y0015527D01*
X0024781Y0015729D01*
X0024647Y0015935D01*
X0024519Y0016144D01*
X0024395Y0016356D01*
X0024277Y0016571D01*
X0024164Y0016789D01*
X0024056Y0017009D01*
X0023954Y0017233D01*
X0023857Y0017458D01*
X0023766Y0017686D01*
X0023681Y0017916D01*
X0023601Y0018148D01*
X0023527Y0018382D01*
X0023458Y0018618D01*
X0023396Y0018855D01*
X0023339Y0019094D01*
X0023288Y0019334D01*
X0023243Y0019575D01*
X0023204Y0019818D01*
X0023171Y0020061D01*
X0023144Y0020305D01*
X0023123Y0020549D01*
X0023108Y0020794D01*
X0023099Y0021040D01*
X0023096Y0021285D01*
M02*
