G75*
%MOIN*%
%OFA0B0*%
%FSLAX25Y25*%
%IPPOS*%
%LPD*%
%AMOC8*
5,1,8,0,0,1.08239X$1,22.5*
%
%ADD10C,0.00600*%
%ADD11C,0.00500*%
%ADD12R,0.03000X0.01500*%
D10*
X0018474Y0029262D02*
X0017406Y0030330D01*
X0017406Y0031397D01*
X0018474Y0032465D01*
X0019542Y0032465D01*
X0018474Y0032465D02*
X0017406Y0033533D01*
X0017406Y0034600D01*
X0018474Y0035668D01*
X0020609Y0035668D01*
X0021677Y0034600D01*
X0023852Y0035668D02*
X0023852Y0031397D01*
X0025987Y0029262D01*
X0028122Y0031397D01*
X0028122Y0035668D01*
X0030297Y0034600D02*
X0030297Y0033533D01*
X0031365Y0032465D01*
X0030297Y0031397D01*
X0030297Y0030330D01*
X0031365Y0029262D01*
X0033500Y0029262D01*
X0034568Y0030330D01*
X0032433Y0032465D02*
X0031365Y0032465D01*
X0030297Y0034600D02*
X0031365Y0035668D01*
X0033500Y0035668D01*
X0034568Y0034600D01*
X0045026Y0034923D02*
X0046093Y0035991D01*
X0048228Y0035991D01*
X0049296Y0034923D01*
X0049296Y0030653D01*
X0048228Y0029585D01*
X0046093Y0029585D01*
X0045026Y0030653D01*
X0045026Y0032788D01*
X0047161Y0032788D01*
X0047796Y0071585D02*
X0047796Y0077991D01*
X0044593Y0077991D01*
X0043526Y0076923D01*
X0043526Y0074788D01*
X0044593Y0073720D01*
X0047796Y0073720D01*
X0045661Y0073720D02*
X0043526Y0071585D01*
X0035772Y0071191D02*
X0032570Y0071191D01*
X0031502Y0072259D01*
X0031502Y0073326D01*
X0032570Y0074394D01*
X0035772Y0074394D01*
X0035772Y0071191D02*
X0035772Y0077597D01*
X0032570Y0077597D01*
X0031502Y0076529D01*
X0031502Y0075462D01*
X0032570Y0074394D01*
X0026060Y0072349D02*
X0024992Y0071282D01*
X0022857Y0071282D01*
X0021790Y0072349D01*
X0021790Y0074485D01*
X0023925Y0074485D01*
X0026060Y0076620D02*
X0024992Y0077687D01*
X0022857Y0077687D01*
X0021790Y0076620D01*
X0026060Y0076620D02*
X0026060Y0072349D01*
X0021677Y0030330D02*
X0020609Y0029262D01*
X0018474Y0029262D01*
D11*
X0018096Y0044285D02*
X0018096Y0064285D01*
X0020596Y0064285D01*
X0019596Y0065285D02*
X0019596Y0070285D01*
X0026096Y0064285D02*
X0029596Y0064285D01*
X0036096Y0064285D02*
X0040096Y0064285D01*
X0045596Y0064285D02*
X0048096Y0064285D01*
X0048096Y0044285D01*
X0045596Y0044285D01*
X0040096Y0044285D02*
X0036096Y0044285D01*
X0030096Y0044285D02*
X0026096Y0044285D01*
X0020596Y0044285D02*
X0018096Y0044285D01*
D12*
X0013596Y0082285D03*
X0008096Y0082285D03*
X0051096Y0024285D03*
X0052096Y0081285D03*
M02*
