  0
SECTION
  2
HEADER
  9
$ACADVER
  1
AC1009
  9
$FILLMODE
 70
0
  9
$EXTMIN
 10
12.7000
 20
-2.5400
 30
0.0000
  9
$EXTMAX
 10
78.7400
 20
55.7530
 30
0.0000
  0
ENDSEC
  0
SECTION
  2
TABLES
  0
TABLE
  2
LTYPE
 70
1
  0
LTYPE
  2
CONTINUOUS
 70
64
  3
Solid line
 72
65
 73
0
 40
0
  0
ENDTAB
  0
TABLE
  2
LAYER
 70
255
  0
LAYER
  2
20
 70
64
 62
178
  6
CONTINUOUS
  0
LAYER
  2
22
 70
64
 62
2
  6
CONTINUOUS
  0
ENDTAB
  0
ENDSEC
  0
SECTION
  2
BLOCKS
  0
BLOCK
  8
0
  2
RECT
 70
64
 10
0.0000
 20
0.0000
 30
0.0000
  3
RECT
  0
SOLID
  8
0
 10
-0.5000
 20
-0.5000
 30
0.0000
 11
0.5000
 21
-0.5000
 31
0.0000
 12
-0.5000
 22
0.5000
 32
0.0000
 13
0.5000
 23
0.5000
 33
0.0000
  0
ENDBLK
  8
0
  0
BLOCK
  8
0
  2
PIE
 70
64
 10
0.0000
 20
0.0000
 30
0.0000
  3
PIE
  0
CIRCLE
  8
0
 10
0.0000
 20
0.0000
 30
0.0000
 40
0.5000
  0
ENDBLK
  8
0
  0
BLOCK
  8
0
  2
OCTAGONP
 70
64
 10
0.0000
 20
0.0000
 30
0.0000
  3
OCTAGONP
  0
POLYLINE
  8
0
 66
1
 10
0.0000
 20
0.0000
 30
0.0000
 40
0.0000
 41
0.0000
 70
1
  0
VERTEX
  8
0
 10
-0.5000
 20
-0.2071
 30
0.0000
  0
VERTEX
  8
0
 10
-0.5000
 20
0.2071
 30
0.0000
  0
VERTEX
  8
0
 10
-0.2071
 20
0.5000
 30
0.0000
  0
VERTEX
  8
0
 10
0.2071
 20
0.5000
 30
0.0000
  0
VERTEX
  8
0
 10
0.5000
 20
0.2071
 30
0.0000
  0
VERTEX
  8
0
 10
0.5000
 20
-0.2071
 30
0.0000
  0
VERTEX
  8
0
 10
0.2071
 20
-0.5000
 30
0.0000
  0
VERTEX
  8
0
 10
-0.2071
 20
-0.5000
 30
0.0000
  0
SEQEND
  8
0
  0
ENDBLK
  8
0
  0
BLOCK
  8
0
  2
SQUAREP
 70
64
 10
0.0000
 20
0.0000
 30
0.0000
  3
SQUAREP
  0
SOLID
  8
0
 10
-0.5000
 20
-0.5000
 30
0.0000
 11
0.5000
 21
-0.5000
 31
0.0000
 12
-0.5000
 22
0.5000
 32
0.0000
 13
0.5000
 23
0.5000
 33
0.0000
  0
ENDBLK
  8
0
  0
BLOCK
  8
0
  2
ROUNDP
 70
64
 10
0.0000
 20
0.0000
 30
0.0000
  3
ROUNDP
  0
CIRCLE
  8
0
 10
0.0000
 20
0.0000
 30
0.0000
 40
0.5000
  0
ENDBLK
  8
0
  0
BLOCK
  8
0
  2
ANNULUSP
 70
64
 10
0.0000
 20
0.0000
 30
0.0000
  3
ANNULUSP
  0
CIRCLE
  8
0
 10
0.0000
 20
0.0000
 30
0.0000
 40
0.5000
  0
ENDBLK
  8
0
  0
BLOCK
  8
0
  2
THERMALP
 70
64
 10
0.0000
 20
0.0000
 30
0.0000
  3
THERMALP
  0
LINE
  8
0
 10
-0.2379
 20
0.4500
 30
0.0000
 11
0.2379
 21
0.4500
 31
0.0000
  0
LINE
  8
0
 10
0.4500
 20
0.2379
 30
0.0000
 11
0.4500
 21
-0.2379
 31
0.0000
  0
LINE
  8
0
 10
0.2379
 20
-0.4500
 30
0.0000
 11
-0.2379
 21
-0.4500
 31
0.0000
  0
LINE
  8
0
 10
-0.4500
 20
-0.2379
 30
0.0000
 11
-0.4500
 21
0.2379
 31
0.0000
  0
ENDBLK
  8
0
  0
BLOCK
  8
0
  2
OCTAGONV
 70
64
 10
0.0000
 20
0.0000
 30
0.0000
  3
OCTAGONV
  0
POLYLINE
  8
0
 66
1
 10
0.0000
 20
0.0000
 30
0.0000
 40
0.0000
 41
0.0000
 70
1
  0
VERTEX
  8
0
 10
-0.5000
 20
-0.2071
 30
0.0000
  0
VERTEX
  8
0
 10
-0.5000
 20
0.2071
 30
0.0000
  0
VERTEX
  8
0
 10
-0.2071
 20
0.5000
 30
0.0000
  0
VERTEX
  8
0
 10
0.2071
 20
0.5000
 30
0.0000
  0
VERTEX
  8
0
 10
0.5000
 20
0.2071
 30
0.0000
  0
VERTEX
  8
0
 10
0.5000
 20
-0.2071
 30
0.0000
  0
VERTEX
  8
0
 10
0.2071
 20
-0.5000
 30
0.0000
  0
VERTEX
  8
0
 10
-0.2071
 20
-0.5000
 30
0.0000
  0
SEQEND
  8
0
  0
ENDBLK
  8
0
  0
BLOCK
  8
0
  2
SQUAREV
 70
64
 10
0.0000
 20
0.0000
 30
0.0000
  3
SQUAREV
  0
SOLID
  8
0
 10
-0.5000
 20
-0.5000
 30
0.0000
 11
0.5000
 21
-0.5000
 31
0.0000
 12
-0.5000
 22
0.5000
 32
0.0000
 13
0.5000
 23
0.5000
 33
0.0000
  0
ENDBLK
  8
0
  0
BLOCK
  8
0
  2
ROUNDV
 70
64
 10
0.0000
 20
0.0000
 30
0.0000
  3
ROUNDV
  0
CIRCLE
  8
0
 10
0.0000
 20
0.0000
 30
0.0000
 40
0.5000
  0
ENDBLK
  8
0
  0
BLOCK
  8
0
  2
ANNULUSV
 70
64
 10
0.0000
 20
0.0000
 30
0.0000
  3
ANNULUSV
  0
CIRCLE
  8
0
 10
0.0000
 20
0.0000
 30
0.0000
 40
0.5000
  0
ENDBLK
  8
0
  0
BLOCK
  8
0
  2
THERMALV
 70
64
 10
0.0000
 20
0.0000
 30
0.0000
  3
THERMALV
  0
LINE
  8
0
 10
-0.2379
 20
0.4500
 30
0.0000
 11
0.2379
 21
0.4500
 31
0.0000
  0
LINE
  8
0
 10
0.4500
 20
0.2379
 30
0.0000
 11
0.4500
 21
-0.2379
 31
0.0000
  0
LINE
  8
0
 10
0.2379
 20
-0.4500
 30
0.0000
 11
-0.2379
 21
-0.4500
 31
0.0000
  0
LINE
  8
0
 10
-0.4500
 20
-0.2379
 30
0.0000
 11
-0.4500
 21
0.2379
 31
0.0000
  0
ENDBLK
  8
0
  0
BLOCK
  8
0
  2
LONGP100
 70
64
 10
0.0000
 20
0.0000
 30
0.0000
  3
LONGP100
  0
POLYLINE
  8
0
 66
1
 10
0.0000
 20
0.0000
 30
0.0000
 40
0.0000
 41
0.0000
 70
1
  0
VERTEX
  8
0
 10
-0.5000
 20
-0.5000
 30
0.0000
  0
VERTEX
  8
0
 10
0.5000
 20
-0.5000
 30
0.0000
 42
1.0000
  0
VERTEX
  8
0
 10
0.5000
 20
0.5000
 30
0.0000
  0
VERTEX
  8
0
 10
-0.5000
 20
0.5000
 30
0.0000
 42
1.0000
  0
SEQEND
  8
0
  0
ENDBLK
  8
0
  0
ENDSEC
  0
SECTION
  2
ENTITIES
  0
ARC
  8
20
 10
52.6844
 20
6.8571
 30
0.0000
 40
8.2681
 50
53.0195
 51
107.7410
  0
ARC
  8
20
 10
30.6564
 20
-36.9876
 30
0.0000
 40
57.2211
 50
53.0864
 51
61.8435
  0
ARC
  8
20
 10
69.4734
 20
14.6861
 30
0.0000
 40
7.4081
 50
233.0864
 51
278.8411
  0
ARC
  8
20
 10
70.2874
 20
9.4529
 30
0.0000
 40
2.1120
 50
278.8411
 51
5.4089
  0
ARC
  8
20
 10
67.9174
 20
9.2285
 30
0.0000
 40
4.4926
 50
5.4089
 51
37.0921
  0
ARC
  8
20
 10
69.4860
 20
10.4145
 30
0.0000
 40
2.5262
 50
37.0921
 51
135.2798
  0
LINE
  8
20
 10
67.6910
 20
12.1920
 30
0.0000
 11
68.7070
 21
13.4620
 31
0.0000
  0
ARC
  8
20
 10
70.2945
 20
12.1920
 30
0.0000
 40
2.0330
 50
88.2101
 51
141.3402
  0
ARC
  8
20
 10
70.2185
 20
9.7594
 30
0.0000
 40
4.4668
 50
36.9748
 51
88.2101
  0
ARC
  8
20
 10
68.0647
 20
8.1379
 30
0.0000
 40
7.1627
 50
303.4130
 51
36.9748
  0
ARC
  8
20
 10
39.2636
 20
6.8571
 30
0.0000
 40
8.2681
 50
72.2590
 51
126.9805
  0
ARC
  8
20
 10
61.2916
 20
-36.9876
 30
0.0000
 40
57.2211
 50
118.1565
 51
126.9136
  0
ARC
  8
20
 10
22.4746
 20
14.6861
 30
0.0000
 40
7.4081
 50
261.1589
 51
306.9136
  0
ARC
  8
20
 10
21.6606
 20
9.4529
 30
0.0000
 40
2.1120
 50
174.5911
 51
261.1589
  0
ARC
  8
20
 10
24.0306
 20
9.2285
 30
0.0000
 40
4.4926
 50
142.9079
 51
174.5911
  0
ARC
  8
20
 10
22.4620
 20
10.4145
 30
0.0000
 40
2.5262
 50
44.7202
 51
142.9079
  0
LINE
  8
20
 10
24.2570
 20
12.1920
 30
0.0000
 11
23.2410
 21
13.4620
 31
0.0000
  0
ARC
  8
20
 10
21.6535
 20
12.1920
 30
0.0000
 40
2.0330
 50
38.6598
 51
91.7899
  0
ARC
  8
20
 10
21.7295
 20
9.7594
 30
0.0000
 40
4.4668
 50
91.7899
 51
143.0252
  0
ARC
  8
20
 10
23.8833
 20
8.1379
 30
0.0000
 40
7.1627
 50
143.0252
 51
236.5870
  0
ARC
  8
20
 10
29.9733
 20
30.2443
 30
0.0000
 40
30.3583
 50
256.2024
 51
301.8072
  0
LINE
  8
20
 10
41.7830
 20
14.7320
 30
0.0000
 11
41.7830
 21
10.9220
 31
0.0000
  0
LINE
  8
20
 10
41.7830
 20
10.9220
 30
0.0000
 11
43.6880
 21
10.9220
 31
0.0000
  0
LINE
  8
20
 10
43.6880
 20
10.9220
 30
0.0000
 11
43.6880
 21
11.9380
 31
0.0000
  0
LINE
  8
20
 10
43.6880
 20
11.9380
 30
0.0000
 11
48.2600
 21
11.9380
 31
0.0000
  0
LINE
  8
20
 10
48.2600
 20
11.9380
 30
0.0000
 11
48.2600
 21
10.9220
 31
0.0000
  0
LINE
  8
20
 10
48.2600
 20
10.9220
 30
0.0000
 11
50.1650
 21
10.9220
 31
0.0000
  0
LINE
  8
20
 10
50.1650
 20
10.9220
 30
0.0000
 11
50.1650
 21
14.7320
 31
0.0000
  0
ARC
  8
20
 10
27.1524
 20
13.0933
 30
0.0000
 40
13.0993
 50
236.5870
 51
250.2829
  0
ARC
  8
20
 10
61.9747
 20
30.2443
 30
0.0000
 40
30.3583
 50
238.1928
 51
283.7976
  0
ARC
  8
20
 10
64.7956
 20
13.0933
 30
0.0000
 40
13.0993
 50
289.7171
 51
303.4130
  0
LINE
  8
22
 10
48.2689
 20
5.8039
 30
0.0000
 11
48.2689
 21
6.5411
 31
0.0000
  0
LINE
  8
22
 10
48.2689
 20
6.5411
 30
0.0000
 11
47.9003
 21
6.5411
 31
0.0000
  0
LINE
  8
22
 10
47.9003
 20
6.5411
 30
0.0000
 11
47.7774
 21
6.4183
 31
0.0000
  0
LINE
  8
22
 10
47.7774
 20
6.4183
 30
0.0000
 11
47.7774
 21
6.2954
 31
0.0000
  0
LINE
  8
22
 10
47.7774
 20
6.2954
 30
0.0000
 11
47.9003
 21
6.1725
 31
0.0000
  0
LINE
  8
22
 10
47.9003
 20
6.1725
 30
0.0000
 11
47.7774
 21
6.0496
 31
0.0000
  0
LINE
  8
22
 10
47.7774
 20
6.0496
 30
0.0000
 11
47.7774
 21
5.9268
 31
0.0000
  0
LINE
  8
22
 10
47.7774
 20
5.9268
 30
0.0000
 11
47.9003
 21
5.8039
 31
0.0000
  0
LINE
  8
22
 10
47.9003
 20
5.8039
 30
0.0000
 11
48.2689
 21
5.8039
 31
0.0000
  0
LINE
  8
22
 10
48.2689
 20
6.1725
 30
0.0000
 11
47.9003
 21
6.1725
 31
0.0000
  0
LINE
  8
22
 10
47.3976
 20
6.2954
 30
0.0000
 11
47.1519
 21
6.2954
 31
0.0000
  0
LINE
  8
22
 10
47.1519
 20
6.2954
 30
0.0000
 11
47.0290
 21
6.1725
 31
0.0000
  0
LINE
  8
22
 10
47.0290
 20
6.1725
 30
0.0000
 11
47.0290
 21
5.8039
 31
0.0000
  0
LINE
  8
22
 10
47.0290
 20
5.8039
 30
0.0000
 11
47.3976
 21
5.8039
 31
0.0000
  0
LINE
  8
22
 10
47.3976
 20
5.8039
 30
0.0000
 11
47.5205
 21
5.9268
 31
0.0000
  0
LINE
  8
22
 10
47.5205
 20
5.9268
 30
0.0000
 11
47.3976
 21
6.0496
 31
0.0000
  0
LINE
  8
22
 10
47.3976
 20
6.0496
 30
0.0000
 11
47.0290
 21
6.0496
 31
0.0000
  0
LINE
  8
22
 10
46.6492
 20
6.4183
 30
0.0000
 11
46.6492
 21
5.9268
 31
0.0000
  0
LINE
  8
22
 10
46.6492
 20
5.9268
 30
0.0000
 11
46.5263
 21
5.8039
 31
0.0000
  0
LINE
  8
22
 10
46.7721
 20
6.2954
 30
0.0000
 11
46.5263
 21
6.2954
 31
0.0000
  0
LINE
  8
22
 10
46.1503
 20
6.4183
 30
0.0000
 11
46.1503
 21
5.9268
 31
0.0000
  0
LINE
  8
22
 10
46.1503
 20
5.9268
 30
0.0000
 11
46.0274
 21
5.8039
 31
0.0000
  0
LINE
  8
22
 10
46.2731
 20
6.2954
 30
0.0000
 11
46.0274
 21
6.2954
 31
0.0000
  0
LINE
  8
22
 10
45.4056
 20
5.8039
 30
0.0000
 11
45.6513
 21
5.8039
 31
0.0000
  0
LINE
  8
22
 10
45.6513
 20
5.8039
 30
0.0000
 11
45.7742
 21
5.9268
 31
0.0000
  0
LINE
  8
22
 10
45.7742
 20
5.9268
 30
0.0000
 11
45.7742
 21
6.1725
 31
0.0000
  0
LINE
  8
22
 10
45.7742
 20
6.1725
 30
0.0000
 11
45.6513
 21
6.2954
 31
0.0000
  0
LINE
  8
22
 10
45.6513
 20
6.2954
 30
0.0000
 11
45.4056
 21
6.2954
 31
0.0000
  0
LINE
  8
22
 10
45.4056
 20
6.2954
 30
0.0000
 11
45.2827
 21
6.1725
 31
0.0000
  0
LINE
  8
22
 10
45.2827
 20
6.1725
 30
0.0000
 11
45.2827
 21
6.0496
 31
0.0000
  0
LINE
  8
22
 10
45.2827
 20
6.0496
 30
0.0000
 11
45.7742
 21
6.0496
 31
0.0000
  0
LINE
  8
22
 10
45.0258
 20
5.8039
 30
0.0000
 11
45.0258
 21
6.2954
 31
0.0000
  0
LINE
  8
22
 10
45.0258
 20
6.0496
 30
0.0000
 11
44.7800
 21
6.2954
 31
0.0000
  0
LINE
  8
22
 10
44.7800
 20
6.2954
 30
0.0000
 11
44.6572
 21
6.2954
 31
0.0000
  0
LINE
  8
22
 10
44.4021
 20
6.2954
 30
0.0000
 11
44.4021
 21
5.9268
 31
0.0000
  0
LINE
  8
22
 10
44.4021
 20
5.9268
 30
0.0000
 11
44.2792
 21
5.8039
 31
0.0000
  0
LINE
  8
22
 10
44.2792
 20
5.8039
 30
0.0000
 11
43.9106
 21
5.8039
 31
0.0000
  0
LINE
  8
22
 10
43.9106
 20
6.2954
 30
0.0000
 11
43.9106
 21
5.6810
 31
0.0000
  0
LINE
  8
22
 10
43.9106
 20
5.6810
 30
0.0000
 11
44.0335
 21
5.5582
 31
0.0000
  0
LINE
  8
22
 10
44.0335
 20
5.5582
 30
0.0000
 11
44.1564
 21
5.5582
 31
0.0000
  0
LINE
  8
22
 10
47.4656
 20
5.1991
 30
0.0000
 11
47.5885
 21
5.3219
 31
0.0000
  0
LINE
  8
22
 10
47.5885
 20
5.3219
 30
0.0000
 11
47.8342
 21
5.3219
 31
0.0000
  0
LINE
  8
22
 10
47.8342
 20
5.3219
 30
0.0000
 11
47.9571
 21
5.1991
 31
0.0000
  0
LINE
  8
22
 10
47.9571
 20
5.1991
 30
0.0000
 11
47.9571
 21
5.0762
 31
0.0000
  0
LINE
  8
22
 10
47.9571
 20
5.0762
 30
0.0000
 11
47.8342
 21
4.9533
 31
0.0000
  0
LINE
  8
22
 10
47.8342
 20
4.9533
 30
0.0000
 11
47.5885
 21
4.9533
 31
0.0000
  0
LINE
  8
22
 10
47.5885
 20
4.9533
 30
0.0000
 11
47.4656
 21
4.8304
 31
0.0000
  0
LINE
  8
22
 10
47.4656
 20
4.8304
 30
0.0000
 11
47.4656
 21
4.7076
 31
0.0000
  0
LINE
  8
22
 10
47.4656
 20
4.7076
 30
0.0000
 11
47.5885
 21
4.5847
 31
0.0000
  0
LINE
  8
22
 10
47.5885
 20
4.5847
 30
0.0000
 11
47.8342
 21
4.5847
 31
0.0000
  0
LINE
  8
22
 10
47.8342
 20
4.5847
 30
0.0000
 11
47.9571
 21
4.7076
 31
0.0000
  0
LINE
  8
22
 10
47.2087
 20
5.3219
 30
0.0000
 11
47.2087
 21
4.5847
 31
0.0000
  0
LINE
  8
22
 10
47.2087
 20
4.9533
 30
0.0000
 11
47.0858
 21
5.0762
 31
0.0000
  0
LINE
  8
22
 10
47.0858
 20
5.0762
 30
0.0000
 11
46.8400
 21
5.0762
 31
0.0000
  0
LINE
  8
22
 10
46.8400
 20
5.0762
 30
0.0000
 11
46.7172
 21
4.9533
 31
0.0000
  0
LINE
  8
22
 10
46.7172
 20
4.9533
 30
0.0000
 11
46.7172
 21
4.5847
 31
0.0000
  0
LINE
  8
22
 10
46.4602
 20
5.0762
 30
0.0000
 11
46.3374
 21
5.0762
 31
0.0000
  0
LINE
  8
22
 10
46.3374
 20
5.0762
 30
0.0000
 11
46.3374
 21
4.5847
 31
0.0000
  0
LINE
  8
22
 10
46.4602
 20
4.5847
 30
0.0000
 11
46.2145
 21
4.5847
 31
0.0000
  0
LINE
  8
22
 10
46.3374
 20
5.4448
 30
0.0000
 11
46.3374
 21
5.3219
 31
0.0000
  0
LINE
  8
22
 10
45.5927
 20
4.5847
 30
0.0000
 11
45.8384
 21
4.5847
 31
0.0000
  0
LINE
  8
22
 10
45.8384
 20
4.5847
 30
0.0000
 11
45.9613
 21
4.7076
 31
0.0000
  0
LINE
  8
22
 10
45.9613
 20
4.7076
 30
0.0000
 11
45.9613
 21
4.9533
 31
0.0000
  0
LINE
  8
22
 10
45.9613
 20
4.9533
 30
0.0000
 11
45.8384
 21
5.0762
 31
0.0000
  0
LINE
  8
22
 10
45.8384
 20
5.0762
 30
0.0000
 11
45.5927
 21
5.0762
 31
0.0000
  0
LINE
  8
22
 10
45.5927
 20
5.0762
 30
0.0000
 11
45.4698
 21
4.9533
 31
0.0000
  0
LINE
  8
22
 10
45.4698
 20
4.9533
 30
0.0000
 11
45.4698
 21
4.8304
 31
0.0000
  0
LINE
  8
22
 10
45.4698
 20
4.8304
 30
0.0000
 11
45.9613
 21
4.8304
 31
0.0000
  0
LINE
  8
22
 10
45.2129
 20
5.3219
 30
0.0000
 11
45.0900
 21
5.3219
 31
0.0000
  0
LINE
  8
22
 10
45.0900
 20
5.3219
 30
0.0000
 11
45.0900
 21
4.5847
 31
0.0000
  0
LINE
  8
22
 10
45.2129
 20
4.5847
 30
0.0000
 11
44.9671
 21
4.5847
 31
0.0000
  0
LINE
  8
22
 10
44.2225
 20
5.3219
 30
0.0000
 11
44.2225
 21
4.5847
 31
0.0000
  0
LINE
  8
22
 10
44.2225
 20
4.5847
 30
0.0000
 11
44.5911
 21
4.5847
 31
0.0000
  0
LINE
  8
22
 10
44.5911
 20
4.5847
 30
0.0000
 11
44.7139
 21
4.7076
 31
0.0000
  0
LINE
  8
22
 10
44.7139
 20
4.7076
 30
0.0000
 11
44.7139
 21
4.9533
 31
0.0000
  0
LINE
  8
22
 10
44.7139
 20
4.9533
 30
0.0000
 11
44.5911
 21
5.0762
 31
0.0000
  0
LINE
  8
22
 10
44.5911
 20
5.0762
 30
0.0000
 11
44.2225
 21
5.0762
 31
0.0000
  0
LINE
  8
22
 10
36.1950
 20
1.3215
 30
0.0000
 11
35.1103
 21
1.3215
 31
0.0000
  0
LINE
  8
22
 10
35.6527
 20
1.8638
 30
0.0000
 11
35.6527
 21
0.7792
 31
0.0000
  0
LINE
  8
22
 10
41.9405
 20
7.7470
 30
0.0000
 11
41.8795
 21
7.7470
 31
0.0000
  0
LINE
  8
22
 10
35.0571
 20
11.7348
 30
0.0000
 11
34.9961
 21
11.7348
 31
0.0000
  0
LINE
  8
22
 10
25.3300
 20
5.0640
 30
0.0000
 11
25.3300
 21
6.5640
 31
0.0000
  0
LINE
  8
22
 10
25.3300
 20
6.5640
 30
0.0000
 11
22.9300
 21
6.5640
 31
0.0000
  0
LINE
  8
22
 10
22.9300
 20
6.5640
 30
0.0000
 11
22.9300
 21
5.0640
 31
0.0000
  0
LINE
  8
22
 10
25.3300
 20
3.0640
 30
0.0000
 11
25.3300
 21
1.9640
 31
0.0000
  0
LINE
  8
22
 10
25.3300
 20
1.9640
 30
0.0000
 11
24.9300
 21
1.5640
 31
0.0000
  0
LINE
  8
22
 10
24.9300
 20
1.5640
 30
0.0000
 11
23.3300
 21
1.5640
 31
0.0000
  0
LINE
  8
22
 10
23.3300
 20
1.5640
 30
0.0000
 11
22.9300
 21
1.9640
 31
0.0000
  0
LINE
  8
22
 10
22.9300
 20
1.9640
 30
0.0000
 11
22.9300
 21
3.0640
 31
0.0000
  0
LINE
  8
22
 10
23.1140
 20
3.6830
 30
0.0000
 11
25.1460
 21
3.6830
 31
0.0000
  0
LINE
  8
22
 10
45.6740
 20
6.8930
 30
0.0000
 11
46.2740
 21
6.8930
 31
0.0000
  0
LINE
  8
22
 10
45.6740
 20
8.0930
 30
0.0000
 11
46.2740
 21
8.0930
 31
0.0000
  0
LINE
  8
22
 10
60.2140
 20
9.8360
 30
0.0000
 11
58.7140
 21
9.8360
 31
0.0000
  0
LINE
  8
22
 10
58.7140
 20
9.8360
 30
0.0000
 11
58.7140
 21
7.4360
 31
0.0000
  0
LINE
  8
22
 10
58.7140
 20
7.4360
 30
0.0000
 11
60.2140
 21
7.4360
 31
0.0000
  0
LINE
  8
22
 10
62.2140
 20
9.8360
 30
0.0000
 11
63.3140
 21
9.8360
 31
0.0000
  0
LINE
  8
22
 10
63.3140
 20
9.8360
 30
0.0000
 11
63.7140
 21
9.4360
 31
0.0000
  0
LINE
  8
22
 10
63.7140
 20
9.4360
 30
0.0000
 11
63.7140
 21
7.8360
 31
0.0000
  0
LINE
  8
22
 10
63.7140
 20
7.8360
 30
0.0000
 11
63.3140
 21
7.4360
 31
0.0000
  0
LINE
  8
22
 10
63.3140
 20
7.4360
 30
0.0000
 11
62.2140
 21
7.4360
 31
0.0000
  0
LINE
  8
22
 10
61.5950
 20
7.6200
 30
0.0000
 11
61.5950
 21
9.6520
 31
0.0000
  0
LINE
  8
22
 10
55.5940
 20
7.9060
 30
0.0000
 11
55.5940
 21
11.9060
 31
0.0000
  0
LINE
  8
22
 10
55.5940
 20
11.9060
 30
0.0000
 11
51.5940
 21
11.9060
 31
0.0000
  0
LINE
  8
22
 10
51.5940
 20
11.9060
 30
0.0000
 11
51.5940
 21
7.9060
 31
0.0000
  0
LINE
  8
22
 10
51.5940
 20
7.9060
 30
0.0000
 11
55.5940
 21
7.9060
 31
0.0000
  0
CIRCLE
  8
22
 10
55.2940
 20
7.4060
 30
0.0000
 40
0.2236
  0
LINE
  8
22
 10
26.2260
 20
4.8100
 30
0.0000
 11
26.2260
 21
8.3100
 31
0.0000
  0
LINE
  8
22
 10
26.2260
 20
8.3100
 30
0.0000
 11
27.0260
 21
8.3100
 31
0.0000
  0
LINE
  8
22
 10
27.0260
 20
8.3100
 30
0.0000
 11
27.0260
 21
5.8100
 31
0.0000
  0
LINE
  8
22
 10
27.0260
 20
5.8100
 30
0.0000
 11
28.2260
 21
5.8100
 31
0.0000
  0
LINE
  8
22
 10
32.2260
 20
5.8100
 30
0.0000
 11
33.4260
 21
5.8100
 31
0.0000
  0
LINE
  8
22
 10
33.4260
 20
5.8100
 30
0.0000
 11
33.4260
 21
8.3100
 31
0.0000
  0
LINE
  8
22
 10
33.4260
 20
8.3100
 30
0.0000
 11
34.2260
 21
8.3100
 31
0.0000
  0
LINE
  8
22
 10
34.2260
 20
8.3100
 30
0.0000
 11
34.2260
 21
4.8100
 31
0.0000
  0
LINE
  8
22
 10
32.2260
 20
0.8100
 30
0.0000
 11
28.2260
 21
0.8100
 31
0.0000
  0
LINE
  8
22
 10
65.1220
 20
3.4360
 30
0.0000
 11
65.1220
 21
5.0360
 31
0.0000
  0
LINE
  8
22
 10
65.1220
 20
5.0360
 30
0.0000
 11
63.9220
 21
5.0360
 31
0.0000
  0
LINE
  8
22
 10
58.3220
 20
5.0360
 30
0.0000
 11
59.5220
 21
5.0360
 31
0.0000
  0
LINE
  8
22
 10
58.3220
 20
3.4360
 30
0.0000
 11
58.3220
 21
5.0360
 31
0.0000
  0
LINE
  8
22
 10
65.1220
 20
0.7360
 30
0.0000
 11
58.3220
 21
0.7360
 31
0.0000
  0
LINE
  8
22
 10
63.9220
 20
5.0360
 30
0.0000
 11
63.9220
 21
3.6360
 31
0.0000
  0
LINE
  8
22
 10
63.9220
 20
3.6360
 30
0.0000
 11
59.5220
 21
3.6360
 31
0.0000
  0
LINE
  8
22
 10
59.5220
 20
3.6360
 30
0.0000
 11
59.5220
 21
5.0360
 31
0.0000
  0
CIRCLE
  8
20
 10
63.6720
 20
4.3860
 30
0.0000
 40
0.3000
  0
CIRCLE
  8
20
 10
59.7720
 20
4.3860
 30
0.0000
 40
0.3000
  0
LINE
  8
22
 10
36.6460
 20
3.1640
 30
0.0000
 11
37.2460
 21
2.5640
 31
0.0000
  0
LINE
  8
22
 10
37.2460
 20
2.5640
 30
0.0000
 11
38.4460
 21
2.5640
 31
0.0000
  0
LINE
  8
22
 10
38.4460
 20
2.5640
 30
0.0000
 11
39.0460
 21
3.1640
 31
0.0000
  0
LINE
  8
22
 10
36.6460
 20
4.9640
 30
0.0000
 11
37.1677
 21
5.4379
 31
0.0000
  0
ARC
  8
22
 10
37.8460
 20
4.7031
 30
0.0000
 40
1.0000
 50
47.2896
 51
132.7104
  0
LINE
  8
22
 10
38.5243
 20
5.4379
 30
0.0000
 11
39.0460
 21
4.9640
 31
0.0000
  0
INSERT
  8
22
  2
RECT
 10
43.3070
 20
7.7470
 30
0.0000
 41
0.4064
 42
0.7112
 43
1.0000
 50
270.0000
  0
INSERT
  8
22
  2
RECT
 10
41.0972
 20
12.9032
 30
0.0000
 41
0.4064
 42
0.7112
 43
1.0000
 50
270.0000
  0
INSERT
  8
22
  2
RECT
 10
36.1442
 20
11.7348
 30
0.0000
 41
0.4064
 42
0.7112
 43
1.0000
 50
270.0000
  0
INSERT
  8
22
  2
RECT
 10
39.2684
 20
14.5034
 30
0.0000
 41
0.4064
 42
0.7112
 43
1.0000
 50
180.0000
  0
INSERT
  8
22
  2
RECT
 10
33.8836
 20
11.7348
 30
0.0000
 41
0.4064
 42
0.7112
 43
1.0000
 50
270.0000
  0
INSERT
  8
22
  2
RECT
 10
56.2864
 20
2.8448
 30
0.0000
 41
0.4064
 42
0.7112
 43
1.0000
 50
180.0000
  0
INSERT
  8
22
  2
RECT
 10
51.8160
 20
13.4620
 30
0.0000
 41
0.4064
 42
0.7112
 43
1.0000
 50
0.0000
  0
INSERT
  8
22
  2
RECT
 10
54.8640
 20
13.4620
 30
0.0000
 41
0.4064
 42
0.7112
 43
1.0000
 50
180.0000
  0
INSERT
  8
22
  2
RECT
 10
56.8960
 20
8.8900
 30
0.0000
 41
0.4064
 42
0.7112
 43
1.0000
 50
90.0000
  0
INSERT
  8
22
  2
RECT
 10
56.8960
 20
4.8260
 30
0.0000
 41
0.4064
 42
0.7112
 43
1.0000
 50
90.0000
  0
INSERT
  8
22
  2
RECT
 10
50.5460
 20
4.8260
 30
0.0000
 41
0.4064
 42
0.7112
 43
1.0000
 50
270.0000
  0
INSERT
  8
22
  2
RECT
 10
51.8160
 20
4.8260
 30
0.0000
 41
0.4064
 42
0.7112
 43
1.0000
 50
270.0000
  0
INSERT
  8
22
  2
RECT
 10
53.0860
 20
4.8260
 30
0.0000
 41
0.4064
 42
0.7112
 43
1.0000
 50
270.0000
  0
INSERT
  8
22
  2
RECT
 10
54.3560
 20
4.8260
 30
0.0000
 41
0.4064
 42
0.7112
 43
1.0000
 50
90.0000
  0
INSERT
  8
22
  2
RECT
 10
55.6260
 20
4.8260
 30
0.0000
 41
0.4064
 42
0.7112
 43
1.0000
 50
270.0000
  0
LINE
  8
22
 10
38.3668
 20
11.7508
 30
0.0000
 11
39.9668
 21
11.7508
 31
0.0000
  0
ARC
  8
22
 10
38.4168
 20
13.5008
 30
0.0000
 40
0.2550
 50
101.3099
 51
191.3099
  0
ARC
  8
22
 10
39.9168
 20
13.5008
 30
0.0000
 40
0.2550
 50
348.6901
 51
78.6901
  0
ARC
  8
22
 10
39.9168
 20
12.0008
 30
0.0000
 40
0.2550
 50
281.3099
 51
11.3099
  0
ARC
  8
22
 10
38.4168
 20
12.0008
 30
0.0000
 40
0.2550
 50
168.6901
 51
258.6901
  0
LINE
  8
22
 10
39.9668
 20
13.7508
 30
0.0000
 11
38.3668
 21
13.7508
 31
0.0000
  0
LINE
  8
22
 10
40.7390
 20
7.5210
 30
0.0000
 11
40.4890
 21
7.7710
 31
0.0000
  0
LINE
  8
22
 10
40.6400
 20
10.7696
 30
0.0000
 11
40.6400
 21
10.1092
 31
0.0000
  0
LINE
  8
22
 10
37.3380
 20
10.7696
 30
0.0000
 11
37.3380
 21
10.1092
 31
0.0000
  0
LINE
  8
22
 10
37.3380
 20
8.4582
 30
0.0000
 11
37.3380
 21
7.7978
 31
0.0000
  0
ENDSEC
  0
EOF
