G75*
G70*
%OFA0B0*%
%FSLAX24Y24*%
%IPPOS*%
%LPD*%
%AMOC8*
5,1,8,0,0,1.08239X$1,22.5*
%
%ADD10C,0.0120*%
%ADD11C,0.0070*%
%ADD12C,0.0110*%
%ADD13C,0.0060*%
%ADD14C,0.0080*%
%ADD15C,0.0050*%
%ADD16R,0.0300X0.4200*%
%ADD17R,0.0200X0.0750*%
%ADD18R,0.0200X0.0300*%
%ADD19C,0.0040*%
D10*
X027700Y003325D02*
X030200Y003325D01*
X030200Y004325D01*
X033200Y004325D01*
X033200Y003325D01*
X035700Y003325D01*
X035700Y004325D01*
X033200Y003325D02*
X033200Y002825D01*
X030200Y002825D01*
X030200Y003325D01*
X027700Y003325D02*
X027700Y004325D01*
X028700Y016325D02*
X034700Y016325D01*
X023300Y018525D02*
X022850Y018075D01*
X019650Y018075D01*
X015450Y018075D02*
X012250Y018075D01*
X011800Y018525D01*
X008900Y019525D02*
X008902Y019545D01*
X008908Y019563D01*
X008917Y019581D01*
X008929Y019596D01*
X008944Y019608D01*
X008962Y019617D01*
X008980Y019623D01*
X009000Y019625D01*
X009020Y019623D01*
X009038Y019617D01*
X009056Y019608D01*
X009071Y019596D01*
X009083Y019581D01*
X009092Y019563D01*
X009098Y019545D01*
X009100Y019525D01*
X009098Y019505D01*
X009092Y019487D01*
X009083Y019469D01*
X009071Y019454D01*
X009056Y019442D01*
X009038Y019433D01*
X009020Y019427D01*
X009000Y019425D01*
X008980Y019427D01*
X008962Y019433D01*
X008944Y019442D01*
X008929Y019454D01*
X008917Y019469D01*
X008908Y019487D01*
X008902Y019505D01*
X008900Y019525D01*
D11*
X011435Y019390D02*
X011435Y019226D01*
X011516Y019144D01*
X011680Y019308D02*
X011680Y019390D01*
X011762Y019471D01*
X011843Y019471D01*
X011925Y019390D01*
X011925Y019226D01*
X011843Y019144D01*
X011925Y018956D02*
X011925Y018629D01*
X011925Y018792D02*
X011435Y018792D01*
X011598Y018629D01*
X012435Y018792D02*
X012598Y018629D01*
X012435Y018792D02*
X012925Y018792D01*
X012925Y018629D02*
X012925Y018956D01*
X012925Y019144D02*
X012598Y019471D01*
X012516Y019471D01*
X012435Y019390D01*
X012435Y019226D01*
X012516Y019144D01*
X012925Y019144D02*
X012925Y019471D01*
X013435Y019308D02*
X013925Y019308D01*
X013925Y019471D02*
X013925Y019144D01*
X013925Y018956D02*
X013925Y018629D01*
X013925Y018792D02*
X013435Y018792D01*
X013598Y018629D01*
X014435Y018792D02*
X014598Y018629D01*
X014435Y018792D02*
X014925Y018792D01*
X014925Y018629D02*
X014925Y018956D01*
X014843Y019144D02*
X014516Y019144D01*
X014435Y019226D01*
X014435Y019390D01*
X014516Y019471D01*
X014843Y019144D01*
X014925Y019226D01*
X014925Y019390D01*
X014843Y019471D01*
X014516Y019471D01*
X015435Y019390D02*
X015435Y019226D01*
X015516Y019144D01*
X015598Y019144D01*
X015680Y019226D01*
X015680Y019471D01*
X015843Y019471D02*
X015516Y019471D01*
X015435Y019390D01*
X015843Y019471D02*
X015925Y019390D01*
X015925Y019226D01*
X015843Y019144D01*
X016435Y019226D02*
X016435Y019390D01*
X016516Y019471D01*
X016598Y019471D01*
X016680Y019390D01*
X016680Y019226D01*
X016598Y019144D01*
X016516Y019144D01*
X016435Y019226D01*
X016680Y019226D02*
X016762Y019144D01*
X016843Y019144D01*
X016925Y019226D01*
X016925Y019390D01*
X016843Y019471D01*
X016762Y019471D01*
X016680Y019390D01*
X018035Y019471D02*
X018035Y019144D01*
X018035Y019471D02*
X018116Y019471D01*
X018443Y019144D01*
X018525Y019144D01*
X019035Y019471D02*
X019116Y019308D01*
X019280Y019144D01*
X019280Y019390D01*
X019362Y019471D01*
X019443Y019471D01*
X019525Y019390D01*
X019525Y019226D01*
X019443Y019144D01*
X019280Y019144D01*
X020035Y019144D02*
X020280Y019144D01*
X020198Y019308D01*
X020198Y019390D01*
X020280Y019471D01*
X020443Y019471D01*
X020525Y019390D01*
X020525Y019226D01*
X020443Y019144D01*
X020035Y019144D02*
X020035Y019471D01*
X021035Y019390D02*
X021280Y019144D01*
X021280Y019471D01*
X021525Y019390D02*
X021035Y019390D01*
X022035Y019390D02*
X022035Y019226D01*
X022116Y019144D01*
X022280Y019308D02*
X022280Y019390D01*
X022362Y019471D01*
X022443Y019471D01*
X022525Y019390D01*
X022525Y019226D01*
X022443Y019144D01*
X022280Y019390D02*
X022198Y019471D01*
X022116Y019471D01*
X022035Y019390D01*
X023035Y019390D02*
X023035Y019226D01*
X023116Y019144D01*
X023035Y019390D02*
X023116Y019471D01*
X023198Y019471D01*
X023525Y019144D01*
X023525Y019471D01*
X024035Y019308D02*
X024525Y019308D01*
X024525Y019471D02*
X024525Y019144D01*
X024198Y019144D02*
X024035Y019308D01*
X025035Y019226D02*
X025035Y019390D01*
X025116Y019471D01*
X025443Y019144D01*
X025525Y019226D01*
X025525Y019390D01*
X025443Y019471D01*
X025116Y019471D01*
X025035Y019226D02*
X025116Y019144D01*
X025443Y019144D01*
X013598Y019144D02*
X013435Y019308D01*
X011680Y019390D02*
X011598Y019471D01*
X011516Y019471D01*
X011435Y019390D01*
D12*
X004445Y019018D02*
X003854Y019018D01*
X003854Y018625D02*
X004445Y019018D01*
X004445Y018625D02*
X003854Y018625D01*
X003953Y018374D02*
X003854Y018275D01*
X003854Y018078D01*
X003953Y017980D01*
X004347Y017980D01*
X004445Y018078D01*
X004445Y018275D01*
X004347Y018374D01*
X003953Y018374D01*
X002445Y018669D02*
X001854Y018669D01*
X001854Y019063D01*
X002150Y018866D02*
X002150Y018669D01*
X001854Y018418D02*
X001854Y018025D01*
X002445Y018025D01*
X002150Y018025D02*
X002150Y018221D01*
X002347Y017774D02*
X001953Y017774D01*
X001854Y017675D01*
X001854Y017478D01*
X001953Y017380D01*
X002347Y017380D01*
X002445Y017478D01*
X002445Y017675D01*
X002347Y017774D01*
D13*
X009200Y020075D02*
X009450Y019825D01*
X009950Y019825D01*
X010200Y020075D01*
X010200Y020575D01*
X009950Y020825D01*
X009450Y020825D01*
X009200Y020575D01*
X009200Y020075D01*
X010200Y020075D02*
X010450Y019825D01*
X010950Y019825D01*
X011200Y020075D01*
X011200Y020575D01*
X010950Y020825D01*
X010450Y020825D01*
X010200Y020575D01*
X011200Y020575D02*
X011450Y020825D01*
X011950Y020825D01*
X012200Y020575D01*
X012450Y020825D01*
X012950Y020825D01*
X013200Y020575D01*
X013450Y020825D01*
X013950Y020825D01*
X014200Y020575D01*
X014450Y020825D01*
X014950Y020825D01*
X015200Y020575D01*
X015450Y020825D01*
X015950Y020825D01*
X016200Y020575D01*
X016450Y020825D01*
X016950Y020825D01*
X017200Y020575D01*
X017200Y020075D01*
X016950Y019825D01*
X016450Y019825D01*
X016200Y020075D01*
X015950Y019825D01*
X015450Y019825D01*
X015200Y020075D01*
X015200Y020575D01*
X015200Y020075D02*
X014950Y019825D01*
X014450Y019825D01*
X014200Y020075D01*
X013950Y019825D01*
X013450Y019825D01*
X013200Y020075D01*
X012950Y019825D01*
X012450Y019825D01*
X012200Y020075D01*
X012200Y020575D01*
X012200Y020075D02*
X011950Y019825D01*
X011450Y019825D01*
X011200Y020075D01*
X013200Y020075D02*
X013200Y020575D01*
X014200Y020575D02*
X014200Y020075D01*
X016200Y020075D02*
X016200Y020575D01*
X017800Y020575D02*
X017800Y020075D01*
X018050Y019825D01*
X018550Y019825D01*
X018800Y020075D01*
X018800Y020575D01*
X018550Y020825D01*
X018050Y020825D01*
X017800Y020575D01*
X018800Y020575D02*
X019050Y020825D01*
X019550Y020825D01*
X019800Y020575D01*
X020050Y020825D01*
X020550Y020825D01*
X020800Y020575D01*
X021050Y020825D01*
X021550Y020825D01*
X021800Y020575D01*
X022050Y020825D01*
X022550Y020825D01*
X022800Y020575D01*
X023050Y020825D01*
X023550Y020825D01*
X023800Y020575D01*
X024050Y020825D01*
X024550Y020825D01*
X024800Y020575D01*
X025050Y020825D01*
X025550Y020825D01*
X025800Y020575D01*
X025800Y020075D01*
X025550Y019825D01*
X025050Y019825D01*
X024800Y020075D01*
X024550Y019825D01*
X024050Y019825D01*
X023800Y020075D01*
X023800Y020575D01*
X023800Y020075D02*
X023550Y019825D01*
X023050Y019825D01*
X022800Y020075D01*
X022550Y019825D01*
X022050Y019825D01*
X021800Y020075D01*
X021550Y019825D01*
X021050Y019825D01*
X020800Y020075D01*
X020800Y020575D01*
X020800Y020075D02*
X020550Y019825D01*
X020050Y019825D01*
X019800Y020075D01*
X019550Y019825D01*
X019050Y019825D01*
X018800Y020075D01*
X019800Y020075D02*
X019800Y020575D01*
X021800Y020575D02*
X021800Y020075D01*
X022800Y020075D02*
X022800Y020575D01*
X024800Y020575D02*
X024800Y020075D01*
X024550Y001825D02*
X024050Y001825D01*
X023800Y001575D01*
X023800Y001075D01*
X024050Y000825D01*
X024550Y000825D01*
X024800Y001075D01*
X025050Y000825D01*
X025550Y000825D01*
X025800Y001075D01*
X025800Y001575D01*
X025550Y001825D01*
X025050Y001825D01*
X024800Y001575D01*
X024800Y001075D01*
X023800Y001075D02*
X023550Y000825D01*
X023050Y000825D01*
X022800Y001075D01*
X022550Y000825D01*
X022050Y000825D01*
X021800Y001075D01*
X021550Y000825D01*
X021050Y000825D01*
X020800Y001075D01*
X020550Y000825D01*
X020050Y000825D01*
X019800Y001075D01*
X019800Y001575D01*
X020050Y001825D01*
X020550Y001825D01*
X020800Y001575D01*
X021050Y001825D01*
X021550Y001825D01*
X021800Y001575D01*
X021800Y001075D01*
X022800Y001075D02*
X022800Y001575D01*
X023050Y001825D01*
X023550Y001825D01*
X023800Y001575D01*
X024550Y001825D02*
X024800Y001575D01*
X022800Y001575D02*
X022550Y001825D01*
X022050Y001825D01*
X021800Y001575D01*
X020800Y001575D02*
X020800Y001075D01*
X018800Y001075D02*
X018550Y000825D01*
X018050Y000825D01*
X017800Y001075D01*
X017550Y000825D01*
X017050Y000825D01*
X016800Y001075D01*
X016550Y000825D01*
X016050Y000825D01*
X015800Y001075D01*
X015550Y000825D01*
X015050Y000825D01*
X014800Y001075D01*
X014550Y000825D01*
X014050Y000825D01*
X013800Y001075D01*
X013550Y000825D01*
X013050Y000825D01*
X012800Y001075D01*
X012800Y001575D01*
X013050Y001825D01*
X013550Y001825D01*
X013800Y001575D01*
X014050Y001825D01*
X014550Y001825D01*
X014800Y001575D01*
X014800Y001075D01*
X015800Y001075D02*
X015800Y001575D01*
X016050Y001825D01*
X016550Y001825D01*
X016800Y001575D01*
X017050Y001825D01*
X017550Y001825D01*
X017800Y001575D01*
X018050Y001825D01*
X018550Y001825D01*
X018800Y001575D01*
X018800Y001075D01*
X017800Y001075D02*
X017800Y001575D01*
X016800Y001575D02*
X016800Y001075D01*
X015800Y001575D02*
X015550Y001825D01*
X015050Y001825D01*
X014800Y001575D01*
X013800Y001575D02*
X013800Y001075D01*
D14*
X002750Y004625D02*
X002750Y005025D01*
X002316Y005325D02*
X002318Y005387D01*
X002324Y005450D01*
X002334Y005511D01*
X002348Y005572D01*
X002365Y005632D01*
X002386Y005691D01*
X002412Y005748D01*
X002440Y005803D01*
X002472Y005857D01*
X002508Y005908D01*
X002546Y005958D01*
X002588Y006004D01*
X002632Y006048D01*
X002680Y006089D01*
X002729Y006127D01*
X002781Y006161D01*
X002835Y006192D01*
X002891Y006220D01*
X002949Y006244D01*
X003008Y006265D01*
X003068Y006281D01*
X003129Y006294D01*
X003191Y006303D01*
X003253Y006308D01*
X003316Y006309D01*
X003378Y006306D01*
X003440Y006299D01*
X003502Y006288D01*
X003562Y006273D01*
X003622Y006255D01*
X003680Y006233D01*
X003737Y006207D01*
X003792Y006177D01*
X003845Y006144D01*
X003896Y006108D01*
X003944Y006069D01*
X003990Y006026D01*
X004033Y005981D01*
X004073Y005933D01*
X004110Y005883D01*
X004144Y005830D01*
X004175Y005776D01*
X004201Y005720D01*
X004225Y005662D01*
X004244Y005602D01*
X004260Y005542D01*
X004272Y005480D01*
X004280Y005419D01*
X004284Y005356D01*
X004284Y005294D01*
X004280Y005231D01*
X004272Y005170D01*
X004260Y005108D01*
X004244Y005048D01*
X004225Y004988D01*
X004201Y004930D01*
X004175Y004874D01*
X004144Y004820D01*
X004110Y004767D01*
X004073Y004717D01*
X004033Y004669D01*
X003990Y004624D01*
X003944Y004581D01*
X003896Y004542D01*
X003845Y004506D01*
X003792Y004473D01*
X003737Y004443D01*
X003680Y004417D01*
X003622Y004395D01*
X003562Y004377D01*
X003502Y004362D01*
X003440Y004351D01*
X003378Y004344D01*
X003316Y004341D01*
X003253Y004342D01*
X003191Y004347D01*
X003129Y004356D01*
X003068Y004369D01*
X003008Y004385D01*
X002949Y004406D01*
X002891Y004430D01*
X002835Y004458D01*
X002781Y004489D01*
X002729Y004523D01*
X002680Y004561D01*
X002632Y004602D01*
X002588Y004646D01*
X002546Y004692D01*
X002508Y004742D01*
X002472Y004793D01*
X002440Y004847D01*
X002412Y004902D01*
X002386Y004959D01*
X002365Y005018D01*
X002348Y005078D01*
X002334Y005139D01*
X002324Y005200D01*
X002318Y005263D01*
X002316Y005325D01*
X002750Y007625D02*
X002750Y008025D01*
X002316Y008325D02*
X002318Y008387D01*
X002324Y008450D01*
X002334Y008511D01*
X002348Y008572D01*
X002365Y008632D01*
X002386Y008691D01*
X002412Y008748D01*
X002440Y008803D01*
X002472Y008857D01*
X002508Y008908D01*
X002546Y008958D01*
X002588Y009004D01*
X002632Y009048D01*
X002680Y009089D01*
X002729Y009127D01*
X002781Y009161D01*
X002835Y009192D01*
X002891Y009220D01*
X002949Y009244D01*
X003008Y009265D01*
X003068Y009281D01*
X003129Y009294D01*
X003191Y009303D01*
X003253Y009308D01*
X003316Y009309D01*
X003378Y009306D01*
X003440Y009299D01*
X003502Y009288D01*
X003562Y009273D01*
X003622Y009255D01*
X003680Y009233D01*
X003737Y009207D01*
X003792Y009177D01*
X003845Y009144D01*
X003896Y009108D01*
X003944Y009069D01*
X003990Y009026D01*
X004033Y008981D01*
X004073Y008933D01*
X004110Y008883D01*
X004144Y008830D01*
X004175Y008776D01*
X004201Y008720D01*
X004225Y008662D01*
X004244Y008602D01*
X004260Y008542D01*
X004272Y008480D01*
X004280Y008419D01*
X004284Y008356D01*
X004284Y008294D01*
X004280Y008231D01*
X004272Y008170D01*
X004260Y008108D01*
X004244Y008048D01*
X004225Y007988D01*
X004201Y007930D01*
X004175Y007874D01*
X004144Y007820D01*
X004110Y007767D01*
X004073Y007717D01*
X004033Y007669D01*
X003990Y007624D01*
X003944Y007581D01*
X003896Y007542D01*
X003845Y007506D01*
X003792Y007473D01*
X003737Y007443D01*
X003680Y007417D01*
X003622Y007395D01*
X003562Y007377D01*
X003502Y007362D01*
X003440Y007351D01*
X003378Y007344D01*
X003316Y007341D01*
X003253Y007342D01*
X003191Y007347D01*
X003129Y007356D01*
X003068Y007369D01*
X003008Y007385D01*
X002949Y007406D01*
X002891Y007430D01*
X002835Y007458D01*
X002781Y007489D01*
X002729Y007523D01*
X002680Y007561D01*
X002632Y007602D01*
X002588Y007646D01*
X002546Y007692D01*
X002508Y007742D01*
X002472Y007793D01*
X002440Y007847D01*
X002412Y007902D01*
X002386Y007959D01*
X002365Y008018D01*
X002348Y008078D01*
X002334Y008139D01*
X002324Y008200D01*
X002318Y008263D01*
X002316Y008325D01*
X002050Y014325D02*
X001550Y014325D01*
X001300Y014575D01*
X001300Y015075D01*
X001550Y015325D01*
X001300Y015575D01*
X001300Y016075D01*
X001550Y016325D01*
X002050Y016325D01*
X002300Y016075D01*
X002300Y015575D01*
X002050Y015325D01*
X002300Y015075D01*
X002300Y014575D01*
X002050Y014325D01*
X000811Y019269D02*
X005389Y019269D01*
X005389Y020981D01*
X000811Y020981D01*
X000811Y019269D01*
X027700Y016075D02*
X027700Y015575D01*
X027950Y015325D01*
X027700Y015075D01*
X027700Y014575D01*
X027950Y014325D01*
X027700Y014075D01*
X027700Y013575D01*
X027950Y013325D01*
X027700Y013075D01*
X027700Y012575D01*
X027950Y012325D01*
X027700Y012075D01*
X027700Y011575D01*
X027950Y011325D01*
X027700Y011075D01*
X027700Y010575D01*
X027950Y010325D01*
X027700Y010075D01*
X027700Y009575D01*
X027950Y009325D01*
X027700Y009075D01*
X027700Y008575D01*
X027950Y008325D01*
X027700Y008075D01*
X027700Y007575D01*
X027950Y007325D01*
X027700Y007075D01*
X027700Y006575D01*
X027950Y006325D01*
X027700Y006075D01*
X027700Y005575D01*
X027950Y005325D01*
X027700Y005075D01*
X027700Y004575D01*
X027950Y004325D01*
X028450Y004325D01*
X028700Y004575D01*
X028700Y005075D01*
X028450Y005325D01*
X028700Y005575D01*
X028700Y006075D01*
X028450Y006325D01*
X028700Y006575D01*
X028700Y007075D01*
X028450Y007325D01*
X028700Y007575D01*
X028700Y008075D01*
X028450Y008325D01*
X028700Y008575D01*
X028700Y009075D01*
X028450Y009325D01*
X028700Y009575D01*
X028700Y010075D01*
X028450Y010325D01*
X028700Y010575D01*
X028700Y011075D01*
X028450Y011325D01*
X028700Y011575D01*
X028700Y012075D01*
X028450Y012325D01*
X028700Y012575D01*
X028700Y013075D01*
X028450Y013325D01*
X028700Y013575D01*
X028700Y014075D01*
X028450Y014325D01*
X028700Y014575D01*
X028700Y015075D01*
X028450Y015325D01*
X028700Y015575D01*
X028700Y016075D01*
X028450Y016325D01*
X027950Y016325D01*
X027700Y016075D01*
X034700Y016075D02*
X034700Y015575D01*
X034950Y015325D01*
X034700Y015075D01*
X034700Y014575D01*
X034950Y014325D01*
X034700Y014075D01*
X034700Y013575D01*
X034950Y013325D01*
X034700Y013075D01*
X034700Y012575D01*
X034950Y012325D01*
X034700Y012075D01*
X034700Y011575D01*
X034950Y011325D01*
X034700Y011075D01*
X034700Y010575D01*
X034950Y010325D01*
X034700Y010075D01*
X034700Y009575D01*
X034950Y009325D01*
X034700Y009075D01*
X034700Y008575D01*
X034950Y008325D01*
X034700Y008075D01*
X034700Y007575D01*
X034950Y007325D01*
X034700Y007075D01*
X034700Y006575D01*
X034950Y006325D01*
X034700Y006075D01*
X034700Y005575D01*
X034950Y005325D01*
X034700Y005075D01*
X034700Y004575D01*
X034950Y004325D01*
X035450Y004325D01*
X035700Y004575D01*
X035700Y005075D01*
X035450Y005325D01*
X035700Y005575D01*
X035700Y006075D01*
X035450Y006325D01*
X035700Y006575D01*
X035700Y007075D01*
X035450Y007325D01*
X035700Y007575D01*
X035700Y008075D01*
X035450Y008325D01*
X035700Y008575D01*
X035700Y009075D01*
X035450Y009325D01*
X035700Y009575D01*
X035700Y010075D01*
X035450Y010325D01*
X035700Y010575D01*
X035700Y011075D01*
X035450Y011325D01*
X035700Y011575D01*
X035700Y012075D01*
X035450Y012325D01*
X035700Y012575D01*
X035700Y013075D01*
X035450Y013325D01*
X035700Y013575D01*
X035700Y014075D01*
X035450Y014325D01*
X035700Y014575D01*
X035700Y015075D01*
X035450Y015325D01*
X035700Y015575D01*
X035700Y016075D01*
X035450Y016325D01*
X034950Y016325D01*
X034700Y016075D01*
D15*
X006850Y008825D02*
X005700Y008775D01*
X005600Y008675D01*
X005600Y004975D01*
X005700Y004875D01*
X006850Y004825D01*
X005740Y008595D02*
X005742Y008615D01*
X005748Y008633D01*
X005757Y008651D01*
X005769Y008666D01*
X005784Y008678D01*
X005802Y008687D01*
X005820Y008693D01*
X005840Y008695D01*
X005860Y008693D01*
X005878Y008687D01*
X005896Y008678D01*
X005911Y008666D01*
X005923Y008651D01*
X005932Y008633D01*
X005938Y008615D01*
X005940Y008595D01*
X005938Y008575D01*
X005932Y008557D01*
X005923Y008539D01*
X005911Y008524D01*
X005896Y008512D01*
X005878Y008503D01*
X005860Y008497D01*
X005840Y008495D01*
X005820Y008497D01*
X005802Y008503D01*
X005784Y008512D01*
X005769Y008524D01*
X005757Y008539D01*
X005748Y008557D01*
X005742Y008575D01*
X005740Y008595D01*
X004969Y014144D02*
X003198Y014144D01*
X003198Y016506D01*
X004969Y016506D01*
X004969Y015522D01*
X005166Y015522D01*
X005166Y015128D01*
X004969Y015128D01*
X004969Y014144D01*
D16*
X007150Y006825D03*
D17*
X006900Y008550D03*
X006900Y005100D03*
D18*
X006900Y006325D03*
X006900Y007325D03*
D19*
X004250Y013585D02*
X004250Y013892D01*
X004250Y016485D02*
X004250Y016792D01*
X004096Y016638D02*
X004403Y016638D01*
M02*
