G75*
G70*
%OFA0B0*%
%FSLAX24Y24*%
%IPPOS*%
%LPD*%
%AMOC8*
5,1,8,0,0,1.08239X$1,22.5*
%
%ADD10C,0.1300*%
%ADD11C,0.0680*%
%ADD12C,0.0780*%
%ADD13R,0.0690X0.0690*%
%ADD14C,0.0690*%
%ADD15C,0.0600*%
%ADD16C,0.0480*%
%ADD17C,0.0396*%
D10*
X005800Y001325D03*
X026300Y003325D03*
X026300Y014325D03*
X006300Y020325D03*
D11*
X009700Y020645D02*
X009700Y020005D01*
X010700Y020005D02*
X010700Y020645D01*
X011700Y020645D02*
X011700Y020005D01*
X012700Y020005D02*
X012700Y020645D01*
X013700Y020645D02*
X013700Y020005D01*
X014700Y020005D02*
X014700Y020645D01*
X015700Y020645D02*
X015700Y020005D01*
X016700Y020005D02*
X016700Y020645D01*
X018300Y020645D02*
X018300Y020005D01*
X019300Y020005D02*
X019300Y020645D01*
X020300Y020645D02*
X020300Y020005D01*
X021300Y020005D02*
X021300Y020645D01*
X022300Y020645D02*
X022300Y020005D01*
X023300Y020005D02*
X023300Y020645D01*
X024300Y020645D02*
X024300Y020005D01*
X025300Y020005D02*
X025300Y020645D01*
X006620Y007825D02*
X005980Y007825D01*
X005980Y006825D02*
X006620Y006825D01*
X006620Y005825D02*
X005980Y005825D01*
X013300Y001645D02*
X013300Y001005D01*
X014300Y001005D02*
X014300Y001645D01*
X015300Y001645D02*
X015300Y001005D01*
X016300Y001005D02*
X016300Y001645D01*
X017300Y001645D02*
X017300Y001005D01*
X018300Y001005D02*
X018300Y001645D01*
X020300Y001645D02*
X020300Y001005D01*
X021300Y001005D02*
X021300Y001645D01*
X022300Y001645D02*
X022300Y001005D01*
X023300Y001005D02*
X023300Y001645D01*
X024300Y001645D02*
X024300Y001005D01*
X025300Y001005D02*
X025300Y001645D01*
D12*
X021800Y003325D03*
X020800Y003325D03*
X019800Y003325D03*
X018800Y003325D03*
X017800Y003325D03*
X016800Y003325D03*
X015800Y003325D03*
X014800Y003325D03*
X013800Y003325D03*
X012800Y003325D03*
X011800Y003325D03*
X010800Y003325D03*
X010800Y010325D03*
X011800Y010325D03*
X012800Y010325D03*
X013800Y010325D03*
X014800Y010325D03*
X015800Y010325D03*
X016800Y010325D03*
X017800Y010325D03*
X018800Y010325D03*
X019800Y010325D03*
X020800Y010325D03*
X021800Y010325D03*
X004100Y020125D03*
X003100Y020125D03*
X002100Y020125D03*
X001800Y015895D03*
X001800Y014755D03*
D13*
X003300Y008825D03*
X003300Y005825D03*
D14*
X003300Y004825D03*
X003300Y007825D03*
D15*
X004300Y014931D03*
X004300Y015719D03*
D16*
X003300Y001325D03*
X003300Y003325D03*
X001300Y003325D03*
X001300Y005325D03*
X001300Y007325D03*
X003300Y010825D03*
X005300Y010825D03*
X007300Y010825D03*
X007300Y012825D03*
X005300Y012825D03*
X003300Y012825D03*
X007300Y014825D03*
X009300Y014825D03*
X012500Y015525D03*
X012900Y016325D03*
X013800Y016825D03*
X013300Y017325D03*
X015800Y016825D03*
X015800Y014825D03*
X017300Y013925D03*
X015800Y012825D03*
X015900Y012125D03*
X016900Y012725D03*
X020800Y013325D03*
X022800Y015325D03*
X022300Y015825D03*
X021300Y016525D03*
X023300Y017325D03*
X025300Y018825D03*
X020300Y017825D03*
X025800Y012825D03*
X025800Y010825D03*
X025800Y008825D03*
X025800Y006825D03*
X023800Y006825D03*
X021300Y006325D03*
X020300Y006325D03*
X019300Y008325D03*
X019800Y008825D03*
X017800Y008825D03*
X015800Y008825D03*
X013800Y008825D03*
X011900Y007525D03*
X011900Y006925D03*
X012700Y006725D03*
X013800Y006825D03*
X012700Y006125D03*
X012800Y005325D03*
X011800Y004825D03*
X013800Y004825D03*
X014800Y004825D03*
X015300Y004325D03*
X015300Y002725D03*
X013300Y002725D03*
X012500Y001525D03*
X011100Y001325D03*
X009300Y001325D03*
X007300Y001325D03*
X007300Y003325D03*
X005300Y003325D03*
X009700Y003325D03*
X011800Y006325D03*
X009700Y007725D03*
X009100Y007525D03*
X016300Y007325D03*
X016800Y006825D03*
X023800Y004825D03*
X025800Y004825D03*
X023800Y002825D03*
X019300Y001325D03*
X009300Y016825D03*
X007300Y016825D03*
X007300Y018825D03*
X005300Y018825D03*
X003300Y018825D03*
X001300Y018825D03*
X003300Y016825D03*
D17*
X020300Y004965D03*
M02*
