G75*
G70*
%OFA0B0*%
%FSLAX24Y24*%
%IPPOS*%
%LPD*%
%AMOC8*
5,1,8,0,0,1.08239X$1,22.5*
%
%ADD10C,0.0640*%
%ADD11C,0.0740*%
%ADD12R,0.0650X0.0650*%
%ADD13C,0.0650*%
%ADD14C,0.0560*%
%ADD15C,0.0160*%
%ADD16C,0.0440*%
%ADD17C,0.0080*%
%ADD18C,0.0100*%
%ADD19C,0.0360*%
D10*
X005980Y005825D02*
X006620Y005825D01*
X006620Y006825D02*
X005980Y006825D01*
X005980Y007825D02*
X006620Y007825D01*
X013300Y001645D02*
X013300Y001005D01*
X014300Y001005D02*
X014300Y001645D01*
X015300Y001645D02*
X015300Y001005D01*
X016300Y001005D02*
X016300Y001645D01*
X017300Y001645D02*
X017300Y001005D01*
X018300Y001005D02*
X018300Y001645D01*
X020300Y001645D02*
X020300Y001005D01*
X021300Y001005D02*
X021300Y001645D01*
X022300Y001645D02*
X022300Y001005D01*
X023300Y001005D02*
X023300Y001645D01*
X024300Y001645D02*
X024300Y001005D01*
X025300Y001005D02*
X025300Y001645D01*
X025300Y020005D02*
X025300Y020645D01*
X024300Y020645D02*
X024300Y020005D01*
X023300Y020005D02*
X023300Y020645D01*
X022300Y020645D02*
X022300Y020005D01*
X021300Y020005D02*
X021300Y020645D01*
X020300Y020645D02*
X020300Y020005D01*
X019300Y020005D02*
X019300Y020645D01*
X018300Y020645D02*
X018300Y020005D01*
X016700Y020005D02*
X016700Y020645D01*
X015700Y020645D02*
X015700Y020005D01*
X014700Y020005D02*
X014700Y020645D01*
X013700Y020645D02*
X013700Y020005D01*
X012700Y020005D02*
X012700Y020645D01*
X011700Y020645D02*
X011700Y020005D01*
X010700Y020005D02*
X010700Y020645D01*
X009700Y020645D02*
X009700Y020005D01*
D11*
X004100Y020125D03*
X003100Y020125D03*
X002100Y020125D03*
X001800Y015895D03*
X001800Y014755D03*
X010800Y010325D03*
X011800Y010325D03*
X012800Y010325D03*
X013800Y010325D03*
X014800Y010325D03*
X015800Y010325D03*
X016800Y010325D03*
X017800Y010325D03*
X018800Y010325D03*
X019800Y010325D03*
X020800Y010325D03*
X021800Y010325D03*
X021800Y003325D03*
X020800Y003325D03*
X019800Y003325D03*
X018800Y003325D03*
X017800Y003325D03*
X016800Y003325D03*
X015800Y003325D03*
X014800Y003325D03*
X013800Y003325D03*
X012800Y003325D03*
X011800Y003325D03*
X010800Y003325D03*
D12*
X003300Y005825D03*
X003300Y008825D03*
D13*
X003300Y007825D03*
X003300Y004825D03*
D14*
X004300Y014931D03*
X004300Y015719D03*
D15*
X004300Y015825D01*
X001800Y015825D01*
X001800Y015895D01*
X001800Y014825D02*
X001800Y014755D01*
X001800Y014325D01*
X003800Y014325D01*
X004300Y014825D01*
X004300Y014931D01*
X010700Y010325D02*
X010800Y010325D01*
X010700Y010325D02*
X010700Y009725D01*
X009300Y008325D01*
X009300Y007725D01*
X009100Y007525D01*
X009700Y007725D02*
X009700Y008325D01*
X010500Y009125D01*
X010700Y009125D01*
X011900Y010325D01*
X011800Y010325D01*
X015900Y012125D02*
X016500Y012725D01*
X016500Y019325D01*
X015700Y020125D01*
X015700Y020325D01*
X016700Y020325D02*
X016900Y020125D01*
X016900Y012725D01*
X017300Y013925D02*
X017300Y019325D01*
X018300Y020325D01*
X019300Y020325D02*
X019800Y020325D01*
X019800Y019325D01*
X020300Y018825D01*
X020300Y017825D01*
X021100Y016725D02*
X021100Y019925D01*
X021300Y020125D01*
X021300Y020325D01*
X020800Y019825D02*
X020800Y013325D01*
X022800Y015325D02*
X023300Y015825D01*
X023300Y017325D01*
X022800Y016325D02*
X022300Y015825D01*
X022800Y016325D02*
X022800Y019825D01*
X023300Y020325D01*
X022300Y020325D02*
X021800Y019825D01*
X021800Y010325D01*
X019300Y008325D02*
X021300Y006325D01*
X020300Y006325D02*
X018800Y004825D01*
X015800Y004825D01*
X015300Y004325D01*
X014800Y004825D02*
X016800Y006825D01*
X016300Y007325D02*
X013800Y004825D01*
X012800Y005325D02*
X011800Y006325D01*
X011900Y006925D02*
X012700Y006125D01*
X012700Y006725D02*
X011900Y007525D01*
X008700Y003325D02*
X006300Y005725D01*
X006300Y005825D01*
X008700Y003325D02*
X009700Y003325D01*
X011100Y001325D02*
X011900Y002125D01*
X012300Y002125D01*
X012900Y002725D01*
X013300Y002725D01*
X013500Y002325D02*
X012900Y002325D01*
X012300Y001725D01*
X012500Y001525D01*
X013500Y002325D02*
X014300Y001525D01*
X014300Y001325D01*
X015300Y001325D02*
X015300Y002725D01*
X015820Y003365D02*
X016780Y004325D01*
X019660Y004325D01*
X020300Y004965D01*
X020800Y003325D02*
X020800Y002825D01*
X021300Y002325D01*
X021300Y001325D01*
X012500Y015525D02*
X012500Y019325D01*
X011700Y020125D01*
X011700Y020325D01*
X010800Y020325D02*
X010700Y020325D01*
X010800Y020325D02*
X010300Y019825D01*
X010300Y019325D01*
X012700Y020325D02*
X012900Y020125D01*
X012900Y016325D01*
X013300Y017325D02*
X013300Y020325D01*
X013700Y020325D01*
X013800Y020325D01*
X020300Y020325D02*
X020800Y019825D01*
X024300Y019825D02*
X024300Y020325D01*
X024300Y019825D02*
X025300Y018825D01*
X021300Y016525D02*
X021100Y016725D01*
D16*
X021300Y016525D03*
X022300Y015825D03*
X022800Y015325D03*
X023300Y017325D03*
X025300Y018825D03*
X020300Y017825D03*
X015800Y016825D03*
X013800Y016825D03*
X013300Y017325D03*
X012900Y016325D03*
X012500Y015525D03*
X009300Y014825D03*
X007300Y014825D03*
X007300Y012825D03*
X005300Y012825D03*
X003300Y012825D03*
X003300Y010825D03*
X005300Y010825D03*
X007300Y010825D03*
X009700Y007725D03*
X009100Y007525D03*
X011800Y006325D03*
X011900Y006925D03*
X012700Y006725D03*
X013800Y006825D03*
X012700Y006125D03*
X012800Y005325D03*
X011800Y004825D03*
X013800Y004825D03*
X014800Y004825D03*
X015300Y004325D03*
X015300Y002725D03*
X013300Y002725D03*
X012500Y001525D03*
X011100Y001325D03*
X009300Y001325D03*
X007300Y001325D03*
X007300Y003325D03*
X005300Y003325D03*
X003300Y003325D03*
X001300Y003325D03*
X001300Y005325D03*
X001300Y007325D03*
X009700Y003325D03*
X003300Y001325D03*
X011900Y007525D03*
X013800Y008825D03*
X015800Y008825D03*
X017800Y008825D03*
X019300Y008325D03*
X019800Y008825D03*
X016300Y007325D03*
X016800Y006825D03*
X020300Y006325D03*
X021300Y006325D03*
X023800Y006825D03*
X025800Y006825D03*
X025800Y008825D03*
X025800Y010825D03*
X025800Y012825D03*
X020800Y013325D03*
X017300Y013925D03*
X015800Y014825D03*
X015800Y012825D03*
X015900Y012125D03*
X016900Y012725D03*
X009300Y016825D03*
X007300Y016825D03*
X007300Y018825D03*
X005300Y018825D03*
X003300Y018825D03*
X001300Y018825D03*
X003300Y016825D03*
X023800Y004825D03*
X025800Y004825D03*
X023800Y002825D03*
X019300Y001325D03*
D17*
X000690Y000715D02*
X000690Y020935D01*
X005538Y020935D01*
X005478Y020874D01*
X005330Y020518D01*
X005330Y020132D01*
X005478Y019776D01*
X005751Y019503D01*
X006107Y019355D01*
X006493Y019355D01*
X006849Y019503D01*
X007122Y019776D01*
X007270Y020132D01*
X007270Y020518D01*
X007122Y020874D01*
X007062Y020935D01*
X009339Y020935D01*
X009310Y020906D01*
X009240Y020736D01*
X009240Y019913D01*
X009310Y019744D01*
X009439Y019615D01*
X009608Y019545D01*
X009791Y019545D01*
X009961Y019615D01*
X010090Y019744D01*
X010160Y019913D01*
X010160Y020736D01*
X010090Y020906D01*
X010061Y020935D01*
X010342Y020935D01*
X010307Y020886D01*
X010274Y020822D01*
X010251Y020753D01*
X010240Y020681D01*
X010240Y020365D01*
X010660Y020365D01*
X010660Y020285D01*
X010740Y020285D01*
X010740Y020365D01*
X011160Y020365D01*
X011160Y020681D01*
X011149Y020753D01*
X011126Y020822D01*
X011093Y020886D01*
X011058Y020935D01*
X011339Y020935D01*
X011310Y020906D01*
X011240Y020736D01*
X011240Y019913D01*
X011310Y019744D01*
X011439Y019615D01*
X011608Y019545D01*
X011791Y019545D01*
X011917Y019597D01*
X012280Y019234D01*
X012280Y015814D01*
X012195Y015729D01*
X012140Y015597D01*
X012140Y015453D01*
X012195Y015321D01*
X012296Y015220D01*
X012428Y015165D01*
X012572Y015165D01*
X012704Y015220D01*
X012805Y015321D01*
X012860Y015453D01*
X012860Y015597D01*
X012805Y015729D01*
X012720Y015814D01*
X012720Y016010D01*
X012828Y015965D01*
X012972Y015965D01*
X013104Y016020D01*
X013205Y016121D01*
X013260Y016253D01*
X013260Y016397D01*
X013205Y016529D01*
X013120Y016614D01*
X013120Y017010D01*
X013228Y016965D01*
X013372Y016965D01*
X013504Y017020D01*
X013605Y017121D01*
X013660Y017253D01*
X013660Y017397D01*
X013605Y017529D01*
X013520Y017614D01*
X013520Y019582D01*
X013608Y019545D01*
X013791Y019545D01*
X013961Y019615D01*
X014090Y019744D01*
X014160Y019913D01*
X014160Y020736D01*
X014090Y020906D01*
X014061Y020935D01*
X014339Y020935D01*
X014310Y020906D01*
X014240Y020736D01*
X014240Y019913D01*
X014310Y019744D01*
X014439Y019615D01*
X014608Y019545D01*
X014791Y019545D01*
X014961Y019615D01*
X015090Y019744D01*
X015160Y019913D01*
X015160Y020736D01*
X015090Y020906D01*
X015061Y020935D01*
X015339Y020935D01*
X015310Y020906D01*
X015240Y020736D01*
X015240Y019913D01*
X015310Y019744D01*
X015439Y019615D01*
X015608Y019545D01*
X015791Y019545D01*
X015917Y019597D01*
X016280Y019234D01*
X016280Y012816D01*
X015949Y012485D01*
X015828Y012485D01*
X015696Y012430D01*
X015595Y012329D01*
X015540Y012197D01*
X015540Y012053D01*
X015595Y011921D01*
X015696Y011820D01*
X015828Y011765D01*
X015972Y011765D01*
X016104Y011820D01*
X016205Y011921D01*
X016260Y012053D01*
X016260Y012174D01*
X016591Y012505D01*
X016601Y012515D01*
X016696Y012420D01*
X016828Y012365D01*
X016972Y012365D01*
X017104Y012420D01*
X017205Y012521D01*
X017260Y012653D01*
X017260Y012797D01*
X017205Y012929D01*
X017120Y013014D01*
X017120Y013610D01*
X017228Y013565D01*
X017372Y013565D01*
X017504Y013620D01*
X017605Y013721D01*
X017660Y013853D01*
X017660Y013997D01*
X017605Y014129D01*
X017520Y014214D01*
X017520Y019234D01*
X017970Y019684D01*
X018039Y019615D01*
X018208Y019545D01*
X018391Y019545D01*
X018561Y019615D01*
X018690Y019744D01*
X018760Y019913D01*
X018760Y020736D01*
X018690Y020906D01*
X018661Y020935D01*
X018939Y020935D01*
X018910Y020906D01*
X018840Y020736D01*
X018840Y019913D01*
X018910Y019744D01*
X019039Y019615D01*
X019208Y019545D01*
X019391Y019545D01*
X019561Y019615D01*
X019580Y019634D01*
X019580Y019234D01*
X019709Y019105D01*
X020080Y018734D01*
X020080Y018114D01*
X019995Y018029D01*
X019940Y017897D01*
X019940Y017753D01*
X019995Y017621D01*
X020096Y017520D01*
X020228Y017465D01*
X020372Y017465D01*
X020504Y017520D01*
X020580Y017596D01*
X020580Y013614D01*
X020495Y013529D01*
X020440Y013397D01*
X020440Y013253D01*
X020495Y013121D01*
X020596Y013020D01*
X020728Y012965D01*
X020872Y012965D01*
X021004Y013020D01*
X021105Y013121D01*
X021160Y013253D01*
X021160Y013397D01*
X021105Y013529D01*
X021020Y013614D01*
X021020Y016296D01*
X021096Y016220D01*
X021228Y016165D01*
X021372Y016165D01*
X021504Y016220D01*
X021580Y016296D01*
X021580Y010786D01*
X021511Y010757D01*
X021368Y010614D01*
X021300Y010451D01*
X021232Y010614D01*
X021089Y010757D01*
X020901Y010835D01*
X020699Y010835D01*
X020511Y010757D01*
X020368Y010614D01*
X020300Y010451D01*
X020232Y010614D01*
X020089Y010757D01*
X019901Y010835D01*
X019699Y010835D01*
X019511Y010757D01*
X019368Y010614D01*
X019300Y010451D01*
X019232Y010614D01*
X019089Y010757D01*
X018901Y010835D01*
X018699Y010835D01*
X018511Y010757D01*
X018368Y010614D01*
X018300Y010451D01*
X018232Y010614D01*
X018089Y010757D01*
X017901Y010835D01*
X017699Y010835D01*
X017511Y010757D01*
X017368Y010614D01*
X017300Y010451D01*
X017232Y010614D01*
X017089Y010757D01*
X016901Y010835D01*
X016699Y010835D01*
X016511Y010757D01*
X016368Y010614D01*
X016300Y010451D01*
X016232Y010614D01*
X016089Y010757D01*
X015901Y010835D01*
X015699Y010835D01*
X015511Y010757D01*
X015368Y010614D01*
X015300Y010451D01*
X015232Y010614D01*
X015089Y010757D01*
X014901Y010835D01*
X014699Y010835D01*
X014511Y010757D01*
X014368Y010614D01*
X014297Y010444D01*
X014297Y010444D01*
X014273Y010521D01*
X014236Y010592D01*
X014189Y010657D01*
X014132Y010714D01*
X014067Y010761D01*
X013996Y010798D01*
X013919Y010822D01*
X013840Y010835D01*
X013840Y010365D01*
X013760Y010365D01*
X013760Y010835D01*
X013760Y010835D01*
X013681Y010822D01*
X013604Y010798D01*
X013533Y010761D01*
X013468Y010714D01*
X013411Y010657D01*
X013364Y010592D01*
X013327Y010521D01*
X013303Y010444D01*
X013232Y010614D01*
X013089Y010757D01*
X012901Y010835D01*
X012699Y010835D01*
X012511Y010757D01*
X012368Y010614D01*
X012300Y010451D01*
X012232Y010614D01*
X012089Y010757D01*
X011901Y010835D01*
X011699Y010835D01*
X011511Y010757D01*
X011368Y010614D01*
X011300Y010451D01*
X011232Y010614D01*
X011089Y010757D01*
X010901Y010835D01*
X010699Y010835D01*
X010511Y010757D01*
X010368Y010614D01*
X010290Y010426D01*
X010290Y010224D01*
X010368Y010036D01*
X010480Y009924D01*
X010480Y009816D01*
X009080Y008416D01*
X009080Y007885D01*
X009028Y007885D01*
X008896Y007830D01*
X008795Y007729D01*
X008740Y007597D01*
X008740Y007453D01*
X008795Y007321D01*
X008896Y007220D01*
X009028Y007165D01*
X009172Y007165D01*
X009304Y007220D01*
X009405Y007321D01*
X009460Y007453D01*
X009460Y007456D01*
X009496Y007420D01*
X009628Y007365D01*
X009772Y007365D01*
X009904Y007420D01*
X010005Y007521D01*
X010060Y007653D01*
X010060Y007797D01*
X010005Y007929D01*
X009920Y008014D01*
X009920Y008234D01*
X010591Y008905D01*
X010791Y008905D01*
X011701Y009815D01*
X011901Y009815D01*
X012089Y009893D01*
X012232Y010036D01*
X012300Y010199D01*
X012368Y010036D01*
X012511Y009893D01*
X012699Y009815D01*
X012901Y009815D01*
X013089Y009893D01*
X013232Y010036D01*
X013303Y010206D01*
X013303Y010206D01*
X013327Y010129D01*
X013364Y010058D01*
X013411Y009993D01*
X013468Y009936D01*
X013533Y009889D01*
X013604Y009852D01*
X013681Y009828D01*
X013760Y009815D01*
X013760Y010285D01*
X013840Y010285D01*
X013840Y009815D01*
X013840Y009815D01*
X013919Y009828D01*
X013996Y009852D01*
X014067Y009889D01*
X014132Y009936D01*
X014189Y009993D01*
X014236Y010058D01*
X014273Y010129D01*
X014297Y010206D01*
X014368Y010036D01*
X014511Y009893D01*
X014699Y009815D01*
X014901Y009815D01*
X015089Y009893D01*
X015232Y010036D01*
X015300Y010199D01*
X015368Y010036D01*
X015511Y009893D01*
X015699Y009815D01*
X015901Y009815D01*
X016089Y009893D01*
X016232Y010036D01*
X016300Y010199D01*
X016368Y010036D01*
X016511Y009893D01*
X016699Y009815D01*
X016901Y009815D01*
X017089Y009893D01*
X017232Y010036D01*
X017300Y010199D01*
X017368Y010036D01*
X017511Y009893D01*
X017699Y009815D01*
X017901Y009815D01*
X018089Y009893D01*
X018232Y010036D01*
X018300Y010199D01*
X018368Y010036D01*
X018511Y009893D01*
X018699Y009815D01*
X018901Y009815D01*
X019089Y009893D01*
X019232Y010036D01*
X019300Y010199D01*
X019368Y010036D01*
X019511Y009893D01*
X019699Y009815D01*
X019901Y009815D01*
X020089Y009893D01*
X020232Y010036D01*
X020300Y010199D01*
X020368Y010036D01*
X020511Y009893D01*
X020699Y009815D01*
X020901Y009815D01*
X021089Y009893D01*
X021232Y010036D01*
X021300Y010199D01*
X021368Y010036D01*
X021511Y009893D01*
X021699Y009815D01*
X021901Y009815D01*
X022089Y009893D01*
X022232Y010036D01*
X022310Y010224D01*
X022310Y010426D01*
X022232Y010614D01*
X022089Y010757D01*
X022020Y010786D01*
X022020Y015596D01*
X022096Y015520D01*
X022228Y015465D01*
X022372Y015465D01*
X022488Y015513D01*
X022440Y015397D01*
X022020Y015397D01*
X022020Y015319D02*
X022440Y015319D01*
X022440Y015253D02*
X022495Y015121D01*
X022596Y015020D01*
X022728Y014965D01*
X022872Y014965D01*
X023004Y015020D01*
X023105Y015121D01*
X023160Y015253D01*
X023160Y015374D01*
X023391Y015605D01*
X023520Y015734D01*
X023520Y017036D01*
X023605Y017121D01*
X023660Y017253D01*
X023660Y017397D01*
X023605Y017529D01*
X023504Y017630D01*
X023372Y017685D01*
X023228Y017685D01*
X023096Y017630D01*
X023020Y017554D01*
X023020Y019634D01*
X023039Y019615D01*
X023208Y019545D01*
X023391Y019545D01*
X023561Y019615D01*
X023690Y019744D01*
X023760Y019913D01*
X023760Y020736D01*
X023690Y020906D01*
X023661Y020935D01*
X023939Y020935D01*
X023910Y020906D01*
X023840Y020736D01*
X023840Y019913D01*
X023910Y019744D01*
X024039Y019615D01*
X024208Y019545D01*
X024269Y019545D01*
X024940Y018874D01*
X024940Y018753D01*
X024995Y018621D01*
X025096Y018520D01*
X025228Y018465D01*
X025372Y018465D01*
X025504Y018520D01*
X025605Y018621D01*
X025660Y018753D01*
X025660Y018897D01*
X025605Y019029D01*
X025504Y019130D01*
X025372Y019185D01*
X025251Y019185D01*
X024690Y019746D01*
X024760Y019913D01*
X024760Y020736D01*
X024690Y020906D01*
X024661Y020935D01*
X024939Y020935D01*
X024910Y020906D01*
X024840Y020736D01*
X024840Y019913D01*
X024910Y019744D01*
X025039Y019615D01*
X025208Y019545D01*
X025391Y019545D01*
X025561Y019615D01*
X025690Y019744D01*
X025760Y019913D01*
X025760Y020713D01*
X025910Y020563D01*
X025910Y016147D01*
X025969Y016004D01*
X026079Y015894D01*
X026810Y015164D01*
X026493Y015295D01*
X026107Y015295D01*
X025751Y015147D01*
X025478Y014874D01*
X025330Y014518D01*
X025330Y014132D01*
X025478Y013776D01*
X025751Y013503D01*
X026107Y013355D01*
X026493Y013355D01*
X026849Y013503D01*
X026910Y013563D01*
X026910Y004087D01*
X026849Y004147D01*
X026493Y004295D01*
X026107Y004295D01*
X025751Y004147D01*
X025478Y003874D01*
X025330Y003518D01*
X025330Y003132D01*
X025478Y002776D01*
X025751Y002503D01*
X026107Y002355D01*
X026493Y002355D01*
X026849Y002503D01*
X026910Y002563D01*
X026910Y002487D01*
X026079Y001656D01*
X025969Y001546D01*
X025910Y001403D01*
X025910Y000715D01*
X025661Y000715D01*
X025690Y000744D01*
X025760Y000913D01*
X025760Y001736D01*
X025690Y001906D01*
X025561Y002035D01*
X025391Y002105D01*
X025208Y002105D01*
X025039Y002035D01*
X024910Y001906D01*
X024840Y001736D01*
X024840Y000913D01*
X024910Y000744D01*
X024939Y000715D01*
X024661Y000715D01*
X024690Y000744D01*
X024760Y000913D01*
X024760Y001736D01*
X024690Y001906D01*
X024561Y002035D01*
X024391Y002105D01*
X024208Y002105D01*
X024039Y002035D01*
X023910Y001906D01*
X023840Y001736D01*
X023840Y000913D01*
X023910Y000744D01*
X023939Y000715D01*
X023661Y000715D01*
X023690Y000744D01*
X023760Y000913D01*
X023760Y001736D01*
X023690Y001906D01*
X023561Y002035D01*
X023391Y002105D01*
X023208Y002105D01*
X023039Y002035D01*
X022910Y001906D01*
X022840Y001736D01*
X022840Y000913D01*
X022910Y000744D01*
X022939Y000715D01*
X022661Y000715D01*
X022690Y000744D01*
X022760Y000913D01*
X022760Y001736D01*
X022690Y001906D01*
X022561Y002035D01*
X022391Y002105D01*
X022208Y002105D01*
X022039Y002035D01*
X021910Y001906D01*
X021840Y001736D01*
X021840Y000913D01*
X021910Y000744D01*
X021939Y000715D01*
X021661Y000715D01*
X021690Y000744D01*
X021760Y000913D01*
X021760Y001736D01*
X021690Y001906D01*
X021561Y002035D01*
X021520Y002052D01*
X022081Y002052D01*
X021978Y001974D02*
X021622Y001974D01*
X021694Y001895D02*
X021906Y001895D01*
X021873Y001817D02*
X021727Y001817D01*
X021759Y001738D02*
X021841Y001738D01*
X021840Y001660D02*
X021760Y001660D01*
X021760Y001581D02*
X021840Y001581D01*
X021840Y001503D02*
X021760Y001503D01*
X021760Y001424D02*
X021840Y001424D01*
X021840Y001346D02*
X021760Y001346D01*
X021760Y001267D02*
X021840Y001267D01*
X021840Y001189D02*
X021760Y001189D01*
X021760Y001110D02*
X021840Y001110D01*
X021840Y001032D02*
X021760Y001032D01*
X021760Y000953D02*
X021840Y000953D01*
X021856Y000875D02*
X021744Y000875D01*
X021711Y000796D02*
X021889Y000796D01*
X021937Y000718D02*
X021663Y000718D01*
X020939Y000715D02*
X020661Y000715D01*
X020690Y000744D01*
X020760Y000913D01*
X020760Y001736D01*
X020690Y001906D01*
X020561Y002035D01*
X020391Y002105D01*
X020208Y002105D01*
X020039Y002035D01*
X019910Y001906D01*
X019840Y001736D01*
X019840Y000913D01*
X019910Y000744D01*
X019939Y000715D01*
X018661Y000715D01*
X018690Y000744D01*
X018760Y000913D01*
X018760Y001736D01*
X018690Y001906D01*
X018561Y002035D01*
X018391Y002105D01*
X018208Y002105D01*
X018039Y002035D01*
X017910Y001906D01*
X017840Y001736D01*
X017840Y000913D01*
X017910Y000744D01*
X017939Y000715D01*
X017658Y000715D01*
X017693Y000764D01*
X017726Y000828D01*
X017749Y000897D01*
X017760Y000969D01*
X017760Y001285D01*
X017340Y001285D01*
X017340Y001365D01*
X017260Y001365D01*
X017260Y002104D01*
X017192Y002094D01*
X017123Y002071D01*
X017059Y002038D01*
X017000Y001996D01*
X016949Y001945D01*
X016907Y001886D01*
X016874Y001822D01*
X016851Y001753D01*
X016840Y001681D01*
X016840Y001365D01*
X017260Y001365D01*
X017260Y001285D01*
X016840Y001285D01*
X016840Y000969D01*
X016851Y000897D01*
X016874Y000828D01*
X016907Y000764D01*
X016942Y000715D01*
X016658Y000715D01*
X016693Y000764D01*
X016726Y000828D01*
X016749Y000897D01*
X016760Y000969D01*
X016760Y001285D01*
X016340Y001285D01*
X016340Y001365D01*
X016260Y001365D01*
X016260Y002104D01*
X016192Y002094D01*
X016123Y002071D01*
X016059Y002038D01*
X016000Y001996D01*
X015949Y001945D01*
X015907Y001886D01*
X015874Y001822D01*
X015851Y001753D01*
X015840Y001681D01*
X015840Y001365D01*
X016260Y001365D01*
X016260Y001285D01*
X015840Y001285D01*
X015840Y000969D01*
X015851Y000897D01*
X015874Y000828D01*
X015907Y000764D01*
X015942Y000715D01*
X015661Y000715D01*
X015690Y000744D01*
X015760Y000913D01*
X015760Y001736D01*
X015690Y001906D01*
X015561Y002035D01*
X015520Y002052D01*
X016086Y002052D01*
X015978Y001974D02*
X015622Y001974D01*
X015694Y001895D02*
X015913Y001895D01*
X015872Y001817D02*
X015727Y001817D01*
X015759Y001738D02*
X015849Y001738D01*
X015840Y001660D02*
X015760Y001660D01*
X015760Y001581D02*
X015840Y001581D01*
X015840Y001503D02*
X015760Y001503D01*
X015760Y001424D02*
X015840Y001424D01*
X015760Y001346D02*
X016260Y001346D01*
X016260Y001424D02*
X016340Y001424D01*
X016340Y001365D02*
X016340Y002104D01*
X016408Y002094D01*
X016477Y002071D01*
X016541Y002038D01*
X016600Y001996D01*
X016651Y001945D01*
X016693Y001886D01*
X016726Y001822D01*
X016749Y001753D01*
X016760Y001681D01*
X016760Y001365D01*
X016340Y001365D01*
X016340Y001346D02*
X017260Y001346D01*
X017260Y001424D02*
X017340Y001424D01*
X017340Y001365D02*
X017340Y002104D01*
X017408Y002094D01*
X017477Y002071D01*
X017541Y002038D01*
X017600Y001996D01*
X017651Y001945D01*
X017693Y001886D01*
X017726Y001822D01*
X017749Y001753D01*
X017760Y001681D01*
X017760Y001365D01*
X017340Y001365D01*
X017340Y001346D02*
X017840Y001346D01*
X017840Y001424D02*
X017760Y001424D01*
X017760Y001503D02*
X017840Y001503D01*
X017840Y001581D02*
X017760Y001581D01*
X017760Y001660D02*
X017840Y001660D01*
X017841Y001738D02*
X017751Y001738D01*
X017728Y001817D02*
X017873Y001817D01*
X017906Y001895D02*
X017687Y001895D01*
X017622Y001974D02*
X017978Y001974D01*
X018081Y002052D02*
X017514Y002052D01*
X017340Y002052D02*
X017260Y002052D01*
X017260Y001974D02*
X017340Y001974D01*
X017340Y001895D02*
X017260Y001895D01*
X017260Y001817D02*
X017340Y001817D01*
X017340Y001738D02*
X017260Y001738D01*
X017260Y001660D02*
X017340Y001660D01*
X017340Y001581D02*
X017260Y001581D01*
X017260Y001503D02*
X017340Y001503D01*
X017760Y001267D02*
X017840Y001267D01*
X017840Y001189D02*
X017760Y001189D01*
X017760Y001110D02*
X017840Y001110D01*
X017840Y001032D02*
X017760Y001032D01*
X017757Y000953D02*
X017840Y000953D01*
X017856Y000875D02*
X017741Y000875D01*
X017710Y000796D02*
X017889Y000796D01*
X017937Y000718D02*
X017660Y000718D01*
X016940Y000718D02*
X016660Y000718D01*
X016710Y000796D02*
X016890Y000796D01*
X016859Y000875D02*
X016741Y000875D01*
X016757Y000953D02*
X016843Y000953D01*
X016840Y001032D02*
X016760Y001032D01*
X016760Y001110D02*
X016840Y001110D01*
X016840Y001189D02*
X016760Y001189D01*
X016760Y001267D02*
X016840Y001267D01*
X016840Y001424D02*
X016760Y001424D01*
X016760Y001503D02*
X016840Y001503D01*
X016840Y001581D02*
X016760Y001581D01*
X016760Y001660D02*
X016840Y001660D01*
X016849Y001738D02*
X016751Y001738D01*
X016728Y001817D02*
X016872Y001817D01*
X016913Y001895D02*
X016687Y001895D01*
X016622Y001974D02*
X016978Y001974D01*
X017086Y002052D02*
X016514Y002052D01*
X016340Y002052D02*
X016260Y002052D01*
X016260Y001974D02*
X016340Y001974D01*
X016340Y001895D02*
X016260Y001895D01*
X016260Y001817D02*
X016340Y001817D01*
X016340Y001738D02*
X016260Y001738D01*
X016260Y001660D02*
X016340Y001660D01*
X016340Y001581D02*
X016260Y001581D01*
X016260Y001503D02*
X016340Y001503D01*
X015840Y001267D02*
X015760Y001267D01*
X015760Y001189D02*
X015840Y001189D01*
X015840Y001110D02*
X015760Y001110D01*
X015760Y001032D02*
X015840Y001032D01*
X015843Y000953D02*
X015760Y000953D01*
X015744Y000875D02*
X015859Y000875D01*
X015890Y000796D02*
X015711Y000796D01*
X015663Y000718D02*
X015940Y000718D01*
X015520Y002052D02*
X015520Y002436D01*
X015605Y002521D01*
X015660Y002653D01*
X015660Y002797D01*
X015643Y002838D01*
X015699Y002815D01*
X015901Y002815D01*
X016089Y002893D01*
X016232Y003036D01*
X016300Y003199D01*
X016368Y003036D01*
X016511Y002893D01*
X016699Y002815D01*
X016901Y002815D01*
X017089Y002893D01*
X017232Y003036D01*
X017300Y003199D01*
X017368Y003036D01*
X017511Y002893D01*
X017699Y002815D01*
X017901Y002815D01*
X018089Y002893D01*
X018232Y003036D01*
X018300Y003199D01*
X018368Y003036D01*
X018511Y002893D01*
X018699Y002815D01*
X018901Y002815D01*
X019089Y002893D01*
X019232Y003036D01*
X019300Y003199D01*
X019368Y003036D01*
X019511Y002893D01*
X019699Y002815D01*
X019901Y002815D01*
X020089Y002893D01*
X020232Y003036D01*
X020300Y003199D01*
X020368Y003036D01*
X020511Y002893D01*
X020580Y002864D01*
X020580Y002734D01*
X020709Y002605D01*
X021080Y002234D01*
X021080Y002052D01*
X020519Y002052D01*
X020622Y001974D02*
X020978Y001974D01*
X021039Y002035D02*
X020910Y001906D01*
X020840Y001736D01*
X020840Y000913D01*
X020910Y000744D01*
X020939Y000715D01*
X020937Y000718D02*
X020663Y000718D01*
X020711Y000796D02*
X020889Y000796D01*
X020856Y000875D02*
X020744Y000875D01*
X020760Y000953D02*
X020840Y000953D01*
X020840Y001032D02*
X020760Y001032D01*
X020760Y001110D02*
X020840Y001110D01*
X020840Y001189D02*
X020760Y001189D01*
X020760Y001267D02*
X020840Y001267D01*
X020840Y001346D02*
X020760Y001346D01*
X020760Y001424D02*
X020840Y001424D01*
X020840Y001503D02*
X020760Y001503D01*
X020760Y001581D02*
X020840Y001581D01*
X020840Y001660D02*
X020760Y001660D01*
X020759Y001738D02*
X020841Y001738D01*
X020873Y001817D02*
X020727Y001817D01*
X020694Y001895D02*
X020906Y001895D01*
X021039Y002035D02*
X021080Y002052D01*
X021080Y002131D02*
X015520Y002131D01*
X015520Y002209D02*
X021080Y002209D01*
X021026Y002288D02*
X015520Y002288D01*
X015520Y002366D02*
X020948Y002366D01*
X020869Y002445D02*
X015529Y002445D01*
X015606Y002523D02*
X020791Y002523D01*
X020712Y002602D02*
X015639Y002602D01*
X015660Y002680D02*
X020634Y002680D01*
X020580Y002759D02*
X015660Y002759D01*
X015643Y002837D02*
X015645Y002837D01*
X015955Y002837D02*
X016645Y002837D01*
X016488Y002916D02*
X016112Y002916D01*
X016190Y002994D02*
X016410Y002994D01*
X016353Y003073D02*
X016247Y003073D01*
X016280Y003151D02*
X016320Y003151D01*
X016955Y002837D02*
X017645Y002837D01*
X017488Y002916D02*
X017112Y002916D01*
X017190Y002994D02*
X017410Y002994D01*
X017353Y003073D02*
X017247Y003073D01*
X017280Y003151D02*
X017320Y003151D01*
X017300Y003451D02*
X017232Y003614D01*
X017089Y003757D01*
X016901Y003835D01*
X016699Y003835D01*
X016532Y003766D01*
X016871Y004105D01*
X019751Y004105D01*
X019880Y004234D01*
X020291Y004645D01*
X020364Y004645D01*
X020481Y004694D01*
X020571Y004784D01*
X020620Y004901D01*
X020620Y005029D01*
X020571Y005146D01*
X020481Y005236D01*
X020364Y005285D01*
X020236Y005285D01*
X020119Y005236D01*
X020029Y005146D01*
X019980Y005029D01*
X019980Y004956D01*
X019569Y004545D01*
X016689Y004545D01*
X015956Y003812D01*
X015901Y003835D01*
X015699Y003835D01*
X015511Y003757D01*
X015368Y003614D01*
X015300Y003451D01*
X015232Y003614D01*
X015089Y003757D01*
X014901Y003835D01*
X014699Y003835D01*
X014511Y003757D01*
X014368Y003614D01*
X014300Y003451D01*
X014232Y003614D01*
X014089Y003757D01*
X013901Y003835D01*
X013699Y003835D01*
X013511Y003757D01*
X013368Y003614D01*
X013300Y003451D01*
X013232Y003614D01*
X013089Y003757D01*
X012901Y003835D01*
X012699Y003835D01*
X012511Y003757D01*
X012368Y003614D01*
X012297Y003444D01*
X012297Y003444D01*
X012273Y003521D01*
X012236Y003592D01*
X012189Y003657D01*
X012132Y003714D01*
X012067Y003761D01*
X011996Y003798D01*
X011919Y003822D01*
X011840Y003835D01*
X011840Y003365D01*
X011760Y003365D01*
X011760Y003835D01*
X011760Y003835D01*
X011681Y003822D01*
X011604Y003798D01*
X011533Y003761D01*
X011468Y003714D01*
X011411Y003657D01*
X011364Y003592D01*
X011327Y003521D01*
X011303Y003444D01*
X011232Y003614D01*
X011089Y003757D01*
X010901Y003835D01*
X010699Y003835D01*
X010511Y003757D01*
X010368Y003614D01*
X010290Y003426D01*
X010290Y003224D01*
X010368Y003036D01*
X010511Y002893D01*
X010699Y002815D01*
X010901Y002815D01*
X011089Y002893D01*
X011232Y003036D01*
X011303Y003206D01*
X011303Y003206D01*
X011327Y003129D01*
X011364Y003058D01*
X011411Y002993D01*
X011468Y002936D01*
X011533Y002889D01*
X011604Y002852D01*
X011681Y002828D01*
X011760Y002815D01*
X011760Y003285D01*
X011840Y003285D01*
X011840Y002815D01*
X011840Y002815D01*
X011919Y002828D01*
X011996Y002852D01*
X012067Y002889D01*
X012132Y002936D01*
X012189Y002993D01*
X012236Y003058D01*
X012273Y003129D01*
X012297Y003206D01*
X012368Y003036D01*
X012511Y002893D01*
X012685Y002821D01*
X012209Y002345D01*
X011809Y002345D01*
X011149Y001685D01*
X011028Y001685D01*
X010896Y001630D01*
X010795Y001529D01*
X010740Y001397D01*
X010740Y001253D01*
X010795Y001121D01*
X010896Y001020D01*
X011028Y000965D01*
X011172Y000965D01*
X011304Y001020D01*
X011405Y001121D01*
X011460Y001253D01*
X011460Y001374D01*
X011991Y001905D01*
X012169Y001905D01*
X012080Y001816D01*
X012080Y001634D01*
X012140Y001574D01*
X012140Y001453D01*
X012195Y001321D01*
X012296Y001220D01*
X012428Y001165D01*
X012572Y001165D01*
X012704Y001220D01*
X012805Y001321D01*
X012840Y001405D01*
X012840Y000913D01*
X012910Y000744D01*
X012939Y000715D01*
X006562Y000715D01*
X006622Y000776D01*
X006770Y001132D01*
X006770Y001518D01*
X006622Y001874D01*
X006349Y002147D01*
X005993Y002295D01*
X005607Y002295D01*
X005251Y002147D01*
X004978Y001874D01*
X004830Y001518D01*
X004830Y001132D01*
X004978Y000776D01*
X005038Y000715D01*
X000690Y000715D01*
X000690Y000718D02*
X005036Y000718D01*
X004969Y000796D02*
X000690Y000796D01*
X000690Y000875D02*
X004937Y000875D01*
X004904Y000953D02*
X000690Y000953D01*
X000690Y001032D02*
X004872Y001032D01*
X004839Y001110D02*
X000690Y001110D01*
X000690Y001189D02*
X004830Y001189D01*
X004830Y001267D02*
X000690Y001267D01*
X000690Y001346D02*
X004830Y001346D01*
X004830Y001424D02*
X000690Y001424D01*
X000690Y001503D02*
X004830Y001503D01*
X004856Y001581D02*
X000690Y001581D01*
X000690Y001660D02*
X004889Y001660D01*
X004921Y001738D02*
X000690Y001738D01*
X000690Y001817D02*
X004954Y001817D01*
X004998Y001895D02*
X000690Y001895D01*
X000690Y001974D02*
X005077Y001974D01*
X005155Y002052D02*
X000690Y002052D01*
X000690Y002131D02*
X005234Y002131D01*
X005400Y002209D02*
X000690Y002209D01*
X000690Y002288D02*
X005589Y002288D01*
X006011Y002288D02*
X011751Y002288D01*
X011673Y002209D02*
X006200Y002209D01*
X006366Y002131D02*
X011594Y002131D01*
X011516Y002052D02*
X006445Y002052D01*
X006523Y001974D02*
X011437Y001974D01*
X011359Y001895D02*
X006602Y001895D01*
X006646Y001817D02*
X011280Y001817D01*
X011202Y001738D02*
X006679Y001738D01*
X006711Y001660D02*
X010967Y001660D01*
X010847Y001581D02*
X006744Y001581D01*
X006770Y001503D02*
X010784Y001503D01*
X010751Y001424D02*
X006770Y001424D01*
X006770Y001346D02*
X010740Y001346D01*
X010740Y001267D02*
X006770Y001267D01*
X006770Y001189D02*
X010767Y001189D01*
X010806Y001110D02*
X006761Y001110D01*
X006728Y001032D02*
X010884Y001032D01*
X011316Y001032D02*
X012840Y001032D01*
X012840Y001110D02*
X011394Y001110D01*
X011433Y001189D02*
X012372Y001189D01*
X012249Y001267D02*
X011460Y001267D01*
X011460Y001346D02*
X012185Y001346D01*
X012152Y001424D02*
X011510Y001424D01*
X011589Y001503D02*
X012140Y001503D01*
X012133Y001581D02*
X011667Y001581D01*
X011746Y001660D02*
X012080Y001660D01*
X012080Y001738D02*
X011824Y001738D01*
X011903Y001817D02*
X012080Y001817D01*
X012159Y001895D02*
X011981Y001895D01*
X012230Y002366D02*
X000690Y002366D01*
X000690Y002445D02*
X012308Y002445D01*
X012387Y002523D02*
X000690Y002523D01*
X000690Y002602D02*
X012465Y002602D01*
X012544Y002680D02*
X000690Y002680D01*
X000690Y002759D02*
X012622Y002759D01*
X012645Y002837D02*
X011949Y002837D01*
X011840Y002837D02*
X011760Y002837D01*
X011760Y002815D02*
X011760Y002815D01*
X011760Y002916D02*
X011840Y002916D01*
X011840Y002994D02*
X011760Y002994D01*
X011760Y003073D02*
X011840Y003073D01*
X011840Y003151D02*
X011760Y003151D01*
X011760Y003230D02*
X011840Y003230D01*
X011840Y003387D02*
X011760Y003387D01*
X011760Y003465D02*
X011840Y003465D01*
X011840Y003544D02*
X011760Y003544D01*
X011760Y003622D02*
X011840Y003622D01*
X011840Y003701D02*
X011760Y003701D01*
X011760Y003779D02*
X011840Y003779D01*
X011840Y003835D02*
X011840Y003835D01*
X012032Y003779D02*
X012563Y003779D01*
X012454Y003701D02*
X012146Y003701D01*
X012215Y003622D02*
X012376Y003622D01*
X012338Y003544D02*
X012261Y003544D01*
X012291Y003465D02*
X012306Y003465D01*
X012297Y003206D02*
X012297Y003206D01*
X012280Y003151D02*
X012320Y003151D01*
X012353Y003073D02*
X012244Y003073D01*
X012190Y002994D02*
X012410Y002994D01*
X012488Y002916D02*
X012104Y002916D01*
X011651Y002837D02*
X010955Y002837D01*
X011112Y002916D02*
X011496Y002916D01*
X011410Y002994D02*
X011190Y002994D01*
X011247Y003073D02*
X011356Y003073D01*
X011320Y003151D02*
X011280Y003151D01*
X011303Y003444D02*
X011303Y003444D01*
X011309Y003465D02*
X011294Y003465D01*
X011262Y003544D02*
X011339Y003544D01*
X011385Y003622D02*
X011224Y003622D01*
X011146Y003701D02*
X011454Y003701D01*
X011568Y003779D02*
X011037Y003779D01*
X010563Y003779D02*
X008557Y003779D01*
X008479Y003858D02*
X016001Y003858D01*
X016080Y003936D02*
X008400Y003936D01*
X008322Y004015D02*
X015109Y004015D01*
X015096Y004020D02*
X015228Y003965D01*
X015372Y003965D01*
X015504Y004020D01*
X015605Y004121D01*
X015660Y004253D01*
X015660Y004374D01*
X015891Y004605D01*
X018891Y004605D01*
X019020Y004734D01*
X020251Y005965D01*
X020372Y005965D01*
X020504Y006020D01*
X020605Y006121D01*
X020660Y006253D01*
X020660Y006397D01*
X020605Y006529D01*
X020504Y006630D01*
X020372Y006685D01*
X020228Y006685D01*
X020096Y006630D01*
X019995Y006529D01*
X019940Y006397D01*
X019940Y006276D01*
X018709Y005045D01*
X015709Y005045D01*
X015349Y004685D01*
X015228Y004685D01*
X015112Y004637D01*
X015160Y004753D01*
X015160Y004874D01*
X016751Y006465D01*
X016872Y006465D01*
X017004Y006520D01*
X017105Y006621D01*
X017160Y006753D01*
X017160Y006897D01*
X017105Y007029D01*
X017004Y007130D01*
X016872Y007185D01*
X016728Y007185D01*
X016612Y007137D01*
X016660Y007253D01*
X016660Y007397D01*
X016605Y007529D01*
X016504Y007630D01*
X016372Y007685D01*
X016228Y007685D01*
X016096Y007630D01*
X015995Y007529D01*
X015940Y007397D01*
X015940Y007276D01*
X013849Y005185D01*
X013728Y005185D01*
X013596Y005130D01*
X013495Y005029D01*
X013440Y004897D01*
X013440Y004753D01*
X013495Y004621D01*
X013596Y004520D01*
X013728Y004465D01*
X013872Y004465D01*
X014004Y004520D01*
X014105Y004621D01*
X014160Y004753D01*
X014160Y004874D01*
X016251Y006965D01*
X016372Y006965D01*
X016488Y007013D01*
X016440Y006897D01*
X016440Y006776D01*
X014849Y005185D01*
X014728Y005185D01*
X014596Y005130D01*
X014495Y005029D01*
X014440Y004897D01*
X014440Y004753D01*
X014495Y004621D01*
X014596Y004520D01*
X014728Y004465D01*
X014872Y004465D01*
X014988Y004513D01*
X014940Y004397D01*
X014940Y004253D01*
X014995Y004121D01*
X015096Y004020D01*
X015023Y004093D02*
X008243Y004093D01*
X008165Y004172D02*
X014974Y004172D01*
X014941Y004250D02*
X008086Y004250D01*
X008008Y004329D02*
X014940Y004329D01*
X014944Y004407D02*
X007929Y004407D01*
X007851Y004486D02*
X013679Y004486D01*
X013552Y004564D02*
X007772Y004564D01*
X007694Y004643D02*
X013486Y004643D01*
X013453Y004721D02*
X007615Y004721D01*
X007537Y004800D02*
X013440Y004800D01*
X013440Y004878D02*
X007458Y004878D01*
X007380Y004957D02*
X013465Y004957D01*
X013501Y005035D02*
X013019Y005035D01*
X013004Y005020D02*
X013105Y005121D01*
X013160Y005253D01*
X013160Y005397D01*
X013105Y005529D01*
X013004Y005630D01*
X012872Y005685D01*
X012751Y005685D01*
X012671Y005765D01*
X012772Y005765D01*
X012904Y005820D01*
X014484Y005820D01*
X014562Y005899D02*
X012983Y005899D01*
X013005Y005921D02*
X013060Y006053D01*
X013060Y006197D01*
X013005Y006329D01*
X012909Y006425D01*
X013005Y006521D01*
X013060Y006653D01*
X013060Y006797D01*
X013005Y006929D01*
X012904Y007030D01*
X012772Y007085D01*
X012651Y007085D01*
X012260Y007476D01*
X012260Y007597D01*
X012205Y007729D01*
X012104Y007830D01*
X011972Y007885D01*
X011828Y007885D01*
X011696Y007830D01*
X011595Y007729D01*
X011540Y007597D01*
X011540Y007453D01*
X011595Y007321D01*
X011691Y007225D01*
X011595Y007129D01*
X011540Y006997D01*
X011540Y006853D01*
X011595Y006721D01*
X011659Y006656D01*
X011596Y006630D01*
X011495Y006529D01*
X011440Y006397D01*
X011440Y006253D01*
X011495Y006121D01*
X011596Y006020D01*
X011728Y005965D01*
X011849Y005965D01*
X012440Y005374D01*
X012440Y005253D01*
X012495Y005121D01*
X012596Y005020D01*
X012728Y004965D01*
X012872Y004965D01*
X013004Y005020D01*
X013098Y005114D02*
X013579Y005114D01*
X013856Y005192D02*
X013135Y005192D01*
X013160Y005271D02*
X013934Y005271D01*
X014013Y005349D02*
X013160Y005349D01*
X013147Y005428D02*
X014091Y005428D01*
X014170Y005506D02*
X013115Y005506D01*
X013050Y005585D02*
X014248Y005585D01*
X014327Y005663D02*
X012925Y005663D01*
X012904Y005820D02*
X013005Y005921D01*
X013028Y005977D02*
X014641Y005977D01*
X014719Y006056D02*
X013060Y006056D01*
X013060Y006134D02*
X014798Y006134D01*
X014876Y006213D02*
X013053Y006213D01*
X013021Y006291D02*
X014955Y006291D01*
X015033Y006370D02*
X012965Y006370D01*
X012932Y006448D02*
X015112Y006448D01*
X015190Y006527D02*
X013007Y006527D01*
X013040Y006605D02*
X015269Y006605D01*
X015347Y006684D02*
X013060Y006684D01*
X013060Y006762D02*
X015426Y006762D01*
X015504Y006841D02*
X013042Y006841D01*
X013009Y006919D02*
X015583Y006919D01*
X015661Y006998D02*
X012937Y006998D01*
X012793Y007076D02*
X015740Y007076D01*
X015818Y007155D02*
X012582Y007155D01*
X012503Y007233D02*
X015897Y007233D01*
X015940Y007312D02*
X012425Y007312D01*
X012346Y007390D02*
X015940Y007390D01*
X015970Y007469D02*
X012268Y007469D01*
X012260Y007547D02*
X016013Y007547D01*
X016091Y007626D02*
X012248Y007626D01*
X012216Y007704D02*
X019610Y007704D01*
X019688Y007626D02*
X016509Y007626D01*
X016587Y007547D02*
X019767Y007547D01*
X019845Y007469D02*
X016630Y007469D01*
X016660Y007390D02*
X019924Y007390D01*
X020002Y007312D02*
X016660Y007312D01*
X016652Y007233D02*
X020081Y007233D01*
X020159Y007155D02*
X016945Y007155D01*
X017058Y007076D02*
X020238Y007076D01*
X020316Y006998D02*
X017118Y006998D01*
X017151Y006919D02*
X020395Y006919D01*
X020473Y006841D02*
X017160Y006841D01*
X017160Y006762D02*
X020552Y006762D01*
X020630Y006684D02*
X020375Y006684D01*
X020225Y006684D02*
X017131Y006684D01*
X017089Y006605D02*
X020071Y006605D01*
X019994Y006527D02*
X017011Y006527D01*
X016734Y006448D02*
X019961Y006448D01*
X019940Y006370D02*
X016656Y006370D01*
X016577Y006291D02*
X019940Y006291D01*
X019876Y006213D02*
X016499Y006213D01*
X016420Y006134D02*
X019798Y006134D01*
X019719Y006056D02*
X016342Y006056D01*
X016263Y005977D02*
X019641Y005977D01*
X019562Y005899D02*
X016185Y005899D01*
X016106Y005820D02*
X019484Y005820D01*
X019405Y005742D02*
X016028Y005742D01*
X015949Y005663D02*
X019327Y005663D01*
X019248Y005585D02*
X015871Y005585D01*
X015792Y005506D02*
X019170Y005506D01*
X019091Y005428D02*
X015714Y005428D01*
X015635Y005349D02*
X019013Y005349D01*
X018934Y005271D02*
X015557Y005271D01*
X015478Y005192D02*
X018856Y005192D01*
X018777Y005114D02*
X015400Y005114D01*
X015321Y005035D02*
X015699Y005035D01*
X015620Y004957D02*
X015243Y004957D01*
X015164Y004878D02*
X015542Y004878D01*
X015463Y004800D02*
X015160Y004800D01*
X015147Y004721D02*
X015385Y004721D01*
X015126Y004643D02*
X015114Y004643D01*
X014977Y004486D02*
X014921Y004486D01*
X014679Y004486D02*
X013921Y004486D01*
X014048Y004564D02*
X014552Y004564D01*
X014486Y004643D02*
X014114Y004643D01*
X014147Y004721D02*
X014453Y004721D01*
X014440Y004800D02*
X014160Y004800D01*
X014164Y004878D02*
X014440Y004878D01*
X014465Y004957D02*
X014243Y004957D01*
X014321Y005035D02*
X014501Y005035D01*
X014579Y005114D02*
X014400Y005114D01*
X014478Y005192D02*
X014856Y005192D01*
X014934Y005271D02*
X014557Y005271D01*
X014635Y005349D02*
X015013Y005349D01*
X015091Y005428D02*
X014714Y005428D01*
X014792Y005506D02*
X015170Y005506D01*
X015248Y005585D02*
X014871Y005585D01*
X014949Y005663D02*
X015327Y005663D01*
X015405Y005742D02*
X015028Y005742D01*
X015106Y005820D02*
X015484Y005820D01*
X015562Y005899D02*
X015185Y005899D01*
X015263Y005977D02*
X015641Y005977D01*
X015719Y006056D02*
X015342Y006056D01*
X015420Y006134D02*
X015798Y006134D01*
X015876Y006213D02*
X015499Y006213D01*
X015577Y006291D02*
X015955Y006291D01*
X016033Y006370D02*
X015656Y006370D01*
X015734Y006448D02*
X016112Y006448D01*
X016190Y006527D02*
X015813Y006527D01*
X015891Y006605D02*
X016269Y006605D01*
X016347Y006684D02*
X015970Y006684D01*
X016048Y006762D02*
X016426Y006762D01*
X016440Y006841D02*
X016127Y006841D01*
X016205Y006919D02*
X016449Y006919D01*
X016450Y006998D02*
X016482Y006998D01*
X016619Y007155D02*
X016655Y007155D01*
X018995Y008121D02*
X018940Y008253D01*
X018940Y008397D01*
X018995Y008529D01*
X019096Y008630D01*
X019228Y008685D01*
X019372Y008685D01*
X019504Y008630D01*
X019605Y008529D01*
X019660Y008397D01*
X019660Y008276D01*
X021251Y006685D01*
X021372Y006685D01*
X021504Y006630D01*
X021605Y006529D01*
X021660Y006397D01*
X021660Y006253D01*
X021605Y006121D01*
X021504Y006020D01*
X021372Y005965D01*
X021228Y005965D01*
X021096Y006020D01*
X020995Y006121D01*
X020940Y006253D01*
X020940Y006374D01*
X019349Y007965D01*
X019228Y007965D01*
X019096Y008020D01*
X018995Y008121D01*
X019019Y008097D02*
X009920Y008097D01*
X009920Y008175D02*
X018972Y008175D01*
X018940Y008254D02*
X009940Y008254D01*
X010018Y008332D02*
X018940Y008332D01*
X018946Y008411D02*
X010097Y008411D01*
X010175Y008489D02*
X018978Y008489D01*
X019033Y008568D02*
X010254Y008568D01*
X010332Y008646D02*
X019134Y008646D01*
X019466Y008646D02*
X026910Y008646D01*
X026910Y008568D02*
X019567Y008568D01*
X019622Y008489D02*
X026910Y008489D01*
X026910Y008411D02*
X019654Y008411D01*
X019660Y008332D02*
X026910Y008332D01*
X026910Y008254D02*
X019683Y008254D01*
X019761Y008175D02*
X026910Y008175D01*
X026910Y008097D02*
X019840Y008097D01*
X019918Y008018D02*
X026910Y008018D01*
X026910Y007940D02*
X019997Y007940D01*
X020075Y007861D02*
X026910Y007861D01*
X026910Y007783D02*
X020154Y007783D01*
X020232Y007704D02*
X026910Y007704D01*
X026910Y007626D02*
X020311Y007626D01*
X020389Y007547D02*
X026910Y007547D01*
X026910Y007469D02*
X020468Y007469D01*
X020546Y007390D02*
X026910Y007390D01*
X026910Y007312D02*
X020625Y007312D01*
X020703Y007233D02*
X026910Y007233D01*
X026910Y007155D02*
X020782Y007155D01*
X020860Y007076D02*
X026910Y007076D01*
X026910Y006998D02*
X020939Y006998D01*
X021017Y006919D02*
X026910Y006919D01*
X026910Y006841D02*
X021096Y006841D01*
X021174Y006762D02*
X026910Y006762D01*
X026910Y006684D02*
X021375Y006684D01*
X021529Y006605D02*
X026910Y006605D01*
X026910Y006527D02*
X021606Y006527D01*
X021639Y006448D02*
X026910Y006448D01*
X026910Y006370D02*
X021660Y006370D01*
X021660Y006291D02*
X026910Y006291D01*
X026910Y006213D02*
X021643Y006213D01*
X021611Y006134D02*
X026910Y006134D01*
X026910Y006056D02*
X021540Y006056D01*
X021401Y005977D02*
X026910Y005977D01*
X026910Y005899D02*
X020185Y005899D01*
X020106Y005820D02*
X026910Y005820D01*
X026910Y005742D02*
X020028Y005742D01*
X019949Y005663D02*
X026910Y005663D01*
X026910Y005585D02*
X019871Y005585D01*
X019792Y005506D02*
X026910Y005506D01*
X026910Y005428D02*
X019714Y005428D01*
X019635Y005349D02*
X026910Y005349D01*
X026910Y005271D02*
X020399Y005271D01*
X020526Y005192D02*
X026910Y005192D01*
X026910Y005114D02*
X020585Y005114D01*
X020617Y005035D02*
X026910Y005035D01*
X026910Y004957D02*
X020620Y004957D01*
X020610Y004878D02*
X026910Y004878D01*
X026910Y004800D02*
X020578Y004800D01*
X020509Y004721D02*
X026910Y004721D01*
X026910Y004643D02*
X020289Y004643D01*
X020210Y004564D02*
X026910Y004564D01*
X026910Y004486D02*
X020132Y004486D01*
X020053Y004407D02*
X026910Y004407D01*
X026910Y004329D02*
X019975Y004329D01*
X019896Y004250D02*
X025999Y004250D01*
X025809Y004172D02*
X019818Y004172D01*
X019901Y003835D02*
X019699Y003835D01*
X019511Y003757D01*
X019368Y003614D01*
X019300Y003451D01*
X019232Y003614D01*
X019089Y003757D01*
X018901Y003835D01*
X018699Y003835D01*
X018511Y003757D01*
X018368Y003614D01*
X018300Y003451D01*
X018232Y003614D01*
X018089Y003757D01*
X017901Y003835D01*
X017699Y003835D01*
X017511Y003757D01*
X017368Y003614D01*
X017300Y003451D01*
X017294Y003465D02*
X017306Y003465D01*
X017338Y003544D02*
X017262Y003544D01*
X017224Y003622D02*
X017376Y003622D01*
X017454Y003701D02*
X017146Y003701D01*
X017037Y003779D02*
X017563Y003779D01*
X018037Y003779D02*
X018563Y003779D01*
X018454Y003701D02*
X018146Y003701D01*
X018224Y003622D02*
X018376Y003622D01*
X018338Y003544D02*
X018262Y003544D01*
X018294Y003465D02*
X018306Y003465D01*
X018320Y003151D02*
X018280Y003151D01*
X018247Y003073D02*
X018353Y003073D01*
X018410Y002994D02*
X018190Y002994D01*
X018112Y002916D02*
X018488Y002916D01*
X018645Y002837D02*
X017955Y002837D01*
X018955Y002837D02*
X019645Y002837D01*
X019488Y002916D02*
X019112Y002916D01*
X019190Y002994D02*
X019410Y002994D01*
X019353Y003073D02*
X019247Y003073D01*
X019280Y003151D02*
X019320Y003151D01*
X019306Y003465D02*
X019294Y003465D01*
X019262Y003544D02*
X019338Y003544D01*
X019376Y003622D02*
X019224Y003622D01*
X019146Y003701D02*
X019454Y003701D01*
X019563Y003779D02*
X019037Y003779D01*
X019901Y003835D02*
X020089Y003757D01*
X020232Y003614D01*
X020300Y003451D01*
X020368Y003614D01*
X020511Y003757D01*
X020699Y003835D01*
X020901Y003835D01*
X021089Y003757D01*
X021232Y003614D01*
X021300Y003451D01*
X021368Y003614D01*
X021511Y003757D01*
X021699Y003835D01*
X021901Y003835D01*
X022089Y003757D01*
X022232Y003614D01*
X022310Y003426D01*
X022310Y003224D01*
X022232Y003036D01*
X022089Y002893D01*
X021901Y002815D01*
X021699Y002815D01*
X021511Y002893D01*
X021368Y003036D01*
X021300Y003199D01*
X021232Y003036D01*
X021089Y002893D01*
X021057Y002879D01*
X021520Y002416D01*
X021520Y002052D01*
X021520Y002131D02*
X026554Y002131D01*
X026632Y002209D02*
X021520Y002209D01*
X021520Y002288D02*
X026711Y002288D01*
X026789Y002366D02*
X026519Y002366D01*
X026709Y002445D02*
X026868Y002445D01*
X026870Y002523D02*
X026910Y002523D01*
X026475Y002052D02*
X025519Y002052D01*
X025622Y001974D02*
X026397Y001974D01*
X026318Y001895D02*
X025694Y001895D01*
X025727Y001817D02*
X026240Y001817D01*
X026161Y001738D02*
X025759Y001738D01*
X025760Y001660D02*
X026083Y001660D01*
X026004Y001581D02*
X025760Y001581D01*
X025760Y001503D02*
X025951Y001503D01*
X025919Y001424D02*
X025760Y001424D01*
X025760Y001346D02*
X025910Y001346D01*
X025910Y001267D02*
X025760Y001267D01*
X025760Y001189D02*
X025910Y001189D01*
X025910Y001110D02*
X025760Y001110D01*
X025760Y001032D02*
X025910Y001032D01*
X025910Y000953D02*
X025760Y000953D01*
X025744Y000875D02*
X025910Y000875D01*
X025910Y000796D02*
X025711Y000796D01*
X025663Y000718D02*
X025910Y000718D01*
X024937Y000718D02*
X024663Y000718D01*
X024711Y000796D02*
X024889Y000796D01*
X024856Y000875D02*
X024744Y000875D01*
X024760Y000953D02*
X024840Y000953D01*
X024840Y001032D02*
X024760Y001032D01*
X024760Y001110D02*
X024840Y001110D01*
X024840Y001189D02*
X024760Y001189D01*
X024760Y001267D02*
X024840Y001267D01*
X024840Y001346D02*
X024760Y001346D01*
X024760Y001424D02*
X024840Y001424D01*
X024840Y001503D02*
X024760Y001503D01*
X024760Y001581D02*
X024840Y001581D01*
X024840Y001660D02*
X024760Y001660D01*
X024759Y001738D02*
X024841Y001738D01*
X024873Y001817D02*
X024727Y001817D01*
X024694Y001895D02*
X024906Y001895D01*
X024978Y001974D02*
X024622Y001974D01*
X024519Y002052D02*
X025081Y002052D01*
X025652Y002602D02*
X021335Y002602D01*
X021256Y002680D02*
X025573Y002680D01*
X025495Y002759D02*
X021178Y002759D01*
X021099Y002837D02*
X021645Y002837D01*
X021488Y002916D02*
X021112Y002916D01*
X021190Y002994D02*
X021410Y002994D01*
X021353Y003073D02*
X021247Y003073D01*
X021280Y003151D02*
X021320Y003151D01*
X021306Y003465D02*
X021294Y003465D01*
X021262Y003544D02*
X021338Y003544D01*
X021376Y003622D02*
X021224Y003622D01*
X021146Y003701D02*
X021454Y003701D01*
X021563Y003779D02*
X021037Y003779D01*
X020563Y003779D02*
X020037Y003779D01*
X020146Y003701D02*
X020454Y003701D01*
X020376Y003622D02*
X020224Y003622D01*
X020262Y003544D02*
X020338Y003544D01*
X020306Y003465D02*
X020294Y003465D01*
X020280Y003151D02*
X020320Y003151D01*
X020353Y003073D02*
X020247Y003073D01*
X020190Y002994D02*
X020410Y002994D01*
X020488Y002916D02*
X020112Y002916D01*
X019955Y002837D02*
X020580Y002837D01*
X021413Y002523D02*
X025730Y002523D01*
X025891Y002445D02*
X021492Y002445D01*
X021520Y002366D02*
X026081Y002366D01*
X025452Y002837D02*
X021955Y002837D01*
X022112Y002916D02*
X025420Y002916D01*
X025387Y002994D02*
X022190Y002994D01*
X022247Y003073D02*
X025355Y003073D01*
X025330Y003151D02*
X022280Y003151D01*
X022310Y003230D02*
X025330Y003230D01*
X025330Y003308D02*
X022310Y003308D01*
X022310Y003387D02*
X025330Y003387D01*
X025330Y003465D02*
X022294Y003465D01*
X022262Y003544D02*
X025341Y003544D01*
X025373Y003622D02*
X022224Y003622D01*
X022146Y003701D02*
X025406Y003701D01*
X025438Y003779D02*
X022037Y003779D01*
X019980Y004957D02*
X019243Y004957D01*
X019321Y005035D02*
X019983Y005035D01*
X020015Y005114D02*
X019400Y005114D01*
X019478Y005192D02*
X020074Y005192D01*
X020201Y005271D02*
X019557Y005271D01*
X019902Y004878D02*
X019164Y004878D01*
X019086Y004800D02*
X019823Y004800D01*
X019745Y004721D02*
X019007Y004721D01*
X018929Y004643D02*
X019666Y004643D01*
X019588Y004564D02*
X015850Y004564D01*
X015772Y004486D02*
X016629Y004486D01*
X016551Y004407D02*
X015693Y004407D01*
X015660Y004329D02*
X016472Y004329D01*
X016394Y004250D02*
X015659Y004250D01*
X015626Y004172D02*
X016315Y004172D01*
X016237Y004093D02*
X015577Y004093D01*
X015491Y004015D02*
X016158Y004015D01*
X016545Y003779D02*
X016563Y003779D01*
X016624Y003858D02*
X025471Y003858D01*
X025539Y003936D02*
X016702Y003936D01*
X016781Y004015D02*
X025618Y004015D01*
X025696Y004093D02*
X016859Y004093D01*
X015563Y003779D02*
X015037Y003779D01*
X015146Y003701D02*
X015454Y003701D01*
X015376Y003622D02*
X015224Y003622D01*
X015262Y003544D02*
X015338Y003544D01*
X015306Y003465D02*
X015294Y003465D01*
X014563Y003779D02*
X014037Y003779D01*
X014146Y003701D02*
X014454Y003701D01*
X014376Y003622D02*
X014224Y003622D01*
X014262Y003544D02*
X014338Y003544D01*
X014306Y003465D02*
X014294Y003465D01*
X013563Y003779D02*
X013037Y003779D01*
X013146Y003701D02*
X013454Y003701D01*
X013376Y003622D02*
X013224Y003622D01*
X013262Y003544D02*
X013338Y003544D01*
X013306Y003465D02*
X013294Y003465D01*
X012581Y005035D02*
X007301Y005035D01*
X007223Y005114D02*
X012502Y005114D01*
X012465Y005192D02*
X007144Y005192D01*
X007066Y005271D02*
X012440Y005271D01*
X012440Y005349D02*
X006987Y005349D01*
X006909Y005428D02*
X012386Y005428D01*
X012308Y005506D02*
X006952Y005506D01*
X007010Y005564D02*
X007080Y005733D01*
X007080Y005916D01*
X007010Y006086D01*
X006881Y006215D01*
X006711Y006285D01*
X005888Y006285D01*
X005719Y006215D01*
X005590Y006086D01*
X005520Y005916D01*
X005520Y005733D01*
X005590Y005564D01*
X005719Y005435D01*
X005888Y005365D01*
X006349Y005365D01*
X008609Y003105D01*
X009411Y003105D01*
X009496Y003020D01*
X009628Y002965D01*
X009772Y002965D01*
X009904Y003020D01*
X010005Y003121D01*
X010060Y003253D01*
X010060Y003397D01*
X010005Y003529D01*
X009904Y003630D01*
X009772Y003685D01*
X009628Y003685D01*
X009496Y003630D01*
X009411Y003545D01*
X008791Y003545D01*
X006891Y005445D01*
X007010Y005564D01*
X007018Y005585D02*
X012229Y005585D01*
X012151Y005663D02*
X007051Y005663D01*
X007080Y005742D02*
X012072Y005742D01*
X011994Y005820D02*
X007080Y005820D01*
X007080Y005899D02*
X011915Y005899D01*
X011699Y005977D02*
X007055Y005977D01*
X007022Y006056D02*
X011560Y006056D01*
X011489Y006134D02*
X006962Y006134D01*
X006883Y006213D02*
X011457Y006213D01*
X011440Y006291D02*
X000690Y006291D01*
X000690Y006213D02*
X002840Y006213D01*
X002835Y006208D02*
X002835Y005442D01*
X002917Y005360D01*
X003683Y005360D01*
X003765Y005442D01*
X003765Y006208D01*
X003683Y006290D01*
X002917Y006290D01*
X002835Y006208D01*
X002835Y006134D02*
X000690Y006134D01*
X000690Y006056D02*
X002835Y006056D01*
X002835Y005977D02*
X000690Y005977D01*
X000690Y005899D02*
X002835Y005899D01*
X002835Y005820D02*
X000690Y005820D01*
X000690Y005742D02*
X002835Y005742D01*
X002835Y005663D02*
X000690Y005663D01*
X000690Y005585D02*
X002835Y005585D01*
X002835Y005506D02*
X000690Y005506D01*
X000690Y005428D02*
X002849Y005428D01*
X003014Y005192D02*
X000690Y005192D01*
X000690Y005114D02*
X002935Y005114D01*
X002945Y005128D02*
X002902Y005069D01*
X002869Y005003D01*
X002846Y004934D01*
X002835Y004862D01*
X002835Y004854D01*
X003271Y004854D01*
X003271Y005290D01*
X003263Y005290D01*
X003191Y005279D01*
X003122Y005256D01*
X003056Y005223D01*
X002997Y005180D01*
X002945Y005128D01*
X002885Y005035D02*
X000690Y005035D01*
X000690Y004957D02*
X002854Y004957D01*
X002838Y004878D02*
X000690Y004878D01*
X000690Y004800D02*
X003271Y004800D01*
X003271Y004796D02*
X002835Y004796D01*
X002835Y004788D01*
X002846Y004716D01*
X002869Y004647D01*
X002902Y004581D01*
X002945Y004522D01*
X002997Y004470D01*
X003056Y004427D01*
X003122Y004394D01*
X003191Y004371D01*
X003263Y004360D01*
X003271Y004360D01*
X003271Y004796D01*
X003271Y004854D01*
X003329Y004854D01*
X003329Y005290D01*
X003337Y005290D01*
X003409Y005279D01*
X003478Y005256D01*
X003544Y005223D01*
X003603Y005180D01*
X003655Y005128D01*
X003698Y005069D01*
X003731Y005003D01*
X003754Y004934D01*
X003765Y004862D01*
X003765Y004854D01*
X003329Y004854D01*
X003329Y004796D01*
X003765Y004796D01*
X003765Y004788D01*
X003754Y004716D01*
X003731Y004647D01*
X003698Y004581D01*
X003655Y004522D01*
X003603Y004470D01*
X003544Y004427D01*
X003478Y004394D01*
X003409Y004371D01*
X003337Y004360D01*
X003329Y004360D01*
X003329Y004796D01*
X003271Y004796D01*
X003329Y004800D02*
X006914Y004800D01*
X006836Y004878D02*
X003762Y004878D01*
X003746Y004957D02*
X006757Y004957D01*
X006679Y005035D02*
X003715Y005035D01*
X003665Y005114D02*
X006600Y005114D01*
X006522Y005192D02*
X003586Y005192D01*
X003434Y005271D02*
X006443Y005271D01*
X006365Y005349D02*
X000690Y005349D01*
X000690Y005271D02*
X003166Y005271D01*
X003271Y005271D02*
X003329Y005271D01*
X003329Y005192D02*
X003271Y005192D01*
X003271Y005114D02*
X003329Y005114D01*
X003329Y005035D02*
X003271Y005035D01*
X003271Y004957D02*
X003329Y004957D01*
X003329Y004878D02*
X003271Y004878D01*
X003271Y004721D02*
X003329Y004721D01*
X003329Y004643D02*
X003271Y004643D01*
X003271Y004564D02*
X003329Y004564D01*
X003329Y004486D02*
X003271Y004486D01*
X003271Y004407D02*
X003329Y004407D01*
X003504Y004407D02*
X007307Y004407D01*
X007385Y004329D02*
X000690Y004329D01*
X000690Y004407D02*
X003096Y004407D01*
X002982Y004486D02*
X000690Y004486D01*
X000690Y004564D02*
X002915Y004564D01*
X002871Y004643D02*
X000690Y004643D01*
X000690Y004721D02*
X002846Y004721D01*
X003618Y004486D02*
X007228Y004486D01*
X007150Y004564D02*
X003685Y004564D01*
X003729Y004643D02*
X007071Y004643D01*
X006993Y004721D02*
X003754Y004721D01*
X003751Y005428D02*
X005738Y005428D01*
X005648Y005506D02*
X003765Y005506D01*
X003765Y005585D02*
X005582Y005585D01*
X005549Y005663D02*
X003765Y005663D01*
X003765Y005742D02*
X005520Y005742D01*
X005520Y005820D02*
X003765Y005820D01*
X003765Y005899D02*
X005520Y005899D01*
X005545Y005977D02*
X003765Y005977D01*
X003765Y006056D02*
X005578Y006056D01*
X005638Y006134D02*
X003765Y006134D01*
X003760Y006213D02*
X005717Y006213D01*
X005719Y006435D02*
X005888Y006365D01*
X006711Y006365D01*
X006881Y006435D01*
X007010Y006564D01*
X007080Y006733D01*
X007080Y006916D01*
X007010Y007086D01*
X006881Y007215D01*
X006711Y007285D01*
X005888Y007285D01*
X005719Y007215D01*
X005590Y007086D01*
X005520Y006916D01*
X005520Y006733D01*
X005590Y006564D01*
X005719Y006435D01*
X005706Y006448D02*
X000690Y006448D01*
X000690Y006370D02*
X005878Y006370D01*
X005628Y006527D02*
X000690Y006527D01*
X000690Y006605D02*
X005573Y006605D01*
X005541Y006684D02*
X000690Y006684D01*
X000690Y006762D02*
X005520Y006762D01*
X005520Y006841D02*
X000690Y006841D01*
X000690Y006919D02*
X005521Y006919D01*
X005554Y006998D02*
X000690Y006998D01*
X000690Y007076D02*
X005586Y007076D01*
X005659Y007155D02*
X000690Y007155D01*
X000690Y007233D02*
X005763Y007233D01*
X005803Y007399D02*
X005872Y007376D01*
X005944Y007365D01*
X006260Y007365D01*
X006260Y007785D01*
X006340Y007785D01*
X006340Y007865D01*
X006260Y007865D01*
X006260Y008285D01*
X005944Y008285D01*
X005872Y008274D01*
X005803Y008251D01*
X005739Y008218D01*
X005680Y008176D01*
X005629Y008125D01*
X005587Y008066D01*
X005554Y008002D01*
X005531Y007933D01*
X005521Y007865D01*
X006260Y007865D01*
X006260Y007785D01*
X005521Y007785D01*
X005531Y007717D01*
X005554Y007648D01*
X005587Y007584D01*
X005629Y007525D01*
X005680Y007474D01*
X005739Y007432D01*
X005803Y007399D01*
X005830Y007390D02*
X003466Y007390D01*
X003478Y007394D02*
X003544Y007427D01*
X003603Y007470D01*
X003655Y007522D01*
X003698Y007581D01*
X003731Y007647D01*
X003754Y007716D01*
X003765Y007788D01*
X003765Y007796D01*
X003329Y007796D01*
X003329Y007854D01*
X003271Y007854D01*
X003271Y008290D01*
X003263Y008290D01*
X003191Y008279D01*
X003122Y008256D01*
X003056Y008223D01*
X002997Y008180D01*
X002945Y008128D01*
X002902Y008069D01*
X002869Y008003D01*
X002846Y007934D01*
X002835Y007862D01*
X002835Y007854D01*
X003271Y007854D01*
X003271Y007796D01*
X002835Y007796D01*
X002835Y007788D01*
X002846Y007716D01*
X002869Y007647D01*
X002902Y007581D01*
X002945Y007522D01*
X002997Y007470D01*
X003056Y007427D01*
X003122Y007394D01*
X003191Y007371D01*
X003263Y007360D01*
X003271Y007360D01*
X003271Y007796D01*
X003329Y007796D01*
X003329Y007360D01*
X003337Y007360D01*
X003409Y007371D01*
X003478Y007394D01*
X003600Y007469D02*
X005688Y007469D01*
X005613Y007547D02*
X003673Y007547D01*
X003720Y007626D02*
X005565Y007626D01*
X005536Y007704D02*
X003750Y007704D01*
X003764Y007783D02*
X005521Y007783D01*
X005534Y007940D02*
X003752Y007940D01*
X003754Y007934D02*
X003731Y008003D01*
X003698Y008069D01*
X003655Y008128D01*
X003603Y008180D01*
X003544Y008223D01*
X003478Y008256D01*
X003409Y008279D01*
X003337Y008290D01*
X003329Y008290D01*
X003329Y007854D01*
X003765Y007854D01*
X003765Y007862D01*
X003754Y007934D01*
X003765Y007861D02*
X006260Y007861D01*
X006260Y007783D02*
X006340Y007783D01*
X006340Y007785D02*
X006340Y007365D01*
X006656Y007365D01*
X006728Y007376D01*
X006797Y007399D01*
X006861Y007432D01*
X006920Y007474D01*
X006971Y007525D01*
X007013Y007584D01*
X007046Y007648D01*
X007069Y007717D01*
X007079Y007785D01*
X006340Y007785D01*
X006340Y007861D02*
X008971Y007861D01*
X009080Y007940D02*
X007066Y007940D01*
X007069Y007933D02*
X007046Y008002D01*
X007013Y008066D01*
X006971Y008125D01*
X006920Y008176D01*
X006861Y008218D01*
X006797Y008251D01*
X006728Y008274D01*
X006656Y008285D01*
X006340Y008285D01*
X006340Y007865D01*
X007079Y007865D01*
X007069Y007933D01*
X007038Y008018D02*
X009080Y008018D01*
X009080Y008097D02*
X006991Y008097D01*
X006921Y008175D02*
X009080Y008175D01*
X009080Y008254D02*
X006790Y008254D01*
X006340Y008254D02*
X006260Y008254D01*
X006260Y008175D02*
X006340Y008175D01*
X006340Y008097D02*
X006260Y008097D01*
X006260Y008018D02*
X006340Y008018D01*
X006340Y007940D02*
X006260Y007940D01*
X006260Y007704D02*
X006340Y007704D01*
X006340Y007626D02*
X006260Y007626D01*
X006260Y007547D02*
X006340Y007547D01*
X006340Y007469D02*
X006260Y007469D01*
X006260Y007390D02*
X006340Y007390D01*
X006770Y007390D02*
X008766Y007390D01*
X008740Y007469D02*
X006912Y007469D01*
X006987Y007547D02*
X008740Y007547D01*
X008752Y007626D02*
X007035Y007626D01*
X007064Y007704D02*
X008784Y007704D01*
X008848Y007783D02*
X007079Y007783D01*
X006837Y007233D02*
X008883Y007233D01*
X008804Y007312D02*
X000690Y007312D01*
X000690Y007390D02*
X003134Y007390D01*
X003271Y007390D02*
X003329Y007390D01*
X003329Y007469D02*
X003271Y007469D01*
X003271Y007547D02*
X003329Y007547D01*
X003329Y007626D02*
X003271Y007626D01*
X003271Y007704D02*
X003329Y007704D01*
X003329Y007783D02*
X003271Y007783D01*
X003271Y007861D02*
X003329Y007861D01*
X003329Y007940D02*
X003271Y007940D01*
X003271Y008018D02*
X003329Y008018D01*
X003329Y008097D02*
X003271Y008097D01*
X003271Y008175D02*
X003329Y008175D01*
X003329Y008254D02*
X003271Y008254D01*
X003117Y008254D02*
X000690Y008254D01*
X000690Y008332D02*
X009080Y008332D01*
X009080Y008411D02*
X003734Y008411D01*
X003765Y008442D02*
X003765Y009208D01*
X003683Y009290D01*
X002917Y009290D01*
X002835Y009208D01*
X002835Y008442D01*
X002917Y008360D01*
X003683Y008360D01*
X003765Y008442D01*
X003765Y008489D02*
X009153Y008489D01*
X009231Y008568D02*
X003765Y008568D01*
X003765Y008646D02*
X009310Y008646D01*
X009388Y008725D02*
X003765Y008725D01*
X003765Y008803D02*
X009467Y008803D01*
X009545Y008882D02*
X003765Y008882D01*
X003765Y008960D02*
X009624Y008960D01*
X009702Y009039D02*
X003765Y009039D01*
X003765Y009117D02*
X009781Y009117D01*
X009859Y009196D02*
X003765Y009196D01*
X003699Y009274D02*
X009938Y009274D01*
X010016Y009353D02*
X000690Y009353D01*
X000690Y009431D02*
X010095Y009431D01*
X010173Y009510D02*
X000690Y009510D01*
X000690Y009588D02*
X010252Y009588D01*
X010330Y009667D02*
X000690Y009667D01*
X000690Y009745D02*
X010409Y009745D01*
X010480Y009824D02*
X000690Y009824D01*
X000690Y009902D02*
X010480Y009902D01*
X010423Y009981D02*
X000690Y009981D01*
X000690Y010059D02*
X010358Y010059D01*
X010326Y010138D02*
X000690Y010138D01*
X000690Y010216D02*
X010293Y010216D01*
X010290Y010295D02*
X000690Y010295D01*
X000690Y010373D02*
X010290Y010373D01*
X010300Y010452D02*
X000690Y010452D01*
X000690Y010530D02*
X010333Y010530D01*
X010365Y010609D02*
X000690Y010609D01*
X000690Y010687D02*
X010441Y010687D01*
X010531Y010766D02*
X000690Y010766D01*
X000690Y010844D02*
X021580Y010844D01*
X021580Y010923D02*
X000690Y010923D01*
X000690Y011001D02*
X021580Y011001D01*
X021580Y011080D02*
X000690Y011080D01*
X000690Y011158D02*
X021580Y011158D01*
X021580Y011237D02*
X000690Y011237D01*
X000690Y011315D02*
X021580Y011315D01*
X021580Y011394D02*
X000690Y011394D01*
X000690Y011472D02*
X021580Y011472D01*
X021580Y011551D02*
X000690Y011551D01*
X000690Y011629D02*
X021580Y011629D01*
X021580Y011708D02*
X000690Y011708D01*
X000690Y011786D02*
X015778Y011786D01*
X015651Y011865D02*
X000690Y011865D01*
X000690Y011943D02*
X015586Y011943D01*
X015553Y012022D02*
X000690Y012022D01*
X000690Y012100D02*
X015540Y012100D01*
X015540Y012179D02*
X000690Y012179D01*
X000690Y012257D02*
X015565Y012257D01*
X015601Y012336D02*
X000690Y012336D01*
X000690Y012414D02*
X015680Y012414D01*
X015956Y012493D02*
X000690Y012493D01*
X000690Y012571D02*
X016035Y012571D01*
X016113Y012650D02*
X000690Y012650D01*
X000690Y012728D02*
X016192Y012728D01*
X016270Y012807D02*
X000690Y012807D01*
X000690Y012885D02*
X016280Y012885D01*
X016280Y012964D02*
X000690Y012964D01*
X000690Y013042D02*
X016280Y013042D01*
X016280Y013121D02*
X000690Y013121D01*
X000690Y013199D02*
X016280Y013199D01*
X016280Y013278D02*
X000690Y013278D01*
X000690Y013356D02*
X016280Y013356D01*
X016280Y013435D02*
X000690Y013435D01*
X000690Y013513D02*
X016280Y013513D01*
X016280Y013592D02*
X000690Y013592D01*
X000690Y013670D02*
X016280Y013670D01*
X016280Y013749D02*
X000690Y013749D01*
X000690Y013827D02*
X016280Y013827D01*
X016280Y013906D02*
X000690Y013906D01*
X000690Y013984D02*
X016280Y013984D01*
X016280Y014063D02*
X000690Y014063D01*
X000690Y014141D02*
X016280Y014141D01*
X016280Y014220D02*
X000690Y014220D01*
X000690Y014298D02*
X001573Y014298D01*
X001604Y014282D02*
X001533Y014319D01*
X001468Y014366D01*
X001411Y014423D01*
X001364Y014488D01*
X001327Y014559D01*
X001303Y014636D01*
X001290Y014715D01*
X001290Y014715D01*
X001760Y014715D01*
X001840Y014715D01*
X001840Y014795D01*
X002310Y014795D01*
X002310Y014795D01*
X002297Y014874D01*
X002273Y014951D01*
X002236Y015022D01*
X002189Y015087D01*
X002132Y015144D01*
X002067Y015191D01*
X001996Y015228D01*
X001919Y015252D01*
X001840Y015265D01*
X001840Y015265D01*
X001840Y014795D01*
X001760Y014795D01*
X001760Y015265D01*
X001760Y015265D01*
X001681Y015252D01*
X001604Y015228D01*
X001533Y015191D01*
X001468Y015144D01*
X001411Y015087D01*
X001364Y015022D01*
X001327Y014951D01*
X001303Y014874D01*
X001290Y014795D01*
X001760Y014795D01*
X001760Y014715D01*
X001760Y014245D01*
X001760Y014245D01*
X001681Y014258D01*
X001604Y014282D01*
X001760Y014298D02*
X001840Y014298D01*
X001840Y014245D02*
X001919Y014258D01*
X001996Y014282D01*
X002067Y014319D01*
X002132Y014366D01*
X002189Y014423D01*
X002236Y014488D01*
X002273Y014559D01*
X002297Y014636D01*
X002310Y014715D01*
X001840Y014715D01*
X001840Y014245D01*
X001840Y014245D01*
X001840Y014377D02*
X001760Y014377D01*
X001760Y014455D02*
X001840Y014455D01*
X001840Y014534D02*
X001760Y014534D01*
X001760Y014612D02*
X001840Y014612D01*
X001840Y014691D02*
X001760Y014691D01*
X001760Y014769D02*
X000690Y014769D01*
X000690Y014691D02*
X001294Y014691D01*
X001310Y014612D02*
X000690Y014612D01*
X000690Y014534D02*
X001340Y014534D01*
X001388Y014455D02*
X000690Y014455D01*
X000690Y014377D02*
X001457Y014377D01*
X001290Y014795D02*
X001290Y014795D01*
X001298Y014848D02*
X000690Y014848D01*
X000690Y014926D02*
X001319Y014926D01*
X001355Y015005D02*
X000690Y015005D01*
X000690Y015083D02*
X001408Y015083D01*
X001492Y015162D02*
X000690Y015162D01*
X000690Y015240D02*
X001642Y015240D01*
X001760Y015240D02*
X001840Y015240D01*
X001840Y015162D02*
X001760Y015162D01*
X001760Y015083D02*
X001840Y015083D01*
X001840Y015005D02*
X001760Y015005D01*
X001760Y014926D02*
X001840Y014926D01*
X001840Y014848D02*
X001760Y014848D01*
X001840Y014769D02*
X003911Y014769D01*
X003911Y014770D02*
X003941Y014711D01*
X003980Y014658D01*
X004026Y014611D01*
X004080Y014572D01*
X004139Y014542D01*
X004202Y014522D01*
X004261Y014512D01*
X004261Y014893D01*
X003881Y014893D01*
X003890Y014833D01*
X003911Y014770D01*
X003888Y014848D02*
X002302Y014848D01*
X002281Y014926D02*
X004261Y014926D01*
X004261Y014893D02*
X004261Y014970D01*
X003881Y014970D01*
X003890Y015030D01*
X003911Y015093D01*
X003941Y015151D01*
X003980Y015205D01*
X004026Y015252D01*
X004080Y015291D01*
X004139Y015321D01*
X004153Y015325D01*
X004062Y015363D01*
X003944Y015481D01*
X003892Y015605D01*
X002231Y015605D01*
X002089Y015463D01*
X001901Y015385D01*
X001699Y015385D01*
X001511Y015463D01*
X001368Y015606D01*
X001290Y015794D01*
X001290Y015996D01*
X001368Y016184D01*
X001511Y016327D01*
X001699Y016405D01*
X001901Y016405D01*
X002089Y016327D01*
X002232Y016184D01*
X002290Y016045D01*
X004032Y016045D01*
X004062Y016075D01*
X004216Y016139D01*
X004384Y016139D01*
X004538Y016075D01*
X004656Y015957D01*
X004720Y015802D01*
X004720Y015635D01*
X004656Y015481D01*
X004538Y015363D01*
X004447Y015325D01*
X004461Y015321D01*
X004520Y015291D01*
X004574Y015252D01*
X004620Y015205D01*
X004659Y015151D01*
X004689Y015093D01*
X004710Y015030D01*
X004719Y014970D01*
X004339Y014970D01*
X004339Y014893D01*
X004719Y014893D01*
X004710Y014833D01*
X004689Y014770D01*
X004659Y014711D01*
X004620Y014658D01*
X004574Y014611D01*
X004520Y014572D01*
X004461Y014542D01*
X004398Y014522D01*
X004339Y014512D01*
X004339Y014893D01*
X004261Y014893D01*
X004261Y014848D02*
X004339Y014848D01*
X004339Y014926D02*
X016280Y014926D01*
X016280Y014848D02*
X004712Y014848D01*
X004689Y014769D02*
X016280Y014769D01*
X016280Y014691D02*
X004644Y014691D01*
X004575Y014612D02*
X016280Y014612D01*
X016280Y014534D02*
X004435Y014534D01*
X004339Y014534D02*
X004261Y014534D01*
X004261Y014612D02*
X004339Y014612D01*
X004339Y014691D02*
X004261Y014691D01*
X004261Y014769D02*
X004339Y014769D01*
X004165Y014534D02*
X002260Y014534D01*
X002290Y014612D02*
X004025Y014612D01*
X003956Y014691D02*
X002306Y014691D01*
X002310Y014715D02*
X002310Y014715D01*
X002245Y015005D02*
X003886Y015005D01*
X003908Y015083D02*
X002192Y015083D01*
X002108Y015162D02*
X003948Y015162D01*
X004015Y015240D02*
X001958Y015240D01*
X001931Y015397D02*
X004028Y015397D01*
X003949Y015476D02*
X002102Y015476D01*
X002180Y015554D02*
X003914Y015554D01*
X004135Y015319D02*
X000690Y015319D01*
X000690Y015397D02*
X001669Y015397D01*
X001498Y015476D02*
X000690Y015476D01*
X000690Y015554D02*
X001420Y015554D01*
X001357Y015633D02*
X000690Y015633D01*
X000690Y015711D02*
X001324Y015711D01*
X001292Y015790D02*
X000690Y015790D01*
X000690Y015868D02*
X001290Y015868D01*
X001290Y015947D02*
X000690Y015947D01*
X000690Y016025D02*
X001302Y016025D01*
X001334Y016104D02*
X000690Y016104D01*
X000690Y016182D02*
X001367Y016182D01*
X001444Y016261D02*
X000690Y016261D01*
X000690Y016339D02*
X001539Y016339D01*
X002061Y016339D02*
X012280Y016339D01*
X012280Y016261D02*
X002156Y016261D01*
X002233Y016182D02*
X012280Y016182D01*
X012280Y016104D02*
X004468Y016104D01*
X004588Y016025D02*
X012280Y016025D01*
X012280Y015947D02*
X004660Y015947D01*
X004693Y015868D02*
X012280Y015868D01*
X012255Y015790D02*
X004720Y015790D01*
X004720Y015711D02*
X012187Y015711D01*
X012155Y015633D02*
X004719Y015633D01*
X004686Y015554D02*
X012140Y015554D01*
X012140Y015476D02*
X004651Y015476D01*
X004572Y015397D02*
X012163Y015397D01*
X012197Y015319D02*
X004465Y015319D01*
X004585Y015240D02*
X012276Y015240D01*
X012724Y015240D02*
X016280Y015240D01*
X016280Y015162D02*
X004652Y015162D01*
X004692Y015083D02*
X016280Y015083D01*
X016280Y015005D02*
X004714Y015005D01*
X004132Y016104D02*
X002266Y016104D01*
X000690Y016418D02*
X012280Y016418D01*
X012280Y016496D02*
X000690Y016496D01*
X000690Y016575D02*
X012280Y016575D01*
X012280Y016653D02*
X000690Y016653D01*
X000690Y016732D02*
X012280Y016732D01*
X012280Y016810D02*
X000690Y016810D01*
X000690Y016889D02*
X012280Y016889D01*
X012280Y016967D02*
X000690Y016967D01*
X000690Y017046D02*
X012280Y017046D01*
X012280Y017124D02*
X000690Y017124D01*
X000690Y017203D02*
X012280Y017203D01*
X012280Y017281D02*
X000690Y017281D01*
X000690Y017360D02*
X012280Y017360D01*
X012280Y017438D02*
X000690Y017438D01*
X000690Y017517D02*
X012280Y017517D01*
X012280Y017595D02*
X000690Y017595D01*
X000690Y017674D02*
X012280Y017674D01*
X012280Y017752D02*
X000690Y017752D01*
X000690Y017831D02*
X012280Y017831D01*
X012280Y017909D02*
X000690Y017909D01*
X000690Y017988D02*
X012280Y017988D01*
X012280Y018066D02*
X000690Y018066D01*
X000690Y018145D02*
X012280Y018145D01*
X012280Y018223D02*
X000690Y018223D01*
X000690Y018302D02*
X012280Y018302D01*
X012280Y018380D02*
X000690Y018380D01*
X000690Y018459D02*
X012280Y018459D01*
X012280Y018537D02*
X000690Y018537D01*
X000690Y018616D02*
X012280Y018616D01*
X012280Y018694D02*
X000690Y018694D01*
X000690Y018773D02*
X012280Y018773D01*
X012280Y018851D02*
X000690Y018851D01*
X000690Y018930D02*
X012280Y018930D01*
X012280Y019008D02*
X000690Y019008D01*
X000690Y019087D02*
X012280Y019087D01*
X012280Y019165D02*
X000690Y019165D01*
X000690Y019244D02*
X012270Y019244D01*
X012192Y019322D02*
X000690Y019322D01*
X000690Y019401D02*
X005997Y019401D01*
X005808Y019479D02*
X000690Y019479D01*
X000690Y019558D02*
X005696Y019558D01*
X005617Y019636D02*
X004252Y019636D01*
X004201Y019615D02*
X004389Y019693D01*
X004532Y019836D01*
X004610Y020024D01*
X004610Y020226D01*
X004532Y020414D01*
X004389Y020557D01*
X004201Y020635D01*
X003999Y020635D01*
X003811Y020557D01*
X003668Y020414D01*
X003600Y020251D01*
X003532Y020414D01*
X003389Y020557D01*
X003201Y020635D01*
X002999Y020635D01*
X002811Y020557D01*
X002668Y020414D01*
X002600Y020251D01*
X002532Y020414D01*
X002389Y020557D01*
X002201Y020635D01*
X001999Y020635D01*
X001811Y020557D01*
X001668Y020414D01*
X001590Y020226D01*
X001590Y020024D01*
X001668Y019836D01*
X001811Y019693D01*
X001999Y019615D01*
X002201Y019615D01*
X002389Y019693D01*
X002532Y019836D01*
X002600Y019999D01*
X002668Y019836D01*
X002811Y019693D01*
X002999Y019615D01*
X003201Y019615D01*
X003389Y019693D01*
X003532Y019836D01*
X003600Y019999D01*
X003668Y019836D01*
X003811Y019693D01*
X003999Y019615D01*
X004201Y019615D01*
X004411Y019715D02*
X005539Y019715D01*
X005470Y019793D02*
X004489Y019793D01*
X004547Y019872D02*
X005438Y019872D01*
X005405Y019950D02*
X004580Y019950D01*
X004610Y020029D02*
X005373Y020029D01*
X005340Y020107D02*
X004610Y020107D01*
X004610Y020186D02*
X005330Y020186D01*
X005330Y020264D02*
X004594Y020264D01*
X004562Y020343D02*
X005330Y020343D01*
X005330Y020421D02*
X004525Y020421D01*
X004447Y020500D02*
X005330Y020500D01*
X005355Y020578D02*
X004339Y020578D01*
X003861Y020578D02*
X003339Y020578D01*
X003447Y020500D02*
X003753Y020500D01*
X003675Y020421D02*
X003525Y020421D01*
X003562Y020343D02*
X003638Y020343D01*
X003606Y020264D02*
X003594Y020264D01*
X003580Y019950D02*
X003620Y019950D01*
X003653Y019872D02*
X003547Y019872D01*
X003489Y019793D02*
X003711Y019793D01*
X003789Y019715D02*
X003411Y019715D01*
X003252Y019636D02*
X003948Y019636D01*
X002948Y019636D02*
X002252Y019636D01*
X002411Y019715D02*
X002789Y019715D01*
X002711Y019793D02*
X002489Y019793D01*
X002547Y019872D02*
X002653Y019872D01*
X002620Y019950D02*
X002580Y019950D01*
X002594Y020264D02*
X002606Y020264D01*
X002638Y020343D02*
X002562Y020343D01*
X002525Y020421D02*
X002675Y020421D01*
X002753Y020500D02*
X002447Y020500D01*
X002339Y020578D02*
X002861Y020578D01*
X001861Y020578D02*
X000690Y020578D01*
X000690Y020500D02*
X001753Y020500D01*
X001675Y020421D02*
X000690Y020421D01*
X000690Y020343D02*
X001638Y020343D01*
X001606Y020264D02*
X000690Y020264D01*
X000690Y020186D02*
X001590Y020186D01*
X001590Y020107D02*
X000690Y020107D01*
X000690Y020029D02*
X001590Y020029D01*
X001620Y019950D02*
X000690Y019950D01*
X000690Y019872D02*
X001653Y019872D01*
X001711Y019793D02*
X000690Y019793D01*
X000690Y019715D02*
X001789Y019715D01*
X001948Y019636D02*
X000690Y019636D01*
X000690Y020657D02*
X005388Y020657D01*
X005420Y020735D02*
X000690Y020735D01*
X000690Y020814D02*
X005453Y020814D01*
X005495Y020892D02*
X000690Y020892D01*
X006603Y019401D02*
X012113Y019401D01*
X012035Y019479D02*
X006792Y019479D01*
X006904Y019558D02*
X009578Y019558D01*
X009418Y019636D02*
X006983Y019636D01*
X007061Y019715D02*
X009340Y019715D01*
X009290Y019793D02*
X007129Y019793D01*
X007162Y019872D02*
X009257Y019872D01*
X009240Y019950D02*
X007195Y019950D01*
X007227Y020029D02*
X009240Y020029D01*
X009240Y020107D02*
X007260Y020107D01*
X007270Y020186D02*
X009240Y020186D01*
X009240Y020264D02*
X007270Y020264D01*
X007270Y020343D02*
X009240Y020343D01*
X009240Y020421D02*
X007270Y020421D01*
X007270Y020500D02*
X009240Y020500D01*
X009240Y020578D02*
X007245Y020578D01*
X007212Y020657D02*
X009240Y020657D01*
X009240Y020735D02*
X007180Y020735D01*
X007147Y020814D02*
X009272Y020814D01*
X009304Y020892D02*
X007105Y020892D01*
X009822Y019558D02*
X010588Y019558D01*
X010592Y019556D02*
X010660Y019546D01*
X010660Y020285D01*
X010240Y020285D01*
X010240Y019969D01*
X010251Y019897D01*
X010274Y019828D01*
X010307Y019764D01*
X010349Y019705D01*
X010400Y019654D01*
X010459Y019612D01*
X010523Y019579D01*
X010592Y019556D01*
X010660Y019558D02*
X010740Y019558D01*
X010740Y019546D02*
X010808Y019556D01*
X010877Y019579D01*
X010941Y019612D01*
X011000Y019654D01*
X011051Y019705D01*
X011093Y019764D01*
X011126Y019828D01*
X011149Y019897D01*
X011160Y019969D01*
X011160Y020285D01*
X010740Y020285D01*
X010740Y019546D01*
X010812Y019558D02*
X011578Y019558D01*
X011418Y019636D02*
X010975Y019636D01*
X011058Y019715D02*
X011340Y019715D01*
X011290Y019793D02*
X011108Y019793D01*
X011140Y019872D02*
X011257Y019872D01*
X011240Y019950D02*
X011157Y019950D01*
X011160Y020029D02*
X011240Y020029D01*
X011240Y020107D02*
X011160Y020107D01*
X011160Y020186D02*
X011240Y020186D01*
X011240Y020264D02*
X011160Y020264D01*
X011240Y020343D02*
X010740Y020343D01*
X010740Y020264D02*
X010660Y020264D01*
X010660Y020186D02*
X010740Y020186D01*
X010740Y020107D02*
X010660Y020107D01*
X010660Y020029D02*
X010740Y020029D01*
X010740Y019950D02*
X010660Y019950D01*
X010660Y019872D02*
X010740Y019872D01*
X010740Y019793D02*
X010660Y019793D01*
X010660Y019715D02*
X010740Y019715D01*
X010740Y019636D02*
X010660Y019636D01*
X010425Y019636D02*
X009982Y019636D01*
X010060Y019715D02*
X010342Y019715D01*
X010292Y019793D02*
X010110Y019793D01*
X010143Y019872D02*
X010260Y019872D01*
X010243Y019950D02*
X010160Y019950D01*
X010160Y020029D02*
X010240Y020029D01*
X010240Y020107D02*
X010160Y020107D01*
X010160Y020186D02*
X010240Y020186D01*
X010240Y020264D02*
X010160Y020264D01*
X010160Y020343D02*
X010660Y020343D01*
X010240Y020421D02*
X010160Y020421D01*
X010160Y020500D02*
X010240Y020500D01*
X010240Y020578D02*
X010160Y020578D01*
X010160Y020657D02*
X010240Y020657D01*
X010249Y020735D02*
X010160Y020735D01*
X010128Y020814D02*
X010271Y020814D01*
X010311Y020892D02*
X010096Y020892D01*
X011089Y020892D02*
X011304Y020892D01*
X011272Y020814D02*
X011129Y020814D01*
X011151Y020735D02*
X011240Y020735D01*
X011240Y020657D02*
X011160Y020657D01*
X011160Y020578D02*
X011240Y020578D01*
X011240Y020500D02*
X011160Y020500D01*
X011160Y020421D02*
X011240Y020421D01*
X011822Y019558D02*
X011956Y019558D01*
X013520Y019558D02*
X013578Y019558D01*
X013520Y019479D02*
X016035Y019479D01*
X016113Y019401D02*
X013520Y019401D01*
X013520Y019322D02*
X016192Y019322D01*
X016270Y019244D02*
X013520Y019244D01*
X013520Y019165D02*
X016280Y019165D01*
X016280Y019087D02*
X013520Y019087D01*
X013520Y019008D02*
X016280Y019008D01*
X016280Y018930D02*
X013520Y018930D01*
X013520Y018851D02*
X016280Y018851D01*
X016280Y018773D02*
X013520Y018773D01*
X013520Y018694D02*
X016280Y018694D01*
X016280Y018616D02*
X013520Y018616D01*
X013520Y018537D02*
X016280Y018537D01*
X016280Y018459D02*
X013520Y018459D01*
X013520Y018380D02*
X016280Y018380D01*
X016280Y018302D02*
X013520Y018302D01*
X013520Y018223D02*
X016280Y018223D01*
X016280Y018145D02*
X013520Y018145D01*
X013520Y018066D02*
X016280Y018066D01*
X016280Y017988D02*
X013520Y017988D01*
X013520Y017909D02*
X016280Y017909D01*
X016280Y017831D02*
X013520Y017831D01*
X013520Y017752D02*
X016280Y017752D01*
X016280Y017674D02*
X013520Y017674D01*
X013539Y017595D02*
X016280Y017595D01*
X016280Y017517D02*
X013610Y017517D01*
X013643Y017438D02*
X016280Y017438D01*
X016280Y017360D02*
X013660Y017360D01*
X013660Y017281D02*
X016280Y017281D01*
X016280Y017203D02*
X013639Y017203D01*
X013606Y017124D02*
X016280Y017124D01*
X016280Y017046D02*
X013530Y017046D01*
X013377Y016967D02*
X016280Y016967D01*
X016280Y016889D02*
X013120Y016889D01*
X013120Y016967D02*
X013223Y016967D01*
X013120Y016810D02*
X016280Y016810D01*
X016280Y016732D02*
X013120Y016732D01*
X013120Y016653D02*
X016280Y016653D01*
X016280Y016575D02*
X013160Y016575D01*
X013219Y016496D02*
X016280Y016496D01*
X016280Y016418D02*
X013251Y016418D01*
X013260Y016339D02*
X016280Y016339D01*
X016280Y016261D02*
X013260Y016261D01*
X013230Y016182D02*
X016280Y016182D01*
X016280Y016104D02*
X013188Y016104D01*
X013109Y016025D02*
X016280Y016025D01*
X016280Y015947D02*
X012720Y015947D01*
X012720Y015868D02*
X016280Y015868D01*
X016280Y015790D02*
X012745Y015790D01*
X012813Y015711D02*
X016280Y015711D01*
X016280Y015633D02*
X012845Y015633D01*
X012860Y015554D02*
X016280Y015554D01*
X016280Y015476D02*
X012860Y015476D01*
X012837Y015397D02*
X016280Y015397D01*
X016280Y015319D02*
X012803Y015319D01*
X016280Y014455D02*
X002212Y014455D01*
X002143Y014377D02*
X016280Y014377D01*
X016280Y014298D02*
X002027Y014298D01*
X011069Y010766D02*
X011531Y010766D01*
X011441Y010687D02*
X011159Y010687D01*
X011235Y010609D02*
X011365Y010609D01*
X011333Y010530D02*
X011267Y010530D01*
X011300Y010452D02*
X011300Y010452D01*
X012069Y010766D02*
X012531Y010766D01*
X012441Y010687D02*
X012159Y010687D01*
X012235Y010609D02*
X012365Y010609D01*
X012333Y010530D02*
X012267Y010530D01*
X012300Y010452D02*
X012300Y010452D01*
X012274Y010138D02*
X012326Y010138D01*
X012358Y010059D02*
X012242Y010059D01*
X012177Y009981D02*
X012423Y009981D01*
X012502Y009902D02*
X012098Y009902D01*
X011922Y009824D02*
X012678Y009824D01*
X012922Y009824D02*
X013706Y009824D01*
X013760Y009824D02*
X013840Y009824D01*
X013894Y009824D02*
X014678Y009824D01*
X014502Y009902D02*
X014085Y009902D01*
X014177Y009981D02*
X014423Y009981D01*
X014358Y010059D02*
X014237Y010059D01*
X014275Y010138D02*
X014326Y010138D01*
X014297Y010206D02*
X014297Y010206D01*
X014295Y010452D02*
X014300Y010452D01*
X014268Y010530D02*
X014333Y010530D01*
X014365Y010609D02*
X014224Y010609D01*
X014159Y010687D02*
X014441Y010687D01*
X014531Y010766D02*
X014059Y010766D01*
X013840Y010766D02*
X013760Y010766D01*
X013760Y010687D02*
X013840Y010687D01*
X013840Y010609D02*
X013760Y010609D01*
X013760Y010530D02*
X013840Y010530D01*
X013840Y010452D02*
X013760Y010452D01*
X013760Y010373D02*
X013840Y010373D01*
X013840Y010216D02*
X013760Y010216D01*
X013760Y010138D02*
X013840Y010138D01*
X013840Y010059D02*
X013760Y010059D01*
X013760Y009981D02*
X013840Y009981D01*
X013840Y009902D02*
X013760Y009902D01*
X013760Y009815D02*
X013760Y009815D01*
X013515Y009902D02*
X013098Y009902D01*
X013177Y009981D02*
X013423Y009981D01*
X013363Y010059D02*
X013242Y010059D01*
X013274Y010138D02*
X013325Y010138D01*
X013303Y010444D02*
X013303Y010444D01*
X013300Y010452D02*
X013305Y010452D01*
X013332Y010530D02*
X013267Y010530D01*
X013235Y010609D02*
X013376Y010609D01*
X013441Y010687D02*
X013159Y010687D01*
X013069Y010766D02*
X013541Y010766D01*
X013840Y010835D02*
X013840Y010835D01*
X015069Y010766D02*
X015531Y010766D01*
X015441Y010687D02*
X015159Y010687D01*
X015235Y010609D02*
X015365Y010609D01*
X015333Y010530D02*
X015267Y010530D01*
X015300Y010452D02*
X015300Y010452D01*
X015274Y010138D02*
X015326Y010138D01*
X015358Y010059D02*
X015242Y010059D01*
X015177Y009981D02*
X015423Y009981D01*
X015502Y009902D02*
X015098Y009902D01*
X014922Y009824D02*
X015678Y009824D01*
X015922Y009824D02*
X016678Y009824D01*
X016502Y009902D02*
X016098Y009902D01*
X016177Y009981D02*
X016423Y009981D01*
X016358Y010059D02*
X016242Y010059D01*
X016274Y010138D02*
X016326Y010138D01*
X016300Y010452D02*
X016300Y010452D01*
X016267Y010530D02*
X016333Y010530D01*
X016365Y010609D02*
X016235Y010609D01*
X016159Y010687D02*
X016441Y010687D01*
X016531Y010766D02*
X016069Y010766D01*
X017069Y010766D02*
X017531Y010766D01*
X017441Y010687D02*
X017159Y010687D01*
X017235Y010609D02*
X017365Y010609D01*
X017333Y010530D02*
X017267Y010530D01*
X017300Y010452D02*
X017300Y010452D01*
X017274Y010138D02*
X017326Y010138D01*
X017358Y010059D02*
X017242Y010059D01*
X017177Y009981D02*
X017423Y009981D01*
X017502Y009902D02*
X017098Y009902D01*
X016922Y009824D02*
X017678Y009824D01*
X017922Y009824D02*
X018678Y009824D01*
X018502Y009902D02*
X018098Y009902D01*
X018177Y009981D02*
X018423Y009981D01*
X018358Y010059D02*
X018242Y010059D01*
X018274Y010138D02*
X018326Y010138D01*
X018300Y010452D02*
X018300Y010452D01*
X018267Y010530D02*
X018333Y010530D01*
X018365Y010609D02*
X018235Y010609D01*
X018159Y010687D02*
X018441Y010687D01*
X018531Y010766D02*
X018069Y010766D01*
X019069Y010766D02*
X019531Y010766D01*
X019441Y010687D02*
X019159Y010687D01*
X019235Y010609D02*
X019365Y010609D01*
X019333Y010530D02*
X019267Y010530D01*
X019300Y010452D02*
X019300Y010452D01*
X019274Y010138D02*
X019326Y010138D01*
X019358Y010059D02*
X019242Y010059D01*
X019177Y009981D02*
X019423Y009981D01*
X019502Y009902D02*
X019098Y009902D01*
X018922Y009824D02*
X019678Y009824D01*
X019922Y009824D02*
X020678Y009824D01*
X020502Y009902D02*
X020098Y009902D01*
X020177Y009981D02*
X020423Y009981D01*
X020358Y010059D02*
X020242Y010059D01*
X020274Y010138D02*
X020326Y010138D01*
X020300Y010452D02*
X020300Y010452D01*
X020267Y010530D02*
X020333Y010530D01*
X020365Y010609D02*
X020235Y010609D01*
X020159Y010687D02*
X020441Y010687D01*
X020531Y010766D02*
X020069Y010766D01*
X021069Y010766D02*
X021531Y010766D01*
X021441Y010687D02*
X021159Y010687D01*
X021235Y010609D02*
X021365Y010609D01*
X021333Y010530D02*
X021267Y010530D01*
X021300Y010452D02*
X021300Y010452D01*
X021274Y010138D02*
X021326Y010138D01*
X021358Y010059D02*
X021242Y010059D01*
X021177Y009981D02*
X021423Y009981D01*
X021502Y009902D02*
X021098Y009902D01*
X020922Y009824D02*
X021678Y009824D01*
X021922Y009824D02*
X026910Y009824D01*
X026910Y009902D02*
X022098Y009902D01*
X022177Y009981D02*
X026910Y009981D01*
X026910Y010059D02*
X022242Y010059D01*
X022274Y010138D02*
X026910Y010138D01*
X026910Y010216D02*
X022307Y010216D01*
X022310Y010295D02*
X026910Y010295D01*
X026910Y010373D02*
X022310Y010373D01*
X022300Y010452D02*
X026910Y010452D01*
X026910Y010530D02*
X022267Y010530D01*
X022235Y010609D02*
X026910Y010609D01*
X026910Y010687D02*
X022159Y010687D01*
X022069Y010766D02*
X026910Y010766D01*
X026910Y010844D02*
X022020Y010844D01*
X022020Y010923D02*
X026910Y010923D01*
X026910Y011001D02*
X022020Y011001D01*
X022020Y011080D02*
X026910Y011080D01*
X026910Y011158D02*
X022020Y011158D01*
X022020Y011237D02*
X026910Y011237D01*
X026910Y011315D02*
X022020Y011315D01*
X022020Y011394D02*
X026910Y011394D01*
X026910Y011472D02*
X022020Y011472D01*
X022020Y011551D02*
X026910Y011551D01*
X026910Y011629D02*
X022020Y011629D01*
X022020Y011708D02*
X026910Y011708D01*
X026910Y011786D02*
X022020Y011786D01*
X022020Y011865D02*
X026910Y011865D01*
X026910Y011943D02*
X022020Y011943D01*
X022020Y012022D02*
X026910Y012022D01*
X026910Y012100D02*
X022020Y012100D01*
X022020Y012179D02*
X026910Y012179D01*
X026910Y012257D02*
X022020Y012257D01*
X022020Y012336D02*
X026910Y012336D01*
X026910Y012414D02*
X022020Y012414D01*
X022020Y012493D02*
X026910Y012493D01*
X026910Y012571D02*
X022020Y012571D01*
X022020Y012650D02*
X026910Y012650D01*
X026910Y012728D02*
X022020Y012728D01*
X022020Y012807D02*
X026910Y012807D01*
X026910Y012885D02*
X022020Y012885D01*
X022020Y012964D02*
X026910Y012964D01*
X026910Y013042D02*
X022020Y013042D01*
X022020Y013121D02*
X026910Y013121D01*
X026910Y013199D02*
X022020Y013199D01*
X022020Y013278D02*
X026910Y013278D01*
X026910Y013356D02*
X026495Y013356D01*
X026685Y013435D02*
X026910Y013435D01*
X026910Y013513D02*
X026860Y013513D01*
X026105Y013356D02*
X022020Y013356D01*
X022020Y013435D02*
X025915Y013435D01*
X025740Y013513D02*
X022020Y013513D01*
X022020Y013592D02*
X025662Y013592D01*
X025583Y013670D02*
X022020Y013670D01*
X022020Y013749D02*
X025505Y013749D01*
X025456Y013827D02*
X022020Y013827D01*
X022020Y013906D02*
X025424Y013906D01*
X025391Y013984D02*
X022020Y013984D01*
X022020Y014063D02*
X025359Y014063D01*
X025330Y014141D02*
X022020Y014141D01*
X022020Y014220D02*
X025330Y014220D01*
X025330Y014298D02*
X022020Y014298D01*
X022020Y014377D02*
X025330Y014377D01*
X025330Y014455D02*
X022020Y014455D01*
X022020Y014534D02*
X025337Y014534D01*
X025369Y014612D02*
X022020Y014612D01*
X022020Y014691D02*
X025402Y014691D01*
X025434Y014769D02*
X022020Y014769D01*
X022020Y014848D02*
X025467Y014848D01*
X025529Y014926D02*
X022020Y014926D01*
X022020Y015005D02*
X022633Y015005D01*
X022533Y015083D02*
X022020Y015083D01*
X022020Y015162D02*
X022478Y015162D01*
X022446Y015240D02*
X022020Y015240D01*
X022020Y015476D02*
X022203Y015476D01*
X022062Y015554D02*
X022020Y015554D01*
X022397Y015476D02*
X022473Y015476D01*
X022440Y015397D02*
X022440Y015253D01*
X022967Y015005D02*
X025608Y015005D01*
X025686Y015083D02*
X023067Y015083D01*
X023122Y015162D02*
X025785Y015162D01*
X025975Y015240D02*
X023154Y015240D01*
X023160Y015319D02*
X026655Y015319D01*
X026625Y015240D02*
X026733Y015240D01*
X026576Y015397D02*
X023183Y015397D01*
X023262Y015476D02*
X026498Y015476D01*
X026419Y015554D02*
X023340Y015554D01*
X023419Y015633D02*
X026341Y015633D01*
X026262Y015711D02*
X023497Y015711D01*
X023520Y015790D02*
X026184Y015790D01*
X026105Y015868D02*
X023520Y015868D01*
X023520Y015947D02*
X026027Y015947D01*
X026079Y015894D02*
X026079Y015894D01*
X025961Y016025D02*
X023520Y016025D01*
X023520Y016104D02*
X025928Y016104D01*
X025910Y016182D02*
X023520Y016182D01*
X023520Y016261D02*
X025910Y016261D01*
X025910Y016339D02*
X023520Y016339D01*
X023520Y016418D02*
X025910Y016418D01*
X025910Y016496D02*
X023520Y016496D01*
X023520Y016575D02*
X025910Y016575D01*
X025910Y016653D02*
X023520Y016653D01*
X023520Y016732D02*
X025910Y016732D01*
X025910Y016810D02*
X023520Y016810D01*
X023520Y016889D02*
X025910Y016889D01*
X025910Y016967D02*
X023520Y016967D01*
X023530Y017046D02*
X025910Y017046D01*
X025910Y017124D02*
X023606Y017124D01*
X023639Y017203D02*
X025910Y017203D01*
X025910Y017281D02*
X023660Y017281D01*
X023660Y017360D02*
X025910Y017360D01*
X025910Y017438D02*
X023643Y017438D01*
X023610Y017517D02*
X025910Y017517D01*
X025910Y017595D02*
X023539Y017595D01*
X023399Y017674D02*
X025910Y017674D01*
X025910Y017752D02*
X023020Y017752D01*
X023020Y017674D02*
X023201Y017674D01*
X023061Y017595D02*
X023020Y017595D01*
X023020Y017831D02*
X025910Y017831D01*
X025910Y017909D02*
X023020Y017909D01*
X023020Y017988D02*
X025910Y017988D01*
X025910Y018066D02*
X023020Y018066D01*
X023020Y018145D02*
X025910Y018145D01*
X025910Y018223D02*
X023020Y018223D01*
X023020Y018302D02*
X025910Y018302D01*
X025910Y018380D02*
X023020Y018380D01*
X023020Y018459D02*
X025910Y018459D01*
X025910Y018537D02*
X025521Y018537D01*
X025600Y018616D02*
X025910Y018616D01*
X025910Y018694D02*
X025635Y018694D01*
X025660Y018773D02*
X025910Y018773D01*
X025910Y018851D02*
X025660Y018851D01*
X025646Y018930D02*
X025910Y018930D01*
X025910Y019008D02*
X025614Y019008D01*
X025548Y019087D02*
X025910Y019087D01*
X025910Y019165D02*
X025420Y019165D01*
X025193Y019244D02*
X025910Y019244D01*
X025910Y019322D02*
X025114Y019322D01*
X025036Y019401D02*
X025910Y019401D01*
X025910Y019479D02*
X024957Y019479D01*
X024879Y019558D02*
X025178Y019558D01*
X025018Y019636D02*
X024800Y019636D01*
X024722Y019715D02*
X024940Y019715D01*
X024890Y019793D02*
X024710Y019793D01*
X024743Y019872D02*
X024857Y019872D01*
X024840Y019950D02*
X024760Y019950D01*
X024760Y020029D02*
X024840Y020029D01*
X024840Y020107D02*
X024760Y020107D01*
X024760Y020186D02*
X024840Y020186D01*
X024840Y020264D02*
X024760Y020264D01*
X024760Y020343D02*
X024840Y020343D01*
X024840Y020421D02*
X024760Y020421D01*
X024760Y020500D02*
X024840Y020500D01*
X024840Y020578D02*
X024760Y020578D01*
X024760Y020657D02*
X024840Y020657D01*
X024840Y020735D02*
X024760Y020735D01*
X024728Y020814D02*
X024872Y020814D01*
X024904Y020892D02*
X024696Y020892D01*
X023904Y020892D02*
X023696Y020892D01*
X023728Y020814D02*
X023872Y020814D01*
X023840Y020735D02*
X023760Y020735D01*
X023760Y020657D02*
X023840Y020657D01*
X023840Y020578D02*
X023760Y020578D01*
X023760Y020500D02*
X023840Y020500D01*
X023840Y020421D02*
X023760Y020421D01*
X023760Y020343D02*
X023840Y020343D01*
X023840Y020264D02*
X023760Y020264D01*
X023760Y020186D02*
X023840Y020186D01*
X023840Y020107D02*
X023760Y020107D01*
X023760Y020029D02*
X023840Y020029D01*
X023840Y019950D02*
X023760Y019950D01*
X023743Y019872D02*
X023857Y019872D01*
X023890Y019793D02*
X023710Y019793D01*
X023660Y019715D02*
X023940Y019715D01*
X024018Y019636D02*
X023582Y019636D01*
X023422Y019558D02*
X024178Y019558D01*
X024335Y019479D02*
X023020Y019479D01*
X023020Y019401D02*
X024413Y019401D01*
X024492Y019322D02*
X023020Y019322D01*
X023020Y019244D02*
X024570Y019244D01*
X024649Y019165D02*
X023020Y019165D01*
X023020Y019087D02*
X024727Y019087D01*
X024806Y019008D02*
X023020Y019008D01*
X023020Y018930D02*
X024884Y018930D01*
X024940Y018851D02*
X023020Y018851D01*
X023020Y018773D02*
X024940Y018773D01*
X024965Y018694D02*
X023020Y018694D01*
X023020Y018616D02*
X025000Y018616D01*
X025079Y018537D02*
X023020Y018537D01*
X023020Y019558D02*
X023178Y019558D01*
X025422Y019558D02*
X025910Y019558D01*
X025910Y019636D02*
X025582Y019636D01*
X025660Y019715D02*
X025910Y019715D01*
X025910Y019793D02*
X025710Y019793D01*
X025743Y019872D02*
X025910Y019872D01*
X025910Y019950D02*
X025760Y019950D01*
X025760Y020029D02*
X025910Y020029D01*
X025910Y020107D02*
X025760Y020107D01*
X025760Y020186D02*
X025910Y020186D01*
X025910Y020264D02*
X025760Y020264D01*
X025760Y020343D02*
X025910Y020343D01*
X025910Y020421D02*
X025760Y020421D01*
X025760Y020500D02*
X025910Y020500D01*
X025895Y020578D02*
X025760Y020578D01*
X025760Y020657D02*
X025817Y020657D01*
X020580Y017595D02*
X020579Y017595D01*
X020580Y017517D02*
X020496Y017517D01*
X020580Y017438D02*
X017520Y017438D01*
X017520Y017360D02*
X020580Y017360D01*
X020580Y017281D02*
X017520Y017281D01*
X017520Y017203D02*
X020580Y017203D01*
X020580Y017124D02*
X017520Y017124D01*
X017520Y017046D02*
X020580Y017046D01*
X020580Y016967D02*
X017520Y016967D01*
X017520Y016889D02*
X020580Y016889D01*
X020580Y016810D02*
X017520Y016810D01*
X017520Y016732D02*
X020580Y016732D01*
X020580Y016653D02*
X017520Y016653D01*
X017520Y016575D02*
X020580Y016575D01*
X020580Y016496D02*
X017520Y016496D01*
X017520Y016418D02*
X020580Y016418D01*
X020580Y016339D02*
X017520Y016339D01*
X017520Y016261D02*
X020580Y016261D01*
X020580Y016182D02*
X017520Y016182D01*
X017520Y016104D02*
X020580Y016104D01*
X020580Y016025D02*
X017520Y016025D01*
X017520Y015947D02*
X020580Y015947D01*
X020580Y015868D02*
X017520Y015868D01*
X017520Y015790D02*
X020580Y015790D01*
X020580Y015711D02*
X017520Y015711D01*
X017520Y015633D02*
X020580Y015633D01*
X020580Y015554D02*
X017520Y015554D01*
X017520Y015476D02*
X020580Y015476D01*
X020580Y015397D02*
X017520Y015397D01*
X017520Y015319D02*
X020580Y015319D01*
X020580Y015240D02*
X017520Y015240D01*
X017520Y015162D02*
X020580Y015162D01*
X020580Y015083D02*
X017520Y015083D01*
X017520Y015005D02*
X020580Y015005D01*
X020580Y014926D02*
X017520Y014926D01*
X017520Y014848D02*
X020580Y014848D01*
X020580Y014769D02*
X017520Y014769D01*
X017520Y014691D02*
X020580Y014691D01*
X020580Y014612D02*
X017520Y014612D01*
X017520Y014534D02*
X020580Y014534D01*
X020580Y014455D02*
X017520Y014455D01*
X017520Y014377D02*
X020580Y014377D01*
X020580Y014298D02*
X017520Y014298D01*
X017520Y014220D02*
X020580Y014220D01*
X020580Y014141D02*
X017593Y014141D01*
X017633Y014063D02*
X020580Y014063D01*
X020580Y013984D02*
X017660Y013984D01*
X017660Y013906D02*
X020580Y013906D01*
X020580Y013827D02*
X017649Y013827D01*
X017617Y013749D02*
X020580Y013749D01*
X020580Y013670D02*
X017554Y013670D01*
X017436Y013592D02*
X020557Y013592D01*
X020488Y013513D02*
X017120Y013513D01*
X017120Y013435D02*
X020456Y013435D01*
X020440Y013356D02*
X017120Y013356D01*
X017120Y013278D02*
X020440Y013278D01*
X020463Y013199D02*
X017120Y013199D01*
X017120Y013121D02*
X020495Y013121D01*
X020574Y013042D02*
X017120Y013042D01*
X017171Y012964D02*
X021580Y012964D01*
X021580Y013042D02*
X021026Y013042D01*
X021105Y013121D02*
X021580Y013121D01*
X021580Y013199D02*
X021137Y013199D01*
X021160Y013278D02*
X021580Y013278D01*
X021580Y013356D02*
X021160Y013356D01*
X021144Y013435D02*
X021580Y013435D01*
X021580Y013513D02*
X021112Y013513D01*
X021043Y013592D02*
X021580Y013592D01*
X021580Y013670D02*
X021020Y013670D01*
X021020Y013749D02*
X021580Y013749D01*
X021580Y013827D02*
X021020Y013827D01*
X021020Y013906D02*
X021580Y013906D01*
X021580Y013984D02*
X021020Y013984D01*
X021020Y014063D02*
X021580Y014063D01*
X021580Y014141D02*
X021020Y014141D01*
X021020Y014220D02*
X021580Y014220D01*
X021580Y014298D02*
X021020Y014298D01*
X021020Y014377D02*
X021580Y014377D01*
X021580Y014455D02*
X021020Y014455D01*
X021020Y014534D02*
X021580Y014534D01*
X021580Y014612D02*
X021020Y014612D01*
X021020Y014691D02*
X021580Y014691D01*
X021580Y014769D02*
X021020Y014769D01*
X021020Y014848D02*
X021580Y014848D01*
X021580Y014926D02*
X021020Y014926D01*
X021020Y015005D02*
X021580Y015005D01*
X021580Y015083D02*
X021020Y015083D01*
X021020Y015162D02*
X021580Y015162D01*
X021580Y015240D02*
X021020Y015240D01*
X021020Y015319D02*
X021580Y015319D01*
X021580Y015397D02*
X021020Y015397D01*
X021020Y015476D02*
X021580Y015476D01*
X021580Y015554D02*
X021020Y015554D01*
X021020Y015633D02*
X021580Y015633D01*
X021580Y015711D02*
X021020Y015711D01*
X021020Y015790D02*
X021580Y015790D01*
X021580Y015868D02*
X021020Y015868D01*
X021020Y015947D02*
X021580Y015947D01*
X021580Y016025D02*
X021020Y016025D01*
X021020Y016104D02*
X021580Y016104D01*
X021580Y016182D02*
X021413Y016182D01*
X021545Y016261D02*
X021580Y016261D01*
X021187Y016182D02*
X021020Y016182D01*
X021020Y016261D02*
X021055Y016261D01*
X020104Y017517D02*
X017520Y017517D01*
X017520Y017595D02*
X020021Y017595D01*
X019973Y017674D02*
X017520Y017674D01*
X017520Y017752D02*
X019941Y017752D01*
X019940Y017831D02*
X017520Y017831D01*
X017520Y017909D02*
X019945Y017909D01*
X019978Y017988D02*
X017520Y017988D01*
X017520Y018066D02*
X020032Y018066D01*
X020080Y018145D02*
X017520Y018145D01*
X017520Y018223D02*
X020080Y018223D01*
X020080Y018302D02*
X017520Y018302D01*
X017520Y018380D02*
X020080Y018380D01*
X020080Y018459D02*
X017520Y018459D01*
X017520Y018537D02*
X020080Y018537D01*
X020080Y018616D02*
X017520Y018616D01*
X017520Y018694D02*
X020080Y018694D01*
X020041Y018773D02*
X017520Y018773D01*
X017520Y018851D02*
X019963Y018851D01*
X019884Y018930D02*
X017520Y018930D01*
X017520Y019008D02*
X019806Y019008D01*
X019727Y019087D02*
X017520Y019087D01*
X017520Y019165D02*
X019649Y019165D01*
X019580Y019244D02*
X017530Y019244D01*
X017608Y019322D02*
X019580Y019322D01*
X019580Y019401D02*
X017687Y019401D01*
X017765Y019479D02*
X019580Y019479D01*
X019580Y019558D02*
X019422Y019558D01*
X019178Y019558D02*
X018422Y019558D01*
X018582Y019636D02*
X019018Y019636D01*
X018940Y019715D02*
X018660Y019715D01*
X018710Y019793D02*
X018890Y019793D01*
X018857Y019872D02*
X018743Y019872D01*
X018760Y019950D02*
X018840Y019950D01*
X018840Y020029D02*
X018760Y020029D01*
X018760Y020107D02*
X018840Y020107D01*
X018840Y020186D02*
X018760Y020186D01*
X018760Y020264D02*
X018840Y020264D01*
X018840Y020343D02*
X018760Y020343D01*
X018760Y020421D02*
X018840Y020421D01*
X018840Y020500D02*
X018760Y020500D01*
X018760Y020578D02*
X018840Y020578D01*
X018840Y020657D02*
X018760Y020657D01*
X018760Y020735D02*
X018840Y020735D01*
X018872Y020814D02*
X018728Y020814D01*
X018696Y020892D02*
X018904Y020892D01*
X018178Y019558D02*
X017844Y019558D01*
X017922Y019636D02*
X018018Y019636D01*
X015956Y019558D02*
X015822Y019558D01*
X015578Y019558D02*
X014822Y019558D01*
X014982Y019636D02*
X015418Y019636D01*
X015340Y019715D02*
X015060Y019715D01*
X015110Y019793D02*
X015290Y019793D01*
X015257Y019872D02*
X015143Y019872D01*
X015160Y019950D02*
X015240Y019950D01*
X015240Y020029D02*
X015160Y020029D01*
X015160Y020107D02*
X015240Y020107D01*
X015240Y020186D02*
X015160Y020186D01*
X015160Y020264D02*
X015240Y020264D01*
X015240Y020343D02*
X015160Y020343D01*
X015160Y020421D02*
X015240Y020421D01*
X015240Y020500D02*
X015160Y020500D01*
X015160Y020578D02*
X015240Y020578D01*
X015240Y020657D02*
X015160Y020657D01*
X015160Y020735D02*
X015240Y020735D01*
X015272Y020814D02*
X015128Y020814D01*
X015096Y020892D02*
X015304Y020892D01*
X014304Y020892D02*
X014096Y020892D01*
X014128Y020814D02*
X014272Y020814D01*
X014240Y020735D02*
X014160Y020735D01*
X014160Y020657D02*
X014240Y020657D01*
X014240Y020578D02*
X014160Y020578D01*
X014160Y020500D02*
X014240Y020500D01*
X014240Y020421D02*
X014160Y020421D01*
X014160Y020343D02*
X014240Y020343D01*
X014240Y020264D02*
X014160Y020264D01*
X014160Y020186D02*
X014240Y020186D01*
X014240Y020107D02*
X014160Y020107D01*
X014160Y020029D02*
X014240Y020029D01*
X014240Y019950D02*
X014160Y019950D01*
X014143Y019872D02*
X014257Y019872D01*
X014290Y019793D02*
X014110Y019793D01*
X014060Y019715D02*
X014340Y019715D01*
X014418Y019636D02*
X013982Y019636D01*
X013822Y019558D02*
X014578Y019558D01*
X017120Y013592D02*
X017164Y013592D01*
X017223Y012885D02*
X021580Y012885D01*
X021580Y012807D02*
X017256Y012807D01*
X017260Y012728D02*
X021580Y012728D01*
X021580Y012650D02*
X017258Y012650D01*
X017226Y012571D02*
X021580Y012571D01*
X021580Y012493D02*
X017177Y012493D01*
X017090Y012414D02*
X021580Y012414D01*
X021580Y012336D02*
X016422Y012336D01*
X016500Y012414D02*
X016710Y012414D01*
X016623Y012493D02*
X016579Y012493D01*
X016343Y012257D02*
X021580Y012257D01*
X021580Y012179D02*
X016265Y012179D01*
X016260Y012100D02*
X021580Y012100D01*
X021580Y012022D02*
X016247Y012022D01*
X016214Y011943D02*
X021580Y011943D01*
X021580Y011865D02*
X016149Y011865D01*
X016022Y011786D02*
X021580Y011786D01*
X026910Y009745D02*
X011631Y009745D01*
X011553Y009667D02*
X026910Y009667D01*
X026910Y009588D02*
X011474Y009588D01*
X011396Y009510D02*
X026910Y009510D01*
X026910Y009431D02*
X011317Y009431D01*
X011239Y009353D02*
X026910Y009353D01*
X026910Y009274D02*
X011160Y009274D01*
X011082Y009196D02*
X026910Y009196D01*
X026910Y009117D02*
X011003Y009117D01*
X010925Y009039D02*
X026910Y009039D01*
X026910Y008960D02*
X010846Y008960D01*
X010568Y008882D02*
X026910Y008882D01*
X026910Y008803D02*
X010489Y008803D01*
X010411Y008725D02*
X026910Y008725D01*
X021199Y005977D02*
X020401Y005977D01*
X020540Y006056D02*
X021060Y006056D01*
X020989Y006134D02*
X020611Y006134D01*
X020643Y006213D02*
X020957Y006213D01*
X020940Y006291D02*
X020660Y006291D01*
X020660Y006370D02*
X020940Y006370D01*
X020866Y006448D02*
X020639Y006448D01*
X020606Y006527D02*
X020787Y006527D01*
X020709Y006605D02*
X020529Y006605D01*
X019531Y007783D02*
X012152Y007783D01*
X012029Y007861D02*
X019453Y007861D01*
X019374Y007940D02*
X009995Y007940D01*
X010033Y007861D02*
X011771Y007861D01*
X011648Y007783D02*
X010060Y007783D01*
X010060Y007704D02*
X011584Y007704D01*
X011552Y007626D02*
X010048Y007626D01*
X010016Y007547D02*
X011540Y007547D01*
X011540Y007469D02*
X009953Y007469D01*
X009832Y007390D02*
X011566Y007390D01*
X011604Y007312D02*
X009396Y007312D01*
X009434Y007390D02*
X009568Y007390D01*
X009317Y007233D02*
X011683Y007233D01*
X011620Y007155D02*
X006941Y007155D01*
X007014Y007076D02*
X011573Y007076D01*
X011540Y006998D02*
X007046Y006998D01*
X007079Y006919D02*
X011540Y006919D01*
X011545Y006841D02*
X007080Y006841D01*
X007080Y006762D02*
X011578Y006762D01*
X011632Y006684D02*
X007059Y006684D01*
X007027Y006605D02*
X011571Y006605D01*
X011494Y006527D02*
X006972Y006527D01*
X006894Y006448D02*
X011461Y006448D01*
X011440Y006370D02*
X006722Y006370D01*
X005562Y008018D02*
X003724Y008018D01*
X003677Y008097D02*
X005609Y008097D01*
X005679Y008175D02*
X003608Y008175D01*
X003483Y008254D02*
X005810Y008254D01*
X002992Y008175D02*
X000690Y008175D01*
X000690Y008097D02*
X002923Y008097D01*
X002876Y008018D02*
X000690Y008018D01*
X000690Y007940D02*
X002848Y007940D01*
X002835Y007861D02*
X000690Y007861D01*
X000690Y007783D02*
X002836Y007783D01*
X002850Y007704D02*
X000690Y007704D01*
X000690Y007626D02*
X002880Y007626D01*
X002927Y007547D02*
X000690Y007547D01*
X000690Y007469D02*
X003000Y007469D01*
X002866Y008411D02*
X000690Y008411D01*
X000690Y008489D02*
X002835Y008489D01*
X002835Y008568D02*
X000690Y008568D01*
X000690Y008646D02*
X002835Y008646D01*
X002835Y008725D02*
X000690Y008725D01*
X000690Y008803D02*
X002835Y008803D01*
X002835Y008882D02*
X000690Y008882D01*
X000690Y008960D02*
X002835Y008960D01*
X002835Y009039D02*
X000690Y009039D01*
X000690Y009117D02*
X002835Y009117D01*
X002835Y009196D02*
X000690Y009196D01*
X000690Y009274D02*
X002901Y009274D01*
X009920Y008018D02*
X019100Y008018D01*
X014405Y005742D02*
X012695Y005742D01*
X010454Y003701D02*
X008636Y003701D01*
X008714Y003622D02*
X009488Y003622D01*
X009912Y003622D02*
X010376Y003622D01*
X010338Y003544D02*
X009991Y003544D01*
X010032Y003465D02*
X010306Y003465D01*
X010290Y003387D02*
X010060Y003387D01*
X010060Y003308D02*
X010290Y003308D01*
X010290Y003230D02*
X010050Y003230D01*
X010018Y003151D02*
X010320Y003151D01*
X010353Y003073D02*
X009957Y003073D01*
X009842Y002994D02*
X010410Y002994D01*
X010488Y002916D02*
X000690Y002916D01*
X000690Y002994D02*
X009558Y002994D01*
X009443Y003073D02*
X000690Y003073D01*
X000690Y003151D02*
X008563Y003151D01*
X008484Y003230D02*
X000690Y003230D01*
X000690Y003308D02*
X008406Y003308D01*
X008327Y003387D02*
X000690Y003387D01*
X000690Y003465D02*
X008249Y003465D01*
X008170Y003544D02*
X000690Y003544D01*
X000690Y003622D02*
X008092Y003622D01*
X008013Y003701D02*
X000690Y003701D01*
X000690Y003779D02*
X007935Y003779D01*
X007856Y003858D02*
X000690Y003858D01*
X000690Y003936D02*
X007778Y003936D01*
X007699Y004015D02*
X000690Y004015D01*
X000690Y004093D02*
X007621Y004093D01*
X007542Y004172D02*
X000690Y004172D01*
X000690Y004250D02*
X007464Y004250D01*
X010645Y002837D02*
X000690Y002837D01*
X006564Y000718D02*
X012937Y000718D01*
X012889Y000796D02*
X006631Y000796D01*
X006663Y000875D02*
X012856Y000875D01*
X012840Y000953D02*
X006696Y000953D01*
X012628Y001189D02*
X012840Y001189D01*
X012840Y001267D02*
X012751Y001267D01*
X012815Y001346D02*
X012840Y001346D01*
X018519Y002052D02*
X020081Y002052D01*
X019978Y001974D02*
X018622Y001974D01*
X018694Y001895D02*
X019906Y001895D01*
X019873Y001817D02*
X018727Y001817D01*
X018759Y001738D02*
X019841Y001738D01*
X019840Y001660D02*
X018760Y001660D01*
X018760Y001581D02*
X019840Y001581D01*
X019840Y001503D02*
X018760Y001503D01*
X018760Y001424D02*
X019840Y001424D01*
X019840Y001346D02*
X018760Y001346D01*
X018760Y001267D02*
X019840Y001267D01*
X019840Y001189D02*
X018760Y001189D01*
X018760Y001110D02*
X019840Y001110D01*
X019840Y001032D02*
X018760Y001032D01*
X018760Y000953D02*
X019840Y000953D01*
X019856Y000875D02*
X018744Y000875D01*
X018711Y000796D02*
X019889Y000796D01*
X019937Y000718D02*
X018663Y000718D01*
X022519Y002052D02*
X023081Y002052D01*
X022978Y001974D02*
X022622Y001974D01*
X022694Y001895D02*
X022906Y001895D01*
X022873Y001817D02*
X022727Y001817D01*
X022759Y001738D02*
X022841Y001738D01*
X022840Y001660D02*
X022760Y001660D01*
X022760Y001581D02*
X022840Y001581D01*
X022840Y001503D02*
X022760Y001503D01*
X022760Y001424D02*
X022840Y001424D01*
X022840Y001346D02*
X022760Y001346D01*
X022760Y001267D02*
X022840Y001267D01*
X022840Y001189D02*
X022760Y001189D01*
X022760Y001110D02*
X022840Y001110D01*
X022840Y001032D02*
X022760Y001032D01*
X022760Y000953D02*
X022840Y000953D01*
X022856Y000875D02*
X022744Y000875D01*
X022711Y000796D02*
X022889Y000796D01*
X022937Y000718D02*
X022663Y000718D01*
X023663Y000718D02*
X023937Y000718D01*
X023889Y000796D02*
X023711Y000796D01*
X023744Y000875D02*
X023856Y000875D01*
X023840Y000953D02*
X023760Y000953D01*
X023760Y001032D02*
X023840Y001032D01*
X023840Y001110D02*
X023760Y001110D01*
X023760Y001189D02*
X023840Y001189D01*
X023840Y001267D02*
X023760Y001267D01*
X023760Y001346D02*
X023840Y001346D01*
X023840Y001424D02*
X023760Y001424D01*
X023760Y001503D02*
X023840Y001503D01*
X023840Y001581D02*
X023760Y001581D01*
X023760Y001660D02*
X023840Y001660D01*
X023841Y001738D02*
X023759Y001738D01*
X023727Y001817D02*
X023873Y001817D01*
X023906Y001895D02*
X023694Y001895D01*
X023622Y001974D02*
X023978Y001974D01*
X024081Y002052D02*
X023519Y002052D01*
X026791Y004172D02*
X026910Y004172D01*
X026910Y004250D02*
X026601Y004250D01*
X026904Y004093D02*
X026910Y004093D01*
D18*
X015820Y003365D02*
X015800Y003325D01*
D19*
X020300Y004965D03*
M02*
