G75*
G70*
%OFA0B0*%
%FSLAX24Y24*%
%IPPOS*%
%LPD*%
%AMOC8*
5,1,8,0,0,1.08239X$1,22.5*
%
%ADD10C,0.0100*%
%ADD11C,0.0000*%
%ADD12C,0.0640*%
%ADD13C,0.0740*%
%ADD14R,0.0650X0.0650*%
%ADD15C,0.0650*%
%ADD16C,0.0560*%
%ADD17C,0.0440*%
%ADD18C,0.0080*%
%ADD19C,0.0160*%
D10*
X000300Y000325D02*
X000300Y021325D01*
X025700Y021325D01*
X026300Y020725D01*
X026300Y019125D01*
X027300Y018125D01*
X035200Y018125D01*
X036200Y017125D01*
X036200Y002325D01*
X035200Y001325D01*
X027300Y001325D01*
X026300Y000325D01*
X000300Y000325D01*
X003300Y005825D02*
X003340Y005925D01*
X003660Y005925D01*
X006220Y005925D02*
X006300Y005825D01*
X014900Y003925D02*
X015100Y003725D01*
X016300Y003725D01*
X018300Y001725D01*
X018300Y001325D01*
X020300Y001325D02*
X020300Y001725D01*
X021300Y002725D01*
X021900Y002325D02*
X021300Y001725D01*
X021300Y001325D01*
X022300Y001325D02*
X022300Y001725D01*
X023300Y002725D01*
X023100Y003125D02*
X022300Y002325D01*
X021900Y002325D01*
X023100Y003125D02*
X024700Y003125D01*
X025700Y002125D01*
X026900Y002125D01*
X028300Y003525D01*
X028900Y003525D01*
X030500Y005125D01*
X030500Y008125D01*
X030900Y008925D02*
X030900Y006125D01*
X029700Y006525D02*
X029700Y005125D01*
X028500Y003925D01*
X027900Y003925D01*
X026700Y005125D01*
X026700Y005525D01*
X027300Y005925D02*
X027300Y004925D01*
X028100Y004125D01*
X028300Y004125D01*
X029300Y005125D01*
X029300Y005725D01*
X030100Y005125D02*
X028700Y003725D01*
X027700Y003725D01*
X026300Y005125D01*
X026300Y006725D01*
X026700Y007125D01*
X027050Y007925D02*
X028100Y007925D01*
X028200Y007825D01*
X030100Y007325D02*
X030100Y005125D01*
X027500Y003525D02*
X026500Y004525D01*
X026100Y004525D01*
X025700Y004125D01*
X025300Y004525D01*
X027500Y003525D02*
X027500Y003325D01*
X027050Y001725D02*
X031100Y001725D01*
X035200Y005825D01*
X035200Y006825D02*
X034100Y007925D01*
X034100Y008525D01*
X029500Y013125D01*
X029300Y013125D01*
X028200Y012825D02*
X027300Y013725D01*
X027300Y015125D01*
X026900Y015525D01*
X025900Y015525D01*
X022500Y018925D01*
X022300Y018925D01*
X022500Y019325D02*
X020900Y019325D01*
X020300Y019925D01*
X020300Y020325D01*
X019300Y020325D02*
X019300Y019125D01*
X022900Y015525D01*
X025300Y015525D01*
X024900Y015925D02*
X024700Y015725D01*
X023100Y015725D01*
X019700Y019125D01*
X019700Y019325D01*
X018300Y019325D02*
X017900Y019325D01*
X017500Y019725D01*
X017500Y019925D01*
X017100Y020325D01*
X016700Y020325D01*
X015700Y020325D02*
X015700Y019925D01*
X016500Y019125D01*
X018100Y019125D01*
X025900Y011325D01*
X026700Y011325D01*
X028200Y009825D01*
X028200Y010825D02*
X027500Y011525D01*
X026100Y011525D01*
X018300Y019325D01*
X018300Y019725D02*
X018300Y020325D01*
X018300Y019725D02*
X026300Y011725D01*
X028100Y011725D01*
X028200Y011825D01*
X029300Y013725D02*
X029300Y015525D01*
X025900Y018925D01*
X025900Y019725D01*
X025300Y020325D01*
X024300Y020325D02*
X024300Y020125D01*
X027300Y017125D01*
X027300Y016925D01*
X027300Y016325D02*
X027100Y016125D01*
X026500Y016125D01*
X023300Y019325D01*
X023300Y020325D01*
X022300Y020325D02*
X022300Y019925D01*
X026300Y015925D01*
X028100Y015925D01*
X028200Y015825D01*
X027300Y015725D02*
X026100Y015725D01*
X022500Y019325D01*
X027300Y015725D02*
X028200Y014825D01*
X029700Y015325D02*
X029700Y014125D01*
X032900Y010925D01*
X035100Y010925D01*
X035200Y010825D01*
X035100Y008925D02*
X034500Y008925D01*
X029500Y013925D01*
X029500Y015925D01*
X029900Y015525D02*
X029700Y015325D01*
X029300Y013725D02*
X035200Y007825D01*
X035200Y008825D02*
X035100Y008925D01*
X015700Y003325D02*
X015500Y003525D01*
X015100Y003525D01*
X014900Y003325D01*
X015300Y002925D02*
X015300Y001325D01*
X001800Y015895D02*
X001740Y015845D01*
X011700Y019925D02*
X011700Y020325D01*
X014500Y019925D02*
X014700Y020125D01*
X014700Y020325D01*
X014700Y020125D02*
X014700Y019925D01*
X014500Y019925D02*
X014900Y019525D01*
X014900Y018925D01*
D11*
X005670Y020325D02*
X005672Y020375D01*
X005678Y020425D01*
X005688Y020474D01*
X005702Y020522D01*
X005719Y020569D01*
X005740Y020614D01*
X005765Y020658D01*
X005793Y020699D01*
X005825Y020738D01*
X005859Y020775D01*
X005896Y020809D01*
X005936Y020839D01*
X005978Y020866D01*
X006022Y020890D01*
X006068Y020911D01*
X006115Y020927D01*
X006163Y020940D01*
X006213Y020949D01*
X006262Y020954D01*
X006313Y020955D01*
X006363Y020952D01*
X006412Y020945D01*
X006461Y020934D01*
X006509Y020919D01*
X006555Y020901D01*
X006600Y020879D01*
X006643Y020853D01*
X006684Y020824D01*
X006723Y020792D01*
X006759Y020757D01*
X006791Y020719D01*
X006821Y020679D01*
X006848Y020636D01*
X006871Y020592D01*
X006890Y020546D01*
X006906Y020498D01*
X006918Y020449D01*
X006926Y020400D01*
X006930Y020350D01*
X006930Y020300D01*
X006926Y020250D01*
X006918Y020201D01*
X006906Y020152D01*
X006890Y020104D01*
X006871Y020058D01*
X006848Y020014D01*
X006821Y019971D01*
X006791Y019931D01*
X006759Y019893D01*
X006723Y019858D01*
X006684Y019826D01*
X006643Y019797D01*
X006600Y019771D01*
X006555Y019749D01*
X006509Y019731D01*
X006461Y019716D01*
X006412Y019705D01*
X006363Y019698D01*
X006313Y019695D01*
X006262Y019696D01*
X006213Y019701D01*
X006163Y019710D01*
X006115Y019723D01*
X006068Y019739D01*
X006022Y019760D01*
X005978Y019784D01*
X005936Y019811D01*
X005896Y019841D01*
X005859Y019875D01*
X005825Y019912D01*
X005793Y019951D01*
X005765Y019992D01*
X005740Y020036D01*
X005719Y020081D01*
X005702Y020128D01*
X005688Y020176D01*
X005678Y020225D01*
X005672Y020275D01*
X005670Y020325D01*
X025670Y014325D02*
X025672Y014375D01*
X025678Y014425D01*
X025688Y014474D01*
X025702Y014522D01*
X025719Y014569D01*
X025740Y014614D01*
X025765Y014658D01*
X025793Y014699D01*
X025825Y014738D01*
X025859Y014775D01*
X025896Y014809D01*
X025936Y014839D01*
X025978Y014866D01*
X026022Y014890D01*
X026068Y014911D01*
X026115Y014927D01*
X026163Y014940D01*
X026213Y014949D01*
X026262Y014954D01*
X026313Y014955D01*
X026363Y014952D01*
X026412Y014945D01*
X026461Y014934D01*
X026509Y014919D01*
X026555Y014901D01*
X026600Y014879D01*
X026643Y014853D01*
X026684Y014824D01*
X026723Y014792D01*
X026759Y014757D01*
X026791Y014719D01*
X026821Y014679D01*
X026848Y014636D01*
X026871Y014592D01*
X026890Y014546D01*
X026906Y014498D01*
X026918Y014449D01*
X026926Y014400D01*
X026930Y014350D01*
X026930Y014300D01*
X026926Y014250D01*
X026918Y014201D01*
X026906Y014152D01*
X026890Y014104D01*
X026871Y014058D01*
X026848Y014014D01*
X026821Y013971D01*
X026791Y013931D01*
X026759Y013893D01*
X026723Y013858D01*
X026684Y013826D01*
X026643Y013797D01*
X026600Y013771D01*
X026555Y013749D01*
X026509Y013731D01*
X026461Y013716D01*
X026412Y013705D01*
X026363Y013698D01*
X026313Y013695D01*
X026262Y013696D01*
X026213Y013701D01*
X026163Y013710D01*
X026115Y013723D01*
X026068Y013739D01*
X026022Y013760D01*
X025978Y013784D01*
X025936Y013811D01*
X025896Y013841D01*
X025859Y013875D01*
X025825Y013912D01*
X025793Y013951D01*
X025765Y013992D01*
X025740Y014036D01*
X025719Y014081D01*
X025702Y014128D01*
X025688Y014176D01*
X025678Y014225D01*
X025672Y014275D01*
X025670Y014325D01*
X025670Y003325D02*
X025672Y003375D01*
X025678Y003425D01*
X025688Y003474D01*
X025702Y003522D01*
X025719Y003569D01*
X025740Y003614D01*
X025765Y003658D01*
X025793Y003699D01*
X025825Y003738D01*
X025859Y003775D01*
X025896Y003809D01*
X025936Y003839D01*
X025978Y003866D01*
X026022Y003890D01*
X026068Y003911D01*
X026115Y003927D01*
X026163Y003940D01*
X026213Y003949D01*
X026262Y003954D01*
X026313Y003955D01*
X026363Y003952D01*
X026412Y003945D01*
X026461Y003934D01*
X026509Y003919D01*
X026555Y003901D01*
X026600Y003879D01*
X026643Y003853D01*
X026684Y003824D01*
X026723Y003792D01*
X026759Y003757D01*
X026791Y003719D01*
X026821Y003679D01*
X026848Y003636D01*
X026871Y003592D01*
X026890Y003546D01*
X026906Y003498D01*
X026918Y003449D01*
X026926Y003400D01*
X026930Y003350D01*
X026930Y003300D01*
X026926Y003250D01*
X026918Y003201D01*
X026906Y003152D01*
X026890Y003104D01*
X026871Y003058D01*
X026848Y003014D01*
X026821Y002971D01*
X026791Y002931D01*
X026759Y002893D01*
X026723Y002858D01*
X026684Y002826D01*
X026643Y002797D01*
X026600Y002771D01*
X026555Y002749D01*
X026509Y002731D01*
X026461Y002716D01*
X026412Y002705D01*
X026363Y002698D01*
X026313Y002695D01*
X026262Y002696D01*
X026213Y002701D01*
X026163Y002710D01*
X026115Y002723D01*
X026068Y002739D01*
X026022Y002760D01*
X025978Y002784D01*
X025936Y002811D01*
X025896Y002841D01*
X025859Y002875D01*
X025825Y002912D01*
X025793Y002951D01*
X025765Y002992D01*
X025740Y003036D01*
X025719Y003081D01*
X025702Y003128D01*
X025688Y003176D01*
X025678Y003225D01*
X025672Y003275D01*
X025670Y003325D01*
X005170Y001325D02*
X005172Y001375D01*
X005178Y001425D01*
X005188Y001474D01*
X005202Y001522D01*
X005219Y001569D01*
X005240Y001614D01*
X005265Y001658D01*
X005293Y001699D01*
X005325Y001738D01*
X005359Y001775D01*
X005396Y001809D01*
X005436Y001839D01*
X005478Y001866D01*
X005522Y001890D01*
X005568Y001911D01*
X005615Y001927D01*
X005663Y001940D01*
X005713Y001949D01*
X005762Y001954D01*
X005813Y001955D01*
X005863Y001952D01*
X005912Y001945D01*
X005961Y001934D01*
X006009Y001919D01*
X006055Y001901D01*
X006100Y001879D01*
X006143Y001853D01*
X006184Y001824D01*
X006223Y001792D01*
X006259Y001757D01*
X006291Y001719D01*
X006321Y001679D01*
X006348Y001636D01*
X006371Y001592D01*
X006390Y001546D01*
X006406Y001498D01*
X006418Y001449D01*
X006426Y001400D01*
X006430Y001350D01*
X006430Y001300D01*
X006426Y001250D01*
X006418Y001201D01*
X006406Y001152D01*
X006390Y001104D01*
X006371Y001058D01*
X006348Y001014D01*
X006321Y000971D01*
X006291Y000931D01*
X006259Y000893D01*
X006223Y000858D01*
X006184Y000826D01*
X006143Y000797D01*
X006100Y000771D01*
X006055Y000749D01*
X006009Y000731D01*
X005961Y000716D01*
X005912Y000705D01*
X005863Y000698D01*
X005813Y000695D01*
X005762Y000696D01*
X005713Y000701D01*
X005663Y000710D01*
X005615Y000723D01*
X005568Y000739D01*
X005522Y000760D01*
X005478Y000784D01*
X005436Y000811D01*
X005396Y000841D01*
X005359Y000875D01*
X005325Y000912D01*
X005293Y000951D01*
X005265Y000992D01*
X005240Y001036D01*
X005219Y001081D01*
X005202Y001128D01*
X005188Y001176D01*
X005178Y001225D01*
X005172Y001275D01*
X005170Y001325D01*
D12*
X005980Y005825D02*
X006620Y005825D01*
X006620Y006825D02*
X005980Y006825D01*
X005980Y007825D02*
X006620Y007825D01*
X013300Y001645D02*
X013300Y001005D01*
X014300Y001005D02*
X014300Y001645D01*
X015300Y001645D02*
X015300Y001005D01*
X016300Y001005D02*
X016300Y001645D01*
X017300Y001645D02*
X017300Y001005D01*
X018300Y001005D02*
X018300Y001645D01*
X020300Y001645D02*
X020300Y001005D01*
X021300Y001005D02*
X021300Y001645D01*
X022300Y001645D02*
X022300Y001005D01*
X023300Y001005D02*
X023300Y001645D01*
X024300Y001645D02*
X024300Y001005D01*
X025300Y001005D02*
X025300Y001645D01*
X025300Y020005D02*
X025300Y020645D01*
X024300Y020645D02*
X024300Y020005D01*
X023300Y020005D02*
X023300Y020645D01*
X022300Y020645D02*
X022300Y020005D01*
X021300Y020005D02*
X021300Y020645D01*
X020300Y020645D02*
X020300Y020005D01*
X019300Y020005D02*
X019300Y020645D01*
X018300Y020645D02*
X018300Y020005D01*
X016700Y020005D02*
X016700Y020645D01*
X015700Y020645D02*
X015700Y020005D01*
X014700Y020005D02*
X014700Y020645D01*
X013700Y020645D02*
X013700Y020005D01*
X012700Y020005D02*
X012700Y020645D01*
X011700Y020645D02*
X011700Y020005D01*
X010700Y020005D02*
X010700Y020645D01*
X009700Y020645D02*
X009700Y020005D01*
D13*
X004100Y020125D03*
X003100Y020125D03*
X002100Y020125D03*
X001800Y015895D03*
X001800Y014755D03*
X028200Y014825D03*
X028200Y013825D03*
X028200Y012825D03*
X028200Y011825D03*
X028200Y010825D03*
X028200Y009825D03*
X028200Y008825D03*
X028200Y007825D03*
X028200Y006825D03*
X028200Y005825D03*
X028200Y004825D03*
X035200Y004825D03*
X035200Y005825D03*
X035200Y006825D03*
X035200Y007825D03*
X035200Y008825D03*
X035200Y009825D03*
X035200Y010825D03*
X035200Y011825D03*
X035200Y012825D03*
X035200Y013825D03*
X035200Y014825D03*
X035200Y015825D03*
X028200Y015825D03*
D14*
X003300Y008825D03*
X003300Y005825D03*
D15*
X003300Y004825D03*
X003300Y007825D03*
D16*
X004300Y014931D03*
X004300Y015719D03*
D17*
X003300Y016825D03*
X003300Y018825D03*
X001300Y018825D03*
X005300Y018825D03*
X007300Y018825D03*
X007300Y016825D03*
X009300Y016825D03*
X009300Y014825D03*
X007300Y014825D03*
X007300Y012825D03*
X005300Y012825D03*
X003300Y012825D03*
X003300Y010825D03*
X005300Y010825D03*
X007300Y010825D03*
X013800Y008825D03*
X015800Y008825D03*
X017800Y008825D03*
X019800Y008825D03*
X023800Y006825D03*
X026700Y007125D03*
X027300Y005925D03*
X026700Y005525D03*
X025800Y004825D03*
X025300Y004525D03*
X023800Y004825D03*
X023300Y002725D03*
X021300Y002725D03*
X015700Y003325D03*
X015300Y002925D03*
X014900Y003325D03*
X014900Y003925D03*
X011800Y004825D03*
X013800Y006825D03*
X007300Y003325D03*
X005300Y003325D03*
X003300Y003325D03*
X001300Y003325D03*
X001300Y005325D03*
X001300Y007325D03*
X003300Y001325D03*
X007300Y001325D03*
X009300Y001325D03*
X025800Y008825D03*
X025800Y010825D03*
X025800Y012825D03*
X029300Y013125D03*
X029900Y015525D03*
X029500Y015925D03*
X027300Y016325D03*
X027300Y016925D03*
X024900Y015925D03*
X025300Y015525D03*
X022300Y018925D03*
X019700Y019325D03*
X015800Y016825D03*
X013800Y016825D03*
X013800Y014825D03*
X015800Y014825D03*
X015800Y012825D03*
X014900Y018925D03*
X030900Y008925D03*
X030500Y008125D03*
X030100Y007325D03*
X029700Y006525D03*
X029300Y005725D03*
X030900Y006125D03*
X027500Y003325D03*
D18*
X027050Y002703D02*
X027050Y002544D01*
X026821Y002315D01*
X025779Y002315D01*
X024890Y003204D01*
X024779Y003315D01*
X023021Y003315D01*
X022221Y002515D01*
X021821Y002515D01*
X021405Y002099D01*
X021391Y002105D01*
X021208Y002105D01*
X021039Y002035D01*
X020910Y001906D01*
X020840Y001736D01*
X020840Y000913D01*
X020910Y000744D01*
X020939Y000715D01*
X020661Y000715D01*
X020690Y000744D01*
X020760Y000913D01*
X020760Y001736D01*
X020707Y001864D01*
X021214Y002371D01*
X021228Y002365D01*
X021372Y002365D01*
X021504Y002420D01*
X021605Y002521D01*
X021660Y002653D01*
X021660Y002797D01*
X021605Y002929D01*
X021504Y003030D01*
X021372Y003085D01*
X021228Y003085D01*
X021096Y003030D01*
X020995Y002929D01*
X020940Y002797D01*
X020940Y002653D01*
X020946Y002639D01*
X020406Y002099D01*
X020391Y002105D01*
X020208Y002105D01*
X020039Y002035D01*
X019910Y001906D01*
X019840Y001736D01*
X019840Y000913D01*
X019910Y000744D01*
X019939Y000715D01*
X018661Y000715D01*
X018690Y000744D01*
X018760Y000913D01*
X018760Y001736D01*
X018690Y001906D01*
X018561Y002035D01*
X018391Y002105D01*
X018208Y002105D01*
X018194Y002099D01*
X016490Y003804D01*
X016379Y003915D01*
X015260Y003915D01*
X015260Y003997D01*
X015205Y004129D01*
X015104Y004230D01*
X014972Y004285D01*
X014828Y004285D01*
X014696Y004230D01*
X014595Y004129D01*
X014540Y003997D01*
X014540Y003853D01*
X014595Y003721D01*
X014691Y003625D01*
X014595Y003529D01*
X014540Y003397D01*
X014540Y003253D01*
X014595Y003121D01*
X014696Y003020D01*
X014828Y002965D01*
X014940Y002965D01*
X014940Y002853D01*
X014995Y002721D01*
X015096Y002620D01*
X015110Y002614D01*
X015110Y002064D01*
X015039Y002035D01*
X014910Y001906D01*
X014840Y001736D01*
X014840Y000913D01*
X014910Y000744D01*
X014939Y000715D01*
X014661Y000715D01*
X014690Y000744D01*
X014760Y000913D01*
X014760Y001736D01*
X014690Y001906D01*
X014561Y002035D01*
X014391Y002105D01*
X014208Y002105D01*
X014039Y002035D01*
X013910Y001906D01*
X013840Y001736D01*
X013840Y000913D01*
X013910Y000744D01*
X013939Y000715D01*
X013661Y000715D01*
X013690Y000744D01*
X013760Y000913D01*
X013760Y001736D01*
X013690Y001906D01*
X013561Y002035D01*
X013391Y002105D01*
X013208Y002105D01*
X013039Y002035D01*
X012910Y001906D01*
X012840Y001736D01*
X012840Y000913D01*
X012910Y000744D01*
X012939Y000715D01*
X006562Y000715D01*
X006622Y000776D01*
X006770Y001132D01*
X006770Y001518D01*
X006622Y001874D01*
X006349Y002147D01*
X005993Y002295D01*
X005607Y002295D01*
X005251Y002147D01*
X004978Y001874D01*
X004830Y001518D01*
X004830Y001132D01*
X004978Y000776D01*
X005038Y000715D01*
X000690Y000715D01*
X000690Y020935D01*
X005538Y020935D01*
X005478Y020874D01*
X005330Y020518D01*
X005330Y020132D01*
X005478Y019776D01*
X005751Y019503D01*
X006107Y019355D01*
X006493Y019355D01*
X006849Y019503D01*
X007122Y019776D01*
X007270Y020132D01*
X007270Y020518D01*
X007122Y020874D01*
X007062Y020935D01*
X009339Y020935D01*
X009310Y020906D01*
X009240Y020736D01*
X009240Y019913D01*
X009310Y019744D01*
X009439Y019615D01*
X009608Y019545D01*
X009791Y019545D01*
X009961Y019615D01*
X010090Y019744D01*
X010160Y019913D01*
X010160Y020736D01*
X010090Y020906D01*
X010061Y020935D01*
X010342Y020935D01*
X010307Y020886D01*
X010274Y020822D01*
X010251Y020753D01*
X010240Y020681D01*
X010240Y020365D01*
X010660Y020365D01*
X010660Y020285D01*
X010740Y020285D01*
X010740Y020365D01*
X011160Y020365D01*
X011160Y020681D01*
X011149Y020753D01*
X011126Y020822D01*
X011093Y020886D01*
X011058Y020935D01*
X011339Y020935D01*
X011310Y020906D01*
X011240Y020736D01*
X011240Y019913D01*
X011310Y019744D01*
X011439Y019615D01*
X011608Y019545D01*
X011791Y019545D01*
X011961Y019615D01*
X012090Y019744D01*
X012160Y019913D01*
X012160Y020736D01*
X012090Y020906D01*
X012061Y020935D01*
X012339Y020935D01*
X012310Y020906D01*
X012240Y020736D01*
X012240Y019913D01*
X012310Y019744D01*
X012439Y019615D01*
X012608Y019545D01*
X012791Y019545D01*
X012961Y019615D01*
X013090Y019744D01*
X013160Y019913D01*
X013160Y020736D01*
X013090Y020906D01*
X013061Y020935D01*
X013339Y020935D01*
X013310Y020906D01*
X013240Y020736D01*
X013240Y019913D01*
X013310Y019744D01*
X013439Y019615D01*
X013608Y019545D01*
X013791Y019545D01*
X013961Y019615D01*
X014090Y019744D01*
X014160Y019913D01*
X014160Y020736D01*
X014090Y020906D01*
X014061Y020935D01*
X014339Y020935D01*
X014310Y020906D01*
X014240Y020736D01*
X014240Y019913D01*
X014310Y019744D01*
X014439Y019615D01*
X014608Y019545D01*
X014611Y019545D01*
X014710Y019446D01*
X014710Y019236D01*
X014696Y019230D01*
X014595Y019129D01*
X014540Y018997D01*
X014540Y018853D01*
X014595Y018721D01*
X014696Y018620D01*
X014828Y018565D01*
X014972Y018565D01*
X015104Y018620D01*
X015205Y018721D01*
X015260Y018853D01*
X015260Y018997D01*
X015205Y019129D01*
X015104Y019230D01*
X015090Y019236D01*
X015090Y019604D01*
X015020Y019674D01*
X015090Y019744D01*
X015160Y019913D01*
X015160Y020736D01*
X015090Y020906D01*
X015061Y020935D01*
X015339Y020935D01*
X015310Y020906D01*
X015240Y020736D01*
X015240Y019913D01*
X015310Y019744D01*
X015439Y019615D01*
X015608Y019545D01*
X015791Y019545D01*
X015806Y019551D01*
X016421Y018935D01*
X018021Y018935D01*
X025821Y011135D01*
X026621Y011135D01*
X027050Y010706D01*
X027050Y007221D01*
X027005Y007329D01*
X026904Y007430D01*
X026772Y007485D01*
X026628Y007485D01*
X026496Y007430D01*
X026395Y007329D01*
X026340Y007197D01*
X026340Y007053D01*
X026346Y007039D01*
X026110Y006804D01*
X026110Y005046D01*
X026221Y004935D01*
X026441Y004715D01*
X026021Y004715D01*
X025700Y004394D01*
X025654Y004439D01*
X025660Y004453D01*
X025660Y004597D01*
X025605Y004729D01*
X025504Y004830D01*
X025372Y004885D01*
X025228Y004885D01*
X025096Y004830D01*
X024995Y004729D01*
X024940Y004597D01*
X024940Y004453D01*
X024995Y004321D01*
X025096Y004220D01*
X025228Y004165D01*
X025372Y004165D01*
X025386Y004171D01*
X025580Y003976D01*
X025478Y003874D01*
X025330Y003518D01*
X025330Y003132D01*
X025478Y002776D01*
X025751Y002503D01*
X026107Y002355D01*
X026493Y002355D01*
X026849Y002503D01*
X027050Y002703D01*
X027050Y002680D02*
X027027Y002680D01*
X027050Y002602D02*
X026948Y002602D01*
X026870Y002523D02*
X027029Y002523D01*
X026951Y002445D02*
X026709Y002445D01*
X026872Y002366D02*
X026519Y002366D01*
X026081Y002366D02*
X025728Y002366D01*
X025649Y002445D02*
X025891Y002445D01*
X025730Y002523D02*
X025571Y002523D01*
X025492Y002602D02*
X025652Y002602D01*
X025573Y002680D02*
X025414Y002680D01*
X025335Y002759D02*
X025495Y002759D01*
X025452Y002837D02*
X025257Y002837D01*
X025178Y002916D02*
X025420Y002916D01*
X025387Y002994D02*
X025100Y002994D01*
X025021Y003073D02*
X025355Y003073D01*
X025330Y003151D02*
X024943Y003151D01*
X024864Y003230D02*
X025330Y003230D01*
X025330Y003308D02*
X024786Y003308D01*
X025330Y003387D02*
X016907Y003387D01*
X016829Y003465D02*
X025330Y003465D01*
X025341Y003544D02*
X016750Y003544D01*
X016672Y003622D02*
X025373Y003622D01*
X025406Y003701D02*
X016593Y003701D01*
X016515Y003779D02*
X025438Y003779D01*
X025471Y003858D02*
X016436Y003858D01*
X016221Y003535D02*
X017893Y001864D01*
X017840Y001736D01*
X017840Y000913D01*
X017910Y000744D01*
X017939Y000715D01*
X017658Y000715D01*
X017693Y000764D01*
X017726Y000828D01*
X017749Y000897D01*
X017760Y000969D01*
X017760Y001285D01*
X017340Y001285D01*
X017340Y001365D01*
X017260Y001365D01*
X017260Y002104D01*
X017192Y002094D01*
X017123Y002071D01*
X017059Y002038D01*
X017000Y001996D01*
X016949Y001945D01*
X016907Y001886D01*
X016874Y001822D01*
X016851Y001753D01*
X016840Y001681D01*
X016840Y001365D01*
X017260Y001365D01*
X017260Y001285D01*
X016840Y001285D01*
X016840Y000969D01*
X016851Y000897D01*
X016874Y000828D01*
X016907Y000764D01*
X016942Y000715D01*
X016658Y000715D01*
X016693Y000764D01*
X016726Y000828D01*
X016749Y000897D01*
X016760Y000969D01*
X016760Y001285D01*
X016340Y001285D01*
X016340Y001365D01*
X016260Y001365D01*
X016260Y002104D01*
X016192Y002094D01*
X016123Y002071D01*
X016059Y002038D01*
X016000Y001996D01*
X015949Y001945D01*
X015907Y001886D01*
X015874Y001822D01*
X015851Y001753D01*
X015840Y001681D01*
X015840Y001365D01*
X016260Y001365D01*
X016260Y001285D01*
X015840Y001285D01*
X015840Y000969D01*
X015851Y000897D01*
X015874Y000828D01*
X015907Y000764D01*
X015942Y000715D01*
X015661Y000715D01*
X015690Y000744D01*
X015760Y000913D01*
X015760Y001736D01*
X015690Y001906D01*
X015561Y002035D01*
X015490Y002064D01*
X015490Y002614D01*
X015504Y002620D01*
X015605Y002721D01*
X015660Y002853D01*
X015660Y002965D01*
X015772Y002965D01*
X015904Y003020D01*
X016005Y003121D01*
X016060Y003253D01*
X016060Y003397D01*
X016005Y003529D01*
X015999Y003535D01*
X016221Y003535D01*
X016291Y003465D02*
X016032Y003465D01*
X016060Y003387D02*
X016370Y003387D01*
X016448Y003308D02*
X016060Y003308D01*
X016050Y003230D02*
X016527Y003230D01*
X016605Y003151D02*
X016018Y003151D01*
X015957Y003073D02*
X016684Y003073D01*
X016762Y002994D02*
X015842Y002994D01*
X015660Y002916D02*
X016841Y002916D01*
X016919Y002837D02*
X015653Y002837D01*
X015621Y002759D02*
X016998Y002759D01*
X017076Y002680D02*
X015564Y002680D01*
X015490Y002602D02*
X017155Y002602D01*
X017233Y002523D02*
X015490Y002523D01*
X015490Y002445D02*
X017312Y002445D01*
X017390Y002366D02*
X015490Y002366D01*
X015490Y002288D02*
X017469Y002288D01*
X017547Y002209D02*
X015490Y002209D01*
X015490Y002131D02*
X017626Y002131D01*
X017704Y002052D02*
X017514Y002052D01*
X017541Y002038D02*
X017477Y002071D01*
X017408Y002094D01*
X017340Y002104D01*
X017340Y001365D01*
X017760Y001365D01*
X017760Y001681D01*
X017749Y001753D01*
X017726Y001822D01*
X017693Y001886D01*
X017651Y001945D01*
X017600Y001996D01*
X017541Y002038D01*
X017622Y001974D02*
X017783Y001974D01*
X017861Y001895D02*
X017687Y001895D01*
X017728Y001817D02*
X017873Y001817D01*
X017841Y001738D02*
X017751Y001738D01*
X017760Y001660D02*
X017840Y001660D01*
X017840Y001581D02*
X017760Y001581D01*
X017760Y001503D02*
X017840Y001503D01*
X017840Y001424D02*
X017760Y001424D01*
X017840Y001346D02*
X017340Y001346D01*
X017340Y001424D02*
X017260Y001424D01*
X017260Y001346D02*
X016340Y001346D01*
X016340Y001365D02*
X016760Y001365D01*
X016760Y001681D01*
X016749Y001753D01*
X016726Y001822D01*
X016693Y001886D01*
X016651Y001945D01*
X016600Y001996D01*
X016541Y002038D01*
X016477Y002071D01*
X016408Y002094D01*
X016340Y002104D01*
X016340Y001365D01*
X016340Y001424D02*
X016260Y001424D01*
X016260Y001346D02*
X015760Y001346D01*
X015760Y001424D02*
X015840Y001424D01*
X015840Y001503D02*
X015760Y001503D01*
X015760Y001581D02*
X015840Y001581D01*
X015840Y001660D02*
X015760Y001660D01*
X015759Y001738D02*
X015849Y001738D01*
X015872Y001817D02*
X015727Y001817D01*
X015694Y001895D02*
X015913Y001895D01*
X015978Y001974D02*
X015622Y001974D01*
X015519Y002052D02*
X016086Y002052D01*
X016260Y002052D02*
X016340Y002052D01*
X016340Y001974D02*
X016260Y001974D01*
X016260Y001895D02*
X016340Y001895D01*
X016340Y001817D02*
X016260Y001817D01*
X016260Y001738D02*
X016340Y001738D01*
X016340Y001660D02*
X016260Y001660D01*
X016260Y001581D02*
X016340Y001581D01*
X016340Y001503D02*
X016260Y001503D01*
X016760Y001503D02*
X016840Y001503D01*
X016840Y001581D02*
X016760Y001581D01*
X016760Y001660D02*
X016840Y001660D01*
X016849Y001738D02*
X016751Y001738D01*
X016728Y001817D02*
X016872Y001817D01*
X016913Y001895D02*
X016687Y001895D01*
X016622Y001974D02*
X016978Y001974D01*
X017086Y002052D02*
X016514Y002052D01*
X017260Y002052D02*
X017340Y002052D01*
X017340Y001974D02*
X017260Y001974D01*
X017260Y001895D02*
X017340Y001895D01*
X017340Y001817D02*
X017260Y001817D01*
X017260Y001738D02*
X017340Y001738D01*
X017340Y001660D02*
X017260Y001660D01*
X017260Y001581D02*
X017340Y001581D01*
X017340Y001503D02*
X017260Y001503D01*
X016840Y001424D02*
X016760Y001424D01*
X016760Y001267D02*
X016840Y001267D01*
X016840Y001189D02*
X016760Y001189D01*
X016760Y001110D02*
X016840Y001110D01*
X016840Y001032D02*
X016760Y001032D01*
X016757Y000953D02*
X016843Y000953D01*
X016859Y000875D02*
X016741Y000875D01*
X016710Y000796D02*
X016890Y000796D01*
X016940Y000718D02*
X016660Y000718D01*
X015940Y000718D02*
X015663Y000718D01*
X015711Y000796D02*
X015890Y000796D01*
X015859Y000875D02*
X015744Y000875D01*
X015760Y000953D02*
X015843Y000953D01*
X015840Y001032D02*
X015760Y001032D01*
X015760Y001110D02*
X015840Y001110D01*
X015840Y001189D02*
X015760Y001189D01*
X015760Y001267D02*
X015840Y001267D01*
X014840Y001267D02*
X014760Y001267D01*
X014760Y001189D02*
X014840Y001189D01*
X014840Y001110D02*
X014760Y001110D01*
X014760Y001032D02*
X014840Y001032D01*
X014840Y000953D02*
X014760Y000953D01*
X014744Y000875D02*
X014856Y000875D01*
X014889Y000796D02*
X014711Y000796D01*
X014663Y000718D02*
X014937Y000718D01*
X013937Y000718D02*
X013663Y000718D01*
X013711Y000796D02*
X013889Y000796D01*
X013856Y000875D02*
X013744Y000875D01*
X013760Y000953D02*
X013840Y000953D01*
X013840Y001032D02*
X013760Y001032D01*
X013760Y001110D02*
X013840Y001110D01*
X013840Y001189D02*
X013760Y001189D01*
X013760Y001267D02*
X013840Y001267D01*
X013840Y001346D02*
X013760Y001346D01*
X013760Y001424D02*
X013840Y001424D01*
X013840Y001503D02*
X013760Y001503D01*
X013760Y001581D02*
X013840Y001581D01*
X013840Y001660D02*
X013760Y001660D01*
X013759Y001738D02*
X013841Y001738D01*
X013873Y001817D02*
X013727Y001817D01*
X013694Y001895D02*
X013906Y001895D01*
X013978Y001974D02*
X013622Y001974D01*
X013519Y002052D02*
X014081Y002052D01*
X014519Y002052D02*
X015081Y002052D01*
X015110Y002131D02*
X006366Y002131D01*
X006445Y002052D02*
X013081Y002052D01*
X012978Y001974D02*
X006523Y001974D01*
X006602Y001895D02*
X012906Y001895D01*
X012873Y001817D02*
X006646Y001817D01*
X006679Y001738D02*
X012841Y001738D01*
X012840Y001660D02*
X006711Y001660D01*
X006744Y001581D02*
X012840Y001581D01*
X012840Y001503D02*
X006770Y001503D01*
X006770Y001424D02*
X012840Y001424D01*
X012840Y001346D02*
X006770Y001346D01*
X006770Y001267D02*
X012840Y001267D01*
X012840Y001189D02*
X006770Y001189D01*
X006761Y001110D02*
X012840Y001110D01*
X012840Y001032D02*
X006728Y001032D01*
X006696Y000953D02*
X012840Y000953D01*
X012856Y000875D02*
X006663Y000875D01*
X006631Y000796D02*
X012889Y000796D01*
X012937Y000718D02*
X006564Y000718D01*
X005036Y000718D02*
X000690Y000718D01*
X000690Y000796D02*
X004969Y000796D01*
X004937Y000875D02*
X000690Y000875D01*
X000690Y000953D02*
X004904Y000953D01*
X004872Y001032D02*
X000690Y001032D01*
X000690Y001110D02*
X004839Y001110D01*
X004830Y001189D02*
X000690Y001189D01*
X000690Y001267D02*
X004830Y001267D01*
X004830Y001346D02*
X000690Y001346D01*
X000690Y001424D02*
X004830Y001424D01*
X004830Y001503D02*
X000690Y001503D01*
X000690Y001581D02*
X004856Y001581D01*
X004889Y001660D02*
X000690Y001660D01*
X000690Y001738D02*
X004921Y001738D01*
X004954Y001817D02*
X000690Y001817D01*
X000690Y001895D02*
X004998Y001895D01*
X005077Y001974D02*
X000690Y001974D01*
X000690Y002052D02*
X005155Y002052D01*
X005234Y002131D02*
X000690Y002131D01*
X000690Y002209D02*
X005400Y002209D01*
X005589Y002288D02*
X000690Y002288D01*
X000690Y002366D02*
X015110Y002366D01*
X015110Y002288D02*
X006011Y002288D01*
X006200Y002209D02*
X015110Y002209D01*
X015110Y002445D02*
X000690Y002445D01*
X000690Y002523D02*
X015110Y002523D01*
X015110Y002602D02*
X000690Y002602D01*
X000690Y002680D02*
X015036Y002680D01*
X014979Y002759D02*
X000690Y002759D01*
X000690Y002837D02*
X014947Y002837D01*
X014940Y002916D02*
X000690Y002916D01*
X000690Y002994D02*
X014758Y002994D01*
X014643Y003073D02*
X000690Y003073D01*
X000690Y003151D02*
X014582Y003151D01*
X014550Y003230D02*
X000690Y003230D01*
X000690Y003308D02*
X014540Y003308D01*
X014540Y003387D02*
X000690Y003387D01*
X000690Y003465D02*
X014568Y003465D01*
X014609Y003544D02*
X000690Y003544D01*
X000690Y003622D02*
X014688Y003622D01*
X014615Y003701D02*
X000690Y003701D01*
X000690Y003779D02*
X014571Y003779D01*
X014540Y003858D02*
X000690Y003858D01*
X000690Y003936D02*
X014540Y003936D01*
X014547Y004015D02*
X000690Y004015D01*
X000690Y004093D02*
X014580Y004093D01*
X014637Y004172D02*
X000690Y004172D01*
X000690Y004250D02*
X014744Y004250D01*
X015056Y004250D02*
X025066Y004250D01*
X024992Y004329D02*
X000690Y004329D01*
X000690Y004407D02*
X003096Y004407D01*
X003122Y004394D02*
X003191Y004371D01*
X003263Y004360D01*
X003271Y004360D01*
X003271Y004796D01*
X002835Y004796D01*
X002835Y004788D01*
X002846Y004716D01*
X002869Y004647D01*
X002902Y004581D01*
X002945Y004522D01*
X002997Y004470D01*
X003056Y004427D01*
X003122Y004394D01*
X003271Y004407D02*
X003329Y004407D01*
X003329Y004360D02*
X003337Y004360D01*
X003409Y004371D01*
X003478Y004394D01*
X003544Y004427D01*
X003603Y004470D01*
X003655Y004522D01*
X003698Y004581D01*
X003731Y004647D01*
X003754Y004716D01*
X003765Y004788D01*
X003765Y004796D01*
X003329Y004796D01*
X003329Y004854D01*
X003271Y004854D01*
X003271Y005290D01*
X003263Y005290D01*
X003191Y005279D01*
X003122Y005256D01*
X003056Y005223D01*
X002997Y005180D01*
X002945Y005128D01*
X002902Y005069D01*
X002869Y005003D01*
X002846Y004934D01*
X002835Y004862D01*
X002835Y004854D01*
X003271Y004854D01*
X003271Y004796D01*
X003329Y004796D01*
X003329Y004360D01*
X003329Y004486D02*
X003271Y004486D01*
X003271Y004564D02*
X003329Y004564D01*
X003329Y004643D02*
X003271Y004643D01*
X003271Y004721D02*
X003329Y004721D01*
X003329Y004800D02*
X025065Y004800D01*
X024992Y004721D02*
X003754Y004721D01*
X003729Y004643D02*
X024959Y004643D01*
X024940Y004564D02*
X003685Y004564D01*
X003618Y004486D02*
X024940Y004486D01*
X024959Y004407D02*
X003504Y004407D01*
X003271Y004800D02*
X000690Y004800D01*
X000690Y004878D02*
X002838Y004878D01*
X002854Y004957D02*
X000690Y004957D01*
X000690Y005035D02*
X002885Y005035D01*
X002935Y005114D02*
X000690Y005114D01*
X000690Y005192D02*
X003014Y005192D01*
X003166Y005271D02*
X000690Y005271D01*
X000690Y005349D02*
X026110Y005349D01*
X026110Y005271D02*
X003434Y005271D01*
X003409Y005279D02*
X003337Y005290D01*
X003329Y005290D01*
X003329Y004854D01*
X003765Y004854D01*
X003765Y004862D01*
X003754Y004934D01*
X003731Y005003D01*
X003698Y005069D01*
X003655Y005128D01*
X003603Y005180D01*
X003544Y005223D01*
X003478Y005256D01*
X003409Y005279D01*
X003329Y005271D02*
X003271Y005271D01*
X003271Y005192D02*
X003329Y005192D01*
X003329Y005114D02*
X003271Y005114D01*
X003271Y005035D02*
X003329Y005035D01*
X003329Y004957D02*
X003271Y004957D01*
X003271Y004878D02*
X003329Y004878D01*
X003586Y005192D02*
X026110Y005192D01*
X026110Y005114D02*
X003665Y005114D01*
X003715Y005035D02*
X026121Y005035D01*
X026200Y004957D02*
X003746Y004957D01*
X003762Y004878D02*
X025212Y004878D01*
X025388Y004878D02*
X026278Y004878D01*
X026357Y004800D02*
X025535Y004800D01*
X025608Y004721D02*
X026435Y004721D01*
X025949Y004643D02*
X025641Y004643D01*
X025660Y004564D02*
X025870Y004564D01*
X025792Y004486D02*
X025660Y004486D01*
X025687Y004407D02*
X025713Y004407D01*
X025463Y004093D02*
X015220Y004093D01*
X015253Y004015D02*
X025542Y004015D01*
X025539Y003936D02*
X015260Y003936D01*
X015163Y004172D02*
X025213Y004172D01*
X023014Y003308D02*
X016986Y003308D01*
X017064Y003230D02*
X022936Y003230D01*
X022857Y003151D02*
X017143Y003151D01*
X017221Y003073D02*
X021198Y003073D01*
X021060Y002994D02*
X017300Y002994D01*
X017378Y002916D02*
X020989Y002916D01*
X020957Y002837D02*
X017457Y002837D01*
X017535Y002759D02*
X020940Y002759D01*
X020940Y002680D02*
X017614Y002680D01*
X017692Y002602D02*
X020908Y002602D01*
X020829Y002523D02*
X017771Y002523D01*
X017849Y002445D02*
X020751Y002445D01*
X020672Y002366D02*
X017928Y002366D01*
X018006Y002288D02*
X020594Y002288D01*
X020515Y002209D02*
X018085Y002209D01*
X018163Y002131D02*
X020437Y002131D01*
X020081Y002052D02*
X018519Y002052D01*
X018622Y001974D02*
X019978Y001974D01*
X019906Y001895D02*
X018694Y001895D01*
X018727Y001817D02*
X019873Y001817D01*
X019841Y001738D02*
X018759Y001738D01*
X018760Y001660D02*
X019840Y001660D01*
X019840Y001581D02*
X018760Y001581D01*
X018760Y001503D02*
X019840Y001503D01*
X019840Y001424D02*
X018760Y001424D01*
X018760Y001346D02*
X019840Y001346D01*
X019840Y001267D02*
X018760Y001267D01*
X018760Y001189D02*
X019840Y001189D01*
X019840Y001110D02*
X018760Y001110D01*
X018760Y001032D02*
X019840Y001032D01*
X019840Y000953D02*
X018760Y000953D01*
X018744Y000875D02*
X019856Y000875D01*
X019889Y000796D02*
X018711Y000796D01*
X018663Y000718D02*
X019937Y000718D01*
X020663Y000718D02*
X020937Y000718D01*
X020889Y000796D02*
X020711Y000796D01*
X020744Y000875D02*
X020856Y000875D01*
X020840Y000953D02*
X020760Y000953D01*
X020760Y001032D02*
X020840Y001032D01*
X020840Y001110D02*
X020760Y001110D01*
X020760Y001189D02*
X020840Y001189D01*
X020840Y001267D02*
X020760Y001267D01*
X020760Y001346D02*
X020840Y001346D01*
X020840Y001424D02*
X020760Y001424D01*
X020760Y001503D02*
X020840Y001503D01*
X020840Y001581D02*
X020760Y001581D01*
X020760Y001660D02*
X020840Y001660D01*
X020841Y001738D02*
X020759Y001738D01*
X020727Y001817D02*
X020873Y001817D01*
X020906Y001895D02*
X020739Y001895D01*
X020817Y001974D02*
X020978Y001974D01*
X020896Y002052D02*
X021081Y002052D01*
X020974Y002131D02*
X021437Y002131D01*
X021515Y002209D02*
X021053Y002209D01*
X021131Y002288D02*
X021594Y002288D01*
X021672Y002366D02*
X021374Y002366D01*
X021226Y002366D02*
X021210Y002366D01*
X021529Y002445D02*
X021751Y002445D01*
X021606Y002523D02*
X022229Y002523D01*
X022308Y002602D02*
X021639Y002602D01*
X021660Y002680D02*
X022386Y002680D01*
X022465Y002759D02*
X021660Y002759D01*
X021643Y002837D02*
X022543Y002837D01*
X022622Y002916D02*
X021611Y002916D01*
X021540Y002994D02*
X022700Y002994D01*
X022779Y003073D02*
X021402Y003073D01*
X017840Y001267D02*
X017760Y001267D01*
X017760Y001189D02*
X017840Y001189D01*
X017840Y001110D02*
X017760Y001110D01*
X017760Y001032D02*
X017840Y001032D01*
X017840Y000953D02*
X017757Y000953D01*
X017741Y000875D02*
X017856Y000875D01*
X017889Y000796D02*
X017710Y000796D01*
X017660Y000718D02*
X017937Y000718D01*
X014840Y001346D02*
X014760Y001346D01*
X014760Y001424D02*
X014840Y001424D01*
X014840Y001503D02*
X014760Y001503D01*
X014760Y001581D02*
X014840Y001581D01*
X014840Y001660D02*
X014760Y001660D01*
X014759Y001738D02*
X014841Y001738D01*
X014873Y001817D02*
X014727Y001817D01*
X014694Y001895D02*
X014906Y001895D01*
X014978Y001974D02*
X014622Y001974D01*
X007010Y005564D02*
X006881Y005435D01*
X006711Y005365D01*
X005888Y005365D01*
X005719Y005435D01*
X005590Y005564D01*
X005532Y005705D01*
X003765Y005705D01*
X003765Y005442D01*
X003683Y005360D01*
X002917Y005360D01*
X002835Y005442D01*
X002835Y006208D01*
X002917Y006290D01*
X002984Y006290D01*
X002160Y007114D01*
X002160Y007594D01*
X000720Y009034D01*
X000720Y015136D01*
X000849Y015265D01*
X001316Y015732D01*
X001290Y015794D01*
X001290Y015996D01*
X001368Y016184D01*
X001511Y016327D01*
X001699Y016405D01*
X001901Y016405D01*
X002089Y016327D01*
X002232Y016184D01*
X002310Y015996D01*
X002310Y015794D01*
X002232Y015606D01*
X002089Y015463D01*
X001901Y015385D01*
X001699Y015385D01*
X001623Y015416D01*
X001160Y014954D01*
X001160Y009216D01*
X002471Y007905D01*
X002600Y007776D01*
X002600Y007296D01*
X003606Y006290D01*
X003683Y006290D01*
X003765Y006208D01*
X003765Y006145D01*
X005649Y006145D01*
X005719Y006215D01*
X005888Y006285D01*
X006711Y006285D01*
X006881Y006215D01*
X007010Y006086D01*
X007080Y005916D01*
X007080Y005733D01*
X007010Y005564D01*
X007018Y005585D02*
X026110Y005585D01*
X026110Y005663D02*
X007051Y005663D01*
X007080Y005742D02*
X026110Y005742D01*
X026110Y005820D02*
X007080Y005820D01*
X007080Y005899D02*
X026110Y005899D01*
X026110Y005977D02*
X007055Y005977D01*
X007022Y006056D02*
X026110Y006056D01*
X026110Y006134D02*
X006962Y006134D01*
X006883Y006213D02*
X026110Y006213D01*
X026110Y006291D02*
X003605Y006291D01*
X003527Y006370D02*
X005878Y006370D01*
X005888Y006365D02*
X005719Y006435D01*
X005590Y006564D01*
X005520Y006733D01*
X005520Y006794D01*
X003765Y008549D01*
X003765Y008442D01*
X003683Y008360D01*
X002917Y008360D01*
X002835Y008442D01*
X002835Y009079D01*
X002809Y009105D01*
X002680Y009234D01*
X002680Y019816D01*
X002684Y019820D01*
X002668Y019836D01*
X002600Y019999D01*
X002532Y019836D01*
X002389Y019693D01*
X002201Y019615D01*
X001999Y019615D01*
X001811Y019693D01*
X001668Y019836D01*
X001590Y020024D01*
X001590Y020226D01*
X001668Y020414D01*
X001811Y020557D01*
X001999Y020635D01*
X002201Y020635D01*
X002389Y020557D01*
X002532Y020414D01*
X002600Y020251D01*
X002668Y020414D01*
X002811Y020557D01*
X002999Y020635D01*
X003201Y020635D01*
X003389Y020557D01*
X003532Y020414D01*
X003600Y020251D01*
X003668Y020414D01*
X003811Y020557D01*
X003999Y020635D01*
X004201Y020635D01*
X004389Y020557D01*
X004532Y020414D01*
X004610Y020226D01*
X004610Y020024D01*
X004532Y019836D01*
X004389Y019693D01*
X004201Y019615D01*
X003999Y019615D01*
X003811Y019693D01*
X003668Y019836D01*
X003600Y019999D01*
X003532Y019836D01*
X003389Y019693D01*
X003201Y019615D01*
X003120Y019615D01*
X003120Y009416D01*
X003246Y009290D01*
X003683Y009290D01*
X003765Y009208D01*
X003765Y009171D01*
X003880Y009056D01*
X005721Y007215D01*
X005888Y007285D01*
X006711Y007285D01*
X006881Y007215D01*
X007010Y007086D01*
X007080Y006916D01*
X007080Y006733D01*
X007010Y006564D01*
X006881Y006435D01*
X006711Y006365D01*
X005888Y006365D01*
X005706Y006448D02*
X003448Y006448D01*
X003370Y006527D02*
X005628Y006527D01*
X005573Y006605D02*
X003291Y006605D01*
X003213Y006684D02*
X005541Y006684D01*
X005520Y006762D02*
X003134Y006762D01*
X003056Y006841D02*
X005473Y006841D01*
X005395Y006919D02*
X002977Y006919D01*
X002899Y006998D02*
X005316Y006998D01*
X005238Y007076D02*
X002820Y007076D01*
X002742Y007155D02*
X005159Y007155D01*
X005081Y007233D02*
X002663Y007233D01*
X002600Y007312D02*
X005002Y007312D01*
X004924Y007390D02*
X003466Y007390D01*
X003478Y007394D02*
X003544Y007427D01*
X003603Y007470D01*
X003655Y007522D01*
X003698Y007581D01*
X003731Y007647D01*
X003754Y007716D01*
X003765Y007788D01*
X003765Y007796D01*
X003329Y007796D01*
X003329Y007854D01*
X003271Y007854D01*
X003271Y008290D01*
X003263Y008290D01*
X003191Y008279D01*
X003122Y008256D01*
X003056Y008223D01*
X002997Y008180D01*
X002945Y008128D01*
X002902Y008069D01*
X002869Y008003D01*
X002846Y007934D01*
X002835Y007862D01*
X002835Y007854D01*
X003271Y007854D01*
X003271Y007796D01*
X002835Y007796D01*
X002835Y007788D01*
X002846Y007716D01*
X002869Y007647D01*
X002902Y007581D01*
X002945Y007522D01*
X002997Y007470D01*
X003056Y007427D01*
X003122Y007394D01*
X003191Y007371D01*
X003263Y007360D01*
X003271Y007360D01*
X003271Y007796D01*
X003329Y007796D01*
X003329Y007360D01*
X003337Y007360D01*
X003409Y007371D01*
X003478Y007394D01*
X003600Y007469D02*
X004845Y007469D01*
X004767Y007547D02*
X003673Y007547D01*
X003720Y007626D02*
X004688Y007626D01*
X004610Y007704D02*
X003750Y007704D01*
X003764Y007783D02*
X004531Y007783D01*
X004453Y007861D02*
X003765Y007861D01*
X003765Y007862D02*
X003754Y007934D01*
X003731Y008003D01*
X003698Y008069D01*
X003655Y008128D01*
X003603Y008180D01*
X003544Y008223D01*
X003478Y008256D01*
X003409Y008279D01*
X003337Y008290D01*
X003329Y008290D01*
X003329Y007854D01*
X003765Y007854D01*
X003765Y007862D01*
X003752Y007940D02*
X004374Y007940D01*
X004296Y008018D02*
X003724Y008018D01*
X003677Y008097D02*
X004217Y008097D01*
X004139Y008175D02*
X003608Y008175D01*
X003483Y008254D02*
X004060Y008254D01*
X003982Y008332D02*
X002044Y008332D01*
X001966Y008411D02*
X002866Y008411D01*
X002835Y008489D02*
X001887Y008489D01*
X001809Y008568D02*
X002835Y008568D01*
X002835Y008646D02*
X001730Y008646D01*
X001652Y008725D02*
X002835Y008725D01*
X002835Y008803D02*
X001573Y008803D01*
X001495Y008882D02*
X002835Y008882D01*
X002835Y008960D02*
X001416Y008960D01*
X001338Y009039D02*
X002835Y009039D01*
X002797Y009117D02*
X001259Y009117D01*
X001181Y009196D02*
X002718Y009196D01*
X002680Y009274D02*
X001160Y009274D01*
X001160Y009353D02*
X002680Y009353D01*
X002680Y009431D02*
X001160Y009431D01*
X001160Y009510D02*
X002680Y009510D01*
X002680Y009588D02*
X001160Y009588D01*
X001160Y009667D02*
X002680Y009667D01*
X002680Y009745D02*
X001160Y009745D01*
X001160Y009824D02*
X002680Y009824D01*
X002680Y009902D02*
X001160Y009902D01*
X001160Y009981D02*
X002680Y009981D01*
X002680Y010059D02*
X001160Y010059D01*
X001160Y010138D02*
X002680Y010138D01*
X002680Y010216D02*
X001160Y010216D01*
X001160Y010295D02*
X002680Y010295D01*
X002680Y010373D02*
X001160Y010373D01*
X001160Y010452D02*
X002680Y010452D01*
X002680Y010530D02*
X001160Y010530D01*
X001160Y010609D02*
X002680Y010609D01*
X002680Y010687D02*
X001160Y010687D01*
X001160Y010766D02*
X002680Y010766D01*
X002680Y010844D02*
X001160Y010844D01*
X001160Y010923D02*
X002680Y010923D01*
X002680Y011001D02*
X001160Y011001D01*
X001160Y011080D02*
X002680Y011080D01*
X002680Y011158D02*
X001160Y011158D01*
X001160Y011237D02*
X002680Y011237D01*
X002680Y011315D02*
X001160Y011315D01*
X001160Y011394D02*
X002680Y011394D01*
X002680Y011472D02*
X001160Y011472D01*
X001160Y011551D02*
X002680Y011551D01*
X002680Y011629D02*
X001160Y011629D01*
X001160Y011708D02*
X002680Y011708D01*
X002680Y011786D02*
X001160Y011786D01*
X001160Y011865D02*
X002680Y011865D01*
X002680Y011943D02*
X001160Y011943D01*
X001160Y012022D02*
X002680Y012022D01*
X002680Y012100D02*
X001160Y012100D01*
X001160Y012179D02*
X002680Y012179D01*
X002680Y012257D02*
X001160Y012257D01*
X001160Y012336D02*
X002680Y012336D01*
X002680Y012414D02*
X001160Y012414D01*
X001160Y012493D02*
X002680Y012493D01*
X002680Y012571D02*
X001160Y012571D01*
X001160Y012650D02*
X002680Y012650D01*
X002680Y012728D02*
X001160Y012728D01*
X001160Y012807D02*
X002680Y012807D01*
X002680Y012885D02*
X001160Y012885D01*
X001160Y012964D02*
X002680Y012964D01*
X002680Y013042D02*
X001160Y013042D01*
X001160Y013121D02*
X002680Y013121D01*
X002680Y013199D02*
X001160Y013199D01*
X001160Y013278D02*
X002680Y013278D01*
X002680Y013356D02*
X001160Y013356D01*
X001160Y013435D02*
X002680Y013435D01*
X002680Y013513D02*
X001160Y013513D01*
X001160Y013592D02*
X002680Y013592D01*
X002680Y013670D02*
X001160Y013670D01*
X001160Y013749D02*
X002680Y013749D01*
X002680Y013827D02*
X001160Y013827D01*
X001160Y013906D02*
X002680Y013906D01*
X002680Y013984D02*
X001160Y013984D01*
X001160Y014063D02*
X002680Y014063D01*
X002680Y014141D02*
X001160Y014141D01*
X001160Y014220D02*
X002680Y014220D01*
X002680Y014298D02*
X002027Y014298D01*
X001996Y014282D02*
X002067Y014319D01*
X002132Y014366D01*
X002189Y014423D01*
X002236Y014488D01*
X002273Y014559D01*
X002297Y014636D01*
X002310Y014715D01*
X001840Y014715D01*
X001840Y014795D01*
X002310Y014795D01*
X002310Y014795D01*
X002297Y014874D01*
X002273Y014951D01*
X002236Y015022D01*
X002189Y015087D01*
X002132Y015144D01*
X002067Y015191D01*
X001996Y015228D01*
X001919Y015252D01*
X001840Y015265D01*
X001840Y015265D01*
X001840Y014795D01*
X001760Y014795D01*
X001760Y015265D01*
X001760Y015265D01*
X001681Y015252D01*
X001604Y015228D01*
X001533Y015191D01*
X001468Y015144D01*
X001411Y015087D01*
X001364Y015022D01*
X001327Y014951D01*
X001303Y014874D01*
X001290Y014795D01*
X001760Y014795D01*
X001760Y014715D01*
X001840Y014715D01*
X001840Y014245D01*
X001840Y014245D01*
X001919Y014258D01*
X001996Y014282D01*
X001840Y014298D02*
X001760Y014298D01*
X001760Y014245D02*
X001760Y014715D01*
X001290Y014715D01*
X001290Y014715D01*
X001303Y014636D01*
X001327Y014559D01*
X001364Y014488D01*
X001411Y014423D01*
X001468Y014366D01*
X001533Y014319D01*
X001604Y014282D01*
X001681Y014258D01*
X001760Y014245D01*
X001760Y014245D01*
X001760Y014377D02*
X001840Y014377D01*
X001840Y014455D02*
X001760Y014455D01*
X001760Y014534D02*
X001840Y014534D01*
X001840Y014612D02*
X001760Y014612D01*
X001760Y014691D02*
X001840Y014691D01*
X001840Y014769D02*
X002680Y014769D01*
X002680Y014691D02*
X002306Y014691D01*
X002310Y014715D02*
X002310Y014715D01*
X002290Y014612D02*
X002680Y014612D01*
X002680Y014534D02*
X002260Y014534D01*
X002212Y014455D02*
X002680Y014455D01*
X002680Y014377D02*
X002143Y014377D01*
X002302Y014848D02*
X002680Y014848D01*
X002680Y014926D02*
X002281Y014926D01*
X002245Y015005D02*
X002680Y015005D01*
X002680Y015083D02*
X002192Y015083D01*
X002108Y015162D02*
X002680Y015162D01*
X002680Y015240D02*
X001958Y015240D01*
X001840Y015240D02*
X001760Y015240D01*
X001760Y015162D02*
X001840Y015162D01*
X001840Y015083D02*
X001760Y015083D01*
X001760Y015005D02*
X001840Y015005D01*
X001840Y014926D02*
X001760Y014926D01*
X001760Y014848D02*
X001840Y014848D01*
X001760Y014769D02*
X001160Y014769D01*
X001160Y014691D02*
X001294Y014691D01*
X001310Y014612D02*
X001160Y014612D01*
X001160Y014534D02*
X001340Y014534D01*
X001388Y014455D02*
X001160Y014455D01*
X001160Y014377D02*
X001457Y014377D01*
X001573Y014298D02*
X001160Y014298D01*
X000720Y014298D02*
X000690Y014298D01*
X000690Y014220D02*
X000720Y014220D01*
X000720Y014141D02*
X000690Y014141D01*
X000690Y014063D02*
X000720Y014063D01*
X000720Y013984D02*
X000690Y013984D01*
X000690Y013906D02*
X000720Y013906D01*
X000720Y013827D02*
X000690Y013827D01*
X000690Y013749D02*
X000720Y013749D01*
X000720Y013670D02*
X000690Y013670D01*
X000690Y013592D02*
X000720Y013592D01*
X000720Y013513D02*
X000690Y013513D01*
X000690Y013435D02*
X000720Y013435D01*
X000720Y013356D02*
X000690Y013356D01*
X000690Y013278D02*
X000720Y013278D01*
X000720Y013199D02*
X000690Y013199D01*
X000690Y013121D02*
X000720Y013121D01*
X000720Y013042D02*
X000690Y013042D01*
X000690Y012964D02*
X000720Y012964D01*
X000720Y012885D02*
X000690Y012885D01*
X000690Y012807D02*
X000720Y012807D01*
X000720Y012728D02*
X000690Y012728D01*
X000690Y012650D02*
X000720Y012650D01*
X000720Y012571D02*
X000690Y012571D01*
X000690Y012493D02*
X000720Y012493D01*
X000720Y012414D02*
X000690Y012414D01*
X000690Y012336D02*
X000720Y012336D01*
X000720Y012257D02*
X000690Y012257D01*
X000690Y012179D02*
X000720Y012179D01*
X000720Y012100D02*
X000690Y012100D01*
X000690Y012022D02*
X000720Y012022D01*
X000720Y011943D02*
X000690Y011943D01*
X000690Y011865D02*
X000720Y011865D01*
X000720Y011786D02*
X000690Y011786D01*
X000690Y011708D02*
X000720Y011708D01*
X000720Y011629D02*
X000690Y011629D01*
X000690Y011551D02*
X000720Y011551D01*
X000720Y011472D02*
X000690Y011472D01*
X000690Y011394D02*
X000720Y011394D01*
X000720Y011315D02*
X000690Y011315D01*
X000690Y011237D02*
X000720Y011237D01*
X000720Y011158D02*
X000690Y011158D01*
X000690Y011080D02*
X000720Y011080D01*
X000720Y011001D02*
X000690Y011001D01*
X000690Y010923D02*
X000720Y010923D01*
X000720Y010844D02*
X000690Y010844D01*
X000690Y010766D02*
X000720Y010766D01*
X000720Y010687D02*
X000690Y010687D01*
X000690Y010609D02*
X000720Y010609D01*
X000720Y010530D02*
X000690Y010530D01*
X000690Y010452D02*
X000720Y010452D01*
X000720Y010373D02*
X000690Y010373D01*
X000690Y010295D02*
X000720Y010295D01*
X000720Y010216D02*
X000690Y010216D01*
X000690Y010138D02*
X000720Y010138D01*
X000720Y010059D02*
X000690Y010059D01*
X000690Y009981D02*
X000720Y009981D01*
X000720Y009902D02*
X000690Y009902D01*
X000690Y009824D02*
X000720Y009824D01*
X000720Y009745D02*
X000690Y009745D01*
X000690Y009667D02*
X000720Y009667D01*
X000720Y009588D02*
X000690Y009588D01*
X000690Y009510D02*
X000720Y009510D01*
X000720Y009431D02*
X000690Y009431D01*
X000690Y009353D02*
X000720Y009353D01*
X000720Y009274D02*
X000690Y009274D01*
X000690Y009196D02*
X000720Y009196D01*
X000720Y009117D02*
X000690Y009117D01*
X000690Y009039D02*
X000720Y009039D01*
X000690Y008960D02*
X000794Y008960D01*
X000872Y008882D02*
X000690Y008882D01*
X000690Y008803D02*
X000951Y008803D01*
X001029Y008725D02*
X000690Y008725D01*
X000690Y008646D02*
X001108Y008646D01*
X001186Y008568D02*
X000690Y008568D01*
X000690Y008489D02*
X001265Y008489D01*
X001343Y008411D02*
X000690Y008411D01*
X000690Y008332D02*
X001422Y008332D01*
X001500Y008254D02*
X000690Y008254D01*
X000690Y008175D02*
X001579Y008175D01*
X001657Y008097D02*
X000690Y008097D01*
X000690Y008018D02*
X001736Y008018D01*
X001814Y007940D02*
X000690Y007940D01*
X000690Y007861D02*
X001893Y007861D01*
X001971Y007783D02*
X000690Y007783D01*
X000690Y007704D02*
X002050Y007704D01*
X002128Y007626D02*
X000690Y007626D01*
X000690Y007547D02*
X002160Y007547D01*
X002160Y007469D02*
X000690Y007469D01*
X000690Y007390D02*
X002160Y007390D01*
X002160Y007312D02*
X000690Y007312D01*
X000690Y007233D02*
X002160Y007233D01*
X002160Y007155D02*
X000690Y007155D01*
X000690Y007076D02*
X002198Y007076D01*
X002276Y006998D02*
X000690Y006998D01*
X000690Y006919D02*
X002355Y006919D01*
X002433Y006841D02*
X000690Y006841D01*
X000690Y006762D02*
X002512Y006762D01*
X002590Y006684D02*
X000690Y006684D01*
X000690Y006605D02*
X002669Y006605D01*
X002747Y006527D02*
X000690Y006527D01*
X000690Y006448D02*
X002826Y006448D01*
X002904Y006370D02*
X000690Y006370D01*
X000690Y006291D02*
X002983Y006291D01*
X002840Y006213D02*
X000690Y006213D01*
X000690Y006134D02*
X002835Y006134D01*
X002835Y006056D02*
X000690Y006056D01*
X000690Y005977D02*
X002835Y005977D01*
X002835Y005899D02*
X000690Y005899D01*
X000690Y005820D02*
X002835Y005820D01*
X002835Y005742D02*
X000690Y005742D01*
X000690Y005663D02*
X002835Y005663D01*
X002835Y005585D02*
X000690Y005585D01*
X000690Y005506D02*
X002835Y005506D01*
X002849Y005428D02*
X000690Y005428D01*
X000690Y004721D02*
X002846Y004721D01*
X002871Y004643D02*
X000690Y004643D01*
X000690Y004564D02*
X002915Y004564D01*
X002982Y004486D02*
X000690Y004486D01*
X003751Y005428D02*
X005738Y005428D01*
X005648Y005506D02*
X003765Y005506D01*
X003765Y005585D02*
X005582Y005585D01*
X005549Y005663D02*
X003765Y005663D01*
X003760Y006213D02*
X005717Y006213D01*
X006722Y006370D02*
X026110Y006370D01*
X026110Y006448D02*
X006894Y006448D01*
X006972Y006527D02*
X026110Y006527D01*
X026110Y006605D02*
X007027Y006605D01*
X007059Y006684D02*
X026110Y006684D01*
X026110Y006762D02*
X007080Y006762D01*
X007080Y006841D02*
X026147Y006841D01*
X026225Y006919D02*
X007079Y006919D01*
X007046Y006998D02*
X026304Y006998D01*
X026340Y007076D02*
X007014Y007076D01*
X006941Y007155D02*
X026340Y007155D01*
X026355Y007233D02*
X006837Y007233D01*
X006797Y007399D02*
X006728Y007376D01*
X006656Y007365D01*
X006340Y007365D01*
X006340Y007785D01*
X006340Y007865D01*
X006260Y007865D01*
X006260Y008285D01*
X005944Y008285D01*
X005872Y008274D01*
X005803Y008251D01*
X005739Y008218D01*
X005680Y008176D01*
X005629Y008125D01*
X005587Y008066D01*
X005554Y008002D01*
X005531Y007933D01*
X005521Y007865D01*
X006260Y007865D01*
X006260Y007785D01*
X006340Y007785D01*
X007079Y007785D01*
X007069Y007717D01*
X007046Y007648D01*
X007013Y007584D01*
X006971Y007525D01*
X006920Y007474D01*
X006861Y007432D01*
X006797Y007399D01*
X006770Y007390D02*
X026456Y007390D01*
X026388Y007312D02*
X005625Y007312D01*
X005546Y007390D02*
X005830Y007390D01*
X005803Y007399D02*
X005872Y007376D01*
X005944Y007365D01*
X006260Y007365D01*
X006260Y007785D01*
X005521Y007785D01*
X005531Y007717D01*
X005554Y007648D01*
X005587Y007584D01*
X005629Y007525D01*
X005680Y007474D01*
X005739Y007432D01*
X005803Y007399D01*
X005688Y007469D02*
X005468Y007469D01*
X005389Y007547D02*
X005613Y007547D01*
X005565Y007626D02*
X005311Y007626D01*
X005232Y007704D02*
X005536Y007704D01*
X005521Y007783D02*
X005154Y007783D01*
X005075Y007861D02*
X006260Y007861D01*
X006260Y007783D02*
X006340Y007783D01*
X006340Y007861D02*
X027050Y007861D01*
X027050Y007783D02*
X007079Y007783D01*
X007064Y007704D02*
X027050Y007704D01*
X027050Y007626D02*
X007035Y007626D01*
X006987Y007547D02*
X027050Y007547D01*
X027050Y007469D02*
X026811Y007469D01*
X026944Y007390D02*
X027050Y007390D01*
X027050Y007312D02*
X027012Y007312D01*
X027045Y007233D02*
X027050Y007233D01*
X026589Y007469D02*
X006912Y007469D01*
X007079Y007865D02*
X006340Y007865D01*
X006340Y008285D01*
X006656Y008285D01*
X006728Y008274D01*
X006797Y008251D01*
X006861Y008218D01*
X006920Y008176D01*
X006971Y008125D01*
X007013Y008066D01*
X007046Y008002D01*
X007069Y007933D01*
X007079Y007865D01*
X007066Y007940D02*
X027050Y007940D01*
X027050Y008018D02*
X007038Y008018D01*
X006991Y008097D02*
X027050Y008097D01*
X027050Y008175D02*
X006921Y008175D01*
X006790Y008254D02*
X027050Y008254D01*
X027050Y008332D02*
X004604Y008332D01*
X004526Y008411D02*
X027050Y008411D01*
X027050Y008489D02*
X004447Y008489D01*
X004369Y008568D02*
X027050Y008568D01*
X027050Y008646D02*
X004290Y008646D01*
X004212Y008725D02*
X027050Y008725D01*
X027050Y008803D02*
X004133Y008803D01*
X004055Y008882D02*
X027050Y008882D01*
X027050Y008960D02*
X003976Y008960D01*
X003898Y009039D02*
X027050Y009039D01*
X027050Y009117D02*
X003819Y009117D01*
X003765Y009196D02*
X027050Y009196D01*
X027050Y009274D02*
X003699Y009274D01*
X003184Y009353D02*
X027050Y009353D01*
X027050Y009431D02*
X003120Y009431D01*
X003120Y009510D02*
X027050Y009510D01*
X027050Y009588D02*
X003120Y009588D01*
X003120Y009667D02*
X027050Y009667D01*
X027050Y009745D02*
X003120Y009745D01*
X003120Y009824D02*
X027050Y009824D01*
X027050Y009902D02*
X003120Y009902D01*
X003120Y009981D02*
X027050Y009981D01*
X027050Y010059D02*
X003120Y010059D01*
X003120Y010138D02*
X027050Y010138D01*
X027050Y010216D02*
X003120Y010216D01*
X003120Y010295D02*
X027050Y010295D01*
X027050Y010373D02*
X003120Y010373D01*
X003120Y010452D02*
X027050Y010452D01*
X027050Y010530D02*
X003120Y010530D01*
X003120Y010609D02*
X027050Y010609D01*
X027050Y010687D02*
X003120Y010687D01*
X003120Y010766D02*
X026991Y010766D01*
X026912Y010844D02*
X003120Y010844D01*
X003120Y010923D02*
X026834Y010923D01*
X026755Y011001D02*
X003120Y011001D01*
X003120Y011080D02*
X026677Y011080D01*
X025798Y011158D02*
X003120Y011158D01*
X003120Y011237D02*
X025720Y011237D01*
X025641Y011315D02*
X003120Y011315D01*
X003120Y011394D02*
X025563Y011394D01*
X025484Y011472D02*
X003120Y011472D01*
X003120Y011551D02*
X025406Y011551D01*
X025327Y011629D02*
X003120Y011629D01*
X003120Y011708D02*
X025249Y011708D01*
X025170Y011786D02*
X003120Y011786D01*
X003120Y011865D02*
X025092Y011865D01*
X025013Y011943D02*
X003120Y011943D01*
X003120Y012022D02*
X024935Y012022D01*
X024856Y012100D02*
X003120Y012100D01*
X003120Y012179D02*
X024778Y012179D01*
X024699Y012257D02*
X003120Y012257D01*
X003120Y012336D02*
X024621Y012336D01*
X024542Y012414D02*
X003120Y012414D01*
X003120Y012493D02*
X024464Y012493D01*
X024385Y012571D02*
X003120Y012571D01*
X003120Y012650D02*
X024307Y012650D01*
X024228Y012728D02*
X003120Y012728D01*
X003120Y012807D02*
X024150Y012807D01*
X024071Y012885D02*
X003120Y012885D01*
X003120Y012964D02*
X023993Y012964D01*
X023914Y013042D02*
X003120Y013042D01*
X003120Y013121D02*
X023836Y013121D01*
X023757Y013199D02*
X003120Y013199D01*
X003120Y013278D02*
X023679Y013278D01*
X023600Y013356D02*
X003120Y013356D01*
X003120Y013435D02*
X023522Y013435D01*
X023443Y013513D02*
X003120Y013513D01*
X003120Y013592D02*
X023365Y013592D01*
X023286Y013670D02*
X003120Y013670D01*
X003120Y013749D02*
X023208Y013749D01*
X023129Y013827D02*
X003120Y013827D01*
X003120Y013906D02*
X023051Y013906D01*
X022972Y013984D02*
X003120Y013984D01*
X003120Y014063D02*
X022894Y014063D01*
X022815Y014141D02*
X003120Y014141D01*
X003120Y014220D02*
X022737Y014220D01*
X022658Y014298D02*
X003120Y014298D01*
X003120Y014377D02*
X022580Y014377D01*
X022501Y014455D02*
X003120Y014455D01*
X003120Y014534D02*
X004165Y014534D01*
X004139Y014542D02*
X004202Y014522D01*
X004261Y014512D01*
X004261Y014893D01*
X003881Y014893D01*
X003890Y014833D01*
X003911Y014770D01*
X003941Y014711D01*
X003980Y014658D01*
X004026Y014611D01*
X004080Y014572D01*
X004139Y014542D01*
X004261Y014534D02*
X004339Y014534D01*
X004339Y014512D02*
X004398Y014522D01*
X004461Y014542D01*
X004520Y014572D01*
X004574Y014611D01*
X004620Y014658D01*
X004659Y014711D01*
X004689Y014770D01*
X004710Y014833D01*
X004719Y014893D01*
X004339Y014893D01*
X004339Y014970D01*
X004719Y014970D01*
X004710Y015030D01*
X004689Y015093D01*
X004659Y015151D01*
X004620Y015205D01*
X004574Y015252D01*
X004520Y015291D01*
X004461Y015321D01*
X004447Y015325D01*
X004538Y015363D01*
X004656Y015481D01*
X004720Y015635D01*
X004720Y015802D01*
X004656Y015957D01*
X004538Y016075D01*
X004384Y016139D01*
X004216Y016139D01*
X004062Y016075D01*
X003944Y015957D01*
X003880Y015802D01*
X003880Y015635D01*
X003944Y015481D01*
X004062Y015363D01*
X004153Y015325D01*
X004139Y015321D01*
X004080Y015291D01*
X004026Y015252D01*
X003980Y015205D01*
X003941Y015151D01*
X003911Y015093D01*
X003890Y015030D01*
X003881Y014970D01*
X004261Y014970D01*
X004261Y014893D01*
X004339Y014893D01*
X004339Y014512D01*
X004435Y014534D02*
X022423Y014534D01*
X022344Y014612D02*
X004575Y014612D01*
X004644Y014691D02*
X022266Y014691D01*
X022187Y014769D02*
X004689Y014769D01*
X004712Y014848D02*
X022109Y014848D01*
X022030Y014926D02*
X004339Y014926D01*
X004261Y014926D02*
X003120Y014926D01*
X003120Y014848D02*
X003888Y014848D01*
X003911Y014769D02*
X003120Y014769D01*
X003120Y014691D02*
X003956Y014691D01*
X004025Y014612D02*
X003120Y014612D01*
X003120Y015005D02*
X003886Y015005D01*
X003908Y015083D02*
X003120Y015083D01*
X003120Y015162D02*
X003948Y015162D01*
X004015Y015240D02*
X003120Y015240D01*
X003120Y015319D02*
X004135Y015319D01*
X004028Y015397D02*
X003120Y015397D01*
X003120Y015476D02*
X003949Y015476D01*
X003914Y015554D02*
X003120Y015554D01*
X003120Y015633D02*
X003881Y015633D01*
X003880Y015711D02*
X003120Y015711D01*
X003120Y015790D02*
X003880Y015790D01*
X003907Y015868D02*
X003120Y015868D01*
X003120Y015947D02*
X003940Y015947D01*
X004012Y016025D02*
X003120Y016025D01*
X003120Y016104D02*
X004132Y016104D01*
X004468Y016104D02*
X020853Y016104D01*
X020774Y016182D02*
X003120Y016182D01*
X003120Y016261D02*
X020696Y016261D01*
X020617Y016339D02*
X003120Y016339D01*
X003120Y016418D02*
X020539Y016418D01*
X020460Y016496D02*
X003120Y016496D01*
X003120Y016575D02*
X020382Y016575D01*
X020303Y016653D02*
X003120Y016653D01*
X003120Y016732D02*
X020225Y016732D01*
X020146Y016810D02*
X003120Y016810D01*
X003120Y016889D02*
X020068Y016889D01*
X019989Y016967D02*
X003120Y016967D01*
X003120Y017046D02*
X019911Y017046D01*
X019832Y017124D02*
X003120Y017124D01*
X003120Y017203D02*
X019754Y017203D01*
X019675Y017281D02*
X003120Y017281D01*
X003120Y017360D02*
X019597Y017360D01*
X019518Y017438D02*
X003120Y017438D01*
X003120Y017517D02*
X019440Y017517D01*
X019361Y017595D02*
X003120Y017595D01*
X003120Y017674D02*
X019283Y017674D01*
X019204Y017752D02*
X003120Y017752D01*
X003120Y017831D02*
X019126Y017831D01*
X019047Y017909D02*
X003120Y017909D01*
X003120Y017988D02*
X018969Y017988D01*
X018890Y018066D02*
X003120Y018066D01*
X003120Y018145D02*
X018812Y018145D01*
X018733Y018223D02*
X003120Y018223D01*
X003120Y018302D02*
X018655Y018302D01*
X018576Y018380D02*
X003120Y018380D01*
X003120Y018459D02*
X018498Y018459D01*
X018419Y018537D02*
X003120Y018537D01*
X003120Y018616D02*
X014706Y018616D01*
X014622Y018694D02*
X003120Y018694D01*
X003120Y018773D02*
X014573Y018773D01*
X014541Y018851D02*
X003120Y018851D01*
X003120Y018930D02*
X014540Y018930D01*
X014545Y019008D02*
X003120Y019008D01*
X003120Y019087D02*
X014577Y019087D01*
X014631Y019165D02*
X003120Y019165D01*
X003120Y019244D02*
X014710Y019244D01*
X014710Y019322D02*
X003120Y019322D01*
X003120Y019401D02*
X005997Y019401D01*
X005808Y019479D02*
X003120Y019479D01*
X003120Y019558D02*
X005696Y019558D01*
X005617Y019636D02*
X004252Y019636D01*
X004411Y019715D02*
X005539Y019715D01*
X005470Y019793D02*
X004489Y019793D01*
X004547Y019872D02*
X005438Y019872D01*
X005405Y019950D02*
X004580Y019950D01*
X004610Y020029D02*
X005373Y020029D01*
X005340Y020107D02*
X004610Y020107D01*
X004610Y020186D02*
X005330Y020186D01*
X005330Y020264D02*
X004594Y020264D01*
X004562Y020343D02*
X005330Y020343D01*
X005330Y020421D02*
X004525Y020421D01*
X004447Y020500D02*
X005330Y020500D01*
X005355Y020578D02*
X004339Y020578D01*
X003861Y020578D02*
X003339Y020578D01*
X003447Y020500D02*
X003753Y020500D01*
X003675Y020421D02*
X003525Y020421D01*
X003562Y020343D02*
X003638Y020343D01*
X003606Y020264D02*
X003594Y020264D01*
X003580Y019950D02*
X003620Y019950D01*
X003653Y019872D02*
X003547Y019872D01*
X003489Y019793D02*
X003711Y019793D01*
X003789Y019715D02*
X003411Y019715D01*
X003252Y019636D02*
X003948Y019636D01*
X002680Y019636D02*
X002252Y019636D01*
X002411Y019715D02*
X002680Y019715D01*
X002680Y019793D02*
X002489Y019793D01*
X002547Y019872D02*
X002653Y019872D01*
X002620Y019950D02*
X002580Y019950D01*
X002680Y019558D02*
X000690Y019558D01*
X000690Y019636D02*
X001948Y019636D01*
X001789Y019715D02*
X000690Y019715D01*
X000690Y019793D02*
X001711Y019793D01*
X001653Y019872D02*
X000690Y019872D01*
X000690Y019950D02*
X001620Y019950D01*
X001590Y020029D02*
X000690Y020029D01*
X000690Y020107D02*
X001590Y020107D01*
X001590Y020186D02*
X000690Y020186D01*
X000690Y020264D02*
X001606Y020264D01*
X001638Y020343D02*
X000690Y020343D01*
X000690Y020421D02*
X001675Y020421D01*
X001753Y020500D02*
X000690Y020500D01*
X000690Y020578D02*
X001861Y020578D01*
X002339Y020578D02*
X002861Y020578D01*
X002753Y020500D02*
X002447Y020500D01*
X002525Y020421D02*
X002675Y020421D01*
X002638Y020343D02*
X002562Y020343D01*
X002594Y020264D02*
X002606Y020264D01*
X002680Y019479D02*
X000690Y019479D01*
X000690Y019401D02*
X002680Y019401D01*
X002680Y019322D02*
X000690Y019322D01*
X000690Y019244D02*
X002680Y019244D01*
X002680Y019165D02*
X000690Y019165D01*
X000690Y019087D02*
X002680Y019087D01*
X002680Y019008D02*
X000690Y019008D01*
X000690Y018930D02*
X002680Y018930D01*
X002680Y018851D02*
X000690Y018851D01*
X000690Y018773D02*
X002680Y018773D01*
X002680Y018694D02*
X000690Y018694D01*
X000690Y018616D02*
X002680Y018616D01*
X002680Y018537D02*
X000690Y018537D01*
X000690Y018459D02*
X002680Y018459D01*
X002680Y018380D02*
X000690Y018380D01*
X000690Y018302D02*
X002680Y018302D01*
X002680Y018223D02*
X000690Y018223D01*
X000690Y018145D02*
X002680Y018145D01*
X002680Y018066D02*
X000690Y018066D01*
X000690Y017988D02*
X002680Y017988D01*
X002680Y017909D02*
X000690Y017909D01*
X000690Y017831D02*
X002680Y017831D01*
X002680Y017752D02*
X000690Y017752D01*
X000690Y017674D02*
X002680Y017674D01*
X002680Y017595D02*
X000690Y017595D01*
X000690Y017517D02*
X002680Y017517D01*
X002680Y017438D02*
X000690Y017438D01*
X000690Y017360D02*
X002680Y017360D01*
X002680Y017281D02*
X000690Y017281D01*
X000690Y017203D02*
X002680Y017203D01*
X002680Y017124D02*
X000690Y017124D01*
X000690Y017046D02*
X002680Y017046D01*
X002680Y016967D02*
X000690Y016967D01*
X000690Y016889D02*
X002680Y016889D01*
X002680Y016810D02*
X000690Y016810D01*
X000690Y016732D02*
X002680Y016732D01*
X002680Y016653D02*
X000690Y016653D01*
X000690Y016575D02*
X002680Y016575D01*
X002680Y016496D02*
X000690Y016496D01*
X000690Y016418D02*
X002680Y016418D01*
X002680Y016339D02*
X002061Y016339D01*
X002156Y016261D02*
X002680Y016261D01*
X002680Y016182D02*
X002233Y016182D01*
X002266Y016104D02*
X002680Y016104D01*
X002680Y016025D02*
X002298Y016025D01*
X002310Y015947D02*
X002680Y015947D01*
X002680Y015868D02*
X002310Y015868D01*
X002308Y015790D02*
X002680Y015790D01*
X002680Y015711D02*
X002276Y015711D01*
X002243Y015633D02*
X002680Y015633D01*
X002680Y015554D02*
X002180Y015554D01*
X002102Y015476D02*
X002680Y015476D01*
X002680Y015397D02*
X001931Y015397D01*
X001669Y015397D02*
X001603Y015397D01*
X001525Y015319D02*
X002680Y015319D01*
X001642Y015240D02*
X001446Y015240D01*
X001492Y015162D02*
X001368Y015162D01*
X001408Y015083D02*
X001289Y015083D01*
X001355Y015005D02*
X001211Y015005D01*
X001160Y014926D02*
X001319Y014926D01*
X001298Y014848D02*
X001160Y014848D01*
X001290Y014795D02*
X001290Y014795D01*
X000720Y014769D02*
X000690Y014769D01*
X000690Y014691D02*
X000720Y014691D01*
X000720Y014612D02*
X000690Y014612D01*
X000690Y014534D02*
X000720Y014534D01*
X000720Y014455D02*
X000690Y014455D01*
X000690Y014377D02*
X000720Y014377D01*
X000690Y014848D02*
X000720Y014848D01*
X000720Y014926D02*
X000690Y014926D01*
X000690Y015005D02*
X000720Y015005D01*
X000720Y015083D02*
X000690Y015083D01*
X000690Y015162D02*
X000745Y015162D01*
X000690Y015240D02*
X000824Y015240D01*
X000902Y015319D02*
X000690Y015319D01*
X000690Y015397D02*
X000981Y015397D01*
X001059Y015476D02*
X000690Y015476D01*
X000690Y015554D02*
X001138Y015554D01*
X001216Y015633D02*
X000690Y015633D01*
X000690Y015711D02*
X001295Y015711D01*
X001292Y015790D02*
X000690Y015790D01*
X000690Y015868D02*
X001290Y015868D01*
X001290Y015947D02*
X000690Y015947D01*
X000690Y016025D02*
X001302Y016025D01*
X001334Y016104D02*
X000690Y016104D01*
X000690Y016182D02*
X001367Y016182D01*
X001444Y016261D02*
X000690Y016261D01*
X000690Y016339D02*
X001539Y016339D01*
X004261Y014848D02*
X004339Y014848D01*
X004339Y014769D02*
X004261Y014769D01*
X004261Y014691D02*
X004339Y014691D01*
X004339Y014612D02*
X004261Y014612D01*
X004714Y015005D02*
X021952Y015005D01*
X021873Y015083D02*
X004692Y015083D01*
X004652Y015162D02*
X021795Y015162D01*
X021716Y015240D02*
X004585Y015240D01*
X004465Y015319D02*
X021638Y015319D01*
X021559Y015397D02*
X004572Y015397D01*
X004651Y015476D02*
X021481Y015476D01*
X021402Y015554D02*
X004686Y015554D01*
X004719Y015633D02*
X021324Y015633D01*
X021245Y015711D02*
X004720Y015711D01*
X004720Y015790D02*
X021167Y015790D01*
X021088Y015868D02*
X004693Y015868D01*
X004660Y015947D02*
X021010Y015947D01*
X020931Y016025D02*
X004588Y016025D01*
X006603Y019401D02*
X014710Y019401D01*
X014677Y019479D02*
X006792Y019479D01*
X006904Y019558D02*
X009578Y019558D01*
X009418Y019636D02*
X006983Y019636D01*
X007061Y019715D02*
X009340Y019715D01*
X009290Y019793D02*
X007129Y019793D01*
X007162Y019872D02*
X009257Y019872D01*
X009240Y019950D02*
X007195Y019950D01*
X007227Y020029D02*
X009240Y020029D01*
X009240Y020107D02*
X007260Y020107D01*
X007270Y020186D02*
X009240Y020186D01*
X009240Y020264D02*
X007270Y020264D01*
X007270Y020343D02*
X009240Y020343D01*
X009240Y020421D02*
X007270Y020421D01*
X007270Y020500D02*
X009240Y020500D01*
X009240Y020578D02*
X007245Y020578D01*
X007212Y020657D02*
X009240Y020657D01*
X009240Y020735D02*
X007180Y020735D01*
X007147Y020814D02*
X009272Y020814D01*
X009304Y020892D02*
X007105Y020892D01*
X005495Y020892D02*
X000690Y020892D01*
X000690Y020814D02*
X005453Y020814D01*
X005420Y020735D02*
X000690Y020735D01*
X000690Y020657D02*
X005388Y020657D01*
X009822Y019558D02*
X010588Y019558D01*
X010592Y019556D02*
X010660Y019546D01*
X010660Y020285D01*
X010240Y020285D01*
X010240Y019969D01*
X010251Y019897D01*
X010274Y019828D01*
X010307Y019764D01*
X010349Y019705D01*
X010400Y019654D01*
X010459Y019612D01*
X010523Y019579D01*
X010592Y019556D01*
X010660Y019558D02*
X010740Y019558D01*
X010740Y019546D02*
X010808Y019556D01*
X010877Y019579D01*
X010941Y019612D01*
X011000Y019654D01*
X011051Y019705D01*
X011093Y019764D01*
X011126Y019828D01*
X011149Y019897D01*
X011160Y019969D01*
X011160Y020285D01*
X010740Y020285D01*
X010740Y019546D01*
X010812Y019558D02*
X011578Y019558D01*
X011418Y019636D02*
X010975Y019636D01*
X011058Y019715D02*
X011340Y019715D01*
X011290Y019793D02*
X011108Y019793D01*
X011140Y019872D02*
X011257Y019872D01*
X011240Y019950D02*
X011157Y019950D01*
X011160Y020029D02*
X011240Y020029D01*
X011240Y020107D02*
X011160Y020107D01*
X011160Y020186D02*
X011240Y020186D01*
X011240Y020264D02*
X011160Y020264D01*
X011240Y020343D02*
X010740Y020343D01*
X010740Y020264D02*
X010660Y020264D01*
X010660Y020186D02*
X010740Y020186D01*
X010740Y020107D02*
X010660Y020107D01*
X010660Y020029D02*
X010740Y020029D01*
X010740Y019950D02*
X010660Y019950D01*
X010660Y019872D02*
X010740Y019872D01*
X010740Y019793D02*
X010660Y019793D01*
X010660Y019715D02*
X010740Y019715D01*
X010740Y019636D02*
X010660Y019636D01*
X010425Y019636D02*
X009982Y019636D01*
X010060Y019715D02*
X010342Y019715D01*
X010292Y019793D02*
X010110Y019793D01*
X010143Y019872D02*
X010260Y019872D01*
X010243Y019950D02*
X010160Y019950D01*
X010160Y020029D02*
X010240Y020029D01*
X010240Y020107D02*
X010160Y020107D01*
X010160Y020186D02*
X010240Y020186D01*
X010240Y020264D02*
X010160Y020264D01*
X010160Y020343D02*
X010660Y020343D01*
X010240Y020421D02*
X010160Y020421D01*
X010160Y020500D02*
X010240Y020500D01*
X010240Y020578D02*
X010160Y020578D01*
X010160Y020657D02*
X010240Y020657D01*
X010249Y020735D02*
X010160Y020735D01*
X010128Y020814D02*
X010271Y020814D01*
X010311Y020892D02*
X010096Y020892D01*
X011089Y020892D02*
X011304Y020892D01*
X011272Y020814D02*
X011129Y020814D01*
X011151Y020735D02*
X011240Y020735D01*
X011240Y020657D02*
X011160Y020657D01*
X011160Y020578D02*
X011240Y020578D01*
X011240Y020500D02*
X011160Y020500D01*
X011160Y020421D02*
X011240Y020421D01*
X012160Y020421D02*
X012240Y020421D01*
X012240Y020343D02*
X012160Y020343D01*
X012160Y020264D02*
X012240Y020264D01*
X012240Y020186D02*
X012160Y020186D01*
X012160Y020107D02*
X012240Y020107D01*
X012240Y020029D02*
X012160Y020029D01*
X012160Y019950D02*
X012240Y019950D01*
X012257Y019872D02*
X012143Y019872D01*
X012110Y019793D02*
X012290Y019793D01*
X012340Y019715D02*
X012060Y019715D01*
X011982Y019636D02*
X012418Y019636D01*
X012578Y019558D02*
X011822Y019558D01*
X012822Y019558D02*
X013578Y019558D01*
X013418Y019636D02*
X012982Y019636D01*
X013060Y019715D02*
X013340Y019715D01*
X013290Y019793D02*
X013110Y019793D01*
X013143Y019872D02*
X013257Y019872D01*
X013240Y019950D02*
X013160Y019950D01*
X013160Y020029D02*
X013240Y020029D01*
X013240Y020107D02*
X013160Y020107D01*
X013160Y020186D02*
X013240Y020186D01*
X013240Y020264D02*
X013160Y020264D01*
X013160Y020343D02*
X013240Y020343D01*
X013240Y020421D02*
X013160Y020421D01*
X013160Y020500D02*
X013240Y020500D01*
X013240Y020578D02*
X013160Y020578D01*
X013160Y020657D02*
X013240Y020657D01*
X013240Y020735D02*
X013160Y020735D01*
X013128Y020814D02*
X013272Y020814D01*
X013304Y020892D02*
X013096Y020892D01*
X012304Y020892D02*
X012096Y020892D01*
X012128Y020814D02*
X012272Y020814D01*
X012240Y020735D02*
X012160Y020735D01*
X012160Y020657D02*
X012240Y020657D01*
X012240Y020578D02*
X012160Y020578D01*
X012160Y020500D02*
X012240Y020500D01*
X013822Y019558D02*
X014578Y019558D01*
X014418Y019636D02*
X013982Y019636D01*
X014060Y019715D02*
X014340Y019715D01*
X014290Y019793D02*
X014110Y019793D01*
X014143Y019872D02*
X014257Y019872D01*
X014240Y019950D02*
X014160Y019950D01*
X014160Y020029D02*
X014240Y020029D01*
X014240Y020107D02*
X014160Y020107D01*
X014160Y020186D02*
X014240Y020186D01*
X014240Y020264D02*
X014160Y020264D01*
X014160Y020343D02*
X014240Y020343D01*
X014240Y020421D02*
X014160Y020421D01*
X014160Y020500D02*
X014240Y020500D01*
X014240Y020578D02*
X014160Y020578D01*
X014160Y020657D02*
X014240Y020657D01*
X014240Y020735D02*
X014160Y020735D01*
X014128Y020814D02*
X014272Y020814D01*
X014304Y020892D02*
X014096Y020892D01*
X015096Y020892D02*
X015304Y020892D01*
X015272Y020814D02*
X015128Y020814D01*
X015160Y020735D02*
X015240Y020735D01*
X015240Y020657D02*
X015160Y020657D01*
X015160Y020578D02*
X015240Y020578D01*
X015240Y020500D02*
X015160Y020500D01*
X015160Y020421D02*
X015240Y020421D01*
X015240Y020343D02*
X015160Y020343D01*
X015160Y020264D02*
X015240Y020264D01*
X015240Y020186D02*
X015160Y020186D01*
X015160Y020107D02*
X015240Y020107D01*
X015240Y020029D02*
X015160Y020029D01*
X015160Y019950D02*
X015240Y019950D01*
X015257Y019872D02*
X015143Y019872D01*
X015110Y019793D02*
X015290Y019793D01*
X015340Y019715D02*
X015060Y019715D01*
X015058Y019636D02*
X015418Y019636D01*
X015578Y019558D02*
X015090Y019558D01*
X015090Y019479D02*
X015877Y019479D01*
X015956Y019401D02*
X015090Y019401D01*
X015090Y019322D02*
X016034Y019322D01*
X016113Y019244D02*
X015090Y019244D01*
X015169Y019165D02*
X016191Y019165D01*
X016270Y019087D02*
X015223Y019087D01*
X015255Y019008D02*
X016348Y019008D01*
X015260Y018930D02*
X018027Y018930D01*
X018105Y018851D02*
X015259Y018851D01*
X015227Y018773D02*
X018184Y018773D01*
X018262Y018694D02*
X015178Y018694D01*
X015094Y018616D02*
X018341Y018616D01*
X022959Y015335D02*
X024989Y015335D01*
X024995Y015321D01*
X025096Y015220D01*
X025228Y015165D01*
X025372Y015165D01*
X025504Y015220D01*
X025605Y015321D01*
X025660Y015453D01*
X025660Y015496D01*
X025821Y015335D01*
X025979Y015335D01*
X026821Y015335D01*
X027050Y015106D01*
X027050Y014947D01*
X026849Y015147D01*
X026493Y015295D01*
X026107Y015295D01*
X025751Y015147D01*
X025478Y014874D01*
X025330Y014518D01*
X025330Y014132D01*
X025478Y013776D01*
X025751Y013503D01*
X026107Y013355D01*
X026493Y013355D01*
X026849Y013503D01*
X027050Y013703D01*
X027050Y011915D01*
X026379Y011915D01*
X022959Y015335D01*
X022975Y015319D02*
X024997Y015319D01*
X025076Y015240D02*
X023054Y015240D01*
X023132Y015162D02*
X025785Y015162D01*
X025686Y015083D02*
X023211Y015083D01*
X023289Y015005D02*
X025608Y015005D01*
X025529Y014926D02*
X023368Y014926D01*
X023446Y014848D02*
X025467Y014848D01*
X025434Y014769D02*
X023525Y014769D01*
X023603Y014691D02*
X025402Y014691D01*
X025369Y014612D02*
X023682Y014612D01*
X023760Y014534D02*
X025337Y014534D01*
X025330Y014455D02*
X023839Y014455D01*
X023917Y014377D02*
X025330Y014377D01*
X025330Y014298D02*
X023996Y014298D01*
X024074Y014220D02*
X025330Y014220D01*
X025330Y014141D02*
X024153Y014141D01*
X024231Y014063D02*
X025359Y014063D01*
X025391Y013984D02*
X024310Y013984D01*
X024388Y013906D02*
X025424Y013906D01*
X025456Y013827D02*
X024467Y013827D01*
X024545Y013749D02*
X025505Y013749D01*
X025583Y013670D02*
X024624Y013670D01*
X024702Y013592D02*
X025662Y013592D01*
X025740Y013513D02*
X024781Y013513D01*
X024859Y013435D02*
X025915Y013435D01*
X026105Y013356D02*
X024938Y013356D01*
X025016Y013278D02*
X027050Y013278D01*
X027050Y013356D02*
X026495Y013356D01*
X026685Y013435D02*
X027050Y013435D01*
X027050Y013513D02*
X026860Y013513D01*
X026938Y013592D02*
X027050Y013592D01*
X027050Y013670D02*
X027017Y013670D01*
X027050Y013199D02*
X025095Y013199D01*
X025173Y013121D02*
X027050Y013121D01*
X027050Y013042D02*
X025252Y013042D01*
X025330Y012964D02*
X027050Y012964D01*
X027050Y012885D02*
X025409Y012885D01*
X025487Y012807D02*
X027050Y012807D01*
X027050Y012728D02*
X025566Y012728D01*
X025644Y012650D02*
X027050Y012650D01*
X027050Y012571D02*
X025723Y012571D01*
X025801Y012493D02*
X027050Y012493D01*
X027050Y012414D02*
X025880Y012414D01*
X025958Y012336D02*
X027050Y012336D01*
X027050Y012257D02*
X026037Y012257D01*
X026115Y012179D02*
X027050Y012179D01*
X027050Y012100D02*
X026194Y012100D01*
X026272Y012022D02*
X027050Y012022D01*
X027050Y011943D02*
X026351Y011943D01*
X026992Y015005D02*
X027050Y015005D01*
X027050Y015083D02*
X026914Y015083D01*
X026995Y015162D02*
X026815Y015162D01*
X026916Y015240D02*
X026625Y015240D01*
X026838Y015319D02*
X025603Y015319D01*
X025637Y015397D02*
X025759Y015397D01*
X025681Y015476D02*
X025660Y015476D01*
X025524Y015240D02*
X025975Y015240D01*
X026110Y005506D02*
X006952Y005506D01*
X006862Y005428D02*
X026110Y005428D01*
X027050Y002006D02*
X027050Y001627D01*
X026969Y001546D01*
X026138Y000715D01*
X025661Y000715D01*
X025690Y000744D01*
X025760Y000913D01*
X025760Y001736D01*
X025690Y001906D01*
X025661Y001935D01*
X026979Y001935D01*
X027050Y002006D01*
X027050Y001974D02*
X027017Y001974D01*
X027050Y001895D02*
X025694Y001895D01*
X025727Y001817D02*
X027050Y001817D01*
X027050Y001738D02*
X025759Y001738D01*
X025760Y001660D02*
X027050Y001660D01*
X027004Y001581D02*
X025760Y001581D01*
X025760Y001503D02*
X026926Y001503D01*
X026969Y001546D02*
X026969Y001546D01*
X026847Y001424D02*
X025760Y001424D01*
X025760Y001346D02*
X026769Y001346D01*
X026690Y001267D02*
X025760Y001267D01*
X025760Y001189D02*
X026612Y001189D01*
X026533Y001110D02*
X025760Y001110D01*
X025760Y001032D02*
X026455Y001032D01*
X026376Y000953D02*
X025760Y000953D01*
X025744Y000875D02*
X026298Y000875D01*
X026219Y000796D02*
X025711Y000796D01*
X025663Y000718D02*
X026141Y000718D01*
X006340Y007390D02*
X006260Y007390D01*
X006260Y007469D02*
X006340Y007469D01*
X006340Y007547D02*
X006260Y007547D01*
X006260Y007626D02*
X006340Y007626D01*
X006340Y007704D02*
X006260Y007704D01*
X006260Y007940D02*
X006340Y007940D01*
X006340Y008018D02*
X006260Y008018D01*
X006260Y008097D02*
X006340Y008097D01*
X006340Y008175D02*
X006260Y008175D01*
X006260Y008254D02*
X006340Y008254D01*
X005810Y008254D02*
X004683Y008254D01*
X004761Y008175D02*
X005679Y008175D01*
X005609Y008097D02*
X004840Y008097D01*
X004918Y008018D02*
X005562Y008018D01*
X005534Y007940D02*
X004997Y007940D01*
X003903Y008411D02*
X003734Y008411D01*
X003765Y008489D02*
X003825Y008489D01*
X003329Y008254D02*
X003271Y008254D01*
X003271Y008175D02*
X003329Y008175D01*
X003329Y008097D02*
X003271Y008097D01*
X003271Y008018D02*
X003329Y008018D01*
X003329Y007940D02*
X003271Y007940D01*
X003271Y007861D02*
X003329Y007861D01*
X003329Y007783D02*
X003271Y007783D01*
X003271Y007704D02*
X003329Y007704D01*
X003329Y007626D02*
X003271Y007626D01*
X003271Y007547D02*
X003329Y007547D01*
X003329Y007469D02*
X003271Y007469D01*
X003271Y007390D02*
X003329Y007390D01*
X003134Y007390D02*
X002600Y007390D01*
X002600Y007469D02*
X003000Y007469D01*
X002927Y007547D02*
X002600Y007547D01*
X002600Y007626D02*
X002880Y007626D01*
X002850Y007704D02*
X002600Y007704D01*
X002594Y007783D02*
X002836Y007783D01*
X002835Y007861D02*
X002515Y007861D01*
X002437Y007940D02*
X002848Y007940D01*
X002876Y008018D02*
X002358Y008018D01*
X002280Y008097D02*
X002923Y008097D01*
X002992Y008175D02*
X002201Y008175D01*
X002123Y008254D02*
X003117Y008254D01*
X005703Y007233D02*
X005763Y007233D01*
D19*
X005740Y006885D02*
X003660Y008965D01*
X003340Y008965D01*
X003300Y008825D01*
X003300Y008925D01*
X002900Y009325D01*
X002900Y019725D01*
X003100Y019925D01*
X003100Y020125D01*
X001740Y015845D02*
X000940Y015045D01*
X000940Y009125D01*
X002380Y007685D01*
X002380Y007205D01*
X003660Y005925D01*
X006220Y005925D01*
X006300Y006825D02*
X006220Y006885D01*
X005740Y006885D01*
X005800Y014825D02*
X004300Y014825D01*
X004300Y014931D01*
X005800Y014825D02*
X010300Y019325D01*
M02*
