G75*
%MOIN*%
%OFA0B0*%
%FSLAX25Y25*%
%IPPOS*%
%LPD*%
%AMOC8*
5,1,8,0,0,1.08239X$1,22.5*
%
%ADD10C,0.13300*%
%ADD11C,0.00200*%
%ADD12R,0.06706X0.04737*%
%ADD13R,0.04737X0.06706*%
%ADD14R,0.05131X0.04737*%
%ADD15R,0.04737X0.05131*%
%ADD16C,0.00100*%
%ADD17R,0.04550X0.01981*%
%ADD18R,0.01981X0.04150*%
%ADD19C,0.08200*%
%ADD20C,0.03950*%
%ADD21C,0.07700*%
%ADD22R,0.02769X0.01784*%
%ADD23R,0.01784X0.02769*%
D10*
X0130800Y0131800D03*
D11*
X0009800Y0131825D02*
X0004736Y0131825D01*
X0004917Y0131626D02*
X0009800Y0131626D01*
X0009800Y0131428D02*
X0005099Y0131428D01*
X0005281Y0131229D02*
X0009800Y0131229D01*
X0009800Y0131031D02*
X0005463Y0131031D01*
X0005645Y0130832D02*
X0009800Y0130832D01*
X0009800Y0130634D02*
X0005827Y0130634D01*
X0006009Y0130435D02*
X0009800Y0130435D01*
X0009800Y0130237D02*
X0006191Y0130237D01*
X0006373Y0130038D02*
X0009800Y0130038D01*
X0009800Y0129840D02*
X0006555Y0129840D01*
X0006737Y0129641D02*
X0009800Y0129641D01*
X0009800Y0129443D02*
X0006919Y0129443D01*
X0007101Y0129244D02*
X0009800Y0129244D01*
X0009800Y0129046D02*
X0007283Y0129046D01*
X0007465Y0128847D02*
X0009800Y0128847D01*
X0009800Y0128649D02*
X0007647Y0128649D01*
X0007829Y0128450D02*
X0009800Y0128450D01*
X0009800Y0128252D02*
X0008011Y0128252D01*
X0008193Y0128053D02*
X0009800Y0128053D01*
X0009800Y0127855D02*
X0008375Y0127855D01*
X0008557Y0127656D02*
X0009800Y0127656D01*
X0009800Y0127458D02*
X0008739Y0127458D01*
X0008921Y0127259D02*
X0009800Y0127259D01*
X0009800Y0127061D02*
X0009103Y0127061D01*
X0009285Y0126862D02*
X0009800Y0126862D01*
X0009800Y0126664D02*
X0009467Y0126664D01*
X0009649Y0126465D02*
X0009800Y0126465D01*
X0009800Y0126300D02*
X0004300Y0132300D01*
X0009800Y0138300D01*
X0009800Y0126300D01*
X0009800Y0132023D02*
X0004554Y0132023D01*
X0004372Y0132222D02*
X0009800Y0132222D01*
X0009800Y0132420D02*
X0004410Y0132420D01*
X0004592Y0132619D02*
X0009800Y0132619D01*
X0009800Y0132817D02*
X0004774Y0132817D01*
X0004956Y0133016D02*
X0009800Y0133016D01*
X0009800Y0133214D02*
X0005138Y0133214D01*
X0005320Y0133413D02*
X0009800Y0133413D01*
X0009800Y0133612D02*
X0005502Y0133612D01*
X0005684Y0133810D02*
X0009800Y0133810D01*
X0009800Y0134009D02*
X0005866Y0134009D01*
X0006048Y0134207D02*
X0009800Y0134207D01*
X0009800Y0134406D02*
X0006230Y0134406D01*
X0006412Y0134604D02*
X0009800Y0134604D01*
X0009800Y0134803D02*
X0006594Y0134803D01*
X0006776Y0135001D02*
X0009800Y0135001D01*
X0009800Y0135200D02*
X0006958Y0135200D01*
X0007140Y0135398D02*
X0009800Y0135398D01*
X0009800Y0135597D02*
X0007322Y0135597D01*
X0007504Y0135795D02*
X0009800Y0135795D01*
X0009800Y0135994D02*
X0007686Y0135994D01*
X0007868Y0136192D02*
X0009800Y0136192D01*
X0009800Y0136391D02*
X0008050Y0136391D01*
X0008232Y0136589D02*
X0009800Y0136589D01*
X0009800Y0136788D02*
X0008414Y0136788D01*
X0008596Y0136986D02*
X0009800Y0136986D01*
X0009800Y0137185D02*
X0008778Y0137185D01*
X0008960Y0137383D02*
X0009800Y0137383D01*
X0009800Y0137582D02*
X0009142Y0137582D01*
X0009324Y0137780D02*
X0009800Y0137780D01*
X0009800Y0137979D02*
X0009506Y0137979D01*
X0009688Y0138177D02*
X0009800Y0138177D01*
X0252300Y0137800D02*
X0252300Y0125800D01*
X0257800Y0131800D01*
X0252300Y0137800D01*
X0252300Y0137780D02*
X0252318Y0137780D01*
X0252300Y0137582D02*
X0252500Y0137582D01*
X0252682Y0137383D02*
X0252300Y0137383D01*
X0252300Y0137185D02*
X0252864Y0137185D01*
X0253046Y0136986D02*
X0252300Y0136986D01*
X0252300Y0136788D02*
X0253228Y0136788D01*
X0253410Y0136589D02*
X0252300Y0136589D01*
X0252300Y0136391D02*
X0253592Y0136391D01*
X0253774Y0136192D02*
X0252300Y0136192D01*
X0252300Y0135994D02*
X0253956Y0135994D01*
X0254138Y0135795D02*
X0252300Y0135795D01*
X0252300Y0135597D02*
X0254320Y0135597D01*
X0254502Y0135398D02*
X0252300Y0135398D01*
X0252300Y0135200D02*
X0254684Y0135200D01*
X0254866Y0135001D02*
X0252300Y0135001D01*
X0252300Y0134803D02*
X0255048Y0134803D01*
X0255230Y0134604D02*
X0252300Y0134604D01*
X0252300Y0134406D02*
X0255412Y0134406D01*
X0255594Y0134207D02*
X0252300Y0134207D01*
X0252300Y0134009D02*
X0255776Y0134009D01*
X0255957Y0133810D02*
X0252300Y0133810D01*
X0252300Y0133612D02*
X0256139Y0133612D01*
X0256321Y0133413D02*
X0252300Y0133413D01*
X0252300Y0133214D02*
X0256503Y0133214D01*
X0256685Y0133016D02*
X0252300Y0133016D01*
X0252300Y0132817D02*
X0256867Y0132817D01*
X0257049Y0132619D02*
X0252300Y0132619D01*
X0252300Y0132420D02*
X0257231Y0132420D01*
X0257413Y0132222D02*
X0252300Y0132222D01*
X0252300Y0132023D02*
X0257595Y0132023D01*
X0257777Y0131825D02*
X0252300Y0131825D01*
X0252300Y0131626D02*
X0257641Y0131626D01*
X0257459Y0131428D02*
X0252300Y0131428D01*
X0252300Y0131229D02*
X0257277Y0131229D01*
X0257095Y0131031D02*
X0252300Y0131031D01*
X0252300Y0130832D02*
X0256913Y0130832D01*
X0256731Y0130634D02*
X0252300Y0130634D01*
X0252300Y0130435D02*
X0256549Y0130435D01*
X0256367Y0130237D02*
X0252300Y0130237D01*
X0252300Y0130038D02*
X0256185Y0130038D01*
X0256003Y0129840D02*
X0252300Y0129840D01*
X0252300Y0129641D02*
X0255821Y0129641D01*
X0255639Y0129443D02*
X0252300Y0129443D01*
X0252300Y0129244D02*
X0255457Y0129244D01*
X0255275Y0129046D02*
X0252300Y0129046D01*
X0252300Y0128847D02*
X0255093Y0128847D01*
X0254911Y0128649D02*
X0252300Y0128649D01*
X0252300Y0128450D02*
X0254729Y0128450D01*
X0254547Y0128252D02*
X0252300Y0128252D01*
X0252300Y0128053D02*
X0254365Y0128053D01*
X0254183Y0127855D02*
X0252300Y0127855D01*
X0252300Y0127656D02*
X0254002Y0127656D01*
X0253820Y0127458D02*
X0252300Y0127458D01*
X0252300Y0127259D02*
X0253638Y0127259D01*
X0253456Y0127061D02*
X0252300Y0127061D01*
X0252300Y0126862D02*
X0253274Y0126862D01*
X0253092Y0126664D02*
X0252300Y0126664D01*
X0252300Y0126465D02*
X0252910Y0126465D01*
X0252728Y0126267D02*
X0252300Y0126267D01*
X0252300Y0126068D02*
X0252546Y0126068D01*
X0252364Y0125870D02*
X0252300Y0125870D01*
X0136800Y0010300D02*
X0124800Y0010300D01*
X0130800Y0004800D01*
X0136800Y0010300D01*
X0136623Y0010137D02*
X0124977Y0010137D01*
X0125194Y0009939D02*
X0136406Y0009939D01*
X0136190Y0009740D02*
X0125410Y0009740D01*
X0125627Y0009542D02*
X0135973Y0009542D01*
X0135756Y0009343D02*
X0125844Y0009343D01*
X0126060Y0009145D02*
X0135540Y0009145D01*
X0135323Y0008946D02*
X0126277Y0008946D01*
X0126493Y0008748D02*
X0135107Y0008748D01*
X0134890Y0008549D02*
X0126710Y0008549D01*
X0126926Y0008351D02*
X0134674Y0008351D01*
X0134457Y0008152D02*
X0127143Y0008152D01*
X0127359Y0007954D02*
X0134241Y0007954D01*
X0134024Y0007755D02*
X0127576Y0007755D01*
X0127793Y0007557D02*
X0133807Y0007557D01*
X0133591Y0007358D02*
X0128009Y0007358D01*
X0128226Y0007160D02*
X0133374Y0007160D01*
X0133158Y0006961D02*
X0128442Y0006961D01*
X0128659Y0006763D02*
X0132941Y0006763D01*
X0132725Y0006564D02*
X0128875Y0006564D01*
X0129092Y0006366D02*
X0132508Y0006366D01*
X0132292Y0006167D02*
X0129308Y0006167D01*
X0129525Y0005969D02*
X0132075Y0005969D01*
X0131858Y0005770D02*
X0129742Y0005770D01*
X0129958Y0005572D02*
X0131642Y0005572D01*
X0131425Y0005373D02*
X0130175Y0005373D01*
X0130391Y0005175D02*
X0131209Y0005175D01*
X0130992Y0004976D02*
X0130608Y0004976D01*
X0124800Y0253300D02*
X0130800Y0258800D01*
X0136800Y0253300D01*
X0124800Y0253300D01*
X0124815Y0253314D02*
X0136785Y0253314D01*
X0136568Y0253512D02*
X0125032Y0253512D01*
X0125248Y0253711D02*
X0136352Y0253711D01*
X0136135Y0253909D02*
X0125465Y0253909D01*
X0125681Y0254108D02*
X0135919Y0254108D01*
X0135702Y0254306D02*
X0125898Y0254306D01*
X0126114Y0254505D02*
X0135486Y0254505D01*
X0135269Y0254703D02*
X0126331Y0254703D01*
X0126548Y0254902D02*
X0135052Y0254902D01*
X0134836Y0255100D02*
X0126764Y0255100D01*
X0126981Y0255299D02*
X0134619Y0255299D01*
X0134403Y0255497D02*
X0127197Y0255497D01*
X0127414Y0255696D02*
X0134186Y0255696D01*
X0133970Y0255894D02*
X0127630Y0255894D01*
X0127847Y0256093D02*
X0133753Y0256093D01*
X0133537Y0256292D02*
X0128063Y0256292D01*
X0128280Y0256490D02*
X0133320Y0256490D01*
X0133103Y0256689D02*
X0128497Y0256689D01*
X0128713Y0256887D02*
X0132887Y0256887D01*
X0132670Y0257086D02*
X0128930Y0257086D01*
X0129146Y0257284D02*
X0132454Y0257284D01*
X0132237Y0257483D02*
X0129363Y0257483D01*
X0129579Y0257681D02*
X0132021Y0257681D01*
X0131804Y0257880D02*
X0129796Y0257880D01*
X0130012Y0258078D02*
X0131588Y0258078D01*
X0131371Y0258277D02*
X0130229Y0258277D01*
X0130446Y0258475D02*
X0131154Y0258475D01*
X0130938Y0258674D02*
X0130662Y0258674D01*
D12*
G36*
X0082723Y0023295D02*
X0076917Y0026648D01*
X0079285Y0030749D01*
X0085091Y0027396D01*
X0082723Y0023295D01*
G37*
X0121154Y0028099D03*
X0140446Y0028099D03*
G36*
X0177884Y0037058D02*
X0172078Y0033705D01*
X0169710Y0037806D01*
X0175516Y0041159D01*
X0177884Y0037058D01*
G37*
G36*
X0200890Y0035794D02*
X0195084Y0032441D01*
X0192716Y0036542D01*
X0198522Y0039895D01*
X0200890Y0035794D01*
G37*
G36*
X0184183Y0026148D02*
X0178377Y0022795D01*
X0176009Y0026896D01*
X0181815Y0030249D01*
X0184183Y0026148D01*
G37*
X0140446Y0015501D03*
X0121154Y0015501D03*
G36*
X0066016Y0032941D02*
X0060210Y0036294D01*
X0062578Y0040395D01*
X0068384Y0037042D01*
X0066016Y0032941D01*
G37*
G36*
X0089022Y0034205D02*
X0083216Y0037558D01*
X0085584Y0041659D01*
X0091390Y0038306D01*
X0089022Y0034205D01*
G37*
G36*
X0072315Y0043851D02*
X0066509Y0047204D01*
X0068877Y0051305D01*
X0074683Y0047952D01*
X0072315Y0043851D01*
G37*
G36*
X0035294Y0061210D02*
X0031941Y0067016D01*
X0036042Y0069384D01*
X0039395Y0063578D01*
X0035294Y0061210D01*
G37*
G36*
X0046204Y0067509D02*
X0042851Y0073315D01*
X0046952Y0075683D01*
X0050305Y0069877D01*
X0046204Y0067509D01*
G37*
G36*
X0025648Y0077917D02*
X0022295Y0083723D01*
X0026396Y0086091D01*
X0029749Y0080285D01*
X0025648Y0077917D01*
G37*
G36*
X0036558Y0084216D02*
X0033205Y0090022D01*
X0037306Y0092390D01*
X0040659Y0086584D01*
X0036558Y0084216D01*
G37*
G36*
X0194591Y0046704D02*
X0188785Y0043351D01*
X0186417Y0047452D01*
X0192223Y0050805D01*
X0194591Y0046704D01*
G37*
G36*
X0229659Y0067016D02*
X0226306Y0061210D01*
X0222205Y0063578D01*
X0225558Y0069384D01*
X0229659Y0067016D01*
G37*
G36*
X0218749Y0073315D02*
X0215396Y0067509D01*
X0211295Y0069877D01*
X0214648Y0075683D01*
X0218749Y0073315D01*
G37*
G36*
X0239305Y0083723D02*
X0235952Y0077917D01*
X0231851Y0080285D01*
X0235204Y0086091D01*
X0239305Y0083723D01*
G37*
G36*
X0228395Y0090022D02*
X0225042Y0084216D01*
X0220941Y0086584D01*
X0224294Y0092390D01*
X0228395Y0090022D01*
G37*
G36*
X0226042Y0179384D02*
X0229395Y0173578D01*
X0225294Y0171210D01*
X0221941Y0177016D01*
X0226042Y0179384D01*
G37*
G36*
X0236952Y0185683D02*
X0240305Y0179877D01*
X0236204Y0177509D01*
X0232851Y0183315D01*
X0236952Y0185683D01*
G37*
G36*
X0216396Y0196091D02*
X0219749Y0190285D01*
X0215648Y0187917D01*
X0212295Y0193723D01*
X0216396Y0196091D01*
G37*
G36*
X0227306Y0202390D02*
X0230659Y0196584D01*
X0226558Y0194216D01*
X0223205Y0200022D01*
X0227306Y0202390D01*
G37*
G36*
X0189785Y0220749D02*
X0195591Y0217396D01*
X0193223Y0213295D01*
X0187417Y0216648D01*
X0189785Y0220749D01*
G37*
G36*
X0173078Y0230395D02*
X0178884Y0227042D01*
X0176516Y0222941D01*
X0170710Y0226294D01*
X0173078Y0230395D01*
G37*
G36*
X0179377Y0241305D02*
X0185183Y0237952D01*
X0182815Y0233851D01*
X0177009Y0237204D01*
X0179377Y0241305D01*
G37*
X0140446Y0235501D03*
X0121154Y0235501D03*
G36*
X0083216Y0226542D02*
X0089022Y0229895D01*
X0091390Y0225794D01*
X0085584Y0222441D01*
X0083216Y0226542D01*
G37*
G36*
X0060210Y0227806D02*
X0066016Y0231159D01*
X0068384Y0227058D01*
X0062578Y0223705D01*
X0060210Y0227806D01*
G37*
G36*
X0076917Y0237452D02*
X0082723Y0240805D01*
X0085091Y0236704D01*
X0079285Y0233351D01*
X0076917Y0237452D01*
G37*
X0121154Y0248099D03*
X0140446Y0248099D03*
G36*
X0196084Y0231659D02*
X0201890Y0228306D01*
X0199522Y0224205D01*
X0193716Y0227558D01*
X0196084Y0231659D01*
G37*
G36*
X0066509Y0216896D02*
X0072315Y0220249D01*
X0074683Y0216148D01*
X0068877Y0212795D01*
X0066509Y0216896D01*
G37*
G36*
X0031941Y0197584D02*
X0035294Y0203390D01*
X0039395Y0201022D01*
X0036042Y0195216D01*
X0031941Y0197584D01*
G37*
G36*
X0042851Y0191285D02*
X0046204Y0197091D01*
X0050305Y0194723D01*
X0046952Y0188917D01*
X0042851Y0191285D01*
G37*
G36*
X0022295Y0180877D02*
X0025648Y0186683D01*
X0029749Y0184315D01*
X0026396Y0178509D01*
X0022295Y0180877D01*
G37*
G36*
X0033205Y0174578D02*
X0036558Y0180384D01*
X0040659Y0178016D01*
X0037306Y0172210D01*
X0033205Y0174578D01*
G37*
D13*
X0027799Y0141646D03*
X0015201Y0141646D03*
X0015201Y0122354D03*
X0027799Y0122354D03*
X0234501Y0122154D03*
X0247099Y0122154D03*
X0247099Y0141446D03*
X0234501Y0141446D03*
D14*
G36*
X0226097Y0168895D02*
X0230539Y0171460D01*
X0232907Y0167359D01*
X0228465Y0164794D01*
X0226097Y0168895D01*
G37*
G36*
X0231893Y0172241D02*
X0236335Y0174806D01*
X0238703Y0170705D01*
X0234261Y0168140D01*
X0231893Y0172241D01*
G37*
G36*
X0195694Y0211765D02*
X0198259Y0216207D01*
X0202360Y0213839D01*
X0199795Y0209397D01*
X0195694Y0211765D01*
G37*
G36*
X0199040Y0217561D02*
X0201605Y0222003D01*
X0205706Y0219635D01*
X0203141Y0215193D01*
X0199040Y0217561D01*
G37*
G36*
X0094005Y0226497D02*
X0091440Y0230939D01*
X0095541Y0233307D01*
X0098106Y0228865D01*
X0094005Y0226497D01*
G37*
G36*
X0090659Y0232293D02*
X0088094Y0236735D01*
X0092195Y0239103D01*
X0094760Y0234661D01*
X0090659Y0232293D01*
G37*
G36*
X0045939Y0200140D02*
X0041497Y0202705D01*
X0043865Y0206806D01*
X0048307Y0204241D01*
X0045939Y0200140D01*
G37*
G36*
X0051735Y0196794D02*
X0047293Y0199359D01*
X0049661Y0203460D01*
X0054103Y0200895D01*
X0051735Y0196794D01*
G37*
X0234354Y0113600D03*
X0241046Y0113600D03*
G36*
X0210565Y0067506D02*
X0215007Y0064941D01*
X0212639Y0060840D01*
X0208197Y0063405D01*
X0210565Y0067506D01*
G37*
G36*
X0216361Y0064160D02*
X0220803Y0061595D01*
X0218435Y0057494D01*
X0213993Y0060059D01*
X0216361Y0064160D01*
G37*
X0152146Y0045800D03*
X0145454Y0045800D03*
X0124146Y0047300D03*
X0117454Y0047300D03*
G36*
X0168195Y0036203D02*
X0170760Y0031761D01*
X0166659Y0029393D01*
X0164094Y0033835D01*
X0168195Y0036203D01*
G37*
G36*
X0171541Y0030407D02*
X0174106Y0025965D01*
X0170005Y0023597D01*
X0167440Y0028039D01*
X0171541Y0030407D01*
G37*
G36*
X0065706Y0052835D02*
X0063141Y0048393D01*
X0059040Y0050761D01*
X0061605Y0055203D01*
X0065706Y0052835D01*
G37*
G36*
X0062360Y0047039D02*
X0059795Y0042597D01*
X0055694Y0044965D01*
X0058259Y0049407D01*
X0062360Y0047039D01*
G37*
G36*
X0030207Y0091959D02*
X0025765Y0089394D01*
X0023397Y0093495D01*
X0027839Y0096060D01*
X0030207Y0091959D01*
G37*
G36*
X0036003Y0095305D02*
X0031561Y0092740D01*
X0029193Y0096841D01*
X0033635Y0099406D01*
X0036003Y0095305D01*
G37*
D15*
X0137800Y0058146D03*
X0137800Y0051454D03*
X0112900Y0028246D03*
X0112900Y0021554D03*
X0063700Y0162154D03*
X0063700Y0168846D03*
X0148800Y0235454D03*
X0148800Y0242146D03*
D16*
X0130800Y0220600D02*
X0131800Y0216000D01*
X0130800Y0215400D01*
X0129800Y0216000D01*
X0130800Y0220600D01*
X0130799Y0220594D02*
X0130801Y0220594D01*
X0130777Y0220495D02*
X0130823Y0220495D01*
X0130844Y0220397D02*
X0130756Y0220397D01*
X0130734Y0220298D02*
X0130866Y0220298D01*
X0130887Y0220200D02*
X0130713Y0220200D01*
X0130692Y0220101D02*
X0130908Y0220101D01*
X0130930Y0220003D02*
X0130670Y0220003D01*
X0130649Y0219904D02*
X0130951Y0219904D01*
X0130973Y0219806D02*
X0130627Y0219806D01*
X0130606Y0219707D02*
X0130994Y0219707D01*
X0131016Y0219609D02*
X0130584Y0219609D01*
X0130563Y0219510D02*
X0131037Y0219510D01*
X0131058Y0219412D02*
X0130542Y0219412D01*
X0130520Y0219313D02*
X0131080Y0219313D01*
X0131101Y0219214D02*
X0130499Y0219214D01*
X0130477Y0219116D02*
X0131123Y0219116D01*
X0131144Y0219017D02*
X0130456Y0219017D01*
X0130435Y0218919D02*
X0131165Y0218919D01*
X0131187Y0218820D02*
X0130413Y0218820D01*
X0130392Y0218722D02*
X0131208Y0218722D01*
X0131230Y0218623D02*
X0130370Y0218623D01*
X0130349Y0218525D02*
X0131251Y0218525D01*
X0131273Y0218426D02*
X0130327Y0218426D01*
X0130306Y0218328D02*
X0131294Y0218328D01*
X0131315Y0218229D02*
X0130285Y0218229D01*
X0130263Y0218131D02*
X0131337Y0218131D01*
X0131358Y0218032D02*
X0130242Y0218032D01*
X0130220Y0217934D02*
X0131380Y0217934D01*
X0131401Y0217835D02*
X0130199Y0217835D01*
X0130178Y0217737D02*
X0131422Y0217737D01*
X0131444Y0217638D02*
X0130156Y0217638D01*
X0130135Y0217540D02*
X0131465Y0217540D01*
X0131487Y0217441D02*
X0130113Y0217441D01*
X0130092Y0217343D02*
X0131508Y0217343D01*
X0131530Y0217244D02*
X0130070Y0217244D01*
X0130049Y0217146D02*
X0131551Y0217146D01*
X0131572Y0217047D02*
X0130028Y0217047D01*
X0130006Y0216949D02*
X0131594Y0216949D01*
X0131615Y0216850D02*
X0129985Y0216850D01*
X0129963Y0216752D02*
X0131637Y0216752D01*
X0131658Y0216653D02*
X0129942Y0216653D01*
X0129921Y0216555D02*
X0131679Y0216555D01*
X0131701Y0216456D02*
X0129899Y0216456D01*
X0129878Y0216358D02*
X0131722Y0216358D01*
X0131744Y0216259D02*
X0129856Y0216259D01*
X0129835Y0216161D02*
X0131765Y0216161D01*
X0131787Y0216062D02*
X0129814Y0216062D01*
X0129861Y0215964D02*
X0131739Y0215964D01*
X0131575Y0215865D02*
X0130025Y0215865D01*
X0130189Y0215767D02*
X0131411Y0215767D01*
X0131247Y0215668D02*
X0130353Y0215668D01*
X0130517Y0215570D02*
X0131083Y0215570D01*
X0130918Y0215471D02*
X0130682Y0215471D01*
X0130020Y0214486D02*
X0126799Y0214486D01*
X0126737Y0214584D02*
X0129862Y0214584D01*
X0129704Y0214683D02*
X0126674Y0214683D01*
X0126612Y0214781D02*
X0129546Y0214781D01*
X0129387Y0214880D02*
X0126549Y0214880D01*
X0126487Y0214978D02*
X0129229Y0214978D01*
X0129071Y0215077D02*
X0126425Y0215077D01*
X0126362Y0215176D02*
X0128913Y0215176D01*
X0128755Y0215274D02*
X0126300Y0215274D01*
X0126237Y0215373D02*
X0128597Y0215373D01*
X0128439Y0215471D02*
X0126175Y0215471D01*
X0126113Y0215570D02*
X0128280Y0215570D01*
X0128122Y0215668D02*
X0126050Y0215668D01*
X0125988Y0215767D02*
X0127964Y0215767D01*
X0127806Y0215865D02*
X0125925Y0215865D01*
X0125863Y0215964D02*
X0127648Y0215964D01*
X0127490Y0216062D02*
X0125801Y0216062D01*
X0125738Y0216161D02*
X0127332Y0216161D01*
X0127173Y0216259D02*
X0125676Y0216259D01*
X0125613Y0216358D02*
X0127015Y0216358D01*
X0126857Y0216456D02*
X0125551Y0216456D01*
X0125489Y0216555D02*
X0126699Y0216555D01*
X0126541Y0216653D02*
X0125426Y0216653D01*
X0125364Y0216752D02*
X0126383Y0216752D01*
X0126225Y0216850D02*
X0125302Y0216850D01*
X0125239Y0216949D02*
X0126067Y0216949D01*
X0125908Y0217047D02*
X0125177Y0217047D01*
X0125114Y0217146D02*
X0125750Y0217146D01*
X0125592Y0217244D02*
X0125052Y0217244D01*
X0124990Y0217343D02*
X0125434Y0217343D01*
X0125276Y0217441D02*
X0124927Y0217441D01*
X0124865Y0217540D02*
X0125118Y0217540D01*
X0124960Y0217638D02*
X0124802Y0217638D01*
X0124801Y0217737D02*
X0124740Y0217737D01*
X0124700Y0217800D02*
X0130800Y0214000D01*
X0136800Y0217900D01*
X0133000Y0211800D01*
X0137000Y0205500D01*
X0130800Y0209600D01*
X0124700Y0205600D01*
X0128500Y0211800D01*
X0124700Y0217800D01*
X0126861Y0214387D02*
X0130178Y0214387D01*
X0130336Y0214289D02*
X0126924Y0214289D01*
X0126986Y0214190D02*
X0130494Y0214190D01*
X0130652Y0214092D02*
X0127048Y0214092D01*
X0127111Y0213993D02*
X0134366Y0213993D01*
X0134305Y0213895D02*
X0127173Y0213895D01*
X0127236Y0213796D02*
X0134244Y0213796D01*
X0134182Y0213698D02*
X0127298Y0213698D01*
X0127360Y0213599D02*
X0134121Y0213599D01*
X0134060Y0213501D02*
X0127423Y0213501D01*
X0127485Y0213402D02*
X0133998Y0213402D01*
X0133937Y0213304D02*
X0127548Y0213304D01*
X0127610Y0213205D02*
X0133875Y0213205D01*
X0133814Y0213107D02*
X0127672Y0213107D01*
X0127735Y0213008D02*
X0133753Y0213008D01*
X0133691Y0212910D02*
X0127797Y0212910D01*
X0127860Y0212811D02*
X0133630Y0212811D01*
X0133569Y0212713D02*
X0127922Y0212713D01*
X0127984Y0212614D02*
X0133507Y0212614D01*
X0133446Y0212516D02*
X0128047Y0212516D01*
X0128109Y0212417D02*
X0133384Y0212417D01*
X0133323Y0212319D02*
X0128171Y0212319D01*
X0128234Y0212220D02*
X0133262Y0212220D01*
X0133200Y0212122D02*
X0128296Y0212122D01*
X0128359Y0212023D02*
X0133139Y0212023D01*
X0133078Y0211925D02*
X0128421Y0211925D01*
X0128483Y0211826D02*
X0133016Y0211826D01*
X0133046Y0211728D02*
X0128456Y0211728D01*
X0128395Y0211629D02*
X0133109Y0211629D01*
X0133171Y0211531D02*
X0128335Y0211531D01*
X0128275Y0211432D02*
X0133234Y0211432D01*
X0133296Y0211334D02*
X0128214Y0211334D01*
X0128154Y0211235D02*
X0133359Y0211235D01*
X0133421Y0211137D02*
X0128093Y0211137D01*
X0128033Y0211038D02*
X0133484Y0211038D01*
X0133546Y0210940D02*
X0127973Y0210940D01*
X0127912Y0210841D02*
X0133609Y0210841D01*
X0133671Y0210743D02*
X0127852Y0210743D01*
X0127791Y0210644D02*
X0133734Y0210644D01*
X0133797Y0210545D02*
X0127731Y0210545D01*
X0127671Y0210447D02*
X0133859Y0210447D01*
X0133922Y0210348D02*
X0127610Y0210348D01*
X0127550Y0210250D02*
X0133984Y0210250D01*
X0134047Y0210151D02*
X0127490Y0210151D01*
X0127429Y0210053D02*
X0134109Y0210053D01*
X0134172Y0209954D02*
X0127369Y0209954D01*
X0127308Y0209856D02*
X0134234Y0209856D01*
X0134297Y0209757D02*
X0127248Y0209757D01*
X0127188Y0209659D02*
X0134359Y0209659D01*
X0134422Y0209560D02*
X0130860Y0209560D01*
X0130740Y0209560D02*
X0127127Y0209560D01*
X0127067Y0209462D02*
X0130589Y0209462D01*
X0130439Y0209363D02*
X0127007Y0209363D01*
X0126946Y0209265D02*
X0130289Y0209265D01*
X0130139Y0209166D02*
X0126886Y0209166D01*
X0126825Y0209068D02*
X0129988Y0209068D01*
X0129838Y0208969D02*
X0126765Y0208969D01*
X0126705Y0208871D02*
X0129688Y0208871D01*
X0129538Y0208772D02*
X0126644Y0208772D01*
X0126584Y0208674D02*
X0129387Y0208674D01*
X0129237Y0208575D02*
X0126524Y0208575D01*
X0126463Y0208477D02*
X0129087Y0208477D01*
X0128937Y0208378D02*
X0126403Y0208378D01*
X0126342Y0208280D02*
X0128787Y0208280D01*
X0128636Y0208181D02*
X0126282Y0208181D01*
X0126222Y0208083D02*
X0128486Y0208083D01*
X0128336Y0207984D02*
X0126161Y0207984D01*
X0126101Y0207886D02*
X0128186Y0207886D01*
X0128035Y0207787D02*
X0126041Y0207787D01*
X0125980Y0207689D02*
X0127885Y0207689D01*
X0127735Y0207590D02*
X0125920Y0207590D01*
X0125859Y0207492D02*
X0127585Y0207492D01*
X0127435Y0207393D02*
X0125799Y0207393D01*
X0125739Y0207295D02*
X0127284Y0207295D01*
X0127134Y0207196D02*
X0125678Y0207196D01*
X0125618Y0207098D02*
X0126984Y0207098D01*
X0126834Y0206999D02*
X0125558Y0206999D01*
X0125497Y0206901D02*
X0126683Y0206901D01*
X0126533Y0206802D02*
X0125437Y0206802D01*
X0125376Y0206704D02*
X0126383Y0206704D01*
X0126233Y0206605D02*
X0125316Y0206605D01*
X0125256Y0206507D02*
X0126082Y0206507D01*
X0125932Y0206408D02*
X0125195Y0206408D01*
X0125135Y0206309D02*
X0125782Y0206309D01*
X0125632Y0206211D02*
X0125074Y0206211D01*
X0125014Y0206112D02*
X0125482Y0206112D01*
X0125331Y0206014D02*
X0124954Y0206014D01*
X0124893Y0205915D02*
X0125181Y0205915D01*
X0125031Y0205817D02*
X0124833Y0205817D01*
X0124881Y0205718D02*
X0124773Y0205718D01*
X0124730Y0205620D02*
X0124712Y0205620D01*
X0129936Y0206802D02*
X0131664Y0206802D01*
X0131642Y0206704D02*
X0129958Y0206704D01*
X0129981Y0206605D02*
X0131619Y0206605D01*
X0131597Y0206507D02*
X0130003Y0206507D01*
X0130025Y0206408D02*
X0131575Y0206408D01*
X0131552Y0206309D02*
X0130048Y0206309D01*
X0130070Y0206211D02*
X0131530Y0206211D01*
X0131507Y0206112D02*
X0130093Y0206112D01*
X0130115Y0206014D02*
X0131485Y0206014D01*
X0131463Y0205915D02*
X0130137Y0205915D01*
X0130160Y0205817D02*
X0131440Y0205817D01*
X0131418Y0205718D02*
X0130182Y0205718D01*
X0130205Y0205620D02*
X0131395Y0205620D01*
X0131373Y0205521D02*
X0130227Y0205521D01*
X0130249Y0205423D02*
X0131351Y0205423D01*
X0131328Y0205324D02*
X0130272Y0205324D01*
X0130294Y0205226D02*
X0131306Y0205226D01*
X0131283Y0205127D02*
X0130316Y0205127D01*
X0130339Y0205029D02*
X0131261Y0205029D01*
X0131239Y0204930D02*
X0130361Y0204930D01*
X0130384Y0204832D02*
X0131216Y0204832D01*
X0131194Y0204733D02*
X0130406Y0204733D01*
X0130428Y0204635D02*
X0131172Y0204635D01*
X0131149Y0204536D02*
X0130451Y0204536D01*
X0130473Y0204438D02*
X0131127Y0204438D01*
X0131104Y0204339D02*
X0130496Y0204339D01*
X0130518Y0204241D02*
X0131082Y0204241D01*
X0131060Y0204142D02*
X0130540Y0204142D01*
X0130563Y0204044D02*
X0131037Y0204044D01*
X0131015Y0203945D02*
X0130585Y0203945D01*
X0130608Y0203847D02*
X0130992Y0203847D01*
X0130970Y0203748D02*
X0130630Y0203748D01*
X0130652Y0203650D02*
X0130948Y0203650D01*
X0130925Y0203551D02*
X0130675Y0203551D01*
X0130697Y0203453D02*
X0130903Y0203453D01*
X0130880Y0203354D02*
X0130720Y0203354D01*
X0130742Y0203256D02*
X0130858Y0203256D01*
X0130836Y0203157D02*
X0130764Y0203157D01*
X0130787Y0203059D02*
X0130813Y0203059D01*
X0130800Y0203000D02*
X0131800Y0207400D01*
X0130800Y0208100D01*
X0129800Y0207400D01*
X0130800Y0203000D01*
X0129913Y0206901D02*
X0131686Y0206901D01*
X0131709Y0206999D02*
X0129891Y0206999D01*
X0129869Y0207098D02*
X0131731Y0207098D01*
X0131754Y0207196D02*
X0129846Y0207196D01*
X0129824Y0207295D02*
X0131776Y0207295D01*
X0131798Y0207393D02*
X0129802Y0207393D01*
X0129931Y0207492D02*
X0131669Y0207492D01*
X0131528Y0207590D02*
X0130072Y0207590D01*
X0130212Y0207689D02*
X0131388Y0207689D01*
X0131247Y0207787D02*
X0130353Y0207787D01*
X0130494Y0207886D02*
X0131106Y0207886D01*
X0130965Y0207984D02*
X0130635Y0207984D01*
X0130775Y0208083D02*
X0130825Y0208083D01*
X0131456Y0209166D02*
X0134672Y0209166D01*
X0134735Y0209068D02*
X0131605Y0209068D01*
X0131754Y0208969D02*
X0134797Y0208969D01*
X0134860Y0208871D02*
X0131903Y0208871D01*
X0132052Y0208772D02*
X0134922Y0208772D01*
X0134985Y0208674D02*
X0132201Y0208674D01*
X0132350Y0208575D02*
X0135047Y0208575D01*
X0135110Y0208477D02*
X0132499Y0208477D01*
X0132648Y0208378D02*
X0135173Y0208378D01*
X0135235Y0208280D02*
X0132797Y0208280D01*
X0132945Y0208181D02*
X0135298Y0208181D01*
X0135360Y0208083D02*
X0133094Y0208083D01*
X0133243Y0207984D02*
X0135423Y0207984D01*
X0135485Y0207886D02*
X0133392Y0207886D01*
X0133541Y0207787D02*
X0135548Y0207787D01*
X0135610Y0207689D02*
X0133690Y0207689D01*
X0133839Y0207590D02*
X0135673Y0207590D01*
X0135735Y0207492D02*
X0133988Y0207492D01*
X0134137Y0207393D02*
X0135798Y0207393D01*
X0135861Y0207295D02*
X0134286Y0207295D01*
X0134435Y0207196D02*
X0135923Y0207196D01*
X0135986Y0207098D02*
X0134584Y0207098D01*
X0134733Y0206999D02*
X0136048Y0206999D01*
X0136111Y0206901D02*
X0134882Y0206901D01*
X0135031Y0206802D02*
X0136173Y0206802D01*
X0136236Y0206704D02*
X0135180Y0206704D01*
X0135329Y0206605D02*
X0136298Y0206605D01*
X0136361Y0206507D02*
X0135478Y0206507D01*
X0135627Y0206408D02*
X0136423Y0206408D01*
X0136486Y0206309D02*
X0135776Y0206309D01*
X0135925Y0206211D02*
X0136549Y0206211D01*
X0136611Y0206112D02*
X0136074Y0206112D01*
X0136223Y0206014D02*
X0136674Y0206014D01*
X0136736Y0205915D02*
X0136372Y0205915D01*
X0136521Y0205817D02*
X0136799Y0205817D01*
X0136861Y0205718D02*
X0136670Y0205718D01*
X0136819Y0205620D02*
X0136924Y0205620D01*
X0136968Y0205521D02*
X0136986Y0205521D01*
X0134610Y0209265D02*
X0131307Y0209265D01*
X0131158Y0209363D02*
X0134547Y0209363D01*
X0134485Y0209462D02*
X0131009Y0209462D01*
X0134448Y0211728D02*
X0139046Y0211728D01*
X0139272Y0211826D02*
X0134417Y0211826D01*
X0134400Y0211800D02*
X0135000Y0210900D01*
X0139400Y0211800D01*
X0135000Y0212700D01*
X0134400Y0211800D01*
X0134483Y0211925D02*
X0138791Y0211925D01*
X0138565Y0211629D02*
X0134514Y0211629D01*
X0134580Y0211531D02*
X0138083Y0211531D01*
X0137601Y0211432D02*
X0134645Y0211432D01*
X0134711Y0211334D02*
X0137120Y0211334D01*
X0136638Y0211235D02*
X0134777Y0211235D01*
X0134842Y0211137D02*
X0136156Y0211137D01*
X0135675Y0211038D02*
X0134908Y0211038D01*
X0134974Y0210940D02*
X0135193Y0210940D01*
X0134549Y0212023D02*
X0138309Y0212023D01*
X0137827Y0212122D02*
X0134614Y0212122D01*
X0134680Y0212220D02*
X0137346Y0212220D01*
X0136864Y0212319D02*
X0134746Y0212319D01*
X0134811Y0212417D02*
X0136383Y0212417D01*
X0135901Y0212516D02*
X0134877Y0212516D01*
X0134943Y0212614D02*
X0135419Y0212614D01*
X0134428Y0214092D02*
X0130941Y0214092D01*
X0131093Y0214190D02*
X0134489Y0214190D01*
X0134550Y0214289D02*
X0131244Y0214289D01*
X0131396Y0214387D02*
X0134612Y0214387D01*
X0134673Y0214486D02*
X0131548Y0214486D01*
X0131699Y0214584D02*
X0134735Y0214584D01*
X0134796Y0214683D02*
X0131851Y0214683D01*
X0132002Y0214781D02*
X0134857Y0214781D01*
X0134919Y0214880D02*
X0132154Y0214880D01*
X0132305Y0214978D02*
X0134980Y0214978D01*
X0135041Y0215077D02*
X0132457Y0215077D01*
X0132608Y0215176D02*
X0135103Y0215176D01*
X0135164Y0215274D02*
X0132760Y0215274D01*
X0132912Y0215373D02*
X0135226Y0215373D01*
X0135287Y0215471D02*
X0133063Y0215471D01*
X0133215Y0215570D02*
X0135348Y0215570D01*
X0135410Y0215668D02*
X0133366Y0215668D01*
X0133518Y0215767D02*
X0135471Y0215767D01*
X0135532Y0215865D02*
X0133669Y0215865D01*
X0133821Y0215964D02*
X0135594Y0215964D01*
X0135655Y0216062D02*
X0133972Y0216062D01*
X0134124Y0216161D02*
X0135716Y0216161D01*
X0135778Y0216259D02*
X0134276Y0216259D01*
X0134427Y0216358D02*
X0135839Y0216358D01*
X0135901Y0216456D02*
X0134579Y0216456D01*
X0134730Y0216555D02*
X0135962Y0216555D01*
X0136023Y0216653D02*
X0134882Y0216653D01*
X0135033Y0216752D02*
X0136085Y0216752D01*
X0136146Y0216850D02*
X0135185Y0216850D01*
X0135337Y0216949D02*
X0136207Y0216949D01*
X0136269Y0217047D02*
X0135488Y0217047D01*
X0135640Y0217146D02*
X0136330Y0217146D01*
X0136391Y0217244D02*
X0135791Y0217244D01*
X0135943Y0217343D02*
X0136453Y0217343D01*
X0136514Y0217441D02*
X0136094Y0217441D01*
X0136246Y0217540D02*
X0136576Y0217540D01*
X0136637Y0217638D02*
X0136397Y0217638D01*
X0136549Y0217737D02*
X0136698Y0217737D01*
X0136701Y0217835D02*
X0136760Y0217835D01*
X0127200Y0211800D02*
X0126600Y0212700D01*
X0122000Y0211800D01*
X0126600Y0210900D01*
X0127200Y0211800D01*
X0127183Y0211826D02*
X0122134Y0211826D01*
X0122370Y0211728D02*
X0127152Y0211728D01*
X0127086Y0211629D02*
X0122873Y0211629D01*
X0122637Y0211925D02*
X0127117Y0211925D01*
X0127051Y0212023D02*
X0123141Y0212023D01*
X0123644Y0212122D02*
X0126986Y0212122D01*
X0126920Y0212220D02*
X0124148Y0212220D01*
X0124651Y0212319D02*
X0126854Y0212319D01*
X0126789Y0212417D02*
X0125155Y0212417D01*
X0125658Y0212516D02*
X0126723Y0212516D01*
X0126657Y0212614D02*
X0126162Y0212614D01*
X0127020Y0211531D02*
X0123377Y0211531D01*
X0123880Y0211432D02*
X0126955Y0211432D01*
X0126889Y0211334D02*
X0124384Y0211334D01*
X0124887Y0211235D02*
X0126823Y0211235D01*
X0126758Y0211137D02*
X0125391Y0211137D01*
X0125894Y0211038D02*
X0126692Y0211038D01*
X0126626Y0210940D02*
X0126398Y0210940D01*
D17*
X0129415Y0061737D03*
X0129415Y0059769D03*
X0129415Y0057800D03*
X0129415Y0055831D03*
X0129415Y0053863D03*
X0118185Y0053863D03*
X0118185Y0055831D03*
X0118185Y0057800D03*
X0118185Y0059769D03*
X0118185Y0061737D03*
D18*
X0121831Y0063320D03*
X0123800Y0063320D03*
X0125769Y0063320D03*
X0125769Y0052280D03*
X0123800Y0052280D03*
X0121831Y0052280D03*
D19*
X0155800Y0126800D03*
X0155800Y0136800D03*
X0165800Y0196800D03*
X0155800Y0197800D03*
X0175800Y0197800D03*
X0107300Y0198300D03*
X0097300Y0197300D03*
X0087300Y0198300D03*
D20*
X0202703Y0178237D03*
X0208649Y0211958D03*
D21*
X0185800Y0176800D03*
X0175800Y0176800D03*
X0165800Y0176800D03*
X0155800Y0176800D03*
X0145800Y0176800D03*
X0135800Y0176800D03*
X0125800Y0176800D03*
X0115800Y0176800D03*
X0105800Y0176800D03*
X0095800Y0176800D03*
X0085800Y0176800D03*
X0075800Y0176800D03*
X0075800Y0166800D03*
X0085800Y0166800D03*
X0095800Y0166800D03*
X0105800Y0166800D03*
X0115800Y0166800D03*
X0125800Y0166800D03*
X0135800Y0166800D03*
X0145800Y0166800D03*
X0155800Y0166800D03*
X0165800Y0166800D03*
X0175800Y0166800D03*
X0185800Y0166800D03*
X0185800Y0096800D03*
X0175800Y0096800D03*
X0165800Y0096800D03*
X0155800Y0096800D03*
X0145800Y0096800D03*
X0135800Y0096800D03*
X0125800Y0096800D03*
X0115800Y0096800D03*
X0105800Y0096800D03*
X0095800Y0096800D03*
X0085800Y0096800D03*
X0075800Y0096800D03*
X0075800Y0086800D03*
X0085800Y0086800D03*
X0095800Y0086800D03*
X0105800Y0086800D03*
X0115800Y0086800D03*
X0125800Y0086800D03*
X0135800Y0086800D03*
X0145800Y0086800D03*
X0155800Y0086800D03*
X0165800Y0086800D03*
X0175800Y0086800D03*
X0185800Y0086800D03*
D22*
X0157115Y0059737D03*
X0157115Y0057769D03*
X0157115Y0055800D03*
X0157115Y0053831D03*
X0157115Y0051863D03*
X0146485Y0051863D03*
X0146485Y0053831D03*
X0146485Y0055800D03*
X0146485Y0057769D03*
X0146485Y0059737D03*
D23*
X0149831Y0061115D03*
X0151800Y0061115D03*
X0153769Y0061115D03*
X0153769Y0050485D03*
X0151800Y0050485D03*
X0149831Y0050485D03*
M02*
