G75*
%MOIN*%
%OFA0B0*%
%FSLAX25Y25*%
%IPPOS*%
%LPD*%
%AMOC8*
5,1,8,0,0,1.08239X$1,22.5*
%
%ADD10C,0.01600*%
%ADD11C,0.00000*%
D10*
X0001800Y0131800D02*
X0001839Y0134966D01*
X0001955Y0138130D01*
X0002150Y0141290D01*
X0002421Y0144444D01*
X0002770Y0147591D01*
X0003196Y0150728D01*
X0003699Y0153854D01*
X0004279Y0156967D01*
X0004934Y0160064D01*
X0005666Y0163144D01*
X0006473Y0166206D01*
X0007355Y0169247D01*
X0008311Y0172265D01*
X0009341Y0175259D01*
X0010444Y0178226D01*
X0011620Y0181166D01*
X0012867Y0184076D01*
X0014185Y0186955D01*
X0015574Y0189800D01*
X0017032Y0192610D01*
X0018559Y0195384D01*
X0020153Y0198119D01*
X0021814Y0200815D01*
X0023540Y0203469D01*
X0025332Y0206079D01*
X0027186Y0208645D01*
X0029103Y0211165D01*
X0031082Y0213637D01*
X0033120Y0216059D01*
X0035217Y0218431D01*
X0037372Y0220751D01*
X0039583Y0223017D01*
X0041849Y0225228D01*
X0044169Y0227383D01*
X0046541Y0229480D01*
X0048963Y0231518D01*
X0051435Y0233497D01*
X0053955Y0235414D01*
X0056521Y0237268D01*
X0059131Y0239060D01*
X0061785Y0240786D01*
X0064481Y0242447D01*
X0067216Y0244041D01*
X0069990Y0245568D01*
X0072800Y0247026D01*
X0075645Y0248415D01*
X0078524Y0249733D01*
X0081434Y0250980D01*
X0084374Y0252156D01*
X0087341Y0253259D01*
X0090335Y0254289D01*
X0093353Y0255245D01*
X0096394Y0256127D01*
X0099456Y0256934D01*
X0102536Y0257666D01*
X0105633Y0258321D01*
X0108746Y0258901D01*
X0111872Y0259404D01*
X0115009Y0259830D01*
X0118156Y0260179D01*
X0121310Y0260450D01*
X0124470Y0260645D01*
X0127634Y0260761D01*
X0130800Y0260800D01*
X0133966Y0260761D01*
X0137130Y0260645D01*
X0140290Y0260450D01*
X0143444Y0260179D01*
X0146591Y0259830D01*
X0149728Y0259404D01*
X0152854Y0258901D01*
X0155967Y0258321D01*
X0159064Y0257666D01*
X0162144Y0256934D01*
X0165206Y0256127D01*
X0168247Y0255245D01*
X0171265Y0254289D01*
X0174259Y0253259D01*
X0177226Y0252156D01*
X0180166Y0250980D01*
X0183076Y0249733D01*
X0185955Y0248415D01*
X0188800Y0247026D01*
X0191610Y0245568D01*
X0194384Y0244041D01*
X0197119Y0242447D01*
X0199815Y0240786D01*
X0202469Y0239060D01*
X0205079Y0237268D01*
X0207645Y0235414D01*
X0210165Y0233497D01*
X0212637Y0231518D01*
X0215059Y0229480D01*
X0217431Y0227383D01*
X0219751Y0225228D01*
X0222017Y0223017D01*
X0224228Y0220751D01*
X0226383Y0218431D01*
X0228480Y0216059D01*
X0230518Y0213637D01*
X0232497Y0211165D01*
X0234414Y0208645D01*
X0236268Y0206079D01*
X0238060Y0203469D01*
X0239786Y0200815D01*
X0241447Y0198119D01*
X0243041Y0195384D01*
X0244568Y0192610D01*
X0246026Y0189800D01*
X0247415Y0186955D01*
X0248733Y0184076D01*
X0249980Y0181166D01*
X0251156Y0178226D01*
X0252259Y0175259D01*
X0253289Y0172265D01*
X0254245Y0169247D01*
X0255127Y0166206D01*
X0255934Y0163144D01*
X0256666Y0160064D01*
X0257321Y0156967D01*
X0257901Y0153854D01*
X0258404Y0150728D01*
X0258830Y0147591D01*
X0259179Y0144444D01*
X0259450Y0141290D01*
X0259645Y0138130D01*
X0259761Y0134966D01*
X0259800Y0131800D01*
X0259761Y0128634D01*
X0259645Y0125470D01*
X0259450Y0122310D01*
X0259179Y0119156D01*
X0258830Y0116009D01*
X0258404Y0112872D01*
X0257901Y0109746D01*
X0257321Y0106633D01*
X0256666Y0103536D01*
X0255934Y0100456D01*
X0255127Y0097394D01*
X0254245Y0094353D01*
X0253289Y0091335D01*
X0252259Y0088341D01*
X0251156Y0085374D01*
X0249980Y0082434D01*
X0248733Y0079524D01*
X0247415Y0076645D01*
X0246026Y0073800D01*
X0244568Y0070990D01*
X0243041Y0068216D01*
X0241447Y0065481D01*
X0239786Y0062785D01*
X0238060Y0060131D01*
X0236268Y0057521D01*
X0234414Y0054955D01*
X0232497Y0052435D01*
X0230518Y0049963D01*
X0228480Y0047541D01*
X0226383Y0045169D01*
X0224228Y0042849D01*
X0222017Y0040583D01*
X0219751Y0038372D01*
X0217431Y0036217D01*
X0215059Y0034120D01*
X0212637Y0032082D01*
X0210165Y0030103D01*
X0207645Y0028186D01*
X0205079Y0026332D01*
X0202469Y0024540D01*
X0199815Y0022814D01*
X0197119Y0021153D01*
X0194384Y0019559D01*
X0191610Y0018032D01*
X0188800Y0016574D01*
X0185955Y0015185D01*
X0183076Y0013867D01*
X0180166Y0012620D01*
X0177226Y0011444D01*
X0174259Y0010341D01*
X0171265Y0009311D01*
X0168247Y0008355D01*
X0165206Y0007473D01*
X0162144Y0006666D01*
X0159064Y0005934D01*
X0155967Y0005279D01*
X0152854Y0004699D01*
X0149728Y0004196D01*
X0146591Y0003770D01*
X0143444Y0003421D01*
X0140290Y0003150D01*
X0137130Y0002955D01*
X0133966Y0002839D01*
X0130800Y0002800D01*
X0127634Y0002839D01*
X0124470Y0002955D01*
X0121310Y0003150D01*
X0118156Y0003421D01*
X0115009Y0003770D01*
X0111872Y0004196D01*
X0108746Y0004699D01*
X0105633Y0005279D01*
X0102536Y0005934D01*
X0099456Y0006666D01*
X0096394Y0007473D01*
X0093353Y0008355D01*
X0090335Y0009311D01*
X0087341Y0010341D01*
X0084374Y0011444D01*
X0081434Y0012620D01*
X0078524Y0013867D01*
X0075645Y0015185D01*
X0072800Y0016574D01*
X0069990Y0018032D01*
X0067216Y0019559D01*
X0064481Y0021153D01*
X0061785Y0022814D01*
X0059131Y0024540D01*
X0056521Y0026332D01*
X0053955Y0028186D01*
X0051435Y0030103D01*
X0048963Y0032082D01*
X0046541Y0034120D01*
X0044169Y0036217D01*
X0041849Y0038372D01*
X0039583Y0040583D01*
X0037372Y0042849D01*
X0035217Y0045169D01*
X0033120Y0047541D01*
X0031082Y0049963D01*
X0029103Y0052435D01*
X0027186Y0054955D01*
X0025332Y0057521D01*
X0023540Y0060131D01*
X0021814Y0062785D01*
X0020153Y0065481D01*
X0018559Y0068216D01*
X0017032Y0070990D01*
X0015574Y0073800D01*
X0014185Y0076645D01*
X0012867Y0079524D01*
X0011620Y0082434D01*
X0010444Y0085374D01*
X0009341Y0088341D01*
X0008311Y0091335D01*
X0007355Y0094353D01*
X0006473Y0097394D01*
X0005666Y0100456D01*
X0004934Y0103536D01*
X0004279Y0106633D01*
X0003699Y0109746D01*
X0003196Y0112872D01*
X0002770Y0116009D01*
X0002421Y0119156D01*
X0002150Y0122310D01*
X0001955Y0125470D01*
X0001839Y0128634D01*
X0001800Y0131800D01*
D11*
X0124550Y0131800D02*
X0124552Y0131958D01*
X0124558Y0132115D01*
X0124568Y0132273D01*
X0124582Y0132430D01*
X0124600Y0132586D01*
X0124621Y0132743D01*
X0124647Y0132898D01*
X0124677Y0133053D01*
X0124710Y0133207D01*
X0124748Y0133360D01*
X0124789Y0133513D01*
X0124834Y0133664D01*
X0124883Y0133814D01*
X0124936Y0133962D01*
X0124992Y0134110D01*
X0125053Y0134255D01*
X0125116Y0134400D01*
X0125184Y0134542D01*
X0125255Y0134683D01*
X0125329Y0134822D01*
X0125407Y0134959D01*
X0125489Y0135094D01*
X0125573Y0135227D01*
X0125662Y0135358D01*
X0125753Y0135486D01*
X0125848Y0135613D01*
X0125945Y0135736D01*
X0126046Y0135858D01*
X0126150Y0135976D01*
X0126257Y0136092D01*
X0126367Y0136205D01*
X0126479Y0136316D01*
X0126595Y0136423D01*
X0126713Y0136528D01*
X0126833Y0136630D01*
X0126956Y0136728D01*
X0127082Y0136824D01*
X0127210Y0136916D01*
X0127340Y0137005D01*
X0127472Y0137091D01*
X0127607Y0137173D01*
X0127744Y0137252D01*
X0127882Y0137327D01*
X0128022Y0137399D01*
X0128165Y0137467D01*
X0128308Y0137532D01*
X0128454Y0137593D01*
X0128601Y0137650D01*
X0128749Y0137704D01*
X0128899Y0137754D01*
X0129049Y0137800D01*
X0129201Y0137842D01*
X0129354Y0137881D01*
X0129508Y0137915D01*
X0129663Y0137946D01*
X0129818Y0137972D01*
X0129974Y0137995D01*
X0130131Y0138014D01*
X0130288Y0138029D01*
X0130445Y0138040D01*
X0130603Y0138047D01*
X0130761Y0138050D01*
X0130918Y0138049D01*
X0131076Y0138044D01*
X0131233Y0138035D01*
X0131391Y0138022D01*
X0131547Y0138005D01*
X0131704Y0137984D01*
X0131859Y0137960D01*
X0132014Y0137931D01*
X0132169Y0137898D01*
X0132322Y0137862D01*
X0132475Y0137821D01*
X0132626Y0137777D01*
X0132776Y0137729D01*
X0132925Y0137678D01*
X0133073Y0137622D01*
X0133219Y0137563D01*
X0133364Y0137500D01*
X0133507Y0137433D01*
X0133648Y0137363D01*
X0133787Y0137290D01*
X0133925Y0137213D01*
X0134061Y0137132D01*
X0134194Y0137048D01*
X0134325Y0136961D01*
X0134454Y0136870D01*
X0134581Y0136776D01*
X0134706Y0136679D01*
X0134827Y0136579D01*
X0134947Y0136476D01*
X0135063Y0136370D01*
X0135177Y0136261D01*
X0135289Y0136149D01*
X0135397Y0136035D01*
X0135502Y0135917D01*
X0135605Y0135797D01*
X0135704Y0135675D01*
X0135800Y0135550D01*
X0135893Y0135422D01*
X0135983Y0135293D01*
X0136069Y0135161D01*
X0136153Y0135027D01*
X0136232Y0134891D01*
X0136309Y0134753D01*
X0136381Y0134613D01*
X0136450Y0134471D01*
X0136516Y0134328D01*
X0136578Y0134183D01*
X0136636Y0134036D01*
X0136691Y0133888D01*
X0136742Y0133739D01*
X0136789Y0133588D01*
X0136832Y0133437D01*
X0136871Y0133284D01*
X0136907Y0133130D01*
X0136938Y0132976D01*
X0136966Y0132821D01*
X0136990Y0132665D01*
X0137010Y0132508D01*
X0137026Y0132351D01*
X0137038Y0132194D01*
X0137046Y0132037D01*
X0137050Y0131879D01*
X0137050Y0131721D01*
X0137046Y0131563D01*
X0137038Y0131406D01*
X0137026Y0131249D01*
X0137010Y0131092D01*
X0136990Y0130935D01*
X0136966Y0130779D01*
X0136938Y0130624D01*
X0136907Y0130470D01*
X0136871Y0130316D01*
X0136832Y0130163D01*
X0136789Y0130012D01*
X0136742Y0129861D01*
X0136691Y0129712D01*
X0136636Y0129564D01*
X0136578Y0129417D01*
X0136516Y0129272D01*
X0136450Y0129129D01*
X0136381Y0128987D01*
X0136309Y0128847D01*
X0136232Y0128709D01*
X0136153Y0128573D01*
X0136069Y0128439D01*
X0135983Y0128307D01*
X0135893Y0128178D01*
X0135800Y0128050D01*
X0135704Y0127925D01*
X0135605Y0127803D01*
X0135502Y0127683D01*
X0135397Y0127565D01*
X0135289Y0127451D01*
X0135177Y0127339D01*
X0135063Y0127230D01*
X0134947Y0127124D01*
X0134827Y0127021D01*
X0134706Y0126921D01*
X0134581Y0126824D01*
X0134454Y0126730D01*
X0134325Y0126639D01*
X0134194Y0126552D01*
X0134061Y0126468D01*
X0133925Y0126387D01*
X0133787Y0126310D01*
X0133648Y0126237D01*
X0133507Y0126167D01*
X0133364Y0126100D01*
X0133219Y0126037D01*
X0133073Y0125978D01*
X0132925Y0125922D01*
X0132776Y0125871D01*
X0132626Y0125823D01*
X0132475Y0125779D01*
X0132322Y0125738D01*
X0132169Y0125702D01*
X0132014Y0125669D01*
X0131859Y0125640D01*
X0131704Y0125616D01*
X0131547Y0125595D01*
X0131391Y0125578D01*
X0131233Y0125565D01*
X0131076Y0125556D01*
X0130918Y0125551D01*
X0130761Y0125550D01*
X0130603Y0125553D01*
X0130445Y0125560D01*
X0130288Y0125571D01*
X0130131Y0125586D01*
X0129974Y0125605D01*
X0129818Y0125628D01*
X0129663Y0125654D01*
X0129508Y0125685D01*
X0129354Y0125719D01*
X0129201Y0125758D01*
X0129049Y0125800D01*
X0128899Y0125846D01*
X0128749Y0125896D01*
X0128601Y0125950D01*
X0128454Y0126007D01*
X0128308Y0126068D01*
X0128165Y0126133D01*
X0128022Y0126201D01*
X0127882Y0126273D01*
X0127744Y0126348D01*
X0127607Y0126427D01*
X0127472Y0126509D01*
X0127340Y0126595D01*
X0127210Y0126684D01*
X0127082Y0126776D01*
X0126956Y0126872D01*
X0126833Y0126970D01*
X0126713Y0127072D01*
X0126595Y0127177D01*
X0126479Y0127284D01*
X0126367Y0127395D01*
X0126257Y0127508D01*
X0126150Y0127624D01*
X0126046Y0127742D01*
X0125945Y0127864D01*
X0125848Y0127987D01*
X0125753Y0128114D01*
X0125662Y0128242D01*
X0125573Y0128373D01*
X0125489Y0128506D01*
X0125407Y0128641D01*
X0125329Y0128778D01*
X0125255Y0128917D01*
X0125184Y0129058D01*
X0125116Y0129200D01*
X0125053Y0129345D01*
X0124992Y0129490D01*
X0124936Y0129638D01*
X0124883Y0129786D01*
X0124834Y0129936D01*
X0124789Y0130087D01*
X0124748Y0130240D01*
X0124710Y0130393D01*
X0124677Y0130547D01*
X0124647Y0130702D01*
X0124621Y0130857D01*
X0124600Y0131014D01*
X0124582Y0131170D01*
X0124568Y0131327D01*
X0124558Y0131485D01*
X0124552Y0131642D01*
X0124550Y0131800D01*
X0201128Y0178237D02*
X0201130Y0178316D01*
X0201136Y0178395D01*
X0201146Y0178474D01*
X0201160Y0178552D01*
X0201177Y0178629D01*
X0201199Y0178705D01*
X0201224Y0178780D01*
X0201254Y0178853D01*
X0201286Y0178925D01*
X0201323Y0178996D01*
X0201363Y0179064D01*
X0201406Y0179130D01*
X0201452Y0179194D01*
X0201502Y0179256D01*
X0201555Y0179315D01*
X0201610Y0179371D01*
X0201669Y0179425D01*
X0201730Y0179475D01*
X0201793Y0179523D01*
X0201859Y0179567D01*
X0201927Y0179608D01*
X0201997Y0179645D01*
X0202068Y0179679D01*
X0202142Y0179709D01*
X0202216Y0179735D01*
X0202292Y0179757D01*
X0202369Y0179776D01*
X0202447Y0179791D01*
X0202525Y0179802D01*
X0202604Y0179809D01*
X0202683Y0179812D01*
X0202762Y0179811D01*
X0202841Y0179806D01*
X0202920Y0179797D01*
X0202998Y0179784D01*
X0203075Y0179767D01*
X0203152Y0179747D01*
X0203227Y0179722D01*
X0203301Y0179694D01*
X0203374Y0179662D01*
X0203444Y0179627D01*
X0203513Y0179588D01*
X0203580Y0179545D01*
X0203645Y0179499D01*
X0203707Y0179451D01*
X0203767Y0179399D01*
X0203824Y0179344D01*
X0203878Y0179286D01*
X0203929Y0179226D01*
X0203977Y0179163D01*
X0204022Y0179098D01*
X0204064Y0179030D01*
X0204102Y0178961D01*
X0204136Y0178890D01*
X0204167Y0178817D01*
X0204195Y0178742D01*
X0204218Y0178667D01*
X0204238Y0178590D01*
X0204254Y0178513D01*
X0204266Y0178434D01*
X0204274Y0178356D01*
X0204278Y0178277D01*
X0204278Y0178197D01*
X0204274Y0178118D01*
X0204266Y0178040D01*
X0204254Y0177961D01*
X0204238Y0177884D01*
X0204218Y0177807D01*
X0204195Y0177732D01*
X0204167Y0177657D01*
X0204136Y0177584D01*
X0204102Y0177513D01*
X0204064Y0177444D01*
X0204022Y0177376D01*
X0203977Y0177311D01*
X0203929Y0177248D01*
X0203878Y0177188D01*
X0203824Y0177130D01*
X0203767Y0177075D01*
X0203707Y0177023D01*
X0203645Y0176975D01*
X0203580Y0176929D01*
X0203513Y0176886D01*
X0203444Y0176847D01*
X0203374Y0176812D01*
X0203301Y0176780D01*
X0203227Y0176752D01*
X0203152Y0176727D01*
X0203075Y0176707D01*
X0202998Y0176690D01*
X0202920Y0176677D01*
X0202841Y0176668D01*
X0202762Y0176663D01*
X0202683Y0176662D01*
X0202604Y0176665D01*
X0202525Y0176672D01*
X0202447Y0176683D01*
X0202369Y0176698D01*
X0202292Y0176717D01*
X0202216Y0176739D01*
X0202142Y0176765D01*
X0202068Y0176795D01*
X0201997Y0176829D01*
X0201927Y0176866D01*
X0201859Y0176907D01*
X0201793Y0176951D01*
X0201730Y0176999D01*
X0201669Y0177049D01*
X0201610Y0177103D01*
X0201555Y0177159D01*
X0201502Y0177218D01*
X0201452Y0177280D01*
X0201406Y0177344D01*
X0201363Y0177410D01*
X0201323Y0177478D01*
X0201286Y0177549D01*
X0201254Y0177621D01*
X0201224Y0177694D01*
X0201199Y0177769D01*
X0201177Y0177845D01*
X0201160Y0177922D01*
X0201146Y0178000D01*
X0201136Y0178079D01*
X0201130Y0178158D01*
X0201128Y0178237D01*
X0207074Y0211958D02*
X0207076Y0212037D01*
X0207082Y0212116D01*
X0207092Y0212195D01*
X0207106Y0212273D01*
X0207123Y0212350D01*
X0207145Y0212426D01*
X0207170Y0212501D01*
X0207200Y0212574D01*
X0207232Y0212646D01*
X0207269Y0212717D01*
X0207309Y0212785D01*
X0207352Y0212851D01*
X0207398Y0212915D01*
X0207448Y0212977D01*
X0207501Y0213036D01*
X0207556Y0213092D01*
X0207615Y0213146D01*
X0207676Y0213196D01*
X0207739Y0213244D01*
X0207805Y0213288D01*
X0207873Y0213329D01*
X0207943Y0213366D01*
X0208014Y0213400D01*
X0208088Y0213430D01*
X0208162Y0213456D01*
X0208238Y0213478D01*
X0208315Y0213497D01*
X0208393Y0213512D01*
X0208471Y0213523D01*
X0208550Y0213530D01*
X0208629Y0213533D01*
X0208708Y0213532D01*
X0208787Y0213527D01*
X0208866Y0213518D01*
X0208944Y0213505D01*
X0209021Y0213488D01*
X0209098Y0213468D01*
X0209173Y0213443D01*
X0209247Y0213415D01*
X0209320Y0213383D01*
X0209390Y0213348D01*
X0209459Y0213309D01*
X0209526Y0213266D01*
X0209591Y0213220D01*
X0209653Y0213172D01*
X0209713Y0213120D01*
X0209770Y0213065D01*
X0209824Y0213007D01*
X0209875Y0212947D01*
X0209923Y0212884D01*
X0209968Y0212819D01*
X0210010Y0212751D01*
X0210048Y0212682D01*
X0210082Y0212611D01*
X0210113Y0212538D01*
X0210141Y0212463D01*
X0210164Y0212388D01*
X0210184Y0212311D01*
X0210200Y0212234D01*
X0210212Y0212155D01*
X0210220Y0212077D01*
X0210224Y0211998D01*
X0210224Y0211918D01*
X0210220Y0211839D01*
X0210212Y0211761D01*
X0210200Y0211682D01*
X0210184Y0211605D01*
X0210164Y0211528D01*
X0210141Y0211453D01*
X0210113Y0211378D01*
X0210082Y0211305D01*
X0210048Y0211234D01*
X0210010Y0211165D01*
X0209968Y0211097D01*
X0209923Y0211032D01*
X0209875Y0210969D01*
X0209824Y0210909D01*
X0209770Y0210851D01*
X0209713Y0210796D01*
X0209653Y0210744D01*
X0209591Y0210696D01*
X0209526Y0210650D01*
X0209459Y0210607D01*
X0209390Y0210568D01*
X0209320Y0210533D01*
X0209247Y0210501D01*
X0209173Y0210473D01*
X0209098Y0210448D01*
X0209021Y0210428D01*
X0208944Y0210411D01*
X0208866Y0210398D01*
X0208787Y0210389D01*
X0208708Y0210384D01*
X0208629Y0210383D01*
X0208550Y0210386D01*
X0208471Y0210393D01*
X0208393Y0210404D01*
X0208315Y0210419D01*
X0208238Y0210438D01*
X0208162Y0210460D01*
X0208088Y0210486D01*
X0208014Y0210516D01*
X0207943Y0210550D01*
X0207873Y0210587D01*
X0207805Y0210628D01*
X0207739Y0210672D01*
X0207676Y0210720D01*
X0207615Y0210770D01*
X0207556Y0210824D01*
X0207501Y0210880D01*
X0207448Y0210939D01*
X0207398Y0211001D01*
X0207352Y0211065D01*
X0207309Y0211131D01*
X0207269Y0211199D01*
X0207232Y0211270D01*
X0207200Y0211342D01*
X0207170Y0211415D01*
X0207145Y0211490D01*
X0207123Y0211566D01*
X0207106Y0211643D01*
X0207092Y0211721D01*
X0207082Y0211800D01*
X0207076Y0211879D01*
X0207074Y0211958D01*
M02*
