G75*
%MOIN*%
%OFA0B0*%
%FSLAX25Y25*%
%IPPOS*%
%LPD*%
%AMOC8*
5,1,8,0,0,1.08239X$1,22.5*
%
%ADD10R,0.06299X0.10000*%
%ADD11R,0.10000X0.06299*%
%ADD12R,0.18110X0.03937*%
%ADD13R,0.13386X0.06299*%
%ADD14R,0.01181X0.01772*%
%ADD15R,0.12598X0.09843*%
%ADD16R,0.03900X0.07200*%
D10*
X0023957Y0103060D03*
X0043643Y0103060D03*
X0229757Y0103060D03*
X0249443Y0103060D03*
X0249443Y0160540D03*
X0229757Y0160540D03*
X0043643Y0160540D03*
X0023957Y0160540D03*
D11*
X0107660Y0018757D03*
X0165140Y0018757D03*
X0165140Y0038443D03*
X0107660Y0038443D03*
X0107560Y0225157D03*
X0165040Y0225157D03*
X0165040Y0244843D03*
X0107560Y0244843D03*
D12*
X0190967Y0135737D03*
X0190967Y0127863D03*
D13*
X0170494Y0118414D03*
X0170494Y0145186D03*
D14*
X0098369Y0146800D03*
X0096400Y0146800D03*
X0094431Y0146800D03*
X0094431Y0141485D03*
X0098369Y0141485D03*
D15*
G36*
X0224415Y0173418D02*
X0217189Y0183737D01*
X0225251Y0189382D01*
X0232477Y0179063D01*
X0224415Y0173418D01*
G37*
G36*
X0206349Y0199218D02*
X0199123Y0209537D01*
X0207185Y0215182D01*
X0214411Y0204863D01*
X0206349Y0199218D01*
G37*
D16*
X0191400Y0182800D03*
X0181400Y0182800D03*
X0171400Y0182800D03*
X0161400Y0182800D03*
X0151400Y0182800D03*
X0141400Y0182800D03*
X0131400Y0182800D03*
X0121400Y0182800D03*
X0111400Y0182800D03*
X0101400Y0182800D03*
X0091400Y0182800D03*
X0081400Y0182800D03*
X0081400Y0160800D03*
X0091400Y0160800D03*
X0101400Y0160800D03*
X0111400Y0160800D03*
X0121400Y0160800D03*
X0131400Y0160800D03*
X0141400Y0160800D03*
X0151400Y0160800D03*
X0161400Y0160800D03*
X0171400Y0160800D03*
X0181400Y0160800D03*
X0191400Y0160800D03*
X0191400Y0102800D03*
X0181400Y0102800D03*
X0171400Y0102800D03*
X0161400Y0102800D03*
X0151400Y0102800D03*
X0141400Y0102800D03*
X0131400Y0102800D03*
X0121400Y0102800D03*
X0111400Y0102800D03*
X0101400Y0102800D03*
X0091400Y0102800D03*
X0081400Y0102800D03*
X0081400Y0080800D03*
X0091400Y0080800D03*
X0101400Y0080800D03*
X0111400Y0080800D03*
X0121400Y0080800D03*
X0131400Y0080800D03*
X0141400Y0080800D03*
X0151400Y0080800D03*
X0161400Y0080800D03*
X0171400Y0080800D03*
X0181400Y0080800D03*
X0191400Y0080800D03*
M02*
