%
M48
M72
T01C0.01200
T02C0.01600
T03C0.03150
T04C0.04000
T05C0.12500
%
T01
X156680Y53655
X156680Y57655
T02
X118600Y34000
X123400Y21800
X172200Y24600
X180600Y29400
X145600Y43200
X137400Y42800
X137400Y46800
X118600Y46200
X118600Y52200
X129680Y57655
X148400Y55800
X166600Y55200
X169400Y47800
X184600Y60200
X172400Y64800
X153400Y63800
X149600Y67600
X153400Y70800
X142700Y67600
X139400Y70800
X131500Y67600
X134600Y74100
X193600Y68200
X225400Y65200
X220600Y56600
X237400Y77200
X201600Y78200
X242400Y108200
X98400Y136800
X26800Y141800
X61000Y174900
X48200Y199400
X52800Y207600
X92800Y233200
X101200Y238000
X149600Y242200
X203800Y221000
X212200Y216200
X229600Y203800
X238600Y175800
X206400Y151800
X30800Y98100
X34800Y88400
X60400Y48400
X68800Y43600
T03
X208303Y178237
X214249Y211958
T04
X191400Y197300
X181400Y196300
X171400Y197300
X171400Y176800
X161400Y176800
X151400Y176800
X141400Y176800
X131400Y176800
X121400Y176800
X111400Y176800
X101400Y176800
X91400Y176800
X81400Y176800
X81400Y166800
X91400Y166800
X101400Y166800
X111400Y166800
X121400Y166800
X131400Y166800
X141400Y166800
X151400Y166800
X161400Y166800
X171400Y166800
X181400Y166800
X191400Y166800
X191400Y176800
X181400Y176800
X101400Y197300
X91400Y196300
X81400Y197300
X161400Y136800
X161400Y126800
X161400Y96800
X151400Y96800
X141400Y96800
X131400Y96800
X121400Y96800
X111400Y96800
X101400Y96800
X91400Y96800
X81400Y96800
X81400Y86800
X91400Y86800
X101400Y86800
X111400Y86800
X121400Y86800
X131400Y86800
X141400Y86800
X151400Y86800
X161400Y86800
X171400Y86800
X181400Y86800
X191400Y86800
X191400Y96800
X181400Y96800
X171400Y96800
X23100Y90900
T05
X136400Y131800
M30
