G75*
%MOIN*%
%OFA0B0*%
%FSLAX25Y25*%
%IPPOS*%
%LPD*%
%AMOC8*
5,1,8,0,0,1.08239X$1,22.5*
%
%ADD10R,0.05906X0.03937*%
%ADD11R,0.03937X0.05906*%
%ADD12R,0.04331X0.03937*%
%ADD13R,0.03937X0.04331*%
%ADD14R,0.03750X0.01181*%
%ADD15R,0.01181X0.03350*%
%ADD16R,0.01969X0.00984*%
%ADD17R,0.00984X0.01969*%
D10*
G36*
X0088177Y0023842D02*
X0083063Y0026795D01*
X0085031Y0030202D01*
X0090145Y0027249D01*
X0088177Y0023842D01*
G37*
G36*
X0071470Y0033488D02*
X0066356Y0036441D01*
X0068324Y0039848D01*
X0073438Y0036895D01*
X0071470Y0033488D01*
G37*
G36*
X0094476Y0034752D02*
X0089362Y0037705D01*
X0091330Y0041112D01*
X0096444Y0038159D01*
X0094476Y0034752D01*
G37*
X0126754Y0028099D03*
X0146046Y0028099D03*
G36*
X0182938Y0037205D02*
X0177824Y0034252D01*
X0175856Y0037659D01*
X0180970Y0040612D01*
X0182938Y0037205D01*
G37*
G36*
X0205944Y0035941D02*
X0200830Y0032988D01*
X0198862Y0036395D01*
X0203976Y0039348D01*
X0205944Y0035941D01*
G37*
G36*
X0189237Y0026295D02*
X0184123Y0023342D01*
X0182155Y0026749D01*
X0187269Y0029702D01*
X0189237Y0026295D01*
G37*
X0146046Y0015501D03*
X0126754Y0015501D03*
G36*
X0199645Y0046851D02*
X0194531Y0043898D01*
X0192563Y0047305D01*
X0197677Y0050258D01*
X0199645Y0046851D01*
G37*
G36*
X0234712Y0066870D02*
X0231759Y0061756D01*
X0228352Y0063724D01*
X0231305Y0068838D01*
X0234712Y0066870D01*
G37*
G36*
X0223802Y0073169D02*
X0220849Y0068055D01*
X0217442Y0070023D01*
X0220395Y0075137D01*
X0223802Y0073169D01*
G37*
G36*
X0244358Y0083577D02*
X0241405Y0078463D01*
X0237998Y0080431D01*
X0240951Y0085545D01*
X0244358Y0083577D01*
G37*
G36*
X0233448Y0089876D02*
X0230495Y0084762D01*
X0227088Y0086730D01*
X0230041Y0091844D01*
X0233448Y0089876D01*
G37*
G36*
X0077769Y0044398D02*
X0072655Y0047351D01*
X0074623Y0050758D01*
X0079737Y0047805D01*
X0077769Y0044398D01*
G37*
G36*
X0041041Y0061756D02*
X0038088Y0066870D01*
X0041495Y0068838D01*
X0044448Y0063724D01*
X0041041Y0061756D01*
G37*
G36*
X0051951Y0068055D02*
X0048998Y0073169D01*
X0052405Y0075137D01*
X0055358Y0070023D01*
X0051951Y0068055D01*
G37*
G36*
X0031395Y0078463D02*
X0028442Y0083577D01*
X0031849Y0085545D01*
X0034802Y0080431D01*
X0031395Y0078463D01*
G37*
G36*
X0042305Y0084762D02*
X0039352Y0089876D01*
X0042759Y0091844D01*
X0045712Y0086730D01*
X0042305Y0084762D01*
G37*
G36*
X0039352Y0174724D02*
X0042305Y0179838D01*
X0045712Y0177870D01*
X0042759Y0172756D01*
X0039352Y0174724D01*
G37*
G36*
X0028442Y0181023D02*
X0031395Y0186137D01*
X0034802Y0184169D01*
X0031849Y0179055D01*
X0028442Y0181023D01*
G37*
G36*
X0048998Y0191431D02*
X0051951Y0196545D01*
X0055358Y0194577D01*
X0052405Y0189463D01*
X0048998Y0191431D01*
G37*
G36*
X0038088Y0197730D02*
X0041041Y0202844D01*
X0044448Y0200876D01*
X0041495Y0195762D01*
X0038088Y0197730D01*
G37*
G36*
X0072655Y0216749D02*
X0077769Y0219702D01*
X0079737Y0216295D01*
X0074623Y0213342D01*
X0072655Y0216749D01*
G37*
G36*
X0089362Y0226395D02*
X0094476Y0229348D01*
X0096444Y0225941D01*
X0091330Y0222988D01*
X0089362Y0226395D01*
G37*
G36*
X0066356Y0227659D02*
X0071470Y0230612D01*
X0073438Y0227205D01*
X0068324Y0224252D01*
X0066356Y0227659D01*
G37*
G36*
X0083063Y0237305D02*
X0088177Y0240258D01*
X0090145Y0236851D01*
X0085031Y0233898D01*
X0083063Y0237305D01*
G37*
X0126754Y0235501D03*
X0146046Y0235501D03*
G36*
X0178824Y0229848D02*
X0183938Y0226895D01*
X0181970Y0223488D01*
X0176856Y0226441D01*
X0178824Y0229848D01*
G37*
G36*
X0201830Y0231112D02*
X0206944Y0228159D01*
X0204976Y0224752D01*
X0199862Y0227705D01*
X0201830Y0231112D01*
G37*
G36*
X0185123Y0240758D02*
X0190237Y0237805D01*
X0188269Y0234398D01*
X0183155Y0237351D01*
X0185123Y0240758D01*
G37*
X0146046Y0248099D03*
X0126754Y0248099D03*
G36*
X0195531Y0220202D02*
X0200645Y0217249D01*
X0198677Y0213842D01*
X0193563Y0216795D01*
X0195531Y0220202D01*
G37*
G36*
X0232759Y0201844D02*
X0235712Y0196730D01*
X0232305Y0194762D01*
X0229352Y0199876D01*
X0232759Y0201844D01*
G37*
G36*
X0221849Y0195545D02*
X0224802Y0190431D01*
X0221395Y0188463D01*
X0218442Y0193577D01*
X0221849Y0195545D01*
G37*
G36*
X0242405Y0185137D02*
X0245358Y0180023D01*
X0241951Y0178055D01*
X0238998Y0183169D01*
X0242405Y0185137D01*
G37*
G36*
X0231495Y0178838D02*
X0234448Y0173724D01*
X0231041Y0171756D01*
X0228088Y0176870D01*
X0231495Y0178838D01*
G37*
D11*
X0240101Y0141446D03*
X0252699Y0141446D03*
X0252699Y0122154D03*
X0240101Y0122154D03*
D12*
X0239954Y0113600D03*
X0246646Y0113600D03*
G36*
X0216312Y0066959D02*
X0220060Y0064794D01*
X0218092Y0061387D01*
X0214344Y0063552D01*
X0216312Y0066959D01*
G37*
G36*
X0222108Y0063613D02*
X0225856Y0061448D01*
X0223888Y0058041D01*
X0220140Y0060206D01*
X0222108Y0063613D01*
G37*
X0157746Y0045800D03*
X0151054Y0045800D03*
X0129746Y0047300D03*
X0129746Y0042800D03*
X0123054Y0042800D03*
X0123054Y0047300D03*
G36*
X0173648Y0035656D02*
X0175813Y0031908D01*
X0172406Y0029940D01*
X0170241Y0033688D01*
X0173648Y0035656D01*
G37*
G36*
X0176994Y0029860D02*
X0179159Y0026112D01*
X0175752Y0024144D01*
X0173587Y0027892D01*
X0176994Y0029860D01*
G37*
G36*
X0070759Y0052688D02*
X0068594Y0048940D01*
X0065187Y0050908D01*
X0067352Y0054656D01*
X0070759Y0052688D01*
G37*
G36*
X0067413Y0046892D02*
X0065248Y0043144D01*
X0061841Y0045112D01*
X0064006Y0048860D01*
X0067413Y0046892D01*
G37*
G36*
X0035260Y0092106D02*
X0031512Y0089941D01*
X0029544Y0093348D01*
X0033292Y0095513D01*
X0035260Y0092106D01*
G37*
G36*
X0041056Y0095452D02*
X0037308Y0093287D01*
X0035340Y0096694D01*
X0039088Y0098859D01*
X0041056Y0095452D01*
G37*
G36*
X0232244Y0168748D02*
X0235992Y0170913D01*
X0237960Y0167506D01*
X0234212Y0165341D01*
X0232244Y0168748D01*
G37*
G36*
X0238040Y0172094D02*
X0241788Y0174259D01*
X0243756Y0170852D01*
X0240008Y0168687D01*
X0238040Y0172094D01*
G37*
G36*
X0201841Y0211912D02*
X0204006Y0215660D01*
X0207413Y0213692D01*
X0205248Y0209944D01*
X0201841Y0211912D01*
G37*
G36*
X0205187Y0217708D02*
X0207352Y0221456D01*
X0210759Y0219488D01*
X0208594Y0215740D01*
X0205187Y0217708D01*
G37*
G36*
X0099752Y0227044D02*
X0097587Y0230792D01*
X0100994Y0232760D01*
X0103159Y0229012D01*
X0099752Y0227044D01*
G37*
G36*
X0096406Y0232840D02*
X0094241Y0236588D01*
X0097648Y0238556D01*
X0099813Y0234808D01*
X0096406Y0232840D01*
G37*
G36*
X0051392Y0200687D02*
X0047644Y0202852D01*
X0049612Y0206259D01*
X0053360Y0204094D01*
X0051392Y0200687D01*
G37*
G36*
X0057188Y0197341D02*
X0053440Y0199506D01*
X0055408Y0202913D01*
X0059156Y0200748D01*
X0057188Y0197341D01*
G37*
D13*
X0069300Y0168846D03*
X0069300Y0162154D03*
X0154400Y0235454D03*
X0154400Y0242146D03*
X0143400Y0056146D03*
X0143400Y0049454D03*
X0118500Y0028246D03*
X0118500Y0021554D03*
D14*
X0123785Y0053863D03*
X0123785Y0055831D03*
X0123785Y0057800D03*
X0123785Y0059769D03*
X0123785Y0061737D03*
X0135015Y0061737D03*
X0135015Y0059769D03*
X0135015Y0057800D03*
X0135015Y0055831D03*
X0135015Y0053863D03*
D15*
X0131369Y0052280D03*
X0129400Y0052280D03*
X0127431Y0052280D03*
X0127431Y0063320D03*
X0129400Y0063320D03*
X0131369Y0063320D03*
D16*
X0152085Y0059737D03*
X0152085Y0057769D03*
X0152085Y0055800D03*
X0152085Y0053831D03*
X0152085Y0051863D03*
X0162715Y0051863D03*
X0162715Y0053831D03*
X0162715Y0055800D03*
X0162715Y0057769D03*
X0162715Y0059737D03*
D17*
X0159369Y0061115D03*
X0157400Y0061115D03*
X0155431Y0061115D03*
X0155431Y0050485D03*
X0157400Y0050485D03*
X0159369Y0050485D03*
M02*
