G75*
%MOIN*%
%OFA0B0*%
%FSLAX25Y25*%
%IPPOS*%
%LPD*%
%AMOC8*
5,1,8,0,0,1.08239X$1,22.5*
%
%ADD10R,0.05906X0.03937*%
%ADD11R,0.03937X0.05906*%
%ADD12R,0.04331X0.03937*%
%ADD13R,0.03937X0.04331*%
%ADD14R,0.03750X0.01181*%
%ADD15R,0.01181X0.03350*%
%ADD16R,0.01969X0.00984*%
%ADD17R,0.00984X0.01969*%
D10*
G36*
X0082577Y0023842D02*
X0077463Y0026795D01*
X0079431Y0030202D01*
X0084545Y0027249D01*
X0082577Y0023842D01*
G37*
G36*
X0065870Y0033488D02*
X0060756Y0036441D01*
X0062724Y0039848D01*
X0067838Y0036895D01*
X0065870Y0033488D01*
G37*
G36*
X0088876Y0034752D02*
X0083762Y0037705D01*
X0085730Y0041112D01*
X0090844Y0038159D01*
X0088876Y0034752D01*
G37*
X0121154Y0028099D03*
X0140446Y0028099D03*
G36*
X0177338Y0037205D02*
X0172224Y0034252D01*
X0170256Y0037659D01*
X0175370Y0040612D01*
X0177338Y0037205D01*
G37*
G36*
X0194045Y0046851D02*
X0188931Y0043898D01*
X0186963Y0047305D01*
X0192077Y0050258D01*
X0194045Y0046851D01*
G37*
G36*
X0200344Y0035941D02*
X0195230Y0032988D01*
X0193262Y0036395D01*
X0198376Y0039348D01*
X0200344Y0035941D01*
G37*
G36*
X0183637Y0026295D02*
X0178523Y0023342D01*
X0176555Y0026749D01*
X0181669Y0029702D01*
X0183637Y0026295D01*
G37*
X0140446Y0015501D03*
X0121154Y0015501D03*
G36*
X0072169Y0044398D02*
X0067055Y0047351D01*
X0069023Y0050758D01*
X0074137Y0047805D01*
X0072169Y0044398D01*
G37*
G36*
X0035441Y0061756D02*
X0032488Y0066870D01*
X0035895Y0068838D01*
X0038848Y0063724D01*
X0035441Y0061756D01*
G37*
G36*
X0046351Y0068055D02*
X0043398Y0073169D01*
X0046805Y0075137D01*
X0049758Y0070023D01*
X0046351Y0068055D01*
G37*
G36*
X0025795Y0078463D02*
X0022842Y0083577D01*
X0026249Y0085545D01*
X0029202Y0080431D01*
X0025795Y0078463D01*
G37*
G36*
X0036705Y0084762D02*
X0033752Y0089876D01*
X0037159Y0091844D01*
X0040112Y0086730D01*
X0036705Y0084762D01*
G37*
G36*
X0218202Y0073169D02*
X0215249Y0068055D01*
X0211842Y0070023D01*
X0214795Y0075137D01*
X0218202Y0073169D01*
G37*
G36*
X0229112Y0066870D02*
X0226159Y0061756D01*
X0222752Y0063724D01*
X0225705Y0068838D01*
X0229112Y0066870D01*
G37*
G36*
X0238758Y0083577D02*
X0235805Y0078463D01*
X0232398Y0080431D01*
X0235351Y0085545D01*
X0238758Y0083577D01*
G37*
G36*
X0227848Y0089876D02*
X0224895Y0084762D01*
X0221488Y0086730D01*
X0224441Y0091844D01*
X0227848Y0089876D01*
G37*
G36*
X0225895Y0178838D02*
X0228848Y0173724D01*
X0225441Y0171756D01*
X0222488Y0176870D01*
X0225895Y0178838D01*
G37*
G36*
X0236805Y0185137D02*
X0239758Y0180023D01*
X0236351Y0178055D01*
X0233398Y0183169D01*
X0236805Y0185137D01*
G37*
G36*
X0216249Y0195545D02*
X0219202Y0190431D01*
X0215795Y0188463D01*
X0212842Y0193577D01*
X0216249Y0195545D01*
G37*
G36*
X0227159Y0201844D02*
X0230112Y0196730D01*
X0226705Y0194762D01*
X0223752Y0199876D01*
X0227159Y0201844D01*
G37*
G36*
X0189931Y0220202D02*
X0195045Y0217249D01*
X0193077Y0213842D01*
X0187963Y0216795D01*
X0189931Y0220202D01*
G37*
G36*
X0173224Y0229848D02*
X0178338Y0226895D01*
X0176370Y0223488D01*
X0171256Y0226441D01*
X0173224Y0229848D01*
G37*
G36*
X0179523Y0240758D02*
X0184637Y0237805D01*
X0182669Y0234398D01*
X0177555Y0237351D01*
X0179523Y0240758D01*
G37*
X0140446Y0235501D03*
X0121154Y0235501D03*
G36*
X0083762Y0226395D02*
X0088876Y0229348D01*
X0090844Y0225941D01*
X0085730Y0222988D01*
X0083762Y0226395D01*
G37*
G36*
X0060756Y0227659D02*
X0065870Y0230612D01*
X0067838Y0227205D01*
X0062724Y0224252D01*
X0060756Y0227659D01*
G37*
G36*
X0077463Y0237305D02*
X0082577Y0240258D01*
X0084545Y0236851D01*
X0079431Y0233898D01*
X0077463Y0237305D01*
G37*
X0121154Y0248099D03*
X0140446Y0248099D03*
G36*
X0196230Y0231112D02*
X0201344Y0228159D01*
X0199376Y0224752D01*
X0194262Y0227705D01*
X0196230Y0231112D01*
G37*
G36*
X0067055Y0216749D02*
X0072169Y0219702D01*
X0074137Y0216295D01*
X0069023Y0213342D01*
X0067055Y0216749D01*
G37*
G36*
X0032488Y0197730D02*
X0035441Y0202844D01*
X0038848Y0200876D01*
X0035895Y0195762D01*
X0032488Y0197730D01*
G37*
G36*
X0043398Y0191431D02*
X0046351Y0196545D01*
X0049758Y0194577D01*
X0046805Y0189463D01*
X0043398Y0191431D01*
G37*
G36*
X0022842Y0181023D02*
X0025795Y0186137D01*
X0029202Y0184169D01*
X0026249Y0179055D01*
X0022842Y0181023D01*
G37*
G36*
X0033752Y0174724D02*
X0036705Y0179838D01*
X0040112Y0177870D01*
X0037159Y0172756D01*
X0033752Y0174724D01*
G37*
D11*
X0234501Y0141446D03*
X0247099Y0141446D03*
X0247099Y0122154D03*
X0234501Y0122154D03*
D12*
X0234354Y0113600D03*
X0241046Y0113600D03*
G36*
X0210712Y0066959D02*
X0214460Y0064794D01*
X0212492Y0061387D01*
X0208744Y0063552D01*
X0210712Y0066959D01*
G37*
G36*
X0216508Y0063613D02*
X0220256Y0061448D01*
X0218288Y0058041D01*
X0214540Y0060206D01*
X0216508Y0063613D01*
G37*
X0152146Y0045800D03*
X0145454Y0045800D03*
X0124146Y0047300D03*
X0117454Y0047300D03*
G36*
X0168048Y0035656D02*
X0170213Y0031908D01*
X0166806Y0029940D01*
X0164641Y0033688D01*
X0168048Y0035656D01*
G37*
G36*
X0171394Y0029860D02*
X0173559Y0026112D01*
X0170152Y0024144D01*
X0167987Y0027892D01*
X0171394Y0029860D01*
G37*
G36*
X0065159Y0052688D02*
X0062994Y0048940D01*
X0059587Y0050908D01*
X0061752Y0054656D01*
X0065159Y0052688D01*
G37*
G36*
X0061813Y0046892D02*
X0059648Y0043144D01*
X0056241Y0045112D01*
X0058406Y0048860D01*
X0061813Y0046892D01*
G37*
G36*
X0029660Y0092106D02*
X0025912Y0089941D01*
X0023944Y0093348D01*
X0027692Y0095513D01*
X0029660Y0092106D01*
G37*
G36*
X0035456Y0095452D02*
X0031708Y0093287D01*
X0029740Y0096694D01*
X0033488Y0098859D01*
X0035456Y0095452D01*
G37*
G36*
X0226644Y0168748D02*
X0230392Y0170913D01*
X0232360Y0167506D01*
X0228612Y0165341D01*
X0226644Y0168748D01*
G37*
G36*
X0232440Y0172094D02*
X0236188Y0174259D01*
X0238156Y0170852D01*
X0234408Y0168687D01*
X0232440Y0172094D01*
G37*
G36*
X0196241Y0211912D02*
X0198406Y0215660D01*
X0201813Y0213692D01*
X0199648Y0209944D01*
X0196241Y0211912D01*
G37*
G36*
X0199587Y0217708D02*
X0201752Y0221456D01*
X0205159Y0219488D01*
X0202994Y0215740D01*
X0199587Y0217708D01*
G37*
G36*
X0094152Y0227044D02*
X0091987Y0230792D01*
X0095394Y0232760D01*
X0097559Y0229012D01*
X0094152Y0227044D01*
G37*
G36*
X0090806Y0232840D02*
X0088641Y0236588D01*
X0092048Y0238556D01*
X0094213Y0234808D01*
X0090806Y0232840D01*
G37*
G36*
X0045792Y0200687D02*
X0042044Y0202852D01*
X0044012Y0206259D01*
X0047760Y0204094D01*
X0045792Y0200687D01*
G37*
G36*
X0051588Y0197341D02*
X0047840Y0199506D01*
X0049808Y0202913D01*
X0053556Y0200748D01*
X0051588Y0197341D01*
G37*
D13*
X0063700Y0168846D03*
X0063700Y0162154D03*
X0148800Y0235454D03*
X0148800Y0242146D03*
X0137800Y0058146D03*
X0137800Y0051454D03*
X0112900Y0028246D03*
X0112900Y0021554D03*
D14*
X0118185Y0053863D03*
X0118185Y0055831D03*
X0118185Y0057800D03*
X0118185Y0059769D03*
X0118185Y0061737D03*
X0129415Y0061737D03*
X0129415Y0059769D03*
X0129415Y0057800D03*
X0129415Y0055831D03*
X0129415Y0053863D03*
D15*
X0125769Y0052280D03*
X0123800Y0052280D03*
X0121831Y0052280D03*
X0121831Y0063320D03*
X0123800Y0063320D03*
X0125769Y0063320D03*
D16*
X0146485Y0059737D03*
X0146485Y0057769D03*
X0146485Y0055800D03*
X0146485Y0053831D03*
X0146485Y0051863D03*
X0157115Y0051863D03*
X0157115Y0053831D03*
X0157115Y0055800D03*
X0157115Y0057769D03*
X0157115Y0059737D03*
D17*
X0153769Y0061115D03*
X0151800Y0061115D03*
X0149831Y0061115D03*
X0149831Y0050485D03*
X0151800Y0050485D03*
X0153769Y0050485D03*
M02*
