G75*
G70*
%OFA0B0*%
%FSLAX24Y24*%
%IPPOS*%
%LPD*%
%AMOC8*
5,1,8,0,0,1.08239X$1,22.5*
%
%ADD10C,0.1300*%
%ADD11C,0.0780*%
%ADD12C,0.0680*%
%ADD13R,0.0690X0.0690*%
%ADD14C,0.0690*%
%ADD15C,0.0600*%
%ADD16C,0.1740*%
%ADD17C,0.0806*%
%ADD18C,0.0825*%
%ADD19C,0.0480*%
D10*
X005800Y001325D03*
X026300Y003325D03*
X026300Y014325D03*
X006300Y020325D03*
D11*
X004100Y020125D03*
X003100Y020125D03*
X002100Y020125D03*
X013300Y020325D03*
X014300Y020325D03*
X015300Y020325D03*
X014800Y008825D03*
X015800Y008825D03*
X016800Y008825D03*
X017800Y008825D03*
X018800Y008825D03*
X019800Y008825D03*
X013800Y008825D03*
X012800Y008825D03*
X011800Y008825D03*
X010800Y008825D03*
X009800Y008825D03*
X008800Y008825D03*
X001800Y006395D03*
X001800Y005255D03*
X008800Y001825D03*
X009800Y001825D03*
X010800Y001825D03*
X011800Y001825D03*
X012800Y001825D03*
X013800Y001825D03*
X014800Y001825D03*
X015800Y001825D03*
X016800Y001825D03*
X017800Y001825D03*
X018800Y001825D03*
X019800Y001825D03*
D12*
X022300Y019505D02*
X022300Y020145D01*
X023300Y020145D02*
X023300Y019505D01*
X024300Y019505D02*
X024300Y020145D01*
D13*
X005800Y010825D03*
X002300Y010825D03*
D14*
X002300Y009825D03*
X005800Y009825D03*
D15*
X004300Y006219D03*
X004300Y005431D03*
D16*
X005013Y013475D03*
X006194Y015325D03*
X003831Y015325D03*
D17*
X026300Y009325D03*
X026300Y007825D03*
D18*
X026300Y004825D03*
X026300Y012325D03*
D19*
X015200Y018675D03*
X015750Y018925D03*
X015050Y019625D03*
X014400Y018975D03*
M02*
