G75*
G70*
%OFA0B0*%
%FSLAX24Y24*%
%IPPOS*%
%LPD*%
%AMOC8*
5,1,8,0,0,1.08239X$1,22.5*
%
%ADD10C,0.0110*%
%ADD11C,0.0100*%
%ADD12C,0.0080*%
%ADD13C,0.0050*%
%ADD14R,0.4200X0.0300*%
%ADD15R,0.0750X0.0200*%
%ADD16R,0.0300X0.0200*%
%ADD17C,0.0040*%
%ADD18C,0.0060*%
D10*
X001850Y004180D02*
X001850Y004574D01*
X001852Y007078D02*
X001852Y007472D01*
X001655Y007275D02*
X002049Y007275D01*
X001903Y017380D02*
X002297Y017380D01*
X002395Y017478D01*
X002395Y017675D01*
X002297Y017774D01*
X001903Y017774D01*
X001804Y017675D01*
X001804Y017478D01*
X001903Y017380D01*
X001804Y018025D02*
X001804Y018418D01*
X001804Y018669D02*
X001804Y019063D01*
X002100Y018866D02*
X002100Y018669D01*
X002395Y018669D02*
X001804Y018669D01*
X002100Y018221D02*
X002100Y018025D01*
X002395Y018025D02*
X001804Y018025D01*
X003854Y018128D02*
X003953Y018030D01*
X004347Y018030D01*
X004445Y018128D01*
X004445Y018325D01*
X004347Y018424D01*
X003953Y018424D01*
X003854Y018325D01*
X003854Y018128D01*
X003854Y018675D02*
X004445Y019068D01*
X003854Y019068D01*
X003854Y018675D02*
X004445Y018675D01*
D11*
X007800Y020325D02*
X007800Y010325D01*
X020800Y010325D01*
X020800Y020325D01*
X007800Y020325D01*
D12*
X005389Y020981D02*
X005389Y019269D01*
X000811Y019269D01*
X000811Y020981D01*
X005389Y020981D01*
X006194Y017097D02*
X001981Y017097D01*
X001981Y013553D01*
X004068Y013553D01*
X005918Y013553D02*
X006194Y013553D01*
X006194Y014380D01*
X006194Y016270D02*
X006194Y017097D01*
X012800Y020075D02*
X013050Y019825D01*
X013550Y019825D01*
X013800Y020075D01*
X014050Y019825D01*
X014550Y019825D01*
X014800Y020075D01*
X015050Y019825D01*
X015550Y019825D01*
X015800Y020075D01*
X015800Y020575D01*
X015550Y020825D01*
X015050Y020825D01*
X014800Y020575D01*
X014550Y020825D01*
X014050Y020825D01*
X013800Y020575D01*
X013550Y020825D01*
X013050Y020825D01*
X012800Y020575D01*
X012800Y020075D01*
X026000Y011825D02*
X026300Y011825D01*
X026300Y011925D01*
X026300Y011825D02*
X026600Y011825D01*
X026600Y009825D01*
X026300Y009825D01*
X026300Y009725D01*
X026300Y009825D02*
X026000Y009825D01*
X026000Y011825D01*
X020300Y009075D02*
X020050Y009325D01*
X019550Y009325D01*
X019300Y009075D01*
X019050Y009325D01*
X018550Y009325D01*
X018300Y009075D01*
X018050Y009325D01*
X017550Y009325D01*
X017300Y009075D01*
X017050Y009325D01*
X016550Y009325D01*
X016300Y009075D01*
X016050Y009325D01*
X015550Y009325D01*
X015300Y009075D01*
X015050Y009325D01*
X014550Y009325D01*
X014300Y009075D01*
X014050Y009325D01*
X013550Y009325D01*
X013300Y009075D01*
X013050Y009325D01*
X012550Y009325D01*
X012300Y009075D01*
X012050Y009325D01*
X011550Y009325D01*
X011300Y009075D01*
X011050Y009325D01*
X010550Y009325D01*
X010300Y009075D01*
X010050Y009325D01*
X009550Y009325D01*
X009300Y009075D01*
X009050Y009325D01*
X008550Y009325D01*
X008300Y009075D01*
X008300Y008575D01*
X008550Y008325D01*
X009050Y008325D01*
X009300Y008575D01*
X009550Y008325D01*
X010050Y008325D01*
X010300Y008575D01*
X010550Y008325D01*
X011050Y008325D01*
X011300Y008575D01*
X011550Y008325D01*
X012050Y008325D01*
X012300Y008575D01*
X012550Y008325D01*
X013050Y008325D01*
X013300Y008575D01*
X013550Y008325D01*
X014050Y008325D01*
X014300Y008575D01*
X014550Y008325D01*
X015050Y008325D01*
X015300Y008575D01*
X015550Y008325D01*
X016050Y008325D01*
X016300Y008575D01*
X016550Y008325D01*
X017050Y008325D01*
X017300Y008575D01*
X017550Y008325D01*
X018050Y008325D01*
X018300Y008575D01*
X018550Y008325D01*
X019050Y008325D01*
X019300Y008575D01*
X019550Y008325D01*
X020050Y008325D01*
X020300Y008575D01*
X020300Y009075D01*
X026000Y007325D02*
X026300Y007325D01*
X026300Y007425D01*
X026300Y007325D02*
X026600Y007325D01*
X026600Y005325D01*
X026300Y005325D01*
X026300Y005225D01*
X026300Y005325D02*
X026000Y005325D01*
X026000Y007325D01*
X020300Y002075D02*
X020050Y002325D01*
X019550Y002325D01*
X019300Y002075D01*
X019050Y002325D01*
X018550Y002325D01*
X018300Y002075D01*
X018050Y002325D01*
X017550Y002325D01*
X017300Y002075D01*
X017050Y002325D01*
X016550Y002325D01*
X016300Y002075D01*
X016050Y002325D01*
X015550Y002325D01*
X015300Y002075D01*
X015050Y002325D01*
X014550Y002325D01*
X014300Y002075D01*
X014050Y002325D01*
X013550Y002325D01*
X013300Y002075D01*
X013050Y002325D01*
X012550Y002325D01*
X012300Y002075D01*
X012050Y002325D01*
X011550Y002325D01*
X011300Y002075D01*
X011050Y002325D01*
X010550Y002325D01*
X010300Y002075D01*
X010050Y002325D01*
X009550Y002325D01*
X009300Y002075D01*
X009050Y002325D01*
X008550Y002325D01*
X008300Y002075D01*
X008300Y001575D01*
X008550Y001325D01*
X009050Y001325D01*
X009300Y001575D01*
X009550Y001325D01*
X010050Y001325D01*
X010300Y001575D01*
X010550Y001325D01*
X011050Y001325D01*
X011300Y001575D01*
X011550Y001325D01*
X012050Y001325D01*
X012300Y001575D01*
X012550Y001325D01*
X013050Y001325D01*
X013300Y001575D01*
X013550Y001325D01*
X014050Y001325D01*
X014300Y001575D01*
X014550Y001325D01*
X015050Y001325D01*
X015300Y001575D01*
X015550Y001325D01*
X016050Y001325D01*
X016300Y001575D01*
X016550Y001325D01*
X017050Y001325D01*
X017300Y001575D01*
X017550Y001325D01*
X018050Y001325D01*
X018300Y001575D01*
X018550Y001325D01*
X019050Y001325D01*
X019300Y001575D01*
X019550Y001325D01*
X020050Y001325D01*
X020300Y001575D01*
X020300Y002075D01*
X004816Y010325D02*
X004818Y010387D01*
X004824Y010450D01*
X004834Y010511D01*
X004848Y010572D01*
X004865Y010632D01*
X004886Y010691D01*
X004912Y010748D01*
X004940Y010803D01*
X004972Y010857D01*
X005008Y010908D01*
X005046Y010958D01*
X005088Y011004D01*
X005132Y011048D01*
X005180Y011089D01*
X005229Y011127D01*
X005281Y011161D01*
X005335Y011192D01*
X005391Y011220D01*
X005449Y011244D01*
X005508Y011265D01*
X005568Y011281D01*
X005629Y011294D01*
X005691Y011303D01*
X005753Y011308D01*
X005816Y011309D01*
X005878Y011306D01*
X005940Y011299D01*
X006002Y011288D01*
X006062Y011273D01*
X006122Y011255D01*
X006180Y011233D01*
X006237Y011207D01*
X006292Y011177D01*
X006345Y011144D01*
X006396Y011108D01*
X006444Y011069D01*
X006490Y011026D01*
X006533Y010981D01*
X006573Y010933D01*
X006610Y010883D01*
X006644Y010830D01*
X006675Y010776D01*
X006701Y010720D01*
X006725Y010662D01*
X006744Y010602D01*
X006760Y010542D01*
X006772Y010480D01*
X006780Y010419D01*
X006784Y010356D01*
X006784Y010294D01*
X006780Y010231D01*
X006772Y010170D01*
X006760Y010108D01*
X006744Y010048D01*
X006725Y009988D01*
X006701Y009930D01*
X006675Y009874D01*
X006644Y009820D01*
X006610Y009767D01*
X006573Y009717D01*
X006533Y009669D01*
X006490Y009624D01*
X006444Y009581D01*
X006396Y009542D01*
X006345Y009506D01*
X006292Y009473D01*
X006237Y009443D01*
X006180Y009417D01*
X006122Y009395D01*
X006062Y009377D01*
X006002Y009362D01*
X005940Y009351D01*
X005878Y009344D01*
X005816Y009341D01*
X005753Y009342D01*
X005691Y009347D01*
X005629Y009356D01*
X005568Y009369D01*
X005508Y009385D01*
X005449Y009406D01*
X005391Y009430D01*
X005335Y009458D01*
X005281Y009489D01*
X005229Y009523D01*
X005180Y009561D01*
X005132Y009602D01*
X005088Y009646D01*
X005046Y009692D01*
X005008Y009742D01*
X004972Y009793D01*
X004940Y009847D01*
X004912Y009902D01*
X004886Y009959D01*
X004865Y010018D01*
X004848Y010078D01*
X004834Y010139D01*
X004824Y010200D01*
X004818Y010263D01*
X004816Y010325D01*
X005250Y010025D02*
X005250Y009625D01*
X001316Y010325D02*
X001318Y010387D01*
X001324Y010450D01*
X001334Y010511D01*
X001348Y010572D01*
X001365Y010632D01*
X001386Y010691D01*
X001412Y010748D01*
X001440Y010803D01*
X001472Y010857D01*
X001508Y010908D01*
X001546Y010958D01*
X001588Y011004D01*
X001632Y011048D01*
X001680Y011089D01*
X001729Y011127D01*
X001781Y011161D01*
X001835Y011192D01*
X001891Y011220D01*
X001949Y011244D01*
X002008Y011265D01*
X002068Y011281D01*
X002129Y011294D01*
X002191Y011303D01*
X002253Y011308D01*
X002316Y011309D01*
X002378Y011306D01*
X002440Y011299D01*
X002502Y011288D01*
X002562Y011273D01*
X002622Y011255D01*
X002680Y011233D01*
X002737Y011207D01*
X002792Y011177D01*
X002845Y011144D01*
X002896Y011108D01*
X002944Y011069D01*
X002990Y011026D01*
X003033Y010981D01*
X003073Y010933D01*
X003110Y010883D01*
X003144Y010830D01*
X003175Y010776D01*
X003201Y010720D01*
X003225Y010662D01*
X003244Y010602D01*
X003260Y010542D01*
X003272Y010480D01*
X003280Y010419D01*
X003284Y010356D01*
X003284Y010294D01*
X003280Y010231D01*
X003272Y010170D01*
X003260Y010108D01*
X003244Y010048D01*
X003225Y009988D01*
X003201Y009930D01*
X003175Y009874D01*
X003144Y009820D01*
X003110Y009767D01*
X003073Y009717D01*
X003033Y009669D01*
X002990Y009624D01*
X002944Y009581D01*
X002896Y009542D01*
X002845Y009506D01*
X002792Y009473D01*
X002737Y009443D01*
X002680Y009417D01*
X002622Y009395D01*
X002562Y009377D01*
X002502Y009362D01*
X002440Y009351D01*
X002378Y009344D01*
X002316Y009341D01*
X002253Y009342D01*
X002191Y009347D01*
X002129Y009356D01*
X002068Y009369D01*
X002008Y009385D01*
X001949Y009406D01*
X001891Y009430D01*
X001835Y009458D01*
X001781Y009489D01*
X001729Y009523D01*
X001680Y009561D01*
X001632Y009602D01*
X001588Y009646D01*
X001546Y009692D01*
X001508Y009742D01*
X001472Y009793D01*
X001440Y009847D01*
X001412Y009902D01*
X001386Y009959D01*
X001365Y010018D01*
X001348Y010078D01*
X001334Y010139D01*
X001324Y010200D01*
X001318Y010263D01*
X001316Y010325D01*
X001750Y010025D02*
X001750Y009625D01*
X001550Y006825D02*
X001300Y006575D01*
X001300Y006075D01*
X001550Y005825D01*
X001300Y005575D01*
X001300Y005075D01*
X001550Y004825D01*
X002050Y004825D01*
X002300Y005075D01*
X002300Y005575D01*
X002050Y005825D01*
X002300Y006075D01*
X002300Y006575D01*
X002050Y006825D01*
X001550Y006825D01*
D13*
X003198Y007006D02*
X004969Y007006D01*
X004969Y006022D01*
X005166Y006022D01*
X005166Y005628D01*
X004969Y005628D01*
X004969Y004644D01*
X003198Y004644D01*
X003198Y007006D01*
X021300Y019275D02*
X021350Y020425D01*
X021450Y020525D01*
X025150Y020525D01*
X025250Y020425D01*
X025300Y019275D01*
X024970Y020285D02*
X024972Y020305D01*
X024978Y020323D01*
X024987Y020341D01*
X024999Y020356D01*
X025014Y020368D01*
X025032Y020377D01*
X025050Y020383D01*
X025070Y020385D01*
X025090Y020383D01*
X025108Y020377D01*
X025126Y020368D01*
X025141Y020356D01*
X025153Y020341D01*
X025162Y020323D01*
X025168Y020305D01*
X025170Y020285D01*
X025168Y020265D01*
X025162Y020247D01*
X025153Y020229D01*
X025141Y020214D01*
X025126Y020202D01*
X025108Y020193D01*
X025090Y020187D01*
X025070Y020185D01*
X025050Y020187D01*
X025032Y020193D01*
X025014Y020202D01*
X024999Y020214D01*
X024987Y020229D01*
X024978Y020247D01*
X024972Y020265D01*
X024970Y020285D01*
D14*
X023300Y018975D03*
D15*
X021575Y019225D03*
X025025Y019225D03*
D16*
X023800Y019225D03*
X022800Y019225D03*
D17*
X004403Y007138D02*
X004096Y007138D01*
X004250Y006985D02*
X004250Y007292D01*
X004250Y004392D02*
X004250Y004085D01*
D18*
X026080Y010168D02*
X026420Y010168D01*
X026420Y010055D02*
X026420Y010282D01*
X026363Y010423D02*
X026136Y010423D01*
X026080Y010480D01*
X026080Y010593D01*
X026136Y010650D01*
X026363Y010423D01*
X026420Y010480D01*
X026420Y010593D01*
X026363Y010650D01*
X026136Y010650D01*
X026080Y010792D02*
X026420Y010792D01*
X026307Y010792D02*
X026080Y011018D01*
X026250Y010848D02*
X026420Y011018D01*
X026080Y010168D02*
X026193Y010055D01*
X026180Y007014D02*
X026407Y006787D01*
X026350Y006843D02*
X026520Y007014D01*
X026520Y006787D02*
X026180Y006787D01*
X026236Y006645D02*
X026463Y006418D01*
X026520Y006475D01*
X026520Y006589D01*
X026463Y006645D01*
X026236Y006645D01*
X026180Y006589D01*
X026180Y006475D01*
X026236Y006418D01*
X026463Y006418D01*
X026520Y006277D02*
X026520Y006050D01*
X026520Y006163D02*
X026180Y006163D01*
X026293Y006050D01*
M02*
