*
%FSLAX26Y26*%
%MOIN*%
%ADD10C,0.005906*%
%IPPOS*%
%LN5060-458671.gko*%
%LPD*%
G75*
G54D10*
X271850Y1225000D02*
X296850D01*
X196850Y1150000D02*
X271850Y1225000D01*
X296850D02*
X871850D01*
X196850Y75000D02*
Y1150000D01*
Y75000D02*
X271850Y0D01*
X871850D01*
X946850Y75000D01*
Y1150000D01*
X871850Y1225000D02*
X946850Y1150000D01*
X271850Y2528740D02*
X296850D01*
X196850Y2453740D02*
X271850Y2528740D01*
X296850D02*
X871850D01*
X196850Y1378740D02*
Y2453740D01*
Y1378740D02*
X271850Y1303740D01*
X871850D01*
X946850Y1378740D01*
Y2453740D01*
X871850Y2528740D02*
X946850Y2453740D01*
X271850Y3832480D02*
X296850D01*
X196850Y3757480D02*
X271850Y3832480D01*
X296850D02*
X871850D01*
X196850Y2682480D02*
Y3757480D01*
Y2682480D02*
X271850Y2607480D01*
X871850D01*
X946850Y2682480D01*
Y3757480D01*
X871850Y3832480D02*
X946850Y3757480D01*
X1021850Y1225000D02*
X1046850D01*
X946850Y1150000D02*
X1021850Y1225000D01*
X1046850D02*
X1621850D01*
X946850Y75000D02*
Y1150000D01*
Y75000D02*
X1021850Y0D01*
X1621850D01*
X1696850Y75000D01*
Y1150000D01*
X1621850Y1225000D02*
X1696850Y1150000D01*
X1021850Y2528740D02*
X1046850D01*
X946850Y2453740D02*
X1021850Y2528740D01*
X1046850D02*
X1621850D01*
X946850Y1378740D02*
Y2453740D01*
Y1378740D02*
X1021850Y1303740D01*
X1621850D01*
X1696850Y1378740D01*
Y2453740D01*
X1621850Y2528740D02*
X1696850Y2453740D01*
X1021850Y3832480D02*
X1046850D01*
X946850Y3757480D02*
X1021850Y3832480D01*
X1046850D02*
X1621850D01*
X946850Y2682480D02*
Y3757480D01*
Y2682480D02*
X1021850Y2607480D01*
X1621850D01*
X1696850Y2682480D01*
Y3757480D01*
X1621850Y3832480D02*
X1696850Y3757480D01*
X1771850Y1225000D02*
X1796850D01*
X1696850Y1150000D02*
X1771850Y1225000D01*
X1796850D02*
X2371850D01*
X1696850Y75000D02*
Y1150000D01*
Y75000D02*
X1771850Y0D01*
X2371850D01*
X2446850Y75000D01*
Y1150000D01*
X2371850Y1225000D02*
X2446850Y1150000D01*
X1771850Y2528740D02*
X1796850D01*
X1696850Y2453740D02*
X1771850Y2528740D01*
X1796850D02*
X2371850D01*
X1696850Y1378740D02*
Y2453740D01*
Y1378740D02*
X1771850Y1303740D01*
X2371850D01*
X2446850Y1378740D01*
Y2453740D01*
X2371850Y2528740D02*
X2446850Y2453740D01*
X1771850Y3832480D02*
X1796850D01*
X1696850Y3757480D02*
X1771850Y3832480D01*
X1796850D02*
X2371850D01*
X1696850Y2682480D02*
Y3757480D01*
Y2682480D02*
X1771850Y2607480D01*
X2371850D01*
X2446850Y2682480D01*
Y3757480D01*
X2371850Y3832480D02*
X2446850Y3757480D01*
X39370Y3832480D02*
X196850D01*
X2643701Y3793110D02*
Y39370D01*
X2604331Y0D02*
X2446850D01*
X0Y39370D02*
Y3793110D01*
X196850Y0D02*
Y3832480D01*
X2446850D02*
Y0D01*
Y3832480D02*
X2604331D01*
X196850Y0D02*
X39370D01*
Y3832480D02*
X33163Y3831988D01*
X27110Y3830523D01*
X21365Y3828122D01*
X16070Y3824845D01*
X11358Y3820774D01*
X7346Y3816012D01*
X4136Y3810676D01*
X1807Y3804901D01*
X418Y3798831D01*
X0Y3793110D01*
Y39370D02*
X492Y33163D01*
X1957Y27110D01*
X4358Y21365D01*
X7635Y16070D01*
X11706Y11358D01*
X16469Y7346D01*
X21804Y4136D01*
X27580Y1807D01*
X33650Y418D01*
X39370Y0D01*
X2604331D02*
X2610538Y492D01*
X2616590Y1957D01*
X2622336Y4358D01*
X2627631Y7635D01*
X2632343Y11706D01*
X2636355Y16469D01*
X2639565Y21804D01*
X2641894Y27580D01*
X2643283Y33650D01*
X2643701Y39370D01*
X2604331Y3832480D02*
X2610538Y3831988D01*
X2616590Y3830523D01*
X2622336Y3828122D01*
X2627631Y3824845D01*
X2632343Y3820774D01*
X2636355Y3816012D01*
X2639565Y3810676D01*
X2641894Y3804901D01*
X2643283Y3798831D01*
X2643701Y3793110D01*
M02*
