G75*
%MOIN*%
%OFA0B0*%
%FSLAX25Y25*%
%IPPOS*%
%LPD*%
%AMOC8*
5,1,8,0,0,1.08239X$1,22.5*
%
%ADD10C,0.05937*%
%ADD11C,0.05500*%
%ADD12C,0.04756*%
%ADD13C,0.06000*%
%ADD14C,0.02900*%
%ADD15C,0.16598*%
%ADD16C,0.00600*%
D10*
X0270863Y0185293D03*
X0284642Y0185293D03*
D11*
X0238934Y0149128D03*
X0228934Y0149128D03*
X0218934Y0149128D03*
X0208934Y0149128D03*
X0198934Y0149128D03*
X0188934Y0149128D03*
X0178934Y0149128D03*
X0168934Y0149128D03*
X0158934Y0149128D03*
X0148934Y0149128D03*
X0138934Y0149128D03*
X0128934Y0149128D03*
X0118934Y0149128D03*
X0108934Y0149128D03*
X0098934Y0149128D03*
X0088934Y0149128D03*
X0078934Y0149128D03*
X0068934Y0149128D03*
X0068934Y0109128D03*
X0078934Y0109128D03*
X0088934Y0109128D03*
X0098934Y0109128D03*
X0108934Y0109128D03*
X0118934Y0109128D03*
X0128934Y0109128D03*
X0138934Y0109128D03*
X0148934Y0109128D03*
X0158934Y0109128D03*
X0168934Y0109128D03*
X0178934Y0109128D03*
X0188934Y0109128D03*
X0198934Y0109128D03*
X0208934Y0109128D03*
X0218934Y0109128D03*
X0228934Y0109128D03*
X0238934Y0109128D03*
D12*
X0041926Y0112529D03*
X0041926Y0104655D03*
X0041926Y0096781D03*
X0041926Y0120403D03*
X0041926Y0137600D03*
X0041926Y0145474D03*
X0041926Y0153348D03*
X0041926Y0161222D03*
D13*
X0267918Y0157293D03*
X0267918Y0148293D03*
X0267918Y0139293D03*
X0267918Y0130293D03*
X0267918Y0166293D03*
D14*
X0256572Y0147329D03*
X0254172Y0145129D03*
X0251772Y0147329D03*
X0285018Y0129693D03*
X0287839Y0131128D03*
X0291276Y0131096D03*
X0294713Y0131096D03*
X0297831Y0129702D03*
X0297650Y0133033D03*
X0296650Y0136533D03*
X0303909Y0132906D03*
X0305509Y0136506D03*
X0309446Y0132506D03*
X0313383Y0132506D03*
X0317320Y0132506D03*
X0321257Y0132506D03*
X0325194Y0134080D03*
X0328737Y0134080D03*
X0325194Y0139002D03*
X0317320Y0139002D03*
X0317320Y0144907D03*
X0325194Y0144907D03*
X0325194Y0152781D03*
X0317320Y0152781D03*
X0309446Y0152781D03*
X0301572Y0152781D03*
X0301572Y0160655D03*
X0309446Y0160655D03*
X0317320Y0160655D03*
X0325194Y0160655D03*
X0325194Y0168529D03*
X0333068Y0168529D03*
X0340942Y0168529D03*
X0348816Y0168529D03*
X0356690Y0168529D03*
X0364564Y0168529D03*
X0372438Y0168529D03*
X0380312Y0168529D03*
X0388186Y0168529D03*
X0396060Y0168529D03*
X0403934Y0168529D03*
X0411808Y0168529D03*
X0419682Y0168529D03*
X0427556Y0168529D03*
X0427556Y0160655D03*
X0419682Y0160655D03*
X0411808Y0160655D03*
X0411808Y0152781D03*
X0419682Y0152781D03*
X0427556Y0152781D03*
X0419682Y0144907D03*
X0411808Y0144907D03*
X0411808Y0137033D03*
X0419682Y0137033D03*
X0419682Y0129159D03*
X0411808Y0129159D03*
X0411808Y0121285D03*
X0419682Y0121285D03*
X0419682Y0113411D03*
X0411808Y0113411D03*
X0411808Y0105537D03*
X0419682Y0105537D03*
X0427556Y0105537D03*
X0427556Y0097663D03*
X0419682Y0097663D03*
X0411808Y0097663D03*
X0411808Y0089789D03*
X0419682Y0089789D03*
X0427556Y0089789D03*
X0403934Y0089789D03*
X0396060Y0089789D03*
X0388186Y0089789D03*
X0380312Y0089789D03*
X0372438Y0089789D03*
X0364564Y0089789D03*
X0356690Y0089789D03*
X0348816Y0089789D03*
X0340942Y0089789D03*
X0333068Y0089789D03*
X0325194Y0089789D03*
X0317320Y0089789D03*
X0309446Y0089789D03*
X0301572Y0089789D03*
X0301572Y0081915D03*
X0309446Y0081915D03*
X0317320Y0081915D03*
X0325194Y0081915D03*
X0333068Y0081915D03*
X0340942Y0081915D03*
X0348816Y0081915D03*
X0356690Y0081915D03*
X0364564Y0081915D03*
X0372438Y0081915D03*
X0380312Y0081915D03*
X0388186Y0081915D03*
X0396060Y0081915D03*
X0403934Y0081915D03*
X0403934Y0074041D03*
X0396060Y0074041D03*
X0388186Y0074041D03*
X0380312Y0074041D03*
X0372438Y0074041D03*
X0364564Y0074041D03*
X0356690Y0074041D03*
X0348816Y0074041D03*
X0340942Y0074041D03*
X0333068Y0074041D03*
X0325194Y0074041D03*
X0325194Y0067167D03*
X0317320Y0067167D03*
X0309446Y0067167D03*
X0309446Y0074041D03*
X0317320Y0074041D03*
X0333068Y0066167D03*
X0340942Y0066167D03*
X0348816Y0066167D03*
X0356690Y0066167D03*
X0364564Y0066167D03*
X0372438Y0066167D03*
X0380312Y0066167D03*
X0388186Y0066167D03*
X0396060Y0066167D03*
X0403934Y0066167D03*
X0380312Y0097663D03*
X0372438Y0097663D03*
X0364564Y0097663D03*
X0356690Y0097663D03*
X0356690Y0105537D03*
X0364564Y0105537D03*
X0372438Y0105537D03*
X0380312Y0105537D03*
X0380312Y0113411D03*
X0372438Y0113411D03*
X0364564Y0113411D03*
X0356690Y0113411D03*
X0356690Y0121285D03*
X0364564Y0121285D03*
X0372438Y0121285D03*
X0380312Y0121285D03*
X0380312Y0129159D03*
X0372438Y0129159D03*
X0364564Y0129159D03*
X0356690Y0129159D03*
X0348816Y0129159D03*
X0356690Y0137033D03*
X0364564Y0137033D03*
X0372438Y0137033D03*
X0380312Y0137033D03*
X0380312Y0144907D03*
X0372438Y0144907D03*
X0364564Y0144907D03*
X0356690Y0144907D03*
X0356690Y0152781D03*
X0364564Y0152781D03*
X0372438Y0152781D03*
X0380312Y0152781D03*
X0380312Y0160655D03*
X0372438Y0160655D03*
X0364564Y0160655D03*
X0356690Y0160655D03*
X0356690Y0176403D03*
X0364564Y0176403D03*
X0372438Y0176403D03*
X0380312Y0176403D03*
X0388186Y0176403D03*
X0396060Y0176403D03*
X0403934Y0176403D03*
X0403934Y0184277D03*
X0396060Y0184277D03*
X0388186Y0184277D03*
X0380312Y0184277D03*
X0372438Y0184277D03*
X0364564Y0184277D03*
X0356690Y0184277D03*
X0348816Y0184277D03*
X0340942Y0184277D03*
X0333068Y0184277D03*
X0325194Y0184277D03*
X0317320Y0184277D03*
X0309446Y0184277D03*
X0301572Y0184277D03*
X0301572Y0176403D03*
X0309446Y0176403D03*
X0317320Y0176403D03*
X0325194Y0176403D03*
X0333068Y0176403D03*
X0340942Y0176403D03*
X0348816Y0176403D03*
X0348816Y0192151D03*
X0340942Y0192151D03*
X0333068Y0192151D03*
X0325194Y0192151D03*
X0317320Y0192151D03*
X0309446Y0192151D03*
X0301572Y0192151D03*
X0301572Y0168529D03*
X0309446Y0168529D03*
X0317320Y0168529D03*
X0356690Y0192151D03*
X0364564Y0192151D03*
X0372438Y0192151D03*
X0380312Y0192151D03*
X0388186Y0192151D03*
X0396060Y0192151D03*
X0403934Y0192151D03*
X0328737Y0124828D03*
X0325194Y0124828D03*
X0321257Y0124041D03*
X0317320Y0124041D03*
X0313383Y0124041D03*
X0309446Y0124041D03*
X0305902Y0124041D03*
X0311018Y0120193D03*
X0317320Y0120104D03*
X0325194Y0120104D03*
X0325194Y0113411D03*
X0317320Y0113411D03*
X0309320Y0113411D03*
X0309446Y0105537D03*
X0317320Y0105537D03*
X0325194Y0105537D03*
X0325194Y0097663D03*
X0317320Y0097663D03*
X0309446Y0097663D03*
X0301572Y0097663D03*
X0301572Y0105537D03*
X0297635Y0114395D03*
X0297635Y0118332D03*
X0293318Y0114293D03*
X0289118Y0114293D03*
X0284618Y0114493D03*
X0280918Y0106293D03*
X0275918Y0106293D03*
X0297635Y0122269D03*
X0285018Y0126193D03*
X0221918Y0126293D03*
X0182918Y0126293D03*
X0176018Y0124793D03*
X0172718Y0128093D03*
X0182918Y0129293D03*
X0182918Y0132293D03*
X0170918Y0139293D03*
X0161818Y0131193D03*
X0161718Y0126993D03*
X0152418Y0129293D03*
X0152318Y0125093D03*
X0156718Y0120593D03*
X0172918Y0117293D03*
X0150418Y0139293D03*
X0254718Y0084693D03*
X0258618Y0088893D03*
X0271418Y0090293D03*
X0280418Y0090293D03*
X0281418Y0066093D03*
X0284918Y0066093D03*
X0288418Y0066093D03*
X0290918Y0063293D03*
X0277918Y0066093D03*
D15*
X0419682Y0074041D03*
X0419682Y0184277D03*
X0045666Y0184277D03*
X0045666Y0074041D03*
D16*
X0036424Y0059335D02*
X0033910Y0060376D01*
X0031985Y0062300D01*
X0030944Y0064814D01*
X0030810Y0066175D01*
X0030810Y0192159D01*
X0030944Y0193520D01*
X0031985Y0196034D01*
X0033910Y0197958D01*
X0036424Y0198999D01*
X0037784Y0199133D01*
X0427548Y0199133D01*
X0428908Y0198999D01*
X0431422Y0197958D01*
X0433347Y0196034D01*
X0434388Y0193520D01*
X0434522Y0192159D01*
X0434522Y0191786D01*
X0434530Y0191778D01*
X0434530Y0153203D01*
X0423293Y0143839D01*
X0423246Y0143839D01*
X0423011Y0143604D01*
X0422756Y0143391D01*
X0422752Y0143345D01*
X0422719Y0143311D01*
X0422719Y0142979D01*
X0422689Y0142649D01*
X0422719Y0142613D01*
X0422719Y0115652D01*
X0422663Y0115569D01*
X0422719Y0115290D01*
X0422719Y0115007D01*
X0422790Y0114936D01*
X0422809Y0114838D01*
X0423045Y0114680D01*
X0423246Y0114480D01*
X0423346Y0114480D01*
X0434530Y0107024D01*
X0434530Y0066556D01*
X0434522Y0066548D01*
X0434522Y0066175D01*
X0434388Y0064814D01*
X0433347Y0062300D01*
X0431422Y0060376D01*
X0428908Y0059335D01*
X0427548Y0059201D01*
X0037784Y0059201D01*
X0036424Y0059335D01*
X0036049Y0059490D02*
X0429283Y0059490D01*
X0430728Y0060089D02*
X0034604Y0060089D01*
X0033599Y0060687D02*
X0431733Y0060687D01*
X0432332Y0061286D02*
X0292234Y0061286D01*
X0291891Y0060943D02*
X0293268Y0062320D01*
X0293268Y0064266D01*
X0291891Y0065643D01*
X0290768Y0065643D01*
X0290768Y0067066D01*
X0289391Y0068443D01*
X0287445Y0068443D01*
X0286668Y0067666D01*
X0285891Y0068443D01*
X0283945Y0068443D01*
X0283168Y0067666D01*
X0282391Y0068443D01*
X0280445Y0068443D01*
X0279668Y0067666D01*
X0278891Y0068443D01*
X0276945Y0068443D01*
X0275568Y0067066D01*
X0275568Y0065120D01*
X0276945Y0063743D01*
X0278891Y0063743D01*
X0279668Y0064520D01*
X0280445Y0063743D01*
X0282391Y0063743D01*
X0283168Y0064520D01*
X0283945Y0063743D01*
X0285891Y0063743D01*
X0286668Y0064520D01*
X0287445Y0063743D01*
X0288568Y0063743D01*
X0288568Y0062320D01*
X0289945Y0060943D01*
X0291891Y0060943D01*
X0292832Y0061884D02*
X0432930Y0061884D01*
X0433422Y0062483D02*
X0293268Y0062483D01*
X0293268Y0063081D02*
X0433670Y0063081D01*
X0433918Y0063680D02*
X0293268Y0063680D01*
X0293256Y0064278D02*
X0331633Y0064278D01*
X0332094Y0063817D02*
X0334041Y0063817D01*
X0335418Y0065194D01*
X0335418Y0067140D01*
X0334041Y0068517D01*
X0332094Y0068517D01*
X0330718Y0067140D01*
X0330718Y0065194D01*
X0332094Y0063817D01*
X0331035Y0064877D02*
X0326227Y0064877D01*
X0326167Y0064817D02*
X0327544Y0066194D01*
X0327544Y0068140D01*
X0326167Y0069517D01*
X0324220Y0069517D01*
X0322844Y0068140D01*
X0322844Y0066194D01*
X0324220Y0064817D01*
X0326167Y0064817D01*
X0326825Y0065475D02*
X0330718Y0065475D01*
X0330718Y0066074D02*
X0327424Y0066074D01*
X0327544Y0066672D02*
X0330718Y0066672D01*
X0330848Y0067271D02*
X0327544Y0067271D01*
X0327544Y0067869D02*
X0331446Y0067869D01*
X0332045Y0068468D02*
X0327216Y0068468D01*
X0326618Y0069066D02*
X0411785Y0069066D01*
X0411883Y0068830D02*
X0414471Y0066242D01*
X0417852Y0064842D01*
X0421512Y0064842D01*
X0424893Y0066242D01*
X0427480Y0068830D01*
X0428881Y0072211D01*
X0428881Y0075871D01*
X0427480Y0079252D01*
X0424893Y0081840D01*
X0421512Y0083240D01*
X0417852Y0083240D01*
X0414471Y0081840D01*
X0411883Y0079252D01*
X0410483Y0075871D01*
X0410483Y0072211D01*
X0411883Y0068830D01*
X0412245Y0068468D02*
X0404956Y0068468D01*
X0404907Y0068517D02*
X0402960Y0068517D01*
X0401584Y0067140D01*
X0401584Y0065194D01*
X0402960Y0063817D01*
X0404907Y0063817D01*
X0406284Y0065194D01*
X0406284Y0067140D01*
X0404907Y0068517D01*
X0405555Y0067869D02*
X0412844Y0067869D01*
X0413442Y0067271D02*
X0406153Y0067271D01*
X0406284Y0066672D02*
X0414041Y0066672D01*
X0414878Y0066074D02*
X0406284Y0066074D01*
X0406284Y0065475D02*
X0416323Y0065475D01*
X0417768Y0064877D02*
X0405967Y0064877D01*
X0405368Y0064278D02*
X0434166Y0064278D01*
X0434394Y0064877D02*
X0421596Y0064877D01*
X0423041Y0065475D02*
X0434453Y0065475D01*
X0434512Y0066074D02*
X0424485Y0066074D01*
X0425323Y0066672D02*
X0434530Y0066672D01*
X0434530Y0067271D02*
X0425921Y0067271D01*
X0426520Y0067869D02*
X0434530Y0067869D01*
X0434530Y0068468D02*
X0427118Y0068468D01*
X0427578Y0069066D02*
X0434530Y0069066D01*
X0434530Y0069665D02*
X0427826Y0069665D01*
X0428074Y0070263D02*
X0434530Y0070263D01*
X0434530Y0070862D02*
X0428322Y0070862D01*
X0428570Y0071460D02*
X0434530Y0071460D01*
X0434530Y0072059D02*
X0428818Y0072059D01*
X0428881Y0072657D02*
X0434530Y0072657D01*
X0434530Y0073256D02*
X0428881Y0073256D01*
X0428881Y0073854D02*
X0434530Y0073854D01*
X0434530Y0074453D02*
X0428881Y0074453D01*
X0428881Y0075051D02*
X0434530Y0075051D01*
X0434530Y0075650D02*
X0428881Y0075650D01*
X0428725Y0076248D02*
X0434530Y0076248D01*
X0434530Y0076847D02*
X0428477Y0076847D01*
X0428229Y0077445D02*
X0434530Y0077445D01*
X0434530Y0078044D02*
X0427981Y0078044D01*
X0427733Y0078642D02*
X0434530Y0078642D01*
X0434530Y0079241D02*
X0427485Y0079241D01*
X0426893Y0079839D02*
X0434530Y0079839D01*
X0434530Y0080438D02*
X0426295Y0080438D01*
X0425696Y0081036D02*
X0434530Y0081036D01*
X0434530Y0081635D02*
X0425097Y0081635D01*
X0423942Y0082233D02*
X0434530Y0082233D01*
X0434530Y0082832D02*
X0422497Y0082832D01*
X0420655Y0087439D02*
X0418708Y0087439D01*
X0417332Y0088816D01*
X0417332Y0090762D01*
X0418708Y0092139D01*
X0420655Y0092139D01*
X0422032Y0090762D01*
X0422032Y0088816D01*
X0420655Y0087439D01*
X0420836Y0087620D02*
X0426401Y0087620D01*
X0426582Y0087439D02*
X0428529Y0087439D01*
X0429906Y0088816D01*
X0429906Y0090762D01*
X0428529Y0092139D01*
X0426582Y0092139D01*
X0425206Y0090762D01*
X0425206Y0088816D01*
X0426582Y0087439D01*
X0425803Y0088219D02*
X0421435Y0088219D01*
X0422032Y0088817D02*
X0425206Y0088817D01*
X0425206Y0089416D02*
X0422032Y0089416D01*
X0422032Y0090014D02*
X0425206Y0090014D01*
X0425206Y0090613D02*
X0422032Y0090613D01*
X0421583Y0091211D02*
X0425654Y0091211D01*
X0426253Y0091810D02*
X0420985Y0091810D01*
X0418379Y0091810D02*
X0413111Y0091810D01*
X0412781Y0092139D02*
X0410834Y0092139D01*
X0409458Y0090762D01*
X0409458Y0088816D01*
X0410834Y0087439D01*
X0412781Y0087439D01*
X0414158Y0088816D01*
X0414158Y0090762D01*
X0412781Y0092139D01*
X0413709Y0091211D02*
X0417780Y0091211D01*
X0417332Y0090613D02*
X0414158Y0090613D01*
X0414158Y0090014D02*
X0417332Y0090014D01*
X0417332Y0089416D02*
X0414158Y0089416D01*
X0414158Y0088817D02*
X0417332Y0088817D01*
X0417929Y0088219D02*
X0413561Y0088219D01*
X0412962Y0087620D02*
X0418527Y0087620D01*
X0416866Y0082832D02*
X0406284Y0082832D01*
X0406284Y0082888D02*
X0404907Y0084265D01*
X0402960Y0084265D01*
X0401584Y0082888D01*
X0401584Y0080942D01*
X0402960Y0079565D01*
X0404907Y0079565D01*
X0406284Y0080942D01*
X0406284Y0082888D01*
X0406284Y0082233D02*
X0415421Y0082233D01*
X0414266Y0081635D02*
X0406284Y0081635D01*
X0406284Y0081036D02*
X0413668Y0081036D01*
X0413069Y0080438D02*
X0405780Y0080438D01*
X0405181Y0079839D02*
X0412470Y0079839D01*
X0411878Y0079241D02*
X0053469Y0079241D01*
X0053465Y0079252D02*
X0050877Y0081840D01*
X0047496Y0083240D01*
X0043836Y0083240D01*
X0040455Y0081840D01*
X0037867Y0079252D01*
X0036467Y0075871D01*
X0036467Y0072211D01*
X0037867Y0068830D01*
X0040455Y0066242D01*
X0043836Y0064842D01*
X0047496Y0064842D01*
X0050877Y0066242D01*
X0053465Y0068830D01*
X0054865Y0072211D01*
X0054865Y0075871D01*
X0053465Y0079252D01*
X0053717Y0078642D02*
X0411631Y0078642D01*
X0411383Y0078044D02*
X0053965Y0078044D01*
X0054213Y0077445D02*
X0411135Y0077445D01*
X0410887Y0076847D02*
X0054461Y0076847D01*
X0054709Y0076248D02*
X0308329Y0076248D01*
X0308472Y0076391D02*
X0307096Y0075014D01*
X0307096Y0073068D01*
X0308472Y0071691D01*
X0310419Y0071691D01*
X0311796Y0073068D01*
X0311796Y0075014D01*
X0310419Y0076391D01*
X0308472Y0076391D01*
X0307731Y0075650D02*
X0054865Y0075650D01*
X0054865Y0075051D02*
X0307132Y0075051D01*
X0307096Y0074453D02*
X0054865Y0074453D01*
X0054865Y0073854D02*
X0307096Y0073854D01*
X0307096Y0073256D02*
X0054865Y0073256D01*
X0054865Y0072657D02*
X0307506Y0072657D01*
X0308104Y0072059D02*
X0054802Y0072059D01*
X0054554Y0071460D02*
X0410794Y0071460D01*
X0411041Y0070862D02*
X0054306Y0070862D01*
X0054058Y0070263D02*
X0411289Y0070263D01*
X0411537Y0069665D02*
X0053810Y0069665D01*
X0053563Y0069066D02*
X0308021Y0069066D01*
X0308472Y0069517D02*
X0307096Y0068140D01*
X0307096Y0066194D01*
X0308472Y0064817D01*
X0310419Y0064817D01*
X0311796Y0066194D01*
X0311796Y0068140D01*
X0310419Y0069517D01*
X0308472Y0069517D01*
X0307423Y0068468D02*
X0053102Y0068468D01*
X0052504Y0067869D02*
X0276371Y0067869D01*
X0275772Y0067271D02*
X0051905Y0067271D01*
X0051307Y0066672D02*
X0275568Y0066672D01*
X0275568Y0066074D02*
X0050470Y0066074D01*
X0049025Y0065475D02*
X0275568Y0065475D01*
X0275811Y0064877D02*
X0047580Y0064877D01*
X0043752Y0064877D02*
X0030938Y0064877D01*
X0030879Y0065475D02*
X0042307Y0065475D01*
X0040862Y0066074D02*
X0030820Y0066074D01*
X0030810Y0066672D02*
X0040025Y0066672D01*
X0039427Y0067271D02*
X0030810Y0067271D01*
X0030810Y0067869D02*
X0038828Y0067869D01*
X0038230Y0068468D02*
X0030810Y0068468D01*
X0030810Y0069066D02*
X0037769Y0069066D01*
X0037522Y0069665D02*
X0030810Y0069665D01*
X0030810Y0070263D02*
X0037274Y0070263D01*
X0037026Y0070862D02*
X0030810Y0070862D01*
X0030810Y0071460D02*
X0036778Y0071460D01*
X0036530Y0072059D02*
X0030810Y0072059D01*
X0030810Y0072657D02*
X0036467Y0072657D01*
X0036467Y0073256D02*
X0030810Y0073256D01*
X0030810Y0073854D02*
X0036467Y0073854D01*
X0036467Y0074453D02*
X0030810Y0074453D01*
X0030810Y0075051D02*
X0036467Y0075051D01*
X0036467Y0075650D02*
X0030810Y0075650D01*
X0030810Y0076248D02*
X0036623Y0076248D01*
X0036871Y0076847D02*
X0030810Y0076847D01*
X0030810Y0077445D02*
X0037119Y0077445D01*
X0037367Y0078044D02*
X0030810Y0078044D01*
X0030810Y0078642D02*
X0037615Y0078642D01*
X0037863Y0079241D02*
X0030810Y0079241D01*
X0030810Y0079839D02*
X0038455Y0079839D01*
X0039053Y0080438D02*
X0030810Y0080438D01*
X0030810Y0081036D02*
X0039652Y0081036D01*
X0040250Y0081635D02*
X0030810Y0081635D01*
X0030810Y0082233D02*
X0041406Y0082233D01*
X0042851Y0082832D02*
X0030810Y0082832D01*
X0030810Y0083430D02*
X0252657Y0083430D01*
X0252368Y0083720D02*
X0253745Y0082343D01*
X0255691Y0082343D01*
X0257068Y0083720D01*
X0257068Y0085666D01*
X0255691Y0087043D01*
X0253745Y0087043D01*
X0252368Y0085666D01*
X0252368Y0083720D01*
X0252368Y0084029D02*
X0030810Y0084029D01*
X0030810Y0084627D02*
X0252368Y0084627D01*
X0252368Y0085226D02*
X0030810Y0085226D01*
X0030810Y0085825D02*
X0252526Y0085825D01*
X0253125Y0086423D02*
X0235843Y0086423D01*
X0235782Y0086362D02*
X0236699Y0087280D01*
X0237196Y0088479D01*
X0237196Y0089777D01*
X0236699Y0090976D01*
X0235782Y0091893D01*
X0234583Y0092390D01*
X0233285Y0092390D01*
X0232086Y0091893D01*
X0231168Y0090976D01*
X0230672Y0089777D01*
X0230672Y0088479D01*
X0231168Y0087280D01*
X0232086Y0086362D01*
X0233285Y0085865D01*
X0234583Y0085865D01*
X0235782Y0086362D01*
X0236441Y0087022D02*
X0253723Y0087022D01*
X0255713Y0087022D02*
X0257166Y0087022D01*
X0257645Y0086543D02*
X0259591Y0086543D01*
X0260968Y0087920D01*
X0260968Y0089866D01*
X0259591Y0091243D01*
X0257645Y0091243D01*
X0256268Y0089866D01*
X0256268Y0087920D01*
X0257645Y0086543D01*
X0256910Y0085825D02*
X0434530Y0085825D01*
X0434530Y0086423D02*
X0256311Y0086423D01*
X0256568Y0087620D02*
X0236840Y0087620D01*
X0237088Y0088219D02*
X0256268Y0088219D01*
X0256268Y0088817D02*
X0237196Y0088817D01*
X0237196Y0089416D02*
X0256268Y0089416D01*
X0256416Y0090014D02*
X0237098Y0090014D01*
X0236850Y0090613D02*
X0257014Y0090613D01*
X0257613Y0091211D02*
X0236464Y0091211D01*
X0235865Y0091810D02*
X0269611Y0091810D01*
X0269068Y0091266D02*
X0269068Y0089320D01*
X0270445Y0087943D01*
X0272391Y0087943D01*
X0273768Y0089320D01*
X0273768Y0091266D01*
X0272391Y0092643D01*
X0270445Y0092643D01*
X0269068Y0091266D01*
X0269068Y0091211D02*
X0259623Y0091211D01*
X0260222Y0090613D02*
X0269068Y0090613D01*
X0269068Y0090014D02*
X0260820Y0090014D01*
X0260968Y0089416D02*
X0269068Y0089416D01*
X0269570Y0088817D02*
X0260968Y0088817D01*
X0260968Y0088219D02*
X0270169Y0088219D01*
X0272667Y0088219D02*
X0279169Y0088219D01*
X0279445Y0087943D02*
X0281391Y0087943D01*
X0282768Y0089320D01*
X0282768Y0091266D01*
X0281391Y0092643D01*
X0279445Y0092643D01*
X0278068Y0091266D01*
X0278068Y0089320D01*
X0279445Y0087943D01*
X0278570Y0088817D02*
X0273265Y0088817D01*
X0273768Y0089416D02*
X0278068Y0089416D01*
X0278068Y0090014D02*
X0273768Y0090014D01*
X0273768Y0090613D02*
X0278068Y0090613D01*
X0278068Y0091211D02*
X0273768Y0091211D01*
X0273225Y0091810D02*
X0278611Y0091810D01*
X0279210Y0092408D02*
X0272626Y0092408D01*
X0270210Y0092408D02*
X0030810Y0092408D01*
X0030810Y0091810D02*
X0072002Y0091810D01*
X0072086Y0091893D02*
X0071168Y0090976D01*
X0070672Y0089777D01*
X0070672Y0088479D01*
X0071168Y0087280D01*
X0072086Y0086362D01*
X0073285Y0085865D01*
X0074583Y0085865D01*
X0075782Y0086362D01*
X0076699Y0087280D01*
X0077196Y0088479D01*
X0077196Y0089777D01*
X0076699Y0090976D01*
X0075782Y0091893D01*
X0074583Y0092390D01*
X0073285Y0092390D01*
X0072086Y0091893D01*
X0071404Y0091211D02*
X0030810Y0091211D01*
X0030810Y0090613D02*
X0071018Y0090613D01*
X0070770Y0090014D02*
X0030810Y0090014D01*
X0030810Y0089416D02*
X0070672Y0089416D01*
X0070672Y0088817D02*
X0030810Y0088817D01*
X0030810Y0088219D02*
X0070779Y0088219D01*
X0071027Y0087620D02*
X0030810Y0087620D01*
X0030810Y0087022D02*
X0071426Y0087022D01*
X0072025Y0086423D02*
X0030810Y0086423D01*
X0030810Y0093007D02*
X0434530Y0093007D01*
X0434530Y0093605D02*
X0042824Y0093605D01*
X0042578Y0093503D02*
X0043783Y0094002D01*
X0044705Y0094924D01*
X0045204Y0096129D01*
X0045204Y0097433D01*
X0044705Y0098638D01*
X0043783Y0099560D01*
X0042578Y0100059D01*
X0041274Y0100059D01*
X0040069Y0099560D01*
X0039147Y0098638D01*
X0038648Y0097433D01*
X0038648Y0096129D01*
X0039147Y0094924D01*
X0040069Y0094002D01*
X0041274Y0093503D01*
X0042578Y0093503D01*
X0041028Y0093605D02*
X0030810Y0093605D01*
X0030810Y0094204D02*
X0039868Y0094204D01*
X0039269Y0094802D02*
X0030810Y0094802D01*
X0030810Y0095401D02*
X0038950Y0095401D01*
X0038702Y0095999D02*
X0030810Y0095999D01*
X0030810Y0096598D02*
X0038648Y0096598D01*
X0038648Y0097196D02*
X0030810Y0097196D01*
X0030810Y0097795D02*
X0038798Y0097795D01*
X0039046Y0098393D02*
X0030810Y0098393D01*
X0030810Y0098992D02*
X0039501Y0098992D01*
X0040142Y0099590D02*
X0030810Y0099590D01*
X0030810Y0100189D02*
X0434530Y0100189D01*
X0434530Y0100787D02*
X0030810Y0100787D01*
X0030810Y0101386D02*
X0434530Y0101386D01*
X0434530Y0101984D02*
X0030810Y0101984D01*
X0030810Y0102583D02*
X0434530Y0102583D01*
X0434530Y0103181D02*
X0030810Y0103181D01*
X0030810Y0103780D02*
X0300005Y0103780D01*
X0300598Y0103187D02*
X0299222Y0104564D01*
X0299222Y0106510D01*
X0300598Y0107887D01*
X0302545Y0107887D01*
X0303922Y0106510D01*
X0303922Y0104564D01*
X0302545Y0103187D01*
X0300598Y0103187D01*
X0299407Y0104378D02*
X0282327Y0104378D01*
X0281891Y0103943D02*
X0283268Y0105320D01*
X0283268Y0107266D01*
X0281891Y0108643D01*
X0279945Y0108643D01*
X0278568Y0107266D01*
X0278568Y0105320D01*
X0279945Y0103943D01*
X0281891Y0103943D01*
X0282925Y0104977D02*
X0299222Y0104977D01*
X0299222Y0105575D02*
X0283268Y0105575D01*
X0283268Y0106174D02*
X0299222Y0106174D01*
X0299483Y0106772D02*
X0283268Y0106772D01*
X0283163Y0107371D02*
X0300082Y0107371D01*
X0303061Y0107371D02*
X0307956Y0107371D01*
X0308472Y0107887D02*
X0307096Y0106510D01*
X0307096Y0104564D01*
X0308472Y0103187D01*
X0310419Y0103187D01*
X0311796Y0104564D01*
X0311796Y0106510D01*
X0310419Y0107887D01*
X0308472Y0107887D01*
X0307357Y0106772D02*
X0303660Y0106772D01*
X0303922Y0106174D02*
X0307096Y0106174D01*
X0307096Y0105575D02*
X0303922Y0105575D01*
X0303922Y0104977D02*
X0307096Y0104977D01*
X0307281Y0104378D02*
X0303736Y0104378D01*
X0303138Y0103780D02*
X0307879Y0103780D01*
X0311012Y0103780D02*
X0315753Y0103780D01*
X0316346Y0103187D02*
X0314970Y0104564D01*
X0314970Y0106510D01*
X0316346Y0107887D01*
X0318293Y0107887D01*
X0319670Y0106510D01*
X0319670Y0104564D01*
X0318293Y0103187D01*
X0316346Y0103187D01*
X0315155Y0104378D02*
X0311610Y0104378D01*
X0311796Y0104977D02*
X0314970Y0104977D01*
X0314970Y0105575D02*
X0311796Y0105575D01*
X0311796Y0106174D02*
X0314970Y0106174D01*
X0315231Y0106772D02*
X0311534Y0106772D01*
X0310935Y0107371D02*
X0315830Y0107371D01*
X0318809Y0107371D02*
X0323704Y0107371D01*
X0324220Y0107887D02*
X0322844Y0106510D01*
X0322844Y0104564D01*
X0324220Y0103187D01*
X0326167Y0103187D01*
X0327544Y0104564D01*
X0327544Y0106510D01*
X0326167Y0107887D01*
X0324220Y0107887D01*
X0323105Y0106772D02*
X0319408Y0106772D01*
X0319670Y0106174D02*
X0322844Y0106174D01*
X0322844Y0105575D02*
X0319670Y0105575D01*
X0319670Y0104977D02*
X0322844Y0104977D01*
X0323029Y0104378D02*
X0319484Y0104378D01*
X0318886Y0103780D02*
X0323627Y0103780D01*
X0326760Y0103780D02*
X0355123Y0103780D01*
X0355716Y0103187D02*
X0357663Y0103187D01*
X0359040Y0104564D01*
X0359040Y0106510D01*
X0357663Y0107887D01*
X0355716Y0107887D01*
X0354340Y0106510D01*
X0354340Y0104564D01*
X0355716Y0103187D01*
X0354525Y0104378D02*
X0327358Y0104378D01*
X0327544Y0104977D02*
X0354340Y0104977D01*
X0354340Y0105575D02*
X0327544Y0105575D01*
X0327544Y0106174D02*
X0354340Y0106174D01*
X0354602Y0106772D02*
X0327282Y0106772D01*
X0326683Y0107371D02*
X0355200Y0107371D01*
X0358179Y0107371D02*
X0363074Y0107371D01*
X0363590Y0107887D02*
X0362214Y0106510D01*
X0362214Y0104564D01*
X0363590Y0103187D01*
X0365537Y0103187D01*
X0366914Y0104564D01*
X0366914Y0106510D01*
X0365537Y0107887D01*
X0363590Y0107887D01*
X0362476Y0106772D02*
X0358778Y0106772D01*
X0359040Y0106174D02*
X0362214Y0106174D01*
X0362214Y0105575D02*
X0359040Y0105575D01*
X0359040Y0104977D02*
X0362214Y0104977D01*
X0362399Y0104378D02*
X0358854Y0104378D01*
X0358256Y0103780D02*
X0362997Y0103780D01*
X0366130Y0103780D02*
X0370871Y0103780D01*
X0371464Y0103187D02*
X0370088Y0104564D01*
X0370088Y0106510D01*
X0371464Y0107887D01*
X0373411Y0107887D01*
X0374788Y0106510D01*
X0374788Y0104564D01*
X0373411Y0103187D01*
X0371464Y0103187D01*
X0370273Y0104378D02*
X0366728Y0104378D01*
X0366914Y0104977D02*
X0370088Y0104977D01*
X0370088Y0105575D02*
X0366914Y0105575D01*
X0366914Y0106174D02*
X0370088Y0106174D01*
X0370350Y0106772D02*
X0366652Y0106772D01*
X0366053Y0107371D02*
X0370948Y0107371D01*
X0373927Y0107371D02*
X0378822Y0107371D01*
X0379338Y0107887D02*
X0377962Y0106510D01*
X0377962Y0104564D01*
X0379338Y0103187D01*
X0381285Y0103187D01*
X0382662Y0104564D01*
X0382662Y0106510D01*
X0381285Y0107887D01*
X0379338Y0107887D01*
X0378224Y0106772D02*
X0374526Y0106772D01*
X0374788Y0106174D02*
X0377962Y0106174D01*
X0377962Y0105575D02*
X0374788Y0105575D01*
X0374788Y0104977D02*
X0377962Y0104977D01*
X0378147Y0104378D02*
X0374602Y0104378D01*
X0374004Y0103780D02*
X0378745Y0103780D01*
X0381878Y0103780D02*
X0410242Y0103780D01*
X0410834Y0103187D02*
X0412781Y0103187D01*
X0414158Y0104564D01*
X0414158Y0106510D01*
X0412781Y0107887D01*
X0410834Y0107887D01*
X0409458Y0106510D01*
X0409458Y0104564D01*
X0410834Y0103187D01*
X0409643Y0104378D02*
X0382476Y0104378D01*
X0382662Y0104977D02*
X0409458Y0104977D01*
X0409458Y0105575D02*
X0382662Y0105575D01*
X0382662Y0106174D02*
X0409458Y0106174D01*
X0409720Y0106772D02*
X0382400Y0106772D01*
X0381801Y0107371D02*
X0410318Y0107371D01*
X0413297Y0107371D02*
X0418192Y0107371D01*
X0418708Y0107887D02*
X0417332Y0106510D01*
X0417332Y0104564D01*
X0418708Y0103187D01*
X0420655Y0103187D01*
X0422032Y0104564D01*
X0422032Y0106510D01*
X0420655Y0107887D01*
X0418708Y0107887D01*
X0417594Y0106772D02*
X0413896Y0106772D01*
X0414158Y0106174D02*
X0417332Y0106174D01*
X0417332Y0105575D02*
X0414158Y0105575D01*
X0414158Y0104977D02*
X0417332Y0104977D01*
X0417517Y0104378D02*
X0413972Y0104378D01*
X0413374Y0103780D02*
X0418116Y0103780D01*
X0421248Y0103780D02*
X0425990Y0103780D01*
X0426582Y0103187D02*
X0425206Y0104564D01*
X0425206Y0106510D01*
X0426582Y0107887D01*
X0428529Y0107887D01*
X0429906Y0106510D01*
X0429906Y0104564D01*
X0428529Y0103187D01*
X0426582Y0103187D01*
X0425391Y0104378D02*
X0421846Y0104378D01*
X0422032Y0104977D02*
X0425206Y0104977D01*
X0425206Y0105575D02*
X0422032Y0105575D01*
X0422032Y0106174D02*
X0425206Y0106174D01*
X0425468Y0106772D02*
X0421770Y0106772D01*
X0421171Y0107371D02*
X0426066Y0107371D01*
X0429045Y0107371D02*
X0434009Y0107371D01*
X0434530Y0106772D02*
X0429644Y0106772D01*
X0429906Y0106174D02*
X0434530Y0106174D01*
X0434530Y0105575D02*
X0429906Y0105575D01*
X0429906Y0104977D02*
X0434530Y0104977D01*
X0434530Y0104378D02*
X0429720Y0104378D01*
X0429122Y0103780D02*
X0434530Y0103780D01*
X0433112Y0107969D02*
X0282565Y0107969D01*
X0281966Y0108568D02*
X0432214Y0108568D01*
X0431316Y0109166D02*
X0232584Y0109166D01*
X0232584Y0108568D02*
X0274870Y0108568D01*
X0274945Y0108643D02*
X0273568Y0107266D01*
X0273568Y0105320D01*
X0274945Y0103943D01*
X0276891Y0103943D01*
X0278268Y0105320D01*
X0278268Y0107266D01*
X0276891Y0108643D01*
X0274945Y0108643D01*
X0274271Y0107969D02*
X0232405Y0107969D01*
X0232584Y0108402D02*
X0232028Y0107060D01*
X0231001Y0106033D01*
X0229660Y0105478D01*
X0228208Y0105478D01*
X0226866Y0106033D01*
X0225839Y0107060D01*
X0225284Y0108402D01*
X0225284Y0109854D01*
X0225839Y0111195D01*
X0226866Y0112222D01*
X0228208Y0112778D01*
X0229660Y0112778D01*
X0231001Y0112222D01*
X0232028Y0111195D01*
X0232584Y0109854D01*
X0232584Y0108402D01*
X0232157Y0107371D02*
X0273673Y0107371D01*
X0273568Y0106772D02*
X0231740Y0106772D01*
X0231142Y0106174D02*
X0273568Y0106174D01*
X0273568Y0105575D02*
X0229896Y0105575D01*
X0227972Y0105575D02*
X0219896Y0105575D01*
X0219660Y0105478D02*
X0221001Y0106033D01*
X0222028Y0107060D01*
X0222584Y0108402D01*
X0222584Y0109854D01*
X0222028Y0111195D01*
X0221001Y0112222D01*
X0219660Y0112778D01*
X0218208Y0112778D01*
X0216866Y0112222D01*
X0215839Y0111195D01*
X0215284Y0109854D01*
X0215284Y0108402D01*
X0215839Y0107060D01*
X0216866Y0106033D01*
X0218208Y0105478D01*
X0219660Y0105478D01*
X0221142Y0106174D02*
X0226726Y0106174D01*
X0226127Y0106772D02*
X0221740Y0106772D01*
X0222157Y0107371D02*
X0225711Y0107371D01*
X0225463Y0107969D02*
X0222405Y0107969D01*
X0222584Y0108568D02*
X0225284Y0108568D01*
X0225284Y0109166D02*
X0222584Y0109166D01*
X0222584Y0109765D02*
X0225284Y0109765D01*
X0225495Y0110363D02*
X0222373Y0110363D01*
X0222125Y0110962D02*
X0225743Y0110962D01*
X0226205Y0111560D02*
X0221663Y0111560D01*
X0221064Y0112159D02*
X0226803Y0112159D01*
X0228159Y0112758D02*
X0219708Y0112758D01*
X0218159Y0112758D02*
X0209708Y0112758D01*
X0209660Y0112778D02*
X0208208Y0112778D01*
X0206866Y0112222D01*
X0205839Y0111195D01*
X0205284Y0109854D01*
X0205284Y0108402D01*
X0205839Y0107060D01*
X0206866Y0106033D01*
X0208208Y0105478D01*
X0209660Y0105478D01*
X0211001Y0106033D01*
X0212028Y0107060D01*
X0212584Y0108402D01*
X0212584Y0109854D01*
X0212028Y0111195D01*
X0211001Y0112222D01*
X0209660Y0112778D01*
X0208159Y0112758D02*
X0199708Y0112758D01*
X0199660Y0112778D02*
X0198208Y0112778D01*
X0196866Y0112222D01*
X0195839Y0111195D01*
X0195284Y0109854D01*
X0195284Y0108402D01*
X0195839Y0107060D01*
X0196866Y0106033D01*
X0198208Y0105478D01*
X0199660Y0105478D01*
X0201001Y0106033D01*
X0202028Y0107060D01*
X0202584Y0108402D01*
X0202584Y0109854D01*
X0202028Y0111195D01*
X0201001Y0112222D01*
X0199660Y0112778D01*
X0198159Y0112758D02*
X0189708Y0112758D01*
X0189660Y0112778D02*
X0188208Y0112778D01*
X0186866Y0112222D01*
X0185839Y0111195D01*
X0185284Y0109854D01*
X0185284Y0108402D01*
X0185839Y0107060D01*
X0186866Y0106033D01*
X0188208Y0105478D01*
X0189660Y0105478D01*
X0191001Y0106033D01*
X0192028Y0107060D01*
X0192584Y0108402D01*
X0192584Y0109854D01*
X0192028Y0111195D01*
X0191001Y0112222D01*
X0189660Y0112778D01*
X0188159Y0112758D02*
X0179708Y0112758D01*
X0179660Y0112778D02*
X0178208Y0112778D01*
X0176866Y0112222D01*
X0175839Y0111195D01*
X0175284Y0109854D01*
X0175284Y0108402D01*
X0175839Y0107060D01*
X0176866Y0106033D01*
X0178208Y0105478D01*
X0179660Y0105478D01*
X0181001Y0106033D01*
X0182028Y0107060D01*
X0182584Y0108402D01*
X0182584Y0109854D01*
X0182028Y0111195D01*
X0181001Y0112222D01*
X0179660Y0112778D01*
X0178159Y0112758D02*
X0169708Y0112758D01*
X0169660Y0112778D02*
X0168208Y0112778D01*
X0166866Y0112222D01*
X0165839Y0111195D01*
X0165284Y0109854D01*
X0165284Y0108402D01*
X0165839Y0107060D01*
X0166866Y0106033D01*
X0168208Y0105478D01*
X0169660Y0105478D01*
X0171001Y0106033D01*
X0172028Y0107060D01*
X0172584Y0108402D01*
X0172584Y0109854D01*
X0172028Y0111195D01*
X0171001Y0112222D01*
X0169660Y0112778D01*
X0168159Y0112758D02*
X0159708Y0112758D01*
X0159660Y0112778D02*
X0158208Y0112778D01*
X0156866Y0112222D01*
X0155839Y0111195D01*
X0155284Y0109854D01*
X0155284Y0108402D01*
X0155839Y0107060D01*
X0156866Y0106033D01*
X0158208Y0105478D01*
X0159660Y0105478D01*
X0161001Y0106033D01*
X0162028Y0107060D01*
X0162584Y0108402D01*
X0162584Y0109854D01*
X0162028Y0111195D01*
X0161001Y0112222D01*
X0159660Y0112778D01*
X0158159Y0112758D02*
X0149708Y0112758D01*
X0149660Y0112778D02*
X0148208Y0112778D01*
X0146866Y0112222D01*
X0145839Y0111195D01*
X0145284Y0109854D01*
X0145284Y0108402D01*
X0145839Y0107060D01*
X0146866Y0106033D01*
X0148208Y0105478D01*
X0149660Y0105478D01*
X0151001Y0106033D01*
X0152028Y0107060D01*
X0152584Y0108402D01*
X0152584Y0109854D01*
X0152028Y0111195D01*
X0151001Y0112222D01*
X0149660Y0112778D01*
X0148159Y0112758D02*
X0139708Y0112758D01*
X0139660Y0112778D02*
X0138208Y0112778D01*
X0136866Y0112222D01*
X0135839Y0111195D01*
X0135284Y0109854D01*
X0135284Y0108402D01*
X0135839Y0107060D01*
X0136866Y0106033D01*
X0138208Y0105478D01*
X0139660Y0105478D01*
X0141001Y0106033D01*
X0142028Y0107060D01*
X0142584Y0108402D01*
X0142584Y0109854D01*
X0142028Y0111195D01*
X0141001Y0112222D01*
X0139660Y0112778D01*
X0138159Y0112758D02*
X0129708Y0112758D01*
X0129660Y0112778D02*
X0128208Y0112778D01*
X0126866Y0112222D01*
X0125839Y0111195D01*
X0125284Y0109854D01*
X0125284Y0108402D01*
X0125839Y0107060D01*
X0126866Y0106033D01*
X0128208Y0105478D01*
X0129660Y0105478D01*
X0131001Y0106033D01*
X0132028Y0107060D01*
X0132584Y0108402D01*
X0132584Y0109854D01*
X0132028Y0111195D01*
X0131001Y0112222D01*
X0129660Y0112778D01*
X0128159Y0112758D02*
X0119708Y0112758D01*
X0119660Y0112778D02*
X0121001Y0112222D01*
X0122028Y0111195D01*
X0122584Y0109854D01*
X0122584Y0108402D01*
X0122028Y0107060D01*
X0121001Y0106033D01*
X0119660Y0105478D01*
X0118208Y0105478D01*
X0116866Y0106033D01*
X0115839Y0107060D01*
X0115284Y0108402D01*
X0115284Y0109854D01*
X0115839Y0111195D01*
X0116866Y0112222D01*
X0118208Y0112778D01*
X0119660Y0112778D01*
X0118159Y0112758D02*
X0109708Y0112758D01*
X0109660Y0112778D02*
X0108208Y0112778D01*
X0106866Y0112222D01*
X0105839Y0111195D01*
X0105284Y0109854D01*
X0105284Y0108402D01*
X0105839Y0107060D01*
X0106866Y0106033D01*
X0108208Y0105478D01*
X0109660Y0105478D01*
X0111001Y0106033D01*
X0112028Y0107060D01*
X0112584Y0108402D01*
X0112584Y0109854D01*
X0112028Y0111195D01*
X0111001Y0112222D01*
X0109660Y0112778D01*
X0108159Y0112758D02*
X0099708Y0112758D01*
X0099660Y0112778D02*
X0098208Y0112778D01*
X0096866Y0112222D01*
X0095839Y0111195D01*
X0095284Y0109854D01*
X0095284Y0108402D01*
X0095839Y0107060D01*
X0096866Y0106033D01*
X0098208Y0105478D01*
X0099660Y0105478D01*
X0101001Y0106033D01*
X0102028Y0107060D01*
X0102584Y0108402D01*
X0102584Y0109854D01*
X0102028Y0111195D01*
X0101001Y0112222D01*
X0099660Y0112778D01*
X0098159Y0112758D02*
X0089708Y0112758D01*
X0089660Y0112778D02*
X0088208Y0112778D01*
X0086866Y0112222D01*
X0085839Y0111195D01*
X0085284Y0109854D01*
X0085284Y0108402D01*
X0085839Y0107060D01*
X0086866Y0106033D01*
X0088208Y0105478D01*
X0089660Y0105478D01*
X0091001Y0106033D01*
X0092028Y0107060D01*
X0092584Y0108402D01*
X0092584Y0109854D01*
X0092028Y0111195D01*
X0091001Y0112222D01*
X0089660Y0112778D01*
X0088159Y0112758D02*
X0079708Y0112758D01*
X0079660Y0112778D02*
X0078208Y0112778D01*
X0076866Y0112222D01*
X0075839Y0111195D01*
X0075284Y0109854D01*
X0075284Y0108402D01*
X0075839Y0107060D01*
X0076866Y0106033D01*
X0078208Y0105478D01*
X0079660Y0105478D01*
X0081001Y0106033D01*
X0082028Y0107060D01*
X0082584Y0108402D01*
X0082584Y0109854D01*
X0082028Y0111195D01*
X0081001Y0112222D01*
X0079660Y0112778D01*
X0078159Y0112758D02*
X0069708Y0112758D01*
X0069660Y0112778D02*
X0068208Y0112778D01*
X0066866Y0112222D01*
X0065839Y0111195D01*
X0065284Y0109854D01*
X0065284Y0108402D01*
X0065839Y0107060D01*
X0066866Y0106033D01*
X0068208Y0105478D01*
X0069660Y0105478D01*
X0071001Y0106033D01*
X0072028Y0107060D01*
X0072584Y0108402D01*
X0072584Y0109854D01*
X0072028Y0111195D01*
X0071001Y0112222D01*
X0069660Y0112778D01*
X0068159Y0112758D02*
X0045204Y0112758D01*
X0045204Y0113181D02*
X0044705Y0114386D01*
X0043783Y0115308D01*
X0042578Y0115807D01*
X0041274Y0115807D01*
X0040069Y0115308D01*
X0039147Y0114386D01*
X0038648Y0113181D01*
X0038648Y0111877D01*
X0039147Y0110672D01*
X0040069Y0109750D01*
X0041274Y0109251D01*
X0042578Y0109251D01*
X0043783Y0109750D01*
X0044705Y0110672D01*
X0045204Y0111877D01*
X0045204Y0113181D01*
X0045131Y0113356D02*
X0282432Y0113356D01*
X0282268Y0113520D02*
X0283645Y0112143D01*
X0285591Y0112143D01*
X0286768Y0113320D01*
X0286768Y0113320D01*
X0288145Y0111943D01*
X0290091Y0111943D01*
X0291218Y0113070D01*
X0292345Y0111943D01*
X0294291Y0111943D01*
X0295527Y0113179D01*
X0296661Y0112045D01*
X0298608Y0112045D01*
X0299984Y0113422D01*
X0299984Y0115369D01*
X0298989Y0116364D01*
X0299984Y0117359D01*
X0299984Y0119306D01*
X0298989Y0120301D01*
X0299984Y0121296D01*
X0299984Y0123243D01*
X0298608Y0124619D01*
X0296661Y0124619D01*
X0295285Y0123243D01*
X0295285Y0121296D01*
X0296280Y0120301D01*
X0295285Y0119306D01*
X0295285Y0117359D01*
X0296280Y0116364D01*
X0295425Y0115509D01*
X0294291Y0116643D01*
X0292345Y0116643D01*
X0291218Y0115516D01*
X0290091Y0116643D01*
X0288145Y0116643D01*
X0286968Y0115466D01*
X0286968Y0115466D01*
X0285591Y0116843D01*
X0283645Y0116843D01*
X0282268Y0115466D01*
X0282268Y0113520D01*
X0282268Y0113955D02*
X0044883Y0113955D01*
X0044538Y0114553D02*
X0282268Y0114553D01*
X0282268Y0115152D02*
X0043939Y0115152D01*
X0042716Y0115750D02*
X0282552Y0115750D01*
X0283150Y0116349D02*
X0030810Y0116349D01*
X0030810Y0116947D02*
X0295696Y0116947D01*
X0295285Y0117546D02*
X0043593Y0117546D01*
X0043783Y0117624D02*
X0044705Y0118546D01*
X0045204Y0119751D01*
X0045204Y0121055D01*
X0044705Y0122260D01*
X0043783Y0123182D01*
X0042578Y0123681D01*
X0041274Y0123681D01*
X0040069Y0123182D01*
X0039147Y0122260D01*
X0038648Y0121055D01*
X0038648Y0119751D01*
X0039147Y0118546D01*
X0040069Y0117624D01*
X0041274Y0117125D01*
X0042578Y0117125D01*
X0043783Y0117624D01*
X0044302Y0118144D02*
X0295285Y0118144D01*
X0295285Y0118743D02*
X0158191Y0118743D01*
X0157691Y0118243D02*
X0159068Y0119620D01*
X0159068Y0121566D01*
X0157691Y0122943D01*
X0155745Y0122943D01*
X0154368Y0121566D01*
X0154368Y0119620D01*
X0155745Y0118243D01*
X0157691Y0118243D01*
X0158790Y0119341D02*
X0295320Y0119341D01*
X0295918Y0119940D02*
X0159068Y0119940D01*
X0159068Y0120538D02*
X0296042Y0120538D01*
X0295444Y0121137D02*
X0159068Y0121137D01*
X0158899Y0121735D02*
X0295285Y0121735D01*
X0295285Y0122334D02*
X0158301Y0122334D01*
X0157702Y0122932D02*
X0174555Y0122932D01*
X0175045Y0122443D02*
X0173668Y0123820D01*
X0173668Y0125743D01*
X0171745Y0125743D01*
X0170368Y0127120D01*
X0170368Y0129066D01*
X0171745Y0130443D01*
X0173691Y0130443D01*
X0175068Y0129066D01*
X0175068Y0127143D01*
X0176991Y0127143D01*
X0178368Y0125766D01*
X0178368Y0123820D01*
X0176991Y0122443D01*
X0175045Y0122443D01*
X0173957Y0123531D02*
X0154079Y0123531D01*
X0154668Y0124120D02*
X0153291Y0122743D01*
X0151345Y0122743D01*
X0149968Y0124120D01*
X0149968Y0126066D01*
X0151145Y0127243D01*
X0150068Y0128320D01*
X0150068Y0130266D01*
X0151445Y0131643D01*
X0153391Y0131643D01*
X0154768Y0130266D01*
X0154768Y0128320D01*
X0153591Y0127143D01*
X0154668Y0126066D01*
X0154668Y0124120D01*
X0154668Y0124129D02*
X0173668Y0124129D01*
X0173668Y0124728D02*
X0162776Y0124728D01*
X0162691Y0124643D02*
X0164068Y0126020D01*
X0164068Y0127966D01*
X0162991Y0129043D01*
X0164168Y0130220D01*
X0164168Y0132166D01*
X0162791Y0133543D01*
X0160845Y0133543D01*
X0159468Y0132166D01*
X0159468Y0130220D01*
X0160545Y0129143D01*
X0159368Y0127966D01*
X0159368Y0126020D01*
X0160745Y0124643D01*
X0162691Y0124643D01*
X0163375Y0125326D02*
X0173668Y0125326D01*
X0171563Y0125925D02*
X0163973Y0125925D01*
X0164068Y0126523D02*
X0170964Y0126523D01*
X0170368Y0127122D02*
X0164068Y0127122D01*
X0164068Y0127720D02*
X0170368Y0127720D01*
X0170368Y0128319D02*
X0163716Y0128319D01*
X0163117Y0128917D02*
X0170368Y0128917D01*
X0170817Y0129516D02*
X0163464Y0129516D01*
X0164063Y0130114D02*
X0171416Y0130114D01*
X0174020Y0130114D02*
X0180568Y0130114D01*
X0180568Y0130266D02*
X0180568Y0128320D01*
X0181095Y0127793D01*
X0180568Y0127266D01*
X0180568Y0125320D01*
X0181945Y0123943D01*
X0183891Y0123943D01*
X0185268Y0125320D01*
X0185268Y0127266D01*
X0184741Y0127793D01*
X0185268Y0128320D01*
X0185268Y0130266D01*
X0184741Y0130793D01*
X0185268Y0131320D01*
X0185268Y0133266D01*
X0183891Y0134643D01*
X0181945Y0134643D01*
X0180568Y0133266D01*
X0180568Y0131320D01*
X0181095Y0130793D01*
X0180568Y0130266D01*
X0181014Y0130713D02*
X0164168Y0130713D01*
X0164168Y0131311D02*
X0180576Y0131311D01*
X0180568Y0131910D02*
X0164168Y0131910D01*
X0163826Y0132508D02*
X0180568Y0132508D01*
X0180568Y0133107D02*
X0163227Y0133107D01*
X0160408Y0133107D02*
X0030810Y0133107D01*
X0030810Y0133705D02*
X0181007Y0133705D01*
X0181606Y0134304D02*
X0030810Y0134304D01*
X0030810Y0134902D02*
X0039988Y0134902D01*
X0040069Y0134821D02*
X0041274Y0134322D01*
X0042578Y0134322D01*
X0043783Y0134821D01*
X0044705Y0135743D01*
X0045204Y0136948D01*
X0045204Y0138252D01*
X0044705Y0139457D01*
X0043783Y0140379D01*
X0042578Y0140878D01*
X0041274Y0140878D01*
X0040069Y0140379D01*
X0039147Y0139457D01*
X0038648Y0138252D01*
X0038648Y0136948D01*
X0039147Y0135743D01*
X0040069Y0134821D01*
X0039389Y0135501D02*
X0030810Y0135501D01*
X0030810Y0136099D02*
X0038999Y0136099D01*
X0038751Y0136698D02*
X0030810Y0136698D01*
X0030810Y0137296D02*
X0038648Y0137296D01*
X0038648Y0137895D02*
X0030810Y0137895D01*
X0030810Y0138494D02*
X0038748Y0138494D01*
X0038996Y0139092D02*
X0030810Y0139092D01*
X0030810Y0139691D02*
X0039381Y0139691D01*
X0039979Y0140289D02*
X0030810Y0140289D01*
X0030810Y0140888D02*
X0169189Y0140888D01*
X0169788Y0141486D02*
X0030810Y0141486D01*
X0030810Y0142085D02*
X0265194Y0142085D01*
X0265709Y0142599D02*
X0264612Y0141502D01*
X0264018Y0140069D01*
X0264018Y0138517D01*
X0264612Y0137084D01*
X0265709Y0135987D01*
X0267142Y0135393D01*
X0268694Y0135393D01*
X0270127Y0135987D01*
X0271224Y0137084D01*
X0271818Y0138517D01*
X0271818Y0140069D01*
X0271224Y0141502D01*
X0270127Y0142599D01*
X0268694Y0143193D01*
X0267142Y0143193D01*
X0265709Y0142599D01*
X0265911Y0142683D02*
X0030810Y0142683D01*
X0030810Y0143282D02*
X0252696Y0143282D01*
X0253198Y0142779D02*
X0251822Y0144156D01*
X0251822Y0144979D01*
X0250798Y0144979D01*
X0249422Y0146356D01*
X0249422Y0148303D01*
X0250798Y0149679D01*
X0252745Y0149679D01*
X0254122Y0148303D01*
X0254122Y0147479D01*
X0254222Y0147479D01*
X0254222Y0148303D01*
X0255598Y0149679D01*
X0257545Y0149679D01*
X0258922Y0148303D01*
X0258922Y0146356D01*
X0257545Y0144979D01*
X0256522Y0144979D01*
X0256522Y0144156D01*
X0255145Y0142779D01*
X0253198Y0142779D01*
X0252097Y0143880D02*
X0030810Y0143880D01*
X0030810Y0144479D02*
X0251822Y0144479D01*
X0250700Y0145077D02*
X0030810Y0145077D01*
X0030810Y0145676D02*
X0067730Y0145676D01*
X0068208Y0145478D02*
X0069660Y0145478D01*
X0071001Y0146033D01*
X0072028Y0147060D01*
X0072584Y0148402D01*
X0072584Y0149854D01*
X0072028Y0151195D01*
X0071001Y0152222D01*
X0069660Y0152778D01*
X0068208Y0152778D01*
X0066866Y0152222D01*
X0065839Y0151195D01*
X0065284Y0149854D01*
X0065284Y0148402D01*
X0065839Y0147060D01*
X0066866Y0146033D01*
X0068208Y0145478D01*
X0066625Y0146274D02*
X0030810Y0146274D01*
X0030810Y0146873D02*
X0066027Y0146873D01*
X0065669Y0147471D02*
X0030810Y0147471D01*
X0030810Y0148070D02*
X0065421Y0148070D01*
X0065284Y0148668D02*
X0030810Y0148668D01*
X0030810Y0149267D02*
X0065284Y0149267D01*
X0065289Y0149865D02*
X0030810Y0149865D01*
X0030810Y0150464D02*
X0040324Y0150464D01*
X0040069Y0150569D02*
X0041274Y0150070D01*
X0042578Y0150070D01*
X0043783Y0150569D01*
X0044705Y0151491D01*
X0045204Y0152696D01*
X0045204Y0154000D01*
X0044705Y0155205D01*
X0043783Y0156127D01*
X0042578Y0156626D01*
X0041274Y0156626D01*
X0040069Y0156127D01*
X0039147Y0155205D01*
X0038648Y0154000D01*
X0038648Y0152696D01*
X0039147Y0151491D01*
X0040069Y0150569D01*
X0039576Y0151062D02*
X0030810Y0151062D01*
X0030810Y0151661D02*
X0039077Y0151661D01*
X0038829Y0152259D02*
X0030810Y0152259D01*
X0030810Y0152858D02*
X0038648Y0152858D01*
X0038648Y0153456D02*
X0030810Y0153456D01*
X0030810Y0154055D02*
X0038671Y0154055D01*
X0038918Y0154653D02*
X0030810Y0154653D01*
X0030810Y0155252D02*
X0039194Y0155252D01*
X0039792Y0155850D02*
X0030810Y0155850D01*
X0030810Y0156449D02*
X0040846Y0156449D01*
X0041274Y0157944D02*
X0042578Y0157944D01*
X0043783Y0158443D01*
X0044705Y0159365D01*
X0045204Y0160570D01*
X0045204Y0161874D01*
X0044705Y0163079D01*
X0043783Y0164001D01*
X0042578Y0164500D01*
X0041274Y0164500D01*
X0040069Y0164001D01*
X0039147Y0163079D01*
X0038648Y0161874D01*
X0038648Y0160570D01*
X0039147Y0159365D01*
X0040069Y0158443D01*
X0041274Y0157944D01*
X0040549Y0158244D02*
X0030810Y0158244D01*
X0030810Y0157646D02*
X0264018Y0157646D01*
X0264018Y0158069D02*
X0264018Y0156517D01*
X0264612Y0155084D01*
X0265709Y0153987D01*
X0267142Y0153393D01*
X0268694Y0153393D01*
X0270127Y0153987D01*
X0271224Y0155084D01*
X0271818Y0156517D01*
X0271818Y0158069D01*
X0271224Y0159502D01*
X0270127Y0160599D01*
X0268694Y0161193D01*
X0267142Y0161193D01*
X0265709Y0160599D01*
X0264612Y0159502D01*
X0264018Y0158069D01*
X0264091Y0158244D02*
X0043303Y0158244D01*
X0044182Y0158843D02*
X0264339Y0158843D01*
X0264587Y0159441D02*
X0044736Y0159441D01*
X0044984Y0160040D02*
X0265149Y0160040D01*
X0265803Y0160638D02*
X0045204Y0160638D01*
X0045204Y0161237D02*
X0299222Y0161237D01*
X0299222Y0161629D02*
X0299222Y0159682D01*
X0300598Y0158305D01*
X0302545Y0158305D01*
X0303922Y0159682D01*
X0303922Y0161629D01*
X0302545Y0163005D01*
X0300598Y0163005D01*
X0299222Y0161629D01*
X0299428Y0161835D02*
X0045204Y0161835D01*
X0044972Y0162434D02*
X0267043Y0162434D01*
X0267142Y0162393D02*
X0268694Y0162393D01*
X0270127Y0162987D01*
X0271224Y0164084D01*
X0271818Y0165517D01*
X0271818Y0167069D01*
X0271224Y0168502D01*
X0270127Y0169599D01*
X0268694Y0170193D01*
X0267142Y0170193D01*
X0265709Y0169599D01*
X0264612Y0168502D01*
X0264018Y0167069D01*
X0264018Y0165517D01*
X0264612Y0164084D01*
X0265709Y0162987D01*
X0267142Y0162393D01*
X0265663Y0163032D02*
X0044724Y0163032D01*
X0044153Y0163631D02*
X0265065Y0163631D01*
X0264551Y0164229D02*
X0043231Y0164229D01*
X0040621Y0164229D02*
X0030810Y0164229D01*
X0030810Y0163631D02*
X0039699Y0163631D01*
X0039128Y0163032D02*
X0030810Y0163032D01*
X0030810Y0162434D02*
X0038880Y0162434D01*
X0038648Y0161835D02*
X0030810Y0161835D01*
X0030810Y0161237D02*
X0038648Y0161237D01*
X0038648Y0160638D02*
X0030810Y0160638D01*
X0030810Y0160040D02*
X0038867Y0160040D01*
X0039115Y0159441D02*
X0030810Y0159441D01*
X0030810Y0158843D02*
X0039669Y0158843D01*
X0043006Y0156449D02*
X0264046Y0156449D01*
X0264018Y0157047D02*
X0030810Y0157047D01*
X0030810Y0164828D02*
X0264303Y0164828D01*
X0264056Y0165427D02*
X0030810Y0165427D01*
X0030810Y0166025D02*
X0072900Y0166025D01*
X0073285Y0165865D02*
X0074583Y0165865D01*
X0075782Y0166362D01*
X0076699Y0167280D01*
X0077196Y0168479D01*
X0077196Y0169777D01*
X0076699Y0170976D01*
X0075782Y0171893D01*
X0074583Y0172390D01*
X0073285Y0172390D01*
X0072086Y0171893D01*
X0071168Y0170976D01*
X0070672Y0169777D01*
X0070672Y0168479D01*
X0071168Y0167280D01*
X0072086Y0166362D01*
X0073285Y0165865D01*
X0071824Y0166624D02*
X0030810Y0166624D01*
X0030810Y0167222D02*
X0071226Y0167222D01*
X0070944Y0167821D02*
X0030810Y0167821D01*
X0030810Y0168419D02*
X0070696Y0168419D01*
X0070672Y0169018D02*
X0030810Y0169018D01*
X0030810Y0169616D02*
X0070672Y0169616D01*
X0070853Y0170215D02*
X0030810Y0170215D01*
X0030810Y0170813D02*
X0071101Y0170813D01*
X0071604Y0171412D02*
X0030810Y0171412D01*
X0030810Y0172010D02*
X0072368Y0172010D01*
X0075499Y0172010D02*
X0232368Y0172010D01*
X0232086Y0171893D02*
X0231168Y0170976D01*
X0230672Y0169777D01*
X0230672Y0168479D01*
X0231168Y0167280D01*
X0232086Y0166362D01*
X0233285Y0165865D01*
X0234583Y0165865D01*
X0235782Y0166362D01*
X0236699Y0167280D01*
X0237196Y0168479D01*
X0237196Y0169777D01*
X0236699Y0170976D01*
X0235782Y0171893D01*
X0234583Y0172390D01*
X0233285Y0172390D01*
X0232086Y0171893D01*
X0231604Y0171412D02*
X0076263Y0171412D01*
X0076767Y0170813D02*
X0231101Y0170813D01*
X0230853Y0170215D02*
X0077014Y0170215D01*
X0077196Y0169616D02*
X0230672Y0169616D01*
X0230672Y0169018D02*
X0077196Y0169018D01*
X0077171Y0168419D02*
X0230696Y0168419D01*
X0230944Y0167821D02*
X0076923Y0167821D01*
X0076642Y0167222D02*
X0231226Y0167222D01*
X0231824Y0166624D02*
X0076043Y0166624D01*
X0074968Y0166025D02*
X0232900Y0166025D01*
X0234968Y0166025D02*
X0264018Y0166025D01*
X0264018Y0166624D02*
X0236043Y0166624D01*
X0236642Y0167222D02*
X0264081Y0167222D01*
X0264329Y0167821D02*
X0236923Y0167821D01*
X0237171Y0168419D02*
X0264577Y0168419D01*
X0265127Y0169018D02*
X0237196Y0169018D01*
X0237196Y0169616D02*
X0265749Y0169616D01*
X0270086Y0169616D02*
X0299335Y0169616D01*
X0299222Y0169503D02*
X0299222Y0167556D01*
X0300598Y0166179D01*
X0302545Y0166179D01*
X0303922Y0167556D01*
X0303922Y0169503D01*
X0302545Y0170879D01*
X0300598Y0170879D01*
X0299222Y0169503D01*
X0299222Y0169018D02*
X0270709Y0169018D01*
X0271259Y0168419D02*
X0299222Y0168419D01*
X0299222Y0167821D02*
X0271507Y0167821D01*
X0271754Y0167222D02*
X0299555Y0167222D01*
X0300154Y0166624D02*
X0271818Y0166624D01*
X0271818Y0166025D02*
X0434530Y0166025D01*
X0434530Y0165427D02*
X0271780Y0165427D01*
X0271532Y0164828D02*
X0434530Y0164828D01*
X0434530Y0164229D02*
X0271285Y0164229D01*
X0270771Y0163631D02*
X0434530Y0163631D01*
X0434530Y0163032D02*
X0270173Y0163032D01*
X0268793Y0162434D02*
X0300027Y0162434D01*
X0299222Y0160638D02*
X0270033Y0160638D01*
X0270686Y0160040D02*
X0299222Y0160040D01*
X0299462Y0159441D02*
X0271249Y0159441D01*
X0271497Y0158843D02*
X0300060Y0158843D01*
X0303083Y0158843D02*
X0307934Y0158843D01*
X0308472Y0158305D02*
X0307096Y0159682D01*
X0307096Y0161629D01*
X0308472Y0163005D01*
X0310419Y0163005D01*
X0311796Y0161629D01*
X0311796Y0159682D01*
X0310419Y0158305D01*
X0308472Y0158305D01*
X0307336Y0159441D02*
X0303681Y0159441D01*
X0303922Y0160040D02*
X0307096Y0160040D01*
X0307096Y0160638D02*
X0303922Y0160638D01*
X0303922Y0161237D02*
X0307096Y0161237D01*
X0307302Y0161835D02*
X0303715Y0161835D01*
X0303116Y0162434D02*
X0307901Y0162434D01*
X0310990Y0162434D02*
X0315775Y0162434D01*
X0316346Y0163005D02*
X0314970Y0161629D01*
X0314970Y0159682D01*
X0316346Y0158305D01*
X0318293Y0158305D01*
X0319670Y0159682D01*
X0319670Y0161629D01*
X0318293Y0163005D01*
X0316346Y0163005D01*
X0315176Y0161835D02*
X0311589Y0161835D01*
X0311796Y0161237D02*
X0314970Y0161237D01*
X0314970Y0160638D02*
X0311796Y0160638D01*
X0311796Y0160040D02*
X0314970Y0160040D01*
X0315210Y0159441D02*
X0311555Y0159441D01*
X0310957Y0158843D02*
X0315808Y0158843D01*
X0318831Y0158843D02*
X0323682Y0158843D01*
X0324220Y0158305D02*
X0326167Y0158305D01*
X0327544Y0159682D01*
X0327544Y0161629D01*
X0326167Y0163005D01*
X0324220Y0163005D01*
X0322844Y0161629D01*
X0322844Y0159682D01*
X0324220Y0158305D01*
X0323084Y0159441D02*
X0319429Y0159441D01*
X0319670Y0160040D02*
X0322844Y0160040D01*
X0322844Y0160638D02*
X0319670Y0160638D01*
X0319670Y0161237D02*
X0322844Y0161237D01*
X0323050Y0161835D02*
X0319463Y0161835D01*
X0318864Y0162434D02*
X0323649Y0162434D01*
X0326738Y0162434D02*
X0355145Y0162434D01*
X0355716Y0163005D02*
X0354340Y0161629D01*
X0354340Y0159682D01*
X0355716Y0158305D01*
X0357663Y0158305D01*
X0359040Y0159682D01*
X0359040Y0161629D01*
X0357663Y0163005D01*
X0355716Y0163005D01*
X0354546Y0161835D02*
X0327337Y0161835D01*
X0327544Y0161237D02*
X0354340Y0161237D01*
X0354340Y0160638D02*
X0327544Y0160638D01*
X0327544Y0160040D02*
X0354340Y0160040D01*
X0354580Y0159441D02*
X0327303Y0159441D01*
X0326705Y0158843D02*
X0355179Y0158843D01*
X0358201Y0158843D02*
X0363053Y0158843D01*
X0363590Y0158305D02*
X0365537Y0158305D01*
X0366914Y0159682D01*
X0366914Y0161629D01*
X0365537Y0163005D01*
X0363590Y0163005D01*
X0362214Y0161629D01*
X0362214Y0159682D01*
X0363590Y0158305D01*
X0362454Y0159441D02*
X0358799Y0159441D01*
X0359040Y0160040D02*
X0362214Y0160040D01*
X0362214Y0160638D02*
X0359040Y0160638D01*
X0359040Y0161237D02*
X0362214Y0161237D01*
X0362420Y0161835D02*
X0358833Y0161835D01*
X0358234Y0162434D02*
X0363019Y0162434D01*
X0366108Y0162434D02*
X0370893Y0162434D01*
X0371464Y0163005D02*
X0370088Y0161629D01*
X0370088Y0159682D01*
X0371464Y0158305D01*
X0373411Y0158305D01*
X0374788Y0159682D01*
X0374788Y0161629D01*
X0373411Y0163005D01*
X0371464Y0163005D01*
X0370295Y0161835D02*
X0366707Y0161835D01*
X0366914Y0161237D02*
X0370088Y0161237D01*
X0370088Y0160638D02*
X0366914Y0160638D01*
X0366914Y0160040D02*
X0370088Y0160040D01*
X0370328Y0159441D02*
X0366673Y0159441D01*
X0366075Y0158843D02*
X0370927Y0158843D01*
X0373949Y0158843D02*
X0378801Y0158843D01*
X0379338Y0158305D02*
X0381285Y0158305D01*
X0382662Y0159682D01*
X0382662Y0161629D01*
X0381285Y0163005D01*
X0379338Y0163005D01*
X0377962Y0161629D01*
X0377962Y0159682D01*
X0379338Y0158305D01*
X0378202Y0159441D02*
X0374547Y0159441D01*
X0374788Y0160040D02*
X0377962Y0160040D01*
X0377962Y0160638D02*
X0374788Y0160638D01*
X0374788Y0161237D02*
X0377962Y0161237D01*
X0378169Y0161835D02*
X0374581Y0161835D01*
X0373982Y0162434D02*
X0378767Y0162434D01*
X0381856Y0162434D02*
X0410263Y0162434D01*
X0410834Y0163005D02*
X0409458Y0161629D01*
X0409458Y0159682D01*
X0410834Y0158305D01*
X0412781Y0158305D01*
X0414158Y0159682D01*
X0414158Y0161629D01*
X0412781Y0163005D01*
X0410834Y0163005D01*
X0409665Y0161835D02*
X0382455Y0161835D01*
X0382662Y0161237D02*
X0409458Y0161237D01*
X0409458Y0160638D02*
X0382662Y0160638D01*
X0382662Y0160040D02*
X0409458Y0160040D01*
X0409698Y0159441D02*
X0382421Y0159441D01*
X0381823Y0158843D02*
X0410297Y0158843D01*
X0413319Y0158843D02*
X0418171Y0158843D01*
X0418708Y0158305D02*
X0420655Y0158305D01*
X0422032Y0159682D01*
X0422032Y0161629D01*
X0420655Y0163005D01*
X0418708Y0163005D01*
X0417332Y0161629D01*
X0417332Y0159682D01*
X0418708Y0158305D01*
X0417572Y0159441D02*
X0413917Y0159441D01*
X0414158Y0160040D02*
X0417332Y0160040D01*
X0417332Y0160638D02*
X0414158Y0160638D01*
X0414158Y0161237D02*
X0417332Y0161237D01*
X0417539Y0161835D02*
X0413951Y0161835D01*
X0413352Y0162434D02*
X0418137Y0162434D01*
X0421226Y0162434D02*
X0426011Y0162434D01*
X0426582Y0163005D02*
X0425206Y0161629D01*
X0425206Y0159682D01*
X0426582Y0158305D01*
X0428529Y0158305D01*
X0429906Y0159682D01*
X0429906Y0161629D01*
X0428529Y0163005D01*
X0426582Y0163005D01*
X0425413Y0161835D02*
X0421825Y0161835D01*
X0422032Y0161237D02*
X0425206Y0161237D01*
X0425206Y0160638D02*
X0422032Y0160638D01*
X0422032Y0160040D02*
X0425206Y0160040D01*
X0425446Y0159441D02*
X0421791Y0159441D01*
X0421193Y0158843D02*
X0426045Y0158843D01*
X0429067Y0158843D02*
X0434530Y0158843D01*
X0434530Y0159441D02*
X0429665Y0159441D01*
X0429906Y0160040D02*
X0434530Y0160040D01*
X0434530Y0160638D02*
X0429906Y0160638D01*
X0429906Y0161237D02*
X0434530Y0161237D01*
X0434530Y0161835D02*
X0429699Y0161835D01*
X0429100Y0162434D02*
X0434530Y0162434D01*
X0434530Y0158244D02*
X0271745Y0158244D01*
X0271818Y0157646D02*
X0434530Y0157646D01*
X0434530Y0157047D02*
X0271818Y0157047D01*
X0271790Y0156449D02*
X0434530Y0156449D01*
X0434530Y0155850D02*
X0271542Y0155850D01*
X0271294Y0155252D02*
X0434530Y0155252D01*
X0434530Y0154653D02*
X0429007Y0154653D01*
X0428529Y0155131D02*
X0429906Y0153755D01*
X0429906Y0151808D01*
X0428529Y0150431D01*
X0426582Y0150431D01*
X0425206Y0151808D01*
X0425206Y0153755D01*
X0426582Y0155131D01*
X0428529Y0155131D01*
X0429606Y0154055D02*
X0434530Y0154055D01*
X0434530Y0153456D02*
X0429906Y0153456D01*
X0429906Y0152858D02*
X0434116Y0152858D01*
X0433398Y0152259D02*
X0429906Y0152259D01*
X0429759Y0151661D02*
X0432679Y0151661D01*
X0431961Y0151062D02*
X0429160Y0151062D01*
X0428562Y0150464D02*
X0431243Y0150464D01*
X0430525Y0149865D02*
X0271488Y0149865D01*
X0271736Y0149267D02*
X0429807Y0149267D01*
X0429088Y0148668D02*
X0271818Y0148668D01*
X0271818Y0149069D02*
X0271224Y0150502D01*
X0270127Y0151599D01*
X0268694Y0152193D01*
X0267142Y0152193D01*
X0265709Y0151599D01*
X0264612Y0150502D01*
X0264018Y0149069D01*
X0264018Y0147517D01*
X0264612Y0146084D01*
X0265709Y0144987D01*
X0267142Y0144393D01*
X0268694Y0144393D01*
X0270127Y0144987D01*
X0271224Y0146084D01*
X0271818Y0147517D01*
X0271818Y0149069D01*
X0271818Y0148070D02*
X0428370Y0148070D01*
X0427652Y0147471D02*
X0271799Y0147471D01*
X0271551Y0146873D02*
X0315962Y0146873D01*
X0316346Y0147257D02*
X0314970Y0145881D01*
X0314970Y0143934D01*
X0316346Y0142557D01*
X0318293Y0142557D01*
X0319670Y0143934D01*
X0319670Y0145881D01*
X0318293Y0147257D01*
X0316346Y0147257D01*
X0315363Y0146274D02*
X0271303Y0146274D01*
X0270816Y0145676D02*
X0314970Y0145676D01*
X0314970Y0145077D02*
X0270218Y0145077D01*
X0268900Y0144479D02*
X0314970Y0144479D01*
X0315023Y0143880D02*
X0256246Y0143880D01*
X0256522Y0144479D02*
X0266935Y0144479D01*
X0265618Y0145077D02*
X0257643Y0145077D01*
X0258241Y0145676D02*
X0265020Y0145676D01*
X0264533Y0146274D02*
X0258840Y0146274D01*
X0258922Y0146873D02*
X0264285Y0146873D01*
X0264037Y0147471D02*
X0258922Y0147471D01*
X0258922Y0148070D02*
X0264018Y0148070D01*
X0264018Y0148668D02*
X0258556Y0148668D01*
X0257957Y0149267D02*
X0264100Y0149267D01*
X0264348Y0149865D02*
X0242579Y0149865D01*
X0242584Y0149854D02*
X0242028Y0151195D01*
X0241001Y0152222D01*
X0239660Y0152778D01*
X0238208Y0152778D01*
X0236866Y0152222D01*
X0235839Y0151195D01*
X0235284Y0149854D01*
X0235284Y0148402D01*
X0235839Y0147060D01*
X0236866Y0146033D01*
X0238208Y0145478D01*
X0239660Y0145478D01*
X0241001Y0146033D01*
X0242028Y0147060D01*
X0242584Y0148402D01*
X0242584Y0149854D01*
X0242584Y0149267D02*
X0250386Y0149267D01*
X0249787Y0148668D02*
X0242584Y0148668D01*
X0242446Y0148070D02*
X0249422Y0148070D01*
X0249422Y0147471D02*
X0242198Y0147471D01*
X0241841Y0146873D02*
X0249422Y0146873D01*
X0249503Y0146274D02*
X0241242Y0146274D01*
X0240138Y0145676D02*
X0250102Y0145676D01*
X0254122Y0148070D02*
X0254222Y0148070D01*
X0254587Y0148668D02*
X0253756Y0148668D01*
X0253157Y0149267D02*
X0255186Y0149267D01*
X0255647Y0143282D02*
X0315622Y0143282D01*
X0316220Y0142683D02*
X0269925Y0142683D01*
X0270642Y0142085D02*
X0422719Y0142085D01*
X0422692Y0142683D02*
X0420781Y0142683D01*
X0420655Y0142557D02*
X0422032Y0143934D01*
X0422032Y0145881D01*
X0420655Y0147257D01*
X0418708Y0147257D01*
X0417332Y0145881D01*
X0417332Y0143934D01*
X0418708Y0142557D01*
X0420655Y0142557D01*
X0421380Y0143282D02*
X0422719Y0143282D01*
X0423343Y0143880D02*
X0421978Y0143880D01*
X0422032Y0144479D02*
X0424061Y0144479D01*
X0424779Y0145077D02*
X0422032Y0145077D01*
X0422032Y0145676D02*
X0425497Y0145676D01*
X0426216Y0146274D02*
X0421638Y0146274D01*
X0421040Y0146873D02*
X0426934Y0146873D01*
X0426550Y0150464D02*
X0420688Y0150464D01*
X0420655Y0150431D02*
X0422032Y0151808D01*
X0422032Y0153755D01*
X0420655Y0155131D01*
X0418708Y0155131D01*
X0417332Y0153755D01*
X0417332Y0151808D01*
X0418708Y0150431D01*
X0420655Y0150431D01*
X0421286Y0151062D02*
X0425951Y0151062D01*
X0425353Y0151661D02*
X0421885Y0151661D01*
X0422032Y0152259D02*
X0425206Y0152259D01*
X0425206Y0152858D02*
X0422032Y0152858D01*
X0422032Y0153456D02*
X0425206Y0153456D01*
X0425506Y0154055D02*
X0421732Y0154055D01*
X0421133Y0154653D02*
X0426105Y0154653D01*
X0418230Y0154653D02*
X0413259Y0154653D01*
X0412781Y0155131D02*
X0414158Y0153755D01*
X0414158Y0151808D01*
X0412781Y0150431D01*
X0410834Y0150431D01*
X0409458Y0151808D01*
X0409458Y0153755D01*
X0410834Y0155131D01*
X0412781Y0155131D01*
X0413858Y0154055D02*
X0417632Y0154055D01*
X0417332Y0153456D02*
X0414158Y0153456D01*
X0414158Y0152858D02*
X0417332Y0152858D01*
X0417332Y0152259D02*
X0414158Y0152259D01*
X0414011Y0151661D02*
X0417479Y0151661D01*
X0418077Y0151062D02*
X0413412Y0151062D01*
X0412814Y0150464D02*
X0418676Y0150464D01*
X0414158Y0145881D02*
X0412781Y0147257D01*
X0410834Y0147257D01*
X0409458Y0145881D01*
X0409458Y0143934D01*
X0410834Y0142557D01*
X0412781Y0142557D01*
X0414158Y0143934D01*
X0414158Y0145881D01*
X0414158Y0145676D02*
X0417332Y0145676D01*
X0417332Y0145077D02*
X0414158Y0145077D01*
X0414158Y0144479D02*
X0417332Y0144479D01*
X0417385Y0143880D02*
X0414104Y0143880D01*
X0413506Y0143282D02*
X0417984Y0143282D01*
X0418582Y0142683D02*
X0412907Y0142683D01*
X0410708Y0142683D02*
X0381411Y0142683D01*
X0381285Y0142557D02*
X0382662Y0143934D01*
X0382662Y0145881D01*
X0381285Y0147257D01*
X0379338Y0147257D01*
X0377962Y0145881D01*
X0377962Y0143934D01*
X0379338Y0142557D01*
X0381285Y0142557D01*
X0382010Y0143282D02*
X0410110Y0143282D01*
X0409511Y0143880D02*
X0382608Y0143880D01*
X0382662Y0144479D02*
X0409458Y0144479D01*
X0409458Y0145077D02*
X0382662Y0145077D01*
X0382662Y0145676D02*
X0409458Y0145676D01*
X0409851Y0146274D02*
X0382268Y0146274D01*
X0381670Y0146873D02*
X0410450Y0146873D01*
X0413166Y0146873D02*
X0418324Y0146873D01*
X0417725Y0146274D02*
X0413764Y0146274D01*
X0410802Y0150464D02*
X0381318Y0150464D01*
X0381285Y0150431D02*
X0382662Y0151808D01*
X0382662Y0153755D01*
X0381285Y0155131D01*
X0379338Y0155131D01*
X0377962Y0153755D01*
X0377962Y0151808D01*
X0379338Y0150431D01*
X0381285Y0150431D01*
X0381916Y0151062D02*
X0410203Y0151062D01*
X0409605Y0151661D02*
X0382515Y0151661D01*
X0382662Y0152259D02*
X0409458Y0152259D01*
X0409458Y0152858D02*
X0382662Y0152858D01*
X0382662Y0153456D02*
X0409458Y0153456D01*
X0409758Y0154055D02*
X0382361Y0154055D01*
X0381763Y0154653D02*
X0410356Y0154653D01*
X0410834Y0166179D02*
X0409458Y0167556D01*
X0409458Y0169503D01*
X0410834Y0170879D01*
X0412781Y0170879D01*
X0414158Y0169503D01*
X0414158Y0167556D01*
X0412781Y0166179D01*
X0410834Y0166179D01*
X0410390Y0166624D02*
X0405351Y0166624D01*
X0404907Y0166179D02*
X0406284Y0167556D01*
X0406284Y0169503D01*
X0404907Y0170879D01*
X0402960Y0170879D01*
X0401584Y0169503D01*
X0401584Y0167556D01*
X0402960Y0166179D01*
X0404907Y0166179D01*
X0405950Y0167222D02*
X0409791Y0167222D01*
X0409458Y0167821D02*
X0406284Y0167821D01*
X0406284Y0168419D02*
X0409458Y0168419D01*
X0409458Y0169018D02*
X0406284Y0169018D01*
X0406170Y0169616D02*
X0409571Y0169616D01*
X0410170Y0170215D02*
X0405572Y0170215D01*
X0404973Y0170813D02*
X0410768Y0170813D01*
X0412847Y0170813D02*
X0418642Y0170813D01*
X0418708Y0170879D02*
X0417332Y0169503D01*
X0417332Y0167556D01*
X0418708Y0166179D01*
X0420655Y0166179D01*
X0422032Y0167556D01*
X0422032Y0169503D01*
X0420655Y0170879D01*
X0418708Y0170879D01*
X0418044Y0170215D02*
X0413446Y0170215D01*
X0414044Y0169616D02*
X0417445Y0169616D01*
X0417332Y0169018D02*
X0414158Y0169018D01*
X0414158Y0168419D02*
X0417332Y0168419D01*
X0417332Y0167821D02*
X0414158Y0167821D01*
X0413824Y0167222D02*
X0417666Y0167222D01*
X0418264Y0166624D02*
X0413225Y0166624D01*
X0421099Y0166624D02*
X0426138Y0166624D01*
X0426582Y0166179D02*
X0428529Y0166179D01*
X0429906Y0167556D01*
X0429906Y0169503D01*
X0428529Y0170879D01*
X0426582Y0170879D01*
X0425206Y0169503D01*
X0425206Y0167556D01*
X0426582Y0166179D01*
X0425540Y0167222D02*
X0421698Y0167222D01*
X0422032Y0167821D02*
X0425206Y0167821D01*
X0425206Y0168419D02*
X0422032Y0168419D01*
X0422032Y0169018D02*
X0425206Y0169018D01*
X0425319Y0169616D02*
X0421918Y0169616D01*
X0421320Y0170215D02*
X0425918Y0170215D01*
X0426516Y0170813D02*
X0420721Y0170813D01*
X0421512Y0175078D02*
X0417852Y0175078D01*
X0414471Y0176479D01*
X0411883Y0179066D01*
X0410483Y0182447D01*
X0410483Y0186107D01*
X0411883Y0189488D01*
X0414471Y0192076D01*
X0417852Y0193476D01*
X0421512Y0193476D01*
X0424893Y0192076D01*
X0427480Y0189488D01*
X0428881Y0186107D01*
X0428881Y0182447D01*
X0427480Y0179066D01*
X0424893Y0176479D01*
X0421512Y0175078D01*
X0422775Y0175601D02*
X0434530Y0175601D01*
X0434530Y0175003D02*
X0405857Y0175003D01*
X0406284Y0175430D02*
X0404907Y0174053D01*
X0402960Y0174053D01*
X0401584Y0175430D01*
X0401584Y0177377D01*
X0402960Y0178753D01*
X0404907Y0178753D01*
X0406284Y0177377D01*
X0406284Y0175430D01*
X0406284Y0175601D02*
X0416589Y0175601D01*
X0415144Y0176200D02*
X0406284Y0176200D01*
X0406284Y0176798D02*
X0414151Y0176798D01*
X0413553Y0177397D02*
X0406264Y0177397D01*
X0405665Y0177995D02*
X0412954Y0177995D01*
X0412356Y0178594D02*
X0405067Y0178594D01*
X0402801Y0178594D02*
X0397193Y0178594D01*
X0397033Y0178753D02*
X0395086Y0178753D01*
X0393710Y0177377D01*
X0393710Y0175430D01*
X0395086Y0174053D01*
X0397033Y0174053D01*
X0398410Y0175430D01*
X0398410Y0177377D01*
X0397033Y0178753D01*
X0397791Y0177995D02*
X0402202Y0177995D01*
X0401604Y0177397D02*
X0398390Y0177397D01*
X0398410Y0176798D02*
X0401584Y0176798D01*
X0401584Y0176200D02*
X0398410Y0176200D01*
X0398410Y0175601D02*
X0401584Y0175601D01*
X0402011Y0175003D02*
X0397983Y0175003D01*
X0397384Y0174404D02*
X0402609Y0174404D01*
X0405258Y0174404D02*
X0434530Y0174404D01*
X0434530Y0173806D02*
X0030810Y0173806D01*
X0030810Y0174404D02*
X0300247Y0174404D01*
X0300598Y0174053D02*
X0302545Y0174053D01*
X0303922Y0175430D01*
X0303922Y0177377D01*
X0302545Y0178753D01*
X0300598Y0178753D01*
X0299222Y0177377D01*
X0299222Y0175430D01*
X0300598Y0174053D01*
X0299649Y0175003D02*
X0030810Y0175003D01*
X0030810Y0175601D02*
X0042573Y0175601D01*
X0043836Y0175078D02*
X0047496Y0175078D01*
X0050877Y0176479D01*
X0053465Y0179066D01*
X0054865Y0182447D01*
X0054865Y0186107D01*
X0053465Y0189488D01*
X0050877Y0192076D01*
X0047496Y0193476D01*
X0043836Y0193476D01*
X0040455Y0192076D01*
X0037867Y0189488D01*
X0036467Y0186107D01*
X0036467Y0182447D01*
X0037867Y0179066D01*
X0040455Y0176479D01*
X0043836Y0175078D01*
X0041128Y0176200D02*
X0030810Y0176200D01*
X0030810Y0176798D02*
X0040135Y0176798D01*
X0039537Y0177397D02*
X0030810Y0177397D01*
X0030810Y0177995D02*
X0038938Y0177995D01*
X0038340Y0178594D02*
X0030810Y0178594D01*
X0030810Y0179192D02*
X0037815Y0179192D01*
X0037567Y0179791D02*
X0030810Y0179791D01*
X0030810Y0180389D02*
X0037319Y0180389D01*
X0037071Y0180988D02*
X0030810Y0180988D01*
X0030810Y0181586D02*
X0036823Y0181586D01*
X0036576Y0182185D02*
X0030810Y0182185D01*
X0030810Y0182783D02*
X0036467Y0182783D01*
X0036467Y0183382D02*
X0030810Y0183382D01*
X0030810Y0183980D02*
X0036467Y0183980D01*
X0036467Y0184579D02*
X0030810Y0184579D01*
X0030810Y0185177D02*
X0036467Y0185177D01*
X0036467Y0185776D02*
X0030810Y0185776D01*
X0030810Y0186374D02*
X0036578Y0186374D01*
X0036825Y0186973D02*
X0030810Y0186973D01*
X0030810Y0187571D02*
X0037073Y0187571D01*
X0037321Y0188170D02*
X0030810Y0188170D01*
X0030810Y0188768D02*
X0037569Y0188768D01*
X0037817Y0189367D02*
X0030810Y0189367D01*
X0030810Y0189965D02*
X0038345Y0189965D01*
X0038943Y0190564D02*
X0030810Y0190564D01*
X0030810Y0191162D02*
X0039542Y0191162D01*
X0040140Y0191761D02*
X0030810Y0191761D01*
X0030830Y0192360D02*
X0041140Y0192360D01*
X0042585Y0192958D02*
X0030889Y0192958D01*
X0030959Y0193557D02*
X0299653Y0193557D01*
X0299222Y0193125D02*
X0300598Y0194501D01*
X0302545Y0194501D01*
X0303922Y0193125D01*
X0303922Y0191178D01*
X0302545Y0189801D01*
X0300598Y0189801D01*
X0299222Y0191178D01*
X0299222Y0193125D01*
X0299222Y0192958D02*
X0048747Y0192958D01*
X0050192Y0192360D02*
X0299222Y0192360D01*
X0299222Y0191761D02*
X0051192Y0191761D01*
X0051790Y0191162D02*
X0299237Y0191162D01*
X0299835Y0190564D02*
X0052389Y0190564D01*
X0052987Y0189965D02*
X0300434Y0189965D01*
X0302709Y0189965D02*
X0308308Y0189965D01*
X0308472Y0189801D02*
X0307096Y0191178D01*
X0307096Y0193125D01*
X0308472Y0194501D01*
X0310419Y0194501D01*
X0311796Y0193125D01*
X0311796Y0191178D01*
X0310419Y0189801D01*
X0308472Y0189801D01*
X0307709Y0190564D02*
X0303308Y0190564D01*
X0303906Y0191162D02*
X0307111Y0191162D01*
X0307096Y0191761D02*
X0303922Y0191761D01*
X0303922Y0192360D02*
X0307096Y0192360D01*
X0307096Y0192958D02*
X0303922Y0192958D01*
X0303490Y0193557D02*
X0307527Y0193557D01*
X0308126Y0194155D02*
X0302891Y0194155D01*
X0300252Y0194155D02*
X0031207Y0194155D01*
X0031455Y0194754D02*
X0433877Y0194754D01*
X0433629Y0195352D02*
X0031703Y0195352D01*
X0031951Y0195951D02*
X0433381Y0195951D01*
X0432831Y0196549D02*
X0032501Y0196549D01*
X0033099Y0197148D02*
X0432233Y0197148D01*
X0431634Y0197746D02*
X0033698Y0197746D01*
X0034843Y0198345D02*
X0430489Y0198345D01*
X0429044Y0198943D02*
X0036288Y0198943D01*
X0053515Y0189367D02*
X0411833Y0189367D01*
X0411585Y0188768D02*
X0286361Y0188768D01*
X0286834Y0188573D02*
X0285412Y0189161D01*
X0283873Y0189161D01*
X0282451Y0188573D01*
X0281363Y0187484D01*
X0280774Y0186062D01*
X0280774Y0184523D01*
X0281363Y0183102D01*
X0282451Y0182013D01*
X0283873Y0181424D01*
X0285412Y0181424D01*
X0286834Y0182013D01*
X0287922Y0183102D01*
X0288511Y0184523D01*
X0288511Y0186062D01*
X0287922Y0187484D01*
X0286834Y0188573D01*
X0287236Y0188170D02*
X0411337Y0188170D01*
X0411089Y0187571D02*
X0287835Y0187571D01*
X0288134Y0186973D02*
X0410841Y0186973D01*
X0410593Y0186374D02*
X0405160Y0186374D01*
X0404907Y0186627D02*
X0406284Y0185251D01*
X0406284Y0183304D01*
X0404907Y0181927D01*
X0402960Y0181927D01*
X0401584Y0183304D01*
X0401584Y0185251D01*
X0402960Y0186627D01*
X0404907Y0186627D01*
X0405758Y0185776D02*
X0410483Y0185776D01*
X0410483Y0185177D02*
X0406284Y0185177D01*
X0406284Y0184579D02*
X0410483Y0184579D01*
X0410483Y0183980D02*
X0406284Y0183980D01*
X0406284Y0183382D02*
X0410483Y0183382D01*
X0410483Y0182783D02*
X0405763Y0182783D01*
X0405165Y0182185D02*
X0410591Y0182185D01*
X0410839Y0181586D02*
X0285803Y0181586D01*
X0287005Y0182185D02*
X0300341Y0182185D01*
X0300598Y0181927D02*
X0302545Y0181927D01*
X0303922Y0183304D01*
X0303922Y0185251D01*
X0302545Y0186627D01*
X0300598Y0186627D01*
X0299222Y0185251D01*
X0299222Y0183304D01*
X0300598Y0181927D01*
X0299742Y0182783D02*
X0287604Y0182783D01*
X0288038Y0183382D02*
X0299222Y0183382D01*
X0299222Y0183980D02*
X0288286Y0183980D01*
X0288511Y0184579D02*
X0299222Y0184579D01*
X0299222Y0185177D02*
X0288511Y0185177D01*
X0288511Y0185776D02*
X0299747Y0185776D01*
X0300345Y0186374D02*
X0288382Y0186374D01*
X0282924Y0188768D02*
X0272581Y0188768D01*
X0273054Y0188573D02*
X0271632Y0189161D01*
X0270093Y0189161D01*
X0268672Y0188573D01*
X0267583Y0187484D01*
X0266994Y0186062D01*
X0266994Y0184523D01*
X0267583Y0183102D01*
X0268672Y0182013D01*
X0270093Y0181424D01*
X0271632Y0181424D01*
X0273054Y0182013D01*
X0274142Y0183102D01*
X0274731Y0184523D01*
X0274731Y0186062D01*
X0274142Y0187484D01*
X0273054Y0188573D01*
X0273457Y0188170D02*
X0282048Y0188170D01*
X0281450Y0187571D02*
X0274055Y0187571D01*
X0274354Y0186973D02*
X0281151Y0186973D01*
X0280903Y0186374D02*
X0274602Y0186374D01*
X0274731Y0185776D02*
X0280774Y0185776D01*
X0280774Y0185177D02*
X0274731Y0185177D01*
X0274731Y0184579D02*
X0280774Y0184579D01*
X0280999Y0183980D02*
X0274506Y0183980D01*
X0274258Y0183382D02*
X0281247Y0183382D01*
X0281681Y0182783D02*
X0273824Y0182783D01*
X0273226Y0182185D02*
X0282280Y0182185D01*
X0283482Y0181586D02*
X0272023Y0181586D01*
X0269703Y0181586D02*
X0054509Y0181586D01*
X0054261Y0180988D02*
X0411087Y0180988D01*
X0411335Y0180389D02*
X0054013Y0180389D01*
X0053765Y0179791D02*
X0411583Y0179791D01*
X0411831Y0179192D02*
X0053517Y0179192D01*
X0052992Y0178594D02*
X0300439Y0178594D01*
X0299840Y0177995D02*
X0052394Y0177995D01*
X0051795Y0177397D02*
X0299242Y0177397D01*
X0299222Y0176798D02*
X0051197Y0176798D01*
X0050204Y0176200D02*
X0299222Y0176200D01*
X0299222Y0175601D02*
X0048759Y0175601D01*
X0054756Y0182185D02*
X0268500Y0182185D01*
X0267902Y0182783D02*
X0054865Y0182783D01*
X0054865Y0183382D02*
X0267467Y0183382D01*
X0267219Y0183980D02*
X0054865Y0183980D01*
X0054865Y0184579D02*
X0266994Y0184579D01*
X0266994Y0185177D02*
X0054865Y0185177D01*
X0054865Y0185776D02*
X0266994Y0185776D01*
X0267124Y0186374D02*
X0054754Y0186374D01*
X0054507Y0186973D02*
X0267371Y0186973D01*
X0267670Y0187571D02*
X0054259Y0187571D01*
X0054011Y0188170D02*
X0268269Y0188170D01*
X0269145Y0188768D02*
X0053763Y0188768D01*
X0030810Y0173207D02*
X0434530Y0173207D01*
X0434530Y0172609D02*
X0030810Y0172609D01*
X0044059Y0155850D02*
X0264294Y0155850D01*
X0264542Y0155252D02*
X0044658Y0155252D01*
X0044933Y0154653D02*
X0265042Y0154653D01*
X0265641Y0154055D02*
X0045181Y0154055D01*
X0045204Y0153456D02*
X0266989Y0153456D01*
X0268847Y0153456D02*
X0299222Y0153456D01*
X0299222Y0153755D02*
X0299222Y0151808D01*
X0300598Y0150431D01*
X0302545Y0150431D01*
X0303922Y0151808D01*
X0303922Y0153755D01*
X0302545Y0155131D01*
X0300598Y0155131D01*
X0299222Y0153755D01*
X0299522Y0154055D02*
X0270195Y0154055D01*
X0270794Y0154653D02*
X0300120Y0154653D01*
X0299222Y0152858D02*
X0045204Y0152858D01*
X0045023Y0152259D02*
X0066956Y0152259D01*
X0066305Y0151661D02*
X0044775Y0151661D01*
X0044276Y0151062D02*
X0065784Y0151062D01*
X0065536Y0150464D02*
X0043528Y0150464D01*
X0043873Y0140289D02*
X0168591Y0140289D01*
X0168568Y0140266D02*
X0168568Y0138320D01*
X0169945Y0136943D01*
X0171891Y0136943D01*
X0173268Y0138320D01*
X0173268Y0140266D01*
X0171891Y0141643D01*
X0169945Y0141643D01*
X0168568Y0140266D01*
X0168568Y0139691D02*
X0044471Y0139691D01*
X0044856Y0139092D02*
X0168568Y0139092D01*
X0168568Y0138494D02*
X0045104Y0138494D01*
X0045204Y0137895D02*
X0168993Y0137895D01*
X0169591Y0137296D02*
X0045204Y0137296D01*
X0045100Y0136698D02*
X0264998Y0136698D01*
X0264524Y0137296D02*
X0172245Y0137296D01*
X0172843Y0137895D02*
X0264276Y0137895D01*
X0264028Y0138494D02*
X0173268Y0138494D01*
X0173268Y0139092D02*
X0264018Y0139092D01*
X0264018Y0139691D02*
X0173268Y0139691D01*
X0173245Y0140289D02*
X0264109Y0140289D01*
X0264357Y0140888D02*
X0172647Y0140888D01*
X0172048Y0141486D02*
X0264605Y0141486D01*
X0271231Y0141486D02*
X0422719Y0141486D01*
X0422719Y0140888D02*
X0326631Y0140888D01*
X0326167Y0141352D02*
X0324220Y0141352D01*
X0322844Y0139975D01*
X0322844Y0138028D01*
X0324220Y0136652D01*
X0326167Y0136652D01*
X0327544Y0138028D01*
X0327544Y0139975D01*
X0326167Y0141352D01*
X0326167Y0142557D02*
X0327544Y0143934D01*
X0327544Y0145881D01*
X0326167Y0147257D01*
X0324220Y0147257D01*
X0322844Y0145881D01*
X0322844Y0143934D01*
X0324220Y0142557D01*
X0326167Y0142557D01*
X0326293Y0142683D02*
X0355590Y0142683D01*
X0355716Y0142557D02*
X0357663Y0142557D01*
X0359040Y0143934D01*
X0359040Y0145881D01*
X0357663Y0147257D01*
X0355716Y0147257D01*
X0354340Y0145881D01*
X0354340Y0143934D01*
X0355716Y0142557D01*
X0354992Y0143282D02*
X0326891Y0143282D01*
X0327490Y0143880D02*
X0354393Y0143880D01*
X0354340Y0144479D02*
X0327544Y0144479D01*
X0327544Y0145077D02*
X0354340Y0145077D01*
X0354340Y0145676D02*
X0327544Y0145676D01*
X0327150Y0146274D02*
X0354733Y0146274D01*
X0355332Y0146873D02*
X0326551Y0146873D01*
X0323836Y0146873D02*
X0318677Y0146873D01*
X0319276Y0146274D02*
X0323237Y0146274D01*
X0322844Y0145676D02*
X0319670Y0145676D01*
X0319670Y0145077D02*
X0322844Y0145077D01*
X0322844Y0144479D02*
X0319670Y0144479D01*
X0319616Y0143880D02*
X0322897Y0143880D01*
X0323496Y0143282D02*
X0319017Y0143282D01*
X0318419Y0142683D02*
X0324094Y0142683D01*
X0323756Y0140888D02*
X0318757Y0140888D01*
X0318293Y0141352D02*
X0316346Y0141352D01*
X0314970Y0139975D01*
X0314970Y0138028D01*
X0316346Y0136652D01*
X0318293Y0136652D01*
X0319670Y0138028D01*
X0319670Y0139975D01*
X0318293Y0141352D01*
X0319356Y0140289D02*
X0323158Y0140289D01*
X0322844Y0139691D02*
X0319670Y0139691D01*
X0319670Y0139092D02*
X0322844Y0139092D01*
X0322844Y0138494D02*
X0319670Y0138494D01*
X0319536Y0137895D02*
X0322977Y0137895D01*
X0323575Y0137296D02*
X0318938Y0137296D01*
X0318339Y0136698D02*
X0324174Y0136698D01*
X0324220Y0136430D02*
X0322844Y0135054D01*
X0322844Y0134242D01*
X0322230Y0134856D01*
X0320283Y0134856D01*
X0319288Y0133860D01*
X0318293Y0134856D01*
X0316346Y0134856D01*
X0315351Y0133860D01*
X0314356Y0134856D01*
X0312409Y0134856D01*
X0311414Y0133860D01*
X0310419Y0134856D01*
X0308472Y0134856D01*
X0307096Y0133479D01*
X0307096Y0131532D01*
X0308472Y0130156D01*
X0310419Y0130156D01*
X0311414Y0131151D01*
X0312409Y0130156D01*
X0314356Y0130156D01*
X0315351Y0131151D01*
X0316346Y0130156D01*
X0318293Y0130156D01*
X0319288Y0131151D01*
X0320283Y0130156D01*
X0322230Y0130156D01*
X0323607Y0131532D01*
X0323607Y0132344D01*
X0324220Y0131730D01*
X0326167Y0131730D01*
X0326965Y0132529D01*
X0327763Y0131730D01*
X0329710Y0131730D01*
X0331087Y0133107D01*
X0331087Y0135054D01*
X0329710Y0136430D01*
X0327763Y0136430D01*
X0326965Y0135632D01*
X0326167Y0136430D01*
X0324220Y0136430D01*
X0323889Y0136099D02*
X0307859Y0136099D01*
X0307859Y0135532D02*
X0307859Y0137479D01*
X0306482Y0138856D01*
X0304535Y0138856D01*
X0303159Y0137479D01*
X0303159Y0135532D01*
X0303435Y0135256D01*
X0302935Y0135256D01*
X0301559Y0133879D01*
X0301559Y0131932D01*
X0302935Y0130556D01*
X0304882Y0130556D01*
X0306259Y0131932D01*
X0306259Y0133879D01*
X0305982Y0134156D01*
X0306482Y0134156D01*
X0307859Y0135532D01*
X0307827Y0135501D02*
X0323291Y0135501D01*
X0322844Y0134902D02*
X0307229Y0134902D01*
X0306630Y0134304D02*
X0307920Y0134304D01*
X0307322Y0133705D02*
X0306259Y0133705D01*
X0306259Y0133107D02*
X0307096Y0133107D01*
X0307096Y0132508D02*
X0306259Y0132508D01*
X0306236Y0131910D02*
X0307096Y0131910D01*
X0307316Y0131311D02*
X0305638Y0131311D01*
X0305039Y0130713D02*
X0307915Y0130713D01*
X0310976Y0130713D02*
X0311852Y0130713D01*
X0314913Y0130713D02*
X0315789Y0130713D01*
X0318850Y0130713D02*
X0319726Y0130713D01*
X0322787Y0130713D02*
X0347046Y0130713D01*
X0346466Y0130133D02*
X0346466Y0128186D01*
X0347842Y0126809D01*
X0349789Y0126809D01*
X0351166Y0128186D01*
X0351166Y0130133D01*
X0349789Y0131509D01*
X0347842Y0131509D01*
X0346466Y0130133D01*
X0346466Y0130114D02*
X0300181Y0130114D01*
X0300181Y0130676D02*
X0299399Y0131458D01*
X0300000Y0132060D01*
X0300000Y0134007D01*
X0298724Y0135283D01*
X0299000Y0135560D01*
X0299000Y0137507D01*
X0297624Y0138883D01*
X0295677Y0138883D01*
X0294300Y0137507D01*
X0294300Y0135560D01*
X0295577Y0134283D01*
X0295300Y0134007D01*
X0295300Y0133446D01*
X0293740Y0133446D01*
X0292995Y0132701D01*
X0292250Y0133446D01*
X0290303Y0133446D01*
X0289573Y0132717D01*
X0288813Y0133478D01*
X0286866Y0133478D01*
X0285489Y0132101D01*
X0285489Y0132043D01*
X0284045Y0132043D01*
X0282668Y0130666D01*
X0282668Y0128720D01*
X0283445Y0127943D01*
X0282668Y0127166D01*
X0282668Y0125220D01*
X0284045Y0123843D01*
X0285991Y0123843D01*
X0287368Y0125220D01*
X0287368Y0127166D01*
X0286591Y0127943D01*
X0287368Y0128720D01*
X0287368Y0128778D01*
X0288813Y0128778D01*
X0289542Y0129507D01*
X0290303Y0128746D01*
X0292250Y0128746D01*
X0292995Y0129491D01*
X0293740Y0128746D01*
X0295481Y0128746D01*
X0295481Y0128729D01*
X0296858Y0127352D01*
X0298805Y0127352D01*
X0300181Y0128729D01*
X0300181Y0130676D01*
X0300144Y0130713D02*
X0302778Y0130713D01*
X0302179Y0131311D02*
X0299546Y0131311D01*
X0299850Y0131910D02*
X0301581Y0131910D01*
X0301559Y0132508D02*
X0300000Y0132508D01*
X0300000Y0133107D02*
X0301559Y0133107D01*
X0301559Y0133705D02*
X0300000Y0133705D01*
X0299703Y0134304D02*
X0301983Y0134304D01*
X0302582Y0134902D02*
X0299104Y0134902D01*
X0298941Y0135501D02*
X0303190Y0135501D01*
X0303159Y0136099D02*
X0299000Y0136099D01*
X0299000Y0136698D02*
X0303159Y0136698D01*
X0303159Y0137296D02*
X0299000Y0137296D01*
X0298612Y0137895D02*
X0303575Y0137895D01*
X0304173Y0138494D02*
X0298013Y0138494D01*
X0295287Y0138494D02*
X0271808Y0138494D01*
X0271818Y0139092D02*
X0314970Y0139092D01*
X0314970Y0138494D02*
X0306844Y0138494D01*
X0307443Y0137895D02*
X0315103Y0137895D01*
X0315701Y0137296D02*
X0307859Y0137296D01*
X0307859Y0136698D02*
X0316300Y0136698D01*
X0315795Y0134304D02*
X0314908Y0134304D01*
X0311857Y0134304D02*
X0310971Y0134304D01*
X0314970Y0139691D02*
X0271818Y0139691D01*
X0271727Y0140289D02*
X0315284Y0140289D01*
X0315882Y0140888D02*
X0271479Y0140888D01*
X0271560Y0137895D02*
X0294689Y0137895D01*
X0294300Y0137296D02*
X0271312Y0137296D01*
X0270838Y0136698D02*
X0294300Y0136698D01*
X0294300Y0136099D02*
X0270240Y0136099D01*
X0268954Y0135501D02*
X0294359Y0135501D01*
X0294958Y0134902D02*
X0043864Y0134902D01*
X0044462Y0135501D02*
X0266882Y0135501D01*
X0267142Y0134193D02*
X0265709Y0133599D01*
X0264612Y0132502D01*
X0264018Y0131069D01*
X0264018Y0129517D01*
X0264612Y0128084D01*
X0265709Y0126987D01*
X0267142Y0126393D01*
X0268694Y0126393D01*
X0270127Y0126987D01*
X0271224Y0128084D01*
X0271818Y0129517D01*
X0271818Y0131069D01*
X0271224Y0132502D01*
X0270127Y0133599D01*
X0268694Y0134193D01*
X0267142Y0134193D01*
X0265965Y0133705D02*
X0184829Y0133705D01*
X0185268Y0133107D02*
X0265216Y0133107D01*
X0264618Y0132508D02*
X0185268Y0132508D01*
X0185268Y0131910D02*
X0264366Y0131910D01*
X0264118Y0131311D02*
X0185260Y0131311D01*
X0184821Y0130713D02*
X0264018Y0130713D01*
X0264018Y0130114D02*
X0185268Y0130114D01*
X0185268Y0129516D02*
X0264019Y0129516D01*
X0264266Y0128917D02*
X0185268Y0128917D01*
X0185267Y0128319D02*
X0220620Y0128319D01*
X0220945Y0128643D02*
X0219568Y0127266D01*
X0219568Y0125320D01*
X0220945Y0123943D01*
X0222891Y0123943D01*
X0224268Y0125320D01*
X0224268Y0127266D01*
X0222891Y0128643D01*
X0220945Y0128643D01*
X0220022Y0127720D02*
X0184814Y0127720D01*
X0185268Y0127122D02*
X0219568Y0127122D01*
X0219568Y0126523D02*
X0185268Y0126523D01*
X0185268Y0125925D02*
X0219568Y0125925D01*
X0219568Y0125326D02*
X0185268Y0125326D01*
X0184676Y0124728D02*
X0220160Y0124728D01*
X0220758Y0124129D02*
X0184078Y0124129D01*
X0181758Y0124129D02*
X0178368Y0124129D01*
X0178368Y0124728D02*
X0181160Y0124728D01*
X0180568Y0125326D02*
X0178368Y0125326D01*
X0178210Y0125925D02*
X0180568Y0125925D01*
X0180568Y0126523D02*
X0177611Y0126523D01*
X0177013Y0127122D02*
X0180568Y0127122D01*
X0181022Y0127720D02*
X0175068Y0127720D01*
X0175068Y0128319D02*
X0180569Y0128319D01*
X0180568Y0128917D02*
X0175068Y0128917D01*
X0174619Y0129516D02*
X0180568Y0129516D01*
X0184230Y0134304D02*
X0295556Y0134304D01*
X0295300Y0133705D02*
X0269871Y0133705D01*
X0270619Y0133107D02*
X0286495Y0133107D01*
X0285897Y0132508D02*
X0271218Y0132508D01*
X0271470Y0131910D02*
X0283911Y0131910D01*
X0283313Y0131311D02*
X0271717Y0131311D01*
X0271818Y0130713D02*
X0282714Y0130713D01*
X0282668Y0130114D02*
X0271818Y0130114D01*
X0271817Y0129516D02*
X0282668Y0129516D01*
X0282668Y0128917D02*
X0271569Y0128917D01*
X0271322Y0128319D02*
X0283069Y0128319D01*
X0283222Y0127720D02*
X0270861Y0127720D01*
X0270262Y0127122D02*
X0282668Y0127122D01*
X0282668Y0126523D02*
X0269008Y0126523D01*
X0266828Y0126523D02*
X0224268Y0126523D01*
X0224268Y0125925D02*
X0282668Y0125925D01*
X0282668Y0125326D02*
X0224268Y0125326D01*
X0223676Y0124728D02*
X0283160Y0124728D01*
X0283758Y0124129D02*
X0223078Y0124129D01*
X0224268Y0127122D02*
X0265574Y0127122D01*
X0264975Y0127720D02*
X0223814Y0127720D01*
X0223216Y0128319D02*
X0264514Y0128319D01*
X0265596Y0136099D02*
X0044852Y0136099D01*
X0030810Y0132508D02*
X0159810Y0132508D01*
X0159468Y0131910D02*
X0030810Y0131910D01*
X0030810Y0131311D02*
X0151113Y0131311D01*
X0150514Y0130713D02*
X0030810Y0130713D01*
X0030810Y0130114D02*
X0150068Y0130114D01*
X0150068Y0129516D02*
X0030810Y0129516D01*
X0030810Y0128917D02*
X0150068Y0128917D01*
X0150069Y0128319D02*
X0030810Y0128319D01*
X0030810Y0127720D02*
X0150667Y0127720D01*
X0151023Y0127122D02*
X0030810Y0127122D01*
X0030810Y0126523D02*
X0150425Y0126523D01*
X0149968Y0125925D02*
X0030810Y0125925D01*
X0030810Y0125326D02*
X0149968Y0125326D01*
X0149968Y0124728D02*
X0030810Y0124728D01*
X0030810Y0124129D02*
X0149968Y0124129D01*
X0150557Y0123531D02*
X0042941Y0123531D01*
X0044033Y0122932D02*
X0151155Y0122932D01*
X0153481Y0122932D02*
X0155734Y0122932D01*
X0155135Y0122334D02*
X0044631Y0122334D01*
X0044922Y0121735D02*
X0154537Y0121735D01*
X0154368Y0121137D02*
X0045170Y0121137D01*
X0045204Y0120538D02*
X0154368Y0120538D01*
X0154368Y0119940D02*
X0045204Y0119940D01*
X0045034Y0119341D02*
X0154646Y0119341D01*
X0155245Y0118743D02*
X0044786Y0118743D01*
X0040259Y0117546D02*
X0030810Y0117546D01*
X0030810Y0118144D02*
X0039549Y0118144D01*
X0039066Y0118743D02*
X0030810Y0118743D01*
X0030810Y0119341D02*
X0038818Y0119341D01*
X0038648Y0119940D02*
X0030810Y0119940D01*
X0030810Y0120538D02*
X0038648Y0120538D01*
X0038682Y0121137D02*
X0030810Y0121137D01*
X0030810Y0121735D02*
X0038930Y0121735D01*
X0039221Y0122334D02*
X0030810Y0122334D01*
X0030810Y0122932D02*
X0039819Y0122932D01*
X0040911Y0123531D02*
X0030810Y0123531D01*
X0030810Y0115750D02*
X0041136Y0115750D01*
X0039912Y0115152D02*
X0030810Y0115152D01*
X0030810Y0114553D02*
X0039314Y0114553D01*
X0038968Y0113955D02*
X0030810Y0113955D01*
X0030810Y0113356D02*
X0038720Y0113356D01*
X0038648Y0112758D02*
X0030810Y0112758D01*
X0030810Y0112159D02*
X0038648Y0112159D01*
X0038779Y0111560D02*
X0030810Y0111560D01*
X0030810Y0110962D02*
X0039027Y0110962D01*
X0039456Y0110363D02*
X0030810Y0110363D01*
X0030810Y0109765D02*
X0040054Y0109765D01*
X0043797Y0109765D02*
X0065284Y0109765D01*
X0065284Y0109166D02*
X0030810Y0109166D01*
X0030810Y0108568D02*
X0065284Y0108568D01*
X0065463Y0107969D02*
X0030810Y0107969D01*
X0030810Y0107371D02*
X0065711Y0107371D01*
X0066127Y0106772D02*
X0030810Y0106772D01*
X0030810Y0106174D02*
X0066726Y0106174D01*
X0067972Y0105575D02*
X0030810Y0105575D01*
X0030810Y0104977D02*
X0273911Y0104977D01*
X0274509Y0104378D02*
X0030810Y0104378D01*
X0043710Y0099590D02*
X0300175Y0099590D01*
X0300598Y0100013D02*
X0299222Y0098636D01*
X0299222Y0096690D01*
X0300598Y0095313D01*
X0302545Y0095313D01*
X0303922Y0096690D01*
X0303922Y0098636D01*
X0302545Y0100013D01*
X0300598Y0100013D01*
X0299577Y0098992D02*
X0044351Y0098992D01*
X0044806Y0098393D02*
X0299222Y0098393D01*
X0299222Y0097795D02*
X0045054Y0097795D01*
X0045204Y0097196D02*
X0299222Y0097196D01*
X0299313Y0096598D02*
X0045204Y0096598D01*
X0045150Y0095999D02*
X0299912Y0095999D01*
X0300510Y0095401D02*
X0044902Y0095401D01*
X0044583Y0094802D02*
X0434530Y0094802D01*
X0434530Y0094204D02*
X0043984Y0094204D01*
X0048481Y0082832D02*
X0253256Y0082832D01*
X0256180Y0082832D02*
X0299222Y0082832D01*
X0299222Y0082888D02*
X0299222Y0080942D01*
X0300598Y0079565D01*
X0302545Y0079565D01*
X0303922Y0080942D01*
X0303922Y0082888D01*
X0302545Y0084265D01*
X0300598Y0084265D01*
X0299222Y0082888D01*
X0299222Y0082233D02*
X0049926Y0082233D01*
X0051082Y0081635D02*
X0299222Y0081635D01*
X0299222Y0081036D02*
X0051680Y0081036D01*
X0052279Y0080438D02*
X0299725Y0080438D01*
X0300324Y0079839D02*
X0052877Y0079839D01*
X0075843Y0086423D02*
X0232025Y0086423D01*
X0231426Y0087022D02*
X0076441Y0087022D01*
X0076840Y0087620D02*
X0231027Y0087620D01*
X0230779Y0088219D02*
X0077088Y0088219D01*
X0077196Y0088817D02*
X0230672Y0088817D01*
X0230672Y0089416D02*
X0077196Y0089416D01*
X0077098Y0090014D02*
X0230770Y0090014D01*
X0231018Y0090613D02*
X0076850Y0090613D01*
X0076464Y0091211D02*
X0231404Y0091211D01*
X0232002Y0091810D02*
X0075865Y0091810D01*
X0077972Y0105575D02*
X0069896Y0105575D01*
X0071142Y0106174D02*
X0076726Y0106174D01*
X0076127Y0106772D02*
X0071740Y0106772D01*
X0072157Y0107371D02*
X0075711Y0107371D01*
X0075463Y0107969D02*
X0072405Y0107969D01*
X0072584Y0108568D02*
X0075284Y0108568D01*
X0075284Y0109166D02*
X0072584Y0109166D01*
X0072584Y0109765D02*
X0075284Y0109765D01*
X0075495Y0110363D02*
X0072373Y0110363D01*
X0072125Y0110962D02*
X0075743Y0110962D01*
X0076205Y0111560D02*
X0071663Y0111560D01*
X0071064Y0112159D02*
X0076803Y0112159D01*
X0081064Y0112159D02*
X0086803Y0112159D01*
X0086205Y0111560D02*
X0081663Y0111560D01*
X0082125Y0110962D02*
X0085743Y0110962D01*
X0085495Y0110363D02*
X0082373Y0110363D01*
X0082584Y0109765D02*
X0085284Y0109765D01*
X0085284Y0109166D02*
X0082584Y0109166D01*
X0082584Y0108568D02*
X0085284Y0108568D01*
X0085463Y0107969D02*
X0082405Y0107969D01*
X0082157Y0107371D02*
X0085711Y0107371D01*
X0086127Y0106772D02*
X0081740Y0106772D01*
X0081142Y0106174D02*
X0086726Y0106174D01*
X0087972Y0105575D02*
X0079896Y0105575D01*
X0089896Y0105575D02*
X0097972Y0105575D01*
X0096726Y0106174D02*
X0091142Y0106174D01*
X0091740Y0106772D02*
X0096127Y0106772D01*
X0095711Y0107371D02*
X0092157Y0107371D01*
X0092405Y0107969D02*
X0095463Y0107969D01*
X0095284Y0108568D02*
X0092584Y0108568D01*
X0092584Y0109166D02*
X0095284Y0109166D01*
X0095284Y0109765D02*
X0092584Y0109765D01*
X0092373Y0110363D02*
X0095495Y0110363D01*
X0095743Y0110962D02*
X0092125Y0110962D01*
X0091663Y0111560D02*
X0096205Y0111560D01*
X0096803Y0112159D02*
X0091064Y0112159D01*
X0101064Y0112159D02*
X0106803Y0112159D01*
X0106205Y0111560D02*
X0101663Y0111560D01*
X0102125Y0110962D02*
X0105743Y0110962D01*
X0105495Y0110363D02*
X0102373Y0110363D01*
X0102584Y0109765D02*
X0105284Y0109765D01*
X0105284Y0109166D02*
X0102584Y0109166D01*
X0102584Y0108568D02*
X0105284Y0108568D01*
X0105463Y0107969D02*
X0102405Y0107969D01*
X0102157Y0107371D02*
X0105711Y0107371D01*
X0106127Y0106772D02*
X0101740Y0106772D01*
X0101142Y0106174D02*
X0106726Y0106174D01*
X0107972Y0105575D02*
X0099896Y0105575D01*
X0109896Y0105575D02*
X0117972Y0105575D01*
X0116726Y0106174D02*
X0111142Y0106174D01*
X0111740Y0106772D02*
X0116127Y0106772D01*
X0115711Y0107371D02*
X0112157Y0107371D01*
X0112405Y0107969D02*
X0115463Y0107969D01*
X0115284Y0108568D02*
X0112584Y0108568D01*
X0112584Y0109166D02*
X0115284Y0109166D01*
X0115284Y0109765D02*
X0112584Y0109765D01*
X0112373Y0110363D02*
X0115495Y0110363D01*
X0115743Y0110962D02*
X0112125Y0110962D01*
X0111663Y0111560D02*
X0116205Y0111560D01*
X0116803Y0112159D02*
X0111064Y0112159D01*
X0121064Y0112159D02*
X0126803Y0112159D01*
X0126205Y0111560D02*
X0121663Y0111560D01*
X0122125Y0110962D02*
X0125743Y0110962D01*
X0125495Y0110363D02*
X0122373Y0110363D01*
X0122584Y0109765D02*
X0125284Y0109765D01*
X0125284Y0109166D02*
X0122584Y0109166D01*
X0122584Y0108568D02*
X0125284Y0108568D01*
X0125463Y0107969D02*
X0122405Y0107969D01*
X0122157Y0107371D02*
X0125711Y0107371D01*
X0126127Y0106772D02*
X0121740Y0106772D01*
X0121142Y0106174D02*
X0126726Y0106174D01*
X0127972Y0105575D02*
X0119896Y0105575D01*
X0129896Y0105575D02*
X0137972Y0105575D01*
X0136726Y0106174D02*
X0131142Y0106174D01*
X0131740Y0106772D02*
X0136127Y0106772D01*
X0135711Y0107371D02*
X0132157Y0107371D01*
X0132405Y0107969D02*
X0135463Y0107969D01*
X0135284Y0108568D02*
X0132584Y0108568D01*
X0132584Y0109166D02*
X0135284Y0109166D01*
X0135284Y0109765D02*
X0132584Y0109765D01*
X0132373Y0110363D02*
X0135495Y0110363D01*
X0135743Y0110962D02*
X0132125Y0110962D01*
X0131663Y0111560D02*
X0136205Y0111560D01*
X0136803Y0112159D02*
X0131064Y0112159D01*
X0141064Y0112159D02*
X0146803Y0112159D01*
X0146205Y0111560D02*
X0141663Y0111560D01*
X0142125Y0110962D02*
X0145743Y0110962D01*
X0145495Y0110363D02*
X0142373Y0110363D01*
X0142584Y0109765D02*
X0145284Y0109765D01*
X0145284Y0109166D02*
X0142584Y0109166D01*
X0142584Y0108568D02*
X0145284Y0108568D01*
X0145463Y0107969D02*
X0142405Y0107969D01*
X0142157Y0107371D02*
X0145711Y0107371D01*
X0146127Y0106772D02*
X0141740Y0106772D01*
X0141142Y0106174D02*
X0146726Y0106174D01*
X0147972Y0105575D02*
X0139896Y0105575D01*
X0149896Y0105575D02*
X0157972Y0105575D01*
X0156726Y0106174D02*
X0151142Y0106174D01*
X0151740Y0106772D02*
X0156127Y0106772D01*
X0155711Y0107371D02*
X0152157Y0107371D01*
X0152405Y0107969D02*
X0155463Y0107969D01*
X0155284Y0108568D02*
X0152584Y0108568D01*
X0152584Y0109166D02*
X0155284Y0109166D01*
X0155284Y0109765D02*
X0152584Y0109765D01*
X0152373Y0110363D02*
X0155495Y0110363D01*
X0155743Y0110962D02*
X0152125Y0110962D01*
X0151663Y0111560D02*
X0156205Y0111560D01*
X0156803Y0112159D02*
X0151064Y0112159D01*
X0161064Y0112159D02*
X0166803Y0112159D01*
X0166205Y0111560D02*
X0161663Y0111560D01*
X0162125Y0110962D02*
X0165743Y0110962D01*
X0165495Y0110363D02*
X0162373Y0110363D01*
X0162584Y0109765D02*
X0165284Y0109765D01*
X0165284Y0109166D02*
X0162584Y0109166D01*
X0162584Y0108568D02*
X0165284Y0108568D01*
X0165463Y0107969D02*
X0162405Y0107969D01*
X0162157Y0107371D02*
X0165711Y0107371D01*
X0166127Y0106772D02*
X0161740Y0106772D01*
X0161142Y0106174D02*
X0166726Y0106174D01*
X0167972Y0105575D02*
X0159896Y0105575D01*
X0169896Y0105575D02*
X0177972Y0105575D01*
X0176726Y0106174D02*
X0171142Y0106174D01*
X0171740Y0106772D02*
X0176127Y0106772D01*
X0175711Y0107371D02*
X0172157Y0107371D01*
X0172405Y0107969D02*
X0175463Y0107969D01*
X0175284Y0108568D02*
X0172584Y0108568D01*
X0172584Y0109166D02*
X0175284Y0109166D01*
X0175284Y0109765D02*
X0172584Y0109765D01*
X0172373Y0110363D02*
X0175495Y0110363D01*
X0175743Y0110962D02*
X0172125Y0110962D01*
X0171663Y0111560D02*
X0176205Y0111560D01*
X0176803Y0112159D02*
X0171064Y0112159D01*
X0181064Y0112159D02*
X0186803Y0112159D01*
X0186205Y0111560D02*
X0181663Y0111560D01*
X0182125Y0110962D02*
X0185743Y0110962D01*
X0185495Y0110363D02*
X0182373Y0110363D01*
X0182584Y0109765D02*
X0185284Y0109765D01*
X0185284Y0109166D02*
X0182584Y0109166D01*
X0182584Y0108568D02*
X0185284Y0108568D01*
X0185463Y0107969D02*
X0182405Y0107969D01*
X0182157Y0107371D02*
X0185711Y0107371D01*
X0186127Y0106772D02*
X0181740Y0106772D01*
X0181142Y0106174D02*
X0186726Y0106174D01*
X0187972Y0105575D02*
X0179896Y0105575D01*
X0189896Y0105575D02*
X0197972Y0105575D01*
X0196726Y0106174D02*
X0191142Y0106174D01*
X0191740Y0106772D02*
X0196127Y0106772D01*
X0195711Y0107371D02*
X0192157Y0107371D01*
X0192405Y0107969D02*
X0195463Y0107969D01*
X0195284Y0108568D02*
X0192584Y0108568D01*
X0192584Y0109166D02*
X0195284Y0109166D01*
X0195284Y0109765D02*
X0192584Y0109765D01*
X0192373Y0110363D02*
X0195495Y0110363D01*
X0195743Y0110962D02*
X0192125Y0110962D01*
X0191663Y0111560D02*
X0196205Y0111560D01*
X0196803Y0112159D02*
X0191064Y0112159D01*
X0201064Y0112159D02*
X0206803Y0112159D01*
X0206205Y0111560D02*
X0201663Y0111560D01*
X0202125Y0110962D02*
X0205743Y0110962D01*
X0205495Y0110363D02*
X0202373Y0110363D01*
X0202584Y0109765D02*
X0205284Y0109765D01*
X0205284Y0109166D02*
X0202584Y0109166D01*
X0202584Y0108568D02*
X0205284Y0108568D01*
X0205463Y0107969D02*
X0202405Y0107969D01*
X0202157Y0107371D02*
X0205711Y0107371D01*
X0206127Y0106772D02*
X0201740Y0106772D01*
X0201142Y0106174D02*
X0206726Y0106174D01*
X0207972Y0105575D02*
X0199896Y0105575D01*
X0209896Y0105575D02*
X0217972Y0105575D01*
X0216726Y0106174D02*
X0211142Y0106174D01*
X0211740Y0106772D02*
X0216127Y0106772D01*
X0215711Y0107371D02*
X0212157Y0107371D01*
X0212405Y0107969D02*
X0215463Y0107969D01*
X0215284Y0108568D02*
X0212584Y0108568D01*
X0212584Y0109166D02*
X0215284Y0109166D01*
X0215284Y0109765D02*
X0212584Y0109765D01*
X0212373Y0110363D02*
X0215495Y0110363D01*
X0215743Y0110962D02*
X0212125Y0110962D01*
X0211663Y0111560D02*
X0216205Y0111560D01*
X0216803Y0112159D02*
X0211064Y0112159D01*
X0229708Y0112758D02*
X0283030Y0112758D01*
X0283629Y0112159D02*
X0231064Y0112159D01*
X0231663Y0111560D02*
X0307847Y0111560D01*
X0308346Y0111061D02*
X0310293Y0111061D01*
X0311670Y0112438D01*
X0311670Y0114384D01*
X0310293Y0115761D01*
X0308346Y0115761D01*
X0306970Y0114384D01*
X0306970Y0112438D01*
X0308346Y0111061D01*
X0307248Y0112159D02*
X0298722Y0112159D01*
X0299320Y0112758D02*
X0306970Y0112758D01*
X0306970Y0113356D02*
X0299919Y0113356D01*
X0299984Y0113955D02*
X0306970Y0113955D01*
X0307138Y0114553D02*
X0299984Y0114553D01*
X0299984Y0115152D02*
X0307737Y0115152D01*
X0308335Y0115750D02*
X0299603Y0115750D01*
X0299005Y0116349D02*
X0422719Y0116349D01*
X0422719Y0116947D02*
X0299573Y0116947D01*
X0299984Y0117546D02*
X0422719Y0117546D01*
X0422719Y0118144D02*
X0326557Y0118144D01*
X0326167Y0117754D02*
X0327544Y0119131D01*
X0327544Y0121077D01*
X0326167Y0122454D01*
X0324220Y0122454D01*
X0322844Y0121077D01*
X0322844Y0119131D01*
X0324220Y0117754D01*
X0326167Y0117754D01*
X0327156Y0118743D02*
X0422719Y0118743D01*
X0422719Y0119341D02*
X0421061Y0119341D01*
X0420655Y0118935D02*
X0422032Y0120312D01*
X0422032Y0122259D01*
X0420655Y0123635D01*
X0418708Y0123635D01*
X0417332Y0122259D01*
X0417332Y0120312D01*
X0418708Y0118935D01*
X0420655Y0118935D01*
X0421660Y0119940D02*
X0422719Y0119940D01*
X0422719Y0120538D02*
X0422032Y0120538D01*
X0422032Y0121137D02*
X0422719Y0121137D01*
X0422719Y0121735D02*
X0422032Y0121735D01*
X0421957Y0122334D02*
X0422719Y0122334D01*
X0422719Y0122932D02*
X0421358Y0122932D01*
X0420760Y0123531D02*
X0422719Y0123531D01*
X0422719Y0124129D02*
X0331087Y0124129D01*
X0331087Y0123855D02*
X0331087Y0125802D01*
X0329710Y0127178D01*
X0327763Y0127178D01*
X0326965Y0126380D01*
X0326167Y0127178D01*
X0324220Y0127178D01*
X0322844Y0125802D01*
X0322844Y0125777D01*
X0322230Y0126391D01*
X0320283Y0126391D01*
X0319288Y0125396D01*
X0318293Y0126391D01*
X0316346Y0126391D01*
X0315351Y0125396D01*
X0314356Y0126391D01*
X0312409Y0126391D01*
X0311414Y0125396D01*
X0310419Y0126391D01*
X0308472Y0126391D01*
X0307674Y0125593D01*
X0306876Y0126391D01*
X0304929Y0126391D01*
X0303552Y0125014D01*
X0303552Y0123068D01*
X0304929Y0121691D01*
X0306876Y0121691D01*
X0307674Y0122489D01*
X0308472Y0121691D01*
X0309193Y0121691D01*
X0308668Y0121166D01*
X0308668Y0119220D01*
X0310045Y0117843D01*
X0311991Y0117843D01*
X0313368Y0119220D01*
X0313368Y0121166D01*
X0312843Y0121691D01*
X0314356Y0121691D01*
X0315351Y0122686D01*
X0315965Y0122073D01*
X0314970Y0121077D01*
X0314970Y0119131D01*
X0316346Y0117754D01*
X0318293Y0117754D01*
X0319670Y0119131D01*
X0319670Y0121077D01*
X0318674Y0122073D01*
X0319288Y0122686D01*
X0320283Y0121691D01*
X0322230Y0121691D01*
X0323607Y0123068D01*
X0323607Y0123092D01*
X0324220Y0122478D01*
X0326167Y0122478D01*
X0326965Y0123277D01*
X0327763Y0122478D01*
X0329710Y0122478D01*
X0331087Y0123855D01*
X0330763Y0123531D02*
X0355612Y0123531D01*
X0355716Y0123635D02*
X0354340Y0122259D01*
X0354340Y0120312D01*
X0355716Y0118935D01*
X0357663Y0118935D01*
X0359040Y0120312D01*
X0359040Y0122259D01*
X0357663Y0123635D01*
X0355716Y0123635D01*
X0355013Y0122932D02*
X0330164Y0122932D01*
X0331087Y0124728D02*
X0422719Y0124728D01*
X0422719Y0125326D02*
X0331087Y0125326D01*
X0330964Y0125925D02*
X0422719Y0125925D01*
X0422719Y0126523D02*
X0330365Y0126523D01*
X0329767Y0127122D02*
X0347530Y0127122D01*
X0346931Y0127720D02*
X0299173Y0127720D01*
X0299771Y0128319D02*
X0346466Y0128319D01*
X0346466Y0128917D02*
X0300181Y0128917D01*
X0300181Y0129516D02*
X0346466Y0129516D01*
X0347644Y0131311D02*
X0323386Y0131311D01*
X0323607Y0131910D02*
X0324041Y0131910D01*
X0326346Y0131910D02*
X0327584Y0131910D01*
X0326985Y0132508D02*
X0326945Y0132508D01*
X0329890Y0131910D02*
X0422719Y0131910D01*
X0422719Y0132508D02*
X0330488Y0132508D01*
X0331087Y0133107D02*
X0422719Y0133107D01*
X0422719Y0133705D02*
X0331087Y0133705D01*
X0331087Y0134304D02*
X0422719Y0134304D01*
X0422719Y0134902D02*
X0420874Y0134902D01*
X0420655Y0134683D02*
X0422032Y0136060D01*
X0422032Y0138007D01*
X0420655Y0139383D01*
X0418708Y0139383D01*
X0417332Y0138007D01*
X0417332Y0136060D01*
X0418708Y0134683D01*
X0420655Y0134683D01*
X0421473Y0135501D02*
X0422719Y0135501D01*
X0422719Y0136099D02*
X0422032Y0136099D01*
X0422032Y0136698D02*
X0422719Y0136698D01*
X0422719Y0137296D02*
X0422032Y0137296D01*
X0422032Y0137895D02*
X0422719Y0137895D01*
X0422719Y0138494D02*
X0421545Y0138494D01*
X0420946Y0139092D02*
X0422719Y0139092D01*
X0422719Y0139691D02*
X0327544Y0139691D01*
X0327544Y0139092D02*
X0355425Y0139092D01*
X0355716Y0139383D02*
X0354340Y0138007D01*
X0354340Y0136060D01*
X0355716Y0134683D01*
X0357663Y0134683D01*
X0359040Y0136060D01*
X0359040Y0138007D01*
X0357663Y0139383D01*
X0355716Y0139383D01*
X0354827Y0138494D02*
X0327544Y0138494D01*
X0327410Y0137895D02*
X0354340Y0137895D01*
X0354340Y0137296D02*
X0326812Y0137296D01*
X0326213Y0136698D02*
X0354340Y0136698D01*
X0354340Y0136099D02*
X0330041Y0136099D01*
X0330640Y0135501D02*
X0354898Y0135501D01*
X0355497Y0134902D02*
X0331087Y0134902D01*
X0327433Y0136099D02*
X0326498Y0136099D01*
X0322844Y0134304D02*
X0322782Y0134304D01*
X0319731Y0134304D02*
X0318845Y0134304D01*
X0327230Y0140289D02*
X0422719Y0140289D01*
X0418417Y0139092D02*
X0413072Y0139092D01*
X0412781Y0139383D02*
X0414158Y0138007D01*
X0414158Y0136060D01*
X0412781Y0134683D01*
X0410834Y0134683D01*
X0409458Y0136060D01*
X0409458Y0138007D01*
X0410834Y0139383D01*
X0412781Y0139383D01*
X0413671Y0138494D02*
X0417819Y0138494D01*
X0417332Y0137895D02*
X0414158Y0137895D01*
X0414158Y0137296D02*
X0417332Y0137296D01*
X0417332Y0136698D02*
X0414158Y0136698D01*
X0414158Y0136099D02*
X0417332Y0136099D01*
X0417891Y0135501D02*
X0413599Y0135501D01*
X0413000Y0134902D02*
X0418489Y0134902D01*
X0410615Y0134902D02*
X0381504Y0134902D01*
X0381285Y0134683D02*
X0382662Y0136060D01*
X0382662Y0138007D01*
X0381285Y0139383D01*
X0379338Y0139383D01*
X0377962Y0138007D01*
X0377962Y0136060D01*
X0379338Y0134683D01*
X0381285Y0134683D01*
X0382103Y0135501D02*
X0410017Y0135501D01*
X0409458Y0136099D02*
X0382662Y0136099D01*
X0382662Y0136698D02*
X0409458Y0136698D01*
X0409458Y0137296D02*
X0382662Y0137296D01*
X0382662Y0137895D02*
X0409458Y0137895D01*
X0409945Y0138494D02*
X0382175Y0138494D01*
X0381576Y0139092D02*
X0410543Y0139092D01*
X0410834Y0131509D02*
X0409458Y0130133D01*
X0409458Y0128186D01*
X0410834Y0126809D01*
X0412781Y0126809D01*
X0414158Y0128186D01*
X0414158Y0130133D01*
X0412781Y0131509D01*
X0410834Y0131509D01*
X0410637Y0131311D02*
X0381483Y0131311D01*
X0381285Y0131509D02*
X0379338Y0131509D01*
X0377962Y0130133D01*
X0377962Y0128186D01*
X0379338Y0126809D01*
X0381285Y0126809D01*
X0382662Y0128186D01*
X0382662Y0130133D01*
X0381285Y0131509D01*
X0382081Y0130713D02*
X0410038Y0130713D01*
X0409458Y0130114D02*
X0382662Y0130114D01*
X0382662Y0129516D02*
X0409458Y0129516D01*
X0409458Y0128917D02*
X0382662Y0128917D01*
X0382662Y0128319D02*
X0409458Y0128319D01*
X0409923Y0127720D02*
X0382196Y0127720D01*
X0381598Y0127122D02*
X0410522Y0127122D01*
X0413094Y0127122D02*
X0418396Y0127122D01*
X0418708Y0126809D02*
X0420655Y0126809D01*
X0422032Y0128186D01*
X0422032Y0130133D01*
X0420655Y0131509D01*
X0418708Y0131509D01*
X0417332Y0130133D01*
X0417332Y0128186D01*
X0418708Y0126809D01*
X0417797Y0127720D02*
X0413692Y0127720D01*
X0414158Y0128319D02*
X0417332Y0128319D01*
X0417332Y0128917D02*
X0414158Y0128917D01*
X0414158Y0129516D02*
X0417332Y0129516D01*
X0417332Y0130114D02*
X0414158Y0130114D01*
X0413577Y0130713D02*
X0417912Y0130713D01*
X0418511Y0131311D02*
X0412979Y0131311D01*
X0420853Y0131311D02*
X0422719Y0131311D01*
X0422719Y0130713D02*
X0421451Y0130713D01*
X0422032Y0130114D02*
X0422719Y0130114D01*
X0422719Y0129516D02*
X0422032Y0129516D01*
X0422032Y0128917D02*
X0422719Y0128917D01*
X0422719Y0128319D02*
X0422032Y0128319D01*
X0421566Y0127720D02*
X0422719Y0127720D01*
X0422719Y0127122D02*
X0420968Y0127122D01*
X0418604Y0123531D02*
X0412886Y0123531D01*
X0412781Y0123635D02*
X0410834Y0123635D01*
X0409458Y0122259D01*
X0409458Y0120312D01*
X0410834Y0118935D01*
X0412781Y0118935D01*
X0414158Y0120312D01*
X0414158Y0122259D01*
X0412781Y0123635D01*
X0413484Y0122932D02*
X0418005Y0122932D01*
X0417407Y0122334D02*
X0414083Y0122334D01*
X0414158Y0121735D02*
X0417332Y0121735D01*
X0417332Y0121137D02*
X0414158Y0121137D01*
X0414158Y0120538D02*
X0417332Y0120538D01*
X0417704Y0119940D02*
X0413786Y0119940D01*
X0413187Y0119341D02*
X0418302Y0119341D01*
X0410428Y0119341D02*
X0381691Y0119341D01*
X0381285Y0118935D02*
X0382662Y0120312D01*
X0382662Y0122259D01*
X0381285Y0123635D01*
X0379338Y0123635D01*
X0377962Y0122259D01*
X0377962Y0120312D01*
X0379338Y0118935D01*
X0381285Y0118935D01*
X0382290Y0119940D02*
X0409830Y0119940D01*
X0409458Y0120538D02*
X0382662Y0120538D01*
X0382662Y0121137D02*
X0409458Y0121137D01*
X0409458Y0121735D02*
X0382662Y0121735D01*
X0382586Y0122334D02*
X0409533Y0122334D01*
X0410131Y0122932D02*
X0381988Y0122932D01*
X0381389Y0123531D02*
X0410730Y0123531D01*
X0410834Y0115761D02*
X0409458Y0114384D01*
X0409458Y0112438D01*
X0410834Y0111061D01*
X0412781Y0111061D01*
X0414158Y0112438D01*
X0414158Y0114384D01*
X0412781Y0115761D01*
X0410834Y0115761D01*
X0410823Y0115750D02*
X0381296Y0115750D01*
X0381285Y0115761D02*
X0379338Y0115761D01*
X0377962Y0114384D01*
X0377962Y0112438D01*
X0379338Y0111061D01*
X0381285Y0111061D01*
X0382662Y0112438D01*
X0382662Y0114384D01*
X0381285Y0115761D01*
X0381895Y0115152D02*
X0410225Y0115152D01*
X0409626Y0114553D02*
X0382493Y0114553D01*
X0382662Y0113955D02*
X0409458Y0113955D01*
X0409458Y0113356D02*
X0382662Y0113356D01*
X0382662Y0112758D02*
X0409458Y0112758D01*
X0409736Y0112159D02*
X0382383Y0112159D01*
X0381784Y0111560D02*
X0410335Y0111560D01*
X0413281Y0111560D02*
X0418209Y0111560D01*
X0418708Y0111061D02*
X0420655Y0111061D01*
X0422032Y0112438D01*
X0422032Y0114384D01*
X0420655Y0115761D01*
X0418708Y0115761D01*
X0417332Y0114384D01*
X0417332Y0112438D01*
X0418708Y0111061D01*
X0417610Y0112159D02*
X0413879Y0112159D01*
X0414158Y0112758D02*
X0417332Y0112758D01*
X0417332Y0113356D02*
X0414158Y0113356D01*
X0414158Y0113955D02*
X0417332Y0113955D01*
X0417500Y0114553D02*
X0413989Y0114553D01*
X0413391Y0115152D02*
X0418099Y0115152D01*
X0418697Y0115750D02*
X0412792Y0115750D01*
X0420666Y0115750D02*
X0422719Y0115750D01*
X0422719Y0115152D02*
X0421265Y0115152D01*
X0421863Y0114553D02*
X0423173Y0114553D01*
X0424134Y0113955D02*
X0422032Y0113955D01*
X0422032Y0113356D02*
X0425032Y0113356D01*
X0425929Y0112758D02*
X0422032Y0112758D01*
X0421753Y0112159D02*
X0426827Y0112159D01*
X0427725Y0111560D02*
X0421155Y0111560D01*
X0428623Y0110962D02*
X0232125Y0110962D01*
X0232373Y0110363D02*
X0429520Y0110363D01*
X0430418Y0109765D02*
X0232584Y0109765D01*
X0257068Y0085226D02*
X0434530Y0085226D01*
X0434530Y0084627D02*
X0257068Y0084627D01*
X0257068Y0084029D02*
X0300362Y0084029D01*
X0299764Y0083430D02*
X0256779Y0083430D01*
X0260070Y0087022D02*
X0434530Y0087022D01*
X0434530Y0087620D02*
X0428710Y0087620D01*
X0429309Y0088219D02*
X0434530Y0088219D01*
X0434530Y0088817D02*
X0429906Y0088817D01*
X0429906Y0089416D02*
X0434530Y0089416D01*
X0434530Y0090014D02*
X0429906Y0090014D01*
X0429906Y0090613D02*
X0434530Y0090613D01*
X0434530Y0091211D02*
X0429457Y0091211D01*
X0428859Y0091810D02*
X0434530Y0091810D01*
X0434530Y0092408D02*
X0281626Y0092408D01*
X0282225Y0091810D02*
X0300269Y0091810D01*
X0300598Y0092139D02*
X0299222Y0090762D01*
X0299222Y0088816D01*
X0300598Y0087439D01*
X0302545Y0087439D01*
X0303922Y0088816D01*
X0303922Y0090762D01*
X0302545Y0092139D01*
X0300598Y0092139D01*
X0299670Y0091211D02*
X0282768Y0091211D01*
X0282768Y0090613D02*
X0299222Y0090613D01*
X0299222Y0090014D02*
X0282768Y0090014D01*
X0282768Y0089416D02*
X0299222Y0089416D01*
X0299222Y0088817D02*
X0282265Y0088817D01*
X0281667Y0088219D02*
X0299819Y0088219D01*
X0300417Y0087620D02*
X0260668Y0087620D01*
X0277327Y0104378D02*
X0279509Y0104378D01*
X0278911Y0104977D02*
X0277925Y0104977D01*
X0278268Y0105575D02*
X0278568Y0105575D01*
X0278568Y0106174D02*
X0278268Y0106174D01*
X0278268Y0106772D02*
X0278568Y0106772D01*
X0278673Y0107371D02*
X0278163Y0107371D01*
X0277565Y0107969D02*
X0279271Y0107969D01*
X0279870Y0108568D02*
X0276966Y0108568D01*
X0285607Y0112159D02*
X0287929Y0112159D01*
X0287330Y0112758D02*
X0286206Y0112758D01*
X0286684Y0115750D02*
X0287252Y0115750D01*
X0287850Y0116349D02*
X0286086Y0116349D01*
X0290386Y0116349D02*
X0292050Y0116349D01*
X0291452Y0115750D02*
X0290984Y0115750D01*
X0290906Y0112758D02*
X0291530Y0112758D01*
X0292129Y0112159D02*
X0290307Y0112159D01*
X0294507Y0112159D02*
X0296547Y0112159D01*
X0295949Y0112758D02*
X0295106Y0112758D01*
X0295184Y0115750D02*
X0295666Y0115750D01*
X0296264Y0116349D02*
X0294586Y0116349D01*
X0299984Y0118144D02*
X0309743Y0118144D01*
X0309145Y0118743D02*
X0299984Y0118743D01*
X0299949Y0119341D02*
X0308668Y0119341D01*
X0308668Y0119940D02*
X0299351Y0119940D01*
X0299227Y0120538D02*
X0308668Y0120538D01*
X0308668Y0121137D02*
X0299825Y0121137D01*
X0299984Y0121735D02*
X0304885Y0121735D01*
X0304286Y0122334D02*
X0299984Y0122334D01*
X0299984Y0122932D02*
X0303688Y0122932D01*
X0303552Y0123531D02*
X0299697Y0123531D01*
X0299098Y0124129D02*
X0303552Y0124129D01*
X0303552Y0124728D02*
X0286876Y0124728D01*
X0287368Y0125326D02*
X0303864Y0125326D01*
X0304463Y0125925D02*
X0287368Y0125925D01*
X0287368Y0126523D02*
X0323565Y0126523D01*
X0322967Y0125925D02*
X0322696Y0125925D01*
X0324164Y0127122D02*
X0287368Y0127122D01*
X0286814Y0127720D02*
X0296490Y0127720D01*
X0295892Y0128319D02*
X0286967Y0128319D01*
X0288952Y0128917D02*
X0290132Y0128917D01*
X0292421Y0128917D02*
X0293569Y0128917D01*
X0296171Y0124129D02*
X0286278Y0124129D01*
X0295285Y0122932D02*
X0177481Y0122932D01*
X0178079Y0123531D02*
X0295572Y0123531D01*
X0306920Y0121735D02*
X0308428Y0121735D01*
X0307829Y0122334D02*
X0307518Y0122334D01*
X0307342Y0125925D02*
X0308006Y0125925D01*
X0310885Y0125925D02*
X0311943Y0125925D01*
X0314822Y0125925D02*
X0315880Y0125925D01*
X0318759Y0125925D02*
X0319817Y0125925D01*
X0319640Y0122334D02*
X0318936Y0122334D01*
X0319012Y0121735D02*
X0320239Y0121735D01*
X0319610Y0121137D02*
X0322903Y0121137D01*
X0322844Y0120538D02*
X0319670Y0120538D01*
X0319670Y0119940D02*
X0322844Y0119940D01*
X0322844Y0119341D02*
X0319670Y0119341D01*
X0319282Y0118743D02*
X0323232Y0118743D01*
X0323830Y0118144D02*
X0318683Y0118144D01*
X0318293Y0115761D02*
X0316346Y0115761D01*
X0314970Y0114384D01*
X0314970Y0112438D01*
X0316346Y0111061D01*
X0318293Y0111061D01*
X0319670Y0112438D01*
X0319670Y0114384D01*
X0318293Y0115761D01*
X0318304Y0115750D02*
X0324209Y0115750D01*
X0324220Y0115761D02*
X0322844Y0114384D01*
X0322844Y0112438D01*
X0324220Y0111061D01*
X0326167Y0111061D01*
X0327544Y0112438D01*
X0327544Y0114384D01*
X0326167Y0115761D01*
X0324220Y0115761D01*
X0323611Y0115152D02*
X0318902Y0115152D01*
X0319501Y0114553D02*
X0323012Y0114553D01*
X0322844Y0113955D02*
X0319670Y0113955D01*
X0319670Y0113356D02*
X0322844Y0113356D01*
X0322844Y0112758D02*
X0319670Y0112758D01*
X0319391Y0112159D02*
X0323122Y0112159D01*
X0323721Y0111560D02*
X0318792Y0111560D01*
X0315847Y0111560D02*
X0310792Y0111560D01*
X0311391Y0112159D02*
X0315248Y0112159D01*
X0314970Y0112758D02*
X0311670Y0112758D01*
X0311670Y0113356D02*
X0314970Y0113356D01*
X0314970Y0113955D02*
X0311670Y0113955D01*
X0311501Y0114553D02*
X0315138Y0114553D01*
X0315737Y0115152D02*
X0310902Y0115152D01*
X0310304Y0115750D02*
X0316335Y0115750D01*
X0315956Y0118144D02*
X0312293Y0118144D01*
X0312891Y0118743D02*
X0315358Y0118743D01*
X0314970Y0119341D02*
X0313368Y0119341D01*
X0313368Y0119940D02*
X0314970Y0119940D01*
X0314970Y0120538D02*
X0313368Y0120538D01*
X0313368Y0121137D02*
X0315029Y0121137D01*
X0315627Y0121735D02*
X0314400Y0121735D01*
X0314999Y0122334D02*
X0315703Y0122334D01*
X0322274Y0121735D02*
X0323501Y0121735D01*
X0324100Y0122334D02*
X0322873Y0122334D01*
X0323471Y0122932D02*
X0323766Y0122932D01*
X0326287Y0122334D02*
X0354415Y0122334D01*
X0354340Y0121735D02*
X0326886Y0121735D01*
X0327484Y0121137D02*
X0354340Y0121137D01*
X0354340Y0120538D02*
X0327544Y0120538D01*
X0327544Y0119940D02*
X0354712Y0119940D01*
X0355310Y0119341D02*
X0327544Y0119341D01*
X0327310Y0122932D02*
X0326621Y0122932D01*
X0326822Y0126523D02*
X0327108Y0126523D01*
X0327707Y0127122D02*
X0326224Y0127122D01*
X0326178Y0115750D02*
X0355705Y0115750D01*
X0355716Y0115761D02*
X0354340Y0114384D01*
X0354340Y0112438D01*
X0355716Y0111061D01*
X0357663Y0111061D01*
X0359040Y0112438D01*
X0359040Y0114384D01*
X0357663Y0115761D01*
X0355716Y0115761D01*
X0355107Y0115152D02*
X0326776Y0115152D01*
X0327375Y0114553D02*
X0354508Y0114553D01*
X0354340Y0113955D02*
X0327544Y0113955D01*
X0327544Y0113356D02*
X0354340Y0113356D01*
X0354340Y0112758D02*
X0327544Y0112758D01*
X0327265Y0112159D02*
X0354618Y0112159D01*
X0355217Y0111560D02*
X0326666Y0111560D01*
X0326167Y0100013D02*
X0324220Y0100013D01*
X0322844Y0098636D01*
X0322844Y0096690D01*
X0324220Y0095313D01*
X0326167Y0095313D01*
X0327544Y0096690D01*
X0327544Y0098636D01*
X0326167Y0100013D01*
X0326590Y0099590D02*
X0355293Y0099590D01*
X0355716Y0100013D02*
X0354340Y0098636D01*
X0354340Y0096690D01*
X0355716Y0095313D01*
X0357663Y0095313D01*
X0359040Y0096690D01*
X0359040Y0098636D01*
X0357663Y0100013D01*
X0355716Y0100013D01*
X0354695Y0098992D02*
X0327188Y0098992D01*
X0327544Y0098393D02*
X0354340Y0098393D01*
X0354340Y0097795D02*
X0327544Y0097795D01*
X0327544Y0097196D02*
X0354340Y0097196D01*
X0354432Y0096598D02*
X0327452Y0096598D01*
X0326853Y0095999D02*
X0355030Y0095999D01*
X0355629Y0095401D02*
X0326255Y0095401D01*
X0324133Y0095401D02*
X0318381Y0095401D01*
X0318293Y0095313D02*
X0319670Y0096690D01*
X0319670Y0098636D01*
X0318293Y0100013D01*
X0316346Y0100013D01*
X0314970Y0098636D01*
X0314970Y0096690D01*
X0316346Y0095313D01*
X0318293Y0095313D01*
X0318979Y0095999D02*
X0323534Y0095999D01*
X0322936Y0096598D02*
X0319578Y0096598D01*
X0319670Y0097196D02*
X0322844Y0097196D01*
X0322844Y0097795D02*
X0319670Y0097795D01*
X0319670Y0098393D02*
X0322844Y0098393D01*
X0323199Y0098992D02*
X0319314Y0098992D01*
X0318716Y0099590D02*
X0323797Y0099590D01*
X0315923Y0099590D02*
X0310842Y0099590D01*
X0310419Y0100013D02*
X0308472Y0100013D01*
X0307096Y0098636D01*
X0307096Y0096690D01*
X0308472Y0095313D01*
X0310419Y0095313D01*
X0311796Y0096690D01*
X0311796Y0098636D01*
X0310419Y0100013D01*
X0311440Y0098992D02*
X0315325Y0098992D01*
X0314970Y0098393D02*
X0311796Y0098393D01*
X0311796Y0097795D02*
X0314970Y0097795D01*
X0314970Y0097196D02*
X0311796Y0097196D01*
X0311704Y0096598D02*
X0315061Y0096598D01*
X0315660Y0095999D02*
X0311105Y0095999D01*
X0310507Y0095401D02*
X0316259Y0095401D01*
X0316346Y0092139D02*
X0314970Y0090762D01*
X0314970Y0088816D01*
X0316346Y0087439D01*
X0318293Y0087439D01*
X0319670Y0088816D01*
X0319670Y0090762D01*
X0318293Y0092139D01*
X0316346Y0092139D01*
X0316017Y0091810D02*
X0310748Y0091810D01*
X0310419Y0092139D02*
X0308472Y0092139D01*
X0307096Y0090762D01*
X0307096Y0088816D01*
X0308472Y0087439D01*
X0310419Y0087439D01*
X0311796Y0088816D01*
X0311796Y0090762D01*
X0310419Y0092139D01*
X0311347Y0091211D02*
X0315418Y0091211D01*
X0314970Y0090613D02*
X0311796Y0090613D01*
X0311796Y0090014D02*
X0314970Y0090014D01*
X0314970Y0089416D02*
X0311796Y0089416D01*
X0311796Y0088817D02*
X0314970Y0088817D01*
X0315567Y0088219D02*
X0311198Y0088219D01*
X0310600Y0087620D02*
X0316165Y0087620D01*
X0318474Y0087620D02*
X0324039Y0087620D01*
X0324220Y0087439D02*
X0326167Y0087439D01*
X0327544Y0088816D01*
X0327544Y0090762D01*
X0326167Y0092139D01*
X0324220Y0092139D01*
X0322844Y0090762D01*
X0322844Y0088816D01*
X0324220Y0087439D01*
X0323441Y0088219D02*
X0319072Y0088219D01*
X0319670Y0088817D02*
X0322844Y0088817D01*
X0322844Y0089416D02*
X0319670Y0089416D01*
X0319670Y0090014D02*
X0322844Y0090014D01*
X0322844Y0090613D02*
X0319670Y0090613D01*
X0319221Y0091211D02*
X0323292Y0091211D01*
X0323891Y0091810D02*
X0318622Y0091810D01*
X0326496Y0091810D02*
X0331765Y0091810D01*
X0332094Y0092139D02*
X0330718Y0090762D01*
X0330718Y0088816D01*
X0332094Y0087439D01*
X0334041Y0087439D01*
X0335418Y0088816D01*
X0335418Y0090762D01*
X0334041Y0092139D01*
X0332094Y0092139D01*
X0331166Y0091211D02*
X0327095Y0091211D01*
X0327544Y0090613D02*
X0330718Y0090613D01*
X0330718Y0090014D02*
X0327544Y0090014D01*
X0327544Y0089416D02*
X0330718Y0089416D01*
X0330718Y0088817D02*
X0327544Y0088817D01*
X0326946Y0088219D02*
X0331315Y0088219D01*
X0331913Y0087620D02*
X0326348Y0087620D01*
X0326167Y0084265D02*
X0324220Y0084265D01*
X0322844Y0082888D01*
X0322844Y0080942D01*
X0324220Y0079565D01*
X0326167Y0079565D01*
X0327544Y0080942D01*
X0327544Y0082888D01*
X0326167Y0084265D01*
X0326403Y0084029D02*
X0331858Y0084029D01*
X0332094Y0084265D02*
X0330718Y0082888D01*
X0330718Y0080942D01*
X0332094Y0079565D01*
X0334041Y0079565D01*
X0335418Y0080942D01*
X0335418Y0082888D01*
X0334041Y0084265D01*
X0332094Y0084265D01*
X0331260Y0083430D02*
X0327002Y0083430D01*
X0327544Y0082832D02*
X0330718Y0082832D01*
X0330718Y0082233D02*
X0327544Y0082233D01*
X0327544Y0081635D02*
X0330718Y0081635D01*
X0330718Y0081036D02*
X0327544Y0081036D01*
X0327040Y0080438D02*
X0331221Y0080438D01*
X0331820Y0079839D02*
X0326441Y0079839D01*
X0323946Y0079839D02*
X0318567Y0079839D01*
X0318293Y0079565D02*
X0319670Y0080942D01*
X0319670Y0082888D01*
X0318293Y0084265D01*
X0316346Y0084265D01*
X0314970Y0082888D01*
X0314970Y0080942D01*
X0316346Y0079565D01*
X0318293Y0079565D01*
X0319166Y0080438D02*
X0323347Y0080438D01*
X0322844Y0081036D02*
X0319670Y0081036D01*
X0319670Y0081635D02*
X0322844Y0081635D01*
X0322844Y0082233D02*
X0319670Y0082233D01*
X0319670Y0082832D02*
X0322844Y0082832D01*
X0323386Y0083430D02*
X0319128Y0083430D01*
X0318529Y0084029D02*
X0323984Y0084029D01*
X0316110Y0084029D02*
X0310655Y0084029D01*
X0310419Y0084265D02*
X0308472Y0084265D01*
X0307096Y0082888D01*
X0307096Y0080942D01*
X0308472Y0079565D01*
X0310419Y0079565D01*
X0311796Y0080942D01*
X0311796Y0082888D01*
X0310419Y0084265D01*
X0311253Y0083430D02*
X0315512Y0083430D01*
X0314970Y0082832D02*
X0311796Y0082832D01*
X0311796Y0082233D02*
X0314970Y0082233D01*
X0314970Y0081635D02*
X0311796Y0081635D01*
X0311796Y0081036D02*
X0314970Y0081036D01*
X0315473Y0080438D02*
X0311292Y0080438D01*
X0310693Y0079839D02*
X0316072Y0079839D01*
X0316346Y0076391D02*
X0314970Y0075014D01*
X0314970Y0073068D01*
X0316346Y0071691D01*
X0318293Y0071691D01*
X0319670Y0073068D01*
X0319670Y0075014D01*
X0318293Y0076391D01*
X0316346Y0076391D01*
X0316203Y0076248D02*
X0310562Y0076248D01*
X0311160Y0075650D02*
X0315605Y0075650D01*
X0315006Y0075051D02*
X0311759Y0075051D01*
X0311796Y0074453D02*
X0314970Y0074453D01*
X0314970Y0073854D02*
X0311796Y0073854D01*
X0311796Y0073256D02*
X0314970Y0073256D01*
X0315380Y0072657D02*
X0311385Y0072657D01*
X0310787Y0072059D02*
X0315978Y0072059D01*
X0316346Y0069517D02*
X0314970Y0068140D01*
X0314970Y0066194D01*
X0316346Y0064817D01*
X0318293Y0064817D01*
X0319670Y0066194D01*
X0319670Y0068140D01*
X0318293Y0069517D01*
X0316346Y0069517D01*
X0315895Y0069066D02*
X0310870Y0069066D01*
X0311468Y0068468D02*
X0315297Y0068468D01*
X0314970Y0067869D02*
X0311796Y0067869D01*
X0311796Y0067271D02*
X0314970Y0067271D01*
X0314970Y0066672D02*
X0311796Y0066672D01*
X0311676Y0066074D02*
X0315090Y0066074D01*
X0315688Y0065475D02*
X0311077Y0065475D01*
X0310479Y0064877D02*
X0316287Y0064877D01*
X0318353Y0064877D02*
X0324161Y0064877D01*
X0323562Y0065475D02*
X0318951Y0065475D01*
X0319550Y0066074D02*
X0322964Y0066074D01*
X0322844Y0066672D02*
X0319670Y0066672D01*
X0319670Y0067271D02*
X0322844Y0067271D01*
X0322844Y0067869D02*
X0319670Y0067869D01*
X0319342Y0068468D02*
X0323171Y0068468D01*
X0323769Y0069066D02*
X0318744Y0069066D01*
X0318661Y0072059D02*
X0323852Y0072059D01*
X0324220Y0071691D02*
X0326167Y0071691D01*
X0327544Y0073068D01*
X0327544Y0075014D01*
X0326167Y0076391D01*
X0324220Y0076391D01*
X0322844Y0075014D01*
X0322844Y0073068D01*
X0324220Y0071691D01*
X0323254Y0072657D02*
X0319259Y0072657D01*
X0319670Y0073256D02*
X0322844Y0073256D01*
X0322844Y0073854D02*
X0319670Y0073854D01*
X0319670Y0074453D02*
X0322844Y0074453D01*
X0322880Y0075051D02*
X0319633Y0075051D01*
X0319034Y0075650D02*
X0323479Y0075650D01*
X0324077Y0076248D02*
X0318436Y0076248D01*
X0326310Y0076248D02*
X0331951Y0076248D01*
X0332094Y0076391D02*
X0330718Y0075014D01*
X0330718Y0073068D01*
X0332094Y0071691D01*
X0334041Y0071691D01*
X0335418Y0073068D01*
X0335418Y0075014D01*
X0334041Y0076391D01*
X0332094Y0076391D01*
X0331353Y0075650D02*
X0326908Y0075650D01*
X0327507Y0075051D02*
X0330754Y0075051D01*
X0330718Y0074453D02*
X0327544Y0074453D01*
X0327544Y0073854D02*
X0330718Y0073854D01*
X0330718Y0073256D02*
X0327544Y0073256D01*
X0327133Y0072657D02*
X0331128Y0072657D01*
X0331726Y0072059D02*
X0326535Y0072059D01*
X0334409Y0072059D02*
X0339600Y0072059D01*
X0339968Y0071691D02*
X0341915Y0071691D01*
X0343292Y0073068D01*
X0343292Y0075014D01*
X0341915Y0076391D01*
X0339968Y0076391D01*
X0338592Y0075014D01*
X0338592Y0073068D01*
X0339968Y0071691D01*
X0339002Y0072657D02*
X0335007Y0072657D01*
X0335418Y0073256D02*
X0338592Y0073256D01*
X0338592Y0073854D02*
X0335418Y0073854D01*
X0335418Y0074453D02*
X0338592Y0074453D01*
X0338628Y0075051D02*
X0335381Y0075051D01*
X0334782Y0075650D02*
X0339227Y0075650D01*
X0339826Y0076248D02*
X0334184Y0076248D01*
X0334315Y0079839D02*
X0339694Y0079839D01*
X0339968Y0079565D02*
X0341915Y0079565D01*
X0343292Y0080942D01*
X0343292Y0082888D01*
X0341915Y0084265D01*
X0339968Y0084265D01*
X0338592Y0082888D01*
X0338592Y0080942D01*
X0339968Y0079565D01*
X0339095Y0080438D02*
X0334914Y0080438D01*
X0335418Y0081036D02*
X0338592Y0081036D01*
X0338592Y0081635D02*
X0335418Y0081635D01*
X0335418Y0082233D02*
X0338592Y0082233D01*
X0338592Y0082832D02*
X0335418Y0082832D01*
X0334876Y0083430D02*
X0339134Y0083430D01*
X0339732Y0084029D02*
X0334277Y0084029D01*
X0334222Y0087620D02*
X0339787Y0087620D01*
X0339968Y0087439D02*
X0341915Y0087439D01*
X0343292Y0088816D01*
X0343292Y0090762D01*
X0341915Y0092139D01*
X0339968Y0092139D01*
X0338592Y0090762D01*
X0338592Y0088816D01*
X0339968Y0087439D01*
X0339189Y0088219D02*
X0334820Y0088219D01*
X0335418Y0088817D02*
X0338592Y0088817D01*
X0338592Y0089416D02*
X0335418Y0089416D01*
X0335418Y0090014D02*
X0338592Y0090014D01*
X0338592Y0090613D02*
X0335418Y0090613D01*
X0334969Y0091211D02*
X0339040Y0091211D01*
X0339639Y0091810D02*
X0334370Y0091810D01*
X0342244Y0091810D02*
X0347513Y0091810D01*
X0347842Y0092139D02*
X0346466Y0090762D01*
X0346466Y0088816D01*
X0347842Y0087439D01*
X0349789Y0087439D01*
X0351166Y0088816D01*
X0351166Y0090762D01*
X0349789Y0092139D01*
X0347842Y0092139D01*
X0346914Y0091211D02*
X0342843Y0091211D01*
X0343292Y0090613D02*
X0346466Y0090613D01*
X0346466Y0090014D02*
X0343292Y0090014D01*
X0343292Y0089416D02*
X0346466Y0089416D01*
X0346466Y0088817D02*
X0343292Y0088817D01*
X0342695Y0088219D02*
X0347063Y0088219D01*
X0347661Y0087620D02*
X0342096Y0087620D01*
X0342151Y0084029D02*
X0347606Y0084029D01*
X0347842Y0084265D02*
X0346466Y0082888D01*
X0346466Y0080942D01*
X0347842Y0079565D01*
X0349789Y0079565D01*
X0351166Y0080942D01*
X0351166Y0082888D01*
X0349789Y0084265D01*
X0347842Y0084265D01*
X0347008Y0083430D02*
X0342750Y0083430D01*
X0343292Y0082832D02*
X0346466Y0082832D01*
X0346466Y0082233D02*
X0343292Y0082233D01*
X0343292Y0081635D02*
X0346466Y0081635D01*
X0346466Y0081036D02*
X0343292Y0081036D01*
X0342788Y0080438D02*
X0346969Y0080438D01*
X0347568Y0079839D02*
X0342189Y0079839D01*
X0342058Y0076248D02*
X0347700Y0076248D01*
X0347842Y0076391D02*
X0346466Y0075014D01*
X0346466Y0073068D01*
X0347842Y0071691D01*
X0349789Y0071691D01*
X0351166Y0073068D01*
X0351166Y0075014D01*
X0349789Y0076391D01*
X0347842Y0076391D01*
X0347101Y0075650D02*
X0342656Y0075650D01*
X0343255Y0075051D02*
X0346502Y0075051D01*
X0346466Y0074453D02*
X0343292Y0074453D01*
X0343292Y0073854D02*
X0346466Y0073854D01*
X0346466Y0073256D02*
X0343292Y0073256D01*
X0342881Y0072657D02*
X0346876Y0072657D01*
X0347474Y0072059D02*
X0342283Y0072059D01*
X0341915Y0068517D02*
X0339968Y0068517D01*
X0338592Y0067140D01*
X0338592Y0065194D01*
X0339968Y0063817D01*
X0341915Y0063817D01*
X0343292Y0065194D01*
X0343292Y0067140D01*
X0341915Y0068517D01*
X0341964Y0068468D02*
X0347793Y0068468D01*
X0347842Y0068517D02*
X0346466Y0067140D01*
X0346466Y0065194D01*
X0347842Y0063817D01*
X0349789Y0063817D01*
X0351166Y0065194D01*
X0351166Y0067140D01*
X0349789Y0068517D01*
X0347842Y0068517D01*
X0347194Y0067869D02*
X0342563Y0067869D01*
X0343161Y0067271D02*
X0346596Y0067271D01*
X0346466Y0066672D02*
X0343292Y0066672D01*
X0343292Y0066074D02*
X0346466Y0066074D01*
X0346466Y0065475D02*
X0343292Y0065475D01*
X0342975Y0064877D02*
X0346783Y0064877D01*
X0347381Y0064278D02*
X0342376Y0064278D01*
X0339507Y0064278D02*
X0334502Y0064278D01*
X0335101Y0064877D02*
X0338909Y0064877D01*
X0338592Y0065475D02*
X0335418Y0065475D01*
X0335418Y0066074D02*
X0338592Y0066074D01*
X0338592Y0066672D02*
X0335418Y0066672D01*
X0335287Y0067271D02*
X0338722Y0067271D01*
X0339320Y0067869D02*
X0334689Y0067869D01*
X0334090Y0068468D02*
X0339919Y0068468D01*
X0349838Y0068468D02*
X0355667Y0068468D01*
X0355716Y0068517D02*
X0354340Y0067140D01*
X0354340Y0065194D01*
X0355716Y0063817D01*
X0357663Y0063817D01*
X0359040Y0065194D01*
X0359040Y0067140D01*
X0357663Y0068517D01*
X0355716Y0068517D01*
X0355068Y0067869D02*
X0350437Y0067869D01*
X0351035Y0067271D02*
X0354470Y0067271D01*
X0354340Y0066672D02*
X0351166Y0066672D01*
X0351166Y0066074D02*
X0354340Y0066074D01*
X0354340Y0065475D02*
X0351166Y0065475D01*
X0350849Y0064877D02*
X0354657Y0064877D01*
X0355255Y0064278D02*
X0350250Y0064278D01*
X0358124Y0064278D02*
X0363129Y0064278D01*
X0363590Y0063817D02*
X0365537Y0063817D01*
X0366914Y0065194D01*
X0366914Y0067140D01*
X0365537Y0068517D01*
X0363590Y0068517D01*
X0362214Y0067140D01*
X0362214Y0065194D01*
X0363590Y0063817D01*
X0362531Y0064877D02*
X0358723Y0064877D01*
X0359040Y0065475D02*
X0362214Y0065475D01*
X0362214Y0066074D02*
X0359040Y0066074D01*
X0359040Y0066672D02*
X0362214Y0066672D01*
X0362344Y0067271D02*
X0358909Y0067271D01*
X0358311Y0067869D02*
X0362942Y0067869D01*
X0363541Y0068468D02*
X0357712Y0068468D01*
X0357663Y0071691D02*
X0359040Y0073068D01*
X0359040Y0075014D01*
X0357663Y0076391D01*
X0355716Y0076391D01*
X0354340Y0075014D01*
X0354340Y0073068D01*
X0355716Y0071691D01*
X0357663Y0071691D01*
X0358031Y0072059D02*
X0363223Y0072059D01*
X0363590Y0071691D02*
X0365537Y0071691D01*
X0366914Y0073068D01*
X0366914Y0075014D01*
X0365537Y0076391D01*
X0363590Y0076391D01*
X0362214Y0075014D01*
X0362214Y0073068D01*
X0363590Y0071691D01*
X0362624Y0072657D02*
X0358629Y0072657D01*
X0359040Y0073256D02*
X0362214Y0073256D01*
X0362214Y0073854D02*
X0359040Y0073854D01*
X0359040Y0074453D02*
X0362214Y0074453D01*
X0362251Y0075051D02*
X0359003Y0075051D01*
X0358404Y0075650D02*
X0362849Y0075650D01*
X0363448Y0076248D02*
X0357806Y0076248D01*
X0355574Y0076248D02*
X0349932Y0076248D01*
X0350530Y0075650D02*
X0354975Y0075650D01*
X0354377Y0075051D02*
X0351129Y0075051D01*
X0351166Y0074453D02*
X0354340Y0074453D01*
X0354340Y0073854D02*
X0351166Y0073854D01*
X0351166Y0073256D02*
X0354340Y0073256D01*
X0354750Y0072657D02*
X0350755Y0072657D01*
X0350157Y0072059D02*
X0355348Y0072059D01*
X0365905Y0072059D02*
X0371097Y0072059D01*
X0371464Y0071691D02*
X0373411Y0071691D01*
X0374788Y0073068D01*
X0374788Y0075014D01*
X0373411Y0076391D01*
X0371464Y0076391D01*
X0370088Y0075014D01*
X0370088Y0073068D01*
X0371464Y0071691D01*
X0370498Y0072657D02*
X0366503Y0072657D01*
X0366914Y0073256D02*
X0370088Y0073256D01*
X0370088Y0073854D02*
X0366914Y0073854D01*
X0366914Y0074453D02*
X0370088Y0074453D01*
X0370125Y0075051D02*
X0366877Y0075051D01*
X0366278Y0075650D02*
X0370723Y0075650D01*
X0371322Y0076248D02*
X0365680Y0076248D01*
X0365537Y0079565D02*
X0363590Y0079565D01*
X0362214Y0080942D01*
X0362214Y0082888D01*
X0363590Y0084265D01*
X0365537Y0084265D01*
X0366914Y0082888D01*
X0366914Y0080942D01*
X0365537Y0079565D01*
X0365811Y0079839D02*
X0371190Y0079839D01*
X0371464Y0079565D02*
X0373411Y0079565D01*
X0374788Y0080942D01*
X0374788Y0082888D01*
X0373411Y0084265D01*
X0371464Y0084265D01*
X0370088Y0082888D01*
X0370088Y0080942D01*
X0371464Y0079565D01*
X0370591Y0080438D02*
X0366410Y0080438D01*
X0366914Y0081036D02*
X0370088Y0081036D01*
X0370088Y0081635D02*
X0366914Y0081635D01*
X0366914Y0082233D02*
X0370088Y0082233D01*
X0370088Y0082832D02*
X0366914Y0082832D01*
X0366372Y0083430D02*
X0370630Y0083430D01*
X0371228Y0084029D02*
X0365773Y0084029D01*
X0363354Y0084029D02*
X0357899Y0084029D01*
X0357663Y0084265D02*
X0355716Y0084265D01*
X0354340Y0082888D01*
X0354340Y0080942D01*
X0355716Y0079565D01*
X0357663Y0079565D01*
X0359040Y0080942D01*
X0359040Y0082888D01*
X0357663Y0084265D01*
X0358498Y0083430D02*
X0362756Y0083430D01*
X0362214Y0082832D02*
X0359040Y0082832D01*
X0359040Y0082233D02*
X0362214Y0082233D01*
X0362214Y0081635D02*
X0359040Y0081635D01*
X0359040Y0081036D02*
X0362214Y0081036D01*
X0362717Y0080438D02*
X0358536Y0080438D01*
X0357937Y0079839D02*
X0363316Y0079839D01*
X0355442Y0079839D02*
X0350063Y0079839D01*
X0350662Y0080438D02*
X0354843Y0080438D01*
X0354340Y0081036D02*
X0351166Y0081036D01*
X0351166Y0081635D02*
X0354340Y0081635D01*
X0354340Y0082233D02*
X0351166Y0082233D01*
X0351166Y0082832D02*
X0354340Y0082832D01*
X0354882Y0083430D02*
X0350624Y0083430D01*
X0350025Y0084029D02*
X0355480Y0084029D01*
X0355716Y0087439D02*
X0357663Y0087439D01*
X0359040Y0088816D01*
X0359040Y0090762D01*
X0357663Y0092139D01*
X0355716Y0092139D01*
X0354340Y0090762D01*
X0354340Y0088816D01*
X0355716Y0087439D01*
X0355535Y0087620D02*
X0349970Y0087620D01*
X0350569Y0088219D02*
X0354937Y0088219D01*
X0354340Y0088817D02*
X0351166Y0088817D01*
X0351166Y0089416D02*
X0354340Y0089416D01*
X0354340Y0090014D02*
X0351166Y0090014D01*
X0351166Y0090613D02*
X0354340Y0090613D01*
X0354788Y0091211D02*
X0350717Y0091211D01*
X0350118Y0091810D02*
X0355387Y0091810D01*
X0357992Y0091810D02*
X0363261Y0091810D01*
X0363590Y0092139D02*
X0362214Y0090762D01*
X0362214Y0088816D01*
X0363590Y0087439D01*
X0365537Y0087439D01*
X0366914Y0088816D01*
X0366914Y0090762D01*
X0365537Y0092139D01*
X0363590Y0092139D01*
X0362662Y0091211D02*
X0358591Y0091211D01*
X0359040Y0090613D02*
X0362214Y0090613D01*
X0362214Y0090014D02*
X0359040Y0090014D01*
X0359040Y0089416D02*
X0362214Y0089416D01*
X0362214Y0088817D02*
X0359040Y0088817D01*
X0358443Y0088219D02*
X0362811Y0088219D01*
X0363409Y0087620D02*
X0357844Y0087620D01*
X0365718Y0087620D02*
X0371283Y0087620D01*
X0371464Y0087439D02*
X0373411Y0087439D01*
X0374788Y0088816D01*
X0374788Y0090762D01*
X0373411Y0092139D01*
X0371464Y0092139D01*
X0370088Y0090762D01*
X0370088Y0088816D01*
X0371464Y0087439D01*
X0370685Y0088219D02*
X0366317Y0088219D01*
X0366914Y0088817D02*
X0370088Y0088817D01*
X0370088Y0089416D02*
X0366914Y0089416D01*
X0366914Y0090014D02*
X0370088Y0090014D01*
X0370088Y0090613D02*
X0366914Y0090613D01*
X0366465Y0091211D02*
X0370536Y0091211D01*
X0371135Y0091810D02*
X0365866Y0091810D01*
X0365537Y0095313D02*
X0363590Y0095313D01*
X0362214Y0096690D01*
X0362214Y0098636D01*
X0363590Y0100013D01*
X0365537Y0100013D01*
X0366914Y0098636D01*
X0366914Y0096690D01*
X0365537Y0095313D01*
X0365625Y0095401D02*
X0371377Y0095401D01*
X0371464Y0095313D02*
X0373411Y0095313D01*
X0374788Y0096690D01*
X0374788Y0098636D01*
X0373411Y0100013D01*
X0371464Y0100013D01*
X0370088Y0098636D01*
X0370088Y0096690D01*
X0371464Y0095313D01*
X0370778Y0095999D02*
X0366223Y0095999D01*
X0366822Y0096598D02*
X0370180Y0096598D01*
X0370088Y0097196D02*
X0366914Y0097196D01*
X0366914Y0097795D02*
X0370088Y0097795D01*
X0370088Y0098393D02*
X0366914Y0098393D01*
X0366558Y0098992D02*
X0370443Y0098992D01*
X0371041Y0099590D02*
X0365960Y0099590D01*
X0363167Y0099590D02*
X0358086Y0099590D01*
X0358684Y0098992D02*
X0362569Y0098992D01*
X0362214Y0098393D02*
X0359040Y0098393D01*
X0359040Y0097795D02*
X0362214Y0097795D01*
X0362214Y0097196D02*
X0359040Y0097196D01*
X0358948Y0096598D02*
X0362306Y0096598D01*
X0362904Y0095999D02*
X0358349Y0095999D01*
X0357751Y0095401D02*
X0363503Y0095401D01*
X0373499Y0095401D02*
X0379251Y0095401D01*
X0379338Y0095313D02*
X0381285Y0095313D01*
X0382662Y0096690D01*
X0382662Y0098636D01*
X0381285Y0100013D01*
X0379338Y0100013D01*
X0377962Y0098636D01*
X0377962Y0096690D01*
X0379338Y0095313D01*
X0378652Y0095999D02*
X0374097Y0095999D01*
X0374696Y0096598D02*
X0378054Y0096598D01*
X0377962Y0097196D02*
X0374788Y0097196D01*
X0374788Y0097795D02*
X0377962Y0097795D01*
X0377962Y0098393D02*
X0374788Y0098393D01*
X0374432Y0098992D02*
X0378317Y0098992D01*
X0378915Y0099590D02*
X0373834Y0099590D01*
X0381708Y0099590D02*
X0410412Y0099590D01*
X0410834Y0100013D02*
X0409458Y0098636D01*
X0409458Y0096690D01*
X0410834Y0095313D01*
X0412781Y0095313D01*
X0414158Y0096690D01*
X0414158Y0098636D01*
X0412781Y0100013D01*
X0410834Y0100013D01*
X0409813Y0098992D02*
X0382306Y0098992D01*
X0382662Y0098393D02*
X0409458Y0098393D01*
X0409458Y0097795D02*
X0382662Y0097795D01*
X0382662Y0097196D02*
X0409458Y0097196D01*
X0409550Y0096598D02*
X0382570Y0096598D01*
X0381971Y0095999D02*
X0410148Y0095999D01*
X0410747Y0095401D02*
X0381373Y0095401D01*
X0381285Y0092139D02*
X0379338Y0092139D01*
X0377962Y0090762D01*
X0377962Y0088816D01*
X0379338Y0087439D01*
X0381285Y0087439D01*
X0382662Y0088816D01*
X0382662Y0090762D01*
X0381285Y0092139D01*
X0381614Y0091810D02*
X0386883Y0091810D01*
X0387212Y0092139D02*
X0385836Y0090762D01*
X0385836Y0088816D01*
X0387212Y0087439D01*
X0389159Y0087439D01*
X0390536Y0088816D01*
X0390536Y0090762D01*
X0389159Y0092139D01*
X0387212Y0092139D01*
X0386284Y0091211D02*
X0382213Y0091211D01*
X0382662Y0090613D02*
X0385836Y0090613D01*
X0385836Y0090014D02*
X0382662Y0090014D01*
X0382662Y0089416D02*
X0385836Y0089416D01*
X0385836Y0088817D02*
X0382662Y0088817D01*
X0382065Y0088219D02*
X0386433Y0088219D01*
X0387031Y0087620D02*
X0381466Y0087620D01*
X0379157Y0087620D02*
X0373592Y0087620D01*
X0374191Y0088219D02*
X0378559Y0088219D01*
X0377962Y0088817D02*
X0374788Y0088817D01*
X0374788Y0089416D02*
X0377962Y0089416D01*
X0377962Y0090014D02*
X0374788Y0090014D01*
X0374788Y0090613D02*
X0377962Y0090613D01*
X0378410Y0091211D02*
X0374339Y0091211D01*
X0373740Y0091810D02*
X0379009Y0091810D01*
X0389489Y0091810D02*
X0394757Y0091810D01*
X0395086Y0092139D02*
X0393710Y0090762D01*
X0393710Y0088816D01*
X0395086Y0087439D01*
X0397033Y0087439D01*
X0398410Y0088816D01*
X0398410Y0090762D01*
X0397033Y0092139D01*
X0395086Y0092139D01*
X0394158Y0091211D02*
X0390087Y0091211D01*
X0390536Y0090613D02*
X0393710Y0090613D01*
X0393710Y0090014D02*
X0390536Y0090014D01*
X0390536Y0089416D02*
X0393710Y0089416D01*
X0393710Y0088817D02*
X0390536Y0088817D01*
X0389939Y0088219D02*
X0394307Y0088219D01*
X0394905Y0087620D02*
X0389340Y0087620D01*
X0389159Y0084265D02*
X0387212Y0084265D01*
X0385836Y0082888D01*
X0385836Y0080942D01*
X0387212Y0079565D01*
X0389159Y0079565D01*
X0390536Y0080942D01*
X0390536Y0082888D01*
X0389159Y0084265D01*
X0389395Y0084029D02*
X0394850Y0084029D01*
X0395086Y0084265D02*
X0393710Y0082888D01*
X0393710Y0080942D01*
X0395086Y0079565D01*
X0397033Y0079565D01*
X0398410Y0080942D01*
X0398410Y0082888D01*
X0397033Y0084265D01*
X0395086Y0084265D01*
X0394252Y0083430D02*
X0389994Y0083430D01*
X0390536Y0082832D02*
X0393710Y0082832D01*
X0393710Y0082233D02*
X0390536Y0082233D01*
X0390536Y0081635D02*
X0393710Y0081635D01*
X0393710Y0081036D02*
X0390536Y0081036D01*
X0390032Y0080438D02*
X0394213Y0080438D01*
X0394812Y0079839D02*
X0389433Y0079839D01*
X0386938Y0079839D02*
X0381559Y0079839D01*
X0381285Y0079565D02*
X0382662Y0080942D01*
X0382662Y0082888D01*
X0381285Y0084265D01*
X0379338Y0084265D01*
X0377962Y0082888D01*
X0377962Y0080942D01*
X0379338Y0079565D01*
X0381285Y0079565D01*
X0382158Y0080438D02*
X0386339Y0080438D01*
X0385836Y0081036D02*
X0382662Y0081036D01*
X0382662Y0081635D02*
X0385836Y0081635D01*
X0385836Y0082233D02*
X0382662Y0082233D01*
X0382662Y0082832D02*
X0385836Y0082832D01*
X0386378Y0083430D02*
X0382120Y0083430D01*
X0381521Y0084029D02*
X0386976Y0084029D01*
X0379102Y0084029D02*
X0373647Y0084029D01*
X0374246Y0083430D02*
X0378504Y0083430D01*
X0377962Y0082832D02*
X0374788Y0082832D01*
X0374788Y0082233D02*
X0377962Y0082233D01*
X0377962Y0081635D02*
X0374788Y0081635D01*
X0374788Y0081036D02*
X0377962Y0081036D01*
X0378465Y0080438D02*
X0374284Y0080438D01*
X0373685Y0079839D02*
X0379064Y0079839D01*
X0379338Y0076391D02*
X0377962Y0075014D01*
X0377962Y0073068D01*
X0379338Y0071691D01*
X0381285Y0071691D01*
X0382662Y0073068D01*
X0382662Y0075014D01*
X0381285Y0076391D01*
X0379338Y0076391D01*
X0379196Y0076248D02*
X0373554Y0076248D01*
X0374152Y0075650D02*
X0378597Y0075650D01*
X0377999Y0075051D02*
X0374751Y0075051D01*
X0374788Y0074453D02*
X0377962Y0074453D01*
X0377962Y0073854D02*
X0374788Y0073854D01*
X0374788Y0073256D02*
X0377962Y0073256D01*
X0378372Y0072657D02*
X0374377Y0072657D01*
X0373779Y0072059D02*
X0378971Y0072059D01*
X0381653Y0072059D02*
X0386845Y0072059D01*
X0387212Y0071691D02*
X0389159Y0071691D01*
X0390536Y0073068D01*
X0390536Y0075014D01*
X0389159Y0076391D01*
X0387212Y0076391D01*
X0385836Y0075014D01*
X0385836Y0073068D01*
X0387212Y0071691D01*
X0386246Y0072657D02*
X0382251Y0072657D01*
X0382662Y0073256D02*
X0385836Y0073256D01*
X0385836Y0073854D02*
X0382662Y0073854D01*
X0382662Y0074453D02*
X0385836Y0074453D01*
X0385873Y0075051D02*
X0382625Y0075051D01*
X0382026Y0075650D02*
X0386471Y0075650D01*
X0387070Y0076248D02*
X0381428Y0076248D01*
X0389302Y0076248D02*
X0394944Y0076248D01*
X0395086Y0076391D02*
X0393710Y0075014D01*
X0393710Y0073068D01*
X0395086Y0071691D01*
X0397033Y0071691D01*
X0398410Y0073068D01*
X0398410Y0075014D01*
X0397033Y0076391D01*
X0395086Y0076391D01*
X0394345Y0075650D02*
X0389900Y0075650D01*
X0390499Y0075051D02*
X0393747Y0075051D01*
X0393710Y0074453D02*
X0390536Y0074453D01*
X0390536Y0073854D02*
X0393710Y0073854D01*
X0393710Y0073256D02*
X0390536Y0073256D01*
X0390125Y0072657D02*
X0394120Y0072657D01*
X0394719Y0072059D02*
X0389527Y0072059D01*
X0389159Y0068517D02*
X0387212Y0068517D01*
X0385836Y0067140D01*
X0385836Y0065194D01*
X0387212Y0063817D01*
X0389159Y0063817D01*
X0390536Y0065194D01*
X0390536Y0067140D01*
X0389159Y0068517D01*
X0389208Y0068468D02*
X0395037Y0068468D01*
X0395086Y0068517D02*
X0393710Y0067140D01*
X0393710Y0065194D01*
X0395086Y0063817D01*
X0397033Y0063817D01*
X0398410Y0065194D01*
X0398410Y0067140D01*
X0397033Y0068517D01*
X0395086Y0068517D01*
X0394438Y0067869D02*
X0389807Y0067869D01*
X0390405Y0067271D02*
X0393840Y0067271D01*
X0393710Y0066672D02*
X0390536Y0066672D01*
X0390536Y0066074D02*
X0393710Y0066074D01*
X0393710Y0065475D02*
X0390536Y0065475D01*
X0390219Y0064877D02*
X0394027Y0064877D01*
X0394625Y0064278D02*
X0389620Y0064278D01*
X0386751Y0064278D02*
X0381746Y0064278D01*
X0381285Y0063817D02*
X0382662Y0065194D01*
X0382662Y0067140D01*
X0381285Y0068517D01*
X0379338Y0068517D01*
X0377962Y0067140D01*
X0377962Y0065194D01*
X0379338Y0063817D01*
X0381285Y0063817D01*
X0382345Y0064877D02*
X0386153Y0064877D01*
X0385836Y0065475D02*
X0382662Y0065475D01*
X0382662Y0066074D02*
X0385836Y0066074D01*
X0385836Y0066672D02*
X0382662Y0066672D01*
X0382531Y0067271D02*
X0385966Y0067271D01*
X0386564Y0067869D02*
X0381933Y0067869D01*
X0381334Y0068468D02*
X0387163Y0068468D01*
X0379289Y0068468D02*
X0373460Y0068468D01*
X0373411Y0068517D02*
X0371464Y0068517D01*
X0370088Y0067140D01*
X0370088Y0065194D01*
X0371464Y0063817D01*
X0373411Y0063817D01*
X0374788Y0065194D01*
X0374788Y0067140D01*
X0373411Y0068517D01*
X0374059Y0067869D02*
X0378690Y0067869D01*
X0378092Y0067271D02*
X0374657Y0067271D01*
X0374788Y0066672D02*
X0377962Y0066672D01*
X0377962Y0066074D02*
X0374788Y0066074D01*
X0374788Y0065475D02*
X0377962Y0065475D01*
X0378279Y0064877D02*
X0374471Y0064877D01*
X0373872Y0064278D02*
X0378877Y0064278D01*
X0371003Y0064278D02*
X0365998Y0064278D01*
X0366597Y0064877D02*
X0370405Y0064877D01*
X0370088Y0065475D02*
X0366914Y0065475D01*
X0366914Y0066074D02*
X0370088Y0066074D01*
X0370088Y0066672D02*
X0366914Y0066672D01*
X0366783Y0067271D02*
X0370218Y0067271D01*
X0370816Y0067869D02*
X0366185Y0067869D01*
X0365586Y0068468D02*
X0371415Y0068468D01*
X0397082Y0068468D02*
X0402911Y0068468D01*
X0402312Y0067869D02*
X0397681Y0067869D01*
X0398279Y0067271D02*
X0401714Y0067271D01*
X0401584Y0066672D02*
X0398410Y0066672D01*
X0398410Y0066074D02*
X0401584Y0066074D01*
X0401584Y0065475D02*
X0398410Y0065475D01*
X0398093Y0064877D02*
X0401901Y0064877D01*
X0402499Y0064278D02*
X0397494Y0064278D01*
X0397401Y0072059D02*
X0402593Y0072059D01*
X0402960Y0071691D02*
X0404907Y0071691D01*
X0406284Y0073068D01*
X0406284Y0075014D01*
X0404907Y0076391D01*
X0402960Y0076391D01*
X0401584Y0075014D01*
X0401584Y0073068D01*
X0402960Y0071691D01*
X0401994Y0072657D02*
X0397999Y0072657D01*
X0398410Y0073256D02*
X0401584Y0073256D01*
X0401584Y0073854D02*
X0398410Y0073854D01*
X0398410Y0074453D02*
X0401584Y0074453D01*
X0401621Y0075051D02*
X0398373Y0075051D01*
X0397774Y0075650D02*
X0402219Y0075650D01*
X0402818Y0076248D02*
X0397176Y0076248D01*
X0397307Y0079839D02*
X0402686Y0079839D01*
X0402087Y0080438D02*
X0397906Y0080438D01*
X0398410Y0081036D02*
X0401584Y0081036D01*
X0401584Y0081635D02*
X0398410Y0081635D01*
X0398410Y0082233D02*
X0401584Y0082233D01*
X0401584Y0082832D02*
X0398410Y0082832D01*
X0397868Y0083430D02*
X0402126Y0083430D01*
X0402724Y0084029D02*
X0397269Y0084029D01*
X0397214Y0087620D02*
X0402779Y0087620D01*
X0402960Y0087439D02*
X0404907Y0087439D01*
X0406284Y0088816D01*
X0406284Y0090762D01*
X0404907Y0092139D01*
X0402960Y0092139D01*
X0401584Y0090762D01*
X0401584Y0088816D01*
X0402960Y0087439D01*
X0402181Y0088219D02*
X0397813Y0088219D01*
X0398410Y0088817D02*
X0401584Y0088817D01*
X0401584Y0089416D02*
X0398410Y0089416D01*
X0398410Y0090014D02*
X0401584Y0090014D01*
X0401584Y0090613D02*
X0398410Y0090613D01*
X0397961Y0091211D02*
X0402032Y0091211D01*
X0402631Y0091810D02*
X0397363Y0091810D01*
X0405237Y0091810D02*
X0410505Y0091810D01*
X0409906Y0091211D02*
X0405835Y0091211D01*
X0406284Y0090613D02*
X0409458Y0090613D01*
X0409458Y0090014D02*
X0406284Y0090014D01*
X0406284Y0089416D02*
X0409458Y0089416D01*
X0409458Y0088817D02*
X0406284Y0088817D01*
X0405687Y0088219D02*
X0410055Y0088219D01*
X0410653Y0087620D02*
X0405088Y0087620D01*
X0405143Y0084029D02*
X0434530Y0084029D01*
X0434530Y0083430D02*
X0405742Y0083430D01*
X0405050Y0076248D02*
X0410639Y0076248D01*
X0410483Y0075650D02*
X0405648Y0075650D01*
X0406247Y0075051D02*
X0410483Y0075051D01*
X0410483Y0074453D02*
X0406284Y0074453D01*
X0406284Y0073854D02*
X0410483Y0073854D01*
X0410483Y0073256D02*
X0406284Y0073256D01*
X0405873Y0072657D02*
X0410483Y0072657D01*
X0410546Y0072059D02*
X0405275Y0072059D01*
X0412869Y0095401D02*
X0418621Y0095401D01*
X0418708Y0095313D02*
X0420655Y0095313D01*
X0422032Y0096690D01*
X0422032Y0098636D01*
X0420655Y0100013D01*
X0418708Y0100013D01*
X0417332Y0098636D01*
X0417332Y0096690D01*
X0418708Y0095313D01*
X0418022Y0095999D02*
X0413467Y0095999D01*
X0414066Y0096598D02*
X0417424Y0096598D01*
X0417332Y0097196D02*
X0414158Y0097196D01*
X0414158Y0097795D02*
X0417332Y0097795D01*
X0417332Y0098393D02*
X0414158Y0098393D01*
X0413802Y0098992D02*
X0417687Y0098992D01*
X0418286Y0099590D02*
X0413204Y0099590D01*
X0421078Y0099590D02*
X0426160Y0099590D01*
X0426582Y0100013D02*
X0425206Y0098636D01*
X0425206Y0096690D01*
X0426582Y0095313D01*
X0428529Y0095313D01*
X0429906Y0096690D01*
X0429906Y0098636D01*
X0428529Y0100013D01*
X0426582Y0100013D01*
X0425561Y0098992D02*
X0421676Y0098992D01*
X0422032Y0098393D02*
X0425206Y0098393D01*
X0425206Y0097795D02*
X0422032Y0097795D01*
X0422032Y0097196D02*
X0425206Y0097196D01*
X0425298Y0096598D02*
X0421940Y0096598D01*
X0421341Y0095999D02*
X0425896Y0095999D01*
X0426495Y0095401D02*
X0420743Y0095401D01*
X0428617Y0095401D02*
X0434530Y0095401D01*
X0434530Y0095999D02*
X0429215Y0095999D01*
X0429814Y0096598D02*
X0434530Y0096598D01*
X0434530Y0097196D02*
X0429906Y0097196D01*
X0429906Y0097795D02*
X0434530Y0097795D01*
X0434530Y0098393D02*
X0429906Y0098393D01*
X0429550Y0098992D02*
X0434530Y0098992D01*
X0434530Y0099590D02*
X0428952Y0099590D01*
X0378839Y0111560D02*
X0373910Y0111560D01*
X0373411Y0111061D02*
X0374788Y0112438D01*
X0374788Y0114384D01*
X0373411Y0115761D01*
X0371464Y0115761D01*
X0370088Y0114384D01*
X0370088Y0112438D01*
X0371464Y0111061D01*
X0373411Y0111061D01*
X0374509Y0112159D02*
X0378240Y0112159D01*
X0377962Y0112758D02*
X0374788Y0112758D01*
X0374788Y0113356D02*
X0377962Y0113356D01*
X0377962Y0113955D02*
X0374788Y0113955D01*
X0374619Y0114553D02*
X0378130Y0114553D01*
X0378729Y0115152D02*
X0374021Y0115152D01*
X0373422Y0115750D02*
X0379327Y0115750D01*
X0378932Y0119341D02*
X0373817Y0119341D01*
X0373411Y0118935D02*
X0374788Y0120312D01*
X0374788Y0122259D01*
X0373411Y0123635D01*
X0371464Y0123635D01*
X0370088Y0122259D01*
X0370088Y0120312D01*
X0371464Y0118935D01*
X0373411Y0118935D01*
X0374416Y0119940D02*
X0378334Y0119940D01*
X0377962Y0120538D02*
X0374788Y0120538D01*
X0374788Y0121137D02*
X0377962Y0121137D01*
X0377962Y0121735D02*
X0374788Y0121735D01*
X0374712Y0122334D02*
X0378037Y0122334D01*
X0378635Y0122932D02*
X0374114Y0122932D01*
X0373515Y0123531D02*
X0379234Y0123531D01*
X0379026Y0127122D02*
X0373724Y0127122D01*
X0373411Y0126809D02*
X0374788Y0128186D01*
X0374788Y0130133D01*
X0373411Y0131509D01*
X0371464Y0131509D01*
X0370088Y0130133D01*
X0370088Y0128186D01*
X0371464Y0126809D01*
X0373411Y0126809D01*
X0374322Y0127720D02*
X0378427Y0127720D01*
X0377962Y0128319D02*
X0374788Y0128319D01*
X0374788Y0128917D02*
X0377962Y0128917D01*
X0377962Y0129516D02*
X0374788Y0129516D01*
X0374788Y0130114D02*
X0377962Y0130114D01*
X0378542Y0130713D02*
X0374207Y0130713D01*
X0373609Y0131311D02*
X0379141Y0131311D01*
X0379119Y0134902D02*
X0373630Y0134902D01*
X0373411Y0134683D02*
X0374788Y0136060D01*
X0374788Y0138007D01*
X0373411Y0139383D01*
X0371464Y0139383D01*
X0370088Y0138007D01*
X0370088Y0136060D01*
X0371464Y0134683D01*
X0373411Y0134683D01*
X0374229Y0135501D02*
X0378520Y0135501D01*
X0377962Y0136099D02*
X0374788Y0136099D01*
X0374788Y0136698D02*
X0377962Y0136698D01*
X0377962Y0137296D02*
X0374788Y0137296D01*
X0374788Y0137895D02*
X0377962Y0137895D01*
X0378449Y0138494D02*
X0374301Y0138494D01*
X0373702Y0139092D02*
X0379047Y0139092D01*
X0379212Y0142683D02*
X0373537Y0142683D01*
X0373411Y0142557D02*
X0374788Y0143934D01*
X0374788Y0145881D01*
X0373411Y0147257D01*
X0371464Y0147257D01*
X0370088Y0145881D01*
X0370088Y0143934D01*
X0371464Y0142557D01*
X0373411Y0142557D01*
X0374135Y0143282D02*
X0378614Y0143282D01*
X0378015Y0143880D02*
X0374734Y0143880D01*
X0374788Y0144479D02*
X0377962Y0144479D01*
X0377962Y0145077D02*
X0374788Y0145077D01*
X0374788Y0145676D02*
X0377962Y0145676D01*
X0378355Y0146274D02*
X0374394Y0146274D01*
X0373796Y0146873D02*
X0378954Y0146873D01*
X0379306Y0150464D02*
X0373444Y0150464D01*
X0373411Y0150431D02*
X0374788Y0151808D01*
X0374788Y0153755D01*
X0373411Y0155131D01*
X0371464Y0155131D01*
X0370088Y0153755D01*
X0370088Y0151808D01*
X0371464Y0150431D01*
X0373411Y0150431D01*
X0374042Y0151062D02*
X0378707Y0151062D01*
X0378109Y0151661D02*
X0374641Y0151661D01*
X0374788Y0152259D02*
X0377962Y0152259D01*
X0377962Y0152858D02*
X0374788Y0152858D01*
X0374788Y0153456D02*
X0377962Y0153456D01*
X0378262Y0154055D02*
X0374487Y0154055D01*
X0373889Y0154653D02*
X0378860Y0154653D01*
X0370986Y0154653D02*
X0366015Y0154653D01*
X0365537Y0155131D02*
X0366914Y0153755D01*
X0366914Y0151808D01*
X0365537Y0150431D01*
X0363590Y0150431D01*
X0362214Y0151808D01*
X0362214Y0153755D01*
X0363590Y0155131D01*
X0365537Y0155131D01*
X0366613Y0154055D02*
X0370388Y0154055D01*
X0370088Y0153456D02*
X0366914Y0153456D01*
X0366914Y0152858D02*
X0370088Y0152858D01*
X0370088Y0152259D02*
X0366914Y0152259D01*
X0366767Y0151661D02*
X0370235Y0151661D01*
X0370833Y0151062D02*
X0366168Y0151062D01*
X0365570Y0150464D02*
X0371432Y0150464D01*
X0366914Y0145881D02*
X0365537Y0147257D01*
X0363590Y0147257D01*
X0362214Y0145881D01*
X0362214Y0143934D01*
X0363590Y0142557D01*
X0365537Y0142557D01*
X0366914Y0143934D01*
X0366914Y0145881D01*
X0366914Y0145676D02*
X0370088Y0145676D01*
X0370088Y0145077D02*
X0366914Y0145077D01*
X0366914Y0144479D02*
X0370088Y0144479D01*
X0370141Y0143880D02*
X0366860Y0143880D01*
X0366261Y0143282D02*
X0370740Y0143282D01*
X0371338Y0142683D02*
X0365663Y0142683D01*
X0363464Y0142683D02*
X0357789Y0142683D01*
X0358387Y0143282D02*
X0362866Y0143282D01*
X0362267Y0143880D02*
X0358986Y0143880D01*
X0359040Y0144479D02*
X0362214Y0144479D01*
X0362214Y0145077D02*
X0359040Y0145077D01*
X0359040Y0145676D02*
X0362214Y0145676D01*
X0362607Y0146274D02*
X0358646Y0146274D01*
X0358048Y0146873D02*
X0363206Y0146873D01*
X0365922Y0146873D02*
X0371080Y0146873D01*
X0370481Y0146274D02*
X0366520Y0146274D01*
X0363558Y0150464D02*
X0357696Y0150464D01*
X0357663Y0150431D02*
X0359040Y0151808D01*
X0359040Y0153755D01*
X0357663Y0155131D01*
X0355716Y0155131D01*
X0354340Y0153755D01*
X0354340Y0151808D01*
X0355716Y0150431D01*
X0357663Y0150431D01*
X0358294Y0151062D02*
X0362959Y0151062D01*
X0362361Y0151661D02*
X0358893Y0151661D01*
X0359040Y0152259D02*
X0362214Y0152259D01*
X0362214Y0152858D02*
X0359040Y0152858D01*
X0359040Y0153456D02*
X0362214Y0153456D01*
X0362514Y0154055D02*
X0358739Y0154055D01*
X0358141Y0154653D02*
X0363112Y0154653D01*
X0355238Y0154653D02*
X0326645Y0154653D01*
X0326167Y0155131D02*
X0324220Y0155131D01*
X0322844Y0153755D01*
X0322844Y0151808D01*
X0324220Y0150431D01*
X0326167Y0150431D01*
X0327544Y0151808D01*
X0327544Y0153755D01*
X0326167Y0155131D01*
X0327243Y0154055D02*
X0354640Y0154055D01*
X0354340Y0153456D02*
X0327544Y0153456D01*
X0327544Y0152858D02*
X0354340Y0152858D01*
X0354340Y0152259D02*
X0327544Y0152259D01*
X0327397Y0151661D02*
X0354487Y0151661D01*
X0355085Y0151062D02*
X0326798Y0151062D01*
X0326200Y0150464D02*
X0355684Y0150464D01*
X0363590Y0139383D02*
X0362214Y0138007D01*
X0362214Y0136060D01*
X0363590Y0134683D01*
X0365537Y0134683D01*
X0366914Y0136060D01*
X0366914Y0138007D01*
X0365537Y0139383D01*
X0363590Y0139383D01*
X0363299Y0139092D02*
X0357954Y0139092D01*
X0358553Y0138494D02*
X0362701Y0138494D01*
X0362214Y0137895D02*
X0359040Y0137895D01*
X0359040Y0137296D02*
X0362214Y0137296D01*
X0362214Y0136698D02*
X0359040Y0136698D01*
X0359040Y0136099D02*
X0362214Y0136099D01*
X0362772Y0135501D02*
X0358481Y0135501D01*
X0357882Y0134902D02*
X0363371Y0134902D01*
X0365756Y0134902D02*
X0371245Y0134902D01*
X0370646Y0135501D02*
X0366355Y0135501D01*
X0366914Y0136099D02*
X0370088Y0136099D01*
X0370088Y0136698D02*
X0366914Y0136698D01*
X0366914Y0137296D02*
X0370088Y0137296D01*
X0370088Y0137895D02*
X0366914Y0137895D01*
X0366427Y0138494D02*
X0370575Y0138494D01*
X0371173Y0139092D02*
X0365828Y0139092D01*
X0365537Y0131509D02*
X0363590Y0131509D01*
X0362214Y0130133D01*
X0362214Y0128186D01*
X0363590Y0126809D01*
X0365537Y0126809D01*
X0366914Y0128186D01*
X0366914Y0130133D01*
X0365537Y0131509D01*
X0365735Y0131311D02*
X0371266Y0131311D01*
X0370668Y0130713D02*
X0366333Y0130713D01*
X0366914Y0130114D02*
X0370088Y0130114D01*
X0370088Y0129516D02*
X0366914Y0129516D01*
X0366914Y0128917D02*
X0370088Y0128917D01*
X0370088Y0128319D02*
X0366914Y0128319D01*
X0366448Y0127720D02*
X0370553Y0127720D01*
X0371152Y0127122D02*
X0365850Y0127122D01*
X0363278Y0127122D02*
X0357976Y0127122D01*
X0357663Y0126809D02*
X0359040Y0128186D01*
X0359040Y0130133D01*
X0357663Y0131509D01*
X0355716Y0131509D01*
X0354340Y0130133D01*
X0354340Y0128186D01*
X0355716Y0126809D01*
X0357663Y0126809D01*
X0358574Y0127720D02*
X0362679Y0127720D01*
X0362214Y0128319D02*
X0359040Y0128319D01*
X0359040Y0128917D02*
X0362214Y0128917D01*
X0362214Y0129516D02*
X0359040Y0129516D01*
X0359040Y0130114D02*
X0362214Y0130114D01*
X0362794Y0130713D02*
X0358459Y0130713D01*
X0357861Y0131311D02*
X0363392Y0131311D01*
X0355518Y0131311D02*
X0349987Y0131311D01*
X0350585Y0130713D02*
X0354920Y0130713D01*
X0354340Y0130114D02*
X0351166Y0130114D01*
X0351166Y0129516D02*
X0354340Y0129516D01*
X0354340Y0128917D02*
X0351166Y0128917D01*
X0351166Y0128319D02*
X0354340Y0128319D01*
X0354805Y0127720D02*
X0350700Y0127720D01*
X0350102Y0127122D02*
X0355404Y0127122D01*
X0357767Y0123531D02*
X0363486Y0123531D01*
X0363590Y0123635D02*
X0362214Y0122259D01*
X0362214Y0120312D01*
X0363590Y0118935D01*
X0365537Y0118935D01*
X0366914Y0120312D01*
X0366914Y0122259D01*
X0365537Y0123635D01*
X0363590Y0123635D01*
X0362887Y0122932D02*
X0358366Y0122932D01*
X0358964Y0122334D02*
X0362289Y0122334D01*
X0362214Y0121735D02*
X0359040Y0121735D01*
X0359040Y0121137D02*
X0362214Y0121137D01*
X0362214Y0120538D02*
X0359040Y0120538D01*
X0358668Y0119940D02*
X0362586Y0119940D01*
X0363184Y0119341D02*
X0358069Y0119341D01*
X0357674Y0115750D02*
X0363579Y0115750D01*
X0363590Y0115761D02*
X0362214Y0114384D01*
X0362214Y0112438D01*
X0363590Y0111061D01*
X0365537Y0111061D01*
X0366914Y0112438D01*
X0366914Y0114384D01*
X0365537Y0115761D01*
X0363590Y0115761D01*
X0362981Y0115152D02*
X0358273Y0115152D01*
X0358871Y0114553D02*
X0362382Y0114553D01*
X0362214Y0113955D02*
X0359040Y0113955D01*
X0359040Y0113356D02*
X0362214Y0113356D01*
X0362214Y0112758D02*
X0359040Y0112758D01*
X0358761Y0112159D02*
X0362492Y0112159D01*
X0363091Y0111560D02*
X0358162Y0111560D01*
X0366036Y0111560D02*
X0370965Y0111560D01*
X0370366Y0112159D02*
X0366635Y0112159D01*
X0366914Y0112758D02*
X0370088Y0112758D01*
X0370088Y0113356D02*
X0366914Y0113356D01*
X0366914Y0113955D02*
X0370088Y0113955D01*
X0370256Y0114553D02*
X0366745Y0114553D01*
X0366147Y0115152D02*
X0370855Y0115152D01*
X0371453Y0115750D02*
X0365548Y0115750D01*
X0365943Y0119341D02*
X0371058Y0119341D01*
X0370460Y0119940D02*
X0366542Y0119940D01*
X0366914Y0120538D02*
X0370088Y0120538D01*
X0370088Y0121137D02*
X0366914Y0121137D01*
X0366914Y0121735D02*
X0370088Y0121735D01*
X0370163Y0122334D02*
X0366838Y0122334D01*
X0366240Y0122932D02*
X0370761Y0122932D01*
X0371360Y0123531D02*
X0365641Y0123531D01*
X0324188Y0150464D02*
X0318326Y0150464D01*
X0318293Y0150431D02*
X0319670Y0151808D01*
X0319670Y0153755D01*
X0318293Y0155131D01*
X0316346Y0155131D01*
X0314970Y0153755D01*
X0314970Y0151808D01*
X0316346Y0150431D01*
X0318293Y0150431D01*
X0318924Y0151062D02*
X0323589Y0151062D01*
X0322991Y0151661D02*
X0319523Y0151661D01*
X0319670Y0152259D02*
X0322844Y0152259D01*
X0322844Y0152858D02*
X0319670Y0152858D01*
X0319670Y0153456D02*
X0322844Y0153456D01*
X0323144Y0154055D02*
X0319369Y0154055D01*
X0318771Y0154653D02*
X0323742Y0154653D01*
X0315868Y0154653D02*
X0310897Y0154653D01*
X0310419Y0155131D02*
X0311796Y0153755D01*
X0311796Y0151808D01*
X0310419Y0150431D01*
X0308472Y0150431D01*
X0307096Y0151808D01*
X0307096Y0153755D01*
X0308472Y0155131D01*
X0310419Y0155131D01*
X0311495Y0154055D02*
X0315270Y0154055D01*
X0314970Y0153456D02*
X0311796Y0153456D01*
X0311796Y0152858D02*
X0314970Y0152858D01*
X0314970Y0152259D02*
X0311796Y0152259D01*
X0311649Y0151661D02*
X0315117Y0151661D01*
X0315715Y0151062D02*
X0311050Y0151062D01*
X0310451Y0150464D02*
X0316314Y0150464D01*
X0308440Y0150464D02*
X0302577Y0150464D01*
X0303176Y0151062D02*
X0307841Y0151062D01*
X0307243Y0151661D02*
X0303774Y0151661D01*
X0303922Y0152259D02*
X0307096Y0152259D01*
X0307096Y0152858D02*
X0303922Y0152858D01*
X0303922Y0153456D02*
X0307096Y0153456D01*
X0307396Y0154055D02*
X0303621Y0154055D01*
X0303023Y0154653D02*
X0307994Y0154653D01*
X0300566Y0150464D02*
X0271240Y0150464D01*
X0270664Y0151062D02*
X0299967Y0151062D01*
X0299369Y0151661D02*
X0269979Y0151661D01*
X0265857Y0151661D02*
X0241562Y0151661D01*
X0242083Y0151062D02*
X0265172Y0151062D01*
X0264596Y0150464D02*
X0242331Y0150464D01*
X0240911Y0152259D02*
X0299222Y0152259D01*
X0302989Y0166624D02*
X0308028Y0166624D01*
X0308472Y0166179D02*
X0307096Y0167556D01*
X0307096Y0169503D01*
X0308472Y0170879D01*
X0310419Y0170879D01*
X0311796Y0169503D01*
X0311796Y0167556D01*
X0310419Y0166179D01*
X0308472Y0166179D01*
X0307429Y0167222D02*
X0303588Y0167222D01*
X0303922Y0167821D02*
X0307096Y0167821D01*
X0307096Y0168419D02*
X0303922Y0168419D01*
X0303922Y0169018D02*
X0307096Y0169018D01*
X0307209Y0169616D02*
X0303808Y0169616D01*
X0303210Y0170215D02*
X0307808Y0170215D01*
X0308406Y0170813D02*
X0302611Y0170813D01*
X0300532Y0170813D02*
X0236767Y0170813D01*
X0237014Y0170215D02*
X0299934Y0170215D01*
X0302896Y0174404D02*
X0308121Y0174404D01*
X0308472Y0174053D02*
X0307096Y0175430D01*
X0307096Y0177377D01*
X0308472Y0178753D01*
X0310419Y0178753D01*
X0311796Y0177377D01*
X0311796Y0175430D01*
X0310419Y0174053D01*
X0308472Y0174053D01*
X0307523Y0175003D02*
X0303494Y0175003D01*
X0303922Y0175601D02*
X0307096Y0175601D01*
X0307096Y0176200D02*
X0303922Y0176200D01*
X0303922Y0176798D02*
X0307096Y0176798D01*
X0307116Y0177397D02*
X0303901Y0177397D01*
X0303303Y0177995D02*
X0307714Y0177995D01*
X0308313Y0178594D02*
X0302704Y0178594D01*
X0302803Y0182185D02*
X0308215Y0182185D01*
X0308472Y0181927D02*
X0307096Y0183304D01*
X0307096Y0185251D01*
X0308472Y0186627D01*
X0310419Y0186627D01*
X0311796Y0185251D01*
X0311796Y0183304D01*
X0310419Y0181927D01*
X0308472Y0181927D01*
X0307616Y0182783D02*
X0303401Y0182783D01*
X0303922Y0183382D02*
X0307096Y0183382D01*
X0307096Y0183980D02*
X0303922Y0183980D01*
X0303922Y0184579D02*
X0307096Y0184579D01*
X0307096Y0185177D02*
X0303922Y0185177D01*
X0303396Y0185776D02*
X0307621Y0185776D01*
X0308219Y0186374D02*
X0302798Y0186374D01*
X0310672Y0186374D02*
X0316093Y0186374D01*
X0316346Y0186627D02*
X0314970Y0185251D01*
X0314970Y0183304D01*
X0316346Y0181927D01*
X0318293Y0181927D01*
X0319670Y0183304D01*
X0319670Y0185251D01*
X0318293Y0186627D01*
X0316346Y0186627D01*
X0315495Y0185776D02*
X0311270Y0185776D01*
X0311796Y0185177D02*
X0314970Y0185177D01*
X0314970Y0184579D02*
X0311796Y0184579D01*
X0311796Y0183980D02*
X0314970Y0183980D01*
X0314970Y0183382D02*
X0311796Y0183382D01*
X0311275Y0182783D02*
X0315490Y0182783D01*
X0316089Y0182185D02*
X0310677Y0182185D01*
X0310578Y0178594D02*
X0316187Y0178594D01*
X0316346Y0178753D02*
X0314970Y0177377D01*
X0314970Y0175430D01*
X0316346Y0174053D01*
X0318293Y0174053D01*
X0319670Y0175430D01*
X0319670Y0177377D01*
X0318293Y0178753D01*
X0316346Y0178753D01*
X0315588Y0177995D02*
X0311177Y0177995D01*
X0311775Y0177397D02*
X0314990Y0177397D01*
X0314970Y0176798D02*
X0311796Y0176798D01*
X0311796Y0176200D02*
X0314970Y0176200D01*
X0314970Y0175601D02*
X0311796Y0175601D01*
X0311368Y0175003D02*
X0315397Y0175003D01*
X0315995Y0174404D02*
X0310770Y0174404D01*
X0310485Y0170813D02*
X0316280Y0170813D01*
X0316346Y0170879D02*
X0314970Y0169503D01*
X0314970Y0167556D01*
X0316346Y0166179D01*
X0318293Y0166179D01*
X0319670Y0167556D01*
X0319670Y0169503D01*
X0318293Y0170879D01*
X0316346Y0170879D01*
X0315682Y0170215D02*
X0311084Y0170215D01*
X0311682Y0169616D02*
X0315083Y0169616D01*
X0314970Y0169018D02*
X0311796Y0169018D01*
X0311796Y0168419D02*
X0314970Y0168419D01*
X0314970Y0167821D02*
X0311796Y0167821D01*
X0311462Y0167222D02*
X0315303Y0167222D01*
X0315902Y0166624D02*
X0310863Y0166624D01*
X0318737Y0166624D02*
X0323776Y0166624D01*
X0324220Y0166179D02*
X0326167Y0166179D01*
X0327544Y0167556D01*
X0327544Y0169503D01*
X0326167Y0170879D01*
X0324220Y0170879D01*
X0322844Y0169503D01*
X0322844Y0167556D01*
X0324220Y0166179D01*
X0323177Y0167222D02*
X0319336Y0167222D01*
X0319670Y0167821D02*
X0322844Y0167821D01*
X0322844Y0168419D02*
X0319670Y0168419D01*
X0319670Y0169018D02*
X0322844Y0169018D01*
X0322957Y0169616D02*
X0319556Y0169616D01*
X0318958Y0170215D02*
X0323556Y0170215D01*
X0324154Y0170813D02*
X0318359Y0170813D01*
X0318644Y0174404D02*
X0323869Y0174404D01*
X0324220Y0174053D02*
X0326167Y0174053D01*
X0327544Y0175430D01*
X0327544Y0177377D01*
X0326167Y0178753D01*
X0324220Y0178753D01*
X0322844Y0177377D01*
X0322844Y0175430D01*
X0324220Y0174053D01*
X0323271Y0175003D02*
X0319242Y0175003D01*
X0319670Y0175601D02*
X0322844Y0175601D01*
X0322844Y0176200D02*
X0319670Y0176200D01*
X0319670Y0176798D02*
X0322844Y0176798D01*
X0322864Y0177397D02*
X0319649Y0177397D01*
X0319051Y0177995D02*
X0323462Y0177995D01*
X0324061Y0178594D02*
X0318452Y0178594D01*
X0318551Y0182185D02*
X0323963Y0182185D01*
X0324220Y0181927D02*
X0326167Y0181927D01*
X0327544Y0183304D01*
X0327544Y0185251D01*
X0326167Y0186627D01*
X0324220Y0186627D01*
X0322844Y0185251D01*
X0322844Y0183304D01*
X0324220Y0181927D01*
X0323364Y0182783D02*
X0319149Y0182783D01*
X0319670Y0183382D02*
X0322844Y0183382D01*
X0322844Y0183980D02*
X0319670Y0183980D01*
X0319670Y0184579D02*
X0322844Y0184579D01*
X0322844Y0185177D02*
X0319670Y0185177D01*
X0319144Y0185776D02*
X0323369Y0185776D01*
X0323967Y0186374D02*
X0318546Y0186374D01*
X0318293Y0189801D02*
X0316346Y0189801D01*
X0314970Y0191178D01*
X0314970Y0193125D01*
X0316346Y0194501D01*
X0318293Y0194501D01*
X0319670Y0193125D01*
X0319670Y0191178D01*
X0318293Y0189801D01*
X0318457Y0189965D02*
X0324056Y0189965D01*
X0324220Y0189801D02*
X0326167Y0189801D01*
X0327544Y0191178D01*
X0327544Y0193125D01*
X0326167Y0194501D01*
X0324220Y0194501D01*
X0322844Y0193125D01*
X0322844Y0191178D01*
X0324220Y0189801D01*
X0323457Y0190564D02*
X0319056Y0190564D01*
X0319654Y0191162D02*
X0322859Y0191162D01*
X0322844Y0191761D02*
X0319670Y0191761D01*
X0319670Y0192360D02*
X0322844Y0192360D01*
X0322844Y0192958D02*
X0319670Y0192958D01*
X0319238Y0193557D02*
X0323275Y0193557D01*
X0323874Y0194155D02*
X0318639Y0194155D01*
X0316000Y0194155D02*
X0310765Y0194155D01*
X0311364Y0193557D02*
X0315401Y0193557D01*
X0314970Y0192958D02*
X0311796Y0192958D01*
X0311796Y0192360D02*
X0314970Y0192360D01*
X0314970Y0191761D02*
X0311796Y0191761D01*
X0311780Y0191162D02*
X0314985Y0191162D01*
X0315583Y0190564D02*
X0311182Y0190564D01*
X0310583Y0189965D02*
X0316182Y0189965D01*
X0326331Y0189965D02*
X0331930Y0189965D01*
X0332094Y0189801D02*
X0334041Y0189801D01*
X0335418Y0191178D01*
X0335418Y0193125D01*
X0334041Y0194501D01*
X0332094Y0194501D01*
X0330718Y0193125D01*
X0330718Y0191178D01*
X0332094Y0189801D01*
X0331331Y0190564D02*
X0326930Y0190564D01*
X0327528Y0191162D02*
X0330733Y0191162D01*
X0330718Y0191761D02*
X0327544Y0191761D01*
X0327544Y0192360D02*
X0330718Y0192360D01*
X0330718Y0192958D02*
X0327544Y0192958D01*
X0327112Y0193557D02*
X0331149Y0193557D01*
X0331748Y0194155D02*
X0326513Y0194155D01*
X0334387Y0194155D02*
X0339622Y0194155D01*
X0339968Y0194501D02*
X0338592Y0193125D01*
X0338592Y0191178D01*
X0339968Y0189801D01*
X0341915Y0189801D01*
X0343292Y0191178D01*
X0343292Y0193125D01*
X0341915Y0194501D01*
X0339968Y0194501D01*
X0339023Y0193557D02*
X0334986Y0193557D01*
X0335418Y0192958D02*
X0338592Y0192958D01*
X0338592Y0192360D02*
X0335418Y0192360D01*
X0335418Y0191761D02*
X0338592Y0191761D01*
X0338607Y0191162D02*
X0335402Y0191162D01*
X0334804Y0190564D02*
X0339205Y0190564D01*
X0339804Y0189965D02*
X0334205Y0189965D01*
X0334041Y0186627D02*
X0332094Y0186627D01*
X0330718Y0185251D01*
X0330718Y0183304D01*
X0332094Y0181927D01*
X0334041Y0181927D01*
X0335418Y0183304D01*
X0335418Y0185251D01*
X0334041Y0186627D01*
X0334294Y0186374D02*
X0339715Y0186374D01*
X0339968Y0186627D02*
X0338592Y0185251D01*
X0338592Y0183304D01*
X0339968Y0181927D01*
X0341915Y0181927D01*
X0343292Y0183304D01*
X0343292Y0185251D01*
X0341915Y0186627D01*
X0339968Y0186627D01*
X0339117Y0185776D02*
X0334892Y0185776D01*
X0335418Y0185177D02*
X0338592Y0185177D01*
X0338592Y0184579D02*
X0335418Y0184579D01*
X0335418Y0183980D02*
X0338592Y0183980D01*
X0338592Y0183382D02*
X0335418Y0183382D01*
X0334897Y0182783D02*
X0339112Y0182783D01*
X0339711Y0182185D02*
X0334299Y0182185D01*
X0331837Y0182185D02*
X0326425Y0182185D01*
X0327023Y0182783D02*
X0331238Y0182783D01*
X0330718Y0183382D02*
X0327544Y0183382D01*
X0327544Y0183980D02*
X0330718Y0183980D01*
X0330718Y0184579D02*
X0327544Y0184579D01*
X0327544Y0185177D02*
X0330718Y0185177D01*
X0331243Y0185776D02*
X0327018Y0185776D01*
X0326420Y0186374D02*
X0331841Y0186374D01*
X0342168Y0186374D02*
X0347589Y0186374D01*
X0347842Y0186627D02*
X0346466Y0185251D01*
X0346466Y0183304D01*
X0347842Y0181927D01*
X0349789Y0181927D01*
X0351166Y0183304D01*
X0351166Y0185251D01*
X0349789Y0186627D01*
X0347842Y0186627D01*
X0346991Y0185776D02*
X0342766Y0185776D01*
X0343292Y0185177D02*
X0346466Y0185177D01*
X0346466Y0184579D02*
X0343292Y0184579D01*
X0343292Y0183980D02*
X0346466Y0183980D01*
X0346466Y0183382D02*
X0343292Y0183382D01*
X0342771Y0182783D02*
X0346986Y0182783D01*
X0347585Y0182185D02*
X0342173Y0182185D01*
X0341915Y0178753D02*
X0339968Y0178753D01*
X0338592Y0177377D01*
X0338592Y0175430D01*
X0339968Y0174053D01*
X0341915Y0174053D01*
X0343292Y0175430D01*
X0343292Y0177377D01*
X0341915Y0178753D01*
X0342074Y0178594D02*
X0347683Y0178594D01*
X0347842Y0178753D02*
X0346466Y0177377D01*
X0346466Y0175430D01*
X0347842Y0174053D01*
X0349789Y0174053D01*
X0351166Y0175430D01*
X0351166Y0177377D01*
X0349789Y0178753D01*
X0347842Y0178753D01*
X0347084Y0177995D02*
X0342673Y0177995D01*
X0343271Y0177397D02*
X0346486Y0177397D01*
X0346466Y0176798D02*
X0343292Y0176798D01*
X0343292Y0176200D02*
X0346466Y0176200D01*
X0346466Y0175601D02*
X0343292Y0175601D01*
X0342864Y0175003D02*
X0346893Y0175003D01*
X0347491Y0174404D02*
X0342266Y0174404D01*
X0339617Y0174404D02*
X0334392Y0174404D01*
X0334041Y0174053D02*
X0335418Y0175430D01*
X0335418Y0177377D01*
X0334041Y0178753D01*
X0332094Y0178753D01*
X0330718Y0177377D01*
X0330718Y0175430D01*
X0332094Y0174053D01*
X0334041Y0174053D01*
X0334990Y0175003D02*
X0339019Y0175003D01*
X0338592Y0175601D02*
X0335418Y0175601D01*
X0335418Y0176200D02*
X0338592Y0176200D01*
X0338592Y0176798D02*
X0335418Y0176798D01*
X0335397Y0177397D02*
X0338612Y0177397D01*
X0339210Y0177995D02*
X0334799Y0177995D01*
X0334200Y0178594D02*
X0339809Y0178594D01*
X0331935Y0178594D02*
X0326326Y0178594D01*
X0326925Y0177995D02*
X0331336Y0177995D01*
X0330738Y0177397D02*
X0327523Y0177397D01*
X0327544Y0176798D02*
X0330718Y0176798D01*
X0330718Y0176200D02*
X0327544Y0176200D01*
X0327544Y0175601D02*
X0330718Y0175601D01*
X0331145Y0175003D02*
X0327116Y0175003D01*
X0326518Y0174404D02*
X0331743Y0174404D01*
X0332094Y0170879D02*
X0330718Y0169503D01*
X0330718Y0167556D01*
X0332094Y0166179D01*
X0334041Y0166179D01*
X0335418Y0167556D01*
X0335418Y0169503D01*
X0334041Y0170879D01*
X0332094Y0170879D01*
X0332028Y0170813D02*
X0326233Y0170813D01*
X0326832Y0170215D02*
X0331430Y0170215D01*
X0330831Y0169616D02*
X0327430Y0169616D01*
X0327544Y0169018D02*
X0330718Y0169018D01*
X0330718Y0168419D02*
X0327544Y0168419D01*
X0327544Y0167821D02*
X0330718Y0167821D01*
X0331051Y0167222D02*
X0327210Y0167222D01*
X0326611Y0166624D02*
X0331650Y0166624D01*
X0334485Y0166624D02*
X0339524Y0166624D01*
X0339968Y0166179D02*
X0341915Y0166179D01*
X0343292Y0167556D01*
X0343292Y0169503D01*
X0341915Y0170879D01*
X0339968Y0170879D01*
X0338592Y0169503D01*
X0338592Y0167556D01*
X0339968Y0166179D01*
X0338925Y0167222D02*
X0335084Y0167222D01*
X0335418Y0167821D02*
X0338592Y0167821D01*
X0338592Y0168419D02*
X0335418Y0168419D01*
X0335418Y0169018D02*
X0338592Y0169018D01*
X0338705Y0169616D02*
X0335304Y0169616D01*
X0334706Y0170215D02*
X0339304Y0170215D01*
X0339902Y0170813D02*
X0334107Y0170813D01*
X0341981Y0170813D02*
X0347776Y0170813D01*
X0347842Y0170879D02*
X0346466Y0169503D01*
X0346466Y0167556D01*
X0347842Y0166179D01*
X0349789Y0166179D01*
X0351166Y0167556D01*
X0351166Y0169503D01*
X0349789Y0170879D01*
X0347842Y0170879D01*
X0347178Y0170215D02*
X0342580Y0170215D01*
X0343178Y0169616D02*
X0346579Y0169616D01*
X0346466Y0169018D02*
X0343292Y0169018D01*
X0343292Y0168419D02*
X0346466Y0168419D01*
X0346466Y0167821D02*
X0343292Y0167821D01*
X0342958Y0167222D02*
X0346799Y0167222D01*
X0347398Y0166624D02*
X0342359Y0166624D01*
X0350233Y0166624D02*
X0355272Y0166624D01*
X0355716Y0166179D02*
X0357663Y0166179D01*
X0359040Y0167556D01*
X0359040Y0169503D01*
X0357663Y0170879D01*
X0355716Y0170879D01*
X0354340Y0169503D01*
X0354340Y0167556D01*
X0355716Y0166179D01*
X0354673Y0167222D02*
X0350832Y0167222D01*
X0351166Y0167821D02*
X0354340Y0167821D01*
X0354340Y0168419D02*
X0351166Y0168419D01*
X0351166Y0169018D02*
X0354340Y0169018D01*
X0354453Y0169616D02*
X0351052Y0169616D01*
X0350454Y0170215D02*
X0355052Y0170215D01*
X0355650Y0170813D02*
X0349855Y0170813D01*
X0350140Y0174404D02*
X0355365Y0174404D01*
X0355716Y0174053D02*
X0357663Y0174053D01*
X0359040Y0175430D01*
X0359040Y0177377D01*
X0357663Y0178753D01*
X0355716Y0178753D01*
X0354340Y0177377D01*
X0354340Y0175430D01*
X0355716Y0174053D01*
X0354767Y0175003D02*
X0350738Y0175003D01*
X0351166Y0175601D02*
X0354340Y0175601D01*
X0354340Y0176200D02*
X0351166Y0176200D01*
X0351166Y0176798D02*
X0354340Y0176798D01*
X0354360Y0177397D02*
X0351145Y0177397D01*
X0350547Y0177995D02*
X0354958Y0177995D01*
X0355557Y0178594D02*
X0349948Y0178594D01*
X0350047Y0182185D02*
X0355459Y0182185D01*
X0355716Y0181927D02*
X0357663Y0181927D01*
X0359040Y0183304D01*
X0359040Y0185251D01*
X0357663Y0186627D01*
X0355716Y0186627D01*
X0354340Y0185251D01*
X0354340Y0183304D01*
X0355716Y0181927D01*
X0354860Y0182783D02*
X0350645Y0182783D01*
X0351166Y0183382D02*
X0354340Y0183382D01*
X0354340Y0183980D02*
X0351166Y0183980D01*
X0351166Y0184579D02*
X0354340Y0184579D01*
X0354340Y0185177D02*
X0351166Y0185177D01*
X0350640Y0185776D02*
X0354865Y0185776D01*
X0355463Y0186374D02*
X0350042Y0186374D01*
X0349789Y0189801D02*
X0351166Y0191178D01*
X0351166Y0193125D01*
X0349789Y0194501D01*
X0347842Y0194501D01*
X0346466Y0193125D01*
X0346466Y0191178D01*
X0347842Y0189801D01*
X0349789Y0189801D01*
X0349953Y0189965D02*
X0355552Y0189965D01*
X0355716Y0189801D02*
X0357663Y0189801D01*
X0359040Y0191178D01*
X0359040Y0193125D01*
X0357663Y0194501D01*
X0355716Y0194501D01*
X0354340Y0193125D01*
X0354340Y0191178D01*
X0355716Y0189801D01*
X0354953Y0190564D02*
X0350552Y0190564D01*
X0351150Y0191162D02*
X0354355Y0191162D01*
X0354340Y0191761D02*
X0351166Y0191761D01*
X0351166Y0192360D02*
X0354340Y0192360D01*
X0354340Y0192958D02*
X0351166Y0192958D01*
X0350734Y0193557D02*
X0354772Y0193557D01*
X0355370Y0194155D02*
X0350135Y0194155D01*
X0347496Y0194155D02*
X0342261Y0194155D01*
X0342860Y0193557D02*
X0346898Y0193557D01*
X0346466Y0192958D02*
X0343292Y0192958D01*
X0343292Y0192360D02*
X0346466Y0192360D01*
X0346466Y0191761D02*
X0343292Y0191761D01*
X0343276Y0191162D02*
X0346481Y0191162D01*
X0347079Y0190564D02*
X0342678Y0190564D01*
X0342079Y0189965D02*
X0347678Y0189965D01*
X0357827Y0189965D02*
X0363426Y0189965D01*
X0363590Y0189801D02*
X0365537Y0189801D01*
X0366914Y0191178D01*
X0366914Y0193125D01*
X0365537Y0194501D01*
X0363590Y0194501D01*
X0362214Y0193125D01*
X0362214Y0191178D01*
X0363590Y0189801D01*
X0362827Y0190564D02*
X0358426Y0190564D01*
X0359024Y0191162D02*
X0362229Y0191162D01*
X0362214Y0191761D02*
X0359040Y0191761D01*
X0359040Y0192360D02*
X0362214Y0192360D01*
X0362214Y0192958D02*
X0359040Y0192958D01*
X0358608Y0193557D02*
X0362646Y0193557D01*
X0363244Y0194155D02*
X0358009Y0194155D01*
X0365883Y0194155D02*
X0371118Y0194155D01*
X0371464Y0194501D02*
X0370088Y0193125D01*
X0370088Y0191178D01*
X0371464Y0189801D01*
X0373411Y0189801D01*
X0374788Y0191178D01*
X0374788Y0193125D01*
X0373411Y0194501D01*
X0371464Y0194501D01*
X0370520Y0193557D02*
X0366482Y0193557D01*
X0366914Y0192958D02*
X0370088Y0192958D01*
X0370088Y0192360D02*
X0366914Y0192360D01*
X0366914Y0191761D02*
X0370088Y0191761D01*
X0370103Y0191162D02*
X0366898Y0191162D01*
X0366300Y0190564D02*
X0370702Y0190564D01*
X0371300Y0189965D02*
X0365701Y0189965D01*
X0365537Y0186627D02*
X0363590Y0186627D01*
X0362214Y0185251D01*
X0362214Y0183304D01*
X0363590Y0181927D01*
X0365537Y0181927D01*
X0366914Y0183304D01*
X0366914Y0185251D01*
X0365537Y0186627D01*
X0365790Y0186374D02*
X0371211Y0186374D01*
X0371464Y0186627D02*
X0370088Y0185251D01*
X0370088Y0183304D01*
X0371464Y0181927D01*
X0373411Y0181927D01*
X0374788Y0183304D01*
X0374788Y0185251D01*
X0373411Y0186627D01*
X0371464Y0186627D01*
X0370613Y0185776D02*
X0366388Y0185776D01*
X0366914Y0185177D02*
X0370088Y0185177D01*
X0370088Y0184579D02*
X0366914Y0184579D01*
X0366914Y0183980D02*
X0370088Y0183980D01*
X0370088Y0183382D02*
X0366914Y0183382D01*
X0366393Y0182783D02*
X0370608Y0182783D01*
X0371207Y0182185D02*
X0365795Y0182185D01*
X0363333Y0182185D02*
X0357921Y0182185D01*
X0358519Y0182783D02*
X0362734Y0182783D01*
X0362214Y0183382D02*
X0359040Y0183382D01*
X0359040Y0183980D02*
X0362214Y0183980D01*
X0362214Y0184579D02*
X0359040Y0184579D01*
X0359040Y0185177D02*
X0362214Y0185177D01*
X0362739Y0185776D02*
X0358514Y0185776D01*
X0357916Y0186374D02*
X0363337Y0186374D01*
X0363590Y0178753D02*
X0362214Y0177377D01*
X0362214Y0175430D01*
X0363590Y0174053D01*
X0365537Y0174053D01*
X0366914Y0175430D01*
X0366914Y0177377D01*
X0365537Y0178753D01*
X0363590Y0178753D01*
X0363431Y0178594D02*
X0357822Y0178594D01*
X0358421Y0177995D02*
X0362832Y0177995D01*
X0362234Y0177397D02*
X0359020Y0177397D01*
X0359040Y0176798D02*
X0362214Y0176798D01*
X0362214Y0176200D02*
X0359040Y0176200D01*
X0359040Y0175601D02*
X0362214Y0175601D01*
X0362641Y0175003D02*
X0358612Y0175003D01*
X0358014Y0174404D02*
X0363239Y0174404D01*
X0365888Y0174404D02*
X0371113Y0174404D01*
X0371464Y0174053D02*
X0373411Y0174053D01*
X0374788Y0175430D01*
X0374788Y0177377D01*
X0373411Y0178753D01*
X0371464Y0178753D01*
X0370088Y0177377D01*
X0370088Y0175430D01*
X0371464Y0174053D01*
X0370515Y0175003D02*
X0366487Y0175003D01*
X0366914Y0175601D02*
X0370088Y0175601D01*
X0370088Y0176200D02*
X0366914Y0176200D01*
X0366914Y0176798D02*
X0370088Y0176798D01*
X0370108Y0177397D02*
X0366894Y0177397D01*
X0366295Y0177995D02*
X0370706Y0177995D01*
X0371305Y0178594D02*
X0365696Y0178594D01*
X0373571Y0178594D02*
X0379179Y0178594D01*
X0379338Y0178753D02*
X0377962Y0177377D01*
X0377962Y0175430D01*
X0379338Y0174053D01*
X0381285Y0174053D01*
X0382662Y0175430D01*
X0382662Y0177377D01*
X0381285Y0178753D01*
X0379338Y0178753D01*
X0378580Y0177995D02*
X0374169Y0177995D01*
X0374768Y0177397D02*
X0377982Y0177397D01*
X0377962Y0176798D02*
X0374788Y0176798D01*
X0374788Y0176200D02*
X0377962Y0176200D01*
X0377962Y0175601D02*
X0374788Y0175601D01*
X0374361Y0175003D02*
X0378389Y0175003D01*
X0378987Y0174404D02*
X0373762Y0174404D01*
X0373411Y0170879D02*
X0371464Y0170879D01*
X0370088Y0169503D01*
X0370088Y0167556D01*
X0371464Y0166179D01*
X0373411Y0166179D01*
X0374788Y0167556D01*
X0374788Y0169503D01*
X0373411Y0170879D01*
X0373477Y0170813D02*
X0379272Y0170813D01*
X0379338Y0170879D02*
X0377962Y0169503D01*
X0377962Y0167556D01*
X0379338Y0166179D01*
X0381285Y0166179D01*
X0382662Y0167556D01*
X0382662Y0169503D01*
X0381285Y0170879D01*
X0379338Y0170879D01*
X0378674Y0170215D02*
X0374076Y0170215D01*
X0374674Y0169616D02*
X0378075Y0169616D01*
X0377962Y0169018D02*
X0374788Y0169018D01*
X0374788Y0168419D02*
X0377962Y0168419D01*
X0377962Y0167821D02*
X0374788Y0167821D01*
X0374454Y0167222D02*
X0378295Y0167222D01*
X0378894Y0166624D02*
X0373855Y0166624D01*
X0371020Y0166624D02*
X0365981Y0166624D01*
X0365537Y0166179D02*
X0366914Y0167556D01*
X0366914Y0169503D01*
X0365537Y0170879D01*
X0363590Y0170879D01*
X0362214Y0169503D01*
X0362214Y0167556D01*
X0363590Y0166179D01*
X0365537Y0166179D01*
X0366580Y0167222D02*
X0370421Y0167222D01*
X0370088Y0167821D02*
X0366914Y0167821D01*
X0366914Y0168419D02*
X0370088Y0168419D01*
X0370088Y0169018D02*
X0366914Y0169018D01*
X0366800Y0169616D02*
X0370201Y0169616D01*
X0370800Y0170215D02*
X0366202Y0170215D01*
X0365603Y0170813D02*
X0371398Y0170813D01*
X0363524Y0170813D02*
X0357729Y0170813D01*
X0358328Y0170215D02*
X0362926Y0170215D01*
X0362327Y0169616D02*
X0358926Y0169616D01*
X0359040Y0169018D02*
X0362214Y0169018D01*
X0362214Y0168419D02*
X0359040Y0168419D01*
X0359040Y0167821D02*
X0362214Y0167821D01*
X0362547Y0167222D02*
X0358706Y0167222D01*
X0358107Y0166624D02*
X0363146Y0166624D01*
X0381729Y0166624D02*
X0386768Y0166624D01*
X0387212Y0166179D02*
X0389159Y0166179D01*
X0390536Y0167556D01*
X0390536Y0169503D01*
X0389159Y0170879D01*
X0387212Y0170879D01*
X0385836Y0169503D01*
X0385836Y0167556D01*
X0387212Y0166179D01*
X0386169Y0167222D02*
X0382328Y0167222D01*
X0382662Y0167821D02*
X0385836Y0167821D01*
X0385836Y0168419D02*
X0382662Y0168419D01*
X0382662Y0169018D02*
X0385836Y0169018D01*
X0385949Y0169616D02*
X0382548Y0169616D01*
X0381950Y0170215D02*
X0386548Y0170215D01*
X0387146Y0170813D02*
X0381351Y0170813D01*
X0381636Y0174404D02*
X0386861Y0174404D01*
X0387212Y0174053D02*
X0389159Y0174053D01*
X0390536Y0175430D01*
X0390536Y0177377D01*
X0389159Y0178753D01*
X0387212Y0178753D01*
X0385836Y0177377D01*
X0385836Y0175430D01*
X0387212Y0174053D01*
X0386263Y0175003D02*
X0382235Y0175003D01*
X0382662Y0175601D02*
X0385836Y0175601D01*
X0385836Y0176200D02*
X0382662Y0176200D01*
X0382662Y0176798D02*
X0385836Y0176798D01*
X0385856Y0177397D02*
X0382642Y0177397D01*
X0382043Y0177995D02*
X0386454Y0177995D01*
X0387053Y0178594D02*
X0381445Y0178594D01*
X0381285Y0181927D02*
X0382662Y0183304D01*
X0382662Y0185251D01*
X0381285Y0186627D01*
X0379338Y0186627D01*
X0377962Y0185251D01*
X0377962Y0183304D01*
X0379338Y0181927D01*
X0381285Y0181927D01*
X0381543Y0182185D02*
X0386955Y0182185D01*
X0387212Y0181927D02*
X0389159Y0181927D01*
X0390536Y0183304D01*
X0390536Y0185251D01*
X0389159Y0186627D01*
X0387212Y0186627D01*
X0385836Y0185251D01*
X0385836Y0183304D01*
X0387212Y0181927D01*
X0386356Y0182783D02*
X0382141Y0182783D01*
X0382662Y0183382D02*
X0385836Y0183382D01*
X0385836Y0183980D02*
X0382662Y0183980D01*
X0382662Y0184579D02*
X0385836Y0184579D01*
X0385836Y0185177D02*
X0382662Y0185177D01*
X0382136Y0185776D02*
X0386361Y0185776D01*
X0386959Y0186374D02*
X0381538Y0186374D01*
X0379085Y0186374D02*
X0373664Y0186374D01*
X0374262Y0185776D02*
X0378487Y0185776D01*
X0377962Y0185177D02*
X0374788Y0185177D01*
X0374788Y0184579D02*
X0377962Y0184579D01*
X0377962Y0183980D02*
X0374788Y0183980D01*
X0374788Y0183382D02*
X0377962Y0183382D01*
X0378482Y0182783D02*
X0374267Y0182783D01*
X0373669Y0182185D02*
X0379081Y0182185D01*
X0389417Y0182185D02*
X0394829Y0182185D01*
X0395086Y0181927D02*
X0397033Y0181927D01*
X0398410Y0183304D01*
X0398410Y0185251D01*
X0397033Y0186627D01*
X0395086Y0186627D01*
X0393710Y0185251D01*
X0393710Y0183304D01*
X0395086Y0181927D01*
X0394230Y0182783D02*
X0390015Y0182783D01*
X0390536Y0183382D02*
X0393710Y0183382D01*
X0393710Y0183980D02*
X0390536Y0183980D01*
X0390536Y0184579D02*
X0393710Y0184579D01*
X0393710Y0185177D02*
X0390536Y0185177D01*
X0390010Y0185776D02*
X0394235Y0185776D01*
X0394833Y0186374D02*
X0389412Y0186374D01*
X0389159Y0189801D02*
X0390536Y0191178D01*
X0390536Y0193125D01*
X0389159Y0194501D01*
X0387212Y0194501D01*
X0385836Y0193125D01*
X0385836Y0191178D01*
X0387212Y0189801D01*
X0389159Y0189801D01*
X0389323Y0189965D02*
X0394922Y0189965D01*
X0395086Y0189801D02*
X0397033Y0189801D01*
X0398410Y0191178D01*
X0398410Y0193125D01*
X0397033Y0194501D01*
X0395086Y0194501D01*
X0393710Y0193125D01*
X0393710Y0191178D01*
X0395086Y0189801D01*
X0394324Y0190564D02*
X0389922Y0190564D01*
X0390520Y0191162D02*
X0393725Y0191162D01*
X0393710Y0191761D02*
X0390536Y0191761D01*
X0390536Y0192360D02*
X0393710Y0192360D01*
X0393710Y0192958D02*
X0390536Y0192958D01*
X0390104Y0193557D02*
X0394142Y0193557D01*
X0394740Y0194155D02*
X0389505Y0194155D01*
X0386866Y0194155D02*
X0381631Y0194155D01*
X0381285Y0194501D02*
X0379338Y0194501D01*
X0377962Y0193125D01*
X0377962Y0191178D01*
X0379338Y0189801D01*
X0381285Y0189801D01*
X0382662Y0191178D01*
X0382662Y0193125D01*
X0381285Y0194501D01*
X0382230Y0193557D02*
X0386268Y0193557D01*
X0385836Y0192958D02*
X0382662Y0192958D01*
X0382662Y0192360D02*
X0385836Y0192360D01*
X0385836Y0191761D02*
X0382662Y0191761D01*
X0382646Y0191162D02*
X0385851Y0191162D01*
X0386450Y0190564D02*
X0382048Y0190564D01*
X0381449Y0189965D02*
X0387048Y0189965D01*
X0379174Y0189965D02*
X0373575Y0189965D01*
X0374174Y0190564D02*
X0378576Y0190564D01*
X0377977Y0191162D02*
X0374772Y0191162D01*
X0374788Y0191761D02*
X0377962Y0191761D01*
X0377962Y0192360D02*
X0374788Y0192360D01*
X0374788Y0192958D02*
X0377962Y0192958D01*
X0378394Y0193557D02*
X0374356Y0193557D01*
X0373757Y0194155D02*
X0378992Y0194155D01*
X0397379Y0194155D02*
X0402614Y0194155D01*
X0402960Y0194501D02*
X0401584Y0193125D01*
X0401584Y0191178D01*
X0402960Y0189801D01*
X0404907Y0189801D01*
X0406284Y0191178D01*
X0406284Y0193125D01*
X0404907Y0194501D01*
X0402960Y0194501D01*
X0402016Y0193557D02*
X0397978Y0193557D01*
X0398410Y0192958D02*
X0401584Y0192958D01*
X0401584Y0192360D02*
X0398410Y0192360D01*
X0398410Y0191761D02*
X0401584Y0191761D01*
X0401599Y0191162D02*
X0398394Y0191162D01*
X0397796Y0190564D02*
X0402198Y0190564D01*
X0402796Y0189965D02*
X0397197Y0189965D01*
X0397286Y0186374D02*
X0402707Y0186374D01*
X0402109Y0185776D02*
X0397884Y0185776D01*
X0398410Y0185177D02*
X0401584Y0185177D01*
X0401584Y0184579D02*
X0398410Y0184579D01*
X0398410Y0183980D02*
X0401584Y0183980D01*
X0401584Y0183382D02*
X0398410Y0183382D01*
X0397889Y0182783D02*
X0402104Y0182783D01*
X0402703Y0182185D02*
X0397291Y0182185D01*
X0394927Y0178594D02*
X0389319Y0178594D01*
X0389917Y0177995D02*
X0394328Y0177995D01*
X0393730Y0177397D02*
X0390516Y0177397D01*
X0390536Y0176798D02*
X0393710Y0176798D01*
X0393710Y0176200D02*
X0390536Y0176200D01*
X0390536Y0175601D02*
X0393710Y0175601D01*
X0394137Y0175003D02*
X0390109Y0175003D01*
X0389510Y0174404D02*
X0394735Y0174404D01*
X0395086Y0170879D02*
X0393710Y0169503D01*
X0393710Y0167556D01*
X0395086Y0166179D01*
X0397033Y0166179D01*
X0398410Y0167556D01*
X0398410Y0169503D01*
X0397033Y0170879D01*
X0395086Y0170879D01*
X0395020Y0170813D02*
X0389225Y0170813D01*
X0389824Y0170215D02*
X0394422Y0170215D01*
X0393823Y0169616D02*
X0390422Y0169616D01*
X0390536Y0169018D02*
X0393710Y0169018D01*
X0393710Y0168419D02*
X0390536Y0168419D01*
X0390536Y0167821D02*
X0393710Y0167821D01*
X0394043Y0167222D02*
X0390202Y0167222D01*
X0389603Y0166624D02*
X0394642Y0166624D01*
X0397477Y0166624D02*
X0402516Y0166624D01*
X0401917Y0167222D02*
X0398076Y0167222D01*
X0398410Y0167821D02*
X0401584Y0167821D01*
X0401584Y0168419D02*
X0398410Y0168419D01*
X0398410Y0169018D02*
X0401584Y0169018D01*
X0401697Y0169616D02*
X0398296Y0169616D01*
X0397698Y0170215D02*
X0402296Y0170215D01*
X0402894Y0170813D02*
X0397099Y0170813D01*
X0424220Y0176200D02*
X0434530Y0176200D01*
X0434530Y0176798D02*
X0425212Y0176798D01*
X0425811Y0177397D02*
X0434530Y0177397D01*
X0434530Y0177995D02*
X0426409Y0177995D01*
X0427008Y0178594D02*
X0434530Y0178594D01*
X0434530Y0179192D02*
X0427533Y0179192D01*
X0427781Y0179791D02*
X0434530Y0179791D01*
X0434530Y0180389D02*
X0428028Y0180389D01*
X0428276Y0180988D02*
X0434530Y0180988D01*
X0434530Y0181586D02*
X0428524Y0181586D01*
X0428772Y0182185D02*
X0434530Y0182185D01*
X0434530Y0182783D02*
X0428881Y0182783D01*
X0428881Y0183382D02*
X0434530Y0183382D01*
X0434530Y0183980D02*
X0428881Y0183980D01*
X0428881Y0184579D02*
X0434530Y0184579D01*
X0434530Y0185177D02*
X0428881Y0185177D01*
X0428881Y0185776D02*
X0434530Y0185776D01*
X0434530Y0186374D02*
X0428770Y0186374D01*
X0428522Y0186973D02*
X0434530Y0186973D01*
X0434530Y0187571D02*
X0428274Y0187571D01*
X0428026Y0188170D02*
X0434530Y0188170D01*
X0434530Y0188768D02*
X0427779Y0188768D01*
X0427531Y0189367D02*
X0434530Y0189367D01*
X0434530Y0189965D02*
X0427003Y0189965D01*
X0426405Y0190564D02*
X0434530Y0190564D01*
X0434530Y0191162D02*
X0425806Y0191162D01*
X0425208Y0191761D02*
X0434530Y0191761D01*
X0434502Y0192360D02*
X0424208Y0192360D01*
X0422763Y0192958D02*
X0434443Y0192958D01*
X0434373Y0193557D02*
X0405852Y0193557D01*
X0406284Y0192958D02*
X0416600Y0192958D01*
X0415155Y0192360D02*
X0406284Y0192360D01*
X0406284Y0191761D02*
X0414156Y0191761D01*
X0413557Y0191162D02*
X0406268Y0191162D01*
X0405670Y0190564D02*
X0412959Y0190564D01*
X0412360Y0189965D02*
X0405071Y0189965D01*
X0405253Y0194155D02*
X0434125Y0194155D01*
X0434530Y0172010D02*
X0235499Y0172010D01*
X0236263Y0171412D02*
X0434530Y0171412D01*
X0434530Y0170813D02*
X0428595Y0170813D01*
X0429194Y0170215D02*
X0434530Y0170215D01*
X0434530Y0169616D02*
X0429792Y0169616D01*
X0429906Y0169018D02*
X0434530Y0169018D01*
X0434530Y0168419D02*
X0429906Y0168419D01*
X0429906Y0167821D02*
X0434530Y0167821D01*
X0434530Y0167222D02*
X0429572Y0167222D01*
X0428973Y0166624D02*
X0434530Y0166624D01*
X0308049Y0099590D02*
X0302968Y0099590D01*
X0303566Y0098992D02*
X0307451Y0098992D01*
X0307096Y0098393D02*
X0303922Y0098393D01*
X0303922Y0097795D02*
X0307096Y0097795D01*
X0307096Y0097196D02*
X0303922Y0097196D01*
X0303830Y0096598D02*
X0307187Y0096598D01*
X0307786Y0095999D02*
X0303231Y0095999D01*
X0302633Y0095401D02*
X0308384Y0095401D01*
X0308143Y0091810D02*
X0302874Y0091810D01*
X0303473Y0091211D02*
X0307544Y0091211D01*
X0307096Y0090613D02*
X0303922Y0090613D01*
X0303922Y0090014D02*
X0307096Y0090014D01*
X0307096Y0089416D02*
X0303922Y0089416D01*
X0303922Y0088817D02*
X0307096Y0088817D01*
X0307693Y0088219D02*
X0303324Y0088219D01*
X0302726Y0087620D02*
X0308291Y0087620D01*
X0308236Y0084029D02*
X0302781Y0084029D01*
X0303379Y0083430D02*
X0307638Y0083430D01*
X0307096Y0082832D02*
X0303922Y0082832D01*
X0303922Y0082233D02*
X0307096Y0082233D01*
X0307096Y0081635D02*
X0303922Y0081635D01*
X0303922Y0081036D02*
X0307096Y0081036D01*
X0307599Y0080438D02*
X0303418Y0080438D01*
X0302819Y0079839D02*
X0308198Y0079839D01*
X0307096Y0067869D02*
X0289965Y0067869D01*
X0290564Y0067271D02*
X0307096Y0067271D01*
X0307096Y0066672D02*
X0290768Y0066672D01*
X0290768Y0066074D02*
X0307215Y0066074D01*
X0307814Y0065475D02*
X0292059Y0065475D01*
X0292658Y0064877D02*
X0308413Y0064877D01*
X0289602Y0061286D02*
X0033000Y0061286D01*
X0032402Y0061884D02*
X0289003Y0061884D01*
X0288568Y0062483D02*
X0031910Y0062483D01*
X0031662Y0063081D02*
X0288568Y0063081D01*
X0288568Y0063680D02*
X0031414Y0063680D01*
X0031166Y0064278D02*
X0276409Y0064278D01*
X0279426Y0064278D02*
X0279909Y0064278D01*
X0282926Y0064278D02*
X0283409Y0064278D01*
X0286426Y0064278D02*
X0286909Y0064278D01*
X0286871Y0067869D02*
X0286465Y0067869D01*
X0283371Y0067869D02*
X0282965Y0067869D01*
X0279871Y0067869D02*
X0279465Y0067869D01*
X0289183Y0133107D02*
X0289964Y0133107D01*
X0292589Y0133107D02*
X0293401Y0133107D01*
X0237730Y0145676D02*
X0230138Y0145676D01*
X0229660Y0145478D02*
X0231001Y0146033D01*
X0232028Y0147060D01*
X0232584Y0148402D01*
X0232584Y0149854D01*
X0232028Y0151195D01*
X0231001Y0152222D01*
X0229660Y0152778D01*
X0228208Y0152778D01*
X0226866Y0152222D01*
X0225839Y0151195D01*
X0225284Y0149854D01*
X0225284Y0148402D01*
X0225839Y0147060D01*
X0226866Y0146033D01*
X0228208Y0145478D01*
X0229660Y0145478D01*
X0231242Y0146274D02*
X0236625Y0146274D01*
X0236027Y0146873D02*
X0231841Y0146873D01*
X0232198Y0147471D02*
X0235669Y0147471D01*
X0235421Y0148070D02*
X0232446Y0148070D01*
X0232584Y0148668D02*
X0235284Y0148668D01*
X0235284Y0149267D02*
X0232584Y0149267D01*
X0232579Y0149865D02*
X0235289Y0149865D01*
X0235536Y0150464D02*
X0232331Y0150464D01*
X0232083Y0151062D02*
X0235784Y0151062D01*
X0236305Y0151661D02*
X0231562Y0151661D01*
X0230911Y0152259D02*
X0236956Y0152259D01*
X0226956Y0152259D02*
X0220911Y0152259D01*
X0221001Y0152222D02*
X0219660Y0152778D01*
X0218208Y0152778D01*
X0216866Y0152222D01*
X0215839Y0151195D01*
X0215284Y0149854D01*
X0215284Y0148402D01*
X0215839Y0147060D01*
X0216866Y0146033D01*
X0218208Y0145478D01*
X0219660Y0145478D01*
X0221001Y0146033D01*
X0222028Y0147060D01*
X0222584Y0148402D01*
X0222584Y0149854D01*
X0222028Y0151195D01*
X0221001Y0152222D01*
X0221562Y0151661D02*
X0226305Y0151661D01*
X0225784Y0151062D02*
X0222083Y0151062D01*
X0222331Y0150464D02*
X0225536Y0150464D01*
X0225289Y0149865D02*
X0222579Y0149865D01*
X0222584Y0149267D02*
X0225284Y0149267D01*
X0225284Y0148668D02*
X0222584Y0148668D01*
X0222446Y0148070D02*
X0225421Y0148070D01*
X0225669Y0147471D02*
X0222198Y0147471D01*
X0221841Y0146873D02*
X0226027Y0146873D01*
X0226625Y0146274D02*
X0221242Y0146274D01*
X0220138Y0145676D02*
X0227730Y0145676D01*
X0217730Y0145676D02*
X0210138Y0145676D01*
X0209660Y0145478D02*
X0211001Y0146033D01*
X0212028Y0147060D01*
X0212584Y0148402D01*
X0212584Y0149854D01*
X0212028Y0151195D01*
X0211001Y0152222D01*
X0209660Y0152778D01*
X0208208Y0152778D01*
X0206866Y0152222D01*
X0205839Y0151195D01*
X0205284Y0149854D01*
X0205284Y0148402D01*
X0205839Y0147060D01*
X0206866Y0146033D01*
X0208208Y0145478D01*
X0209660Y0145478D01*
X0211242Y0146274D02*
X0216625Y0146274D01*
X0216027Y0146873D02*
X0211841Y0146873D01*
X0212198Y0147471D02*
X0215669Y0147471D01*
X0215421Y0148070D02*
X0212446Y0148070D01*
X0212584Y0148668D02*
X0215284Y0148668D01*
X0215284Y0149267D02*
X0212584Y0149267D01*
X0212579Y0149865D02*
X0215289Y0149865D01*
X0215536Y0150464D02*
X0212331Y0150464D01*
X0212083Y0151062D02*
X0215784Y0151062D01*
X0216305Y0151661D02*
X0211562Y0151661D01*
X0210911Y0152259D02*
X0216956Y0152259D01*
X0206956Y0152259D02*
X0200911Y0152259D01*
X0201001Y0152222D02*
X0199660Y0152778D01*
X0198208Y0152778D01*
X0196866Y0152222D01*
X0195839Y0151195D01*
X0195284Y0149854D01*
X0195284Y0148402D01*
X0195839Y0147060D01*
X0196866Y0146033D01*
X0198208Y0145478D01*
X0199660Y0145478D01*
X0201001Y0146033D01*
X0202028Y0147060D01*
X0202584Y0148402D01*
X0202584Y0149854D01*
X0202028Y0151195D01*
X0201001Y0152222D01*
X0201562Y0151661D02*
X0206305Y0151661D01*
X0205784Y0151062D02*
X0202083Y0151062D01*
X0202331Y0150464D02*
X0205536Y0150464D01*
X0205289Y0149865D02*
X0202579Y0149865D01*
X0202584Y0149267D02*
X0205284Y0149267D01*
X0205284Y0148668D02*
X0202584Y0148668D01*
X0202446Y0148070D02*
X0205421Y0148070D01*
X0205669Y0147471D02*
X0202198Y0147471D01*
X0201841Y0146873D02*
X0206027Y0146873D01*
X0206625Y0146274D02*
X0201242Y0146274D01*
X0200138Y0145676D02*
X0207730Y0145676D01*
X0197730Y0145676D02*
X0190138Y0145676D01*
X0189660Y0145478D02*
X0191001Y0146033D01*
X0192028Y0147060D01*
X0192584Y0148402D01*
X0192584Y0149854D01*
X0192028Y0151195D01*
X0191001Y0152222D01*
X0189660Y0152778D01*
X0188208Y0152778D01*
X0186866Y0152222D01*
X0185839Y0151195D01*
X0185284Y0149854D01*
X0185284Y0148402D01*
X0185839Y0147060D01*
X0186866Y0146033D01*
X0188208Y0145478D01*
X0189660Y0145478D01*
X0191242Y0146274D02*
X0196625Y0146274D01*
X0196027Y0146873D02*
X0191841Y0146873D01*
X0192198Y0147471D02*
X0195669Y0147471D01*
X0195421Y0148070D02*
X0192446Y0148070D01*
X0192584Y0148668D02*
X0195284Y0148668D01*
X0195284Y0149267D02*
X0192584Y0149267D01*
X0192579Y0149865D02*
X0195289Y0149865D01*
X0195536Y0150464D02*
X0192331Y0150464D01*
X0192083Y0151062D02*
X0195784Y0151062D01*
X0196305Y0151661D02*
X0191562Y0151661D01*
X0190911Y0152259D02*
X0196956Y0152259D01*
X0186956Y0152259D02*
X0180911Y0152259D01*
X0181001Y0152222D02*
X0179660Y0152778D01*
X0178208Y0152778D01*
X0176866Y0152222D01*
X0175839Y0151195D01*
X0175284Y0149854D01*
X0175284Y0148402D01*
X0175839Y0147060D01*
X0176866Y0146033D01*
X0178208Y0145478D01*
X0179660Y0145478D01*
X0181001Y0146033D01*
X0182028Y0147060D01*
X0182584Y0148402D01*
X0182584Y0149854D01*
X0182028Y0151195D01*
X0181001Y0152222D01*
X0181562Y0151661D02*
X0186305Y0151661D01*
X0185784Y0151062D02*
X0182083Y0151062D01*
X0182331Y0150464D02*
X0185536Y0150464D01*
X0185289Y0149865D02*
X0182579Y0149865D01*
X0182584Y0149267D02*
X0185284Y0149267D01*
X0185284Y0148668D02*
X0182584Y0148668D01*
X0182446Y0148070D02*
X0185421Y0148070D01*
X0185669Y0147471D02*
X0182198Y0147471D01*
X0181841Y0146873D02*
X0186027Y0146873D01*
X0186625Y0146274D02*
X0181242Y0146274D01*
X0180138Y0145676D02*
X0187730Y0145676D01*
X0177730Y0145676D02*
X0170138Y0145676D01*
X0169660Y0145478D02*
X0171001Y0146033D01*
X0172028Y0147060D01*
X0172584Y0148402D01*
X0172584Y0149854D01*
X0172028Y0151195D01*
X0171001Y0152222D01*
X0169660Y0152778D01*
X0168208Y0152778D01*
X0166866Y0152222D01*
X0165839Y0151195D01*
X0165284Y0149854D01*
X0165284Y0148402D01*
X0165839Y0147060D01*
X0166866Y0146033D01*
X0168208Y0145478D01*
X0169660Y0145478D01*
X0171242Y0146274D02*
X0176625Y0146274D01*
X0176027Y0146873D02*
X0171841Y0146873D01*
X0172198Y0147471D02*
X0175669Y0147471D01*
X0175421Y0148070D02*
X0172446Y0148070D01*
X0172584Y0148668D02*
X0175284Y0148668D01*
X0175284Y0149267D02*
X0172584Y0149267D01*
X0172579Y0149865D02*
X0175289Y0149865D01*
X0175536Y0150464D02*
X0172331Y0150464D01*
X0172083Y0151062D02*
X0175784Y0151062D01*
X0176305Y0151661D02*
X0171562Y0151661D01*
X0170911Y0152259D02*
X0176956Y0152259D01*
X0166956Y0152259D02*
X0160911Y0152259D01*
X0161001Y0152222D02*
X0159660Y0152778D01*
X0158208Y0152778D01*
X0156866Y0152222D01*
X0155839Y0151195D01*
X0155284Y0149854D01*
X0155284Y0148402D01*
X0155839Y0147060D01*
X0156866Y0146033D01*
X0158208Y0145478D01*
X0159660Y0145478D01*
X0161001Y0146033D01*
X0162028Y0147060D01*
X0162584Y0148402D01*
X0162584Y0149854D01*
X0162028Y0151195D01*
X0161001Y0152222D01*
X0161562Y0151661D02*
X0166305Y0151661D01*
X0165784Y0151062D02*
X0162083Y0151062D01*
X0162331Y0150464D02*
X0165536Y0150464D01*
X0165289Y0149865D02*
X0162579Y0149865D01*
X0162584Y0149267D02*
X0165284Y0149267D01*
X0165284Y0148668D02*
X0162584Y0148668D01*
X0162446Y0148070D02*
X0165421Y0148070D01*
X0165669Y0147471D02*
X0162198Y0147471D01*
X0161841Y0146873D02*
X0166027Y0146873D01*
X0166625Y0146274D02*
X0161242Y0146274D01*
X0160138Y0145676D02*
X0167730Y0145676D01*
X0157730Y0145676D02*
X0150138Y0145676D01*
X0149660Y0145478D02*
X0151001Y0146033D01*
X0152028Y0147060D01*
X0152584Y0148402D01*
X0152584Y0149854D01*
X0152028Y0151195D01*
X0151001Y0152222D01*
X0149660Y0152778D01*
X0148208Y0152778D01*
X0146866Y0152222D01*
X0145839Y0151195D01*
X0145284Y0149854D01*
X0145284Y0148402D01*
X0145839Y0147060D01*
X0146866Y0146033D01*
X0148208Y0145478D01*
X0149660Y0145478D01*
X0151242Y0146274D02*
X0156625Y0146274D01*
X0156027Y0146873D02*
X0151841Y0146873D01*
X0152198Y0147471D02*
X0155669Y0147471D01*
X0155421Y0148070D02*
X0152446Y0148070D01*
X0152584Y0148668D02*
X0155284Y0148668D01*
X0155284Y0149267D02*
X0152584Y0149267D01*
X0152579Y0149865D02*
X0155289Y0149865D01*
X0155536Y0150464D02*
X0152331Y0150464D01*
X0152083Y0151062D02*
X0155784Y0151062D01*
X0156305Y0151661D02*
X0151562Y0151661D01*
X0150911Y0152259D02*
X0156956Y0152259D01*
X0146956Y0152259D02*
X0140911Y0152259D01*
X0141001Y0152222D02*
X0139660Y0152778D01*
X0138208Y0152778D01*
X0136866Y0152222D01*
X0135839Y0151195D01*
X0135284Y0149854D01*
X0135284Y0148402D01*
X0135839Y0147060D01*
X0136866Y0146033D01*
X0138208Y0145478D01*
X0139660Y0145478D01*
X0141001Y0146033D01*
X0142028Y0147060D01*
X0142584Y0148402D01*
X0142584Y0149854D01*
X0142028Y0151195D01*
X0141001Y0152222D01*
X0141562Y0151661D02*
X0146305Y0151661D01*
X0145784Y0151062D02*
X0142083Y0151062D01*
X0142331Y0150464D02*
X0145536Y0150464D01*
X0145289Y0149865D02*
X0142579Y0149865D01*
X0142584Y0149267D02*
X0145284Y0149267D01*
X0145284Y0148668D02*
X0142584Y0148668D01*
X0142446Y0148070D02*
X0145421Y0148070D01*
X0145669Y0147471D02*
X0142198Y0147471D01*
X0141841Y0146873D02*
X0146027Y0146873D01*
X0146625Y0146274D02*
X0141242Y0146274D01*
X0140138Y0145676D02*
X0147730Y0145676D01*
X0137730Y0145676D02*
X0130138Y0145676D01*
X0129660Y0145478D02*
X0131001Y0146033D01*
X0132028Y0147060D01*
X0132584Y0148402D01*
X0132584Y0149854D01*
X0132028Y0151195D01*
X0131001Y0152222D01*
X0129660Y0152778D01*
X0128208Y0152778D01*
X0126866Y0152222D01*
X0125839Y0151195D01*
X0125284Y0149854D01*
X0125284Y0148402D01*
X0125839Y0147060D01*
X0126866Y0146033D01*
X0128208Y0145478D01*
X0129660Y0145478D01*
X0131242Y0146274D02*
X0136625Y0146274D01*
X0136027Y0146873D02*
X0131841Y0146873D01*
X0132198Y0147471D02*
X0135669Y0147471D01*
X0135421Y0148070D02*
X0132446Y0148070D01*
X0132584Y0148668D02*
X0135284Y0148668D01*
X0135284Y0149267D02*
X0132584Y0149267D01*
X0132579Y0149865D02*
X0135289Y0149865D01*
X0135536Y0150464D02*
X0132331Y0150464D01*
X0132083Y0151062D02*
X0135784Y0151062D01*
X0136305Y0151661D02*
X0131562Y0151661D01*
X0130911Y0152259D02*
X0136956Y0152259D01*
X0126956Y0152259D02*
X0120911Y0152259D01*
X0121001Y0152222D02*
X0119660Y0152778D01*
X0118208Y0152778D01*
X0116866Y0152222D01*
X0115839Y0151195D01*
X0115284Y0149854D01*
X0115284Y0148402D01*
X0115839Y0147060D01*
X0116866Y0146033D01*
X0118208Y0145478D01*
X0119660Y0145478D01*
X0121001Y0146033D01*
X0122028Y0147060D01*
X0122584Y0148402D01*
X0122584Y0149854D01*
X0122028Y0151195D01*
X0121001Y0152222D01*
X0121562Y0151661D02*
X0126305Y0151661D01*
X0125784Y0151062D02*
X0122083Y0151062D01*
X0122331Y0150464D02*
X0125536Y0150464D01*
X0125289Y0149865D02*
X0122579Y0149865D01*
X0122584Y0149267D02*
X0125284Y0149267D01*
X0125284Y0148668D02*
X0122584Y0148668D01*
X0122446Y0148070D02*
X0125421Y0148070D01*
X0125669Y0147471D02*
X0122198Y0147471D01*
X0121841Y0146873D02*
X0126027Y0146873D01*
X0126625Y0146274D02*
X0121242Y0146274D01*
X0120138Y0145676D02*
X0127730Y0145676D01*
X0117730Y0145676D02*
X0110138Y0145676D01*
X0109660Y0145478D02*
X0111001Y0146033D01*
X0112028Y0147060D01*
X0112584Y0148402D01*
X0112584Y0149854D01*
X0112028Y0151195D01*
X0111001Y0152222D01*
X0109660Y0152778D01*
X0108208Y0152778D01*
X0106866Y0152222D01*
X0105839Y0151195D01*
X0105284Y0149854D01*
X0105284Y0148402D01*
X0105839Y0147060D01*
X0106866Y0146033D01*
X0108208Y0145478D01*
X0109660Y0145478D01*
X0111242Y0146274D02*
X0116625Y0146274D01*
X0116027Y0146873D02*
X0111841Y0146873D01*
X0112198Y0147471D02*
X0115669Y0147471D01*
X0115421Y0148070D02*
X0112446Y0148070D01*
X0112584Y0148668D02*
X0115284Y0148668D01*
X0115284Y0149267D02*
X0112584Y0149267D01*
X0112579Y0149865D02*
X0115289Y0149865D01*
X0115536Y0150464D02*
X0112331Y0150464D01*
X0112083Y0151062D02*
X0115784Y0151062D01*
X0116305Y0151661D02*
X0111562Y0151661D01*
X0110911Y0152259D02*
X0116956Y0152259D01*
X0106956Y0152259D02*
X0100911Y0152259D01*
X0101001Y0152222D02*
X0099660Y0152778D01*
X0098208Y0152778D01*
X0096866Y0152222D01*
X0095839Y0151195D01*
X0095284Y0149854D01*
X0095284Y0148402D01*
X0095839Y0147060D01*
X0096866Y0146033D01*
X0098208Y0145478D01*
X0099660Y0145478D01*
X0101001Y0146033D01*
X0102028Y0147060D01*
X0102584Y0148402D01*
X0102584Y0149854D01*
X0102028Y0151195D01*
X0101001Y0152222D01*
X0101562Y0151661D02*
X0106305Y0151661D01*
X0105784Y0151062D02*
X0102083Y0151062D01*
X0102331Y0150464D02*
X0105536Y0150464D01*
X0105289Y0149865D02*
X0102579Y0149865D01*
X0102584Y0149267D02*
X0105284Y0149267D01*
X0105284Y0148668D02*
X0102584Y0148668D01*
X0102446Y0148070D02*
X0105421Y0148070D01*
X0105669Y0147471D02*
X0102198Y0147471D01*
X0101841Y0146873D02*
X0106027Y0146873D01*
X0106625Y0146274D02*
X0101242Y0146274D01*
X0100138Y0145676D02*
X0107730Y0145676D01*
X0097730Y0145676D02*
X0090138Y0145676D01*
X0089660Y0145478D02*
X0091001Y0146033D01*
X0092028Y0147060D01*
X0092584Y0148402D01*
X0092584Y0149854D01*
X0092028Y0151195D01*
X0091001Y0152222D01*
X0089660Y0152778D01*
X0088208Y0152778D01*
X0086866Y0152222D01*
X0085839Y0151195D01*
X0085284Y0149854D01*
X0085284Y0148402D01*
X0085839Y0147060D01*
X0086866Y0146033D01*
X0088208Y0145478D01*
X0089660Y0145478D01*
X0091242Y0146274D02*
X0096625Y0146274D01*
X0096027Y0146873D02*
X0091841Y0146873D01*
X0092198Y0147471D02*
X0095669Y0147471D01*
X0095421Y0148070D02*
X0092446Y0148070D01*
X0092584Y0148668D02*
X0095284Y0148668D01*
X0095284Y0149267D02*
X0092584Y0149267D01*
X0092579Y0149865D02*
X0095289Y0149865D01*
X0095536Y0150464D02*
X0092331Y0150464D01*
X0092083Y0151062D02*
X0095784Y0151062D01*
X0096305Y0151661D02*
X0091562Y0151661D01*
X0090911Y0152259D02*
X0096956Y0152259D01*
X0086956Y0152259D02*
X0080911Y0152259D01*
X0081001Y0152222D02*
X0079660Y0152778D01*
X0078208Y0152778D01*
X0076866Y0152222D01*
X0075839Y0151195D01*
X0075284Y0149854D01*
X0075284Y0148402D01*
X0075839Y0147060D01*
X0076866Y0146033D01*
X0078208Y0145478D01*
X0079660Y0145478D01*
X0081001Y0146033D01*
X0082028Y0147060D01*
X0082584Y0148402D01*
X0082584Y0149854D01*
X0082028Y0151195D01*
X0081001Y0152222D01*
X0081562Y0151661D02*
X0086305Y0151661D01*
X0085784Y0151062D02*
X0082083Y0151062D01*
X0082331Y0150464D02*
X0085536Y0150464D01*
X0085289Y0149865D02*
X0082579Y0149865D01*
X0082584Y0149267D02*
X0085284Y0149267D01*
X0085284Y0148668D02*
X0082584Y0148668D01*
X0082446Y0148070D02*
X0085421Y0148070D01*
X0085669Y0147471D02*
X0082198Y0147471D01*
X0081841Y0146873D02*
X0086027Y0146873D01*
X0086625Y0146274D02*
X0081242Y0146274D01*
X0080138Y0145676D02*
X0087730Y0145676D01*
X0077730Y0145676D02*
X0070138Y0145676D01*
X0071242Y0146274D02*
X0076625Y0146274D01*
X0076027Y0146873D02*
X0071841Y0146873D01*
X0072198Y0147471D02*
X0075669Y0147471D01*
X0075421Y0148070D02*
X0072446Y0148070D01*
X0072584Y0148668D02*
X0075284Y0148668D01*
X0075284Y0149267D02*
X0072584Y0149267D01*
X0072579Y0149865D02*
X0075289Y0149865D01*
X0075536Y0150464D02*
X0072331Y0150464D01*
X0072083Y0151062D02*
X0075784Y0151062D01*
X0076305Y0151661D02*
X0071562Y0151661D01*
X0070911Y0152259D02*
X0076956Y0152259D01*
X0066803Y0112159D02*
X0045204Y0112159D01*
X0045073Y0111560D02*
X0066205Y0111560D01*
X0065743Y0110962D02*
X0044825Y0110962D01*
X0044396Y0110363D02*
X0065495Y0110363D01*
X0153613Y0127122D02*
X0159368Y0127122D01*
X0159368Y0127720D02*
X0154169Y0127720D01*
X0154767Y0128319D02*
X0159720Y0128319D01*
X0160319Y0128917D02*
X0154768Y0128917D01*
X0154768Y0129516D02*
X0160172Y0129516D01*
X0159573Y0130114D02*
X0154768Y0130114D01*
X0154321Y0130713D02*
X0159468Y0130713D01*
X0159468Y0131311D02*
X0153723Y0131311D01*
X0154211Y0126523D02*
X0159368Y0126523D01*
X0159463Y0125925D02*
X0154668Y0125925D01*
X0154668Y0125326D02*
X0160061Y0125326D01*
X0160660Y0124728D02*
X0154668Y0124728D01*
M02*
