G75*
%MOIN*%
%OFA0B0*%
%FSLAX25Y25*%
%IPPOS*%
%LPD*%
%AMOC8*
5,1,8,0,0,1.08239X$1,22.5*
%
%ADD10C,0.08600*%
%ADD11C,0.06900*%
%ADD12R,0.04600X0.06300*%
%ADD13C,0.01600*%
%ADD14R,0.16000X0.16000*%
%ADD15R,0.20000X0.20000*%
%ADD16C,0.06299*%
%ADD17C,0.07400*%
%ADD18C,0.00800*%
%ADD19C,0.02900*%
%ADD20C,0.16598*%
%ADD21C,0.01000*%
%ADD22C,0.01200*%
D10*
X0270863Y0185293D03*
X0284642Y0185293D03*
D11*
X0238934Y0149128D03*
X0228934Y0149128D03*
X0218934Y0149128D03*
X0208934Y0149128D03*
X0198934Y0149128D03*
X0188934Y0149128D03*
X0178934Y0149128D03*
X0168934Y0149128D03*
X0158934Y0149128D03*
X0148934Y0149128D03*
X0138934Y0149128D03*
X0128934Y0149128D03*
X0118934Y0149128D03*
X0108934Y0149128D03*
X0098934Y0149128D03*
X0088934Y0149128D03*
X0078934Y0149128D03*
X0068934Y0149128D03*
X0068934Y0109128D03*
X0078934Y0109128D03*
X0088934Y0109128D03*
X0098934Y0109128D03*
X0108934Y0109128D03*
X0118934Y0109128D03*
X0128934Y0109128D03*
X0138934Y0109128D03*
X0148934Y0109128D03*
X0158934Y0109128D03*
X0168934Y0109128D03*
X0178934Y0109128D03*
X0188934Y0109128D03*
X0198934Y0109128D03*
X0208934Y0109128D03*
X0218934Y0109128D03*
X0228934Y0109128D03*
X0238934Y0109128D03*
D12*
X0275406Y0072876D03*
X0281406Y0072876D03*
X0287406Y0072876D03*
D13*
X0281406Y0072876D02*
X0280418Y0073864D01*
X0280418Y0090293D01*
X0275406Y0093305D02*
X0243918Y0124793D01*
X0223418Y0124793D01*
X0221918Y0126293D01*
X0275406Y0093305D02*
X0275406Y0072876D01*
X0276406Y0072876D02*
X0281406Y0072876D01*
D14*
X0398028Y0129159D03*
D15*
X0398028Y0179159D03*
X0398028Y0079159D03*
D16*
X0041926Y0096781D03*
X0041926Y0104655D03*
X0041926Y0112529D03*
X0041926Y0120403D03*
X0041926Y0137600D03*
X0041926Y0145474D03*
X0041926Y0153348D03*
X0041926Y0161222D03*
D17*
X0267918Y0157293D03*
X0267918Y0148293D03*
X0267918Y0139293D03*
X0267918Y0130293D03*
X0267918Y0166293D03*
D18*
X0037784Y0059301D02*
X0036709Y0059385D01*
X0034663Y0060050D01*
X0032923Y0061314D01*
X0031659Y0063054D01*
X0030995Y0065100D01*
X0030910Y0066175D01*
X0030910Y0192159D01*
X0030995Y0193234D01*
X0031659Y0195280D01*
X0032923Y0197020D01*
X0034663Y0198284D01*
X0036709Y0198949D01*
X0037784Y0199033D01*
X0427548Y0199033D01*
X0428623Y0198949D01*
X0430669Y0198284D01*
X0432409Y0197020D01*
X0433673Y0195280D01*
X0434337Y0193234D01*
X0434422Y0192159D01*
X0434422Y0191745D01*
X0434430Y0191737D01*
X0434430Y0153250D01*
X0423257Y0143939D01*
X0423205Y0143939D01*
X0422944Y0143678D01*
X0422660Y0143442D01*
X0422656Y0143390D01*
X0422619Y0143353D01*
X0422619Y0142984D01*
X0422585Y0142617D01*
X0422619Y0142577D01*
X0422619Y0124713D01*
X0420539Y0126793D01*
X0414681Y0126793D01*
X0414581Y0126893D01*
X0410581Y0126893D01*
X0407028Y0130445D01*
X0407028Y0137573D01*
X0406442Y0138159D01*
X0389614Y0138159D01*
X0389028Y0137573D01*
X0389028Y0120745D01*
X0389614Y0120159D01*
X0406442Y0120159D01*
X0407028Y0120745D01*
X0407028Y0125920D01*
X0408318Y0124630D01*
X0409255Y0123693D01*
X0414581Y0123693D01*
X0414681Y0123793D01*
X0419297Y0123793D01*
X0420818Y0122272D01*
X0420818Y0113872D01*
X0429418Y0105272D01*
X0429418Y0082056D01*
X0429318Y0081956D01*
X0429318Y0064956D01*
X0427255Y0062893D01*
X0302581Y0062893D01*
X0291518Y0073956D01*
X0290706Y0074768D01*
X0290706Y0076440D01*
X0290120Y0077026D01*
X0284692Y0077026D01*
X0284406Y0076740D01*
X0284120Y0077026D01*
X0282218Y0077026D01*
X0282218Y0088628D01*
X0282495Y0088905D01*
X0282868Y0089806D01*
X0282868Y0090780D01*
X0282495Y0091681D01*
X0281806Y0092370D01*
X0280905Y0092743D01*
X0279931Y0092743D01*
X0279030Y0092370D01*
X0278341Y0091681D01*
X0277968Y0090780D01*
X0277968Y0089806D01*
X0278341Y0088905D01*
X0278618Y0088628D01*
X0278618Y0076952D01*
X0278406Y0076740D01*
X0278120Y0077026D01*
X0277206Y0077026D01*
X0277206Y0094050D01*
X0245718Y0125539D01*
X0244664Y0126593D01*
X0224368Y0126593D01*
X0224368Y0126780D01*
X0223995Y0127681D01*
X0223306Y0128370D01*
X0222405Y0128743D01*
X0221431Y0128743D01*
X0220530Y0128370D01*
X0219841Y0127681D01*
X0219468Y0126780D01*
X0219468Y0125806D01*
X0219841Y0124905D01*
X0220530Y0124216D01*
X0221431Y0123843D01*
X0221822Y0123843D01*
X0222672Y0122993D01*
X0243172Y0122993D01*
X0273606Y0092559D01*
X0273606Y0091412D01*
X0273495Y0091681D01*
X0272806Y0092370D01*
X0271905Y0092743D01*
X0270931Y0092743D01*
X0270030Y0092370D01*
X0269341Y0091681D01*
X0268968Y0090780D01*
X0268968Y0089806D01*
X0269341Y0088905D01*
X0270018Y0088228D01*
X0270018Y0064713D01*
X0270838Y0063893D01*
X0270838Y0063893D01*
X0272838Y0061893D01*
X0288853Y0061893D01*
X0289530Y0061216D01*
X0290431Y0060843D01*
X0291405Y0060843D01*
X0292306Y0061216D01*
X0292995Y0061905D01*
X0293368Y0062806D01*
X0293368Y0063780D01*
X0292995Y0064681D01*
X0292306Y0065370D01*
X0291405Y0065743D01*
X0290431Y0065743D01*
X0289530Y0065370D01*
X0288853Y0064693D01*
X0273998Y0064693D01*
X0272818Y0065873D01*
X0272818Y0068726D01*
X0278120Y0068726D01*
X0278406Y0069011D01*
X0278692Y0068726D01*
X0284120Y0068726D01*
X0284406Y0069011D01*
X0284692Y0068726D01*
X0290120Y0068726D01*
X0290706Y0069311D01*
X0290706Y0070242D01*
X0301255Y0059693D01*
X0428581Y0059693D01*
X0429518Y0060630D01*
X0432518Y0063630D01*
X0432518Y0064956D01*
X0432518Y0081956D01*
X0432418Y0082056D01*
X0432418Y0106514D01*
X0431539Y0107393D01*
X0427026Y0111906D01*
X0434430Y0106970D01*
X0434430Y0066597D01*
X0434422Y0066589D01*
X0434422Y0066175D01*
X0434337Y0065100D01*
X0433673Y0063054D01*
X0432409Y0061314D01*
X0430669Y0060050D01*
X0428623Y0059385D01*
X0427548Y0059301D01*
X0037784Y0059301D01*
X0035156Y0059890D02*
X0301058Y0059890D01*
X0300260Y0060689D02*
X0033785Y0060689D01*
X0032798Y0061487D02*
X0289259Y0061487D01*
X0290918Y0063293D02*
X0273418Y0063293D01*
X0271418Y0065293D01*
X0271418Y0090293D01*
X0268968Y0090233D02*
X0237115Y0090233D01*
X0237296Y0089796D02*
X0236784Y0091032D01*
X0269072Y0091032D01*
X0269491Y0091830D02*
X0235986Y0091830D01*
X0235838Y0091978D02*
X0234603Y0092490D01*
X0233265Y0092490D01*
X0232029Y0091978D01*
X0231083Y0091032D01*
X0076784Y0091032D01*
X0075838Y0091978D01*
X0074603Y0092490D01*
X0073265Y0092490D01*
X0072029Y0091978D01*
X0071083Y0091032D01*
X0030910Y0091032D01*
X0030910Y0091830D02*
X0071882Y0091830D01*
X0071083Y0091032D02*
X0070572Y0089796D01*
X0070572Y0088459D01*
X0071083Y0087223D01*
X0072029Y0086277D01*
X0073265Y0085765D01*
X0074603Y0085765D01*
X0075838Y0086277D01*
X0076784Y0087223D01*
X0077296Y0088459D01*
X0077296Y0089796D01*
X0076784Y0091032D01*
X0077115Y0090233D02*
X0230753Y0090233D01*
X0230572Y0089796D02*
X0230572Y0088459D01*
X0231083Y0087223D01*
X0232029Y0086277D01*
X0233265Y0085765D01*
X0234603Y0085765D01*
X0235838Y0086277D01*
X0236784Y0087223D01*
X0237296Y0088459D01*
X0237296Y0089796D01*
X0237296Y0089435D02*
X0269122Y0089435D01*
X0269610Y0088636D02*
X0237296Y0088636D01*
X0237039Y0087838D02*
X0270018Y0087838D01*
X0270018Y0087039D02*
X0236600Y0087039D01*
X0235750Y0086241D02*
X0270018Y0086241D01*
X0270018Y0085442D02*
X0030910Y0085442D01*
X0030910Y0084644D02*
X0270018Y0084644D01*
X0270018Y0083845D02*
X0030910Y0083845D01*
X0030910Y0083047D02*
X0043108Y0083047D01*
X0043816Y0083340D02*
X0040398Y0081924D01*
X0037783Y0079309D01*
X0036367Y0075891D01*
X0036367Y0072191D01*
X0037783Y0068773D01*
X0040398Y0066158D01*
X0043816Y0064742D01*
X0047516Y0064742D01*
X0050934Y0066158D01*
X0053549Y0068773D01*
X0054965Y0072191D01*
X0054965Y0075891D01*
X0053549Y0079309D01*
X0050934Y0081924D01*
X0047516Y0083340D01*
X0043816Y0083340D01*
X0041180Y0082248D02*
X0030910Y0082248D01*
X0030910Y0081450D02*
X0039924Y0081450D01*
X0039125Y0080651D02*
X0030910Y0080651D01*
X0030910Y0079853D02*
X0038327Y0079853D01*
X0037677Y0079054D02*
X0030910Y0079054D01*
X0030910Y0078256D02*
X0037346Y0078256D01*
X0037016Y0077457D02*
X0030910Y0077457D01*
X0030910Y0076659D02*
X0036685Y0076659D01*
X0036367Y0075860D02*
X0030910Y0075860D01*
X0030910Y0075062D02*
X0036367Y0075062D01*
X0036367Y0074263D02*
X0030910Y0074263D01*
X0030910Y0073465D02*
X0036367Y0073465D01*
X0036367Y0072666D02*
X0030910Y0072666D01*
X0030910Y0071868D02*
X0036501Y0071868D01*
X0036832Y0071069D02*
X0030910Y0071069D01*
X0030910Y0070271D02*
X0037162Y0070271D01*
X0037493Y0069472D02*
X0030910Y0069472D01*
X0030910Y0068674D02*
X0037882Y0068674D01*
X0038681Y0067875D02*
X0030910Y0067875D01*
X0030910Y0067077D02*
X0039479Y0067077D01*
X0040278Y0066278D02*
X0030910Y0066278D01*
X0030965Y0065480D02*
X0042035Y0065480D01*
X0049297Y0065480D02*
X0270018Y0065480D01*
X0270018Y0066278D02*
X0051054Y0066278D01*
X0051853Y0067077D02*
X0270018Y0067077D01*
X0270018Y0067875D02*
X0052651Y0067875D01*
X0053450Y0068674D02*
X0270018Y0068674D01*
X0270018Y0069472D02*
X0053839Y0069472D01*
X0054170Y0070271D02*
X0270018Y0070271D01*
X0270018Y0071069D02*
X0054500Y0071069D01*
X0054831Y0071868D02*
X0270018Y0071868D01*
X0270018Y0072666D02*
X0054965Y0072666D01*
X0054965Y0073465D02*
X0270018Y0073465D01*
X0270018Y0074263D02*
X0054965Y0074263D01*
X0054965Y0075062D02*
X0270018Y0075062D01*
X0270018Y0075860D02*
X0054965Y0075860D01*
X0054647Y0076659D02*
X0270018Y0076659D01*
X0270018Y0077457D02*
X0054316Y0077457D01*
X0053986Y0078256D02*
X0270018Y0078256D01*
X0270018Y0079054D02*
X0053655Y0079054D01*
X0053005Y0079853D02*
X0270018Y0079853D01*
X0270018Y0080651D02*
X0052207Y0080651D01*
X0051408Y0081450D02*
X0270018Y0081450D01*
X0270018Y0082248D02*
X0050152Y0082248D01*
X0048224Y0083047D02*
X0270018Y0083047D01*
X0277206Y0083047D02*
X0278618Y0083047D01*
X0278618Y0083845D02*
X0277206Y0083845D01*
X0277206Y0084644D02*
X0278618Y0084644D01*
X0278618Y0085442D02*
X0277206Y0085442D01*
X0277206Y0086241D02*
X0278618Y0086241D01*
X0278618Y0087039D02*
X0277206Y0087039D01*
X0277206Y0087838D02*
X0278618Y0087838D01*
X0278610Y0088636D02*
X0277206Y0088636D01*
X0277206Y0089435D02*
X0278122Y0089435D01*
X0277968Y0090233D02*
X0277206Y0090233D01*
X0277206Y0091032D02*
X0278072Y0091032D01*
X0278491Y0091830D02*
X0277206Y0091830D01*
X0277206Y0092629D02*
X0279655Y0092629D01*
X0281181Y0092629D02*
X0429418Y0092629D01*
X0429418Y0093427D02*
X0277206Y0093427D01*
X0277031Y0094226D02*
X0429418Y0094226D01*
X0429418Y0095025D02*
X0276232Y0095025D01*
X0275434Y0095823D02*
X0429418Y0095823D01*
X0429418Y0096622D02*
X0274635Y0096622D01*
X0273836Y0097420D02*
X0429418Y0097420D01*
X0429418Y0098219D02*
X0273038Y0098219D01*
X0272239Y0099017D02*
X0429418Y0099017D01*
X0429418Y0099816D02*
X0271441Y0099816D01*
X0270642Y0100614D02*
X0429418Y0100614D01*
X0429418Y0101413D02*
X0269844Y0101413D01*
X0269045Y0102211D02*
X0429418Y0102211D01*
X0429418Y0103010D02*
X0268247Y0103010D01*
X0267448Y0103808D02*
X0429418Y0103808D01*
X0429418Y0104607D02*
X0282696Y0104607D01*
X0282995Y0104905D02*
X0283368Y0105806D01*
X0283368Y0106780D01*
X0282995Y0107681D01*
X0282418Y0108258D01*
X0282418Y0153914D01*
X0272137Y0164196D01*
X0272618Y0165358D01*
X0272618Y0167228D01*
X0271902Y0168955D01*
X0270580Y0170277D01*
X0268853Y0170993D01*
X0266983Y0170993D01*
X0265256Y0170277D01*
X0263934Y0168955D01*
X0263218Y0167228D01*
X0263218Y0165358D01*
X0263934Y0163631D01*
X0265256Y0162309D01*
X0266500Y0161793D01*
X0265256Y0161277D01*
X0263934Y0159955D01*
X0263218Y0158228D01*
X0263218Y0156358D01*
X0263934Y0154631D01*
X0265256Y0153309D01*
X0266500Y0152793D01*
X0265256Y0152277D01*
X0263934Y0150955D01*
X0263218Y0149228D01*
X0263218Y0147358D01*
X0263934Y0145631D01*
X0265256Y0144309D01*
X0266500Y0143793D01*
X0265256Y0143277D01*
X0263934Y0141955D01*
X0263218Y0140228D01*
X0263218Y0138358D01*
X0263934Y0136631D01*
X0265256Y0135309D01*
X0266500Y0134793D01*
X0265256Y0134277D01*
X0263934Y0132955D01*
X0263218Y0131228D01*
X0263218Y0129358D01*
X0263934Y0127631D01*
X0265256Y0126309D01*
X0266983Y0125593D01*
X0268853Y0125593D01*
X0270580Y0126309D01*
X0271902Y0127631D01*
X0272618Y0129358D01*
X0272618Y0131228D01*
X0271902Y0132955D01*
X0270580Y0134277D01*
X0269336Y0134793D01*
X0270580Y0135309D01*
X0271902Y0136631D01*
X0272618Y0138358D01*
X0272618Y0140228D01*
X0271902Y0141955D01*
X0270580Y0143277D01*
X0269336Y0143793D01*
X0270580Y0144309D01*
X0271902Y0145631D01*
X0272618Y0147358D01*
X0272618Y0149228D01*
X0271902Y0150955D01*
X0270580Y0152277D01*
X0269336Y0152793D01*
X0270015Y0153074D01*
X0274418Y0148672D01*
X0274418Y0108258D01*
X0273841Y0107681D01*
X0273468Y0106780D01*
X0273468Y0105806D01*
X0273841Y0104905D01*
X0274530Y0104216D01*
X0275431Y0103843D01*
X0276405Y0103843D01*
X0277306Y0104216D01*
X0277995Y0104905D01*
X0278368Y0105806D01*
X0278368Y0106780D01*
X0277995Y0107681D01*
X0277418Y0108258D01*
X0277418Y0149914D01*
X0272137Y0155196D01*
X0272618Y0156358D01*
X0272618Y0158228D01*
X0271902Y0159955D01*
X0270580Y0161277D01*
X0269336Y0161793D01*
X0270015Y0162074D01*
X0279418Y0152672D01*
X0279418Y0108258D01*
X0278841Y0107681D01*
X0278468Y0106780D01*
X0278468Y0105806D01*
X0278841Y0104905D01*
X0279530Y0104216D01*
X0280431Y0103843D01*
X0281405Y0103843D01*
X0282306Y0104216D01*
X0282995Y0104905D01*
X0283202Y0105405D02*
X0429284Y0105405D01*
X0428486Y0106204D02*
X0283368Y0106204D01*
X0283276Y0107002D02*
X0427687Y0107002D01*
X0426889Y0107801D02*
X0282875Y0107801D01*
X0282418Y0108599D02*
X0426090Y0108599D01*
X0425292Y0109398D02*
X0282418Y0109398D01*
X0282418Y0110196D02*
X0424493Y0110196D01*
X0423695Y0110995D02*
X0282418Y0110995D01*
X0282418Y0111793D02*
X0422896Y0111793D01*
X0422098Y0112592D02*
X0282418Y0112592D01*
X0282418Y0113390D02*
X0421299Y0113390D01*
X0420818Y0114189D02*
X0282418Y0114189D01*
X0282418Y0114987D02*
X0420818Y0114987D01*
X0420818Y0115786D02*
X0282418Y0115786D01*
X0282418Y0116584D02*
X0420818Y0116584D01*
X0420818Y0117383D02*
X0282418Y0117383D01*
X0282418Y0118181D02*
X0420818Y0118181D01*
X0420818Y0118980D02*
X0282418Y0118980D01*
X0282418Y0119778D02*
X0420818Y0119778D01*
X0420818Y0120577D02*
X0406860Y0120577D01*
X0407028Y0121375D02*
X0420818Y0121375D01*
X0420818Y0122174D02*
X0407028Y0122174D01*
X0407028Y0122972D02*
X0420117Y0122972D01*
X0419319Y0123771D02*
X0414659Y0123771D01*
X0421166Y0126166D02*
X0422619Y0126166D01*
X0422619Y0125368D02*
X0421964Y0125368D01*
X0422619Y0126965D02*
X0410509Y0126965D01*
X0409710Y0127763D02*
X0422619Y0127763D01*
X0422619Y0128562D02*
X0408912Y0128562D01*
X0408113Y0129360D02*
X0422619Y0129360D01*
X0422619Y0130159D02*
X0407315Y0130159D01*
X0407028Y0130958D02*
X0422619Y0130958D01*
X0422619Y0131756D02*
X0407028Y0131756D01*
X0407028Y0132555D02*
X0422619Y0132555D01*
X0422619Y0133353D02*
X0407028Y0133353D01*
X0407028Y0134152D02*
X0422619Y0134152D01*
X0422619Y0134950D02*
X0407028Y0134950D01*
X0407028Y0135749D02*
X0422619Y0135749D01*
X0422619Y0136547D02*
X0407028Y0136547D01*
X0407028Y0137346D02*
X0422619Y0137346D01*
X0422619Y0138144D02*
X0406457Y0138144D01*
X0422619Y0138943D02*
X0282418Y0138943D01*
X0282418Y0139741D02*
X0422619Y0139741D01*
X0422619Y0140540D02*
X0282418Y0140540D01*
X0282418Y0141338D02*
X0422619Y0141338D01*
X0422619Y0142137D02*
X0282418Y0142137D01*
X0282418Y0142935D02*
X0422614Y0142935D01*
X0423000Y0143734D02*
X0282418Y0143734D01*
X0282418Y0144532D02*
X0423969Y0144532D01*
X0424927Y0145331D02*
X0282418Y0145331D01*
X0282418Y0146129D02*
X0425885Y0146129D01*
X0426844Y0146928D02*
X0282418Y0146928D01*
X0282418Y0147726D02*
X0427802Y0147726D01*
X0428760Y0148525D02*
X0282418Y0148525D01*
X0282418Y0149323D02*
X0429718Y0149323D01*
X0430676Y0150122D02*
X0282418Y0150122D01*
X0282418Y0150920D02*
X0431635Y0150920D01*
X0432593Y0151719D02*
X0282418Y0151719D01*
X0282418Y0152517D02*
X0433551Y0152517D01*
X0434430Y0153316D02*
X0282418Y0153316D01*
X0282218Y0154114D02*
X0434430Y0154114D01*
X0434430Y0154913D02*
X0281419Y0154913D01*
X0280621Y0155711D02*
X0434430Y0155711D01*
X0434430Y0156510D02*
X0279822Y0156510D01*
X0279024Y0157308D02*
X0434430Y0157308D01*
X0434430Y0158107D02*
X0278225Y0158107D01*
X0277427Y0158905D02*
X0434430Y0158905D01*
X0434430Y0159704D02*
X0276628Y0159704D01*
X0275830Y0160502D02*
X0434430Y0160502D01*
X0434430Y0161301D02*
X0275031Y0161301D01*
X0274233Y0162099D02*
X0434430Y0162099D01*
X0434430Y0162898D02*
X0273434Y0162898D01*
X0272636Y0163696D02*
X0434430Y0163696D01*
X0434430Y0164495D02*
X0272260Y0164495D01*
X0272591Y0165294D02*
X0434430Y0165294D01*
X0434430Y0166092D02*
X0272618Y0166092D01*
X0272618Y0166891D02*
X0434430Y0166891D01*
X0434430Y0167689D02*
X0272427Y0167689D01*
X0272096Y0168488D02*
X0434430Y0168488D01*
X0434430Y0169286D02*
X0271572Y0169286D01*
X0270773Y0170085D02*
X0434430Y0170085D01*
X0434430Y0170883D02*
X0269118Y0170883D01*
X0266718Y0170883D02*
X0236846Y0170883D01*
X0236784Y0171032D02*
X0235838Y0171978D01*
X0234603Y0172490D01*
X0233265Y0172490D01*
X0232029Y0171978D01*
X0231083Y0171032D01*
X0230572Y0169796D01*
X0230572Y0168459D01*
X0231083Y0167223D01*
X0232029Y0166277D01*
X0233265Y0165765D01*
X0234603Y0165765D01*
X0235838Y0166277D01*
X0236784Y0167223D01*
X0237296Y0168459D01*
X0237296Y0169796D01*
X0236784Y0171032D01*
X0236135Y0171682D02*
X0434430Y0171682D01*
X0434430Y0172480D02*
X0234626Y0172480D01*
X0233241Y0172480D02*
X0074626Y0172480D01*
X0074603Y0172490D02*
X0073265Y0172490D01*
X0072029Y0171978D01*
X0071083Y0171032D01*
X0070572Y0169796D01*
X0070572Y0168459D01*
X0071083Y0167223D01*
X0072029Y0166277D01*
X0073265Y0165765D01*
X0074603Y0165765D01*
X0075838Y0166277D01*
X0076784Y0167223D01*
X0077296Y0168459D01*
X0077296Y0169796D01*
X0076784Y0171032D01*
X0075838Y0171978D01*
X0074603Y0172490D01*
X0073241Y0172480D02*
X0030910Y0172480D01*
X0030910Y0171682D02*
X0071733Y0171682D01*
X0071022Y0170883D02*
X0030910Y0170883D01*
X0030910Y0170085D02*
X0070691Y0170085D01*
X0070572Y0169286D02*
X0030910Y0169286D01*
X0030910Y0168488D02*
X0070572Y0168488D01*
X0070890Y0167689D02*
X0030910Y0167689D01*
X0030910Y0166891D02*
X0071416Y0166891D01*
X0072476Y0166092D02*
X0030910Y0166092D01*
X0030910Y0165294D02*
X0040912Y0165294D01*
X0041100Y0165372D02*
X0039575Y0164740D01*
X0038408Y0163573D01*
X0037776Y0162048D01*
X0037776Y0160397D01*
X0038408Y0158872D01*
X0039575Y0157704D01*
X0040587Y0157285D01*
X0039575Y0156866D01*
X0038408Y0155699D01*
X0037776Y0154174D01*
X0037776Y0152523D01*
X0038408Y0150998D01*
X0039575Y0149830D01*
X0040587Y0149411D01*
X0039575Y0148992D01*
X0038408Y0147825D01*
X0037776Y0146299D01*
X0037776Y0144649D01*
X0038408Y0143124D01*
X0039575Y0141956D01*
X0041100Y0141324D01*
X0042751Y0141324D01*
X0044276Y0141956D01*
X0045444Y0143124D01*
X0046075Y0144649D01*
X0046075Y0146299D01*
X0045444Y0147825D01*
X0044276Y0148992D01*
X0043264Y0149411D01*
X0044276Y0149830D01*
X0045444Y0150998D01*
X0046075Y0152523D01*
X0046075Y0154174D01*
X0045444Y0155699D01*
X0044276Y0156866D01*
X0043264Y0157285D01*
X0044276Y0157704D01*
X0045444Y0158872D01*
X0046075Y0160397D01*
X0046075Y0162048D01*
X0045444Y0163573D01*
X0044276Y0164740D01*
X0042751Y0165372D01*
X0041100Y0165372D01*
X0042940Y0165294D02*
X0263245Y0165294D01*
X0263218Y0166092D02*
X0235391Y0166092D01*
X0236451Y0166891D02*
X0263218Y0166891D01*
X0263409Y0167689D02*
X0236977Y0167689D01*
X0237296Y0168488D02*
X0263740Y0168488D01*
X0264264Y0169286D02*
X0237296Y0169286D01*
X0237177Y0170085D02*
X0265063Y0170085D01*
X0263575Y0164495D02*
X0044521Y0164495D01*
X0045320Y0163696D02*
X0263906Y0163696D01*
X0264666Y0162898D02*
X0045723Y0162898D01*
X0046054Y0162099D02*
X0265760Y0162099D01*
X0265312Y0161301D02*
X0046075Y0161301D01*
X0046075Y0160502D02*
X0264481Y0160502D01*
X0263829Y0159704D02*
X0045788Y0159704D01*
X0045458Y0158905D02*
X0263499Y0158905D01*
X0263218Y0158107D02*
X0044679Y0158107D01*
X0043321Y0157308D02*
X0263218Y0157308D01*
X0263218Y0156510D02*
X0044632Y0156510D01*
X0045431Y0155711D02*
X0263486Y0155711D01*
X0263817Y0154913D02*
X0045769Y0154913D01*
X0046075Y0154114D02*
X0264450Y0154114D01*
X0265248Y0153316D02*
X0240451Y0153316D01*
X0239819Y0153578D02*
X0238049Y0153578D01*
X0236413Y0152900D01*
X0235161Y0151648D01*
X0234484Y0150013D01*
X0234484Y0148242D01*
X0235161Y0146607D01*
X0236413Y0145355D01*
X0238049Y0144678D01*
X0239819Y0144678D01*
X0241454Y0145355D01*
X0242706Y0146607D01*
X0243384Y0148242D01*
X0243384Y0150013D01*
X0242706Y0151648D01*
X0241454Y0152900D01*
X0239819Y0153578D01*
X0241837Y0152517D02*
X0265835Y0152517D01*
X0264697Y0151719D02*
X0242636Y0151719D01*
X0243008Y0150920D02*
X0263919Y0150920D01*
X0263588Y0150122D02*
X0243339Y0150122D01*
X0243384Y0149323D02*
X0263257Y0149323D01*
X0263218Y0148525D02*
X0243384Y0148525D01*
X0243170Y0147726D02*
X0263218Y0147726D01*
X0263396Y0146928D02*
X0242839Y0146928D01*
X0242229Y0146129D02*
X0263727Y0146129D01*
X0264233Y0145331D02*
X0241396Y0145331D01*
X0236472Y0145331D02*
X0221396Y0145331D01*
X0221454Y0145355D02*
X0222706Y0146607D01*
X0223384Y0148242D01*
X0223384Y0150013D01*
X0222706Y0151648D01*
X0221454Y0152900D01*
X0219819Y0153578D01*
X0218049Y0153578D01*
X0216413Y0152900D01*
X0215161Y0151648D01*
X0214484Y0150013D01*
X0214484Y0148242D01*
X0215161Y0146607D01*
X0216413Y0145355D01*
X0218049Y0144678D01*
X0219819Y0144678D01*
X0221454Y0145355D01*
X0222229Y0146129D02*
X0235639Y0146129D01*
X0235028Y0146928D02*
X0222839Y0146928D01*
X0223170Y0147726D02*
X0234698Y0147726D01*
X0234484Y0148525D02*
X0223384Y0148525D01*
X0223384Y0149323D02*
X0234484Y0149323D01*
X0234529Y0150122D02*
X0223339Y0150122D01*
X0223008Y0150920D02*
X0234860Y0150920D01*
X0235232Y0151719D02*
X0222636Y0151719D01*
X0221837Y0152517D02*
X0236030Y0152517D01*
X0237417Y0153316D02*
X0220451Y0153316D01*
X0217417Y0153316D02*
X0210451Y0153316D01*
X0209819Y0153578D02*
X0208049Y0153578D01*
X0206413Y0152900D01*
X0205161Y0151648D01*
X0204484Y0150013D01*
X0204484Y0148242D01*
X0205161Y0146607D01*
X0206413Y0145355D01*
X0208049Y0144678D01*
X0209819Y0144678D01*
X0211454Y0145355D01*
X0212706Y0146607D01*
X0213384Y0148242D01*
X0213384Y0150013D01*
X0212706Y0151648D01*
X0211454Y0152900D01*
X0209819Y0153578D01*
X0211837Y0152517D02*
X0216030Y0152517D01*
X0215232Y0151719D02*
X0212636Y0151719D01*
X0213008Y0150920D02*
X0214860Y0150920D01*
X0214529Y0150122D02*
X0213339Y0150122D01*
X0213384Y0149323D02*
X0214484Y0149323D01*
X0214484Y0148525D02*
X0213384Y0148525D01*
X0213170Y0147726D02*
X0214698Y0147726D01*
X0215028Y0146928D02*
X0212839Y0146928D01*
X0212229Y0146129D02*
X0215639Y0146129D01*
X0216472Y0145331D02*
X0211396Y0145331D01*
X0206472Y0145331D02*
X0201396Y0145331D01*
X0201454Y0145355D02*
X0202706Y0146607D01*
X0203384Y0148242D01*
X0203384Y0150013D01*
X0202706Y0151648D01*
X0201454Y0152900D01*
X0199819Y0153578D01*
X0198049Y0153578D01*
X0196413Y0152900D01*
X0195161Y0151648D01*
X0194484Y0150013D01*
X0194484Y0148242D01*
X0194907Y0147222D01*
X0184478Y0136793D01*
X0157797Y0136793D01*
X0152747Y0131743D01*
X0151931Y0131743D01*
X0151030Y0131370D01*
X0150341Y0130681D01*
X0149968Y0129780D01*
X0149968Y0128806D01*
X0150341Y0127905D01*
X0151030Y0127216D01*
X0151931Y0126843D01*
X0152905Y0126843D01*
X0153806Y0127216D01*
X0154495Y0127905D01*
X0154868Y0128806D01*
X0154868Y0129622D01*
X0159039Y0133793D01*
X0185720Y0133793D01*
X0197028Y0145100D01*
X0198049Y0144678D01*
X0199819Y0144678D01*
X0201454Y0145355D01*
X0202229Y0146129D02*
X0205639Y0146129D01*
X0205028Y0146928D02*
X0202839Y0146928D01*
X0203170Y0147726D02*
X0204698Y0147726D01*
X0204484Y0148525D02*
X0203384Y0148525D01*
X0203384Y0149323D02*
X0204484Y0149323D01*
X0204529Y0150122D02*
X0203339Y0150122D01*
X0203008Y0150920D02*
X0204860Y0150920D01*
X0205232Y0151719D02*
X0202636Y0151719D01*
X0201837Y0152517D02*
X0206030Y0152517D01*
X0207417Y0153316D02*
X0200451Y0153316D01*
X0197417Y0153316D02*
X0190451Y0153316D01*
X0189819Y0153578D02*
X0188049Y0153578D01*
X0186413Y0152900D01*
X0185161Y0151648D01*
X0184484Y0150013D01*
X0184484Y0148242D01*
X0185161Y0146607D01*
X0186413Y0145355D01*
X0188049Y0144678D01*
X0189819Y0144678D01*
X0191454Y0145355D01*
X0192706Y0146607D01*
X0193384Y0148242D01*
X0193384Y0150013D01*
X0192706Y0151648D01*
X0191454Y0152900D01*
X0189819Y0153578D01*
X0191837Y0152517D02*
X0196030Y0152517D01*
X0195232Y0151719D02*
X0192636Y0151719D01*
X0193008Y0150920D02*
X0194860Y0150920D01*
X0194529Y0150122D02*
X0193339Y0150122D01*
X0193384Y0149323D02*
X0194484Y0149323D01*
X0194484Y0148525D02*
X0193384Y0148525D01*
X0193170Y0147726D02*
X0194698Y0147726D01*
X0194613Y0146928D02*
X0192839Y0146928D01*
X0192229Y0146129D02*
X0193814Y0146129D01*
X0193016Y0145331D02*
X0191396Y0145331D01*
X0192217Y0144532D02*
X0165650Y0144532D01*
X0166413Y0145355D02*
X0165161Y0146607D01*
X0164484Y0148242D01*
X0164484Y0150013D01*
X0165161Y0151648D01*
X0166413Y0152900D01*
X0168049Y0153578D01*
X0169819Y0153578D01*
X0171454Y0152900D01*
X0172706Y0151648D01*
X0173384Y0150013D01*
X0173384Y0148242D01*
X0172706Y0146607D01*
X0171454Y0145355D01*
X0169819Y0144678D01*
X0168049Y0144678D01*
X0166413Y0145355D01*
X0166472Y0145331D02*
X0164852Y0145331D01*
X0165639Y0146129D02*
X0164053Y0146129D01*
X0163255Y0146928D02*
X0165028Y0146928D01*
X0164698Y0147726D02*
X0163170Y0147726D01*
X0162961Y0147222D02*
X0163384Y0148242D01*
X0163384Y0150013D01*
X0162706Y0151648D01*
X0161454Y0152900D01*
X0159819Y0153578D01*
X0158049Y0153578D01*
X0156413Y0152900D01*
X0155161Y0151648D01*
X0154484Y0150013D01*
X0154484Y0148242D01*
X0155161Y0146607D01*
X0156413Y0145355D01*
X0158049Y0144678D01*
X0159819Y0144678D01*
X0160840Y0145100D01*
X0168147Y0137793D01*
X0168953Y0137793D01*
X0169530Y0137216D01*
X0170431Y0136843D01*
X0171405Y0136843D01*
X0172306Y0137216D01*
X0172995Y0137905D01*
X0173368Y0138806D01*
X0173368Y0139780D01*
X0172995Y0140681D01*
X0172306Y0141370D01*
X0171405Y0141743D01*
X0170431Y0141743D01*
X0169530Y0141370D01*
X0169171Y0141011D01*
X0162961Y0147222D01*
X0163384Y0148525D02*
X0164484Y0148525D01*
X0164484Y0149323D02*
X0163384Y0149323D01*
X0163339Y0150122D02*
X0164529Y0150122D01*
X0164860Y0150920D02*
X0163008Y0150920D01*
X0162636Y0151719D02*
X0165232Y0151719D01*
X0166030Y0152517D02*
X0161837Y0152517D01*
X0160451Y0153316D02*
X0167417Y0153316D01*
X0170451Y0153316D02*
X0177417Y0153316D01*
X0178049Y0153578D02*
X0176413Y0152900D01*
X0175161Y0151648D01*
X0174484Y0150013D01*
X0174484Y0148242D01*
X0175161Y0146607D01*
X0176413Y0145355D01*
X0178049Y0144678D01*
X0179819Y0144678D01*
X0181454Y0145355D01*
X0182706Y0146607D01*
X0183384Y0148242D01*
X0183384Y0150013D01*
X0182706Y0151648D01*
X0181454Y0152900D01*
X0179819Y0153578D01*
X0178049Y0153578D01*
X0176030Y0152517D02*
X0171837Y0152517D01*
X0172636Y0151719D02*
X0175232Y0151719D01*
X0174860Y0150920D02*
X0173008Y0150920D01*
X0173339Y0150122D02*
X0174529Y0150122D01*
X0174484Y0149323D02*
X0173384Y0149323D01*
X0173384Y0148525D02*
X0174484Y0148525D01*
X0174698Y0147726D02*
X0173170Y0147726D01*
X0172839Y0146928D02*
X0175028Y0146928D01*
X0175639Y0146129D02*
X0172229Y0146129D01*
X0171396Y0145331D02*
X0176472Y0145331D01*
X0181396Y0145331D02*
X0186472Y0145331D01*
X0185639Y0146129D02*
X0182229Y0146129D01*
X0182839Y0146928D02*
X0185028Y0146928D01*
X0184698Y0147726D02*
X0183170Y0147726D01*
X0183384Y0148525D02*
X0184484Y0148525D01*
X0184484Y0149323D02*
X0183384Y0149323D01*
X0183339Y0150122D02*
X0184529Y0150122D01*
X0184860Y0150920D02*
X0183008Y0150920D01*
X0182636Y0151719D02*
X0185232Y0151719D01*
X0186030Y0152517D02*
X0181837Y0152517D01*
X0180451Y0153316D02*
X0187417Y0153316D01*
X0196460Y0144532D02*
X0265032Y0144532D01*
X0266357Y0143734D02*
X0195661Y0143734D01*
X0194863Y0142935D02*
X0264913Y0142935D01*
X0264115Y0142137D02*
X0194064Y0142137D01*
X0193266Y0141338D02*
X0263678Y0141338D01*
X0263347Y0140540D02*
X0192467Y0140540D01*
X0191669Y0139741D02*
X0263218Y0139741D01*
X0263218Y0138943D02*
X0190870Y0138943D01*
X0190072Y0138144D02*
X0263307Y0138144D01*
X0263637Y0137346D02*
X0189273Y0137346D01*
X0188474Y0136547D02*
X0264017Y0136547D01*
X0264816Y0135749D02*
X0187676Y0135749D01*
X0186877Y0134950D02*
X0266121Y0134950D01*
X0265130Y0134152D02*
X0186079Y0134152D01*
X0185030Y0137346D02*
X0172435Y0137346D01*
X0173094Y0138144D02*
X0185829Y0138144D01*
X0186627Y0138943D02*
X0173368Y0138943D01*
X0173368Y0139741D02*
X0187426Y0139741D01*
X0188224Y0140540D02*
X0173053Y0140540D01*
X0172338Y0141338D02*
X0189023Y0141338D01*
X0189821Y0142137D02*
X0168046Y0142137D01*
X0167247Y0142935D02*
X0190620Y0142935D01*
X0191418Y0143734D02*
X0166449Y0143734D01*
X0164602Y0141338D02*
X0151838Y0141338D01*
X0151806Y0141370D02*
X0150905Y0141743D01*
X0149931Y0141743D01*
X0149030Y0141370D01*
X0148341Y0140681D01*
X0147968Y0139780D01*
X0147968Y0138806D01*
X0148341Y0137905D01*
X0149030Y0137216D01*
X0149931Y0136843D01*
X0150905Y0136843D01*
X0151806Y0137216D01*
X0152495Y0137905D01*
X0152868Y0138806D01*
X0152868Y0139780D01*
X0152495Y0140681D01*
X0151806Y0141370D01*
X0152553Y0140540D02*
X0165400Y0140540D01*
X0166199Y0139741D02*
X0152868Y0139741D01*
X0152868Y0138943D02*
X0166997Y0138943D01*
X0167796Y0138144D02*
X0152594Y0138144D01*
X0151935Y0137346D02*
X0169401Y0137346D01*
X0169498Y0141338D02*
X0168845Y0141338D01*
X0163803Y0142137D02*
X0044457Y0142137D01*
X0045255Y0142935D02*
X0163005Y0142935D01*
X0162206Y0143734D02*
X0045696Y0143734D01*
X0046027Y0144532D02*
X0161408Y0144532D01*
X0156472Y0145331D02*
X0151396Y0145331D01*
X0151454Y0145355D02*
X0152706Y0146607D01*
X0153384Y0148242D01*
X0153384Y0150013D01*
X0152706Y0151648D01*
X0151454Y0152900D01*
X0149819Y0153578D01*
X0148049Y0153578D01*
X0146413Y0152900D01*
X0145161Y0151648D01*
X0144484Y0150013D01*
X0144484Y0148242D01*
X0145161Y0146607D01*
X0146413Y0145355D01*
X0148049Y0144678D01*
X0149819Y0144678D01*
X0151454Y0145355D01*
X0152229Y0146129D02*
X0155639Y0146129D01*
X0155028Y0146928D02*
X0152839Y0146928D01*
X0153170Y0147726D02*
X0154698Y0147726D01*
X0154484Y0148525D02*
X0153384Y0148525D01*
X0153384Y0149323D02*
X0154484Y0149323D01*
X0154529Y0150122D02*
X0153339Y0150122D01*
X0153008Y0150920D02*
X0154860Y0150920D01*
X0155232Y0151719D02*
X0152636Y0151719D01*
X0151837Y0152517D02*
X0156030Y0152517D01*
X0157417Y0153316D02*
X0150451Y0153316D01*
X0147417Y0153316D02*
X0140451Y0153316D01*
X0139819Y0153578D02*
X0138049Y0153578D01*
X0136413Y0152900D01*
X0135161Y0151648D01*
X0134484Y0150013D01*
X0134484Y0148242D01*
X0135161Y0146607D01*
X0136413Y0145355D01*
X0138049Y0144678D01*
X0139819Y0144678D01*
X0141454Y0145355D01*
X0142706Y0146607D01*
X0143384Y0148242D01*
X0143384Y0150013D01*
X0142706Y0151648D01*
X0141454Y0152900D01*
X0139819Y0153578D01*
X0141837Y0152517D02*
X0146030Y0152517D01*
X0145232Y0151719D02*
X0142636Y0151719D01*
X0143008Y0150920D02*
X0144860Y0150920D01*
X0144529Y0150122D02*
X0143339Y0150122D01*
X0143384Y0149323D02*
X0144484Y0149323D01*
X0144484Y0148525D02*
X0143384Y0148525D01*
X0143170Y0147726D02*
X0144698Y0147726D01*
X0145028Y0146928D02*
X0142839Y0146928D01*
X0142229Y0146129D02*
X0145639Y0146129D01*
X0146472Y0145331D02*
X0141396Y0145331D01*
X0136472Y0145331D02*
X0131396Y0145331D01*
X0131454Y0145355D02*
X0132706Y0146607D01*
X0133384Y0148242D01*
X0133384Y0150013D01*
X0132706Y0151648D01*
X0131454Y0152900D01*
X0129819Y0153578D01*
X0128049Y0153578D01*
X0126413Y0152900D01*
X0125161Y0151648D01*
X0124484Y0150013D01*
X0124484Y0148242D01*
X0125161Y0146607D01*
X0126413Y0145355D01*
X0128049Y0144678D01*
X0129819Y0144678D01*
X0131454Y0145355D01*
X0132229Y0146129D02*
X0135639Y0146129D01*
X0135028Y0146928D02*
X0132839Y0146928D01*
X0133170Y0147726D02*
X0134698Y0147726D01*
X0134484Y0148525D02*
X0133384Y0148525D01*
X0133384Y0149323D02*
X0134484Y0149323D01*
X0134529Y0150122D02*
X0133339Y0150122D01*
X0133008Y0150920D02*
X0134860Y0150920D01*
X0135232Y0151719D02*
X0132636Y0151719D01*
X0131837Y0152517D02*
X0136030Y0152517D01*
X0137417Y0153316D02*
X0130451Y0153316D01*
X0127417Y0153316D02*
X0120451Y0153316D01*
X0119819Y0153578D02*
X0118049Y0153578D01*
X0116413Y0152900D01*
X0115161Y0151648D01*
X0114484Y0150013D01*
X0114484Y0148242D01*
X0115161Y0146607D01*
X0116413Y0145355D01*
X0118049Y0144678D01*
X0119819Y0144678D01*
X0121454Y0145355D01*
X0122706Y0146607D01*
X0123384Y0148242D01*
X0123384Y0150013D01*
X0122706Y0151648D01*
X0121454Y0152900D01*
X0119819Y0153578D01*
X0121837Y0152517D02*
X0126030Y0152517D01*
X0125232Y0151719D02*
X0122636Y0151719D01*
X0123008Y0150920D02*
X0124860Y0150920D01*
X0124529Y0150122D02*
X0123339Y0150122D01*
X0123384Y0149323D02*
X0124484Y0149323D01*
X0124484Y0148525D02*
X0123384Y0148525D01*
X0123170Y0147726D02*
X0124698Y0147726D01*
X0125028Y0146928D02*
X0122839Y0146928D01*
X0122229Y0146129D02*
X0125639Y0146129D01*
X0126472Y0145331D02*
X0121396Y0145331D01*
X0116472Y0145331D02*
X0111396Y0145331D01*
X0111454Y0145355D02*
X0112706Y0146607D01*
X0113384Y0148242D01*
X0113384Y0150013D01*
X0112706Y0151648D01*
X0111454Y0152900D01*
X0109819Y0153578D01*
X0108049Y0153578D01*
X0106413Y0152900D01*
X0105161Y0151648D01*
X0104484Y0150013D01*
X0104484Y0148242D01*
X0105161Y0146607D01*
X0106413Y0145355D01*
X0108049Y0144678D01*
X0109819Y0144678D01*
X0111454Y0145355D01*
X0112229Y0146129D02*
X0115639Y0146129D01*
X0115028Y0146928D02*
X0112839Y0146928D01*
X0113170Y0147726D02*
X0114698Y0147726D01*
X0114484Y0148525D02*
X0113384Y0148525D01*
X0113384Y0149323D02*
X0114484Y0149323D01*
X0114529Y0150122D02*
X0113339Y0150122D01*
X0113008Y0150920D02*
X0114860Y0150920D01*
X0115232Y0151719D02*
X0112636Y0151719D01*
X0111837Y0152517D02*
X0116030Y0152517D01*
X0117417Y0153316D02*
X0110451Y0153316D01*
X0107417Y0153316D02*
X0100451Y0153316D01*
X0099819Y0153578D02*
X0098049Y0153578D01*
X0096413Y0152900D01*
X0095161Y0151648D01*
X0094484Y0150013D01*
X0094484Y0148242D01*
X0095161Y0146607D01*
X0096413Y0145355D01*
X0098049Y0144678D01*
X0099819Y0144678D01*
X0101454Y0145355D01*
X0102706Y0146607D01*
X0103384Y0148242D01*
X0103384Y0150013D01*
X0102706Y0151648D01*
X0101454Y0152900D01*
X0099819Y0153578D01*
X0101837Y0152517D02*
X0106030Y0152517D01*
X0105232Y0151719D02*
X0102636Y0151719D01*
X0103008Y0150920D02*
X0104860Y0150920D01*
X0104529Y0150122D02*
X0103339Y0150122D01*
X0103384Y0149323D02*
X0104484Y0149323D01*
X0104484Y0148525D02*
X0103384Y0148525D01*
X0103170Y0147726D02*
X0104698Y0147726D01*
X0105028Y0146928D02*
X0102839Y0146928D01*
X0102229Y0146129D02*
X0105639Y0146129D01*
X0106472Y0145331D02*
X0101396Y0145331D01*
X0096472Y0145331D02*
X0091396Y0145331D01*
X0091454Y0145355D02*
X0092706Y0146607D01*
X0093384Y0148242D01*
X0093384Y0150013D01*
X0092706Y0151648D01*
X0091454Y0152900D01*
X0089819Y0153578D01*
X0088049Y0153578D01*
X0086413Y0152900D01*
X0085161Y0151648D01*
X0084484Y0150013D01*
X0084484Y0148242D01*
X0085161Y0146607D01*
X0086413Y0145355D01*
X0088049Y0144678D01*
X0089819Y0144678D01*
X0091454Y0145355D01*
X0092229Y0146129D02*
X0095639Y0146129D01*
X0095028Y0146928D02*
X0092839Y0146928D01*
X0093170Y0147726D02*
X0094698Y0147726D01*
X0094484Y0148525D02*
X0093384Y0148525D01*
X0093384Y0149323D02*
X0094484Y0149323D01*
X0094529Y0150122D02*
X0093339Y0150122D01*
X0093008Y0150920D02*
X0094860Y0150920D01*
X0095232Y0151719D02*
X0092636Y0151719D01*
X0091837Y0152517D02*
X0096030Y0152517D01*
X0097417Y0153316D02*
X0090451Y0153316D01*
X0087417Y0153316D02*
X0080451Y0153316D01*
X0079819Y0153578D02*
X0078049Y0153578D01*
X0076413Y0152900D01*
X0075161Y0151648D01*
X0074484Y0150013D01*
X0074484Y0148242D01*
X0075161Y0146607D01*
X0076413Y0145355D01*
X0078049Y0144678D01*
X0079819Y0144678D01*
X0081454Y0145355D01*
X0082706Y0146607D01*
X0083384Y0148242D01*
X0083384Y0150013D01*
X0082706Y0151648D01*
X0081454Y0152900D01*
X0079819Y0153578D01*
X0081837Y0152517D02*
X0086030Y0152517D01*
X0085232Y0151719D02*
X0082636Y0151719D01*
X0083008Y0150920D02*
X0084860Y0150920D01*
X0084529Y0150122D02*
X0083339Y0150122D01*
X0083384Y0149323D02*
X0084484Y0149323D01*
X0084484Y0148525D02*
X0083384Y0148525D01*
X0083170Y0147726D02*
X0084698Y0147726D01*
X0085028Y0146928D02*
X0082839Y0146928D01*
X0082229Y0146129D02*
X0085639Y0146129D01*
X0086472Y0145331D02*
X0081396Y0145331D01*
X0076472Y0145331D02*
X0071396Y0145331D01*
X0071454Y0145355D02*
X0072706Y0146607D01*
X0073384Y0148242D01*
X0073384Y0150013D01*
X0072706Y0151648D01*
X0071454Y0152900D01*
X0069819Y0153578D01*
X0068049Y0153578D01*
X0066413Y0152900D01*
X0065161Y0151648D01*
X0064484Y0150013D01*
X0064484Y0148242D01*
X0065161Y0146607D01*
X0066413Y0145355D01*
X0068049Y0144678D01*
X0069819Y0144678D01*
X0071454Y0145355D01*
X0072229Y0146129D02*
X0075639Y0146129D01*
X0075028Y0146928D02*
X0072839Y0146928D01*
X0073170Y0147726D02*
X0074698Y0147726D01*
X0074484Y0148525D02*
X0073384Y0148525D01*
X0073384Y0149323D02*
X0074484Y0149323D01*
X0074529Y0150122D02*
X0073339Y0150122D01*
X0073008Y0150920D02*
X0074860Y0150920D01*
X0075232Y0151719D02*
X0072636Y0151719D01*
X0071837Y0152517D02*
X0076030Y0152517D01*
X0077417Y0153316D02*
X0070451Y0153316D01*
X0067417Y0153316D02*
X0046075Y0153316D01*
X0046073Y0152517D02*
X0066030Y0152517D01*
X0065232Y0151719D02*
X0045742Y0151719D01*
X0045366Y0150920D02*
X0064860Y0150920D01*
X0064529Y0150122D02*
X0044568Y0150122D01*
X0043476Y0149323D02*
X0064484Y0149323D01*
X0064484Y0148525D02*
X0044744Y0148525D01*
X0045484Y0147726D02*
X0064698Y0147726D01*
X0065028Y0146928D02*
X0045815Y0146928D01*
X0046075Y0146129D02*
X0065639Y0146129D01*
X0066472Y0145331D02*
X0046075Y0145331D01*
X0042784Y0141338D02*
X0148998Y0141338D01*
X0148283Y0140540D02*
X0030910Y0140540D01*
X0030910Y0141338D02*
X0041067Y0141338D01*
X0039395Y0142137D02*
X0030910Y0142137D01*
X0030910Y0142935D02*
X0038596Y0142935D01*
X0038155Y0143734D02*
X0030910Y0143734D01*
X0030910Y0144532D02*
X0037824Y0144532D01*
X0037776Y0145331D02*
X0030910Y0145331D01*
X0030910Y0146129D02*
X0037776Y0146129D01*
X0038036Y0146928D02*
X0030910Y0146928D01*
X0030910Y0147726D02*
X0038367Y0147726D01*
X0039108Y0148525D02*
X0030910Y0148525D01*
X0030910Y0149323D02*
X0040375Y0149323D01*
X0039284Y0150122D02*
X0030910Y0150122D01*
X0030910Y0150920D02*
X0038485Y0150920D01*
X0038109Y0151719D02*
X0030910Y0151719D01*
X0030910Y0152517D02*
X0037778Y0152517D01*
X0037776Y0153316D02*
X0030910Y0153316D01*
X0030910Y0154114D02*
X0037776Y0154114D01*
X0038082Y0154913D02*
X0030910Y0154913D01*
X0030910Y0155711D02*
X0038421Y0155711D01*
X0039219Y0156510D02*
X0030910Y0156510D01*
X0030910Y0157308D02*
X0040531Y0157308D01*
X0039173Y0158107D02*
X0030910Y0158107D01*
X0030910Y0158905D02*
X0038394Y0158905D01*
X0038063Y0159704D02*
X0030910Y0159704D01*
X0030910Y0160502D02*
X0037776Y0160502D01*
X0037776Y0161301D02*
X0030910Y0161301D01*
X0030910Y0162099D02*
X0037798Y0162099D01*
X0038129Y0162898D02*
X0030910Y0162898D01*
X0030910Y0163696D02*
X0038532Y0163696D01*
X0039330Y0164495D02*
X0030910Y0164495D01*
X0030910Y0173279D02*
X0434430Y0173279D01*
X0434430Y0174077D02*
X0030910Y0174077D01*
X0030910Y0174876D02*
X0434430Y0174876D01*
X0434430Y0175674D02*
X0049196Y0175674D01*
X0047516Y0174978D02*
X0043816Y0174978D01*
X0040398Y0176394D01*
X0037783Y0179010D01*
X0036367Y0182427D01*
X0036367Y0186127D01*
X0037783Y0189545D01*
X0040398Y0192161D01*
X0043816Y0193576D01*
X0047516Y0193576D01*
X0050934Y0192161D01*
X0053549Y0189545D01*
X0054965Y0186127D01*
X0054965Y0182427D01*
X0053549Y0179010D01*
X0050934Y0176394D01*
X0047516Y0174978D01*
X0051012Y0176473D02*
X0434430Y0176473D01*
X0434430Y0177271D02*
X0051811Y0177271D01*
X0052610Y0178070D02*
X0434430Y0178070D01*
X0434430Y0178868D02*
X0053408Y0178868D01*
X0053822Y0179667D02*
X0434430Y0179667D01*
X0434430Y0180465D02*
X0273057Y0180465D01*
X0273865Y0180800D02*
X0271917Y0179993D01*
X0269809Y0179993D01*
X0267861Y0180800D01*
X0266370Y0182291D01*
X0265563Y0184239D01*
X0265563Y0186347D01*
X0266370Y0188295D01*
X0267861Y0189786D01*
X0269809Y0190593D01*
X0271917Y0190593D01*
X0273865Y0189786D01*
X0275356Y0188295D01*
X0276163Y0186347D01*
X0276163Y0184239D01*
X0275356Y0182291D01*
X0273865Y0180800D01*
X0274329Y0181264D02*
X0434430Y0181264D01*
X0434430Y0182062D02*
X0275127Y0182062D01*
X0275592Y0182861D02*
X0434430Y0182861D01*
X0434430Y0183659D02*
X0275923Y0183659D01*
X0276163Y0184458D02*
X0434430Y0184458D01*
X0434430Y0185256D02*
X0276163Y0185256D01*
X0276163Y0186055D02*
X0434430Y0186055D01*
X0434430Y0186853D02*
X0275953Y0186853D01*
X0275622Y0187652D02*
X0434430Y0187652D01*
X0434430Y0188450D02*
X0275201Y0188450D01*
X0274402Y0189249D02*
X0434430Y0189249D01*
X0434430Y0190047D02*
X0273234Y0190047D01*
X0268491Y0190047D02*
X0053047Y0190047D01*
X0053672Y0189249D02*
X0267323Y0189249D01*
X0266525Y0188450D02*
X0054003Y0188450D01*
X0054334Y0187652D02*
X0266103Y0187652D01*
X0265772Y0186853D02*
X0054664Y0186853D01*
X0054965Y0186055D02*
X0265563Y0186055D01*
X0265563Y0185256D02*
X0054965Y0185256D01*
X0054965Y0184458D02*
X0265563Y0184458D01*
X0265803Y0183659D02*
X0054965Y0183659D01*
X0054965Y0182861D02*
X0266134Y0182861D01*
X0266598Y0182062D02*
X0054814Y0182062D01*
X0054483Y0181264D02*
X0267397Y0181264D01*
X0268669Y0180465D02*
X0054152Y0180465D01*
X0042136Y0175674D02*
X0030910Y0175674D01*
X0030910Y0176473D02*
X0040320Y0176473D01*
X0039521Y0177271D02*
X0030910Y0177271D01*
X0030910Y0178070D02*
X0038722Y0178070D01*
X0037924Y0178868D02*
X0030910Y0178868D01*
X0030910Y0179667D02*
X0037510Y0179667D01*
X0037180Y0180465D02*
X0030910Y0180465D01*
X0030910Y0181264D02*
X0036849Y0181264D01*
X0036518Y0182062D02*
X0030910Y0182062D01*
X0030910Y0182861D02*
X0036367Y0182861D01*
X0036367Y0183659D02*
X0030910Y0183659D01*
X0030910Y0184458D02*
X0036367Y0184458D01*
X0036367Y0185256D02*
X0030910Y0185256D01*
X0030910Y0186055D02*
X0036367Y0186055D01*
X0036668Y0186853D02*
X0030910Y0186853D01*
X0030910Y0187652D02*
X0036998Y0187652D01*
X0037329Y0188450D02*
X0030910Y0188450D01*
X0030910Y0189249D02*
X0037660Y0189249D01*
X0038285Y0190047D02*
X0030910Y0190047D01*
X0030910Y0190846D02*
X0039084Y0190846D01*
X0039882Y0191644D02*
X0030910Y0191644D01*
X0030932Y0192443D02*
X0041080Y0192443D01*
X0043007Y0193241D02*
X0030997Y0193241D01*
X0031256Y0194040D02*
X0434076Y0194040D01*
X0434335Y0193241D02*
X0048325Y0193241D01*
X0050252Y0192443D02*
X0434400Y0192443D01*
X0434430Y0191644D02*
X0051450Y0191644D01*
X0052248Y0190846D02*
X0434430Y0190846D01*
X0433816Y0194838D02*
X0031516Y0194838D01*
X0031919Y0195637D02*
X0433413Y0195637D01*
X0432833Y0196435D02*
X0032499Y0196435D01*
X0033218Y0197234D02*
X0432114Y0197234D01*
X0431015Y0198032D02*
X0034317Y0198032D01*
X0036347Y0198831D02*
X0428985Y0198831D01*
X0389599Y0138144D02*
X0282418Y0138144D01*
X0282418Y0137346D02*
X0389028Y0137346D01*
X0389028Y0136547D02*
X0282418Y0136547D01*
X0282418Y0135749D02*
X0389028Y0135749D01*
X0389028Y0134950D02*
X0282418Y0134950D01*
X0282418Y0134152D02*
X0389028Y0134152D01*
X0389028Y0133353D02*
X0282418Y0133353D01*
X0282418Y0132555D02*
X0389028Y0132555D01*
X0389028Y0131756D02*
X0282418Y0131756D01*
X0282418Y0130958D02*
X0389028Y0130958D01*
X0389028Y0130159D02*
X0282418Y0130159D01*
X0282418Y0129360D02*
X0389028Y0129360D01*
X0389028Y0128562D02*
X0282418Y0128562D01*
X0282418Y0127763D02*
X0389028Y0127763D01*
X0389028Y0126965D02*
X0282418Y0126965D01*
X0282418Y0126166D02*
X0389028Y0126166D01*
X0389028Y0125368D02*
X0282418Y0125368D01*
X0282418Y0124569D02*
X0389028Y0124569D01*
X0389028Y0123771D02*
X0282418Y0123771D01*
X0282418Y0122972D02*
X0389028Y0122972D01*
X0389028Y0122174D02*
X0282418Y0122174D01*
X0282418Y0121375D02*
X0389028Y0121375D01*
X0389196Y0120577D02*
X0282418Y0120577D01*
X0279418Y0120577D02*
X0277418Y0120577D01*
X0277418Y0121375D02*
X0279418Y0121375D01*
X0279418Y0122174D02*
X0277418Y0122174D01*
X0277418Y0122972D02*
X0279418Y0122972D01*
X0279418Y0123771D02*
X0277418Y0123771D01*
X0277418Y0124569D02*
X0279418Y0124569D01*
X0279418Y0125368D02*
X0277418Y0125368D01*
X0277418Y0126166D02*
X0279418Y0126166D01*
X0279418Y0126965D02*
X0277418Y0126965D01*
X0277418Y0127763D02*
X0279418Y0127763D01*
X0279418Y0128562D02*
X0277418Y0128562D01*
X0277418Y0129360D02*
X0279418Y0129360D01*
X0279418Y0130159D02*
X0277418Y0130159D01*
X0277418Y0130958D02*
X0279418Y0130958D01*
X0279418Y0131756D02*
X0277418Y0131756D01*
X0277418Y0132555D02*
X0279418Y0132555D01*
X0279418Y0133353D02*
X0277418Y0133353D01*
X0277418Y0134152D02*
X0279418Y0134152D01*
X0279418Y0134950D02*
X0277418Y0134950D01*
X0277418Y0135749D02*
X0279418Y0135749D01*
X0279418Y0136547D02*
X0277418Y0136547D01*
X0277418Y0137346D02*
X0279418Y0137346D01*
X0279418Y0138144D02*
X0277418Y0138144D01*
X0277418Y0138943D02*
X0279418Y0138943D01*
X0279418Y0139741D02*
X0277418Y0139741D01*
X0277418Y0140540D02*
X0279418Y0140540D01*
X0279418Y0141338D02*
X0277418Y0141338D01*
X0277418Y0142137D02*
X0279418Y0142137D01*
X0279418Y0142935D02*
X0277418Y0142935D01*
X0277418Y0143734D02*
X0279418Y0143734D01*
X0279418Y0144532D02*
X0277418Y0144532D01*
X0277418Y0145331D02*
X0279418Y0145331D01*
X0279418Y0146129D02*
X0277418Y0146129D01*
X0277418Y0146928D02*
X0279418Y0146928D01*
X0279418Y0147726D02*
X0277418Y0147726D01*
X0277418Y0148525D02*
X0279418Y0148525D01*
X0279418Y0149323D02*
X0277418Y0149323D01*
X0277210Y0150122D02*
X0279418Y0150122D01*
X0279418Y0150920D02*
X0276412Y0150920D01*
X0275613Y0151719D02*
X0279418Y0151719D01*
X0279418Y0152517D02*
X0274815Y0152517D01*
X0274016Y0153316D02*
X0278774Y0153316D01*
X0277975Y0154114D02*
X0273218Y0154114D01*
X0272419Y0154913D02*
X0277177Y0154913D01*
X0276378Y0155711D02*
X0272350Y0155711D01*
X0272618Y0156510D02*
X0275580Y0156510D01*
X0274781Y0157308D02*
X0272618Y0157308D01*
X0272618Y0158107D02*
X0273983Y0158107D01*
X0273184Y0158905D02*
X0272337Y0158905D01*
X0272386Y0159704D02*
X0272007Y0159704D01*
X0271587Y0160502D02*
X0271355Y0160502D01*
X0270789Y0161301D02*
X0270524Y0161301D01*
X0270572Y0152517D02*
X0270001Y0152517D01*
X0271139Y0151719D02*
X0271371Y0151719D01*
X0271917Y0150920D02*
X0272169Y0150920D01*
X0272248Y0150122D02*
X0272968Y0150122D01*
X0272578Y0149323D02*
X0273766Y0149323D01*
X0274418Y0148525D02*
X0272618Y0148525D01*
X0272618Y0147726D02*
X0274418Y0147726D01*
X0274418Y0146928D02*
X0272440Y0146928D01*
X0272109Y0146129D02*
X0274418Y0146129D01*
X0274418Y0145331D02*
X0271603Y0145331D01*
X0270804Y0144532D02*
X0274418Y0144532D01*
X0274418Y0143734D02*
X0269479Y0143734D01*
X0270923Y0142935D02*
X0274418Y0142935D01*
X0274418Y0142137D02*
X0271721Y0142137D01*
X0272158Y0141338D02*
X0274418Y0141338D01*
X0274418Y0140540D02*
X0272489Y0140540D01*
X0272618Y0139741D02*
X0274418Y0139741D01*
X0274418Y0138943D02*
X0272618Y0138943D01*
X0272529Y0138144D02*
X0274418Y0138144D01*
X0274418Y0137346D02*
X0272199Y0137346D01*
X0271819Y0136547D02*
X0274418Y0136547D01*
X0274418Y0135749D02*
X0271020Y0135749D01*
X0269715Y0134950D02*
X0274418Y0134950D01*
X0274418Y0134152D02*
X0270706Y0134152D01*
X0271505Y0133353D02*
X0274418Y0133353D01*
X0274418Y0132555D02*
X0272068Y0132555D01*
X0272399Y0131756D02*
X0274418Y0131756D01*
X0274418Y0130958D02*
X0272618Y0130958D01*
X0272618Y0130159D02*
X0274418Y0130159D01*
X0274418Y0129360D02*
X0272618Y0129360D01*
X0272288Y0128562D02*
X0274418Y0128562D01*
X0274418Y0127763D02*
X0271957Y0127763D01*
X0271237Y0126965D02*
X0274418Y0126965D01*
X0274418Y0126166D02*
X0270237Y0126166D01*
X0274418Y0125368D02*
X0245889Y0125368D01*
X0246687Y0124569D02*
X0274418Y0124569D01*
X0274418Y0123771D02*
X0247486Y0123771D01*
X0248284Y0122972D02*
X0274418Y0122972D01*
X0274418Y0122174D02*
X0249083Y0122174D01*
X0249881Y0121375D02*
X0274418Y0121375D01*
X0274418Y0120577D02*
X0250680Y0120577D01*
X0251478Y0119778D02*
X0274418Y0119778D01*
X0274418Y0118980D02*
X0252277Y0118980D01*
X0253075Y0118181D02*
X0274418Y0118181D01*
X0274418Y0117383D02*
X0253874Y0117383D01*
X0254672Y0116584D02*
X0274418Y0116584D01*
X0274418Y0115786D02*
X0255471Y0115786D01*
X0256269Y0114987D02*
X0274418Y0114987D01*
X0274418Y0114189D02*
X0257068Y0114189D01*
X0257866Y0113390D02*
X0274418Y0113390D01*
X0274418Y0112592D02*
X0258665Y0112592D01*
X0259463Y0111793D02*
X0274418Y0111793D01*
X0274418Y0110995D02*
X0260262Y0110995D01*
X0261060Y0110196D02*
X0274418Y0110196D01*
X0274418Y0109398D02*
X0261859Y0109398D01*
X0262657Y0108599D02*
X0274418Y0108599D01*
X0273961Y0107801D02*
X0263456Y0107801D01*
X0264254Y0107002D02*
X0273560Y0107002D01*
X0273468Y0106204D02*
X0265053Y0106204D01*
X0265851Y0105405D02*
X0273634Y0105405D01*
X0274139Y0104607D02*
X0266650Y0104607D01*
X0263954Y0102211D02*
X0045350Y0102211D01*
X0045444Y0102305D02*
X0046075Y0103830D01*
X0046075Y0105481D01*
X0045444Y0107006D01*
X0044276Y0108173D01*
X0043264Y0108592D01*
X0044276Y0109011D01*
X0045444Y0110179D01*
X0046075Y0111704D01*
X0046075Y0113355D01*
X0045444Y0114880D01*
X0044276Y0116047D01*
X0043264Y0116466D01*
X0044276Y0116885D01*
X0045444Y0118053D01*
X0046075Y0119578D01*
X0046075Y0121229D01*
X0045444Y0122754D01*
X0044276Y0123921D01*
X0042751Y0124553D01*
X0041100Y0124553D01*
X0039575Y0123921D01*
X0038408Y0122754D01*
X0037776Y0121229D01*
X0037776Y0119578D01*
X0038408Y0118053D01*
X0039575Y0116885D01*
X0040587Y0116466D01*
X0039575Y0116047D01*
X0038408Y0114880D01*
X0037776Y0113355D01*
X0037776Y0111704D01*
X0038408Y0110179D01*
X0039575Y0109011D01*
X0040587Y0108592D01*
X0039575Y0108173D01*
X0038408Y0107006D01*
X0037776Y0105481D01*
X0037776Y0103830D01*
X0038408Y0102305D01*
X0039575Y0101137D01*
X0041100Y0100506D01*
X0042751Y0100506D01*
X0044276Y0101137D01*
X0045444Y0102305D01*
X0045736Y0103010D02*
X0263156Y0103010D01*
X0262357Y0103808D02*
X0046066Y0103808D01*
X0046075Y0104607D02*
X0261559Y0104607D01*
X0260760Y0105405D02*
X0241504Y0105405D01*
X0241454Y0105355D02*
X0242706Y0106607D01*
X0243384Y0108242D01*
X0243384Y0110013D01*
X0242706Y0111648D01*
X0241454Y0112900D01*
X0239819Y0113578D01*
X0238049Y0113578D01*
X0236413Y0112900D01*
X0235161Y0111648D01*
X0234484Y0110013D01*
X0234484Y0108242D01*
X0235161Y0106607D01*
X0236413Y0105355D01*
X0238049Y0104678D01*
X0239819Y0104678D01*
X0241454Y0105355D01*
X0242303Y0106204D02*
X0259962Y0106204D01*
X0259163Y0107002D02*
X0242870Y0107002D01*
X0243201Y0107801D02*
X0258365Y0107801D01*
X0257566Y0108599D02*
X0243384Y0108599D01*
X0243384Y0109398D02*
X0256768Y0109398D01*
X0255969Y0110196D02*
X0243308Y0110196D01*
X0242977Y0110995D02*
X0255171Y0110995D01*
X0254372Y0111793D02*
X0242561Y0111793D01*
X0241763Y0112592D02*
X0253574Y0112592D01*
X0252775Y0113390D02*
X0240271Y0113390D01*
X0237596Y0113390D02*
X0230271Y0113390D01*
X0229819Y0113578D02*
X0231454Y0112900D01*
X0232706Y0111648D01*
X0233384Y0110013D01*
X0233384Y0108242D01*
X0232706Y0106607D01*
X0231454Y0105355D01*
X0229819Y0104678D01*
X0228049Y0104678D01*
X0226413Y0105355D01*
X0225161Y0106607D01*
X0224484Y0108242D01*
X0224484Y0110013D01*
X0225161Y0111648D01*
X0226413Y0112900D01*
X0228049Y0113578D01*
X0229819Y0113578D01*
X0231763Y0112592D02*
X0236105Y0112592D01*
X0235306Y0111793D02*
X0232561Y0111793D01*
X0232977Y0110995D02*
X0234890Y0110995D01*
X0234560Y0110196D02*
X0233308Y0110196D01*
X0233384Y0109398D02*
X0234484Y0109398D01*
X0234484Y0108599D02*
X0233384Y0108599D01*
X0233201Y0107801D02*
X0234667Y0107801D01*
X0234997Y0107002D02*
X0232870Y0107002D01*
X0232303Y0106204D02*
X0235564Y0106204D01*
X0236363Y0105405D02*
X0231504Y0105405D01*
X0226363Y0105405D02*
X0221504Y0105405D01*
X0221454Y0105355D02*
X0222706Y0106607D01*
X0223384Y0108242D01*
X0223384Y0110013D01*
X0222706Y0111648D01*
X0221454Y0112900D01*
X0219819Y0113578D01*
X0218049Y0113578D01*
X0216413Y0112900D01*
X0215161Y0111648D01*
X0214484Y0110013D01*
X0214484Y0108242D01*
X0215161Y0106607D01*
X0216413Y0105355D01*
X0218049Y0104678D01*
X0219819Y0104678D01*
X0221454Y0105355D01*
X0222303Y0106204D02*
X0225564Y0106204D01*
X0224997Y0107002D02*
X0222870Y0107002D01*
X0223201Y0107801D02*
X0224667Y0107801D01*
X0224484Y0108599D02*
X0223384Y0108599D01*
X0223384Y0109398D02*
X0224484Y0109398D01*
X0224560Y0110196D02*
X0223308Y0110196D01*
X0222977Y0110995D02*
X0224890Y0110995D01*
X0225306Y0111793D02*
X0222561Y0111793D01*
X0221763Y0112592D02*
X0226105Y0112592D01*
X0227596Y0113390D02*
X0220271Y0113390D01*
X0217596Y0113390D02*
X0200271Y0113390D01*
X0199819Y0113578D02*
X0201454Y0112900D01*
X0202706Y0111648D01*
X0203384Y0110013D01*
X0203384Y0108242D01*
X0202706Y0106607D01*
X0201454Y0105355D01*
X0199819Y0104678D01*
X0198049Y0104678D01*
X0196413Y0105355D01*
X0195161Y0106607D01*
X0194484Y0108242D01*
X0194484Y0110013D01*
X0195161Y0111648D01*
X0196413Y0112900D01*
X0198049Y0113578D01*
X0199819Y0113578D01*
X0201763Y0112592D02*
X0216105Y0112592D01*
X0215306Y0111793D02*
X0202561Y0111793D01*
X0202977Y0110995D02*
X0214890Y0110995D01*
X0214560Y0110196D02*
X0203308Y0110196D01*
X0203384Y0109398D02*
X0214484Y0109398D01*
X0214484Y0108599D02*
X0203384Y0108599D01*
X0203201Y0107801D02*
X0214667Y0107801D01*
X0214997Y0107002D02*
X0202870Y0107002D01*
X0202303Y0106204D02*
X0215564Y0106204D01*
X0216363Y0105405D02*
X0201504Y0105405D01*
X0196363Y0105405D02*
X0191504Y0105405D01*
X0191454Y0105355D02*
X0192706Y0106607D01*
X0193384Y0108242D01*
X0193384Y0110013D01*
X0192706Y0111648D01*
X0191454Y0112900D01*
X0189819Y0113578D01*
X0188049Y0113578D01*
X0186413Y0112900D01*
X0185161Y0111648D01*
X0184484Y0110013D01*
X0184484Y0108242D01*
X0185161Y0106607D01*
X0186413Y0105355D01*
X0188049Y0104678D01*
X0189819Y0104678D01*
X0191454Y0105355D01*
X0192303Y0106204D02*
X0195564Y0106204D01*
X0194997Y0107002D02*
X0192870Y0107002D01*
X0193201Y0107801D02*
X0194667Y0107801D01*
X0194484Y0108599D02*
X0193384Y0108599D01*
X0193384Y0109398D02*
X0194484Y0109398D01*
X0194560Y0110196D02*
X0193308Y0110196D01*
X0192977Y0110995D02*
X0194890Y0110995D01*
X0195306Y0111793D02*
X0192561Y0111793D01*
X0191763Y0112592D02*
X0196105Y0112592D01*
X0197596Y0113390D02*
X0190271Y0113390D01*
X0187596Y0113390D02*
X0180271Y0113390D01*
X0179819Y0113578D02*
X0181454Y0112900D01*
X0182706Y0111648D01*
X0183384Y0110013D01*
X0183384Y0108242D01*
X0182706Y0106607D01*
X0181454Y0105355D01*
X0179819Y0104678D01*
X0178049Y0104678D01*
X0176413Y0105355D01*
X0175161Y0106607D01*
X0174484Y0108242D01*
X0174484Y0110013D01*
X0175161Y0111648D01*
X0176413Y0112900D01*
X0178049Y0113578D01*
X0179819Y0113578D01*
X0181763Y0112592D02*
X0186105Y0112592D01*
X0185306Y0111793D02*
X0182561Y0111793D01*
X0182977Y0110995D02*
X0184890Y0110995D01*
X0184560Y0110196D02*
X0183308Y0110196D01*
X0183384Y0109398D02*
X0184484Y0109398D01*
X0184484Y0108599D02*
X0183384Y0108599D01*
X0183201Y0107801D02*
X0184667Y0107801D01*
X0184997Y0107002D02*
X0182870Y0107002D01*
X0182303Y0106204D02*
X0185564Y0106204D01*
X0186363Y0105405D02*
X0181504Y0105405D01*
X0176363Y0105405D02*
X0171504Y0105405D01*
X0171454Y0105355D02*
X0172706Y0106607D01*
X0173384Y0108242D01*
X0173384Y0110013D01*
X0172706Y0111648D01*
X0171454Y0112900D01*
X0169819Y0113578D01*
X0168049Y0113578D01*
X0166413Y0112900D01*
X0165161Y0111648D01*
X0164484Y0110013D01*
X0164484Y0108242D01*
X0165161Y0106607D01*
X0166413Y0105355D01*
X0168049Y0104678D01*
X0169819Y0104678D01*
X0171454Y0105355D01*
X0172303Y0106204D02*
X0175564Y0106204D01*
X0174997Y0107002D02*
X0172870Y0107002D01*
X0173201Y0107801D02*
X0174667Y0107801D01*
X0174484Y0108599D02*
X0173384Y0108599D01*
X0173384Y0109398D02*
X0174484Y0109398D01*
X0174560Y0110196D02*
X0173308Y0110196D01*
X0172977Y0110995D02*
X0174890Y0110995D01*
X0175306Y0111793D02*
X0172561Y0111793D01*
X0171763Y0112592D02*
X0176105Y0112592D01*
X0177596Y0113390D02*
X0170271Y0113390D01*
X0171530Y0115216D02*
X0172431Y0114843D01*
X0173405Y0114843D01*
X0174306Y0115216D01*
X0174995Y0115905D01*
X0175368Y0116806D01*
X0175368Y0117780D01*
X0174995Y0118681D01*
X0174306Y0119370D01*
X0173405Y0119743D01*
X0172431Y0119743D01*
X0171530Y0119370D01*
X0170841Y0118681D01*
X0170468Y0117780D01*
X0170468Y0116806D01*
X0170841Y0115905D01*
X0171530Y0115216D01*
X0172082Y0114987D02*
X0045336Y0114987D01*
X0045730Y0114189D02*
X0251977Y0114189D01*
X0251178Y0114987D02*
X0173754Y0114987D01*
X0174876Y0115786D02*
X0250380Y0115786D01*
X0249581Y0116584D02*
X0175276Y0116584D01*
X0175368Y0117383D02*
X0248783Y0117383D01*
X0247984Y0118181D02*
X0175202Y0118181D01*
X0174696Y0118980D02*
X0247186Y0118980D01*
X0246387Y0119778D02*
X0046075Y0119778D01*
X0046075Y0120577D02*
X0245588Y0120577D01*
X0244790Y0121375D02*
X0046015Y0121375D01*
X0045684Y0122174D02*
X0243991Y0122174D01*
X0243193Y0122972D02*
X0045225Y0122972D01*
X0044427Y0123771D02*
X0221894Y0123771D01*
X0220177Y0124569D02*
X0030910Y0124569D01*
X0030910Y0123771D02*
X0039425Y0123771D01*
X0038627Y0122972D02*
X0030910Y0122972D01*
X0030910Y0122174D02*
X0038168Y0122174D01*
X0037837Y0121375D02*
X0030910Y0121375D01*
X0030910Y0120577D02*
X0037776Y0120577D01*
X0037776Y0119778D02*
X0030910Y0119778D01*
X0030910Y0118980D02*
X0038024Y0118980D01*
X0038355Y0118181D02*
X0030910Y0118181D01*
X0030910Y0117383D02*
X0039078Y0117383D01*
X0040302Y0116584D02*
X0030910Y0116584D01*
X0030910Y0115786D02*
X0039314Y0115786D01*
X0038516Y0114987D02*
X0030910Y0114987D01*
X0030910Y0114189D02*
X0038122Y0114189D01*
X0037791Y0113390D02*
X0030910Y0113390D01*
X0030910Y0112592D02*
X0037776Y0112592D01*
X0037776Y0111793D02*
X0030910Y0111793D01*
X0030910Y0110995D02*
X0038070Y0110995D01*
X0038401Y0110196D02*
X0030910Y0110196D01*
X0030910Y0109398D02*
X0039189Y0109398D01*
X0040570Y0108599D02*
X0030910Y0108599D01*
X0030910Y0107801D02*
X0039203Y0107801D01*
X0038407Y0107002D02*
X0030910Y0107002D01*
X0030910Y0106204D02*
X0038076Y0106204D01*
X0037776Y0105405D02*
X0030910Y0105405D01*
X0030910Y0104607D02*
X0037776Y0104607D01*
X0037785Y0103808D02*
X0030910Y0103808D01*
X0030910Y0103010D02*
X0038116Y0103010D01*
X0038502Y0102211D02*
X0030910Y0102211D01*
X0030910Y0101413D02*
X0039300Y0101413D01*
X0040838Y0100614D02*
X0030910Y0100614D01*
X0030910Y0099816D02*
X0266350Y0099816D01*
X0265551Y0100614D02*
X0043013Y0100614D01*
X0044552Y0101413D02*
X0264753Y0101413D01*
X0267148Y0099017D02*
X0030910Y0099017D01*
X0030910Y0098219D02*
X0267947Y0098219D01*
X0268745Y0097420D02*
X0030910Y0097420D01*
X0030910Y0096622D02*
X0269544Y0096622D01*
X0270342Y0095823D02*
X0030910Y0095823D01*
X0030910Y0095025D02*
X0271141Y0095025D01*
X0271939Y0094226D02*
X0030910Y0094226D01*
X0030910Y0093427D02*
X0272738Y0093427D01*
X0272181Y0092629D02*
X0273536Y0092629D01*
X0273606Y0091830D02*
X0273345Y0091830D01*
X0270655Y0092629D02*
X0030910Y0092629D01*
X0030910Y0090233D02*
X0070753Y0090233D01*
X0070572Y0089435D02*
X0030910Y0089435D01*
X0030910Y0088636D02*
X0070572Y0088636D01*
X0070829Y0087838D02*
X0030910Y0087838D01*
X0030910Y0087039D02*
X0071267Y0087039D01*
X0072117Y0086241D02*
X0030910Y0086241D01*
X0046075Y0105405D02*
X0066363Y0105405D01*
X0066413Y0105355D02*
X0068049Y0104678D01*
X0069819Y0104678D01*
X0071454Y0105355D01*
X0072706Y0106607D01*
X0073384Y0108242D01*
X0073384Y0110013D01*
X0072706Y0111648D01*
X0071454Y0112900D01*
X0069819Y0113578D01*
X0068049Y0113578D01*
X0066413Y0112900D01*
X0065161Y0111648D01*
X0064484Y0110013D01*
X0064484Y0108242D01*
X0065161Y0106607D01*
X0066413Y0105355D01*
X0065564Y0106204D02*
X0045776Y0106204D01*
X0045445Y0107002D02*
X0064997Y0107002D01*
X0064667Y0107801D02*
X0044649Y0107801D01*
X0043281Y0108599D02*
X0064484Y0108599D01*
X0064484Y0109398D02*
X0044663Y0109398D01*
X0045451Y0110196D02*
X0064560Y0110196D01*
X0064890Y0110995D02*
X0045782Y0110995D01*
X0046075Y0111793D02*
X0065306Y0111793D01*
X0066105Y0112592D02*
X0046075Y0112592D01*
X0046061Y0113390D02*
X0067596Y0113390D01*
X0070271Y0113390D02*
X0077596Y0113390D01*
X0078049Y0113578D02*
X0076413Y0112900D01*
X0075161Y0111648D01*
X0074484Y0110013D01*
X0074484Y0108242D01*
X0075161Y0106607D01*
X0076413Y0105355D01*
X0078049Y0104678D01*
X0079819Y0104678D01*
X0081454Y0105355D01*
X0082706Y0106607D01*
X0083384Y0108242D01*
X0083384Y0110013D01*
X0082706Y0111648D01*
X0081454Y0112900D01*
X0079819Y0113578D01*
X0078049Y0113578D01*
X0076105Y0112592D02*
X0071763Y0112592D01*
X0072561Y0111793D02*
X0075306Y0111793D01*
X0074890Y0110995D02*
X0072977Y0110995D01*
X0073308Y0110196D02*
X0074560Y0110196D01*
X0074484Y0109398D02*
X0073384Y0109398D01*
X0073384Y0108599D02*
X0074484Y0108599D01*
X0074667Y0107801D02*
X0073201Y0107801D01*
X0072870Y0107002D02*
X0074997Y0107002D01*
X0075564Y0106204D02*
X0072303Y0106204D01*
X0071504Y0105405D02*
X0076363Y0105405D01*
X0081504Y0105405D02*
X0086363Y0105405D01*
X0086413Y0105355D02*
X0088049Y0104678D01*
X0089819Y0104678D01*
X0091454Y0105355D01*
X0092706Y0106607D01*
X0093384Y0108242D01*
X0093384Y0110013D01*
X0092706Y0111648D01*
X0091454Y0112900D01*
X0089819Y0113578D01*
X0088049Y0113578D01*
X0086413Y0112900D01*
X0085161Y0111648D01*
X0084484Y0110013D01*
X0084484Y0108242D01*
X0085161Y0106607D01*
X0086413Y0105355D01*
X0085564Y0106204D02*
X0082303Y0106204D01*
X0082870Y0107002D02*
X0084997Y0107002D01*
X0084667Y0107801D02*
X0083201Y0107801D01*
X0083384Y0108599D02*
X0084484Y0108599D01*
X0084484Y0109398D02*
X0083384Y0109398D01*
X0083308Y0110196D02*
X0084560Y0110196D01*
X0084890Y0110995D02*
X0082977Y0110995D01*
X0082561Y0111793D02*
X0085306Y0111793D01*
X0086105Y0112592D02*
X0081763Y0112592D01*
X0080271Y0113390D02*
X0087596Y0113390D01*
X0090271Y0113390D02*
X0097596Y0113390D01*
X0098049Y0113578D02*
X0096413Y0112900D01*
X0095161Y0111648D01*
X0094484Y0110013D01*
X0094484Y0108242D01*
X0095161Y0106607D01*
X0096413Y0105355D01*
X0098049Y0104678D01*
X0099819Y0104678D01*
X0101454Y0105355D01*
X0102706Y0106607D01*
X0103384Y0108242D01*
X0103384Y0110013D01*
X0102706Y0111648D01*
X0101454Y0112900D01*
X0099819Y0113578D01*
X0098049Y0113578D01*
X0096105Y0112592D02*
X0091763Y0112592D01*
X0092561Y0111793D02*
X0095306Y0111793D01*
X0094890Y0110995D02*
X0092977Y0110995D01*
X0093308Y0110196D02*
X0094560Y0110196D01*
X0094484Y0109398D02*
X0093384Y0109398D01*
X0093384Y0108599D02*
X0094484Y0108599D01*
X0094667Y0107801D02*
X0093201Y0107801D01*
X0092870Y0107002D02*
X0094997Y0107002D01*
X0095564Y0106204D02*
X0092303Y0106204D01*
X0091504Y0105405D02*
X0096363Y0105405D01*
X0101504Y0105405D02*
X0106363Y0105405D01*
X0106413Y0105355D02*
X0108049Y0104678D01*
X0109819Y0104678D01*
X0111454Y0105355D01*
X0112706Y0106607D01*
X0113384Y0108242D01*
X0113384Y0110013D01*
X0112706Y0111648D01*
X0111454Y0112900D01*
X0109819Y0113578D01*
X0108049Y0113578D01*
X0106413Y0112900D01*
X0105161Y0111648D01*
X0104484Y0110013D01*
X0104484Y0108242D01*
X0105161Y0106607D01*
X0106413Y0105355D01*
X0105564Y0106204D02*
X0102303Y0106204D01*
X0102870Y0107002D02*
X0104997Y0107002D01*
X0104667Y0107801D02*
X0103201Y0107801D01*
X0103384Y0108599D02*
X0104484Y0108599D01*
X0104484Y0109398D02*
X0103384Y0109398D01*
X0103308Y0110196D02*
X0104560Y0110196D01*
X0104890Y0110995D02*
X0102977Y0110995D01*
X0102561Y0111793D02*
X0105306Y0111793D01*
X0106105Y0112592D02*
X0101763Y0112592D01*
X0100271Y0113390D02*
X0107596Y0113390D01*
X0110271Y0113390D02*
X0117596Y0113390D01*
X0118049Y0113578D02*
X0116413Y0112900D01*
X0115161Y0111648D01*
X0114484Y0110013D01*
X0114484Y0108242D01*
X0115161Y0106607D01*
X0116413Y0105355D01*
X0118049Y0104678D01*
X0119819Y0104678D01*
X0121454Y0105355D01*
X0122706Y0106607D01*
X0123384Y0108242D01*
X0123384Y0110013D01*
X0122706Y0111648D01*
X0121454Y0112900D01*
X0119819Y0113578D01*
X0118049Y0113578D01*
X0116105Y0112592D02*
X0111763Y0112592D01*
X0112561Y0111793D02*
X0115306Y0111793D01*
X0114890Y0110995D02*
X0112977Y0110995D01*
X0113308Y0110196D02*
X0114560Y0110196D01*
X0114484Y0109398D02*
X0113384Y0109398D01*
X0113384Y0108599D02*
X0114484Y0108599D01*
X0114667Y0107801D02*
X0113201Y0107801D01*
X0112870Y0107002D02*
X0114997Y0107002D01*
X0115564Y0106204D02*
X0112303Y0106204D01*
X0111504Y0105405D02*
X0116363Y0105405D01*
X0121504Y0105405D02*
X0126363Y0105405D01*
X0126413Y0105355D02*
X0128049Y0104678D01*
X0129819Y0104678D01*
X0131454Y0105355D01*
X0132706Y0106607D01*
X0133384Y0108242D01*
X0133384Y0110013D01*
X0132706Y0111648D01*
X0131454Y0112900D01*
X0129819Y0113578D01*
X0128049Y0113578D01*
X0126413Y0112900D01*
X0125161Y0111648D01*
X0124484Y0110013D01*
X0124484Y0108242D01*
X0125161Y0106607D01*
X0126413Y0105355D01*
X0125564Y0106204D02*
X0122303Y0106204D01*
X0122870Y0107002D02*
X0124997Y0107002D01*
X0124667Y0107801D02*
X0123201Y0107801D01*
X0123384Y0108599D02*
X0124484Y0108599D01*
X0124484Y0109398D02*
X0123384Y0109398D01*
X0123308Y0110196D02*
X0124560Y0110196D01*
X0124890Y0110995D02*
X0122977Y0110995D01*
X0122561Y0111793D02*
X0125306Y0111793D01*
X0126105Y0112592D02*
X0121763Y0112592D01*
X0120271Y0113390D02*
X0127596Y0113390D01*
X0130271Y0113390D02*
X0137596Y0113390D01*
X0138049Y0113578D02*
X0136413Y0112900D01*
X0135161Y0111648D01*
X0134484Y0110013D01*
X0134484Y0108242D01*
X0135161Y0106607D01*
X0136413Y0105355D01*
X0138049Y0104678D01*
X0139819Y0104678D01*
X0141454Y0105355D01*
X0142706Y0106607D01*
X0143384Y0108242D01*
X0143384Y0110013D01*
X0142706Y0111648D01*
X0141454Y0112900D01*
X0139819Y0113578D01*
X0138049Y0113578D01*
X0136105Y0112592D02*
X0131763Y0112592D01*
X0132561Y0111793D02*
X0135306Y0111793D01*
X0134890Y0110995D02*
X0132977Y0110995D01*
X0133308Y0110196D02*
X0134560Y0110196D01*
X0134484Y0109398D02*
X0133384Y0109398D01*
X0133384Y0108599D02*
X0134484Y0108599D01*
X0134667Y0107801D02*
X0133201Y0107801D01*
X0132870Y0107002D02*
X0134997Y0107002D01*
X0135564Y0106204D02*
X0132303Y0106204D01*
X0131504Y0105405D02*
X0136363Y0105405D01*
X0141504Y0105405D02*
X0146363Y0105405D01*
X0146413Y0105355D02*
X0148049Y0104678D01*
X0149819Y0104678D01*
X0151454Y0105355D01*
X0152706Y0106607D01*
X0153384Y0108242D01*
X0153384Y0110013D01*
X0152706Y0111648D01*
X0151454Y0112900D01*
X0149819Y0113578D01*
X0148049Y0113578D01*
X0146413Y0112900D01*
X0145161Y0111648D01*
X0144484Y0110013D01*
X0144484Y0108242D01*
X0145161Y0106607D01*
X0146413Y0105355D01*
X0145564Y0106204D02*
X0142303Y0106204D01*
X0142870Y0107002D02*
X0144997Y0107002D01*
X0144667Y0107801D02*
X0143201Y0107801D01*
X0143384Y0108599D02*
X0144484Y0108599D01*
X0144484Y0109398D02*
X0143384Y0109398D01*
X0143308Y0110196D02*
X0144560Y0110196D01*
X0144890Y0110995D02*
X0142977Y0110995D01*
X0142561Y0111793D02*
X0145306Y0111793D01*
X0146105Y0112592D02*
X0141763Y0112592D01*
X0140271Y0113390D02*
X0147596Y0113390D01*
X0150271Y0113390D02*
X0157596Y0113390D01*
X0158049Y0113578D02*
X0156413Y0112900D01*
X0155161Y0111648D01*
X0154484Y0110013D01*
X0154484Y0108242D01*
X0155161Y0106607D01*
X0156413Y0105355D01*
X0158049Y0104678D01*
X0159819Y0104678D01*
X0161454Y0105355D01*
X0162706Y0106607D01*
X0163384Y0108242D01*
X0163384Y0110013D01*
X0162706Y0111648D01*
X0161454Y0112900D01*
X0159819Y0113578D01*
X0158049Y0113578D01*
X0156105Y0112592D02*
X0151763Y0112592D01*
X0152561Y0111793D02*
X0155306Y0111793D01*
X0154890Y0110995D02*
X0152977Y0110995D01*
X0153308Y0110196D02*
X0154560Y0110196D01*
X0154484Y0109398D02*
X0153384Y0109398D01*
X0153384Y0108599D02*
X0154484Y0108599D01*
X0154667Y0107801D02*
X0153201Y0107801D01*
X0152870Y0107002D02*
X0154997Y0107002D01*
X0155564Y0106204D02*
X0152303Y0106204D01*
X0151504Y0105405D02*
X0156363Y0105405D01*
X0161504Y0105405D02*
X0166363Y0105405D01*
X0165564Y0106204D02*
X0162303Y0106204D01*
X0162870Y0107002D02*
X0164997Y0107002D01*
X0164667Y0107801D02*
X0163201Y0107801D01*
X0163384Y0108599D02*
X0164484Y0108599D01*
X0164484Y0109398D02*
X0163384Y0109398D01*
X0163308Y0110196D02*
X0164560Y0110196D01*
X0164890Y0110995D02*
X0162977Y0110995D01*
X0162561Y0111793D02*
X0165306Y0111793D01*
X0166105Y0112592D02*
X0161763Y0112592D01*
X0160271Y0113390D02*
X0167596Y0113390D01*
X0170960Y0115786D02*
X0044538Y0115786D01*
X0043550Y0116584D02*
X0170560Y0116584D01*
X0170468Y0117383D02*
X0044774Y0117383D01*
X0045497Y0118181D02*
X0170634Y0118181D01*
X0171140Y0118980D02*
X0045828Y0118980D01*
X0030910Y0125368D02*
X0219649Y0125368D01*
X0219468Y0126166D02*
X0030910Y0126166D01*
X0030910Y0126965D02*
X0151636Y0126965D01*
X0150483Y0127763D02*
X0030910Y0127763D01*
X0030910Y0128562D02*
X0150069Y0128562D01*
X0149968Y0129360D02*
X0030910Y0129360D01*
X0030910Y0130159D02*
X0150125Y0130159D01*
X0150618Y0130958D02*
X0030910Y0130958D01*
X0030910Y0131756D02*
X0152760Y0131756D01*
X0153558Y0132555D02*
X0030910Y0132555D01*
X0030910Y0133353D02*
X0154357Y0133353D01*
X0155155Y0134152D02*
X0030910Y0134152D01*
X0030910Y0134950D02*
X0155954Y0134950D01*
X0156752Y0135749D02*
X0030910Y0135749D01*
X0030910Y0136547D02*
X0157551Y0136547D01*
X0158599Y0133353D02*
X0264331Y0133353D01*
X0263768Y0132555D02*
X0157801Y0132555D01*
X0157002Y0131756D02*
X0263437Y0131756D01*
X0263218Y0130958D02*
X0156204Y0130958D01*
X0155405Y0130159D02*
X0263218Y0130159D01*
X0263218Y0129360D02*
X0154868Y0129360D01*
X0154767Y0128562D02*
X0220994Y0128562D01*
X0219924Y0127763D02*
X0154353Y0127763D01*
X0153200Y0126965D02*
X0219544Y0126965D01*
X0222842Y0128562D02*
X0263548Y0128562D01*
X0263878Y0127763D02*
X0223912Y0127763D01*
X0224291Y0126965D02*
X0264599Y0126965D01*
X0265599Y0126166D02*
X0245090Y0126166D01*
X0277418Y0119778D02*
X0279418Y0119778D01*
X0279418Y0118980D02*
X0277418Y0118980D01*
X0277418Y0118181D02*
X0279418Y0118181D01*
X0279418Y0117383D02*
X0277418Y0117383D01*
X0277418Y0116584D02*
X0279418Y0116584D01*
X0279418Y0115786D02*
X0277418Y0115786D01*
X0277418Y0114987D02*
X0279418Y0114987D01*
X0279418Y0114189D02*
X0277418Y0114189D01*
X0277418Y0113390D02*
X0279418Y0113390D01*
X0279418Y0112592D02*
X0277418Y0112592D01*
X0277418Y0111793D02*
X0279418Y0111793D01*
X0279418Y0110995D02*
X0277418Y0110995D01*
X0277418Y0110196D02*
X0279418Y0110196D01*
X0279418Y0109398D02*
X0277418Y0109398D01*
X0277418Y0108599D02*
X0279418Y0108599D01*
X0278961Y0107801D02*
X0277875Y0107801D01*
X0278276Y0107002D02*
X0278560Y0107002D01*
X0278468Y0106204D02*
X0278368Y0106204D01*
X0278202Y0105405D02*
X0278634Y0105405D01*
X0279139Y0104607D02*
X0277696Y0104607D01*
X0282345Y0091830D02*
X0429418Y0091830D01*
X0429418Y0091032D02*
X0282764Y0091032D01*
X0282868Y0090233D02*
X0429418Y0090233D01*
X0429418Y0089435D02*
X0282714Y0089435D01*
X0282226Y0088636D02*
X0429418Y0088636D01*
X0429418Y0087838D02*
X0282218Y0087838D01*
X0282218Y0087039D02*
X0429418Y0087039D01*
X0429418Y0086241D02*
X0282218Y0086241D01*
X0282218Y0085442D02*
X0429418Y0085442D01*
X0429418Y0084644D02*
X0282218Y0084644D01*
X0282218Y0083845D02*
X0429418Y0083845D01*
X0429418Y0083047D02*
X0282218Y0083047D01*
X0282218Y0082248D02*
X0429418Y0082248D01*
X0429318Y0081450D02*
X0282218Y0081450D01*
X0282218Y0080651D02*
X0429318Y0080651D01*
X0429318Y0079853D02*
X0282218Y0079853D01*
X0282218Y0079054D02*
X0429318Y0079054D01*
X0429318Y0078256D02*
X0282218Y0078256D01*
X0282218Y0077457D02*
X0429318Y0077457D01*
X0429318Y0076659D02*
X0290487Y0076659D01*
X0290706Y0075860D02*
X0429318Y0075860D01*
X0429318Y0075062D02*
X0290706Y0075062D01*
X0291210Y0074263D02*
X0429318Y0074263D01*
X0429318Y0073465D02*
X0292009Y0073465D01*
X0292807Y0072666D02*
X0429318Y0072666D01*
X0429318Y0071868D02*
X0293606Y0071868D01*
X0294405Y0071069D02*
X0429318Y0071069D01*
X0429318Y0070271D02*
X0295203Y0070271D01*
X0296002Y0069472D02*
X0429318Y0069472D01*
X0429318Y0068674D02*
X0296800Y0068674D01*
X0297599Y0067875D02*
X0429318Y0067875D01*
X0429318Y0067077D02*
X0298397Y0067077D01*
X0299196Y0066278D02*
X0429318Y0066278D01*
X0429318Y0065480D02*
X0299994Y0065480D01*
X0300793Y0064681D02*
X0429043Y0064681D01*
X0428245Y0063883D02*
X0301591Y0063883D01*
X0302390Y0063084D02*
X0427446Y0063084D01*
X0429576Y0060689D02*
X0431547Y0060689D01*
X0432534Y0061487D02*
X0430375Y0061487D01*
X0431173Y0062286D02*
X0433114Y0062286D01*
X0433682Y0063084D02*
X0431972Y0063084D01*
X0432518Y0063883D02*
X0433942Y0063883D01*
X0434201Y0064681D02*
X0432518Y0064681D01*
X0432518Y0065480D02*
X0434367Y0065480D01*
X0434422Y0066278D02*
X0432518Y0066278D01*
X0432518Y0067077D02*
X0434430Y0067077D01*
X0434430Y0067875D02*
X0432518Y0067875D01*
X0432518Y0068674D02*
X0434430Y0068674D01*
X0434430Y0069472D02*
X0432518Y0069472D01*
X0432518Y0070271D02*
X0434430Y0070271D01*
X0434430Y0071069D02*
X0432518Y0071069D01*
X0432518Y0071868D02*
X0434430Y0071868D01*
X0434430Y0072666D02*
X0432518Y0072666D01*
X0432518Y0073465D02*
X0434430Y0073465D01*
X0434430Y0074263D02*
X0432518Y0074263D01*
X0432518Y0075062D02*
X0434430Y0075062D01*
X0434430Y0075860D02*
X0432518Y0075860D01*
X0432518Y0076659D02*
X0434430Y0076659D01*
X0434430Y0077457D02*
X0432518Y0077457D01*
X0432518Y0078256D02*
X0434430Y0078256D01*
X0434430Y0079054D02*
X0432518Y0079054D01*
X0432518Y0079853D02*
X0434430Y0079853D01*
X0434430Y0080651D02*
X0432518Y0080651D01*
X0432518Y0081450D02*
X0434430Y0081450D01*
X0434430Y0082248D02*
X0432418Y0082248D01*
X0432418Y0083047D02*
X0434430Y0083047D01*
X0434430Y0083845D02*
X0432418Y0083845D01*
X0432418Y0084644D02*
X0434430Y0084644D01*
X0434430Y0085442D02*
X0432418Y0085442D01*
X0432418Y0086241D02*
X0434430Y0086241D01*
X0434430Y0087039D02*
X0432418Y0087039D01*
X0432418Y0087838D02*
X0434430Y0087838D01*
X0434430Y0088636D02*
X0432418Y0088636D01*
X0432418Y0089435D02*
X0434430Y0089435D01*
X0434430Y0090233D02*
X0432418Y0090233D01*
X0432418Y0091032D02*
X0434430Y0091032D01*
X0434430Y0091830D02*
X0432418Y0091830D01*
X0432418Y0092629D02*
X0434430Y0092629D01*
X0434430Y0093427D02*
X0432418Y0093427D01*
X0432418Y0094226D02*
X0434430Y0094226D01*
X0434430Y0095025D02*
X0432418Y0095025D01*
X0432418Y0095823D02*
X0434430Y0095823D01*
X0434430Y0096622D02*
X0432418Y0096622D01*
X0432418Y0097420D02*
X0434430Y0097420D01*
X0434430Y0098219D02*
X0432418Y0098219D01*
X0432418Y0099017D02*
X0434430Y0099017D01*
X0434430Y0099816D02*
X0432418Y0099816D01*
X0432418Y0100614D02*
X0434430Y0100614D01*
X0434430Y0101413D02*
X0432418Y0101413D01*
X0432418Y0102211D02*
X0434430Y0102211D01*
X0434430Y0103010D02*
X0432418Y0103010D01*
X0432418Y0103808D02*
X0434430Y0103808D01*
X0434430Y0104607D02*
X0432418Y0104607D01*
X0432418Y0105405D02*
X0434430Y0105405D01*
X0434430Y0106204D02*
X0432418Y0106204D01*
X0431930Y0107002D02*
X0434382Y0107002D01*
X0433184Y0107801D02*
X0431132Y0107801D01*
X0430333Y0108599D02*
X0431987Y0108599D01*
X0430789Y0109398D02*
X0429535Y0109398D01*
X0429591Y0110196D02*
X0428736Y0110196D01*
X0428393Y0110995D02*
X0427938Y0110995D01*
X0427196Y0111793D02*
X0427139Y0111793D01*
X0409177Y0123771D02*
X0407028Y0123771D01*
X0407028Y0124569D02*
X0408379Y0124569D01*
X0407580Y0125368D02*
X0407028Y0125368D01*
X0298663Y0062286D02*
X0293153Y0062286D01*
X0293368Y0063084D02*
X0297864Y0063084D01*
X0297066Y0063883D02*
X0293326Y0063883D01*
X0292995Y0064681D02*
X0296267Y0064681D01*
X0295469Y0065480D02*
X0292041Y0065480D01*
X0289795Y0065480D02*
X0273211Y0065480D01*
X0272818Y0066278D02*
X0294670Y0066278D01*
X0293872Y0067077D02*
X0272818Y0067077D01*
X0272818Y0067875D02*
X0293073Y0067875D01*
X0292275Y0068674D02*
X0272818Y0068674D01*
X0270050Y0064681D02*
X0031131Y0064681D01*
X0031390Y0063883D02*
X0270848Y0063883D01*
X0271647Y0063084D02*
X0031650Y0063084D01*
X0032218Y0062286D02*
X0272446Y0062286D01*
X0290706Y0069472D02*
X0291476Y0069472D01*
X0292577Y0061487D02*
X0299461Y0061487D01*
X0278618Y0077457D02*
X0277206Y0077457D01*
X0277206Y0078256D02*
X0278618Y0078256D01*
X0278618Y0079054D02*
X0277206Y0079054D01*
X0277206Y0079853D02*
X0278618Y0079853D01*
X0278618Y0080651D02*
X0277206Y0080651D01*
X0277206Y0081450D02*
X0278618Y0081450D01*
X0278618Y0082248D02*
X0277206Y0082248D01*
X0236784Y0091032D02*
X0235838Y0091978D01*
X0231882Y0091830D02*
X0075986Y0091830D01*
X0077296Y0089435D02*
X0230572Y0089435D01*
X0230572Y0089796D02*
X0231083Y0091032D01*
X0230572Y0088636D02*
X0077296Y0088636D01*
X0077039Y0087838D02*
X0230829Y0087838D01*
X0231267Y0087039D02*
X0076600Y0087039D01*
X0075750Y0086241D02*
X0232117Y0086241D01*
X0148901Y0137346D02*
X0030910Y0137346D01*
X0030910Y0138144D02*
X0148242Y0138144D01*
X0147968Y0138943D02*
X0030910Y0138943D01*
X0030910Y0139741D02*
X0147968Y0139741D01*
X0076977Y0167689D02*
X0230890Y0167689D01*
X0230572Y0168488D02*
X0077296Y0168488D01*
X0077296Y0169286D02*
X0230572Y0169286D01*
X0230691Y0170085D02*
X0077177Y0170085D01*
X0076846Y0170883D02*
X0231022Y0170883D01*
X0231733Y0171682D02*
X0076135Y0171682D01*
X0076451Y0166891D02*
X0231416Y0166891D01*
X0232476Y0166092D02*
X0075391Y0166092D01*
X0428778Y0059890D02*
X0430176Y0059890D01*
D19*
X0403934Y0066167D03*
X0396060Y0066167D03*
X0388186Y0066167D03*
X0380312Y0066167D03*
X0372438Y0066167D03*
X0364564Y0066167D03*
X0356690Y0066167D03*
X0348816Y0066167D03*
X0340942Y0066167D03*
X0333068Y0066167D03*
X0325194Y0067167D03*
X0325194Y0074041D03*
X0333068Y0074041D03*
X0340942Y0074041D03*
X0348816Y0074041D03*
X0356690Y0074041D03*
X0364564Y0074041D03*
X0372438Y0074041D03*
X0380312Y0074041D03*
X0388186Y0074041D03*
X0396060Y0074041D03*
X0403934Y0074041D03*
X0403934Y0081915D03*
X0396060Y0081915D03*
X0388186Y0081915D03*
X0380312Y0081915D03*
X0372438Y0081915D03*
X0364564Y0081915D03*
X0356690Y0081915D03*
X0348816Y0081915D03*
X0340942Y0081915D03*
X0333068Y0081915D03*
X0325194Y0081915D03*
X0317320Y0081915D03*
X0309446Y0081915D03*
X0301572Y0081915D03*
X0301572Y0089789D03*
X0309446Y0089789D03*
X0317320Y0089789D03*
X0325194Y0089789D03*
X0333068Y0089789D03*
X0340942Y0089789D03*
X0348816Y0089789D03*
X0356690Y0089789D03*
X0364564Y0089789D03*
X0372438Y0089789D03*
X0380312Y0089789D03*
X0388186Y0089789D03*
X0396060Y0089789D03*
X0403934Y0089789D03*
X0411808Y0089789D03*
X0419682Y0089789D03*
X0427556Y0089789D03*
X0427556Y0097663D03*
X0419682Y0097663D03*
X0411808Y0097663D03*
X0411808Y0105537D03*
X0419682Y0105537D03*
X0427556Y0105537D03*
X0419682Y0113411D03*
X0411808Y0113411D03*
X0411808Y0121285D03*
X0419682Y0121285D03*
X0419682Y0129159D03*
X0411808Y0129159D03*
X0411808Y0137033D03*
X0419682Y0137033D03*
X0419682Y0144907D03*
X0411808Y0144907D03*
X0411808Y0152781D03*
X0419682Y0152781D03*
X0427556Y0152781D03*
X0427556Y0160655D03*
X0419682Y0160655D03*
X0411808Y0160655D03*
X0411808Y0168529D03*
X0419682Y0168529D03*
X0427556Y0168529D03*
X0403934Y0168529D03*
X0396060Y0168529D03*
X0388186Y0168529D03*
X0380312Y0168529D03*
X0372438Y0168529D03*
X0364564Y0168529D03*
X0356690Y0168529D03*
X0348816Y0168529D03*
X0340942Y0168529D03*
X0333068Y0168529D03*
X0325194Y0168529D03*
X0317320Y0168529D03*
X0309446Y0168529D03*
X0301572Y0168529D03*
X0301572Y0160655D03*
X0309446Y0160655D03*
X0317320Y0160655D03*
X0325194Y0160655D03*
X0325194Y0152781D03*
X0317320Y0152781D03*
X0309446Y0152781D03*
X0301572Y0152781D03*
X0317320Y0144907D03*
X0325194Y0144907D03*
X0325194Y0139002D03*
X0325194Y0134080D03*
X0328737Y0134080D03*
X0321257Y0132506D03*
X0317320Y0132506D03*
X0313383Y0132506D03*
X0309446Y0132506D03*
X0303909Y0132906D03*
X0305509Y0136506D03*
X0297650Y0133033D03*
X0297831Y0129702D03*
X0294713Y0131096D03*
X0291276Y0131096D03*
X0287839Y0131128D03*
X0285018Y0129693D03*
X0285018Y0126193D03*
X0297635Y0122269D03*
X0297635Y0118332D03*
X0297635Y0114395D03*
X0293318Y0114293D03*
X0289118Y0114293D03*
X0284618Y0114493D03*
X0280918Y0106293D03*
X0275918Y0106293D03*
X0301572Y0105537D03*
X0309446Y0105537D03*
X0317320Y0105537D03*
X0325194Y0105537D03*
X0325194Y0097663D03*
X0317320Y0097663D03*
X0309446Y0097663D03*
X0301572Y0097663D03*
X0280418Y0090293D03*
X0271418Y0090293D03*
X0258618Y0088893D03*
X0254718Y0084693D03*
X0277918Y0066093D03*
X0281418Y0066093D03*
X0284918Y0066093D03*
X0288418Y0066093D03*
X0290918Y0063293D03*
X0309446Y0067167D03*
X0317320Y0067167D03*
X0317320Y0074041D03*
X0309446Y0074041D03*
X0356690Y0097663D03*
X0364564Y0097663D03*
X0372438Y0097663D03*
X0380312Y0097663D03*
X0380312Y0105537D03*
X0372438Y0105537D03*
X0364564Y0105537D03*
X0356690Y0105537D03*
X0356690Y0113411D03*
X0364564Y0113411D03*
X0372438Y0113411D03*
X0380312Y0113411D03*
X0380312Y0121285D03*
X0372438Y0121285D03*
X0364564Y0121285D03*
X0356690Y0121285D03*
X0356690Y0129159D03*
X0364564Y0129159D03*
X0372438Y0129159D03*
X0380312Y0129159D03*
X0380312Y0137033D03*
X0372438Y0137033D03*
X0364564Y0137033D03*
X0356690Y0137033D03*
X0356690Y0144907D03*
X0364564Y0144907D03*
X0372438Y0144907D03*
X0380312Y0144907D03*
X0380312Y0152781D03*
X0372438Y0152781D03*
X0364564Y0152781D03*
X0356690Y0152781D03*
X0356690Y0160655D03*
X0364564Y0160655D03*
X0372438Y0160655D03*
X0380312Y0160655D03*
X0380312Y0176403D03*
X0388186Y0176403D03*
X0396060Y0176403D03*
X0403934Y0176403D03*
X0403934Y0184277D03*
X0396060Y0184277D03*
X0388186Y0184277D03*
X0380312Y0184277D03*
X0372438Y0184277D03*
X0364564Y0184277D03*
X0356690Y0184277D03*
X0348816Y0184277D03*
X0340942Y0184277D03*
X0333068Y0184277D03*
X0325194Y0184277D03*
X0317320Y0184277D03*
X0309446Y0184277D03*
X0301572Y0184277D03*
X0301572Y0176403D03*
X0309446Y0176403D03*
X0317320Y0176403D03*
X0325194Y0176403D03*
X0333068Y0176403D03*
X0340942Y0176403D03*
X0348816Y0176403D03*
X0356690Y0176403D03*
X0364564Y0176403D03*
X0372438Y0176403D03*
X0372438Y0192151D03*
X0364564Y0192151D03*
X0356690Y0192151D03*
X0348816Y0192151D03*
X0340942Y0192151D03*
X0333068Y0192151D03*
X0325194Y0192151D03*
X0317320Y0192151D03*
X0309446Y0192151D03*
X0301572Y0192151D03*
X0256572Y0147329D03*
X0254172Y0145129D03*
X0251772Y0147329D03*
X0221918Y0126293D03*
X0182918Y0126293D03*
X0176018Y0124793D03*
X0172718Y0128093D03*
X0182918Y0129293D03*
X0182918Y0132293D03*
X0170918Y0139293D03*
X0161818Y0131193D03*
X0161718Y0126993D03*
X0152418Y0129293D03*
X0152318Y0125093D03*
X0156718Y0120593D03*
X0172918Y0117293D03*
X0150418Y0139293D03*
X0296650Y0136533D03*
X0305902Y0124041D03*
X0309446Y0124041D03*
X0313383Y0124041D03*
X0317320Y0124041D03*
X0321257Y0124041D03*
X0325194Y0124828D03*
X0328737Y0124828D03*
X0325194Y0120104D03*
X0317320Y0120104D03*
X0311018Y0120193D03*
X0309320Y0113411D03*
X0317320Y0113411D03*
X0325194Y0113411D03*
X0348816Y0129159D03*
X0317320Y0139002D03*
X0380312Y0192151D03*
X0388186Y0192151D03*
X0396060Y0192151D03*
X0403934Y0192151D03*
D20*
X0419682Y0184277D03*
X0419682Y0074041D03*
X0045666Y0074041D03*
X0045666Y0184277D03*
D21*
X0152418Y0129293D02*
X0158418Y0135293D01*
X0185099Y0135293D01*
X0198934Y0149128D01*
X0170918Y0139293D02*
X0168768Y0139293D01*
X0158934Y0149128D01*
X0267918Y0157293D02*
X0275918Y0149293D01*
X0275918Y0106293D01*
X0280918Y0106293D02*
X0280918Y0153293D01*
X0267918Y0166293D01*
X0413918Y0125293D02*
X0419918Y0125293D01*
X0422318Y0122893D01*
X0422318Y0114493D01*
X0430918Y0105893D01*
X0430918Y0081293D01*
D22*
X0430918Y0064293D01*
X0427918Y0061293D01*
X0301918Y0061293D01*
X0289918Y0073293D01*
X0287823Y0073293D01*
X0287406Y0072876D01*
X0398028Y0129159D02*
X0406052Y0129159D01*
X0409918Y0125293D01*
X0413918Y0125293D01*
M02*
