G75*
%MOIN*%
%OFA0B0*%
%FSLAX24Y24*%
%IPPOS*%
%LPD*%
%AMOC8*
5,1,8,0,0,1.08239X$1,22.5*
%
%ADD10C,0.0000*%
%ADD11C,0.0100*%
%ADD12C,0.0010*%
%ADD13C,0.0673*%
%ADD14R,0.0950X0.0950*%
%ADD15C,0.0950*%
%ADD16R,0.0315X0.0315*%
%ADD17R,0.0433X0.0394*%
%ADD18R,0.0394X0.0433*%
%ADD19R,0.0800X0.0800*%
%ADD20C,0.0800*%
%ADD21C,0.0787*%
%ADD22R,0.0551X0.0394*%
%ADD23R,0.0551X0.0551*%
%ADD24R,0.1000X0.1000*%
%ADD25C,0.0740*%
%ADD26R,0.0236X0.0354*%
%ADD27R,0.0709X0.2953*%
%ADD28R,0.0630X0.0709*%
%ADD29C,0.0240*%
%ADD30C,0.0240*%
%ADD31C,0.0280*%
%ADD32C,0.0748*%
%ADD33C,0.0400*%
%ADD34C,0.0020*%
%ADD35C,0.0560*%
%ADD36C,0.0160*%
%ADD37C,0.0360*%
%ADD38C,0.1000*%
%ADD39C,0.0860*%
%ADD40C,0.1660*%
%ADD41C,0.0700*%
D10*
X030650Y002500D02*
X030650Y008300D01*
X030850Y008500D02*
X030876Y008498D01*
X030902Y008493D01*
X030927Y008485D01*
X030950Y008473D01*
X030972Y008459D01*
X030991Y008441D01*
X031009Y008422D01*
X031023Y008400D01*
X031035Y008377D01*
X031043Y008352D01*
X031048Y008326D01*
X031050Y008300D01*
X031050Y002500D01*
X030850Y002300D02*
X030824Y002302D01*
X030798Y002307D01*
X030773Y002315D01*
X030750Y002327D01*
X030728Y002341D01*
X030709Y002359D01*
X030691Y002378D01*
X030677Y002400D01*
X030665Y002423D01*
X030657Y002448D01*
X030652Y002474D01*
X030650Y002500D01*
X030850Y002300D02*
X030876Y002302D01*
X030902Y002307D01*
X030927Y002315D01*
X030950Y002327D01*
X030972Y002341D01*
X030991Y002359D01*
X031009Y002378D01*
X031023Y002400D01*
X031035Y002423D01*
X031043Y002448D01*
X031048Y002474D01*
X031050Y002500D01*
X030650Y008300D02*
X030652Y008326D01*
X030657Y008352D01*
X030665Y008377D01*
X030677Y008400D01*
X030691Y008422D01*
X030709Y008441D01*
X030728Y008459D01*
X030750Y008473D01*
X030773Y008485D01*
X030798Y008493D01*
X030824Y008498D01*
X030850Y008500D01*
X028250Y011800D02*
X028250Y013300D01*
X027850Y013300D02*
X027850Y011800D01*
X027852Y011773D01*
X027857Y011746D01*
X027867Y011720D01*
X027879Y011696D01*
X027895Y011674D01*
X027913Y011654D01*
X027935Y011637D01*
X027958Y011622D01*
X027983Y011612D01*
X028009Y011604D01*
X028036Y011600D01*
X028064Y011600D01*
X028091Y011604D01*
X028117Y011612D01*
X028142Y011622D01*
X028165Y011637D01*
X028187Y011654D01*
X028205Y011674D01*
X028221Y011696D01*
X028233Y011720D01*
X028243Y011746D01*
X028248Y011773D01*
X028250Y011800D01*
X026450Y011800D02*
X026450Y013300D01*
X026050Y013400D02*
X026050Y011800D01*
X026052Y011773D01*
X026057Y011746D01*
X026067Y011720D01*
X026079Y011696D01*
X026095Y011674D01*
X026113Y011654D01*
X026135Y011637D01*
X026158Y011622D01*
X026183Y011612D01*
X026209Y011604D01*
X026236Y011600D01*
X026264Y011600D01*
X026291Y011604D01*
X026317Y011612D01*
X026342Y011622D01*
X026365Y011637D01*
X026387Y011654D01*
X026405Y011674D01*
X026421Y011696D01*
X026433Y011720D01*
X026443Y011746D01*
X026448Y011773D01*
X026450Y011800D01*
X026050Y013400D02*
X026058Y013465D01*
X026070Y013529D01*
X026086Y013592D01*
X026105Y013654D01*
X026128Y013715D01*
X026155Y013775D01*
X026185Y013833D01*
X026218Y013889D01*
X026255Y013943D01*
X026295Y013994D01*
X026337Y014044D01*
X026383Y014090D01*
X026431Y014134D01*
X026482Y014175D01*
X026535Y014213D01*
X026590Y014248D01*
X026647Y014279D01*
X026706Y014307D01*
X026767Y014331D01*
X026829Y014352D01*
X026892Y014369D01*
X026955Y014383D01*
X027020Y014392D01*
X027085Y014398D01*
X027150Y014400D01*
X027214Y014398D01*
X027278Y014393D01*
X027341Y014383D01*
X027404Y014370D01*
X027465Y014354D01*
X027526Y014334D01*
X027586Y014310D01*
X027644Y014283D01*
X027700Y014253D01*
X027754Y014219D01*
X027807Y014182D01*
X027857Y014143D01*
X027905Y014100D01*
X027950Y014055D01*
X027993Y014007D01*
X028032Y013957D01*
X028069Y013904D01*
X028103Y013850D01*
X028133Y013794D01*
X028160Y013736D01*
X028184Y013676D01*
X028204Y013615D01*
X028220Y013554D01*
X028233Y013491D01*
X028243Y013428D01*
X028248Y013364D01*
X028250Y013300D01*
X027850Y013300D02*
X027848Y013350D01*
X027843Y013400D01*
X027834Y013449D01*
X027822Y013497D01*
X027806Y013545D01*
X027787Y013591D01*
X027764Y013635D01*
X027739Y013678D01*
X027710Y013719D01*
X027679Y013758D01*
X027645Y013795D01*
X027608Y013829D01*
X027569Y013860D01*
X027528Y013889D01*
X027485Y013914D01*
X027441Y013937D01*
X027395Y013956D01*
X027347Y013972D01*
X027299Y013984D01*
X027250Y013993D01*
X027200Y013998D01*
X027150Y014000D01*
X027100Y013998D01*
X027050Y013993D01*
X027001Y013984D01*
X026953Y013972D01*
X026905Y013956D01*
X026859Y013937D01*
X026815Y013914D01*
X026772Y013889D01*
X026731Y013860D01*
X026692Y013829D01*
X026655Y013795D01*
X026621Y013758D01*
X026590Y013719D01*
X026561Y013678D01*
X026536Y013635D01*
X026513Y013591D01*
X026494Y013545D01*
X026478Y013497D01*
X026466Y013449D01*
X026457Y013400D01*
X026452Y013350D01*
X026450Y013300D01*
X021250Y013300D02*
X021250Y011800D01*
X021248Y011773D01*
X021243Y011746D01*
X021233Y011720D01*
X021221Y011696D01*
X021205Y011674D01*
X021187Y011654D01*
X021165Y011637D01*
X021142Y011622D01*
X021117Y011612D01*
X021091Y011604D01*
X021064Y011600D01*
X021036Y011600D01*
X021009Y011604D01*
X020983Y011612D01*
X020958Y011622D01*
X020935Y011637D01*
X020913Y011654D01*
X020895Y011674D01*
X020879Y011696D01*
X020867Y011720D01*
X020857Y011746D01*
X020852Y011773D01*
X020850Y011800D01*
X020850Y013300D01*
X021250Y013300D02*
X021248Y013364D01*
X021243Y013428D01*
X021233Y013491D01*
X021220Y013554D01*
X021204Y013615D01*
X021184Y013676D01*
X021160Y013736D01*
X021133Y013794D01*
X021103Y013850D01*
X021069Y013904D01*
X021032Y013957D01*
X020993Y014007D01*
X020950Y014055D01*
X020905Y014100D01*
X020857Y014143D01*
X020807Y014182D01*
X020754Y014219D01*
X020700Y014253D01*
X020644Y014283D01*
X020586Y014310D01*
X020526Y014334D01*
X020465Y014354D01*
X020404Y014370D01*
X020341Y014383D01*
X020278Y014393D01*
X020214Y014398D01*
X020150Y014400D01*
X020150Y014000D02*
X020200Y013998D01*
X020250Y013993D01*
X020299Y013984D01*
X020347Y013972D01*
X020395Y013956D01*
X020441Y013937D01*
X020485Y013914D01*
X020528Y013889D01*
X020569Y013860D01*
X020608Y013829D01*
X020645Y013795D01*
X020679Y013758D01*
X020710Y013719D01*
X020739Y013678D01*
X020764Y013635D01*
X020787Y013591D01*
X020806Y013545D01*
X020822Y013497D01*
X020834Y013449D01*
X020843Y013400D01*
X020848Y013350D01*
X020850Y013300D01*
X020150Y014000D02*
X020100Y013998D01*
X020050Y013993D01*
X020001Y013984D01*
X019953Y013972D01*
X019905Y013956D01*
X019859Y013937D01*
X019815Y013914D01*
X019772Y013889D01*
X019731Y013860D01*
X019692Y013829D01*
X019655Y013795D01*
X019621Y013758D01*
X019590Y013719D01*
X019561Y013678D01*
X019536Y013635D01*
X019513Y013591D01*
X019494Y013545D01*
X019478Y013497D01*
X019466Y013449D01*
X019457Y013400D01*
X019452Y013350D01*
X019450Y013300D01*
X019450Y011800D01*
X019448Y011773D01*
X019443Y011746D01*
X019433Y011720D01*
X019421Y011696D01*
X019405Y011674D01*
X019387Y011654D01*
X019365Y011637D01*
X019342Y011622D01*
X019317Y011612D01*
X019291Y011604D01*
X019264Y011600D01*
X019236Y011600D01*
X019209Y011604D01*
X019183Y011612D01*
X019158Y011622D01*
X019135Y011637D01*
X019113Y011654D01*
X019095Y011674D01*
X019079Y011696D01*
X019067Y011720D01*
X019057Y011746D01*
X019052Y011773D01*
X019050Y011800D01*
X019050Y013400D01*
X019058Y013465D01*
X019070Y013529D01*
X019086Y013592D01*
X019105Y013654D01*
X019128Y013715D01*
X019155Y013775D01*
X019185Y013833D01*
X019218Y013889D01*
X019255Y013943D01*
X019295Y013994D01*
X019337Y014044D01*
X019383Y014090D01*
X019431Y014134D01*
X019482Y014175D01*
X019535Y014213D01*
X019590Y014248D01*
X019647Y014279D01*
X019706Y014307D01*
X019767Y014331D01*
X019829Y014352D01*
X019892Y014369D01*
X019955Y014383D01*
X020020Y014392D01*
X020085Y014398D01*
X020150Y014400D01*
X014250Y013300D02*
X014250Y011800D01*
X014248Y011773D01*
X014243Y011746D01*
X014233Y011720D01*
X014221Y011696D01*
X014205Y011674D01*
X014187Y011654D01*
X014165Y011637D01*
X014142Y011622D01*
X014117Y011612D01*
X014091Y011604D01*
X014064Y011600D01*
X014036Y011600D01*
X014009Y011604D01*
X013983Y011612D01*
X013958Y011622D01*
X013935Y011637D01*
X013913Y011654D01*
X013895Y011674D01*
X013879Y011696D01*
X013867Y011720D01*
X013857Y011746D01*
X013852Y011773D01*
X013850Y011800D01*
X013850Y013300D01*
X014250Y013300D02*
X014248Y013364D01*
X014243Y013428D01*
X014233Y013491D01*
X014220Y013554D01*
X014204Y013615D01*
X014184Y013676D01*
X014160Y013736D01*
X014133Y013794D01*
X014103Y013850D01*
X014069Y013904D01*
X014032Y013957D01*
X013993Y014007D01*
X013950Y014055D01*
X013905Y014100D01*
X013857Y014143D01*
X013807Y014182D01*
X013754Y014219D01*
X013700Y014253D01*
X013644Y014283D01*
X013586Y014310D01*
X013526Y014334D01*
X013465Y014354D01*
X013404Y014370D01*
X013341Y014383D01*
X013278Y014393D01*
X013214Y014398D01*
X013150Y014400D01*
X013150Y014000D02*
X013200Y013998D01*
X013250Y013993D01*
X013299Y013984D01*
X013347Y013972D01*
X013395Y013956D01*
X013441Y013937D01*
X013485Y013914D01*
X013528Y013889D01*
X013569Y013860D01*
X013608Y013829D01*
X013645Y013795D01*
X013679Y013758D01*
X013710Y013719D01*
X013739Y013678D01*
X013764Y013635D01*
X013787Y013591D01*
X013806Y013545D01*
X013822Y013497D01*
X013834Y013449D01*
X013843Y013400D01*
X013848Y013350D01*
X013850Y013300D01*
X013150Y014000D02*
X013100Y013998D01*
X013050Y013993D01*
X013001Y013984D01*
X012953Y013972D01*
X012905Y013956D01*
X012859Y013937D01*
X012815Y013914D01*
X012772Y013889D01*
X012731Y013860D01*
X012692Y013829D01*
X012655Y013795D01*
X012621Y013758D01*
X012590Y013719D01*
X012561Y013678D01*
X012536Y013635D01*
X012513Y013591D01*
X012494Y013545D01*
X012478Y013497D01*
X012466Y013449D01*
X012457Y013400D01*
X012452Y013350D01*
X012450Y013300D01*
X012450Y011800D01*
X012448Y011773D01*
X012443Y011746D01*
X012433Y011720D01*
X012421Y011696D01*
X012405Y011674D01*
X012387Y011654D01*
X012365Y011637D01*
X012342Y011622D01*
X012317Y011612D01*
X012291Y011604D01*
X012264Y011600D01*
X012236Y011600D01*
X012209Y011604D01*
X012183Y011612D01*
X012158Y011622D01*
X012135Y011637D01*
X012113Y011654D01*
X012095Y011674D01*
X012079Y011696D01*
X012067Y011720D01*
X012057Y011746D01*
X012052Y011773D01*
X012050Y011800D01*
X012050Y013400D01*
X012058Y013465D01*
X012070Y013529D01*
X012086Y013592D01*
X012105Y013654D01*
X012128Y013715D01*
X012155Y013775D01*
X012185Y013833D01*
X012218Y013889D01*
X012255Y013943D01*
X012295Y013994D01*
X012337Y014044D01*
X012383Y014090D01*
X012431Y014134D01*
X012482Y014175D01*
X012535Y014213D01*
X012590Y014248D01*
X012647Y014279D01*
X012706Y014307D01*
X012767Y014331D01*
X012829Y014352D01*
X012892Y014369D01*
X012955Y014383D01*
X013020Y014392D01*
X013085Y014398D01*
X013150Y014400D01*
X007250Y013300D02*
X007250Y011800D01*
X007248Y011773D01*
X007243Y011746D01*
X007233Y011720D01*
X007221Y011696D01*
X007205Y011674D01*
X007187Y011654D01*
X007165Y011637D01*
X007142Y011622D01*
X007117Y011612D01*
X007091Y011604D01*
X007064Y011600D01*
X007036Y011600D01*
X007009Y011604D01*
X006983Y011612D01*
X006958Y011622D01*
X006935Y011637D01*
X006913Y011654D01*
X006895Y011674D01*
X006879Y011696D01*
X006867Y011720D01*
X006857Y011746D01*
X006852Y011773D01*
X006850Y011800D01*
X006850Y013300D01*
X007250Y013300D02*
X007248Y013364D01*
X007243Y013428D01*
X007233Y013491D01*
X007220Y013554D01*
X007204Y013615D01*
X007184Y013676D01*
X007160Y013736D01*
X007133Y013794D01*
X007103Y013850D01*
X007069Y013904D01*
X007032Y013957D01*
X006993Y014007D01*
X006950Y014055D01*
X006905Y014100D01*
X006857Y014143D01*
X006807Y014182D01*
X006754Y014219D01*
X006700Y014253D01*
X006644Y014283D01*
X006586Y014310D01*
X006526Y014334D01*
X006465Y014354D01*
X006404Y014370D01*
X006341Y014383D01*
X006278Y014393D01*
X006214Y014398D01*
X006150Y014400D01*
X006150Y014000D02*
X006200Y013998D01*
X006250Y013993D01*
X006299Y013984D01*
X006347Y013972D01*
X006395Y013956D01*
X006441Y013937D01*
X006485Y013914D01*
X006528Y013889D01*
X006569Y013860D01*
X006608Y013829D01*
X006645Y013795D01*
X006679Y013758D01*
X006710Y013719D01*
X006739Y013678D01*
X006764Y013635D01*
X006787Y013591D01*
X006806Y013545D01*
X006822Y013497D01*
X006834Y013449D01*
X006843Y013400D01*
X006848Y013350D01*
X006850Y013300D01*
X006150Y014000D02*
X006100Y013998D01*
X006050Y013993D01*
X006001Y013984D01*
X005953Y013972D01*
X005905Y013956D01*
X005859Y013937D01*
X005815Y013914D01*
X005772Y013889D01*
X005731Y013860D01*
X005692Y013829D01*
X005655Y013795D01*
X005621Y013758D01*
X005590Y013719D01*
X005561Y013678D01*
X005536Y013635D01*
X005513Y013591D01*
X005494Y013545D01*
X005478Y013497D01*
X005466Y013449D01*
X005457Y013400D01*
X005452Y013350D01*
X005450Y013300D01*
X005450Y011800D01*
X005448Y011773D01*
X005443Y011746D01*
X005433Y011720D01*
X005421Y011696D01*
X005405Y011674D01*
X005387Y011654D01*
X005365Y011637D01*
X005342Y011622D01*
X005317Y011612D01*
X005291Y011604D01*
X005264Y011600D01*
X005236Y011600D01*
X005209Y011604D01*
X005183Y011612D01*
X005158Y011622D01*
X005135Y011637D01*
X005113Y011654D01*
X005095Y011674D01*
X005079Y011696D01*
X005067Y011720D01*
X005057Y011746D01*
X005052Y011773D01*
X005050Y011800D01*
X005050Y013400D01*
X005058Y013465D01*
X005070Y013529D01*
X005086Y013592D01*
X005105Y013654D01*
X005128Y013715D01*
X005155Y013775D01*
X005185Y013833D01*
X005218Y013889D01*
X005255Y013943D01*
X005295Y013994D01*
X005337Y014044D01*
X005383Y014090D01*
X005431Y014134D01*
X005482Y014175D01*
X005535Y014213D01*
X005590Y014248D01*
X005647Y014279D01*
X005706Y014307D01*
X005767Y014331D01*
X005829Y014352D01*
X005892Y014369D01*
X005955Y014383D01*
X006020Y014392D01*
X006085Y014398D01*
X006150Y014400D01*
D11*
X000150Y001500D02*
X060150Y001500D01*
X060150Y018500D01*
X000150Y018500D01*
X000150Y001500D01*
X000400Y005500D02*
X000400Y014150D01*
X002700Y014150D01*
X002700Y005500D01*
X000400Y005500D01*
X000400Y005539D02*
X002700Y005539D01*
X002700Y005637D02*
X000400Y005637D01*
X000400Y005736D02*
X002700Y005736D01*
X002700Y005834D02*
X000400Y005834D01*
X000400Y005933D02*
X002700Y005933D01*
X002700Y006031D02*
X000400Y006031D01*
X000400Y006130D02*
X002700Y006130D01*
X002700Y006228D02*
X000400Y006228D01*
X000400Y006327D02*
X002700Y006327D01*
X002700Y006425D02*
X000400Y006425D01*
X000400Y006524D02*
X002700Y006524D01*
X002700Y006622D02*
X000400Y006622D01*
X000400Y006721D02*
X002700Y006721D01*
X002700Y006819D02*
X000400Y006819D01*
X000400Y006918D02*
X002700Y006918D01*
X002700Y007016D02*
X000400Y007016D01*
X000400Y007115D02*
X002700Y007115D01*
X002700Y007213D02*
X000400Y007213D01*
X000400Y007312D02*
X002700Y007312D01*
X002700Y007410D02*
X000400Y007410D01*
X000400Y007509D02*
X002700Y007509D01*
X002700Y007607D02*
X000400Y007607D01*
X000400Y007706D02*
X002700Y007706D01*
X002700Y007804D02*
X000400Y007804D01*
X000400Y007903D02*
X002700Y007903D01*
X002700Y008001D02*
X000400Y008001D01*
X000400Y008100D02*
X002700Y008100D01*
X002700Y008198D02*
X000400Y008198D01*
X000400Y008297D02*
X002700Y008297D01*
X002700Y008395D02*
X000400Y008395D01*
X000400Y008494D02*
X002700Y008494D01*
X002700Y008592D02*
X000400Y008592D01*
X000400Y008691D02*
X002700Y008691D01*
X002700Y008789D02*
X000400Y008789D01*
X000400Y008888D02*
X002700Y008888D01*
X002700Y008986D02*
X000400Y008986D01*
X000400Y009085D02*
X002700Y009085D01*
X002700Y009183D02*
X000400Y009183D01*
X000400Y009282D02*
X002700Y009282D01*
X002700Y009380D02*
X000400Y009380D01*
X000400Y009479D02*
X002700Y009479D01*
X002700Y009577D02*
X000400Y009577D01*
X000400Y009676D02*
X002700Y009676D01*
X002700Y009774D02*
X000400Y009774D01*
X000400Y009873D02*
X002700Y009873D01*
X002700Y009971D02*
X000400Y009971D01*
X000400Y010070D02*
X002700Y010070D01*
X002700Y010168D02*
X000400Y010168D01*
X000400Y010267D02*
X002700Y010267D01*
X002700Y010365D02*
X000400Y010365D01*
X000400Y010464D02*
X002700Y010464D01*
X002700Y010562D02*
X000400Y010562D01*
X000400Y010661D02*
X002700Y010661D01*
X002700Y010759D02*
X000400Y010759D01*
X000400Y010858D02*
X002700Y010858D01*
X002700Y010956D02*
X000400Y010956D01*
X000400Y011055D02*
X002700Y011055D01*
X002700Y011153D02*
X000400Y011153D01*
X000400Y011252D02*
X002700Y011252D01*
X002700Y011350D02*
X000400Y011350D01*
X000400Y011449D02*
X002700Y011449D01*
X002700Y011547D02*
X000400Y011547D01*
X000400Y011646D02*
X002700Y011646D01*
X002700Y011744D02*
X000400Y011744D01*
X000400Y011843D02*
X002700Y011843D01*
X002700Y011941D02*
X000400Y011941D01*
X000400Y012040D02*
X002700Y012040D01*
X002700Y012138D02*
X000400Y012138D01*
X000400Y012237D02*
X002700Y012237D01*
X002700Y012335D02*
X000400Y012335D01*
X000400Y012434D02*
X002700Y012434D01*
X002700Y012532D02*
X000400Y012532D01*
X000400Y012631D02*
X002700Y012631D01*
X002700Y012729D02*
X000400Y012729D01*
X000400Y012828D02*
X002700Y012828D01*
X002700Y012926D02*
X000400Y012926D01*
X000400Y013025D02*
X002700Y013025D01*
X002700Y013123D02*
X000400Y013123D01*
X000400Y013222D02*
X002700Y013222D01*
X002700Y013320D02*
X000400Y013320D01*
X000400Y013419D02*
X002700Y013419D01*
X002700Y013517D02*
X000400Y013517D01*
X000400Y013616D02*
X002700Y013616D01*
X002700Y013714D02*
X000400Y013714D01*
X000400Y013813D02*
X002700Y013813D01*
X002700Y013911D02*
X000400Y013911D01*
X000400Y014010D02*
X002700Y014010D01*
X002700Y014108D02*
X000400Y014108D01*
X000330Y014700D02*
X000330Y016971D01*
X000336Y016956D01*
X000606Y016686D01*
X000959Y016540D01*
X001341Y016540D01*
X001694Y016686D01*
X001964Y016956D01*
X002110Y017309D01*
X002110Y017691D01*
X001964Y018044D01*
X001694Y018314D01*
X001679Y018320D01*
X039900Y018320D01*
X039900Y014479D01*
X039929Y014450D01*
X039946Y014450D01*
X039946Y014400D01*
X040023Y014214D01*
X040164Y014073D01*
X040340Y014000D01*
X040164Y013927D01*
X040023Y013786D01*
X039946Y013600D01*
X039946Y013400D01*
X040023Y013214D01*
X040164Y013073D01*
X040340Y013000D01*
X040164Y012927D01*
X040023Y012786D01*
X039946Y012600D01*
X039946Y012400D01*
X040023Y012214D01*
X040164Y012073D01*
X040340Y012000D01*
X040164Y011927D01*
X040023Y011786D01*
X039946Y011600D01*
X039946Y011400D01*
X040023Y011214D01*
X040164Y011073D01*
X040340Y011000D01*
X040164Y010927D01*
X040023Y010786D01*
X039946Y010600D01*
X039946Y010400D01*
X040023Y010214D01*
X040164Y010073D01*
X040340Y010000D01*
X040164Y009927D01*
X040023Y009786D01*
X039946Y009600D01*
X039946Y009400D01*
X040023Y009214D01*
X040164Y009073D01*
X040340Y009000D01*
X040164Y008927D01*
X040023Y008786D01*
X039946Y008600D01*
X039946Y008400D01*
X040023Y008214D01*
X040164Y008073D01*
X040350Y007996D01*
X040550Y007996D01*
X040736Y008073D01*
X040877Y008214D01*
X040954Y008400D01*
X040954Y008600D01*
X040877Y008786D01*
X040736Y008927D01*
X040560Y009000D01*
X040736Y009073D01*
X040877Y009214D01*
X040954Y009400D01*
X040954Y009600D01*
X040877Y009786D01*
X040736Y009927D01*
X040560Y010000D01*
X040736Y010073D01*
X040877Y010214D01*
X040954Y010400D01*
X040954Y010600D01*
X040877Y010786D01*
X040736Y010927D01*
X040560Y011000D01*
X040736Y011073D01*
X040877Y011214D01*
X040954Y011400D01*
X040954Y011600D01*
X040877Y011786D01*
X040736Y011927D01*
X040560Y012000D01*
X040736Y012073D01*
X040877Y012214D01*
X040954Y012400D01*
X040954Y012600D01*
X040877Y012786D01*
X040736Y012927D01*
X040560Y013000D01*
X040736Y013073D01*
X040877Y013214D01*
X040954Y013400D01*
X040954Y013600D01*
X040877Y013786D01*
X040736Y013927D01*
X040560Y014000D01*
X040736Y014073D01*
X040877Y014214D01*
X040954Y014400D01*
X040954Y014450D01*
X041050Y014450D01*
X041050Y014401D01*
X041126Y014217D01*
X041267Y014076D01*
X041451Y014000D01*
X041267Y013924D01*
X041126Y013783D01*
X041050Y013599D01*
X041050Y013401D01*
X041126Y013217D01*
X041267Y013076D01*
X041451Y013000D01*
X041267Y012924D01*
X041126Y012783D01*
X041050Y012599D01*
X041050Y012401D01*
X041126Y012217D01*
X041267Y012076D01*
X041451Y012000D01*
X041267Y011924D01*
X041126Y011783D01*
X041050Y011599D01*
X041050Y011401D01*
X041126Y011217D01*
X041267Y011076D01*
X041451Y011000D01*
X041267Y010924D01*
X041126Y010783D01*
X041050Y010599D01*
X041050Y010401D01*
X041126Y010217D01*
X041267Y010076D01*
X041451Y010000D01*
X041267Y009924D01*
X041126Y009783D01*
X041050Y009599D01*
X041050Y009401D01*
X041126Y009217D01*
X041267Y009076D01*
X041451Y009000D01*
X041267Y008924D01*
X041126Y008783D01*
X041050Y008599D01*
X041050Y008401D01*
X041126Y008217D01*
X041267Y008076D01*
X041451Y008000D01*
X041649Y008000D01*
X041833Y008076D01*
X041974Y008217D01*
X042050Y008401D01*
X042050Y008599D01*
X041974Y008783D01*
X041833Y008924D01*
X041649Y009000D01*
X041451Y009000D01*
X041649Y009000D01*
X041833Y009076D01*
X041974Y009217D01*
X042050Y009401D01*
X042050Y009599D01*
X041974Y009783D01*
X041833Y009924D01*
X041649Y010000D01*
X041451Y010000D01*
X041649Y010000D01*
X041833Y010076D01*
X041974Y010217D01*
X042050Y010401D01*
X042050Y010599D01*
X041974Y010783D01*
X041833Y010924D01*
X041649Y011000D01*
X041451Y011000D01*
X041649Y011000D01*
X041833Y011076D01*
X041974Y011217D01*
X042050Y011401D01*
X042050Y011599D01*
X041974Y011783D01*
X041833Y011924D01*
X041649Y012000D01*
X041451Y012000D01*
X041649Y012000D01*
X041833Y012076D01*
X041974Y012217D01*
X042050Y012401D01*
X042050Y012599D01*
X041974Y012783D01*
X041833Y012924D01*
X041649Y013000D01*
X041451Y013000D01*
X041649Y013000D01*
X041833Y013076D01*
X041974Y013217D01*
X042050Y013401D01*
X042050Y013599D01*
X041974Y013783D01*
X041833Y013924D01*
X041649Y014000D01*
X041451Y014000D01*
X041649Y014000D01*
X041833Y014076D01*
X041974Y014217D01*
X042050Y014401D01*
X042126Y014217D01*
X042267Y014076D01*
X042451Y014000D01*
X042267Y013924D01*
X042126Y013783D01*
X042050Y013599D01*
X042050Y013401D01*
X042126Y013217D01*
X042267Y013076D01*
X042451Y013000D01*
X042649Y013000D01*
X042833Y013076D01*
X042974Y013217D01*
X043050Y013401D01*
X043126Y013217D01*
X043267Y013076D01*
X043451Y013000D01*
X043267Y012924D01*
X043126Y012783D01*
X043050Y012599D01*
X043050Y012401D01*
X043126Y012217D01*
X043267Y012076D01*
X043451Y012000D01*
X043267Y011924D01*
X043126Y011783D01*
X043050Y011599D01*
X043050Y011401D01*
X043126Y011217D01*
X043267Y011076D01*
X043451Y011000D01*
X043267Y010924D01*
X043126Y010783D01*
X043050Y010599D01*
X043050Y010401D01*
X043126Y010217D01*
X043267Y010076D01*
X043451Y010000D01*
X043267Y009924D01*
X043126Y009783D01*
X043050Y009599D01*
X043050Y009401D01*
X043126Y009217D01*
X043267Y009076D01*
X043451Y009000D01*
X043267Y008924D01*
X043126Y008783D01*
X043050Y008599D01*
X043050Y008401D01*
X043126Y008217D01*
X043267Y008076D01*
X043451Y008000D01*
X043649Y008000D01*
X043833Y008076D01*
X043974Y008217D01*
X044050Y008401D01*
X044050Y008599D01*
X043974Y008783D01*
X043833Y008924D01*
X043649Y009000D01*
X043451Y009000D01*
X043649Y009000D01*
X043833Y009076D01*
X043974Y009217D01*
X044050Y009401D01*
X044050Y009599D01*
X043974Y009783D01*
X043833Y009924D01*
X043649Y010000D01*
X043451Y010000D01*
X043649Y010000D01*
X043833Y010076D01*
X043974Y010217D01*
X044050Y010401D01*
X044050Y010599D01*
X043974Y010783D01*
X043833Y010924D01*
X043649Y011000D01*
X043451Y011000D01*
X043649Y011000D01*
X043833Y011076D01*
X043974Y011217D01*
X044050Y011401D01*
X044050Y011599D01*
X043974Y011783D01*
X043833Y011924D01*
X043649Y012000D01*
X043451Y012000D01*
X043649Y012000D01*
X043833Y012076D01*
X043974Y012217D01*
X044050Y012401D01*
X044050Y012599D01*
X043974Y012783D01*
X043833Y012924D01*
X043649Y013000D01*
X043451Y013000D01*
X043649Y013000D01*
X043833Y013076D01*
X043974Y013217D01*
X044050Y013401D01*
X044050Y013599D01*
X043974Y013783D01*
X043833Y013924D01*
X043649Y014000D01*
X043451Y014000D01*
X043267Y013924D01*
X043126Y013783D01*
X043050Y013599D01*
X043050Y013401D01*
X043050Y013599D01*
X042974Y013783D01*
X042833Y013924D01*
X042649Y014000D01*
X042451Y014000D01*
X042649Y014000D01*
X042833Y014076D01*
X042974Y014217D01*
X043050Y014401D01*
X043126Y014217D01*
X043267Y014076D01*
X043451Y014000D01*
X043649Y014000D01*
X043833Y014076D01*
X043974Y014217D01*
X044050Y014401D01*
X044050Y014450D01*
X048050Y014450D01*
X048050Y014401D01*
X048126Y014217D01*
X048267Y014076D01*
X048451Y014000D01*
X048267Y013924D01*
X048126Y013783D01*
X048050Y013599D01*
X048050Y013401D01*
X048126Y013217D01*
X048267Y013076D01*
X048451Y013000D01*
X048649Y013000D01*
X048833Y013076D01*
X048974Y013217D01*
X049050Y013401D01*
X049050Y013599D01*
X048974Y013783D01*
X048833Y013924D01*
X048649Y014000D01*
X048451Y014000D01*
X048649Y014000D01*
X048833Y014076D01*
X048974Y014217D01*
X049050Y014401D01*
X049126Y014217D01*
X049267Y014076D01*
X049451Y014000D01*
X049267Y013924D01*
X049126Y013783D01*
X049050Y013599D01*
X049050Y013401D01*
X049126Y013217D01*
X049267Y013076D01*
X049451Y013000D01*
X049267Y012924D01*
X049126Y012783D01*
X049050Y012599D01*
X048974Y012783D01*
X048833Y012924D01*
X048649Y013000D01*
X048451Y013000D01*
X048267Y012924D01*
X048126Y012783D01*
X048050Y012599D01*
X048050Y012401D01*
X048126Y012217D01*
X048267Y012076D01*
X048451Y012000D01*
X048649Y012000D01*
X048833Y012076D01*
X048974Y012217D01*
X049050Y012401D01*
X049050Y012599D01*
X049050Y012401D01*
X049126Y012217D01*
X049267Y012076D01*
X049451Y012000D01*
X049267Y011924D01*
X049126Y011783D01*
X049050Y011599D01*
X048974Y011783D01*
X048833Y011924D01*
X048649Y012000D01*
X048451Y012000D01*
X048267Y011924D01*
X048126Y011783D01*
X048050Y011599D01*
X048050Y011401D01*
X048126Y011217D01*
X048267Y011076D01*
X048451Y011000D01*
X048649Y011000D01*
X048833Y011076D01*
X048974Y011217D01*
X049050Y011401D01*
X049050Y011599D01*
X049050Y011401D01*
X049126Y011217D01*
X049267Y011076D01*
X049451Y011000D01*
X049267Y010924D01*
X049126Y010783D01*
X049050Y010599D01*
X048974Y010783D01*
X048833Y010924D01*
X048649Y011000D01*
X048451Y011000D01*
X048267Y010924D01*
X048126Y010783D01*
X048050Y010599D01*
X048050Y010401D01*
X048126Y010217D01*
X048267Y010076D01*
X048451Y010000D01*
X048649Y010000D01*
X048833Y010076D01*
X048974Y010217D01*
X049050Y010401D01*
X049050Y010599D01*
X049050Y010401D01*
X049126Y010217D01*
X049267Y010076D01*
X049451Y010000D01*
X049267Y009924D01*
X049126Y009783D01*
X049050Y009599D01*
X048974Y009783D01*
X048833Y009924D01*
X048649Y010000D01*
X048451Y010000D01*
X048267Y009924D01*
X048126Y009783D01*
X048050Y009599D01*
X048050Y009401D01*
X048126Y009217D01*
X048267Y009076D01*
X048451Y009000D01*
X048649Y009000D01*
X048833Y009076D01*
X048974Y009217D01*
X049050Y009401D01*
X049050Y009599D01*
X049050Y009401D01*
X049126Y009217D01*
X049267Y009076D01*
X049451Y009000D01*
X049267Y008924D01*
X049126Y008783D01*
X049050Y008599D01*
X048974Y008783D01*
X048833Y008924D01*
X048649Y009000D01*
X048451Y009000D01*
X048267Y008924D01*
X048126Y008783D01*
X048050Y008599D01*
X048050Y008401D01*
X048126Y008217D01*
X048267Y008076D01*
X048451Y008000D01*
X048649Y008000D01*
X048833Y008076D01*
X048974Y008217D01*
X049050Y008401D01*
X049050Y008599D01*
X049050Y008401D01*
X049126Y008217D01*
X049267Y008076D01*
X049451Y008000D01*
X049267Y007924D01*
X049126Y007783D01*
X049050Y007599D01*
X048974Y007783D01*
X048833Y007924D01*
X048649Y008000D01*
X048451Y008000D01*
X048267Y007924D01*
X048126Y007783D01*
X048050Y007599D01*
X048050Y007401D01*
X048126Y007217D01*
X048267Y007076D01*
X048451Y007000D01*
X048649Y007000D01*
X048833Y007076D01*
X048974Y007217D01*
X049050Y007401D01*
X049050Y007599D01*
X049050Y007401D01*
X049126Y007217D01*
X049267Y007076D01*
X049451Y007000D01*
X049267Y006924D01*
X049126Y006783D01*
X049050Y006599D01*
X048974Y006783D01*
X048833Y006924D01*
X048649Y007000D01*
X048451Y007000D01*
X048267Y006924D01*
X048126Y006783D01*
X048050Y006599D01*
X048050Y006401D01*
X048126Y006217D01*
X048267Y006076D01*
X048451Y006000D01*
X048649Y006000D01*
X048833Y006076D01*
X048974Y006217D01*
X049050Y006401D01*
X049050Y006599D01*
X049050Y006401D01*
X049126Y006217D01*
X049267Y006076D01*
X049451Y006000D01*
X049649Y006000D01*
X049833Y006076D01*
X049974Y006217D01*
X050050Y006401D01*
X050050Y006599D01*
X049974Y006783D01*
X049833Y006924D01*
X049649Y007000D01*
X049451Y007000D01*
X049649Y007000D01*
X049833Y007076D01*
X049974Y007217D01*
X050050Y007401D01*
X050050Y007599D01*
X049974Y007783D01*
X049833Y007924D01*
X049649Y008000D01*
X049451Y008000D01*
X049649Y008000D01*
X049833Y008076D01*
X049974Y008217D01*
X050050Y008401D01*
X050050Y008599D01*
X049974Y008783D01*
X049833Y008924D01*
X049649Y009000D01*
X049451Y009000D01*
X049649Y009000D01*
X049833Y009076D01*
X049974Y009217D01*
X050050Y009401D01*
X050050Y009599D01*
X049974Y009783D01*
X049833Y009924D01*
X049649Y010000D01*
X049451Y010000D01*
X049649Y010000D01*
X049833Y010076D01*
X049974Y010217D01*
X050050Y010401D01*
X050050Y010599D01*
X049974Y010783D01*
X049833Y010924D01*
X049649Y011000D01*
X049451Y011000D01*
X049649Y011000D01*
X049833Y011076D01*
X049974Y011217D01*
X050050Y011401D01*
X050050Y011599D01*
X049974Y011783D01*
X049833Y011924D01*
X049649Y012000D01*
X049451Y012000D01*
X049649Y012000D01*
X049833Y012076D01*
X049974Y012217D01*
X050050Y012401D01*
X050050Y012599D01*
X049974Y012783D01*
X049833Y012924D01*
X049649Y013000D01*
X049451Y013000D01*
X049649Y013000D01*
X049833Y013076D01*
X049974Y013217D01*
X050050Y013401D01*
X050050Y013599D01*
X049974Y013783D01*
X049833Y013924D01*
X049649Y014000D01*
X049451Y014000D01*
X049649Y014000D01*
X049833Y014076D01*
X049974Y014217D01*
X050050Y014401D01*
X050126Y014217D01*
X050267Y014076D01*
X050451Y014000D01*
X050267Y013924D01*
X050126Y013783D01*
X050050Y013599D01*
X050050Y013401D01*
X050126Y013217D01*
X050267Y013076D01*
X050451Y013000D01*
X050267Y012924D01*
X050126Y012783D01*
X050050Y012599D01*
X050050Y012401D01*
X050126Y012217D01*
X050267Y012076D01*
X050451Y012000D01*
X050267Y011924D01*
X050126Y011783D01*
X050050Y011599D01*
X050050Y011401D01*
X050126Y011217D01*
X050267Y011076D01*
X050451Y011000D01*
X050267Y010924D01*
X050126Y010783D01*
X050050Y010599D01*
X050050Y010401D01*
X050126Y010217D01*
X050267Y010076D01*
X050451Y010000D01*
X050267Y009924D01*
X050126Y009783D01*
X050050Y009599D01*
X050050Y009401D01*
X050126Y009217D01*
X050267Y009076D01*
X050451Y009000D01*
X050267Y008924D01*
X050126Y008783D01*
X050050Y008599D01*
X050050Y008401D01*
X050126Y008217D01*
X050267Y008076D01*
X050451Y008000D01*
X050267Y007924D01*
X050126Y007783D01*
X050050Y007599D01*
X050050Y007401D01*
X050126Y007217D01*
X050267Y007076D01*
X050451Y007000D01*
X050267Y006924D01*
X050126Y006783D01*
X050050Y006599D01*
X050050Y006401D01*
X050126Y006217D01*
X050267Y006076D01*
X050451Y006000D01*
X050649Y006000D01*
X050833Y006076D01*
X050974Y006217D01*
X051050Y006401D01*
X051050Y006599D01*
X050974Y006783D01*
X050833Y006924D01*
X050649Y007000D01*
X050451Y007000D01*
X050649Y007000D01*
X050833Y007076D01*
X050974Y007217D01*
X051050Y007401D01*
X051050Y007599D01*
X050974Y007783D01*
X050833Y007924D01*
X050649Y008000D01*
X050451Y008000D01*
X050649Y008000D01*
X050833Y008076D01*
X050974Y008217D01*
X051050Y008401D01*
X051050Y008599D01*
X050974Y008783D01*
X050833Y008924D01*
X050649Y009000D01*
X050451Y009000D01*
X050649Y009000D01*
X050833Y009076D01*
X050974Y009217D01*
X051050Y009401D01*
X051050Y009599D01*
X050974Y009783D01*
X050833Y009924D01*
X050649Y010000D01*
X050451Y010000D01*
X050649Y010000D01*
X050833Y010076D01*
X050974Y010217D01*
X051050Y010401D01*
X051050Y010599D01*
X050974Y010783D01*
X050833Y010924D01*
X050649Y011000D01*
X050451Y011000D01*
X050649Y011000D01*
X050833Y011076D01*
X050974Y011217D01*
X051050Y011401D01*
X051050Y011599D01*
X050974Y011783D01*
X050833Y011924D01*
X050649Y012000D01*
X050451Y012000D01*
X050649Y012000D01*
X050833Y012076D01*
X050974Y012217D01*
X051050Y012401D01*
X051050Y012599D01*
X050974Y012783D01*
X050833Y012924D01*
X050649Y013000D01*
X050451Y013000D01*
X050649Y013000D01*
X050833Y013076D01*
X050974Y013217D01*
X051050Y013401D01*
X051050Y013599D01*
X050974Y013783D01*
X050833Y013924D01*
X050649Y014000D01*
X050451Y014000D01*
X050649Y014000D01*
X050833Y014076D01*
X050974Y014217D01*
X051050Y014401D01*
X051050Y014599D01*
X050974Y014783D01*
X050833Y014924D01*
X050649Y015000D01*
X050833Y015076D01*
X050974Y015217D01*
X051050Y015401D01*
X051050Y015599D01*
X050974Y015783D01*
X050833Y015924D01*
X050649Y016000D01*
X050451Y016000D01*
X050267Y015924D01*
X050200Y015857D01*
X050200Y018320D01*
X051121Y018320D01*
X051106Y018314D01*
X050836Y018044D01*
X050690Y017691D01*
X050690Y017309D01*
X050836Y016956D01*
X051106Y016686D01*
X051459Y016540D01*
X051650Y016540D01*
X051650Y016004D01*
X051550Y016004D01*
X051364Y015927D01*
X051223Y015786D01*
X051146Y015600D01*
X051146Y015400D01*
X051223Y015214D01*
X051364Y015073D01*
X051540Y015000D01*
X051364Y014927D01*
X051223Y014786D01*
X051146Y014600D01*
X051146Y014400D01*
X051223Y014214D01*
X051364Y014073D01*
X051540Y014000D01*
X051364Y013927D01*
X051223Y013786D01*
X051146Y013600D01*
X051146Y013400D01*
X051223Y013214D01*
X051364Y013073D01*
X051540Y013000D01*
X051364Y012927D01*
X051223Y012786D01*
X051146Y012600D01*
X051146Y012400D01*
X051223Y012214D01*
X051364Y012073D01*
X051540Y012000D01*
X051364Y011927D01*
X051223Y011786D01*
X051146Y011600D01*
X051146Y011400D01*
X051223Y011214D01*
X051364Y011073D01*
X051540Y011000D01*
X051364Y010927D01*
X051223Y010786D01*
X051146Y010600D01*
X051146Y010400D01*
X051223Y010214D01*
X051364Y010073D01*
X051540Y010000D01*
X051364Y009927D01*
X051223Y009786D01*
X051146Y009600D01*
X051146Y009400D01*
X051223Y009214D01*
X051364Y009073D01*
X051540Y009000D01*
X051364Y008927D01*
X051223Y008786D01*
X051146Y008600D01*
X051146Y008400D01*
X051223Y008214D01*
X051364Y008073D01*
X051540Y008000D01*
X051364Y007927D01*
X051223Y007786D01*
X051146Y007600D01*
X051146Y007400D01*
X051223Y007214D01*
X051364Y007073D01*
X051540Y007000D01*
X051364Y006927D01*
X051223Y006786D01*
X051146Y006600D01*
X051146Y006400D01*
X051223Y006214D01*
X051364Y006073D01*
X051550Y005996D01*
X051650Y005996D01*
X051650Y005004D01*
X051550Y005004D01*
X051364Y004927D01*
X051223Y004786D01*
X051146Y004600D01*
X051146Y004400D01*
X051223Y004214D01*
X051364Y004073D01*
X051550Y003996D01*
X051650Y003996D01*
X051650Y003460D01*
X051459Y003460D01*
X051106Y003314D01*
X050836Y003044D01*
X050690Y002691D01*
X050690Y002309D01*
X050836Y001956D01*
X051106Y001686D01*
X051121Y001680D01*
X031150Y001680D01*
X031150Y002360D01*
X031180Y002412D01*
X031180Y008388D01*
X031150Y008440D01*
X031150Y014333D01*
X031686Y014333D01*
X031750Y014397D01*
X031757Y014390D01*
X031728Y014361D01*
X031728Y013859D01*
X031804Y013783D01*
X032345Y013783D01*
X032421Y013859D01*
X032421Y013953D01*
X032478Y013953D01*
X032478Y013932D01*
X032554Y013856D01*
X032898Y013856D01*
X032974Y013932D01*
X032974Y014394D01*
X032898Y014470D01*
X032554Y014470D01*
X032478Y014394D01*
X032478Y014373D01*
X032409Y014373D01*
X032402Y014380D01*
X032431Y014409D01*
X032431Y014911D01*
X032355Y014987D01*
X031814Y014987D01*
X031750Y014923D01*
X031686Y014987D01*
X031625Y014987D01*
X031625Y015044D01*
X031629Y015047D01*
X031670Y015146D01*
X031670Y015254D01*
X031629Y015353D01*
X031553Y015429D01*
X031454Y015470D01*
X031346Y015470D01*
X031247Y015429D01*
X031171Y015353D01*
X031130Y015254D01*
X031130Y015146D01*
X031171Y015047D01*
X031205Y015013D01*
X031205Y014987D01*
X031145Y014987D01*
X031069Y014911D01*
X031069Y014700D01*
X029793Y014700D01*
X029793Y014860D01*
X029804Y014871D01*
X029804Y015529D01*
X029728Y015605D01*
X029728Y016089D01*
X029789Y016149D01*
X029789Y016651D01*
X029713Y016727D01*
X029650Y016727D01*
X029650Y017168D01*
X029655Y017186D01*
X029650Y017218D01*
X029650Y017250D01*
X029643Y017267D01*
X029626Y017389D01*
X029467Y017656D01*
X029219Y017842D01*
X028918Y017919D01*
X028782Y017900D01*
X026468Y017900D01*
X026332Y017919D01*
X026332Y017919D01*
X026031Y017842D01*
X025783Y017656D01*
X025783Y017656D01*
X025624Y017389D01*
X025607Y017267D01*
X025600Y017250D01*
X025600Y017218D01*
X025595Y017186D01*
X025600Y017168D01*
X025600Y016944D01*
X025563Y016907D01*
X025563Y016484D01*
X025639Y016408D01*
X026061Y016408D01*
X026123Y016470D01*
X026123Y016464D01*
X026187Y016400D01*
X026123Y016336D01*
X026123Y016330D01*
X026061Y016392D01*
X025639Y016392D01*
X025563Y016316D01*
X025563Y015893D01*
X025600Y015856D01*
X025600Y015482D01*
X025569Y015451D01*
X025569Y014949D01*
X025645Y014873D01*
X026186Y014873D01*
X026250Y014937D01*
X026314Y014873D01*
X026511Y014873D01*
X026519Y014870D01*
X027497Y014870D01*
X027573Y014794D01*
X028231Y014794D01*
X028308Y014871D01*
X028308Y015529D01*
X028231Y015606D01*
X027573Y015606D01*
X027497Y015530D01*
X026519Y015530D01*
X026511Y015527D01*
X026314Y015527D01*
X026250Y015463D01*
X026186Y015527D01*
X026100Y015527D01*
X026100Y015856D01*
X026123Y015879D01*
X026123Y015795D01*
X026199Y015719D01*
X026701Y015719D01*
X026777Y015795D01*
X026777Y015815D01*
X026782Y015815D01*
X026997Y015904D01*
X027161Y016069D01*
X027250Y016284D01*
X027250Y016400D01*
X027254Y016435D01*
X027284Y016498D01*
X027323Y016531D01*
X027323Y016464D01*
X027399Y016388D01*
X027901Y016388D01*
X027977Y016464D01*
X027977Y016485D01*
X028150Y016485D01*
X028187Y016447D01*
X028846Y016447D01*
X028923Y016523D01*
X028923Y017025D01*
X028846Y017101D01*
X028187Y017101D01*
X028111Y017025D01*
X028111Y016985D01*
X027977Y016985D01*
X027977Y017005D01*
X027901Y017081D01*
X027399Y017081D01*
X027394Y017075D01*
X027386Y017077D01*
X027101Y017002D01*
X026875Y016814D01*
X026875Y016814D01*
X026875Y016814D01*
X026777Y016605D01*
X026777Y017005D01*
X026701Y017081D01*
X026700Y017081D01*
X026700Y017250D01*
X026662Y017342D01*
X026604Y017400D01*
X028768Y017400D01*
X028786Y017395D01*
X028818Y017400D01*
X028850Y017400D01*
X028858Y017404D01*
X028890Y017405D01*
X028996Y017378D01*
X028996Y017378D01*
X029084Y017312D01*
X029139Y017218D01*
X029150Y017175D01*
X029150Y016727D01*
X029054Y016727D01*
X028977Y016651D01*
X028977Y016149D01*
X029054Y016073D01*
X029068Y016073D01*
X029068Y015605D01*
X028992Y015529D01*
X028992Y014871D01*
X029069Y014794D01*
X029133Y014794D01*
X029133Y014700D01*
X022793Y014700D01*
X022793Y014860D01*
X022804Y014871D01*
X022804Y015529D01*
X022728Y015605D01*
X022728Y016089D01*
X022789Y016149D01*
X022789Y016651D01*
X022713Y016727D01*
X022650Y016727D01*
X022650Y017168D01*
X022655Y017186D01*
X022650Y017218D01*
X022650Y017250D01*
X022643Y017267D01*
X022626Y017389D01*
X022467Y017656D01*
X022219Y017842D01*
X021918Y017919D01*
X021782Y017900D01*
X019468Y017900D01*
X019332Y017919D01*
X019332Y017919D01*
X019031Y017842D01*
X018783Y017656D01*
X018783Y017656D01*
X018624Y017389D01*
X018607Y017267D01*
X018600Y017250D01*
X018600Y017218D01*
X018595Y017186D01*
X018600Y017168D01*
X018600Y016944D01*
X018563Y016907D01*
X018563Y016484D01*
X018639Y016408D01*
X019061Y016408D01*
X019123Y016470D01*
X019123Y016464D01*
X019187Y016400D01*
X019123Y016336D01*
X019123Y016330D01*
X019061Y016392D01*
X018639Y016392D01*
X018563Y016316D01*
X018563Y015893D01*
X018600Y015856D01*
X018600Y015482D01*
X018569Y015451D01*
X018569Y014949D01*
X018645Y014873D01*
X019186Y014873D01*
X019250Y014937D01*
X019314Y014873D01*
X019511Y014873D01*
X019519Y014870D01*
X020497Y014870D01*
X020573Y014794D01*
X021231Y014794D01*
X021308Y014871D01*
X021308Y015529D01*
X021231Y015606D01*
X020573Y015606D01*
X020497Y015530D01*
X019519Y015530D01*
X019511Y015527D01*
X019314Y015527D01*
X019250Y015463D01*
X019186Y015527D01*
X019100Y015527D01*
X019100Y015856D01*
X019123Y015879D01*
X019123Y015795D01*
X019199Y015719D01*
X019701Y015719D01*
X019777Y015795D01*
X019777Y015815D01*
X019782Y015815D01*
X019997Y015904D01*
X020161Y016069D01*
X020250Y016284D01*
X020250Y016400D01*
X020254Y016435D01*
X020284Y016498D01*
X020323Y016531D01*
X020323Y016464D01*
X020399Y016388D01*
X020901Y016388D01*
X020977Y016464D01*
X020977Y016485D01*
X021150Y016485D01*
X021187Y016447D01*
X021846Y016447D01*
X021923Y016523D01*
X021923Y017025D01*
X021846Y017101D01*
X021187Y017101D01*
X021111Y017025D01*
X021111Y016985D01*
X020977Y016985D01*
X020977Y017005D01*
X020901Y017081D01*
X020399Y017081D01*
X020394Y017075D01*
X020386Y017077D01*
X020101Y017002D01*
X019875Y016814D01*
X019875Y016814D01*
X019777Y016605D01*
X019777Y017005D01*
X019701Y017081D01*
X019700Y017081D01*
X019700Y017250D01*
X019662Y017342D01*
X019604Y017400D01*
X021768Y017400D01*
X021786Y017395D01*
X021818Y017400D01*
X021850Y017400D01*
X021858Y017404D01*
X021890Y017405D01*
X021996Y017378D01*
X022084Y017312D01*
X022139Y017218D01*
X022150Y017175D01*
X022150Y016727D01*
X022054Y016727D01*
X021977Y016651D01*
X021977Y016149D01*
X022054Y016073D01*
X022068Y016073D01*
X022068Y015605D01*
X021992Y015529D01*
X021992Y014871D01*
X022069Y014794D01*
X022133Y014794D01*
X022133Y014700D01*
X015793Y014700D01*
X015793Y014860D01*
X015804Y014871D01*
X015804Y015529D01*
X015728Y015605D01*
X015728Y016089D01*
X015789Y016149D01*
X015789Y016651D01*
X015713Y016727D01*
X015633Y016727D01*
X015633Y017383D01*
X015544Y017597D01*
X015544Y017597D01*
X015380Y017761D01*
X015166Y017850D01*
X012281Y017850D01*
X011969Y017721D01*
X011969Y017721D01*
X011729Y017481D01*
X011600Y017169D01*
X011600Y016944D01*
X011563Y016907D01*
X011563Y016484D01*
X011639Y016408D01*
X012061Y016408D01*
X012123Y016470D01*
X012123Y016464D01*
X012187Y016400D01*
X012123Y016336D01*
X012123Y016330D01*
X012061Y016392D01*
X011639Y016392D01*
X011563Y016316D01*
X011563Y015893D01*
X011600Y015856D01*
X011600Y015482D01*
X011569Y015451D01*
X011569Y014949D01*
X011645Y014873D01*
X012186Y014873D01*
X012250Y014937D01*
X012314Y014873D01*
X012511Y014873D01*
X012519Y014870D01*
X013497Y014870D01*
X013573Y014794D01*
X014231Y014794D01*
X014308Y014871D01*
X014308Y015529D01*
X014231Y015606D01*
X013573Y015606D01*
X013497Y015530D01*
X012519Y015530D01*
X012511Y015527D01*
X012314Y015527D01*
X012250Y015463D01*
X012186Y015527D01*
X012100Y015527D01*
X012100Y015856D01*
X012123Y015879D01*
X012123Y015795D01*
X012199Y015719D01*
X012701Y015719D01*
X012777Y015795D01*
X012777Y015815D01*
X012782Y015815D01*
X012997Y015904D01*
X013161Y016069D01*
X013250Y016284D01*
X013250Y016400D01*
X013254Y016435D01*
X013284Y016498D01*
X013323Y016531D01*
X013323Y016464D01*
X013399Y016388D01*
X013901Y016388D01*
X013977Y016464D01*
X013977Y016524D01*
X014111Y016524D01*
X014111Y016523D01*
X014187Y016447D01*
X014846Y016447D01*
X014923Y016523D01*
X014923Y017025D01*
X014846Y017101D01*
X014187Y017101D01*
X014111Y017025D01*
X014111Y017024D01*
X013958Y017024D01*
X013901Y017081D01*
X013399Y017081D01*
X013394Y017075D01*
X013386Y017077D01*
X013101Y017002D01*
X012875Y016814D01*
X012875Y016814D01*
X012875Y016814D01*
X012777Y016605D01*
X012777Y017005D01*
X012701Y017081D01*
X012700Y017081D01*
X012700Y017250D01*
X012662Y017342D01*
X012654Y017350D01*
X015050Y017350D01*
X015066Y017348D01*
X015096Y017336D01*
X015119Y017313D01*
X015131Y017283D01*
X015133Y017267D01*
X015133Y016727D01*
X015054Y016727D01*
X014977Y016651D01*
X014977Y016149D01*
X015054Y016073D01*
X015068Y016073D01*
X015068Y015605D01*
X014992Y015529D01*
X014992Y014871D01*
X015069Y014794D01*
X015133Y014794D01*
X015133Y014700D01*
X008793Y014700D01*
X008793Y014860D01*
X008804Y014871D01*
X008804Y015529D01*
X008728Y015605D01*
X008728Y016089D01*
X008789Y016149D01*
X008789Y016651D01*
X008713Y016727D01*
X008600Y016727D01*
X008600Y017329D01*
X008501Y017568D01*
X008501Y017568D01*
X008318Y017751D01*
X008079Y017850D01*
X005281Y017850D01*
X004969Y017721D01*
X004969Y017721D01*
X004729Y017481D01*
X004600Y017169D01*
X004600Y016944D01*
X004563Y016907D01*
X004563Y016484D01*
X004639Y016408D01*
X005061Y016408D01*
X005123Y016470D01*
X005123Y016464D01*
X005187Y016400D01*
X005123Y016336D01*
X005123Y016330D01*
X005061Y016392D01*
X004639Y016392D01*
X004563Y016316D01*
X004563Y015893D01*
X004600Y015856D01*
X004600Y015482D01*
X004569Y015451D01*
X004569Y014949D01*
X004645Y014873D01*
X005186Y014873D01*
X005250Y014937D01*
X005314Y014873D01*
X005511Y014873D01*
X005519Y014870D01*
X006497Y014870D01*
X006573Y014794D01*
X007231Y014794D01*
X007308Y014871D01*
X007308Y015529D01*
X007231Y015606D01*
X006573Y015606D01*
X006497Y015530D01*
X005519Y015530D01*
X005511Y015527D01*
X005314Y015527D01*
X005250Y015463D01*
X005186Y015527D01*
X005100Y015527D01*
X005100Y015856D01*
X005123Y015879D01*
X005123Y015795D01*
X005199Y015719D01*
X005701Y015719D01*
X005777Y015795D01*
X005777Y015815D01*
X005882Y015815D01*
X006097Y015904D01*
X006261Y016069D01*
X006350Y016284D01*
X006350Y016400D01*
X006354Y016435D01*
X006384Y016498D01*
X006423Y016531D01*
X006423Y016464D01*
X006499Y016388D01*
X007001Y016388D01*
X007077Y016464D01*
X007077Y016524D01*
X007111Y016524D01*
X007111Y016523D01*
X007187Y016447D01*
X007846Y016447D01*
X007923Y016523D01*
X007923Y017025D01*
X007846Y017101D01*
X007187Y017101D01*
X007111Y017025D01*
X007111Y017024D01*
X007058Y017024D01*
X007001Y017081D01*
X006499Y017081D01*
X006494Y017075D01*
X006486Y017077D01*
X006201Y017002D01*
X005975Y016814D01*
X005975Y016814D01*
X005975Y016814D01*
X005850Y016547D01*
X005850Y016400D01*
X005848Y016383D01*
X005836Y016353D01*
X005812Y016330D01*
X005782Y016317D01*
X005777Y016316D01*
X005777Y016336D01*
X005713Y016400D01*
X005777Y016464D01*
X005777Y017005D01*
X005701Y017081D01*
X005700Y017081D01*
X005700Y017250D01*
X005662Y017342D01*
X005654Y017350D01*
X007950Y017350D01*
X007979Y017347D01*
X008033Y017325D01*
X008075Y017283D01*
X008097Y017229D01*
X008100Y017200D01*
X008100Y016727D01*
X008054Y016727D01*
X007977Y016651D01*
X007977Y016149D01*
X008054Y016073D01*
X008068Y016073D01*
X008068Y015605D01*
X007992Y015529D01*
X007992Y014871D01*
X008069Y014794D01*
X008133Y014794D01*
X008133Y014700D01*
X000330Y014700D01*
X000330Y014798D02*
X006569Y014798D01*
X007235Y014798D02*
X008065Y014798D01*
X007992Y014896D02*
X007308Y014896D01*
X007308Y014995D02*
X007992Y014995D01*
X007992Y015093D02*
X007308Y015093D01*
X007308Y015192D02*
X007992Y015192D01*
X007992Y015290D02*
X007308Y015290D01*
X007308Y015389D02*
X007992Y015389D01*
X007992Y015487D02*
X007308Y015487D01*
X007251Y015586D02*
X008049Y015586D01*
X008068Y015684D02*
X005100Y015684D01*
X005100Y015586D02*
X006552Y015586D01*
X005764Y015783D02*
X008068Y015783D01*
X008068Y015881D02*
X006040Y015881D01*
X006097Y015904D02*
X006097Y015904D01*
X006172Y015980D02*
X008068Y015980D01*
X008049Y016078D02*
X006265Y016078D01*
X006261Y016069D02*
X006261Y016069D01*
X006306Y016177D02*
X007977Y016177D01*
X007977Y016275D02*
X006346Y016275D01*
X006350Y016374D02*
X007977Y016374D01*
X007977Y016472D02*
X007871Y016472D01*
X007923Y016571D02*
X007977Y016571D01*
X007996Y016669D02*
X007923Y016669D01*
X007923Y016768D02*
X008100Y016768D01*
X008100Y016866D02*
X007923Y016866D01*
X007923Y016965D02*
X008100Y016965D01*
X008100Y017063D02*
X007884Y017063D01*
X008100Y017162D02*
X005700Y017162D01*
X005696Y017260D02*
X008084Y017260D01*
X008547Y017457D02*
X011719Y017457D01*
X011729Y017481D02*
X011729Y017481D01*
X011803Y017556D02*
X008506Y017556D01*
X008415Y017654D02*
X011902Y017654D01*
X012046Y017753D02*
X008315Y017753D01*
X008318Y017751D02*
X008318Y017751D01*
X008588Y017359D02*
X011678Y017359D01*
X011638Y017260D02*
X008600Y017260D01*
X008600Y017162D02*
X011600Y017162D01*
X011600Y017063D02*
X008600Y017063D01*
X008600Y016965D02*
X011600Y016965D01*
X011563Y016866D02*
X008600Y016866D01*
X008600Y016768D02*
X011563Y016768D01*
X011563Y016669D02*
X008770Y016669D01*
X008789Y016571D02*
X011563Y016571D01*
X011574Y016472D02*
X008789Y016472D01*
X008789Y016374D02*
X011620Y016374D01*
X011563Y016275D02*
X008789Y016275D01*
X008789Y016177D02*
X011563Y016177D01*
X011563Y016078D02*
X008728Y016078D01*
X008728Y015980D02*
X011563Y015980D01*
X011575Y015881D02*
X008728Y015881D01*
X008728Y015783D02*
X011600Y015783D01*
X011600Y015684D02*
X008728Y015684D01*
X008748Y015586D02*
X011600Y015586D01*
X011600Y015487D02*
X008804Y015487D01*
X008804Y015389D02*
X011569Y015389D01*
X011569Y015290D02*
X008804Y015290D01*
X008804Y015192D02*
X011569Y015192D01*
X011569Y015093D02*
X008804Y015093D01*
X008804Y014995D02*
X011569Y014995D01*
X011622Y014896D02*
X008804Y014896D01*
X008793Y014798D02*
X013569Y014798D01*
X014235Y014798D02*
X015065Y014798D01*
X014992Y014896D02*
X014308Y014896D01*
X014308Y014995D02*
X014992Y014995D01*
X014992Y015093D02*
X014308Y015093D01*
X014308Y015192D02*
X014992Y015192D01*
X014992Y015290D02*
X014308Y015290D01*
X014308Y015389D02*
X014992Y015389D01*
X014992Y015487D02*
X014308Y015487D01*
X014251Y015586D02*
X015049Y015586D01*
X015068Y015684D02*
X012100Y015684D01*
X012100Y015586D02*
X013552Y015586D01*
X012764Y015783D02*
X015068Y015783D01*
X015068Y015881D02*
X012940Y015881D01*
X012997Y015904D02*
X012997Y015904D01*
X013072Y015980D02*
X015068Y015980D01*
X015049Y016078D02*
X013165Y016078D01*
X013161Y016069D02*
X013161Y016069D01*
X013206Y016177D02*
X014977Y016177D01*
X014977Y016275D02*
X013246Y016275D01*
X013250Y016374D02*
X014977Y016374D01*
X014977Y016472D02*
X014871Y016472D01*
X014923Y016571D02*
X014977Y016571D01*
X014996Y016669D02*
X014923Y016669D01*
X014923Y016768D02*
X015133Y016768D01*
X015133Y016866D02*
X014923Y016866D01*
X014923Y016965D02*
X015133Y016965D01*
X015133Y017063D02*
X014884Y017063D01*
X015133Y017162D02*
X012700Y017162D01*
X012696Y017260D02*
X015133Y017260D01*
X015633Y017260D02*
X018604Y017260D01*
X018600Y017162D02*
X015633Y017162D01*
X015633Y017063D02*
X018600Y017063D01*
X018600Y016965D02*
X015633Y016965D01*
X015633Y016866D02*
X018563Y016866D01*
X018563Y016768D02*
X015633Y016768D01*
X015770Y016669D02*
X018563Y016669D01*
X018563Y016571D02*
X015789Y016571D01*
X015789Y016472D02*
X018574Y016472D01*
X018620Y016374D02*
X015789Y016374D01*
X015789Y016275D02*
X018563Y016275D01*
X018563Y016177D02*
X015789Y016177D01*
X015728Y016078D02*
X018563Y016078D01*
X018563Y015980D02*
X015728Y015980D01*
X015728Y015881D02*
X018575Y015881D01*
X018600Y015783D02*
X015728Y015783D01*
X015728Y015684D02*
X018600Y015684D01*
X018600Y015586D02*
X015748Y015586D01*
X015804Y015487D02*
X018600Y015487D01*
X018569Y015389D02*
X015804Y015389D01*
X015804Y015290D02*
X018569Y015290D01*
X018569Y015192D02*
X015804Y015192D01*
X015804Y015093D02*
X018569Y015093D01*
X018569Y014995D02*
X015804Y014995D01*
X015804Y014896D02*
X018622Y014896D01*
X019209Y014896D02*
X019291Y014896D01*
X020569Y014798D02*
X015793Y014798D01*
X019100Y015586D02*
X020552Y015586D01*
X021251Y015586D02*
X022049Y015586D01*
X022068Y015684D02*
X019100Y015684D01*
X019100Y015783D02*
X019136Y015783D01*
X019226Y015487D02*
X019274Y015487D01*
X019764Y015783D02*
X022068Y015783D01*
X022068Y015881D02*
X019940Y015881D01*
X019997Y015904D02*
X019997Y015904D01*
X020072Y015980D02*
X022068Y015980D01*
X022049Y016078D02*
X020165Y016078D01*
X020161Y016069D02*
X020161Y016069D01*
X020206Y016177D02*
X021977Y016177D01*
X021977Y016275D02*
X020246Y016275D01*
X020250Y016374D02*
X021977Y016374D01*
X021977Y016472D02*
X021871Y016472D01*
X021923Y016571D02*
X021977Y016571D01*
X021996Y016669D02*
X021923Y016669D01*
X021923Y016768D02*
X022150Y016768D01*
X022150Y016866D02*
X021923Y016866D01*
X021923Y016965D02*
X022150Y016965D01*
X022150Y017063D02*
X021884Y017063D01*
X022150Y017162D02*
X019700Y017162D01*
X019696Y017260D02*
X022115Y017260D01*
X022022Y017359D02*
X019645Y017359D01*
X018783Y017656D02*
X018783Y017656D01*
X018781Y017654D02*
X015487Y017654D01*
X015562Y017556D02*
X018723Y017556D01*
X018665Y017457D02*
X015602Y017457D01*
X015633Y017359D02*
X018620Y017359D01*
X018624Y017389D02*
X018624Y017389D01*
X018911Y017753D02*
X015389Y017753D01*
X015380Y017761D02*
X015380Y017761D01*
X014150Y017063D02*
X013919Y017063D01*
X013386Y017077D02*
X013386Y017077D01*
X013333Y017063D02*
X012719Y017063D01*
X012777Y016965D02*
X013056Y016965D01*
X013101Y017002D02*
X013101Y017002D01*
X012938Y016866D02*
X012777Y016866D01*
X012777Y016768D02*
X012853Y016768D01*
X012807Y016669D02*
X012777Y016669D01*
X013271Y016472D02*
X013323Y016472D01*
X013977Y016472D02*
X014163Y016472D01*
X012161Y016374D02*
X012080Y016374D01*
X012100Y015783D02*
X012136Y015783D01*
X012226Y015487D02*
X012274Y015487D01*
X012291Y014896D02*
X012209Y014896D01*
X007163Y016472D02*
X007077Y016472D01*
X006423Y016472D02*
X006371Y016472D01*
X005907Y016669D02*
X005777Y016669D01*
X005777Y016571D02*
X005861Y016571D01*
X005850Y016472D02*
X005777Y016472D01*
X005739Y016374D02*
X005844Y016374D01*
X005161Y016374D02*
X005080Y016374D01*
X004620Y016374D02*
X000330Y016374D01*
X000330Y016472D02*
X004574Y016472D01*
X004563Y016571D02*
X001415Y016571D01*
X001652Y016669D02*
X004563Y016669D01*
X004563Y016768D02*
X001775Y016768D01*
X001874Y016866D02*
X004563Y016866D01*
X004600Y016965D02*
X001967Y016965D01*
X002008Y017063D02*
X004600Y017063D01*
X004600Y017162D02*
X002049Y017162D01*
X002090Y017260D02*
X004638Y017260D01*
X004678Y017359D02*
X002110Y017359D01*
X002110Y017457D02*
X004719Y017457D01*
X004729Y017481D02*
X004729Y017481D01*
X004803Y017556D02*
X002110Y017556D01*
X002110Y017654D02*
X004902Y017654D01*
X005046Y017753D02*
X002084Y017753D01*
X002044Y017851D02*
X019065Y017851D01*
X019031Y017842D02*
X019031Y017842D01*
X019719Y017063D02*
X020333Y017063D01*
X020386Y017077D02*
X020386Y017077D01*
X020101Y017002D02*
X020101Y017002D01*
X020056Y016965D02*
X019777Y016965D01*
X019777Y016866D02*
X019938Y016866D01*
X019853Y016768D02*
X019777Y016768D01*
X019777Y016669D02*
X019807Y016669D01*
X020271Y016472D02*
X020323Y016472D01*
X020977Y016472D02*
X021163Y016472D01*
X022650Y016768D02*
X025563Y016768D01*
X025563Y016866D02*
X022650Y016866D01*
X022650Y016965D02*
X025600Y016965D01*
X025600Y017063D02*
X022650Y017063D01*
X022650Y017162D02*
X025600Y017162D01*
X025604Y017260D02*
X022646Y017260D01*
X022630Y017359D02*
X025620Y017359D01*
X025624Y017389D02*
X025624Y017389D01*
X025665Y017457D02*
X022585Y017457D01*
X022626Y017389D02*
X022626Y017389D01*
X022527Y017556D02*
X025723Y017556D01*
X025781Y017654D02*
X022469Y017654D01*
X022467Y017656D02*
X022467Y017656D01*
X022467Y017656D01*
X022339Y017753D02*
X025911Y017753D01*
X026031Y017842D02*
X026031Y017842D01*
X026065Y017851D02*
X022185Y017851D01*
X022219Y017842D02*
X022219Y017842D01*
X021918Y017919D02*
X021918Y017919D01*
X021150Y017063D02*
X020919Y017063D01*
X022770Y016669D02*
X025563Y016669D01*
X025563Y016571D02*
X022789Y016571D01*
X022789Y016472D02*
X025574Y016472D01*
X025620Y016374D02*
X022789Y016374D01*
X022789Y016275D02*
X025563Y016275D01*
X025563Y016177D02*
X022789Y016177D01*
X022728Y016078D02*
X025563Y016078D01*
X025563Y015980D02*
X022728Y015980D01*
X022728Y015881D02*
X025575Y015881D01*
X025600Y015783D02*
X022728Y015783D01*
X022728Y015684D02*
X025600Y015684D01*
X025600Y015586D02*
X022748Y015586D01*
X022804Y015487D02*
X025600Y015487D01*
X025569Y015389D02*
X022804Y015389D01*
X022804Y015290D02*
X025569Y015290D01*
X025569Y015192D02*
X022804Y015192D01*
X022804Y015093D02*
X025569Y015093D01*
X025569Y014995D02*
X022804Y014995D01*
X022804Y014896D02*
X025622Y014896D01*
X026209Y014896D02*
X026291Y014896D01*
X027569Y014798D02*
X022793Y014798D01*
X022065Y014798D02*
X021235Y014798D01*
X021308Y014896D02*
X021992Y014896D01*
X021992Y014995D02*
X021308Y014995D01*
X021308Y015093D02*
X021992Y015093D01*
X021992Y015192D02*
X021308Y015192D01*
X021308Y015290D02*
X021992Y015290D01*
X021992Y015389D02*
X021308Y015389D01*
X021308Y015487D02*
X021992Y015487D01*
X019161Y016374D02*
X019080Y016374D01*
X025783Y017656D02*
X025783Y017656D01*
X026645Y017359D02*
X029022Y017359D01*
X029115Y017260D02*
X026696Y017260D01*
X026700Y017162D02*
X029150Y017162D01*
X029150Y017063D02*
X028884Y017063D01*
X028923Y016965D02*
X029150Y016965D01*
X029150Y016866D02*
X028923Y016866D01*
X028923Y016768D02*
X029150Y016768D01*
X028996Y016669D02*
X028923Y016669D01*
X028923Y016571D02*
X028977Y016571D01*
X028977Y016472D02*
X028871Y016472D01*
X028977Y016374D02*
X027250Y016374D01*
X027246Y016275D02*
X028977Y016275D01*
X028977Y016177D02*
X027206Y016177D01*
X027165Y016078D02*
X029049Y016078D01*
X029068Y015980D02*
X027072Y015980D01*
X026997Y015904D02*
X026997Y015904D01*
X026940Y015881D02*
X029068Y015881D01*
X029068Y015783D02*
X026764Y015783D01*
X026274Y015487D02*
X026226Y015487D01*
X026100Y015586D02*
X027552Y015586D01*
X028251Y015586D02*
X029049Y015586D01*
X029068Y015684D02*
X026100Y015684D01*
X026100Y015783D02*
X026136Y015783D01*
X027161Y016069D02*
X027161Y016069D01*
X027271Y016472D02*
X027323Y016472D01*
X026807Y016669D02*
X026777Y016669D01*
X026777Y016768D02*
X026853Y016768D01*
X026777Y016866D02*
X026938Y016866D01*
X027056Y016965D02*
X026777Y016965D01*
X026719Y017063D02*
X027333Y017063D01*
X027386Y017077D02*
X027386Y017077D01*
X027101Y017002D02*
X027101Y017002D01*
X027919Y017063D02*
X028150Y017063D01*
X028163Y016472D02*
X027977Y016472D01*
X029650Y016768D02*
X035920Y016768D01*
X035920Y016845D02*
X035920Y016655D01*
X035993Y016478D01*
X036128Y016343D01*
X036232Y016300D01*
X036128Y016257D01*
X035993Y016122D01*
X035920Y015945D01*
X035920Y015755D01*
X035993Y015578D01*
X036128Y015443D01*
X036232Y015400D01*
X036128Y015357D01*
X035993Y015222D01*
X035920Y015045D01*
X035920Y014855D01*
X035993Y014678D01*
X036128Y014543D01*
X036305Y014470D01*
X036495Y014470D01*
X036672Y014543D01*
X036807Y014678D01*
X036880Y014855D01*
X036880Y015045D01*
X036807Y015222D01*
X036672Y015357D01*
X036568Y015400D01*
X036672Y015443D01*
X036807Y015578D01*
X036880Y015755D01*
X036880Y015945D01*
X036807Y016122D01*
X036672Y016257D01*
X036568Y016300D01*
X036672Y016343D01*
X036807Y016478D01*
X036880Y016655D01*
X036880Y016845D01*
X036807Y017022D01*
X036672Y017157D01*
X036568Y017200D01*
X036672Y017243D01*
X036807Y017378D01*
X036880Y017555D01*
X036880Y017745D01*
X036807Y017922D01*
X036672Y018057D01*
X036495Y018130D01*
X036305Y018130D01*
X036128Y018057D01*
X035993Y017922D01*
X035920Y017745D01*
X035920Y017555D01*
X035993Y017378D01*
X036128Y017243D01*
X036232Y017200D01*
X036128Y017157D01*
X035993Y017022D01*
X035920Y016845D01*
X035929Y016866D02*
X029650Y016866D01*
X029650Y016965D02*
X035969Y016965D01*
X036034Y017063D02*
X029650Y017063D01*
X029650Y017162D02*
X036139Y017162D01*
X036111Y017260D02*
X029646Y017260D01*
X029630Y017359D02*
X036013Y017359D01*
X035960Y017457D02*
X029585Y017457D01*
X029626Y017389D02*
X029626Y017389D01*
X029527Y017556D02*
X035920Y017556D01*
X035920Y017654D02*
X029469Y017654D01*
X029467Y017656D02*
X029467Y017656D01*
X029467Y017656D01*
X029339Y017753D02*
X035923Y017753D01*
X035964Y017851D02*
X029185Y017851D01*
X029770Y016669D02*
X035920Y016669D01*
X035955Y016571D02*
X029789Y016571D01*
X029789Y016472D02*
X035999Y016472D01*
X036098Y016374D02*
X029789Y016374D01*
X029789Y016275D02*
X036172Y016275D01*
X036048Y016177D02*
X029789Y016177D01*
X029728Y016078D02*
X035975Y016078D01*
X035934Y015980D02*
X029728Y015980D01*
X029728Y015881D02*
X035920Y015881D01*
X035920Y015783D02*
X029728Y015783D01*
X029728Y015684D02*
X035949Y015684D01*
X035990Y015586D02*
X029748Y015586D01*
X029804Y015487D02*
X036084Y015487D01*
X036204Y015389D02*
X031593Y015389D01*
X031655Y015290D02*
X036061Y015290D01*
X035980Y015192D02*
X031670Y015192D01*
X031648Y015093D02*
X035940Y015093D01*
X035920Y014995D02*
X031625Y014995D01*
X031205Y014995D02*
X029804Y014995D01*
X029804Y015093D02*
X031152Y015093D01*
X031130Y015192D02*
X029804Y015192D01*
X029804Y015290D02*
X031145Y015290D01*
X031207Y015389D02*
X029804Y015389D01*
X028992Y015389D02*
X028308Y015389D01*
X028308Y015487D02*
X028992Y015487D01*
X028992Y015290D02*
X028308Y015290D01*
X028308Y015192D02*
X028992Y015192D01*
X028992Y015093D02*
X028308Y015093D01*
X028308Y014995D02*
X028992Y014995D01*
X028992Y014896D02*
X028308Y014896D01*
X028235Y014798D02*
X029065Y014798D01*
X029793Y014798D02*
X031069Y014798D01*
X031069Y014896D02*
X029804Y014896D01*
X031150Y014305D02*
X031728Y014305D01*
X031728Y014207D02*
X031150Y014207D01*
X031150Y014108D02*
X031728Y014108D01*
X031728Y014010D02*
X031150Y014010D01*
X031150Y013911D02*
X031728Y013911D01*
X031775Y013813D02*
X031150Y013813D01*
X031150Y013714D02*
X033248Y013714D01*
X033252Y013710D02*
X033210Y013668D01*
X033210Y013600D01*
X032892Y013600D01*
X032856Y013564D01*
X032554Y013564D01*
X032478Y013488D01*
X032478Y013120D01*
X032442Y013120D01*
X032432Y013110D01*
X032431Y013110D01*
X032431Y013611D01*
X032355Y013687D01*
X031814Y013687D01*
X031738Y013611D01*
X031738Y013109D01*
X031767Y013080D01*
X031738Y013051D01*
X031738Y012549D01*
X031814Y012473D01*
X032355Y012473D01*
X032360Y012478D01*
X032360Y010540D01*
X031942Y010540D01*
X031860Y010458D01*
X031860Y009192D01*
X031942Y009110D01*
X033260Y009110D01*
X033260Y007692D01*
X033342Y007610D01*
X034308Y007610D01*
X034368Y007670D01*
X034579Y007670D01*
X034655Y007746D01*
X034655Y008854D01*
X034579Y008930D01*
X034390Y008930D01*
X034390Y013668D01*
X034348Y013710D01*
X034390Y013752D01*
X034390Y014418D01*
X034308Y014500D01*
X033292Y014500D01*
X033210Y014418D01*
X033210Y013752D01*
X033252Y013710D01*
X033210Y013616D02*
X032426Y013616D01*
X032431Y013517D02*
X032507Y013517D01*
X032478Y013419D02*
X032431Y013419D01*
X032431Y013320D02*
X032478Y013320D01*
X032478Y013222D02*
X032431Y013222D01*
X032431Y013123D02*
X032478Y013123D01*
X031738Y013123D02*
X031150Y013123D01*
X031150Y013025D02*
X031738Y013025D01*
X031738Y012926D02*
X031150Y012926D01*
X031150Y012828D02*
X031738Y012828D01*
X031738Y012729D02*
X031150Y012729D01*
X031150Y012631D02*
X031738Y012631D01*
X031755Y012532D02*
X031150Y012532D01*
X031150Y012434D02*
X032360Y012434D01*
X032360Y012335D02*
X031150Y012335D01*
X031150Y012237D02*
X032360Y012237D01*
X032360Y012138D02*
X031150Y012138D01*
X031150Y012040D02*
X032360Y012040D01*
X032360Y011941D02*
X031150Y011941D01*
X031150Y011843D02*
X032360Y011843D01*
X032360Y011744D02*
X031150Y011744D01*
X031150Y011646D02*
X032360Y011646D01*
X032360Y011547D02*
X031150Y011547D01*
X031150Y011449D02*
X032360Y011449D01*
X032360Y011350D02*
X031150Y011350D01*
X031150Y011252D02*
X032360Y011252D01*
X032360Y011153D02*
X031150Y011153D01*
X031150Y011055D02*
X032360Y011055D01*
X032360Y010956D02*
X031150Y010956D01*
X031150Y010858D02*
X032360Y010858D01*
X032360Y010759D02*
X031150Y010759D01*
X031150Y010661D02*
X032360Y010661D01*
X032360Y010562D02*
X031150Y010562D01*
X031150Y010464D02*
X031866Y010464D01*
X031860Y010365D02*
X031150Y010365D01*
X031150Y010267D02*
X031860Y010267D01*
X031860Y010168D02*
X031150Y010168D01*
X031150Y010070D02*
X031860Y010070D01*
X031860Y009971D02*
X031150Y009971D01*
X031150Y009873D02*
X031860Y009873D01*
X031860Y009774D02*
X031150Y009774D01*
X031150Y009676D02*
X031860Y009676D01*
X031860Y009577D02*
X031150Y009577D01*
X031150Y009479D02*
X031860Y009479D01*
X031860Y009380D02*
X031150Y009380D01*
X031150Y009282D02*
X031860Y009282D01*
X031869Y009183D02*
X031150Y009183D01*
X031150Y009085D02*
X033260Y009085D01*
X033260Y008986D02*
X031150Y008986D01*
X031150Y008888D02*
X033260Y008888D01*
X033260Y008789D02*
X031150Y008789D01*
X031150Y008691D02*
X033260Y008691D01*
X033260Y008592D02*
X033117Y008592D01*
X033104Y008605D02*
X031996Y008605D01*
X031920Y008529D01*
X031920Y007421D01*
X031996Y007345D01*
X032040Y007345D01*
X032040Y006624D01*
X032115Y006393D01*
X032075Y006377D01*
X031928Y006230D01*
X031848Y006037D01*
X031848Y005829D01*
X031928Y005636D01*
X032075Y005489D01*
X032268Y005409D01*
X033264Y005409D01*
X033456Y005489D01*
X033603Y005636D01*
X033626Y005690D01*
X035000Y005690D01*
X035051Y005687D01*
X035149Y005660D01*
X035237Y005609D01*
X035309Y005537D01*
X035360Y005449D01*
X035387Y005351D01*
X035390Y005300D01*
X035390Y003500D01*
X035513Y003121D01*
X035513Y003121D01*
X035748Y002798D01*
X036071Y002563D01*
X036120Y002547D01*
X036120Y002546D01*
X036196Y002470D01*
X036358Y002470D01*
X036450Y002440D01*
X036761Y002440D01*
X036834Y002470D01*
X037104Y002470D01*
X037180Y002546D01*
X037180Y002816D01*
X037210Y002889D01*
X037210Y003111D01*
X037180Y003184D01*
X037180Y003454D01*
X037104Y003530D01*
X036834Y003530D01*
X036761Y003560D01*
X036650Y003560D01*
X036628Y003562D01*
X036586Y003575D01*
X036551Y003601D01*
X036525Y003636D01*
X036512Y003678D01*
X036510Y003700D01*
X036510Y005499D01*
X036407Y005883D01*
X036208Y006227D01*
X035927Y006508D01*
X035927Y006508D01*
X035583Y006707D01*
X035583Y006707D01*
X035199Y006810D01*
X033160Y006810D01*
X033160Y007401D01*
X033180Y007421D01*
X033180Y008529D01*
X033104Y008605D01*
X033180Y008494D02*
X033260Y008494D01*
X033260Y008395D02*
X033180Y008395D01*
X033180Y008297D02*
X033260Y008297D01*
X033260Y008198D02*
X033180Y008198D01*
X033180Y008100D02*
X033260Y008100D01*
X033260Y008001D02*
X033180Y008001D01*
X033180Y007903D02*
X033260Y007903D01*
X033260Y007804D02*
X033180Y007804D01*
X033180Y007706D02*
X033260Y007706D01*
X033180Y007607D02*
X036740Y007607D01*
X036740Y007509D02*
X033180Y007509D01*
X033169Y007410D02*
X036740Y007410D01*
X036740Y007312D02*
X033160Y007312D01*
X033160Y007213D02*
X036740Y007213D01*
X036740Y007115D02*
X033160Y007115D01*
X033160Y007016D02*
X036740Y007016D01*
X036740Y006918D02*
X033160Y006918D01*
X033160Y006819D02*
X036740Y006819D01*
X036740Y006721D02*
X035533Y006721D01*
X035730Y006622D02*
X036740Y006622D01*
X036740Y006524D02*
X035901Y006524D01*
X035927Y006508D02*
X035927Y006508D01*
X036010Y006425D02*
X036740Y006425D01*
X036740Y006374D02*
X036859Y005733D01*
X037093Y005125D01*
X037435Y004570D01*
X037872Y004087D01*
X037872Y004087D01*
X038391Y003691D01*
X038972Y003398D01*
X038972Y003398D01*
X039207Y003329D01*
X039285Y003306D01*
X039777Y003163D01*
X040505Y003034D01*
X040505Y002377D01*
X040445Y002377D01*
X040369Y002301D01*
X040369Y001799D01*
X040445Y001723D01*
X040986Y001723D01*
X041050Y001787D01*
X041114Y001723D01*
X041655Y001723D01*
X041731Y001799D01*
X041731Y001825D01*
X041793Y001763D01*
X042216Y001763D01*
X042292Y001839D01*
X042292Y002261D01*
X042216Y002337D01*
X041793Y002337D01*
X041731Y002275D01*
X041731Y002301D01*
X041655Y002377D01*
X041114Y002377D01*
X041050Y002313D01*
X040986Y002377D01*
X040925Y002377D01*
X040925Y002976D01*
X041806Y002918D01*
X041806Y002918D01*
X042309Y002940D01*
X047605Y002940D01*
X048002Y003046D01*
X048002Y003046D01*
X048358Y003252D01*
X048648Y003542D01*
X048854Y003898D01*
X048926Y004169D01*
X048974Y004217D01*
X049050Y004401D01*
X049050Y004599D01*
X048974Y004783D01*
X048833Y004924D01*
X048649Y005000D01*
X048451Y005000D01*
X048267Y004924D01*
X048126Y004783D01*
X048050Y004599D01*
X048050Y004401D01*
X048100Y004279D01*
X048084Y004217D01*
X048084Y004217D01*
X047987Y004050D01*
X047850Y003913D01*
X047683Y003816D01*
X047497Y003766D01*
X047400Y003760D01*
X042372Y003760D01*
X042364Y003763D01*
X042291Y003760D01*
X042218Y003760D01*
X042215Y003759D01*
X041816Y003752D01*
X040885Y003813D01*
X039966Y003975D01*
X039515Y004094D01*
X039279Y004174D01*
X038834Y004399D01*
X038437Y004701D01*
X038103Y005071D01*
X037842Y005496D01*
X037663Y005961D01*
X037571Y006451D01*
X037560Y006700D01*
X037560Y007567D01*
X037562Y007569D01*
X037562Y008071D01*
X037560Y008073D01*
X037560Y008187D01*
X037562Y008189D01*
X037562Y008691D01*
X037560Y008693D01*
X037560Y009012D01*
X037590Y009042D01*
X037590Y012808D01*
X037508Y012890D01*
X035592Y012890D01*
X035510Y012808D01*
X035510Y009042D01*
X035592Y008960D01*
X036740Y008960D01*
X036740Y006374D01*
X036749Y006327D02*
X036109Y006327D01*
X036207Y006228D02*
X036767Y006228D01*
X036785Y006130D02*
X036265Y006130D01*
X036208Y006227D02*
X036208Y006227D01*
X036322Y006031D02*
X036804Y006031D01*
X036822Y005933D02*
X036378Y005933D01*
X036407Y005883D02*
X036407Y005883D01*
X036420Y005834D02*
X036840Y005834D01*
X036859Y005736D02*
X036447Y005736D01*
X036473Y005637D02*
X036896Y005637D01*
X036859Y005733D02*
X036859Y005733D01*
X036934Y005539D02*
X036499Y005539D01*
X036510Y005440D02*
X036972Y005440D01*
X037010Y005342D02*
X036510Y005342D01*
X036510Y005243D02*
X037048Y005243D01*
X037086Y005145D02*
X036510Y005145D01*
X036510Y005046D02*
X037142Y005046D01*
X037093Y005125D02*
X037093Y005125D01*
X037203Y004948D02*
X036510Y004948D01*
X036510Y004849D02*
X037263Y004849D01*
X037324Y004751D02*
X036510Y004751D01*
X036510Y004652D02*
X037385Y004652D01*
X037435Y004570D02*
X037435Y004570D01*
X037450Y004554D02*
X036510Y004554D01*
X036510Y004455D02*
X037539Y004455D01*
X037628Y004357D02*
X036510Y004357D01*
X036510Y004258D02*
X037717Y004258D01*
X037806Y004160D02*
X036510Y004160D01*
X036510Y004061D02*
X037906Y004061D01*
X037872Y004087D02*
X037872Y004087D01*
X038035Y003963D02*
X036510Y003963D01*
X036510Y003864D02*
X038164Y003864D01*
X038293Y003766D02*
X036510Y003766D01*
X036515Y003667D02*
X038439Y003667D01*
X038391Y003691D02*
X038391Y003691D01*
X038634Y003569D02*
X036607Y003569D01*
X037164Y003470D02*
X038829Y003470D01*
X039062Y003372D02*
X037180Y003372D01*
X037180Y003273D02*
X039400Y003273D01*
X039207Y003329D02*
X039207Y003329D01*
X039737Y003175D02*
X037184Y003175D01*
X037210Y003076D02*
X040270Y003076D01*
X040505Y002978D02*
X037210Y002978D01*
X037206Y002879D02*
X040505Y002879D01*
X040505Y002781D02*
X037180Y002781D01*
X037180Y002682D02*
X040505Y002682D01*
X040505Y002584D02*
X037180Y002584D01*
X037119Y002485D02*
X040505Y002485D01*
X040505Y002387D02*
X031166Y002387D01*
X031180Y002485D02*
X036181Y002485D01*
X036071Y002563D02*
X036071Y002563D01*
X036043Y002584D02*
X031180Y002584D01*
X031180Y002682D02*
X035908Y002682D01*
X035772Y002781D02*
X031180Y002781D01*
X031180Y002879D02*
X035689Y002879D01*
X035748Y002798D02*
X035748Y002798D01*
X035748Y002798D01*
X035617Y002978D02*
X031180Y002978D01*
X031180Y003076D02*
X035546Y003076D01*
X035496Y003175D02*
X031180Y003175D01*
X031180Y003273D02*
X035464Y003273D01*
X035432Y003372D02*
X031180Y003372D01*
X031180Y003470D02*
X035400Y003470D01*
X035390Y003569D02*
X031180Y003569D01*
X031180Y003667D02*
X035390Y003667D01*
X035390Y003766D02*
X031180Y003766D01*
X031180Y003864D02*
X035390Y003864D01*
X035390Y003963D02*
X031180Y003963D01*
X031180Y004061D02*
X035390Y004061D01*
X035390Y004160D02*
X031180Y004160D01*
X031180Y004258D02*
X035390Y004258D01*
X035390Y004357D02*
X031180Y004357D01*
X031180Y004455D02*
X035390Y004455D01*
X035390Y004554D02*
X031180Y004554D01*
X031180Y004652D02*
X035390Y004652D01*
X035390Y004751D02*
X031180Y004751D01*
X031180Y004849D02*
X035390Y004849D01*
X035390Y004948D02*
X031180Y004948D01*
X031180Y005046D02*
X035390Y005046D01*
X035390Y005145D02*
X031180Y005145D01*
X031180Y005243D02*
X035390Y005243D01*
X035387Y005342D02*
X031180Y005342D01*
X031180Y005440D02*
X032194Y005440D01*
X032026Y005539D02*
X031180Y005539D01*
X031180Y005637D02*
X031928Y005637D01*
X031887Y005736D02*
X031180Y005736D01*
X031180Y005834D02*
X031848Y005834D01*
X031848Y005933D02*
X031180Y005933D01*
X031180Y006031D02*
X031848Y006031D01*
X031887Y006130D02*
X031180Y006130D01*
X031180Y006228D02*
X031927Y006228D01*
X032025Y006327D02*
X031180Y006327D01*
X031180Y006425D02*
X032105Y006425D01*
X032073Y006524D02*
X031180Y006524D01*
X031180Y006622D02*
X032041Y006622D01*
X032040Y006721D02*
X031180Y006721D01*
X031180Y006819D02*
X032040Y006819D01*
X032040Y006918D02*
X031180Y006918D01*
X031180Y007016D02*
X032040Y007016D01*
X032040Y007115D02*
X031180Y007115D01*
X031180Y007213D02*
X032040Y007213D01*
X032040Y007312D02*
X031180Y007312D01*
X031180Y007410D02*
X031931Y007410D01*
X031920Y007509D02*
X031180Y007509D01*
X031180Y007607D02*
X031920Y007607D01*
X031920Y007706D02*
X031180Y007706D01*
X031180Y007804D02*
X031920Y007804D01*
X031920Y007903D02*
X031180Y007903D01*
X031180Y008001D02*
X031920Y008001D01*
X031920Y008100D02*
X031180Y008100D01*
X031180Y008198D02*
X031920Y008198D01*
X031920Y008297D02*
X031180Y008297D01*
X031176Y008395D02*
X031920Y008395D01*
X031920Y008494D02*
X031150Y008494D01*
X031150Y008592D02*
X031983Y008592D01*
X034390Y008986D02*
X035566Y008986D01*
X035510Y009085D02*
X034390Y009085D01*
X034390Y009183D02*
X035510Y009183D01*
X035510Y009282D02*
X034390Y009282D01*
X034390Y009380D02*
X035510Y009380D01*
X035510Y009479D02*
X034390Y009479D01*
X034390Y009577D02*
X035510Y009577D01*
X035510Y009676D02*
X034390Y009676D01*
X034390Y009774D02*
X035510Y009774D01*
X035510Y009873D02*
X034390Y009873D01*
X034390Y009971D02*
X035510Y009971D01*
X035510Y010070D02*
X034390Y010070D01*
X034390Y010168D02*
X035510Y010168D01*
X035510Y010267D02*
X034390Y010267D01*
X034390Y010365D02*
X035510Y010365D01*
X035510Y010464D02*
X034390Y010464D01*
X034390Y010562D02*
X035510Y010562D01*
X035510Y010661D02*
X034390Y010661D01*
X034390Y010759D02*
X035510Y010759D01*
X035510Y010858D02*
X034390Y010858D01*
X034390Y010956D02*
X035510Y010956D01*
X035510Y011055D02*
X034390Y011055D01*
X034390Y011153D02*
X035510Y011153D01*
X035510Y011252D02*
X034390Y011252D01*
X034390Y011350D02*
X035510Y011350D01*
X035510Y011449D02*
X034390Y011449D01*
X034390Y011547D02*
X035510Y011547D01*
X035510Y011646D02*
X034390Y011646D01*
X034390Y011744D02*
X035510Y011744D01*
X035510Y011843D02*
X034390Y011843D01*
X034390Y011941D02*
X035510Y011941D01*
X035510Y012040D02*
X034390Y012040D01*
X034390Y012138D02*
X035510Y012138D01*
X035510Y012237D02*
X034390Y012237D01*
X034390Y012335D02*
X035510Y012335D01*
X035510Y012434D02*
X034390Y012434D01*
X034390Y012532D02*
X035510Y012532D01*
X035510Y012631D02*
X034390Y012631D01*
X034390Y012729D02*
X035510Y012729D01*
X035530Y012828D02*
X034390Y012828D01*
X034390Y012926D02*
X040163Y012926D01*
X040065Y012828D02*
X037570Y012828D01*
X037590Y012729D02*
X039999Y012729D01*
X039959Y012631D02*
X037590Y012631D01*
X037590Y012532D02*
X039946Y012532D01*
X039946Y012434D02*
X037590Y012434D01*
X037590Y012335D02*
X039973Y012335D01*
X040014Y012237D02*
X037590Y012237D01*
X037590Y012138D02*
X040099Y012138D01*
X040245Y012040D02*
X037590Y012040D01*
X037590Y011941D02*
X040198Y011941D01*
X040080Y011843D02*
X037590Y011843D01*
X037590Y011744D02*
X040006Y011744D01*
X039965Y011646D02*
X037590Y011646D01*
X037590Y011547D02*
X039946Y011547D01*
X039946Y011449D02*
X037590Y011449D01*
X037590Y011350D02*
X039967Y011350D01*
X040007Y011252D02*
X037590Y011252D01*
X037590Y011153D02*
X040084Y011153D01*
X040208Y011055D02*
X037590Y011055D01*
X037590Y010956D02*
X040234Y010956D01*
X040095Y010858D02*
X037590Y010858D01*
X037590Y010759D02*
X040012Y010759D01*
X039971Y010661D02*
X037590Y010661D01*
X037590Y010562D02*
X039946Y010562D01*
X039946Y010464D02*
X037590Y010464D01*
X037590Y010365D02*
X039960Y010365D01*
X040001Y010267D02*
X037590Y010267D01*
X037590Y010168D02*
X040069Y010168D01*
X040172Y010070D02*
X037590Y010070D01*
X037590Y009971D02*
X040270Y009971D01*
X040110Y009873D02*
X037590Y009873D01*
X037590Y009774D02*
X040018Y009774D01*
X039977Y009676D02*
X037590Y009676D01*
X037590Y009577D02*
X039946Y009577D01*
X039946Y009479D02*
X037590Y009479D01*
X037590Y009380D02*
X039954Y009380D01*
X039995Y009282D02*
X037590Y009282D01*
X037590Y009183D02*
X040054Y009183D01*
X040153Y009085D02*
X037590Y009085D01*
X037560Y008986D02*
X040306Y008986D01*
X040125Y008888D02*
X037560Y008888D01*
X037560Y008789D02*
X040026Y008789D01*
X039983Y008691D02*
X037562Y008691D01*
X037562Y008592D02*
X039946Y008592D01*
X039946Y008494D02*
X037562Y008494D01*
X037562Y008395D02*
X039948Y008395D01*
X039989Y008297D02*
X037562Y008297D01*
X037562Y008198D02*
X040039Y008198D01*
X040138Y008100D02*
X037560Y008100D01*
X037562Y008001D02*
X040338Y008001D01*
X040562Y008001D02*
X041448Y008001D01*
X041652Y008001D02*
X042448Y008001D01*
X042451Y008000D02*
X042649Y008000D01*
X042833Y008076D01*
X042974Y008217D01*
X043050Y008401D01*
X043050Y008599D01*
X042974Y008783D01*
X042833Y008924D01*
X042649Y009000D01*
X042833Y009076D01*
X042974Y009217D01*
X043050Y009401D01*
X043050Y009599D01*
X042974Y009783D01*
X042833Y009924D01*
X042649Y010000D01*
X042833Y010076D01*
X042974Y010217D01*
X043050Y010401D01*
X043050Y010599D01*
X042974Y010783D01*
X042833Y010924D01*
X042649Y011000D01*
X042833Y011076D01*
X042974Y011217D01*
X043050Y011401D01*
X043050Y011599D01*
X042974Y011783D01*
X042833Y011924D01*
X042649Y012000D01*
X042833Y012076D01*
X042974Y012217D01*
X043050Y012401D01*
X043050Y012599D01*
X042974Y012783D01*
X042833Y012924D01*
X042649Y013000D01*
X042451Y013000D01*
X042267Y012924D01*
X042126Y012783D01*
X042050Y012599D01*
X042050Y012401D01*
X042126Y012217D01*
X042267Y012076D01*
X042451Y012000D01*
X042649Y012000D01*
X042451Y012000D01*
X042267Y011924D01*
X042126Y011783D01*
X042050Y011599D01*
X042050Y011401D01*
X042126Y011217D01*
X042267Y011076D01*
X042451Y011000D01*
X042649Y011000D01*
X042451Y011000D01*
X042267Y010924D01*
X042126Y010783D01*
X042050Y010599D01*
X042050Y010401D01*
X042126Y010217D01*
X042267Y010076D01*
X042451Y010000D01*
X042649Y010000D01*
X042451Y010000D01*
X042267Y009924D01*
X042126Y009783D01*
X042050Y009599D01*
X042050Y009401D01*
X042126Y009217D01*
X042267Y009076D01*
X042451Y009000D01*
X042649Y009000D01*
X042451Y009000D01*
X042267Y008924D01*
X042126Y008783D01*
X042050Y008599D01*
X042050Y008401D01*
X042126Y008217D01*
X042267Y008076D01*
X042451Y008000D01*
X042652Y008001D02*
X043448Y008001D01*
X043652Y008001D02*
X048448Y008001D01*
X048652Y008001D02*
X049448Y008001D01*
X049652Y008001D02*
X050448Y008001D01*
X050652Y008001D02*
X051538Y008001D01*
X051340Y007903D02*
X050855Y007903D01*
X050953Y007804D02*
X051241Y007804D01*
X051190Y007706D02*
X051006Y007706D01*
X051047Y007607D02*
X051149Y007607D01*
X051146Y007509D02*
X051050Y007509D01*
X051050Y007410D02*
X051146Y007410D01*
X051183Y007312D02*
X051013Y007312D01*
X050970Y007213D02*
X051224Y007213D01*
X051323Y007115D02*
X050872Y007115D01*
X050840Y006918D02*
X051355Y006918D01*
X051256Y006819D02*
X050938Y006819D01*
X051000Y006721D02*
X051196Y006721D01*
X051155Y006622D02*
X051041Y006622D01*
X051050Y006524D02*
X051146Y006524D01*
X051146Y006425D02*
X051050Y006425D01*
X051019Y006327D02*
X051176Y006327D01*
X051217Y006228D02*
X050979Y006228D01*
X050887Y006130D02*
X051308Y006130D01*
X051465Y006031D02*
X050724Y006031D01*
X050376Y006031D02*
X049724Y006031D01*
X049887Y006130D02*
X050213Y006130D01*
X050121Y006228D02*
X049979Y006228D01*
X050019Y006327D02*
X050081Y006327D01*
X050050Y006425D02*
X050050Y006425D01*
X050050Y006524D02*
X050050Y006524D01*
X050041Y006622D02*
X050059Y006622D01*
X050100Y006721D02*
X050000Y006721D01*
X049938Y006819D02*
X050162Y006819D01*
X050260Y006918D02*
X049840Y006918D01*
X049688Y007016D02*
X050412Y007016D01*
X050228Y007115D02*
X049872Y007115D01*
X049970Y007213D02*
X050130Y007213D01*
X050087Y007312D02*
X050013Y007312D01*
X050050Y007410D02*
X050050Y007410D01*
X050050Y007509D02*
X050050Y007509D01*
X050047Y007607D02*
X050053Y007607D01*
X050094Y007706D02*
X050006Y007706D01*
X049953Y007804D02*
X050147Y007804D01*
X050245Y007903D02*
X049855Y007903D01*
X049857Y008100D02*
X050243Y008100D01*
X050145Y008198D02*
X049955Y008198D01*
X050007Y008297D02*
X050093Y008297D01*
X050052Y008395D02*
X050048Y008395D01*
X050050Y008494D02*
X050050Y008494D01*
X050050Y008592D02*
X050050Y008592D01*
X050012Y008691D02*
X050088Y008691D01*
X050132Y008789D02*
X049968Y008789D01*
X049870Y008888D02*
X050230Y008888D01*
X050258Y009085D02*
X049842Y009085D01*
X049940Y009183D02*
X050160Y009183D01*
X050099Y009282D02*
X050001Y009282D01*
X050041Y009380D02*
X050059Y009380D01*
X050050Y009479D02*
X050050Y009479D01*
X050050Y009577D02*
X050050Y009577D01*
X050018Y009676D02*
X050082Y009676D01*
X050122Y009774D02*
X049978Y009774D01*
X049885Y009873D02*
X050215Y009873D01*
X050381Y009971D02*
X049719Y009971D01*
X049817Y010070D02*
X050283Y010070D01*
X050175Y010168D02*
X049925Y010168D01*
X049994Y010267D02*
X050106Y010267D01*
X050065Y010365D02*
X050035Y010365D01*
X050050Y010464D02*
X050050Y010464D01*
X050050Y010562D02*
X050050Y010562D01*
X050025Y010661D02*
X050075Y010661D01*
X050116Y010759D02*
X049984Y010759D01*
X049900Y010858D02*
X050200Y010858D01*
X050344Y010956D02*
X049756Y010956D01*
X049781Y011055D02*
X050319Y011055D01*
X050190Y011153D02*
X049910Y011153D01*
X049988Y011252D02*
X050112Y011252D01*
X050071Y011350D02*
X050029Y011350D01*
X050050Y011449D02*
X050050Y011449D01*
X050050Y011547D02*
X050050Y011547D01*
X050031Y011646D02*
X050069Y011646D01*
X050110Y011744D02*
X049990Y011744D01*
X049915Y011843D02*
X050185Y011843D01*
X050308Y011941D02*
X049792Y011941D01*
X049745Y012040D02*
X050355Y012040D01*
X050205Y012138D02*
X049895Y012138D01*
X049982Y012237D02*
X050118Y012237D01*
X050077Y012335D02*
X050023Y012335D01*
X050050Y012434D02*
X050050Y012434D01*
X050050Y012532D02*
X050050Y012532D01*
X050037Y012631D02*
X050063Y012631D01*
X050104Y012729D02*
X049996Y012729D01*
X049930Y012828D02*
X050170Y012828D01*
X050272Y012926D02*
X049828Y012926D01*
X049709Y013025D02*
X050391Y013025D01*
X050220Y013123D02*
X049880Y013123D01*
X049976Y013222D02*
X050124Y013222D01*
X050083Y013320D02*
X050017Y013320D01*
X050050Y013419D02*
X050050Y013419D01*
X050050Y013517D02*
X050050Y013517D01*
X050043Y013616D02*
X050057Y013616D01*
X050097Y013714D02*
X050003Y013714D01*
X049945Y013813D02*
X050155Y013813D01*
X050254Y013911D02*
X049846Y013911D01*
X049865Y014108D02*
X050235Y014108D01*
X050136Y014207D02*
X049964Y014207D01*
X050010Y014305D02*
X050090Y014305D01*
X050050Y014401D02*
X050050Y014450D01*
X050050Y014450D01*
X050050Y014401D01*
X050050Y014404D02*
X050050Y014404D01*
X050964Y014207D02*
X051231Y014207D01*
X051185Y014305D02*
X051010Y014305D01*
X051050Y014404D02*
X051146Y014404D01*
X051146Y014502D02*
X051050Y014502D01*
X051050Y014601D02*
X051146Y014601D01*
X051187Y014699D02*
X051009Y014699D01*
X050960Y014798D02*
X051235Y014798D01*
X051333Y014896D02*
X050861Y014896D01*
X050850Y015093D02*
X051344Y015093D01*
X051246Y015192D02*
X050949Y015192D01*
X051004Y015290D02*
X051191Y015290D01*
X051151Y015389D02*
X051045Y015389D01*
X051050Y015487D02*
X051146Y015487D01*
X051146Y015586D02*
X051050Y015586D01*
X051015Y015684D02*
X051181Y015684D01*
X051221Y015783D02*
X050974Y015783D01*
X050876Y015881D02*
X051318Y015881D01*
X051491Y015980D02*
X050699Y015980D01*
X050401Y015980D02*
X050200Y015980D01*
X050200Y016078D02*
X051650Y016078D01*
X051650Y016177D02*
X050200Y016177D01*
X050200Y016275D02*
X051650Y016275D01*
X051650Y016374D02*
X050200Y016374D01*
X050200Y016472D02*
X051650Y016472D01*
X051385Y016571D02*
X050200Y016571D01*
X050200Y016669D02*
X051148Y016669D01*
X051025Y016768D02*
X050200Y016768D01*
X050200Y016866D02*
X050926Y016866D01*
X050833Y016965D02*
X050200Y016965D01*
X050200Y017063D02*
X050792Y017063D01*
X050751Y017162D02*
X050200Y017162D01*
X050200Y017260D02*
X050710Y017260D01*
X050690Y017359D02*
X050200Y017359D01*
X050200Y017457D02*
X050690Y017457D01*
X050690Y017556D02*
X050200Y017556D01*
X050200Y017654D02*
X050690Y017654D01*
X050716Y017753D02*
X050200Y017753D01*
X050200Y017851D02*
X050756Y017851D01*
X050797Y017950D02*
X050200Y017950D01*
X050200Y018048D02*
X050840Y018048D01*
X050939Y018147D02*
X050200Y018147D01*
X050200Y018245D02*
X051037Y018245D01*
X050224Y015881D02*
X050200Y015881D01*
X050200Y015143D02*
X050267Y015076D01*
X050451Y015000D01*
X050649Y015000D01*
X050451Y015000D01*
X050267Y014924D01*
X050200Y014857D01*
X050200Y015143D01*
X050200Y015093D02*
X050250Y015093D01*
X050200Y014995D02*
X050437Y014995D01*
X050239Y014896D02*
X050200Y014896D01*
X050663Y014995D02*
X051527Y014995D01*
X049136Y014207D02*
X048964Y014207D01*
X049010Y014305D02*
X049090Y014305D01*
X049050Y014401D02*
X049050Y014450D01*
X049050Y014450D01*
X049050Y014401D01*
X049050Y014404D02*
X049050Y014404D01*
X048865Y014108D02*
X049235Y014108D01*
X049254Y013911D02*
X048846Y013911D01*
X048945Y013813D02*
X049155Y013813D01*
X049097Y013714D02*
X049003Y013714D01*
X049043Y013616D02*
X049057Y013616D01*
X049050Y013517D02*
X049050Y013517D01*
X049050Y013419D02*
X049050Y013419D01*
X049017Y013320D02*
X049083Y013320D01*
X049124Y013222D02*
X048976Y013222D01*
X048880Y013123D02*
X049220Y013123D01*
X049391Y013025D02*
X048709Y013025D01*
X048828Y012926D02*
X049272Y012926D01*
X049170Y012828D02*
X048930Y012828D01*
X048996Y012729D02*
X049104Y012729D01*
X049063Y012631D02*
X049037Y012631D01*
X049050Y012532D02*
X049050Y012532D01*
X049050Y012434D02*
X049050Y012434D01*
X049023Y012335D02*
X049077Y012335D01*
X049118Y012237D02*
X048982Y012237D01*
X048895Y012138D02*
X049205Y012138D01*
X049355Y012040D02*
X048745Y012040D01*
X048792Y011941D02*
X049308Y011941D01*
X049185Y011843D02*
X048915Y011843D01*
X048990Y011744D02*
X049110Y011744D01*
X049069Y011646D02*
X049031Y011646D01*
X049050Y011547D02*
X049050Y011547D01*
X049050Y011449D02*
X049050Y011449D01*
X049029Y011350D02*
X049071Y011350D01*
X049112Y011252D02*
X048988Y011252D01*
X048910Y011153D02*
X049190Y011153D01*
X049319Y011055D02*
X048781Y011055D01*
X048756Y010956D02*
X049344Y010956D01*
X049200Y010858D02*
X048900Y010858D01*
X048984Y010759D02*
X049116Y010759D01*
X049075Y010661D02*
X049025Y010661D01*
X049050Y010562D02*
X049050Y010562D01*
X049050Y010464D02*
X049050Y010464D01*
X049035Y010365D02*
X049065Y010365D01*
X049106Y010267D02*
X048994Y010267D01*
X048925Y010168D02*
X049175Y010168D01*
X049283Y010070D02*
X048817Y010070D01*
X048719Y009971D02*
X049381Y009971D01*
X049215Y009873D02*
X048885Y009873D01*
X048978Y009774D02*
X049122Y009774D01*
X049082Y009676D02*
X049018Y009676D01*
X049050Y009577D02*
X049050Y009577D01*
X049050Y009479D02*
X049050Y009479D01*
X049041Y009380D02*
X049059Y009380D01*
X049099Y009282D02*
X049001Y009282D01*
X048940Y009183D02*
X049160Y009183D01*
X049258Y009085D02*
X048842Y009085D01*
X048683Y008986D02*
X049417Y008986D01*
X049230Y008888D02*
X048870Y008888D01*
X048968Y008789D02*
X049132Y008789D01*
X049088Y008691D02*
X049012Y008691D01*
X049050Y008592D02*
X049050Y008592D01*
X049050Y008494D02*
X049050Y008494D01*
X049048Y008395D02*
X049052Y008395D01*
X049093Y008297D02*
X049007Y008297D01*
X048955Y008198D02*
X049145Y008198D01*
X049243Y008100D02*
X048857Y008100D01*
X048855Y007903D02*
X049245Y007903D01*
X049147Y007804D02*
X048953Y007804D01*
X049006Y007706D02*
X049094Y007706D01*
X049053Y007607D02*
X049047Y007607D01*
X049050Y007509D02*
X049050Y007509D01*
X049050Y007410D02*
X049050Y007410D01*
X049013Y007312D02*
X049087Y007312D01*
X049130Y007213D02*
X048970Y007213D01*
X048872Y007115D02*
X049228Y007115D01*
X049260Y006918D02*
X048840Y006918D01*
X048938Y006819D02*
X049162Y006819D01*
X049100Y006721D02*
X049000Y006721D01*
X049041Y006622D02*
X049059Y006622D01*
X049050Y006524D02*
X049050Y006524D01*
X049050Y006425D02*
X049050Y006425D01*
X049019Y006327D02*
X049081Y006327D01*
X049121Y006228D02*
X048979Y006228D01*
X048887Y006130D02*
X049213Y006130D01*
X049376Y006031D02*
X048724Y006031D01*
X048376Y006031D02*
X043724Y006031D01*
X043649Y006000D02*
X043451Y006000D01*
X043267Y005924D01*
X043126Y005783D01*
X043050Y005599D01*
X043050Y005401D01*
X043126Y005217D01*
X043267Y005076D01*
X043451Y005000D01*
X043267Y004924D01*
X043126Y004783D01*
X043050Y004599D01*
X043050Y004401D01*
X043126Y004217D01*
X043267Y004076D01*
X043451Y004000D01*
X043649Y004000D01*
X043833Y004076D01*
X043974Y004217D01*
X044050Y004401D01*
X044050Y004599D01*
X043974Y004783D01*
X043833Y004924D01*
X043649Y005000D01*
X043451Y005000D01*
X043649Y005000D01*
X043833Y005076D01*
X043974Y005217D01*
X044050Y005401D01*
X044050Y005599D01*
X043974Y005783D01*
X043833Y005924D01*
X043649Y006000D01*
X043833Y006076D01*
X043974Y006217D01*
X044050Y006401D01*
X044050Y006599D01*
X043974Y006783D01*
X043833Y006924D01*
X043649Y007000D01*
X043451Y007000D01*
X043267Y006924D01*
X043126Y006783D01*
X043050Y006599D01*
X043050Y006401D01*
X043126Y006217D01*
X043267Y006076D01*
X043451Y006000D01*
X043649Y006000D01*
X043812Y005933D02*
X051650Y005933D01*
X051650Y005834D02*
X043923Y005834D01*
X043994Y005736D02*
X051650Y005736D01*
X051650Y005637D02*
X044034Y005637D01*
X044050Y005539D02*
X051650Y005539D01*
X051650Y005440D02*
X044050Y005440D01*
X044026Y005342D02*
X051650Y005342D01*
X051650Y005243D02*
X043985Y005243D01*
X043902Y005145D02*
X051650Y005145D01*
X051650Y005046D02*
X043761Y005046D01*
X043776Y004948D02*
X048324Y004948D01*
X048192Y004849D02*
X043908Y004849D01*
X043987Y004751D02*
X048113Y004751D01*
X048072Y004652D02*
X044028Y004652D01*
X044050Y004554D02*
X048050Y004554D01*
X048050Y004455D02*
X044050Y004455D01*
X044032Y004357D02*
X048068Y004357D01*
X048095Y004258D02*
X043991Y004258D01*
X043917Y004160D02*
X048051Y004160D01*
X047994Y004061D02*
X043797Y004061D01*
X043303Y004061D02*
X042797Y004061D01*
X042833Y004076D02*
X042649Y004000D01*
X042451Y004000D01*
X042267Y004076D01*
X042126Y004217D01*
X042050Y004401D01*
X041974Y004217D01*
X041833Y004076D01*
X041649Y004000D01*
X041451Y004000D01*
X041267Y004076D01*
X041126Y004217D01*
X041050Y004401D01*
X041050Y004599D01*
X041126Y004783D01*
X041267Y004924D01*
X041451Y005000D01*
X041649Y005000D01*
X041833Y004924D01*
X041974Y004783D01*
X042050Y004599D01*
X042050Y004401D01*
X042050Y004599D01*
X042126Y004783D01*
X042267Y004924D01*
X042451Y005000D01*
X042649Y005000D01*
X042833Y005076D01*
X042974Y005217D01*
X043050Y005401D01*
X043050Y005599D01*
X042974Y005783D01*
X042833Y005924D01*
X042649Y006000D01*
X042833Y006076D01*
X042974Y006217D01*
X043050Y006401D01*
X043050Y006599D01*
X042974Y006783D01*
X042833Y006924D01*
X042649Y007000D01*
X042451Y007000D01*
X042267Y006924D01*
X042126Y006783D01*
X042050Y006599D01*
X041974Y006783D01*
X041833Y006924D01*
X041649Y007000D01*
X041451Y007000D01*
X041267Y006924D01*
X041126Y006783D01*
X041050Y006599D01*
X041050Y006401D01*
X041126Y006217D01*
X041267Y006076D01*
X041451Y006000D01*
X041267Y005924D01*
X041126Y005783D01*
X041050Y005599D01*
X041050Y005401D01*
X041126Y005217D01*
X041267Y005076D01*
X041451Y005000D01*
X041649Y005000D01*
X041833Y005076D01*
X041974Y005217D01*
X042050Y005401D01*
X042050Y005599D01*
X041974Y005783D01*
X041833Y005924D01*
X041649Y006000D01*
X041451Y006000D01*
X041649Y006000D01*
X041833Y006076D01*
X041974Y006217D01*
X042050Y006401D01*
X042050Y006599D01*
X042050Y006401D01*
X042126Y006217D01*
X042267Y006076D01*
X042451Y006000D01*
X042649Y006000D01*
X042451Y006000D01*
X042267Y005924D01*
X042126Y005783D01*
X042050Y005599D01*
X042050Y005401D01*
X042126Y005217D01*
X042267Y005076D01*
X042451Y005000D01*
X042649Y005000D01*
X042833Y004924D01*
X042974Y004783D01*
X043050Y004599D01*
X043050Y004401D01*
X042974Y004217D01*
X042833Y004076D01*
X042917Y004160D02*
X043183Y004160D01*
X043109Y004258D02*
X042991Y004258D01*
X043032Y004357D02*
X043068Y004357D01*
X043050Y004455D02*
X043050Y004455D01*
X043050Y004554D02*
X043050Y004554D01*
X043028Y004652D02*
X043072Y004652D01*
X043113Y004751D02*
X042987Y004751D01*
X042908Y004849D02*
X043192Y004849D01*
X043324Y004948D02*
X042776Y004948D01*
X042761Y005046D02*
X043339Y005046D01*
X043198Y005145D02*
X042902Y005145D01*
X042985Y005243D02*
X043115Y005243D01*
X043074Y005342D02*
X043026Y005342D01*
X043050Y005440D02*
X043050Y005440D01*
X043050Y005539D02*
X043050Y005539D01*
X043034Y005637D02*
X043066Y005637D01*
X043106Y005736D02*
X042994Y005736D01*
X042923Y005834D02*
X043177Y005834D01*
X043288Y005933D02*
X042812Y005933D01*
X042724Y006031D02*
X043376Y006031D01*
X043213Y006130D02*
X042887Y006130D01*
X042979Y006228D02*
X043121Y006228D01*
X043081Y006327D02*
X043019Y006327D01*
X043050Y006425D02*
X043050Y006425D01*
X043050Y006524D02*
X043050Y006524D01*
X043041Y006622D02*
X043059Y006622D01*
X043100Y006721D02*
X043000Y006721D01*
X042938Y006819D02*
X043162Y006819D01*
X043260Y006918D02*
X042840Y006918D01*
X042260Y006918D02*
X041840Y006918D01*
X041938Y006819D02*
X042162Y006819D01*
X042100Y006721D02*
X042000Y006721D01*
X042041Y006622D02*
X042059Y006622D01*
X042050Y006524D02*
X042050Y006524D01*
X042050Y006425D02*
X042050Y006425D01*
X042019Y006327D02*
X042081Y006327D01*
X042121Y006228D02*
X041979Y006228D01*
X041887Y006130D02*
X042213Y006130D01*
X042376Y006031D02*
X041724Y006031D01*
X041812Y005933D02*
X042288Y005933D01*
X042177Y005834D02*
X041923Y005834D01*
X041994Y005736D02*
X042106Y005736D01*
X042066Y005637D02*
X042034Y005637D01*
X042050Y005539D02*
X042050Y005539D01*
X042050Y005440D02*
X042050Y005440D01*
X042026Y005342D02*
X042074Y005342D01*
X042115Y005243D02*
X041985Y005243D01*
X041902Y005145D02*
X042198Y005145D01*
X042339Y005046D02*
X041761Y005046D01*
X041776Y004948D02*
X042324Y004948D01*
X042192Y004849D02*
X041908Y004849D01*
X041987Y004751D02*
X042113Y004751D01*
X042072Y004652D02*
X042028Y004652D01*
X042050Y004554D02*
X042050Y004554D01*
X042050Y004455D02*
X042050Y004455D01*
X042032Y004357D02*
X042068Y004357D01*
X042109Y004258D02*
X041991Y004258D01*
X041917Y004160D02*
X042183Y004160D01*
X042303Y004061D02*
X041797Y004061D01*
X041610Y003766D02*
X047484Y003766D01*
X047766Y003864D02*
X040596Y003864D01*
X040550Y003996D02*
X040350Y003996D01*
X040164Y004073D01*
X040023Y004214D01*
X039946Y004400D01*
X039946Y004600D01*
X040023Y004786D01*
X040164Y004927D01*
X040340Y005000D01*
X040164Y005073D01*
X040023Y005214D01*
X039946Y005400D01*
X039946Y005600D01*
X040023Y005786D01*
X040164Y005927D01*
X040340Y006000D01*
X040164Y006073D01*
X040023Y006214D01*
X039946Y006400D01*
X039946Y006600D01*
X040023Y006786D01*
X040164Y006927D01*
X040350Y007004D01*
X040550Y007004D01*
X040736Y006927D01*
X040877Y006786D01*
X040954Y006600D01*
X040954Y006400D01*
X040877Y006214D01*
X040736Y006073D01*
X040560Y006000D01*
X040736Y005927D01*
X040877Y005786D01*
X040954Y005600D01*
X040954Y005400D01*
X040877Y005214D01*
X040736Y005073D01*
X040560Y005000D01*
X040736Y004927D01*
X040877Y004786D01*
X040954Y004600D01*
X040954Y004400D01*
X040877Y004214D01*
X040736Y004073D01*
X040550Y003996D01*
X040707Y004061D02*
X041303Y004061D01*
X041183Y004160D02*
X040822Y004160D01*
X040895Y004258D02*
X041109Y004258D01*
X041068Y004357D02*
X040936Y004357D01*
X040954Y004455D02*
X041050Y004455D01*
X041050Y004554D02*
X040954Y004554D01*
X040933Y004652D02*
X041072Y004652D01*
X041113Y004751D02*
X040892Y004751D01*
X040814Y004849D02*
X041192Y004849D01*
X041324Y004948D02*
X040687Y004948D01*
X040671Y005046D02*
X041339Y005046D01*
X041198Y005145D02*
X040807Y005145D01*
X040889Y005243D02*
X041115Y005243D01*
X041074Y005342D02*
X040930Y005342D01*
X040954Y005440D02*
X041050Y005440D01*
X041050Y005539D02*
X040954Y005539D01*
X040939Y005637D02*
X041066Y005637D01*
X041106Y005736D02*
X040898Y005736D01*
X040829Y005834D02*
X041177Y005834D01*
X041288Y005933D02*
X040723Y005933D01*
X040635Y006031D02*
X041376Y006031D01*
X041213Y006130D02*
X040792Y006130D01*
X040883Y006228D02*
X041121Y006228D01*
X041081Y006327D02*
X040924Y006327D01*
X040954Y006425D02*
X041050Y006425D01*
X041050Y006524D02*
X040954Y006524D01*
X040945Y006622D02*
X041059Y006622D01*
X041100Y006721D02*
X040904Y006721D01*
X040844Y006819D02*
X041162Y006819D01*
X041260Y006918D02*
X040745Y006918D01*
X040155Y006918D02*
X037560Y006918D01*
X037560Y007016D02*
X048412Y007016D01*
X048260Y006918D02*
X043840Y006918D01*
X043938Y006819D02*
X048162Y006819D01*
X048100Y006721D02*
X044000Y006721D01*
X044041Y006622D02*
X048059Y006622D01*
X048050Y006524D02*
X044050Y006524D01*
X044050Y006425D02*
X048050Y006425D01*
X048081Y006327D02*
X044019Y006327D01*
X043979Y006228D02*
X048121Y006228D01*
X048213Y006130D02*
X043887Y006130D01*
X040265Y006031D02*
X037650Y006031D01*
X037631Y006130D02*
X040108Y006130D01*
X040017Y006228D02*
X037613Y006228D01*
X037595Y006327D02*
X039976Y006327D01*
X039946Y006425D02*
X037576Y006425D01*
X037568Y006524D02*
X039946Y006524D01*
X039955Y006622D02*
X037564Y006622D01*
X037560Y006721D02*
X039996Y006721D01*
X040056Y006819D02*
X037560Y006819D01*
X037560Y007115D02*
X048228Y007115D01*
X048130Y007213D02*
X037560Y007213D01*
X037560Y007312D02*
X048087Y007312D01*
X048050Y007410D02*
X037560Y007410D01*
X037560Y007509D02*
X048050Y007509D01*
X048053Y007607D02*
X037562Y007607D01*
X037562Y007706D02*
X048094Y007706D01*
X048147Y007804D02*
X037562Y007804D01*
X037562Y007903D02*
X048245Y007903D01*
X048243Y008100D02*
X043857Y008100D01*
X043955Y008198D02*
X048145Y008198D01*
X048093Y008297D02*
X044007Y008297D01*
X044048Y008395D02*
X048052Y008395D01*
X048050Y008494D02*
X046107Y008494D01*
X046103Y008493D02*
X046131Y008498D01*
X046147Y008523D01*
X046172Y008539D01*
X046177Y008567D01*
X046193Y008591D01*
X046188Y008620D01*
X046259Y008984D01*
X046574Y008791D01*
X046588Y008769D01*
X046619Y008763D01*
X046647Y008746D01*
X046672Y008752D01*
X046697Y008746D01*
X046724Y008764D01*
X046756Y008772D01*
X046769Y008794D01*
X046791Y008808D01*
X046797Y008839D01*
X046814Y008867D01*
X046808Y008892D01*
X046814Y008917D01*
X046796Y008944D01*
X046788Y008976D01*
X046766Y008989D01*
X046575Y009281D01*
X046930Y009362D01*
X046955Y009356D01*
X046982Y009373D01*
X047014Y009381D01*
X047028Y009402D01*
X047049Y009416D01*
X047057Y009448D01*
X047074Y009475D01*
X047068Y009500D01*
X047074Y009525D01*
X047057Y009552D01*
X047049Y009584D01*
X047028Y009598D01*
X047014Y009619D01*
X046982Y009627D01*
X046955Y009644D01*
X046930Y009638D01*
X046577Y009719D01*
X046777Y010021D01*
X046800Y010036D01*
X046806Y010066D01*
X046823Y010092D01*
X046818Y010119D01*
X046824Y010145D01*
X046807Y010171D01*
X046801Y010202D01*
X046779Y010217D01*
X046764Y010240D01*
X046734Y010246D01*
X046708Y010263D01*
X046681Y010258D01*
X046655Y010264D01*
X046629Y010247D01*
X046598Y010241D01*
X046583Y010219D01*
X046259Y010013D01*
X046188Y010360D01*
X046193Y010388D01*
X046177Y010413D01*
X046171Y010442D01*
X046147Y010457D01*
X046132Y010481D01*
X046103Y010487D01*
X046078Y010503D01*
X046050Y010498D01*
X046022Y010503D01*
X045997Y010487D01*
X045968Y010481D01*
X045953Y010457D01*
X045929Y010442D01*
X045923Y010413D01*
X045907Y010388D01*
X045912Y010360D01*
X045841Y010010D01*
X045537Y010199D01*
X045523Y010220D01*
X045491Y010227D01*
X045464Y010244D01*
X045439Y010238D01*
X045413Y010244D01*
X045386Y010226D01*
X045355Y010219D01*
X045341Y010197D01*
X045320Y010183D01*
X045313Y010151D01*
X045296Y010124D01*
X045302Y010099D01*
X045296Y010073D01*
X045314Y010046D01*
X045321Y010015D01*
X045343Y010001D01*
X045529Y009716D01*
X045170Y009638D01*
X045144Y009644D01*
X045118Y009627D01*
X045087Y009620D01*
X045072Y009598D01*
X045050Y009583D01*
X045043Y009552D01*
X045026Y009526D01*
X045032Y009500D01*
X045026Y009474D01*
X045043Y009448D01*
X045050Y009417D01*
X045072Y009402D01*
X045087Y009380D01*
X045118Y009373D01*
X045144Y009356D01*
X045170Y009362D01*
X045535Y009282D01*
X044001Y009282D01*
X044041Y009380D02*
X045087Y009380D01*
X045027Y009479D02*
X044050Y009479D01*
X044050Y009577D02*
X045049Y009577D01*
X045342Y009676D02*
X044018Y009676D01*
X043978Y009774D02*
X045491Y009774D01*
X045427Y009873D02*
X043885Y009873D01*
X043719Y009971D02*
X045363Y009971D01*
X045299Y010070D02*
X043817Y010070D01*
X043925Y010168D02*
X045316Y010168D01*
X045586Y010168D02*
X045873Y010168D01*
X045853Y010070D02*
X045744Y010070D01*
X046227Y010168D02*
X046504Y010168D01*
X046349Y010070D02*
X046247Y010070D01*
X046613Y009774D02*
X048122Y009774D01*
X048082Y009676D02*
X046767Y009676D01*
X046678Y009873D02*
X048215Y009873D01*
X048381Y009971D02*
X046743Y009971D01*
X046808Y010070D02*
X048283Y010070D01*
X048175Y010168D02*
X046809Y010168D01*
X046207Y010267D02*
X048106Y010267D01*
X048065Y010365D02*
X046189Y010365D01*
X046143Y010464D02*
X048050Y010464D01*
X048050Y010562D02*
X044050Y010562D01*
X044050Y010464D02*
X045957Y010464D01*
X045911Y010365D02*
X044035Y010365D01*
X043994Y010267D02*
X045893Y010267D01*
X044025Y010661D02*
X048075Y010661D01*
X048116Y010759D02*
X043984Y010759D01*
X043900Y010858D02*
X048200Y010858D01*
X048344Y010956D02*
X043756Y010956D01*
X043781Y011055D02*
X048319Y011055D01*
X048190Y011153D02*
X043910Y011153D01*
X043988Y011252D02*
X048112Y011252D01*
X048071Y011350D02*
X044029Y011350D01*
X044050Y011449D02*
X048050Y011449D01*
X048050Y011547D02*
X044050Y011547D01*
X044031Y011646D02*
X048069Y011646D01*
X048110Y011744D02*
X043990Y011744D01*
X043915Y011843D02*
X048185Y011843D01*
X048308Y011941D02*
X043792Y011941D01*
X043745Y012040D02*
X048355Y012040D01*
X048205Y012138D02*
X043895Y012138D01*
X043982Y012237D02*
X048118Y012237D01*
X048077Y012335D02*
X044023Y012335D01*
X044050Y012434D02*
X048050Y012434D01*
X048050Y012532D02*
X044050Y012532D01*
X044037Y012631D02*
X048063Y012631D01*
X048104Y012729D02*
X043996Y012729D01*
X043930Y012828D02*
X048170Y012828D01*
X048272Y012926D02*
X043828Y012926D01*
X043709Y013025D02*
X048391Y013025D01*
X048220Y013123D02*
X043880Y013123D01*
X043976Y013222D02*
X048124Y013222D01*
X048083Y013320D02*
X044017Y013320D01*
X044050Y013419D02*
X048050Y013419D01*
X048050Y013517D02*
X044050Y013517D01*
X044043Y013616D02*
X048057Y013616D01*
X048097Y013714D02*
X044003Y013714D01*
X043945Y013813D02*
X048155Y013813D01*
X048254Y013911D02*
X043846Y013911D01*
X043865Y014108D02*
X048235Y014108D01*
X048136Y014207D02*
X043964Y014207D01*
X044010Y014305D02*
X048090Y014305D01*
X048050Y014404D02*
X044050Y014404D01*
X043672Y014010D02*
X048428Y014010D01*
X048672Y014010D02*
X049428Y014010D01*
X049672Y014010D02*
X050428Y014010D01*
X050672Y014010D02*
X051517Y014010D01*
X051348Y013911D02*
X050846Y013911D01*
X050945Y013813D02*
X051250Y013813D01*
X051193Y013714D02*
X051003Y013714D01*
X051043Y013616D02*
X051152Y013616D01*
X051146Y013517D02*
X051050Y013517D01*
X051050Y013419D02*
X051146Y013419D01*
X051179Y013320D02*
X051017Y013320D01*
X050976Y013222D02*
X051220Y013222D01*
X051314Y013123D02*
X050880Y013123D01*
X050709Y013025D02*
X051481Y013025D01*
X051363Y012926D02*
X050828Y012926D01*
X050930Y012828D02*
X051265Y012828D01*
X051199Y012729D02*
X050996Y012729D01*
X051037Y012631D02*
X051159Y012631D01*
X051146Y012532D02*
X051050Y012532D01*
X051050Y012434D02*
X051146Y012434D01*
X051173Y012335D02*
X051023Y012335D01*
X050982Y012237D02*
X051214Y012237D01*
X051299Y012138D02*
X050895Y012138D01*
X050745Y012040D02*
X051445Y012040D01*
X051398Y011941D02*
X050792Y011941D01*
X050915Y011843D02*
X051280Y011843D01*
X051206Y011744D02*
X050990Y011744D01*
X051031Y011646D02*
X051165Y011646D01*
X051146Y011547D02*
X051050Y011547D01*
X051050Y011449D02*
X051146Y011449D01*
X051167Y011350D02*
X051029Y011350D01*
X050988Y011252D02*
X051207Y011252D01*
X051284Y011153D02*
X050910Y011153D01*
X050781Y011055D02*
X051408Y011055D01*
X051434Y010956D02*
X050756Y010956D01*
X050900Y010858D02*
X051295Y010858D01*
X051212Y010759D02*
X050984Y010759D01*
X051025Y010661D02*
X051171Y010661D01*
X051146Y010562D02*
X051050Y010562D01*
X051050Y010464D02*
X051146Y010464D01*
X051160Y010365D02*
X051035Y010365D01*
X050994Y010267D02*
X051201Y010267D01*
X051269Y010168D02*
X050925Y010168D01*
X050817Y010070D02*
X051372Y010070D01*
X051470Y009971D02*
X050719Y009971D01*
X050885Y009873D02*
X051310Y009873D01*
X051218Y009774D02*
X050978Y009774D01*
X051018Y009676D02*
X051177Y009676D01*
X051146Y009577D02*
X051050Y009577D01*
X051050Y009479D02*
X051146Y009479D01*
X051154Y009380D02*
X051041Y009380D01*
X051001Y009282D02*
X051195Y009282D01*
X051254Y009183D02*
X050940Y009183D01*
X050842Y009085D02*
X051353Y009085D01*
X051506Y008986D02*
X050683Y008986D01*
X050870Y008888D02*
X051325Y008888D01*
X051226Y008789D02*
X050968Y008789D01*
X051012Y008691D02*
X051183Y008691D01*
X051146Y008592D02*
X051050Y008592D01*
X051050Y008494D02*
X051146Y008494D01*
X051148Y008395D02*
X051048Y008395D01*
X051007Y008297D02*
X051189Y008297D01*
X051239Y008198D02*
X050955Y008198D01*
X050857Y008100D02*
X051338Y008100D01*
X050417Y008986D02*
X049683Y008986D01*
X048417Y008986D02*
X046772Y008986D01*
X046809Y008888D02*
X048230Y008888D01*
X048132Y008789D02*
X046766Y008789D01*
X046575Y008789D02*
X046221Y008789D01*
X046240Y008888D02*
X046416Y008888D01*
X046201Y008691D02*
X048088Y008691D01*
X048050Y008592D02*
X046193Y008592D01*
X046103Y008493D02*
X046079Y008477D01*
X046050Y008482D01*
X046021Y008477D01*
X045997Y008493D01*
X045969Y008498D01*
X045953Y008523D01*
X045928Y008539D01*
X045923Y008567D01*
X045907Y008591D01*
X045912Y008620D01*
X045842Y008979D01*
X045548Y008792D01*
X045535Y008771D01*
X045503Y008764D01*
X045475Y008746D01*
X045451Y008752D01*
X045426Y008746D01*
X045398Y008763D01*
X045366Y008771D01*
X045352Y008792D01*
X045331Y008805D01*
X045324Y008837D01*
X045306Y008865D01*
X045312Y008889D01*
X045306Y008914D01*
X045323Y008942D01*
X045331Y008974D01*
X045352Y008988D01*
X045535Y009282D01*
X045473Y009183D02*
X043940Y009183D01*
X043842Y009085D02*
X045412Y009085D01*
X045349Y008986D02*
X043683Y008986D01*
X043870Y008888D02*
X045311Y008888D01*
X045354Y008789D02*
X043968Y008789D01*
X044012Y008691D02*
X045899Y008691D01*
X045907Y008592D02*
X044050Y008592D01*
X044050Y008494D02*
X045993Y008494D01*
X045879Y008789D02*
X045546Y008789D01*
X045698Y008888D02*
X045860Y008888D01*
X046704Y009085D02*
X048258Y009085D01*
X048160Y009183D02*
X046639Y009183D01*
X046578Y009282D02*
X048099Y009282D01*
X048059Y009380D02*
X047011Y009380D01*
X047073Y009479D02*
X048050Y009479D01*
X048050Y009577D02*
X047051Y009577D01*
X043417Y008986D02*
X042683Y008986D01*
X042842Y009085D02*
X043258Y009085D01*
X043160Y009183D02*
X042940Y009183D01*
X043001Y009282D02*
X043099Y009282D01*
X043059Y009380D02*
X043041Y009380D01*
X043050Y009479D02*
X043050Y009479D01*
X043050Y009577D02*
X043050Y009577D01*
X043018Y009676D02*
X043082Y009676D01*
X043122Y009774D02*
X042978Y009774D01*
X042885Y009873D02*
X043215Y009873D01*
X043381Y009971D02*
X042719Y009971D01*
X042817Y010070D02*
X043283Y010070D01*
X043175Y010168D02*
X042925Y010168D01*
X042994Y010267D02*
X043106Y010267D01*
X043065Y010365D02*
X043035Y010365D01*
X043050Y010464D02*
X043050Y010464D01*
X043050Y010562D02*
X043050Y010562D01*
X043025Y010661D02*
X043075Y010661D01*
X043116Y010759D02*
X042984Y010759D01*
X042900Y010858D02*
X043200Y010858D01*
X043344Y010956D02*
X042756Y010956D01*
X042781Y011055D02*
X043319Y011055D01*
X043190Y011153D02*
X042910Y011153D01*
X042988Y011252D02*
X043112Y011252D01*
X043071Y011350D02*
X043029Y011350D01*
X043050Y011449D02*
X043050Y011449D01*
X043050Y011547D02*
X043050Y011547D01*
X043031Y011646D02*
X043069Y011646D01*
X043110Y011744D02*
X042990Y011744D01*
X042915Y011843D02*
X043185Y011843D01*
X043308Y011941D02*
X042792Y011941D01*
X042745Y012040D02*
X043355Y012040D01*
X043205Y012138D02*
X042895Y012138D01*
X042982Y012237D02*
X043118Y012237D01*
X043077Y012335D02*
X043023Y012335D01*
X043050Y012434D02*
X043050Y012434D01*
X043050Y012532D02*
X043050Y012532D01*
X043037Y012631D02*
X043063Y012631D01*
X043104Y012729D02*
X042996Y012729D01*
X042930Y012828D02*
X043170Y012828D01*
X043272Y012926D02*
X042828Y012926D01*
X042709Y013025D02*
X043391Y013025D01*
X043220Y013123D02*
X042880Y013123D01*
X042976Y013222D02*
X043124Y013222D01*
X043083Y013320D02*
X043017Y013320D01*
X043050Y013419D02*
X043050Y013419D01*
X043050Y013517D02*
X043050Y013517D01*
X043043Y013616D02*
X043057Y013616D01*
X043097Y013714D02*
X043003Y013714D01*
X042945Y013813D02*
X043155Y013813D01*
X043254Y013911D02*
X042846Y013911D01*
X042865Y014108D02*
X043235Y014108D01*
X043136Y014207D02*
X042964Y014207D01*
X043010Y014305D02*
X043090Y014305D01*
X043050Y014401D02*
X043050Y014450D01*
X043050Y014450D01*
X043050Y014401D01*
X043050Y014404D02*
X043050Y014404D01*
X042672Y014010D02*
X043428Y014010D01*
X042428Y014010D02*
X041672Y014010D01*
X041846Y013911D02*
X042254Y013911D01*
X042155Y013813D02*
X041945Y013813D01*
X042003Y013714D02*
X042097Y013714D01*
X042057Y013616D02*
X042043Y013616D01*
X042050Y013517D02*
X042050Y013517D01*
X042050Y013419D02*
X042050Y013419D01*
X042017Y013320D02*
X042083Y013320D01*
X042124Y013222D02*
X041976Y013222D01*
X041880Y013123D02*
X042220Y013123D01*
X042391Y013025D02*
X041709Y013025D01*
X041828Y012926D02*
X042272Y012926D01*
X042170Y012828D02*
X041930Y012828D01*
X041996Y012729D02*
X042104Y012729D01*
X042063Y012631D02*
X042037Y012631D01*
X042050Y012532D02*
X042050Y012532D01*
X042050Y012434D02*
X042050Y012434D01*
X042023Y012335D02*
X042077Y012335D01*
X042118Y012237D02*
X041982Y012237D01*
X041895Y012138D02*
X042205Y012138D01*
X042355Y012040D02*
X041745Y012040D01*
X041792Y011941D02*
X042308Y011941D01*
X042185Y011843D02*
X041915Y011843D01*
X041990Y011744D02*
X042110Y011744D01*
X042069Y011646D02*
X042031Y011646D01*
X042050Y011547D02*
X042050Y011547D01*
X042050Y011449D02*
X042050Y011449D01*
X042029Y011350D02*
X042071Y011350D01*
X042112Y011252D02*
X041988Y011252D01*
X041910Y011153D02*
X042190Y011153D01*
X042319Y011055D02*
X041781Y011055D01*
X041756Y010956D02*
X042344Y010956D01*
X042200Y010858D02*
X041900Y010858D01*
X041984Y010759D02*
X042116Y010759D01*
X042075Y010661D02*
X042025Y010661D01*
X042050Y010562D02*
X042050Y010562D01*
X042050Y010464D02*
X042050Y010464D01*
X042035Y010365D02*
X042065Y010365D01*
X042106Y010267D02*
X041994Y010267D01*
X041925Y010168D02*
X042175Y010168D01*
X042283Y010070D02*
X041817Y010070D01*
X041719Y009971D02*
X042381Y009971D01*
X042215Y009873D02*
X041885Y009873D01*
X041978Y009774D02*
X042122Y009774D01*
X042082Y009676D02*
X042018Y009676D01*
X042050Y009577D02*
X042050Y009577D01*
X042050Y009479D02*
X042050Y009479D01*
X042041Y009380D02*
X042059Y009380D01*
X042099Y009282D02*
X042001Y009282D01*
X041940Y009183D02*
X042160Y009183D01*
X042258Y009085D02*
X041842Y009085D01*
X041683Y008986D02*
X042417Y008986D01*
X042230Y008888D02*
X041870Y008888D01*
X041968Y008789D02*
X042132Y008789D01*
X042088Y008691D02*
X042012Y008691D01*
X042050Y008592D02*
X042050Y008592D01*
X042050Y008494D02*
X042050Y008494D01*
X042048Y008395D02*
X042052Y008395D01*
X042093Y008297D02*
X042007Y008297D01*
X041955Y008198D02*
X042145Y008198D01*
X042243Y008100D02*
X041857Y008100D01*
X041243Y008100D02*
X040762Y008100D01*
X040861Y008198D02*
X041145Y008198D01*
X041093Y008297D02*
X040911Y008297D01*
X040952Y008395D02*
X041052Y008395D01*
X041050Y008494D02*
X040954Y008494D01*
X040954Y008592D02*
X041050Y008592D01*
X041088Y008691D02*
X040917Y008691D01*
X040874Y008789D02*
X041132Y008789D01*
X041230Y008888D02*
X040775Y008888D01*
X040747Y009085D02*
X041258Y009085D01*
X041160Y009183D02*
X040846Y009183D01*
X040905Y009282D02*
X041099Y009282D01*
X041059Y009380D02*
X040946Y009380D01*
X040954Y009479D02*
X041050Y009479D01*
X041050Y009577D02*
X040954Y009577D01*
X040923Y009676D02*
X041082Y009676D01*
X041122Y009774D02*
X040882Y009774D01*
X040790Y009873D02*
X041215Y009873D01*
X041381Y009971D02*
X040630Y009971D01*
X040728Y010070D02*
X041283Y010070D01*
X041175Y010168D02*
X040831Y010168D01*
X040899Y010267D02*
X041106Y010267D01*
X041065Y010365D02*
X040940Y010365D01*
X040954Y010464D02*
X041050Y010464D01*
X041050Y010562D02*
X040954Y010562D01*
X040929Y010661D02*
X041075Y010661D01*
X041116Y010759D02*
X040888Y010759D01*
X040805Y010858D02*
X041200Y010858D01*
X041344Y010956D02*
X040666Y010956D01*
X040692Y011055D02*
X041319Y011055D01*
X041190Y011153D02*
X040816Y011153D01*
X040893Y011252D02*
X041112Y011252D01*
X041071Y011350D02*
X040933Y011350D01*
X040954Y011449D02*
X041050Y011449D01*
X041050Y011547D02*
X040954Y011547D01*
X040935Y011646D02*
X041069Y011646D01*
X041110Y011744D02*
X040894Y011744D01*
X040820Y011843D02*
X041185Y011843D01*
X041308Y011941D02*
X040702Y011941D01*
X040655Y012040D02*
X041355Y012040D01*
X041205Y012138D02*
X040801Y012138D01*
X040886Y012237D02*
X041118Y012237D01*
X041077Y012335D02*
X040927Y012335D01*
X040954Y012434D02*
X041050Y012434D01*
X041050Y012532D02*
X040954Y012532D01*
X040941Y012631D02*
X041063Y012631D01*
X041104Y012729D02*
X040901Y012729D01*
X040835Y012828D02*
X041170Y012828D01*
X041272Y012926D02*
X040737Y012926D01*
X040619Y013025D02*
X041391Y013025D01*
X041220Y013123D02*
X040786Y013123D01*
X040880Y013222D02*
X041124Y013222D01*
X041083Y013320D02*
X040921Y013320D01*
X040954Y013419D02*
X041050Y013419D01*
X041050Y013517D02*
X040954Y013517D01*
X040948Y013616D02*
X041057Y013616D01*
X041097Y013714D02*
X040907Y013714D01*
X040850Y013813D02*
X041155Y013813D01*
X041254Y013911D02*
X040752Y013911D01*
X040583Y014010D02*
X041428Y014010D01*
X041235Y014108D02*
X040771Y014108D01*
X040869Y014207D02*
X041136Y014207D01*
X041090Y014305D02*
X040915Y014305D01*
X040954Y014404D02*
X041050Y014404D01*
X041964Y014207D02*
X042136Y014207D01*
X042090Y014305D02*
X042010Y014305D01*
X042050Y014401D02*
X042050Y014450D01*
X042050Y014401D01*
X042050Y014404D02*
X042050Y014404D01*
X042050Y014450D02*
X042050Y014450D01*
X041865Y014108D02*
X042235Y014108D01*
X040317Y014010D02*
X034390Y014010D01*
X034390Y014108D02*
X040129Y014108D01*
X040031Y014207D02*
X034390Y014207D01*
X034390Y014305D02*
X039985Y014305D01*
X039946Y014404D02*
X034390Y014404D01*
X033210Y014404D02*
X032964Y014404D01*
X032974Y014305D02*
X033210Y014305D01*
X033210Y014207D02*
X032974Y014207D01*
X032974Y014108D02*
X033210Y014108D01*
X033210Y014010D02*
X032974Y014010D01*
X032953Y013911D02*
X033210Y013911D01*
X033210Y013813D02*
X032374Y013813D01*
X032421Y013911D02*
X032499Y013911D01*
X031743Y013616D02*
X031150Y013616D01*
X031150Y013517D02*
X031738Y013517D01*
X031738Y013419D02*
X031150Y013419D01*
X031150Y013320D02*
X031738Y013320D01*
X031738Y013222D02*
X031150Y013222D01*
X034352Y013714D02*
X039993Y013714D01*
X039952Y013616D02*
X034390Y013616D01*
X034390Y013517D02*
X039946Y013517D01*
X039946Y013419D02*
X034390Y013419D01*
X034390Y013320D02*
X039979Y013320D01*
X040020Y013222D02*
X034390Y013222D01*
X034390Y013123D02*
X040114Y013123D01*
X040281Y013025D02*
X034390Y013025D01*
X034390Y013813D02*
X040050Y013813D01*
X040148Y013911D02*
X034390Y013911D01*
X036227Y014502D02*
X032431Y014502D01*
X032431Y014601D02*
X036071Y014601D01*
X035984Y014699D02*
X032431Y014699D01*
X032431Y014798D02*
X035944Y014798D01*
X035920Y014896D02*
X032431Y014896D01*
X032425Y014404D02*
X032488Y014404D01*
X036573Y014502D02*
X039900Y014502D01*
X039900Y014601D02*
X036729Y014601D01*
X036816Y014699D02*
X039900Y014699D01*
X039900Y014798D02*
X036856Y014798D01*
X036880Y014896D02*
X039900Y014896D01*
X039900Y014995D02*
X036880Y014995D01*
X036860Y015093D02*
X039900Y015093D01*
X039900Y015192D02*
X036820Y015192D01*
X036739Y015290D02*
X039900Y015290D01*
X039900Y015389D02*
X036596Y015389D01*
X036716Y015487D02*
X039900Y015487D01*
X039900Y015586D02*
X036810Y015586D01*
X036851Y015684D02*
X039900Y015684D01*
X039900Y015783D02*
X036880Y015783D01*
X036880Y015881D02*
X039900Y015881D01*
X039900Y015980D02*
X036866Y015980D01*
X036825Y016078D02*
X039900Y016078D01*
X039900Y016177D02*
X036752Y016177D01*
X036628Y016275D02*
X039900Y016275D01*
X039900Y016374D02*
X036702Y016374D01*
X036801Y016472D02*
X039900Y016472D01*
X039900Y016571D02*
X036845Y016571D01*
X036880Y016669D02*
X039900Y016669D01*
X039900Y016768D02*
X036880Y016768D01*
X036871Y016866D02*
X039900Y016866D01*
X039900Y016965D02*
X036831Y016965D01*
X036766Y017063D02*
X039900Y017063D01*
X039900Y017162D02*
X036661Y017162D01*
X036689Y017260D02*
X039900Y017260D01*
X039900Y017359D02*
X036787Y017359D01*
X036840Y017457D02*
X039900Y017457D01*
X039900Y017556D02*
X036880Y017556D01*
X036880Y017654D02*
X039900Y017654D01*
X039900Y017753D02*
X036877Y017753D01*
X036836Y017851D02*
X039900Y017851D01*
X039900Y017950D02*
X036779Y017950D01*
X036681Y018048D02*
X039900Y018048D01*
X039900Y018147D02*
X001861Y018147D01*
X001763Y018245D02*
X039900Y018245D01*
X036119Y018048D02*
X001960Y018048D01*
X002003Y017950D02*
X036021Y017950D01*
X026161Y016374D02*
X026080Y016374D01*
X007150Y017063D02*
X007019Y017063D01*
X006486Y017077D02*
X006486Y017077D01*
X006433Y017063D02*
X005719Y017063D01*
X005777Y016965D02*
X006156Y016965D01*
X006201Y017002D02*
X006201Y017002D01*
X006038Y016866D02*
X005777Y016866D01*
X005777Y016768D02*
X005953Y016768D01*
X004563Y016275D02*
X000330Y016275D01*
X000330Y016177D02*
X004563Y016177D01*
X004563Y016078D02*
X000330Y016078D01*
X000330Y015980D02*
X004563Y015980D01*
X004575Y015881D02*
X000330Y015881D01*
X000330Y015783D02*
X004600Y015783D01*
X004600Y015684D02*
X000330Y015684D01*
X000330Y015586D02*
X004600Y015586D01*
X004600Y015487D02*
X000330Y015487D01*
X000330Y015389D02*
X004569Y015389D01*
X004569Y015290D02*
X000330Y015290D01*
X000330Y015192D02*
X004569Y015192D01*
X004569Y015093D02*
X000330Y015093D01*
X000330Y014995D02*
X004569Y014995D01*
X004622Y014896D02*
X000330Y014896D01*
X005100Y015783D02*
X005136Y015783D01*
X005226Y015487D02*
X005274Y015487D01*
X005291Y014896D02*
X005209Y014896D01*
X000885Y016571D02*
X000330Y016571D01*
X000330Y016669D02*
X000648Y016669D01*
X000525Y016768D02*
X000330Y016768D01*
X000330Y016866D02*
X000426Y016866D01*
X000333Y016965D02*
X000330Y016965D01*
X034621Y008888D02*
X036740Y008888D01*
X036740Y008789D02*
X034655Y008789D01*
X034655Y008691D02*
X036740Y008691D01*
X036740Y008592D02*
X034655Y008592D01*
X034655Y008494D02*
X036740Y008494D01*
X036740Y008395D02*
X034655Y008395D01*
X034655Y008297D02*
X036740Y008297D01*
X036740Y008198D02*
X034655Y008198D01*
X034655Y008100D02*
X036740Y008100D01*
X036740Y008001D02*
X034655Y008001D01*
X034655Y007903D02*
X036740Y007903D01*
X036740Y007804D02*
X034655Y007804D01*
X034614Y007706D02*
X036740Y007706D01*
X040594Y008986D02*
X041417Y008986D01*
X042870Y008888D02*
X043230Y008888D01*
X043132Y008789D02*
X042968Y008789D01*
X043012Y008691D02*
X043088Y008691D01*
X043050Y008592D02*
X043050Y008592D01*
X043050Y008494D02*
X043050Y008494D01*
X043048Y008395D02*
X043052Y008395D01*
X043093Y008297D02*
X043007Y008297D01*
X042955Y008198D02*
X043145Y008198D01*
X043243Y008100D02*
X042857Y008100D01*
X048688Y007016D02*
X049412Y007016D01*
X050688Y007016D02*
X051501Y007016D01*
X051413Y004948D02*
X050776Y004948D01*
X050833Y004924D02*
X050649Y005000D01*
X050451Y005000D01*
X050267Y004924D01*
X050126Y004783D01*
X050050Y004599D01*
X049974Y004783D01*
X049833Y004924D01*
X049649Y005000D01*
X049451Y005000D01*
X049267Y004924D01*
X049126Y004783D01*
X049050Y004599D01*
X049050Y004401D01*
X049126Y004217D01*
X049267Y004076D01*
X049451Y004000D01*
X049649Y004000D01*
X049833Y004076D01*
X049974Y004217D01*
X050050Y004401D01*
X050050Y004599D01*
X050050Y004401D01*
X050126Y004217D01*
X050267Y004076D01*
X050451Y004000D01*
X050649Y004000D01*
X050833Y004076D01*
X050974Y004217D01*
X051050Y004401D01*
X051050Y004599D01*
X050974Y004783D01*
X050833Y004924D01*
X050908Y004849D02*
X051286Y004849D01*
X051208Y004751D02*
X050987Y004751D01*
X051028Y004652D02*
X051167Y004652D01*
X051146Y004554D02*
X051050Y004554D01*
X051050Y004455D02*
X051146Y004455D01*
X051164Y004357D02*
X051032Y004357D01*
X050991Y004258D02*
X051205Y004258D01*
X051278Y004160D02*
X050917Y004160D01*
X050797Y004061D02*
X051393Y004061D01*
X051650Y003963D02*
X048871Y003963D01*
X048897Y004061D02*
X049303Y004061D01*
X049183Y004160D02*
X048924Y004160D01*
X048991Y004258D02*
X049109Y004258D01*
X049068Y004357D02*
X049032Y004357D01*
X049050Y004455D02*
X049050Y004455D01*
X049050Y004554D02*
X049050Y004554D01*
X049028Y004652D02*
X049072Y004652D01*
X049113Y004751D02*
X048987Y004751D01*
X048908Y004849D02*
X049192Y004849D01*
X049324Y004948D02*
X048776Y004948D01*
X049776Y004948D02*
X050324Y004948D01*
X050192Y004849D02*
X049908Y004849D01*
X049987Y004751D02*
X050113Y004751D01*
X050072Y004652D02*
X050028Y004652D01*
X050050Y004554D02*
X050050Y004554D01*
X050050Y004455D02*
X050050Y004455D01*
X050032Y004357D02*
X050068Y004357D01*
X050109Y004258D02*
X049991Y004258D01*
X049917Y004160D02*
X050183Y004160D01*
X050303Y004061D02*
X049797Y004061D01*
X048834Y003864D02*
X051650Y003864D01*
X051650Y003766D02*
X048777Y003766D01*
X048720Y003667D02*
X051650Y003667D01*
X051650Y003569D02*
X048664Y003569D01*
X048648Y003542D02*
X048648Y003542D01*
X048576Y003470D02*
X051650Y003470D01*
X051245Y003372D02*
X048478Y003372D01*
X048379Y003273D02*
X051065Y003273D01*
X050967Y003175D02*
X048224Y003175D01*
X048358Y003252D02*
X048358Y003252D01*
X048054Y003076D02*
X050868Y003076D01*
X050809Y002978D02*
X047745Y002978D01*
X050690Y002682D02*
X040925Y002682D01*
X040925Y002584D02*
X050690Y002584D01*
X050690Y002485D02*
X040925Y002485D01*
X040925Y002387D02*
X050690Y002387D01*
X050699Y002288D02*
X042266Y002288D01*
X042292Y002190D02*
X050740Y002190D01*
X050780Y002091D02*
X042292Y002091D01*
X042292Y001993D02*
X050821Y001993D01*
X050898Y001894D02*
X042292Y001894D01*
X042249Y001796D02*
X050997Y001796D01*
X051095Y001697D02*
X031150Y001697D01*
X031150Y001796D02*
X040373Y001796D01*
X040369Y001894D02*
X031150Y001894D01*
X031150Y001993D02*
X040369Y001993D01*
X040369Y002091D02*
X031150Y002091D01*
X031150Y002190D02*
X040369Y002190D01*
X040369Y002288D02*
X031150Y002288D01*
X038502Y004652D02*
X039967Y004652D01*
X039946Y004554D02*
X038631Y004554D01*
X038760Y004455D02*
X039946Y004455D01*
X039964Y004357D02*
X038918Y004357D01*
X039113Y004258D02*
X040005Y004258D01*
X040078Y004160D02*
X039322Y004160D01*
X039515Y004094D02*
X039515Y004094D01*
X039639Y004061D02*
X040193Y004061D01*
X040038Y003963D02*
X047900Y003963D01*
X050768Y002879D02*
X040925Y002879D01*
X040925Y002781D02*
X050727Y002781D01*
X041744Y002288D02*
X041731Y002288D01*
X041727Y001796D02*
X041760Y001796D01*
X039777Y003163D02*
X039777Y003163D01*
X040008Y004751D02*
X038393Y004751D01*
X038304Y004849D02*
X040086Y004849D01*
X040213Y004948D02*
X038215Y004948D01*
X038126Y005046D02*
X040229Y005046D01*
X040093Y005145D02*
X038058Y005145D01*
X037997Y005243D02*
X040011Y005243D01*
X039970Y005342D02*
X037937Y005342D01*
X037876Y005440D02*
X039946Y005440D01*
X039946Y005539D02*
X037825Y005539D01*
X037787Y005637D02*
X039961Y005637D01*
X040002Y005736D02*
X037749Y005736D01*
X037711Y005834D02*
X040071Y005834D01*
X040177Y005933D02*
X037673Y005933D01*
X035363Y005440D02*
X033338Y005440D01*
X033506Y005539D02*
X035308Y005539D01*
X035190Y005637D02*
X033604Y005637D01*
X050865Y014108D02*
X051329Y014108D01*
D12*
X046050Y010360D02*
X045960Y009920D01*
X046050Y009860D01*
X046140Y009920D01*
X046050Y010360D01*
X046049Y010357D02*
X046051Y010357D01*
X046048Y010349D02*
X046052Y010349D01*
X046054Y010340D02*
X046046Y010340D01*
X046044Y010332D02*
X046056Y010332D01*
X046058Y010323D02*
X046042Y010323D01*
X046041Y010315D02*
X046059Y010315D01*
X046061Y010306D02*
X046039Y010306D01*
X046037Y010298D02*
X046063Y010298D01*
X046064Y010289D02*
X046036Y010289D01*
X046034Y010281D02*
X046066Y010281D01*
X046068Y010272D02*
X046032Y010272D01*
X046030Y010264D02*
X046070Y010264D01*
X046071Y010255D02*
X046029Y010255D01*
X046027Y010247D02*
X046073Y010247D01*
X046075Y010238D02*
X046025Y010238D01*
X046023Y010230D02*
X046077Y010230D01*
X046078Y010221D02*
X046022Y010221D01*
X046020Y010213D02*
X046080Y010213D01*
X046082Y010204D02*
X046018Y010204D01*
X046016Y010196D02*
X046084Y010196D01*
X046085Y010187D02*
X046015Y010187D01*
X046013Y010179D02*
X046087Y010179D01*
X046089Y010170D02*
X046011Y010170D01*
X046009Y010162D02*
X046091Y010162D01*
X046092Y010153D02*
X046008Y010153D01*
X046006Y010145D02*
X046094Y010145D01*
X046096Y010136D02*
X046004Y010136D01*
X046002Y010128D02*
X046098Y010128D01*
X046099Y010119D02*
X046001Y010119D01*
X045999Y010111D02*
X046101Y010111D01*
X046103Y010102D02*
X045997Y010102D01*
X045996Y010094D02*
X046104Y010094D01*
X046106Y010085D02*
X045994Y010085D01*
X045992Y010077D02*
X046108Y010077D01*
X046110Y010068D02*
X045990Y010068D01*
X045989Y010060D02*
X046111Y010060D01*
X046113Y010051D02*
X045987Y010051D01*
X045985Y010043D02*
X046115Y010043D01*
X046117Y010034D02*
X045983Y010034D01*
X045982Y010026D02*
X046118Y010026D01*
X046120Y010017D02*
X045980Y010017D01*
X045978Y010009D02*
X046122Y010009D01*
X046124Y010000D02*
X045976Y010000D01*
X045975Y009992D02*
X046125Y009992D01*
X046127Y009983D02*
X045973Y009983D01*
X045971Y009975D02*
X046129Y009975D01*
X046131Y009966D02*
X045969Y009966D01*
X045968Y009958D02*
X046132Y009958D01*
X046134Y009949D02*
X045966Y009949D01*
X045964Y009941D02*
X046136Y009941D01*
X046137Y009932D02*
X045963Y009932D01*
X045961Y009924D02*
X046139Y009924D01*
X046133Y009915D02*
X045967Y009915D01*
X045980Y009907D02*
X046120Y009907D01*
X046107Y009898D02*
X045993Y009898D01*
X046005Y009890D02*
X046095Y009890D01*
X046082Y009881D02*
X046018Y009881D01*
X046031Y009873D02*
X046069Y009873D01*
X046056Y009864D02*
X046044Y009864D01*
X045982Y009762D02*
X045660Y009762D01*
X045665Y009754D02*
X045996Y009754D01*
X046009Y009745D02*
X045671Y009745D01*
X045676Y009737D02*
X046023Y009737D01*
X046037Y009728D02*
X045682Y009728D01*
X045687Y009720D02*
X046415Y009720D01*
X046421Y009728D02*
X046063Y009728D01*
X046050Y009720D02*
X045440Y010100D01*
X045830Y009500D01*
X045450Y008890D01*
X046050Y009270D01*
X046670Y008890D01*
X046270Y009500D01*
X046680Y010120D01*
X046050Y009720D01*
X046076Y009737D02*
X046427Y009737D01*
X046432Y009745D02*
X046090Y009745D01*
X046103Y009754D02*
X046438Y009754D01*
X046443Y009762D02*
X046117Y009762D01*
X046130Y009771D02*
X046449Y009771D01*
X046455Y009779D02*
X046143Y009779D01*
X046157Y009788D02*
X046460Y009788D01*
X046466Y009796D02*
X046170Y009796D01*
X046183Y009805D02*
X046472Y009805D01*
X046477Y009813D02*
X046197Y009813D01*
X046210Y009822D02*
X046483Y009822D01*
X046488Y009830D02*
X046224Y009830D01*
X046237Y009839D02*
X046494Y009839D01*
X046500Y009847D02*
X046250Y009847D01*
X046264Y009856D02*
X046505Y009856D01*
X046511Y009864D02*
X046277Y009864D01*
X046291Y009873D02*
X046516Y009873D01*
X046522Y009881D02*
X046304Y009881D01*
X046317Y009890D02*
X046528Y009890D01*
X046533Y009898D02*
X046331Y009898D01*
X046344Y009907D02*
X046539Y009907D01*
X046545Y009915D02*
X046358Y009915D01*
X046371Y009924D02*
X046550Y009924D01*
X046556Y009932D02*
X046384Y009932D01*
X046398Y009941D02*
X046561Y009941D01*
X046567Y009949D02*
X046411Y009949D01*
X046424Y009958D02*
X046573Y009958D01*
X046578Y009966D02*
X046438Y009966D01*
X046451Y009975D02*
X046584Y009975D01*
X046590Y009983D02*
X046465Y009983D01*
X046478Y009992D02*
X046595Y009992D01*
X046601Y010000D02*
X046491Y010000D01*
X046505Y010009D02*
X046606Y010009D01*
X046612Y010017D02*
X046518Y010017D01*
X046532Y010026D02*
X046618Y010026D01*
X046623Y010034D02*
X046545Y010034D01*
X046558Y010043D02*
X046629Y010043D01*
X046635Y010051D02*
X046572Y010051D01*
X046585Y010060D02*
X046640Y010060D01*
X046646Y010068D02*
X046598Y010068D01*
X046612Y010077D02*
X046651Y010077D01*
X046657Y010085D02*
X046625Y010085D01*
X046639Y010094D02*
X046663Y010094D01*
X046668Y010102D02*
X046652Y010102D01*
X046665Y010111D02*
X046674Y010111D01*
X046679Y010119D02*
X046680Y010119D01*
X046410Y009711D02*
X045693Y009711D01*
X045698Y009703D02*
X046404Y009703D01*
X046398Y009694D02*
X045704Y009694D01*
X045709Y009686D02*
X046393Y009686D01*
X046387Y009677D02*
X045715Y009677D01*
X045720Y009669D02*
X046382Y009669D01*
X046376Y009660D02*
X045726Y009660D01*
X045731Y009652D02*
X046370Y009652D01*
X046365Y009643D02*
X045737Y009643D01*
X045742Y009635D02*
X046359Y009635D01*
X046353Y009626D02*
X045748Y009626D01*
X045753Y009618D02*
X046348Y009618D01*
X046342Y009609D02*
X045759Y009609D01*
X045765Y009601D02*
X046337Y009601D01*
X046331Y009592D02*
X045770Y009592D01*
X045776Y009584D02*
X046325Y009584D01*
X046320Y009575D02*
X045781Y009575D01*
X045787Y009567D02*
X046314Y009567D01*
X046309Y009558D02*
X045792Y009558D01*
X045798Y009550D02*
X046303Y009550D01*
X046297Y009541D02*
X045803Y009541D01*
X045809Y009533D02*
X046292Y009533D01*
X046286Y009524D02*
X045814Y009524D01*
X045820Y009516D02*
X046280Y009516D01*
X046275Y009507D02*
X045825Y009507D01*
X045829Y009499D02*
X046271Y009499D01*
X046276Y009490D02*
X045824Y009490D01*
X045819Y009482D02*
X046282Y009482D01*
X046288Y009473D02*
X045813Y009473D01*
X045808Y009465D02*
X046293Y009465D01*
X046299Y009456D02*
X045803Y009456D01*
X045797Y009448D02*
X046304Y009448D01*
X046310Y009439D02*
X045792Y009439D01*
X045787Y009431D02*
X046315Y009431D01*
X046321Y009422D02*
X045782Y009422D01*
X045776Y009414D02*
X046327Y009414D01*
X046332Y009405D02*
X045771Y009405D01*
X045766Y009397D02*
X046338Y009397D01*
X046343Y009388D02*
X045760Y009388D01*
X045755Y009380D02*
X046349Y009380D01*
X046354Y009371D02*
X045750Y009371D01*
X045744Y009363D02*
X046360Y009363D01*
X046366Y009354D02*
X045739Y009354D01*
X045734Y009346D02*
X046371Y009346D01*
X046377Y009337D02*
X045729Y009337D01*
X045723Y009329D02*
X046382Y009329D01*
X046388Y009320D02*
X045718Y009320D01*
X045713Y009312D02*
X046393Y009312D01*
X046399Y009303D02*
X045707Y009303D01*
X045702Y009295D02*
X046405Y009295D01*
X046410Y009286D02*
X045697Y009286D01*
X045692Y009278D02*
X046416Y009278D01*
X046421Y009269D02*
X046051Y009269D01*
X046049Y009269D02*
X045686Y009269D01*
X045681Y009261D02*
X046035Y009261D01*
X046022Y009252D02*
X045676Y009252D01*
X045670Y009244D02*
X046009Y009244D01*
X045995Y009235D02*
X045665Y009235D01*
X045660Y009227D02*
X045982Y009227D01*
X045968Y009218D02*
X045654Y009218D01*
X045649Y009210D02*
X045955Y009210D01*
X045941Y009201D02*
X045644Y009201D01*
X045639Y009193D02*
X045928Y009193D01*
X045915Y009184D02*
X045633Y009184D01*
X045628Y009176D02*
X045901Y009176D01*
X045888Y009167D02*
X045623Y009167D01*
X045617Y009159D02*
X045874Y009159D01*
X045861Y009150D02*
X045612Y009150D01*
X045607Y009142D02*
X045847Y009142D01*
X045834Y009133D02*
X045602Y009133D01*
X045596Y009125D02*
X045821Y009125D01*
X045807Y009116D02*
X045591Y009116D01*
X045586Y009108D02*
X045794Y009108D01*
X045780Y009099D02*
X045580Y009099D01*
X045575Y009091D02*
X045767Y009091D01*
X045754Y009082D02*
X045570Y009082D01*
X045564Y009074D02*
X045740Y009074D01*
X045727Y009065D02*
X045559Y009065D01*
X045554Y009057D02*
X045713Y009057D01*
X045700Y009048D02*
X045549Y009048D01*
X045543Y009040D02*
X045686Y009040D01*
X045673Y009031D02*
X045538Y009031D01*
X045533Y009023D02*
X045660Y009023D01*
X045646Y009014D02*
X045527Y009014D01*
X045522Y009006D02*
X045633Y009006D01*
X045619Y008997D02*
X045517Y008997D01*
X045511Y008989D02*
X045606Y008989D01*
X045592Y008980D02*
X045506Y008980D01*
X045501Y008972D02*
X045579Y008972D01*
X045566Y008963D02*
X045496Y008963D01*
X045490Y008955D02*
X045552Y008955D01*
X045539Y008946D02*
X045485Y008946D01*
X045480Y008938D02*
X045525Y008938D01*
X045512Y008929D02*
X045474Y008929D01*
X045469Y008921D02*
X045498Y008921D01*
X045485Y008912D02*
X045464Y008912D01*
X045459Y008904D02*
X045472Y008904D01*
X045458Y008895D02*
X045453Y008895D01*
X045976Y008997D02*
X046124Y008997D01*
X046122Y008989D02*
X045978Y008989D01*
X045980Y008980D02*
X046120Y008980D01*
X046119Y008972D02*
X045981Y008972D01*
X045983Y008963D02*
X046117Y008963D01*
X046115Y008955D02*
X045985Y008955D01*
X045986Y008946D02*
X046114Y008946D01*
X046112Y008938D02*
X045988Y008938D01*
X045990Y008929D02*
X046110Y008929D01*
X046109Y008921D02*
X045991Y008921D01*
X045993Y008912D02*
X046107Y008912D01*
X046106Y008904D02*
X045994Y008904D01*
X045996Y008895D02*
X046104Y008895D01*
X046102Y008887D02*
X045998Y008887D01*
X045999Y008878D02*
X046101Y008878D01*
X046099Y008870D02*
X046001Y008870D01*
X046003Y008861D02*
X046097Y008861D01*
X046096Y008853D02*
X046004Y008853D01*
X046006Y008844D02*
X046094Y008844D01*
X046092Y008836D02*
X046008Y008836D01*
X046009Y008827D02*
X046091Y008827D01*
X046089Y008819D02*
X046011Y008819D01*
X046013Y008810D02*
X046087Y008810D01*
X046086Y008802D02*
X046014Y008802D01*
X046016Y008793D02*
X046084Y008793D01*
X046082Y008785D02*
X046018Y008785D01*
X046019Y008776D02*
X046081Y008776D01*
X046079Y008768D02*
X046021Y008768D01*
X046023Y008759D02*
X046077Y008759D01*
X046076Y008751D02*
X046024Y008751D01*
X046026Y008742D02*
X046074Y008742D01*
X046072Y008734D02*
X046028Y008734D01*
X046029Y008725D02*
X046071Y008725D01*
X046069Y008717D02*
X046031Y008717D01*
X046033Y008708D02*
X046067Y008708D01*
X046066Y008700D02*
X046034Y008700D01*
X046036Y008691D02*
X046064Y008691D01*
X046062Y008683D02*
X046038Y008683D01*
X046039Y008674D02*
X046061Y008674D01*
X046059Y008666D02*
X046041Y008666D01*
X046043Y008657D02*
X046057Y008657D01*
X046056Y008649D02*
X046044Y008649D01*
X046046Y008640D02*
X046054Y008640D01*
X046052Y008632D02*
X046048Y008632D01*
X046049Y008623D02*
X046051Y008623D01*
X046050Y008620D02*
X045960Y009080D01*
X046050Y009140D01*
X046140Y009080D01*
X046050Y008620D01*
X046578Y008946D02*
X046633Y008946D01*
X046639Y008938D02*
X046592Y008938D01*
X046606Y008929D02*
X046644Y008929D01*
X046650Y008921D02*
X046620Y008921D01*
X046634Y008912D02*
X046655Y008912D01*
X046648Y008904D02*
X046661Y008904D01*
X046661Y008895D02*
X046667Y008895D01*
X046628Y008955D02*
X046564Y008955D01*
X046551Y008963D02*
X046622Y008963D01*
X046616Y008972D02*
X046537Y008972D01*
X046523Y008980D02*
X046611Y008980D01*
X046605Y008989D02*
X046509Y008989D01*
X046495Y008997D02*
X046600Y008997D01*
X046594Y009006D02*
X046481Y009006D01*
X046467Y009014D02*
X046589Y009014D01*
X046583Y009023D02*
X046453Y009023D01*
X046440Y009031D02*
X046577Y009031D01*
X046572Y009040D02*
X046426Y009040D01*
X046412Y009048D02*
X046566Y009048D01*
X046561Y009057D02*
X046398Y009057D01*
X046384Y009065D02*
X046555Y009065D01*
X046550Y009074D02*
X046370Y009074D01*
X046356Y009082D02*
X046544Y009082D01*
X046538Y009091D02*
X046343Y009091D01*
X046329Y009099D02*
X046533Y009099D01*
X046527Y009108D02*
X046315Y009108D01*
X046301Y009116D02*
X046522Y009116D01*
X046516Y009125D02*
X046287Y009125D01*
X046273Y009133D02*
X046511Y009133D01*
X046505Y009142D02*
X046259Y009142D01*
X046245Y009150D02*
X046499Y009150D01*
X046494Y009159D02*
X046232Y009159D01*
X046218Y009167D02*
X046488Y009167D01*
X046483Y009176D02*
X046204Y009176D01*
X046190Y009184D02*
X046477Y009184D01*
X046471Y009193D02*
X046176Y009193D01*
X046162Y009201D02*
X046466Y009201D01*
X046460Y009210D02*
X046148Y009210D01*
X046134Y009218D02*
X046455Y009218D01*
X046449Y009227D02*
X046121Y009227D01*
X046107Y009235D02*
X046444Y009235D01*
X046438Y009244D02*
X046093Y009244D01*
X046079Y009252D02*
X046432Y009252D01*
X046427Y009261D02*
X046065Y009261D01*
X046060Y009133D02*
X046040Y009133D01*
X046027Y009125D02*
X046073Y009125D01*
X046086Y009116D02*
X046014Y009116D01*
X046002Y009108D02*
X046098Y009108D01*
X046111Y009099D02*
X045989Y009099D01*
X045976Y009091D02*
X046124Y009091D01*
X046137Y009082D02*
X045963Y009082D01*
X045961Y009074D02*
X046139Y009074D01*
X046137Y009065D02*
X045963Y009065D01*
X045965Y009057D02*
X046135Y009057D01*
X046134Y009048D02*
X045966Y009048D01*
X045968Y009040D02*
X046132Y009040D01*
X046130Y009031D02*
X045970Y009031D01*
X045971Y009023D02*
X046129Y009023D01*
X046127Y009014D02*
X045973Y009014D01*
X045975Y009006D02*
X046125Y009006D01*
X046490Y009400D02*
X046420Y009500D01*
X046490Y009600D01*
X046930Y009500D01*
X046490Y009400D01*
X046486Y009405D02*
X046513Y009405D01*
X046480Y009414D02*
X046550Y009414D01*
X046588Y009422D02*
X046474Y009422D01*
X046468Y009431D02*
X046625Y009431D01*
X046663Y009439D02*
X046463Y009439D01*
X046457Y009448D02*
X046700Y009448D01*
X046737Y009456D02*
X046451Y009456D01*
X046445Y009465D02*
X046775Y009465D01*
X046812Y009473D02*
X046439Y009473D01*
X046433Y009482D02*
X046850Y009482D01*
X046861Y009516D02*
X046431Y009516D01*
X046437Y009524D02*
X046823Y009524D01*
X046786Y009533D02*
X046443Y009533D01*
X046449Y009541D02*
X046749Y009541D01*
X046711Y009550D02*
X046455Y009550D01*
X046461Y009558D02*
X046674Y009558D01*
X046636Y009567D02*
X046467Y009567D01*
X046473Y009575D02*
X046599Y009575D01*
X046562Y009584D02*
X046479Y009584D01*
X046485Y009592D02*
X046524Y009592D01*
X046425Y009507D02*
X046898Y009507D01*
X046887Y009490D02*
X046427Y009490D01*
X046421Y009499D02*
X046924Y009499D01*
X045969Y009771D02*
X045654Y009771D01*
X045648Y009779D02*
X045955Y009779D01*
X045941Y009788D02*
X045643Y009788D01*
X045637Y009796D02*
X045928Y009796D01*
X045914Y009805D02*
X045632Y009805D01*
X045626Y009813D02*
X045900Y009813D01*
X045887Y009822D02*
X045621Y009822D01*
X045615Y009830D02*
X045873Y009830D01*
X045859Y009839D02*
X045610Y009839D01*
X045604Y009847D02*
X045846Y009847D01*
X045832Y009856D02*
X045599Y009856D01*
X045593Y009864D02*
X045818Y009864D01*
X045805Y009873D02*
X045588Y009873D01*
X045582Y009881D02*
X045791Y009881D01*
X045778Y009890D02*
X045577Y009890D01*
X045571Y009898D02*
X045764Y009898D01*
X045750Y009907D02*
X045566Y009907D01*
X045560Y009915D02*
X045737Y009915D01*
X045723Y009924D02*
X045555Y009924D01*
X045549Y009932D02*
X045709Y009932D01*
X045696Y009941D02*
X045544Y009941D01*
X045538Y009949D02*
X045682Y009949D01*
X045668Y009958D02*
X045532Y009958D01*
X045527Y009966D02*
X045655Y009966D01*
X045641Y009975D02*
X045521Y009975D01*
X045516Y009983D02*
X045627Y009983D01*
X045614Y009992D02*
X045510Y009992D01*
X045505Y010000D02*
X045600Y010000D01*
X045586Y010009D02*
X045499Y010009D01*
X045494Y010017D02*
X045573Y010017D01*
X045559Y010026D02*
X045488Y010026D01*
X045483Y010034D02*
X045546Y010034D01*
X045532Y010043D02*
X045477Y010043D01*
X045472Y010051D02*
X045518Y010051D01*
X045505Y010060D02*
X045466Y010060D01*
X045461Y010068D02*
X045491Y010068D01*
X045477Y010077D02*
X045455Y010077D01*
X045450Y010085D02*
X045464Y010085D01*
X045450Y010094D02*
X045444Y010094D01*
X045555Y009584D02*
X045640Y009584D01*
X045635Y009592D02*
X045594Y009592D01*
X045630Y009600D02*
X045170Y009500D01*
X045630Y009400D01*
X045690Y009500D01*
X045630Y009600D01*
X045645Y009575D02*
X045516Y009575D01*
X045477Y009567D02*
X045650Y009567D01*
X045655Y009558D02*
X045438Y009558D01*
X045399Y009550D02*
X045660Y009550D01*
X045665Y009541D02*
X045360Y009541D01*
X045321Y009533D02*
X045670Y009533D01*
X045675Y009524D02*
X045281Y009524D01*
X045242Y009516D02*
X045681Y009516D01*
X045686Y009507D02*
X045203Y009507D01*
X045215Y009490D02*
X045684Y009490D01*
X045679Y009482D02*
X045254Y009482D01*
X045293Y009473D02*
X045674Y009473D01*
X045669Y009465D02*
X045332Y009465D01*
X045371Y009456D02*
X045664Y009456D01*
X045659Y009448D02*
X045410Y009448D01*
X045450Y009439D02*
X045654Y009439D01*
X045648Y009431D02*
X045489Y009431D01*
X045528Y009422D02*
X045643Y009422D01*
X045638Y009414D02*
X045567Y009414D01*
X045606Y009405D02*
X045633Y009405D01*
X045689Y009499D02*
X045176Y009499D01*
D13*
X029510Y007600D03*
X024790Y007600D03*
X022510Y007600D03*
X017790Y007600D03*
X015510Y007600D03*
X010790Y007600D03*
X008510Y007600D03*
X003790Y007600D03*
X003790Y012400D03*
X006150Y013190D03*
X008510Y012400D03*
X010790Y012400D03*
X013150Y013190D03*
X015510Y012400D03*
X017790Y012400D03*
X020150Y013190D03*
X022510Y012400D03*
X024790Y012400D03*
X027150Y013190D03*
X029510Y012400D03*
D14*
X025150Y003000D03*
X018150Y003000D03*
X011150Y003000D03*
X004150Y003000D03*
D15*
X006119Y003000D03*
X008087Y003000D03*
X013119Y003000D03*
X015087Y003000D03*
X020119Y003000D03*
X022087Y003000D03*
X027119Y003000D03*
X029087Y003000D03*
D16*
X042005Y002050D03*
X042595Y002050D03*
X025850Y016105D03*
X025850Y016695D03*
X018850Y016695D03*
X018850Y016105D03*
X011850Y016105D03*
X011850Y016695D03*
X004850Y016695D03*
X004850Y016105D03*
D17*
X004915Y015200D03*
X005585Y015200D03*
X011915Y015200D03*
X012585Y015200D03*
X018915Y015200D03*
X019585Y015200D03*
X025915Y015200D03*
X026585Y015200D03*
X031415Y014660D03*
X032085Y014660D03*
X032075Y014110D03*
X031405Y014110D03*
X031415Y013360D03*
X032085Y013360D03*
X032085Y012800D03*
X031415Y012800D03*
X037215Y008440D03*
X037885Y008440D03*
X037885Y007820D03*
X037215Y007820D03*
X040715Y002050D03*
X041385Y002050D03*
D18*
X034000Y013375D03*
X034000Y014045D03*
X027650Y016065D03*
X026450Y016065D03*
X026450Y016735D03*
X027650Y016735D03*
X020650Y016735D03*
X019450Y016735D03*
X019450Y016065D03*
X020650Y016065D03*
X013650Y016065D03*
X012450Y016065D03*
X012450Y016735D03*
X013650Y016735D03*
X006750Y016735D03*
X005450Y016735D03*
X005450Y016065D03*
X006750Y016065D03*
D19*
X036650Y003000D03*
D20*
X038619Y003000D03*
D21*
X034734Y004358D02*
X034734Y005146D01*
X033159Y005933D02*
X032372Y005933D01*
X032372Y003453D02*
X033159Y003453D01*
D22*
X028517Y016026D03*
X029383Y016400D03*
X028517Y016774D03*
X022383Y016400D03*
X021517Y016026D03*
X021517Y016774D03*
X015383Y016400D03*
X014517Y016026D03*
X014517Y016774D03*
X008383Y016400D03*
X007517Y016026D03*
X007517Y016774D03*
D23*
X006902Y015200D03*
X008398Y015200D03*
X013902Y015200D03*
X015398Y015200D03*
X020902Y015200D03*
X022398Y015200D03*
X027902Y015200D03*
X029398Y015200D03*
D24*
X032550Y009825D03*
X034025Y008300D03*
X032550Y007975D03*
X035875Y008300D03*
D25*
X041550Y008500D03*
X042550Y008500D03*
X043550Y008500D03*
X043550Y007500D03*
X042550Y007500D03*
X041550Y007500D03*
X041550Y006500D03*
X042550Y006500D03*
X043550Y006500D03*
X043550Y005500D03*
X042550Y005500D03*
X041550Y005500D03*
X041550Y004500D03*
X042550Y004500D03*
X043550Y004500D03*
X048550Y004500D03*
X049550Y004500D03*
X050550Y004500D03*
X050550Y005500D03*
X049550Y005500D03*
X048550Y005500D03*
X048550Y006500D03*
X049550Y006500D03*
X050550Y006500D03*
X050550Y007500D03*
X049550Y007500D03*
X048550Y007500D03*
X048550Y008500D03*
X049550Y008500D03*
X050550Y008500D03*
X050550Y009500D03*
X049550Y009500D03*
X048550Y009500D03*
X048550Y010500D03*
X049550Y010500D03*
X050550Y010500D03*
X050550Y011500D03*
X049550Y011500D03*
X048550Y011500D03*
X048550Y012500D03*
X049550Y012500D03*
X050550Y012500D03*
X050550Y013500D03*
X049550Y013500D03*
X048550Y013500D03*
X048550Y014500D03*
X049550Y014500D03*
X050550Y014500D03*
X050550Y015500D03*
X049550Y015500D03*
X048550Y015500D03*
X043550Y015500D03*
X042550Y015500D03*
X041550Y015500D03*
X041550Y014500D03*
X042550Y014500D03*
X043550Y014500D03*
X043550Y013500D03*
X042550Y013500D03*
X041550Y013500D03*
X041550Y012500D03*
X042550Y012500D03*
X043550Y012500D03*
X043550Y011500D03*
X042550Y011500D03*
X041550Y011500D03*
X041550Y010500D03*
X042550Y010500D03*
X043550Y010500D03*
X043550Y009500D03*
X042550Y009500D03*
X041550Y009500D03*
D26*
X033474Y013257D03*
X033100Y013257D03*
X032726Y013257D03*
X032726Y014163D03*
X033100Y014163D03*
X033474Y014163D03*
D27*
X033848Y010700D03*
X036052Y010700D03*
D28*
X037049Y010700D03*
X038151Y010700D03*
X038151Y011900D03*
X037049Y011900D03*
X032851Y011850D03*
X031749Y011850D03*
X031749Y010950D03*
X032851Y010950D03*
X037049Y009500D03*
X038151Y009500D03*
D29*
X025915Y015200D02*
X025850Y015265D01*
X025850Y016105D01*
X026450Y016065D02*
X026665Y016065D01*
X026700Y016067D01*
X026735Y016072D01*
X026769Y016081D01*
X026801Y016094D01*
X026833Y016110D01*
X026862Y016129D01*
X026889Y016151D01*
X026914Y016176D01*
X026936Y016203D01*
X026955Y016232D01*
X026971Y016264D01*
X026984Y016296D01*
X026993Y016330D01*
X026998Y016365D01*
X027000Y016400D01*
X027002Y016439D01*
X027007Y016478D01*
X027017Y016516D01*
X027029Y016553D01*
X027046Y016588D01*
X027065Y016622D01*
X027088Y016654D01*
X027114Y016684D01*
X027142Y016711D01*
X027173Y016735D01*
X027206Y016756D01*
X027240Y016774D01*
X027277Y016788D01*
X027314Y016799D01*
X027353Y016807D01*
X027392Y016811D01*
X027431Y016811D01*
X027470Y016807D01*
X027508Y016799D01*
X027546Y016788D01*
X027582Y016774D01*
X027617Y016756D01*
X027650Y016735D01*
X028478Y016735D01*
X028517Y016774D01*
X029383Y016400D02*
X029390Y016401D01*
X029395Y016405D01*
X029399Y016410D01*
X029400Y016417D01*
X029400Y017200D01*
X029392Y017243D01*
X029380Y017285D01*
X029365Y017326D01*
X029347Y017366D01*
X029325Y017404D01*
X029301Y017441D01*
X029273Y017475D01*
X029243Y017506D01*
X029210Y017535D01*
X029175Y017562D01*
X029138Y017585D01*
X029099Y017605D01*
X029059Y017622D01*
X029017Y017636D01*
X028974Y017646D01*
X028931Y017652D01*
X028887Y017655D01*
X028844Y017654D01*
X028800Y017650D01*
X026450Y017650D01*
X026450Y017200D02*
X026450Y016735D01*
X025850Y016695D02*
X025850Y017200D01*
X025858Y017243D01*
X025870Y017285D01*
X025885Y017326D01*
X025903Y017366D01*
X025925Y017404D01*
X025949Y017441D01*
X025977Y017475D01*
X026007Y017506D01*
X026040Y017535D01*
X026075Y017562D01*
X026112Y017585D01*
X026151Y017605D01*
X026191Y017622D01*
X026233Y017636D01*
X026276Y017646D01*
X026319Y017652D01*
X026363Y017655D01*
X026406Y017654D01*
X026450Y017650D01*
X027615Y016700D02*
X027650Y016735D01*
X022400Y016417D02*
X022400Y017200D01*
X022392Y017243D01*
X022380Y017285D01*
X022365Y017326D01*
X022347Y017366D01*
X022325Y017404D01*
X022301Y017441D01*
X022273Y017475D01*
X022243Y017506D01*
X022210Y017535D01*
X022175Y017562D01*
X022138Y017585D01*
X022099Y017605D01*
X022059Y017622D01*
X022017Y017636D01*
X021974Y017646D01*
X021931Y017652D01*
X021887Y017655D01*
X021844Y017654D01*
X021800Y017650D01*
X019450Y017650D01*
X019450Y017200D02*
X019450Y016735D01*
X018850Y016695D02*
X018850Y017200D01*
X018858Y017243D01*
X018870Y017285D01*
X018885Y017326D01*
X018903Y017366D01*
X018925Y017404D01*
X018949Y017441D01*
X018977Y017475D01*
X019007Y017506D01*
X019040Y017535D01*
X019075Y017562D01*
X019112Y017585D01*
X019151Y017605D01*
X019191Y017622D01*
X019233Y017636D01*
X019276Y017646D01*
X019319Y017652D01*
X019363Y017655D01*
X019406Y017654D01*
X019450Y017650D01*
X020615Y016700D02*
X020650Y016735D01*
X021478Y016735D01*
X021517Y016774D01*
X022383Y016400D02*
X022390Y016401D01*
X022395Y016405D01*
X022399Y016410D01*
X022400Y016417D01*
X020650Y016735D02*
X020617Y016756D01*
X020582Y016774D01*
X020546Y016788D01*
X020508Y016799D01*
X020470Y016807D01*
X020431Y016811D01*
X020392Y016811D01*
X020353Y016807D01*
X020314Y016799D01*
X020277Y016788D01*
X020240Y016774D01*
X020206Y016756D01*
X020173Y016735D01*
X020142Y016711D01*
X020114Y016684D01*
X020088Y016654D01*
X020065Y016622D01*
X020046Y016588D01*
X020029Y016553D01*
X020017Y016516D01*
X020007Y016478D01*
X020002Y016439D01*
X020000Y016400D01*
X019998Y016365D01*
X019993Y016330D01*
X019984Y016296D01*
X019971Y016264D01*
X019955Y016232D01*
X019936Y016203D01*
X019914Y016176D01*
X019889Y016151D01*
X019862Y016129D01*
X019833Y016110D01*
X019801Y016094D01*
X019769Y016081D01*
X019735Y016072D01*
X019700Y016067D01*
X019665Y016065D01*
X019450Y016065D01*
X018850Y016105D02*
X018850Y015265D01*
X018915Y015200D01*
X015383Y016400D02*
X015383Y017267D01*
X015381Y017302D01*
X015376Y017336D01*
X015367Y017370D01*
X015354Y017402D01*
X015338Y017434D01*
X015319Y017463D01*
X015297Y017490D01*
X015273Y017514D01*
X015246Y017536D01*
X015217Y017555D01*
X015185Y017571D01*
X015153Y017584D01*
X015119Y017593D01*
X015085Y017598D01*
X015050Y017600D01*
X012450Y017600D01*
X012450Y017200D02*
X012450Y016735D01*
X011850Y016695D02*
X011850Y017000D01*
X011852Y017047D01*
X011857Y017094D01*
X011867Y017140D01*
X011879Y017185D01*
X011896Y017230D01*
X011915Y017272D01*
X011938Y017313D01*
X011965Y017353D01*
X011994Y017390D01*
X012026Y017424D01*
X012060Y017456D01*
X012097Y017485D01*
X012137Y017512D01*
X012178Y017535D01*
X012220Y017554D01*
X012265Y017571D01*
X012310Y017583D01*
X012356Y017593D01*
X012403Y017598D01*
X012450Y017600D01*
X013615Y016700D02*
X013650Y016735D01*
X013689Y016774D01*
X014517Y016774D01*
X015383Y016400D02*
X015398Y016402D01*
X015412Y016407D01*
X015425Y016415D01*
X015435Y016425D01*
X015443Y016438D01*
X015448Y016452D01*
X015450Y016467D01*
X014517Y016026D02*
X013689Y016026D01*
X013650Y016065D01*
X013650Y016735D02*
X013617Y016756D01*
X013582Y016774D01*
X013546Y016788D01*
X013508Y016799D01*
X013470Y016807D01*
X013431Y016811D01*
X013392Y016811D01*
X013353Y016807D01*
X013314Y016799D01*
X013277Y016788D01*
X013240Y016774D01*
X013206Y016756D01*
X013173Y016735D01*
X013142Y016711D01*
X013114Y016684D01*
X013088Y016654D01*
X013065Y016622D01*
X013046Y016588D01*
X013029Y016553D01*
X013017Y016516D01*
X013007Y016478D01*
X013002Y016439D01*
X013000Y016400D01*
X012998Y016365D01*
X012993Y016330D01*
X012984Y016296D01*
X012971Y016264D01*
X012955Y016232D01*
X012936Y016203D01*
X012914Y016176D01*
X012889Y016151D01*
X012862Y016129D01*
X012833Y016110D01*
X012801Y016094D01*
X012769Y016081D01*
X012735Y016072D01*
X012700Y016067D01*
X012665Y016065D01*
X012450Y016065D01*
X011850Y016105D02*
X011850Y015265D01*
X011915Y015200D01*
X008383Y016400D02*
X008373Y016402D01*
X008364Y016406D01*
X008356Y016414D01*
X008352Y016423D01*
X008350Y016433D01*
X008350Y017200D01*
X008348Y017239D01*
X008342Y017278D01*
X008333Y017316D01*
X008320Y017353D01*
X008303Y017389D01*
X008283Y017422D01*
X008259Y017454D01*
X008233Y017483D01*
X008204Y017509D01*
X008172Y017533D01*
X008139Y017553D01*
X008103Y017570D01*
X008066Y017583D01*
X008028Y017592D01*
X007989Y017598D01*
X007950Y017600D01*
X005450Y017600D01*
X005450Y017200D02*
X005450Y016735D01*
X004850Y016695D02*
X004850Y017000D01*
X004852Y017047D01*
X004857Y017094D01*
X004867Y017140D01*
X004879Y017185D01*
X004896Y017230D01*
X004915Y017272D01*
X004938Y017313D01*
X004965Y017353D01*
X004994Y017390D01*
X005026Y017424D01*
X005060Y017456D01*
X005097Y017485D01*
X005137Y017512D01*
X005178Y017535D01*
X005220Y017554D01*
X005265Y017571D01*
X005310Y017583D01*
X005356Y017593D01*
X005403Y017598D01*
X005450Y017600D01*
X006715Y016700D02*
X006750Y016735D01*
X006789Y016774D01*
X007517Y016774D01*
X006750Y016735D02*
X006717Y016756D01*
X006682Y016774D01*
X006646Y016788D01*
X006608Y016799D01*
X006570Y016807D01*
X006531Y016811D01*
X006492Y016811D01*
X006453Y016807D01*
X006414Y016799D01*
X006377Y016788D01*
X006340Y016774D01*
X006306Y016756D01*
X006273Y016735D01*
X006242Y016711D01*
X006214Y016684D01*
X006188Y016654D01*
X006165Y016622D01*
X006146Y016588D01*
X006129Y016553D01*
X006117Y016516D01*
X006107Y016478D01*
X006102Y016439D01*
X006100Y016400D01*
X006098Y016365D01*
X006093Y016330D01*
X006084Y016296D01*
X006071Y016264D01*
X006055Y016232D01*
X006036Y016203D01*
X006014Y016176D01*
X005989Y016151D01*
X005962Y016129D01*
X005932Y016110D01*
X005901Y016094D01*
X005869Y016081D01*
X005835Y016072D01*
X005800Y016067D01*
X005765Y016065D01*
X005450Y016065D01*
X004850Y016105D02*
X004850Y015265D01*
X004915Y015200D01*
X006750Y016065D02*
X006789Y016026D01*
X007517Y016026D01*
D30*
X006350Y016000D03*
X006250Y015700D03*
X005950Y015700D03*
X006250Y015200D03*
X002450Y015300D03*
X002000Y015300D03*
X001550Y015300D03*
X001100Y015300D03*
X000650Y015300D03*
X000650Y015700D03*
X000650Y016100D03*
X005450Y017200D03*
X012450Y017200D03*
X013250Y016000D03*
X013250Y015700D03*
X012950Y015700D03*
X013250Y015200D03*
X019450Y017200D03*
X020250Y016000D03*
X020250Y015700D03*
X019950Y015700D03*
X020250Y015200D03*
X026450Y017200D03*
X027250Y016000D03*
X027250Y015700D03*
X026950Y015700D03*
X027250Y015200D03*
X045350Y002000D03*
X045950Y002000D03*
X046550Y002000D03*
X047150Y002000D03*
X047750Y002000D03*
X048350Y002000D03*
X048950Y002000D03*
D31*
X038040Y007430D03*
X037720Y007430D03*
X038300Y007650D03*
X038300Y007950D03*
X038300Y008270D03*
X038300Y008570D03*
X038360Y008910D03*
X038060Y008910D03*
X037760Y008910D03*
X038650Y009150D03*
X038650Y009450D03*
X038650Y009750D03*
X038650Y010050D03*
X038350Y010100D03*
X038050Y010100D03*
X037750Y010100D03*
X038650Y010350D03*
X038650Y010650D03*
X038650Y010950D03*
X038650Y011250D03*
X038650Y011550D03*
X038350Y011310D03*
X038050Y011310D03*
X037750Y011310D03*
X038650Y011850D03*
X038650Y012150D03*
X038650Y012450D03*
X038350Y012490D03*
X038050Y012490D03*
X037730Y012490D03*
X037250Y012550D03*
X036950Y012550D03*
X036650Y012550D03*
X036350Y012550D03*
X036050Y012550D03*
X033100Y013710D03*
X032800Y013710D03*
X032500Y013710D03*
X031570Y013740D03*
X031270Y013740D03*
X032800Y014610D03*
X033150Y014610D03*
X033500Y014610D03*
X031400Y015200D03*
X031270Y012400D03*
X031590Y012400D03*
X031910Y012380D03*
X032250Y012200D03*
X032250Y011900D03*
X032250Y011600D03*
X032250Y011300D03*
X032250Y011000D03*
X032250Y010700D03*
X031750Y010400D03*
X031450Y010400D03*
X031250Y010600D03*
X031250Y010900D03*
X031250Y011200D03*
X031250Y011500D03*
X031250Y011800D03*
X031250Y012100D03*
X031950Y008850D03*
X032250Y008850D03*
X032550Y008850D03*
X032850Y008850D03*
X033150Y008850D03*
X035150Y008700D03*
X035150Y008400D03*
X035150Y008100D03*
X035150Y007800D03*
X035250Y007500D03*
X035550Y007500D03*
X035850Y007500D03*
X036150Y007500D03*
X036450Y007500D03*
X036600Y007800D03*
X036600Y008100D03*
X036600Y008400D03*
X036600Y008700D03*
D32*
X040450Y008500D03*
X040450Y007500D03*
X040450Y006500D03*
X040450Y005500D03*
X040450Y004500D03*
X051650Y004500D03*
X052650Y004500D03*
X053650Y004500D03*
X054650Y004500D03*
X055650Y004500D03*
X056650Y004500D03*
X057650Y004500D03*
X058650Y004500D03*
X059650Y004500D03*
X059650Y005500D03*
X058650Y005500D03*
X057650Y005500D03*
X056650Y005500D03*
X055650Y005500D03*
X054650Y005500D03*
X053650Y005500D03*
X052650Y005500D03*
X051650Y005500D03*
X051650Y006500D03*
X052650Y006500D03*
X053650Y006500D03*
X054650Y006500D03*
X055650Y006500D03*
X056650Y006500D03*
X057650Y006500D03*
X058650Y006500D03*
X059650Y006500D03*
X059650Y007500D03*
X058650Y007500D03*
X057650Y007500D03*
X056650Y007500D03*
X055650Y007500D03*
X054650Y007500D03*
X053650Y007500D03*
X052650Y007500D03*
X051650Y007500D03*
X051650Y008500D03*
X052650Y008500D03*
X053650Y008500D03*
X054650Y008500D03*
X055650Y008500D03*
X056650Y008500D03*
X057650Y008500D03*
X058650Y008500D03*
X059650Y008500D03*
X059650Y009500D03*
X058650Y009500D03*
X057650Y009500D03*
X056650Y009500D03*
X055650Y009500D03*
X054650Y009500D03*
X053650Y009500D03*
X052650Y009500D03*
X051650Y009500D03*
X051650Y010500D03*
X052650Y010500D03*
X053650Y010500D03*
X054650Y010500D03*
X055650Y010500D03*
X056650Y010500D03*
X057650Y010500D03*
X058650Y010500D03*
X059650Y010500D03*
X059650Y011500D03*
X058650Y011500D03*
X057650Y011500D03*
X056650Y011500D03*
X055650Y011500D03*
X054650Y011500D03*
X053650Y011500D03*
X052650Y011500D03*
X051650Y011500D03*
X051650Y012500D03*
X052650Y012500D03*
X053650Y012500D03*
X054650Y012500D03*
X055650Y012500D03*
X056650Y012500D03*
X057650Y012500D03*
X058650Y012500D03*
X059650Y012500D03*
X059650Y013500D03*
X058650Y013500D03*
X057650Y013500D03*
X056650Y013500D03*
X055650Y013500D03*
X054650Y013500D03*
X053650Y013500D03*
X052650Y013500D03*
X051650Y013500D03*
X051650Y014500D03*
X052650Y014500D03*
X053650Y014500D03*
X054650Y014500D03*
X055650Y014500D03*
X056650Y014500D03*
X057650Y014500D03*
X058650Y014500D03*
X059650Y014500D03*
X059650Y015500D03*
X058650Y015500D03*
X057650Y015500D03*
X056650Y015500D03*
X055650Y015500D03*
X054650Y015500D03*
X053650Y015500D03*
X052650Y015500D03*
X051650Y015500D03*
X052650Y016500D03*
X053650Y016500D03*
X054650Y016500D03*
X055650Y016500D03*
X056650Y016500D03*
X057650Y016500D03*
X057650Y017500D03*
X056650Y017500D03*
X055650Y017500D03*
X054650Y017500D03*
X053650Y017500D03*
X040450Y015500D03*
X040450Y014500D03*
X040450Y013500D03*
X040450Y012500D03*
X040450Y011500D03*
X040450Y010500D03*
X040450Y009500D03*
X052650Y003500D03*
X053650Y003500D03*
X054650Y003500D03*
X055650Y003500D03*
X056650Y003500D03*
X057650Y003500D03*
X057650Y002500D03*
X056650Y002500D03*
X055650Y002500D03*
X054650Y002500D03*
X053650Y002500D03*
D33*
X033150Y005933D02*
X033150Y006250D01*
X033150Y005933D02*
X032766Y005933D01*
X037050Y009499D02*
X037049Y009500D01*
X029510Y012400D02*
X029463Y012400D01*
X029463Y015135D01*
X029398Y015200D01*
X029398Y016285D01*
X029383Y016400D01*
X027902Y015200D02*
X027250Y015200D01*
X026585Y015200D01*
X022463Y015135D02*
X022398Y015200D01*
X022398Y016185D01*
X022383Y016400D01*
X022463Y015135D02*
X022463Y012400D01*
X022510Y012400D01*
X015510Y012400D02*
X015463Y012400D01*
X015463Y015135D01*
X015398Y015200D01*
X015398Y016385D01*
X015383Y016400D01*
X013902Y015200D02*
X013250Y015200D01*
X012585Y015200D01*
X008463Y015135D02*
X008398Y015200D01*
X008398Y016385D01*
X008383Y016400D01*
X008463Y015135D02*
X008463Y012400D01*
X008510Y012400D01*
X006902Y015200D02*
X006250Y015200D01*
X005585Y015200D01*
X019585Y015200D02*
X020250Y015200D01*
X020902Y015200D01*
D34*
X032500Y012980D02*
X032860Y012980D01*
X032870Y012990D01*
X032881Y012990D01*
X032934Y013043D01*
X032934Y013054D01*
X032950Y013070D01*
X032950Y013460D01*
X033250Y013460D01*
X033250Y009250D01*
X032000Y009250D01*
X032000Y010400D01*
X032500Y010400D01*
X032500Y012980D01*
X032500Y012970D02*
X033250Y012970D01*
X033250Y012952D02*
X032500Y012952D01*
X032500Y012933D02*
X033250Y012933D01*
X033250Y012915D02*
X032500Y012915D01*
X032500Y012896D02*
X033250Y012896D01*
X033250Y012878D02*
X032500Y012878D01*
X032500Y012859D02*
X033250Y012859D01*
X033250Y012841D02*
X032500Y012841D01*
X032500Y012822D02*
X033250Y012822D01*
X033250Y012804D02*
X032500Y012804D01*
X032500Y012785D02*
X033250Y012785D01*
X033250Y012767D02*
X032500Y012767D01*
X032500Y012748D02*
X033250Y012748D01*
X033250Y012730D02*
X032500Y012730D01*
X032500Y012711D02*
X033250Y012711D01*
X033250Y012693D02*
X032500Y012693D01*
X032500Y012674D02*
X033250Y012674D01*
X033250Y012656D02*
X032500Y012656D01*
X032500Y012637D02*
X033250Y012637D01*
X033250Y012619D02*
X032500Y012619D01*
X032500Y012600D02*
X033250Y012600D01*
X033250Y012582D02*
X032500Y012582D01*
X032500Y012563D02*
X033250Y012563D01*
X033250Y012545D02*
X032500Y012545D01*
X032500Y012526D02*
X033250Y012526D01*
X033250Y012508D02*
X032500Y012508D01*
X032500Y012489D02*
X033250Y012489D01*
X033250Y012471D02*
X032500Y012471D01*
X032500Y012452D02*
X033250Y012452D01*
X033250Y012434D02*
X032500Y012434D01*
X032500Y012415D02*
X033250Y012415D01*
X033250Y012397D02*
X032500Y012397D01*
X032500Y012378D02*
X033250Y012378D01*
X033250Y012360D02*
X032500Y012360D01*
X032500Y012341D02*
X033250Y012341D01*
X033250Y012323D02*
X032500Y012323D01*
X032500Y012304D02*
X033250Y012304D01*
X033250Y012286D02*
X032500Y012286D01*
X032500Y012267D02*
X033250Y012267D01*
X033250Y012249D02*
X032500Y012249D01*
X032500Y012230D02*
X033250Y012230D01*
X033250Y012212D02*
X032500Y012212D01*
X032500Y012193D02*
X033250Y012193D01*
X033250Y012175D02*
X032500Y012175D01*
X032500Y012156D02*
X033250Y012156D01*
X033250Y012138D02*
X032500Y012138D01*
X032500Y012119D02*
X033250Y012119D01*
X033250Y012101D02*
X032500Y012101D01*
X032500Y012082D02*
X033250Y012082D01*
X033250Y012064D02*
X032500Y012064D01*
X032500Y012045D02*
X033250Y012045D01*
X033250Y012027D02*
X032500Y012027D01*
X032500Y012008D02*
X033250Y012008D01*
X033250Y011990D02*
X032500Y011990D01*
X032500Y011971D02*
X033250Y011971D01*
X033250Y011953D02*
X032500Y011953D01*
X032500Y011934D02*
X033250Y011934D01*
X033250Y011916D02*
X032500Y011916D01*
X032500Y011897D02*
X033250Y011897D01*
X033250Y011879D02*
X032500Y011879D01*
X032500Y011860D02*
X033250Y011860D01*
X033250Y011842D02*
X032500Y011842D01*
X032500Y011823D02*
X033250Y011823D01*
X033250Y011805D02*
X032500Y011805D01*
X032500Y011786D02*
X033250Y011786D01*
X033250Y011768D02*
X032500Y011768D01*
X032500Y011749D02*
X033250Y011749D01*
X033250Y011731D02*
X032500Y011731D01*
X032500Y011712D02*
X033250Y011712D01*
X033250Y011694D02*
X032500Y011694D01*
X032500Y011675D02*
X033250Y011675D01*
X033250Y011657D02*
X032500Y011657D01*
X032500Y011638D02*
X033250Y011638D01*
X033250Y011620D02*
X032500Y011620D01*
X032500Y011601D02*
X033250Y011601D01*
X033250Y011583D02*
X032500Y011583D01*
X032500Y011564D02*
X033250Y011564D01*
X033250Y011546D02*
X032500Y011546D01*
X032500Y011527D02*
X033250Y011527D01*
X033250Y011509D02*
X032500Y011509D01*
X032500Y011490D02*
X033250Y011490D01*
X033250Y011472D02*
X032500Y011472D01*
X032500Y011453D02*
X033250Y011453D01*
X033250Y011435D02*
X032500Y011435D01*
X032500Y011416D02*
X033250Y011416D01*
X033250Y011398D02*
X032500Y011398D01*
X032500Y011379D02*
X033250Y011379D01*
X033250Y011361D02*
X032500Y011361D01*
X032500Y011342D02*
X033250Y011342D01*
X033250Y011324D02*
X032500Y011324D01*
X032500Y011305D02*
X033250Y011305D01*
X033250Y011287D02*
X032500Y011287D01*
X032500Y011268D02*
X033250Y011268D01*
X033250Y011250D02*
X032500Y011250D01*
X032500Y011231D02*
X033250Y011231D01*
X033250Y011213D02*
X032500Y011213D01*
X032500Y011194D02*
X033250Y011194D01*
X033250Y011176D02*
X032500Y011176D01*
X032500Y011157D02*
X033250Y011157D01*
X033250Y011139D02*
X032500Y011139D01*
X032500Y011120D02*
X033250Y011120D01*
X033250Y011102D02*
X032500Y011102D01*
X032500Y011083D02*
X033250Y011083D01*
X033250Y011065D02*
X032500Y011065D01*
X032500Y011046D02*
X033250Y011046D01*
X033250Y011028D02*
X032500Y011028D01*
X032500Y011009D02*
X033250Y011009D01*
X033250Y010991D02*
X032500Y010991D01*
X032500Y010972D02*
X033250Y010972D01*
X033250Y010954D02*
X032500Y010954D01*
X032500Y010935D02*
X033250Y010935D01*
X033250Y010917D02*
X032500Y010917D01*
X032500Y010898D02*
X033250Y010898D01*
X033250Y010880D02*
X032500Y010880D01*
X032500Y010861D02*
X033250Y010861D01*
X033250Y010843D02*
X032500Y010843D01*
X032500Y010824D02*
X033250Y010824D01*
X033250Y010806D02*
X032500Y010806D01*
X032500Y010787D02*
X033250Y010787D01*
X033250Y010769D02*
X032500Y010769D01*
X032500Y010750D02*
X033250Y010750D01*
X033250Y010732D02*
X032500Y010732D01*
X032500Y010713D02*
X033250Y010713D01*
X033250Y010695D02*
X032500Y010695D01*
X032500Y010676D02*
X033250Y010676D01*
X033250Y010658D02*
X032500Y010658D01*
X032500Y010639D02*
X033250Y010639D01*
X033250Y010621D02*
X032500Y010621D01*
X032500Y010602D02*
X033250Y010602D01*
X033250Y010584D02*
X032500Y010584D01*
X032500Y010565D02*
X033250Y010565D01*
X033250Y010547D02*
X032500Y010547D01*
X032500Y010528D02*
X033250Y010528D01*
X033250Y010510D02*
X032500Y010510D01*
X032500Y010491D02*
X033250Y010491D01*
X033250Y010473D02*
X032500Y010473D01*
X032500Y010454D02*
X033250Y010454D01*
X033250Y010436D02*
X032500Y010436D01*
X032500Y010417D02*
X033250Y010417D01*
X033250Y010399D02*
X032000Y010399D01*
X032000Y010380D02*
X033250Y010380D01*
X033250Y010362D02*
X032000Y010362D01*
X032000Y010343D02*
X033250Y010343D01*
X033250Y010325D02*
X032000Y010325D01*
X032000Y010306D02*
X033250Y010306D01*
X033250Y010288D02*
X032000Y010288D01*
X032000Y010269D02*
X033250Y010269D01*
X033250Y010251D02*
X032000Y010251D01*
X032000Y010232D02*
X033250Y010232D01*
X033250Y010214D02*
X032000Y010214D01*
X032000Y010195D02*
X033250Y010195D01*
X033250Y010177D02*
X032000Y010177D01*
X032000Y010158D02*
X033250Y010158D01*
X033250Y010140D02*
X032000Y010140D01*
X032000Y010121D02*
X033250Y010121D01*
X033250Y010103D02*
X032000Y010103D01*
X032000Y010084D02*
X033250Y010084D01*
X033250Y010066D02*
X032000Y010066D01*
X032000Y010047D02*
X033250Y010047D01*
X033250Y010029D02*
X032000Y010029D01*
X032000Y010010D02*
X033250Y010010D01*
X033250Y009992D02*
X032000Y009992D01*
X032000Y009973D02*
X033250Y009973D01*
X033250Y009955D02*
X032000Y009955D01*
X032000Y009936D02*
X033250Y009936D01*
X033250Y009918D02*
X032000Y009918D01*
X032000Y009899D02*
X033250Y009899D01*
X033250Y009881D02*
X032000Y009881D01*
X032000Y009862D02*
X033250Y009862D01*
X033250Y009844D02*
X032000Y009844D01*
X032000Y009825D02*
X033250Y009825D01*
X033250Y009807D02*
X032000Y009807D01*
X032000Y009788D02*
X033250Y009788D01*
X033250Y009770D02*
X032000Y009770D01*
X032000Y009751D02*
X033250Y009751D01*
X033250Y009733D02*
X032000Y009733D01*
X032000Y009714D02*
X033250Y009714D01*
X033250Y009696D02*
X032000Y009696D01*
X032000Y009677D02*
X033250Y009677D01*
X033250Y009659D02*
X032000Y009659D01*
X032000Y009640D02*
X033250Y009640D01*
X033250Y009622D02*
X032000Y009622D01*
X032000Y009603D02*
X033250Y009603D01*
X033250Y009585D02*
X032000Y009585D01*
X032000Y009566D02*
X033250Y009566D01*
X033250Y009548D02*
X032000Y009548D01*
X032000Y009529D02*
X033250Y009529D01*
X033250Y009511D02*
X032000Y009511D01*
X032000Y009492D02*
X033250Y009492D01*
X033250Y009474D02*
X032000Y009474D01*
X032000Y009455D02*
X033250Y009455D01*
X033250Y009437D02*
X032000Y009437D01*
X032000Y009418D02*
X033250Y009418D01*
X033250Y009400D02*
X032000Y009400D01*
X032000Y009381D02*
X033250Y009381D01*
X033250Y009363D02*
X032000Y009363D01*
X032000Y009344D02*
X033250Y009344D01*
X033250Y009326D02*
X032000Y009326D01*
X032000Y009307D02*
X033250Y009307D01*
X033250Y009289D02*
X032000Y009289D01*
X032000Y009270D02*
X033250Y009270D01*
X033250Y009252D02*
X032000Y009252D01*
X033400Y009252D02*
X034250Y009252D01*
X034250Y009270D02*
X033400Y009270D01*
X033400Y009289D02*
X034250Y009289D01*
X034250Y009307D02*
X033400Y009307D01*
X033400Y009326D02*
X034250Y009326D01*
X034250Y009344D02*
X033400Y009344D01*
X033400Y009363D02*
X034250Y009363D01*
X034250Y009381D02*
X033400Y009381D01*
X033400Y009400D02*
X034250Y009400D01*
X034250Y009418D02*
X033400Y009418D01*
X033400Y009437D02*
X034250Y009437D01*
X034250Y009455D02*
X033400Y009455D01*
X033400Y009474D02*
X034250Y009474D01*
X034250Y009492D02*
X033400Y009492D01*
X033400Y009511D02*
X034250Y009511D01*
X034250Y009529D02*
X033400Y009529D01*
X033400Y009548D02*
X034250Y009548D01*
X034250Y009566D02*
X033400Y009566D01*
X033400Y009585D02*
X034250Y009585D01*
X034250Y009603D02*
X033400Y009603D01*
X033400Y009622D02*
X034250Y009622D01*
X034250Y009640D02*
X033400Y009640D01*
X033400Y009659D02*
X034250Y009659D01*
X034250Y009677D02*
X033400Y009677D01*
X033400Y009696D02*
X034250Y009696D01*
X034250Y009714D02*
X033400Y009714D01*
X033400Y009733D02*
X034250Y009733D01*
X034250Y009751D02*
X033400Y009751D01*
X033400Y009770D02*
X034250Y009770D01*
X034250Y009788D02*
X033400Y009788D01*
X033400Y009807D02*
X034250Y009807D01*
X034250Y009825D02*
X033400Y009825D01*
X033400Y009844D02*
X034250Y009844D01*
X034250Y009862D02*
X033400Y009862D01*
X033400Y009881D02*
X034250Y009881D01*
X034250Y009899D02*
X033400Y009899D01*
X033400Y009918D02*
X034250Y009918D01*
X034250Y009936D02*
X033400Y009936D01*
X033400Y009955D02*
X034250Y009955D01*
X034250Y009973D02*
X033400Y009973D01*
X033400Y009992D02*
X034250Y009992D01*
X034250Y010010D02*
X033400Y010010D01*
X033400Y010029D02*
X034250Y010029D01*
X034250Y010047D02*
X033400Y010047D01*
X033400Y010066D02*
X034250Y010066D01*
X034250Y010084D02*
X033400Y010084D01*
X033400Y010103D02*
X034250Y010103D01*
X034250Y010121D02*
X033400Y010121D01*
X033400Y010140D02*
X034250Y010140D01*
X034250Y010158D02*
X033400Y010158D01*
X033400Y010177D02*
X034250Y010177D01*
X034250Y010195D02*
X033400Y010195D01*
X033400Y010214D02*
X034250Y010214D01*
X034250Y010232D02*
X033400Y010232D01*
X033400Y010251D02*
X034250Y010251D01*
X034250Y010269D02*
X033400Y010269D01*
X033400Y010288D02*
X034250Y010288D01*
X034250Y010306D02*
X033400Y010306D01*
X033400Y010325D02*
X034250Y010325D01*
X034250Y010343D02*
X033400Y010343D01*
X033400Y010362D02*
X034250Y010362D01*
X034250Y010380D02*
X033400Y010380D01*
X033400Y010399D02*
X034250Y010399D01*
X034250Y010417D02*
X033400Y010417D01*
X033400Y010436D02*
X034250Y010436D01*
X034250Y010454D02*
X033400Y010454D01*
X033400Y010473D02*
X034250Y010473D01*
X034250Y010491D02*
X033400Y010491D01*
X033400Y010510D02*
X034250Y010510D01*
X034250Y010528D02*
X033400Y010528D01*
X033400Y010547D02*
X034250Y010547D01*
X034250Y010565D02*
X033400Y010565D01*
X033400Y010584D02*
X034250Y010584D01*
X034250Y010602D02*
X033400Y010602D01*
X033400Y010621D02*
X034250Y010621D01*
X034250Y010639D02*
X033400Y010639D01*
X033400Y010658D02*
X034250Y010658D01*
X034250Y010676D02*
X033400Y010676D01*
X033400Y010695D02*
X034250Y010695D01*
X034250Y010713D02*
X033400Y010713D01*
X033400Y010732D02*
X034250Y010732D01*
X034250Y010750D02*
X033400Y010750D01*
X033400Y010769D02*
X034250Y010769D01*
X034250Y010787D02*
X033400Y010787D01*
X033400Y010806D02*
X034250Y010806D01*
X034250Y010824D02*
X033400Y010824D01*
X033400Y010843D02*
X034250Y010843D01*
X034250Y010861D02*
X033400Y010861D01*
X033400Y010880D02*
X034250Y010880D01*
X034250Y010898D02*
X033400Y010898D01*
X033400Y010917D02*
X034250Y010917D01*
X034250Y010935D02*
X033400Y010935D01*
X033400Y010954D02*
X034250Y010954D01*
X034250Y010972D02*
X033400Y010972D01*
X033400Y010991D02*
X034250Y010991D01*
X034250Y011009D02*
X033400Y011009D01*
X033400Y011028D02*
X034250Y011028D01*
X034250Y011046D02*
X033400Y011046D01*
X033400Y011065D02*
X034250Y011065D01*
X034250Y011083D02*
X033400Y011083D01*
X033400Y011102D02*
X034250Y011102D01*
X034250Y011120D02*
X033400Y011120D01*
X033400Y011139D02*
X034250Y011139D01*
X034250Y011157D02*
X033400Y011157D01*
X033400Y011176D02*
X034250Y011176D01*
X034250Y011194D02*
X033400Y011194D01*
X033400Y011213D02*
X034250Y011213D01*
X034250Y011231D02*
X033400Y011231D01*
X033400Y011250D02*
X034250Y011250D01*
X034250Y011268D02*
X033400Y011268D01*
X033400Y011287D02*
X034250Y011287D01*
X034250Y011305D02*
X033400Y011305D01*
X033400Y011324D02*
X034250Y011324D01*
X034250Y011342D02*
X033400Y011342D01*
X033400Y011361D02*
X034250Y011361D01*
X034250Y011379D02*
X033400Y011379D01*
X033400Y011398D02*
X034250Y011398D01*
X034250Y011416D02*
X033400Y011416D01*
X033400Y011435D02*
X034250Y011435D01*
X034250Y011453D02*
X033400Y011453D01*
X033400Y011472D02*
X034250Y011472D01*
X034250Y011490D02*
X033400Y011490D01*
X033400Y011509D02*
X034250Y011509D01*
X034250Y011527D02*
X033400Y011527D01*
X033400Y011546D02*
X034250Y011546D01*
X034250Y011564D02*
X033400Y011564D01*
X033400Y011583D02*
X034250Y011583D01*
X034250Y011601D02*
X033400Y011601D01*
X033400Y011620D02*
X034250Y011620D01*
X034250Y011638D02*
X033400Y011638D01*
X033400Y011657D02*
X034250Y011657D01*
X034250Y011675D02*
X033400Y011675D01*
X033400Y011694D02*
X034250Y011694D01*
X034250Y011712D02*
X033400Y011712D01*
X033400Y011731D02*
X034250Y011731D01*
X034250Y011749D02*
X033400Y011749D01*
X033400Y011768D02*
X034250Y011768D01*
X034250Y011786D02*
X033400Y011786D01*
X033400Y011805D02*
X034250Y011805D01*
X034250Y011823D02*
X033400Y011823D01*
X033400Y011842D02*
X034250Y011842D01*
X034250Y011860D02*
X033400Y011860D01*
X033400Y011879D02*
X034250Y011879D01*
X034250Y011897D02*
X033400Y011897D01*
X033400Y011916D02*
X034250Y011916D01*
X034250Y011934D02*
X033400Y011934D01*
X033400Y011953D02*
X034250Y011953D01*
X034250Y011971D02*
X033400Y011971D01*
X033400Y011990D02*
X034250Y011990D01*
X034250Y012008D02*
X033400Y012008D01*
X033400Y012027D02*
X034250Y012027D01*
X034250Y012045D02*
X033400Y012045D01*
X033400Y012064D02*
X034250Y012064D01*
X034250Y012082D02*
X033400Y012082D01*
X033400Y012101D02*
X034250Y012101D01*
X034250Y012119D02*
X033400Y012119D01*
X033400Y012138D02*
X034250Y012138D01*
X034250Y012156D02*
X033400Y012156D01*
X033400Y012175D02*
X034250Y012175D01*
X034250Y012193D02*
X033400Y012193D01*
X033400Y012212D02*
X034250Y012212D01*
X034250Y012230D02*
X033400Y012230D01*
X033400Y012249D02*
X034250Y012249D01*
X034250Y012267D02*
X033400Y012267D01*
X033400Y012286D02*
X034250Y012286D01*
X034250Y012304D02*
X033400Y012304D01*
X033400Y012323D02*
X034250Y012323D01*
X034250Y012341D02*
X033400Y012341D01*
X033400Y012360D02*
X034250Y012360D01*
X034250Y012378D02*
X033400Y012378D01*
X033400Y012397D02*
X034250Y012397D01*
X034250Y012415D02*
X033400Y012415D01*
X033400Y012434D02*
X034250Y012434D01*
X034250Y012452D02*
X033400Y012452D01*
X033400Y012471D02*
X034250Y012471D01*
X034250Y012489D02*
X033400Y012489D01*
X033400Y012500D02*
X033400Y007750D01*
X034250Y007750D01*
X034250Y013610D01*
X033350Y013610D01*
X033350Y012500D01*
X033400Y012500D01*
X033350Y012508D02*
X034250Y012508D01*
X034250Y012526D02*
X033350Y012526D01*
X033350Y012545D02*
X034250Y012545D01*
X034250Y012563D02*
X033350Y012563D01*
X033350Y012582D02*
X034250Y012582D01*
X034250Y012600D02*
X033350Y012600D01*
X033350Y012619D02*
X034250Y012619D01*
X034250Y012637D02*
X033350Y012637D01*
X033350Y012656D02*
X034250Y012656D01*
X034250Y012674D02*
X033350Y012674D01*
X033350Y012693D02*
X034250Y012693D01*
X034250Y012711D02*
X033350Y012711D01*
X033350Y012730D02*
X034250Y012730D01*
X034250Y012748D02*
X033350Y012748D01*
X033350Y012767D02*
X034250Y012767D01*
X034250Y012785D02*
X033350Y012785D01*
X033350Y012804D02*
X034250Y012804D01*
X034250Y012822D02*
X033350Y012822D01*
X033350Y012841D02*
X034250Y012841D01*
X034250Y012859D02*
X033350Y012859D01*
X033350Y012878D02*
X034250Y012878D01*
X034250Y012896D02*
X033350Y012896D01*
X033350Y012915D02*
X034250Y012915D01*
X034250Y012933D02*
X033350Y012933D01*
X033350Y012952D02*
X034250Y012952D01*
X034250Y012970D02*
X033350Y012970D01*
X033350Y012989D02*
X034250Y012989D01*
X034250Y013007D02*
X033350Y013007D01*
X033350Y013026D02*
X034250Y013026D01*
X034250Y013044D02*
X033350Y013044D01*
X033350Y013063D02*
X034250Y013063D01*
X034250Y013081D02*
X033350Y013081D01*
X033350Y013100D02*
X034250Y013100D01*
X034250Y013118D02*
X033350Y013118D01*
X033350Y013137D02*
X034250Y013137D01*
X034250Y013155D02*
X033350Y013155D01*
X033350Y013174D02*
X034250Y013174D01*
X034250Y013192D02*
X033350Y013192D01*
X033350Y013211D02*
X034250Y013211D01*
X034250Y013229D02*
X033350Y013229D01*
X033350Y013248D02*
X034250Y013248D01*
X034250Y013266D02*
X033350Y013266D01*
X033350Y013285D02*
X034250Y013285D01*
X034250Y013303D02*
X033350Y013303D01*
X033350Y013322D02*
X034250Y013322D01*
X034250Y013340D02*
X033350Y013340D01*
X033350Y013359D02*
X034250Y013359D01*
X034250Y013377D02*
X033350Y013377D01*
X033350Y013396D02*
X034250Y013396D01*
X034250Y013414D02*
X033350Y013414D01*
X033350Y013433D02*
X034250Y013433D01*
X034250Y013451D02*
X033350Y013451D01*
X033350Y013470D02*
X034250Y013470D01*
X034250Y013488D02*
X033350Y013488D01*
X033350Y013507D02*
X034250Y013507D01*
X034250Y013525D02*
X033350Y013525D01*
X033350Y013544D02*
X034250Y013544D01*
X034250Y013562D02*
X033350Y013562D01*
X033350Y013581D02*
X034250Y013581D01*
X034250Y013599D02*
X033350Y013599D01*
X033250Y013451D02*
X032950Y013451D01*
X032950Y013433D02*
X033250Y013433D01*
X033250Y013414D02*
X032950Y013414D01*
X032950Y013396D02*
X033250Y013396D01*
X033250Y013377D02*
X032950Y013377D01*
X032950Y013359D02*
X033250Y013359D01*
X033250Y013340D02*
X032950Y013340D01*
X032950Y013322D02*
X033250Y013322D01*
X033250Y013303D02*
X032950Y013303D01*
X032950Y013285D02*
X033250Y013285D01*
X033250Y013266D02*
X032950Y013266D01*
X032950Y013248D02*
X033250Y013248D01*
X033250Y013229D02*
X032950Y013229D01*
X032950Y013211D02*
X033250Y013211D01*
X033250Y013192D02*
X032950Y013192D01*
X032950Y013174D02*
X033250Y013174D01*
X033250Y013155D02*
X032950Y013155D01*
X032950Y013137D02*
X033250Y013137D01*
X033250Y013118D02*
X032950Y013118D01*
X032950Y013100D02*
X033250Y013100D01*
X033250Y013081D02*
X032950Y013081D01*
X032943Y013063D02*
X033250Y013063D01*
X033250Y013044D02*
X032934Y013044D01*
X032917Y013026D02*
X033250Y013026D01*
X033250Y013007D02*
X032898Y013007D01*
X032869Y012989D02*
X033250Y012989D01*
X035650Y012750D02*
X037450Y012750D01*
X037450Y009100D01*
X035650Y009100D01*
X035650Y012750D01*
X035650Y012748D02*
X037450Y012748D01*
X037450Y012730D02*
X035650Y012730D01*
X035650Y012711D02*
X037450Y012711D01*
X037450Y012693D02*
X035650Y012693D01*
X035650Y012674D02*
X037450Y012674D01*
X037450Y012656D02*
X035650Y012656D01*
X035650Y012637D02*
X037450Y012637D01*
X037450Y012619D02*
X035650Y012619D01*
X035650Y012600D02*
X037450Y012600D01*
X037450Y012582D02*
X035650Y012582D01*
X035650Y012563D02*
X037450Y012563D01*
X037450Y012545D02*
X035650Y012545D01*
X035650Y012526D02*
X037450Y012526D01*
X037450Y012508D02*
X035650Y012508D01*
X035650Y012489D02*
X037450Y012489D01*
X037450Y012471D02*
X035650Y012471D01*
X035650Y012452D02*
X037450Y012452D01*
X037450Y012434D02*
X035650Y012434D01*
X035650Y012415D02*
X037450Y012415D01*
X037450Y012397D02*
X035650Y012397D01*
X035650Y012378D02*
X037450Y012378D01*
X037450Y012360D02*
X035650Y012360D01*
X035650Y012341D02*
X037450Y012341D01*
X037450Y012323D02*
X035650Y012323D01*
X035650Y012304D02*
X037450Y012304D01*
X037450Y012286D02*
X035650Y012286D01*
X035650Y012267D02*
X037450Y012267D01*
X037450Y012249D02*
X035650Y012249D01*
X035650Y012230D02*
X037450Y012230D01*
X037450Y012212D02*
X035650Y012212D01*
X035650Y012193D02*
X037450Y012193D01*
X037450Y012175D02*
X035650Y012175D01*
X035650Y012156D02*
X037450Y012156D01*
X037450Y012138D02*
X035650Y012138D01*
X035650Y012119D02*
X037450Y012119D01*
X037450Y012101D02*
X035650Y012101D01*
X035650Y012082D02*
X037450Y012082D01*
X037450Y012064D02*
X035650Y012064D01*
X035650Y012045D02*
X037450Y012045D01*
X037450Y012027D02*
X035650Y012027D01*
X035650Y012008D02*
X037450Y012008D01*
X037450Y011990D02*
X035650Y011990D01*
X035650Y011971D02*
X037450Y011971D01*
X037450Y011953D02*
X035650Y011953D01*
X035650Y011934D02*
X037450Y011934D01*
X037450Y011916D02*
X035650Y011916D01*
X035650Y011897D02*
X037450Y011897D01*
X037450Y011879D02*
X035650Y011879D01*
X035650Y011860D02*
X037450Y011860D01*
X037450Y011842D02*
X035650Y011842D01*
X035650Y011823D02*
X037450Y011823D01*
X037450Y011805D02*
X035650Y011805D01*
X035650Y011786D02*
X037450Y011786D01*
X037450Y011768D02*
X035650Y011768D01*
X035650Y011749D02*
X037450Y011749D01*
X037450Y011731D02*
X035650Y011731D01*
X035650Y011712D02*
X037450Y011712D01*
X037450Y011694D02*
X035650Y011694D01*
X035650Y011675D02*
X037450Y011675D01*
X037450Y011657D02*
X035650Y011657D01*
X035650Y011638D02*
X037450Y011638D01*
X037450Y011620D02*
X035650Y011620D01*
X035650Y011601D02*
X037450Y011601D01*
X037450Y011583D02*
X035650Y011583D01*
X035650Y011564D02*
X037450Y011564D01*
X037450Y011546D02*
X035650Y011546D01*
X035650Y011527D02*
X037450Y011527D01*
X037450Y011509D02*
X035650Y011509D01*
X035650Y011490D02*
X037450Y011490D01*
X037450Y011472D02*
X035650Y011472D01*
X035650Y011453D02*
X037450Y011453D01*
X037450Y011435D02*
X035650Y011435D01*
X035650Y011416D02*
X037450Y011416D01*
X037450Y011398D02*
X035650Y011398D01*
X035650Y011379D02*
X037450Y011379D01*
X037450Y011361D02*
X035650Y011361D01*
X035650Y011342D02*
X037450Y011342D01*
X037450Y011324D02*
X035650Y011324D01*
X035650Y011305D02*
X037450Y011305D01*
X037450Y011287D02*
X035650Y011287D01*
X035650Y011268D02*
X037450Y011268D01*
X037450Y011250D02*
X035650Y011250D01*
X035650Y011231D02*
X037450Y011231D01*
X037450Y011213D02*
X035650Y011213D01*
X035650Y011194D02*
X037450Y011194D01*
X037450Y011176D02*
X035650Y011176D01*
X035650Y011157D02*
X037450Y011157D01*
X037450Y011139D02*
X035650Y011139D01*
X035650Y011120D02*
X037450Y011120D01*
X037450Y011102D02*
X035650Y011102D01*
X035650Y011083D02*
X037450Y011083D01*
X037450Y011065D02*
X035650Y011065D01*
X035650Y011046D02*
X037450Y011046D01*
X037450Y011028D02*
X035650Y011028D01*
X035650Y011009D02*
X037450Y011009D01*
X037450Y010991D02*
X035650Y010991D01*
X035650Y010972D02*
X037450Y010972D01*
X037450Y010954D02*
X035650Y010954D01*
X035650Y010935D02*
X037450Y010935D01*
X037450Y010917D02*
X035650Y010917D01*
X035650Y010898D02*
X037450Y010898D01*
X037450Y010880D02*
X035650Y010880D01*
X035650Y010861D02*
X037450Y010861D01*
X037450Y010843D02*
X035650Y010843D01*
X035650Y010824D02*
X037450Y010824D01*
X037450Y010806D02*
X035650Y010806D01*
X035650Y010787D02*
X037450Y010787D01*
X037450Y010769D02*
X035650Y010769D01*
X035650Y010750D02*
X037450Y010750D01*
X037450Y010732D02*
X035650Y010732D01*
X035650Y010713D02*
X037450Y010713D01*
X037450Y010695D02*
X035650Y010695D01*
X035650Y010676D02*
X037450Y010676D01*
X037450Y010658D02*
X035650Y010658D01*
X035650Y010639D02*
X037450Y010639D01*
X037450Y010621D02*
X035650Y010621D01*
X035650Y010602D02*
X037450Y010602D01*
X037450Y010584D02*
X035650Y010584D01*
X035650Y010565D02*
X037450Y010565D01*
X037450Y010547D02*
X035650Y010547D01*
X035650Y010528D02*
X037450Y010528D01*
X037450Y010510D02*
X035650Y010510D01*
X035650Y010491D02*
X037450Y010491D01*
X037450Y010473D02*
X035650Y010473D01*
X035650Y010454D02*
X037450Y010454D01*
X037450Y010436D02*
X035650Y010436D01*
X035650Y010417D02*
X037450Y010417D01*
X037450Y010399D02*
X035650Y010399D01*
X035650Y010380D02*
X037450Y010380D01*
X037450Y010362D02*
X035650Y010362D01*
X035650Y010343D02*
X037450Y010343D01*
X037450Y010325D02*
X035650Y010325D01*
X035650Y010306D02*
X037450Y010306D01*
X037450Y010288D02*
X035650Y010288D01*
X035650Y010269D02*
X037450Y010269D01*
X037450Y010251D02*
X035650Y010251D01*
X035650Y010232D02*
X037450Y010232D01*
X037450Y010214D02*
X035650Y010214D01*
X035650Y010195D02*
X037450Y010195D01*
X037450Y010177D02*
X035650Y010177D01*
X035650Y010158D02*
X037450Y010158D01*
X037450Y010140D02*
X035650Y010140D01*
X035650Y010121D02*
X037450Y010121D01*
X037450Y010103D02*
X035650Y010103D01*
X035650Y010084D02*
X037450Y010084D01*
X037450Y010066D02*
X035650Y010066D01*
X035650Y010047D02*
X037450Y010047D01*
X037450Y010029D02*
X035650Y010029D01*
X035650Y010010D02*
X037450Y010010D01*
X037450Y009992D02*
X035650Y009992D01*
X035650Y009973D02*
X037450Y009973D01*
X037450Y009955D02*
X035650Y009955D01*
X035650Y009936D02*
X037450Y009936D01*
X037450Y009918D02*
X035650Y009918D01*
X035650Y009899D02*
X037450Y009899D01*
X037450Y009881D02*
X035650Y009881D01*
X035650Y009862D02*
X037450Y009862D01*
X037450Y009844D02*
X035650Y009844D01*
X035650Y009825D02*
X037450Y009825D01*
X037450Y009807D02*
X035650Y009807D01*
X035650Y009788D02*
X037450Y009788D01*
X037450Y009770D02*
X035650Y009770D01*
X035650Y009751D02*
X037450Y009751D01*
X037450Y009733D02*
X035650Y009733D01*
X035650Y009714D02*
X037450Y009714D01*
X037450Y009696D02*
X035650Y009696D01*
X035650Y009677D02*
X037450Y009677D01*
X037450Y009659D02*
X035650Y009659D01*
X035650Y009640D02*
X037450Y009640D01*
X037450Y009622D02*
X035650Y009622D01*
X035650Y009603D02*
X037450Y009603D01*
X037450Y009585D02*
X035650Y009585D01*
X035650Y009566D02*
X037450Y009566D01*
X037450Y009548D02*
X035650Y009548D01*
X035650Y009529D02*
X037450Y009529D01*
X037450Y009511D02*
X035650Y009511D01*
X035650Y009492D02*
X037450Y009492D01*
X037450Y009474D02*
X035650Y009474D01*
X035650Y009455D02*
X037450Y009455D01*
X037450Y009437D02*
X035650Y009437D01*
X035650Y009418D02*
X037450Y009418D01*
X037450Y009400D02*
X035650Y009400D01*
X035650Y009381D02*
X037450Y009381D01*
X037450Y009363D02*
X035650Y009363D01*
X035650Y009344D02*
X037450Y009344D01*
X037450Y009326D02*
X035650Y009326D01*
X035650Y009307D02*
X037450Y009307D01*
X037450Y009289D02*
X035650Y009289D01*
X035650Y009270D02*
X037450Y009270D01*
X037450Y009252D02*
X035650Y009252D01*
X035650Y009233D02*
X037450Y009233D01*
X037450Y009215D02*
X035650Y009215D01*
X035650Y009196D02*
X037450Y009196D01*
X037450Y009178D02*
X035650Y009178D01*
X035650Y009159D02*
X037450Y009159D01*
X037450Y009141D02*
X035650Y009141D01*
X035650Y009122D02*
X037450Y009122D01*
X037450Y009104D02*
X035650Y009104D01*
X034250Y009104D02*
X033400Y009104D01*
X033400Y009122D02*
X034250Y009122D01*
X034250Y009141D02*
X033400Y009141D01*
X033400Y009159D02*
X034250Y009159D01*
X034250Y009178D02*
X033400Y009178D01*
X033400Y009196D02*
X034250Y009196D01*
X034250Y009215D02*
X033400Y009215D01*
X033400Y009233D02*
X034250Y009233D01*
X034250Y009085D02*
X033400Y009085D01*
X033400Y009067D02*
X034250Y009067D01*
X034250Y009048D02*
X033400Y009048D01*
X033400Y009030D02*
X034250Y009030D01*
X034250Y009011D02*
X033400Y009011D01*
X033400Y008993D02*
X034250Y008993D01*
X034250Y008974D02*
X033400Y008974D01*
X033400Y008956D02*
X034250Y008956D01*
X034250Y008937D02*
X033400Y008937D01*
X033400Y008919D02*
X034250Y008919D01*
X034250Y008900D02*
X033400Y008900D01*
X033400Y008882D02*
X034250Y008882D01*
X034250Y008863D02*
X033400Y008863D01*
X033400Y008845D02*
X034250Y008845D01*
X034250Y008826D02*
X033400Y008826D01*
X033400Y008808D02*
X034250Y008808D01*
X034250Y008789D02*
X033400Y008789D01*
X033400Y008771D02*
X034250Y008771D01*
X034250Y008752D02*
X033400Y008752D01*
X033400Y008734D02*
X034250Y008734D01*
X034250Y008715D02*
X033400Y008715D01*
X033400Y008697D02*
X034250Y008697D01*
X034250Y008678D02*
X033400Y008678D01*
X033400Y008660D02*
X034250Y008660D01*
X034250Y008641D02*
X033400Y008641D01*
X033400Y008623D02*
X034250Y008623D01*
X034250Y008604D02*
X033400Y008604D01*
X033400Y008586D02*
X034250Y008586D01*
X034250Y008567D02*
X033400Y008567D01*
X033400Y008549D02*
X034250Y008549D01*
X034250Y008530D02*
X033400Y008530D01*
X033400Y008512D02*
X034250Y008512D01*
X034250Y008493D02*
X033400Y008493D01*
X033400Y008475D02*
X034250Y008475D01*
X034250Y008456D02*
X033400Y008456D01*
X033400Y008438D02*
X034250Y008438D01*
X034250Y008419D02*
X033400Y008419D01*
X033400Y008401D02*
X034250Y008401D01*
X034250Y008382D02*
X033400Y008382D01*
X033400Y008364D02*
X034250Y008364D01*
X034250Y008345D02*
X033400Y008345D01*
X033400Y008327D02*
X034250Y008327D01*
X034250Y008308D02*
X033400Y008308D01*
X033400Y008290D02*
X034250Y008290D01*
X034250Y008271D02*
X033400Y008271D01*
X033400Y008253D02*
X034250Y008253D01*
X034250Y008234D02*
X033400Y008234D01*
X033400Y008216D02*
X034250Y008216D01*
X034250Y008197D02*
X033400Y008197D01*
X033400Y008179D02*
X034250Y008179D01*
X034250Y008160D02*
X033400Y008160D01*
X033400Y008142D02*
X034250Y008142D01*
X034250Y008123D02*
X033400Y008123D01*
X033400Y008105D02*
X034250Y008105D01*
X034250Y008086D02*
X033400Y008086D01*
X033400Y008068D02*
X034250Y008068D01*
X034250Y008049D02*
X033400Y008049D01*
X033400Y008031D02*
X034250Y008031D01*
X034250Y008012D02*
X033400Y008012D01*
X033400Y007994D02*
X034250Y007994D01*
X034250Y007975D02*
X033400Y007975D01*
X033400Y007957D02*
X034250Y007957D01*
X034250Y007938D02*
X033400Y007938D01*
X033400Y007920D02*
X034250Y007920D01*
X034250Y007901D02*
X033400Y007901D01*
X033400Y007883D02*
X034250Y007883D01*
X034250Y007864D02*
X033400Y007864D01*
X033400Y007846D02*
X034250Y007846D01*
X034250Y007827D02*
X033400Y007827D01*
X033400Y007809D02*
X034250Y007809D01*
X034250Y007790D02*
X033400Y007790D01*
X033400Y007772D02*
X034250Y007772D01*
X034250Y007753D02*
X033400Y007753D01*
X033350Y013810D02*
X034250Y013810D01*
X034250Y014360D01*
X033350Y014360D01*
X033350Y013810D01*
X033350Y013821D02*
X034250Y013821D01*
X034250Y013840D02*
X033350Y013840D01*
X033350Y013858D02*
X034250Y013858D01*
X034250Y013877D02*
X033350Y013877D01*
X033350Y013895D02*
X034250Y013895D01*
X034250Y013914D02*
X033350Y013914D01*
X033350Y013932D02*
X034250Y013932D01*
X034250Y013951D02*
X033350Y013951D01*
X033350Y013969D02*
X034250Y013969D01*
X034250Y013988D02*
X033350Y013988D01*
X033350Y014006D02*
X034250Y014006D01*
X034250Y014025D02*
X033350Y014025D01*
X033350Y014043D02*
X034250Y014043D01*
X034250Y014062D02*
X033350Y014062D01*
X033350Y014080D02*
X034250Y014080D01*
X034250Y014099D02*
X033350Y014099D01*
X033350Y014117D02*
X034250Y014117D01*
X034250Y014136D02*
X033350Y014136D01*
X033350Y014154D02*
X034250Y014154D01*
X034250Y014173D02*
X033350Y014173D01*
X033350Y014191D02*
X034250Y014191D01*
X034250Y014210D02*
X033350Y014210D01*
X033350Y014228D02*
X034250Y014228D01*
X034250Y014247D02*
X033350Y014247D01*
X033350Y014265D02*
X034250Y014265D01*
X034250Y014284D02*
X033350Y014284D01*
X033350Y014302D02*
X034250Y014302D01*
X034250Y014321D02*
X033350Y014321D01*
X033350Y014339D02*
X034250Y014339D01*
X034250Y014358D02*
X033350Y014358D01*
D35*
X039400Y003700D02*
X039602Y003643D01*
X039805Y003592D01*
X040010Y003545D01*
X040215Y003503D01*
X040421Y003466D01*
X040628Y003433D01*
X040836Y003406D01*
X041044Y003383D01*
X041253Y003365D01*
X041462Y003352D01*
X041672Y003344D01*
X041881Y003341D01*
X042091Y003343D01*
X042300Y003350D01*
X047400Y003350D01*
X047467Y003352D01*
X047534Y003358D01*
X047600Y003367D01*
X047665Y003381D01*
X047730Y003398D01*
X047793Y003419D01*
X047855Y003444D01*
X047916Y003472D01*
X047975Y003504D01*
X048032Y003539D01*
X048087Y003578D01*
X048139Y003619D01*
X048189Y003664D01*
X048236Y003711D01*
X048281Y003761D01*
X048322Y003813D01*
X048361Y003868D01*
X048396Y003925D01*
X048428Y003984D01*
X048456Y004045D01*
X048481Y004107D01*
X048502Y004170D01*
X048519Y004235D01*
X048533Y004300D01*
X048542Y004366D01*
X048548Y004433D01*
X048550Y004500D01*
X039400Y003700D02*
X039296Y003732D01*
X039194Y003768D01*
X039092Y003807D01*
X038992Y003850D01*
X038894Y003897D01*
X038797Y003946D01*
X038703Y003999D01*
X038610Y004056D01*
X038519Y004115D01*
X038430Y004178D01*
X038343Y004244D01*
X038259Y004312D01*
X038177Y004384D01*
X038098Y004458D01*
X038021Y004535D01*
X037947Y004615D01*
X037876Y004697D01*
X037808Y004782D01*
X037743Y004869D01*
X037681Y004958D01*
X037622Y005049D01*
X037566Y005142D01*
X037513Y005238D01*
X037464Y005335D01*
X037418Y005433D01*
X037376Y005533D01*
X037337Y005635D01*
X037302Y005738D01*
X037270Y005842D01*
X037242Y005947D01*
X037218Y006053D01*
X037197Y006159D01*
X037180Y006267D01*
X037167Y006374D01*
X037158Y006483D01*
X037152Y006591D01*
X037150Y006700D01*
X037150Y008240D01*
X037150Y009320D01*
X037150Y009399D01*
X037148Y009417D01*
X037144Y009434D01*
X037136Y009450D01*
X037126Y009464D01*
X037114Y009476D01*
X037100Y009486D01*
X037084Y009494D01*
X037067Y009498D01*
X037049Y009500D01*
D36*
X032726Y014163D02*
X032100Y014163D01*
X032100Y014645D01*
X032099Y014651D01*
X032096Y014656D01*
X032091Y014659D01*
X032085Y014660D01*
X031415Y014660D02*
X031415Y015185D01*
X031414Y015191D01*
X031411Y015196D01*
X031406Y015199D01*
X031400Y015200D01*
X032065Y014163D02*
X032100Y014163D01*
X032075Y014110D01*
X032074Y014110D02*
X032083Y014100D01*
X032090Y014089D01*
X032094Y014076D01*
X032095Y014063D01*
X032093Y014049D01*
X032088Y014037D01*
X032080Y014026D01*
X022383Y016400D02*
X022350Y016533D01*
X015450Y016467D02*
X015383Y016400D01*
X008383Y016400D02*
X008350Y016433D01*
X039400Y003700D02*
X040715Y003250D01*
X040715Y003315D01*
X040715Y003250D02*
X040715Y002050D01*
X041385Y002050D02*
X042005Y002050D01*
X040715Y003315D02*
X040717Y003332D01*
X040721Y003348D01*
X040729Y003362D01*
X040740Y003375D01*
X040753Y003386D01*
X040767Y003394D01*
X040783Y003398D01*
X040800Y003400D01*
D37*
X037215Y007820D02*
X037150Y007820D01*
X037150Y008240D01*
X037150Y008440D02*
X037150Y009320D01*
X037150Y008440D02*
X037215Y008440D01*
X032710Y012780D02*
X032710Y012800D01*
X032085Y012800D01*
X032085Y013360D01*
D38*
X027150Y013190D02*
X027119Y003000D01*
X025150Y003000D02*
X024790Y007600D01*
X022510Y007600D02*
X022087Y003000D01*
X020119Y003000D02*
X020150Y013190D01*
X013150Y013190D02*
X013119Y003000D01*
X011150Y003000D02*
X010790Y007600D01*
X008510Y007600D02*
X008087Y003000D01*
X006119Y003000D02*
X006150Y013190D01*
X003790Y007600D02*
X004150Y003000D01*
X015087Y003000D02*
X015510Y007600D01*
X017790Y007600D02*
X018150Y003000D01*
X029087Y003000D02*
X029510Y007600D01*
D39*
X032550Y007975D02*
X032563Y007973D01*
X032575Y007968D01*
X032585Y007960D01*
X032593Y007950D01*
X032598Y007938D01*
X032600Y007925D01*
X032600Y006800D01*
X032602Y006755D01*
X032608Y006709D01*
X032617Y006665D01*
X032630Y006621D01*
X032646Y006579D01*
X032666Y006538D01*
X032690Y006499D01*
X032716Y006462D01*
X032745Y006427D01*
X032777Y006395D01*
X032812Y006366D01*
X032849Y006340D01*
X032888Y006316D01*
X032929Y006296D01*
X032971Y006280D01*
X033015Y006267D01*
X033059Y006258D01*
X033105Y006252D01*
X033150Y006250D01*
X035000Y006250D01*
X035060Y006248D01*
X035119Y006243D01*
X035178Y006233D01*
X035236Y006220D01*
X035294Y006204D01*
X035350Y006183D01*
X035404Y006160D01*
X035458Y006132D01*
X035509Y006102D01*
X035558Y006069D01*
X035606Y006032D01*
X035650Y005993D01*
X035693Y005950D01*
X035732Y005906D01*
X035769Y005858D01*
X035802Y005809D01*
X035832Y005758D01*
X035860Y005704D01*
X035883Y005650D01*
X035904Y005594D01*
X035920Y005536D01*
X035933Y005478D01*
X035943Y005419D01*
X035948Y005360D01*
X035950Y005300D01*
X035950Y003700D01*
X035952Y003650D01*
X035957Y003600D01*
X035966Y003551D01*
X035978Y003503D01*
X035994Y003455D01*
X036013Y003409D01*
X036036Y003365D01*
X036061Y003322D01*
X036090Y003281D01*
X036121Y003242D01*
X036155Y003205D01*
X036192Y003171D01*
X036231Y003140D01*
X036272Y003111D01*
X036315Y003086D01*
X036359Y003063D01*
X036405Y003044D01*
X036453Y003028D01*
X036501Y003016D01*
X036550Y003007D01*
X036600Y003002D01*
X036650Y003000D01*
D40*
X051650Y002500D03*
X059150Y002500D03*
X059150Y017500D03*
X051650Y017500D03*
X001150Y017500D03*
X001150Y002500D03*
D41*
X036400Y014950D03*
X036400Y015850D03*
X036400Y016750D03*
X036400Y017650D03*
M02*
