%
M48
M72
T01C0.0120
T02C0.0394
T03C0.0400
T04C0.0433
T05C0.0512
T06C0.1260
%
T01
X31950Y8850
X32250Y8850
X32550Y8850
X32850Y8850
X33150Y8850
X35150Y8700
X35150Y8400
X35150Y8100
X35150Y7800
X35250Y7500
X35550Y7500
X35850Y7500
X36150Y7500
X36450Y7500
X36600Y7800
X36600Y8100
X36600Y8400
X36600Y8700
X37760Y8910
X38060Y8910
X38360Y8910
X38300Y8570
X38300Y8270
X38300Y7950
X38300Y7650
X38040Y7430
X37720Y7430
X38650Y9150
X38650Y9450
X38650Y9750
X38650Y10050
X38350Y10100
X38050Y10100
X37750Y10100
X38650Y10350
X38650Y10650
X38650Y10950
X38650Y11250
X38650Y11550
X38350Y11310
X38050Y11310
X37750Y11310
X38650Y11850
X38650Y12150
X38650Y12450
X38350Y12490
X38050Y12490
X37730Y12490
X37250Y12550
X36950Y12550
X36650Y12550
X36350Y12550
X36050Y12550
X33100Y13710
X32800Y13710
X32500Y13710
X31570Y13740
X31270Y13740
X32800Y14610
X33150Y14610
X33500Y14610
X31400Y15200
X27250Y15200
X27250Y15700
X27250Y16000
X26950Y15700
X26450Y17200
X20250Y16000
X20250Y15700
X19950Y15700
X20250Y15200
X19450Y17200
X13250Y16000
X13250Y15700
X12950Y15700
X13250Y15200
X12450Y17200
X6350Y16000
X6250Y15700
X5950Y15700
X6250Y15200
X2450Y15300
X2000Y15300
X1550Y15300
X1100Y15300
X650Y15300
X650Y15700
X650Y16100
X5450Y17200
X31270Y12400
X31590Y12400
X31910Y12380
X32250Y12200
X32250Y11900
X32250Y11600
X32250Y11300
X32250Y11000
X32250Y10700
X31750Y10400
X31450Y10400
X31250Y10600
X31250Y10900
X31250Y11200
X31250Y11500
X31250Y11800
X31250Y12100
X45350Y2000
X45950Y2000
X46550Y2000
X47150Y2000
X47750Y2000
X48350Y2000
X48950Y2000
T02
X53650Y2500
X54650Y2500
X55650Y2500
X56650Y2500
X57650Y2500
X57650Y3500
X56650Y3500
X55650Y3500
X54650Y3500
X53650Y3500
X52650Y3500
X52650Y4500
X53650Y4500
X54650Y4500
X55650Y4500
X56650Y4500
X57650Y4500
X58650Y4500
X59650Y4500
X59650Y5500
X58650Y5500
X57650Y5500
X56650Y5500
X55650Y5500
X54650Y5500
X53650Y5500
X52650Y5500
X51650Y5500
X51650Y4500
X51650Y6500
X52650Y6500
X53650Y6500
X54650Y6500
X55650Y6500
X56650Y6500
X57650Y6500
X58650Y6500
X59650Y6500
X59650Y7500
X58650Y7500
X57650Y7500
X56650Y7500
X55650Y7500
X54650Y7500
X53650Y7500
X52650Y7500
X51650Y7500
X51650Y8500
X52650Y8500
X53650Y8500
X54650Y8500
X55650Y8500
X56650Y8500
X57650Y8500
X58650Y8500
X59650Y8500
X59650Y9500
X58650Y9500
X57650Y9500
X56650Y9500
X55650Y9500
X54650Y9500
X53650Y9500
X52650Y9500
X51650Y9500
X51650Y10500
X52650Y10500
X53650Y10500
X54650Y10500
X55650Y10500
X56650Y10500
X57650Y10500
X58650Y10500
X59650Y10500
X59650Y11500
X58650Y11500
X57650Y11500
X56650Y11500
X55650Y11500
X54650Y11500
X53650Y11500
X52650Y11500
X51650Y11500
X51650Y12500
X52650Y12500
X53650Y12500
X54650Y12500
X55650Y12500
X56650Y12500
X57650Y12500
X58650Y12500
X59650Y12500
X59650Y13500
X58650Y13500
X57650Y13500
X56650Y13500
X55650Y13500
X54650Y13500
X53650Y13500
X52650Y13500
X51650Y13500
X51650Y14500
X52650Y14500
X53650Y14500
X54650Y14500
X55650Y14500
X56650Y14500
X57650Y14500
X58650Y14500
X59650Y14500
X59650Y15500
X58650Y15500
X57650Y15500
X56650Y15500
X55650Y15500
X54650Y15500
X53650Y15500
X52650Y15500
X51650Y15500
X52650Y16500
X53650Y16500
X54650Y16500
X55650Y16500
X56650Y16500
X57650Y16500
X57650Y17500
X56650Y17500
X55650Y17500
X54650Y17500
X53650Y17500
X40450Y15500
X40450Y14500
X40450Y13500
X40450Y12500
X40450Y11500
X40450Y10500
X40450Y9500
X40450Y8500
X40450Y7500
X40450Y6500
X40450Y5500
X40450Y4500
X34734Y4752
X32766Y5933
X32766Y3453
X36400Y14950
X36400Y15850
X36400Y16750
X36400Y17650
T03
X41550Y15500
X42550Y15500
X43550Y15500
X43550Y14500
X42550Y14500
X41550Y14500
X41550Y13500
X42550Y13500
X43550Y13500
X43550Y12500
X42550Y12500
X41550Y12500
X41550Y11500
X42550Y11500
X43550Y11500
X43550Y10500
X42550Y10500
X41550Y10500
X41550Y9500
X42550Y9500
X43550Y9500
X43550Y8500
X42550Y8500
X41550Y8500
X41550Y7500
X42550Y7500
X43550Y7500
X43550Y6500
X42550Y6500
X41550Y6500
X41550Y5500
X42550Y5500
X43550Y5500
X43550Y4500
X42550Y4500
X41550Y4500
X48550Y4500
X49550Y4500
X50550Y4500
X50550Y5500
X49550Y5500
X48550Y5500
X48550Y6500
X49550Y6500
X50550Y6500
X50550Y7500
X49550Y7500
X48550Y7500
X48550Y8500
X49550Y8500
X50550Y8500
X50550Y9500
X49550Y9500
X48550Y9500
X48550Y10500
X49550Y10500
X50550Y10500
X50550Y11500
X49550Y11500
X48550Y11500
X48550Y12500
X49550Y12500
X50550Y12500
X50550Y13500
X49550Y13500
X48550Y13500
X48550Y14500
X49550Y14500
X50550Y14500
X50550Y15500
X49550Y15500
X48550Y15500
T04
X29510Y12400
X27150Y13190
X24790Y12400
X22510Y12400
X20150Y13190
X17790Y12400
X15510Y12400
X13150Y13190
X10790Y12400
X8510Y12400
X6150Y13190
X3790Y12400
X3790Y7600
X8510Y7600
X10790Y7600
X15510Y7600
X17790Y7600
X22510Y7600
X24790Y7600
X29510Y7600
T05
X29087Y3000
X27119Y3000
X25150Y3000
X22087Y3000
X20119Y3000
X18150Y3000
X15087Y3000
X13119Y3000
X11150Y3000
X8087Y3000
X6119Y3000
X4150Y3000
X36650Y3000
X38619Y3000
T06
X1150Y2500
X1150Y17500
X51650Y17500
X59150Y17500
X59150Y2500
X51650Y2500
M30
