G75*
%MOIN*%
%OFA0B0*%
%FSLAX24Y24*%
%IPPOS*%
%LPD*%
%AMOC8*
5,1,8,0,0,1.08239X$1,22.5*
%
%ADD10R,0.0315X0.0315*%
%ADD11R,0.0433X0.0394*%
%ADD12R,0.0394X0.0433*%
%ADD13R,0.0551X0.0394*%
%ADD14R,0.0551X0.0551*%
%ADD15R,0.1000X0.1000*%
%ADD16R,0.0236X0.0354*%
%ADD17R,0.0709X0.2953*%
%ADD18R,0.0630X0.0709*%
D10*
X042005Y002050D03*
X042595Y002050D03*
X025850Y016105D03*
X025850Y016695D03*
X018850Y016695D03*
X018850Y016105D03*
X011850Y016105D03*
X011850Y016695D03*
X004850Y016695D03*
X004850Y016105D03*
D11*
X004915Y015200D03*
X005585Y015200D03*
X011915Y015200D03*
X012585Y015200D03*
X018915Y015200D03*
X019585Y015200D03*
X025915Y015200D03*
X026585Y015200D03*
X031415Y014660D03*
X032085Y014660D03*
X032075Y014110D03*
X031405Y014110D03*
X031415Y013360D03*
X032085Y013360D03*
X032085Y012800D03*
X031415Y012800D03*
X037215Y008440D03*
X037885Y008440D03*
X037885Y007820D03*
X037215Y007820D03*
X040715Y002050D03*
X041385Y002050D03*
D12*
X034000Y013375D03*
X034000Y014045D03*
X027650Y016065D03*
X026450Y016065D03*
X026450Y016735D03*
X027650Y016735D03*
X020650Y016735D03*
X019450Y016735D03*
X019450Y016065D03*
X020650Y016065D03*
X013650Y016065D03*
X012450Y016065D03*
X012450Y016735D03*
X013650Y016735D03*
X006750Y016735D03*
X005450Y016735D03*
X005450Y016065D03*
X006750Y016065D03*
D13*
X007517Y016026D03*
X008383Y016400D03*
X007517Y016774D03*
X014517Y016774D03*
X015383Y016400D03*
X014517Y016026D03*
X021517Y016026D03*
X022383Y016400D03*
X021517Y016774D03*
X028517Y016774D03*
X029383Y016400D03*
X028517Y016026D03*
D14*
X027902Y015200D03*
X029398Y015200D03*
X022398Y015200D03*
X020902Y015200D03*
X015398Y015200D03*
X013902Y015200D03*
X008398Y015200D03*
X006902Y015200D03*
D15*
X032550Y007975D03*
X034025Y008300D03*
X035875Y008300D03*
X032550Y009825D03*
D16*
X032726Y013257D03*
X033100Y013257D03*
X033474Y013257D03*
X033474Y014163D03*
X033100Y014163D03*
X032726Y014163D03*
D17*
X033848Y010700D03*
X036052Y010700D03*
D18*
X037049Y010700D03*
X038151Y010700D03*
X038151Y011900D03*
X037049Y011900D03*
X032851Y011850D03*
X031749Y011850D03*
X031749Y010950D03*
X032851Y010950D03*
X037049Y009500D03*
X038151Y009500D03*
M02*
