G75*
G70*
%OFA0B0*%
%FSLAX24Y24*%
%IPPOS*%
%LPD*%
%AMOC8*
5,1,8,0,0,1.08239X$1,22.5*
%
%ADD10C,0.1340*%
%ADD11OC8,0.0640*%
%ADD12C,0.0820*%
%ADD13C,0.0010*%
D10*
X004833Y004893D03*
X004833Y017393D03*
X026833Y017393D03*
X026833Y004893D03*
D11*
X024083Y006643D03*
X023083Y006643D03*
X023083Y007643D03*
X024083Y007643D03*
X024083Y008643D03*
X023083Y008643D03*
X023083Y009643D03*
X024083Y009643D03*
X024083Y010643D03*
X023083Y010643D03*
X023083Y011643D03*
X024083Y011643D03*
X024083Y012643D03*
X023083Y012643D03*
X023083Y013643D03*
X024083Y013643D03*
X024083Y014643D03*
X023083Y014643D03*
X023083Y015643D03*
X024083Y015643D03*
D12*
X020083Y013143D03*
X020083Y011643D03*
X020083Y010143D03*
X020083Y008643D03*
X017083Y008643D03*
X015333Y008393D03*
X014333Y008393D03*
X013333Y008393D03*
X013333Y007393D03*
X014333Y007393D03*
X015333Y007393D03*
X015333Y006393D03*
X014333Y006393D03*
X013333Y006393D03*
X013333Y005393D03*
X014333Y005393D03*
X015333Y005393D03*
X015333Y009393D03*
X014333Y009393D03*
X013333Y009393D03*
X013333Y010393D03*
X014333Y010393D03*
X015333Y010393D03*
X015333Y011393D03*
X014333Y011393D03*
X013333Y011393D03*
X013333Y012393D03*
X014333Y012393D03*
X015333Y012393D03*
X015333Y013393D03*
X014333Y013393D03*
X013333Y013393D03*
X013333Y014393D03*
X014333Y014393D03*
X015333Y014393D03*
X015333Y015393D03*
X014333Y015393D03*
X013333Y015393D03*
X013333Y016393D03*
X014333Y016393D03*
X015333Y016393D03*
X017083Y013143D03*
X017083Y011643D03*
X017083Y010143D03*
X008333Y010393D03*
X007333Y010393D03*
X007333Y009393D03*
X008333Y009393D03*
X008333Y008393D03*
X007333Y008393D03*
X007333Y007393D03*
X008333Y007393D03*
X008333Y006393D03*
X007333Y006393D03*
X007333Y005393D03*
X008333Y005393D03*
X006333Y005393D03*
X006333Y006393D03*
X006333Y007393D03*
X006333Y008393D03*
X006333Y009393D03*
X006333Y010393D03*
X006333Y011393D03*
X007333Y011393D03*
X008333Y011393D03*
X008333Y012393D03*
X007333Y012393D03*
X006333Y012393D03*
X006333Y013393D03*
X007333Y013393D03*
X008333Y013393D03*
X008333Y014393D03*
X007333Y014393D03*
X006333Y014393D03*
X006333Y015393D03*
X007333Y015393D03*
X008333Y015393D03*
X008333Y016393D03*
X007333Y016393D03*
X006333Y016393D03*
D13*
X010833Y011773D02*
X010933Y011313D01*
X010833Y011253D01*
X010733Y011313D01*
X010833Y011773D01*
X010831Y011766D02*
X010835Y011766D01*
X010836Y011758D02*
X010830Y011758D01*
X010828Y011749D02*
X010838Y011749D01*
X010840Y011741D02*
X010826Y011741D01*
X010824Y011732D02*
X010842Y011732D01*
X010844Y011724D02*
X010822Y011724D01*
X010820Y011715D02*
X010846Y011715D01*
X010847Y011707D02*
X010818Y011707D01*
X010817Y011698D02*
X010849Y011698D01*
X010851Y011690D02*
X010815Y011690D01*
X010813Y011681D02*
X010853Y011681D01*
X010855Y011673D02*
X010811Y011673D01*
X010809Y011664D02*
X010857Y011664D01*
X010859Y011656D02*
X010807Y011656D01*
X010805Y011647D02*
X010860Y011647D01*
X010862Y011639D02*
X010804Y011639D01*
X010802Y011630D02*
X010864Y011630D01*
X010866Y011622D02*
X010800Y011622D01*
X010798Y011613D02*
X010868Y011613D01*
X010870Y011605D02*
X010796Y011605D01*
X010794Y011596D02*
X010871Y011596D01*
X010873Y011588D02*
X010793Y011588D01*
X010791Y011579D02*
X010875Y011579D01*
X010877Y011571D02*
X010789Y011571D01*
X010787Y011562D02*
X010879Y011562D01*
X010881Y011554D02*
X010785Y011554D01*
X010783Y011545D02*
X010883Y011545D01*
X010884Y011537D02*
X010781Y011537D01*
X010780Y011528D02*
X010886Y011528D01*
X010888Y011520D02*
X010778Y011520D01*
X010776Y011511D02*
X010890Y011511D01*
X010892Y011503D02*
X010774Y011503D01*
X010772Y011494D02*
X010894Y011494D01*
X010895Y011486D02*
X010770Y011486D01*
X010769Y011477D02*
X010897Y011477D01*
X010899Y011469D02*
X010767Y011469D01*
X010765Y011460D02*
X010901Y011460D01*
X010903Y011452D02*
X010763Y011452D01*
X010761Y011443D02*
X010905Y011443D01*
X010907Y011435D02*
X010759Y011435D01*
X010757Y011426D02*
X010908Y011426D01*
X010910Y011418D02*
X010756Y011418D01*
X010754Y011409D02*
X010912Y011409D01*
X010914Y011401D02*
X010752Y011401D01*
X010750Y011392D02*
X010916Y011392D01*
X010918Y011384D02*
X010748Y011384D01*
X010746Y011375D02*
X010920Y011375D01*
X010921Y011367D02*
X010745Y011367D01*
X010743Y011358D02*
X010923Y011358D01*
X010925Y011350D02*
X010741Y011350D01*
X010739Y011341D02*
X010927Y011341D01*
X010929Y011333D02*
X010737Y011333D01*
X010735Y011324D02*
X010931Y011324D01*
X010932Y011316D02*
X010733Y011316D01*
X010743Y011307D02*
X010922Y011307D01*
X010908Y011299D02*
X010758Y011299D01*
X010772Y011290D02*
X010894Y011290D01*
X010880Y011282D02*
X010786Y011282D01*
X010800Y011273D02*
X010866Y011273D01*
X010852Y011265D02*
X010814Y011265D01*
X010828Y011256D02*
X010837Y011256D01*
X010896Y011154D02*
X011215Y011154D01*
X011210Y011146D02*
X010883Y011146D01*
X010869Y011137D02*
X011205Y011137D01*
X011199Y011129D02*
X010856Y011129D01*
X010843Y011120D02*
X011194Y011120D01*
X011189Y011112D02*
X010465Y011112D01*
X010459Y011120D02*
X010822Y011120D01*
X010833Y011113D02*
X010223Y011493D01*
X010603Y010893D01*
X010223Y010273D01*
X010833Y010673D01*
X011453Y010263D01*
X011053Y010893D01*
X011433Y011503D01*
X010833Y011113D01*
X010809Y011129D02*
X010454Y011129D01*
X010449Y011137D02*
X010795Y011137D01*
X010781Y011146D02*
X010443Y011146D01*
X010438Y011154D02*
X010768Y011154D01*
X010754Y011163D02*
X010432Y011163D01*
X010427Y011171D02*
X010740Y011171D01*
X010727Y011180D02*
X010422Y011180D01*
X010416Y011188D02*
X010713Y011188D01*
X010699Y011197D02*
X010411Y011197D01*
X010406Y011205D02*
X010686Y011205D01*
X010672Y011214D02*
X010400Y011214D01*
X010395Y011222D02*
X010658Y011222D01*
X010645Y011231D02*
X010389Y011231D01*
X010384Y011239D02*
X010631Y011239D01*
X010617Y011248D02*
X010379Y011248D01*
X010373Y011256D02*
X010604Y011256D01*
X010590Y011265D02*
X010368Y011265D01*
X010362Y011273D02*
X010577Y011273D01*
X010563Y011282D02*
X010357Y011282D01*
X010352Y011290D02*
X010549Y011290D01*
X010536Y011299D02*
X010346Y011299D01*
X010341Y011307D02*
X010522Y011307D01*
X010508Y011316D02*
X010336Y011316D01*
X010330Y011324D02*
X010495Y011324D01*
X010481Y011333D02*
X010325Y011333D01*
X010319Y011341D02*
X010467Y011341D01*
X010454Y011350D02*
X010314Y011350D01*
X010309Y011358D02*
X010440Y011358D01*
X010426Y011367D02*
X010303Y011367D01*
X010298Y011375D02*
X010413Y011375D01*
X010399Y011384D02*
X010292Y011384D01*
X010287Y011392D02*
X010386Y011392D01*
X010372Y011401D02*
X010282Y011401D01*
X010276Y011409D02*
X010358Y011409D01*
X010345Y011418D02*
X010271Y011418D01*
X010266Y011426D02*
X010331Y011426D01*
X010317Y011435D02*
X010260Y011435D01*
X010255Y011443D02*
X010304Y011443D01*
X010290Y011452D02*
X010249Y011452D01*
X010244Y011460D02*
X010276Y011460D01*
X010263Y011469D02*
X010239Y011469D01*
X010233Y011477D02*
X010249Y011477D01*
X010235Y011486D02*
X010228Y011486D01*
X010470Y011103D02*
X011184Y011103D01*
X011178Y011095D02*
X010475Y011095D01*
X010481Y011086D02*
X011173Y011086D01*
X011168Y011078D02*
X010486Y011078D01*
X010492Y011069D02*
X011162Y011069D01*
X011157Y011061D02*
X010497Y011061D01*
X010502Y011052D02*
X011152Y011052D01*
X011147Y011044D02*
X010508Y011044D01*
X010513Y011035D02*
X011141Y011035D01*
X011136Y011027D02*
X010519Y011027D01*
X010524Y011018D02*
X011131Y011018D01*
X011125Y011010D02*
X010529Y011010D01*
X010535Y011001D02*
X011120Y011001D01*
X011115Y010993D02*
X010540Y010993D01*
X010545Y010984D02*
X011109Y010984D01*
X011104Y010976D02*
X010551Y010976D01*
X010556Y010967D02*
X011099Y010967D01*
X011094Y010959D02*
X010562Y010959D01*
X010567Y010950D02*
X011088Y010950D01*
X011083Y010942D02*
X010572Y010942D01*
X010578Y010933D02*
X011078Y010933D01*
X011072Y010925D02*
X010583Y010925D01*
X010589Y010916D02*
X011067Y010916D01*
X011062Y010908D02*
X010594Y010908D01*
X010599Y010899D02*
X011056Y010899D01*
X011055Y010891D02*
X010601Y010891D01*
X010596Y010882D02*
X011060Y010882D01*
X011066Y010874D02*
X010591Y010874D01*
X010586Y010865D02*
X011071Y010865D01*
X011076Y010857D02*
X010580Y010857D01*
X010575Y010848D02*
X011082Y010848D01*
X011087Y010840D02*
X010570Y010840D01*
X010565Y010831D02*
X011092Y010831D01*
X011098Y010823D02*
X010560Y010823D01*
X010554Y010814D02*
X011103Y010814D01*
X011109Y010806D02*
X010549Y010806D01*
X010544Y010797D02*
X011114Y010797D01*
X011119Y010789D02*
X010539Y010789D01*
X010534Y010780D02*
X011125Y010780D01*
X011130Y010772D02*
X010528Y010772D01*
X010523Y010763D02*
X011136Y010763D01*
X011141Y010755D02*
X010518Y010755D01*
X010513Y010746D02*
X011146Y010746D01*
X011152Y010738D02*
X010507Y010738D01*
X010502Y010729D02*
X011157Y010729D01*
X011163Y010721D02*
X010497Y010721D01*
X010492Y010712D02*
X011168Y010712D01*
X011173Y010704D02*
X010487Y010704D01*
X010481Y010695D02*
X011179Y010695D01*
X011184Y010687D02*
X010476Y010687D01*
X010471Y010678D02*
X011190Y010678D01*
X011195Y010670D02*
X010839Y010670D01*
X010827Y010670D02*
X010466Y010670D01*
X010461Y010661D02*
X010814Y010661D01*
X010801Y010653D02*
X010455Y010653D01*
X010450Y010644D02*
X010788Y010644D01*
X010775Y010636D02*
X010445Y010636D01*
X010440Y010627D02*
X010762Y010627D01*
X010749Y010619D02*
X010435Y010619D01*
X010429Y010610D02*
X010736Y010610D01*
X010723Y010602D02*
X010424Y010602D01*
X010419Y010593D02*
X010710Y010593D01*
X010698Y010585D02*
X010414Y010585D01*
X010408Y010576D02*
X010685Y010576D01*
X010672Y010568D02*
X010403Y010568D01*
X010398Y010559D02*
X010659Y010559D01*
X010646Y010551D02*
X010393Y010551D01*
X010388Y010542D02*
X010633Y010542D01*
X010620Y010534D02*
X010382Y010534D01*
X010377Y010525D02*
X010607Y010525D01*
X010594Y010517D02*
X010372Y010517D01*
X010367Y010508D02*
X010581Y010508D01*
X010568Y010500D02*
X010362Y010500D01*
X010356Y010491D02*
X010555Y010491D01*
X010542Y010483D02*
X010351Y010483D01*
X010346Y010474D02*
X010529Y010474D01*
X010516Y010466D02*
X010341Y010466D01*
X010336Y010457D02*
X010503Y010457D01*
X010490Y010449D02*
X010330Y010449D01*
X010325Y010440D02*
X010477Y010440D01*
X010464Y010432D02*
X010320Y010432D01*
X010315Y010423D02*
X010451Y010423D01*
X010438Y010415D02*
X010309Y010415D01*
X010304Y010406D02*
X010425Y010406D01*
X010412Y010398D02*
X010299Y010398D01*
X010294Y010389D02*
X010399Y010389D01*
X010386Y010381D02*
X010289Y010381D01*
X010283Y010372D02*
X010373Y010372D01*
X010360Y010364D02*
X010278Y010364D01*
X010273Y010355D02*
X010348Y010355D01*
X010335Y010347D02*
X010268Y010347D01*
X010263Y010338D02*
X010322Y010338D01*
X010309Y010330D02*
X010257Y010330D01*
X010252Y010321D02*
X010296Y010321D01*
X010283Y010313D02*
X010247Y010313D01*
X010242Y010304D02*
X010270Y010304D01*
X010257Y010296D02*
X010237Y010296D01*
X010231Y010287D02*
X010244Y010287D01*
X010231Y010279D02*
X010226Y010279D01*
X010746Y010398D02*
X010920Y010398D01*
X010922Y010406D02*
X010744Y010406D01*
X010742Y010415D02*
X010924Y010415D01*
X010926Y010423D02*
X010740Y010423D01*
X010738Y010432D02*
X010928Y010432D01*
X010930Y010440D02*
X010736Y010440D01*
X010734Y010449D02*
X010932Y010449D01*
X010933Y010453D02*
X010833Y010523D01*
X010733Y010453D01*
X010833Y010013D01*
X010933Y010453D01*
X010928Y010457D02*
X010738Y010457D01*
X010750Y010466D02*
X010916Y010466D01*
X010903Y010474D02*
X010763Y010474D01*
X010775Y010483D02*
X010891Y010483D01*
X010879Y010491D02*
X010787Y010491D01*
X010799Y010500D02*
X010867Y010500D01*
X010855Y010508D02*
X010811Y010508D01*
X010823Y010517D02*
X010843Y010517D01*
X010916Y010619D02*
X011227Y010619D01*
X011222Y010627D02*
X010903Y010627D01*
X010890Y010636D02*
X011217Y010636D01*
X011211Y010644D02*
X010877Y010644D01*
X010864Y010653D02*
X011206Y010653D01*
X011200Y010661D02*
X010852Y010661D01*
X010929Y010610D02*
X011233Y010610D01*
X011238Y010602D02*
X010942Y010602D01*
X010954Y010593D02*
X011244Y010593D01*
X011249Y010585D02*
X010967Y010585D01*
X010980Y010576D02*
X011254Y010576D01*
X011260Y010568D02*
X010993Y010568D01*
X011006Y010559D02*
X011265Y010559D01*
X011271Y010551D02*
X011019Y010551D01*
X011031Y010542D02*
X011276Y010542D01*
X011281Y010534D02*
X011044Y010534D01*
X011057Y010525D02*
X011287Y010525D01*
X011292Y010517D02*
X011070Y010517D01*
X011083Y010508D02*
X011298Y010508D01*
X011303Y010500D02*
X011096Y010500D01*
X011109Y010491D02*
X011308Y010491D01*
X011314Y010483D02*
X011121Y010483D01*
X011134Y010474D02*
X011319Y010474D01*
X011325Y010466D02*
X011147Y010466D01*
X011160Y010457D02*
X011330Y010457D01*
X011335Y010449D02*
X011173Y010449D01*
X011186Y010440D02*
X011341Y010440D01*
X011346Y010432D02*
X011199Y010432D01*
X011211Y010423D02*
X011352Y010423D01*
X011357Y010415D02*
X011224Y010415D01*
X011237Y010406D02*
X011362Y010406D01*
X011368Y010398D02*
X011250Y010398D01*
X011263Y010389D02*
X011373Y010389D01*
X011379Y010381D02*
X011276Y010381D01*
X011289Y010372D02*
X011384Y010372D01*
X011389Y010364D02*
X011301Y010364D01*
X011314Y010355D02*
X011395Y010355D01*
X011400Y010347D02*
X011327Y010347D01*
X011340Y010338D02*
X011406Y010338D01*
X011411Y010330D02*
X011353Y010330D01*
X011366Y010321D02*
X011416Y010321D01*
X011422Y010313D02*
X011379Y010313D01*
X011391Y010304D02*
X011427Y010304D01*
X011432Y010296D02*
X011404Y010296D01*
X011417Y010287D02*
X011438Y010287D01*
X011443Y010279D02*
X011430Y010279D01*
X011443Y010270D02*
X011449Y010270D01*
X010918Y010389D02*
X010748Y010389D01*
X010749Y010381D02*
X010916Y010381D01*
X010914Y010372D02*
X010751Y010372D01*
X010753Y010364D02*
X010913Y010364D01*
X010911Y010355D02*
X010755Y010355D01*
X010757Y010347D02*
X010909Y010347D01*
X010907Y010338D02*
X010759Y010338D01*
X010761Y010330D02*
X010905Y010330D01*
X010903Y010321D02*
X010763Y010321D01*
X010765Y010313D02*
X010901Y010313D01*
X010899Y010304D02*
X010767Y010304D01*
X010769Y010296D02*
X010897Y010296D01*
X010895Y010287D02*
X010771Y010287D01*
X010773Y010279D02*
X010893Y010279D01*
X010891Y010270D02*
X010775Y010270D01*
X010777Y010262D02*
X010889Y010262D01*
X010887Y010253D02*
X010778Y010253D01*
X010780Y010245D02*
X010885Y010245D01*
X010884Y010236D02*
X010782Y010236D01*
X010784Y010228D02*
X010882Y010228D01*
X010880Y010219D02*
X010786Y010219D01*
X010788Y010211D02*
X010878Y010211D01*
X010876Y010202D02*
X010790Y010202D01*
X010792Y010194D02*
X010874Y010194D01*
X010872Y010185D02*
X010794Y010185D01*
X010796Y010177D02*
X010870Y010177D01*
X010868Y010168D02*
X010798Y010168D01*
X010800Y010160D02*
X010866Y010160D01*
X010864Y010151D02*
X010802Y010151D01*
X010804Y010143D02*
X010862Y010143D01*
X010860Y010134D02*
X010806Y010134D01*
X010807Y010126D02*
X010858Y010126D01*
X010857Y010117D02*
X010809Y010117D01*
X010811Y010109D02*
X010855Y010109D01*
X010853Y010100D02*
X010813Y010100D01*
X010815Y010092D02*
X010851Y010092D01*
X010849Y010083D02*
X010817Y010083D01*
X010819Y010075D02*
X010847Y010075D01*
X010845Y010066D02*
X010821Y010066D01*
X010823Y010058D02*
X010843Y010058D01*
X010841Y010049D02*
X010825Y010049D01*
X010827Y010040D02*
X010839Y010040D01*
X010837Y010032D02*
X010829Y010032D01*
X010831Y010023D02*
X010835Y010023D01*
X010833Y010015D02*
X010833Y010015D01*
X011253Y010803D02*
X011693Y010893D01*
X011253Y010983D01*
X011193Y010893D01*
X011253Y010803D01*
X011251Y010806D02*
X011264Y010806D01*
X011246Y010814D02*
X011305Y010814D01*
X011347Y010823D02*
X011240Y010823D01*
X011234Y010831D02*
X011388Y010831D01*
X011430Y010840D02*
X011229Y010840D01*
X011223Y010848D02*
X011472Y010848D01*
X011513Y010857D02*
X011217Y010857D01*
X011212Y010865D02*
X011555Y010865D01*
X011596Y010874D02*
X011206Y010874D01*
X011200Y010882D02*
X011638Y010882D01*
X011623Y010908D02*
X011202Y010908D01*
X011208Y010916D02*
X011582Y010916D01*
X011540Y010925D02*
X011214Y010925D01*
X011219Y010933D02*
X011499Y010933D01*
X011457Y010942D02*
X011225Y010942D01*
X011231Y010950D02*
X011416Y010950D01*
X011374Y010959D02*
X011236Y010959D01*
X011242Y010967D02*
X011333Y010967D01*
X011291Y010976D02*
X011248Y010976D01*
X011197Y010899D02*
X011665Y010899D01*
X011679Y010891D02*
X011195Y010891D01*
X011221Y011163D02*
X010909Y011163D01*
X010922Y011171D02*
X011226Y011171D01*
X011231Y011180D02*
X010935Y011180D01*
X010948Y011188D02*
X011237Y011188D01*
X011242Y011197D02*
X010961Y011197D01*
X010974Y011205D02*
X011247Y011205D01*
X011252Y011214D02*
X010987Y011214D01*
X011000Y011222D02*
X011258Y011222D01*
X011263Y011231D02*
X011013Y011231D01*
X011026Y011239D02*
X011268Y011239D01*
X011274Y011248D02*
X011039Y011248D01*
X011053Y011256D02*
X011279Y011256D01*
X011284Y011265D02*
X011066Y011265D01*
X011079Y011273D02*
X011289Y011273D01*
X011295Y011282D02*
X011092Y011282D01*
X011105Y011290D02*
X011300Y011290D01*
X011305Y011299D02*
X011118Y011299D01*
X011131Y011307D02*
X011311Y011307D01*
X011316Y011316D02*
X011144Y011316D01*
X011157Y011324D02*
X011321Y011324D01*
X011327Y011333D02*
X011170Y011333D01*
X011183Y011341D02*
X011332Y011341D01*
X011337Y011350D02*
X011196Y011350D01*
X011209Y011358D02*
X011342Y011358D01*
X011348Y011367D02*
X011223Y011367D01*
X011236Y011375D02*
X011353Y011375D01*
X011358Y011384D02*
X011249Y011384D01*
X011262Y011392D02*
X011364Y011392D01*
X011369Y011401D02*
X011275Y011401D01*
X011288Y011409D02*
X011374Y011409D01*
X011380Y011418D02*
X011301Y011418D01*
X011314Y011426D02*
X011385Y011426D01*
X011390Y011435D02*
X011327Y011435D01*
X011340Y011443D02*
X011395Y011443D01*
X011401Y011452D02*
X011353Y011452D01*
X011366Y011460D02*
X011406Y011460D01*
X011411Y011469D02*
X011379Y011469D01*
X011393Y011477D02*
X011417Y011477D01*
X011422Y011486D02*
X011406Y011486D01*
X011419Y011494D02*
X011427Y011494D01*
X011432Y011503D02*
X011432Y011503D01*
X010473Y010893D02*
X010413Y010983D01*
X009953Y010893D01*
X010413Y010803D01*
X010473Y010893D01*
X010471Y010891D02*
X009967Y010891D01*
X009982Y010899D02*
X010469Y010899D01*
X010463Y010908D02*
X010026Y010908D01*
X010011Y010882D02*
X010465Y010882D01*
X010460Y010874D02*
X010054Y010874D01*
X010098Y010865D02*
X010454Y010865D01*
X010448Y010857D02*
X010141Y010857D01*
X010184Y010848D02*
X010443Y010848D01*
X010437Y010840D02*
X010228Y010840D01*
X010271Y010831D02*
X010431Y010831D01*
X010426Y010823D02*
X010315Y010823D01*
X010358Y010814D02*
X010420Y010814D01*
X010414Y010806D02*
X010402Y010806D01*
X010458Y010916D02*
X010069Y010916D01*
X010112Y010925D02*
X010452Y010925D01*
X010446Y010933D02*
X010156Y010933D01*
X010199Y010942D02*
X010441Y010942D01*
X010435Y010950D02*
X010243Y010950D01*
X010286Y010959D02*
X010429Y010959D01*
X010424Y010967D02*
X010330Y010967D01*
X010373Y010976D02*
X010418Y010976D01*
M02*
