G75*
G70*
%OFA0B0*%
%FSLAX24Y24*%
%IPPOS*%
%LPD*%
%AMOC8*
5,1,8,0,0,1.08239X$1,22.5*
%
%ADD10C,0.1340*%
%ADD11OC8,0.0640*%
%ADD12C,0.0820*%
D10*
X004833Y004893D03*
X004833Y017393D03*
X026833Y017393D03*
X026833Y004893D03*
D11*
X024083Y006643D03*
X023083Y006643D03*
X023083Y007643D03*
X024083Y007643D03*
X024083Y008643D03*
X023083Y008643D03*
X023083Y009643D03*
X024083Y009643D03*
X024083Y010643D03*
X023083Y010643D03*
X023083Y011643D03*
X024083Y011643D03*
X024083Y012643D03*
X023083Y012643D03*
X023083Y013643D03*
X024083Y013643D03*
X024083Y014643D03*
X023083Y014643D03*
X023083Y015643D03*
X024083Y015643D03*
D12*
X020083Y013143D03*
X020083Y011643D03*
X020083Y010143D03*
X020083Y008643D03*
X017083Y008643D03*
X015333Y008393D03*
X014333Y008393D03*
X013333Y008393D03*
X013333Y007393D03*
X014333Y007393D03*
X015333Y007393D03*
X015333Y006393D03*
X014333Y006393D03*
X013333Y006393D03*
X013333Y005393D03*
X014333Y005393D03*
X015333Y005393D03*
X015333Y009393D03*
X014333Y009393D03*
X013333Y009393D03*
X013333Y010393D03*
X014333Y010393D03*
X015333Y010393D03*
X015333Y011393D03*
X014333Y011393D03*
X013333Y011393D03*
X013333Y012393D03*
X014333Y012393D03*
X015333Y012393D03*
X015333Y013393D03*
X014333Y013393D03*
X013333Y013393D03*
X013333Y014393D03*
X014333Y014393D03*
X015333Y014393D03*
X015333Y015393D03*
X014333Y015393D03*
X013333Y015393D03*
X013333Y016393D03*
X014333Y016393D03*
X015333Y016393D03*
X017083Y013143D03*
X017083Y011643D03*
X017083Y010143D03*
X008333Y010393D03*
X007333Y010393D03*
X007333Y009393D03*
X008333Y009393D03*
X008333Y008393D03*
X007333Y008393D03*
X007333Y007393D03*
X008333Y007393D03*
X008333Y006393D03*
X007333Y006393D03*
X007333Y005393D03*
X008333Y005393D03*
X006333Y005393D03*
X006333Y006393D03*
X006333Y007393D03*
X006333Y008393D03*
X006333Y009393D03*
X006333Y010393D03*
X006333Y011393D03*
X007333Y011393D03*
X008333Y011393D03*
X008333Y012393D03*
X007333Y012393D03*
X006333Y012393D03*
X006333Y013393D03*
X007333Y013393D03*
X008333Y013393D03*
X008333Y014393D03*
X007333Y014393D03*
X006333Y014393D03*
X006333Y015393D03*
X007333Y015393D03*
X008333Y015393D03*
X008333Y016393D03*
X007333Y016393D03*
X006333Y016393D03*
M02*
