%
M48
M72
T01C0.0354
T02C0.0360
T03C0.0400
T04C0.1260
%
T01
X13930Y5430
X13930Y6930
X13930Y8430
X13930Y9930
X16930Y9930
X16930Y8430
X16930Y6930
X16930Y5430
T02
X19930Y5430
X20930Y5430
X20930Y6430
X19930Y6430
X19930Y7430
X20930Y7430
X20930Y8430
X19930Y8430
X19930Y9430
X20930Y9430
X20930Y10430
X19930Y10430
X19930Y11430
X20930Y11430
X20930Y12430
X19930Y12430
X19930Y4430
X20930Y4430
X20930Y3430
X19930Y3430
T03
X11680Y3180
X10680Y3180
X10680Y4180
X11680Y4180
X11680Y5180
X10680Y5180
X10680Y6180
X11680Y6180
X11680Y7180
X10680Y7180
X10680Y8180
X11680Y8180
X11680Y9180
X10680Y9180
X10680Y10180
X11680Y10180
X11680Y11180
X10680Y11180
X10680Y12180
X11680Y12180
X11680Y13180
X10680Y13180
X4680Y13180
X3680Y13180
X3680Y12180
X4680Y12180
X4680Y11180
X3680Y11180
X3680Y10180
X4680Y10180
X4680Y9180
X3680Y9180
X3680Y8180
X4680Y8180
X4680Y7180
X3680Y7180
X3680Y6180
X4680Y6180
X4680Y5180
X3680Y5180
X3680Y4180
X4680Y4180
X4680Y3180
X3680Y3180
X3680Y2180
X4680Y2180
X10680Y2180
X11680Y2180
T04
X1680Y1680
X1680Y14180
X23680Y14180
X23680Y1680
M30
