G75*
G70*
%OFA0B0*%
%FSLAX24Y24*%
%IPPOS*%
%LPD*%
%AMOC8*
5,1,8,0,0,1.08239X$1,22.5*
%
%ADD10OC8,0.0560*%
%ADD11C,0.0740*%
%ADD12C,0.0320*%
%ADD13C,0.0160*%
D10*
X019930Y003430D03*
X020930Y003430D03*
X020930Y004430D03*
X019930Y004430D03*
X019930Y005430D03*
X020930Y005430D03*
X020930Y006430D03*
X019930Y006430D03*
X019930Y007430D03*
X020930Y007430D03*
X020930Y008430D03*
X019930Y008430D03*
X019930Y009430D03*
X020930Y009430D03*
X020930Y010430D03*
X019930Y010430D03*
X019930Y011430D03*
X020930Y011430D03*
X020930Y012430D03*
X019930Y012430D03*
D11*
X003680Y002180D03*
X004680Y002180D03*
X004680Y003180D03*
X003680Y003180D03*
X003680Y004180D03*
X004680Y004180D03*
X004680Y005180D03*
X003680Y005180D03*
X003680Y006180D03*
X004680Y006180D03*
X004680Y007180D03*
X003680Y007180D03*
X003680Y008180D03*
X004680Y008180D03*
X004680Y009180D03*
X003680Y009180D03*
X003680Y010180D03*
X004680Y010180D03*
X004680Y011180D03*
X003680Y011180D03*
X003680Y012180D03*
X004680Y012180D03*
X004680Y013180D03*
X003680Y013180D03*
X010680Y013180D03*
X011680Y013180D03*
X011680Y012180D03*
X010680Y012180D03*
X010680Y011180D03*
X011680Y011180D03*
X011680Y010180D03*
X010680Y010180D03*
X010680Y009180D03*
X011680Y009180D03*
X011680Y008180D03*
X010680Y008180D03*
X010680Y007180D03*
X011680Y007180D03*
X011680Y006180D03*
X010680Y006180D03*
X010680Y005180D03*
X011680Y005180D03*
X011680Y004180D03*
X010680Y004180D03*
X010680Y003180D03*
X011680Y003180D03*
X011680Y002180D03*
X010680Y002180D03*
X013930Y005430D03*
X013930Y006930D03*
X013930Y008430D03*
X013930Y009930D03*
X016930Y009930D03*
X016930Y008430D03*
X016930Y006930D03*
X016930Y005430D03*
D12*
X017430Y003430D02*
X013930Y006930D01*
X017430Y003430D02*
X019930Y003430D01*
X020930Y003430D01*
D13*
X020619Y003770D02*
X020241Y003770D01*
X020121Y003890D01*
X019739Y003890D01*
X019619Y003770D01*
X017571Y003770D01*
X014480Y006861D01*
X014480Y007039D01*
X014396Y007242D01*
X014268Y007370D01*
X016592Y007370D01*
X016464Y007242D01*
X016380Y007039D01*
X016380Y006821D01*
X016464Y006618D01*
X016618Y006464D01*
X016821Y006380D01*
X017039Y006380D01*
X017242Y006464D01*
X017396Y006618D01*
X017480Y006821D01*
X017480Y007039D01*
X017396Y007242D01*
X017268Y007370D01*
X017472Y007370D01*
X019060Y005783D01*
X019133Y005710D01*
X019228Y005670D01*
X019519Y005670D01*
X019470Y005621D01*
X019470Y005440D01*
X019920Y005440D01*
X019920Y005420D01*
X019940Y005420D01*
X019940Y005440D01*
X020390Y005440D01*
X020390Y005602D01*
X020470Y005522D01*
X020470Y005239D01*
X020739Y004970D01*
X021121Y004970D01*
X021390Y005239D01*
X021390Y005621D01*
X021121Y005890D01*
X020838Y005890D01*
X020758Y005970D01*
X021121Y005970D01*
X021390Y006239D01*
X021390Y006522D01*
X022100Y007233D01*
X022140Y007328D01*
X022140Y007432D01*
X022140Y009632D01*
X022100Y009727D01*
X022027Y009800D01*
X021677Y010150D01*
X021582Y010190D01*
X021341Y010190D01*
X021390Y010239D01*
X021390Y010621D01*
X021121Y010890D01*
X020838Y010890D01*
X020758Y010970D01*
X021121Y010970D01*
X021390Y011239D01*
X021390Y011621D01*
X021121Y011890D01*
X020739Y011890D01*
X020470Y011621D01*
X020470Y011239D01*
X020546Y011163D01*
X020482Y011190D01*
X020341Y011190D01*
X020390Y011239D01*
X020390Y011420D01*
X019940Y011420D01*
X019940Y011440D01*
X019920Y011440D01*
X019920Y011890D01*
X019739Y011890D01*
X019470Y011621D01*
X019470Y011440D01*
X019920Y011440D01*
X019920Y011420D01*
X019470Y011420D01*
X019470Y011239D01*
X019519Y011190D01*
X019438Y011190D01*
X018227Y012400D01*
X018132Y012440D01*
X012168Y012440D01*
X012146Y012492D01*
X011992Y012646D01*
X011910Y012680D01*
X011992Y012714D01*
X012146Y012868D01*
X012230Y013071D01*
X012230Y013289D01*
X012146Y013492D01*
X011992Y013646D01*
X011789Y013730D01*
X011571Y013730D01*
X011368Y013646D01*
X011214Y013492D01*
X011180Y013410D01*
X011146Y013492D01*
X010992Y013646D01*
X010789Y013730D01*
X010571Y013730D01*
X010368Y013646D01*
X010214Y013492D01*
X010130Y013289D01*
X010130Y013071D01*
X010214Y012868D01*
X010368Y012714D01*
X010450Y012680D01*
X010368Y012646D01*
X010214Y012492D01*
X010130Y012289D01*
X010130Y012071D01*
X010214Y011868D01*
X010368Y011714D01*
X010450Y011680D01*
X010368Y011646D01*
X010214Y011492D01*
X010130Y011289D01*
X010130Y011071D01*
X010214Y010868D01*
X010368Y010714D01*
X010450Y010680D01*
X010392Y010650D01*
X010322Y010600D01*
X010260Y010538D01*
X010210Y010468D01*
X010170Y010391D01*
X010144Y010309D01*
X010130Y010223D01*
X010130Y010200D01*
X010660Y010200D01*
X010660Y010630D01*
X010700Y010630D01*
X010700Y010200D01*
X011660Y010200D01*
X011660Y010630D01*
X011700Y010630D01*
X011700Y010200D01*
X011660Y010200D01*
X011660Y010160D01*
X011700Y010160D01*
X011700Y010200D01*
X012230Y010200D01*
X012230Y010223D01*
X012216Y010309D01*
X012190Y010391D01*
X012150Y010468D01*
X012100Y010538D01*
X012038Y010600D01*
X011968Y010650D01*
X011910Y010680D01*
X011992Y010714D01*
X012146Y010868D01*
X012230Y011071D01*
X012230Y011289D01*
X012146Y011492D01*
X011992Y011646D01*
X011910Y011680D01*
X011992Y011714D01*
X012146Y011868D01*
X012168Y011920D01*
X017972Y011920D01*
X019110Y010783D01*
X019183Y010710D01*
X019278Y010670D01*
X019519Y010670D01*
X019470Y010621D01*
X019470Y010440D01*
X019920Y010440D01*
X019920Y010420D01*
X019470Y010420D01*
X019470Y010239D01*
X019519Y010190D01*
X019088Y010190D01*
X018177Y011100D01*
X018082Y011140D01*
X013278Y011140D01*
X013183Y011100D01*
X013110Y011027D01*
X012510Y010427D01*
X012470Y010332D01*
X012470Y009938D01*
X012085Y009553D01*
X011992Y009646D01*
X011910Y009680D01*
X011968Y009710D01*
X012038Y009760D01*
X012100Y009822D01*
X012150Y009892D01*
X012190Y009969D01*
X012216Y010051D01*
X012230Y010137D01*
X012230Y010160D01*
X011700Y010160D01*
X011700Y009730D01*
X011660Y009730D01*
X011660Y010160D01*
X011130Y010160D01*
X010700Y010160D01*
X010700Y010200D01*
X010660Y010200D01*
X010660Y010160D01*
X010700Y010160D01*
X010700Y009730D01*
X010660Y009730D01*
X010660Y010160D01*
X010130Y010160D01*
X010130Y010137D01*
X010144Y010051D01*
X010170Y009969D01*
X010210Y009892D01*
X010260Y009822D01*
X010322Y009760D01*
X010392Y009710D01*
X010450Y009680D01*
X010368Y009646D01*
X010214Y009492D01*
X010130Y009289D01*
X010130Y009071D01*
X010214Y008868D01*
X010368Y008714D01*
X010450Y008680D01*
X010368Y008646D01*
X010214Y008492D01*
X010130Y008289D01*
X010130Y008071D01*
X010214Y007868D01*
X010368Y007714D01*
X010450Y007680D01*
X010368Y007646D01*
X010214Y007492D01*
X010130Y007289D01*
X010130Y007071D01*
X010214Y006868D01*
X010368Y006714D01*
X010450Y006680D01*
X010368Y006646D01*
X010214Y006492D01*
X010130Y006289D01*
X010130Y006071D01*
X010214Y005868D01*
X010368Y005714D01*
X010450Y005680D01*
X010368Y005646D01*
X010214Y005492D01*
X010130Y005289D01*
X010130Y005071D01*
X010214Y004868D01*
X010368Y004714D01*
X010450Y004680D01*
X004910Y004680D01*
X004992Y004714D01*
X005146Y004868D01*
X005230Y005071D01*
X005230Y005289D01*
X005146Y005492D01*
X004992Y005646D01*
X004910Y005680D01*
X004992Y005714D01*
X005146Y005868D01*
X005230Y006071D01*
X005230Y006289D01*
X005146Y006492D01*
X004992Y006646D01*
X004910Y006680D01*
X004992Y006714D01*
X005146Y006868D01*
X005230Y007071D01*
X005230Y007289D01*
X005146Y007492D01*
X004992Y007646D01*
X004910Y007680D01*
X004992Y007714D01*
X005146Y007868D01*
X005230Y008071D01*
X005230Y008289D01*
X005146Y008492D01*
X004992Y008646D01*
X004910Y008680D01*
X004992Y008714D01*
X005146Y008868D01*
X005230Y009071D01*
X005230Y009289D01*
X005146Y009492D01*
X004992Y009646D01*
X004910Y009680D01*
X004992Y009714D01*
X005146Y009868D01*
X005230Y010071D01*
X005230Y010289D01*
X005146Y010492D01*
X004992Y010646D01*
X004910Y010680D01*
X004992Y010714D01*
X005146Y010868D01*
X005230Y011071D01*
X005230Y011289D01*
X005146Y011492D01*
X004992Y011646D01*
X004910Y011680D01*
X004968Y011710D01*
X005038Y011760D01*
X005100Y011822D01*
X005150Y011892D01*
X005190Y011969D01*
X005216Y012051D01*
X005230Y012137D01*
X005230Y012160D01*
X004700Y012160D01*
X004700Y012200D01*
X004660Y012200D01*
X004660Y012630D01*
X004700Y012630D01*
X004700Y012200D01*
X005230Y012200D01*
X005230Y012223D01*
X005216Y012309D01*
X005190Y012391D01*
X005150Y012468D01*
X005100Y012538D01*
X005038Y012600D01*
X004968Y012650D01*
X004910Y012680D01*
X004992Y012714D01*
X005146Y012868D01*
X005230Y013071D01*
X005230Y013289D01*
X005146Y013492D01*
X004992Y013646D01*
X004789Y013730D01*
X004571Y013730D01*
X004368Y013646D01*
X004214Y013492D01*
X004180Y013410D01*
X004146Y013492D01*
X003992Y013646D01*
X003789Y013730D01*
X003571Y013730D01*
X003368Y013646D01*
X003214Y013492D01*
X003130Y013289D01*
X003130Y013071D01*
X003214Y012868D01*
X003368Y012714D01*
X003450Y012680D01*
X003392Y012650D01*
X003322Y012600D01*
X003260Y012538D01*
X003210Y012468D01*
X003170Y012391D01*
X003144Y012309D01*
X003130Y012223D01*
X003130Y012200D01*
X003660Y012200D01*
X003660Y012630D01*
X003700Y012630D01*
X003700Y012200D01*
X004660Y012200D01*
X004660Y012160D01*
X004660Y011730D01*
X004700Y011730D01*
X004700Y012160D01*
X004660Y012160D01*
X004230Y012160D01*
X003700Y012160D01*
X003700Y012200D01*
X003660Y012200D01*
X003660Y012160D01*
X003130Y012160D01*
X003130Y012137D01*
X003144Y012051D01*
X003170Y011969D01*
X003210Y011892D01*
X003260Y011822D01*
X003322Y011760D01*
X003392Y011710D01*
X003450Y011680D01*
X003368Y011646D01*
X003214Y011492D01*
X003130Y011289D01*
X003130Y011071D01*
X003214Y010868D01*
X003368Y010714D01*
X003450Y010680D01*
X003368Y010646D01*
X003214Y010492D01*
X003130Y010289D01*
X003130Y010071D01*
X003214Y009868D01*
X003368Y009714D01*
X003450Y009680D01*
X003368Y009646D01*
X003214Y009492D01*
X003130Y009289D01*
X003130Y009071D01*
X003214Y008868D01*
X003368Y008714D01*
X003450Y008680D01*
X003368Y008646D01*
X003214Y008492D01*
X003130Y008289D01*
X003130Y008071D01*
X003214Y007868D01*
X003368Y007714D01*
X003450Y007680D01*
X003368Y007646D01*
X003214Y007492D01*
X003130Y007289D01*
X003130Y007071D01*
X003214Y006868D01*
X003368Y006714D01*
X003450Y006680D01*
X003368Y006646D01*
X003214Y006492D01*
X003130Y006289D01*
X003130Y006071D01*
X003214Y005868D01*
X003368Y005714D01*
X003450Y005680D01*
X003368Y005646D01*
X003214Y005492D01*
X003130Y005289D01*
X003130Y005071D01*
X003214Y004868D01*
X003368Y004714D01*
X003450Y004680D01*
X003450Y004680D01*
X000660Y004680D01*
X000660Y013727D01*
X000792Y013498D01*
X000998Y013292D01*
X001252Y013146D01*
X001534Y013070D01*
X001826Y013070D01*
X002108Y013146D01*
X002362Y013292D01*
X002568Y013498D01*
X002714Y013752D01*
X002790Y014034D01*
X002790Y014326D01*
X002714Y014608D01*
X002568Y014862D01*
X002362Y015068D01*
X002133Y015200D01*
X023227Y015200D01*
X022998Y015068D01*
X022792Y014862D01*
X022646Y014608D01*
X022570Y014326D01*
X022570Y014034D01*
X022646Y013752D01*
X022792Y013498D01*
X022998Y013292D01*
X023252Y013146D01*
X023534Y013070D01*
X023826Y013070D01*
X024108Y013146D01*
X024362Y013292D01*
X024568Y013498D01*
X024700Y013727D01*
X024700Y002133D01*
X024568Y002362D01*
X024362Y002568D01*
X024108Y002714D01*
X023826Y002790D01*
X023534Y002790D01*
X023252Y002714D01*
X022998Y002568D01*
X022792Y002362D01*
X022646Y002108D01*
X022570Y001826D01*
X022570Y001534D01*
X022646Y001252D01*
X022792Y000998D01*
X022998Y000792D01*
X023227Y000660D01*
X011180Y000660D01*
X011180Y001950D01*
X011214Y001868D01*
X011368Y001714D01*
X011571Y001630D01*
X011789Y001630D01*
X011992Y001714D01*
X012146Y001868D01*
X012230Y002071D01*
X012230Y002289D01*
X012146Y002492D01*
X011992Y002646D01*
X011910Y002680D01*
X011992Y002714D01*
X012146Y002868D01*
X012230Y003071D01*
X012230Y003289D01*
X012146Y003492D01*
X011992Y003646D01*
X011910Y003680D01*
X011992Y003714D01*
X012146Y003868D01*
X012230Y004071D01*
X012230Y004289D01*
X012146Y004492D01*
X011992Y004646D01*
X011910Y004680D01*
X011992Y004714D01*
X012146Y004868D01*
X012230Y005071D01*
X012230Y005289D01*
X012146Y005492D01*
X011992Y005646D01*
X011910Y005680D01*
X011992Y005714D01*
X012146Y005868D01*
X012230Y006071D01*
X012230Y006289D01*
X012146Y006492D01*
X011992Y006646D01*
X011910Y006680D01*
X011992Y006714D01*
X012146Y006868D01*
X012168Y006920D01*
X012882Y006920D01*
X012977Y006960D01*
X013388Y007370D01*
X013592Y007370D01*
X013464Y007242D01*
X013380Y007039D01*
X013380Y006821D01*
X013464Y006618D01*
X013618Y006464D01*
X013821Y006380D01*
X013999Y006380D01*
X017142Y003237D01*
X017237Y003142D01*
X017362Y003090D01*
X019619Y003090D01*
X019739Y002970D01*
X020121Y002970D01*
X020241Y003090D01*
X020619Y003090D01*
X020739Y002970D01*
X021121Y002970D01*
X021390Y003239D01*
X021390Y003621D01*
X021121Y003890D01*
X020739Y003890D01*
X020619Y003770D01*
X020675Y003826D02*
X020185Y003826D01*
X020121Y003970D02*
X019940Y003970D01*
X019940Y004420D01*
X019940Y004440D01*
X019920Y004440D01*
X019920Y004890D01*
X019739Y004890D01*
X019470Y004621D01*
X019470Y004440D01*
X019920Y004440D01*
X019920Y004420D01*
X019470Y004420D01*
X019470Y004239D01*
X019739Y003970D01*
X019920Y003970D01*
X019920Y004420D01*
X019940Y004420D01*
X020390Y004420D01*
X020390Y004239D01*
X020121Y003970D01*
X020135Y003984D02*
X020725Y003984D01*
X020739Y003970D02*
X021121Y003970D01*
X021390Y004239D01*
X021390Y004621D01*
X021121Y004890D01*
X020739Y004890D01*
X020470Y004621D01*
X020470Y004239D01*
X020739Y003970D01*
X020567Y004143D02*
X020293Y004143D01*
X020390Y004301D02*
X020470Y004301D01*
X020470Y004460D02*
X020390Y004460D01*
X020390Y004440D02*
X020390Y004621D01*
X020121Y004890D01*
X019940Y004890D01*
X019940Y004440D01*
X020390Y004440D01*
X020390Y004618D02*
X020470Y004618D01*
X020626Y004777D02*
X020234Y004777D01*
X020121Y004970D02*
X019940Y004970D01*
X019940Y005420D01*
X020390Y005420D01*
X020390Y005239D01*
X020121Y004970D01*
X020244Y005094D02*
X020616Y005094D01*
X020470Y005252D02*
X020390Y005252D01*
X020390Y005411D02*
X020470Y005411D01*
X020423Y005569D02*
X020390Y005569D01*
X020430Y005930D02*
X020930Y005430D01*
X021244Y005094D02*
X024700Y005094D01*
X024700Y005252D02*
X021390Y005252D01*
X021390Y005411D02*
X024700Y005411D01*
X024700Y005569D02*
X021390Y005569D01*
X021283Y005728D02*
X024700Y005728D01*
X024700Y005886D02*
X021125Y005886D01*
X021195Y006045D02*
X024700Y006045D01*
X024700Y006203D02*
X021354Y006203D01*
X021390Y006362D02*
X024700Y006362D01*
X024700Y006520D02*
X021390Y006520D01*
X021546Y006679D02*
X024700Y006679D01*
X024700Y006837D02*
X021705Y006837D01*
X021863Y006996D02*
X024700Y006996D01*
X024700Y007154D02*
X022022Y007154D01*
X022133Y007313D02*
X024700Y007313D01*
X024700Y007471D02*
X022140Y007471D01*
X022140Y007630D02*
X024700Y007630D01*
X024700Y007788D02*
X022140Y007788D01*
X022140Y007947D02*
X024700Y007947D01*
X024700Y008105D02*
X022140Y008105D01*
X022140Y008264D02*
X024700Y008264D01*
X024700Y008422D02*
X022140Y008422D01*
X022140Y008581D02*
X024700Y008581D01*
X024700Y008739D02*
X022140Y008739D01*
X022140Y008898D02*
X024700Y008898D01*
X024700Y009056D02*
X022140Y009056D01*
X022140Y009215D02*
X024700Y009215D01*
X024700Y009373D02*
X022140Y009373D01*
X022140Y009532D02*
X024700Y009532D01*
X024700Y009690D02*
X022116Y009690D01*
X021979Y009849D02*
X024700Y009849D01*
X024700Y010007D02*
X021821Y010007D01*
X021641Y010166D02*
X024700Y010166D01*
X024700Y010324D02*
X021390Y010324D01*
X021390Y010483D02*
X024700Y010483D01*
X024700Y010641D02*
X021370Y010641D01*
X021211Y010800D02*
X024700Y010800D01*
X024700Y010958D02*
X020770Y010958D01*
X020430Y010930D02*
X020930Y010430D01*
X020470Y010483D02*
X020390Y010483D01*
X020390Y010440D02*
X020390Y010602D01*
X020470Y010522D01*
X020470Y010239D01*
X020519Y010190D01*
X020341Y010190D01*
X020390Y010239D01*
X020390Y010420D01*
X019940Y010420D01*
X019940Y010440D01*
X020390Y010440D01*
X020390Y010324D02*
X020470Y010324D01*
X020430Y010930D02*
X019330Y010930D01*
X018080Y012180D01*
X011680Y012180D01*
X012163Y011909D02*
X017983Y011909D01*
X018142Y011751D02*
X012028Y011751D01*
X012046Y011592D02*
X018300Y011592D01*
X018459Y011434D02*
X012170Y011434D01*
X012230Y011275D02*
X018617Y011275D01*
X018776Y011117D02*
X018138Y011117D01*
X018320Y010958D02*
X018934Y010958D01*
X019093Y010800D02*
X018478Y010800D01*
X018637Y010641D02*
X019490Y010641D01*
X019470Y010483D02*
X018795Y010483D01*
X018954Y010324D02*
X019470Y010324D01*
X018980Y009930D02*
X021530Y009930D01*
X021880Y009580D01*
X021880Y007380D01*
X020930Y006430D01*
X020470Y006362D02*
X020390Y006362D01*
X020390Y006420D02*
X019940Y006420D01*
X019940Y006440D01*
X019920Y006440D01*
X019920Y006890D01*
X019739Y006890D01*
X019470Y006621D01*
X019470Y006440D01*
X019920Y006440D01*
X019920Y006420D01*
X019470Y006420D01*
X019470Y006239D01*
X019519Y006190D01*
X019388Y006190D01*
X017727Y007850D01*
X017632Y007890D01*
X017064Y007890D01*
X017242Y007964D01*
X017396Y008118D01*
X017480Y008321D01*
X017480Y008539D01*
X017396Y008742D01*
X017242Y008896D01*
X017184Y008920D01*
X018022Y008920D01*
X019160Y007783D01*
X019233Y007710D01*
X019328Y007670D01*
X019519Y007670D01*
X019470Y007621D01*
X019470Y007440D01*
X019920Y007440D01*
X019920Y007420D01*
X019940Y007420D01*
X019940Y007440D01*
X020390Y007440D01*
X020390Y007602D01*
X020470Y007522D01*
X020470Y007239D01*
X020739Y006970D01*
X021102Y006970D01*
X021022Y006890D01*
X020739Y006890D01*
X020470Y006621D01*
X020470Y006239D01*
X020546Y006163D01*
X020482Y006190D01*
X020341Y006190D01*
X020390Y006239D01*
X020390Y006420D01*
X020390Y006440D02*
X020390Y006621D01*
X020121Y006890D01*
X019940Y006890D01*
X019940Y006440D01*
X020390Y006440D01*
X020390Y006520D02*
X020470Y006520D01*
X020528Y006679D02*
X020332Y006679D01*
X020174Y006837D02*
X020686Y006837D01*
X020714Y006996D02*
X020146Y006996D01*
X020121Y006970D02*
X019940Y006970D01*
X019940Y007420D01*
X020390Y007420D01*
X020390Y007239D01*
X020121Y006970D01*
X019940Y006996D02*
X019920Y006996D01*
X019920Y006970D02*
X019739Y006970D01*
X019470Y007239D01*
X019470Y007420D01*
X019920Y007420D01*
X019920Y006970D01*
X019920Y006837D02*
X019940Y006837D01*
X019940Y006679D02*
X019920Y006679D01*
X019920Y006520D02*
X019940Y006520D01*
X019528Y006679D02*
X018899Y006679D01*
X018741Y006837D02*
X019686Y006837D01*
X019714Y006996D02*
X018582Y006996D01*
X018424Y007154D02*
X019555Y007154D01*
X019470Y007313D02*
X018265Y007313D01*
X018107Y007471D02*
X019470Y007471D01*
X019479Y007630D02*
X017948Y007630D01*
X017790Y007788D02*
X019154Y007788D01*
X018996Y007947D02*
X017200Y007947D01*
X017383Y008105D02*
X018837Y008105D01*
X018679Y008264D02*
X017456Y008264D01*
X017480Y008422D02*
X018520Y008422D01*
X018362Y008581D02*
X017463Y008581D01*
X017397Y008739D02*
X018203Y008739D01*
X018045Y008898D02*
X017239Y008898D01*
X016676Y008920D02*
X016618Y008896D01*
X016464Y008742D01*
X016380Y008539D01*
X016380Y008321D01*
X016464Y008118D01*
X016618Y007964D01*
X016796Y007890D01*
X014036Y007890D01*
X014059Y007894D01*
X014141Y007920D01*
X014218Y007960D01*
X014288Y008010D01*
X014350Y008072D01*
X014400Y008142D01*
X014440Y008219D01*
X014466Y008301D01*
X014480Y008387D01*
X014480Y008421D01*
X013939Y008421D01*
X013939Y008439D01*
X014480Y008439D01*
X014480Y008473D01*
X014466Y008559D01*
X014440Y008641D01*
X014400Y008718D01*
X014350Y008788D01*
X014288Y008850D01*
X014218Y008900D01*
X014180Y008920D01*
X016676Y008920D01*
X016621Y008898D02*
X014222Y008898D01*
X014385Y008739D02*
X016463Y008739D01*
X016397Y008581D02*
X014459Y008581D01*
X014454Y008264D02*
X016404Y008264D01*
X016380Y008422D02*
X013939Y008422D01*
X013921Y008422D02*
X013090Y008422D01*
X013248Y008581D02*
X013401Y008581D01*
X013394Y008559D02*
X013420Y008641D01*
X013460Y008718D01*
X013510Y008788D01*
X013572Y008850D01*
X013642Y008900D01*
X013680Y008920D01*
X013588Y008920D01*
X012627Y007960D01*
X012532Y007920D01*
X012168Y007920D01*
X012146Y007868D01*
X011992Y007714D01*
X011910Y007680D01*
X011992Y007646D01*
X012146Y007492D01*
X012168Y007440D01*
X012722Y007440D01*
X013060Y007777D01*
X013133Y007850D01*
X013228Y007890D01*
X013824Y007890D01*
X013801Y007894D01*
X013719Y007920D01*
X013642Y007960D01*
X013572Y008010D01*
X013510Y008072D01*
X013460Y008142D01*
X013420Y008219D01*
X013394Y008301D01*
X013380Y008387D01*
X013380Y008421D01*
X013921Y008421D01*
X013921Y008439D01*
X013380Y008439D01*
X013380Y008473D01*
X013394Y008559D01*
X013406Y008264D02*
X012931Y008264D01*
X012773Y008105D02*
X013486Y008105D01*
X013667Y007947D02*
X012596Y007947D01*
X012480Y008180D02*
X013480Y009180D01*
X018130Y009180D01*
X019380Y007930D01*
X020430Y007930D01*
X020930Y007430D01*
X020555Y007154D02*
X020305Y007154D01*
X020390Y007313D02*
X020470Y007313D01*
X020470Y007471D02*
X020390Y007471D01*
X019940Y007313D02*
X019920Y007313D01*
X019920Y007154D02*
X019940Y007154D01*
X019470Y006520D02*
X019058Y006520D01*
X019216Y006362D02*
X019470Y006362D01*
X019506Y006203D02*
X019375Y006203D01*
X019280Y005930D02*
X020430Y005930D01*
X020354Y006203D02*
X020506Y006203D01*
X019470Y005569D02*
X017468Y005569D01*
X017480Y005539D02*
X017396Y005742D01*
X017242Y005896D01*
X017039Y005980D01*
X016821Y005980D01*
X016618Y005896D01*
X016464Y005742D01*
X016380Y005539D01*
X016380Y005321D01*
X016464Y005118D01*
X016618Y004964D01*
X016821Y004880D01*
X017039Y004880D01*
X017242Y004964D01*
X017396Y005118D01*
X017480Y005321D01*
X017480Y005539D01*
X017480Y005411D02*
X019470Y005411D01*
X019470Y005420D02*
X019470Y005239D01*
X019739Y004970D01*
X019920Y004970D01*
X019920Y005420D01*
X019470Y005420D01*
X019470Y005252D02*
X017452Y005252D01*
X017371Y005094D02*
X019616Y005094D01*
X019920Y005094D02*
X019940Y005094D01*
X019940Y005252D02*
X019920Y005252D01*
X019920Y005411D02*
X019940Y005411D01*
X019280Y005930D02*
X017580Y007630D01*
X013280Y007630D01*
X012830Y007180D01*
X011680Y007180D01*
X012115Y006837D02*
X013380Y006837D01*
X013380Y006996D02*
X013013Y006996D01*
X013172Y007154D02*
X013427Y007154D01*
X013330Y007313D02*
X013535Y007313D01*
X013070Y007788D02*
X012066Y007788D01*
X012008Y007630D02*
X012912Y007630D01*
X012753Y007471D02*
X012155Y007471D01*
X012480Y008180D02*
X011680Y008180D01*
X012168Y008440D02*
X012146Y008492D01*
X011992Y008646D01*
X011910Y008680D01*
X011992Y008714D01*
X012146Y008868D01*
X012175Y008938D01*
X012227Y008960D01*
X012877Y009610D01*
X012950Y009683D01*
X012990Y009778D01*
X012990Y010172D01*
X013438Y010620D01*
X017922Y010620D01*
X018760Y009783D01*
X018833Y009710D01*
X018928Y009670D01*
X019519Y009670D01*
X019470Y009621D01*
X019470Y009440D01*
X019920Y009440D01*
X019920Y009420D01*
X019940Y009420D01*
X019940Y009440D01*
X020390Y009440D01*
X020390Y009621D01*
X020341Y009670D01*
X020519Y009670D01*
X020470Y009621D01*
X020470Y009239D01*
X020739Y008970D01*
X021121Y008970D01*
X021390Y009239D01*
X021390Y009621D01*
X021341Y009670D01*
X021422Y009670D01*
X021620Y009472D01*
X021620Y007488D01*
X021390Y007258D01*
X021390Y007621D01*
X021121Y007890D01*
X020838Y007890D01*
X020758Y007970D01*
X021121Y007970D01*
X021390Y008239D01*
X021390Y008621D01*
X021121Y008890D01*
X020739Y008890D01*
X020470Y008621D01*
X020470Y008239D01*
X020546Y008163D01*
X020482Y008190D01*
X020341Y008190D01*
X020390Y008239D01*
X020390Y008420D01*
X019940Y008420D01*
X019940Y008440D01*
X019920Y008440D01*
X019920Y008890D01*
X019739Y008890D01*
X019470Y008621D01*
X019470Y008440D01*
X019920Y008440D01*
X019920Y008420D01*
X019470Y008420D01*
X019470Y008239D01*
X019519Y008190D01*
X019488Y008190D01*
X018277Y009400D01*
X018182Y009440D01*
X017184Y009440D01*
X017242Y009464D01*
X017396Y009618D01*
X017480Y009821D01*
X017480Y010039D01*
X017396Y010242D01*
X017242Y010396D01*
X017039Y010480D01*
X016821Y010480D01*
X016618Y010396D01*
X016464Y010242D01*
X016380Y010039D01*
X016380Y009821D01*
X016464Y009618D01*
X016618Y009464D01*
X016676Y009440D01*
X014180Y009440D01*
X014218Y009460D01*
X014288Y009510D01*
X014350Y009572D01*
X014400Y009642D01*
X014440Y009719D01*
X014466Y009801D01*
X014480Y009887D01*
X014480Y009921D01*
X013939Y009921D01*
X013939Y009939D01*
X013921Y009939D01*
X013921Y010480D01*
X013887Y010480D01*
X013801Y010466D01*
X013719Y010440D01*
X013642Y010400D01*
X013572Y010350D01*
X013510Y010288D01*
X013460Y010218D01*
X013420Y010141D01*
X013394Y010059D01*
X013380Y009973D01*
X013380Y009939D01*
X013921Y009939D01*
X013921Y009921D01*
X013380Y009921D01*
X013380Y009887D01*
X013394Y009801D01*
X013420Y009719D01*
X013460Y009642D01*
X013510Y009572D01*
X013572Y009510D01*
X013642Y009460D01*
X013680Y009440D01*
X013428Y009440D01*
X013333Y009400D01*
X013260Y009327D01*
X012372Y008440D01*
X012168Y008440D01*
X012057Y008581D02*
X012513Y008581D01*
X012671Y008739D02*
X012017Y008739D01*
X012158Y008898D02*
X012830Y008898D01*
X012988Y009056D02*
X012324Y009056D01*
X012482Y009215D02*
X013147Y009215D01*
X013305Y009373D02*
X012641Y009373D01*
X012799Y009532D02*
X013551Y009532D01*
X013435Y009690D02*
X012953Y009690D01*
X012990Y009849D02*
X013386Y009849D01*
X013385Y010007D02*
X012990Y010007D01*
X012990Y010166D02*
X013433Y010166D01*
X013546Y010324D02*
X013142Y010324D01*
X013300Y010483D02*
X018060Y010483D01*
X018218Y010324D02*
X017314Y010324D01*
X017428Y010166D02*
X018377Y010166D01*
X018535Y010007D02*
X017480Y010007D01*
X017480Y009849D02*
X018694Y009849D01*
X018880Y009690D02*
X017426Y009690D01*
X017309Y009532D02*
X019470Y009532D01*
X019470Y009420D02*
X019470Y009239D01*
X019739Y008970D01*
X019920Y008970D01*
X019920Y009420D01*
X019470Y009420D01*
X019470Y009373D02*
X018305Y009373D01*
X018463Y009215D02*
X019495Y009215D01*
X019653Y009056D02*
X018622Y009056D01*
X018780Y008898D02*
X021620Y008898D01*
X021620Y009056D02*
X021207Y009056D01*
X021365Y009215D02*
X021620Y009215D01*
X021620Y009373D02*
X021390Y009373D01*
X021390Y009532D02*
X021561Y009532D01*
X020653Y009056D02*
X020207Y009056D01*
X020121Y008970D02*
X019940Y008970D01*
X019940Y009420D01*
X020390Y009420D01*
X020390Y009239D01*
X020121Y008970D01*
X020121Y008890D02*
X019940Y008890D01*
X019940Y008440D01*
X020390Y008440D01*
X020390Y008621D01*
X020121Y008890D01*
X020272Y008739D02*
X020588Y008739D01*
X020470Y008581D02*
X020390Y008581D01*
X020470Y008422D02*
X019940Y008422D01*
X019920Y008422D02*
X019256Y008422D01*
X019414Y008264D02*
X019470Y008264D01*
X019470Y008581D02*
X019097Y008581D01*
X018939Y008739D02*
X019588Y008739D01*
X019920Y008739D02*
X019940Y008739D01*
X019940Y008581D02*
X019920Y008581D01*
X020390Y008264D02*
X020470Y008264D01*
X020781Y007947D02*
X021620Y007947D01*
X021620Y008105D02*
X021256Y008105D01*
X021390Y008264D02*
X021620Y008264D01*
X021620Y008422D02*
X021390Y008422D01*
X021390Y008581D02*
X021620Y008581D01*
X021620Y008739D02*
X021272Y008739D01*
X020495Y009215D02*
X020365Y009215D01*
X020390Y009373D02*
X020470Y009373D01*
X020470Y009532D02*
X020390Y009532D01*
X019940Y009373D02*
X019920Y009373D01*
X019920Y009215D02*
X019940Y009215D01*
X019940Y009056D02*
X019920Y009056D01*
X018980Y009930D02*
X018030Y010880D01*
X013330Y010880D01*
X012730Y010280D01*
X012730Y009830D01*
X012080Y009180D01*
X011680Y009180D01*
X011930Y009690D02*
X012222Y009690D01*
X012119Y009849D02*
X012381Y009849D01*
X012470Y010007D02*
X012202Y010007D01*
X012470Y010166D02*
X011700Y010166D01*
X011660Y010166D02*
X010700Y010166D01*
X010660Y010166D02*
X005230Y010166D01*
X005216Y010324D02*
X010148Y010324D01*
X010220Y010483D02*
X005150Y010483D01*
X004997Y010641D02*
X010379Y010641D01*
X010283Y010800D02*
X005077Y010800D01*
X005183Y010958D02*
X010177Y010958D01*
X010130Y011117D02*
X005230Y011117D01*
X005230Y011275D02*
X010130Y011275D01*
X010190Y011434D02*
X005170Y011434D01*
X005046Y011592D02*
X010314Y011592D01*
X010332Y011751D02*
X005025Y011751D01*
X005159Y011909D02*
X010197Y011909D01*
X010131Y012068D02*
X005219Y012068D01*
X005230Y012226D02*
X010130Y012226D01*
X010169Y012385D02*
X005192Y012385D01*
X005095Y012543D02*
X010265Y012543D01*
X010398Y012702D02*
X004962Y012702D01*
X005138Y012860D02*
X010222Y012860D01*
X010152Y013019D02*
X005208Y013019D01*
X005230Y013177D02*
X010130Y013177D01*
X010149Y013336D02*
X005211Y013336D01*
X005144Y013494D02*
X010216Y013494D01*
X010384Y013653D02*
X004976Y013653D01*
X004384Y013653D02*
X003976Y013653D01*
X004144Y013494D02*
X004216Y013494D01*
X003384Y013653D02*
X002657Y013653D01*
X002730Y013811D02*
X022630Y013811D01*
X022587Y013970D02*
X002773Y013970D01*
X002790Y014128D02*
X022570Y014128D01*
X022570Y014287D02*
X002790Y014287D01*
X002758Y014445D02*
X022602Y014445D01*
X022644Y014604D02*
X002716Y014604D01*
X002626Y014762D02*
X022734Y014762D01*
X022851Y014921D02*
X002509Y014921D01*
X002343Y015079D02*
X023017Y015079D01*
X022703Y013653D02*
X011976Y013653D01*
X012144Y013494D02*
X022796Y013494D01*
X022955Y013336D02*
X012211Y013336D01*
X012230Y013177D02*
X023197Y013177D01*
X024163Y013177D02*
X024700Y013177D01*
X024700Y013019D02*
X012208Y013019D01*
X012138Y012860D02*
X019709Y012860D01*
X019739Y012890D02*
X019470Y012621D01*
X019470Y012440D01*
X019920Y012440D01*
X019920Y012890D01*
X019739Y012890D01*
X019920Y012860D02*
X019940Y012860D01*
X019940Y012890D02*
X019940Y012440D01*
X019920Y012440D01*
X019920Y012420D01*
X019470Y012420D01*
X019470Y012239D01*
X019739Y011970D01*
X019920Y011970D01*
X019920Y012420D01*
X019940Y012420D01*
X019940Y012440D01*
X020390Y012440D01*
X020390Y012621D01*
X020121Y012890D01*
X019940Y012890D01*
X019940Y012702D02*
X019920Y012702D01*
X019920Y012543D02*
X019940Y012543D01*
X019940Y012420D02*
X020390Y012420D01*
X020390Y012239D01*
X020121Y011970D01*
X019940Y011970D01*
X019940Y012420D01*
X019940Y012385D02*
X019920Y012385D01*
X019920Y012226D02*
X019940Y012226D01*
X019940Y012068D02*
X019920Y012068D01*
X019642Y012068D02*
X018560Y012068D01*
X018402Y012226D02*
X019483Y012226D01*
X019470Y012385D02*
X018243Y012385D01*
X018719Y011909D02*
X024700Y011909D01*
X024700Y011751D02*
X021260Y011751D01*
X021390Y011592D02*
X024700Y011592D01*
X024700Y011434D02*
X021390Y011434D01*
X021390Y011275D02*
X024700Y011275D01*
X024700Y011117D02*
X021267Y011117D01*
X020470Y011275D02*
X020390Y011275D01*
X020390Y011440D02*
X020390Y011621D01*
X020121Y011890D01*
X019940Y011890D01*
X019940Y011440D01*
X020390Y011440D01*
X020470Y011434D02*
X019940Y011434D01*
X019920Y011434D02*
X019194Y011434D01*
X019036Y011592D02*
X019470Y011592D01*
X019600Y011751D02*
X018877Y011751D01*
X019353Y011275D02*
X019470Y011275D01*
X019920Y011592D02*
X019940Y011592D01*
X019940Y011751D02*
X019920Y011751D01*
X020260Y011751D02*
X020600Y011751D01*
X020470Y011592D02*
X020390Y011592D01*
X020739Y011970D02*
X021121Y011970D01*
X021390Y012239D01*
X021390Y012621D01*
X021121Y012890D01*
X020739Y012890D01*
X020470Y012621D01*
X020470Y012239D01*
X020739Y011970D01*
X020642Y012068D02*
X020218Y012068D01*
X020377Y012226D02*
X020483Y012226D01*
X020470Y012385D02*
X020390Y012385D01*
X020390Y012543D02*
X020470Y012543D01*
X020551Y012702D02*
X020309Y012702D01*
X020151Y012860D02*
X020709Y012860D01*
X021151Y012860D02*
X024700Y012860D01*
X024700Y012702D02*
X021309Y012702D01*
X021390Y012543D02*
X024700Y012543D01*
X024700Y012385D02*
X021390Y012385D01*
X021377Y012226D02*
X024700Y012226D01*
X024700Y012068D02*
X021218Y012068D01*
X019551Y012702D02*
X011962Y012702D01*
X012095Y012543D02*
X019470Y012543D01*
X016546Y010324D02*
X014314Y010324D01*
X014288Y010350D02*
X014218Y010400D01*
X014141Y010440D01*
X014059Y010466D01*
X013973Y010480D01*
X013939Y010480D01*
X013939Y009939D01*
X014480Y009939D01*
X014480Y009973D01*
X014466Y010059D01*
X014440Y010141D01*
X014400Y010218D01*
X014350Y010288D01*
X014288Y010350D01*
X014427Y010166D02*
X016432Y010166D01*
X016380Y010007D02*
X014475Y010007D01*
X014474Y009849D02*
X016380Y009849D01*
X016434Y009690D02*
X014425Y009690D01*
X014309Y009532D02*
X016551Y009532D01*
X016477Y008105D02*
X014374Y008105D01*
X014193Y007947D02*
X016660Y007947D01*
X016535Y007313D02*
X014325Y007313D01*
X014433Y007154D02*
X016427Y007154D01*
X016380Y006996D02*
X014480Y006996D01*
X014504Y006837D02*
X016380Y006837D01*
X016439Y006679D02*
X014662Y006679D01*
X014821Y006520D02*
X016562Y006520D01*
X017298Y006520D02*
X018322Y006520D01*
X018164Y006679D02*
X017421Y006679D01*
X017480Y006837D02*
X018005Y006837D01*
X017847Y006996D02*
X017480Y006996D01*
X017433Y007154D02*
X017688Y007154D01*
X017530Y007313D02*
X017325Y007313D01*
X018481Y006362D02*
X014979Y006362D01*
X015138Y006203D02*
X018639Y006203D01*
X018798Y006045D02*
X015296Y006045D01*
X015455Y005886D02*
X016608Y005886D01*
X016458Y005728D02*
X015613Y005728D01*
X015772Y005569D02*
X016392Y005569D01*
X016380Y005411D02*
X015930Y005411D01*
X016089Y005252D02*
X016408Y005252D01*
X016489Y005094D02*
X016247Y005094D01*
X016406Y004935D02*
X016688Y004935D01*
X016564Y004777D02*
X019626Y004777D01*
X019470Y004618D02*
X016723Y004618D01*
X016881Y004460D02*
X019470Y004460D01*
X019470Y004301D02*
X017040Y004301D01*
X017198Y004143D02*
X019567Y004143D01*
X019725Y003984D02*
X017357Y003984D01*
X017515Y003826D02*
X019675Y003826D01*
X019920Y003984D02*
X019940Y003984D01*
X019940Y004143D02*
X019920Y004143D01*
X019920Y004301D02*
X019940Y004301D01*
X019940Y004460D02*
X019920Y004460D01*
X019920Y004618D02*
X019940Y004618D01*
X019940Y004777D02*
X019920Y004777D01*
X021234Y004777D02*
X024700Y004777D01*
X024700Y004935D02*
X017172Y004935D01*
X016078Y004301D02*
X012225Y004301D01*
X012230Y004143D02*
X016237Y004143D01*
X016395Y003984D02*
X012194Y003984D01*
X012103Y003826D02*
X016554Y003826D01*
X016712Y003667D02*
X011941Y003667D01*
X012129Y003509D02*
X016871Y003509D01*
X017029Y003350D02*
X012205Y003350D01*
X012230Y003192D02*
X017188Y003192D01*
X015920Y004460D02*
X012160Y004460D01*
X012020Y004618D02*
X015761Y004618D01*
X015603Y004777D02*
X012054Y004777D01*
X012174Y004935D02*
X013690Y004935D01*
X013719Y004920D02*
X013642Y004960D01*
X013572Y005010D01*
X013510Y005072D01*
X013460Y005142D01*
X013420Y005219D01*
X013394Y005301D01*
X013380Y005387D01*
X013380Y005421D01*
X013921Y005421D01*
X013939Y005421D01*
X013939Y005439D01*
X014480Y005439D01*
X014480Y005473D01*
X014466Y005559D01*
X014440Y005641D01*
X014400Y005718D01*
X014350Y005788D01*
X014288Y005850D01*
X014218Y005900D01*
X014141Y005940D01*
X014059Y005966D01*
X013973Y005980D01*
X013939Y005980D01*
X013939Y005439D01*
X013921Y005439D01*
X013921Y005980D01*
X013887Y005980D01*
X013801Y005966D01*
X013719Y005940D01*
X013642Y005900D01*
X013572Y005850D01*
X013510Y005788D01*
X013460Y005718D01*
X013420Y005641D01*
X013394Y005559D01*
X013380Y005473D01*
X013380Y005439D01*
X013921Y005439D01*
X013921Y005421D01*
X013921Y004880D01*
X013887Y004880D01*
X013801Y004894D01*
X013719Y004920D01*
X013921Y004935D02*
X013939Y004935D01*
X013939Y004880D02*
X013973Y004880D01*
X014059Y004894D01*
X014141Y004920D01*
X014218Y004960D01*
X014288Y005010D01*
X014350Y005072D01*
X014400Y005142D01*
X014440Y005219D01*
X014466Y005301D01*
X014480Y005387D01*
X014480Y005421D01*
X013939Y005421D01*
X013939Y004880D01*
X014170Y004935D02*
X015444Y004935D01*
X015286Y005094D02*
X014365Y005094D01*
X014450Y005252D02*
X015127Y005252D01*
X014969Y005411D02*
X014480Y005411D01*
X014463Y005569D02*
X014810Y005569D01*
X014652Y005728D02*
X014394Y005728D01*
X014493Y005886D02*
X014238Y005886D01*
X014335Y006045D02*
X012219Y006045D01*
X012230Y006203D02*
X014176Y006203D01*
X014018Y006362D02*
X012200Y006362D01*
X012118Y006520D02*
X013562Y006520D01*
X013439Y006679D02*
X011914Y006679D01*
X012154Y005886D02*
X013622Y005886D01*
X013466Y005728D02*
X012005Y005728D01*
X012069Y005569D02*
X013397Y005569D01*
X013380Y005411D02*
X012180Y005411D01*
X012230Y005252D02*
X013410Y005252D01*
X013495Y005094D02*
X012230Y005094D01*
X013921Y005094D02*
X013939Y005094D01*
X013939Y005252D02*
X013921Y005252D01*
X013921Y005411D02*
X013939Y005411D01*
X013939Y005569D02*
X013921Y005569D01*
X013921Y005728D02*
X013939Y005728D01*
X013939Y005886D02*
X013921Y005886D01*
X010446Y006679D02*
X004914Y006679D01*
X005115Y006837D02*
X010245Y006837D01*
X010161Y006996D02*
X005199Y006996D01*
X005230Y007154D02*
X010130Y007154D01*
X010140Y007313D02*
X005220Y007313D01*
X005155Y007471D02*
X010205Y007471D01*
X010352Y007630D02*
X005008Y007630D01*
X005066Y007788D02*
X010294Y007788D01*
X010181Y007947D02*
X005179Y007947D01*
X005230Y008105D02*
X010130Y008105D01*
X010130Y008264D02*
X005230Y008264D01*
X005175Y008422D02*
X010185Y008422D01*
X010303Y008581D02*
X005057Y008581D01*
X005017Y008739D02*
X010343Y008739D01*
X010202Y008898D02*
X005158Y008898D01*
X005224Y009056D02*
X010136Y009056D01*
X010130Y009215D02*
X005230Y009215D01*
X005195Y009373D02*
X010165Y009373D01*
X010254Y009532D02*
X005106Y009532D01*
X004934Y009690D02*
X010430Y009690D01*
X010241Y009849D02*
X005126Y009849D01*
X005204Y010007D02*
X010158Y010007D01*
X010660Y010007D02*
X010700Y010007D01*
X010700Y009849D02*
X010660Y009849D01*
X010660Y010324D02*
X010700Y010324D01*
X010700Y010483D02*
X010660Y010483D01*
X011660Y010483D02*
X011700Y010483D01*
X011700Y010324D02*
X011660Y010324D01*
X011660Y010007D02*
X011700Y010007D01*
X011700Y009849D02*
X011660Y009849D01*
X012212Y010324D02*
X012470Y010324D01*
X012565Y010483D02*
X012140Y010483D01*
X011981Y010641D02*
X012723Y010641D01*
X012882Y010800D02*
X012077Y010800D01*
X012183Y010958D02*
X013040Y010958D01*
X013222Y011117D02*
X012230Y011117D01*
X013921Y010324D02*
X013939Y010324D01*
X013939Y010166D02*
X013921Y010166D01*
X013921Y010007D02*
X013939Y010007D01*
X013638Y008898D02*
X013565Y008898D01*
X013475Y008739D02*
X013407Y008739D01*
X010242Y006520D02*
X005118Y006520D01*
X005200Y006362D02*
X010160Y006362D01*
X010130Y006203D02*
X005230Y006203D01*
X005219Y006045D02*
X010141Y006045D01*
X010206Y005886D02*
X005154Y005886D01*
X005005Y005728D02*
X010355Y005728D01*
X010291Y005569D02*
X005069Y005569D01*
X005180Y005411D02*
X010180Y005411D01*
X010130Y005252D02*
X005230Y005252D01*
X005230Y005094D02*
X010130Y005094D01*
X010186Y004935D02*
X005174Y004935D01*
X005054Y004777D02*
X010306Y004777D01*
X012214Y003033D02*
X019676Y003033D01*
X020184Y003033D02*
X020676Y003033D01*
X021184Y003033D02*
X024700Y003033D01*
X024700Y002875D02*
X012149Y002875D01*
X011994Y002716D02*
X023258Y002716D01*
X022988Y002558D02*
X012080Y002558D01*
X012185Y002399D02*
X022829Y002399D01*
X022722Y002241D02*
X012230Y002241D01*
X012230Y002082D02*
X022639Y002082D01*
X022596Y001924D02*
X012169Y001924D01*
X012043Y001765D02*
X022570Y001765D01*
X022570Y001607D02*
X011180Y001607D01*
X011180Y001765D02*
X011317Y001765D01*
X011191Y001924D02*
X011180Y001924D01*
X011180Y001448D02*
X022593Y001448D01*
X022636Y001290D02*
X011180Y001290D01*
X011180Y001131D02*
X022715Y001131D01*
X022818Y000973D02*
X011180Y000973D01*
X011180Y000814D02*
X022976Y000814D01*
X024638Y002241D02*
X024700Y002241D01*
X024700Y002399D02*
X024531Y002399D01*
X024372Y002558D02*
X024700Y002558D01*
X024700Y002716D02*
X024102Y002716D01*
X024700Y003192D02*
X021342Y003192D01*
X021390Y003350D02*
X024700Y003350D01*
X024700Y003509D02*
X021390Y003509D01*
X021344Y003667D02*
X024700Y003667D01*
X024700Y003826D02*
X021185Y003826D01*
X021135Y003984D02*
X024700Y003984D01*
X024700Y004143D02*
X021293Y004143D01*
X021390Y004301D02*
X024700Y004301D01*
X024700Y004460D02*
X021390Y004460D01*
X021390Y004618D02*
X024700Y004618D01*
X021445Y007313D02*
X021390Y007313D01*
X021390Y007471D02*
X021603Y007471D01*
X021620Y007630D02*
X021381Y007630D01*
X021223Y007788D02*
X021620Y007788D01*
X018956Y005886D02*
X017252Y005886D01*
X017402Y005728D02*
X019115Y005728D01*
X024405Y013336D02*
X024700Y013336D01*
X024700Y013494D02*
X024564Y013494D01*
X024657Y013653D02*
X024700Y013653D01*
X011384Y013653D02*
X010976Y013653D01*
X011144Y013494D02*
X011216Y013494D01*
X004700Y012543D02*
X004660Y012543D01*
X004660Y012385D02*
X004700Y012385D01*
X004700Y012226D02*
X004660Y012226D01*
X004660Y012068D02*
X004700Y012068D01*
X004700Y011909D02*
X004660Y011909D01*
X004660Y011751D02*
X004700Y011751D01*
X003700Y011751D02*
X003660Y011751D01*
X003660Y011730D02*
X003660Y012160D01*
X003700Y012160D01*
X003700Y011730D01*
X003660Y011730D01*
X003335Y011751D02*
X000660Y011751D01*
X000660Y011909D02*
X003201Y011909D01*
X003141Y012068D02*
X000660Y012068D01*
X000660Y012226D02*
X003130Y012226D01*
X003168Y012385D02*
X000660Y012385D01*
X000660Y012543D02*
X003265Y012543D01*
X003398Y012702D02*
X000660Y012702D01*
X000660Y012860D02*
X003222Y012860D01*
X003152Y013019D02*
X000660Y013019D01*
X000660Y013177D02*
X001197Y013177D01*
X000955Y013336D02*
X000660Y013336D01*
X000660Y013494D02*
X000796Y013494D01*
X000703Y013653D02*
X000660Y013653D01*
X002163Y013177D02*
X003130Y013177D01*
X003149Y013336D02*
X002405Y013336D01*
X002564Y013494D02*
X003216Y013494D01*
X003660Y012543D02*
X003700Y012543D01*
X003700Y012385D02*
X003660Y012385D01*
X003660Y012226D02*
X003700Y012226D01*
X003700Y012068D02*
X003660Y012068D01*
X003660Y011909D02*
X003700Y011909D01*
X003314Y011592D02*
X000660Y011592D01*
X000660Y011434D02*
X003190Y011434D01*
X003130Y011275D02*
X000660Y011275D01*
X000660Y011117D02*
X003130Y011117D01*
X003177Y010958D02*
X000660Y010958D01*
X000660Y010800D02*
X003283Y010800D01*
X003363Y010641D02*
X000660Y010641D01*
X000660Y010483D02*
X003210Y010483D01*
X003144Y010324D02*
X000660Y010324D01*
X000660Y010166D02*
X003130Y010166D01*
X003156Y010007D02*
X000660Y010007D01*
X000660Y009849D02*
X003234Y009849D01*
X003426Y009690D02*
X000660Y009690D01*
X000660Y009532D02*
X003254Y009532D01*
X003165Y009373D02*
X000660Y009373D01*
X000660Y009215D02*
X003130Y009215D01*
X003136Y009056D02*
X000660Y009056D01*
X000660Y008898D02*
X003202Y008898D01*
X003343Y008739D02*
X000660Y008739D01*
X000660Y008581D02*
X003303Y008581D01*
X003185Y008422D02*
X000660Y008422D01*
X000660Y008264D02*
X003130Y008264D01*
X003130Y008105D02*
X000660Y008105D01*
X000660Y007947D02*
X003181Y007947D01*
X003294Y007788D02*
X000660Y007788D01*
X000660Y007630D02*
X003352Y007630D01*
X003205Y007471D02*
X000660Y007471D01*
X000660Y007313D02*
X003140Y007313D01*
X003130Y007154D02*
X000660Y007154D01*
X000660Y006996D02*
X003161Y006996D01*
X003245Y006837D02*
X000660Y006837D01*
X000660Y006679D02*
X003446Y006679D01*
X003242Y006520D02*
X000660Y006520D01*
X000660Y006362D02*
X003160Y006362D01*
X003130Y006203D02*
X000660Y006203D01*
X000660Y006045D02*
X003141Y006045D01*
X003206Y005886D02*
X000660Y005886D01*
X000660Y005728D02*
X003355Y005728D01*
X003291Y005569D02*
X000660Y005569D01*
X000660Y005411D02*
X003180Y005411D01*
X003130Y005252D02*
X000660Y005252D01*
X000660Y005094D02*
X003130Y005094D01*
X003186Y004935D02*
X000660Y004935D01*
X000660Y004777D02*
X003306Y004777D01*
X004910Y004680D02*
X004910Y004680D01*
M02*
