G75*
G70*
%OFA0B0*%
%FSLAX24Y24*%
%IPPOS*%
%LPD*%
%AMOC8*
5,1,8,0,0,1.08239X$1,22.5*
%
%ADD10C,0.0030*%
%ADD11C,0.0080*%
%ADD12C,0.0050*%
D10*
X001913Y003655D02*
X002010Y003655D01*
X002058Y003703D01*
X002160Y003655D02*
X002160Y003945D01*
X002058Y003897D02*
X002010Y003945D01*
X001913Y003945D01*
X001865Y003897D01*
X001865Y003703D01*
X001913Y003655D01*
X002160Y003800D02*
X002353Y003800D01*
X002454Y003752D02*
X002599Y003752D01*
X002648Y003800D01*
X002648Y003897D01*
X002599Y003945D01*
X002454Y003945D01*
X002454Y003655D01*
X002353Y003655D02*
X002353Y003945D01*
X002551Y003752D02*
X002648Y003655D01*
X002749Y003703D02*
X002797Y003655D01*
X002894Y003655D01*
X002942Y003703D01*
X002942Y003800D01*
X002846Y003800D01*
X002942Y003897D02*
X002894Y003945D01*
X002797Y003945D01*
X002749Y003897D01*
X002749Y003703D01*
X012535Y004165D02*
X012680Y004165D01*
X012728Y004213D01*
X012728Y004407D01*
X012680Y004455D01*
X012535Y004455D01*
X012535Y004165D01*
X012830Y004213D02*
X012878Y004165D01*
X012975Y004165D01*
X013023Y004213D01*
X013023Y004407D01*
X012975Y004455D01*
X012878Y004455D01*
X012830Y004407D01*
X012830Y004213D01*
X013124Y004165D02*
X013124Y004455D01*
X013318Y004165D01*
X013318Y004455D01*
X013419Y004455D02*
X013419Y004165D01*
X013612Y004165D01*
X013516Y004310D02*
X013419Y004310D01*
X013419Y004455D02*
X013612Y004455D01*
X023495Y003905D02*
X023495Y003615D01*
X023495Y003712D02*
X023640Y003712D01*
X023688Y003760D01*
X023688Y003857D01*
X023640Y003905D01*
X023495Y003905D01*
X023790Y003905D02*
X023790Y003615D01*
X023886Y003712D01*
X023983Y003615D01*
X023983Y003905D01*
X024084Y003905D02*
X024229Y003905D01*
X024278Y003857D01*
X024278Y003760D01*
X024229Y003712D01*
X024084Y003712D01*
X024084Y003615D02*
X024084Y003905D01*
X024181Y003712D02*
X024278Y003615D01*
D11*
X024281Y004533D02*
X024100Y004533D01*
X024008Y004655D01*
X023919Y004533D02*
X024100Y004533D01*
X024110Y004539D02*
X024186Y004655D01*
X013267Y003981D02*
X013267Y003800D01*
X013145Y003708D01*
X013267Y003619D02*
X013267Y003800D01*
X013261Y003810D02*
X013145Y003886D01*
X002481Y004533D02*
X002300Y004533D01*
X002208Y004655D01*
X002119Y004533D02*
X002300Y004533D01*
X002310Y004539D02*
X002386Y004655D01*
D12*
X011586Y004871D02*
X014814Y004871D01*
X014814Y006879D01*
X014086Y006879D01*
X014086Y007272D01*
X012314Y007272D01*
X012314Y006879D01*
X011586Y006879D01*
X011586Y004871D01*
M02*
