G75*
G70*
%OFA0B0*%
%FSLAX24Y24*%
%IPPOS*%
%LPD*%
%AMOC8*
5,1,8,0,0,1.08239X$1,22.5*
%
%ADD10C,0.0010*%
%ADD11R,0.0118X0.0295*%
%ADD12R,0.0295X0.0118*%
%ADD13R,0.0315X0.0315*%
%ADD14R,0.0117X0.0335*%
%ADD15R,0.0276X0.0110*%
%ADD16R,0.0940X0.0340*%
%ADD17R,0.0512X0.0512*%
%ADD18R,0.0354X0.0276*%
%ADD19R,0.0276X0.0354*%
%ADD20R,0.0315X0.0472*%
%ADD21R,0.0394X0.1811*%
%ADD22R,0.0630X0.1339*%
%ADD23R,0.0630X0.0551*%
%ADD24R,0.0551X0.0630*%
%ADD25R,0.0709X0.0630*%
%ADD26R,0.0157X0.0531*%
%ADD27R,0.0591X0.0748*%
%ADD28C,0.0000*%
D10*
X002750Y001950D02*
X002639Y002027D01*
X002532Y002110D01*
X002428Y002197D01*
X002329Y002290D01*
X002235Y002387D01*
X002145Y002488D01*
X002060Y002594D01*
X001981Y002704D01*
X001907Y002817D01*
X001838Y002934D01*
X001775Y003054D01*
X001718Y003177D01*
X001667Y003302D01*
X001622Y003430D01*
X001583Y003559D01*
X001550Y003691D01*
X001524Y003824D01*
X001504Y003958D01*
X001491Y004092D01*
X001484Y004228D01*
X001484Y004363D01*
X001490Y004498D01*
X001502Y004633D01*
X001521Y004767D01*
X001547Y004900D01*
X001579Y005032D01*
X001617Y005162D01*
X001661Y005290D01*
X001711Y005416D01*
X001768Y005539D01*
X001830Y005659D01*
X001898Y005776D01*
X001971Y005890D01*
X002050Y006000D01*
X003400Y006700D02*
X003453Y006700D01*
X003506Y006696D01*
X003558Y006689D01*
X003610Y006678D01*
X003661Y006664D01*
X003711Y006647D01*
X003760Y006626D01*
X003808Y006603D01*
X003853Y006576D01*
X003897Y006546D01*
X003939Y006513D01*
X003978Y006478D01*
X004015Y006440D01*
X004050Y006400D01*
X004450Y005900D01*
X004406Y005942D01*
X004359Y005981D01*
X004310Y006017D01*
X004259Y006051D01*
X004206Y006081D01*
X004151Y006107D01*
X004095Y006131D01*
X004038Y006150D01*
X003979Y006167D01*
X003919Y006179D01*
X003859Y006188D01*
X003799Y006193D01*
X003738Y006195D01*
X003677Y006193D01*
X003616Y006187D01*
X003556Y006177D01*
X003497Y006164D01*
X003438Y006147D01*
X003381Y006127D01*
X003325Y006103D01*
X003270Y006076D01*
X003218Y006045D01*
X003167Y006011D01*
X003118Y005975D01*
X003072Y005935D01*
X003029Y005893D01*
X002988Y005848D01*
X002949Y005800D01*
X002050Y006000D02*
X002101Y006065D01*
X002155Y006127D01*
X002213Y006187D01*
X002273Y006244D01*
X002335Y006298D01*
X002400Y006350D01*
X002468Y006398D01*
X002537Y006443D01*
X002609Y006484D01*
X002682Y006522D01*
X002757Y006557D01*
X002834Y006588D01*
X002912Y006615D01*
X002992Y006639D01*
X003072Y006659D01*
X003153Y006675D01*
X003235Y006687D01*
X003317Y006696D01*
X003400Y006700D01*
X003300Y004000D02*
X003436Y003982D01*
X003572Y003970D01*
X003709Y003965D01*
X003846Y003967D01*
X003983Y003974D01*
X004119Y003989D01*
X004254Y004009D01*
X004389Y004036D01*
X004522Y004069D01*
X004653Y004109D01*
X004782Y004154D01*
X004909Y004206D01*
X005033Y004264D01*
X005155Y004327D01*
X005273Y004396D01*
X005389Y004470D01*
X005500Y004550D01*
X002950Y005800D02*
X002902Y005734D01*
X002858Y005665D01*
X002816Y005595D01*
X002778Y005523D01*
X002744Y005449D01*
X002712Y005374D01*
X002684Y005298D01*
X002660Y005220D01*
X002640Y005141D01*
X002623Y005061D01*
X002609Y004981D01*
X002600Y004900D01*
X002601Y004900D02*
X002597Y004843D01*
X002598Y004786D01*
X002602Y004729D01*
X002610Y004673D01*
X002623Y004617D01*
X002639Y004562D01*
X002658Y004509D01*
X002682Y004457D01*
X002708Y004406D01*
X002739Y004358D01*
X002772Y004312D01*
X002809Y004268D01*
X002848Y004227D01*
X002890Y004188D01*
X002935Y004153D01*
X002982Y004121D01*
X003031Y004092D01*
X003082Y004066D01*
X003135Y004044D01*
X003189Y004026D01*
X003244Y004012D01*
X003300Y004001D01*
X002750Y001950D02*
X002959Y001820D01*
X003174Y001699D01*
X003395Y001589D01*
X003620Y001489D01*
X003850Y001400D01*
X017600Y006400D02*
X018351Y005979D01*
X019085Y005531D01*
X019802Y005054D01*
X020500Y004550D01*
X023050Y005800D02*
X023098Y005734D01*
X023142Y005665D01*
X023184Y005595D01*
X023222Y005523D01*
X023256Y005449D01*
X023288Y005374D01*
X023316Y005298D01*
X023340Y005220D01*
X023360Y005141D01*
X023377Y005061D01*
X023391Y004981D01*
X023400Y004900D01*
X023399Y004900D02*
X023403Y004843D01*
X023402Y004786D01*
X023398Y004729D01*
X023390Y004673D01*
X023377Y004617D01*
X023361Y004562D01*
X023342Y004509D01*
X023318Y004457D01*
X023292Y004406D01*
X023261Y004358D01*
X023228Y004312D01*
X023191Y004268D01*
X023152Y004227D01*
X023110Y004188D01*
X023065Y004153D01*
X023018Y004121D01*
X022969Y004092D01*
X022918Y004066D01*
X022865Y004044D01*
X022811Y004026D01*
X022756Y004012D01*
X022700Y004001D01*
X023950Y006000D02*
X023899Y006065D01*
X023845Y006127D01*
X023787Y006187D01*
X023727Y006244D01*
X023665Y006298D01*
X023600Y006350D01*
X023532Y006398D01*
X023463Y006443D01*
X023391Y006484D01*
X023318Y006522D01*
X023243Y006557D01*
X023166Y006588D01*
X023088Y006615D01*
X023008Y006639D01*
X022928Y006659D01*
X022847Y006675D01*
X022765Y006687D01*
X022683Y006696D01*
X022600Y006700D01*
X022700Y004000D02*
X022564Y003982D01*
X022428Y003970D01*
X022291Y003965D01*
X022154Y003967D01*
X022017Y003974D01*
X021881Y003989D01*
X021746Y004009D01*
X021611Y004036D01*
X021478Y004069D01*
X021347Y004109D01*
X021218Y004154D01*
X021091Y004206D01*
X020967Y004264D01*
X020845Y004327D01*
X020727Y004396D01*
X020611Y004470D01*
X020500Y004550D01*
X023950Y006000D02*
X024029Y005890D01*
X024102Y005776D01*
X024170Y005659D01*
X024232Y005539D01*
X024289Y005416D01*
X024339Y005290D01*
X024383Y005162D01*
X024421Y005032D01*
X024453Y004900D01*
X024479Y004767D01*
X024498Y004633D01*
X024510Y004498D01*
X024516Y004363D01*
X024516Y004228D01*
X024509Y004092D01*
X024496Y003958D01*
X024476Y003824D01*
X024450Y003691D01*
X024417Y003559D01*
X024378Y003430D01*
X024333Y003302D01*
X024282Y003177D01*
X024225Y003054D01*
X024162Y002934D01*
X024093Y002817D01*
X024019Y002704D01*
X023940Y002594D01*
X023855Y002488D01*
X023765Y002387D01*
X023671Y002290D01*
X023572Y002197D01*
X023468Y002110D01*
X023361Y002027D01*
X023250Y001950D01*
X023051Y005800D02*
X023012Y005848D01*
X022971Y005893D01*
X022928Y005935D01*
X022882Y005975D01*
X022833Y006011D01*
X022782Y006045D01*
X022730Y006076D01*
X022675Y006103D01*
X022619Y006127D01*
X022562Y006147D01*
X022503Y006164D01*
X022444Y006177D01*
X022384Y006187D01*
X022323Y006193D01*
X022262Y006195D01*
X022201Y006193D01*
X022141Y006188D01*
X022081Y006179D01*
X022021Y006167D01*
X021962Y006150D01*
X021905Y006131D01*
X021849Y006107D01*
X021794Y006081D01*
X021741Y006051D01*
X021690Y006017D01*
X021641Y005981D01*
X021594Y005942D01*
X021550Y005900D01*
X021950Y006400D01*
X021985Y006440D01*
X022022Y006478D01*
X022061Y006513D01*
X022103Y006546D01*
X022147Y006576D01*
X022192Y006603D01*
X022240Y006626D01*
X022289Y006647D01*
X022339Y006664D01*
X022390Y006678D01*
X022442Y006689D01*
X022494Y006696D01*
X022547Y006700D01*
X022600Y006700D01*
X023250Y001950D02*
X023041Y001820D01*
X022826Y001699D01*
X022605Y001589D01*
X022380Y001489D01*
X022150Y001400D01*
X008400Y006400D02*
X007649Y005979D01*
X006915Y005531D01*
X006198Y005054D01*
X005500Y004550D01*
X008400Y006400D02*
X008526Y006491D01*
X008657Y006575D01*
X008791Y006653D01*
X008929Y006725D01*
X009070Y006790D01*
X009215Y006848D01*
X009361Y006899D01*
X009511Y006943D01*
X009661Y006980D01*
X009814Y007009D01*
X009968Y007032D01*
X010123Y007046D01*
X010278Y007054D01*
X010433Y007054D01*
X010588Y007047D01*
X010743Y007032D01*
X010897Y007010D01*
X011050Y006981D01*
X011201Y006944D01*
X011350Y006900D01*
X011350Y005400D01*
X012100Y005400D01*
X012100Y005800D01*
X013900Y005800D01*
X013900Y005400D01*
X014650Y005400D01*
X014650Y006900D01*
X014799Y006944D01*
X014950Y006981D01*
X015103Y007010D01*
X015257Y007032D01*
X015412Y007047D01*
X015567Y007054D01*
X015722Y007054D01*
X015877Y007046D01*
X016032Y007032D01*
X016186Y007009D01*
X016339Y006980D01*
X016489Y006943D01*
X016639Y006899D01*
X016785Y006848D01*
X016930Y006790D01*
X017071Y006725D01*
X017209Y006653D01*
X017343Y006575D01*
X017474Y006491D01*
X017600Y006400D01*
X013001Y002850D02*
X013483Y002566D01*
X013978Y002305D01*
X014485Y002068D01*
X015002Y001855D01*
X015529Y001666D01*
X016064Y001502D01*
X016606Y001363D01*
X017153Y001249D01*
X017706Y001162D01*
X018262Y001100D01*
X018821Y001065D01*
X019380Y001055D01*
X019939Y001072D01*
X020497Y001115D01*
X021053Y001184D01*
X021604Y001279D01*
X022150Y001400D01*
X012999Y002850D02*
X012517Y002566D01*
X012022Y002305D01*
X011515Y002068D01*
X010998Y001855D01*
X010471Y001666D01*
X009936Y001502D01*
X009394Y001363D01*
X008847Y001249D01*
X008294Y001162D01*
X007738Y001100D01*
X007179Y001065D01*
X006620Y001055D01*
X006061Y001072D01*
X005503Y001115D01*
X004947Y001184D01*
X004396Y001279D01*
X003850Y001400D01*
D11*
X009606Y004213D03*
X009803Y004213D03*
X010000Y004213D03*
X010197Y004213D03*
X010394Y004213D03*
X010394Y005787D03*
X010197Y005787D03*
X010000Y005787D03*
X009803Y005787D03*
X009606Y005787D03*
D12*
X009213Y005394D03*
X009213Y005197D03*
X009213Y005000D03*
X009213Y004803D03*
X009213Y004606D03*
X010787Y004606D03*
X010787Y004803D03*
X010787Y005000D03*
X010787Y005197D03*
X010787Y005394D03*
D13*
X010315Y005315D03*
X010315Y004685D03*
X009685Y004685D03*
X009685Y005315D03*
D14*
X015356Y005331D03*
X015553Y005331D03*
X015750Y005331D03*
X015947Y005331D03*
X016144Y005331D03*
X016144Y004169D03*
X015947Y004169D03*
X015750Y004169D03*
X015553Y004169D03*
X015356Y004169D03*
D15*
X015159Y004652D03*
X015159Y004848D03*
X016341Y004848D03*
X016341Y004652D03*
D16*
X015750Y004750D03*
D17*
X015609Y002700D03*
X016791Y002700D03*
D18*
X014600Y003894D03*
X014050Y003894D03*
X014050Y004406D03*
X014600Y004406D03*
X014920Y005924D03*
X014920Y006436D03*
X016870Y005976D03*
X017310Y005976D03*
X017760Y005976D03*
X017760Y005464D03*
X017310Y005464D03*
X016870Y005464D03*
X011200Y003256D03*
X010700Y003256D03*
X010200Y003256D03*
X009700Y003256D03*
X009200Y003256D03*
X008700Y003256D03*
X008700Y002744D03*
X009200Y002744D03*
X009700Y002744D03*
X010200Y002744D03*
X010700Y002744D03*
X011200Y002744D03*
X008700Y004344D03*
X008700Y004856D03*
D19*
X009244Y006400D03*
X009756Y006400D03*
X010444Y006400D03*
X010956Y006400D03*
X015384Y006810D03*
X015896Y006810D03*
X009196Y002220D03*
X008684Y002220D03*
D20*
X012646Y004050D03*
X013354Y004050D03*
D21*
X018806Y004057D03*
X019594Y004057D03*
D22*
X020539Y002009D03*
X017861Y002009D03*
D23*
X021600Y002149D03*
X021600Y003251D03*
D24*
X007551Y004500D03*
X006449Y004500D03*
D25*
X016900Y004851D03*
X016900Y003749D03*
D26*
X007312Y003053D03*
X007056Y003053D03*
X006800Y003053D03*
X006544Y003053D03*
X006288Y003053D03*
D27*
X006406Y002000D03*
X007194Y002004D03*
D28*
X007450Y002827D02*
X007452Y002848D01*
X007458Y002868D01*
X007467Y002888D01*
X007479Y002905D01*
X007494Y002919D01*
X007512Y002931D01*
X007532Y002939D01*
X007552Y002944D01*
X007573Y002945D01*
X007594Y002942D01*
X007614Y002936D01*
X007633Y002925D01*
X007650Y002912D01*
X007663Y002896D01*
X007674Y002878D01*
X007682Y002858D01*
X007686Y002838D01*
X007686Y002816D01*
X007682Y002796D01*
X007674Y002776D01*
X007663Y002758D01*
X007650Y002742D01*
X007633Y002729D01*
X007614Y002718D01*
X007594Y002712D01*
X007573Y002709D01*
X007552Y002710D01*
X007532Y002715D01*
X007512Y002723D01*
X007494Y002735D01*
X007479Y002749D01*
X007467Y002766D01*
X007458Y002786D01*
X007452Y002806D01*
X007450Y002827D01*
X005914Y002827D02*
X005916Y002848D01*
X005922Y002868D01*
X005931Y002888D01*
X005943Y002905D01*
X005958Y002919D01*
X005976Y002931D01*
X005996Y002939D01*
X006016Y002944D01*
X006037Y002945D01*
X006058Y002942D01*
X006078Y002936D01*
X006097Y002925D01*
X006114Y002912D01*
X006127Y002896D01*
X006138Y002878D01*
X006146Y002858D01*
X006150Y002838D01*
X006150Y002816D01*
X006146Y002796D01*
X006138Y002776D01*
X006127Y002758D01*
X006114Y002742D01*
X006097Y002729D01*
X006078Y002718D01*
X006058Y002712D01*
X006037Y002709D01*
X006016Y002710D01*
X005996Y002715D01*
X005976Y002723D01*
X005958Y002735D01*
X005943Y002749D01*
X005931Y002766D01*
X005922Y002786D01*
X005916Y002806D01*
X005914Y002827D01*
M02*
