%
M48
M72
T01C0.0120
T02C0.0197
T03C0.0236
%
T01
X4000Y3250
X4650Y3750
X5600Y3350
X6150Y3350
X6150Y4450
X7850Y5450
X8000Y4200
X8000Y3800
X8350Y3150
X9450Y3150
X9950Y3150
X9950Y3650
X10330Y4590
X10780Y4590
X12030Y5590
X13200Y5850
X13430Y5490
X14400Y4200
X14450Y3550
X15500Y2300
X16000Y2200
X17550Y1550
X18500Y3700
X18870Y3900
X19350Y3750
X19850Y3750
X20600Y3600
X20500Y4240
X21340Y3250
X21150Y2000
X21700Y2000
X19170Y4500
X17350Y5850
X17000Y5850
X16370Y5100
X15960Y5090
X17000Y4250
X17000Y3900
X16100Y3900
X14850Y6350
X16100Y6730
X12130Y2870
X9550Y1850
X9000Y1850
X8980Y6310
X10310Y6390
X10550Y6750
X2400Y5400
X23950Y5400
T02
X20493Y2000
X18307Y2000
T03
X18632Y2827
X20168Y2827
X6900Y1700
X4600Y1700
M30
