G75*
G70*
%OFA0B0*%
%FSLAX24Y24*%
%IPPOS*%
%LPD*%
%AMOC8*
5,1,8,0,0,1.08239X$1,22.5*
%
%ADD10C,0.0030*%
%ADD11C,0.0060*%
%ADD12C,0.0050*%
%ADD13C,0.0080*%
%ADD14R,0.0280X0.0160*%
%ADD15R,0.0160X0.0280*%
%ADD16C,0.0160*%
D10*
X012510Y002905D02*
X012656Y002905D01*
X012704Y002953D01*
X012704Y003050D01*
X012656Y003098D01*
X012510Y003098D01*
X012510Y003195D02*
X012510Y002905D01*
X012804Y002905D02*
X012900Y002905D01*
X012852Y002905D02*
X012852Y003195D01*
X012900Y003195D01*
X013002Y003050D02*
X013002Y003002D01*
X013195Y003002D01*
X013195Y003050D02*
X013195Y002953D01*
X013147Y002905D01*
X013050Y002905D01*
X013002Y003050D02*
X013050Y003098D01*
X013147Y003098D01*
X013195Y003050D01*
X013343Y003098D02*
X013343Y002905D01*
X013391Y002905D02*
X013295Y002905D01*
X013493Y002905D02*
X013493Y003050D01*
X013541Y003098D01*
X013638Y003098D01*
X013686Y003050D01*
X013787Y003002D02*
X013836Y003050D01*
X013932Y003050D01*
X013981Y003098D01*
X013981Y003147D01*
X013932Y003195D01*
X013836Y003195D01*
X013787Y003147D01*
X013686Y003195D02*
X013686Y002905D01*
X013787Y002953D02*
X013836Y002905D01*
X013932Y002905D01*
X013981Y002953D01*
X013787Y002953D02*
X013787Y003002D01*
X013391Y003098D02*
X013343Y003098D01*
X013343Y003195D02*
X013343Y003244D01*
X013417Y003385D02*
X013466Y003433D01*
X013466Y003627D01*
X013514Y003578D02*
X013417Y003578D01*
X013318Y003578D02*
X013221Y003578D01*
X013269Y003627D02*
X013269Y003433D01*
X013221Y003385D01*
X013121Y003433D02*
X013121Y003530D01*
X013073Y003578D01*
X012976Y003578D01*
X012928Y003530D01*
X012928Y003482D01*
X013121Y003482D01*
X013121Y003433D02*
X013073Y003385D01*
X012976Y003385D01*
X012827Y003385D02*
X012827Y003578D01*
X012827Y003482D02*
X012730Y003578D01*
X012682Y003578D01*
X012581Y003578D02*
X012581Y003433D01*
X012533Y003385D01*
X012388Y003385D01*
X012388Y003337D02*
X012436Y003288D01*
X012484Y003288D01*
X012388Y003337D02*
X012388Y003578D01*
X013615Y003530D02*
X013615Y003385D01*
X013760Y003385D01*
X013809Y003433D01*
X013760Y003482D01*
X013615Y003482D01*
X013615Y003530D02*
X013664Y003578D01*
X013760Y003578D01*
X013910Y003578D02*
X013958Y003530D01*
X014104Y003530D01*
X014104Y003385D02*
X014104Y003675D01*
X013958Y003675D01*
X013910Y003627D01*
X013910Y003578D01*
X013958Y003530D02*
X013910Y003482D01*
X013910Y003433D01*
X013958Y003385D01*
X014104Y003385D01*
D11*
X013318Y003814D02*
X013082Y003814D01*
X013082Y004286D02*
X013318Y004286D01*
X009350Y001620D02*
X008923Y001620D01*
X009136Y001834D02*
X009136Y001407D01*
D12*
X005000Y002550D02*
X004200Y002550D01*
X015413Y004213D02*
X016987Y004213D01*
X016987Y005787D01*
X015413Y005787D01*
X015413Y004213D01*
X016781Y004016D02*
X016783Y004034D01*
X016789Y004052D01*
X016798Y004068D01*
X016810Y004081D01*
X016825Y004092D01*
X016842Y004100D01*
X016860Y004104D01*
X016878Y004104D01*
X016896Y004100D01*
X016913Y004092D01*
X016928Y004081D01*
X016940Y004068D01*
X016949Y004052D01*
X016955Y004034D01*
X016957Y004016D01*
X016955Y003998D01*
X016949Y003980D01*
X016940Y003964D01*
X016928Y003951D01*
X016913Y003940D01*
X016896Y003932D01*
X016878Y003928D01*
X016860Y003928D01*
X016842Y003932D01*
X016825Y003940D01*
X016810Y003951D01*
X016798Y003964D01*
X016789Y003980D01*
X016783Y003998D01*
X016781Y004016D01*
X019350Y004100D02*
X019350Y004900D01*
D13*
X004128Y002306D02*
X004128Y001873D01*
X004285Y001716D01*
X004915Y001716D01*
X005072Y001873D01*
X005072Y002306D01*
X005425Y002994D02*
X005425Y004372D01*
X005740Y004372D01*
X005740Y003387D01*
X006213Y003387D01*
X005072Y003094D02*
X005072Y003684D01*
X004128Y003684D01*
X004128Y003094D01*
X006213Y001419D02*
X007787Y001419D01*
X008575Y002994D02*
X008575Y004372D01*
X008260Y004372D01*
X008260Y003387D01*
X007787Y003387D01*
X009528Y003054D02*
X009733Y003241D01*
X009733Y003242D02*
X009763Y003267D01*
X009795Y003289D01*
X009830Y003307D01*
X009866Y003322D01*
X009903Y003334D01*
X009941Y003342D01*
X009980Y003346D01*
X010020Y003346D01*
X010059Y003342D01*
X010097Y003334D01*
X010134Y003322D01*
X010170Y003307D01*
X010205Y003289D01*
X010237Y003267D01*
X010267Y003242D01*
X010267Y003241D02*
X010472Y003054D01*
X010472Y002346D02*
X010236Y002109D01*
X009764Y002109D01*
X009528Y002346D01*
X011139Y004061D02*
X011041Y004159D01*
X011100Y005080D02*
X011100Y005340D01*
X010835Y005726D02*
X010205Y005726D01*
X010205Y005727D02*
X010189Y005732D01*
X010173Y005740D01*
X010159Y005750D01*
X010147Y005762D01*
X010137Y005777D01*
X010130Y005793D01*
X010126Y005810D01*
X010125Y005827D01*
X010127Y005845D01*
X010127Y006395D02*
X010125Y006413D01*
X010126Y006430D01*
X010130Y006447D01*
X010137Y006463D01*
X010147Y006478D01*
X010159Y006490D01*
X010173Y006500D01*
X010189Y006508D01*
X010205Y006513D01*
X010205Y006514D02*
X010835Y006514D01*
X010835Y006513D02*
X010851Y006508D01*
X010867Y006500D01*
X010881Y006490D01*
X010893Y006478D01*
X010903Y006463D01*
X010910Y006447D01*
X010914Y006430D01*
X010915Y006413D01*
X010913Y006395D01*
X010913Y005845D02*
X010915Y005827D01*
X010914Y005810D01*
X010910Y005793D01*
X010903Y005777D01*
X010893Y005762D01*
X010881Y005750D01*
X010867Y005740D01*
X010851Y005732D01*
X010835Y005727D01*
X009800Y005340D02*
X009800Y005080D01*
X009800Y004430D02*
X009800Y004170D01*
X018061Y003083D02*
X018061Y002453D01*
X018534Y002531D02*
X018534Y003083D01*
X018061Y003083D01*
X018534Y002531D02*
X020266Y002531D01*
X020266Y003083D01*
X020739Y003083D01*
X020739Y002453D01*
X020739Y001390D02*
X018061Y001390D01*
X018216Y004028D02*
X018806Y004028D01*
X018216Y004028D02*
X018216Y004972D01*
X018806Y004972D01*
X019594Y004972D02*
X020027Y004972D01*
X020184Y004815D01*
X020184Y004185D01*
X020027Y004028D01*
X019594Y004028D01*
D14*
X017500Y004600D03*
X017500Y003000D03*
X017000Y003000D03*
X016500Y003000D03*
X016000Y003000D03*
X015500Y003000D03*
X015000Y003000D03*
X012150Y004150D03*
X011280Y006180D03*
X009330Y005720D03*
X008440Y005720D03*
D15*
X010560Y006810D03*
X015500Y006400D03*
X016700Y006400D03*
X017260Y002220D03*
D16*
X011612Y004150D02*
X011588Y004150D01*
X008902Y005720D02*
X008878Y005720D01*
M02*
