G75*
G70*
%OFA0B0*%
%FSLAX24Y24*%
%IPPOS*%
%LPD*%
%AMOC8*
5,1,8,0,0,1.08239X$1,22.5*
%
%ADD10C,0.0030*%
%ADD11C,0.0080*%
D10*
X001924Y003695D02*
X002021Y003695D01*
X002069Y003743D01*
X002170Y003695D02*
X002170Y003985D01*
X002069Y003937D02*
X002021Y003985D01*
X001924Y003985D01*
X001876Y003937D01*
X001876Y003743D01*
X001924Y003695D01*
X002170Y003840D02*
X002364Y003840D01*
X002465Y003792D02*
X002610Y003792D01*
X002658Y003840D01*
X002658Y003937D01*
X002610Y003985D01*
X002465Y003985D01*
X002465Y003695D01*
X002364Y003695D02*
X002364Y003985D01*
X002562Y003792D02*
X002658Y003695D01*
X002760Y003743D02*
X002808Y003695D01*
X002905Y003695D01*
X002953Y003743D01*
X002953Y003840D01*
X002856Y003840D01*
X002760Y003937D02*
X002760Y003743D01*
X002760Y003937D02*
X002808Y003985D01*
X002905Y003985D01*
X002953Y003937D01*
X012666Y003815D02*
X012666Y003525D01*
X012811Y003525D01*
X012859Y003573D01*
X012859Y003767D01*
X012811Y003815D01*
X012666Y003815D01*
X012960Y003767D02*
X012960Y003573D01*
X013009Y003525D01*
X013105Y003525D01*
X013154Y003573D01*
X013154Y003767D01*
X013105Y003815D01*
X013009Y003815D01*
X012960Y003767D01*
X013255Y003815D02*
X013255Y003525D01*
X013448Y003525D02*
X013255Y003815D01*
X013448Y003815D02*
X013448Y003525D01*
X013550Y003525D02*
X013743Y003525D01*
X013646Y003670D02*
X013550Y003670D01*
X013550Y003815D02*
X013550Y003525D01*
X013550Y003815D02*
X013743Y003815D01*
X023653Y003752D02*
X023798Y003752D01*
X023847Y003800D01*
X023847Y003897D01*
X023798Y003945D01*
X023653Y003945D01*
X023653Y003655D01*
X023948Y003655D02*
X024044Y003752D01*
X024141Y003655D01*
X024141Y003945D01*
X024242Y003945D02*
X024387Y003945D01*
X024436Y003897D01*
X024436Y003800D01*
X024387Y003752D01*
X024242Y003752D01*
X024242Y003655D02*
X024242Y003945D01*
X024339Y003752D02*
X024436Y003655D01*
X023948Y003655D02*
X023948Y003945D01*
D11*
X023919Y004533D02*
X024100Y004533D01*
X024008Y004655D01*
X024100Y004533D02*
X024281Y004533D01*
X024186Y004655D02*
X024110Y004539D01*
X013267Y003321D02*
X013267Y003140D01*
X013145Y003048D01*
X013267Y002959D02*
X013267Y003140D01*
X013261Y003150D02*
X013145Y003226D01*
X002481Y004533D02*
X002300Y004533D01*
X002208Y004655D01*
X002119Y004533D02*
X002300Y004533D01*
X002310Y004539D02*
X002386Y004655D01*
M02*
