G75*
G70*
%OFA0B0*%
%FSLAX24Y24*%
%IPPOS*%
%LPD*%
%AMOC8*
5,1,8,0,0,1.08239X$1,22.5*
%
%ADD10C,0.0010*%
%ADD11R,0.0118X0.0295*%
%ADD12R,0.0295X0.0118*%
%ADD13R,0.0315X0.0315*%
%ADD14R,0.0117X0.0335*%
%ADD15R,0.0276X0.0110*%
%ADD16R,0.0940X0.0340*%
%ADD17R,0.0512X0.0512*%
%ADD18R,0.0276X0.0354*%
%ADD19R,0.0354X0.0276*%
%ADD20R,0.0315X0.0472*%
%ADD21R,0.0394X0.1811*%
%ADD22R,0.0630X0.1339*%
%ADD23R,0.0630X0.0551*%
%ADD24R,0.0512X0.0591*%
%ADD25R,0.0551X0.0630*%
%ADD26R,0.0315X0.0866*%
%ADD27R,0.0709X0.0630*%
%ADD28R,0.0157X0.0531*%
%ADD29R,0.0591X0.0748*%
%ADD30C,0.0000*%
D10*
X002750Y001950D02*
X002639Y002027D01*
X002532Y002110D01*
X002428Y002197D01*
X002329Y002290D01*
X002235Y002387D01*
X002145Y002488D01*
X002060Y002594D01*
X001981Y002704D01*
X001907Y002817D01*
X001838Y002934D01*
X001775Y003054D01*
X001718Y003177D01*
X001667Y003302D01*
X001622Y003430D01*
X001583Y003559D01*
X001550Y003691D01*
X001524Y003824D01*
X001504Y003958D01*
X001491Y004092D01*
X001484Y004228D01*
X001484Y004363D01*
X001490Y004498D01*
X001502Y004633D01*
X001521Y004767D01*
X001547Y004900D01*
X001579Y005032D01*
X001617Y005162D01*
X001661Y005290D01*
X001711Y005416D01*
X001768Y005539D01*
X001830Y005659D01*
X001898Y005776D01*
X001971Y005890D01*
X002050Y006000D01*
X003400Y006700D02*
X003453Y006700D01*
X003506Y006696D01*
X003558Y006689D01*
X003610Y006678D01*
X003661Y006664D01*
X003711Y006647D01*
X003760Y006626D01*
X003808Y006603D01*
X003853Y006576D01*
X003897Y006546D01*
X003939Y006513D01*
X003978Y006478D01*
X004015Y006440D01*
X004050Y006400D01*
X004450Y005900D01*
X004406Y005942D01*
X004359Y005981D01*
X004310Y006017D01*
X004259Y006051D01*
X004206Y006081D01*
X004151Y006107D01*
X004095Y006131D01*
X004038Y006150D01*
X003979Y006167D01*
X003919Y006179D01*
X003859Y006188D01*
X003799Y006193D01*
X003738Y006195D01*
X003677Y006193D01*
X003616Y006187D01*
X003556Y006177D01*
X003497Y006164D01*
X003438Y006147D01*
X003381Y006127D01*
X003325Y006103D01*
X003270Y006076D01*
X003218Y006045D01*
X003167Y006011D01*
X003118Y005975D01*
X003072Y005935D01*
X003029Y005893D01*
X002988Y005848D01*
X002949Y005800D01*
X002050Y006000D02*
X002101Y006065D01*
X002155Y006127D01*
X002213Y006187D01*
X002273Y006244D01*
X002335Y006298D01*
X002400Y006350D01*
X002468Y006398D01*
X002537Y006443D01*
X002609Y006484D01*
X002682Y006522D01*
X002757Y006557D01*
X002834Y006588D01*
X002912Y006615D01*
X002992Y006639D01*
X003072Y006659D01*
X003153Y006675D01*
X003235Y006687D01*
X003317Y006696D01*
X003400Y006700D01*
X003300Y004000D02*
X003436Y003982D01*
X003572Y003970D01*
X003709Y003965D01*
X003846Y003967D01*
X003983Y003974D01*
X004119Y003989D01*
X004254Y004009D01*
X004389Y004036D01*
X004522Y004069D01*
X004653Y004109D01*
X004782Y004154D01*
X004909Y004206D01*
X005033Y004264D01*
X005155Y004327D01*
X005273Y004396D01*
X005389Y004470D01*
X005500Y004550D01*
X002950Y005800D02*
X002902Y005734D01*
X002858Y005665D01*
X002816Y005595D01*
X002778Y005523D01*
X002744Y005449D01*
X002712Y005374D01*
X002684Y005298D01*
X002660Y005220D01*
X002640Y005141D01*
X002623Y005061D01*
X002609Y004981D01*
X002600Y004900D01*
X002601Y004900D02*
X002597Y004843D01*
X002598Y004786D01*
X002602Y004729D01*
X002610Y004673D01*
X002623Y004617D01*
X002639Y004562D01*
X002658Y004509D01*
X002682Y004457D01*
X002708Y004406D01*
X002739Y004358D01*
X002772Y004312D01*
X002809Y004268D01*
X002848Y004227D01*
X002890Y004188D01*
X002935Y004153D01*
X002982Y004121D01*
X003031Y004092D01*
X003082Y004066D01*
X003135Y004044D01*
X003189Y004026D01*
X003244Y004012D01*
X003300Y004001D01*
X002750Y001950D02*
X002947Y001826D01*
X003150Y001712D01*
X003358Y001608D01*
X003571Y001513D01*
X003788Y001429D01*
X004009Y001355D01*
X004233Y001291D01*
X004460Y001239D01*
X004689Y001196D01*
X004919Y001165D01*
X005151Y001145D01*
X005384Y001136D01*
X005617Y001137D01*
X005850Y001150D01*
X017600Y006400D02*
X018351Y005979D01*
X019085Y005531D01*
X019802Y005054D01*
X020500Y004550D01*
X023050Y005800D02*
X023098Y005734D01*
X023142Y005665D01*
X023184Y005595D01*
X023222Y005523D01*
X023256Y005449D01*
X023288Y005374D01*
X023316Y005298D01*
X023340Y005220D01*
X023360Y005141D01*
X023377Y005061D01*
X023391Y004981D01*
X023400Y004900D01*
X023399Y004900D02*
X023403Y004843D01*
X023402Y004786D01*
X023398Y004729D01*
X023390Y004673D01*
X023377Y004617D01*
X023361Y004562D01*
X023342Y004509D01*
X023318Y004457D01*
X023292Y004406D01*
X023261Y004358D01*
X023228Y004312D01*
X023191Y004268D01*
X023152Y004227D01*
X023110Y004188D01*
X023065Y004153D01*
X023018Y004121D01*
X022969Y004092D01*
X022918Y004066D01*
X022865Y004044D01*
X022811Y004026D01*
X022756Y004012D01*
X022700Y004001D01*
X023950Y006000D02*
X023899Y006065D01*
X023845Y006127D01*
X023787Y006187D01*
X023727Y006244D01*
X023665Y006298D01*
X023600Y006350D01*
X023532Y006398D01*
X023463Y006443D01*
X023391Y006484D01*
X023318Y006522D01*
X023243Y006557D01*
X023166Y006588D01*
X023088Y006615D01*
X023008Y006639D01*
X022928Y006659D01*
X022847Y006675D01*
X022765Y006687D01*
X022683Y006696D01*
X022600Y006700D01*
X022700Y004000D02*
X022564Y003982D01*
X022428Y003970D01*
X022291Y003965D01*
X022154Y003967D01*
X022017Y003974D01*
X021881Y003989D01*
X021746Y004009D01*
X021611Y004036D01*
X021478Y004069D01*
X021347Y004109D01*
X021218Y004154D01*
X021091Y004206D01*
X020967Y004264D01*
X020845Y004327D01*
X020727Y004396D01*
X020611Y004470D01*
X020500Y004550D01*
X023950Y006000D02*
X024029Y005890D01*
X024102Y005776D01*
X024170Y005659D01*
X024232Y005539D01*
X024289Y005416D01*
X024339Y005290D01*
X024383Y005162D01*
X024421Y005032D01*
X024453Y004900D01*
X024479Y004767D01*
X024498Y004633D01*
X024510Y004498D01*
X024516Y004363D01*
X024516Y004228D01*
X024509Y004092D01*
X024496Y003958D01*
X024476Y003824D01*
X024450Y003691D01*
X024417Y003559D01*
X024378Y003430D01*
X024333Y003302D01*
X024282Y003177D01*
X024225Y003054D01*
X024162Y002934D01*
X024093Y002817D01*
X024019Y002704D01*
X023940Y002594D01*
X023855Y002488D01*
X023765Y002387D01*
X023671Y002290D01*
X023572Y002197D01*
X023468Y002110D01*
X023361Y002027D01*
X023250Y001950D01*
X023051Y005800D02*
X023012Y005848D01*
X022971Y005893D01*
X022928Y005935D01*
X022882Y005975D01*
X022833Y006011D01*
X022782Y006045D01*
X022730Y006076D01*
X022675Y006103D01*
X022619Y006127D01*
X022562Y006147D01*
X022503Y006164D01*
X022444Y006177D01*
X022384Y006187D01*
X022323Y006193D01*
X022262Y006195D01*
X022201Y006193D01*
X022141Y006188D01*
X022081Y006179D01*
X022021Y006167D01*
X021962Y006150D01*
X021905Y006131D01*
X021849Y006107D01*
X021794Y006081D01*
X021741Y006051D01*
X021690Y006017D01*
X021641Y005981D01*
X021594Y005942D01*
X021550Y005900D01*
X021950Y006400D01*
X021985Y006440D01*
X022022Y006478D01*
X022061Y006513D01*
X022103Y006546D01*
X022147Y006576D01*
X022192Y006603D01*
X022240Y006626D01*
X022289Y006647D01*
X022339Y006664D01*
X022390Y006678D01*
X022442Y006689D01*
X022494Y006696D01*
X022547Y006700D01*
X022600Y006700D01*
X023250Y001950D02*
X023053Y001826D01*
X022850Y001712D01*
X022642Y001608D01*
X022429Y001513D01*
X022212Y001429D01*
X021991Y001355D01*
X021767Y001291D01*
X021540Y001239D01*
X021311Y001196D01*
X021081Y001165D01*
X020849Y001145D01*
X020616Y001136D01*
X020383Y001137D01*
X020150Y001150D01*
X008400Y006400D02*
X007649Y005979D01*
X006915Y005531D01*
X006198Y005054D01*
X005500Y004550D01*
X007500Y001200D02*
X007858Y001202D01*
X008216Y001221D01*
X008572Y001257D01*
X008925Y001309D01*
X009277Y001378D01*
X009624Y001463D01*
X009967Y001564D01*
X010305Y001681D01*
X010637Y001814D01*
X010963Y001962D01*
X011281Y002126D01*
X011592Y002304D01*
X011893Y002496D01*
X012186Y002702D01*
X012468Y002922D01*
X012740Y003155D01*
X013000Y003400D01*
X014600Y006900D02*
X014752Y006945D01*
X014905Y006982D01*
X015060Y007013D01*
X015216Y007036D01*
X015374Y007051D01*
X015531Y007059D01*
X015689Y007059D01*
X015847Y007052D01*
X016005Y007037D01*
X016161Y007015D01*
X016316Y006985D01*
X016470Y006948D01*
X016621Y006904D01*
X016771Y006852D01*
X016918Y006794D01*
X017061Y006728D01*
X017202Y006656D01*
X017339Y006577D01*
X017472Y006491D01*
X017600Y006400D01*
X018500Y001200D02*
X018142Y001202D01*
X017784Y001221D01*
X017428Y001257D01*
X017075Y001309D01*
X016723Y001378D01*
X016376Y001463D01*
X016033Y001564D01*
X015695Y001681D01*
X015363Y001814D01*
X015037Y001962D01*
X014719Y002126D01*
X014408Y002304D01*
X014107Y002496D01*
X013814Y002702D01*
X013532Y002922D01*
X013260Y003155D01*
X013000Y003400D01*
X011400Y006900D02*
X011248Y006945D01*
X011095Y006982D01*
X010940Y007013D01*
X010784Y007036D01*
X010626Y007051D01*
X010469Y007059D01*
X010311Y007059D01*
X010153Y007052D01*
X009995Y007037D01*
X009839Y007015D01*
X009684Y006985D01*
X009530Y006948D01*
X009379Y006904D01*
X009229Y006852D01*
X009082Y006794D01*
X008939Y006728D01*
X008798Y006656D01*
X008661Y006577D01*
X008528Y006491D01*
X008400Y006400D01*
X011400Y006900D02*
X012100Y006900D01*
X012100Y007300D01*
X013900Y007300D01*
X013900Y006900D01*
X014600Y006900D01*
X018500Y001200D02*
X019326Y001195D01*
X020150Y001150D01*
X007500Y001200D02*
X006674Y001195D01*
X005850Y001150D01*
D11*
X009606Y004213D03*
X009803Y004213D03*
X010000Y004213D03*
X010197Y004213D03*
X010394Y004213D03*
X010394Y005787D03*
X010197Y005787D03*
X010000Y005787D03*
X009803Y005787D03*
X009606Y005787D03*
D12*
X009213Y005394D03*
X009213Y005197D03*
X009213Y005000D03*
X009213Y004803D03*
X009213Y004606D03*
X010787Y004606D03*
X010787Y004803D03*
X010787Y005000D03*
X010787Y005197D03*
X010787Y005394D03*
D13*
X010315Y005315D03*
X010315Y004685D03*
X009685Y004685D03*
X009685Y005315D03*
D14*
X015206Y005181D03*
X015403Y005181D03*
X015600Y005181D03*
X015797Y005181D03*
X015994Y005181D03*
X015994Y004019D03*
X015797Y004019D03*
X015600Y004019D03*
X015403Y004019D03*
X015206Y004019D03*
D15*
X015009Y004502D03*
X015009Y004698D03*
X016191Y004698D03*
X016191Y004502D03*
D16*
X015600Y004600D03*
D17*
X015609Y002700D03*
X016791Y002700D03*
D18*
X014356Y005100D03*
X013844Y005100D03*
X014844Y006400D03*
X015356Y006400D03*
X015344Y005800D03*
X015856Y005800D03*
X016344Y005800D03*
X016856Y005800D03*
X016856Y006400D03*
X016344Y006400D03*
X010956Y006400D03*
X010444Y006400D03*
X009756Y006400D03*
X009244Y006400D03*
D19*
X008700Y004856D03*
X008700Y004344D03*
X008700Y003256D03*
X009200Y003256D03*
X009700Y003256D03*
X010200Y003256D03*
X010700Y003256D03*
X011200Y003256D03*
X011200Y002744D03*
X010700Y002744D03*
X010200Y002744D03*
X009700Y002744D03*
X009200Y002744D03*
X008700Y002744D03*
X014600Y004044D03*
X014600Y004556D03*
D20*
X013354Y005150D03*
X012646Y005150D03*
D21*
X018806Y004057D03*
X019594Y004057D03*
D22*
X020539Y002009D03*
X017861Y002009D03*
D23*
X021600Y002149D03*
X021600Y003251D03*
D24*
X009474Y002100D03*
X008726Y002100D03*
D25*
X007551Y004500D03*
X006449Y004500D03*
D26*
X012488Y006800D03*
X013000Y006800D03*
X013531Y006800D03*
D27*
X016900Y004851D03*
X016900Y003749D03*
D28*
X007312Y003053D03*
X007056Y003053D03*
X006800Y003053D03*
X006544Y003053D03*
X006288Y003053D03*
D29*
X006406Y002000D03*
X007194Y002004D03*
D30*
X007450Y002827D02*
X007452Y002848D01*
X007458Y002868D01*
X007467Y002888D01*
X007479Y002905D01*
X007494Y002919D01*
X007512Y002931D01*
X007532Y002939D01*
X007552Y002944D01*
X007573Y002945D01*
X007594Y002942D01*
X007614Y002936D01*
X007633Y002925D01*
X007650Y002912D01*
X007663Y002896D01*
X007674Y002878D01*
X007682Y002858D01*
X007686Y002838D01*
X007686Y002816D01*
X007682Y002796D01*
X007674Y002776D01*
X007663Y002758D01*
X007650Y002742D01*
X007633Y002729D01*
X007614Y002718D01*
X007594Y002712D01*
X007573Y002709D01*
X007552Y002710D01*
X007532Y002715D01*
X007512Y002723D01*
X007494Y002735D01*
X007479Y002749D01*
X007467Y002766D01*
X007458Y002786D01*
X007452Y002806D01*
X007450Y002827D01*
X005914Y002827D02*
X005916Y002848D01*
X005922Y002868D01*
X005931Y002888D01*
X005943Y002905D01*
X005958Y002919D01*
X005976Y002931D01*
X005996Y002939D01*
X006016Y002944D01*
X006037Y002945D01*
X006058Y002942D01*
X006078Y002936D01*
X006097Y002925D01*
X006114Y002912D01*
X006127Y002896D01*
X006138Y002878D01*
X006146Y002858D01*
X006150Y002838D01*
X006150Y002816D01*
X006146Y002796D01*
X006138Y002776D01*
X006127Y002758D01*
X006114Y002742D01*
X006097Y002729D01*
X006078Y002718D01*
X006058Y002712D01*
X006037Y002709D01*
X006016Y002710D01*
X005996Y002715D01*
X005976Y002723D01*
X005958Y002735D01*
X005943Y002749D01*
X005931Y002766D01*
X005922Y002786D01*
X005916Y002806D01*
X005914Y002827D01*
M02*
