G75*
G70*
%OFA0B0*%
%FSLAX24Y24*%
%IPPOS*%
%LPD*%
%AMOC8*
5,1,8,0,0,1.08239X$1,22.5*
%
%ADD10C,0.0010*%
%ADD11R,0.0118X0.0295*%
%ADD12R,0.0295X0.0118*%
%ADD13R,0.0984X0.0984*%
%ADD14R,0.0117X0.0335*%
%ADD15R,0.0945X0.0650*%
%ADD16R,0.0276X0.0110*%
%ADD17R,0.0512X0.0512*%
%ADD18R,0.0354X0.0276*%
%ADD19R,0.0276X0.0354*%
%ADD20R,0.0315X0.0472*%
%ADD21R,0.0394X0.1811*%
%ADD22R,0.0630X0.1339*%
%ADD23R,0.0630X0.0551*%
%ADD24R,0.0551X0.0630*%
%ADD25R,0.0709X0.0630*%
%ADD26R,0.0157X0.0531*%
%ADD27R,0.0591X0.0748*%
%ADD28C,0.0437*%
%ADD29R,0.0250X0.0500*%
%ADD30R,0.0315X0.0866*%
%ADD31C,0.0080*%
%ADD32C,0.0320*%
%ADD33C,0.0120*%
%ADD34C,0.0100*%
%ADD35C,0.0320*%
%ADD36C,0.0160*%
%ADD37C,0.0318*%
%ADD38C,0.0060*%
%ADD39C,0.0560*%
%ADD40C,0.0436*%
%ADD41C,0.0400*%
D10*
X007250Y003600D02*
X007250Y004900D01*
X008400Y004900D01*
X008400Y003600D01*
X007250Y003600D01*
X007250Y003608D02*
X008400Y003608D01*
X008400Y003616D02*
X007250Y003616D01*
X007250Y003625D02*
X008400Y003625D01*
X008400Y003633D02*
X007250Y003633D01*
X007250Y003642D02*
X008400Y003642D01*
X008400Y003650D02*
X007250Y003650D01*
X007250Y003659D02*
X008400Y003659D01*
X008400Y003667D02*
X007250Y003667D01*
X007250Y003676D02*
X008400Y003676D01*
X008400Y003684D02*
X007250Y003684D01*
X007250Y003693D02*
X008400Y003693D01*
X008400Y003701D02*
X007250Y003701D01*
X007250Y003710D02*
X008400Y003710D01*
X008400Y003718D02*
X007250Y003718D01*
X007250Y003727D02*
X008400Y003727D01*
X008400Y003735D02*
X007250Y003735D01*
X007250Y003744D02*
X008400Y003744D01*
X008400Y003752D02*
X007250Y003752D01*
X007250Y003761D02*
X008400Y003761D01*
X008400Y003769D02*
X007250Y003769D01*
X007250Y003778D02*
X008400Y003778D01*
X008400Y003786D02*
X007250Y003786D01*
X007250Y003795D02*
X008400Y003795D01*
X008400Y003803D02*
X007250Y003803D01*
X007250Y003812D02*
X008400Y003812D01*
X008400Y003820D02*
X007250Y003820D01*
X007250Y003829D02*
X008400Y003829D01*
X008400Y003837D02*
X007250Y003837D01*
X007250Y003846D02*
X008400Y003846D01*
X008400Y003854D02*
X007250Y003854D01*
X007250Y003863D02*
X008400Y003863D01*
X008400Y003871D02*
X007250Y003871D01*
X007250Y003880D02*
X008400Y003880D01*
X008400Y003888D02*
X007250Y003888D01*
X007250Y003897D02*
X008400Y003897D01*
X008400Y003905D02*
X007250Y003905D01*
X007250Y003914D02*
X008400Y003914D01*
X008400Y003922D02*
X007250Y003922D01*
X007250Y003931D02*
X008400Y003931D01*
X008400Y003939D02*
X007250Y003939D01*
X007250Y003948D02*
X008400Y003948D01*
X008400Y003956D02*
X007250Y003956D01*
X007250Y003965D02*
X008400Y003965D01*
X008400Y003973D02*
X007250Y003973D01*
X007250Y003982D02*
X008400Y003982D01*
X008400Y003990D02*
X007250Y003990D01*
X007250Y003999D02*
X008400Y003999D01*
X008400Y004007D02*
X007250Y004007D01*
X007250Y004016D02*
X008400Y004016D01*
X008400Y004024D02*
X007250Y004024D01*
X007250Y004033D02*
X008400Y004033D01*
X008400Y004041D02*
X007250Y004041D01*
X007250Y004050D02*
X008400Y004050D01*
X008400Y004058D02*
X007250Y004058D01*
X007250Y004067D02*
X008400Y004067D01*
X008400Y004075D02*
X007250Y004075D01*
X007250Y004084D02*
X008400Y004084D01*
X008400Y004092D02*
X007250Y004092D01*
X007250Y004101D02*
X008400Y004101D01*
X008400Y004109D02*
X007250Y004109D01*
X007250Y004118D02*
X008400Y004118D01*
X008400Y004126D02*
X007250Y004126D01*
X007250Y004135D02*
X008400Y004135D01*
X008400Y004143D02*
X007250Y004143D01*
X007250Y004152D02*
X008400Y004152D01*
X008400Y004160D02*
X007250Y004160D01*
X007250Y004169D02*
X008400Y004169D01*
X008400Y004177D02*
X007250Y004177D01*
X007250Y004186D02*
X008400Y004186D01*
X008400Y004194D02*
X007250Y004194D01*
X007250Y004203D02*
X008400Y004203D01*
X008400Y004211D02*
X007250Y004211D01*
X007250Y004220D02*
X008400Y004220D01*
X008400Y004228D02*
X007250Y004228D01*
X007250Y004237D02*
X008400Y004237D01*
X008400Y004245D02*
X007250Y004245D01*
X007250Y004254D02*
X008400Y004254D01*
X008400Y004262D02*
X007250Y004262D01*
X007250Y004271D02*
X008400Y004271D01*
X008400Y004279D02*
X007250Y004279D01*
X007250Y004288D02*
X008400Y004288D01*
X008400Y004296D02*
X007250Y004296D01*
X007250Y004305D02*
X008400Y004305D01*
X008400Y004313D02*
X007250Y004313D01*
X007250Y004322D02*
X008400Y004322D01*
X008400Y004330D02*
X007250Y004330D01*
X007250Y004339D02*
X008400Y004339D01*
X008400Y004347D02*
X007250Y004347D01*
X007250Y004356D02*
X008400Y004356D01*
X008400Y004364D02*
X007250Y004364D01*
X007250Y004373D02*
X008400Y004373D01*
X008400Y004381D02*
X007250Y004381D01*
X007250Y004390D02*
X008400Y004390D01*
X008400Y004398D02*
X007250Y004398D01*
X007250Y004407D02*
X008400Y004407D01*
X008400Y004415D02*
X007250Y004415D01*
X007250Y004424D02*
X008400Y004424D01*
X008400Y004432D02*
X007250Y004432D01*
X007250Y004441D02*
X008400Y004441D01*
X008400Y004449D02*
X007250Y004449D01*
X007250Y004458D02*
X008400Y004458D01*
X008400Y004466D02*
X007250Y004466D01*
X007250Y004475D02*
X008400Y004475D01*
X008400Y004483D02*
X007250Y004483D01*
X007250Y004492D02*
X008400Y004492D01*
X008400Y004500D02*
X007250Y004500D01*
X007250Y004509D02*
X008400Y004509D01*
X008400Y004517D02*
X007250Y004517D01*
X007250Y004526D02*
X008400Y004526D01*
X008400Y004534D02*
X007250Y004534D01*
X007250Y004543D02*
X008400Y004543D01*
X008400Y004551D02*
X007250Y004551D01*
X007250Y004560D02*
X008400Y004560D01*
X008400Y004568D02*
X007250Y004568D01*
X007250Y004577D02*
X008400Y004577D01*
X008400Y004585D02*
X007250Y004585D01*
X007250Y004594D02*
X008400Y004594D01*
X008400Y004602D02*
X007250Y004602D01*
X007250Y004611D02*
X008400Y004611D01*
X008400Y004619D02*
X007250Y004619D01*
X007250Y004628D02*
X008400Y004628D01*
X008400Y004636D02*
X007250Y004636D01*
X007250Y004645D02*
X008400Y004645D01*
X008400Y004653D02*
X007250Y004653D01*
X007250Y004662D02*
X008400Y004662D01*
X008400Y004670D02*
X007250Y004670D01*
X007250Y004679D02*
X008400Y004679D01*
X008400Y004687D02*
X007250Y004687D01*
X007250Y004696D02*
X008400Y004696D01*
X008400Y004704D02*
X007250Y004704D01*
X007250Y004713D02*
X008400Y004713D01*
X008400Y004721D02*
X007250Y004721D01*
X007250Y004730D02*
X008400Y004730D01*
X008400Y004738D02*
X007250Y004738D01*
X007250Y004747D02*
X008400Y004747D01*
X008400Y004755D02*
X007250Y004755D01*
X007250Y004764D02*
X008400Y004764D01*
X008400Y004772D02*
X007250Y004772D01*
X007250Y004781D02*
X008400Y004781D01*
X008400Y004789D02*
X007250Y004789D01*
X007250Y004798D02*
X008400Y004798D01*
X008400Y004806D02*
X007250Y004806D01*
X007250Y004815D02*
X008400Y004815D01*
X008400Y004823D02*
X007250Y004823D01*
X007250Y004832D02*
X008400Y004832D01*
X008400Y004840D02*
X007250Y004840D01*
X007250Y004849D02*
X008400Y004849D01*
X008400Y004857D02*
X007250Y004857D01*
X007250Y004866D02*
X008400Y004866D01*
X008400Y004874D02*
X007250Y004874D01*
X007250Y004883D02*
X008400Y004883D01*
X008400Y004891D02*
X007250Y004891D01*
X007250Y004900D02*
X008400Y004900D01*
X016350Y005650D02*
X016350Y006143D01*
X016365Y006158D01*
X016609Y006158D01*
X016647Y006196D01*
X016647Y006200D01*
X016753Y006200D01*
X016753Y006196D01*
X016791Y006158D01*
X017121Y006158D01*
X017159Y006196D01*
X017159Y006200D01*
X017600Y006200D01*
X017600Y005450D01*
X016850Y005450D01*
X016850Y005650D01*
X016350Y005650D01*
X016350Y005656D02*
X017600Y005656D01*
X017600Y005648D02*
X016850Y005648D01*
X016850Y005639D02*
X017600Y005639D01*
X017600Y005631D02*
X016850Y005631D01*
X016850Y005622D02*
X017600Y005622D01*
X017600Y005614D02*
X016850Y005614D01*
X016850Y005605D02*
X017600Y005605D01*
X017600Y005597D02*
X016850Y005597D01*
X016850Y005588D02*
X017600Y005588D01*
X017600Y005580D02*
X016850Y005580D01*
X016850Y005571D02*
X017600Y005571D01*
X017600Y005563D02*
X016850Y005563D01*
X016850Y005554D02*
X017600Y005554D01*
X017600Y005546D02*
X016850Y005546D01*
X016850Y005537D02*
X017600Y005537D01*
X017600Y005529D02*
X016850Y005529D01*
X016850Y005520D02*
X017600Y005520D01*
X017600Y005512D02*
X016850Y005512D01*
X016850Y005503D02*
X017600Y005503D01*
X017600Y005495D02*
X016850Y005495D01*
X016850Y005486D02*
X017600Y005486D01*
X017600Y005478D02*
X016850Y005478D01*
X016850Y005469D02*
X017600Y005469D01*
X017600Y005461D02*
X016850Y005461D01*
X016850Y005452D02*
X017600Y005452D01*
X017600Y005665D02*
X016350Y005665D01*
X016350Y005673D02*
X017600Y005673D01*
X017600Y005682D02*
X016350Y005682D01*
X016350Y005690D02*
X017600Y005690D01*
X017600Y005699D02*
X016350Y005699D01*
X016350Y005707D02*
X017600Y005707D01*
X017600Y005716D02*
X016350Y005716D01*
X016350Y005724D02*
X017600Y005724D01*
X017600Y005733D02*
X016350Y005733D01*
X016350Y005741D02*
X017600Y005741D01*
X017600Y005750D02*
X016350Y005750D01*
X016350Y005758D02*
X017600Y005758D01*
X017600Y005767D02*
X016350Y005767D01*
X016350Y005775D02*
X017600Y005775D01*
X017600Y005784D02*
X016350Y005784D01*
X016350Y005792D02*
X017600Y005792D01*
X017600Y005801D02*
X016350Y005801D01*
X016350Y005809D02*
X017600Y005809D01*
X017600Y005818D02*
X016350Y005818D01*
X016350Y005826D02*
X017600Y005826D01*
X017600Y005835D02*
X016350Y005835D01*
X016350Y005843D02*
X017600Y005843D01*
X017600Y005852D02*
X016350Y005852D01*
X016350Y005860D02*
X017600Y005860D01*
X017600Y005869D02*
X016350Y005869D01*
X016350Y005877D02*
X017600Y005877D01*
X017600Y005886D02*
X016350Y005886D01*
X016350Y005894D02*
X017600Y005894D01*
X017600Y005903D02*
X016350Y005903D01*
X016350Y005911D02*
X017600Y005911D01*
X017600Y005920D02*
X016350Y005920D01*
X016350Y005928D02*
X017600Y005928D01*
X017600Y005937D02*
X016350Y005937D01*
X016350Y005945D02*
X017600Y005945D01*
X017600Y005954D02*
X016350Y005954D01*
X016350Y005962D02*
X017600Y005962D01*
X017600Y005971D02*
X016350Y005971D01*
X016350Y005979D02*
X017600Y005979D01*
X017600Y005988D02*
X016350Y005988D01*
X016350Y005996D02*
X017600Y005996D01*
X017600Y006005D02*
X016350Y006005D01*
X016350Y006013D02*
X017600Y006013D01*
X017600Y006022D02*
X016350Y006022D01*
X016350Y006030D02*
X017600Y006030D01*
X017600Y006039D02*
X016350Y006039D01*
X016350Y006047D02*
X017600Y006047D01*
X017600Y006056D02*
X016350Y006056D01*
X016350Y006064D02*
X017600Y006064D01*
X017600Y006073D02*
X016350Y006073D01*
X016350Y006081D02*
X017600Y006081D01*
X017600Y006090D02*
X016350Y006090D01*
X016350Y006098D02*
X017600Y006098D01*
X017600Y006107D02*
X016350Y006107D01*
X016350Y006115D02*
X017600Y006115D01*
X017600Y006124D02*
X016350Y006124D01*
X016350Y006132D02*
X017600Y006132D01*
X017600Y006141D02*
X016350Y006141D01*
X016356Y006149D02*
X017600Y006149D01*
X017600Y006158D02*
X016364Y006158D01*
X016617Y006166D02*
X016783Y006166D01*
X016774Y006175D02*
X016626Y006175D01*
X016634Y006183D02*
X016766Y006183D01*
X016757Y006192D02*
X016643Y006192D01*
X017129Y006166D02*
X017600Y006166D01*
X017600Y006175D02*
X017137Y006175D01*
X017146Y006183D02*
X017600Y006183D01*
X017600Y006192D02*
X017154Y006192D01*
X017192Y005300D02*
X019412Y005300D01*
X019939Y004963D01*
X020634Y004462D01*
X020700Y004412D01*
X020700Y002800D01*
X020391Y002800D01*
X020391Y002919D01*
X020700Y002919D01*
X020700Y002911D02*
X020391Y002911D01*
X020391Y002919D02*
X020260Y003050D01*
X020075Y003050D01*
X019945Y002919D01*
X019800Y002919D01*
X019800Y002911D02*
X019945Y002911D01*
X019945Y002919D02*
X019945Y002800D01*
X019800Y002800D01*
X019800Y003337D01*
X019879Y003416D01*
X020033Y003416D01*
X020164Y003547D01*
X020164Y003733D01*
X020033Y003864D01*
X019847Y003864D01*
X019716Y003733D01*
X019716Y003579D01*
X019541Y003404D01*
X019515Y003404D01*
X019515Y003400D02*
X019515Y003478D01*
X019644Y003607D01*
X019644Y003793D01*
X019513Y003924D01*
X019327Y003924D01*
X019196Y003793D01*
X019196Y003607D01*
X019285Y003518D01*
X019285Y003400D01*
X019013Y003400D01*
X019013Y003725D01*
X019095Y003807D01*
X019095Y003993D01*
X019013Y004075D01*
X019013Y004275D01*
X019263Y004275D01*
X019395Y004407D01*
X019395Y004593D01*
X019263Y004725D01*
X018989Y004725D01*
X018989Y004842D01*
X018951Y004880D01*
X018346Y004880D01*
X018308Y004842D01*
X018308Y004158D01*
X018346Y004120D01*
X018763Y004120D01*
X018763Y004111D01*
X018645Y003993D01*
X018645Y003807D01*
X018763Y003689D01*
X018763Y003400D01*
X017800Y003400D01*
X017800Y004800D01*
X016800Y004800D01*
X016800Y005282D01*
X016800Y005282D01*
X016813Y005270D01*
X016935Y005270D01*
X016936Y005269D01*
X017039Y005269D01*
X017040Y005270D01*
X017162Y005270D01*
X017192Y005300D01*
X017191Y005299D02*
X019413Y005299D01*
X019426Y005291D02*
X017183Y005291D01*
X017174Y005282D02*
X019440Y005282D01*
X019453Y005274D02*
X017166Y005274D01*
X016809Y005274D02*
X016800Y005274D01*
X016800Y005265D02*
X019466Y005265D01*
X019480Y005257D02*
X016800Y005257D01*
X016800Y005248D02*
X019493Y005248D01*
X019506Y005240D02*
X016800Y005240D01*
X016800Y005231D02*
X019520Y005231D01*
X019533Y005223D02*
X016800Y005223D01*
X016800Y005214D02*
X019546Y005214D01*
X019560Y005206D02*
X016800Y005206D01*
X016800Y005197D02*
X019573Y005197D01*
X019586Y005189D02*
X016800Y005189D01*
X016800Y005180D02*
X019600Y005180D01*
X019613Y005172D02*
X016800Y005172D01*
X016800Y005163D02*
X019626Y005163D01*
X019640Y005155D02*
X016800Y005155D01*
X016800Y005146D02*
X019653Y005146D01*
X019666Y005138D02*
X016800Y005138D01*
X016800Y005129D02*
X019679Y005129D01*
X019693Y005121D02*
X016800Y005121D01*
X016800Y005112D02*
X019706Y005112D01*
X019719Y005104D02*
X016800Y005104D01*
X016800Y005095D02*
X019733Y005095D01*
X019746Y005087D02*
X016800Y005087D01*
X016800Y005078D02*
X019759Y005078D01*
X019773Y005070D02*
X016800Y005070D01*
X016800Y005061D02*
X019786Y005061D01*
X019799Y005053D02*
X016800Y005053D01*
X016800Y005044D02*
X019813Y005044D01*
X019826Y005036D02*
X016800Y005036D01*
X016800Y005027D02*
X019839Y005027D01*
X019853Y005019D02*
X016800Y005019D01*
X016800Y005010D02*
X019866Y005010D01*
X019879Y005002D02*
X016800Y005002D01*
X016800Y004993D02*
X019893Y004993D01*
X019906Y004985D02*
X016800Y004985D01*
X016800Y004976D02*
X019919Y004976D01*
X019933Y004968D02*
X016800Y004968D01*
X016800Y004959D02*
X019945Y004959D01*
X019957Y004951D02*
X016800Y004951D01*
X016800Y004942D02*
X019969Y004942D01*
X019981Y004934D02*
X016800Y004934D01*
X016800Y004925D02*
X019992Y004925D01*
X020004Y004917D02*
X016800Y004917D01*
X016800Y004908D02*
X020016Y004908D01*
X020028Y004900D02*
X016800Y004900D01*
X016800Y004891D02*
X020039Y004891D01*
X020051Y004883D02*
X016800Y004883D01*
X016800Y004874D02*
X018340Y004874D01*
X018332Y004866D02*
X016800Y004866D01*
X016800Y004857D02*
X018323Y004857D01*
X018315Y004849D02*
X016800Y004849D01*
X016800Y004840D02*
X018308Y004840D01*
X018308Y004832D02*
X016800Y004832D01*
X016800Y004823D02*
X018308Y004823D01*
X018308Y004815D02*
X016800Y004815D01*
X016800Y004806D02*
X018308Y004806D01*
X018308Y004798D02*
X017800Y004798D01*
X017800Y004789D02*
X018308Y004789D01*
X018308Y004781D02*
X017800Y004781D01*
X017800Y004772D02*
X018308Y004772D01*
X018308Y004764D02*
X017800Y004764D01*
X017800Y004755D02*
X018308Y004755D01*
X018308Y004747D02*
X017800Y004747D01*
X017800Y004738D02*
X018308Y004738D01*
X018308Y004730D02*
X017800Y004730D01*
X017800Y004721D02*
X018308Y004721D01*
X018308Y004713D02*
X017800Y004713D01*
X017800Y004704D02*
X018308Y004704D01*
X018308Y004696D02*
X017800Y004696D01*
X017800Y004687D02*
X018308Y004687D01*
X018308Y004679D02*
X017800Y004679D01*
X017800Y004670D02*
X018308Y004670D01*
X018308Y004662D02*
X017800Y004662D01*
X017800Y004653D02*
X018308Y004653D01*
X018308Y004645D02*
X017800Y004645D01*
X017800Y004636D02*
X018308Y004636D01*
X018308Y004628D02*
X017800Y004628D01*
X017800Y004619D02*
X018308Y004619D01*
X018308Y004611D02*
X017800Y004611D01*
X017800Y004602D02*
X018308Y004602D01*
X018308Y004594D02*
X017800Y004594D01*
X017800Y004585D02*
X018308Y004585D01*
X018308Y004577D02*
X017800Y004577D01*
X017800Y004568D02*
X018308Y004568D01*
X018308Y004560D02*
X017800Y004560D01*
X017800Y004551D02*
X018308Y004551D01*
X018308Y004543D02*
X017800Y004543D01*
X017800Y004534D02*
X018308Y004534D01*
X018308Y004526D02*
X017800Y004526D01*
X017800Y004517D02*
X018308Y004517D01*
X018308Y004509D02*
X017800Y004509D01*
X017800Y004500D02*
X018308Y004500D01*
X018308Y004492D02*
X017800Y004492D01*
X017800Y004483D02*
X018308Y004483D01*
X018308Y004475D02*
X017800Y004475D01*
X017800Y004466D02*
X018308Y004466D01*
X018308Y004458D02*
X017800Y004458D01*
X017800Y004449D02*
X018308Y004449D01*
X018308Y004441D02*
X017800Y004441D01*
X017800Y004432D02*
X018308Y004432D01*
X018308Y004424D02*
X017800Y004424D01*
X017800Y004415D02*
X018308Y004415D01*
X018308Y004407D02*
X017800Y004407D01*
X017800Y004398D02*
X018308Y004398D01*
X018308Y004390D02*
X017800Y004390D01*
X017800Y004381D02*
X018308Y004381D01*
X018308Y004373D02*
X017800Y004373D01*
X017800Y004364D02*
X018308Y004364D01*
X018308Y004356D02*
X017800Y004356D01*
X017800Y004347D02*
X018308Y004347D01*
X018308Y004339D02*
X017800Y004339D01*
X017800Y004330D02*
X018308Y004330D01*
X018308Y004322D02*
X017800Y004322D01*
X017800Y004313D02*
X018308Y004313D01*
X018308Y004305D02*
X017800Y004305D01*
X017800Y004296D02*
X018308Y004296D01*
X018308Y004288D02*
X017800Y004288D01*
X017800Y004279D02*
X018308Y004279D01*
X018308Y004271D02*
X017800Y004271D01*
X017800Y004262D02*
X018308Y004262D01*
X018308Y004254D02*
X017800Y004254D01*
X017800Y004245D02*
X018308Y004245D01*
X018308Y004237D02*
X017800Y004237D01*
X017800Y004228D02*
X018308Y004228D01*
X018308Y004220D02*
X017800Y004220D01*
X017800Y004211D02*
X018308Y004211D01*
X018308Y004203D02*
X017800Y004203D01*
X017800Y004194D02*
X018308Y004194D01*
X018308Y004186D02*
X017800Y004186D01*
X017800Y004177D02*
X018308Y004177D01*
X018308Y004169D02*
X017800Y004169D01*
X017800Y004160D02*
X018308Y004160D01*
X018315Y004152D02*
X017800Y004152D01*
X017800Y004143D02*
X018323Y004143D01*
X018332Y004135D02*
X017800Y004135D01*
X017800Y004126D02*
X018340Y004126D01*
X018645Y003990D02*
X017800Y003990D01*
X017800Y003982D02*
X018645Y003982D01*
X018645Y003973D02*
X017800Y003973D01*
X017800Y003965D02*
X018645Y003965D01*
X018645Y003956D02*
X017800Y003956D01*
X017800Y003948D02*
X018645Y003948D01*
X018645Y003939D02*
X017800Y003939D01*
X017800Y003931D02*
X018645Y003931D01*
X018645Y003922D02*
X017800Y003922D01*
X017800Y003914D02*
X018645Y003914D01*
X018645Y003905D02*
X017800Y003905D01*
X017800Y003897D02*
X018645Y003897D01*
X018645Y003888D02*
X017800Y003888D01*
X017800Y003880D02*
X018645Y003880D01*
X018645Y003871D02*
X017800Y003871D01*
X017800Y003863D02*
X018645Y003863D01*
X018645Y003854D02*
X017800Y003854D01*
X017800Y003846D02*
X018645Y003846D01*
X018645Y003837D02*
X017800Y003837D01*
X017800Y003829D02*
X018645Y003829D01*
X018645Y003820D02*
X017800Y003820D01*
X017800Y003812D02*
X018645Y003812D01*
X018649Y003803D02*
X017800Y003803D01*
X017800Y003795D02*
X018657Y003795D01*
X018666Y003786D02*
X017800Y003786D01*
X017800Y003778D02*
X018674Y003778D01*
X018683Y003769D02*
X017800Y003769D01*
X017800Y003761D02*
X018691Y003761D01*
X018700Y003752D02*
X017800Y003752D01*
X017800Y003744D02*
X018708Y003744D01*
X018717Y003735D02*
X017800Y003735D01*
X017800Y003727D02*
X018725Y003727D01*
X018734Y003718D02*
X017800Y003718D01*
X017800Y003710D02*
X018742Y003710D01*
X018751Y003701D02*
X017800Y003701D01*
X017800Y003693D02*
X018759Y003693D01*
X018763Y003684D02*
X017800Y003684D01*
X017800Y003676D02*
X018763Y003676D01*
X018763Y003667D02*
X017800Y003667D01*
X017800Y003659D02*
X018763Y003659D01*
X018763Y003650D02*
X017800Y003650D01*
X017800Y003642D02*
X018763Y003642D01*
X018763Y003633D02*
X017800Y003633D01*
X017800Y003625D02*
X018763Y003625D01*
X018763Y003616D02*
X017800Y003616D01*
X017800Y003608D02*
X018763Y003608D01*
X018763Y003599D02*
X017800Y003599D01*
X017800Y003591D02*
X018763Y003591D01*
X018763Y003582D02*
X017800Y003582D01*
X017800Y003574D02*
X018763Y003574D01*
X018763Y003565D02*
X017800Y003565D01*
X017800Y003557D02*
X018763Y003557D01*
X018763Y003548D02*
X017800Y003548D01*
X017800Y003540D02*
X018763Y003540D01*
X018763Y003531D02*
X017800Y003531D01*
X017800Y003523D02*
X018763Y003523D01*
X018763Y003514D02*
X017800Y003514D01*
X017800Y003506D02*
X018763Y003506D01*
X018763Y003497D02*
X017800Y003497D01*
X017800Y003489D02*
X018763Y003489D01*
X018763Y003480D02*
X017800Y003480D01*
X017800Y003472D02*
X018763Y003472D01*
X018763Y003463D02*
X017800Y003463D01*
X017800Y003455D02*
X018763Y003455D01*
X018763Y003446D02*
X017800Y003446D01*
X017800Y003438D02*
X018763Y003438D01*
X018763Y003429D02*
X017800Y003429D01*
X017800Y003421D02*
X018763Y003421D01*
X018763Y003412D02*
X017800Y003412D01*
X017800Y003404D02*
X018763Y003404D01*
X019013Y003404D02*
X019285Y003404D01*
X019285Y003412D02*
X019013Y003412D01*
X019013Y003421D02*
X019285Y003421D01*
X019285Y003429D02*
X019013Y003429D01*
X019013Y003438D02*
X019285Y003438D01*
X019285Y003446D02*
X019013Y003446D01*
X019013Y003455D02*
X019285Y003455D01*
X019285Y003463D02*
X019013Y003463D01*
X019013Y003472D02*
X019285Y003472D01*
X019285Y003480D02*
X019013Y003480D01*
X019013Y003489D02*
X019285Y003489D01*
X019285Y003497D02*
X019013Y003497D01*
X019013Y003506D02*
X019285Y003506D01*
X019285Y003514D02*
X019013Y003514D01*
X019013Y003523D02*
X019281Y003523D01*
X019272Y003531D02*
X019013Y003531D01*
X019013Y003540D02*
X019264Y003540D01*
X019255Y003548D02*
X019013Y003548D01*
X019013Y003557D02*
X019247Y003557D01*
X019238Y003565D02*
X019013Y003565D01*
X019013Y003574D02*
X019230Y003574D01*
X019221Y003582D02*
X019013Y003582D01*
X019013Y003591D02*
X019213Y003591D01*
X019204Y003599D02*
X019013Y003599D01*
X019013Y003608D02*
X019196Y003608D01*
X019196Y003616D02*
X019013Y003616D01*
X019013Y003625D02*
X019196Y003625D01*
X019196Y003633D02*
X019013Y003633D01*
X019013Y003642D02*
X019196Y003642D01*
X019196Y003650D02*
X019013Y003650D01*
X019013Y003659D02*
X019196Y003659D01*
X019196Y003667D02*
X019013Y003667D01*
X019013Y003676D02*
X019196Y003676D01*
X019196Y003684D02*
X019013Y003684D01*
X019013Y003693D02*
X019196Y003693D01*
X019196Y003701D02*
X019013Y003701D01*
X019013Y003710D02*
X019196Y003710D01*
X019196Y003718D02*
X019013Y003718D01*
X019015Y003727D02*
X019196Y003727D01*
X019196Y003735D02*
X019023Y003735D01*
X019032Y003744D02*
X019196Y003744D01*
X019196Y003752D02*
X019040Y003752D01*
X019049Y003761D02*
X019196Y003761D01*
X019196Y003769D02*
X019057Y003769D01*
X019066Y003778D02*
X019196Y003778D01*
X019196Y003786D02*
X019074Y003786D01*
X019083Y003795D02*
X019198Y003795D01*
X019206Y003803D02*
X019091Y003803D01*
X019095Y003812D02*
X019215Y003812D01*
X019223Y003820D02*
X019095Y003820D01*
X019095Y003829D02*
X019232Y003829D01*
X019240Y003837D02*
X019095Y003837D01*
X019095Y003846D02*
X019249Y003846D01*
X019257Y003854D02*
X019095Y003854D01*
X019095Y003863D02*
X019266Y003863D01*
X019274Y003871D02*
X019095Y003871D01*
X019095Y003880D02*
X019283Y003880D01*
X019291Y003888D02*
X019095Y003888D01*
X019095Y003897D02*
X019300Y003897D01*
X019308Y003905D02*
X019095Y003905D01*
X019095Y003914D02*
X019317Y003914D01*
X019325Y003922D02*
X019095Y003922D01*
X019095Y003931D02*
X020700Y003931D01*
X020700Y003939D02*
X019095Y003939D01*
X019095Y003948D02*
X020700Y003948D01*
X020700Y003956D02*
X019095Y003956D01*
X019095Y003965D02*
X020700Y003965D01*
X020700Y003973D02*
X019095Y003973D01*
X019095Y003982D02*
X020700Y003982D01*
X020700Y003990D02*
X019095Y003990D01*
X019090Y003999D02*
X020700Y003999D01*
X020700Y004007D02*
X019081Y004007D01*
X019073Y004016D02*
X020700Y004016D01*
X020700Y004024D02*
X019064Y004024D01*
X019056Y004033D02*
X020700Y004033D01*
X020700Y004041D02*
X019047Y004041D01*
X019039Y004050D02*
X020700Y004050D01*
X020700Y004058D02*
X019030Y004058D01*
X019022Y004067D02*
X020700Y004067D01*
X020700Y004075D02*
X019013Y004075D01*
X019013Y004084D02*
X020700Y004084D01*
X020700Y004092D02*
X019013Y004092D01*
X019013Y004101D02*
X020700Y004101D01*
X020700Y004109D02*
X019013Y004109D01*
X019013Y004118D02*
X020700Y004118D01*
X020700Y004126D02*
X019013Y004126D01*
X019013Y004135D02*
X020700Y004135D01*
X020700Y004143D02*
X019013Y004143D01*
X019013Y004152D02*
X020700Y004152D01*
X020700Y004160D02*
X019013Y004160D01*
X019013Y004169D02*
X020700Y004169D01*
X020700Y004177D02*
X019013Y004177D01*
X019013Y004186D02*
X020700Y004186D01*
X020700Y004194D02*
X019013Y004194D01*
X019013Y004203D02*
X020700Y004203D01*
X020700Y004211D02*
X019013Y004211D01*
X019013Y004220D02*
X020700Y004220D01*
X020700Y004228D02*
X019013Y004228D01*
X019013Y004237D02*
X020700Y004237D01*
X020700Y004245D02*
X019013Y004245D01*
X019013Y004254D02*
X020700Y004254D01*
X020700Y004262D02*
X019013Y004262D01*
X019013Y004271D02*
X020700Y004271D01*
X020700Y004279D02*
X019267Y004279D01*
X019276Y004288D02*
X020700Y004288D01*
X020700Y004296D02*
X019284Y004296D01*
X019293Y004305D02*
X020700Y004305D01*
X020700Y004313D02*
X019301Y004313D01*
X019310Y004322D02*
X020700Y004322D01*
X020700Y004330D02*
X019318Y004330D01*
X019327Y004339D02*
X020700Y004339D01*
X020700Y004347D02*
X019335Y004347D01*
X019344Y004356D02*
X020700Y004356D01*
X020700Y004364D02*
X019352Y004364D01*
X019361Y004373D02*
X020700Y004373D01*
X020700Y004381D02*
X019369Y004381D01*
X019378Y004390D02*
X020700Y004390D01*
X020700Y004398D02*
X019386Y004398D01*
X019395Y004407D02*
X020700Y004407D01*
X020696Y004415D02*
X019395Y004415D01*
X019395Y004424D02*
X020685Y004424D01*
X020674Y004432D02*
X019395Y004432D01*
X019395Y004441D02*
X020662Y004441D01*
X020651Y004449D02*
X019395Y004449D01*
X019395Y004458D02*
X020640Y004458D01*
X020634Y004462D02*
X020634Y004462D01*
X020628Y004466D02*
X019395Y004466D01*
X019395Y004475D02*
X020617Y004475D01*
X020605Y004483D02*
X019395Y004483D01*
X019395Y004492D02*
X020593Y004492D01*
X020581Y004500D02*
X019395Y004500D01*
X019395Y004509D02*
X020569Y004509D01*
X020558Y004517D02*
X019395Y004517D01*
X019395Y004526D02*
X020546Y004526D01*
X020534Y004534D02*
X019395Y004534D01*
X019395Y004543D02*
X020522Y004543D01*
X020511Y004551D02*
X019395Y004551D01*
X019395Y004560D02*
X020499Y004560D01*
X020487Y004568D02*
X019395Y004568D01*
X019395Y004577D02*
X020475Y004577D01*
X020463Y004585D02*
X019395Y004585D01*
X019395Y004594D02*
X020452Y004594D01*
X020440Y004602D02*
X019386Y004602D01*
X019378Y004611D02*
X020428Y004611D01*
X020416Y004619D02*
X019369Y004619D01*
X019361Y004628D02*
X020405Y004628D01*
X020393Y004636D02*
X019352Y004636D01*
X019344Y004645D02*
X020381Y004645D01*
X020369Y004653D02*
X019335Y004653D01*
X019327Y004662D02*
X020357Y004662D01*
X020346Y004670D02*
X019318Y004670D01*
X019310Y004679D02*
X020334Y004679D01*
X020322Y004687D02*
X019301Y004687D01*
X019293Y004696D02*
X020310Y004696D01*
X020299Y004704D02*
X019284Y004704D01*
X019276Y004713D02*
X020287Y004713D01*
X020275Y004721D02*
X019267Y004721D01*
X018989Y004730D02*
X020263Y004730D01*
X020251Y004738D02*
X018989Y004738D01*
X018989Y004747D02*
X020240Y004747D01*
X020228Y004755D02*
X018989Y004755D01*
X018989Y004764D02*
X020216Y004764D01*
X020204Y004772D02*
X018989Y004772D01*
X018989Y004781D02*
X020193Y004781D01*
X020181Y004789D02*
X018989Y004789D01*
X018989Y004798D02*
X020169Y004798D01*
X020157Y004806D02*
X018989Y004806D01*
X018989Y004815D02*
X020145Y004815D01*
X020134Y004823D02*
X018989Y004823D01*
X018989Y004832D02*
X020122Y004832D01*
X020110Y004840D02*
X018989Y004840D01*
X018983Y004849D02*
X020098Y004849D01*
X020087Y004857D02*
X018974Y004857D01*
X018966Y004866D02*
X020075Y004866D01*
X020063Y004874D02*
X018957Y004874D01*
X018763Y004118D02*
X017800Y004118D01*
X017800Y004109D02*
X018761Y004109D01*
X018752Y004101D02*
X017800Y004101D01*
X017800Y004092D02*
X018744Y004092D01*
X018735Y004084D02*
X017800Y004084D01*
X017800Y004075D02*
X018727Y004075D01*
X018718Y004067D02*
X017800Y004067D01*
X017800Y004058D02*
X018710Y004058D01*
X018701Y004050D02*
X017800Y004050D01*
X017800Y004041D02*
X018693Y004041D01*
X018684Y004033D02*
X017800Y004033D01*
X017800Y004024D02*
X018676Y004024D01*
X018667Y004016D02*
X017800Y004016D01*
X017800Y004007D02*
X018659Y004007D01*
X018650Y003999D02*
X017800Y003999D01*
X017300Y003999D02*
X016578Y003999D01*
X016570Y004007D02*
X017300Y004007D01*
X017300Y004016D02*
X016561Y004016D01*
X016553Y004024D02*
X017300Y004024D01*
X017300Y004033D02*
X016544Y004033D01*
X016536Y004041D02*
X017300Y004041D01*
X017300Y004050D02*
X016527Y004050D01*
X016522Y004055D02*
X016852Y003725D01*
X017300Y003725D01*
X017300Y004141D01*
X017296Y004141D01*
X017258Y004179D01*
X017258Y004509D01*
X017296Y004547D01*
X017300Y004547D01*
X017300Y004600D01*
X016757Y004600D01*
X016757Y004481D01*
X016719Y004443D01*
X016500Y004443D01*
X016500Y004408D01*
X016521Y004387D01*
X016521Y004265D01*
X016522Y004264D01*
X016522Y004055D01*
X016522Y004058D02*
X017300Y004058D01*
X017300Y004067D02*
X016522Y004067D01*
X016522Y004075D02*
X017300Y004075D01*
X017300Y004084D02*
X016522Y004084D01*
X016522Y004092D02*
X017300Y004092D01*
X017300Y004101D02*
X016522Y004101D01*
X016522Y004109D02*
X017300Y004109D01*
X017300Y004118D02*
X016522Y004118D01*
X016522Y004126D02*
X017300Y004126D01*
X017300Y004135D02*
X016522Y004135D01*
X016522Y004143D02*
X017294Y004143D01*
X017286Y004152D02*
X016522Y004152D01*
X016522Y004160D02*
X017277Y004160D01*
X017269Y004169D02*
X016522Y004169D01*
X016522Y004177D02*
X017260Y004177D01*
X017258Y004186D02*
X016522Y004186D01*
X016522Y004194D02*
X017258Y004194D01*
X017258Y004203D02*
X016522Y004203D01*
X016522Y004211D02*
X017258Y004211D01*
X017258Y004220D02*
X016522Y004220D01*
X016522Y004228D02*
X017258Y004228D01*
X017258Y004237D02*
X016522Y004237D01*
X016522Y004245D02*
X017258Y004245D01*
X017258Y004254D02*
X016522Y004254D01*
X016522Y004262D02*
X017258Y004262D01*
X017258Y004271D02*
X016521Y004271D01*
X016521Y004279D02*
X017258Y004279D01*
X017258Y004288D02*
X016521Y004288D01*
X016521Y004296D02*
X017258Y004296D01*
X017258Y004305D02*
X016521Y004305D01*
X016521Y004313D02*
X017258Y004313D01*
X017258Y004322D02*
X016521Y004322D01*
X016521Y004330D02*
X017258Y004330D01*
X017258Y004339D02*
X016521Y004339D01*
X016521Y004347D02*
X017258Y004347D01*
X017258Y004356D02*
X016521Y004356D01*
X016521Y004364D02*
X017258Y004364D01*
X017258Y004373D02*
X016521Y004373D01*
X016521Y004381D02*
X017258Y004381D01*
X017258Y004390D02*
X016518Y004390D01*
X016510Y004398D02*
X017258Y004398D01*
X017258Y004407D02*
X016501Y004407D01*
X016500Y004415D02*
X017258Y004415D01*
X017258Y004424D02*
X016500Y004424D01*
X016500Y004432D02*
X017258Y004432D01*
X017258Y004441D02*
X016500Y004441D01*
X016725Y004449D02*
X017258Y004449D01*
X017258Y004458D02*
X016734Y004458D01*
X016742Y004466D02*
X017258Y004466D01*
X017258Y004475D02*
X016751Y004475D01*
X016757Y004483D02*
X017258Y004483D01*
X017258Y004492D02*
X016757Y004492D01*
X016757Y004500D02*
X017258Y004500D01*
X017258Y004509D02*
X016757Y004509D01*
X016757Y004517D02*
X017266Y004517D01*
X017275Y004526D02*
X016757Y004526D01*
X016757Y004534D02*
X017283Y004534D01*
X017292Y004543D02*
X016757Y004543D01*
X016757Y004551D02*
X017300Y004551D01*
X017300Y004560D02*
X016757Y004560D01*
X016757Y004568D02*
X017300Y004568D01*
X017300Y004577D02*
X016757Y004577D01*
X016757Y004585D02*
X017300Y004585D01*
X017300Y004594D02*
X016757Y004594D01*
X016587Y003990D02*
X017300Y003990D01*
X017300Y003982D02*
X016595Y003982D01*
X016604Y003973D02*
X017300Y003973D01*
X017300Y003965D02*
X016612Y003965D01*
X016621Y003956D02*
X017300Y003956D01*
X017300Y003948D02*
X016629Y003948D01*
X016638Y003939D02*
X017300Y003939D01*
X017300Y003931D02*
X016646Y003931D01*
X016655Y003922D02*
X017300Y003922D01*
X017300Y003914D02*
X016663Y003914D01*
X016672Y003905D02*
X017300Y003905D01*
X017300Y003897D02*
X016680Y003897D01*
X016689Y003888D02*
X017300Y003888D01*
X017300Y003880D02*
X016697Y003880D01*
X016706Y003871D02*
X017300Y003871D01*
X017300Y003863D02*
X016714Y003863D01*
X016723Y003854D02*
X017300Y003854D01*
X017300Y003846D02*
X016731Y003846D01*
X016740Y003837D02*
X017300Y003837D01*
X017300Y003829D02*
X016748Y003829D01*
X016757Y003820D02*
X017300Y003820D01*
X017300Y003812D02*
X016765Y003812D01*
X016774Y003803D02*
X017300Y003803D01*
X017300Y003795D02*
X016782Y003795D01*
X016791Y003786D02*
X017300Y003786D01*
X017300Y003778D02*
X016799Y003778D01*
X016808Y003769D02*
X017300Y003769D01*
X017300Y003761D02*
X016816Y003761D01*
X016825Y003752D02*
X017300Y003752D01*
X017300Y003744D02*
X016833Y003744D01*
X016842Y003735D02*
X017300Y003735D01*
X017300Y003727D02*
X016850Y003727D01*
X019515Y003922D02*
X020700Y003922D01*
X020700Y003914D02*
X019523Y003914D01*
X019532Y003905D02*
X020700Y003905D01*
X020700Y003897D02*
X019540Y003897D01*
X019549Y003888D02*
X020700Y003888D01*
X020700Y003880D02*
X019557Y003880D01*
X019566Y003871D02*
X020700Y003871D01*
X020700Y003863D02*
X020034Y003863D01*
X020043Y003854D02*
X020700Y003854D01*
X020700Y003846D02*
X020051Y003846D01*
X020060Y003837D02*
X020700Y003837D01*
X020700Y003829D02*
X020068Y003829D01*
X020077Y003820D02*
X020700Y003820D01*
X020700Y003812D02*
X020085Y003812D01*
X020094Y003803D02*
X020700Y003803D01*
X020700Y003795D02*
X020102Y003795D01*
X020111Y003786D02*
X020700Y003786D01*
X020700Y003778D02*
X020119Y003778D01*
X020128Y003769D02*
X020700Y003769D01*
X020700Y003761D02*
X020136Y003761D01*
X020145Y003752D02*
X020700Y003752D01*
X020700Y003744D02*
X020153Y003744D01*
X020162Y003735D02*
X020700Y003735D01*
X020700Y003727D02*
X020164Y003727D01*
X020164Y003718D02*
X020700Y003718D01*
X020700Y003710D02*
X020164Y003710D01*
X020164Y003701D02*
X020700Y003701D01*
X020700Y003693D02*
X020164Y003693D01*
X020164Y003684D02*
X020700Y003684D01*
X020700Y003676D02*
X020164Y003676D01*
X020164Y003667D02*
X020700Y003667D01*
X020700Y003659D02*
X020164Y003659D01*
X020164Y003650D02*
X020700Y003650D01*
X020700Y003642D02*
X020164Y003642D01*
X020164Y003633D02*
X020700Y003633D01*
X020700Y003625D02*
X020164Y003625D01*
X020164Y003616D02*
X020700Y003616D01*
X020700Y003608D02*
X020164Y003608D01*
X020164Y003599D02*
X020700Y003599D01*
X020700Y003591D02*
X020164Y003591D01*
X020164Y003582D02*
X020700Y003582D01*
X020700Y003574D02*
X020164Y003574D01*
X020164Y003565D02*
X020700Y003565D01*
X020700Y003557D02*
X020164Y003557D01*
X020164Y003548D02*
X020700Y003548D01*
X020700Y003540D02*
X020156Y003540D01*
X020148Y003531D02*
X020700Y003531D01*
X020700Y003523D02*
X020139Y003523D01*
X020131Y003514D02*
X020700Y003514D01*
X020700Y003506D02*
X020122Y003506D01*
X020114Y003497D02*
X020700Y003497D01*
X020700Y003489D02*
X020105Y003489D01*
X020097Y003480D02*
X020700Y003480D01*
X020700Y003472D02*
X020088Y003472D01*
X020080Y003463D02*
X020700Y003463D01*
X020700Y003455D02*
X020071Y003455D01*
X020063Y003446D02*
X020700Y003446D01*
X020700Y003438D02*
X020054Y003438D01*
X020046Y003429D02*
X020700Y003429D01*
X020700Y003421D02*
X020037Y003421D01*
X019875Y003412D02*
X020700Y003412D01*
X020700Y003404D02*
X019866Y003404D01*
X019858Y003395D02*
X020700Y003395D01*
X020700Y003387D02*
X019849Y003387D01*
X019841Y003378D02*
X020700Y003378D01*
X020700Y003370D02*
X019832Y003370D01*
X019824Y003361D02*
X020700Y003361D01*
X020700Y003353D02*
X019815Y003353D01*
X019807Y003344D02*
X020700Y003344D01*
X020700Y003336D02*
X019800Y003336D01*
X019800Y003327D02*
X020700Y003327D01*
X020700Y003319D02*
X019800Y003319D01*
X019800Y003310D02*
X020700Y003310D01*
X020700Y003302D02*
X019800Y003302D01*
X019800Y003293D02*
X020700Y003293D01*
X020700Y003285D02*
X019800Y003285D01*
X019800Y003276D02*
X020700Y003276D01*
X020700Y003268D02*
X019800Y003268D01*
X019800Y003259D02*
X020700Y003259D01*
X020700Y003251D02*
X019800Y003251D01*
X019800Y003242D02*
X020700Y003242D01*
X020700Y003234D02*
X019800Y003234D01*
X019800Y003225D02*
X020700Y003225D01*
X020700Y003217D02*
X019800Y003217D01*
X019800Y003208D02*
X020700Y003208D01*
X020700Y003200D02*
X019800Y003200D01*
X019800Y003191D02*
X020700Y003191D01*
X020700Y003183D02*
X019800Y003183D01*
X019800Y003174D02*
X020700Y003174D01*
X020700Y003166D02*
X019800Y003166D01*
X019800Y003157D02*
X020700Y003157D01*
X020700Y003149D02*
X019800Y003149D01*
X019800Y003140D02*
X020700Y003140D01*
X020700Y003132D02*
X019800Y003132D01*
X019800Y003123D02*
X020700Y003123D01*
X020700Y003115D02*
X019800Y003115D01*
X019800Y003106D02*
X020700Y003106D01*
X020700Y003098D02*
X019800Y003098D01*
X019800Y003089D02*
X020700Y003089D01*
X020700Y003081D02*
X019800Y003081D01*
X019800Y003072D02*
X020700Y003072D01*
X020700Y003064D02*
X019800Y003064D01*
X019800Y003055D02*
X020700Y003055D01*
X020700Y003047D02*
X020263Y003047D01*
X020272Y003038D02*
X020700Y003038D01*
X020700Y003030D02*
X020280Y003030D01*
X020289Y003021D02*
X020700Y003021D01*
X020700Y003013D02*
X020297Y003013D01*
X020306Y003004D02*
X020700Y003004D01*
X020700Y002996D02*
X020314Y002996D01*
X020323Y002987D02*
X020700Y002987D01*
X020700Y002979D02*
X020331Y002979D01*
X020340Y002970D02*
X020700Y002970D01*
X020700Y002962D02*
X020348Y002962D01*
X020357Y002953D02*
X020700Y002953D01*
X020700Y002945D02*
X020365Y002945D01*
X020374Y002936D02*
X020700Y002936D01*
X020700Y002928D02*
X020382Y002928D01*
X020391Y002902D02*
X020700Y002902D01*
X020700Y002894D02*
X020391Y002894D01*
X020391Y002885D02*
X020700Y002885D01*
X020700Y002877D02*
X020391Y002877D01*
X020391Y002868D02*
X020700Y002868D01*
X020700Y002860D02*
X020391Y002860D01*
X020391Y002851D02*
X020700Y002851D01*
X020700Y002843D02*
X020391Y002843D01*
X020391Y002834D02*
X020700Y002834D01*
X020700Y002826D02*
X020391Y002826D01*
X020391Y002817D02*
X020700Y002817D01*
X020700Y002809D02*
X020391Y002809D01*
X020391Y002800D02*
X020700Y002800D01*
X021140Y002760D02*
X021580Y002850D01*
X021640Y002760D01*
X021580Y002670D01*
X021140Y002760D01*
X021152Y002758D02*
X021638Y002758D01*
X021636Y002766D02*
X021170Y002766D01*
X021194Y002749D02*
X021633Y002749D01*
X021627Y002741D02*
X021235Y002741D01*
X021211Y002775D02*
X021630Y002775D01*
X021625Y002783D02*
X021253Y002783D01*
X021294Y002792D02*
X021619Y002792D01*
X021613Y002800D02*
X021336Y002800D01*
X021377Y002809D02*
X021608Y002809D01*
X021602Y002817D02*
X021419Y002817D01*
X021460Y002826D02*
X021596Y002826D01*
X021591Y002834D02*
X021502Y002834D01*
X021544Y002843D02*
X021585Y002843D01*
X021621Y002732D02*
X021277Y002732D01*
X021318Y002724D02*
X021616Y002724D01*
X021610Y002715D02*
X021360Y002715D01*
X021401Y002707D02*
X021604Y002707D01*
X021599Y002698D02*
X021443Y002698D01*
X021484Y002690D02*
X021593Y002690D01*
X021587Y002681D02*
X021526Y002681D01*
X021568Y002673D02*
X021582Y002673D01*
X021681Y002605D02*
X022325Y002605D01*
X022320Y002613D02*
X021687Y002613D01*
X021692Y002622D02*
X022315Y002622D01*
X022310Y002630D02*
X021697Y002630D01*
X021703Y002639D02*
X022304Y002639D01*
X022299Y002647D02*
X021708Y002647D01*
X021714Y002656D02*
X022294Y002656D01*
X022289Y002664D02*
X021719Y002664D01*
X021724Y002673D02*
X022284Y002673D01*
X022278Y002681D02*
X021730Y002681D01*
X021735Y002690D02*
X022273Y002690D01*
X022268Y002698D02*
X021741Y002698D01*
X021746Y002707D02*
X022263Y002707D01*
X022258Y002715D02*
X021751Y002715D01*
X021757Y002724D02*
X022252Y002724D01*
X022247Y002732D02*
X021762Y002732D01*
X021768Y002741D02*
X022242Y002741D01*
X022237Y002749D02*
X021773Y002749D01*
X021778Y002758D02*
X022232Y002758D01*
X022230Y002760D02*
X022610Y002140D01*
X022000Y002540D01*
X021380Y002130D01*
X021780Y002760D01*
X021400Y003370D01*
X022000Y002980D01*
X022610Y003360D01*
X022230Y002760D01*
X022234Y002766D02*
X021776Y002766D01*
X021771Y002775D02*
X022239Y002775D01*
X022245Y002783D02*
X021766Y002783D01*
X021760Y002792D02*
X022250Y002792D01*
X022255Y002800D02*
X021755Y002800D01*
X021750Y002809D02*
X022261Y002809D01*
X022266Y002817D02*
X021744Y002817D01*
X021739Y002826D02*
X022272Y002826D01*
X022277Y002834D02*
X021734Y002834D01*
X021729Y002843D02*
X022282Y002843D01*
X022288Y002851D02*
X021723Y002851D01*
X021718Y002860D02*
X022293Y002860D01*
X022298Y002868D02*
X021713Y002868D01*
X021707Y002877D02*
X022304Y002877D01*
X022309Y002885D02*
X021702Y002885D01*
X021697Y002894D02*
X022315Y002894D01*
X022320Y002902D02*
X021692Y002902D01*
X021686Y002911D02*
X022325Y002911D01*
X022331Y002919D02*
X021681Y002919D01*
X021676Y002928D02*
X022336Y002928D01*
X022342Y002936D02*
X021670Y002936D01*
X021665Y002945D02*
X022347Y002945D01*
X022352Y002953D02*
X021660Y002953D01*
X021654Y002962D02*
X022358Y002962D01*
X022363Y002970D02*
X021649Y002970D01*
X021644Y002979D02*
X022368Y002979D01*
X022374Y002987D02*
X022011Y002987D01*
X022025Y002996D02*
X022379Y002996D01*
X022385Y003004D02*
X022039Y003004D01*
X022052Y003013D02*
X022390Y003013D01*
X022395Y003021D02*
X022066Y003021D01*
X022080Y003030D02*
X022401Y003030D01*
X022406Y003038D02*
X022093Y003038D01*
X022107Y003047D02*
X022411Y003047D01*
X022417Y003055D02*
X022120Y003055D01*
X022134Y003064D02*
X022422Y003064D01*
X022428Y003072D02*
X022148Y003072D01*
X022161Y003081D02*
X022433Y003081D01*
X022438Y003089D02*
X022175Y003089D01*
X022189Y003098D02*
X022444Y003098D01*
X022449Y003106D02*
X022202Y003106D01*
X022216Y003115D02*
X022455Y003115D01*
X022460Y003123D02*
X022230Y003123D01*
X022243Y003132D02*
X022465Y003132D01*
X022471Y003140D02*
X022257Y003140D01*
X022271Y003149D02*
X022476Y003149D01*
X022481Y003157D02*
X022284Y003157D01*
X022298Y003166D02*
X022487Y003166D01*
X022492Y003174D02*
X022312Y003174D01*
X022325Y003183D02*
X022498Y003183D01*
X022503Y003191D02*
X022339Y003191D01*
X022352Y003200D02*
X022508Y003200D01*
X022514Y003208D02*
X022366Y003208D01*
X022380Y003217D02*
X022519Y003217D01*
X022525Y003225D02*
X022393Y003225D01*
X022407Y003234D02*
X022530Y003234D01*
X022535Y003242D02*
X022421Y003242D01*
X022434Y003251D02*
X022541Y003251D01*
X022546Y003259D02*
X022448Y003259D01*
X022462Y003268D02*
X022551Y003268D01*
X022557Y003276D02*
X022475Y003276D01*
X022489Y003285D02*
X022562Y003285D01*
X022568Y003293D02*
X022503Y003293D01*
X022516Y003302D02*
X022573Y003302D01*
X022578Y003310D02*
X022530Y003310D01*
X022543Y003319D02*
X022584Y003319D01*
X022589Y003327D02*
X022557Y003327D01*
X022571Y003336D02*
X022595Y003336D01*
X022600Y003344D02*
X022584Y003344D01*
X022598Y003353D02*
X022605Y003353D01*
X022502Y002834D02*
X022409Y002834D01*
X022404Y002826D02*
X022545Y002826D01*
X022588Y002817D02*
X022398Y002817D01*
X022392Y002809D02*
X022632Y002809D01*
X022675Y002800D02*
X022387Y002800D01*
X022381Y002792D02*
X022719Y002792D01*
X022762Y002783D02*
X022375Y002783D01*
X022370Y002775D02*
X022806Y002775D01*
X022824Y002749D02*
X022367Y002749D01*
X022362Y002758D02*
X022867Y002758D01*
X022880Y002760D02*
X022420Y002850D01*
X022360Y002760D01*
X022420Y002670D01*
X022880Y002760D01*
X022849Y002766D02*
X022364Y002766D01*
X022373Y002741D02*
X022781Y002741D01*
X022737Y002732D02*
X022379Y002732D01*
X022384Y002724D02*
X022694Y002724D01*
X022650Y002715D02*
X022390Y002715D01*
X022396Y002707D02*
X022607Y002707D01*
X022563Y002698D02*
X022401Y002698D01*
X022407Y002690D02*
X022520Y002690D01*
X022476Y002681D02*
X022413Y002681D01*
X022418Y002673D02*
X022433Y002673D01*
X022330Y002596D02*
X021676Y002596D01*
X021671Y002588D02*
X022336Y002588D01*
X022341Y002579D02*
X021665Y002579D01*
X021660Y002571D02*
X022346Y002571D01*
X022351Y002562D02*
X021654Y002562D01*
X021649Y002554D02*
X022357Y002554D01*
X022362Y002545D02*
X021644Y002545D01*
X021638Y002537D02*
X021995Y002537D01*
X022005Y002537D02*
X022367Y002537D01*
X022372Y002528D02*
X022018Y002528D01*
X022031Y002520D02*
X022377Y002520D01*
X022383Y002511D02*
X022044Y002511D01*
X022057Y002503D02*
X022388Y002503D01*
X022393Y002494D02*
X022070Y002494D01*
X022083Y002486D02*
X022398Y002486D01*
X022403Y002477D02*
X022096Y002477D01*
X022109Y002469D02*
X022409Y002469D01*
X022414Y002460D02*
X022122Y002460D01*
X022135Y002452D02*
X022419Y002452D01*
X022424Y002443D02*
X022148Y002443D01*
X022161Y002435D02*
X022429Y002435D01*
X022435Y002426D02*
X022174Y002426D01*
X022187Y002418D02*
X022440Y002418D01*
X022445Y002409D02*
X022200Y002409D01*
X022213Y002401D02*
X022450Y002401D01*
X022456Y002392D02*
X022226Y002392D01*
X022239Y002384D02*
X022461Y002384D01*
X022466Y002375D02*
X022252Y002375D01*
X022265Y002367D02*
X022471Y002367D01*
X022476Y002358D02*
X022277Y002358D01*
X022290Y002350D02*
X022482Y002350D01*
X022487Y002341D02*
X022303Y002341D01*
X022316Y002333D02*
X022492Y002333D01*
X022497Y002324D02*
X022329Y002324D01*
X022342Y002316D02*
X022502Y002316D01*
X022508Y002307D02*
X022355Y002307D01*
X022368Y002299D02*
X022513Y002299D01*
X022518Y002290D02*
X022381Y002290D01*
X022394Y002282D02*
X022523Y002282D01*
X022528Y002273D02*
X022407Y002273D01*
X022420Y002265D02*
X022534Y002265D01*
X022539Y002256D02*
X022433Y002256D01*
X022446Y002248D02*
X022544Y002248D01*
X022549Y002239D02*
X022459Y002239D01*
X022472Y002231D02*
X022555Y002231D01*
X022560Y002222D02*
X022485Y002222D01*
X022498Y002214D02*
X022565Y002214D01*
X022570Y002205D02*
X022511Y002205D01*
X022524Y002197D02*
X022575Y002197D01*
X022581Y002188D02*
X022537Y002188D01*
X022550Y002180D02*
X022586Y002180D01*
X022591Y002171D02*
X022563Y002171D01*
X022576Y002163D02*
X022596Y002163D01*
X022601Y002154D02*
X022589Y002154D01*
X022602Y002146D02*
X022607Y002146D01*
X022087Y002265D02*
X021913Y002265D01*
X021911Y002273D02*
X022089Y002273D01*
X022091Y002282D02*
X021909Y002282D01*
X021907Y002290D02*
X022093Y002290D01*
X022095Y002299D02*
X021905Y002299D01*
X021903Y002307D02*
X022097Y002307D01*
X022099Y002316D02*
X021901Y002316D01*
X021900Y002320D02*
X022000Y002390D01*
X022100Y002320D01*
X022000Y001880D01*
X021900Y002320D01*
X021906Y002324D02*
X022094Y002324D01*
X022082Y002333D02*
X021918Y002333D01*
X021930Y002341D02*
X022070Y002341D01*
X022058Y002350D02*
X021942Y002350D01*
X021954Y002358D02*
X022046Y002358D01*
X022034Y002367D02*
X021966Y002367D01*
X021979Y002375D02*
X022021Y002375D01*
X022009Y002384D02*
X021991Y002384D01*
X021918Y002486D02*
X021606Y002486D01*
X021611Y002494D02*
X021931Y002494D01*
X021943Y002503D02*
X021617Y002503D01*
X021622Y002511D02*
X021956Y002511D01*
X021969Y002520D02*
X021627Y002520D01*
X021633Y002528D02*
X021982Y002528D01*
X021905Y002477D02*
X021600Y002477D01*
X021595Y002469D02*
X021892Y002469D01*
X021879Y002460D02*
X021590Y002460D01*
X021584Y002452D02*
X021866Y002452D01*
X021853Y002443D02*
X021579Y002443D01*
X021573Y002435D02*
X021841Y002435D01*
X021828Y002426D02*
X021568Y002426D01*
X021563Y002418D02*
X021815Y002418D01*
X021802Y002409D02*
X021557Y002409D01*
X021552Y002401D02*
X021789Y002401D01*
X021776Y002392D02*
X021546Y002392D01*
X021541Y002384D02*
X021763Y002384D01*
X021751Y002375D02*
X021536Y002375D01*
X021530Y002367D02*
X021738Y002367D01*
X021725Y002358D02*
X021525Y002358D01*
X021519Y002350D02*
X021712Y002350D01*
X021699Y002341D02*
X021514Y002341D01*
X021509Y002333D02*
X021686Y002333D01*
X021673Y002324D02*
X021503Y002324D01*
X021498Y002316D02*
X021661Y002316D01*
X021648Y002307D02*
X021492Y002307D01*
X021487Y002299D02*
X021635Y002299D01*
X021622Y002290D02*
X021482Y002290D01*
X021476Y002282D02*
X021609Y002282D01*
X021596Y002273D02*
X021471Y002273D01*
X021465Y002265D02*
X021583Y002265D01*
X021571Y002256D02*
X021460Y002256D01*
X021455Y002248D02*
X021558Y002248D01*
X021545Y002239D02*
X021449Y002239D01*
X021444Y002231D02*
X021532Y002231D01*
X021519Y002222D02*
X021438Y002222D01*
X021433Y002214D02*
X021506Y002214D01*
X021493Y002205D02*
X021428Y002205D01*
X021422Y002197D02*
X021481Y002197D01*
X021468Y002188D02*
X021417Y002188D01*
X021411Y002180D02*
X021455Y002180D01*
X021442Y002171D02*
X021406Y002171D01*
X021401Y002163D02*
X021429Y002163D01*
X021416Y002154D02*
X021395Y002154D01*
X021390Y002146D02*
X021403Y002146D01*
X021391Y002137D02*
X021384Y002137D01*
X021915Y002256D02*
X022085Y002256D01*
X022084Y002248D02*
X021916Y002248D01*
X021918Y002239D02*
X022082Y002239D01*
X022080Y002231D02*
X021920Y002231D01*
X021922Y002222D02*
X022078Y002222D01*
X022076Y002214D02*
X021924Y002214D01*
X021926Y002205D02*
X022074Y002205D01*
X022072Y002197D02*
X021928Y002197D01*
X021930Y002188D02*
X022070Y002188D01*
X022068Y002180D02*
X021932Y002180D01*
X021934Y002171D02*
X022066Y002171D01*
X022064Y002163D02*
X021936Y002163D01*
X021938Y002154D02*
X022062Y002154D01*
X022060Y002146D02*
X021940Y002146D01*
X021942Y002137D02*
X022058Y002137D01*
X022056Y002129D02*
X021944Y002129D01*
X021945Y002120D02*
X022055Y002120D01*
X022053Y002112D02*
X021947Y002112D01*
X021949Y002103D02*
X022051Y002103D01*
X022049Y002095D02*
X021951Y002095D01*
X021953Y002086D02*
X022047Y002086D01*
X022045Y002078D02*
X021955Y002078D01*
X021957Y002069D02*
X022043Y002069D01*
X022041Y002061D02*
X021959Y002061D01*
X021961Y002052D02*
X022039Y002052D01*
X022037Y002044D02*
X021963Y002044D01*
X021965Y002035D02*
X022035Y002035D01*
X022033Y002027D02*
X021967Y002027D01*
X021969Y002018D02*
X022031Y002018D01*
X022029Y002010D02*
X021971Y002010D01*
X021972Y002001D02*
X022028Y002001D01*
X022026Y001993D02*
X021974Y001993D01*
X021976Y001984D02*
X022024Y001984D01*
X022022Y001976D02*
X021978Y001976D01*
X021980Y001967D02*
X022020Y001967D01*
X022018Y001959D02*
X021982Y001959D01*
X021984Y001950D02*
X022016Y001950D01*
X022014Y001942D02*
X021986Y001942D01*
X021988Y001933D02*
X022012Y001933D01*
X022010Y001925D02*
X021990Y001925D01*
X021992Y001916D02*
X022008Y001916D01*
X022006Y001908D02*
X021994Y001908D01*
X021996Y001899D02*
X022004Y001899D01*
X022002Y001891D02*
X021998Y001891D01*
X022000Y001882D02*
X022000Y001882D01*
X022415Y002843D02*
X022458Y002843D01*
X022100Y003180D02*
X022000Y003120D01*
X021900Y003180D01*
X022000Y003640D01*
X022100Y003180D01*
X022099Y003183D02*
X021901Y003183D01*
X021902Y003191D02*
X022098Y003191D01*
X022096Y003200D02*
X021904Y003200D01*
X021906Y003208D02*
X022094Y003208D01*
X022092Y003217D02*
X021908Y003217D01*
X021910Y003225D02*
X022090Y003225D01*
X022088Y003234D02*
X021912Y003234D01*
X021913Y003242D02*
X022087Y003242D01*
X022085Y003251D02*
X021915Y003251D01*
X021917Y003259D02*
X022083Y003259D01*
X022081Y003268D02*
X021919Y003268D01*
X021921Y003276D02*
X022079Y003276D01*
X022077Y003285D02*
X021923Y003285D01*
X021925Y003293D02*
X022075Y003293D01*
X022074Y003302D02*
X021926Y003302D01*
X021928Y003310D02*
X022072Y003310D01*
X022070Y003319D02*
X021930Y003319D01*
X021932Y003327D02*
X022068Y003327D01*
X022066Y003336D02*
X021934Y003336D01*
X021936Y003344D02*
X022064Y003344D01*
X022062Y003353D02*
X021938Y003353D01*
X021939Y003361D02*
X022061Y003361D01*
X022059Y003370D02*
X021941Y003370D01*
X021943Y003378D02*
X022057Y003378D01*
X022055Y003387D02*
X021945Y003387D01*
X021947Y003395D02*
X022053Y003395D01*
X022051Y003404D02*
X021949Y003404D01*
X021950Y003412D02*
X022050Y003412D01*
X022048Y003421D02*
X021952Y003421D01*
X021954Y003429D02*
X022046Y003429D01*
X022044Y003438D02*
X021956Y003438D01*
X021958Y003446D02*
X022042Y003446D01*
X022040Y003455D02*
X021960Y003455D01*
X021962Y003463D02*
X022038Y003463D01*
X022037Y003472D02*
X021963Y003472D01*
X021965Y003480D02*
X022035Y003480D01*
X022033Y003489D02*
X021967Y003489D01*
X021969Y003497D02*
X022031Y003497D01*
X022029Y003506D02*
X021971Y003506D01*
X021973Y003514D02*
X022027Y003514D01*
X022026Y003523D02*
X021974Y003523D01*
X021976Y003531D02*
X022024Y003531D01*
X022022Y003540D02*
X021978Y003540D01*
X021980Y003548D02*
X022020Y003548D01*
X022018Y003557D02*
X021982Y003557D01*
X021984Y003565D02*
X022016Y003565D01*
X022014Y003574D02*
X021986Y003574D01*
X021987Y003582D02*
X022013Y003582D01*
X022011Y003591D02*
X021989Y003591D01*
X021991Y003599D02*
X022009Y003599D01*
X022007Y003608D02*
X021993Y003608D01*
X021995Y003616D02*
X022005Y003616D01*
X022003Y003625D02*
X021997Y003625D01*
X021998Y003633D02*
X022002Y003633D01*
X021597Y003242D02*
X021480Y003242D01*
X021485Y003234D02*
X021610Y003234D01*
X021623Y003225D02*
X021490Y003225D01*
X021496Y003217D02*
X021636Y003217D01*
X021649Y003208D02*
X021501Y003208D01*
X021506Y003200D02*
X021662Y003200D01*
X021675Y003191D02*
X021511Y003191D01*
X021517Y003183D02*
X021688Y003183D01*
X021701Y003174D02*
X021522Y003174D01*
X021527Y003166D02*
X021715Y003166D01*
X021728Y003157D02*
X021533Y003157D01*
X021538Y003149D02*
X021741Y003149D01*
X021754Y003140D02*
X021543Y003140D01*
X021549Y003132D02*
X021767Y003132D01*
X021780Y003123D02*
X021554Y003123D01*
X021559Y003115D02*
X021793Y003115D01*
X021806Y003106D02*
X021564Y003106D01*
X021570Y003098D02*
X021819Y003098D01*
X021832Y003089D02*
X021575Y003089D01*
X021580Y003081D02*
X021845Y003081D01*
X021858Y003072D02*
X021586Y003072D01*
X021591Y003064D02*
X021871Y003064D01*
X021885Y003055D02*
X021596Y003055D01*
X021601Y003047D02*
X021898Y003047D01*
X021911Y003038D02*
X021607Y003038D01*
X021612Y003030D02*
X021924Y003030D01*
X021937Y003021D02*
X021617Y003021D01*
X021623Y003013D02*
X021950Y003013D01*
X021963Y003004D02*
X021628Y003004D01*
X021633Y002996D02*
X021976Y002996D01*
X021989Y002987D02*
X021639Y002987D01*
X021910Y003174D02*
X022090Y003174D01*
X022076Y003166D02*
X021924Y003166D01*
X021938Y003157D02*
X022062Y003157D01*
X022048Y003149D02*
X021952Y003149D01*
X021967Y003140D02*
X022033Y003140D01*
X022019Y003132D02*
X021981Y003132D01*
X021995Y003123D02*
X022005Y003123D01*
X021584Y003251D02*
X021474Y003251D01*
X021469Y003259D02*
X021571Y003259D01*
X021558Y003268D02*
X021464Y003268D01*
X021459Y003276D02*
X021545Y003276D01*
X021531Y003285D02*
X021453Y003285D01*
X021448Y003293D02*
X021518Y003293D01*
X021505Y003302D02*
X021443Y003302D01*
X021437Y003310D02*
X021492Y003310D01*
X021479Y003319D02*
X021432Y003319D01*
X021427Y003327D02*
X021466Y003327D01*
X021453Y003336D02*
X021421Y003336D01*
X021416Y003344D02*
X021440Y003344D01*
X021427Y003353D02*
X021411Y003353D01*
X021414Y003361D02*
X021406Y003361D01*
X021400Y003370D02*
X021401Y003370D01*
X020072Y003047D02*
X019800Y003047D01*
X019800Y003038D02*
X020063Y003038D01*
X020055Y003030D02*
X019800Y003030D01*
X019800Y003021D02*
X020046Y003021D01*
X020038Y003013D02*
X019800Y003013D01*
X019800Y003004D02*
X020029Y003004D01*
X020021Y002996D02*
X019800Y002996D01*
X019800Y002987D02*
X020012Y002987D01*
X020004Y002979D02*
X019800Y002979D01*
X019800Y002970D02*
X019995Y002970D01*
X019987Y002962D02*
X019800Y002962D01*
X019800Y002953D02*
X019978Y002953D01*
X019970Y002945D02*
X019800Y002945D01*
X019800Y002936D02*
X019961Y002936D01*
X019953Y002928D02*
X019800Y002928D01*
X019800Y002902D02*
X019945Y002902D01*
X019945Y002894D02*
X019800Y002894D01*
X019800Y002885D02*
X019945Y002885D01*
X019945Y002877D02*
X019800Y002877D01*
X019800Y002868D02*
X019945Y002868D01*
X019945Y002860D02*
X019800Y002860D01*
X019800Y002851D02*
X019945Y002851D01*
X019945Y002843D02*
X019800Y002843D01*
X019800Y002834D02*
X019945Y002834D01*
X019945Y002826D02*
X019800Y002826D01*
X019800Y002817D02*
X019945Y002817D01*
X019945Y002809D02*
X019800Y002809D01*
X019800Y002800D02*
X019945Y002800D01*
X019541Y003400D02*
X019515Y003400D01*
X019515Y003412D02*
X019549Y003412D01*
X019541Y003404D02*
X019541Y003400D01*
X019558Y003421D02*
X019515Y003421D01*
X019515Y003429D02*
X019566Y003429D01*
X019575Y003438D02*
X019515Y003438D01*
X019515Y003446D02*
X019583Y003446D01*
X019592Y003455D02*
X019515Y003455D01*
X019515Y003463D02*
X019600Y003463D01*
X019609Y003472D02*
X019515Y003472D01*
X019517Y003480D02*
X019617Y003480D01*
X019626Y003489D02*
X019525Y003489D01*
X019534Y003497D02*
X019634Y003497D01*
X019643Y003506D02*
X019542Y003506D01*
X019551Y003514D02*
X019651Y003514D01*
X019660Y003523D02*
X019559Y003523D01*
X019568Y003531D02*
X019668Y003531D01*
X019677Y003540D02*
X019576Y003540D01*
X019585Y003548D02*
X019685Y003548D01*
X019694Y003557D02*
X019593Y003557D01*
X019602Y003565D02*
X019702Y003565D01*
X019711Y003574D02*
X019610Y003574D01*
X019619Y003582D02*
X019716Y003582D01*
X019716Y003591D02*
X019627Y003591D01*
X019636Y003599D02*
X019716Y003599D01*
X019716Y003608D02*
X019644Y003608D01*
X019644Y003616D02*
X019716Y003616D01*
X019716Y003625D02*
X019644Y003625D01*
X019644Y003633D02*
X019716Y003633D01*
X019716Y003642D02*
X019644Y003642D01*
X019644Y003650D02*
X019716Y003650D01*
X019716Y003659D02*
X019644Y003659D01*
X019644Y003667D02*
X019716Y003667D01*
X019716Y003676D02*
X019644Y003676D01*
X019644Y003684D02*
X019716Y003684D01*
X019716Y003693D02*
X019644Y003693D01*
X019644Y003701D02*
X019716Y003701D01*
X019716Y003710D02*
X019644Y003710D01*
X019644Y003718D02*
X019716Y003718D01*
X019716Y003727D02*
X019644Y003727D01*
X019644Y003735D02*
X019718Y003735D01*
X019727Y003744D02*
X019644Y003744D01*
X019644Y003752D02*
X019735Y003752D01*
X019744Y003761D02*
X019644Y003761D01*
X019644Y003769D02*
X019752Y003769D01*
X019761Y003778D02*
X019644Y003778D01*
X019644Y003786D02*
X019769Y003786D01*
X019778Y003795D02*
X019642Y003795D01*
X019634Y003803D02*
X019786Y003803D01*
X019795Y003812D02*
X019625Y003812D01*
X019617Y003820D02*
X019803Y003820D01*
X019812Y003829D02*
X019608Y003829D01*
X019600Y003837D02*
X019820Y003837D01*
X019829Y003846D02*
X019591Y003846D01*
X019583Y003854D02*
X019837Y003854D01*
X019846Y003863D02*
X019574Y003863D01*
D11*
X016594Y004213D03*
X016397Y004213D03*
X016200Y004213D03*
X016003Y004213D03*
X015806Y004213D03*
X015806Y005787D03*
X016003Y005787D03*
X016200Y005787D03*
X016397Y005787D03*
X016594Y005787D03*
D12*
X016987Y005394D03*
X016987Y005197D03*
X016987Y005000D03*
X016987Y004803D03*
X016987Y004606D03*
X015413Y004606D03*
X015413Y004803D03*
X015413Y005000D03*
X015413Y005197D03*
X015413Y005394D03*
D13*
X016200Y005000D03*
D14*
X010844Y005331D03*
X010647Y005331D03*
X010450Y005331D03*
X010253Y005331D03*
X010056Y005331D03*
X010056Y004169D03*
X010253Y004169D03*
X010450Y004169D03*
X010647Y004169D03*
X010844Y004169D03*
D15*
X010450Y004750D03*
D16*
X009859Y004652D03*
X009859Y004848D03*
X011041Y004848D03*
X011041Y004652D03*
D17*
X010591Y002700D03*
X009409Y002700D03*
D18*
X011600Y003894D03*
X012150Y003894D03*
X012150Y004406D03*
X011600Y004406D03*
X011280Y005924D03*
X011280Y006436D03*
X009330Y005976D03*
X008890Y005976D03*
X008440Y005976D03*
X008440Y005464D03*
X008890Y005464D03*
X009330Y005464D03*
X015000Y003256D03*
X015500Y003256D03*
X016000Y003256D03*
X016500Y003256D03*
X017000Y003256D03*
X017500Y003256D03*
X017500Y002744D03*
X017000Y002744D03*
X016500Y002744D03*
X016000Y002744D03*
X015500Y002744D03*
X015000Y002744D03*
X017500Y004344D03*
X017500Y004856D03*
D19*
X016956Y006400D03*
X016444Y006400D03*
X015756Y006400D03*
X015244Y006400D03*
X010816Y006810D03*
X010304Y006810D03*
X017004Y002220D03*
X017516Y002220D03*
D20*
X013554Y004050D03*
X012846Y004050D03*
D21*
X007394Y004057D03*
X006606Y004057D03*
D22*
X005661Y002009D03*
X008339Y002009D03*
D23*
X004600Y002149D03*
X004600Y003251D03*
D24*
X018649Y004500D03*
X019751Y004500D03*
D25*
X009300Y004851D03*
X009300Y003749D03*
D26*
X018888Y003053D03*
X019144Y003053D03*
X019400Y003053D03*
X019656Y003053D03*
X019912Y003053D03*
D27*
X019794Y002000D03*
X019006Y002004D03*
D28*
X018307Y002218D02*
X018307Y001782D01*
X020493Y001782D02*
X020493Y002218D01*
D29*
X010697Y006120D03*
X010343Y006120D03*
D30*
X012669Y005300D03*
X013200Y005300D03*
X013712Y005300D03*
D31*
X004232Y002513D02*
X002531Y002513D01*
X002609Y002435D02*
X004185Y002435D01*
X004185Y002466D02*
X004185Y001832D01*
X004220Y001797D01*
X004220Y001624D01*
X004272Y001500D01*
X004092Y001539D01*
X003820Y001646D01*
X003285Y001914D01*
X003030Y002071D01*
X003030Y002071D01*
X002810Y002233D01*
X002425Y002619D01*
X002127Y003075D01*
X001927Y003582D01*
X001834Y004119D01*
X001852Y004664D01*
X001980Y005194D01*
X002213Y005687D01*
X002366Y005913D01*
X002482Y006051D01*
X002757Y006283D01*
X003077Y006449D01*
X003425Y006539D01*
X003605Y006555D01*
X003706Y006550D01*
X003900Y006495D01*
X004068Y006383D01*
X004120Y006327D01*
X003866Y006354D01*
X003483Y006261D01*
X003153Y006045D01*
X003071Y005935D01*
X003071Y005935D01*
X003041Y005896D01*
X003034Y005887D01*
X002998Y005840D01*
X002998Y005840D01*
X002874Y005675D01*
X002681Y005179D01*
X002681Y005179D01*
X002661Y004973D01*
X002656Y004920D01*
X002656Y004914D01*
X002650Y004854D01*
X002638Y004728D01*
X002638Y004728D01*
X002742Y004369D01*
X002972Y004075D01*
X003293Y003885D01*
X003418Y003866D01*
X003422Y003865D01*
X003478Y003857D01*
X003537Y003847D01*
X003537Y003847D01*
X003781Y003810D01*
X004393Y003837D01*
X004393Y003837D01*
X004988Y003986D01*
X004988Y003986D01*
X005542Y004250D01*
X005739Y004398D01*
X005739Y004398D01*
X005776Y004426D01*
X005787Y004434D01*
X005787Y004434D01*
X006269Y004782D01*
X006269Y004097D01*
X006566Y004097D01*
X006566Y004017D01*
X006269Y004017D01*
X006269Y003133D01*
X006279Y003097D01*
X006297Y003065D01*
X006323Y003039D01*
X006355Y003021D01*
X006391Y003011D01*
X006566Y003011D01*
X006566Y004017D01*
X006646Y004017D01*
X006646Y003011D01*
X006822Y003011D01*
X006857Y003021D01*
X006889Y003039D01*
X006915Y003065D01*
X006934Y003097D01*
X006943Y003133D01*
X006943Y004017D01*
X006646Y004017D01*
X006646Y004097D01*
X006943Y004097D01*
X006943Y004981D01*
X006934Y005016D01*
X006915Y005048D01*
X006889Y005074D01*
X006857Y005093D01*
X006822Y005102D01*
X006743Y005102D01*
X007922Y005854D01*
X008163Y005989D01*
X008163Y005797D01*
X008221Y005738D01*
X008659Y005738D01*
X008665Y005745D01*
X008671Y005738D01*
X009109Y005738D01*
X009110Y005740D01*
X009111Y005738D01*
X009496Y005738D01*
X009532Y005702D01*
X009111Y005702D01*
X009110Y005700D01*
X009109Y005702D01*
X008671Y005702D01*
X008665Y005695D01*
X008659Y005702D01*
X008221Y005702D01*
X008163Y005643D01*
X008163Y005285D01*
X008221Y005226D01*
X008440Y005226D01*
X008440Y005005D01*
X007689Y005005D01*
X007632Y005062D01*
X007155Y005062D01*
X007097Y005004D01*
X007097Y004124D01*
X007094Y004116D01*
X007094Y002318D01*
X006764Y001988D01*
X006720Y001970D01*
X006630Y001880D01*
X006582Y001763D01*
X006582Y001637D01*
X006630Y001520D01*
X006720Y001430D01*
X006837Y001382D01*
X006963Y001382D01*
X007080Y001430D01*
X007170Y001520D01*
X007188Y001564D01*
X007648Y002024D01*
X007694Y002134D01*
X007694Y003495D01*
X008443Y003495D01*
X008505Y003557D01*
X008505Y003769D01*
X008685Y003589D01*
X008846Y003589D01*
X008846Y003392D01*
X008904Y003334D01*
X009040Y003334D01*
X009040Y003258D01*
X009080Y003162D01*
X009186Y003056D01*
X009112Y003056D01*
X009054Y002997D01*
X009054Y002403D01*
X009112Y002344D01*
X009707Y002344D01*
X009765Y002403D01*
X009765Y002898D01*
X009853Y002900D01*
X009902Y002900D01*
X009905Y002901D01*
X009908Y002901D01*
X009953Y002921D01*
X009997Y002940D01*
X010000Y002942D01*
X010003Y002943D01*
X010036Y002979D01*
X010070Y003013D01*
X010072Y003016D01*
X010074Y003018D01*
X010091Y003064D01*
X010110Y003108D01*
X010110Y003112D01*
X010111Y003115D01*
X010110Y003163D01*
X010110Y003212D01*
X010109Y003215D01*
X010109Y003218D01*
X010089Y003263D01*
X010070Y003307D01*
X010068Y003310D01*
X010067Y003313D01*
X010031Y003346D01*
X009997Y003380D01*
X009994Y003382D01*
X009992Y003384D01*
X009946Y003401D01*
X009902Y003420D01*
X009898Y003420D01*
X009895Y003421D01*
X009847Y003420D01*
X009798Y003420D01*
X009795Y003419D01*
X009754Y003418D01*
X009754Y003560D01*
X009966Y003560D01*
X010060Y003654D01*
X010216Y003810D01*
X010216Y003862D01*
X010253Y003862D01*
X010253Y004169D01*
X010253Y004169D01*
X010253Y003862D01*
X010290Y003862D01*
X010290Y003053D01*
X010235Y002997D01*
X010235Y002403D01*
X010293Y002344D01*
X010888Y002344D01*
X010946Y002403D01*
X010946Y002997D01*
X010888Y003056D01*
X010610Y003056D01*
X010610Y003130D01*
X012198Y003130D01*
X011958Y002890D01*
X011598Y002890D01*
X011510Y002802D01*
X010878Y002170D01*
X009376Y002170D01*
X009307Y002240D01*
X009212Y002279D01*
X009108Y002279D01*
X009013Y002240D01*
X008940Y002167D01*
X008901Y002072D01*
X008901Y001968D01*
X008940Y001873D01*
X009013Y001800D01*
X009108Y001761D01*
X009212Y001761D01*
X009307Y001800D01*
X009376Y001870D01*
X010784Y001870D01*
X010462Y001750D01*
X009326Y001452D01*
X008754Y001361D01*
X008754Y002720D01*
X008695Y002779D01*
X007982Y002779D01*
X007924Y002720D01*
X007924Y001299D01*
X007966Y001257D01*
X006994Y001200D01*
X006019Y001241D01*
X006076Y001299D01*
X006076Y002720D01*
X006018Y002779D01*
X005305Y002779D01*
X005246Y002720D01*
X005246Y001331D01*
X004828Y001391D01*
X004922Y001485D01*
X004980Y001624D01*
X004980Y001797D01*
X005015Y001832D01*
X005015Y002466D01*
X004956Y002524D01*
X004686Y002524D01*
X004676Y002529D01*
X004524Y002529D01*
X004514Y002524D01*
X004244Y002524D01*
X004185Y002466D01*
X004185Y002356D02*
X002687Y002356D01*
X002765Y002278D02*
X004185Y002278D01*
X004185Y002199D02*
X002856Y002199D01*
X002963Y002121D02*
X004185Y002121D01*
X004185Y002042D02*
X003077Y002042D01*
X003204Y001964D02*
X004185Y001964D01*
X004185Y001885D02*
X003342Y001885D01*
X003499Y001807D02*
X004210Y001807D01*
X004220Y001728D02*
X003656Y001728D01*
X003813Y001650D02*
X004220Y001650D01*
X004242Y001571D02*
X004011Y001571D01*
X004851Y001414D02*
X005246Y001414D01*
X005246Y001336D02*
X005217Y001336D01*
X005246Y001493D02*
X004925Y001493D01*
X004958Y001571D02*
X005246Y001571D01*
X005246Y001650D02*
X004980Y001650D01*
X004980Y001728D02*
X005246Y001728D01*
X005246Y001807D02*
X004990Y001807D01*
X005015Y001885D02*
X005246Y001885D01*
X005246Y001964D02*
X005015Y001964D01*
X005015Y002042D02*
X005246Y002042D01*
X005246Y002121D02*
X005015Y002121D01*
X005015Y002199D02*
X005246Y002199D01*
X005246Y002278D02*
X005015Y002278D01*
X005015Y002356D02*
X005246Y002356D01*
X005246Y002435D02*
X005015Y002435D01*
X004968Y002513D02*
X005246Y002513D01*
X005246Y002592D02*
X002453Y002592D01*
X002392Y002670D02*
X005246Y002670D01*
X005275Y002749D02*
X002341Y002749D01*
X002289Y002827D02*
X007094Y002827D01*
X007094Y002749D02*
X006048Y002749D01*
X006076Y002670D02*
X007094Y002670D01*
X007094Y002592D02*
X006076Y002592D01*
X006076Y002513D02*
X007094Y002513D01*
X007094Y002435D02*
X006076Y002435D01*
X006076Y002356D02*
X007094Y002356D01*
X007053Y002278D02*
X006076Y002278D01*
X006076Y002199D02*
X006975Y002199D01*
X006896Y002121D02*
X006076Y002121D01*
X006076Y002042D02*
X006818Y002042D01*
X006714Y001964D02*
X006076Y001964D01*
X006076Y001885D02*
X006635Y001885D01*
X006600Y001807D02*
X006076Y001807D01*
X006076Y001728D02*
X006582Y001728D01*
X006582Y001650D02*
X006076Y001650D01*
X006076Y001571D02*
X006609Y001571D01*
X006658Y001493D02*
X006076Y001493D01*
X006076Y001414D02*
X006759Y001414D01*
X007041Y001414D02*
X007924Y001414D01*
X007924Y001336D02*
X006076Y001336D01*
X006035Y001257D02*
X007965Y001257D01*
X007924Y001493D02*
X007142Y001493D01*
X007195Y001571D02*
X007924Y001571D01*
X007924Y001650D02*
X007274Y001650D01*
X007352Y001728D02*
X007924Y001728D01*
X007924Y001807D02*
X007431Y001807D01*
X007509Y001885D02*
X007924Y001885D01*
X007924Y001964D02*
X007588Y001964D01*
X007656Y002042D02*
X007924Y002042D01*
X007924Y002121D02*
X007688Y002121D01*
X007694Y002199D02*
X007924Y002199D01*
X007924Y002278D02*
X007694Y002278D01*
X007694Y002356D02*
X007924Y002356D01*
X007924Y002435D02*
X007694Y002435D01*
X007694Y002513D02*
X007924Y002513D01*
X007924Y002592D02*
X007694Y002592D01*
X007694Y002670D02*
X007924Y002670D01*
X007952Y002749D02*
X007694Y002749D01*
X007694Y002827D02*
X009054Y002827D01*
X009054Y002749D02*
X008725Y002749D01*
X008754Y002670D02*
X009054Y002670D01*
X009054Y002592D02*
X008754Y002592D01*
X008754Y002513D02*
X009054Y002513D01*
X009054Y002435D02*
X008754Y002435D01*
X008754Y002356D02*
X009100Y002356D01*
X009105Y002278D02*
X008754Y002278D01*
X008754Y002199D02*
X008973Y002199D01*
X008921Y002121D02*
X008754Y002121D01*
X008754Y002042D02*
X008901Y002042D01*
X008903Y001964D02*
X008754Y001964D01*
X008754Y001885D02*
X008936Y001885D01*
X009007Y001807D02*
X008754Y001807D01*
X008754Y001728D02*
X010378Y001728D01*
X010614Y001807D02*
X009313Y001807D01*
X009481Y001493D02*
X008754Y001493D01*
X008754Y001571D02*
X009780Y001571D01*
X010079Y001650D02*
X008754Y001650D01*
X008754Y001414D02*
X009087Y001414D01*
X009347Y002199D02*
X010907Y002199D01*
X010985Y002278D02*
X009215Y002278D01*
X009719Y002356D02*
X010281Y002356D01*
X010235Y002435D02*
X009765Y002435D01*
X009765Y002513D02*
X010235Y002513D01*
X010235Y002592D02*
X009765Y002592D01*
X009765Y002670D02*
X010235Y002670D01*
X010235Y002749D02*
X009765Y002749D01*
X009765Y002827D02*
X010235Y002827D01*
X010235Y002906D02*
X009918Y002906D01*
X010042Y002984D02*
X010235Y002984D01*
X010290Y003063D02*
X010091Y003063D01*
X010111Y003141D02*
X010290Y003141D01*
X010290Y003220D02*
X010108Y003220D01*
X010074Y003298D02*
X010290Y003298D01*
X010290Y003377D02*
X010001Y003377D01*
X010018Y003612D02*
X010290Y003612D01*
X010290Y003534D02*
X009754Y003534D01*
X009754Y003455D02*
X010290Y003455D01*
X010290Y003691D02*
X010097Y003691D01*
X010175Y003769D02*
X010290Y003769D01*
X010290Y003848D02*
X010216Y003848D01*
X010253Y003926D02*
X010253Y003926D01*
X010253Y004005D02*
X010253Y004005D01*
X010253Y004083D02*
X010253Y004083D01*
X010253Y004162D02*
X010253Y004162D01*
X009896Y004162D02*
X009698Y004162D01*
X009696Y004164D02*
X008904Y004164D01*
X008846Y004105D01*
X008846Y003909D01*
X008817Y003909D01*
X008760Y003966D01*
X008760Y005226D01*
X008819Y005226D01*
X008815Y005220D01*
X008806Y005185D01*
X008806Y004891D01*
X009260Y004891D01*
X009260Y004811D01*
X009340Y004811D01*
X009340Y004396D01*
X009673Y004396D01*
X009708Y004406D01*
X009740Y004424D01*
X009766Y004450D01*
X009770Y004456D01*
X009838Y004456D01*
X009838Y004407D01*
X009847Y004371D01*
X009866Y004339D01*
X009892Y004313D01*
X009898Y004310D01*
X009898Y004237D01*
X009896Y004236D01*
X009896Y003943D01*
X009834Y003880D01*
X009754Y003880D01*
X009754Y004105D01*
X009696Y004164D01*
X009754Y004083D02*
X009896Y004083D01*
X009896Y004005D02*
X009754Y004005D01*
X009754Y003926D02*
X009880Y003926D01*
X009898Y004240D02*
X008760Y004240D01*
X008760Y004162D02*
X008902Y004162D01*
X008846Y004083D02*
X008760Y004083D01*
X008760Y004005D02*
X008846Y004005D01*
X008846Y003926D02*
X008800Y003926D01*
X008583Y003691D02*
X008505Y003691D01*
X008505Y003612D02*
X008662Y003612D01*
X008482Y003534D02*
X008846Y003534D01*
X008846Y003455D02*
X007694Y003455D01*
X007694Y003377D02*
X008862Y003377D01*
X009040Y003298D02*
X007694Y003298D01*
X007694Y003220D02*
X009056Y003220D01*
X009101Y003141D02*
X007694Y003141D01*
X007694Y003063D02*
X009179Y003063D01*
X009054Y002984D02*
X007694Y002984D01*
X007694Y002906D02*
X009054Y002906D01*
X008760Y004319D02*
X009886Y004319D01*
X009840Y004397D02*
X009676Y004397D01*
X009340Y004397D02*
X009260Y004397D01*
X009260Y004396D02*
X009260Y004811D01*
X008806Y004811D01*
X008806Y004518D01*
X008815Y004482D01*
X008834Y004450D01*
X008860Y004424D01*
X008892Y004406D01*
X008927Y004396D01*
X009260Y004396D01*
X009260Y004476D02*
X009340Y004476D01*
X009340Y004554D02*
X009260Y004554D01*
X009260Y004633D02*
X009340Y004633D01*
X009340Y004711D02*
X009260Y004711D01*
X009260Y004790D02*
X009340Y004790D01*
X009340Y004811D02*
X009340Y004891D01*
X009582Y004891D01*
X009582Y004848D01*
X009582Y004811D01*
X009340Y004811D01*
X009340Y004868D02*
X009582Y004868D01*
X009582Y004848D02*
X009838Y004848D01*
X009582Y004848D01*
X009838Y004848D02*
X009838Y004848D01*
X010137Y004790D02*
X010410Y004790D01*
X010410Y004710D01*
X010137Y004710D01*
X010137Y004725D01*
X010131Y004750D01*
X010137Y004775D01*
X010137Y004790D01*
X010410Y004790D01*
X010410Y004711D02*
X010137Y004711D01*
X010490Y004711D02*
X010763Y004711D01*
X010763Y004710D02*
X010490Y004710D01*
X010490Y004790D01*
X010538Y004790D01*
X010578Y004750D01*
X010702Y004750D01*
X010742Y004790D01*
X010763Y004790D01*
X010763Y004775D01*
X010769Y004750D01*
X010763Y004725D01*
X010763Y004710D01*
X010763Y004790D02*
X010742Y004790D01*
X010538Y004790D02*
X010490Y004790D01*
X011062Y004848D02*
X011062Y004848D01*
X011318Y004848D01*
X011318Y004775D01*
X011312Y004750D01*
X011318Y004725D01*
X011318Y004652D01*
X011062Y004652D01*
X011062Y004652D01*
X011318Y004652D01*
X011318Y004637D01*
X011337Y004656D01*
X011369Y004674D01*
X011404Y004684D01*
X011571Y004684D01*
X011571Y004435D01*
X011629Y004435D01*
X011629Y004684D01*
X011796Y004684D01*
X011831Y004674D01*
X011863Y004656D01*
X011889Y004630D01*
X011900Y004612D01*
X011931Y004644D01*
X011990Y004644D01*
X011990Y004864D01*
X011854Y005000D01*
X011434Y005000D01*
X011240Y005194D01*
X011217Y005171D01*
X011025Y005171D01*
X011034Y005161D01*
X011053Y005129D01*
X011062Y005093D01*
X011062Y005044D01*
X011197Y005044D01*
X011232Y005034D01*
X011264Y005016D01*
X011290Y004990D01*
X011309Y004958D01*
X011318Y004922D01*
X011318Y004848D01*
X011062Y004848D01*
X011248Y005025D02*
X011409Y005025D01*
X011330Y005104D02*
X011060Y005104D01*
X011228Y005182D02*
X011252Y005182D01*
X011312Y004947D02*
X011907Y004947D01*
X011986Y004868D02*
X011318Y004868D01*
X011318Y004790D02*
X011990Y004790D01*
X011990Y004711D02*
X011318Y004711D01*
X011283Y004503D02*
X011264Y004484D01*
X011232Y004466D01*
X011197Y004456D01*
X011062Y004456D01*
X011062Y004407D01*
X011053Y004371D01*
X011034Y004339D01*
X011025Y004329D01*
X011097Y004329D01*
X011196Y004230D01*
X011288Y004230D01*
X011283Y004250D01*
X011283Y004377D01*
X011571Y004377D01*
X011571Y004435D01*
X011283Y004435D01*
X011283Y004503D01*
X011283Y004476D02*
X011249Y004476D01*
X011283Y004319D02*
X011108Y004319D01*
X011060Y004397D02*
X011571Y004397D01*
X011571Y004476D02*
X011629Y004476D01*
X011629Y004554D02*
X011571Y004554D01*
X011571Y004633D02*
X011629Y004633D01*
X011886Y004633D02*
X011920Y004633D01*
X011285Y004240D02*
X011186Y004240D01*
X010610Y003063D02*
X012130Y003063D01*
X012052Y002984D02*
X010946Y002984D01*
X010946Y002906D02*
X011973Y002906D01*
X011535Y002827D02*
X010946Y002827D01*
X010946Y002749D02*
X011456Y002749D01*
X011378Y002670D02*
X010946Y002670D01*
X010946Y002592D02*
X011299Y002592D01*
X011221Y002513D02*
X010946Y002513D01*
X010946Y002435D02*
X011142Y002435D01*
X011064Y002356D02*
X010900Y002356D01*
X012950Y003410D02*
X012950Y003714D01*
X013045Y003714D01*
X013103Y003772D01*
X013103Y004328D01*
X013047Y004384D01*
X013087Y004400D01*
X013160Y004473D01*
X013199Y004568D01*
X013199Y004667D01*
X013262Y004730D01*
X013299Y004767D01*
X013399Y004767D01*
X013432Y004800D01*
X013442Y004781D01*
X013468Y004755D01*
X013500Y004736D01*
X013536Y004727D01*
X013673Y004727D01*
X013673Y005261D01*
X013751Y005261D01*
X013751Y005339D01*
X013956Y005339D01*
X014040Y005255D01*
X014910Y005255D01*
X014995Y005340D01*
X014995Y006136D01*
X015020Y006111D01*
X015052Y006092D01*
X015088Y006083D01*
X015215Y006083D01*
X015215Y006371D01*
X015273Y006371D01*
X015273Y006083D01*
X015400Y006083D01*
X015436Y006092D01*
X015468Y006111D01*
X015494Y006137D01*
X015512Y006169D01*
X015518Y006190D01*
X015518Y006181D01*
X015577Y006123D01*
X015821Y006123D01*
X015853Y006091D01*
X015853Y006075D01*
X015806Y006075D01*
X015729Y006075D01*
X015693Y006065D01*
X015661Y006047D01*
X015635Y006021D01*
X015617Y005989D01*
X015607Y005953D01*
X015607Y005787D01*
X015607Y005621D01*
X015617Y005586D01*
X015620Y005580D01*
X015614Y005583D01*
X015579Y005593D01*
X015413Y005593D01*
X015413Y005394D01*
X015413Y005394D01*
X015413Y005593D01*
X015247Y005593D01*
X015211Y005583D01*
X015179Y005565D01*
X015153Y005539D01*
X015135Y005507D01*
X015125Y005471D01*
X015125Y005394D01*
X015413Y005394D01*
X015413Y005394D01*
X015125Y005394D01*
X015125Y005340D01*
X015122Y005340D01*
X015040Y005258D01*
X014700Y004918D01*
X014700Y003658D01*
X014560Y003518D01*
X014560Y002958D01*
X014534Y002932D01*
X014487Y002980D01*
X014392Y003019D01*
X014293Y003019D01*
X013990Y003322D01*
X013990Y003322D01*
X013902Y003410D01*
X012950Y003410D01*
X012950Y003455D02*
X014560Y003455D01*
X014560Y003377D02*
X013936Y003377D01*
X014014Y003298D02*
X014560Y003298D01*
X014560Y003220D02*
X014093Y003220D01*
X014171Y003141D02*
X014560Y003141D01*
X014560Y003063D02*
X014250Y003063D01*
X014476Y002984D02*
X014560Y002984D01*
X014700Y002900D02*
X014560Y002760D01*
X014340Y002760D01*
X014700Y002900D02*
X014700Y003460D01*
X014840Y003600D01*
X014840Y004860D01*
X015180Y005200D01*
X015409Y005200D01*
X015413Y005197D01*
X015413Y005000D02*
X015200Y005000D01*
X015000Y004800D01*
X015000Y003256D01*
X015400Y003356D02*
X015400Y003500D01*
X015140Y003760D01*
X015140Y004700D01*
X015240Y004800D01*
X015409Y004800D01*
X014964Y005182D02*
X014009Y005182D01*
X014009Y005104D02*
X014886Y005104D01*
X014807Y005025D02*
X014009Y005025D01*
X014009Y004947D02*
X014729Y004947D01*
X014700Y004868D02*
X014009Y004868D01*
X014009Y004848D02*
X014009Y005261D01*
X013751Y005261D01*
X013751Y004727D01*
X013888Y004727D01*
X013923Y004736D01*
X013955Y004755D01*
X013981Y004781D01*
X014000Y004813D01*
X014009Y004848D01*
X013986Y004790D02*
X014700Y004790D01*
X014700Y004711D02*
X013243Y004711D01*
X013199Y004633D02*
X014700Y004633D01*
X014700Y004554D02*
X013193Y004554D01*
X013161Y004476D02*
X014700Y004476D01*
X014700Y004397D02*
X013799Y004397D01*
X013798Y004398D02*
X013766Y004417D01*
X013730Y004426D01*
X013593Y004426D01*
X013593Y004089D01*
X013516Y004089D01*
X013516Y004426D01*
X013378Y004426D01*
X013343Y004417D01*
X013311Y004398D01*
X013285Y004372D01*
X013266Y004340D01*
X013257Y004305D01*
X013257Y004089D01*
X013516Y004089D01*
X013516Y004011D01*
X013593Y004011D01*
X013593Y003674D01*
X013730Y003674D01*
X013766Y003683D01*
X013798Y003702D01*
X013824Y003728D01*
X013842Y003760D01*
X013852Y003795D01*
X013852Y004011D01*
X013593Y004011D01*
X013593Y004089D01*
X013852Y004089D01*
X013852Y004305D01*
X013842Y004340D01*
X013824Y004372D01*
X013798Y004398D01*
X013848Y004319D02*
X014700Y004319D01*
X014700Y004240D02*
X013852Y004240D01*
X013852Y004162D02*
X014700Y004162D01*
X014700Y004083D02*
X013593Y004083D01*
X013516Y004083D02*
X013103Y004083D01*
X013103Y004005D02*
X013257Y004005D01*
X013257Y004011D02*
X013257Y003795D01*
X013266Y003760D01*
X013285Y003728D01*
X013311Y003702D01*
X013343Y003683D01*
X013378Y003674D01*
X013516Y003674D01*
X013516Y004011D01*
X013257Y004011D01*
X013257Y003926D02*
X013103Y003926D01*
X013103Y003848D02*
X013257Y003848D01*
X013264Y003769D02*
X013100Y003769D01*
X012950Y003691D02*
X013330Y003691D01*
X013516Y003691D02*
X013593Y003691D01*
X013593Y003769D02*
X013516Y003769D01*
X013516Y003848D02*
X013593Y003848D01*
X013593Y003926D02*
X013516Y003926D01*
X013516Y004005D02*
X013593Y004005D01*
X013593Y004162D02*
X013516Y004162D01*
X013516Y004240D02*
X013593Y004240D01*
X013593Y004319D02*
X013516Y004319D01*
X013516Y004397D02*
X013593Y004397D01*
X013310Y004397D02*
X013079Y004397D01*
X013103Y004319D02*
X013261Y004319D01*
X013257Y004240D02*
X013103Y004240D01*
X013103Y004162D02*
X013257Y004162D01*
X013852Y004005D02*
X014700Y004005D01*
X014700Y003926D02*
X013852Y003926D01*
X013852Y003848D02*
X014700Y003848D01*
X014700Y003769D02*
X013845Y003769D01*
X013778Y003691D02*
X014700Y003691D01*
X014654Y003612D02*
X012950Y003612D01*
X012950Y003534D02*
X014576Y003534D01*
X015400Y003356D02*
X015500Y003256D01*
X015750Y002538D02*
X015719Y002506D01*
X015661Y002506D01*
X015720Y002447D01*
X015760Y002352D01*
X015760Y002248D01*
X015720Y002153D01*
X015647Y002080D01*
X015552Y002040D01*
X015448Y002040D01*
X015353Y002080D01*
X015280Y002153D01*
X015240Y002248D01*
X015240Y002352D01*
X015280Y002447D01*
X015339Y002506D01*
X015281Y002506D01*
X015250Y002538D01*
X015219Y002506D01*
X014974Y002506D01*
X014778Y002310D01*
X014530Y002310D01*
X014838Y002159D01*
X015938Y001750D01*
X017074Y001452D01*
X018234Y001268D01*
X019406Y001200D01*
X020579Y001250D01*
X021742Y001415D01*
X022308Y001539D01*
X022580Y001646D01*
X023115Y001914D01*
X023370Y002071D01*
X023370Y002071D01*
X023590Y002233D01*
X023975Y002619D01*
X024273Y003075D01*
X024473Y003582D01*
X024566Y004119D01*
X024548Y004664D01*
X024420Y005194D01*
X024187Y005687D01*
X024034Y005913D01*
X024034Y005913D01*
X023918Y006051D01*
X023643Y006283D01*
X023323Y006449D01*
X022975Y006539D01*
X022795Y006555D01*
X022795Y006555D01*
X022694Y006550D01*
X022500Y006495D01*
X022332Y006383D01*
X022280Y006327D01*
X022534Y006354D01*
X022534Y006354D01*
X022917Y006261D01*
X022917Y006261D01*
X023247Y006045D01*
X023247Y006045D01*
X023247Y006045D01*
X023329Y005935D01*
X023329Y005935D01*
X023366Y005888D01*
X023366Y005887D01*
X023402Y005840D01*
X023402Y005840D01*
X023526Y005675D01*
X023526Y005675D01*
X023719Y005179D01*
X023719Y005179D01*
X023739Y004973D01*
X023739Y004973D01*
X023744Y004914D01*
X023744Y004914D01*
X023750Y004854D01*
X023762Y004728D01*
X023762Y004728D01*
X023658Y004369D01*
X023658Y004369D01*
X023428Y004075D01*
X023428Y004075D01*
X023428Y004075D01*
X023107Y003885D01*
X023107Y003885D01*
X022982Y003866D01*
X022926Y003857D01*
X022922Y003857D01*
X022863Y003847D01*
X022619Y003810D01*
X022619Y003810D01*
X022007Y003837D01*
X022007Y003837D01*
X021412Y003986D01*
X021412Y003986D01*
X020858Y004250D01*
X020858Y004250D01*
X020805Y004290D01*
X020805Y003763D01*
X020820Y003747D01*
X020860Y003652D01*
X020860Y003548D01*
X020820Y003453D01*
X020805Y003437D01*
X020805Y002757D01*
X020743Y002695D01*
X020393Y002695D01*
X020387Y002681D01*
X020314Y002608D01*
X020219Y002569D01*
X020116Y002569D01*
X020022Y002608D01*
X019949Y002681D01*
X019946Y002687D01*
X019792Y002687D01*
X019784Y002695D01*
X019784Y002695D01*
X019776Y002687D01*
X019536Y002687D01*
X019528Y002695D01*
X019520Y002687D01*
X019280Y002687D01*
X019272Y002695D01*
X019264Y002687D01*
X019065Y002687D01*
X019053Y002675D01*
X019021Y002657D01*
X018985Y002647D01*
X018888Y002647D01*
X018888Y002770D01*
X018888Y002770D01*
X018888Y002647D01*
X018818Y002647D01*
X018778Y002608D01*
X018684Y002569D01*
X018581Y002569D01*
X018486Y002608D01*
X018413Y002681D01*
X018374Y002775D01*
X018374Y002878D01*
X018413Y002973D01*
X018486Y003046D01*
X018581Y003085D01*
X018669Y003085D01*
X018669Y003295D01*
X017777Y003295D01*
X017777Y003077D01*
X017719Y003018D01*
X017710Y003018D01*
X017731Y003012D01*
X017763Y002994D01*
X017789Y002968D01*
X017808Y002936D01*
X017817Y002900D01*
X017817Y002773D01*
X017529Y002773D01*
X017529Y002715D01*
X017529Y002466D01*
X017545Y002466D01*
X017545Y002249D01*
X017794Y002249D01*
X017794Y002416D01*
X017784Y002451D01*
X017766Y002483D01*
X017758Y002491D01*
X017763Y002494D01*
X017789Y002520D01*
X017808Y002552D01*
X017817Y002588D01*
X017817Y002715D01*
X017529Y002715D01*
X017471Y002715D01*
X017471Y002537D01*
X017487Y002537D01*
X017487Y002249D01*
X017545Y002249D01*
X017545Y002191D01*
X017794Y002191D01*
X017794Y002024D01*
X017784Y001989D01*
X017766Y001957D01*
X017740Y001931D01*
X017708Y001912D01*
X017672Y001903D01*
X017545Y001903D01*
X017545Y002191D01*
X017487Y002191D01*
X017487Y001903D01*
X017360Y001903D01*
X017324Y001912D01*
X017292Y001931D01*
X017266Y001957D01*
X017248Y001989D01*
X017242Y002010D01*
X017242Y002001D01*
X017183Y001943D01*
X016825Y001943D01*
X016766Y002001D01*
X016766Y002070D01*
X016544Y002070D01*
X016456Y002158D01*
X016398Y002216D01*
X016380Y002173D01*
X016307Y002100D01*
X016212Y002060D01*
X016108Y002060D01*
X016013Y002100D01*
X015940Y002173D01*
X015900Y002268D01*
X015900Y002372D01*
X015940Y002467D01*
X015979Y002506D01*
X015781Y002506D01*
X015750Y002538D01*
X015725Y002513D02*
X015775Y002513D01*
X015726Y002435D02*
X015926Y002435D01*
X015900Y002356D02*
X015758Y002356D01*
X015760Y002278D02*
X015900Y002278D01*
X015929Y002199D02*
X015740Y002199D01*
X015688Y002121D02*
X015992Y002121D01*
X016328Y002121D02*
X016493Y002121D01*
X016415Y002199D02*
X016391Y002199D01*
X016766Y002042D02*
X015557Y002042D01*
X015443Y002042D02*
X015153Y002042D01*
X015312Y002121D02*
X014942Y002121D01*
X014757Y002199D02*
X015260Y002199D01*
X015240Y002278D02*
X014597Y002278D01*
X014824Y002356D02*
X015242Y002356D01*
X015274Y002435D02*
X014903Y002435D01*
X015225Y002513D02*
X015275Y002513D01*
X015364Y001964D02*
X016804Y001964D01*
X017204Y001964D02*
X017262Y001964D01*
X017487Y001964D02*
X017545Y001964D01*
X017545Y002042D02*
X017487Y002042D01*
X017487Y002121D02*
X017545Y002121D01*
X017545Y002199D02*
X017949Y002199D01*
X017949Y002254D02*
X017949Y002009D01*
X018298Y002009D01*
X018298Y001991D01*
X017949Y001991D01*
X017949Y001746D01*
X017963Y001677D01*
X017990Y001612D01*
X018029Y001553D01*
X018079Y001503D01*
X018138Y001464D01*
X018203Y001437D01*
X018272Y001423D01*
X018298Y001423D01*
X018298Y001991D01*
X018317Y001991D01*
X018317Y001423D01*
X018343Y001423D01*
X018412Y001437D01*
X018477Y001464D01*
X018536Y001503D01*
X018586Y001553D01*
X018611Y001591D01*
X018611Y001588D01*
X018670Y001530D01*
X019343Y001530D01*
X019398Y001585D01*
X019398Y001585D01*
X019457Y001526D01*
X020130Y001526D01*
X020189Y001585D01*
X020189Y001591D01*
X020214Y001553D01*
X020264Y001503D01*
X020323Y001464D01*
X020388Y001437D01*
X020457Y001423D01*
X020483Y001423D01*
X020483Y001991D01*
X020502Y001991D01*
X020502Y002009D01*
X020851Y002009D01*
X020851Y002254D01*
X020837Y002323D01*
X020810Y002388D01*
X020771Y002447D01*
X020721Y002497D01*
X020662Y002536D01*
X020597Y002563D01*
X020528Y002577D01*
X020502Y002577D01*
X020502Y002009D01*
X020483Y002009D01*
X020483Y002577D01*
X020457Y002577D01*
X020388Y002563D01*
X020323Y002536D01*
X020264Y002497D01*
X020214Y002447D01*
X020189Y002409D01*
X020189Y002415D01*
X020130Y002474D01*
X019457Y002474D01*
X019402Y002419D01*
X019343Y002478D01*
X018670Y002478D01*
X018611Y002419D01*
X018611Y002409D01*
X018586Y002447D01*
X018536Y002497D01*
X018477Y002536D01*
X018412Y002563D01*
X018343Y002577D01*
X018317Y002577D01*
X018317Y002009D01*
X018298Y002009D01*
X018298Y002577D01*
X018272Y002577D01*
X018203Y002563D01*
X018138Y002536D01*
X018079Y002497D01*
X018029Y002447D01*
X017990Y002388D01*
X017963Y002323D01*
X017949Y002254D01*
X017954Y002278D02*
X017794Y002278D01*
X017794Y002356D02*
X017977Y002356D01*
X018021Y002435D02*
X017789Y002435D01*
X017782Y002513D02*
X018103Y002513D01*
X018298Y002513D02*
X018317Y002513D01*
X018317Y002435D02*
X018298Y002435D01*
X018298Y002356D02*
X018317Y002356D01*
X018317Y002278D02*
X018298Y002278D01*
X018298Y002199D02*
X018317Y002199D01*
X018317Y002121D02*
X018298Y002121D01*
X018298Y002042D02*
X018317Y002042D01*
X018317Y001964D02*
X018298Y001964D01*
X018298Y001885D02*
X018317Y001885D01*
X018317Y001807D02*
X018298Y001807D01*
X018298Y001728D02*
X018317Y001728D01*
X018317Y001650D02*
X018298Y001650D01*
X018298Y001571D02*
X018317Y001571D01*
X018317Y001493D02*
X018298Y001493D01*
X018095Y001493D02*
X016919Y001493D01*
X016620Y001571D02*
X018017Y001571D01*
X017974Y001650D02*
X016321Y001650D01*
X016022Y001728D02*
X017953Y001728D01*
X017949Y001807D02*
X015786Y001807D01*
X015575Y001885D02*
X017949Y001885D01*
X017949Y001964D02*
X017770Y001964D01*
X017794Y002042D02*
X017949Y002042D01*
X017949Y002121D02*
X017794Y002121D01*
X017545Y002278D02*
X017487Y002278D01*
X017487Y002356D02*
X017545Y002356D01*
X017545Y002435D02*
X017487Y002435D01*
X017487Y002513D02*
X017529Y002513D01*
X017529Y002592D02*
X017471Y002592D01*
X017471Y002670D02*
X017529Y002670D01*
X017529Y002749D02*
X018385Y002749D01*
X018374Y002827D02*
X017817Y002827D01*
X017816Y002906D02*
X018386Y002906D01*
X018424Y002984D02*
X017773Y002984D01*
X017763Y003063D02*
X018527Y003063D01*
X018669Y003141D02*
X017777Y003141D01*
X017777Y003220D02*
X018669Y003220D01*
X018888Y002749D02*
X018888Y002749D01*
X018888Y002670D02*
X018888Y002670D01*
X019044Y002670D02*
X019959Y002670D01*
X020061Y002592D02*
X018739Y002592D01*
X018626Y002435D02*
X018594Y002435D01*
X018512Y002513D02*
X020288Y002513D01*
X020274Y002592D02*
X021440Y002592D01*
X021536Y002572D02*
X021140Y002653D01*
X021118Y002648D01*
X021099Y002661D01*
X021076Y002666D01*
X021064Y002684D01*
X021046Y002696D01*
X021041Y002719D01*
X021028Y002738D01*
X021033Y002760D01*
X021028Y002782D01*
X021041Y002801D01*
X021046Y002824D01*
X021064Y002836D01*
X021076Y002854D01*
X021099Y002859D01*
X021118Y002872D01*
X021140Y002867D01*
X021539Y002949D01*
X021323Y003295D01*
X021306Y003306D01*
X021301Y003330D01*
X021288Y003351D01*
X021292Y003371D01*
X021288Y003391D01*
X021302Y003412D01*
X021308Y003436D01*
X021325Y003447D01*
X021336Y003464D01*
X021360Y003469D01*
X021381Y003482D01*
X021401Y003478D01*
X021421Y003482D01*
X021442Y003468D01*
X021466Y003462D01*
X021477Y003445D01*
X021804Y003233D01*
X021893Y003640D01*
X021888Y003660D01*
X021901Y003681D01*
X021907Y003705D01*
X021924Y003716D01*
X021935Y003733D01*
X021959Y003739D01*
X021980Y003752D01*
X022000Y003747D01*
X022020Y003752D01*
X022041Y003739D01*
X022065Y003733D01*
X022076Y003716D01*
X022093Y003705D01*
X022099Y003681D01*
X022112Y003660D01*
X022107Y003640D01*
X022197Y003227D01*
X022534Y003436D01*
X022545Y003453D01*
X022570Y003459D01*
X022591Y003472D01*
X022610Y003468D01*
X022629Y003472D01*
X022651Y003458D01*
X022676Y003452D01*
X022686Y003436D01*
X022703Y003425D01*
X022709Y003400D01*
X022722Y003379D01*
X022718Y003360D01*
X022722Y003341D01*
X022708Y003319D01*
X022702Y003294D01*
X022686Y003284D01*
X022473Y002947D01*
X022880Y002867D01*
X022903Y002871D01*
X022921Y002859D01*
X022943Y002855D01*
X022956Y002836D01*
X022975Y002823D01*
X022979Y002801D01*
X022991Y002783D01*
X022987Y002760D01*
X022991Y002737D01*
X022979Y002719D01*
X022975Y002697D01*
X022956Y002684D01*
X022943Y002665D01*
X022921Y002661D01*
X022903Y002649D01*
X022880Y002653D01*
X022468Y002572D01*
X022687Y002215D01*
X022704Y002204D01*
X022709Y002179D01*
X022722Y002158D01*
X022718Y002138D01*
X022722Y002119D01*
X022708Y002098D01*
X022702Y002073D01*
X022685Y002063D01*
X022674Y002046D01*
X022649Y002041D01*
X022628Y002028D01*
X022608Y002032D01*
X022589Y002028D01*
X022568Y002042D01*
X022144Y002042D01*
X022127Y001964D02*
X023196Y001964D01*
X023323Y002042D02*
X022654Y002042D01*
X022568Y002042D02*
X022543Y002048D01*
X022533Y002065D01*
X022202Y002282D01*
X022198Y002277D01*
X022108Y001880D01*
X022112Y001861D01*
X022098Y001839D01*
X022093Y001814D01*
X022076Y001804D01*
X022066Y001787D01*
X022041Y001782D01*
X022019Y001768D01*
X022000Y001772D01*
X021981Y001768D01*
X021959Y001782D01*
X021934Y001787D01*
X021924Y001804D01*
X021907Y001814D01*
X021902Y001839D01*
X021888Y001861D01*
X021892Y001880D01*
X021802Y002277D01*
X021799Y002281D01*
X021457Y002055D01*
X021445Y002037D01*
X021422Y002032D01*
X021402Y002018D01*
X021381Y002023D01*
X021360Y002018D01*
X021340Y002031D01*
X021316Y002036D01*
X021305Y002053D01*
X021287Y002065D01*
X021282Y002088D01*
X021268Y002108D01*
X021273Y002129D01*
X021268Y002150D01*
X021281Y002170D01*
X021286Y002194D01*
X021303Y002205D01*
X021536Y002572D01*
X021499Y002513D02*
X020697Y002513D01*
X020779Y002435D02*
X021449Y002435D01*
X021399Y002356D02*
X020823Y002356D01*
X020846Y002278D02*
X021349Y002278D01*
X021294Y002199D02*
X020851Y002199D01*
X020851Y002121D02*
X021271Y002121D01*
X021312Y002042D02*
X020851Y002042D01*
X020851Y001991D02*
X020502Y001991D01*
X020502Y001423D01*
X020528Y001423D01*
X020597Y001437D01*
X020662Y001464D01*
X020721Y001503D01*
X020771Y001553D01*
X020810Y001612D01*
X020837Y001677D01*
X020851Y001746D01*
X020851Y001991D01*
X020851Y001964D02*
X021873Y001964D01*
X021856Y002042D02*
X021449Y002042D01*
X021556Y002121D02*
X021838Y002121D01*
X021820Y002199D02*
X021675Y002199D01*
X021793Y002278D02*
X021802Y002278D01*
X022180Y002199D02*
X022329Y002199D01*
X022448Y002121D02*
X022162Y002121D01*
X022198Y002278D02*
X022209Y002278D01*
X022505Y002513D02*
X023869Y002513D01*
X023791Y002435D02*
X022553Y002435D01*
X022601Y002356D02*
X023713Y002356D01*
X023635Y002278D02*
X022649Y002278D01*
X022705Y002199D02*
X023544Y002199D01*
X023437Y002121D02*
X022721Y002121D01*
X022901Y001807D02*
X022080Y001807D01*
X022109Y001885D02*
X023058Y001885D01*
X022744Y001728D02*
X020847Y001728D01*
X020851Y001807D02*
X021920Y001807D01*
X021891Y001885D02*
X020851Y001885D01*
X020826Y001650D02*
X022587Y001650D01*
X022389Y001571D02*
X020783Y001571D01*
X020705Y001493D02*
X022095Y001493D01*
X021735Y001414D02*
X017313Y001414D01*
X017809Y001336D02*
X021183Y001336D01*
X020631Y001257D02*
X018427Y001257D01*
X018520Y001493D02*
X020280Y001493D01*
X020202Y001571D02*
X020175Y001571D01*
X020483Y001571D02*
X020502Y001571D01*
X020502Y001493D02*
X020483Y001493D01*
X020483Y001650D02*
X020502Y001650D01*
X020502Y001728D02*
X020483Y001728D01*
X020483Y001807D02*
X020502Y001807D01*
X020502Y001885D02*
X020483Y001885D01*
X020483Y001964D02*
X020502Y001964D01*
X020502Y002042D02*
X020483Y002042D01*
X020483Y002121D02*
X020502Y002121D01*
X020502Y002199D02*
X020483Y002199D01*
X020483Y002278D02*
X020502Y002278D01*
X020502Y002356D02*
X020483Y002356D01*
X020483Y002435D02*
X020502Y002435D01*
X020502Y002513D02*
X020483Y002513D01*
X020376Y002670D02*
X021074Y002670D01*
X021030Y002749D02*
X020797Y002749D01*
X020805Y002827D02*
X021051Y002827D01*
X020805Y002906D02*
X021327Y002906D01*
X021517Y002984D02*
X020805Y002984D01*
X020805Y003063D02*
X021468Y003063D01*
X021419Y003141D02*
X020805Y003141D01*
X020805Y003220D02*
X021370Y003220D01*
X021318Y003298D02*
X020805Y003298D01*
X020805Y003377D02*
X021291Y003377D01*
X021330Y003455D02*
X020821Y003455D01*
X020854Y003534D02*
X021869Y003534D01*
X021886Y003612D02*
X020860Y003612D01*
X020844Y003691D02*
X021904Y003691D01*
X021966Y003848D02*
X020805Y003848D01*
X020805Y003926D02*
X021652Y003926D01*
X021373Y004005D02*
X020805Y004005D01*
X020805Y004083D02*
X021208Y004083D01*
X021044Y004162D02*
X020805Y004162D01*
X020805Y004240D02*
X020879Y004240D01*
X020805Y003769D02*
X024505Y003769D01*
X024492Y003691D02*
X022096Y003691D01*
X022114Y003612D02*
X024478Y003612D01*
X024454Y003534D02*
X022131Y003534D01*
X022148Y003455D02*
X022554Y003455D01*
X022665Y003455D02*
X024423Y003455D01*
X024392Y003377D02*
X022722Y003377D01*
X022703Y003298D02*
X024361Y003298D01*
X024330Y003220D02*
X022645Y003220D01*
X022596Y003141D02*
X024299Y003141D01*
X024265Y003063D02*
X022546Y003063D01*
X022496Y002984D02*
X024214Y002984D01*
X024162Y002906D02*
X022683Y002906D01*
X022969Y002827D02*
X024111Y002827D01*
X024059Y002749D02*
X022989Y002749D01*
X022946Y002670D02*
X024008Y002670D01*
X023947Y002592D02*
X022566Y002592D01*
X022312Y003298D02*
X022182Y003298D01*
X022165Y003377D02*
X022438Y003377D01*
X021852Y003455D02*
X021471Y003455D01*
X021583Y003377D02*
X021835Y003377D01*
X021818Y003298D02*
X021703Y003298D01*
X022863Y003848D02*
X024519Y003848D01*
X024532Y003926D02*
X023176Y003926D01*
X023309Y004005D02*
X024546Y004005D01*
X024559Y004083D02*
X023435Y004083D01*
X023496Y004162D02*
X024564Y004162D01*
X024562Y004240D02*
X023557Y004240D01*
X023618Y004319D02*
X024559Y004319D01*
X024557Y004397D02*
X023666Y004397D01*
X023688Y004476D02*
X024554Y004476D01*
X024551Y004554D02*
X023711Y004554D01*
X023734Y004633D02*
X024549Y004633D01*
X024536Y004711D02*
X023757Y004711D01*
X023756Y004790D02*
X024517Y004790D01*
X024498Y004868D02*
X023749Y004868D01*
X023741Y004947D02*
X024479Y004947D01*
X024461Y005025D02*
X023734Y005025D01*
X023726Y005104D02*
X024442Y005104D01*
X024423Y005182D02*
X023718Y005182D01*
X023687Y005261D02*
X024388Y005261D01*
X024351Y005339D02*
X023657Y005339D01*
X023626Y005418D02*
X024314Y005418D01*
X024277Y005496D02*
X023596Y005496D01*
X023565Y005575D02*
X024240Y005575D01*
X024203Y005653D02*
X023535Y005653D01*
X023484Y005732D02*
X024157Y005732D01*
X024104Y005810D02*
X023424Y005810D01*
X023365Y005889D02*
X024051Y005889D01*
X023988Y005967D02*
X023306Y005967D01*
X023246Y006046D02*
X023922Y006046D01*
X023831Y006124D02*
X023126Y006124D01*
X023006Y006203D02*
X023738Y006203D01*
X023645Y006281D02*
X022835Y006281D01*
X023063Y006517D02*
X022576Y006517D01*
X022415Y006438D02*
X023344Y006438D01*
X023495Y006360D02*
X022310Y006360D01*
X019096Y005460D02*
X017705Y005460D01*
X017705Y006157D01*
X017705Y006243D01*
X017643Y006305D01*
X017234Y006305D01*
X017234Y006371D01*
X016985Y006371D01*
X016985Y006429D01*
X017234Y006429D01*
X017234Y006565D01*
X017467Y006451D01*
X017676Y006309D01*
X017679Y006301D01*
X017722Y006277D01*
X017761Y006248D01*
X017772Y006250D01*
X018478Y005854D01*
X019096Y005460D01*
X019039Y005496D02*
X017705Y005496D01*
X017705Y005575D02*
X018916Y005575D01*
X018793Y005653D02*
X017705Y005653D01*
X017705Y005732D02*
X018670Y005732D01*
X018547Y005810D02*
X017705Y005810D01*
X017705Y005889D02*
X018417Y005889D01*
X018276Y005967D02*
X017705Y005967D01*
X017705Y006046D02*
X018136Y006046D01*
X017996Y006124D02*
X017705Y006124D01*
X017705Y006203D02*
X017856Y006203D01*
X017715Y006281D02*
X017667Y006281D01*
X017602Y006360D02*
X017234Y006360D01*
X017234Y006438D02*
X017487Y006438D01*
X017334Y006517D02*
X017234Y006517D01*
X016914Y006717D02*
X016800Y006717D01*
X016764Y006708D01*
X016732Y006689D01*
X016706Y006663D01*
X016688Y006631D01*
X016682Y006610D01*
X016682Y006619D01*
X016623Y006677D01*
X016265Y006677D01*
X016206Y006619D01*
X016206Y006374D01*
X016100Y006268D01*
X015994Y006374D01*
X015994Y006619D01*
X015935Y006677D01*
X015577Y006677D01*
X015518Y006619D01*
X015518Y006610D01*
X015512Y006631D01*
X015494Y006663D01*
X015468Y006689D01*
X015436Y006708D01*
X015400Y006717D01*
X015273Y006717D01*
X015273Y006429D01*
X015215Y006429D01*
X015215Y006717D01*
X015088Y006717D01*
X015052Y006708D01*
X015020Y006689D01*
X014995Y006664D01*
X014995Y006789D01*
X015181Y006839D01*
X015770Y006909D01*
X016362Y006866D01*
X016914Y006717D01*
X016785Y006752D02*
X014995Y006752D01*
X014995Y006674D02*
X015005Y006674D01*
X015215Y006674D02*
X015273Y006674D01*
X015273Y006595D02*
X015215Y006595D01*
X015215Y006517D02*
X015273Y006517D01*
X015273Y006438D02*
X015215Y006438D01*
X015215Y006360D02*
X015273Y006360D01*
X015273Y006281D02*
X015215Y006281D01*
X015215Y006203D02*
X015273Y006203D01*
X015273Y006124D02*
X015215Y006124D01*
X015007Y006124D02*
X014995Y006124D01*
X014995Y006046D02*
X015660Y006046D01*
X015611Y005967D02*
X014995Y005967D01*
X014995Y005889D02*
X015607Y005889D01*
X015607Y005810D02*
X014995Y005810D01*
X014995Y005732D02*
X015607Y005732D01*
X015607Y005787D02*
X015806Y005787D01*
X015806Y005787D01*
X015607Y005787D01*
X015607Y005653D02*
X014995Y005653D01*
X014995Y005575D02*
X015196Y005575D01*
X015132Y005496D02*
X014995Y005496D01*
X014995Y005418D02*
X015125Y005418D01*
X015121Y005339D02*
X014994Y005339D01*
X015043Y005261D02*
X014916Y005261D01*
X015413Y005418D02*
X015413Y005418D01*
X015413Y005496D02*
X015413Y005496D01*
X015413Y005575D02*
X015413Y005575D01*
X015806Y005787D02*
X015806Y006075D01*
X015806Y005787D01*
X015806Y005787D01*
X015806Y005810D02*
X015806Y005810D01*
X015806Y005889D02*
X015806Y005889D01*
X015806Y005967D02*
X015806Y005967D01*
X015806Y006046D02*
X015806Y006046D01*
X015576Y006124D02*
X015481Y006124D01*
X015484Y006674D02*
X015573Y006674D01*
X015939Y006674D02*
X016261Y006674D01*
X016206Y006595D02*
X015994Y006595D01*
X015994Y006517D02*
X016206Y006517D01*
X016206Y006438D02*
X015994Y006438D01*
X016009Y006360D02*
X016191Y006360D01*
X016113Y006281D02*
X016087Y006281D01*
X016627Y006674D02*
X016716Y006674D01*
X016493Y006831D02*
X015150Y006831D01*
X014034Y005261D02*
X014009Y005261D01*
X013751Y005261D02*
X013673Y005261D01*
X013673Y005182D02*
X013751Y005182D01*
X013751Y005104D02*
X013673Y005104D01*
X013673Y005025D02*
X013751Y005025D01*
X013751Y004947D02*
X013673Y004947D01*
X013673Y004868D02*
X013751Y004868D01*
X013751Y004790D02*
X013673Y004790D01*
X013437Y004790D02*
X013421Y004790D01*
X010982Y006508D02*
X010932Y006458D01*
X010908Y006482D01*
X010876Y006500D01*
X010841Y006510D01*
X010720Y006510D01*
X010720Y006143D01*
X010675Y006143D01*
X010675Y006510D01*
X010554Y006510D01*
X010518Y006500D01*
X010486Y006482D01*
X010474Y006470D01*
X010176Y006470D01*
X010118Y006411D01*
X010118Y006329D01*
X010107Y006340D01*
X010012Y006379D01*
X009908Y006379D01*
X009813Y006340D01*
X009740Y006267D01*
X009730Y006242D01*
X009730Y006650D01*
X010066Y006650D01*
X010066Y006591D01*
X010125Y006533D01*
X010483Y006533D01*
X010542Y006591D01*
X010542Y006903D01*
X010578Y006905D01*
X010578Y006591D01*
X010637Y006533D01*
X010957Y006533D01*
X010982Y006508D01*
X010973Y006517D02*
X009730Y006517D01*
X009730Y006595D02*
X010066Y006595D01*
X010144Y006438D02*
X009730Y006438D01*
X009730Y006360D02*
X009861Y006360D01*
X009755Y006281D02*
X009730Y006281D01*
X010059Y006360D02*
X010118Y006360D01*
X010542Y006595D02*
X010578Y006595D01*
X010578Y006674D02*
X010542Y006674D01*
X010542Y006752D02*
X010578Y006752D01*
X010578Y006831D02*
X010542Y006831D01*
X010675Y006438D02*
X010720Y006438D01*
X010720Y006360D02*
X010675Y006360D01*
X010675Y006281D02*
X010720Y006281D01*
X010720Y006203D02*
X010675Y006203D01*
X009502Y005732D02*
X007730Y005732D01*
X007853Y005810D02*
X008163Y005810D01*
X008163Y005889D02*
X007983Y005889D01*
X008124Y005967D02*
X008163Y005967D01*
X008173Y005653D02*
X007607Y005653D01*
X007484Y005575D02*
X008163Y005575D01*
X008163Y005496D02*
X007361Y005496D01*
X007238Y005418D02*
X008163Y005418D01*
X008163Y005339D02*
X007115Y005339D01*
X006992Y005261D02*
X008187Y005261D01*
X008440Y005182D02*
X006868Y005182D01*
X006745Y005104D02*
X008440Y005104D01*
X008440Y005025D02*
X007669Y005025D01*
X007118Y005025D02*
X006929Y005025D01*
X006943Y004947D02*
X007097Y004947D01*
X007097Y004868D02*
X006943Y004868D01*
X006943Y004790D02*
X007097Y004790D01*
X007097Y004711D02*
X006943Y004711D01*
X006943Y004633D02*
X007097Y004633D01*
X007097Y004554D02*
X006943Y004554D01*
X006943Y004476D02*
X007097Y004476D01*
X007097Y004397D02*
X006943Y004397D01*
X006943Y004319D02*
X007097Y004319D01*
X007097Y004240D02*
X006943Y004240D01*
X006943Y004162D02*
X007097Y004162D01*
X007094Y004083D02*
X006646Y004083D01*
X006646Y004005D02*
X006566Y004005D01*
X006566Y004083D02*
X005192Y004083D01*
X005356Y004162D02*
X006269Y004162D01*
X006269Y004240D02*
X005521Y004240D01*
X005542Y004250D02*
X005542Y004250D01*
X005633Y004319D02*
X006269Y004319D01*
X006269Y004397D02*
X005738Y004397D01*
X005845Y004476D02*
X006269Y004476D01*
X006269Y004554D02*
X005953Y004554D01*
X006062Y004633D02*
X006269Y004633D01*
X006269Y004711D02*
X006171Y004711D01*
X006269Y004005D02*
X005027Y004005D01*
X004748Y003926D02*
X006269Y003926D01*
X006269Y003848D02*
X004434Y003848D01*
X004560Y003667D02*
X004267Y003667D01*
X004231Y003657D01*
X004199Y003639D01*
X004173Y003613D01*
X004155Y003581D01*
X004145Y003545D01*
X004145Y003291D01*
X004560Y003291D01*
X004560Y003211D01*
X004640Y003211D01*
X004640Y002836D01*
X004933Y002836D01*
X004969Y002845D01*
X005001Y002864D01*
X005027Y002890D01*
X005045Y002922D01*
X005055Y002957D01*
X005055Y003211D01*
X004640Y003211D01*
X004640Y003291D01*
X005055Y003291D01*
X005055Y003545D01*
X005045Y003581D01*
X005027Y003613D01*
X005001Y003639D01*
X004969Y003657D01*
X004933Y003667D01*
X004640Y003667D01*
X004640Y003291D01*
X004560Y003291D01*
X004560Y003667D01*
X004560Y003612D02*
X004640Y003612D01*
X004640Y003534D02*
X004560Y003534D01*
X004560Y003455D02*
X004640Y003455D01*
X004640Y003377D02*
X004560Y003377D01*
X004560Y003298D02*
X004640Y003298D01*
X004640Y003220D02*
X006269Y003220D01*
X006269Y003298D02*
X005055Y003298D01*
X005055Y003377D02*
X006269Y003377D01*
X006269Y003455D02*
X005055Y003455D01*
X005055Y003534D02*
X006269Y003534D01*
X006269Y003612D02*
X005027Y003612D01*
X005055Y003141D02*
X006269Y003141D01*
X006300Y003063D02*
X005055Y003063D01*
X005055Y002984D02*
X007094Y002984D01*
X007094Y002906D02*
X005036Y002906D01*
X004640Y002906D02*
X004560Y002906D01*
X004560Y002836D02*
X004267Y002836D01*
X004231Y002845D01*
X004199Y002864D01*
X004173Y002890D01*
X004155Y002922D01*
X004145Y002957D01*
X004145Y003211D01*
X004560Y003211D01*
X004560Y002836D01*
X004560Y002984D02*
X004640Y002984D01*
X004640Y003063D02*
X004560Y003063D01*
X004560Y003141D02*
X004640Y003141D01*
X004560Y003220D02*
X002070Y003220D01*
X002039Y003298D02*
X004145Y003298D01*
X004145Y003377D02*
X002008Y003377D01*
X001977Y003455D02*
X004145Y003455D01*
X004145Y003534D02*
X001946Y003534D01*
X001922Y003612D02*
X004173Y003612D01*
X003781Y003810D02*
X003781Y003810D01*
X003537Y003848D02*
X001881Y003848D01*
X001868Y003926D02*
X003224Y003926D01*
X003293Y003885D02*
X003293Y003885D01*
X003091Y004005D02*
X001854Y004005D01*
X001841Y004083D02*
X002965Y004083D01*
X002972Y004075D02*
X002972Y004075D01*
X002972Y004075D01*
X002904Y004162D02*
X001836Y004162D01*
X001838Y004240D02*
X002843Y004240D01*
X002782Y004319D02*
X001841Y004319D01*
X001843Y004397D02*
X002734Y004397D01*
X002742Y004369D02*
X002742Y004369D01*
X002712Y004476D02*
X001846Y004476D01*
X001849Y004554D02*
X002689Y004554D01*
X002666Y004633D02*
X001851Y004633D01*
X001864Y004711D02*
X002643Y004711D01*
X002644Y004790D02*
X001883Y004790D01*
X001902Y004868D02*
X002651Y004868D01*
X002650Y004854D02*
X002650Y004854D01*
X002659Y004947D02*
X001921Y004947D01*
X001939Y005025D02*
X002666Y005025D01*
X002661Y004973D02*
X002661Y004973D01*
X002674Y005104D02*
X001958Y005104D01*
X001977Y005182D02*
X002682Y005182D01*
X002713Y005261D02*
X002012Y005261D01*
X002049Y005339D02*
X002743Y005339D01*
X002774Y005418D02*
X002086Y005418D01*
X002123Y005496D02*
X002804Y005496D01*
X002835Y005575D02*
X002160Y005575D01*
X002197Y005653D02*
X002865Y005653D01*
X002874Y005675D02*
X002874Y005675D01*
X002916Y005732D02*
X002243Y005732D01*
X002296Y005810D02*
X002976Y005810D01*
X003035Y005889D02*
X002349Y005889D01*
X002412Y005967D02*
X003094Y005967D01*
X003153Y006045D02*
X003153Y006045D01*
X003153Y006045D01*
X003154Y006046D02*
X002478Y006046D01*
X002569Y006124D02*
X003274Y006124D01*
X003394Y006203D02*
X002662Y006203D01*
X002755Y006281D02*
X003565Y006281D01*
X003483Y006261D02*
X003483Y006261D01*
X003337Y006517D02*
X003824Y006517D01*
X003900Y006495D02*
X003900Y006495D01*
X003985Y006438D02*
X003056Y006438D01*
X002905Y006360D02*
X004090Y006360D01*
X003866Y006354D02*
X003866Y006354D01*
X001895Y003769D02*
X006269Y003769D01*
X006269Y003691D02*
X001908Y003691D01*
X002101Y003141D02*
X004145Y003141D01*
X004145Y003063D02*
X002135Y003063D01*
X002186Y002984D02*
X004145Y002984D01*
X004164Y002906D02*
X002238Y002906D01*
X006566Y003063D02*
X006646Y003063D01*
X006646Y003141D02*
X006566Y003141D01*
X006566Y003220D02*
X006646Y003220D01*
X006646Y003298D02*
X006566Y003298D01*
X006566Y003377D02*
X006646Y003377D01*
X006646Y003455D02*
X006566Y003455D01*
X006566Y003534D02*
X006646Y003534D01*
X006646Y003612D02*
X006566Y003612D01*
X006566Y003691D02*
X006646Y003691D01*
X006646Y003769D02*
X006566Y003769D01*
X006566Y003848D02*
X006646Y003848D01*
X006646Y003926D02*
X006566Y003926D01*
X006943Y003926D02*
X007094Y003926D01*
X007094Y003848D02*
X006943Y003848D01*
X006943Y003769D02*
X007094Y003769D01*
X007094Y003691D02*
X006943Y003691D01*
X006943Y003612D02*
X007094Y003612D01*
X007094Y003534D02*
X006943Y003534D01*
X006943Y003455D02*
X007094Y003455D01*
X007094Y003377D02*
X006943Y003377D01*
X006943Y003298D02*
X007094Y003298D01*
X007094Y003220D02*
X006943Y003220D01*
X006943Y003141D02*
X007094Y003141D01*
X007094Y003063D02*
X006912Y003063D01*
X006943Y004005D02*
X007094Y004005D01*
X008760Y004397D02*
X008924Y004397D01*
X008819Y004476D02*
X008760Y004476D01*
X008760Y004554D02*
X008806Y004554D01*
X008806Y004633D02*
X008760Y004633D01*
X008760Y004711D02*
X008806Y004711D01*
X008806Y004790D02*
X008760Y004790D01*
X008760Y004868D02*
X009260Y004868D01*
X008806Y004947D02*
X008760Y004947D01*
X008760Y005025D02*
X008806Y005025D01*
X008806Y005104D02*
X008760Y005104D01*
X008760Y005182D02*
X008806Y005182D01*
X017817Y002670D02*
X018424Y002670D01*
X018526Y002592D02*
X017817Y002592D01*
X018598Y001571D02*
X018629Y001571D01*
X019384Y001571D02*
X019412Y001571D01*
X019402Y002419D02*
X019402Y002419D01*
X019417Y002435D02*
X019386Y002435D01*
X020170Y002435D02*
X020206Y002435D01*
D32*
X020600Y003600D03*
X019170Y004500D03*
X018870Y003900D03*
X017000Y003900D03*
X017000Y004250D03*
X016500Y005290D03*
X015930Y005300D03*
X017000Y005850D03*
X017360Y005690D03*
X016100Y006730D03*
X012350Y002670D03*
X009850Y003160D03*
X009450Y003150D03*
X015500Y002300D03*
X016160Y002320D03*
D33*
X016800Y003600D02*
X017300Y003600D01*
X017500Y003400D01*
X017500Y003256D01*
X017556Y003312D01*
X017556Y004344D01*
X017500Y004856D02*
X017500Y005100D01*
X017700Y005300D01*
X019100Y005300D01*
X019600Y004800D01*
X019600Y004500D01*
X019751Y004500D01*
X019751Y004449D01*
X020600Y003600D01*
X020212Y003212D01*
X019912Y003212D01*
X019912Y003053D01*
X018888Y003053D02*
X018888Y003882D01*
X018888Y004388D01*
X018900Y004400D01*
X018870Y003900D02*
X018888Y003882D01*
X017000Y004400D02*
X016813Y004213D01*
X016594Y004213D01*
X016397Y004213D02*
X016397Y004003D01*
X016800Y003600D01*
X017000Y004400D02*
X017000Y004594D01*
X016987Y004606D01*
X016500Y005290D02*
X015960Y005394D01*
X015413Y005394D01*
X016397Y005787D02*
X016594Y005787D01*
X016813Y005787D01*
X016937Y005787D01*
X017000Y005850D01*
X016813Y005787D02*
X017000Y005600D01*
X017000Y005406D01*
X016987Y005394D01*
X012846Y004050D02*
X012669Y004227D01*
X012846Y004050D02*
X012690Y003894D01*
X012150Y003894D01*
X012120Y003864D01*
X012120Y003620D01*
X011840Y003340D01*
X010820Y003340D01*
X010647Y003513D01*
X010647Y004169D01*
X010844Y004169D02*
X011031Y004169D01*
X011300Y003900D01*
X011594Y003900D01*
X011600Y003894D01*
X012150Y004406D02*
X012150Y004930D01*
X011920Y005160D01*
X011500Y005160D01*
X011240Y005420D01*
X011300Y005480D01*
X011300Y005904D01*
X011280Y005924D01*
X010960Y005780D02*
X010960Y006260D01*
X011080Y006380D01*
X011224Y006380D01*
X011280Y006436D01*
X010906Y006810D01*
X010816Y006810D01*
X010304Y006810D02*
X010254Y006760D01*
X010343Y006120D02*
X009960Y006120D01*
X010343Y006120D02*
X010380Y006083D01*
X010380Y005760D01*
X010450Y005690D01*
X010450Y005331D01*
X010253Y005331D02*
X010253Y005607D01*
X010100Y005760D01*
X009700Y005760D01*
X009484Y005976D01*
X009330Y005976D01*
X009330Y006010D01*
X009330Y005976D02*
X008890Y005976D01*
X008640Y006280D02*
X008440Y006080D01*
X008440Y005976D01*
X008640Y006280D02*
X009100Y006280D01*
X009280Y006460D01*
X009330Y005464D02*
X009923Y005464D01*
X010056Y005331D01*
X010647Y005331D02*
X010647Y005567D01*
X010720Y005640D01*
X010820Y005640D01*
X010960Y005780D01*
X011240Y005420D02*
X011151Y005331D01*
X010844Y005331D01*
X010450Y004169D02*
X010450Y002841D01*
X010591Y002700D01*
X009900Y003720D02*
X009329Y003720D01*
X009300Y003749D01*
X008751Y003749D01*
X008600Y003900D01*
X008600Y005304D01*
X008440Y005464D01*
X010056Y004169D02*
X010056Y003876D01*
X009900Y003720D01*
D34*
X010260Y004120D02*
X010253Y004169D01*
X010250Y004166D01*
X010253Y004169D02*
X010260Y004176D01*
X010260Y004500D01*
X010260Y004560D01*
X010260Y004500D02*
X010258Y004524D01*
X010253Y004547D01*
X010243Y004569D01*
X010231Y004589D01*
X010215Y004607D01*
X010197Y004623D01*
X010177Y004635D01*
X010155Y004645D01*
X010132Y004650D01*
X010108Y004652D01*
X009859Y004652D01*
X010260Y004560D02*
X010262Y004587D01*
X010268Y004614D01*
X010277Y004639D01*
X010290Y004663D01*
X010306Y004684D01*
X010326Y004704D01*
X010347Y004720D01*
X010371Y004733D01*
X010396Y004742D01*
X010423Y004748D01*
X010450Y004750D01*
X010640Y004900D02*
X010640Y005300D01*
X010697Y006120D02*
X010697Y006500D01*
X009860Y006500D01*
X009580Y006720D02*
X009580Y006260D01*
X009330Y006010D01*
X009580Y006720D02*
X009660Y006800D01*
X010294Y006800D01*
X010304Y006810D01*
X012560Y004980D02*
X012669Y005089D01*
X012560Y004980D02*
X012560Y004336D01*
X012669Y004227D01*
X012940Y004620D02*
X013200Y004880D01*
X013200Y005100D01*
X013554Y004050D02*
X013024Y003520D01*
X012540Y003260D02*
X013840Y003260D01*
X014340Y002760D01*
X014380Y002760D01*
X014220Y002460D02*
X013640Y003040D01*
X012720Y003040D01*
X012350Y002670D01*
X012020Y002740D02*
X011660Y002740D01*
X010940Y002020D01*
X009160Y002020D01*
X010140Y002420D02*
X010360Y002200D01*
X010860Y002200D01*
X011650Y002990D01*
X011850Y002990D01*
X012020Y002740D02*
X012540Y003260D01*
X014220Y002460D02*
X014716Y002460D01*
X015000Y002744D01*
X015500Y002744D02*
X015500Y002300D01*
X016160Y002320D02*
X016160Y002584D01*
X016000Y002744D01*
X016500Y002744D02*
X016500Y002326D01*
X016606Y002220D01*
X017004Y002220D01*
X017500Y002236D02*
X017500Y002744D01*
X017000Y003244D01*
X017000Y003256D01*
X016500Y003256D02*
X016500Y003500D01*
X016400Y003600D01*
X015940Y003600D01*
X015806Y003734D01*
X015806Y004213D01*
X015800Y004206D01*
X016003Y004213D02*
X016200Y004213D01*
X016200Y004000D01*
X016100Y003900D01*
X016100Y003880D01*
X015656Y003600D02*
X016000Y003256D01*
X015656Y003600D02*
X015580Y003600D01*
X015413Y003767D01*
X015413Y004606D01*
X015409Y004800D02*
X015413Y004803D01*
X016003Y005787D02*
X016003Y006153D01*
X015756Y006400D01*
X016200Y006156D02*
X016444Y006400D01*
X016200Y006156D02*
X016200Y005787D01*
X016987Y005197D02*
X016987Y005000D01*
X016987Y004803D01*
X017447Y004803D01*
X017500Y004856D01*
X017716Y004856D01*
X017880Y005020D01*
X017556Y004344D02*
X017500Y004344D01*
X016800Y004200D02*
X016787Y004213D01*
X016594Y004213D01*
X016500Y002744D02*
X017000Y002744D01*
X017500Y002236D02*
X017516Y002220D01*
X017516Y001616D01*
X017440Y001540D01*
X017736Y002000D02*
X018307Y002000D01*
X017736Y002000D02*
X017516Y002220D01*
X018888Y002652D02*
X018888Y003053D01*
X018888Y002652D02*
X018889Y002647D01*
X018892Y002644D01*
X018895Y002641D01*
X018900Y002640D01*
X019400Y003053D02*
X019400Y003680D01*
X019420Y003700D01*
X019656Y003356D02*
X019940Y003640D01*
X019656Y003356D02*
X019656Y003053D01*
X010600Y002709D02*
X010591Y002700D01*
X010140Y002420D02*
X010140Y003100D01*
X010260Y003220D01*
X010260Y004120D01*
D35*
X010460Y004740D02*
X011560Y004740D01*
X010460Y004740D02*
X010450Y004750D01*
X010349Y004851D01*
X009300Y004851D01*
X009300Y003749D02*
X009300Y003309D01*
X009459Y003150D01*
X009459Y002750D01*
X009409Y002700D01*
X009459Y003150D02*
X009850Y003160D01*
X018649Y004500D02*
X019170Y004500D01*
D36*
X017000Y006444D02*
X017000Y006600D01*
X016870Y006730D01*
X016100Y006730D01*
X016956Y006400D02*
X017000Y006444D01*
X013200Y005300D02*
X013200Y005100D01*
X013024Y003520D02*
X012530Y003520D01*
X012110Y003100D01*
X009330Y005464D02*
X008890Y005464D01*
X008440Y005464D01*
D37*
X007760Y005380D03*
X007300Y005260D03*
X007940Y004580D03*
X007940Y004120D03*
X010180Y004720D03*
X010680Y004720D03*
X009960Y006120D03*
X009860Y006500D03*
X009280Y006460D03*
X012940Y004620D03*
X014000Y004860D03*
X015940Y004720D03*
X016480Y004700D03*
X016100Y003880D03*
X014340Y002760D03*
X017440Y001540D03*
X018180Y002840D03*
X019420Y003700D03*
X019940Y003640D03*
X021000Y003960D03*
X023120Y003220D03*
X023160Y002240D03*
X021420Y001660D03*
X017880Y005020D03*
X018640Y005600D03*
X023850Y005600D03*
X009160Y002020D03*
X007700Y001400D03*
X005740Y003080D03*
X003880Y001820D03*
X003560Y003380D03*
X002600Y005600D03*
D38*
X010620Y004100D02*
X010620Y003260D01*
X012030Y003260D01*
X012460Y003690D01*
X012820Y003690D01*
X012820Y004400D01*
X012799Y004409D01*
X012729Y004479D01*
X012691Y004570D01*
X012691Y004670D01*
X012729Y004761D01*
X012799Y004831D01*
X012820Y004840D01*
X012820Y005665D01*
X012435Y005665D01*
X012435Y005344D01*
X012356Y005265D01*
X012320Y005265D01*
X012320Y004634D01*
X012364Y004634D01*
X012417Y004581D01*
X012417Y004231D01*
X012364Y004178D01*
X012320Y004178D01*
X012320Y004100D01*
X011836Y004100D01*
X011867Y004069D01*
X011867Y003719D01*
X011814Y003666D01*
X011386Y003666D01*
X011333Y003719D01*
X011333Y003750D01*
X011238Y003750D01*
X011150Y003838D01*
X010992Y003996D01*
X010992Y003965D01*
X010939Y003912D01*
X010748Y003912D01*
X010695Y003965D01*
X010695Y004100D01*
X010620Y004100D01*
X010620Y004084D02*
X010695Y004084D01*
X010695Y004025D02*
X010620Y004025D01*
X010620Y003967D02*
X010695Y003967D01*
X010620Y003908D02*
X011080Y003908D01*
X011138Y003850D02*
X010620Y003850D01*
X010620Y003791D02*
X011197Y003791D01*
X011333Y003733D02*
X010620Y003733D01*
X010620Y003674D02*
X011378Y003674D01*
X011822Y003674D02*
X012444Y003674D01*
X012385Y003616D02*
X010620Y003616D01*
X010620Y003557D02*
X012327Y003557D01*
X012268Y003499D02*
X010620Y003499D01*
X010620Y003440D02*
X012210Y003440D01*
X012151Y003382D02*
X010620Y003382D01*
X010620Y003323D02*
X012093Y003323D01*
X012034Y003265D02*
X010620Y003265D01*
X010992Y003967D02*
X011021Y003967D01*
X011853Y004084D02*
X012820Y004084D01*
X012820Y004142D02*
X012320Y004142D01*
X012387Y004201D02*
X012820Y004201D01*
X012820Y004259D02*
X012417Y004259D01*
X012417Y004318D02*
X012820Y004318D01*
X012820Y004376D02*
X012417Y004376D01*
X012417Y004435D02*
X012773Y004435D01*
X012723Y004493D02*
X012417Y004493D01*
X012417Y004552D02*
X012699Y004552D01*
X012691Y004610D02*
X012388Y004610D01*
X012320Y004669D02*
X012691Y004669D01*
X012715Y004727D02*
X012320Y004727D01*
X012320Y004786D02*
X012753Y004786D01*
X012820Y004844D02*
X012320Y004844D01*
X012320Y004903D02*
X012820Y004903D01*
X012820Y004961D02*
X012320Y004961D01*
X012320Y005020D02*
X012820Y005020D01*
X012820Y005078D02*
X012320Y005078D01*
X012320Y005137D02*
X012820Y005137D01*
X012820Y005195D02*
X012320Y005195D01*
X012320Y005254D02*
X012820Y005254D01*
X012820Y005312D02*
X012403Y005312D01*
X012435Y005371D02*
X012820Y005371D01*
X012820Y005429D02*
X012435Y005429D01*
X012435Y005488D02*
X012820Y005488D01*
X012820Y005546D02*
X012435Y005546D01*
X012435Y005605D02*
X012820Y005605D01*
X012820Y005663D02*
X012435Y005663D01*
X012820Y004025D02*
X011867Y004025D01*
X011867Y003967D02*
X012820Y003967D01*
X012820Y003908D02*
X011867Y003908D01*
X011867Y003850D02*
X012820Y003850D01*
X012820Y003791D02*
X011867Y003791D01*
X011867Y003733D02*
X012820Y003733D01*
D39*
X004600Y002149D02*
X004600Y001700D01*
D40*
X004600Y001700D03*
X006900Y001700D03*
D41*
X007394Y002194D01*
X007394Y004057D01*
M02*
