G75*
%MOIN*%
%OFA0B0*%
%FSLAX24Y24*%
%IPPOS*%
%LPD*%
%AMOC8*
5,1,8,0,0,1.08239X$1,22.5*
%
%ADD10R,0.0198X0.0375*%
%ADD11R,0.0375X0.0198*%
%ADD12R,0.1024X0.1024*%
%ADD13R,0.0197X0.0415*%
%ADD14R,0.1025X0.0730*%
%ADD15R,0.0356X0.0190*%
%ADD16R,0.0592X0.0592*%
%ADD17R,0.0434X0.0356*%
%ADD18R,0.0356X0.0434*%
%ADD19R,0.0395X0.0552*%
%ADD20R,0.0474X0.1891*%
%ADD21R,0.0710X0.1419*%
%ADD22R,0.0710X0.0631*%
%ADD23R,0.0631X0.0710*%
%ADD24R,0.0789X0.0710*%
%ADD25R,0.0237X0.0611*%
%ADD26R,0.0671X0.0828*%
%ADD27C,0.0316*%
%ADD28C,0.0517*%
%ADD29R,0.0330X0.0580*%
%ADD30R,0.0395X0.0946*%
%ADD31C,0.0010*%
D10*
X015806Y004213D03*
X016003Y004213D03*
X016200Y004213D03*
X016397Y004213D03*
X016594Y004213D03*
X016594Y005787D03*
X016397Y005787D03*
X016200Y005787D03*
X016003Y005787D03*
X015806Y005787D03*
D11*
X015413Y005394D03*
X015413Y005197D03*
X015413Y005000D03*
X015413Y004803D03*
X015413Y004606D03*
X016987Y004606D03*
X016987Y004803D03*
X016987Y005000D03*
X016987Y005197D03*
X016987Y005394D03*
D12*
X016200Y005000D03*
D13*
X010844Y005331D03*
X010647Y005331D03*
X010450Y005331D03*
X010253Y005331D03*
X010056Y005331D03*
X010056Y004169D03*
X010253Y004169D03*
X010450Y004169D03*
X010647Y004169D03*
X010844Y004169D03*
D14*
X010450Y004750D03*
D15*
X011041Y004652D03*
X011041Y004848D03*
X009859Y004848D03*
X009859Y004652D03*
D16*
X009409Y002700D03*
X010591Y002700D03*
D17*
X011600Y003894D03*
X012150Y003894D03*
X012150Y004406D03*
X011600Y004406D03*
X008980Y005464D03*
X008440Y005464D03*
X008440Y005976D03*
X008980Y005976D03*
X011280Y005924D03*
X011280Y006436D03*
X014550Y004206D03*
X014550Y003694D03*
X014650Y002956D03*
X015150Y002956D03*
X015650Y002956D03*
X016150Y002956D03*
X016650Y002956D03*
X017550Y002956D03*
X017550Y002444D03*
X016650Y002444D03*
X016150Y002444D03*
X015650Y002444D03*
X015150Y002444D03*
X014650Y002444D03*
X017500Y004344D03*
X017500Y004856D03*
D18*
X016956Y006400D03*
X016444Y006400D03*
X015756Y006400D03*
X015244Y006400D03*
X010816Y006810D03*
X010304Y006810D03*
X015954Y001920D03*
X016466Y001920D03*
D19*
X013554Y004050D03*
X012846Y004050D03*
D20*
X007394Y004057D03*
X006606Y004057D03*
D21*
X005661Y002009D03*
X008339Y002009D03*
D22*
X004750Y002599D03*
X004750Y003701D03*
D23*
X018649Y004500D03*
X019751Y004500D03*
D24*
X009300Y004851D03*
X009300Y003749D03*
D25*
X018888Y002903D03*
X019144Y002903D03*
X019400Y002903D03*
X019656Y002903D03*
X019912Y002903D03*
D26*
X019006Y001854D03*
X019794Y001850D03*
D27*
X020168Y002677D03*
X018632Y002677D03*
D28*
X018307Y002068D02*
X018307Y001632D01*
X020493Y001632D02*
X020493Y002068D01*
D29*
X017327Y001700D03*
X016973Y001700D03*
X010697Y006120D03*
X010343Y006120D03*
D30*
X012669Y005300D03*
X013200Y005300D03*
X013712Y005300D03*
D31*
X020740Y003160D02*
X021180Y003250D01*
X021240Y003160D01*
X021180Y003070D01*
X020740Y003160D01*
X020754Y003157D02*
X021238Y003157D01*
X021236Y003166D02*
X020767Y003166D01*
X020796Y003149D02*
X021232Y003149D01*
X021227Y003140D02*
X020837Y003140D01*
X020879Y003132D02*
X021221Y003132D01*
X021215Y003123D02*
X020921Y003123D01*
X020962Y003115D02*
X021210Y003115D01*
X021204Y003106D02*
X021004Y003106D01*
X021045Y003098D02*
X021198Y003098D01*
X021193Y003089D02*
X021087Y003089D01*
X021128Y003081D02*
X021187Y003081D01*
X021181Y003072D02*
X021170Y003072D01*
X021231Y003174D02*
X020809Y003174D01*
X020850Y003183D02*
X021225Y003183D01*
X021219Y003191D02*
X020892Y003191D01*
X020933Y003200D02*
X021214Y003200D01*
X021208Y003208D02*
X020975Y003208D01*
X021017Y003217D02*
X021202Y003217D01*
X021197Y003225D02*
X021058Y003225D01*
X021100Y003234D02*
X021191Y003234D01*
X021185Y003242D02*
X021141Y003242D01*
X021276Y003327D02*
X021936Y003327D01*
X021941Y003336D02*
X021271Y003336D01*
X021265Y003344D02*
X021947Y003344D01*
X021952Y003353D02*
X021260Y003353D01*
X021255Y003361D02*
X021957Y003361D01*
X021963Y003370D02*
X021249Y003370D01*
X021244Y003378D02*
X021968Y003378D01*
X021973Y003387D02*
X021611Y003387D01*
X021600Y003380D02*
X022210Y003760D01*
X021830Y003160D01*
X022210Y002540D01*
X021600Y002940D01*
X020980Y002530D01*
X021380Y003160D01*
X021000Y003770D01*
X021600Y003380D01*
X021590Y003387D02*
X021239Y003387D01*
X021234Y003395D02*
X021577Y003395D01*
X021564Y003404D02*
X021228Y003404D01*
X021223Y003412D02*
X021551Y003412D01*
X021538Y003421D02*
X021218Y003421D01*
X021212Y003429D02*
X021525Y003429D01*
X021511Y003438D02*
X021207Y003438D01*
X021202Y003446D02*
X021498Y003446D01*
X021485Y003455D02*
X021196Y003455D01*
X021191Y003463D02*
X021472Y003463D01*
X021459Y003472D02*
X021186Y003472D01*
X021181Y003480D02*
X021446Y003480D01*
X021433Y003489D02*
X021175Y003489D01*
X021170Y003497D02*
X021420Y003497D01*
X021407Y003506D02*
X021165Y003506D01*
X021159Y003514D02*
X021394Y003514D01*
X021381Y003523D02*
X021154Y003523D01*
X021149Y003531D02*
X021368Y003531D01*
X021355Y003540D02*
X021144Y003540D01*
X021138Y003548D02*
X021341Y003548D01*
X021328Y003557D02*
X021133Y003557D01*
X021128Y003565D02*
X021315Y003565D01*
X021302Y003574D02*
X021122Y003574D01*
X021117Y003582D02*
X021289Y003582D01*
X021276Y003591D02*
X021112Y003591D01*
X021106Y003599D02*
X021263Y003599D01*
X021250Y003608D02*
X021101Y003608D01*
X021096Y003616D02*
X021237Y003616D01*
X021224Y003625D02*
X021091Y003625D01*
X021085Y003633D02*
X021211Y003633D01*
X021198Y003642D02*
X021080Y003642D01*
X021075Y003650D02*
X021185Y003650D01*
X021171Y003659D02*
X021069Y003659D01*
X021064Y003667D02*
X021158Y003667D01*
X021145Y003676D02*
X021059Y003676D01*
X021054Y003684D02*
X021132Y003684D01*
X021119Y003693D02*
X021048Y003693D01*
X021043Y003701D02*
X021106Y003701D01*
X021093Y003710D02*
X021038Y003710D01*
X021032Y003718D02*
X021080Y003718D01*
X021067Y003727D02*
X021027Y003727D01*
X021022Y003735D02*
X021054Y003735D01*
X021041Y003744D02*
X021016Y003744D01*
X021011Y003752D02*
X021028Y003752D01*
X021014Y003761D02*
X021006Y003761D01*
X021001Y003769D02*
X021001Y003769D01*
X021517Y003659D02*
X021683Y003659D01*
X021681Y003667D02*
X021519Y003667D01*
X021521Y003676D02*
X021679Y003676D01*
X021677Y003684D02*
X021523Y003684D01*
X021524Y003693D02*
X021676Y003693D01*
X021674Y003701D02*
X021526Y003701D01*
X021528Y003710D02*
X021672Y003710D01*
X021670Y003718D02*
X021530Y003718D01*
X021532Y003727D02*
X021668Y003727D01*
X021666Y003735D02*
X021534Y003735D01*
X021536Y003744D02*
X021664Y003744D01*
X021663Y003752D02*
X021537Y003752D01*
X021539Y003761D02*
X021661Y003761D01*
X021659Y003769D02*
X021541Y003769D01*
X021543Y003778D02*
X021657Y003778D01*
X021655Y003786D02*
X021545Y003786D01*
X021547Y003795D02*
X021653Y003795D01*
X021652Y003803D02*
X021548Y003803D01*
X021550Y003812D02*
X021650Y003812D01*
X021648Y003820D02*
X021552Y003820D01*
X021554Y003829D02*
X021646Y003829D01*
X021644Y003837D02*
X021556Y003837D01*
X021558Y003846D02*
X021642Y003846D01*
X021640Y003854D02*
X021560Y003854D01*
X021561Y003863D02*
X021639Y003863D01*
X021637Y003871D02*
X021563Y003871D01*
X021565Y003880D02*
X021635Y003880D01*
X021633Y003888D02*
X021567Y003888D01*
X021569Y003897D02*
X021631Y003897D01*
X021629Y003905D02*
X021571Y003905D01*
X021573Y003914D02*
X021627Y003914D01*
X021626Y003922D02*
X021574Y003922D01*
X021576Y003931D02*
X021624Y003931D01*
X021622Y003939D02*
X021578Y003939D01*
X021580Y003948D02*
X021620Y003948D01*
X021618Y003956D02*
X021582Y003956D01*
X021584Y003965D02*
X021616Y003965D01*
X021615Y003973D02*
X021585Y003973D01*
X021587Y003982D02*
X021613Y003982D01*
X021611Y003990D02*
X021589Y003990D01*
X021591Y003999D02*
X021609Y003999D01*
X021607Y004007D02*
X021593Y004007D01*
X021595Y004016D02*
X021605Y004016D01*
X021603Y004024D02*
X021597Y004024D01*
X021598Y004033D02*
X021602Y004033D01*
X021600Y004040D02*
X021500Y003580D01*
X021600Y003520D01*
X021700Y003580D01*
X021600Y004040D01*
X022129Y003710D02*
X022178Y003710D01*
X022183Y003718D02*
X022143Y003718D01*
X022156Y003727D02*
X022189Y003727D01*
X022194Y003735D02*
X022170Y003735D01*
X022184Y003744D02*
X022200Y003744D01*
X022197Y003752D02*
X022205Y003752D01*
X022173Y003701D02*
X022115Y003701D01*
X022102Y003693D02*
X022167Y003693D01*
X022162Y003684D02*
X022088Y003684D01*
X022074Y003676D02*
X022157Y003676D01*
X022151Y003667D02*
X022061Y003667D01*
X022047Y003659D02*
X022146Y003659D01*
X022140Y003650D02*
X022034Y003650D01*
X022020Y003642D02*
X022135Y003642D01*
X022130Y003633D02*
X022006Y003633D01*
X021993Y003625D02*
X022124Y003625D01*
X022119Y003616D02*
X021979Y003616D01*
X021965Y003608D02*
X022113Y003608D01*
X022108Y003599D02*
X021952Y003599D01*
X021938Y003591D02*
X022103Y003591D01*
X022097Y003582D02*
X021924Y003582D01*
X021911Y003574D02*
X022092Y003574D01*
X022087Y003565D02*
X021897Y003565D01*
X021883Y003557D02*
X022081Y003557D01*
X022076Y003548D02*
X021870Y003548D01*
X021856Y003540D02*
X022070Y003540D01*
X022065Y003531D02*
X021843Y003531D01*
X021829Y003523D02*
X022060Y003523D01*
X022054Y003514D02*
X021815Y003514D01*
X021802Y003506D02*
X022049Y003506D01*
X022043Y003497D02*
X021788Y003497D01*
X021774Y003489D02*
X022038Y003489D01*
X022033Y003480D02*
X021761Y003480D01*
X021747Y003472D02*
X022027Y003472D01*
X022022Y003463D02*
X021733Y003463D01*
X021720Y003455D02*
X022017Y003455D01*
X022011Y003446D02*
X021706Y003446D01*
X021692Y003438D02*
X022006Y003438D01*
X022000Y003429D02*
X021679Y003429D01*
X021665Y003421D02*
X021995Y003421D01*
X021990Y003412D02*
X021651Y003412D01*
X021638Y003404D02*
X021984Y003404D01*
X021979Y003395D02*
X021624Y003395D01*
X021604Y003523D02*
X021596Y003523D01*
X021582Y003531D02*
X021618Y003531D01*
X021633Y003540D02*
X021567Y003540D01*
X021553Y003548D02*
X021647Y003548D01*
X021661Y003557D02*
X021539Y003557D01*
X021525Y003565D02*
X021675Y003565D01*
X021689Y003574D02*
X021511Y003574D01*
X021500Y003582D02*
X021700Y003582D01*
X021698Y003591D02*
X021502Y003591D01*
X021504Y003599D02*
X021696Y003599D01*
X021694Y003608D02*
X021506Y003608D01*
X021508Y003616D02*
X021692Y003616D01*
X021690Y003625D02*
X021510Y003625D01*
X021512Y003633D02*
X021688Y003633D01*
X021687Y003642D02*
X021513Y003642D01*
X021515Y003650D02*
X021685Y003650D01*
X021930Y003319D02*
X021281Y003319D01*
X021287Y003310D02*
X021925Y003310D01*
X021920Y003302D02*
X021292Y003302D01*
X021297Y003293D02*
X021914Y003293D01*
X021909Y003285D02*
X021302Y003285D01*
X021308Y003276D02*
X021904Y003276D01*
X021898Y003268D02*
X021313Y003268D01*
X021318Y003259D02*
X021893Y003259D01*
X021887Y003251D02*
X021324Y003251D01*
X021329Y003242D02*
X021882Y003242D01*
X021877Y003234D02*
X021334Y003234D01*
X021339Y003225D02*
X021871Y003225D01*
X021866Y003217D02*
X021345Y003217D01*
X021350Y003208D02*
X021860Y003208D01*
X021855Y003200D02*
X021355Y003200D01*
X021361Y003191D02*
X021850Y003191D01*
X021844Y003183D02*
X021366Y003183D01*
X021371Y003174D02*
X021839Y003174D01*
X021834Y003166D02*
X021377Y003166D01*
X021378Y003157D02*
X021832Y003157D01*
X021837Y003149D02*
X021373Y003149D01*
X021367Y003140D02*
X021842Y003140D01*
X021847Y003132D02*
X021362Y003132D01*
X021357Y003123D02*
X021853Y003123D01*
X021858Y003115D02*
X021351Y003115D01*
X021346Y003106D02*
X021863Y003106D01*
X021868Y003098D02*
X021340Y003098D01*
X021335Y003089D02*
X021873Y003089D01*
X021879Y003081D02*
X021330Y003081D01*
X021324Y003072D02*
X021884Y003072D01*
X021889Y003064D02*
X021319Y003064D01*
X021313Y003055D02*
X021894Y003055D01*
X021900Y003047D02*
X021308Y003047D01*
X021303Y003038D02*
X021905Y003038D01*
X021910Y003030D02*
X021297Y003030D01*
X021292Y003021D02*
X021915Y003021D01*
X021920Y003013D02*
X021286Y003013D01*
X021281Y003004D02*
X021926Y003004D01*
X021931Y002996D02*
X021276Y002996D01*
X021270Y002987D02*
X021936Y002987D01*
X021941Y002979D02*
X021265Y002979D01*
X021259Y002970D02*
X021946Y002970D01*
X021952Y002962D02*
X021254Y002962D01*
X021249Y002953D02*
X021957Y002953D01*
X021962Y002945D02*
X021243Y002945D01*
X021238Y002936D02*
X021594Y002936D01*
X021606Y002936D02*
X021967Y002936D01*
X021972Y002928D02*
X021619Y002928D01*
X021632Y002919D02*
X021978Y002919D01*
X021983Y002911D02*
X021645Y002911D01*
X021658Y002902D02*
X021988Y002902D01*
X021993Y002894D02*
X021671Y002894D01*
X021684Y002885D02*
X021999Y002885D01*
X022004Y002877D02*
X021697Y002877D01*
X021710Y002868D02*
X022009Y002868D01*
X022014Y002860D02*
X021723Y002860D01*
X021736Y002851D02*
X022019Y002851D01*
X022025Y002843D02*
X021749Y002843D01*
X021762Y002834D02*
X022030Y002834D01*
X022035Y002826D02*
X021775Y002826D01*
X021788Y002817D02*
X022040Y002817D01*
X022045Y002809D02*
X021800Y002809D01*
X021813Y002800D02*
X022051Y002800D01*
X022056Y002792D02*
X021826Y002792D01*
X021839Y002783D02*
X022061Y002783D01*
X022066Y002775D02*
X021852Y002775D01*
X021865Y002766D02*
X022071Y002766D01*
X022077Y002758D02*
X021878Y002758D01*
X021891Y002749D02*
X022082Y002749D01*
X022087Y002741D02*
X021904Y002741D01*
X021917Y002732D02*
X022092Y002732D01*
X022098Y002724D02*
X021930Y002724D01*
X021943Y002715D02*
X022103Y002715D01*
X022108Y002707D02*
X021956Y002707D01*
X021969Y002698D02*
X022113Y002698D01*
X022118Y002690D02*
X021982Y002690D01*
X021995Y002681D02*
X022124Y002681D01*
X022129Y002673D02*
X022008Y002673D01*
X022021Y002664D02*
X022134Y002664D01*
X022139Y002656D02*
X022034Y002656D01*
X022047Y002647D02*
X022144Y002647D01*
X022150Y002639D02*
X022060Y002639D01*
X022073Y002630D02*
X022155Y002630D01*
X022160Y002622D02*
X022086Y002622D01*
X022099Y002613D02*
X022165Y002613D01*
X022170Y002605D02*
X022112Y002605D01*
X022125Y002596D02*
X022176Y002596D01*
X022181Y002588D02*
X022137Y002588D01*
X022150Y002579D02*
X022186Y002579D01*
X022191Y002571D02*
X022163Y002571D01*
X022176Y002562D02*
X022196Y002562D01*
X022189Y002554D02*
X022202Y002554D01*
X022202Y002545D02*
X022207Y002545D01*
X021687Y002664D02*
X021513Y002664D01*
X021515Y002656D02*
X021685Y002656D01*
X021683Y002647D02*
X021517Y002647D01*
X021519Y002639D02*
X021681Y002639D01*
X021680Y002630D02*
X021520Y002630D01*
X021522Y002622D02*
X021678Y002622D01*
X021676Y002613D02*
X021524Y002613D01*
X021526Y002605D02*
X021674Y002605D01*
X021672Y002596D02*
X021528Y002596D01*
X021530Y002588D02*
X021670Y002588D01*
X021668Y002579D02*
X021532Y002579D01*
X021534Y002571D02*
X021666Y002571D01*
X021664Y002562D02*
X021536Y002562D01*
X021538Y002554D02*
X021662Y002554D01*
X021660Y002545D02*
X021540Y002545D01*
X021542Y002537D02*
X021658Y002537D01*
X021656Y002528D02*
X021544Y002528D01*
X021546Y002520D02*
X021654Y002520D01*
X021653Y002511D02*
X021547Y002511D01*
X021549Y002503D02*
X021651Y002503D01*
X021649Y002494D02*
X021551Y002494D01*
X021553Y002486D02*
X021647Y002486D01*
X021645Y002477D02*
X021555Y002477D01*
X021557Y002469D02*
X021643Y002469D01*
X021641Y002460D02*
X021559Y002460D01*
X021561Y002452D02*
X021639Y002452D01*
X021637Y002443D02*
X021563Y002443D01*
X021565Y002435D02*
X021635Y002435D01*
X021633Y002426D02*
X021567Y002426D01*
X021569Y002418D02*
X021631Y002418D01*
X021629Y002409D02*
X021571Y002409D01*
X021573Y002401D02*
X021627Y002401D01*
X021625Y002392D02*
X021575Y002392D01*
X021576Y002384D02*
X021624Y002384D01*
X021622Y002375D02*
X021578Y002375D01*
X021580Y002367D02*
X021620Y002367D01*
X021618Y002358D02*
X021582Y002358D01*
X021584Y002350D02*
X021616Y002350D01*
X021614Y002341D02*
X021586Y002341D01*
X021588Y002333D02*
X021612Y002333D01*
X021610Y002324D02*
X021590Y002324D01*
X021592Y002316D02*
X021608Y002316D01*
X021606Y002307D02*
X021594Y002307D01*
X021596Y002299D02*
X021604Y002299D01*
X021602Y002290D02*
X021598Y002290D01*
X021600Y002282D02*
X021600Y002282D01*
X021600Y002280D02*
X021500Y002720D01*
X021600Y002790D01*
X021700Y002720D01*
X021600Y002280D01*
X021003Y002545D02*
X020990Y002545D01*
X020990Y002537D02*
X020984Y002537D01*
X020995Y002554D02*
X021016Y002554D01*
X021028Y002562D02*
X021000Y002562D01*
X021006Y002571D02*
X021041Y002571D01*
X021054Y002579D02*
X021011Y002579D01*
X021017Y002588D02*
X021067Y002588D01*
X021080Y002596D02*
X021022Y002596D01*
X021027Y002605D02*
X021093Y002605D01*
X021106Y002613D02*
X021033Y002613D01*
X021038Y002622D02*
X021118Y002622D01*
X021131Y002630D02*
X021044Y002630D01*
X021049Y002639D02*
X021144Y002639D01*
X021157Y002647D02*
X021054Y002647D01*
X021060Y002656D02*
X021170Y002656D01*
X021183Y002664D02*
X021065Y002664D01*
X021071Y002673D02*
X021196Y002673D01*
X021208Y002681D02*
X021076Y002681D01*
X021081Y002690D02*
X021221Y002690D01*
X021234Y002698D02*
X021087Y002698D01*
X021092Y002707D02*
X021247Y002707D01*
X021260Y002715D02*
X021097Y002715D01*
X021103Y002724D02*
X021273Y002724D01*
X021286Y002732D02*
X021108Y002732D01*
X021114Y002741D02*
X021298Y002741D01*
X021311Y002749D02*
X021119Y002749D01*
X021124Y002758D02*
X021324Y002758D01*
X021337Y002766D02*
X021130Y002766D01*
X021135Y002775D02*
X021350Y002775D01*
X021363Y002783D02*
X021141Y002783D01*
X021146Y002792D02*
X021376Y002792D01*
X021388Y002800D02*
X021151Y002800D01*
X021157Y002809D02*
X021401Y002809D01*
X021414Y002817D02*
X021162Y002817D01*
X021168Y002826D02*
X021427Y002826D01*
X021440Y002834D02*
X021173Y002834D01*
X021178Y002843D02*
X021453Y002843D01*
X021465Y002851D02*
X021184Y002851D01*
X021189Y002860D02*
X021478Y002860D01*
X021491Y002868D02*
X021195Y002868D01*
X021200Y002877D02*
X021504Y002877D01*
X021517Y002885D02*
X021205Y002885D01*
X021211Y002894D02*
X021530Y002894D01*
X021543Y002902D02*
X021216Y002902D01*
X021222Y002911D02*
X021555Y002911D01*
X021568Y002919D02*
X021227Y002919D01*
X021232Y002928D02*
X021581Y002928D01*
X021590Y002783D02*
X021610Y002783D01*
X021622Y002775D02*
X021578Y002775D01*
X021566Y002766D02*
X021634Y002766D01*
X021646Y002758D02*
X021554Y002758D01*
X021541Y002749D02*
X021659Y002749D01*
X021671Y002741D02*
X021529Y002741D01*
X021517Y002732D02*
X021683Y002732D01*
X021695Y002724D02*
X021505Y002724D01*
X021501Y002715D02*
X021699Y002715D01*
X021697Y002707D02*
X021503Y002707D01*
X021505Y002698D02*
X021695Y002698D01*
X021693Y002690D02*
X021507Y002690D01*
X021509Y002681D02*
X021691Y002681D01*
X021689Y002673D02*
X021511Y002673D01*
X022020Y003070D02*
X021960Y003160D01*
X022020Y003250D01*
X022480Y003160D01*
X022020Y003070D01*
X022019Y003072D02*
X022031Y003072D01*
X022013Y003081D02*
X022074Y003081D01*
X022117Y003089D02*
X022007Y003089D01*
X022002Y003098D02*
X022161Y003098D01*
X022204Y003106D02*
X021996Y003106D01*
X021990Y003115D02*
X022248Y003115D01*
X022291Y003123D02*
X021985Y003123D01*
X021979Y003132D02*
X022335Y003132D01*
X022378Y003140D02*
X021973Y003140D01*
X021968Y003149D02*
X022422Y003149D01*
X022408Y003174D02*
X021969Y003174D01*
X021964Y003166D02*
X022452Y003166D01*
X022465Y003157D02*
X021962Y003157D01*
X021975Y003183D02*
X022365Y003183D01*
X022321Y003191D02*
X021981Y003191D01*
X021986Y003200D02*
X022278Y003200D01*
X022234Y003208D02*
X021992Y003208D01*
X021998Y003217D02*
X022191Y003217D01*
X022147Y003225D02*
X022003Y003225D01*
X022009Y003234D02*
X022104Y003234D01*
X022061Y003242D02*
X022015Y003242D01*
M02*
