%
M48
M72
T01C0.0118
T02C0.0120
T03C0.0197
T04C0.0236
%
T01
X3880Y1820
X3560Y3380
X5740Y3080
X7700Y1400
X9160Y2020
X7940Y4120
X7940Y4580
X7300Y5260
X7760Y5380
X9280Y6460
X9860Y6500
X9960Y6120
X10180Y4720
X10680Y4720
X12940Y4620
X14000Y4860
X15940Y4720
X16480Y4700
X16100Y3880
X14340Y2760
X17440Y1540
X18180Y2840
X19420Y3700
X19940Y3640
X21000Y3960
X23120Y3220
X23160Y2240
X21420Y1660
X17880Y5020
X18640Y5600
X23850Y5600
X2600Y5600
T02
X9450Y3150
X9850Y3160
X12350Y2670
X15500Y2300
X16160Y2320
X17000Y3900
X17000Y4250
X16500Y5290
X15930Y5300
X17000Y5850
X17360Y5690
X16100Y6730
X19170Y4500
X18870Y3900
X20600Y3600
T03
X20493Y2000
X18307Y2000
T04
X18632Y2827
X20168Y2827
X6900Y1700
X4600Y1700
M30
