G75*
%MOIN*%
%OFA0B0*%
%FSLAX24Y24*%
%IPPOS*%
%LPD*%
%AMOC8*
5,1,8,0,0,1.08239X$1,22.5*
%
%ADD10R,0.0315X0.0315*%
%ADD11C,0.0437*%
%ADD12R,0.0315X0.0866*%
%ADD13R,0.0591X0.0787*%
%ADD14C,0.0080*%
%ADD15C,0.0320*%
%ADD16C,0.0318*%
%ADD17C,0.0300*%
%ADD18C,0.0436*%
%ADD19C,0.0320*%
%ADD20C,0.0160*%
%ADD21C,0.0100*%
D10*
X004950Y003055D03*
X004950Y003645D03*
X012905Y003140D03*
X013495Y003140D03*
X021450Y003055D03*
X021450Y003645D03*
D11*
X020493Y002068D02*
X020493Y001632D01*
X018307Y001632D02*
X018307Y002068D01*
D12*
X013456Y005300D03*
X012944Y005300D03*
D13*
X012039Y004867D03*
X014361Y004867D03*
D14*
X004561Y001738D02*
X004245Y002101D01*
X004126Y002311D01*
X004014Y002577D01*
X003871Y003136D01*
X003843Y003712D01*
X003930Y004282D01*
X004065Y004649D01*
X004138Y004474D01*
X004374Y004238D01*
X004374Y004238D01*
X004683Y004110D01*
X004846Y004110D01*
X005027Y004100D01*
X005389Y004172D01*
X005722Y004332D01*
X006005Y004568D01*
X006005Y004568D01*
X006081Y004673D01*
X006083Y004673D01*
X006115Y004720D01*
X006119Y004726D01*
X006346Y005033D01*
X006874Y005600D01*
X007483Y006078D01*
X008158Y006458D01*
X008884Y006730D01*
X009642Y006888D01*
X010416Y006928D01*
X011186Y006848D01*
X011460Y006788D01*
X011460Y005342D01*
X011542Y005260D01*
X011603Y005260D01*
X011603Y004907D01*
X011999Y004907D01*
X011999Y004827D01*
X012079Y004827D01*
X012079Y004907D01*
X012474Y004907D01*
X012474Y005279D01*
X012464Y005315D01*
X012446Y005347D01*
X012440Y005352D01*
X012440Y005660D01*
X012687Y005660D01*
X012687Y004826D01*
X012733Y004779D01*
X012720Y004767D01*
X012681Y004672D01*
X012681Y004568D01*
X012720Y004473D01*
X012793Y004400D01*
X012888Y004361D01*
X012982Y004361D01*
X013033Y004307D01*
X013264Y004170D01*
X008199Y004170D01*
X008199Y004172D01*
X008190Y004193D01*
X008190Y004507D01*
X008199Y004528D01*
X008199Y004632D01*
X008160Y004727D01*
X008087Y004800D01*
X007992Y004839D01*
X007888Y004839D01*
X007793Y004800D01*
X007720Y004727D01*
X007681Y004632D01*
X007681Y004528D01*
X007690Y004507D01*
X007690Y004193D01*
X007681Y004172D01*
X007681Y004068D01*
X007690Y004047D01*
X007690Y003999D01*
X007811Y003791D01*
X008019Y003670D01*
X010181Y003670D01*
X009846Y003495D01*
X009750Y003408D01*
X009521Y003402D01*
X009502Y003410D01*
X009398Y003410D01*
X009303Y003370D01*
X009230Y003297D01*
X009190Y003202D01*
X009190Y003098D01*
X009230Y003003D01*
X009303Y002930D01*
X009398Y002890D01*
X009502Y002890D01*
X009531Y002902D01*
X009779Y002908D01*
X009798Y002900D01*
X009902Y002900D01*
X009997Y002940D01*
X010070Y003013D01*
X010073Y003019D01*
X010141Y003074D01*
X010419Y003219D01*
X010724Y003287D01*
X010871Y003290D01*
X010886Y003290D01*
X010931Y003288D01*
X010936Y003290D01*
X012598Y003290D01*
X012469Y003276D01*
X012182Y003170D01*
X012107Y003119D01*
X012056Y003084D01*
X011360Y002632D01*
X010697Y002241D01*
X010645Y002210D01*
X010642Y002208D01*
X010464Y002113D01*
X010083Y001971D01*
X009683Y001899D01*
X009482Y001890D01*
X009478Y001890D01*
X009418Y001890D01*
X009416Y001889D01*
X009391Y001888D01*
X009391Y001900D01*
X009419Y001968D01*
X009419Y002072D01*
X009380Y002167D01*
X009307Y002240D01*
X009212Y002279D01*
X009108Y002279D01*
X009013Y002240D01*
X008940Y002167D01*
X008901Y002072D01*
X008901Y001968D01*
X008939Y001877D01*
X008697Y001871D01*
X008697Y001872D01*
X008636Y001870D01*
X008634Y001870D01*
X008529Y001873D01*
X008322Y001919D01*
X008134Y002016D01*
X008088Y002052D01*
X008088Y002056D01*
X008044Y002087D01*
X008004Y002123D01*
X007994Y002123D01*
X007835Y002236D01*
X007382Y002435D01*
X006898Y002538D01*
X006662Y002540D01*
X006455Y002576D01*
X006044Y002713D01*
X005669Y002928D01*
X005499Y003063D01*
X005476Y003088D01*
X005450Y003152D01*
X005449Y003187D01*
X005450Y003193D01*
X005459Y003294D01*
X005398Y003500D01*
X005265Y003669D01*
X005265Y003669D01*
X005207Y003703D01*
X005207Y003844D01*
X005149Y003903D01*
X004751Y003903D01*
X004693Y003844D01*
X004693Y003446D01*
X004751Y003388D01*
X005099Y003388D01*
X005122Y003358D01*
X005136Y003312D01*
X004751Y003312D01*
X004693Y003254D01*
X004693Y002856D01*
X004751Y002797D01*
X004957Y002797D01*
X005008Y002730D01*
X005460Y002355D01*
X005984Y002092D01*
X005984Y002092D01*
X006555Y001953D01*
X006702Y001952D01*
X006688Y001938D01*
X006644Y001933D01*
X006206Y001933D01*
X005989Y001957D01*
X005937Y001965D01*
X005170Y002080D01*
X005130Y002120D01*
X005013Y002168D01*
X004887Y002168D01*
X004770Y002120D01*
X004680Y002030D01*
X004632Y001913D01*
X004632Y001787D01*
X004680Y001670D01*
X004713Y001637D01*
X004561Y001738D01*
X004577Y001728D02*
X004656Y001728D01*
X004632Y001807D02*
X004502Y001807D01*
X004434Y001885D02*
X004632Y001885D01*
X004653Y001964D02*
X004365Y001964D01*
X004297Y002042D02*
X004692Y002042D01*
X004772Y002121D02*
X004234Y002121D01*
X004190Y002199D02*
X005771Y002199D01*
X005927Y002121D02*
X005128Y002121D01*
X005423Y002042D02*
X006189Y002042D01*
X005946Y001964D02*
X006512Y001964D01*
X006555Y001953D02*
X006555Y001953D01*
X007129Y001921D02*
X007307Y001883D01*
X007580Y001748D01*
X007702Y001656D01*
X007812Y001561D01*
X008071Y001428D01*
X008071Y001428D01*
X008355Y001360D01*
X008497Y001360D01*
X008800Y001345D01*
X009415Y001371D01*
X009659Y001403D01*
X009720Y001411D01*
X009781Y001419D01*
X009782Y001420D01*
X010016Y001452D01*
X010586Y001626D01*
X011122Y001886D01*
X011364Y002056D01*
X011605Y002205D01*
X012119Y002440D01*
X012190Y002462D01*
X012203Y002450D01*
X012298Y002410D01*
X012402Y002410D01*
X012496Y002449D01*
X011831Y002024D01*
X010888Y001596D01*
X009894Y001305D01*
X008868Y001158D01*
X008352Y001140D01*
X005716Y001287D01*
X005658Y001290D01*
X005418Y001319D01*
X004962Y001471D01*
X004845Y001549D01*
X004887Y001532D01*
X005013Y001532D01*
X005094Y001565D01*
X005963Y001435D01*
X006167Y001405D01*
X006683Y001405D01*
X006756Y001415D01*
X006837Y001382D01*
X006963Y001382D01*
X007080Y001430D01*
X007170Y001520D01*
X007218Y001637D01*
X007218Y001763D01*
X007170Y001880D01*
X007129Y001921D01*
X007165Y001885D02*
X007298Y001885D01*
X007200Y001807D02*
X007462Y001807D01*
X007607Y001728D02*
X007218Y001728D01*
X007218Y001650D02*
X007710Y001650D01*
X007800Y001571D02*
X007191Y001571D01*
X007142Y001493D02*
X007945Y001493D01*
X007812Y001561D02*
X007812Y001561D01*
X008128Y001414D02*
X007041Y001414D01*
X006759Y001414D02*
X006746Y001414D01*
X006683Y001405D02*
X006683Y001405D01*
X006248Y001257D02*
X009557Y001257D01*
X009659Y001403D02*
X009659Y001403D01*
X009740Y001414D02*
X010266Y001414D01*
X010148Y001493D02*
X010535Y001493D01*
X010406Y001571D02*
X010803Y001571D01*
X010796Y001728D02*
X011179Y001728D01*
X011119Y001885D02*
X011525Y001885D01*
X011697Y001964D02*
X011232Y001964D01*
X011344Y002042D02*
X011859Y002042D01*
X011982Y002121D02*
X011469Y002121D01*
X011596Y002199D02*
X012105Y002199D01*
X012227Y002278D02*
X011764Y002278D01*
X011935Y002356D02*
X012350Y002356D01*
X012461Y002435D02*
X012473Y002435D01*
X012239Y002435D02*
X012107Y002435D01*
X011539Y002749D02*
X005982Y002749D01*
X005845Y002827D02*
X011660Y002827D01*
X011781Y002906D02*
X009915Y002906D01*
X009785Y002906D02*
X009673Y002906D01*
X009361Y002906D02*
X005708Y002906D01*
X005598Y002984D02*
X009248Y002984D01*
X009205Y003063D02*
X005499Y003063D01*
X005499Y003063D01*
X005455Y003141D02*
X009190Y003141D01*
X009197Y003220D02*
X005452Y003220D01*
X005459Y003294D02*
X005459Y003294D01*
X005458Y003298D02*
X009230Y003298D01*
X009317Y003377D02*
X005434Y003377D01*
X005411Y003455D02*
X009802Y003455D01*
X009846Y003495D02*
X009846Y003495D01*
X009919Y003534D02*
X005372Y003534D01*
X005398Y003500D02*
X005398Y003500D01*
X005310Y003612D02*
X010069Y003612D01*
X010270Y003141D02*
X012139Y003141D01*
X012107Y003119D02*
X012107Y003119D01*
X012023Y003063D02*
X010127Y003063D01*
X010042Y002984D02*
X011902Y002984D01*
X012316Y003220D02*
X010422Y003220D01*
X011291Y002592D02*
X006408Y002592D01*
X006172Y002670D02*
X011418Y002670D01*
X011158Y002513D02*
X007017Y002513D01*
X006898Y002538D02*
X006898Y002538D01*
X007382Y002435D02*
X007382Y002435D01*
X007383Y002435D02*
X011025Y002435D01*
X010892Y002356D02*
X007562Y002356D01*
X007740Y002278D02*
X009105Y002278D01*
X009215Y002278D02*
X010759Y002278D01*
X010697Y002241D02*
X010697Y002241D01*
X010625Y002199D02*
X009347Y002199D01*
X009399Y002121D02*
X010478Y002121D01*
X010273Y002042D02*
X009419Y002042D01*
X009417Y001964D02*
X010041Y001964D01*
X010635Y001650D02*
X011006Y001650D01*
X010958Y001807D02*
X011352Y001807D01*
X009997Y001336D02*
X005369Y001336D01*
X005134Y001414D02*
X006104Y001414D01*
X005963Y001435D02*
X005963Y001435D01*
X005581Y001493D02*
X004930Y001493D01*
X004701Y001650D02*
X004695Y001650D01*
X004145Y002278D02*
X005614Y002278D01*
X005460Y002355D02*
X005460Y002355D01*
X005459Y002356D02*
X004107Y002356D01*
X004126Y002311D02*
X004126Y002311D01*
X004074Y002435D02*
X005364Y002435D01*
X005270Y002513D02*
X004041Y002513D01*
X004010Y002592D02*
X005175Y002592D01*
X005081Y002670D02*
X003990Y002670D01*
X003970Y002749D02*
X004994Y002749D01*
X005008Y002730D02*
X005008Y002730D01*
X004721Y002827D02*
X003950Y002827D01*
X003930Y002906D02*
X004693Y002906D01*
X004693Y002984D02*
X003910Y002984D01*
X003890Y003063D02*
X004693Y003063D01*
X004693Y003141D02*
X003871Y003141D01*
X003867Y003220D02*
X004693Y003220D01*
X004737Y003298D02*
X003863Y003298D01*
X003859Y003377D02*
X005107Y003377D01*
X005265Y003669D02*
X005265Y003669D01*
X005228Y003691D02*
X007984Y003691D01*
X008019Y003670D02*
X008019Y003670D01*
X007848Y003769D02*
X005207Y003769D01*
X005204Y003848D02*
X007778Y003848D01*
X007811Y003791D02*
X007811Y003791D01*
X007732Y003926D02*
X003876Y003926D01*
X003888Y004005D02*
X007690Y004005D01*
X007681Y004083D02*
X003900Y004083D01*
X003912Y004162D02*
X004559Y004162D01*
X004372Y004240D02*
X003924Y004240D01*
X003944Y004319D02*
X004294Y004319D01*
X004215Y004397D02*
X003973Y004397D01*
X004002Y004476D02*
X004137Y004476D01*
X004138Y004474D02*
X004138Y004474D01*
X004105Y004554D02*
X004031Y004554D01*
X004059Y004633D02*
X004072Y004633D01*
X005389Y004172D02*
X005389Y004172D01*
X005334Y004162D02*
X007681Y004162D01*
X007690Y004240D02*
X005530Y004240D01*
X005694Y004319D02*
X007690Y004319D01*
X007690Y004397D02*
X005800Y004397D01*
X005722Y004332D02*
X005722Y004332D01*
X005894Y004476D02*
X007690Y004476D01*
X007681Y004554D02*
X005988Y004554D01*
X006005Y004568D02*
X006005Y004568D01*
X006052Y004633D02*
X007681Y004633D01*
X007714Y004711D02*
X006109Y004711D01*
X006166Y004790D02*
X007783Y004790D01*
X008097Y004790D02*
X011603Y004790D01*
X011603Y004827D02*
X011603Y004455D01*
X011613Y004419D01*
X011631Y004387D01*
X011657Y004361D01*
X011689Y004343D01*
X011725Y004333D01*
X011999Y004333D01*
X011999Y004827D01*
X011603Y004827D01*
X011603Y004711D02*
X008166Y004711D01*
X008199Y004633D02*
X011603Y004633D01*
X011603Y004554D02*
X008199Y004554D01*
X008190Y004476D02*
X011603Y004476D01*
X011626Y004397D02*
X008190Y004397D01*
X008190Y004319D02*
X013022Y004319D01*
X013033Y004307D02*
X013033Y004307D01*
X013146Y004240D02*
X008190Y004240D01*
X006340Y005025D02*
X011603Y005025D01*
X011603Y004947D02*
X006282Y004947D01*
X006224Y004868D02*
X011999Y004868D01*
X011999Y004790D02*
X012079Y004790D01*
X012079Y004827D02*
X012079Y004333D01*
X012352Y004333D01*
X012388Y004343D01*
X012420Y004361D01*
X012446Y004387D01*
X012464Y004419D01*
X012474Y004455D01*
X012474Y004827D01*
X012079Y004827D01*
X012079Y004868D02*
X012687Y004868D01*
X012687Y004947D02*
X012474Y004947D01*
X012474Y005025D02*
X012687Y005025D01*
X012687Y005104D02*
X012474Y005104D01*
X012474Y005182D02*
X012687Y005182D01*
X012687Y005261D02*
X012474Y005261D01*
X012450Y005339D02*
X012687Y005339D01*
X012687Y005418D02*
X012440Y005418D01*
X012440Y005496D02*
X012687Y005496D01*
X012687Y005575D02*
X012440Y005575D01*
X012440Y005653D02*
X012687Y005653D01*
X013713Y005653D02*
X013960Y005653D01*
X013960Y005660D02*
X013960Y005352D01*
X013954Y005347D01*
X013936Y005315D01*
X013926Y005279D01*
X013926Y004907D01*
X014321Y004907D01*
X014321Y004827D01*
X013926Y004827D01*
X013926Y004510D01*
X013795Y004530D01*
X013550Y004640D01*
X013446Y004726D01*
X013435Y004737D01*
X013405Y004767D01*
X013655Y004767D01*
X013713Y004826D01*
X013713Y005660D01*
X013960Y005660D01*
X013960Y005575D02*
X013713Y005575D01*
X013713Y005496D02*
X013960Y005496D01*
X013960Y005418D02*
X013713Y005418D01*
X013713Y005339D02*
X013950Y005339D01*
X013926Y005261D02*
X013713Y005261D01*
X013713Y005182D02*
X013926Y005182D01*
X013926Y005104D02*
X013713Y005104D01*
X013713Y005025D02*
X013926Y005025D01*
X013926Y004947D02*
X013713Y004947D01*
X013713Y004868D02*
X014321Y004868D01*
X014401Y004868D02*
X014890Y004868D01*
X014890Y004790D02*
X014797Y004790D01*
X014797Y004827D02*
X014401Y004827D01*
X014401Y004907D01*
X014797Y004907D01*
X014797Y005260D01*
X014858Y005260D01*
X014890Y005292D01*
X014890Y004640D01*
X014886Y004606D01*
X014852Y004548D01*
X014797Y004516D01*
X014797Y004827D01*
X014797Y004711D02*
X014890Y004711D01*
X014889Y004633D02*
X014797Y004633D01*
X014797Y004554D02*
X014855Y004554D01*
X013926Y004554D02*
X013741Y004554D01*
X013566Y004633D02*
X013926Y004633D01*
X013926Y004711D02*
X013464Y004711D01*
X013677Y004790D02*
X013926Y004790D01*
X014797Y004947D02*
X014890Y004947D01*
X014890Y005025D02*
X014797Y005025D01*
X014797Y005104D02*
X014890Y005104D01*
X014890Y005182D02*
X014797Y005182D01*
X014859Y005261D02*
X014890Y005261D01*
X014940Y005743D02*
X014940Y006788D01*
X015214Y006848D01*
X015984Y006928D01*
X016758Y006888D01*
X017516Y006730D01*
X018242Y006458D01*
X018917Y006078D01*
X019526Y005600D01*
X020054Y005033D01*
X020281Y004726D01*
X020285Y004720D01*
X020317Y004673D01*
X020319Y004673D01*
X020395Y004568D01*
X020678Y004332D01*
X021011Y004172D01*
X021373Y004100D01*
X021373Y004100D01*
X021554Y004110D01*
X021717Y004110D01*
X022026Y004238D01*
X022262Y004474D01*
X022262Y004474D01*
X022335Y004649D01*
X022470Y004282D01*
X022557Y003712D01*
X022529Y003136D01*
X022386Y002577D01*
X022274Y002311D01*
X022155Y002101D01*
X021839Y001738D01*
X021438Y001471D01*
X020982Y001319D01*
X020742Y001290D01*
X020717Y001288D01*
X020561Y001280D01*
X020597Y001287D01*
X020662Y001314D01*
X020721Y001353D01*
X020771Y001403D01*
X020810Y001462D01*
X020837Y001527D01*
X020851Y001596D01*
X020851Y001841D01*
X020502Y001841D01*
X020502Y001859D01*
X020851Y001859D01*
X020851Y002104D01*
X020837Y002173D01*
X020810Y002238D01*
X020771Y002297D01*
X020721Y002347D01*
X020662Y002386D01*
X020597Y002413D01*
X020528Y002427D01*
X020502Y002427D01*
X020502Y001859D01*
X020483Y001859D01*
X020483Y001841D01*
X020134Y001841D01*
X020134Y001596D01*
X020148Y001527D01*
X020175Y001462D01*
X020214Y001403D01*
X020264Y001353D01*
X020323Y001314D01*
X020388Y001287D01*
X020454Y001274D01*
X018048Y001140D01*
X017532Y001158D01*
X017532Y001158D01*
X016506Y001305D01*
X015512Y001596D01*
X014569Y002024D01*
X014231Y002240D01*
X014302Y002240D01*
X014397Y002280D01*
X014470Y002353D01*
X014510Y002448D01*
X014510Y002552D01*
X014470Y002647D01*
X014397Y002720D01*
X014302Y002760D01*
X014198Y002760D01*
X014126Y002730D01*
X013926Y002829D01*
X013847Y002889D01*
X013938Y002851D01*
X014042Y002851D01*
X014137Y002890D01*
X014193Y002946D01*
X014335Y002937D01*
X015014Y002787D01*
X015339Y002663D01*
X015396Y002638D01*
X015396Y002638D01*
X015529Y002579D01*
X015938Y002520D01*
X016348Y002574D01*
X016348Y002574D01*
X016729Y002736D01*
X017047Y002991D01*
X017102Y002991D01*
X017197Y003030D01*
X017270Y003103D01*
X017309Y003198D01*
X017309Y003302D01*
X017295Y003335D01*
X017369Y003437D01*
X017692Y004029D01*
X017940Y004656D01*
X017972Y004778D01*
X018027Y004800D01*
X018100Y004873D01*
X018139Y004968D01*
X018139Y005072D01*
X018100Y005167D01*
X018027Y005240D01*
X017932Y005279D01*
X017828Y005279D01*
X017733Y005240D01*
X017660Y005167D01*
X017659Y005164D01*
X017300Y005068D01*
X016958Y004870D01*
X016823Y004735D01*
X016818Y004730D01*
X016818Y004730D01*
X016809Y004722D01*
X016774Y004686D01*
X016685Y004597D01*
X016500Y004269D01*
X016500Y004269D01*
X016469Y004146D01*
X016454Y004086D01*
X016416Y003976D01*
X016280Y003786D01*
X016146Y003700D01*
X016052Y003739D01*
X015948Y003739D01*
X015853Y003700D01*
X015780Y003627D01*
X015741Y003532D01*
X015741Y003428D01*
X015780Y003333D01*
X015806Y003308D01*
X015731Y003337D01*
X015670Y003384D01*
X015633Y003417D01*
X015529Y003514D01*
X015529Y003514D01*
X015240Y003670D01*
X015309Y003670D01*
X015512Y003754D01*
X015666Y003908D01*
X015666Y003908D01*
X015750Y004111D01*
X015750Y005420D01*
X015754Y005457D01*
X015782Y005526D01*
X015834Y005578D01*
X015903Y005606D01*
X015940Y005610D01*
X016825Y005610D01*
X016860Y005550D01*
X017050Y005440D01*
X017084Y005440D01*
X017108Y005430D01*
X017412Y005430D01*
X017507Y005470D01*
X017580Y005543D01*
X017620Y005638D01*
X017620Y005742D01*
X017580Y005837D01*
X017507Y005910D01*
X017441Y005938D01*
X017550Y005913D01*
X017899Y005745D01*
X018056Y005633D01*
X018056Y005633D01*
X018293Y005444D01*
X018812Y005132D01*
X018812Y005132D01*
X019077Y005018D01*
X019091Y005012D01*
X019197Y004956D01*
X019375Y004795D01*
X019493Y004586D01*
X019537Y004350D01*
X019502Y004112D01*
X019425Y003959D01*
X019368Y003959D01*
X019273Y003920D01*
X019200Y003847D01*
X019161Y003752D01*
X019161Y003648D01*
X019200Y003553D01*
X019273Y003480D01*
X019368Y003441D01*
X019472Y003441D01*
X019567Y003480D01*
X019640Y003553D01*
X019679Y003648D01*
X019679Y003752D01*
X019674Y003765D01*
X019802Y004018D01*
X019846Y004324D01*
X019870Y004232D01*
X019851Y003884D01*
X019793Y003860D01*
X019720Y003787D01*
X019681Y003692D01*
X019681Y003588D01*
X019720Y003493D01*
X019793Y003420D01*
X019888Y003381D01*
X019992Y003381D01*
X020087Y003420D01*
X020160Y003493D01*
X020197Y003582D01*
X020230Y003503D01*
X020303Y003430D01*
X020398Y003390D01*
X020502Y003390D01*
X020597Y003430D01*
X020663Y003495D01*
X021193Y003495D01*
X021193Y003446D01*
X021251Y003388D01*
X021649Y003388D01*
X021707Y003446D01*
X021707Y003844D01*
X021649Y003903D01*
X021251Y003903D01*
X021193Y003844D01*
X021193Y003795D01*
X020671Y003795D01*
X020670Y003797D01*
X020597Y003870D01*
X020502Y003910D01*
X020398Y003910D01*
X020303Y003870D01*
X020230Y003797D01*
X020192Y003708D01*
X020160Y003787D01*
X020157Y003790D01*
X020162Y003803D01*
X020162Y003803D01*
X020186Y004264D01*
X020186Y004264D01*
X020070Y004711D01*
X020291Y004711D01*
X020234Y004790D02*
X020020Y004790D01*
X019971Y004868D02*
X020176Y004868D01*
X020118Y004947D02*
X019921Y004947D01*
X019872Y005025D02*
X020060Y005025D01*
X019989Y005104D02*
X019822Y005104D01*
X019823Y005102D02*
X019471Y005400D01*
X019471Y005400D01*
X019315Y005465D01*
X019267Y005485D01*
X019258Y005488D01*
X019258Y005488D01*
X019028Y005595D01*
X018596Y005858D01*
X018397Y006014D01*
X018397Y006014D01*
X018217Y006167D01*
X018217Y006167D01*
X017795Y006380D01*
X017336Y006490D01*
X015791Y006490D01*
X015468Y006385D01*
X015194Y006186D01*
X014995Y005912D01*
X014995Y005912D01*
X014940Y005743D01*
X014940Y005810D02*
X014962Y005810D01*
X014940Y005889D02*
X014987Y005889D01*
X014940Y005967D02*
X015035Y005967D01*
X015092Y006046D02*
X014940Y006046D01*
X014940Y006124D02*
X015149Y006124D01*
X015194Y006186D02*
X015194Y006186D01*
X015194Y006186D01*
X015217Y006203D02*
X014940Y006203D01*
X014940Y006281D02*
X015325Y006281D01*
X015433Y006360D02*
X014940Y006360D01*
X014940Y006438D02*
X015631Y006438D01*
X015468Y006385D02*
X015468Y006385D01*
X014940Y006517D02*
X018086Y006517D01*
X018278Y006438D02*
X017554Y006438D01*
X017795Y006380D02*
X017795Y006380D01*
X017837Y006360D02*
X018417Y006360D01*
X018557Y006281D02*
X017992Y006281D01*
X018147Y006203D02*
X018696Y006203D01*
X018836Y006124D02*
X018268Y006124D01*
X018360Y006046D02*
X018959Y006046D01*
X019058Y005967D02*
X018458Y005967D01*
X018558Y005889D02*
X019158Y005889D01*
X019258Y005810D02*
X018675Y005810D01*
X018804Y005732D02*
X019358Y005732D01*
X019458Y005653D02*
X018932Y005653D01*
X019071Y005575D02*
X019549Y005575D01*
X019622Y005496D02*
X019241Y005496D01*
X019315Y005465D02*
X019315Y005465D01*
X019428Y005418D02*
X019696Y005418D01*
X019769Y005339D02*
X019543Y005339D01*
X019636Y005261D02*
X019842Y005261D01*
X019915Y005182D02*
X019729Y005182D01*
X019823Y005102D02*
X019823Y005102D01*
X020070Y004711D01*
X020070Y004711D01*
X020090Y004633D02*
X020348Y004633D01*
X020395Y004568D02*
X020395Y004568D01*
X020412Y004554D02*
X020110Y004554D01*
X020131Y004476D02*
X020506Y004476D01*
X020600Y004397D02*
X020151Y004397D01*
X020172Y004319D02*
X020706Y004319D01*
X020678Y004332D02*
X020678Y004332D01*
X020870Y004240D02*
X020185Y004240D01*
X020180Y004162D02*
X021066Y004162D01*
X021011Y004172D02*
X021011Y004172D01*
X021841Y004162D02*
X022488Y004162D01*
X022476Y004240D02*
X022028Y004240D01*
X022026Y004238D02*
X022026Y004238D01*
X022106Y004319D02*
X022456Y004319D01*
X022427Y004397D02*
X022185Y004397D01*
X022263Y004476D02*
X022398Y004476D01*
X022369Y004554D02*
X022295Y004554D01*
X022328Y004633D02*
X022341Y004633D01*
X022500Y004083D02*
X020176Y004083D01*
X020172Y004005D02*
X022512Y004005D01*
X022524Y003926D02*
X020168Y003926D01*
X020164Y003848D02*
X020280Y003848D01*
X020218Y003769D02*
X020167Y003769D01*
X020176Y003534D02*
X020217Y003534D01*
X020277Y003455D02*
X020121Y003455D01*
X019796Y003377D02*
X022541Y003377D01*
X022544Y003455D02*
X021707Y003455D01*
X021707Y003534D02*
X022548Y003534D01*
X022552Y003612D02*
X021707Y003612D01*
X021707Y003691D02*
X022556Y003691D01*
X022548Y003769D02*
X021707Y003769D01*
X021704Y003848D02*
X022536Y003848D01*
X022537Y003298D02*
X021663Y003298D01*
X021649Y003312D02*
X021251Y003312D01*
X021193Y003254D01*
X021193Y003241D01*
X020867Y003285D01*
X020867Y003285D01*
X019654Y003389D01*
X019654Y003389D01*
X019107Y003408D01*
X019064Y003409D01*
X019045Y003410D01*
X019001Y003411D01*
X018730Y003421D01*
X018417Y003410D01*
X018262Y003410D01*
X017977Y003328D01*
X017726Y003170D01*
X017529Y002949D01*
X017529Y002949D01*
X017529Y002949D01*
X017473Y002832D01*
X017465Y002815D01*
X017384Y002675D01*
X017162Y002442D01*
X016879Y002289D01*
X016723Y002248D01*
X016340Y002193D01*
X015566Y002179D01*
X015389Y002197D01*
X015380Y002217D01*
X015307Y002290D01*
X015212Y002330D01*
X015108Y002330D01*
X015013Y002290D01*
X014940Y002217D01*
X014900Y002122D01*
X014900Y002018D01*
X014940Y001923D01*
X015013Y001850D01*
X015108Y001810D01*
X015212Y001810D01*
X015307Y001850D01*
X015349Y001891D01*
X015547Y001862D01*
X016371Y001878D01*
X016371Y001878D01*
X016716Y001941D01*
X016757Y001949D01*
X016777Y001952D01*
X016838Y001964D01*
X016984Y001991D01*
X016984Y001991D01*
X017354Y002191D01*
X017354Y002191D01*
X017644Y002495D01*
X017644Y002495D01*
X017735Y002685D01*
X017735Y002685D01*
X017787Y002776D01*
X017927Y002933D01*
X018104Y003045D01*
X018305Y003103D01*
X018397Y003109D01*
X018423Y003110D01*
X018482Y003110D01*
X018483Y003111D01*
X018730Y003115D01*
X019035Y003110D01*
X019635Y003082D01*
X020833Y002980D01*
X021193Y002935D01*
X021193Y002856D01*
X021251Y002797D01*
X021649Y002797D01*
X021707Y002856D01*
X021707Y003254D01*
X021649Y003312D01*
X021707Y003220D02*
X022533Y003220D01*
X022529Y003141D02*
X021707Y003141D01*
X021707Y003063D02*
X022510Y003063D01*
X022490Y002984D02*
X021707Y002984D01*
X021707Y002906D02*
X022470Y002906D01*
X022450Y002827D02*
X021679Y002827D01*
X021221Y002827D02*
X020383Y002827D01*
X020387Y002823D02*
X020314Y002896D01*
X020219Y002935D01*
X020116Y002935D01*
X020022Y002896D01*
X019949Y002823D01*
X019910Y002728D01*
X019910Y002625D01*
X019949Y002531D01*
X020022Y002458D01*
X020116Y002419D01*
X020219Y002419D01*
X020314Y002458D01*
X020387Y002531D01*
X020426Y002625D01*
X020426Y002728D01*
X020387Y002823D01*
X020417Y002749D02*
X022430Y002749D01*
X022410Y002670D02*
X020426Y002670D01*
X020412Y002592D02*
X022390Y002592D01*
X022359Y002513D02*
X020369Y002513D01*
X020388Y002413D02*
X020323Y002386D01*
X020264Y002347D01*
X020214Y002297D01*
X020175Y002238D01*
X020148Y002173D01*
X020134Y002104D01*
X020134Y001859D01*
X020483Y001859D01*
X020483Y002427D01*
X020457Y002427D01*
X020388Y002413D01*
X020483Y002356D02*
X020502Y002356D01*
X020502Y002278D02*
X020483Y002278D01*
X020483Y002199D02*
X020502Y002199D01*
X020502Y002121D02*
X020483Y002121D01*
X020483Y002042D02*
X020502Y002042D01*
X020502Y001964D02*
X020483Y001964D01*
X020483Y001885D02*
X020502Y001885D01*
X020851Y001885D02*
X021966Y001885D01*
X021898Y001807D02*
X020851Y001807D01*
X020851Y001728D02*
X021823Y001728D01*
X021705Y001650D02*
X020851Y001650D01*
X020846Y001571D02*
X021588Y001571D01*
X021470Y001493D02*
X020823Y001493D01*
X020778Y001414D02*
X021266Y001414D01*
X021031Y001336D02*
X020695Y001336D01*
X020290Y001336D02*
X018510Y001336D01*
X018536Y001353D02*
X018586Y001403D01*
X018625Y001462D01*
X018652Y001527D01*
X018666Y001596D01*
X018666Y001841D01*
X018317Y001841D01*
X018317Y001859D01*
X018666Y001859D01*
X018666Y002104D01*
X018652Y002173D01*
X018625Y002238D01*
X018586Y002297D01*
X018536Y002347D01*
X018477Y002386D01*
X018412Y002413D01*
X018343Y002427D01*
X018317Y002427D01*
X018317Y001859D01*
X018298Y001859D01*
X018298Y001841D01*
X017949Y001841D01*
X017949Y001596D01*
X017963Y001527D01*
X017990Y001462D01*
X018029Y001403D01*
X018079Y001353D01*
X018138Y001314D01*
X018203Y001287D01*
X018272Y001273D01*
X018298Y001273D01*
X018298Y001841D01*
X018317Y001841D01*
X018317Y001273D01*
X018343Y001273D01*
X018412Y001287D01*
X018477Y001314D01*
X018536Y001353D01*
X018593Y001414D02*
X020207Y001414D01*
X020162Y001493D02*
X018638Y001493D01*
X018661Y001571D02*
X020139Y001571D01*
X020134Y001650D02*
X018666Y001650D01*
X018666Y001728D02*
X020134Y001728D01*
X020134Y001807D02*
X018666Y001807D01*
X018666Y001885D02*
X020134Y001885D01*
X020134Y001964D02*
X018666Y001964D01*
X018666Y002042D02*
X020134Y002042D01*
X020137Y002121D02*
X018663Y002121D01*
X018641Y002199D02*
X020159Y002199D01*
X020201Y002278D02*
X018599Y002278D01*
X018522Y002356D02*
X020278Y002356D01*
X020257Y002435D02*
X022326Y002435D01*
X022293Y002356D02*
X020707Y002356D01*
X020784Y002278D02*
X022255Y002278D01*
X022210Y002199D02*
X020826Y002199D01*
X020848Y002121D02*
X022166Y002121D01*
X022103Y002042D02*
X020851Y002042D01*
X020851Y001964D02*
X022035Y001964D01*
X020152Y001257D02*
X016843Y001257D01*
X016403Y001336D02*
X018105Y001336D01*
X018022Y001414D02*
X016134Y001414D01*
X015865Y001493D02*
X017977Y001493D01*
X017954Y001571D02*
X015597Y001571D01*
X015394Y001650D02*
X017949Y001650D01*
X017949Y001728D02*
X015221Y001728D01*
X015048Y001807D02*
X017949Y001807D01*
X017949Y001859D02*
X018298Y001859D01*
X018298Y002427D01*
X018272Y002427D01*
X018203Y002413D01*
X018138Y002386D01*
X018079Y002347D01*
X018029Y002297D01*
X017990Y002238D01*
X017963Y002173D01*
X017949Y002104D01*
X017949Y001859D01*
X017949Y001885D02*
X016410Y001885D01*
X016716Y001941D02*
X016716Y001941D01*
X016837Y001964D02*
X017949Y001964D01*
X017949Y002042D02*
X017079Y002042D01*
X017224Y002121D02*
X017952Y002121D01*
X017974Y002199D02*
X017362Y002199D01*
X017437Y002278D02*
X018016Y002278D01*
X018093Y002356D02*
X017512Y002356D01*
X017586Y002435D02*
X018543Y002435D01*
X018581Y002419D02*
X018684Y002419D01*
X018778Y002458D01*
X018851Y002531D01*
X018890Y002625D01*
X018890Y002728D01*
X018851Y002823D01*
X018778Y002896D01*
X018684Y002935D01*
X018581Y002935D01*
X018486Y002896D01*
X018413Y002823D01*
X018374Y002728D01*
X018374Y002625D01*
X018413Y002531D01*
X018486Y002458D01*
X018581Y002419D01*
X018722Y002435D02*
X020078Y002435D01*
X019966Y002513D02*
X018834Y002513D01*
X018876Y002592D02*
X019924Y002592D01*
X019910Y002670D02*
X018890Y002670D01*
X018882Y002749D02*
X019918Y002749D01*
X019953Y002827D02*
X018847Y002827D01*
X018755Y002906D02*
X020045Y002906D01*
X019859Y003063D02*
X018166Y003063D01*
X018008Y002984D02*
X020780Y002984D01*
X021193Y002906D02*
X020290Y002906D01*
X020717Y003298D02*
X021237Y003298D01*
X021193Y003455D02*
X020623Y003455D01*
X019759Y003455D02*
X019505Y003455D01*
X019620Y003534D02*
X019704Y003534D01*
X019681Y003612D02*
X019664Y003612D01*
X019679Y003691D02*
X019681Y003691D01*
X019676Y003769D02*
X019713Y003769D01*
X019716Y003848D02*
X019781Y003848D01*
X019755Y003926D02*
X019854Y003926D01*
X019858Y004005D02*
X019795Y004005D01*
X019802Y004018D02*
X019802Y004018D01*
X019811Y004083D02*
X019862Y004083D01*
X019866Y004162D02*
X019823Y004162D01*
X019834Y004240D02*
X019868Y004240D01*
X019847Y004319D02*
X019845Y004319D01*
X019532Y004319D02*
X017807Y004319D01*
X017838Y004397D02*
X019528Y004397D01*
X019513Y004476D02*
X017869Y004476D01*
X017900Y004554D02*
X019499Y004554D01*
X019466Y004633D02*
X017931Y004633D01*
X017955Y004711D02*
X019422Y004711D01*
X019378Y004790D02*
X018000Y004790D01*
X018094Y004868D02*
X019294Y004868D01*
X019207Y004947D02*
X018130Y004947D01*
X018139Y005025D02*
X019061Y005025D01*
X018879Y005104D02*
X018126Y005104D01*
X018084Y005182D02*
X018729Y005182D01*
X018598Y005261D02*
X017976Y005261D01*
X017784Y005261D02*
X015750Y005261D01*
X015750Y005339D02*
X018468Y005339D01*
X018337Y005418D02*
X015750Y005418D01*
X015770Y005496D02*
X016953Y005496D01*
X016860Y005550D02*
X016860Y005550D01*
X016860Y005550D01*
X016846Y005575D02*
X015831Y005575D01*
X015750Y005182D02*
X017676Y005182D01*
X017434Y005104D02*
X015750Y005104D01*
X015750Y005025D02*
X017226Y005025D01*
X017300Y005068D02*
X017300Y005068D01*
X017090Y004947D02*
X015750Y004947D01*
X015750Y004868D02*
X016956Y004868D01*
X016958Y004870D02*
X016958Y004870D01*
X016877Y004790D02*
X015750Y004790D01*
X015750Y004711D02*
X016799Y004711D01*
X016774Y004686D02*
X016774Y004686D01*
X016720Y004633D02*
X015750Y004633D01*
X015750Y004554D02*
X016661Y004554D01*
X016685Y004597D02*
X016685Y004597D01*
X016616Y004476D02*
X015750Y004476D01*
X015750Y004397D02*
X016572Y004397D01*
X016528Y004319D02*
X015750Y004319D01*
X015750Y004240D02*
X016492Y004240D01*
X016473Y004162D02*
X015750Y004162D01*
X015739Y004083D02*
X016453Y004083D01*
X016469Y004146D02*
X016469Y004146D01*
X016426Y004005D02*
X015706Y004005D01*
X015674Y003926D02*
X016380Y003926D01*
X016324Y003848D02*
X015605Y003848D01*
X015527Y003769D02*
X016253Y003769D01*
X015844Y003691D02*
X015359Y003691D01*
X015347Y003612D02*
X015774Y003612D01*
X015742Y003534D02*
X015492Y003534D01*
X015592Y003455D02*
X015741Y003455D01*
X015762Y003377D02*
X015679Y003377D01*
X015633Y003417D02*
X015633Y003417D01*
X015512Y003754D02*
X015512Y003754D01*
X017229Y003063D02*
X017630Y003063D01*
X017700Y003141D02*
X017285Y003141D01*
X017309Y003220D02*
X017805Y003220D01*
X017930Y003298D02*
X017309Y003298D01*
X017325Y003377D02*
X018146Y003377D01*
X018730Y003421D02*
X018730Y003421D01*
X019035Y003110D02*
X019035Y003110D01*
X019335Y003455D02*
X017379Y003455D01*
X017369Y003437D02*
X017369Y003437D01*
X017421Y003534D02*
X019220Y003534D01*
X019176Y003612D02*
X017464Y003612D01*
X017507Y003691D02*
X019161Y003691D01*
X019168Y003769D02*
X017550Y003769D01*
X017593Y003848D02*
X019201Y003848D01*
X019289Y003926D02*
X017636Y003926D01*
X017679Y004005D02*
X019448Y004005D01*
X019488Y004083D02*
X017713Y004083D01*
X017744Y004162D02*
X019510Y004162D01*
X019521Y004240D02*
X017776Y004240D01*
X020620Y003848D02*
X021196Y003848D01*
X018510Y002906D02*
X017902Y002906D01*
X017832Y002827D02*
X018417Y002827D01*
X018383Y002749D02*
X017771Y002749D01*
X017728Y002670D02*
X018374Y002670D01*
X018388Y002592D02*
X017690Y002592D01*
X017653Y002513D02*
X018431Y002513D01*
X018317Y002356D02*
X018298Y002356D01*
X018298Y002278D02*
X018317Y002278D01*
X018317Y002199D02*
X018298Y002199D01*
X018298Y002121D02*
X018317Y002121D01*
X018317Y002042D02*
X018298Y002042D01*
X018298Y001964D02*
X018317Y001964D01*
X018317Y001885D02*
X018298Y001885D01*
X018298Y001807D02*
X018317Y001807D01*
X018317Y001728D02*
X018298Y001728D01*
X018298Y001650D02*
X018317Y001650D01*
X018317Y001571D02*
X018298Y001571D01*
X018298Y001493D02*
X018317Y001493D01*
X018317Y001414D02*
X018298Y001414D01*
X018298Y001336D02*
X018317Y001336D01*
X018739Y001179D02*
X017392Y001179D01*
X015547Y001862D02*
X015547Y001862D01*
X015390Y001885D02*
X015343Y001885D01*
X015388Y002199D02*
X016381Y002199D01*
X016723Y002248D02*
X016723Y002248D01*
X016835Y002278D02*
X015320Y002278D01*
X015000Y002278D02*
X014392Y002278D01*
X014472Y002356D02*
X017003Y002356D01*
X017148Y002435D02*
X014504Y002435D01*
X014510Y002513D02*
X017229Y002513D01*
X017304Y002592D02*
X016389Y002592D01*
X016574Y002670D02*
X017379Y002670D01*
X017426Y002749D02*
X016744Y002749D01*
X016729Y002736D02*
X016729Y002736D01*
X016842Y002827D02*
X017471Y002827D01*
X017508Y002906D02*
X016940Y002906D01*
X017038Y002984D02*
X017560Y002984D01*
X015938Y002520D02*
X015938Y002520D01*
X015529Y002579D02*
X015529Y002579D01*
X015501Y002592D02*
X014494Y002592D01*
X014448Y002670D02*
X015321Y002670D01*
X015116Y002749D02*
X014329Y002749D01*
X014171Y002749D02*
X014088Y002749D01*
X014152Y002906D02*
X014477Y002906D01*
X014834Y002827D02*
X013931Y002827D01*
X014295Y002199D02*
X014932Y002199D01*
X014900Y002121D02*
X014418Y002121D01*
X014541Y002042D02*
X014900Y002042D01*
X014923Y001964D02*
X014703Y001964D01*
X014875Y001885D02*
X014977Y001885D01*
X009415Y001371D02*
X009415Y001371D01*
X009008Y001179D02*
X007661Y001179D01*
X008355Y001360D02*
X008355Y001360D01*
X008800Y001345D02*
X008800Y001345D01*
X008936Y001885D02*
X008474Y001885D01*
X008235Y001964D02*
X008903Y001964D01*
X008901Y002042D02*
X008101Y002042D01*
X008007Y002121D02*
X008921Y002121D01*
X008973Y002199D02*
X007887Y002199D01*
X007835Y002236D02*
X007835Y002236D01*
X005937Y001965D02*
X005937Y001965D01*
X004693Y003455D02*
X003856Y003455D01*
X003852Y003534D02*
X004693Y003534D01*
X004693Y003612D02*
X003848Y003612D01*
X003844Y003691D02*
X004693Y003691D01*
X004693Y003769D02*
X003852Y003769D01*
X003864Y003848D02*
X004696Y003848D01*
X005027Y004100D02*
X005027Y004100D01*
X006411Y005104D02*
X011603Y005104D01*
X011603Y005182D02*
X006485Y005182D01*
X006558Y005261D02*
X011541Y005261D01*
X011463Y005339D02*
X006631Y005339D01*
X006704Y005418D02*
X011460Y005418D01*
X011460Y005496D02*
X006778Y005496D01*
X006851Y005575D02*
X011460Y005575D01*
X011460Y005653D02*
X006942Y005653D01*
X007042Y005732D02*
X011460Y005732D01*
X011460Y005810D02*
X007142Y005810D01*
X007242Y005889D02*
X009842Y005889D01*
X009813Y005900D02*
X009908Y005861D01*
X010012Y005861D01*
X010107Y005900D01*
X010180Y005973D01*
X010219Y006068D01*
X010219Y006172D01*
X010180Y006267D01*
X010107Y006340D01*
X010012Y006379D01*
X009908Y006379D01*
X009813Y006340D01*
X009774Y006300D01*
X009620Y006300D01*
X009589Y006303D01*
X009531Y006327D01*
X009513Y006345D01*
X009539Y006408D01*
X009539Y006512D01*
X009500Y006607D01*
X009427Y006680D01*
X009332Y006719D01*
X009228Y006719D01*
X009133Y006680D01*
X009060Y006607D01*
X009021Y006512D01*
X009021Y006408D01*
X009060Y006313D01*
X009133Y006240D01*
X009151Y006233D01*
X009179Y006165D01*
X009325Y006019D01*
X009325Y006019D01*
X009517Y005940D01*
X009774Y005940D01*
X009813Y005900D01*
X010078Y005889D02*
X011460Y005889D01*
X011460Y005967D02*
X010173Y005967D01*
X010210Y006046D02*
X011460Y006046D01*
X011460Y006124D02*
X010219Y006124D01*
X010206Y006203D02*
X011460Y006203D01*
X011460Y006281D02*
X010165Y006281D01*
X010059Y006360D02*
X011460Y006360D01*
X011460Y006438D02*
X009539Y006438D01*
X009537Y006517D02*
X011460Y006517D01*
X011460Y006595D02*
X009504Y006595D01*
X009433Y006674D02*
X011460Y006674D01*
X011460Y006752D02*
X008988Y006752D01*
X009127Y006674D02*
X008732Y006674D01*
X008523Y006595D02*
X009056Y006595D01*
X009023Y006517D02*
X008314Y006517D01*
X008122Y006438D02*
X009021Y006438D01*
X009041Y006360D02*
X007983Y006360D01*
X007843Y006281D02*
X009093Y006281D01*
X009164Y006203D02*
X007704Y006203D01*
X007564Y006124D02*
X009221Y006124D01*
X009179Y006165D02*
X009179Y006165D01*
X009299Y006046D02*
X007441Y006046D01*
X007342Y005967D02*
X009451Y005967D01*
X009519Y006360D02*
X009861Y006360D01*
X010054Y006909D02*
X010596Y006909D01*
X011267Y006831D02*
X009366Y006831D01*
X014940Y006752D02*
X017412Y006752D01*
X017668Y006674D02*
X014940Y006674D01*
X014940Y006595D02*
X017877Y006595D01*
X017034Y006831D02*
X015133Y006831D01*
X015804Y006909D02*
X016346Y006909D01*
X017529Y005889D02*
X017601Y005889D01*
X017592Y005810D02*
X017764Y005810D01*
X017620Y005732D02*
X017918Y005732D01*
X018028Y005653D02*
X017620Y005653D01*
X017594Y005575D02*
X018129Y005575D01*
X018228Y005496D02*
X017534Y005496D01*
X018293Y005444D02*
X018293Y005444D01*
X012801Y004397D02*
X012452Y004397D01*
X012474Y004476D02*
X012719Y004476D01*
X012687Y004554D02*
X012474Y004554D01*
X012474Y004633D02*
X012681Y004633D01*
X012697Y004711D02*
X012474Y004711D01*
X012474Y004790D02*
X012723Y004790D01*
X012079Y004711D02*
X011999Y004711D01*
X011999Y004633D02*
X012079Y004633D01*
X012079Y004554D02*
X011999Y004554D01*
X011999Y004476D02*
X012079Y004476D01*
X012079Y004397D02*
X011999Y004397D01*
D15*
X009850Y003160D03*
X009450Y003150D03*
X012350Y002670D03*
X014250Y002500D03*
X015160Y002070D03*
X017000Y003900D03*
X017000Y004250D03*
X018870Y003900D03*
X019170Y004500D03*
X020450Y003650D03*
X016500Y005290D03*
X015930Y005300D03*
X017360Y005690D03*
X017000Y005850D03*
X016100Y006730D03*
D16*
X018840Y005900D03*
X017880Y005020D03*
X016480Y004700D03*
X015940Y004720D03*
X014000Y004860D03*
X012940Y004620D03*
X010680Y004720D03*
X010180Y004720D03*
X007940Y004580D03*
X007940Y004120D03*
X006060Y004280D03*
X004030Y003820D03*
X004060Y003190D03*
X005990Y003030D03*
X009160Y002020D03*
X007700Y001400D03*
X013990Y003110D03*
X016000Y003480D03*
X017050Y003250D03*
X018180Y002840D03*
X019420Y003700D03*
X019940Y003640D03*
X021000Y004010D03*
X022270Y004120D03*
X022340Y003490D03*
X021420Y001810D03*
X017750Y001600D03*
X006850Y005300D03*
X007350Y005610D03*
X007810Y005880D03*
X009280Y006460D03*
X009860Y006500D03*
X009960Y006120D03*
D17*
X016400Y003200D02*
X016484Y003279D01*
X016565Y003361D01*
X016644Y003446D01*
X016721Y003532D01*
X016795Y003621D01*
X016866Y003712D01*
X016934Y003805D01*
X017000Y003900D01*
X016980Y003920D01*
X017000Y003900D02*
X017000Y004250D01*
X016400Y003200D02*
X016363Y003168D01*
X016323Y003139D01*
X016281Y003112D01*
X016237Y003089D01*
X016192Y003070D01*
X016145Y003053D01*
X016097Y003041D01*
X016049Y003031D01*
X015999Y003026D01*
X015950Y003024D01*
X015901Y003026D01*
X015851Y003031D01*
X015803Y003041D01*
X015755Y003053D01*
X015708Y003070D01*
X015663Y003089D01*
X015619Y003112D01*
X015577Y003139D01*
X015537Y003168D01*
X015500Y003200D01*
X014630Y003540D02*
X010892Y003540D01*
X009850Y003160D02*
X009450Y003150D01*
X008140Y003920D02*
X015200Y003920D01*
X015234Y003922D01*
X015267Y003928D01*
X015299Y003937D01*
X015330Y003950D01*
X015360Y003966D01*
X015387Y003985D01*
X015412Y004008D01*
X015435Y004033D01*
X015454Y004060D01*
X015470Y004090D01*
X015483Y004121D01*
X015492Y004153D01*
X015498Y004186D01*
X015500Y004220D01*
X015500Y005420D01*
X015502Y005461D01*
X015507Y005501D01*
X015517Y005540D01*
X015530Y005579D01*
X015546Y005616D01*
X015566Y005652D01*
X015589Y005685D01*
X015615Y005716D01*
X015644Y005745D01*
X015675Y005771D01*
X015708Y005794D01*
X015744Y005814D01*
X015781Y005830D01*
X015820Y005843D01*
X015859Y005853D01*
X015899Y005858D01*
X015940Y005860D01*
X016990Y005860D01*
X016995Y005859D01*
X016999Y005855D01*
X017000Y005850D01*
X016980Y005820D01*
X017000Y005850D02*
X017002Y005827D01*
X017006Y005805D01*
X017014Y005784D01*
X017025Y005763D01*
X017039Y005745D01*
X017055Y005729D01*
X017073Y005715D01*
X017094Y005704D01*
X017115Y005696D01*
X017137Y005692D01*
X017160Y005690D01*
X008140Y003920D02*
X008114Y003922D01*
X008088Y003927D01*
X008063Y003935D01*
X008040Y003947D01*
X008018Y003961D01*
X007999Y003979D01*
X007981Y003998D01*
X007967Y004020D01*
X007955Y004043D01*
X007947Y004068D01*
X007942Y004094D01*
X007940Y004120D01*
X007940Y004580D01*
X009849Y003161D02*
X009903Y003207D01*
X009959Y003251D01*
X010016Y003293D01*
X010076Y003331D01*
X010138Y003367D01*
X010201Y003399D01*
X010266Y003428D01*
X010332Y003454D01*
X010400Y003477D01*
X010468Y003496D01*
X010537Y003512D01*
X010607Y003525D01*
X010678Y003534D01*
X010749Y003540D01*
X010820Y003542D01*
X010891Y003541D01*
X014630Y003540D02*
X014698Y003538D01*
X014766Y003533D01*
X014834Y003524D01*
X014901Y003511D01*
X014967Y003495D01*
X015033Y003475D01*
X015097Y003452D01*
X015160Y003425D01*
X015221Y003396D01*
X015281Y003363D01*
X015339Y003326D01*
X015395Y003287D01*
X015449Y003245D01*
X015500Y003200D01*
D18*
X006900Y001700D03*
X004950Y001850D03*
D19*
X005950Y001700D01*
X006055Y001686D01*
X006160Y001676D01*
X006266Y001669D01*
X006372Y001665D01*
X006478Y001665D01*
X006584Y001669D01*
X006690Y001676D01*
X006795Y001686D01*
X006900Y001700D01*
X017160Y005690D02*
X017360Y005690D01*
D20*
X012944Y005300D02*
X012944Y005036D01*
X009960Y006120D02*
X009620Y006120D01*
X009584Y006122D01*
X009549Y006127D01*
X009515Y006137D01*
X009482Y006149D01*
X009450Y006166D01*
X009420Y006185D01*
X009392Y006207D01*
X009367Y006232D01*
X009345Y006260D01*
X009326Y006290D01*
X009309Y006322D01*
X009297Y006355D01*
X009287Y006389D01*
X009282Y006424D01*
X009280Y006460D01*
D21*
X011281Y002179D02*
X011186Y002115D01*
X011089Y002054D01*
X010991Y001996D01*
X010891Y001942D01*
X010789Y001890D01*
X010685Y001842D01*
X010580Y001797D01*
X010474Y001755D01*
X010367Y001717D01*
X010258Y001682D01*
X010148Y001650D01*
X010037Y001622D01*
X009926Y001598D01*
X009813Y001577D01*
X009701Y001559D01*
X009480Y001740D02*
X009241Y001734D01*
X009241Y001939D01*
X009239Y001955D01*
X009235Y001970D01*
X009227Y001984D01*
X009217Y001996D01*
X009205Y002006D01*
X009191Y002014D01*
X009176Y002018D01*
X009160Y002020D01*
X009241Y001734D02*
X008640Y001720D01*
X008500Y001510D02*
X008437Y001512D01*
X008374Y001517D01*
X008311Y001526D01*
X008248Y001539D01*
X008187Y001556D01*
X008127Y001577D01*
X008068Y001600D01*
X008011Y001628D01*
X007955Y001659D01*
X007901Y001693D01*
X007850Y001730D01*
X007800Y001770D01*
X007950Y001970D02*
X007994Y001932D01*
X008041Y001898D01*
X008089Y001866D01*
X008139Y001837D01*
X008191Y001811D01*
X008244Y001788D01*
X008298Y001768D01*
X008354Y001752D01*
X008410Y001739D01*
X008467Y001729D01*
X008525Y001722D01*
X008582Y001719D01*
X008640Y001720D01*
X007800Y001770D02*
X007743Y001816D01*
X007684Y001859D01*
X007622Y001899D01*
X007558Y001936D01*
X007493Y001969D01*
X007425Y001999D01*
X007356Y002025D01*
X007286Y002047D01*
X007215Y002065D01*
X007143Y002080D01*
X007070Y002091D01*
X006997Y002098D01*
X006924Y002101D01*
X006850Y002100D01*
X005400Y002950D02*
X005378Y002971D01*
X005358Y002995D01*
X005341Y003021D01*
X005326Y003048D01*
X005315Y003077D01*
X005306Y003107D01*
X005301Y003138D01*
X005299Y003169D01*
X005300Y003200D01*
X005302Y003239D01*
X005300Y003278D01*
X005294Y003317D01*
X005285Y003354D01*
X005272Y003391D01*
X005256Y003427D01*
X005236Y003460D01*
X005214Y003492D01*
X005188Y003522D01*
X005160Y003549D01*
X005129Y003573D01*
X005097Y003594D01*
X005062Y003612D01*
X005026Y003627D01*
X004989Y003638D01*
X004950Y003645D01*
X004950Y003055D02*
X005010Y002980D01*
X005072Y002907D01*
X005137Y002837D01*
X005205Y002770D01*
X005276Y002705D01*
X005349Y002643D01*
X005424Y002584D01*
X005502Y002528D01*
X005582Y002475D01*
X005664Y002426D01*
X005747Y002379D01*
X005833Y002336D01*
X005920Y002297D01*
X006009Y002261D01*
X006099Y002228D01*
X006190Y002199D01*
X006282Y002174D01*
X006375Y002152D01*
X006469Y002134D01*
X006564Y002120D01*
X006659Y002110D01*
X006755Y002103D01*
X006850Y002100D01*
X006650Y002390D02*
X006742Y002387D01*
X006835Y002381D01*
X006927Y002371D01*
X007018Y002357D01*
X007109Y002340D01*
X007199Y002319D01*
X007288Y002294D01*
X007376Y002265D01*
X007463Y002233D01*
X007548Y002198D01*
X007632Y002159D01*
X007714Y002117D01*
X007795Y002071D01*
X007873Y002022D01*
X007950Y001970D01*
X012140Y002960D02*
X012192Y002993D01*
X012246Y003024D01*
X012301Y003051D01*
X012358Y003075D01*
X012416Y003096D01*
X012476Y003113D01*
X012536Y003127D01*
X012597Y003138D01*
X012658Y003146D01*
X012720Y003149D01*
X012781Y003150D01*
X012843Y003147D01*
X012905Y003140D01*
X012845Y003200D01*
X013850Y002700D02*
X014250Y002500D01*
X013850Y002700D02*
X013802Y002732D01*
X013756Y002768D01*
X013713Y002806D01*
X013673Y002847D01*
X013635Y002890D01*
X013601Y002936D01*
X013569Y002985D01*
X013541Y003035D01*
X013516Y003087D01*
X013495Y003140D01*
X015400Y002800D02*
X015466Y002773D01*
X015533Y002749D01*
X015601Y002729D01*
X015671Y002713D01*
X015741Y002700D01*
X015811Y002691D01*
X015882Y002686D01*
X015953Y002684D01*
X016025Y002686D01*
X016095Y002692D01*
X016166Y002702D01*
X016236Y002715D01*
X016305Y002732D01*
X016373Y002752D01*
X016440Y002776D01*
X016506Y002804D01*
X016570Y002835D01*
X016632Y002869D01*
X016693Y002907D01*
X016751Y002947D01*
X016808Y002991D01*
X016861Y003037D01*
X016913Y003087D01*
X016961Y003139D01*
X017007Y003193D01*
X017050Y003250D01*
X017600Y002750D02*
X017570Y002692D01*
X017537Y002636D01*
X017501Y002582D01*
X017462Y002529D01*
X017420Y002479D01*
X017376Y002431D01*
X017328Y002386D01*
X017279Y002344D01*
X017227Y002304D01*
X017173Y002267D01*
X017117Y002234D01*
X017059Y002203D01*
X017000Y002176D01*
X016939Y002152D01*
X016877Y002131D01*
X016814Y002114D01*
X016750Y002100D01*
X017600Y002750D02*
X017628Y002803D01*
X017658Y002854D01*
X017693Y002902D01*
X017730Y002948D01*
X017770Y002992D01*
X017813Y003033D01*
X017859Y003071D01*
X017907Y003106D01*
X017957Y003137D01*
X018009Y003166D01*
X018063Y003190D01*
X018119Y003211D01*
X018175Y003229D01*
X018233Y003242D01*
X018292Y003252D01*
X018351Y003258D01*
X018410Y003260D01*
X018420Y003260D01*
X017880Y005020D02*
X017809Y005018D01*
X017739Y005013D01*
X017669Y005003D01*
X017599Y004990D01*
X017530Y004974D01*
X017462Y004954D01*
X017395Y004930D01*
X017330Y004903D01*
X017266Y004873D01*
X017204Y004839D01*
X017144Y004802D01*
X017085Y004762D01*
X017029Y004719D01*
X016975Y004673D01*
X016924Y004624D01*
X017100Y006340D02*
X017182Y006338D01*
X017263Y006333D01*
X017344Y006324D01*
X017424Y006311D01*
X017504Y006295D01*
X017584Y006276D01*
X017662Y006253D01*
X017739Y006227D01*
X017815Y006197D01*
X017889Y006164D01*
X017962Y006127D01*
X018034Y006088D01*
X018103Y006045D01*
X018171Y006000D01*
X018236Y005951D01*
X018300Y005900D01*
X017100Y006340D02*
X015960Y006340D01*
X015960Y006160D02*
X016980Y006160D01*
X015960Y006160D02*
X015907Y006158D01*
X015855Y006152D01*
X015803Y006143D01*
X015752Y006130D01*
X015701Y006113D01*
X015653Y006093D01*
X015605Y006069D01*
X015560Y006043D01*
X015517Y006012D01*
X015475Y005979D01*
X015437Y005943D01*
X015401Y005905D01*
X015368Y005863D01*
X015337Y005820D01*
X015311Y005775D01*
X015287Y005727D01*
X015267Y005679D01*
X015250Y005628D01*
X015237Y005577D01*
X015228Y005525D01*
X015222Y005473D01*
X015220Y005420D01*
X015220Y004500D01*
X015040Y004640D02*
X015040Y005420D01*
X015042Y005478D01*
X015047Y005535D01*
X015056Y005592D01*
X015069Y005649D01*
X015085Y005704D01*
X015105Y005759D01*
X015128Y005812D01*
X015154Y005863D01*
X015183Y005913D01*
X015216Y005961D01*
X015251Y006006D01*
X015289Y006050D01*
X015330Y006091D01*
X015374Y006129D01*
X015419Y006164D01*
X015467Y006197D01*
X015517Y006226D01*
X015568Y006252D01*
X015621Y006275D01*
X015676Y006295D01*
X015731Y006311D01*
X015788Y006324D01*
X015845Y006333D01*
X015902Y006338D01*
X015960Y006340D01*
X016750Y002101D02*
X016619Y002079D01*
X016487Y002060D01*
X016355Y002045D01*
X016222Y002033D01*
X016089Y002025D01*
X015956Y002021D01*
X015823Y002020D01*
X015690Y002023D01*
X015557Y002030D01*
X015425Y002040D01*
X015292Y002053D01*
X015160Y002071D01*
X015400Y002800D02*
X015297Y002843D01*
X015193Y002883D01*
X015088Y002921D01*
X014981Y002955D01*
X014874Y002985D01*
X014765Y003013D01*
X014656Y003037D01*
X014546Y003057D01*
X014436Y003074D01*
X014325Y003088D01*
X014214Y003099D01*
X014102Y003106D01*
X013990Y003109D01*
X013860Y004190D02*
X014940Y004190D01*
X014760Y004360D02*
X014100Y004360D01*
X013340Y004620D02*
X012944Y005016D01*
X012944Y005036D01*
X012940Y004620D02*
X013020Y004540D01*
X013064Y004496D01*
X013110Y004454D01*
X013159Y004415D01*
X013210Y004379D01*
X013263Y004346D01*
X013317Y004315D01*
X013374Y004288D01*
X013431Y004264D01*
X013490Y004243D01*
X013550Y004226D01*
X013611Y004212D01*
X013673Y004201D01*
X013735Y004194D01*
X013797Y004190D01*
X013860Y004190D01*
X014940Y004190D02*
X014973Y004194D01*
X015005Y004201D01*
X015036Y004212D01*
X015066Y004226D01*
X015094Y004244D01*
X015120Y004264D01*
X015144Y004287D01*
X015165Y004313D01*
X015182Y004341D01*
X015197Y004371D01*
X015208Y004402D01*
X015216Y004434D01*
X015219Y004467D01*
X015220Y004500D01*
X015040Y004640D02*
X015038Y004609D01*
X015033Y004578D01*
X015024Y004548D01*
X015012Y004519D01*
X014997Y004491D01*
X014979Y004465D01*
X014958Y004442D01*
X014935Y004421D01*
X014909Y004403D01*
X014881Y004388D01*
X014852Y004376D01*
X014822Y004367D01*
X014791Y004362D01*
X014760Y004360D01*
X016000Y003480D02*
X016053Y003492D01*
X016105Y003508D01*
X016156Y003528D01*
X016206Y003551D01*
X016253Y003578D01*
X016299Y003608D01*
X016342Y003641D01*
X016383Y003677D01*
X016421Y003716D01*
X016457Y003758D01*
X016489Y003802D01*
X016518Y003848D01*
X016544Y003896D01*
X016566Y003946D01*
X016585Y003997D01*
X016600Y004050D01*
X016980Y006160D02*
X017064Y006158D01*
X017148Y006152D01*
X017232Y006143D01*
X017315Y006130D01*
X017398Y006113D01*
X017479Y006092D01*
X017560Y006068D01*
X017639Y006040D01*
X017717Y006009D01*
X017794Y005974D01*
X017869Y005936D01*
X017942Y005894D01*
X018014Y005849D01*
X018083Y005801D01*
X018150Y005750D01*
X019150Y005150D02*
X019203Y005125D01*
X019254Y005097D01*
X019302Y005066D01*
X019349Y005031D01*
X019393Y004994D01*
X019435Y004953D01*
X019474Y004911D01*
X019511Y004865D01*
X019544Y004818D01*
X019574Y004768D01*
X019600Y004717D01*
X019624Y004663D01*
X019643Y004609D01*
X019660Y004553D01*
X019672Y004497D01*
X019681Y004439D01*
X019686Y004381D01*
X019687Y004323D01*
X019684Y004265D01*
X019678Y004208D01*
X019668Y004151D01*
X019654Y004094D01*
X019637Y004039D01*
X019616Y003985D01*
X019591Y003932D01*
X019563Y003882D01*
X019532Y003833D01*
X019498Y003786D01*
X019460Y003741D01*
X019420Y003700D01*
X019940Y003640D02*
X019963Y003707D01*
X019983Y003775D01*
X019999Y003845D01*
X020011Y003914D01*
X020020Y003985D01*
X020025Y004056D01*
X020026Y004127D01*
X020023Y004198D01*
X020017Y004269D01*
X020007Y004339D01*
X019993Y004409D01*
X019975Y004477D01*
X019954Y004545D01*
X019929Y004612D01*
X019901Y004677D01*
X019870Y004741D01*
X019835Y004802D01*
X019796Y004862D01*
X019755Y004920D01*
X019711Y004976D01*
X019664Y005029D01*
X019614Y005079D01*
X019561Y005127D01*
X019506Y005172D01*
X019449Y005214D01*
X019390Y005253D01*
X019328Y005289D01*
X019265Y005321D01*
X019200Y005350D01*
X016924Y004624D02*
X016878Y004576D01*
X016835Y004525D01*
X016795Y004472D01*
X016757Y004416D01*
X016723Y004359D01*
X016692Y004300D01*
X016664Y004240D01*
X016639Y004178D01*
X016618Y004114D01*
X016600Y004050D01*
X013920Y004359D02*
X013861Y004365D01*
X013803Y004374D01*
X013745Y004387D01*
X013688Y004404D01*
X013633Y004424D01*
X013579Y004449D01*
X013527Y004476D01*
X013476Y004507D01*
X013428Y004542D01*
X013383Y004579D01*
X013340Y004620D01*
X013920Y004360D02*
X013980Y004357D01*
X014040Y004357D01*
X014100Y004360D01*
X010720Y002080D02*
X010639Y002034D01*
X010557Y001991D01*
X010472Y001952D01*
X010387Y001916D01*
X010300Y001882D01*
X010212Y001853D01*
X010123Y001827D01*
X010033Y001804D01*
X009942Y001784D01*
X009850Y001768D01*
X009758Y001756D01*
X009666Y001747D01*
X009573Y001742D01*
X009480Y001740D01*
X011280Y002180D02*
X011379Y002244D01*
X011480Y002306D01*
X011583Y002363D01*
X011688Y002418D01*
X011795Y002469D01*
X011903Y002516D01*
X012013Y002560D01*
X012124Y002600D01*
X012237Y002637D01*
X012350Y002670D01*
X006650Y002390D02*
X006559Y002403D01*
X006467Y002420D01*
X006377Y002440D01*
X006288Y002464D01*
X006199Y002492D01*
X006112Y002523D01*
X006026Y002557D01*
X005941Y002595D01*
X005858Y002637D01*
X005777Y002681D01*
X005697Y002729D01*
X005620Y002780D01*
X005545Y002834D01*
X005471Y002890D01*
X005401Y002950D01*
X017050Y003250D02*
X017130Y003365D01*
X017208Y003482D01*
X017282Y003601D01*
X017353Y003722D01*
X017421Y003845D01*
X017485Y003970D01*
X017547Y004096D01*
X017605Y004224D01*
X017659Y004354D01*
X017710Y004485D01*
X017758Y004617D01*
X017802Y004750D01*
X017843Y004884D01*
X017880Y005020D01*
X020450Y003650D02*
X020600Y003645D01*
X021450Y003645D01*
X019040Y003260D02*
X018833Y003264D01*
X018627Y003264D01*
X018420Y003260D01*
X019040Y003259D02*
X019524Y003237D01*
X020006Y003206D01*
X020489Y003165D01*
X020970Y003114D01*
X021450Y003054D01*
X009700Y001560D02*
X009551Y001542D01*
X009401Y001527D01*
X009252Y001516D01*
X009101Y001508D01*
X008951Y001503D01*
X008801Y001502D01*
X008651Y001504D01*
X008500Y001510D01*
X018300Y005899D02*
X018382Y005832D01*
X018466Y005767D01*
X018552Y005705D01*
X018639Y005646D01*
X018729Y005589D01*
X018820Y005536D01*
X018913Y005485D01*
X019007Y005436D01*
X019103Y005391D01*
X019200Y005349D01*
X019150Y005150D02*
X019032Y005203D01*
X018915Y005260D01*
X018799Y005320D01*
X018686Y005383D01*
X018575Y005450D01*
X018465Y005520D01*
X018358Y005594D01*
X018253Y005670D01*
X018150Y005750D01*
X012141Y002960D02*
X011793Y002728D01*
X011440Y002505D01*
X011082Y002288D01*
X010721Y002080D01*
M02*
