G75*
G70*
%OFA0B0*%
%FSLAX24Y24*%
%IPPOS*%
%LPD*%
%AMOC8*
5,1,8,0,0,1.08239X$1,22.5*
%
%ADD10C,0.0030*%
%ADD11C,0.0050*%
%ADD12C,0.0080*%
%ADD13R,0.0160X0.0280*%
%ADD14R,0.0280X0.0160*%
%ADD15C,0.0160*%
%ADD16C,0.0060*%
D10*
X012500Y003615D02*
X012646Y003615D01*
X012694Y003663D01*
X012694Y003760D01*
X012646Y003808D01*
X012500Y003808D01*
X012500Y003905D02*
X012500Y003615D01*
X012794Y003615D02*
X012890Y003615D01*
X012842Y003615D02*
X012842Y003905D01*
X012890Y003905D01*
X012992Y003760D02*
X012992Y003712D01*
X013185Y003712D01*
X013185Y003760D02*
X013137Y003808D01*
X013040Y003808D01*
X012992Y003760D01*
X013040Y003615D02*
X013137Y003615D01*
X013185Y003663D01*
X013185Y003760D01*
X013333Y003808D02*
X013333Y003615D01*
X013381Y003615D02*
X013285Y003615D01*
X013483Y003615D02*
X013483Y003760D01*
X013531Y003808D01*
X013628Y003808D01*
X013676Y003760D01*
X013777Y003712D02*
X013777Y003663D01*
X013826Y003615D01*
X013922Y003615D01*
X013971Y003663D01*
X013922Y003760D02*
X013826Y003760D01*
X013777Y003712D01*
X013676Y003615D02*
X013676Y003905D01*
X013777Y003857D02*
X013826Y003905D01*
X013922Y003905D01*
X013971Y003857D01*
X013971Y003808D01*
X013922Y003760D01*
X013948Y004095D02*
X014094Y004095D01*
X014094Y004385D01*
X013948Y004385D01*
X013900Y004337D01*
X013900Y004288D01*
X013948Y004240D01*
X014094Y004240D01*
X013948Y004240D02*
X013900Y004192D01*
X013900Y004143D01*
X013948Y004095D01*
X013799Y004143D02*
X013750Y004192D01*
X013605Y004192D01*
X013605Y004240D02*
X013605Y004095D01*
X013750Y004095D01*
X013799Y004143D01*
X013750Y004288D02*
X013654Y004288D01*
X013605Y004240D01*
X013504Y004288D02*
X013407Y004288D01*
X013456Y004337D02*
X013456Y004143D01*
X013407Y004095D01*
X013259Y004143D02*
X013259Y004337D01*
X013211Y004288D02*
X013308Y004288D01*
X013259Y004143D02*
X013211Y004095D01*
X013111Y004143D02*
X013111Y004240D01*
X013063Y004288D01*
X012966Y004288D01*
X012918Y004240D01*
X012918Y004192D01*
X013111Y004192D01*
X013111Y004143D02*
X013063Y004095D01*
X012966Y004095D01*
X012817Y004095D02*
X012817Y004288D01*
X012817Y004192D02*
X012720Y004288D01*
X012672Y004288D01*
X012571Y004288D02*
X012571Y004143D01*
X012523Y004095D01*
X012378Y004095D01*
X012378Y004047D02*
X012426Y003998D01*
X012474Y003998D01*
X012378Y004047D02*
X012378Y004288D01*
X013333Y003954D02*
X013333Y003905D01*
X013333Y003808D02*
X013381Y003808D01*
D11*
X015413Y004213D02*
X016987Y004213D01*
X016987Y005787D01*
X015413Y005787D01*
X015413Y004213D01*
X016781Y004016D02*
X016783Y004034D01*
X016789Y004052D01*
X016798Y004068D01*
X016810Y004081D01*
X016825Y004092D01*
X016842Y004100D01*
X016860Y004104D01*
X016878Y004104D01*
X016896Y004100D01*
X016913Y004092D01*
X016928Y004081D01*
X016940Y004068D01*
X016949Y004052D01*
X016955Y004034D01*
X016957Y004016D01*
X016955Y003998D01*
X016949Y003980D01*
X016940Y003964D01*
X016928Y003951D01*
X016913Y003940D01*
X016896Y003932D01*
X016878Y003928D01*
X016860Y003928D01*
X016842Y003932D01*
X016825Y003940D01*
X016810Y003951D01*
X016798Y003964D01*
X016789Y003980D01*
X016783Y003998D01*
X016781Y004016D01*
X019350Y004100D02*
X019350Y004900D01*
X005000Y002550D02*
X004200Y002550D01*
D12*
X004128Y002306D02*
X004128Y001873D01*
X004285Y001716D01*
X004915Y001716D01*
X005072Y001873D01*
X005072Y002306D01*
X005425Y002994D02*
X005425Y004372D01*
X005740Y004372D01*
X005740Y003387D01*
X006213Y003387D01*
X005072Y003094D02*
X005072Y003684D01*
X004128Y003684D01*
X004128Y003094D01*
X006213Y001419D02*
X007787Y001419D01*
X008575Y002994D02*
X008575Y004372D01*
X008260Y004372D01*
X008260Y003387D01*
X007787Y003387D01*
X009528Y003054D02*
X009733Y003241D01*
X009733Y003242D02*
X009763Y003267D01*
X009795Y003289D01*
X009830Y003307D01*
X009866Y003322D01*
X009903Y003334D01*
X009941Y003342D01*
X009980Y003346D01*
X010020Y003346D01*
X010059Y003342D01*
X010097Y003334D01*
X010134Y003322D01*
X010170Y003307D01*
X010205Y003289D01*
X010237Y003267D01*
X010267Y003242D01*
X010267Y003241D02*
X010472Y003054D01*
X010472Y002346D02*
X010236Y002109D01*
X009764Y002109D01*
X009528Y002346D01*
X009950Y004020D02*
X009950Y004280D01*
X009950Y004930D02*
X009950Y005190D01*
X011250Y005190D02*
X011250Y004930D01*
X011191Y004009D02*
X011289Y003911D01*
X018061Y003083D02*
X018061Y002453D01*
X018534Y002531D02*
X018534Y003083D01*
X018061Y003083D01*
X018534Y002531D02*
X020266Y002531D01*
X020266Y003083D01*
X020739Y003083D01*
X020739Y002453D01*
X020739Y001390D02*
X018061Y001390D01*
X018216Y004028D02*
X018806Y004028D01*
X018216Y004028D02*
X018216Y004972D01*
X018806Y004972D01*
X019594Y004972D02*
X020027Y004972D01*
X020184Y004815D01*
X020184Y004185D01*
X020027Y004028D01*
X019594Y004028D01*
D13*
X016700Y006400D03*
X015500Y006400D03*
X012100Y005100D03*
X011100Y006400D03*
X010600Y005800D03*
X009600Y006400D03*
D14*
X015000Y003000D03*
X015500Y003000D03*
X016000Y003000D03*
X016500Y003000D03*
X017000Y003000D03*
X017500Y003000D03*
X017500Y004600D03*
D15*
X011612Y004300D02*
X011588Y004300D01*
X009600Y005788D02*
X009600Y005812D01*
D16*
X013082Y005386D02*
X013318Y005386D01*
X013318Y004914D02*
X013082Y004914D01*
M02*
