G75*
%MOIN*%
%OFA0B0*%
%FSLAX24Y24*%
%IPPOS*%
%LPD*%
%AMOC8*
5,1,8,0,0,1.08239X$1,22.5*
%
%ADD10C,0.0030*%
%ADD11C,0.0060*%
%ADD12C,0.0050*%
%ADD13C,0.0040*%
%ADD14C,0.0080*%
%ADD15R,0.0280X0.0160*%
%ADD16R,0.0160X0.0280*%
%ADD17C,0.0160*%
D10*
X011703Y003265D02*
X011838Y003265D01*
X011883Y003310D01*
X011883Y003400D01*
X011838Y003445D01*
X011703Y003445D01*
X011703Y003535D02*
X011703Y003265D01*
X011977Y003265D02*
X012067Y003265D01*
X012022Y003265D02*
X012022Y003535D01*
X012067Y003535D01*
X012163Y003400D02*
X012163Y003355D01*
X012343Y003355D01*
X012343Y003310D02*
X012343Y003400D01*
X012298Y003445D01*
X012208Y003445D01*
X012163Y003400D01*
X012208Y003265D02*
X012298Y003265D01*
X012343Y003310D01*
X012437Y003265D02*
X012527Y003265D01*
X012482Y003265D02*
X012482Y003445D01*
X012527Y003445D01*
X012482Y003535D02*
X012482Y003580D01*
X012624Y003400D02*
X012624Y003265D01*
X012624Y003400D02*
X012669Y003445D01*
X012759Y003445D01*
X012804Y003400D01*
X012900Y003355D02*
X012900Y003310D01*
X012945Y003265D01*
X013035Y003265D01*
X013080Y003310D01*
X013035Y003400D02*
X013080Y003445D01*
X013080Y003490D01*
X013035Y003535D01*
X012945Y003535D01*
X012900Y003490D01*
X012945Y003400D02*
X012900Y003355D01*
X012945Y003400D02*
X013035Y003400D01*
X012804Y003535D02*
X012804Y003265D01*
X012691Y003115D02*
X012691Y002845D01*
X012781Y002845D02*
X012600Y002845D01*
X012781Y003025D02*
X012691Y003115D01*
X012874Y002890D02*
X012874Y002845D01*
X012919Y002845D01*
X012919Y002890D01*
X012874Y002890D01*
X013015Y002890D02*
X013060Y002845D01*
X013150Y002845D01*
X013195Y002890D01*
X013015Y003070D01*
X013015Y002890D01*
X013195Y002890D02*
X013195Y003070D01*
X013150Y003115D01*
X013060Y003115D01*
X013015Y003070D01*
X013288Y002890D02*
X013288Y002845D01*
X013333Y002845D01*
X013333Y002890D01*
X013288Y002890D01*
X013429Y002845D02*
X013609Y002845D01*
X013429Y003025D01*
X013429Y003070D01*
X013474Y003115D01*
X013564Y003115D01*
X013609Y003070D01*
X013705Y003025D02*
X013796Y002845D01*
X013886Y003025D01*
X013863Y003265D02*
X013863Y003445D01*
X013863Y003355D02*
X013772Y003445D01*
X013727Y003445D01*
X013632Y003445D02*
X013632Y003310D01*
X013587Y003265D01*
X013452Y003265D01*
X013452Y003220D02*
X013452Y003445D01*
X013452Y003220D02*
X013497Y003175D01*
X013542Y003175D01*
X013959Y003355D02*
X014139Y003355D01*
X014139Y003310D02*
X014139Y003400D01*
X014094Y003445D01*
X014004Y003445D01*
X013959Y003400D01*
X013959Y003355D01*
X014004Y003265D02*
X014094Y003265D01*
X014139Y003310D01*
X014233Y003265D02*
X014278Y003310D01*
X014278Y003490D01*
X014323Y003445D02*
X014233Y003445D01*
X014417Y003445D02*
X014507Y003445D01*
X014462Y003490D02*
X014462Y003310D01*
X014417Y003265D01*
X014603Y003265D02*
X014738Y003265D01*
X014783Y003310D01*
X014738Y003355D01*
X014603Y003355D01*
X014603Y003400D02*
X014603Y003265D01*
X014603Y003400D02*
X014648Y003445D01*
X014738Y003445D01*
X014879Y003445D02*
X014924Y003400D01*
X015060Y003400D01*
X015060Y003265D02*
X014924Y003265D01*
X014879Y003310D01*
X014879Y003355D01*
X014924Y003400D01*
X014879Y003445D02*
X014879Y003490D01*
X014924Y003535D01*
X015060Y003535D01*
X015060Y003265D01*
D11*
X013318Y003814D02*
X013082Y003814D01*
X013082Y004286D02*
X013318Y004286D01*
X009136Y001834D02*
X009136Y001407D01*
X009350Y001620D02*
X008923Y001620D01*
D12*
X005150Y003000D02*
X004350Y003000D01*
X015413Y004213D02*
X016987Y004213D01*
X016987Y005787D01*
X015413Y005787D01*
X015413Y004213D01*
X016781Y004016D02*
X016783Y004034D01*
X016789Y004052D01*
X016798Y004068D01*
X016810Y004081D01*
X016825Y004092D01*
X016842Y004100D01*
X016860Y004104D01*
X016878Y004104D01*
X016896Y004100D01*
X016913Y004092D01*
X016928Y004081D01*
X016940Y004068D01*
X016949Y004052D01*
X016955Y004034D01*
X016957Y004016D01*
X016955Y003998D01*
X016949Y003980D01*
X016940Y003964D01*
X016928Y003951D01*
X016913Y003940D01*
X016896Y003932D01*
X016878Y003928D01*
X016860Y003928D01*
X016842Y003932D01*
X016825Y003940D01*
X016810Y003951D01*
X016798Y003964D01*
X016789Y003980D01*
X016783Y003998D01*
X016781Y004016D01*
X019350Y004100D02*
X019350Y004900D01*
X019355Y005175D02*
X019355Y005475D01*
X019205Y005475D01*
X019155Y005425D01*
X019155Y005325D01*
X019205Y005275D01*
X019355Y005275D01*
X019477Y005325D02*
X019527Y005275D01*
X019677Y005275D01*
X019627Y005375D02*
X019527Y005375D01*
X019477Y005325D01*
X019477Y005475D02*
X019627Y005475D01*
X019677Y005425D01*
X019627Y005375D01*
X019033Y005325D02*
X018983Y005275D01*
X018832Y005275D01*
X018832Y005425D01*
X018883Y005475D01*
X018983Y005475D01*
X018983Y005375D02*
X018832Y005375D01*
X018710Y005375D02*
X018610Y005475D01*
X018560Y005475D01*
X018710Y005475D02*
X018710Y005275D01*
X018442Y005275D02*
X018442Y005575D01*
X018292Y005475D02*
X018442Y005375D01*
X018292Y005275D01*
X018173Y005275D02*
X018173Y005325D01*
X018123Y005325D01*
X018123Y005275D01*
X018173Y005275D01*
X018012Y005275D02*
X017912Y005275D01*
X017962Y005275D02*
X017962Y005475D01*
X018012Y005475D01*
X017962Y005575D02*
X017962Y005625D01*
X017797Y005425D02*
X017797Y005325D01*
X017747Y005275D01*
X017647Y005275D01*
X017597Y005325D01*
X017597Y005425D01*
X017647Y005475D01*
X017747Y005475D01*
X017797Y005425D01*
X018983Y005375D02*
X019033Y005325D01*
D13*
X009930Y005703D02*
X009897Y005670D01*
X009863Y005670D01*
X009830Y005703D01*
X009830Y005870D01*
X009863Y005870D02*
X009797Y005870D01*
X009709Y005803D02*
X009642Y005870D01*
X009642Y005670D01*
X009576Y005670D02*
X009709Y005670D01*
X016226Y001537D02*
X016259Y001570D01*
X016326Y001570D01*
X016359Y001537D01*
X016447Y001570D02*
X016513Y001570D01*
X016480Y001570D02*
X016480Y001403D01*
X016513Y001370D01*
X016547Y001370D01*
X016580Y001403D01*
X016359Y001370D02*
X016226Y001370D01*
X016359Y001370D02*
X016226Y001503D01*
X016226Y001537D01*
D14*
X004435Y002166D02*
X004278Y002323D01*
X004278Y002756D01*
X004435Y002166D02*
X005065Y002166D01*
X005222Y002323D01*
X005222Y002756D01*
X005425Y002994D02*
X005425Y004372D01*
X005740Y004372D01*
X005740Y003387D01*
X006213Y003387D01*
X005222Y003544D02*
X005222Y004134D01*
X004278Y004134D01*
X004278Y003544D01*
X007787Y003387D02*
X008260Y003387D01*
X008260Y004372D01*
X008575Y004372D01*
X008575Y002994D01*
X009528Y003054D02*
X009733Y003241D01*
X010267Y003241D02*
X010472Y003054D01*
X010267Y003242D02*
X010237Y003267D01*
X010205Y003289D01*
X010170Y003307D01*
X010134Y003322D01*
X010097Y003334D01*
X010059Y003342D01*
X010020Y003346D01*
X009980Y003346D01*
X009941Y003342D01*
X009903Y003334D01*
X009866Y003322D01*
X009830Y003307D01*
X009795Y003289D01*
X009763Y003267D01*
X009733Y003242D01*
X011041Y004159D02*
X011139Y004061D01*
X009800Y004170D02*
X009800Y004430D01*
X009800Y005080D02*
X009800Y005340D01*
X010205Y005726D02*
X010835Y005726D01*
X010835Y005727D02*
X010851Y005732D01*
X010867Y005740D01*
X010881Y005750D01*
X010893Y005762D01*
X010903Y005777D01*
X010910Y005793D01*
X010914Y005810D01*
X010915Y005827D01*
X010913Y005845D01*
X010205Y005727D02*
X010189Y005732D01*
X010173Y005740D01*
X010159Y005750D01*
X010147Y005762D01*
X010137Y005777D01*
X010130Y005793D01*
X010126Y005810D01*
X010125Y005827D01*
X010127Y005845D01*
X010127Y006395D02*
X010125Y006413D01*
X010126Y006430D01*
X010130Y006447D01*
X010137Y006463D01*
X010147Y006478D01*
X010159Y006490D01*
X010173Y006500D01*
X010189Y006508D01*
X010205Y006513D01*
X010205Y006514D02*
X010835Y006514D01*
X010835Y006513D02*
X010851Y006508D01*
X010867Y006500D01*
X010881Y006490D01*
X010893Y006478D01*
X010903Y006463D01*
X010910Y006447D01*
X010914Y006430D01*
X010915Y006413D01*
X010913Y006395D01*
X011100Y005340D02*
X011100Y005080D01*
X018216Y004972D02*
X018216Y004028D01*
X018806Y004028D01*
X019594Y004028D02*
X020027Y004028D01*
X020184Y004185D01*
X020184Y004815D01*
X020027Y004972D01*
X019594Y004972D01*
X018806Y004972D02*
X018216Y004972D01*
X018061Y002933D02*
X018061Y002303D01*
X018534Y002381D02*
X018534Y002933D01*
X018061Y002933D01*
X018534Y002381D02*
X020266Y002381D01*
X020266Y002933D01*
X020739Y002933D01*
X020739Y002303D01*
X020739Y001240D02*
X018061Y001240D01*
X017465Y001306D02*
X016835Y001306D01*
X016835Y001307D02*
X016819Y001312D01*
X016803Y001320D01*
X016789Y001330D01*
X016777Y001342D01*
X016767Y001357D01*
X016760Y001373D01*
X016756Y001390D01*
X016755Y001407D01*
X016757Y001425D01*
X017465Y001307D02*
X017481Y001312D01*
X017497Y001320D01*
X017511Y001330D01*
X017523Y001342D01*
X017533Y001357D01*
X017540Y001373D01*
X017544Y001390D01*
X017545Y001407D01*
X017543Y001425D01*
X017543Y001975D02*
X017545Y001993D01*
X017544Y002010D01*
X017540Y002027D01*
X017533Y002043D01*
X017523Y002058D01*
X017511Y002070D01*
X017497Y002080D01*
X017481Y002088D01*
X017465Y002093D01*
X017465Y002094D02*
X016835Y002094D01*
X016835Y002093D02*
X016819Y002088D01*
X016803Y002080D01*
X016789Y002070D01*
X016777Y002058D01*
X016767Y002043D01*
X016760Y002027D01*
X016756Y002010D01*
X016755Y001993D01*
X016757Y001975D01*
X010472Y002346D02*
X010236Y002109D01*
X009764Y002109D01*
X009528Y002346D01*
X007787Y001419D02*
X006213Y001419D01*
D15*
X012150Y004150D03*
X014550Y003950D03*
X017500Y004600D03*
X017550Y002700D03*
X016650Y002700D03*
X016150Y002700D03*
X015650Y002700D03*
X015150Y002700D03*
X014650Y002700D03*
X008980Y005720D03*
X008440Y005720D03*
X011280Y006180D03*
D16*
X010560Y006810D03*
X015500Y006400D03*
X016700Y006400D03*
X016210Y001920D03*
D17*
X011612Y004150D02*
X011588Y004150D01*
M02*
