G75*
G70*
%OFA0B0*%
%FSLAX24Y24*%
%IPPOS*%
%LPD*%
%AMOC8*
5,1,8,0,0,1.08239X$1,22.5*
%
%ADD10C,0.0010*%
%ADD11R,0.0198X0.0375*%
%ADD12R,0.0375X0.0198*%
%ADD13R,0.1024X0.1024*%
%ADD14R,0.0197X0.0415*%
%ADD15R,0.1025X0.0730*%
%ADD16R,0.0356X0.0190*%
%ADD17R,0.0592X0.0592*%
%ADD18R,0.0434X0.0356*%
%ADD19R,0.0356X0.0434*%
%ADD20R,0.0395X0.0552*%
%ADD21R,0.0474X0.1891*%
%ADD22R,0.0710X0.1419*%
%ADD23R,0.0710X0.0631*%
%ADD24R,0.0631X0.0710*%
%ADD25R,0.0789X0.0710*%
%ADD26R,0.0237X0.0611*%
%ADD27R,0.0671X0.0828*%
%ADD28C,0.0316*%
%ADD29C,0.0517*%
%ADD30R,0.0330X0.0580*%
%ADD31R,0.0395X0.0946*%
D10*
X021140Y002760D02*
X021580Y002850D01*
X021640Y002760D01*
X021580Y002670D01*
X021140Y002760D01*
X021152Y002758D02*
X021638Y002758D01*
X021636Y002766D02*
X021170Y002766D01*
X021194Y002749D02*
X021633Y002749D01*
X021627Y002741D02*
X021235Y002741D01*
X021211Y002775D02*
X021630Y002775D01*
X021625Y002783D02*
X021253Y002783D01*
X021294Y002792D02*
X021619Y002792D01*
X021613Y002800D02*
X021336Y002800D01*
X021377Y002809D02*
X021608Y002809D01*
X021602Y002817D02*
X021419Y002817D01*
X021460Y002826D02*
X021596Y002826D01*
X021591Y002834D02*
X021502Y002834D01*
X021544Y002843D02*
X021585Y002843D01*
X021621Y002732D02*
X021277Y002732D01*
X021318Y002724D02*
X021616Y002724D01*
X021610Y002715D02*
X021360Y002715D01*
X021401Y002707D02*
X021604Y002707D01*
X021599Y002698D02*
X021443Y002698D01*
X021484Y002690D02*
X021593Y002690D01*
X021587Y002681D02*
X021526Y002681D01*
X021568Y002673D02*
X021582Y002673D01*
X021681Y002605D02*
X022325Y002605D01*
X022320Y002613D02*
X021687Y002613D01*
X021692Y002622D02*
X022315Y002622D01*
X022310Y002630D02*
X021697Y002630D01*
X021703Y002639D02*
X022304Y002639D01*
X022299Y002647D02*
X021708Y002647D01*
X021714Y002656D02*
X022294Y002656D01*
X022289Y002664D02*
X021719Y002664D01*
X021724Y002673D02*
X022284Y002673D01*
X022278Y002681D02*
X021730Y002681D01*
X021735Y002690D02*
X022273Y002690D01*
X022268Y002698D02*
X021741Y002698D01*
X021746Y002707D02*
X022263Y002707D01*
X022258Y002715D02*
X021751Y002715D01*
X021757Y002724D02*
X022252Y002724D01*
X022247Y002732D02*
X021762Y002732D01*
X021768Y002741D02*
X022242Y002741D01*
X022237Y002749D02*
X021773Y002749D01*
X021778Y002758D02*
X022232Y002758D01*
X022230Y002760D02*
X022610Y002140D01*
X022000Y002540D01*
X021380Y002130D01*
X021780Y002760D01*
X021400Y003370D01*
X022000Y002980D01*
X022610Y003360D01*
X022230Y002760D01*
X022234Y002766D02*
X021776Y002766D01*
X021771Y002775D02*
X022239Y002775D01*
X022245Y002783D02*
X021766Y002783D01*
X021760Y002792D02*
X022250Y002792D01*
X022255Y002800D02*
X021755Y002800D01*
X021750Y002809D02*
X022261Y002809D01*
X022266Y002817D02*
X021744Y002817D01*
X021739Y002826D02*
X022272Y002826D01*
X022277Y002834D02*
X021734Y002834D01*
X021729Y002843D02*
X022282Y002843D01*
X022288Y002851D02*
X021723Y002851D01*
X021718Y002860D02*
X022293Y002860D01*
X022298Y002868D02*
X021713Y002868D01*
X021707Y002877D02*
X022304Y002877D01*
X022309Y002885D02*
X021702Y002885D01*
X021697Y002894D02*
X022315Y002894D01*
X022320Y002902D02*
X021692Y002902D01*
X021686Y002911D02*
X022325Y002911D01*
X022331Y002919D02*
X021681Y002919D01*
X021676Y002928D02*
X022336Y002928D01*
X022342Y002936D02*
X021670Y002936D01*
X021665Y002945D02*
X022347Y002945D01*
X022352Y002953D02*
X021660Y002953D01*
X021654Y002962D02*
X022358Y002962D01*
X022363Y002970D02*
X021649Y002970D01*
X021644Y002979D02*
X022368Y002979D01*
X022374Y002987D02*
X022011Y002987D01*
X022025Y002996D02*
X022379Y002996D01*
X022385Y003004D02*
X022039Y003004D01*
X022052Y003013D02*
X022390Y003013D01*
X022395Y003021D02*
X022066Y003021D01*
X022080Y003030D02*
X022401Y003030D01*
X022406Y003038D02*
X022093Y003038D01*
X022107Y003047D02*
X022411Y003047D01*
X022417Y003055D02*
X022120Y003055D01*
X022134Y003064D02*
X022422Y003064D01*
X022428Y003072D02*
X022148Y003072D01*
X022161Y003081D02*
X022433Y003081D01*
X022438Y003089D02*
X022175Y003089D01*
X022189Y003098D02*
X022444Y003098D01*
X022449Y003106D02*
X022202Y003106D01*
X022216Y003115D02*
X022455Y003115D01*
X022460Y003123D02*
X022230Y003123D01*
X022243Y003132D02*
X022465Y003132D01*
X022471Y003140D02*
X022257Y003140D01*
X022271Y003149D02*
X022476Y003149D01*
X022481Y003157D02*
X022284Y003157D01*
X022298Y003166D02*
X022487Y003166D01*
X022492Y003174D02*
X022312Y003174D01*
X022325Y003183D02*
X022498Y003183D01*
X022503Y003191D02*
X022339Y003191D01*
X022352Y003200D02*
X022508Y003200D01*
X022514Y003208D02*
X022366Y003208D01*
X022380Y003217D02*
X022519Y003217D01*
X022525Y003225D02*
X022393Y003225D01*
X022407Y003234D02*
X022530Y003234D01*
X022535Y003242D02*
X022421Y003242D01*
X022434Y003251D02*
X022541Y003251D01*
X022546Y003259D02*
X022448Y003259D01*
X022462Y003268D02*
X022551Y003268D01*
X022557Y003276D02*
X022475Y003276D01*
X022489Y003285D02*
X022562Y003285D01*
X022568Y003293D02*
X022503Y003293D01*
X022516Y003302D02*
X022573Y003302D01*
X022578Y003310D02*
X022530Y003310D01*
X022543Y003319D02*
X022584Y003319D01*
X022589Y003327D02*
X022557Y003327D01*
X022571Y003336D02*
X022595Y003336D01*
X022600Y003344D02*
X022584Y003344D01*
X022598Y003353D02*
X022605Y003353D01*
X022502Y002834D02*
X022409Y002834D01*
X022404Y002826D02*
X022545Y002826D01*
X022588Y002817D02*
X022398Y002817D01*
X022392Y002809D02*
X022632Y002809D01*
X022675Y002800D02*
X022387Y002800D01*
X022381Y002792D02*
X022719Y002792D01*
X022762Y002783D02*
X022375Y002783D01*
X022370Y002775D02*
X022806Y002775D01*
X022824Y002749D02*
X022367Y002749D01*
X022362Y002758D02*
X022867Y002758D01*
X022880Y002760D02*
X022420Y002850D01*
X022360Y002760D01*
X022420Y002670D01*
X022880Y002760D01*
X022849Y002766D02*
X022364Y002766D01*
X022373Y002741D02*
X022781Y002741D01*
X022737Y002732D02*
X022379Y002732D01*
X022384Y002724D02*
X022694Y002724D01*
X022650Y002715D02*
X022390Y002715D01*
X022396Y002707D02*
X022607Y002707D01*
X022563Y002698D02*
X022401Y002698D01*
X022407Y002690D02*
X022520Y002690D01*
X022476Y002681D02*
X022413Y002681D01*
X022418Y002673D02*
X022433Y002673D01*
X022330Y002596D02*
X021676Y002596D01*
X021671Y002588D02*
X022336Y002588D01*
X022341Y002579D02*
X021665Y002579D01*
X021660Y002571D02*
X022346Y002571D01*
X022351Y002562D02*
X021654Y002562D01*
X021649Y002554D02*
X022357Y002554D01*
X022362Y002545D02*
X021644Y002545D01*
X021638Y002537D02*
X021995Y002537D01*
X022005Y002537D02*
X022367Y002537D01*
X022372Y002528D02*
X022018Y002528D01*
X022031Y002520D02*
X022377Y002520D01*
X022383Y002511D02*
X022044Y002511D01*
X022057Y002503D02*
X022388Y002503D01*
X022393Y002494D02*
X022070Y002494D01*
X022083Y002486D02*
X022398Y002486D01*
X022403Y002477D02*
X022096Y002477D01*
X022109Y002469D02*
X022409Y002469D01*
X022414Y002460D02*
X022122Y002460D01*
X022135Y002452D02*
X022419Y002452D01*
X022424Y002443D02*
X022148Y002443D01*
X022161Y002435D02*
X022429Y002435D01*
X022435Y002426D02*
X022174Y002426D01*
X022187Y002418D02*
X022440Y002418D01*
X022445Y002409D02*
X022200Y002409D01*
X022213Y002401D02*
X022450Y002401D01*
X022456Y002392D02*
X022226Y002392D01*
X022239Y002384D02*
X022461Y002384D01*
X022466Y002375D02*
X022252Y002375D01*
X022265Y002367D02*
X022471Y002367D01*
X022476Y002358D02*
X022277Y002358D01*
X022290Y002350D02*
X022482Y002350D01*
X022487Y002341D02*
X022303Y002341D01*
X022316Y002333D02*
X022492Y002333D01*
X022497Y002324D02*
X022329Y002324D01*
X022342Y002316D02*
X022502Y002316D01*
X022508Y002307D02*
X022355Y002307D01*
X022368Y002299D02*
X022513Y002299D01*
X022518Y002290D02*
X022381Y002290D01*
X022394Y002282D02*
X022523Y002282D01*
X022528Y002273D02*
X022407Y002273D01*
X022420Y002265D02*
X022534Y002265D01*
X022539Y002256D02*
X022433Y002256D01*
X022446Y002248D02*
X022544Y002248D01*
X022549Y002239D02*
X022459Y002239D01*
X022472Y002231D02*
X022555Y002231D01*
X022560Y002222D02*
X022485Y002222D01*
X022498Y002214D02*
X022565Y002214D01*
X022570Y002205D02*
X022511Y002205D01*
X022524Y002197D02*
X022575Y002197D01*
X022581Y002188D02*
X022537Y002188D01*
X022550Y002180D02*
X022586Y002180D01*
X022591Y002171D02*
X022563Y002171D01*
X022576Y002163D02*
X022596Y002163D01*
X022601Y002154D02*
X022589Y002154D01*
X022602Y002146D02*
X022607Y002146D01*
X022087Y002265D02*
X021913Y002265D01*
X021911Y002273D02*
X022089Y002273D01*
X022091Y002282D02*
X021909Y002282D01*
X021907Y002290D02*
X022093Y002290D01*
X022095Y002299D02*
X021905Y002299D01*
X021903Y002307D02*
X022097Y002307D01*
X022099Y002316D02*
X021901Y002316D01*
X021900Y002320D02*
X022000Y002390D01*
X022100Y002320D01*
X022000Y001880D01*
X021900Y002320D01*
X021906Y002324D02*
X022094Y002324D01*
X022082Y002333D02*
X021918Y002333D01*
X021930Y002341D02*
X022070Y002341D01*
X022058Y002350D02*
X021942Y002350D01*
X021954Y002358D02*
X022046Y002358D01*
X022034Y002367D02*
X021966Y002367D01*
X021979Y002375D02*
X022021Y002375D01*
X022009Y002384D02*
X021991Y002384D01*
X021918Y002486D02*
X021606Y002486D01*
X021611Y002494D02*
X021931Y002494D01*
X021943Y002503D02*
X021617Y002503D01*
X021622Y002511D02*
X021956Y002511D01*
X021969Y002520D02*
X021627Y002520D01*
X021633Y002528D02*
X021982Y002528D01*
X021905Y002477D02*
X021600Y002477D01*
X021595Y002469D02*
X021892Y002469D01*
X021879Y002460D02*
X021590Y002460D01*
X021584Y002452D02*
X021866Y002452D01*
X021853Y002443D02*
X021579Y002443D01*
X021573Y002435D02*
X021841Y002435D01*
X021828Y002426D02*
X021568Y002426D01*
X021563Y002418D02*
X021815Y002418D01*
X021802Y002409D02*
X021557Y002409D01*
X021552Y002401D02*
X021789Y002401D01*
X021776Y002392D02*
X021546Y002392D01*
X021541Y002384D02*
X021763Y002384D01*
X021751Y002375D02*
X021536Y002375D01*
X021530Y002367D02*
X021738Y002367D01*
X021725Y002358D02*
X021525Y002358D01*
X021519Y002350D02*
X021712Y002350D01*
X021699Y002341D02*
X021514Y002341D01*
X021509Y002333D02*
X021686Y002333D01*
X021673Y002324D02*
X021503Y002324D01*
X021498Y002316D02*
X021661Y002316D01*
X021648Y002307D02*
X021492Y002307D01*
X021487Y002299D02*
X021635Y002299D01*
X021622Y002290D02*
X021482Y002290D01*
X021476Y002282D02*
X021609Y002282D01*
X021596Y002273D02*
X021471Y002273D01*
X021465Y002265D02*
X021583Y002265D01*
X021571Y002256D02*
X021460Y002256D01*
X021455Y002248D02*
X021558Y002248D01*
X021545Y002239D02*
X021449Y002239D01*
X021444Y002231D02*
X021532Y002231D01*
X021519Y002222D02*
X021438Y002222D01*
X021433Y002214D02*
X021506Y002214D01*
X021493Y002205D02*
X021428Y002205D01*
X021422Y002197D02*
X021481Y002197D01*
X021468Y002188D02*
X021417Y002188D01*
X021411Y002180D02*
X021455Y002180D01*
X021442Y002171D02*
X021406Y002171D01*
X021401Y002163D02*
X021429Y002163D01*
X021416Y002154D02*
X021395Y002154D01*
X021390Y002146D02*
X021403Y002146D01*
X021391Y002137D02*
X021384Y002137D01*
X021915Y002256D02*
X022085Y002256D01*
X022084Y002248D02*
X021916Y002248D01*
X021918Y002239D02*
X022082Y002239D01*
X022080Y002231D02*
X021920Y002231D01*
X021922Y002222D02*
X022078Y002222D01*
X022076Y002214D02*
X021924Y002214D01*
X021926Y002205D02*
X022074Y002205D01*
X022072Y002197D02*
X021928Y002197D01*
X021930Y002188D02*
X022070Y002188D01*
X022068Y002180D02*
X021932Y002180D01*
X021934Y002171D02*
X022066Y002171D01*
X022064Y002163D02*
X021936Y002163D01*
X021938Y002154D02*
X022062Y002154D01*
X022060Y002146D02*
X021940Y002146D01*
X021942Y002137D02*
X022058Y002137D01*
X022056Y002129D02*
X021944Y002129D01*
X021945Y002120D02*
X022055Y002120D01*
X022053Y002112D02*
X021947Y002112D01*
X021949Y002103D02*
X022051Y002103D01*
X022049Y002095D02*
X021951Y002095D01*
X021953Y002086D02*
X022047Y002086D01*
X022045Y002078D02*
X021955Y002078D01*
X021957Y002069D02*
X022043Y002069D01*
X022041Y002061D02*
X021959Y002061D01*
X021961Y002052D02*
X022039Y002052D01*
X022037Y002044D02*
X021963Y002044D01*
X021965Y002035D02*
X022035Y002035D01*
X022033Y002027D02*
X021967Y002027D01*
X021969Y002018D02*
X022031Y002018D01*
X022029Y002010D02*
X021971Y002010D01*
X021972Y002001D02*
X022028Y002001D01*
X022026Y001993D02*
X021974Y001993D01*
X021976Y001984D02*
X022024Y001984D01*
X022022Y001976D02*
X021978Y001976D01*
X021980Y001967D02*
X022020Y001967D01*
X022018Y001959D02*
X021982Y001959D01*
X021984Y001950D02*
X022016Y001950D01*
X022014Y001942D02*
X021986Y001942D01*
X021988Y001933D02*
X022012Y001933D01*
X022010Y001925D02*
X021990Y001925D01*
X021992Y001916D02*
X022008Y001916D01*
X022006Y001908D02*
X021994Y001908D01*
X021996Y001899D02*
X022004Y001899D01*
X022002Y001891D02*
X021998Y001891D01*
X022000Y001882D02*
X022000Y001882D01*
X022415Y002843D02*
X022458Y002843D01*
X022100Y003180D02*
X022000Y003120D01*
X021900Y003180D01*
X022000Y003640D01*
X022100Y003180D01*
X022099Y003183D02*
X021901Y003183D01*
X021902Y003191D02*
X022098Y003191D01*
X022096Y003200D02*
X021904Y003200D01*
X021906Y003208D02*
X022094Y003208D01*
X022092Y003217D02*
X021908Y003217D01*
X021910Y003225D02*
X022090Y003225D01*
X022088Y003234D02*
X021912Y003234D01*
X021913Y003242D02*
X022087Y003242D01*
X022085Y003251D02*
X021915Y003251D01*
X021917Y003259D02*
X022083Y003259D01*
X022081Y003268D02*
X021919Y003268D01*
X021921Y003276D02*
X022079Y003276D01*
X022077Y003285D02*
X021923Y003285D01*
X021925Y003293D02*
X022075Y003293D01*
X022074Y003302D02*
X021926Y003302D01*
X021928Y003310D02*
X022072Y003310D01*
X022070Y003319D02*
X021930Y003319D01*
X021932Y003327D02*
X022068Y003327D01*
X022066Y003336D02*
X021934Y003336D01*
X021936Y003344D02*
X022064Y003344D01*
X022062Y003353D02*
X021938Y003353D01*
X021939Y003361D02*
X022061Y003361D01*
X022059Y003370D02*
X021941Y003370D01*
X021943Y003378D02*
X022057Y003378D01*
X022055Y003387D02*
X021945Y003387D01*
X021947Y003395D02*
X022053Y003395D01*
X022051Y003404D02*
X021949Y003404D01*
X021950Y003412D02*
X022050Y003412D01*
X022048Y003421D02*
X021952Y003421D01*
X021954Y003429D02*
X022046Y003429D01*
X022044Y003438D02*
X021956Y003438D01*
X021958Y003446D02*
X022042Y003446D01*
X022040Y003455D02*
X021960Y003455D01*
X021962Y003463D02*
X022038Y003463D01*
X022037Y003472D02*
X021963Y003472D01*
X021965Y003480D02*
X022035Y003480D01*
X022033Y003489D02*
X021967Y003489D01*
X021969Y003497D02*
X022031Y003497D01*
X022029Y003506D02*
X021971Y003506D01*
X021973Y003514D02*
X022027Y003514D01*
X022026Y003523D02*
X021974Y003523D01*
X021976Y003531D02*
X022024Y003531D01*
X022022Y003540D02*
X021978Y003540D01*
X021980Y003548D02*
X022020Y003548D01*
X022018Y003557D02*
X021982Y003557D01*
X021984Y003565D02*
X022016Y003565D01*
X022014Y003574D02*
X021986Y003574D01*
X021987Y003582D02*
X022013Y003582D01*
X022011Y003591D02*
X021989Y003591D01*
X021991Y003599D02*
X022009Y003599D01*
X022007Y003608D02*
X021993Y003608D01*
X021995Y003616D02*
X022005Y003616D01*
X022003Y003625D02*
X021997Y003625D01*
X021998Y003633D02*
X022002Y003633D01*
X021597Y003242D02*
X021480Y003242D01*
X021485Y003234D02*
X021610Y003234D01*
X021623Y003225D02*
X021490Y003225D01*
X021496Y003217D02*
X021636Y003217D01*
X021649Y003208D02*
X021501Y003208D01*
X021506Y003200D02*
X021662Y003200D01*
X021675Y003191D02*
X021511Y003191D01*
X021517Y003183D02*
X021688Y003183D01*
X021701Y003174D02*
X021522Y003174D01*
X021527Y003166D02*
X021715Y003166D01*
X021728Y003157D02*
X021533Y003157D01*
X021538Y003149D02*
X021741Y003149D01*
X021754Y003140D02*
X021543Y003140D01*
X021549Y003132D02*
X021767Y003132D01*
X021780Y003123D02*
X021554Y003123D01*
X021559Y003115D02*
X021793Y003115D01*
X021806Y003106D02*
X021564Y003106D01*
X021570Y003098D02*
X021819Y003098D01*
X021832Y003089D02*
X021575Y003089D01*
X021580Y003081D02*
X021845Y003081D01*
X021858Y003072D02*
X021586Y003072D01*
X021591Y003064D02*
X021871Y003064D01*
X021885Y003055D02*
X021596Y003055D01*
X021601Y003047D02*
X021898Y003047D01*
X021911Y003038D02*
X021607Y003038D01*
X021612Y003030D02*
X021924Y003030D01*
X021937Y003021D02*
X021617Y003021D01*
X021623Y003013D02*
X021950Y003013D01*
X021963Y003004D02*
X021628Y003004D01*
X021633Y002996D02*
X021976Y002996D01*
X021989Y002987D02*
X021639Y002987D01*
X021910Y003174D02*
X022090Y003174D01*
X022076Y003166D02*
X021924Y003166D01*
X021938Y003157D02*
X022062Y003157D01*
X022048Y003149D02*
X021952Y003149D01*
X021967Y003140D02*
X022033Y003140D01*
X022019Y003132D02*
X021981Y003132D01*
X021995Y003123D02*
X022005Y003123D01*
X021584Y003251D02*
X021474Y003251D01*
X021469Y003259D02*
X021571Y003259D01*
X021558Y003268D02*
X021464Y003268D01*
X021459Y003276D02*
X021545Y003276D01*
X021531Y003285D02*
X021453Y003285D01*
X021448Y003293D02*
X021518Y003293D01*
X021505Y003302D02*
X021443Y003302D01*
X021437Y003310D02*
X021492Y003310D01*
X021479Y003319D02*
X021432Y003319D01*
X021427Y003327D02*
X021466Y003327D01*
X021453Y003336D02*
X021421Y003336D01*
X021416Y003344D02*
X021440Y003344D01*
X021427Y003353D02*
X021411Y003353D01*
X021414Y003361D02*
X021406Y003361D01*
X021400Y003370D02*
X021401Y003370D01*
D11*
X016594Y004213D03*
X016397Y004213D03*
X016200Y004213D03*
X016003Y004213D03*
X015806Y004213D03*
X015806Y005787D03*
X016003Y005787D03*
X016200Y005787D03*
X016397Y005787D03*
X016594Y005787D03*
D12*
X016987Y005394D03*
X016987Y005197D03*
X016987Y005000D03*
X016987Y004803D03*
X016987Y004606D03*
X015413Y004606D03*
X015413Y004803D03*
X015413Y005000D03*
X015413Y005197D03*
X015413Y005394D03*
D13*
X016200Y005000D03*
D14*
X010844Y005331D03*
X010647Y005331D03*
X010450Y005331D03*
X010253Y005331D03*
X010056Y005331D03*
X010056Y004169D03*
X010253Y004169D03*
X010450Y004169D03*
X010647Y004169D03*
X010844Y004169D03*
D15*
X010450Y004750D03*
D16*
X009859Y004652D03*
X009859Y004848D03*
X011041Y004848D03*
X011041Y004652D03*
D17*
X010591Y002700D03*
X009409Y002700D03*
D18*
X011600Y003894D03*
X012150Y003894D03*
X012150Y004406D03*
X011600Y004406D03*
X011280Y005924D03*
X011280Y006436D03*
X009330Y005976D03*
X008890Y005976D03*
X008440Y005976D03*
X008440Y005464D03*
X008890Y005464D03*
X009330Y005464D03*
X015000Y003256D03*
X015500Y003256D03*
X016000Y003256D03*
X016500Y003256D03*
X017000Y003256D03*
X017500Y003256D03*
X017500Y002744D03*
X017000Y002744D03*
X016500Y002744D03*
X016000Y002744D03*
X015500Y002744D03*
X015000Y002744D03*
X017500Y004344D03*
X017500Y004856D03*
D19*
X016956Y006400D03*
X016444Y006400D03*
X015756Y006400D03*
X015244Y006400D03*
X010816Y006810D03*
X010304Y006810D03*
X017004Y002220D03*
X017516Y002220D03*
D20*
X013554Y004050D03*
X012846Y004050D03*
D21*
X007394Y004057D03*
X006606Y004057D03*
D22*
X005661Y002009D03*
X008339Y002009D03*
D23*
X004600Y002149D03*
X004600Y003251D03*
D24*
X018649Y004500D03*
X019751Y004500D03*
D25*
X009300Y004851D03*
X009300Y003749D03*
D26*
X018888Y003053D03*
X019144Y003053D03*
X019400Y003053D03*
X019656Y003053D03*
X019912Y003053D03*
D27*
X019794Y002000D03*
X019006Y002004D03*
D28*
X018632Y002827D03*
X020168Y002827D03*
D29*
X020493Y002218D02*
X020493Y001782D01*
X018307Y001782D02*
X018307Y002218D01*
D30*
X010697Y006120D03*
X010343Y006120D03*
D31*
X012669Y005300D03*
X013200Y005300D03*
X013712Y005300D03*
M02*
