G75*
%MOIN*%
%OFA0B0*%
%FSLAX24Y24*%
%IPPOS*%
%LPD*%
%AMOC8*
5,1,8,0,0,1.08239X$1,22.5*
%
%ADD10R,0.0118X0.0295*%
%ADD11R,0.0295X0.0118*%
%ADD12R,0.0984X0.0984*%
%ADD13R,0.0117X0.0335*%
%ADD14R,0.0945X0.0650*%
%ADD15R,0.0276X0.0110*%
%ADD16R,0.0512X0.0512*%
%ADD17R,0.0354X0.0276*%
%ADD18R,0.0276X0.0354*%
%ADD19R,0.0315X0.0472*%
%ADD20R,0.0394X0.1811*%
%ADD21R,0.0630X0.1339*%
%ADD22R,0.0630X0.0551*%
%ADD23R,0.0551X0.0630*%
%ADD24R,0.0709X0.0630*%
%ADD25R,0.0157X0.0531*%
%ADD26R,0.0591X0.0748*%
%ADD27C,0.0437*%
%ADD28R,0.0250X0.0500*%
%ADD29R,0.0315X0.0866*%
%ADD30C,0.0010*%
%ADD31C,0.0080*%
%ADD32C,0.0320*%
%ADD33C,0.0120*%
%ADD34C,0.0320*%
%ADD35C,0.0160*%
%ADD36C,0.0318*%
%ADD37C,0.0100*%
%ADD38C,0.0060*%
%ADD39C,0.0436*%
%ADD40C,0.0400*%
D10*
X015806Y004213D03*
X016003Y004213D03*
X016200Y004213D03*
X016397Y004213D03*
X016594Y004213D03*
X016594Y005787D03*
X016397Y005787D03*
X016200Y005787D03*
X016003Y005787D03*
X015806Y005787D03*
D11*
X015413Y005394D03*
X015413Y005197D03*
X015413Y005000D03*
X015413Y004803D03*
X015413Y004606D03*
X016987Y004606D03*
X016987Y004803D03*
X016987Y005000D03*
X016987Y005197D03*
X016987Y005394D03*
D12*
X016200Y005000D03*
D13*
X010844Y005331D03*
X010647Y005331D03*
X010450Y005331D03*
X010253Y005331D03*
X010056Y005331D03*
X010056Y004169D03*
X010253Y004169D03*
X010450Y004169D03*
X010647Y004169D03*
X010844Y004169D03*
D14*
X010450Y004750D03*
D15*
X011041Y004652D03*
X011041Y004848D03*
X009859Y004848D03*
X009859Y004652D03*
D16*
X009409Y002700D03*
X010591Y002700D03*
D17*
X011600Y003894D03*
X012150Y003894D03*
X012150Y004406D03*
X011600Y004406D03*
X008980Y005464D03*
X008440Y005464D03*
X008440Y005976D03*
X008980Y005976D03*
X011280Y005924D03*
X011280Y006436D03*
X014550Y004206D03*
X014550Y003694D03*
X014650Y002956D03*
X015150Y002956D03*
X015650Y002956D03*
X016150Y002956D03*
X016650Y002956D03*
X017550Y002956D03*
X017550Y002444D03*
X016650Y002444D03*
X016150Y002444D03*
X015650Y002444D03*
X015150Y002444D03*
X014650Y002444D03*
X017500Y004344D03*
X017500Y004856D03*
D18*
X016956Y006400D03*
X016444Y006400D03*
X015756Y006400D03*
X015244Y006400D03*
X010816Y006810D03*
X010304Y006810D03*
X015954Y001920D03*
X016466Y001920D03*
D19*
X013554Y004050D03*
X012846Y004050D03*
D20*
X007394Y004057D03*
X006606Y004057D03*
D21*
X005661Y002009D03*
X008339Y002009D03*
D22*
X004750Y002599D03*
X004750Y003701D03*
D23*
X018649Y004500D03*
X019751Y004500D03*
D24*
X009300Y004851D03*
X009300Y003749D03*
D25*
X018888Y002903D03*
X019144Y002903D03*
X019400Y002903D03*
X019656Y002903D03*
X019912Y002903D03*
D26*
X019006Y001854D03*
X019794Y001850D03*
D27*
X020493Y001632D02*
X020493Y002068D01*
X018307Y002068D02*
X018307Y001632D01*
D28*
X017327Y001700D03*
X016973Y001700D03*
X010697Y006120D03*
X010343Y006120D03*
D29*
X012669Y005300D03*
X013200Y005300D03*
X013712Y005300D03*
D30*
X016350Y005650D02*
X016350Y006143D01*
X016365Y006158D01*
X016609Y006158D01*
X016647Y006196D01*
X016647Y006200D01*
X016753Y006200D01*
X016753Y006196D01*
X016791Y006158D01*
X017121Y006158D01*
X017159Y006196D01*
X017159Y006200D01*
X017600Y006200D01*
X017600Y005450D01*
X016850Y005450D01*
X016850Y005650D01*
X016350Y005650D01*
X016350Y005656D02*
X017600Y005656D01*
X017600Y005648D02*
X016850Y005648D01*
X016850Y005639D02*
X017600Y005639D01*
X017600Y005631D02*
X016850Y005631D01*
X016850Y005622D02*
X017600Y005622D01*
X017600Y005614D02*
X016850Y005614D01*
X016850Y005605D02*
X017600Y005605D01*
X017600Y005597D02*
X016850Y005597D01*
X016850Y005588D02*
X017600Y005588D01*
X017600Y005580D02*
X016850Y005580D01*
X016850Y005571D02*
X017600Y005571D01*
X017600Y005563D02*
X016850Y005563D01*
X016850Y005554D02*
X017600Y005554D01*
X017600Y005546D02*
X016850Y005546D01*
X016850Y005537D02*
X017600Y005537D01*
X017600Y005529D02*
X016850Y005529D01*
X016850Y005520D02*
X017600Y005520D01*
X017600Y005512D02*
X016850Y005512D01*
X016850Y005503D02*
X017600Y005503D01*
X017600Y005495D02*
X016850Y005495D01*
X016850Y005486D02*
X017600Y005486D01*
X017600Y005478D02*
X016850Y005478D01*
X016850Y005469D02*
X017600Y005469D01*
X017600Y005461D02*
X016850Y005461D01*
X016850Y005452D02*
X017600Y005452D01*
X017600Y005665D02*
X016350Y005665D01*
X016350Y005673D02*
X017600Y005673D01*
X017600Y005682D02*
X016350Y005682D01*
X016350Y005690D02*
X017600Y005690D01*
X017600Y005699D02*
X016350Y005699D01*
X016350Y005707D02*
X017600Y005707D01*
X017600Y005716D02*
X016350Y005716D01*
X016350Y005724D02*
X017600Y005724D01*
X017600Y005733D02*
X016350Y005733D01*
X016350Y005741D02*
X017600Y005741D01*
X017600Y005750D02*
X016350Y005750D01*
X016350Y005758D02*
X017600Y005758D01*
X017600Y005767D02*
X016350Y005767D01*
X016350Y005775D02*
X017600Y005775D01*
X017600Y005784D02*
X016350Y005784D01*
X016350Y005792D02*
X017600Y005792D01*
X017600Y005801D02*
X016350Y005801D01*
X016350Y005809D02*
X017600Y005809D01*
X017600Y005818D02*
X016350Y005818D01*
X016350Y005826D02*
X017600Y005826D01*
X017600Y005835D02*
X016350Y005835D01*
X016350Y005843D02*
X017600Y005843D01*
X017600Y005852D02*
X016350Y005852D01*
X016350Y005860D02*
X017600Y005860D01*
X017600Y005869D02*
X016350Y005869D01*
X016350Y005877D02*
X017600Y005877D01*
X017600Y005886D02*
X016350Y005886D01*
X016350Y005894D02*
X017600Y005894D01*
X017600Y005903D02*
X016350Y005903D01*
X016350Y005911D02*
X017600Y005911D01*
X017600Y005920D02*
X016350Y005920D01*
X016350Y005928D02*
X017600Y005928D01*
X017600Y005937D02*
X016350Y005937D01*
X016350Y005945D02*
X017600Y005945D01*
X017600Y005954D02*
X016350Y005954D01*
X016350Y005962D02*
X017600Y005962D01*
X017600Y005971D02*
X016350Y005971D01*
X016350Y005979D02*
X017600Y005979D01*
X017600Y005988D02*
X016350Y005988D01*
X016350Y005996D02*
X017600Y005996D01*
X017600Y006005D02*
X016350Y006005D01*
X016350Y006013D02*
X017600Y006013D01*
X017600Y006022D02*
X016350Y006022D01*
X016350Y006030D02*
X017600Y006030D01*
X017600Y006039D02*
X016350Y006039D01*
X016350Y006047D02*
X017600Y006047D01*
X017600Y006056D02*
X016350Y006056D01*
X016350Y006064D02*
X017600Y006064D01*
X017600Y006073D02*
X016350Y006073D01*
X016350Y006081D02*
X017600Y006081D01*
X017600Y006090D02*
X016350Y006090D01*
X016350Y006098D02*
X017600Y006098D01*
X017600Y006107D02*
X016350Y006107D01*
X016350Y006115D02*
X017600Y006115D01*
X017600Y006124D02*
X016350Y006124D01*
X016350Y006132D02*
X017600Y006132D01*
X017600Y006141D02*
X016350Y006141D01*
X016356Y006149D02*
X017600Y006149D01*
X017600Y006158D02*
X016364Y006158D01*
X016617Y006166D02*
X016783Y006166D01*
X016774Y006175D02*
X016626Y006175D01*
X016634Y006183D02*
X016766Y006183D01*
X016757Y006192D02*
X016643Y006192D01*
X017129Y006166D02*
X017600Y006166D01*
X017600Y006175D02*
X017137Y006175D01*
X017146Y006183D02*
X017600Y006183D01*
X017600Y006192D02*
X017154Y006192D01*
X017192Y005300D02*
X019853Y005300D01*
X020082Y005055D01*
X020311Y004744D01*
X020314Y004740D01*
X020338Y004705D01*
X020339Y004705D01*
X020420Y004592D01*
X020697Y004361D01*
X020700Y004360D01*
X020700Y003223D01*
X020698Y003223D01*
X020689Y003211D01*
X020677Y003202D01*
X020674Y003187D01*
X020666Y003174D01*
X019800Y003174D01*
X019800Y003166D02*
X020667Y003166D01*
X020669Y003160D02*
X020666Y003146D01*
X020674Y003133D01*
X020677Y003118D01*
X020689Y003109D01*
X020698Y003097D01*
X020700Y003097D01*
X020700Y002800D01*
X020360Y002800D01*
X020260Y002900D01*
X020075Y002900D01*
X019975Y002800D01*
X019800Y002800D01*
X019800Y003337D01*
X019879Y003416D01*
X020033Y003416D01*
X020164Y003547D01*
X020164Y003733D01*
X020033Y003864D01*
X019847Y003864D01*
X019716Y003733D01*
X019716Y003579D01*
X019541Y003404D01*
X019515Y003404D01*
X019515Y003400D02*
X019515Y003478D01*
X019644Y003607D01*
X019644Y003793D01*
X019513Y003924D01*
X019327Y003924D01*
X019196Y003793D01*
X019196Y003607D01*
X019285Y003518D01*
X019285Y003400D01*
X019013Y003400D01*
X019013Y003725D01*
X019095Y003807D01*
X019095Y003993D01*
X019013Y004075D01*
X019013Y004275D01*
X019263Y004275D01*
X019395Y004407D01*
X019395Y004593D01*
X019263Y004725D01*
X018989Y004725D01*
X018989Y004842D01*
X018951Y004880D01*
X018346Y004880D01*
X018308Y004842D01*
X018308Y004158D01*
X018346Y004120D01*
X018763Y004120D01*
X018763Y004111D01*
X018645Y003993D01*
X018645Y003807D01*
X018763Y003689D01*
X018763Y003400D01*
X017800Y003400D01*
X017800Y004800D01*
X016800Y004800D01*
X016800Y005282D01*
X016800Y005282D01*
X016813Y005270D01*
X016935Y005270D01*
X016936Y005269D01*
X017039Y005269D01*
X017040Y005270D01*
X017162Y005270D01*
X017192Y005300D01*
X017191Y005299D02*
X019854Y005299D01*
X019862Y005291D02*
X017183Y005291D01*
X017174Y005282D02*
X019870Y005282D01*
X019878Y005274D02*
X017166Y005274D01*
X016809Y005274D02*
X016800Y005274D01*
X016800Y005265D02*
X019886Y005265D01*
X019893Y005257D02*
X016800Y005257D01*
X016800Y005248D02*
X019901Y005248D01*
X019909Y005240D02*
X016800Y005240D01*
X016800Y005231D02*
X019917Y005231D01*
X019925Y005223D02*
X016800Y005223D01*
X016800Y005214D02*
X019933Y005214D01*
X019941Y005206D02*
X016800Y005206D01*
X016800Y005197D02*
X019949Y005197D01*
X019957Y005189D02*
X016800Y005189D01*
X016800Y005180D02*
X019965Y005180D01*
X019973Y005172D02*
X016800Y005172D01*
X016800Y005163D02*
X019981Y005163D01*
X019989Y005155D02*
X016800Y005155D01*
X016800Y005146D02*
X019997Y005146D01*
X020005Y005138D02*
X016800Y005138D01*
X016800Y005129D02*
X020012Y005129D01*
X020020Y005121D02*
X016800Y005121D01*
X016800Y005112D02*
X020028Y005112D01*
X020036Y005104D02*
X016800Y005104D01*
X016800Y005095D02*
X020044Y005095D01*
X020052Y005087D02*
X016800Y005087D01*
X016800Y005078D02*
X020060Y005078D01*
X020068Y005070D02*
X016800Y005070D01*
X016800Y005061D02*
X020076Y005061D01*
X020083Y005053D02*
X016800Y005053D01*
X016800Y005044D02*
X020090Y005044D01*
X020096Y005036D02*
X016800Y005036D01*
X016800Y005027D02*
X020102Y005027D01*
X020108Y005019D02*
X016800Y005019D01*
X016800Y005010D02*
X020115Y005010D01*
X020121Y005002D02*
X016800Y005002D01*
X016800Y004993D02*
X020127Y004993D01*
X020133Y004985D02*
X016800Y004985D01*
X016800Y004976D02*
X020140Y004976D01*
X020146Y004968D02*
X016800Y004968D01*
X016800Y004959D02*
X020152Y004959D01*
X020159Y004951D02*
X016800Y004951D01*
X016800Y004942D02*
X020165Y004942D01*
X020171Y004934D02*
X016800Y004934D01*
X016800Y004925D02*
X020177Y004925D01*
X020184Y004917D02*
X016800Y004917D01*
X016800Y004908D02*
X020190Y004908D01*
X020196Y004900D02*
X016800Y004900D01*
X016800Y004891D02*
X020202Y004891D01*
X020209Y004883D02*
X016800Y004883D01*
X016800Y004874D02*
X018340Y004874D01*
X018332Y004866D02*
X016800Y004866D01*
X016800Y004857D02*
X018323Y004857D01*
X018315Y004849D02*
X016800Y004849D01*
X016800Y004840D02*
X018308Y004840D01*
X018308Y004832D02*
X016800Y004832D01*
X016800Y004823D02*
X018308Y004823D01*
X018308Y004815D02*
X016800Y004815D01*
X016800Y004806D02*
X018308Y004806D01*
X018308Y004798D02*
X017800Y004798D01*
X017800Y004789D02*
X018308Y004789D01*
X018308Y004781D02*
X017800Y004781D01*
X017800Y004772D02*
X018308Y004772D01*
X018308Y004764D02*
X017800Y004764D01*
X017800Y004755D02*
X018308Y004755D01*
X018308Y004747D02*
X017800Y004747D01*
X017800Y004738D02*
X018308Y004738D01*
X018308Y004730D02*
X017800Y004730D01*
X017800Y004721D02*
X018308Y004721D01*
X018308Y004713D02*
X017800Y004713D01*
X017800Y004704D02*
X018308Y004704D01*
X018308Y004696D02*
X017800Y004696D01*
X017800Y004687D02*
X018308Y004687D01*
X018308Y004679D02*
X017800Y004679D01*
X017800Y004670D02*
X018308Y004670D01*
X018308Y004662D02*
X017800Y004662D01*
X017800Y004653D02*
X018308Y004653D01*
X018308Y004645D02*
X017800Y004645D01*
X017800Y004636D02*
X018308Y004636D01*
X018308Y004628D02*
X017800Y004628D01*
X017800Y004619D02*
X018308Y004619D01*
X018308Y004611D02*
X017800Y004611D01*
X017800Y004602D02*
X018308Y004602D01*
X018308Y004594D02*
X017800Y004594D01*
X017800Y004585D02*
X018308Y004585D01*
X018308Y004577D02*
X017800Y004577D01*
X017800Y004568D02*
X018308Y004568D01*
X018308Y004560D02*
X017800Y004560D01*
X017800Y004551D02*
X018308Y004551D01*
X018308Y004543D02*
X017800Y004543D01*
X017800Y004534D02*
X018308Y004534D01*
X018308Y004526D02*
X017800Y004526D01*
X017800Y004517D02*
X018308Y004517D01*
X018308Y004509D02*
X017800Y004509D01*
X017800Y004500D02*
X018308Y004500D01*
X018308Y004492D02*
X017800Y004492D01*
X017800Y004483D02*
X018308Y004483D01*
X018308Y004475D02*
X017800Y004475D01*
X017800Y004466D02*
X018308Y004466D01*
X018308Y004458D02*
X017800Y004458D01*
X017800Y004449D02*
X018308Y004449D01*
X018308Y004441D02*
X017800Y004441D01*
X017800Y004432D02*
X018308Y004432D01*
X018308Y004424D02*
X017800Y004424D01*
X017800Y004415D02*
X018308Y004415D01*
X018308Y004407D02*
X017800Y004407D01*
X017800Y004398D02*
X018308Y004398D01*
X018308Y004390D02*
X017800Y004390D01*
X017800Y004381D02*
X018308Y004381D01*
X018308Y004373D02*
X017800Y004373D01*
X017800Y004364D02*
X018308Y004364D01*
X018308Y004356D02*
X017800Y004356D01*
X017800Y004347D02*
X018308Y004347D01*
X018308Y004339D02*
X017800Y004339D01*
X017800Y004330D02*
X018308Y004330D01*
X018308Y004322D02*
X017800Y004322D01*
X017800Y004313D02*
X018308Y004313D01*
X018308Y004305D02*
X017800Y004305D01*
X017800Y004296D02*
X018308Y004296D01*
X018308Y004288D02*
X017800Y004288D01*
X017800Y004279D02*
X018308Y004279D01*
X018308Y004271D02*
X017800Y004271D01*
X017800Y004262D02*
X018308Y004262D01*
X018308Y004254D02*
X017800Y004254D01*
X017800Y004245D02*
X018308Y004245D01*
X018308Y004237D02*
X017800Y004237D01*
X017800Y004228D02*
X018308Y004228D01*
X018308Y004220D02*
X017800Y004220D01*
X017800Y004211D02*
X018308Y004211D01*
X018308Y004203D02*
X017800Y004203D01*
X017800Y004194D02*
X018308Y004194D01*
X018308Y004186D02*
X017800Y004186D01*
X017800Y004177D02*
X018308Y004177D01*
X018308Y004169D02*
X017800Y004169D01*
X017800Y004160D02*
X018308Y004160D01*
X018315Y004152D02*
X017800Y004152D01*
X017800Y004143D02*
X018323Y004143D01*
X018332Y004135D02*
X017800Y004135D01*
X017800Y004126D02*
X018340Y004126D01*
X018645Y003990D02*
X017800Y003990D01*
X017800Y003982D02*
X018645Y003982D01*
X018645Y003973D02*
X017800Y003973D01*
X017800Y003965D02*
X018645Y003965D01*
X018645Y003956D02*
X017800Y003956D01*
X017800Y003948D02*
X018645Y003948D01*
X018645Y003939D02*
X017800Y003939D01*
X017800Y003931D02*
X018645Y003931D01*
X018645Y003922D02*
X017800Y003922D01*
X017800Y003914D02*
X018645Y003914D01*
X018645Y003905D02*
X017800Y003905D01*
X017800Y003897D02*
X018645Y003897D01*
X018645Y003888D02*
X017800Y003888D01*
X017800Y003880D02*
X018645Y003880D01*
X018645Y003871D02*
X017800Y003871D01*
X017800Y003863D02*
X018645Y003863D01*
X018645Y003854D02*
X017800Y003854D01*
X017800Y003846D02*
X018645Y003846D01*
X018645Y003837D02*
X017800Y003837D01*
X017800Y003829D02*
X018645Y003829D01*
X018645Y003820D02*
X017800Y003820D01*
X017800Y003812D02*
X018645Y003812D01*
X018649Y003803D02*
X017800Y003803D01*
X017800Y003795D02*
X018657Y003795D01*
X018666Y003786D02*
X017800Y003786D01*
X017800Y003778D02*
X018674Y003778D01*
X018683Y003769D02*
X017800Y003769D01*
X017800Y003761D02*
X018691Y003761D01*
X018700Y003752D02*
X017800Y003752D01*
X017800Y003744D02*
X018708Y003744D01*
X018717Y003735D02*
X017800Y003735D01*
X017800Y003727D02*
X018725Y003727D01*
X018734Y003718D02*
X017800Y003718D01*
X017800Y003710D02*
X018742Y003710D01*
X018751Y003701D02*
X017800Y003701D01*
X017800Y003693D02*
X018759Y003693D01*
X018763Y003684D02*
X017800Y003684D01*
X017800Y003676D02*
X018763Y003676D01*
X018763Y003667D02*
X017800Y003667D01*
X017800Y003659D02*
X018763Y003659D01*
X018763Y003650D02*
X017800Y003650D01*
X017800Y003642D02*
X018763Y003642D01*
X018763Y003633D02*
X017800Y003633D01*
X017800Y003625D02*
X018763Y003625D01*
X018763Y003616D02*
X017800Y003616D01*
X017800Y003608D02*
X018763Y003608D01*
X018763Y003599D02*
X017800Y003599D01*
X017800Y003591D02*
X018763Y003591D01*
X018763Y003582D02*
X017800Y003582D01*
X017800Y003574D02*
X018763Y003574D01*
X018763Y003565D02*
X017800Y003565D01*
X017800Y003557D02*
X018763Y003557D01*
X018763Y003548D02*
X017800Y003548D01*
X017800Y003540D02*
X018763Y003540D01*
X018763Y003531D02*
X017800Y003531D01*
X017800Y003523D02*
X018763Y003523D01*
X018763Y003514D02*
X017800Y003514D01*
X017800Y003506D02*
X018763Y003506D01*
X018763Y003497D02*
X017800Y003497D01*
X017800Y003489D02*
X018763Y003489D01*
X018763Y003480D02*
X017800Y003480D01*
X017800Y003472D02*
X018763Y003472D01*
X018763Y003463D02*
X017800Y003463D01*
X017800Y003455D02*
X018763Y003455D01*
X018763Y003446D02*
X017800Y003446D01*
X017800Y003438D02*
X018763Y003438D01*
X018763Y003429D02*
X017800Y003429D01*
X017800Y003421D02*
X018763Y003421D01*
X018763Y003412D02*
X017800Y003412D01*
X017800Y003404D02*
X018763Y003404D01*
X019013Y003404D02*
X019285Y003404D01*
X019285Y003412D02*
X019013Y003412D01*
X019013Y003421D02*
X019285Y003421D01*
X019285Y003429D02*
X019013Y003429D01*
X019013Y003438D02*
X019285Y003438D01*
X019285Y003446D02*
X019013Y003446D01*
X019013Y003455D02*
X019285Y003455D01*
X019285Y003463D02*
X019013Y003463D01*
X019013Y003472D02*
X019285Y003472D01*
X019285Y003480D02*
X019013Y003480D01*
X019013Y003489D02*
X019285Y003489D01*
X019285Y003497D02*
X019013Y003497D01*
X019013Y003506D02*
X019285Y003506D01*
X019285Y003514D02*
X019013Y003514D01*
X019013Y003523D02*
X019281Y003523D01*
X019272Y003531D02*
X019013Y003531D01*
X019013Y003540D02*
X019264Y003540D01*
X019255Y003548D02*
X019013Y003548D01*
X019013Y003557D02*
X019247Y003557D01*
X019238Y003565D02*
X019013Y003565D01*
X019013Y003574D02*
X019230Y003574D01*
X019221Y003582D02*
X019013Y003582D01*
X019013Y003591D02*
X019213Y003591D01*
X019204Y003599D02*
X019013Y003599D01*
X019013Y003608D02*
X019196Y003608D01*
X019196Y003616D02*
X019013Y003616D01*
X019013Y003625D02*
X019196Y003625D01*
X019196Y003633D02*
X019013Y003633D01*
X019013Y003642D02*
X019196Y003642D01*
X019196Y003650D02*
X019013Y003650D01*
X019013Y003659D02*
X019196Y003659D01*
X019196Y003667D02*
X019013Y003667D01*
X019013Y003676D02*
X019196Y003676D01*
X019196Y003684D02*
X019013Y003684D01*
X019013Y003693D02*
X019196Y003693D01*
X019196Y003701D02*
X019013Y003701D01*
X019013Y003710D02*
X019196Y003710D01*
X019196Y003718D02*
X019013Y003718D01*
X019015Y003727D02*
X019196Y003727D01*
X019196Y003735D02*
X019023Y003735D01*
X019032Y003744D02*
X019196Y003744D01*
X019196Y003752D02*
X019040Y003752D01*
X019049Y003761D02*
X019196Y003761D01*
X019196Y003769D02*
X019057Y003769D01*
X019066Y003778D02*
X019196Y003778D01*
X019196Y003786D02*
X019074Y003786D01*
X019083Y003795D02*
X019198Y003795D01*
X019206Y003803D02*
X019091Y003803D01*
X019095Y003812D02*
X019215Y003812D01*
X019223Y003820D02*
X019095Y003820D01*
X019095Y003829D02*
X019232Y003829D01*
X019240Y003837D02*
X019095Y003837D01*
X019095Y003846D02*
X019249Y003846D01*
X019257Y003854D02*
X019095Y003854D01*
X019095Y003863D02*
X019266Y003863D01*
X019274Y003871D02*
X019095Y003871D01*
X019095Y003880D02*
X019283Y003880D01*
X019291Y003888D02*
X019095Y003888D01*
X019095Y003897D02*
X019300Y003897D01*
X019308Y003905D02*
X019095Y003905D01*
X019095Y003914D02*
X019317Y003914D01*
X019325Y003922D02*
X019095Y003922D01*
X019095Y003931D02*
X020700Y003931D01*
X020700Y003939D02*
X019095Y003939D01*
X019095Y003948D02*
X020700Y003948D01*
X020700Y003956D02*
X019095Y003956D01*
X019095Y003965D02*
X020700Y003965D01*
X020700Y003973D02*
X019095Y003973D01*
X019095Y003982D02*
X020700Y003982D01*
X020700Y003990D02*
X019095Y003990D01*
X019090Y003999D02*
X020700Y003999D01*
X020700Y004007D02*
X019081Y004007D01*
X019073Y004016D02*
X020700Y004016D01*
X020700Y004024D02*
X019064Y004024D01*
X019056Y004033D02*
X020700Y004033D01*
X020700Y004041D02*
X019047Y004041D01*
X019039Y004050D02*
X020700Y004050D01*
X020700Y004058D02*
X019030Y004058D01*
X019022Y004067D02*
X020700Y004067D01*
X020700Y004075D02*
X019013Y004075D01*
X019013Y004084D02*
X020700Y004084D01*
X020700Y004092D02*
X019013Y004092D01*
X019013Y004101D02*
X020700Y004101D01*
X020700Y004109D02*
X019013Y004109D01*
X019013Y004118D02*
X020700Y004118D01*
X020700Y004126D02*
X019013Y004126D01*
X019013Y004135D02*
X020700Y004135D01*
X020700Y004143D02*
X019013Y004143D01*
X019013Y004152D02*
X020700Y004152D01*
X020700Y004160D02*
X019013Y004160D01*
X019013Y004169D02*
X020700Y004169D01*
X020700Y004177D02*
X019013Y004177D01*
X019013Y004186D02*
X020700Y004186D01*
X020700Y004194D02*
X019013Y004194D01*
X019013Y004203D02*
X020700Y004203D01*
X020700Y004211D02*
X019013Y004211D01*
X019013Y004220D02*
X020700Y004220D01*
X020700Y004228D02*
X019013Y004228D01*
X019013Y004237D02*
X020700Y004237D01*
X020700Y004245D02*
X019013Y004245D01*
X019013Y004254D02*
X020700Y004254D01*
X020700Y004262D02*
X019013Y004262D01*
X019013Y004271D02*
X020700Y004271D01*
X020700Y004279D02*
X019267Y004279D01*
X019276Y004288D02*
X020700Y004288D01*
X020700Y004296D02*
X019284Y004296D01*
X019293Y004305D02*
X020700Y004305D01*
X020700Y004313D02*
X019301Y004313D01*
X019310Y004322D02*
X020700Y004322D01*
X020700Y004330D02*
X019318Y004330D01*
X019327Y004339D02*
X020700Y004339D01*
X020700Y004347D02*
X019335Y004347D01*
X019344Y004356D02*
X020700Y004356D01*
X020697Y004361D02*
X020697Y004361D01*
X020694Y004364D02*
X019352Y004364D01*
X019361Y004373D02*
X020684Y004373D01*
X020673Y004381D02*
X019369Y004381D01*
X019378Y004390D02*
X020663Y004390D01*
X020653Y004398D02*
X019386Y004398D01*
X019395Y004407D02*
X020643Y004407D01*
X020633Y004415D02*
X019395Y004415D01*
X019395Y004424D02*
X020623Y004424D01*
X020612Y004432D02*
X019395Y004432D01*
X019395Y004441D02*
X020602Y004441D01*
X020592Y004449D02*
X019395Y004449D01*
X019395Y004458D02*
X020582Y004458D01*
X020572Y004466D02*
X019395Y004466D01*
X019395Y004475D02*
X020561Y004475D01*
X020551Y004483D02*
X019395Y004483D01*
X019395Y004492D02*
X020541Y004492D01*
X020531Y004500D02*
X019395Y004500D01*
X019395Y004509D02*
X020521Y004509D01*
X020511Y004517D02*
X019395Y004517D01*
X019395Y004526D02*
X020500Y004526D01*
X020490Y004534D02*
X019395Y004534D01*
X019395Y004543D02*
X020480Y004543D01*
X020470Y004551D02*
X019395Y004551D01*
X019395Y004560D02*
X020460Y004560D01*
X020449Y004568D02*
X019395Y004568D01*
X019395Y004577D02*
X020439Y004577D01*
X020429Y004585D02*
X019395Y004585D01*
X019395Y004594D02*
X020420Y004594D01*
X020420Y004592D02*
X020420Y004592D01*
X020413Y004602D02*
X019386Y004602D01*
X019378Y004611D02*
X020407Y004611D01*
X020401Y004619D02*
X019369Y004619D01*
X019361Y004628D02*
X020395Y004628D01*
X020389Y004636D02*
X019352Y004636D01*
X019344Y004645D02*
X020383Y004645D01*
X020377Y004653D02*
X019335Y004653D01*
X019327Y004662D02*
X020370Y004662D01*
X020364Y004670D02*
X019318Y004670D01*
X019310Y004679D02*
X020358Y004679D01*
X020352Y004687D02*
X019301Y004687D01*
X019293Y004696D02*
X020346Y004696D01*
X020340Y004704D02*
X019284Y004704D01*
X019276Y004713D02*
X020332Y004713D01*
X020327Y004721D02*
X019267Y004721D01*
X018989Y004730D02*
X020321Y004730D01*
X020315Y004738D02*
X018989Y004738D01*
X018989Y004747D02*
X020309Y004747D01*
X020303Y004755D02*
X018989Y004755D01*
X018989Y004764D02*
X020296Y004764D01*
X020290Y004772D02*
X018989Y004772D01*
X018989Y004781D02*
X020284Y004781D01*
X020278Y004789D02*
X018989Y004789D01*
X018989Y004798D02*
X020271Y004798D01*
X020265Y004806D02*
X018989Y004806D01*
X018989Y004815D02*
X020259Y004815D01*
X020253Y004823D02*
X018989Y004823D01*
X018989Y004832D02*
X020246Y004832D01*
X020240Y004840D02*
X018989Y004840D01*
X018983Y004849D02*
X020234Y004849D01*
X020228Y004857D02*
X018974Y004857D01*
X018966Y004866D02*
X020221Y004866D01*
X020215Y004874D02*
X018957Y004874D01*
X017300Y004600D02*
X017300Y004547D01*
X017296Y004547D01*
X017258Y004509D01*
X017258Y004179D01*
X017296Y004141D01*
X017300Y004141D01*
X017300Y003700D01*
X016713Y003700D01*
X016512Y003901D01*
X016512Y004029D01*
X016521Y004038D01*
X016521Y004387D01*
X016500Y004408D01*
X016500Y004443D01*
X016719Y004443D01*
X016757Y004481D01*
X016757Y004600D01*
X017300Y004600D01*
X017300Y004594D02*
X016757Y004594D01*
X016757Y004585D02*
X017300Y004585D01*
X017300Y004577D02*
X016757Y004577D01*
X016757Y004568D02*
X017300Y004568D01*
X017300Y004560D02*
X016757Y004560D01*
X016757Y004551D02*
X017300Y004551D01*
X017292Y004543D02*
X016757Y004543D01*
X016757Y004534D02*
X017283Y004534D01*
X017275Y004526D02*
X016757Y004526D01*
X016757Y004517D02*
X017266Y004517D01*
X017258Y004509D02*
X016757Y004509D01*
X016757Y004500D02*
X017258Y004500D01*
X017258Y004492D02*
X016757Y004492D01*
X016757Y004483D02*
X017258Y004483D01*
X017258Y004475D02*
X016751Y004475D01*
X016742Y004466D02*
X017258Y004466D01*
X017258Y004458D02*
X016734Y004458D01*
X016725Y004449D02*
X017258Y004449D01*
X017258Y004441D02*
X016500Y004441D01*
X016500Y004432D02*
X017258Y004432D01*
X017258Y004424D02*
X016500Y004424D01*
X016500Y004415D02*
X017258Y004415D01*
X017258Y004407D02*
X016501Y004407D01*
X016510Y004398D02*
X017258Y004398D01*
X017258Y004390D02*
X016518Y004390D01*
X016521Y004381D02*
X017258Y004381D01*
X017258Y004373D02*
X016521Y004373D01*
X016521Y004364D02*
X017258Y004364D01*
X017258Y004356D02*
X016521Y004356D01*
X016521Y004347D02*
X017258Y004347D01*
X017258Y004339D02*
X016521Y004339D01*
X016521Y004330D02*
X017258Y004330D01*
X017258Y004322D02*
X016521Y004322D01*
X016521Y004313D02*
X017258Y004313D01*
X017258Y004305D02*
X016521Y004305D01*
X016521Y004296D02*
X017258Y004296D01*
X017258Y004288D02*
X016521Y004288D01*
X016521Y004279D02*
X017258Y004279D01*
X017258Y004271D02*
X016521Y004271D01*
X016521Y004262D02*
X017258Y004262D01*
X017258Y004254D02*
X016521Y004254D01*
X016521Y004245D02*
X017258Y004245D01*
X017258Y004237D02*
X016521Y004237D01*
X016521Y004228D02*
X017258Y004228D01*
X017258Y004220D02*
X016521Y004220D01*
X016521Y004211D02*
X017258Y004211D01*
X017258Y004203D02*
X016521Y004203D01*
X016521Y004194D02*
X017258Y004194D01*
X017258Y004186D02*
X016521Y004186D01*
X016521Y004177D02*
X017260Y004177D01*
X017269Y004169D02*
X016521Y004169D01*
X016521Y004160D02*
X017277Y004160D01*
X017286Y004152D02*
X016521Y004152D01*
X016521Y004143D02*
X017294Y004143D01*
X017300Y004135D02*
X016521Y004135D01*
X016521Y004126D02*
X017300Y004126D01*
X017300Y004118D02*
X016521Y004118D01*
X016521Y004109D02*
X017300Y004109D01*
X017300Y004101D02*
X016521Y004101D01*
X016521Y004092D02*
X017300Y004092D01*
X017300Y004084D02*
X016521Y004084D01*
X016521Y004075D02*
X017300Y004075D01*
X017300Y004067D02*
X016521Y004067D01*
X016521Y004058D02*
X017300Y004058D01*
X017300Y004050D02*
X016521Y004050D01*
X016521Y004041D02*
X017300Y004041D01*
X017300Y004033D02*
X016515Y004033D01*
X016512Y004024D02*
X017300Y004024D01*
X017300Y004016D02*
X016512Y004016D01*
X016512Y004007D02*
X017300Y004007D01*
X017300Y003999D02*
X016512Y003999D01*
X016512Y003990D02*
X017300Y003990D01*
X017300Y003982D02*
X016512Y003982D01*
X016512Y003973D02*
X017300Y003973D01*
X017300Y003965D02*
X016512Y003965D01*
X016512Y003956D02*
X017300Y003956D01*
X017300Y003948D02*
X016512Y003948D01*
X016512Y003939D02*
X017300Y003939D01*
X017300Y003931D02*
X016512Y003931D01*
X016512Y003922D02*
X017300Y003922D01*
X017300Y003914D02*
X016512Y003914D01*
X016512Y003905D02*
X017300Y003905D01*
X017300Y003897D02*
X016516Y003897D01*
X016525Y003888D02*
X017300Y003888D01*
X017300Y003880D02*
X016533Y003880D01*
X016542Y003871D02*
X017300Y003871D01*
X017300Y003863D02*
X016550Y003863D01*
X016559Y003854D02*
X017300Y003854D01*
X017300Y003846D02*
X016567Y003846D01*
X016576Y003837D02*
X017300Y003837D01*
X017300Y003829D02*
X016584Y003829D01*
X016593Y003820D02*
X017300Y003820D01*
X017300Y003812D02*
X016601Y003812D01*
X016610Y003803D02*
X017300Y003803D01*
X017300Y003795D02*
X016618Y003795D01*
X016627Y003786D02*
X017300Y003786D01*
X017300Y003778D02*
X016635Y003778D01*
X016644Y003769D02*
X017300Y003769D01*
X017300Y003761D02*
X016652Y003761D01*
X016661Y003752D02*
X017300Y003752D01*
X017300Y003744D02*
X016669Y003744D01*
X016678Y003735D02*
X017300Y003735D01*
X017300Y003727D02*
X016686Y003727D01*
X016695Y003718D02*
X017300Y003718D01*
X017300Y003710D02*
X016703Y003710D01*
X016712Y003701D02*
X017300Y003701D01*
X017800Y003999D02*
X018650Y003999D01*
X018659Y004007D02*
X017800Y004007D01*
X017800Y004016D02*
X018667Y004016D01*
X018676Y004024D02*
X017800Y004024D01*
X017800Y004033D02*
X018684Y004033D01*
X018693Y004041D02*
X017800Y004041D01*
X017800Y004050D02*
X018701Y004050D01*
X018710Y004058D02*
X017800Y004058D01*
X017800Y004067D02*
X018718Y004067D01*
X018727Y004075D02*
X017800Y004075D01*
X017800Y004084D02*
X018735Y004084D01*
X018744Y004092D02*
X017800Y004092D01*
X017800Y004101D02*
X018752Y004101D01*
X018761Y004109D02*
X017800Y004109D01*
X017800Y004118D02*
X018763Y004118D01*
X019515Y003922D02*
X020700Y003922D01*
X020700Y003914D02*
X019523Y003914D01*
X019532Y003905D02*
X020700Y003905D01*
X020700Y003897D02*
X019540Y003897D01*
X019549Y003888D02*
X020700Y003888D01*
X020700Y003880D02*
X019557Y003880D01*
X019566Y003871D02*
X020700Y003871D01*
X020700Y003863D02*
X020034Y003863D01*
X020043Y003854D02*
X020700Y003854D01*
X020700Y003846D02*
X020051Y003846D01*
X020060Y003837D02*
X020700Y003837D01*
X020700Y003829D02*
X020068Y003829D01*
X020077Y003820D02*
X020700Y003820D01*
X020700Y003812D02*
X020085Y003812D01*
X020094Y003803D02*
X020700Y003803D01*
X020700Y003795D02*
X020102Y003795D01*
X020111Y003786D02*
X020700Y003786D01*
X020700Y003778D02*
X020119Y003778D01*
X020128Y003769D02*
X020700Y003769D01*
X020700Y003761D02*
X020136Y003761D01*
X020145Y003752D02*
X020700Y003752D01*
X020700Y003744D02*
X020153Y003744D01*
X020162Y003735D02*
X020700Y003735D01*
X020700Y003727D02*
X020164Y003727D01*
X020164Y003718D02*
X020700Y003718D01*
X020700Y003710D02*
X020164Y003710D01*
X020164Y003701D02*
X020700Y003701D01*
X020700Y003693D02*
X020164Y003693D01*
X020164Y003684D02*
X020700Y003684D01*
X020700Y003676D02*
X020164Y003676D01*
X020164Y003667D02*
X020700Y003667D01*
X020700Y003659D02*
X020164Y003659D01*
X020164Y003650D02*
X020700Y003650D01*
X020700Y003642D02*
X020164Y003642D01*
X020164Y003633D02*
X020700Y003633D01*
X020700Y003625D02*
X020164Y003625D01*
X020164Y003616D02*
X020700Y003616D01*
X020700Y003608D02*
X020164Y003608D01*
X020164Y003599D02*
X020700Y003599D01*
X020700Y003591D02*
X020164Y003591D01*
X020164Y003582D02*
X020700Y003582D01*
X020700Y003574D02*
X020164Y003574D01*
X020164Y003565D02*
X020700Y003565D01*
X020700Y003557D02*
X020164Y003557D01*
X020164Y003548D02*
X020700Y003548D01*
X020700Y003540D02*
X020156Y003540D01*
X020148Y003531D02*
X020700Y003531D01*
X020700Y003523D02*
X020139Y003523D01*
X020131Y003514D02*
X020700Y003514D01*
X020700Y003506D02*
X020122Y003506D01*
X020114Y003497D02*
X020700Y003497D01*
X020700Y003489D02*
X020105Y003489D01*
X020097Y003480D02*
X020700Y003480D01*
X020700Y003472D02*
X020088Y003472D01*
X020080Y003463D02*
X020700Y003463D01*
X020700Y003455D02*
X020071Y003455D01*
X020063Y003446D02*
X020700Y003446D01*
X020700Y003438D02*
X020054Y003438D01*
X020046Y003429D02*
X020700Y003429D01*
X020700Y003421D02*
X020037Y003421D01*
X019875Y003412D02*
X020700Y003412D01*
X020700Y003404D02*
X019866Y003404D01*
X019858Y003395D02*
X020700Y003395D01*
X020700Y003387D02*
X019849Y003387D01*
X019841Y003378D02*
X020700Y003378D01*
X020700Y003370D02*
X019832Y003370D01*
X019824Y003361D02*
X020700Y003361D01*
X020700Y003353D02*
X019815Y003353D01*
X019807Y003344D02*
X020700Y003344D01*
X020700Y003336D02*
X019800Y003336D01*
X019800Y003327D02*
X020700Y003327D01*
X020700Y003319D02*
X019800Y003319D01*
X019800Y003310D02*
X020700Y003310D01*
X020700Y003302D02*
X019800Y003302D01*
X019800Y003293D02*
X020700Y003293D01*
X020700Y003285D02*
X019800Y003285D01*
X019800Y003276D02*
X020700Y003276D01*
X020700Y003268D02*
X019800Y003268D01*
X019800Y003259D02*
X020700Y003259D01*
X020700Y003251D02*
X019800Y003251D01*
X019800Y003242D02*
X020700Y003242D01*
X020700Y003234D02*
X019800Y003234D01*
X019800Y003225D02*
X020700Y003225D01*
X020693Y003217D02*
X019800Y003217D01*
X019800Y003208D02*
X020686Y003208D01*
X020677Y003200D02*
X019800Y003200D01*
X019800Y003191D02*
X020675Y003191D01*
X020671Y003183D02*
X019800Y003183D01*
X019800Y003157D02*
X020668Y003157D01*
X020669Y003160D02*
X020666Y003174D01*
X020666Y003149D02*
X019800Y003149D01*
X019800Y003140D02*
X020669Y003140D01*
X020674Y003132D02*
X019800Y003132D01*
X019800Y003123D02*
X020676Y003123D01*
X020682Y003115D02*
X019800Y003115D01*
X019800Y003106D02*
X020692Y003106D01*
X020697Y003098D02*
X019800Y003098D01*
X019800Y003089D02*
X020700Y003089D01*
X020700Y003081D02*
X019800Y003081D01*
X019800Y003072D02*
X020700Y003072D01*
X020700Y003064D02*
X019800Y003064D01*
X019800Y003055D02*
X020700Y003055D01*
X020700Y003047D02*
X019800Y003047D01*
X019800Y003038D02*
X020700Y003038D01*
X020700Y003030D02*
X019800Y003030D01*
X019800Y003021D02*
X020700Y003021D01*
X020700Y003013D02*
X019800Y003013D01*
X019800Y003004D02*
X020700Y003004D01*
X020700Y002996D02*
X019800Y002996D01*
X019800Y002987D02*
X020700Y002987D01*
X020700Y002979D02*
X019800Y002979D01*
X019800Y002970D02*
X020700Y002970D01*
X020700Y002962D02*
X019800Y002962D01*
X019800Y002953D02*
X020700Y002953D01*
X020700Y002945D02*
X019800Y002945D01*
X019800Y002936D02*
X020700Y002936D01*
X020700Y002928D02*
X019800Y002928D01*
X019800Y002919D02*
X020700Y002919D01*
X020700Y002911D02*
X019800Y002911D01*
X019800Y002902D02*
X020700Y002902D01*
X020700Y002894D02*
X020266Y002894D01*
X020275Y002885D02*
X020700Y002885D01*
X020700Y002877D02*
X020283Y002877D01*
X020292Y002868D02*
X020700Y002868D01*
X020700Y002860D02*
X020300Y002860D01*
X020309Y002851D02*
X020700Y002851D01*
X020700Y002843D02*
X020317Y002843D01*
X020326Y002834D02*
X020700Y002834D01*
X020700Y002826D02*
X020334Y002826D01*
X020343Y002817D02*
X020700Y002817D01*
X020700Y002809D02*
X020351Y002809D01*
X020360Y002800D02*
X020700Y002800D01*
X020754Y003157D02*
X021238Y003157D01*
X021240Y003160D02*
X021180Y003070D01*
X020740Y003160D01*
X021180Y003250D01*
X021240Y003160D01*
X021236Y003166D02*
X020767Y003166D01*
X020796Y003149D02*
X021232Y003149D01*
X021227Y003140D02*
X020837Y003140D01*
X020879Y003132D02*
X021221Y003132D01*
X021215Y003123D02*
X020921Y003123D01*
X020962Y003115D02*
X021210Y003115D01*
X021204Y003106D02*
X021004Y003106D01*
X021045Y003098D02*
X021198Y003098D01*
X021193Y003089D02*
X021087Y003089D01*
X021128Y003081D02*
X021187Y003081D01*
X021181Y003072D02*
X021170Y003072D01*
X021231Y003174D02*
X020809Y003174D01*
X020850Y003183D02*
X021225Y003183D01*
X021219Y003191D02*
X020892Y003191D01*
X020933Y003200D02*
X021214Y003200D01*
X021208Y003208D02*
X020975Y003208D01*
X021017Y003217D02*
X021202Y003217D01*
X021197Y003225D02*
X021058Y003225D01*
X021100Y003234D02*
X021191Y003234D01*
X021185Y003242D02*
X021141Y003242D01*
X021276Y003327D02*
X021936Y003327D01*
X021941Y003336D02*
X021271Y003336D01*
X021265Y003344D02*
X021947Y003344D01*
X021952Y003353D02*
X021260Y003353D01*
X021255Y003361D02*
X021957Y003361D01*
X021963Y003370D02*
X021249Y003370D01*
X021244Y003378D02*
X021968Y003378D01*
X021973Y003387D02*
X021611Y003387D01*
X021600Y003380D02*
X022210Y003760D01*
X021830Y003160D01*
X022210Y002540D01*
X021600Y002940D01*
X020980Y002530D01*
X021380Y003160D01*
X021000Y003770D01*
X021600Y003380D01*
X021590Y003387D02*
X021239Y003387D01*
X021234Y003395D02*
X021577Y003395D01*
X021564Y003404D02*
X021228Y003404D01*
X021223Y003412D02*
X021551Y003412D01*
X021538Y003421D02*
X021218Y003421D01*
X021212Y003429D02*
X021525Y003429D01*
X021511Y003438D02*
X021207Y003438D01*
X021202Y003446D02*
X021498Y003446D01*
X021485Y003455D02*
X021196Y003455D01*
X021191Y003463D02*
X021472Y003463D01*
X021459Y003472D02*
X021186Y003472D01*
X021181Y003480D02*
X021446Y003480D01*
X021433Y003489D02*
X021175Y003489D01*
X021170Y003497D02*
X021420Y003497D01*
X021407Y003506D02*
X021165Y003506D01*
X021159Y003514D02*
X021394Y003514D01*
X021381Y003523D02*
X021154Y003523D01*
X021149Y003531D02*
X021368Y003531D01*
X021355Y003540D02*
X021144Y003540D01*
X021138Y003548D02*
X021341Y003548D01*
X021328Y003557D02*
X021133Y003557D01*
X021128Y003565D02*
X021315Y003565D01*
X021302Y003574D02*
X021122Y003574D01*
X021117Y003582D02*
X021289Y003582D01*
X021276Y003591D02*
X021112Y003591D01*
X021106Y003599D02*
X021263Y003599D01*
X021250Y003608D02*
X021101Y003608D01*
X021096Y003616D02*
X021237Y003616D01*
X021224Y003625D02*
X021091Y003625D01*
X021085Y003633D02*
X021211Y003633D01*
X021198Y003642D02*
X021080Y003642D01*
X021075Y003650D02*
X021185Y003650D01*
X021171Y003659D02*
X021069Y003659D01*
X021064Y003667D02*
X021158Y003667D01*
X021145Y003676D02*
X021059Y003676D01*
X021054Y003684D02*
X021132Y003684D01*
X021119Y003693D02*
X021048Y003693D01*
X021043Y003701D02*
X021106Y003701D01*
X021093Y003710D02*
X021038Y003710D01*
X021032Y003718D02*
X021080Y003718D01*
X021067Y003727D02*
X021027Y003727D01*
X021022Y003735D02*
X021054Y003735D01*
X021041Y003744D02*
X021016Y003744D01*
X021011Y003752D02*
X021028Y003752D01*
X021014Y003761D02*
X021006Y003761D01*
X021001Y003769D02*
X021001Y003769D01*
X021517Y003659D02*
X021683Y003659D01*
X021681Y003667D02*
X021519Y003667D01*
X021521Y003676D02*
X021679Y003676D01*
X021677Y003684D02*
X021523Y003684D01*
X021524Y003693D02*
X021676Y003693D01*
X021674Y003701D02*
X021526Y003701D01*
X021528Y003710D02*
X021672Y003710D01*
X021670Y003718D02*
X021530Y003718D01*
X021532Y003727D02*
X021668Y003727D01*
X021666Y003735D02*
X021534Y003735D01*
X021536Y003744D02*
X021664Y003744D01*
X021663Y003752D02*
X021537Y003752D01*
X021539Y003761D02*
X021661Y003761D01*
X021659Y003769D02*
X021541Y003769D01*
X021543Y003778D02*
X021657Y003778D01*
X021655Y003786D02*
X021545Y003786D01*
X021547Y003795D02*
X021653Y003795D01*
X021652Y003803D02*
X021548Y003803D01*
X021550Y003812D02*
X021650Y003812D01*
X021648Y003820D02*
X021552Y003820D01*
X021554Y003829D02*
X021646Y003829D01*
X021644Y003837D02*
X021556Y003837D01*
X021558Y003846D02*
X021642Y003846D01*
X021640Y003854D02*
X021560Y003854D01*
X021561Y003863D02*
X021639Y003863D01*
X021637Y003871D02*
X021563Y003871D01*
X021565Y003880D02*
X021635Y003880D01*
X021633Y003888D02*
X021567Y003888D01*
X021569Y003897D02*
X021631Y003897D01*
X021629Y003905D02*
X021571Y003905D01*
X021573Y003914D02*
X021627Y003914D01*
X021626Y003922D02*
X021574Y003922D01*
X021576Y003931D02*
X021624Y003931D01*
X021622Y003939D02*
X021578Y003939D01*
X021580Y003948D02*
X021620Y003948D01*
X021618Y003956D02*
X021582Y003956D01*
X021584Y003965D02*
X021616Y003965D01*
X021615Y003973D02*
X021585Y003973D01*
X021587Y003982D02*
X021613Y003982D01*
X021611Y003990D02*
X021589Y003990D01*
X021591Y003999D02*
X021609Y003999D01*
X021607Y004007D02*
X021593Y004007D01*
X021595Y004016D02*
X021605Y004016D01*
X021603Y004024D02*
X021597Y004024D01*
X021598Y004033D02*
X021602Y004033D01*
X021600Y004040D02*
X021500Y003580D01*
X021600Y003520D01*
X021700Y003580D01*
X021600Y004040D01*
X022129Y003710D02*
X022178Y003710D01*
X022183Y003718D02*
X022143Y003718D01*
X022156Y003727D02*
X022189Y003727D01*
X022194Y003735D02*
X022170Y003735D01*
X022184Y003744D02*
X022200Y003744D01*
X022197Y003752D02*
X022205Y003752D01*
X022173Y003701D02*
X022115Y003701D01*
X022102Y003693D02*
X022167Y003693D01*
X022162Y003684D02*
X022088Y003684D01*
X022074Y003676D02*
X022157Y003676D01*
X022151Y003667D02*
X022061Y003667D01*
X022047Y003659D02*
X022146Y003659D01*
X022140Y003650D02*
X022034Y003650D01*
X022020Y003642D02*
X022135Y003642D01*
X022130Y003633D02*
X022006Y003633D01*
X021993Y003625D02*
X022124Y003625D01*
X022119Y003616D02*
X021979Y003616D01*
X021965Y003608D02*
X022113Y003608D01*
X022108Y003599D02*
X021952Y003599D01*
X021938Y003591D02*
X022103Y003591D01*
X022097Y003582D02*
X021924Y003582D01*
X021911Y003574D02*
X022092Y003574D01*
X022087Y003565D02*
X021897Y003565D01*
X021883Y003557D02*
X022081Y003557D01*
X022076Y003548D02*
X021870Y003548D01*
X021856Y003540D02*
X022070Y003540D01*
X022065Y003531D02*
X021843Y003531D01*
X021829Y003523D02*
X022060Y003523D01*
X022054Y003514D02*
X021815Y003514D01*
X021802Y003506D02*
X022049Y003506D01*
X022043Y003497D02*
X021788Y003497D01*
X021774Y003489D02*
X022038Y003489D01*
X022033Y003480D02*
X021761Y003480D01*
X021747Y003472D02*
X022027Y003472D01*
X022022Y003463D02*
X021733Y003463D01*
X021720Y003455D02*
X022017Y003455D01*
X022011Y003446D02*
X021706Y003446D01*
X021692Y003438D02*
X022006Y003438D01*
X022000Y003429D02*
X021679Y003429D01*
X021665Y003421D02*
X021995Y003421D01*
X021990Y003412D02*
X021651Y003412D01*
X021638Y003404D02*
X021984Y003404D01*
X021979Y003395D02*
X021624Y003395D01*
X021604Y003523D02*
X021596Y003523D01*
X021582Y003531D02*
X021618Y003531D01*
X021633Y003540D02*
X021567Y003540D01*
X021553Y003548D02*
X021647Y003548D01*
X021661Y003557D02*
X021539Y003557D01*
X021525Y003565D02*
X021675Y003565D01*
X021689Y003574D02*
X021511Y003574D01*
X021500Y003582D02*
X021700Y003582D01*
X021698Y003591D02*
X021502Y003591D01*
X021504Y003599D02*
X021696Y003599D01*
X021694Y003608D02*
X021506Y003608D01*
X021508Y003616D02*
X021692Y003616D01*
X021690Y003625D02*
X021510Y003625D01*
X021512Y003633D02*
X021688Y003633D01*
X021687Y003642D02*
X021513Y003642D01*
X021515Y003650D02*
X021685Y003650D01*
X021930Y003319D02*
X021281Y003319D01*
X021287Y003310D02*
X021925Y003310D01*
X021920Y003302D02*
X021292Y003302D01*
X021297Y003293D02*
X021914Y003293D01*
X021909Y003285D02*
X021302Y003285D01*
X021308Y003276D02*
X021904Y003276D01*
X021898Y003268D02*
X021313Y003268D01*
X021318Y003259D02*
X021893Y003259D01*
X021887Y003251D02*
X021324Y003251D01*
X021329Y003242D02*
X021882Y003242D01*
X021877Y003234D02*
X021334Y003234D01*
X021339Y003225D02*
X021871Y003225D01*
X021866Y003217D02*
X021345Y003217D01*
X021350Y003208D02*
X021860Y003208D01*
X021855Y003200D02*
X021355Y003200D01*
X021361Y003191D02*
X021850Y003191D01*
X021844Y003183D02*
X021366Y003183D01*
X021371Y003174D02*
X021839Y003174D01*
X021834Y003166D02*
X021377Y003166D01*
X021378Y003157D02*
X021832Y003157D01*
X021837Y003149D02*
X021373Y003149D01*
X021367Y003140D02*
X021842Y003140D01*
X021847Y003132D02*
X021362Y003132D01*
X021357Y003123D02*
X021853Y003123D01*
X021858Y003115D02*
X021351Y003115D01*
X021346Y003106D02*
X021863Y003106D01*
X021868Y003098D02*
X021340Y003098D01*
X021335Y003089D02*
X021873Y003089D01*
X021879Y003081D02*
X021330Y003081D01*
X021324Y003072D02*
X021884Y003072D01*
X021889Y003064D02*
X021319Y003064D01*
X021313Y003055D02*
X021894Y003055D01*
X021900Y003047D02*
X021308Y003047D01*
X021303Y003038D02*
X021905Y003038D01*
X021910Y003030D02*
X021297Y003030D01*
X021292Y003021D02*
X021915Y003021D01*
X021920Y003013D02*
X021286Y003013D01*
X021281Y003004D02*
X021926Y003004D01*
X021931Y002996D02*
X021276Y002996D01*
X021270Y002987D02*
X021936Y002987D01*
X021941Y002979D02*
X021265Y002979D01*
X021259Y002970D02*
X021946Y002970D01*
X021952Y002962D02*
X021254Y002962D01*
X021249Y002953D02*
X021957Y002953D01*
X021962Y002945D02*
X021243Y002945D01*
X021238Y002936D02*
X021594Y002936D01*
X021606Y002936D02*
X021967Y002936D01*
X021972Y002928D02*
X021619Y002928D01*
X021632Y002919D02*
X021978Y002919D01*
X021983Y002911D02*
X021645Y002911D01*
X021658Y002902D02*
X021988Y002902D01*
X021993Y002894D02*
X021671Y002894D01*
X021684Y002885D02*
X021999Y002885D01*
X022004Y002877D02*
X021697Y002877D01*
X021710Y002868D02*
X022009Y002868D01*
X022014Y002860D02*
X021723Y002860D01*
X021736Y002851D02*
X022019Y002851D01*
X022025Y002843D02*
X021749Y002843D01*
X021762Y002834D02*
X022030Y002834D01*
X022035Y002826D02*
X021775Y002826D01*
X021788Y002817D02*
X022040Y002817D01*
X022045Y002809D02*
X021800Y002809D01*
X021813Y002800D02*
X022051Y002800D01*
X022056Y002792D02*
X021826Y002792D01*
X021839Y002783D02*
X022061Y002783D01*
X022066Y002775D02*
X021852Y002775D01*
X021865Y002766D02*
X022071Y002766D01*
X022077Y002758D02*
X021878Y002758D01*
X021891Y002749D02*
X022082Y002749D01*
X022087Y002741D02*
X021904Y002741D01*
X021917Y002732D02*
X022092Y002732D01*
X022098Y002724D02*
X021930Y002724D01*
X021943Y002715D02*
X022103Y002715D01*
X022108Y002707D02*
X021956Y002707D01*
X021969Y002698D02*
X022113Y002698D01*
X022118Y002690D02*
X021982Y002690D01*
X021995Y002681D02*
X022124Y002681D01*
X022129Y002673D02*
X022008Y002673D01*
X022021Y002664D02*
X022134Y002664D01*
X022139Y002656D02*
X022034Y002656D01*
X022047Y002647D02*
X022144Y002647D01*
X022150Y002639D02*
X022060Y002639D01*
X022073Y002630D02*
X022155Y002630D01*
X022160Y002622D02*
X022086Y002622D01*
X022099Y002613D02*
X022165Y002613D01*
X022170Y002605D02*
X022112Y002605D01*
X022125Y002596D02*
X022176Y002596D01*
X022181Y002588D02*
X022137Y002588D01*
X022150Y002579D02*
X022186Y002579D01*
X022191Y002571D02*
X022163Y002571D01*
X022176Y002562D02*
X022196Y002562D01*
X022189Y002554D02*
X022202Y002554D01*
X022202Y002545D02*
X022207Y002545D01*
X021687Y002664D02*
X021513Y002664D01*
X021515Y002656D02*
X021685Y002656D01*
X021683Y002647D02*
X021517Y002647D01*
X021519Y002639D02*
X021681Y002639D01*
X021680Y002630D02*
X021520Y002630D01*
X021522Y002622D02*
X021678Y002622D01*
X021676Y002613D02*
X021524Y002613D01*
X021526Y002605D02*
X021674Y002605D01*
X021672Y002596D02*
X021528Y002596D01*
X021530Y002588D02*
X021670Y002588D01*
X021668Y002579D02*
X021532Y002579D01*
X021534Y002571D02*
X021666Y002571D01*
X021664Y002562D02*
X021536Y002562D01*
X021538Y002554D02*
X021662Y002554D01*
X021660Y002545D02*
X021540Y002545D01*
X021542Y002537D02*
X021658Y002537D01*
X021656Y002528D02*
X021544Y002528D01*
X021546Y002520D02*
X021654Y002520D01*
X021653Y002511D02*
X021547Y002511D01*
X021549Y002503D02*
X021651Y002503D01*
X021649Y002494D02*
X021551Y002494D01*
X021553Y002486D02*
X021647Y002486D01*
X021645Y002477D02*
X021555Y002477D01*
X021557Y002469D02*
X021643Y002469D01*
X021641Y002460D02*
X021559Y002460D01*
X021561Y002452D02*
X021639Y002452D01*
X021637Y002443D02*
X021563Y002443D01*
X021565Y002435D02*
X021635Y002435D01*
X021633Y002426D02*
X021567Y002426D01*
X021569Y002418D02*
X021631Y002418D01*
X021629Y002409D02*
X021571Y002409D01*
X021573Y002401D02*
X021627Y002401D01*
X021625Y002392D02*
X021575Y002392D01*
X021576Y002384D02*
X021624Y002384D01*
X021622Y002375D02*
X021578Y002375D01*
X021580Y002367D02*
X021620Y002367D01*
X021618Y002358D02*
X021582Y002358D01*
X021584Y002350D02*
X021616Y002350D01*
X021614Y002341D02*
X021586Y002341D01*
X021588Y002333D02*
X021612Y002333D01*
X021610Y002324D02*
X021590Y002324D01*
X021592Y002316D02*
X021608Y002316D01*
X021606Y002307D02*
X021594Y002307D01*
X021596Y002299D02*
X021604Y002299D01*
X021602Y002290D02*
X021598Y002290D01*
X021600Y002282D02*
X021600Y002282D01*
X021600Y002280D02*
X021500Y002720D01*
X021600Y002790D01*
X021700Y002720D01*
X021600Y002280D01*
X021003Y002545D02*
X020990Y002545D01*
X020990Y002537D02*
X020984Y002537D01*
X020995Y002554D02*
X021016Y002554D01*
X021028Y002562D02*
X021000Y002562D01*
X021006Y002571D02*
X021041Y002571D01*
X021054Y002579D02*
X021011Y002579D01*
X021017Y002588D02*
X021067Y002588D01*
X021080Y002596D02*
X021022Y002596D01*
X021027Y002605D02*
X021093Y002605D01*
X021106Y002613D02*
X021033Y002613D01*
X021038Y002622D02*
X021118Y002622D01*
X021131Y002630D02*
X021044Y002630D01*
X021049Y002639D02*
X021144Y002639D01*
X021157Y002647D02*
X021054Y002647D01*
X021060Y002656D02*
X021170Y002656D01*
X021183Y002664D02*
X021065Y002664D01*
X021071Y002673D02*
X021196Y002673D01*
X021208Y002681D02*
X021076Y002681D01*
X021081Y002690D02*
X021221Y002690D01*
X021234Y002698D02*
X021087Y002698D01*
X021092Y002707D02*
X021247Y002707D01*
X021260Y002715D02*
X021097Y002715D01*
X021103Y002724D02*
X021273Y002724D01*
X021286Y002732D02*
X021108Y002732D01*
X021114Y002741D02*
X021298Y002741D01*
X021311Y002749D02*
X021119Y002749D01*
X021124Y002758D02*
X021324Y002758D01*
X021337Y002766D02*
X021130Y002766D01*
X021135Y002775D02*
X021350Y002775D01*
X021363Y002783D02*
X021141Y002783D01*
X021146Y002792D02*
X021376Y002792D01*
X021388Y002800D02*
X021151Y002800D01*
X021157Y002809D02*
X021401Y002809D01*
X021414Y002817D02*
X021162Y002817D01*
X021168Y002826D02*
X021427Y002826D01*
X021440Y002834D02*
X021173Y002834D01*
X021178Y002843D02*
X021453Y002843D01*
X021465Y002851D02*
X021184Y002851D01*
X021189Y002860D02*
X021478Y002860D01*
X021491Y002868D02*
X021195Y002868D01*
X021200Y002877D02*
X021504Y002877D01*
X021517Y002885D02*
X021205Y002885D01*
X021211Y002894D02*
X021530Y002894D01*
X021543Y002902D02*
X021216Y002902D01*
X021222Y002911D02*
X021555Y002911D01*
X021568Y002919D02*
X021227Y002919D01*
X021232Y002928D02*
X021581Y002928D01*
X021590Y002783D02*
X021610Y002783D01*
X021622Y002775D02*
X021578Y002775D01*
X021566Y002766D02*
X021634Y002766D01*
X021646Y002758D02*
X021554Y002758D01*
X021541Y002749D02*
X021659Y002749D01*
X021671Y002741D02*
X021529Y002741D01*
X021517Y002732D02*
X021683Y002732D01*
X021695Y002724D02*
X021505Y002724D01*
X021501Y002715D02*
X021699Y002715D01*
X021697Y002707D02*
X021503Y002707D01*
X021505Y002698D02*
X021695Y002698D01*
X021693Y002690D02*
X021507Y002690D01*
X021509Y002681D02*
X021691Y002681D01*
X021689Y002673D02*
X021511Y002673D01*
X022020Y003070D02*
X021960Y003160D01*
X022020Y003250D01*
X022480Y003160D01*
X022020Y003070D01*
X022019Y003072D02*
X022031Y003072D01*
X022013Y003081D02*
X022074Y003081D01*
X022117Y003089D02*
X022007Y003089D01*
X022002Y003098D02*
X022161Y003098D01*
X022204Y003106D02*
X021996Y003106D01*
X021990Y003115D02*
X022248Y003115D01*
X022291Y003123D02*
X021985Y003123D01*
X021979Y003132D02*
X022335Y003132D01*
X022378Y003140D02*
X021973Y003140D01*
X021968Y003149D02*
X022422Y003149D01*
X022408Y003174D02*
X021969Y003174D01*
X021964Y003166D02*
X022452Y003166D01*
X022465Y003157D02*
X021962Y003157D01*
X021975Y003183D02*
X022365Y003183D01*
X022321Y003191D02*
X021981Y003191D01*
X021986Y003200D02*
X022278Y003200D01*
X022234Y003208D02*
X021992Y003208D01*
X021998Y003217D02*
X022191Y003217D01*
X022147Y003225D02*
X022003Y003225D01*
X022009Y003234D02*
X022104Y003234D01*
X022061Y003242D02*
X022015Y003242D01*
X020069Y002894D02*
X019800Y002894D01*
X019800Y002885D02*
X020060Y002885D01*
X020052Y002877D02*
X019800Y002877D01*
X019800Y002868D02*
X020043Y002868D01*
X020035Y002860D02*
X019800Y002860D01*
X019800Y002851D02*
X020026Y002851D01*
X020018Y002843D02*
X019800Y002843D01*
X019800Y002834D02*
X020009Y002834D01*
X020001Y002826D02*
X019800Y002826D01*
X019800Y002817D02*
X019992Y002817D01*
X019984Y002809D02*
X019800Y002809D01*
X019800Y002800D02*
X019975Y002800D01*
X019541Y003400D02*
X019515Y003400D01*
X019515Y003412D02*
X019549Y003412D01*
X019541Y003404D02*
X019541Y003400D01*
X019558Y003421D02*
X019515Y003421D01*
X019515Y003429D02*
X019566Y003429D01*
X019575Y003438D02*
X019515Y003438D01*
X019515Y003446D02*
X019583Y003446D01*
X019592Y003455D02*
X019515Y003455D01*
X019515Y003463D02*
X019600Y003463D01*
X019609Y003472D02*
X019515Y003472D01*
X019517Y003480D02*
X019617Y003480D01*
X019626Y003489D02*
X019525Y003489D01*
X019534Y003497D02*
X019634Y003497D01*
X019643Y003506D02*
X019542Y003506D01*
X019551Y003514D02*
X019651Y003514D01*
X019660Y003523D02*
X019559Y003523D01*
X019568Y003531D02*
X019668Y003531D01*
X019677Y003540D02*
X019576Y003540D01*
X019585Y003548D02*
X019685Y003548D01*
X019694Y003557D02*
X019593Y003557D01*
X019602Y003565D02*
X019702Y003565D01*
X019711Y003574D02*
X019610Y003574D01*
X019619Y003582D02*
X019716Y003582D01*
X019716Y003591D02*
X019627Y003591D01*
X019636Y003599D02*
X019716Y003599D01*
X019716Y003608D02*
X019644Y003608D01*
X019644Y003616D02*
X019716Y003616D01*
X019716Y003625D02*
X019644Y003625D01*
X019644Y003633D02*
X019716Y003633D01*
X019716Y003642D02*
X019644Y003642D01*
X019644Y003650D02*
X019716Y003650D01*
X019716Y003659D02*
X019644Y003659D01*
X019644Y003667D02*
X019716Y003667D01*
X019716Y003676D02*
X019644Y003676D01*
X019644Y003684D02*
X019716Y003684D01*
X019716Y003693D02*
X019644Y003693D01*
X019644Y003701D02*
X019716Y003701D01*
X019716Y003710D02*
X019644Y003710D01*
X019644Y003718D02*
X019716Y003718D01*
X019716Y003727D02*
X019644Y003727D01*
X019644Y003735D02*
X019718Y003735D01*
X019727Y003744D02*
X019644Y003744D01*
X019644Y003752D02*
X019735Y003752D01*
X019744Y003761D02*
X019644Y003761D01*
X019644Y003769D02*
X019752Y003769D01*
X019761Y003778D02*
X019644Y003778D01*
X019644Y003786D02*
X019769Y003786D01*
X019778Y003795D02*
X019642Y003795D01*
X019634Y003803D02*
X019786Y003803D01*
X019795Y003812D02*
X019625Y003812D01*
X019617Y003820D02*
X019803Y003820D01*
X019812Y003829D02*
X019608Y003829D01*
X019600Y003837D02*
X019820Y003837D01*
X019829Y003846D02*
X019591Y003846D01*
X019583Y003854D02*
X019837Y003854D01*
X019846Y003863D02*
X019574Y003863D01*
X008400Y003863D02*
X007250Y003863D01*
X007250Y003871D02*
X008400Y003871D01*
X008400Y003880D02*
X007250Y003880D01*
X007250Y003888D02*
X008400Y003888D01*
X008400Y003897D02*
X007250Y003897D01*
X007250Y003905D02*
X008400Y003905D01*
X008400Y003914D02*
X007250Y003914D01*
X007250Y003922D02*
X008400Y003922D01*
X008400Y003931D02*
X007250Y003931D01*
X007250Y003939D02*
X008400Y003939D01*
X008400Y003948D02*
X007250Y003948D01*
X007250Y003956D02*
X008400Y003956D01*
X008400Y003965D02*
X007250Y003965D01*
X007250Y003973D02*
X008400Y003973D01*
X008400Y003982D02*
X007250Y003982D01*
X007250Y003990D02*
X008400Y003990D01*
X008400Y003999D02*
X007250Y003999D01*
X007250Y004007D02*
X008400Y004007D01*
X008400Y004016D02*
X007250Y004016D01*
X007250Y004024D02*
X008400Y004024D01*
X008400Y004033D02*
X007250Y004033D01*
X007250Y004041D02*
X008400Y004041D01*
X008400Y004050D02*
X007250Y004050D01*
X007250Y004058D02*
X008400Y004058D01*
X008400Y004067D02*
X007250Y004067D01*
X007250Y004075D02*
X008400Y004075D01*
X008400Y004084D02*
X007250Y004084D01*
X007250Y004092D02*
X008400Y004092D01*
X008400Y004101D02*
X007250Y004101D01*
X007250Y004109D02*
X008400Y004109D01*
X008400Y004118D02*
X007250Y004118D01*
X007250Y004126D02*
X008400Y004126D01*
X008400Y004135D02*
X007250Y004135D01*
X007250Y004143D02*
X008400Y004143D01*
X008400Y004152D02*
X007250Y004152D01*
X007250Y004160D02*
X008400Y004160D01*
X008400Y004169D02*
X007250Y004169D01*
X007250Y004177D02*
X008400Y004177D01*
X008400Y004186D02*
X007250Y004186D01*
X007250Y004194D02*
X008400Y004194D01*
X008400Y004203D02*
X007250Y004203D01*
X007250Y004211D02*
X008400Y004211D01*
X008400Y004220D02*
X007250Y004220D01*
X007250Y004228D02*
X008400Y004228D01*
X008400Y004237D02*
X007250Y004237D01*
X007250Y004245D02*
X008400Y004245D01*
X008400Y004254D02*
X007250Y004254D01*
X007250Y004262D02*
X008400Y004262D01*
X008400Y004271D02*
X007250Y004271D01*
X007250Y004279D02*
X008400Y004279D01*
X008400Y004288D02*
X007250Y004288D01*
X007250Y004296D02*
X008400Y004296D01*
X008400Y004305D02*
X007250Y004305D01*
X007250Y004313D02*
X008400Y004313D01*
X008400Y004322D02*
X007250Y004322D01*
X007250Y004330D02*
X008400Y004330D01*
X008400Y004339D02*
X007250Y004339D01*
X007250Y004347D02*
X008400Y004347D01*
X008400Y004356D02*
X007250Y004356D01*
X007250Y004364D02*
X008400Y004364D01*
X008400Y004373D02*
X007250Y004373D01*
X007250Y004381D02*
X008400Y004381D01*
X008400Y004390D02*
X007250Y004390D01*
X007250Y004398D02*
X008400Y004398D01*
X008400Y004407D02*
X007250Y004407D01*
X007250Y004415D02*
X008400Y004415D01*
X008400Y004424D02*
X007250Y004424D01*
X007250Y004432D02*
X008400Y004432D01*
X008400Y004441D02*
X007250Y004441D01*
X007250Y004449D02*
X008400Y004449D01*
X008400Y004458D02*
X007250Y004458D01*
X007250Y004466D02*
X008400Y004466D01*
X008400Y004475D02*
X007250Y004475D01*
X007250Y004483D02*
X008400Y004483D01*
X008400Y004492D02*
X007250Y004492D01*
X007250Y004500D02*
X008400Y004500D01*
X008400Y004509D02*
X007250Y004509D01*
X007250Y004517D02*
X008400Y004517D01*
X008400Y004526D02*
X007250Y004526D01*
X007250Y004534D02*
X008400Y004534D01*
X008400Y004543D02*
X007250Y004543D01*
X007250Y004551D02*
X008400Y004551D01*
X008400Y004560D02*
X007250Y004560D01*
X007250Y004568D02*
X008400Y004568D01*
X008400Y004577D02*
X007250Y004577D01*
X007250Y004585D02*
X008400Y004585D01*
X008400Y004594D02*
X007250Y004594D01*
X007250Y004602D02*
X008400Y004602D01*
X008400Y004611D02*
X007250Y004611D01*
X007250Y004619D02*
X008400Y004619D01*
X008400Y004628D02*
X007250Y004628D01*
X007250Y004636D02*
X008400Y004636D01*
X008400Y004645D02*
X007250Y004645D01*
X007250Y004653D02*
X008400Y004653D01*
X008400Y004662D02*
X007250Y004662D01*
X007250Y004670D02*
X008400Y004670D01*
X008400Y004679D02*
X007250Y004679D01*
X007250Y004687D02*
X008400Y004687D01*
X008400Y004696D02*
X007250Y004696D01*
X007250Y004704D02*
X008400Y004704D01*
X008400Y004713D02*
X007250Y004713D01*
X007250Y004721D02*
X008400Y004721D01*
X008400Y004730D02*
X007250Y004730D01*
X007250Y004738D02*
X008400Y004738D01*
X008400Y004747D02*
X007250Y004747D01*
X007250Y004755D02*
X008400Y004755D01*
X008400Y004764D02*
X007250Y004764D01*
X007250Y004772D02*
X008400Y004772D01*
X008400Y004781D02*
X007250Y004781D01*
X007250Y004789D02*
X008400Y004789D01*
X008400Y004798D02*
X007250Y004798D01*
X007250Y004806D02*
X008400Y004806D01*
X008400Y004815D02*
X007250Y004815D01*
X007250Y004823D02*
X008400Y004823D01*
X008400Y004832D02*
X007250Y004832D01*
X007250Y004840D02*
X008400Y004840D01*
X008400Y004849D02*
X007250Y004849D01*
X007250Y004857D02*
X008400Y004857D01*
X008400Y004866D02*
X007250Y004866D01*
X007250Y004874D02*
X008400Y004874D01*
X008400Y004883D02*
X007250Y004883D01*
X007250Y004891D02*
X008400Y004891D01*
X008400Y004900D02*
X007250Y004900D01*
X008400Y004900D01*
X008400Y003600D01*
X007250Y003600D01*
X007250Y004900D01*
X007250Y003854D02*
X008400Y003854D01*
X008400Y003846D02*
X007250Y003846D01*
X007250Y003837D02*
X008400Y003837D01*
X008400Y003829D02*
X007250Y003829D01*
X007250Y003820D02*
X008400Y003820D01*
X008400Y003812D02*
X007250Y003812D01*
X007250Y003803D02*
X008400Y003803D01*
X008400Y003795D02*
X007250Y003795D01*
X007250Y003786D02*
X008400Y003786D01*
X008400Y003778D02*
X007250Y003778D01*
X007250Y003769D02*
X008400Y003769D01*
X008400Y003761D02*
X007250Y003761D01*
X007250Y003752D02*
X008400Y003752D01*
X008400Y003744D02*
X007250Y003744D01*
X007250Y003735D02*
X008400Y003735D01*
X008400Y003727D02*
X007250Y003727D01*
X007250Y003718D02*
X008400Y003718D01*
X008400Y003710D02*
X007250Y003710D01*
X007250Y003701D02*
X008400Y003701D01*
X008400Y003693D02*
X007250Y003693D01*
X007250Y003684D02*
X008400Y003684D01*
X008400Y003676D02*
X007250Y003676D01*
X007250Y003667D02*
X008400Y003667D01*
X008400Y003659D02*
X007250Y003659D01*
X007250Y003650D02*
X008400Y003650D01*
X008400Y003642D02*
X007250Y003642D01*
X007250Y003633D02*
X008400Y003633D01*
X008400Y003625D02*
X007250Y003625D01*
X007250Y003616D02*
X008400Y003616D01*
X008400Y003608D02*
X007250Y003608D01*
D31*
X004561Y001738D02*
X004245Y002101D01*
X004126Y002311D01*
X004014Y002577D01*
X003871Y003136D01*
X003843Y003712D01*
X003930Y004282D01*
X004065Y004649D01*
X004138Y004474D01*
X004374Y004238D01*
X004374Y004238D01*
X004667Y004117D01*
X004417Y004117D01*
X004381Y004107D01*
X004349Y004089D01*
X004323Y004063D01*
X004305Y004031D01*
X004295Y003995D01*
X004295Y003741D01*
X004710Y003741D01*
X004710Y003661D01*
X004790Y003661D01*
X004790Y003286D01*
X005083Y003286D01*
X005119Y003295D01*
X005151Y003314D01*
X005177Y003340D01*
X005195Y003372D01*
X005205Y003407D01*
X005205Y003661D01*
X004790Y003661D01*
X004790Y003741D01*
X005205Y003741D01*
X005205Y003995D01*
X005195Y004031D01*
X005177Y004063D01*
X005151Y004089D01*
X005119Y004107D01*
X005094Y004114D01*
X005389Y004172D01*
X005722Y004332D01*
X006005Y004568D01*
X006005Y004568D01*
X006081Y004673D01*
X006083Y004673D01*
X006115Y004720D01*
X006119Y004726D01*
X006269Y004930D01*
X006269Y004097D01*
X006566Y004097D01*
X006566Y005102D01*
X006410Y005102D01*
X006874Y005600D01*
X007483Y006078D01*
X008158Y006458D01*
X008884Y006730D01*
X009508Y006860D01*
X009430Y006782D01*
X009430Y006676D01*
X009427Y006680D01*
X009332Y006719D01*
X009228Y006719D01*
X009133Y006680D01*
X009074Y006620D01*
X008754Y006620D01*
X008660Y006526D01*
X008480Y006346D01*
X008347Y006214D01*
X008221Y006214D01*
X008163Y006155D01*
X008163Y005797D01*
X008221Y005738D01*
X008659Y005738D01*
X008710Y005790D01*
X008761Y005738D01*
X009199Y005738D01*
X009257Y005797D01*
X009257Y005826D01*
X009422Y005826D01*
X009540Y005708D01*
X009540Y005694D01*
X009620Y005614D01*
X009257Y005614D01*
X009257Y005643D01*
X009199Y005702D01*
X008761Y005702D01*
X008710Y005650D01*
X008659Y005702D01*
X008221Y005702D01*
X008163Y005643D01*
X008163Y005285D01*
X008221Y005226D01*
X008440Y005226D01*
X008440Y005005D01*
X007689Y005005D01*
X007632Y005062D01*
X007155Y005062D01*
X007097Y005004D01*
X007097Y004124D01*
X007094Y004116D01*
X007094Y002318D01*
X006764Y001988D01*
X006720Y001970D01*
X006630Y001880D01*
X006582Y001763D01*
X006582Y001637D01*
X006630Y001520D01*
X006720Y001430D01*
X006837Y001382D01*
X006963Y001382D01*
X007080Y001430D01*
X007170Y001520D01*
X007188Y001564D01*
X007648Y002024D01*
X007694Y002134D01*
X007694Y003495D01*
X008443Y003495D01*
X008505Y003557D01*
X008505Y003769D01*
X008534Y003740D01*
X008685Y003589D01*
X008846Y003589D01*
X008846Y003392D01*
X008904Y003334D01*
X009040Y003334D01*
X009040Y003258D01*
X009080Y003162D01*
X009186Y003056D01*
X009112Y003056D01*
X009054Y002997D01*
X009054Y002403D01*
X009112Y002344D01*
X009707Y002344D01*
X009765Y002403D01*
X009765Y002898D01*
X009853Y002900D01*
X009902Y002900D01*
X009905Y002901D01*
X009908Y002901D01*
X009953Y002921D01*
X009997Y002940D01*
X010000Y002942D01*
X010003Y002943D01*
X010036Y002979D01*
X010070Y003013D01*
X010072Y003016D01*
X010074Y003018D01*
X010091Y003064D01*
X010110Y003108D01*
X010110Y003112D01*
X010111Y003115D01*
X010110Y003163D01*
X010110Y003212D01*
X010109Y003215D01*
X010109Y003218D01*
X010089Y003263D01*
X010070Y003307D01*
X010068Y003310D01*
X010067Y003313D01*
X010031Y003346D01*
X009997Y003380D01*
X009994Y003382D01*
X009992Y003384D01*
X009946Y003401D01*
X009902Y003420D01*
X009898Y003420D01*
X009895Y003421D01*
X009847Y003420D01*
X009798Y003420D01*
X009795Y003419D01*
X009754Y003418D01*
X009754Y003560D01*
X009966Y003560D01*
X010060Y003654D01*
X010216Y003810D01*
X010216Y003862D01*
X010253Y003862D01*
X010253Y004169D01*
X010253Y004169D01*
X010253Y003862D01*
X010290Y003862D01*
X010290Y003053D01*
X010235Y002997D01*
X010235Y002403D01*
X010293Y002344D01*
X010888Y002344D01*
X010946Y002403D01*
X010946Y002997D01*
X010888Y003056D01*
X010610Y003056D01*
X010610Y003130D01*
X012198Y003130D01*
X011958Y002890D01*
X011598Y002890D01*
X011510Y002802D01*
X010878Y002170D01*
X009376Y002170D01*
X009307Y002240D01*
X009212Y002279D01*
X009108Y002279D01*
X009013Y002240D01*
X008940Y002167D01*
X008901Y002072D01*
X008901Y001968D01*
X008940Y001873D01*
X009013Y001800D01*
X009108Y001761D01*
X009212Y001761D01*
X009307Y001800D01*
X009376Y001870D01*
X011002Y001870D01*
X011090Y001958D01*
X011722Y002590D01*
X012082Y002590D01*
X012096Y002604D01*
X012130Y002523D01*
X012203Y002450D01*
X012298Y002410D01*
X012402Y002410D01*
X012496Y002449D01*
X011831Y002024D01*
X010888Y001596D01*
X009894Y001305D01*
X008868Y001158D01*
X008352Y001140D01*
X006046Y001268D01*
X006076Y001299D01*
X006076Y002720D01*
X006018Y002779D01*
X005305Y002779D01*
X005246Y002720D01*
X005246Y001966D01*
X005220Y002030D01*
X005130Y002120D01*
X005013Y002168D01*
X005010Y002168D01*
X005010Y002223D01*
X005106Y002223D01*
X005165Y002282D01*
X005165Y002916D01*
X005106Y002974D01*
X004394Y002974D01*
X004335Y002916D01*
X004335Y002282D01*
X004394Y002223D01*
X004490Y002223D01*
X004490Y001927D01*
X004613Y001713D01*
X004613Y001713D01*
X004613Y001713D01*
X004678Y001676D01*
X004680Y001670D01*
X004713Y001637D01*
X004561Y001738D01*
X004577Y001728D02*
X004605Y001728D01*
X004559Y001807D02*
X004502Y001807D01*
X004514Y001885D02*
X004434Y001885D01*
X004490Y001964D02*
X004365Y001964D01*
X004297Y002042D02*
X004490Y002042D01*
X004490Y002121D02*
X004234Y002121D01*
X004190Y002199D02*
X004490Y002199D01*
X004339Y002278D02*
X004145Y002278D01*
X004126Y002311D02*
X004126Y002311D01*
X004107Y002356D02*
X004335Y002356D01*
X004335Y002435D02*
X004074Y002435D01*
X004041Y002513D02*
X004335Y002513D01*
X004335Y002592D02*
X004010Y002592D01*
X003990Y002670D02*
X004335Y002670D01*
X004335Y002749D02*
X003970Y002749D01*
X003950Y002827D02*
X004335Y002827D01*
X004335Y002906D02*
X003930Y002906D01*
X003910Y002984D02*
X007094Y002984D01*
X007094Y002906D02*
X005165Y002906D01*
X005165Y002827D02*
X007094Y002827D01*
X007094Y002749D02*
X006048Y002749D01*
X006076Y002670D02*
X007094Y002670D01*
X007094Y002592D02*
X006076Y002592D01*
X006076Y002513D02*
X007094Y002513D01*
X007094Y002435D02*
X006076Y002435D01*
X006076Y002356D02*
X007094Y002356D01*
X007053Y002278D02*
X006076Y002278D01*
X006076Y002199D02*
X006975Y002199D01*
X006896Y002121D02*
X006076Y002121D01*
X006076Y002042D02*
X006818Y002042D01*
X006714Y001964D02*
X006076Y001964D01*
X006076Y001885D02*
X006635Y001885D01*
X006600Y001807D02*
X006076Y001807D01*
X006076Y001728D02*
X006582Y001728D01*
X006582Y001650D02*
X006076Y001650D01*
X006076Y001571D02*
X006609Y001571D01*
X006658Y001493D02*
X006076Y001493D01*
X006076Y001414D02*
X006759Y001414D01*
X007041Y001414D02*
X007924Y001414D01*
X007924Y001336D02*
X006076Y001336D01*
X006248Y001257D02*
X007965Y001257D01*
X007982Y001240D02*
X007924Y001299D01*
X007924Y002720D01*
X007982Y002779D01*
X008695Y002779D01*
X008754Y002720D01*
X008754Y001299D01*
X008695Y001240D01*
X007982Y001240D01*
X007924Y001493D02*
X007142Y001493D01*
X007195Y001571D02*
X007924Y001571D01*
X007924Y001650D02*
X007274Y001650D01*
X007352Y001728D02*
X007924Y001728D01*
X007924Y001807D02*
X007431Y001807D01*
X007509Y001885D02*
X007924Y001885D01*
X007924Y001964D02*
X007588Y001964D01*
X007656Y002042D02*
X007924Y002042D01*
X007924Y002121D02*
X007688Y002121D01*
X007694Y002199D02*
X007924Y002199D01*
X007924Y002278D02*
X007694Y002278D01*
X007694Y002356D02*
X007924Y002356D01*
X007924Y002435D02*
X007694Y002435D01*
X007694Y002513D02*
X007924Y002513D01*
X007924Y002592D02*
X007694Y002592D01*
X007694Y002670D02*
X007924Y002670D01*
X007952Y002749D02*
X007694Y002749D01*
X007694Y002827D02*
X009054Y002827D01*
X009054Y002749D02*
X008725Y002749D01*
X008754Y002670D02*
X009054Y002670D01*
X009054Y002592D02*
X008754Y002592D01*
X008754Y002513D02*
X009054Y002513D01*
X009054Y002435D02*
X008754Y002435D01*
X008754Y002356D02*
X009100Y002356D01*
X009105Y002278D02*
X008754Y002278D01*
X008754Y002199D02*
X008973Y002199D01*
X008921Y002121D02*
X008754Y002121D01*
X008754Y002042D02*
X008901Y002042D01*
X008903Y001964D02*
X008754Y001964D01*
X008754Y001885D02*
X008936Y001885D01*
X009007Y001807D02*
X008754Y001807D01*
X008754Y001728D02*
X011179Y001728D01*
X011352Y001807D02*
X009313Y001807D01*
X008754Y001650D02*
X011006Y001650D01*
X010803Y001571D02*
X008754Y001571D01*
X008754Y001493D02*
X010535Y001493D01*
X010266Y001414D02*
X008754Y001414D01*
X008754Y001336D02*
X009997Y001336D01*
X009557Y001257D02*
X008712Y001257D01*
X009008Y001179D02*
X007661Y001179D01*
X005246Y002042D02*
X005208Y002042D01*
X005246Y002121D02*
X005128Y002121D01*
X005010Y002199D02*
X005246Y002199D01*
X005246Y002278D02*
X005161Y002278D01*
X005165Y002356D02*
X005246Y002356D01*
X005246Y002435D02*
X005165Y002435D01*
X005165Y002513D02*
X005246Y002513D01*
X005246Y002592D02*
X005165Y002592D01*
X005165Y002670D02*
X005246Y002670D01*
X005275Y002749D02*
X005165Y002749D01*
X006279Y003097D02*
X006297Y003065D01*
X006323Y003039D01*
X006355Y003021D01*
X006391Y003011D01*
X006566Y003011D01*
X006566Y004017D01*
X006269Y004017D01*
X006269Y003133D01*
X006279Y003097D01*
X006300Y003063D02*
X003890Y003063D01*
X003871Y003141D02*
X006269Y003141D01*
X006269Y003220D02*
X003867Y003220D01*
X003863Y003298D02*
X004376Y003298D01*
X004381Y003295D02*
X004417Y003286D01*
X004710Y003286D01*
X004710Y003661D01*
X004295Y003661D01*
X004295Y003407D01*
X004305Y003372D01*
X004323Y003340D01*
X004349Y003314D01*
X004381Y003295D01*
X004303Y003377D02*
X003859Y003377D01*
X003856Y003455D02*
X004295Y003455D01*
X004295Y003534D02*
X003852Y003534D01*
X003848Y003612D02*
X004295Y003612D01*
X004295Y003769D02*
X003852Y003769D01*
X003844Y003691D02*
X004710Y003691D01*
X004710Y003612D02*
X004790Y003612D01*
X004790Y003534D02*
X004710Y003534D01*
X004710Y003455D02*
X004790Y003455D01*
X004790Y003377D02*
X004710Y003377D01*
X004710Y003298D02*
X004790Y003298D01*
X005124Y003298D02*
X006269Y003298D01*
X006269Y003377D02*
X005197Y003377D01*
X005205Y003455D02*
X006269Y003455D01*
X006269Y003534D02*
X005205Y003534D01*
X005205Y003612D02*
X006269Y003612D01*
X006269Y003691D02*
X004790Y003691D01*
X005205Y003769D02*
X006269Y003769D01*
X006269Y003848D02*
X005205Y003848D01*
X005205Y003926D02*
X006269Y003926D01*
X006269Y004005D02*
X005202Y004005D01*
X005157Y004083D02*
X006566Y004083D01*
X006566Y004097D02*
X006566Y004017D01*
X006646Y004017D01*
X006646Y003011D01*
X006822Y003011D01*
X006857Y003021D01*
X006889Y003039D01*
X006915Y003065D01*
X006934Y003097D01*
X006943Y003133D01*
X006943Y004017D01*
X006646Y004017D01*
X006646Y004097D01*
X006566Y004097D01*
X006566Y004162D02*
X006646Y004162D01*
X006646Y004097D02*
X006646Y005102D01*
X006822Y005102D01*
X006857Y005093D01*
X006889Y005074D01*
X006915Y005048D01*
X006934Y005016D01*
X006943Y004981D01*
X006943Y004097D01*
X006646Y004097D01*
X006646Y004083D02*
X007094Y004083D01*
X007094Y004005D02*
X006943Y004005D01*
X006943Y003926D02*
X007094Y003926D01*
X007094Y003848D02*
X006943Y003848D01*
X006943Y003769D02*
X007094Y003769D01*
X007094Y003691D02*
X006943Y003691D01*
X006943Y003612D02*
X007094Y003612D01*
X007094Y003534D02*
X006943Y003534D01*
X006943Y003455D02*
X007094Y003455D01*
X007094Y003377D02*
X006943Y003377D01*
X006943Y003298D02*
X007094Y003298D01*
X007094Y003220D02*
X006943Y003220D01*
X006943Y003141D02*
X007094Y003141D01*
X007094Y003063D02*
X006912Y003063D01*
X006646Y003063D02*
X006566Y003063D01*
X006566Y003141D02*
X006646Y003141D01*
X006646Y003220D02*
X006566Y003220D01*
X006566Y003298D02*
X006646Y003298D01*
X006646Y003377D02*
X006566Y003377D01*
X006566Y003455D02*
X006646Y003455D01*
X006646Y003534D02*
X006566Y003534D01*
X006566Y003612D02*
X006646Y003612D01*
X006646Y003691D02*
X006566Y003691D01*
X006566Y003769D02*
X006646Y003769D01*
X006646Y003848D02*
X006566Y003848D01*
X006566Y003926D02*
X006646Y003926D01*
X006646Y004005D02*
X006566Y004005D01*
X006566Y004240D02*
X006646Y004240D01*
X006646Y004319D02*
X006566Y004319D01*
X006566Y004397D02*
X006646Y004397D01*
X006646Y004476D02*
X006566Y004476D01*
X006566Y004554D02*
X006646Y004554D01*
X006646Y004633D02*
X006566Y004633D01*
X006566Y004711D02*
X006646Y004711D01*
X006646Y004790D02*
X006566Y004790D01*
X006566Y004868D02*
X006646Y004868D01*
X006646Y004947D02*
X006566Y004947D01*
X006566Y005025D02*
X006646Y005025D01*
X006485Y005182D02*
X008440Y005182D01*
X008440Y005104D02*
X006411Y005104D01*
X006558Y005261D02*
X008187Y005261D01*
X008163Y005339D02*
X006631Y005339D01*
X006704Y005418D02*
X008163Y005418D01*
X008163Y005496D02*
X006778Y005496D01*
X006851Y005575D02*
X008163Y005575D01*
X008173Y005653D02*
X006942Y005653D01*
X007042Y005732D02*
X009516Y005732D01*
X009581Y005653D02*
X009247Y005653D01*
X009257Y005810D02*
X009438Y005810D01*
X009730Y006242D02*
X009730Y006650D01*
X010066Y006650D01*
X010066Y006591D01*
X010125Y006533D01*
X010483Y006533D01*
X010542Y006591D01*
X010542Y006915D01*
X010578Y006911D01*
X010578Y006591D01*
X010637Y006533D01*
X010957Y006533D01*
X010982Y006508D01*
X010932Y006458D01*
X010908Y006482D01*
X010876Y006500D01*
X010841Y006510D01*
X010720Y006510D01*
X010720Y006143D01*
X010675Y006143D01*
X010675Y006510D01*
X010554Y006510D01*
X010518Y006500D01*
X010486Y006482D01*
X010474Y006470D01*
X010176Y006470D01*
X010118Y006411D01*
X010118Y006329D01*
X010107Y006340D01*
X010012Y006379D01*
X009908Y006379D01*
X009813Y006340D01*
X009740Y006267D01*
X009730Y006242D01*
X009730Y006281D02*
X009755Y006281D01*
X009730Y006360D02*
X009861Y006360D01*
X009730Y006438D02*
X010144Y006438D01*
X010118Y006360D02*
X010059Y006360D01*
X010066Y006595D02*
X009730Y006595D01*
X009730Y006517D02*
X010973Y006517D01*
X010720Y006438D02*
X010675Y006438D01*
X010675Y006360D02*
X010720Y006360D01*
X010720Y006281D02*
X010675Y006281D01*
X010675Y006203D02*
X010720Y006203D01*
X010578Y006595D02*
X010542Y006595D01*
X010542Y006674D02*
X010578Y006674D01*
X010578Y006752D02*
X010542Y006752D01*
X010542Y006831D02*
X010578Y006831D01*
X010578Y006909D02*
X010542Y006909D01*
X009478Y006831D02*
X009366Y006831D01*
X009430Y006752D02*
X008988Y006752D01*
X009127Y006674D02*
X008732Y006674D01*
X008729Y006595D02*
X008523Y006595D01*
X008650Y006517D02*
X008314Y006517D01*
X008122Y006438D02*
X008572Y006438D01*
X008493Y006360D02*
X007983Y006360D01*
X007843Y006281D02*
X008415Y006281D01*
X008480Y006346D02*
X008480Y006346D01*
X008210Y006203D02*
X007704Y006203D01*
X007564Y006124D02*
X008163Y006124D01*
X008163Y006046D02*
X007441Y006046D01*
X007342Y005967D02*
X008163Y005967D01*
X008163Y005889D02*
X007242Y005889D01*
X007142Y005810D02*
X008163Y005810D01*
X008707Y005653D02*
X008713Y005653D01*
X008760Y005228D02*
X008761Y005226D01*
X008819Y005226D01*
X008815Y005220D01*
X008806Y005185D01*
X008806Y004891D01*
X009260Y004891D01*
X009260Y004811D01*
X009340Y004811D01*
X009340Y004396D01*
X009673Y004396D01*
X009708Y004406D01*
X009740Y004424D01*
X009766Y004450D01*
X009770Y004456D01*
X009838Y004456D01*
X009838Y004407D01*
X009847Y004371D01*
X009866Y004339D01*
X009892Y004313D01*
X009898Y004310D01*
X009898Y004237D01*
X009896Y004236D01*
X009896Y003943D01*
X009834Y003880D01*
X009754Y003880D01*
X009754Y004105D01*
X009696Y004164D01*
X008904Y004164D01*
X008846Y004105D01*
X008846Y003909D01*
X008817Y003909D01*
X008760Y003966D01*
X008760Y005228D01*
X008760Y005182D02*
X008806Y005182D01*
X008806Y005104D02*
X008760Y005104D01*
X008760Y005025D02*
X008806Y005025D01*
X008806Y004947D02*
X008760Y004947D01*
X008760Y004868D02*
X009260Y004868D01*
X009260Y004891D02*
X009260Y005306D01*
X009257Y005306D01*
X009257Y005314D01*
X009861Y005314D01*
X009898Y005277D01*
X009898Y005190D01*
X009892Y005187D01*
X009866Y005161D01*
X009847Y005129D01*
X009838Y005093D01*
X009838Y005044D01*
X009794Y005044D01*
X009794Y005185D01*
X009785Y005220D01*
X009766Y005252D01*
X009740Y005278D01*
X009708Y005297D01*
X009673Y005306D01*
X009340Y005306D01*
X009340Y004891D01*
X009582Y004891D01*
X009582Y004848D01*
X009582Y004811D01*
X009340Y004811D01*
X009340Y004891D01*
X009260Y004891D01*
X009260Y004947D02*
X009340Y004947D01*
X009340Y005025D02*
X009260Y005025D01*
X009260Y005104D02*
X009340Y005104D01*
X009340Y005182D02*
X009260Y005182D01*
X009260Y005261D02*
X009340Y005261D01*
X009340Y004868D02*
X009582Y004868D01*
X009582Y004848D02*
X009838Y004848D01*
X009582Y004848D01*
X009340Y004790D02*
X009260Y004790D01*
X009260Y004811D02*
X009260Y004396D01*
X008927Y004396D01*
X008892Y004406D01*
X008860Y004424D01*
X008834Y004450D01*
X008815Y004482D01*
X008806Y004518D01*
X008806Y004811D01*
X009260Y004811D01*
X009260Y004711D02*
X009340Y004711D01*
X009340Y004633D02*
X009260Y004633D01*
X009260Y004554D02*
X009340Y004554D01*
X009340Y004476D02*
X009260Y004476D01*
X009260Y004397D02*
X009340Y004397D01*
X009676Y004397D02*
X009840Y004397D01*
X009886Y004319D02*
X008760Y004319D01*
X008760Y004397D02*
X008924Y004397D01*
X008819Y004476D02*
X008760Y004476D01*
X008760Y004554D02*
X008806Y004554D01*
X008806Y004633D02*
X008760Y004633D01*
X008760Y004711D02*
X008806Y004711D01*
X008806Y004790D02*
X008760Y004790D01*
X008440Y005025D02*
X007669Y005025D01*
X007118Y005025D02*
X006929Y005025D01*
X006943Y004947D02*
X007097Y004947D01*
X007097Y004868D02*
X006943Y004868D01*
X006943Y004790D02*
X007097Y004790D01*
X007097Y004711D02*
X006943Y004711D01*
X006943Y004633D02*
X007097Y004633D01*
X007097Y004554D02*
X006943Y004554D01*
X006943Y004476D02*
X007097Y004476D01*
X007097Y004397D02*
X006943Y004397D01*
X006943Y004319D02*
X007097Y004319D01*
X007097Y004240D02*
X006943Y004240D01*
X006943Y004162D02*
X007097Y004162D01*
X006269Y004162D02*
X005334Y004162D01*
X005389Y004172D02*
X005389Y004172D01*
X005530Y004240D02*
X006269Y004240D01*
X006269Y004319D02*
X005694Y004319D01*
X005722Y004332D02*
X005722Y004332D01*
X005800Y004397D02*
X006269Y004397D01*
X006269Y004476D02*
X005894Y004476D01*
X005988Y004554D02*
X006269Y004554D01*
X006269Y004633D02*
X006052Y004633D01*
X006005Y004568D02*
X006005Y004568D01*
X006109Y004711D02*
X006269Y004711D01*
X006269Y004790D02*
X006166Y004790D01*
X006224Y004868D02*
X006269Y004868D01*
X004372Y004240D02*
X003924Y004240D01*
X003912Y004162D02*
X004559Y004162D01*
X004343Y004083D02*
X003900Y004083D01*
X003888Y004005D02*
X004298Y004005D01*
X004295Y003926D02*
X003876Y003926D01*
X003864Y003848D02*
X004295Y003848D01*
X004294Y004319D02*
X003944Y004319D01*
X003973Y004397D02*
X004215Y004397D01*
X004138Y004474D02*
X004138Y004474D01*
X004137Y004476D02*
X004002Y004476D01*
X004031Y004554D02*
X004105Y004554D01*
X004072Y004633D02*
X004059Y004633D01*
X007694Y003455D02*
X008846Y003455D01*
X008846Y003534D02*
X008482Y003534D01*
X008505Y003612D02*
X008662Y003612D01*
X008583Y003691D02*
X008505Y003691D01*
X008800Y003926D02*
X008846Y003926D01*
X008846Y004005D02*
X008760Y004005D01*
X008760Y004083D02*
X008846Y004083D01*
X008902Y004162D02*
X008760Y004162D01*
X008760Y004240D02*
X009898Y004240D01*
X009896Y004162D02*
X009698Y004162D01*
X009754Y004083D02*
X009896Y004083D01*
X009896Y004005D02*
X009754Y004005D01*
X009754Y003926D02*
X009880Y003926D01*
X010097Y003691D02*
X010290Y003691D01*
X010290Y003769D02*
X010175Y003769D01*
X010216Y003848D02*
X010290Y003848D01*
X010253Y003926D02*
X010253Y003926D01*
X010253Y004005D02*
X010253Y004005D01*
X010253Y004083D02*
X010253Y004083D01*
X010253Y004162D02*
X010253Y004162D01*
X011025Y004329D02*
X011034Y004339D01*
X011053Y004371D01*
X011062Y004407D01*
X011062Y004456D01*
X011197Y004456D01*
X011232Y004466D01*
X011264Y004484D01*
X011283Y004503D01*
X011283Y004435D01*
X011571Y004435D01*
X011571Y004684D01*
X011404Y004684D01*
X011369Y004674D01*
X011337Y004656D01*
X011318Y004637D01*
X011318Y004652D01*
X011318Y004725D01*
X011312Y004750D01*
X011318Y004775D01*
X011318Y004848D01*
X011062Y004848D01*
X011062Y004848D01*
X011318Y004848D01*
X011318Y004922D01*
X011309Y004958D01*
X011290Y004990D01*
X011264Y005016D01*
X011232Y005034D01*
X011197Y005044D01*
X011062Y005044D01*
X011062Y005093D01*
X011053Y005129D01*
X011034Y005161D01*
X011025Y005171D01*
X011217Y005171D01*
X011240Y005194D01*
X011434Y005000D01*
X011854Y005000D01*
X011990Y004864D01*
X011990Y004644D01*
X011931Y004644D01*
X011900Y004612D01*
X011889Y004630D01*
X011863Y004656D01*
X011831Y004674D01*
X011796Y004684D01*
X011629Y004684D01*
X011629Y004435D01*
X011571Y004435D01*
X011571Y004377D01*
X011283Y004377D01*
X011283Y004250D01*
X011288Y004230D01*
X011196Y004230D01*
X011097Y004329D01*
X011025Y004329D01*
X011060Y004397D02*
X011571Y004397D01*
X011571Y004476D02*
X011629Y004476D01*
X011629Y004554D02*
X011571Y004554D01*
X011571Y004633D02*
X011629Y004633D01*
X011886Y004633D02*
X011920Y004633D01*
X011990Y004711D02*
X011318Y004711D01*
X011318Y004652D02*
X011062Y004652D01*
X011062Y004652D01*
X011318Y004652D01*
X011318Y004790D02*
X011990Y004790D01*
X011986Y004868D02*
X011318Y004868D01*
X011312Y004947D02*
X011907Y004947D01*
X011409Y005025D02*
X011248Y005025D01*
X011330Y005104D02*
X011060Y005104D01*
X011228Y005182D02*
X011252Y005182D01*
X010763Y004790D02*
X010763Y004775D01*
X010769Y004750D01*
X010763Y004725D01*
X010763Y004710D01*
X010490Y004710D01*
X010490Y004790D01*
X010538Y004790D01*
X010578Y004750D01*
X010702Y004750D01*
X010742Y004790D01*
X010763Y004790D01*
X010742Y004790D01*
X010763Y004711D02*
X010490Y004711D01*
X010490Y004790D02*
X010538Y004790D01*
X010410Y004790D02*
X010137Y004790D01*
X010410Y004790D01*
X010410Y004710D01*
X010137Y004710D01*
X010137Y004725D01*
X010131Y004750D01*
X010137Y004775D01*
X010137Y004790D01*
X010137Y004711D02*
X010410Y004711D01*
X009838Y004848D02*
X009838Y004848D01*
X009840Y005104D02*
X009794Y005104D01*
X009794Y005182D02*
X009887Y005182D01*
X009898Y005261D02*
X009758Y005261D01*
X011249Y004476D02*
X011283Y004476D01*
X011283Y004319D02*
X011108Y004319D01*
X011186Y004240D02*
X011285Y004240D01*
X012950Y003714D02*
X013045Y003714D01*
X013103Y003772D01*
X013103Y004328D01*
X013047Y004384D01*
X013087Y004400D01*
X013160Y004473D01*
X013199Y004568D01*
X013199Y004667D01*
X013262Y004730D01*
X013262Y004730D01*
X013299Y004767D01*
X013399Y004767D01*
X013432Y004800D01*
X013442Y004781D01*
X013468Y004755D01*
X013500Y004736D01*
X013536Y004727D01*
X013673Y004727D01*
X013673Y005261D01*
X013751Y005261D01*
X013751Y005339D01*
X013963Y005339D01*
X014042Y005260D01*
X014858Y005260D01*
X014940Y005342D01*
X014940Y006788D01*
X015214Y006848D01*
X015984Y006928D01*
X016758Y006888D01*
X017516Y006730D01*
X018242Y006458D01*
X018917Y006078D01*
X019526Y005600D01*
X019707Y005405D01*
X019221Y005405D01*
X019166Y005460D01*
X017705Y005460D01*
X017705Y006243D01*
X017643Y006305D01*
X017234Y006305D01*
X017234Y006371D01*
X016985Y006371D01*
X016985Y006429D01*
X017234Y006429D01*
X017234Y006596D01*
X017224Y006631D01*
X017206Y006663D01*
X017180Y006689D01*
X017148Y006708D01*
X017112Y006717D01*
X016985Y006717D01*
X016985Y006429D01*
X016927Y006429D01*
X016927Y006717D01*
X016800Y006717D01*
X016764Y006708D01*
X016732Y006689D01*
X016706Y006663D01*
X016688Y006631D01*
X016682Y006610D01*
X016682Y006619D01*
X016623Y006677D01*
X016265Y006677D01*
X016206Y006619D01*
X016206Y006374D01*
X016100Y006268D01*
X015994Y006374D01*
X015994Y006619D01*
X015935Y006677D01*
X015577Y006677D01*
X015518Y006619D01*
X015518Y006610D01*
X015512Y006631D01*
X015494Y006663D01*
X015468Y006689D01*
X015436Y006708D01*
X015400Y006717D01*
X015273Y006717D01*
X015273Y006429D01*
X015215Y006429D01*
X015215Y006371D01*
X014966Y006371D01*
X014966Y006204D01*
X014976Y006169D01*
X014994Y006137D01*
X015020Y006111D01*
X015052Y006092D01*
X015088Y006083D01*
X015215Y006083D01*
X015215Y006371D01*
X015273Y006371D01*
X015273Y006083D01*
X015400Y006083D01*
X015436Y006092D01*
X015468Y006111D01*
X015494Y006137D01*
X015512Y006169D01*
X015518Y006190D01*
X015518Y006181D01*
X015577Y006123D01*
X015821Y006123D01*
X015853Y006091D01*
X015853Y006075D01*
X015806Y006075D01*
X015729Y006075D01*
X015693Y006065D01*
X015661Y006047D01*
X015635Y006021D01*
X015617Y005989D01*
X015607Y005953D01*
X015607Y005787D01*
X015607Y005621D01*
X015617Y005586D01*
X015620Y005580D01*
X015614Y005583D01*
X015579Y005593D01*
X015413Y005593D01*
X015413Y005394D01*
X015413Y005394D01*
X015413Y005593D01*
X015247Y005593D01*
X015211Y005583D01*
X015179Y005565D01*
X015153Y005539D01*
X015135Y005507D01*
X015125Y005471D01*
X015125Y005394D01*
X015413Y005394D01*
X015413Y005394D01*
X015125Y005394D01*
X015125Y005347D01*
X015035Y005347D01*
X014638Y004950D01*
X014438Y004750D01*
X014288Y004750D01*
X014188Y004650D01*
X014088Y004550D01*
X014000Y004462D01*
X014000Y003369D01*
X013943Y003369D01*
X013902Y003410D01*
X012950Y003410D01*
X012950Y003714D01*
X012950Y003691D02*
X013330Y003691D01*
X013343Y003683D02*
X013378Y003674D01*
X013516Y003674D01*
X013516Y004011D01*
X013593Y004011D01*
X013593Y003674D01*
X013730Y003674D01*
X013766Y003683D01*
X013798Y003702D01*
X013824Y003728D01*
X013842Y003760D01*
X013852Y003795D01*
X013852Y004011D01*
X013593Y004011D01*
X013593Y004089D01*
X013516Y004089D01*
X013516Y004426D01*
X013378Y004426D01*
X013343Y004417D01*
X013311Y004398D01*
X013285Y004372D01*
X013266Y004340D01*
X013257Y004305D01*
X013257Y004089D01*
X013516Y004089D01*
X013516Y004011D01*
X013257Y004011D01*
X013257Y003795D01*
X013266Y003760D01*
X013285Y003728D01*
X013311Y003702D01*
X013343Y003683D01*
X013264Y003769D02*
X013100Y003769D01*
X013103Y003848D02*
X013257Y003848D01*
X013257Y003926D02*
X013103Y003926D01*
X013103Y004005D02*
X013257Y004005D01*
X013257Y004162D02*
X013103Y004162D01*
X013103Y004240D02*
X013257Y004240D01*
X013261Y004319D02*
X013103Y004319D01*
X013079Y004397D02*
X013310Y004397D01*
X013161Y004476D02*
X014013Y004476D01*
X014000Y004397D02*
X013799Y004397D01*
X013798Y004398D02*
X013766Y004417D01*
X013730Y004426D01*
X013593Y004426D01*
X013593Y004089D01*
X013852Y004089D01*
X013852Y004305D01*
X013842Y004340D01*
X013824Y004372D01*
X013798Y004398D01*
X013848Y004319D02*
X014000Y004319D01*
X014000Y004240D02*
X013852Y004240D01*
X013852Y004162D02*
X014000Y004162D01*
X014000Y004083D02*
X013593Y004083D01*
X013516Y004083D02*
X013103Y004083D01*
X013516Y004005D02*
X013593Y004005D01*
X013593Y003926D02*
X013516Y003926D01*
X013516Y003848D02*
X013593Y003848D01*
X013593Y003769D02*
X013516Y003769D01*
X013516Y003691D02*
X013593Y003691D01*
X013778Y003691D02*
X014000Y003691D01*
X014000Y003769D02*
X013845Y003769D01*
X013852Y003848D02*
X014000Y003848D01*
X014000Y003926D02*
X013852Y003926D01*
X013852Y004005D02*
X014000Y004005D01*
X013593Y004162D02*
X013516Y004162D01*
X013516Y004240D02*
X013593Y004240D01*
X013593Y004319D02*
X013516Y004319D01*
X013516Y004397D02*
X013593Y004397D01*
X013193Y004554D02*
X014092Y004554D01*
X014170Y004633D02*
X013199Y004633D01*
X013243Y004711D02*
X014249Y004711D01*
X014477Y004790D02*
X013986Y004790D01*
X013981Y004781D02*
X014000Y004813D01*
X014009Y004848D01*
X014009Y005261D01*
X013751Y005261D01*
X013751Y004727D01*
X013888Y004727D01*
X013923Y004736D01*
X013955Y004755D01*
X013981Y004781D01*
X014009Y004868D02*
X014556Y004868D01*
X014634Y004947D02*
X014009Y004947D01*
X014009Y005025D02*
X014713Y005025D01*
X014791Y005104D02*
X014009Y005104D01*
X014009Y005182D02*
X014870Y005182D01*
X014859Y005261D02*
X014948Y005261D01*
X014937Y005339D02*
X015027Y005339D01*
X014940Y005418D02*
X015125Y005418D01*
X015132Y005496D02*
X014940Y005496D01*
X014940Y005575D02*
X015196Y005575D01*
X015413Y005575D02*
X015413Y005575D01*
X015413Y005496D02*
X015413Y005496D01*
X015413Y005418D02*
X015413Y005418D01*
X015409Y005200D02*
X015413Y005197D01*
X015409Y004800D02*
X015240Y004800D01*
X014041Y005261D02*
X014009Y005261D01*
X013751Y005261D02*
X013673Y005261D01*
X013673Y005182D02*
X013751Y005182D01*
X013751Y005104D02*
X013673Y005104D01*
X013673Y005025D02*
X013751Y005025D01*
X013751Y004947D02*
X013673Y004947D01*
X013673Y004868D02*
X013751Y004868D01*
X013751Y004790D02*
X013673Y004790D01*
X013437Y004790D02*
X013421Y004790D01*
X014940Y005653D02*
X015607Y005653D01*
X015607Y005732D02*
X014940Y005732D01*
X014940Y005810D02*
X015607Y005810D01*
X015607Y005787D02*
X015806Y005787D01*
X015607Y005787D01*
X015607Y005889D02*
X014940Y005889D01*
X014940Y005967D02*
X015611Y005967D01*
X015660Y006046D02*
X014940Y006046D01*
X014940Y006124D02*
X015007Y006124D01*
X014967Y006203D02*
X014940Y006203D01*
X014940Y006281D02*
X014966Y006281D01*
X014966Y006360D02*
X014940Y006360D01*
X014966Y006429D02*
X015215Y006429D01*
X015215Y006717D01*
X015088Y006717D01*
X015052Y006708D01*
X015020Y006689D01*
X014994Y006663D01*
X014976Y006631D01*
X014966Y006596D01*
X014966Y006429D01*
X014966Y006438D02*
X014940Y006438D01*
X014940Y006517D02*
X014966Y006517D01*
X014966Y006595D02*
X014940Y006595D01*
X014940Y006674D02*
X015005Y006674D01*
X014940Y006752D02*
X017412Y006752D01*
X017195Y006674D02*
X017668Y006674D01*
X017877Y006595D02*
X017234Y006595D01*
X017234Y006517D02*
X018086Y006517D01*
X018278Y006438D02*
X017234Y006438D01*
X017234Y006360D02*
X018417Y006360D01*
X018557Y006281D02*
X017667Y006281D01*
X017705Y006203D02*
X018696Y006203D01*
X018836Y006124D02*
X017705Y006124D01*
X017705Y006046D02*
X018959Y006046D01*
X019058Y005967D02*
X017705Y005967D01*
X017705Y005889D02*
X019158Y005889D01*
X019258Y005810D02*
X017705Y005810D01*
X017705Y005732D02*
X019358Y005732D01*
X019458Y005653D02*
X017705Y005653D01*
X017705Y005575D02*
X019549Y005575D01*
X019622Y005496D02*
X017705Y005496D01*
X019209Y005418D02*
X019696Y005418D01*
X022026Y004238D02*
X022262Y004474D01*
X022262Y004474D01*
X022335Y004649D01*
X022470Y004282D01*
X022557Y003712D01*
X022535Y003256D01*
X022521Y003259D01*
X022503Y003271D01*
X022480Y003267D01*
X022073Y003347D01*
X022286Y003684D01*
X022302Y003694D01*
X022308Y003719D01*
X022322Y003741D01*
X022318Y003760D01*
X022322Y003779D01*
X022309Y003800D01*
X022303Y003825D01*
X022286Y003836D01*
X022276Y003852D01*
X022251Y003858D01*
X022229Y003872D01*
X022210Y003868D01*
X022191Y003872D01*
X022170Y003859D01*
X022145Y003853D01*
X022134Y003836D01*
X021797Y003627D01*
X021707Y004040D01*
X021712Y004060D01*
X021699Y004081D01*
X021693Y004105D01*
X021685Y004110D01*
X021717Y004110D01*
X022026Y004238D01*
X022026Y004238D01*
X022028Y004240D02*
X022476Y004240D01*
X022488Y004162D02*
X021841Y004162D01*
X021698Y004083D02*
X022500Y004083D01*
X022512Y004005D02*
X021715Y004005D01*
X021732Y003926D02*
X022524Y003926D01*
X022536Y003848D02*
X022279Y003848D01*
X022320Y003769D02*
X022548Y003769D01*
X022556Y003691D02*
X022297Y003691D01*
X022241Y003612D02*
X022552Y003612D01*
X022548Y003534D02*
X022191Y003534D01*
X022141Y003455D02*
X022544Y003455D01*
X022541Y003377D02*
X022091Y003377D01*
X022321Y003298D02*
X022537Y003298D01*
X022507Y003052D02*
X022386Y002577D01*
X022274Y002311D01*
X022155Y002101D01*
X021839Y001738D01*
X021438Y001471D01*
X020982Y001319D01*
X020742Y001290D01*
X020717Y001288D01*
X020561Y001280D01*
X020597Y001287D01*
X020662Y001314D01*
X020721Y001353D01*
X020771Y001403D01*
X020810Y001462D01*
X020837Y001527D01*
X020851Y001596D01*
X020851Y001841D01*
X020502Y001841D01*
X020502Y001859D01*
X020851Y001859D01*
X020851Y002104D01*
X020837Y002173D01*
X020810Y002238D01*
X020771Y002297D01*
X020721Y002347D01*
X020662Y002386D01*
X020597Y002413D01*
X020528Y002427D01*
X020502Y002427D01*
X020502Y001859D01*
X020483Y001859D01*
X020483Y002427D01*
X020457Y002427D01*
X020388Y002413D01*
X020323Y002386D01*
X020264Y002347D01*
X020214Y002297D01*
X020189Y002259D01*
X020189Y002265D01*
X020130Y002324D01*
X019457Y002324D01*
X019402Y002269D01*
X019343Y002328D01*
X018670Y002328D01*
X018611Y002269D01*
X018611Y002259D01*
X018586Y002297D01*
X018536Y002347D01*
X018477Y002386D01*
X018412Y002413D01*
X018343Y002427D01*
X018317Y002427D01*
X018317Y001859D01*
X018298Y001859D01*
X018298Y001841D01*
X017949Y001841D01*
X017949Y001596D01*
X017963Y001527D01*
X017990Y001462D01*
X018029Y001403D01*
X018079Y001353D01*
X018138Y001314D01*
X018203Y001287D01*
X018272Y001273D01*
X018298Y001273D01*
X018298Y001841D01*
X018317Y001841D01*
X018317Y001273D01*
X018343Y001273D01*
X018412Y001287D01*
X018477Y001314D01*
X018536Y001353D01*
X018586Y001403D01*
X018611Y001441D01*
X018611Y001438D01*
X018670Y001380D01*
X019343Y001380D01*
X019398Y001435D01*
X019398Y001435D01*
X019457Y001376D01*
X020130Y001376D01*
X020189Y001435D01*
X020189Y001441D01*
X020214Y001403D01*
X020264Y001353D01*
X020323Y001314D01*
X020388Y001287D01*
X020454Y001274D01*
X018048Y001140D01*
X017532Y001158D01*
X017532Y001158D01*
X016506Y001305D01*
X015512Y001596D01*
X014569Y002024D01*
X014231Y002240D01*
X014302Y002240D01*
X014373Y002269D01*
X014373Y002265D01*
X014431Y002206D01*
X014869Y002206D01*
X014900Y002238D01*
X014931Y002206D01*
X014935Y002206D01*
X014900Y002122D01*
X014900Y002018D01*
X014940Y001923D01*
X015013Y001850D01*
X015108Y001810D01*
X015212Y001810D01*
X015307Y001850D01*
X015380Y001923D01*
X015420Y002018D01*
X015420Y002122D01*
X015380Y002217D01*
X015380Y002218D01*
X015400Y002238D01*
X015431Y002206D01*
X015500Y002206D01*
X015500Y002162D01*
X015716Y001946D01*
X015716Y001701D01*
X015775Y001643D01*
X016133Y001643D01*
X016192Y001701D01*
X016192Y001710D01*
X016198Y001689D01*
X016216Y001657D01*
X016242Y001631D01*
X016274Y001612D01*
X016310Y001603D01*
X016437Y001603D01*
X016437Y001891D01*
X016495Y001891D01*
X016495Y001949D01*
X016744Y001949D01*
X016744Y002116D01*
X016734Y002151D01*
X016725Y002166D01*
X016846Y002166D01*
X016850Y002167D01*
X016850Y002050D01*
X016806Y002050D01*
X016748Y001991D01*
X016748Y001409D01*
X016806Y001350D01*
X017139Y001350D01*
X017150Y001361D01*
X017161Y001350D01*
X017494Y001350D01*
X017552Y001409D01*
X017552Y001991D01*
X017494Y002050D01*
X017450Y002050D01*
X017450Y002062D01*
X017350Y002162D01*
X017350Y002167D01*
X017354Y002166D01*
X017521Y002166D01*
X017521Y002415D01*
X017579Y002415D01*
X017579Y002166D01*
X017746Y002166D01*
X017781Y002176D01*
X017813Y002194D01*
X017839Y002220D01*
X017858Y002252D01*
X017867Y002288D01*
X017867Y002415D01*
X017579Y002415D01*
X017579Y002473D01*
X017867Y002473D01*
X017867Y002600D01*
X017858Y002636D01*
X017839Y002668D01*
X017813Y002694D01*
X017781Y002712D01*
X017760Y002718D01*
X017769Y002718D01*
X017827Y002777D01*
X017827Y003135D01*
X017800Y003162D01*
X017800Y003295D01*
X018748Y003295D01*
X018723Y003281D01*
X018697Y003255D01*
X018679Y003223D01*
X018669Y003187D01*
X018669Y002935D01*
X018581Y002935D01*
X018486Y002896D01*
X018413Y002823D01*
X018374Y002728D01*
X018374Y002625D01*
X018413Y002531D01*
X018486Y002458D01*
X018581Y002419D01*
X018684Y002419D01*
X018778Y002458D01*
X018818Y002497D01*
X018888Y002497D01*
X018888Y002620D01*
X018888Y002620D01*
X018888Y002497D01*
X018985Y002497D01*
X019021Y002507D01*
X019053Y002525D01*
X019065Y002537D01*
X019264Y002537D01*
X019272Y002545D01*
X019280Y002537D01*
X019520Y002537D01*
X019528Y002545D01*
X019536Y002537D01*
X019776Y002537D01*
X019784Y002545D01*
X019792Y002537D01*
X019946Y002537D01*
X019949Y002531D01*
X020022Y002458D01*
X020116Y002419D01*
X020219Y002419D01*
X020314Y002458D01*
X020387Y002531D01*
X020426Y002625D01*
X020426Y002695D01*
X020743Y002695D01*
X020805Y002757D01*
X020805Y003040D01*
X021136Y002972D01*
X020903Y002605D01*
X020886Y002594D01*
X020881Y002570D01*
X020868Y002550D01*
X020873Y002529D01*
X020868Y002508D01*
X020882Y002488D01*
X020887Y002465D01*
X020905Y002453D01*
X020916Y002436D01*
X020940Y002431D01*
X020960Y002418D01*
X020981Y002423D01*
X021002Y002418D01*
X021022Y002432D01*
X021045Y002437D01*
X021057Y002455D01*
X021399Y002681D01*
X021402Y002677D01*
X021492Y002280D01*
X021488Y002261D01*
X021502Y002239D01*
X021507Y002214D01*
X021524Y002204D01*
X021534Y002187D01*
X021559Y002182D01*
X021581Y002168D01*
X021600Y002172D01*
X021619Y002168D01*
X021641Y002182D01*
X021666Y002187D01*
X021676Y002204D01*
X021693Y002214D01*
X021698Y002239D01*
X021712Y002261D01*
X021708Y002280D01*
X021798Y002677D01*
X021802Y002682D01*
X022133Y002465D01*
X022143Y002448D01*
X022168Y002442D01*
X022189Y002428D01*
X022208Y002432D01*
X022228Y002428D01*
X022249Y002441D01*
X022274Y002446D01*
X022285Y002463D01*
X022302Y002473D01*
X022308Y002498D01*
X022322Y002519D01*
X022318Y002538D01*
X022322Y002558D01*
X022309Y002579D01*
X022304Y002604D01*
X022287Y002615D01*
X022068Y002972D01*
X022480Y003053D01*
X022503Y003049D01*
X022507Y003052D01*
X022490Y002984D02*
X022127Y002984D01*
X022109Y002906D02*
X022470Y002906D01*
X022450Y002827D02*
X022157Y002827D01*
X022205Y002749D02*
X022430Y002749D01*
X022410Y002670D02*
X022253Y002670D01*
X022307Y002592D02*
X022390Y002592D01*
X022359Y002513D02*
X022318Y002513D01*
X022326Y002435D02*
X022239Y002435D01*
X022179Y002435D02*
X021743Y002435D01*
X021761Y002513D02*
X022060Y002513D01*
X021940Y002592D02*
X021778Y002592D01*
X021796Y002670D02*
X021820Y002670D01*
X021725Y002356D02*
X022293Y002356D01*
X022255Y002278D02*
X021708Y002278D01*
X021673Y002199D02*
X022210Y002199D01*
X022166Y002121D02*
X020848Y002121D01*
X020851Y002042D02*
X022103Y002042D01*
X022035Y001964D02*
X020851Y001964D01*
X020851Y001885D02*
X021966Y001885D01*
X021898Y001807D02*
X020851Y001807D01*
X020851Y001728D02*
X021823Y001728D01*
X021705Y001650D02*
X020851Y001650D01*
X020846Y001571D02*
X021588Y001571D01*
X021470Y001493D02*
X020823Y001493D01*
X020778Y001414D02*
X021266Y001414D01*
X021031Y001336D02*
X020695Y001336D01*
X020290Y001336D02*
X018510Y001336D01*
X018593Y001414D02*
X018636Y001414D01*
X018739Y001179D02*
X017392Y001179D01*
X017552Y001414D02*
X018022Y001414D01*
X017977Y001493D02*
X017552Y001493D01*
X017552Y001571D02*
X017954Y001571D01*
X017949Y001650D02*
X017552Y001650D01*
X017552Y001728D02*
X017949Y001728D01*
X017949Y001807D02*
X017552Y001807D01*
X017552Y001885D02*
X017949Y001885D01*
X017949Y001859D02*
X018298Y001859D01*
X018298Y002427D01*
X018272Y002427D01*
X018203Y002413D01*
X018138Y002386D01*
X018079Y002347D01*
X018029Y002297D01*
X017990Y002238D01*
X017963Y002173D01*
X017949Y002104D01*
X017949Y001859D01*
X017949Y001964D02*
X017552Y001964D01*
X017502Y002042D02*
X017949Y002042D01*
X017952Y002121D02*
X017392Y002121D01*
X017521Y002199D02*
X017579Y002199D01*
X017579Y002278D02*
X017521Y002278D01*
X017521Y002356D02*
X017579Y002356D01*
X017579Y002435D02*
X018543Y002435D01*
X018522Y002356D02*
X020278Y002356D01*
X020257Y002435D02*
X020923Y002435D01*
X020869Y002513D02*
X020369Y002513D01*
X020412Y002592D02*
X020885Y002592D01*
X020945Y002670D02*
X020426Y002670D01*
X020483Y002356D02*
X020502Y002356D01*
X020502Y002278D02*
X020483Y002278D01*
X020483Y002199D02*
X020502Y002199D01*
X020502Y002121D02*
X020483Y002121D01*
X020483Y002042D02*
X020502Y002042D01*
X020502Y001964D02*
X020483Y001964D01*
X020483Y001885D02*
X020502Y001885D01*
X020826Y002199D02*
X021527Y002199D01*
X021492Y002278D02*
X020784Y002278D01*
X020707Y002356D02*
X021475Y002356D01*
X021457Y002435D02*
X021034Y002435D01*
X021145Y002513D02*
X021439Y002513D01*
X021422Y002592D02*
X021263Y002592D01*
X021382Y002670D02*
X021404Y002670D01*
X021094Y002906D02*
X020805Y002906D01*
X020805Y002984D02*
X021076Y002984D01*
X021044Y002827D02*
X020805Y002827D01*
X020797Y002749D02*
X020994Y002749D01*
X020201Y002278D02*
X020177Y002278D01*
X020078Y002435D02*
X018722Y002435D01*
X018888Y002513D02*
X018888Y002513D01*
X018888Y002592D02*
X018888Y002592D01*
X019031Y002513D02*
X019966Y002513D01*
X019410Y002278D02*
X019393Y002278D01*
X019402Y002269D02*
X019402Y002269D01*
X018619Y002278D02*
X018599Y002278D01*
X018317Y002278D02*
X018298Y002278D01*
X018298Y002356D02*
X018317Y002356D01*
X018317Y002199D02*
X018298Y002199D01*
X018298Y002121D02*
X018317Y002121D01*
X018317Y002042D02*
X018298Y002042D01*
X018298Y001964D02*
X018317Y001964D01*
X018317Y001885D02*
X018298Y001885D01*
X018298Y001807D02*
X018317Y001807D01*
X018317Y001728D02*
X018298Y001728D01*
X018298Y001650D02*
X018317Y001650D01*
X018317Y001571D02*
X018298Y001571D01*
X018298Y001493D02*
X018317Y001493D01*
X018317Y001414D02*
X018298Y001414D01*
X018298Y001336D02*
X018317Y001336D01*
X018105Y001336D02*
X016403Y001336D01*
X016134Y001414D02*
X016748Y001414D01*
X016748Y001493D02*
X015865Y001493D01*
X015768Y001650D02*
X015394Y001650D01*
X015221Y001728D02*
X015716Y001728D01*
X015716Y001807D02*
X015048Y001807D01*
X014977Y001885D02*
X014875Y001885D01*
X014923Y001964D02*
X014703Y001964D01*
X014541Y002042D02*
X014900Y002042D01*
X014900Y002121D02*
X014418Y002121D01*
X014295Y002199D02*
X014932Y002199D01*
X015388Y002199D02*
X015500Y002199D01*
X015541Y002121D02*
X015420Y002121D01*
X015420Y002042D02*
X015620Y002042D01*
X015698Y001964D02*
X015397Y001964D01*
X015343Y001885D02*
X015716Y001885D01*
X016140Y001650D02*
X016223Y001650D01*
X016437Y001650D02*
X016495Y001650D01*
X016495Y001603D02*
X016622Y001603D01*
X016658Y001612D01*
X016690Y001631D01*
X016716Y001657D01*
X016734Y001689D01*
X016744Y001724D01*
X016744Y001891D01*
X016495Y001891D01*
X016495Y001603D01*
X016495Y001728D02*
X016437Y001728D01*
X016437Y001807D02*
X016495Y001807D01*
X016495Y001885D02*
X016437Y001885D01*
X016744Y001885D02*
X016748Y001885D01*
X016744Y001807D02*
X016748Y001807D01*
X016744Y001728D02*
X016748Y001728D01*
X016748Y001650D02*
X016708Y001650D01*
X016748Y001571D02*
X015597Y001571D01*
X016744Y001964D02*
X016748Y001964D01*
X016744Y002042D02*
X016798Y002042D01*
X016850Y002121D02*
X016742Y002121D01*
X016621Y002415D02*
X016333Y002415D01*
X016179Y002415D01*
X016179Y002166D01*
X016206Y002166D01*
X016198Y002151D01*
X016192Y002130D01*
X016192Y002139D01*
X016133Y002197D01*
X016121Y002197D01*
X016121Y002415D01*
X016179Y002415D01*
X016179Y002473D01*
X016621Y002473D01*
X016621Y002415D01*
X016621Y002435D02*
X016179Y002435D01*
X016179Y002356D02*
X016121Y002356D01*
X016121Y002278D02*
X016179Y002278D01*
X016179Y002199D02*
X016121Y002199D01*
X017818Y002199D02*
X017974Y002199D01*
X018016Y002278D02*
X017864Y002278D01*
X017867Y002356D02*
X018093Y002356D01*
X017867Y002513D02*
X018431Y002513D01*
X018388Y002592D02*
X017867Y002592D01*
X017837Y002670D02*
X018374Y002670D01*
X018383Y002749D02*
X017799Y002749D01*
X017827Y002827D02*
X018417Y002827D01*
X018510Y002906D02*
X017827Y002906D01*
X017827Y002984D02*
X018669Y002984D01*
X018669Y003063D02*
X017827Y003063D01*
X017821Y003141D02*
X018669Y003141D01*
X018678Y003220D02*
X017800Y003220D01*
X020805Y003280D02*
X020805Y004271D01*
X021011Y004172D01*
X021373Y004100D01*
X021373Y004100D01*
X021511Y004108D01*
X021507Y004105D01*
X021501Y004081D01*
X021488Y004060D01*
X021493Y004040D01*
X021404Y003633D01*
X021077Y003845D01*
X021066Y003862D01*
X021042Y003868D01*
X021021Y003882D01*
X021001Y003878D01*
X020981Y003882D01*
X020960Y003869D01*
X020936Y003864D01*
X020925Y003847D01*
X020908Y003836D01*
X020902Y003812D01*
X020888Y003791D01*
X020892Y003771D01*
X020888Y003751D01*
X020901Y003730D01*
X020906Y003706D01*
X020923Y003695D01*
X021139Y003349D01*
X020805Y003280D01*
X020805Y003298D02*
X020891Y003298D01*
X020805Y003377D02*
X021121Y003377D01*
X021073Y003455D02*
X020805Y003455D01*
X020805Y003534D02*
X021024Y003534D01*
X020975Y003612D02*
X020805Y003612D01*
X020805Y003691D02*
X020926Y003691D01*
X020892Y003769D02*
X020805Y003769D01*
X020805Y003848D02*
X020925Y003848D01*
X020805Y003926D02*
X021468Y003926D01*
X021485Y004005D02*
X020805Y004005D01*
X020805Y004083D02*
X021502Y004083D01*
X021451Y003848D02*
X021075Y003848D01*
X021194Y003769D02*
X021434Y003769D01*
X021417Y003691D02*
X021315Y003691D01*
X021766Y003769D02*
X022026Y003769D01*
X022141Y003848D02*
X021749Y003848D01*
X021783Y003691D02*
X021900Y003691D01*
X021066Y004162D02*
X020805Y004162D01*
X020805Y004240D02*
X020870Y004240D01*
X021011Y004172D02*
X021011Y004172D01*
X022106Y004319D02*
X022456Y004319D01*
X022427Y004397D02*
X022185Y004397D01*
X022263Y004476D02*
X022398Y004476D01*
X022369Y004554D02*
X022295Y004554D01*
X022328Y004633D02*
X022341Y004633D01*
X016985Y006438D02*
X016927Y006438D01*
X016927Y006517D02*
X016985Y006517D01*
X016985Y006595D02*
X016927Y006595D01*
X016927Y006674D02*
X016985Y006674D01*
X017034Y006831D02*
X015133Y006831D01*
X015215Y006674D02*
X015273Y006674D01*
X015273Y006595D02*
X015215Y006595D01*
X015215Y006517D02*
X015273Y006517D01*
X015273Y006438D02*
X015215Y006438D01*
X015215Y006360D02*
X015273Y006360D01*
X015273Y006281D02*
X015215Y006281D01*
X015215Y006203D02*
X015273Y006203D01*
X015273Y006124D02*
X015215Y006124D01*
X015481Y006124D02*
X015576Y006124D01*
X015806Y006075D02*
X015806Y005787D01*
X015806Y005787D01*
X015806Y005787D01*
X015806Y006075D01*
X015806Y006046D02*
X015806Y006046D01*
X015806Y005967D02*
X015806Y005967D01*
X015806Y005889D02*
X015806Y005889D01*
X015806Y005810D02*
X015806Y005810D01*
X016087Y006281D02*
X016113Y006281D01*
X016191Y006360D02*
X016009Y006360D01*
X015994Y006438D02*
X016206Y006438D01*
X016206Y006517D02*
X015994Y006517D01*
X015994Y006595D02*
X016206Y006595D01*
X016261Y006674D02*
X015939Y006674D01*
X015804Y006909D02*
X016346Y006909D01*
X016627Y006674D02*
X016716Y006674D01*
X015573Y006674D02*
X015484Y006674D01*
X014000Y003612D02*
X012950Y003612D01*
X012950Y003534D02*
X014000Y003534D01*
X014000Y003455D02*
X012950Y003455D01*
X012130Y003063D02*
X010610Y003063D01*
X010290Y003063D02*
X010091Y003063D01*
X010111Y003141D02*
X010290Y003141D01*
X010290Y003220D02*
X010108Y003220D01*
X010074Y003298D02*
X010290Y003298D01*
X010290Y003377D02*
X010001Y003377D01*
X010018Y003612D02*
X010290Y003612D01*
X010290Y003534D02*
X009754Y003534D01*
X009754Y003455D02*
X010290Y003455D01*
X009179Y003063D02*
X007694Y003063D01*
X007694Y003141D02*
X009101Y003141D01*
X009056Y003220D02*
X007694Y003220D01*
X007694Y003298D02*
X009040Y003298D01*
X008862Y003377D02*
X007694Y003377D01*
X007694Y002984D02*
X009054Y002984D01*
X009054Y002906D02*
X007694Y002906D01*
X009215Y002278D02*
X010985Y002278D01*
X011064Y002356D02*
X010900Y002356D01*
X010946Y002435D02*
X011142Y002435D01*
X011221Y002513D02*
X010946Y002513D01*
X010946Y002592D02*
X011299Y002592D01*
X011378Y002670D02*
X010946Y002670D01*
X010946Y002749D02*
X011456Y002749D01*
X011535Y002827D02*
X010946Y002827D01*
X010946Y002906D02*
X011973Y002906D01*
X012052Y002984D02*
X010946Y002984D01*
X010235Y002984D02*
X010042Y002984D01*
X009918Y002906D02*
X010235Y002906D01*
X010235Y002827D02*
X009765Y002827D01*
X009765Y002749D02*
X010235Y002749D01*
X010235Y002670D02*
X009765Y002670D01*
X009765Y002592D02*
X010235Y002592D01*
X010235Y002513D02*
X009765Y002513D01*
X009765Y002435D02*
X010235Y002435D01*
X010281Y002356D02*
X009719Y002356D01*
X009347Y002199D02*
X010907Y002199D01*
X011096Y001964D02*
X011697Y001964D01*
X011859Y002042D02*
X011174Y002042D01*
X011253Y002121D02*
X011982Y002121D01*
X012105Y002199D02*
X011331Y002199D01*
X011410Y002278D02*
X012227Y002278D01*
X012350Y002356D02*
X011488Y002356D01*
X011567Y002435D02*
X012239Y002435D01*
X012139Y002513D02*
X011645Y002513D01*
X012084Y002592D02*
X012101Y002592D01*
X012461Y002435D02*
X012473Y002435D01*
X011525Y001885D02*
X011017Y001885D01*
X011090Y001958D02*
X011090Y001958D01*
X013936Y003377D02*
X014000Y003377D01*
X019377Y001414D02*
X019419Y001414D01*
X020168Y001414D02*
X020207Y001414D01*
X020152Y001257D02*
X016843Y001257D01*
X004701Y001650D02*
X004695Y001650D01*
D32*
X009450Y003150D03*
X009850Y003160D03*
X012350Y002670D03*
X014250Y002500D03*
X015160Y002070D03*
X017000Y003900D03*
X017000Y004250D03*
X018870Y003900D03*
X019170Y004500D03*
X020450Y003650D03*
X016500Y005290D03*
X015930Y005300D03*
X017360Y005690D03*
X017000Y005850D03*
X016100Y006730D03*
D33*
X017000Y005850D02*
X016937Y005787D01*
X016813Y005787D01*
X017000Y005600D01*
X017000Y005406D01*
X016987Y005394D01*
X016813Y005787D02*
X016594Y005787D01*
X016397Y005787D01*
X016500Y005290D02*
X015960Y005394D01*
X015413Y005394D01*
X017500Y005100D02*
X017500Y004856D01*
X017000Y004594D02*
X016987Y004606D01*
X017000Y004594D02*
X017000Y004400D01*
X016813Y004213D01*
X016594Y004213D01*
X018870Y003900D02*
X018888Y003882D01*
X018888Y004388D01*
X018900Y004400D01*
X019600Y004500D02*
X019600Y004800D01*
X019100Y005300D01*
X017700Y005300D01*
X017500Y005100D01*
X019600Y004500D02*
X019751Y004500D01*
X019751Y004449D01*
X020450Y003650D01*
X020212Y003212D01*
X019912Y003212D01*
X019912Y002903D01*
X018888Y002903D02*
X018888Y003882D01*
X012846Y004050D02*
X012690Y003894D01*
X012150Y003894D01*
X012120Y003864D01*
X012120Y003620D01*
X011840Y003340D01*
X010820Y003340D01*
X010647Y003513D01*
X010647Y004169D01*
X010844Y004169D02*
X011031Y004169D01*
X011300Y003900D01*
X011594Y003900D01*
X011600Y003894D01*
X012669Y004227D02*
X012846Y004050D01*
X012150Y004406D02*
X012150Y004930D01*
X011920Y005160D01*
X011500Y005160D01*
X011240Y005420D01*
X011300Y005480D01*
X011300Y005904D01*
X011280Y005924D01*
X010960Y005780D02*
X010960Y006260D01*
X011080Y006380D01*
X011224Y006380D01*
X011280Y006436D01*
X010906Y006810D01*
X010816Y006810D01*
X010304Y006810D02*
X010254Y006760D01*
X009280Y006460D02*
X008820Y006460D01*
X008640Y006280D01*
X008440Y006080D01*
X008440Y005976D01*
X008440Y005464D02*
X008600Y005304D01*
X008600Y003900D01*
X008751Y003749D01*
X009300Y003749D01*
X009329Y003720D01*
X009900Y003720D01*
X010056Y003876D01*
X010056Y004169D01*
X010450Y004169D02*
X010450Y002841D01*
X010591Y002700D01*
X010647Y005331D02*
X010647Y005567D01*
X010720Y005640D01*
X010820Y005640D01*
X010960Y005780D01*
X011240Y005420D02*
X011151Y005331D01*
X010844Y005331D01*
X010450Y005331D02*
X010450Y005690D01*
X010380Y005760D01*
X010380Y006083D01*
X010343Y006120D01*
X009960Y006120D01*
X010100Y005760D02*
X009700Y005760D01*
X010100Y005760D02*
X010253Y005607D01*
X010253Y005331D01*
D34*
X010349Y004851D02*
X009300Y004851D01*
X010349Y004851D02*
X010450Y004750D01*
X010460Y004740D01*
X011560Y004740D01*
X009300Y003749D02*
X009300Y003309D01*
X009459Y003150D01*
X009459Y002750D01*
X009409Y002700D01*
X009459Y003150D02*
X009850Y003160D01*
X006251Y003701D02*
X004750Y003701D01*
X006251Y003701D02*
X006286Y003703D01*
X006320Y003708D01*
X006354Y003716D01*
X006387Y003728D01*
X006419Y003743D01*
X006449Y003761D01*
X006477Y003782D01*
X006503Y003805D01*
X006526Y003831D01*
X006547Y003859D01*
X006565Y003889D01*
X006580Y003921D01*
X006592Y003954D01*
X006600Y003988D01*
X006605Y004022D01*
X006607Y004057D01*
X004750Y002599D02*
X004750Y002050D01*
X004752Y002024D01*
X004757Y001998D01*
X004765Y001973D01*
X004777Y001950D01*
X004791Y001928D01*
X004809Y001909D01*
X004828Y001891D01*
X004850Y001877D01*
X004873Y001865D01*
X004898Y001857D01*
X004924Y001852D01*
X004950Y001850D01*
X018649Y004500D02*
X019170Y004500D01*
D35*
X017000Y006444D02*
X016956Y006400D01*
X017000Y006444D02*
X017000Y006600D01*
X016870Y006730D01*
X016100Y006730D01*
X013200Y005300D02*
X013200Y005100D01*
X013024Y003520D02*
X012530Y003520D01*
X012110Y003100D01*
D36*
X013990Y003110D03*
X016000Y003480D03*
X017050Y003250D03*
X018180Y002840D03*
X019420Y003700D03*
X019940Y003640D03*
X021000Y004010D03*
X022270Y004120D03*
X022340Y003490D03*
X017880Y005020D03*
X016480Y004700D03*
X015940Y004720D03*
X014000Y004860D03*
X012940Y004620D03*
X010680Y004720D03*
X010180Y004720D03*
X007940Y004580D03*
X007940Y004120D03*
X006060Y004280D03*
X004030Y003820D03*
X004060Y003190D03*
X005990Y003030D03*
X009160Y002020D03*
X007700Y001400D03*
X006850Y005300D03*
X007350Y005610D03*
X007810Y005880D03*
X009280Y006460D03*
X009860Y006500D03*
X009960Y006120D03*
X018840Y005900D03*
X021420Y001810D03*
X017750Y001600D03*
D37*
X017327Y001700D02*
X017300Y001700D01*
X017300Y002000D01*
X017200Y002100D01*
X017200Y002950D01*
X017200Y003100D01*
X017050Y003250D01*
X016650Y003300D02*
X016650Y002956D01*
X016894Y002956D01*
X017000Y002850D01*
X017000Y001727D01*
X016973Y001700D01*
X016466Y001920D02*
X016466Y002260D01*
X016650Y002444D01*
X016150Y002444D01*
X015900Y002694D02*
X015650Y002444D01*
X015650Y002224D01*
X015954Y001920D01*
X015160Y002070D02*
X015150Y002080D01*
X015150Y002444D01*
X014650Y002444D02*
X014256Y002444D01*
X014250Y002500D01*
X014200Y002800D02*
X014300Y002900D01*
X014300Y003150D01*
X014400Y003250D01*
X014500Y003350D01*
X014500Y003644D01*
X014550Y003694D01*
X014900Y003350D02*
X014650Y003100D01*
X014650Y002956D01*
X014200Y002800D02*
X013780Y002800D01*
X013490Y003040D01*
X012720Y003040D01*
X012350Y002670D01*
X012020Y002740D02*
X011660Y002740D01*
X010940Y002020D01*
X009160Y002020D01*
X010140Y002420D02*
X010360Y002200D01*
X010860Y002200D01*
X011650Y002990D01*
X011850Y002990D01*
X012020Y002740D02*
X012540Y003260D01*
X013840Y003260D01*
X013990Y003110D01*
X014150Y003270D01*
X014150Y004400D01*
X014250Y004500D01*
X014350Y004600D01*
X014500Y004600D01*
X014700Y004800D01*
X015097Y005197D01*
X015413Y005197D01*
X015413Y005000D02*
X015150Y005000D01*
X014600Y004450D01*
X014600Y004256D01*
X014550Y004206D01*
X014900Y004460D02*
X014900Y003350D01*
X014000Y003120D02*
X013990Y003110D01*
X013554Y004050D02*
X013024Y003520D01*
X012669Y004227D02*
X012560Y004336D01*
X012560Y004980D01*
X012669Y005089D01*
X013200Y005100D02*
X013200Y004880D01*
X012940Y004620D01*
X014900Y004460D02*
X015240Y004800D01*
X015409Y004800D02*
X015413Y004803D01*
X015413Y004606D02*
X015150Y004344D01*
X015150Y002956D01*
X015650Y002956D02*
X015650Y004056D01*
X015800Y004206D01*
X015806Y004213D01*
X016003Y004213D02*
X016003Y003577D01*
X016000Y003480D01*
X016200Y003750D02*
X016650Y003300D01*
X016700Y003550D02*
X017500Y003550D01*
X017650Y003550D01*
X017650Y003056D01*
X017550Y002956D01*
X018888Y002903D02*
X018888Y002652D01*
X018889Y002647D01*
X018892Y002644D01*
X018895Y002641D01*
X018900Y002640D01*
X019400Y002903D02*
X019400Y003680D01*
X019420Y003700D01*
X019656Y003356D02*
X019940Y003640D01*
X019656Y003356D02*
X019656Y002903D01*
X017650Y003550D02*
X017650Y004200D01*
X017506Y004344D01*
X017500Y004344D01*
X017556Y004344D01*
X016800Y004200D02*
X016787Y004213D01*
X016594Y004213D01*
X016397Y004213D02*
X016397Y003853D01*
X016700Y003550D01*
X016200Y003750D02*
X016200Y004213D01*
X016987Y004803D02*
X017447Y004803D01*
X017500Y004856D01*
X017716Y004856D01*
X017850Y004722D01*
X017716Y004856D02*
X017880Y005020D01*
X016987Y005000D02*
X016987Y004803D01*
X016987Y005000D02*
X016987Y005197D01*
X016200Y005787D02*
X016200Y006156D01*
X016444Y006400D01*
X016003Y006153D02*
X015756Y006400D01*
X016003Y006153D02*
X016003Y005787D01*
X015806Y005787D02*
X015594Y006000D01*
X015400Y006000D01*
X015244Y006156D01*
X015244Y006400D01*
X015244Y006644D01*
X015350Y006750D01*
X016080Y006750D01*
X016100Y006730D01*
X010697Y006500D02*
X010697Y006120D01*
X010697Y006500D02*
X009860Y006500D01*
X009580Y006720D02*
X009580Y006260D01*
X009330Y006010D01*
X009296Y005976D01*
X009484Y005976D01*
X009700Y005760D01*
X009923Y005464D02*
X008980Y005464D01*
X008440Y005464D01*
X008980Y005976D02*
X009296Y005976D01*
X009923Y005464D02*
X010056Y005331D01*
X010640Y005300D02*
X010640Y004900D01*
X010108Y004652D02*
X009859Y004652D01*
X010108Y004652D02*
X010132Y004650D01*
X010155Y004645D01*
X010177Y004635D01*
X010197Y004623D01*
X010215Y004607D01*
X010231Y004589D01*
X010243Y004569D01*
X010253Y004547D01*
X010258Y004524D01*
X010260Y004500D01*
X010260Y004560D01*
X010260Y004500D02*
X010260Y004176D01*
X010253Y004169D01*
X010260Y004120D01*
X010260Y003220D01*
X010140Y003100D01*
X010140Y002420D01*
X010591Y002700D02*
X010600Y002709D01*
X010250Y004166D02*
X010253Y004169D01*
X010260Y004560D02*
X010262Y004585D01*
X010266Y004609D01*
X010274Y004633D01*
X010285Y004655D01*
X010299Y004676D01*
X010316Y004694D01*
X010334Y004711D01*
X010355Y004725D01*
X010377Y004736D01*
X010401Y004744D01*
X010425Y004748D01*
X010450Y004750D01*
X015900Y002700D02*
X016150Y002950D01*
X016150Y002956D01*
X015900Y002700D02*
X015900Y002694D01*
X010304Y006810D02*
X010294Y006800D01*
X009660Y006800D01*
X009580Y006720D01*
D38*
X012430Y005670D02*
X012820Y005670D01*
X012820Y004840D01*
X012799Y004831D01*
X012729Y004761D01*
X012691Y004670D01*
X012691Y004570D01*
X012729Y004479D01*
X012799Y004409D01*
X012820Y004400D01*
X012820Y003690D01*
X012460Y003690D01*
X012030Y003260D01*
X010620Y003260D01*
X010620Y004100D01*
X010695Y004100D01*
X010695Y003965D01*
X010748Y003912D01*
X010939Y003912D01*
X010992Y003965D01*
X010992Y003996D01*
X011150Y003838D01*
X011238Y003750D01*
X011333Y003750D01*
X011333Y003719D01*
X011386Y003666D01*
X011814Y003666D01*
X011867Y003719D01*
X011867Y004069D01*
X011836Y004100D01*
X012320Y004100D01*
X012320Y004178D01*
X012364Y004178D01*
X012417Y004231D01*
X012417Y004581D01*
X012364Y004634D01*
X012320Y004634D01*
X012320Y005270D01*
X012354Y005270D01*
X012430Y005346D01*
X012430Y005670D01*
X012430Y005663D02*
X012820Y005663D01*
X012820Y005605D02*
X012430Y005605D01*
X012430Y005546D02*
X012820Y005546D01*
X012820Y005488D02*
X012430Y005488D01*
X012430Y005429D02*
X012820Y005429D01*
X012820Y005371D02*
X012430Y005371D01*
X012396Y005312D02*
X012820Y005312D01*
X012820Y005254D02*
X012320Y005254D01*
X012320Y005195D02*
X012820Y005195D01*
X012820Y005137D02*
X012320Y005137D01*
X012320Y005078D02*
X012820Y005078D01*
X012820Y005020D02*
X012320Y005020D01*
X012320Y004961D02*
X012820Y004961D01*
X012820Y004903D02*
X012320Y004903D01*
X012320Y004844D02*
X012820Y004844D01*
X012753Y004786D02*
X012320Y004786D01*
X012320Y004727D02*
X012715Y004727D01*
X012691Y004669D02*
X012320Y004669D01*
X012388Y004610D02*
X012691Y004610D01*
X012699Y004552D02*
X012417Y004552D01*
X012417Y004493D02*
X012723Y004493D01*
X012773Y004435D02*
X012417Y004435D01*
X012417Y004376D02*
X012820Y004376D01*
X012820Y004318D02*
X012417Y004318D01*
X012417Y004259D02*
X012820Y004259D01*
X012820Y004201D02*
X012387Y004201D01*
X012320Y004142D02*
X012820Y004142D01*
X012820Y004084D02*
X011853Y004084D01*
X011867Y004025D02*
X012820Y004025D01*
X012820Y003967D02*
X011867Y003967D01*
X011867Y003908D02*
X012820Y003908D01*
X012820Y003850D02*
X011867Y003850D01*
X011867Y003791D02*
X012820Y003791D01*
X012820Y003733D02*
X011867Y003733D01*
X011822Y003674D02*
X012444Y003674D01*
X012385Y003616D02*
X010620Y003616D01*
X010620Y003674D02*
X011378Y003674D01*
X011333Y003733D02*
X010620Y003733D01*
X010620Y003791D02*
X011197Y003791D01*
X011138Y003850D02*
X010620Y003850D01*
X010620Y003908D02*
X011080Y003908D01*
X011021Y003967D02*
X010992Y003967D01*
X010695Y003967D02*
X010620Y003967D01*
X010620Y004025D02*
X010695Y004025D01*
X010695Y004084D02*
X010620Y004084D01*
X010620Y003557D02*
X012327Y003557D01*
X012268Y003499D02*
X010620Y003499D01*
X010620Y003440D02*
X012210Y003440D01*
X012151Y003382D02*
X010620Y003382D01*
X010620Y003323D02*
X012093Y003323D01*
X012034Y003265D02*
X010620Y003265D01*
D39*
X006900Y001700D03*
X004950Y001850D03*
D40*
X006900Y001700D02*
X007394Y002194D01*
X007394Y004057D01*
M02*
