G75*
%MOIN*%
%OFA0B0*%
%FSLAX24Y24*%
%IPPOS*%
%LPD*%
%AMOC8*
5,1,8,0,0,1.08239X$1,22.5*
%
%ADD10C,0.0030*%
%ADD11C,0.0080*%
D10*
X004376Y002493D02*
X004424Y002445D01*
X004521Y002445D01*
X004569Y002493D01*
X004670Y002445D02*
X004670Y002735D01*
X004569Y002687D02*
X004521Y002735D01*
X004424Y002735D01*
X004376Y002687D01*
X004376Y002493D01*
X004670Y002590D02*
X004864Y002590D01*
X004965Y002542D02*
X005110Y002542D01*
X005158Y002590D01*
X005158Y002687D01*
X005110Y002735D01*
X004965Y002735D01*
X004965Y002445D01*
X004864Y002445D02*
X004864Y002735D01*
X005062Y002542D02*
X005158Y002445D01*
X005260Y002493D02*
X005260Y002687D01*
X005308Y002735D01*
X005405Y002735D01*
X005453Y002687D01*
X005453Y002590D02*
X005356Y002590D01*
X005453Y002590D02*
X005453Y002493D01*
X005405Y002445D01*
X005308Y002445D01*
X005260Y002493D01*
X012666Y003525D02*
X012811Y003525D01*
X012859Y003573D01*
X012859Y003767D01*
X012811Y003815D01*
X012666Y003815D01*
X012666Y003525D01*
X012960Y003573D02*
X013009Y003525D01*
X013105Y003525D01*
X013154Y003573D01*
X013154Y003767D01*
X013105Y003815D01*
X013009Y003815D01*
X012960Y003767D01*
X012960Y003573D01*
X013255Y003525D02*
X013255Y003815D01*
X013448Y003525D01*
X013448Y003815D01*
X013550Y003815D02*
X013550Y003525D01*
X013743Y003525D01*
X013646Y003670D02*
X013550Y003670D01*
X013550Y003815D02*
X013743Y003815D01*
X021053Y002745D02*
X021053Y002455D01*
X021053Y002552D02*
X021198Y002552D01*
X021247Y002600D01*
X021247Y002697D01*
X021198Y002745D01*
X021053Y002745D01*
X021348Y002745D02*
X021348Y002455D01*
X021444Y002552D01*
X021541Y002455D01*
X021541Y002745D01*
X021642Y002745D02*
X021642Y002455D01*
X021642Y002552D02*
X021787Y002552D01*
X021836Y002600D01*
X021836Y002697D01*
X021787Y002745D01*
X021642Y002745D01*
X021739Y002552D02*
X021836Y002455D01*
D11*
X021631Y003283D02*
X021450Y003283D01*
X021358Y003405D01*
X021269Y003283D02*
X021450Y003283D01*
X021460Y003289D02*
X021536Y003405D01*
X013267Y003321D02*
X013267Y003140D01*
X013145Y003048D01*
X013267Y002959D02*
X013267Y003140D01*
X013261Y003150D02*
X013145Y003226D01*
X005131Y003283D02*
X004950Y003283D01*
X004858Y003405D01*
X004769Y003283D02*
X004950Y003283D01*
X004960Y003289D02*
X005036Y003405D01*
M02*
