G75*
G70*
%OFA0B0*%
%FSLAX24Y24*%
%IPPOS*%
%LPD*%
%AMOC8*
5,1,8,0,0,1.08239X$1,22.5*
%
%ADD10C,0.1040*%
%ADD11C,0.0680*%
%ADD12C,0.0780*%
%ADD13C,0.0010*%
%ADD14R,0.0780X0.0780*%
%ADD15OC8,0.0600*%
%ADD16C,0.0480*%
D10*
X027300Y002325D03*
X043442Y002325D03*
X043442Y010396D03*
X027300Y010396D03*
D11*
X002620Y002325D02*
X001980Y002325D01*
X001980Y003325D02*
X002620Y003325D01*
X002620Y004325D02*
X001980Y004325D01*
X001980Y005325D02*
X002620Y005325D01*
X002620Y006325D02*
X001980Y006325D01*
X001980Y007325D02*
X002620Y007325D01*
X002620Y009325D02*
X001980Y009325D01*
X001980Y010325D02*
X002620Y010325D01*
X002620Y011325D02*
X001980Y011325D01*
X001980Y012325D02*
X002620Y012325D01*
X002620Y013325D02*
X001980Y013325D01*
X001980Y014325D02*
X002620Y014325D01*
X020980Y013925D02*
X021620Y013925D01*
X021620Y014925D02*
X020980Y014925D01*
X020980Y015925D02*
X021620Y015925D01*
X021620Y016925D02*
X020980Y016925D01*
X020980Y017925D02*
X021620Y017925D01*
X021620Y012925D02*
X020980Y012925D01*
X020980Y011925D02*
X021620Y011925D01*
X021620Y010925D02*
X020980Y010925D01*
X020980Y009325D02*
X021620Y009325D01*
X021620Y008325D02*
X020980Y008325D01*
X020980Y007325D02*
X021620Y007325D01*
X021620Y006325D02*
X020980Y006325D01*
X020980Y005325D02*
X021620Y005325D01*
X021620Y004325D02*
X020980Y004325D01*
X020980Y003325D02*
X021620Y003325D01*
X021620Y002325D02*
X020980Y002325D01*
D12*
X029300Y012825D03*
X030300Y012825D03*
X031300Y012825D03*
X032300Y012825D03*
X033300Y012825D03*
X034300Y012825D03*
X035300Y012825D03*
X036300Y012825D03*
X037300Y012825D03*
X038300Y012825D03*
X039300Y012825D03*
X040300Y012825D03*
X043300Y014325D03*
X043300Y015325D03*
X043300Y016325D03*
X040300Y019825D03*
X039300Y019825D03*
X038300Y019825D03*
X037300Y019825D03*
X036300Y019825D03*
X035300Y019825D03*
X034300Y019825D03*
X033300Y019825D03*
X032300Y019825D03*
X031300Y019825D03*
X030300Y019825D03*
X029300Y019825D03*
X034300Y018325D03*
X034300Y014325D03*
D13*
X031320Y015605D02*
X030920Y016235D01*
X031300Y016845D01*
X030700Y016455D01*
X030090Y016835D01*
X030470Y016235D01*
X030090Y015615D01*
X030700Y016015D01*
X031320Y015605D01*
X031318Y015608D02*
X031315Y015608D01*
X031312Y015617D02*
X031302Y015617D01*
X031307Y015625D02*
X031289Y015625D01*
X031276Y015634D02*
X031302Y015634D01*
X031296Y015642D02*
X031263Y015642D01*
X031251Y015651D02*
X031291Y015651D01*
X031285Y015659D02*
X031238Y015659D01*
X031225Y015668D02*
X031280Y015668D01*
X031275Y015676D02*
X031212Y015676D01*
X031199Y015685D02*
X031269Y015685D01*
X031264Y015693D02*
X031186Y015693D01*
X031173Y015702D02*
X031258Y015702D01*
X031253Y015710D02*
X031161Y015710D01*
X031148Y015719D02*
X031248Y015719D01*
X031242Y015727D02*
X031135Y015727D01*
X031122Y015736D02*
X031237Y015736D01*
X031231Y015744D02*
X031109Y015744D01*
X031096Y015753D02*
X031226Y015753D01*
X031221Y015761D02*
X031083Y015761D01*
X031071Y015770D02*
X031215Y015770D01*
X031210Y015778D02*
X031058Y015778D01*
X031045Y015787D02*
X031204Y015787D01*
X031199Y015795D02*
X031032Y015795D01*
X031019Y015804D02*
X031194Y015804D01*
X031188Y015812D02*
X031006Y015812D01*
X030993Y015821D02*
X031183Y015821D01*
X031177Y015829D02*
X030981Y015829D01*
X030968Y015838D02*
X031172Y015838D01*
X031167Y015846D02*
X030955Y015846D01*
X030942Y015855D02*
X031161Y015855D01*
X031156Y015863D02*
X030929Y015863D01*
X030916Y015872D02*
X031151Y015872D01*
X031145Y015880D02*
X030903Y015880D01*
X030891Y015889D02*
X031140Y015889D01*
X031134Y015897D02*
X030878Y015897D01*
X030865Y015906D02*
X031129Y015906D01*
X031124Y015914D02*
X030852Y015914D01*
X030839Y015923D02*
X031118Y015923D01*
X031113Y015931D02*
X030826Y015931D01*
X030813Y015940D02*
X031107Y015940D01*
X031102Y015948D02*
X030801Y015948D01*
X030788Y015957D02*
X031097Y015957D01*
X031091Y015965D02*
X030775Y015965D01*
X030762Y015974D02*
X031086Y015974D01*
X031080Y015982D02*
X030749Y015982D01*
X030736Y015991D02*
X031075Y015991D01*
X031070Y015999D02*
X030724Y015999D01*
X030711Y016008D02*
X031064Y016008D01*
X031059Y016016D02*
X030336Y016016D01*
X030331Y016008D02*
X030689Y016008D01*
X030676Y015999D02*
X030326Y015999D01*
X030320Y015991D02*
X030663Y015991D01*
X030650Y015982D02*
X030315Y015982D01*
X030310Y015974D02*
X030637Y015974D01*
X030624Y015965D02*
X030305Y015965D01*
X030300Y015957D02*
X030611Y015957D01*
X030599Y015948D02*
X030294Y015948D01*
X030289Y015940D02*
X030586Y015940D01*
X030573Y015931D02*
X030284Y015931D01*
X030279Y015923D02*
X030560Y015923D01*
X030547Y015914D02*
X030274Y015914D01*
X030268Y015906D02*
X030534Y015906D01*
X030521Y015897D02*
X030263Y015897D01*
X030258Y015889D02*
X030508Y015889D01*
X030495Y015880D02*
X030253Y015880D01*
X030247Y015872D02*
X030482Y015872D01*
X030469Y015863D02*
X030242Y015863D01*
X030237Y015855D02*
X030456Y015855D01*
X030443Y015846D02*
X030232Y015846D01*
X030227Y015838D02*
X030430Y015838D01*
X030417Y015829D02*
X030221Y015829D01*
X030216Y015821D02*
X030404Y015821D01*
X030391Y015812D02*
X030211Y015812D01*
X030206Y015804D02*
X030378Y015804D01*
X030365Y015795D02*
X030201Y015795D01*
X030195Y015787D02*
X030352Y015787D01*
X030339Y015778D02*
X030190Y015778D01*
X030185Y015770D02*
X030326Y015770D01*
X030313Y015761D02*
X030180Y015761D01*
X030175Y015753D02*
X030300Y015753D01*
X030287Y015744D02*
X030169Y015744D01*
X030164Y015736D02*
X030274Y015736D01*
X030261Y015727D02*
X030159Y015727D01*
X030154Y015719D02*
X030249Y015719D01*
X030236Y015710D02*
X030148Y015710D01*
X030143Y015702D02*
X030223Y015702D01*
X030210Y015693D02*
X030138Y015693D01*
X030133Y015685D02*
X030197Y015685D01*
X030184Y015676D02*
X030128Y015676D01*
X030122Y015668D02*
X030171Y015668D01*
X030158Y015659D02*
X030117Y015659D01*
X030112Y015651D02*
X030145Y015651D01*
X030132Y015642D02*
X030107Y015642D01*
X030102Y015634D02*
X030119Y015634D01*
X030106Y015625D02*
X030096Y015625D01*
X030093Y015617D02*
X030091Y015617D01*
X030341Y016025D02*
X031053Y016025D01*
X031048Y016033D02*
X030346Y016033D01*
X030352Y016042D02*
X031043Y016042D01*
X031037Y016050D02*
X030357Y016050D01*
X030362Y016059D02*
X031032Y016059D01*
X031026Y016067D02*
X030367Y016067D01*
X030373Y016076D02*
X031021Y016076D01*
X031016Y016084D02*
X030378Y016084D01*
X030383Y016093D02*
X031010Y016093D01*
X031005Y016101D02*
X030388Y016101D01*
X030393Y016110D02*
X030999Y016110D01*
X030994Y016118D02*
X030399Y016118D01*
X030404Y016127D02*
X030989Y016127D01*
X030983Y016135D02*
X030409Y016135D01*
X030414Y016144D02*
X030978Y016144D01*
X030972Y016152D02*
X030419Y016152D01*
X030425Y016161D02*
X030967Y016161D01*
X030962Y016169D02*
X030430Y016169D01*
X030435Y016178D02*
X030956Y016178D01*
X030951Y016186D02*
X030440Y016186D01*
X030445Y016195D02*
X030945Y016195D01*
X030940Y016203D02*
X030451Y016203D01*
X030456Y016212D02*
X030935Y016212D01*
X030929Y016220D02*
X030461Y016220D01*
X030466Y016229D02*
X030924Y016229D01*
X030922Y016237D02*
X030468Y016237D01*
X030463Y016246D02*
X030927Y016246D01*
X030932Y016254D02*
X030458Y016254D01*
X030452Y016263D02*
X030937Y016263D01*
X030943Y016271D02*
X030447Y016271D01*
X030442Y016280D02*
X030948Y016280D01*
X030953Y016288D02*
X030436Y016288D01*
X030431Y016297D02*
X030959Y016297D01*
X030964Y016305D02*
X030425Y016305D01*
X030420Y016314D02*
X030969Y016314D01*
X030974Y016322D02*
X030415Y016322D01*
X030409Y016331D02*
X030980Y016331D01*
X030985Y016339D02*
X030404Y016339D01*
X030398Y016348D02*
X030990Y016348D01*
X030996Y016356D02*
X030393Y016356D01*
X030388Y016365D02*
X031001Y016365D01*
X031006Y016373D02*
X030382Y016373D01*
X030377Y016382D02*
X031012Y016382D01*
X031017Y016390D02*
X030372Y016390D01*
X030366Y016399D02*
X031022Y016399D01*
X031027Y016407D02*
X030361Y016407D01*
X030355Y016416D02*
X031033Y016416D01*
X031038Y016424D02*
X030350Y016424D01*
X030345Y016433D02*
X031043Y016433D01*
X031049Y016441D02*
X030339Y016441D01*
X030334Y016450D02*
X031054Y016450D01*
X031059Y016458D02*
X030705Y016458D01*
X030694Y016458D02*
X030328Y016458D01*
X030323Y016467D02*
X030681Y016467D01*
X030667Y016475D02*
X030318Y016475D01*
X030312Y016484D02*
X030654Y016484D01*
X030640Y016492D02*
X030307Y016492D01*
X030302Y016501D02*
X030626Y016501D01*
X030613Y016509D02*
X030296Y016509D01*
X030291Y016518D02*
X030599Y016518D01*
X030585Y016526D02*
X030285Y016526D01*
X030280Y016535D02*
X030572Y016535D01*
X030558Y016543D02*
X030275Y016543D01*
X030269Y016552D02*
X030544Y016552D01*
X030531Y016560D02*
X030264Y016560D01*
X030258Y016569D02*
X030517Y016569D01*
X030503Y016577D02*
X030253Y016577D01*
X030248Y016586D02*
X030490Y016586D01*
X030476Y016594D02*
X030242Y016594D01*
X030237Y016603D02*
X030462Y016603D01*
X030449Y016611D02*
X030232Y016611D01*
X030226Y016620D02*
X030435Y016620D01*
X030422Y016628D02*
X030221Y016628D01*
X030215Y016637D02*
X030408Y016637D01*
X030394Y016645D02*
X030210Y016645D01*
X030205Y016654D02*
X030381Y016654D01*
X030367Y016662D02*
X030199Y016662D01*
X030194Y016671D02*
X030353Y016671D01*
X030340Y016679D02*
X030188Y016679D01*
X030183Y016688D02*
X030326Y016688D01*
X030312Y016696D02*
X030178Y016696D01*
X030172Y016705D02*
X030299Y016705D01*
X030285Y016713D02*
X030167Y016713D01*
X030162Y016722D02*
X030271Y016722D01*
X030258Y016730D02*
X030156Y016730D01*
X030151Y016739D02*
X030244Y016739D01*
X030231Y016747D02*
X030145Y016747D01*
X030140Y016756D02*
X030217Y016756D01*
X030203Y016764D02*
X030135Y016764D01*
X030129Y016773D02*
X030190Y016773D01*
X030176Y016781D02*
X030124Y016781D01*
X030119Y016790D02*
X030162Y016790D01*
X030149Y016798D02*
X030113Y016798D01*
X030108Y016807D02*
X030135Y016807D01*
X030121Y016815D02*
X030102Y016815D01*
X030097Y016824D02*
X030108Y016824D01*
X030094Y016832D02*
X030092Y016832D01*
X030615Y016722D02*
X030785Y016722D01*
X030784Y016730D02*
X030616Y016730D01*
X030618Y016739D02*
X030782Y016739D01*
X030780Y016747D02*
X030620Y016747D01*
X030622Y016756D02*
X030778Y016756D01*
X030776Y016764D02*
X030624Y016764D01*
X030626Y016773D02*
X030774Y016773D01*
X030773Y016781D02*
X030627Y016781D01*
X030629Y016790D02*
X030771Y016790D01*
X030769Y016798D02*
X030631Y016798D01*
X030633Y016807D02*
X030767Y016807D01*
X030765Y016815D02*
X030635Y016815D01*
X030637Y016824D02*
X030763Y016824D01*
X030761Y016832D02*
X030639Y016832D01*
X030640Y016841D02*
X030760Y016841D01*
X030758Y016849D02*
X030642Y016849D01*
X030644Y016858D02*
X030756Y016858D01*
X030754Y016866D02*
X030646Y016866D01*
X030648Y016875D02*
X030752Y016875D01*
X030750Y016883D02*
X030650Y016883D01*
X030652Y016892D02*
X030748Y016892D01*
X030747Y016900D02*
X030653Y016900D01*
X030655Y016909D02*
X030745Y016909D01*
X030743Y016917D02*
X030657Y016917D01*
X030659Y016926D02*
X030741Y016926D01*
X030739Y016934D02*
X030661Y016934D01*
X030663Y016943D02*
X030737Y016943D01*
X030736Y016951D02*
X030664Y016951D01*
X030666Y016960D02*
X030734Y016960D01*
X030732Y016968D02*
X030668Y016968D01*
X030670Y016977D02*
X030730Y016977D01*
X030728Y016985D02*
X030672Y016985D01*
X030674Y016994D02*
X030726Y016994D01*
X030724Y017002D02*
X030676Y017002D01*
X030677Y017011D02*
X030723Y017011D01*
X030721Y017019D02*
X030679Y017019D01*
X030681Y017028D02*
X030719Y017028D01*
X030717Y017036D02*
X030683Y017036D01*
X030685Y017045D02*
X030715Y017045D01*
X030713Y017053D02*
X030687Y017053D01*
X030688Y017062D02*
X030712Y017062D01*
X030710Y017070D02*
X030690Y017070D01*
X030692Y017079D02*
X030708Y017079D01*
X030706Y017087D02*
X030694Y017087D01*
X030696Y017096D02*
X030704Y017096D01*
X030702Y017104D02*
X030698Y017104D01*
X030700Y017113D02*
X030700Y017113D01*
X030700Y017115D02*
X030800Y016655D01*
X030700Y016595D01*
X030600Y016655D01*
X030700Y017115D01*
X030613Y016713D02*
X030787Y016713D01*
X030789Y016705D02*
X030611Y016705D01*
X030609Y016696D02*
X030791Y016696D01*
X030793Y016688D02*
X030607Y016688D01*
X030605Y016679D02*
X030795Y016679D01*
X030797Y016671D02*
X030603Y016671D01*
X030602Y016662D02*
X030798Y016662D01*
X030798Y016654D02*
X030602Y016654D01*
X030616Y016645D02*
X030784Y016645D01*
X030770Y016637D02*
X030630Y016637D01*
X030644Y016628D02*
X030756Y016628D01*
X030742Y016620D02*
X030658Y016620D01*
X030673Y016611D02*
X030727Y016611D01*
X030713Y016603D02*
X030687Y016603D01*
X030758Y016492D02*
X031080Y016492D01*
X031075Y016484D02*
X030745Y016484D01*
X030731Y016475D02*
X031070Y016475D01*
X031065Y016467D02*
X030718Y016467D01*
X030771Y016501D02*
X031086Y016501D01*
X031091Y016509D02*
X030784Y016509D01*
X030797Y016518D02*
X031096Y016518D01*
X031102Y016526D02*
X030810Y016526D01*
X030823Y016535D02*
X031107Y016535D01*
X031112Y016543D02*
X030836Y016543D01*
X030849Y016552D02*
X031117Y016552D01*
X031123Y016560D02*
X030862Y016560D01*
X030875Y016569D02*
X031128Y016569D01*
X031133Y016577D02*
X030888Y016577D01*
X030901Y016586D02*
X031139Y016586D01*
X031144Y016594D02*
X030915Y016594D01*
X030928Y016603D02*
X031149Y016603D01*
X031155Y016611D02*
X030941Y016611D01*
X030954Y016620D02*
X031160Y016620D01*
X031165Y016628D02*
X030967Y016628D01*
X030980Y016637D02*
X031170Y016637D01*
X031176Y016645D02*
X030993Y016645D01*
X031006Y016654D02*
X031181Y016654D01*
X031186Y016662D02*
X031019Y016662D01*
X031032Y016671D02*
X031192Y016671D01*
X031197Y016679D02*
X031045Y016679D01*
X031058Y016688D02*
X031202Y016688D01*
X031207Y016696D02*
X031071Y016696D01*
X031085Y016705D02*
X031213Y016705D01*
X031218Y016713D02*
X031098Y016713D01*
X031111Y016722D02*
X031223Y016722D01*
X031229Y016730D02*
X031124Y016730D01*
X031137Y016739D02*
X031234Y016739D01*
X031239Y016747D02*
X031150Y016747D01*
X031163Y016756D02*
X031245Y016756D01*
X031250Y016764D02*
X031176Y016764D01*
X031189Y016773D02*
X031255Y016773D01*
X031260Y016781D02*
X031202Y016781D01*
X031215Y016790D02*
X031266Y016790D01*
X031271Y016798D02*
X031228Y016798D01*
X031242Y016807D02*
X031276Y016807D01*
X031282Y016815D02*
X031255Y016815D01*
X031268Y016824D02*
X031287Y016824D01*
X031292Y016832D02*
X031281Y016832D01*
X031294Y016841D02*
X031297Y016841D01*
X031174Y016314D02*
X031113Y016314D01*
X031118Y016322D02*
X031132Y016322D01*
X031120Y016325D02*
X031560Y016235D01*
X031120Y016145D01*
X031060Y016235D01*
X031120Y016325D01*
X031107Y016305D02*
X031216Y016305D01*
X031257Y016297D02*
X031101Y016297D01*
X031096Y016288D02*
X031299Y016288D01*
X031340Y016280D02*
X031090Y016280D01*
X031084Y016271D02*
X031382Y016271D01*
X031423Y016263D02*
X031079Y016263D01*
X031073Y016254D02*
X031465Y016254D01*
X031489Y016220D02*
X031070Y016220D01*
X031075Y016212D02*
X031447Y016212D01*
X031406Y016203D02*
X031081Y016203D01*
X031087Y016195D02*
X031364Y016195D01*
X031323Y016186D02*
X031092Y016186D01*
X031098Y016178D02*
X031281Y016178D01*
X031240Y016169D02*
X031104Y016169D01*
X031109Y016161D02*
X031198Y016161D01*
X031156Y016152D02*
X031115Y016152D01*
X031064Y016229D02*
X031530Y016229D01*
X031548Y016237D02*
X031062Y016237D01*
X031067Y016246D02*
X031506Y016246D01*
X030800Y015795D02*
X030700Y015865D01*
X030600Y015795D01*
X030700Y015355D01*
X030800Y015795D01*
X030799Y015795D02*
X030601Y015795D01*
X030602Y015787D02*
X030798Y015787D01*
X030796Y015778D02*
X030604Y015778D01*
X030606Y015770D02*
X030794Y015770D01*
X030792Y015761D02*
X030608Y015761D01*
X030610Y015753D02*
X030790Y015753D01*
X030789Y015744D02*
X030611Y015744D01*
X030613Y015736D02*
X030787Y015736D01*
X030785Y015727D02*
X030615Y015727D01*
X030617Y015719D02*
X030783Y015719D01*
X030781Y015710D02*
X030619Y015710D01*
X030621Y015702D02*
X030779Y015702D01*
X030777Y015693D02*
X030623Y015693D01*
X030625Y015685D02*
X030775Y015685D01*
X030773Y015676D02*
X030627Y015676D01*
X030629Y015668D02*
X030771Y015668D01*
X030769Y015659D02*
X030631Y015659D01*
X030633Y015651D02*
X030767Y015651D01*
X030765Y015642D02*
X030635Y015642D01*
X030637Y015634D02*
X030763Y015634D01*
X030761Y015625D02*
X030639Y015625D01*
X030640Y015617D02*
X030760Y015617D01*
X030758Y015608D02*
X030642Y015608D01*
X030644Y015600D02*
X030756Y015600D01*
X030754Y015591D02*
X030646Y015591D01*
X030648Y015583D02*
X030752Y015583D01*
X030750Y015574D02*
X030650Y015574D01*
X030652Y015566D02*
X030748Y015566D01*
X030746Y015557D02*
X030654Y015557D01*
X030656Y015549D02*
X030744Y015549D01*
X030742Y015540D02*
X030658Y015540D01*
X030660Y015532D02*
X030740Y015532D01*
X030738Y015523D02*
X030662Y015523D01*
X030664Y015515D02*
X030736Y015515D01*
X030734Y015506D02*
X030666Y015506D01*
X030668Y015498D02*
X030732Y015498D01*
X030731Y015489D02*
X030669Y015489D01*
X030671Y015481D02*
X030729Y015481D01*
X030727Y015472D02*
X030673Y015472D01*
X030675Y015464D02*
X030725Y015464D01*
X030723Y015455D02*
X030677Y015455D01*
X030679Y015447D02*
X030721Y015447D01*
X030719Y015438D02*
X030681Y015438D01*
X030683Y015430D02*
X030717Y015430D01*
X030715Y015421D02*
X030685Y015421D01*
X030687Y015413D02*
X030713Y015413D01*
X030711Y015404D02*
X030689Y015404D01*
X030691Y015396D02*
X030709Y015396D01*
X030707Y015387D02*
X030693Y015387D01*
X030695Y015379D02*
X030705Y015379D01*
X030704Y015370D02*
X030696Y015370D01*
X030698Y015362D02*
X030702Y015362D01*
X030613Y015804D02*
X030787Y015804D01*
X030775Y015812D02*
X030625Y015812D01*
X030637Y015821D02*
X030763Y015821D01*
X030751Y015829D02*
X030649Y015829D01*
X030661Y015838D02*
X030739Y015838D01*
X030727Y015846D02*
X030673Y015846D01*
X030686Y015855D02*
X030714Y015855D01*
X030702Y015863D02*
X030698Y015863D01*
X030280Y016145D02*
X030340Y016235D01*
X030280Y016325D01*
X029820Y016235D01*
X030280Y016145D01*
X030285Y016152D02*
X030242Y016152D01*
X030198Y016161D02*
X030291Y016161D01*
X030296Y016169D02*
X030155Y016169D01*
X030112Y016178D02*
X030302Y016178D01*
X030308Y016186D02*
X030068Y016186D01*
X030025Y016195D02*
X030313Y016195D01*
X030319Y016203D02*
X029981Y016203D01*
X029938Y016212D02*
X030325Y016212D01*
X030330Y016220D02*
X029894Y016220D01*
X029876Y016246D02*
X030333Y016246D01*
X030338Y016237D02*
X029833Y016237D01*
X029851Y016229D02*
X030336Y016229D01*
X030327Y016254D02*
X029919Y016254D01*
X029963Y016263D02*
X030321Y016263D01*
X030316Y016271D02*
X030006Y016271D01*
X030050Y016280D02*
X030310Y016280D01*
X030304Y016288D02*
X030093Y016288D01*
X030137Y016297D02*
X030299Y016297D01*
X030293Y016305D02*
X030180Y016305D01*
X030224Y016314D02*
X030287Y016314D01*
X030282Y016322D02*
X030267Y016322D01*
X004200Y004115D02*
X004300Y003655D01*
X004200Y003595D01*
X004100Y003655D01*
X004200Y004115D01*
X004198Y004108D02*
X004202Y004108D01*
X004203Y004099D02*
X004197Y004099D01*
X004195Y004091D02*
X004205Y004091D01*
X004207Y004082D02*
X004193Y004082D01*
X004191Y004074D02*
X004209Y004074D01*
X004211Y004065D02*
X004189Y004065D01*
X004187Y004057D02*
X004213Y004057D01*
X004215Y004048D02*
X004185Y004048D01*
X004184Y004040D02*
X004216Y004040D01*
X004218Y004031D02*
X004182Y004031D01*
X004180Y004023D02*
X004220Y004023D01*
X004222Y004014D02*
X004178Y004014D01*
X004176Y004006D02*
X004224Y004006D01*
X004226Y003997D02*
X004174Y003997D01*
X004173Y003989D02*
X004227Y003989D01*
X004229Y003980D02*
X004171Y003980D01*
X004169Y003972D02*
X004231Y003972D01*
X004233Y003963D02*
X004167Y003963D01*
X004165Y003955D02*
X004235Y003955D01*
X004237Y003946D02*
X004163Y003946D01*
X004161Y003938D02*
X004239Y003938D01*
X004240Y003929D02*
X004160Y003929D01*
X004158Y003921D02*
X004242Y003921D01*
X004244Y003912D02*
X004156Y003912D01*
X004154Y003904D02*
X004246Y003904D01*
X004248Y003895D02*
X004152Y003895D01*
X004150Y003887D02*
X004250Y003887D01*
X004251Y003878D02*
X004149Y003878D01*
X004147Y003870D02*
X004253Y003870D01*
X004255Y003861D02*
X004145Y003861D01*
X004143Y003853D02*
X004257Y003853D01*
X004259Y003844D02*
X004141Y003844D01*
X004139Y003836D02*
X004261Y003836D01*
X004263Y003827D02*
X004137Y003827D01*
X004136Y003819D02*
X004264Y003819D01*
X004266Y003810D02*
X004134Y003810D01*
X004132Y003802D02*
X004268Y003802D01*
X004270Y003793D02*
X004130Y003793D01*
X004128Y003785D02*
X004272Y003785D01*
X004274Y003776D02*
X004126Y003776D01*
X004124Y003768D02*
X004276Y003768D01*
X004277Y003759D02*
X004123Y003759D01*
X004121Y003751D02*
X004279Y003751D01*
X004281Y003742D02*
X004119Y003742D01*
X004117Y003734D02*
X004283Y003734D01*
X004285Y003725D02*
X004115Y003725D01*
X004113Y003717D02*
X004287Y003717D01*
X004288Y003708D02*
X004112Y003708D01*
X004110Y003700D02*
X004290Y003700D01*
X004292Y003691D02*
X004108Y003691D01*
X004106Y003683D02*
X004294Y003683D01*
X004296Y003674D02*
X004104Y003674D01*
X004102Y003666D02*
X004298Y003666D01*
X004300Y003657D02*
X004100Y003657D01*
X004111Y003649D02*
X004289Y003649D01*
X004275Y003640D02*
X004125Y003640D01*
X004139Y003632D02*
X004261Y003632D01*
X004247Y003623D02*
X004153Y003623D01*
X004167Y003615D02*
X004233Y003615D01*
X004218Y003606D02*
X004182Y003606D01*
X004196Y003598D02*
X004204Y003598D01*
X004262Y003496D02*
X004582Y003496D01*
X004588Y003504D02*
X004276Y003504D01*
X004289Y003513D02*
X004593Y003513D01*
X004598Y003521D02*
X004302Y003521D01*
X004315Y003530D02*
X004604Y003530D01*
X004609Y003538D02*
X004328Y003538D01*
X004341Y003547D02*
X004614Y003547D01*
X004619Y003555D02*
X004354Y003555D01*
X004367Y003564D02*
X004625Y003564D01*
X004630Y003572D02*
X004380Y003572D01*
X004393Y003581D02*
X004635Y003581D01*
X004641Y003589D02*
X004406Y003589D01*
X004419Y003598D02*
X004646Y003598D01*
X004651Y003606D02*
X004432Y003606D01*
X004446Y003615D02*
X004656Y003615D01*
X004662Y003623D02*
X004459Y003623D01*
X004472Y003632D02*
X004667Y003632D01*
X004672Y003640D02*
X004485Y003640D01*
X004498Y003649D02*
X004678Y003649D01*
X004683Y003657D02*
X004511Y003657D01*
X004524Y003666D02*
X004688Y003666D01*
X004694Y003674D02*
X004537Y003674D01*
X004550Y003683D02*
X004699Y003683D01*
X004704Y003691D02*
X004563Y003691D01*
X004576Y003700D02*
X004709Y003700D01*
X004715Y003708D02*
X004589Y003708D01*
X004602Y003717D02*
X004720Y003717D01*
X004725Y003725D02*
X004616Y003725D01*
X004629Y003734D02*
X004731Y003734D01*
X004736Y003742D02*
X004642Y003742D01*
X004655Y003751D02*
X004741Y003751D01*
X004746Y003759D02*
X004668Y003759D01*
X004681Y003768D02*
X004752Y003768D01*
X004757Y003776D02*
X004694Y003776D01*
X004707Y003785D02*
X004762Y003785D01*
X004768Y003793D02*
X004720Y003793D01*
X004733Y003802D02*
X004773Y003802D01*
X004778Y003810D02*
X004746Y003810D01*
X004759Y003819D02*
X004784Y003819D01*
X004789Y003827D02*
X004772Y003827D01*
X004786Y003836D02*
X004794Y003836D01*
X004799Y003844D02*
X004799Y003844D01*
X004800Y003845D02*
X004200Y003455D01*
X003590Y003835D01*
X003970Y003235D01*
X003590Y002615D01*
X004200Y003015D01*
X004820Y002605D01*
X004420Y003235D01*
X004800Y003845D01*
X004577Y003487D02*
X004249Y003487D01*
X004236Y003479D02*
X004572Y003479D01*
X004566Y003470D02*
X004223Y003470D01*
X004210Y003462D02*
X004561Y003462D01*
X004556Y003453D02*
X003832Y003453D01*
X003837Y003445D02*
X004551Y003445D01*
X004545Y003436D02*
X003843Y003436D01*
X003848Y003428D02*
X004540Y003428D01*
X004535Y003419D02*
X003853Y003419D01*
X003859Y003411D02*
X004529Y003411D01*
X004524Y003402D02*
X003864Y003402D01*
X003870Y003394D02*
X004519Y003394D01*
X004513Y003385D02*
X003875Y003385D01*
X003880Y003377D02*
X004508Y003377D01*
X004503Y003368D02*
X003886Y003368D01*
X003891Y003360D02*
X004498Y003360D01*
X004492Y003351D02*
X003896Y003351D01*
X003902Y003343D02*
X004487Y003343D01*
X004482Y003334D02*
X003907Y003334D01*
X003913Y003326D02*
X004476Y003326D01*
X004471Y003317D02*
X003918Y003317D01*
X003923Y003309D02*
X004466Y003309D01*
X004461Y003300D02*
X003929Y003300D01*
X003934Y003292D02*
X004455Y003292D01*
X004450Y003283D02*
X003940Y003283D01*
X003945Y003275D02*
X004445Y003275D01*
X004439Y003266D02*
X003950Y003266D01*
X003956Y003258D02*
X004434Y003258D01*
X004429Y003249D02*
X003961Y003249D01*
X003966Y003241D02*
X004423Y003241D01*
X004422Y003232D02*
X003968Y003232D01*
X003963Y003224D02*
X004427Y003224D01*
X004433Y003215D02*
X003958Y003215D01*
X003953Y003207D02*
X004438Y003207D01*
X004443Y003198D02*
X003947Y003198D01*
X003942Y003190D02*
X004449Y003190D01*
X004454Y003181D02*
X003937Y003181D01*
X003932Y003173D02*
X004460Y003173D01*
X004465Y003164D02*
X003927Y003164D01*
X003921Y003156D02*
X004470Y003156D01*
X004476Y003147D02*
X003916Y003147D01*
X003911Y003139D02*
X004481Y003139D01*
X004487Y003130D02*
X003906Y003130D01*
X003900Y003122D02*
X004492Y003122D01*
X004497Y003113D02*
X003895Y003113D01*
X003890Y003105D02*
X004503Y003105D01*
X004508Y003096D02*
X003885Y003096D01*
X003880Y003088D02*
X004514Y003088D01*
X004519Y003079D02*
X003874Y003079D01*
X003869Y003071D02*
X004524Y003071D01*
X004530Y003062D02*
X003864Y003062D01*
X003859Y003054D02*
X004535Y003054D01*
X004541Y003045D02*
X003854Y003045D01*
X003848Y003037D02*
X004546Y003037D01*
X004551Y003028D02*
X003843Y003028D01*
X003838Y003020D02*
X004557Y003020D01*
X004562Y003011D02*
X004206Y003011D01*
X004194Y003011D02*
X003833Y003011D01*
X003828Y003003D02*
X004181Y003003D01*
X004168Y002994D02*
X003822Y002994D01*
X003817Y002986D02*
X004155Y002986D01*
X004142Y002977D02*
X003812Y002977D01*
X003807Y002969D02*
X004129Y002969D01*
X004116Y002960D02*
X003801Y002960D01*
X003796Y002952D02*
X004103Y002952D01*
X004090Y002943D02*
X003791Y002943D01*
X003786Y002935D02*
X004077Y002935D01*
X004064Y002926D02*
X003781Y002926D01*
X003775Y002918D02*
X004051Y002918D01*
X004038Y002909D02*
X003770Y002909D01*
X003765Y002901D02*
X004026Y002901D01*
X004013Y002892D02*
X003760Y002892D01*
X003755Y002884D02*
X004000Y002884D01*
X003987Y002875D02*
X003749Y002875D01*
X003744Y002867D02*
X003974Y002867D01*
X003961Y002858D02*
X003739Y002858D01*
X003734Y002850D02*
X003948Y002850D01*
X003935Y002841D02*
X003729Y002841D01*
X003723Y002833D02*
X003922Y002833D01*
X003909Y002824D02*
X003718Y002824D01*
X003713Y002816D02*
X003896Y002816D01*
X003883Y002807D02*
X003708Y002807D01*
X003703Y002799D02*
X003870Y002799D01*
X003857Y002790D02*
X003697Y002790D01*
X003692Y002782D02*
X003844Y002782D01*
X003831Y002773D02*
X003687Y002773D01*
X003682Y002765D02*
X003818Y002765D01*
X003805Y002756D02*
X003676Y002756D01*
X003671Y002748D02*
X003792Y002748D01*
X003779Y002739D02*
X003666Y002739D01*
X003661Y002731D02*
X003766Y002731D01*
X003753Y002722D02*
X003656Y002722D01*
X003650Y002714D02*
X003740Y002714D01*
X003727Y002705D02*
X003645Y002705D01*
X003640Y002697D02*
X003714Y002697D01*
X003701Y002688D02*
X003635Y002688D01*
X003630Y002680D02*
X003688Y002680D01*
X003676Y002671D02*
X003624Y002671D01*
X003619Y002663D02*
X003663Y002663D01*
X003650Y002654D02*
X003614Y002654D01*
X003609Y002646D02*
X003637Y002646D01*
X003624Y002637D02*
X003604Y002637D01*
X003598Y002629D02*
X003611Y002629D01*
X003598Y002620D02*
X003593Y002620D01*
X004113Y002739D02*
X004287Y002739D01*
X004285Y002731D02*
X004115Y002731D01*
X004117Y002722D02*
X004283Y002722D01*
X004281Y002714D02*
X004119Y002714D01*
X004120Y002705D02*
X004280Y002705D01*
X004278Y002697D02*
X004122Y002697D01*
X004124Y002688D02*
X004276Y002688D01*
X004274Y002680D02*
X004126Y002680D01*
X004128Y002671D02*
X004272Y002671D01*
X004270Y002663D02*
X004130Y002663D01*
X004132Y002654D02*
X004268Y002654D01*
X004266Y002646D02*
X004134Y002646D01*
X004136Y002637D02*
X004264Y002637D01*
X004262Y002629D02*
X004138Y002629D01*
X004140Y002620D02*
X004260Y002620D01*
X004258Y002612D02*
X004142Y002612D01*
X004144Y002603D02*
X004256Y002603D01*
X004254Y002595D02*
X004146Y002595D01*
X004147Y002586D02*
X004253Y002586D01*
X004251Y002578D02*
X004149Y002578D01*
X004151Y002569D02*
X004249Y002569D01*
X004247Y002561D02*
X004153Y002561D01*
X004155Y002552D02*
X004245Y002552D01*
X004243Y002544D02*
X004157Y002544D01*
X004159Y002535D02*
X004241Y002535D01*
X004239Y002527D02*
X004161Y002527D01*
X004163Y002518D02*
X004237Y002518D01*
X004235Y002510D02*
X004165Y002510D01*
X004167Y002501D02*
X004233Y002501D01*
X004231Y002493D02*
X004169Y002493D01*
X004171Y002484D02*
X004229Y002484D01*
X004227Y002476D02*
X004173Y002476D01*
X004175Y002467D02*
X004225Y002467D01*
X004224Y002459D02*
X004176Y002459D01*
X004178Y002450D02*
X004222Y002450D01*
X004220Y002442D02*
X004180Y002442D01*
X004182Y002433D02*
X004218Y002433D01*
X004216Y002425D02*
X004184Y002425D01*
X004186Y002416D02*
X004214Y002416D01*
X004212Y002408D02*
X004188Y002408D01*
X004190Y002399D02*
X004210Y002399D01*
X004208Y002391D02*
X004192Y002391D01*
X004194Y002382D02*
X004206Y002382D01*
X004204Y002374D02*
X004196Y002374D01*
X004198Y002365D02*
X004202Y002365D01*
X004200Y002357D02*
X004200Y002357D01*
X004200Y002355D02*
X004300Y002795D01*
X004200Y002865D01*
X004100Y002795D01*
X004200Y002355D01*
X004784Y002629D02*
X004805Y002629D01*
X004800Y002637D02*
X004772Y002637D01*
X004759Y002646D02*
X004794Y002646D01*
X004789Y002654D02*
X004746Y002654D01*
X004733Y002663D02*
X004783Y002663D01*
X004778Y002671D02*
X004720Y002671D01*
X004707Y002680D02*
X004773Y002680D01*
X004767Y002688D02*
X004694Y002688D01*
X004682Y002697D02*
X004762Y002697D01*
X004756Y002705D02*
X004669Y002705D01*
X004656Y002714D02*
X004751Y002714D01*
X004746Y002722D02*
X004643Y002722D01*
X004630Y002731D02*
X004740Y002731D01*
X004735Y002739D02*
X004617Y002739D01*
X004604Y002748D02*
X004729Y002748D01*
X004724Y002756D02*
X004592Y002756D01*
X004579Y002765D02*
X004719Y002765D01*
X004713Y002773D02*
X004566Y002773D01*
X004553Y002782D02*
X004708Y002782D01*
X004702Y002790D02*
X004540Y002790D01*
X004527Y002799D02*
X004697Y002799D01*
X004692Y002807D02*
X004514Y002807D01*
X004502Y002816D02*
X004686Y002816D01*
X004681Y002824D02*
X004489Y002824D01*
X004476Y002833D02*
X004676Y002833D01*
X004670Y002841D02*
X004463Y002841D01*
X004450Y002850D02*
X004665Y002850D01*
X004659Y002858D02*
X004437Y002858D01*
X004424Y002867D02*
X004654Y002867D01*
X004649Y002875D02*
X004412Y002875D01*
X004399Y002884D02*
X004643Y002884D01*
X004638Y002892D02*
X004386Y002892D01*
X004373Y002901D02*
X004632Y002901D01*
X004627Y002909D02*
X004360Y002909D01*
X004347Y002918D02*
X004622Y002918D01*
X004616Y002926D02*
X004334Y002926D01*
X004322Y002935D02*
X004611Y002935D01*
X004605Y002943D02*
X004309Y002943D01*
X004296Y002952D02*
X004600Y002952D01*
X004595Y002960D02*
X004283Y002960D01*
X004270Y002969D02*
X004589Y002969D01*
X004584Y002977D02*
X004257Y002977D01*
X004244Y002986D02*
X004578Y002986D01*
X004573Y002994D02*
X004232Y002994D01*
X004219Y003003D02*
X004568Y003003D01*
X004620Y003145D02*
X004560Y003235D01*
X004620Y003325D01*
X005060Y003235D01*
X004620Y003145D01*
X004619Y003147D02*
X004630Y003147D01*
X004613Y003156D02*
X004672Y003156D01*
X004713Y003164D02*
X004607Y003164D01*
X004602Y003173D02*
X004755Y003173D01*
X004796Y003181D02*
X004596Y003181D01*
X004590Y003190D02*
X004838Y003190D01*
X004880Y003198D02*
X004585Y003198D01*
X004579Y003207D02*
X004921Y003207D01*
X004963Y003215D02*
X004573Y003215D01*
X004568Y003224D02*
X005004Y003224D01*
X004991Y003249D02*
X004569Y003249D01*
X004564Y003241D02*
X005033Y003241D01*
X005046Y003232D02*
X004562Y003232D01*
X004575Y003258D02*
X004950Y003258D01*
X004908Y003266D02*
X004581Y003266D01*
X004586Y003275D02*
X004866Y003275D01*
X004825Y003283D02*
X004592Y003283D01*
X004598Y003292D02*
X004783Y003292D01*
X004742Y003300D02*
X004603Y003300D01*
X004609Y003309D02*
X004700Y003309D01*
X004659Y003317D02*
X004615Y003317D01*
X004189Y003462D02*
X003826Y003462D01*
X003821Y003470D02*
X004176Y003470D01*
X004162Y003479D02*
X003816Y003479D01*
X003810Y003487D02*
X004148Y003487D01*
X004135Y003496D02*
X003805Y003496D01*
X003800Y003504D02*
X004121Y003504D01*
X004108Y003513D02*
X003794Y003513D01*
X003789Y003521D02*
X004094Y003521D01*
X004080Y003530D02*
X003783Y003530D01*
X003778Y003538D02*
X004067Y003538D01*
X004053Y003547D02*
X003773Y003547D01*
X003767Y003555D02*
X004039Y003555D01*
X004026Y003564D02*
X003762Y003564D01*
X003757Y003572D02*
X004012Y003572D01*
X003998Y003581D02*
X003751Y003581D01*
X003746Y003589D02*
X003985Y003589D01*
X003971Y003598D02*
X003740Y003598D01*
X003735Y003606D02*
X003957Y003606D01*
X003944Y003615D02*
X003730Y003615D01*
X003724Y003623D02*
X003930Y003623D01*
X003917Y003632D02*
X003719Y003632D01*
X003713Y003640D02*
X003903Y003640D01*
X003889Y003649D02*
X003708Y003649D01*
X003703Y003657D02*
X003876Y003657D01*
X003862Y003666D02*
X003697Y003666D01*
X003692Y003674D02*
X003848Y003674D01*
X003835Y003683D02*
X003687Y003683D01*
X003681Y003691D02*
X003821Y003691D01*
X003807Y003700D02*
X003676Y003700D01*
X003670Y003708D02*
X003794Y003708D01*
X003780Y003717D02*
X003665Y003717D01*
X003660Y003725D02*
X003766Y003725D01*
X003753Y003734D02*
X003654Y003734D01*
X003649Y003742D02*
X003739Y003742D01*
X003725Y003751D02*
X003643Y003751D01*
X003638Y003759D02*
X003712Y003759D01*
X003698Y003768D02*
X003633Y003768D01*
X003627Y003776D02*
X003685Y003776D01*
X003671Y003785D02*
X003622Y003785D01*
X003617Y003793D02*
X003657Y003793D01*
X003644Y003802D02*
X003611Y003802D01*
X003606Y003810D02*
X003630Y003810D01*
X003616Y003819D02*
X003600Y003819D01*
X003603Y003827D02*
X003595Y003827D01*
X003696Y003309D02*
X003791Y003309D01*
X003785Y003317D02*
X003740Y003317D01*
X003780Y003325D02*
X003320Y003235D01*
X003780Y003145D01*
X003840Y003235D01*
X003780Y003325D01*
X003797Y003300D02*
X003653Y003300D01*
X003609Y003292D02*
X003802Y003292D01*
X003808Y003283D02*
X003566Y003283D01*
X003522Y003275D02*
X003814Y003275D01*
X003819Y003266D02*
X003479Y003266D01*
X003435Y003258D02*
X003825Y003258D01*
X003831Y003249D02*
X003392Y003249D01*
X003378Y003224D02*
X003832Y003224D01*
X003838Y003232D02*
X003335Y003232D01*
X003349Y003241D02*
X003836Y003241D01*
X003827Y003215D02*
X003422Y003215D01*
X003465Y003207D02*
X003821Y003207D01*
X003815Y003198D02*
X003509Y003198D01*
X003552Y003190D02*
X003810Y003190D01*
X003804Y003181D02*
X003596Y003181D01*
X003639Y003173D02*
X003798Y003173D01*
X003793Y003164D02*
X003682Y003164D01*
X003726Y003156D02*
X003787Y003156D01*
X003781Y003147D02*
X003769Y003147D01*
X004190Y002858D02*
X004210Y002858D01*
X004222Y002850D02*
X004178Y002850D01*
X004166Y002841D02*
X004234Y002841D01*
X004246Y002833D02*
X004154Y002833D01*
X004142Y002824D02*
X004258Y002824D01*
X004271Y002816D02*
X004129Y002816D01*
X004117Y002807D02*
X004283Y002807D01*
X004295Y002799D02*
X004105Y002799D01*
X004101Y002790D02*
X004299Y002790D01*
X004297Y002782D02*
X004103Y002782D01*
X004105Y002773D02*
X004295Y002773D01*
X004293Y002765D02*
X004107Y002765D01*
X004109Y002756D02*
X004291Y002756D01*
X004289Y002748D02*
X004111Y002748D01*
X004797Y002620D02*
X004810Y002620D01*
X004810Y002612D02*
X004816Y002612D01*
D14*
X043300Y017325D03*
D15*
X024300Y016825D03*
X023550Y016325D03*
X024300Y015825D03*
D16*
X022800Y016825D03*
X023200Y017825D03*
X026500Y018725D03*
M02*
