G75*
G70*
%OFA0B0*%
%FSLAX24Y24*%
%IPPOS*%
%LPD*%
%AMOC8*
5,1,8,0,0,1.08239X$1,22.5*
%
%ADD10C,0.0080*%
%ADD11C,0.0120*%
%ADD12C,0.0050*%
%ADD13C,0.0010*%
%ADD14C,0.0100*%
%ADD15C,0.0060*%
D10*
X000801Y001103D02*
X000801Y007480D01*
X001194Y007480D01*
X001194Y001103D01*
X000801Y001103D01*
X001194Y001103D02*
X003754Y001103D01*
X003754Y007480D01*
X001194Y007480D01*
X001194Y008103D02*
X000801Y008103D01*
X000801Y014480D01*
X001194Y014480D01*
X001194Y008103D01*
X003754Y008103D01*
X003754Y014480D01*
X001194Y014480D01*
X001194Y015103D02*
X000801Y015103D01*
X000801Y021480D01*
X001194Y021480D01*
X001194Y015103D01*
X003754Y015103D01*
X003754Y021480D01*
X001194Y021480D01*
X001194Y022103D02*
X000801Y022103D01*
X000801Y028480D01*
X001194Y028480D01*
X001194Y022103D01*
X003754Y022103D01*
X003754Y028480D01*
X001194Y028480D01*
X013000Y022760D02*
X013100Y022760D01*
X013100Y023060D01*
X015100Y023060D01*
X015100Y022760D01*
X015200Y022760D01*
X015100Y022760D02*
X015100Y022460D01*
X013100Y022460D01*
X013100Y022760D01*
X015300Y024760D02*
X015600Y024760D01*
X015600Y024660D01*
X015600Y024760D02*
X015900Y024760D01*
X015900Y026760D01*
X015600Y026760D01*
X015600Y026860D01*
X015600Y026760D02*
X015300Y026760D01*
X015300Y024760D01*
X015600Y019860D02*
X015600Y019760D01*
X015900Y019760D01*
X015900Y017760D01*
X015600Y017760D01*
X015600Y017660D01*
X015600Y017760D02*
X015300Y017760D01*
X015300Y019760D01*
X015600Y019760D01*
X015100Y016060D02*
X013100Y016060D01*
X013100Y015760D01*
X013000Y015760D01*
X013100Y015760D02*
X013100Y015460D01*
X015100Y015460D01*
X015100Y015760D01*
X015200Y015760D01*
X015100Y015760D02*
X015100Y016060D01*
X015600Y012860D02*
X015600Y012760D01*
X015900Y012760D01*
X015900Y010760D01*
X015600Y010760D01*
X015600Y010660D01*
X015600Y010760D02*
X015300Y010760D01*
X015300Y012760D01*
X015600Y012760D01*
X015100Y009060D02*
X013100Y009060D01*
X013100Y008760D01*
X013000Y008760D01*
X013100Y008760D02*
X013100Y008460D01*
X015100Y008460D01*
X015100Y008760D01*
X015200Y008760D01*
X015100Y008760D02*
X015100Y009060D01*
X015600Y005860D02*
X015600Y005760D01*
X015900Y005760D01*
X015900Y003760D01*
X015600Y003760D01*
X015600Y003660D01*
X015600Y003760D02*
X015300Y003760D01*
X015300Y005760D01*
X015600Y005760D01*
X015100Y002060D02*
X013100Y002060D01*
X013100Y001760D01*
X013000Y001760D01*
X013100Y001760D02*
X013100Y001460D01*
X015100Y001460D01*
X015100Y001760D01*
X015200Y001760D01*
X015100Y001760D02*
X015100Y002060D01*
X022600Y009510D02*
X022850Y009260D01*
X023350Y009260D01*
X023600Y009510D01*
X023600Y010010D01*
X023350Y010260D01*
X023600Y010510D01*
X023600Y011010D01*
X023350Y011260D01*
X023600Y011510D01*
X023600Y012010D01*
X023350Y012260D01*
X023600Y012510D01*
X023600Y013010D01*
X023350Y013260D01*
X023600Y013510D01*
X023600Y014010D01*
X023350Y014260D01*
X023600Y014510D01*
X023600Y015010D01*
X023350Y015260D01*
X023600Y015510D01*
X023600Y016010D01*
X023350Y016260D01*
X023600Y016510D01*
X023600Y017010D01*
X023350Y017260D01*
X023600Y017510D01*
X023600Y018010D01*
X023350Y018260D01*
X023600Y018510D01*
X023600Y019010D01*
X023350Y019260D01*
X023600Y019510D01*
X023600Y020010D01*
X023350Y020260D01*
X023600Y020510D01*
X023600Y021010D01*
X023350Y021260D01*
X022850Y021260D01*
X022600Y021010D01*
X022600Y020510D01*
X022850Y020260D01*
X022600Y020010D01*
X022600Y019510D01*
X022850Y019260D01*
X022600Y019010D01*
X022600Y018510D01*
X022850Y018260D01*
X022600Y018010D01*
X022600Y017510D01*
X022850Y017260D01*
X022600Y017010D01*
X022600Y016510D01*
X022850Y016260D01*
X022600Y016010D01*
X022600Y015510D01*
X022850Y015260D01*
X022600Y015010D01*
X022600Y014510D01*
X022850Y014260D01*
X022600Y014010D01*
X022600Y013510D01*
X022850Y013260D01*
X022600Y013010D01*
X022600Y012510D01*
X022850Y012260D01*
X022600Y012010D01*
X022600Y011510D01*
X022850Y011260D01*
X022600Y011010D01*
X022600Y010510D01*
X022850Y010260D01*
X022600Y010010D01*
X022600Y009510D01*
X029600Y009510D02*
X029850Y009260D01*
X030350Y009260D01*
X030600Y009510D01*
X030600Y010010D01*
X030350Y010260D01*
X030600Y010510D01*
X030600Y011010D01*
X030350Y011260D01*
X030600Y011510D01*
X030600Y012010D01*
X030350Y012260D01*
X030600Y012510D01*
X030600Y013010D01*
X030350Y013260D01*
X030600Y013510D01*
X030600Y014010D01*
X030350Y014260D01*
X030600Y014510D01*
X030600Y015010D01*
X030350Y015260D01*
X030600Y015510D01*
X030600Y016010D01*
X030350Y016260D01*
X030600Y016510D01*
X030600Y017010D01*
X030350Y017260D01*
X030600Y017510D01*
X030600Y018010D01*
X030350Y018260D01*
X030600Y018510D01*
X030600Y019010D01*
X030350Y019260D01*
X030600Y019510D01*
X030600Y020010D01*
X030350Y020260D01*
X030600Y020510D01*
X030600Y021010D01*
X030350Y021260D01*
X029850Y021260D01*
X029600Y021010D01*
X029600Y020510D01*
X029850Y020260D01*
X029600Y020010D01*
X029600Y019510D01*
X029850Y019260D01*
X029600Y019010D01*
X029600Y018510D01*
X029850Y018260D01*
X029600Y018010D01*
X029600Y017510D01*
X029850Y017260D01*
X029600Y017010D01*
X029600Y016510D01*
X029850Y016260D01*
X029600Y016010D01*
X029600Y015510D01*
X029850Y015260D01*
X029600Y015010D01*
X029600Y014510D01*
X029850Y014260D01*
X029600Y014010D01*
X029600Y013510D01*
X029850Y013260D01*
X029600Y013010D01*
X029600Y012510D01*
X029850Y012260D01*
X029600Y012010D01*
X029600Y011510D01*
X029850Y011260D01*
X029600Y011010D01*
X029600Y010510D01*
X029850Y010260D01*
X029600Y010010D01*
X029600Y009510D01*
D11*
X029600Y009260D02*
X023600Y009260D01*
X022600Y021260D02*
X022600Y022260D01*
X025100Y022260D01*
X025100Y021260D01*
X028100Y021260D01*
X028100Y022260D01*
X030600Y022260D01*
X030600Y021260D01*
X028100Y022260D02*
X028100Y022760D01*
X025100Y022760D01*
X025100Y022260D01*
D12*
X014145Y020160D02*
X013987Y020160D01*
X013925Y019610D02*
X012275Y019610D01*
X012213Y020160D02*
X012055Y020160D01*
X012987Y020160D02*
X013213Y020160D01*
X012275Y019610D02*
X012240Y019658D01*
X012207Y019708D01*
X012176Y019760D01*
X012149Y019814D01*
X012125Y019869D01*
X012105Y019926D01*
X012087Y019983D01*
X012073Y020041D01*
X012062Y020100D01*
X012055Y020160D01*
X012051Y020222D01*
X012050Y020285D01*
X012054Y020347D01*
X012061Y020409D01*
X012071Y020470D01*
X012086Y020531D01*
X012104Y020591D01*
X012125Y020650D01*
X012150Y020707D01*
X012178Y020762D01*
X012209Y020816D01*
X012244Y020868D01*
X012282Y020918D01*
X012322Y020965D01*
X012366Y021010D01*
X012411Y021053D01*
X012460Y021092D01*
X012510Y021129D01*
X012563Y021162D01*
X012617Y021193D01*
X012674Y021220D01*
X012731Y021243D01*
X012790Y021263D01*
X011860Y021370D02*
X004340Y021370D01*
X004340Y015150D01*
X011860Y015150D01*
X011860Y021370D01*
X011860Y022150D02*
X011860Y028370D01*
X004340Y028370D01*
X004340Y022150D01*
X011860Y022150D01*
X013410Y021263D02*
X013470Y021243D01*
X013529Y021219D01*
X013586Y021191D01*
X013641Y021160D01*
X013695Y021125D01*
X013746Y021088D01*
X013795Y021047D01*
X013841Y021003D01*
X013885Y020957D01*
X013926Y020908D01*
X013964Y020857D01*
X013998Y020804D01*
X014030Y020748D01*
X014057Y020691D01*
X014082Y020632D01*
X014102Y020572D01*
X014120Y020511D01*
X014133Y020449D01*
X014142Y020386D01*
X014148Y020323D01*
X014150Y020259D01*
X014148Y020195D01*
X014142Y020132D01*
X014133Y020069D01*
X014119Y020007D01*
X014102Y019946D01*
X014081Y019886D01*
X014057Y019827D01*
X014029Y019770D01*
X013997Y019714D01*
X013962Y019661D01*
X013925Y019610D01*
X011860Y014370D02*
X004340Y014370D01*
X004340Y008150D01*
X011860Y008150D01*
X011860Y014370D01*
X012055Y013160D02*
X012213Y013160D01*
X012275Y012610D02*
X013925Y012610D01*
X013987Y013160D02*
X014145Y013160D01*
X013213Y013160D02*
X012987Y013160D01*
X012275Y012610D02*
X012240Y012658D01*
X012207Y012708D01*
X012176Y012760D01*
X012149Y012814D01*
X012125Y012869D01*
X012105Y012926D01*
X012087Y012983D01*
X012073Y013041D01*
X012062Y013100D01*
X012055Y013160D01*
X012051Y013222D01*
X012050Y013285D01*
X012054Y013347D01*
X012061Y013409D01*
X012071Y013470D01*
X012086Y013531D01*
X012104Y013591D01*
X012125Y013650D01*
X012150Y013707D01*
X012178Y013762D01*
X012209Y013816D01*
X012244Y013868D01*
X012282Y013918D01*
X012322Y013965D01*
X012366Y014010D01*
X012411Y014053D01*
X012460Y014092D01*
X012510Y014129D01*
X012563Y014162D01*
X012617Y014193D01*
X012674Y014220D01*
X012731Y014243D01*
X012790Y014263D01*
X013410Y014263D02*
X013470Y014243D01*
X013529Y014219D01*
X013586Y014191D01*
X013641Y014160D01*
X013695Y014125D01*
X013746Y014088D01*
X013795Y014047D01*
X013841Y014003D01*
X013885Y013957D01*
X013926Y013908D01*
X013964Y013857D01*
X013998Y013804D01*
X014030Y013748D01*
X014057Y013691D01*
X014082Y013632D01*
X014102Y013572D01*
X014120Y013511D01*
X014133Y013449D01*
X014142Y013386D01*
X014148Y013323D01*
X014150Y013259D01*
X014148Y013195D01*
X014142Y013132D01*
X014133Y013069D01*
X014119Y013007D01*
X014102Y012946D01*
X014081Y012886D01*
X014057Y012827D01*
X014029Y012770D01*
X013997Y012714D01*
X013962Y012661D01*
X013925Y012610D01*
X011860Y007370D02*
X004340Y007370D01*
X004340Y001150D01*
X011860Y001150D01*
X011860Y007370D01*
X012055Y006160D02*
X012213Y006160D01*
X012275Y005610D02*
X013925Y005610D01*
X013987Y006160D02*
X014145Y006160D01*
X013213Y006160D02*
X012987Y006160D01*
X012275Y005610D02*
X012240Y005658D01*
X012207Y005708D01*
X012176Y005760D01*
X012149Y005814D01*
X012125Y005869D01*
X012105Y005926D01*
X012087Y005983D01*
X012073Y006041D01*
X012062Y006100D01*
X012055Y006160D01*
X012051Y006222D01*
X012050Y006285D01*
X012054Y006347D01*
X012061Y006409D01*
X012071Y006470D01*
X012086Y006531D01*
X012104Y006591D01*
X012125Y006650D01*
X012150Y006707D01*
X012178Y006762D01*
X012209Y006816D01*
X012244Y006868D01*
X012282Y006918D01*
X012322Y006965D01*
X012366Y007010D01*
X012411Y007053D01*
X012460Y007092D01*
X012510Y007129D01*
X012563Y007162D01*
X012617Y007193D01*
X012674Y007220D01*
X012731Y007243D01*
X012790Y007263D01*
X013410Y007263D02*
X013470Y007243D01*
X013529Y007219D01*
X013586Y007191D01*
X013641Y007160D01*
X013695Y007125D01*
X013746Y007088D01*
X013795Y007047D01*
X013841Y007003D01*
X013885Y006957D01*
X013926Y006908D01*
X013964Y006857D01*
X013998Y006804D01*
X014030Y006748D01*
X014057Y006691D01*
X014082Y006632D01*
X014102Y006572D01*
X014120Y006511D01*
X014133Y006449D01*
X014142Y006386D01*
X014148Y006323D01*
X014150Y006259D01*
X014148Y006195D01*
X014142Y006132D01*
X014133Y006069D01*
X014119Y006007D01*
X014102Y005946D01*
X014081Y005886D01*
X014057Y005827D01*
X014029Y005770D01*
X013997Y005714D01*
X013962Y005661D01*
X013925Y005610D01*
X013925Y026610D02*
X012275Y026610D01*
X012213Y027160D02*
X012055Y027160D01*
X012987Y027160D02*
X013213Y027160D01*
X012275Y026610D02*
X012240Y026658D01*
X012207Y026708D01*
X012176Y026760D01*
X012149Y026814D01*
X012125Y026869D01*
X012105Y026926D01*
X012087Y026983D01*
X012073Y027041D01*
X012062Y027100D01*
X012055Y027160D01*
X012051Y027222D01*
X012050Y027285D01*
X012054Y027347D01*
X012061Y027409D01*
X012071Y027470D01*
X012086Y027531D01*
X012104Y027591D01*
X012125Y027650D01*
X012150Y027707D01*
X012178Y027762D01*
X012209Y027816D01*
X012244Y027868D01*
X012282Y027918D01*
X012322Y027965D01*
X012366Y028010D01*
X012411Y028053D01*
X012460Y028092D01*
X012510Y028129D01*
X012563Y028162D01*
X012617Y028193D01*
X012674Y028220D01*
X012731Y028243D01*
X012790Y028263D01*
X013410Y028263D02*
X013470Y028243D01*
X013529Y028219D01*
X013586Y028191D01*
X013641Y028160D01*
X013695Y028125D01*
X013746Y028088D01*
X013795Y028047D01*
X013841Y028003D01*
X013885Y027957D01*
X013926Y027908D01*
X013964Y027857D01*
X013998Y027804D01*
X014030Y027748D01*
X014057Y027691D01*
X014082Y027632D01*
X014102Y027572D01*
X014120Y027511D01*
X014133Y027449D01*
X014142Y027386D01*
X014148Y027323D01*
X014150Y027259D01*
X014148Y027195D01*
X014142Y027132D01*
X014133Y027069D01*
X014119Y027007D01*
X014102Y026946D01*
X014081Y026886D01*
X014057Y026827D01*
X014029Y026770D01*
X013997Y026714D01*
X013962Y026661D01*
X013925Y026610D01*
X013987Y027160D02*
X014145Y027160D01*
D13*
X013677Y025991D02*
X013722Y025913D01*
X013721Y025913D02*
X013677Y025885D01*
X013635Y025854D01*
X013595Y025821D01*
X013557Y025785D01*
X013522Y025746D01*
X013490Y025705D01*
X013460Y025661D01*
X013434Y025616D01*
X013411Y025569D01*
X013391Y025521D01*
X013375Y025471D01*
X013362Y025421D01*
X013353Y025369D01*
X013347Y025317D01*
X013345Y025265D01*
X013256Y025264D01*
X013255Y025265D01*
X013257Y025320D01*
X013263Y025374D01*
X013272Y025429D01*
X013285Y025482D01*
X013301Y025534D01*
X013320Y025586D01*
X013343Y025636D01*
X013369Y025684D01*
X013398Y025731D01*
X013430Y025775D01*
X013465Y025818D01*
X013503Y025858D01*
X013543Y025895D01*
X013585Y025930D01*
X013630Y025962D01*
X013676Y025991D01*
X013681Y025983D01*
X013635Y025955D01*
X013591Y025923D01*
X013549Y025888D01*
X013509Y025851D01*
X013472Y025812D01*
X013437Y025770D01*
X013406Y025726D01*
X013377Y025680D01*
X013351Y025632D01*
X013329Y025582D01*
X013309Y025532D01*
X013293Y025480D01*
X013281Y025427D01*
X013272Y025373D01*
X013266Y025319D01*
X013264Y025265D01*
X013273Y025265D01*
X013275Y025319D01*
X013281Y025372D01*
X013290Y025425D01*
X013302Y025477D01*
X013318Y025529D01*
X013337Y025579D01*
X013359Y025628D01*
X013385Y025675D01*
X013413Y025721D01*
X013445Y025764D01*
X013479Y025806D01*
X013515Y025845D01*
X013555Y025882D01*
X013596Y025916D01*
X013640Y025947D01*
X013685Y025976D01*
X013690Y025968D01*
X013642Y025938D01*
X013596Y025904D01*
X013553Y025868D01*
X013512Y025828D01*
X013474Y025786D01*
X013439Y025742D01*
X013407Y025695D01*
X013379Y025646D01*
X013354Y025595D01*
X013332Y025542D01*
X013315Y025489D01*
X013301Y025434D01*
X013291Y025378D01*
X013284Y025322D01*
X013282Y025265D01*
X013291Y025265D01*
X013293Y025321D01*
X013299Y025377D01*
X013309Y025432D01*
X013323Y025486D01*
X013341Y025539D01*
X013362Y025591D01*
X013387Y025642D01*
X013415Y025690D01*
X013446Y025736D01*
X013481Y025781D01*
X013518Y025822D01*
X013559Y025861D01*
X013601Y025897D01*
X013647Y025930D01*
X013694Y025960D01*
X013699Y025952D01*
X013652Y025923D01*
X013607Y025890D01*
X013565Y025854D01*
X013525Y025816D01*
X013488Y025775D01*
X013453Y025731D01*
X013422Y025685D01*
X013395Y025637D01*
X013370Y025588D01*
X013349Y025536D01*
X013332Y025484D01*
X013318Y025430D01*
X013308Y025375D01*
X013302Y025320D01*
X013300Y025265D01*
X013309Y025265D01*
X013311Y025320D01*
X013317Y025374D01*
X013327Y025428D01*
X013341Y025481D01*
X013358Y025533D01*
X013378Y025584D01*
X013403Y025633D01*
X013430Y025680D01*
X013461Y025726D01*
X013494Y025769D01*
X013531Y025810D01*
X013571Y025848D01*
X013613Y025883D01*
X013657Y025915D01*
X013703Y025944D01*
X013708Y025936D01*
X013662Y025908D01*
X013618Y025876D01*
X013577Y025841D01*
X013538Y025803D01*
X013501Y025763D01*
X013468Y025721D01*
X013438Y025676D01*
X013410Y025629D01*
X013387Y025580D01*
X013366Y025530D01*
X013349Y025479D01*
X013336Y025426D01*
X013326Y025373D01*
X013320Y025319D01*
X013318Y025265D01*
X013327Y025265D01*
X013329Y025318D01*
X013335Y025372D01*
X013345Y025424D01*
X013358Y025476D01*
X013375Y025527D01*
X013395Y025577D01*
X013418Y025625D01*
X013445Y025671D01*
X013475Y025715D01*
X013508Y025757D01*
X013544Y025797D01*
X013583Y025834D01*
X013624Y025869D01*
X013667Y025900D01*
X013712Y025929D01*
X013717Y025921D01*
X013672Y025893D01*
X013629Y025862D01*
X013589Y025828D01*
X013551Y025791D01*
X013515Y025752D01*
X013483Y025710D01*
X013453Y025666D01*
X013426Y025620D01*
X013403Y025573D01*
X013383Y025524D01*
X013366Y025474D01*
X013353Y025422D01*
X013344Y025370D01*
X013338Y025318D01*
X013336Y025265D01*
X014944Y025265D02*
X014854Y025265D01*
X014855Y025265D02*
X014853Y025319D01*
X014847Y025372D01*
X014837Y025425D01*
X014823Y025477D01*
X014806Y025528D01*
X014785Y025577D01*
X014761Y025625D01*
X014733Y025671D01*
X014702Y025715D01*
X014668Y025757D01*
X014632Y025796D01*
X014592Y025833D01*
X014550Y025866D01*
X014506Y025897D01*
X014460Y025924D01*
X014502Y026003D01*
X014551Y025975D01*
X014597Y025943D01*
X014642Y025908D01*
X014684Y025871D01*
X014724Y025830D01*
X014760Y025787D01*
X014794Y025742D01*
X014825Y025695D01*
X014852Y025645D01*
X014876Y025594D01*
X014897Y025542D01*
X014914Y025488D01*
X014927Y025433D01*
X014937Y025378D01*
X014943Y025321D01*
X014945Y025265D01*
X014936Y025265D01*
X014934Y025321D01*
X014928Y025376D01*
X014918Y025431D01*
X014905Y025486D01*
X014888Y025539D01*
X014868Y025591D01*
X014844Y025641D01*
X014817Y025690D01*
X014787Y025737D01*
X014753Y025782D01*
X014717Y025824D01*
X014678Y025864D01*
X014636Y025901D01*
X014592Y025936D01*
X014546Y025967D01*
X014498Y025995D01*
X014494Y025987D01*
X014541Y025959D01*
X014587Y025928D01*
X014630Y025894D01*
X014672Y025858D01*
X014710Y025818D01*
X014746Y025776D01*
X014779Y025732D01*
X014809Y025686D01*
X014836Y025637D01*
X014859Y025587D01*
X014880Y025536D01*
X014896Y025483D01*
X014909Y025430D01*
X014919Y025375D01*
X014925Y025320D01*
X014927Y025265D01*
X014918Y025265D01*
X014916Y025320D01*
X014910Y025374D01*
X014901Y025428D01*
X014888Y025481D01*
X014871Y025533D01*
X014851Y025584D01*
X014828Y025633D01*
X014801Y025681D01*
X014772Y025727D01*
X014739Y025771D01*
X014704Y025812D01*
X014665Y025851D01*
X014625Y025888D01*
X014582Y025921D01*
X014536Y025952D01*
X014489Y025979D01*
X014485Y025971D01*
X014532Y025944D01*
X014576Y025914D01*
X014619Y025881D01*
X014659Y025845D01*
X014697Y025806D01*
X014732Y025765D01*
X014764Y025722D01*
X014794Y025676D01*
X014820Y025629D01*
X014843Y025580D01*
X014863Y025530D01*
X014879Y025478D01*
X014892Y025426D01*
X014901Y025373D01*
X014907Y025319D01*
X014909Y025265D01*
X014900Y025265D01*
X014898Y025318D01*
X014892Y025371D01*
X014883Y025424D01*
X014870Y025476D01*
X014854Y025527D01*
X014835Y025577D01*
X014812Y025625D01*
X014786Y025672D01*
X014757Y025716D01*
X014725Y025759D01*
X014690Y025800D01*
X014653Y025838D01*
X014613Y025874D01*
X014571Y025907D01*
X014527Y025937D01*
X014481Y025964D01*
X014477Y025956D01*
X014522Y025929D01*
X014566Y025899D01*
X014607Y025867D01*
X014647Y025832D01*
X014684Y025794D01*
X014718Y025754D01*
X014750Y025711D01*
X014778Y025667D01*
X014804Y025621D01*
X014826Y025573D01*
X014846Y025524D01*
X014862Y025474D01*
X014874Y025422D01*
X014883Y025370D01*
X014889Y025318D01*
X014891Y025265D01*
X014882Y025265D01*
X014880Y025321D01*
X014873Y025376D01*
X014863Y025431D01*
X014849Y025485D01*
X014831Y025537D01*
X014810Y025589D01*
X014784Y025638D01*
X014756Y025686D01*
X014724Y025732D01*
X014689Y025775D01*
X014651Y025815D01*
X014610Y025853D01*
X014566Y025888D01*
X014520Y025919D01*
X014472Y025948D01*
X014468Y025940D01*
X014516Y025912D01*
X014561Y025881D01*
X014604Y025846D01*
X014644Y025809D01*
X014682Y025769D01*
X014717Y025726D01*
X014748Y025681D01*
X014777Y025634D01*
X014801Y025585D01*
X014823Y025534D01*
X014840Y025482D01*
X014854Y025429D01*
X014864Y025375D01*
X014871Y025320D01*
X014873Y025265D01*
X014864Y025265D01*
X014862Y025319D01*
X014856Y025373D01*
X014846Y025427D01*
X014832Y025479D01*
X014814Y025531D01*
X014793Y025581D01*
X014769Y025630D01*
X014741Y025676D01*
X014709Y025721D01*
X014675Y025763D01*
X014638Y025802D01*
X014598Y025839D01*
X014556Y025873D01*
X014511Y025904D01*
X014464Y025932D01*
X014644Y024615D02*
X014587Y024684D01*
X014587Y024683D02*
X014627Y024720D01*
X014665Y024759D01*
X014699Y024801D01*
X014731Y024845D01*
X014759Y024891D01*
X014784Y024940D01*
X014805Y024990D01*
X014823Y025041D01*
X014836Y025094D01*
X014846Y025147D01*
X014853Y025201D01*
X014855Y025255D01*
X014944Y025256D01*
X014945Y025255D01*
X014943Y025199D01*
X014937Y025143D01*
X014927Y025088D01*
X014914Y025033D01*
X014897Y024980D01*
X014877Y024927D01*
X014853Y024876D01*
X014826Y024827D01*
X014795Y024780D01*
X014762Y024735D01*
X014726Y024692D01*
X014687Y024652D01*
X014645Y024614D01*
X014639Y024621D01*
X014680Y024658D01*
X014719Y024698D01*
X014755Y024740D01*
X014788Y024785D01*
X014818Y024832D01*
X014845Y024880D01*
X014868Y024931D01*
X014889Y024983D01*
X014905Y025036D01*
X014918Y025090D01*
X014928Y025144D01*
X014934Y025199D01*
X014936Y025255D01*
X014927Y025255D01*
X014925Y025200D01*
X014919Y025145D01*
X014910Y025091D01*
X014897Y025038D01*
X014880Y024986D01*
X014860Y024934D01*
X014837Y024885D01*
X014810Y024836D01*
X014781Y024790D01*
X014748Y024746D01*
X014712Y024704D01*
X014674Y024665D01*
X014633Y024628D01*
X014628Y024635D01*
X014668Y024671D01*
X014706Y024710D01*
X014741Y024752D01*
X014773Y024795D01*
X014803Y024841D01*
X014829Y024889D01*
X014852Y024938D01*
X014872Y024988D01*
X014888Y025040D01*
X014901Y025093D01*
X014910Y025147D01*
X014916Y025201D01*
X014918Y025255D01*
X014909Y025255D01*
X014907Y025201D01*
X014901Y025148D01*
X014892Y025095D01*
X014879Y025043D01*
X014863Y024991D01*
X014844Y024941D01*
X014821Y024893D01*
X014795Y024846D01*
X014766Y024800D01*
X014734Y024757D01*
X014699Y024716D01*
X014662Y024678D01*
X014622Y024642D01*
X014616Y024649D01*
X014655Y024684D01*
X014692Y024722D01*
X014727Y024763D01*
X014758Y024806D01*
X014787Y024850D01*
X014813Y024897D01*
X014835Y024945D01*
X014855Y024994D01*
X014871Y025045D01*
X014883Y025097D01*
X014892Y025149D01*
X014898Y025202D01*
X014900Y025255D01*
X014891Y025255D01*
X014889Y025203D01*
X014883Y025150D01*
X014874Y025099D01*
X014862Y025048D01*
X014846Y024997D01*
X014827Y024948D01*
X014805Y024901D01*
X014779Y024855D01*
X014751Y024811D01*
X014720Y024769D01*
X014686Y024728D01*
X014649Y024691D01*
X014610Y024656D01*
X014604Y024662D01*
X014643Y024697D01*
X014679Y024735D01*
X014713Y024774D01*
X014744Y024816D01*
X014772Y024860D01*
X014797Y024905D01*
X014819Y024952D01*
X014838Y025000D01*
X014853Y025050D01*
X014866Y025100D01*
X014874Y025152D01*
X014880Y025203D01*
X014882Y025255D01*
X014873Y025255D01*
X014871Y025204D01*
X014866Y025153D01*
X014857Y025102D01*
X014845Y025052D01*
X014829Y025003D01*
X014811Y024956D01*
X014789Y024909D01*
X014764Y024864D01*
X014736Y024821D01*
X014706Y024780D01*
X014673Y024741D01*
X014637Y024704D01*
X014599Y024669D01*
X014593Y024676D01*
X014634Y024713D01*
X014672Y024753D01*
X014706Y024795D01*
X014738Y024840D01*
X014767Y024887D01*
X014792Y024936D01*
X014813Y024987D01*
X014831Y025038D01*
X014845Y025092D01*
X014855Y025146D01*
X014862Y025200D01*
X014864Y025255D01*
X013256Y025256D02*
X013346Y025256D01*
X013345Y025255D02*
X013347Y025201D01*
X013353Y025148D01*
X013363Y025095D01*
X013377Y025043D01*
X013394Y024992D01*
X013415Y024942D01*
X013439Y024894D01*
X013467Y024848D01*
X013498Y024804D01*
X013532Y024763D01*
X013569Y024723D01*
X013608Y024687D01*
X013551Y024619D01*
X013550Y024618D01*
X013509Y024656D01*
X013471Y024696D01*
X013435Y024739D01*
X013402Y024784D01*
X013372Y024831D01*
X013346Y024879D01*
X013322Y024930D01*
X013302Y024982D01*
X013286Y025035D01*
X013272Y025089D01*
X013263Y025144D01*
X013257Y025199D01*
X013255Y025255D01*
X013264Y025255D01*
X013266Y025200D01*
X013272Y025145D01*
X013281Y025091D01*
X013294Y025037D01*
X013311Y024985D01*
X013330Y024933D01*
X013354Y024883D01*
X013380Y024835D01*
X013410Y024789D01*
X013442Y024744D01*
X013477Y024702D01*
X013516Y024662D01*
X013556Y024625D01*
X013562Y024632D01*
X013522Y024669D01*
X013484Y024708D01*
X013449Y024750D01*
X013417Y024794D01*
X013388Y024840D01*
X013362Y024888D01*
X013339Y024937D01*
X013319Y024988D01*
X013303Y025040D01*
X013290Y025093D01*
X013281Y025146D01*
X013275Y025201D01*
X013273Y025255D01*
X013282Y025255D01*
X013284Y025201D01*
X013290Y025148D01*
X013299Y025095D01*
X013312Y025042D01*
X013328Y024991D01*
X013347Y024940D01*
X013370Y024892D01*
X013395Y024844D01*
X013424Y024799D01*
X013456Y024755D01*
X013491Y024714D01*
X013528Y024675D01*
X013568Y024639D01*
X013574Y024646D01*
X013534Y024682D01*
X013497Y024720D01*
X013463Y024761D01*
X013432Y024804D01*
X013403Y024849D01*
X013378Y024896D01*
X013355Y024944D01*
X013336Y024994D01*
X013320Y025045D01*
X013308Y025096D01*
X013299Y025149D01*
X013293Y025202D01*
X013291Y025255D01*
X013300Y025255D01*
X013302Y025202D01*
X013308Y025150D01*
X013317Y025098D01*
X013329Y025047D01*
X013345Y024997D01*
X013364Y024947D01*
X013386Y024900D01*
X013411Y024853D01*
X013439Y024809D01*
X013470Y024767D01*
X013504Y024726D01*
X013541Y024688D01*
X013579Y024653D01*
X013585Y024659D01*
X013547Y024695D01*
X013511Y024732D01*
X013477Y024772D01*
X013447Y024814D01*
X013419Y024858D01*
X013394Y024904D01*
X013372Y024951D01*
X013353Y025000D01*
X013338Y025049D01*
X013325Y025100D01*
X013317Y025151D01*
X013311Y025203D01*
X013309Y025255D01*
X013318Y025255D01*
X013320Y025199D01*
X013327Y025144D01*
X013337Y025089D01*
X013351Y025035D01*
X013369Y024982D01*
X013391Y024931D01*
X013416Y024881D01*
X013445Y024833D01*
X013477Y024788D01*
X013512Y024745D01*
X013550Y024704D01*
X013591Y024666D01*
X013597Y024673D01*
X013556Y024710D01*
X013519Y024751D01*
X013484Y024793D01*
X013452Y024838D01*
X013424Y024886D01*
X013399Y024935D01*
X013377Y024986D01*
X013360Y025038D01*
X013346Y025091D01*
X013336Y025145D01*
X013329Y025200D01*
X013327Y025255D01*
X013336Y025255D01*
X013338Y025201D01*
X013344Y025147D01*
X013354Y025093D01*
X013368Y025040D01*
X013386Y024989D01*
X013407Y024939D01*
X013432Y024890D01*
X013460Y024843D01*
X013491Y024799D01*
X013525Y024757D01*
X013563Y024717D01*
X013603Y024680D01*
X013677Y018991D02*
X013722Y018913D01*
X013721Y018913D02*
X013677Y018885D01*
X013635Y018854D01*
X013595Y018821D01*
X013557Y018785D01*
X013522Y018746D01*
X013490Y018705D01*
X013460Y018661D01*
X013434Y018616D01*
X013411Y018569D01*
X013391Y018521D01*
X013375Y018471D01*
X013362Y018421D01*
X013353Y018369D01*
X013347Y018317D01*
X013345Y018265D01*
X013256Y018264D01*
X013255Y018265D01*
X013257Y018320D01*
X013263Y018374D01*
X013272Y018429D01*
X013285Y018482D01*
X013301Y018534D01*
X013320Y018586D01*
X013343Y018636D01*
X013369Y018684D01*
X013398Y018731D01*
X013430Y018775D01*
X013465Y018818D01*
X013503Y018858D01*
X013543Y018895D01*
X013585Y018930D01*
X013630Y018962D01*
X013676Y018991D01*
X013681Y018983D01*
X013635Y018955D01*
X013591Y018923D01*
X013549Y018888D01*
X013509Y018851D01*
X013472Y018812D01*
X013437Y018770D01*
X013406Y018726D01*
X013377Y018680D01*
X013351Y018632D01*
X013329Y018582D01*
X013309Y018532D01*
X013293Y018480D01*
X013281Y018427D01*
X013272Y018373D01*
X013266Y018319D01*
X013264Y018265D01*
X013273Y018265D01*
X013275Y018319D01*
X013281Y018372D01*
X013290Y018425D01*
X013302Y018477D01*
X013318Y018529D01*
X013337Y018579D01*
X013359Y018628D01*
X013385Y018675D01*
X013413Y018721D01*
X013445Y018764D01*
X013479Y018806D01*
X013515Y018845D01*
X013555Y018882D01*
X013596Y018916D01*
X013640Y018947D01*
X013685Y018976D01*
X013690Y018968D01*
X013642Y018938D01*
X013596Y018904D01*
X013553Y018868D01*
X013512Y018828D01*
X013474Y018786D01*
X013439Y018742D01*
X013407Y018695D01*
X013379Y018646D01*
X013354Y018595D01*
X013332Y018542D01*
X013315Y018489D01*
X013301Y018434D01*
X013291Y018378D01*
X013284Y018322D01*
X013282Y018265D01*
X013291Y018265D01*
X013293Y018321D01*
X013299Y018377D01*
X013309Y018432D01*
X013323Y018486D01*
X013341Y018539D01*
X013362Y018591D01*
X013387Y018642D01*
X013415Y018690D01*
X013446Y018736D01*
X013481Y018781D01*
X013518Y018822D01*
X013559Y018861D01*
X013601Y018897D01*
X013647Y018930D01*
X013694Y018960D01*
X013699Y018952D01*
X013652Y018923D01*
X013607Y018890D01*
X013565Y018854D01*
X013525Y018816D01*
X013488Y018775D01*
X013453Y018731D01*
X013422Y018685D01*
X013395Y018637D01*
X013370Y018588D01*
X013349Y018536D01*
X013332Y018484D01*
X013318Y018430D01*
X013308Y018375D01*
X013302Y018320D01*
X013300Y018265D01*
X013309Y018265D01*
X013311Y018320D01*
X013317Y018374D01*
X013327Y018428D01*
X013341Y018481D01*
X013358Y018533D01*
X013378Y018584D01*
X013403Y018633D01*
X013430Y018680D01*
X013461Y018726D01*
X013494Y018769D01*
X013531Y018810D01*
X013571Y018848D01*
X013613Y018883D01*
X013657Y018915D01*
X013703Y018944D01*
X013708Y018936D01*
X013662Y018908D01*
X013618Y018876D01*
X013577Y018841D01*
X013538Y018803D01*
X013501Y018763D01*
X013468Y018721D01*
X013438Y018676D01*
X013410Y018629D01*
X013387Y018580D01*
X013366Y018530D01*
X013349Y018479D01*
X013336Y018426D01*
X013326Y018373D01*
X013320Y018319D01*
X013318Y018265D01*
X013327Y018265D01*
X013329Y018318D01*
X013335Y018372D01*
X013345Y018424D01*
X013358Y018476D01*
X013375Y018527D01*
X013395Y018577D01*
X013418Y018625D01*
X013445Y018671D01*
X013475Y018715D01*
X013508Y018757D01*
X013544Y018797D01*
X013583Y018834D01*
X013624Y018869D01*
X013667Y018900D01*
X013712Y018929D01*
X013717Y018921D01*
X013672Y018893D01*
X013629Y018862D01*
X013589Y018828D01*
X013551Y018791D01*
X013515Y018752D01*
X013483Y018710D01*
X013453Y018666D01*
X013426Y018620D01*
X013403Y018573D01*
X013383Y018524D01*
X013366Y018474D01*
X013353Y018422D01*
X013344Y018370D01*
X013338Y018318D01*
X013336Y018265D01*
X014944Y018265D02*
X014854Y018265D01*
X014855Y018265D02*
X014853Y018319D01*
X014847Y018372D01*
X014837Y018425D01*
X014823Y018477D01*
X014806Y018528D01*
X014785Y018577D01*
X014761Y018625D01*
X014733Y018671D01*
X014702Y018715D01*
X014668Y018757D01*
X014632Y018796D01*
X014592Y018833D01*
X014550Y018866D01*
X014506Y018897D01*
X014460Y018924D01*
X014502Y019003D01*
X014551Y018975D01*
X014597Y018943D01*
X014642Y018908D01*
X014684Y018871D01*
X014724Y018830D01*
X014760Y018787D01*
X014794Y018742D01*
X014825Y018695D01*
X014852Y018645D01*
X014876Y018594D01*
X014897Y018542D01*
X014914Y018488D01*
X014927Y018433D01*
X014937Y018378D01*
X014943Y018321D01*
X014945Y018265D01*
X014936Y018265D01*
X014934Y018321D01*
X014928Y018376D01*
X014918Y018431D01*
X014905Y018486D01*
X014888Y018539D01*
X014868Y018591D01*
X014844Y018641D01*
X014817Y018690D01*
X014787Y018737D01*
X014753Y018782D01*
X014717Y018824D01*
X014678Y018864D01*
X014636Y018901D01*
X014592Y018936D01*
X014546Y018967D01*
X014498Y018995D01*
X014494Y018987D01*
X014541Y018959D01*
X014587Y018928D01*
X014630Y018894D01*
X014672Y018858D01*
X014710Y018818D01*
X014746Y018776D01*
X014779Y018732D01*
X014809Y018686D01*
X014836Y018637D01*
X014859Y018587D01*
X014880Y018536D01*
X014896Y018483D01*
X014909Y018430D01*
X014919Y018375D01*
X014925Y018320D01*
X014927Y018265D01*
X014918Y018265D01*
X014916Y018320D01*
X014910Y018374D01*
X014901Y018428D01*
X014888Y018481D01*
X014871Y018533D01*
X014851Y018584D01*
X014828Y018633D01*
X014801Y018681D01*
X014772Y018727D01*
X014739Y018771D01*
X014704Y018812D01*
X014665Y018851D01*
X014625Y018888D01*
X014582Y018921D01*
X014536Y018952D01*
X014489Y018979D01*
X014485Y018971D01*
X014532Y018944D01*
X014576Y018914D01*
X014619Y018881D01*
X014659Y018845D01*
X014697Y018806D01*
X014732Y018765D01*
X014764Y018722D01*
X014794Y018676D01*
X014820Y018629D01*
X014843Y018580D01*
X014863Y018530D01*
X014879Y018478D01*
X014892Y018426D01*
X014901Y018373D01*
X014907Y018319D01*
X014909Y018265D01*
X014900Y018265D01*
X014898Y018318D01*
X014892Y018371D01*
X014883Y018424D01*
X014870Y018476D01*
X014854Y018527D01*
X014835Y018577D01*
X014812Y018625D01*
X014786Y018672D01*
X014757Y018716D01*
X014725Y018759D01*
X014690Y018800D01*
X014653Y018838D01*
X014613Y018874D01*
X014571Y018907D01*
X014527Y018937D01*
X014481Y018964D01*
X014477Y018956D01*
X014522Y018929D01*
X014566Y018899D01*
X014607Y018867D01*
X014647Y018832D01*
X014684Y018794D01*
X014718Y018754D01*
X014750Y018711D01*
X014778Y018667D01*
X014804Y018621D01*
X014826Y018573D01*
X014846Y018524D01*
X014862Y018474D01*
X014874Y018422D01*
X014883Y018370D01*
X014889Y018318D01*
X014891Y018265D01*
X014882Y018265D01*
X014880Y018321D01*
X014873Y018376D01*
X014863Y018431D01*
X014849Y018485D01*
X014831Y018537D01*
X014810Y018589D01*
X014784Y018638D01*
X014756Y018686D01*
X014724Y018732D01*
X014689Y018775D01*
X014651Y018815D01*
X014610Y018853D01*
X014566Y018888D01*
X014520Y018919D01*
X014472Y018948D01*
X014468Y018940D01*
X014516Y018912D01*
X014561Y018881D01*
X014604Y018846D01*
X014644Y018809D01*
X014682Y018769D01*
X014717Y018726D01*
X014748Y018681D01*
X014777Y018634D01*
X014801Y018585D01*
X014823Y018534D01*
X014840Y018482D01*
X014854Y018429D01*
X014864Y018375D01*
X014871Y018320D01*
X014873Y018265D01*
X014864Y018265D01*
X014862Y018319D01*
X014856Y018373D01*
X014846Y018427D01*
X014832Y018479D01*
X014814Y018531D01*
X014793Y018581D01*
X014769Y018630D01*
X014741Y018676D01*
X014709Y018721D01*
X014675Y018763D01*
X014638Y018802D01*
X014598Y018839D01*
X014556Y018873D01*
X014511Y018904D01*
X014464Y018932D01*
X014644Y017615D02*
X014587Y017684D01*
X014587Y017683D02*
X014627Y017720D01*
X014665Y017759D01*
X014699Y017801D01*
X014731Y017845D01*
X014759Y017891D01*
X014784Y017940D01*
X014805Y017990D01*
X014823Y018041D01*
X014836Y018094D01*
X014846Y018147D01*
X014853Y018201D01*
X014855Y018255D01*
X014944Y018256D01*
X014945Y018255D01*
X014943Y018199D01*
X014937Y018143D01*
X014927Y018088D01*
X014914Y018033D01*
X014897Y017980D01*
X014877Y017927D01*
X014853Y017876D01*
X014826Y017827D01*
X014795Y017780D01*
X014762Y017735D01*
X014726Y017692D01*
X014687Y017652D01*
X014645Y017614D01*
X014639Y017621D01*
X014680Y017658D01*
X014719Y017698D01*
X014755Y017740D01*
X014788Y017785D01*
X014818Y017832D01*
X014845Y017880D01*
X014868Y017931D01*
X014889Y017983D01*
X014905Y018036D01*
X014918Y018090D01*
X014928Y018144D01*
X014934Y018199D01*
X014936Y018255D01*
X014927Y018255D01*
X014925Y018200D01*
X014919Y018145D01*
X014910Y018091D01*
X014897Y018038D01*
X014880Y017986D01*
X014860Y017934D01*
X014837Y017885D01*
X014810Y017836D01*
X014781Y017790D01*
X014748Y017746D01*
X014712Y017704D01*
X014674Y017665D01*
X014633Y017628D01*
X014628Y017635D01*
X014668Y017671D01*
X014706Y017710D01*
X014741Y017752D01*
X014773Y017795D01*
X014803Y017841D01*
X014829Y017889D01*
X014852Y017938D01*
X014872Y017988D01*
X014888Y018040D01*
X014901Y018093D01*
X014910Y018147D01*
X014916Y018201D01*
X014918Y018255D01*
X014909Y018255D01*
X014907Y018201D01*
X014901Y018148D01*
X014892Y018095D01*
X014879Y018043D01*
X014863Y017991D01*
X014844Y017941D01*
X014821Y017893D01*
X014795Y017846D01*
X014766Y017800D01*
X014734Y017757D01*
X014699Y017716D01*
X014662Y017678D01*
X014622Y017642D01*
X014616Y017649D01*
X014655Y017684D01*
X014692Y017722D01*
X014727Y017763D01*
X014758Y017806D01*
X014787Y017850D01*
X014813Y017897D01*
X014835Y017945D01*
X014855Y017994D01*
X014871Y018045D01*
X014883Y018097D01*
X014892Y018149D01*
X014898Y018202D01*
X014900Y018255D01*
X014891Y018255D01*
X014889Y018203D01*
X014883Y018150D01*
X014874Y018099D01*
X014862Y018048D01*
X014846Y017997D01*
X014827Y017948D01*
X014805Y017901D01*
X014779Y017855D01*
X014751Y017811D01*
X014720Y017769D01*
X014686Y017728D01*
X014649Y017691D01*
X014610Y017656D01*
X014604Y017662D01*
X014643Y017697D01*
X014679Y017735D01*
X014713Y017774D01*
X014744Y017816D01*
X014772Y017860D01*
X014797Y017905D01*
X014819Y017952D01*
X014838Y018000D01*
X014853Y018050D01*
X014866Y018100D01*
X014874Y018152D01*
X014880Y018203D01*
X014882Y018255D01*
X014873Y018255D01*
X014871Y018204D01*
X014866Y018153D01*
X014857Y018102D01*
X014845Y018052D01*
X014829Y018003D01*
X014811Y017956D01*
X014789Y017909D01*
X014764Y017864D01*
X014736Y017821D01*
X014706Y017780D01*
X014673Y017741D01*
X014637Y017704D01*
X014599Y017669D01*
X014593Y017676D01*
X014634Y017713D01*
X014672Y017753D01*
X014706Y017795D01*
X014738Y017840D01*
X014767Y017887D01*
X014792Y017936D01*
X014813Y017987D01*
X014831Y018038D01*
X014845Y018092D01*
X014855Y018146D01*
X014862Y018200D01*
X014864Y018255D01*
X013256Y018256D02*
X013346Y018256D01*
X013345Y018255D02*
X013347Y018201D01*
X013353Y018148D01*
X013363Y018095D01*
X013377Y018043D01*
X013394Y017992D01*
X013415Y017942D01*
X013439Y017894D01*
X013467Y017848D01*
X013498Y017804D01*
X013532Y017763D01*
X013569Y017723D01*
X013608Y017687D01*
X013551Y017619D01*
X013550Y017618D01*
X013509Y017656D01*
X013471Y017696D01*
X013435Y017739D01*
X013402Y017784D01*
X013372Y017831D01*
X013346Y017879D01*
X013322Y017930D01*
X013302Y017982D01*
X013286Y018035D01*
X013272Y018089D01*
X013263Y018144D01*
X013257Y018199D01*
X013255Y018255D01*
X013264Y018255D01*
X013266Y018200D01*
X013272Y018145D01*
X013281Y018091D01*
X013294Y018037D01*
X013311Y017985D01*
X013330Y017933D01*
X013354Y017883D01*
X013380Y017835D01*
X013410Y017789D01*
X013442Y017744D01*
X013477Y017702D01*
X013516Y017662D01*
X013556Y017625D01*
X013562Y017632D01*
X013522Y017669D01*
X013484Y017708D01*
X013449Y017750D01*
X013417Y017794D01*
X013388Y017840D01*
X013362Y017888D01*
X013339Y017937D01*
X013319Y017988D01*
X013303Y018040D01*
X013290Y018093D01*
X013281Y018146D01*
X013275Y018201D01*
X013273Y018255D01*
X013282Y018255D01*
X013284Y018201D01*
X013290Y018148D01*
X013299Y018095D01*
X013312Y018042D01*
X013328Y017991D01*
X013347Y017940D01*
X013370Y017892D01*
X013395Y017844D01*
X013424Y017799D01*
X013456Y017755D01*
X013491Y017714D01*
X013528Y017675D01*
X013568Y017639D01*
X013574Y017646D01*
X013534Y017682D01*
X013497Y017720D01*
X013463Y017761D01*
X013432Y017804D01*
X013403Y017849D01*
X013378Y017896D01*
X013355Y017944D01*
X013336Y017994D01*
X013320Y018045D01*
X013308Y018096D01*
X013299Y018149D01*
X013293Y018202D01*
X013291Y018255D01*
X013300Y018255D01*
X013302Y018202D01*
X013308Y018150D01*
X013317Y018098D01*
X013329Y018047D01*
X013345Y017997D01*
X013364Y017947D01*
X013386Y017900D01*
X013411Y017853D01*
X013439Y017809D01*
X013470Y017767D01*
X013504Y017726D01*
X013541Y017688D01*
X013579Y017653D01*
X013585Y017659D01*
X013547Y017695D01*
X013511Y017732D01*
X013477Y017772D01*
X013447Y017814D01*
X013419Y017858D01*
X013394Y017904D01*
X013372Y017951D01*
X013353Y018000D01*
X013338Y018049D01*
X013325Y018100D01*
X013317Y018151D01*
X013311Y018203D01*
X013309Y018255D01*
X013318Y018255D01*
X013320Y018199D01*
X013327Y018144D01*
X013337Y018089D01*
X013351Y018035D01*
X013369Y017982D01*
X013391Y017931D01*
X013416Y017881D01*
X013445Y017833D01*
X013477Y017788D01*
X013512Y017745D01*
X013550Y017704D01*
X013591Y017666D01*
X013597Y017673D01*
X013556Y017710D01*
X013519Y017751D01*
X013484Y017793D01*
X013452Y017838D01*
X013424Y017886D01*
X013399Y017935D01*
X013377Y017986D01*
X013360Y018038D01*
X013346Y018091D01*
X013336Y018145D01*
X013329Y018200D01*
X013327Y018255D01*
X013336Y018255D01*
X013338Y018201D01*
X013344Y018147D01*
X013354Y018093D01*
X013368Y018040D01*
X013386Y017989D01*
X013407Y017939D01*
X013432Y017890D01*
X013460Y017843D01*
X013491Y017799D01*
X013525Y017757D01*
X013563Y017717D01*
X013603Y017680D01*
X013677Y011991D02*
X013722Y011913D01*
X013721Y011913D02*
X013677Y011885D01*
X013635Y011854D01*
X013595Y011821D01*
X013557Y011785D01*
X013522Y011746D01*
X013490Y011705D01*
X013460Y011661D01*
X013434Y011616D01*
X013411Y011569D01*
X013391Y011521D01*
X013375Y011471D01*
X013362Y011421D01*
X013353Y011369D01*
X013347Y011317D01*
X013345Y011265D01*
X013256Y011264D01*
X013255Y011265D01*
X013257Y011320D01*
X013263Y011374D01*
X013272Y011429D01*
X013285Y011482D01*
X013301Y011534D01*
X013320Y011586D01*
X013343Y011636D01*
X013369Y011684D01*
X013398Y011731D01*
X013430Y011775D01*
X013465Y011818D01*
X013503Y011858D01*
X013543Y011895D01*
X013585Y011930D01*
X013630Y011962D01*
X013676Y011991D01*
X013681Y011983D01*
X013635Y011955D01*
X013591Y011923D01*
X013549Y011888D01*
X013509Y011851D01*
X013472Y011812D01*
X013437Y011770D01*
X013406Y011726D01*
X013377Y011680D01*
X013351Y011632D01*
X013329Y011582D01*
X013309Y011532D01*
X013293Y011480D01*
X013281Y011427D01*
X013272Y011373D01*
X013266Y011319D01*
X013264Y011265D01*
X013273Y011265D01*
X013275Y011319D01*
X013281Y011372D01*
X013290Y011425D01*
X013302Y011477D01*
X013318Y011529D01*
X013337Y011579D01*
X013359Y011628D01*
X013385Y011675D01*
X013413Y011721D01*
X013445Y011764D01*
X013479Y011806D01*
X013515Y011845D01*
X013555Y011882D01*
X013596Y011916D01*
X013640Y011947D01*
X013685Y011976D01*
X013690Y011968D01*
X013642Y011938D01*
X013596Y011904D01*
X013553Y011868D01*
X013512Y011828D01*
X013474Y011786D01*
X013439Y011742D01*
X013407Y011695D01*
X013379Y011646D01*
X013354Y011595D01*
X013332Y011542D01*
X013315Y011489D01*
X013301Y011434D01*
X013291Y011378D01*
X013284Y011322D01*
X013282Y011265D01*
X013291Y011265D01*
X013293Y011321D01*
X013299Y011377D01*
X013309Y011432D01*
X013323Y011486D01*
X013341Y011539D01*
X013362Y011591D01*
X013387Y011642D01*
X013415Y011690D01*
X013446Y011736D01*
X013481Y011781D01*
X013518Y011822D01*
X013559Y011861D01*
X013601Y011897D01*
X013647Y011930D01*
X013694Y011960D01*
X013699Y011952D01*
X013652Y011923D01*
X013607Y011890D01*
X013565Y011854D01*
X013525Y011816D01*
X013488Y011775D01*
X013453Y011731D01*
X013422Y011685D01*
X013395Y011637D01*
X013370Y011588D01*
X013349Y011536D01*
X013332Y011484D01*
X013318Y011430D01*
X013308Y011375D01*
X013302Y011320D01*
X013300Y011265D01*
X013309Y011265D01*
X013311Y011320D01*
X013317Y011374D01*
X013327Y011428D01*
X013341Y011481D01*
X013358Y011533D01*
X013378Y011584D01*
X013403Y011633D01*
X013430Y011680D01*
X013461Y011726D01*
X013494Y011769D01*
X013531Y011810D01*
X013571Y011848D01*
X013613Y011883D01*
X013657Y011915D01*
X013703Y011944D01*
X013708Y011936D01*
X013662Y011908D01*
X013618Y011876D01*
X013577Y011841D01*
X013538Y011803D01*
X013501Y011763D01*
X013468Y011721D01*
X013438Y011676D01*
X013410Y011629D01*
X013387Y011580D01*
X013366Y011530D01*
X013349Y011479D01*
X013336Y011426D01*
X013326Y011373D01*
X013320Y011319D01*
X013318Y011265D01*
X013327Y011265D01*
X013329Y011318D01*
X013335Y011372D01*
X013345Y011424D01*
X013358Y011476D01*
X013375Y011527D01*
X013395Y011577D01*
X013418Y011625D01*
X013445Y011671D01*
X013475Y011715D01*
X013508Y011757D01*
X013544Y011797D01*
X013583Y011834D01*
X013624Y011869D01*
X013667Y011900D01*
X013712Y011929D01*
X013717Y011921D01*
X013672Y011893D01*
X013629Y011862D01*
X013589Y011828D01*
X013551Y011791D01*
X013515Y011752D01*
X013483Y011710D01*
X013453Y011666D01*
X013426Y011620D01*
X013403Y011573D01*
X013383Y011524D01*
X013366Y011474D01*
X013353Y011422D01*
X013344Y011370D01*
X013338Y011318D01*
X013336Y011265D01*
X014944Y011265D02*
X014854Y011265D01*
X014855Y011265D02*
X014853Y011319D01*
X014847Y011372D01*
X014837Y011425D01*
X014823Y011477D01*
X014806Y011528D01*
X014785Y011577D01*
X014761Y011625D01*
X014733Y011671D01*
X014702Y011715D01*
X014668Y011757D01*
X014632Y011796D01*
X014592Y011833D01*
X014550Y011866D01*
X014506Y011897D01*
X014460Y011924D01*
X014502Y012003D01*
X014551Y011975D01*
X014597Y011943D01*
X014642Y011908D01*
X014684Y011871D01*
X014724Y011830D01*
X014760Y011787D01*
X014794Y011742D01*
X014825Y011695D01*
X014852Y011645D01*
X014876Y011594D01*
X014897Y011542D01*
X014914Y011488D01*
X014927Y011433D01*
X014937Y011378D01*
X014943Y011321D01*
X014945Y011265D01*
X014936Y011265D01*
X014934Y011321D01*
X014928Y011376D01*
X014918Y011431D01*
X014905Y011486D01*
X014888Y011539D01*
X014868Y011591D01*
X014844Y011641D01*
X014817Y011690D01*
X014787Y011737D01*
X014753Y011782D01*
X014717Y011824D01*
X014678Y011864D01*
X014636Y011901D01*
X014592Y011936D01*
X014546Y011967D01*
X014498Y011995D01*
X014494Y011987D01*
X014541Y011959D01*
X014587Y011928D01*
X014630Y011894D01*
X014672Y011858D01*
X014710Y011818D01*
X014746Y011776D01*
X014779Y011732D01*
X014809Y011686D01*
X014836Y011637D01*
X014859Y011587D01*
X014880Y011536D01*
X014896Y011483D01*
X014909Y011430D01*
X014919Y011375D01*
X014925Y011320D01*
X014927Y011265D01*
X014918Y011265D01*
X014916Y011320D01*
X014910Y011374D01*
X014901Y011428D01*
X014888Y011481D01*
X014871Y011533D01*
X014851Y011584D01*
X014828Y011633D01*
X014801Y011681D01*
X014772Y011727D01*
X014739Y011771D01*
X014704Y011812D01*
X014665Y011851D01*
X014625Y011888D01*
X014582Y011921D01*
X014536Y011952D01*
X014489Y011979D01*
X014485Y011971D01*
X014532Y011944D01*
X014576Y011914D01*
X014619Y011881D01*
X014659Y011845D01*
X014697Y011806D01*
X014732Y011765D01*
X014764Y011722D01*
X014794Y011676D01*
X014820Y011629D01*
X014843Y011580D01*
X014863Y011530D01*
X014879Y011478D01*
X014892Y011426D01*
X014901Y011373D01*
X014907Y011319D01*
X014909Y011265D01*
X014900Y011265D01*
X014898Y011318D01*
X014892Y011371D01*
X014883Y011424D01*
X014870Y011476D01*
X014854Y011527D01*
X014835Y011577D01*
X014812Y011625D01*
X014786Y011672D01*
X014757Y011716D01*
X014725Y011759D01*
X014690Y011800D01*
X014653Y011838D01*
X014613Y011874D01*
X014571Y011907D01*
X014527Y011937D01*
X014481Y011964D01*
X014477Y011956D01*
X014522Y011929D01*
X014566Y011899D01*
X014607Y011867D01*
X014647Y011832D01*
X014684Y011794D01*
X014718Y011754D01*
X014750Y011711D01*
X014778Y011667D01*
X014804Y011621D01*
X014826Y011573D01*
X014846Y011524D01*
X014862Y011474D01*
X014874Y011422D01*
X014883Y011370D01*
X014889Y011318D01*
X014891Y011265D01*
X014882Y011265D01*
X014880Y011321D01*
X014873Y011376D01*
X014863Y011431D01*
X014849Y011485D01*
X014831Y011537D01*
X014810Y011589D01*
X014784Y011638D01*
X014756Y011686D01*
X014724Y011732D01*
X014689Y011775D01*
X014651Y011815D01*
X014610Y011853D01*
X014566Y011888D01*
X014520Y011919D01*
X014472Y011948D01*
X014468Y011940D01*
X014516Y011912D01*
X014561Y011881D01*
X014604Y011846D01*
X014644Y011809D01*
X014682Y011769D01*
X014717Y011726D01*
X014748Y011681D01*
X014777Y011634D01*
X014801Y011585D01*
X014823Y011534D01*
X014840Y011482D01*
X014854Y011429D01*
X014864Y011375D01*
X014871Y011320D01*
X014873Y011265D01*
X014864Y011265D01*
X014862Y011319D01*
X014856Y011373D01*
X014846Y011427D01*
X014832Y011479D01*
X014814Y011531D01*
X014793Y011581D01*
X014769Y011630D01*
X014741Y011676D01*
X014709Y011721D01*
X014675Y011763D01*
X014638Y011802D01*
X014598Y011839D01*
X014556Y011873D01*
X014511Y011904D01*
X014464Y011932D01*
X014644Y010615D02*
X014587Y010684D01*
X014587Y010683D02*
X014627Y010720D01*
X014665Y010759D01*
X014699Y010801D01*
X014731Y010845D01*
X014759Y010891D01*
X014784Y010940D01*
X014805Y010990D01*
X014823Y011041D01*
X014836Y011094D01*
X014846Y011147D01*
X014853Y011201D01*
X014855Y011255D01*
X014944Y011256D01*
X014945Y011255D01*
X014943Y011199D01*
X014937Y011143D01*
X014927Y011088D01*
X014914Y011033D01*
X014897Y010980D01*
X014877Y010927D01*
X014853Y010876D01*
X014826Y010827D01*
X014795Y010780D01*
X014762Y010735D01*
X014726Y010692D01*
X014687Y010652D01*
X014645Y010614D01*
X014639Y010621D01*
X014680Y010658D01*
X014719Y010698D01*
X014755Y010740D01*
X014788Y010785D01*
X014818Y010832D01*
X014845Y010880D01*
X014868Y010931D01*
X014889Y010983D01*
X014905Y011036D01*
X014918Y011090D01*
X014928Y011144D01*
X014934Y011199D01*
X014936Y011255D01*
X014927Y011255D01*
X014925Y011200D01*
X014919Y011145D01*
X014910Y011091D01*
X014897Y011038D01*
X014880Y010986D01*
X014860Y010934D01*
X014837Y010885D01*
X014810Y010836D01*
X014781Y010790D01*
X014748Y010746D01*
X014712Y010704D01*
X014674Y010665D01*
X014633Y010628D01*
X014628Y010635D01*
X014668Y010671D01*
X014706Y010710D01*
X014741Y010752D01*
X014773Y010795D01*
X014803Y010841D01*
X014829Y010889D01*
X014852Y010938D01*
X014872Y010988D01*
X014888Y011040D01*
X014901Y011093D01*
X014910Y011147D01*
X014916Y011201D01*
X014918Y011255D01*
X014909Y011255D01*
X014907Y011201D01*
X014901Y011148D01*
X014892Y011095D01*
X014879Y011043D01*
X014863Y010991D01*
X014844Y010941D01*
X014821Y010893D01*
X014795Y010846D01*
X014766Y010800D01*
X014734Y010757D01*
X014699Y010716D01*
X014662Y010678D01*
X014622Y010642D01*
X014616Y010649D01*
X014655Y010684D01*
X014692Y010722D01*
X014727Y010763D01*
X014758Y010806D01*
X014787Y010850D01*
X014813Y010897D01*
X014835Y010945D01*
X014855Y010994D01*
X014871Y011045D01*
X014883Y011097D01*
X014892Y011149D01*
X014898Y011202D01*
X014900Y011255D01*
X014891Y011255D01*
X014889Y011203D01*
X014883Y011150D01*
X014874Y011099D01*
X014862Y011048D01*
X014846Y010997D01*
X014827Y010948D01*
X014805Y010901D01*
X014779Y010855D01*
X014751Y010811D01*
X014720Y010769D01*
X014686Y010728D01*
X014649Y010691D01*
X014610Y010656D01*
X014604Y010662D01*
X014643Y010697D01*
X014679Y010735D01*
X014713Y010774D01*
X014744Y010816D01*
X014772Y010860D01*
X014797Y010905D01*
X014819Y010952D01*
X014838Y011000D01*
X014853Y011050D01*
X014866Y011100D01*
X014874Y011152D01*
X014880Y011203D01*
X014882Y011255D01*
X014873Y011255D01*
X014871Y011204D01*
X014866Y011153D01*
X014857Y011102D01*
X014845Y011052D01*
X014829Y011003D01*
X014811Y010956D01*
X014789Y010909D01*
X014764Y010864D01*
X014736Y010821D01*
X014706Y010780D01*
X014673Y010741D01*
X014637Y010704D01*
X014599Y010669D01*
X014593Y010676D01*
X014634Y010713D01*
X014672Y010753D01*
X014706Y010795D01*
X014738Y010840D01*
X014767Y010887D01*
X014792Y010936D01*
X014813Y010987D01*
X014831Y011038D01*
X014845Y011092D01*
X014855Y011146D01*
X014862Y011200D01*
X014864Y011255D01*
X013256Y011256D02*
X013346Y011256D01*
X013345Y011255D02*
X013347Y011201D01*
X013353Y011148D01*
X013363Y011095D01*
X013377Y011043D01*
X013394Y010992D01*
X013415Y010942D01*
X013439Y010894D01*
X013467Y010848D01*
X013498Y010804D01*
X013532Y010763D01*
X013569Y010723D01*
X013608Y010687D01*
X013551Y010619D01*
X013550Y010618D01*
X013509Y010656D01*
X013471Y010696D01*
X013435Y010739D01*
X013402Y010784D01*
X013372Y010831D01*
X013346Y010879D01*
X013322Y010930D01*
X013302Y010982D01*
X013286Y011035D01*
X013272Y011089D01*
X013263Y011144D01*
X013257Y011199D01*
X013255Y011255D01*
X013264Y011255D01*
X013266Y011200D01*
X013272Y011145D01*
X013281Y011091D01*
X013294Y011037D01*
X013311Y010985D01*
X013330Y010933D01*
X013354Y010883D01*
X013380Y010835D01*
X013410Y010789D01*
X013442Y010744D01*
X013477Y010702D01*
X013516Y010662D01*
X013556Y010625D01*
X013562Y010632D01*
X013522Y010669D01*
X013484Y010708D01*
X013449Y010750D01*
X013417Y010794D01*
X013388Y010840D01*
X013362Y010888D01*
X013339Y010937D01*
X013319Y010988D01*
X013303Y011040D01*
X013290Y011093D01*
X013281Y011146D01*
X013275Y011201D01*
X013273Y011255D01*
X013282Y011255D01*
X013284Y011201D01*
X013290Y011148D01*
X013299Y011095D01*
X013312Y011042D01*
X013328Y010991D01*
X013347Y010940D01*
X013370Y010892D01*
X013395Y010844D01*
X013424Y010799D01*
X013456Y010755D01*
X013491Y010714D01*
X013528Y010675D01*
X013568Y010639D01*
X013574Y010646D01*
X013534Y010682D01*
X013497Y010720D01*
X013463Y010761D01*
X013432Y010804D01*
X013403Y010849D01*
X013378Y010896D01*
X013355Y010944D01*
X013336Y010994D01*
X013320Y011045D01*
X013308Y011096D01*
X013299Y011149D01*
X013293Y011202D01*
X013291Y011255D01*
X013300Y011255D01*
X013302Y011202D01*
X013308Y011150D01*
X013317Y011098D01*
X013329Y011047D01*
X013345Y010997D01*
X013364Y010947D01*
X013386Y010900D01*
X013411Y010853D01*
X013439Y010809D01*
X013470Y010767D01*
X013504Y010726D01*
X013541Y010688D01*
X013579Y010653D01*
X013585Y010659D01*
X013547Y010695D01*
X013511Y010732D01*
X013477Y010772D01*
X013447Y010814D01*
X013419Y010858D01*
X013394Y010904D01*
X013372Y010951D01*
X013353Y011000D01*
X013338Y011049D01*
X013325Y011100D01*
X013317Y011151D01*
X013311Y011203D01*
X013309Y011255D01*
X013318Y011255D01*
X013320Y011199D01*
X013327Y011144D01*
X013337Y011089D01*
X013351Y011035D01*
X013369Y010982D01*
X013391Y010931D01*
X013416Y010881D01*
X013445Y010833D01*
X013477Y010788D01*
X013512Y010745D01*
X013550Y010704D01*
X013591Y010666D01*
X013597Y010673D01*
X013556Y010710D01*
X013519Y010751D01*
X013484Y010793D01*
X013452Y010838D01*
X013424Y010886D01*
X013399Y010935D01*
X013377Y010986D01*
X013360Y011038D01*
X013346Y011091D01*
X013336Y011145D01*
X013329Y011200D01*
X013327Y011255D01*
X013336Y011255D01*
X013338Y011201D01*
X013344Y011147D01*
X013354Y011093D01*
X013368Y011040D01*
X013386Y010989D01*
X013407Y010939D01*
X013432Y010890D01*
X013460Y010843D01*
X013491Y010799D01*
X013525Y010757D01*
X013563Y010717D01*
X013603Y010680D01*
X013677Y004991D02*
X013722Y004913D01*
X013721Y004913D02*
X013677Y004885D01*
X013635Y004854D01*
X013595Y004821D01*
X013557Y004785D01*
X013522Y004746D01*
X013490Y004705D01*
X013460Y004661D01*
X013434Y004616D01*
X013411Y004569D01*
X013391Y004521D01*
X013375Y004471D01*
X013362Y004421D01*
X013353Y004369D01*
X013347Y004317D01*
X013345Y004265D01*
X013256Y004264D01*
X013255Y004265D01*
X013257Y004320D01*
X013263Y004374D01*
X013272Y004429D01*
X013285Y004482D01*
X013301Y004534D01*
X013320Y004586D01*
X013343Y004636D01*
X013369Y004684D01*
X013398Y004731D01*
X013430Y004775D01*
X013465Y004818D01*
X013503Y004858D01*
X013543Y004895D01*
X013585Y004930D01*
X013630Y004962D01*
X013676Y004991D01*
X013681Y004983D01*
X013635Y004955D01*
X013591Y004923D01*
X013549Y004888D01*
X013509Y004851D01*
X013472Y004812D01*
X013437Y004770D01*
X013406Y004726D01*
X013377Y004680D01*
X013351Y004632D01*
X013329Y004582D01*
X013309Y004532D01*
X013293Y004480D01*
X013281Y004427D01*
X013272Y004373D01*
X013266Y004319D01*
X013264Y004265D01*
X013273Y004265D01*
X013275Y004319D01*
X013281Y004372D01*
X013290Y004425D01*
X013302Y004477D01*
X013318Y004529D01*
X013337Y004579D01*
X013359Y004628D01*
X013385Y004675D01*
X013413Y004721D01*
X013445Y004764D01*
X013479Y004806D01*
X013515Y004845D01*
X013555Y004882D01*
X013596Y004916D01*
X013640Y004947D01*
X013685Y004976D01*
X013690Y004968D01*
X013642Y004938D01*
X013596Y004904D01*
X013553Y004868D01*
X013512Y004828D01*
X013474Y004786D01*
X013439Y004742D01*
X013407Y004695D01*
X013379Y004646D01*
X013354Y004595D01*
X013332Y004542D01*
X013315Y004489D01*
X013301Y004434D01*
X013291Y004378D01*
X013284Y004322D01*
X013282Y004265D01*
X013291Y004265D01*
X013293Y004321D01*
X013299Y004377D01*
X013309Y004432D01*
X013323Y004486D01*
X013341Y004539D01*
X013362Y004591D01*
X013387Y004642D01*
X013415Y004690D01*
X013446Y004736D01*
X013481Y004781D01*
X013518Y004822D01*
X013559Y004861D01*
X013601Y004897D01*
X013647Y004930D01*
X013694Y004960D01*
X013699Y004952D01*
X013652Y004923D01*
X013607Y004890D01*
X013565Y004854D01*
X013525Y004816D01*
X013488Y004775D01*
X013453Y004731D01*
X013422Y004685D01*
X013395Y004637D01*
X013370Y004588D01*
X013349Y004536D01*
X013332Y004484D01*
X013318Y004430D01*
X013308Y004375D01*
X013302Y004320D01*
X013300Y004265D01*
X013309Y004265D01*
X013311Y004320D01*
X013317Y004374D01*
X013327Y004428D01*
X013341Y004481D01*
X013358Y004533D01*
X013378Y004584D01*
X013403Y004633D01*
X013430Y004680D01*
X013461Y004726D01*
X013494Y004769D01*
X013531Y004810D01*
X013571Y004848D01*
X013613Y004883D01*
X013657Y004915D01*
X013703Y004944D01*
X013708Y004936D01*
X013662Y004908D01*
X013618Y004876D01*
X013577Y004841D01*
X013538Y004803D01*
X013501Y004763D01*
X013468Y004721D01*
X013438Y004676D01*
X013410Y004629D01*
X013387Y004580D01*
X013366Y004530D01*
X013349Y004479D01*
X013336Y004426D01*
X013326Y004373D01*
X013320Y004319D01*
X013318Y004265D01*
X013327Y004265D01*
X013329Y004318D01*
X013335Y004372D01*
X013345Y004424D01*
X013358Y004476D01*
X013375Y004527D01*
X013395Y004577D01*
X013418Y004625D01*
X013445Y004671D01*
X013475Y004715D01*
X013508Y004757D01*
X013544Y004797D01*
X013583Y004834D01*
X013624Y004869D01*
X013667Y004900D01*
X013712Y004929D01*
X013717Y004921D01*
X013672Y004893D01*
X013629Y004862D01*
X013589Y004828D01*
X013551Y004791D01*
X013515Y004752D01*
X013483Y004710D01*
X013453Y004666D01*
X013426Y004620D01*
X013403Y004573D01*
X013383Y004524D01*
X013366Y004474D01*
X013353Y004422D01*
X013344Y004370D01*
X013338Y004318D01*
X013336Y004265D01*
X014944Y004265D02*
X014854Y004265D01*
X014855Y004265D02*
X014853Y004319D01*
X014847Y004372D01*
X014837Y004425D01*
X014823Y004477D01*
X014806Y004528D01*
X014785Y004577D01*
X014761Y004625D01*
X014733Y004671D01*
X014702Y004715D01*
X014668Y004757D01*
X014632Y004796D01*
X014592Y004833D01*
X014550Y004866D01*
X014506Y004897D01*
X014460Y004924D01*
X014502Y005003D01*
X014551Y004975D01*
X014597Y004943D01*
X014642Y004908D01*
X014684Y004871D01*
X014724Y004830D01*
X014760Y004787D01*
X014794Y004742D01*
X014825Y004695D01*
X014852Y004645D01*
X014876Y004594D01*
X014897Y004542D01*
X014914Y004488D01*
X014927Y004433D01*
X014937Y004378D01*
X014943Y004321D01*
X014945Y004265D01*
X014936Y004265D01*
X014934Y004321D01*
X014928Y004376D01*
X014918Y004431D01*
X014905Y004486D01*
X014888Y004539D01*
X014868Y004591D01*
X014844Y004641D01*
X014817Y004690D01*
X014787Y004737D01*
X014753Y004782D01*
X014717Y004824D01*
X014678Y004864D01*
X014636Y004901D01*
X014592Y004936D01*
X014546Y004967D01*
X014498Y004995D01*
X014494Y004987D01*
X014541Y004959D01*
X014587Y004928D01*
X014630Y004894D01*
X014672Y004858D01*
X014710Y004818D01*
X014746Y004776D01*
X014779Y004732D01*
X014809Y004686D01*
X014836Y004637D01*
X014859Y004587D01*
X014880Y004536D01*
X014896Y004483D01*
X014909Y004430D01*
X014919Y004375D01*
X014925Y004320D01*
X014927Y004265D01*
X014918Y004265D01*
X014916Y004320D01*
X014910Y004374D01*
X014901Y004428D01*
X014888Y004481D01*
X014871Y004533D01*
X014851Y004584D01*
X014828Y004633D01*
X014801Y004681D01*
X014772Y004727D01*
X014739Y004771D01*
X014704Y004812D01*
X014665Y004851D01*
X014625Y004888D01*
X014582Y004921D01*
X014536Y004952D01*
X014489Y004979D01*
X014485Y004971D01*
X014532Y004944D01*
X014576Y004914D01*
X014619Y004881D01*
X014659Y004845D01*
X014697Y004806D01*
X014732Y004765D01*
X014764Y004722D01*
X014794Y004676D01*
X014820Y004629D01*
X014843Y004580D01*
X014863Y004530D01*
X014879Y004478D01*
X014892Y004426D01*
X014901Y004373D01*
X014907Y004319D01*
X014909Y004265D01*
X014900Y004265D01*
X014898Y004318D01*
X014892Y004371D01*
X014883Y004424D01*
X014870Y004476D01*
X014854Y004527D01*
X014835Y004577D01*
X014812Y004625D01*
X014786Y004672D01*
X014757Y004716D01*
X014725Y004759D01*
X014690Y004800D01*
X014653Y004838D01*
X014613Y004874D01*
X014571Y004907D01*
X014527Y004937D01*
X014481Y004964D01*
X014477Y004956D01*
X014522Y004929D01*
X014566Y004899D01*
X014607Y004867D01*
X014647Y004832D01*
X014684Y004794D01*
X014718Y004754D01*
X014750Y004711D01*
X014778Y004667D01*
X014804Y004621D01*
X014826Y004573D01*
X014846Y004524D01*
X014862Y004474D01*
X014874Y004422D01*
X014883Y004370D01*
X014889Y004318D01*
X014891Y004265D01*
X014882Y004265D01*
X014880Y004321D01*
X014873Y004376D01*
X014863Y004431D01*
X014849Y004485D01*
X014831Y004537D01*
X014810Y004589D01*
X014784Y004638D01*
X014756Y004686D01*
X014724Y004732D01*
X014689Y004775D01*
X014651Y004815D01*
X014610Y004853D01*
X014566Y004888D01*
X014520Y004919D01*
X014472Y004948D01*
X014468Y004940D01*
X014516Y004912D01*
X014561Y004881D01*
X014604Y004846D01*
X014644Y004809D01*
X014682Y004769D01*
X014717Y004726D01*
X014748Y004681D01*
X014777Y004634D01*
X014801Y004585D01*
X014823Y004534D01*
X014840Y004482D01*
X014854Y004429D01*
X014864Y004375D01*
X014871Y004320D01*
X014873Y004265D01*
X014864Y004265D01*
X014862Y004319D01*
X014856Y004373D01*
X014846Y004427D01*
X014832Y004479D01*
X014814Y004531D01*
X014793Y004581D01*
X014769Y004630D01*
X014741Y004676D01*
X014709Y004721D01*
X014675Y004763D01*
X014638Y004802D01*
X014598Y004839D01*
X014556Y004873D01*
X014511Y004904D01*
X014464Y004932D01*
X014644Y003615D02*
X014587Y003684D01*
X014587Y003683D02*
X014627Y003720D01*
X014665Y003759D01*
X014699Y003801D01*
X014731Y003845D01*
X014759Y003891D01*
X014784Y003940D01*
X014805Y003990D01*
X014823Y004041D01*
X014836Y004094D01*
X014846Y004147D01*
X014853Y004201D01*
X014855Y004255D01*
X014944Y004256D01*
X014945Y004255D01*
X014943Y004199D01*
X014937Y004143D01*
X014927Y004088D01*
X014914Y004033D01*
X014897Y003980D01*
X014877Y003927D01*
X014853Y003876D01*
X014826Y003827D01*
X014795Y003780D01*
X014762Y003735D01*
X014726Y003692D01*
X014687Y003652D01*
X014645Y003614D01*
X014639Y003621D01*
X014680Y003658D01*
X014719Y003698D01*
X014755Y003740D01*
X014788Y003785D01*
X014818Y003832D01*
X014845Y003880D01*
X014868Y003931D01*
X014889Y003983D01*
X014905Y004036D01*
X014918Y004090D01*
X014928Y004144D01*
X014934Y004199D01*
X014936Y004255D01*
X014927Y004255D01*
X014925Y004200D01*
X014919Y004145D01*
X014910Y004091D01*
X014897Y004038D01*
X014880Y003986D01*
X014860Y003934D01*
X014837Y003885D01*
X014810Y003836D01*
X014781Y003790D01*
X014748Y003746D01*
X014712Y003704D01*
X014674Y003665D01*
X014633Y003628D01*
X014628Y003635D01*
X014668Y003671D01*
X014706Y003710D01*
X014741Y003752D01*
X014773Y003795D01*
X014803Y003841D01*
X014829Y003889D01*
X014852Y003938D01*
X014872Y003988D01*
X014888Y004040D01*
X014901Y004093D01*
X014910Y004147D01*
X014916Y004201D01*
X014918Y004255D01*
X014909Y004255D01*
X014907Y004201D01*
X014901Y004148D01*
X014892Y004095D01*
X014879Y004043D01*
X014863Y003991D01*
X014844Y003941D01*
X014821Y003893D01*
X014795Y003846D01*
X014766Y003800D01*
X014734Y003757D01*
X014699Y003716D01*
X014662Y003678D01*
X014622Y003642D01*
X014616Y003649D01*
X014655Y003684D01*
X014692Y003722D01*
X014727Y003763D01*
X014758Y003806D01*
X014787Y003850D01*
X014813Y003897D01*
X014835Y003945D01*
X014855Y003994D01*
X014871Y004045D01*
X014883Y004097D01*
X014892Y004149D01*
X014898Y004202D01*
X014900Y004255D01*
X014891Y004255D01*
X014889Y004203D01*
X014883Y004150D01*
X014874Y004099D01*
X014862Y004048D01*
X014846Y003997D01*
X014827Y003948D01*
X014805Y003901D01*
X014779Y003855D01*
X014751Y003811D01*
X014720Y003769D01*
X014686Y003728D01*
X014649Y003691D01*
X014610Y003656D01*
X014604Y003662D01*
X014643Y003697D01*
X014679Y003735D01*
X014713Y003774D01*
X014744Y003816D01*
X014772Y003860D01*
X014797Y003905D01*
X014819Y003952D01*
X014838Y004000D01*
X014853Y004050D01*
X014866Y004100D01*
X014874Y004152D01*
X014880Y004203D01*
X014882Y004255D01*
X014873Y004255D01*
X014871Y004204D01*
X014866Y004153D01*
X014857Y004102D01*
X014845Y004052D01*
X014829Y004003D01*
X014811Y003956D01*
X014789Y003909D01*
X014764Y003864D01*
X014736Y003821D01*
X014706Y003780D01*
X014673Y003741D01*
X014637Y003704D01*
X014599Y003669D01*
X014593Y003676D01*
X014634Y003713D01*
X014672Y003753D01*
X014706Y003795D01*
X014738Y003840D01*
X014767Y003887D01*
X014792Y003936D01*
X014813Y003987D01*
X014831Y004038D01*
X014845Y004092D01*
X014855Y004146D01*
X014862Y004200D01*
X014864Y004255D01*
X013256Y004256D02*
X013346Y004256D01*
X013345Y004255D02*
X013347Y004201D01*
X013353Y004148D01*
X013363Y004095D01*
X013377Y004043D01*
X013394Y003992D01*
X013415Y003942D01*
X013439Y003894D01*
X013467Y003848D01*
X013498Y003804D01*
X013532Y003763D01*
X013569Y003723D01*
X013608Y003687D01*
X013551Y003619D01*
X013550Y003618D01*
X013509Y003656D01*
X013471Y003696D01*
X013435Y003739D01*
X013402Y003784D01*
X013372Y003831D01*
X013346Y003879D01*
X013322Y003930D01*
X013302Y003982D01*
X013286Y004035D01*
X013272Y004089D01*
X013263Y004144D01*
X013257Y004199D01*
X013255Y004255D01*
X013264Y004255D01*
X013266Y004200D01*
X013272Y004145D01*
X013281Y004091D01*
X013294Y004037D01*
X013311Y003985D01*
X013330Y003933D01*
X013354Y003883D01*
X013380Y003835D01*
X013410Y003789D01*
X013442Y003744D01*
X013477Y003702D01*
X013516Y003662D01*
X013556Y003625D01*
X013562Y003632D01*
X013522Y003669D01*
X013484Y003708D01*
X013449Y003750D01*
X013417Y003794D01*
X013388Y003840D01*
X013362Y003888D01*
X013339Y003937D01*
X013319Y003988D01*
X013303Y004040D01*
X013290Y004093D01*
X013281Y004146D01*
X013275Y004201D01*
X013273Y004255D01*
X013282Y004255D01*
X013284Y004201D01*
X013290Y004148D01*
X013299Y004095D01*
X013312Y004042D01*
X013328Y003991D01*
X013347Y003940D01*
X013370Y003892D01*
X013395Y003844D01*
X013424Y003799D01*
X013456Y003755D01*
X013491Y003714D01*
X013528Y003675D01*
X013568Y003639D01*
X013574Y003646D01*
X013534Y003682D01*
X013497Y003720D01*
X013463Y003761D01*
X013432Y003804D01*
X013403Y003849D01*
X013378Y003896D01*
X013355Y003944D01*
X013336Y003994D01*
X013320Y004045D01*
X013308Y004096D01*
X013299Y004149D01*
X013293Y004202D01*
X013291Y004255D01*
X013300Y004255D01*
X013302Y004202D01*
X013308Y004150D01*
X013317Y004098D01*
X013329Y004047D01*
X013345Y003997D01*
X013364Y003947D01*
X013386Y003900D01*
X013411Y003853D01*
X013439Y003809D01*
X013470Y003767D01*
X013504Y003726D01*
X013541Y003688D01*
X013579Y003653D01*
X013585Y003659D01*
X013547Y003695D01*
X013511Y003732D01*
X013477Y003772D01*
X013447Y003814D01*
X013419Y003858D01*
X013394Y003904D01*
X013372Y003951D01*
X013353Y004000D01*
X013338Y004049D01*
X013325Y004100D01*
X013317Y004151D01*
X013311Y004203D01*
X013309Y004255D01*
X013318Y004255D01*
X013320Y004199D01*
X013327Y004144D01*
X013337Y004089D01*
X013351Y004035D01*
X013369Y003982D01*
X013391Y003931D01*
X013416Y003881D01*
X013445Y003833D01*
X013477Y003788D01*
X013512Y003745D01*
X013550Y003704D01*
X013591Y003666D01*
X013597Y003673D01*
X013556Y003710D01*
X013519Y003751D01*
X013484Y003793D01*
X013452Y003838D01*
X013424Y003886D01*
X013399Y003935D01*
X013377Y003986D01*
X013360Y004038D01*
X013346Y004091D01*
X013336Y004145D01*
X013329Y004200D01*
X013327Y004255D01*
X013336Y004255D01*
X013338Y004201D01*
X013344Y004147D01*
X013354Y004093D01*
X013368Y004040D01*
X013386Y003989D01*
X013407Y003939D01*
X013432Y003890D01*
X013460Y003843D01*
X013491Y003799D01*
X013525Y003757D01*
X013563Y003717D01*
X013603Y003680D01*
D14*
X013590Y003640D02*
X013770Y003640D01*
X014410Y003640D02*
X014610Y003640D01*
X014610Y010640D02*
X014410Y010640D01*
X013770Y010640D02*
X013590Y010640D01*
X013590Y017640D02*
X013770Y017640D01*
X014410Y017640D02*
X014610Y017640D01*
X014610Y024640D02*
X014410Y024640D01*
X013770Y024640D02*
X013590Y024640D01*
D15*
X013698Y022980D02*
X013698Y022640D01*
X013698Y022753D02*
X013925Y022980D01*
X013755Y022810D02*
X013925Y022640D01*
X013557Y022640D02*
X013330Y022640D01*
X013443Y022640D02*
X013443Y022980D01*
X013330Y022867D01*
X015493Y024990D02*
X015380Y025103D01*
X015720Y025103D01*
X015720Y024990D02*
X015720Y025217D01*
X015720Y025358D02*
X015380Y025358D01*
X015550Y025415D02*
X015720Y025585D01*
X015607Y025358D02*
X015380Y025585D01*
X015380Y018585D02*
X015607Y018358D01*
X015550Y018415D02*
X015720Y018585D01*
X015720Y018358D02*
X015380Y018358D01*
X015380Y018103D02*
X015720Y018103D01*
X015720Y017990D02*
X015720Y018217D01*
X015493Y017990D02*
X015380Y018103D01*
X013925Y015980D02*
X013698Y015753D01*
X013755Y015810D02*
X013925Y015640D01*
X013698Y015640D02*
X013698Y015980D01*
X013443Y015980D02*
X013443Y015640D01*
X013330Y015640D02*
X013557Y015640D01*
X013330Y015867D02*
X013443Y015980D01*
X015380Y011585D02*
X015607Y011358D01*
X015550Y011415D02*
X015720Y011585D01*
X015720Y011358D02*
X015380Y011358D01*
X015380Y011103D02*
X015720Y011103D01*
X015720Y010990D02*
X015720Y011217D01*
X015493Y010990D02*
X015380Y011103D01*
X013925Y008980D02*
X013698Y008753D01*
X013755Y008810D02*
X013925Y008640D01*
X013698Y008640D02*
X013698Y008980D01*
X013443Y008980D02*
X013443Y008640D01*
X013330Y008640D02*
X013557Y008640D01*
X013330Y008867D02*
X013443Y008980D01*
X015380Y004585D02*
X015607Y004358D01*
X015550Y004415D02*
X015720Y004585D01*
X015720Y004358D02*
X015380Y004358D01*
X015380Y004103D02*
X015720Y004103D01*
X015720Y003990D02*
X015720Y004217D01*
X015493Y003990D02*
X015380Y004103D01*
X013925Y001980D02*
X013698Y001753D01*
X013755Y001810D02*
X013925Y001640D01*
X013698Y001640D02*
X013698Y001980D01*
X013443Y001980D02*
X013443Y001640D01*
X013330Y001640D02*
X013557Y001640D01*
X013330Y001867D02*
X013443Y001980D01*
M02*
