%
M48
M72
T01C0.0320
T02C0.0354
T03C0.0400
T04C0.0433
T05C0.0512
%
T01
X12600Y6260
X13100Y7010
X13600Y6260
X14100Y4760
X14100Y3760
X14100Y10760
X14100Y11760
X13600Y13260
X13100Y14010
X12600Y13260
X14100Y17760
X14100Y18760
X13600Y20260
X13100Y21010
X12600Y20260
X14100Y24760
X14100Y25760
X13600Y27260
X13100Y28010
X12600Y27260
T02
X15600Y27260
X15600Y24260
X15600Y22760
X15600Y20260
X12600Y22760
X15600Y17260
X15600Y15760
X15600Y13260
X12600Y15760
X15600Y10260
X15600Y8760
X15600Y6260
X12600Y8760
X15600Y3260
X15600Y1760
X12600Y1760
T03
X23100Y9760
X23100Y10760
X23100Y11760
X23100Y12760
X23100Y13760
X23100Y14760
X23100Y15760
X23100Y16760
X23100Y17760
X23100Y18760
X23100Y19760
X23100Y20760
X30100Y20760
X30100Y19760
X30100Y18760
X30100Y17760
X30100Y16760
X30100Y15760
X30100Y14760
X30100Y13760
X30100Y12760
X30100Y11760
X30100Y10760
X30100Y9760
T04
X11338Y11260
X10570Y13573
X10570Y15947
X11338Y18260
X10570Y20573
X10570Y22947
X11338Y25260
X10570Y27573
X5630Y27573
X5630Y22947
X5630Y20573
X5630Y15947
X5630Y13573
X5630Y8947
X5630Y6573
X5630Y1947
X10570Y1947
X11338Y4260
X10570Y6573
X10570Y8947
T05
X2100Y2323
X2100Y4291
X2100Y6260
X2100Y9323
X2100Y11291
X2100Y13260
X2100Y16323
X2100Y18291
X2100Y20260
X2100Y23323
X2100Y25291
X2100Y27260
M30
