%
M48
M72
T01C0.0200
T02C0.0276
T03C0.0315
T04C0.0354
T05C0.0400
T06C0.1180
T07C0.1260
%
T01
X15200Y18675
X15750Y18925
X15050Y19625
X14400Y18975
T02
X5800Y10825
X5800Y9825
X2300Y9825
X2300Y10825
T03
X4300Y6219
X4300Y5431
T04
X26300Y4825
X26300Y7825
X26300Y9325
X26300Y12325
T05
X19800Y8825
X18800Y8825
X17800Y8825
X16800Y8825
X15800Y8825
X14800Y8825
X13800Y8825
X12800Y8825
X11800Y8825
X10800Y8825
X9800Y8825
X8800Y8825
X1800Y6395
X1800Y5255
X8800Y1825
X9800Y1825
X10800Y1825
X11800Y1825
X12800Y1825
X13800Y1825
X14800Y1825
X15800Y1825
X16800Y1825
X17800Y1825
X18800Y1825
X19800Y1825
X22300Y19825
X23300Y19825
X24300Y19825
X15300Y20325
X14300Y20325
X13300Y20325
X4100Y20125
X3100Y20125
X2100Y20125
T06
X3831Y15325
X6194Y15325
X5013Y13475
T07
X5800Y1325
X26300Y3325
X26300Y14325
X6300Y20325
M30
