G75*
G70*
%OFA0B0*%
%FSLAX24Y24*%
%IPPOS*%
%LPD*%
%AMOC8*
5,1,8,0,0,1.08239X$1,22.5*
%
%ADD10C,0.0740*%
%ADD11C,0.0640*%
%ADD12R,0.0650X0.0650*%
%ADD13C,0.0650*%
%ADD14C,0.0560*%
%ADD15C,0.1700*%
%ADD16C,0.0080*%
%ADD17C,0.0100*%
%ADD18C,0.0440*%
D10*
X008800Y001825D03*
X009800Y001825D03*
X010800Y001825D03*
X011800Y001825D03*
X012800Y001825D03*
X013800Y001825D03*
X014800Y001825D03*
X015800Y001825D03*
X016800Y001825D03*
X017800Y001825D03*
X018800Y001825D03*
X019800Y001825D03*
X026300Y004825D03*
X026300Y007825D03*
X026300Y009325D03*
X026300Y012325D03*
X019800Y008825D03*
X018800Y008825D03*
X017800Y008825D03*
X016800Y008825D03*
X015800Y008825D03*
X014800Y008825D03*
X013800Y008825D03*
X012800Y008825D03*
X011800Y008825D03*
X010800Y008825D03*
X009800Y008825D03*
X008800Y008825D03*
X001800Y006395D03*
X001800Y005255D03*
X002100Y020125D03*
X003100Y020125D03*
X004100Y020125D03*
X013300Y020325D03*
X014300Y020325D03*
X015300Y020325D03*
D11*
X022300Y020145D02*
X022300Y019505D01*
X023300Y019505D02*
X023300Y020145D01*
X024300Y020145D02*
X024300Y019505D01*
D12*
X005800Y010825D03*
X002300Y010825D03*
D13*
X002300Y009825D03*
X005800Y009825D03*
D14*
X004300Y006219D03*
X004300Y005431D03*
D15*
X005013Y013475D03*
X006194Y015325D03*
X003831Y015325D03*
D16*
X000690Y020935D02*
X000690Y000715D01*
X005038Y000715D01*
X004978Y000776D01*
X004830Y001132D01*
X004830Y001518D01*
X004978Y001874D01*
X005251Y002147D01*
X005607Y002295D01*
X005993Y002295D01*
X006349Y002147D01*
X006622Y001874D01*
X006770Y001518D01*
X006770Y001132D01*
X006622Y000776D01*
X006562Y000715D01*
X025910Y000715D01*
X025910Y001403D01*
X025969Y001546D01*
X026079Y001656D01*
X026910Y002487D01*
X026910Y002563D01*
X026849Y002503D01*
X026493Y002355D01*
X026107Y002355D01*
X025751Y002503D01*
X025478Y002776D01*
X025330Y003132D01*
X025330Y003518D01*
X025478Y003874D01*
X025751Y004147D01*
X026107Y004295D01*
X026493Y004295D01*
X026849Y004147D01*
X026910Y004087D01*
X026910Y013563D01*
X026849Y013503D01*
X026493Y013355D01*
X026107Y013355D01*
X025751Y013503D01*
X025478Y013776D01*
X025330Y014132D01*
X025330Y014518D01*
X025478Y014874D01*
X025751Y015147D01*
X026107Y015295D01*
X026493Y015295D01*
X026810Y015164D01*
X026079Y015894D01*
X026079Y015894D01*
X025969Y016004D01*
X025910Y016147D01*
X025910Y020563D01*
X025538Y020935D01*
X007062Y020935D01*
X007122Y020874D01*
X007270Y020518D01*
X007270Y020132D01*
X007122Y019776D01*
X006849Y019503D01*
X006493Y019355D01*
X006107Y019355D01*
X005751Y019503D01*
X005478Y019776D01*
X005330Y020132D01*
X005330Y020518D01*
X005478Y020874D01*
X005538Y020935D01*
X000690Y020935D01*
X000690Y020892D02*
X005495Y020892D01*
X005453Y020814D02*
X000690Y020814D01*
X000690Y020735D02*
X005420Y020735D01*
X005388Y020657D02*
X000690Y020657D01*
X000690Y020578D02*
X001861Y020578D01*
X001811Y020557D02*
X001668Y020414D01*
X001590Y020226D01*
X001590Y020024D01*
X001668Y019836D01*
X001811Y019693D01*
X001999Y019615D01*
X002201Y019615D01*
X002389Y019693D01*
X002532Y019836D01*
X002600Y019999D01*
X002668Y019836D01*
X002811Y019693D01*
X002999Y019615D01*
X003201Y019615D01*
X003389Y019693D01*
X003532Y019836D01*
X003600Y019999D01*
X003668Y019836D01*
X003811Y019693D01*
X003999Y019615D01*
X004201Y019615D01*
X004389Y019693D01*
X004532Y019836D01*
X004610Y020024D01*
X004610Y020226D01*
X004532Y020414D01*
X004389Y020557D01*
X004201Y020635D01*
X003999Y020635D01*
X003811Y020557D01*
X003668Y020414D01*
X003600Y020251D01*
X003532Y020414D01*
X003389Y020557D01*
X003201Y020635D01*
X002999Y020635D01*
X002811Y020557D01*
X002668Y020414D01*
X002600Y020251D01*
X002532Y020414D01*
X002389Y020557D01*
X002201Y020635D01*
X001999Y020635D01*
X001811Y020557D01*
X001753Y020500D02*
X000690Y020500D01*
X000690Y020421D02*
X001675Y020421D01*
X001638Y020343D02*
X000690Y020343D01*
X000690Y020264D02*
X001606Y020264D01*
X001590Y020186D02*
X000690Y020186D01*
X000690Y020107D02*
X001590Y020107D01*
X001590Y020029D02*
X000690Y020029D01*
X000690Y019950D02*
X001620Y019950D01*
X001653Y019872D02*
X000690Y019872D01*
X000690Y019793D02*
X001711Y019793D01*
X001789Y019715D02*
X000690Y019715D01*
X000690Y019636D02*
X001948Y019636D01*
X002252Y019636D02*
X002948Y019636D01*
X002789Y019715D02*
X002411Y019715D01*
X002489Y019793D02*
X002711Y019793D01*
X002653Y019872D02*
X002547Y019872D01*
X002580Y019950D02*
X002620Y019950D01*
X002606Y020264D02*
X002594Y020264D01*
X002562Y020343D02*
X002638Y020343D01*
X002675Y020421D02*
X002525Y020421D01*
X002447Y020500D02*
X002753Y020500D01*
X002861Y020578D02*
X002339Y020578D01*
X003339Y020578D02*
X003861Y020578D01*
X003753Y020500D02*
X003447Y020500D01*
X003525Y020421D02*
X003675Y020421D01*
X003638Y020343D02*
X003562Y020343D01*
X003594Y020264D02*
X003606Y020264D01*
X003620Y019950D02*
X003580Y019950D01*
X003547Y019872D02*
X003653Y019872D01*
X003711Y019793D02*
X003489Y019793D01*
X003411Y019715D02*
X003789Y019715D01*
X003948Y019636D02*
X003252Y019636D01*
X004252Y019636D02*
X005617Y019636D01*
X005539Y019715D02*
X004411Y019715D01*
X004489Y019793D02*
X005470Y019793D01*
X005438Y019872D02*
X004547Y019872D01*
X004580Y019950D02*
X005405Y019950D01*
X005373Y020029D02*
X004610Y020029D01*
X004610Y020107D02*
X005340Y020107D01*
X005330Y020186D02*
X004610Y020186D01*
X004594Y020264D02*
X005330Y020264D01*
X005330Y020343D02*
X004562Y020343D01*
X004525Y020421D02*
X005330Y020421D01*
X005330Y020500D02*
X004447Y020500D01*
X004339Y020578D02*
X005355Y020578D01*
X007105Y020892D02*
X025581Y020892D01*
X025660Y020814D02*
X015447Y020814D01*
X015419Y020822D02*
X015496Y020798D01*
X015567Y020761D01*
X015632Y020714D01*
X015689Y020657D01*
X015736Y020592D01*
X015773Y020521D01*
X015797Y020444D01*
X015810Y020365D01*
X015810Y020365D01*
X015340Y020365D01*
X015260Y020365D01*
X015260Y020835D01*
X015260Y020835D01*
X015181Y020822D01*
X015104Y020798D01*
X015033Y020761D01*
X014968Y020714D01*
X014911Y020657D01*
X014864Y020592D01*
X014827Y020521D01*
X014803Y020444D01*
X014732Y020614D01*
X014589Y020757D01*
X014401Y020835D01*
X014199Y020835D01*
X014011Y020757D01*
X013868Y020614D01*
X013800Y020451D01*
X013732Y020614D01*
X013589Y020757D01*
X013401Y020835D01*
X013199Y020835D01*
X013011Y020757D01*
X012868Y020614D01*
X012790Y020426D01*
X012790Y020224D01*
X012868Y020036D01*
X013011Y019893D01*
X013199Y019815D01*
X013401Y019815D01*
X013589Y019893D01*
X013732Y020036D01*
X013800Y020199D01*
X013868Y020036D01*
X014011Y019893D01*
X014199Y019815D01*
X014401Y019815D01*
X014589Y019893D01*
X014732Y020036D01*
X014803Y020206D01*
X014803Y020206D01*
X014827Y020129D01*
X014864Y020058D01*
X014911Y019993D01*
X014936Y019968D01*
X014846Y019930D01*
X014745Y019829D01*
X014690Y019697D01*
X014690Y019553D01*
X014745Y019421D01*
X014846Y019320D01*
X014978Y019265D01*
X015122Y019265D01*
X015136Y019271D01*
X015396Y019011D01*
X015390Y018997D01*
X015390Y018986D01*
X015272Y019035D01*
X015128Y019035D01*
X014996Y018980D01*
X014931Y018915D01*
X014921Y018915D01*
X014871Y018865D01*
X014779Y018865D01*
X014754Y018889D01*
X014760Y018903D01*
X014760Y019047D01*
X014705Y019179D01*
X014604Y019280D01*
X014472Y019335D01*
X014328Y019335D01*
X014196Y019280D01*
X014095Y019179D01*
X014040Y019047D01*
X014040Y018903D01*
X014095Y018771D01*
X014196Y018670D01*
X014328Y018615D01*
X014472Y018615D01*
X014486Y018621D01*
X014510Y018596D01*
X014621Y018485D01*
X014889Y018485D01*
X014895Y018471D01*
X014996Y018370D01*
X015128Y018315D01*
X015272Y018315D01*
X015404Y018370D01*
X015505Y018471D01*
X015560Y018603D01*
X015560Y018614D01*
X015678Y018565D01*
X015822Y018565D01*
X015954Y018620D01*
X016055Y018721D01*
X016110Y018853D01*
X016110Y018997D01*
X016055Y019129D01*
X015954Y019230D01*
X015822Y019285D01*
X015678Y019285D01*
X015664Y019279D01*
X015404Y019539D01*
X015410Y019553D01*
X015410Y019697D01*
X015360Y019818D01*
X015419Y019828D01*
X015496Y019852D01*
X015567Y019889D01*
X015632Y019936D01*
X015689Y019993D01*
X015736Y020058D01*
X015773Y020129D01*
X015797Y020206D01*
X015810Y020285D01*
X015340Y020285D01*
X015340Y020365D01*
X015340Y020835D01*
X015340Y020835D01*
X015419Y020822D01*
X015340Y020814D02*
X015260Y020814D01*
X015260Y020735D02*
X015340Y020735D01*
X015340Y020657D02*
X015260Y020657D01*
X015260Y020578D02*
X015340Y020578D01*
X015340Y020500D02*
X015260Y020500D01*
X015260Y020421D02*
X015340Y020421D01*
X015340Y020343D02*
X021884Y020343D01*
X021910Y020406D02*
X021840Y020236D01*
X021840Y019413D01*
X021910Y019244D01*
X022039Y019115D01*
X022208Y019045D01*
X022391Y019045D01*
X022561Y019115D01*
X022690Y019244D01*
X022760Y019413D01*
X022760Y020236D01*
X022690Y020406D01*
X022561Y020535D01*
X022391Y020605D01*
X022208Y020605D01*
X022039Y020535D01*
X021910Y020406D01*
X021926Y020421D02*
X015801Y020421D01*
X015780Y020500D02*
X022004Y020500D01*
X022143Y020578D02*
X015743Y020578D01*
X015689Y020657D02*
X025817Y020657D01*
X025738Y020735D02*
X015603Y020735D01*
X015153Y020814D02*
X014453Y020814D01*
X014611Y020735D02*
X014997Y020735D01*
X014911Y020657D02*
X014690Y020657D01*
X014747Y020578D02*
X014857Y020578D01*
X014820Y020500D02*
X014780Y020500D01*
X014803Y020444D02*
X014803Y020444D01*
X014794Y020186D02*
X014809Y020186D01*
X014839Y020107D02*
X014762Y020107D01*
X014725Y020029D02*
X014885Y020029D01*
X014894Y019950D02*
X014646Y019950D01*
X014538Y019872D02*
X014787Y019872D01*
X014730Y019793D02*
X007129Y019793D01*
X007162Y019872D02*
X013062Y019872D01*
X012954Y019950D02*
X007195Y019950D01*
X007227Y020029D02*
X012875Y020029D01*
X012838Y020107D02*
X007260Y020107D01*
X007270Y020186D02*
X012806Y020186D01*
X012790Y020264D02*
X007270Y020264D01*
X007270Y020343D02*
X012790Y020343D01*
X012790Y020421D02*
X007270Y020421D01*
X007270Y020500D02*
X012820Y020500D01*
X012853Y020578D02*
X007245Y020578D01*
X007212Y020657D02*
X012910Y020657D01*
X012989Y020735D02*
X007180Y020735D01*
X007147Y020814D02*
X013147Y020814D01*
X013453Y020814D02*
X014147Y020814D01*
X013989Y020735D02*
X013611Y020735D01*
X013690Y020657D02*
X013910Y020657D01*
X013853Y020578D02*
X013747Y020578D01*
X013780Y020500D02*
X013820Y020500D01*
X013806Y020186D02*
X013794Y020186D01*
X013762Y020107D02*
X013838Y020107D01*
X013875Y020029D02*
X013725Y020029D01*
X013646Y019950D02*
X013954Y019950D01*
X014062Y019872D02*
X013538Y019872D01*
X014297Y019322D02*
X000690Y019322D01*
X000690Y019244D02*
X014159Y019244D01*
X014089Y019165D02*
X000690Y019165D01*
X000690Y019087D02*
X014057Y019087D01*
X014040Y019008D02*
X000690Y019008D01*
X000690Y018930D02*
X014040Y018930D01*
X014062Y018851D02*
X000690Y018851D01*
X000690Y018773D02*
X014094Y018773D01*
X014172Y018694D02*
X000690Y018694D01*
X000690Y018616D02*
X014327Y018616D01*
X014473Y018616D02*
X014491Y018616D01*
X014569Y018537D02*
X000690Y018537D01*
X000690Y018459D02*
X014907Y018459D01*
X014986Y018380D02*
X000690Y018380D01*
X000690Y018302D02*
X025910Y018302D01*
X025910Y018380D02*
X015414Y018380D01*
X015493Y018459D02*
X025910Y018459D01*
X025910Y018537D02*
X015533Y018537D01*
X015944Y018616D02*
X025910Y018616D01*
X025910Y018694D02*
X016028Y018694D01*
X016077Y018773D02*
X025910Y018773D01*
X025910Y018851D02*
X016109Y018851D01*
X016110Y018930D02*
X025910Y018930D01*
X025910Y019008D02*
X016105Y019008D01*
X016073Y019087D02*
X022108Y019087D01*
X021989Y019165D02*
X016019Y019165D01*
X015922Y019244D02*
X021911Y019244D01*
X021878Y019322D02*
X015622Y019322D01*
X015543Y019401D02*
X021845Y019401D01*
X021840Y019479D02*
X015465Y019479D01*
X015410Y019558D02*
X021840Y019558D01*
X021840Y019636D02*
X015410Y019636D01*
X015403Y019715D02*
X021840Y019715D01*
X021840Y019793D02*
X015370Y019793D01*
X015533Y019872D02*
X021840Y019872D01*
X021840Y019950D02*
X015646Y019950D01*
X015715Y020029D02*
X021840Y020029D01*
X021840Y020107D02*
X015761Y020107D01*
X015791Y020186D02*
X021840Y020186D01*
X021851Y020264D02*
X015807Y020264D01*
X015810Y020285D02*
X015810Y020285D01*
X014697Y019715D02*
X007061Y019715D01*
X006983Y019636D02*
X014690Y019636D01*
X014690Y019558D02*
X006904Y019558D01*
X006792Y019479D02*
X014721Y019479D01*
X014765Y019401D02*
X006603Y019401D01*
X005997Y019401D02*
X000690Y019401D01*
X000690Y019479D02*
X005808Y019479D01*
X005696Y019558D02*
X000690Y019558D01*
X000690Y018223D02*
X025910Y018223D01*
X025910Y018145D02*
X000690Y018145D01*
X000690Y018066D02*
X025910Y018066D01*
X025910Y017988D02*
X000690Y017988D01*
X000690Y017909D02*
X025910Y017909D01*
X025910Y017831D02*
X000690Y017831D01*
X000690Y017752D02*
X025910Y017752D01*
X025910Y017674D02*
X000690Y017674D01*
X000690Y017595D02*
X025910Y017595D01*
X025910Y017517D02*
X000690Y017517D01*
X000690Y017438D02*
X025910Y017438D01*
X025910Y017360D02*
X000690Y017360D01*
X000690Y017281D02*
X025910Y017281D01*
X025910Y017203D02*
X000690Y017203D01*
X000690Y017124D02*
X025910Y017124D01*
X025910Y017046D02*
X000690Y017046D01*
X000690Y016967D02*
X025910Y016967D01*
X025910Y016889D02*
X000690Y016889D01*
X000690Y016810D02*
X025910Y016810D01*
X025910Y016732D02*
X000690Y016732D01*
X000690Y016653D02*
X025910Y016653D01*
X025910Y016575D02*
X000690Y016575D01*
X000690Y016496D02*
X025910Y016496D01*
X025910Y016418D02*
X000690Y016418D01*
X000690Y016339D02*
X025910Y016339D01*
X025910Y016261D02*
X006522Y016261D01*
X006391Y016315D02*
X005997Y016315D01*
X005633Y016164D01*
X005354Y015886D01*
X005204Y015522D01*
X005204Y015128D01*
X005354Y014764D01*
X005633Y014486D01*
X005997Y014335D01*
X006391Y014335D01*
X006754Y014486D01*
X007033Y014764D01*
X007184Y015128D01*
X007184Y015522D01*
X007033Y015886D01*
X006754Y016164D01*
X006391Y016315D01*
X006712Y016182D02*
X025910Y016182D01*
X025928Y016104D02*
X006815Y016104D01*
X006894Y016025D02*
X025961Y016025D01*
X026027Y015947D02*
X006972Y015947D01*
X007040Y015868D02*
X026105Y015868D01*
X026184Y015790D02*
X007073Y015790D01*
X007105Y015711D02*
X026262Y015711D01*
X026341Y015633D02*
X007138Y015633D01*
X007170Y015554D02*
X026419Y015554D01*
X026498Y015476D02*
X007184Y015476D01*
X007184Y015397D02*
X026576Y015397D01*
X026655Y015319D02*
X007184Y015319D01*
X007184Y015240D02*
X025975Y015240D01*
X025785Y015162D02*
X007184Y015162D01*
X007165Y015083D02*
X025686Y015083D01*
X025608Y015005D02*
X007133Y015005D01*
X007100Y014926D02*
X025529Y014926D01*
X025467Y014848D02*
X007068Y014848D01*
X007035Y014769D02*
X025434Y014769D01*
X025402Y014691D02*
X006959Y014691D01*
X006881Y014612D02*
X025369Y014612D01*
X025337Y014534D02*
X006802Y014534D01*
X006680Y014455D02*
X025330Y014455D01*
X025330Y014377D02*
X006491Y014377D01*
X005896Y014377D02*
X005422Y014377D01*
X005573Y014314D02*
X005210Y014465D01*
X004816Y014465D01*
X004452Y014314D01*
X004173Y014035D01*
X004023Y013672D01*
X004023Y013278D01*
X004173Y012914D01*
X004452Y012635D01*
X004816Y012485D01*
X005210Y012485D01*
X005573Y012635D01*
X005852Y012914D01*
X006003Y013278D01*
X006003Y013672D01*
X005852Y014035D01*
X005573Y014314D01*
X005589Y014298D02*
X025330Y014298D01*
X025330Y014220D02*
X005668Y014220D01*
X005746Y014141D02*
X025330Y014141D01*
X025359Y014063D02*
X005825Y014063D01*
X005873Y013984D02*
X025391Y013984D01*
X025424Y013906D02*
X005906Y013906D01*
X005938Y013827D02*
X025456Y013827D01*
X025505Y013749D02*
X005971Y013749D01*
X006003Y013670D02*
X025583Y013670D01*
X025662Y013592D02*
X006003Y013592D01*
X006003Y013513D02*
X025740Y013513D01*
X025915Y013435D02*
X006003Y013435D01*
X006003Y013356D02*
X026105Y013356D01*
X026495Y013356D02*
X026910Y013356D01*
X026910Y013278D02*
X006003Y013278D01*
X005970Y013199D02*
X026910Y013199D01*
X026910Y013121D02*
X005938Y013121D01*
X005905Y013042D02*
X026910Y013042D01*
X026910Y012964D02*
X005872Y012964D01*
X005823Y012885D02*
X026910Y012885D01*
X026910Y012807D02*
X026470Y012807D01*
X026401Y012835D02*
X026199Y012835D01*
X026011Y012757D01*
X025868Y012614D01*
X025790Y012426D01*
X025790Y012224D01*
X025868Y012036D01*
X026011Y011893D01*
X026199Y011815D01*
X026401Y011815D01*
X026589Y011893D01*
X026732Y012036D01*
X026810Y012224D01*
X026810Y012426D01*
X026732Y012614D01*
X026589Y012757D01*
X026401Y012835D01*
X026618Y012728D02*
X026910Y012728D01*
X026910Y012650D02*
X026697Y012650D01*
X026750Y012571D02*
X026910Y012571D01*
X026910Y012493D02*
X026783Y012493D01*
X026810Y012414D02*
X026910Y012414D01*
X026910Y012336D02*
X026810Y012336D01*
X026810Y012257D02*
X026910Y012257D01*
X026910Y012179D02*
X026791Y012179D01*
X026759Y012100D02*
X026910Y012100D01*
X026910Y012022D02*
X026718Y012022D01*
X026639Y011943D02*
X026910Y011943D01*
X026910Y011865D02*
X026521Y011865D01*
X026910Y011786D02*
X000690Y011786D01*
X000690Y011708D02*
X026910Y011708D01*
X026910Y011629D02*
X000690Y011629D01*
X000690Y011551D02*
X026910Y011551D01*
X026910Y011472D02*
X000690Y011472D01*
X000690Y011394D02*
X026910Y011394D01*
X026910Y011315D02*
X000690Y011315D01*
X000690Y011237D02*
X001864Y011237D01*
X001835Y011208D02*
X001835Y010442D01*
X001917Y010360D01*
X002683Y010360D01*
X002765Y010442D01*
X002765Y011208D01*
X002683Y011290D01*
X001917Y011290D01*
X001835Y011208D01*
X001835Y011158D02*
X000690Y011158D01*
X000690Y011080D02*
X001835Y011080D01*
X001835Y011001D02*
X000690Y011001D01*
X000690Y010923D02*
X001835Y010923D01*
X001835Y010844D02*
X000690Y010844D01*
X000690Y010766D02*
X001835Y010766D01*
X001835Y010687D02*
X000690Y010687D01*
X000690Y010609D02*
X001835Y010609D01*
X001835Y010530D02*
X000690Y010530D01*
X000690Y010452D02*
X001835Y010452D01*
X001904Y010373D02*
X000690Y010373D01*
X000690Y010295D02*
X026910Y010295D01*
X026910Y010373D02*
X006196Y010373D01*
X006183Y010360D02*
X006265Y010442D01*
X006265Y011208D01*
X006183Y011290D01*
X005417Y011290D01*
X005335Y011208D01*
X005335Y010442D01*
X005417Y010360D01*
X006183Y010360D01*
X006265Y010452D02*
X026910Y010452D01*
X026910Y010530D02*
X006265Y010530D01*
X006265Y010609D02*
X026910Y010609D01*
X026910Y010687D02*
X006265Y010687D01*
X006265Y010766D02*
X026910Y010766D01*
X026910Y010844D02*
X006265Y010844D01*
X006265Y010923D02*
X026910Y010923D01*
X026910Y011001D02*
X006265Y011001D01*
X006265Y011080D02*
X026910Y011080D01*
X026910Y011158D02*
X006265Y011158D01*
X006236Y011237D02*
X026910Y011237D01*
X026079Y011865D02*
X000690Y011865D01*
X000690Y011943D02*
X025961Y011943D01*
X025882Y012022D02*
X000690Y012022D01*
X000690Y012100D02*
X025841Y012100D01*
X025809Y012179D02*
X000690Y012179D01*
X000690Y012257D02*
X025790Y012257D01*
X025790Y012336D02*
X000690Y012336D01*
X000690Y012414D02*
X025790Y012414D01*
X025817Y012493D02*
X005229Y012493D01*
X005418Y012571D02*
X025850Y012571D01*
X025903Y012650D02*
X005588Y012650D01*
X005666Y012728D02*
X025982Y012728D01*
X026130Y012807D02*
X005745Y012807D01*
X004797Y012493D02*
X000690Y012493D01*
X000690Y012571D02*
X004607Y012571D01*
X004438Y012650D02*
X000690Y012650D01*
X000690Y012728D02*
X004359Y012728D01*
X004281Y012807D02*
X000690Y012807D01*
X000690Y012885D02*
X004202Y012885D01*
X004153Y012964D02*
X000690Y012964D01*
X000690Y013042D02*
X004120Y013042D01*
X004088Y013121D02*
X000690Y013121D01*
X000690Y013199D02*
X004055Y013199D01*
X004023Y013278D02*
X000690Y013278D01*
X000690Y013356D02*
X004023Y013356D01*
X004023Y013435D02*
X000690Y013435D01*
X000690Y013513D02*
X004023Y013513D01*
X004023Y013592D02*
X000690Y013592D01*
X000690Y013670D02*
X004023Y013670D01*
X004054Y013749D02*
X000690Y013749D01*
X000690Y013827D02*
X004087Y013827D01*
X004120Y013906D02*
X000690Y013906D01*
X000690Y013984D02*
X004152Y013984D01*
X004200Y014063D02*
X000690Y014063D01*
X000690Y014141D02*
X004279Y014141D01*
X004357Y014220D02*
X000690Y014220D01*
X000690Y014298D02*
X004436Y014298D01*
X004603Y014377D02*
X004118Y014377D01*
X004106Y014372D02*
X004211Y014409D01*
X004311Y014457D01*
X004405Y014516D01*
X004492Y014586D01*
X004571Y014664D01*
X004640Y014751D01*
X004699Y014845D01*
X004748Y014946D01*
X004784Y015050D01*
X004809Y015159D01*
X004821Y015269D01*
X004821Y015285D01*
X003872Y015285D01*
X003872Y015365D01*
X004821Y015365D01*
X004821Y015381D01*
X004809Y015491D01*
X004784Y015599D01*
X004748Y015704D01*
X004699Y015805D01*
X004640Y015899D01*
X004571Y015986D01*
X004492Y016064D01*
X004405Y016134D01*
X004311Y016193D01*
X004211Y016241D01*
X004106Y016278D01*
X003998Y016303D01*
X003887Y016315D01*
X003871Y016315D01*
X003871Y015365D01*
X003791Y015365D01*
X003791Y015285D01*
X002841Y015285D01*
X002841Y015269D01*
X002854Y015159D01*
X002879Y015050D01*
X002915Y014946D01*
X002964Y014845D01*
X003023Y014751D01*
X003092Y014664D01*
X003171Y014586D01*
X003258Y014516D01*
X003352Y014457D01*
X003452Y014409D01*
X003557Y014372D01*
X003665Y014347D01*
X003776Y014335D01*
X003791Y014335D01*
X003791Y015285D01*
X003871Y015285D01*
X003871Y014335D01*
X003887Y014335D01*
X003998Y014347D01*
X004106Y014372D01*
X004307Y014455D02*
X004793Y014455D01*
X004592Y014691D02*
X005428Y014691D01*
X005352Y014769D02*
X004651Y014769D01*
X004700Y014848D02*
X005320Y014848D01*
X005287Y014926D02*
X004738Y014926D01*
X004768Y015005D02*
X005255Y015005D01*
X005222Y015083D02*
X004792Y015083D01*
X004809Y015162D02*
X005204Y015162D01*
X005204Y015240D02*
X004818Y015240D01*
X004820Y015397D02*
X005204Y015397D01*
X005204Y015319D02*
X003872Y015319D01*
X003871Y015397D02*
X003791Y015397D01*
X003791Y015365D02*
X003791Y016315D01*
X003776Y016315D01*
X003665Y016303D01*
X003557Y016278D01*
X003452Y016241D01*
X003352Y016193D01*
X003258Y016134D01*
X003171Y016064D01*
X003092Y015986D01*
X003023Y015899D01*
X002964Y015805D01*
X002915Y015704D01*
X002879Y015599D01*
X002854Y015491D01*
X002841Y015381D01*
X002841Y015365D01*
X003791Y015365D01*
X003791Y015319D02*
X000690Y015319D01*
X000690Y015397D02*
X002843Y015397D01*
X002852Y015476D02*
X000690Y015476D01*
X000690Y015554D02*
X002868Y015554D01*
X002890Y015633D02*
X000690Y015633D01*
X000690Y015711D02*
X002919Y015711D01*
X002956Y015790D02*
X000690Y015790D01*
X000690Y015868D02*
X003004Y015868D01*
X003061Y015947D02*
X000690Y015947D01*
X000690Y016025D02*
X003131Y016025D01*
X003220Y016104D02*
X000690Y016104D01*
X000690Y016182D02*
X003335Y016182D01*
X003508Y016261D02*
X000690Y016261D01*
X000690Y015240D02*
X002845Y015240D01*
X002854Y015162D02*
X000690Y015162D01*
X000690Y015083D02*
X002871Y015083D01*
X002895Y015005D02*
X000690Y015005D01*
X000690Y014926D02*
X002925Y014926D01*
X002963Y014848D02*
X000690Y014848D01*
X000690Y014769D02*
X003012Y014769D01*
X003071Y014691D02*
X000690Y014691D01*
X000690Y014612D02*
X003144Y014612D01*
X003236Y014534D02*
X000690Y014534D01*
X000690Y014455D02*
X003356Y014455D01*
X003545Y014377D02*
X000690Y014377D01*
X003791Y014377D02*
X003871Y014377D01*
X003871Y014455D02*
X003791Y014455D01*
X003791Y014534D02*
X003871Y014534D01*
X003871Y014612D02*
X003791Y014612D01*
X003791Y014691D02*
X003871Y014691D01*
X003871Y014769D02*
X003791Y014769D01*
X003791Y014848D02*
X003871Y014848D01*
X003871Y014926D02*
X003791Y014926D01*
X003791Y015005D02*
X003871Y015005D01*
X003871Y015083D02*
X003791Y015083D01*
X003791Y015162D02*
X003871Y015162D01*
X003871Y015240D02*
X003791Y015240D01*
X003791Y015476D02*
X003871Y015476D01*
X003871Y015554D02*
X003791Y015554D01*
X003791Y015633D02*
X003871Y015633D01*
X003871Y015711D02*
X003791Y015711D01*
X003791Y015790D02*
X003871Y015790D01*
X003871Y015868D02*
X003791Y015868D01*
X003791Y015947D02*
X003871Y015947D01*
X003871Y016025D02*
X003791Y016025D01*
X003791Y016104D02*
X003871Y016104D01*
X003871Y016182D02*
X003791Y016182D01*
X003791Y016261D02*
X003871Y016261D01*
X004155Y016261D02*
X005865Y016261D01*
X005676Y016182D02*
X004328Y016182D01*
X004443Y016104D02*
X005572Y016104D01*
X005494Y016025D02*
X004532Y016025D01*
X004602Y015947D02*
X005415Y015947D01*
X005347Y015868D02*
X004659Y015868D01*
X004707Y015790D02*
X005315Y015790D01*
X005282Y015711D02*
X004744Y015711D01*
X004773Y015633D02*
X005250Y015633D01*
X005217Y015554D02*
X004795Y015554D01*
X004811Y015476D02*
X005204Y015476D01*
X005507Y014612D02*
X004519Y014612D01*
X004427Y014534D02*
X005585Y014534D01*
X005707Y014455D02*
X005233Y014455D01*
X005364Y011237D02*
X002736Y011237D01*
X002765Y011158D02*
X005335Y011158D01*
X005335Y011080D02*
X002765Y011080D01*
X002765Y011001D02*
X005335Y011001D01*
X005335Y010923D02*
X002765Y010923D01*
X002765Y010844D02*
X005335Y010844D01*
X005335Y010766D02*
X002765Y010766D01*
X002765Y010687D02*
X005335Y010687D01*
X005335Y010609D02*
X002765Y010609D01*
X002765Y010530D02*
X005335Y010530D01*
X005335Y010452D02*
X002765Y010452D01*
X002696Y010373D02*
X005404Y010373D01*
X005547Y010216D02*
X002553Y010216D01*
X002544Y010223D02*
X002478Y010256D01*
X002409Y010279D01*
X002337Y010290D01*
X002329Y010290D01*
X002329Y009854D01*
X002271Y009854D01*
X002271Y010290D01*
X002263Y010290D01*
X002191Y010279D01*
X002122Y010256D01*
X002056Y010223D01*
X001997Y010180D01*
X001945Y010128D01*
X001902Y010069D01*
X001869Y010003D01*
X001846Y009934D01*
X001835Y009862D01*
X001835Y009854D01*
X002271Y009854D01*
X002271Y009796D01*
X001835Y009796D01*
X001835Y009788D01*
X001846Y009716D01*
X001869Y009647D01*
X001902Y009581D01*
X001945Y009522D01*
X001997Y009470D01*
X002056Y009427D01*
X002122Y009394D01*
X002191Y009371D01*
X002263Y009360D01*
X002271Y009360D01*
X002271Y009796D01*
X002329Y009796D01*
X002329Y009854D01*
X002765Y009854D01*
X002765Y009862D01*
X002754Y009934D01*
X002731Y010003D01*
X002698Y010069D01*
X002655Y010128D01*
X002603Y010180D01*
X002544Y010223D01*
X002645Y010138D02*
X005455Y010138D01*
X005445Y010128D02*
X005402Y010069D01*
X005369Y010003D01*
X005346Y009934D01*
X005335Y009862D01*
X005335Y009854D01*
X005771Y009854D01*
X005771Y010290D01*
X005763Y010290D01*
X005691Y010279D01*
X005622Y010256D01*
X005556Y010223D01*
X005497Y010180D01*
X005445Y010128D01*
X005397Y010059D02*
X002703Y010059D01*
X002738Y009981D02*
X005362Y009981D01*
X005341Y009902D02*
X002759Y009902D01*
X002765Y009796D02*
X002329Y009796D01*
X002329Y009360D01*
X002337Y009360D01*
X002409Y009371D01*
X002478Y009394D01*
X002544Y009427D01*
X002603Y009470D01*
X002655Y009522D01*
X002698Y009581D01*
X002731Y009647D01*
X002754Y009716D01*
X002765Y009788D01*
X002765Y009796D01*
X002758Y009745D02*
X005342Y009745D01*
X005346Y009716D02*
X005335Y009788D01*
X005335Y009796D01*
X005771Y009796D01*
X005771Y009854D01*
X005829Y009854D01*
X005829Y010290D01*
X005837Y010290D01*
X005909Y010279D01*
X005978Y010256D01*
X006044Y010223D01*
X006103Y010180D01*
X006155Y010128D01*
X006198Y010069D01*
X006231Y010003D01*
X006254Y009934D01*
X006265Y009862D01*
X006265Y009854D01*
X005829Y009854D01*
X005829Y009796D01*
X006265Y009796D01*
X006265Y009788D01*
X006254Y009716D01*
X006231Y009647D01*
X006198Y009581D01*
X006155Y009522D01*
X006103Y009470D01*
X006044Y009427D01*
X005978Y009394D01*
X005909Y009371D01*
X005837Y009360D01*
X005829Y009360D01*
X005829Y009796D01*
X005771Y009796D01*
X005771Y009360D01*
X005763Y009360D01*
X005691Y009371D01*
X005622Y009394D01*
X005556Y009427D01*
X005497Y009470D01*
X005445Y009522D01*
X005402Y009581D01*
X005369Y009647D01*
X005346Y009716D01*
X005363Y009667D02*
X002737Y009667D01*
X002701Y009588D02*
X005399Y009588D01*
X005458Y009510D02*
X002642Y009510D01*
X002549Y009431D02*
X005551Y009431D01*
X005771Y009431D02*
X005829Y009431D01*
X005829Y009510D02*
X005771Y009510D01*
X005771Y009588D02*
X005829Y009588D01*
X005829Y009667D02*
X005771Y009667D01*
X005771Y009745D02*
X005829Y009745D01*
X005829Y009824D02*
X026171Y009824D01*
X026199Y009835D02*
X026011Y009757D01*
X025868Y009614D01*
X025790Y009426D01*
X025790Y009224D01*
X025868Y009036D01*
X026011Y008893D01*
X026199Y008815D01*
X026401Y008815D01*
X026589Y008893D01*
X026732Y009036D01*
X026810Y009224D01*
X026810Y009426D01*
X026732Y009614D01*
X026589Y009757D01*
X026401Y009835D01*
X026199Y009835D01*
X025999Y009745D02*
X006258Y009745D01*
X006237Y009667D02*
X025920Y009667D01*
X025857Y009588D02*
X006201Y009588D01*
X006142Y009510D02*
X025824Y009510D01*
X025792Y009431D02*
X006049Y009431D01*
X005771Y009824D02*
X002329Y009824D01*
X002271Y009824D02*
X000690Y009824D01*
X000690Y009902D02*
X001841Y009902D01*
X001862Y009981D02*
X000690Y009981D01*
X000690Y010059D02*
X001897Y010059D01*
X001955Y010138D02*
X000690Y010138D01*
X000690Y010216D02*
X002047Y010216D01*
X002271Y010216D02*
X002329Y010216D01*
X002329Y010138D02*
X002271Y010138D01*
X002271Y010059D02*
X002329Y010059D01*
X002329Y009981D02*
X002271Y009981D01*
X002271Y009902D02*
X002329Y009902D01*
X002329Y009745D02*
X002271Y009745D01*
X002271Y009667D02*
X002329Y009667D01*
X002329Y009588D02*
X002271Y009588D01*
X002271Y009510D02*
X002329Y009510D01*
X002329Y009431D02*
X002271Y009431D01*
X002051Y009431D02*
X000690Y009431D01*
X000690Y009353D02*
X025790Y009353D01*
X025790Y009274D02*
X020049Y009274D01*
X020089Y009257D02*
X019901Y009335D01*
X019699Y009335D01*
X019511Y009257D01*
X019368Y009114D01*
X019300Y008951D01*
X019232Y009114D01*
X019089Y009257D01*
X018901Y009335D01*
X018699Y009335D01*
X018511Y009257D01*
X018368Y009114D01*
X018300Y008951D01*
X018232Y009114D01*
X018089Y009257D01*
X017901Y009335D01*
X017699Y009335D01*
X017511Y009257D01*
X017368Y009114D01*
X017300Y008951D01*
X017232Y009114D01*
X017089Y009257D01*
X016901Y009335D01*
X016699Y009335D01*
X016511Y009257D01*
X016368Y009114D01*
X016300Y008951D01*
X016232Y009114D01*
X016089Y009257D01*
X015901Y009335D01*
X015699Y009335D01*
X015511Y009257D01*
X015368Y009114D01*
X015300Y008951D01*
X015232Y009114D01*
X015089Y009257D01*
X014901Y009335D01*
X014699Y009335D01*
X014511Y009257D01*
X014368Y009114D01*
X014300Y008951D01*
X014232Y009114D01*
X014089Y009257D01*
X013901Y009335D01*
X013699Y009335D01*
X013511Y009257D01*
X013368Y009114D01*
X013300Y008951D01*
X013232Y009114D01*
X013089Y009257D01*
X012901Y009335D01*
X012699Y009335D01*
X012511Y009257D01*
X012368Y009114D01*
X012297Y008944D01*
X012297Y008944D01*
X012273Y009021D01*
X012236Y009092D01*
X012189Y009157D01*
X012132Y009214D01*
X012067Y009261D01*
X011996Y009298D01*
X011919Y009322D01*
X011840Y009335D01*
X011840Y008865D01*
X011760Y008865D01*
X011760Y009335D01*
X011760Y009335D01*
X011681Y009322D01*
X011604Y009298D01*
X011533Y009261D01*
X011468Y009214D01*
X011411Y009157D01*
X011364Y009092D01*
X011327Y009021D01*
X011303Y008944D01*
X011232Y009114D01*
X011089Y009257D01*
X010901Y009335D01*
X010699Y009335D01*
X010511Y009257D01*
X010368Y009114D01*
X010300Y008951D01*
X010232Y009114D01*
X010089Y009257D01*
X009901Y009335D01*
X009699Y009335D01*
X009511Y009257D01*
X009368Y009114D01*
X009300Y008951D01*
X009232Y009114D01*
X009089Y009257D01*
X008901Y009335D01*
X008699Y009335D01*
X008511Y009257D01*
X008368Y009114D01*
X008290Y008926D01*
X008290Y008724D01*
X008368Y008536D01*
X008511Y008393D01*
X008699Y008315D01*
X008901Y008315D01*
X009089Y008393D01*
X009232Y008536D01*
X009300Y008699D01*
X009368Y008536D01*
X009511Y008393D01*
X009699Y008315D01*
X009901Y008315D01*
X010089Y008393D01*
X010232Y008536D01*
X010300Y008699D01*
X010368Y008536D01*
X010511Y008393D01*
X010699Y008315D01*
X010901Y008315D01*
X011089Y008393D01*
X011232Y008536D01*
X011303Y008706D01*
X011303Y008706D01*
X011327Y008629D01*
X011364Y008558D01*
X011411Y008493D01*
X011468Y008436D01*
X011533Y008389D01*
X011604Y008352D01*
X011681Y008328D01*
X011760Y008315D01*
X011760Y008785D01*
X011840Y008785D01*
X011840Y008315D01*
X011840Y008315D01*
X011919Y008328D01*
X011996Y008352D01*
X012067Y008389D01*
X012132Y008436D01*
X012189Y008493D01*
X012236Y008558D01*
X012273Y008629D01*
X012297Y008706D01*
X012368Y008536D01*
X012511Y008393D01*
X012699Y008315D01*
X012901Y008315D01*
X013089Y008393D01*
X013232Y008536D01*
X013300Y008699D01*
X013368Y008536D01*
X013511Y008393D01*
X013699Y008315D01*
X013901Y008315D01*
X014089Y008393D01*
X014232Y008536D01*
X014300Y008699D01*
X014368Y008536D01*
X014511Y008393D01*
X014699Y008315D01*
X014901Y008315D01*
X015089Y008393D01*
X015232Y008536D01*
X015300Y008699D01*
X015368Y008536D01*
X015511Y008393D01*
X015699Y008315D01*
X015901Y008315D01*
X016089Y008393D01*
X016232Y008536D01*
X016300Y008699D01*
X016368Y008536D01*
X016511Y008393D01*
X016699Y008315D01*
X016901Y008315D01*
X017089Y008393D01*
X017232Y008536D01*
X017300Y008699D01*
X017368Y008536D01*
X017511Y008393D01*
X017699Y008315D01*
X017901Y008315D01*
X018089Y008393D01*
X018232Y008536D01*
X018300Y008699D01*
X018368Y008536D01*
X018511Y008393D01*
X018699Y008315D01*
X018901Y008315D01*
X019089Y008393D01*
X019232Y008536D01*
X019300Y008699D01*
X019368Y008536D01*
X019511Y008393D01*
X019699Y008315D01*
X019901Y008315D01*
X020089Y008393D01*
X020232Y008536D01*
X020310Y008724D01*
X020310Y008926D01*
X020232Y009114D01*
X020089Y009257D01*
X020151Y009196D02*
X025802Y009196D01*
X025834Y009117D02*
X020229Y009117D01*
X020264Y009039D02*
X025867Y009039D01*
X025944Y008960D02*
X020296Y008960D01*
X020310Y008882D02*
X026038Y008882D01*
X026562Y008882D02*
X026910Y008882D01*
X026910Y008960D02*
X026656Y008960D01*
X026733Y009039D02*
X026910Y009039D01*
X026910Y009117D02*
X026766Y009117D01*
X026798Y009196D02*
X026910Y009196D01*
X026910Y009274D02*
X026810Y009274D01*
X026810Y009353D02*
X026910Y009353D01*
X026910Y009431D02*
X026808Y009431D01*
X026776Y009510D02*
X026910Y009510D01*
X026910Y009588D02*
X026743Y009588D01*
X026680Y009667D02*
X026910Y009667D01*
X026910Y009745D02*
X026601Y009745D01*
X026429Y009824D02*
X026910Y009824D01*
X026910Y009902D02*
X006259Y009902D01*
X006238Y009981D02*
X026910Y009981D01*
X026910Y010059D02*
X006203Y010059D01*
X006145Y010138D02*
X026910Y010138D01*
X026910Y010216D02*
X006053Y010216D01*
X005829Y010216D02*
X005771Y010216D01*
X005771Y010138D02*
X005829Y010138D01*
X005829Y010059D02*
X005771Y010059D01*
X005771Y009981D02*
X005829Y009981D01*
X005829Y009902D02*
X005771Y009902D01*
X008304Y008960D02*
X000690Y008960D01*
X000690Y008882D02*
X008290Y008882D01*
X008290Y008803D02*
X000690Y008803D01*
X000690Y008725D02*
X008290Y008725D01*
X008322Y008646D02*
X000690Y008646D01*
X000690Y008568D02*
X008355Y008568D01*
X008415Y008489D02*
X000690Y008489D01*
X000690Y008411D02*
X008493Y008411D01*
X008657Y008332D02*
X000690Y008332D01*
X000690Y008254D02*
X026022Y008254D01*
X026033Y008261D02*
X025968Y008214D01*
X025911Y008157D01*
X025864Y008092D01*
X025827Y008021D01*
X025803Y007944D01*
X025790Y007865D01*
X026260Y007865D01*
X026260Y008335D01*
X026260Y008335D01*
X026181Y008322D01*
X026104Y008298D01*
X026033Y008261D01*
X025929Y008175D02*
X000690Y008175D01*
X000690Y008097D02*
X025867Y008097D01*
X025826Y008018D02*
X000690Y008018D01*
X000690Y007940D02*
X025802Y007940D01*
X025790Y007865D02*
X025790Y007865D01*
X025790Y007785D02*
X025790Y007785D01*
X026260Y007785D01*
X026260Y007865D01*
X026340Y007865D01*
X026340Y008335D01*
X026340Y008335D01*
X026419Y008322D01*
X026496Y008298D01*
X026567Y008261D01*
X026632Y008214D01*
X026689Y008157D01*
X026736Y008092D01*
X026773Y008021D01*
X026797Y007944D01*
X026810Y007865D01*
X026810Y007865D01*
X026340Y007865D01*
X026340Y007785D01*
X026810Y007785D01*
X026810Y007785D01*
X026797Y007706D01*
X026773Y007629D01*
X026736Y007558D01*
X026689Y007493D01*
X026632Y007436D01*
X026567Y007389D01*
X026496Y007352D01*
X026419Y007328D01*
X026340Y007315D01*
X026340Y007315D01*
X026340Y007785D01*
X026260Y007785D01*
X026260Y007315D01*
X026260Y007315D01*
X026181Y007328D01*
X026104Y007352D01*
X026033Y007389D01*
X025968Y007436D01*
X025911Y007493D01*
X025864Y007558D01*
X025827Y007629D01*
X025803Y007706D01*
X025790Y007785D01*
X025790Y007783D02*
X000690Y007783D01*
X000690Y007861D02*
X026260Y007861D01*
X026260Y007783D02*
X026340Y007783D01*
X026340Y007861D02*
X026910Y007861D01*
X026910Y007783D02*
X026810Y007783D01*
X026797Y007704D02*
X026910Y007704D01*
X026910Y007626D02*
X026771Y007626D01*
X026728Y007547D02*
X026910Y007547D01*
X026910Y007469D02*
X026665Y007469D01*
X026569Y007390D02*
X026910Y007390D01*
X026910Y007312D02*
X000690Y007312D01*
X000690Y007390D02*
X026031Y007390D01*
X025935Y007469D02*
X000690Y007469D01*
X000690Y007547D02*
X025872Y007547D01*
X025829Y007626D02*
X000690Y007626D01*
X000690Y007704D02*
X025803Y007704D01*
X026260Y007704D02*
X026340Y007704D01*
X026340Y007626D02*
X026260Y007626D01*
X026260Y007547D02*
X026340Y007547D01*
X026340Y007469D02*
X026260Y007469D01*
X026260Y007390D02*
X026340Y007390D01*
X026910Y007233D02*
X000690Y007233D01*
X000690Y007155D02*
X026910Y007155D01*
X026910Y007076D02*
X000690Y007076D01*
X000690Y006998D02*
X026910Y006998D01*
X026910Y006919D02*
X000690Y006919D01*
X000690Y006841D02*
X001543Y006841D01*
X001511Y006827D02*
X001368Y006684D01*
X001290Y006496D01*
X001290Y006294D01*
X001368Y006106D01*
X001511Y005963D01*
X001699Y005885D01*
X001901Y005885D01*
X002089Y005963D01*
X002232Y006106D01*
X002310Y006294D01*
X002310Y006496D01*
X002232Y006684D01*
X002089Y006827D01*
X001901Y006905D01*
X001699Y006905D01*
X001511Y006827D01*
X001446Y006762D02*
X000690Y006762D01*
X000690Y006684D02*
X001367Y006684D01*
X001335Y006605D02*
X000690Y006605D01*
X000690Y006527D02*
X001302Y006527D01*
X001290Y006448D02*
X000690Y006448D01*
X000690Y006370D02*
X001290Y006370D01*
X001291Y006291D02*
X000690Y006291D01*
X000690Y006213D02*
X001324Y006213D01*
X001356Y006134D02*
X000690Y006134D01*
X000690Y006056D02*
X001418Y006056D01*
X001497Y005977D02*
X000690Y005977D01*
X000690Y005899D02*
X001666Y005899D01*
X001681Y005752D02*
X001760Y005765D01*
X001760Y005765D01*
X001760Y005295D01*
X001840Y005295D01*
X002310Y005295D01*
X002310Y005295D01*
X002297Y005374D01*
X002273Y005451D01*
X002236Y005522D01*
X002189Y005587D01*
X002132Y005644D01*
X002067Y005691D01*
X001996Y005728D01*
X001919Y005752D01*
X001840Y005765D01*
X001840Y005765D01*
X001840Y005295D01*
X001840Y005215D01*
X002310Y005215D01*
X002310Y005215D01*
X002297Y005136D01*
X002273Y005059D01*
X002236Y004988D01*
X002189Y004923D01*
X002132Y004866D01*
X002067Y004819D01*
X001996Y004782D01*
X001919Y004758D01*
X001840Y004745D01*
X001840Y004745D01*
X001840Y005215D01*
X001760Y005215D01*
X001760Y004745D01*
X001760Y004745D01*
X001681Y004758D01*
X001604Y004782D01*
X001533Y004819D01*
X001468Y004866D01*
X001411Y004923D01*
X001364Y004988D01*
X001327Y005059D01*
X001303Y005136D01*
X001290Y005215D01*
X001290Y005215D01*
X001760Y005215D01*
X001760Y005295D01*
X001290Y005295D01*
X001290Y005295D01*
X001303Y005374D01*
X001327Y005451D01*
X001364Y005522D01*
X001411Y005587D01*
X001468Y005644D01*
X001533Y005691D01*
X001604Y005728D01*
X001681Y005752D01*
X001647Y005742D02*
X000690Y005742D01*
X000690Y005820D02*
X004138Y005820D01*
X004139Y005821D02*
X004080Y005791D01*
X004026Y005752D01*
X003980Y005705D01*
X003941Y005651D01*
X003911Y005593D01*
X003890Y005530D01*
X003881Y005470D01*
X004261Y005470D01*
X004261Y005393D01*
X003881Y005393D01*
X003890Y005333D01*
X003911Y005270D01*
X003941Y005211D01*
X003980Y005158D01*
X004026Y005111D01*
X004080Y005072D01*
X004139Y005042D01*
X004202Y005022D01*
X004261Y005012D01*
X004261Y005393D01*
X004339Y005393D01*
X004339Y005470D01*
X004719Y005470D01*
X004710Y005530D01*
X004689Y005593D01*
X004659Y005651D01*
X004620Y005705D01*
X004574Y005752D01*
X004520Y005791D01*
X004461Y005821D01*
X004447Y005825D01*
X004538Y005863D01*
X004656Y005981D01*
X004720Y006135D01*
X004720Y006302D01*
X004656Y006457D01*
X004538Y006575D01*
X004384Y006639D01*
X004216Y006639D01*
X004062Y006575D01*
X003944Y006457D01*
X003880Y006302D01*
X003880Y006135D01*
X003944Y005981D01*
X004062Y005863D01*
X004153Y005825D01*
X004139Y005821D01*
X004026Y005899D02*
X001934Y005899D01*
X001953Y005742D02*
X004016Y005742D01*
X003949Y005663D02*
X002106Y005663D01*
X002191Y005585D02*
X003908Y005585D01*
X003887Y005506D02*
X002244Y005506D01*
X002280Y005428D02*
X004261Y005428D01*
X004339Y005428D02*
X026910Y005428D01*
X026910Y005506D02*
X004713Y005506D01*
X004692Y005585D02*
X026910Y005585D01*
X026910Y005663D02*
X004651Y005663D01*
X004584Y005742D02*
X026910Y005742D01*
X026910Y005820D02*
X004462Y005820D01*
X004574Y005899D02*
X026910Y005899D01*
X026910Y005977D02*
X004652Y005977D01*
X004687Y006056D02*
X026910Y006056D01*
X026910Y006134D02*
X004720Y006134D01*
X004720Y006213D02*
X026910Y006213D01*
X026910Y006291D02*
X004720Y006291D01*
X004692Y006370D02*
X026910Y006370D01*
X026910Y006448D02*
X004660Y006448D01*
X004586Y006527D02*
X026910Y006527D01*
X026910Y006605D02*
X004465Y006605D01*
X004135Y006605D02*
X002265Y006605D01*
X002298Y006527D02*
X004014Y006527D01*
X003940Y006448D02*
X002310Y006448D01*
X002310Y006370D02*
X003908Y006370D01*
X003880Y006291D02*
X002309Y006291D01*
X002276Y006213D02*
X003880Y006213D01*
X003880Y006134D02*
X002244Y006134D01*
X002182Y006056D02*
X003913Y006056D01*
X003948Y005977D02*
X002103Y005977D01*
X001840Y005742D02*
X001760Y005742D01*
X001760Y005663D02*
X001840Y005663D01*
X001840Y005585D02*
X001760Y005585D01*
X001760Y005506D02*
X001840Y005506D01*
X001840Y005428D02*
X001760Y005428D01*
X001760Y005349D02*
X001840Y005349D01*
X001840Y005271D02*
X003911Y005271D01*
X003888Y005349D02*
X002301Y005349D01*
X002306Y005192D02*
X003955Y005192D01*
X004024Y005114D02*
X002290Y005114D01*
X002260Y005035D02*
X004160Y005035D01*
X004261Y005035D02*
X004339Y005035D01*
X004339Y005012D02*
X004398Y005022D01*
X004461Y005042D01*
X004520Y005072D01*
X004574Y005111D01*
X004620Y005158D01*
X004659Y005211D01*
X004689Y005270D01*
X004710Y005333D01*
X004719Y005393D01*
X004339Y005393D01*
X004339Y005012D01*
X004339Y005114D02*
X004261Y005114D01*
X004261Y005192D02*
X004339Y005192D01*
X004339Y005271D02*
X004261Y005271D01*
X004261Y005349D02*
X004339Y005349D01*
X004576Y005114D02*
X025867Y005114D01*
X025868Y005114D02*
X025790Y004926D01*
X025790Y004724D01*
X025868Y004536D01*
X026011Y004393D01*
X026199Y004315D01*
X026401Y004315D01*
X026589Y004393D01*
X026732Y004536D01*
X026810Y004724D01*
X026810Y004926D01*
X026732Y005114D01*
X026589Y005257D01*
X026401Y005335D01*
X026199Y005335D01*
X026011Y005257D01*
X025868Y005114D01*
X025835Y005035D02*
X004440Y005035D01*
X004645Y005192D02*
X025946Y005192D01*
X026043Y005271D02*
X004689Y005271D01*
X004712Y005349D02*
X026910Y005349D01*
X026910Y005271D02*
X026557Y005271D01*
X026654Y005192D02*
X026910Y005192D01*
X026910Y005114D02*
X026733Y005114D01*
X026765Y005035D02*
X026910Y005035D01*
X026910Y004957D02*
X026798Y004957D01*
X026810Y004878D02*
X026910Y004878D01*
X026910Y004800D02*
X026810Y004800D01*
X026809Y004721D02*
X026910Y004721D01*
X026910Y004643D02*
X026776Y004643D01*
X026744Y004564D02*
X026910Y004564D01*
X026910Y004486D02*
X026682Y004486D01*
X026603Y004407D02*
X026910Y004407D01*
X026910Y004329D02*
X026434Y004329D01*
X026601Y004250D02*
X026910Y004250D01*
X026910Y004172D02*
X026791Y004172D01*
X026904Y004093D02*
X026910Y004093D01*
X026166Y004329D02*
X000690Y004329D01*
X000690Y004407D02*
X025997Y004407D01*
X025918Y004486D02*
X000690Y004486D01*
X000690Y004564D02*
X025856Y004564D01*
X025824Y004643D02*
X000690Y004643D01*
X000690Y004721D02*
X025791Y004721D01*
X025790Y004800D02*
X002029Y004800D01*
X002144Y004878D02*
X025790Y004878D01*
X025802Y004957D02*
X002214Y004957D01*
X001840Y004957D02*
X001760Y004957D01*
X001760Y005035D02*
X001840Y005035D01*
X001840Y005114D02*
X001760Y005114D01*
X001760Y005192D02*
X001840Y005192D01*
X001760Y005271D02*
X000690Y005271D01*
X000690Y005349D02*
X001299Y005349D01*
X001320Y005428D02*
X000690Y005428D01*
X000690Y005506D02*
X001356Y005506D01*
X001409Y005585D02*
X000690Y005585D01*
X000690Y005663D02*
X001494Y005663D01*
X001294Y005192D02*
X000690Y005192D01*
X000690Y005114D02*
X001310Y005114D01*
X001340Y005035D02*
X000690Y005035D01*
X000690Y004957D02*
X001386Y004957D01*
X001456Y004878D02*
X000690Y004878D01*
X000690Y004800D02*
X001571Y004800D01*
X001760Y004800D02*
X001840Y004800D01*
X001840Y004878D02*
X001760Y004878D01*
X000690Y004250D02*
X025999Y004250D01*
X025809Y004172D02*
X000690Y004172D01*
X000690Y004093D02*
X025696Y004093D01*
X025618Y004015D02*
X000690Y004015D01*
X000690Y003936D02*
X025539Y003936D01*
X025471Y003858D02*
X000690Y003858D01*
X000690Y003779D02*
X025438Y003779D01*
X025406Y003701D02*
X000690Y003701D01*
X000690Y003622D02*
X025373Y003622D01*
X025341Y003544D02*
X000690Y003544D01*
X000690Y003465D02*
X025330Y003465D01*
X025330Y003387D02*
X000690Y003387D01*
X000690Y003308D02*
X025330Y003308D01*
X025330Y003230D02*
X000690Y003230D01*
X000690Y003151D02*
X025330Y003151D01*
X025355Y003073D02*
X000690Y003073D01*
X000690Y002994D02*
X025387Y002994D01*
X025420Y002916D02*
X000690Y002916D01*
X000690Y002837D02*
X025452Y002837D01*
X025495Y002759D02*
X000690Y002759D01*
X000690Y002680D02*
X025573Y002680D01*
X025652Y002602D02*
X000690Y002602D01*
X000690Y002523D02*
X025730Y002523D01*
X025891Y002445D02*
X000690Y002445D01*
X000690Y002366D02*
X026081Y002366D01*
X026519Y002366D02*
X026789Y002366D01*
X026711Y002288D02*
X020016Y002288D01*
X020089Y002257D02*
X019901Y002335D01*
X019699Y002335D01*
X019511Y002257D01*
X019368Y002114D01*
X019300Y001951D01*
X019232Y002114D01*
X019089Y002257D01*
X018901Y002335D01*
X018699Y002335D01*
X018511Y002257D01*
X018368Y002114D01*
X018300Y001951D01*
X018232Y002114D01*
X018089Y002257D01*
X017901Y002335D01*
X017699Y002335D01*
X017511Y002257D01*
X017368Y002114D01*
X017300Y001951D01*
X017232Y002114D01*
X017089Y002257D01*
X016901Y002335D01*
X016699Y002335D01*
X016511Y002257D01*
X016368Y002114D01*
X016300Y001951D01*
X016232Y002114D01*
X016089Y002257D01*
X015901Y002335D01*
X015699Y002335D01*
X015511Y002257D01*
X015368Y002114D01*
X015300Y001951D01*
X015232Y002114D01*
X015089Y002257D01*
X014901Y002335D01*
X014699Y002335D01*
X014511Y002257D01*
X014368Y002114D01*
X014300Y001951D01*
X014232Y002114D01*
X014089Y002257D01*
X013901Y002335D01*
X013699Y002335D01*
X013511Y002257D01*
X013368Y002114D01*
X013300Y001951D01*
X013232Y002114D01*
X013089Y002257D01*
X012901Y002335D01*
X012699Y002335D01*
X012511Y002257D01*
X012368Y002114D01*
X012300Y001951D01*
X012232Y002114D01*
X012089Y002257D01*
X011901Y002335D01*
X011699Y002335D01*
X011511Y002257D01*
X011368Y002114D01*
X011300Y001951D01*
X011232Y002114D01*
X011089Y002257D01*
X010901Y002335D01*
X010699Y002335D01*
X010511Y002257D01*
X010368Y002114D01*
X010297Y001944D01*
X010297Y001944D01*
X010273Y002021D01*
X010236Y002092D01*
X010189Y002157D01*
X010132Y002214D01*
X010067Y002261D01*
X009996Y002298D01*
X009919Y002322D01*
X009840Y002335D01*
X009840Y001865D01*
X009760Y001865D01*
X009760Y002335D01*
X009760Y002335D01*
X009681Y002322D01*
X009604Y002298D01*
X009533Y002261D01*
X009468Y002214D01*
X009411Y002157D01*
X009364Y002092D01*
X009327Y002021D01*
X009303Y001944D01*
X009232Y002114D01*
X009089Y002257D01*
X008901Y002335D01*
X008699Y002335D01*
X008511Y002257D01*
X008368Y002114D01*
X008290Y001926D01*
X008290Y001724D01*
X008368Y001536D01*
X008511Y001393D01*
X008699Y001315D01*
X008901Y001315D01*
X009089Y001393D01*
X009232Y001536D01*
X009303Y001706D01*
X009303Y001706D01*
X009327Y001629D01*
X009364Y001558D01*
X009411Y001493D01*
X009468Y001436D01*
X009533Y001389D01*
X009604Y001352D01*
X009681Y001328D01*
X009760Y001315D01*
X009760Y001785D01*
X009840Y001785D01*
X009840Y001315D01*
X009840Y001315D01*
X009919Y001328D01*
X009996Y001352D01*
X010067Y001389D01*
X010132Y001436D01*
X010189Y001493D01*
X010236Y001558D01*
X010273Y001629D01*
X010297Y001706D01*
X010368Y001536D01*
X010511Y001393D01*
X010699Y001315D01*
X010901Y001315D01*
X011089Y001393D01*
X011232Y001536D01*
X011300Y001699D01*
X011368Y001536D01*
X011511Y001393D01*
X011699Y001315D01*
X011901Y001315D01*
X012089Y001393D01*
X012232Y001536D01*
X012300Y001699D01*
X012368Y001536D01*
X012511Y001393D01*
X012699Y001315D01*
X012901Y001315D01*
X013089Y001393D01*
X013232Y001536D01*
X013300Y001699D01*
X013368Y001536D01*
X013511Y001393D01*
X013699Y001315D01*
X013901Y001315D01*
X014089Y001393D01*
X014232Y001536D01*
X014300Y001699D01*
X014368Y001536D01*
X014511Y001393D01*
X014699Y001315D01*
X014901Y001315D01*
X015089Y001393D01*
X015232Y001536D01*
X015300Y001699D01*
X015368Y001536D01*
X015511Y001393D01*
X015699Y001315D01*
X015901Y001315D01*
X016089Y001393D01*
X016232Y001536D01*
X016300Y001699D01*
X016368Y001536D01*
X016511Y001393D01*
X016699Y001315D01*
X016901Y001315D01*
X017089Y001393D01*
X017232Y001536D01*
X017300Y001699D01*
X017368Y001536D01*
X017511Y001393D01*
X017699Y001315D01*
X017901Y001315D01*
X018089Y001393D01*
X018232Y001536D01*
X018300Y001699D01*
X018368Y001536D01*
X018511Y001393D01*
X018699Y001315D01*
X018901Y001315D01*
X019089Y001393D01*
X019232Y001536D01*
X019300Y001699D01*
X019368Y001536D01*
X019511Y001393D01*
X019699Y001315D01*
X019901Y001315D01*
X020089Y001393D01*
X020232Y001536D01*
X020310Y001724D01*
X020310Y001926D01*
X020232Y002114D01*
X020089Y002257D01*
X020137Y002209D02*
X026632Y002209D01*
X026554Y002131D02*
X020216Y002131D01*
X020258Y002052D02*
X026475Y002052D01*
X026397Y001974D02*
X020291Y001974D01*
X020310Y001895D02*
X026318Y001895D01*
X026240Y001817D02*
X020310Y001817D01*
X020310Y001738D02*
X026161Y001738D01*
X026083Y001660D02*
X020283Y001660D01*
X020251Y001581D02*
X026004Y001581D01*
X025951Y001503D02*
X020199Y001503D01*
X020120Y001424D02*
X025919Y001424D01*
X025910Y001346D02*
X019975Y001346D01*
X019625Y001346D02*
X018975Y001346D01*
X019120Y001424D02*
X019480Y001424D01*
X019401Y001503D02*
X019199Y001503D01*
X019251Y001581D02*
X019349Y001581D01*
X019317Y001660D02*
X019283Y001660D01*
X019291Y001974D02*
X019309Y001974D01*
X019342Y002052D02*
X019258Y002052D01*
X019216Y002131D02*
X019384Y002131D01*
X019463Y002209D02*
X019137Y002209D01*
X019016Y002288D02*
X019584Y002288D01*
X018584Y002288D02*
X018016Y002288D01*
X018137Y002209D02*
X018463Y002209D01*
X018384Y002131D02*
X018216Y002131D01*
X018258Y002052D02*
X018342Y002052D01*
X018309Y001974D02*
X018291Y001974D01*
X018283Y001660D02*
X018317Y001660D01*
X018349Y001581D02*
X018251Y001581D01*
X018199Y001503D02*
X018401Y001503D01*
X018480Y001424D02*
X018120Y001424D01*
X017975Y001346D02*
X018625Y001346D01*
X017625Y001346D02*
X016975Y001346D01*
X017120Y001424D02*
X017480Y001424D01*
X017401Y001503D02*
X017199Y001503D01*
X017251Y001581D02*
X017349Y001581D01*
X017317Y001660D02*
X017283Y001660D01*
X017291Y001974D02*
X017309Y001974D01*
X017342Y002052D02*
X017258Y002052D01*
X017216Y002131D02*
X017384Y002131D01*
X017463Y002209D02*
X017137Y002209D01*
X017016Y002288D02*
X017584Y002288D01*
X016584Y002288D02*
X016016Y002288D01*
X016137Y002209D02*
X016463Y002209D01*
X016384Y002131D02*
X016216Y002131D01*
X016258Y002052D02*
X016342Y002052D01*
X016309Y001974D02*
X016291Y001974D01*
X016283Y001660D02*
X016317Y001660D01*
X016349Y001581D02*
X016251Y001581D01*
X016199Y001503D02*
X016401Y001503D01*
X016480Y001424D02*
X016120Y001424D01*
X015975Y001346D02*
X016625Y001346D01*
X015625Y001346D02*
X014975Y001346D01*
X015120Y001424D02*
X015480Y001424D01*
X015401Y001503D02*
X015199Y001503D01*
X015251Y001581D02*
X015349Y001581D01*
X015317Y001660D02*
X015283Y001660D01*
X015291Y001974D02*
X015309Y001974D01*
X015342Y002052D02*
X015258Y002052D01*
X015216Y002131D02*
X015384Y002131D01*
X015463Y002209D02*
X015137Y002209D01*
X015016Y002288D02*
X015584Y002288D01*
X014584Y002288D02*
X014016Y002288D01*
X014137Y002209D02*
X014463Y002209D01*
X014384Y002131D02*
X014216Y002131D01*
X014258Y002052D02*
X014342Y002052D01*
X014309Y001974D02*
X014291Y001974D01*
X014283Y001660D02*
X014317Y001660D01*
X014349Y001581D02*
X014251Y001581D01*
X014199Y001503D02*
X014401Y001503D01*
X014480Y001424D02*
X014120Y001424D01*
X013975Y001346D02*
X014625Y001346D01*
X013625Y001346D02*
X012975Y001346D01*
X013120Y001424D02*
X013480Y001424D01*
X013401Y001503D02*
X013199Y001503D01*
X013251Y001581D02*
X013349Y001581D01*
X013317Y001660D02*
X013283Y001660D01*
X013291Y001974D02*
X013309Y001974D01*
X013342Y002052D02*
X013258Y002052D01*
X013216Y002131D02*
X013384Y002131D01*
X013463Y002209D02*
X013137Y002209D01*
X013016Y002288D02*
X013584Y002288D01*
X012584Y002288D02*
X012016Y002288D01*
X012137Y002209D02*
X012463Y002209D01*
X012384Y002131D02*
X012216Y002131D01*
X012258Y002052D02*
X012342Y002052D01*
X012309Y001974D02*
X012291Y001974D01*
X012283Y001660D02*
X012317Y001660D01*
X012349Y001581D02*
X012251Y001581D01*
X012199Y001503D02*
X012401Y001503D01*
X012480Y001424D02*
X012120Y001424D01*
X011975Y001346D02*
X012625Y001346D01*
X011625Y001346D02*
X010975Y001346D01*
X011120Y001424D02*
X011480Y001424D01*
X011401Y001503D02*
X011199Y001503D01*
X011251Y001581D02*
X011349Y001581D01*
X011317Y001660D02*
X011283Y001660D01*
X011291Y001974D02*
X011309Y001974D01*
X011342Y002052D02*
X011258Y002052D01*
X011216Y002131D02*
X011384Y002131D01*
X011463Y002209D02*
X011137Y002209D01*
X011016Y002288D02*
X011584Y002288D01*
X010584Y002288D02*
X010016Y002288D01*
X010137Y002209D02*
X010463Y002209D01*
X010384Y002131D02*
X010208Y002131D01*
X010257Y002052D02*
X010342Y002052D01*
X010309Y001974D02*
X010288Y001974D01*
X010297Y001706D02*
X010297Y001706D01*
X010282Y001660D02*
X010317Y001660D01*
X010349Y001581D02*
X010248Y001581D01*
X010196Y001503D02*
X010401Y001503D01*
X010480Y001424D02*
X010116Y001424D01*
X009975Y001346D02*
X010625Y001346D01*
X009840Y001346D02*
X009760Y001346D01*
X009760Y001315D02*
X009760Y001315D01*
X009760Y001424D02*
X009840Y001424D01*
X009840Y001503D02*
X009760Y001503D01*
X009760Y001581D02*
X009840Y001581D01*
X009840Y001660D02*
X009760Y001660D01*
X009760Y001738D02*
X009840Y001738D01*
X009840Y001895D02*
X009760Y001895D01*
X009760Y001974D02*
X009840Y001974D01*
X009840Y002052D02*
X009760Y002052D01*
X009760Y002131D02*
X009840Y002131D01*
X009840Y002209D02*
X009760Y002209D01*
X009760Y002288D02*
X009840Y002288D01*
X009840Y002335D02*
X009840Y002335D01*
X009584Y002288D02*
X009016Y002288D01*
X009137Y002209D02*
X009463Y002209D01*
X009392Y002131D02*
X009216Y002131D01*
X009258Y002052D02*
X009343Y002052D01*
X009312Y001974D02*
X009291Y001974D01*
X009303Y001944D02*
X009303Y001944D01*
X009283Y001660D02*
X009318Y001660D01*
X009352Y001581D02*
X009251Y001581D01*
X009199Y001503D02*
X009404Y001503D01*
X009484Y001424D02*
X009120Y001424D01*
X008975Y001346D02*
X009625Y001346D01*
X008625Y001346D02*
X006770Y001346D01*
X006770Y001424D02*
X008480Y001424D01*
X008401Y001503D02*
X006770Y001503D01*
X006744Y001581D02*
X008349Y001581D01*
X008317Y001660D02*
X006711Y001660D01*
X006679Y001738D02*
X008290Y001738D01*
X008290Y001817D02*
X006646Y001817D01*
X006602Y001895D02*
X008290Y001895D01*
X008309Y001974D02*
X006523Y001974D01*
X006445Y002052D02*
X008342Y002052D01*
X008384Y002131D02*
X006366Y002131D01*
X006200Y002209D02*
X008463Y002209D01*
X008584Y002288D02*
X006011Y002288D01*
X005589Y002288D02*
X000690Y002288D01*
X000690Y002209D02*
X005400Y002209D01*
X005234Y002131D02*
X000690Y002131D01*
X000690Y002052D02*
X005155Y002052D01*
X005077Y001974D02*
X000690Y001974D01*
X000690Y001895D02*
X004998Y001895D01*
X004954Y001817D02*
X000690Y001817D01*
X000690Y001738D02*
X004921Y001738D01*
X004889Y001660D02*
X000690Y001660D01*
X000690Y001581D02*
X004856Y001581D01*
X004830Y001503D02*
X000690Y001503D01*
X000690Y001424D02*
X004830Y001424D01*
X004830Y001346D02*
X000690Y001346D01*
X000690Y001267D02*
X004830Y001267D01*
X004830Y001189D02*
X000690Y001189D01*
X000690Y001110D02*
X004839Y001110D01*
X004872Y001032D02*
X000690Y001032D01*
X000690Y000953D02*
X004904Y000953D01*
X004937Y000875D02*
X000690Y000875D01*
X000690Y000796D02*
X004969Y000796D01*
X005036Y000718D02*
X000690Y000718D01*
X006564Y000718D02*
X025910Y000718D01*
X025910Y000796D02*
X006631Y000796D01*
X006663Y000875D02*
X025910Y000875D01*
X025910Y000953D02*
X006696Y000953D01*
X006728Y001032D02*
X025910Y001032D01*
X025910Y001110D02*
X006761Y001110D01*
X006770Y001189D02*
X025910Y001189D01*
X025910Y001267D02*
X006770Y001267D01*
X002233Y006684D02*
X026910Y006684D01*
X026910Y006762D02*
X002154Y006762D01*
X002057Y006841D02*
X026910Y006841D01*
X026910Y007940D02*
X026798Y007940D01*
X026774Y008018D02*
X026910Y008018D01*
X026910Y008097D02*
X026733Y008097D01*
X026671Y008175D02*
X026910Y008175D01*
X026910Y008254D02*
X026578Y008254D01*
X026359Y008332D02*
X026910Y008332D01*
X026910Y008411D02*
X020107Y008411D01*
X020185Y008489D02*
X026910Y008489D01*
X026910Y008568D02*
X020245Y008568D01*
X020278Y008646D02*
X026910Y008646D01*
X026910Y008725D02*
X020310Y008725D01*
X020310Y008803D02*
X026910Y008803D01*
X026340Y008332D02*
X026260Y008332D01*
X026241Y008332D02*
X019943Y008332D01*
X019657Y008332D02*
X018943Y008332D01*
X019107Y008411D02*
X019493Y008411D01*
X019415Y008489D02*
X019185Y008489D01*
X019245Y008568D02*
X019355Y008568D01*
X019322Y008646D02*
X019278Y008646D01*
X019296Y008960D02*
X019304Y008960D01*
X019336Y009039D02*
X019264Y009039D01*
X019229Y009117D02*
X019371Y009117D01*
X019449Y009196D02*
X019151Y009196D01*
X019049Y009274D02*
X019551Y009274D01*
X018551Y009274D02*
X018049Y009274D01*
X018151Y009196D02*
X018449Y009196D01*
X018371Y009117D02*
X018229Y009117D01*
X018264Y009039D02*
X018336Y009039D01*
X018304Y008960D02*
X018296Y008960D01*
X018278Y008646D02*
X018322Y008646D01*
X018355Y008568D02*
X018245Y008568D01*
X018185Y008489D02*
X018415Y008489D01*
X018493Y008411D02*
X018107Y008411D01*
X017943Y008332D02*
X018657Y008332D01*
X017657Y008332D02*
X016943Y008332D01*
X017107Y008411D02*
X017493Y008411D01*
X017415Y008489D02*
X017185Y008489D01*
X017245Y008568D02*
X017355Y008568D01*
X017322Y008646D02*
X017278Y008646D01*
X017296Y008960D02*
X017304Y008960D01*
X017336Y009039D02*
X017264Y009039D01*
X017229Y009117D02*
X017371Y009117D01*
X017449Y009196D02*
X017151Y009196D01*
X017049Y009274D02*
X017551Y009274D01*
X016551Y009274D02*
X016049Y009274D01*
X016151Y009196D02*
X016449Y009196D01*
X016371Y009117D02*
X016229Y009117D01*
X016264Y009039D02*
X016336Y009039D01*
X016304Y008960D02*
X016296Y008960D01*
X016278Y008646D02*
X016322Y008646D01*
X016355Y008568D02*
X016245Y008568D01*
X016185Y008489D02*
X016415Y008489D01*
X016493Y008411D02*
X016107Y008411D01*
X015943Y008332D02*
X016657Y008332D01*
X015657Y008332D02*
X014943Y008332D01*
X015107Y008411D02*
X015493Y008411D01*
X015415Y008489D02*
X015185Y008489D01*
X015245Y008568D02*
X015355Y008568D01*
X015322Y008646D02*
X015278Y008646D01*
X015296Y008960D02*
X015304Y008960D01*
X015336Y009039D02*
X015264Y009039D01*
X015229Y009117D02*
X015371Y009117D01*
X015449Y009196D02*
X015151Y009196D01*
X015049Y009274D02*
X015551Y009274D01*
X014551Y009274D02*
X014049Y009274D01*
X014151Y009196D02*
X014449Y009196D01*
X014371Y009117D02*
X014229Y009117D01*
X014264Y009039D02*
X014336Y009039D01*
X014304Y008960D02*
X014296Y008960D01*
X014278Y008646D02*
X014322Y008646D01*
X014355Y008568D02*
X014245Y008568D01*
X014185Y008489D02*
X014415Y008489D01*
X014493Y008411D02*
X014107Y008411D01*
X013943Y008332D02*
X014657Y008332D01*
X013657Y008332D02*
X012943Y008332D01*
X013107Y008411D02*
X013493Y008411D01*
X013415Y008489D02*
X013185Y008489D01*
X013245Y008568D02*
X013355Y008568D01*
X013322Y008646D02*
X013278Y008646D01*
X013296Y008960D02*
X013304Y008960D01*
X013336Y009039D02*
X013264Y009039D01*
X013229Y009117D02*
X013371Y009117D01*
X013449Y009196D02*
X013151Y009196D01*
X013049Y009274D02*
X013551Y009274D01*
X012551Y009274D02*
X012042Y009274D01*
X012151Y009196D02*
X012449Y009196D01*
X012371Y009117D02*
X012218Y009117D01*
X012264Y009039D02*
X012336Y009039D01*
X012304Y008960D02*
X012292Y008960D01*
X012297Y008706D02*
X012297Y008706D01*
X012278Y008646D02*
X012322Y008646D01*
X012355Y008568D02*
X012241Y008568D01*
X012185Y008489D02*
X012415Y008489D01*
X012493Y008411D02*
X012097Y008411D01*
X011933Y008332D02*
X012657Y008332D01*
X011840Y008332D02*
X011760Y008332D01*
X011760Y008315D02*
X011760Y008315D01*
X011667Y008332D02*
X010943Y008332D01*
X011107Y008411D02*
X011503Y008411D01*
X011415Y008489D02*
X011185Y008489D01*
X011245Y008568D02*
X011359Y008568D01*
X011322Y008646D02*
X011278Y008646D01*
X011303Y008944D02*
X011303Y008944D01*
X011308Y008960D02*
X011296Y008960D01*
X011264Y009039D02*
X011336Y009039D01*
X011382Y009117D02*
X011229Y009117D01*
X011151Y009196D02*
X011449Y009196D01*
X011558Y009274D02*
X011049Y009274D01*
X010551Y009274D02*
X010049Y009274D01*
X010151Y009196D02*
X010449Y009196D01*
X010371Y009117D02*
X010229Y009117D01*
X010264Y009039D02*
X010336Y009039D01*
X010304Y008960D02*
X010296Y008960D01*
X010278Y008646D02*
X010322Y008646D01*
X010355Y008568D02*
X010245Y008568D01*
X010185Y008489D02*
X010415Y008489D01*
X010493Y008411D02*
X010107Y008411D01*
X009943Y008332D02*
X010657Y008332D01*
X009657Y008332D02*
X008943Y008332D01*
X009107Y008411D02*
X009493Y008411D01*
X009415Y008489D02*
X009185Y008489D01*
X009245Y008568D02*
X009355Y008568D01*
X009322Y008646D02*
X009278Y008646D01*
X009296Y008960D02*
X009304Y008960D01*
X009336Y009039D02*
X009264Y009039D01*
X009229Y009117D02*
X009371Y009117D01*
X009449Y009196D02*
X009151Y009196D01*
X009049Y009274D02*
X009551Y009274D01*
X008551Y009274D02*
X000690Y009274D01*
X000690Y009196D02*
X008449Y009196D01*
X008371Y009117D02*
X000690Y009117D01*
X000690Y009039D02*
X008336Y009039D01*
X011760Y009039D02*
X011840Y009039D01*
X011840Y009117D02*
X011760Y009117D01*
X011760Y009196D02*
X011840Y009196D01*
X011840Y009274D02*
X011760Y009274D01*
X011840Y009335D02*
X011840Y009335D01*
X011840Y008960D02*
X011760Y008960D01*
X011760Y008882D02*
X011840Y008882D01*
X011840Y008725D02*
X011760Y008725D01*
X011760Y008646D02*
X011840Y008646D01*
X011840Y008568D02*
X011760Y008568D01*
X011760Y008489D02*
X011840Y008489D01*
X011840Y008411D02*
X011760Y008411D01*
X001958Y009510D02*
X000690Y009510D01*
X000690Y009588D02*
X001899Y009588D01*
X001863Y009667D02*
X000690Y009667D01*
X000690Y009745D02*
X001842Y009745D01*
X014760Y018930D02*
X014945Y018930D01*
X015063Y019008D02*
X014760Y019008D01*
X014743Y019087D02*
X015320Y019087D01*
X015337Y019008D02*
X015395Y019008D01*
X015241Y019165D02*
X014711Y019165D01*
X014641Y019244D02*
X015163Y019244D01*
X014844Y019322D02*
X014503Y019322D01*
X022492Y019087D02*
X023108Y019087D01*
X023039Y019115D02*
X023208Y019045D01*
X023391Y019045D01*
X023561Y019115D01*
X023690Y019244D01*
X023760Y019413D01*
X023760Y020236D01*
X023690Y020406D01*
X023561Y020535D01*
X023391Y020605D01*
X023208Y020605D01*
X023039Y020535D01*
X022910Y020406D01*
X022840Y020236D01*
X022840Y019413D01*
X022910Y019244D01*
X023039Y019115D01*
X022989Y019165D02*
X022611Y019165D01*
X022689Y019244D02*
X022911Y019244D01*
X022878Y019322D02*
X022722Y019322D01*
X022755Y019401D02*
X022845Y019401D01*
X022840Y019479D02*
X022760Y019479D01*
X022760Y019558D02*
X022840Y019558D01*
X022840Y019636D02*
X022760Y019636D01*
X022760Y019715D02*
X022840Y019715D01*
X022840Y019793D02*
X022760Y019793D01*
X022760Y019872D02*
X022840Y019872D01*
X022840Y019950D02*
X022760Y019950D01*
X022760Y020029D02*
X022840Y020029D01*
X022840Y020107D02*
X022760Y020107D01*
X022760Y020186D02*
X022840Y020186D01*
X022851Y020264D02*
X022749Y020264D01*
X022716Y020343D02*
X022884Y020343D01*
X022926Y020421D02*
X022674Y020421D01*
X022596Y020500D02*
X023004Y020500D01*
X023143Y020578D02*
X022457Y020578D01*
X023457Y020578D02*
X024144Y020578D01*
X024123Y020571D02*
X024059Y020538D01*
X024000Y020496D01*
X023949Y020445D01*
X023907Y020386D01*
X023874Y020322D01*
X023851Y020253D01*
X023840Y020181D01*
X023840Y019865D01*
X024260Y019865D01*
X024260Y020604D01*
X024192Y020594D01*
X024123Y020571D01*
X024260Y020578D02*
X024340Y020578D01*
X024340Y020604D02*
X024340Y019865D01*
X024260Y019865D01*
X024260Y019785D01*
X023840Y019785D01*
X023840Y019469D01*
X023851Y019397D01*
X023874Y019328D01*
X023907Y019264D01*
X023949Y019205D01*
X024000Y019154D01*
X024059Y019112D01*
X024123Y019079D01*
X024192Y019056D01*
X024260Y019046D01*
X024260Y019785D01*
X024340Y019785D01*
X024340Y019865D01*
X024760Y019865D01*
X024760Y020181D01*
X024749Y020253D01*
X024726Y020322D01*
X024693Y020386D01*
X024651Y020445D01*
X024600Y020496D01*
X024541Y020538D01*
X024477Y020571D01*
X024408Y020594D01*
X024340Y020604D01*
X024340Y020500D02*
X024260Y020500D01*
X024260Y020421D02*
X024340Y020421D01*
X024340Y020343D02*
X024260Y020343D01*
X024260Y020264D02*
X024340Y020264D01*
X024340Y020186D02*
X024260Y020186D01*
X024260Y020107D02*
X024340Y020107D01*
X024340Y020029D02*
X024260Y020029D01*
X024260Y019950D02*
X024340Y019950D01*
X024340Y019872D02*
X024260Y019872D01*
X024260Y019793D02*
X023760Y019793D01*
X023760Y019715D02*
X023840Y019715D01*
X023840Y019636D02*
X023760Y019636D01*
X023760Y019558D02*
X023840Y019558D01*
X023840Y019479D02*
X023760Y019479D01*
X023755Y019401D02*
X023851Y019401D01*
X023877Y019322D02*
X023722Y019322D01*
X023689Y019244D02*
X023921Y019244D01*
X023989Y019165D02*
X023611Y019165D01*
X023492Y019087D02*
X024108Y019087D01*
X024260Y019087D02*
X024340Y019087D01*
X024340Y019046D02*
X024408Y019056D01*
X024477Y019079D01*
X024541Y019112D01*
X024600Y019154D01*
X024651Y019205D01*
X024693Y019264D01*
X024726Y019328D01*
X024749Y019397D01*
X024760Y019469D01*
X024760Y019785D01*
X024340Y019785D01*
X024340Y019046D01*
X024340Y019165D02*
X024260Y019165D01*
X024260Y019244D02*
X024340Y019244D01*
X024340Y019322D02*
X024260Y019322D01*
X024260Y019401D02*
X024340Y019401D01*
X024340Y019479D02*
X024260Y019479D01*
X024260Y019558D02*
X024340Y019558D01*
X024340Y019636D02*
X024260Y019636D01*
X024260Y019715D02*
X024340Y019715D01*
X024340Y019793D02*
X025910Y019793D01*
X025910Y019715D02*
X024760Y019715D01*
X024760Y019636D02*
X025910Y019636D01*
X025910Y019558D02*
X024760Y019558D01*
X024760Y019479D02*
X025910Y019479D01*
X025910Y019401D02*
X024749Y019401D01*
X024723Y019322D02*
X025910Y019322D01*
X025910Y019244D02*
X024679Y019244D01*
X024611Y019165D02*
X025910Y019165D01*
X025910Y019087D02*
X024492Y019087D01*
X024760Y019872D02*
X025910Y019872D01*
X025910Y019950D02*
X024760Y019950D01*
X024760Y020029D02*
X025910Y020029D01*
X025910Y020107D02*
X024760Y020107D01*
X024759Y020186D02*
X025910Y020186D01*
X025910Y020264D02*
X024745Y020264D01*
X024716Y020343D02*
X025910Y020343D01*
X025910Y020421D02*
X024668Y020421D01*
X024595Y020500D02*
X025910Y020500D01*
X025895Y020578D02*
X024456Y020578D01*
X024005Y020500D02*
X023596Y020500D01*
X023674Y020421D02*
X023932Y020421D01*
X023884Y020343D02*
X023716Y020343D01*
X023749Y020264D02*
X023855Y020264D01*
X023841Y020186D02*
X023760Y020186D01*
X023760Y020107D02*
X023840Y020107D01*
X023840Y020029D02*
X023760Y020029D01*
X023760Y019950D02*
X023840Y019950D01*
X023840Y019872D02*
X023760Y019872D01*
X026625Y015240D02*
X026733Y015240D01*
X026860Y013513D02*
X026910Y013513D01*
X026910Y013435D02*
X026685Y013435D01*
X026340Y008254D02*
X026260Y008254D01*
X026260Y008175D02*
X026340Y008175D01*
X026340Y008097D02*
X026260Y008097D01*
X026260Y008018D02*
X026340Y008018D01*
X026340Y007940D02*
X026260Y007940D01*
X026870Y002523D02*
X026910Y002523D01*
X026868Y002445D02*
X026709Y002445D01*
D17*
X005800Y010825D02*
X005740Y010885D01*
X002380Y010885D02*
X002300Y010825D01*
X014400Y018975D02*
X014700Y018675D01*
X014950Y018675D01*
X015000Y018725D01*
X015150Y018725D01*
X015200Y018675D01*
X015750Y018925D02*
X015050Y019625D01*
D18*
X015050Y019625D03*
X014400Y018975D03*
X015200Y018675D03*
X015750Y018925D03*
M02*
