G75*
G70*
%OFA0B0*%
%FSLAX24Y24*%
%IPPOS*%
%LPD*%
%AMOC8*
5,1,8,0,0,1.08239X$1,22.5*
%
%ADD10C,0.0110*%
D10*
X011050Y003478D02*
X011149Y003380D01*
X011346Y003380D01*
X011444Y003478D01*
X011444Y003675D02*
X011247Y003774D01*
X011149Y003774D01*
X011050Y003675D01*
X011050Y003478D01*
X011444Y003675D02*
X011444Y003971D01*
X011050Y003971D01*
X011695Y003872D02*
X011695Y003478D01*
X011793Y003380D01*
X011990Y003380D01*
X012089Y003478D01*
X011695Y003872D01*
X011793Y003971D01*
X011990Y003971D01*
X012089Y003872D01*
X012089Y003478D01*
X012339Y003675D02*
X012733Y003675D01*
X012984Y003675D02*
X013378Y003675D01*
X013082Y003971D01*
X013082Y003380D01*
X013629Y003478D02*
X013727Y003380D01*
X013924Y003380D01*
X014022Y003478D01*
X013629Y003872D01*
X013629Y003478D01*
X014022Y003478D02*
X014022Y003872D01*
X013924Y003971D01*
X013727Y003971D01*
X013629Y003872D01*
X014273Y003675D02*
X014667Y003675D01*
X014918Y003577D02*
X014918Y003478D01*
X015016Y003380D01*
X015213Y003380D01*
X015311Y003478D01*
X015562Y003380D02*
X015956Y003380D01*
X015759Y003380D02*
X015759Y003971D01*
X015956Y003774D01*
X016207Y003872D02*
X016600Y003478D01*
X016502Y003380D01*
X016305Y003380D01*
X016207Y003478D01*
X016207Y003872D01*
X016305Y003971D01*
X016502Y003971D01*
X016600Y003872D01*
X016600Y003478D01*
X016851Y003380D02*
X017245Y003380D01*
X016851Y003774D01*
X016851Y003872D01*
X016950Y003971D01*
X017147Y003971D01*
X017245Y003872D01*
X017048Y004430D02*
X016851Y004824D01*
X016600Y004922D02*
X016600Y004528D01*
X016207Y004922D01*
X016207Y004528D01*
X016305Y004430D01*
X016502Y004430D01*
X016600Y004528D01*
X015956Y004528D02*
X015857Y004528D01*
X015857Y004430D01*
X015956Y004430D01*
X015956Y004528D01*
X015634Y004430D02*
X015240Y004430D01*
X015437Y004430D02*
X015437Y005021D01*
X015634Y004824D01*
X016207Y004922D02*
X016305Y005021D01*
X016502Y005021D01*
X016600Y004922D01*
X016600Y005480D02*
X016404Y005480D01*
X016502Y005480D02*
X016502Y006071D01*
X016600Y006071D02*
X016404Y006071D01*
X016171Y006071D02*
X015875Y006071D01*
X015777Y005972D01*
X015777Y005775D01*
X015875Y005677D01*
X016171Y005677D01*
X016171Y005480D02*
X016171Y006071D01*
X016600Y006333D02*
X016600Y006924D01*
X016305Y006924D01*
X016207Y006825D01*
X016207Y006628D01*
X016305Y006530D01*
X016600Y006530D01*
X016851Y006628D02*
X016851Y006727D01*
X016950Y006825D01*
X017147Y006825D01*
X017245Y006924D01*
X017245Y007022D01*
X017147Y007121D01*
X016950Y007121D01*
X016851Y007022D01*
X016851Y006628D02*
X016950Y006530D01*
X017147Y006530D01*
X017245Y006628D01*
X017245Y006071D02*
X016950Y006071D01*
X016851Y005972D01*
X016851Y005775D01*
X016950Y005677D01*
X017245Y005677D01*
X017245Y005480D02*
X017245Y006071D01*
X015974Y005677D02*
X015777Y005480D01*
X014882Y005578D02*
X014783Y005480D01*
X014586Y005480D01*
X014488Y005578D01*
X014488Y005677D01*
X014586Y005775D01*
X014783Y005775D01*
X014882Y005874D01*
X014882Y005972D01*
X014783Y006071D01*
X014586Y006071D01*
X014488Y005972D01*
X014237Y006071D02*
X014237Y005480D01*
X013843Y005480D02*
X013843Y005775D01*
X013942Y005874D01*
X014139Y005874D01*
X014237Y005775D01*
X013593Y005874D02*
X013494Y005874D01*
X013494Y005480D01*
X013396Y005480D02*
X013593Y005480D01*
X013163Y005578D02*
X013163Y005775D01*
X013064Y005874D01*
X012868Y005874D01*
X012769Y005775D01*
X012769Y005677D01*
X013163Y005677D01*
X013163Y005578D02*
X013064Y005480D01*
X012868Y005480D01*
X012518Y005480D02*
X012321Y005480D01*
X012420Y005480D02*
X012420Y006071D01*
X012518Y006071D01*
X012089Y005775D02*
X011990Y005874D01*
X011695Y005874D01*
X011695Y006071D02*
X011695Y005480D01*
X011990Y005480D01*
X012089Y005578D01*
X012089Y005775D01*
X013494Y006071D02*
X013494Y006169D01*
X014479Y006530D02*
X014774Y006727D01*
X014479Y006924D01*
X014774Y007121D02*
X014774Y006530D01*
X015115Y006924D02*
X015311Y006727D01*
X015311Y006530D02*
X015311Y006924D01*
X015115Y006924D02*
X015016Y006924D01*
X015562Y006825D02*
X015562Y006530D01*
X015857Y006530D01*
X015956Y006628D01*
X015857Y006727D01*
X015562Y006727D01*
X015562Y006825D02*
X015661Y006924D01*
X015857Y006924D01*
X017245Y004824D02*
X017048Y004430D01*
X015311Y003872D02*
X015213Y003971D01*
X015016Y003971D01*
X014918Y003872D01*
X014918Y003774D01*
X015016Y003675D01*
X014918Y003577D01*
X015016Y003675D02*
X015115Y003675D01*
M02*
