G75*
%MOIN*%
%OFA0B0*%
%FSLAX25Y25*%
%IPPOS*%
%LPD*%
%AMOC8*
5,1,8,0,0,1.08239X$1,22.5*
%
%ADD10R,0.05906X0.03937*%
%ADD11R,0.03937X0.05906*%
%ADD12R,0.04331X0.03937*%
%ADD13R,0.03937X0.04331*%
%ADD14R,0.03750X0.01181*%
%ADD15R,0.01181X0.03350*%
D10*
G36*
X0041041Y0061356D02*
X0038088Y0066470D01*
X0041495Y0068438D01*
X0044448Y0063324D01*
X0041041Y0061356D01*
G37*
G36*
X0051951Y0067655D02*
X0048998Y0072769D01*
X0052405Y0074737D01*
X0055358Y0069623D01*
X0051951Y0067655D01*
G37*
G36*
X0042305Y0084362D02*
X0039352Y0089476D01*
X0042759Y0091444D01*
X0045712Y0086330D01*
X0042305Y0084362D01*
G37*
G36*
X0031395Y0078063D02*
X0028442Y0083177D01*
X0031849Y0085145D01*
X0034802Y0080031D01*
X0031395Y0078063D01*
G37*
G36*
X0077769Y0043998D02*
X0072655Y0046951D01*
X0074623Y0050358D01*
X0079737Y0047405D01*
X0077769Y0043998D01*
G37*
G36*
X0071470Y0033088D02*
X0066356Y0036041D01*
X0068324Y0039448D01*
X0073438Y0036495D01*
X0071470Y0033088D01*
G37*
G36*
X0088177Y0023442D02*
X0083063Y0026395D01*
X0085031Y0029802D01*
X0090145Y0026849D01*
X0088177Y0023442D01*
G37*
G36*
X0094476Y0034352D02*
X0089362Y0037305D01*
X0091330Y0040712D01*
X0096444Y0037759D01*
X0094476Y0034352D01*
G37*
X0126754Y0027699D03*
X0126754Y0015101D03*
X0146046Y0015101D03*
X0146046Y0027699D03*
G36*
X0182938Y0036805D02*
X0177824Y0033852D01*
X0175856Y0037259D01*
X0180970Y0040212D01*
X0182938Y0036805D01*
G37*
G36*
X0199645Y0046451D02*
X0194531Y0043498D01*
X0192563Y0046905D01*
X0197677Y0049858D01*
X0199645Y0046451D01*
G37*
G36*
X0205944Y0035541D02*
X0200830Y0032588D01*
X0198862Y0035995D01*
X0203976Y0038948D01*
X0205944Y0035541D01*
G37*
G36*
X0189237Y0025895D02*
X0184123Y0022942D01*
X0182155Y0026349D01*
X0187269Y0029302D01*
X0189237Y0025895D01*
G37*
G36*
X0234712Y0066470D02*
X0231759Y0061356D01*
X0228352Y0063324D01*
X0231305Y0068438D01*
X0234712Y0066470D01*
G37*
G36*
X0223802Y0072769D02*
X0220849Y0067655D01*
X0217442Y0069623D01*
X0220395Y0074737D01*
X0223802Y0072769D01*
G37*
G36*
X0233448Y0089476D02*
X0230495Y0084362D01*
X0227088Y0086330D01*
X0230041Y0091444D01*
X0233448Y0089476D01*
G37*
G36*
X0244358Y0083177D02*
X0241405Y0078063D01*
X0237998Y0080031D01*
X0240951Y0085145D01*
X0244358Y0083177D01*
G37*
G36*
X0231495Y0178438D02*
X0234448Y0173324D01*
X0231041Y0171356D01*
X0228088Y0176470D01*
X0231495Y0178438D01*
G37*
G36*
X0242405Y0184737D02*
X0245358Y0179623D01*
X0241951Y0177655D01*
X0238998Y0182769D01*
X0242405Y0184737D01*
G37*
G36*
X0232759Y0201444D02*
X0235712Y0196330D01*
X0232305Y0194362D01*
X0229352Y0199476D01*
X0232759Y0201444D01*
G37*
G36*
X0221849Y0195145D02*
X0224802Y0190031D01*
X0221395Y0188063D01*
X0218442Y0193177D01*
X0221849Y0195145D01*
G37*
G36*
X0195531Y0219802D02*
X0200645Y0216849D01*
X0198677Y0213442D01*
X0193563Y0216395D01*
X0195531Y0219802D01*
G37*
G36*
X0201830Y0230712D02*
X0206944Y0227759D01*
X0204976Y0224352D01*
X0199862Y0227305D01*
X0201830Y0230712D01*
G37*
G36*
X0185123Y0240358D02*
X0190237Y0237405D01*
X0188269Y0233998D01*
X0183155Y0236951D01*
X0185123Y0240358D01*
G37*
G36*
X0178824Y0229448D02*
X0183938Y0226495D01*
X0181970Y0223088D01*
X0176856Y0226041D01*
X0178824Y0229448D01*
G37*
X0146046Y0235101D03*
X0146046Y0247699D03*
X0126754Y0247699D03*
X0126754Y0235101D03*
G36*
X0089362Y0225995D02*
X0094476Y0228948D01*
X0096444Y0225541D01*
X0091330Y0222588D01*
X0089362Y0225995D01*
G37*
G36*
X0083063Y0236905D02*
X0088177Y0239858D01*
X0090145Y0236451D01*
X0085031Y0233498D01*
X0083063Y0236905D01*
G37*
G36*
X0066356Y0227259D02*
X0071470Y0230212D01*
X0073438Y0226805D01*
X0068324Y0223852D01*
X0066356Y0227259D01*
G37*
G36*
X0072655Y0216349D02*
X0077769Y0219302D01*
X0079737Y0215895D01*
X0074623Y0212942D01*
X0072655Y0216349D01*
G37*
G36*
X0048998Y0191031D02*
X0051951Y0196145D01*
X0055358Y0194177D01*
X0052405Y0189063D01*
X0048998Y0191031D01*
G37*
G36*
X0038088Y0197330D02*
X0041041Y0202444D01*
X0044448Y0200476D01*
X0041495Y0195362D01*
X0038088Y0197330D01*
G37*
G36*
X0028442Y0180623D02*
X0031395Y0185737D01*
X0034802Y0183769D01*
X0031849Y0178655D01*
X0028442Y0180623D01*
G37*
G36*
X0039352Y0174324D02*
X0042305Y0179438D01*
X0045712Y0177470D01*
X0042759Y0172356D01*
X0039352Y0174324D01*
G37*
D11*
X0240101Y0141046D03*
X0252699Y0141046D03*
X0252699Y0121754D03*
X0240101Y0121754D03*
D12*
G36*
X0067413Y0046492D02*
X0065248Y0042744D01*
X0061841Y0044712D01*
X0064006Y0048460D01*
X0067413Y0046492D01*
G37*
G36*
X0070759Y0052288D02*
X0068594Y0048540D01*
X0065187Y0050508D01*
X0067352Y0054256D01*
X0070759Y0052288D01*
G37*
G36*
X0035260Y0091706D02*
X0031512Y0089541D01*
X0029544Y0092948D01*
X0033292Y0095113D01*
X0035260Y0091706D01*
G37*
G36*
X0041056Y0095052D02*
X0037308Y0092887D01*
X0035340Y0096294D01*
X0039088Y0098459D01*
X0041056Y0095052D01*
G37*
X0127554Y0043900D03*
X0134246Y0043900D03*
G36*
X0173648Y0035256D02*
X0175813Y0031508D01*
X0172406Y0029540D01*
X0170241Y0033288D01*
X0173648Y0035256D01*
G37*
G36*
X0176994Y0029460D02*
X0179159Y0025712D01*
X0175752Y0023744D01*
X0173587Y0027492D01*
X0176994Y0029460D01*
G37*
G36*
X0216312Y0066559D02*
X0220060Y0064394D01*
X0218092Y0060987D01*
X0214344Y0063152D01*
X0216312Y0066559D01*
G37*
G36*
X0222108Y0063213D02*
X0225856Y0061048D01*
X0223888Y0057641D01*
X0220140Y0059806D01*
X0222108Y0063213D01*
G37*
X0239954Y0113200D03*
X0246646Y0113200D03*
G36*
X0232244Y0168348D02*
X0235992Y0170513D01*
X0237960Y0167106D01*
X0234212Y0164941D01*
X0232244Y0168348D01*
G37*
G36*
X0238040Y0171694D02*
X0241788Y0173859D01*
X0243756Y0170452D01*
X0240008Y0168287D01*
X0238040Y0171694D01*
G37*
G36*
X0201841Y0211512D02*
X0204006Y0215260D01*
X0207413Y0213292D01*
X0205248Y0209544D01*
X0201841Y0211512D01*
G37*
G36*
X0205187Y0217308D02*
X0207352Y0221056D01*
X0210759Y0219088D01*
X0208594Y0215340D01*
X0205187Y0217308D01*
G37*
G36*
X0099752Y0226644D02*
X0097587Y0230392D01*
X0100994Y0232360D01*
X0103159Y0228612D01*
X0099752Y0226644D01*
G37*
G36*
X0096406Y0232440D02*
X0094241Y0236188D01*
X0097648Y0238156D01*
X0099813Y0234408D01*
X0096406Y0232440D01*
G37*
G36*
X0057188Y0196941D02*
X0053440Y0199106D01*
X0055408Y0202513D01*
X0059156Y0200348D01*
X0057188Y0196941D01*
G37*
G36*
X0051392Y0200287D02*
X0047644Y0202452D01*
X0049612Y0205859D01*
X0053360Y0203694D01*
X0051392Y0200287D01*
G37*
D13*
X0069300Y0168446D03*
X0069300Y0161754D03*
X0154400Y0235054D03*
X0154400Y0241746D03*
X0118500Y0027846D03*
X0118500Y0021154D03*
D14*
X0130785Y0052463D03*
X0130785Y0054431D03*
X0130785Y0056400D03*
X0130785Y0058369D03*
X0130785Y0060337D03*
X0142015Y0060337D03*
X0142015Y0058369D03*
X0142015Y0056400D03*
X0142015Y0054431D03*
X0142015Y0052463D03*
D15*
X0138369Y0050880D03*
X0136400Y0050880D03*
X0134431Y0050880D03*
X0134431Y0061920D03*
X0136400Y0061920D03*
X0138369Y0061920D03*
M02*
