G75*
%MOIN*%
%OFA0B0*%
%FSLAX25Y25*%
%IPPOS*%
%LPD*%
%AMOC8*
5,1,8,0,0,1.08239X$1,22.5*
%
%ADD10C,0.13300*%
%ADD11C,0.01600*%
%ADD12R,0.07099X0.10800*%
%ADD13R,0.10800X0.07099*%
%ADD14R,0.18910X0.04737*%
%ADD15R,0.14186X0.07099*%
%ADD16R,0.01981X0.02572*%
%ADD17C,0.08200*%
%ADD18R,0.13398X0.10643*%
%ADD19C,0.03950*%
%ADD20C,0.07700*%
%ADD21R,0.04700X0.08000*%
D10*
X0136400Y0131400D03*
D11*
X0025722Y0176919D02*
X0025507Y0176578D01*
X0025222Y0176293D01*
X0024881Y0176078D01*
X0024501Y0175945D01*
X0024100Y0175900D01*
X0023900Y0175900D01*
X0023499Y0175945D01*
X0023119Y0176078D01*
X0022778Y0176293D01*
X0022493Y0176578D01*
X0022278Y0176919D01*
X0022145Y0177299D01*
X0022100Y0177700D01*
X0022145Y0178101D01*
X0022278Y0178481D01*
X0022493Y0178822D01*
X0022778Y0179107D01*
X0023119Y0179322D01*
X0023499Y0179455D01*
X0023900Y0179500D01*
X0024100Y0179500D01*
X0024501Y0179455D01*
X0024881Y0179322D01*
X0025222Y0179107D01*
X0025507Y0178822D01*
X0025722Y0178481D01*
X0025855Y0178101D01*
X0025900Y0177700D01*
X0025855Y0177299D01*
X0025722Y0176919D01*
X0025833Y0177236D02*
X0022167Y0177236D01*
X0022505Y0178835D02*
X0025495Y0178835D01*
D12*
X0023957Y0160140D03*
X0043643Y0160140D03*
X0043643Y0102660D03*
X0023957Y0102660D03*
X0229757Y0102660D03*
X0249443Y0102660D03*
X0249443Y0160140D03*
X0229757Y0160140D03*
D13*
X0165040Y0224757D03*
X0165040Y0244443D03*
X0107560Y0244443D03*
X0107560Y0224757D03*
X0107660Y0038043D03*
X0107660Y0018357D03*
X0165140Y0018357D03*
X0165140Y0038043D03*
D14*
X0190967Y0127463D03*
X0190967Y0135337D03*
D15*
X0170494Y0144786D03*
X0170494Y0118014D03*
D16*
X0098369Y0141085D03*
X0094431Y0141085D03*
X0094431Y0146400D03*
X0096400Y0146400D03*
X0098369Y0146400D03*
D17*
X0091400Y0195900D03*
X0081400Y0196900D03*
X0101400Y0196900D03*
X0161400Y0136400D03*
X0161400Y0126400D03*
X0171400Y0196900D03*
X0181400Y0195900D03*
X0191400Y0196900D03*
X0023100Y0090500D03*
D18*
G36*
X0206251Y0198261D02*
X0198566Y0209235D01*
X0207283Y0215339D01*
X0214968Y0204365D01*
X0206251Y0198261D01*
G37*
G36*
X0224317Y0172461D02*
X0216632Y0183435D01*
X0225349Y0189539D01*
X0233034Y0178565D01*
X0224317Y0172461D01*
G37*
D19*
X0208303Y0177837D03*
X0214249Y0211558D03*
D20*
X0191400Y0176400D03*
X0191400Y0166400D03*
X0181400Y0166400D03*
X0181400Y0176400D03*
X0171400Y0176400D03*
X0161400Y0176400D03*
X0161400Y0166400D03*
X0171400Y0166400D03*
X0151400Y0166400D03*
X0151400Y0176400D03*
X0141400Y0176400D03*
X0131400Y0176400D03*
X0131400Y0166400D03*
X0141400Y0166400D03*
X0121400Y0166400D03*
X0121400Y0176400D03*
X0111400Y0176400D03*
X0101400Y0176400D03*
X0101400Y0166400D03*
X0111400Y0166400D03*
X0091400Y0166400D03*
X0091400Y0176400D03*
X0081400Y0176400D03*
X0081400Y0166400D03*
X0081400Y0096400D03*
X0081400Y0086400D03*
X0091400Y0086400D03*
X0091400Y0096400D03*
X0101400Y0096400D03*
X0111400Y0096400D03*
X0111400Y0086400D03*
X0101400Y0086400D03*
X0121400Y0086400D03*
X0121400Y0096400D03*
X0131400Y0096400D03*
X0141400Y0096400D03*
X0141400Y0086400D03*
X0131400Y0086400D03*
X0151400Y0086400D03*
X0151400Y0096400D03*
X0161400Y0096400D03*
X0171400Y0096400D03*
X0171400Y0086400D03*
X0161400Y0086400D03*
X0181400Y0086400D03*
X0181400Y0096400D03*
X0191400Y0096400D03*
X0191400Y0086400D03*
D21*
X0081400Y0080400D03*
X0091400Y0080400D03*
X0101400Y0080400D03*
X0111400Y0080400D03*
X0121400Y0080400D03*
X0131400Y0080400D03*
X0141400Y0080400D03*
X0151400Y0080400D03*
X0161400Y0080400D03*
X0171400Y0080400D03*
X0181400Y0080400D03*
X0191400Y0080400D03*
X0191400Y0102400D03*
X0181400Y0102400D03*
X0171400Y0102400D03*
X0161400Y0102400D03*
X0151400Y0102400D03*
X0141400Y0102400D03*
X0131400Y0102400D03*
X0121400Y0102400D03*
X0111400Y0102400D03*
X0101400Y0102400D03*
X0091400Y0102400D03*
X0081400Y0102400D03*
X0081400Y0160400D03*
X0091400Y0160400D03*
X0101400Y0160400D03*
X0111400Y0160400D03*
X0121400Y0160400D03*
X0131400Y0160400D03*
X0141400Y0160400D03*
X0151400Y0160400D03*
X0161400Y0160400D03*
X0171400Y0160400D03*
X0181400Y0160400D03*
X0191400Y0160400D03*
X0191400Y0182400D03*
X0181400Y0182400D03*
X0171400Y0182400D03*
X0161400Y0182400D03*
X0151400Y0182400D03*
X0141400Y0182400D03*
X0131400Y0182400D03*
X0121400Y0182400D03*
X0111400Y0182400D03*
X0101400Y0182400D03*
X0091400Y0182400D03*
X0081400Y0182400D03*
M02*
