%
M48
M72
T01C0.01600
T02C0.03150
T03C0.04000
T04C0.12500
%
T01
X60400Y48000
X68800Y43200
X34800Y88000
X30800Y97700
X26800Y141400
X61000Y174500
X48200Y199000
X52800Y207200
X92800Y232800
X101200Y237600
X149600Y241800
X203800Y220600
X212200Y215800
X238600Y175400
X243200Y167000
X206400Y151400
X246600Y118000
X225400Y64800
X220600Y56200
X180600Y29000
X172200Y24200
X166400Y56400
X148700Y67200
X137500Y67200
X137600Y72700
X136680Y55255
X127600Y48800
X121600Y42600
X124900Y56300
X140900Y44900
X123400Y21400
X98400Y136400
T02
X208303Y177837
X214249Y211558
T03
X191400Y196900
X181400Y195900
X171400Y196900
X171400Y176400
X161400Y176400
X161400Y166400
X171400Y166400
X181400Y166400
X181400Y176400
X191400Y176400
X191400Y166400
X161400Y136400
X161400Y126400
X161400Y96400
X171400Y96400
X171400Y86400
X161400Y86400
X151400Y86400
X151400Y96400
X141400Y96400
X131400Y96400
X131400Y86400
X141400Y86400
X121400Y86400
X121400Y96400
X111400Y96400
X101400Y96400
X101400Y86400
X111400Y86400
X91400Y86400
X91400Y96400
X81400Y96400
X81400Y86400
X23100Y90500
X81400Y166400
X81400Y176400
X91400Y176400
X91400Y166400
X101400Y166400
X111400Y166400
X111400Y176400
X101400Y176400
X121400Y176400
X121400Y166400
X131400Y166400
X141400Y166400
X141400Y176400
X131400Y176400
X151400Y176400
X151400Y166400
X101400Y196900
X91400Y195900
X81400Y196900
X181400Y96400
X181400Y86400
X191400Y86400
X191400Y96400
T04
X136400Y131400
M30
