G75*
%MOIN*%
%OFA0B0*%
%FSLAX25Y25*%
%IPPOS*%
%LPD*%
%AMOC8*
5,1,8,0,0,1.08239X$1,22.5*
%
%ADD10C,0.05937*%
%ADD11C,0.05500*%
%ADD12C,0.04756*%
%ADD13C,0.02900*%
%ADD14C,0.16598*%
%ADD15C,0.00600*%
%ADD16C,0.02400*%
%ADD17C,0.01200*%
D10*
X0270863Y0185293D03*
X0284642Y0185293D03*
D11*
X0238934Y0149128D03*
X0228934Y0149128D03*
X0218934Y0149128D03*
X0208934Y0149128D03*
X0198934Y0149128D03*
X0188934Y0149128D03*
X0178934Y0149128D03*
X0168934Y0149128D03*
X0158934Y0149128D03*
X0148934Y0149128D03*
X0138934Y0149128D03*
X0128934Y0149128D03*
X0118934Y0149128D03*
X0108934Y0149128D03*
X0098934Y0149128D03*
X0088934Y0149128D03*
X0078934Y0149128D03*
X0068934Y0149128D03*
X0068934Y0109128D03*
X0078934Y0109128D03*
X0088934Y0109128D03*
X0098934Y0109128D03*
X0108934Y0109128D03*
X0118934Y0109128D03*
X0128934Y0109128D03*
X0138934Y0109128D03*
X0148934Y0109128D03*
X0158934Y0109128D03*
X0168934Y0109128D03*
X0178934Y0109128D03*
X0188934Y0109128D03*
X0198934Y0109128D03*
X0208934Y0109128D03*
X0218934Y0109128D03*
X0228934Y0109128D03*
X0238934Y0109128D03*
D12*
X0041926Y0112529D03*
X0041926Y0104655D03*
X0041926Y0096781D03*
X0041926Y0120403D03*
X0041926Y0137600D03*
X0041926Y0145474D03*
X0041926Y0153348D03*
X0041926Y0161222D03*
D13*
X0034918Y0153293D03*
X0034918Y0173293D03*
X0054918Y0173293D03*
X0054918Y0193293D03*
X0064918Y0193293D03*
X0074918Y0193293D03*
X0084918Y0193293D03*
X0094918Y0193293D03*
X0104918Y0193293D03*
X0114918Y0193293D03*
X0124918Y0193293D03*
X0134918Y0193293D03*
X0144918Y0193293D03*
X0154918Y0193293D03*
X0164918Y0193293D03*
X0174918Y0193293D03*
X0184918Y0193293D03*
X0194918Y0193293D03*
X0204918Y0193293D03*
X0214918Y0193293D03*
X0224918Y0193293D03*
X0234918Y0193293D03*
X0244918Y0193293D03*
X0254918Y0193293D03*
X0264918Y0193293D03*
X0274918Y0193293D03*
X0284918Y0193293D03*
X0293698Y0184277D03*
X0301572Y0184277D03*
X0309446Y0184277D03*
X0317320Y0184277D03*
X0325194Y0184277D03*
X0333068Y0184277D03*
X0340942Y0184277D03*
X0348816Y0184277D03*
X0356690Y0184277D03*
X0364564Y0184277D03*
X0372438Y0184277D03*
X0380312Y0184277D03*
X0380312Y0176403D03*
X0372438Y0176403D03*
X0364564Y0176403D03*
X0356690Y0176403D03*
X0348816Y0176403D03*
X0340942Y0176403D03*
X0333068Y0176403D03*
X0325194Y0176403D03*
X0317320Y0176403D03*
X0309446Y0176403D03*
X0301572Y0176403D03*
X0293698Y0176403D03*
X0285823Y0176403D03*
X0277949Y0176403D03*
X0270075Y0176403D03*
X0270075Y0168529D03*
X0277949Y0168529D03*
X0285823Y0168529D03*
X0293698Y0168529D03*
X0301572Y0168529D03*
X0309446Y0168529D03*
X0317320Y0168529D03*
X0325194Y0168529D03*
X0333068Y0168529D03*
X0340942Y0168529D03*
X0348816Y0168529D03*
X0356690Y0168529D03*
X0364564Y0168529D03*
X0372438Y0168529D03*
X0380312Y0168529D03*
X0380312Y0160655D03*
X0372438Y0160655D03*
X0364564Y0160655D03*
X0356690Y0160655D03*
X0356690Y0152781D03*
X0364564Y0152781D03*
X0372438Y0152781D03*
X0380312Y0152781D03*
X0380312Y0144907D03*
X0372438Y0144907D03*
X0364564Y0144907D03*
X0356690Y0144907D03*
X0356690Y0137033D03*
X0364564Y0137033D03*
X0372438Y0137033D03*
X0380312Y0137033D03*
X0387312Y0137033D03*
X0387312Y0129159D03*
X0380312Y0129159D03*
X0372438Y0129159D03*
X0364564Y0129159D03*
X0356690Y0129159D03*
X0348816Y0129159D03*
X0356690Y0121285D03*
X0364564Y0121285D03*
X0372438Y0121285D03*
X0380312Y0121285D03*
X0387312Y0121285D03*
X0380312Y0113411D03*
X0372438Y0113411D03*
X0364564Y0113411D03*
X0356690Y0113411D03*
X0356690Y0105537D03*
X0364564Y0105537D03*
X0372438Y0105537D03*
X0380312Y0105537D03*
X0380312Y0097663D03*
X0372438Y0097663D03*
X0364564Y0097663D03*
X0356690Y0097663D03*
X0356690Y0089789D03*
X0364564Y0089789D03*
X0372438Y0089789D03*
X0380312Y0089789D03*
X0380312Y0081915D03*
X0372438Y0081915D03*
X0364564Y0081915D03*
X0356690Y0081915D03*
X0348816Y0081915D03*
X0340942Y0081915D03*
X0333068Y0081915D03*
X0325194Y0081915D03*
X0317320Y0081915D03*
X0309446Y0081915D03*
X0301572Y0081915D03*
X0297418Y0082293D03*
X0294618Y0089893D03*
X0301572Y0089789D03*
X0309446Y0089789D03*
X0317320Y0089789D03*
X0325194Y0089789D03*
X0333068Y0089789D03*
X0340942Y0089789D03*
X0348816Y0089789D03*
X0325194Y0097663D03*
X0317320Y0097663D03*
X0309446Y0097663D03*
X0301572Y0097663D03*
X0294618Y0095893D03*
X0294618Y0101893D03*
X0301572Y0105537D03*
X0294618Y0107893D03*
X0288618Y0107893D03*
X0282618Y0107893D03*
X0276618Y0107893D03*
X0276618Y0101893D03*
X0282618Y0101893D03*
X0288618Y0101893D03*
X0288618Y0095893D03*
X0282618Y0095893D03*
X0276618Y0095893D03*
X0270618Y0095893D03*
X0264718Y0095693D03*
X0258718Y0095693D03*
X0253718Y0095693D03*
X0253718Y0101693D03*
X0258718Y0101693D03*
X0264718Y0101693D03*
X0270618Y0101893D03*
X0270618Y0107893D03*
X0264718Y0107693D03*
X0258718Y0107693D03*
X0253718Y0107693D03*
X0253718Y0113693D03*
X0258718Y0113693D03*
X0264718Y0113693D03*
X0270718Y0113693D03*
X0279218Y0113693D03*
X0282718Y0113693D03*
X0286218Y0113693D03*
X0289718Y0113693D03*
X0293218Y0113693D03*
X0296635Y0114395D03*
X0297635Y0118332D03*
X0302418Y0116293D03*
X0309320Y0113411D03*
X0305383Y0109407D03*
X0309446Y0105537D03*
X0317320Y0105537D03*
X0325194Y0105537D03*
X0325194Y0113411D03*
X0317320Y0113411D03*
X0317320Y0120104D03*
X0311018Y0120193D03*
X0309446Y0124041D03*
X0305902Y0124041D03*
X0313383Y0124041D03*
X0317320Y0124041D03*
X0321257Y0124041D03*
X0325194Y0124828D03*
X0328737Y0125328D03*
X0325194Y0120104D03*
X0319757Y0132506D03*
X0315820Y0132506D03*
X0311883Y0132506D03*
X0307946Y0132506D03*
X0309260Y0136033D03*
X0305509Y0136506D03*
X0303909Y0132906D03*
X0297650Y0133033D03*
X0297831Y0129702D03*
X0294713Y0131096D03*
X0291276Y0131096D03*
X0287839Y0131128D03*
X0285018Y0129693D03*
X0285018Y0126193D03*
X0281018Y0126193D03*
X0275918Y0125793D03*
X0293323Y0136533D03*
X0296650Y0136533D03*
X0311323Y0139533D03*
X0311260Y0143033D03*
X0311260Y0146407D03*
X0317320Y0144907D03*
X0325194Y0144907D03*
X0325194Y0139002D03*
X0323694Y0134080D03*
X0328737Y0133580D03*
X0317320Y0139002D03*
X0295260Y0149407D03*
X0293698Y0152781D03*
X0301572Y0152781D03*
X0306883Y0150033D03*
X0309446Y0152781D03*
X0317320Y0152781D03*
X0325194Y0152781D03*
X0325194Y0160655D03*
X0317320Y0160655D03*
X0309446Y0160655D03*
X0301572Y0160655D03*
X0293698Y0160655D03*
X0285823Y0160655D03*
X0277949Y0160655D03*
X0269075Y0159155D03*
X0266672Y0157129D03*
X0270075Y0152781D03*
X0270075Y0148407D03*
X0262823Y0148407D03*
X0255772Y0148329D03*
X0249918Y0140293D03*
X0265918Y0140293D03*
X0273918Y0140293D03*
X0281918Y0140293D03*
X0277949Y0148407D03*
X0277949Y0152781D03*
X0266572Y0161329D03*
X0213418Y0134793D03*
X0182918Y0132293D03*
X0182918Y0129293D03*
X0182918Y0126293D03*
X0176018Y0124793D03*
X0172718Y0128093D03*
X0163418Y0127293D03*
X0163418Y0130793D03*
X0159918Y0130793D03*
X0159918Y0127293D03*
X0153318Y0125093D03*
X0156718Y0122593D03*
X0152418Y0129293D03*
X0150418Y0139293D03*
X0139918Y0128293D03*
X0129918Y0128293D03*
X0119918Y0128293D03*
X0109918Y0128293D03*
X0099918Y0128293D03*
X0089918Y0128293D03*
X0079918Y0128293D03*
X0069918Y0128293D03*
X0034918Y0133293D03*
X0034918Y0108293D03*
X0034918Y0083293D03*
X0054918Y0083293D03*
X0054918Y0063293D03*
X0064918Y0063293D03*
X0074918Y0063293D03*
X0084918Y0063293D03*
X0094918Y0063293D03*
X0104918Y0063293D03*
X0114918Y0063293D03*
X0124918Y0063293D03*
X0134918Y0063293D03*
X0144918Y0063293D03*
X0154918Y0063293D03*
X0164918Y0063293D03*
X0174918Y0063293D03*
X0184918Y0063293D03*
X0194918Y0063293D03*
X0204918Y0063293D03*
X0214918Y0063293D03*
X0224918Y0063293D03*
X0234918Y0063293D03*
X0244918Y0063293D03*
X0262918Y0067293D03*
X0267918Y0067293D03*
X0272418Y0068793D03*
X0276918Y0072293D03*
X0275918Y0076793D03*
X0283918Y0067093D03*
X0287418Y0067093D03*
X0290918Y0067093D03*
X0294418Y0067093D03*
X0298918Y0067293D03*
X0317320Y0067167D03*
X0317320Y0074041D03*
X0325194Y0074041D03*
X0325194Y0067167D03*
X0333068Y0066167D03*
X0340942Y0066167D03*
X0348816Y0066167D03*
X0356690Y0066167D03*
X0364564Y0066167D03*
X0372438Y0066167D03*
X0380312Y0066167D03*
X0388186Y0066167D03*
X0396060Y0066167D03*
X0403934Y0066167D03*
X0380312Y0074041D03*
X0372438Y0074041D03*
X0364564Y0074041D03*
X0356690Y0074041D03*
X0348816Y0074041D03*
X0340942Y0074041D03*
X0333068Y0074041D03*
X0288618Y0089893D03*
X0282618Y0089893D03*
X0276618Y0089893D03*
X0270618Y0089893D03*
X0264618Y0089893D03*
X0258618Y0089893D03*
X0253718Y0089693D03*
X0253718Y0084693D03*
X0253718Y0119693D03*
X0253718Y0124693D03*
X0245918Y0119793D03*
X0297635Y0122269D03*
X0405808Y0113411D03*
X0411808Y0113411D03*
X0419682Y0113411D03*
X0419682Y0105537D03*
X0427556Y0105537D03*
X0427556Y0097663D03*
X0419682Y0097663D03*
X0411808Y0097663D03*
X0405808Y0097663D03*
X0405808Y0105537D03*
X0411808Y0105537D03*
X0411808Y0089789D03*
X0419682Y0089789D03*
X0427556Y0089789D03*
X0429918Y0063293D03*
X0419682Y0121285D03*
X0411808Y0121285D03*
X0411808Y0129159D03*
X0419682Y0129159D03*
X0419682Y0137033D03*
X0411808Y0137033D03*
X0411808Y0144907D03*
X0405808Y0144907D03*
X0405808Y0152781D03*
X0411808Y0152781D03*
X0419682Y0152781D03*
X0427556Y0152781D03*
X0427556Y0160655D03*
X0419682Y0160655D03*
X0411808Y0160655D03*
X0405808Y0160655D03*
X0411808Y0168529D03*
X0419682Y0168529D03*
X0427556Y0168529D03*
X0429918Y0193293D03*
X0403934Y0192151D03*
X0396060Y0192151D03*
X0388186Y0192151D03*
X0380312Y0192151D03*
X0372438Y0192151D03*
X0364564Y0192151D03*
X0356690Y0192151D03*
X0348816Y0192151D03*
X0340942Y0192151D03*
X0333068Y0192151D03*
X0325194Y0192151D03*
X0317320Y0192151D03*
X0309446Y0192151D03*
X0301572Y0192151D03*
X0419682Y0144907D03*
X0172918Y0117293D03*
X0170918Y0139293D03*
X0034918Y0193293D03*
X0034918Y0063293D03*
D14*
X0045666Y0074041D03*
X0045666Y0184277D03*
X0419682Y0184277D03*
X0419682Y0074041D03*
D15*
X0036424Y0059335D02*
X0033910Y0060376D01*
X0031985Y0062300D01*
X0030944Y0064814D01*
X0030810Y0066175D01*
X0030810Y0192159D01*
X0030944Y0193520D01*
X0031985Y0196034D01*
X0033910Y0197958D01*
X0036424Y0198999D01*
X0037784Y0199133D01*
X0427548Y0199133D01*
X0428908Y0198999D01*
X0431422Y0197958D01*
X0433347Y0196034D01*
X0434388Y0193520D01*
X0434522Y0192159D01*
X0434522Y0191786D01*
X0434530Y0191778D01*
X0434530Y0153203D01*
X0423293Y0143839D01*
X0423246Y0143839D01*
X0423011Y0143604D01*
X0422756Y0143391D01*
X0422752Y0143345D01*
X0422719Y0143311D01*
X0422719Y0142979D01*
X0422689Y0142649D01*
X0422719Y0142613D01*
X0422719Y0115652D01*
X0422663Y0115569D01*
X0422719Y0115290D01*
X0422719Y0115007D01*
X0422790Y0114936D01*
X0422809Y0114838D01*
X0423045Y0114680D01*
X0423246Y0114480D01*
X0423346Y0114480D01*
X0434530Y0107024D01*
X0434530Y0066556D01*
X0434522Y0066548D01*
X0434522Y0066175D01*
X0434388Y0064814D01*
X0433347Y0062300D01*
X0431422Y0060376D01*
X0428908Y0059335D01*
X0427548Y0059201D01*
X0037784Y0059201D01*
X0036424Y0059335D01*
X0036049Y0059490D02*
X0429283Y0059490D01*
X0430728Y0060089D02*
X0034604Y0060089D01*
X0033599Y0060687D02*
X0431733Y0060687D01*
X0432332Y0061286D02*
X0033000Y0061286D01*
X0032402Y0061884D02*
X0432930Y0061884D01*
X0433422Y0062483D02*
X0031910Y0062483D01*
X0031662Y0063081D02*
X0433670Y0063081D01*
X0433918Y0063680D02*
X0031414Y0063680D01*
X0031166Y0064278D02*
X0434166Y0064278D01*
X0434394Y0064877D02*
X0047580Y0064877D01*
X0047496Y0064842D02*
X0050877Y0066242D01*
X0053465Y0068830D01*
X0054865Y0072211D01*
X0054865Y0075871D01*
X0053465Y0079252D01*
X0050877Y0081840D01*
X0047496Y0083240D01*
X0043836Y0083240D01*
X0040455Y0081840D01*
X0037867Y0079252D01*
X0036467Y0075871D01*
X0036467Y0072211D01*
X0037867Y0068830D01*
X0040455Y0066242D01*
X0043836Y0064842D01*
X0047496Y0064842D01*
X0049025Y0065475D02*
X0261412Y0065475D01*
X0261945Y0064943D02*
X0263891Y0064943D01*
X0265268Y0066320D01*
X0265268Y0067822D01*
X0265568Y0067522D01*
X0265568Y0066320D01*
X0266945Y0064943D01*
X0268891Y0064943D01*
X0270268Y0066320D01*
X0270268Y0067620D01*
X0271445Y0066443D01*
X0273391Y0066443D01*
X0274768Y0067820D01*
X0274768Y0069766D01*
X0273391Y0071143D01*
X0271445Y0071143D01*
X0270068Y0069766D01*
X0270068Y0068466D01*
X0268891Y0069643D01*
X0267689Y0069643D01*
X0265539Y0071793D01*
X0263539Y0071793D01*
X0252418Y0082914D01*
X0252418Y0110914D01*
X0251539Y0111793D01*
X0245889Y0117443D01*
X0246891Y0117443D01*
X0248268Y0118820D01*
X0248268Y0120766D01*
X0246891Y0122143D01*
X0244945Y0122143D01*
X0243568Y0120766D01*
X0243568Y0119764D01*
X0220434Y0142899D01*
X0220434Y0145798D01*
X0221001Y0146033D01*
X0222028Y0147060D01*
X0222584Y0148402D01*
X0222584Y0149854D01*
X0222028Y0151195D01*
X0221001Y0152222D01*
X0219660Y0152778D01*
X0218208Y0152778D01*
X0216866Y0152222D01*
X0215839Y0151195D01*
X0215284Y0149854D01*
X0215284Y0148402D01*
X0215839Y0147060D01*
X0216866Y0146033D01*
X0217434Y0145798D01*
X0217434Y0142749D01*
X0212349Y0147834D01*
X0212584Y0148402D01*
X0212584Y0149854D01*
X0212028Y0151195D01*
X0211001Y0152222D01*
X0209660Y0152778D01*
X0208208Y0152778D01*
X0206866Y0152222D01*
X0205839Y0151195D01*
X0205284Y0149854D01*
X0205284Y0148402D01*
X0205839Y0147060D01*
X0206866Y0146033D01*
X0208208Y0145478D01*
X0209660Y0145478D01*
X0210227Y0145713D01*
X0247418Y0108522D01*
X0247418Y0080672D01*
X0260568Y0067522D01*
X0260568Y0066320D01*
X0261945Y0064943D01*
X0260814Y0066074D02*
X0050470Y0066074D01*
X0051307Y0066672D02*
X0260568Y0066672D01*
X0260568Y0067271D02*
X0051905Y0067271D01*
X0052504Y0067869D02*
X0260220Y0067869D01*
X0259622Y0068468D02*
X0053102Y0068468D01*
X0053563Y0069066D02*
X0259023Y0069066D01*
X0258425Y0069665D02*
X0053810Y0069665D01*
X0054058Y0070263D02*
X0257826Y0070263D01*
X0257228Y0070862D02*
X0054306Y0070862D01*
X0054554Y0071460D02*
X0256629Y0071460D01*
X0256031Y0072059D02*
X0054802Y0072059D01*
X0054865Y0072657D02*
X0255432Y0072657D01*
X0254834Y0073256D02*
X0054865Y0073256D01*
X0054865Y0073854D02*
X0254235Y0073854D01*
X0253637Y0074453D02*
X0054865Y0074453D01*
X0054865Y0075051D02*
X0253038Y0075051D01*
X0252440Y0075650D02*
X0054865Y0075650D01*
X0054709Y0076248D02*
X0251841Y0076248D01*
X0251243Y0076847D02*
X0054461Y0076847D01*
X0054213Y0077445D02*
X0250644Y0077445D01*
X0250046Y0078044D02*
X0053965Y0078044D01*
X0053717Y0078642D02*
X0249447Y0078642D01*
X0248849Y0079241D02*
X0053469Y0079241D01*
X0052877Y0079839D02*
X0248250Y0079839D01*
X0247652Y0080438D02*
X0052279Y0080438D01*
X0051680Y0081036D02*
X0247418Y0081036D01*
X0247418Y0081635D02*
X0051082Y0081635D01*
X0049926Y0082233D02*
X0247418Y0082233D01*
X0247418Y0082832D02*
X0048481Y0082832D01*
X0042851Y0082832D02*
X0030810Y0082832D01*
X0030810Y0083430D02*
X0247418Y0083430D01*
X0247418Y0084029D02*
X0030810Y0084029D01*
X0030810Y0084627D02*
X0247418Y0084627D01*
X0247418Y0085226D02*
X0030810Y0085226D01*
X0030810Y0085825D02*
X0247418Y0085825D01*
X0247418Y0086423D02*
X0235843Y0086423D01*
X0235782Y0086362D02*
X0236699Y0087280D01*
X0237196Y0088479D01*
X0237196Y0089777D01*
X0236699Y0090976D01*
X0235782Y0091893D01*
X0234583Y0092390D01*
X0233285Y0092390D01*
X0232086Y0091893D01*
X0231168Y0090976D01*
X0230672Y0089777D01*
X0230672Y0088479D01*
X0231168Y0087280D01*
X0232086Y0086362D01*
X0233285Y0085865D01*
X0234583Y0085865D01*
X0235782Y0086362D01*
X0236441Y0087022D02*
X0247418Y0087022D01*
X0247418Y0087620D02*
X0236840Y0087620D01*
X0237088Y0088219D02*
X0247418Y0088219D01*
X0247418Y0088817D02*
X0237196Y0088817D01*
X0237196Y0089416D02*
X0247418Y0089416D01*
X0247418Y0090014D02*
X0237098Y0090014D01*
X0236850Y0090613D02*
X0247418Y0090613D01*
X0247418Y0091211D02*
X0236464Y0091211D01*
X0235865Y0091810D02*
X0247418Y0091810D01*
X0247418Y0092408D02*
X0030810Y0092408D01*
X0030810Y0091810D02*
X0072002Y0091810D01*
X0072086Y0091893D02*
X0071168Y0090976D01*
X0070672Y0089777D01*
X0070672Y0088479D01*
X0071168Y0087280D01*
X0072086Y0086362D01*
X0073285Y0085865D01*
X0074583Y0085865D01*
X0075782Y0086362D01*
X0076699Y0087280D01*
X0077196Y0088479D01*
X0077196Y0089777D01*
X0076699Y0090976D01*
X0075782Y0091893D01*
X0074583Y0092390D01*
X0073285Y0092390D01*
X0072086Y0091893D01*
X0071404Y0091211D02*
X0030810Y0091211D01*
X0030810Y0090613D02*
X0071018Y0090613D01*
X0070770Y0090014D02*
X0030810Y0090014D01*
X0030810Y0089416D02*
X0070672Y0089416D01*
X0070672Y0088817D02*
X0030810Y0088817D01*
X0030810Y0088219D02*
X0070779Y0088219D01*
X0071027Y0087620D02*
X0030810Y0087620D01*
X0030810Y0087022D02*
X0071426Y0087022D01*
X0072025Y0086423D02*
X0030810Y0086423D01*
X0030810Y0082233D02*
X0041406Y0082233D01*
X0040250Y0081635D02*
X0030810Y0081635D01*
X0030810Y0081036D02*
X0039652Y0081036D01*
X0039053Y0080438D02*
X0030810Y0080438D01*
X0030810Y0079839D02*
X0038455Y0079839D01*
X0037863Y0079241D02*
X0030810Y0079241D01*
X0030810Y0078642D02*
X0037615Y0078642D01*
X0037367Y0078044D02*
X0030810Y0078044D01*
X0030810Y0077445D02*
X0037119Y0077445D01*
X0036871Y0076847D02*
X0030810Y0076847D01*
X0030810Y0076248D02*
X0036623Y0076248D01*
X0036467Y0075650D02*
X0030810Y0075650D01*
X0030810Y0075051D02*
X0036467Y0075051D01*
X0036467Y0074453D02*
X0030810Y0074453D01*
X0030810Y0073854D02*
X0036467Y0073854D01*
X0036467Y0073256D02*
X0030810Y0073256D01*
X0030810Y0072657D02*
X0036467Y0072657D01*
X0036530Y0072059D02*
X0030810Y0072059D01*
X0030810Y0071460D02*
X0036778Y0071460D01*
X0037026Y0070862D02*
X0030810Y0070862D01*
X0030810Y0070263D02*
X0037274Y0070263D01*
X0037522Y0069665D02*
X0030810Y0069665D01*
X0030810Y0069066D02*
X0037769Y0069066D01*
X0038230Y0068468D02*
X0030810Y0068468D01*
X0030810Y0067869D02*
X0038828Y0067869D01*
X0039427Y0067271D02*
X0030810Y0067271D01*
X0030810Y0066672D02*
X0040025Y0066672D01*
X0040862Y0066074D02*
X0030820Y0066074D01*
X0030879Y0065475D02*
X0042307Y0065475D01*
X0043752Y0064877D02*
X0030938Y0064877D01*
X0075843Y0086423D02*
X0232025Y0086423D01*
X0231426Y0087022D02*
X0076441Y0087022D01*
X0076840Y0087620D02*
X0231027Y0087620D01*
X0230779Y0088219D02*
X0077088Y0088219D01*
X0077196Y0088817D02*
X0230672Y0088817D01*
X0230672Y0089416D02*
X0077196Y0089416D01*
X0077098Y0090014D02*
X0230770Y0090014D01*
X0231018Y0090613D02*
X0076850Y0090613D01*
X0076464Y0091211D02*
X0231404Y0091211D01*
X0232002Y0091810D02*
X0075865Y0091810D01*
X0078208Y0105478D02*
X0079660Y0105478D01*
X0081001Y0106033D01*
X0082028Y0107060D01*
X0082584Y0108402D01*
X0082584Y0109854D01*
X0082028Y0111195D01*
X0081001Y0112222D01*
X0079660Y0112778D01*
X0078208Y0112778D01*
X0076866Y0112222D01*
X0075839Y0111195D01*
X0075284Y0109854D01*
X0075284Y0108402D01*
X0075839Y0107060D01*
X0076866Y0106033D01*
X0078208Y0105478D01*
X0077972Y0105575D02*
X0069896Y0105575D01*
X0069660Y0105478D02*
X0071001Y0106033D01*
X0072028Y0107060D01*
X0072584Y0108402D01*
X0072584Y0109854D01*
X0072028Y0111195D01*
X0071001Y0112222D01*
X0069660Y0112778D01*
X0068208Y0112778D01*
X0066866Y0112222D01*
X0065839Y0111195D01*
X0065284Y0109854D01*
X0065284Y0108402D01*
X0065839Y0107060D01*
X0066866Y0106033D01*
X0068208Y0105478D01*
X0069660Y0105478D01*
X0071142Y0106174D02*
X0076726Y0106174D01*
X0076127Y0106772D02*
X0071740Y0106772D01*
X0072157Y0107371D02*
X0075711Y0107371D01*
X0075463Y0107969D02*
X0072405Y0107969D01*
X0072584Y0108568D02*
X0075284Y0108568D01*
X0075284Y0109166D02*
X0072584Y0109166D01*
X0072584Y0109765D02*
X0075284Y0109765D01*
X0075495Y0110363D02*
X0072373Y0110363D01*
X0072125Y0110962D02*
X0075743Y0110962D01*
X0076205Y0111560D02*
X0071663Y0111560D01*
X0071064Y0112159D02*
X0076803Y0112159D01*
X0078159Y0112758D02*
X0069708Y0112758D01*
X0068159Y0112758D02*
X0057352Y0112758D01*
X0057951Y0113356D02*
X0231735Y0113356D01*
X0231137Y0113955D02*
X0058549Y0113955D01*
X0058788Y0114193D02*
X0172788Y0114193D01*
X0173538Y0114943D01*
X0173891Y0114943D01*
X0174141Y0115193D01*
X0229899Y0115193D01*
X0235284Y0109808D01*
X0235284Y0108402D01*
X0235839Y0107060D01*
X0236866Y0106033D01*
X0238208Y0105478D01*
X0239660Y0105478D01*
X0241001Y0106033D01*
X0242028Y0107060D01*
X0242584Y0108402D01*
X0242584Y0109854D01*
X0242028Y0111195D01*
X0241001Y0112222D01*
X0239660Y0112778D01*
X0238254Y0112778D01*
X0231638Y0119393D01*
X0174141Y0119393D01*
X0173891Y0119643D01*
X0171945Y0119643D01*
X0170695Y0118393D01*
X0148018Y0118393D01*
X0148018Y0133923D01*
X0151038Y0136943D01*
X0151391Y0136943D01*
X0152768Y0138320D01*
X0152768Y0140266D01*
X0151391Y0141643D01*
X0149445Y0141643D01*
X0148068Y0140266D01*
X0148068Y0139913D01*
X0143818Y0135663D01*
X0143818Y0118393D01*
X0060018Y0118393D01*
X0060018Y0139163D01*
X0058788Y0140393D01*
X0051607Y0147574D01*
X0044462Y0147574D01*
X0043783Y0148253D01*
X0042578Y0148752D01*
X0041274Y0148752D01*
X0040069Y0148253D01*
X0039147Y0147331D01*
X0038648Y0146126D01*
X0038648Y0144822D01*
X0039147Y0143617D01*
X0040069Y0142695D01*
X0041274Y0142196D01*
X0042578Y0142196D01*
X0043783Y0142695D01*
X0044462Y0143374D01*
X0049867Y0143374D01*
X0055818Y0137423D01*
X0055818Y0117163D01*
X0045410Y0106755D01*
X0044462Y0106755D01*
X0043783Y0107434D01*
X0042578Y0107933D01*
X0041274Y0107933D01*
X0040069Y0107434D01*
X0039147Y0106512D01*
X0038648Y0105307D01*
X0038648Y0104003D01*
X0039147Y0102798D01*
X0040069Y0101876D01*
X0041274Y0101377D01*
X0042578Y0101377D01*
X0043783Y0101876D01*
X0044462Y0102555D01*
X0047150Y0102555D01*
X0048380Y0103785D01*
X0058788Y0114193D01*
X0056754Y0112159D02*
X0066803Y0112159D01*
X0066205Y0111560D02*
X0056155Y0111560D01*
X0055557Y0110962D02*
X0065743Y0110962D01*
X0065495Y0110363D02*
X0054958Y0110363D01*
X0054360Y0109765D02*
X0065284Y0109765D01*
X0065284Y0109166D02*
X0053761Y0109166D01*
X0053163Y0108568D02*
X0065284Y0108568D01*
X0065463Y0107969D02*
X0052564Y0107969D01*
X0051966Y0107371D02*
X0065711Y0107371D01*
X0066127Y0106772D02*
X0051367Y0106772D01*
X0050769Y0106174D02*
X0066726Y0106174D01*
X0067972Y0105575D02*
X0050170Y0105575D01*
X0049572Y0104977D02*
X0247418Y0104977D01*
X0247418Y0105575D02*
X0239896Y0105575D01*
X0241142Y0106174D02*
X0247418Y0106174D01*
X0247418Y0106772D02*
X0241740Y0106772D01*
X0242157Y0107371D02*
X0247418Y0107371D01*
X0247418Y0107969D02*
X0242405Y0107969D01*
X0242584Y0108568D02*
X0247372Y0108568D01*
X0246774Y0109166D02*
X0242584Y0109166D01*
X0242584Y0109765D02*
X0246175Y0109765D01*
X0245577Y0110363D02*
X0242373Y0110363D01*
X0242125Y0110962D02*
X0244978Y0110962D01*
X0244380Y0111560D02*
X0241663Y0111560D01*
X0241064Y0112159D02*
X0243781Y0112159D01*
X0243183Y0112758D02*
X0239708Y0112758D01*
X0237675Y0113356D02*
X0242584Y0113356D01*
X0241985Y0113955D02*
X0237077Y0113955D01*
X0236478Y0114553D02*
X0241387Y0114553D01*
X0240788Y0115152D02*
X0235880Y0115152D01*
X0235281Y0115750D02*
X0240190Y0115750D01*
X0239591Y0116349D02*
X0234683Y0116349D01*
X0234084Y0116947D02*
X0238993Y0116947D01*
X0238394Y0117546D02*
X0233486Y0117546D01*
X0232887Y0118144D02*
X0237796Y0118144D01*
X0237197Y0118743D02*
X0232289Y0118743D01*
X0231690Y0119341D02*
X0236599Y0119341D01*
X0236000Y0119940D02*
X0148018Y0119940D01*
X0148018Y0120538D02*
X0235402Y0120538D01*
X0234803Y0121137D02*
X0148018Y0121137D01*
X0148018Y0121735D02*
X0234205Y0121735D01*
X0233606Y0122334D02*
X0148018Y0122334D01*
X0148018Y0122932D02*
X0233008Y0122932D01*
X0232409Y0123531D02*
X0148018Y0123531D01*
X0148018Y0124129D02*
X0231811Y0124129D01*
X0231212Y0124728D02*
X0148018Y0124728D01*
X0148018Y0125326D02*
X0230614Y0125326D01*
X0230015Y0125925D02*
X0148018Y0125925D01*
X0148018Y0126523D02*
X0229417Y0126523D01*
X0228818Y0127122D02*
X0153570Y0127122D01*
X0153391Y0126943D02*
X0154768Y0128320D01*
X0154768Y0130266D01*
X0153391Y0131643D01*
X0151445Y0131643D01*
X0150068Y0130266D01*
X0150068Y0128320D01*
X0151445Y0126943D01*
X0153391Y0126943D01*
X0154169Y0127720D02*
X0228220Y0127720D01*
X0227621Y0128319D02*
X0154767Y0128319D01*
X0154768Y0128917D02*
X0227023Y0128917D01*
X0226424Y0129516D02*
X0154768Y0129516D01*
X0154768Y0130114D02*
X0225826Y0130114D01*
X0225227Y0130713D02*
X0154321Y0130713D01*
X0153723Y0131311D02*
X0224629Y0131311D01*
X0224030Y0131910D02*
X0148018Y0131910D01*
X0148018Y0132508D02*
X0212379Y0132508D01*
X0212445Y0132443D02*
X0214391Y0132443D01*
X0215768Y0133820D01*
X0215768Y0135766D01*
X0214391Y0137143D01*
X0212445Y0137143D01*
X0211068Y0135766D01*
X0211068Y0133820D01*
X0212445Y0132443D01*
X0211781Y0133107D02*
X0148018Y0133107D01*
X0148018Y0133705D02*
X0211182Y0133705D01*
X0211068Y0134304D02*
X0148399Y0134304D01*
X0148997Y0134902D02*
X0211068Y0134902D01*
X0211068Y0135501D02*
X0149596Y0135501D01*
X0150194Y0136099D02*
X0211401Y0136099D01*
X0212000Y0136698D02*
X0150793Y0136698D01*
X0151745Y0137296D02*
X0169591Y0137296D01*
X0169945Y0136943D02*
X0171891Y0136943D01*
X0173268Y0138320D01*
X0173268Y0140266D01*
X0171891Y0141643D01*
X0169945Y0141643D01*
X0168568Y0140266D01*
X0168568Y0138320D01*
X0169945Y0136943D01*
X0168993Y0137895D02*
X0152343Y0137895D01*
X0152768Y0138494D02*
X0168568Y0138494D01*
X0168568Y0139092D02*
X0152768Y0139092D01*
X0152768Y0139691D02*
X0168568Y0139691D01*
X0168591Y0140289D02*
X0152745Y0140289D01*
X0152147Y0140888D02*
X0169189Y0140888D01*
X0169788Y0141486D02*
X0151548Y0141486D01*
X0149288Y0141486D02*
X0057695Y0141486D01*
X0058293Y0140888D02*
X0148689Y0140888D01*
X0148091Y0140289D02*
X0058892Y0140289D01*
X0059490Y0139691D02*
X0147846Y0139691D01*
X0147247Y0139092D02*
X0060018Y0139092D01*
X0060018Y0138494D02*
X0146649Y0138494D01*
X0146050Y0137895D02*
X0060018Y0137895D01*
X0060018Y0137296D02*
X0145452Y0137296D01*
X0144853Y0136698D02*
X0060018Y0136698D01*
X0060018Y0136099D02*
X0144255Y0136099D01*
X0143818Y0135501D02*
X0060018Y0135501D01*
X0060018Y0134902D02*
X0143818Y0134902D01*
X0143818Y0134304D02*
X0060018Y0134304D01*
X0060018Y0133705D02*
X0143818Y0133705D01*
X0143818Y0133107D02*
X0060018Y0133107D01*
X0060018Y0132508D02*
X0143818Y0132508D01*
X0143818Y0131910D02*
X0060018Y0131910D01*
X0060018Y0131311D02*
X0143818Y0131311D01*
X0143818Y0130713D02*
X0060018Y0130713D01*
X0060018Y0130114D02*
X0143818Y0130114D01*
X0143818Y0129516D02*
X0060018Y0129516D01*
X0060018Y0128917D02*
X0143818Y0128917D01*
X0143818Y0128319D02*
X0060018Y0128319D01*
X0060018Y0127720D02*
X0143818Y0127720D01*
X0143818Y0127122D02*
X0060018Y0127122D01*
X0060018Y0126523D02*
X0143818Y0126523D01*
X0143818Y0125925D02*
X0060018Y0125925D01*
X0060018Y0125326D02*
X0143818Y0125326D01*
X0143818Y0124728D02*
X0060018Y0124728D01*
X0060018Y0124129D02*
X0143818Y0124129D01*
X0143818Y0123531D02*
X0060018Y0123531D01*
X0060018Y0122932D02*
X0143818Y0122932D01*
X0143818Y0122334D02*
X0060018Y0122334D01*
X0060018Y0121735D02*
X0143818Y0121735D01*
X0143818Y0121137D02*
X0060018Y0121137D01*
X0060018Y0120538D02*
X0143818Y0120538D01*
X0143818Y0119940D02*
X0060018Y0119940D01*
X0060018Y0119341D02*
X0143818Y0119341D01*
X0143818Y0118743D02*
X0060018Y0118743D01*
X0055818Y0118743D02*
X0044786Y0118743D01*
X0044705Y0118546D02*
X0045204Y0119751D01*
X0045204Y0121055D01*
X0044705Y0122260D01*
X0043783Y0123182D01*
X0042578Y0123681D01*
X0041274Y0123681D01*
X0040069Y0123182D01*
X0039147Y0122260D01*
X0038648Y0121055D01*
X0038648Y0119751D01*
X0039147Y0118546D01*
X0040069Y0117624D01*
X0041274Y0117125D01*
X0042578Y0117125D01*
X0043783Y0117624D01*
X0044705Y0118546D01*
X0044302Y0118144D02*
X0055818Y0118144D01*
X0055818Y0117546D02*
X0043593Y0117546D01*
X0042716Y0115750D02*
X0054405Y0115750D01*
X0053807Y0115152D02*
X0043939Y0115152D01*
X0043783Y0115308D02*
X0042578Y0115807D01*
X0041274Y0115807D01*
X0040069Y0115308D01*
X0039147Y0114386D01*
X0038648Y0113181D01*
X0038648Y0111877D01*
X0039147Y0110672D01*
X0040069Y0109750D01*
X0041274Y0109251D01*
X0042578Y0109251D01*
X0043783Y0109750D01*
X0044705Y0110672D01*
X0045204Y0111877D01*
X0045204Y0113181D01*
X0044705Y0114386D01*
X0043783Y0115308D01*
X0044538Y0114553D02*
X0053208Y0114553D01*
X0052610Y0113955D02*
X0044883Y0113955D01*
X0045131Y0113356D02*
X0052011Y0113356D01*
X0051413Y0112758D02*
X0045204Y0112758D01*
X0045204Y0112159D02*
X0050814Y0112159D01*
X0050216Y0111560D02*
X0045073Y0111560D01*
X0044825Y0110962D02*
X0049617Y0110962D01*
X0049019Y0110363D02*
X0044396Y0110363D01*
X0043797Y0109765D02*
X0048420Y0109765D01*
X0047822Y0109166D02*
X0030810Y0109166D01*
X0030810Y0108568D02*
X0047223Y0108568D01*
X0046625Y0107969D02*
X0030810Y0107969D01*
X0030810Y0107371D02*
X0040006Y0107371D01*
X0039407Y0106772D02*
X0030810Y0106772D01*
X0030810Y0106174D02*
X0039007Y0106174D01*
X0038759Y0105575D02*
X0030810Y0105575D01*
X0030810Y0104977D02*
X0038648Y0104977D01*
X0038648Y0104378D02*
X0030810Y0104378D01*
X0030810Y0103780D02*
X0038740Y0103780D01*
X0038988Y0103181D02*
X0030810Y0103181D01*
X0030810Y0102583D02*
X0039362Y0102583D01*
X0039961Y0101984D02*
X0030810Y0101984D01*
X0030810Y0101386D02*
X0041253Y0101386D01*
X0042599Y0101386D02*
X0247418Y0101386D01*
X0247418Y0101984D02*
X0043891Y0101984D01*
X0047178Y0102583D02*
X0247418Y0102583D01*
X0247418Y0103181D02*
X0047776Y0103181D01*
X0048375Y0103780D02*
X0247418Y0103780D01*
X0247418Y0104378D02*
X0048973Y0104378D01*
X0046026Y0107371D02*
X0043846Y0107371D01*
X0044444Y0106772D02*
X0045428Y0106772D01*
X0040054Y0109765D02*
X0030810Y0109765D01*
X0030810Y0110363D02*
X0039456Y0110363D01*
X0039027Y0110962D02*
X0030810Y0110962D01*
X0030810Y0111560D02*
X0038779Y0111560D01*
X0038648Y0112159D02*
X0030810Y0112159D01*
X0030810Y0112758D02*
X0038648Y0112758D01*
X0038720Y0113356D02*
X0030810Y0113356D01*
X0030810Y0113955D02*
X0038968Y0113955D01*
X0039314Y0114553D02*
X0030810Y0114553D01*
X0030810Y0115152D02*
X0039912Y0115152D01*
X0041136Y0115750D02*
X0030810Y0115750D01*
X0030810Y0116349D02*
X0055004Y0116349D01*
X0055602Y0116947D02*
X0030810Y0116947D01*
X0030810Y0117546D02*
X0040259Y0117546D01*
X0039549Y0118144D02*
X0030810Y0118144D01*
X0030810Y0118743D02*
X0039066Y0118743D01*
X0038818Y0119341D02*
X0030810Y0119341D01*
X0030810Y0119940D02*
X0038648Y0119940D01*
X0038648Y0120538D02*
X0030810Y0120538D01*
X0030810Y0121137D02*
X0038682Y0121137D01*
X0038930Y0121735D02*
X0030810Y0121735D01*
X0030810Y0122334D02*
X0039221Y0122334D01*
X0039819Y0122932D02*
X0030810Y0122932D01*
X0030810Y0123531D02*
X0040911Y0123531D01*
X0042941Y0123531D02*
X0055818Y0123531D01*
X0055818Y0124129D02*
X0030810Y0124129D01*
X0030810Y0124728D02*
X0055818Y0124728D01*
X0055818Y0125326D02*
X0030810Y0125326D01*
X0030810Y0125925D02*
X0055818Y0125925D01*
X0055818Y0126523D02*
X0030810Y0126523D01*
X0030810Y0127122D02*
X0055818Y0127122D01*
X0055818Y0127720D02*
X0030810Y0127720D01*
X0030810Y0128319D02*
X0055818Y0128319D01*
X0055818Y0128917D02*
X0030810Y0128917D01*
X0030810Y0129516D02*
X0055818Y0129516D01*
X0055818Y0130114D02*
X0030810Y0130114D01*
X0030810Y0130713D02*
X0055818Y0130713D01*
X0055818Y0131311D02*
X0030810Y0131311D01*
X0030810Y0131910D02*
X0055818Y0131910D01*
X0055818Y0132508D02*
X0030810Y0132508D01*
X0030810Y0133107D02*
X0055818Y0133107D01*
X0055818Y0133705D02*
X0030810Y0133705D01*
X0030810Y0134304D02*
X0055818Y0134304D01*
X0055818Y0134902D02*
X0030810Y0134902D01*
X0030810Y0135501D02*
X0055818Y0135501D01*
X0055818Y0136099D02*
X0030810Y0136099D01*
X0030810Y0136698D02*
X0055818Y0136698D01*
X0055818Y0137296D02*
X0030810Y0137296D01*
X0030810Y0137895D02*
X0055346Y0137895D01*
X0054748Y0138494D02*
X0030810Y0138494D01*
X0030810Y0139092D02*
X0054149Y0139092D01*
X0053551Y0139691D02*
X0030810Y0139691D01*
X0030810Y0140289D02*
X0052952Y0140289D01*
X0052354Y0140888D02*
X0030810Y0140888D01*
X0030810Y0141486D02*
X0051755Y0141486D01*
X0051157Y0142085D02*
X0030810Y0142085D01*
X0030810Y0142683D02*
X0040098Y0142683D01*
X0039483Y0143282D02*
X0030810Y0143282D01*
X0030810Y0143880D02*
X0039038Y0143880D01*
X0038790Y0144479D02*
X0030810Y0144479D01*
X0030810Y0145077D02*
X0038648Y0145077D01*
X0038648Y0145676D02*
X0030810Y0145676D01*
X0030810Y0146274D02*
X0038709Y0146274D01*
X0038957Y0146873D02*
X0030810Y0146873D01*
X0030810Y0147471D02*
X0039287Y0147471D01*
X0039886Y0148070D02*
X0030810Y0148070D01*
X0030810Y0148668D02*
X0041071Y0148668D01*
X0041274Y0150070D02*
X0042578Y0150070D01*
X0043783Y0150569D01*
X0044705Y0151491D01*
X0045204Y0152696D01*
X0045204Y0154000D01*
X0044705Y0155205D01*
X0043783Y0156127D01*
X0042578Y0156626D01*
X0041274Y0156626D01*
X0040069Y0156127D01*
X0039147Y0155205D01*
X0038648Y0154000D01*
X0038648Y0152696D01*
X0039147Y0151491D01*
X0040069Y0150569D01*
X0041274Y0150070D01*
X0040324Y0150464D02*
X0030810Y0150464D01*
X0030810Y0151062D02*
X0039576Y0151062D01*
X0039077Y0151661D02*
X0030810Y0151661D01*
X0030810Y0152259D02*
X0038829Y0152259D01*
X0038648Y0152858D02*
X0030810Y0152858D01*
X0030810Y0153456D02*
X0038648Y0153456D01*
X0038671Y0154055D02*
X0030810Y0154055D01*
X0030810Y0154653D02*
X0038918Y0154653D01*
X0039194Y0155252D02*
X0030810Y0155252D01*
X0030810Y0155850D02*
X0039792Y0155850D01*
X0040846Y0156449D02*
X0030810Y0156449D01*
X0030810Y0157047D02*
X0434530Y0157047D01*
X0434530Y0156449D02*
X0043006Y0156449D01*
X0044059Y0155850D02*
X0434530Y0155850D01*
X0434530Y0155252D02*
X0044658Y0155252D01*
X0044933Y0154653D02*
X0434530Y0154653D01*
X0434530Y0154055D02*
X0045181Y0154055D01*
X0045204Y0153456D02*
X0434530Y0153456D01*
X0434116Y0152858D02*
X0045204Y0152858D01*
X0045023Y0152259D02*
X0066956Y0152259D01*
X0066866Y0152222D02*
X0065839Y0151195D01*
X0065284Y0149854D01*
X0065284Y0148402D01*
X0065839Y0147060D01*
X0066866Y0146033D01*
X0068208Y0145478D01*
X0069660Y0145478D01*
X0071001Y0146033D01*
X0072028Y0147060D01*
X0072584Y0148402D01*
X0072584Y0149854D01*
X0072028Y0151195D01*
X0071001Y0152222D01*
X0069660Y0152778D01*
X0068208Y0152778D01*
X0066866Y0152222D01*
X0066305Y0151661D02*
X0044775Y0151661D01*
X0044276Y0151062D02*
X0065784Y0151062D01*
X0065536Y0150464D02*
X0043528Y0150464D01*
X0042780Y0148668D02*
X0065284Y0148668D01*
X0065284Y0149267D02*
X0030810Y0149267D01*
X0030810Y0149865D02*
X0065289Y0149865D01*
X0065421Y0148070D02*
X0043966Y0148070D01*
X0044369Y0143282D02*
X0049960Y0143282D01*
X0050558Y0142683D02*
X0043753Y0142683D01*
X0051710Y0147471D02*
X0065669Y0147471D01*
X0066027Y0146873D02*
X0052308Y0146873D01*
X0052907Y0146274D02*
X0066625Y0146274D01*
X0067730Y0145676D02*
X0053505Y0145676D01*
X0054104Y0145077D02*
X0210863Y0145077D01*
X0211461Y0144479D02*
X0054702Y0144479D01*
X0055301Y0143880D02*
X0212060Y0143880D01*
X0212658Y0143282D02*
X0055899Y0143282D01*
X0056498Y0142683D02*
X0213257Y0142683D01*
X0213855Y0142085D02*
X0057096Y0142085D01*
X0070138Y0145676D02*
X0077730Y0145676D01*
X0078208Y0145478D02*
X0079660Y0145478D01*
X0081001Y0146033D01*
X0082028Y0147060D01*
X0082584Y0148402D01*
X0082584Y0149854D01*
X0082028Y0151195D01*
X0081001Y0152222D01*
X0079660Y0152778D01*
X0078208Y0152778D01*
X0076866Y0152222D01*
X0075839Y0151195D01*
X0075284Y0149854D01*
X0075284Y0148402D01*
X0075839Y0147060D01*
X0076866Y0146033D01*
X0078208Y0145478D01*
X0076625Y0146274D02*
X0071242Y0146274D01*
X0071841Y0146873D02*
X0076027Y0146873D01*
X0075669Y0147471D02*
X0072198Y0147471D01*
X0072446Y0148070D02*
X0075421Y0148070D01*
X0075284Y0148668D02*
X0072584Y0148668D01*
X0072584Y0149267D02*
X0075284Y0149267D01*
X0075289Y0149865D02*
X0072579Y0149865D01*
X0072331Y0150464D02*
X0075536Y0150464D01*
X0075784Y0151062D02*
X0072083Y0151062D01*
X0071562Y0151661D02*
X0076305Y0151661D01*
X0076956Y0152259D02*
X0070911Y0152259D01*
X0080911Y0152259D02*
X0086956Y0152259D01*
X0086866Y0152222D02*
X0085839Y0151195D01*
X0085284Y0149854D01*
X0085284Y0148402D01*
X0085839Y0147060D01*
X0086866Y0146033D01*
X0088208Y0145478D01*
X0089660Y0145478D01*
X0091001Y0146033D01*
X0092028Y0147060D01*
X0092584Y0148402D01*
X0092584Y0149854D01*
X0092028Y0151195D01*
X0091001Y0152222D01*
X0089660Y0152778D01*
X0088208Y0152778D01*
X0086866Y0152222D01*
X0086305Y0151661D02*
X0081562Y0151661D01*
X0082083Y0151062D02*
X0085784Y0151062D01*
X0085536Y0150464D02*
X0082331Y0150464D01*
X0082579Y0149865D02*
X0085289Y0149865D01*
X0085284Y0149267D02*
X0082584Y0149267D01*
X0082584Y0148668D02*
X0085284Y0148668D01*
X0085421Y0148070D02*
X0082446Y0148070D01*
X0082198Y0147471D02*
X0085669Y0147471D01*
X0086027Y0146873D02*
X0081841Y0146873D01*
X0081242Y0146274D02*
X0086625Y0146274D01*
X0087730Y0145676D02*
X0080138Y0145676D01*
X0090138Y0145676D02*
X0097730Y0145676D01*
X0098208Y0145478D02*
X0099660Y0145478D01*
X0101001Y0146033D01*
X0102028Y0147060D01*
X0102584Y0148402D01*
X0102584Y0149854D01*
X0102028Y0151195D01*
X0101001Y0152222D01*
X0099660Y0152778D01*
X0098208Y0152778D01*
X0096866Y0152222D01*
X0095839Y0151195D01*
X0095284Y0149854D01*
X0095284Y0148402D01*
X0095839Y0147060D01*
X0096866Y0146033D01*
X0098208Y0145478D01*
X0096625Y0146274D02*
X0091242Y0146274D01*
X0091841Y0146873D02*
X0096027Y0146873D01*
X0095669Y0147471D02*
X0092198Y0147471D01*
X0092446Y0148070D02*
X0095421Y0148070D01*
X0095284Y0148668D02*
X0092584Y0148668D01*
X0092584Y0149267D02*
X0095284Y0149267D01*
X0095289Y0149865D02*
X0092579Y0149865D01*
X0092331Y0150464D02*
X0095536Y0150464D01*
X0095784Y0151062D02*
X0092083Y0151062D01*
X0091562Y0151661D02*
X0096305Y0151661D01*
X0096956Y0152259D02*
X0090911Y0152259D01*
X0100911Y0152259D02*
X0106956Y0152259D01*
X0106866Y0152222D02*
X0105839Y0151195D01*
X0105284Y0149854D01*
X0105284Y0148402D01*
X0105839Y0147060D01*
X0106866Y0146033D01*
X0108208Y0145478D01*
X0109660Y0145478D01*
X0111001Y0146033D01*
X0112028Y0147060D01*
X0112584Y0148402D01*
X0112584Y0149854D01*
X0112028Y0151195D01*
X0111001Y0152222D01*
X0109660Y0152778D01*
X0108208Y0152778D01*
X0106866Y0152222D01*
X0106305Y0151661D02*
X0101562Y0151661D01*
X0102083Y0151062D02*
X0105784Y0151062D01*
X0105536Y0150464D02*
X0102331Y0150464D01*
X0102579Y0149865D02*
X0105289Y0149865D01*
X0105284Y0149267D02*
X0102584Y0149267D01*
X0102584Y0148668D02*
X0105284Y0148668D01*
X0105421Y0148070D02*
X0102446Y0148070D01*
X0102198Y0147471D02*
X0105669Y0147471D01*
X0106027Y0146873D02*
X0101841Y0146873D01*
X0101242Y0146274D02*
X0106625Y0146274D01*
X0107730Y0145676D02*
X0100138Y0145676D01*
X0110138Y0145676D02*
X0117730Y0145676D01*
X0118208Y0145478D02*
X0119660Y0145478D01*
X0121001Y0146033D01*
X0122028Y0147060D01*
X0122584Y0148402D01*
X0122584Y0149854D01*
X0122028Y0151195D01*
X0121001Y0152222D01*
X0119660Y0152778D01*
X0118208Y0152778D01*
X0116866Y0152222D01*
X0115839Y0151195D01*
X0115284Y0149854D01*
X0115284Y0148402D01*
X0115839Y0147060D01*
X0116866Y0146033D01*
X0118208Y0145478D01*
X0116625Y0146274D02*
X0111242Y0146274D01*
X0111841Y0146873D02*
X0116027Y0146873D01*
X0115669Y0147471D02*
X0112198Y0147471D01*
X0112446Y0148070D02*
X0115421Y0148070D01*
X0115284Y0148668D02*
X0112584Y0148668D01*
X0112584Y0149267D02*
X0115284Y0149267D01*
X0115289Y0149865D02*
X0112579Y0149865D01*
X0112331Y0150464D02*
X0115536Y0150464D01*
X0115784Y0151062D02*
X0112083Y0151062D01*
X0111562Y0151661D02*
X0116305Y0151661D01*
X0116956Y0152259D02*
X0110911Y0152259D01*
X0120911Y0152259D02*
X0126956Y0152259D01*
X0126866Y0152222D02*
X0125839Y0151195D01*
X0125284Y0149854D01*
X0125284Y0148402D01*
X0125839Y0147060D01*
X0126866Y0146033D01*
X0128208Y0145478D01*
X0129660Y0145478D01*
X0131001Y0146033D01*
X0132028Y0147060D01*
X0132584Y0148402D01*
X0132584Y0149854D01*
X0132028Y0151195D01*
X0131001Y0152222D01*
X0129660Y0152778D01*
X0128208Y0152778D01*
X0126866Y0152222D01*
X0126305Y0151661D02*
X0121562Y0151661D01*
X0122083Y0151062D02*
X0125784Y0151062D01*
X0125536Y0150464D02*
X0122331Y0150464D01*
X0122579Y0149865D02*
X0125289Y0149865D01*
X0125284Y0149267D02*
X0122584Y0149267D01*
X0122584Y0148668D02*
X0125284Y0148668D01*
X0125421Y0148070D02*
X0122446Y0148070D01*
X0122198Y0147471D02*
X0125669Y0147471D01*
X0126027Y0146873D02*
X0121841Y0146873D01*
X0121242Y0146274D02*
X0126625Y0146274D01*
X0127730Y0145676D02*
X0120138Y0145676D01*
X0130138Y0145676D02*
X0137730Y0145676D01*
X0138208Y0145478D02*
X0136866Y0146033D01*
X0135839Y0147060D01*
X0135284Y0148402D01*
X0135284Y0149854D01*
X0135839Y0151195D01*
X0136866Y0152222D01*
X0138208Y0152778D01*
X0139660Y0152778D01*
X0141001Y0152222D01*
X0142028Y0151195D01*
X0142584Y0149854D01*
X0142584Y0148402D01*
X0142028Y0147060D01*
X0141001Y0146033D01*
X0139660Y0145478D01*
X0138208Y0145478D01*
X0136625Y0146274D02*
X0131242Y0146274D01*
X0131841Y0146873D02*
X0136027Y0146873D01*
X0135669Y0147471D02*
X0132198Y0147471D01*
X0132446Y0148070D02*
X0135421Y0148070D01*
X0135284Y0148668D02*
X0132584Y0148668D01*
X0132584Y0149267D02*
X0135284Y0149267D01*
X0135289Y0149865D02*
X0132579Y0149865D01*
X0132331Y0150464D02*
X0135536Y0150464D01*
X0135784Y0151062D02*
X0132083Y0151062D01*
X0131562Y0151661D02*
X0136305Y0151661D01*
X0136956Y0152259D02*
X0130911Y0152259D01*
X0140911Y0152259D02*
X0146956Y0152259D01*
X0146866Y0152222D02*
X0145839Y0151195D01*
X0145284Y0149854D01*
X0145284Y0148402D01*
X0145839Y0147060D01*
X0146866Y0146033D01*
X0148208Y0145478D01*
X0149660Y0145478D01*
X0151001Y0146033D01*
X0152028Y0147060D01*
X0152584Y0148402D01*
X0152584Y0149854D01*
X0152028Y0151195D01*
X0151001Y0152222D01*
X0149660Y0152778D01*
X0148208Y0152778D01*
X0146866Y0152222D01*
X0146305Y0151661D02*
X0141562Y0151661D01*
X0142083Y0151062D02*
X0145784Y0151062D01*
X0145536Y0150464D02*
X0142331Y0150464D01*
X0142579Y0149865D02*
X0145289Y0149865D01*
X0145284Y0149267D02*
X0142584Y0149267D01*
X0142584Y0148668D02*
X0145284Y0148668D01*
X0145421Y0148070D02*
X0142446Y0148070D01*
X0142198Y0147471D02*
X0145669Y0147471D01*
X0146027Y0146873D02*
X0141841Y0146873D01*
X0141242Y0146274D02*
X0146625Y0146274D01*
X0147730Y0145676D02*
X0140138Y0145676D01*
X0150138Y0145676D02*
X0157730Y0145676D01*
X0158208Y0145478D02*
X0159660Y0145478D01*
X0161001Y0146033D01*
X0162028Y0147060D01*
X0162584Y0148402D01*
X0162584Y0149854D01*
X0162028Y0151195D01*
X0161001Y0152222D01*
X0159660Y0152778D01*
X0158208Y0152778D01*
X0156866Y0152222D01*
X0155839Y0151195D01*
X0155284Y0149854D01*
X0155284Y0148402D01*
X0155839Y0147060D01*
X0156866Y0146033D01*
X0158208Y0145478D01*
X0156625Y0146274D02*
X0151242Y0146274D01*
X0151841Y0146873D02*
X0156027Y0146873D01*
X0155669Y0147471D02*
X0152198Y0147471D01*
X0152446Y0148070D02*
X0155421Y0148070D01*
X0155284Y0148668D02*
X0152584Y0148668D01*
X0152584Y0149267D02*
X0155284Y0149267D01*
X0155289Y0149865D02*
X0152579Y0149865D01*
X0152331Y0150464D02*
X0155536Y0150464D01*
X0155784Y0151062D02*
X0152083Y0151062D01*
X0151562Y0151661D02*
X0156305Y0151661D01*
X0156956Y0152259D02*
X0150911Y0152259D01*
X0160911Y0152259D02*
X0166956Y0152259D01*
X0166866Y0152222D02*
X0165839Y0151195D01*
X0165284Y0149854D01*
X0165284Y0148402D01*
X0165839Y0147060D01*
X0166866Y0146033D01*
X0168208Y0145478D01*
X0169660Y0145478D01*
X0171001Y0146033D01*
X0172028Y0147060D01*
X0172584Y0148402D01*
X0172584Y0149854D01*
X0172028Y0151195D01*
X0171001Y0152222D01*
X0169660Y0152778D01*
X0168208Y0152778D01*
X0166866Y0152222D01*
X0166305Y0151661D02*
X0161562Y0151661D01*
X0162083Y0151062D02*
X0165784Y0151062D01*
X0165536Y0150464D02*
X0162331Y0150464D01*
X0162579Y0149865D02*
X0165289Y0149865D01*
X0165284Y0149267D02*
X0162584Y0149267D01*
X0162584Y0148668D02*
X0165284Y0148668D01*
X0165421Y0148070D02*
X0162446Y0148070D01*
X0162198Y0147471D02*
X0165669Y0147471D01*
X0166027Y0146873D02*
X0161841Y0146873D01*
X0161242Y0146274D02*
X0166625Y0146274D01*
X0167730Y0145676D02*
X0160138Y0145676D01*
X0170138Y0145676D02*
X0177730Y0145676D01*
X0178208Y0145478D02*
X0179660Y0145478D01*
X0181001Y0146033D01*
X0182028Y0147060D01*
X0182584Y0148402D01*
X0182584Y0149854D01*
X0182028Y0151195D01*
X0181001Y0152222D01*
X0179660Y0152778D01*
X0178208Y0152778D01*
X0176866Y0152222D01*
X0175839Y0151195D01*
X0175284Y0149854D01*
X0175284Y0148402D01*
X0175839Y0147060D01*
X0176866Y0146033D01*
X0178208Y0145478D01*
X0176625Y0146274D02*
X0171242Y0146274D01*
X0171841Y0146873D02*
X0176027Y0146873D01*
X0175669Y0147471D02*
X0172198Y0147471D01*
X0172446Y0148070D02*
X0175421Y0148070D01*
X0175284Y0148668D02*
X0172584Y0148668D01*
X0172584Y0149267D02*
X0175284Y0149267D01*
X0175289Y0149865D02*
X0172579Y0149865D01*
X0172331Y0150464D02*
X0175536Y0150464D01*
X0175784Y0151062D02*
X0172083Y0151062D01*
X0171562Y0151661D02*
X0176305Y0151661D01*
X0176956Y0152259D02*
X0170911Y0152259D01*
X0180911Y0152259D02*
X0186956Y0152259D01*
X0186866Y0152222D02*
X0185839Y0151195D01*
X0185284Y0149854D01*
X0185284Y0148402D01*
X0185839Y0147060D01*
X0186866Y0146033D01*
X0188208Y0145478D01*
X0189660Y0145478D01*
X0191001Y0146033D01*
X0192028Y0147060D01*
X0192584Y0148402D01*
X0192584Y0149854D01*
X0192028Y0151195D01*
X0191001Y0152222D01*
X0189660Y0152778D01*
X0188208Y0152778D01*
X0186866Y0152222D01*
X0186305Y0151661D02*
X0181562Y0151661D01*
X0182083Y0151062D02*
X0185784Y0151062D01*
X0185536Y0150464D02*
X0182331Y0150464D01*
X0182579Y0149865D02*
X0185289Y0149865D01*
X0185284Y0149267D02*
X0182584Y0149267D01*
X0182584Y0148668D02*
X0185284Y0148668D01*
X0185421Y0148070D02*
X0182446Y0148070D01*
X0182198Y0147471D02*
X0185669Y0147471D01*
X0186027Y0146873D02*
X0181841Y0146873D01*
X0181242Y0146274D02*
X0186625Y0146274D01*
X0187730Y0145676D02*
X0180138Y0145676D01*
X0173245Y0140289D02*
X0215651Y0140289D01*
X0216249Y0139691D02*
X0173268Y0139691D01*
X0173268Y0139092D02*
X0216848Y0139092D01*
X0217447Y0138494D02*
X0173268Y0138494D01*
X0172843Y0137895D02*
X0218045Y0137895D01*
X0218644Y0137296D02*
X0172245Y0137296D01*
X0172647Y0140888D02*
X0215052Y0140888D01*
X0214454Y0141486D02*
X0172048Y0141486D01*
X0190138Y0145676D02*
X0197730Y0145676D01*
X0198208Y0145478D02*
X0196866Y0146033D01*
X0195839Y0147060D01*
X0195284Y0148402D01*
X0195284Y0149854D01*
X0195839Y0151195D01*
X0196866Y0152222D01*
X0198208Y0152778D01*
X0199660Y0152778D01*
X0201001Y0152222D01*
X0202028Y0151195D01*
X0202584Y0149854D01*
X0202584Y0148402D01*
X0202028Y0147060D01*
X0201001Y0146033D01*
X0199660Y0145478D01*
X0198208Y0145478D01*
X0196625Y0146274D02*
X0191242Y0146274D01*
X0191841Y0146873D02*
X0196027Y0146873D01*
X0195669Y0147471D02*
X0192198Y0147471D01*
X0192446Y0148070D02*
X0195421Y0148070D01*
X0195284Y0148668D02*
X0192584Y0148668D01*
X0192584Y0149267D02*
X0195284Y0149267D01*
X0195289Y0149865D02*
X0192579Y0149865D01*
X0192331Y0150464D02*
X0195536Y0150464D01*
X0195784Y0151062D02*
X0192083Y0151062D01*
X0191562Y0151661D02*
X0196305Y0151661D01*
X0196956Y0152259D02*
X0190911Y0152259D01*
X0200911Y0152259D02*
X0206956Y0152259D01*
X0206305Y0151661D02*
X0201562Y0151661D01*
X0202083Y0151062D02*
X0205784Y0151062D01*
X0205536Y0150464D02*
X0202331Y0150464D01*
X0202579Y0149865D02*
X0205289Y0149865D01*
X0205284Y0149267D02*
X0202584Y0149267D01*
X0202584Y0148668D02*
X0205284Y0148668D01*
X0205421Y0148070D02*
X0202446Y0148070D01*
X0202198Y0147471D02*
X0205669Y0147471D01*
X0206027Y0146873D02*
X0201841Y0146873D01*
X0201242Y0146274D02*
X0206625Y0146274D01*
X0207730Y0145676D02*
X0200138Y0145676D01*
X0210138Y0145676D02*
X0210264Y0145676D01*
X0212711Y0147471D02*
X0215669Y0147471D01*
X0215421Y0148070D02*
X0212446Y0148070D01*
X0212584Y0148668D02*
X0215284Y0148668D01*
X0215284Y0149267D02*
X0212584Y0149267D01*
X0212579Y0149865D02*
X0215289Y0149865D01*
X0215536Y0150464D02*
X0212331Y0150464D01*
X0212083Y0151062D02*
X0215784Y0151062D01*
X0216305Y0151661D02*
X0211562Y0151661D01*
X0210911Y0152259D02*
X0216956Y0152259D01*
X0220911Y0152259D02*
X0236956Y0152259D01*
X0236866Y0152222D02*
X0235839Y0151195D01*
X0235284Y0149854D01*
X0235284Y0148402D01*
X0235839Y0147060D01*
X0236866Y0146033D01*
X0238208Y0145478D01*
X0239660Y0145478D01*
X0241001Y0146033D01*
X0242028Y0147060D01*
X0242584Y0148402D01*
X0242584Y0149854D01*
X0242028Y0151195D01*
X0241001Y0152222D01*
X0239660Y0152778D01*
X0238208Y0152778D01*
X0236866Y0152222D01*
X0236305Y0151661D02*
X0221562Y0151661D01*
X0222083Y0151062D02*
X0235784Y0151062D01*
X0235536Y0150464D02*
X0222331Y0150464D01*
X0222579Y0149865D02*
X0235289Y0149865D01*
X0235284Y0149267D02*
X0222584Y0149267D01*
X0222584Y0148668D02*
X0235284Y0148668D01*
X0235421Y0148070D02*
X0222446Y0148070D01*
X0222198Y0147471D02*
X0235669Y0147471D01*
X0236027Y0146873D02*
X0221841Y0146873D01*
X0221242Y0146274D02*
X0236625Y0146274D01*
X0237730Y0145676D02*
X0220434Y0145676D01*
X0220434Y0145077D02*
X0424779Y0145077D01*
X0424061Y0144479D02*
X0220434Y0144479D01*
X0220434Y0143880D02*
X0423343Y0143880D01*
X0422719Y0143282D02*
X0220434Y0143282D01*
X0220649Y0142683D02*
X0422692Y0142683D01*
X0422719Y0142085D02*
X0283450Y0142085D01*
X0282891Y0142643D02*
X0280945Y0142643D01*
X0279568Y0141266D01*
X0279568Y0139320D01*
X0280945Y0137943D01*
X0282891Y0137943D01*
X0284268Y0139320D01*
X0284268Y0141266D01*
X0282891Y0142643D01*
X0284048Y0141486D02*
X0422719Y0141486D01*
X0422719Y0140888D02*
X0284268Y0140888D01*
X0284268Y0140289D02*
X0422719Y0140289D01*
X0422719Y0139691D02*
X0284268Y0139691D01*
X0284040Y0139092D02*
X0422719Y0139092D01*
X0422719Y0138494D02*
X0283442Y0138494D01*
X0280394Y0138494D02*
X0275442Y0138494D01*
X0274891Y0137943D02*
X0276268Y0139320D01*
X0276268Y0141266D01*
X0274891Y0142643D01*
X0272945Y0142643D01*
X0271568Y0141266D01*
X0271568Y0139320D01*
X0272945Y0137943D01*
X0274891Y0137943D01*
X0276040Y0139092D02*
X0279796Y0139092D01*
X0279568Y0139691D02*
X0276268Y0139691D01*
X0276268Y0140289D02*
X0279568Y0140289D01*
X0279568Y0140888D02*
X0276268Y0140888D01*
X0276048Y0141486D02*
X0279788Y0141486D01*
X0280386Y0142085D02*
X0275450Y0142085D01*
X0272386Y0142085D02*
X0267450Y0142085D01*
X0266891Y0142643D02*
X0268268Y0141266D01*
X0268268Y0139320D01*
X0266891Y0137943D01*
X0264945Y0137943D01*
X0263568Y0139320D01*
X0263568Y0141266D01*
X0264945Y0142643D01*
X0266891Y0142643D01*
X0268048Y0141486D02*
X0271788Y0141486D01*
X0271568Y0140888D02*
X0268268Y0140888D01*
X0268268Y0140289D02*
X0271568Y0140289D01*
X0271568Y0139691D02*
X0268268Y0139691D01*
X0268040Y0139092D02*
X0271796Y0139092D01*
X0272394Y0138494D02*
X0267442Y0138494D01*
X0264394Y0138494D02*
X0251442Y0138494D01*
X0250891Y0137943D02*
X0252268Y0139320D01*
X0252268Y0141266D01*
X0250891Y0142643D01*
X0248945Y0142643D01*
X0247568Y0141266D01*
X0247568Y0139320D01*
X0248945Y0137943D01*
X0250891Y0137943D01*
X0252040Y0139092D02*
X0263796Y0139092D01*
X0263568Y0139691D02*
X0252268Y0139691D01*
X0252268Y0140289D02*
X0263568Y0140289D01*
X0263568Y0140888D02*
X0252268Y0140888D01*
X0252048Y0141486D02*
X0263788Y0141486D01*
X0264386Y0142085D02*
X0251450Y0142085D01*
X0248386Y0142085D02*
X0221248Y0142085D01*
X0221846Y0141486D02*
X0247788Y0141486D01*
X0247568Y0140888D02*
X0222445Y0140888D01*
X0223043Y0140289D02*
X0247568Y0140289D01*
X0247568Y0139691D02*
X0223642Y0139691D01*
X0224240Y0139092D02*
X0247796Y0139092D01*
X0248394Y0138494D02*
X0224839Y0138494D01*
X0225437Y0137895D02*
X0422719Y0137895D01*
X0422719Y0137296D02*
X0226036Y0137296D01*
X0226634Y0136698D02*
X0422719Y0136698D01*
X0422719Y0136099D02*
X0227233Y0136099D01*
X0227831Y0135501D02*
X0422719Y0135501D01*
X0422719Y0134902D02*
X0228430Y0134902D01*
X0229028Y0134304D02*
X0422719Y0134304D01*
X0422719Y0133705D02*
X0229627Y0133705D01*
X0230225Y0133107D02*
X0422719Y0133107D01*
X0422719Y0132508D02*
X0230824Y0132508D01*
X0231422Y0131910D02*
X0422719Y0131910D01*
X0422719Y0131311D02*
X0232021Y0131311D01*
X0232619Y0130713D02*
X0422719Y0130713D01*
X0422719Y0130114D02*
X0233218Y0130114D01*
X0233816Y0129516D02*
X0422719Y0129516D01*
X0422719Y0128917D02*
X0234415Y0128917D01*
X0235013Y0128319D02*
X0422719Y0128319D01*
X0422719Y0127720D02*
X0277314Y0127720D01*
X0276891Y0128143D02*
X0274945Y0128143D01*
X0273568Y0126766D01*
X0273568Y0124820D01*
X0274418Y0123970D01*
X0274418Y0112172D01*
X0276418Y0110172D01*
X0277297Y0109293D01*
X0299539Y0109293D01*
X0303039Y0112793D01*
X0303918Y0113672D01*
X0303918Y0114470D01*
X0304768Y0115320D01*
X0304768Y0117266D01*
X0303391Y0118643D01*
X0301445Y0118643D01*
X0300068Y0117266D01*
X0300068Y0115320D01*
X0300696Y0114692D01*
X0298297Y0112293D01*
X0278539Y0112293D01*
X0277418Y0113414D01*
X0277418Y0123970D01*
X0278268Y0124820D01*
X0278268Y0126766D01*
X0276891Y0128143D01*
X0277913Y0127122D02*
X0422719Y0127122D01*
X0422719Y0126523D02*
X0278268Y0126523D01*
X0278268Y0125925D02*
X0422719Y0125925D01*
X0422719Y0125326D02*
X0278268Y0125326D01*
X0278176Y0124728D02*
X0422719Y0124728D01*
X0422719Y0124129D02*
X0277578Y0124129D01*
X0277418Y0123531D02*
X0422719Y0123531D01*
X0422719Y0122932D02*
X0277418Y0122932D01*
X0277418Y0122334D02*
X0422719Y0122334D01*
X0422719Y0121735D02*
X0277418Y0121735D01*
X0277418Y0121137D02*
X0422719Y0121137D01*
X0422719Y0120538D02*
X0277418Y0120538D01*
X0277418Y0119940D02*
X0422719Y0119940D01*
X0422719Y0119341D02*
X0277418Y0119341D01*
X0277418Y0118743D02*
X0422719Y0118743D01*
X0422719Y0118144D02*
X0303890Y0118144D01*
X0304489Y0117546D02*
X0422719Y0117546D01*
X0422719Y0116947D02*
X0304768Y0116947D01*
X0304768Y0116349D02*
X0422719Y0116349D01*
X0422719Y0115750D02*
X0304768Y0115750D01*
X0304600Y0115152D02*
X0422719Y0115152D01*
X0423173Y0114553D02*
X0304001Y0114553D01*
X0303918Y0113955D02*
X0424134Y0113955D01*
X0425032Y0113356D02*
X0303602Y0113356D01*
X0303004Y0112758D02*
X0425929Y0112758D01*
X0426827Y0112159D02*
X0302405Y0112159D01*
X0301807Y0111560D02*
X0427725Y0111560D01*
X0428623Y0110962D02*
X0301208Y0110962D01*
X0300610Y0110363D02*
X0429520Y0110363D01*
X0430418Y0109765D02*
X0300011Y0109765D01*
X0298761Y0112758D02*
X0278075Y0112758D01*
X0277476Y0113356D02*
X0299360Y0113356D01*
X0299958Y0113955D02*
X0277418Y0113955D01*
X0277418Y0114553D02*
X0300557Y0114553D01*
X0300236Y0115152D02*
X0277418Y0115152D01*
X0277418Y0115750D02*
X0300068Y0115750D01*
X0300068Y0116349D02*
X0277418Y0116349D01*
X0277418Y0116947D02*
X0300068Y0116947D01*
X0300347Y0117546D02*
X0277418Y0117546D01*
X0277418Y0118144D02*
X0300946Y0118144D01*
X0276825Y0109765D02*
X0252418Y0109765D01*
X0252418Y0110363D02*
X0276226Y0110363D01*
X0275628Y0110962D02*
X0252370Y0110962D01*
X0251772Y0111560D02*
X0275029Y0111560D01*
X0274431Y0112159D02*
X0251173Y0112159D01*
X0251539Y0111793D02*
X0251539Y0111793D01*
X0250575Y0112758D02*
X0274418Y0112758D01*
X0274418Y0113356D02*
X0249976Y0113356D01*
X0249378Y0113955D02*
X0274418Y0113955D01*
X0274418Y0114553D02*
X0248779Y0114553D01*
X0248181Y0115152D02*
X0274418Y0115152D01*
X0274418Y0115750D02*
X0247582Y0115750D01*
X0246984Y0116349D02*
X0274418Y0116349D01*
X0274418Y0116947D02*
X0246385Y0116947D01*
X0246994Y0117546D02*
X0274418Y0117546D01*
X0274418Y0118144D02*
X0247593Y0118144D01*
X0248191Y0118743D02*
X0274418Y0118743D01*
X0274418Y0119341D02*
X0248268Y0119341D01*
X0248268Y0119940D02*
X0274418Y0119940D01*
X0274418Y0120538D02*
X0248268Y0120538D01*
X0247898Y0121137D02*
X0274418Y0121137D01*
X0274418Y0121735D02*
X0247299Y0121735D01*
X0244537Y0121735D02*
X0241597Y0121735D01*
X0242196Y0121137D02*
X0243938Y0121137D01*
X0243568Y0120538D02*
X0242794Y0120538D01*
X0243393Y0119940D02*
X0243568Y0119940D01*
X0240999Y0122334D02*
X0274418Y0122334D01*
X0274418Y0122932D02*
X0240400Y0122932D01*
X0239802Y0123531D02*
X0274418Y0123531D01*
X0274258Y0124129D02*
X0239203Y0124129D01*
X0238605Y0124728D02*
X0273660Y0124728D01*
X0273568Y0125326D02*
X0238006Y0125326D01*
X0237407Y0125925D02*
X0273568Y0125925D01*
X0273568Y0126523D02*
X0236809Y0126523D01*
X0236210Y0127122D02*
X0273923Y0127122D01*
X0274522Y0127720D02*
X0235612Y0127720D01*
X0223432Y0132508D02*
X0214457Y0132508D01*
X0215055Y0133107D02*
X0222833Y0133107D01*
X0222235Y0133705D02*
X0215654Y0133705D01*
X0215768Y0134304D02*
X0221636Y0134304D01*
X0221038Y0134902D02*
X0215768Y0134902D01*
X0215768Y0135501D02*
X0220439Y0135501D01*
X0219841Y0136099D02*
X0215435Y0136099D01*
X0214836Y0136698D02*
X0219242Y0136698D01*
X0217434Y0143282D02*
X0216901Y0143282D01*
X0217434Y0143880D02*
X0216303Y0143880D01*
X0215704Y0144479D02*
X0217434Y0144479D01*
X0217434Y0145077D02*
X0215106Y0145077D01*
X0214507Y0145676D02*
X0217434Y0145676D01*
X0216625Y0146274D02*
X0213909Y0146274D01*
X0213310Y0146873D02*
X0216027Y0146873D01*
X0240138Y0145676D02*
X0425497Y0145676D01*
X0426216Y0146274D02*
X0241242Y0146274D01*
X0241841Y0146873D02*
X0426934Y0146873D01*
X0427652Y0147471D02*
X0242198Y0147471D01*
X0242446Y0148070D02*
X0428370Y0148070D01*
X0429088Y0148668D02*
X0242584Y0148668D01*
X0242584Y0149267D02*
X0429807Y0149267D01*
X0430525Y0149865D02*
X0242579Y0149865D01*
X0242331Y0150464D02*
X0431243Y0150464D01*
X0431961Y0151062D02*
X0242083Y0151062D01*
X0241562Y0151661D02*
X0432679Y0151661D01*
X0433398Y0152259D02*
X0240911Y0152259D01*
X0234968Y0166025D02*
X0434530Y0166025D01*
X0434530Y0165427D02*
X0030810Y0165427D01*
X0030810Y0166025D02*
X0072900Y0166025D01*
X0073285Y0165865D02*
X0074583Y0165865D01*
X0075782Y0166362D01*
X0076699Y0167280D01*
X0077196Y0168479D01*
X0077196Y0169777D01*
X0076699Y0170976D01*
X0075782Y0171893D01*
X0074583Y0172390D01*
X0073285Y0172390D01*
X0072086Y0171893D01*
X0071168Y0170976D01*
X0070672Y0169777D01*
X0070672Y0168479D01*
X0071168Y0167280D01*
X0072086Y0166362D01*
X0073285Y0165865D01*
X0071824Y0166624D02*
X0030810Y0166624D01*
X0030810Y0167222D02*
X0071226Y0167222D01*
X0070944Y0167821D02*
X0030810Y0167821D01*
X0030810Y0168419D02*
X0070696Y0168419D01*
X0070672Y0169018D02*
X0030810Y0169018D01*
X0030810Y0169616D02*
X0070672Y0169616D01*
X0070853Y0170215D02*
X0030810Y0170215D01*
X0030810Y0170813D02*
X0071101Y0170813D01*
X0071604Y0171412D02*
X0030810Y0171412D01*
X0030810Y0172010D02*
X0072368Y0172010D01*
X0075499Y0172010D02*
X0232368Y0172010D01*
X0232086Y0171893D02*
X0231168Y0170976D01*
X0230672Y0169777D01*
X0230672Y0168479D01*
X0231168Y0167280D01*
X0232086Y0166362D01*
X0233285Y0165865D01*
X0234583Y0165865D01*
X0235782Y0166362D01*
X0236699Y0167280D01*
X0237196Y0168479D01*
X0237196Y0169777D01*
X0236699Y0170976D01*
X0235782Y0171893D01*
X0234583Y0172390D01*
X0233285Y0172390D01*
X0232086Y0171893D01*
X0231604Y0171412D02*
X0076263Y0171412D01*
X0076767Y0170813D02*
X0231101Y0170813D01*
X0230853Y0170215D02*
X0077014Y0170215D01*
X0077196Y0169616D02*
X0230672Y0169616D01*
X0230672Y0169018D02*
X0077196Y0169018D01*
X0077171Y0168419D02*
X0230696Y0168419D01*
X0230944Y0167821D02*
X0076923Y0167821D01*
X0076642Y0167222D02*
X0231226Y0167222D01*
X0231824Y0166624D02*
X0076043Y0166624D01*
X0074968Y0166025D02*
X0232900Y0166025D01*
X0236043Y0166624D02*
X0434530Y0166624D01*
X0434530Y0167222D02*
X0236642Y0167222D01*
X0236923Y0167821D02*
X0434530Y0167821D01*
X0434530Y0168419D02*
X0237171Y0168419D01*
X0237196Y0169018D02*
X0434530Y0169018D01*
X0434530Y0169616D02*
X0237196Y0169616D01*
X0237014Y0170215D02*
X0434530Y0170215D01*
X0434530Y0170813D02*
X0236767Y0170813D01*
X0236263Y0171412D02*
X0434530Y0171412D01*
X0434530Y0172010D02*
X0235499Y0172010D01*
X0266994Y0184523D02*
X0267583Y0183102D01*
X0268672Y0182013D01*
X0270093Y0181424D01*
X0271632Y0181424D01*
X0273054Y0182013D01*
X0274142Y0183102D01*
X0274731Y0184523D01*
X0274731Y0186062D01*
X0274142Y0187484D01*
X0273054Y0188573D01*
X0271632Y0189161D01*
X0270093Y0189161D01*
X0268672Y0188573D01*
X0267583Y0187484D01*
X0266994Y0186062D01*
X0266994Y0184523D01*
X0266994Y0184579D02*
X0054865Y0184579D01*
X0054865Y0185177D02*
X0266994Y0185177D01*
X0266994Y0185776D02*
X0054865Y0185776D01*
X0054865Y0186107D02*
X0053465Y0189488D01*
X0050877Y0192076D01*
X0047496Y0193476D01*
X0043836Y0193476D01*
X0040455Y0192076D01*
X0037867Y0189488D01*
X0036467Y0186107D01*
X0036467Y0182447D01*
X0037867Y0179066D01*
X0040455Y0176479D01*
X0043836Y0175078D01*
X0047496Y0175078D01*
X0050877Y0176479D01*
X0053465Y0179066D01*
X0054865Y0182447D01*
X0054865Y0186107D01*
X0054754Y0186374D02*
X0267124Y0186374D01*
X0267371Y0186973D02*
X0054507Y0186973D01*
X0054259Y0187571D02*
X0267670Y0187571D01*
X0268269Y0188170D02*
X0054011Y0188170D01*
X0053763Y0188768D02*
X0269145Y0188768D01*
X0272581Y0188768D02*
X0434530Y0188768D01*
X0434530Y0188170D02*
X0273457Y0188170D01*
X0274055Y0187571D02*
X0434530Y0187571D01*
X0434530Y0186973D02*
X0274354Y0186973D01*
X0274602Y0186374D02*
X0434530Y0186374D01*
X0434530Y0185776D02*
X0274731Y0185776D01*
X0274731Y0185177D02*
X0434530Y0185177D01*
X0434530Y0184579D02*
X0274731Y0184579D01*
X0274506Y0183980D02*
X0434530Y0183980D01*
X0434530Y0183382D02*
X0274258Y0183382D01*
X0273824Y0182783D02*
X0434530Y0182783D01*
X0434530Y0182185D02*
X0273226Y0182185D01*
X0272023Y0181586D02*
X0434530Y0181586D01*
X0434530Y0180988D02*
X0054261Y0180988D01*
X0054509Y0181586D02*
X0269703Y0181586D01*
X0268500Y0182185D02*
X0054756Y0182185D01*
X0054865Y0182783D02*
X0267902Y0182783D01*
X0267467Y0183382D02*
X0054865Y0183382D01*
X0054865Y0183980D02*
X0267219Y0183980D01*
X0171643Y0119341D02*
X0148018Y0119341D01*
X0148018Y0118743D02*
X0171044Y0118743D01*
X0173148Y0114553D02*
X0230538Y0114553D01*
X0229940Y0115152D02*
X0174100Y0115152D01*
X0176866Y0112222D02*
X0175839Y0111195D01*
X0175284Y0109854D01*
X0175284Y0108402D01*
X0175839Y0107060D01*
X0176866Y0106033D01*
X0178208Y0105478D01*
X0179660Y0105478D01*
X0181001Y0106033D01*
X0182028Y0107060D01*
X0182584Y0108402D01*
X0182584Y0109854D01*
X0182028Y0111195D01*
X0181001Y0112222D01*
X0179660Y0112778D01*
X0178208Y0112778D01*
X0176866Y0112222D01*
X0176803Y0112159D02*
X0171064Y0112159D01*
X0171001Y0112222D02*
X0169660Y0112778D01*
X0168208Y0112778D01*
X0166866Y0112222D01*
X0165839Y0111195D01*
X0165284Y0109854D01*
X0165284Y0108402D01*
X0165839Y0107060D01*
X0166866Y0106033D01*
X0168208Y0105478D01*
X0169660Y0105478D01*
X0171001Y0106033D01*
X0172028Y0107060D01*
X0172584Y0108402D01*
X0172584Y0109854D01*
X0172028Y0111195D01*
X0171001Y0112222D01*
X0171663Y0111560D02*
X0176205Y0111560D01*
X0175743Y0110962D02*
X0172125Y0110962D01*
X0172373Y0110363D02*
X0175495Y0110363D01*
X0175284Y0109765D02*
X0172584Y0109765D01*
X0172584Y0109166D02*
X0175284Y0109166D01*
X0175284Y0108568D02*
X0172584Y0108568D01*
X0172405Y0107969D02*
X0175463Y0107969D01*
X0175711Y0107371D02*
X0172157Y0107371D01*
X0171740Y0106772D02*
X0176127Y0106772D01*
X0176726Y0106174D02*
X0171142Y0106174D01*
X0169896Y0105575D02*
X0177972Y0105575D01*
X0179896Y0105575D02*
X0187972Y0105575D01*
X0188208Y0105478D02*
X0189660Y0105478D01*
X0191001Y0106033D01*
X0192028Y0107060D01*
X0192584Y0108402D01*
X0192584Y0109854D01*
X0192028Y0111195D01*
X0191001Y0112222D01*
X0189660Y0112778D01*
X0188208Y0112778D01*
X0186866Y0112222D01*
X0185839Y0111195D01*
X0185284Y0109854D01*
X0185284Y0108402D01*
X0185839Y0107060D01*
X0186866Y0106033D01*
X0188208Y0105478D01*
X0186726Y0106174D02*
X0181142Y0106174D01*
X0181740Y0106772D02*
X0186127Y0106772D01*
X0185711Y0107371D02*
X0182157Y0107371D01*
X0182405Y0107969D02*
X0185463Y0107969D01*
X0185284Y0108568D02*
X0182584Y0108568D01*
X0182584Y0109166D02*
X0185284Y0109166D01*
X0185284Y0109765D02*
X0182584Y0109765D01*
X0182373Y0110363D02*
X0185495Y0110363D01*
X0185743Y0110962D02*
X0182125Y0110962D01*
X0181663Y0111560D02*
X0186205Y0111560D01*
X0186803Y0112159D02*
X0181064Y0112159D01*
X0179708Y0112758D02*
X0188159Y0112758D01*
X0189708Y0112758D02*
X0198159Y0112758D01*
X0198208Y0112778D02*
X0196866Y0112222D01*
X0195839Y0111195D01*
X0195284Y0109854D01*
X0195284Y0108402D01*
X0195839Y0107060D01*
X0196866Y0106033D01*
X0198208Y0105478D01*
X0199660Y0105478D01*
X0201001Y0106033D01*
X0202028Y0107060D01*
X0202584Y0108402D01*
X0202584Y0109854D01*
X0202028Y0111195D01*
X0201001Y0112222D01*
X0199660Y0112778D01*
X0198208Y0112778D01*
X0199708Y0112758D02*
X0218159Y0112758D01*
X0218208Y0112778D02*
X0216866Y0112222D01*
X0215839Y0111195D01*
X0215284Y0109854D01*
X0215284Y0108402D01*
X0215839Y0107060D01*
X0216866Y0106033D01*
X0218208Y0105478D01*
X0219660Y0105478D01*
X0221001Y0106033D01*
X0222028Y0107060D01*
X0222584Y0108402D01*
X0222584Y0109854D01*
X0222028Y0111195D01*
X0221001Y0112222D01*
X0219660Y0112778D01*
X0218208Y0112778D01*
X0219708Y0112758D02*
X0228159Y0112758D01*
X0228208Y0112778D02*
X0226866Y0112222D01*
X0225839Y0111195D01*
X0225284Y0109854D01*
X0225284Y0108402D01*
X0225839Y0107060D01*
X0226866Y0106033D01*
X0228208Y0105478D01*
X0229660Y0105478D01*
X0231001Y0106033D01*
X0232028Y0107060D01*
X0232584Y0108402D01*
X0232584Y0109854D01*
X0232028Y0111195D01*
X0231001Y0112222D01*
X0229660Y0112778D01*
X0228208Y0112778D01*
X0229708Y0112758D02*
X0232334Y0112758D01*
X0232932Y0112159D02*
X0231064Y0112159D01*
X0231663Y0111560D02*
X0233531Y0111560D01*
X0234130Y0110962D02*
X0232125Y0110962D01*
X0232373Y0110363D02*
X0234728Y0110363D01*
X0235284Y0109765D02*
X0232584Y0109765D01*
X0232584Y0109166D02*
X0235284Y0109166D01*
X0235284Y0108568D02*
X0232584Y0108568D01*
X0232405Y0107969D02*
X0235463Y0107969D01*
X0235711Y0107371D02*
X0232157Y0107371D01*
X0231740Y0106772D02*
X0236127Y0106772D01*
X0236726Y0106174D02*
X0231142Y0106174D01*
X0229896Y0105575D02*
X0237972Y0105575D01*
X0227972Y0105575D02*
X0219896Y0105575D01*
X0221142Y0106174D02*
X0226726Y0106174D01*
X0226127Y0106772D02*
X0221740Y0106772D01*
X0222157Y0107371D02*
X0225711Y0107371D01*
X0225463Y0107969D02*
X0222405Y0107969D01*
X0222584Y0108568D02*
X0225284Y0108568D01*
X0225284Y0109166D02*
X0222584Y0109166D01*
X0222584Y0109765D02*
X0225284Y0109765D01*
X0225495Y0110363D02*
X0222373Y0110363D01*
X0222125Y0110962D02*
X0225743Y0110962D01*
X0226205Y0111560D02*
X0221663Y0111560D01*
X0221064Y0112159D02*
X0226803Y0112159D01*
X0216803Y0112159D02*
X0201064Y0112159D01*
X0201663Y0111560D02*
X0216205Y0111560D01*
X0215743Y0110962D02*
X0202125Y0110962D01*
X0202373Y0110363D02*
X0215495Y0110363D01*
X0215284Y0109765D02*
X0202584Y0109765D01*
X0202584Y0109166D02*
X0215284Y0109166D01*
X0215284Y0108568D02*
X0202584Y0108568D01*
X0202405Y0107969D02*
X0215463Y0107969D01*
X0215711Y0107371D02*
X0202157Y0107371D01*
X0201740Y0106772D02*
X0216127Y0106772D01*
X0216726Y0106174D02*
X0201142Y0106174D01*
X0199896Y0105575D02*
X0217972Y0105575D01*
X0197972Y0105575D02*
X0189896Y0105575D01*
X0191142Y0106174D02*
X0196726Y0106174D01*
X0196127Y0106772D02*
X0191740Y0106772D01*
X0192157Y0107371D02*
X0195711Y0107371D01*
X0195463Y0107969D02*
X0192405Y0107969D01*
X0192584Y0108568D02*
X0195284Y0108568D01*
X0195284Y0109166D02*
X0192584Y0109166D01*
X0192584Y0109765D02*
X0195284Y0109765D01*
X0195495Y0110363D02*
X0192373Y0110363D01*
X0192125Y0110962D02*
X0195743Y0110962D01*
X0196205Y0111560D02*
X0191663Y0111560D01*
X0191064Y0112159D02*
X0196803Y0112159D01*
X0178159Y0112758D02*
X0169708Y0112758D01*
X0168159Y0112758D02*
X0159708Y0112758D01*
X0159660Y0112778D02*
X0158208Y0112778D01*
X0156866Y0112222D01*
X0155839Y0111195D01*
X0155284Y0109854D01*
X0155284Y0108402D01*
X0155839Y0107060D01*
X0156866Y0106033D01*
X0158208Y0105478D01*
X0159660Y0105478D01*
X0161001Y0106033D01*
X0162028Y0107060D01*
X0162584Y0108402D01*
X0162584Y0109854D01*
X0162028Y0111195D01*
X0161001Y0112222D01*
X0159660Y0112778D01*
X0158159Y0112758D02*
X0149708Y0112758D01*
X0149660Y0112778D02*
X0148208Y0112778D01*
X0146866Y0112222D01*
X0145839Y0111195D01*
X0145284Y0109854D01*
X0145284Y0108402D01*
X0145839Y0107060D01*
X0146866Y0106033D01*
X0148208Y0105478D01*
X0149660Y0105478D01*
X0151001Y0106033D01*
X0152028Y0107060D01*
X0152584Y0108402D01*
X0152584Y0109854D01*
X0152028Y0111195D01*
X0151001Y0112222D01*
X0149660Y0112778D01*
X0148159Y0112758D02*
X0139708Y0112758D01*
X0139660Y0112778D02*
X0138208Y0112778D01*
X0136866Y0112222D01*
X0135839Y0111195D01*
X0135284Y0109854D01*
X0135284Y0108402D01*
X0135839Y0107060D01*
X0136866Y0106033D01*
X0138208Y0105478D01*
X0139660Y0105478D01*
X0141001Y0106033D01*
X0142028Y0107060D01*
X0142584Y0108402D01*
X0142584Y0109854D01*
X0142028Y0111195D01*
X0141001Y0112222D01*
X0139660Y0112778D01*
X0138159Y0112758D02*
X0129708Y0112758D01*
X0129660Y0112778D02*
X0128208Y0112778D01*
X0126866Y0112222D01*
X0125839Y0111195D01*
X0125284Y0109854D01*
X0125284Y0108402D01*
X0125839Y0107060D01*
X0126866Y0106033D01*
X0128208Y0105478D01*
X0129660Y0105478D01*
X0131001Y0106033D01*
X0132028Y0107060D01*
X0132584Y0108402D01*
X0132584Y0109854D01*
X0132028Y0111195D01*
X0131001Y0112222D01*
X0129660Y0112778D01*
X0128159Y0112758D02*
X0119708Y0112758D01*
X0119660Y0112778D02*
X0121001Y0112222D01*
X0122028Y0111195D01*
X0122584Y0109854D01*
X0122584Y0108402D01*
X0122028Y0107060D01*
X0121001Y0106033D01*
X0119660Y0105478D01*
X0118208Y0105478D01*
X0116866Y0106033D01*
X0115839Y0107060D01*
X0115284Y0108402D01*
X0115284Y0109854D01*
X0115839Y0111195D01*
X0116866Y0112222D01*
X0118208Y0112778D01*
X0119660Y0112778D01*
X0118159Y0112758D02*
X0109708Y0112758D01*
X0109660Y0112778D02*
X0108208Y0112778D01*
X0106866Y0112222D01*
X0105839Y0111195D01*
X0105284Y0109854D01*
X0105284Y0108402D01*
X0105839Y0107060D01*
X0106866Y0106033D01*
X0108208Y0105478D01*
X0109660Y0105478D01*
X0111001Y0106033D01*
X0112028Y0107060D01*
X0112584Y0108402D01*
X0112584Y0109854D01*
X0112028Y0111195D01*
X0111001Y0112222D01*
X0109660Y0112778D01*
X0108159Y0112758D02*
X0099708Y0112758D01*
X0099660Y0112778D02*
X0098208Y0112778D01*
X0096866Y0112222D01*
X0095839Y0111195D01*
X0095284Y0109854D01*
X0095284Y0108402D01*
X0095839Y0107060D01*
X0096866Y0106033D01*
X0098208Y0105478D01*
X0099660Y0105478D01*
X0101001Y0106033D01*
X0102028Y0107060D01*
X0102584Y0108402D01*
X0102584Y0109854D01*
X0102028Y0111195D01*
X0101001Y0112222D01*
X0099660Y0112778D01*
X0098159Y0112758D02*
X0089708Y0112758D01*
X0089660Y0112778D02*
X0088208Y0112778D01*
X0086866Y0112222D01*
X0085839Y0111195D01*
X0085284Y0109854D01*
X0085284Y0108402D01*
X0085839Y0107060D01*
X0086866Y0106033D01*
X0088208Y0105478D01*
X0089660Y0105478D01*
X0091001Y0106033D01*
X0092028Y0107060D01*
X0092584Y0108402D01*
X0092584Y0109854D01*
X0092028Y0111195D01*
X0091001Y0112222D01*
X0089660Y0112778D01*
X0088159Y0112758D02*
X0079708Y0112758D01*
X0081064Y0112159D02*
X0086803Y0112159D01*
X0086205Y0111560D02*
X0081663Y0111560D01*
X0082125Y0110962D02*
X0085743Y0110962D01*
X0085495Y0110363D02*
X0082373Y0110363D01*
X0082584Y0109765D02*
X0085284Y0109765D01*
X0085284Y0109166D02*
X0082584Y0109166D01*
X0082584Y0108568D02*
X0085284Y0108568D01*
X0085463Y0107969D02*
X0082405Y0107969D01*
X0082157Y0107371D02*
X0085711Y0107371D01*
X0086127Y0106772D02*
X0081740Y0106772D01*
X0081142Y0106174D02*
X0086726Y0106174D01*
X0087972Y0105575D02*
X0079896Y0105575D01*
X0089896Y0105575D02*
X0097972Y0105575D01*
X0096726Y0106174D02*
X0091142Y0106174D01*
X0091740Y0106772D02*
X0096127Y0106772D01*
X0095711Y0107371D02*
X0092157Y0107371D01*
X0092405Y0107969D02*
X0095463Y0107969D01*
X0095284Y0108568D02*
X0092584Y0108568D01*
X0092584Y0109166D02*
X0095284Y0109166D01*
X0095284Y0109765D02*
X0092584Y0109765D01*
X0092373Y0110363D02*
X0095495Y0110363D01*
X0095743Y0110962D02*
X0092125Y0110962D01*
X0091663Y0111560D02*
X0096205Y0111560D01*
X0096803Y0112159D02*
X0091064Y0112159D01*
X0101064Y0112159D02*
X0106803Y0112159D01*
X0106205Y0111560D02*
X0101663Y0111560D01*
X0102125Y0110962D02*
X0105743Y0110962D01*
X0105495Y0110363D02*
X0102373Y0110363D01*
X0102584Y0109765D02*
X0105284Y0109765D01*
X0105284Y0109166D02*
X0102584Y0109166D01*
X0102584Y0108568D02*
X0105284Y0108568D01*
X0105463Y0107969D02*
X0102405Y0107969D01*
X0102157Y0107371D02*
X0105711Y0107371D01*
X0106127Y0106772D02*
X0101740Y0106772D01*
X0101142Y0106174D02*
X0106726Y0106174D01*
X0107972Y0105575D02*
X0099896Y0105575D01*
X0109896Y0105575D02*
X0117972Y0105575D01*
X0116726Y0106174D02*
X0111142Y0106174D01*
X0111740Y0106772D02*
X0116127Y0106772D01*
X0115711Y0107371D02*
X0112157Y0107371D01*
X0112405Y0107969D02*
X0115463Y0107969D01*
X0115284Y0108568D02*
X0112584Y0108568D01*
X0112584Y0109166D02*
X0115284Y0109166D01*
X0115284Y0109765D02*
X0112584Y0109765D01*
X0112373Y0110363D02*
X0115495Y0110363D01*
X0115743Y0110962D02*
X0112125Y0110962D01*
X0111663Y0111560D02*
X0116205Y0111560D01*
X0116803Y0112159D02*
X0111064Y0112159D01*
X0121064Y0112159D02*
X0126803Y0112159D01*
X0126205Y0111560D02*
X0121663Y0111560D01*
X0122125Y0110962D02*
X0125743Y0110962D01*
X0125495Y0110363D02*
X0122373Y0110363D01*
X0122584Y0109765D02*
X0125284Y0109765D01*
X0125284Y0109166D02*
X0122584Y0109166D01*
X0122584Y0108568D02*
X0125284Y0108568D01*
X0125463Y0107969D02*
X0122405Y0107969D01*
X0122157Y0107371D02*
X0125711Y0107371D01*
X0126127Y0106772D02*
X0121740Y0106772D01*
X0121142Y0106174D02*
X0126726Y0106174D01*
X0127972Y0105575D02*
X0119896Y0105575D01*
X0129896Y0105575D02*
X0137972Y0105575D01*
X0136726Y0106174D02*
X0131142Y0106174D01*
X0131740Y0106772D02*
X0136127Y0106772D01*
X0135711Y0107371D02*
X0132157Y0107371D01*
X0132405Y0107969D02*
X0135463Y0107969D01*
X0135284Y0108568D02*
X0132584Y0108568D01*
X0132584Y0109166D02*
X0135284Y0109166D01*
X0135284Y0109765D02*
X0132584Y0109765D01*
X0132373Y0110363D02*
X0135495Y0110363D01*
X0135743Y0110962D02*
X0132125Y0110962D01*
X0131663Y0111560D02*
X0136205Y0111560D01*
X0136803Y0112159D02*
X0131064Y0112159D01*
X0141064Y0112159D02*
X0146803Y0112159D01*
X0146205Y0111560D02*
X0141663Y0111560D01*
X0142125Y0110962D02*
X0145743Y0110962D01*
X0145495Y0110363D02*
X0142373Y0110363D01*
X0142584Y0109765D02*
X0145284Y0109765D01*
X0145284Y0109166D02*
X0142584Y0109166D01*
X0142584Y0108568D02*
X0145284Y0108568D01*
X0145463Y0107969D02*
X0142405Y0107969D01*
X0142157Y0107371D02*
X0145711Y0107371D01*
X0146127Y0106772D02*
X0141740Y0106772D01*
X0141142Y0106174D02*
X0146726Y0106174D01*
X0147972Y0105575D02*
X0139896Y0105575D01*
X0149896Y0105575D02*
X0157972Y0105575D01*
X0156726Y0106174D02*
X0151142Y0106174D01*
X0151740Y0106772D02*
X0156127Y0106772D01*
X0155711Y0107371D02*
X0152157Y0107371D01*
X0152405Y0107969D02*
X0155463Y0107969D01*
X0155284Y0108568D02*
X0152584Y0108568D01*
X0152584Y0109166D02*
X0155284Y0109166D01*
X0155284Y0109765D02*
X0152584Y0109765D01*
X0152373Y0110363D02*
X0155495Y0110363D01*
X0155743Y0110962D02*
X0152125Y0110962D01*
X0151663Y0111560D02*
X0156205Y0111560D01*
X0156803Y0112159D02*
X0151064Y0112159D01*
X0161064Y0112159D02*
X0166803Y0112159D01*
X0166205Y0111560D02*
X0161663Y0111560D01*
X0162125Y0110962D02*
X0165743Y0110962D01*
X0165495Y0110363D02*
X0162373Y0110363D01*
X0162584Y0109765D02*
X0165284Y0109765D01*
X0165284Y0109166D02*
X0162584Y0109166D01*
X0162584Y0108568D02*
X0165284Y0108568D01*
X0165463Y0107969D02*
X0162405Y0107969D01*
X0162157Y0107371D02*
X0165711Y0107371D01*
X0166127Y0106772D02*
X0161740Y0106772D01*
X0161142Y0106174D02*
X0166726Y0106174D01*
X0167972Y0105575D02*
X0159896Y0105575D01*
X0151266Y0127122D02*
X0148018Y0127122D01*
X0148018Y0127720D02*
X0150667Y0127720D01*
X0150069Y0128319D02*
X0148018Y0128319D01*
X0148018Y0128917D02*
X0150068Y0128917D01*
X0150068Y0129516D02*
X0148018Y0129516D01*
X0148018Y0130114D02*
X0150068Y0130114D01*
X0150514Y0130713D02*
X0148018Y0130713D01*
X0148018Y0131311D02*
X0151113Y0131311D01*
X0055818Y0122932D02*
X0044033Y0122932D01*
X0044631Y0122334D02*
X0055818Y0122334D01*
X0055818Y0121735D02*
X0044922Y0121735D01*
X0045170Y0121137D02*
X0055818Y0121137D01*
X0055818Y0120538D02*
X0045204Y0120538D01*
X0045204Y0119940D02*
X0055818Y0119940D01*
X0055818Y0119341D02*
X0045034Y0119341D01*
X0030810Y0100787D02*
X0247418Y0100787D01*
X0247418Y0100189D02*
X0030810Y0100189D01*
X0030810Y0099590D02*
X0247418Y0099590D01*
X0247418Y0098992D02*
X0030810Y0098992D01*
X0030810Y0098393D02*
X0247418Y0098393D01*
X0247418Y0097795D02*
X0030810Y0097795D01*
X0030810Y0097196D02*
X0247418Y0097196D01*
X0247418Y0096598D02*
X0030810Y0096598D01*
X0030810Y0095999D02*
X0247418Y0095999D01*
X0247418Y0095401D02*
X0030810Y0095401D01*
X0030810Y0094802D02*
X0247418Y0094802D01*
X0247418Y0094204D02*
X0030810Y0094204D01*
X0030810Y0093605D02*
X0247418Y0093605D01*
X0247418Y0093007D02*
X0030810Y0093007D01*
X0030810Y0157646D02*
X0434530Y0157646D01*
X0434530Y0158244D02*
X0043303Y0158244D01*
X0043783Y0158443D02*
X0044705Y0159365D01*
X0045204Y0160570D01*
X0045204Y0161874D01*
X0044705Y0163079D01*
X0043783Y0164001D01*
X0042578Y0164500D01*
X0041274Y0164500D01*
X0040069Y0164001D01*
X0039147Y0163079D01*
X0038648Y0161874D01*
X0038648Y0160570D01*
X0039147Y0159365D01*
X0040069Y0158443D01*
X0041274Y0157944D01*
X0042578Y0157944D01*
X0043783Y0158443D01*
X0044182Y0158843D02*
X0434530Y0158843D01*
X0434530Y0159441D02*
X0044736Y0159441D01*
X0044984Y0160040D02*
X0434530Y0160040D01*
X0434530Y0160638D02*
X0045204Y0160638D01*
X0045204Y0161237D02*
X0434530Y0161237D01*
X0434530Y0161835D02*
X0045204Y0161835D01*
X0044972Y0162434D02*
X0434530Y0162434D01*
X0434530Y0163032D02*
X0044724Y0163032D01*
X0044153Y0163631D02*
X0434530Y0163631D01*
X0434530Y0164229D02*
X0043231Y0164229D01*
X0040621Y0164229D02*
X0030810Y0164229D01*
X0030810Y0163631D02*
X0039699Y0163631D01*
X0039128Y0163032D02*
X0030810Y0163032D01*
X0030810Y0162434D02*
X0038880Y0162434D01*
X0038648Y0161835D02*
X0030810Y0161835D01*
X0030810Y0161237D02*
X0038648Y0161237D01*
X0038648Y0160638D02*
X0030810Y0160638D01*
X0030810Y0160040D02*
X0038867Y0160040D01*
X0039115Y0159441D02*
X0030810Y0159441D01*
X0030810Y0158843D02*
X0039669Y0158843D01*
X0040549Y0158244D02*
X0030810Y0158244D01*
X0030810Y0164828D02*
X0434530Y0164828D01*
X0434530Y0172609D02*
X0030810Y0172609D01*
X0030810Y0173207D02*
X0434530Y0173207D01*
X0434530Y0173806D02*
X0030810Y0173806D01*
X0030810Y0174404D02*
X0434530Y0174404D01*
X0434530Y0175003D02*
X0030810Y0175003D01*
X0030810Y0175601D02*
X0042573Y0175601D01*
X0041128Y0176200D02*
X0030810Y0176200D01*
X0030810Y0176798D02*
X0040135Y0176798D01*
X0039537Y0177397D02*
X0030810Y0177397D01*
X0030810Y0177995D02*
X0038938Y0177995D01*
X0038340Y0178594D02*
X0030810Y0178594D01*
X0030810Y0179192D02*
X0037815Y0179192D01*
X0037567Y0179791D02*
X0030810Y0179791D01*
X0030810Y0180389D02*
X0037319Y0180389D01*
X0037071Y0180988D02*
X0030810Y0180988D01*
X0030810Y0181586D02*
X0036823Y0181586D01*
X0036576Y0182185D02*
X0030810Y0182185D01*
X0030810Y0182783D02*
X0036467Y0182783D01*
X0036467Y0183382D02*
X0030810Y0183382D01*
X0030810Y0183980D02*
X0036467Y0183980D01*
X0036467Y0184579D02*
X0030810Y0184579D01*
X0030810Y0185177D02*
X0036467Y0185177D01*
X0036467Y0185776D02*
X0030810Y0185776D01*
X0030810Y0186374D02*
X0036578Y0186374D01*
X0036825Y0186973D02*
X0030810Y0186973D01*
X0030810Y0187571D02*
X0037073Y0187571D01*
X0037321Y0188170D02*
X0030810Y0188170D01*
X0030810Y0188768D02*
X0037569Y0188768D01*
X0037817Y0189367D02*
X0030810Y0189367D01*
X0030810Y0189965D02*
X0038345Y0189965D01*
X0038943Y0190564D02*
X0030810Y0190564D01*
X0030810Y0191162D02*
X0039542Y0191162D01*
X0040140Y0191761D02*
X0030810Y0191761D01*
X0030830Y0192360D02*
X0041140Y0192360D01*
X0042585Y0192958D02*
X0030889Y0192958D01*
X0030959Y0193557D02*
X0434373Y0193557D01*
X0434443Y0192958D02*
X0048747Y0192958D01*
X0050192Y0192360D02*
X0434502Y0192360D01*
X0434530Y0191761D02*
X0051192Y0191761D01*
X0051790Y0191162D02*
X0434530Y0191162D01*
X0434530Y0190564D02*
X0052389Y0190564D01*
X0052987Y0189965D02*
X0434530Y0189965D01*
X0434530Y0189367D02*
X0053515Y0189367D01*
X0054013Y0180389D02*
X0434530Y0180389D01*
X0434530Y0179791D02*
X0053765Y0179791D01*
X0053517Y0179192D02*
X0434530Y0179192D01*
X0434530Y0178594D02*
X0052992Y0178594D01*
X0052394Y0177995D02*
X0434530Y0177995D01*
X0434530Y0177397D02*
X0051795Y0177397D01*
X0051197Y0176798D02*
X0434530Y0176798D01*
X0434530Y0176200D02*
X0050204Y0176200D01*
X0048759Y0175601D02*
X0434530Y0175601D01*
X0434125Y0194155D02*
X0031207Y0194155D01*
X0031455Y0194754D02*
X0433877Y0194754D01*
X0433629Y0195352D02*
X0031703Y0195352D01*
X0031951Y0195951D02*
X0433381Y0195951D01*
X0432831Y0196549D02*
X0032501Y0196549D01*
X0033099Y0197148D02*
X0432233Y0197148D01*
X0431634Y0197746D02*
X0033698Y0197746D01*
X0034843Y0198345D02*
X0430489Y0198345D01*
X0429044Y0198943D02*
X0036288Y0198943D01*
X0252418Y0109166D02*
X0431316Y0109166D01*
X0432214Y0108568D02*
X0252418Y0108568D01*
X0252418Y0107969D02*
X0433112Y0107969D01*
X0434009Y0107371D02*
X0252418Y0107371D01*
X0252418Y0106772D02*
X0434530Y0106772D01*
X0434530Y0106174D02*
X0252418Y0106174D01*
X0252418Y0105575D02*
X0434530Y0105575D01*
X0434530Y0104977D02*
X0252418Y0104977D01*
X0252418Y0104378D02*
X0434530Y0104378D01*
X0434530Y0103780D02*
X0252418Y0103780D01*
X0252418Y0103181D02*
X0434530Y0103181D01*
X0434530Y0102583D02*
X0252418Y0102583D01*
X0252418Y0101984D02*
X0434530Y0101984D01*
X0434530Y0101386D02*
X0252418Y0101386D01*
X0252418Y0100787D02*
X0434530Y0100787D01*
X0434530Y0100189D02*
X0252418Y0100189D01*
X0252418Y0099590D02*
X0434530Y0099590D01*
X0434530Y0098992D02*
X0252418Y0098992D01*
X0252418Y0098393D02*
X0434530Y0098393D01*
X0434530Y0097795D02*
X0252418Y0097795D01*
X0252418Y0097196D02*
X0434530Y0097196D01*
X0434530Y0096598D02*
X0252418Y0096598D01*
X0252418Y0095999D02*
X0434530Y0095999D01*
X0434530Y0095401D02*
X0252418Y0095401D01*
X0252418Y0094802D02*
X0434530Y0094802D01*
X0434530Y0094204D02*
X0252418Y0094204D01*
X0252418Y0093605D02*
X0434530Y0093605D01*
X0434530Y0093007D02*
X0252418Y0093007D01*
X0252418Y0092408D02*
X0434530Y0092408D01*
X0434530Y0091810D02*
X0252418Y0091810D01*
X0252418Y0091211D02*
X0434530Y0091211D01*
X0434530Y0090613D02*
X0252418Y0090613D01*
X0252418Y0090014D02*
X0434530Y0090014D01*
X0434530Y0089416D02*
X0252418Y0089416D01*
X0252418Y0088817D02*
X0434530Y0088817D01*
X0434530Y0088219D02*
X0252418Y0088219D01*
X0252418Y0087620D02*
X0434530Y0087620D01*
X0434530Y0087022D02*
X0252418Y0087022D01*
X0252418Y0086423D02*
X0434530Y0086423D01*
X0434530Y0085825D02*
X0252418Y0085825D01*
X0252418Y0085226D02*
X0434530Y0085226D01*
X0434530Y0084627D02*
X0298407Y0084627D01*
X0298391Y0084643D02*
X0296445Y0084643D01*
X0295068Y0083266D01*
X0295068Y0081320D01*
X0296445Y0079943D01*
X0298391Y0079943D01*
X0299768Y0081320D01*
X0299768Y0083266D01*
X0298391Y0084643D01*
X0299005Y0084029D02*
X0434530Y0084029D01*
X0434530Y0083430D02*
X0299604Y0083430D01*
X0299768Y0082832D02*
X0434530Y0082832D01*
X0434530Y0082233D02*
X0299768Y0082233D01*
X0299768Y0081635D02*
X0434530Y0081635D01*
X0434530Y0081036D02*
X0299485Y0081036D01*
X0298886Y0080438D02*
X0434530Y0080438D01*
X0434530Y0079839D02*
X0255493Y0079839D01*
X0256091Y0079241D02*
X0434530Y0079241D01*
X0434530Y0078642D02*
X0277392Y0078642D01*
X0276891Y0079143D02*
X0274945Y0079143D01*
X0273568Y0077766D01*
X0273568Y0075820D01*
X0274945Y0074443D01*
X0275745Y0074443D01*
X0274568Y0073266D01*
X0274568Y0071320D01*
X0275945Y0069943D01*
X0277891Y0069943D01*
X0279268Y0071320D01*
X0279268Y0073266D01*
X0277891Y0074643D01*
X0277091Y0074643D01*
X0278268Y0075820D01*
X0278268Y0077766D01*
X0276891Y0079143D01*
X0277990Y0078044D02*
X0434530Y0078044D01*
X0434530Y0077445D02*
X0278268Y0077445D01*
X0278268Y0076847D02*
X0434530Y0076847D01*
X0434530Y0076248D02*
X0278268Y0076248D01*
X0278098Y0075650D02*
X0434530Y0075650D01*
X0434530Y0075051D02*
X0277500Y0075051D01*
X0278082Y0074453D02*
X0434530Y0074453D01*
X0434530Y0073854D02*
X0278680Y0073854D01*
X0279268Y0073256D02*
X0434530Y0073256D01*
X0434530Y0072657D02*
X0279268Y0072657D01*
X0279268Y0072059D02*
X0434530Y0072059D01*
X0434530Y0071460D02*
X0279268Y0071460D01*
X0278810Y0070862D02*
X0434530Y0070862D01*
X0434530Y0070263D02*
X0278212Y0070263D01*
X0275624Y0070263D02*
X0274271Y0070263D01*
X0274768Y0069665D02*
X0434530Y0069665D01*
X0434530Y0069066D02*
X0300468Y0069066D01*
X0299891Y0069643D02*
X0297945Y0069643D01*
X0296568Y0068266D01*
X0296568Y0066320D01*
X0297945Y0064943D01*
X0299891Y0064943D01*
X0301268Y0066320D01*
X0301268Y0068266D01*
X0299891Y0069643D01*
X0301067Y0068468D02*
X0434530Y0068468D01*
X0434530Y0067869D02*
X0301268Y0067869D01*
X0301268Y0067271D02*
X0434530Y0067271D01*
X0434530Y0066672D02*
X0301268Y0066672D01*
X0301022Y0066074D02*
X0434512Y0066074D01*
X0434453Y0065475D02*
X0300424Y0065475D01*
X0297412Y0065475D02*
X0269424Y0065475D01*
X0270022Y0066074D02*
X0296814Y0066074D01*
X0296568Y0066672D02*
X0273621Y0066672D01*
X0274219Y0067271D02*
X0296568Y0067271D01*
X0296568Y0067869D02*
X0274768Y0067869D01*
X0274768Y0068468D02*
X0296769Y0068468D01*
X0297368Y0069066D02*
X0274768Y0069066D01*
X0275026Y0070862D02*
X0273673Y0070862D01*
X0274568Y0071460D02*
X0265872Y0071460D01*
X0266471Y0070862D02*
X0271163Y0070862D01*
X0270565Y0070263D02*
X0267069Y0070263D01*
X0267668Y0069665D02*
X0270068Y0069665D01*
X0270068Y0069066D02*
X0269468Y0069066D01*
X0270067Y0068468D02*
X0270068Y0068468D01*
X0270268Y0067271D02*
X0270617Y0067271D01*
X0270268Y0066672D02*
X0271215Y0066672D01*
X0266412Y0065475D02*
X0264424Y0065475D01*
X0265022Y0066074D02*
X0265814Y0066074D01*
X0265568Y0066672D02*
X0265268Y0066672D01*
X0265268Y0067271D02*
X0265568Y0067271D01*
X0263274Y0072059D02*
X0274568Y0072059D01*
X0274568Y0072657D02*
X0262675Y0072657D01*
X0262077Y0073256D02*
X0274568Y0073256D01*
X0275156Y0073854D02*
X0261478Y0073854D01*
X0260879Y0074453D02*
X0274935Y0074453D01*
X0274336Y0075051D02*
X0260281Y0075051D01*
X0259682Y0075650D02*
X0273738Y0075650D01*
X0273568Y0076248D02*
X0259084Y0076248D01*
X0258485Y0076847D02*
X0273568Y0076847D01*
X0273568Y0077445D02*
X0257887Y0077445D01*
X0257288Y0078044D02*
X0273845Y0078044D01*
X0274444Y0078642D02*
X0256690Y0078642D01*
X0254894Y0080438D02*
X0295950Y0080438D01*
X0295351Y0081036D02*
X0254296Y0081036D01*
X0253697Y0081635D02*
X0295068Y0081635D01*
X0295068Y0082233D02*
X0253099Y0082233D01*
X0252500Y0082832D02*
X0295068Y0082832D01*
X0295232Y0083430D02*
X0252418Y0083430D01*
X0252418Y0084029D02*
X0295831Y0084029D01*
X0296429Y0084627D02*
X0252418Y0084627D01*
D16*
X0238934Y0109128D02*
X0230768Y0117293D01*
X0172918Y0117293D01*
X0171918Y0116293D01*
X0145918Y0116293D01*
X0145918Y0134793D01*
X0150418Y0139293D01*
X0145918Y0116293D02*
X0057918Y0116293D01*
X0057918Y0138293D01*
X0050737Y0145474D01*
X0041926Y0145474D01*
X0057918Y0116293D02*
X0046280Y0104655D01*
X0041926Y0104655D01*
D17*
X0208934Y0149128D02*
X0248918Y0109143D01*
X0248918Y0081293D01*
X0262918Y0067293D01*
X0262918Y0070293D02*
X0264918Y0070293D01*
X0267918Y0067293D01*
X0262918Y0070293D02*
X0250918Y0082293D01*
X0250918Y0110293D01*
X0218934Y0142277D01*
X0218934Y0149128D01*
X0275918Y0125793D02*
X0275918Y0112793D01*
X0277918Y0110793D01*
X0298918Y0110793D01*
X0302418Y0114293D01*
X0302418Y0116293D01*
M02*
