%
M48
M72
T01C0.01300
T02C0.02756
T03C0.03500
T04C0.03937
T05C0.04724
T06C0.12598
%
T01
X34918Y63293
X54918Y63293
X64918Y63293
X74918Y63293
X84918Y63293
X94918Y63293
X104918Y63293
X114918Y63293
X124918Y63293
X134918Y63293
X144918Y63293
X154918Y63293
X164918Y63293
X174918Y63293
X184918Y63293
X194918Y63293
X204918Y63293
X214918Y63293
X224918Y63293
X234918Y63293
X244918Y63293
X262918Y67293
X267918Y67293
X272418Y68793
X276918Y72293
X275918Y76793
X283918Y67093
X287418Y67093
X290918Y67093
X294418Y67093
X298918Y67293
X317320Y67167
X317320Y74041
X325194Y74041
X325194Y67167
X333068Y66167
X340942Y66167
X348816Y66167
X356690Y66167
X364564Y66167
X372438Y66167
X380312Y66167
X388186Y66167
X396060Y66167
X403934Y66167
X380312Y74041
X372438Y74041
X364564Y74041
X356690Y74041
X348816Y74041
X340942Y74041
X333068Y74041
X333068Y81915
X340942Y81915
X348816Y81915
X356690Y81915
X364564Y81915
X372438Y81915
X380312Y81915
X380312Y89789
X372438Y89789
X364564Y89789
X356690Y89789
X348816Y89789
X340942Y89789
X333068Y89789
X325194Y89789
X317320Y89789
X309446Y89789
X301572Y89789
X294618Y89893
X288618Y89893
X282618Y89893
X276618Y89893
X270618Y89893
X264618Y89893
X258618Y89893
X253718Y89693
X253718Y84693
X253718Y95693
X258718Y95693
X264718Y95693
X270618Y95893
X276618Y95893
X282618Y95893
X288618Y95893
X294618Y95893
X301572Y97663
X309446Y97663
X317320Y97663
X325194Y97663
X325194Y105537
X317320Y105537
X309446Y105537
X305383Y109407
X309320Y113411
X317320Y113411
X325194Y113411
X325194Y120104
X325194Y124828
X328737Y125328
X321257Y124041
X317320Y124041
X313383Y124041
X309446Y124041
X305902Y124041
X311018Y120193
X317320Y120104
X302418Y116293
X297635Y118332
X296635Y114395
X293218Y113693
X289718Y113693
X286218Y113693
X282718Y113693
X279218Y113693
X270718Y113693
X264718Y113693
X258718Y113693
X253718Y113693
X253718Y119693
X253718Y124693
X245918Y119793
X253718Y107693
X258718Y107693
X264718Y107693
X270618Y107893
X276618Y107893
X282618Y107893
X288618Y107893
X294618Y107893
X301572Y105537
X294618Y101893
X288618Y101893
X282618Y101893
X276618Y101893
X270618Y101893
X264718Y101693
X258718Y101693
X253718Y101693
X275918Y125793
X281018Y126193
X285018Y126193
X285018Y129693
X287839Y131128
X291276Y131096
X294713Y131096
X297831Y129702
X297650Y133033
X296650Y136533
X293323Y136533
X281918Y140293
X273918Y140293
X265918Y140293
X262823Y148407
X270075Y148407
X270075Y152781
X266672Y157129
X269075Y159155
X266572Y161329
X270075Y168529
X277949Y168529
X285823Y168529
X293698Y168529
X301572Y168529
X309446Y168529
X317320Y168529
X325194Y168529
X333068Y168529
X340942Y168529
X348816Y168529
X356690Y168529
X364564Y168529
X372438Y168529
X380312Y168529
X380312Y160655
X372438Y160655
X364564Y160655
X356690Y160655
X356690Y152781
X364564Y152781
X372438Y152781
X380312Y152781
X380312Y144907
X372438Y144907
X364564Y144907
X356690Y144907
X356690Y137033
X364564Y137033
X372438Y137033
X380312Y137033
X387312Y137033
X387312Y129159
X380312Y129159
X372438Y129159
X364564Y129159
X356690Y129159
X348816Y129159
X356690Y121285
X364564Y121285
X372438Y121285
X380312Y121285
X387312Y121285
X380312Y113411
X372438Y113411
X364564Y113411
X356690Y113411
X356690Y105537
X364564Y105537
X372438Y105537
X380312Y105537
X380312Y97663
X372438Y97663
X364564Y97663
X356690Y97663
X325194Y81915
X317320Y81915
X309446Y81915
X301572Y81915
X297418Y82293
X297635Y122269
X303909Y132906
X305509Y136506
X309260Y136033
X307946Y132506
X311883Y132506
X315820Y132506
X319757Y132506
X323694Y134080
X328737Y133580
X325194Y139002
X317320Y139002
X311323Y139533
X311260Y143033
X311260Y146407
X317320Y144907
X325194Y144907
X325194Y152781
X317320Y152781
X309446Y152781
X306883Y150033
X301572Y152781
X295260Y149407
X293698Y152781
X293698Y160655
X285823Y160655
X277949Y160655
X277949Y152781
X277949Y148407
X255772Y148329
X249918Y140293
X213418Y134793
X182918Y132293
X182918Y129293
X182918Y126293
X176018Y124793
X172718Y128093
X163418Y127293
X163418Y130793
X159918Y130793
X159918Y127293
X153318Y125093
X156718Y122593
X152418Y129293
X150418Y139293
X139918Y128293
X129918Y128293
X119918Y128293
X109918Y128293
X99918Y128293
X89918Y128293
X79918Y128293
X69918Y128293
X34918Y133293
X34918Y153293
X34918Y173293
X54918Y173293
X54918Y193293
X64918Y193293
X74918Y193293
X84918Y193293
X94918Y193293
X104918Y193293
X114918Y193293
X124918Y193293
X134918Y193293
X144918Y193293
X154918Y193293
X164918Y193293
X174918Y193293
X184918Y193293
X194918Y193293
X204918Y193293
X214918Y193293
X224918Y193293
X234918Y193293
X244918Y193293
X254918Y193293
X264918Y193293
X274918Y193293
X284918Y193293
X293698Y184277
X301572Y184277
X309446Y184277
X317320Y184277
X325194Y184277
X333068Y184277
X340942Y184277
X348816Y184277
X356690Y184277
X364564Y184277
X372438Y184277
X380312Y184277
X380312Y176403
X372438Y176403
X364564Y176403
X356690Y176403
X348816Y176403
X340942Y176403
X333068Y176403
X325194Y176403
X317320Y176403
X309446Y176403
X301572Y176403
X293698Y176403
X285823Y176403
X277949Y176403
X270075Y176403
X301572Y160655
X309446Y160655
X317320Y160655
X325194Y160655
X325194Y192151
X333068Y192151
X340942Y192151
X348816Y192151
X356690Y192151
X364564Y192151
X372438Y192151
X380312Y192151
X388186Y192151
X396060Y192151
X403934Y192151
X429918Y193293
X427556Y168529
X419682Y168529
X411808Y168529
X411808Y160655
X405808Y160655
X405808Y152781
X411808Y152781
X419682Y152781
X427556Y152781
X427556Y160655
X419682Y160655
X419682Y144907
X411808Y144907
X405808Y144907
X411808Y137033
X419682Y137033
X419682Y129159
X411808Y129159
X411808Y121285
X419682Y121285
X419682Y113411
X411808Y113411
X405808Y113411
X405808Y105537
X411808Y105537
X419682Y105537
X427556Y105537
X427556Y97663
X419682Y97663
X411808Y97663
X405808Y97663
X411808Y89789
X419682Y89789
X427556Y89789
X429918Y63293
X317320Y192151
X309446Y192151
X301572Y192151
X170918Y139293
X172918Y117293
X54918Y83293
X34918Y83293
X34918Y108293
X34918Y193293
T02
X41926Y161222
X41926Y153348
X41926Y145474
X41926Y137600
X41926Y120403
X41926Y112529
X41926Y104655
X41926Y96781
T03
X68934Y109128
X78934Y109128
X88934Y109128
X98934Y109128
X108934Y109128
X118934Y109128
X128934Y109128
X138934Y109128
X148934Y109128
X158934Y109128
X168934Y109128
X178934Y109128
X188934Y109128
X198934Y109128
X208934Y109128
X218934Y109128
X228934Y109128
X238934Y109128
X238934Y149128
X228934Y149128
X218934Y149128
X208934Y149128
X198934Y149128
X188934Y149128
X178934Y149128
X168934Y149128
X158934Y149128
X148934Y149128
X138934Y149128
X128934Y149128
X118934Y149128
X108934Y149128
X98934Y149128
X88934Y149128
X78934Y149128
X68934Y149128
T04
X270863Y185293
X284642Y185293
T05
X233934Y169128
X233934Y89128
X73934Y89128
X73934Y169128
T06
X45666Y184277
X45666Y74041
X419682Y74041
X419682Y184277
M30
